<svg xmlns="http://www.w3.org/2000/svg" width="244" height="151" viewBox="0 0 244 151"><g transform="translate(80 10)"><path d="M82,0l82,88H0Z" transform="translate(164 141) rotate(180)" fill="#cc9d76"/><path d="M35,0,70,53H0Z" transform="translate(94)" fill="#cc9d76"/><path d="M35,0,70,53H0Z" fill="#cc9d76"/><path d="M75,0l75,33.995L121.353,89H28.647L0,33.995Z" transform="translate(158 89) rotate(180)" fill="#cc9d76"/></g><g transform="translate(0 10)"><path d="M82,0l82,88H0Z" transform="translate(164 141) rotate(180)" fill="#a9e3c6"/><path d="M35,0,70,53H0Z" transform="translate(94)" fill="#a9e3c6"/><path d="M35,0,70,53H0Z" fill="#a9e3c6"/><path d="M75.5,0,151,33.995,122.162,89H28.838L0,33.995Z" transform="translate(157 89) rotate(180)" fill="#a9e3c6"/></g><g transform="translate(39)"><path d="M47,0,94,66H0Z" transform="translate(129 66) rotate(180)" fill="#275764"/><path d="M82,0l82,88H0Z" transform="translate(164 151) rotate(180)" fill="#275764"/><path d="M35,0,70,63H0Z" transform="translate(94)" fill="#275764"/><path d="M35,0,70,63H0Z" fill="#275764"/><path d="M74.5,0,149,38.2,120.544,100H28.456L0,38.2Z" transform="translate(157 100) rotate(180)" fill="#275764"/></g></svg>