<?xml version="1.0" standalone="no"?>
<!DOCTYPE svg PUBLIC "-//W3C//DTD SVG 20010904//EN"
 "http://www.w3.org/TR/2001/REC-SVG-20010904/DTD/svg10.dtd">
<svg version="1.0" xmlns="http://www.w3.org/2000/svg"
 width="600.000000pt" height="600.000000pt" viewBox="0 0 600.000000 600.000000"
 preserveAspectRatio="xMidYMid meet">
<metadata>
Created by potrace 1.11, written by Peter Selinger 2001-2013
</metadata>
<g transform="translate(0.000000,600.000000) scale(0.100000,-0.100000)"
fill="#000000" stroke="none">
<path d="M0 3000 l0 -3000 3000 0 3000 0 0 3000 0 3000 -3000 0 -3000 0 0
-3000z m3922 1483 c8 -10 35 -55 59 -100 l44 -83 362 0 362 0 16 -29 c8 -17
164 -255 346 -531 l331 -502 -59 -62 c-33 -33 -402 -428 -819 -876 -417 -448
-761 -815 -764 -815 -3 0 -97 99 -210 219 l-204 219 -46 -51 c-103 -115 -355
-382 -360 -382 -5 0 -255 265 -345 366 l-41 45 -194 -208 c-106 -114 -196
-208 -200 -208 -3 0 -352 371 -774 825 -423 454 -791 848 -819 877 l-50 52
349 530 349 530 340 1 340 0 44 83 c24 45 51 90 59 100 14 16 72 17 942 17
870 0 928 -1 942 -17z"/>
</g>
</svg>
