<?xml version="1.0" encoding="utf-8"?>
<!DOCTYPE svg PUBLIC "-//W3C//DTD SVG 1.1//EN" "http://www.w3.org/Graphics/SVG/1.1/DTD/svg11.dtd">

<svg version="1.1" xmlns="http://www.w3.org/2000/svg" viewBox="0 0 491.52 491.52">			<path d="M86.291,248.744c0.14,0.092,0.256,0.211,0.396,0.302c9.941,6.394,21.697,9.786,33.979,9.786			c18.995,0,36.313-8.082,47.512-22.181c10.468-13.214,19.988-28.501,28.501-45.337C147.11,199.96,106.723,221.196,86.291,248.744z"></path>				<path d="M295.017,191.19c8.644,16.987,18.201,32.248,28.604,45.26c11.203,13.981,28.479,22.002,47.404,22.01h0.004			c12.336,0,24.127-3.415,34.099-9.879c0.138-0.091,0.252-0.207,0.389-0.299C385.028,220.777,344.593,199.702,295.017,191.19z"></path>				<path d="M462.504,147.495c-16.014,0-29.016,13.002-28.936,29.016c0,13.16,8.8,24.339,20.85,27.905			c-5.946,15.856-13.794,30.046-23.704,42.255c-4.915,6.025-10.703,11.099-16.966,15.221			c-31.948,20.691-77.613,15.538-102.506-15.538c-14.587-18.234-26.161-38.37-35.278-57.794			c-11.575-24.576-19.106-48.121-23.783-65.483c12.922-2.933,22.515-14.508,22.515-28.381c0-16.014-13.081-28.936-29.094-28.936			c-16.014,0-28.937,13.001-28.937,29.016c0,13.873,9.671,25.369,22.594,28.302c-4.597,17.362-12.129,40.987-23.545,65.563			c-9.037,19.423-20.612,39.559-35.119,57.872c-24.814,31.235-70.478,36.468-102.506,15.855			c-6.263-4.043-12.051-9.116-16.966-15.141c-9.989-12.13-17.837-26.4-23.942-42.255c12.13-3.567,20.93-14.746,20.85-27.905			c0-16.014-13.001-29.016-29.015-28.937C13.001,148.13,0,161.132,0,177.146c0.079,16.014,13.081,29.016,29.095,29.016			c1.189,0,2.299-0.08,3.409-0.238l31.949,190.265h-12.05v29.571h386.953v-29.571l-11.575-0.475l31.394-190.424			c1.11,0.158,2.22,0.238,3.409,0.238c16.014-0.08,29.015-13.081,28.936-29.095C491.52,160.418,478.518,147.416,462.504,147.495z			 M245.875,366.512c-21.915,0-39.682-26.425-39.682-59.02c0-32.598,17.767-59.022,39.682-59.022			c21.916,0,39.682,26.424,39.682,59.022C285.557,340.087,267.791,366.512,245.875,366.512z"></path>	</svg>

