<?xml version="1.0" encoding="utf-8"?>
<!-- Generator: Adobe Illustrator 16.0.0, SVG Export Plug-In . SVG Version: 6.00 Build 0)  -->
<!DOCTYPE svg PUBLIC "-//W3C//DTD SVG 1.1//EN" "http://www.w3.org/Graphics/SVG/1.1/DTD/svg11.dtd">
<svg version="1.1" id="Layer_1" xmlns="http://www.w3.org/2000/svg" xmlns:xlink="http://www.w3.org/1999/xlink" x="0px" y="0px"
	 width="350px" height="350px" viewBox="0 0 350 350" enable-background="new 0 0 350 350" xml:space="preserve">
<g>
	<g>
		<path d="M257.639,262.813h-5.16v-10.335c0-2.854-2.315-5.161-5.161-5.161h-7.006l-7.771-108.87
			c-0.598-8.326-7.876-15.099-16.215-15.099h-82.649c-8.346,0-15.621,6.772-16.218,15.099l-7.774,108.87h-6.999
			c-2.853,0-5.164,2.308-5.164,5.161v10.335h-5.164c-2.853,0-5.168,2.308-5.168,5.16v25.831c0,2.844,2.315,5.16,5.168,5.16h165.28
			c2.859,0,5.175-2.316,5.175-5.16v-25.831C262.813,265.121,260.498,262.813,257.639,262.813z M127.764,139.185
			c0.212-2.984,2.921-5.508,5.913-5.508h82.649c2.988,0,5.697,2.523,5.909,5.508l7.726,108.133h-49.796v-3.027l8.817-8.821
			c0.969-0.969,1.514-2.285,1.514-3.646v-8.671c12.204-5.811,20.655-18.265,20.655-32.655c0-19.938-16.214-36.156-36.151-36.156
			s-36.156,16.218-36.156,36.156c0,14.391,8.456,26.845,20.66,32.655v8.671c0,1.361,0.544,2.678,1.513,3.646l8.818,8.821v3.027
			H120.04L127.764,139.185z M159.505,204.145v6.991c-6.269-4.721-10.332-12.212-10.332-20.64c0-14.24,11.587-25.828,25.827-25.828
			c14.241,0,25.832,11.587,25.832,25.828c0,8.428-4.07,15.919-10.336,20.64v-6.991l0,0c3.208-3.646,5.16-8.422,5.16-13.648
			c0-11.393-9.262-20.661-20.656-20.661c-11.391,0-20.66,9.268-20.66,20.661C154.34,195.723,156.292,200.497,159.505,204.145z
			 M175,180.163c5.262,0,9.617,3.961,10.244,9.054c-2.73-2.414-6.317-3.883-10.244-3.883c-3.927,0.001-7.514,1.469-10.249,3.883
			C165.383,184.124,169.738,180.163,175,180.163z M169.836,200.831c0-2.854,2.315-5.176,5.164-5.176
			c2.848,0,5.165,2.322,5.165,5.176v28.842L175,234.841l-5.164-5.168V200.831L169.836,200.831z M107.854,257.638h134.289v5.176
			H107.854V257.638z M252.479,288.629L252.479,288.629h-10.336v-5.16c0-2.853-2.308-5.16-5.16-5.16s-5.16,2.309-5.16,5.16v5.16
			h-10.336v-5.16c0-2.853-2.314-5.16-5.16-5.16c-2.859,0-5.175,2.309-5.175,5.16v5.16h-10.32v-5.16c0-2.853-2.315-5.16-5.175-5.16
			c-2.846,0-5.16,2.309-5.16,5.16v5.16h-10.331v-5.16c0-2.853-2.313-5.16-5.165-5.16c-2.853,0-5.164,2.309-5.164,5.16v5.16h-10.332
			v-5.16c0-2.853-2.312-5.16-5.165-5.16c-2.852,0-5.167,2.309-5.167,5.16v5.16h-10.328v-5.16c0-2.853-2.315-5.16-5.167-5.16
			c-2.853,0-5.165,2.309-5.165,5.16v5.16h-10.331v-5.16c0-2.853-2.312-5.16-5.164-5.16c-2.853,0-5.165,2.309-5.165,5.16v5.16H97.522
			v-15.496h5.164h144.632h5.16V288.629z"/>
	</g>
</g>
<g>
	<g>
		<path d="M92.358,169.835H56.199c-2.853,0-5.164,2.312-5.164,5.164s2.312,5.164,5.164,5.164h36.159
			c2.853,0,5.164-2.312,5.164-5.164S95.211,169.835,92.358,169.835z"/>
	</g>
</g>
<g>
	<g>
		<path d="M293.805,169.835h-36.166c-2.846,0-5.16,2.312-5.16,5.164c0,2.852,2.314,5.164,5.16,5.164h36.166
			c2.845,0,5.16-2.312,5.16-5.164S296.649,169.835,293.805,169.835z"/>
	</g>
</g>
<g>
	<g>
		<path d="M282.357,113.018c-1.43-2.471-4.586-3.318-7.06-1.892l-31.309,18.08c-2.466,1.426-3.314,4.585-1.891,7.055
			c0.952,1.657,2.692,2.583,4.479,2.583c0.877,0,1.763-0.223,2.572-0.692l31.316-18.08
			C282.94,118.646,283.787,115.487,282.357,113.018z"/>
	</g>
</g>
<g>
	<g>
		<path d="M236.983,67.643c-2.467-1.426-5.63-0.579-7.052,1.891l-18.084,31.313c-1.422,2.47-0.575,5.629,1.892,7.055
			c0.817,0.469,1.703,0.692,2.572,0.692c1.785,0,3.526-0.927,4.479-2.583l18.083-31.313
			C240.297,72.228,239.45,69.069,236.983,67.643z"/>
	</g>
</g>
<g>
	<g>
		<path d="M175,51.035c-2.853,0-5.164,2.311-5.164,5.164v36.159c0,2.853,2.312,5.165,5.164,5.165c2.852,0,5.165-2.312,5.165-5.165
			V56.199C180.165,53.347,177.853,51.035,175,51.035z"/>
	</g>
</g>
<g>
	<g>
		<path d="M138.153,100.847l-18.08-31.313c-1.426-2.47-4.585-3.318-7.056-1.891c-2.47,1.426-3.317,4.585-1.891,7.055l18.079,31.313
			c0.958,1.657,2.693,2.583,4.476,2.583c0.877,0,1.767-0.224,2.58-0.692C138.732,106.477,139.58,103.317,138.153,100.847z"/>
	</g>
</g>
<g>
	<g>
		<path d="M106.012,129.206l-31.313-18.08c-2.47-1.426-5.629-0.579-7.055,1.892c-1.426,2.47-0.579,5.629,1.891,7.055l31.313,18.08
			c0.813,0.469,1.699,0.692,2.577,0.692c1.786,0,3.522-0.926,4.479-2.583C109.33,133.79,108.481,130.632,106.012,129.206z"/>
	</g>
</g>
</svg>
