<?xml version="1.0" encoding="utf-8"?>
<!-- Generator: Adobe Illustrator 16.0.0, SVG Export Plug-In . SVG Version: 6.00 Build 0)  -->
<!DOCTYPE svg PUBLIC "-//W3C//DTD SVG 1.1//EN" "http://www.w3.org/Graphics/SVG/1.1/DTD/svg11.dtd">
<svg version="1.1" id="Layer_1" xmlns="http://www.w3.org/2000/svg" xmlns:xlink="http://www.w3.org/1999/xlink" x="0px" y="0px"
	 width="350px" height="350px" viewBox="0 0 350 350" enable-background="new 0 0 350 350" xml:space="preserve">
<g>
	<path d="M175.961,71.335c-9.713,0.098-17.513,8.048-17.413,17.762c0.099,9.713,8.05,17.508,17.763,17.412
		c9.713-0.098,17.51-8.05,17.414-17.76C193.625,79.036,185.671,71.239,175.961,71.335z M176.276,103.246
		c-8.277,0.083-15.051-6.56-15.135-14.842c-0.082-8.272,6.56-15.051,14.841-15.133c8.275-0.084,15.052,6.563,15.131,14.839
		C191.198,96.387,184.556,103.165,176.276,103.246z"/>
	<path d="M245.803,230.964c0.715-4.025-4.005-8.293-6.353-11.048c-4.415-5.186-7.906-11.606-13.588-15.519
		c-0.776-0.931-1.547-1.861-2.313-2.793c-4.224,6.428-8.193,13.017-11.596,19.927c-1.496,3.039-2.971,6.099-4.398,9.172
		c-0.428,0.918-0.849,1.838-1.259,2.759c1.458-0.417,2.885-0.972,4.322-1.465c2.67-0.917,5.415-1.495,8.149-2.143
		c0.694-0.202,1.362-0.451,1.947-0.814c-2.125,8.382-8.091,15.689-16.479,18.458c-1.023,0.336-1.981,0.53-2.896,0.63
		c-4.531-1.026-8.307-2.029-10.565-6.801c-1.105-2.334-2.088-4.576-2.94-6.852c-2.772-9.778-3.008-22.124-3.203-27.613
		c-0.578-15.833-0.996-31.728-1.574-47.612c-0.007-2.093-0.027-4.188-0.027-6.286c0-8.185,1.149-16.683,0.988-25.008
		c0.411-2.1,0.822-4.196,0.836-6.351c0-0.276-0.041-0.493-0.109-0.676c3.891-1.265,7.772-3.73,10.274-5.614
		c6.023-4.528,9.815-11.591,11.476-18.79c1.869-8.149,0.394-17.705-3.957-24.836c-4.343-7.129-13.187-10.401-20.843-12.306
		c-12.833-3.197-29.544,6.42-34.296,19.036c-3.366,7.578-3.462,16.516-1.108,24.477c1.754,5.941,7.132,10.641,12.188,13.796
		c2.261,1.41,5.798,3.476,9.003,3.809c1.167,1.041-3.491,62.022-4.737,77.078c-1.054,12.722-0.317,26.333-3.621,38.733
		c-0.72,2.693-1.596,5.37-3.16,7.595c-2.254,1.625-4.718,2.703-7.186,3.148c-0.048-0.038-0.075-0.082-0.13-0.113
		c-3.279-1.934-6.068-4.699-8.741-7.379c-1.645-1.646-2.79-3.926-3.752-6.021c-0.708-1.54-0.795-3.237-1.163-4.87
		c0.046,0.018,0.099,0.038,0.146,0.059c3.248,1.266,8.168,4.141,9.181,3.114c-0.039-0.082-0.082-0.157-0.118-0.236
		c1.41,0.223,3.122-1.577,2.408-2.946c-2.574-4.96-5.545-10.056-8.816-14.587c-3.098-4.292-5.586-10.117-9.681-13.513
		c-0.166-0.144-0.429,0.103-0.396,0.287c0.007,0.059,0.016,0.117,0.027,0.179c-0.031-0.065-0.072-0.127-0.103-0.186
		c-4.318,4.898-8.184,10.227-12.216,15.327c-3.319,4.192-6.729,8.296-9.641,12.8c-0.685,1.068-1.525,2.115-2.345,3.19
		c2.111-0.548,4.067-1.568,6.146-2.328c2.42-0.896,4.99-1.252,7.403-2.177c0.313-0.126,0.717,0.179,0.693,0.514
		c-0.052,0.664-0.061,1.321-0.043,1.979c0.103,0.63,0.193,1.259,0.316,1.889c1.856,10.063,5.604,19.984,11.553,28.35
		c4.73,6.657,11.978,11.428,19.618,14.022c4.441,1.513,9.173,1.752,13.649,3.142c1.342,0.417,2.507,1.061,3.525,1.862
		c3.869,1.889,5.849,7.193,7.117,11.821c0.259-1.021,0.563-2.023,0.898-3.002c0.439,0.318,1.497-0.273,1.752-0.825
		c0.791-1.813,1.646-3.586,2.563-5.335c2.074-3.721,7.681-4.388,11.469-5.124c3.734-0.719,7.414-2.104,10.929-3.535
		c7.652-3.115,14.464-6.633,21.442-11.127c5.911-3.806,9.388-10.268,11.175-16.873c1.081-4.012,3.148-13.813,0.753-17.459
		c3.217,1.311,6.801,1.917,10.015,3.225c0.212,0.085,0.417,0.167,0.622,0.256c0,0,0.004,0,0.004,0.004
		c0.038,0.26,0.216,0.257,0.387,0.154c0.377,0.15,0.753,0.301,1.137,0.458C246.299,231.696,246.056,231.323,245.803,230.964z
		 M238.197,226.398c-1.229-0.531-2.509-0.736-3.778-0.982c-0.828-0.113-1.663-0.209-2.488-0.295
		c-0.021-0.119-0.086-0.229-0.239-0.284c-0.421-0.15-0.87-0.051-1.305,0.138c-0.068-0.007-0.133-0.014-0.198-0.018
		c0.004,0.038,0.011,0.072,0.014,0.106c-0.116,0.055-0.226,0.116-0.342,0.178c-0.014,0.007-0.027,0.007-0.045,0.007
		c-1.276,0.267-2.416,0.938-3.563,1.52c-0.004,0.007-0.007,0.014-0.007,0.014c-0.24,0.096-0.483,0.182-0.726,0.267
		c-0.182,0.062-0.428,0.497-0.138,0.582c0.914,0.274,1.732,0.264,2.677,0.206c0.514-0.035,1.021,0.082,1.54,0.089
		c0.213,0.007,0.438-0.034,0.664-0.089c-0.119,0.041-0.243,0.089-0.366,0.144c-0.318,0.144-0.64,0.328-0.958,0.499
		c-0.12,0.021-0.243,0.049-0.35,0.068c-1.081,0.172-2.207,0.897-3.214,1.314c0,0,0,0.007,0.007,0.007
		c-0.15,0.072-0.273,0.312-0.096,0.387c0.955,0.387,1.855,0.195,2.865,0.172c0.887-0.024,1.735,0.007,2.509-0.305
		c0.01,0.246,0.027,0.485,0.027,0.732c-0.021-0.027-0.021-0.062-0.048-0.089c-0.452-0.438-1.171-0.045-1.653,0.174
		c-0.414,0.188-0.764,0.441-1.058,0.771c-0.068-0.014-0.15,0.062-0.175,0.123c-0.021,0.041-0.037,0.089-0.058,0.13
		c-0.038,0.089,0.003,0.213,0.109,0.213c0.421-0.014,0.808-0.151,1.229-0.182c0.544-0.045,0.894,0.058,1.372-0.271
		c0.116-0.075,0.213-0.205,0.281-0.346c-0.027,0.944-0.096,1.899-0.274,2.889c-0.044,0.264-0.096,0.521-0.15,0.783
		c-1.882,0.168-3.717,1.154-5.593,1.451c-0.109,0.018-0.226,0.247-0.062,0.261c1.048,0.075,2.081-0.082,3.129-0.12
		c0.77-0.03,1.54-0.058,2.262-0.308c-0.215,0.992-0.469,1.968-0.76,2.93c-0.16,0.027-0.312,0.062-0.458,0.078
		c-0.866,0.117-1.712,0.359-2.577,0.493c-0.151,0.021-0.312,0.339-0.083,0.363c0.805,0.089,1.616,0.075,2.417,0.178
		c0.116,0.014,0.223,0.034,0.325,0.048c-0.425,1.246-0.932,2.457-1.523,3.648c-0.376,0-0.763,0.048-1.108,0.055
		c-0.678,0.014-1.353,0.034-2.023,0.109c-0.14,0.014-0.264,0.287-0.075,0.309c0.812,0.103,1.776,0.458,2.673,0.551
		c-0.15,0.277-0.294,0.555-0.462,0.831c-0.273,0.452-0.564,0.911-0.852,1.362c-0.527,0.007-1.048,0.082-1.582,0.15
		c-0.76,0.097-1.711,0.373-2.464,0.302c-0.178-0.018-0.421,0.328-0.198,0.411c0.64,0.226,1.458,0.164,2.136,0.239
		c0.479,0.048,0.931,0.089,1.376,0.071c-0.511,0.787-1.034,1.564-1.582,2.331c-0.574,0.924-1.177,1.808-1.807,2.677
		c-1.578-0.103-3.189-0.014-4.758-0.268c-0.205-0.034-0.469,0.384-0.222,0.466c1.27,0.407,2.68,0.805,4.079,0.985
		c-0.51,0.661-1.047,1.301-1.599,1.931c-1.55-0.089-3.121,0.411-4.664,0.15c-0.227-0.041-0.518,0.418-0.243,0.514
		c0.876,0.305,1.786,0.287,2.696,0.342c0.404,0.021,0.795,0.069,1.185,0.113c-0.523,0.551-1.071,1.085-1.626,1.612
		c-0.955,0.058-1.913,0.157-2.864,0.075c-0.473-0.041-0.938,0.828-0.332,0.944c0.551,0.106,1.149,0.199,1.763,0.254
		c-0.435,0.366-0.896,0.715-1.349,1.067c-1.69-0.205-3.364-0.328-5.059-0.493c-2.04-0.198-4.148,0.034-6.164-0.318
		c-0.072-0.014-0.154,0.127-0.075,0.154c1.605,0.578,3.364,0.76,5.041,1.051c1.396,0.25,2.988,0.712,4.508,0.869
		c-0.271,0.186-0.555,0.363-0.832,0.545c-1.218-0.168-2.439-0.315-3.655-0.445c-1.741-0.188-3.518,0.13-5.25-0.106
		c-0.044-0.003-0.103,0.093-0.048,0.106c1.383,0.321,2.882,0.335,4.299,0.424c1.256,0.076,2.44,0.397,3.648,0.65
		c-1.191,0.723-2.457,1.39-3.792,2.006c-2.293-0.273-4.586-0.26-6.88-0.78c-0.123-0.027-0.301,0.191-0.15,0.246
		c1.523,0.552,3.238,1.123,4.945,1.424c-0.725,0.281-1.454,0.527-2.187,0.764c-2.978-0.182-6.014,0.13-8.987,0.017
		c-0.182-0.007-0.37,0.346-0.127,0.37c2.057,0.191,4.179,0.355,6.294,0.438c-1.054,0.28-2.108,0.54-3.155,0.797
		c-3.259-0.5-6.544-0.9-9.823-1.078c-0.137-0.007-0.264,0.25-0.092,0.264c2.717,0.25,5.441,0.894,8.169,1.242
		c-0.845,0.206-1.684,0.421-2.519,0.644c-2.745-0.064-5.473,0.157-8.221-0.048c-0.24-0.021-0.473,0.445-0.165,0.473
		c2.149,0.174,4.323,0.191,6.486,0.123c-1.787,0.548-3.543,1.198-5.261,2.04c-1.424-0.075-2.875-0.13-4.224-0.411
		c-0.068-0.014-0.15,0.127-0.075,0.157c0.76,0.271,1.626,0.404,2.416,0.548c0.329,0.062,0.647,0.123,0.966,0.188
		c-0.855,0.462-1.701,0.972-2.529,1.558c-0.072,0.055-0.147,0.116-0.229,0.171c-0.277,0.007-0.558-0.014-0.835-0.041
		c-0.027-0.075-0.079-0.138-0.164-0.179c-0.63-0.294-1.421-0.123-2.102-0.051c-1.144,0.127-2.242,0.202-3.387,0.058
		c-0.111-0.01-0.257,0.199-0.127,0.257c1.537,0.647,3.801,1.239,5.406,0.609c0.096-0.037,0.195-0.127,0.267-0.229
		c0.106,0.027,0.212,0.055,0.318,0.068c-0.575,0.486-1.215,1.085-1.861,1.763c-0.356-0.256-0.818-0.157-1.226-0.075
		c-0.671,0.134-1.34,0.229-2.016,0.113c-0.147-0.021-0.298,0.226-0.15,0.308c0.688,0.384,1.738,0.671,2.601,0.527
		c-0.53,0.603-1.054,1.253-1.551,1.931c-0.351-0.059-0.69-0.1-1.05-0.068c-0.168,0.01-0.38,0.332-0.127,0.362
		c0.269,0.041,0.521,0.141,0.775,0.253c-0.967,1.383-1.802,2.861-2.317,4.326c-0.084-0.191-0.166-0.387-0.257-0.574
		c-1.244-3.587-3.783-6.695-7.129-8.804c-2.326-1.468-5.914-1.793-8.568-2.272c-4.683-0.845-8.907-2.197-13.129-4.36
		c-8.307-4.268-13.809-12.006-17.698-20.23c-2.167-4.579-3.676-9.306-4.815-14.234c-0.563-2.409-0.35-7.017-2.001-8.871
		c-0.229-0.261-0.692-0.291-1.001-0.22c-2.991,0.698-6.085,1.527-9.123,2.526c2.233-3.443,4.314-6.996,6.512-10.224
		c3.612-5.308,7.526-10.497,11.503-15.606c0.649,1.529,1.342,3.05,2.051,4.556c-1.207-0.257-2.617,0.842-3.818,0.808
		c-0.121,0-0.319,0.26-0.146,0.314c0.598,0.161,1.176,0.021,1.778-0.068c0.737-0.109,1.799-0.068,2.522,0.082
		c0.06,0.018,0.12-0.014,0.18-0.041c0.109,0.243,0.229,0.479,0.348,0.719c0.035,0.103,0.071,0.198,0.111,0.302
		c-1.205,0.137-2.55,0.694-3.368,0.91c-0.098,0.027-0.17,0.219-0.022,0.209c1.01-0.086,2.043-0.147,3.045,0.064
		c0.298,0.068,0.587,0.13,0.872,0.164c0.309,0.691,0.642,1.38,0.998,2.051c-1.524-0.038-3.05,0.428-4.615,0.482
		c-0.161,0.01-0.432,0.318-0.193,0.414c0.844,0.339,1.716,0.362,2.614,0.407c1.053,0.048,2.04,0.26,3.065,0.267
		c0.392,0.695,0.789,1.39,1.188,2.081c0.234,0.459,0.476,0.925,0.705,1.383c-0.95-0.123-1.908-0.188-2.857-0.216
		c-2.121-0.058-4.236,0.429-6.339,0.35c-0.075-0.004-0.154,0.141-0.055,0.161c1.699,0.328,3.517,0.212,5.243,0.448
		c1.62,0.222,3.212,0.633,4.824,0.893c0.214,0.438,0.433,0.87,0.646,1.301c-3.149-0.308-8.02-0.01-9.034,0.432
		c-0.084,0.034-0.136,0.226,0.005,0.198c3.18-0.694,6.693,1.092,9.956,1.232c0.356,0.753,0.723,1.506,1.098,2.245
		c-0.741-0.253-1.576-0.309-2.329-0.503c-1.382-0.359-2.82-0.448-4.201-0.812c-0.227-0.058-0.539,0.343-0.274,0.452
		c1.275,0.52,2.613,0.845,3.91,1.307c1.112,0.404,2.249,1.01,3.454,0.802c0.027-0.004,0.058-0.027,0.085-0.042
		c0.231,0.411,0.476,0.822,0.723,1.219c-2.725-0.835-5.463-1.561-8.231-2.352c-0.377-0.105-0.685-0.123-0.962-0.105
		c-0.063,0.229-0.123,0.451-0.154,0.644c-0.65,3.802-0.547,8.091,0.447,11.821c0.433,1.626,1.033,3.162,1.783,4.593
		c0.435,1.096,0.997,2.143,1.723,3.122c1.739,2.354,4.123,3.915,6.753,4.713c1.215,0.537,2.475,0.981,3.762,1.324
		c1.521,0.246,3.121,0.267,4.784,0.01c14.138-2.125,13.317-24.036,14.327-34.109c1.802-17.992,6.737-95.441,6.698-98.248
		c-2.513-0.515-5.008-1.64-7.253-2.56c-3.601-1.477-6.815-3.479-9.244-6.585c-1.328-1.693-2.44-3.481-3.351-5.336
		c-1.977-3.797-2.979-8.042-3.327-12.628c-0.872-11.604,6.341-22.173,16.381-26.981c0.096,0.125,0.267,0.193,0.5,0.109
		c2.868-1.035,8.255-2.625,10.65,0.137c0.154,0.18,0.4-0.154,0.35-0.311c-0.259-0.758-0.695-1.335-1.241-1.776
		c0.816,0.089,1.64,0.21,2.521,0.404c1.492,0.332,2.991,0.851,4.196,1.812c0.653,0.519,0.938,1.388,1.52,1.999
		c0.168,0.178,0.482-0.166,0.391-0.354c-0.568-1.155-0.521-2.334-1.462-3.32c-0.1-0.101-0.202-0.191-0.301-0.281
		c0.955,0.418,1.92,0.781,2.755,1.517c0.616,0.551,1.051,1.282,1.53,1.954c0.503,0.71,1.119,1.424,1.561,2.163
		c0.14,0.233,0.476-0.058,0.441-0.26c-0.291-1.545-0.862-3.32-1.794-4.755c0.493,0.166,0.979,0.332,1.465,0.522
		c1.068,1.157,2.314,1.817,3.17,3.289c0.91,1.561,1.677,3.371,1.991,5.147c0.031,0.195,0.288,0.032,0.302-0.103
		c0.123-1.813-0.171-4.297-1.109-6.305c0.124,0.062,0.24,0.123,0.359,0.187c0.233,1.475,1.455,2.552,2.201,3.823
		c1.219,2.077,0.992,4.115,1.417,6.368c0.075,0.39,0.562,0.01,0.555-0.258c-0.038-2.179,0.561-4.205-0.104-6.344
		c-0.137-0.454-0.335-0.907-0.574-1.351c0.431,0.313,0.862,0.625,1.252,0.953c0.083,0.062,0.147,0.132,0.223,0.195
		c1.462,4.134,2.218,8.454,0.818,12.763c-0.103,0.301,0.287,0.303,0.394,0.084c1.14-2.274,2.259-5.998,2.057-9.229
		c0.397,0.575,0.767,1.162,1.109,1.768c-0.22,1.804,0.239,3.623,0.435,5.418c0.257,2.41-0.668,5.634-1.893,7.72
		c-0.175,0.301,0.154,0.426,0.362,0.224c1.526-1.477,2.94-4.01,3.628-6.648c0.178,0.739,0.343,1.491,0.489,2.249
		c-0.284,2.601-1.085,5.457-2.892,7.102c-0.212,0.195-0.014,0.458,0.232,0.308c1.219-0.755,2.396-2.179,3.218-3.806
		c0.034,0.4,0.062,0.803,0.075,1.203c-0.627,1.45-1.123,2.956-2.119,4.205c-0.605,0.755-1.177,1.535-1.813,2.266
		c-0.462,0.52-1.465,1.762-2.201,1.903c-0.273,0.053-0.588,0.674-0.164,0.676c1.697,0.014,3.782-2.329,4.922-3.405
		c0.355-0.332,0.712-0.705,1.047-1.104c-0.137,0.808-0.301,1.617-0.51,2.42c-0.845,1.17-1.544,2.408-2.762,3.378
		c-1.855,1.489-5.418,3.743-7.899,3.84c-0.123,0.007-0.328,0.263-0.15,0.308c2.368,0.594,6.448-0.784,9.364-3
		c-0.145,0.488-0.302,0.969-0.473,1.441c-4.063,2.796-8.939,5.38-13.872,5.384c-0.15,0-0.321,0.282-0.112,0.316
		c3.563,0.596,7.656-0.495,10.979-1.776c0.421-0.159,0.89-0.353,1.383-0.575c-0.123,0.191-0.227,0.39-0.356,0.575
		c-2.143,1.294-4.404,2.427-6.735,3.214c-2.988,1.01-7.708,3.066-10.897,2.505c-0.062-0.007-0.15,0.106-0.093,0.149
		c3.149,1.98,8.94-0.027,12.147-0.962c0.712-0.21,1.529-0.479,2.378-0.81l-0.01,0.014c-0.366,0.466-0.849,0.888-1.403,1.287
		c-2.016,1.075-4.135,1.875-6.369,2.533c-3.354,0.986-8.361,2.846-11.846,2.143c-0.12-0.024-0.253,0.191-0.123,0.257
		c2.136,1.035,5.014,0.975,7.769,0.549c-3.217,1.351-6.393,3.01-9.908,3.048c-0.234,0.002-0.587,0.432-0.27,0.566
		c1.714,0.715,3.586,0.909,5.444,0.712c-0.017,0.385-0.034,0.769-0.055,1.152c0.052,0.021,0.106,0.051,0.161,0.053
		c-0.01,0.359-0.014,0.761-0.018,1.181c-0.558,0.007-1.174,0.159-1.618,0.231c-0.268,0.043-0.527,0.147-0.78,0.226
		c-0.302,0.094-0.894,0.457-1.191,0.325c-0.161-0.065-0.314,0.161-0.267,0.297c0.188,0.572,1.054,0.57,1.533,0.57
		c0.817,0,1.574,0.223,2.313,0.098c0.007,0.539,0.007,1.111,0.007,1.715c-0.438,0.009-0.846,0.038-1.28,0.109
		c-0.555,0.094-1.074,0.317-1.625,0.414c-0.195,0.033-0.404,0.438-0.11,0.469c0.504,0.051,1.014,0,1.517,0.027
		c0.589,0.041,1.04,0.051,1.502-0.313c0.008,0.769,0.018,1.599,0.028,2.454c-0.079,0.002-0.236,0.036-0.291,0.043
		c-0.158,0.021-0.322,0.048-0.49,0.075c-0.489,0.074-0.924,0.365-1.399,0.501c-0.188,0.051-0.41,0.414-0.109,0.467
		c0.493,0.089,0.958,0.038,1.438,0.205c0.301,0.103,0.596,0.098,0.862,0.016c0.007,0.371,0.014,0.77,0.018,1.159
		c-0.35,0.036-0.705,0.077-1.062,0.005c-0.141-0.027-0.346,0.236-0.209,0.339c0.318,0.231,0.698,0.38,1.075,0.489
		c0.075,0.021,0.14,0.027,0.205,0.036c0.014,0.758,0.027,1.547,0.041,2.353c-0.103,0.907-0.212,1.815-0.301,2.728
		c-0.202,0.038-0.404,0.076-0.606,0.118c-0.246,0.046-0.482,0.5-0.133,0.572c0.219,0.041,0.438,0.085,0.66,0.13
		c-0.086,0.875-0.154,1.749-0.226,2.627c-0.141,0.099-0.329,0.378-0.093,0.469c0.018,0.007,0.034,0.012,0.045,0.021
		c-0.609,7.425-0.866,14.88-0.938,22.351c-0.462,0.099-0.924,0.175-1.399,0.117c-0.096-0.014-0.246,0.162-0.144,0.239
		c0.458,0.351,0.989,0.505,1.533,0.63c-0.038,5.601,0.017,11.209,0.103,16.812c-0.318,0.059-0.637,0.093-0.931,0.027
		c-0.15-0.03-0.329,0.226-0.209,0.339c0.339,0.318,0.735,0.452,1.15,0.496c0.071,4.614,0.153,9.224,0.215,13.827
		c-0.007,0.004-0.01,0.011-0.017,0.011c-0.154,0.055-0.273,0.366-0.048,0.4c0.023,0.003,0.048,0.003,0.071,0.007
		c0.007,0.585,0.014,1.174,0.021,1.756c0.059,4.761,0.209,9.658,0.582,14.553c-0.335,0.062-0.64,0.082-0.89,0.007
		c-0.127-0.038-0.342,0.185-0.205,0.284c0.342,0.243,0.739,0.291,1.143,0.301c0.089,1.068,0.179,2.133,0.284,3.196
		c-0.134,0.124-0.209,0.298-0.058,0.425c0.027,0.031,0.064,0.045,0.103,0.068c0.209,1.94,0.469,3.871,0.77,5.788
		c-0.044,0.071-0.055,0.15,0.011,0.194c0.007,0.004,0.017,0.004,0.027,0.007c0.664,4.228,1.564,8.389,2.827,12.383
		c0.014,0.031,0.023,0.065,0.03,0.097c-1.533,0.146-3.073,0.219-4.606,0.383c-0.045,0.004-0.082,0.093-0.024,0.103
		c1.4,0.175,2.779,0.469,4.18,0.641c0.291,0.037,0.582,0.082,0.879,0.13c0.274,0.767,0.552,1.506,0.853,2.204
		c-0.339,0.109-0.685,0.191-1.064,0.164c-0.178-0.017-0.421,0.318-0.195,0.411c0.517,0.198,1.051,0.198,1.589,0.137
		c0.913,1.979,1.964,3.676,3.199,5.059c-0.664,0.112-1.3,0.267-1.886,0.609c-0.201-0.021-0.318,0.075-0.38,0.301
		c-0.041,0.13,0.024,0.246,0.175,0.226c0.798-0.105,1.731,0.007,2.543,0.007c0.219,0,0.418-0.034,0.63-0.062
		c0.428,0.391,0.876,0.732,1.342,1.055c-0.213,0.048-0.428,0.103-0.641,0.146c-0.188,0.045-0.4,0.49-0.112,0.47
		c0.499-0.042,1.026-0.062,1.561-0.093c0.514,0.298,1.061,0.544,1.622,0.767c-0.459,0.346-0.91,0.694-1.355,1.033
		c-1.181,0.887-1.988,2.122-3.2,2.981c-0.133,0.089-0.116,0.35,0.082,0.26c1.182-0.52,2.112-1.297,3.173-2.025
		c0.877-0.609,1.808-1.137,2.69-1.729c0.267,0.13,0.555,0.229,0.839,0.335c-0.236,0.195-0.479,0.391-0.705,0.599
		c-0.469,0.438-0.705,1.123-1.312,1.424c-0.219,0.106-0.38,0.62,0.007,0.538c0.746-0.147,1.13-0.743,1.749-1.099
		c0.538-0.305,1.058-0.637,1.458-1.089c1.26,0.315,2.622,0.435,4.145,0.268c11.679-1.294,21.864-12.962,22.069-24.67
		c-3.519,0.657-7.03,1.259-10.165,3.196c-0.452,0.28-1.062-0.273-0.753-0.736c0.332-0.496,0.66-0.995,0.992-1.495
		c1.194-2.567,2.32-5.097,3.45-7.376c1.475-2.953,2.998-5.89,4.483-8.833c1.051-1.599,2.104-3.225,3.121-4.854
		c0.007,0.014,0.007,0.021,0.014,0.03c0.247,0.401,0.521,0.774,0.784,1.161c-0.425,0.506-0.753,1.136-1.017,1.632
		c-0.794,1.479-1.786,2.763-2.252,4.401c-0.068,0.24,0.216,0.223,0.314,0.065c0.774-1.235,1.753-2.375,2.653-3.525
		c0.373-0.469,0.701-0.972,1.051-1.458c0.294,0.418,0.564,0.849,0.865,1.263c-0.414,0.531-0.76,1.164-1.023,1.694
		c-0.567,1.126-1.424,2.064-1.957,3.214c-0.055,0.113,0.099,0.137,0.153,0.062c0.76-0.941,1.804-1.66,2.52-2.628
		c0.305-0.414,0.722-0.856,1.088-1.318c0.489,0.644,0.973,1.294,1.479,1.931c-0.021,0-0.03-0.011-0.051-0.004
		c-0.88,0.284-1.444,1.301-2.133,1.88c-0.298,0.246-0.14,0.756,0.236,0.472c0.366-0.271,0.695-0.582,1.023-0.894
		c0.366-0.353,0.791-0.66,1.064-1.092c0.027-0.041,0.027-0.099,0.027-0.153c0.086,0.105,0.171,0.208,0.26,0.318
		c0.459,0.688,0.925,1.383,1.39,2.054c0.158,0.226,0.322,0.444,0.479,0.67c-0.88,0.623-1.766,1.239-2.615,1.907
		c-0.256,0.205-0.103,0.643,0.199,0.396c0.852-0.698,1.8-1.287,2.621-2.016c0.723,1.017,1.451,2.026,2.188,3.032
		c-0.593,0.246-1.164,0.63-1.701,0.917c-1.786,0.966-3.594,1.801-5.35,2.848c-0.12,0.072-0.15,0.318,0.038,0.239
		c2.478-1.067,5.387-1.632,7.741-3.021c0.377,0.503,0.76,0.989,1.137,1.481c-0.309,0.12-0.616,0.254-0.928,0.387
		c-1.558,0.675-3.111,1.417-4.713,1.972c-0.085,0.031-0.178,0.25-0.027,0.243c1.314-0.031,2.513-0.377,3.778-0.705
		c0.9-0.232,1.814-0.51,2.721-0.801c0.397,0.514,0.802,1.02,1.202,1.533c-0.11,0.024-0.216,0.048-0.322,0.072
		c-1.465,0.321-2.937,0.571-4.404,0.886c-0.113,0.021-0.223,0.227-0.059,0.261c1.684,0.325,3.915,0.472,5.771,0.021
		c0.527,0.657,1.061,1.32,1.602,1.964C239.23,226.822,238.697,226.617,238.197,226.398z M182.054,121.592
		c-0.191,0.32-0.315,0.672-0.315,1.035c0.007,0.59-0.027,1.179-0.078,1.766c-0.065,0.392-0.144,0.782-0.209,1.176
		c-0.075-1.28-0.144-2.562-0.232-3.84C181.492,121.705,181.772,121.645,182.054,121.592z"/>
</g>
</svg>
