<?xml version="1.0" encoding="utf-8"?>
<!-- Generator: Adobe Illustrator 16.0.0, SVG Export Plug-In . SVG Version: 6.00 Build 0)  -->
<!DOCTYPE svg PUBLIC "-//W3C//DTD SVG 1.1//EN" "http://www.w3.org/Graphics/SVG/1.1/DTD/svg11.dtd">
<svg version="1.1" id="Layer_1" xmlns="http://www.w3.org/2000/svg" xmlns:xlink="http://www.w3.org/1999/xlink" x="0px" y="0px"
	 width="350px" height="350px" viewBox="0 0 350 350" enable-background="new 0 0 350 350" xml:space="preserve">
<path fill="#5ECC66" d="M190.62,71.82c2.248-2.129,4.7-4.276,7.435-6.435c1.902-1.499,4.672-1.175,6.177,0.728
	c1.502,1.907,1.177,4.673-0.73,6.179c-3.691,2.913-6.811,5.781-9.521,8.587c2.004,3.625,4.443,5.802,7.326,6.407
	c10.059,2.117,26.414-12.82,36.761-25.213c-10.003-3.073-22.643-5.809-32.479-5.809c-5.841,0-10.69,0.962-13.417,3.391
	c-0.907,0.808-3.659,3.258-1.834,11.098C190.426,71.129,190.527,71.456,190.62,71.82z"/>
<path fill="#E65F58" d="M207.985,117.783c-10.741,0-20.994,3.353-30.468,9.965c-1.512,1.052-3.522,1.052-5.034,0
	c-9.475-6.612-19.727-9.965-30.469-9.965c-24.636,0-65.97,8.57-65.97,65.971c0,49.493,30.443,109.95,65.97,109.95
	c10.742,0,20.994-3.353,30.468-9.965c0.756-0.525,1.637-0.79,2.517-0.79c0.88,0,1.761,0.264,2.516,0.79
	c9.476,6.612,19.728,9.965,30.469,9.965c35.527,0,65.971-60.457,65.971-109.95C273.955,126.354,232.62,117.783,207.985,117.783z
	 M112.38,255.625c-0.696,0.401-1.456,0.592-2.204,0.592c-1.516,0-2.994-0.785-3.81-2.191
	c-13.478-23.248-21.526-52.807-21.526-79.068c0-2.429,1.967-4.398,4.398-4.398c2.431,0,4.398,1.969,4.398,4.398
	c0,24.78,7.602,52.688,20.341,74.657C115.197,251.715,114.48,254.405,112.38,255.625z"/>
<g>
	<path fill="#314E55" d="M207.985,108.987c-10.18,0-20.27,2.705-29.546,7.845c-0.581-4.788-0.32-15.685,9.59-28.961
		c3.063,4.338,6.879,7.059,11.474,8.023c1.224,0.258,2.469,0.378,3.728,0.378c19.825,0,42.984-30.121,45.711-33.758
		c0.833-1.119,1.091-2.566,0.691-3.902c-0.404-1.335-1.413-2.403-2.728-2.873c-4.643-1.668-45.72-15.887-60.58-2.656
		c-3.452,3.071-7.043,8.974-4.552,19.664c0.541,2.322,1.194,4.412,1.899,6.395c-12.931,15.359-14.585,28.975-14.144,36.633
		c-8.712-4.438-18.071-6.789-27.514-6.789c-47.514,0-74.766,27.251-74.766,74.766c0,53.786,33.351,118.747,74.766,118.747
		c11.45,0,22.793-3.403,32.985-9.87c10.191,6.467,21.534,9.87,32.985,9.87c41.416,0,74.767-64.961,74.767-118.746
		C282.751,136.239,255.5,108.987,207.985,108.987z M192.171,59.654c2.728-2.429,7.576-3.391,13.418-3.391
		c9.836,0,22.476,2.736,32.479,5.809c-10.347,12.393-26.703,27.331-36.761,25.213c-2.884-0.605-5.322-2.782-7.326-6.407
		c2.71-2.805,5.83-5.674,9.521-8.586c1.907-1.505,2.233-4.271,0.73-6.178c-1.503-1.903-4.273-2.227-6.176-0.729
		c-2.735,2.158-5.188,4.306-7.436,6.435c-0.091-0.364-0.194-0.691-0.283-1.068C188.512,62.912,191.265,60.461,192.171,59.654z
		 M207.985,293.704c-10.741,0-20.994-3.353-30.468-9.965c-0.757-0.525-1.637-0.79-2.517-0.79s-1.761,0.264-2.517,0.79
		c-9.475,6.612-19.727,9.965-30.468,9.965c-35.527,0-65.97-60.457-65.97-109.95c0-57.399,41.334-65.971,65.97-65.971
		c10.742,0,20.994,3.353,30.468,9.965c1.512,1.052,3.522,1.052,5.034,0c9.476-6.612,19.727-9.965,30.468-9.965
		c24.636,0,65.971,8.57,65.971,65.971C273.955,233.246,243.513,293.704,207.985,293.704z"/>
	<path fill="#314E55" d="M93.637,174.958c0-2.429-1.967-4.398-4.398-4.398c-2.431,0-4.399,1.969-4.399,4.398
		c0,26.262,8.049,55.82,21.526,79.068c0.816,1.406,2.293,2.191,3.81,2.191c0.748,0,1.508-0.19,2.204-0.592
		c2.1-1.22,2.817-3.911,1.598-6.011C101.239,227.646,93.637,199.737,93.637,174.958z"/>
</g>
</svg>
