<?xml version="1.0" encoding="utf-8"?>
<!-- Generator: Adobe Illustrator 16.0.0, SVG Export Plug-In . SVG Version: 6.00 Build 0)  -->
<!DOCTYPE svg PUBLIC "-//W3C//DTD SVG 1.1//EN" "http://www.w3.org/Graphics/SVG/1.1/DTD/svg11.dtd">
<svg version="1.1" id="Layer_1" xmlns="http://www.w3.org/2000/svg" xmlns:xlink="http://www.w3.org/1999/xlink" x="0px" y="0px"
	 width="350px" height="350px" viewBox="0 0 350 350" enable-background="new 0 0 350 350" xml:space="preserve">
<g>
	<path fill-rule="evenodd" clip-rule="evenodd" d="M165.83,125.289c-1.716-3.785-2.599-6.725-4.249-9.14
		c-2.798-4.096-5.995-7.938-9.198-11.739c-2.556-3.033-2.548-4.147,0.688-6.38c5.063-3.498,6.181-3.492,11.232,0.092
		c1.243,0.879,2.455,1.806,3.605,2.658c4.006-2.198,7.625-4.862,11.682-6.304c25.818-9.194,49.013-4.651,69.248,14.003
		c2.392,2.208,4.612,4.624,6.701,7.125c3.089,3.703,2.933,4.918-1.302,6.891c-5.034,2.339-10.26,4.264-15.404,6.355
		c-1.015,0.408-2.051,0.762-3.516,1.303c0.734,1.315,1.242,2.274,1.8,3.208c19.024,31.8,19.479,63.904,0.982,95.971
		c-4.848,8.405-12.217,14.602-21.015,19.126c-17.189,8.842-35.588,11.387-54.602,11.66c-16.593,0.238-31.226-4.618-44.309-14.877
		c-7.477-5.864-13.021-13.116-16.784-21.588c-8.383-18.871-11.26-38.587-7.299-59.018c0.686-3.531,1.849-7.123,3.551-10.275
		c7.836-14.496,19.463-24.578,35.593-28.794c3.814-1.002,7.938-1.129,11.918-1.12C151.623,124.474,158.089,124.946,165.83,125.289z
		 M166.304,256.487c10.577-1.821,21.225-3.297,31.712-5.536c19.192-4.109,32.697-15.541,40.49-33.473
		c6.957-16.003,9.828-32.596,6.385-50.025c-2.37-12.006-6.077-23.381-13.522-33.305c-1.444-1.927-2.77-3.529-5.562-3.24
		c-7.976,0.827-15.296-1.714-21.975-5.587c-4.329-2.505-8.079-2.427-12.437-0.704c-12.788,5.059-26.095,5.815-39.662,4.594
		c-4.733-0.43-9.646-0.782-14.283-0.006c-14.473,2.421-25.091,10.912-33.297,22.695c-3.346,4.802-5.376,10.174-6.238,15.958
		c-2.921,19.564,0.068,38.277,8.493,56.088c3.136,6.625,7.426,12.419,13.237,17.184C133.26,252.292,148.682,257.237,166.304,256.487
		z M182.753,98.694c3.904,0.514,7.861,0.443,11.389,1.636c6.691,2.259,13.477,4.649,19.606,8.086
		c7.502,4.208,15.113,7.375,23.726,7.961c0.215,0.014,0.396,0.502,1.059,1.409c-1.909,0.402-3.487,1.045-5.047,1.002
		c-5.825-0.163-11.287-1.677-16.522-4.387c-6.457-3.34-13.019-6.542-19.731-9.325c-7.508-3.111-14.785-2.658-21.338,1.02
		c7.176-1.456,11.866,1.651,16.161,5.788c1.247,1.192,2.576,2.314,3.965,3.338c8.948,6.611,18.48,11.664,30.081,11.244
		c9.175-0.332,17.239-3.855,25.508-7.737C234.892,97.266,201.349,87.696,182.753,98.694z M193.597,119.107
		c-6.079-5.325-10.252-11.989-18.975-8.847c1.288,4.461,2.49,8.632,3.893,13.478C183.165,122.306,187.818,120.88,193.597,119.107z
		 M156.358,101.655c5.057,7.344,11.76,13.441,12.899,23.012c1.438-0.152,2.616-0.275,4.123-0.434
		c-0.731-9.667-4.944-16.989-11.879-22.893C159.932,100.007,158.218,99.286,156.358,101.655z"/>
	<path fill-rule="evenodd" clip-rule="evenodd" fill="#D14520" d="M166.304,256.487c-17.623,0.75-33.044-4.195-46.657-15.355
		c-5.812-4.765-10.101-10.559-13.237-17.184c-8.425-17.812-11.415-36.524-8.493-56.088c0.862-5.784,2.892-11.156,6.238-15.958
		c8.206-11.783,18.824-20.274,33.297-22.695c4.637-0.776,9.55-0.424,14.283,0.006c13.567,1.221,26.874,0.465,39.662-4.594
		c4.357-1.724,8.107-1.802,12.437,0.704c6.679,3.873,13.999,6.414,21.975,5.587c2.792-0.29,4.117,1.313,5.562,3.24
		c7.445,9.923,11.152,21.298,13.522,33.305c3.443,17.43,0.572,34.022-6.385,50.025c-7.793,17.932-21.298,29.363-40.49,33.473
		C187.529,253.19,176.881,254.666,166.304,256.487z M109.569,209.181c-0.277,0.121-0.557,0.244-0.834,0.364
		c0.041,1.068-0.244,2.282,0.172,3.175c2.654,5.718,5.272,11.475,8.317,16.987c1.153,2.08,3.232,3.798,5.198,5.261
		c13.3,9.912,28.404,13.943,44.848,13.275c12.159-0.497,23.781-3.981,35.552-6.607c1.644-0.367,3.166-1.325,4.718-2.069
		c11.174-5.36,17.542-15.104,23.15-25.514c0.514-0.956,0.521-2.185,0.767-3.287c-3.896,3.34-7.035,6.949-9.748,10.859
		c-5.679,8.177-13.085,14.029-22.645,16.702c-6.82,1.911-13.802,3.324-20.792,4.507c-18.636,3.151-36.276,0.85-52.231-10.152
		c-3.416-2.353-5.937-5.251-7.887-8.909C115.5,218.8,112.45,214.035,109.569,209.181z M109.759,200.604
		c-0.909-0.778-1.403-1.534-1.876-1.521c-0.538,0.018-1.055,0.723-1.579,1.131c0.426,0.491,0.79,1.267,1.31,1.394
		C108.08,201.722,108.719,201.126,109.759,200.604z"/>
	<path fill-rule="evenodd" clip-rule="evenodd" fill="#76A51A" d="M182.753,98.694c18.596-10.998,52.139-1.429,68.855,20.036
		c-8.269,3.881-16.333,7.405-25.508,7.737c-11.601,0.42-21.133-4.633-30.081-11.244c-1.389-1.024-2.718-2.146-3.965-3.338
		c-4.295-4.137-8.985-7.244-16.161-5.788c6.553-3.678,13.83-4.131,21.338-1.02c6.713,2.783,13.274,5.985,19.731,9.325
		c5.235,2.71,10.697,4.225,16.522,4.387c1.56,0.043,3.138-0.6,5.047-1.002c-0.662-0.907-0.844-1.396-1.059-1.409
		c-8.612-0.586-16.224-3.754-23.726-7.961c-6.13-3.437-12.915-5.827-19.606-8.086C190.614,99.138,186.657,99.208,182.753,98.694z"/>
	<path fill-rule="evenodd" clip-rule="evenodd" fill="#AA603F" d="M156.358,101.655c1.86-2.369,3.574-1.647,5.143-0.314
		c6.936,5.903,11.148,13.226,11.879,22.893c-1.507,0.159-2.685,0.282-4.123,0.434C168.118,115.096,161.415,108.999,156.358,101.655z
		"/>
	<path fill-rule="evenodd" clip-rule="evenodd" d="M109.569,209.181c2.88,4.854,5.931,9.619,8.584,14.592
		c1.95,3.658,4.471,6.557,7.887,8.909c15.956,11.002,33.596,13.304,52.231,10.152c6.99-1.183,13.972-2.596,20.792-4.507
		c9.56-2.673,16.966-8.525,22.645-16.702c2.713-3.91,5.853-7.52,9.748-10.859c-0.245,1.103-0.253,2.331-0.767,3.287
		c-5.608,10.41-11.977,20.153-23.15,25.514c-1.552,0.744-3.074,1.702-4.718,2.069c-11.771,2.626-23.394,6.11-35.552,6.607
		c-16.444,0.668-31.548-3.363-44.848-13.275c-1.966-1.463-4.045-3.181-5.198-5.261c-3.044-5.513-5.663-11.27-8.317-16.987
		c-0.416-0.893-0.131-2.106-0.172-3.175C109.012,209.425,109.292,209.302,109.569,209.181z"/>
	<path fill-rule="evenodd" clip-rule="evenodd" d="M109.759,200.604c-1.04,0.521-1.679,1.117-2.146,1.004
		c-0.52-0.127-0.883-0.902-1.31-1.394c0.524-0.408,1.042-1.113,1.579-1.131C108.356,199.07,108.85,199.826,109.759,200.604z"/>
</g>
</svg>
