<?xml version="1.0" encoding="utf-8"?>
<!-- Generator: Adobe Illustrator 16.0.0, SVG Export Plug-In . SVG Version: 6.00 Build 0)  -->
<!DOCTYPE svg PUBLIC "-//W3C//DTD SVG 1.1//EN" "http://www.w3.org/Graphics/SVG/1.1/DTD/svg11.dtd">
<svg version="1.1" id="Layer_1" xmlns="http://www.w3.org/2000/svg" xmlns:xlink="http://www.w3.org/1999/xlink" x="0px" y="0px"
	 width="350px" height="350px" viewBox="0 0 350 350" enable-background="new 0 0 350 350" xml:space="preserve">
<g>
	<g>
		<path fill="#474747" d="M266.817,229.056c2.728,1.128,5.548,2.077,8.149,3.441c1.843,0.967,0.352,2.106-0.369,3.08
			c-3.715-2.045-7.601-2.956-11.803-1.766c-0.253-0.164-0.487-0.385-0.766-0.473c-0.208-0.066-0.471,0.036-0.709,0.063
			c0.491,0.085,0.984,0.17,1.478,0.254c3.694,1.978,7.581,2.995,11.798,2.343c2.795,3.355,5.598,6.704,8.36,10.085
			c0.149,0.184-0.041,0.646-0.136,1.625c-5.617,2.022-10.816-3.068-16.72-1.719c-3.632,9.106,4.75,15.903,4.758,24.271
			c-1.916,1.038-2.216-0.771-2.731-1.71c-1.8-3.282-3.441-6.653-5.145-9.991c-0.005-0.324,0.053-0.665-0.031-0.967
			c-0.059-0.211-0.313-0.368-0.479-0.549c0.222,0.498,0.444,0.995,0.666,1.492c-0.328,1.475-0.655,2.948-0.983,4.422l-0.582,0.089
			c-1.197-1.994-2.364-4.008-3.598-5.979c-1.411-2.251-2.882-4.463-4.326-6.692c-0.642-1.432-1.282-2.863-1.924-4.297
			c0.081-1.555,1.966-3.498-1.803-4.946c0.853,2.147,1.404,3.538,1.958,4.928c0.591,1.439,1.18,2.878,1.769,4.315
			c-0.145,1.976-0.29,3.951-0.496,6.756c-4.803-4.373-4.315-10.901-8.15-15.062c-0.574,0.659-1.003,1.149-1.432,1.64
			c-0.371,0.052-0.744,0.103-1.115,0.153c-1.747-4.081-3.893-8.05-5.104-12.284c-0.818-2.859-2.238-4.939-4.319-6.77
			c-2.581-2.271-4.988-4.85-7.875-6.646c-12.361-7.689-22.691-17.854-33.563-27.324c-30.862-26.883-61.52-53.999-92.294-80.982
			c-4.873-4.271-9.931-8.332-15.792-13.234c-0.792,2.948-1.181,4.833-1.818,6.633c-0.635,1.796-2.953,2.675-4.125,1.502
			c-5.458-10.326-10.577-24.426-10.577-24.426c0.036-0.281,0.425-0.517,0.647-0.775c8.577-0.696,19.287,1.412,26.468,5.215
			c0.664,4.792-5.398,3.616-6.474,7.759c1.132,3.257,4.512,5.23,7.248,7.65c18.544,16.412,37.205,32.692,55.726,49.13
			c13.627,12.093,26.942,24.543,40.689,36.497c12.448,10.828,25.324,21.165,37.941,31.801c3.046,2.567,6.239,3.691,10.323,3.637
			c5.846-0.079,11.647,0.898,16.772,4.152l0.026-0.172c-1.437,0.641-2.872,1.283-4.31,1.926c-2.25-1.716-4.707-1.915-7.317-1.004
			c-0.58-0.069-1.187-0.267-1.729-0.155c-0.262,0.056-0.401,0.691-0.597,1.063c0.284-0.023,0.616,0.035,0.846-0.09
			c0.513-0.281,0.977-0.654,1.46-0.99c2.442,0.326,4.886,0.651,7.328,0.977c2.355,1.374,4.827,1.967,7.511,1.101l-0.192-0.024
			c2.359,1.595,4.868,2.046,7.574,0.989L266.817,229.056z"/>
	</g>
	<g>
		<path fill="#474747" d="M266.817,229.056c2.728,1.128,5.548,2.077,8.149,3.441c1.843,0.967,0.352,2.106-0.369,3.08
			c-3.715-2.045-7.601-2.956-11.803-1.766c-0.253-0.164-0.487-0.385-0.766-0.473c-0.208-0.066-0.471,0.036-0.709,0.063
			c0.491,0.085,0.984,0.17,1.478,0.254c3.694,1.978,7.581,2.995,11.798,2.343c2.795,3.355,5.598,6.704,8.36,10.085
			c0.149,0.184-0.041,0.646-0.136,1.625c-5.617,2.022-10.816-3.068-16.72-1.719c-3.632,9.106,4.75,15.903,4.758,24.271
			c-1.916,1.038-2.216-0.771-2.731-1.71c-1.8-3.282-3.441-6.653-5.145-9.991c-0.005-0.324,0.053-0.665-0.031-0.967
			c-0.059-0.211-0.313-0.368-0.479-0.549c0.222,0.498,0.444,0.995,0.666,1.492c-0.328,1.475-0.655,2.948-0.983,4.422l-0.582,0.089
			c-1.197-1.994-2.364-4.008-3.598-5.979c-1.411-2.251-2.882-4.463-4.326-6.692c-0.642-1.432-1.282-2.863-1.924-4.297
			c0.081-1.555,1.966-3.498-1.803-4.946c0.853,2.147,1.404,3.538,1.958,4.928c0.591,1.439,1.18,2.878,1.769,4.315
			c-0.145,1.976-0.29,3.951-0.496,6.756c-4.803-4.373-4.315-10.901-8.15-15.062c-0.574,0.659-1.003,1.149-1.432,1.64
			c-0.371,0.052-0.744,0.103-1.115,0.153c-1.747-4.081-3.893-8.05-5.104-12.284c-0.818-2.859-2.238-4.939-4.319-6.77
			c-2.581-2.271-4.988-4.85-7.875-6.646c-12.361-7.689-22.691-17.854-33.563-27.324c-30.862-26.883-61.52-53.999-92.294-80.982
			c-4.873-4.271-9.931-8.332-15.792-13.234c-0.792,2.948-1.181,4.833-1.818,6.633c-0.635,1.796-2.953,2.675-4.125,1.502
			c-5.458-10.326-10.577-24.426-10.577-24.426c0.036-0.281,0.425-0.517,0.647-0.775c8.577-0.696,19.287,1.412,26.468,5.215
			c0.664,4.792-5.398,3.616-6.474,7.759c1.132,3.257,4.512,5.23,7.248,7.65c18.544,16.412,37.205,32.692,55.726,49.13
			c13.627,12.093,26.942,24.543,40.689,36.497c12.448,10.828,25.324,21.165,37.941,31.801c3.046,2.567,6.239,3.691,10.323,3.637
			c5.846-0.079,11.647,0.898,16.772,4.152l0.026-0.172c-1.437,0.641-2.872,1.283-4.31,1.926c-2.25-1.716-4.707-1.915-7.317-1.004
			c-0.58-0.069-1.187-0.267-1.729-0.155c-0.262,0.056-0.401,0.691-0.597,1.063c0.284-0.023,0.616,0.035,0.846-0.09
			c0.513-0.281,0.977-0.654,1.46-0.99c2.442,0.326,4.886,0.651,7.328,0.977c2.355,1.374,4.827,1.967,7.511,1.101l-0.192-0.024
			c2.359,1.595,4.868,2.046,7.574,0.989L266.817,229.056z"/>
	</g>
	<g>
		<path fill="#474747" d="M83.183,229.056c-2.727,1.128-5.548,2.077-8.15,3.441c-1.841,0.967-0.351,2.106,0.369,3.08
			c3.716-2.045,7.602-2.956,11.803-1.766c0.253-0.164,0.488-0.385,0.765-0.473c0.209-0.066,0.472,0.036,0.711,0.063
			c-0.493,0.085-0.985,0.17-1.479,0.254c-3.695,1.978-7.581,2.995-11.798,2.343c-2.794,3.355-5.597,6.704-8.359,10.085
			c-0.149,0.184,0.041,0.646,0.136,1.625c5.617,2.022,10.816-3.068,16.72-1.719c3.631,9.106-4.751,15.903-4.757,24.271
			c1.914,1.038,2.215-0.771,2.729-1.71c1.801-3.282,3.442-6.653,5.146-9.991c0.004-0.324-0.053-0.665,0.031-0.967
			c0.06-0.211,0.312-0.368,0.479-0.549c-0.222,0.498-0.444,0.995-0.666,1.492c0.328,1.475,0.656,2.948,0.984,4.422l0.581,0.089
			c1.197-1.994,2.364-4.008,3.599-5.979c1.41-2.251,2.881-4.463,4.325-6.692c0.641-1.432,1.283-2.863,1.923-4.297
			c-0.08-1.555-1.965-3.498,1.804-4.946c-0.853,2.147-1.405,3.538-1.958,4.928c-0.591,1.439-1.179,2.878-1.769,4.315
			c0.146,1.976,0.29,3.951,0.496,6.756c4.803-4.373,4.317-10.901,8.15-15.062c0.576,0.659,1.003,1.149,1.432,1.64
			c0.372,0.052,0.743,0.103,1.115,0.153c1.748-4.081,3.893-8.05,5.104-12.284c0.818-2.859,2.237-4.939,4.318-6.77
			c2.582-2.271,4.989-4.85,7.876-6.646c12.361-7.689,22.69-17.854,33.563-27.324c30.862-26.883,61.52-53.999,92.294-80.982
			c4.872-4.271,9.931-8.332,15.791-13.234c0.793,2.948,1.182,4.833,1.818,6.633c0.635,1.796,2.952,2.675,4.125,1.502
			c5.458-10.326,10.576-24.426,10.576-24.426c-0.035-0.281-0.424-0.517-0.646-0.775c-8.578-0.696-19.287,1.412-26.468,5.215
			c-0.665,4.792,5.397,3.616,6.474,7.759c-1.131,3.257-4.513,5.23-7.247,7.65c-18.544,16.412-37.205,32.692-55.727,49.13
			c-13.627,12.093-26.942,24.543-40.688,36.497c-12.449,10.828-25.326,21.165-37.943,31.801c-3.045,2.567-6.238,3.691-10.323,3.637
			c-5.845-0.079-11.647,0.898-16.773,4.152l-0.025-0.172c1.436,0.641,2.873,1.283,4.309,1.926c2.249-1.716,4.708-1.915,7.318-1.004
			c0.58-0.069,1.186-0.267,1.728-0.155c0.261,0.056,0.402,0.691,0.597,1.063c-0.285-0.023-0.616,0.035-0.845-0.09
			c-0.514-0.281-0.977-0.654-1.461-0.99c-2.442,0.326-4.885,0.651-7.328,0.977c-2.357,1.374-4.828,1.967-7.511,1.101l0.193-0.024
			c-2.36,1.595-4.869,2.046-7.574,0.989L83.183,229.056z"/>
	</g>
</g>
</svg>
