<?xml version="1.0" encoding="utf-8"?>
<!-- Generator: Adobe Illustrator 16.0.0, SVG Export Plug-In . SVG Version: 6.00 Build 0)  -->
<!DOCTYPE svg PUBLIC "-//W3C//DTD SVG 1.1//EN" "http://www.w3.org/Graphics/SVG/1.1/DTD/svg11.dtd">
<svg version="1.1" id="Layer_1" xmlns="http://www.w3.org/2000/svg" xmlns:xlink="http://www.w3.org/1999/xlink" x="0px" y="0px"
	 width="350px" height="350px" viewBox="0 0 350 350" enable-background="new 0 0 350 350" xml:space="preserve">
<g id="XMLID_1348_">
	<g id="XMLID_1349_">
		<path id="XMLID_1350_" fill="#4B905E" d="M156.118,276.964c0,10.429,8.454,18.882,18.882,18.882l0,0
			c10.429,0,18.882-8.453,18.882-18.882v-56.646c0-10.429-8.453-18.882-18.882-18.882l0,0c-10.428,0-18.882,8.453-18.882,18.882
			V276.964z"/>
		<path id="XMLID_1351_" fill="#64C37D" d="M175,295.846L175,295.846c10.429,0,18.882-8.453,18.882-18.882v-56.646
			c0-10.429-8.453-18.882-18.882-18.882l0,0C175,237.689,175,271.677,175,295.846z"/>
	</g>
	<path id="XMLID_1352_" fill="#C2FB3B" d="M255.605,115.608c0,0-9.268-1.852-20.845-0.588c7.047-17.548,3.588-37.176,3.588-37.176
		s-21.435-4.284-39.831,4.62C190.992,65.364,175,54.154,175,54.154s-16.186,10.804-23.651,28.244
		c-18.368-8.819-39.698-4.554-39.698-4.554s-3.459,19.627,3.588,37.176c-11.577-1.263-20.844,0.588-20.844,0.588
		s-5.802,32.879,12.893,51.575c18.697,18.695,51.575,12.893,51.575,12.893h32.274c0,0,32.878,5.803,51.574-12.893
		C261.406,148.487,255.605,115.608,255.605,115.608z"/>
	<path id="XMLID_1353_" fill="#91DC5A" d="M175,54.154c0,0-16.186,10.804-23.651,28.244c-18.368-8.819-39.698-4.554-39.698-4.554
		s-3.459,19.627,3.588,37.176c-11.577-1.263-20.844,0.588-20.844,0.588s-5.802,32.879,12.893,51.575
		c18.697,18.695,51.575,12.893,51.575,12.893H175V54.154z"/>
	<path id="XMLID_1354_" fill="#91DC5A" d="M273.154,150.692c0,0-20.245-6.876-43.079-4.172
		c-4.062-18.274-12.271-31.943-12.271-31.943S194.455,118.562,175,133.6c-19.456-15.038-42.804-19.022-42.804-19.022
		s-8.21,13.669-12.272,31.943c-22.833-2.704-43.079,4.172-43.079,4.172s-2.158,48.451,28.292,71.853
		c18.219,14.003,39.651,13.978,58.313,13.978c6.855,0,18.13,0,23.1,0c18.662,0,40.095,0.025,58.313-13.978
		C275.313,199.143,273.154,150.692,273.154,150.692z"/>
	<path id="XMLID_1355_" fill="#64C37D" d="M175,133.6c-19.456-15.038-42.804-19.022-42.804-19.022s-8.21,13.669-12.272,31.943
		c-22.833-2.704-43.079,4.172-43.079,4.172s-2.158,48.451,28.292,71.853c18.219,14.003,39.651,13.978,58.313,13.978H175
		C175,236.522,175,180.379,175,133.6z"/>
</g>
</svg>
