<?xml version="1.0" encoding="utf-8"?>
<!-- Generator: Adobe Illustrator 16.0.0, SVG Export Plug-In . SVG Version: 6.00 Build 0)  -->
<!DOCTYPE svg PUBLIC "-//W3C//DTD SVG 1.1//EN" "http://www.w3.org/Graphics/SVG/1.1/DTD/svg11.dtd">
<svg version="1.1" id="Layer_1" xmlns="http://www.w3.org/2000/svg" xmlns:xlink="http://www.w3.org/1999/xlink" x="0px" y="0px"
	 width="350px" height="350px" viewBox="0 0 350 350" enable-background="new 0 0 350 350" xml:space="preserve">
<g id="XMLID_1113_">
	<path id="XMLID_1114_" fill="#804C09" d="M188.393,108.036c0,7.396-5.996,13.393-13.393,13.393l0,0
		c-7.396,0-13.393-5.997-13.393-13.393V63.393C161.607,55.997,167.604,50,175,50l0,0c7.396,0,13.393,5.997,13.393,13.393V108.036z"
		/>
	<path id="XMLID_1115_" fill="#91DC5A" d="M221.464,94.746c-10.11-15.54-26.592-26.889-46.464-26.889
		c-19.871,0-36.354,11.349-46.463,26.889c-10.68,16.415-38.358,71.029-38.358,120.433C90.179,262.024,128.154,300,175,300
		s84.821-37.976,84.821-84.821C259.821,165.774,232.143,111.161,221.464,94.746z"/>
	<path id="XMLID_1116_" fill="#64C37D" d="M175,67.857c-19.871,0-36.354,11.349-46.463,26.889
		c-10.68,16.415-38.358,71.029-38.358,120.433C90.179,262.024,128.154,300,175,300C175,266.964,175,100.446,175,67.857z"/>
	<circle id="XMLID_1117_" fill="#BD720D" cx="175" cy="215.179" r="49.107"/>
	<path id="XMLID_1118_" fill="#804C09" d="M175,264.286c-27.121,0-49.107-21.985-49.107-49.107s21.986-49.107,49.107-49.107"/>
</g>
</svg>
