<?xml version="1.0" encoding="utf-8"?>
<!-- Generator: Adobe Illustrator 16.0.0, SVG Export Plug-In . SVG Version: 6.00 Build 0)  -->
<!DOCTYPE svg PUBLIC "-//W3C//DTD SVG 1.1//EN" "http://www.w3.org/Graphics/SVG/1.1/DTD/svg11.dtd">
<svg version="1.1" id="Capa_1" xmlns="http://www.w3.org/2000/svg" xmlns:xlink="http://www.w3.org/1999/xlink" x="0px" y="0px"
	 width="350px" height="350px" viewBox="0 0 350 350" enable-background="new 0 0 350 350" xml:space="preserve">
<g>
	<path d="M272.257,239.26c12.662-19.114,19.409-41.237,19.409-64.26c0-64.33-52.336-116.666-116.666-116.666
		C110.67,58.334,58.334,110.67,58.334,175c0,64.33,52.336,116.666,116.666,116.666c23.022,0,45.146-6.747,64.26-19.409
		l12.148,12.148c3.193,3.866,8.502,6.448,14.606,7.094c0.988,0.104,1.968,0.159,2.94,0.159c5.581,0,10.808-1.707,14.665-4.849
		c4.822-3.937,7.646-9.895,7.949-16.785c0.307-6.977-2.05-13.622-6.277-17.737L272.257,239.26z M251.28,144.791
		c-1.897-1.509-3.842-2.924-5.841-4.223c-0.28-0.179-0.576-0.327-0.855-0.505c-1.93-1.217-3.889-2.36-5.899-3.383
		c-0.456-0.233-0.93-0.42-1.389-0.642c-1.847-0.898-3.714-1.746-5.615-2.485c-0.692-0.268-1.4-0.486-2.101-0.731
		c-1.68-0.595-3.363-1.167-5.075-1.641c-0.94-0.261-1.894-0.467-2.843-0.692c-1.478-0.35-2.955-0.68-4.453-0.941
		c-1.162-0.202-2.333-0.354-3.508-0.505c-1.286-0.164-2.57-0.308-3.861-0.4c-1.346-0.102-2.69-0.164-4.044-0.195
		c-1.12-0.023-2.232-0.019-3.353,0.004c-0.847,0.02-1.687-0.042-2.535,0.004c-0.653,0.035-1.287,0.156-1.937,0.21
		c-0.973,0.077-1.937,0.198-2.905,0.314c-1.625,0.194-3.239,0.405-4.837,0.696c-0.67,0.125-1.331,0.288-1.995,0.432
		c-1.883,0.396-3.749,0.824-5.581,1.361c-0.164,0.047-0.322,0.109-0.482,0.16c-10.97,3.294-20.961,9.057-29.466,16.971
		c-0.711,0.661-1.462,1.256-2.158,1.948c-0.059,0.059-0.105,0.121-0.163,0.179c-0.825,0.833-1.579,1.75-2.373,2.625
		c-0.988,1.093-2.006,2.166-2.924,3.302c-0.125,0.152-0.265,0.284-0.385,0.436c-2.905,3.64-5.391,7.517-7.518,11.542
		c-0.202,0.377-0.369,0.766-0.564,1.147c-0.844,1.668-1.637,3.352-2.349,5.071c-0.292,0.696-0.552,1.401-0.821,2.1
		c-0.533,1.396-1.026,2.805-1.474,4.228c-0.284,0.898-0.556,1.797-0.805,2.702c-0.334,1.225-0.626,2.454-0.898,3.691
		c-0.233,1.053-0.474,2.1-0.665,3.157c-0.19,1.073-0.322,2.155-0.466,3.231c-0.16,1.19-0.35,2.373-0.451,3.57
		c-0.046,0.553-0.042,1.108-0.078,1.66c-0.179,2.765-0.198,5.53-0.082,8.295c0.043,0.999,0.063,1.999,0.144,2.998
		c0.093,1.132,0.249,2.256,0.393,3.38c0.147,1.175,0.303,2.342,0.505,3.508c0.171,0.987,0.377,1.964,0.587,2.944
		c0.292,1.36,0.622,2.714,0.988,4.06c0.218,0.793,0.436,1.586,0.681,2.372c0.505,1.649,1.085,3.271,1.708,4.885
		c0.19,0.493,0.361,0.987,0.56,1.478c2.536,6.195,5.888,12.117,10.135,17.539c0.226,0.288,0.474,0.541,0.704,0.82
		c0.533,0.669,1.116,1.307,1.676,1.96c1.019,1.183,2.049,2.349,3.123,3.453c0.284,0.296,0.525,0.614,0.817,0.902
		c0.412,0.413,0.871,0.767,1.291,1.167c1.069,1.023,2.162,2.01,3.278,2.963c0.712,0.604,1.423,1.202,2.154,1.777
		c1.338,1.058,2.711,2.05,4.107,3.01c0.366,0.249,0.704,0.545,1.073,0.79C116.9,261.345,81.667,222.211,81.667,175
		c0-51.461,41.872-93.333,93.333-93.333c47.211,0,86.341,35.237,92.493,80.784c-0.276-0.42-0.607-0.801-0.891-1.217
		c-0.824-1.202-1.695-2.376-2.594-3.535c-0.521-0.673-1.026-1.353-1.571-2.01c-1.416-1.704-2.897-3.364-4.48-4.955
		c-0.062-0.062-0.112-0.128-0.171-0.19c-1.905-1.905-3.893-3.679-5.942-5.335C251.661,145.06,251.463,144.935,251.28,144.791z
		 M66.112,175c0-60.041,48.848-108.888,108.888-108.888c60.04,0,108.888,48.848,108.888,108.888c0,9.991-1.349,19.81-3.974,29.248
		c0-0.016,0-0.031,0-0.043c0-2.252-0.125-4.499-0.323-6.739c-0.059-0.673-0.159-1.338-0.237-2.006
		c-0.183-1.584-0.404-3.158-0.685-4.726c-0.136-0.77-0.287-1.532-0.451-2.298c-0.322-1.533-0.699-3.053-1.119-4.566
		c-0.191-0.684-0.362-1.373-0.568-2.053c-0.183-0.595-0.373-1.186-0.571-1.781c0.081-1.672,0.151-3.345,0.151-5.036
		c0-55.754-45.355-101.11-101.11-101.11c-55.754,0-101.11,45.356-101.11,101.11c0,55.755,45.356,101.11,101.11,101.11
		c1.606,0,3.196-0.07,4.787-0.144c7.786,2.652,15.948,4.005,24.189,4.013c-9.356,2.578-19.079,3.909-28.977,3.909
		C114.959,283.889,66.112,235.04,66.112,175z M278.7,280.776c-2.881,2.354-7.314,3.466-11.869,2.991
		c-4.091-0.432-7.642-2.081-9.499-4.402l-11.535-11.554l0.008-0.004l-5.783-5.782l-2.57,1.442c-1.723,0.969-3.477,1.84-5.246,2.645
		c-1.123,0.51-2.267,0.945-3.406,1.389c-0.596,0.232-1.189,0.489-1.789,0.707c-1.595,0.568-3.2,1.074-4.822,1.517
		c-0.105,0.027-0.206,0.063-0.312,0.09c-13.579,3.647-27.926,2.921-40.992-1.805c-1.813-0.657-3.586-1.38-5.316-2.178
		c-0.388-0.179-0.785-0.33-1.17-0.518c-1.995-0.96-3.924-2.034-5.802-3.181c-0.599-0.365-1.179-0.766-1.77-1.151
		c-1.361-0.891-2.695-1.831-3.99-2.822c-0.288-0.223-0.576-0.443-0.863-0.67c-0.424-0.334-0.844-0.68-1.26-1.025
		c-1.213-1.008-2.392-2.065-3.539-3.162c-0.618-0.592-1.241-1.175-1.839-1.793c-0.972-1.004-1.886-2.037-2.784-3.084
		c-0.514-0.596-1.039-1.175-1.536-1.793c-4.123-5.148-7.401-10.757-9.804-16.641c-0.101-0.253-0.19-0.51-0.288-0.762
		c-0.653-1.652-1.233-3.329-1.754-5.021c-0.163-0.528-0.311-1.061-0.459-1.598c-0.396-1.42-0.739-2.847-1.042-4.285
		c-0.144-0.685-0.288-1.369-0.412-2.062c-0.233-1.311-0.409-2.625-0.568-3.947c-0.089-0.758-0.202-1.517-0.264-2.278
		c-0.117-1.373-0.164-2.75-0.198-4.123c-0.016-0.673-0.074-1.342-0.07-2.014c0.008-1.965,0.104-3.925,0.28-5.884
		c0.066-0.72,0.187-1.436,0.272-2.154c0.164-1.33,0.335-2.66,0.572-3.979c0.132-0.735,0.303-1.463,0.463-2.189
		c0.288-1.338,0.603-2.668,0.972-3.986c0.179-0.642,0.373-1.279,0.572-1.917c0.455-1.458,0.96-2.905,1.517-4.34
		c0.187-0.479,0.366-0.961,0.56-1.435c0.711-1.716,1.489-3.404,2.349-5.068c0.098-0.19,0.183-0.385,0.284-0.576
		c1.999-3.788,4.391-7.42,7.151-10.85c0.836-1.035,1.738-1.987,2.621-2.96c0.704-0.781,1.365-1.586,2.116-2.341
		c0.964-0.976,1.995-1.855,3.01-2.761c3.582-3.205,7.431-6,11.522-8.345c0.634-0.366,1.245-0.771,1.89-1.112
		c1.193-0.634,2.434-1.175,3.664-1.734c0.863-0.393,1.715-0.821,2.598-1.179c1.097-0.447,2.228-0.809,3.348-1.198
		c1.081-0.373,2.159-0.758,3.259-1.077c1-0.288,2.019-0.517,3.034-0.758c1.274-0.303,2.555-0.603,3.854-0.832
		c0.937-0.167,1.886-0.292,2.835-0.42c1.381-0.187,2.772-0.347,4.177-0.451c0.952-0.07,1.909-0.109,2.869-0.14
		c1.455-0.043,2.91-0.054,4.356-0.004c0.805,0.023,1.605,0.066,2.403,0.117c1.703,0.117,3.398,0.288,5.082,0.529
		c0.51,0.07,1.02,0.14,1.525,0.226c1.998,0.334,3.978,0.747,5.934,1.252c0.219,0.054,0.436,0.104,0.649,0.163
		c2.198,0.595,4.363,1.287,6.487,2.092c0.027,0.012,0.055,0.02,0.082,0.027c4.371,1.668,8.563,3.788,12.518,6.323
		c0.059,0.039,0.12,0.07,0.179,0.109c1.84,1.186,3.613,2.489,5.336,3.857c0.159,0.129,0.331,0.233,0.489,0.366
		c1.844,1.49,3.617,3.08,5.309,4.772c0.043,0.042,0.078,0.089,0.121,0.132c1.563,1.571,3.01,3.224,4.395,4.92
		c0.482,0.587,0.933,1.193,1.393,1.796c0.96,1.26,1.869,2.551,2.736,3.873c0.405,0.618,0.829,1.233,1.214,1.863
		c1.136,1.863,2.201,3.776,3.154,5.755c0.197,0.409,0.361,0.833,0.548,1.249c0.782,1.707,1.497,3.457,2.146,5.242
		c2.882,7.965,4.31,16.393,4.126,24.847c-0.159,7.264-1.474,14.532-3.986,21.517c-1.256,3.492-2.811,6.91-4.67,10.22l-1.442,2.57
		l5.782,5.783l12.021,12.021c2.617,2.547,4.173,7.205,3.971,11.856C283.675,272.373,282.854,277.39,278.7,280.776z"/>
	<circle cx="256.666" cy="264.444" r="3.889"/>
	<circle cx="272.222" cy="264.444" r="3.889"/>
	<circle cx="264.444" cy="256.667" r="3.889"/>
	<circle cx="264.444" cy="272.222" r="3.889"/>
	<path d="M128.333,116.667c-2.15,0-3.889,1.738-3.889,3.889v15.555c0,2.15,1.738,3.889,3.889,3.889s3.889-1.738,3.889-3.889v-15.555
		C132.223,118.405,130.484,116.667,128.333,116.667z"/>
	<path d="M111.639,160.584c-1.521-1.521-3.978-1.521-5.499,0l-9.722,9.722c-1.521,1.521-1.521,3.979,0,5.499
		c0.758,0.759,1.754,1.14,2.749,1.14c0.996,0,1.991-0.381,2.75-1.14l9.722-9.722C113.159,164.562,113.159,162.104,111.639,160.584z"
		/>
	<path d="M177.749,102.251c-1.52-1.521-3.978-1.521-5.499,0s-1.521,3.978,0,5.499l7.778,7.778c0.758,0.758,1.754,1.139,2.749,1.139
		c0.996,0,1.991-0.381,2.75-1.139c1.521-1.521,1.521-3.979,0-5.499L177.749,102.251z"/>
	<path d="M113.431,200.063l-7.777,11.667c-1.194,1.789-0.712,4.2,1.077,5.394c0.665,0.439,1.416,0.653,2.154,0.653
		c1.256,0,2.493-0.606,3.239-1.73l7.778-11.667c1.193-1.788,0.711-4.199-1.078-5.393
		C117.029,197.793,114.622,198.274,113.431,200.063z"/>
	<path d="M186.667,178.89c8.578,0,15.556-6.978,15.556-15.556s-6.978-15.556-15.556-15.556c-8.579,0-15.556,6.977-15.556,15.556
		S178.088,178.89,186.667,178.89z M186.667,155.556c4.289,0,7.777,3.488,7.777,7.778c0,4.289-3.488,7.777-7.777,7.777
		s-7.777-3.488-7.777-7.777C178.89,159.044,182.378,155.556,186.667,155.556z"/>
	<path d="M248.22,226.225c-5.872-5.881-16.124-5.881-21.996,0c-2.939,2.936-4.558,6.844-4.558,10.998
		c0,4.152,1.618,8.061,4.559,10.997c2.936,2.94,6.844,4.558,10.998,4.558c4.152,0,8.061-1.617,10.997-4.558
		c2.94-2.937,4.558-6.845,4.558-10.997C252.777,233.068,251.16,229.16,248.22,226.225z M242.721,242.721
		c-2.939,2.94-8.058,2.94-10.998,0c-1.47-1.47-2.279-3.422-2.279-5.498c0-2.077,0.81-4.029,2.279-5.5
		c1.471-1.47,3.423-2.279,5.5-2.279c2.076,0,4.028,0.81,5.498,2.279c1.471,1.471,2.279,3.423,2.279,5.5
		C245,239.299,244.191,241.251,242.721,242.721z"/>
	<path d="M225.855,195.93c0.392,0.953,1.15,1.712,2.104,2.104c0.475,0.197,0.979,0.299,1.484,0.299h19.445
		c2.15,0,3.889-1.738,3.889-3.889s-1.738-3.889-3.889-3.889h-10.057l5.028-5.028c1.521-1.521,1.521-3.979,0-5.499
		s-3.979-1.521-5.499,0l-11.662,11.663c-0.362,0.357-0.646,0.789-0.844,1.268C225.462,193.907,225.462,194.981,225.855,195.93z"/>
	<path d="M175,221.666h-11.667c-2.15,0-3.889,1.738-3.889,3.89c0,2.149,1.739,3.888,3.889,3.888h7.777v11.667
		c0,2.151,1.739,3.89,3.889,3.89s3.89-1.738,3.89-3.89v-15.555C178.89,223.404,177.15,221.666,175,221.666z"/>
	<path d="M190.556,210c0.995,0,1.991-0.382,2.749-1.14l7.778-7.777c1.52-1.521,1.52-3.979,0-5.499c-1.521-1.521-3.979-1.521-5.499,0
		l-7.778,7.777c-1.521,1.521-1.521,3.979,0,5.499C188.564,209.618,189.56,210,190.556,210z"/>
	<path d="M206.11,217.777c2.151,0,3.89-1.738,3.89-3.889v-11.666c0-2.151-1.738-3.89-3.89-3.89c-2.149,0-3.888,1.738-3.888,3.89
		v11.666C202.223,216.039,203.961,217.777,206.11,217.777z"/>
	<path d="M201.083,222.806l-7.778-7.777c-1.521-1.521-3.978-1.521-5.499,0c-1.521,1.521-1.521,3.978,0,5.499l7.778,7.777
		c0.759,0.759,1.754,1.139,2.749,1.139c0.996,0,1.991-0.38,2.75-1.139C202.603,226.784,202.603,224.326,201.083,222.806z"/>
	<path d="M211.139,218.917l-7.777,7.778c-1.521,1.52-1.521,3.978,0,5.498c0.758,0.758,1.754,1.14,2.749,1.14
		c0.996,0,1.991-0.382,2.75-1.14l7.777-7.777c1.521-1.521,1.521-3.979,0-5.499S212.66,217.396,211.139,218.917z"/>
	<path d="M221.666,198.333c0-2.15-1.738-3.889-3.889-3.889s-3.889,1.738-3.889,3.889V210c0,2.15,1.738,3.889,3.889,3.889
		s3.889-1.738,3.889-3.889V198.333z"/>
	<path d="M198.333,190.556c0,2.15,1.738,3.889,3.89,3.889H210c2.15,0,3.889-1.738,3.889-3.889s-1.738-3.889-3.889-3.889h-7.777
		C200.071,186.667,198.333,188.405,198.333,190.556z"/>
	<path d="M184.517,217.369c1.921-0.961,2.698-3.298,1.738-5.219l-3.889-7.778c-0.965-1.921-3.299-2.694-5.219-1.738
		c-1.922,0.961-2.7,3.298-1.739,5.22l3.889,7.777c0.685,1.361,2.058,2.146,3.484,2.146
		C183.364,217.777,183.96,217.646,184.517,217.369z"/>
	<path d="M193.305,193.305c1.521-1.521,1.521-3.978,0-5.499c-1.521-1.521-3.978-1.521-5.499,0l-3.889,3.89
		c-1.52,1.521-1.52,3.978,0,5.499c0.759,0.758,1.754,1.139,2.75,1.139c0.995,0,1.99-0.381,2.749-1.139L193.305,193.305z"/>
	<path d="M190.556,225.556h-3.889c-2.15,0-3.89,1.738-3.89,3.888c0,2.151,1.739,3.89,3.89,3.89h3.889c2.15,0,3.889-1.738,3.889-3.89
		C194.444,227.294,192.706,225.556,190.556,225.556z"/>
</g>
</svg>
