<?xml version="1.0" encoding="utf-8"?>
<!-- Generator: Adobe Illustrator 16.0.0, SVG Export Plug-In . SVG Version: 6.00 Build 0)  -->
<!DOCTYPE svg PUBLIC "-//W3C//DTD SVG 1.1//EN" "http://www.w3.org/Graphics/SVG/1.1/DTD/svg11.dtd">
<svg version="1.1" id="Capa_1" xmlns="http://www.w3.org/2000/svg" xmlns:xlink="http://www.w3.org/1999/xlink" x="0px" y="0px"
	 width="350px" height="350px" viewBox="0 0 350 350" enable-background="new 0 0 350 350" xml:space="preserve">
<g>
	<rect x="62.983" y="66.984" fill="#48536D" width="224.033" height="56.008"/>
	<path fill="#556080" d="M276.047,283.017H73.953c-8.27,0-14.97-6.701-14.97-14.971V122.992h232.035v145.054
		C291.018,276.315,284.316,283.017,276.047,283.017z"/>
	<polyline fill="#6D7CA0" points="255.012,90.987 279.016,66.984 287.017,66.984 287.017,122.992 279.016,122.992 255.012,90.987 	
		"/>
	<polygon fill="#3D465B" points="255.012,90.987 255.012,122.992 279.016,122.992 	"/>
	<polyline fill="#6D7CA0" points="94.988,90.987 70.984,66.984 62.983,66.984 62.983,122.992 70.984,122.992 94.988,90.987 	"/>
	<polygon fill="#3D465B" points="94.988,90.987 94.988,122.992 70.984,122.992 	"/>
	<circle fill="#3D465B" cx="126.993" cy="154.997" r="12.002"/>
	<circle fill="#3D465B" cx="223.008" cy="154.997" r="12.002"/>
	<path fill="#8697CB" d="M175,231.008c-28.676,0-52.008-23.331-52.008-52.007v-24.004c0-2.212,1.792-4,4.001-4c2.208,0,4,1.788,4,4
		v24.004c0,24.264,19.743,44.007,44.007,44.007s44.006-19.743,44.006-44.007v-24.004c0-2.212,1.793-4,4.002-4c2.207,0,4,1.788,4,4
		v24.004C227.008,207.677,203.677,231.008,175,231.008z"/>
</g>
</svg>
