<?xml version="1.0" encoding="utf-8"?>
<!-- Generator: Adobe Illustrator 16.0.0, SVG Export Plug-In . SVG Version: 6.00 Build 0)  -->
<!DOCTYPE svg PUBLIC "-//W3C//DTD SVG 1.1//EN" "http://www.w3.org/Graphics/SVG/1.1/DTD/svg11.dtd">
<svg version="1.1" id="Layer_1" xmlns="http://www.w3.org/2000/svg" xmlns:xlink="http://www.w3.org/1999/xlink" x="0px" y="0px"
	 width="350px" height="350px" viewBox="0 0 350 350" enable-background="new 0 0 350 350" xml:space="preserve">
<g>
	<path fill="#353581" d="M208.342,71.201c-2.241-2.503-4.775-4.817-7.613-6.895C186.17,53.651,166.411,52.99,150.98,62
		c-15.488,9.043-23.127,26.138-22.25,43.655c1.024,20.439,12.91,39.528,26.889,53.736c0.104,0.104,0.224,0.148,0.345,0.161
		c0.55,0.682,1.101,1.359,1.653,2.032c4.104,4.998,8.54,10.652,14.237,14.073c0.353,0.124,0.71,0.251,1.066,0.375
		c0.24,0.111,0.476,0.237,0.722,0.334c0.001,0.002,0.004,0.002,0.005,0.002c0.797,0.999,1.304,2.183,1.657,3.402
		c0.137,0.473,0.204,0.925,0.242,1.373c-0.595,3.546-1.333,6.879-2.92,10.436c-1.958,4.388-4.287,8.584-6.06,13.059
		c-4.175,10.528-0.955,19.416,5.632,28.062c3.809,4.997,7.851,9.669,9.881,15.724c2.295,6.834-1.254,13.339-4.785,18.987
		c-5.148,8.242-10.897,18.129-3.232,26.733c0.307,0.344,0.928-0.124,0.645-0.498c-8.134-10.754,5.261-22.804,9.211-32.185
		c4.457-10.577-0.18-19.247-6.755-27.669c-3.554-4.553-7.163-9.015-8.845-14.635c-1.66-5.549,0.335-11.381,2.576-16.442
		c3.038-6.861,9.539-16.182,7.849-24.245c0.081-0.228,0.17-0.457,0.271-0.69c0.233-0.525,0.531-0.994,0.868-1.432
		c0.476-0.207,0.9-0.478,1.241-0.824c5.598-3.433,9.98-9.002,14.032-13.939c11.746-14.305,23.171-30.53,25.669-49.35
		C222.823,97.203,219.035,81.828,208.342,71.201z M218.324,109.342c-1.505,16.83-10.782,31.774-20.752,44.917
		c-4.646,6.125-9.454,12.461-15.325,17.473c-0.508,0.435-1.047,0.841-1.601,1.232c-2.357,0.363-4.344,0.935-6.962,0.212
		c-1.282-0.353-2.446-1-3.537-1.788c-5.694-4.956-10.401-11.14-14.944-17.129c-9.969-13.143-19.249-28.088-20.751-44.917
		c-1.43-16.003,4.139-32.137,17.782-41.48c4.836-3.312,10.052-5.467,15.43-6.566c2.7-0.526,5.417-0.819,8.127-0.862
		c0.199-0.002,0.398-0.001,0.596-0.001c0.199,0,0.396-0.001,0.597,0.001c2.709,0.042,5.428,0.336,8.129,0.862
		c5.377,1.099,10.592,3.254,15.428,6.566c0.789,0.54,1.546,1.109,2.281,1.695c4.578,3.832,8.329,8.652,11.132,14.005
		C217.728,91.389,219.123,100.385,218.324,109.342z"/>
	<path fill="#353581" d="M189.937,66.888c-0.771-0.146-1.184,0.808-0.529,1.256c3.711,2.539,7.502,4.688,10.919,7.662
		c3.7,3.22,6.538,7.23,8.805,11.548c5.232,9.964,4.909,21.325,1.995,31.881c-0.068,0.25,0.296,0.41,0.423,0.177
		c5.344-9.799,5.354-22.375,0.708-32.443C208.2,78.173,199.881,68.771,189.937,66.888z"/>
</g>
</svg>
