<?xml version="1.0" encoding="utf-8"?>
<!-- Generator: Adobe Illustrator 16.0.0, SVG Export Plug-In . SVG Version: 6.00 Build 0)  -->
<!DOCTYPE svg PUBLIC "-//W3C//DTD SVG 1.1//EN" "http://www.w3.org/Graphics/SVG/1.1/DTD/svg11.dtd">
<svg version="1.1" id="Layer_1" xmlns="http://www.w3.org/2000/svg" xmlns:xlink="http://www.w3.org/1999/xlink" x="0px" y="0px"
	 width="350px" height="350px" viewBox="0 0 350 350" enable-background="new 0 0 350 350" xml:space="preserve">
<g>
	<g>
		<path fill="#62CCA6" d="M224.914,119.145c7.988,45.125-25.741,63.312-41.718,66.863c-0.195,0.044-0.39,0.088-0.595,0.124h-0.026
			l-7.527,0.647h-0.044c-17.513-0.16-43.714-10.207-49.546-38.938c-6.852-33.729,9.266-64.103,35.841-72.056
			C177.569,70.913,217.12,75.12,224.914,119.145z"/>
		<path fill="#62CCA6" d="M182.602,186.132c0,1.748,1.775,11.707,1.775,13.784c-3.328-3.328-13.465,0-13.465,0
			c-1.474-1.482,4.092-13.137,4.092-13.137h0.044c2.76,0.019,5.308-0.203,7.527-0.647H182.602z"/>
		<path fill="#62CCA6" d="M175.048,186.779l7.527-0.647C180.356,186.576,177.809,186.798,175.048,186.779z"/>
		<path fill="#006B64" d="M170.912,199.916c0,0,10.137-3.328,13.465,0C184.377,201.984,172.395,201.39,170.912,199.916z"/>
	</g>
	<g>
		<path fill="#3DAA95" d="M156.182,90.833c0,0-0.638,0.59-1.507,1.859c-0.422,0.63-0.896,1.429-1.224,2.396
			c-0.323,0.961-0.472,2.1-0.135,3.214c0.119,0.267,0.184,0.558,0.339,0.823c0.174,0.256,0.304,0.539,0.51,0.79
			c0.207,0.234,0.418,0.472,0.632,0.713l0.436,0.376l0.374,0.251c1.099,0.695,2.563,0.789,3.993,0.333
			c1.429-0.448,2.811-1.424,3.787-2.665c0.471-0.621,0.854-1.326,0.965-1.999c0.128-0.683-0.027-1.24-0.433-1.699l-0.036-0.044
			l-0.018-0.022l-0.009-0.011c-0.014-0.015,0.102,0.092,0.044,0.04l-0.129-0.113c-0.071-0.055-0.205-0.194-0.225-0.181
			c-0.059-0.034-0.134-0.069-0.216-0.097c-0.124-0.023-0.239-0.004-0.456,0.158c-0.426,0.333-0.813,1.085-1.025,1.824
			c-0.444,1.518-0.427,3.212,0.036,4.64c0.46,1.436,1.372,2.593,2.566,3.253c1.167,0.631,2.697,0.901,3.822,0.86
			c1.218-0.049,2.286-0.446,3.124-1.001c0.841-0.555,1.465-1.226,1.915-1.824c0.445-0.604,0.748-1.119,0.934-1.477
			c0.186-0.363,0.255-0.542,0.255-0.542l0.002-0.005c0.106-0.271,0.412-0.406,0.683-0.3c0.259,0.101,0.393,0.385,0.313,0.646
			c0,0-0.078,0.253-0.252,0.667c-0.182,0.414-0.458,1.018-0.928,1.725c-0.471,0.703-1.138,1.521-2.117,2.253
			c-0.969,0.729-2.306,1.332-3.829,1.433c-0.375,0.052-0.771,0.042-1.181,0.004c-0.204-0.015-0.41-0.03-0.617-0.044
			c-0.198-0.022-0.363-0.069-0.548-0.102l-0.547-0.111l-0.333-0.071l-0.302-0.098c-0.409-0.116-0.806-0.298-1.208-0.485
			c-1.594-0.803-2.952-2.362-3.527-4.197c-0.603-1.827-0.647-3.823-0.113-5.763c0.14-0.485,0.316-0.97,0.574-1.445
			c0.253-0.473,0.566-0.951,1.074-1.365c0.477-0.413,1.299-0.741,2.082-0.566c0.363,0.083,0.707,0.23,1.026,0.458
			c0.185,0.118,0.201,0.16,0.31,0.244l0.13,0.111l0.075,0.07l0.019,0.021l0.038,0.042l0.075,0.085c0.861,0.876,1.15,2.3,0.896,3.391
			c-0.215,1.125-0.765,2.04-1.378,2.838c-1.27,1.562-2.918,2.696-4.761,3.263c-0.919,0.278-1.895,0.406-2.855,0.304
			c-0.961-0.1-1.88-0.445-2.649-0.959c-0.195-0.142-0.399-0.29-0.575-0.432l-0.422-0.393c-0.343-0.379-0.559-0.664-0.833-0.995
			c-0.248-0.329-0.425-0.714-0.629-1.061c-0.187-0.358-0.281-0.761-0.414-1.128c-0.412-1.546-0.108-3.02,0.346-4.122
			c0.458-1.121,1.042-1.971,1.546-2.637c0.505-0.668,0.973-1.127,1.29-1.441c0.159-0.154,0.289-0.273,0.38-0.353
			c0.086-0.075,0.131-0.114,0.131-0.114l0.006-0.006c0.22-0.191,0.553-0.167,0.744,0.053
			C156.409,90.315,156.389,90.64,156.182,90.833z"/>
	</g>
	<path fill="#F7B231" d="M159.651,76.314c0,0,27.642,19.366,53.33,15.564c0,0-6.34-54.321-9.891-55.062
		C199.541,36.077,159.651,76.314,159.651,76.314z"/>
	<path fill="#EBEC45" d="M215.476,32.065c-1.804-0.851-3.801-0.81-5.742-0.258c1.52-2.544,2.601-5.233,2.041-8.243
		c-0.142-0.756-0.94-1.241-1.656-1.26c-5.086-0.135-6.081,4.494-7.035,8.858c-0.279-1.063-0.543-2.13-0.716-3.215
		c-0.381-2.401-1.169-4.929-3.419-6.162c-1.151-0.631-2.358-0.022-2.796,1.138c-1.197,3.173-0.666,6.469,0.56,9.547
		c0.647,1.627,1.766,3.93,3.348,5.226c0.003,0.272,0.103,0.545,0.345,0.773c2.123,2.005,5.82,1.571,8.457,1.084
		c3.16-0.584,5.67-2.231,7.267-4.998C216.591,33.754,216.376,32.49,215.476,32.065z"/>
	<path fill="#E56BA4" d="M197.525,43.942c-1.479,0-2.713,1.234-2.713,2.712c0,1.479,1.234,2.713,2.713,2.713
		s2.712-1.234,2.712-2.713C200.237,45.176,199.004,43.942,197.525,43.942z"/>
	<path fill="#E56BA4" d="M201.981,52.854c-1.7,0-3.12,1.419-3.12,3.121s1.42,3.121,3.12,3.121c1.701,0,3.121-1.419,3.121-3.121
		S203.683,52.854,201.981,52.854z"/>
	<path fill="#E56BA4" d="M194.55,53.681c-0.912-0.911-2.436-0.943-3.36-0.03c-0.779,0.768-0.964,1.984-0.407,2.937
		c0.782,1.334,2.673,1.58,3.768,0.485C195.474,56.149,195.474,54.605,194.55,53.681z"/>
	<path fill="#E56BA4" d="M186.301,56.217c-1.804,0-3.308,1.505-3.308,3.308c0,1.803,1.504,3.308,3.308,3.308
		c1.803,0,3.308-1.505,3.308-3.308C189.608,57.722,188.104,56.217,186.301,56.217z"/>
	<path fill="#E56BA4" d="M196.573,63.159c-1.085-1.084-2.99-0.856-3.758,0.484c-0.129,0.225-0.251,0.459-0.307,0.713
		c-0.229,1.035,0.136,2.097,1.077,2.648c0.996,0.583,1.996,0.291,2.842-0.367c-0.113,0.093-0.226,0.186-0.34,0.278
		C197.404,66.118,197.677,64.263,196.573,63.159z"/>
	<path fill="#E56BA4" d="M206.146,67.981c-0.185-0.67-0.633-1.252-1.232-1.603c-0.266-0.156-0.541-0.251-0.819-0.304
		c-0.281-0.116-0.581-0.188-0.93-0.188c-0.703,0-1.386,0.283-1.883,0.78c-1.014,1.014-1.042,2.756,0,3.766
		c0.744,0.723,1.955,1.256,2.991,0.85c0.679-0.266,1.222-0.582,1.603-1.233C206.239,69.429,206.338,68.673,206.146,67.981z"/>
	<path fill="#E56BA4" d="M185.465,68.325l-0.026-0.053c-0.616-1.279-2.406-1.603-3.557-0.933c-0.019,0.011-0.037,0.021-0.056,0.032
		c-0.74,0.431-1.417,1.396-1.316,2.296c0.089,0.803,0.275,1.251,0.778,1.88c0.734,0.919,2.277,0.97,3.223,0.416
		C185.835,71.188,186.094,69.631,185.465,68.325z"/>
	<path fill="#E56BA4" d="M178.008,69.655c-0.361-1.315-1.651-1.907-2.918-1.657c-0.025,0.005-0.049,0.01-0.074,0.015
		c-1.271,0.25-1.982,1.744-1.658,2.92c0.352,1.282,1.662,1.956,2.92,1.659c0.024-0.006,0.049-0.012,0.073-0.018
		C177.609,72.276,178.342,70.867,178.008,69.655z"/>
	<path fill="#E56BA4" d="M177.478,77.103c-0.048-0.174-0.122-0.337-0.208-0.494c-0.285-0.571-0.772-1.028-1.416-1.13
		c-0.01-0.002-0.019-0.003-0.029-0.005c-0.054-0.009-0.105-0.011-0.158-0.018c-0.079-0.013-0.16-0.023-0.239-0.028
		c-0.264-0.021-0.518-0.007-0.767,0.045c-0.015,0.003-0.029,0.003-0.043,0.005c-0.067,0.01-0.132,0.021-0.199,0.031
		c-0.992,0.156-1.684,1.278-1.684,2.21c0,0.933,0.692,2.055,1.684,2.211c0.067,0.01,0.132,0.021,0.199,0.031
		c0.034,0.005,0.064,0.006,0.097,0.011c0.106,0.02,0.216,0.032,0.326,0.038c0.032,0.003,0.065,0.003,0.097,0.005
		c0.062,0.001,0.125,0,0.187-0.002c0.11-0.002,0.22-0.01,0.328-0.026c0.058-0.007,0.115-0.012,0.173-0.021
		c0.01-0.002,0.019-0.003,0.029-0.005c0.643-0.102,1.13-0.559,1.416-1.13c0.086-0.157,0.16-0.32,0.208-0.494
		c0.054-0.195,0.067-0.406,0.063-0.618C177.545,77.508,177.531,77.298,177.478,77.103z"/>
	<path fill="#E56BA4" d="M185.229,78.003c-4.572,0-4.572,7.091,0,7.091C189.802,85.094,189.802,78.003,185.229,78.003z"/>
	<path fill="#E56BA4" d="M192.662,69.898c-1.361,0-2.496,1.136-2.496,2.497s1.135,2.496,2.496,2.496c1.36,0,2.496-1.135,2.496-2.496
		S194.022,69.898,192.662,69.898z"/>
	<path fill="#E56BA4" d="M196.833,83.474c-0.274-0.42-0.679-0.745-1.227-0.896c-1.269-0.349-2.315,0.427-2.756,1.564
		c-0.387,0.998,0.166,2.169,1.039,2.694c1.15,0.692,2.479,0.128,3.138-0.934C197.493,85.15,197.376,84.149,196.833,83.474z"/>
	<path fill="#E56BA4" d="M200.65,73.955c-1.327,0-2.434,1.107-2.434,2.434s1.106,2.434,2.434,2.434s2.434-1.107,2.434-2.434
		S201.978,73.955,200.65,73.955z"/>
	<path fill="#E56BA4" d="M208.47,85.709c0-0.698-0.281-1.375-0.774-1.869c-0.698-0.699-1.629-0.874-2.569-0.679
		c-0.277,0.057-0.554,0.15-0.781,0.32c-0.573,0.425-1.01,0.854-1.206,1.568c-0.171,0.619-0.132,1.482,0.265,2.021
		c0.007,0.01,0.014,0.02,0.021,0.03c0.703,0.958,1.73,1.536,2.95,1.2c0.05-0.014,0.095-0.036,0.144-0.053
		C207.631,87.94,208.47,86.901,208.47,85.709z"/>
	<g>
		<path d="M162.123,124.125c0,0,0.042,0.078,0.122,0.223c0.085,0.143,0.21,0.354,0.369,0.621c0.32,0.538,0.836,1.275,1.51,2.082
			c0.342,0.399,0.729,0.813,1.166,1.204c0.222,0.192,0.441,0.399,0.695,0.564c0.242,0.183,0.488,0.367,0.762,0.509l0.402,0.234
			l0.429,0.179c0.282,0.138,0.582,0.219,0.885,0.3c0.604,0.167,1.242,0.208,1.882,0.171l0.24-0.003l0.03,0h0.008
			c0.018-0.002-0.131,0.019-0.064,0.009l0.017-0.003l0.069-0.012l0.137-0.024l0.549-0.095c0.407-0.046,0.612-0.177,0.906-0.258
			c0.561-0.193,1.126-0.514,1.614-0.861c0.233-0.199,0.462-0.395,0.687-0.586c0.199-0.223,0.417-0.421,0.595-0.649
			c0.359-0.453,0.682-0.908,0.939-1.36c0.519-0.901,0.864-1.727,1.061-2.314c0.097-0.295,0.172-0.526,0.224-0.684
			c0.043-0.151,0.065-0.232,0.065-0.232l0.013-0.046c0.08-0.28,0.371-0.443,0.65-0.364c0.247,0.07,0.403,0.306,0.382,0.552
			c0,0-0.009,0.103-0.025,0.294c-0.022,0.185-0.046,0.455-0.114,0.79c-0.136,0.668-0.35,1.63-0.841,2.723
			c-0.243,0.546-0.557,1.124-0.96,1.698c-0.196,0.29-0.444,0.561-0.676,0.852c-0.258,0.271-0.537,0.539-0.832,0.797
			c-0.628,0.488-1.301,0.933-2.119,1.239c-0.406,0.134-0.879,0.32-1.214,0.357l-0.547,0.103L171,132.161l-0.068,0.013l-0.018,0.003
			l-0.091,0.012l-0.04,0.002l-0.318,0.013c-0.843,0.058-1.709-0.03-2.514-0.26c-0.404-0.116-0.805-0.23-1.163-0.426l-0.546-0.263
			l-0.497-0.318c-0.665-0.411-1.215-0.916-1.692-1.416c-0.483-0.496-0.879-1.01-1.21-1.501c-0.673-0.975-1.067-1.871-1.339-2.492
			c-0.137-0.312-0.215-0.566-0.278-0.745c-0.055-0.176-0.085-0.271-0.085-0.271c-0.087-0.278,0.068-0.575,0.346-0.662
			c0.245-0.077,0.503,0.034,0.622,0.25L162.123,124.125z"/>
	</g>
	<circle cx="152.352" cy="122.101" r="2.774"/>
	<circle cx="186.821" cy="118.011" r="2.773"/>
	<g>
		<path fill="#434040" d="M175.033,186.253c1.554,0.065,3.124,0.073,4.675,0.011c0.776-0.032,1.548-0.091,2.306-0.185
			c0.38-0.046,0.75-0.109,1.113-0.186c0.36-0.08,0.699-0.185,1-0.31l0.033-0.015c0.243-0.102,0.518-0.024,0.676,0.171
			c1.45,1.79,2.538,3.746,3.352,5.865c0.798,2.112,1.238,4.395,1.146,6.693c-0.053,1.153-0.229,2.278-0.56,3.412
			c-0.337,1.124-0.903,2.179-1.509,3.124c-1.232,1.911-2.7,3.577-4.126,5.235c-1.415,1.657-2.879,3.286-3.943,5.055
			c-0.521,0.875-0.939,1.813-0.963,2.667c-0.011,0.213,0.003,0.419,0.051,0.614l0.032,0.146l0.007,0.037
			c0.003,0.015-0.005-0.008,0.007,0.025l0.031,0.098l0.128,0.389c0.163,0.45,0.368,0.926,0.604,1.362
			c0.93,1.769,2.512,3.114,4.399,3.647c1.869,0.546,4.002,0.351,5.69-0.558c0.84-0.449,1.55-1.096,1.938-1.853
			c0.395-0.755,0.421-1.61,0.121-2.448c-0.147-0.413-0.378-0.84-0.644-1.21c-0.229-0.315-0.538-0.579-0.875-0.725
			c-0.673-0.311-1.569-0.217-2.417,0.161c-1.718,0.772-3.16,2.372-4.208,4.116c-1.06,1.767-1.771,3.757-2.183,5.805
			c-0.819,4.115-0.415,8.441,0.763,12.515c0.611,2.023,1.347,4.152,1.957,6.254c0.629,2.108,1.206,4.234,1.735,6.375
			c1.052,4.28,1.9,8.63,2.308,13.057c0.4,4.413,0.382,8.953-0.732,13.368c-1.072,4.444-3.699,8.436-7.066,11.475
			c-1.698,1.515-3.623,2.817-5.835,3.628c-1.103,0.4-2.3,0.667-3.576,0.598c-1.259-0.053-2.686-0.667-3.48-1.827
			c-0.393-0.577-0.617-1.171-0.78-1.828c-0.129-0.581-0.188-1.37,0.071-2.077c0.243-0.729,0.821-1.351,1.465-1.677
			c0.646-0.336,1.328-0.458,1.972-0.463c2.597,0.04,4.742,1.466,6.302,3.192c1.569,1.762,2.553,3.935,3.095,6.148
			c0.544,2.221,0.664,4.517,0.525,6.739c-0.228,4.365-0.456,8.73-0.461,13.078c0.008,2.172,0.067,4.345,0.355,6.465
			c0.305,2.093,0.841,4.231,2.261,5.675c0.204,0.208,0.201,0.542-0.007,0.746c-0.205,0.201-0.534,0.199-0.739,0
			c-0.853-0.833-1.442-1.888-1.844-2.959c-0.408-1.077-0.642-2.187-0.822-3.29c-0.338-2.213-0.432-4.423-0.478-6.624
			c-0.069-4.402,0.088-8.782,0.243-13.157c0.091-2.141-0.038-4.263-0.557-6.292c-0.514-2.018-1.42-3.938-2.785-5.438
			c-1.333-1.482-3.228-2.602-5.063-2.59c-0.909,0.01-1.652,0.391-1.834,1.01c-0.108,0.332-0.106,0.681,0.002,1.16
			c0.108,0.399,0.276,0.841,0.509,1.168c0.478,0.657,1.244,1.011,2.16,1.06c0.913,0.042,1.9-0.165,2.843-0.522
			c1.897-0.714,3.66-1.912,5.215-3.307c3.101-2.822,5.489-6.465,6.467-10.562c1.022-4.093,1.045-8.44,0.641-12.717
			c-0.408-4.288-1.25-8.55-2.299-12.76c-0.524-2.105-1.109-4.198-1.725-6.283c-0.604-2.103-1.294-4.112-1.942-6.278
			c-1.23-4.314-1.665-8.951-0.757-13.44c0.457-2.234,1.241-4.424,2.44-6.409c1.208-1.961,2.792-3.816,5.092-4.862
			c1.127-0.497,2.594-0.75,3.943-0.14c0.664,0.298,1.213,0.776,1.623,1.345c0.368,0.521,0.662,1.064,0.883,1.681
			c0.452,1.214,0.414,2.728-0.23,3.916c-0.622,1.197-1.642,2.051-2.726,2.622c-2.188,1.135-4.736,1.325-7.059,0.636
			c-2.339-0.677-4.324-2.424-5.399-4.543c-0.276-0.529-0.503-1.062-0.705-1.644l-0.124-0.392l-0.031-0.098l-0.034-0.137
			l-0.056-0.253c-0.075-0.336-0.094-0.686-0.076-1.016c0.07-1.35,0.64-2.457,1.227-3.445c1.218-1.974,2.725-3.596,4.157-5.249
			c2.837-3.281,5.95-6.508,5.975-10.803c0.23-4.16-1.46-8.396-4.001-11.707l0.709,0.156c-0.86,0.354-1.667,0.466-2.476,0.561
			c-0.807,0.086-1.608,0.134-2.406,0.153c-1.597,0.039-3.18,0.007-4.771-0.086c-0.291-0.017-0.513-0.267-0.496-0.557
			C174.497,186.461,174.746,186.241,175.033,186.253z"/>
	</g>
	<g>
		<path fill="#359784" d="M180.638,138.375c0,0-0.023-0.113-0.066-0.325c-0.035-0.215-0.093-0.519-0.125-0.913
			c-0.035-0.392-0.07-0.87-0.069-1.418c-0.01-0.549,0.008-1.172,0.104-1.844c0.076-0.674,0.204-1.403,0.403-2.16
			c0.184-0.762,0.45-1.553,0.81-2.334c0.345-0.79,0.783-1.572,1.297-2.32c0.273-0.362,0.533-0.741,0.826-1.094l0.934-1.018
			c0.334-0.316,0.689-0.609,1.032-0.912l0.259-0.225c0.158-0.131,0.194-0.144,0.297-0.221l0.521-0.371
			c0.7-0.49,1.586-0.964,2.354-1.292c0.794-0.352,1.609-0.569,2.381-0.746c0.778-0.149,1.52-0.244,2.206-0.27
			c1.376-0.057,2.507,0.145,3.282,0.313c0.389,0.084,0.688,0.188,0.894,0.254c0.214,0.079,0.328,0.121,0.328,0.121
			c0.275,0.093,0.423,0.393,0.329,0.668s-0.393,0.423-0.669,0.33c0.022,0.005-0.375-0.087-1.089-0.156
			c-0.712-0.081-1.745-0.094-2.954,0.043c-0.605,0.066-1.25,0.199-1.919,0.378c-0.663,0.2-1.343,0.459-2.021,0.778
			c-0.704,0.34-1.289,0.68-1.974,1.171l-0.517,0.377c-0.067,0.052-0.216,0.151-0.216,0.165l-0.225,0.201
			c-0.297,0.271-0.607,0.53-0.896,0.81l-0.818,0.883c-0.261,0.304-0.487,0.632-0.732,0.943c-0.447,0.65-0.866,1.311-1.195,1.993
			c-0.188,0.33-0.311,0.684-0.457,1.019c-0.158,0.331-0.268,0.673-0.383,1.004c-0.23,0.662-0.397,1.31-0.513,1.915
			c-0.067,0.301-0.115,0.594-0.152,0.873c-0.05,0.278-0.091,0.543-0.114,0.794c-0.064,0.501-0.088,0.942-0.102,1.304
			c-0.007,0.36-0.012,0.644-0.015,0.837c0.005,0.19,0.008,0.291,0.008,0.291l0.001,0.031c0.009,0.292-0.221,0.534-0.512,0.543
			C180.909,138.805,180.688,138.622,180.638,138.375z"/>
	</g>
	<g>
		<path fill="#359784" d="M157.493,140.455c0,0,0.003-0.101,0.009-0.291c-0.003-0.193-0.008-0.477-0.015-0.837
			c-0.014-0.362-0.037-0.803-0.102-1.304c-0.023-0.251-0.065-0.516-0.115-0.794c-0.037-0.28-0.084-0.572-0.151-0.873
			c-0.115-0.605-0.283-1.253-0.513-1.915c-0.115-0.331-0.224-0.673-0.382-1.004c-0.147-0.335-0.27-0.689-0.458-1.019
			c-0.329-0.683-0.748-1.343-1.195-1.993c-0.245-0.311-0.472-0.64-0.732-0.943l-0.819-0.883c-0.289-0.28-0.6-0.539-0.896-0.811
			l-0.224-0.201c0-0.013-0.149-0.113-0.216-0.165l-0.516-0.377c-0.685-0.491-1.27-0.831-1.974-1.171
			c-0.679-0.319-1.359-0.579-2.022-0.778c-0.668-0.179-1.313-0.312-1.918-0.378c-1.209-0.137-2.242-0.124-2.954-0.043
			c-0.714,0.069-1.112,0.162-1.09,0.156c-0.276,0.094-0.575-0.054-0.668-0.33c-0.094-0.276,0.054-0.575,0.33-0.668
			c0,0,0.114-0.042,0.327-0.121c0.206-0.066,0.505-0.17,0.895-0.254c0.775-0.168,1.906-0.37,3.281-0.313
			c0.687,0.025,1.428,0.12,2.207,0.27c0.771,0.177,1.586,0.394,2.38,0.746c0.769,0.328,1.654,0.801,2.355,1.292l0.521,0.371
			c0.103,0.078,0.139,0.09,0.297,0.221l0.259,0.225c0.343,0.303,0.698,0.596,1.032,0.912l0.934,1.019
			c0.293,0.353,0.553,0.732,0.826,1.094c0.514,0.748,0.953,1.53,1.297,2.319c0.359,0.782,0.626,1.573,0.809,2.334
			c0.199,0.757,0.328,1.486,0.403,2.16c0.096,0.672,0.113,1.295,0.104,1.844c0,0.549-0.034,1.026-0.069,1.418
			c-0.032,0.394-0.09,0.698-0.126,0.913c-0.043,0.212-0.065,0.325-0.065,0.325c-0.058,0.286-0.336,0.47-0.622,0.413
			c-0.255-0.052-0.43-0.28-0.423-0.533L157.493,140.455z"/>
	</g>
	<path opacity="0.8" fill="#FFFFFF" d="M152.07,85.349c-8.114,2.102-14.622,10.919-18.026,18.11
		c-1.872,3.955,3.923,6.82,6.036,3.031c1.935-3.467,3.851-6.86,6.221-10.058c2.26-3.048,5.256-5.416,7.563-8.398
		C154.917,86.675,153.709,84.924,152.07,85.349z"/>
	<path fill="#51BF95" d="M153.541,134.139c-0.032-0.223-0.074-0.447-0.125-0.671l0.038-0.01c-0.121-0.73-0.384-1.418-0.757-2.046
		c-1.7-3.587-5.509-6.373-9.472-4.193c-1.702,0.937-1.922,3.339-0.603,4.682c2.047,2.084,3.883,4.409,6.514,5.804
		C151.783,139.11,154.186,136.308,153.541,134.139z"/>
	<path fill="#51BF95" d="M195.985,126.579c-0.545-1.546-1.939-2.333-3.295-2.209c-2.193-0.382-4.525,0.832-6.245,2.41
		c-2.295,2.105-3.626,5.266-3.771,8.339c-0.11,2.316,2.824,4.097,4.789,2.748c1.891-1.297,3.614-2.88,5.214-4.516
		C194.241,131.751,196.862,129.073,195.985,126.579z"/>
	<path fill="#51BF95" d="M219.853,135.082c-0.142-0.271-0.3-0.515-0.471-0.736c-0.62-2.287-3.747-2.729-5.331-1.211
		c-0.014,0.014-0.025,0.029-0.04,0.042c-1.468,0.651-2.668,1.971-2.96,3.684c-1.405,2.125-2.626,4.401-4.184,6.411
		c-3.036,3.921-6.666,7.366-10.469,10.532c-3.498,2.913-7.604,5.066-11.689,7.016c-3.367,1.607-6.668,3.746-8.385,7.172
		c-1.193,2.383-0.802,5.835,1.871,7.134c10.969,5.324,22.396-2.544,29.981-10.179C214.666,158.416,224.983,144.878,219.853,135.082z
		"/>
	<path opacity="0.2" fill="#650E81" d="M206.41,66.477c-0.554-4.854-0.466-12.023-3.41-16.067c-0.711-0.977-2.041-0.818-2.471,0.323
		c-0.951,2.521-0.524,5.29-0.542,7.956c-0.02,3.11,0.13,6.233,0.24,9.341c0.181,5.087-0.399,11.764,2.13,16.316
		c1.233,2.221,5.345,2.026,5.779-0.755C208.981,78.184,207.031,71.917,206.41,66.477z"/>
	<path fill="#FFFFFF" d="M200.043,24.948c-0.232-1.456-2.697-1.457-2.929,0c-0.252,1.578-0.549,3.625,1.001,4.63
		c0.661,0.428,1.508,0.113,1.907-0.5C200.754,27.958,200.247,26.222,200.043,24.948z"/>
	<path fill="#FFFFFF" d="M208.043,25.441c-0.871,0.265-1.376,0.812-1.841,1.568c-0.207,0.337-0.396,0.646-0.522,1.024
		c-0.173,0.517-0.054,1.331,0.621,1.442c0.854,0.14,1.422-0.479,1.976-1.034c0.581-0.581,0.976-1.276,0.924-2.119
		C209.166,25.748,208.641,25.259,208.043,25.441z"/>
	<path fill="#FFFFFF" d="M178.188,59.705c-0.886,0.711-1.557,1.706-2.333,2.531c-1.055,1.118-2.217,2.128-3.317,3.199
		c-1.836,1.786-3.948,3.544-3.975,6.307c-0.005,0.557,0.519,0.884,1.027,0.782c2.871-0.572,4.963-2.746,7.01-4.712
		c1.855-1.781,4.661-4,4.836-6.762C181.55,59.222,179.355,58.765,178.188,59.705z"/>
</g>
</svg>
