<?xml version="1.0" encoding="utf-8"?>
<!-- Generator: Adobe Illustrator 16.0.0, SVG Export Plug-In . SVG Version: 6.00 Build 0)  -->
<!DOCTYPE svg PUBLIC "-//W3C//DTD SVG 1.1//EN" "http://www.w3.org/Graphics/SVG/1.1/DTD/svg11.dtd">
<svg version="1.1" id="Layer_1" xmlns="http://www.w3.org/2000/svg" xmlns:xlink="http://www.w3.org/1999/xlink" x="0px" y="0px"
	 width="350px" height="350px" viewBox="0 0 350 350" enable-background="new 0 0 350 350" xml:space="preserve">
<g>
	<path fill="#CCCCCC" d="M273.674,77.299c-24.77-9.961-49.927,11.848-60.175,33.923c-5.04-18.422-16.153-35.205-30.85-40.702
		c-32.006-11.972-56.523,21.797-60.631,50.162c-13.6-16.074-36.971-23.362-55.44-10.746c-15.235,10.407-14.206,29.995-8.218,45.3
		c7.167,18.319,23.683,37.665,43.958,40.827c5.54,0.864,11.438-0.364,16.792-3.016c-0.69,4.337,0.252,8.925,4.951,10.483
		c2.267,0.751,4.728-0.116,6.375-1.729c1.157-1.131,1.842-2.592,2.229-4.156c2.099,6.852,8.218,11.74,10.122,18.935
		c2.245,8.48-5.853,18.357-8.482,26.278c-4.185,12.607,0.394,23.879,12.115,30.043c1.521,0.798,2.655-1.275,1.319-2.258
		c-7.063-5.188-11.887-10.585-11.545-19.799c0.305-8.219,5.104-15.763,8.333-23.055c2.194-4.949,1.916-9.619,0.451-14.715
		c-1.984-6.904-8.901-10.716-11.11-17.511c1.253,0.495,2.598,0.697,4.037,0.387c2.251-0.485,3.815-2.54,4.401-4.654
		c1.579-5.694-3.434-10.174-8.531-11.633c2.637-4.447,4.065-9.431,3.636-14.509c8.983,8.549,20.962,13.19,33.85,10.403
		c-1.164,1.188-2.247,2.434-3.227,3.645c-2.736,3.385-5.709,8.184-4.107,12.687c1.439,4.045,5.653,3.702,8.361,1.435
		c-2.299,6.735-4.227,13.288-2.901,20.621c1.455,8.05,8.076,14.206,13.084,20.159c6.514,7.74,9.89,18.667,7.833,28.643
		c-2.114,10.262-11.055,13.987-20.205,15.962c-1.828,0.395-1.418,3.329,0.44,3.25c16.298-0.707,25.614-14.23,23.763-29.731
		c-1.015-8.496-5.313-16.024-10.733-22.447c-4.541-5.379-8.565-9.944-10.92-16.733c-2.7-7.785,1.503-15.91,2.853-23.553
		c0.374-0.589,0.732-1.193,1.061-1.82c0.418,0.756,0.999,1.436,1.815,1.993c2.32,1.59,5.644,0.421,7.664-1.067
		c6.891-5.083,2.879-12.295-2.935-15.813c10.292,0.005,17.946-3.539,23.315-9.316c1.553,5.974,4.446,10.378,8.212,13.493
		c-4.783,1.717-8.573,6.004-7.253,11.484c0.502,2.081,2.022,3.627,4.097,3.997c-5.871,13.398,2.74,23.841,10.85,34.742
		c5.46,7.339,8.767,14.91,8.523,24.182c-0.314,12.024-7.563,20.833-20.055,18.785c-2.091-0.343-3.026,2.669-0.892,3.239
		c18.319,4.896,26.012-13.664,24.18-28.926c-2.409-20.095-27.452-30.743-20.568-52.186c0.326-0.113,0.646-0.255,0.953-0.436
		c0.19,1.12,0.677,2.163,1.637,2.986c2.063,1.766,5.104,1.679,7.544,0.862c2.728-0.912,4.93-2.835,6.037-5.493
		c0.947-2.271,0.422-5.152-0.858-7.41c7.317,0.986,15.438-0.129,22.99-2.563c21.773-7.024,35.975-21.922,41.607-43.998
		C298.625,115.847,296.192,86.355,273.674,77.299z M139.256,190.019c-0.324,4.103-4.64,2.805-6.682,0.995
		c-0.958-0.85-2.862-0.365-2.743,1.135c0.237,2.981-0.345,9.572-4.963,8.455c-3.771-0.912-3.779-5.483-3.107-9.013
		c3.894-2.356,7.382-5.465,10.081-9.05C135.494,183.694,139.615,185.485,139.256,190.019z M120.264,188.081
		c-9.536,6.35-20.211,5.079-29.812-0.108c-14.014-7.572-24.471-22.57-29.747-37.301c-5.078-14.179-3.64-29.604,9.539-38.593
		c16.71-11.395,38.663-1.756,51.232,11.119c0.069,0.071,0.142,0.104,0.214,0.15c-1.354,13.554,3.371,27.398,11.746,37.544
		c-0.157,0.327-0.239,0.704-0.137,1.153C135.717,172.666,128.765,182.422,120.264,188.081z M184.728,185.32
		c-0.948,0.992-2.557,1.896-3.979,1.681c-2.398-0.366-1.75-4.219-1.474-5.779c0.379-2.133-2.532-2.969-3.256-0.896
		c-0.96,2.751-2.287,5.36-3.844,7.819c-0.781,1.236-1.725,2.438-2.931,3.286c-2.24,1.574-2.498-2.392-2.248-3.647
		c1.026-5.153,5.78-10.53,10.359-14.093c0.294-0.116,0.589-0.245,0.883-0.37c0.077,0.408,0.295,0.788,0.724,1.031
		C182.855,176.56,189.415,180.41,184.728,185.32z M206.195,157.13c-5.026,7.884-13.378,10.787-22.098,11.589
		c-0.305-0.323-0.785-0.496-1.31-0.258c-0.343,0.155-0.685,0.284-1.026,0.43c-0.661,0.034-1.32,0.058-1.981,0.072
		c-0.993,0.021-1.546,0.629-1.717,1.343c-13.298,4.479-26.748,2.499-37.619-7.501c-11.563-10.637-16.291-27.901-14.239-43.13
		c3.833-28.458,34.401-63.342,63.841-40.576c14.754,11.409,21.453,33.208,22.342,51.083
		C212.854,139.523,211.278,149.157,206.195,157.13z M226.883,188.899c-0.492,1.766-2.184,3.069-3.823,3.707
		c-1.474,0.574-3.326,0.854-4.733-0.009c-1.602-0.983-0.59-3.687-0.055-5.005c0.704-1.73-1.964-2.651-2.887-1.219
		c-1.499,2.325-4.235,4.604-5.083,0.764c-0.905-4.102,3.058-7.148,6.455-8.612c2.395,1.563,5.063,2.693,7.912,3.444
		c0.03,0.078,0.038,0.157,0.083,0.238C225.973,184.376,227.621,186.245,226.883,188.899z M289.314,136.976
		c-4.92,19.165-17.235,31.327-35.356,38.524c-17.579,6.98-39.604,6.68-44.872-15.067c-0.016-0.064-0.054-0.101-0.074-0.159
		c8.018-11.395,9.19-28.941,5.339-45.644c11.443-20.374,34.336-44.997,59.515-33.19C294.081,90.919,294.026,118.619,289.314,136.976
		z"/>
	<path fill="#CCCCCC" d="M108.453,167.268c-6.247-4.52-13.585-6.181-19.215-11.653c-8.792-8.546-12.06-20.557-14.517-32.15
		c-0.352-1.659-2.386-1.405-2.995-0.193c-0.022-0.087-0.04-0.176-0.062-0.263c-0.187-0.733-1.382-0.592-1.333,0.181
		c0.919,14.356,1.45,30.23,10.93,41.95c5.965,7.374,15.593,13.486,25.182,14.563C114.126,180.565,112.873,170.465,108.453,167.268z
		 M104.658,175.934c-8.803-1.77-17.024-7.794-22.178-14.879c-5.923-8.141-7.238-17.909-8.787-27.573
		c2.551,9.044,6.456,17.358,13.146,24.532c3.369,3.613,7.046,5.499,11.478,7.539c2.419,1.114,4.766,2.295,7.042,3.68
		C109.66,171.85,109.966,177,104.658,175.934z"/>
	<path fill="#CCCCCC" d="M183.146,83.195c-0.944-0.702-2.142,0.866-1.254,1.625c0.336,0.288,0.652,0.599,0.979,0.896
		c-0.201,0.464-0.186,1.022,0.234,1.447c7.294,7.401,9.478,17.641,11.155,27.559c2.016,11.914,3.227,28.088-11.688,30.807
		c-4.098,0.747-13.773,4.456-12.644,10.238c1.302,6.662,11.325,7.063,16.58,6.755C226.325,160.183,201.508,96.849,183.146,83.195z
		 M199.117,153.18c-3.622,4.278-9.578,5.755-14.896,6.049c-0.461,0.025-14.516-0.755-9.312-6.484
		c2.323-2.557,5.438-3.319,8.545-4.02c5.318-1.199,8.502-2.076,11.594-6.846c4.095-6.319,4.241-14.11,3.468-21.317
		c-0.532-4.975-1.247-10.993-2.732-16.786c3.496,7.347,5.873,15.305,7.386,22.822C204.945,135.434,205.251,145.938,199.117,153.18z"
		/>
	<path fill="#CCCCCC" d="M285.489,105.536c-2.388-9.67-13.685-18.154-23.241-19.327c-12.864-1.579-25.756,8.374-31.43,19.601
		c-0.099,0.027-0.209,0.061-0.308,0.087c-1.297,0.356-1.462,1.725-0.912,2.605c-0.035,0.086-0.079,0.17-0.112,0.256
		c-0.323,0.843,1.075,1.429,1.458,0.615c0.018-0.037,0.038-0.071,0.055-0.107c0.136-0.005,0.275-0.024,0.423-0.064
		c9.458-2.607,21.176-7.222,29.607-0.187c4.412,3.682,7.956,8.405,13.223,10.953C283.169,124.282,287.095,112.045,285.489,105.536z
		 M281.873,114.584c-4.679,9.475-18.146-7.902-22.741-10.921c-6.756-4.437-17.949-0.921-25.779,1.411
		c6.269-9.598,17.286-16.683,28.896-15.996C272.628,89.692,287.128,103.945,281.873,114.584z"/>
</g>
</svg>
