<?xml version="1.0" encoding="utf-8"?>
<!-- Generator: Adobe Illustrator 16.0.0, SVG Export Plug-In . SVG Version: 6.00 Build 0)  -->
<!DOCTYPE svg PUBLIC "-//W3C//DTD SVG 1.1//EN" "http://www.w3.org/Graphics/SVG/1.1/DTD/svg11.dtd">
<svg version="1.1" id="Layer_1" xmlns="http://www.w3.org/2000/svg" xmlns:xlink="http://www.w3.org/1999/xlink" x="0px" y="0px"
	 width="350px" height="350px" viewBox="0 0 350 350" enable-background="new 0 0 350 350" xml:space="preserve">
<g id="XMLID_846_">
	<path id="XMLID_847_" fill="#FFE98F" d="M277.648,209.816c-16.027,18.459-43.568,26.225-69.933,26.225
		c-20.876,0-40.041-7.322-55.073-19.533v86.275c9.283,2.084,18.935,3.19,28.847,3.19c52.01,0,96.944-30.28,118.142-74.173
		L277.648,209.816z"/>
	<path id="XMLID_848_" fill="#FFDA44" d="M285.095,217.263l-7.446-7.446c-16.027,18.459-43.568,26.225-69.933,26.225
		c-20.876,0-40.041-7.322-55.073-19.533v34.99c13.973,6.89,29.698,10.768,46.332,10.768
		C234.64,262.266,266.143,244.463,285.095,217.263z"/>
	<path id="XMLID_849_" fill="#BD720D" d="M289.131,249.7c3.949-5.659,7.477-11.634,10.502-17.899l-21.983-21.984
		c-3.2,3.685-6.87,6.931-10.889,9.785C274.655,230.778,281.169,239.358,289.131,249.7z"/>
	<path id="XMLID_850_" fill="#FFDA44" d="M120.299,148.625c0-35.837,21.576-66.618,52.438-80.111V44.026
		C104.401,48.531,50.366,105.375,50.366,174.85c0,69.381,53.889,126.168,122.092,130.809v-77.024
		C141.741,215.078,120.299,184.358,120.299,148.625z"/>
	<path id="XMLID_851_" fill="#FFAD41" d="M120.299,148.625c0-35.837,21.576-66.618,52.438-80.111V55.775
		c-45.238,11.65-78.663,52.717-78.663,101.591c0,48.773,33.288,89.77,78.384,101.516v-30.25
		C141.741,215.078,120.299,184.358,120.299,148.625z"/>
	<path id="XMLID_852_" fill="#BD720D" d="M172.737,68.514V44.026c-23.075,1.522-44.516,9.018-62.801,20.947l29.324,29.324
		C148.094,83.189,159.565,74.273,172.737,68.514z"/>
</g>
</svg>
