<?xml version="1.0" encoding="utf-8"?>
<!-- Generator: Adobe Illustrator 16.0.0, SVG Export Plug-In . SVG Version: 6.00 Build 0)  -->
<!DOCTYPE svg PUBLIC "-//W3C//DTD SVG 1.1//EN" "http://www.w3.org/Graphics/SVG/1.1/DTD/svg11.dtd">
<svg version="1.1" id="Capa_1" xmlns="http://www.w3.org/2000/svg" xmlns:xlink="http://www.w3.org/1999/xlink" x="0px" y="0px"
	 width="350px" height="350px" viewBox="0 0 350 350" enable-background="new 0 0 350 350" xml:space="preserve">
<g>
	<rect x="58.334" y="78.449" fill="#F0EDE0" width="233.332" height="193.103"/>
	<path fill="#556080" d="M74.426,251.437c-2.221,0-4.023-1.798-4.023-4.022V98.563c0-2.225,1.802-4.022,4.023-4.022
		s4.023,1.798,4.023,4.022v148.851C78.449,249.639,76.646,251.437,74.426,251.437z"/>
	<path fill="#556080" d="M275.574,251.437c-2.221,0-4.023-1.798-4.023-4.022V98.563c0-2.225,1.803-4.022,4.023-4.022
		s4.023,1.798,4.023,4.022v148.851C279.598,249.639,277.795,251.437,275.574,251.437z"/>
	<path fill="#556080" d="M90.518,219.253c-2.221,0-4.023-1.799-4.023-4.023V98.563c0-2.225,1.802-4.022,4.023-4.022
		s4.023,1.798,4.023,4.022v116.666C94.541,217.454,92.738,219.253,90.518,219.253z"/>
	<path fill="#556080" d="M102.586,219.253c-2.221,0-4.023-1.799-4.023-4.023V98.563c0-2.225,1.802-4.022,4.023-4.022
		s4.023,1.798,4.023,4.022v116.666C106.609,217.454,104.807,219.253,102.586,219.253z"/>
	<path fill="#556080" d="M122.701,219.253c-2.221,0-4.023-1.799-4.023-4.023V98.563c0-2.225,1.802-4.022,4.023-4.022
		s4.023,1.798,4.023,4.022v116.666C126.725,217.454,124.922,219.253,122.701,219.253z"/>
	<path fill="#556080" d="M134.771,219.253c-2.221,0-4.023-1.799-4.023-4.023V98.563c0-2.225,1.803-4.022,4.023-4.022
		s4.022,1.798,4.022,4.022v116.666C138.793,217.454,136.991,219.253,134.771,219.253z"/>
	<path fill="#556080" d="M146.839,219.253c-2.221,0-4.023-1.799-4.023-4.023V98.563c0-2.225,1.802-4.022,4.023-4.022
		s4.023,1.798,4.023,4.022v116.666C150.862,217.454,149.06,219.253,146.839,219.253z"/>
	<path fill="#556080" d="M170.977,219.253c-2.221,0-4.023-1.799-4.023-4.023V98.563c0-2.225,1.802-4.022,4.023-4.022
		S175,96.339,175,98.563v116.666C175,217.454,173.198,219.253,170.977,219.253z"/>
	<path fill="#556080" d="M191.092,219.253c-2.221,0-4.022-1.799-4.022-4.023V98.563c0-2.225,1.802-4.022,4.022-4.022
		s4.022,1.798,4.022,4.022v116.666C195.114,217.454,193.313,219.253,191.092,219.253z"/>
	<path fill="#556080" d="M203.161,219.253c-2.221,0-4.023-1.799-4.023-4.023V98.563c0-2.225,1.803-4.022,4.023-4.022
		s4.022,1.798,4.022,4.022v116.666C207.184,217.454,205.382,219.253,203.161,219.253z"/>
	<path fill="#556080" d="M223.275,219.253c-2.221,0-4.023-1.799-4.023-4.023V98.563c0-2.225,1.803-4.022,4.023-4.022
		s4.023,1.798,4.023,4.022v116.666C227.299,217.454,225.496,219.253,223.275,219.253z"/>
	<path fill="#556080" d="M235.345,219.253c-2.222,0-4.023-1.799-4.023-4.023V98.563c0-2.225,1.802-4.022,4.023-4.022
		c2.22,0,4.022,1.798,4.022,4.022v116.666C239.367,217.454,237.564,219.253,235.345,219.253z"/>
	<path fill="#556080" d="M259.482,219.253c-2.221,0-4.023-1.799-4.023-4.023V98.563c0-2.225,1.803-4.022,4.023-4.022
		s4.023,1.798,4.023,4.022v116.666C263.506,217.454,261.703,219.253,259.482,219.253z"/>
	<path fill="#556080" d="M90.518,243.391c-2.221,0-4.023-1.799-4.023-4.023v-4.022c0-2.226,1.802-4.023,4.023-4.023
		s4.023,1.798,4.023,4.023v4.022C94.541,241.592,92.738,243.391,90.518,243.391z"/>
	<path fill="#556080" d="M102.586,243.391c-2.221,0-4.023-1.799-4.023-4.023v-4.022c0-2.226,1.802-4.023,4.023-4.023
		s4.023,1.798,4.023,4.023v4.022C106.609,241.592,104.807,243.391,102.586,243.391z"/>
	<path fill="#556080" d="M114.656,243.391c-2.221,0-4.023-1.799-4.023-4.023v-4.022c0-2.226,1.803-4.023,4.023-4.023
		c2.22,0,4.022,1.798,4.022,4.023v4.022C118.678,241.592,116.876,243.391,114.656,243.391z"/>
	<path fill="#556080" d="M126.725,243.391c-2.221,0-4.023-1.799-4.023-4.023v-4.022c0-2.226,1.803-4.023,4.023-4.023
		s4.022,1.798,4.022,4.023v4.022C130.747,241.592,128.945,243.391,126.725,243.391z"/>
	<path fill="#556080" d="M138.793,243.391c-2.221,0-4.022-1.799-4.022-4.023v-4.022c0-2.226,1.802-4.023,4.022-4.023
		s4.023,1.798,4.023,4.023v4.022C142.816,241.592,141.014,243.391,138.793,243.391z"/>
	<path fill="#556080" d="M150.862,243.391c-2.221,0-4.023-1.799-4.023-4.023v-4.022c0-2.226,1.802-4.023,4.023-4.023
		s4.023,1.798,4.023,4.023v4.022C154.885,241.592,153.083,243.391,150.862,243.391z"/>
	<path fill="#556080" d="M162.931,243.391c-2.221,0-4.023-1.799-4.023-4.023v-4.022c0-2.226,1.802-4.023,4.023-4.023
		s4.023,1.798,4.023,4.023v4.022C166.954,241.592,165.152,243.391,162.931,243.391z"/>
	<path fill="#556080" d="M175,243.391c-2.221,0-4.023-1.799-4.023-4.023v-4.022c0-2.226,1.802-4.023,4.023-4.023
		s4.023,1.798,4.023,4.023v4.022C179.023,241.592,177.221,243.391,175,243.391z"/>
	<path fill="#556080" d="M187.069,243.391c-2.221,0-4.023-1.799-4.023-4.023v-4.022c0-2.226,1.803-4.023,4.023-4.023
		s4.022,1.798,4.022,4.023v4.022C191.092,241.592,189.29,243.391,187.069,243.391z"/>
	<path fill="#556080" d="M199.138,243.391c-2.221,0-4.023-1.799-4.023-4.023v-4.022c0-2.226,1.803-4.023,4.023-4.023
		s4.023,1.798,4.023,4.023v4.022C203.161,241.592,201.358,243.391,199.138,243.391z"/>
	<path fill="#556080" d="M211.207,243.391c-2.221,0-4.023-1.799-4.023-4.023v-4.022c0-2.226,1.803-4.023,4.023-4.023
		s4.022,1.798,4.022,4.023v4.022C215.229,241.592,213.428,243.391,211.207,243.391z"/>
	<path fill="#556080" d="M223.275,243.391c-2.221,0-4.023-1.799-4.023-4.023v-4.022c0-2.226,1.803-4.023,4.023-4.023
		s4.023,1.798,4.023,4.023v4.022C227.299,241.592,225.496,243.391,223.275,243.391z"/>
	<path fill="#556080" d="M235.345,243.391c-2.222,0-4.023-1.799-4.023-4.023v-4.022c0-2.226,1.802-4.023,4.023-4.023
		c2.22,0,4.022,1.798,4.022,4.023v4.022C239.367,241.592,237.564,243.391,235.345,243.391z"/>
	<path fill="#556080" d="M247.414,243.391c-2.222,0-4.023-1.799-4.023-4.023v-4.022c0-2.226,1.802-4.023,4.023-4.023
		c2.22,0,4.022,1.798,4.022,4.023v4.022C251.437,241.592,249.634,243.391,247.414,243.391z"/>
	<path fill="#556080" d="M259.482,243.391c-2.221,0-4.023-1.799-4.023-4.023v-4.022c0-2.226,1.803-4.023,4.023-4.023
		s4.023,1.798,4.023,4.023v4.022C263.506,241.592,261.703,243.391,259.482,243.391z"/>
</g>
</svg>
