<?xml version="1.0" encoding="utf-8"?>
<!-- Generator: Adobe Illustrator 16.0.0, SVG Export Plug-In . SVG Version: 6.00 Build 0)  -->
<!DOCTYPE svg PUBLIC "-//W3C//DTD SVG 1.1//EN" "http://www.w3.org/Graphics/SVG/1.1/DTD/svg11.dtd">
<svg version="1.1" id="Layer_1" xmlns="http://www.w3.org/2000/svg" xmlns:xlink="http://www.w3.org/1999/xlink" x="0px" y="0px"
	 width="350px" height="350px" viewBox="0 0 350 350" enable-background="new 0 0 350 350" xml:space="preserve">
<g>
	<polygon fill="#E32A32" points="207.59,154.646 199.443,146.354 186.428,133.107 185.9,132.842 177.751,128.759 164.209,121.977 
		156.063,117.894 142.518,111.108 139.443,109.569 134.371,112.11 120.829,118.893 112.682,122.975 99.137,129.761 92.457,133.107 
		90.991,134.601 77.449,148.384 69.298,156.679 62.217,163.887 62.217,257.132 216.672,257.132 216.672,163.887 	"/>
	<g>
		<polygon fill="#E94753" points="207.59,154.646 207.59,257.132 199.443,257.132 199.443,146.354 		"/>
		<polygon fill="#E94753" points="185.9,132.842 185.9,257.132 177.751,257.132 177.751,128.759 		"/>
		<polygon fill="#E94753" points="164.209,121.977 164.209,257.132 156.063,257.132 156.063,117.894 		"/>
		<polygon fill="#E94753" points="142.518,111.108 142.518,257.132 134.371,257.132 134.371,112.11 139.443,109.569 		"/>
		<polygon fill="#E94753" points="120.829,118.893 120.829,257.132 112.682,257.132 112.682,122.975 		"/>
		<polygon fill="#E94753" points="99.137,129.761 99.137,257.132 90.991,257.132 90.991,134.601 92.457,133.107 		"/>
		<polygon fill="#E94753" points="77.449,148.384 77.449,257.132 69.298,257.132 69.298,156.679 		"/>
	</g>
	<path fill="#FFFFFF" d="M184.541,256.547H92.349v-71.25h92.192V256.547z M97.78,251.115h81.33v-60.388H97.78V251.115z"/>
	<path fill="#FFFFFF" d="M162.248,166.649h-47.604v-25.647h47.604V166.649z M118.867,162.425h39.156v-17.199h-39.156V162.425z"/>
	
		<rect x="114.254" y="151.713" transform="matrix(0.8966 0.4428 -0.4428 0.8966 82.4236 -45.4004)" fill="#FFFFFF" width="48.382" height="4.224"/>
	
		<rect x="136.333" y="129.634" transform="matrix(0.4429 0.8966 -0.8966 0.4429 215.0515 -38.4266)" fill="#FFFFFF" width="4.224" height="48.382"/>
	
		<rect x="135.729" y="166.169" transform="matrix(0.5954 0.8034 -0.8034 0.5954 232.8903 -22.1561)" fill="#FFFFFF" width="5.431" height="107.997"/>
	
		<rect x="83.994" y="218.206" transform="matrix(0.7967 0.6044 -0.6044 0.7967 161.6686 -38.7587)" fill="#FFFFFF" width="108.901" height="5.431"/>
	<polygon fill="#A01D21" points="227.303,178.786 184.107,135.319 139.443,112.944 94.253,135.582 51.829,178.543 47.535,174.303 
		90.66,130.633 139.443,106.194 187.693,130.365 231.584,174.532 	"/>
	<g>
		<rect x="233.572" y="133.605" fill="#EF592D" width="58.836" height="120.226"/>
		<rect x="233.572" y="235.436" fill="#D03D27" width="58.836" height="18.396"/>
		<rect x="233.572" y="133.916" fill="#D03D27" width="58.836" height="18.396"/>
		<rect x="233.572" y="167.461" fill="#D03D27" width="58.836" height="18.396"/>
		<rect x="233.572" y="201.742" fill="#D03D27" width="58.836" height="18.396"/>
		<path fill="#EF592D" d="M223.162,133.605h79.201c0,0,4.074-40.732-39.373-40.732C262.99,92.873,223.162,91.516,223.162,133.605z"
			/>
	</g>
	<path fill="#EE7052" d="M263.732,112.651c4.389,5.346,19.77,15.08,27.186,13.911c10.088-1.59,5.059-12.843,0.727-17.56
		c-5.123-5.577-11.301-9.985-19.107-10.218C264.113,98.534,256.945,104.379,263.732,112.651z"/>
</g>
</svg>
