<?xml version="1.0" encoding="utf-8"?>
<!-- Generator: Adobe Illustrator 16.0.0, SVG Export Plug-In . SVG Version: 6.00 Build 0)  -->
<!DOCTYPE svg PUBLIC "-//W3C//DTD SVG 1.1//EN" "http://www.w3.org/Graphics/SVG/1.1/DTD/svg11.dtd">
<svg version="1.1" id="Layer_1" xmlns="http://www.w3.org/2000/svg" xmlns:xlink="http://www.w3.org/1999/xlink" x="0px" y="0px"
	 width="350px" height="350px" viewBox="0 0 350 350" enable-background="new 0 0 350 350" xml:space="preserve">
<g>
	<path fill="#C1C1A6" d="M240.811,259.873c-5.103-7.262-18.862-9.505-26.155-10.674c-9.476-1.518-19.575-0.877-29.116-0.322
		c-9.506,0.55-19.12,1.159-28.253,4.015c-8.51,2.661-32.402,15.855-11.926,20.741c18.798,4.486,42.049,4.01,61.394,3.566
		C215.282,277.004,254.485,279.329,240.811,259.873z"/>
	<g>
		<g>
			<path fill="#FFE7C1" d="M156.61,210.539c-1.309-0.514-2.604-0.926-3.96-1.288c-1.093-0.293-2.217-0.552-3.231-1.066
				c-0.961-0.487-2.348-1.295-3.484-1.262c0.175,1.1-0.14,2.307-0.86,3.149c-0.962,1.128-2.321,1.444-3.64,1.979
				c-0.513,0.208-0.994,0.4-1.467,0.549c0.449,0.435,0.907,0.86,1.429,1.233c1.172,0.843,2.373,1.657,3.582,2.446
				c2.054,1.338,4.922,3.548,7.511,3.083c2.371-0.427,4.369-1.83,6.362-3.068c1.689-1.049,2.77-2.773,4.287-3.988
				c-0.969-0.333-2.013-0.466-3.001-0.721C158.932,211.274,157.771,210.996,156.61,210.539z"/>
			<path fill="#FFE7C1" d="M139.87,210.17c-0.538-0.15-1.078-0.322-1.583-0.567c-0.504-0.244-1.006-0.659-1.536-0.83
				c-0.697-0.223-1.221-0.708-1.181-1.48c0.022-0.447,0.554-0.542,0.747-0.148c0.243,0.496,1.468,0.835,1.968,1.04
				c0.674,0.275,1.377,0.478,2.089,0.626c0.846,0.177,2.527,0.581,3.264-0.04c0.057-0.048,0.114-0.077,0.172-0.093
				c0.279-0.497,0.37-1.065,0.468-1.629c-0.336,0.008-0.675-0.007-1.014-0.069c-0.042,0.047-0.09,0.089-0.147,0.126
				c-1.525,0.973-3.68-0.429-4.954-1.281c-1.438-0.964-1.601-3.349-1.435-4.886c0.058-0.547,0.96-0.601,1.085-0.066
				c0.315,1.332,0.402,3.034,1.709,3.812c0.492,0.294,1.012,0.613,1.57,0.775c-0.067-0.113-0.127-0.227-0.179-0.346
				c-0.384-0.89-0.319-1.85-0.623-2.747c-0.328-0.97-1.116-1.75-1.251-2.793c-0.122-0.938-0.002-1.876,0.181-2.797
				c-0.063-0.017-0.123-0.04-0.178-0.076c-0.043-0.028-0.21-0.038-0.271-0.066c-0.051-0.023-0.107-0.038-0.163-0.053
				c-0.151-0.044-0.244-0.147-0.281-0.267c-0.898,0.51-1.843,1.135-1.889,2.166c-0.051,1.177-0.354,2.03-1.493,2.528
				c-1.327,0.581-1.447,1.857-1.607,3.18c-0.167,1.377-0.306,3.029,0.461,4.269c0.828,1.338,1.842,2.036,3.329,2.455
				c1.452,0.411,2.288-0.006,3.598-0.52C140.42,210.321,140.129,210.244,139.87,210.17z"/>
			<path fill="#FFE7C1" d="M177.791,212.78c2.603-0.723,5.549-1.793,7.269-4.002c2.048-2.633,1.354-6.163-0.915-8.432
				c-1.129-1.13-2.45-2.024-3.964-2.564c-0.853-0.305-1.629-0.188-2.411,0.02c-0.365,0.224-0.781,0.423-1.031,0.682
				c-0.225,0.232-0.436,0.495-0.656,0.744c0.055,0.296-0.072,0.638-0.312,0.826c-1.444,1.127-3.385,0.91-5.122,1.004
				c-1.926,0.104-4.077,0.215-6.006,0.214c-4.352,0-9.073-4.567-7.054-6.147c-1.819,1.39-4.336,2.103-6.502,1.716
				c-1.756-0.313-3.464-2.482-2.225-3.914c-2.297,0.164-4.612-0.021-6.914,0.092c-0.189,0.01-0.384,0.014-0.579,0.019
				c0.428,1.771,0.971,4.14,2.81,4.924c0.443,0.189,0.405,0.949-0.148,0.896c-1.43-0.134-2.406-1.147-2.98-2.419
				c-0.024-0.053-0.047-0.105-0.07-0.16c-0.075,0.529-0.176,1.063-0.192,1.572c-0.015,0.52-0.116,1.188,0.087,1.681
				c0.175,0.427,0.436,0.787,0.653,1.19c0.364,0.674,0.581,1.309,0.697,2.067c0.14,0.914,0.281,2.22,1.438,2.378
				c0.796,0.107,1.584-0.114,2.381-0.107c1.993,0.018,3.648,1.431,5.492,1.947c2.147,0.599,4.209,1.221,6.299,1.996
				c1.103,0.409,2.236,0.643,3.379,0.9c0.868,0.194,1.861,0.292,2.68,0.646c1.121,0.485,2.21,0.984,3.339,1.379
				c0.434,0.268,0.88,0.526,1.335,0.771c0.255,0.014,0.513,0.021,0.774,0.012c0.825-0.029,1.824,0.428,2.619,0.637
				c0.953,0.251,1.896,0.251,2.833,0.125c0.141-0.209,0.486-0.255,0.695-0.115C176.259,213.207,177.024,212.993,177.791,212.78z"/>
			<path fill="#FFE790" d="M173.01,239.595c-1.206-2.51-1.118-6.021-0.216-8.627c0.419-1.208,0.78-2.549,1.494-3.623
				c0.379-0.568,0.507-1.31,0.772-1.938c0.255-0.596,0.571-1.132,0.884-1.697c0.731-1.325,1.605-2.563,2.33-3.893
				c0.176-0.322,0.375-0.633,0.579-0.939c-0.612,0.034-1.549,0.188-2.424,0.155c-0.105,0.274-0.188,0.559-0.276,0.805
				c-0.248,0.696-0.556,1.384-0.964,2.003c-0.946,1.431-2.057,2.752-2.919,4.241c-1.68,2.897-3.057,6.58-2.142,9.948
				c0.492,1.809,1.59,3.322,2.838,4.695c0.812,0.894,1.689,1.809,2.627,2.621c-0.053-0.067-0.102-0.136-0.155-0.201
				C174.564,242.057,173.618,240.859,173.01,239.595z"/>
			<path fill="#FFFBFC" d="M194.259,257.795c-0.455-0.841-2.524-3.415-3.089-4.178c-1.252-1.694-2.358-3.421-3.472-5.21
				c-0.847-1.361-4.321-9.611-4.479-10.724c-0.295-2.09-0.978-4.083-0.207-6.087c0.86-2.239,2.607-3.778,3.776-5.835
				c0.12-0.213,0.268-0.495,0.438-0.791c-0.232-0.486-0.273-1.034-0.425-1.558c-0.195-0.678-0.438-1.35-0.472-2.055
				c-0.024-0.521,0.661-0.706,0.987-0.373c0.501,0.509,0.714,1.199,1.024,1.832c0.096,0.196,0.221,0.409,0.3,0.625
				c0.006-0.003,0.014-0.007,0.021-0.01c0.19-0.215,0.385-0.43,0.578-0.645c0.823-0.913,1.676-1.768,2.891-2.11
				c0.833-0.235,1.508,0.942,0.815,1.508c-0.452,0.371-1.092,0.623-1.426,1.111c-0.295,0.433-0.626,0.855-1.025,1.196
				c-0.338,0.29-0.744,0.606-1.177,0.843c-0.439,0.497-0.877,0.993-1.35,1.473c-0.169,0.39-0.33,0.786-0.543,1.125
				c-1.03,1.626-2.346,3.008-2.805,4.932c-0.444,1.862-0.877,3.702-0.479,5.565c0.125,0.589,1.973,6.119,2.293,6.687
				c0.806,1.421,7.65,12.143,8.54,12.698c0.892,0.558,2.728,1.896,3.416,2.108c1.229,0.377,2.492-0.202,3.773-0.426
				c-0.274-0.95-0.379-1.917-0.689-2.872c-0.439-1.356-0.826-2.733-1.321-4.065c-1.051-2.832-2.243-5.752-4.311-8.01
				c-1.857-2.029-4.32-3.861-5.441-6.445c-0.965-2.218,0.528-4.588,1.95-6.234c1.856-2.148,4.039-4.212,6.272-5.963
				c2.123-1.664,4.529-2.576,6.846-3.902c1.181-0.675,2.395-1.502,3.069-2.724c0.659-1.189,1.009-2.512,1.315-3.83
				c0.199-0.844,0.43-1.663,0.65-2.487c-0.818,0.218-1.637,0.434-2.454,0.645c-4.762,1.24-9.579,2.338-14.365,3.467
				c-4.419,1.041-8.923,1.455-13.44,1.723c-0.179,0.438-0.411,0.868-0.598,1.321c-0.489,1.185-1.142,2.281-1.79,3.386
				c-0.696,1.188-1.301,2.326-1.752,3.632c-0.402,1.153-1.052,2.192-1.457,3.36c-0.906,2.612-1.479,6.094-0.13,8.66
				c0.644,1.223,1.45,2.349,2.211,3.497c0.528,0.8,0.878,1.659,1.294,2.496c1.026,0.69,1.966,1.919,3.042,2.488
				c1.475,0.781,8.421,8.495,9.665,9.216C190.979,256.999,194.305,257.88,194.259,257.795z"/>
			<path fill="#D69C45" d="M153.526,192.494c-0.479,0.008-0.994,0.021-1.521,0.019c-0.121,0.055-0.245,0.105-0.368,0.159
				c-0.275,0.045-0.526,0.074-0.808,0.025c-0.264,0.042-0.529,0.081-0.794,0.115c-0.005,0.092-0.035,0.186-0.103,0.264
				c-0.572,0.669,0.087,1.847,0.898,1.996c0.943,0.174,1.896,0.172,2.826-0.082c1.382-0.376,2.526-1.169,3.78-1.791
				c-0.005-0.029-0.012-0.059-0.018-0.087c0.163-0.059,0.326-0.115,0.49-0.173c0.312-0.551,0.833-1.04,1.312-1.411
				c-0.38-0.005-0.762-0.027-1.13,0.063C156.525,191.969,155.165,192.469,153.526,192.494z"/>
			<path fill="#D69C45" d="M132.688,209.998c-0.405-0.586-0.693-1.194-0.889-1.822c-0.061,0.227-0.11,0.456-0.194,0.673
				c-0.144,0.388-0.359,0.739-0.542,1.106c-0.289,0.579-0.728,1.169-0.904,1.793c-0.16,0.569-0.726,0.686-1.112,0.476
				c-0.305,0.652-0.662,1.285-0.434,2.019c0.22,0.705,0.564,1.256,1.103,1.766c0.472,0.445,0.856,0.807,0.942,1.465
				c0.037,0.287-0.234,0.595-0.523,0.591c-1.287-0.014-2.749-1.798-2.997-3.013c-0.148-0.732-0.317-1.716,0.115-2.384
				c0.136-0.213,0.311-0.42,0.489-0.629c-1.011-0.021-2.255-0.335-2.845,0.351c-0.733,0.854-0.668,2.047-0.836,3.099
				c-0.446,2.789,1.431,5.561,4.092,6.356c1.37,0.409,2.685,0.447,4.102,0.392c0.87-0.035,2.085,0.048,2.811-0.527
				c0.806-0.641,0.666-2.322,0.394-3.205c-0.305-0.995-1.264-1.21-1.966-1.924c-0.755-0.769,0.103-1.858,0.971-1.486
				c0.341-0.713,0.739-1.376,1.171-2.063c0.128-0.205,0.358-0.38,0.598-0.552C134.808,211.979,133.612,211.331,132.688,209.998z"/>
			<path fill="#FFE75C" d="M187.428,209.088c0.636-0.15,1.271-0.303,1.892-0.52c1.29-0.455,2.52-1.066,3.643-1.852
				c1.175-0.821,2.268-1.793,3.266-2.853c-0.131-0.344-0.193-0.709-0.319-1.132c-0.309-1.032-0.526-2.111-1.156-3.006
				c-1.162-1.654-2.688-3.017-4.197-4.345c-1.353-1.195-2.803-2.469-4.366-3.383c-1.828-1.067-3.798-1.014-5.851-1.182
				c-0.11,0.001-0.203-0.023-0.281-0.064c-0.357,0.429-0.698,0.875-1.014,1.354c-0.611,0.934-1.288,1.941-1.611,3.021
				c-0.095,0.315-0.146,0.638-0.203,0.954c2.696-1.112,5.965,0.45,8.055,2.47c2.766,2.673,4.303,6.916,2.181,10.481
				C187.452,209.052,187.438,209.069,187.428,209.088z"/>
			<path fill="#48B474" d="M168.037,117.699c-3.747,0.882-7.461,1.95-11.063,3.326c-3.518,1.343-9.272,3.754-12.667,5.367
				c-12.905,6.128-27.482,19.225-28.167,34.957c-0.089,2.076,0.763,3.83,2.439,4.689c1.998,1.905,5.387,2.162,8.02,0.611
				c1.925-1.135,3.364-2.75,4.954-4.297c1.801-1.754,3.746-3.348,5.515-5.142c3.684-3.733,7.319-7.373,11.729-10.253
				c4.63-3.025,9.766-5.078,14.595-7.73c2.116-1.162,10.176-2.785,12.379-3.036c4.504-0.512,9.316-1.167,13.059-4.143
				c3.817-3.035,4.256-8.254,3.95-12.65c-0.661-0.616-1.338-1.296-1.87-2.05c-0.201-0.001-0.414-0.043-0.631-0.139
				C183.451,114.23,175.024,116.051,168.037,117.699z"/>
			<path fill="#FFE7C1" d="M114.165,162.478c-0.002-0.009-0.004-0.019-0.007-0.027c-0.421,0.275-0.898,0.783-1,0.932
				c-0.554,0.811-0.807,1.867-0.787,2.845c0.035,1.735,0.297,3.695,1.301,5.167c1.879,2.757,4.858,3.069,7.84,3.398
				c0.084-0.506,0.161-1.013,0.222-1.52c0.01-0.083,0.016-0.165,0.024-0.246c-0.174-0.146-0.35-0.289-0.527-0.429
				c-0.924-0.739-2.039-2.121-3.285-2.206c-0.903-0.061-1.043-1.445-0.089-1.445c1.67,0,2.788,1.098,4.008,2.073
				c0.023-0.688,0.054-1.367,0.166-2.041c-1.659-0.088-3.277-0.563-4.669-1.555C115.754,166.28,114.598,164.397,114.165,162.478z"/>
			<path fill="#48B474" d="M157.787,81.02c2.434,3.112,4.105,6.754,5.298,10.505c1.304,4.103,3.287,7.991,4.195,12.222
				c0.229,1.065,0.425,2.14,0.686,3.198c0.236,0.965,0.664,1.875,0.907,2.841c0.461,1.819,0.411,3.627,0.347,5.473
				c11.57-2.066,20.664-0.622,20.664-0.622s-0.225-8.35-0.663-10.974c-0.773-4.645-1.951-9.358-4.157-13.545
				c-3.307-6.272-8.025-12.339-14.988-14.448c-5.078-1.539-10.063-1.146-15.229-0.2c-0.827,0.152-1.656,0.319-2.482,0.499
				C154.572,76.914,156.557,79.449,157.787,81.02z"/>
			<path fill="#B36B3B" d="M192.001,114.154c-0.099,0.557-0.283,1.073-0.49,1.604c0.574,0.624,1.23,1.206,1.788,1.699
				c1.107,0.982,0.758,3.671,0.828,5.055c0.121,2.351,0.092,4.861-0.697,7.091c0.385,1.439,0.908,2.871,1.782,3.989
				c0.912,1.17,1.731,0.649,2.309-0.604c0.387-0.839,0.733-1.606,1.235-2.345c0.354-0.52,1.053-0.65,1.456-0.088
				c0.183,0.255,0.319,0.529,0.413,0.813c0.042-0.018,0.077-0.037,0.106-0.058c0.019-0.44,0.046-0.883,0.091-1.324
				c-0.066-0.736-0.26-1.409-0.506-2.125c-0.48-1.388-1.151-2.862-0.856-4.358c0.129-0.651,0.863-1.198,1.535-0.999
				c0.072,0.021,0.132,0.043,0.186,0.064c-0.143-0.867-0.273-1.71-0.082-2.552c-0.311-0.619-0.865-1.199-1.006-1.898
				c-0.245-1.213,0.766-2.331,2.02-1.757c0.271,0.124,0.546,0.274,0.825,0.412c-0.062-0.392-0.164-0.778-0.284-1.132
				c-0.254-0.756-0.874-1.338-1.102-2.05c-0.804-2.521-2.425-4.794-4.447-6.487c-1.707-1.429-3.205-3.054-4.854-4.525
				c0.546,3.619,0.602,7.311,0.105,10.955C192.32,113.799,192.185,114.008,192.001,114.154z"/>
			<path fill="#FFFFFF" d="M152.71,83.215c2.375,2.998,4.129,6.36,5.594,9.882c0.815,1.96,1.709,3.898,2.491,5.872
				c0.741,1.871,1.196,3.819,1.645,5.777c0.844,3.69,2.216,7.645,2.178,11.502c0.955-0.241,1.897-0.456,2.829-0.647
				c0.071-1.944,0.19-3.86-0.384-5.753c-0.294-0.966-0.683-1.898-0.902-2.885c-0.207-0.931-0.386-1.867-0.594-2.797
				c-0.44-1.981-1.065-3.931-1.812-5.82c-0.657-1.663-1.437-3.299-1.936-5.019c-1.057-3.655-2.476-7.277-4.686-10.402
				c-0.995-1.408-2.13-2.72-3.302-3.985c-1.122-1.21-2.215-1.898-3.744-2.438c-1.384,0.343-2.761,0.722-4.128,1.137
				c0.85,0.432,1.669,0.922,2.436,1.491C149.979,80.301,151.485,81.668,152.71,83.215z"/>
			<path fill="#48B474" d="M117.026,150.146c0.522-0.603,0.886-1.25,1.382-1.738c0.463-1.134,1.114-2.214,1.833-3.229
				c1.829-2.582,3.624-5.269,5.558-7.768c-0.013-0.02-0.026-0.036-0.036-0.057c-0.816-1.593-1.806-3.057-2.766-4.563
				c-1.033-1.623-1.561-3.436-2.516-5.09c-1.933-3.353-4.204-6.58-5.055-10.434c-0.912-4.124-1.68-8.49-1.654-12.726
				c0.021-3.249,0.488-6.477,0.848-9.709c-0.389,0.397-0.772,0.8-1.143,1.214c-3.335,3.72-6.28,8.123-7.706,12.983
				c-0.767,2.614-1.62,5.504-1.591,8.25c0.031,2.658,0.178,5.47,0.594,8.095c0.867,5.482,2.999,10.703,5.756,15.468
				c1.364,2.356,2.855,4.504,4.467,6.686c0.65,0.881,1.234,1.908,1.978,2.684C116.993,150.191,117.007,150.169,117.026,150.146z"/>
			<path fill="#FFE75C" d="M124.692,124.25c0.495,0.905,1.023,1.729,1.458,2.663c0.42,0.9,1.034,1.725,1.596,2.544
				c0.636,0.927,0.975,1.979,1.508,2.959c0.008,0.012,0.013,0.022,0.021,0.034c0.288,0.082,0.532,0.29,0.583,0.622
				c0.008,0.048,0.014,0.096,0.021,0.145c5.932-5.041,15.74-10.326,28.5-15.041c1.357-0.502,2.708-0.943,4.045-1.332
				c-0.248-3.964-1.16-7.725-2.039-11.598c-0.433-1.909-0.799-3.865-1.561-5.679c-0.72-1.719-1.441-3.429-2.143-5.158
				c-1.358-3.345-2.859-6.737-5.059-9.627c-1.161-1.526-2.507-2.865-3.976-4.096c-0.771-0.646-1.61-1.141-2.418-1.726
				c-0.322-0.233-0.634-0.532-0.965-0.789c-1.928,0.633-3.831,1.334-5.691,2.103c-5.788,2.393-11.853,5.227-17.198,8.927
				c-0.126,0.763-0.152,1.59-0.171,1.898c-0.091,1.453-0.186,2.871-0.35,4.324c-0.565,5.056-1.139,10.311-0.328,15.372
				C121.271,115.444,122.42,120.102,124.692,124.25z"/>
			<path fill="#FFFFFF" d="M115.238,104.586c0.043,2.229,0.299,4.436,0.67,6.632c0.339,1.997,0.598,4.103,1.15,6.05
				c0.532,1.876,1.33,3.757,2.288,5.458c0.925,1.643,2.083,3.157,2.934,4.841c0.874,1.73,1.499,3.458,2.618,5.068
				c0.756,1.085,1.439,2.213,2.062,3.379c0.349-0.385,0.721-0.772,1.118-1.163c-0.096-0.154-0.159-0.346-0.172-0.581
				c-0.019-0.31-0.532-0.893-0.667-1.188c-0.264-0.573-0.503-1.169-0.795-1.728c-0.527-1.008-1.33-1.861-1.849-2.87
				c-1.009-1.962-2.034-3.9-2.977-5.906c-1.114-2.37-1.718-4.835-2.266-7.396c-0.531-2.479-0.987-4.941-1.08-7.481
				c-0.103-2.833,0.046-5.676,0.383-8.49c0.268-2.249,0.73-4.494,0.917-6.748c0.039-0.462,0.094-1.284,0.243-2.143
				c-1.448,1.081-2.833,2.231-4.134,3.463c0.034,1.427,0.054,2.849-0.075,4.284C115.414,100.227,115.194,102.417,115.238,104.586z"
				/>
			<path fill="#D69C45" d="M236.427,112.525c-1.644,0.043-3.163,0.212-4.68,0.891c-1.319,0.59-2.548,1.374-3.689,2.255
				c-4.508,3.471-8.06,7.852-11.93,11.957c-0.013,0.194-0.028,0.387-0.047,0.577c-0.282,2.776-1.125,6.971-3.497,8.998
				c-0.004,0.018-0.004,0.037-0.009,0.056c-0.456,1.799-1.47,2.951-2.796,4.22c-0.569,0.543-1.197,1.042-1.79,1.557
				c-0.225,0.194-0.463,0.376-0.719,0.512c0.289,0.684,0.401,1.549,0.535,2.088c0.617,2.461,0.71,5.123,0.533,7.648
				c-0.153,2.184-0.626,4.312-1.479,6.324c0.499-0.559,0.989-1.125,1.463-1.709c0.299-0.309,0.592-0.621,0.878-0.94
				c-0.07,0.108-0.141,0.215-0.212,0.323c0.231-0.168,0.46-0.339,0.683-0.519c0.897-0.719,1.699-1.49,2.71-2.035
				c0.93-0.5,1.837-1.039,2.715-1.626c1.805-1.209,3.514-2.546,5.262-3.837c1.678-1.239,3.409-2.424,5.046-3.717
				c1.324-1.045,2.473-2.32,3.854-3.288c1.277-0.896,2.532-1.829,3.728-2.833c2.614-2.199,5.3-4.322,7.906-6.53
				c2.3-1.948,4.847-4.432,5.721-7.409c0.904-3.073,0.307-6.288-1.593-8.875C243.074,113.965,239.661,112.438,236.427,112.525z"/>
			<path fill="#FFE7C1" d="M206.08,145.007c-0.023-0.376,0.025-1.033-0.216-1.404c-0.053-0.046-0.101-0.098-0.144-0.156
				c-0.012-0.01-0.025-0.021-0.039-0.029c-0.297-0.185-0.301-0.718,0.018-0.866c0.089-0.111,0.221-0.21,0.408-0.28
				c0.54-0.204,0.912-0.829,1.291-1.241c0.468-0.507,1.096-0.892,1.574-1.41c0.131-0.142,0.262-0.282,0.394-0.421
				c1.245-3.206,3.144-6.56,3.716-9.946c0.407-2.407,0.285-5.174-0.389-7.537c-0.813-2.851-2.78-4.627-5.926-3.756
				c-0.276,0.076-0.598,0.172-0.938,0.287c-0.032,0.216-0.077,0.427-0.142,0.633c-0.181,0.582-0.646,1.153-1.323,1.14
				c-0.077-0.001-0.151-0.01-0.227-0.014c0.011,0.078,0.021,0.157,0.027,0.24c0.054,0.917,0.111,1.833,0.16,2.751
				c0.011,0.187,0.003,0.361-0.021,0.522c-0.133,0.105-0.255,0.229-0.362,0.372c-0.485,0.239-0.882,0.65-1.023,1.167
				c-0.006,0.026-0.012,0.052-0.018,0.079c-0.261,0.085-0.541,0.136-0.829,0.153c0.141,0.458,0.356,0.933,0.552,1.359
				c0.008-0.011,0.019-0.021,0.026-0.032c-0.021,0.262-0.037,0.524-0.035,0.787c-0.143,0.62-0.252,1.251-0.339,1.889
				c0.091,0.945,0.065,1.906,0.043,2.849c-0.012,0.461-0.112,0.99-0.368,1.4c0,0.018-0.002,0.037-0.002,0.055
				c-0.015,0.005-0.032,0.008-0.047,0.013c-0.14,0.201-0.316,0.371-0.549,0.479c-0.146,0.067-0.352,0.095-0.488-0.015
				c-0.131-0.105-0.221-0.212-0.286-0.321c-0.008-0.001-0.016-0.001-0.021-0.001c-0.753,2.245-3.223,4.204-5.486,3.357
				c-1.769-0.662-2.788-2.547-3.318-4.599c-3.129,3.583-7.789,4.827-12.349,5.339c-2.369,0.265-4.823,0.337-7.152,0.876
				c-1.056,0.245-2.122,0.214-3.181,0.415c-1.237,0.233-2.354,0.791-3.434,1.414c-4.572,2.641-9.578,4.521-14.092,7.268
				c-4.668,2.84-8.362,6.412-12.249,10.187c-1.859,1.806-3.899,3.42-5.743,5.238c-1.436,1.417-2.885,3.01-4.653,4.021
				c-1.486,0.851-3.213,1.445-4.969,1.651c-0.221,1.871,0.415,3.714,0.29,5.592c-0.126,1.924-0.777,3.768-1.187,5.64
				c-0.355,1.629-1.32,4.348-0.198,5.839c0.96,1.272,2.487,2.044,3.938,2.626c7.269,2.914,14.961,3.403,22.699,2.296
				c8.213-1.191,16.145-4.388,23.994-6.954c5.012-1.639,9.797-4.45,13.992-7.621c0.449-0.339,0.894-0.688,1.338-1.042
				c3.018-1.616,5.805-3.794,8.277-6.099c0.257-0.306,0.52-0.607,0.797-0.9c0.462-0.486,0.983-0.894,1.465-1.356
				c0.567-0.544,0.978-1.293,1.464-1.907c0.447-0.564,0.894-1.128,1.332-1.7c1.569-3.534,3.084-6.286,3.839-9.488
				c0.415-1.771,0.598-3.677,0.429-5.929C206.327,146.939,206.14,145.98,206.08,145.007z M144.399,171.312
				c-0.464,0.159-0.899,0.101-1.265-0.099c-0.647-0.008-1.259-0.345-1.441-1.118c-0.272-1.154-0.708-2.291-0.812-3.478
				c-0.138-1.594,2.279-2.553,3.084-1.04c0.556,1.046,0.75,2.206,1.271,3.254C145.703,169.769,145.506,170.935,144.399,171.312z
				 M148.119,161.254c-2.643,2.25-6.097,0.945-9.172,0.426c-0.308,0.392-1.103,0.348-1.235-0.207
				c-0.072-0.128-0.057-0.166,0.043-0.114c-0.654-0.465-0.18-1.513,0.535-1.551c2.982-0.157,6.369,1.563,9.219,0.213
				C148.28,159.657,148.663,160.791,148.119,161.254z M177.68,147.182c0.852,1.157,1.898,2.322,2,3.824
				c0.085,1.281-1.688,2.375-2.656,1.294c-0.429-0.478-0.754-0.974-0.947-1.592c-0.047-0.15-0.085-0.278-0.126-0.4
				c-0.022-0.03-0.045-0.062-0.068-0.089c-0.309-0.407-0.626-0.799-0.884-1.243C173.955,147.18,176.443,145.501,177.68,147.182z
				 M169.063,146.458c0.76-0.575,1.285-1.393,1.955-2.063c0.678-0.678,1.379-1.303,2.012-2.028c1.042-1.196,2.176-2.6,3.632-3.281
				c0.345-0.162,0.798,0.241,0.681,0.603c-0.604,1.844-2.254,3.376-3.528,4.793c-0.611,0.68-1.341,1.205-1.96,1.889
				c-0.545,0.602-1.1,1.153-1.796,1.576C169.067,148.546,168.146,147.152,169.063,146.458z M157.857,166.019
				c0.938-2.126,1.107-4.286,1.217-6.581c0.045-0.949,1.307-1.027,1.464-0.089c0.421,2.498,0.548,4.838-0.394,7.239
				c-0.85,2.166,1.098,2.175,2.596,2.03c0.825-0.079,1.573-0.078,2.36-0.381c0.861-0.332,1.459,0.931,0.708,1.43
				c-2.101,1.391-5.792,2.271-7.717,0.167C157.113,168.766,157.317,167.242,157.857,166.019z M183.173,157.65
				c-0.475,3.446-1.771,6.443-3.202,9.586c-1.213,2.663-2.277,5.419-4.135,7.724c-1.785,2.218-4.21,4.12-7.14,4.403
				c-3.566,0.346-6.962-1.101-10.501-1.031c-0.787,0.015-0.867-1.18-0.074-1.225c3.085-0.174,6.205,0.418,9.272,0.095
				c2.924-0.312,5.291-2.142,6.845-4.593c1.434-2.263,2.378-4.75,3.523-7.159c1.276-2.685,2.776-5.338,3.738-8.155
				C181.851,156.27,183.325,156.536,183.173,157.65z M205.112,138.69c-1.313-0.665-0.972-2.955-0.796-4.113
				c0.215-1.417,0.393-2.807,0.698-4.201c0.312-1.412,0.845-5.069,2.992-4.638c0.725,0.146,0.51,1.092-0.04,1.292
				c-0.509,0.184-0.725,1.584-0.827,2.021c-0.187,0.807-0.326,1.625-0.515,2.431c-0.266,1.137-0.386,2.393-0.486,3.56
				c-0.088,1.039,0.153,2.355-0.195,3.341C205.813,138.744,205.441,138.857,205.112,138.69z"/>
			<path fill="#FFE7C1" d="M173.788,190.001c0.503-0.363,0.868-0.884,1.171-1.418c0.393-0.692,0.757-1.541,1.179-2.367
				c-0.161,0.06-0.322,0.121-0.484,0.177c-1.519,0.519-3.059,0.952-4.606,1.367c0.451,0.527,0.872,1.084,1.349,1.575
				C172.762,189.711,173.246,190.391,173.788,190.001z"/>
			<path fill="#FFE790" d="M211.888,212.592c-0.09,0.825-0.292,1.875-0.298,1.901c-0.226,1.304-0.436,2.631-0.881,3.882
				c-0.777,2.183-2.142,3.781-4.135,4.961c-2.128,1.26-4.489,2.069-6.468,3.578c-2.101,1.603-4.139,3.387-5.986,5.278
				c-0.974,0.998-1.95,2.121-2.429,3.457c-0.5,1.4,0.202,2.591,1.122,3.627c0.953,1.069,1.861,2.192,2.896,3.186
				c0.912,0.876,1.762,1.735,2.48,2.786c1.471,2.147,2.463,4.54,3.361,6.971c0.491,1.33,0.909,2.707,1.322,4.067
				c0.281,0.922,0.358,1.863,0.64,2.774c0.037,0.023,0.071,0.049,0.104,0.079c1.252-0.396,2.424-0.982,3.522-1.713
				c0.417-0.277,0.572-0.814,0.604-1.422c-0.636-1.155-0.564-2.556-0.815-3.851c-0.341-1.761-0.81-3.533-1.294-5.26
				c-0.747-2.646-1.687-5.415-4.139-6.884c-0.325,0.093-0.661,0.166-1.006,0.213c-0.825,0.112-1.369-0.986-0.551-1.422
				c3.345-1.784,6.47-3.889,9.546-6.095c3.042-2.181,6.164-4.317,8.772-7.03c1.289-1.338,2.474-2.798,3.339-4.451
				c0.827-1.582,0.831-3.707,0.918-5.446c0.043-0.883,0.139-1.784,0.076-2.668c-0.061-0.838-0.433-1.583-0.493-2.398
				c-0.03-0.378-0.274-1.341-0.644-2.007c-0.116,0.241-0.36,0.422-0.596,0.52c-2.006,0.837-3.92,1.885-6.009,2.518
				C213.868,212.04,212.879,212.32,211.888,212.592z"/>
			<path fill="#B69A54" d="M198.896,261.422c-0.133,0.43-0.466,0.815-0.909,1.063c-0.213,0.118-0.433,0.214-0.654,0.304
				c0.237,0.191,0.454,0.416,0.718,0.569c0.213,0.125,0.436,0.195,0.638,0.341c0.154,0.112,0.176,0.368-0.014,0.463
				c-0.869,0.423-1.511-0.582-2.234-1.067c-0.028,0.009-0.057,0.017-0.084,0.026c-0.662,0.195-1.211,0.631-1.792,0.996
				c-0.175,0.111-0.347,0.222-0.519,0.335c0.257,0.066,0.509,0.167,0.749,0.288c0.519,0.262,1.579,0.747,1.663,1.406
				c0.025,0.214-0.111,0.497-0.374,0.46c-0.553-0.078-0.963-0.63-1.436-0.909c-0.464-0.273-0.982-0.539-1.524-0.627
				c-0.309,0.211-0.613,0.421-0.92,0.637c-0.315,0.221-1.497,1.357-1.836,1.181c1.222,0.635,3.02,0.437,4.382,0.409
				c3.901-0.08,7.428-1.882,10.827-3.618c1.246-0.637,2.625-1.226,3.539-2.335c0.896-1.086,0.352-1.945-0.297-2.831
				c-1.283,1.4-3.62,2.281-5.38,2.667C202.048,261.482,200.396,261.69,198.896,261.422z"/>
			<path fill="#489F4F" d="M195.437,173.502c-3.846,3.624-7.976,6.902-12.615,9.464c-1.321,0.73-2.686,1.477-4.08,2.143
				c-0.104,0.176-0.204,0.355-0.284,0.543c-0.289,0.664-0.626,1.309-0.94,1.961c-0.612,1.265-1.263,2.667-2.37,3.58
				c-2.373,1.962-4.127-1.015-5.367-3.094c-0.569,0.15-1.138,0.302-1.707,0.455c-1.17,0.316-2.328,0.678-3.479,1.059
				c-0.467,0.798-1.334,1.392-2.156,1.887c-0.595,0.538-1.285,0.976-1.844,1.53c-0.324,0.319-0.689,0.704-1.097,0.99
				c0.007,0.165-0.009,0.258-0.092,0.062c-0.001,0.001-0.001,0.001-0.001,0.001c0.073,0.185,0.139,0.367,0.189,0.56
				c0.167,0.617,0.303,1.243,0.544,1.837c0.167,0.41,0.493,0.786,0.573,1.224c0.026,0.144,0.013,0.294-0.04,0.425
				c0.502,0.3,1.047,0.56,1.596,0.719c1.553,0.45,2.988,0.569,4.597,0.458c1.78-0.122,3.561-0.246,5.342-0.357
				c0.696-0.043,1.37-0.04,2.029-0.235c0.028-0.009,0.053-0.015,0.079-0.021c0.19-0.148,0.303-0.376,0.438-0.583
				c0.214-0.328,0.483-0.637,0.764-0.913c-0.994-1.724,1.165-4.748,2.087-6.064c0.659-0.943,1.352-1.798,2.188-2.592
				c0.418-0.396,0.844-0.789,1.317-1.119c0.444-0.308,0.954-0.492,1.388-0.796c0.479-0.335,1.043,0.329,0.663,0.761
				c-0.673,0.763-1.375,1.471-2.056,2.195c1.958-0.055,3.853-0.093,5.629,0.917c1.594,0.906,3.102,2.103,4.487,3.296
				c1.566,1.35,3.237,2.695,4.488,4.358c0.634,0.844,1.104,1.618,1.408,2.63c0.153,0.511,0.308,1.02,0.461,1.529
				c0.308-0.386,0.606-0.776,0.89-1.175c1.534-2.169,2.757-4.578,3.453-7.148c0.651-2.401,0.804-4.828,1.194-7.271
				c0.068-0.43,0.745-0.479,0.859-0.052c1.413,5.22-0.995,11.542-4.093,15.725c-2.985,4.037-8.11,8.878-13.595,8.221
				c-1.947,2.121-4.77,3.396-7.518,4.14c-0.915,0.247-1.886,0.531-2.871,0.732c0.004,0.19,0.001,0.385-0.014,0.582
				c-0.062,0.843-0.243,1.15,0.686,1.113c1.157-0.046,2.315-0.125,3.474-0.217c0.071-0.127,0.239-0.114,0.336-0.026
				c0.767-0.063,1.531-0.128,2.296-0.195c2.296-0.203,4.594-0.428,6.868-0.813c2.174-0.368,4.264-0.964,6.4-1.489
				c4.376-1.077,8.806-1.977,13.138-3.234c2.029-0.59,4.15-1.012,6.127-1.768c1.554-0.593,3.059-1.514,4.643-2.018
				c0.049-0.082,0.078-0.114,0.057-0.041c0.048-0.167,0.123-0.298,0.214-0.405c0.044-0.765,0.165-1.527,0.158-2.298
				c-0.012-1.135,0.06-2.267,0.054-3.403c-0.011-2.089,0.006-4.27-0.324-6.335c-0.625-3.918-2.174-7.69-4.46-10.935
				c-2.346-3.327-5.118-5.938-8.453-8.241c-1.764-1.22-3.559-2.101-5.611-2.713c-1.32-0.394-2.705-1.031-4.105-1.387
				C196.736,172.275,196.088,172.888,195.437,173.502z"/>
			<path fill="#B69A54" d="M197.357,260.932c-0.146-0.072-0.288-0.15-0.429-0.236c-0.634-0.397-1.517-1.054-2.123-1.825
				c-0.382,0.019-0.774-0.009-1.182-0.02c-0.542-0.013-1.089,0.014-1.611-0.114c-0.31,0.234-0.662,0.436-1.004,0.607
				c-0.048,0.023-0.093,0.049-0.14,0.072c0.745,0.262,1.358,0.765,1.312,1.595c-0.016,0.3-0.398,0.468-0.61,0.232
				c-0.568-0.636-1.163-0.987-1.911-1.2c-0.314,0.159-0.631,0.309-0.965,0.438c-0.162,0.063-0.326,0.123-0.492,0.182
				c0.564,0.326,1.076,0.769,1.463,1.188c0.435,0.468-0.251,1.091-0.714,0.668c-0.581-0.531-1.191-1.087-1.9-1.445
				c-0.549,0.2-1.09,0.418-1.601,0.69c-0.922,0.491-2.244,1.266-2.677,2.274c-0.254,0.59,0.788,0.857,1.259,0.892
				c1.077,0.078,2.158,0.079,3.236,0.148c0.892,0.059,1.627-0.365,2.52-0.153c0.093,0.021,0.167,0.075,0.221,0.145
				c1.493-1.177,3.136-2.156,4.749-3.155C195.438,261.495,196.636,261.414,197.357,260.932z"/>
		</g>
		<g>
			<path fill="#613B15" d="M240.449,111.18c-2.49-0.856-5.511-0.769-8.019-0.043c-2.557,0.74-4.793,2.401-6.792,4.098
				c-3.556,3.017-6.638,6.445-9.552,10.042c-0.203-2.352-0.883-4.772-1.938-6.697c-1.71-3.116-5.341-3.504-8.428-2.497
				c-0.162-0.767-0.431-1.513-0.727-2.167c-0.366-0.812-0.924-1.434-1.267-2.243c-0.479-1.127-1.169-2.145-1.905-3.115
				c-1.69-2.228-3.876-3.686-5.991-5.466c-0.876-0.738-1.584-1.62-2.524-2.275c-0.506-0.354-1.153-0.755-1.626-1.255
				c-1.332-5.837-3.932-11.392-7.542-16.146c-2.925-3.85-6.428-6.98-10.906-8.888c-4.458-1.899-9.162-2.295-13.932-1.81
				c-10.972,1.117-21.226,4.971-31.042,9.814c-8.445,4.167-16.207,9.548-21.455,17.512c-1.445,2.193-2.717,4.362-3.64,6.833
				c-0.93,2.482-1.401,5.046-1.999,7.616c-0.614,2.648-0.234,5.511,0.036,8.176c0.299,2.96,0.711,5.785,1.566,8.647
				c1.57,5.262,4.398,10.181,7.518,14.665c0.635,0.914,1.438,1.745,2.157,2.592c0.751,0.885,1.526,2.037,2.421,2.77
				c0.513,0.419,0.977,0.797,1.443,1.116c-0.101,0.212-0.208,0.42-0.306,0.625c-0.624,1.291-1.233,2.592-1.849,3.887
				c-0.428,0.899-0.424,2.396-0.279,3.719c-0.667,0.092-1.357,0.377-1.792,0.699c-2.329,1.727-2.439,5.003-2.081,7.605
				c0.771,5.605,5.876,8.531,11.038,8.267c-0.254,1.174-0.538,2.342-0.82,3.505c-0.449,1.847-0.884,3.914-0.213,5.754
				c0.622,1.704,2.258,2.858,3.753,3.735c3.622,2.121,8.209,3.079,12.306,3.649c1.192,0.165,2.387,0.215,3.585,0.224
				c0.009,0.014,0.019,0.027,0.026,0.042c-0.011,0.049-0.021,0.099-0.032,0.147c-0.188-0.021-0.377,0.018-0.525,0.145
				c-0.056,0.046-0.11,0.087-0.17,0.126c-0.003,0.002-0.003,0.002-0.007,0.004c-0.023,0.008-0.045,0.019-0.069,0.025
				c-0.042,0.011-0.057,0.017-0.054,0.017c-0.057,0.011-0.114,0.02-0.17,0.033c-0.012,0.002-0.017,0.003-0.025,0.005
				c-0.008,0.001-0.017,0.003-0.026,0.004c-0.249,0.044-0.47,0.163-0.615,0.341c-1.134,0.19-2.435,0.975-2.886,1.888
				c-0.331,0.669-0.282,1.323-0.371,2.047c-0.059,0.484-0.728,0.596-1.074,0.771c-0.368,0.186-0.643,0.434-0.928,0.726
				c-1.012,1.041-1.109,3.101-1.216,4.447c-0.058,0.728-0.05,1.431,0.04,2.112c-0.579,0.653-1.171,1.399-1.603,2.152
				c-0.257,0.449-0.587,0.827-0.849,1.245c-0.18-0.042-0.386,0.042-0.455,0.275c-0.033,0.11-0.079,0.217-0.133,0.322
				c-0.01-0.005-0.019-0.013-0.031-0.017c-1.46-0.442-3.111-0.988-4.477-0.035c-1.249,0.873-1.424,2.552-1.611,3.93
				c-0.511,3.772,1.218,7.165,4.821,8.59c1.753,0.694,3.57,0.698,5.42,0.633c1.48-0.054,2.942-0.218,4.04-1.306
				c1.067-1.058,0.961-3.047,0.713-4.394c-0.124-0.661-0.338-1.295-0.753-1.831c-0.231-0.3-0.542-0.514-0.87-0.706
				c0.154-0.15,0.294-0.321,0.433-0.542c0.294-0.468,0.439-1.117,0.8-1.532c0.265-0.304,0.519-0.603,0.709-0.928
				c0.251,0.03,0.494,0.036,0.734,0.028c0.465,0.672,1.107,1.266,1.668,1.786c1.088,1.008,2.388,1.872,3.591,2.736
				c1.192,0.859,2.458,1.631,3.741,2.344c1.281,0.712,2.639,1.443,4.142,1.458c2.554,0.028,5.091-1.302,7.245-2.561
				c1.079-0.631,2.123-1.412,3.039-2.26c0.985-0.912,1.816-2.095,2.908-2.879c0.162-0.115,0.27-0.252,0.334-0.397
				c0.293,0.118,5.644,2.087,6.807,2.402c0.813,0.22,1.655,0.253,2.502,0.18c-0.052,0.205-0.11,0.41-0.179,0.615
				c-0.208,0.622-0.085,1.403,0.279,1.937c0.175,0.257,0.423,0.431,0.712,0.553c-0.159,0.28-0.294,0.558-0.406,0.785
				c-0.844,1.73-2.408,3.062-3.518,4.618c-2.172,3.042-3.711,6.884-3.408,10.667c0.319,3.985,3.097,7.13,6.006,9.636
				c1.466,1.263,2.951,2.32,4.601,3.341c1.355,0.837,9.081,7.135,10.105,8.399c0.542,0.668,1.182,1.273,1.9,1.751
				c-0.068,0.021-0.135,0.042-0.196,0.062c-1.156,0.379-2.271,0.851-3.441,1.199c-2.094,0.623-4.813,1.842-5.775,3.968
				c-0.818,1.805,0.509,3.034,2.213,3.45c1.12,0.275,2.396,0.176,3.538,0.171c0.477-0.002,1.007,0.049,1.456-0.147
				c0.186-0.081,0.356-0.185,0.525-0.293c-0.368,0.896,0.016,1.818,1.188,2.311c0.944,0.397,1.885,0.348,2.902,0.382
				c1.112,0.038,2.21,0.079,3.322-0.032c4.193-0.418,8.36-2.554,11.978-4.612c1.397-0.794,2.784-1.936,3.245-3.535
				c0.49-1.704-0.541-3.042-1.835-3.959c0.201-1-0.042-2.125-0.507-3.047c-0.452-3.046-1.254-6.077-2.26-8.959
				c-0.592-1.691-1.837-4.581-3.72-5.59c0.994-0.486,1.936-1.102,2.907-1.675c2.037-1.201,3.903-2.731,5.833-4.096
				c3.503-2.478,7.006-5.105,9.67-8.512c1.354-1.73,2.229-3.504,2.602-5.67c0.35-2.034,0.416-4.198,0.258-6.253
				c-0.034-0.459-0.113-0.907-0.214-1.355c-0.07-0.313-0.379-0.754-0.397-1.047c-0.042-0.667-0.32-1.307-0.605-1.901
				c-0.266-0.556-0.714-1.271-1.286-1.698c0.528-1.787,0.455-3.755,0.473-5.59c0.024-2.357-0.024-4.809-0.403-7.139
				c-0.698-4.296-2.493-8.312-5.043-11.823c-2.526-3.481-5.595-6.121-9.143-8.499c-1.713-1.147-3.602-2.024-5.598-2.533
				c-1.294-0.331-2.543-0.678-3.812-0.894c2.692-2.641,5.225-5.39,7.266-8.592c0.103-0.023,0.209-0.063,0.313-0.123
				c1.188-0.674,2.111-1.66,3.278-2.359c1.399-0.839,2.499-2.263,3.938-2.983c2.897-1.448,5.449-3.496,8.029-5.43
				c2.577-1.931,5.294-3.713,7.646-5.923c1.15-1.081,2.458-1.936,3.711-2.892c1.386-1.059,2.7-2.212,4.053-3.314
				c2.529-2.063,5.171-4.091,7.498-6.382c2.103-2.07,3.886-4.59,4.605-7.479C250.231,119.137,246.124,113.13,240.449,111.18z
				 M192.25,102.576c1.649,1.471,3.147,3.096,4.854,4.525c2.022,1.693,3.644,3.966,4.447,6.487c0.228,0.712,0.848,1.294,1.102,2.05
				c0.12,0.354,0.223,0.74,0.284,1.132c-0.279-0.137-0.554-0.288-0.825-0.412c-1.254-0.573-2.265,0.544-2.02,1.757
				c0.141,0.699,0.695,1.279,1.006,1.898c-0.191,0.842-0.061,1.686,0.082,2.552c-0.054-0.021-0.113-0.043-0.186-0.064
				c-0.672-0.199-1.406,0.348-1.535,0.999c-0.295,1.497,0.376,2.97,0.856,4.358c0.246,0.715,0.439,1.388,0.506,2.125
				c-0.045,0.441-0.072,0.884-0.091,1.324c-0.029,0.021-0.064,0.041-0.106,0.058c-0.094-0.283-0.23-0.557-0.413-0.813
				c-0.403-0.562-1.103-0.432-1.456,0.088c-0.502,0.739-0.849,1.506-1.235,2.345c-0.577,1.253-1.396,1.774-2.309,0.604
				c-0.874-1.118-1.397-2.549-1.782-3.989c0.789-2.23,0.818-4.741,0.697-7.091c-0.07-1.384,0.279-4.073-0.828-5.055
				c-0.558-0.494-1.214-1.076-1.788-1.699c0.207-0.531,0.392-1.047,0.49-1.604c0.184-0.146,0.319-0.355,0.354-0.623
				C192.852,109.887,192.796,106.195,192.25,102.576z M190.913,117.35c0.532,0.754,1.209,1.434,1.87,2.05
				c0.306,4.396-0.133,9.615-3.95,12.65c-3.743,2.976-8.555,3.63-13.059,4.143c-2.203,0.251-10.264,1.874-12.379,3.036
				c-4.829,2.652-9.965,4.705-14.595,7.73c-4.411,2.88-8.045,6.52-11.729,10.253c-1.769,1.793-3.713,3.387-5.515,5.142
				c-1.59,1.547-3.029,3.162-4.954,4.297c-2.633,1.551-6.022,1.293-8.02-0.611c-1.676-0.859-2.528-2.613-2.439-4.689
				c0.685-15.731,15.261-28.828,28.167-34.957c3.395-1.613,9.149-4.024,12.667-5.367c3.602-1.376,7.315-2.444,11.063-3.326
				c6.987-1.647,15.414-3.468,22.245-0.488C190.499,117.307,190.712,117.349,190.913,117.35z M154.848,75.471
				c5.166-0.947,10.151-1.339,15.229,0.2c6.962,2.109,11.681,8.176,14.988,14.448c2.206,4.187,3.384,8.9,4.157,13.545
				c0.438,2.624,0.663,10.974,0.663,10.974s-9.094-1.445-20.664,0.622c0.064-1.845,0.114-3.653-0.347-5.473
				c-0.244-0.966-0.671-1.875-0.907-2.841c-0.261-1.058-0.458-2.132-0.686-3.198c-0.909-4.231-2.891-8.119-4.195-12.222
				c-1.193-3.751-2.864-7.393-5.298-10.505c-1.23-1.571-3.214-4.106-5.421-5.05C153.191,75.79,154.021,75.623,154.848,75.471z
				 M150.088,76.5c1.529,0.54,2.622,1.229,3.744,2.438c1.171,1.265,2.307,2.577,3.302,3.985c2.21,3.125,3.629,6.748,4.686,10.402
				c0.499,1.72,1.278,3.356,1.936,5.019c0.747,1.889,1.372,3.838,1.812,5.82c0.208,0.931,0.387,1.867,0.594,2.797
				c0.219,0.987,0.607,1.918,0.902,2.885c0.574,1.893,0.455,3.809,0.384,5.753c-0.932,0.191-1.875,0.406-2.829,0.647
				c0.039-3.857-1.334-7.812-2.178-11.502c-0.448-1.958-0.903-3.906-1.645-5.777c-0.782-1.973-1.676-3.911-2.491-5.872
				c-1.465-3.521-3.219-6.884-5.594-9.882c-1.225-1.547-2.731-2.914-4.314-4.087c-0.766-0.569-1.585-1.06-2.436-1.491
				C147.327,77.221,148.704,76.842,150.088,76.5z M120.853,95.425c0.165-1.454,0.259-2.872,0.35-4.324
				c0.019-0.308,0.045-1.135,0.171-1.898c5.345-3.7,11.41-6.535,17.198-8.927c1.86-0.769,3.763-1.47,5.691-2.103
				c0.331,0.257,0.643,0.556,0.965,0.789c0.808,0.585,1.647,1.08,2.418,1.726c1.468,1.231,2.814,2.569,3.976,4.096
				c2.199,2.89,3.7,6.282,5.059,9.627c0.702,1.729,1.423,3.439,2.143,5.158c0.761,1.813,1.127,3.77,1.561,5.679
				c0.879,3.873,1.792,7.634,2.039,11.598c-1.336,0.389-2.688,0.83-4.045,1.332c-12.76,4.714-22.568,10-28.5,15.041
				c-0.006-0.048-0.013-0.096-0.021-0.145c-0.051-0.333-0.295-0.54-0.583-0.622c-0.008-0.012-0.012-0.022-0.021-0.034
				c-0.533-0.98-0.872-2.032-1.508-2.959c-0.562-0.82-1.176-1.644-1.596-2.544c-0.435-0.935-0.963-1.758-1.458-2.663
				c-2.272-4.148-3.422-8.806-4.167-13.453C119.713,105.736,120.287,100.481,120.853,95.425z M115.684,93.784
				c1.301-1.231,2.686-2.382,4.134-3.463c-0.149,0.858-0.204,1.68-0.243,2.143c-0.188,2.254-0.65,4.5-0.917,6.748
				c-0.337,2.814-0.486,5.657-0.383,8.49c0.093,2.54,0.549,5.003,1.08,7.481c0.548,2.56,1.151,5.025,2.266,7.396
				c0.942,2.005,1.967,3.943,2.977,5.906c0.519,1.009,1.322,1.862,1.849,2.87c0.292,0.559,0.532,1.155,0.795,1.728
				c0.135,0.294,0.648,0.878,0.667,1.188c0.013,0.235,0.076,0.427,0.172,0.581c-0.397,0.391-0.77,0.778-1.118,1.163
				c-0.622-1.166-1.305-2.294-2.062-3.379c-1.119-1.609-1.745-3.337-2.618-5.068c-0.852-1.684-2.009-3.198-2.934-4.841
				c-0.958-1.701-1.756-3.582-2.288-5.458c-0.553-1.948-0.812-4.053-1.15-6.05c-0.371-2.197-0.627-4.403-0.67-6.632
				c-0.043-2.169,0.176-4.359,0.371-6.518C115.738,96.633,115.718,95.211,115.684,93.784z M114.998,147.529
				c-1.612-2.182-3.104-4.329-4.467-6.686c-2.757-4.765-4.889-9.986-5.756-15.468c-0.417-2.625-0.563-5.437-0.594-8.095
				c-0.029-2.746,0.824-5.636,1.591-8.25c1.426-4.86,4.37-9.264,7.706-12.983c0.371-0.414,0.754-0.816,1.143-1.214
				c-0.36,3.233-0.828,6.46-0.848,9.709c-0.026,4.236,0.742,8.602,1.654,12.726c0.852,3.854,3.123,7.081,5.055,10.434
				c0.956,1.654,1.483,3.467,2.516,5.09c0.96,1.506,1.95,2.97,2.766,4.563c0.01,0.021,0.023,0.037,0.036,0.057
				c-1.934,2.5-3.729,5.187-5.558,7.768c-0.72,1.015-1.371,2.095-1.833,3.229c-0.496,0.488-0.86,1.135-1.382,1.738
				c-0.019,0.022-0.033,0.044-0.05,0.066C116.232,149.437,115.648,148.41,114.998,147.529z M121.865,171.02
				c-1.22-0.976-2.338-2.073-4.008-2.073c-0.954,0-0.814,1.384,0.089,1.445c1.246,0.084,2.361,1.467,3.285,2.206
				c0.177,0.141,0.353,0.284,0.527,0.429c-0.008,0.081-0.014,0.163-0.024,0.246c-0.062,0.507-0.138,1.014-0.222,1.52
				c-2.981-0.329-5.961-0.641-7.84-3.398c-1.004-1.472-1.266-3.432-1.301-5.167c-0.02-0.978,0.233-2.034,0.787-2.845
				c0.102-0.149,0.579-0.657,1-0.932c0.003,0.008,0.005,0.018,0.007,0.027c0.434,1.919,1.589,3.803,3.197,4.947
				c1.393,0.992,3.01,1.467,4.669,1.555C121.919,169.653,121.889,170.332,121.865,171.02z M135.635,213.03
				c-0.433,0.687-0.831,1.35-1.171,2.063c-0.868-0.372-1.727,0.718-0.971,1.486c0.702,0.714,1.661,0.929,1.966,1.924
				c0.272,0.883,0.413,2.564-0.394,3.205c-0.725,0.575-1.941,0.492-2.811,0.527c-1.417,0.056-2.732,0.018-4.102-0.392
				c-2.661-0.796-4.539-3.567-4.092-6.356c0.168-1.052,0.103-2.245,0.836-3.099c0.59-0.686,1.834-0.371,2.845-0.351
				c-0.178,0.209-0.353,0.416-0.489,0.629c-0.432,0.668-0.264,1.651-0.115,2.384c0.249,1.215,1.71,2.999,2.997,3.013
				c0.29,0.004,0.561-0.304,0.523-0.591c-0.086-0.658-0.47-1.02-0.942-1.465c-0.539-0.51-0.883-1.061-1.103-1.766
				c-0.228-0.733,0.129-1.366,0.434-2.019c0.387,0.21,0.952,0.094,1.112-0.476c0.177-0.624,0.616-1.214,0.904-1.793
				c0.184-0.367,0.399-0.719,0.542-1.106c0.083-0.217,0.133-0.446,0.194-0.673c0.195,0.628,0.483,1.236,0.889,1.822
				c0.924,1.333,2.12,1.981,3.544,2.48C135.993,212.65,135.763,212.825,135.635,213.03z M137.128,210.911
				c-1.487-0.419-2.501-1.117-3.329-2.455c-0.768-1.239-0.628-2.892-0.461-4.269c0.16-1.322,0.281-2.599,1.607-3.18
				c1.139-0.498,1.442-1.352,1.493-2.528c0.045-1.031,0.99-1.656,1.889-2.166c0.037,0.119,0.13,0.223,0.281,0.267
				c0.056,0.015,0.112,0.029,0.163,0.053c0.061,0.028,0.229,0.038,0.271,0.066c0.055,0.036,0.116,0.06,0.178,0.076
				c-0.184,0.921-0.303,1.859-0.181,2.797c0.135,1.043,0.923,1.823,1.251,2.793c0.303,0.897,0.238,1.857,0.623,2.747
				c0.052,0.119,0.112,0.232,0.179,0.346c-0.558-0.162-1.078-0.481-1.57-0.775c-1.307-0.777-1.394-2.479-1.709-3.812
				c-0.125-0.534-1.027-0.48-1.085,0.066c-0.166,1.537-0.003,3.922,1.435,4.886c1.273,0.853,3.428,2.254,4.954,1.281
				c0.057-0.037,0.105-0.079,0.147-0.126c0.339,0.063,0.678,0.077,1.014,0.069c-0.099,0.563-0.189,1.132-0.468,1.629
				c-0.058,0.016-0.115,0.045-0.172,0.093c-0.737,0.621-2.417,0.217-3.264,0.04c-0.712-0.148-1.415-0.351-2.089-0.626
				c-0.5-0.205-1.725-0.544-1.968-1.04c-0.193-0.394-0.725-0.299-0.747,0.148c-0.04,0.772,0.484,1.258,1.181,1.48
				c0.53,0.171,1.032,0.586,1.536,0.83c0.505,0.245,1.044,0.417,1.583,0.567c0.26,0.074,0.551,0.151,0.857,0.222
				C139.416,210.905,138.58,211.322,137.128,210.911z M158.85,216.294c-1.993,1.238-3.991,2.642-6.362,3.068
				c-2.588,0.465-5.457-1.745-7.511-3.083c-1.209-0.789-2.41-1.604-3.582-2.446c-0.521-0.373-0.98-0.799-1.429-1.233
				c0.474-0.148,0.954-0.341,1.467-0.549c1.319-0.534,2.678-0.851,3.64-1.979c0.721-0.843,1.036-2.05,0.86-3.149
				c1.137-0.033,2.523,0.774,3.484,1.262c1.014,0.515,2.139,0.773,3.231,1.066c1.356,0.362,2.651,0.774,3.96,1.288
				c1.161,0.457,2.322,0.735,3.525,1.046c0.988,0.255,2.032,0.388,3.001,0.721C161.62,213.521,160.539,215.245,158.85,216.294z
				 M171.96,213.348c-0.795-0.209-4.294-1.152-4.728-1.42c-1.128-0.395-2.218-0.894-3.339-1.379
				c-0.819-0.354-1.813-0.452-2.68-0.646c-1.144-0.258-2.276-0.491-3.379-0.9c-2.09-0.775-4.152-1.397-6.299-1.996
				c-1.844-0.517-3.5-1.93-5.492-1.947c-0.797-0.007-1.585,0.215-2.381,0.107c-1.156-0.158-1.297-1.464-1.438-2.378
				c-0.116-0.759-0.333-1.394-0.697-2.067c-0.217-0.403-0.478-0.764-0.653-1.19c-0.203-0.493-0.102-1.161-0.087-1.681
				c0.016-0.51,0.117-1.043,0.192-1.572c0.023,0.055,0.046,0.107,0.07,0.16c0.574,1.271,1.55,2.285,2.98,2.419
				c0.553,0.053,0.591-0.707,0.148-0.896c-1.838-0.784-2.381-3.153-2.81-4.924c0.195-0.005,0.389-0.009,0.579-0.019
				c2.302-0.112,4.617,0.072,6.914-0.092c-1.239,1.432,0.469,3.601,2.225,3.914c2.166,0.387,4.684-0.326,6.502-1.716
				c-2.019,1.58,2.702,6.147,7.054,6.147c1.929,0.001,4.08-0.109,6.006-0.214c1.737-0.094,3.678,0.123,5.122-1.004
				c0.24-0.188,0.367-0.53,0.312-0.826c0.221-0.249,0.432-0.512,0.656-0.744c0.25-0.259,0.666-0.458,1.031-0.682
				c0.782-0.207,1.559-0.324,2.411-0.02c1.514,0.54,2.835,1.435,3.964,2.564c2.269,2.269,2.963,5.799,0.915,8.432
				c-1.72,2.209-4.666,3.279-7.269,4.002C177.024,212.993,172.913,213.599,171.96,213.348z M159.22,191.528
				c-0.478,0.371-1,0.86-1.312,1.411c-0.164,0.058-0.327,0.114-0.49,0.173c0.006,0.028,0.013,0.058,0.018,0.087
				c-1.254,0.622-2.398,1.415-3.78,1.791c-0.931,0.254-1.883,0.256-2.826,0.082c-0.811-0.149-1.47-1.327-0.898-1.996
				c0.067-0.078,0.098-0.172,0.103-0.264c0.265-0.034,0.53-0.073,0.794-0.115c0.282,0.049,0.533,0.02,0.808-0.025
				c0.123-0.054,0.247-0.104,0.368-0.159c0.526,0.003,1.042-0.011,1.521-0.019c1.639-0.025,3-0.525,4.564-0.903
				C158.458,191.501,158.84,191.523,159.22,191.528z M185.283,198.552c-2.09-2.02-5.358-3.582-8.055-2.47
				c0.057-0.316,0.108-0.639,0.203-0.954c0.323-1.079,1-2.087,1.611-3.021c0.315-0.479,0.656-0.926,1.014-1.354
				c0.078,0.041,0.171,0.065,0.281,0.064c2.053,0.168,4.022,0.114,5.851,1.182c1.563,0.914,3.014,2.188,4.366,3.383
				c1.509,1.328,3.035,2.69,4.197,4.345c0.63,0.895,0.848,1.974,1.156,3.006c0.126,0.423,0.188,0.788,0.319,1.132
				c-0.998,1.06-2.091,2.031-3.266,2.853c-1.123,0.785-2.353,1.396-3.643,1.852c-0.62,0.217-1.256,0.369-1.892,0.52
				c0.011-0.019,0.024-0.036,0.036-0.055C189.586,205.468,188.049,201.225,185.283,198.552z M172.966,240.726
				c-1.248-1.373-2.346-2.887-2.838-4.695c-0.915-3.368,0.462-7.051,2.142-9.948c0.862-1.489,1.973-2.811,2.919-4.241
				c0.408-0.619,0.716-1.307,0.964-2.003c0.088-0.246,0.171-0.53,0.276-0.805c0.875,0.032,1.812-0.121,2.424-0.155
				c-0.204,0.307-0.403,0.617-0.579,0.939c-0.725,1.329-1.599,2.567-2.33,3.893c-0.313,0.565-0.629,1.102-0.884,1.697
				c-0.265,0.628-0.393,1.369-0.772,1.938c-0.714,1.074-1.074,2.415-1.494,3.623c-0.902,2.606-0.99,6.117,0.216,8.627
				c0.607,1.265,1.554,2.462,2.428,3.551c0.053,0.065,0.102,0.134,0.155,0.201C174.656,242.534,173.778,241.619,172.966,240.726z
				 M178.663,245.185c-0.657-0.757-1.404-1.729-1.933-2.529c-0.762-1.148-1.568-2.274-2.211-3.497
				c-1.349-2.566-0.775-6.048,0.13-8.66c0.405-1.168,1.055-2.207,1.457-3.36c0.451-1.306,1.056-2.444,1.752-3.632
				c0.648-1.104,1.301-2.201,1.79-3.386c0.187-0.453,0.419-0.883,0.598-1.321c4.518-0.268,9.021-0.682,13.44-1.723
				c4.786-1.129,9.604-2.227,14.365-3.467c0.817-0.211,1.636-0.427,2.454-0.645c-0.221,0.824-0.451,1.644-0.65,2.487
				c-0.307,1.318-0.656,2.641-1.315,3.83c-0.675,1.222-1.889,2.049-3.069,2.724c-2.316,1.326-4.723,2.238-6.846,3.902
				c-2.233,1.751-4.416,3.814-6.272,5.963c-1.422,1.646-2.915,4.017-1.95,6.234c1.121,2.584,3.584,4.416,5.441,6.445
				c2.067,2.258,3.26,5.178,4.311,8.01c0.495,1.332,0.882,2.709,1.321,4.065c0.311,0.955,0.415,1.922,0.689,2.872
				c-1.281,0.224-2.656,0.244-3.876-0.163c-3.438-1.145-7.504-8.631-8.581-10.207c-0.922-1.348-1.797-2.72-2.601-4.141
				c-0.32-0.567-0.885-1.051-1.314-2.103s-0.99-3.752-1.116-4.341c-0.397-1.862-0.499-3.816-0.055-5.679
				c0.459-1.924,1.774-3.306,2.805-4.932c0.213-0.339,0.374-0.735,0.543-1.125c0.473-0.479,0.91-0.976,1.35-1.473
				c0.433-0.236,0.839-0.553,1.177-0.843c0.399-0.341,0.73-0.764,1.025-1.196c0.334-0.488,0.974-0.74,1.426-1.111
				c0.692-0.565,0.018-1.743-0.815-1.508c-1.215,0.343-2.067,1.197-2.891,2.11c-0.193,0.215-0.388,0.43-0.578,0.645
				c-0.008,0.003-0.016,0.007-0.021,0.01c-0.079-0.216-0.204-0.429-0.3-0.625c-0.311-0.633-0.523-1.323-1.024-1.832
				c-0.326-0.333-1.012-0.147-0.987,0.373c0.033,0.705,0.276,1.377,0.472,2.055c0.151,0.523,0.192,1.071,0.425,1.558
				c-0.171,0.296-0.318,0.578-0.438,0.791c-1.169,2.057-2.916,3.596-3.776,5.835c-0.771,2.004-0.734,4.218-0.437,6.31
				c0.156,1.111,2.984,8.66,4.767,10.712c1.381,1.591,2.295,3.536,3.548,5.229c0.564,0.765,1.264,1.404,1.719,2.244
				c0.046,0.084,1.128,1.195,1.171,1.272c-0.171-0.06-1.056,0.116-2.289-0.562C190.259,256.125,179.32,245.942,178.663,245.185z
				 M190.009,265.07c-0.054-0.069-0.128-0.123-0.221-0.145c-0.893-0.212-1.628,0.212-2.52,0.153
				c-1.078-0.069-2.159-0.07-3.236-0.148c-0.471-0.034-1.513-0.302-1.259-0.892c0.433-1.009,1.755-1.783,2.677-2.274
				c0.511-0.272,1.052-0.49,1.601-0.69c0.709,0.358,1.319,0.914,1.9,1.445c0.463,0.423,1.148-0.2,0.714-0.668
				c-0.387-0.42-0.898-0.862-1.463-1.188c0.166-0.059,0.33-0.119,0.492-0.182c0.334-0.13,0.65-0.279,0.965-0.438
				c0.748,0.213,1.343,0.564,1.911,1.2c0.212,0.235,0.595,0.067,0.61-0.232c0.047-0.83-0.566-1.333-1.312-1.595
				c0.047-0.023,0.092-0.049,0.14-0.072c0.342-0.172,0.694-0.373,1.004-0.607c0.522,0.128,1.069,0.102,1.611,0.114
				c0.407,0.011,0.8,0.038,1.182,0.02c0.606,0.771,1.489,1.428,2.123,1.825c0.141,0.086,0.283,0.164,0.429,0.236
				c-0.722,0.482-1.92,0.563-2.6,0.983C193.145,262.914,191.502,263.894,190.009,265.07z M209.115,261.343
				c-0.914,1.109-2.293,1.698-3.539,2.335c-3.399,1.736-6.926,3.538-10.827,3.618c-1.362,0.027-3.16,0.226-4.382-0.409
				c0.339,0.177,1.521-0.96,1.836-1.181c0.307-0.216,0.611-0.426,0.92-0.637c0.542,0.088,1.061,0.354,1.524,0.627
				c0.473,0.279,0.883,0.831,1.436,0.909c0.263,0.037,0.399-0.246,0.374-0.46c-0.084-0.659-1.145-1.145-1.663-1.406
				c-0.24-0.121-0.492-0.222-0.749-0.288c0.172-0.113,0.344-0.224,0.519-0.335c0.581-0.365,1.13-0.801,1.792-0.996
				c0.027-0.01,0.056-0.018,0.084-0.026c0.724,0.485,1.365,1.49,2.234,1.067c0.189-0.095,0.168-0.351,0.014-0.463
				c-0.202-0.146-0.425-0.216-0.638-0.341c-0.264-0.153-0.48-0.378-0.718-0.569c0.222-0.09,0.441-0.186,0.654-0.304
				c0.443-0.247,0.776-0.633,0.909-1.063c1.501,0.269,3.152,0.061,4.543-0.243c1.76-0.386,4.097-1.267,5.38-2.667
				C209.467,259.397,210.012,260.257,209.115,261.343z M221.453,208.706c0.369,0.666,0.613,1.629,0.644,2.007
				c0.061,0.815,0.433,1.561,0.493,2.398c0.063,0.884-0.033,1.785-0.076,2.668c-0.087,1.739-0.091,3.864-0.918,5.446
				c-0.865,1.653-2.05,3.113-3.339,4.451c-2.608,2.713-5.73,4.85-8.772,7.03c-3.076,2.206-6.201,4.311-9.546,6.095
				c-0.818,0.436-0.274,1.534,0.551,1.422c0.345-0.047,0.681-0.12,1.006-0.213c2.452,1.469,3.392,4.237,4.139,6.884
				c0.484,1.727,0.953,3.499,1.294,5.26c0.251,1.295,0.18,2.695,0.815,3.851c-0.031,0.607-0.187,1.145-0.604,1.422
				c-1.099,0.73-2.271,1.317-3.522,1.713c-0.032-0.03-0.066-0.056-0.104-0.079c-0.281-0.911-0.358-1.853-0.64-2.774
				c-0.413-1.36-0.831-2.737-1.322-4.067c-0.898-2.431-1.891-4.823-3.361-6.971c-0.719-1.051-1.568-1.91-2.48-2.786
				c-1.035-0.993-1.943-2.116-2.896-3.186c-0.92-1.036-1.622-2.227-1.122-3.627c0.479-1.336,1.455-2.459,2.429-3.457
				c1.848-1.892,3.886-3.676,5.986-5.278c1.979-1.509,4.34-2.318,6.468-3.578c1.993-1.18,3.357-2.778,4.135-4.961
				c0.445-1.251,0.655-2.578,0.881-3.882c0.006-0.026,0.208-1.076,0.298-1.901c0.991-0.271,1.98-0.552,2.961-0.849
				c2.089-0.633,4.003-1.681,6.009-2.518C221.093,209.128,221.337,208.947,221.453,208.706z M201.483,173.045
				c2.053,0.612,3.848,1.493,5.611,2.713c3.335,2.303,6.107,4.914,8.453,8.241c2.286,3.244,3.835,7.017,4.46,10.935
				c0.33,2.065,0.313,4.246,0.324,6.335c0.006,1.137-0.065,2.269-0.054,3.403c0.007,0.771-0.114,1.533-0.158,2.298
				c-0.091,0.107-0.166,0.238-0.214,0.405c0.021-0.073-0.008-0.041-0.057,0.041c-1.584,0.504-3.089,1.425-4.643,2.018
				c-1.977,0.756-4.098,1.178-6.127,1.768c-4.332,1.258-8.762,2.157-13.138,3.234c-2.137,0.525-4.227,1.121-6.4,1.489
				c-2.274,0.386-4.572,0.61-6.868,0.813c-0.765,0.067-4.948,0.393-6.105,0.438c-0.929,0.037-0.748-0.271-0.686-1.113
				c0.015-0.197,0.018-0.392,0.014-0.582c0.985-0.201,1.956-0.485,2.871-0.732c2.748-0.744,5.57-2.019,7.518-4.14
				c5.484,0.657,10.609-4.184,13.595-8.221c3.098-4.183,5.506-10.505,4.093-15.725c-0.114-0.427-0.791-0.378-0.859,0.052
				c-0.391,2.442-0.543,4.869-1.194,7.271c-0.696,2.57-1.919,4.979-3.453,7.148c-0.283,0.398-0.582,0.789-0.89,1.175
				c-0.153-0.51-0.308-1.019-0.461-1.529c-0.305-1.012-0.774-1.786-1.408-2.63c-1.251-1.663-2.922-3.009-4.488-4.358
				c-1.386-1.193-2.894-2.39-4.487-3.296c-1.776-1.01-3.671-0.972-5.629-0.917c0.681-0.725,1.383-1.433,2.056-2.195
				c0.38-0.432-0.185-1.096-0.663-0.761c-0.434,0.304-0.943,0.488-1.388,0.796c-0.474,0.33-0.899,0.724-1.317,1.119
				c-0.837,0.794-1.529,1.648-2.188,2.592c-0.923,1.316-3.082,4.341-2.087,6.064c-0.28,0.276-0.549,0.585-0.764,0.913
				c-0.135,0.207-0.248,0.435-0.438,0.583c-0.026,0.006-0.051,0.012-0.079,0.021c-0.659,0.195-1.333,0.192-2.029,0.235
				c-1.781,0.111-3.562,0.235-5.342,0.357c-1.608,0.111-3.043-0.008-4.597-0.458c-0.548-0.159-1.093-0.419-1.596-0.719
				c0.053-0.131,0.066-0.281,0.04-0.425c-0.081-0.438-0.406-0.813-0.573-1.224c-0.241-0.594-0.377-1.22-0.544-1.837
				c-0.05-0.192-0.116-0.375-0.189-0.56c0,0,0,0,0.001-0.001c0.083,0.196,0.099,0.104,0.092-0.062
				c0.407-0.286,0.773-0.671,1.097-0.99c0.56-0.555,1.25-0.992,1.844-1.53c0.822-0.495,1.689-1.089,2.156-1.887
				c1.152-0.381,2.31-0.742,3.479-1.059c0.568-0.153,1.138-0.305,1.707-0.455c1.239,2.079,2.994,5.056,5.367,3.094
				c1.107-0.913,1.758-2.315,2.37-3.58c0.314-0.652,0.651-1.297,0.94-1.961c0.08-0.188,0.18-0.367,0.284-0.543
				c1.395-0.666,2.759-1.412,4.08-2.143c4.64-2.562,8.77-5.84,12.615-9.464c0.651-0.614,1.3-1.227,1.941-1.844
				C198.778,172.014,200.163,172.651,201.483,173.045z M171.048,187.76c1.547-0.415,3.087-0.849,4.606-1.367
				c0.162-0.056,0.323-0.117,0.484-0.177c-0.422,0.826-0.787,1.675-1.179,2.367c-0.303,0.534-0.667,1.055-1.171,1.418
				c-0.542,0.39-1.025-0.29-1.391-0.666C171.919,188.844,171.499,188.287,171.048,187.76z M205.973,153.845
				c-0.755,3.202-2.27,5.955-3.839,9.488c-0.438,0.572-0.885,1.136-1.332,1.7c-0.486,0.614-0.896,1.363-1.464,1.907
				c-0.481,0.462-1.003,0.87-1.465,1.356c-0.277,0.293-0.54,0.594-0.797,0.9c-2.473,2.305-5.26,4.483-8.277,6.099
				c-0.444,0.354-0.889,0.703-1.338,1.042c-4.195,3.171-8.98,5.982-13.992,7.621c-7.849,2.566-15.781,5.763-23.994,6.954
				c-7.738,1.107-15.431,0.618-22.699-2.296c-1.45-0.582-2.977-1.354-3.938-2.626c-1.123-1.491-0.157-4.21,0.198-5.839
				c0.41-1.872,1.061-3.716,1.187-5.64c0.125-1.878-0.511-3.721-0.29-5.592c1.756-0.206,3.482-0.8,4.969-1.651
				c1.768-1.011,3.217-2.604,4.653-4.021c1.844-1.818,3.883-3.432,5.743-5.238c3.887-3.774,7.581-7.346,12.249-10.187
				c4.514-2.747,9.52-4.627,14.092-7.268c1.08-0.623,2.196-1.181,3.434-1.414c1.06-0.201,2.125-0.17,3.181-0.415
				c2.329-0.539,4.783-0.611,7.152-0.876c4.56-0.512,9.22-1.757,12.349-5.339c0.53,2.052,1.55,3.937,3.318,4.599
				c2.264,0.847,4.733-1.113,5.486-3.357c0.006,0,0.014,0,0.021,0.001c0.065,0.109,0.155,0.216,0.286,0.321
				c0.137,0.109,0.343,0.082,0.488,0.015c0.232-0.108,0.409-0.278,0.549-0.479c0.015-0.005,0.032-0.008,0.047-0.013
				c0-0.018,0.002-0.037,0.002-0.055c0.256-0.41,0.356-0.938,0.368-1.4c0.022-0.943,0.048-1.904-0.043-2.849
				c0.087-0.637,0.196-1.269,0.339-1.889c-0.002-0.262,0.014-0.525,0.035-0.787c-0.008,0.011-0.019,0.021-0.026,0.032
				c-0.195-0.426-0.411-0.901-0.552-1.359c0.288-0.017,0.568-0.067,0.829-0.153c0.006-0.026,0.012-0.053,0.018-0.079
				c0.142-0.516,0.538-0.927,1.023-1.167c0.107-0.143,0.229-0.267,0.362-0.372c0.023-0.162,0.031-0.335,0.021-0.522
				c-0.049-0.918-0.106-1.834-0.16-2.751c-0.006-0.083-0.017-0.162-0.027-0.24c0.075,0.004,0.149,0.013,0.227,0.014
				c0.678,0.013,1.143-0.559,1.323-1.14c0.064-0.206,0.109-0.417,0.142-0.633c0.34-0.114,0.661-0.21,0.938-0.287
				c3.146-0.871,5.113,0.906,5.926,3.756c0.674,2.363,0.796,5.13,0.389,7.537c-0.572,3.386-2.471,6.74-3.716,9.946
				c-0.132,0.139-0.263,0.279-0.394,0.421c-0.479,0.518-1.106,0.903-1.574,1.41c-0.379,0.412-0.751,1.037-1.291,1.241
				c-0.188,0.07-0.319,0.168-0.408,0.28c-0.318,0.148-0.314,0.682-0.018,0.866c0.014,0.008,0.027,0.019,0.039,0.029
				c0.043,0.058,0.091,0.11,0.144,0.156c0.241,0.371,0.192,1.027,0.216,1.404c0.06,0.973,0.247,1.932,0.321,2.909
				C206.57,150.168,206.388,152.074,205.973,153.845z M246.611,125.487c-0.874,2.977-3.421,5.461-5.721,7.409
				c-2.606,2.208-5.292,4.332-7.906,6.53c-1.195,1.004-2.45,1.938-3.728,2.833c-1.381,0.967-2.529,2.243-3.854,3.288
				c-1.637,1.293-3.368,2.479-5.046,3.717c-1.748,1.291-3.457,2.627-5.262,3.837c-0.878,0.588-1.785,1.126-2.715,1.626
				c-1.011,0.544-1.813,1.316-2.71,2.035c-0.223,0.179-0.451,0.351-0.683,0.519c0.071-0.108,0.142-0.215,0.212-0.323
				c-0.286,0.319-0.579,0.631-0.878,0.94c-0.474,0.583-0.964,1.15-1.463,1.709c0.854-2.012,1.326-4.14,1.479-6.324
				c0.177-2.525,0.084-5.187-0.533-7.648c-0.134-0.539-0.246-1.404-0.535-2.088c0.256-0.136,0.494-0.318,0.719-0.512
				c0.593-0.514,1.221-1.014,1.79-1.557c1.326-1.269,2.34-2.421,2.796-4.22c0.005-0.019,0.005-0.038,0.009-0.056
				c2.372-2.026,3.215-6.222,3.497-8.998c0.019-0.19,0.034-0.383,0.047-0.577c3.87-4.104,7.422-8.485,11.93-11.957
				c1.142-0.881,2.37-1.665,3.689-2.255c1.517-0.679,3.036-0.847,4.68-0.891c3.234-0.087,6.647,1.439,8.592,4.087
				C246.918,119.199,247.516,122.414,246.611,125.487z"/>
			<path fill="#613B15" d="M165.808,169.667c0.751-0.499,0.154-1.762-0.708-1.43c-0.788,0.303-1.536,0.302-2.36,0.381
				c-1.498,0.145-3.445,0.135-2.596-2.03c0.942-2.401,0.815-4.742,0.394-7.239c-0.157-0.938-1.419-0.859-1.464,0.089
				c-0.11,2.295-0.28,4.455-1.217,6.581c-0.541,1.223-0.744,2.747,0.234,3.815C160.017,171.938,163.708,171.057,165.808,169.667z"/>
			<path fill="#613B15" d="M181.5,157.295c-0.962,2.817-2.462,5.47-3.738,8.155c-1.146,2.409-2.089,4.896-3.523,7.159
				c-1.554,2.451-3.921,4.282-6.845,4.593c-3.067,0.323-6.187-0.269-9.272-0.095c-0.793,0.045-0.713,1.239,0.074,1.225
				c3.54-0.069,6.935,1.377,10.501,1.031c2.93-0.283,5.355-2.186,7.14-4.403c1.858-2.305,2.922-5.061,4.135-7.724
				c1.432-3.144,2.728-6.141,3.202-9.586C183.325,156.536,181.851,156.27,181.5,157.295z"/>
			<path fill="#613B15" d="M174.998,148.976c0.258,0.444,0.575,0.836,0.884,1.243c0.023,0.027,0.045,0.059,0.068,0.089
				c0.041,0.122,0.079,0.25,0.126,0.4c0.193,0.619,0.519,1.114,0.947,1.592c0.969,1.081,2.741-0.014,2.656-1.294
				c-0.102-1.501-1.148-2.667-2-3.824C176.443,145.501,173.955,147.18,174.998,148.976z"/>
			<path fill="#613B15" d="M143.966,165.578c-0.805-1.513-3.222-0.554-3.084,1.04c0.104,1.188,0.539,2.324,0.812,3.478
				c0.183,0.772,0.794,1.11,1.441,1.118c0.365,0.2,0.8,0.258,1.265,0.099c1.106-0.377,1.303-1.543,0.838-2.48
				C144.716,167.783,144.521,166.624,143.966,165.578z"/>
			<path fill="#613B15" d="M170.059,147.946c0.696-0.423,1.25-0.975,1.796-1.576c0.619-0.684,1.349-1.209,1.96-1.889
				c1.273-1.417,2.924-2.949,3.528-4.793c0.117-0.362-0.336-0.764-0.681-0.603c-1.456,0.681-2.591,2.085-3.632,3.281
				c-0.633,0.725-1.333,1.35-2.012,2.028c-0.669,0.671-1.194,1.488-1.955,2.063C168.146,147.152,169.067,148.546,170.059,147.946z"
				/>
			<path fill="#613B15" d="M147.509,160.022c-2.85,1.35-6.237-0.37-9.219-0.213c-0.715,0.038-1.189,1.086-0.535,1.551
				c-0.1-0.052-0.115-0.015-0.043,0.114c0.132,0.554,0.927,0.598,1.235,0.207c3.075,0.52,6.529,1.825,9.172-0.426
				C148.663,160.791,148.28,159.657,147.509,160.022z"/>
			<path fill="#613B15" d="M205.943,138.382c0.349-0.986,0.107-2.302,0.195-3.341c0.101-1.167,0.221-2.422,0.486-3.56
				c0.188-0.806,0.328-1.624,0.515-2.431c0.103-0.437,0.318-1.837,0.827-2.021c0.55-0.199,0.765-1.146,0.04-1.292
				c-2.147-0.431-2.681,3.226-2.992,4.638c-0.306,1.394-0.483,2.784-0.698,4.201c-0.176,1.158-0.518,3.449,0.796,4.113
				C205.441,138.857,205.813,138.744,205.943,138.382z"/>
		</g>
	</g>
</g>
</svg>
