<?xml version="1.0" encoding="utf-8"?>
<!-- Generator: Adobe Illustrator 16.0.0, SVG Export Plug-In . SVG Version: 6.00 Build 0)  -->
<!DOCTYPE svg PUBLIC "-//W3C//DTD SVG 1.1//EN" "http://www.w3.org/Graphics/SVG/1.1/DTD/svg11.dtd">
<svg version="1.1" id="Layer_1" xmlns="http://www.w3.org/2000/svg" xmlns:xlink="http://www.w3.org/1999/xlink" x="0px" y="0px"
	 width="350px" height="350px" viewBox="0 0 350 350" enable-background="new 0 0 350 350" xml:space="preserve">
<g>
	<path fill="#CF9E76" d="M137.775,150.404c-7.299-6.156-10.232-14.589-15.198-23.892l-7.665,3.433c0,0,7.373,25.333,15.99,34.02
		c2.817,2.84,8.278,2.864,14.808,1.744L137.775,150.404z"/>
	<path fill="#CF9E76" d="M137.775,150.404c3.391-2.164,7.357-4.279,11.387-6.387c7.677-10.6,20.543-10.255,20.543-10.255
		s7.277,6.248-2.971,17.348c0,0-15.039,12.155-21.024,14.599L137.775,150.404z"/>
	<path fill="#CF9E76" d="M221.882,294.246c-4.971,2.412-8.757,0-8.757,0c0.338-1.854-0.459-5.634-1.742-9.942
		c-2.03-6.86-5.267-15.076-7.058-19.018c-1.926-4.259-3.52-17.324-5.303-26.286c-0.536-2.688-1.094-11.805-1.679-13.405
		c-0.401-1.114-0.818-1.883-1.263-2.193c-3.194-2.248-8.355-2.248-12.713,0c-1.396,0.72-2.482,10.811-3.243,15.231
		c-0.092,0.543-0.177,1.107-0.262,1.685c-1.354,9.357-1.374,22.516,0.112,27.86c1.065,3.821,0.825,9.78,0.247,15.118
		c-0.684,6.339-1.84,11.811-1.84,11.811c-4.357-0.317-8.25-1.975-8.25-1.975c1.347-1.402,1.001-6.071,0.028-11.415
		c-1.686-9.224-5.246-20.464-5.246-20.464c-0.966-7.933-1.636-14.991-2.102-21.118c-0.543-7.171-0.804-19.87-0.917-24.426
		c-0.071-2.99-0.084-5.401-0.071-7.214c0-0.197,0.007-0.38,0.007-0.563c0.021-2.292,0.084-3.47,0.084-3.47s1.128-9.223,21.831-9.223
		s31.421,9.815,31.421,9.815c0.092,0.43,0.176,0.916,0.246,1.445c0.028,0.226,0.057,0.458,0.085,0.698
		c0.388,3.525,0.423,8.808,0.381,14.681c-0.028,3.963-0.085,14.991-0.092,19.131c-0.014,8.997-0.473,17.854,1.622,22.034
		c2.39,4.774,3.504,13.355,4.019,20.315C221.882,289.416,221.882,294.246,221.882,294.246z"/>
	<path fill="#CF9E76" d="M203.472,120.414l-0.014,1.241l-0.007,0.444l-0.015,0.832l-0.105,8.447c-5.718,2.285-11.712,5-14.321,4.591
		c-3.307-0.522-2.419-4.591-2.419-4.591c0.438-0.472,0.805-1.079,1.122-1.77c0.303-0.67,0.557-1.417,0.761-2.186
		c0.127-0.473,0.233-0.952,0.325-1.432c0.557-2.849,0.606-5.578,0.606-5.578H203.472z"/>
	<path fill="#967456" d="M203.472,120.414l-0.014,1.241c-4.844,2.313-10.626,3.808-14.659,4.336
		c0.557-2.849,0.606-5.578,0.606-5.578H203.472z"/>
	<g>
		<path fill="#311908" d="M188.993,39.894c-0.644-0.018-1.276,1.727-2.185,1.939c-0.725,0.17-1.792-0.688-2.576-0.38
			c-0.731,0.288-0.877,1.722-1.576,2.123c-0.704,0.404-2.026-0.189-2.616,0.323c-0.626,0.545-1.894,0.782-2.295,1.441
			c-0.422,0.693-0.083,1.957-0.145,2.767c-0.065,0.866-0.235,1.611-0.607,2.375c-0.367,0.757-1.387,0.96-1.936,1.62
			c-0.549,0.659-1.12,1.138-1.732,1.704c-0.664,0.614-0.39,2.212-0.983,2.722c-0.793,0.682-2.292,0.568-2.645,1.075
			c-0.341,0.49,0.35,1.868,0.069,2.937c-0.203,0.769-1.746,1.372-1.898,2.287c-0.141,0.846,0.253,1.841,0.17,2.706
			c-0.088,0.908-0.744,1.826-0.753,2.639c-0.012,1.026,1.791,1.788,1.931,2.453c0.18,0.856-0.375,1.771-0.032,2.368
			c0.422,0.735,1.949,0.828,2.244,1.462c0.305,0.655-0.264,1.848-0.543,2.744c-0.195,0.624-1.386,1.736-1.079,2.751
			c0.218,0.721,1.155,1.476,1.683,2.275c0.432,0.655,1.82,0.597,2.488,1.244c0.572,0.554,0.843,1.478,1.605,1.989
			c0.667,0.447,1.483,0.687,2.307,1.077c0.729,0.345,1.381,0.984,2.241,1.268c0.771,0.254,1.794-0.393,2.676-0.2
			c0.78,0.17,1.615,0.334,2.503,0.519c0.8,0.166,1.445,1.271,2.315,1.444c0.813,0.162,1.609,0.563,2.47,0.726
			c0.824,0.156,1.777-0.29,2.632-0.136c0.832,0.15,1.544,1.054,2.394,1.198c0.839,0.142,1.632,0.652,2.479,0.785
			s1.688,0.384,2.531,0.506c0.854,0.124,1.729,0.165,2.568,0.272c0.861,0.11,1.851-0.896,2.685-0.806
			c0.873,0.095,1.737-0.007,2.565,0.061c0.885,0.074,1.734,0.011,2.552,0.05c0.904,0.043,1.738,0.458,2.54,0.453
			c0.935-0.006,1.702-0.822,2.466-0.903c1.009-0.107,1.897,0.467,2.539,0.207c0.833-0.338,2.074,0.095,2.915-0.318
			c0.832-0.41,1.155-1.826,1.949-2.269c0.839-0.468,1.761-0.728,2.505-1.188c0.867-0.538,1.513-1.253,2.176-1.712
			c1.209-0.837,2.397-1.098,2.54-1.332c0.1-0.165,1.377-1.008,1.651-2.447c0.143-0.75-1.049-1.883-0.902-2.852
			c0.124-0.817,1.482-1.547,1.59-2.463c0.1-0.851-2.009-1.951-1.938-2.844c0.068-0.875,1.462-1.667,1.489-2.543
			c0.028-0.898,0.18-1.81,0.149-2.667c-0.032-0.921-0.56-1.788-0.676-2.61c-0.135-0.951-1.318-1.447-1.592-2.188
			c-0.276-0.749,0.45-1.955,0.091-2.817c-0.32-0.767-0.342-1.723-0.721-2.543c-0.358-0.77-1.422-1.224-1.828-2.012
			c-0.396-0.766-0.98-1.417-1.418-2.173c-0.438-0.755,0.417-2.332-0.061-3.051c-0.489-0.736-0.885-1.637-1.412-2.308
			c-0.553-0.704-2.637-0.065-3.227-0.666c-0.637-0.646-0.41-2.217-1.085-2.705c-0.739-0.535-2.187,0.46-2.965,0.167
			c-0.769-0.29-0.845-2.514-1.644-2.801c-0.783-0.281-2.218,1.276-3.01,1.007c-0.801-0.271-1.592-0.486-2.38-0.734
			c-0.817-0.256-1.336-1.412-2.118-1.633c-0.84-0.237-1.468-1.23-2.242-1.415c-0.877-0.209-1.995,1.059-2.753,0.936
			c-0.955-0.155-1.719-2.124-2.41-2.105c-0.726,0.018-1.482,0.342-2.316,0.335c-0.762-0.007-1.563,0.855-2.363,0.834
			c-0.787-0.021-1.601,0.549-2.379,0.523c-0.812-0.028-1.609,0.005-2.359-0.023C190.449,41.328,189.695,39.913,188.993,39.894z"/>
		<path fill="#C2946E" d="M178.742,88.808c0,0-3.371-3.519-7.161,0.356c-4.097,4.188,1.102,16.549,6.874,15.337
			c0,0,1.259-0.276,1.716-1.774S178.742,88.808,178.742,88.808z"/>
		<path fill="#CF9E76" d="M220.206,96.837c-0.162,1.784-0.416,3.462-0.761,5.027c-3.941,18.065-19.243,21.873-30.525,21.252
			c-2.13-0.12-4.16-0.642-6.043-1.481c-7.925-3.547-10.223-11.352-10.071-20.829c0.168-10.474,0.721-21.613,0.721-21.613
			c0.226-25.962,23.854-33.169,38.337-25.596C225.819,60.903,221.539,82.099,220.206,96.837z"/>
		<path fill="#542514" d="M196.782,101.596c0,0-0.057,0.494-0.332,1.291c-0.141,0.416-0.331,0.91-0.613,1.459
			c-0.141,0.282-0.303,0.564-0.5,0.853c0,0-0.008,0.007-0.015,0.021c-0.063,0.092-0.134,0.191-0.205,0.289
			c-1.713,2.271-5.083,4.379-9.766,4.048c-1.776-0.134-3.188-0.465-4.301-1.05c-0.698-0.374-1.29-0.839-1.777-1.333
			c-0.924-0.938-1.494-2.031-1.847-3.046c0-0.007,0-0.007,0-0.007c-0.613-1.777-0.558-3.3-0.558-3.3s0.353-0.036,2.348,0.007
			C181.707,100.877,186.734,101.053,196.782,101.596z"/>
		<path fill="#B55C4A" d="M195.117,105.504c-1.715,2.273-5.081,4.378-9.768,4.048c-1.774-0.132-3.189-0.462-4.296-1.049
			c-0.704-0.374-1.292-0.836-1.783-1.334c1.804-1.071,4.298-2.024,7.627-2.317C190.22,104.558,192.977,104.932,195.117,105.504z"/>
		<path fill="#FFFFFF" d="M196.783,101.599c0,0-0.059,0.492-0.329,1.291c-8.001,0.829-16.896-0.088-16.896-0.088l-0.337-1.973
			C181.707,100.88,186.737,101.056,196.783,101.599z"/>
		<path fill="#311908" d="M180.727,79.002c-0.625-0.456-1.802-0.451-2.914-0.606c-0.782-0.109-1.716-0.025-2.792,0.158
			c-0.807,0.136-1.324-0.033-2.315,0.326c-0.873-0.789-0.501-0.99,0.457-1.949c0.472-0.473,1.27-1.186,2.142-1.492
			c0.889-0.312,1.934-0.582,2.699-0.595c0.954-0.017,1.829,0.88,2.511,1.195c0.895,0.414,2.151,0.857,2.452,1.526
			C184.345,80.629,182.025,79.949,180.727,79.002z"/>
		<path fill="#311908" d="M193.656,79.068c0.646-0.47,1.875-0.493,3.033-0.674c0.817-0.128,1.794-0.065,2.922,0.092
			c0.845,0.118,1.382-0.063,2.424,0.271c0.898-0.81,0.508-1.002-0.508-1.939c-0.501-0.462-1.346-1.156-2.262-1.442
			c-0.935-0.291-2.03-0.536-2.828-0.531c-0.998,0.005-1.897,0.923-2.604,1.254c-0.929,0.435-2.234,0.908-2.539,1.583
			C189.901,80.781,192.315,80.046,193.656,79.068z"/>
		<g>
			<path fill="#FFF8F0" d="M182.634,86.844c0,0-0.489-3.525-3.175-3.66c-2.684-0.135-4.018,3.427-4.018,3.427
				s0.774,0.898,3.167,1.232C181.001,88.178,182.634,86.844,182.634,86.844z"/>
			<g>
				<path fill="#8C4923" d="M181.855,85.617c0.059,1.132-0.816,2.078-1.954,2.113c-1.138,0.036-2.108-0.854-2.167-1.986
					c-0.058-1.132,0.816-2.078,1.954-2.113S181.797,84.485,181.855,85.617z"/>
				<path fill="#26160D" d="M180.834,85.648c0.03,0.571-0.411,1.048-0.985,1.066s-1.064-0.431-1.094-1.002
					c-0.029-0.571,0.413-1.048,0.986-1.066C180.315,84.628,180.805,85.078,180.834,85.648z"/>
				<path fill="#FFF8F0" d="M179.841,84.857c0.022,0.454-0.325,0.833-0.776,0.846c-0.45,0.013-0.834-0.345-0.856-0.799
					s0.324-0.833,0.775-0.845C179.434,84.046,179.818,84.403,179.841,84.857z"/>
				<path fill="#FFF8F0" d="M181.142,86.569c0.016,0.314-0.224,0.577-0.535,0.585c-0.313,0.009-0.577-0.238-0.593-0.553
					s0.225-0.577,0.535-0.585C180.861,86.007,181.127,86.255,181.142,86.569z"/>
			</g>
			<g>
				<path fill="#402516" d="M182.634,86.844c0,0-0.054-0.146-0.146-0.402c-0.092-0.254-0.253-0.612-0.471-1.024
					c-0.225-0.408-0.521-0.878-0.961-1.28c-0.212-0.207-0.482-0.373-0.77-0.503c-0.144-0.067-0.306-0.101-0.461-0.147
					c-0.159-0.009-0.347-0.061-0.48-0.042c-0.197,0.003-0.403,0.005-0.53,0.048c-0.146,0.018-0.3,0.074-0.455,0.133
					c-0.158,0.047-0.289,0.144-0.438,0.208c-0.136,0.083-0.267,0.171-0.394,0.26c-0.24,0.192-0.465,0.389-0.659,0.592
					c-0.191,0.204-0.363,0.404-0.516,0.594c-0.299,0.382-0.534,0.714-0.679,0.954c-0.149,0.24-0.234,0.377-0.234,0.377
					s0.106-0.61,0.573-1.466c0.238-0.424,0.572-0.912,1.091-1.364c0.269-0.217,0.569-0.441,0.955-0.594
					c0.344-0.161,0.911-0.265,1.256-0.255c0.261-0.016,0.454,0.045,0.682,0.068c0.207,0.06,0.425,0.115,0.608,0.204
					c0.183,0.091,0.367,0.181,0.507,0.301c0.158,0.108,0.284,0.229,0.402,0.353c0.471,0.493,0.71,1.019,0.862,1.466
					C182.667,86.229,182.634,86.844,182.634,86.844z"/>
			</g>
		</g>
		<g>
			<path fill="#FFF8F0" d="M194.148,87.068c0,0,0.49-3.309,3.175-3.436c2.686-0.127,4.019,3.217,4.019,3.217
				s-0.774,0.843-3.167,1.157C195.781,88.319,194.148,87.068,194.148,87.068z"/>
			<g>
				<path fill="#8C4923" d="M194.771,85.851c-0.061,1.101,0.78,2.019,1.875,2.049c1.097,0.031,2.034-0.836,2.093-1.938
					c0.061-1.1-0.78-2.018-1.876-2.049C195.767,83.882,194.83,84.75,194.771,85.851z"/>
				<path fill="#26160D" d="M195.754,85.878c-0.029,0.555,0.394,1.018,0.946,1.034c0.554,0.016,1.026-0.422,1.057-0.978
					c0.029-0.555-0.395-1.018-0.947-1.034C196.257,84.886,195.783,85.323,195.754,85.878z"/>
				<path fill="#FFF8F0" d="M196.707,85.251c-0.02,0.36,0.317,0.663,0.751,0.675c0.435,0.012,0.803-0.27,0.822-0.63
					c0.02-0.361-0.316-0.663-0.752-0.675C197.095,84.608,196.728,84.891,196.707,85.251z"/>
				<path fill="#FFF8F0" d="M195.46,86.671c-0.015,0.25,0.218,0.458,0.518,0.467c0.301,0.008,0.556-0.187,0.569-0.436
					c0.013-0.249-0.22-0.458-0.52-0.466C195.728,86.227,195.473,86.422,195.46,86.671z"/>
			</g>
			<g>
				<path fill="#402516" d="M194.148,87.068c0,0,0.054-0.137,0.147-0.377c0.091-0.239,0.253-0.574,0.471-0.961
					c0.225-0.383,0.52-0.824,0.961-1.202c0.212-0.194,0.482-0.35,0.77-0.473c0.143-0.063,0.307-0.095,0.46-0.138
					c0.159-0.008,0.347-0.057,0.479-0.04c0.199,0.003,0.404,0.004,0.531,0.045c0.146,0.017,0.302,0.069,0.455,0.125
					c0.157,0.045,0.289,0.135,0.438,0.195c0.136,0.078,0.267,0.161,0.394,0.245c0.24,0.18,0.466,0.365,0.659,0.555
					c0.191,0.192,0.363,0.38,0.517,0.558c0.299,0.358,0.533,0.67,0.679,0.895c0.148,0.226,0.233,0.354,0.233,0.354
					s-0.105-0.573-0.572-1.376c-0.238-0.398-0.572-0.856-1.091-1.28c-0.27-0.205-0.57-0.415-0.956-0.558
					c-0.344-0.152-0.911-0.249-1.256-0.24c-0.26-0.015-0.454,0.043-0.682,0.064c-0.206,0.057-0.424,0.107-0.607,0.192
					c-0.184,0.085-0.367,0.169-0.508,0.282c-0.158,0.102-0.285,0.216-0.401,0.331c-0.471,0.463-0.711,0.957-0.863,1.377
					C194.115,86.49,194.148,87.068,194.148,87.068z"/>
			</g>
		</g>
		<path fill="#B38866" d="M179.795,92.915c0,0,0.871-2.045,2.632-1.886c1.032-1.035,1.976-2.491,1.973-4.358
			c-0.007-4.537-1.19-6.683-1.19-6.683s1.615,6.159-1.199,10.583C180.013,90.928,179.842,91.957,179.795,92.915z"/>
		<path fill="#B38866" d="M185.519,96.562c0,0-6.542,1.483-5.75-3.512C179.769,93.05,179.344,97.01,185.519,96.562z"/>
		<path fill="#C2946E" d="M226.311,88.236c-0.402-0.409-0.797-0.733-1.178-0.987c-1.114-0.748-2.165-0.91-3.053-0.804
			c-1.749,0.205-2.927,1.432-2.927,1.432s-1.89,12.417-1.432,13.919c0.459,1.495,1.714,1.777,1.714,1.777
			c4.852,1.011,3.029-3.661,5.674-5.719C228.282,95.384,228.567,90.543,226.311,88.236z"/>
		<path fill="#B38866" d="M182.635,87.19c0,0-2.122,3.271-6.462,1.223C176.173,88.413,179.844,89.846,182.635,87.19z"/>
		<path fill="#B38866" d="M193.943,87.594c0,0,2.123,3.271,6.464,1.222C200.407,88.816,196.735,90.249,193.943,87.594z"/>
		<path fill="#B38866" d="M209.71,93.35c0,0-1.059,1.411-2.997,3.614s-2.493,5.393-2.493,5.393s2.229-2.969,3.704-4.159
			C209.401,97.008,209.71,93.35,209.71,93.35z"/>
		<path fill="#B38866" d="M220.33,96.881c0-0.639,0.399-1.352,1.457-1.675s1.587-0.235,1.939-2.292c0,0,1.82,1.698,0.059,3.787
			c-1.763,2.089-1.881,0.62-2.645,1.002S220.33,97.521,220.33,96.881z"/>
		<path fill="#B38866" d="M210.674,71.021c0,0-0.343,4.778,0.274,6.144c0.616,1.366,0.793,2.822,0.793,2.822
			s0.559-1.926,0.088-4.071C211.359,73.772,210.674,71.021,210.674,71.021z"/>
		<path fill="#B38866" d="M184.443,96.482c0,0,0.661-0.647,2.174,0.14c1.512,0.788,3.157-0.292,2.541-1.843
			c-0.687-1.729-1.684-1.858-1.684-1.858s2.525,3.044-0.164,3.15C185.716,96.134,185.183,95.696,184.443,96.482z"/>
		<path fill="#B38866" d="M182.61,96.661c0,0-1.071-0.54-2.596-0.198c-1.524,0.343-2.229-1.361-0.938-2.918
			c0,0-0.479,2.6,0.687,2.419C181.919,95.63,182.61,96.661,182.61,96.661z"/>
		<path fill="#B38866" d="M181.656,96.514c0,0-0.015,1.056-0.368,3.479c0,0,1.08-1.74,1.058-3.437L181.656,96.514z"/>
		<path fill="#B38866" d="M183.66,96.591c0,0-0.006,0.979-0.315,3.402c0,0,0.94-1.663,0.921-3.36L183.66,96.591z"/>
		<path fill="#B38866" d="M184.594,94.364c0,0,0.567-1.232,1.714-1.496c0,0-0.816,0.074-1.13,0.268
			C184.517,93.545,184.594,94.364,184.594,94.364z"/>
		<path fill="#B38866" d="M195.322,105.22c-0.24,0.431-2.551,8.801-12.312,6.791c-7.159-1.475-5.584-7.616-5.584-7.884
			c0.353,1.016,0.923,2.108,1.847,3.046c0.487,0.494,1.079,0.959,1.777,1.333c1.113,0.585,2.524,0.916,4.301,1.05
			c4.683,0.332,8.053-1.777,9.766-4.048C195.188,105.411,195.259,105.313,195.322,105.22z"/>
		<path fill="#A1734F" d="M219.607,89.955c0.23,3.396,0.681,6.01-0.162,11.91c-3.941,18.065-19.243,21.873-30.525,21.252
			c-2.13-0.12-4.16-0.642-6.043-1.481c1.354,0.12,2.835,0.205,4.449,0.261c24.06,0.797,22.209-17.081,27.029-26.513
			c0.714-1.395,3.294-4.239,3.294-4.239L219.607,89.955z"/>
		<path fill="#B38866" d="M181.288,81.939c0,0-4.42-0.588-6.109,4.078C175.179,86.017,175.441,80.646,181.288,81.939z"/>
		<path fill="#B38866" d="M196.003,82.379c1.347,0.147,4.345-0.843,6.11,3.818C202.113,86.198,201.851,81.087,196.003,82.379z"/>
		<path fill="#311908" d="M198.774,44.901c-0.555-0.011-1.916,0.391-3.345,0.61c-1.047,0.161-2.286,0.157-3.308,0.4
			c-1.431,0.341-2.164,1.787-2.552,2.206c-0.468,0.504-6.753,3.534-7.474,4.529c-2.084,2.878-0.352,8.882,0.78,9.666
			c7.008,4.848,17.63,0.101,18.529,0.176c0.922,0.078,4.948,1.012,5.819,1.175c0.862,0.162,4.042,0.725,5.333,4.774
			c0.969,3.041,3.169,2.304,4.187,4.848c0.528,1.322,3.585,3.393,2.807,7.521c-0.18,0.955-0.371,1.898-0.717,2.815
			c-0.638,1.7-1.059,3.158-1.222,4.234c-0.165,1.075-1.245,2.277,0.042,2.954c0.938,0.493,1.787,0.476,2.533-0.277
			c1.34-1.351,0.692-3.051,1.078-3.914c0.706-0.294,1.97-0.76,2.651-1.803c0.48-0.735,0.091-2.084,0.507-3.109
			c0.35-0.861,0.769-1.729,1.044-2.751c0.249-0.921,0.861-1.802,1.029-2.823c0.157-0.956,0.495-1.942,0.567-2.961
			c0.069-0.976-0.283-1.995-0.307-3.007c-0.023-0.984-0.146-1.967-0.268-2.967c-0.121-0.981,0.562-2.151,0.333-3.129
			c-0.225-0.964-1.459-1.671-1.801-2.615c-0.337-0.93-1.283-1.528-1.743-2.421c-0.452-0.876,0.101-2.336-0.48-3.162
			c-0.564-0.802-1.178-1.659-1.873-2.398c-0.668-0.709-1.839-0.932-2.637-1.571c-0.755-0.606-1.852-0.658-2.731-1.189
			c-0.825-0.498-1.644-0.869-2.583-1.292c-0.877-0.395-1.384-1.75-2.365-2.072c-0.913-0.3-1.979-0.199-2.986-0.431
			c-0.937-0.215-1.765-1.346-2.787-1.496c-0.951-0.141-2.008-0.118-3.037-0.199C200.837,45.147,199.806,44.921,198.774,44.901z"/>
	</g>
	<path fill="#523981" d="M216.915,257.874c-14.575,5.31-26.21,0.444-26.21,0.444l-0.437-2.94l-1.806-14.845
		c-0.396,1.911-0.444,10.952-0.438,14.803c0.007,1.826,0.028,3.102,0.028,3.102c-15.23,2.469-24.453-2.115-24.453-2.115
		c-4.054-25.265-1.777-51.511-1.777-51.511l1.107,0.007l47.97,0.219l4.266,0.021C217.839,214.268,216.915,257.874,216.915,257.874z"
		/>
	<path fill="#CF9E76" d="M226.702,136.012c-0.007,1.594-0.042,3.103-0.113,4.548c-0.55,12.057-3.188,19.454-7.911,33.515
		c-0.558,1.657-1.044,3.286-1.468,4.851c-3.18,11.727-2.933,20.591-2.933,20.591c-11.578,4.907-19.963,4.181-28.269,4.117
		l-5.909-0.268c-11.599-0.966-17.458-2.687-17.458-2.687c-0.783-13.87-0.691-25.194-0.148-34.319
		c-0.141-0.253-0.268-0.515-0.381-0.797c-3.371-8.426,4.041-26.703,5.817-30.849c0.021-0.057,0.042-0.106,0.063-0.155
		c0.049-0.113,0.092-0.211,0.127-0.296c0.028-0.063,0.049-0.113,0.071-0.162c0.014-0.021,0.021-0.036,0.028-0.057
		c0.021-0.057,0.042-0.099,0.057-0.134c0.014-0.028,0.021-0.042,0.021-0.042c4.555-1.375,11.719-3.631,20.18-6.445
		c4.922-0.388,9.583-0.783,14.998-0.324c5.796,1.219,12.537,3.596,18.291,6.332C223.521,134.263,225.186,135.131,226.702,136.012z"
		/>
	<path fill="#F8CA4D" d="M215.165,205.059c-35.059,5.887-53.342-0.247-53.342-0.247c-0.211-1.227-0.226-2.623-0.176-3.772
		c0.049-1.333,0.176-2.327,0.176-2.327c31.871,4.23,53.392,0.649,53.392,0.649c0.028,0.401,0.049,0.789,0.057,1.156
		C215.392,203.409,215.165,205.059,215.165,205.059z"/>
	<path fill="#AD8463" d="M226.589,140.561c-0.55,12.057-3.188,19.454-7.911,33.515c-0.558,1.657-1.044,3.286-1.468,4.851
		c0.086-0.79,0.198-1.628,0.325-2.503c1.89-12.981,2.87-25.822,3.35-32.076C220.666,142.852,223.366,141.52,226.589,140.561z"/>
	<path fill="#DEB031" d="M215.271,200.518c-29.171,5.683-47.476,2.157-53.625,0.521c0.049-1.333,0.176-2.327,0.176-2.327
		c31.871,4.23,53.392,0.649,53.392,0.649C215.243,199.763,215.264,200.15,215.271,200.518z"/>
	<path fill="#523981" d="M217.028,194.093c1.467,5.515-2.751,5.423-2.751,5.423s-1.22,0.198-3.3,0.486
		c-9.78,1.375-38.542,4.795-48.414-0.74c0,0-1.805,0.092-1.114-5.732c0.684-5.817-0.98-24.934-0.304-26.887
		c0,0,3.999-24.729,13.158-35.961l8.991-2.468c0,0-12.765,22.148,2.229,21.859c13.725-0.265,22.808-22.738,22.808-22.738
		l8.581,2.991c0,0-4.862,21.27-2.028,32.905c0.966,3.977,2.849,6.769,6.149,7.101C221.033,170.331,215.562,188.579,217.028,194.093z
		"/>
	<g>
		<path fill="#F8CA4D" d="M161.562,165.3l-0.481,1.635c0.165-1.017,4.05-25.004,13.224-36.254l0.963-0.265
			C166.33,141.376,161.601,165.055,161.562,165.3z"/>
	</g>
	<path fill="#F8CA4D" d="M188.025,255.336c0.007,1.826,0.028,3.102,0.028,3.102c-15.23,2.469-24.453-2.115-24.453-2.115
		c-4.054-25.265-1.777-51.511-1.777-51.511l1.107,0.007c-0.43,6.219-0.733,23.954,1.199,34.37
		C166.513,251.993,174.707,254.927,188.025,255.336z"/>
	<path fill="#F8CA4D" d="M216.915,257.874c-14.575,5.31-26.21,0.444-26.21,0.444l-0.437-2.94c2.418,0.028,4.999-0.015,7.734-0.077
		c15.584-0.374,14.047-38.418,12.897-50.264l4.266,0.021C217.839,214.268,216.915,257.874,216.915,257.874z"/>
	<path fill="#F8CA4D" d="M217.028,194.093c1.467,5.515-2.751,5.423-2.751,5.423s-1.22,0.198-3.3,0.486
		c0.347-1.686,0.558-4.026,0.113-6.86c-0.776-4.937,2.588-23.523,3.793-29.912c0.966,3.977,2.849,6.769,6.149,7.101
		C221.033,170.331,215.562,188.579,217.028,194.093z"/>
	<g>
		<path fill="#F8CA4D" d="M220.832,171.018c-3.339-0.335-5.483-2.89-6.633-7.622c-2.842-11.662,1.799-32.445,1.999-33.32
			l1.401,0.406c-0.049,0.211-4.793,21.243-2.03,32.581c0.993,4.088,3.116,6.354,5.795,6.623L220.832,171.018z"/>
	</g>
	<g>
		<path fill="#F8CA4D" d="M185.236,150.78c-3.241,0-5.498-1.041-6.712-3.095c-3.636-6.156,3.576-18.68,3.897-19.235l0.873-0.237
			c-0.075,0.129-6.776,13.305-3.556,18.756c0.974,1.646,2.905,2.449,5.77,2.398c13.108-0.252,22.08-22.077,22.169-22.297
			l1.308,0.528c-0.378,0.936-9.419,22.909-23.449,23.18C185.436,150.779,185.335,150.78,185.236,150.78z"/>
	</g>
	<path fill="#CF9E76" d="M228.813,199.167c0,0-3.652,2.856-6.612,3.067c-2.961,0.211-2.757,2.077-3.832,2.422
		c-1.077,0.346-1.706,2.699-1.361,3.775s0.294,1.295,0.429,2.356c0.136,1.062,1.993,2.182,2.646,2.718
		c0.675,0.557,1.892,1.462,2.909,1.955c1.017,0.492,2.001,0.856,3.194,1.236c1.193,0.379,3.662-1.214,4.597-3.715
		s4.118-8.251,4.118-8.251L228.813,199.167z"/>
	<path fill="#CF9E76" d="M254.336,176.596c2.019-6.499-10.487-22.421-14.69-26.825c-4.348-10.929-12.945-13.761-12.945-13.761
		s-16.376,2.427-6.765,20.643c0,0,14.837,7.071,19.649,17.669c-2.013,9.334-7.03,18.07-12.917,26.819l6.628,5.16
		C233.296,206.302,250.707,188.28,254.336,176.596z"/>
	<path fill="#967456" d="M183.075,135.073c0,0,4.748-0.22,5.768,0.925c1.02,1.146,2.298,0.749,3.399,0.044s6.391-0.986,6.391-0.986
		s-4.717,0.625-6.038,1.797c-1.321,1.173-2.776,1.525-3.967,0.335C187.438,135.998,183.075,135.073,183.075,135.073z"/>
	<path fill="#F5E5C0" d="M180.223,283.296c-0.684,6.339-1.84,11.811-1.84,11.811c-4.357-0.317-8.25-1.975-8.25-1.975
		c1.347-1.402,1.001-6.071,0.028-11.415C174.914,282.302,178.355,282.922,180.223,283.296z"/>
	<g>
		<path fill="#F8CA4D" d="M152.315,303.179v2.403c0,0-0.177,2.997,12.957,1.146c13.133-1.851,13.382-1.499,14.932-2.557
			l-0.157-3.009C180.046,301.162,165.624,298.483,152.315,303.179z"/>
		<path fill="#523981" d="M180.047,301.164c-0.613,0.465-2.306,0.93-4.731,1.396c-0.007,0-0.007,0.007-0.014,0.007
			c-3.272,0.627-7.876,1.269-12.988,1.89c-0.163,0.021-0.317,0.035-0.473,0.057c-0.014,0-0.021,0-0.021,0
			c-8.455,0.938-9.505-1.333-9.505-1.333c-2.292-7.468,5.923-9.484,9.604-9.175c0.748,0.063,1.432,0.028,2.045-0.084
			c0.888-0.148,1.65-0.451,2.292-0.812c1.981-1.121,2.834-2.862,2.834-2.862s8.905,0.578,10.104,3.23
			C180.399,296.121,180.047,301.164,180.047,301.164z"/>
		<path fill="#F8CA4D" d="M169.091,290.245c0,0-0.271-1.128,0.346-2.582c1.645-0.853,7.109,0.884,10.57,2.468
			c0.382,2.042-0.42,2.747-0.81,3.346C175.76,291.259,169.091,290.245,169.091,290.245z"/>
		<path fill="#F8CA4D" d="M175.316,302.561c-0.007,0-0.007,0.007-0.014,0.007c-3.236,1.304-12.925,1.911-13.461,1.946
			c-0.014,0-0.021,0-0.021,0c3.511-3.237,2.144-10.592,2.144-10.592c0.888-0.148,1.65-0.451,2.292-0.812h0.007
			C170.155,293.414,175.316,302.561,175.316,302.561z"/>
	</g>
	<path fill="#F5E5C0" d="M221.882,294.246c-4.971,2.412-8.757,0-8.757,0c0.338-1.854-0.459-5.634-1.742-9.942
		c2.524-0.395,6.205-0.853,10.048-0.944C221.882,289.416,221.882,294.246,221.882,294.246z"/>
	<g>
		<path fill="#F8CA4D" d="M208.636,305.248c0,0-0.523,1.747,0.132,2.805s7.148,4.26,15.221,0.419c0,0,0.607-1.389,0.047-2.857
			L208.636,305.248z"/>
		<path fill="#523981" d="M224.562,302.073c-0.014,0.19-0.021,0.289-0.021,0.289l-0.119,0.79l-0.388,2.461
			c-4.584,4.583-14.667,2.383-15.4-0.367c-0.6-2.242,1.22-4.104,2.426-5.472c0.275-0.31,0.515-0.592,0.69-0.854
			c0.262-0.387,0.466-0.874,0.614-1.409c0.592-2.066,0.451-4.795,0.451-4.795s5.768-2.214,9.66-0.197
			C224.795,295.678,224.639,300.811,224.562,302.073z"/>
		<path fill="#F8CA4D" d="M212.83,293.355c0,0-0.646-1.328-0.521-2.898c1.271-1.31,8.131-1.884,10.28-0.774
			c0.318,1.204,0.459,2.741,0.281,3.428C218.978,292.046,212.83,293.355,212.83,293.355z"/>
		<path fill="#F8CA4D" d="M224.562,302.073c-0.014,0.19-0.021,0.289-0.021,0.289l-0.119,0.79c-4.16-6.185-10.203-4.738-13.362-3.378
			c0.275-0.31,0.515-0.592,0.69-0.854c0.262-0.387,0.466-0.874,0.614-1.409c1.275-0.607,2.989-1.009,5.26-0.86
			C222.453,296.968,224.04,300.063,224.562,302.073z"/>
	</g>
	<path fill="#523981" d="M238.468,171.828c1.822-1.6,7.128-5.595,13.915-4.837c0.312,0.035,0.585,0.221,0.735,0.496
		c0.773,1.407,2.983,6.004,1.513,10.221c-1.101,3.154-2.11,5.026-2.713,5.988c-0.286,0.458-0.896,0.574-1.336,0.261
		c-1.767-1.259-6.4-4.232-11.623-4.904c-0.7-0.091-1.159-0.782-0.927-1.448c0.427-1.224,0.834-3.066,0.14-4.515
		C237.982,172.692,238.137,172.118,238.468,171.828z"/>
	<g>
		<path fill="#CF9E76" d="M127.353,125.118c-2.355,5.913-7.154,7.477-11.516,5.769c-1.718-0.675-2.979-5.166-3.023-7.998
			c-0.425-2.595-1.072-4.466-0.04-5.375c1.671-1.452,2.082-1.453,3.5-1.864c0.885-0.615,2.071-0.678,3.12-0.798
			c0.729-0.288,2.329-1.121,3.146-0.929c0.075-0.013,0.151-0.034,0.235-0.059c0,0-0.337-6.229-0.419-7.291
			c-0.073-1.066-0.859-3.485,1.091-3.647c1.957-0.162,2.163,2.309,2.163,2.309s0.985,8.603,0.97,8.723
			c0.017,0.471,0.188,0.634,0.423,0.91c0.83,1.307,3.09,2.314,3.408,4.282C130.981,122.669,128.048,123.369,127.353,125.118z"/>
		<g>
			<path fill="#B38866" d="M126.516,121.469c0,0-1.941,0.676-3.021-1.2C123.495,120.27,124.463,120.951,126.516,121.469z"/>
			<path fill="#B38866" d="M119.957,122.882c-0.49,0.38-1.741-0.219-1.741-0.219s1.107,0.252,1.624-0.223
				c0.518-0.483,0.967-3.436,0.967-3.436l0.009-0.005c0.012-0.264,0.01-0.466-0.025-0.538c-0.229-0.458-0.861-1.952-0.861-1.952
				l1.489,1.945C121.419,118.454,120.885,122.16,119.957,122.882z"/>
			<path fill="#B38866" d="M123.11,121.508c-0.641,0.276-1.512-0.071-1.512-0.071s0.424,0.038,1.234-0.117
				c0.707-0.141,0.958-2.559,1.015-3.21c0.004-0.057,0.005-0.093,0.01-0.12c-0.003-0.159-0.007-0.275-0.033-0.324
				c-0.222-0.457-0.861-1.951-0.861-1.951l1.496,1.946C124.458,117.661,123.75,121.237,123.11,121.508z"/>
			<path fill="#B38866" d="M114.539,120.079c0,0,0.191,0.378,0.119,0.723c-0.072,0.345-0.3,0.792-0.3,0.792s0.487-0.821,1.368-0.84
				c0,0-0.699-0.104-0.75-0.181C114.924,120.497,114.539,120.079,114.539,120.079z"/>
			<path fill="#B38866" d="M127.567,116.908c0,0-2.661,0.71-3.839,2.608C123.728,119.516,125.913,118.366,127.567,116.908z"/>
			<path fill="#B38866" d="M116.447,117.8c0,0,0.64,1.491,0.864,1.949c0.116,0.235-0.113,1.381-0.84,3.683
				c-0.683,0.038-1.305,0.009-1.305,0.009s1.202,0.375,1.681,0.182c0.881-2.731,1.095-3.879,1.095-3.879L116.447,117.8z"/>
		</g>
	</g>
	<g>
		<path fill="#B64926" d="M147.324,89.049c-0.798,1.364-1.69,2.639-2.671,3.813c-0.275,0.33-0.551,0.649-0.831,0.96
			c-3.211,3.521-7.201,6.098-11.538,7.605c-0.426,0.143-0.853,0.286-1.284,0.409c-5.675,1.673-11.865,1.573-17.661-0.557
			l-0.006-0.004c-0.315-0.119-0.636-0.241-0.949-0.375c-1.216-0.491-2.401-1.077-3.563-1.757c-6.44-3.766-10.83-9.698-12.786-16.339
			c-0.092-0.291-0.176-0.593-0.257-0.902c-1.798-6.941-0.959-14.578,2.952-21.268c0.409-0.7,0.842-1.37,1.302-2.016
			c0.279-0.409,0.577-0.807,0.883-1.191c4.862-6.191,11.969-9.894,19.461-10.609c0.538-0.053,1.08-0.087,1.622-0.105
			c5.17-0.195,10.45,1.029,15.24,3.831c3.013,1.762,5.584,4,7.653,6.566c0.308,0.368,0.593,0.747,0.875,1.131
			c4.094,5.613,5.976,12.578,5.264,19.48c-0.027,0.27-0.058,0.546-0.099,0.825C150.458,82.151,149.274,85.713,147.324,89.049z"/>
		<path fill="#A64323" d="M149.815,66.213c1.336,6.551,0.361,13.598-3.279,19.823c-7.847,13.419-25.086,17.937-38.505,10.09
			c-6.226-3.64-10.531-9.303-12.58-15.667c1.544,7.569,6.176,14.476,13.37,18.682c13.419,7.847,30.658,3.329,38.505-10.09
			C151.532,81.857,152.181,73.566,149.815,66.213z"/>
		<path fill="#632815" d="M144.653,92.862c-0.275,0.33-0.551,0.649-0.831,0.96c-0.268-0.059-0.515-0.154-0.746-0.289
			c-0.054-0.032-0.103-0.061-0.154-0.099c-1.561-1.06-1.811-3.665-1.819-3.678l-0.086-4.085l-0.005-0.256l-0.24,0.089l-0.117,0.046
			c-1.892,0.707-4.112,1.361-6.586,1.932l-0.074,0.014l-0.145,0.038l0.003,0.149l0.004,0.076c0.283,7.688-0.846,11.659-0.859,11.709
			c-0.177,0.778-0.417,1.439-0.713,1.96c-0.426,0.143-0.853,0.286-1.284,0.409c1.527-3.436,1.585-9.234,1.354-13.658l-0.006-0.101
			l-0.014-0.213l-0.206,0.044l-0.099,0.016c-3.088,0.628-5.904,1.016-7.722,1.235l-0.086,0.007l-0.169,0.024l0.007,0.168
			l0.007,0.086c0.073,1.3,0.062,2.38,0.044,3.138s-0.059,1.191-0.053,1.194c-0.268,1.183-0.566,2.03-0.983,2.741
			c-0.954,1.632-2.627,2.72-6.169,4.014c-1.421,0.517-2.604,0.724-3.566,0.75l-0.006-0.004c-0.315-0.119-0.636-0.241-0.949-0.375
			c1.359-0.145,3.07-0.655,5.613-1.791c1.651-0.742,2.872-1.768,3.615-3.04c0.915-1.564,0.893-3.105,0.885-3.845l-0.007-0.143
			c0.003-0.341-0.057-1.161-0.159-2.438l-0.007-0.086l-0.017-0.181l-0.178,0.011l-0.086,0.007
			c-14.321,0.856-22.674-3.914-22.763-3.958l-0.262-0.153c-1.382-0.808-2.333-1.667-2.985-2.48
			c-0.092-0.291-0.176-0.593-0.257-0.902c0.729,0.736,1.635,1.422,2.731,2.063c1.437,0.84,3.237,1.615,5.342,2.291
			c6.28,2.014,17.284,1.872,17.397,1.874c0.193-0.01,0.416-0.026,0.673-0.048l0.092-0.003l0.181-0.017l-0.013-0.187l-0.007-0.086
			c-0.061-0.706-0.125-1.364-0.173-1.841c-0.044-0.483-0.072-0.786-0.072-0.786c-0.267-4.559-4.333-8.235-4.381-8.279
			c-0.775-0.658-5.604-4.887-5.652-4.931c-8.539-7.272-11.112-11.366-11.864-13.333c0.279-0.409,0.577-0.807,0.883-1.191
			c1.502,3.076,6.208,8.13,14.033,15.075l0.065,0.055c0.203,0.184,0.364,0.327,0.493,0.443c0.382,0.338,0.839,0.703,1.329,1.079
			c2.266,1.783,5.38,4.224,6.415,9.118c0.295,1.422,0.527,2.897,0.672,4.396l0.007,0.086l0.019,0.191l0.185-0.022l0.089-0.013
			c3.295-0.41,7.608-1.123,7.787-1.148l0.083-0.017l0.163-0.028l-0.012-0.162l-0.001-0.082c-0.313-4.145-0.838-7.368-0.842-7.403
			c-2.67-16.093-6.016-24.355-8.348-28.455c-1.012-1.776-1.927-2.949-2.676-3.721c0.538-0.053,1.08-0.087,1.622-0.105
			c4.698,3.882,9.161,19.284,11.018,32.075c0.363,2.466,0.612,4.891,0.751,7.194l0.006,0.102l0.017,0.222l0.212-0.056l0.103-0.021
			c2.419-0.603,6.71-2.088,6.752-2.104l0.138-0.042l-0.019-0.149c-0.008-0.07-0.753-7.457,1.167-12.249
			c2.183-5.438,2.868-10.338,2.871-10.386c0.211-1.576,0.123-2.975-0.124-4.189c0.308,0.368,0.593,0.747,0.875,1.131
			c0.42,1.88,0.178,3.299,0.173,3.336c-0.18,3.129-2.599,10.046-2.619,10.108c-1.229,3.177-1.368,6.307-1.37,6.338
			c-0.046,0.749,0.054,3.274,0.144,5.271l0.008,0.127l0.008,0.266l0.25-0.107l0.114-0.056c4.451-1.996,7.046-4.073,8.556-5.804
			c-0.027,0.27-0.058,0.546-0.099,0.825c-2.208,2.939-6.247,5.152-8.595,6.263l-0.055,0.025l-0.114,0.056l0.011,0.121l0.006,0.102
			c-0.284,3.754,0.441,5.992,0.449,6.021l0.014,0.033l0.009,0.013c0.367,0.615,0.83,1.082,1.377,1.402
			C144.24,92.703,144.449,92.792,144.653,92.862z"/>
		<path fill="#A64323" d="M117.832,77.959c0,0,2.726,3.023,3.091,5.585c0.365,2.562,0.391,3.828,0.391,3.828
			s-4.611-0.016-6.48-0.267c0,0,3.916-0.125,4.656-2.025C120.58,82.275,117.832,77.959,117.832,77.959z"/>
	</g>
	<path fill="#AD8463" d="M226.723,152.744c0,0,6.734,0.976,11.315-1.078C238.038,151.666,231.292,156.392,226.723,152.744z"/>
	<path fill="#AD8463" d="M150.547,145.983c0,0,4.595,2.511,8.133,2.472C158.68,148.455,153.212,149.607,150.547,145.983z"/>
	<g>
		<path fill="#EBEBEB" d="M183.778,183.317h2.628l-0.17,2.908h-8.537l0.105-2.908h2.878l0.797-18.219l-2.614,1.414l-0.924-2.612
			l4.685-2.683h2.294L183.778,183.317z"/>
	</g>
</g>
</svg>
