<?xml version="1.0" encoding="utf-8"?>
<!-- Generator: Adobe Illustrator 16.0.0, SVG Export Plug-In . SVG Version: 6.00 Build 0)  -->
<!DOCTYPE svg PUBLIC "-//W3C//DTD SVG 1.1//EN" "http://www.w3.org/Graphics/SVG/1.1/DTD/svg11.dtd">
<svg version="1.1" id="Layer_1" xmlns="http://www.w3.org/2000/svg" xmlns:xlink="http://www.w3.org/1999/xlink" x="0px" y="0px"
	 width="350px" height="350px" viewBox="0 0 350 350" enable-background="new 0 0 350 350" xml:space="preserve">
<path fill="#1E1E1C" d="M256.904,261.972c-0.267-1.599-1.143-10.204-1.219-12.031s-0.686-6.244-1.409-6.473
	c-0.723-0.229-2.931,0.381-3.083,0.457s-0.419,0.457-0.419,0.457s-0.343-0.457-0.951-0.419c-0.61,0.038-7.234,1.675-8.072,1.979
	s-1.408,0.38-1.408,0.38s-0.571-1.446-1.79-1.599c-1.218-0.151-3.35-0.38-4.492-1.104s-4.873-2.894-6.93-3.617
	c-2.056-0.724-2.475,0.153-2.475,0.153s-6.613-3.585-9.746-5.445c-3.655-2.17-5.559-3.96-8.833-6.472
	c-3.274-2.513-7.386-2.399-10.774-3.008c-3.389-0.609-9.073-2.289-9.595-2.589c-1.256-0.724-9.251-15.001-10.47-15.991
	c0,0,0.114-1.713-0.533-2.665c-0.646-0.952-2.208-1.827-2.512-2.816c-0.305-0.99-1.409-4.265-1.98-5.598
	c-0.571-1.332-2.589-7.576-2.779-7.995c-0.19-0.419,0.418-0.799,0.267-2.018c-0.153-1.219-1.409-3.616-1.447-4.379
	c-0.038-0.761-0.494-4.873-1.522-7.234c-1.028-2.36-4.341-3.313-4.95-5.14c-0.609-1.828-3.464-5.178-4.15-5.292
	c-0.639-0.107-2.829-0.478-3.032-0.496c0.18-0.001,1.932-0.904,2.119-2.283c0.19-1.409-0.952-4.227-0.495-8.414
	c0.457-4.188,1.104-6.701,0.8-10.013c-0.305-3.313,0.342-9.176,1.409-13.706c1.066-4.531,2.17-9.785,2.284-10.813
	c0.115-1.028-0.533-1.409-0.495-3.389c0.038-1.979-1.523-4.264-3.351-5.977c-1.827-1.713-5.634-3.883-6.129-4.683
	c-0.495-0.8-1.561-1.752-2.056-2.018s-2.094-1.599-2.475-1.828c-0.38-0.229-1.104-0.304-1.104-0.304s-0.19-1.637,0.038-2.196
	c0.229-0.558,1.578-2.991,2.031-3.426c1.32-1.269,3.756-5.077,4.086-7.082c0.145-0.877-1.282-7.703-2.614-9.455
	c-1.016-1.334-3.625-3.308-6.746-4.526c0.9-5.047,1.716-9.446,1.874-9.979c0.38-1.294,1.142-5.939,1.522-6.549
	c0.381-0.609,2.132-3.122,2.284-3.655c0.152-0.533,0.229-1.751-0.38-2.437s0.38-3.351,0.914-4.949
	c0.58-1.74,1.751-5.254,1.903-7.005c0.152-1.751-0.457-5.635-0.837-5.787c-0.307-0.123-0.614-0.294-1.081,0.242
	c-2.108-5.684-7.579-9.735-13.996-9.735c-8.242,0-14.924,6.682-14.924,14.925c0,8.242,6.682,14.924,14.924,14.924
	c0.59,0,1.172-0.038,1.744-0.104c0.156,1.165,0.538,3.442,0.769,3.962c0.305,0.686,0.152,1.828-0.304,3.198
	c-0.417,1.251-3.561,9.984-4.512,12.542c-1.545,0.4-2.662,0.862-2.913,1.013c-0.571,0.343-2.678,3.046-3.008,3.249
	s-1.675,1.649-1.7,1.979c-0.026,0.331,0.173,1.619,0.05,1.878c-0.203,0.431-1.13,1.101-2.056,1.853
	c-1.218,0.99-2.233,1.143-2.31,1.93c-0.076,0.787,0.457,1.371,0.66,1.548c0.203,0.178,0.734,0.411,0.292,0.889
	c-0.476,0.514-1.32,1.104-1.523,1.104s-0.507,0.552-0.381,1.009c0.127,0.457,1.079,0.628,1.383,1.034s0.977,2.05,1.041,2.462
	c0.039,0.259-1.319,1.334-1.568,2.329c-0.267,1.066-0.158,2.087,0.095,2.265c0.254,0.178,1.377-1.117,1.656-0.99
	s0.832,0.863,0.832,1.269s-0.812,1.853-0.66,2.881c0.152,1.028,0.305,1.98,1.713,2.437c1.409,0.457,4.569,0.267,4.836,0.724
	c0.266,0.457,0.234,1.249,0.114,1.827c-0.191,0.914,0.875,2.513,0.875,2.513s-3.008,1.866-3.807,2.703
	c-0.8,0.838-1.219,1.713-1.104,2.208s0.267,0.533-0.076,1.104c-0.343,0.571-3.769,5.673-5.025,8.338
	c-1.256,2.666-0.837,5.711-0.8,8.452c0.038,2.742-0.076,5.254-0.304,5.901c0,0-4.417,14.011-5.026,16.143
	c-0.609,2.132-5.482,10-7.208,15.686c0,0-0.66-0.152-1.066,0.965c-0.406,1.116-1.32,4.568-1.625,5.533
	c-0.304,0.965-0.914,1.98-0.914,2.336s0.254,0.965,0.254,0.965s-2.5,8.243-2.792,8.934c-0.559,1.319-1.929,2.691-1.979,4.366
	c-0.051,1.675-1.066,5.635-1.421,7.259c-0.355,1.625-0.965,4.365-0.863,4.671c0.102,0.304,0.711,2.689,0.711,3.554
	c0,0.862-0.609,4.263-0.813,5.481s-0.687,3.426-0.406,3.706c0.609,0.608,1.878,0.051,2.132-0.457s1.269-3.757,1.269-3.757
	s-0.254,2.792,0.051,2.944c0.304,0.153,1.726-0.102,1.929-1.116c0.203-1.016,0.458-4.315,0.458-5.127
	c0-0.813-0.203-2.995-0.153-3.503c0.051-0.508,0.355-0.458,0.71,0.051c0.355,0.508,2.132,2.741,2.437,3.655
	c0.305,0.913,0.66,2.284,0.964,2.284c0.305,0,1.117-0.457,0.914-2.132c-0.203-1.676-1.32-4.062-1.676-4.62
	c-0.355-0.559-1.624-2.233-1.624-2.487s0.457-2.895,0.863-3.351c0.406-0.456,0.812,0.914,1.269,1.473
	c0.457,0.558,2.334,1.015,3.147,0.406c0.812-0.61,0.102-1.219-0.457-1.574c-0.558-0.355-1.624-3.046-1.777-3.959
	c-0.152-0.914-0.406-1.523-0.964-2.387c-0.559-0.863,5.583-8.173,6.701-9.441c0,0,2.03-0.152,2.894-1.574
	c0.863-1.421,2.313-4.148,2.792-4.822c1.117-1.574,1.625-2.945,1.117-3.452c0,0,3.147-6.396,3.553-8.072c0,0,1.473,3.198,1.777,3.96
	c0.305,0.761,0.711,3.452,1.878,3.807c0,0-0.711,1.421,0.051,2.64c0.761,1.22,1.472,4.519,1.472,4.519s-1.117,0.659-1.422,2.69
	c-0.304,2.03-2.183,4.315-1.472,6.346c0.71,2.03,2.741,10.102,2.386,12.184c-0.355,2.08-1.472,3.502-1.32,6.548
	s0.152,5.686-0.457,7.665c-0.609,1.979,0.355,4.467-0.152,5.787c-0.507,1.319-0.968,2.551-0.812,2.792
	c0.559,0.862,3.858,2.233,3.858,2.233s1.218,6.041,2.335,10.407c1.117,4.365,2.995,10.051,2.995,11.219
	c0,1.167-0.406,4.618,0.559,6.396c0.965,1.776,4.365,3.808,4.365,3.808s-0.05,1.269,1.32,2.437s3.147,2.233,5.229,4.264
	s11.016,11.016,11.523,11.371c0.508,0.355,1.32,0.254,1.32,0.254s10.407,8.173,11.269,8.833c0,0-0.406,0.863,0.915,2.335
	c1.319,1.473,4.873,4.163,5.888,5.229c1.015,1.066,3.706,3.453,4.162,4.062c0.457,0.609,0.914,1.168-0.151,0.761
	c-1.066-0.405-2.691-1.269-3.046-0.913c-0.355,0.355-0.406,1.472,0.102,2.183c0.508,0.711,3.249,2.284,4.366,2.792
	c1.116,0.508,2.589,1.879,3.654,2.589c1.067,0.711,1.98,1.066,2.438,1.93c0.456,0.862,3.198,5.837,3.553,6.192
	c0.356,0.355,2.132,4.569,2.387,5.838c0.253,1.27,0.913,6.65,2.183,7.563c1.269,0.914,1.776,0.762,1.776,0.762
	s0.444,0.381,0.825,0.457c0.38,0.076,2.437,0,2.627-0.495s2.894-8.87,3.046-13.287s-0.762-9.595-0.381-11.879
	s1.675-8.071,1.446-9.595c-0.229-1.522-1.065-4.529-2.018-5.178c-0.952-0.646-3.16-0.418-3.16-0.418l-0.419,0.305
	c0,0-0.267-0.419-1.37-0.533c-1.104-0.114-8.3-0.039-9.062,0.229c-0.762,0.266-0.646-1.562-1.637-2.208
	c-0.99-0.647-1.562-0.343-1.713-0.571c-0.153-0.229-1.028-1.027-1.485-1.181c-0.457-0.152-1.066-2.284-1.79-2.437
	c-0.723-0.152-1.865-1.257-2.778-2.056c-0.914-0.8-2.513-1.751-3.274-1.028c0,0-7.653-9.48-8.833-11.421
	c0,0,0.533-1.791-0.838-2.895c-1.371-1.104-5.52-4.76-7.081-6.738c-1.561-1.979-5.863-7.196-6.435-7.615
	c-0.571-0.418-1.599-0.533-1.599-0.533s-0.99-1.751-1.066-2.359c-0.076-0.609,0.457-9.9,0.838-11.575
	c0.38-1.675,1.142-5.292,1.142-5.292s2.742-0.646,3.236-1.37c0.495-0.724-0.533-2.322-0.229-3.884
	c0.305-1.561,2.247-7.538,2.247-7.538s0.609,0.8,0.875,0.762c0,0,9.328,9.708,10.165,10.508c0.838,0.8,7.006,5.635,7.653,6.054
	c0.647,0.419,1.333,2.779,3.237,3.313c1.903,0.533,9.822,2.132,12.944,3.084c3.122,0.951,19.722,6.243,21.396,6.814
	c1.676,0.571,9.48,3.313,9.48,3.313s-0.038,0.761,0.419,1.104c0.457,0.343,6.967,4.568,7.69,5.14c0.723,0.57,1.37,0.913,1.37,0.913
	s-1.027,2.208-0.457,3.009c0.571,0.799,3.617,1.293,5.217,1.979c1.599,0.686,2.094,1.676,3.236,2.094
	c1.142,0.418,2.778,0.686,3.007,1.028c0.229,0.342,2.133,3.007,3.16,4.302c1.028,1.295,2.703,3.236,3.351,3.578
	c0.647,0.344,1.865,3.58,2.475,5.331s1.941,3.426,2.628,3.579c0.685,0.151,0.685,0.151,0.685,0.151s0.381,0.571,0.952,0.571
	s1.652-0.284,1.789-0.799c0.152-0.571,0.914-6.511,1.066-9.062S257.171,263.57,256.904,261.972z"/>
</svg>
