<?xml version="1.0" encoding="utf-8"?>
<!-- Generator: Adobe Illustrator 16.0.0, SVG Export Plug-In . SVG Version: 6.00 Build 0)  -->
<!DOCTYPE svg PUBLIC "-//W3C//DTD SVG 1.1//EN" "http://www.w3.org/Graphics/SVG/1.1/DTD/svg11.dtd">
<svg version="1.1" id="Layer_1" xmlns="http://www.w3.org/2000/svg" xmlns:xlink="http://www.w3.org/1999/xlink" x="0px" y="0px"
	 width="350px" height="350px" viewBox="0 0 350 350" enable-background="new 0 0 350 350" xml:space="preserve">
<path fill="#1E1E1C" d="M136.447,300.953c-0.206,3.23-0.481,7.217,0.412,9.621c0.894,2.406,6.391,8.11,8.247,8.729
	c1.855,0.619,4.811-0.206,6.254-3.299c1.443-3.092,0.756-10.239,0.756-10.239s1.718,2.474,3.024,3.023
	c1.079,0.454,3.367,0.412,5.154-1.443c1.787-1.856,4.192-7.835,5.498-10.721c1.027-2.271,1.375-6.598,1.924-7.903
	s2.612-3.299,2.886-3.917c0.275-0.619-0.687-1.444-0.687-1.444s0.413-0.894,1.443-1.854c1.031-0.963,4.811-4.399,5.566-5.154
	c0.755-0.756,0.687-1.993,0.687-1.993s6.392-5.43,9.003-8.385c2.612-2.955,7.698-13.332,8.179-14.226s0.894-4.468,1.306-5.704
	c0.412-1.237,0.688-5.018,0.618-6.46c-0.069-1.444,0.825-4.604,0.825-6.255c0-1.648,0.206-12.095,0.206-12.095
	s1.581-0.756,1.718-2.749c0.138-1.993-2.749-11.89-3.779-15.188c-1.031-3.299-0.825-11.477-0.688-14.363s-0.069-5.292-1.581-8.935
	c-1.512-3.642-0.893-4.673-1.099-7.147c-0.207-2.474-2.269-3.092-2.543-3.574c-0.275-0.48,0.068-5.017,0.068-5.017
	s0.962-0.206,1.1-0.962c0.138-0.756-1.1-11.546-0.756-15.395c0.344-3.848,0.549-9.484,0.344-12.714
	c-0.206-3.229,1.099-4.054,1.168-4.811c0.069-0.755-1.306-3.23-1.306-3.23s0.962-5.223,1.168-7.147c0.207-1.925,0-7.835,0-9.553
	c0-1.718,7.147-4.192,9.897-5.773c2.748-1.581,7.284-7.56,9.758-10.446s4.536-5.635,3.506-9.69
	c-1.032-4.054-3.644-5.429-6.255-9.553c-2.611-4.123-10.721-12.576-12.851-14.294c-2.131-1.718-2.131-2.543-1.925-4.124
	c0.141-1.076-0.388-1.482-0.739-1.633c1.213-2.183,1.907-4.695,1.907-7.37c0-7.652-5.66-13.979-13.021-15.031
	c0.017-0.478-0.529-0.999-0.758-0.999c-0.162,0-0.65,0.489-0.99,0.853c-0.14-0.004-0.278-0.011-0.419-0.011
	c-0.998,0-1.974,0.099-2.919,0.283c0.087-0.328,0.167-0.631,0.205-0.765c0.104-0.36-0.36-1.391-0.928-1.391
	c-0.567,0-2.199,1.529-2.336,1.735c-0.138,0.207-0.893,0-1.168-0.068c-0.275-0.069-3.092,1.168-3.78,1.718
	c-0.687,0.55-1.1,1.993-1.924,2.611c-0.825,0.619-1.855,1.443-2.474,3.505c-0.554,1.845,0.209,4.074-0.46,6
	c-0.728-0.006-1.994,0.022-2.598,0.271c-0.876,0.361-2.031,1.35-1.855,1.701c0.294,0.589,1.477,0.245,2.79,0.254
	c-3.461,3.413-11.896,10.124-11.896,10.124c-0.756,0.206-2.337,2.611-3.23,3.848c-0.894,1.237-2.887,3.23-3.368,4.88
	c-0.481,1.649-1.512,8.384-1.581,9.003s0.412,1.443,0.412,1.443s-1.855,3.986-2.062,5.979c-0.206,1.993,0.55,5.91-0.412,8.66
	c-0.962,2.749-1.649,8.59-1.512,10.79s2.199,6.116,2.542,7.147c0.344,1.031,0.138,5.979,0,8.522c-0.137,2.543,1.1,6.941,1.1,6.941
	s-0.688,0.55-0.619,2.062s2.611,7.766,2.817,11.958c0.207,4.192,1.1,5.773,1.924,9.759c0.825,3.986-0.206,9.69,0,11.202
	c0.206,1.512,1.718,2.13,1.718,2.13s-0.344,2.886-0.275,4.123c0.069,1.237-2.062,2.956-2.062,2.956s-1.924-0.137-2.131,1.718
	c-0.206,1.855-0.412,6.666,0,10.583c0.413,3.918-2.13,14.707-2.199,17.594c-0.069,2.886-0.344,9.141,0.137,11.134
	s-0.275,4.948-0.137,6.734c0.137,1.787,4.742,3.644,4.742,3.644s1.443,6.939,2.062,9.277c0.618,2.336,1.031,11.545,1.031,12.302
	c0,0.756-2.611,4.604-4.055,7.422s-2.543,7.491-2.818,10.583c-0.275,3.094-0.687,9.828-1.237,10.034
	c-0.549,0.207-1.58,3.024-1.374,4.261c0.206,1.237-0.619,6.461-0.619,6.461s-0.688,0.205-1.718,1.374s-2.405,5.154-2.405,8.453
	S136.653,297.724,136.447,300.953z M182.354,95.192c-3.23,1.134-5.944,5.188-5.944,5.188c-1.099-0.55-3.848,0.962-4.33,0.997
	c-0.481,0.034-0.755-0.825-0.755-0.825s2.921-0.138,3.78-1.1c0.781-0.875,0.893-2.973,0.927-4.209
	c0.034-1.237,0.446-4.965,0.516-6.718c0.068-1.752-0.447-2.405-0.653-3.127c-0.206-0.722,0.412-2.405,0.206-3.058
	c-0.206-0.653-1.133-3.093-2.542-4.845c-1.408-1.752-5.515-4.467-10.154-2.973c-4.639,1.495-7.731,5.928-7.731,5.928
	c-0.051-0.378-0.121-1.1-0.121-1.1s0.516-0.378,0.688-0.79c0.172-0.413,0.584-4.708,0.962-6.426
	c0.378-1.718,3.059-4.261,4.261-5.257c1.203-0.997,0.756-2.131,0.756-2.131s1.203-2.543,2.371-4.433
	c0.535-0.866,1.654-2.467,2.71-3.948c2.754,3.865,7.269,6.388,12.374,6.388c1.021,0,2.019-0.103,2.983-0.294
	c1.066,0.653,5.064,1.669,5.951,1.771c0.894,0.104,1.821,1.684,2.475,2.577c0.652,0.894,4.157,8.625,5.429,11.409
	s3.849,5.017,3.814,6.013c-0.034,0.997-0.034,1.89-0.034,1.89s-1.855,0.137-4.776,1.443c-2.921,1.306-6.494,6.15-6.873,6.357
	C188.265,94.127,185.585,94.059,182.354,95.192z M149.986,281.437c0.207-1.65,1.581-6.118,1.512-7.147
	c-0.069-1.032-0.413-0.963-0.413-0.963s3.299-7.697,5.017-10.652c1.718-2.955,4.467-6.322,4.604-9.415
	c0.137-3.093,3.093-5.636,3.367-7.903c0.275-2.269,2.749-5.91,2.955-10.446c0.207-4.535,1.031-4.88,1.1-7.766
	c0.069-2.887,0.413-5.086,0.413-5.086s1.924-1.237,2.062-1.993c0.138-0.756-0.034,3.162-0.034,3.162s0,1.958,1.237,2.062
	c1.237,0.104,2.165,1.236,2.165,1.236s1.752,10.104,2.577,11.753c0.823,1.648,2.164,4.227,2.37,5.051s0.825,3.607,0.206,4.021
	c-0.618,0.411-4.022,3.308-4.466,7.354c-0.619,5.635-3.986,11.202-3.986,11.202s-0.688-0.206-1.031,0.343
	c-0.344,0.55-2.474,2.887-3.505,3.506c0,0-2.13-0.756-3.986-0.962c-1.856-0.207-5.705,0.206-6.667,1.923
	c-0.962,1.719-1.581,3.918-1.375,7.354c0.206,3.437,1.031,7.078,0.412,9.071s-2.955,4.124-3.23,5.498c0,0,0.688-4.055,0.481-6.46
	c-0.206-2.406-1.512-1.855-1.512-1.855S149.78,283.085,149.986,281.437z"/>
</svg>
