<?xml version="1.0" encoding="utf-8"?>
<!-- Generator: Adobe Illustrator 16.0.0, SVG Export Plug-In . SVG Version: 6.00 Build 0)  -->
<!DOCTYPE svg PUBLIC "-//W3C//DTD SVG 1.1//EN" "http://www.w3.org/Graphics/SVG/1.1/DTD/svg11.dtd">
<svg version="1.1" id="Layer_1" xmlns="http://www.w3.org/2000/svg" xmlns:xlink="http://www.w3.org/1999/xlink" x="0px" y="0px"
	 width="350px" height="350px" viewBox="0 0 350 350" enable-background="new 0 0 350 350" xml:space="preserve">
<g>
	
		<linearGradient id="SVGID_1_" gradientUnits="userSpaceOnUse" x1="378.9932" y1="-274.249" x2="370.2974" y2="-51.0591" gradientTransform="matrix(0.9223 0.3865 -0.3865 0.9223 -216.8438 144.6563)">
		<stop  offset="0.3666" style="stop-color:#F9A11B"/>
		<stop  offset="0.626" style="stop-color:#E3751F"/>
		<stop  offset="0.8371" style="stop-color:#D45722"/>
		<stop  offset="0.957" style="stop-color:#CF4C23"/>
	</linearGradient>
	<circle fill="url(#SVGID_1_)" cx="175" cy="175" r="97.819"/>
	
		<linearGradient id="SVGID_2_" gradientUnits="userSpaceOnUse" x1="366.2998" y1="-192.27" x2="382.2421" y2="-31.3986" gradientTransform="matrix(0.9223 0.3865 -0.3865 0.9223 -216.8438 144.6563)">
		<stop  offset="0.6779" style="stop-color:#F9A11B;stop-opacity:0"/>
		<stop  offset="0.8005" style="stop-color:#E3751F;stop-opacity:0.4394"/>
		<stop  offset="0.9003" style="stop-color:#D45722;stop-opacity:0.7969"/>
		<stop  offset="0.957" style="stop-color:#CF4C23"/>
	</linearGradient>
	<path fill="url(#SVGID_2_)" d="M84.783,137.192c-20.881,49.825,2.583,107.143,52.408,128.025
		c49.825,20.881,107.144-2.584,128.025-52.409c5.861-13.986,8.227-28.563,7.497-42.757c-11.636,38.505-34.83,75.083-78.207,79.819
		c-41.146,4.491-90.022-21.054-102.716-61.977c-6.086-19.621-5.334-40.233,1.815-59.444c2.446-6.571,5.464-12.886,8.817-19.037
		C95.206,117.397,89.179,126.702,84.783,137.192z"/>
	<path fill="#57290E" d="M181.055,180.77c27.821,11.448,56.119,22.204,85.568,28.432c0.713-1.91,1.386-3.825,1.974-5.751
		c-29.425-6.136-57.616-16.933-85.42-28.34c4.686-10.947,9.275-21.935,13.757-32.968c12.446,3.507,25.436,4.85,38.358,4.274
		c9.908-0.442,21.49-1.925,30.959-6.58c-0.719-1.864-1.482-3.709-2.313-5.526c-8.883,4.487-20.187,5.551-29.442,6.12
		c-11.849,0.729-23.83-0.805-35.283-3.952c6.566-16.312,12.906-32.715,19.026-49.203c-1.776-0.874-3.579-1.716-5.432-2.492
		c-0.022-0.009-0.045-0.017-0.068-0.027c-6.214,16.748-12.656,33.409-19.331,49.974c-0.378-0.123-0.757-0.242-1.133-0.369
		c-13.254-4.47-25.456-11.582-36.144-20.562c-8.839-7.426-17.379-16.862-21.539-27.862c-1.836,0.833-3.651,1.709-5.434,2.654
		c4.223,10.643,12.065,19.667,20.467,27.501c11.488,10.711,25.569,18.603,40.314,23.836c0.401,0.142,0.805,0.272,1.206,0.41
		c-4.417,10.866-8.938,21.688-13.554,32.472c-30.604-12.607-61.15-25.357-91.716-38.054c-0.366,0.811-0.747,1.609-1.093,2.435
		c-0.437,1.042-0.826,2.093-1.225,3.143c30.544,12.687,61.071,25.417,91.649,38.021c-4.824,11.175-9.751,22.304-14.785,33.386
		c-24.503-9.273-52.002-9.951-77.185-2.918c0.699,1.894,1.46,3.762,2.273,5.608c23.8-6.524,49.111-5.494,72.343,2.928
		c-7.239,15.798-14.692,31.497-22.356,47.097c0.567,0.25,1.12,0.52,1.694,0.761c1.295,0.543,2.597,1.037,3.901,1.52
		c7.675-15.625,15.141-31.351,22.39-47.174c0.424,0.18,0.851,0.352,1.273,0.536c20.897,9.079,38.533,24.792,50.814,43.893
		c1.837-0.837,3.649-1.725,5.433-2.673c-12.641-19.783-30.689-35.781-52.143-45.983c-0.943-0.449-1.893-0.883-2.848-1.304
		c5.032-11.077,9.957-22.202,14.779-33.371C180.878,180.696,180.967,180.733,181.055,180.77z"/>
</g>
</svg>
