<?xml version="1.0" encoding="utf-8"?>
<!-- Generator: Adobe Illustrator 16.0.0, SVG Export Plug-In . SVG Version: 6.00 Build 0)  -->
<!DOCTYPE svg PUBLIC "-//W3C//DTD SVG 1.1//EN" "http://www.w3.org/Graphics/SVG/1.1/DTD/svg11.dtd">
<svg version="1.1" id="Layer_1" xmlns="http://www.w3.org/2000/svg" xmlns:xlink="http://www.w3.org/1999/xlink" x="0px" y="0px"
	 width="350px" height="350px" viewBox="0 0 350 350" enable-background="new 0 0 350 350" xml:space="preserve">
<g>
	<circle fill="#34383C" cx="147.363" cy="98.471" r="18.131"/>
	<circle fill="#34383C" cx="142.508" cy="69.344" r="18.131"/>
	<circle fill="#34383C" cx="150.275" cy="44.101" r="18.131"/>
	<circle fill="#34383C" cx="173.577" cy="37.304" r="18.131"/>
	<circle fill="#34383C" cx="198.821" cy="37.304" r="18.13"/>
	<circle fill="#34383C" cx="219.209" cy="48.955" r="18.13"/>
	<circle fill="#34383C" cx="226.977" cy="75.17" r="18.131"/>
	<circle fill="#34383C" cx="218.239" cy="97.501" r="18.131"/>
	<path fill="#34383C" d="M136,80.448C136,99.533,152.791,115,172.058,115h23.878C215.201,115,231,99.533,231,80.448V62.47
		C231,43.385,215.201,28,195.936,28h-23.878C152.791,28,136,43.385,136,62.47V80.448z"/>
	<path fill="#EEEBE4" d="M192.688,314c0,0-3.289,4-3.289,17h40.505c0,0-1.014-17-18.228-17C194.459,314,192.688,314,192.688,314z"/>
	<path fill="#FFD9C4" d="M192,314.788c0,0,2.602,4.924,9.296,4.924c6.691,0,8.704-4.924,8.704-4.924V264h-18V314.788z"/>
	<path fill="#EEEBE4" d="M176.056,314c0,0,3.292,4,3.292,17h-40.506c0,0,1.014-17,18.229-17C174.285,314,176.056,314,176.056,314z"
		/>
	<path fill="#FFD9C4" d="M175,314.788c0,0-3.104,4.924-9.792,4.924c-6.696,0-9.208-4.924-9.208-4.924V264h19V314.788z"/>
	<path fill="#EE3E38" d="M192.5,294.825v19.876c0,0,2.34,4.924,9.034,4.924c6.691,0,8.442-4.924,8.442-4.924v-19.876H192.5z"/>
	<path fill="#EE3E38" d="M157.547,294.825v19.876c0,0,2.236,4.924,8.932,4.924c6.688,0,9.516-4.924,9.516-4.924v-19.876H157.547z"/>
	<path fill="#FFD9C4" d="M229.638,241.998l17.437-3.161c-1.615-12.917-4.104-37.921-10.388-58.765
		c-3.297-10.939-15.638-36.928-29.666-35.835l0.043,19.481c-0.971,0-0.905-0.159-1.014-0.22c0.054,0.031,5.516,3.306,12.018,26.918
		C223.203,209.055,228.267,231.036,229.638,241.998z"/>
	<g>
		<path fill="#FFD9C4" d="M222.721,64.973v52.71c0,6.448-5.228,11.675-11.675,11.675h-53.462c-6.448,0-11.675-5.228-11.675-11.675
			V65.043L222.721,64.973z"/>
		<g>
			<path fill="#FFD9C4" d="M229,93.453c0-3.563-2.889-6.453-6.453-6.453h-0.094c-3.564,0-6.453,2.889-6.453,6.453v4.095
				c0,3.563,2.889,6.453,6.453,6.453h0.094c3.564,0,6.453-2.889,6.453-6.453V93.453z"/>
			<path fill="#FFD9C4" d="M150,93.453c0-3.563-2.889-6.453-6.452-6.453h-0.096c-3.563,0-6.452,2.889-6.452,6.453v4.095
				c0,3.563,2.889,6.453,6.452,6.453h0.096c3.563,0,6.452-2.889,6.452-6.453V93.453z"/>
		</g>
		<g>
			<circle fill="#34383C" cx="201.548" cy="88.511" r="3.01"/>
			<circle fill="#34383C" cx="167.081" cy="88.511" r="3.009"/>
		</g>
		<path fill="none" stroke="#FF7F46" stroke-width="1.9418" stroke-linecap="round" stroke-miterlimit="10" d="M176.928,109.027
			c0,4.08,3.308,7.386,7.388,7.386c4.078,0,7.385-3.306,7.385-7.386"/>
		<circle opacity="0.3" fill="#FF7F46" cx="201.548" cy="98.633" r="5.472"/>
		<circle opacity="0.3" fill="#FF7F46" cx="166.26" cy="98.633" r="5.471"/>
		<polygon fill="#FFD9C4" points="169,170.134 183.956,181.992 198,170.134 198,119 169,119 		"/>
	</g>
	<path fill="#FFD9C4" d="M230.365,236.82c0,0,10.837-3.145,14.726,0.322c3.89,3.467,5.105,6.698,5.813,9.301
		c0.809,2.972-2.46,4.665-4.582,3.657c-0.069,0.279-0.17,0.552-0.32,0.806c-0.447,0.768-1.364,1.457-2.3,1.539
		c-1.105,0.385-2.346,0.242-3.365-0.393c-0.185-0.115-0.348-0.254-0.498-0.403c-0.031,0.155-0.075,0.308-0.138,0.446
		c-0.091,0.928-0.578,1.779-1.438,2.282c-1.261,0.739-2.542,0.374-3.614-0.466c-0.142-0.112-0.256-0.24-0.36-0.376
		c-0.153-0.144-0.283-0.477-0.396-0.661c-0.198-0.216-0.371-0.875-0.505-0.875c-0.042,0-0.085,0-0.126,0
		c0.138,0,0.293,1.032,0.487,1.391c0.565,1.039,0.289,2.523-0.796,3.117c-5.757,3.15-5.172-7.266-4.83-9.934
		C228.331,244.973,229.844,238.823,230.365,236.82z"/>
	<path fill="#32A5AA" d="M216.773,274.434h-29.128l-3.751-28.095l-1.751,28.095h-33.011c0,0-0.045-28.405,3.858-51.818h62.589
		L216.773,274.434z"/>
	<path id="XMLID_2_" fill="#FFD9C4" d="M151.118,145.06c7.491-5.619,20.134-1.939,20.134-1.939s4.327,19.748,13.111,19.748
		c8.783,0,13.111-19.748,13.111-19.748s13.876,1.253,21.368,6.872c-0.304,1.798-5.613,23.668-2.639,32.165L215.735,223h-31.372
		h-31.373l-1.405-54.154C154.863,159.481,151.118,145.06,151.118,145.06z"/>
	<path fill="#EE3E38" d="M207.165,165.163c0-5.562,1.167-21.078,1.167-21.078l-8.888-0.803c0,0-6.298,19.5-15.081,19.5
		c-8.784,0-15.053-20.718-15.053-20.718s-2.517-0.327-7.706-0.205c1.341,3.948,2.082,8.154,2.082,12.509
		c0,10.839-4.519,20.781-11.748,28.019l-1.757,61.221l68.478-0.971l-2.513-55.553C207.499,181.905,207.165,176.69,207.165,165.163z"
		/>
	<text transform="matrix(1 0 0 1 170.1699 216.0986)" fill="#FFFFFF" font-family="'Quicksand-Bold'" font-size="44.419">9</text>
	<g>
		<defs>
			<circle id="XMLID_7_" cx="131.263" cy="221.053" r="32.293"/>
		</defs>
		<use xlink:href="#XMLID_7_"  overflow="visible" fill="#FF7F46"/>
		<clipPath id="XMLID_3_">
			<use xlink:href="#XMLID_7_"  overflow="visible"/>
		</clipPath>
		<path clip-path="url(#XMLID_3_)" fill="none" stroke="#454C53" stroke-width="2.9127" stroke-miterlimit="10" d="M123.243,188.76
			c-0.073,1.022,2.589,16.828,11.651,20.064c9.062,3.237,24.507,2.68,31.348,5.548"/>
		<path clip-path="url(#XMLID_3_)" fill="none" stroke="#454C53" stroke-width="2.9127" stroke-miterlimit="10" d="M103.177,203
			c0,0,34.658,12.256,58.431,45.611"/>
		<path clip-path="url(#XMLID_3_)" fill="none" stroke="#454C53" stroke-width="2.9127" stroke-miterlimit="10" d="M95.41,229.033
			c0,0,17.08-5.035,24.075-0.971c6.994,4.064,13.036,32.545,13.036,32.545"/>
		<path clip-path="url(#XMLID_3_)" fill="none" stroke="#454C53" stroke-width="2.9127" stroke-miterlimit="10" d="M155.605,187.428
			c0,0-47.25,26.767-43.366,69.715"/>
	</g>
	<path fill="#FFD9C4" d="M129.784,222.011c0.564,1.226-0.764,2.335-1.895,2.191c-0.686-0.087-1.503-0.347-2.391-0.681
		c0.515,0.682,0.981,1.33,1.388,1.855c1.999,2.566,3.816,5.508,4.271,8.776c0.239,1.729-2.127,2.494-3.141,1.257
		c-0.877-0.926-1.858-1.751-2.891-2.518c-0.144,0.3-0.356,0.557-0.611,0.757c0.839,1.32,1.702,2.62,2.621,3.877
		c1.354,1.856-0.938,4.845-3.04,3.562c-1.222-0.748-2.297-1.629-3.278-2.596c0.449,0.838,0.879,1.686,1.268,2.558
		c0.796,1.77-1.79,3.519-3.155,2.159c-0.76-0.759-1.504-1.549-2.226-2.365c0.155,1.646-2.167,3.035-3.458,1.729
		c-5.426-5.499-14.289-22.098-2.952-25.481c1.396-1.251,3.108-2.163,4.987-2.534C120.587,213.506,127.523,217.091,129.784,222.011z"
		/>
	<g>
		<path fill="#FFD9C4" d="M161.66,164.857c0,0-0.385,0.015-1.107,0.044c-0.542,0.006-0.374,0.059-0.437,0.06
			c-0.016,0.003-0.029-0.004-0.058-0.019c-0.191,0.042-0.394,0.085-0.608,0.132c-0.216,0.043-0.443,0.088-0.681,0.136
			c-0.271,0.075-0.554,0.153-0.849,0.235c-0.299,0.083-0.61,0.168-0.932,0.257c-0.34,0.112-0.693,0.229-1.057,0.348
			c-1.456,0.466-3.177,1.143-5.051,1.933c-0.938,0.4-1.916,0.863-2.93,1.321c-1.004,0.507-2.058,0.991-3.118,1.558
			c-2.125,1.118-4.361,2.346-6.592,3.743c-2.25,1.37-4.496,2.897-6.712,4.509c-1.08,0.83-2.211,1.635-3.25,2.519l-1.59,1.305
			l-1.522,1.354c-1.045,0.888-1.936,1.856-2.917,2.773l-1.329,1.435l-0.667,0.713l-0.601,0.731
			c-0.403,0.484-0.805,0.968-1.204,1.448c-0.354,0.491-0.708,0.979-1.058,1.464l-0.525,0.725l-0.446,0.729
			c-0.292,0.483-0.615,0.962-0.888,1.438c-0.449,0.955-1.038,1.892-1.331,2.797c-0.164,0.452-0.403,0.904-0.52,1.339
			c-0.113,0.435-0.234,0.862-0.361,1.284c-0.164,0.427-0.168,0.826-0.243,1.226c-0.047,0.396-0.172,0.798-0.18,1.175
			c0,0.375-0.01,0.744-0.029,1.108c-0.005,0.182-0.032,0.365-0.025,0.542c0.023,0.174,0.046,0.347,0.068,0.518
			c0.041,0.343,0.071,0.681,0.093,1.014c0.011,0.336,0.162,0.646,0.222,0.961c0.079,0.313,0.15,0.621,0.213,0.924
			c0.071,0.302,0.238,0.583,0.34,0.866c0.111,0.283,0.219,0.558,0.323,0.823c0.051,0.134,0.101,0.267,0.149,0.396
			c0.075,0.126,0.148,0.249,0.22,0.37c0.285,0.485,0.539,0.938,0.762,1.352c0.187,0.424,0.533,0.763,0.745,1.079
			c0.232,0.314,0.43,0.582,0.589,0.799c0.316,0.439,0.484,0.673,0.484,0.673l-12.219,10.973c0,0-0.314-0.367-0.903-1.055
			c-0.292-0.347-0.653-0.775-1.077-1.277c-0.41-0.524-0.936-1.042-1.403-1.805c-0.482-0.737-1.017-1.553-1.599-2.441
			c-0.143-0.225-0.289-0.453-0.438-0.687c-0.128-0.255-0.259-0.514-0.392-0.777c-0.259-0.534-0.528-1.088-0.805-1.659
			c-0.262-0.582-0.578-1.152-0.807-1.801c-0.217-0.657-0.439-1.333-0.668-2.026c-0.203-0.703-0.486-1.401-0.62-2.165
			c-0.136-0.763-0.276-1.544-0.419-2.342c-0.064-0.4-0.13-0.806-0.196-1.215c-0.045-0.409-0.05-0.823-0.074-1.243
			c-0.028-0.84-0.057-1.695-0.086-2.565c-0.011-0.869,0.112-1.722,0.178-2.606c0.092-0.875,0.141-1.791,0.351-2.642
			c0.185-0.867,0.373-1.746,0.563-2.636c0.203-0.886,0.516-1.703,0.785-2.572c0.517-1.766,1.295-3.338,2.018-5.023
			c0.393-0.806,0.826-1.576,1.249-2.373l0.646-1.191c0.227-0.385,0.468-0.751,0.704-1.129c0.478-0.75,0.959-1.505,1.442-2.263
			c0.517-0.712,1.036-1.428,1.558-2.146l0.79-1.077l0.832-1.018c0.558-0.678,1.118-1.358,1.679-2.04
			c1.175-1.269,2.318-2.626,3.549-3.822l1.829-1.832l1.874-1.743c1.24-1.179,2.536-2.238,3.804-3.333
			c2.569-2.121,5.157-4.112,7.742-5.912c2.568-1.828,5.14-3.457,7.622-4.957c1.235-0.756,2.484-1.433,3.67-2.118
			c1.22-0.648,2.387-1.284,3.543-1.863c2.322-1.152,4.494-2.163,6.571-2.981c0.517-0.205,1.018-0.403,1.501-0.594
			c0.513-0.18,1.008-0.353,1.483-0.519c0.48-0.163,0.94-0.319,1.381-0.468c0.484-0.136,0.945-0.266,1.383-0.39
			c0.439-0.12,0.855-0.233,1.247-0.34c0.563-0.12,1.104-0.224,1.604-0.313c0.97-0.173,2.01-0.317,2.194-0.322
			c0.719-0.072,1.103-0.111,1.103-0.111L161.66,164.857z"/>
	</g>
	<path fill="#34383C" d="M193.615,57.923c1.525,8.471,8.917,14.901,17.827,14.901c8.909,0,16.302-6.431,17.827-14.901H193.615z"/>
	<path fill="#34383C" d="M165.125,57.923c1.525,8.471,8.918,14.901,17.827,14.901c8.908,0,16.302-6.431,17.828-14.901H165.125z"/>
	<path fill="#34383C" d="M136.635,57.923c1.525,8.471,8.917,14.901,17.827,14.901c8.909,0,16.303-6.431,17.828-14.901H136.635z"/>
</g>
</svg>
