<?xml version="1.0" encoding="utf-8"?>
<!-- Generator: Adobe Illustrator 16.0.0, SVG Export Plug-In . SVG Version: 6.00 Build 0)  -->
<!DOCTYPE svg PUBLIC "-//W3C//DTD SVG 1.1//EN" "http://www.w3.org/Graphics/SVG/1.1/DTD/svg11.dtd">
<svg version="1.1" id="Capa_1" xmlns="http://www.w3.org/2000/svg" xmlns:xlink="http://www.w3.org/1999/xlink" x="0px" y="0px"
	 width="350px" height="350px" viewBox="0 0 350 350" enable-background="new 0 0 350 350" xml:space="preserve">
<g>
	<rect x="44.263" y="132.172" fill="#8697CB" width="261.473" height="27.049"/>
	<path fill="#556080" d="M280.64,303.482H69.36c-8.881,0-16.081-7.199-16.081-16.08V159.221h243.441v128.181
		C296.721,296.283,289.521,303.482,280.64,303.482z"/>
	<path fill="#556080" d="M71.313,150.205c-0.582,0-1.177-0.113-1.75-0.352c-2.294-0.97-3.372-3.611-2.407-5.906l33.13-78.681
		c2.489-5.91,8.241-9.733,14.661-9.733h10.463c2.488,0,4.508,2.016,4.508,4.508c0,2.494-2.02,4.508-4.508,4.508h-10.463
		c-2.781,0-5.27,1.654-6.348,4.215l-33.13,78.681C74.743,149.173,73.07,150.205,71.313,150.205z"/>
	<path fill="#556080" d="M278.688,150.205c-1.758,0-3.43-1.032-4.156-2.759L241.4,68.765c-1.073-2.561-3.565-4.215-6.348-4.215
		H224.59c-2.488,0-4.508-2.015-4.508-4.508c0-2.493,2.02-4.508,4.508-4.508h10.463c6.416,0,12.173,3.823,14.661,9.733l33.13,78.681
		c0.966,2.294-0.112,4.936-2.406,5.906C279.864,150.092,279.273,150.205,278.688,150.205z"/>
	<circle fill="#8697CB" cx="147.951" cy="186.271" r="4.509"/>
	<circle fill="#8697CB" cx="161.476" cy="172.746" r="4.508"/>
	<circle fill="#8697CB" cx="161.476" cy="199.795" r="4.508"/>
	<circle fill="#8697CB" cx="175" cy="186.271" r="4.509"/>
	<circle fill="#8697CB" cx="120.902" cy="186.271" r="4.509"/>
	<circle fill="#8697CB" cx="134.426" cy="172.746" r="4.508"/>
	<circle fill="#8697CB" cx="134.426" cy="199.795" r="4.508"/>
	<circle fill="#8697CB" cx="66.804" cy="186.271" r="4.509"/>
	<circle fill="#8697CB" cx="93.853" cy="186.271" r="4.509"/>
	<circle fill="#8697CB" cx="80.329" cy="172.746" r="4.508"/>
	<circle fill="#8697CB" cx="107.377" cy="172.746" r="4.508"/>
	<circle fill="#8697CB" cx="80.329" cy="199.795" r="4.508"/>
	<circle fill="#8697CB" cx="107.377" cy="199.795" r="4.508"/>
	<circle fill="#8697CB" cx="283.195" cy="186.271" r="4.509"/>
	<circle fill="#8697CB" cx="256.147" cy="186.271" r="4.509"/>
	<circle fill="#8697CB" cx="269.672" cy="172.746" r="4.508"/>
	<circle fill="#8697CB" cx="269.672" cy="199.795" r="4.508"/>
	<circle fill="#8697CB" cx="188.524" cy="172.746" r="4.508"/>
	<circle fill="#8697CB" cx="188.524" cy="199.795" r="4.508"/>
	<circle fill="#8697CB" cx="202.049" cy="186.271" r="4.509"/>
	<circle fill="#8697CB" cx="229.099" cy="186.271" r="4.509"/>
	<circle fill="#8697CB" cx="147.951" cy="213.32" r="4.508"/>
	<circle fill="#8697CB" cx="175" cy="213.32" r="4.508"/>
	<circle fill="#8697CB" cx="120.902" cy="213.32" r="4.508"/>
	<circle fill="#8697CB" cx="66.804" cy="213.32" r="4.508"/>
	<circle fill="#8697CB" cx="93.853" cy="213.32" r="4.508"/>
	<circle fill="#8697CB" cx="283.195" cy="213.32" r="4.508"/>
	<circle fill="#8697CB" cx="256.147" cy="213.32" r="4.508"/>
	<circle fill="#8697CB" cx="202.049" cy="213.32" r="4.508"/>
	<circle fill="#8697CB" cx="229.099" cy="213.32" r="4.508"/>
	<circle fill="#8697CB" cx="215.573" cy="172.746" r="4.508"/>
	<circle fill="#8697CB" cx="242.623" cy="172.746" r="4.508"/>
	<circle fill="#8697CB" cx="215.573" cy="199.795" r="4.508"/>
	<circle fill="#8697CB" cx="242.623" cy="199.795" r="4.508"/>
	<circle fill="#8697CB" cx="147.951" cy="240.368" r="4.509"/>
	<circle fill="#8697CB" cx="161.476" cy="226.844" r="4.508"/>
	<circle fill="#8697CB" cx="161.476" cy="253.892" r="4.508"/>
	<circle fill="#8697CB" cx="175" cy="240.368" r="4.509"/>
	<circle fill="#8697CB" cx="120.902" cy="240.368" r="4.509"/>
	<circle fill="#8697CB" cx="134.426" cy="226.844" r="4.508"/>
	<circle fill="#8697CB" cx="134.426" cy="253.892" r="4.508"/>
	<circle fill="#8697CB" cx="66.804" cy="240.368" r="4.509"/>
	<circle fill="#8697CB" cx="93.853" cy="240.368" r="4.509"/>
	<circle fill="#8697CB" cx="80.329" cy="226.844" r="4.508"/>
	<circle fill="#8697CB" cx="107.377" cy="226.844" r="4.508"/>
	<circle fill="#8697CB" cx="80.329" cy="253.892" r="4.508"/>
	<circle fill="#8697CB" cx="107.377" cy="253.892" r="4.508"/>
	<circle fill="#8697CB" cx="283.195" cy="240.368" r="4.509"/>
	<circle fill="#8697CB" cx="256.147" cy="240.368" r="4.509"/>
	<circle fill="#8697CB" cx="269.672" cy="226.844" r="4.508"/>
	<circle fill="#8697CB" cx="269.672" cy="253.892" r="4.508"/>
	<circle fill="#8697CB" cx="188.524" cy="226.844" r="4.508"/>
	<circle fill="#8697CB" cx="188.524" cy="253.892" r="4.508"/>
	<circle fill="#8697CB" cx="202.049" cy="240.368" r="4.509"/>
	<circle fill="#8697CB" cx="229.099" cy="240.368" r="4.509"/>
	<circle fill="#8697CB" cx="147.951" cy="267.417" r="4.508"/>
	<circle fill="#8697CB" cx="175" cy="267.417" r="4.508"/>
	<circle fill="#8697CB" cx="120.902" cy="267.417" r="4.508"/>
	<circle fill="#8697CB" cx="66.804" cy="267.417" r="4.508"/>
	<circle fill="#8697CB" cx="93.853" cy="267.417" r="4.508"/>
	<circle fill="#8697CB" cx="283.195" cy="267.417" r="4.508"/>
	<circle fill="#8697CB" cx="256.147" cy="267.417" r="4.508"/>
	<circle fill="#8697CB" cx="202.049" cy="267.417" r="4.508"/>
	<circle fill="#8697CB" cx="229.099" cy="267.417" r="4.508"/>
	<circle fill="#8697CB" cx="215.573" cy="226.844" r="4.508"/>
	<circle fill="#8697CB" cx="242.623" cy="226.844" r="4.508"/>
	<circle fill="#8697CB" cx="215.573" cy="253.892" r="4.508"/>
	<circle fill="#8697CB" cx="242.623" cy="253.892" r="4.508"/>
	<circle fill="#8697CB" cx="147.951" cy="294.466" r="4.508"/>
	<circle fill="#8697CB" cx="161.476" cy="280.942" r="4.508"/>
	<circle fill="#8697CB" cx="175" cy="294.466" r="4.508"/>
	<circle fill="#8697CB" cx="120.902" cy="294.466" r="4.508"/>
	<circle fill="#8697CB" cx="134.426" cy="280.942" r="4.508"/>
	<circle fill="#8697CB" cx="66.804" cy="294.466" r="4.508"/>
	<circle fill="#8697CB" cx="93.853" cy="294.466" r="4.508"/>
	<circle fill="#8697CB" cx="80.329" cy="280.942" r="4.508"/>
	<circle fill="#8697CB" cx="107.377" cy="280.942" r="4.508"/>
	<circle fill="#8697CB" cx="283.195" cy="294.466" r="4.508"/>
	<circle fill="#8697CB" cx="256.147" cy="294.466" r="4.508"/>
	<circle fill="#8697CB" cx="269.672" cy="280.942" r="4.508"/>
	<circle fill="#8697CB" cx="188.524" cy="280.942" r="4.508"/>
	<circle fill="#8697CB" cx="202.049" cy="294.466" r="4.508"/>
	<circle fill="#8697CB" cx="229.099" cy="294.466" r="4.508"/>
	<circle fill="#8697CB" cx="215.573" cy="280.942" r="4.508"/>
	<circle fill="#8697CB" cx="242.623" cy="280.942" r="4.508"/>
	<path fill="#F0C419" d="M211.065,73.566h-72.131c-7.438,0-13.524-6.086-13.524-13.525l0,0c0-7.438,6.086-13.524,13.524-13.524
		h72.131c7.438,0,13.524,6.086,13.524,13.524l0,0C224.59,67.48,218.504,73.566,211.065,73.566z"/>
</g>
</svg>
