<?xml version="1.0" encoding="utf-8"?>
<!-- Generator: Adobe Illustrator 16.0.0, SVG Export Plug-In . SVG Version: 6.00 Build 0)  -->
<!DOCTYPE svg PUBLIC "-//W3C//DTD SVG 1.1//EN" "http://www.w3.org/Graphics/SVG/1.1/DTD/svg11.dtd">
<svg version="1.1" id="Layer_1" xmlns="http://www.w3.org/2000/svg" xmlns:xlink="http://www.w3.org/1999/xlink" x="0px" y="0px"
	 width="350px" height="350px" viewBox="0 0 350 350" enable-background="new 0 0 350 350" xml:space="preserve">
<g>
	<path fill="#1D1D1B" d="M258.676,112.301c-0.106-1.913-0.16-5.128-2.553-8.824c-2.392-3.694-5.395-8.717-6.086-9.833
		c-0.691-1.115-0.609-3.667-0.823-4.81c-0.213-1.143-0.957-3.057-1.143-3.668c-0.187-0.612-0.745-1.808-0.718-2.153
		c0.026-0.346,0.026-0.346,0.026-0.346s0.557-2.817,0.418-3.614c-0.118-0.678-0.338-1.236-0.896-1.176s-0.938,0.558-0.957,1.176
		c-0.016,0.481-0.032,1.389-0.136,2.073c-0.105,0.684-0.463,1.235-0.583,1.295c-0.118,0.06-1.076-0.657-1.076-0.916
		c0-0.26-0.078-1.237,0-1.336c0.079-0.1,0.439-1.436,0.426-1.754s0.371-1.542,0.359-2.006c-0.013-0.465-0.094-1.25-0.731-1.289
		c-0.637-0.041-1.261,0.412-1.422,1.368c-0.156,0.934-0.367,2.003-0.468,2.735c-0.101,0.73-0.011,1.69-0.291,1.876
		c-0.277,0.186-0.504,0.226-0.61-0.186c-0.105-0.413,0.027-1.622-0.054-2.126c-0.078-0.505-0.039-1.383-0.039-2.233
		s-0.277-1.768-0.93-1.768c-0.65,0-1.476,0.386-1.396,1.702c0.081,1.315,0.014,2.286,0.074,3.202
		c0.06,0.917,0.287,1.516,0.193,1.915s-0.134,0.691-0.571,0.61c-0.439-0.079-0.72-0.864-0.731-1.235
		c-0.014-0.372-0.188-1.143-0.253-1.315c-0.066-0.172,0.065-1.435-0.173-1.953s-1.263-1.17-1.742,0.041
		c-0.477,1.208-0.21,2.405-0.291,2.697c-0.08,0.292,0.094,1.673,0.239,2.471c0.146,0.797,0.307,1.781,0.372,3.043
		c0.066,1.263,0.345,3.482,0.133,3.736c-0.212,0.251-0.186,0.239-0.811-0.147c-0.624-0.386-2.339-2.179-3.494-2.432
		c-1.156-0.253-1.994-0.266-2.033,0.572c-0.04,0.836,0.796,1.236,1.209,1.675c0.412,0.437,0.942,1.409,1.448,1.753
		c0.504,0.347,1.819,1.13,2.259,1.941c0.438,0.811,1.448,1.343,2.181,1.448c0.73,0.107,1.939,1.329,2.963,1.462
		c1.022,0.133,1.567,0.159,1.767,0.333c0.2,0.174,1.383,0.902,1.515,1.169c0.133,0.266,0.864,1.528,1.37,2.778
		c0.504,1.25,1.235,2.803,0.824,3.163c-0.413,0.359-3.868-0.24-6.101-0.465c-2.231-0.226-4.358-0.04-4.479-0.066
		c-0.119-0.027-4.386-3.522-6.432-4.586c-2.046-1.063-3.481-1.448-5.661-0.903c-2.179,0.545-3.255,0.983-3.402,0.983
		c-0.146,0-0.346-0.305-0.65-0.344c-0.308-0.042-0.784,0.251-1.183,0.053c-0.399-0.199-0.319-0.56-0.904-0.492
		c-0.585,0.067-0.812,0.384-1.09,0.199c-0.279-0.186-1.276-1.595-2.338-1.94c-1.063-0.346-1.928-0.026-2.22-0.12
		c-0.293-0.093-1.886-1.196-2.657-1.661c-0.771-0.464-1.835-0.891-2.764-1.009c-0.931-0.12-1.224-0.546-1.516-0.573
		c-0.293-0.026-0.823,0.374-1.076,0.307c-0.254-0.067-0.254-0.067-0.254-0.067s-0.85-0.385-0.796-0.478
		c0.053-0.093,0.306-0.491,0.81-0.557c0.506-0.068,1.967-0.691,2.339-0.652c0.372,0.04,1.794,0.225,2.857,0.187
		c1.063-0.041,2.046-0.812,1.9-1.794c-0.146-0.984-0.146-2.565,0.239-3.164c0.385-0.597,0.691-1.142,0.545-1.607
		c-0.146-0.466-0.93-1.076-1.036-1.196c-0.105-0.12,0.397-0.625,0.465-1.169c0.067-0.545-1.104-1.901-1.063-2.047
		c0.041-0.146,0.863-0.345,1.409-0.771c0.544-0.425,0.358-1.037-0.385-1.861c-0.746-0.824-1.729-2.18-2.193-2.671
		c-0.466-0.492-0.678-1.156-0.558-1.728c0.119-0.572,0.569-1.476,0.052-1.98c-0.518-0.505-1.223-1.489-1.635-2.141
		c-0.411-0.651-0.743-1.381-1.554-1.847c-0.812-0.465-1.449-1.063-1.768-1.448c-0.32-0.386-1.315-1.263-1.74-1.529
		c-0.427-0.266-0.744-1.036-0.931-1.103c-0.186-0.067-0.373,0.651-0.545,0.611c-0.173-0.04-0.971-0.279-1.395-0.518
		c-0.426-0.24-0.971-0.705-1.196-0.731c-0.227-0.026-0.213,0.756-0.346,0.744c-0.134-0.013-0.4-0.239-0.518-0.239
		c-0.121,0-0.373,0.306-0.452,0.292c-0.082-0.014-0.24-0.333-0.346-0.359c-0.108-0.027-0.319,0.239-0.385,0.212
		c-0.067-0.026-0.242-0.731-0.466-0.744c-0.226-0.014-0.226,0.372-0.359,0.385c-0.133,0.013-0.506,0.252-0.559,0.412
		c-0.053,0.159-0.079,0.359-0.253,0.318c-0.172-0.039-0.37-0.292-0.477-0.252c-0.109,0.041-0.175,0.359-0.333,0.319
		c-0.16-0.04-0.705-0.558-0.891-0.532c-0.186,0.027-0.141,0.506-0.263,0.599s-0.827,0.598-0.946,0.545
		c-0.119-0.053-0.398-0.226-0.491-0.213c-0.093,0.014-0.307,0.279-0.479,0.266c-0.173-0.014-0.387,0.093-0.452,0.186
		c-0.066,0.093-0.253,0.306-0.439,0.279c-0.186-0.026-0.358,0.053-0.505,0.187c-0.146,0.133-0.491,0.504-0.611,0.452
		c-0.12-0.053-0.465-0.239-0.572-0.08c-0.105,0.159-0.145,0.398-0.305,0.358c-0.158-0.04-0.597,0.226-0.584,0.373
		c0.013,0.146-0.067,0.425-0.239,0.398c-0.174-0.027-0.624,0.133-0.744,0.279c-0.119,0.146-0.133,0.506-0.32,0.544
		c-0.186,0.041-0.624,0.466-0.624,0.625c0,0-0.478,0.319-0.531,0.545c-0.053,0.226-0.134,0.438-0.213,0.504
		c-0.081,0.066-0.026,0.425-0.198,0.504c-0.174,0.08-0.4,0.213-0.413,0.452c-0.013,0.24-0.371,0.731-0.319,0.891
		c0.054,0.16-0.199,0.625-0.278,1.01c-0.079,0.385-0.159,0.97-0.278,0.983c-0.12,0.013-0.214,0.464-0.081,0.558
		c0.135,0.092,0.12,0.545,0.014,0.598c-0.104,0.054-0.318,0.386-0.292,0.585s0.319,0.704,0.199,0.81
		c-0.12,0.107,0.027,0.465-0.066,0.559c-0.093,0.093-0.424-0.081-0.399,0.186c0.027,0.266,0.6,0.611,0.466,0.731
		s-0.624,0.346-0.466,0.599c0.16,0.251,0.346,0.172,0.32,0.332c-0.027,0.159,0.012,0.451,0.159,0.478
		c0.146,0.026,0.504-0.12,0.464-0.04c-0.039,0.08-0.159,0.557-0.357,0.665c-0.199,0.106-0.28,0.317-0.134,0.491
		c0.147,0.172,0.16,0.478,0.014,0.625c-0.146,0.146-0.078,0.279,0.093,0.465c0.174,0.186,0.226,0.583,0.346,0.703
		c0.12,0.12,0.306,0.479,0.199,0.56c-0.106,0.08-0.066,0.292,0.106,0.465c0.173,0.171,0.877,0.571,0.891,0.745
		c0.013,0.172,0.013,0.797-0.026,0.917c-0.042,0.12,0.078,0.306,0.238,0.346c0.161,0.039,0.572,0.398,0.572,0.664
		c0,0.266,0.186,0.505,0.346,0.505c0.158,0,0.504-0.025,0.543,0.081c0.04,0.105,0.294,0.57,0.174,0.638
		c-0.119,0.066,0.027,0.278,0.146,0.332c0.12,0.053,0.452-0.12,0.505,0c0.054,0.12,0.267,0.598,0.438,0.651
		c0.174,0.053,0.386-0.04,0.571,0.399c0.186,0.438,0.386,1.089,0.466,2.259c0.079,1.169,0.039,1.9-0.04,1.94
		c-0.079,0.04-0.505-0.12-0.771,0.012c-0.265,0.135-0.57,0.919-0.65,0.945c-0.079,0.026-0.957-0.014-1.382,0.12
		c-0.426,0.133-1.436,1.381-1.795,1.409c-0.359,0.026-0.812-0.041-1.183,0.092c-0.373,0.133-0.836,0.784-0.97,0.771
		c-0.133-0.014-1.621-0.599-2.844-0.757c-1.223-0.16-1.648-0.744-2.1-0.877c-0.452-0.133-3.813-0.691-7.096,0.041
		c-3.282,0.731-5.408,1.66-7.056,2.857c-1.648,1.194-3.868,2.697-4.252,2.803c-0.386,0.106-4.944-0.703-9.503-0.187
		c-4.558,0.518-7.082,2.26-7.415,2.273c-0.331,0.014-3.533-6.63-4.809-9.528c-1.276-2.897-1.835-4.439-2.524-6.884
		c-0.691-2.445-1.648-9.089-1.809-11.243c-0.16-2.152,0.399-3.083,0.771-3.614c0.372-0.532,1.968-3.11,2.472-3.562
		c0.505-0.452,2.127-2.152,2.366-2.445c0.237-0.292,1.807-1.01,2.206-1.409c0.399-0.398,0.517-0.505,0.478-0.956
		c-0.04-0.452,0.213-0.877,0.545-1.502c0.332-0.625,1.101-1.887,1.209-2.219c0.106-0.333,0.147-0.731-0.438-0.705
		c-0.585,0.026-3.694,0.876-3.694,0.876l-16.665,2.221c0,0,0.904,1.354,1.037,1.726c0.132,0.373,0.213,2.366,0.172,3.496
		c-0.04,1.129,0.319,2.313,0.665,3.11s0.479,1.874,0.837,3.269c0.358,1.396,0.889,1.86,0.97,3.336
		c0.08,1.475-0.034,7.249,0.086,10.139c0.119,2.89,0.836,8.212,1.475,10.884c0.638,2.67,2.911,9.786,2.99,11.46
		c0.08,1.675,0,2.771,0.18,3.21c0.179,0.438,0.677,1.335,2.671,1.654c1.994,0.318,11.321,1.255,12.16,1.535
		c0.836,0.279,6.616,1.375,10.584,0.796c3.965-0.578,10.543-2.532,10.883-2.411c0.339,0.118,1.434,1.274,1.613,1.635
		c0.181,0.357,0.878,2.411,1.136,2.85c0.259,0.438,0.738,1.156,0.579,1.536c-0.161,0.379-0.32,1.136,0.199,1.793
		c0.519,0.659,0.758,1.435,0.877,2.212c0.12,0.777,0.896,1.735,0.877,2.113c-0.021,0.378,0.041,1.554,0.398,3.09
		c0.36,1.535,0.58,2.89,0.738,3.149s0.438,0.718,0.379,1.097c-0.061,0.379,0.219,2.572,0.059,2.911
		c-0.158,0.338-0.059,0.835,0,1.395c0.06,0.559-0.059,3.947,0.559,6.1c0.618,2.152,1.675,3.13,1.416,3.389
		c-0.26,0.259-1.773,0.797-2.214,1.853c-0.438,1.056,0.14,1.674-0.657,2.292c-0.797,0.62-1.135,1.437-0.857,2.094
		c0.279,0.658,0.512,0.869,0.446,1.349c-0.066,0.478,0.676,1.301,0.796,1.382c0.119,0.08,0.052,0.52-0.2,0.665
		c-0.252,0.146-0.477,0.345-0.61,0.73c-0.134,0.385-0.027,0.784-0.307,1.024c-0.279,0.238-0.374,1.063-0.572,1.155
		c-0.198,0.094-1.328,0.584-2.139,0.719c-0.811,0.132-2.977,0.664-4.066,2.417c-1.091,1.755-1.581,3.813-2.565,5.954
		c-0.983,2.14-1.342,3.748-1.435,4.931c-0.093,1.183-2.364,12.464-3.043,14.179c-0.678,1.715-3.908,12.957-4.067,14.153
		c-0.16,1.196-0.092,2.405-0.465,2.963c-0.371,0.56-0.558,1.249-0.531,1.835c0.027,0.585,0.293,0.558-0.213,1.407
		c-0.504,0.851-1.116,1.542-1.381,1.941c-0.267,0.398-0.054,0.398-0.824,0.903c-0.771,0.505-1.807,1.037-2.259,1.487
		c-0.452,0.452-0.532,0.956-1.063,1.196c-0.533,0.239-1.516,0.852-0.931,2.179c0.585,1.329,2.007,1.975,2.685,2.672
		c0.677,0.697,1.694,1.396,1.316,2.152c-0.38,0.759-0.958,0.997-0.998,1.217c-0.04,0.219,0.419,0.519,0.04,0.997
		c-0.379,0.478-0.797,1.295-1.395,1.453c-0.598,0.16-8.015-0.239-11.801,1.874c-3.787,2.114-4.307,3.789-7.495,5.302
		c-3.191,1.516-7.774,4.027-8.373,4.227c-0.597,0.2-0.744-0.039-1.702,0.466c-0.957,0.504-1.673,1.063-2.258,1.117
		c-0.585,0.053-1.223,0.876-1.568,0.851c-0.346-0.026-1.728-1.171-2.365-1.409c-0.638-0.239-0.851,0.212-1.301,0.08
		c-0.452-0.135-0.773-0.214-1.437-0.295c-0.664-0.079-0.532-0.263-1.329-0.584c-0.798-0.318-3.375-1.221-5.502,0.692
		c-2.126,1.912-3.348,6.191-3.587,8.477c-0.239,2.287-0.106,3.245-0.478,3.722c-0.373,0.479-1.489,3.454-2.179,4.2
		c-0.692,0.744-2.554,3.082-2.95,4.943c-0.399,1.859-0.424,9.275,0.982,12.572c1.41,3.295,3.615,6.164,6.3,6.111
		c2.684-0.054,4.173-2.978,4.332-4.013c0.159-1.037,0.265-2.073,0.504-2.338c0.239-0.268,0.505-1.622,0.824-2.101
		c0.32-0.479,0.292-2.738,0.666-3.109c0.371-0.373,1.221-2.339,1.274-2.924c0.054-0.586,0.265-1.436,0.399-1.648
		c0.133-0.211,0.107-1.274,0.292-1.489c0.187-0.211,0.799-1.222,0.931-1.806c0.133-0.585,0.133-1.09,0.559-1.489
		c0.424-0.397,2.1-2.259,2.286-2.259c0.185,0,0.43-0.046,0.59-0.127c0.16-0.079,0.858-0.597,1.256-0.697
		c0.399-0.101,0.359-0.835,0.599-0.956c0.238-0.119,1.057-1.097,1.235-1.016c0.179,0.078,0.818-0.499,1.097-0.619
		c0.278-0.12,0.398-0.598,0.358-0.797c-0.039-0.2,0.12-0.718,0.399-0.957c0.278-0.238,0.379-0.479,0.379-0.777
		s-0.12-0.46,0.479-0.917c0.598-0.458,1.674-1.116,3.248-1.735c1.574-0.616,13.813-4.064,17.88-5.342
		c4.066-1.274,6.299-1.434,6.858-1.635c0.557-0.198,2.512-0.836,4.186-0.956c1.674-0.12,4.186-0.598,5.461-1.036
		c1.276-0.438,3.07-1.914,4.146-2.473c1.078-0.558,2.232-1.275,3.349-2.749c1.117-1.476,1.713-2.726,1.926-2.777
		c0.213-0.054,1.356-0.188,1.942-0.24c0.583-0.053,0.744-0.425,0.929-1.01c0.187-0.585,0.559-1.302,0.691-1.515
		s1.037-1.515,1.063-1.859c0.027-0.348,0.292-0.852,0.584-1.357c0.293-0.505,1.09-2.418,2.126-4.465
		c1.038-2.045,2.233-4.942,2.445-5.075c0.213-0.134,2.42-3.961,2.553-3.961c0.132,0,0.211,1.914,0,4.279
		c-0.213,2.365-0.771,3.695-0.851,5.209c-0.081,1.516-0.026,4.12-0.16,4.359c-0.133,0.238-0.425,1.169-0.505,1.887
		c-0.08,0.716-0.052,1.222-0.691,2.179c-0.637,0.958-0.691,2.233-0.85,2.473c-0.16,0.238-1.224,1.7-1.462,2.472
		c-0.24,0.771-0.665,1.647-1.117,2.392c-0.451,0.744-0.346,1.223,0.319,1.515c0.665,0.292,3.35,1.383,5.901,1.754
		c2.552,0.371,5.874,0.479,6.061,1.063c0.186,0.587,0.239,2.499,0,3.51c-0.239,1.01-3.376,6.512-4.705,7.946
		c-1.329,1.436-6.006,8.505-6.777,11.243c-0.771,2.737-0.505,4.092-1.249,5.767c-0.745,1.674-4.759,9.675-4.997,9.781
		c-0.239,0.105-0.665,0.371-1.144,1.354c-0.478,0.983-0.85,1.833-1.248,2.047c-0.399,0.212-0.479,0.957-0.798,1.355
		c-0.319,0.399-1.356,2.445-1.622,2.471c-0.265,0.027-0.399-0.093-0.876,0.207c-0.479,0.298-1.335,0.737-1.775,1.076
		c-0.438,0.339-0.658,0.618-1.017,0.598c-0.357-0.02-1.693,1.156-2.252,1.733c-0.559,0.578-0.858,0.997-1.057,1.037
		c-0.199,0.039-2.371,1.455-3.009,2.611c-0.638,1.157-0.539,4.025,0.16,6.599c0.696,2.57,2.631,3.847,2.711,4.106
		c0.079,0.26,0.059,2.75,0.04,2.83c-0.02,0.079-0.918,2.133-1.037,2.213c-0.12,0.079-1.356,1.296-1.475,2.213
		c-0.12,0.917,0.718,5.681,2.472,7.913c1.753,2.231,5.022,4.404,6.357,4.286c1.336-0.121,3.25-2.652,3.828-4.526
		c0.579-1.873,1.197-4.485,1.216-5.779c0.02-1.297-0.239-2.991-0.359-3.37c-0.119-0.378-0.08-3.288-0.099-3.547
		c-0.02-0.259,0-1.934,0.08-2.075c0.081-0.138,0.359-0.658,0.638-0.456c0.28,0.197,0.11,1.116,0.1,1.395
		c-0.02,0.559,0.816,0.797,0.877-0.021c0,0-0.28-2.97-0.021-3.229c0.26-0.259,0.898-0.12,1.016-1.016
		c0.121-0.898-0.538-3.868-0.418-4.466c0.121-0.598,0.319-1.495,1.236-2.053c0.916-0.559,1.614-1.336,1.575-1.714
		c-0.04-0.381-0.259-0.958-0.159-1.057c0.1-0.101,0.576-0.6,0.637-0.878c0.06-0.279-0.061-0.657-0.398-0.698
		c-0.338-0.039-0.757-0.198-0.618-0.559c0.14-0.358,2.252-3.327,3.011-3.985c0.757-0.657,0.457-0.957,0.457-0.957
		s1.536-2.313,3.708-4.426c2.173-2.112,5.88-6.519,7.854-9.07c1.973-2.551,4.988-8.191,6.7-11.381
		c1.712-3.19,2.509-4.49,3.147-5.263c0.637-0.77,2.338-5.075,3.056-6.166c0.717-1.089,0.717-1.089,0.717-1.089
		s0.984-1.089,1.17-2.471c0.187-1.384,0.187-1.384,0.187-1.384s0.333-0.85,0.512-0.989c0.178-0.141,0.238-1.415,0.497-1.914
		c0.259-0.498,1.038-1.436,1.197-2.213c0.159-0.778,0.26-1.474,0.578-2.034c0.319-0.558,0.937-2.569,1.136-2.67
		c0.199-0.099,1.196-0.816,1.455-1.595c0.259-0.777,0.259-2.689,0.278-3.229c0.021-0.538,0.698-1.237,0.778-2.013
		c0.079-0.779,0.099-1.935,0.318-2.593c0.219-0.657,0.239-2.592,0.559-2.97s1.057-1.316,0.777-3.11
		c-0.279-1.793,0.139-5.541,0.34-5.819c0.198-0.28,1.074-1.795,0.757-3.848c-0.319-2.053-0.857-5.042-0.838-5.561
		c0.021-0.519,0.697-7.416,0.697-8.691c0-1.276,0.539-3.209,0.539-3.927c0-0.719,0-0.719,0-0.719s0.757-2.053,0.658-4.465
		c-0.1-2.411-0.141-4.803-0.419-5.381c-0.28-0.578-1.336-2.552-1.336-3.13s-0.896-2.451-0.876-2.79
		c0.02-0.339-0.02-1.078-0.122-1.317c-0.098-0.238,0.34-1.016,0.181-1.375c-0.159-0.358,0.08-1.536-0.119-1.814
		c-0.198-0.278,0.14-1.196-0.12-1.275c-0.259-0.081-0.438-0.438-0.259-0.579c0.181-0.138,1.056-1.135,1.814-2.111
		c0.758-0.977,1.474-1.914,1.396-2.292c-0.079-0.38,0.776-1.955,1.534-3.13c0.757-1.176,1.097-1.715,0.838-2.831
		c-0.259-1.116,0.1-2.731,0.677-4.466c0.579-1.735,2.293-5.063,2.491-5.84c0.199-0.777,0.439-1.873,0.679-2.152
		c0.238-0.279,1.275-3.568,1.117-5.323c-0.161-1.754,0.218-9.747,0.518-9.967c0.298-0.219,1.057-1.076,1.215-1.594
		c0.16-0.518,0.12-3.17,0.32-3.508c0.197-0.338,0-0.917,0.159-1.056c0.158-0.14,0.736-1.456,1.116-2.074
		c0.379-0.616,0.318-2.312,1.493-3.149c1.178-0.837,3.37-2.172,4.805-1.853c1.437,0.317,5.264,2.531,7.197,3.169
		c1.933,0.637,9.155,1.461,11.628,1.461c2.472,0,4.677-0.398,5.209-0.211c0.531,0.186,2.18,0.345,2.657,0.292
		c0.479-0.053,2.073-1.356,3.082-1.41C257.294,115.172,258.782,114.215,258.676,112.301z M165.274,298.06
		c-0.378,0.061-0.2-0.657-0.03-0.706C165.412,297.304,165.653,298.001,165.274,298.06z M166.708,297.205
		c-0.564-0.008-0.269-1.346-0.12-1.365C166.737,295.818,167.273,297.212,166.708,297.205z"/>
	<g>
		<g>
			<circle fill="#F56618" cx="128.598" cy="46.657" r="16.191"/>
		</g>
		<path fill="#1D1D1B" d="M139.105,41.126c1.671-0.077,4.148,1.925,5.587,3.786c-0.053-0.505-0.13-1.001-0.228-1.483
			c-1.621-1.722-3.829-3.218-5.489-3.086c-1.11,0.092-2.446,0.702-3.704,1.586c-0.841-1.068-1.773-2.1-2.793-3.085
			c-0.043-0.044-0.091-0.084-0.134-0.13c2.855-2.018,4.856-3.27,7.569-3.635c-0.241-0.231-0.486-0.463-0.738-0.677
			c-2.759,0.512-4.833,1.922-7.42,3.768c-1.109-1.01-2.196-1.861-3.203-2.574c1.676-1.172,2.879-2.038,3.062-3.244
			c0.086-0.527-0.037-1.074-0.364-1.663c-0.334-0.061-0.676-0.104-1.02-0.142c0.476,0.66,0.676,1.208,0.603,1.682
			c-0.139,0.908-1.289,1.708-2.882,2.824c-0.029,0.017-0.061,0.037-0.091,0.064c-0.916-0.617-1.744-1.111-2.435-1.487
			c-1.735-0.945-3.419-1.15-4.771-1.086c-0.556,0.314-1.095,0.666-1.611,1.042c1.489-0.368,3.707-0.516,6.001,0.741
			c0.558,0.3,1.283,0.728,2.113,1.273c-2.11,1.428-5.15,2.671-10.376,4.246c-1.685,0.509-3.029,1.589-3.958,3.155
			c-0.259,1.113-0.4,2.272-0.415,3.454c0.325-1.774,1.353-4.873,4.601-5.854c4.649-1.4,8.268-2.701,10.833-4.509
			c0.005-0.005,0.015-0.012,0.019-0.02c0.996,0.697,2.106,1.548,3.237,2.564c-3.258,2.335-7.088,5.349-11.488,11.179
			c-2.361,3.136-3.266,5.499-3.588,7.041c0.218,0.271,0.446,0.529,0.678,0.784c0.169-1.341,0.889-3.823,3.543-7.348
			c4.394-5.821,8.212-8.798,11.448-11.107c1.001,0.936,2.006,2.005,2.953,3.213c-1.298,1.032-2.454,2.34-3.092,3.642
			c-0.862,1.742-1.237,4.114-1.678,6.858c-0.243,1.545-0.502,3.147-0.869,4.868c-0.65,3.021-1.497,4.411-1.99,5.003
			c0.314,0.035,0.63,0.056,0.949,0.067c0.56-0.833,1.258-2.325,1.814-4.906c0.376-1.739,0.644-3.424,0.88-4.907
			c0.428-2.681,0.797-4.994,1.602-6.634c0.583-1.185,1.664-2.401,2.867-3.368c1.03,1.383,1.977,2.932,2.767,4.645
			c2.368,5.17,2.575,7.806,1.937,10.646c0.344-0.329,0.671-0.667,0.981-1.031c0.098-0.703,0.138-1.425,0.104-2.183
			c-0.103-2.122-0.814-4.511-2.306-7.758c-0.76-1.664-1.719-3.262-2.857-4.79c1.132-0.791,2.318-1.339,3.284-1.418
			C139.063,41.128,139.082,41.126,139.105,41.126z"/>
	</g>
</g>
</svg>
