<?xml version="1.0" encoding="utf-8"?>
<!-- Generator: Adobe Illustrator 16.0.0, SVG Export Plug-In . SVG Version: 6.00 Build 0)  -->
<!DOCTYPE svg PUBLIC "-//W3C//DTD SVG 1.1//EN" "http://www.w3.org/Graphics/SVG/1.1/DTD/svg11.dtd">
<svg version="1.1" id="Layer_1" xmlns="http://www.w3.org/2000/svg" xmlns:xlink="http://www.w3.org/1999/xlink" x="0px" y="0px"
	 width="350px" height="350px" viewBox="0 0 350 350" enable-background="new 0 0 350 350" xml:space="preserve">
<g>
	<path fill="#CF9E76" d="M182.694,152.508c0,0-19.113,19.61-27.896,25.924c-14.263,10.253-46.962-0.539-46.962-0.539l1.175-10.61
		c21.844,3.563,36.031-3.002,36.031-3.002c2.38-2.169,7.335-8.531,11.814-14.516c0.042-0.329,0.105-0.679,0.203-1.042
		c3.29-12.766,12.738-14.6,12.738-14.6C182.485,135.34,182.694,152.508,182.694,152.508z"/>
	<g>
		<path fill="#CF9E76" d="M108.42,177.416c-1.104,1.437-5.69,1.397-8.373,0.666c-2.598,0.497-4.885,0.308-5.526-1.4
			c-0.765-2.038-0.369-2.394-0.369-3.846c-0.336-1.009-0.072-2.142,0.106-3.166c-0.076-0.764-0.422-2.507-0.017-3.226
			c0.119-0.942-1.043-3.896,2.342-4.049c1.65-0.074,5.582,1.131,5.967-3.655c0.476-5.908,4.814-6.512,4.375-3.629
			c-0.445,2.919-1.032,7.641,0.2,9.017C110.183,167.54,111.226,173.765,108.42,177.416z"/>
		<path fill="#B38866" d="M100.608,164.28c0,0,0.148,1.323,0,2.419c-0.087,0.636-0.923,0.784-1.179,0.814
			c-0.696,0.071-2.805,0.258-3.37-0.024c-0.679-0.34-1.392-1.426-1.392-1.426c0.642,1.8,1.63,2.003,1.63,2.003
			c0.615,0.14,1.87-0.066,1.87-0.066c2.233-0.225,2.645-0.664,2.797-1.53C101.117,165.604,100.608,164.28,100.608,164.28z"/>
		<path fill="#B38866" d="M100.608,167.753c0,0,0.148,1.324,0,2.419c-0.087,0.635-0.923,0.783-1.179,0.814
			c-0.696,0.071-2.805,0.258-3.37-0.024c-0.679-0.34-1.392-1.426-1.392-1.426c0.642,1.8,1.63,2.003,1.63,2.003
			c0.615,0.14,1.87-0.065,1.87-0.065c2.233-0.225,2.645-0.664,2.797-1.53C101.117,169.077,100.608,167.753,100.608,167.753z"/>
		<path fill="#B38866" d="M100.608,171.046c0,0,0.148,1.323,0,2.419c-0.087,0.635-0.923,0.783-1.179,0.814
			c-0.696,0.071-2.805,0.258-3.37-0.024c-0.679-0.34-1.392-1.426-1.392-1.426c0.642,1.799,1.63,2.003,1.63,2.003
			c0.615,0.14,1.87-0.066,1.87-0.066c2.233-0.225,2.645-0.665,2.797-1.53C101.117,172.37,100.608,171.046,100.608,171.046z"/>
		<path fill="#B38866" d="M98.739,177.754c0,0,1.003-0.056,1.092-0.641c0.128-0.854,0-1.886,0-1.886s0.442,1.032,0.31,1.707
			c-0.133,0.674-0.491,1.017-2.432,1.192L98.739,177.754z"/>
		<path fill="#B38866" d="M102.024,166.197c0,0,0.027,3.074,1.758,4.194c0,0-0.893,0.561-1.091,1.936c0,0,0.013-1.689-0.419-2.53
			S102.024,166.197,102.024,166.197z"/>
	</g>
	<path fill="#CF9E76" d="M223.015,293.357c-4.935,2.394-8.692,0-8.692,0c0.336-1.841-0.455-5.592-1.729-9.868
		c-2.016-6.81-5.228-14.964-7.006-18.876c-1.911-4.227-3.492-17.196-5.264-26.091c-0.531-2.667-1.084-11.717-1.665-13.305
		c-0.399-1.106-0.813-1.868-1.253-2.177c-3.17-2.233-8.294-2.233-12.618,0c-1.386,0.714-2.464,10.729-3.22,15.117
		c-0.091,0.539-0.175,1.099-0.259,1.673c-1.344,9.287-1.365,22.347,0.111,27.652c1.057,3.793,0.818,9.707,0.245,15.005
		c-0.679,6.292-1.826,11.723-1.826,11.723c-4.326-0.314-8.189-1.96-8.189-1.96c1.337-1.393,0.994-6.025,0.028-11.33
		c-1.672-9.154-5.207-20.311-5.207-20.311c-0.959-7.874-1.624-14.879-2.086-20.961c-0.539-7.118-0.797-19.723-0.91-24.244
		c-0.07-2.968-0.084-5.361-0.07-7.159c0-0.196,0.007-0.379,0.007-0.561c0.021-2.274,0.084-3.443,0.084-3.443
		s1.12-9.154,21.668-9.154c20.549,0,31.188,9.742,31.188,9.742c0.091,0.427,0.175,0.91,0.244,1.435
		c0.028,0.224,0.056,0.455,0.084,0.693c0.385,3.499,0.42,8.741,0.378,14.571c-0.027,3.934-0.084,14.879-0.091,18.987
		c-0.014,8.931-0.469,17.721,1.609,21.871c2.373,4.738,3.479,13.256,3.989,20.164C223.015,288.563,223.015,293.357,223.015,293.357z
		"/>
	<path fill="#CF9E76" d="M204.742,120.82l-0.015,1.232l-0.007,0.441l-0.014,0.826l-0.105,8.385
		c-5.676,2.268-11.624,4.962-14.214,4.556c-3.282-0.518-2.401-4.556-2.401-4.556c0.435-0.469,0.799-1.071,1.113-1.757
		c0.301-0.665,0.553-1.407,0.756-2.169c0.126-0.469,0.231-0.945,0.322-1.42c0.553-2.828,0.602-5.537,0.602-5.537H204.742z"/>
	<path fill="#967456" d="M204.742,120.82l-0.015,1.232c-4.808,2.296-10.547,3.78-14.55,4.305c0.553-2.828,0.602-5.537,0.602-5.537
		H204.742z"/>
	<g>
		<path fill="#311908" d="M190.37,40.9c-0.639-0.018-1.267,1.714-2.167,1.924c-0.721,0.169-1.78-0.683-2.557-0.377
			c-0.727,0.285-0.872,1.709-1.565,2.107c-0.699,0.401-2.011-0.188-2.597,0.321c-0.621,0.541-1.88,0.776-2.277,1.431
			c-0.42,0.688-0.082,1.942-0.144,2.746c-0.065,0.86-0.234,1.599-0.603,2.356c-0.365,0.752-1.378,0.953-1.923,1.608
			c-0.545,0.655-1.111,1.129-1.718,1.691c-0.659,0.609-0.387,2.195-0.976,2.702c-0.788,0.677-2.275,0.564-2.625,1.068
			c-0.338,0.485,0.348,1.854,0.068,2.914c-0.201,0.763-1.732,1.362-1.884,2.27c-0.14,0.84,0.251,1.827,0.168,2.687
			c-0.087,0.901-0.738,1.812-0.748,2.619c-0.012,1.019,1.778,1.774,1.917,2.435c0.178,0.849-0.373,1.758-0.032,2.35
			c0.419,0.729,1.935,0.822,2.228,1.451c0.303,0.65-0.262,1.834-0.539,2.724c-0.193,0.619-1.376,1.723-1.071,2.731
			c0.217,0.715,1.147,1.465,1.67,2.258c0.429,0.649,1.807,0.592,2.469,1.234c0.568,0.55,0.838,1.467,1.594,1.974
			c0.661,0.443,1.473,0.682,2.29,1.069c0.724,0.342,1.37,0.976,2.225,1.257c0.766,0.252,1.78-0.389,2.656-0.198
			c0.775,0.168,1.604,0.332,2.484,0.515c0.794,0.165,1.435,1.262,2.298,1.434c0.808,0.161,1.598,0.559,2.451,0.721
			c0.817,0.155,1.765-0.288,2.612-0.136c0.825,0.148,1.533,1.046,2.376,1.189c0.833,0.141,1.62,0.647,2.46,0.779
			c0.841,0.133,1.676,0.381,2.513,0.502c0.848,0.122,1.716,0.163,2.549,0.27c0.855,0.11,1.837-0.89,2.665-0.8
			c0.866,0.094,1.725-0.007,2.547,0.061c0.878,0.073,1.72,0.01,2.532,0.049c0.896,0.043,1.725,0.455,2.521,0.45
			c0.929-0.006,1.689-0.816,2.447-0.896c1.002-0.106,1.885,0.463,2.52,0.206c0.828-0.336,2.06,0.094,2.894-0.316
			c0.826-0.406,1.147-1.812,1.936-2.252c0.832-0.465,1.747-0.722,2.485-1.179c0.862-0.533,1.502-1.243,2.16-1.699
			c1.201-0.832,2.38-1.09,2.521-1.322c0.1-0.163,1.367-1.001,1.64-2.43c0.142-0.744-1.041-1.869-0.896-2.83
			c0.123-0.811,1.472-1.537,1.578-2.445c0.099-0.845-1.994-1.937-1.925-2.823c0.069-0.869,1.452-1.655,1.479-2.524
			c0.028-0.891,0.177-1.796,0.147-2.646c-0.031-0.916-0.556-1.775-0.671-2.591c-0.134-0.944-1.308-1.436-1.58-2.171
			c-0.274-0.743,0.447-1.94,0.091-2.796c-0.317-0.761-0.339-1.709-0.716-2.524c-0.355-0.764-1.411-1.214-1.814-1.996
			c-0.393-0.76-0.973-1.406-1.407-2.157c-0.436-0.75,0.414-2.314-0.061-3.029c-0.485-0.731-0.878-1.625-1.401-2.291
			c-0.549-0.699-2.616-0.064-3.203-0.661c-0.631-0.642-0.406-2.2-1.076-2.685c-0.733-0.531-2.17,0.458-2.942,0.167
			c-0.763-0.288-0.839-2.496-1.632-2.78c-0.777-0.279-2.2,1.267-2.987,1c-0.793-0.269-1.58-0.483-2.362-0.729
			c-0.811-0.255-1.324-1.401-2.103-1.621c-0.833-0.236-1.456-1.222-2.225-1.405c-0.871-0.207-1.981,1.051-2.732,0.93
			c-0.948-0.154-1.706-2.108-2.393-2.09c-0.72,0.018-1.472,0.34-2.299,0.333c-0.756-0.007-1.551,0.848-2.347,0.828
			c-0.78-0.02-1.588,0.545-2.36,0.519c-0.806-0.028-1.597,0.005-2.342-0.022C191.815,42.324,191.068,40.919,190.37,40.9z"/>
		<path fill="#C2946E" d="M180.196,89.449c0,0-3.346-3.492-7.108,0.354c-4.066,4.157,1.094,16.426,6.823,15.223
			c0,0,1.25-0.274,1.703-1.761S180.196,89.449,180.196,89.449z"/>
		<path fill="#CF9E76" d="M221.352,97.418c-0.161,1.771-0.413,3.437-0.756,4.99c-3.912,17.931-19.1,21.71-30.298,21.094
			c-2.113-0.119-4.129-0.637-5.998-1.47c-7.866-3.52-10.147-11.268-9.996-20.674c0.167-10.396,0.716-21.452,0.716-21.452
			c0.225-25.77,23.677-32.922,38.053-25.405C226.923,61.753,222.674,82.792,221.352,97.418z"/>
		<path fill="#542514" d="M198.102,102.143c0,0-0.056,0.49-0.328,1.281c-0.141,0.413-0.329,0.903-0.609,1.449
			c-0.141,0.28-0.301,0.561-0.497,0.847c0,0-0.007,0.007-0.015,0.021c-0.063,0.091-0.133,0.189-0.202,0.287
			c-1.701,2.253-5.047,4.346-9.693,4.017c-1.764-0.133-3.163-0.462-4.27-1.043c-0.692-0.371-1.28-0.833-1.764-1.322
			c-0.917-0.931-1.483-2.016-1.834-3.024c0-0.007,0-0.007,0-0.007c-0.608-1.764-0.553-3.275-0.553-3.275s0.351-0.035,2.331,0.007
			C183.139,101.429,188.129,101.604,198.102,102.143z"/>
		<path fill="#B55C4A" d="M196.449,106.021c-1.702,2.257-5.044,4.345-9.694,4.018c-1.762-0.131-3.166-0.458-4.265-1.041
			c-0.699-0.372-1.281-0.83-1.77-1.325c1.791-1.063,4.266-2.009,7.57-2.3C191.588,105.083,194.324,105.454,196.449,106.021z"/>
		<path fill="#FFFFFF" d="M198.103,102.146c0,0-0.058,0.487-0.326,1.281c-7.941,0.822-16.771-0.087-16.771-0.087l-0.334-1.958
			C183.139,101.432,188.131,101.607,198.103,102.146z"/>
		<path fill="#311908" d="M182.166,79.717c-0.62-0.452-1.789-0.447-2.892-0.602c-0.778-0.108-1.705-0.024-2.773,0.157
			c-0.8,0.136-1.313-0.032-2.298,0.324c-0.866-0.784-0.498-0.983,0.453-1.935c0.469-0.47,1.26-1.177,2.126-1.481
			c0.883-0.31,1.921-0.578,2.679-0.591c0.947-0.017,1.815,0.874,2.492,1.187c0.889,0.411,2.136,0.851,2.435,1.515
			C185.757,81.332,183.454,80.657,182.166,79.717z"/>
		<path fill="#311908" d="M194.999,79.783c0.641-0.467,1.861-0.49,3.011-0.67c0.811-0.127,1.78-0.065,2.899,0.091
			c0.839,0.117,1.372-0.063,2.406,0.27c0.893-0.804,0.504-0.995-0.504-1.925c-0.497-0.458-1.335-1.147-2.245-1.431
			c-0.927-0.289-2.015-0.532-2.808-0.528c-0.99,0.005-1.883,0.916-2.585,1.246c-0.921,0.431-2.218,0.901-2.52,1.572
			C191.272,81.483,193.668,80.753,194.999,79.783z"/>
		<g>
			<path fill="#FFF8F0" d="M184.059,87.501c0,0-0.485-3.499-3.15-3.633c-2.665-0.134-3.989,3.401-3.989,3.401
				s0.769,0.892,3.144,1.223C182.438,88.824,184.059,87.501,184.059,87.501z"/>
			<g>
				<path fill="#8C4923" d="M183.286,86.283c0.058,1.124-0.811,2.063-1.939,2.097c-1.13,0.035-2.093-0.848-2.15-1.971
					c-0.059-1.124,0.81-2.063,1.939-2.098C182.265,84.276,183.228,85.159,183.286,86.283z"/>
				<path fill="#26160D" d="M182.272,86.314c0.029,0.566-0.409,1.041-0.979,1.058s-1.055-0.428-1.085-0.995
					c-0.029-0.567,0.409-1.041,0.979-1.058C181.758,85.302,182.243,85.747,182.272,86.314z"/>
				<path fill="#FFF8F0" d="M181.286,85.529c0.022,0.451-0.322,0.826-0.77,0.839c-0.447,0.013-0.828-0.342-0.851-0.793
					s0.322-0.826,0.77-0.839C180.883,84.723,181.264,85.078,181.286,85.529z"/>
				<path fill="#FFF8F0" d="M182.578,87.229c0.016,0.312-0.223,0.572-0.532,0.581c-0.31,0.009-0.572-0.237-0.588-0.549
					s0.223-0.572,0.532-0.581C182.3,86.67,182.563,86.916,182.578,87.229z"/>
			</g>
			<g>
				<path fill="#402516" d="M184.059,87.501c0,0-0.053-0.145-0.146-0.399c-0.091-0.252-0.25-0.607-0.467-1.016
					c-0.224-0.405-0.517-0.871-0.954-1.27c-0.211-0.205-0.479-0.37-0.764-0.5c-0.143-0.067-0.304-0.1-0.457-0.146
					c-0.158-0.009-0.345-0.06-0.478-0.042c-0.196,0.004-0.4,0.005-0.525,0.048c-0.146,0.018-0.299,0.073-0.452,0.132
					c-0.156,0.047-0.287,0.143-0.435,0.207c-0.135,0.082-0.264,0.17-0.391,0.258c-0.238,0.191-0.461,0.386-0.654,0.587
					c-0.189,0.203-0.36,0.401-0.512,0.59c-0.297,0.379-0.53,0.709-0.674,0.947c-0.147,0.238-0.232,0.374-0.232,0.374
					s0.105-0.605,0.568-1.456c0.237-0.42,0.568-0.905,1.083-1.353c0.268-0.216,0.565-0.438,0.948-0.59
					c0.342-0.16,0.904-0.262,1.247-0.253c0.258-0.015,0.45,0.045,0.677,0.068c0.205,0.06,0.421,0.113,0.604,0.202
					c0.182,0.091,0.364,0.18,0.503,0.299c0.156,0.107,0.283,0.228,0.398,0.35c0.467,0.489,0.706,1.011,0.857,1.456
					C184.093,86.89,184.059,87.501,184.059,87.501z"/>
			</g>
		</g>
		<g>
			<path fill="#FFF8F0" d="M195.487,87.723c0,0,0.487-3.284,3.151-3.41c2.665-0.126,3.989,3.193,3.989,3.193
				s-0.769,0.837-3.144,1.148C197.108,88.965,195.487,87.723,195.487,87.723z"/>
			<g>
				<path fill="#8C4923" d="M196.105,86.515c-0.06,1.092,0.774,2.003,1.862,2.034c1.089,0.031,2.018-0.83,2.077-1.923
					c0.059-1.093-0.774-2.003-1.863-2.034C197.095,84.561,196.164,85.422,196.105,86.515z"/>
				<path fill="#26160D" d="M197.081,86.542c-0.029,0.551,0.392,1.011,0.94,1.026c0.548,0.016,1.018-0.418,1.047-0.97
					c0.03-0.551-0.391-1.01-0.939-1.026C197.58,85.557,197.111,85.991,197.081,86.542z"/>
				<path fill="#FFF8F0" d="M198.027,85.919c-0.02,0.358,0.314,0.658,0.745,0.67c0.432,0.012,0.797-0.269,0.815-0.626
					c0.02-0.358-0.313-0.658-0.745-0.67C198.412,85.282,198.047,85.562,198.027,85.919z"/>
				<path fill="#FFF8F0" d="M196.789,87.329c-0.014,0.248,0.217,0.455,0.515,0.463s0.551-0.186,0.564-0.433
					c0.014-0.248-0.218-0.455-0.516-0.463C197.055,86.888,196.803,87.082,196.789,87.329z"/>
			</g>
			<g>
				<path fill="#402516" d="M195.487,87.723c0,0,0.054-0.136,0.146-0.374c0.091-0.237,0.251-0.57,0.467-0.955
					c0.223-0.38,0.517-0.818,0.954-1.192c0.211-0.193,0.479-0.348,0.764-0.469c0.142-0.063,0.304-0.094,0.457-0.137
					c0.158-0.009,0.345-0.056,0.477-0.04c0.196,0.003,0.4,0.005,0.526,0.045c0.145,0.017,0.299,0.069,0.451,0.124
					c0.157,0.044,0.288,0.134,0.436,0.194c0.135,0.077,0.264,0.16,0.391,0.243c0.238,0.179,0.462,0.362,0.654,0.551
					c0.188,0.19,0.36,0.377,0.512,0.554c0.297,0.356,0.53,0.666,0.674,0.889c0.147,0.224,0.232,0.352,0.232,0.352
					s-0.105-0.569-0.568-1.366c-0.237-0.396-0.568-0.85-1.084-1.271c-0.267-0.203-0.564-0.411-0.947-0.554
					c-0.342-0.15-0.904-0.246-1.247-0.238c-0.258-0.014-0.45,0.042-0.676,0.064c-0.206,0.056-0.422,0.107-0.604,0.19
					c-0.182,0.085-0.364,0.168-0.503,0.28c-0.156,0.101-0.282,0.214-0.399,0.329c-0.467,0.459-0.704,0.95-0.856,1.367
					C195.454,87.149,195.487,87.723,195.487,87.723z"/>
			</g>
		</g>
		<path fill="#B38866" d="M181.241,93.526c0,0,0.864-2.03,2.611-1.872c1.025-1.027,1.961-2.472,1.958-4.326
			c-0.007-4.503-1.181-6.633-1.181-6.633s1.603,6.112-1.19,10.504C181.457,91.555,181.287,92.575,181.241,93.526z"/>
		<path fill="#B38866" d="M186.923,97.146c0,0-6.494,1.472-5.707-3.486C181.216,93.66,180.794,97.591,186.923,97.146z"/>
		<path fill="#C2946E" d="M227.41,88.883c-0.399-0.406-0.791-0.728-1.169-0.98c-1.106-0.742-2.148-0.903-3.03-0.798
			c-1.736,0.203-2.904,1.421-2.904,1.421s-1.876,12.325-1.421,13.815c0.455,1.484,1.7,1.764,1.7,1.764
			c4.815,1.003,3.007-3.633,5.632-5.676C229.367,95.978,229.649,91.173,227.41,88.883z"/>
		<path fill="#B38866" d="M184.061,87.844c0,0-2.107,3.248-6.415,1.213C177.646,89.057,181.289,90.48,184.061,87.844z"/>
		<path fill="#B38866" d="M195.284,88.245c0,0,2.106,3.247,6.415,1.213C201.699,89.458,198.056,90.881,195.284,88.245z"/>
		<path fill="#B38866" d="M210.933,93.958c0,0-1.049,1.4-2.974,3.587c-1.925,2.187-2.475,5.353-2.475,5.353s2.212-2.947,3.677-4.128
			C210.627,97.589,210.933,93.958,210.933,93.958z"/>
		<path fill="#B38866" d="M221.474,97.463c0-0.634,0.396-1.341,1.446-1.662s1.575-0.233,1.925-2.275c0,0,1.809,1.686,0.059,3.759
			c-1.75,2.074-1.866,0.615-2.625,0.995C221.521,98.659,221.474,98.098,221.474,97.463z"/>
		<path fill="#B38866" d="M211.89,71.795c0,0-0.34,4.742,0.272,6.099c0.612,1.356,0.787,2.801,0.787,2.801s0.555-1.912,0.088-4.041
			C212.57,74.526,211.89,71.795,211.89,71.795z"/>
		<path fill="#B38866" d="M185.854,97.066c0,0,0.657-0.643,2.158,0.14c1.5,0.782,3.134-0.29,2.522-1.83
			c-0.682-1.716-1.672-1.845-1.672-1.845s2.507,3.021-0.163,3.127C187.117,96.721,186.59,96.287,185.854,97.066z"/>
		<path fill="#B38866" d="M184.036,97.245c0,0-1.063-0.536-2.576-0.196c-1.514,0.339-2.214-1.352-0.931-2.897
			c0,0-0.478,2.581,0.681,2.401C183.35,96.222,184.036,97.245,184.036,97.245z"/>
		<path fill="#B38866" d="M183.088,97.099c0,0-0.015,1.048-0.364,3.454c0,0,1.072-1.727,1.05-3.411L183.088,97.099z"/>
		<path fill="#B38866" d="M185.077,97.175c0,0-0.006,0.971-0.313,3.377c0,0,0.934-1.65,0.914-3.334L185.077,97.175z"/>
		<path fill="#B38866" d="M186.005,94.964c0,0,0.563-1.223,1.7-1.485c0,0-0.811,0.074-1.121,0.266
			C185.928,94.151,186.005,94.964,186.005,94.964z"/>
		<path fill="#B38866" d="M196.652,105.74c-0.237,0.427-2.531,8.735-12.22,6.74c-7.106-1.464-5.543-7.559-5.543-7.825
			c0.351,1.008,0.917,2.093,1.834,3.024c0.483,0.49,1.071,0.951,1.764,1.322c1.106,0.581,2.506,0.91,4.27,1.043
			c4.646,0.329,7.992-1.764,9.693-4.017C196.52,105.929,196.59,105.831,196.652,105.74z"/>
		<path fill="#AD8463" d="M220.757,90.588c0.229,3.37,0.676,5.965-0.161,11.821c-3.912,17.931-19.1,21.71-30.298,21.094
			c-2.113-0.119-4.129-0.637-5.998-1.47c1.344,0.119,2.813,0.203,4.416,0.259c23.881,0.791,26.129-25.405,26.829-26.315
			c0.699-0.91,3.28-4.55,3.28-4.55L220.757,90.588z"/>
		<path fill="#B38866" d="M182.724,82.632c0,0-4.388-0.583-6.064,4.047C176.659,86.679,176.919,81.349,182.724,82.632z"/>
		<path fill="#B38866" d="M197.328,83.069c1.337,0.146,4.313-0.836,6.064,3.79C203.393,86.859,203.133,81.787,197.328,83.069z"/>
		<path fill="#311908" d="M220.769,90.759l-2.249,1.099l-1.086,1.521c0,0,2.171-0.386,3.47-0.894L220.769,90.759z"/>
		<path fill="#311908" d="M200.079,45.87c-0.551-0.01-1.902,0.388-3.32,0.606c-1.039,0.161-2.269,0.156-3.281,0.397
			c-1.421,0.338-2.148,1.773-2.534,2.189c-0.465,0.5-6.701,3.507-7.418,4.496c-2.068,2.857-0.35,8.815,0.774,9.593
			c6.955,4.812,17.499,0.1,18.392,0.175c0.915,0.077,4.911,1.004,5.776,1.167c0.855,0.16,4.011,0.72,5.293,4.739
			c0.962,3.018,3.146,2.286,4.155,4.811c0.525,1.313,3.558,3.369,2.786,7.465c-0.179,0.948-0.369,1.885-0.711,2.795
			c-0.635,1.688-1.052,3.134-1.214,4.202c-0.163,1.067-1.235,2.26,0.042,2.933c0.932,0.489,1.774,0.472,2.515-0.275
			c1.329-1.341,0.687-3.028,1.069-3.885c0.701-0.292,1.955-0.753,2.633-1.789c0.477-0.729,0.09-2.068,0.502-3.086
			c0.347-0.854,0.764-1.716,1.037-2.73c0.246-0.914,0.854-1.788,1.021-2.802c0.156-0.948,0.492-1.928,0.563-2.939
			c0.067-0.968-0.282-1.979-0.306-2.984c-0.023-0.977-0.145-1.953-0.266-2.945c-0.12-0.974,0.559-2.135,0.331-3.105
			c-0.224-0.957-1.448-1.659-1.787-2.595c-0.334-0.923-1.273-1.517-1.73-2.403c-0.448-0.87,0.101-2.319-0.477-3.138
			c-0.561-0.796-1.169-1.646-1.859-2.38c-0.663-0.704-1.825-0.925-2.617-1.56c-0.749-0.601-1.838-0.653-2.711-1.181
			c-0.818-0.495-1.631-0.863-2.563-1.283c-0.87-0.392-1.374-1.737-2.348-2.057c-0.906-0.298-1.964-0.198-2.964-0.427
			c-0.931-0.214-1.752-1.336-2.766-1.485c-0.945-0.139-1.994-0.117-3.016-0.197C202.126,46.115,201.103,45.89,200.079,45.87z"/>
	</g>
	<path fill="#523981" d="M218.085,257.256c-14.467,5.271-26.015,0.441-26.015,0.441l-0.435-2.919l-1.791-14.733
		c-0.392,1.896-0.44,10.87-0.434,14.691c0.006,1.813,0.027,3.08,0.027,3.08c-15.117,2.449-24.272-2.1-24.272-2.1
		c-4.024-25.077-1.763-51.128-1.763-51.128l1.099,0.007l47.613,0.217l4.233,0.021C219.001,213.974,218.085,257.256,218.085,257.256z
		"/>
	<path fill="#CF9E76" d="M227.799,136.302c-0.008,1.582-0.042,3.08-0.112,4.514c-0.547,11.968-3.164,19.31-7.853,33.265
		c-0.553,1.645-1.036,3.262-1.456,4.815c-3.156,11.64-2.911,20.437-2.911,20.437c-11.492,4.871-19.813,4.15-28.059,4.088
		l-5.864-0.267c-11.513-0.959-17.329-2.666-17.329-2.666c-0.777-13.767-0.687-25.007-0.147-34.063
		c-0.14-0.252-0.266-0.511-0.377-0.791c-3.346-8.364,4.01-26.504,5.774-30.62c0.021-0.056,0.042-0.105,0.063-0.154
		c0.049-0.111,0.091-0.21,0.126-0.293c0.028-0.063,0.049-0.112,0.07-0.161c0.014-0.021,0.021-0.035,0.028-0.056
		c0.021-0.056,0.042-0.098,0.056-0.133c0.014-0.028,0.021-0.042,0.021-0.042c4.521-1.365,11.632-3.604,20.031-6.397
		c4.885-0.385,9.511-0.777,14.886-0.322c5.754,1.211,12.444,3.569,18.155,6.285C224.642,134.567,226.294,135.427,227.799,136.302z"
		/>
	<path fill="#F8CA4D" d="M216.349,204.835c-34.798,5.843-52.946-0.246-52.946-0.246c-0.21-1.218-0.224-2.604-0.175-3.744
		c0.049-1.322,0.175-2.31,0.175-2.31c31.634,4.199,52.995,0.644,52.995,0.644c0.028,0.399,0.049,0.784,0.056,1.148
		C216.572,203.196,216.349,204.835,216.349,204.835z"/>
	<path fill="#AD8463" d="M227.687,140.816c-0.547,11.968-3.164,19.31-7.853,33.265c-0.553,1.645-1.036,3.262-1.456,4.815
		c0.084-0.784,0.196-1.616,0.322-2.484c1.875-12.885,2.849-25.629,3.324-31.837C221.808,143.091,224.488,141.769,227.687,140.816z"
		/>
	<path fill="#DEB031" d="M216.453,200.327c-28.954,5.641-47.123,2.142-53.225,0.518c0.049-1.322,0.175-2.31,0.175-2.31
		c31.634,4.199,52.995,0.644,52.995,0.644C216.426,199.578,216.446,199.963,216.453,200.327z"/>
	<path fill="#523981" d="M218.196,193.951c1.456,5.473-2.729,5.382-2.729,5.382s-1.211,0.195-3.275,0.482
		c-9.707,1.365-38.255,4.759-48.053-0.734c0,0-1.792,0.091-1.106-5.69c0.679-5.773-0.973-24.748-0.301-26.686
		c0,0,3.968-24.544,13.06-35.694l8.924-2.45c0,0-12.67,21.983,2.212,21.696c13.622-0.262,22.639-22.569,22.639-22.569l8.517,2.969
		c0,0-4.826,21.112-2.013,32.659c0.959,3.948,2.827,6.719,6.103,7.048C222.172,170.365,216.741,188.478,218.196,193.951z"/>
	<g>
		<path fill="#F8CA4D" d="M163.144,165.373l-0.478,1.623c0.163-1.01,4.02-24.818,13.125-35.984l0.956-0.262
			C167.876,141.627,163.183,165.128,163.144,165.373z"/>
	</g>
	<path fill="#F8CA4D" d="M189.411,254.736c0.006,1.813,0.027,3.08,0.027,3.08c-15.117,2.449-24.272-2.1-24.272-2.1
		c-4.024-25.077-1.763-51.128-1.763-51.128l1.099,0.007c-0.427,6.173-0.728,23.776,1.189,34.113
		C168.057,251.419,176.19,254.331,189.411,254.736z"/>
	<path fill="#F8CA4D" d="M218.085,257.256c-14.467,5.271-26.015,0.441-26.015,0.441l-0.435-2.919
		c2.401,0.028,4.963-0.014,7.679-0.076c15.467-0.371,13.941-38.131,12.801-49.89l4.233,0.021
		C219.001,213.974,218.085,257.256,218.085,257.256z"/>
	<path fill="#F8CA4D" d="M218.196,193.951c1.456,5.473-2.729,5.382-2.729,5.382s-1.211,0.195-3.275,0.482
		c0.344-1.673,0.553-3.996,0.112-6.81c-0.771-4.899,2.568-23.348,3.766-29.689c0.959,3.948,2.827,6.719,6.103,7.048
		C222.172,170.365,216.741,188.478,218.196,193.951z"/>
	<g>
		<path fill="#F8CA4D" d="M221.972,171.047c-3.313-0.333-5.442-2.868-6.583-7.564c-2.82-11.575,1.785-32.203,1.983-33.072
			l1.392,0.403c-0.048,0.21-4.756,21.084-2.015,32.338c0.985,4.058,3.093,6.306,5.752,6.573L221.972,171.047z"/>
	</g>
	<g>
		<path fill="#F8CA4D" d="M186.642,150.96c-3.217,0-5.456-1.032-6.661-3.071c-3.609-6.11,3.55-18.541,3.867-19.092l0.867-0.236
			c-0.074,0.128-6.726,13.206-3.529,18.616c0.966,1.635,2.884,2.431,5.727,2.381c13.011-0.25,21.915-21.913,22.004-22.131
			l1.298,0.524c-0.375,0.929-9.349,22.739-23.274,23.006C186.84,150.959,186.74,150.96,186.642,150.96z"/>
	</g>
	<path fill="#CF9E76" d="M229.893,198.987c0,0-3.625,2.834-6.563,3.044c-2.938,0.21-2.735,2.062-3.804,2.404
		c-1.068,0.342-1.693,2.679-1.351,3.746c0.342,1.069,0.291,1.286,0.426,2.34c0.134,1.053,1.979,2.165,2.625,2.697
		c0.671,0.553,1.878,1.451,2.888,1.94s1.986,0.851,3.171,1.227s3.635-1.205,4.563-3.687c0.927-2.482,4.087-8.189,4.087-8.189
		L229.893,198.987z"/>
	<path fill="#CF9E76" d="M255.227,176.583c2.003-6.449-10.409-22.253-14.58-26.625c-4.316-10.848-12.851-13.658-12.851-13.658
		s-16.253,2.409-6.714,20.49c0,0,14.727,7.019,19.503,17.537c-1.997,9.264-6.978,17.936-12.819,26.62l6.577,5.121
		C234.343,206.067,251.625,188.182,255.227,176.583z"/>
	<path fill="#967456" d="M184.497,135.37c0,0,4.712-0.219,5.724,0.919c1.013,1.137,2.281,0.744,3.374,0.043
		c1.094-0.7,6.344-0.979,6.344-0.979s-4.681,0.62-5.993,1.784c-1.312,1.164-2.756,1.514-3.937,0.333
		C188.827,136.289,184.497,135.37,184.497,135.37z"/>
	<path fill="#F5E5C0" d="M181.666,282.488c-0.679,6.292-1.826,11.723-1.826,11.723c-4.326-0.314-8.189-1.96-8.189-1.96
		c1.337-1.393,0.994-6.025,0.028-11.33C176.396,281.502,179.812,282.117,181.666,282.488z"/>
	<g>
		<path fill="#F8CA4D" d="M153.965,302.223v2.386c0,0-0.174,2.975,12.86,1.137c13.035-1.836,13.282-1.487,14.821-2.537l-0.156-2.987
			C181.49,300.221,167.175,297.563,153.965,302.223z"/>
		<path fill="#523981" d="M181.491,300.224c-0.608,0.461-2.289,0.923-4.695,1.385c-0.008,0-0.008,0.007-0.015,0.007
			c-3.248,0.624-7.817,1.261-12.892,1.876c-0.161,0.021-0.314,0.035-0.469,0.057c-0.014,0-0.021,0-0.021,0
			c-8.392,0.931-9.435-1.322-9.435-1.322c-2.274-7.412,5.879-9.414,9.532-9.106c0.742,0.063,1.421,0.028,2.03-0.084
			c0.881-0.146,1.638-0.447,2.274-0.805c1.966-1.112,2.813-2.841,2.813-2.841s8.84,0.573,10.029,3.205
			C181.842,295.219,181.491,300.224,181.491,300.224z"/>
		<path fill="#F8CA4D" d="M170.616,289.386c0,0-0.27-1.119,0.343-2.563c1.633-0.846,7.057,0.878,10.492,2.449
			c0.379,2.027-0.416,2.727-0.804,3.321C177.235,290.393,170.616,289.386,170.616,289.386z"/>
		<path fill="#F8CA4D" d="M176.796,301.608c-0.008,0-0.008,0.007-0.015,0.007c-3.212,1.296-12.829,1.897-13.361,1.933
			c-0.014,0-0.021,0-0.021,0c3.485-3.213,2.128-10.513,2.128-10.513c0.881-0.146,1.638-0.447,2.274-0.805h0.007
			C171.672,292.531,176.796,301.608,176.796,301.608z"/>
	</g>
	<path fill="#F5E5C0" d="M223.015,293.357c-4.935,2.394-8.692,0-8.692,0c0.336-1.841-0.455-5.592-1.729-9.868
		c2.505-0.392,6.159-0.847,9.973-0.938C223.015,288.563,223.015,293.357,223.015,293.357z"/>
	<g>
		<path fill="#F8CA4D" d="M209.866,304.276c0,0-0.519,1.734,0.132,2.784c0.649,1.051,7.095,4.229,15.106,0.416
			c0,0,0.604-1.378,0.047-2.836L209.866,304.276z"/>
		<path fill="#523981" d="M225.675,301.126c-0.015,0.189-0.021,0.287-0.021,0.287l-0.119,0.784l-0.385,2.441
			c-4.55,4.55-14.558,2.366-15.286-0.363c-0.595-2.226,1.212-4.073,2.409-5.431c0.272-0.309,0.51-0.588,0.686-0.847
			c0.259-0.386,0.462-0.868,0.608-1.4c0.588-2.051,0.448-4.759,0.448-4.759s5.725-2.198,9.588-0.196
			C225.905,294.778,225.751,299.873,225.675,301.126z"/>
		<path fill="#F8CA4D" d="M214.03,292.473c0,0-0.642-1.317-0.517-2.876c1.261-1.301,8.069-1.87,10.203-0.769
			c0.316,1.195,0.456,2.72,0.279,3.402C220.132,291.174,214.03,292.473,214.03,292.473z"/>
		<path fill="#F8CA4D" d="M225.675,301.126c-0.015,0.189-0.021,0.287-0.021,0.287l-0.119,0.784
			c-4.129-6.139-10.127-4.703-13.262-3.353c0.272-0.309,0.51-0.588,0.686-0.847c0.259-0.386,0.462-0.868,0.608-1.4
			c1.267-0.602,2.968-1.001,5.222-0.854C223.581,296.059,225.156,299.131,225.675,301.126z"/>
	</g>
	<path fill="#523981" d="M239.641,171.709c1.996-1.709,7.357-5.572,14.129-4.598c0,0,3.499,5.559,1.75,10.574
		c-1.75,5.016-3.267,6.766-3.267,6.766s-5.491-4.437-11.98-5.388c-0.841-0.123-1.384-0.971-1.128-1.781
		c0.361-1.143,0.644-2.694,0.126-3.981C239.046,172.741,239.183,172.101,239.641,171.709z"/>
	<path fill="#AD8463" d="M158.734,150.505c0,0,4.267-0.019,6.775-1.441C165.509,149.063,162.063,152.04,158.734,150.505z"/>
	<path fill="#AD8463" d="M144.735,164.735c0,0,0.066,4.267,1.515,6.759C146.25,171.494,143.236,168.081,144.735,164.735z"/>
	<path fill="#AD8463" d="M228.873,149.359c0,0,5.788,1.862,10.134,0.382C239.007,149.742,233.939,152.666,228.873,149.359z"/>
	<g>
		<path fill="#EBEBEB" d="M186.831,184.417l2.607,0.009l-0.178,2.885l-8.475-0.028l0.114-2.885l2.858,0.01l0.851-18.081
			l-2.601,1.394l-0.907-2.595l4.658-2.647l2.276,0.008L186.831,184.417z"/>
	</g>
</g>
</svg>
