<?xml version="1.0" encoding="utf-8"?>
<!-- Generator: Adobe Illustrator 16.0.0, SVG Export Plug-In . SVG Version: 6.00 Build 0)  -->
<!DOCTYPE svg PUBLIC "-//W3C//DTD SVG 1.1//EN" "http://www.w3.org/Graphics/SVG/1.1/DTD/svg11.dtd">
<svg version="1.1" id="Layer_1" xmlns="http://www.w3.org/2000/svg" xmlns:xlink="http://www.w3.org/1999/xlink" x="0px" y="0px"
	 width="350px" height="350px" viewBox="0 0 350 350" enable-background="new 0 0 350 350" xml:space="preserve">
<path fill="#231F20" d="M207.012,102.556l-4.959-6.312l-4.732-12.397c0,0,1.803-8.341-0.451-9.468c0,0-2.375-7.441-3.276-11.311
	c-0.033-0.922-0.162-1.818-0.381-2.681l-0.175-3.14c0,0,1.128-4.623-5.635-5.636c0,0,0.321,0.6,0.612,1.379
	c-2.04-1.385-4.501-2.194-7.151-2.194c-7.036,0-12.741,5.704-12.741,12.741c0,1.146,0.154,2.255,0.437,3.312
	c-0.313-0.358-0.316-0.361-0.316-0.361s-16.905,6.537-16.68,8.565c0,0-6.988,2.705-9.693,4.733c0,0-2.479,3.607,0.226,6.313
	l6.086,9.918c0,0,6.762,11.044,11.946,12.396c0,0,0.902,5.636,0,5.636c-0.901,0,4.058,5.185,4.058,5.185
	s-10.144,30.882-6.086,36.517l-0.226,4.959l-4.733,5.409c0,0-9.028,33.586-12.403,38.996c0,0,0.682,2.028,3.612,2.931l-0.676,12.173
	c0,0-2.029,13.749,0.225,17.356c0,0,6.763,21.865,4.959,25.245l-0.451,2.028c0,0-2.254,1.803-1.353,2.254
	c0.901,0.452,1.579,4.06,1.804,4.734c0.225,0.677,1.127,4.059,1.127,4.059l-0.226,12.847c0,0,2.479,6.088,8.115,0.226
	c5.635-5.859,3.606-7.888,3.381-9.916l-1.127-2.256l0.451-2.254l1.804-1.803l0.902-6.763c0,0-0.226-3.156-2.931-4.282l-1.352-2.03
	l-2.029-3.38c0,0,0-3.833,0.676-9.467c0,0,1.127-17.583-1.353-21.188c0,0,1.803-14.427,6.312-16.231l7.212,0.451
	c0,0,0.902,0.451,0.451-3.605c-0.451-4.057,1.353-8.341,1.353-8.341l1.803,15.103c0,0,4.958,1.128,4.283,1.128
	c-0.677,0,1.352,9.691,3.154,12.171c0,0,0.002,6.764-0.901,9.018c0,0-1.126,13.524,1.805,16.229l-0.451,13.749l-1.805,2.479
	c0,0,0.451,18.26-2.704,23.668c0,0-1.577,7.756,2.479,7.756c0,0,8.793-0.991,11.497-9.784l0.901-4.282c0,0-1.352-5.636,2.479-6.311
	l2.254-4.959l-5.635-10.37l-1.577-0.226c0,0,2.254-13.749,4.508-17.356c2.254-3.605,1.353-11.722-0.226-17.355
	c-1.578-5.636-0.676-12.172,0-13.523c0.676-1.354,3.832-0.226,3.832-0.226l-1.804-27.502l2.028-5.859l0.677-6.987
	c0,0-4.058-11.947-3.381-11.947c0.676,0,0.901-4.732,0.901-4.732l0.45-6.538c0,0,5.409-15.778,6.312-18.483
	c0.901-2.705,1.804-2.931,1.804-2.931l-0.451-2.479l1.353-1.803l0.226-6.086C205.435,119.462,212.873,107.74,207.012,102.556z
	 M182.218,82.269l-4.283,5.635l0.226,1.804l-1.804,2.704c0,0,0.262,0.43,1.389,0.43c1.128,0-0.327,1.788-0.327,1.788l0.119,0.586
	l-0.955,5.086l3.832,2.029c0,0,0.676,2.479,0,2.93c-0.677,0.451-4.507-0.45-4.507-0.45s-4.283-7.213-11.496-8.115
	c0,0-6.988-9.692-11.496-10.368l6.762-7.214c0,0,6.537-5.859,8.34-4.959s1.804,0.9,1.804,0.9l3.832,2.254
	c0,0,6.31,1.128,7.664,0.226l1.578-0.901l-1.558-0.363c2.279-0.084,4.406-0.765,6.229-1.894c-0.041,2.948,0.008,5.661,0.287,6.315
	C188.529,82.269,182.218,82.269,182.218,82.269z"/>
</svg>
