<?xml version="1.0" encoding="utf-8"?>
<!-- Generator: Adobe Illustrator 16.0.0, SVG Export Plug-In . SVG Version: 6.00 Build 0)  -->
<!DOCTYPE svg PUBLIC "-//W3C//DTD SVG 1.1//EN" "http://www.w3.org/Graphics/SVG/1.1/DTD/svg11.dtd">
<svg version="1.1" id="Layer_1" xmlns="http://www.w3.org/2000/svg" xmlns:xlink="http://www.w3.org/1999/xlink" x="0px" y="0px"
	 width="350px" height="350px" viewBox="0 0 350 350" enable-background="new 0 0 350 350" xml:space="preserve">
<g>
	<path fill="#302F2F" d="M165.421,85.715l-32.471,26.919c0,0-0.642-6.495-3.723-7.01l-1.076-9.454l-3.928,5.953l-0.785-0.132
		c-4.2-0.707-8.497,0.485-11.731,3.256l0,0l-6.265-3.409l3.493,8.851c-2.478,1.902,0.007,7.937,0.007,7.937l-41.312-8.503
		c0,0-35.12,31.53-36.177,58.836c0,0,35.536-34.543,47.371-17.301c0,0,39.828-14.709,54.075,12.201l-0.596-2.728l0.756,2.688
		c-0.069-30.449,41.999-36.181,41.999-36.181c2.344-20.782,49.944-6.99,49.944-6.99C211.238,97.042,165.421,85.715,165.421,85.715z"
		/>
	<polygon fill="#FFFFFF" points="110.641,112.925 117.904,114.745 114.617,115.75 	"/>
	<polygon fill="#FFFFFF" points="126.813,108.889 121.257,113.907 124.631,113.25 	"/>
	<path fill="#302F2F" d="M247.547,190.175l-42.856,19.183c0,0,1.249-7.157-1.901-8.629l1.666-10.461l-5.988,5.214l-0.802-0.377
		c-4.293-2.011-9.258-2.014-13.554-0.008l0,0l-5.701-5.526l1.105,10.535c-3.226,1.301-2.36,8.515-2.36,8.515l-41.77-21.447
		c0,0-47.074,23.336-56.356,52.306c0,0,48.419-26.443,55.967-4.42c0,0,47.103-3.89,54.354,29.222l0.175-3.104l0.009,3.108
		c9.012-32.676,55.84-26.271,55.84-26.271c8.714-21.588,55.65,7.407,55.65,7.407C293.305,215.996,247.547,190.175,247.547,190.175z"
		/>
	<polygon fill="#FFFFFF" points="180.677,203.012 187.923,207.13 184.099,207.227 	"/>
	<polygon fill="#FFFFFF" points="199.226,203.509 191.77,207.233 195.584,207.534 	"/>
	<path fill="#302F2F" d="M284.696,131.801l-23.521,13.45c0,0,0.311-4.181-1.582-4.847l0.363-6.102l-3.144,3.334l-0.481-0.17
		c-2.58-0.911-5.432-0.631-7.784,0.765l0,0l-3.588-2.849l1.233,5.987c-1.778,0.93-0.872,5.024-0.872,5.024l-25.205-9.943
		c0,0-25.707,16.076-29.392,33.24c0,0,26.303-17.937,31.889-5.718c0,0,26.828-4.91,32.874,13.693l-0.076-1.792l0.183,1.784
		c3.318-19.276,30.574-18.259,30.574-18.259c3.777-12.893,32.379,1.092,32.379,1.092
		C312.44,144.029,284.696,131.801,284.696,131.801z"/>
	<polygon fill="#FFFFFF" points="247.024,142.972 251.419,144.925 249.229,145.198 	"/>
	<polygon fill="#FFFFFF" points="257.704,142.203 253.634,144.766 255.843,144.722 	"/>
</g>
</svg>
