<?xml version="1.0" encoding="utf-8"?>
<!-- Generator: Adobe Illustrator 16.0.0, SVG Export Plug-In . SVG Version: 6.00 Build 0)  -->
<!DOCTYPE svg PUBLIC "-//W3C//DTD SVG 1.1 Tiny//EN" "http://www.w3.org/Graphics/SVG/1.1/DTD/svg11-tiny.dtd">
<svg version="1.1" baseProfile="tiny" id="Layer_1" xmlns="http://www.w3.org/2000/svg" xmlns:xlink="http://www.w3.org/1999/xlink"
	 x="0px" y="0px" width="350px" height="350px" viewBox="0 0 350 350" overflow="scroll" xml:space="preserve">
<g>
	<g>
		<g>
			<g>
				<g>
					
						<circle fill="none" stroke="#231F20" stroke-width="4" stroke-linecap="round" stroke-linejoin="round" stroke-miterlimit="10" cx="256.654" cy="200.726" r="2.994"/>
					
						<circle fill="none" stroke="#231F20" stroke-width="4" stroke-linecap="round" stroke-linejoin="round" stroke-miterlimit="10" cx="244.718" cy="200.726" r="2.993"/>
					
						<circle fill="none" stroke="#231F20" stroke-width="4" stroke-linecap="round" stroke-linejoin="round" stroke-miterlimit="10" cx="232.78" cy="200.726" r="2.993"/>
				</g>
			</g>
			
				<polygon fill="none" stroke="#231F20" stroke-width="4" stroke-linecap="round" stroke-linejoin="round" stroke-miterlimit="10" points="
				71.113,187.1 72.784,190.74 279.48,190.74 265.797,217.229 45.106,217.229 30.192,187.1 			"/>
		</g>
		
			<polyline fill="none" stroke="#231F20" stroke-width="4" stroke-linecap="round" stroke-linejoin="round" stroke-miterlimit="10" points="
			60.747,187.1 60.747,182.7 168.54,182.7 168.54,190.74 		"/>
		
			<polygon fill="none" stroke="#231F20" stroke-width="4" stroke-linecap="round" stroke-linejoin="round" stroke-miterlimit="10" points="
			142.631,162.157 142.631,149.889 138.35,149.889 138.35,162.157 135.212,162.157 135.212,172.144 128.936,172.144 128.936,182.7 
			147.766,182.7 147.766,162.157 		"/>
		
			<line fill="none" stroke="#231F20" stroke-width="4" stroke-linecap="round" stroke-linejoin="round" stroke-miterlimit="10" x1="140.491" y1="149.889" x2="140.491" y2="132.771"/>
		
			<line fill="none" stroke="#231F20" stroke-width="4" stroke-linecap="round" stroke-linejoin="round" stroke-miterlimit="10" x1="178.865" y1="190.74" x2="178.865" y2="172.144"/>
		
			<polyline fill="none" stroke="#231F20" stroke-width="4" stroke-linecap="round" stroke-linejoin="round" stroke-miterlimit="10" points="
			279.48,190.74 319.809,186.09 319.809,183.491 219.949,190.74 		"/>
		
			<line fill="none" stroke="#231F20" stroke-width="4" stroke-linecap="round" stroke-linejoin="round" stroke-miterlimit="10" x1="51.726" y1="203.718" x2="217.648" y2="203.718"/>
	</g>
	<g>
		
			<polyline fill="none" stroke="#231F20" stroke-width="4" stroke-linecap="round" stroke-linejoin="round" stroke-miterlimit="10" points="
			245.389,157.735 235.438,160.401 234.141,155.558 268.9,143.772 281.553,144.872 282.346,147.832 256.926,154.645 		"/>
		<path fill="none" stroke="#231F20" stroke-width="4" stroke-linecap="round" stroke-linejoin="round" stroke-miterlimit="10" d="
			M254.502,148.655c0,0,0.885-5.211,6.199-6.635c5.311-1.423,8.43,1.69,8.43,1.69"/>
		
			<polyline fill="none" stroke="#231F20" stroke-width="4" stroke-linecap="round" stroke-linejoin="round" stroke-miterlimit="10" points="
			245.055,151.906 234.979,145.695 230.963,146.771 234.141,155.558 		"/>
		
			<polyline fill="none" stroke="#231F20" stroke-width="4" stroke-linecap="round" stroke-linejoin="round" stroke-miterlimit="10" points="
			260.549,151.078 249.266,162.18 243.553,155.633 		"/>
	</g>
</g>
</svg>
