<?xml version="1.0" encoding="utf-8"?>
<!-- Generator: Adobe Illustrator 16.0.0, SVG Export Plug-In . SVG Version: 6.00 Build 0)  -->
<!DOCTYPE svg PUBLIC "-//W3C//DTD SVG 1.1 Tiny//EN" "http://www.w3.org/Graphics/SVG/1.1/DTD/svg11-tiny.dtd">
<svg version="1.1" baseProfile="tiny" id="Layer_1" xmlns="http://www.w3.org/2000/svg" xmlns:xlink="http://www.w3.org/1999/xlink"
	 x="0px" y="0px" width="350px" height="350px" viewBox="0 0 350 350" overflow="scroll" xml:space="preserve">
<g>
	<path fill="#945E13" d="M322.572,185.606c-0.268-0.694-0.936-1.153-1.68-1.153h-25.367c0.273-0.268,0.454-0.62,0.514-1.015
		l15.401-2.509c0.909-0.148,1.56-0.959,1.508-1.879c-0.053-0.92-0.79-1.651-1.711-1.696l-15.445-0.747
		c-0.317-0.511-0.88-0.855-1.526-0.855h-16.545c-0.994,0-1.8,0.807-1.8,1.801v5.516c0,0.561,0.262,1.055,0.663,1.385h-3.395v-22.73
		c0-0.995-0.806-1.8-1.8-1.8h-19.034v-7.596c0-0.571-0.271-1.075-0.688-1.404c0.026-0.192,0.044-0.385,0.044-0.58
		c0-1.694-1.001-3.156-2.44-3.834v-12.291c0-0.995-0.806-1.8-1.8-1.8c-0.995,0-1.801,0.806-1.801,1.8v12.291
		c-1.439,0.679-2.44,2.14-2.44,3.834c0,0.145,0.012,0.288,0.026,0.431c-0.366,0.211-0.658,0.546-0.803,0.965l-5.164,14.925h-5.936
		c-0.994,0-1.8,0.806-1.8,1.8v2.897h-0.66l-6.41-26.806c-0.22-0.917-1.115-1.51-2.041-1.357l-11.234,1.838
		c-0.809,0.133-1.426,0.795-1.502,1.61l-2.299,24.715h-9.39c-0.994,0-1.8,0.807-1.8,1.8v2.489h-1.404v-4.43
		c0-0.994-0.806-1.8-1.8-1.8h-0.089c-0.542-2.868-2.952-5.078-5.915-5.317l-20.766-12.107c-0.801-0.465-1.824-0.25-2.366,0.502
		c-0.542,0.751-0.426,1.791,0.269,2.403L178.129,169c-0.036,0.139-0.071,0.278-0.099,0.42h-0.088c-0.995,0-1.801,0.806-1.801,1.8
		v4.43h-2.182c-0.994,0-1.8,0.807-1.8,1.8v7.003h-61.803c0.271-0.268,0.453-0.62,0.513-1.015l15.401-2.509
		c0.909-0.148,1.56-0.959,1.507-1.879c-0.052-0.92-0.79-1.651-1.71-1.696l-15.445-0.747c-0.318-0.511-0.88-0.855-1.526-0.855H92.551
		c-0.995,0-1.8,0.807-1.8,1.801v5.516c0,0.561,0.262,1.055,0.663,1.385H67.716c-0.995,0-1.8,0.807-1.8,1.801v6.486H63.71
		c0.381-0.33,0.627-0.812,0.627-1.355v-5.515c0-0.994-0.806-1.8-1.8-1.8H45.992c-0.646,0-1.208,0.343-1.526,0.854l-15.446,0.747
		c-0.92,0.045-1.658,0.777-1.71,1.696c-0.052,0.92,0.599,1.73,1.508,1.879l15.401,2.508c0.058,0.38,0.228,0.722,0.484,0.985h-0.036
		c-0.888,0-1.644,0.648-1.779,1.526c-0.068,0.438-1.586,10.828,4.273,17.659c3.221,3.754,7.971,5.657,14.118,5.657h247.693
		c0.898,0,1.659-0.661,1.783-1.551c0.021-0.155,1.685-11.688,5.978-20.673c0.03-0.059,0.06-0.115,0.083-0.177
		c1.451-3.004,3.2-5.711,5.284-7.593C322.652,187.09,322.84,186.302,322.572,185.606z M281.397,181.268h-1.876v-1.915h12.944v2.018
		h-1.162c-0.994,0-1.8,0.806-1.8,1.8v1.283h-6.307v-1.385C283.197,182.074,282.392,181.268,281.397,181.268z M246.831,150.343
		c0-0.354,0.287-0.641,0.641-0.641s0.641,0.287,0.641,0.641c0,0.068-0.011,0.13-0.027,0.185h-1.228
		C246.841,150.473,246.831,150.411,246.831,150.343z M245.438,154.127h0.618h2.699v7.596v4.94H241.1L245.438,154.127z
		 M219.372,147.021l1.132,4.73h-9.655l0.314-3.387L219.372,147.021z M210.514,155.352h10.852l3.827,16.009h-16.168L210.514,155.352z
		 M186.834,168.842h-4.711c0.542-0.708,1.396-1.166,2.355-1.166C185.437,167.676,186.291,168.134,186.834,168.842z M180.343,165.549
		c-0.118,0.096-0.229,0.199-0.341,0.303l-1.678-1.48L180.343,165.549z M179.742,173.021h9.472v2.629h-9.472V173.021z
		 M175.76,179.251h20.259c0.712,0,1.321-0.416,1.613-1.015c0.327,0.448,0.854,0.742,1.451,0.742h1.2c0.994,0,1.8-0.806,1.8-1.8
		s-0.806-1.8-1.8-1.8h-1.2c-0.493,0-0.938,0.199-1.264,0.52v-0.937h29.649c0.002,0,0.003,0,0.004,0s0.002,0,0.002,0h3.88
		c0.995,0,1.801-0.806,1.801-1.8v-2.898h5.409c0.003,0,0.005,0.001,0.008,0.001c0.002,0,0.004-0.001,0.007-0.001h11.976
		c0.995,0,1.801-0.806,1.801-1.8v-1.583c0.295,0.591,0.899,1,1.604,1h1.2c0.994,0,1.8-0.806,1.8-1.8c0-0.994-0.806-1.8-1.8-1.8h-1.2
		c-0.705,0-1.31,0.409-1.604,1v-1.757h17.233v20.93H175.76V179.251z M96.228,181.268h-1.876v-1.915h12.945v2.018h-1.162
		c-0.994,0-1.8,0.806-1.8,1.8v1.283h-6.307v-1.385C98.028,182.074,97.222,181.268,96.228,181.268z M316.884,188.054
		c-1.054,1.425-2.003,3.014-2.86,4.687H69.516v-4.687H316.884z M48.954,189.688h-1.161v-2.018h12.944v1.915H58.86
		c-0.994,0-1.8,0.806-1.8,1.8v1.355h-6.307v-1.253C50.754,190.493,49.948,189.688,48.954,189.688z M46.31,196.34h2.342
		c0.099,0.018,0.199,0.031,0.302,0.031c0.104,0,0.204-0.014,0.302-0.031h9.303c0.098,0.018,0.198,0.031,0.302,0.031
		c0.104,0,0.204-0.014,0.303-0.031h8.553h244.649c-1.815,4.373-3.078,8.94-3.9,12.528H49.334
		C46.289,204.717,46.165,199.03,46.31,196.34z M61.279,213.982c-2.952,0-5.483-0.51-7.58-1.514h254.01
		c-0.108,0.575-0.199,1.084-0.273,1.514H61.279z"/>
	<path fill="#945E13" d="M90.692,192.221h0.6c0.994,0,1.8-0.806,1.8-1.8s-0.806-1.8-1.8-1.8h-0.6c-0.995,0-1.8,0.806-1.8,1.8
		S89.697,192.221,90.692,192.221z"/>
	<path fill="#945E13" d="M138.806,192.221h1.159c0.995,0,1.8-0.806,1.8-1.8s-0.806-1.8-1.8-1.8h-1.159c-0.994,0-1.8,0.806-1.8,1.8
		S137.812,192.221,138.806,192.221z"/>
	<path fill="#945E13" d="M117.946,192.221h1.159c0.994,0,1.8-0.806,1.8-1.8s-0.806-1.8-1.8-1.8h-1.159c-0.995,0-1.8,0.806-1.8,1.8
		S116.952,192.221,117.946,192.221z"/>
	<path fill="#945E13" d="M124.899,192.221h1.159c0.995,0,1.8-0.806,1.8-1.8s-0.806-1.8-1.8-1.8h-1.159c-0.994,0-1.8,0.806-1.8,1.8
		S123.905,192.221,124.899,192.221z"/>
	<path fill="#945E13" d="M145.759,192.221h1.159c0.994,0,1.8-0.806,1.8-1.8s-0.806-1.8-1.8-1.8h-1.159c-0.995,0-1.8,0.806-1.8,1.8
		S144.765,192.221,145.759,192.221z"/>
	<path fill="#945E13" d="M152.713,192.221h1.158c0.995,0,1.8-0.806,1.8-1.8s-0.806-1.8-1.8-1.8h-1.158c-0.995,0-1.8,0.806-1.8,1.8
		S151.718,192.221,152.713,192.221z"/>
	<path fill="#945E13" d="M131.853,192.221h1.159c0.994,0,1.8-0.806,1.8-1.8s-0.806-1.8-1.8-1.8h-1.159c-0.995,0-1.8,0.806-1.8,1.8
		S130.858,192.221,131.853,192.221z"/>
	<path fill="#945E13" d="M97.086,192.221h1.159c0.995,0,1.8-0.806,1.8-1.8s-0.806-1.8-1.8-1.8h-1.159c-0.994,0-1.8,0.806-1.8,1.8
		S96.092,192.221,97.086,192.221z"/>
	<path fill="#945E13" d="M104.04,192.221h1.158c0.995,0,1.8-0.806,1.8-1.8s-0.806-1.8-1.8-1.8h-1.158c-0.995,0-1.8,0.806-1.8,1.8
		S103.045,192.221,104.04,192.221z"/>
	<path fill="#945E13" d="M110.993,192.221h1.159c0.995,0,1.8-0.806,1.8-1.8s-0.806-1.8-1.8-1.8h-1.159c-0.994,0-1.8,0.806-1.8,1.8
		S109.999,192.221,110.993,192.221z"/>
	<path fill="#945E13" d="M159.666,192.221h1.159c0.994,0,1.8-0.806,1.8-1.8s-0.806-1.8-1.8-1.8h-1.159c-0.994,0-1.8,0.806-1.8,1.8
		S158.672,192.221,159.666,192.221z"/>
	<path fill="#945E13" d="M166.62,192.221h0.6c0.994,0,1.8-0.806,1.8-1.8s-0.806-1.8-1.8-1.8h-0.6c-0.995,0-1.8,0.806-1.8,1.8
		S165.625,192.221,166.62,192.221z"/>
	<path fill="#945E13" d="M262.36,164.28h-1.2c-0.994,0-1.8,0.807-1.8,1.8c0,0.995,0.806,1.8,1.8,1.8h1.2c0.994,0,1.8-0.806,1.8-1.8
		C264.16,165.087,263.354,164.28,262.36,164.28z"/>
	<path fill="#945E13" d="M236.232,170.408h-1.2c-0.995,0-1.801,0.806-1.801,1.8c0,0.994,0.806,1.8,1.801,1.8h1.2
		c0.994,0,1.8-0.806,1.8-1.8C238.032,171.214,237.227,170.408,236.232,170.408z"/>
	<path fill="#945E13" d="M243.433,170.408h-1.2c-0.994,0-1.8,0.806-1.8,1.8c0,0.994,0.806,1.8,1.8,1.8h1.2
		c0.994,0,1.801-0.806,1.801-1.8C245.233,171.214,244.427,170.408,243.433,170.408z"/>
	<path fill="#945E13" d="M250.555,170.408h-1.121c-0.995,0-1.801,0.806-1.801,1.8c0,0.994,0.806,1.8,1.801,1.8h1.121
		c0.995,0,1.801-0.806,1.801-1.8C252.355,171.214,251.55,170.408,250.555,170.408z"/>
	<path fill="#945E13" d="M214.685,175.378h-1.2c-0.994,0-1.8,0.806-1.8,1.8s0.806,1.8,1.8,1.8h1.2c0.994,0,1.8-0.806,1.8-1.8
		S215.679,175.378,214.685,175.378z"/>
	<path fill="#945E13" d="M207.483,175.378h-1.199c-0.995,0-1.801,0.806-1.801,1.8s0.806,1.8,1.801,1.8h1.199
		c0.995,0,1.801-0.806,1.801-1.8S208.479,175.378,207.483,175.378z"/>
	<path fill="#945E13" d="M229.086,175.378h-1.2c-0.994,0-1.8,0.806-1.8,1.8s0.806,1.8,1.8,1.8h1.2c0.994,0,1.8-0.806,1.8-1.8
		S230.08,175.378,229.086,175.378z"/>
	<path fill="#945E13" d="M221.885,175.378h-1.199c-0.995,0-1.801,0.806-1.801,1.8s0.806,1.8,1.801,1.8h1.199
		c0.995,0,1.801-0.806,1.801-1.8S222.88,175.378,221.885,175.378z"/>
</g>
</svg>
