<?xml version="1.0" encoding="utf-8"?>
<!-- Generator: Adobe Illustrator 16.0.0, SVG Export Plug-In . SVG Version: 6.00 Build 0)  -->
<!DOCTYPE svg PUBLIC "-//W3C//DTD SVG 1.1//EN" "http://www.w3.org/Graphics/SVG/1.1/DTD/svg11.dtd">
<svg version="1.1" id="Capa_1" xmlns="http://www.w3.org/2000/svg" xmlns:xlink="http://www.w3.org/1999/xlink" x="0px" y="0px"
	 width="350px" height="350px" viewBox="0 0 350 350" enable-background="new 0 0 350 350" xml:space="preserve">
<path d="M297.227,57.223c-0.184-0.692-0.35-1.304-0.481-1.818c1.361-4.656-0.349-7.561-1.544-8.922
	c-3.517-3.992-9.31-3.06-11.02-2.699c-0.309,0.074-0.612,0.166-0.91,0.286c-0.754,0.309-1.526,0.652-2.287,0.972
	c-6.097,2.076-11.929,5.221-17.19,8.109l-0.395,0.217c-8.11-6.217-18.203-9.842-28.943-9.842c-26.279,0-47.661,21.377-47.661,47.661
	c0,0.04,0.006,0.074,0.006,0.114c-20.342,4.535-35.778,22.098-37.133,43.452c-22.618,2.648-40.398,21.171-41.937,44.11
	c-1.247-0.098-2.494-0.189-3.763-0.189c-26.278,0-47.662,21.377-47.662,47.661c0,8.075,2.116,15.738,5.765,22.532
	c-0.435,0.606-0.892,1.229-1.304,1.802c-0.492,0.687-0.955,1.332-1.424,1.99c-0.658,0.915-1.281,1.796-1.864,2.619
	c-0.395,0.555-0.79,1.115-1.161,1.647c-0.886,1.264-1.704,2.441-2.414,3.471c-0.177,0.258-0.332,0.486-0.498,0.732
	c-0.743,1.093-1.39,2.059-1.944,2.894c-0.063,0.092-0.143,0.212-0.2,0.304c-0.006,0.006-0.006,0.012-0.006,0.017
	c-0.852,1.304-1.504,2.322-1.961,3.071l-0.458,0.417c-1.716,1.567-2.305,4.026-1.499,6.205c0.601,1.618,1.911,3.443,4.529,6.303
	c16.002,17.454,36.149,26.244,57.463,26.238c19.25,0,39.449-7.172,58.396-21.589c63.617-48.439,118.158-128.366,118.811-129.333
	C312.449,114.423,300.989,71.372,297.227,57.223z M275.105,66.442c-0.246-0.4-0.492-0.8-0.749-1.201
	c-0.572-0.88-1.184-1.732-1.813-2.573c-0.195-0.257-0.36-0.538-0.561-0.795c2.099-1.075,4.141-2.076,6.153-3.031
	C277.216,61.409,276.169,63.925,275.105,66.442z M234.456,54.964c9.556,0,18.414,3.809,24.991,10.105
	c0.417,0.4,0.801,0.83,1.201,1.252c0.789,0.835,1.549,1.698,2.259,2.608c0.389,0.497,0.767,1,1.126,1.516
	c0.676,0.961,1.293,1.961,1.871,2.991c0.274,0.492,0.571,0.967,0.829,1.47c0.777,1.544,1.486,3.14,2.041,4.815
	c-2.945,5.645-6.193,11.237-9.671,16.642c-0.017,0.022-0.365,0.56-0.908,1.378c-0.121,0.183-0.2,0.303-0.35,0.526
	c-0.188,0.28-0.457,0.68-0.681,1.023c-0.251,0.383-0.491,0.732-0.795,1.184c-0.309,0.463-0.697,1.035-1.058,1.567
	c-0.32,0.475-0.624,0.921-0.984,1.453c-0.388,0.566-0.84,1.224-1.269,1.853c-0.424,0.612-0.835,1.213-1.299,1.882
	c-0.48,0.692-1.023,1.464-1.544,2.213c-0.486,0.698-0.966,1.384-1.492,2.127c-0.584,0.83-1.219,1.722-1.848,2.608
	c-0.543,0.767-1.086,1.533-1.664,2.339c-0.692,0.961-1.424,1.979-2.162,2.991c-0.4,0.549-0.8,1.109-1.212,1.67
	c-0.12-0.326-0.304-0.623-0.435-0.944c-0.126-0.314-0.28-0.612-0.412-0.926c-0.457-1.082-0.938-2.145-1.476-3.186
	c-0.389-0.761-0.771-1.521-1.2-2.259c-0.023-0.04-0.041-0.085-0.063-0.126c-0.023-0.034-0.058-0.051-0.075-0.085
	c-0.034-0.057-0.074-0.103-0.103-0.16c-0.023-0.04-0.046-0.086-0.069-0.126c-0.04-0.068-0.052-0.148-0.091-0.217
	c-0.121-0.2-0.274-0.372-0.401-0.572c-0.337-0.538-0.703-1.052-1.063-1.573c-0.704-1.029-1.396-2.053-2.174-3.02
	c-0.075-0.091-0.132-0.206-0.205-0.297c-0.058-0.068-0.145-0.097-0.207-0.166c-0.006-0.006-0.011-0.017-0.022-0.022
	c-0.046-0.063-0.058-0.137-0.103-0.195c-0.006-0.028-0.012-0.022-0.023-0.028c-0.194-0.235-0.435-0.429-0.635-0.658
	c-0.371-0.429-0.761-0.847-1.149-1.264c-0.846-0.904-1.693-1.795-2.608-2.63c-0.468-0.429-0.978-0.812-1.464-1.224
	c-0.017-0.017-0.033-0.028-0.051-0.046c-0.577-0.486-1.139-0.995-1.739-1.452c-0.686-0.526-1.372-1.035-2.087-1.521
	c-0.126-0.091-0.234-0.206-0.366-0.292c-0.017-0.012-0.028-0.017-0.045-0.029c-0.053-0.034-0.109-0.034-0.161-0.063
	c-0.091-0.068-0.16-0.154-0.257-0.217c-0.148-0.097-0.326-0.166-0.475-0.263c-0.589-0.378-1.207-0.698-1.813-1.046
	c-0.995-0.572-1.983-1.138-3.024-1.636c-0.206-0.097-0.384-0.234-0.589-0.326c-0.006,0-0.012-0.006-0.018-0.012l0,0
	c-0.098-0.045-0.2-0.034-0.297-0.074c-0.075-0.04-0.127-0.109-0.206-0.149c-0.458-0.206-0.887-0.36-1.333-0.549
	c-0.338-0.143-0.675-0.286-1.023-0.423c-0.475-0.188-0.955-0.383-1.425-0.549c-0.359-0.126-0.726-0.24-1.092-0.36
	c-0.555-0.183-1.121-0.394-1.67-0.549v0.011h-0.006c-0.052-0.011-0.097,0-0.148-0.011c-1.35-0.383-2.723-0.715-4.111-0.978
	c-0.412-0.074-0.83-0.114-1.247-0.183c-1.841-0.297-3.712-0.48-5.616-0.555c-0.274-0.011-0.538-0.074-0.813-0.08
	C198.804,70.651,214.828,54.964,234.456,54.964z M193.525,101.756c1.201-0.12,2.42-0.188,3.648-0.188
	c4.106,0,8.035,0.783,11.736,2.07c0.663,0.235,1.338,0.463,2.019,0.75c1.378,0.572,2.705,1.235,3.991,1.967
	c0.429,0.24,0.881,0.463,1.292,0.715c1.573,0.984,3.061,2.082,4.462,3.283c0.131,0.114,0.285,0.206,0.417,0.326
	c1.561,1.378,3.003,2.894,4.313,4.524c0.085,0.108,0.16,0.24,0.245,0.349c1.132,1.447,2.145,2.985,3.049,4.598
	c0.32,0.578,0.583,1.184,0.875,1.778c0.577,1.172,1.104,2.368,1.555,3.603c0.269,0.744,0.504,1.493,0.728,2.253
	c0.331,1.144,0.577,2.316,0.794,3.505c0.108,0.595,0.298,1.161,0.378,1.773c-0.074,0.097-0.148,0.2-0.224,0.297
	c-0.652,0.864-1.35,1.75-2.008,2.619c-1.898,2.482-3.791,4.97-5.701,7.412c-1.035,1.321-2.076,2.607-3.11,3.912
	c-1.647,2.076-3.295,4.163-4.947,6.205c-1.144,1.413-2.294,2.786-3.438,4.175c-1.561,1.899-3.122,3.803-4.688,5.667
	c-1.162,1.384-2.328,2.728-3.489,4.089c-1.229,1.436-2.454,2.871-3.683,4.283c-0.538-2.407-1.265-4.741-2.15-7
	c-0.012-0.034-0.023-0.068-0.041-0.103c-0.874-2.208-1.903-4.33-3.082-6.365c-0.091-0.154-0.188-0.303-0.28-0.458
	c-2.339-3.929-5.215-7.486-8.543-10.585c-0.252-0.235-0.498-0.458-0.755-0.687c-1.665-1.487-3.408-2.882-5.273-4.124
	c-0.018-0.011-0.028-0.017-0.046-0.029c-1.818-1.206-3.74-2.259-5.719-3.213c-0.338-0.161-0.664-0.332-1.001-0.486
	c-1.99-0.904-4.043-1.682-6.165-2.305c-0.297-0.086-0.601-0.149-0.898-0.234c-1.973-0.538-3.986-0.955-6.051-1.235
	c-0.223-0.029-0.429-0.103-0.652-0.131C162.518,117.409,176.249,103.495,193.525,101.756z M119.02,181.14
	c0.492-19.553,16.55-35.302,36.212-35.302c0.034,0,0.063,0.005,0.098,0.005c0,0,0,0,0.005,0c2.087,0.006,4.123,0.217,6.119,0.566
	c0.303,0.051,0.612,0.08,0.91,0.137c0.772,0.154,1.521,0.366,2.276,0.566c0.372,0.098,0.755,0.178,1.121,0.286
	c0.732,0.223,1.436,0.492,2.145,0.761c0.366,0.137,0.743,0.257,1.109,0.406c0.704,0.292,1.39,0.629,2.07,0.961
	c0.343,0.166,0.692,0.32,1.023,0.498c0.681,0.36,1.338,0.761,1.996,1.167c0.309,0.189,0.623,0.366,0.926,0.566
	c0.658,0.435,1.292,0.904,1.921,1.379c0.269,0.206,0.55,0.395,0.813,0.606c0.634,0.509,1.246,1.046,1.847,1.595
	c0.229,0.206,0.464,0.406,0.681,0.618c0.612,0.589,1.195,1.207,1.768,1.835c0.177,0.194,0.359,0.389,0.537,0.589
	c0.589,0.68,1.145,1.384,1.682,2.104c0.126,0.171,0.257,0.337,0.378,0.509c0.555,0.778,1.08,1.579,1.572,2.402
	c0.08,0.126,0.16,0.252,0.235,0.383c0.514,0.881,0.994,1.79,1.44,2.716c0.034,0.075,0.068,0.148,0.103,0.217
	c0.463,0.989,0.887,2.002,1.259,3.037c0.006,0.012,0.012,0.029,0.018,0.04c1.154,3.22,1.869,6.657,2.069,10.237
	c0,0.018,0.011,0.029,0.011,0.046c0.035,0.658,0.104,1.31,0.104,1.979c0,0.423-0.012,0.841-0.028,1.259
	c-12.026,13.158-23.905,24.9-35.349,34.942c-1.27,0.067-2.528-0.012-3.792-0.126c-0.406-0.04-0.812-0.069-1.224-0.12
	c-0.063-0.006-0.132-0.029-0.195-0.034c-0.011-0.069-0.04-0.132-0.051-0.2c-0.372-2.048-0.852-4.05-1.481-5.999
	c-0.051-0.166-0.125-0.32-0.177-0.486c-0.537-1.612-1.167-3.18-1.87-4.712c-0.274-0.601-0.561-1.184-0.858-1.773
	c-0.56-1.104-1.167-2.173-1.813-3.226c-0.372-0.612-0.715-1.235-1.109-1.823c-0.916-1.361-1.91-2.666-2.957-3.924
	c-0.583-0.698-1.213-1.355-1.836-2.02c-0.646-0.686-1.304-1.361-1.984-2.013c-0.652-0.617-1.298-1.224-1.985-1.802
	c-1.046-0.886-2.139-1.722-3.26-2.516c-0.543-0.384-1.086-0.767-1.647-1.127c-1.373-0.893-2.791-1.704-4.254-2.453
	c-0.418-0.212-0.835-0.406-1.259-0.606c-1.681-0.801-3.402-1.51-5.181-2.11C119.112,181.18,119.066,181.157,119.02,181.14z
	 M103.968,190.112c2.813,0,5.542,0.355,8.172,0.967c0.012,0,0.023,0.011,0.035,0.011c3.66,0.848,7.057,2.26,10.168,4.084
	c0.32,0.188,0.641,0.384,0.961,0.583c1.333,0.842,2.613,1.75,3.814,2.746c0.343,0.285,0.652,0.6,0.984,0.892
	c0.892,0.801,1.744,1.642,2.551,2.527c0.354,0.384,0.721,0.761,1.052,1.161c0.955,1.138,1.83,2.339,2.642,3.586
	c0.257,0.395,0.492,0.8,0.732,1.207c0.812,1.372,1.579,2.779,2.208,4.26c0.005,0.018,0.017,0.035,0.022,0.052
	c0.692,1.642,1.247,3.357,1.693,5.106c0.046,0.178,0.091,0.355,0.137,0.538c0.429,1.796,0.744,3.637,0.898,5.524
	c0,0,0,0.006,0,0.012c0.08,0.983,0.149,1.974,0.149,2.979c0,1.756-0.132,3.522-0.383,5.261c-5.473,4.164-11.032,8.064-16.585,11.547
	c-1.075,0.675-2.156,1.367-3.22,2.007c-1.201,0.721-2.402,1.391-3.603,2.064c-1.149,0.652-2.31,1.339-3.448,1.945
	c-0.023,0.011-0.052,0.011-0.075,0.022c-1.172,0.624-2.345,1.201-3.517,1.778c-1.264,0.629-2.528,1.259-3.769,1.83
	c-0.006,0.006-0.017,0-0.028,0.006h-0.006v0.006c-1.567,0.715-3.134,1.406-4.695,2.042c-0.023,0.012-0.04,0.028-0.069,0.04
	c-0.88,0.359-1.738,0.663-2.607,0.989c-1.47,0.555-2.934,1.104-4.398,1.584c-0.766,0.252-1.521,0.452-2.282,0.675h-0.012
	c-1.063,0.32-2.11,0.612-3.146,0.881c-0.949-0.452-1.818-1.007-2.716-1.533c-0.515-0.303-1.058-0.555-1.556-0.881
	c-0.595-0.394-1.126-0.869-1.692-1.292c-0.744-0.555-1.51-1.075-2.208-1.688c-2.471-2.173-4.661-4.694-6.508-7.52
	c-0.097-0.144-0.223-0.258-0.332-0.389c-3.586-5.668-5.593-12.342-5.593-19.37C67.745,206.366,83.992,190.112,103.968,190.112z
	 M69.054,258.733c0.126,0.132,0.269,0.246,0.395,0.378c0.767,0.812,1.55,1.612,2.368,2.361c-1.075,0.138-2.917,0.332-5.044,0.47
	C67.499,260.919,68.202,259.923,69.054,258.733z M276.971,149.395c-0.533,0.789-54.062,79.201-116.168,126.484
	c-35.011,26.667-73.036,25.694-99.577-2.356c0.269,0.006,0.543,0.023,0.813,0.023c5.101,0,9.876-0.55,11.151-0.71
	c4.913-0.143,9.997-0.834,15.39-2.092c0.2-0.023,0.406-0.058,0.601-0.104h0.005c2.591-0.606,5.233-1.379,7.903-2.248
	c0.035-0.012,0.075-0.006,0.109-0.018c0.841-0.269,1.687-0.605,2.528-0.909c1.755-0.617,3.523-1.275,5.313-2.007
	c0.051-0.017,0.103-0.012,0.154-0.028c1.018-0.418,2.03-0.881,3.048-1.327c1.567-0.686,3.146-1.425,4.735-2.19
	c0.045-0.022,0.097-0.011,0.148-0.034c0.875-0.429,1.75-0.887,2.619-1.332c0.818-0.418,1.625-0.807,2.448-1.241
	c0.023-0.012,0.051-0.023,0.074-0.041c0.012-0.006,0.017-0.011,0.023-0.017c0.784-0.418,1.578-0.886,2.368-1.326
	c0.075-0.04,0.16-0.052,0.234-0.092c0.018-0.012,0.04-0.023,0.058-0.04c0.812-0.445,1.618-0.932,2.424-1.39
	c0.755-0.435,1.499-0.841,2.253-1.293c0.189-0.114,0.383-0.211,0.572-0.325c0.04-0.023,0.057-0.069,0.097-0.092
	c0.566-0.343,1.144-0.715,1.71-1.07c0.057-0.033,0.126-0.045,0.183-0.079c0.274-0.172,0.549-0.344,0.818-0.516
	c0.349-0.217,0.681-0.45,1.029-0.674c1.761-1.116,3.535-2.271,5.318-3.478c1.693-1.126,3.363-2.281,5.027-3.448
	c0.132-0.092,0.263-0.188,0.395-0.28c40.587-28.594,73.727-68.684,101.132-104.884c0.406-0.538,0.829-1.098,1.235-1.642
	c0.126-0.166,0.252-0.326,0.378-0.491c0.011-0.012,0.011-0.023,0.022-0.035c0.498-0.658,1.001-1.333,1.504-1.996
	c0.006-0.005,0.012-0.011,0.018-0.022c0.068-0.092,0.126-0.171,0.189-0.257c15.669-20.754,32.322-43.738,42.376-69.896
	C291.65,82.529,297.352,116.951,276.971,149.395z"/>
</svg>
