<?xml version="1.0" encoding="utf-8"?>
<!-- Generator: Adobe Illustrator 16.0.0, SVG Export Plug-In . SVG Version: 6.00 Build 0)  -->
<!DOCTYPE svg PUBLIC "-//W3C//DTD SVG 1.1 Tiny//EN" "http://www.w3.org/Graphics/SVG/1.1/DTD/svg11-tiny.dtd">
<svg version="1.1" baseProfile="tiny" id="Layer_1" xmlns="http://www.w3.org/2000/svg" xmlns:xlink="http://www.w3.org/1999/xlink"
	 x="0px" y="0px" width="350px" height="350px" viewBox="0 0 350 350" overflow="scroll" xml:space="preserve">
<g>
	<path fill="#AD6F3F" d="M79.964,89.566c8.524-3.776,24.091,9.383,31.153,16.001c2.937-1.295,6.061-2.491,9.384-3.581
		C109.061,91.309,84.488,70.7,70.978,76.684c-16.179,7.167-3.105,52.958,3.794,66.172c1.628-4.765,3.845-9.342,6.737-13.651
		C77.094,119.271,70.467,93.772,79.964,89.566z"/>
	<path fill="#593514" d="M79.964,89.566c-9.497,4.206-2.87,29.706,1.545,39.639c6.343-9.45,15.928-17.61,29.608-23.638
		C104.055,98.949,88.488,85.79,79.964,89.566z"/>
	<path fill="#AD6F3F" d="M279.022,76.684c-13.333-5.906-37.436,14.086-49.063,24.875c3.358,1.055,6.526,2.212,9.5,3.472
		c7.302-6.763,22.277-19.141,30.577-15.464c9.02,3.995,3.494,27.195-0.865,38.026c2.989,4.14,5.328,8.544,7.092,13.139
		C283.318,125.325,294.423,83.505,279.022,76.684z"/>
	<path fill="#593514" d="M269.172,127.592c4.359-10.832,9.885-34.032,0.865-38.026c-8.3-3.676-23.275,8.701-30.577,15.464
		C253.001,110.768,262.64,118.549,269.172,127.592z"/>
	<path fill="#CC834C" d="M239.46,105.03c-2.974-1.26-6.142-2.417-9.5-3.472c-14.263-4.48-32.063-7.04-54.059-7.04
		c-22.69,0-40.918,2.723-55.4,7.468c-3.323,1.089-6.447,2.286-9.384,3.581c-13.68,6.028-23.265,14.188-29.608,23.638
		c-2.892,4.309-5.109,8.886-6.737,13.651c-12.961,37.931,11.547,87.748,32.245,108.97c22.691,23.267,68.884,22.558,68.884,22.558
		s46.193,0.709,68.884-22.558c21.087-21.622,46.131-72.921,31.479-111.095c-1.764-4.594-4.103-8.999-7.092-13.139
		C262.64,118.549,253.001,110.768,239.46,105.03z M137.001,162.276c-4.364,0-7.902-3.538-7.902-7.901
		c0-4.364,3.538-7.902,7.902-7.902c4.363,0,7.901,3.538,7.901,7.902C144.903,158.738,141.365,162.276,137.001,162.276z
		 M175.901,255.878c-17.456,0-31.606-19.23-31.606-42.951c0-23.722,14.15-42.952,31.606-42.952s31.606,19.23,31.606,42.952
		C207.507,236.647,193.356,255.878,175.901,255.878z M215.408,162.276c-4.364,0-7.901-3.538-7.901-7.901
		c0-4.364,3.537-7.902,7.901-7.902s7.901,3.538,7.901,7.902C223.31,158.738,219.772,162.276,215.408,162.276z"/>
	<path fill="#FCF18A" d="M175.901,169.975c-17.456,0-31.606,19.23-31.606,42.952c0,23.721,14.15,42.951,31.606,42.951
		s31.606-19.23,31.606-42.951C207.507,189.205,193.356,169.975,175.901,169.975z M175.698,207.051c-10.535,0-40.52-29.174,0-29.174
		C216.219,177.877,186.233,207.051,175.698,207.051z"/>
	<path fill="#593514" d="M175.698,177.877c-40.52,0-10.535,29.174,0,29.174C186.233,207.051,216.219,177.877,175.698,177.877z"/>
	<circle fill="#593514" cx="137.001" cy="154.374" r="7.902"/>
	<circle fill="#593514" cx="215.408" cy="154.374" r="7.902"/>
</g>
</svg>
