<?xml version="1.0" encoding="utf-8"?>
<!-- Generator: Adobe Illustrator 16.0.0, SVG Export Plug-In . SVG Version: 6.00 Build 0)  -->
<!DOCTYPE svg PUBLIC "-//W3C//DTD SVG 1.1 Tiny//EN" "http://www.w3.org/Graphics/SVG/1.1/DTD/svg11-tiny.dtd">
<svg version="1.1" baseProfile="tiny" id="Layer_1" xmlns="http://www.w3.org/2000/svg" xmlns:xlink="http://www.w3.org/1999/xlink"
	 x="0px" y="0px" width="350px" height="350px" viewBox="0 0 350 350" xml:space="preserve">
<path fill-rule="evenodd" fill="#401312" d="M242.29,80.862c0.994,0.403,3.532-0.864,3.418,0.739
	c2.546,11.414-3.662,19.628-7.516,26.574c6.02,7.769,11.621,15.988,16.395,25.1c-0.233,1.715-0.442,3.458-2.731,2.953
	c2.854,6.268,6.538,11.638,7.514,19.932c-0.07,3.206-4.289-1.007-4.782,0.737c2.757,13.018,10.642,20.491,17.763,28.791
	c0,0.244,0,0.491,0,0.738c-6.093,0.431-3.98,8.86-4.78,14.024c-2.146,13.833-8.58,23.879-19.813,28.054
	c-1.902,0.331,0.535-4.024-1.364-3.692c-8.968,13.195-19.371,24.838-34.159,31.743c-1.509-0.093-0.29-3.132-0.684-4.43
	c-11.98,11.17-27.756,18.236-38.256,31.005c-3.325,0.396-3.197-2.942-5.465-3.69c-14.806,10.357-35.125-21.241-43.723-27.314
	c-0.063,1.16,0.092,2.561-1.366,2.216c-16.454-10.273-28.663-25.134-32.107-49.461c-1.394,0.411-1.341,2.222-2.734,0.74
	c-4.633-13.83-11.69-32.135-6.148-50.199c-2.152-0.359-1.547,2.264-4.099,1.475c2.547-19.394,11.403-31.971,19.812-45.029
	c-11.597-11.893-4.15-40.189,17.079-31.744c0.436-1.61-1.937-2.35,0.683-2.215c6.232,0.647,9.899,4.066,14.348,6.645
	c8.62-7.393,23.437-10.474,36.891-8.86c2.497,0.298,4.477,1.638,6.831,1.478c4.577-0.312,9.316-3.908,14.345-4.429
	c7.747-0.804,13.665,1.319,20.495,2.213c2.111,0.072-2.111,2.882,0,2.953c1.396,0.707,2.702,1.508,4.1,2.215
	c3.997-6.262,10.597-9.71,17.078-13.288c0.456,0,0.912,0,1.368,0C233.954,72.154,241.262,73.117,242.29,80.862z M127.52,215.954
	c1.361-1.894,3.131,1.984,6.149,0.738c-9.437-6.289-15.897-15.794-23.228-24.36c0,1.967,0,3.938,0,5.906
	c-9.311-3.967-11.701-15.409-15.713-25.1c-1.199,0.67-1.249,2.586-2.05,3.692c-3.267-2.378-4.194-7.28-4.781-12.55
	c-2.482,9.33,1.099,18.494,2.734,25.836c2.497,0.486,2.62-1.599,4.78-1.476c0.399,24.668,8.528,40.984,21.862,51.673
	c-0.087-1.322,0.836-1.556,0.683-2.953c12.451,12.877,27.555,22.884,43.04,32.482c3.917-2.902,8.713-4.855,13.664-6.645
	c2.563-0.555,1.488,2.819,3.413,2.952c15.293-8.33,27.54-19.947,39.624-31.742c1.145,1.227,0.545,4.335,0.684,6.644
	c13.228-9.576,23.404-22.446,32.793-36.172c2.046,1.479,2.053,5.163,4.782,5.906c2.459-8.455,2.698-20.419-0.685-28.053
	c0.509-1.664,3.832-0.288,5.465-0.738c-7.244-8.412-12.521-18.951-13.662-33.957c0.21-1.002,1.709-0.612,2.732-0.738
	c-1.729-8.714-6.485-14.153-11.614-19.193c0.628-1.289,2.137-1.628,4.098-1.478c-3.19-6.883-7.704-12.343-12.979-16.977
	c3.837-4.728,2.442-13.701,1.368-20.671c0.291-1.649,3.366-0.298,4.781-0.738c-0.971-3.625-2.192-6.982-4.1-9.595
	c-9.239-0.633-13.349,4.276-17.761,8.857c-2.938-1.195-10.043-1.195-12.981,0c-1.622-0.461,0.106-4.543-1.365-5.168
	c-6.196-1.673-15.257-2.34-20.494,0.739c1.217,15.419,24.405,7.091,32.79,14.763c0.985,2.122,2.051,4.717,6.148,5.168
	c0.891,0.984,0.419,2.228-0.684,2.951c1.884,3.133,6.372,3.45,7.516,7.383c-6.947-1.499-10.157,3.443-17.078,0.738
	c-2.289,2.866-1.65,10.353,0.682,12.548c5.111,0.602,6.513-2.804,10.248-3.689c4.205,5.086,2.778,17.282,0,22.883
	c-0.115,1.602,2.423,0.336,3.415,0.739c-0.102,5.303-2.446,8.184-4.782,11.074c1.326,2.258,2.804,4.354,3.417,7.38
	c3.403-4.932,3.706-13.22,4.099-21.407c0.086-1.631,2.897-0.313,4.1-0.74c-2.188-6.738-4.801-13.021-7.515-19.191
	c10.733,7.101,16.513,19.559,17.078,37.648c-2.2,0.162-2.89-1.305-5.465-0.738c1.499,14.662-2.254,23.648-8.198,30.266
	c-1.369-0.981-1.521-3.277-2.05-5.166c-5.312,20.492-21.304,25.245-30.059,41.339c0,2.707,0,5.413,0,8.121
	c2.887-2.048,3.944-6.073,6.832-8.121c-0.459,17.223-9.334,25.349-20.494,31.004c0.092-4.327,1.592-7.136,1.363-11.811
	c-1.514-1.651-1.849,1.747-3.414,2.215c-3.746-2.104-2.942-9.126-4.781-13.287c-2.62,8.979-4.388,18.881-7.516,27.313
	c-20.31-3.423-33.879-20.462-47.822-33.219c0.167-1.3,1.178-1.685,2.733-1.478c-2.645-5.754-6.751-9.931-8.197-16.979
	c6.459,5.325,15.256,14.519,23.91,19.933c2.909,0.081-3.223-3.282-4.781-5.907C128.51,221.882,128.588,218.416,127.52,215.954z
	 M131.619,93.413c4.243-1.371,11.464,0.4,12.298,5.168c2.841-1.382,7.45-0.846,8.881,1.474c3.642-3.137,7.21-8.829,13.664-6.642
	c1.309,2.187-4.793,2.671-3.417,7.381c7.104-0.919,16.352-1.364,22.545,0.738c-3.808-4.251-6.182-10.053-15.031-8.857
	c-2.302-1.566-1.451-8.396-0.683-11.073c-18.982-2.1-37.112,2.563-44.404,15.502c1.93,0.609,1.769-1.04,3.415-0.74
	c0.107,2.822-0.035,5.376-1.368,6.646C129.463,103.458,134.09,97.887,131.619,93.413z M107.026,86.769
	c-1.498,1.536,0.6,2.386-0.682,3.69c-3.246-0.308-4.929,1.075-7.516,1.476c-0.58,6.778,1.048,11.174,3.417,14.765
	c0.717-4.367-0.266-13.077,5.465-14.026c3.857-0.971,3.212,2.927,6.148,2.952c-0.281-1.777,1.247-1.604,0.683-3.691
	c0.609,0.574,1.543,0.795,2.733,0.739c1.599,2.742,0.45,8.831,0,11.809c2.727-4.681,4.957-9.899,7.514-14.762
	C119.492,87.464,113.94,85.342,107.026,86.769z M204.034,100.794c-6.22-1.061-9.03,1.563-11.613,4.43
	c3.165,0.287,6.809-2.312,12.297-0.741C203.716,102.743,203.275,103.111,204.034,100.794z M135.036,108.914
	c3.466-2.717,13.82-3.661,17.077,0C153.326,99.22,136.127,99.263,135.036,108.914z M198.569,112.604
	c0.606,0.328,1.221,0.649,1.367,1.477c3.888-1.211,6.164-4.166,9.564-5.906C207.091,102.087,200.55,109.317,198.569,112.604z
	 M194.47,116.297c0.72,5.696-1.819,7.875-5.465,8.857c-4.268,0.925-2.301-6.301-6.148-3.691c-2.792,3.934,4.407,2.315,4.1,5.906
	c-1.55,1.771-6.816-0.476-6.834,2.953c3.862,8.462,17.134,2.574,19.131,13.288c1.019,5.465-4.052,15.595-5.467,24.362
	c-3.092,19.183-3.521,41.391-25.277,34.695c2.781-2.41,9.084-1.013,10.25-5.167c-7.437-0.247-16.956-0.361-22.545-4.43
	c-7.23-5.262-13.036-28.932-14.345-44.292c-0.583-6.799,0.991-13.002,0.682-18.456c1.546-2.596,3.005,2.376,4.098,0
	c0.647-3.979,1.6-7.623,3.416-10.334c2.528-0.518,1.704,2.589,2.733,3.691c1.531-0.805,1.201-3.624,2.734-4.429
	c0.281,9.5,13.437,19.448,19.128,9.597c-2.23-1.53-4.025-3.527-8.198-2.955c-2.281-3.051,5.832-3.442,2.731-7.382
	c-3.679-1.269-1.913,3.347-3.416,4.431c-19.98-7.453,4.994-20.178,19.128-14.765c-30.099-10.697-49.605,13.553-45.773,46.508
	c0.798,6.844,4.392,15.113,6.833,24.359c4.188,15.87,9.514,33.128,28.694,31.008c21.2-2.347,19.113-30.226,27.326-53.153
	c2.499-6.977-0.128-20.595-2.733-25.098C199.564,124.52,200.964,117.515,194.47,116.297z M138.451,108.914
	c-1.406,0.943-3.464,1.179-3.416,3.691c1.648,3.102,5.869,7.175,8.881,4.429C142.169,114.247,140.797,111.057,138.451,108.914z
	 M127.52,110.391c-11.335,4.483-21.87,9.833-20.494,28.051c1.813-1.731,1.78-5.458,4.783-5.904
	c1.897,6.449-1.133,13.894,1.366,19.932c1.61-0.017,2.012,1.271,4.099,0.738c2.17,9.956,9.142,14.729,15.029,20.669
	c0.128-5.313-5.216-11.09-5.465-18.454c-1.265,0.109-0.419,2.499-1.366,2.951c-4.999-6.763-11.423-21.753-6.149-32.481
	c3.548,1.825,2.352,8.777,6.831,9.599c1.009-6.295,2.227-12.358,6.149-15.503c-1.092-2.069-3.075,1.036-5.465,0
	C124.923,117.389,126.793,112.586,127.52,110.391z M169.876,112.604c-1.788-1.881-5.708,0.195-6.832,1.477
	C163.79,117.377,166.705,111.479,169.876,112.604z M99.511,158.374c3.083-6.577-3.152-16.839,0-25.836
	c2.923,4.958,2.058,14.016,4.098,19.932c1.395,1.482,1.341-0.327,2.734-0.74c2.692,7.426,5.032,15.232,10.93,19.194
	c-0.156-3.645,0.982-2.443,3.415-2.213c-1.054-1.568-1.966-3.291-2.731-5.168c-0.802,0.12-0.575,1.348-0.683,2.215
	c-5.029-3.178-7.02-9.641-8.199-16.979c-8.489-6.842-5.561-24.56-3.415-36.174c-7.193,6.995-12.638,15.873-16.395,26.575
	c1.357-0.99,3.251-1.407,4.78-2.213c-5.858,17.4,5.65,32.56,17.08,38.387C109.373,170.353,102.063,164.973,99.511,158.374z
	 M158.263,137.704c-0.989,3.645-1.682,11.722,2.05,12.55c0.802-3.807,1.846-7.355,4.781-8.859
	c8.302,4.639,16.526-1.135,24.594,2.953c0.738,2.155,1.528,4.253,1.366,7.382c3.316-1.293,2.066-6.393,2.05-9.595
	C184.306,136.681,168.037,138.393,158.263,137.704z M161.679,182.734c9.321-0.805,14.601,2.13,21.177-2.214
	c2.033-4.693,1.28-12.399,2.05-18.455c-9.196-5.317-13.271,5.176-12.979,14.765c-8.388-1.519,0.08-15.798-6.149-16.98
	C159.431,158.644,155.423,178.412,161.679,182.734z M213.6,162.804c-2.567-0.295-5.799,5.039-8.882,6.643
	c-0.114,1.602,2.422,0.336,3.415,0.739c-1.542,17.526-9.543,28.072-15.712,40.602c6.963-6.5,12.693-14.335,15.712-25.099
	c0.919,0.485,1.272,1.577,1.368,2.953c2.021-1.506,1.796-5.439,3.413-7.382c0.116-1.602-2.422-0.336-3.413-0.739
	C211.549,175.354,211.434,167.846,213.6,162.804z M189.005,179.043c-6.522,11.351-28.648,11.809-36.892,1.478
	c0.275,5.609,3.232,8.319,6.15,11.072c12.25,1.464,19.638-3.211,28.01-1.476C188.678,188.041,189.492,184.245,189.005,179.043z
	 M126.838,193.07c2.693,7.18,10.094,15.664,19.128,18.456c-1.51-3.781-3.653-6.88-4.783-11.075
	C134.924,202.251,131.37,195.521,126.838,193.07z"/>
</svg>
