<?xml version="1.0" encoding="utf-8"?>
<!-- Generator: Adobe Illustrator 16.0.0, SVG Export Plug-In . SVG Version: 6.00 Build 0)  -->
<!DOCTYPE svg PUBLIC "-//W3C//DTD SVG 1.1 Tiny//EN" "http://www.w3.org/Graphics/SVG/1.1/DTD/svg11-tiny.dtd">
<svg version="1.1" baseProfile="tiny" id="Layer_1" xmlns="http://www.w3.org/2000/svg" xmlns:xlink="http://www.w3.org/1999/xlink"
	 x="0px" y="0px" width="350px" height="350px" viewBox="0 0 350 350" overflow="scroll" xml:space="preserve">
<g>
	<path fill="#3C2415" d="M270.392,204.752c1.423,0.285,2.427-0.127,2.427-0.127c-3.344-1.991-4.208-6.067-4.419-8.494l1.578,0.524
		c-3.625-14.723-12.612-18.766-16.528-19.847c-0.141-0.122-0.542-0.499-0.93-1.109c2.288,0.366,5.125-0.451,5.125-0.451
		c-4.459-0.475-5.226-5.408-5.226-5.408c-0.488-3.002-1.835-5.233-3.036-6.703l2.475,0.534c-2.505-5.11-5.989-8.549-9.609-10.869
		l2.778-0.499c-4.111-3.232-9.228-4.642-13.217-5.251l-0.122-1.305l2.19-6.158l0.037-0.122c1.244-4.845-1.038-6.868-1.302-7.083
		l-0.216-0.145c-0.586-0.32-1.507-1.217-2.201-1.971c3.45-9.386-0.825-19.926-1.538-21.567c-0.309-2.687,1.19-6.149,1.206-6.183
		l0.035-0.088c1.218-3.348,0.052-7.368-0.604-9.161c1.848-2.039,2.48-4.559,2.635-6.637l1.058,1.087l0.756-2.181
		c2.565-7.401,0.027-11.725-1.354-14.075c-3.74-6.06-8.927-6.964-11.687-6.964c-1.554,0-3.108,0.279-4.492,0.806
		c-4.088,1.559-6.521,5.892-7.597,8.307c-6.156-3.698-12.002-5.571-17.397-5.571c-4.777,0-7.891,1.503-9.218,2.308
		c-3.781-1.476-7.651-2.224-11.512-2.224c-9.374,0-16.354,4.314-19.293,6.505c-1.32-2.623-4.142-6.667-9.319-7.794
		c-1.623-0.353-3.223-0.532-4.755-0.532c-7.225,0-11.995,3.952-14.048,7.649c-6.267,11.282,0.191,19.014,0.47,19.337l1.09,1.268
		l0.973-1.155c0.438,0.967,0.972,1.799,1.49,2.479c-2.36,5.263-7.758,19.786-2.688,33.129l1.001,2.637l0.923-1.435
		c0.163,0.835,0.354,1.634,0.565,2.404c-2.319,1.315-14.596,8.061-25.027,9.771l3.866,1.672c-0.465,0.251-0.93,0.504-1.394,0.759
		c-6.527,2.416-18.009,7.096-22.68,11.681l4.572-0.277c-1.109,0.927-1.95,1.768-2.443,2.487c-0.172,0.25-0.303,0.485-0.387,0.705
		c-0.719,1.857-1.588,4.817-2.39,8.133c-2.16,7.61-4.628,18.388-3.589,25.05l2.507-3.627c1.351,5.462,4.087,12.668,9.604,17.834
		l0.334-2.608c0.16,0.22,0.319,0.438,0.478,0.652c2.017,2.869,5.107,7.957,4.783,11.822c0,0,1.236-1.435,1.721-3.753
		c0.078,0.223,0.166,0.463,0.261,0.717c0.655,3.424,2.502,8.066,7.221,12.713v-2.629c0.557,0.309,1.145,0.552,1.764,0.711
		c0,0,9.235,3.077,10.388,7.502c0,0,1.732,7.886,12.312,10.001c0,0,12.31,2.692,14.233,7.309c0,0,0.577,1.156,0,4.04
		c0,0-3.847,5.77,5,8.849c0,0,2.693,2.116,0,7.31c0,0-1.453,5.77,1.196,9.426c0,0,50.738,13.078,80.168,2.5
		c0,0-1.153-8.946-1.779-11.396c0,0-0.192-2.55,1.25-5.915c0,0,4.857-8.944,5.817-15.964c0,0,7.985-1.156,11.158-3.08
		c0,0,2.979-1.346,8.847,0.097c0,0,0.597,0.183,1.506,0.259l-0.354,1.853c7.484-0.508,9.285-7.133,9.72-10.21
		c0.712,1.34,2.232,2.214,2.232,2.214c-1.015-2.197,1.685-13.435,3.011-18.607l1.828,1.368c0.599-7.852-0.347-12.8-1.641-15.905
		C270.815,205.633,270.618,205.189,270.392,204.752z M231.477,184.265l-8.747-4.972c0,0,7.883-1.211,3.677-17.909
		c0.194-0.964,0.378-1.86,0.514-2.515c2.522,3.887,6.159,10.935,4.657,17.514c0,0,2.309-3.988,8.85-0.744
		C240.427,175.639,233.387,176.987,231.477,184.265z"/>
	<path fill="#C49A6C" d="M187.594,173.394l-14.489,15.193c0,0-0.329,2.431,0,3.145c0.789,1.719,6.014,3.446,8.665,1.68
		c0.574-0.384,14.543-12.066,14.543-12.066s1.732-3.27,0.708-5.449c0,0-1.03-2.102-1.667-2.502
		C193.709,172.367,190.157,172.691,187.594,173.394z"/>
	<path fill="#C49A6C" d="M128.606,138.848c0,0-37.712,15.577-40.598,26.155c0,0-3.271,11.733-2.694,16.156
		c0,0,2.707,19.419,16.941,23.459c0,0,16.349,5.117,23.465,4.868c0,0-13.272,4.557-18.849,3.789c0,0,12.118,4.615,15.771,3.076
		c0,0,3.848,10.581,6.157,12.89c0,0,9.04,10.386,21.733,7.307c0,0,11.159-1.168,16.159,0.571c5.001,1.738,18.452,4.996,22.373-3.364
		c2.378-5.072,3.547-12.331-0.316-22.404c0,0,7.438,6.157,6.411,15.389c0,0,3.656-4.617,5.002-7.309c0,0-1.155,14.041-7.694,18.851
		c0,0,12.118,1.538,21.158-6.348l7.118-5.965c0,0,8.461-10.77,9.426-20.581c0,0-5.195,13.273-18.851,17.313
		c0,0,18.658-15.389,20.965-30.006c0,0-3.462-10.003-15.389-11.543c0,0-7.156-1.041-10.811,1.268c0,0,9.664,2.5,9.272,12.198
		c0,0-6.701-12.73-17.516-8.297l-15.111,9.865c0,0-2.383,1.413-4.688,0.644c0,0-5.346-0.903-6.794-1.911
		c-0.494-0.344-1.417-1.949-1.417-1.949s-4.965-0.372-7.946,1.648l-5.099,2.691l2.117-3.27l-6.732-5.452l-0.577-3.491
		c0,0-7.404,2.115-7.887,2.403c0,0-8.558-5.577-8.463-7.597v-4.232l-2.613-0.5c-0.705,10.584-8.447,14.83-8.447,14.83
		c2.223-6.926,2.934-13.886,3.164-17.638c-1.542-2.532-3.745-6.871-2.972-9.963l6.951-8.525c0,0-2.556-6.405-10.912-9.1
		c0,0,8.491-3.604,15.019,4.063l0.554-0.536c-0.962-1.659-1.818-3.331-2.561-5.014C131.783,142.248,130.03,140.807,128.606,138.848z
		"/>
	<path fill="#C49A6C" d="M216.512,236.548c0,0,12.375,8.528,28.403,1.476c0,0,11.541,2.564,17.056-0.641c0,0,0,4.617-4.745,4.359
		c0,0-8.463-2.051-10.899-0.898c0,0-14.619,9.363-31.803-2.947L216.512,236.548z"/>
	<path fill="#C49A6C" d="M128.606,164.131c0,0,0.461,4.512,2.041,5.791c1.199,0.97,7.536,0.885,7.536,0.885l12.166-10.178
		c-8.43-12.737-13.123-6.028-16.052-5.168C131.412,158.908,128.814,162.426,128.606,164.131z"/>
	<path fill="#C49A6C" d="M152.397,163.752l-12.73,10.571c0,0-0.192,2.406,0,4.04c0,0,3.839,3.796,5.695,4.41
		c1.611,0.536,5.554-1.432,7.092-2.393l18.591-16.296c-4.327,1.079-7.563-3.582-11.589-4.025
		C157.375,159.83,155.224,162.015,152.397,163.752z"/>
	<path fill="#CBB92D" d="M170.766,235.745"/>
	<path fill="#C49A6C" d="M266.329,205.581c0,0-5.814-6.318-16.542-7.694c0,0,8.921-3.157,15.01,1.938c0,0,0.954-5.304-0.392-6.745
		c0,0-3.846-9.522-11.637-12.6c0,0-4.039-2.31-4.135-5.963c0,0-0.496-13.865-5.979-17.327c0,0-5.28-4.154-10.423-5.573l0.225,2.424
		l-0.092,0.281c-0.102,0.308-1.073,2.897-5.396,4.31c-0.149,0.722-0.379,1.839-0.619,3.031l1.254,4.551
		c0,0,3.59,10.129-4.874,13.079c0,0,7.529,3.173,8.747,4.972c0,0,1.91-7.52,8.95-8.625c0,0-5.899,6.604-6.541,11.605
		c0,0,5.386-6.54,10.388-6.154c0,0-8.206,7.179-9.617,12.308v2.31c0,0,11.026-9.617,22.569-2.436c0,0-11.515-3.271-23.34,8.719
		c0,0-0.151,8.876-2.438,13.72l-3.974,9.683l6.731-6.154c0,0,2.507,9.544,23.02,8.464c0,0-6.065,5.334-17.247,3.269
		c0,0,9.188,6.23,23.273,2.117C263.252,233.088,273.063,211.16,266.329,205.581z"/>
	<path fill="#A57F59" d="M171.931,231.019c-7.345-4.255-24.567-2.837-24.567-2.837c-2.525,0.316-4.724,0.103-6.643-0.46
		c6.813-0.623,11.488-6.041,11.488-6.041c-13.156,4.089-17.729-6.029-19.052-10.348c3.724-2,7.275-4.662,7.275-4.662
		c-12.154,0.387-22.057-2.809-28.555-5.797c10.444,1.359,16.557-2.447,16.557-2.447c-26.926-1.658-34.463-23.044-36.438-31.93
		c0.633-5.023,1.734-8.597,1.739-8.604c-2.99,2.463-5.123,4.896-5.728,7.11c0,0-3.271,11.733-2.694,16.156
		c0,0,2.707,19.419,16.941,23.459c0,0,16.349,5.117,23.465,4.868c0,0-13.272,4.557-18.849,3.789c0,0,12.118,4.615,15.771,3.076
		c0,0,3.848,10.581,6.157,12.89c0,0,9.04,10.386,21.733,7.307c0,0,11.159-1.168,16.159,0.571c5.001,1.738,18.452,4.996,22.373-3.364
		c0.063-0.135,0.121-0.275,0.182-0.412l1.785-6.288l0,0C187.422,240.337,171.931,231.019,171.931,231.019z"/>
	<path fill="#A57F59" d="M230.169,205.388c0,0-1.407,11.93-9.426,20.581c0,0-5.021,4.638-7.887,6.607c0,0-4.481,7.589-20.39,5.705
		c0,0,2.528-0.879,5.631-9.005C198.098,229.276,221.056,233.205,230.169,205.388z"/>
	<path fill="#A57F59" d="M245.711,180.194c0,0-8.536,5.223-11.055,13.203v2.753c0,0,10.16-9.927,22.569-2.879
		c0,0-8.6-8.732-16.046-5.1C241.18,188.172,243.148,182.766,245.711,180.194z"/>
	<path fill="#A57F59" d="M243.807,175.054c0,0-6.842-0.175-9.921,12.19l4.561-4.143
		C238.446,183.102,238.488,178.953,243.807,175.054z"/>
	<path fill="#A57F59" d="M158.901,194.039l-6.732-5.452l-0.577-3.491l-7.887,2.403c-1.529-0.968-8.463-7.274-8.463-7.274v-4.554
		l-2.61-0.5c-0.076,3.37-1.478,6.464-1.478,6.464l8.419,7.856c-1.438,0.813-2.82,1.99-3.911,3.705c0,0,8.61-3.192,17.812-1.076
		L158.901,194.039z"/>
	<path fill="#A57F59" d="M155.224,198.558c0,0,8.705-7.592,14.605-5.589l1.417,1.949c0,0,5.519,2.31,8.606,2.127
		c0,0-6.45,3.599-12.497,0.053C167.355,197.098,161.312,195.41,155.224,198.558z"/>
	<path fill="#C49A6C" d="M223.379,167.666c0.189,1.617-0.293,2.54-0.649,3.936c-0.65,2.557-9.873,6.025-9.873,6.025l1.41,1.154
		c5.899-1.283,8.14-3.438,9.873-5.699c1.315-1.713,1.371-4.079,0.916-6.387l-0.082,0.058
		C224.915,166.795,224.352,167.188,223.379,167.666z"/>
	<path fill="#C49A6C" d="M174.386,166.535l-19.138,18.175c0,0-0.289,2.309,1.153,3.176c0,0,3.477,2.846,4.906,2.979
		c2.377,0.223,8.944-3.366,8.944-3.366l15.771-16.444c0,0,1.27-5.572-9.215-0.246c0,0,2.908-3.613,4.654-4.796
		c-1.03-0.06-2.363-0.173-3.85-0.384C176.531,165.773,175.403,166.045,174.386,166.535z"/>
	<path fill="#A57F59" d="M222.729,179.293l8.747,4.972c1.91-7.277,8.95-8.625,8.95-8.625c-6.541-3.244-8.85,0.744-8.85,0.744
		c1.502-6.579-2.135-13.626-4.657-17.514c-0.136,0.655-0.319,1.551-0.514,2.515C230.612,178.082,222.729,179.293,222.729,179.293z"
		/>
	<path fill="#C49A6C" d="M224.921,104.747c1.154-2.69,2.509-7.265-1.396-11.169c0,0-13.662-18.434-28.701-19.684
		c0,0-7.543-0.313-9.729,0.625c0,0,14.528,7.967,14.06,24.526c0,0-5.454-19.088-18.434-23.901c0,0-12.967-7.187-29.371,4.999
		c0,0,0.625,2.5,0,5.155c0,0-2.655-11.404-9.998-13.748c0,0-5.446-1.37-10.581,1.241c-5.09,2.587-6.731,6.863-5.979,14.851
		l1.876-1.563c0,0,1.25,6.718,6.404,9.999c0,0-6.579,14.852,1.249,32.806c0,0,6.128,12.337,9.061,14.685l1.406-6.405
		c0,0,4.688,11.166,8.592,12.967l0.313-8.749c0,0,9.841,14.216,20.152,15.622c0,0-1.718,1.563-2.967,2.343
		c0,0,2.343,1.406,14.06,1.406c0,0,5.865-0.938,9.885,4.842c0,0,4.314-0.25,11.048,0.781c0,0,4.999,1.563,9.843-5.467
		c0,0,0.624,2.538-0.938,4.374c0,0,5.624-0.313,6.405-2.343l2.031-6.405l-2.188,0.156c0,0-12.186,6.092-20.933,2.499l-1.407-3.28
		c0,0-15.063,4.374-20.888-8.749c0,0-1.518-3.281,0-9.373v-3.281c0,0,10.664-3.437,17.026-13.747c0,0,3.236-7.342,10.736-6.874
		c0,0,1.092,0.157,1.718,1.25c0,0,3.322,4.606,6.98,8.162c2.256,2.194,7.041,7.147,11.669,5.898c0,0,3.221-11.716-1.31-17.965
		C224.618,111.23,223.039,109.129,224.921,104.747z"/>
	<path fill="#F6DEB7" d="M223.213,131.538c0,0-6.563,4.218-10.155,2.656c0,0-4.062,5.156,2.968,9.217c0,0,6.719,3.906,5.312,7.966
		c0,0-1.874,2.968-5.312,4.53c0,0-9.345,2.265-14.841,1.406c0,0-3.281-17.964-20.777-20.932c0,0,10.078-1.543,17.029-13.436
		c1.366-2.339,1.824-5.936,9.061-5.936C206.497,117.01,214.933,131.381,223.213,131.538z"/>
	<image width="64" height="67" xlink:href="1531A179.png"  transform="matrix(0.24 0 0 0.24 214.9316 132.7871)">
	</image>
	<path fill="#C49A6C" d="M227.586,148.174c0,0-2.889,3.125-5,4.453c0,0-0.233,1.016-0.546,2.187c0,0,4.062-0.546,5.546-1.719
		C227.586,153.095,227.858,151.081,227.586,148.174z"/>
	<path fill="#3C2415" d="M193.452,114.197c0,0-2.498,9.294-10.153,9.139c0,0-3.518,0-8.281-3.124c0,0,8.124,8.669,14.139,3.827
		C189.156,124.039,193.141,121.617,193.452,114.197z"/>
	<g>
		<path fill="#3C2415" d="M194.824,105.918c0,0-15.354-6.093-20.196-3.203c0,0-3.983,1.463-3.046,5.535c0,0-5.627-7.8,3.435-9.362
			C175.018,98.888,184.4,97.17,194.824,105.918z"/>
		<path fill="#3C2415" d="M222.586,99.357c0,0-0.762-6.312-6.561-3.437c-2.561,1.27-4.579,1.953-7.888,8.28
			c0,0,5.39-4.457,9.451-5.937C217.589,98.263,220.869,96.936,222.586,99.357z"/>
	</g>
	<path fill="#3C2415" d="M201.811,102.56c0,0,3.982,11.141,5.676,12.858l-3.705-0.498
		C203.781,114.92,200.833,107.422,201.811,102.56z"/>
	<path fill="#3C2415" d="M174.199,134.876c0,0-4.112,3.283-2.939,9.535c0.405,2.166,2.43,5.678,5.867,7.083
		c0,0-2.348-1.992-3.583-6.16C172.854,143.006,172.373,138.87,174.199,134.876z"/>
	<path fill="#FFFFFF" d="M197.749,154.814c0,0-8.593,0.703-12.265-2.108c0,0-8.201-4.687-4.217-11.951c0,0,4.836-2.041,12.185,6.482
		C193.452,147.237,197.357,152.158,197.749,154.814z"/>
	<path fill="#3C2415" d="M190.807,149.883c0,0-5.904-5.119-11.912-5.683v-2.949C178.895,141.251,185.925,142.659,190.807,149.883z"
		/>
	<path fill="#C49A6C" d="M230.492,80.965c0,0,2.179-8.771-7.906-11.193c-3.066-0.731-7.184-0.826-10.319,8.417
		c0,0,10.479,6.592,13.289,11.951c0,0,3.826-2.655,1.874-11.169C227.43,78.97,228.437,79.808,230.492,80.965z"/>
	<path fill="#3C2415" d="M144.087,82.407c0,0-10.153,9.592-11.534,15.056l-2.058-1.114C130.496,96.35,134.021,86.59,144.087,82.407z
		"/>
	<path fill="#3C2415" d="M225.556,81.157c0,0-0.156-7.732-6.562-6.639c0,0-3.905,0.724-3.632,5.947c0,0,5.613,4.675,7.679,6.322
		c0,0,1.421-4.101,0.64-7.052C223.681,79.735,225.242,79.83,225.556,81.157z"/>
	<path fill="#3C2415" d="M143.606,82.872c0,0-6.049-10.853-13.657-4.917c0,0-2.735,2.344-1.094,7.499l1.006-3.359
		c0,0,0.282,5.491,4.013,8.37C133.874,90.464,140.95,83.34,143.606,82.872z"/>
	<path fill="#DBC19C" d="M140.952,84.001c0,0-3.66-7.333-7.096-5.265c-2.251,1.354-3.224,3.999,1.2,10.435L140.952,84.001z"/>
	<path fill="#DBC19C" d="M221.406,84.833c0,0,1.327-4.983-0.954-7.502c0,0-2.941-1.797-3.332,4.607L221.406,84.833z"/>
	<g>
		<path fill="#3C2415" d="M192.593,110.995c0,0-2.576,9.139-9.763,8.436c0,0-5.469-1.406-7.811-7.576c0,0,2.108-5.273,11.794-3.593
			C188.388,108.535,190.329,108.964,192.593,110.995z"/>
		<path fill="#FFFFFF" d="M190.485,111.698c0,0-6.679-3.749-13.358,0.703C177.127,112.401,183.688,124,190.485,111.698z"/>
		<path fill="#3C2415" d="M187.263,110.222c0,0-0.063,5.254-3.456,5.577c0,0-3.574,1.048-5.039-4.69
			C178.768,111.109,183.953,109.238,187.263,110.222z"/>
	</g>
	<path fill="#A57F59" d="M144.604,81.587l-0.998,1.285c0,0-4.555-7.966-10.907-6.403c0,0-3.544,0.59-4.167,4.124
		c0,0-0.286-7.661,9.297-5.917C140.314,75.127,143.198,77.757,144.604,81.587z"/>
	<path fill="#A57F59" d="M199.155,99.045c0,0-0.812-19.771-11.238-25.033c0,0,0,0-2.821,0.507
		C185.096,74.519,199.027,82.407,199.155,99.045z"/>
	<path fill="#A57F59" d="M152.057,82.407c0,0,16.121-10.448,30.851-6.284c0,0-8.295-4.234-14.471-2.976
		c0,0-6.842-0.034-17.086,6.995c0,0,0.278,1.989,0.276,2.459L152.057,82.407z"/>
	<path fill="#DBC19C" d="M180.385,136.381c20.981-3.086,23.188,18.433,23.188,18.433c8.896,0.937,17.903-4.324,17.92-4.334
		c-0.02,0.298-0.075,0.598-0.18,0.897c0,0-1.874,2.968-5.312,4.53c0,0-9.346,2.265-14.841,1.406
		C201.161,157.313,197.881,139.349,180.385,136.381z"/>
	<g>
		<path fill="#3C2415" d="M221.104,104.512c0,0-7.198-3.689-11.794,4.452c0,0,2.137,6.91,6.624,6.718
			c1.686-0.072,4.623-0.079,5.56-5.39c0,0-1.577,3.497-4.775,3.671c-1.351,0.074-3.036,0.079-4.519-2.655
			c0,0,5.546,3.433,8.045-1.76C220.244,109.548,221.259,106.621,221.104,104.512z"/>
		<path fill="#FFFFFF" d="M219.916,105.43c0,0-6.85-0.703-7.966,4.012C211.95,109.442,218.16,115.155,219.916,105.43z"/>
		<path fill="#3C2415" d="M216.963,105.12c0,0,1.23,3.469-0.644,4.154c0,0-2.216,0.658-3.1-2.345
			C213.22,106.929,214.68,105.61,216.963,105.12z"/>
	</g>
	<path fill="#A57F59" d="M223.213,156.533c0,0-1.251,3.752-3.76,5.741c-1.003,0.794-2.669,1.519-3.961,1.703
		c0,0-0.08,0.582-0.716,1.304c0,0,4.313,0.326,6.199-1.796C220.976,163.484,221.563,162.762,223.213,156.533z"/>
	<path fill="#A57F59" d="M215.715,160.907c0,0-4.269,4.215-8.311,4.392c0,0-8.436-1.698-12.302-0.994c0,0-2.572-2.3-4.859-2.645
		c0,0,3.246,2.117,4.581,3.933c0,0,7.099,0.198,10.661,0.724c0,0,2.27,0.975,5.248-0.721
		C210.733,165.596,214.628,163.418,215.715,160.907z"/>
	<path fill="#A57F59" d="M199.372,157.508c0,0-10.913,2.394-17.053-4.309c0,0,7.822,4.623,16.366,2.709L199.372,157.508z"/>
	<path fill="#A57F59" d="M150.992,128.402c0,0-1.292,5.948-0.979,10.166c-3.27-4.438-5.938-17.028-5.938-17.028l-3.123,9.842
		c-3.75-9.217-1.562-21.159-1.562-21.159c-1.815,1.622-2.871,4.303-3.474,6.561c-3.843-18.428,3.761-29.52,4.885-31.03
		c-0.189,0.209-0.429,0.477-0.698,0.778c0.001-0.001,0.002-0.001,0.002-0.002c0,0-15.486,13.156-11.775,33.325l2.107-2.749
		c0.072,3.233,0.503,7.879,2.098,12.276l0.905-2.509c0.05,0.123,0.095,0.246,0.147,0.37c0.293,3.143,1.167,7.916,3.703,12.235
		l0.84-3.179c1.75,3.08,3.689,6.027,5.242,7.27l1.405-6.405c0,0,4.687,11.166,8.592,12.967l0.312-8.749
		c0,0,9.841,14.216,20.153,15.622C159.425,149.137,150.992,128.402,150.992,128.402z"/>
	<g>
		<path fill="#3C2415" d="M140.212,172.335c0,0,7.15,3.369,7.978,5.496c0,0,2.481-2.422,4.018-4.018c0,0-1.773-2.541-5.023-3.604
			c0,0,3.368,2.483,3.31,3.546l-1.951,1.654c0,0-2.718-2.955-6.56-4.197L140.212,172.335z"/>
		<path fill="#3C2415" d="M128.435,161.628c0,0,7.15,3.369,7.979,5.497c0,0,2.482-2.424,4.018-4.019c0,0-1.774-2.541-5.026-3.604
			c0,0,3.37,2.481,3.312,3.546l-1.951,1.653c0,0-2.718-2.956-6.559-4.195L128.435,161.628z"/>
		<path fill="#3C2415" d="M155.36,182.352c0,0,7.149,3.368,7.977,5.496c0,0,2.483-2.423,4.019-4.019c0,0-1.773-2.541-5.024-3.604
			c0,0,3.369,2.481,3.31,3.546l-1.95,1.654c0,0-2.717-2.956-6.56-4.195L155.36,182.352z"/>
		<path fill="#3C2415" d="M172.958,187.401c0,0,5.8,1.769,6.665,3.291c0,0,1.619-2.113,2.607-3.497c0,0-1.627-1.732-4.213-2.181
			c0,0,2.833,1.514,2.905,2.328l-1.298,1.471c0,0-2.392-1.943-5.446-2.46L172.958,187.401z"/>
	</g>
</g>
</svg>
