<?xml version="1.0" encoding="utf-8"?>
<!-- Generator: Adobe Illustrator 16.0.0, SVG Export Plug-In . SVG Version: 6.00 Build 0)  -->
<!DOCTYPE svg PUBLIC "-//W3C//DTD SVG 1.1//EN" "http://www.w3.org/Graphics/SVG/1.1/DTD/svg11.dtd">
<svg version="1.1" id="Layer_1" xmlns="http://www.w3.org/2000/svg" xmlns:xlink="http://www.w3.org/1999/xlink" x="0px" y="0px"
	 width="350px" height="350px" viewBox="0 0 350 350" enable-background="new 0 0 350 350" xml:space="preserve">
<g>
	<g>
		<g>
			<path fill="#5C546A" d="M175,113.045c-2.141,0-3.872-1.734-3.872-3.873V85.939c0-2.139,1.731-3.872,3.872-3.872
				s3.872,1.733,3.872,3.872v23.233C178.872,111.311,177.14,113.045,175,113.045z"/>
		</g>
	</g>
	<g>
		<path fill="#868491" d="M175,51.089c-6.406,0-11.617,5.211-11.617,11.617v19.361c0,6.405,5.211,11.616,11.617,11.616
			c6.405,0,11.616-5.211,11.616-11.616V62.706C186.616,56.3,181.405,51.089,175,51.089z"/>
	</g>
	<g>
		<g>
			<path fill="#5C546A" d="M175,275.678c-2.141,0-3.872-1.734-3.872-3.873v-19.36c0-2.139,1.731-3.872,3.872-3.872
				s3.872,1.733,3.872,3.872v19.36C178.872,273.943,177.14,275.678,175,275.678z"/>
		</g>
	</g>
	<g>
		<path fill="#FFE671" d="M265.735,256.316c3.034,0,4.854-3.31,3.269-5.897c-8.02-13.091-12.688-20.703-12.688-37.181v-28.545
			c0-44.093-34.286-81.646-78.352-83.212c-46.261-1.645-84.281,35.369-84.281,81.263v30.494c0,16.478-4.668,24.091-12.688,37.181
			c-1.586,2.588,0.233,5.897,3.269,5.897H265.735z"/>
	</g>
	<g>
		<circle fill="#FFCD00" cx="175" cy="283.421" r="15.489"/>
	</g>
	<g>
		<path fill="#FFCD00" d="M174.894,101.451c-44.858,0.06-81.21,36.42-81.21,81.293v30.494c0,16.478-4.668,24.091-12.688,37.181
			c-1.586,2.588,0.233,5.897,3.269,5.897h90.628V101.451z"/>
	</g>
	<g>
		<circle fill="#FFFFFF" cx="209.743" cy="151.767" r="19.361"/>
	</g>
	<g>
		<path fill="#FFE671" d="M175,267.933c-0.048,0-0.093,0.014-0.142,0.014v30.949c0.048,0.001,0.093,0.015,0.142,0.015
			c8.554,0,15.488-6.936,15.488-15.488C190.488,274.867,183.554,267.933,175,267.933z"/>
	</g>
	<g>
		<path fill="#FF9100" d="M80.996,250.419c-1.586,2.588,0.233,5.897,3.269,5.897h90.628v-7.744H82.119
			C81.74,249.192,81.392,249.773,80.996,250.419z"/>
	</g>
	<g>
		<path fill="#FFCD00" d="M268.792,250.419c1.585,2.588-0.234,5.897-3.27,5.897h-90.629v-7.744h92.774
			C268.047,249.192,268.396,249.773,268.792,250.419z"/>
	</g>
</g>
</svg>
