<?xml version="1.0" encoding="utf-8"?>
<!-- Generator: Adobe Illustrator 16.0.0, SVG Export Plug-In . SVG Version: 6.00 Build 0)  -->
<!DOCTYPE svg PUBLIC "-//W3C//DTD SVG 1.1//EN" "http://www.w3.org/Graphics/SVG/1.1/DTD/svg11.dtd">
<svg version="1.1" id="Layer_1" xmlns="http://www.w3.org/2000/svg" xmlns:xlink="http://www.w3.org/1999/xlink" x="0px" y="0px"
	 width="350px" height="350px" viewBox="0 0 350 350" enable-background="new 0 0 350 350" xml:space="preserve">
<g id="XMLID_1062_">
	<g id="XMLID_1063_">
		<path id="XMLID_1064_" fill="#64C37D" d="M175,240.673c-7.112,0-12.877-5.766-12.877-12.878V74.989
			c0-21.774,17.715-39.489,39.489-39.489h7.727c7.111,0,12.876,5.765,12.876,12.877c0,7.111-5.765,12.877-12.876,12.877h-7.727
			c-7.573,0-13.735,6.162-13.735,13.735v152.806C187.877,234.907,182.112,240.673,175,240.673z"/>
	</g>
	<g id="XMLID_1065_">
		<path id="XMLID_1066_" fill="#FF5023" d="M210.659,91.3c-13.1,0-25.315,3.751-35.659,10.221
			c-10.344-6.47-22.56-10.221-35.659-10.221c-37.201,0-67.356,30.157-67.356,67.356c0,6.231,0.847,12.263,2.43,17.989
			c4.755,17.177,25.701,102.593,39.921,121.886c7.48,10.146,19.337,15.97,32.929,15.97c10.537,0,20.199-3.739,27.735-9.963
			c7.535,6.224,17.197,9.963,27.735,9.963c13.592,0,25.449-5.823,32.929-15.97c14.219-19.293,35.167-104.709,39.921-121.886
			c1.584-5.725,2.43-11.757,2.43-17.989C278.015,121.457,247.86,91.3,210.659,91.3z"/>
	</g>
	<g id="XMLID_1067_">
		<path id="XMLID_1068_" fill="#BD3C1A" d="M175,101.521c-10.344-6.47-22.56-10.221-35.659-10.221
			c-37.201,0-67.356,30.157-67.356,67.356c0,6.231,0.847,12.263,2.43,17.989c4.755,17.177,25.701,102.593,39.921,121.886
			c7.48,10.146,19.337,15.97,32.929,15.97c10.537,0,20.199-3.739,27.735-9.963C175,264.577,175,136.204,175,101.521z"/>
	</g>
	<g id="XMLID_1069_">
		<path id="XMLID_1070_" fill="#FF734F" d="M217.923,134.223c0-23.706-19.217-42.923-42.923-42.923
			c-23.706,0-42.923,19.218-42.923,42.923l8.584,145.938c0,18.964,15.374,34.339,34.339,34.339
			c18.965,0,34.339-15.375,34.339-34.339L217.923,134.223z"/>
	</g>
	<g id="XMLID_1071_">
		<path id="XMLID_1072_" fill="#FF5023" d="M175,91.3c-23.706,0-42.923,19.218-42.923,42.923l8.584,145.938
			c0,18.964,15.374,34.339,34.339,34.339C175,240.673,175,138.516,175,91.3z"/>
	</g>
</g>
</svg>
