<?xml version="1.0" encoding="utf-8"?>
<!-- Generator: Adobe Illustrator 16.0.0, SVG Export Plug-In . SVG Version: 6.00 Build 0)  -->
<!DOCTYPE svg PUBLIC "-//W3C//DTD SVG 1.1 Tiny//EN" "http://www.w3.org/Graphics/SVG/1.1/DTD/svg11-tiny.dtd">
<svg version="1.1" baseProfile="tiny" id="Layer_1" xmlns="http://www.w3.org/2000/svg" xmlns:xlink="http://www.w3.org/1999/xlink"
	 x="0px" y="0px" width="350px" height="350px" viewBox="0 0 350 350" overflow="scroll" xml:space="preserve">
<g>
	<path fill="#C1272D" d="M260.278,91.405c-12.392-6.815-51.127-16.026-77.442-1.598c-1.658,0.91-2.706,2.634-2.706,4.525v115.051
		c0,2.834-2.297,5.131-5.13,5.131s-5.13-2.297-5.13-5.131V94.333c0-1.891-1.048-3.615-2.706-4.525
		c-26.317-14.429-65.051-5.218-77.443,1.598c-9.408,5.174-29.515,2.757-39.558,1.101c-3.127-0.515-5.967,1.893-5.967,5.061v155.466
		c0,2.656,2.023,4.879,4.669,5.11c7.573,0.663,23.691,0.718,43.42-7.082c20.15-7.966,52.282-3.604,68.123-0.679l0.005,0.03
		c0,0,11.55,11.619,28,0.643c0.606-0.405,1.28-0.692,1.997-0.822c16.107-2.92,47.495-7.002,67.303,0.828
		c19.729,7.8,35.848,7.745,43.42,7.082c2.646-0.231,4.67-2.454,4.67-5.11V97.567c0-3.168-2.84-5.576-5.967-5.061
		C289.793,94.162,269.686,96.579,260.278,91.405"/>
	<path fill="#9B232C" d="M158.756,218.316l2.545,22.345c0,0,10.316,16.743,27.396,0l1.691-23.695L158.756,218.316z"/>
	<path fill="#EFEFEF" d="M255.197,82.428c-12.823-7.053-53.884-16.67-80.173,0c-26.289-16.67-67.386-7.053-80.209,0
		c-12.824,7.054-45.587,0-45.587,0v166.116c0,0,20.567,4.725,48.139-6.176c18.486-7.309,47.004-4.494,63.829-1.141h0.052
		c0,0,12.908-22.639,27.422,0h0.014c16.823-3.354,45.455-6.168,63.942,1.141c27.571,10.9,48.145,6.176,48.145,6.176V82.428
		C300.771,82.428,268.022,89.482,255.197,82.428"/>
	<path fill="#D3D3D3" d="M174.162,230.658V82.035c-14.254-8.998-34.378-10.01-50.309-7.928v163.479
		c13.416-0.279,27.591,1.965,37.37,3.642h-0.111C161.112,241.228,166.615,231.271,174.162,230.658"/>
	<path fill="#CCCCCC" d="M252.633,222.849c-27.57-10.899-77.608,1.282-77.608,1.282s-50.074-12.182-77.646-1.282
		c-27.571,10.9-48.15,6.46-48.15,6.46v19.236c0,0,20.567,4.724,48.138-6.177c18.487-7.309,47.006-4.494,63.83-1.141h0.053
		c0,0,12.906-22.639,27.421,0h0.014c16.824-3.354,45.455-6.168,63.942,1.141c27.57,10.9,48.145,6.177,48.145,6.177v-19.236
		C300.771,229.309,280.204,233.749,252.633,222.849"/>
	<image width="106" height="127" xlink:href="D58918D7.png"  transform="matrix(1 0 0 1 184 88)">
	</image>
	<path fill="#4D4D4D" d="M221.167,102.206c-0.119-2.065-0.238-4.129-0.356-6.195c-4.061-0.584-8.162-0.855-12.272-0.814v-9.087
		c-2.69-0.314-5.464,0.04-8.159,1.062c-0.018,2.843-0.034,5.685-0.052,8.528c-4.044,0.453-8.073,1.209-12.051,2.271
		c0.119,2.027,0.237,4.055,0.356,6.082c3.85-1.014,7.746-1.738,11.657-2.182c-0.045,7.603-0.09,15.205-0.137,22.809
		c2.767-1.173,5.62-1.639,8.385-1.398c0-7.308,0-14.617,0-21.926C212.77,101.308,216.991,101.588,221.167,102.206"/>
	<path fill="#FBB03B" d="M171.251,80.687c-0.659-0.633-4.288-3.977-6.94-3.68c-13.513,14.773-14.333,36.589-13.534,48.705
		c0.5,7.579,1.67,15.145,2.8,22.46c1.478,9.565,3.007,19.457,2.96,29.137c-0.047,9.501-1.575,18.894-4.542,27.916
		c-0.721,2.196-1.552,4.436-2.355,6.602c-1.39,3.743-2.826,7.614-3.858,11.641c-4.625,18.051-0.665,36.8,2.829,53.342l2.631-9.309
		l4.752,7.75c-3.323-15.733-7.089-33.567-2.902-49.909c0.934-3.645,2.239-7.165,3.623-10.89c0.828-2.231,1.684-4.539,2.45-6.87
		c3.214-9.773,4.868-19.945,4.918-30.236c0.05-10.277-1.525-20.469-3.048-30.325c-1.106-7.156-2.25-14.556-2.728-21.805
		C157.564,113.93,158.298,93.331,171.251,80.687"/>
</g>
</svg>
