<?xml version="1.0" encoding="utf-8"?>
<!-- Generator: Adobe Illustrator 16.0.0, SVG Export Plug-In . SVG Version: 6.00 Build 0)  -->
<!DOCTYPE svg PUBLIC "-//W3C//DTD SVG 1.1 Tiny//EN" "http://www.w3.org/Graphics/SVG/1.1/DTD/svg11-tiny.dtd">
<svg version="1.1" baseProfile="tiny" id="Layer_1" xmlns="http://www.w3.org/2000/svg" xmlns:xlink="http://www.w3.org/1999/xlink"
	 x="0px" y="0px" width="350px" height="350px" viewBox="0 0 350 350" overflow="scroll" xml:space="preserve">
<g>
	<g>
		<path fill-rule="evenodd" fill="#ECCD7B" d="M217.589,82.177c-0.786,0.482-3.567,0.482-4.353,0
			C214.687,82.177,216.139,82.177,217.589,82.177z"/>
		<path fill-rule="evenodd" fill="#A69D8B" d="M165.665,102.772c-0.48-0.407-0.48-2.785,0-3.191
			C165.665,100.645,165.665,101.709,165.665,102.772z"/>
		<path fill-rule="evenodd" fill="#A69D8B" d="M210.916,105.092c0.677,5.125,0.098,11.506,0.29,17.115
			C210.53,117.082,211.109,110.701,210.916,105.092z"/>
		<path fill-rule="evenodd" fill="#A69D8B" d="M269.512,109.154c-0.189,1.551,0.38,3.861-0.29,4.931
			C269.409,112.534,268.84,110.224,269.512,109.154z"/>
		<path fill-rule="evenodd" fill="#A69D8B" d="M276.474,111.764c0.66,0.402,0.106,2.019,0.29,2.901
			C276.102,114.263,276.655,112.646,276.474,111.764z"/>
		<path fill-rule="evenodd" fill="#ECCD7B" d="M94.887,113.504c0,3.771,0,7.542,0,11.314
			C94.404,121.721,94.404,116.601,94.887,113.504z"/>
		<path fill-rule="evenodd" fill="#A69D8B" d="M270.961,114.375c0.668,0.686,0.104,2.603,0.29,3.771
			C270.584,117.46,271.147,115.542,270.961,114.375z"/>
		<path fill-rule="evenodd" fill="#A69D8B" d="M96.917,114.665c0.662,0.402,0.108,2.019,0.29,2.901
			C96.546,117.164,97.1,115.546,96.917,114.665z"/>
		<path fill-rule="evenodd" fill="#A69D8B" d="M269.222,115.246c0.668,0.781,0.102,2.797,0.29,4.061
			C268.843,118.524,269.407,116.508,269.222,115.246z"/>
		<path fill-rule="evenodd" fill="#A69D8B" d="M72.262,116.406c0.48,0.313,0.48,2.587,0,2.901
			C72.262,118.339,72.262,117.373,72.262,116.406z"/>
		<path fill-rule="evenodd" fill="#A69D8B" d="M67.04,116.695c0.483,3.096,0.483,8.217,0,11.313
			C67.04,124.238,67.04,120.466,67.04,116.695z"/>
		<path fill-rule="evenodd" fill="#605F5E" d="M64.72,118.146c0.67,0.973,0.102,3.186,0.29,4.641c-0.096,0-0.193,0-0.29,0
			C64.72,121.24,64.72,119.693,64.72,118.146z"/>
		<path fill-rule="evenodd" fill="#A69D8B" d="M69.36,118.436c0,2.224,0,4.448,0,6.672C68.878,123.556,68.878,119.989,69.36,118.436
			z"/>
		<path fill-rule="evenodd" fill="#A69D8B" d="M272.992,120.466c0.67,0.974,0.102,3.186,0.29,4.642
			C272.611,124.134,273.18,121.922,272.992,120.466z"/>
		<path fill-rule="evenodd" fill="#ECCD7B" d="M151.741,123.658c-0.479-0.313-0.479-2.588,0-2.901
			C151.741,121.724,151.741,122.69,151.741,123.658z"/>
		<path fill-rule="evenodd" fill="#A69D8B" d="M64.72,122.787c0.097,0,0.194,0,0.29,0c0,1.063,0,2.127,0,3.191
			C64.346,125.481,64.903,123.764,64.72,122.787z"/>
		<path fill-rule="evenodd" fill="#A69D8B" d="M125.635,124.527c0.48,0.313,0.48,2.587,0,2.901
			C125.635,126.462,125.635,125.495,125.635,124.527z"/>
		<path fill-rule="evenodd" fill="#ECCD7B" d="M96.917,129.168c0.483,1.457,0.483,4.925,0,6.382
			C96.917,133.423,96.917,131.296,96.917,129.168z"/>
		<path fill-rule="evenodd" fill="#A69D8B" d="M276.183,135.26c0.664,0.497,0.106,2.214,0.291,3.191
			C275.808,137.955,276.366,136.237,276.183,135.26z"/>
		<path fill-rule="evenodd" fill="#A69D8B" d="M274.731,136.13c0.67,0.877,0.104,2.992,0.291,4.352
			C274.354,139.604,274.921,137.49,274.731,136.13z"/>
		<path fill-rule="evenodd" fill="#A69D8B" d="M273.862,136.42c0.667,0.783,0.103,2.798,0.291,4.062
			C273.482,139.7,274.05,137.684,273.862,136.42z"/>
		<path fill-rule="evenodd" fill="#ECCD7B" d="M167.116,137.001c0,2.126,0,4.254,0,6.381
			C166.632,141.927,166.632,138.457,167.116,137.001z"/>
		<path fill-rule="evenodd" fill="#605F5E" d="M64.72,139.321c0.483,1.552,0.483,5.119,0,6.672
			C64.72,143.769,64.72,141.545,64.72,139.321z"/>
		<path fill-rule="evenodd" fill="#A69D8B" d="M74.582,139.611c0.676,4.643,0.097,10.54,0.29,15.665
			C74.196,150.633,74.775,144.736,74.582,139.611z"/>
		<path fill-rule="evenodd" fill="#A69D8B" d="M268.931,144.833c0.662,0.402,0.108,2.019,0.291,2.901
			C268.56,147.331,269.112,145.714,268.931,144.833z"/>
		<path fill-rule="evenodd" fill="#A69D8B" d="M123.895,146.863c0.313-0.479,2.588-0.479,2.901,0
			C125.828,146.863,124.861,146.863,123.895,146.863z"/>
		<path fill-rule="evenodd" fill="#A69D8B" d="M72.842,146.863c-0.189,1.456,0.38,3.668-0.291,4.642
			C72.74,150.05,72.171,147.836,72.842,146.863z"/>
		<path fill-rule="evenodd" fill="#A69D8B" d="M133.466,149.184c4.062-0.676,9.379-0.097,13.924-0.29
			C143.329,149.569,138.012,148.991,133.466,149.184z"/>
		<path fill-rule="evenodd" fill="#ECCD7B" d="M170.596,150.924c0.666,0.591,0.104,2.409,0.289,3.481c-0.096,0-0.192,0-0.289,0
			C170.596,153.245,170.596,152.085,170.596,150.924z"/>
		<path fill-rule="evenodd" fill="#ECCD7B" d="M211.206,164.267c-0.481-2.13-0.481-6.281,0-8.412
			C211.206,158.66,211.206,161.463,211.206,164.267z"/>
		<path fill-rule="evenodd" fill="#A69D8B" d="M72.551,159.917c0.672,1.261,0.101,3.767,0.291,5.51
			C72.169,164.166,72.742,161.661,72.551,159.917z"/>
		<path fill-rule="evenodd" fill="#A69D8B" d="M280.534,160.207c0.664,0.497,0.106,2.214,0.289,3.191
			C280.16,162.901,280.717,161.183,280.534,160.207z"/>
		<path fill-rule="evenodd" fill="#A69D8B" d="M70.521,165.138c0,1.837,0,3.674,0,5.512
			C70.038,169.481,70.038,166.306,70.521,165.138z"/>
		<path fill-rule="evenodd" fill="#A69D8B" d="M77.773,165.138c0,2.997,0,5.995,0,8.993c-0.097,0-0.193,0-0.291,0
			C77.674,171.228,77.098,167.557,77.773,165.138z"/>
		<path fill-rule="evenodd" fill="#ECCD7B" d="M77.482,174.13c0.097,0,0.194,0,0.291,0c-0.191,1.936,0.382,4.637-0.291,6.09
			C77.482,178.189,77.482,176.16,77.482,174.13z"/>
		<path fill-rule="evenodd" fill="#A69D8B" d="M275.022,176.16c0.663,0.498,0.106,2.215,0.289,3.191
			C274.647,178.855,275.206,177.137,275.022,176.16z"/>
		<path fill-rule="evenodd" fill="#A69D8B" d="M70.521,184.863c-0.184,0.977,0.374,2.693-0.29,3.191
			C70.415,187.076,69.857,185.359,70.521,184.863z"/>
		<path fill-rule="evenodd" fill="#A69D8B" d="M101.849,187.764c0.481,0.5,0.481,2.98,0,3.48
			C101.849,190.084,101.849,188.926,101.849,187.764z"/>
		<path fill-rule="evenodd" fill="#ECCD7B" d="M87.055,193.855c-0.482-0.977-0.482-3.955,0-4.93
			C87.055,190.568,87.055,192.211,87.055,193.855z"/>
		<path fill-rule="evenodd" fill="#ECCD7B" d="M110.551,193.564c-0.481-0.785-0.481-3.566,0-4.35
			C110.551,190.664,110.551,192.113,110.551,193.564z"/>
		<path fill-rule="evenodd" fill="#A69D8B" d="M77.482,189.504c0,1.354,0,2.707,0,4.061c-0.096,0-0.193,0-0.29,0
			C77.38,192.301,76.814,190.285,77.482,189.504z"/>
		<path fill-rule="evenodd" fill="#ECCD7B" d="M133.757,190.373c0.48,0.406,0.48,2.785,0,3.191
			C133.757,192.502,133.757,191.438,133.757,190.373z"/>
		<path fill-rule="evenodd" fill="#ECCD7B" d="M141.299,190.373c0.481,0.596,0.481,3.178,0,3.773
			C141.299,192.889,141.299,191.631,141.299,190.373z"/>
		<path fill-rule="evenodd" fill="#ECCD7B" d="M77.193,193.564c0.096,0,0.193,0,0.29,0c-0.183,0.977,0.374,2.695-0.29,3.191
			C77.193,195.691,77.193,194.627,77.193,193.564z"/>
		<path fill-rule="evenodd" fill="#605F5E" d="M63.269,201.396c0.482,0.691,0.482,3.371,0,4.063
			C63.269,204.104,63.269,202.75,63.269,201.396z"/>
		<path fill-rule="evenodd" fill="#A69D8B" d="M171.175,207.488c0.665,0.496,0.107,2.215,0.291,3.191c-0.096,0-0.192,0-0.291,0
			C171.175,209.617,171.175,208.551,171.175,207.488z"/>
		<path fill-rule="evenodd" fill="#A69D8B" d="M63.269,209.229c0,0.967,0,1.934,0,2.9c-0.096,0-0.193,0-0.29,0
			C63.161,211.248,62.608,209.631,63.269,209.229z"/>
		<path fill-rule="evenodd" fill="#ECCD7B" d="M171.175,210.68c0.099,0,0.194,0,0.291,0c0,2.9,0,5.801,0,8.701
			C170.792,217.059,171.367,213.484,171.175,210.68z"/>
		<path fill-rule="evenodd" fill="#A69D8B" d="M226.29,211.84c1.938,0.189,4.638-0.383,6.092,0.289
			C230.444,211.939,227.745,212.512,226.29,211.84z"/>
		<path fill-rule="evenodd" fill="#605F5E" d="M62.979,212.129c0.097,0,0.194,0,0.29,0c-0.189,1.553,0.381,3.861-0.29,4.932
			C62.979,215.418,62.979,213.773,62.979,212.129z"/>
		<path fill-rule="evenodd" fill="#A69D8B" d="M272.992,214.74c0.67,0.973,0.102,3.186,0.29,4.641
			c-0.629,0.049-0.132-1.027-0.29-1.449C272.992,216.867,272.992,215.805,272.992,214.74z"/>
		<path fill-rule="evenodd" fill="#A69D8B" d="M220.778,215.32c0.406-0.48,2.785-0.48,3.191,0
			C222.905,215.32,221.843,215.32,220.778,215.32z"/>
		<path fill-rule="evenodd" fill="#A69D8B" d="M120.414,220.541c0.785-0.48,3.566-0.48,4.351,0
			C123.314,220.541,121.864,220.541,120.414,220.541z"/>
		<path fill-rule="evenodd" fill="#A69D8B" d="M228.9,228.373c1.161,0,2.321,0,3.481,0C231.882,228.854,229.4,228.854,228.9,228.373
			z"/>
		<path fill-rule="evenodd" fill="#A69D8B" d="M237.894,228.664c0.966,0,1.933,0,2.899,0
			C240.48,229.145,238.206,229.145,237.894,228.664z"/>
		<path fill-rule="evenodd" fill="#A69D8B" d="M219.909,230.404c2.517-0.482,7.056-0.482,9.571,0
			C226.29,230.404,223.1,230.404,219.909,230.404z"/>
		<path fill-rule="evenodd" fill="#A69D8B" d="M197.862,235.625c1.745-0.482,5.507-0.482,7.252,0
			C202.697,235.625,200.28,235.625,197.862,235.625z"/>
		<path fill-rule="evenodd" fill="#A69D8B" d="M71.972,238.527c0.88-0.482,3.76-0.482,4.641,0
			C75.065,238.527,73.519,238.527,71.972,238.527z"/>
		<path fill-rule="evenodd" fill="#A69D8B" d="M148.84,238.816c0.783-0.668,2.798-0.104,4.061-0.289
			C152.12,239.195,150.104,238.629,148.84,238.816z"/>
		<path fill-rule="evenodd" fill="#605F5E" d="M96.917,241.137c1.166-0.672,3.574-0.1,5.221-0.289c0,0.096,0,0.191,0,0.289
			C100.398,241.137,98.658,241.137,96.917,241.137z"/>
		<path fill-rule="evenodd" fill="#A69D8B" d="M102.139,241.137c0-0.098,0-0.193,0-0.289c3.771,0,7.542,0,11.313,0
			c0,0.096,0,0.191,0,0.289C109.681,241.137,105.91,241.137,102.139,241.137z"/>
		<path fill-rule="evenodd" fill="#605F5E" d="M113.452,241.137c0-0.098,0-0.193,0-0.289c1.167,0.186,3.084-0.377,3.771,0.289
			C115.965,241.137,114.709,241.137,113.452,241.137z"/>
		<path fill-rule="evenodd" fill="#A69D8B" d="M83.285,241.717c0-0.096,0-0.193,0-0.289c0.966,0,1.933,0,2.9,0
			C85.783,242.088,84.166,241.535,83.285,241.717z"/>
		<path fill-rule="evenodd" fill="#605F5E" d="M125.635,246.939c0.482,1.455,0.482,4.924,0,6.381
			C125.635,251.193,125.635,249.066,125.635,246.939z"/>
		<path fill-rule="evenodd" fill="#605F5E" d="M141.589,249.258c0,2.031,0,4.063,0,6.092
			C141.106,253.99,141.106,250.617,141.589,249.258z"/>
		<path fill-rule="evenodd" fill="#A69D8B" d="M138.108,254.771c0,1.643,0,3.287,0,4.93
			C137.626,258.725,137.626,255.746,138.108,254.771z"/>
		<path fill-rule="evenodd" fill="#605F5E" d="M134.337,262.021c0.482,0.881,0.482,3.762,0,4.641
			C134.337,265.117,134.337,263.568,134.337,262.021z"/>
		<path fill-rule="evenodd" fill="#605F5E" d="M159.283,90.299c1.309,0.528,2.762,0.912,3.771,1.74
			C161.458,91.798,160.398,91.022,159.283,90.299z"/>
		<path fill-rule="evenodd" fill="#605F5E" d="M85.025,91.459c-2.205,2.92-6.55,3.7-8.123,7.252
			C78.078,94.763,82.456,94.015,85.025,91.459z"/>
		<path fill-rule="evenodd" fill="#605F5E" d="M67.62,105.963c3.149-1.977,5.705-4.546,8.993-6.382
			c-0.047-0.337,0.064-0.516,0.29-0.581C74.438,101.951,71.086,104.014,67.62,105.963z"/>
		<path fill-rule="evenodd" fill="#605F5E" d="M63.85,109.443c-0.607,0.123-0.769-0.199-1.161-0.29
			c0.461-1.666,2.293-1.961,3.771-2.611c-0.996,0.937-2.723,1.145-3.48,2.32C63.045,109.281,63.845,108.965,63.85,109.443z"/>
		<path fill-rule="evenodd" fill="#605F5E" d="M64.43,113.794c-1.071-1.374,0.549-2.535,0.29-4.061
			c-0.337,0.047-0.516-0.064-0.58-0.291c0.193,0,0.386,0,0.58,0C65.653,110.897,63.882,111.797,64.43,113.794z"/>
		<path fill-rule="evenodd" fill="#605F5E" d="M62.979,155.855c-0.03-1.673,1.107-2.18,1.161-3.771
			C64.71,153.149,63.298,154.716,62.979,155.855z"/>
		<path fill-rule="evenodd" fill="#605F5E" d="M258.778,87.688c0.699-0.118,0.631,0.53,1.449,0.291
			c2.335,4.626,8.956,4.967,10.733,10.152c-2.35-3.547-6.125-5.67-9.861-7.832c-0.597-0.951-0.878-2.216-2.321-2.32
			C258.778,87.882,258.778,87.785,258.778,87.688z"/>
		<path fill-rule="evenodd" fill="#605F5E" d="M270.961,98.42c1.526,1.183,3.808,1.608,4.351,3.771
			c1.688-0.228,4.233,0.205,3.481,1.451c-0.053-1.495-1.986-1.108-3.481-1.161C274.628,100.362,272.146,100.041,270.961,98.42z"/>
		<path fill-rule="evenodd" fill="#605F5E" d="M161.314,242.588c0.946-0.834,1.787,0.908,2.321,1.449
			C162.274,244.143,162.755,242.402,161.314,242.588z"/>
		<path fill-rule="evenodd" fill="#605F5E" d="M143.62,243.168c-0.659,0.693-0.901,1.807-1.45,2.611
			C142.374,244.629,142.616,243.518,143.62,243.168z"/>
		<path fill-rule="evenodd" fill="#605F5E" d="M141.009,266.084c-0.416,1.518-1.175,2.691-2.61,3.191
			C139.51,268.453,140.242,267.25,141.009,266.084z"/>
		<path fill-rule="evenodd" fill="#605F5E" d="M134.337,261.73c-0.871-0.547-3.599,2.879-5.511,4.643
			c-2.043,1.885-3.636,4.238-5.511,4.932c2.981-2.744,6.129-6.48,9.572-9.283C133.03,261.906,134.224,259.598,134.337,261.73z"/>
		<path fill-rule="evenodd" fill="#605F5E" d="M122.444,263.473c-0.333-2.652,1.405-3.236,2.03-4.932
			C124.278,260.664,122.502,261.211,122.444,263.473z"/>
		<path fill-rule="evenodd" fill="#605F5E" d="M62.399,233.885c0.262,1.629-0.868,5.01,1.451,3.771
			c-0.095,0.68-1.266,0.281-1.451,0.871C61.917,237.646,61.917,234.766,62.399,233.885z"/>
		<path fill-rule="evenodd" fill="#605F5E" d="M62.689,172.099c-0.575,0.501,1.261,1.044,0.871,2.321
			c-0.602-0.752-0.788-1.919-1.741-2.321c0-0.193,0-0.386,0-0.58C62.315,171.507,62.57,171.735,62.689,172.099z"/>
		<path fill-rule="evenodd" fill="#605F5E" d="M62.689,163.688c0.524,0.925,1.758,1.143,1.451,2.901
			C63.965,165.311,62.732,165.095,62.689,163.688z"/>
		<path fill-rule="evenodd" fill="#605F5E" d="M164.796,92.91c4.475,1.241,10.938-5.662,15.662-6.671
			c-1.872,1.415-4.426,2.221-7.251,3.771c-2.623,1.439-5.635,4.792-8.411,3.191C164.796,93.103,164.796,93.006,164.796,92.91z"/>
		<path fill-rule="evenodd" fill="#ECCD7B" d="M272.992,217.932c0.158,0.422-0.339,1.498,0.29,1.449
			c-0.228,1.195,0.445,1.488,0.289,2.611c0,0.193,0,0.387,0,0.58c-0.692,0.176-2.104-0.363-2.32,0.291c-0.097,0-0.193,0-0.29,0
			C271.903,221.482,272.124,219.385,272.992,217.932z"/>
		<path fill-rule="evenodd" fill="#A69D8B" d="M264.29,99.291c-0.724-0.556-0.354-4.002,0.869-2.61
			C263.61,96.292,264.538,98.38,264.29,99.291z"/>
		<path fill-rule="evenodd" fill="#ECCD7B" d="M265.159,96.681c2.097,0.515,2.871,2.351,2.902,4.931c0,1.451,0,2.9,0,4.351
			c0,0.677,0,1.354,0,2.031c-1.757-0.759-0.331-4.698-3.481-4.062c0.216-1.86-0.339-2.949-0.29-4.641
			C264.538,98.38,263.61,96.292,265.159,96.681z"/>
		<path fill-rule="evenodd" fill="#A69D8B" d="M230.933,197.336c0.64,0.035,0.121,1.23,0.289,1.74c-1.064,0-2.127,0-3.191,0
			c0.309-0.658,1.824-0.111,2.611-0.291C231.271,198.836,230.772,197.758,230.933,197.336z"/>
		<path fill-rule="evenodd" fill="#ECCD7B" d="M75.162,103.353c0.201-0.573,0.773-0.773,1.45-0.871c0,0.387,0,0.773,0,1.161
			C75.94,103.735,75.499,103.596,75.162,103.353z"/>
		<path fill-rule="evenodd" fill="#FFE7BE" d="M77.773,165.138c-2.104-22.385,0.209-45.607,2.03-66.717
			c3.161-2.61,6.777-3.896,11.603-5.511c1.744-0.583,3.212-1.792,4.931-2.321c3.96-1.215,9.793-1.088,15.664-1.74
			c10.699-1.188,22.736-1.656,32.779,0.58c2.207,0.491,4.307,1.786,6.381,2.32c5.987,1.543,10.761,1.821,14.503,5.222
			c0,0.87,0,1.74,0,2.61c-0.48,0.407-0.48,2.785,0,3.191c0.169,11.722,2.009,21.777,1.451,34.229c-0.483,1.456-0.483,4.926,0,6.381
			c0.593,22.129,3.668,41.776,4.06,64.106c0,1.063,0,2.129,0,3.191c0.192,2.805-0.384,6.379,0.291,8.701
			c0.18,2.113-0.504,3.363-0.291,5.512c-2.143-0.229-4.049-1.373-6.09-2.029c-9.398-3.027-17.794-8.76-29.297-9.863
			c-2.402-0.23-5.048-0.053-7.542-0.291c-2.279-0.217-4.505-1.15-6.672-1.158c-4.417-0.02-9.856,1.43-14.504,2.32
			c-4.616,0.883-9.754,1.879-13.633,3.189c-5.581,1.887-10.956,8.355-17.114,9.863c0.171-10.176,0.739-19.953,0.87-30.168
			c0.663-0.496,0.106-2.215,0.29-3.191c0-1.354,0-2.707,0-4.061c0-3.094,0-6.189,0-9.283c0.673-1.453,0.1-4.154,0.291-6.09
			C77.773,171.133,77.773,168.135,77.773,165.138z M96.917,129.168c0.121-4.198,3.009-8.025,7.252-7.251
			c9.028,1.646-0.101,26.667,4.351,30.458c4.112,2.415,8.47-4.186,5.801-5.512c-1.507-0.749-0.744,2.025-2.9,2.031
			c-2.476-3.317,0.39-9.177,0-14.504c-0.116-1.58-0.97-3.228-1.16-4.931c-0.553-4.959-0.216-8.26-3.481-9.863
			c-2.947-1.446-6.483,0.818-9.573,1.16c0-1.063,0-2.127,0-3.19c-0.181-0.882,0.372-2.499-0.29-2.901
			c-0.087-4.439,0.839-7.863,3.481-9.573c1.346,0.463,2.822,2.114,4.642,1.16c0.067-3.547-3.137-3.825-6.672-3.771
			c-3.085,1.75-3.375,6.293-3.48,11.022c-0.483,3.096-0.483,8.217,0,11.314c-0.045,5.729-2.487,7.875-2.321,13.343
			c-2.76,1.397-4.042,4.272-4.641,7.832c3.599,1.465,3.814-2.686,4.931-4.642c1.23,0.07,2.054-0.266,2.901-0.58
			c0.659-1.469,1.071-3.184,1.16-5.221C97.4,134.094,97.4,130.625,96.917,129.168z M130.856,120.466
			c0.826,5.877,0.372,11.002,1.45,17.405c1.732,2.153,7.447,2.021,6.382-2.611c-1.547-0.386-0.774,1.548-2.321,1.16
			c-3.31-10.227-1.733-25.34-5.511-35.098c-3.372,0.261-6.647,1.979-6.092,5.221c2.353,0.636,2.646-2.087,4.061-1.451
			c1.623,3.019,1.942,7.34,1.74,12.184C130.75,118.252,130.192,119.97,130.856,120.466z M147.39,148.894c1.064,0,2.127,0,3.191,0
			c1.039-0.896,2.032-1.835,3.191-2.611c1.834-9.206,0.938-20.563,0.87-31.037c-1.916-0.272-2.975,0.313-4.061,0.87
			c0.597,1.337,0.832,3.036,1.16,4.641c-0.479,0.313-0.479,2.589,0,2.901c-0.56,3.888-1.748,7.147-5.511,7.832
			c-2.583-2.947-0.153-13.222-4.641-14.213c-2.432-0.538-5.467,1.246-4.931,5.222c2.277,0.469,2.876-2.06,4.351-1.451
			c2.352,3.16,0.292,10.731,2.9,13.633c3.911,1.318,5.791-1.692,7.252-3.771c0.857,0.69-0.277,3.372,0.58,4.061
			c0.31,4.938,1.172,11.168-4.351,11.023c-1.063,0-2.127,0-3.19,0c-6.602-1.558-11.115,0.615-17.404,0.87
			c-0.313-0.479-2.588-0.479-2.901,0c-0.72-0.043-1.205,0.15-1.45,0.581c1.625,3.194,6.851,1.548,11.022,1.74
			C138.012,148.991,143.329,149.569,147.39,148.894z M125.635,124.527c0.208-3.689-3.19-3.772-4.061-6.381
			c-7.923,0.626-8.82,17.638-0.29,18.273c0.593-0.759,1.01-1.696,0.87-3.19c2.423-0.672,3.15-3.039,3.481-5.802
			C126.115,127.115,126.115,124.84,125.635,124.527z M133.757,190.373c-0.63-5.268-3.161-8.635-8.702-8.992
			c-0.534-7.648,0.971-16.904-1.45-23.206c-4.888-0.245-7.209,2.074-7.833,6.092c3.252,0.449,3.078-2.53,5.512-2.9
			c0.79,4.625,0.978,9.852,0.87,15.375c0,1.545,0,3.094,0,4.639c-0.026,6.797-0.059,13.596,0.291,20.016
			c5.648,4.229,11.07-1.48,11.313-7.832C134.237,193.158,134.237,190.779,133.757,190.373z M141.299,190.373
			c-1.816-9.979,0.65-24.241-4.351-31.036c-3.297,0.397-6.74,2.129-5.801,5.801c2.509,0.382,2.081-2.174,4.351-2.03
			c4.517,10.567-0.056,30.225,5.221,40.029c4.125,1.34,7.866-1.541,6.382-5.801c-1.643,0.678-1.792,2.85-3.771,3.191
			c-1.339-1.467-1.833-3.775-2.03-6.381C141.78,193.551,141.78,190.969,141.299,190.373z M101.849,187.764
			c-0.01-3.375-1.443-5.324-3.481-6.672c-1.324-0.127-3.194,0.293-4.061-0.291c2.636-4.229,3.818-9.912,4.351-16.243
			c-3.657-6.495-17.042,3.668-16.245,8.122c1.458,1.638,3.838-0.521,4.352-0.58c-0.173,5.055,0.803,9.831-1.161,13.342
			c1.092,0.553,1.085,2.203,1.45,3.484c-0.482,0.975-0.482,3.953,0,4.93c-4.066,2.645-11.225,11.367-4.061,15.664
			c5.995,0.676,8.113-2.523,11.893-4.061c1.831-5.229,7.057-7.059,6.962-14.215C102.33,190.744,102.33,188.264,101.849,187.764z
			 M105.33,168.909c0.498,2.499,1.495,4.5,3.771,5.222C116.096,171.795,110.087,162.403,105.33,168.909z M159.283,180.801
			c1.554-4.876-2.538-7.498-7.251-6.09c-1.126,3.223-1.157,7.543-3.191,9.862c-1.805-0.791-3.265,0.625-3.48,2.32
			c0.562,1.352,2.518,2.271,3.771,2.033c0.509,4.033,1.255,7.832,2.61,11.02c6.596,1.563,13.695-0.857,13.055-8.412
			c-2.537,1.045-3.982,5.688-8.414,5.803c-3.413-1.711-5.034-5.215-4.641-10.734C155.576,185.99,156.369,182.334,159.283,180.801z
			 M110.551,193.564c0.119,3.846,0.205,7.723,2.031,9.863c3.646,0.262,5.484-1.283,5.221-4.932c-1.924-0.377-1.464,1.629-3.19,1.449
			c-1.85-5.006-1.88-13.961-0.871-20.014c-3.944-0.078-7.35,0.385-7.251,4.35c1.762,0.313,1.976-0.924,3.48-0.869
			c0.341,1.787,0.528,3.727,0.58,5.803C110.069,189.998,110.069,192.779,110.551,193.564z"/>
		<path fill-rule="evenodd" fill="#A69D8B" d="M74.582,120.466c0.18,0.788-0.368,2.302,0.29,2.611
			C74.244,124.059,73.943,120.752,74.582,120.466z"/>
		<path fill-rule="evenodd" fill="#ECCD7B" d="M75.162,167.458c0.025,1.282,0.056,2.57-1.16,2.61c-1.904-0.03-0.917-2.95-1.16-4.642
			c-0.19-1.744,0.382-4.249-0.291-5.51c0-2.805,0-5.608,0-8.413c0.67-0.973,0.102-3.186,0.291-4.642
			c-0.139-5.844,0.758-10.651,1.16-15.954c0.394,0.09,0.241,0.726,0.29,1.16c0.183,0.882-0.371,2.499,0.291,2.901
			c0,1.547,0,3.094,0,4.641c0.193,5.125-0.386,11.022,0.29,15.665c-0.211,2.918,0.476,4.939,0.291,7.832
			C75.162,164.558,75.162,166.008,75.162,167.458z"/>
		<path fill-rule="evenodd" fill="#221F1F" d="M109.101,174.13c-2.276-0.722-3.273-2.723-3.771-5.222
			C110.087,162.403,116.096,171.795,109.101,174.13z"/>
		<path fill-rule="evenodd" fill="#A69D8B" d="M273.862,173.84c-0.675-1.937-0.1-5.123-0.291-7.542
			c0.48,0.293,0.316,1.232,0.582,1.74C273.48,169.396,274.052,172,273.862,173.84z"/>
		<path fill-rule="evenodd" fill="#ECCD7B" d="M72.262,179.932c0.801,0.023,1.031,3.215,0,3.191
			C72.262,182.059,72.262,180.996,72.262,179.932z"/>
		<path fill-rule="evenodd" fill="#ECCD7B" d="M121.284,215.031c-1.354,0-2.708,0-4.062,0
			C117.279,213.881,121.3,213.541,121.284,215.031z"/>
		<path fill-rule="evenodd" fill="#ECCD7B" d="M215.269,215.609c-13.271,3.941-28.793,5.633-37.421,14.213
			c-1.366-0.711-3.215-1.992-2.32-4.059c1.423-0.264,1.105,1.215,2.32,1.16C188.539,221.369,200.143,216.729,215.269,215.609z"/>
		<path fill-rule="evenodd" fill="#A69D8B" d="M271.251,222.863c0.217-0.654,1.628-0.115,2.32-0.291c0-0.193,0-0.387,0-0.58
			C274.785,223.131,272.15,222.875,271.251,222.863z"/>
		<path fill-rule="evenodd" fill="#ECCD7B" d="M281.403,218.512c1.361,0.381,1.3,2.182,1.452,3.77
			C281.581,222.025,279.971,219.613,281.403,218.512z"/>
		<path fill-rule="evenodd" fill="#221F1F" d="M214.979,78.986c0.192,0,0.385,0,0.579,0c2.031,0,4.061,0,6.091,0
			c13.673,1.605,27.547,3.007,37.13,8.702c0,0.097,0,0.194,0,0.291c1.443,0.104,1.725,1.369,2.321,2.32
			c3.736,2.162,7.512,4.285,9.861,7.832c0,0.097,0,0.194,0,0.29c1.185,1.62,3.667,1.942,4.351,4.062
			c1.495,0.053,3.429-0.334,3.481,1.161c-0.604,2.2-0.148,5.459-0.29,8.122c0.186,1.072-0.375,2.89,0.29,3.481
			c0.339,5.754,1.32,10.863,1.741,16.534c0.182,0.882-0.372,2.499,0.289,2.9c0,0.291,0,0.58,0,0.871
			c0.182,0.882-0.37,2.499,0.29,2.901c0,0.29,0,0.58,0,0.87c0.183,0.882-0.371,2.499,0.29,2.901c0,0.29,0,0.58,0,0.87
			c0.183,0.882-0.371,2.499,0.291,2.901c0,0.29,0,0.58,0,0.87c0.182,0.882-0.372,2.499,0.289,2.901c0,0.29,0,0.58,0,0.87
			c0.182,0.882-0.37,2.499,0.291,2.901c0,0.291,0,0.58,0,0.87c0.181,0.882-0.372,2.499,0.289,2.901c0,0.194,0,0.387,0,0.58
			c0.183,0.882-0.371,2.499,0.292,2.901c0.356,7.57,1.316,14.54,2.029,21.756c0.183,0.881-0.371,2.496,0.291,2.898
			c0,0.293,0,0.582,0,0.871c0.182,0.883-0.372,2.5,0.289,2.902c0,0.289,0,0.578,0,0.869c0.185,0.977-0.373,2.693,0.29,3.191
			c0,0.289,0,0.58,0,0.871c0.186,1.07-0.375,2.887,0.29,3.479c0,0.291,0,0.58,0,0.871c0.186,1.072-0.375,2.891,0.29,3.48
			c0,0.291,0,0.58,0,0.871c0.187,1.072-0.376,2.889,0.29,3.48c0,0.387,0,0.773,0,1.16c0.184,0.977-0.373,2.693,0.29,3.191
			c0,0.387,0,0.771,0,1.16c0.185,0.975-0.373,2.695,0.29,3.191c0,0.289,0,0.578,0,0.869c0.185,0.977-0.374,2.693,0.29,3.191
			c0.192,4.734,1.745,8.93-0.58,12.473c-18.683,1.428-36.782,3.441-55.113,5.221c-0.882,0.184-2.498-0.371-2.901,0.291
			c-0.193,0-0.386,0-0.58,0c-0.882,0.182-2.498-0.371-2.9,0.289c-0.193,0-0.388,0-0.579,0c-0.883,0.184-2.499-0.371-2.902,0.291
			c-0.29,0-0.581,0-0.87,0c-0.977,0.184-2.693-0.373-3.19,0.289c-0.289,0-0.58,0-0.87,0c-1.071,0.186-2.89-0.375-3.481,0.291
			c-0.29,0-0.58,0-0.869,0c-1.168,0.186-3.086-0.377-3.771,0.291c-0.388,0-0.775,0-1.16,0c-1.36,0.188-3.475-0.381-4.353,0.289
			c-0.387,0-0.773,0-1.16,0c-1.743,0.189-4.249-0.383-5.511,0.289c-0.678,0-1.354,0-2.03,0c-2.903,0.193-6.574-0.385-8.992,0.291
			c-1.161,0-2.321,0-3.481,0c-0.981,0.178-0.368,1.951-0.871,2.609c-2.31-0.82-4.024,1.293-6.091,1.451
			c-1.355,0.105-2.665-0.664-4.062-0.58c-2.512,0.152-4.732,2.219-7.541,1.16c-0.534-0.541-1.375-2.283-2.321-1.449
			c-1.652,0.99-2.759-0.613-4.351-0.871c-4.392-0.711-9.089,1.387-13.344,1.451c-1.003,0.35-1.246,1.461-1.45,2.611
			c-0.6,0.754-0.615,2.09-0.581,3.479c-0.482,1.359-0.482,4.732,0,6.092c0,0.484,0,0.967,0,1.451c0,2.129,0,4.254,0,6.383
			c-0.205,0.953-0.466,1.854-0.58,2.9c-0.767,1.166-1.499,2.369-2.61,3.191c-1.386,0.16-1.875,1.217-3.771,0.869
			c-0.556-0.701-0.183-2.332-0.29-3.482c0.482-0.879,0.482-3.76,0-4.641c0-0.096,0-0.191,0-0.291
			c-0.113-2.133-1.307,0.176-1.451,0.291c-3.443,2.803-6.59,6.539-9.572,9.283c-0.581,0-1.161,0-1.741,0
			c0.345-2.557,1.098-4.705,0.871-7.832c0.058-2.262,1.833-2.809,2.03-4.932c0.419-1.709,1.47-2.785,1.16-5.221
			c0.482-1.457,0.482-4.926,0-6.381c0.171-2.105-0.501-3.367-0.58-5.223c-0.871-0.387-2.219-0.295-3.481-0.289
			c-0.497-0.664-2.214-0.107-3.191-0.291c-0.386,0-0.773,0-1.16,0c-0.687-0.666-2.603-0.104-3.771-0.289c-3.771,0-7.542,0-11.313,0
			c-1.647,0.189-4.055-0.383-5.221,0.289c-0.677,0-1.354,0-2.03,0c-2.034,0.191-4.831-0.383-6.382,0.291c-0.773,0-1.547,0-2.32,0
			c-0.967,0-1.934,0-2.9,0c-3.965,0-7.929,0-11.893,0c-0.483,0-0.967,0-1.451,0c-0.591-0.666-2.409-0.105-3.481-0.291
			c-0.29,0-0.58,0-0.87,0c-0.718-0.732-0.686-2.215-0.87-3.48c-0.29,0-0.58,0-0.87,0c-2.319,1.238-1.189-2.143-1.451-3.771
			c0-0.482,0-0.967,0-1.449c0.672-1.262,0.1-3.77,0.29-5.512c0-0.58,0-1.16,0-1.74c0.673-1.455,0.099-4.154,0.29-6.092
			c0-0.678,0-1.354,0-2.031c0.671-1.07,0.101-3.379,0.29-4.932c0-0.967,0-1.934,0-2.9c0-1.256,0-2.514,0-3.77
			c0.482-0.691,0.482-3.371,0-4.063c-1.104-2.701-0.16-5.191,0.291-7.832c0-0.967,0-1.934,0-2.9c0.592-2.275,0.865-3.709,0.58-6.383
			c-0.192-2.707,0.384-6.184-0.29-8.411c-0.16-0.421,0.338-1.5-0.291-1.45c0.39-1.277-1.445-1.82-0.871-2.321
			c2.211-0.109,1.193-3.448,1.451-5.51c0.308-1.759-0.926-1.976-1.451-2.901c-0.634-2.233-0.344-5.915,0.29-7.832
			c0.319-1.139,1.731-2.707,1.161-3.771c-0.9-2.036,0.549-4.039,0.58-6.092c0.483-1.553,0.483-5.12,0-6.672c0-0.291,0-0.58,0-0.87
			c-0.184-0.977,0.374-2.694-0.29-3.191c-0.368-3.655,0.99-5.584,0.58-9.282c0-1.063,0-2.127,0-3.191
			c-0.188-1.455,0.38-3.667-0.29-4.641c-0.049-1.499,0.18-3.275-0.29-4.352c-0.548-1.998,1.223-2.897,0.29-4.351
			c-0.194,0-0.387,0-0.58,0c-0.097,0-0.193,0-0.29,0c-0.005-0.479-0.805-0.162-0.871-0.58c0.758-1.175,2.484-1.384,3.48-2.32
			c0.541-0.04,0.97-0.191,1.16-0.58c3.467-1.949,6.818-4.012,9.283-6.962c0-0.096,0-0.192,0-0.29
			c1.572-3.552,5.917-4.332,8.123-7.252c9.299-2.788,18.305-5.867,30.167-6.091c1.263-0.187,3.279,0.378,4.061-0.29
			c0.581,0,1.161,0,1.741,0c3.288,0,6.575,0,9.863,0c0.677,0,1.354,0,2.03,0c0.782,0.668,2.798,0.103,4.062,0.29
			c0.29,0,0.58,0,0.87,0c0.403,0.662,2.02,0.108,2.901,0.29c6.478,1.258,13.105,2.366,18.565,4.641
			c1.115,0.724,2.175,1.5,3.771,1.74c0.407,0.464,0.999,0.742,1.742,0.871c0,0.096,0,0.193,0,0.29
			c2.775,1.601,5.788-1.752,8.411-3.191c2.826-1.549,5.379-2.355,7.251-3.771c7.041-1.856,12.359-5.433,20.307-6.382
			c0.976-0.183,2.693,0.374,3.19-0.29c0.387,0,0.773,0,1.159,0c1.552-0.189,3.863,0.381,4.933-0.291c0.481,0,0.967,0,1.45,0
			C212.568,79.091,214.387,79.652,214.979,78.986z M213.236,82.177c-12.164,1.229-24.532,6.288-35.679,9.572
			c-3.344,0.986-9.764,2.772-9.573,6.382c-0.481,0.69-0.481,3.371,0,4.061c0.288,5.65,0.509,11.105,1.161,16.535
			c0.635,5.282,1.855,11.107,1.451,16.244c-0.115,1.459-0.833,2.635-0.87,4.061c-0.104,3.952,1.176,7.853,0.87,11.893
			c0,1.161,0,2.321,0,3.481c0.186,1.072-0.375,2.89,0.289,3.481c0.619,10.92,0.72,21.196,2.032,31.04
			c0.438,3.289,1.412,6.627,1.45,9.859c0.022,1.965-0.606,3.869-0.581,5.803c0.083,6.375,1.507,12.98,0.87,19.725
			c4.38-1.791,7.872-5.547,13.053-7.252c4.565-1.502,10.894-1.885,17.114-2.9c7.512-1.227,14.552-2.961,21.466-2.32
			c1.455,0.672,4.154,0.1,6.092,0.289c3.319-0.645,5.951,1.129,8.992,1.742c4.325,0.867,8.786,0.551,12.763,1.738
			c5.168,1.545,8.792,5.318,14.794,5.512c1.205,0.15,0.739,1.969,2.03,2.031c0-0.098,0-0.193,0-0.289c0.097,0,0.193,0,0.29,0
			c0.899,0.012,3.534,0.268,2.32-0.871c0.156-1.123-0.517-1.416-0.289-2.611c-0.188-1.455,0.38-3.668-0.29-4.641
			c0.224-2.836-0.655-4.566-1.741-6.092c2.505-2.383-0.657-3.813,0-7.543c-0.186-1.07,0.375-2.889-0.29-3.48
			c1.414-6.984-2.017-13.537-2.32-20.016c-0.063-1.357,0.439-2.707,0.29-4.059c-0.143-1.297-1.03-2.441-1.16-3.771
			c-0.117-1.207,0.392-2.514,0.291-3.771c-0.156-1.925-1.203-3.92-1.452-5.801c-0.593-4.51-0.076-9.521-0.869-13.924
			c-0.367-2.032-1.579-3.947-1.741-5.801c-0.105-1.214,0.438-2.54,0.291-3.771c-0.201-1.671-1.419-3.265-1.741-4.932
			c-2.417-12.526-2.166-26.038-4.061-39.74c-9.427-7.494-24.957-8.884-40.899-9.862C216.139,82.177,214.687,82.177,213.236,82.177z
			 M165.665,99.581c0-0.87,0-1.741,0-2.61c-3.742-3.401-8.516-3.679-14.503-5.222c-2.075-0.534-4.174-1.829-6.381-2.32
			c-10.043-2.236-22.08-1.769-32.779-0.58c-5.87,0.652-11.704,0.525-15.664,1.74c-1.719,0.528-3.188,1.737-4.931,2.321
			c-4.826,1.614-8.442,2.901-11.603,5.511c-1.821,21.11-4.134,44.332-2.03,66.717c-0.675,2.419-0.099,6.09-0.291,8.993
			c0,2.03,0,4.059,0,6.09c0,3.094,0,6.189,0,9.283c-0.668,0.781-0.103,2.797-0.29,4.061c0,1.063,0,2.127,0,3.191
			c-0.131,10.215-0.699,19.992-0.87,30.168c6.158-1.508,11.533-7.977,17.114-9.863c3.879-1.311,9.017-2.307,13.633-3.189
			c4.648-0.891,10.086-2.34,14.504-2.32c2.167,0.008,4.393,0.941,6.672,1.158c2.494,0.238,5.14,0.061,7.542,0.291
			c11.503,1.104,19.899,6.836,29.297,9.863c2.041,0.656,3.948,1.801,6.09,2.029c-0.214-2.148,0.47-3.398,0.291-5.512
			c0-2.9,0-5.801,0-8.701c-0.183-0.977,0.374-2.695-0.291-3.191c-0.391-22.33-3.466-41.977-4.06-64.106c0-2.127,0-4.255,0-6.381
			c0.558-12.451-1.282-22.506-1.451-34.229C165.665,101.709,165.665,100.645,165.665,99.581z M265.159,96.681
			c-1.224-1.392-1.593,2.054-0.869,2.61c-0.049,1.692,0.506,2.781,0.29,4.641c3.15-0.636,1.725,3.303,3.481,4.062
			c0-0.676,0-1.354,0-2.031c0.48-0.784,0.48-3.566,0-4.351C268.03,99.031,267.256,97.195,265.159,96.681z M264.29,128.008
			c-0.008,1.458,0.273,2.628,1.159,3.191c-1.132-11.535-2.278-23.055-4.35-33.648c-0.316,10.083,2.476,17.056,2.899,26.396
			C264.188,125.21,263.622,127.226,264.29,128.008z M76.612,103.643c0-0.387,0-0.774,0-1.161c-0.677,0.097-1.25,0.297-1.45,0.871
			C75.499,103.596,75.94,103.735,76.612,103.643z M276.474,111.764c0.547-5.189-1.789-7.494-5.223-8.702
			c-1.352,4.42,1.752,5.509,2.611,8.122c2.288,6.954,0.808,16.5,2.32,24.076c0.184,0.977-0.375,2.695,0.291,3.191
			c0,2.32,0,4.641,0,6.962c3.788,3.946,0.965,14.505,4.35,18.854c0-0.29,0-0.58,0-0.87c-0.183-0.977,0.375-2.694-0.289-3.191
			c-0.507-15.931-2.911-29.964-3.771-45.542C276.58,113.783,277.134,112.167,276.474,111.764z M270.091,104.223
			c0-0.291,0-0.58,0-0.87c-1.201-0.042-0.303,2.018-0.579,2.9c0,0.968,0,1.934,0,2.901c-0.672,1.07-0.103,3.38-0.29,4.931
			c0,0.387,0,0.773,0,1.161c0.186,1.263-0.379,3.279,0.29,4.061c0.034,3.64,0.535,6.813,1.739,9.281c0-3.48,0-6.961,0-10.441
			c-0.186-1.168,0.378-3.085-0.29-3.771C271.098,110.564,270.521,107.466,270.091,104.223z M72.262,119.307
			c0.154,1.005-0.431,2.751,0.58,2.9c0.514-5.328,2.132-12.509,0.58-17.984c-1.884,2.466-2.088,6.615-2.32,10.732
			c0.291,0.579,1.283,0.458,1.16,1.451C72.262,117.373,72.262,118.339,72.262,119.307z M69.36,118.436
			c0.036-4.026,0.646-7.477,0.871-11.313c-4.758-0.504-2.82,5.689-3.191,9.572c0,3.771,0,7.542,0,11.313c0,4.158,0,8.316,0,12.474
			c-0.675,2.612-0.098,6.477-0.29,9.572c0.193,7.349-0.386,15.471,0.29,22.336c0.411-4.231,1.092-8.19,0.871-13.053
			c0.482-2.325,0.482-6.669,0-8.993c0.773-6.536-1.158-13.661,0.29-19.145c0.54-2.043,2.272-3.446,1.16-6.091
			C69.36,122.884,69.36,120.66,69.36,118.436z M76.033,109.443c0-0.096,0-0.193,0-0.29c-0.853,2.243-1.568,7.132-1.451,11.313
			c-0.639,0.286-0.338,3.593,0.29,2.611c0.561-2.728,1.281-5.295,1.161-8.702C76.515,113.398,76.515,110.419,76.033,109.443z
			 M272.411,112.924c-0.629,0.743-0.46,3.156,0.871,2.901C273.185,114.666,273.653,112.938,272.411,112.924z M274.731,136.13
			c0.016-6.783-0.313-13.223-1.739-18.564c0,0.966,0,1.933,0,2.9c0.188,1.456-0.381,3.668,0.29,4.642
			c-0.143,4.107,0.217,7.712,0.58,11.312c0.188,1.264-0.38,3.28,0.291,4.062c-0.787,6.539,1.768,11.124,0.869,16.824
			c1.816,14.736,4.361,29.882,6.091,44.962c0.563,4.904,0.549,10.082,2.902,14.213c0-0.387,0-0.773,0-1.16
			c0.479-0.596,0.479-3.176,0-3.77c-0.562-5.959-1.268-11.281-2.032-16.535c-0.388-2.674-0.672-5.16-0.87-7.832
			c-1.228-16.607-5.707-30.435-6.091-46.702C274.835,139.123,275.401,137.008,274.731,136.13z M72.842,125.688
			c-1.166,0.823-1.09,4.085-0.291,5.221C73.168,129.688,72.692,127.375,72.842,125.688z M74.292,132.069
			c-0.048-0.434,0.104-1.07-0.29-1.16c-0.402,5.303-1.299,10.11-1.16,15.954c-0.67,0.974-0.102,3.187-0.291,4.642
			c0,2.804,0,5.607,0,8.413c0.19,1.744-0.382,4.249,0.291,5.51c0.243,1.691-0.744,4.612,1.16,4.642
			c1.216-0.041,1.185-1.329,1.16-2.61c0.481-0.785,0.481-3.566,0-4.351c0.186-2.893-0.501-4.914-0.291-7.832
			c-0.192-5.125,0.387-11.022-0.29-15.665c0-1.546,0-3.094,0-4.641C74.4,134.089,74.954,132.472,74.292,132.069z M270.961,152.665
			c-0.186-4.841-0.15-9.905-2.03-13.054c0,1.741,0,3.481,0,5.222c0.182,0.881-0.371,2.498,0.291,2.901
			c0.158,6.125,0.682,11.886,2.029,16.824c0-2.417,0-4.834,0-7.252C271.063,155.851,271.631,153.638,270.961,152.665z
			 M272.992,150.054c0.026-2.058-0.401-3.659-1.741-4.351c-0.375,3.112,0.339,8.132,2.031,7.252
			C273.1,152.073,273.653,150.456,272.992,150.054z M273.571,164.558c0.018,0.305,0.373,0.228,0.291-0.291
			C274.165,158.752,272.948,163.022,273.571,164.558z M70.521,165.138c-0.039-0.928,0.286-2.219-0.87-2.03c0,2.127,0,4.254,0,6.382
			c0.188,1.551-0.381,3.861,0.29,4.931c0.193,4.447-0.218,8.291-0.581,12.181c-0.481,0.691-0.481,3.373,0,4.063
			c-0.081,0.662,0.07,1.09,0.581,1.16c0.418-0.936,0.274-2.434,0.29-3.77c0.664-0.498,0.106-2.215,0.29-3.191
			c0-4.738,0-9.476,0-14.214C70.521,168.812,70.521,166.975,70.521,165.138z M274.153,168.039c-0.266-0.508-0.102-1.447-0.582-1.74
			c0.191,2.419-0.384,5.605,0.291,7.542c-0.168,4.421,0.161,8.347,1.16,11.601c0.485,2.662,0.995-0.965,0.289-1.74
			c0-1.449,0-2.9,0-4.35c-0.183-0.977,0.374-2.693-0.289-3.191C275.165,173.021,274.648,170.539,274.153,168.039z M73.131,175.871
			c0-0.87,0-1.74,0-2.611C72.08,173.52,71.979,175.745,73.131,175.871z M67.33,179.061c-0.598,1.766-0.355,5.188,0.87,6.092
			c-0.341-2.148,0.845-4.09,0-5.801C68.152,179.014,67.742,179.037,67.33,179.061z M72.262,183.123c1.031,0.023,0.801-3.168,0-3.191
			C72.262,180.996,72.262,182.059,72.262,183.123z M74.292,179.932c0.059,2.018-1.053,5.543,0.291,6.961
			C74.652,184.625,75.963,181.4,74.292,179.932z M74.292,198.496c-0.131-4.994-1.142-9.105-2.03-13.344
			c-0.095,7.639,0.395,14.689,2.03,20.596c0-0.289,0-0.58,0-0.871C74.774,203.422,74.774,199.951,74.292,198.496z M275.312,196.176
			c-0.053,0.561-0.796,1.672,0.292,2.32C275.631,195.902,275.544,193.725,275.312,196.176z M67.04,198.205c0-0.191,0-0.387,0-0.58
			c-1.143-0.176-0.341,1.594-0.58,2.32c-0.211,4.338-0.855,10.664,0.291,14.504C67.003,209.332,67.835,203.424,67.04,198.205z
			 M69.651,222.281c0.028,2.391,0.602,4.234,0.87,6.383c-0.786,1.535-2.332,2.309-2.61,4.352c3.935-0.598,6.578-5.732,3.191-8.703
			c1.433-7.049,1.908-18.305,0-25.236c0.101,6.096-1.197,10.793-1.741,16.244c-0.061,1.027,1.361,0.572,1.161,1.74
			c-0.408,0.559-0.766,1.166-0.87,2.031C69.17,219.496,69.17,221.877,69.651,222.281z M276.183,204.588
			c-0.483,1.168-0.483,4.344,0,5.51c0.068,2.736,0.421,5.188,1.741,6.674c0.224-4.576-1.097-7.607-0.871-12.184
			C276.711,204.545,276.395,204.07,276.183,204.588z M117.223,215.031c1.354,0,2.708,0,4.062,0
			C121.3,213.541,117.279,213.881,117.223,215.031z M129.406,215.031c-1.921-0.436-5.101-1.59-6.961-0.291
			c-1.053,0.885,1.593,0.516,2.32,0.58c0.774,0,1.547,0,2.32,0c0.786,0.48,3.566,0.48,4.352,0
			C130.43,215.553,130.321,214.889,129.406,215.031z M220.778,215.32c-0.941-0.168-1.349,0.199-2.029,0.289
			c-1.29,0.982,4.771,0.709,5.801,0.291c0.661,0.08,1.09-0.068,1.16-0.58c-0.58,0-1.16,0-1.74,0
			C223.563,214.84,221.185,214.84,220.778,215.32z M110.261,216.48c0.658-0.695,2.894,0.188,2.901-1.16
			C111.825,215.154,109.411,215.422,110.261,216.48z M230.642,216.189c8.048,0.074,15.616,2.176,22.335,2.611
			c-6.366-2.455-15.185-3.93-23.786-3.191c-0.5-0.014-0.743,0.225-0.87,0.58C229.095,216.189,229.867,216.189,230.642,216.189z
			 M66.17,215.609c0.191,2.131-0.384,5.027,0.29,6.672C66.965,220.201,67.358,217.277,66.17,215.609z M177.848,226.924
			c-1.215,0.055-0.896-1.424-2.32-1.16c-0.896,2.066,0.954,3.348,2.32,4.059c8.628-8.58,24.149-10.271,37.421-14.213
			C200.143,216.729,188.539,221.369,177.848,226.924z M107.65,216.48c-10.41,1.193-18.404,4.801-24.655,10.152
			C91.949,223.984,99.092,219.525,107.65,216.48z M276.474,230.113c1.611,0.066,3.022-0.07,3.479-1.16
			c-2.744-2.652-6.456-1.289-10.731-0.869c-4.499-5.094-10.919-5.557-20.306-7.252c-7.736-1.398-15.016-3.186-22.626-2.32
			c-3.578,0.191-7.928-0.387-11.021,0.289c-6.446,1.082-13.605,1.316-19.146,3.771c-1.143,0.508-2.26,1.73-3.48,2.32
			c-1.869,0.902-4.15,1.434-6.092,2.32c-1.502,0.689-3.704,1.164-3.481,2.9c10.379-4.414,21.711-7.877,35.1-9.281
			c2.322-0.191,5.411,0.383,7.252-0.291c1.702,0.316,2.96-1.086,4.642-1.16c1.773-0.076,3.666,0.982,5.8,1.451
			c6.105,1.338,12.708,1.918,19.146,2.609c1.036,0.029,1.046,1.082,2.03,1.16c2.132-1.393,5.441,0.113,7.252,0.871
			c0.401,1.563-1.105,1.217-0.87,2.611c2.704,0.582,4.708,1.865,7.541,2.32C272.705,230.215,275.211,230.785,276.474,230.113z
			 M282.855,222.281c-0.152-1.588-0.091-3.389-1.452-3.77C279.971,219.613,281.581,222.025,282.855,222.281z M135.788,219.381
			c-0.261-0.162-1.3,0.176-1.161,0.291c0.859,0.703,5.471,1.58,6.672,2.029c6.285,2.354,12.909,6.168,19.145,7.252
			c-1.095-3.352-7.367-4.039-9.862-6.961c-3.653-1.084-7.053-2.422-11.603-2.611C138.572,218.902,136.194,218.902,135.788,219.381z
			 M120.414,220.541c-12.11,0.943-23.1,3.008-30.748,8.412c10.282-1.996,18.274-6.285,29.587-7.252
			c0.977-0.184,2.694,0.375,3.191-0.289c2.684,0.215,5.209,0.592,7.832,0.869c0.595,0.482,3.176,0.482,3.771,0
			c0.195,0.113,1.015-0.154,0.871-0.289c-1.393-1.299-7.163-1.107-10.153-1.451C123.98,220.061,121.199,220.061,120.414,220.541z
			 M162.184,224.602c-2.18-1.102-5.173-1.592-6.672-2.9c-0.606,1.307,1.947,2.133,3.481,2.9c1.795,0.9,3.758,2.021,5.222,2.611
			c0.581,0.58,0.846,1.473,1.739,1.74C166.865,226.959,164.072,225.559,162.184,224.602z M229.48,223.732
			c-14.236-1.637-28.085,1.797-38,6.381c11.021-1.066,20.954-3.219,32.489-3.77c0.977-0.184,2.693,0.373,3.19-0.289
			c8.292-0.365,14.93,0.926,20.885,2.898c0.13,0.838,2.192-0.258,2.32,0.58c-2.888,1.646-6.306-0.98-9.572-0.869
			c-0.967,0-1.934,0-2.899,0c-1.289-1.629-3.28-0.164-5.512-0.291c-1.16,0-2.32,0-3.481,0c-0.968,0-1.933,0-2.899,0
			c-1.265-0.48-4.539-0.48-5.803,0c-8.378,2.549-21.072,0.781-27.847,4.932c9.407-0.746,17.79-2.516,27.558-2.9
			c3.19,0,6.381,0,9.571,0c7.849,0.662,16.421,0.598,23.496,2.031c0.881-0.184,2.499,0.371,2.901-0.291
			c1.716,0.072,3.332,0.045,3.481-1.451c-0.596-0.947-2.007,1.248-2.902,0c0.435-0.338,1.188-0.359,1.45-0.871
			c-5.54-3.352-14.45-3.338-20.883-5.799C235.087,223.348,231.899,223.924,229.48,223.732z M282.274,224.023
			c-0.119,1.182,0.297,1.828,1.45,1.74C283.667,224.758,283.482,223.877,282.274,224.023z M125.055,224.313
			c-0.339,1.189,2.017,1.166,2.03,0.289C126.267,224.572,125.853,223.51,125.055,224.313z M119.833,227.213
			c2.632,0.115,6.262-0.309,6.381-1.74c-2.01,0.363-6.321,0.523-7.251-1.16c-4.721,0.227-9.049,1.393-13.343,2.611
			c-4.242,1.201-8.875,1.709-12.763,3.189c-2.788,1.063-5.162,2.805-8.122,3.771c-2.912,0.953-5.862,1.92-8.992,2.32
			c0.088-4.359,6.576-2.318,8.122-5.221c-4.924-3.723-7.854,3.441-11.313,4.93c-0.737-0.668-0.417-1.293-0.29-2.318
			c-1.965,0.934-3.707,2.096-4.351,4.35c1.05,0.498,2.371,0.725,4.061,0.582c1.547,0,3.094,0,4.641,0
			c2.072,0.15,3.758,0.688,6.092,0.578c1.072,0.482,4.149,0.482,5.221,0c0.29,0,0.58,0,0.87,0c6.255-7.572,23.503-4.15,32.198-9.283
			c-0.58,0-1.16,0-1.741,0c-1.457-0.48-4.925-0.48-6.381,0c-9.512,0.639-18.136,3.045-25.236,6.092
			c-1.653,0.711-4.405,3.865-5.802,1.162c9.572-4.934,20.409-8.6,33.939-9.572C117.036,227.316,119.051,227.883,119.833,227.213z
			 M66.17,232.436c0.068-1.148,1.321-3.357,0-4.063C65.888,229.264,65.55,231.607,66.17,232.436z M152.901,238.527
			c0.774,0,1.547,0,2.321,0c-2.892-3.006-10.755-1.041-11.313-6.383c3.158,0.324,4.573,2.387,8.123,2.32
			c-1.414-1.971-4.945-1.824-6.962-3.189c-0.092-0.682-0.458-1.09-0.29-2.031c-1.556-0.088-2.127-1.16-4.062-0.871
			c1.807,3.223,2.227,7.83,4.642,10.443c1.161,0,2.321,0,3.48,0C150.104,238.629,152.12,239.195,152.901,238.527z M170.017,228.373
			c-2.75,1.313-4.287,3.836-5.801,6.383c-0.142,0.342-0.31,0.656-0.581,0.869c-0.908,0.168-1.236,2.422-0.581,3.191
			c0,0.096,0,0.193,0,0.289c0.379,1.17,1.162,1.934,2.611,2.031c4.437,0.818,8.215-0.902,12.764-0.869
			c0.023-1.801,0.596-3.309,0-4.932c-0.851-2.922-2.912-4.629-5.511-5.803C172.004,229.094,171.175,228.566,170.017,228.373z
			 M131.146,228.953c-2.352-0.127-4.155,0.293-5.802,0.869c-0.835,7.555,4.005,13.941,3.191,20.596
			c-0.118,0.957-0.897,1.699-1.161,2.613c-1.165,4.033-0.586,8.619-2.031,13.053c4.223-2.16,6.24-6.525,7.832-11.313
			c0.955-0.014,1.444-0.49,2.611-0.291c0.984,2.98,1.323,6.605,1.16,10.732c2.447-0.537,1.362-3.256,1.16-5.512
			c0-1.643,0-3.287,0-4.93c-0.415-5.6,3.225-10.598,1.45-14.795c0.303-0.857,1.469-0.852,1.16-2.32
			c-1.81-2.832-2.137-7.145-5.221-8.703C134.712,228.473,131.931,228.473,131.146,228.953z M262.549,229.822
			c-0.64,0.037-0.123,1.232-0.289,1.742c0.88-0.377,2.58,0.066,2.899-0.871C264.154,230.539,263.615,229.92,262.549,229.822z
			 M151.161,230.693c0.153,1.934,3.617,2.236,4.642,0.871C154.734,230.805,152.886,229.904,151.161,230.693z M187.131,231.855
			c0.886-0.371,2.422-0.094,2.61-1.162C188.434,230.645,187.085,230.553,187.131,231.855z M247.756,232.145
			c-0.973,0.596-4.004-0.959-4.062,1.16C245.085,232.953,247.216,233.346,247.756,232.145z M228.03,232.725
			c-2.932-0.225-5.027,0.385-7.832,0.291c-1.936,0.189-4.637-0.383-6.092,0.289c-4.246,0.941-8.671-0.451-12.763,0.291
			c-1.185,0.213-2.327,1.213-3.481,1.449c-2.707,0.559-6.003-0.543-7.542,1.74c3.034,0.133,4.869-0.932,7.542-1.16
			c2.418,0,4.835,0,7.252,0c3.191,0,6.383,0,9.572,0c1.648-0.189,4.056,0.383,5.223-0.289c7.212-0.137,13.998-0.697,19.724-2.32
			c-2.271-0.533-4.947-0.66-7.831-0.58C230.635,232.621,228.718,232.057,228.03,232.725z M240.504,232.725c0,0.291,0,0.58,0,0.871
			c0.974-0.09,2.514,0.387,2.32-0.871C242.051,232.725,241.276,232.725,240.504,232.725z M159.573,233.016
			c-0.006,0.682,0.5,0.854,0.29,1.74c0.992,0.121,1.653-0.088,1.451-1.16C160.311,233.824,160.089,233.273,159.573,233.016z
			 M115.772,235.336c1.646-0.289,3.357-0.512,3.771-2.031C117.658,233.354,115.797,233.428,115.772,235.336z M153.772,233.596
			c0.216,0.893-1.001,0.354-0.581,1.449C154.447,235.486,154.757,233.721,153.772,233.596z M181.909,234.176c0,0.58,0,1.16,0,1.738
			c2.682-0.371,5.214,1.881,7.251,0.291C186.427,235.846,185.261,233.918,181.909,234.176z M121.864,235.625
			c-2.285,1.582-6.551,1.186-8.702,2.902c3.113-0.078,6.603,0.221,9.282-0.291C122.537,237.08,122.46,236.092,121.864,235.625z
			 M158.993,236.205c-0.901,0.26-2.022,0.299-2.03,1.451C158.248,237.779,158.799,237.172,158.993,236.205z M109.391,237.365
			c-2.722-1.699-14.304-0.359-16.534,1.451c5.298-1.021,11.941,0.973,16.825-0.58C109.693,237.836,109.544,237.6,109.391,237.365z"
			/>
		<path fill-rule="evenodd" fill="#ECCD7B" d="M127.085,224.602c-0.014,0.877-2.369,0.9-2.03-0.289
			C125.853,223.51,126.267,224.572,127.085,224.602z"/>
		<path fill-rule="evenodd" fill="#ECCD7B" d="M71.972,238.527c-1.69,0.143-3.011-0.084-4.061-0.582
			c0.645-2.254,2.386-3.416,4.351-4.35c-0.127,1.025-0.447,1.65,0.29,2.318c3.459-1.488,6.389-8.652,11.313-4.93
			c-1.546,2.902-8.034,0.861-8.122,5.221c3.129-0.4,6.08-1.367,8.992-2.32c2.96-0.967,5.334-2.709,8.122-3.771
			c3.889-1.48,8.521-1.988,12.763-3.189c4.294-1.219,8.623-2.385,13.343-2.611c0.931,1.684,5.241,1.523,7.251,1.16
			c-0.119,1.432-3.749,1.855-6.381,1.74c-1.264,0.188-3.279-0.377-4.061,0.291c-13.53,0.973-24.367,4.639-33.939,9.572
			c1.397,2.703,4.148-0.451,5.802-1.162c7.1-3.047,15.724-5.453,25.236-6.092c2.127,0,4.255,0,6.381,0c0.581,0,1.161,0,1.741,0
			c-8.695,5.133-25.943,1.711-32.198,9.283c-0.29,0-0.58,0-0.87,0c-1.74,0-3.48,0-5.221,0c-2.333,0.109-4.02-0.428-6.092-0.578
			C75.731,238.045,72.852,238.045,71.972,238.527z"/>
		<path fill-rule="evenodd" fill="#605F5E" d="M164.215,234.756c1.514-2.547,3.051-5.07,5.801-6.383
			C167.741,230.16,165.984,232.463,164.215,234.756z"/>
		<path fill-rule="evenodd" fill="#605F5E" d="M163.054,238.816c-0.655-0.77-0.327-3.023,0.581-3.191
			C163.226,236.477,162.854,237.359,163.054,238.816z"/>
		<path fill-rule="evenodd" fill="#605F5E" d="M163.054,239.105c0.566,0.982,1.558,1.539,2.611,2.031
			C164.215,241.039,163.433,240.275,163.054,239.105z"/>
		<path fill-rule="evenodd" fill="#605F5E" d="M172.917,229.533c2.599,1.174,4.661,2.881,5.511,5.803
			C177.265,232.729,175.239,230.982,172.917,229.533z"/>
		<path fill-rule="evenodd" fill="#ECCD7B" d="M155.803,231.564c-1.024,1.365-4.488,1.063-4.642-0.871
			C152.886,229.904,154.734,230.805,155.803,231.564z"/>
		<path fill-rule="evenodd" fill="#ECCD7B" d="M119.543,233.305c-0.414,1.52-2.125,1.742-3.771,2.031
			C115.797,233.428,117.658,233.354,119.543,233.305z"/>
		<path fill-rule="evenodd" fill="#ECCD7B" d="M161.314,233.596c0.203,1.072-0.459,1.281-1.451,1.16
			c0.21-0.887-0.296-1.059-0.29-1.74C160.089,233.273,160.311,233.824,161.314,233.596z"/>
		<path fill-rule="evenodd" fill="#ECCD7B" d="M153.191,235.045c-0.42-1.096,0.797-0.557,0.581-1.449
			C154.757,233.721,154.447,235.486,153.191,235.045z"/>
		<path fill-rule="evenodd" fill="#ECCD7B" d="M156.963,237.656c0.008-1.152,1.128-1.191,2.03-1.451
			C158.799,237.172,158.248,237.779,156.963,237.656z"/>
		<path fill-rule="evenodd" fill="#605F5E" d="M211.497,79.276c0.592-0.666,2.408-0.105,3.481-0.29
			C214.387,79.652,212.568,79.091,211.497,79.276z"/>
		<path fill-rule="evenodd" fill="#605F5E" d="M200.765,79.856c0.496-0.664,2.213-0.105,3.19-0.29
			C203.458,80.23,201.74,79.673,200.765,79.856z"/>
		<path fill-rule="evenodd" fill="#A69D8B" d="M120.994,85.078c2.614-0.483,7.25-0.483,9.863,0
			C127.568,85.078,124.281,85.078,120.994,85.078z"/>
		<path fill-rule="evenodd" fill="#605F5E" d="M132.886,85.078c1.264,0.187,3.28-0.378,4.062,0.29
			C135.685,85.181,133.668,85.746,132.886,85.078z"/>
		<path fill-rule="evenodd" fill="#605F5E" d="M137.817,85.368c0.882,0.182,2.499-0.371,2.901,0.29
			C139.837,85.476,138.22,86.03,137.817,85.368z"/>
		<path fill-rule="evenodd" fill="#221F1F" d="M130.566,117.276c0.202-4.844-0.117-9.165-1.74-12.184
			c-1.415-0.637-1.708,2.086-4.061,1.451c-0.556-3.242,2.72-4.96,6.092-5.221c3.778,9.758,2.202,24.872,5.511,35.098
			c1.547,0.388,0.773-1.546,2.321-1.16c1.065,4.632-4.649,4.764-6.382,2.611c-1.078-6.403-0.625-11.527-1.45-17.405
			C130.673,119.49,131.23,117.772,130.566,117.276z"/>
		<path fill-rule="evenodd" fill="#ECCD7B" d="M276.183,135.26c-1.513-7.575-0.032-17.122-2.32-24.076
			c-0.859-2.612-3.963-3.702-2.611-8.122c3.434,1.208,5.77,3.512,5.223,8.702c0.182,0.881-0.372,2.499,0.29,2.901
			c0.859,15.577,3.264,29.611,3.771,45.542c0.183,0.977-0.374,2.695,0.289,3.191c0,0.29,0,0.58,0,0.87
			c-3.385-4.349-0.562-14.908-4.35-18.854c0-2.321,0-4.642,0-6.962C276.289,137.474,276.847,135.757,276.183,135.26z"/>
		<path fill-rule="evenodd" fill="#ECCD7B" d="M72.262,116.406c0.123-0.993-0.869-0.872-1.16-1.451
			c0.232-4.118,0.436-8.266,2.32-10.732c1.552,5.476-0.066,12.657-0.58,17.984c-1.011-0.149-0.426-1.895-0.58-2.9
			C72.742,118.993,72.742,116.719,72.262,116.406z"/>
		<path fill-rule="evenodd" fill="#ECCD7B" d="M270.091,104.223c0.431,3.243,1.007,6.341,0.87,10.153
			c0.187,1.167-0.377,3.084,0.29,3.771c0,3.48,0,6.961,0,10.441c-1.204-2.468-1.705-5.642-1.739-9.281
			c-0.188-1.264,0.378-3.28-0.29-4.061c0-0.388,0-0.774,0-1.161c0.67-1.069,0.101-3.379,0.29-4.931c0-0.967,0-1.934,0-2.901
			c0.648-0.124,0.117-1.43,0.289-2.03C269.897,104.223,269.994,104.223,270.091,104.223z"/>
		<path fill-rule="evenodd" fill="#ECCD7B" d="M273.282,115.826c-1.331,0.254-1.5-2.158-0.871-2.901
			C273.653,112.938,273.185,114.666,273.282,115.826z"/>
		<path fill-rule="evenodd" fill="#605F5E" d="M278.503,111.764c0.666,0.591,0.104,2.409,0.29,3.481
			C278.128,114.654,278.688,112.836,278.503,111.764z"/>
		<path fill-rule="evenodd" fill="#221F1F" d="M151.741,120.756c-0.329-1.605-0.563-3.304-1.16-4.641
			c1.086-0.557,2.146-1.142,4.061-0.87c0.068,10.474,0.965,21.831-0.87,31.037c-1.159,0.776-2.153,1.716-3.191,2.611
			c-1.063,0-2.127,0-3.191,0c-4.545,0.192-9.862-0.386-13.924,0.29c-4.171-0.192-9.396,1.454-11.022-1.74
			c0.246-0.43,0.73-0.624,1.45-0.581c0.967,0,1.934,0,2.901,0c6.29-0.254,10.803-2.427,17.404-0.87c0.406,0.48,2.785,0.48,3.19,0
			c5.523,0.146,4.661-6.084,4.351-11.023c-0.174-1.193,0.468-5.59-0.58-4.061c-1.461,2.078-3.341,5.088-7.252,3.771
			c-2.609-2.902-0.548-10.474-2.9-13.633c-1.475-0.608-2.074,1.92-4.351,1.451c-0.536-3.976,2.499-5.759,4.931-5.222
			c4.488,0.992,2.059,11.267,4.641,14.213c3.763-0.685,4.952-3.944,5.511-7.832C151.741,122.69,151.741,121.724,151.741,120.756z"/>
		<path fill-rule="evenodd" fill="#ECCD7B" d="M272.992,120.466c0-0.967,0-1.934,0-2.9c1.426,5.341,1.755,11.781,1.739,18.564
			c0.189,1.359-0.378,3.474,0.291,4.352c0.384,16.267,4.863,30.095,6.091,46.702c0.198,2.672,0.482,5.158,0.87,7.832
			c0.765,5.254,1.471,10.576,2.032,16.535c0,1.256,0,2.512,0,3.77c0,0.387,0,0.773,0,1.16c-2.354-4.131-2.339-9.309-2.902-14.213
			c-1.729-15.08-4.274-30.226-6.091-44.962c0.898-5.7-1.656-10.285-0.869-16.824c-0.188-1.264,0.376-3.279-0.291-4.062
			c-0.363-3.6-0.723-7.205-0.58-11.312C273.094,123.652,273.662,121.44,272.992,120.466z"/>
		<path fill-rule="evenodd" fill="#A69D8B" d="M263.999,123.947c0.67,0.782,0.104,2.798,0.291,4.061
			C263.622,127.226,264.188,125.21,263.999,123.947z"/>
		<path fill-rule="evenodd" fill="#ECCD7B" d="M72.551,130.909c-0.8-1.136-0.875-4.398,0.291-5.221
			C72.692,127.375,73.168,129.688,72.551,130.909z"/>
		<path fill-rule="evenodd" fill="#A69D8B" d="M74.292,132.069c0.662,0.402,0.109,2.02,0.291,2.901
			C73.921,134.568,74.474,132.952,74.292,132.069z"/>
		<path fill-rule="evenodd" fill="#605F5E" d="M280.534,131.779c0.662,0.403,0.108,2.019,0.289,2.9
			C280.162,134.278,280.716,132.661,280.534,131.779z"/>
		<path fill-rule="evenodd" fill="#605F5E" d="M280.823,135.55c0.663,0.402,0.109,2.019,0.29,2.901
			C280.453,138.049,281.005,136.432,280.823,135.55z"/>
		<path fill-rule="evenodd" fill="#605F5E" d="M64.43,135.26c0.664,0.497,0.106,2.214,0.29,3.191
			C64.055,137.955,64.613,136.237,64.43,135.26z"/>
		<path fill-rule="evenodd" fill="#605F5E" d="M281.113,139.321c0.662,0.402,0.109,2.02,0.29,2.901
			C280.742,141.82,281.296,140.203,281.113,139.321z"/>
		<path fill-rule="evenodd" fill="#ECCD7B" d="M268.931,144.833c0-1.741,0-3.481,0-5.222c1.88,3.149,1.845,8.213,2.03,13.054
			c0.189,1.455-0.38,3.667,0.29,4.641c0,2.417,0,4.834,0,7.252c-1.348-4.938-1.871-10.699-2.029-16.824
			C269.039,146.852,269.593,145.235,268.931,144.833z"/>
		<path fill-rule="evenodd" fill="#605F5E" d="M281.403,143.092c0.662,0.403,0.108,2.02,0.291,2.901
			C281.032,145.591,281.586,143.974,281.403,143.092z"/>
		<path fill-rule="evenodd" fill="#ECCD7B" d="M273.282,152.955c-1.692,0.88-2.406-4.14-2.031-7.252
			c1.34,0.692,1.768,2.293,1.741,4.351C273.174,150.936,272.62,152.552,273.282,152.955z"/>
		<path fill-rule="evenodd" fill="#605F5E" d="M281.694,146.863c0.661,0.402,0.107,2.02,0.289,2.901
			C281.322,149.361,281.876,147.745,281.694,146.863z"/>
		<path fill-rule="evenodd" fill="#A69D8B" d="M272.992,150.054c0.661,0.402,0.107,2.019,0.29,2.901
			C272.62,152.552,273.174,150.936,272.992,150.054z"/>
		<path fill-rule="evenodd" fill="#605F5E" d="M281.983,150.634c0.663,0.402,0.109,2.02,0.291,2.901
			C281.613,153.133,282.165,151.516,281.983,150.634z"/>
		<path fill-rule="evenodd" fill="#605F5E" d="M282.274,154.405c0.661,0.402,0.108,2.02,0.289,2.901
			C281.902,156.903,282.455,155.287,282.274,154.405z"/>
		<path fill-rule="evenodd" fill="#A69D8B" d="M170.885,154.405c0,1.16,0,2.321,0,3.481c-0.665-0.591-0.104-2.409-0.289-3.481
			C170.693,154.405,170.789,154.405,170.885,154.405z"/>
		<path fill-rule="evenodd" fill="#605F5E" d="M282.563,157.886c0.662,0.402,0.109,2.02,0.292,2.901
			C282.192,160.385,282.746,158.768,282.563,157.886z"/>
		<path fill-rule="evenodd" fill="#A69D8B" d="M67.911,159.337c0-2.998,0-5.996,0-8.993
			C68.393,152.668,68.393,157.012,67.911,159.337z"/>
		<path fill-rule="evenodd" fill="#221F1F" d="M122.154,176.742c0.108-5.524-0.08-10.75-0.87-15.375
			c-2.434,0.371-2.259,3.35-5.512,2.9c0.624-4.018,2.945-6.337,7.833-6.092c2.421,6.302,0.916,15.557,1.45,23.206
			c5.541,0.357,8.072,3.725,8.702,8.992c0,1.064,0,2.129,0,3.191c-0.242,6.352-5.665,12.061-11.313,7.832
			c-0.35-6.42-0.317-13.219-0.291-20.016C122.636,180.5,122.636,177.621,122.154,176.742z M126.795,199.076
			c6.756-0.902,3.068-13.637-0.871-12.764C125.28,190.361,126.393,195.113,126.795,199.076z"/>
		<path fill-rule="evenodd" fill="#221F1F" d="M141.299,194.146c0.198,2.605,0.691,4.914,2.03,6.381
			c1.979-0.342,2.128-2.514,3.771-3.191c1.484,4.26-2.257,7.141-6.382,5.801c-5.277-9.805-0.704-29.462-5.221-40.029
			c-2.271-0.144-1.842,2.413-4.351,2.03c-0.939-3.672,2.504-5.404,5.801-5.801c5.001,6.795,2.535,21.058,4.351,31.036
			C141.299,191.631,141.299,192.889,141.299,194.146z"/>
		<path fill-rule="evenodd" fill="#ECCD7B" d="M69.651,169.489c0-2.128,0-4.254,0-6.382c1.156-0.189,0.831,1.103,0.87,2.03
			c-0.483,1.168-0.483,4.344,0,5.512c0,4.738,0,9.476,0,14.214c-0.664,0.496-0.106,2.213-0.29,3.191
			c-0.016,1.336,0.128,2.834-0.29,3.77c-0.51-0.07-0.661-0.498-0.581-1.16c0-1.354,0-2.707,0-4.063
			c0.362-3.891,0.774-7.734,0.581-12.181C69.751,172.869,70.322,170.559,69.651,169.489z"/>
		<path fill-rule="evenodd" fill="#ECCD7B" d="M273.862,164.267c0.082,0.519-0.273,0.596-0.291,0.291
			C272.948,163.022,274.165,158.752,273.862,164.267z"/>
		<path fill-rule="evenodd" fill="#A69D8B" d="M69.651,169.489c0.671,1.069,0.101,3.379,0.29,4.931
			C69.27,173.35,69.839,171.041,69.651,169.489z"/>
		<path fill-rule="evenodd" fill="#221F1F" d="M110.551,189.215c-0.052-2.076-0.239-4.016-0.58-5.803
			c-1.504-0.055-1.718,1.182-3.48,0.869c-0.098-3.965,3.307-4.428,7.251-4.35c-1.01,6.053-0.979,15.008,0.871,20.014
			c1.726,0.18,1.267-1.826,3.19-1.449c0.264,3.648-1.575,5.193-5.221,4.932c-1.826-2.141-1.912-6.018-2.031-9.863
			C110.551,192.113,110.551,190.664,110.551,189.215z"/>
		<path fill-rule="evenodd" fill="#FFE7BE" d="M152.032,183.412c0.567-2.43,1.354-4.641,3.48-5.512
			C156.336,180.605,154.754,183.299,152.032,183.412z"/>
		<path fill-rule="evenodd" fill="#ECCD7B" d="M275.022,185.441c-0.999-3.254-1.328-7.18-1.16-11.601
			c0.189-1.841-0.382-4.444,0.291-5.802c0.495,2.5,1.012,4.982,0.869,8.122c0.184,0.977-0.375,2.695,0.289,3.191
			c0,1.449,0,2.9,0,4.35C275.145,184.213,275.664,185.406,275.022,185.441z"/>
		<path fill-rule="evenodd" fill="#605F5E" d="M284.885,182.543c0.661,0.4,0.108,2.018,0.291,2.898
			C284.514,185.039,285.067,183.424,284.885,182.543z"/>
		<path fill-rule="evenodd" fill="#FFE7BE" d="M90.246,204.297c0.113-3.836-0.964-7.914,0.87-10.441
			c0.214-0.988-1.069-0.479-1.16-1.162c0.08-2.432-0.226-5.252,0.29-7.252c0.944-0.514,1.307-1.256,2.031-1.449
			c9.532-2.551,6.114,17.02,0.58,17.113C92.524,202.707,91.923,204.041,90.246,204.297z"/>
		<path fill-rule="evenodd" fill="#A69D8B" d="M275.312,183.701c0.706,0.775,0.196,4.402-0.289,1.74
			C275.664,185.406,275.145,184.213,275.312,183.701z"/>
		<path fill-rule="evenodd" fill="#605F5E" d="M285.176,186.313c0.66,0.402,0.106,2.02,0.289,2.902
			C284.804,188.813,285.357,187.195,285.176,186.313z"/>
		<path fill-rule="evenodd" fill="#ECCD7B" d="M74.292,204.877c0,0.291,0,0.582,0,0.871c-1.635-5.906-2.125-12.957-2.03-20.596
			c0.888,4.238,1.899,8.35,2.03,13.344C74.292,200.623,74.292,202.75,74.292,204.877z"/>
		<path fill-rule="evenodd" fill="#605F5E" d="M285.465,190.084c0.664,0.496,0.106,2.215,0.29,3.191
			C285.092,192.777,285.649,191.061,285.465,190.084z"/>
		<path fill-rule="evenodd" fill="#A69D8B" d="M63.56,190.664c0,0.967,0,1.934,0,2.9C63.079,193.252,63.079,190.977,63.56,190.664z"
			/>
		<path fill-rule="evenodd" fill="#605F5E" d="M285.755,194.146c0.665,0.59,0.104,2.408,0.29,3.479
			C285.38,197.033,285.94,195.217,285.755,194.146z"/>
		<path fill-rule="evenodd" fill="#ECCD7B" d="M275.604,198.496c-1.088-0.648-0.345-1.76-0.292-2.32
			C275.544,193.725,275.631,195.902,275.604,198.496z"/>
		<path fill-rule="evenodd" fill="#A69D8B" d="M66.459,199.945c0.239-0.727-0.563-2.496,0.58-2.32c0,0.193,0,0.389,0,0.58
			C66.219,198.158,67.281,199.994,66.459,199.945z"/>
		<path fill-rule="evenodd" fill="#605F5E" d="M286.045,198.496c0.666,0.592,0.104,2.41,0.29,3.48
			C285.67,201.387,286.23,199.568,286.045,198.496z"/>
		<path fill-rule="evenodd" fill="#ECCD7B" d="M67.04,198.205c0.796,5.219-0.036,11.127-0.29,16.244
			c-1.146-3.84-0.502-10.166-0.291-14.504C67.281,199.994,66.219,198.158,67.04,198.205z"/>
		<path fill-rule="evenodd" fill="#ECCD7B" d="M69.651,219.092c0.104-0.865,0.462-1.473,0.87-2.031
			c0.201-1.168-1.222-0.713-1.161-1.74c0.544-5.451,1.842-10.148,1.741-16.244c1.908,6.932,1.433,18.188,0,25.236
			c3.387,2.971,0.744,8.105-3.191,8.703c0.279-2.043,1.824-2.816,2.61-4.352c-0.268-2.148-0.842-3.992-0.87-6.383
			C69.651,221.219,69.651,220.154,69.651,219.092z"/>
		<path fill-rule="evenodd" fill="#605F5E" d="M286.335,202.848c0.666,0.59,0.105,2.408,0.29,3.48
			C285.959,205.736,286.521,203.92,286.335,202.848z"/>
		<path fill-rule="evenodd" fill="#ECCD7B" d="M276.183,204.588c0.212-0.518,0.528-0.043,0.87,0
			c-0.226,4.576,1.095,7.607,0.871,12.184c-1.32-1.486-1.673-3.938-1.741-6.674C276.183,208.264,276.183,206.426,276.183,204.588z"
			/>
		<path fill-rule="evenodd" fill="#605F5E" d="M286.625,207.488c0.664,0.496,0.106,2.215,0.29,3.191
			C286.252,210.182,286.809,208.465,286.625,207.488z"/>
		<path fill-rule="evenodd" fill="#605F5E" d="M286.915,211.84c0.664,0.496,0.106,2.213,0.29,3.191
			C286.542,214.535,287.1,212.814,286.915,211.84z"/>
		<path fill-rule="evenodd" fill="#ECCD7B" d="M122.444,214.74c1.86-1.299,5.04-0.145,6.961,0.291
			c-0.216,0.654-1.627,0.113-2.321,0.289c-0.773,0-1.546,0-2.32,0C124.636,214.482,122.573,215.578,122.444,214.74z"/>
		<path fill-rule="evenodd" fill="#A69D8B" d="M122.444,214.74c0.128,0.838,2.191-0.258,2.32,0.58
			C124.037,215.256,121.392,215.625,122.444,214.74z"/>
		<path fill-rule="evenodd" fill="#A69D8B" d="M129.406,215.031c0.915-0.143,1.024,0.521,2.031,0.289
			c-0.785,0.48-3.566,0.48-4.352,0C127.779,215.145,129.19,215.686,129.406,215.031z"/>
		<path fill-rule="evenodd" fill="#ECCD7B" d="M113.162,215.32c-0.007,1.348-2.243,0.465-2.901,1.16
			C109.411,215.422,111.825,215.154,113.162,215.32z"/>
		<path fill-rule="evenodd" fill="#A69D8B" d="M218.749,215.609c1.356,0.674,3.961,0.102,5.801,0.291
			C223.521,216.318,217.459,216.592,218.749,215.609z"/>
		<path fill-rule="evenodd" fill="#A69D8B" d="M230.642,216.189c-0.774,0-1.547,0-2.321,0c0.127-0.355,0.37-0.594,0.87-0.58
			c-0.048,0.631,1.029,0.133,1.451,0.291C230.642,215.998,230.642,216.094,230.642,216.189z"/>
		<path fill-rule="evenodd" fill="#605F5E" d="M287.205,215.9c0.664,0.496,0.107,2.215,0.29,3.191
			C286.831,218.594,287.39,216.877,287.205,215.9z"/>
		<path fill-rule="evenodd" fill="#ECCD7B" d="M82.995,226.633c6.251-5.352,14.246-8.959,24.655-10.152
			C99.092,219.525,91.949,223.984,82.995,226.633z"/>
		<path fill-rule="evenodd" fill="#ECCD7B" d="M229.19,215.609c8.602-0.738,17.42,0.736,23.786,3.191
			c-6.719-0.436-14.287-2.537-22.335-2.611c0-0.096,0-0.191,0-0.289C230.22,215.742,229.143,216.24,229.19,215.609z"/>
		<path fill-rule="evenodd" fill="#ECCD7B" d="M66.459,222.281c-0.673-1.645-0.099-4.541-0.29-6.672
			C67.358,217.277,66.965,220.201,66.459,222.281z"/>
		<path fill-rule="evenodd" fill="#ECCD7B" d="M226.29,218.512c7.61-0.865,14.89,0.922,22.626,2.32
			c9.387,1.695,15.807,2.158,20.306,7.252c4.275-0.42,7.987-1.783,10.731,0.869c-0.457,1.09-1.868,1.227-3.479,1.16
			c-1.745,0.191-4.251-0.381-5.513,0.291c-2.833-0.455-4.837-1.738-7.541-2.32c-0.235-1.395,1.271-1.049,0.87-2.611
			c-1.811-0.758-5.12-2.264-7.252-0.871c-0.984-0.078-0.994-1.131-2.03-1.16c-6.438-0.691-13.041-1.271-19.146-2.609
			c-2.134-0.469-4.026-1.527-5.8-1.451c-1.682,0.074-2.939,1.477-4.642,1.16c-2.322,0.191-5.411-0.383-7.252,0.291
			c-13.389,1.404-24.721,4.867-35.1,9.281c-0.223-1.736,1.979-2.211,3.481-2.9c1.941-0.887,4.223-1.418,6.092-2.32
			c1.221-0.59,2.338-1.813,3.48-2.32c5.541-2.455,12.7-2.689,19.146-3.771C218.846,218.609,223.194,219.188,226.29,218.512z"/>
		<path fill-rule="evenodd" fill="#ECCD7B" d="M138.978,219.381c4.55,0.189,7.95,1.527,11.603,2.611
			c2.495,2.922,8.767,3.609,9.862,6.961c-6.236-1.084-12.86-4.898-19.145-7.252c-1.201-0.449-5.813-1.326-6.672-2.029
			c-0.14-0.115,0.9-0.453,1.161-0.291C136.851,219.381,137.915,219.381,138.978,219.381z"/>
		<path fill-rule="evenodd" fill="#ECCD7B" d="M124.765,220.541c2.99,0.344,8.76,0.152,10.153,1.451
			c0.144,0.135-0.675,0.402-0.871,0.289c-1.256,0-2.514,0-3.771,0c-2.622-0.277-5.148-0.654-7.832-0.869
			c-0.977,0.184-2.695-0.375-3.191,0.289c-11.313,0.967-19.305,5.256-29.587,7.252c7.648-5.404,18.638-7.469,30.748-8.412
			C121.864,220.541,123.314,220.541,124.765,220.541z"/>
		<path fill-rule="evenodd" fill="#A69D8B" d="M218.168,220.832c1.841-0.674,4.93-0.1,7.252-0.291
			C223.579,221.215,220.49,220.641,218.168,220.832z"/>
		<path fill-rule="evenodd" fill="#A69D8B" d="M119.253,221.701c0.497-0.664,2.214-0.105,3.191-0.289
			C121.947,222.076,120.23,221.518,119.253,221.701z"/>
		<path fill-rule="evenodd" fill="#ECCD7B" d="M165.955,228.953c-0.893-0.268-1.159-1.16-1.739-1.74
			c-1.464-0.59-3.427-1.711-5.222-2.611c-1.534-0.768-4.087-1.594-3.481-2.9c1.499,1.309,4.492,1.799,6.672,2.9
			C164.072,225.559,166.865,226.959,165.955,228.953z"/>
		<path fill-rule="evenodd" fill="#ECCD7B" d="M223.97,226.344c-11.535,0.551-21.469,2.703-32.489,3.77
			c9.915-4.584,23.764-8.018,38-6.381c1.937,0.674,5.123,0.098,7.544,0.291c6.433,2.461,15.343,2.447,20.883,5.799
			c-0.263,0.512-1.016,0.533-1.45,0.871c0.896,1.248,2.307-0.947,2.902,0c-0.149,1.496-1.766,1.523-3.481,1.451
			c-0.883,0.182-2.499-0.371-2.901,0.291c-7.075-1.434-15.647-1.369-23.496-2.031c-2.516-0.482-7.055-0.482-9.571,0
			c-9.768,0.385-18.15,2.154-27.558,2.9c6.774-4.15,19.469-2.383,27.847-4.932c1.935,0,3.867,0,5.803,0c0.967,0,1.932,0,2.899,0
			c0.5,0.48,2.981,0.48,3.481,0c2.231,0.127,4.223-1.338,5.512,0.291c0.313,0.48,2.587,0.48,2.899,0
			c3.267-0.111,6.685,2.516,9.572,0.869c0.098,0,0.194,0,0.29,0c1.012,0.539,2.14,0.957,3.772,0.871
			c-0.66-0.889-2.054-1.041-3.481-1.16c-0.402-0.66-2.02-0.107-2.901-0.291c-5.955-1.973-12.593-3.264-20.885-2.898
			C226.184,226.236,224.467,225.68,223.97,226.344z"/>
		<path fill-rule="evenodd" fill="#A69D8B" d="M229.48,223.732c2.419,0.191,5.606-0.385,7.544,0.291
			C234.604,223.83,231.417,224.406,229.48,223.732z"/>
		<path fill-rule="evenodd" fill="#A69D8B" d="M223.97,226.344c0.497-0.664,2.214-0.107,3.19-0.289
			C226.663,226.717,224.946,226.16,223.97,226.344z"/>
		<path fill-rule="evenodd" fill="#A69D8B" d="M115.772,227.504c0.782-0.668,2.797-0.104,4.061-0.291
			C119.051,227.883,117.036,227.316,115.772,227.504z"/>
		<path fill-rule="evenodd" fill="#ECCD7B" d="M148.84,238.816c-1.16,0-2.32,0-3.48,0c-2.415-2.613-2.835-7.221-4.642-10.443
			c1.934-0.289,2.506,0.783,4.062,0.871c-0.168,0.941,0.197,1.35,0.29,2.031c2.018,1.365,5.549,1.219,6.962,3.189
			c-3.549,0.066-4.964-1.996-8.123-2.32c0.558,5.342,8.421,3.377,11.313,6.383c-0.773,0-1.547,0-2.321,0
			C151.639,238.713,149.623,238.148,148.84,238.816z"/>
		<path fill-rule="evenodd" fill="#F37D69" d="M135.498,228.953c3.084,1.559,3.411,5.871,5.221,8.703
			c0.309,1.469-0.857,1.463-1.16,2.32c1.775,4.197-1.865,9.195-1.45,14.795c-0.481,0.975-0.481,3.953,0,4.93
			c0.202,2.256,1.287,4.975-1.16,5.512c0.163-4.127-0.176-7.752-1.16-10.732c-1.167-0.199-1.656,0.277-2.611,0.291
			c-1.592,4.787-3.609,9.152-7.832,11.313c1.444-4.434,0.866-9.02,2.031-13.053c0.264-0.914,1.043-1.656,1.161-2.613
			c0.814-6.654-4.026-13.041-3.191-20.596c1.646-0.576,3.45-0.996,5.802-0.869C132.597,228.953,134.047,228.953,135.498,228.953z"/>
		<path fill-rule="evenodd" fill="#A69D8B" d="M248.045,228.953c0.882,0.184,2.499-0.369,2.901,0.291
			c-0.246-0.053-0.273,0.113-0.291,0.289c-0.096,0-0.192,0-0.29,0C250.237,228.695,248.175,229.791,248.045,228.953z"/>
		<path fill-rule="evenodd" fill="#ECCD7B" d="M66.17,228.373c1.321,0.705,0.068,2.914,0,4.063
			C65.55,231.607,65.888,229.264,66.17,228.373z"/>
		<path fill-rule="evenodd" fill="#221F1F" d="M250.946,229.244c1.428,0.119,2.821,0.271,3.481,1.16
			c-1.633,0.086-2.761-0.332-3.772-0.871C250.673,229.357,250.7,229.191,250.946,229.244z"/>
		<path fill-rule="evenodd" fill="#ECCD7B" d="M265.159,230.693c-0.319,0.938-2.02,0.494-2.899,0.871
			c0.166-0.51-0.351-1.705,0.289-1.742C263.615,229.92,264.154,230.539,265.159,230.693z"/>
		<path fill-rule="evenodd" fill="#A69D8B" d="M270.961,230.404c1.262-0.672,3.768-0.1,5.513-0.291
			C275.211,230.785,272.705,230.215,270.961,230.404z"/>
		<path fill-rule="evenodd" fill="#ECCD7B" d="M189.741,230.693c-0.188,1.068-1.725,0.791-2.61,1.162
			C187.085,230.553,188.434,230.645,189.741,230.693z"/>
		<path fill-rule="evenodd" fill="#A69D8B" d="M252.977,232.436c0.402-0.662,2.019-0.109,2.901-0.291
			C255.476,232.807,253.857,232.252,252.977,232.436z"/>
		<path fill-rule="evenodd" fill="#ECCD7B" d="M243.694,233.305c0.058-2.119,3.089-0.564,4.062-1.16
			C247.216,233.346,245.085,232.953,243.694,233.305z"/>
		<path fill-rule="evenodd" fill="#ECCD7B" d="M231.802,232.436c2.884-0.08,5.56,0.047,7.831,0.58
			c-5.726,1.623-12.512,2.184-19.724,2.32c-1.647,0.189-4.057-0.383-5.223,0.289c-3.189,0-6.381,0-9.572,0
			c-1.745-0.482-5.507-0.482-7.252,0c-2.673,0.229-4.508,1.293-7.542,1.16c1.539-2.283,4.835-1.182,7.542-1.74
			c1.154-0.236,2.297-1.236,3.481-1.449c4.092-0.742,8.517,0.65,12.763-0.291c1.938-0.189,4.638,0.383,6.092-0.289
			c2.805,0.094,4.9-0.516,7.832-0.291C229.197,232.539,231.114,233.102,231.802,232.436z"/>
		<path fill-rule="evenodd" fill="#ECCD7B" d="M189.16,236.205c-2.037,1.59-4.569-0.662-7.251-0.291c0-0.578,0-1.158,0-1.738
			C185.261,233.918,186.427,235.846,189.16,236.205z"/>
		<path fill-rule="evenodd" fill="#A69D8B" d="M214.687,235.625c1.166-0.672,3.575-0.1,5.223-0.289
			C218.742,236.008,216.335,235.436,214.687,235.625z"/>
		<path fill-rule="evenodd" fill="#605F5E" d="M228.9,237.076c0.403-0.662,2.02-0.107,2.901-0.291
			C231.399,237.447,229.782,236.895,228.9,237.076z"/>
		<path fill-rule="evenodd" fill="#605F5E" d="M225.42,237.365c0.402-0.66,2.019-0.107,2.9-0.289
			C227.918,237.738,226.302,237.184,225.42,237.365z"/>
		<path fill-rule="evenodd" fill="#ECCD7B" d="M109.681,238.236c-4.884,1.553-11.527-0.441-16.825,0.58
			c2.23-1.811,13.813-3.15,16.534-1.451C109.544,237.6,109.693,237.836,109.681,238.236z"/>
		<path fill-rule="evenodd" fill="#605F5E" d="M221.938,237.656c0.403-0.662,2.02-0.107,2.902-0.291
			C224.438,238.027,222.82,237.475,221.938,237.656z"/>
		<path fill-rule="evenodd" fill="#605F5E" d="M217.878,237.945c0.497-0.662,2.214-0.105,3.19-0.289
			C220.571,238.32,218.854,237.762,217.878,237.945z"/>
		<path fill-rule="evenodd" fill="#ECCD7B" d="M122.444,238.236c-2.68,0.512-6.169,0.213-9.282,0.291
			c2.151-1.717,6.417-1.32,8.702-2.902C122.46,236.092,122.537,237.08,122.444,238.236z"/>
		<path fill-rule="evenodd" fill="#605F5E" d="M213.526,238.236c0.592-0.666,2.41-0.105,3.481-0.291
			C216.416,238.611,214.598,238.051,213.526,238.236z"/>
		<path fill-rule="evenodd" fill="#605F5E" d="M208.887,238.527c0.685-0.668,2.603-0.105,3.771-0.291
			C211.971,238.904,210.054,238.34,208.887,238.527z"/>
		<path fill-rule="evenodd" fill="#605F5E" d="M203.374,238.816c0.878-0.67,2.992-0.102,4.353-0.289
			C206.848,239.195,204.733,238.629,203.374,238.816z"/>
		<path fill-rule="evenodd" fill="#605F5E" d="M196.703,239.105c1.262-0.672,3.768-0.1,5.511-0.289
			C200.952,239.488,198.446,238.916,196.703,239.105z"/>
		<path fill-rule="evenodd" fill="#605F5E" d="M185.681,239.396c2.418-0.676,6.089-0.098,8.992-0.291
			C192.253,239.781,188.582,239.205,185.681,239.396z"/>
		<path fill-rule="evenodd" fill="#C99946" d="M178.429,235.336c0.596,1.623,0.023,3.131,0,4.932
			c-4.549-0.033-8.327,1.688-12.764,0.869c-1.053-0.492-2.045-1.049-2.611-2.031c0-0.096,0-0.193,0-0.289
			c-0.199-1.457,0.172-2.34,0.581-3.191c0.271-0.213,0.439-0.527,0.581-0.869c1.769-2.293,3.525-4.596,5.801-6.383
			c1.159,0.193,1.988,0.721,2.901,1.16C175.239,230.982,177.265,232.729,178.429,235.336z"/>
		<path fill-rule="evenodd" fill="#605F5E" d="M66.459,241.137c1.073,0.186,2.891-0.375,3.481,0.291
			C68.869,241.242,67.051,241.803,66.459,241.137z"/>
		<path fill-rule="evenodd" fill="#605F5E" d="M88.505,241.428c1.551-0.674,4.348-0.1,6.382-0.291
			C93.336,241.811,90.539,241.236,88.505,241.428z"/>
		<path fill-rule="evenodd" fill="#605F5E" d="M118.383,241.137c0.977,0.184,2.694-0.373,3.191,0.291
			C120.597,241.244,118.88,241.801,118.383,241.137z"/>
		<path fill-rule="evenodd" fill="#FFE7BE" d="M167.984,98.131c-0.19-3.61,6.229-5.396,9.573-6.382
			c11.146-3.284,23.515-8.343,35.679-9.572c0.785,0.482,3.566,0.482,4.353,0c15.942,0.978,31.473,2.368,40.899,9.862
			c1.895,13.703,1.644,27.214,4.061,39.74c0.322,1.667,1.54,3.26,1.741,4.932c0.147,1.231-0.396,2.557-0.291,3.771
			c0.162,1.854,1.374,3.769,1.741,5.801c0.793,4.403,0.276,9.414,0.869,13.924c0.249,1.881,1.296,3.876,1.452,5.801
			c0.101,1.257-0.408,2.565-0.291,3.771c0.13,1.33,1.018,2.474,1.16,3.771c0.149,1.353-0.354,2.702-0.29,4.059
			c0.304,6.479,3.734,13.031,2.32,20.016c0.186,1.072-0.375,2.891,0.29,3.48c-0.657,3.73,2.505,5.16,0,7.543
			c1.086,1.525,1.965,3.256,1.741,6.092c0,1.064,0,2.127,0,3.191c-0.868,1.453-1.089,3.551-2.031,4.932c0,0.096,0,0.191,0,0.289
			c-1.291-0.063-0.825-1.881-2.03-2.031c-6.002-0.193-9.626-3.967-14.794-5.512c-3.977-1.188-8.438-0.871-12.763-1.738
			c-3.041-0.613-5.673-2.387-8.992-1.742c-1.454-0.672-4.154-0.1-6.092-0.289c-6.914-0.641-13.954,1.094-21.466,2.32
			c-6.221,1.016-12.549,1.398-17.114,2.9c-5.182,1.705-8.673,5.461-13.053,7.252c0.637-6.744-0.787-13.35-0.87-19.725
			c-0.026-1.934,0.603-3.838,0.581-5.803c-0.038-3.232-1.012-6.57-1.45-9.859c-1.313-9.844-1.414-20.12-2.032-31.04
			c0-1.16,0-2.321,0-3.481c-0.185-1.072,0.376-2.89-0.289-3.481c0.306-4.041-0.973-7.941-0.87-11.893
			c0.037-1.426,0.755-2.601,0.87-4.061c0.405-5.137-0.816-10.962-1.451-16.244c-0.652-5.43-0.873-10.885-1.161-16.535
			C167.984,100.838,167.984,99.485,167.984,98.131z M211.206,164.267c0,0.484,0,0.968,0,1.451c-0.171,1.234,1.566,0.562,1.16,2.031
			c1.18,11.72,3.376,23.509,2.902,35.968c4.729,1.074,8.405-2.605,13.052-2.029c2.249,0.277,3.769,2.309,6.381,1.16
			c1.982-3.211-1.167-6.369-1.449-9.863c-0.092-1.129,0.376-2.268,0.289-3.48c-0.091-1.285-0.873-2.531-1.159-4.063
			c-1.164-6.23,0.016-14.693-1.449-20.594c-0.231-0.924-1.004-1.647-1.162-2.61c-0.93-5.681-0.812-11.919,0.291-17.115
			c3.273-1.754,8.591-1.464,13.633-1.451c1.162-5.52,0.947-14.852-0.87-20.014c-1.983-0.533-1.81,1.091-3.191,1.161
			c-3.518-0.74-8.466,2.673-11.893,0.29c-1.544-9.189-1.244-20.222-3.771-28.427c-5.237,2.208-13.404,1.486-18.564,3.771
			c0.55,2.888,2.823,5.606,3.19,9.572c0.23,2.478-0.493,5.061-0.29,7.542c0.25,3.06,1.955,6.635,0.871,8.992
			c-2.781,6.041-15.543-0.593-18.565,5.221c2.589,4.276,1.982,11.747,4.351,16.244c4.646-0.77,9.218-1.612,14.215-2.03
			c1.378,2.585,1.74,6.187,2.029,9.862C210.725,157.986,210.725,162.137,211.206,164.267z"/>
		<path fill-rule="evenodd" fill="#FFE7BE" d="M119.543,121.917c3.307,0.132,3.915,8.864,0.87,10.733
			C116.806,131.347,118.132,124.61,119.543,121.917z"/>
		<path fill-rule="evenodd" fill="#FFE7BE" d="M89.666,180.512c0.495-5.101-1.163-11.139,1.451-13.633
			c5.049-4.822,6.842,8.083,1.45,8.992C92.594,178.412,91.73,180.061,89.666,180.512z"/>
		<path fill-rule="evenodd" fill="#FFE7BE" d="M125.925,186.313c3.939-0.873,7.627,11.861,0.871,12.764
			C126.393,195.113,125.28,190.361,125.925,186.313z"/>
		<path fill-rule="evenodd" fill="#FFE7BE" d="M85.895,198.205c1.76,1.4,0.66,6.107,0.291,8.123
			C81.908,205.906,83.883,199.674,85.895,198.205z"/>
		<path fill-rule="evenodd" fill="#605F5E" d="M215.558,78.696c2.031,0,4.061,0,6.091,0c0,0.097,0,0.194,0,0.291
			c-2.03,0-4.06,0-6.091,0C215.558,78.89,215.558,78.792,215.558,78.696z"/>
		<path fill-rule="evenodd" fill="#605F5E" d="M205.114,79.566c1.069-0.671,3.38-0.102,4.933-0.291
			C208.978,79.947,206.666,79.377,205.114,79.566z"/>
		<path fill-rule="evenodd" fill="#605F5E" d="M115.192,85.368c0.782-0.668,2.797-0.103,4.061-0.29
			C118.471,85.746,116.456,85.181,115.192,85.368z"/>
		<path fill-rule="evenodd" fill="#A69D8B" d="M167.984,98.131c0,1.354,0,2.708,0,4.061
			C167.503,101.501,167.503,98.821,167.984,98.131z"/>
		<path fill-rule="evenodd" fill="#A69D8B" d="M268.062,101.612c0.48,0.785,0.48,3.567,0,4.351
			C268.062,104.512,268.062,103.063,268.062,101.612z"/>
		<path fill-rule="evenodd" fill="#A69D8B" d="M269.512,106.252c0.276-0.882-0.622-2.941,0.579-2.9c0,0.29,0,0.58,0,0.87
			c-0.097,0-0.193,0-0.29,0C269.629,104.823,270.16,106.128,269.512,106.252z"/>
		<path fill-rule="evenodd" fill="#A69D8B" d="M76.033,109.443c0.482,0.976,0.482,3.955,0,4.932
			C76.033,112.731,76.033,111.087,76.033,109.443z"/>
		<path fill-rule="evenodd" fill="#A69D8B" d="M223.39,116.115c0.663,0.497,0.106,2.214,0.291,3.191
			C223.015,118.81,223.572,117.092,223.39,116.115z"/>
		<path fill-rule="evenodd" fill="#A69D8B" d="M130.566,117.276c0.664,0.496,0.107,2.214,0.291,3.19
			C130.192,119.97,130.75,118.252,130.566,117.276z"/>
		<path fill-rule="evenodd" fill="#A69D8B" d="M151.161,130.909c1.048-1.529,0.406,2.868,0.58,4.061
			C150.884,134.281,152.019,131.599,151.161,130.909z"/>
		<path fill-rule="evenodd" fill="#A69D8B" d="M196.122,134.1c0,1.257,0,2.514,0,3.771
			C195.642,137.276,195.642,134.695,196.122,134.1z"/>
		<path fill-rule="evenodd" fill="#A69D8B" d="M67.04,140.482c-0.191,3.095,0.386,6.959-0.29,9.572
			C66.942,146.959,66.365,143.094,67.04,140.482z"/>
		<path fill-rule="evenodd" fill="#A69D8B" d="M202.504,143.672c1.451,0,2.901,0,4.351,0
			C206.069,144.154,203.289,144.154,202.504,143.672z"/>
		<path fill-rule="evenodd" fill="#A69D8B" d="M144.2,145.993c1.063,0,2.127,0,3.19,0
			C146.984,146.474,144.605,146.474,144.2,145.993z"/>
		<path fill-rule="evenodd" fill="#A69D8B" d="M270.961,152.665c0.67,0.973,0.102,3.186,0.29,4.641
			C270.581,156.332,271.15,154.12,270.961,152.665z"/>
		<path fill-rule="evenodd" fill="#A69D8B" d="M75.162,163.107c0.481,0.785,0.481,3.566,0,4.351
			C75.162,166.008,75.162,164.558,75.162,163.107z"/>
		<path fill-rule="evenodd" fill="#A69D8B" d="M63.85,175.871c0.674,2.227,0.098,5.704,0.29,8.411
			C63.465,182.055,64.041,178.58,63.85,175.871z"/>
		<path fill-rule="evenodd" fill="#A69D8B" d="M122.154,176.742c0.482,0.879,0.482,3.758,0,4.639
			C122.154,179.836,122.154,178.287,122.154,176.742z"/>
		<path fill-rule="evenodd" fill="#A69D8B" d="M69.36,186.602c0,1.355,0,2.709,0,4.063C68.879,189.975,68.879,187.293,69.36,186.602
			z"/>
		<path fill-rule="evenodd" fill="#A69D8B" d="M270.961,197.625c0.665,0.592,0.104,2.41,0.29,3.48
			C270.586,200.516,271.146,198.697,270.961,197.625z"/>
		<path fill-rule="evenodd" fill="#A69D8B" d="M74.292,198.496c0.483,1.455,0.483,4.926,0,6.381
			C74.292,202.75,74.292,200.623,74.292,198.496z"/>
		<path fill-rule="evenodd" fill="#A69D8B" d="M221.357,199.076c1.258,0,2.515,0,3.772,0
			C224.534,199.557,221.953,199.557,221.357,199.076z"/>
		<path fill-rule="evenodd" fill="#A69D8B" d="M276.183,204.588c0,1.838,0,3.676,0,5.51
			C275.699,208.932,275.699,205.756,276.183,204.588z"/>
		<path fill-rule="evenodd" fill="#A69D8B" d="M284.016,211.551c0.479,0.594,0.479,3.174,0,3.77
			C284.016,214.063,284.016,212.807,284.016,211.551z"/>
		<path fill-rule="evenodd" fill="#A69D8B" d="M215.269,218.801c3.094-0.676,7.443-0.098,11.021-0.289
			C223.194,219.188,218.846,218.609,215.269,218.801z"/>
		<path fill-rule="evenodd" fill="#605F5E" d="M62.979,219.092c-0.191,1.938,0.383,4.637-0.29,6.092
			C62.879,223.246,62.307,220.545,62.979,219.092z"/>
		<path fill-rule="evenodd" fill="#A69D8B" d="M69.651,219.092c0,1.063,0,2.127,0,3.189C69.17,221.877,69.17,219.496,69.651,219.092
			z"/>
		<path fill-rule="evenodd" fill="#A69D8B" d="M135.788,219.381c0.406-0.479,2.785-0.479,3.19,0
			C137.915,219.381,136.851,219.381,135.788,219.381z"/>
		<path fill-rule="evenodd" fill="#A69D8B" d="M130.276,222.281c1.257,0,2.515,0,3.771,0
			C133.452,222.764,130.871,222.764,130.276,222.281z"/>
		<path fill-rule="evenodd" fill="#605F5E" d="M62.689,226.924c-0.19,1.742,0.382,4.25-0.29,5.512
			C62.589,230.689,62.017,228.184,62.689,226.924z"/>
		<path fill-rule="evenodd" fill="#A69D8B" d="M220.198,228.373c1.264-0.48,4.538-0.48,5.803,0
			C224.065,228.373,222.133,228.373,220.198,228.373z"/>
		<path fill-rule="evenodd" fill="#A69D8B" d="M131.146,228.953c0.785-0.48,3.566-0.48,4.351,0
			C134.047,228.953,132.597,228.953,131.146,228.953z"/>
		<path fill-rule="evenodd" fill="#A69D8B" d="M112.872,229.822c1.457-0.48,4.925-0.48,6.381,0
			C117.127,229.822,114.999,229.822,112.872,229.822z"/>
		<path fill-rule="evenodd" fill="#A69D8B" d="M228.03,232.725c0.688-0.668,2.604-0.104,3.771-0.289
			C231.114,233.102,229.197,232.539,228.03,232.725z"/>
		<path fill-rule="evenodd" fill="#A69D8B" d="M214.106,233.305c1.455-0.672,4.156-0.1,6.092-0.289
			C218.744,233.688,216.044,233.115,214.106,233.305z"/>
		<path fill-rule="evenodd" fill="#A69D8B" d="M82.704,239.105c1.741,0,3.481,0,5.221,0
			C86.854,239.588,83.776,239.588,82.704,239.105z"/>
		<path fill-rule="evenodd" fill="#605F5E" d="M71.392,241.428c3.964,0,7.928,0,11.893,0c0,0.096,0,0.193,0,0.289
			C79.416,241.525,74.776,242.104,71.392,241.428z"/>
		<path fill-rule="evenodd" fill="#605F5E" d="M141.589,256.801c0.482,1.457,0.482,4.926,0,6.383
			C141.589,261.055,141.589,258.93,141.589,256.801z"/>
		<path fill-rule="evenodd" fill="#ECCD7B" d="M263.999,123.947c-0.424-9.34-3.216-16.314-2.899-26.396
			c2.071,10.593,3.218,22.114,4.35,33.648c-0.886-0.563-1.167-1.733-1.159-3.191C264.103,126.745,264.669,124.729,263.999,123.947z"
			/>
		<path fill-rule="evenodd" fill="#ECCD7B" d="M67.04,116.695c0.372-3.883-1.566-10.076,3.191-9.572
			c-0.225,3.836-0.835,7.287-0.871,11.313c-0.482,1.553-0.482,5.12,0,6.672c1.112,2.646-0.621,4.048-1.16,6.091
			c-1.448,5.483,0.483,12.608-0.29,19.145c0,2.997,0,5.996,0,8.993c0.221,4.863-0.46,8.821-0.871,13.053
			c-0.676-6.865-0.096-14.987-0.29-22.336c0.675-2.613,0.099-6.477,0.29-9.572c0-4.158,0-8.316,0-12.474
			C67.523,124.912,67.523,119.792,67.04,116.695z"/>
		<path fill-rule="evenodd" fill="#ECCD7B" d="M76.033,109.443c0,1.644,0,3.288,0,4.932c0.12,3.407-0.6,5.975-1.161,8.702
			c-0.658-0.309-0.11-1.824-0.29-2.611c-0.118-4.18,0.598-9.069,1.451-11.313C76.033,109.25,76.033,109.347,76.033,109.443z"/>
		<path fill-rule="evenodd" fill="#ECCD7B" d="M73.131,173.26c0,0.871,0,1.741,0,2.611C71.979,175.745,72.08,173.52,73.131,173.26z"
			/>
		<path fill-rule="evenodd" fill="#ECCD7B" d="M68.2,179.352c0.845,1.711-0.341,3.652,0,5.801c-1.225-0.904-1.468-4.326-0.87-6.092
			C67.742,179.037,68.152,179.014,68.2,179.352z"/>
		<path fill-rule="evenodd" fill="#ECCD7B" d="M74.582,186.893c-1.344-1.418-0.232-4.943-0.291-6.961
			C75.963,181.4,74.652,184.625,74.582,186.893z"/>
		<path fill-rule="evenodd" fill="#ECCD7B" d="M218.749,215.609c0.681-0.09,1.088-0.457,2.029-0.289c1.064,0,2.127,0,3.191,0
			c0.58,0,1.16,0,1.74,0c-0.07,0.512-0.499,0.66-1.16,0.58C222.71,215.711,220.105,216.283,218.749,215.609z"/>
		<path fill-rule="evenodd" fill="#ECCD7B" d="M283.725,225.764c-1.153,0.088-1.569-0.559-1.45-1.74
			C283.482,223.877,283.667,224.758,283.725,225.764z"/>
		<path fill-rule="evenodd" fill="#ECCD7B" d="M242.824,232.725c0.193,1.258-1.347,0.781-2.32,0.871c0-0.291,0-0.58,0-0.871
			C241.276,232.725,242.051,232.725,242.824,232.725z"/>
		<path fill-rule="evenodd" fill="#F37D69" d="M210.916,105.092c0-0.58,0-1.16,0-1.74c2.256-1.998,6.256-2.253,9.572-3.191
			c2.204,4.083,2.942,9.628,2.901,15.954c0.183,0.977-0.375,2.695,0.291,3.191c0.004,3.425,1.318,6.842-0.581,8.992
			c4.456,3.873,10.897-1.754,16.824,0c1.346,2.812,0.74,7.574,0.869,11.604c-4.114,1.731-14.896-0.298-15.083,4.931
			c-0.262,7.333,1.731,17.045,2.61,26.396c0.87,9.257,2.129,18.409,2.612,26.106c-0.16,0.422,0.338,1.5-0.291,1.449
			c-0.787,0.18-2.303-0.367-2.611,0.291c-0.966,0-1.933,0-2.9,0c-1.258,0-2.515,0-3.772,0c-0.675,0-1.352,0-2.029,0
			c-1.576-7.217-2.454-15.193-3.189-23.206c-0.732-7.95-1.754-15.985-2.321-23.786c-0.23-3.158,0.762-7.115-0.871-9.863
			c-2.86-0.348-3.31,1.717-6.092,1.45c-1.449,0-2.899,0-4.351,0c-1.582,0.063-3.486-0.199-4.642,0.29
			c-0.724-1.885-1.96-3.26-1.74-6.091c0-1.257,0-2.514,0-3.771c0-0.096,0-0.193,0-0.29c3.532-2.916,16.573-1.517,17.404-6.092
			c0.555-3.051-2.898-1.914-2.32-5.511C211.014,116.599,211.593,110.218,210.916,105.092z"/>
		<path fill-rule="evenodd" fill="#221F1F" d="M211.206,155.855c-0.289-3.675-0.651-7.277-2.029-9.862
			c-4.997,0.418-9.569,1.261-14.215,2.03c-2.368-4.498-1.762-11.968-4.351-16.244c3.022-5.814,15.784,0.819,18.565-5.221
			c1.084-2.356-0.621-5.932-0.871-8.992c-0.203-2.481,0.521-5.064,0.29-7.542c-0.367-3.966-2.641-6.684-3.19-9.572
			c5.16-2.285,13.327-1.563,18.564-3.771c2.526,8.205,2.227,19.238,3.771,28.427c3.427,2.383,8.375-1.03,11.893-0.29
			c1.382-0.07,1.208-1.693,3.191-1.161c1.817,5.162,2.032,14.494,0.87,20.014c-5.042-0.013-10.359-0.303-13.633,1.451
			c-1.103,5.196-1.221,11.434-0.291,17.115c0.158,0.962,0.931,1.686,1.162,2.61c1.465,5.901,0.285,14.364,1.449,20.594
			c0.286,1.531,1.068,2.777,1.159,4.063c0.087,1.213-0.381,2.352-0.289,3.48c0.282,3.494,3.432,6.652,1.449,9.863
			c-2.612,1.148-4.132-0.883-6.381-1.16c-4.646-0.576-8.323,3.104-13.052,2.029c0.474-12.459-1.723-24.248-2.902-35.968
			c0.406-1.469-1.331-0.797-1.16-2.031c0-0.483,0-0.966,0-1.451C211.206,161.463,211.206,158.66,211.206,155.855z M223.39,116.115
			c0.041-6.326-0.697-11.872-2.901-15.954c-3.316,0.938-7.316,1.194-9.572,3.191c0,0.58,0,1.16,0,1.74
			c0.193,5.609-0.386,11.989,0.29,17.115c-0.578,3.598,2.875,2.46,2.32,5.511c-0.831,4.575-13.872,3.176-17.404,6.092
			c0,0.097,0,0.193,0,0.29c-0.48,0.595-0.48,3.177,0,3.771c-0.22,2.831,1.017,4.206,1.74,6.091c1.155-0.489,3.06-0.228,4.642-0.29
			c0.785,0.482,3.565,0.482,4.351,0c2.782,0.268,3.231-1.797,6.092-1.45c1.633,2.748,0.641,6.705,0.871,9.863
			c0.567,7.8,1.589,15.836,2.321,23.786c0.735,8.012,1.613,15.989,3.189,23.206c0.678,0,1.354,0,2.029,0
			c0.596,0.48,3.177,0.48,3.772,0c0.968,0,1.935,0,2.9,0c1.064,0,2.127,0,3.191,0c-0.168-0.51,0.351-1.705-0.289-1.74
			c-0.483-7.697-1.742-16.85-2.612-26.106c-0.879-9.352-2.872-19.064-2.61-26.396c0.188-5.229,10.969-3.2,15.083-4.931
			c-0.129-4.029,0.477-8.792-0.869-11.604c-5.927-1.754-12.368,3.873-16.824,0c1.899-2.15,0.585-5.566,0.581-8.992
			C223.496,118.33,224.053,116.612,223.39,116.115z"/>
		<path fill-rule="evenodd" fill="#221F1F" d="M94.887,113.504c0.105-4.729,0.396-9.273,3.48-11.022
			c3.536-0.055,6.739,0.223,6.672,3.771c-1.82,0.954-3.295-0.697-4.642-1.16c-2.642,1.71-3.568,5.134-3.481,9.573
			c0.182,0.881-0.371,2.499,0.29,2.901c0,1.063,0,2.126,0,3.19c3.09-0.342,6.626-2.606,9.573-1.16
			c3.265,1.603,2.928,4.904,3.481,9.863c0.19,1.704,1.044,3.351,1.16,4.931c0.39,5.327-2.476,11.187,0,14.504
			c2.157-0.006,1.394-2.78,2.9-2.031c2.668,1.326-1.689,7.926-5.801,5.512c-4.452-3.79,4.677-28.811-4.351-30.458
			c-4.243-0.774-7.131,3.054-7.252,7.251c0,2.128,0,4.255,0,6.382c-0.089,2.038-0.501,3.752-1.16,5.221
			c-0.847,0.314-1.671,0.65-2.901,0.58c-1.117,1.956-1.333,6.107-4.931,4.642c0.599-3.56,1.881-6.435,4.641-7.832
			c-0.166-5.468,2.276-7.613,2.321-13.343C94.887,121.046,94.887,117.276,94.887,113.504z"/>
		<path fill-rule="evenodd" fill="#221F1F" d="M125.635,127.428c-0.331,2.763-1.058,5.129-3.481,5.802
			c0.141,1.494-0.276,2.431-0.87,3.19c-8.53-0.635-7.634-17.647,0.29-18.273c0.871,2.609,4.27,2.692,4.061,6.381
			C125.635,125.495,125.635,126.462,125.635,127.428z M120.414,132.65c3.044-1.869,2.437-10.601-0.87-10.733
			C118.132,124.61,116.806,131.347,120.414,132.65z"/>
		<path fill-rule="evenodd" fill="#221F1F" d="M87.055,188.926c-0.365-1.281-0.358-2.932-1.45-3.484
			c1.963-3.512,0.988-8.287,1.161-13.342c-0.514,0.059-2.895,2.218-4.352,0.58c-0.797-4.453,12.588-14.616,16.245-8.122
			c-0.533,6.332-1.715,12.015-4.351,16.243c0.867,0.584,2.737,0.164,4.061,0.291c2.038,1.348,3.472,3.297,3.481,6.672
			c0,1.162,0,2.32,0,3.48c0.095,7.156-5.131,8.986-6.962,14.215c-3.779,1.537-5.898,4.736-11.893,4.061
			c-7.165-4.297-0.005-13.02,4.061-15.664C87.055,192.211,87.055,190.568,87.055,188.926z M92.566,175.871
			c5.392-0.909,3.599-13.814-1.45-8.992c-2.613,2.495-0.956,8.532-1.451,13.633C91.73,180.061,92.594,178.412,92.566,175.871z
			 M92.856,201.105c5.534-0.094,8.953-19.664-0.58-17.113c-0.724,0.193-1.087,0.936-2.031,1.449c-0.516,2-0.21,4.82-0.29,7.252
			c0.091,0.684,1.375,0.174,1.16,1.162c-1.834,2.527-0.757,6.605-0.87,10.441C91.923,204.041,92.524,202.707,92.856,201.105z
			 M86.185,206.328c0.37-2.016,1.47-6.723-0.291-8.123C83.883,199.674,81.908,205.906,86.185,206.328z"/>
		<path fill-rule="evenodd" fill="#221F1F" d="M151.741,186.602c-0.393,5.52,1.228,9.023,4.641,10.734
			c4.432-0.115,5.877-4.758,8.414-5.803c0.641,7.555-6.459,9.975-13.055,8.412c-1.355-3.188-2.102-6.986-2.61-11.02
			c-1.253,0.238-3.209-0.682-3.771-2.033c0.216-1.695,1.675-3.111,3.48-2.32c2.035-2.318,2.065-6.639,3.191-9.862
			c4.714-1.408,8.805,1.214,7.251,6.09C156.369,182.334,155.576,185.99,151.741,186.602z M155.512,177.9
			c-2.127,0.871-2.913,3.082-3.48,5.512C154.754,183.299,156.336,180.605,155.512,177.9z"/>
	</g>
</g>
</svg>
