<?xml version="1.0" encoding="utf-8"?>
<!-- Generator: Adobe Illustrator 16.0.0, SVG Export Plug-In . SVG Version: 6.00 Build 0)  -->
<!DOCTYPE svg PUBLIC "-//W3C//DTD SVG 1.1 Tiny//EN" "http://www.w3.org/Graphics/SVG/1.1/DTD/svg11-tiny.dtd">
<svg version="1.1" baseProfile="tiny" id="Layer_1" xmlns="http://www.w3.org/2000/svg" xmlns:xlink="http://www.w3.org/1999/xlink"
	 x="0px" y="0px" width="350px" height="350px" viewBox="0 0 350 350" overflow="scroll" xml:space="preserve">
<g>
	<path fill="#C1272D" d="M305.684,194.639L182.26,186.26h-14.52l-123.424,8.379L27.073,214.5
		c16.335,6.353,42.654-0.054,42.654-0.054c24.552-9.821,64.045-6.384,87.04-3.112c3.129,3.74,20.045,21.598,41.271-0.666
		c23.386-3.021,59.318-5.435,82.235,3.732c0,0,26.318,6.454,42.653,0.101L305.684,194.639z"/>
	<path fill="#9B232C" d="M158.917,203.374c0,0,19.519,22.915,35.271-0.729C209.939,179,159.169,178.743,158.917,203.374"/>
	<path fill="#EFEFEF" d="M140.951,162.42c3.236-11.391,22.284-25.431,27.57-29.15c-28.118-12.999-85.18,3.869-85.18,3.869
		c-15.428,23.88-49.006,37.795-49.006,37.795l4.538,10.903l35.394-4.115l66.85-3.012
		C140.324,172.568,139.677,166.902,140.951,162.42"/>
	<path fill="#EFEFEF" d="M266.66,137.14c0,0-67.157-19.853-91.66,0.113c-0.928-0.756-1.923-1.448-2.966-2.093
		c-14.901,14.617-21.243,23.923-21.538,29.318c0.463,4.976,0.677,9.56,0.704,13.778l23.8-1.072l100.735,4.538l35.394,4.115
		l4.538-10.903C315.667,174.935,282.088,161.02,266.66,137.14"/>
	<path fill="#EFEFEF" d="M150.497,164.479c0.294-5.395,6.637-14.702,21.538-29.318c-1.114-0.688-2.283-1.321-3.514-1.891
		c-5.285,3.719-24.333,17.759-27.569,29.15c-1.272,4.481-0.627,10.147,0.164,16.291l10.085-0.454
		C151.174,174.039,150.959,169.456,150.497,164.479"/>
	<path fill="#CCCCCC" d="M286.851,175.251c-13.611-10.32-71.012-27.199-111.851,2.385c-40.839-29.584-98.238-12.706-111.85-2.385
		c-13.613,10.321-28.817-0.091-28.817-0.091v33.245c9.075,5.267,32.617-0.364,32.617-0.364c30.704-15.905,70.241-9.948,91.967-4.667
		c1.849-2.532,13.9-17.133,35.27-0.729c22.235-5.054,59.568-9.779,88.861,5.396c0,0,23.543,5.631,32.618,0.364v-33.245
		C315.667,175.161,300.463,185.572,286.851,175.251"/>
	<image width="39" height="86" xlink:href="CAEFAC86.png"  transform="matrix(1 0 0 1 134 133)">
	</image>
	<path fill="#FBB03B" d="M166.263,132.322c0,0-25.178,16.847-28.942,30.099c-3.764,13.251,9.243,36.848-6.789,52.577l6.353-2.42
		l2.117,6.05c0,0,11.496-15.125,7.866-54.149c0.302-5.553,7.012-15.249,22.866-30.615
		C169.733,133.864,169.979,129.686,166.263,132.322"/>
	<polygon fill="#4D4D4D" points="230.057,134.53 220.691,134.62 220.226,132.715 216.596,132.715 216.068,134.493 206.915,134.323 
		205.088,136.345 215.479,136.345 210.302,152.681 226.429,152.681 221.251,136.345 231.643,136.345 	"/>
</g>
</svg>
