<?xml version="1.0" encoding="utf-8"?>
<!-- Generator: Adobe Illustrator 16.0.0, SVG Export Plug-In . SVG Version: 6.00 Build 0)  -->
<!DOCTYPE svg PUBLIC "-//W3C//DTD SVG 1.1 Tiny//EN" "http://www.w3.org/Graphics/SVG/1.1/DTD/svg11-tiny.dtd">
<svg version="1.1" baseProfile="tiny" id="Layer_1" xmlns="http://www.w3.org/2000/svg" xmlns:xlink="http://www.w3.org/1999/xlink"
	 x="0px" y="0px" width="350px" height="350px" viewBox="0 0 350 350" overflow="scroll" xml:space="preserve">
<g>
	<path fill="#C1272D" d="M37.52,156.57c47.527-37.397,96.914-32.712,96.914-32.712c35.644-41.097,92.839-36.531,92.839-36.531
		l87.008,96.659c2.348,2.609,0.256,6.745-3.238,6.392c-31.818-3.221-63.859,12.782-80.16,24.815c0,0.001-6.369,13.646-25.758,9.909
		c-32.943,0.168-66.227,30.716-80.867,44.789c-3.825,3.677-10.018,3.129-13.158-1.146l-74.945-102.03
		C33.807,163.518,34.403,159.022,37.52,156.57"/>
	<path fill="#9B232C" d="M226.924,210.514c0,0-2.768,12.819-23.443,8.427c-20.676-4.39,7.176-21.453,7.176-21.453l12.643,1.883
		L226.924,210.514z"/>
	<path fill="#CCCCCC" d="M41.958,148.304l12.819,5.822c41.523-26.798,81.007-24.158,81.007-24.158
		c33.91-37.378,87.349-34.57,87.349-34.57l67.213,70.653l7.582,0.948l14.563,2.652l-2.48,17.071
		c-34.1-7.26-66.77,11.665-83.609,23.962c-2.877-6.574-9.328-7.482-9.328-7.482c-9.184,1.554-12.594,9.633-13.854,15.825
		c-40.564,0.325-85.678,47.712-85.678,47.712L39.476,165.375L41.958,148.304z"/>
	<path fill="#EFEFEF" d="M138.268,112.896l78.805,90.306c0,0,46.229-44.022,95.42-33.55l-86.877-91.325
		C225.615,78.328,172.176,75.52,138.268,112.896"/>
	<path fill="#EFEFEF" d="M138.268,112.896c0,0-49.765-3.328-96.31,35.407l78.065,101.364c0,0,54.073-56.81,97.049-46.466
		L138.268,112.896z"/>
	<image width="93" height="55" xlink:href="DD656651.png"  transform="matrix(1 0 0 1 199 135)">
	</image>
	<line fill="none" stroke="#FFFFFF" stroke-miterlimit="10" x1="120.023" y1="249.668" x2="117.542" y2="266.739"/>
	<path fill="#FBB03B" d="M169.309,263.449c-2.226-1.554-3.78-4.587-4.156-8.115c-0.388-3.637,0.325-7.405,1.154-11.27
		c0.523-2.438,1.083-4.869,1.642-7.301c1.725-7.508,3.511-15.27,4.212-23.188c1.11-12.55-0.82-23.259-5.737-31.835
		c-1.89-3.295-4.193-6.214-6.418-9.039l-21.93-27.82l-5.78,4.556l21.93,27.821c2.062,2.614,4.193,5.318,5.814,8.143
		c4.152,7.245,5.764,16.505,4.79,27.525c-0.656,7.413-2.383,14.924-4.054,22.188c-0.567,2.467-1.134,4.934-1.666,7.406
		c-0.921,4.292-1.779,8.879-1.276,13.594c0.606,5.7,3.254,10.573,7.263,13.37l-1.135-6.994L169.309,263.449z"/>
	<polygon fill="#4D4D4D" points="192.961,122.774 204.373,119.04 198.76,112.494 204.555,110.821 209.842,117.25 219.629,114.047 
		222.629,117.987 213.189,121.317 227.875,139.171 223.443,141.278 207.92,123.176 196.947,127.047 	"/>
	<image width="161" height="112" xlink:href="DD656653.png"  transform="matrix(1 0 0 1 57 112)">
	</image>
	<path fill="#EFEFEF" d="M138.268,112.896c0,0-36.633-40.608-57.333-34.629c-20.699,5.98-19.319,23.459-28.519,27.139l80.957,94.755
		c0,0,11.81-8.484,15.179-12.879c10.58-13.799,39.524-12.779,68.52,15.919L138.268,112.896z"/>
	<image width="111" height="111" xlink:href="DD656656.png"  transform="matrix(1 0 0 1 138 93)">
	</image>
</g>
</svg>
