<?xml version="1.0" encoding="utf-8"?>
<!-- Generator: Adobe Illustrator 16.0.0, SVG Export Plug-In . SVG Version: 6.00 Build 0)  -->
<!DOCTYPE svg PUBLIC "-//W3C//DTD SVG 1.1 Tiny//EN" "http://www.w3.org/Graphics/SVG/1.1/DTD/svg11-tiny.dtd">
<svg version="1.1" baseProfile="tiny" id="Layer_1" xmlns="http://www.w3.org/2000/svg" xmlns:xlink="http://www.w3.org/1999/xlink"
	 x="0px" y="0px" width="350px" height="350px" viewBox="0 0 350 350" overflow="scroll" xml:space="preserve">
<g>
	<g>
		<g>
			<circle fill="none" cx="172.158" cy="175" r="103.251"/>
			<path fill="#FFF9E1" d="M172.158,65.612c-60.318,0-109.389,49.071-109.389,109.388s49.07,109.388,109.389,109.388
				c60.315,0,109.387-49.071,109.387-109.388S232.473,65.612,172.158,65.612z"/>
		</g>
		<circle fill="#00E1FF" cx="172.158" cy="175" r="103.251"/>
	</g>
	<path fill="#FFF9E1" d="M298.223,230.067l-4.27-4.268c-2.254-6.188-2.066-11.84-2.066-11.84c0.123-2.178-0.564-4.313-1.926-6.003
		c-0.107-0.134-10.84-13.664-25.77-41.931C249.453,138.12,245,115.74,244.959,115.528c-0.471-2.473-1.986-4.63-4.152-5.917
		c-1.357-0.805-2.91-1.232-4.49-1.232c-0.916,0-1.822,0.143-2.656,0.411c-0.072,0.021-7.486,2.25-21.828,2.25
		c-4.178,0-8.648-0.194-13.32-0.582c-4.391-5.276-10.834-5.276-14.879-5.276l-2.623,0.005c-6.779,0-11.513,2.166-14.073,6.438
		c-0.245,0.409-0.463,0.832-0.652,1.264c-2.71,1.123-4.928,2.441-6.729,3.787c-12.296-11.439-25.812-13.03-36.535-13.03
		c-5.745,0-11.608,0.488-17.816,1.006l-0.094,0.007c-1.649,0.138-3.326,0.277-5.028,0.41c-2.637,0.204-5.185,0.308-7.574,0.308
		c-13.002,0-18.229-3.077-18.652-3.342c-0.097-0.07-0.185-0.131-0.264-0.184c-0.183-0.131-0.41-0.283-0.689-0.446
		c-0.223-0.126-0.448-0.239-0.658-0.337c-0.291-0.135-0.582-0.257-0.941-0.38c-0.23-0.076-0.46-0.14-0.686-0.194
		c-0.339-0.083-0.661-0.144-0.96-0.183c-0.255-0.033-0.507-0.054-0.773-0.065c-0.244-0.01-0.482-0.01-0.725,0l-0.671,0.043
		c-0.263,0.031-0.49,0.076-0.657,0.113c-0.218,0.044-0.436,0.095-0.646,0.154c-0.187,0.052-0.369,0.107-0.554,0.171l-0.668,0.253
		c-0.256,0.113-0.466,0.227-0.629,0.321c-0.198,0.108-0.385,0.218-0.543,0.321c-0.276,0.176-0.537,0.364-0.8,0.577
		c-0.195,0.157-0.382,0.321-0.569,0.502c-0.179,0.172-0.349,0.352-0.519,0.547l-0.455,0.549c-3.956,5.359-7.004,7.061-7.48,7.304
		c-0.139,0.053-0.276,0.108-0.412,0.167l-2.5,0.984l-0.171,0.821c-0.459,0.452-0.87,0.955-1.222,1.501
		c-1.913,0.603-3.586,1.85-4.716,3.583c-1.631,2.498-1.886,5.618-0.685,8.348c20.174,45.798,37.613,111.371,37.788,112.031
		c1.022,3.852,4.518,6.541,8.499,6.541h101.182c3.5,1.82,7.168,2.74,10.926,2.74c1.873,0,3.746-0.233,5.566-0.693
		c2.127-0.539,3.91-1.313,5.283-2.047h78.496c3.568,0,6.756-2.131,8.125-5.427C301.496,236.352,300.746,232.589,298.223,230.067z"/>
	<g>
		<g>
			<g>
				<g>
					<path fill="none" d="M138.918,207.818c5.445-0.318,12.222-0.714,20.454-1.05c16.778-0.682,27.155,1.374,33.542,3.951
						l-35.656-79.051c-10.074-13.516-20.979-16.301-34.237-16.301c-5.256,0-10.886,0.469-16.845,0.966
						c-1.701,0.142-3.432,0.286-5.189,0.422c-2.933,0.228-5.785,0.343-8.479,0.343c-8.285,0-14.197-1.062-18.273-2.283
						c17.709,41.513,29.426,82.414,31.614,90.264C115.262,209.199,121.137,208.856,138.918,207.818z"/>
					<path fill="none" d="M92.794,233.354h0.123c-0.044-0.019-0.092-0.034-0.136-0.052
						C92.785,233.318,92.792,233.337,92.794,233.354z"/>
					<path fill="none" d="M228.994,206.418c7.934,0,13.592,1.317,19.063,2.59c7.775,1.81,15.152,3.522,28.814,0.948
						c-4.57-6.492-12.785-19.029-23.045-38.454c-12.621-23.895-17.994-43.454-19.721-50.749c-3.854,0.831-11.258,2.011-22.273,2.011
						c-4.436,0-9.084-0.194-13.869-0.578l2.377,5.251c16.57,0.868,25.326-0.173,25.42-0.183c1.598-0.199,3.068,0.944,3.266,2.551
						c0.199,1.607-0.945,3.069-2.551,3.267c-0.375,0.046-8.322,0.989-23.418,0.361l2.418,5.341
						c17.328,1.384,25.904,0.298,25.992,0.286c1.602-0.212,3.076,0.915,3.289,2.519c0.215,1.603-0.908,3.076-2.512,3.292
						c-0.355,0.047-8.146,1.056-24.016-0.017l2.35,5.188c18.375,1.985,26.5,0.839,26.58,0.828c1.598-0.24,3.092,0.866,3.33,2.468
						c0.238,1.601-0.867,3.092-2.469,3.33c-0.338,0.05-7.93,1.121-24.645-0.451l2.279,5.037c0.18,0.021,0.354,0.039,0.535,0.063
						c19.041,2.515,26.598,1.371,26.674,1.36c1.592-0.257,3.1,0.832,3.355,2.431s-0.834,3.102-2.432,3.356
						c-0.32,0.051-7.648,1.158-25.297-0.951l2.223,4.907c0.617,0.076,1.246,0.16,1.885,0.258
						c18.826,2.951,25.885,1.821,25.951,1.809c1.592-0.27,3.107,0.789,3.389,2.374c0.281,1.587-0.76,3.101-2.344,3.394
						c-0.297,0.056-7.34,1.283-26.01-1.496l2.176,4.807c1.059,0.124,2.141,0.279,3.256,0.478
						c18.785,3.364,25.154,2.269,25.217,2.257c1.58-0.287,3.113,0.738,3.424,2.313c0.309,1.575-0.688,3.103-2.258,3.432
						c-0.705,0.148-7.469,1.342-27.41-2.23c-0.594-0.105-1.176-0.194-1.75-0.276c-0.854,0.779-2.086,0.993-3.152,0.522l-2.232-0.985
						c-4.246-0.116-7.799,0.389-10.633,1.093l-1.287,1.918c-0.547,0.814-1.461,1.297-2.432,1.297c-0.084,0-0.164-0.004-0.248-0.012
						c-0.797-0.067-1.52-0.457-2.016-1.058c-1.301,0.642-1.984,1.13-2.01,1.146c-0.521,0.384-1.129,0.567-1.73,0.567
						c-0.902,0-1.793-0.414-2.365-1.197c-0.957-1.305-0.676-3.139,0.629-4.097c0.133-0.096,1.146-0.821,2.98-1.715l-2.764-6.146
						c-1.463,0.714-2.203,1.279-2.227,1.298c-0.539,0.425-1.18,0.631-1.816,0.631c-0.865,0-1.721-0.381-2.301-1.113
						c-1.002-1.271-0.787-3.114,0.484-4.117c0.135-0.105,1.291-0.992,3.463-2.027l-2.764-6.138
						c-1.699,0.795-2.527,1.457-2.553,1.477c-0.549,0.455-1.219,0.677-1.883,0.677c-0.832,0-1.658-0.35-2.234-1.031
						c-1.039-1.227-0.908-3.049,0.307-4.1c0.135-0.116,1.416-1.191,3.957-2.374l-2.758-6.132c-1.945,0.865-2.83,1.629-2.854,1.649
						c-0.563,0.537-1.281,0.802-1.998,0.802c-0.775,0-1.549-0.309-2.129-0.917c-1.117-1.172-1.055-3.042,0.117-4.158
						c0.18-0.172,1.566-1.438,4.453-2.735l-2.762-6.134c-2.195,0.923-3.107,1.784-3.129,1.805c-0.572,0.617-1.34,0.925-2.113,0.925
						c-0.715,0-1.436-0.264-2.006-0.794c-1.187-1.101-1.233-2.978-0.133-4.165c0.307-0.329,1.76-1.77,4.967-3.144l-2.752-6.115
						c-2.464,0.96-3.378,1.907-3.398,1.929l0.065-0.079l-4.588-3.648c0.284-0.357,1.777-2.048,5.512-3.556l-2.983-6.63
						c-6.651,2.086-9.143,5.588-9.945,7.141l38.181,84.656C205.605,211.437,214.691,206.418,228.994,206.418z"/>
					<path fill="none" d="M177.178,118.12l29.832,66.316l2.713-4.037c0.791-1.18,2.313-1.623,3.613-1.047l5.1,2.248l-28.611-63.178
						c-0.711-1.207-1.506-1.518-6.18-1.518l-2.619,0.005c-2.904,0-3.814,0.57-4,0.718c0.004,0.102,0.047,0.268,0.096,0.374
						C177.184,118.104,177.127,118.011,177.178,118.12z"/>
					<path fill="none" d="M159.612,212.626c-8.181,0.334-14.931,0.728-20.352,1.044c-17.095,0.997-24.073,1.402-33.552-2.306
						c-1.769,8.69-5.999,14.197-8.83,17.041c3.081,0.658,7.276,0.762,10.845,0.762c4.025,0,8.771-0.148,14.268-0.322
						c7.712-0.242,16.451-0.516,26.825-0.516c22.613,0,36.766,2.733,42.825,4.229c1.102-6.478,3.283-10.712,4.785-12.999
						C193.789,217.062,185.049,211.594,159.612,212.626z"/>
					<path fill="none" d="M280.17,215.267c-16.287,3.425-25.016,1.412-33.441-0.549c-5.148-1.199-10.475-2.438-17.734-2.438
						c-12.883,0-20.775,4.472-24.385,7.189c5.037,4.66,7.41,9.894,8.473,13.172c4.848-1.227,15.4-3.322,31.375-3.475
						c15.371-0.146,30.797,1.092,38.736,1.855c-0.063-0.256-0.1-0.515-0.094-0.776C280.721,223.956,280.24,218.177,280.17,215.267z"
						/>
					<path fill="none" d="M67.764,114.598c-2.785,3.112-5.219,4.996-6.969,6.095c13.52,32.928,28.221,83.725,33.365,102.007
						c2.403-2.895,5.365-7.857,6.245-15.314C98.917,201.979,86.639,158.253,67.764,114.598z"/>
					<path fill="none" d="M200.686,223.82c-1.172,2.075-2.711,5.646-3.445,10.899c4.594,2.326,8.414,1.184,10.404,0.201
						C206.9,232.459,205.027,227.873,200.686,223.82z"/>
				</g>
				<g>
					<path fill="#FFF9E1" d="M277.213,209.716c-4.986-7.084-13.027-19.497-23.018-38.409c-12.59-23.839-17.959-43.362-19.682-50.649
						l-0.096-0.4l-0.4,0.087c-4.232,0.913-11.516,2.001-22.186,2.001c-4.408,0-9.063-0.193-13.836-0.576l-0.707-0.056l2.773,6.129
						l0.256,0.013c4.383,0.229,8.619,0.347,12.588,0.347c8.111,0,12.432-0.477,12.904-0.531c1.383-0.17,2.631,0.826,2.801,2.187
						c0.08,0.666-0.102,1.323-0.514,1.853c-0.414,0.528-1.008,0.864-1.676,0.947c-0.188,0.023-4.732,0.572-13.447,0.572
						c-3.146,0-6.477-0.071-9.902-0.214l-0.678-0.028l2.801,6.184l0.246,0.021c5.85,0.468,11.328,0.704,16.283,0.704
						c6.545,0,9.764-0.415,9.795-0.42c1.393-0.184,2.643,0.807,2.822,2.159c0.182,1.371-0.783,2.637-2.152,2.82
						c-0.363,0.049-3.738,0.473-10.416,0.473c-4.148,0-8.697-0.165-13.516-0.491l-0.699-0.047l2.736,6.044l0.238,0.025
						c7.18,0.775,13.639,1.169,19.193,1.169c4.828,0,7.229-0.308,7.494-0.345c1.385-0.203,2.652,0.771,2.854,2.116
						c0.203,1.37-0.744,2.65-2.115,2.854c-0.111,0.017-2.768,0.399-8.24,0.399c-4.811,0-10.299-0.287-16.305-0.853l-0.719-0.066
						l2.674,5.907l0.764,0.091c10.219,1.35,17.096,1.633,21.066,1.633c3.861,0,5.65-0.263,5.732-0.275
						c1.377-0.216,2.66,0.749,2.875,2.085c0.217,1.368-0.717,2.658-2.084,2.877c-0.086,0.014-2.133,0.33-6.52,0.33
						c-5.254,0-11.535-0.432-18.664-1.284l-0.738-0.088l2.627,5.798l0.234,0.028c0.615,0.076,1.238,0.159,1.873,0.257
						c10.734,1.683,17.646,2.036,21.553,2.036c3.158,0,4.529-0.229,4.531-0.229c1.387-0.24,2.668,0.696,2.906,2.034
						c0.24,1.354-0.66,2.66-2.008,2.909c-0.068,0.013-1.709,0.31-5.441,0.31c-3.775,0-10.387-0.313-20.432-1.809l-0.76-0.113
						l2.59,5.723l0.236,0.027c1.117,0.131,2.176,0.286,3.232,0.474c11.273,2.019,18.111,2.442,21.861,2.442
						c2.475,0,3.494-0.184,3.5-0.186c1.387-0.251,2.682,0.662,2.941,1.981c0.268,1.366-0.58,2.657-1.936,2.94
						c-0.236,0.05-1.574,0.301-4.545,0.301c-3.904,0-11.014-0.439-22.703-2.533c-0.598-0.106-1.186-0.196-1.764-0.279l-0.197-0.027
						l-0.145,0.133c-0.727,0.663-1.809,0.844-2.701,0.449l-2.234-0.984l-0.156-0.037c-0.418-0.012-0.826-0.017-1.23-0.017l0,0
						c-3.322,0-6.521,0.378-9.516,1.122l-0.154,0.04l-1.379,2.051c-0.469,0.696-1.246,1.111-2.084,1.111
						c-0.068,0-0.137-0.003-0.213-0.01c-0.67-0.057-1.299-0.388-1.729-0.907l-0.211-0.256l-0.297,0.147
						c-1.24,0.612-1.936,1.089-2.07,1.184c-1.08,0.79-2.725,0.535-3.512-0.54c-0.82-1.116-0.578-2.691,0.537-3.51
						c0.18-0.129,1.156-0.818,2.918-1.678l0.367-0.178l-3.109-6.91l-0.389,0.189c-1.533,0.748-2.297,1.341-2.303,1.346
						c-1.057,0.836-2.695,0.638-3.529-0.414c-0.857-1.088-0.672-2.67,0.416-3.529c0.047-0.037,1.182-0.929,3.383-1.979l0.369-0.176
						l-3.104-6.898l-0.385,0.18c-1.699,0.795-2.549,1.456-2.645,1.534c-1.02,0.846-2.68,0.705-3.531-0.304
						c-0.885-1.046-0.768-2.621,0.264-3.512c0.053-0.045,1.313-1.126,3.857-2.311l0.375-0.175l-3.098-6.889l-0.381,0.17
						c-1.938,0.861-2.857,1.629-2.973,1.728c-0.969,0.925-2.605,0.873-3.535-0.1c-0.955-1.004-0.908-2.604,0.104-3.568
						c0.145-0.136,1.482-1.374,4.336-2.655l0.381-0.171l-3.1-6.89l-0.377,0.158c-2.273,0.955-3.219,1.853-3.273,1.907
						c-0.91,0.979-2.539,1.027-3.527,0.108c-0.49-0.454-0.771-1.077-0.791-1.755c-0.02-0.679,0.221-1.324,0.681-1.818
						c0.252-0.271,1.67-1.693,4.822-3.044l0.391-0.167l-3.09-6.867l-0.369,0.145c-1.695,0.66-2.692,1.324-3.179,1.706l-3.983-3.167
						c0.597-0.619,2.097-1.918,5.063-3.116l0.402-0.162l-3.313-7.366l-0.354,0.111c-6.886,2.159-9.422,5.856-10.194,7.347
						l-0.093,0.18l38.479,85.317l0.418-0.313c4.133-3.08,13.211-8.248,27.584-8.248c7.881,0,13.51,1.309,18.967,2.579
						c5.014,1.166,9.748,2.269,16.123,2.269c3.957,0,8.164-0.432,12.865-1.316l0.639-0.121L277.213,209.716z M261.121,203.418
						c-0.482,0.115-6.422,1.414-26.758-2.676c-2.986-0.599-5.971-0.903-8.877-0.903c-11.215,0-17.943,4.508-18.004,4.551
						c-1.115,0.764-2.738,0.453-3.496-0.646c-0.379-0.553-0.521-1.22-0.4-1.88c0.123-0.659,0.494-1.233,1.047-1.613
						c0.324-0.222,8.059-5.439,20.838-5.439c3.238,0,6.563,0.339,9.881,1.006c11.734,2.36,18.426,2.854,21.971,2.854
						c1.793,0,2.578-0.131,2.686-0.151c1.324-0.323,2.678,0.528,3,1.86C263.332,201.726,262.486,203.089,261.121,203.418z"/>
					<path fill="#FFF9E1" d="M157.595,131.419c-10.189-13.668-21.19-16.469-34.574-16.469c-5.272,0-10.908,0.469-16.879,0.967
						c-1.701,0.141-3.43,0.285-5.188,0.422c-10.574,0.819-19.666,0.153-26.599-1.926l-0.855-0.256l0.35,0.821
						c17.719,41.534,29.429,82.436,31.596,90.213l0.054,0.192l0.182,0.079c5.819,2.547,10.412,3.449,17.546,3.449c0,0,0,0,0.001,0
						c4.123,0,8.98-0.282,15.716-0.677c5.442-0.317,12.217-0.713,20.448-1.048c14.215-0.578,25.513,0.752,33.365,3.921l0.969,0.391
						l-36.083-80.002L157.595,131.419z M126.685,202.345c-8.207,0-12.614-1.76-12.8-1.834c-0.621-0.254-1.106-0.733-1.367-1.352
						c-0.26-0.619-0.265-1.301-0.011-1.922c0.387-0.951,1.302-1.566,2.328-1.566c0.321,0,0.633,0.061,0.939,0.184
						c0.155,0.061,3.898,1.463,10.935,1.463c3.019,0,6.218-0.262,9.507-0.777c6.926-1.087,16.015-2.335,24.879-2.335
						c7.158,0,13.218,0.785,18.528,2.401c0.641,0.195,1.17,0.629,1.484,1.221c0.316,0.592,0.383,1.271,0.188,1.914
						c-0.324,1.064-1.291,1.781-2.402,1.781c-0.248,0-0.492-0.037-0.73-0.109c-4.838-1.473-10.417-2.188-17.057-2.188
						c-8.498,0-17.35,1.217-24.11,2.277C133.439,202.062,129.97,202.345,126.685,202.345z M107.193,182.809
						c0.434-1.277,1.866-2.017,3.182-1.575c0.153,0.049,3.843,1.207,10.438,1.207c3.153,0,6.464-0.268,9.843-0.794
						c5.866-0.913,13.601-1.961,21.391-1.961c8.431,0,15.461,1.207,21.493,3.688c0.621,0.256,1.105,0.738,1.362,1.357
						c0.258,0.619,0.26,1.303,0.005,1.922c-0.39,0.946-1.302,1.559-2.324,1.559c-0.325,0-0.647-0.064-0.955-0.19
						c-5.417-2.229-11.819-3.313-19.575-3.313c-7.439,0-14.93,1.017-20.625,1.903c-3.651,0.568-7.235,0.857-10.646,0.857
						c-7.579,0-11.836-1.416-12.015-1.477c-0.636-0.215-1.149-0.665-1.445-1.266C107.023,184.125,106.977,183.444,107.193,182.809z
						 M101.888,168.379c0.357-1.303,1.746-2.119,3.084-1.758c0.147,0.039,3.685,0.951,9.807,0.951c3.338,0,6.81-0.275,10.316-0.818
						c7.531-1.162,13.296-1.681,18.693-1.681c9.404,0,17.142,1.665,23.655,5.09c0.594,0.313,1.03,0.837,1.23,1.478
						c0.199,0.642,0.137,1.321-0.176,1.915c-0.437,0.829-1.288,1.343-2.226,1.343c-0.404,0-0.808-0.1-1.168-0.288
						c-5.772-3.036-12.752-4.512-21.333-4.512c-6.568,0-13.021,0.866-17.91,1.621c-3.784,0.585-7.527,0.882-11.122,0.882
						c-6.873,0-10.926-1.089-11.094-1.136c-0.647-0.178-1.188-0.596-1.52-1.179S101.709,169.026,101.888,168.379z M96.594,153.946
						c0.282-1.323,1.612-2.222,2.982-1.928c0.14,0.028,3.478,0.698,8.964,0.698c3.602,0,7.3-0.288,10.994-0.855
						c4.104-0.629,10.285-1.464,16.556-1.464c10.164,0,18.422,2.148,25.243,6.569c1.161,0.752,1.495,2.312,0.741,3.474
						c-0.465,0.718-1.254,1.146-2.109,1.146c-0.484,0-0.955-0.14-1.364-0.404c-5.977-3.872-13.355-5.755-22.56-5.755
						c-5.916,0-11.819,0.799-15.745,1.4c-3.976,0.61-7.943,0.92-11.795,0.92c-6.169,0-9.826-0.784-9.979-0.819
						c-0.656-0.141-1.219-0.528-1.583-1.091C96.574,155.274,96.452,154.603,96.594,153.946z M91.306,139.511
						c0.191-1.209,1.256-2.12,2.475-2.12c0.131,0,0.264,0.01,0.404,0.033c0.315,0.047,3.215,0.456,7.808,0.456
						c3.983,0,8.014-0.306,11.981-0.911c5.799-0.881,10.51-1.292,14.823-1.292c10.77,0,19.407,2.651,26.405,8.105
						c0.529,0.412,0.866,1.006,0.95,1.672c0.082,0.666-0.1,1.324-0.512,1.854c-0.826,1.06-2.465,1.265-3.526,0.438
						c-6.072-4.732-13.731-7.032-23.41-7.032c-4.04,0-8.479,0.389-13.974,1.224c-4.252,0.647-8.55,0.976-12.772,0.976
						c-5.194,0-8.428-0.505-8.563-0.526C92.026,142.168,91.088,140.879,91.306,139.511z M149.201,134.152
						c-0.901,0.98-2.568,1.051-3.551,0.147c-6.264-5.763-13.586-8.333-23.742-8.333c-3.769,0-7.938,0.354-12.742,1.078
						c-4.674,0.705-9.468,1.063-14.248,1.063c-4.019,0-6.55-0.265-6.655-0.275c-1.377-0.146-2.379-1.386-2.233-2.763
						c0.146-1.369,1.328-2.381,2.766-2.233c0.247,0.024,2.523,0.24,6.126,0.24c4.562,0,9.102-0.336,13.494-0.999
						c5.208-0.786,9.463-1.151,13.394-1.151c11.253,0,20.167,3.166,27.243,9.677C150.072,131.541,150.137,133.133,149.201,134.152z"
						/>
				</g>
				<g>
					<path fill="#D8BFA7" d="M165.715,212.079c-1.961,0-4.021,0.043-6.12,0.128c-8.169,0.333-14.909,0.728-20.36,1.045
						c-6.579,0.384-11.776,0.687-16.107,0.687c-7.063,0-11.742-0.803-17.266-2.964l-0.464-0.182l-0.101,0.488
						c-1.705,8.388-5.682,13.78-8.717,16.828l-0.541,0.544l0.75,0.161c3.198,0.684,7.521,0.771,10.934,0.771
						c4.058,0,8.796-0.148,14.281-0.322c7.689-0.24,16.405-0.515,26.812-0.515c22.322,0,36.35,2.642,42.723,4.218l0.439,0.107
						l0.074-0.444c1.072-6.295,3.16-10.456,4.723-12.839l0.193-0.293l-0.254-0.241C194.438,217.098,186.857,212.079,165.715,212.079
						z"/>
					<path fill="#D8BFA7" d="M283.6,230.919c-0.061-0.238-0.086-0.455-0.082-0.664l0.002-0.08l-0.029-0.076
						c-2.363-6.252-2.832-11.982-2.9-14.842l-0.014-0.504l-0.492,0.104c-5.896,1.239-11.145,1.843-16.047,1.843
						c-6.943,0-12.164-1.216-17.215-2.391c-5.168-1.204-10.518-2.449-17.828-2.449c-13.033,0-21.029,4.559-24.637,7.275l-0.4,0.302
						l0.369,0.34c4.891,4.525,7.244,9.564,8.357,12.994l0.121,0.372l0.381-0.096c4.848-1.229,15.361-3.311,31.275-3.463
						c15.455-0.152,31.035,1.117,38.693,1.854l0.594,0.056L283.6,230.919z"/>
					<path fill="#D8BFA7" d="M100.832,207.353l-0.021-0.079c-1.346-4.884-13.698-48.98-32.662-92.841l-0.26-0.603l-0.436,0.488
						c-2.872,3.207-5.326,5.044-6.88,6.02l-0.3,0.188l0.135,0.325C73.774,153.404,88.182,203,93.758,222.813l0.216,0.767
						l0.508-0.613c2.396-2.886,5.441-7.921,6.34-15.533L100.832,207.353z"/>
				</g>
				<path fill="#382716" d="M92.794,233.354h0.123c-0.044-0.019-0.092-0.034-0.136-0.052
					C92.785,233.318,92.792,233.337,92.794,233.354z"/>
				<path fill="#66452F" d="M208.047,234.8c-0.74-2.438-2.641-7.146-7.074-11.285l-0.389-0.363l-0.262,0.463
					c-1.184,2.094-2.75,5.711-3.498,11.047l-0.039,0.296l0.266,0.136c1.848,0.936,3.748,1.41,5.645,1.41c0.002,0,0.002,0,0.002,0
					c2.223,0,4.018-0.656,5.133-1.207l0.318-0.157L208.047,234.8z"/>
				<path fill="#382716" d="M109.228,127.459c17.31-2.611,27.781-0.54,36.139,7.149c0.563,0.518,1.274,0.774,1.983,0.774
					c0.792,0,1.58-0.319,2.157-0.947c1.097-1.19,1.02-3.045-0.171-4.141c-12.191-11.216-27.56-10.657-40.983-8.632
					c-10.762,1.624-19.341,0.774-19.518,0.757c-1.606-0.169-3.052,0.996-3.224,2.605c-0.17,1.609,0.996,3.053,2.606,3.224
					C88.594,128.288,97.621,129.21,109.228,127.459z"/>
				<path fill="#382716" d="M114.793,142.351c12.297-1.869,26.316-2.65,37.064,5.725c0.535,0.417,1.169,0.618,1.799,0.618
					c0.872,0,1.735-0.388,2.314-1.128c0.994-1.277,0.766-3.119-0.511-4.113c-12.503-9.742-28.019-8.953-41.549-6.896
					c-11.233,1.71-19.506,0.478-19.666,0.453c-1.595-0.256-3.1,0.838-3.354,2.437c-0.253,1.598,0.838,3.1,2.438,3.354
					C93.699,142.857,102.543,144.216,114.793,142.351z"/>
				<path fill="#382716" d="M120.361,157.242c12.554-1.923,26.89-2.916,38.013,4.292c0.492,0.318,1.045,0.472,1.592,0.472
					c0.96,0,1.9-0.472,2.461-1.337c0.88-1.359,0.492-3.174-0.865-4.054c-12.772-8.277-28.442-7.258-42.09-5.167
					c-11.681,1.794-19.631,0.196-19.811,0.16c-1.577-0.341-3.137,0.669-3.478,2.25c-0.34,1.583,0.667,3.141,2.251,3.48
					C98.796,157.418,107.463,159.223,120.361,157.242z"/>
				<path fill="#382716" d="M125.926,172.133c12.832-1.98,27.498-3.191,38.984,2.848c0.435,0.229,0.902,0.337,1.362,0.337
					c1.054,0,2.072-0.569,2.596-1.566c0.754-1.433,0.202-3.206-1.23-3.958c-12.993-6.833-28.828-5.58-42.606-3.452
					c-12.16,1.881-19.813-0.088-19.953-0.125c-1.562-0.425-3.166,0.494-3.595,2.053c-0.429,1.561,0.489,3.173,2.051,3.602
					C103.889,171.967,112.376,174.229,125.926,172.133z"/>
				<path fill="#382716" d="M130.59,181.233c-12.592,1.962-19.943-0.352-20.089-0.398c-1.532-0.512-3.188,0.311-3.706,1.839
					c-0.518,1.534,0.305,3.197,1.837,3.716c0.347,0.117,8.651,2.851,22.86,0.636c13.137-2.044,28.16-3.479,39.977,1.383
					c0.364,0.149,0.742,0.222,1.113,0.222c1.153,0,2.246-0.686,2.712-1.816c0.616-1.497-0.099-3.209-1.595-3.826
					C160.55,177.577,144.53,179.063,130.59,181.233z"/>
				<path fill="#382716" d="M136.151,196.126c-13.005,2.041-20.063-0.6-20.226-0.662c-1.493-0.6-3.197,0.12-3.806,1.615
					c-0.61,1.498,0.109,3.209,1.609,3.818c0.248,0.102,4.705,1.865,12.956,1.865c2.973,0,6.437-0.229,10.373-0.846
					c13.485-2.115,28.896-3.781,40.981-0.104c1.549,0.471,3.186-0.402,3.656-1.951c0.471-1.548-0.402-3.186-1.951-3.656
					C166.528,192.185,150.29,193.907,136.151,196.126z"/>
				<path fill="#382716" d="M206.059,205.251c0.572,0,1.152-0.168,1.66-0.517c0.098-0.069,10.225-6.864,26.561-3.581
					c20.145,4.05,26.303,2.824,26.941,2.672c1.572-0.379,2.572-1.969,2.193-3.543s-1.93-2.551-3.504-2.17
					c-0.055,0.01-5.777,1.053-24.477-2.707c-18.746-3.77-30.545,4.161-31.037,4.5c-1.334,0.917-1.672,2.742-0.754,4.075
					C204.211,204.807,205.127,205.251,206.059,205.251z"/>
				<path fill="#D62525" d="M190.184,118.21c-0.852-1.449-1.891-1.724-6.541-1.724l-2.617,0.005c-2.924,0-3.953,0.566-4.262,0.809
					l-0.17,0.135l0.012,0.218c0.01,0.157,0.064,0.373,0.135,0.525l30.197,67.116l3.131-4.661c0.666-0.988,2.006-1.38,3.1-0.897
					l6.102,2.69L190.184,118.21z"/>
			</g>
			<path fill="#382716" d="M294.076,234.212l-5.141-5.143c-3.238-7.936-2.906-15.359-2.902-15.44
				c0.041-0.725-0.189-1.438-0.645-2.003c-0.109-0.135-11.031-13.8-26.379-42.861c-15.285-28.938-19.768-51.912-19.811-52.141
				c-0.156-0.826-0.664-1.544-1.387-1.973c-0.723-0.43-1.598-0.525-2.398-0.269c-0.078,0.025-7.994,2.519-23.582,2.519
				c-5.273,0-10.873-0.297-16.65-0.858l-0.076-0.167c-0.035-0.078-0.074-0.154-0.117-0.229c-2.592-4.604-7.041-4.604-11.344-4.604
				l-2.635,0.005c-4.639,0-7.598,1.173-9.042,3.586c-0.528,0.882-0.75,1.814-0.788,2.712c-6.225,1.94-9.795,5.021-11.803,7.592
				c-11.651-13.506-24.832-15.432-36.355-15.432c-5.5,0-11.247,0.479-17.331,0.985c-1.69,0.141-3.41,0.285-5.156,0.421
				c-2.782,0.215-5.482,0.324-8.025,0.324c-16.25,0-22.077-4.444-22.099-4.46c-0.044-0.038-0.098-0.063-0.146-0.099
				c-0.09-0.067-0.182-0.133-0.277-0.189c-0.074-0.041-0.149-0.076-0.225-0.111c-0.1-0.047-0.199-0.09-0.304-0.126
				c-0.081-0.026-0.161-0.048-0.242-0.067c-0.106-0.026-0.213-0.048-0.322-0.063c-0.084-0.011-0.167-0.016-0.252-0.021
				c-0.109-0.004-0.218-0.003-0.325,0.005c-0.046,0.003-0.092-0.004-0.138,0.002s-0.087,0.022-0.131,0.029
				c-0.102,0.017-0.203,0.04-0.305,0.068c-0.095,0.026-0.187,0.056-0.277,0.091c-0.043,0.017-0.089,0.023-0.131,0.043
				c-0.05,0.021-0.092,0.055-0.14,0.079c-0.088,0.045-0.171,0.091-0.253,0.146c-0.09,0.056-0.174,0.117-0.254,0.183
				c-0.068,0.056-0.134,0.111-0.197,0.174c-0.082,0.077-0.155,0.16-0.226,0.247c-0.031,0.039-0.071,0.07-0.102,0.11
				c-5.62,7.612-10.016,9.267-10.016,9.267c-0.779,0.254-1.417,0.823-1.759,1.568c-0.276,0.605-0.325,1.28-0.168,1.917H52.31
				c-0.989,0-1.913,0.501-2.455,1.33c-0.541,0.83-0.626,1.876-0.227,2.782c20.323,46.14,37.913,112.229,38.088,112.891
				c0.342,1.286,1.505,2.183,2.834,2.183h102.708c3.451,2.077,6.682,2.74,9.4,2.74c1.564,0,2.957-0.219,4.127-0.516
				c2.352-0.595,4.127-1.569,5.137-2.225h80.082c1.186,0,2.254-0.715,2.709-1.811C295.166,236.311,294.916,235.05,294.076,234.212z
				 M181.025,116.91l2.619-0.005c4.674,0,5.469,0.311,6.18,1.518l28.611,63.178l-5.1-2.248c-1.301-0.576-2.822-0.133-3.613,1.047
				l-2.713,4.037l-29.832-66.316c-0.051-0.109,0.006-0.016-0.057-0.118c-0.049-0.106-0.092-0.272-0.096-0.374
				C177.211,117.48,178.121,116.91,181.025,116.91z M172.924,122.953l2.983,6.63c-3.734,1.508-5.228,3.198-5.512,3.556
				c0,0-2.075,2.507,0.228,4.357c2.303,1.848,4.295-0.63,4.295-0.63l0.055-0.085l0.011,0.006l-0.065,0.079
				c0.02-0.021,0.934-0.969,3.398-1.929l2.752,6.115c-3.207,1.374-4.66,2.814-4.967,3.144c-1.1,1.188-1.054,3.064,0.133,4.165
				c0.57,0.53,1.291,0.794,2.006,0.794c0.773,0,1.541-0.308,2.113-0.925c0.021-0.021,0.934-0.882,3.129-1.805l2.762,6.134
				c-2.887,1.297-4.273,2.563-4.453,2.735c-1.172,1.116-1.234,2.986-0.117,4.158c0.58,0.608,1.354,0.917,2.129,0.917
				c0.717,0,1.436-0.265,1.998-0.802c0.023-0.021,0.908-0.784,2.854-1.649l2.758,6.132c-2.541,1.183-3.822,2.258-3.957,2.374
				c-1.215,1.051-1.346,2.873-0.307,4.1c0.576,0.682,1.402,1.031,2.234,1.031c0.664,0,1.334-0.222,1.883-0.677
				c0.025-0.02,0.854-0.682,2.553-1.477l2.764,6.138c-2.172,1.035-3.328,1.922-3.463,2.027c-1.271,1.003-1.486,2.846-0.484,4.117
				c0.58,0.732,1.436,1.113,2.301,1.113c0.637,0,1.277-0.206,1.816-0.631c0.023-0.019,0.764-0.584,2.227-1.298l2.764,6.146
				c-1.834,0.894-2.848,1.619-2.98,1.715c-1.305,0.958-1.586,2.792-0.629,4.097c0.572,0.783,1.463,1.197,2.365,1.197
				c0.602,0,1.209-0.184,1.73-0.567c0.025-0.017,0.709-0.505,2.01-1.146c0.496,0.601,1.219,0.99,2.016,1.058
				c0.084,0.008,0.164,0.012,0.248,0.012c0.971,0,1.885-0.482,2.432-1.297l1.287-1.918c2.834-0.704,6.387-1.209,10.633-1.093
				l2.232,0.985c1.066,0.471,2.299,0.257,3.152-0.522c0.574,0.082,1.156,0.171,1.75,0.276c19.941,3.572,26.705,2.379,27.41,2.23
				c1.57-0.329,2.566-1.856,2.258-3.432c-0.311-1.574-1.844-2.6-3.424-2.313c-0.063,0.012-6.432,1.107-25.217-2.257
				c-1.115-0.198-2.197-0.354-3.256-0.478l-2.176-4.807c18.67,2.779,25.713,1.552,26.01,1.496c1.584-0.293,2.625-1.807,2.344-3.394
				c-0.281-1.585-1.797-2.644-3.389-2.374c-0.066,0.013-7.125,1.143-25.951-1.809c-0.639-0.098-1.268-0.182-1.885-0.258
				l-2.223-4.907c17.648,2.109,24.977,1.002,25.297,0.951c1.598-0.255,2.688-1.758,2.432-3.356s-1.764-2.688-3.355-2.431
				c-0.076,0.011-7.633,1.154-26.674-1.36c-0.182-0.023-0.355-0.041-0.535-0.063l-2.279-5.037
				c16.715,1.572,24.307,0.501,24.645,0.451c1.602-0.238,2.707-1.729,2.469-3.33c-0.238-1.602-1.732-2.708-3.33-2.468
				c-0.08,0.011-8.205,1.157-26.58-0.828l-2.35-5.188c15.869,1.072,23.66,0.063,24.016,0.017c1.604-0.216,2.727-1.689,2.512-3.292
				c-0.213-1.604-1.688-2.73-3.289-2.519c-0.088,0.012-8.664,1.098-25.992-0.286l-2.418-5.341
				c15.096,0.628,23.043-0.315,23.418-0.361c1.605-0.197,2.75-1.659,2.551-3.267c-0.197-1.606-1.668-2.75-3.266-2.551
				c-0.094,0.01-8.85,1.051-25.42,0.183l-2.377-5.251c4.785,0.384,9.434,0.578,13.869,0.578c11.016,0,18.42-1.18,22.273-2.011
				c1.727,7.295,7.1,26.854,19.721,50.749c10.26,19.425,18.475,31.962,23.045,38.454c-13.662,2.574-21.039,0.861-28.814-0.948
				c-5.471-1.272-11.129-2.59-19.063-2.59c-14.303,0-23.389,5.019-27.834,8.332l-38.181-84.656
				C163.782,128.541,166.273,125.039,172.924,122.953z M92.508,117.099c2.693,0,5.546-0.115,8.479-0.343
				c1.758-0.136,3.488-0.28,5.189-0.422c5.959-0.497,11.589-0.966,16.845-0.966c13.258,0,24.163,2.785,34.237,16.301l35.656,79.051
				c-6.387-2.577-16.764-4.633-33.542-3.951c-8.232,0.336-15.009,0.731-20.454,1.05c-17.781,1.038-23.656,1.381-33.069-2.739
				c-2.188-7.85-13.905-48.751-31.614-90.264C78.311,116.037,84.223,117.099,92.508,117.099z M60.795,120.692
				c1.75-1.099,4.184-2.982,6.969-6.095c18.875,43.655,31.152,87.381,32.642,92.787c-0.88,7.457-3.842,12.42-6.245,15.314
				C89.016,204.417,74.315,153.62,60.795,120.692z M191.641,232.559c-6.059-1.496-20.211-4.229-42.825-4.229
				c-10.374,0-19.113,0.273-26.825,0.516c-5.496,0.174-10.242,0.322-14.268,0.322c-3.568,0-7.764-0.104-10.845-0.762
				c2.831-2.844,7.062-8.351,8.83-17.041c9.479,3.708,16.457,3.303,33.552,2.306c5.421-0.316,12.171-0.71,20.352-1.044
				c25.437-1.032,34.177,4.436,36.814,6.934C194.924,221.847,192.742,226.081,191.641,232.559z M197.24,234.72
				c0.734-5.254,2.273-8.824,3.445-10.899c4.342,4.053,6.215,8.639,6.959,11.101C205.654,235.903,201.834,237.046,197.24,234.72z
				 M244.457,229.167c-15.975,0.152-26.527,2.248-31.375,3.475c-1.063-3.278-3.436-8.512-8.473-13.172
				c3.609-2.718,11.502-7.189,24.385-7.189c7.26,0,12.586,1.238,17.734,2.438c8.426,1.961,17.154,3.974,33.441,0.549
				c0.07,2.91,0.551,8.689,2.93,14.979c-0.006,0.262,0.031,0.521,0.094,0.776C275.254,230.259,259.828,229.021,244.457,229.167z"/>
		</g>
		<g>
			<g>
				<path fill="#9E4521" d="M277.982,236.802l12.688,5.826l5.039-10.969l-12.689-5.827c-1.098-0.504-1.596-1.866-1.096-2.955
					l5.242-11.413l-10.971-5.035l-5.238,11.41c-0.25,0.541-0.693,0.953-1.25,1.161c-0.561,0.207-1.164,0.183-1.707-0.066
					l-12.689-5.828l-5.035,10.97l12.689,5.828c1.098,0.506,1.596,1.863,1.094,2.953l-12.141,26.434l10.967,5.037l12.141-26.433
					C275.541,236.778,276.865,236.288,277.982,236.802z"/>
				<path fill="#382716" d="M294.467,246.822l6.896-15.019c0.686-1.49,0.031-3.254-1.459-3.939l-12.014-5.52l4.93-10.735
					c0.684-1.491,0.031-3.255-1.461-3.94l-15.016-6.896c-1.494-0.686-3.256-0.031-3.941,1.459l-4.932,10.738l-12.014-5.519
					c-1.492-0.686-3.256-0.031-3.941,1.46l-6.898,15.018c-0.684,1.492-0.029,3.255,1.461,3.941l12.016,5.52l-11.83,25.756
					c-0.686,1.491-0.031,3.256,1.461,3.939l15.016,6.896c1.492,0.685,3.256,0.032,3.941-1.458l11.83-25.759l12.014,5.52
					C292.018,248.968,293.783,248.313,294.467,246.822z M278.291,236.124c-1.492-0.685-3.254-0.029-3.939,1.461l-11.832,25.757
					l-9.617-4.417l11.832-25.757c0.684-1.491,0.029-3.255-1.461-3.94l-12.014-5.519l4.416-9.618l12.016,5.518
					c1.492,0.686,3.254,0.033,3.939-1.458l4.932-10.737l9.619,4.417l-4.932,10.735c-0.686,1.493-0.031,3.256,1.459,3.941
					l12.014,5.518l-4.418,9.619L278.291,236.124z"/>
			</g>
			<g>
				<path fill="#C96335" d="M281.129,226.14c0.557-0.208,1.164-0.184,1.703,0.065l12.691,5.829l5.037-10.97l-12.691-5.827
					c-1.098-0.506-1.596-1.867-1.094-2.956l5.24-11.414l-10.967-5.035l-5.24,11.413c-0.514,1.117-1.84,1.606-2.957,1.095
					l-12.691-5.828l-5.035,10.97l12.688,5.826c1.104,0.504,1.596,1.865,1.098,2.954l-12.141,26.434l10.969,5.037l12.137-26.432
					C280.127,226.759,280.57,226.349,281.129,226.14z"/>
				<path fill="#382716" d="M299.318,236.228l6.895-15.018c0.686-1.49,0.031-3.256-1.459-3.941l-12.016-5.518l4.936-10.736
					c0.684-1.493,0.029-3.256-1.463-3.939l-15.018-6.898c-1.49-0.686-3.256-0.031-3.941,1.461l-4.93,10.736l-12.016-5.519
					c-1.492-0.684-3.256-0.03-3.941,1.462l-6.898,15.018c-0.684,1.491-0.029,3.255,1.463,3.938l12.014,5.521l-11.828,25.756
					c-0.686,1.49-0.029,3.256,1.459,3.941l15.018,6.896c1.492,0.685,3.256,0.031,3.941-1.459l11.828-25.758l12.018,5.517
					C296.867,238.374,298.633,237.717,299.318,236.228z M283.143,225.529c-1.492-0.685-3.256-0.032-3.939,1.461l-11.832,25.758
					l-9.617-4.417l11.83-25.757c0.684-1.492,0.031-3.257-1.459-3.941l-12.018-5.519l4.42-9.617l12.016,5.518
					c1.49,0.686,3.254,0.029,3.939-1.461l4.932-10.736l9.617,4.416l-4.932,10.738c-0.686,1.49-0.029,3.256,1.461,3.939l12.014,5.518
					l-4.416,9.619L283.143,225.529z"/>
			</g>
		</g>
	</g>
</g>
</svg>
