<?xml version="1.0" encoding="utf-8"?>
<!-- Generator: Adobe Illustrator 16.0.0, SVG Export Plug-In . SVG Version: 6.00 Build 0)  -->
<!DOCTYPE svg PUBLIC "-//W3C//DTD SVG 1.1 Tiny//EN" "http://www.w3.org/Graphics/SVG/1.1/DTD/svg11-tiny.dtd">
<svg version="1.1" baseProfile="tiny" id="Layer_1" xmlns="http://www.w3.org/2000/svg" xmlns:xlink="http://www.w3.org/1999/xlink"
	 x="0px" y="0px" width="350px" height="350px" viewBox="0 0 350 350" overflow="scroll" xml:space="preserve">
<g id="XMLID_2143_">
	<polygon id="XMLID_1470_" fill="#6874AF" points="187.677,68.44 68.44,172.018 162.326,253.576 281.56,149.998 	"/>
	<image width="136" height="118" id="XMLID_1469_" xlink:href="8088D499.png"  transform="matrix(1 0 0 1 68 68)">
	</image>
	<polygon id="XMLID_1468_" fill="#FAF293" points="162.326,253.576 68.44,172.018 68.44,200.001 162.326,281.56 278.244,180.86 
		278.244,152.879 	"/>
	<polygon id="XMLID_1467_" fill="#DDD89A" points="68.44,185.528 68.44,200.001 162.326,281.56 278.244,180.86 278.244,166.389 
		162.326,267.087 	"/>
	<polygon id="XMLID_1466_" fill="#FFFFFF" points="220.185,147.659 206.574,137.071 220.891,125.748 212.081,118.893 
		197.763,130.213 184.151,119.625 175.269,126.651 188.879,137.24 160.684,159.533 169.495,166.389 197.69,144.095 211.301,154.684 
			"/>
	<g id="XMLID_2151_">
		<path id="XMLID_750_" fill="#1B1B4E" d="M162.326,257.129c-0.83,0-1.661-0.291-2.33-0.87L66.111,174.7
			c-0.776-0.676-1.222-1.654-1.222-2.682c0-1.028,0.446-2.006,1.222-2.683L185.347,65.757c1.338-1.16,3.324-1.158,4.66,0
			l93.883,81.559c0.777,0.676,1.222,1.654,1.222,2.682s-0.444,2.007-1.222,2.683L164.656,256.259
			C163.988,256.838,163.157,257.129,162.326,257.129z M73.856,172.018l88.47,76.853l113.818-98.873l-88.468-76.854L73.856,172.018z"
			/>
	</g>
	<g id="XMLID_2147_">
		<path id="XMLID_747_" fill="#1B1B4E" d="M162.326,285.111c-0.83,0-1.661-0.29-2.33-0.87l-93.886-81.558
			c-0.776-0.676-1.222-1.654-1.222-2.683v-27.983c0-1.392,0.812-2.654,2.079-3.231c1.267-0.578,2.752-0.362,3.803,0.549
			l91.556,79.536l113.588-98.674c1.051-0.911,2.537-1.127,3.804-0.55c1.266,0.578,2.079,1.84,2.079,3.232v27.981
			c0,1.028-0.447,2.006-1.224,2.682L164.656,284.241C163.988,284.821,163.157,285.111,162.326,285.111z M71.992,198.382
			l90.334,78.473l112.365-97.613V160.67l-110.036,95.589c-1.336,1.16-3.323,1.16-4.659,0l-88.004-76.45V198.382z"/>
	</g>
	<g id="XMLID_2144_">
		<g id="XMLID_2145_">
			<path id="XMLID_746_" fill="#1B1B4E" d="M162.328,285.111c-0.993,0-1.98-0.413-2.683-1.222c-1.287-1.481-1.128-3.725,0.352-5.012
				l114.695-99.637v-4.141c0-1.391,0.813-2.654,2.079-3.231c1.268-0.577,2.753-0.361,3.803,0.55l3.316,2.881
				c0.777,0.676,1.222,1.653,1.222,2.682c0,1.027-0.444,2.006-1.222,2.682L164.656,284.241
				C163.983,284.826,163.154,285.111,162.328,285.111z"/>
		</g>
	</g>
</g>
</svg>
