<?xml version="1.0" encoding="utf-8"?>
<!-- Generator: Adobe Illustrator 16.0.0, SVG Export Plug-In . SVG Version: 6.00 Build 0)  -->
<!DOCTYPE svg PUBLIC "-//W3C//DTD SVG 1.1 Tiny//EN" "http://www.w3.org/Graphics/SVG/1.1/DTD/svg11-tiny.dtd">
<svg version="1.1" baseProfile="tiny" id="Layer_1" xmlns="http://www.w3.org/2000/svg" xmlns:xlink="http://www.w3.org/1999/xlink"
	 x="0px" y="0px" width="350px" height="350px" viewBox="0 0 350 350" overflow="scroll" xml:space="preserve">
<g>
	<path fill="#C1272D" d="M299.295,119.783c-55.859-20.525-100.646-1.108-100.646-1.108c-45.864-27.605-97.994-5.923-97.994-5.923
		L48.663,229.688c-1.403,3.157,1.813,6.39,4.975,4.995c28.793-12.699,63.648-7.478,82.563-1.18c0.001,0,10.115,10.83,27.12,1.432
		c30.877-9.871,71.322,8.581,89.307,17.293c4.697,2.277,10.324-0.122,11.963-5.079l39.07-118.288
		C304.883,125.156,302.957,121.129,299.295,119.783"/>
	<path fill="#9B232C" d="M138.493,227.92c0,0,6.486,11.152,24.497,0.749c18.012-10.403-13.243-17.892-13.243-17.892l-11.254,5.61
		V227.92z"/>
	<path fill="#CCCCCC" d="M292.625,113.4L282.4,122.75c-47.012-12.437-83.154,2.054-83.154,2.054
		c-43.109-24.653-92.26-5.758-92.26-5.758l-41.386,86.573l-6.807,3.196l-12.82,6.914l7.519,15.219
		c29.698-17.173,66.031-9.409,85.532-3.028c0.69-7.028,6.451-9.842,6.451-9.842c9.066-1.341,14.716,5.181,17.781,10.59
		c38.057-12.042,94.695,18.565,94.695,18.565l42.193-118.615L292.625,113.4z"/>
	<image width="16" height="36" xlink:href="BF83A3DE.png"  transform="matrix(1 0 0 1 174 210)">
	</image>
	<path fill="#EFEFEF" d="M191.725,109.586l-46.25,108.492c0,0-56.659-27.121-99.502-2.348l53.494-111.903
		C99.467,103.828,148.617,84.933,191.725,109.586"/>
	<path fill="#EFEFEF" d="M191.725,109.586c0,0,45.555-18.263,100.9,3.813l-42.193,118.616c0,0-67.893-36.698-104.957-13.938
		L191.725,109.586z"/>
	<image width="87" height="39" xlink:href="BF83A3E2.png"  transform="matrix(1 0 0 1 164 173)">
	</image>
	<image width="23" height="106" xlink:href="BF83A3E5.png"  transform="matrix(1 0 0 1 180 106)">
	</image>
	<line fill="none" stroke="#FFFFFF" stroke-miterlimit="10" x1="250.432" y1="232.016" x2="257.951" y2="247.234"/>
	<path fill="#D3D3D3" d="M108.566,207.046c21.164,3.499,36.909,11.032,36.909,11.032l46.25-108.492
		c-12.975-7.42-26.494-10.892-39.059-12.125L108.566,207.046z"/>
	<path fill="#FBB03B" d="M194.861,108.493c0,0-13.957,26.502-11.223,58.761c2.732,32.258-14.68,68.307-14.68,76.184l4.1-3.813
		l1.629,5.604c0,0,18.617-48.691,15.078-84.721c-2.105-21.439,10.91-53.684,10.91-53.684S195.896,105.701,194.861,108.493"/>
	<polygon fill="#4D4D4D" points="250.547,126.528 233.268,127.005 237.697,115.409 229.033,115.955 224.986,127.233 
		210.168,127.642 208.012,134.439 222.426,134.371 211.184,165.697 218.211,166.402 230.467,134.333 247.219,134.253 	"/>
	<path fill="#C1272D" d="M299.295,119.783c-55.859-20.525-100.646-1.108-100.646-1.108c-45.864-27.605-97.994-5.923-97.994-5.923
		L48.663,229.688c-1.403,3.157,1.813,6.39,4.975,4.995c28.793-12.699,63.648-7.478,82.563-1.18c0.001,0,10.115,10.83,27.12,1.432
		c30.877-9.871,71.322,8.581,89.307,17.293c4.697,2.277,10.324-0.122,11.963-5.079l39.07-118.288
		C304.883,125.156,302.957,121.129,299.295,119.783"/>
	<path fill="#9B232C" d="M138.493,227.92c0,0,6.486,11.152,24.497,0.749c18.012-10.403-13.243-17.892-13.243-17.892l-11.254,5.61
		V227.92z"/>
	<path fill="#CCCCCC" d="M292.625,113.4L282.4,122.75c-47.012-12.437-83.154,2.054-83.154,2.054
		c-43.109-24.653-92.26-5.758-92.26-5.758l-41.386,86.573l-6.807,3.196l-12.82,6.914l7.519,15.219
		c29.698-17.173,66.031-9.409,85.532-3.028c0.69-7.028,6.451-9.842,6.451-9.842c9.066-1.341,14.716,5.181,17.781,10.59
		c38.057-12.042,94.695,18.565,94.695,18.565l42.193-118.615L292.625,113.4z"/>
	<image width="16" height="36" xlink:href="BF83A3E6.png"  transform="matrix(1 0 0 1 174 210)">
	</image>
	<path fill="#EFEFEF" d="M191.725,109.586l-46.25,108.492c0,0-56.659-27.121-99.502-2.348l53.494-111.903
		C99.467,103.828,148.617,84.933,191.725,109.586"/>
	<path fill="#EFEFEF" d="M191.725,109.586c0,0,45.555-18.263,100.9,3.813l-42.193,118.616c0,0-67.893-36.698-104.957-13.938
		L191.725,109.586z"/>
	<image width="87" height="39" xlink:href="BF83A3E4.png"  transform="matrix(1 0 0 1 164 173)">
	</image>
	<image width="23" height="106" xlink:href="BF83A3E3.png"  transform="matrix(1 0 0 1 180 106)">
	</image>
	<line fill="none" stroke="#FFFFFF" stroke-miterlimit="10" x1="250.432" y1="232.016" x2="257.951" y2="247.234"/>
	<path fill="#D3D3D3" d="M108.566,207.046c21.164,3.499,36.909,11.032,36.909,11.032l46.25-108.492
		c-12.975-7.42-26.494-10.892-39.059-12.125L108.566,207.046z"/>
	<path fill="#FBB03B" d="M194.861,108.493c0,0-13.957,26.502-11.223,58.761c2.732,32.258-14.68,68.307-14.68,76.184l4.1-3.813
		l1.629,5.604c0,0,18.617-48.691,15.078-84.721c-2.105-21.439,10.91-53.684,10.91-53.684S195.896,105.701,194.861,108.493"/>
	<polygon fill="#4D4D4D" points="250.547,126.528 233.268,127.005 237.697,115.409 229.033,115.955 224.986,127.233 
		210.168,127.642 208.012,134.439 222.426,134.371 211.184,165.697 218.211,166.402 230.467,134.333 247.219,134.253 	"/>
	<path fill="#C1272D" d="M299.295,119.783c-55.859-20.525-100.646-1.108-100.646-1.108c-45.864-27.605-97.994-5.923-97.994-5.923
		L48.663,229.688c-1.403,3.157,1.813,6.39,4.975,4.995c28.793-12.699,63.648-7.478,82.563-1.18c0.001,0,10.115,10.83,27.12,1.432
		c30.877-9.871,71.322,8.581,89.307,17.293c4.697,2.277,10.324-0.122,11.963-5.079l39.07-118.288
		C304.883,125.156,302.957,121.129,299.295,119.783"/>
	<path fill="#9B232C" d="M138.493,227.92c0,0,6.486,11.152,24.497,0.749c18.012-10.403-13.243-17.892-13.243-17.892l-11.254,5.61
		V227.92z"/>
	<path fill="#CCCCCC" d="M292.625,113.4L282.4,122.75c-47.012-12.437-83.154,2.054-83.154,2.054
		c-43.109-24.653-92.26-5.758-92.26-5.758l-41.386,86.573l-6.807,3.196l-12.82,6.914l7.519,15.219
		c29.698-17.173,66.031-9.409,85.532-3.028c0.69-7.028,6.451-9.842,6.451-9.842c9.066-1.341,14.716,5.181,17.781,10.59
		c38.057-12.042,94.695,18.565,94.695,18.565l42.193-118.615L292.625,113.4z"/>
	<image width="16" height="36" xlink:href="BF83A3ED.png"  transform="matrix(1 0 0 1 174 210)">
	</image>
	<path fill="#EFEFEF" d="M191.725,109.586l-46.25,108.492c0,0-56.659-27.121-99.502-2.348l53.494-111.903
		C99.467,103.828,148.617,84.933,191.725,109.586"/>
	<path fill="#EFEFEF" d="M191.725,109.586c0,0,45.555-18.263,100.9,3.813l-42.193,118.616c0,0-67.893-36.698-104.957-13.938
		L191.725,109.586z"/>
	<image width="87" height="39" xlink:href="BF83A3EE.png"  transform="matrix(1 0 0 1 164 173)">
	</image>
	<image width="23" height="106" xlink:href="BF83A3EC.png"  transform="matrix(1 0 0 1 180 106)">
	</image>
	<line fill="none" stroke="#FFFFFF" stroke-miterlimit="10" x1="250.432" y1="232.016" x2="257.951" y2="247.234"/>
	<path fill="#D3D3D3" d="M108.566,207.046c21.164,3.499,36.909,11.032,36.909,11.032l46.25-108.492
		c-12.975-7.42-26.494-10.892-39.059-12.125L108.566,207.046z"/>
	<path fill="#FBB03B" d="M194.861,108.493c0,0-13.957,26.502-11.223,58.761c2.732,32.258-14.68,68.307-14.68,76.184l4.1-3.813
		l1.629,5.604c0,0,18.617-48.691,15.078-84.721c-2.105-21.439,10.91-53.684,10.91-53.684S195.896,105.701,194.861,108.493"/>
	<polygon fill="#4D4D4D" points="250.547,126.528 233.268,127.005 237.697,115.409 229.033,115.955 224.986,127.233 
		210.168,127.642 208.012,134.439 222.426,134.371 211.184,165.697 218.211,166.402 230.467,134.333 247.219,134.253 	"/>
	<path fill="#C1272D" d="M299.295,119.783c-55.859-20.525-100.646-1.108-100.646-1.108c-45.864-27.605-97.994-5.923-97.994-5.923
		L48.663,229.688c-1.403,3.157,1.813,6.39,4.975,4.995c28.793-12.699,63.648-7.478,82.563-1.18c0.001,0,10.115,10.83,27.12,1.432
		c30.877-9.871,71.322,8.581,89.307,17.293c4.697,2.277,10.324-0.122,11.963-5.079l39.07-118.288
		C304.883,125.156,302.957,121.129,299.295,119.783"/>
	<path fill="#9B232C" d="M138.493,227.92c0,0,6.486,11.152,24.497,0.749c18.012-10.403-13.243-17.892-13.243-17.892l-11.254,5.61
		V227.92z"/>
	<path fill="#CCCCCC" d="M292.625,113.4L282.4,122.75c-47.012-12.437-83.154,2.054-83.154,2.054
		c-43.109-24.653-92.26-5.758-92.26-5.758l-41.386,86.573l-6.807,3.196l-12.82,6.914l7.519,15.219
		c29.698-17.173,66.031-9.409,85.532-3.028c0.69-7.028,6.451-9.842,6.451-9.842c9.066-1.341,14.716,5.181,17.781,10.59
		c38.057-12.042,94.695,18.565,94.695,18.565l42.193-118.615L292.625,113.4z"/>
	<image width="16" height="36" xlink:href="AE06AF61.png"  transform="matrix(1 0 0 1 174 210)">
	</image>
	<path fill="#EFEFEF" d="M191.725,109.586l-46.25,108.492c0,0-56.659-27.121-99.502-2.348l53.494-111.903
		C99.467,103.828,148.617,84.933,191.725,109.586"/>
	<path fill="#EFEFEF" d="M191.725,109.586c0,0,45.555-18.263,100.9,3.813l-42.193,118.616c0,0-67.893-36.698-104.957-13.938
		L191.725,109.586z"/>
	<image width="87" height="39" xlink:href="AE06AF67.png"  transform="matrix(1 0 0 1 164 173)">
	</image>
	<image width="23" height="106" xlink:href="AE06AF60.png"  transform="matrix(1 0 0 1 180 106)">
	</image>
	<line fill="none" stroke="#FFFFFF" stroke-miterlimit="10" x1="250.432" y1="232.016" x2="257.951" y2="247.234"/>
	<path fill="#D3D3D3" d="M108.566,207.046c21.164,3.499,36.909,11.032,36.909,11.032l46.25-108.492
		c-12.975-7.42-26.494-10.892-39.059-12.125L108.566,207.046z"/>
	<path fill="#FBB03B" d="M194.861,108.493c0,0-13.957,26.502-11.223,58.761c2.732,32.258-14.68,68.307-14.68,76.184l4.1-3.813
		l1.629,5.604c0,0,18.617-48.691,15.078-84.721c-2.105-21.439,10.91-53.684,10.91-53.684S195.896,105.701,194.861,108.493"/>
	<polygon fill="#4D4D4D" points="250.547,126.528 233.268,127.005 237.697,115.409 229.033,115.955 224.986,127.233 
		210.168,127.642 208.012,134.439 222.426,134.371 211.184,165.697 218.211,166.402 230.467,134.333 247.219,134.253 	"/>
</g>
</svg>
