<?xml version="1.0" encoding="utf-8"?>
<!-- Generator: Adobe Illustrator 16.0.0, SVG Export Plug-In . SVG Version: 6.00 Build 0)  -->
<!DOCTYPE svg PUBLIC "-//W3C//DTD SVG 1.1 Tiny//EN" "http://www.w3.org/Graphics/SVG/1.1/DTD/svg11-tiny.dtd">
<svg version="1.1" baseProfile="tiny" id="Layer_1" xmlns="http://www.w3.org/2000/svg" xmlns:xlink="http://www.w3.org/1999/xlink"
	 x="0px" y="0px" width="350px" height="350px" viewBox="0 0 350 350" overflow="scroll" xml:space="preserve">
<g>
	<g>
		<path fill-rule="evenodd" fill="#FAC2A3" d="M197.506,86.178c0.42-0.497,2.881-0.497,3.301,0
			C199.706,86.178,198.606,86.178,197.506,86.178z"/>
		<path fill-rule="evenodd" fill="#FAC2A3" d="M237.715,86.478c0.612-0.688,2.493-0.108,3.602-0.3c0,0.1,0,0.199,0,0.3
			C240.116,86.478,238.916,86.478,237.715,86.478z"/>
		<path fill-rule="evenodd" fill="#5FB8AB" d="M241.316,86.478c0-0.101,0-0.2,0-0.3c1.399,0,2.801,0,4.202,0c0,0.1,0,0.199,0,0.3
			C244.117,86.478,242.716,86.478,241.316,86.478z"/>
		<path fill-rule="evenodd" fill="#676D6A" d="M245.519,86.478c0-0.101,0-0.2,0-0.3c3.7,0,7.401,0,11.102,0c0,0.1,0,0.199,0,0.3
			C252.92,86.478,249.219,86.478,245.519,86.478z"/>
		<path fill-rule="evenodd" fill="#5FB8AB" d="M256.62,86.478c0-0.101,0-0.2,0-0.3c0.913,0.188,2.585-0.385,3.001,0.3
			C258.621,86.478,257.621,86.478,256.62,86.478z"/>
		<path fill-rule="evenodd" fill="#676D6A" d="M211.309,86.478c1.401,0,2.801,0,4.202,0c0,0.1,0,0.199,0,0.3
			C214.204,86.583,212.118,87.169,211.309,86.478z"/>
		<path fill-rule="evenodd" fill="#5FB8AB" d="M215.511,86.777c0-0.101,0-0.2,0-0.3c1.5,0,3.001,0,4.501,0c0,0.1,0,0.199,0,0.3
			C218.512,86.777,217.011,86.777,215.511,86.777z"/>
		<path fill-rule="evenodd" fill="#FAC2A3" d="M220.012,86.777c0-0.101,0-0.2,0-0.3c1.5,0,3.001,0,4.501,0c0,0.1,0,0.199,0,0.3
			C223.013,86.777,221.512,86.777,220.012,86.777z"/>
		<path fill-rule="evenodd" fill="#5FB8AB" d="M224.513,86.777c0-0.101,0-0.2,0-0.3c1.9,0,3.802,0,5.7,0c0,0.1,0,0.199,0,0.3
			C228.314,86.777,226.413,86.777,224.513,86.777z"/>
		<path fill-rule="evenodd" fill="#676D6A" d="M230.213,86.777c0-0.101,0-0.2,0-0.3c2.502,0,5.003,0,7.502,0
			C235.813,87.175,232.617,86.58,230.213,86.777z"/>
		<path fill-rule="evenodd" fill="#676D6A" d="M270.425,86.777c2.101,0,4.2,0,6.302,0C275.318,87.277,271.831,87.277,270.425,86.777
			z"/>
		<path fill-rule="evenodd" fill="#D89F7F" d="M130.889,89.178c3.1,0,6.202,0,9.301,0C137.788,89.678,133.292,89.678,130.889,89.178
			z"/>
		<path fill-rule="evenodd" fill="#676D6A" d="M259.621,89.777c0.71-0.689,2.694-0.106,3.902-0.3c0,0.101,0,0.201,0,0.3
			C262.223,89.777,260.922,89.777,259.621,89.777z"/>
		<path fill-rule="evenodd" fill="#676D6A" d="M48.368,102.082c0.506-2.095-1.07-6.272,0.9-6.902
			c-1.265,1.236-0.298,4.702-0.601,6.902C48.567,102.082,48.468,102.082,48.368,102.082z"/>
		<path fill-rule="evenodd" fill="#221F1F" d="M96.379,129.688c0.192-3.192-0.559-5.441-1.799-7.202
			c-2.317-0.146-4.06,0.727-5.703-0.3c-1.123-2.84-2.865-9.222,0.3-11.104c2.386,0.362,5.518,0.539,7.502-0.299
			c1.06-4.818-1.136-10.417-0.899-14.404c2.714-1.461,7.768-0.108,11.403-1.2c1,1.099,0.481,3.72,0.9,5.401
			c-0.5,1.507-0.5,5.095,0,6.602c-0.118,1.419,0.097,2.505,0.3,3.602c3.53,0.116,6.536-0.803,8.702,0.899
			c-0.124,0.724,0.548,0.652,0.3,1.5c-0.697,1.704-0.103,4.699-0.3,6.902c0.069,1.369-0.505,2.096-0.901,3.001
			c-3.692,0.391-5.714-0.887-8.701-1.2c-1.58,4.133,0.171,9.72,0.299,14.103c0,1.101,0,2.201,0,3.302
			c-0.117,1.082-0.388,2.012-0.6,3c-3.365,1.299-6.504-1.333-9.604-0.3c-0.482-1.718-1.07-3.33-0.9-5.701
			C96.483,134.187,97.076,131.292,96.379,129.688z M99.081,114.984c-2.335,1.13-6.262-1.165-6.601,2.401
			c1.007,1.593,4.298,0.902,6.301,1.5c3.129,4.071-0.288,14.69,3.001,18.604c2.874-0.177,1.35-3.704,1.5-5.701
			c0.291-3.893,0.104-8.596-1.5-11.703c1.373-3.591,6.895-1.309,11.102-1.8c0.662-5.764-5.025-3.1-9.002-3.302
			c-1.035-0.665-1.707-1.693-1.799-3.301c2.456-1.563,1.996-7.58,1.5-11.103C96.519,101.446,104.176,112.518,99.081,114.984z"/>
		<path fill-rule="evenodd" fill="#676D6A" d="M280.627,97.88c0,2.302,0,4.602,0,6.901
			C280.128,103.176,280.128,99.486,280.627,97.88z"/>
		<path fill-rule="evenodd" fill="#676D6A" d="M108.083,100.581c0,2.2,0,4.401,0,6.602
			C107.583,105.676,107.583,102.088,108.083,100.581z"/>
		<path fill-rule="evenodd" fill="#676D6A" d="M289.028,101.781c0.5,1.308,0.5,4.694,0,6.002
			C289.028,105.782,289.028,103.782,289.028,101.781z"/>
		<path fill-rule="evenodd" fill="#5FB8AB" d="M293.23,106.282c0.496,0.518,0.496,3.083,0,3.602
			C293.23,108.683,293.23,107.482,293.23,106.282z"/>
		<path fill-rule="evenodd" fill="#D89F7F" d="M280.627,107.183c0.499,1.805,0.499,5.697,0,7.502
			C280.627,112.185,280.627,109.684,280.627,107.183z"/>
		<path fill-rule="evenodd" fill="#676D6A" d="M292.029,117.985c0,1.4,0,2.801,0,4.201c-0.1,0-0.2,0-0.299,0
			C291.924,120.88,291.34,118.794,292.029,117.985z"/>
		<path fill-rule="evenodd" fill="#D89F7F" d="M78.675,118.286c0.499,1.01,0.499,4.091,0,5.101
			C78.675,121.687,78.675,119.986,78.675,118.286z"/>
		<path fill-rule="evenodd" fill="#676D6A" d="M48.368,119.186c0.694,1.007,0.104,3.296,0.299,4.802c-0.1,0-0.199,0-0.299,0
			C48.368,122.386,48.368,120.786,48.368,119.186z"/>
		<path fill-rule="evenodd" fill="#5FB8AB" d="M291.73,122.187c0.099,0,0.199,0,0.299,0c-0.194,1.604,0.395,3.994-0.299,5.101
			C291.73,125.587,291.73,123.887,291.73,122.187z"/>
		<path fill-rule="evenodd" fill="#676D6A" d="M296.831,129.389c0,2.5,0,5.001,0,7.502c-0.101,0-0.2,0-0.301,0
			C296.729,134.487,296.134,131.292,296.831,129.389z"/>
		<path fill-rule="evenodd" fill="#676D6A" d="M96.379,129.688c0.697,1.604,0.104,4.498,0.3,6.602
			C95.983,134.686,96.578,131.792,96.379,129.688z"/>
		<path fill-rule="evenodd" fill="#D89F7F" d="M107.783,135.989c0.496,0.421,0.496,2.882,0,3.302
			C107.783,138.19,107.783,137.09,107.783,135.989z"/>
		<path fill-rule="evenodd" fill="#5FB8AB" d="M292.931,136.29c0,1.801,0,3.602,0,5.401c-0.101,0-0.201,0-0.301,0
			C292.826,139.986,292.235,137.496,292.931,136.29z"/>
		<path fill-rule="evenodd" fill="#D89F7F" d="M61.571,136.891c0.499,1.507,0.499,5.096,0,6.601
			C61.571,141.292,61.571,139.09,61.571,136.891z"/>
		<path fill-rule="evenodd" fill="#5FB8AB" d="M296.53,136.891c0.101,0,0.2,0,0.301,0c0,1.3,0,2.601,0,3.9c-0.101,0-0.2,0-0.301,0
			C296.53,139.491,296.53,138.19,296.53,136.891z"/>
		<path fill-rule="evenodd" fill="#676D6A" d="M75.073,139.591c0.696,1.306,0.104,3.897,0.3,5.702c-0.099,0-0.2,0-0.3,0
			C75.073,143.393,75.073,141.491,75.073,139.591z"/>
		<path fill-rule="evenodd" fill="#FAC2A3" d="M296.53,140.791c0.101,0,0.2,0,0.301,0c-0.189,1.011,0.387,2.788-0.301,3.301
			C296.53,142.992,296.53,141.892,296.53,140.791z"/>
		<path fill-rule="evenodd" fill="#676D6A" d="M292.63,141.691c0.1,0,0.2,0,0.301,0c-0.199,2.503,0.397,5.799-0.301,7.802
			C292.63,146.893,292.63,144.292,292.63,141.691z"/>
		<path fill-rule="evenodd" fill="#D89F7F" d="M75.073,145.293c0.101,0,0.201,0,0.3,0c0,2.6,0,5.201,0,7.802
			C74.677,151.092,75.273,147.795,75.073,145.293z"/>
		<path fill-rule="evenodd" fill="#676D6A" d="M172.299,147.393c0.695,1.306,0.104,3.898,0.299,5.702c-0.099,0-0.199,0-0.299,0
			C172.299,151.193,172.299,149.293,172.299,147.393z"/>
		<path fill-rule="evenodd" fill="#676D6A" d="M58.57,148.593c0.686,0.515,0.11,2.291,0.299,3.301c-0.099,0-0.2,0-0.299,0
			C58.57,150.794,58.57,149.694,58.57,148.593z"/>
		<path fill-rule="evenodd" fill="#D89F7F" d="M279.427,150.394c0.498,0.615,0.498,3.286,0,3.901
			C279.427,152.994,279.427,151.694,279.427,150.394z"/>
		<path fill-rule="evenodd" fill="#5FB8AB" d="M58.57,151.894c0.099,0,0.2,0,0.299,0c0,1.601,0,3.201,0,4.802
			C58.177,155.688,58.765,153.399,58.57,151.894z"/>
		<path fill-rule="evenodd" fill="#D89F7F" d="M172.299,153.095c0.101,0,0.2,0,0.299,0c0,1.4,0,2.801,0,4.2
			C171.908,156.486,172.493,154.401,172.299,153.095z"/>
		<path fill-rule="evenodd" fill="#676D6A" d="M75.374,156.095c0.686,0.417,0.113,2.089,0.302,3.001c-0.101,0-0.201,0-0.302,0
			C75.374,158.096,75.374,157.096,75.374,156.095z"/>
		<path fill-rule="evenodd" fill="#D89F7F" d="M75.374,159.096c0.101,0,0.201,0,0.302,0c0,1.801,0,3.602,0,5.402
			C74.98,163.292,75.571,160.8,75.374,159.096z"/>
		<path fill-rule="evenodd" fill="#676D6A" d="M295.631,164.797c0,1.602,0,3.201,0,4.802
			C295.133,168.688,295.133,165.708,295.631,164.797z"/>
		<path fill-rule="evenodd" fill="#676D6A" d="M53.169,180.701c0-2.301,0-4.602,0-6.901
			C53.668,175.405,53.668,179.096,53.169,180.701z"/>
		<path fill-rule="evenodd" fill="#D89F7F" d="M250.619,175.601c0.323-0.497,2.678-0.497,3.002,0
			C252.619,175.601,251.619,175.601,250.619,175.601z"/>
		<path fill-rule="evenodd" fill="#221F1F" d="M241.917,202.907c-1.17,0.069-1.555-0.646-2.4-0.9
			c0.177-2.978-0.861-4.741-0.899-7.503c1.529-1.97,5.633-1.367,8.102-2.4c1.622-5.933-1.049-11.076,0-15.903
			c1.439-0.06,2.538-0.461,3.9-0.6c1,0,2,0,3.002,0c2.184,0.315,4.022,0.978,4.8,2.7c-0.067,2.904-1.729,9.84,0.6,12.604
			c1.965,0.929,4.869-0.733,6.902,0.299c0.339,3.926-1.411,6.089,0,10.202c-1.025,1.724-4.16,2.248-6.302,1.2
			c-2.289,5.095-1.523,13.55-0.601,19.505c-2.351,2.279-7.521,0.216-11.102,1.501c-2.039-3.19,0.569-6.983,0.3-11.104
			c0.498-0.813,0.498-3.688,0-4.5c0.184-2.085-0.558-3.245-0.899-4.802c-0.601,0-1.2,0-1.801,0
			C244.906,202.519,243.025,203.099,241.917,202.907z M256.62,198.405c1.658,0.143,2.676,0.926,4.801,0.601
			c0.662-1.033,0.196-3.071,0-4.201c-1.818-0.771-3.946,0.078-6,0c-3.631-3.224,2.576-16.287-4.202-15.605
			c-1.758,4.171-0.67,10.87,0.601,14.705c-1.296,2.305-5.188,2.014-8.103,2.7c-0.709,4.713,6.314,1.689,8.103,3.901
			c-1.356,5.185-1.125,14.82,1.5,19.506c0.601,0,1.201,0,1.801,0C255.999,212.155,252.566,202.954,256.62,198.405z"/>
		<path fill-rule="evenodd" fill="#676D6A" d="M59.77,181.901c0.101,0,0.201,0,0.3,0c-0.188,0.912,0.385,2.585-0.3,3.001
			C59.77,183.902,59.77,182.901,59.77,181.901z"/>
		<path fill-rule="evenodd" fill="#D89F7F" d="M80.475,182.202c0.5,1.405,0.5,4.894,0,6.3
			C80.475,186.402,80.475,184.303,80.475,182.202z"/>
		<path fill-rule="evenodd" fill="#676D6A" d="M292.63,187.604c0,2.101,0,4.2,0,6.301
			C292.131,192.498,292.131,189.009,292.63,187.604z"/>
		<path fill-rule="evenodd" fill="#D89F7F" d="M63.971,188.502c0.5,1.408,0.5,4.896,0,6.303
			C63.971,192.704,63.971,190.604,63.971,188.502z"/>
		<path fill-rule="evenodd" fill="#D89F7F" d="M277.626,191.504c0.498,0.615,0.498,3.285,0,3.901
			C277.626,194.104,277.626,192.804,277.626,191.504z"/>
		<path fill-rule="evenodd" fill="#FAC2A3" d="M292.63,193.904c0.499,0.911,0.499,3.891,0,4.802
			C292.63,197.105,292.63,195.504,292.63,193.904z"/>
		<path fill-rule="evenodd" fill="#676D6A" d="M60.371,197.805c0.497,0.325,0.497,2.678,0,3.001
			C60.371,199.806,60.371,198.806,60.371,197.805z"/>
		<path fill-rule="evenodd" fill="#D89F7F" d="M80.175,198.405c0.101,0,0.201,0,0.3,0c-0.188,0.913,0.385,2.585-0.3,3.001
			C80.175,200.406,80.175,199.406,80.175,198.405z"/>
		<path fill-rule="evenodd" fill="#676D6A" d="M287.529,201.106c0,1,0,2,0,3c-0.101,0-0.2,0-0.3,0
			C287.417,203.194,286.845,201.522,287.529,201.106z"/>
		<path fill-rule="evenodd" fill="#676D6A" d="M54.069,202.007c0.499,1.904,0.499,5.897,0,7.802
			C54.069,207.208,54.069,204.608,54.069,202.007z"/>
		<path fill-rule="evenodd" fill="#676D6A" d="M291.429,205.008c0,1,0,2.001,0,3.001c-0.1,0-0.198,0-0.298,0
			C291.318,207.097,290.745,205.423,291.429,205.008z"/>
		<path fill-rule="evenodd" fill="#676D6A" d="M248.219,208.009c0.498,0.812,0.498,3.688,0,4.5
			C248.219,211.01,248.219,209.508,248.219,208.009z"/>
		<path fill-rule="evenodd" fill="#5FB8AB" d="M291.131,208.009c0.1,0,0.198,0,0.298,0c0,1,0,2,0,3.001c-0.1,0-0.198,0-0.298,0
			C291.131,210.009,291.131,209.009,291.131,208.009z"/>
		<path fill-rule="evenodd" fill="#FAC2A3" d="M291.131,211.01c0.1,0,0.198,0,0.298,0c0,1.1,0,2.2,0,3.301c-0.1,0-0.198,0-0.298,0
			C291.131,213.21,291.131,212.109,291.131,211.01z"/>
		<path fill-rule="evenodd" fill="#676D6A" d="M273.425,214.01c0.499,0.713,0.499,3.487,0,4.201
			C273.425,216.81,273.425,215.41,273.425,214.01z"/>
		<path fill-rule="evenodd" fill="#5FB8AB" d="M291.131,214.311c0.1,0,0.198,0,0.298,0c0,1.6,0,3.199,0,4.8c-0.1,0-0.2,0-0.298,0
			C291.131,217.51,291.131,215.91,291.131,214.311z"/>
		<path fill-rule="evenodd" fill="#D89F7F" d="M277.026,217.011c0.693,1.007,0.104,3.295,0.301,4.801c-0.101,0-0.201,0-0.301,0
			C277.026,220.212,277.026,218.61,277.026,217.011z"/>
		<path fill-rule="evenodd" fill="#676D6A" d="M62.171,220.012c0,2.7,0,5.401,0,8.102c-0.101,0-0.2,0-0.3,0
			C62.068,225.511,61.473,222.114,62.171,220.012z"/>
		<path fill-rule="evenodd" fill="#D89F7F" d="M75.976,220.313c0,1.399,0,2.8,0,4.199c-0.101,0-0.201,0-0.3,0
			C75.867,223.206,75.283,221.12,75.976,220.313z"/>
		<path fill-rule="evenodd" fill="#676D6A" d="M277.026,221.812c0.1,0,0.2,0,0.301,0c0,1.101,0,2.201,0,3.301
			c-0.101,0-0.201,0-0.301,0C277.026,224.013,277.026,222.912,277.026,221.812z"/>
		<path fill-rule="evenodd" fill="#676D6A" d="M75.675,224.512c0.099,0,0.2,0,0.3,0c-0.191,1.011,0.385,2.787-0.3,3.301
			C75.675,226.713,75.675,225.612,75.675,224.512z"/>
		<path fill-rule="evenodd" fill="#D89F7F" d="M277.026,225.112c0.1,0,0.2,0,0.301,0c-0.188,0.912,0.383,2.586-0.301,3.001
			C277.026,227.113,277.026,226.112,277.026,225.112z"/>
		<path fill-rule="evenodd" fill="#676D6A" d="M57.07,225.713c0,1.501,0,3.001,0,4.501C56.572,229.401,56.572,226.525,57.07,225.713
			z"/>
		<path fill-rule="evenodd" fill="#676D6A" d="M220.911,230.214c2.305-0.5,6.699-0.5,9.004,0
			C226.913,230.214,223.912,230.214,220.911,230.214z"/>
		<path fill-rule="evenodd" fill="#676D6A" d="M173.199,232.614c0,1.7,0,3.4,0,5.102C172.7,236.706,172.7,233.623,173.199,232.614z"
			/>
		<path fill-rule="evenodd" fill="#D89F7F" d="M71.173,236.815c1.607-0.499,5.296-0.499,6.902,0
			C75.774,236.815,73.475,236.815,71.173,236.815z"/>
		<path fill-rule="evenodd" fill="#D89F7F" d="M261.421,237.716c1.208-0.694,3.698-0.104,5.402-0.3c0,0.099,0,0.199,0,0.3
			C265.023,237.716,263.223,237.716,261.421,237.716z"/>
		<path fill-rule="evenodd" fill="#676D6A" d="M266.823,237.716c0-0.101,0-0.201,0-0.3c1.5,0,3.002,0,4.501,0
			C270.417,238.108,268.23,237.521,266.823,237.716z"/>
		<path fill-rule="evenodd" fill="#D89F7F" d="M120.085,238.616c2.105-0.5,6.298-0.5,8.403,0
			C125.687,238.616,122.886,238.616,120.085,238.616z"/>
		<path fill-rule="evenodd" fill="#676D6A" d="M98.78,238.616c1.299,0,2.6,0,3.9,0c0,0.101,0,0.199,0,0.3
			C101.473,238.724,99.49,239.307,98.78,238.616z"/>
		<path fill-rule="evenodd" fill="#D89F7F" d="M102.681,238.916c0-0.101,0-0.199,0-0.3c2.202,0,4.402,0,6.603,0
			c0,0.101,0,0.199,0,0.3C107.083,238.916,104.882,238.916,102.681,238.916z"/>
		<path fill-rule="evenodd" fill="#676D6A" d="M109.283,238.916c0-0.101,0-0.199,0-0.3c1.9,0,3.801,0,5.703,0
			C113.679,239.313,111.088,238.719,109.283,238.916z"/>
		<path fill-rule="evenodd" fill="#676D6A" d="M256.62,241.018c0.519-0.499,3.084-0.499,3.601,0
			C259.021,241.018,257.82,241.018,256.62,241.018z"/>
		<path fill-rule="evenodd" fill="#676D6A" d="M99.981,242.816c0.61-0.687,2.491-0.107,3.601-0.3c0,0.101,0,0.201,0,0.3
			C102.382,242.816,101.181,242.816,99.981,242.816z"/>
		<path fill-rule="evenodd" fill="#5FB8AB" d="M91.579,242.816c1.299,0,2.6,0,3.901,0C94.865,243.315,92.193,243.315,91.579,242.816
			z"/>
		<path fill-rule="evenodd" fill="#5FB8AB" d="M117.085,243.417c1.1,0,2.2,0,3.3,0C119.965,243.914,117.505,243.914,117.085,243.417
			z"/>
		<path fill-rule="evenodd" fill="#5FB8AB" d="M255.421,243.718c0.71-0.689,2.692-0.108,3.9-0.301c0,0.1,0,0.2,0,0.301
			C258.021,243.718,256.721,243.718,255.421,243.718z"/>
		<path fill-rule="evenodd" fill="#676D6A" d="M259.321,243.718c0-0.101,0-0.201,0-0.301c1.201,0,2.401,0,3.602,0
			C262.311,244.107,260.431,243.527,259.321,243.718z"/>
		<path fill-rule="evenodd" fill="#676D6A" d="M231.115,248.518c1.206-0.498,4.493-0.498,5.701,0
			C234.915,248.518,233.015,248.518,231.115,248.518z"/>
		<path fill-rule="evenodd" fill="#FAC2A3" d="M219.11,250.02c0-0.102,0-0.201,0-0.3c1.602,0,3.202,0,4.802,0
			C222.905,250.411,220.616,249.823,219.11,250.02z"/>
		<path fill-rule="evenodd" fill="#5FB8AB" d="M144.091,252.72c0.909-0.692,3.096-0.105,4.502-0.3c0,0.099,0,0.199,0,0.3
			C147.093,252.72,145.593,252.72,144.091,252.72z"/>
		<path fill-rule="evenodd" fill="#676D6A" d="M148.594,252.72c0-0.101,0-0.201,0-0.3c1.101,0,2.2,0,3.3,0
			C151.379,253.107,149.603,252.529,148.594,252.72z"/>
		<path fill-rule="evenodd" fill="#676D6A" d="M138.991,252.72c1.1,0,2.2,0,3.301,0C141.872,253.217,139.411,253.217,138.991,252.72
			z"/>
		<path fill-rule="evenodd" fill="#FAC2A3" d="M178.001,252.72c1.301,0,2.6,0,3.9,0C181.286,253.217,178.615,253.217,178.001,252.72
			z"/>
		<path fill-rule="evenodd" fill="#676D6A" d="M170.198,94.58c3.349-0.473,4.644-5.546,9.003-6.003
			C175.727,89.083,172.452,95.805,170.198,94.58z"/>
		<path fill-rule="evenodd" fill="#676D6A" d="M280.027,86.178c3.223-1.52,3.443,2.555,6.901,1.8
			C283.705,89.496,283.485,85.424,280.027,86.178z"/>
		<path fill-rule="evenodd" fill="#676D6A" d="M299.531,87.378c1.309,0.092,1.716,1.087,2.401,1.8c0,0.3,0,0.6,0,0.9
			c-1.427,0.875-1.849,2.753-2.1,4.802c-0.433-2.732,0.634-3.967,1.799-5.103C301.403,88.507,300.232,88.177,299.531,87.378z"/>
		<path fill-rule="evenodd" fill="#676D6A" d="M297.432,113.784c0.223-1.178-0.634-3.435,0.899-3.301
			C297.116,110.668,298.26,113.213,297.432,113.784z"/>
		<path fill-rule="evenodd" fill="#676D6A" d="M289.329,244.019c-0.289,1.311-0.384,2.815-2.1,2.7
			C288.611,246.501,288.54,244.827,289.329,244.019z"/>
		<path fill-rule="evenodd" fill="#676D6A" d="M243.417,248.518c0.932-0.873,3.387-1.807,5.103-0.899
			C246.123,247.224,245.029,248.129,243.417,248.518z"/>
		<path fill-rule="evenodd" fill="#676D6A" d="M212.809,250.619c2.938,0.537,3.808-0.994,6.302-0.899c0,0.099,0,0.198,0,0.3
			C216.783,249.797,215.147,251.85,212.809,250.619z"/>
		<path fill-rule="evenodd" fill="#676D6A" d="M199.907,251.519c3.3-0.899,8.818,0.418,11.701-0.899
			C209.127,252.338,203.771,251.184,199.907,251.519z"/>
		<path fill-rule="evenodd" fill="#676D6A" d="M166.897,263.521c2.551,0.982,4.948,2.767,7.502,0.602
			c-0.437,0.662-1.606,0.594-1.801,1.5c-0.7,0-1.4,0-2.1,0C169.543,264.68,167.854,264.466,166.897,263.521z"/>
		<path fill-rule="evenodd" fill="#676D6A" d="M161.797,263.521c-3.965-0.669-0.93-4.813,0.601-6.001
			c-0.435,1.667-1.943,2.26-2.401,3.901c0.108,1.092,0.709,1.691,1.801,1.8C161.797,263.323,161.797,263.423,161.797,263.521z"/>
		<path fill-rule="evenodd" fill="#676D6A" d="M97.879,255.421c-0.084-0.485,0.284-0.517,0.3-0.901
			c1.601-1.04,1.826,1.868,2.401,2.102c3.301,1.334,11.366,0,15.604,0c14.999,0,32.662-0.241,46.213,0.3
			c-13.537,0-30.914,0-46.213,0c-4.674,0-11.746,1.272-15.303,0c-1.017-0.362-1.437-3.195-2.702-1.5
			C98.081,255.421,97.98,255.421,97.879,255.421z"/>
		<path fill-rule="evenodd" fill="#676D6A" d="M71.173,92.779c2.401-1,2.938-3.863,6.002-4.202
			C74.652,89.456,74.017,92.221,71.173,92.779z"/>
		<path fill-rule="evenodd" fill="#F47F4A" d="M282.428,227.813c0.046,2.947,0.108,5.91-0.601,8.103
			c-3.15-0.861-6.881-3.625-4.801-7.802c0.684-0.415,0.112-2.089,0.301-3.001c0-1.1,0-2.2,0-3.301
			c-0.196-1.506,0.393-3.794-0.301-4.801c0-0.5,0-1,0-1.501c0-4.401,0-8.802,0-13.203c-0.039-2.539,0.311-4.69,0.6-6.901
			c0.498-0.616,0.498-3.286,0-3.901c0-0.4,0-0.8,0-1.199c0-1.803,0-3.602,0-5.402c-0.029-0.931,0.136-1.665,0.601-2.1
			c0.699-3.002,0.101-7.302,0.301-10.803c0-0.602,0-1.201,0-1.801c0.693-1.008,0.104-3.297,0.299-4.802c0-0.399,0-0.8,0-1.2
			c0.69-0.71,0.106-2.692,0.3-3.9c0-0.401,0-0.801,0-1.201c0.688-0.611,0.108-2.491,0.301-3.601c0-0.4,0-0.801,0-1.2
			c0.498-0.615,0.498-3.286,0-3.901c0-0.3,0-0.601,0-0.9c0-2.5,0-5.001,0-7.502c-0.004-2.804,0.278-5.323,0.601-7.802
			c0.689-0.71,0.108-2.692,0.299-3.9c0-0.501,0-1.001,0-1.501c0.7-3.603,0.103-8.501,0.301-12.604c0-0.499,0-1,0-1.5
			c0.499-1.805,0.499-5.697,0-7.502c0-0.8,0-1.601,0-2.401c0-2.3,0-4.6,0-6.901c-0.062-2.062-0.008-4.008,0.6-5.401
			c0.281-0.22,0.455-0.546,0.601-0.9c0.501,0,1,0,1.5,0c2.086,0.716,3.398,2.205,5.102,3.302c0.222,2.279,0.793,4.207,0.6,6.901
			c0,2.001,0,4.001,0,6.002c0,0.5,0,0.999,0,1.5c-0.689,0.71-0.106,2.693-0.3,3.9c0,0.301,0,0.601,0,0.9
			c-0.684,0.416-0.111,2.089-0.3,3.002c0,0.3,0,0.6,0,0.899c-0.687,0.515-0.109,2.291-0.3,3.301c0,0.3,0,0.601,0,0.9
			c-0.693,1.106-0.104,3.496-0.301,5.101c0,1.301,0,2.601,0,3.901c-0.693,1.008-0.105,3.296-0.299,4.801c0,0.301,0,0.601,0,0.901
			c-0.688,0.514-0.11,2.291-0.3,3.301c0,0.399,0,0.8,0,1.2c-0.691,0.71-0.108,2.693-0.301,3.901
			c0.097,4.896-1.21,8.392-0.899,13.503c-0.688,0.514-0.111,2.29-0.301,3.301c-0.118,4.282-0.723,8.08-1.2,12.003
			c-0.69,0.71-0.107,2.693-0.3,3.901c0,1.301,0,2.6,0,3.9c-0.696,1.604-0.104,4.499-0.302,6.601c0,0.502,0,1.002,0,1.502
			c-0.691,0.809-0.105,2.894-0.298,4.199c0,0.402,0,0.802,0,1.202c-0.689,0.61-0.109,2.491-0.302,3.601c0,0.301,0,0.602,0,0.9
			c-0.688,0.612-0.108,2.493-0.3,3.6c0,0.401,0,0.802,0,1.202c-0.688,0.61-0.108,2.491-0.301,3.601c0,0.4,0,0.8,0,1.199
			c-0.691,0.81-0.105,2.896-0.299,4.202c0,0.399,0,0.799,0,1.2c-0.696,1.505-0.104,4.298-0.301,6.302c0,1,0,2,0,2.999
			C282.319,225.321,281.739,227.202,282.428,227.813z"/>
		<path fill-rule="evenodd" fill="#D89F7F" d="M281.227,92.479c0-0.3,0-0.6,0-0.9c0.254-0.28,1.914-0.64,2.101,0
			c-0.5,0-0.999,0-1.5,0C281.682,91.933,281.508,92.259,281.227,92.479z"/>
		<path fill-rule="evenodd" fill="#D89F7F" d="M63.372,100.581c1.232-0.869,2.632-1.568,4.2-2.101
			C66.339,99.349,64.939,100.048,63.372,100.581z"/>
		<path fill-rule="evenodd" fill="#00AC91" d="M51.669,105.682c-0.117-2.917,0.628-4.973,1.2-7.201
			c3.108-0.593,6.28-1.121,9.002-2.101c-0.99,3.529-6.509,1.503-7.802,4.201c-1.619,3.377,4.723,8.235,3.001,14.403
			c0.189,1.011-0.387,2.787,0.3,3.302c0,0.5,0,0.999,0,1.499c0.196,1.806-0.396,4.396,0.299,5.702c0,0.601,0,1.2,0,1.8
			c0.195,1.406-0.392,3.594,0.3,4.502c0,0.5,0,1,0,1.5c0.192,1.109-0.388,2.989,0.301,3.602c0,0.6,0,1.2,0,1.8
			c0.198,2.204-0.396,5.198,0.3,6.902c0,0.999,0,2,0,3c0,1.102,0,2.201,0,3.301c0.194,1.506-0.394,3.795,0.299,4.802
			c0,0.7,0,1.4,0,2.101c0.193,1.207-0.389,3.191,0.3,3.901c0.216,1.484,0.414,2.988,0.3,4.801c0.191,1.011-0.387,2.787,0.3,3.301
			c0,0.6,0,1.201,0,1.801c0,3.101,0,6.2,0,9.302c0,1,0,2.001,0,3.001c0,1.401,0,2.801,0,4.2c0.19,1.011-0.387,2.787,0.3,3.302
			c0,0.3,0,0.601,0,0.9c0.188,0.911-0.384,2.584,0.3,3.001c0,0.499,0,1,0,1.499c0,1.001,0,2.001,0,3.001
			c-0.747,4.802-1.233,8.987-1.501,12.904c-0.443-6.758-1.688-12.713-2.1-19.507c0-1.898,0-3.8,0-5.701
			c0.964-5.793-0.793-10.848-0.601-16.803c-0.194-1.307,0.392-3.393-0.299-4.201c0-0.5,0-1,0-1.501
			c-0.195-1.406,0.392-3.593-0.3-4.5c0-0.401,0-0.801,0-1.2c-0.192-1.109,0.388-2.99-0.3-3.602
			c-0.306-5.695-1.721-10.282-1.799-16.204c-0.191-1.011,0.385-2.787-0.3-3.301c-0.387-2.215-1.299-3.902-1.5-6.302
			c0-1.4,0-2.801,0-4.201c0.065-2.535,0.482-4.718,0.3-7.502c-0.193-1.208,0.389-3.19-0.3-3.9c0-0.401,0-0.801,0-1.201
			C51.669,111.284,51.669,108.482,51.669,105.682z"/>
		<path fill-rule="evenodd" fill="#D89F7F" d="M173.199,232.614c-0.449-9.758,3.782-18.622,4.501-28.508
			c0.525-7.228,0.049-15.941,0.301-22.805c0.387-10.534-3.65-20.895-1.801-31.509c2.166,2.479,0.697,6.823,1.201,10.504
			c0.256,1.876,1.372,3.537,1.499,5.101c0.142,1.721-0.709,3.82-0.6,5.701c0.113,1.959,1.264,3.826,1.501,6.001
			c0.319,2.947-0.242,6.605,0,10.204c0.287,4.304,1.504,7.708,1.2,13.202c-0.259,4.675-1.136,9.786-1.501,14.704
			c-0.499,6.708,0.79,13.486-0.601,18.005c-0.353,1.146-1.642,2.019-2.1,3.302c-1.231,3.44-0.562,7.55-1.801,10.202
			c-0.891,1.903-2.964,3.159-4.501,4.8c0.71,1.69,2.2,2.603,2.4,4.802c-0.069,1.688-1.023,0.151-1.799,0.901
			c-1.271,1.223-0.09,3.862-2.401,3.6c-2.608-0.295-1.391-6.25-0.299-9.303c2.052-5.74,3.503-8.901,4.8-13.803
			C173.199,236.015,173.199,234.314,173.199,232.614z"/>
		<path fill-rule="evenodd" fill="#5FB8AB" d="M255.12,220.012c-0.6,0-1.2,0-1.801,0c-2.625-4.686-2.856-14.321-1.5-19.506
			c-1.788-2.212-8.812,0.812-8.103-3.901c2.914-0.687,6.807-0.396,8.103-2.7c-1.271-3.835-2.358-10.534-0.601-14.705
			c6.778-0.682,0.571,12.382,4.202,15.605c2.054,0.078,4.182-0.771,6,0c0.196,1.13,0.662,3.168,0,4.201
			c-2.125,0.325-3.143-0.458-4.801-0.601C252.566,202.954,255.999,212.155,255.12,220.012z"/>
		<path fill-rule="evenodd" fill="#00AC91" d="M286.929,221.512c-0.093-0.701-0.588-1.24,0-1.8
			C288.179,219.381,288.179,221.842,286.929,221.512z"/>
		<path fill-rule="evenodd" fill="#5FB8AB" d="M57.37,233.814c0.835,0.135-0.235-1.636,0.599-1.5
			c-0.061,0.938,0.203,2.202-0.3,2.701C57.263,234.922,57.421,234.264,57.37,233.814z"/>
		<path fill-rule="evenodd" fill="#F47F4A" d="M107.183,226.612c4.006,0.207,6.275-1.325,9.902-1.5c1.3,0,2.601,0,3.9,0
			c14.498,1.206,25.432,5.977,36.609,10.503c0.191,1.011-0.386,2.788,0.3,3.301c0,0.5,0,1,0,1.501c-0.6,0-1.2,0-1.799,0
			c-2.101,0-4.202,0-6.302,0c-3.492-0.109-6.434-0.768-9.603-1.202c-0.415-0.683-2.088-0.11-3-0.299c-0.3,0-0.601,0-0.901,0
			c-1.005-0.693-3.295-0.105-4.8-0.3c-1,0-2,0-3.001,0c-2.105-0.5-6.298-0.5-8.403,0c-1.699,0-3.4,0-5.099,0
			c-1.901,0-3.803,0-5.703,0c-2.2,0-4.401,0-6.603,0c-1.3,0-2.601,0-3.9,0c-0.601,0-1.201,0-1.801,0
			c-0.514-0.687-2.291-0.111-3.301-0.3c-5.503-0.198-10.317-1.086-15.604-1.501c-1.606-0.499-5.295-0.499-6.902,0
			c-0.014-1.718,2.765-3.232,5.102-3.601c1.299,0,2.6,0,3.9,0c5.253-4.85,16.358-3.847,23.706-6.603
			C104.983,226.612,106.083,226.612,107.183,226.612z"/>
		<path fill-rule="evenodd" fill="#F47F4A" d="M196.006,241.616c-3.567,0.167-5.99-0.812-9.003-1.199
			c0.146-2.047-0.542-3.258-0.601-5.101c7.261-2.145,14.849-3.958,23.706-4.503c0.912-0.187,2.585,0.385,3.001-0.3
			c0.3,0,0.6,0,0.9,0c1.406-0.193,3.593,0.393,4.502-0.3c0.799,0,1.6,0,2.399,0c3.001,0,6.002,0,9.004,0
			c5.301,0.5,8.151-1.45,13.202-1.199c2.301,0,4.602,0,6.902,0c8.689,0.111,15.066,2.537,21.305,5.1
			c0.675,0.326,1.186,0.814,1.201,1.801c1.342,0.359,3.261,0.141,3.602,1.501c-1.601,0-3.202,0-4.803,0c-1.499,0-3.001,0-4.501,0
			c-1.704,0.196-4.194-0.395-5.402,0.3c-0.699,0-1.398,0-2.1,0c-1.704,0.196-4.194-0.395-5.401,0.301c-0.5,0-1,0-1.499,0
			c-1.407,0.193-3.594-0.394-4.502,0.3c-0.4,0-0.801,0-1.2,0c-1.308,0.194-3.393-0.392-4.201,0.3c-0.399,0-0.801,0-1.201,0
			c-1.307,0.193-3.392-0.391-4.199,0.3c-0.401,0-0.802,0-1.202,0c-1.406,0.195-3.594-0.393-4.501,0.299c-0.399,0-0.801,0-1.201,0
			c-1.009,0.191-2.786-0.385-3.3,0.301c-5.905,0.598-11.494,1.51-17.704,1.802c-0.913,0.188-2.586-0.384-3.001,0.299
			c-0.301,0-0.601,0-0.901,0C202.207,241.616,199.105,241.616,196.006,241.616z"/>
		<path fill-rule="evenodd" fill="#00AC91" d="M183.403,244.019c0.098,1.099-0.334,1.667-0.603,2.399
			c-1.566,0.069-2.994-0.005-4.199-0.3c0.545-3.757,1.125-7.477,3.9-9.003c0.608,0.493,0.978,1.225,0.901,2.4
			C183.403,241.018,183.403,242.517,183.403,244.019z"/>
		<path fill-rule="evenodd" fill="#00AC91" d="M285.729,241.317c0.473,2.372-2.074,1.726-3.901,1.8
			C282.958,241.875,283.966,242.687,285.729,241.317z"/>
		<path fill-rule="evenodd" fill="#D89F7F" d="M130.289,84.377c1.5,0,3.001,0,4.501,0c0,0.1,0,0.2,0,0.3c-1.5,0-3,0-4.501,0
			C130.289,84.577,130.289,84.477,130.289,84.377z"/>
		<path fill-rule="evenodd" fill="#D89F7F" d="M145.893,84.377c0.999,0,2,0,3,0c0,0.1,0,0.2,0,0.3c-1,0-2,0-3,0
			C145.893,84.577,145.893,84.477,145.893,84.377z"/>
		<path fill-rule="evenodd" fill="#676D6A" d="M110.483,84.977c0.514-0.687,2.291-0.109,3.301-0.3
			C113.27,85.363,111.494,84.787,110.483,84.977z"/>
		<path fill-rule="evenodd" fill="#676D6A" d="M206.208,86.178c1.208,0.192,3.191-0.391,3.9,0.3
			C208.9,86.284,206.918,86.868,206.208,86.178z"/>
		<path fill-rule="evenodd" fill="#676D6A" d="M187.603,86.777c0.416-0.685,2.09-0.111,3.001-0.3
			C190.188,87.161,188.515,86.589,187.603,86.777z"/>
		<path fill-rule="evenodd" fill="#676D6A" d="M262.022,86.478c2.103,0.197,4.998-0.396,6.603,0.3
			C266.521,86.58,263.628,87.173,262.022,86.478z"/>
		<path fill-rule="evenodd" fill="#676D6A" d="M90.979,87.078c0.511-0.688,2.291-0.111,3.3-0.301
			C93.765,87.464,91.988,86.887,90.979,87.078z"/>
		<path fill-rule="evenodd" fill="#D89F7F" d="M263.523,89.478c1.803,0.196,4.396-0.395,5.701,0.3c-1.9,0-3.802,0-5.701,0
			C263.523,89.679,263.523,89.578,263.523,89.478z"/>
		<path fill-rule="evenodd" fill="#676D6A" d="M65.471,93.379c0.612-0.688,2.493-0.108,3.602-0.3
			C68.461,93.768,66.58,93.188,65.471,93.379z"/>
		<path fill-rule="evenodd" fill="#00AC91" d="M293.23,106.282c-0.636-3.86-0.668-9.38,1.501-11.402
			c0.627-1.48-1.536-2.855-0.301-3.001c1.401-0.301,1.678,0.522,1.5,1.8c-0.691,0.908-0.106,3.096-0.3,4.501c0,0.5,0,1.001,0,1.501
			c-0.684,0.416-0.112,2.089-0.301,3.001c-0.208,6.692-0.906,12.897-1.5,19.205c-0.684,0.416-0.11,2.088-0.299,3.001
			c0,0.399,0,0.8,0,1.2c-0.685,0.416-0.112,2.088-0.301,3c0,0.5,0,1.001,0,1.501c-0.689,0.71-0.108,2.693-0.3,3.9
			c0,0.601,0,1.2,0,1.801c-0.695,1.206-0.104,3.696-0.301,5.401c0,2.601,0,5.201,0,7.802c0,2.701,0,5.401,0,8.103
			c-0.696,1.604-0.104,4.498-0.299,6.602c-0.985,15.119-2.945,29.265-4.503,43.812c-0.689-0.71-0.106-2.693-0.299-3.902c0-1,0-2,0-3
			c-0.001-0.9,0-1.8,0-2.701c0.695-1.306,0.104-3.896,0.299-5.701c0-0.699,0-1.399,0-2.1c0.692-0.908,0.107-3.096,0.301-4.502
			c0-0.601,0-1.2,0-1.8c0.69-0.81,0.105-2.896,0.3-4.202c0-0.399,0-0.799,0-1.2c0.691-0.808,0.107-2.894,0.3-4.2
			c0-0.4,0-0.8,0-1.201c0.69-0.71,0.106-2.692,0.3-3.9c0-0.4,0-0.801,0-1.2c0.691-0.711,0.108-2.693,0.301-3.9
			c0-0.401,0-0.801,0-1.201c0.689-0.71,0.107-2.693,0.3-3.901c0-0.399,0-0.8,0-1.2c0.69-0.71,0.108-2.693,0.301-3.9
			c0-0.4,0-0.801,0-1.2c0.69-0.81,0.106-2.895,0.299-4.202c0-0.499,0-1,0-1.5c0.692-0.809,0.108-2.895,0.302-4.201
			c0-0.5,0-0.999,0-1.5c0.692-1.007,0.104-3.296,0.299-4.801c-0.245-3.748,0.734-6.269,0.901-9.604
			c0.693-1.106,0.104-3.496,0.299-5.101c0-1.4,0-2.801,0-4.201c-0.322-3.423,0.547-5.655,1.201-8.102
			C293.727,109.365,293.727,106.8,293.23,106.282z"/>
		<path fill-rule="evenodd" fill="#5FB8AB" d="M295.931,93.679c-0.194,1.406,0.393,3.594-0.3,4.501
			C295.824,96.774,295.239,94.587,295.931,93.679z"/>
		<path fill-rule="evenodd" fill="#D89F7F" d="M73.873,97.58c0.499,0.615,0.499,3.286,0,3.901
			C73.873,100.182,73.873,98.881,73.873,97.58z"/>
		<path fill-rule="evenodd" fill="#5FB8AB" d="M295.631,99.681c-0.188,0.913,0.384,2.584-0.301,3.001
			C295.519,101.77,294.947,100.097,295.631,99.681z"/>
		<path fill-rule="evenodd" fill="#D89F7F" d="M73.873,103.282c0.686,0.415,0.113,2.088,0.3,3
			C73.49,105.866,74.062,104.193,73.873,103.282z"/>
		<path fill-rule="evenodd" fill="#FAC2A3" d="M298.931,102.082c-0.378,2.621,0.772,6.772-0.6,8.401
			C299.204,108.355,298.054,104.203,298.931,102.082z"/>
		<path fill-rule="evenodd" fill="#D89F7F" d="M289.028,109.283c-0.193,1.207,0.391,3.19-0.3,3.9
			C288.922,111.977,288.339,109.993,289.028,109.283z"/>
		<path fill-rule="evenodd" fill="#D89F7F" d="M59.47,108.383c0.696,1.604,0.103,4.499,0.3,6.602
			C59.074,113.38,59.667,110.486,59.47,108.383z"/>
		<path fill-rule="evenodd" fill="#D89F7F" d="M74.774,112.584c0.69,0.612,0.11,2.492,0.299,3.601
			C74.385,115.573,74.965,113.693,74.774,112.584z"/>
		<path fill-rule="evenodd" fill="#5FB8AB" d="M57.07,114.984c0.686,0.514,0.111,2.291,0.3,3.302
			C56.683,117.771,57.259,115.995,57.07,114.984z"/>
		<path fill-rule="evenodd" fill="#D89F7F" d="M288.729,114.084c-0.188,0.912,0.384,2.585-0.3,3.002
			C288.617,116.173,288.045,114.5,288.729,114.084z"/>
		<path fill-rule="evenodd" fill="#676D6A" d="M297.432,114.385c-0.193,1.307,0.391,3.392-0.301,4.201
			C297.324,117.279,296.739,115.193,297.432,114.385z"/>
		<path fill-rule="evenodd" fill="#D89F7F" d="M277.327,112.884c-0.198,2.304,0.396,5.398-0.301,7.202
			C277.224,117.783,276.63,114.688,277.327,112.884z"/>
		<path fill-rule="evenodd" fill="#5FB8AB" d="M51.669,115.285c0.689,0.71,0.107,2.692,0.3,3.9
			C51.278,118.476,51.861,116.492,51.669,115.285z"/>
		<path fill-rule="evenodd" fill="#D89F7F" d="M288.429,117.985c-0.19,1.01,0.386,2.788-0.3,3.301
			C288.319,120.276,287.742,118.5,288.429,117.985z"/>
		<path fill-rule="evenodd" fill="#5FB8AB" d="M293.83,121.887c-0.188,0.912,0.384,2.585-0.299,3.001
			C293.72,123.975,293.146,122.303,293.83,121.887z"/>
		<path fill-rule="evenodd" fill="#676D6A" d="M297.131,120.086c-0.197,2.103,0.396,4.997-0.3,6.602
			C297.029,124.584,296.435,121.69,297.131,120.086z"/>
		<path fill-rule="evenodd" fill="#D89F7F" d="M288.129,122.187c-0.195,1.604,0.395,3.994-0.301,5.101
			C288.024,125.683,287.436,123.293,288.129,122.187z"/>
		<path fill-rule="evenodd" fill="#5FB8AB" d="M293.531,126.088c-0.19,0.911,0.383,2.584-0.301,3
			C293.419,128.176,292.847,126.504,293.531,126.088z"/>
		<path fill-rule="evenodd" fill="#5FB8AB" d="M57.669,127.287c0.692,0.908,0.107,3.096,0.3,4.502
			C57.277,130.881,57.864,128.693,57.669,127.287z"/>
		<path fill-rule="evenodd" fill="#5FB8AB" d="M48.667,123.987c0,4.101,0,8.202,0,12.303c-0.699-3.502-0.101-8.301-0.299-12.303
			C48.468,123.987,48.567,123.987,48.667,123.987z"/>
		<path fill-rule="evenodd" fill="#D89F7F" d="M280.326,130.289c-0.19,1.208,0.391,3.19-0.299,3.9
			C280.22,132.981,279.637,130.999,280.326,130.289z"/>
		<path fill-rule="evenodd" fill="#5FB8AB" d="M293.23,130.589c-0.193,1.207,0.39,3.19-0.3,3.9
			C293.122,133.282,292.541,131.299,293.23,130.589z"/>
		<path fill-rule="evenodd" fill="#5FB8AB" d="M57.969,133.289c0.688,0.612,0.11,2.492,0.301,3.602
			C57.582,136.278,58.162,134.398,57.969,133.289z"/>
		<path fill-rule="evenodd" fill="#D89F7F" d="M287.828,131.188c-0.194,1.506,0.394,3.794-0.299,4.801
			C287.723,134.484,287.135,132.196,287.828,131.188z"/>
		<path fill-rule="evenodd" fill="#5FB8AB" d="M53.169,137.19c0.686,0.514,0.109,2.29,0.3,3.301
			C52.781,139.978,53.359,138.2,53.169,137.19z"/>
		<path fill-rule="evenodd" fill="#D89F7F" d="M287.529,136.891c-0.19,1.011,0.386,2.786-0.3,3.301
			C287.419,139.182,286.842,137.404,287.529,136.891z"/>
		<path fill-rule="evenodd" fill="#D89F7F" d="M287.229,141.392c-0.194,1.207,0.389,3.19-0.301,3.901
			C287.121,144.085,286.538,142.102,287.229,141.392z"/>
		<path fill-rule="evenodd" fill="#5FB8AB" d="M290.53,143.191c-0.193,1.307,0.391,3.393-0.302,4.201
			C290.423,146.086,289.838,144.001,290.53,143.191z"/>
		<path fill-rule="evenodd" fill="#676D6A" d="M296.53,144.092c-0.197,2.703,0.398,6.2-0.3,8.402
			C296.43,149.791,295.833,146.295,296.53,144.092z"/>
		<path fill-rule="evenodd" fill="#5FB8AB" d="M290.229,148.893c-0.192,1.308,0.392,3.393-0.299,4.202
			C290.123,151.788,289.537,149.702,290.229,148.893z"/>
		<path fill-rule="evenodd" fill="#5FB8AB" d="M289.93,154.295c-0.192,1.207,0.39,3.19-0.301,3.9
			C289.822,156.988,289.238,155.005,289.93,154.295z"/>
		<path fill-rule="evenodd" fill="#D89F7F" d="M279.427,155.495c-0.192,1.109,0.388,2.989-0.301,3.601
			C279.318,157.987,278.738,156.106,279.427,155.495z"/>
		<path fill-rule="evenodd" fill="#676D6A" d="M296.23,154.295c-0.195,1.505,0.395,3.794-0.3,4.801
			C296.126,157.591,295.538,155.302,296.23,154.295z"/>
		<path fill-rule="evenodd" fill="#5FB8AB" d="M55.269,156.695c0.688,0.611,0.108,2.492,0.3,3.602
			C54.881,159.685,55.461,157.805,55.269,156.695z"/>
		<path fill-rule="evenodd" fill="#5FB8AB" d="M58.869,158.796c0.692,0.71,0.108,2.693,0.3,3.901
			C58.48,161.987,59.063,160.003,58.869,158.796z"/>
		<path fill-rule="evenodd" fill="#5FB8AB" d="M289.629,159.396c-0.192,1.208,0.39,3.191-0.3,3.901
			C289.522,162.09,288.938,160.105,289.629,159.396z"/>
		<path fill-rule="evenodd" fill="#D89F7F" d="M286.029,158.796c-0.191,1.01,0.386,2.787-0.301,3.301
			C285.918,161.086,285.342,159.31,286.029,158.796z"/>
		<path fill-rule="evenodd" fill="#676D6A" d="M274.625,161.196c-0.187,0.912,0.385,2.585-0.3,3.001
			C274.514,163.285,273.94,161.612,274.625,161.196z"/>
		<path fill-rule="evenodd" fill="#D89F7F" d="M279.126,160.297c-0.193,1.208,0.391,3.19-0.3,3.9
			C279.019,162.989,278.437,161.007,279.126,160.297z"/>
		<path fill-rule="evenodd" fill="#5FB8AB" d="M292.63,157.596c-0.197,2.103,0.396,4.997-0.299,6.602
			C292.526,162.094,291.934,159.199,292.63,157.596z"/>
		<path fill-rule="evenodd" fill="#676D6A" d="M295.931,160.297c-0.19,1.108,0.389,2.988-0.3,3.6
			C295.823,162.788,295.242,160.907,295.931,160.297z"/>
		<path fill-rule="evenodd" fill="#5FB8AB" d="M55.569,161.497c0.692,0.907,0.105,3.094,0.3,4.5
			C55.177,165.089,55.764,162.903,55.569,161.497z"/>
		<path fill-rule="evenodd" fill="#5FB8AB" d="M289.329,164.498c-0.192,1.207,0.391,3.189-0.301,3.9
			C289.222,167.19,288.639,165.208,289.329,164.498z"/>
		<path fill-rule="evenodd" fill="#D89F7F" d="M75.675,166.598c0.686,0.514,0.109,2.29,0.3,3.301
			C75.287,169.386,75.865,167.607,75.675,166.598z"/>
		<path fill-rule="evenodd" fill="#5FB8AB" d="M59.47,167.498c0.688,0.513,0.111,2.291,0.3,3.301
			C59.083,170.285,59.661,168.509,59.47,167.498z"/>
		<path fill-rule="evenodd" fill="#5FB8AB" d="M55.87,167.498c0.691,0.809,0.105,2.895,0.299,4.201
			C55.478,170.89,56.062,168.806,55.87,167.498z"/>
		<path fill-rule="evenodd" fill="#676D6A" d="M52.869,168.398c0.69,0.71,0.107,2.693,0.301,3.9
			C52.478,171.589,53.061,169.606,52.869,168.398z"/>
		<path fill-rule="evenodd" fill="#5FB8AB" d="M289.028,169.599c-0.193,1.208,0.391,3.19-0.3,3.9
			C288.922,172.292,288.339,170.309,289.028,169.599z"/>
		<path fill-rule="evenodd" fill="#F47F4A" d="M63.372,179.801c1.419-6.388-1.653-11.952-1.2-19.204c0-1.801,0-3.602,0-5.401
			c0.596-3.712-1.292-6.958-0.601-11.704c0.499-1.505,0.499-5.094,0-6.601c-0.323-1.778-0.864-3.338-0.899-5.401
			c0-1.602,0-3.201,0-4.802c1.055-4.663-0.981-7.209-0.901-11.703c-0.197-2.103,0.396-4.997-0.3-6.602
			c-0.369-1.731-0.494-3.707-0.899-5.401c1.568-0.833,2.943-1.858,4.801-2.4c1.568-0.533,2.968-1.232,4.2-2.101
			c1.751-0.889,3.958-2.792,6.003-2.401c-0.124,0.724,0.547,0.652,0.299,1.501c0,1.301,0,2.602,0,3.901c0,0.601,0,1.2,0,1.801
			c0.188,0.911-0.383,2.584,0.3,3c0.356,1.945,0.648,3.955,0.601,6.302c0.191,1.109-0.389,2.989,0.299,3.601
			c0,7.803,0,15.604,0,23.406c0,1.9,0,3.802,0,5.702c0.2,2.502-0.396,5.799,0.3,7.802c0,0.999,0,2,0,3c0,1.001,0,2.001,0,3.001
			c0.197,1.704-0.393,4.196,0.302,5.402c0,0.699,0,1.4,0,2.1c0.189,1.01-0.388,2.788,0.3,3.301c0.452,3.148,0.971,6.229,0.899,9.902
			c0.197,2.303-0.397,5.397,0.3,7.202c0,1.4,0,2.8,0,4.201c-0.698,2.302-0.103,5.899-0.3,8.702c0,0.6,0,1.2,0,1.801
			c-0.693,1.008-0.105,3.296-0.3,4.801c0,0.501,0,0.999,0,1.501c-0.692,0.907-0.105,3.095-0.3,4.5c0,0.399,0,0.802,0,1.201
			c-0.692,1.007-0.105,3.296-0.299,4.8c0,0.601,0,1.202,0,1.803c-0.692,0.808-0.108,2.894-0.3,4.199c0,1.101,0,2.201,0,3.301
			c0,0.502,0,1.001,0,1.502c-4.074,2.828-8.207,5.597-12.904,7.801c-0.201,0-0.399,0-0.6,0c0-3.001,0-6.001,0-9.002
			c0-2.7,0-5.401,0-8.102c0-1.101,0-2.201,0-3.301c0.695-1.306,0.103-3.896,0.3-5.701c0-0.401,0-0.801,0-1.201
			c0.684-0.415,0.111-2.089,0.299-3.001c0.14-4.261,0.827-7.975,1.2-12.003c0.5-1.406,0.5-4.895,0-6.303
			c-0.226-1.272-0.701-2.298-0.6-3.898C63.372,183.002,63.372,181.401,63.372,179.801z"/>
		<path fill-rule="evenodd" fill="#D89F7F" d="M284.528,174.1c-0.193,1.208,0.39,3.191-0.3,3.901
			C284.421,176.793,283.838,174.81,284.528,174.1z"/>
		<path fill-rule="evenodd" fill="#5FB8AB" d="M288.729,174.7c-0.192,1.307,0.392,3.393-0.3,4.2
			C288.622,177.594,288.037,175.509,288.729,174.7z"/>
		<path fill-rule="evenodd" fill="#5FB8AB" d="M288.429,180.101c-0.194,1.307,0.391,3.393-0.3,4.202
			C288.323,182.996,287.736,180.91,288.429,180.101z"/>
		<path fill-rule="evenodd" fill="#676D6A" d="M53.169,181.901c-0.191,1.011,0.387,2.787-0.301,3.301
			C53.059,184.192,52.481,182.414,53.169,181.901z"/>
		<path fill-rule="evenodd" fill="#D89F7F" d="M284.229,181.901c-0.197,2.104,0.396,4.997-0.302,6.601
			C284.125,186.4,283.532,183.506,284.229,181.901z"/>
		<path fill-rule="evenodd" fill="#5FB8AB" d="M59.77,189.103c0.688,0.515,0.111,2.291,0.3,3.302
			C59.383,191.89,59.96,190.113,59.77,189.103z"/>
		<path fill-rule="evenodd" fill="#D89F7F" d="M283.927,190.004c-0.192,1.306,0.394,3.392-0.298,4.199
			C283.821,192.897,283.235,190.813,283.927,190.004z"/>
		<path fill-rule="evenodd" fill="#5FB8AB" d="M60.07,193.305c0.685,0.415,0.112,2.089,0.3,3.001
			C59.686,195.889,60.259,194.216,60.07,193.305z"/>
		<path fill-rule="evenodd" fill="#D89F7F" d="M77.175,191.204c-0.2,2.802,0.398,6.399-0.3,8.702
			C77.072,197.104,76.477,193.506,77.175,191.204z"/>
		<path fill-rule="evenodd" fill="#D89F7F" d="M283.629,195.405c-0.192,1.109,0.387,2.989-0.302,3.601
			C283.52,197.896,282.939,196.016,283.629,195.405z"/>
		<path fill-rule="evenodd" fill="#676D6A" d="M53.769,195.405c0.692,0.809,0.107,2.894,0.3,4.202
			C53.378,198.798,53.962,196.712,53.769,195.405z"/>
		<path fill-rule="evenodd" fill="#676D6A" d="M80.175,198.405c0.188-0.911-0.383-2.584,0.3-3c0,1,0,2,0,3
			C80.376,198.405,80.275,198.405,80.175,198.405z"/>
		<path fill-rule="evenodd" fill="#D89F7F" d="M283.327,199.906c-0.19,1.108,0.39,2.989-0.3,3.6
			C283.219,202.399,282.639,200.519,283.327,199.906z"/>
		<path fill-rule="evenodd" fill="#D89F7F" d="M76.875,201.707c-0.196,1.505,0.394,3.793-0.3,4.801
			C76.77,205.003,76.182,202.715,76.875,201.707z"/>
		<path fill-rule="evenodd" fill="#D89F7F" d="M283.027,204.708c-0.191,1.108,0.388,2.989-0.301,3.601
			C282.919,207.199,282.339,205.318,283.027,204.708z"/>
		<path fill-rule="evenodd" fill="#D89F7F" d="M62.771,206.808c-0.188,0.912,0.384,2.586-0.299,3.001
			C62.66,208.896,62.087,207.225,62.771,206.808z"/>
		<path fill-rule="evenodd" fill="#5FB8AB" d="M287.828,208.009c0.229,1.629-0.475,2.325-0.299,3.9
			c-0.698-2.003-0.103-5.299-0.3-7.803c0.1,0,0.199,0,0.3,0C287.722,205.315,287.139,207.299,287.828,208.009z"/>
		<path fill-rule="evenodd" fill="#D89F7F" d="M76.575,208.009c-0.195,1.405,0.394,3.593-0.3,4.5
			C76.469,211.104,75.882,208.916,76.575,208.009z"/>
		<path fill-rule="evenodd" fill="#D89F7F" d="M282.727,209.508c-0.192,1.309,0.392,3.393-0.299,4.202
			C282.621,212.403,282.035,210.317,282.727,209.508z"/>
		<path fill-rule="evenodd" fill="#5FB8AB" d="M286.929,215.81c0.178,0.622-0.372,1.973,0.301,2.102c0,0.199,0,0.4,0,0.599
			C286.373,218.546,286.401,216.163,286.929,215.81z"/>
		<path fill-rule="evenodd" fill="#00AC91" d="M286.929,215.81c-0.146-0.946,0.541-1.059,0.301-2.1c1.114,0.479,0.674,3.619,0,4.201
			C286.557,217.782,287.106,216.432,286.929,215.81z"/>
		<path fill-rule="evenodd" fill="#D89F7F" d="M76.274,213.71c-0.195,1.504,0.395,3.795-0.299,4.8
			C76.169,217.006,75.582,214.717,76.274,213.71z"/>
		<path fill-rule="evenodd" fill="#D89F7F" d="M282.428,214.91c-0.197,2.004,0.396,4.796-0.301,6.302
			C282.324,219.208,281.731,216.415,282.428,214.91z"/>
		<path fill-rule="evenodd" fill="#00AC91" d="M286.929,223.013c1.44,1.517,0.146,5.021,0.301,7.201
			C285.646,228.543,286.67,225.348,286.929,223.013z"/>
		<path fill-rule="evenodd" fill="#D89F7F" d="M282.127,224.211c0.688,0.614,0.109,2.493,0.301,3.602
			C281.739,227.202,282.319,225.321,282.127,224.211z"/>
		<path fill-rule="evenodd" fill="#D89F7F" d="M103.881,226.612c0.42-0.497,2.882-0.497,3.302,0
			C106.083,226.612,104.983,226.612,103.881,226.612z"/>
		<path fill-rule="evenodd" fill="#221F1F" d="M113.784,84.677c0.3,0,0.601,0,0.901,0c5.201,0,10.401,0,15.604,0
			c1.5,0,3.001,0,4.501,0c3.815,0.143,7.703,1.095,11.104,0c0.999,0,2,0,3,0c2.069,1.547,4.517,1.133,6.903,1.801
			c3.896,1.09,7.119,3.791,11.102,3.601c1.549,1.053,2.391,2.811,3.301,4.502c2.254,1.225,5.528-5.497,9.003-6.003
			c2.721-0.681,5.421-1.38,8.401-1.8c0.912-0.188,2.585,0.384,3.001-0.3c0.3,0,0.601,0,0.9,0c1.904-0.197,4.597,0.396,6.002-0.3
			c1.101,0,2.2,0,3.301,0c1.8,0,3.601,0,5.401,0c0.71,0.69,2.692,0.106,3.9,0.3c0.4,0,0.801,0,1.2,0
			c0.81,0.691,2.896,0.105,4.202,0.3c1.5,0,3.001,0,4.501,0s3.001,0,4.501,0c1.9,0,3.802,0,5.7,0c2.404-0.197,5.6,0.397,7.502-0.3
			c1.201,0,2.401,0,3.602,0c1.399,0,2.801,0,4.202,0c3.7,0,7.401,0,11.102,0c1.001,0,2.001,0,3.001,0c0.801,0,1.6,0,2.401,0
			c1.605,0.695,4.498,0.103,6.603,0.3c0.6,0,1.2,0,1.8,0c1.406,0.5,4.894,0.5,6.302,0c1.398,0.099,2.365-0.234,3.301-0.6
			c3.458-0.754,3.678,3.318,6.901,1.8c0.449-0.052,1.107,0.107,1.2-0.3c2.802-0.198,6.399,0.397,8.702-0.3c0.899,0,1.801,0,2.7,0
			c0.701,0.799,1.872,1.129,2.101,2.399c-1.165,1.136-2.231,2.37-1.799,5.103c-0.321,2.381-0.903,4.5-0.902,7.202
			c-0.877,2.121,0.273,6.273-0.6,8.401c-1.533-0.134-0.677,2.123-0.899,3.301c0,0.2,0,0.4,0,0.601
			c-0.692,0.809-0.107,2.895-0.301,4.201c0,0.5,0,1,0,1.5c-0.696,1.604-0.102,4.498-0.3,6.602c0,0.9,0,1.8,0,2.701
			c-0.697,1.903-0.103,5.099-0.301,7.502c0,1.3,0,2.601,0,3.9c0,1.101,0,2.201,0,3.301c-0.697,2.203-0.101,5.699-0.3,8.402
			c0,0.601,0,1.2,0,1.801c-0.692,1.007-0.104,3.296-0.3,4.801c0,0.4,0,0.8,0,1.201c-0.688,0.61-0.107,2.491-0.3,3.6
			c0,0.301,0,0.602,0,0.9c-0.498,0.911-0.498,3.891,0,4.802c-0.948,6.71-1.846,11.812-3.001,18.005
			c-0.499,1.405-0.499,4.895,0,6.301c0,1.6,0,3.201,0,4.802c-0.513,1.987-1.138,3.863-1.201,6.302
			c-0.684,0.415-0.11,2.089-0.298,3.001c0,1,0,2,0,3.001c0,1.1,0,2.2,0,3.301c0,1.6,0,3.199,0,4.8c0,4.802,0,9.604,0,14.403
			c-0.399,3.704-0.978,7.227-1.802,10.505c-0.789,0.809-0.718,2.482-2.1,2.7c-1.74,0.261-3.663,0.338-5.402,0.6
			c-0.612-0.688-2.492-0.108-3.601-0.3c-4.673-1.494-9.05-0.225-13.804,0c-2.623,0.122-5.445-1.019-8.103-0.9
			c-2.631,0.117-5.117,1.844-7.801,1.5c-1.716-0.907-4.171,0.026-5.103,0.899c-0.099,0-0.199,0-0.3,0c-1.801,0-3.601,0-5.402,0
			c-0.298,0-0.598,0-0.898,0c-1.208-0.498-4.495-0.498-5.701,0c-2.554,0.25-4.093,1.51-7.203,1.202c-1.6,0-3.2,0-4.802,0
			c-2.494-0.095-3.363,1.437-6.302,0.899c-0.398,0-0.799,0-1.2,0c-2.883,1.317-8.401,0-11.701,0.899c-0.301,0-0.601,0-0.901,0
			c-1.108,0.192-2.989-0.388-3.601,0.301c-0.2,0-0.4,0-0.6,0c-0.913,0.188-2.585-0.385-3.001,0.3c-0.301,0-0.601,0-0.901,0
			c-0.911,0.188-2.584-0.384-3,0.301c-0.301,0-0.6,0-0.9,0c-1.605,0.194-3.994-0.395-5.102,0.3c-1.301,0-2.6,0-3.9,0
			c-0.05-0.351-0.548-0.254-0.9-0.3c-1.145,3.657-1.937,7.666-2.701,11.703c-2.554,2.165-4.951,0.381-7.502-0.602
			c-1.55-1.285-2.858,0.321-5.101,0c0-0.099,0-0.198,0-0.3c-1.092-0.108-1.692-0.708-1.801-1.8c0.458-1.642,1.966-2.234,2.401-3.901
			c0-0.2,0-0.399,0-0.6c-13.551-0.541-31.214-0.3-46.213-0.3c-4.238,0-12.302,1.334-15.604,0c-0.575-0.233-0.8-3.142-2.401-2.102
			c-0.017,0.385-0.384,0.416-0.3,0.901c-1.21,2.298-1.148-2.316-3.6-0.601c-0.416-0.684-2.09-0.112-3.001-0.301
			c-1.592-0.308-3.133-0.667-5.102-0.6c-1.506-0.5-5.094-0.5-6.601,0c-3.319-0.082-5.296-1.505-9.002-1.2
			c-0.711-0.69-2.694-0.106-3.902-0.3c-0.5,0-0.999,0-1.5,0c-1.105-0.695-3.496-0.104-5.101-0.301
			c-2.194-0.308-4.436-0.564-6.601-0.9c0.234-1.334-0.401-1.8-0.3-3.001c0-5.101,0-10.201,0-15.305c0-0.499,0-0.999,0-1.499
			c0.695-1.206,0.103-3.696,0.3-5.4c0-0.401,0-0.801,0-1.201c0.693-1.007,0.104-3.297,0.299-4.801c0-0.5,0-1,0-1.502
			c0.696-1.404,0.103-4.096,0.3-6.001c0-0.9,0-1.8,0-2.7c0.499-1.904,0.499-5.897,0-7.802c0-0.8,0-1.601,0-2.399
			c-0.193-1.309,0.392-3.394-0.3-4.202c0.151-3.852-0.807-6.595-0.9-10.203c0.688-0.514,0.11-2.29,0.301-3.301
			c0-0.399,0-0.801,0-1.2c0.499-1.605,0.499-5.296,0-6.901c0-0.5,0-1,0-1.501c-0.194-1.207,0.389-3.19-0.301-3.9
			c-0.521-11.581-2.463-21.743-4.202-32.108c0-4.101,0-8.202,0-12.303c-0.195-1.506,0.395-3.795-0.299-4.802c0-0.7,0-1.4,0-2.1
			c0-4.502,0-9.003,0-13.505c0-0.5,0-1,0-1.499c0.101,0,0.2,0,0.299,0c0.303-2.2-0.665-5.666,0.601-6.902
			c3.534-0.568,7.125-1.077,10.803-1.501c1.208-0.192,3.192,0.391,3.901-0.3c0.5,0,1.001,0,1.5,0c1.109-0.191,2.99,0.389,3.602-0.3
			c0.797-0.004,1.714,0.113,2.1-0.3c2.844-0.559,3.479-3.323,6.002-4.202c2.657-0.543,5.547-0.854,8.402-1.199
			c1.306-0.193,3.392,0.391,4.201-0.3c0.4,0,0.801,0,1.202,0c1.009-0.191,2.786,0.386,3.3-0.301
			c5.803-0.327,10.282-0.607,16.204-1.801C111.494,84.787,113.27,85.363,113.784,84.677z M277.026,228.113
			c-2.08,4.177,1.65,6.94,4.801,7.802c0.709-2.192,0.646-5.155,0.601-8.103c-0.191-1.108,0.388-2.987-0.301-3.602
			c0-0.999,0-1.999,0-2.999c0.696-1.506,0.104-4.298,0.301-6.302c0-0.401,0-0.801,0-1.2c0.69-0.81,0.106-2.894,0.299-4.202
			c0-0.399,0-0.799,0-1.199c0.688-0.611,0.109-2.492,0.301-3.601c0-0.4,0-0.801,0-1.202c0.689-0.61,0.109-2.491,0.3-3.6
			c0-0.299,0-0.6,0-0.9c0.688-0.611,0.109-2.491,0.302-3.601c0-0.4,0-0.8,0-1.202c0.691-0.808,0.105-2.894,0.298-4.199
			c0-0.5,0-1,0-1.502c0.698-1.604,0.104-4.497,0.302-6.601c0-1.301,0-2.6,0-3.9c0.689-0.71,0.106-2.693,0.3-3.901
			c0.478-3.923,1.082-7.721,1.2-12.003c0.687-0.514,0.109-2.291,0.301-3.301c-0.311-5.111,0.996-8.606,0.899-13.503
			c0.689-0.711,0.106-2.694,0.301-3.901c0-0.4,0-0.801,0-1.2c0.686-0.515,0.109-2.29,0.3-3.301c0-0.301,0-0.601,0-0.901
			c0.692-1.007,0.104-3.295,0.299-4.801c0-1.301,0-2.601,0-3.901c0.695-1.106,0.105-3.496,0.301-5.101c0-0.3,0-0.601,0-0.9
			c0.686-0.513,0.109-2.291,0.3-3.301c0-0.3,0-0.6,0-0.899c0.684-0.417,0.111-2.09,0.3-3.002c0-0.3,0-0.6,0-0.9
			c0.69-0.71,0.106-2.693,0.3-3.9c0-0.501,0-1,0-1.5c0.5-1.308,0.5-4.694,0-6.002c0.193-2.694-0.378-4.622-0.6-6.901
			c-1.703-1.097-3.016-2.586-5.102-3.302c-0.187-0.64-1.847-0.28-2.101,0c0,0.301,0,0.601,0,0.9c-0.607,1.394-0.661,3.34-0.6,5.401
			c-0.499,1.606-0.499,5.296,0,6.901c0,0.801,0,1.602,0,2.401c0,2.501,0,5.002,0,7.502c0,0.5,0,1.001,0,1.5
			c-0.7,3.603-0.102,8.502-0.301,12.604c0,0.5,0,1,0,1.501c-0.689,0.71-0.106,2.692-0.299,3.9c-0.322,2.479-0.604,4.998-0.601,7.802
			c-0.499,1.806-0.499,5.697,0,7.502c0,0.3,0,0.601,0,0.9c0,1.301,0,2.601,0,3.901c0,0.399,0,0.8,0,1.2
			c-0.688,0.611-0.108,2.492-0.301,3.601c0,0.4,0,0.8,0,1.201c-0.689,0.71-0.107,2.692-0.3,3.9c0,0.4,0,0.801,0,1.2
			c-0.692,1.007-0.105,3.296-0.299,4.802c0,0.6,0,1.199,0,1.801c-0.7,3.001-0.103,7.299-0.301,10.803
			c-0.465,0.435-0.63,1.169-0.601,2.1c-0.499,1.108-0.499,4.292,0,5.402c0,0.399,0,0.799,0,1.199c0,1.3,0,2.601,0,3.901
			c-0.289,2.211-0.639,4.362-0.6,6.901c-0.501,3.703-0.501,9.501,0,13.203c0,0.501,0,1.001,0,1.501c0,1.6,0,3.201,0,4.801
			c0,1.101,0,2.201,0,3.301C277.026,226.112,277.026,227.113,277.026,228.113z M130.889,89.178c-4.091,0.528-8.006-1.006-12.004-1.2
			c-6.698-0.325-13.839,2.086-20.705,2.701c-7.227,0.646-14.131,1.553-20.104,3.601c-1.71,7.768,0.369,16.253,0.6,24.007
			c0,1.7,0,3.4,0,5.101c-1.192,20.363,0.93,39.561,1.8,58.815c0,2.101,0,4.2,0,6.3c0,2.301,0,4.603,0,6.903
			c-0.683,0.416-0.112,2.089-0.3,3c0,1.001,0,2.001,0,3.001c0.043,9.046,0.039,18.042-0.299,26.707
			c6.359-1.426,12.935-3.095,19.805-4.201c6.343-1.021,15.156-2.934,21.904-2.4c1.962,0.154,3.847,1.249,5.702,1.501
			c1.825,0.247,3.566-0.005,5.401,0.3c11.596,1.92,20.946,7.519,31.508,10.502c1.656,0.469,2.793,1.341,4.501,1.801
			c0.439-5.731,2.031-11.663,3.301-17.404c4.217-19.06,1.322-40.407,0.6-60.916c0-1.399,0-2.8,0-4.2
			c-0.195-1.804,0.396-4.396-0.299-5.702c0.644-19.647-2.292-35.718-6.302-50.713c-1.681-1.426-3.272-2.563-5.401-3.601
			c-2.452-1.194-4.874-1.037-7.502-1.801c-1.563-0.453-2.807-1.815-4.501-2.101c-2.789-0.469-5.456,0.347-8.403,0
			C137.091,89.178,133.989,89.178,130.889,89.178z M259.621,89.777c-7.161-0.67-13.947,0.018-20.404,0.301
			c-3.004,0.132-6.451,0.752-9.302,0.601c-1.486-0.079-2.774-0.843-4.202-0.901c-12.073-0.488-26.246-0.349-36.61,0.901
			c-3.053,0.368-6.168,0.358-8.401,1.2c-2.842,1.07-9.22,6.337-9.602,8.702c-0.378,2.328,1.612,8.239,2.4,11.702
			c0.927,4.08,1.971,8.1,2.701,11.403c1.609,7.297,3.867,17.093,4.201,24.307c0.202,4.368-0.43,8.368,0,12.604
			c1.161,11.468,3.615,24.16,3.601,36.008c-0.002,2.01-0.818,4.063-0.899,6.002c-0.155,3.666-0.081,7.274-0.302,10.803
			c-0.428,6.91-2.381,11.746-1.2,19.205c13.855-5.045,33.276-5.656,51.915-6.301c6.345-0.22,12.761-1.326,18.605-0.9
			c7.226,0.526,13.302,3.355,19.804,3.602c0.475-3.627,1.621-6.582,1.5-10.804c0.499-0.714,0.499-3.488,0-4.201
			c-1.482-17.398,0.17-32.473,0.9-49.813c0.685-0.416,0.113-2.089,0.3-3.001c0.084-14.419,2.419-26.588,2.401-41.11
			c0.697-1.804,0.103-4.898,0.301-7.202c0-1,0-2,0-3c-0.198-2.204,0.396-5.198-0.301-6.902c0.061-4.461-0.278-8.523-0.899-12.303
			c-1.917-0.686-4.239-0.964-6.902-0.901c-1.306-0.694-3.898-0.104-5.701-0.3C262.315,89.671,260.331,89.088,259.621,89.777z
			 M295.931,93.679c0.178-1.277-0.099-2.101-1.5-1.8c-1.235,0.146,0.928,1.521,0.301,3.001c-2.169,2.022-2.137,7.542-1.501,11.402
			c0,1.2,0,2.4,0,3.602c-0.654,2.446-1.523,4.679-1.201,8.102c-0.689,0.809-0.105,2.895-0.299,4.201c0,1.7,0,3.4,0,5.101
			c-0.167,3.335-1.146,5.855-0.901,9.604c-0.693,1.007-0.104,3.295-0.299,4.801c0,0.501,0,1,0,1.5
			c-0.692,0.81-0.107,2.895-0.302,4.201c0,0.5,0,1.001,0,1.5c-0.691,0.81-0.105,2.896-0.299,4.202c0,0.399,0,0.8,0,1.2
			c-0.691,0.71-0.107,2.693-0.301,3.9c0,0.4,0,0.801,0,1.2c-0.69,0.71-0.106,2.694-0.3,3.901c0,0.4,0,0.8,0,1.201
			c-0.69,0.71-0.107,2.692-0.301,3.9c0,0.399,0,0.8,0,1.2c-0.689,0.71-0.106,2.693-0.3,3.9c0,0.401,0,0.801,0,1.201
			c-0.691,0.809-0.106,2.894-0.3,4.2c0,0.401,0,0.801,0,1.2c-0.692,0.81-0.105,2.896-0.3,4.202c0,0.6,0,1.199,0,1.8
			c-0.692,0.908-0.105,3.095-0.301,4.502c0,0.7,0,1.4,0,2.1c-0.694,1.306-0.103,3.897-0.299,5.701c0,0.901-0.001,1.801,0,2.701
			c-0.685,0.416-0.112,2.088-0.3,3c0.197,2.504-0.398,5.8,0.3,7.803c-0.176-1.575,0.528-2.271,0.299-3.9
			c1.558-14.547,3.518-28.692,4.503-43.812c0.694-1.604,0.102-4.499,0.299-6.602c0-2.701,0-5.401,0-8.103
			c0.698-2.003,0.102-5.299,0.301-7.802c0-1.8,0-3.601,0-5.401c0-0.601,0-1.2,0-1.801c0.689-0.71,0.106-2.693,0.3-3.9
			c0-0.5,0-1.001,0-1.501c0.684-0.416,0.11-2.089,0.301-3c0-0.4,0-0.801,0-1.2c0.683-0.416,0.11-2.089,0.299-3.001
			c0.594-6.308,1.292-12.513,1.5-19.205c0.685-0.417,0.112-2.088,0.301-3.001c0-0.5,0-1.001,0-1.501
			C296.323,97.272,295.736,95.085,295.931,93.679z M73.873,97.58c0.248-0.849-0.422-0.777-0.299-1.501
			c-2.045-0.391-4.252,1.513-6.003,2.401c-1.568,0.532-2.968,1.231-4.2,2.101c-1.858,0.542-3.233,1.567-4.801,2.4
			c0.406,1.694,0.53,3.67,0.899,5.401c0.197,2.104-0.396,4.997,0.3,6.602c-0.08,4.494,1.956,7.04,0.901,11.703
			c-0.499,0.911-0.499,3.891,0,4.802c0.036,2.063,0.576,3.623,0.899,5.401c0,2.199,0,4.401,0,6.601
			c-0.691,4.746,1.196,7.992,0.601,11.704c-0.5,1.108-0.5,4.292,0,5.401c-0.453,7.252,2.619,12.816,1.2,19.204
			c-0.499,0.911-0.499,3.892,0,4.803c-0.102,1.601,0.374,2.626,0.6,3.898c0,2.103,0,4.202,0,6.303
			c-0.373,4.028-1.06,7.742-1.2,12.003c-0.684,0.417-0.111,2.089-0.299,3.001c0,0.4,0,0.8,0,1.201
			c-0.696,1.304-0.105,3.896-0.3,5.701c0,1.1,0,2.2,0,3.301c-0.698,2.103-0.103,5.499-0.3,8.102c0.023,1.276-0.029,3.254,0,5.102
			c0.027,1.65-0.669,4.517,0.9,3.9c4.697-2.204,8.831-4.973,12.904-7.801c0-0.501,0-1,0-1.502c0.686-0.514,0.109-2.29,0.3-3.301
			c0-1.399,0-2.8,0-4.199c0-0.601,0-1.202,0-1.803c0.693-1.005,0.104-3.296,0.299-4.8c0-0.399,0-0.802,0-1.201
			c0.694-0.907,0.105-3.095,0.3-4.5c0-0.502,0-1,0-1.501c0.694-1.008,0.104-3.296,0.3-4.801c0-0.601,0-1.201,0-1.801
			c0.699-2.303,0.101-5.9,0.3-8.702c0-1.401,0-2.801,0-4.201c-0.198-2.303,0.396-5.398-0.3-7.202
			c0.071-3.673-0.448-6.754-0.899-9.902c-0.191-1.011,0.385-2.787-0.3-3.301c0-0.699,0-1.4,0-2.1c0-1.801,0-3.602,0-5.402
			c-0.188-0.912,0.384-2.584-0.302-3.001c0-1,0-2.001,0-3c0-2.601,0-5.202,0-7.802c-0.196-1.805,0.396-4.396-0.3-5.702
			c0-7.802,0-15.604,0-23.406c-0.189-1.108,0.391-2.988-0.299-3.601c0.047-2.347-0.244-4.356-0.601-6.302
			c-0.187-0.912,0.386-2.585-0.3-3c0-0.601,0-1.2,0-1.801C74.372,100.866,74.372,98.195,73.873,97.58z M57.07,114.984
			c1.722-6.168-4.62-11.026-3.001-14.403c1.293-2.698,6.813-0.672,7.802-4.201c-2.722,0.979-5.895,1.508-9.002,2.101
			c-0.571,2.229-1.317,4.284-1.2,7.201c-0.5,2.105-0.5,6.299,0,8.402c0,0.4,0,0.8,0,1.201c0.192,1.207-0.391,3.19,0.3,3.9
			c0.182,2.784-0.235,4.967-0.3,7.502c-0.499,0.714-0.499,3.487,0,4.201c0.201,2.399,1.113,4.087,1.5,6.302
			c0.189,1.01-0.388,2.787,0.3,3.301c0.079,5.922,1.494,10.509,1.799,16.204c0.192,1.109-0.388,2.989,0.3,3.602
			c0,0.399,0,0.799,0,1.2c0.195,1.406-0.392,3.592,0.3,4.5c0,0.501,0,1.001,0,1.501c0.192,1.308-0.392,3.392,0.299,4.201
			c-0.192,5.955,1.565,11.01,0.601,16.803c-0.499,1.209-0.499,4.494,0,5.701c0.411,6.794,1.657,12.749,2.1,19.507
			c0.269-3.917,0.755-8.103,1.501-12.904c0.497-0.323,0.497-2.676,0-3.001c0-0.499,0-1,0-1.499c-0.188-0.912,0.385-2.586-0.3-3.001
			c0-0.3,0-0.601,0-0.9c-0.189-1.011,0.387-2.787-0.3-3.302c0-1.399,0-2.799,0-4.2c0.685-0.416,0.112-2.089,0.3-3.001
			c-0.198-3.002,0.398-6.799-0.3-9.302c0-0.6,0-1.201,0-1.801c-0.189-1.01,0.387-2.788-0.3-3.301c0.113-1.813-0.084-3.316-0.3-4.801
			c-0.192-1.208,0.392-3.191-0.3-3.901c0-0.7,0-1.4,0-2.101c0-1.601,0-3.201,0-4.802c-0.188-1.01,0.387-2.786-0.299-3.301
			c0-1,0-2.001,0-3c-0.197-2.204,0.396-5.198-0.3-6.902c0-0.6,0-1.2,0-1.8c-0.191-1.109,0.388-2.989-0.301-3.602c0-0.5,0-1,0-1.5
			c-0.193-1.406,0.392-3.594-0.3-4.502c0-0.6,0-1.199,0-1.8c-0.196-1.805,0.396-4.396-0.299-5.702c0-0.5,0-0.999,0-1.499
			C57.181,117.275,57.756,115.498,57.07,114.984z M173.199,237.716c-1.297,4.901-2.749,8.063-4.8,13.803
			c-1.092,3.053-2.309,9.008,0.299,9.303c2.311,0.263,1.13-2.377,2.401-3.6c0.776-0.75,1.73,0.787,1.799-0.901
			c-0.2-2.199-1.69-3.111-2.4-4.802c1.537-1.641,3.61-2.896,4.501-4.8c1.239-2.652,0.569-6.762,1.801-10.202
			c0.458-1.283,1.747-2.155,2.1-3.302c1.391-4.519,0.102-11.297,0.601-18.005c0.365-4.918,1.242-10.029,1.501-14.704
			c0.304-5.494-0.913-8.898-1.2-13.202c-0.242-3.599,0.319-7.257,0-10.204c-0.237-2.175-1.388-4.042-1.501-6.001
			c-0.109-1.881,0.741-3.98,0.6-5.701c-0.127-1.563-1.243-3.225-1.499-5.101c-0.504-3.681,0.965-8.025-1.201-10.504
			c-1.849,10.614,2.188,20.975,1.801,31.509c-0.252,6.863,0.225,15.577-0.301,22.805c-0.719,9.886-4.95,18.75-4.501,28.508
			C172.7,233.623,172.7,236.706,173.199,237.716z M287.229,217.911c0.674-0.582,1.114-3.723,0-4.201
			c0.24,1.041-0.447,1.153-0.301,2.1c-0.527,0.354-0.556,2.736,0.301,2.7C287.229,218.312,287.229,218.11,287.229,217.911z
			 M286.929,219.712c-0.588,0.56-0.093,1.099,0,1.8C288.179,221.842,288.179,219.381,286.929,219.712z M57.969,232.314
			c0.675-3.229,0.904-8.156,0.301-11.703c-1.218,0.882-1.167,3.034-1.2,5.102c-0.498,0.813-0.498,3.688,0,4.501
			c-0.005,1.305-0.101,2.699,0.3,3.601c0.051,0.449-0.107,1.107,0.299,1.201C58.172,234.517,57.908,233.253,57.969,232.314z
			 M287.229,230.214c-0.154-2.181,1.14-5.685-0.301-7.201C286.67,225.348,285.646,228.543,287.229,230.214z M117.085,225.112
			c-3.627,0.175-5.896,1.707-9.902,1.5c-0.42-0.497-2.882-0.497-3.302,0c-7.348,2.756-18.453,1.753-23.706,6.603
			c-0.614-0.497-3.286-0.497-3.9,0c-2.336,0.368-5.116,1.883-5.102,3.601c2.302,0,4.602,0,6.902,0
			c5.286,0.415,10.101,1.303,15.604,1.501c0.514,0.687,2.291,0.11,3.301,0.3c0.6,0,1.2,0,1.801,0c0.71,0.69,2.693,0.107,3.9,0.3
			c2.202,0,4.402,0,6.603,0c1.805-0.197,4.396,0.396,5.703-0.3c1.699,0,3.4,0,5.099,0c2.801,0,5.602,0,8.403,0c1,0,2,0,3.001,0
			c1.006,0.693,3.296,0.105,4.8,0.3c0.3,0,0.601,0,0.901,0c0.416,0.685,2.088,0.112,3,0.299c3.169,0.435,6.111,1.093,9.603,1.202
			c1.408,0.498,4.895,0.498,6.302,0c0.599,0,1.2,0,1.799,0c0-0.501,0-1.001,0-1.501c-0.188-1.01,0.387-2.788-0.3-3.301
			c-11.177-4.526-22.111-9.297-36.609-10.503C120.371,224.613,117.701,224.613,117.085,225.112z M243.117,229.015
			c-5.051-0.251-7.901,1.699-13.202,1.199c-2.305-0.5-6.699-0.5-9.004,0c-0.8,0-1.601,0-2.399,0c-1.406,0.195-3.594-0.393-4.502,0.3
			c-0.301,0-0.601,0-0.9,0c-0.911,0.188-2.585-0.385-3.001,0.3c-8.857,0.545-16.445,2.358-23.706,4.503
			c0.059,1.843,0.746,3.054,0.601,5.101c3.013,0.388,5.436,1.366,9.003,1.199c2.402,0.501,6.898,0.501,9.301,0
			c0.301,0,0.601,0,0.901,0c0.912-0.188,2.585,0.385,3.001-0.299c6.21-0.292,11.799-1.204,17.704-1.802
			c1.011-0.188,2.787,0.387,3.3-0.301c0.4,0,0.802,0,1.201,0c1.406-0.193,3.593,0.394,4.501-0.299c0.4,0,0.801,0,1.202,0
			c1.306-0.193,3.391,0.391,4.199-0.3c0.4,0,0.802,0,1.201,0c1.307-0.193,3.393,0.391,4.201-0.3c0.399,0,0.8,0,1.2,0
			c1.406-0.195,3.594,0.393,4.502-0.3c0.499,0,0.999,0,1.499,0c1.704-0.196,4.194,0.395,5.401-0.301c0.701,0,1.4,0,2.1,0
			c1.802,0,3.603,0,5.402,0c1.407-0.194,3.594,0.393,4.501-0.3c1.601,0,3.202,0,4.803,0c-0.341-1.36-2.26-1.142-3.602-1.501
			c-0.016-0.986-0.526-1.475-1.201-1.801c-6.238-2.563-12.615-4.988-21.305-5.1C248.412,228.514,244.723,228.514,243.117,229.015z
			 M183.403,239.516c0.076-1.176-0.293-1.907-0.901-2.4c-2.775,1.526-3.355,5.246-3.9,9.003c1.205,0.295,2.633,0.369,4.199,0.3
			c0.269-0.732,0.7-1.301,0.603-2.399C183.9,243.205,183.9,240.327,183.403,239.516z M77.476,241.317
			c-6.708,0.193-11.844,1.96-18.905,1.8c-1.339-0.562,0.197-3.999-1.2-4.501c-0.461,1.429-0.461,4.271,0,5.702
			c0.189,1.011-0.387,2.787,0.299,3.3c4.622,2.28,11.267,2.536,17.705,3.001c0.711,0.691,2.694,0.108,3.902,0.3
			c0.701,0,1.401,0,2.1,0c2.104,0.698,5.5,0.103,8.103,0.3c1,0,2,0,3.002,0c1.206,0.694,3.696,0.104,5.4,0.3
			c6.947,0.356,12.898,1.708,20.106,1.801c2.104,0.5,6.298,0.5,8.401,0c2.371,0.169,3.057-1.345,5.703-0.899
			c1.006,0.692,3.295,0.104,4.8,0.3c0.7,0,1.401,0,2.101,0c0.42,0.497,2.881,0.497,3.301,0c0.6,0,1.2,0,1.8,0
			c1.501,0,3.002,0,4.502,0c1.009-0.19,2.786,0.388,3.3-0.3c0.901,0,1.801,0,2.702,0c1.405-0.195,3.592,0.392,4.5-0.301
			c-0.635-0.571-3.163-1.834-2.1-5.101c-6.494-3.208-15.531-3.873-24.605-4.502c-1.209-0.499-4.494-0.499-5.703,0
			c-2.367,0.033-4.15,0.651-6.302,0.9c-1.1,0-2.2,0-3.3,0c-2.039-0.262-3.955-0.646-6.302-0.601c-1.803-0.697-4.898-0.102-7.202-0.3
			c-1.11,0.192-2.991-0.387-3.601,0.3c-1.501,0-3.002,0-4.502,0c-1.301,0-2.602,0-3.901,0c-3.045-0.254-5.247-1.354-8.403-1.499
			C81.968,240.818,78.684,240.818,77.476,241.317z M162.397,238.616c-2.583,1.991-2.187,9.06,0.9,9.602
			c3.473,0.61,4.323-3.66,4.501-7.501C165.714,240.301,163.875,239.638,162.397,238.616z M256.62,241.018
			c-16.249,0.854-31.336,2.871-47.111,4.199c-0.912,0.188-2.584-0.383-3.001,0.301c-0.3,0-0.601,0-0.9,0
			c-0.911,0.188-2.585-0.385-3.001,0.3c-0.399,0-0.799,0-1.2,0c-2.802,0.198-6.399-0.396-8.702,0.301
			c-2.147,0.353-5.201-0.199-5.4,2.1c4.715,1.014,9.064-0.936,14.103-0.6c1.407,0.499,4.895,0.499,6.302,0
			c3.776-0.024,6.396-1.205,9.902-1.5c2.204-0.197,5.197,0.396,6.902-0.301c1.2,0,2.4,0,3.601,0c1.011-0.19,2.788,0.387,3.301-0.3
			c4.907-0.193,9.396-0.808,14.104-1.199c0.911-0.188,2.585,0.383,3.001-0.3c0.399,0,0.799,0,1.2,0
			c1.207-0.194,3.189,0.389,3.901-0.301c0.6,0,1.2,0,1.8,0c1.3,0,2.6,0,3.9,0c1.109-0.19,2.989,0.39,3.602-0.301
			c2.101,0,4.2,0,6.302,0c0.911-0.188,2.584,0.385,3.001-0.3c1.334,0.235,1.8-0.399,2.999-0.301
			c-3.849-2.352-9.979-0.598-15.004-1.799C259.704,240.519,257.139,240.519,256.62,241.018z M281.827,243.117
			c1.827-0.074,4.374,0.572,3.901-1.8C283.966,242.687,282.958,241.875,281.827,243.117z"/>
		<path fill-rule="evenodd" fill="#D89F7F" d="M210.108,230.813c0.416-0.685,2.09-0.112,3.001-0.3
			C212.693,231.198,211.021,230.627,210.108,230.813z"/>
		<path fill-rule="evenodd" fill="#676D6A" d="M291.429,219.11c-0.198,4.703,0.399,10.203-0.298,14.403c0-4.8,0-9.602,0-14.403
			C291.229,219.11,291.329,219.11,291.429,219.11z"/>
		<path fill-rule="evenodd" fill="#00AC91" d="M57.37,233.814c-0.401-0.901-0.306-2.296-0.3-3.601c0-1.5,0-3,0-4.501
			c0.033-2.067-0.018-4.22,1.2-5.102c0.603,3.547,0.374,8.474-0.301,11.703C57.135,232.179,58.205,233.949,57.37,233.814z"/>
		<path fill-rule="evenodd" fill="#D89F7F" d="M157.595,235.615c0.687,0.513,0.112,2.291,0.3,3.301
			C157.209,238.403,157.786,236.626,157.595,235.615z"/>
		<path fill-rule="evenodd" fill="#D89F7F" d="M62.171,228.113c0,3.001,0,6.001,0,9.002c0.2,0,0.398,0,0.6,0
			c-1.569,0.616-0.873-2.25-0.9-3.9c-0.029-1.848,0.023-3.825,0-5.102C61.972,228.113,62.071,228.113,62.171,228.113z"/>
		<path fill-rule="evenodd" fill="#D89F7F" d="M253.92,238.017c1.207-0.695,3.697-0.104,5.401-0.301
			C258.114,238.411,255.624,237.82,253.92,238.017z"/>
		<path fill-rule="evenodd" fill="#D89F7F" d="M247.919,238.316c0.908-0.693,3.095-0.106,4.502-0.3
			C251.513,238.709,249.325,238.121,247.919,238.316z"/>
		<path fill-rule="evenodd" fill="#D89F7F" d="M93.679,238.316c1.01,0.188,2.787-0.387,3.301,0.3
			C95.969,238.427,94.193,239.003,93.679,238.316z"/>
		<path fill-rule="evenodd" fill="#D89F7F" d="M242.518,238.616c0.809-0.691,2.894-0.105,4.201-0.3
			C245.91,239.007,243.824,238.423,242.518,238.616z"/>
		<path fill-rule="evenodd" fill="#D89F7F" d="M131.489,238.616c1.505,0.194,3.795-0.394,4.8,0.3
			C134.785,238.722,132.495,239.31,131.489,238.616z"/>
		<path fill-rule="evenodd" fill="#D89F7F" d="M237.117,238.916c0.808-0.69,2.893-0.106,4.199-0.3
			C240.508,239.307,238.423,238.723,237.117,238.916z"/>
		<path fill-rule="evenodd" fill="#D89F7F" d="M137.19,238.916c0.913,0.188,2.586-0.384,3,0.299
			C139.278,239.028,137.606,239.601,137.19,238.916z"/>
		<path fill-rule="evenodd" fill="#00AC91" d="M167.798,240.717c-0.178,3.841-1.028,8.111-4.501,7.501
			c-3.086-0.542-3.483-7.61-0.9-9.602C163.875,239.638,165.714,240.301,167.798,240.717z"/>
		<path fill-rule="evenodd" fill="#D89F7F" d="M231.414,239.215c0.907-0.691,3.095-0.104,4.501-0.299
			C235.007,239.608,232.82,239.021,231.414,239.215z"/>
		<path fill-rule="evenodd" fill="#D89F7F" d="M226.913,239.516c0.514-0.686,2.291-0.109,3.3-0.301
			C229.7,239.902,227.924,239.327,226.913,239.516z"/>
		<path fill-rule="evenodd" fill="#D89F7F" d="M206.208,241.616c0.415-0.683,2.088-0.111,3.001-0.299
			C208.793,242.001,207.12,241.429,206.208,241.616z"/>
		<path fill-rule="evenodd" fill="#00AC91" d="M260.221,241.018c5.025,1.201,11.155-0.553,15.004,1.799
			c-1.199-0.099-1.665,0.536-2.999,0.301c-0.913,0.188-2.585-0.385-3.001,0.3c-2.102,0-4.201,0-6.302,0c-1.2,0-2.4,0-3.602,0
			c-1.208,0.192-3.19-0.389-3.9,0.301c-0.6,0-1.2,0-1.8,0c-1.208,0.192-3.191-0.391-3.901,0.301c-0.401,0-0.801,0-1.2,0
			c-0.913,0.188-2.585-0.385-3.001,0.3c-4.709,0.392-9.197,1.006-14.104,1.199c-1.011,0.19-2.787-0.386-3.301,0.3
			c-1.2,0-2.4,0-3.601,0c-2.203,0.197-5.198-0.396-6.902,0.301c-3.507,0.295-6.126,1.476-9.902,1.5c-2.101,0-4.2,0-6.302,0
			c-5.038-0.336-9.388,1.613-14.103,0.6c0.199-2.299,3.253-1.747,5.4-2.1c2.803-0.199,6.398,0.398,8.702-0.301
			c0.401,0,0.801,0,1.2,0c0.912-0.188,2.585,0.385,3.001-0.3c0.3,0,0.601,0,0.9,0c0.911-0.188,2.585,0.384,3.001-0.301
			c15.775-1.328,30.862-3.345,47.111-4.199C257.82,241.018,259.021,241.018,260.221,241.018z"/>
		<path fill-rule="evenodd" fill="#5FB8AB" d="M103.582,242.517c2.303,0.198,5.398-0.397,7.202,0.3c-2.4,0-4.802,0-7.202,0
			C103.582,242.718,103.582,242.617,103.582,242.517z"/>
		<path fill-rule="evenodd" fill="#00AC91" d="M57.37,244.318c-0.461-1.431-0.461-4.273,0-5.702c1.397,0.502-0.139,3.939,1.2,4.501
			c7.062,0.16,12.198-1.606,18.905-1.8c1.9,0,3.8,0,5.7,0c3.156,0.146,5.357,1.245,8.403,1.499c0.615,0.499,3.286,0.499,3.901,0
			c1.5,0,3,0,4.502,0c1.199,0,2.4,0,3.601,0c2.4,0,4.801,0,7.202,0c2.347-0.046,4.263,0.339,6.302,0.601
			c0.42,0.497,2.88,0.497,3.3,0c2.152-0.249,3.935-0.867,6.302-0.9c1.901,0,3.801,0,5.703,0c9.075,0.629,18.112,1.294,24.605,4.502
			c-1.063,3.267,1.465,4.529,2.1,5.101c-1.405,0.195-3.593-0.392-4.5,0.301c-0.901,0-1.801,0-2.702,0c-1.1,0-2.199,0-3.3,0
			c-1.406,0.194-3.594-0.393-4.502,0.3c-0.6,0-1.2,0-1.8,0c-1.101,0-2.201,0-3.301,0c-0.7,0-1.401,0-2.101,0
			c-1.007-0.693-3.295-0.105-4.8-0.3c-2.646-0.445-3.332,1.068-5.703,0.899c-2.8,0-5.601,0-8.401,0
			c-7.208-0.093-13.159-1.444-20.106-1.801c-1.204-0.694-3.696-0.104-5.4-0.3c-1.001,0-2.001,0-3.002,0
			c-2.102-0.697-5.499-0.103-8.103-0.3c-0.699,0-1.398,0-2.1,0c-0.71-0.69-2.694-0.107-3.902-0.3
			c-6.438-0.465-13.083-0.721-17.705-3.001C57.481,246.607,58.056,244.831,57.37,244.318z"/>
		<path fill-rule="evenodd" fill="#5FB8AB" d="M269.225,243.417c0.416-0.685,2.088-0.111,3.001-0.3
			C271.809,243.802,270.136,243.229,269.225,243.417z"/>
		<path fill-rule="evenodd" fill="#5FB8AB" d="M249.72,244.019c0.71-0.691,2.693-0.108,3.901-0.301
			C252.909,244.407,250.927,243.824,249.72,244.019z"/>
		<path fill-rule="evenodd" fill="#5FB8AB" d="M245.519,244.318c0.416-0.685,2.088-0.112,3.001-0.3
			C248.104,244.701,246.43,244.13,245.519,244.318z"/>
		<path fill-rule="evenodd" fill="#5FB8AB" d="M206.508,245.518c0.417-0.684,2.089-0.112,3.001-0.301
			C209.093,245.901,207.419,245.329,206.508,245.518z"/>
		<path fill-rule="evenodd" fill="#5FB8AB" d="M202.606,245.817c0.416-0.685,2.09-0.112,3.001-0.3
			C205.191,246.202,203.519,245.629,202.606,245.817z"/>
		<path fill-rule="evenodd" fill="#5FB8AB" d="M228.113,245.817c0.514-0.686,2.29-0.109,3.301-0.3
			C230.901,246.204,229.124,245.627,228.113,245.817z"/>
		<path fill-rule="evenodd" fill="#5FB8AB" d="M57.37,244.318c0.686,0.513,0.111,2.289,0.299,3.3
			C56.983,247.105,57.56,245.329,57.37,244.318z"/>
		<path fill-rule="evenodd" fill="#676D6A" d="M201.406,247.618c2.102,0,4.201,0,6.302,0
			C206.301,248.117,202.813,248.117,201.406,247.618z"/>
		<path fill-rule="evenodd" fill="#5FB8AB" d="M75.374,250.619c1.208,0.192,3.191-0.391,3.902,0.3
			C78.067,250.728,76.085,251.311,75.374,250.619z"/>
		<path fill-rule="evenodd" fill="#676D6A" d="M195.405,251.819c0.611-0.688,2.492-0.108,3.601-0.301
			C198.395,252.209,196.514,251.628,195.405,251.819z"/>
		<path fill-rule="evenodd" fill="#676D6A" d="M191.805,252.119c0.416-0.685,2.088-0.111,3.001-0.3
			C194.39,252.504,192.716,251.931,191.805,252.119z"/>
		<path fill-rule="evenodd" fill="#5FB8AB" d="M154.595,252.42c0.907-0.692,3.095-0.105,4.5-0.301
			C158.188,252.812,156,252.225,154.595,252.42z"/>
		<path fill-rule="evenodd" fill="#676D6A" d="M187.903,252.42c0.416-0.685,2.089-0.112,3-0.301
			C190.487,252.804,188.815,252.231,187.903,252.42z"/>
		<path fill-rule="evenodd" fill="#676D6A" d="M66.671,252.42c1.208,0.193,3.19-0.391,3.902,0.3
			C69.366,252.526,67.383,253.109,66.671,252.42z"/>
		<path fill-rule="evenodd" fill="#676D6A" d="M181.901,252.72c1.107-0.694,3.496-0.105,5.102-0.3
			C185.897,253.113,183.506,252.524,181.901,252.72z"/>
		<path fill-rule="evenodd" fill="#676D6A" d="M91.278,254.52c0.911,0.188,2.585-0.383,3.001,0.301
			C93.367,254.632,91.694,255.204,91.278,254.52z"/>
		<path fill-rule="evenodd" fill="#FAC2A3" d="M78.675,118.286c-0.23-7.754-2.31-16.239-0.6-24.007
			c5.974-2.048,12.877-2.954,20.104-3.601c6.866-0.615,14.007-3.026,20.705-2.701c3.999,0.194,7.913,1.729,12.004,1.2
			c2.403,0.5,6.899,0.5,9.301,0c2.948,0.347,5.615-0.469,8.403,0c1.694,0.285,2.938,1.647,4.501,2.101
			c2.628,0.764,5.05,0.606,7.502,1.801c2.129,1.037,3.72,2.175,5.401,3.601c4.01,14.995,6.946,31.065,6.302,50.713
			c0,1.9,0,3.801,0,5.702c0.194,1.307-0.392,3.392,0.299,4.2c0.723,20.509,3.617,41.856-0.6,60.916
			c-1.27,5.741-2.862,11.673-3.301,17.404c-1.708-0.46-2.846-1.332-4.501-1.801c-10.563-2.983-19.912-8.582-31.508-10.502
			c-1.835-0.305-3.576-0.053-5.401-0.3c-1.855-0.252-3.74-1.347-5.702-1.501c-6.749-0.533-15.562,1.379-21.904,2.4
			c-6.871,1.106-13.446,2.775-19.805,4.201c0.337-8.665,0.342-17.661,0.299-26.707c0.685-0.416,0.112-2.088,0.3-3.001c0-1,0-2,0-3
			c0-2.301,0-4.603,0-6.903c0.5-1.406,0.5-4.895,0-6.3c-0.87-19.255-2.993-38.452-1.8-58.815
			C79.173,122.377,79.173,119.296,78.675,118.286z M108.083,100.581c-0.418-1.682,0.101-4.303-0.9-5.401
			c-3.636,1.092-8.689-0.261-11.403,1.2c-0.237,3.987,1.959,9.586,0.899,14.404c-1.984,0.838-5.116,0.661-7.502,0.299
			c-3.165,1.882-1.423,8.264-0.3,11.104c1.643,1.026,3.385,0.153,5.703,0.3c1.241,1.761,1.992,4.01,1.799,7.202
			c0.199,2.104-0.396,4.997,0.3,6.602c-0.17,2.371,0.417,3.983,0.9,5.701c3.1-1.033,6.239,1.599,9.604,0.3
			c0.211-0.988,0.482-1.918,0.6-3c0.496-0.42,0.496-2.881,0-3.302c-0.128-4.383-1.879-9.97-0.299-14.103
			c2.987,0.313,5.009,1.591,8.701,1.2c0.396-0.905,0.97-1.632,0.901-3.001c0.696-1.703,0.103-4.698,0.3-6.902
			c0.248-0.848-0.424-0.776-0.3-1.5c-2.166-1.702-5.172-0.783-8.702-0.899c-0.204-1.097-0.418-2.183-0.3-3.602
			C108.083,104.982,108.083,102.781,108.083,100.581z"/>
		<path fill-rule="evenodd" fill="#FAC2A3" d="M273.425,218.211c0.121,4.222-1.025,7.177-1.5,10.804
			c-6.502-0.246-12.578-3.075-19.804-3.602c-5.845-0.426-12.261,0.681-18.605,0.9c-18.639,0.645-38.06,1.256-51.915,6.301
			c-1.181-7.459,0.772-12.295,1.2-19.205c0.221-3.528,0.146-7.137,0.302-10.803c0.081-1.938,0.897-3.992,0.899-6.002
			c0.015-11.848-2.439-24.54-3.601-36.008c-0.43-4.235,0.202-8.235,0-12.604c-0.334-7.214-2.592-17.01-4.201-24.307
			c-0.729-3.304-1.774-7.323-2.701-11.403c-0.788-3.463-2.778-9.374-2.4-11.702c0.382-2.365,6.76-7.632,9.602-8.702
			c2.233-0.842,5.349-0.832,8.401-1.2c10.364-1.25,24.537-1.39,36.61-0.901c1.428,0.059,2.716,0.822,4.202,0.901
			c2.851,0.151,6.298-0.469,9.302-0.601c6.457-0.283,13.243-0.971,20.404-0.301c1.301,0,2.602,0,3.902,0c1.899,0,3.801,0,5.701,0
			c2.663-0.063,4.985,0.216,6.902,0.901c0.621,3.779,0.96,7.842,0.899,12.303c0.197,2.203-0.396,5.198,0.301,6.902c0,1,0,2,0,3
			c-0.697,1.804-0.104,4.899-0.301,7.202c0.018,14.522-2.317,26.691-2.401,41.11c-0.685,0.416-0.111,2.089-0.3,3.001
			c-0.73,17.34-2.383,32.414-0.9,49.813C273.425,215.41,273.425,216.81,273.425,218.211z M250.619,175.601
			c-1.362,0.139-2.461,0.54-3.9,0.6c-1.049,4.827,1.622,9.971,0,15.903c-2.469,1.033-6.572,0.431-8.102,2.4
			c0.038,2.762,1.076,4.525,0.899,7.503c0.846,0.255,1.23,0.97,2.4,0.9c0.612,0.688,2.492,0.107,3.602,0.3c0.601,0,1.2,0,1.801,0
			c0.342,1.557,1.083,2.717,0.899,4.802c0,1.499,0,3.001,0,4.5c0.27,4.12-2.339,7.913-0.3,11.104
			c3.581-1.285,8.751,0.778,11.102-1.501c-0.923-5.955-1.688-14.41,0.601-19.505c2.142,1.048,5.276,0.523,6.302-1.2
			c-1.411-4.113,0.339-6.276,0-10.202c-2.033-1.032-4.938,0.63-6.902-0.299c-2.329-2.765-0.667-9.7-0.6-12.604
			c-0.777-1.723-2.616-2.385-4.8-2.7C253.297,175.104,250.942,175.104,250.619,175.601z"/>
		<path fill-rule="evenodd" fill="#D89F7F" d="M277.026,102.981c0.696,1.704,0.103,4.698,0.301,6.902
			C276.63,108.18,277.224,105.185,277.026,102.981z"/>
		<path fill-rule="evenodd" fill="#676D6A" d="M117.386,113.184c-0.197,2.204,0.396,5.199-0.3,6.902
			C117.283,117.883,116.688,114.888,117.386,113.184z"/>
		<path fill-rule="evenodd" fill="#D89F7F" d="M280.627,116.185c-0.198,4.103,0.399,9.001-0.301,12.604
			C280.525,124.687,279.927,119.787,280.627,116.185z"/>
		<path fill-rule="evenodd" fill="#D89F7F" d="M60.671,126.688c0,1.601,0,3.2,0,4.802C60.172,130.578,60.172,127.599,60.671,126.688
			z"/>
		<path fill-rule="evenodd" fill="#D89F7F" d="M279.427,141.991c0,2.501,0,5.002,0,7.502
			C278.928,147.688,278.928,143.797,279.427,141.991z"/>
		<path fill-rule="evenodd" fill="#D89F7F" d="M62.171,155.195c0,1.8,0,3.601,0,5.401C61.671,159.487,61.671,156.304,62.171,155.195
			z"/>
		<path fill-rule="evenodd" fill="#D89F7F" d="M278.826,165.397c-0.194,1.505,0.395,3.794-0.299,4.802
			C278.721,168.693,278.134,166.404,278.826,165.397z"/>
		<path fill-rule="evenodd" fill="#D89F7F" d="M278.527,172c-0.2,3.501,0.398,7.801-0.301,10.803
			C278.425,179.299,277.827,175.001,278.527,172z"/>
		<path fill-rule="evenodd" fill="#D89F7F" d="M63.372,179.801c0,1.601,0,3.201,0,4.803
			C62.873,183.692,62.873,180.712,63.372,179.801z"/>
		<path fill-rule="evenodd" fill="#D89F7F" d="M76.875,179.801c0.696,1.804,0.102,4.899,0.3,7.202
			C76.478,185.198,77.072,182.104,76.875,179.801z"/>
		<path fill-rule="evenodd" fill="#D89F7F" d="M277.626,184.902c0,1.801,0,3.6,0,5.402
			C277.127,189.194,277.127,186.011,277.626,184.902z"/>
		<path fill-rule="evenodd" fill="#D89F7F" d="M277.026,202.307c0,4.401,0,8.802,0,13.203
			C276.525,211.808,276.525,206.01,277.026,202.307z"/>
		<path fill-rule="evenodd" fill="#D89F7F" d="M62.472,211.01c-0.197,1.805,0.395,4.396-0.3,5.701
			C62.366,214.906,61.776,212.313,62.472,211.01z"/>
		<path fill-rule="evenodd" fill="#D89F7F" d="M117.085,225.112c0.616-0.499,3.286-0.499,3.9,0
			C119.687,225.112,118.386,225.112,117.085,225.112z"/>
		<path fill-rule="evenodd" fill="#676D6A" d="M243.117,229.015c1.605-0.501,5.295-0.501,6.902,0
			C247.719,229.015,245.418,229.015,243.117,229.015z"/>
		<path fill-rule="evenodd" fill="#D89F7F" d="M214.01,230.514c0.908-0.692,3.096-0.104,4.502-0.3
			C217.603,230.906,215.416,230.32,214.01,230.514z"/>
		<path fill-rule="evenodd" fill="#D89F7F" d="M76.274,233.215c0.615-0.497,3.286-0.497,3.9,0
			C78.875,233.215,77.574,233.215,76.274,233.215z"/>
		<path fill-rule="evenodd" fill="#D89F7F" d="M149.793,240.417c2.1,0,4.201,0,6.302,0
			C154.688,240.915,151.201,240.915,149.793,240.417z"/>
		<path fill-rule="evenodd" fill="#D89F7F" d="M196.006,241.616c3.1,0,6.201,0,9.301,0
			C202.904,242.117,198.408,242.117,196.006,241.616z"/>
		<path fill-rule="evenodd" fill="#676D6A" d="M114.685,84.377c5.201,0,10.401,0,15.604,0c0,0.1,0,0.2,0,0.3
			c-5.202,0-10.402,0-15.604,0C114.685,84.577,114.685,84.477,114.685,84.377z"/>
		<path fill-rule="evenodd" fill="#676D6A" d="M191.504,86.478c1.405-0.696,4.099-0.104,6.002-0.3
			C196.101,86.873,193.408,86.28,191.504,86.478z"/>
		<path fill-rule="evenodd" fill="#676D6A" d="M85.577,87.378c0.81-0.691,2.894-0.106,4.201-0.3
			C88.969,87.769,86.883,87.185,85.577,87.378z"/>
		<path fill-rule="evenodd" fill="#676D6A" d="M288.129,87.678c2.304-0.698,5.899-0.102,8.702-0.3
			C294.528,88.075,290.931,87.479,288.129,87.678z"/>
		<path fill-rule="evenodd" fill="#676D6A" d="M60.07,93.679c0.71-0.689,2.693-0.106,3.901-0.3
			C63.262,94.069,61.278,93.486,60.07,93.679z"/>
		<path fill-rule="evenodd" fill="#5FB8AB" d="M103.582,100.581c0.495,3.522,0.956,9.54-1.5,11.103
			c0.093,1.607,0.765,2.636,1.799,3.301c3.977,0.202,9.664-2.462,9.002,3.302c-4.207,0.491-9.729-1.791-11.102,1.8
			c1.604,3.107,1.792,7.811,1.5,11.703c-0.15,1.997,1.373,5.524-1.5,5.701c-3.289-3.914,0.128-14.533-3.001-18.604
			c-2.003-0.598-5.294,0.093-6.301-1.5c0.339-3.566,4.266-1.271,6.601-2.401C104.176,112.518,96.519,101.446,103.582,100.581z"/>
		<path fill-rule="evenodd" fill="#676D6A" d="M48.368,103.581c0,4.502,0,9.003,0,13.505c-0.101,0-0.2,0-0.3,0
			c0-4.502,0-9.003,0-13.505C48.168,103.581,48.267,103.581,48.368,103.581z"/>
		<path fill-rule="evenodd" fill="#5FB8AB" d="M51.669,105.682c0,2.801,0,5.603,0,8.402
			C51.168,111.98,51.168,107.787,51.669,105.682z"/>
		<path fill-rule="evenodd" fill="#5FB8AB" d="M57.37,119.785c0.695,1.306,0.103,3.897,0.299,5.702
			C56.974,124.182,57.566,121.591,57.37,119.785z"/>
		<path fill-rule="evenodd" fill="#5FB8AB" d="M51.669,126.688c0,1.4,0,2.801,0,4.201C51.17,130.175,51.17,127.401,51.669,126.688z"
			/>
		<path fill-rule="evenodd" fill="#5FB8AB" d="M290.829,136.891c-0.194,1.505,0.394,3.794-0.299,4.801
			C290.725,140.186,290.136,137.897,290.829,136.891z"/>
		<path fill-rule="evenodd" fill="#5FB8AB" d="M58.27,138.69c0.696,1.704,0.103,4.698,0.3,6.902
			C57.874,143.889,58.468,140.895,58.27,138.69z"/>
		<path fill-rule="evenodd" fill="#5FB8AB" d="M59.77,172.6c0.699,2.503,0.102,6.3,0.3,9.302c-0.099,0-0.2,0-0.3,0
			C59.77,178.8,59.77,175.7,59.77,172.6z"/>
		<path fill-rule="evenodd" fill="#5FB8AB" d="M288.129,186.103c-0.193,1.406,0.392,3.594-0.301,4.502
			C288.023,189.197,287.437,187.011,288.129,186.103z"/>
		<path fill-rule="evenodd" fill="#5FB8AB" d="M56.77,188.502c0,1.901,0,3.803,0,5.701C56.271,192.996,56.271,189.711,56.77,188.502
			z"/>
		<path fill-rule="evenodd" fill="#5FB8AB" d="M287.828,192.704c-0.195,1.805,0.396,4.396-0.299,5.701
			C287.726,196.602,287.134,194.01,287.828,192.704z"/>
		<path fill-rule="evenodd" fill="#676D6A" d="M241.917,202.907c1.108,0.191,2.989-0.389,3.602,0.3
			C244.409,203.015,242.529,203.596,241.917,202.907z"/>
		<path fill-rule="evenodd" fill="#676D6A" d="M54.069,212.509c-0.197,1.905,0.396,4.597-0.3,6.001
			C53.966,216.606,53.373,213.913,54.069,212.509z"/>
		<path fill-rule="evenodd" fill="#676D6A" d="M53.769,220.012c-0.195,1.504,0.395,3.794-0.299,4.801
			C53.663,223.307,53.076,221.019,53.769,220.012z"/>
		<path fill-rule="evenodd" fill="#676D6A" d="M53.47,226.014c-0.197,1.704,0.395,4.194-0.3,5.4
			C53.364,229.709,52.775,227.219,53.47,226.014z"/>
		<path fill-rule="evenodd" fill="#676D6A" d="M53.169,232.913c0,5.104,0,10.204,0,15.305
			C52.668,243.817,52.668,237.316,53.169,232.913z"/>
		<path fill-rule="evenodd" fill="#5FB8AB" d="M183.403,239.516c0.497,0.812,0.497,3.689,0,4.503
			C183.403,242.517,183.403,241.018,183.403,239.516z"/>
		<path fill-rule="evenodd" fill="#5FB8AB" d="M77.476,241.317c1.208-0.499,4.493-0.499,5.7,0
			C81.276,241.317,79.376,241.317,77.476,241.317z"/>
		<path fill-rule="evenodd" fill="#5FB8AB" d="M126.687,242.517c1.209-0.499,4.494-0.499,5.703,0
			C130.488,242.517,128.588,242.517,126.687,242.517z"/>
		<path fill-rule="evenodd" fill="#5FB8AB" d="M192.704,246.118c2.303-0.697,5.9-0.103,8.702-0.301
			C199.103,246.517,195.507,245.919,192.704,246.118z"/>
		<path fill-rule="evenodd" fill="#676D6A" d="M217.61,246.118c1.704-0.697,4.699-0.104,6.902-0.301
			C222.808,246.515,219.814,245.921,217.61,246.118z"/>
		<path fill-rule="evenodd" fill="#676D6A" d="M278.227,247.019c1.108,0.191,2.988-0.389,3.601,0.3
			C280.719,247.127,278.839,247.706,278.227,247.019z"/>
		<path fill-rule="evenodd" fill="#676D6A" d="M237.715,248.518c1.802,0,3.602,0,5.402,0
			C242.009,249.017,238.826,249.017,237.715,248.518z"/>
		<path fill-rule="evenodd" fill="#5FB8AB" d="M81.375,250.919c2.604,0.197,6-0.397,8.103,0.3
			C86.875,251.021,83.479,251.617,81.375,250.919z"/>
		<path fill-rule="evenodd" fill="#5FB8AB" d="M92.479,251.219c1.704,0.195,4.196-0.395,5.4,0.3
			C96.175,251.323,93.685,251.913,92.479,251.219z"/>
		<path fill-rule="evenodd" fill="#676D6A" d="M60.07,252.119c1.605,0.196,3.995-0.395,5.101,0.301
			C63.566,252.224,61.178,252.814,60.07,252.119z"/>
		<path fill-rule="evenodd" fill="#5FB8AB" d="M132.089,252.42c1.505,0.194,3.793-0.394,4.8,0.3
			C135.384,252.524,133.096,253.112,132.089,252.42z"/>
		<path fill-rule="evenodd" fill="#5FB8AB" d="M117.985,253.319c2.801,0,5.602,0,8.401,0
			C124.283,253.819,120.09,253.819,117.985,253.319z"/>
		<path fill-rule="evenodd" fill="#676D6A" d="M79.576,253.92c1.507-0.5,5.095-0.5,6.601,0
			C83.976,253.92,81.776,253.92,79.576,253.92z"/>
	</g>
</g>
</svg>
