<?xml version="1.0" encoding="utf-8"?>
<!-- Generator: Adobe Illustrator 16.0.0, SVG Export Plug-In . SVG Version: 6.00 Build 0)  -->
<!DOCTYPE svg PUBLIC "-//W3C//DTD SVG 1.1//EN" "http://www.w3.org/Graphics/SVG/1.1/DTD/svg11.dtd">
<svg version="1.1" id="Layer_1" xmlns="http://www.w3.org/2000/svg" xmlns:xlink="http://www.w3.org/1999/xlink" x="0px" y="0px"
	 width="350px" height="350px" viewBox="0 0 350 350" enable-background="new 0 0 350 350" xml:space="preserve">
<g>
	
		<linearGradient id="SVGID_1_" gradientUnits="userSpaceOnUse" x1="162.1079" y1="241.998" x2="177.2588" y2="241.998" gradientTransform="matrix(-1 0 0 1 345.2461 0)">
		<stop  offset="0" style="stop-color:#3F3F3F"/>
		<stop  offset="0.1364" style="stop-color:#353535"/>
		<stop  offset="0.698" style="stop-color:#121212"/>
		<stop  offset="1" style="stop-color:#050505"/>
	</linearGradient>
	<path fill="url(#SVGID_1_)" d="M183.129,242.467c0.115-1.819-0.871-3.361-2.194-3.444l-10.339-0.637
		c-1.326-0.082-2.493,1.328-2.6,3.145l0,0c-0.115,1.821,0.87,3.357,2.196,3.442l10.336,0.638
		C181.855,245.699,183.021,244.281,183.129,242.467L183.129,242.467z"/>
	<g>
		
			<linearGradient id="SVGID_2_" gradientUnits="userSpaceOnUse" x1="227.7217" y1="97.1558" x2="246.207" y2="97.1558" gradientTransform="matrix(-1 0 0 1 345.2461 0)">
			<stop  offset="0" style="stop-color:#3F3F3F"/>
			<stop  offset="0.1364" style="stop-color:#353535"/>
			<stop  offset="0.698" style="stop-color:#121212"/>
			<stop  offset="1" style="stop-color:#050505"/>
		</linearGradient>
		<path fill="url(#SVGID_2_)" d="M99.571,102.829c1,1.53,3.043,1.962,4.568,0.962l11.891-7.747c1.525-0.995,1.953-3.035,0.961-4.562
			l0,0c-0.994-1.529-3.036-1.958-4.564-0.965l-11.887,7.746C99.012,99.26,98.581,101.3,99.571,102.829L99.571,102.829z"/>
		<g>
			<g>
				<rect x="86.444" y="158.263" fill="#B2B2B2" width="0.83" height="96.111"/>
				<polygon fill="#B2B2B2" points="78.104,253.572 78.925,253.716 95.611,159.067 94.792,158.918 				"/>
				<polygon fill="#B2B2B2" points="70.031,251.335 70.812,251.623 103.684,161.304 102.901,161.022 				"/>
				<polygon fill="#B2B2B2" points="62.475,247.732 63.188,248.144 111.251,164.907 110.53,164.494 				"/>
				<polygon fill="#B2B2B2" points="55.651,242.864 56.286,243.406 118.061,169.775 117.435,169.236 				"/>
				<polygon fill="#B2B2B2" points="49.782,236.893 50.31,237.53 123.935,175.75 123.407,175.111 				"/>
				<polygon fill="#B2B2B2" points="45.032,229.992 45.449,230.707 128.685,182.65 128.273,181.93 				"/>
				<polygon fill="#B2B2B2" points="41.563,222.365 41.842,223.147 132.157,190.274 131.873,189.493 				"/>
				<polygon fill="#B2B2B2" points="39.467,214.26 39.605,215.075 134.257,198.387 134.113,197.563 				"/>
				<rect x="38.805" y="205.906" fill="#B2B2B2" width="96.108" height="0.828"/>
				<polygon fill="#B2B2B2" points="39.609,197.569 39.459,198.391 134.112,215.071 134.257,214.254 				"/>
				<polygon fill="#B2B2B2" points="41.844,189.497 41.562,190.274 131.873,223.146 132.165,222.365 				"/>
				<polygon fill="#B2B2B2" points="45.451,181.938 45.03,182.652 128.27,230.707 128.687,229.992 				"/>
				<polygon fill="#B2B2B2" points="50.315,175.12 49.778,175.75 123.4,237.524 123.946,236.895 				"/>
				<polygon fill="#B2B2B2" points="56.292,169.246 55.651,169.775 117.433,243.397 118.071,242.867 				"/>
				<polygon fill="#B2B2B2" points="63.188,164.505 62.468,164.907 110.53,248.142 111.251,247.732 				"/>
				<polygon fill="#B2B2B2" points="70.812,161.029 70.029,161.304 102.909,251.612 103.686,251.335 				"/>
				<polygon fill="#B2B2B2" points="78.917,158.929 78.104,159.067 94.799,253.716 95.613,253.573 				"/>
			</g>
			<g>
				<rect x="260.438" y="158.816" fill="#B2B2B2" width="0.833" height="96.114"/>
				<polygon fill="#B2B2B2" points="252.102,254.129 252.919,254.267 269.608,159.622 268.788,159.473 				"/>
				<polygon fill="#B2B2B2" points="244.03,251.887 244.804,252.174 277.683,161.857 276.902,161.571 				"/>
				
					<rect x="260.438" y="158.816" transform="matrix(-0.8651 -0.5016 0.5016 -0.8651 382.7502 516.6792)" fill="#B2B2B2" width="0.827" height="96.112"/>
				<polygon fill="#B2B2B2" points="229.648,243.419 230.283,243.958 292.058,170.325 291.427,169.788 				"/>
				<polygon fill="#B2B2B2" points="223.779,237.442 224.307,238.079 297.935,176.3 297.401,175.666 				"/>
				<polygon fill="#B2B2B2" points="219.029,230.545 219.442,231.261 302.684,183.2 302.262,182.483 				"/>
				<polygon fill="#B2B2B2" points="215.557,222.918 215.837,223.703 306.151,190.825 305.871,190.045 				"/>
				<polygon fill="#B2B2B2" points="213.461,214.81 213.601,215.626 308.253,198.937 308.111,198.114 				"/>
				<rect x="212.798" y="206.46" fill="#B2B2B2" width="96.114" height="0.826"/>
				<polygon fill="#B2B2B2" points="213.604,198.129 213.453,198.94 308.111,215.626 308.257,214.806 				"/>
				<polygon fill="#B2B2B2" points="215.843,190.052 215.554,190.827 305.871,223.703 306.156,222.918 				"/>
				<polygon fill="#B2B2B2" points="219.45,182.488 219.025,183.204 302.262,231.261 302.684,230.545 				"/>
				<polygon fill="#B2B2B2" points="224.313,175.668 223.769,176.3 297.401,238.076 297.938,237.448 				"/>
				<polygon fill="#B2B2B2" points="230.283,169.801 229.648,170.325 291.423,243.95 292.069,243.419 				"/>
				<polygon fill="#B2B2B2" points="237.181,165.056 236.465,165.462 284.523,248.693 285.242,248.281 				"/>
				<polygon fill="#B2B2B2" points="244.804,161.581 244.025,161.857 276.902,252.171 277.683,251.893 				"/>
				<polygon fill="#B2B2B2" points="252.915,159.482 252.102,159.622 268.791,254.267 269.608,254.129 				"/>
			</g>
			<radialGradient id="SVGID_3_" cx="190.7539" cy="172.498" r="61.9317" gradientUnits="userSpaceOnUse">
				<stop  offset="0.2234" style="stop-color:#F56456"/>
				<stop  offset="0.3862" style="stop-color:#F56658"/>
				<stop  offset="0.4461" style="stop-color:#F66C5F"/>
				<stop  offset="0.4889" style="stop-color:#F6776B"/>
				<stop  offset="0.5178" style="stop-color:#F78378"/>
				<stop  offset="0.661" style="stop-color:#F78176"/>
				<stop  offset="0.7137" style="stop-color:#F67B6F"/>
				<stop  offset="0.7513" style="stop-color:#F67063"/>
				<stop  offset="0.7767" style="stop-color:#F56456"/>
			</radialGradient>
			<path fill="url(#SVGID_3_)" d="M208.096,148.307c33.853,13.843,59.502,57.471,60.573,59.323l-10.251,4.872
				c-0.236-0.428-24.888-42.301-55.098-54.654c-31.01-12.679-89.891-14.87-90.482-14.896l0.444-10.459
				C115.786,132.58,175.015,134.783,208.096,148.307z"/>
			<radialGradient id="SVGID_4_" cx="190.3613" cy="172.0811" r="61.3475" gradientUnits="userSpaceOnUse">
				<stop  offset="0.2234" style="stop-color:#F56456"/>
				<stop  offset="0.3862" style="stop-color:#F56658"/>
				<stop  offset="0.4461" style="stop-color:#F66C5F"/>
				<stop  offset="0.4889" style="stop-color:#F6776B"/>
				<stop  offset="0.5178" style="stop-color:#F78378"/>
				<stop  offset="0.661" style="stop-color:#F78176"/>
				<stop  offset="0.7137" style="stop-color:#F67B6F"/>
				<stop  offset="0.7513" style="stop-color:#F67063"/>
				<stop  offset="0.7767" style="stop-color:#F56456"/>
			</radialGradient>
			<path fill="url(#SVGID_4_)" d="M204.232,152.177c-29.143-11.918-78.552-15.046-91.626-15.676l0.122-2.906
				c2.51,0.089,61.736,2.293,94.814,15.82c33.849,13.841,59.505,57.467,60.573,59.317l-3.863,1.835
				C260.247,203.921,235.815,165.089,204.232,152.177z"/>
			<radialGradient id="SVGID_5_" cx="149.9707" cy="176.4092" r="38.0173" gradientUnits="userSpaceOnUse">
				<stop  offset="0.2234" style="stop-color:#F56456"/>
				<stop  offset="0.3862" style="stop-color:#F56658"/>
				<stop  offset="0.4461" style="stop-color:#F66C5F"/>
				<stop  offset="0.4889" style="stop-color:#F6776B"/>
				<stop  offset="0.5178" style="stop-color:#F78378"/>
				<stop  offset="0.661" style="stop-color:#F78176"/>
				<stop  offset="0.7137" style="stop-color:#F67B6F"/>
				<stop  offset="0.7513" style="stop-color:#F67063"/>
				<stop  offset="0.7767" style="stop-color:#F56456"/>
			</radialGradient>
			<polygon fill="url(#SVGID_5_)" points="181.832,215.011 187.395,209.645 118.111,137.808 112.546,143.169 			"/>
			<radialGradient id="SVGID_6_" cx="151.457" cy="175.2939" r="35.7804" gradientUnits="userSpaceOnUse">
				<stop  offset="0.2234" style="stop-color:#F56456"/>
				<stop  offset="0.3862" style="stop-color:#F56658"/>
				<stop  offset="0.4461" style="stop-color:#F66C5F"/>
				<stop  offset="0.4889" style="stop-color:#F6776B"/>
				<stop  offset="0.5178" style="stop-color:#F78378"/>
				<stop  offset="0.661" style="stop-color:#F78176"/>
				<stop  offset="0.7137" style="stop-color:#F67B6F"/>
				<stop  offset="0.7513" style="stop-color:#F67063"/>
				<stop  offset="0.7767" style="stop-color:#F56456"/>
			</radialGradient>
			<polygon fill="url(#SVGID_6_)" points="185.599,211.697 186.604,210.728 117.314,138.891 116.31,139.852 			"/>
			<radialGradient id="SVGID_7_" cx="104.4365" cy="152.8906" r="43.436" gradientUnits="userSpaceOnUse">
				<stop  offset="0.2234" style="stop-color:#F56456"/>
				<stop  offset="0.3862" style="stop-color:#F56658"/>
				<stop  offset="0.4461" style="stop-color:#F66C5F"/>
				<stop  offset="0.4889" style="stop-color:#F6776B"/>
				<stop  offset="0.5178" style="stop-color:#F78378"/>
				<stop  offset="0.661" style="stop-color:#F78176"/>
				<stop  offset="0.7137" style="stop-color:#F67B6F"/>
				<stop  offset="0.7513" style="stop-color:#F67063"/>
				<stop  offset="0.7767" style="stop-color:#F56456"/>
			</radialGradient>
			<path fill="url(#SVGID_7_)" d="M124.117,121.875c-5.521,15.456-34.141,88.042-34.428,88.772l-6.169-2.43
				c0.295-0.729,28.87-73.224,34.355-88.574c4.388-12.27-10.508-18.059-11.145-18.297l2.316-6.213
				C116.568,97.93,129.387,107.12,124.117,121.875z"/>
			<radialGradient id="SVGID_8_" cx="105.0273" cy="153.1689" r="42.9203" gradientUnits="userSpaceOnUse">
				<stop  offset="0.2234" style="stop-color:#F56456"/>
				<stop  offset="0.3862" style="stop-color:#F56658"/>
				<stop  offset="0.4461" style="stop-color:#F66C5F"/>
				<stop  offset="0.4889" style="stop-color:#F6776B"/>
				<stop  offset="0.5178" style="stop-color:#F78378"/>
				<stop  offset="0.661" style="stop-color:#F78176"/>
				<stop  offset="0.7137" style="stop-color:#F67B6F"/>
				<stop  offset="0.7513" style="stop-color:#F67063"/>
				<stop  offset="0.7767" style="stop-color:#F56456"/>
			</radialGradient>
			<path fill="url(#SVGID_8_)" d="M120.525,122.152c4.902-13.714-5.816-22.606-13.394-26.042l0.26-0.697
				c7.52,2.797,20.344,11.982,15.063,26.739c-5.516,15.452-34.135,88.042-34.424,88.774l-1.668-0.664
				C89.162,203.153,115.276,136.843,120.525,122.152z"/>
			<linearGradient id="SVGID_9_" gradientUnits="userSpaceOnUse" x1="187.1328" y1="198.8574" x2="204.0264" y2="198.8574">
				<stop  offset="0" style="stop-color:#3F3F3F"/>
				<stop  offset="0.1364" style="stop-color:#353535"/>
				<stop  offset="0.698" style="stop-color:#121212"/>
				<stop  offset="1" style="stop-color:#050505"/>
			</linearGradient>
			<polygon fill="url(#SVGID_9_)" points="204.026,188.243 201.046,186.439 187.133,209.472 190.117,211.275 			"/>
			<radialGradient id="SVGID_10_" cx="200.9756" cy="156.96" r="30.2927" gradientUnits="userSpaceOnUse">
				<stop  offset="0.2234" style="stop-color:#F56456"/>
				<stop  offset="0.3862" style="stop-color:#F56658"/>
				<stop  offset="0.4461" style="stop-color:#F66C5F"/>
				<stop  offset="0.4889" style="stop-color:#F6776B"/>
				<stop  offset="0.5178" style="stop-color:#F78378"/>
				<stop  offset="0.661" style="stop-color:#F78176"/>
				<stop  offset="0.7137" style="stop-color:#F67B6F"/>
				<stop  offset="0.7513" style="stop-color:#F67063"/>
				<stop  offset="0.7767" style="stop-color:#F56456"/>
			</radialGradient>
			<polygon fill="url(#SVGID_10_)" points="212.609,116.929 207.128,115.729 189.342,196.995 194.823,198.19 			"/>
			<radialGradient id="SVGID_11_" cx="226.3184" cy="209.3213" r="27.3439" gradientUnits="userSpaceOnUse">
				<stop  offset="0.2234" style="stop-color:#F56456"/>
				<stop  offset="0.3862" style="stop-color:#F56658"/>
				<stop  offset="0.4461" style="stop-color:#F66C5F"/>
				<stop  offset="0.4889" style="stop-color:#F6776B"/>
				<stop  offset="0.5178" style="stop-color:#F78378"/>
				<stop  offset="0.661" style="stop-color:#F78176"/>
				<stop  offset="0.7137" style="stop-color:#F67B6F"/>
				<stop  offset="0.7513" style="stop-color:#F67063"/>
				<stop  offset="0.7767" style="stop-color:#F56456"/>
			</radialGradient>
			<polygon fill="url(#SVGID_11_)" points="188.473,211.703 189.24,217.259 264.165,206.938 263.404,201.384 			"/>
			<linearGradient id="SVGID_12_" gradientUnits="userSpaceOnUse" x1="186.543" y1="208.6895" x2="261.6777" y2="208.6895">
				<stop  offset="0" style="stop-color:#3F3F3F"/>
				<stop  offset="0.1364" style="stop-color:#353535"/>
				<stop  offset="0.698" style="stop-color:#121212"/>
				<stop  offset="1" style="stop-color:#050505"/>
			</linearGradient>
			<polygon fill="url(#SVGID_12_)" points="186.543,213.082 186.753,214.614 261.678,204.296 261.472,202.764 			"/>
			<radialGradient id="SVGID_13_" cx="207.3906" cy="127.0645" r="8.8237" gradientUnits="userSpaceOnUse">
				<stop  offset="0.2234" style="stop-color:#F56456"/>
				<stop  offset="0.3862" style="stop-color:#F56658"/>
				<stop  offset="0.4461" style="stop-color:#F66C5F"/>
				<stop  offset="0.4889" style="stop-color:#F6776B"/>
				<stop  offset="0.5178" style="stop-color:#F78378"/>
				<stop  offset="0.661" style="stop-color:#F78176"/>
				<stop  offset="0.7137" style="stop-color:#F67B6F"/>
				<stop  offset="0.7513" style="stop-color:#F67063"/>
				<stop  offset="0.7767" style="stop-color:#F56456"/>
			</radialGradient>
			<path fill="url(#SVGID_13_)" d="M207.128,115.729l5.481,1.199l-4.497,20.539c-1.891,0.4-3.878,0.73-5.94,0.932L207.128,115.729z"
				/>
			
				<radialGradient id="SVGID_14_" cx="82.9263" cy="207.6992" r="52.3186" gradientTransform="matrix(-1 0 0 1 345.2461 0)" gradientUnits="userSpaceOnUse">
				<stop  offset="0" style="stop-color:#000000"/>
				<stop  offset="0.4728" style="stop-color:#020202"/>
				<stop  offset="0.6431" style="stop-color:#090909"/>
				<stop  offset="0.7645" style="stop-color:#141414"/>
				<stop  offset="0.862" style="stop-color:#252525"/>
				<stop  offset="0.9452" style="stop-color:#3B3B3B"/>
				<stop  offset="0.9581" style="stop-color:#3F3F3F"/>
				<stop  offset="0.9671" style="stop-color:#454545"/>
				<stop  offset="0.9784" style="stop-color:#545454"/>
				<stop  offset="0.9911" style="stop-color:#6E6E6E"/>
				<stop  offset="1" style="stop-color:#858585"/>
			</radialGradient>
			<path fill="url(#SVGID_14_)" d="M210.001,207.708c0,28.891,23.427,52.31,52.322,52.31c28.894,0,52.315-23.419,52.315-52.31
				c0-28.897-23.422-52.326-52.315-52.326C233.428,155.382,210.001,178.811,210.001,207.708z M216.764,207.708
				c0-25.167,20.396-45.562,45.56-45.562c25.159,0,45.557,20.395,45.557,45.562c0,25.15-20.397,45.555-45.557,45.555
				C237.16,253.263,216.764,232.858,216.764,207.708z"/>
			<linearGradient id="SVGID_15_" gradientUnits="userSpaceOnUse" x1="173.8428" y1="226.0283" x2="188.8232" y2="226.0283">
				<stop  offset="0" style="stop-color:#3F3F3F"/>
				<stop  offset="0.1364" style="stop-color:#353535"/>
				<stop  offset="0.698" style="stop-color:#121212"/>
				<stop  offset="1" style="stop-color:#050505"/>
			</linearGradient>
			<polygon fill="url(#SVGID_15_)" points="173.843,239.448 177.508,240.913 188.823,212.61 185.156,211.144 			"/>
			
				<radialGradient id="SVGID_16_" cx="257.4063" cy="207.2188" r="52.4795" gradientTransform="matrix(-1 0 0 1 345.2461 0)" gradientUnits="userSpaceOnUse">
				<stop  offset="0" style="stop-color:#000000"/>
				<stop  offset="0.4728" style="stop-color:#020202"/>
				<stop  offset="0.6431" style="stop-color:#090909"/>
				<stop  offset="0.7645" style="stop-color:#141414"/>
				<stop  offset="0.862" style="stop-color:#252525"/>
				<stop  offset="0.9452" style="stop-color:#3B3B3B"/>
				<stop  offset="0.9581" style="stop-color:#3F3F3F"/>
				<stop  offset="0.9671" style="stop-color:#454545"/>
				<stop  offset="0.9784" style="stop-color:#545454"/>
				<stop  offset="0.9911" style="stop-color:#6E6E6E"/>
				<stop  offset="1" style="stop-color:#858585"/>
			</radialGradient>
			<path fill="url(#SVGID_16_)" d="M35.361,207.215c0,28.988,23.492,52.484,52.479,52.484c28.986,0,52.477-23.496,52.477-52.484
				c0-28.978-23.491-52.477-52.477-52.477C58.854,154.738,35.361,178.237,35.361,207.215z M42.144,207.215
				c0-25.234,20.455-45.692,45.696-45.692c25.238,0,45.7,20.458,45.7,45.692c0,25.239-20.462,45.7-45.7,45.7
				C62.599,252.915,42.144,232.454,42.144,207.215z"/>
			
				<linearGradient id="SVGID_17_" gradientUnits="userSpaceOnUse" x1="139.0049" y1="211.6807" x2="175.9604" y2="211.6807" gradientTransform="matrix(-1 0 0 1 345.2461 0)">
				<stop  offset="0" style="stop-color:#3F3F3F"/>
				<stop  offset="0.1169" style="stop-color:#565656"/>
				<stop  offset="0.3247" style="stop-color:#797979"/>
				<stop  offset="0.4365" style="stop-color:#868686"/>
			</linearGradient>
			<path fill="url(#SVGID_17_)" d="M169.286,211.676c0,10.215,8.277,18.483,18.482,18.483c10.202,0,18.474-8.269,18.474-18.483
				c0-10.2-8.271-18.474-18.474-18.474C177.563,193.202,169.286,201.476,169.286,211.676z M174.349,211.676
				c0-7.413,6.005-13.422,13.419-13.422c7.411,0,13.429,6.009,13.429,13.422c0,7.415-6.018,13.429-13.429,13.429
				C180.354,225.104,174.349,219.091,174.349,211.676z"/>
			
				<linearGradient id="SVGID_18_" gradientUnits="userSpaceOnUse" x1="123.4053" y1="118.6855" x2="166.127" y2="118.6855" gradientTransform="matrix(-1 0 0 1 345.2461 0)">
				<stop  offset="0" style="stop-color:#3F3F3F"/>
				<stop  offset="0.1364" style="stop-color:#353535"/>
				<stop  offset="0.698" style="stop-color:#121212"/>
				<stop  offset="1" style="stop-color:#050505"/>
			</linearGradient>
			<path fill="url(#SVGID_18_)" d="M221.41,113.613c0,0,4.287,17.822-14.191,10.559c-18.476-7.256-19.14-3.298-25.736-4.288
				c-6.603-0.986,1.977-7.263,9.237-7.587C197.978,111.962,217.45,109.984,221.41,113.613z"/>
			<path fill="#0F0200" d="M180.608,211.841c0,3.673,2.976,6.645,6.643,6.645c3.673,0,6.643-2.972,6.643-6.645
				c0-3.659-2.97-6.643-6.643-6.643C183.584,205.198,180.608,208.182,180.608,211.841z"/>
			
				<linearGradient id="SVGID_19_" gradientUnits="userSpaceOnUse" x1="84.2852" y1="197.0859" x2="153.3066" y2="197.0859" gradientTransform="matrix(-1 0 0 1 345.2461 0)">
				<stop  offset="0" style="stop-color:#3F3F3F"/>
				<stop  offset="0.1364" style="stop-color:#353535"/>
				<stop  offset="0.698" style="stop-color:#121212"/>
				<stop  offset="1" style="stop-color:#050505"/>
			</linearGradient>
			<path fill="url(#SVGID_19_)" d="M260.961,198.187l-0.174,2.437c-0.411-0.03-40.852-2.951-68.848-4.644l0.152-2.43
				C220.098,195.236,260.557,198.159,260.961,198.187z"/>
			
				<linearGradient id="SVGID_20_" gradientUnits="userSpaceOnUse" x1="84.377" y1="219.791" x2="152.2188" y2="219.791" gradientTransform="matrix(-1 0 0 1 345.2461 0)">
				<stop  offset="0" style="stop-color:#3F3F3F"/>
				<stop  offset="0.1364" style="stop-color:#353535"/>
				<stop  offset="0.698" style="stop-color:#121212"/>
				<stop  offset="1" style="stop-color:#050505"/>
			</linearGradient>
			<path fill="url(#SVGID_20_)" d="M260.869,213.343c-0.398,0.093-39.983,8.881-67.288,15.282l-0.554-2.384
				c27.314-6.398,66.914-15.193,67.309-15.285L260.869,213.343z"/>
			<path fill="#B2B2B2" d="M211.181,112.121c3.943,0.215,7.197,0.784,8.567,2.047c0,0,0.815,3.391,0.206,6.613
				C218.935,118.445,216.529,114.708,211.181,112.121z"/>
			
				<linearGradient id="SVGID_21_" gradientUnits="userSpaceOnUse" x1="135.7241" y1="185.7744" x2="148.9785" y2="185.7744" gradientTransform="matrix(-1 0 0 1 345.2461 0)">
				<stop  offset="0" style="stop-color:#3F3F3F"/>
				<stop  offset="0.1364" style="stop-color:#353535"/>
				<stop  offset="0.698" style="stop-color:#121212"/>
				<stop  offset="1" style="stop-color:#050505"/>
			</linearGradient>
			<path fill="url(#SVGID_21_)" d="M196.368,184.279c-0.36,1.572,0.28,3.056,1.42,3.314l8.914,2.04
				c1.141,0.254,2.36-0.801,2.721-2.368l0,0c0.356-1.564-0.28-3.05-1.422-3.307l-8.91-2.042
				C197.941,181.653,196.729,182.714,196.368,184.279L196.368,184.279z"/>
			<path fill="#3F3F3F" d="M251.613,206.247c0,5.189,4.215,9.403,9.405,9.403c5.196,0,9.405-4.214,9.405-9.403
				c0-5.194-4.209-9.405-9.405-9.405C255.828,196.842,251.613,201.053,251.613,206.247z"/>
			<path fill="#3F3F3F" d="M78.566,207.316c0,5.188,4.213,9.403,9.399,9.403c5.199,0,9.407-4.215,9.407-9.403
				c0-5.195-4.208-9.406-9.407-9.406C82.779,197.91,78.566,202.121,78.566,207.316z"/>
			<path fill="#262626" d="M94.213,207.619c0,3.577-2.897,6.477-6.475,6.477c-3.582,0-6.479-2.899-6.479-6.477
				c0-3.578,2.897-6.48,6.479-6.48C91.316,201.139,94.213,204.041,94.213,207.619z"/>
			<g>
				
					<linearGradient id="SVGID_22_" gradientUnits="userSpaceOnUse" x1="489.4834" y1="213.0293" x2="489.4834" y2="201.0508" gradientTransform="matrix(1 0 0 1 -401.7012 0)">
					<stop  offset="0" style="stop-color:#FFFFFF"/>
					<stop  offset="0.074" style="stop-color:#ECECEF"/>
					<stop  offset="0.1757" style="stop-color:#D8D8DF"/>
					<stop  offset="0.2446" style="stop-color:#D1D1D9"/>
					<stop  offset="0.5537" style="stop-color:#E1E1E6"/>
					<stop  offset="1" style="stop-color:#F5F5F5"/>
				</linearGradient>
				<path fill="url(#SVGID_22_)" d="M93.77,207.042c0,3.301-2.679,5.987-5.987,5.987c-3.313,0-5.987-2.687-5.987-5.987
					c0-3.307,2.675-5.991,5.987-5.991C91.09,201.051,93.77,203.735,93.77,207.042z"/>
				
					<linearGradient id="SVGID_23_" gradientUnits="userSpaceOnUse" x1="489.8867" y1="201.0508" x2="489.8867" y2="208.5898" gradientTransform="matrix(1 0 0 1 -401.7012 0)">
					<stop  offset="0" style="stop-color:#FFFFFF"/>
					<stop  offset="0.074" style="stop-color:#ECECEF"/>
					<stop  offset="0.1757" style="stop-color:#D8D8DF"/>
					<stop  offset="0.2446" style="stop-color:#D1D1D9"/>
					<stop  offset="0.5537" style="stop-color:#E1E1E6"/>
					<stop  offset="1" style="stop-color:#F5F5F5"/>
				</linearGradient>
				<path fill="url(#SVGID_23_)" d="M87.782,201.051c-2.217,0-4.146,1.209-5.183,3.003c2.162,2.31,5.873,5.056,10.977,4.451
					c0.127-0.469,0.193-0.959,0.193-1.463C93.77,203.735,91.09,201.051,87.782,201.051z"/>
			</g>
			<path fill="#262626" d="M267.381,206.241c0,3.57-2.897,6.477-6.472,6.477c-3.592,0-6.482-2.906-6.482-6.477
				c0-3.576,2.891-6.482,6.482-6.482C264.483,199.759,267.381,202.665,267.381,206.241z"/>
			<g>
				
					<linearGradient id="SVGID_24_" gradientUnits="userSpaceOnUse" x1="662.6504" y1="211.6514" x2="662.6504" y2="199.6699" gradientTransform="matrix(1 0 0 1 -401.7012 0)">
					<stop  offset="0" style="stop-color:#FFFFFF"/>
					<stop  offset="0.074" style="stop-color:#ECECEF"/>
					<stop  offset="0.1757" style="stop-color:#D8D8DF"/>
					<stop  offset="0.2446" style="stop-color:#D1D1D9"/>
					<stop  offset="0.5537" style="stop-color:#E1E1E6"/>
					<stop  offset="1" style="stop-color:#F5F5F5"/>
				</linearGradient>
				<path fill="url(#SVGID_24_)" d="M266.938,205.661c0,3.299-2.685,5.99-5.992,5.99c-3.306,0-5.986-2.691-5.986-5.99
					c0-3.311,2.681-5.991,5.986-5.991C264.254,199.67,266.938,202.351,266.938,205.661z"/>
				
					<linearGradient id="SVGID_25_" gradientUnits="userSpaceOnUse" x1="663.0537" y1="199.6699" x2="663.0537" y2="207.2109" gradientTransform="matrix(1 0 0 1 -401.7012 0)">
					<stop  offset="0" style="stop-color:#FFFFFF"/>
					<stop  offset="0.074" style="stop-color:#ECECEF"/>
					<stop  offset="0.1757" style="stop-color:#D8D8DF"/>
					<stop  offset="0.2446" style="stop-color:#D1D1D9"/>
					<stop  offset="0.5537" style="stop-color:#E1E1E6"/>
					<stop  offset="1" style="stop-color:#F5F5F5"/>
				</linearGradient>
				<path fill="url(#SVGID_25_)" d="M260.946,199.67c-2.215,0-4.143,1.206-5.18,3.005c2.156,2.306,5.874,5.057,10.976,4.451
					c0.122-0.474,0.196-0.961,0.196-1.465C266.938,202.351,264.254,199.67,260.946,199.67z"/>
			</g>
			<path fill="#262626" d="M190.665,212.152c0,1.891-1.539,3.438-3.439,3.438c-1.899,0-3.443-1.547-3.443-3.438
				c0-1.902,1.544-3.445,3.443-3.445C189.126,208.707,190.665,210.25,190.665,212.152z"/>
			<g>
				
					<linearGradient id="SVGID_26_" gradientUnits="userSpaceOnUse" x1="588.9512" y1="215.0225" x2="588.9512" y2="208.6602" gradientTransform="matrix(1 0 0 1 -401.7012 0)">
					<stop  offset="0" style="stop-color:#3F3F3F"/>
					<stop  offset="0.1364" style="stop-color:#353535"/>
					<stop  offset="0.698" style="stop-color:#121212"/>
					<stop  offset="1" style="stop-color:#050505"/>
				</linearGradient>
				<path fill="url(#SVGID_26_)" d="M190.429,211.841c0,1.758-1.42,3.182-3.178,3.182c-1.756,0-3.181-1.424-3.181-3.182
					c0-1.752,1.425-3.181,3.181-3.181C189.009,208.66,190.429,210.089,190.429,211.841z"/>
				
					<linearGradient id="SVGID_27_" gradientUnits="userSpaceOnUse" x1="589.166" y1="208.6602" x2="589.166" y2="212.665" gradientTransform="matrix(1 0 0 1 -401.7012 0)">
					<stop  offset="0" style="stop-color:#FFFFFF"/>
					<stop  offset="0.1038" style="stop-color:#E3E3E3"/>
					<stop  offset="0.3349" style="stop-color:#A9A9A9"/>
					<stop  offset="0.5482" style="stop-color:#7B7B7B"/>
					<stop  offset="0.737" style="stop-color:#5A5A5A"/>
					<stop  offset="0.894" style="stop-color:#464646"/>
					<stop  offset="1" style="stop-color:#3F3F3F"/>
				</linearGradient>
				<path fill="url(#SVGID_27_)" d="M187.251,208.66c-1.181,0-2.202,0.647-2.751,1.594c1.143,1.232,3.115,2.691,5.827,2.364
					c0.065-0.248,0.102-0.506,0.102-0.777C190.429,210.089,189.009,208.66,187.251,208.66z"/>
			</g>
		</g>
	</g>
</g>
</svg>
