<?xml version="1.0" encoding="utf-8"?>
<!-- Generator: Adobe Illustrator 16.0.0, SVG Export Plug-In . SVG Version: 6.00 Build 0)  -->
<!DOCTYPE svg PUBLIC "-//W3C//DTD SVG 1.1//EN" "http://www.w3.org/Graphics/SVG/1.1/DTD/svg11.dtd">
<svg version="1.1" id="Layer_1" xmlns="http://www.w3.org/2000/svg" xmlns:xlink="http://www.w3.org/1999/xlink" x="0px" y="0px"
	 width="350px" height="350px" viewBox="0 0 350 350" enable-background="new 0 0 350 350" xml:space="preserve">
<g>
	<path fill="#BCBEC0" d="M170.518,184.297c-0.369-2.034-0.821-3.917-1.361-5.58c-0.674,1.814-1.162,3.697-1.802,5.525
		c0.287,1.168,0.531,2.443,0.734,3.787c0.209-0.328,0.418-0.655,0.627-0.983C169.278,186.165,169.978,185.254,170.518,184.297z"/>
	<path fill="#BCBEC0" d="M183.65,175.765l2.744-0.412l0.031-0.838c-0.05-1.479-0.172-2.956-0.225-4.443
		c-0.05-1.438-0.181-2.876-0.225-4.317c-0.031-0.957,0.141-2.157-0.063-3.169l-2.398-0.287l0.153,7.771l-12.445-0.563l-0.428,1.791
		l9.386,0.559l-17.591,25.791l-0.006,2.143l18.106-25.883c-0.146,0.417-0.287,0.917-0.415,1.535
		c-0.641,3.163-1.674,29.743-1.674,29.743s-0.431,2.53,1.68,2.329c0,0,2.851,0.428,2.754-3.265
		c-0.094-3.693-1.573-2.853-1.995-2.643c0,0,0.843,0.214,0.84,1.268c-0.003,1.052-1.589,1.79-1.689,0.418l1.974-24.679
		C182.164,178.612,181.752,176.29,183.65,175.765z"/>
	<path fill="#BCBEC0" d="M157.523,216.148c-1.926-2.104-3.797-4.736-4.846-7.337c-0.681-1.675-1.368-3.212-1.724-5.01
		c-0.15-0.761-0.271-1.522-0.471-2.263c-0.144,8.705,3.659,17.381,9.301,23.911c2.238,2.097,4.833,3.834,7.581,5.295
		c12.118,6.459,25.918,6.251,38.813,2.25c13.301-4.126,22.593-14.445,34.417-21.161c1.614-0.918,3.278-1.766,4.977-2.542
		c2.336-1.358,4.777-2.543,7.351-3.472c5.146-1.862,10.641-2.889,16.11-2.396c1.03,0.092,2.083,0.214,3.145,0.367
		c-8.596-1.897-17.947-0.019-26.168,2.898c-12.152,4.315-22.024,12.984-33.712,18.268c-6.069,2.738-12.77,4.518-19.521,4.948
		c3.975-4.88,6.682-14.278,6.717-25.079c0.012-5.051-0.56-9.79-1.574-13.915c0.003,0.007,0.01,0.011,0.013,0.018
		c2.66,3.628,6.136,6.721,10.341,8.405c2.039,0.813,4.178,1.291,6.339,1.667c0.449,0.05,0.898,0.095,1.349,0.123
		c2.454,0.161,4.861-0.097,7.259-0.524c0.179-0.065,0.362-0.128,0.547-0.199c2.229-0.841,4.424-1.773,6.575-2.808
		c3.697-1.774,7.313-3.792,10.71-6.119c-2.776-0.15-5.518-0.859-7.769-2.135c-4.034-2.277-5.839-6.914-4.942-11.279
		c-1.299,1.844-2.679,3.635-4.178,5.336c-1.771,2.015-3.803,4.344-6.313,5.499c-2.12,1.171-4.527,1.727-7.131,1.252
		c-4.671-0.855-7.641-4.584-11.063-7.469c-2.829-2.387-5.523-4.949-8.677-6.919c-0.159-0.099-0.325-0.196-0.49-0.297
		c1.086-1.007,2.079-2.131,2.969-3.148c1.796-2.047,3.163-4.418,3.541-7.088c-1.324-0.364-2.601-0.908-3.946-1.211
		c-0.531-0.119-1.074-0.21-1.624-0.286c0.425,2.679,0.3,5.608-0.918,7.94c-0.449,0.859-1.639,3.433-2.981,3.733
		c0.144,0.032,0.287,0.06,0.431,0.092c0.24,0.311,0.478,0.623,0.712,0.938c-0.637-0.22-1.293-0.336-1.961-0.339
		c-1.377-0.003-2.704,0.481-3.949,1.364c-0.038,0.391-0.016,0.789-0.016,1.146c0.003,0.043,0,0.094,0,0.149
		c-0.025,0.949-0.266,3.628-0.334,4.313c0.952-0.696,1.967-1.071,3.013-1.068c5.595,0.016,10.095,10.753,10.057,23.977
		c-0.04,12.8-4.321,23.239-9.663,23.882c-0.637-0.05-1.268-0.112-1.898-0.19c-4.942-1.588-8.733-11.621-8.696-23.754
		c0.022-7.137,1.361-13.537,3.469-17.913c-0.013-0.624-0.022-1.246-0.007-1.867c0-0.047,0.004-0.098,0.004-0.144
		c0.04-1.307,0.068-2.607,0.124-3.912c-3.053,5.239-5.033,13.443-5.061,22.673c-0.031,10.132,2.298,19.038,5.839,24.157
		c-2.148-0.498-4.259-1.16-6.311-2.01c-4.118-1.712-7.747-3.742-11.065-6.385c0.1,0.013,0.2,0.024,0.303,0.024
		c4.896,0.015,8.898-11.131,8.939-24.903c0.006-2.307-0.1-4.543-0.299-6.663c-0.475,0.591-0.975,1.155-1.427,1.718
		c-0.396,0.49-0.793,0.974-1.196,1.461c0.103,1.444,0.163,2.939,0.159,4.487c-0.034,11.489-3.185,20.796-7.038,20.781
		c-3.85-0.011-6.944-9.335-6.906-20.825c0.022-7.905,1.523-14.774,3.712-18.287c0.146-0.873,0.281-1.75,0.331-2.637
		c0.047-0.805-0.038-1.601-0.069-2.4c-2.929,4.069-4.958,12.522-4.986,22.312C153.708,204.112,155.212,211.649,157.523,216.148z"/>
	<path fill="#BCBEC0" d="M188.893,147.594c-0.465-0.454-0.928-0.859-1.393-1.244c-1.97,1.468-3.734,2.462-5.889,2.856
		c-2.498,0.449-5.208,0.465-7.693-0.062c-1.661-0.357-3.234-1.042-4.568-2.05c0.362,1.658,0.787,3.307,1.24,4.915
		c0.537,1.908,0.934,3.914,1.527,5.838c0.334-0.472,0.724-0.914,1.183-1.31c1.967-1.711,4.478-1.555,6.882-1.035
		c2.011,0.438,4.886,1.779,6.994,3.646c3.406,0.101,6.838,0.446,10.072,1.506c-0.412-2.006-1.225-3.982-2.352-5.819
		C193.271,152.188,191.115,149.76,188.893,147.594z"/>
	<path fill="#BCBEC0" d="M158.235,182.636c-0.106,0.47-0.225,0.965-0.343,1.476c-0.644,3.493-1.233,6.99-1.171,10.555
		c0.05,2.937,0.605,5.899,1.955,8.526c1.167,2.275,3.006,4.005,5.22,5.155c-2.017-3.43-2.098-7.445-1.349-11.485
		c0.368-2.207,0.999-4.381,1.705-6.488c1.939-5.801,4.243-11.271,5.286-17.169c-0.565,1.108-1.355,2.058-2.458,2.634
		c-0.134,0.069-0.312-0.093-0.318-0.221c-0.081-2.69-0.934-5.228-1.436-7.853c-0.241-1.25-0.3-2.464-0.169-3.73
		c0.084-0.762,0.181-1.493,0.212-2.224c-1.027-4.656-3.946-8.7-4.933-13.368c-0.3,0.721-0.553,1.471-0.75,2.247
		c-1.192,4.686-0.446,9.601,0.01,14.332C160.268,170.985,159.571,176.817,158.235,182.636z"/>
	<path fill="#BCBEC0" d="M169.057,145.663c1.417,1.232,3.709,2.746,7.274,3.094c5.374,0.531,10.535-2.231,14.007-6.195
		c1.371-1.564,2.648-3.324,3.731-5.792c-2.102-2.538-4.771-4.958-7.996-6.284c-3.435-1.415-7.125-2.05-10.675-0.875
		c-0.937,0.307-1.817,0.733-2.629,1.255c-0.44,0.407-0.853,0.827-1.214,1.239c-2.279,2.594-3.447,6.097-3.094,9.556
		C168.595,142.993,168.804,144.331,169.057,145.663z"/>
	<path fill="#BCBEC0" d="M166.025,159.664c0.291,0.895,0.443,1.814,0.531,2.736c-0.793,1.209-0.506,2.575,0.06,3.964
		c-0.044,1.036-0.035,2.153,0.437,2.912c0.1,0.162,0.39,0.508,0.681,0.675c0.016,0.477,0.122,3.277,0.193,3.225
		c1.639-1.177,2.261-3.472,1.983-5.375c-0.053-0.355-0.15-0.722-0.253-1.097c0.218-0.5,0.428-1.007,0.596-1.534
		c0.262-0.813,0.472-1.628,0.603-2.458c0.718-0.272,1.558-0.305,2.308-0.421c5.864-0.944,12.48-0.596,18.296,0.495
		c2.07,0.391,4.381,0.865,6.357,1.802c-0.188,1.165-0.284,2.308-0.172,3.33c0.134,1.216,0.503,3.042,1.549,3.933
		c0.016,0.668,0.146,1.344,0.334,1.967c0.34,1.108,1.052,1.903,2.029,1.917c-0.063-0.627-0.371-1.239-0.484-1.867
		c-0.171-0.987,0.855-3.06,1.152-4.036c0.294-0.959,0.462-1.3,0.612-2.301c0.256-1.692-0.362-2.975-1.455-3.95
		c0.003-0.009,0.006-0.023,0.01-0.032c0.908-2.361,1.985-4.686,2.713-7.108c2.176-7.238,2.713-14.04-0.153-21.154
		c-0.843-2.101-2.051-4.185-3.322-6.051c-0.655-0.966-1.367-1.862-2.116-2.7c-0.862,0.758-1.705,1.527-2.68,2.146
		c-1.367,0.873-3.06,1.216-4.658,1.33c-2.61,0.18-5.242-0.618-7.362-2.136c-3.341-2.386-5.645-6.307-5.482-10.377
		c-4.403-0.149-8.824,1.07-12.208,3.839c-0.796,0.655-1.536,1.392-2.204,2.219c-5.414,6.7-3.912,17.803-1.892,25.503
		C162.987,152.729,164.863,156.06,166.025,159.664z M174.67,128.757c1.97-0.481,4.234-0.652,6.257-0.554
		c6.491,0.322,13.066,5.008,15.977,10.734c2.055,4.047,2.757,9.104,2.757,13.604c0.003,2.312-0.374,4.564-0.777,6.83
		c-0.138,0.779-0.334,1.624-0.527,2.501c-2.838-1.067-6.292-1.425-8.14-1.697c-2.582-0.378-5.168-0.755-7.774-0.9
		c-2.863-0.16-5.733-0.096-8.581,0.227c-0.94,0.107-1.945,0.229-2.925,0.448c-0.497-4.674-2.479-9.035-3.291-13.649
		C166.565,140.179,167.18,130.578,174.67,128.757z"/>
	<path fill="#BCBEC0" d="M188.144,120.354c-3.038-1.415-6.441-3.589-8.512-6.511c-0.434,1.205-0.671,2.498-0.678,3.852
		c-0.019,6.33,5.096,11.48,11.428,11.501c5.317,0.017,9.798-3.593,11.109-8.501C197.176,122.748,192.536,122.402,188.144,120.354z"
		/>
	<path fill="#BCBEC0" d="M188.006,119.523c5.714,2.448,14.144,3.474,16.738-3.722c1.327-3.678,0.041-7.328-2.21-10.39
		c-0.75-1.012-1.564-2.011-2.445-2.973c-1.249-1.561-2.71-2.979-4.193-4.234c-3.843-3.266-9.248-6.156-14.219-3.887
		c-2.872,1.313-4.152,4.748-4.677,7.65C175.61,109.68,181.218,116.61,188.006,119.523z M198.443,103.222
		c0.993-0.053,1.664,1.085,2.224,1.746c1.124,1.33,2.261,2.91,2.52,4.674c0.243,1.656-1.118,4.823-3.203,4.101
		c-0.094-0.036-0.226-0.155-0.182-0.268c0.563-1.543,1.549-2.819,1.38-4.544c-0.172-1.766-1.296-3.263-2.254-4.718
		c-0.037-0.014-0.072-0.034-0.104-0.062c-0.228-0.243-0.353-0.464-0.465-0.778C198.334,103.313,198.369,103.227,198.443,103.222z
		 M190.726,98.509c0.821,0.045,1.514,0.648,2.098,1.187c1.006,0.92,1.911,2.033,2.735,3.116c1.199,1.581,2.079,3.436,2.457,5.387
		c0.19,0.99,0.206,2.008,0.135,3.009c-0.038,0.511-0.166,2.053-0.821,2.263c-1.009,0.314-1.108-1.884-1.108-2.381
		c0-0.93-0.328-1.988-0.519-2.893c-0.23-1.089-0.527-2.17-0.965-3.194c-0.939-2.183-2.563-3.688-3.896-5.586
		C190.688,99.198,190.104,98.474,190.726,98.509z M188.121,101.19c0.4,0.117,0.553,1.377,0.618,1.733
		c0.166,0.892,0.378,1.78,0.603,2.655c0.472,1.813,1.115,3.609,2.211,5.144c0.59,0.832,1.546,1.306,2.104,2.157
		c0.315,0.477-0.115,0.786-0.565,0.667c-1.892-0.501-3.587-2.056-4.324-3.847c-0.487-1.19-0.715-2.439-0.868-3.71
		C187.865,105.688,186.985,100.863,188.121,101.19z M182.511,102.516c0.068-0.304,0.222-0.701,0.581-0.398
		c0.574,0.487,0.668,1.491,0.783,2.164c0.274,1.581,0.556,3.231,1.324,4.659c0.59,1.094,1.748,1.795,2.235,2.94
		c0.024,0.05,0.05,0.156-0.028,0.183c-1.767,0.589-3.978-1.326-4.533-2.897c-0.381-1.092-0.472-2.286-0.578-3.433
		C182.198,104.703,182.096,103.503,182.511,102.516z"/>
	<path fill="#BCBEC0" d="M183.912,227.881l-0.783-19.516C182.68,217.436,183.912,227.881,183.912,227.881z"/>
	<path fill="#BCBEC0" d="M190.987,223.439l-6.388-15.277C186.869,215.521,190.987,223.439,190.987,223.439z"/>
	<path fill="#BCBEC0" d="M195.334,209.422l-10.531-3.63C189.386,208.201,195.334,209.422,195.334,209.422z"/>
	<path fill="#BCBEC0" d="M183.497,184.102l0.116,16.237C184.597,192.854,183.497,184.102,183.497,184.102z"/>
	<path fill="#BCBEC0" d="M189.883,187.766l-4.328,13.564C188.368,195.336,189.883,187.766,189.883,187.766z"/>
	<path fill="#BCBEC0" d="M194.375,200.101l-9.086,2.833C189.692,202.461,194.375,200.101,194.375,200.101z"/>
	<path fill="#BCBEC0" d="M67.379,217.207c4.355-4.152,9.61-7.242,14.528-10.664c4.762-3.307,9.642-6.641,13.976-10.516
		c0.028-0.407,0.065-0.818,0.119-1.223c0.693-5.338,3.563-10.114,7.303-13.895c0.546-0.551,1.121-1.052,1.717-1.521
		c-0.484-2.526-1.352-4.954-2.345-7.332c-2.335,1.324-4.452,3.021-6.185,5.042c-0.166,0.187-0.325,0.384-0.484,0.58
		c-0.344,0.5-0.671,1.003-0.975,1.496c-1.208,1.97-2.298,4.009-3.356,6.061c-1.985,3.839-3.815,7.817-6.257,11.399
		c-1.439,2.104-3.16,3.996-4.986,5.769c-4.637,4.504-9.748,8.362-13.569,13.648c-0.978,1.355-1.889,2.748-2.757,4.169
		c0.209-0.055,0.422-0.106,0.631-0.158C65.553,219.071,66.427,218.116,67.379,217.207z"/>
	<path fill="#BCBEC0" d="M93.351,199.729c-1.265,1.018-2.563,1.992-3.872,2.944c-0.893,0.863-1.986,1.535-3.076,2.188
		c-1.648,1.142-3.316,2.261-4.98,3.388c-1.243,0.891-2.479,1.799-3.697,2.727c-3.216,2.45-6.142,5.238-8.892,8.192
		c3.025-0.587,6.076-1.077,9.085-1.714c2.764-2.044,5.617-3.977,8.527-5.786c2.254-1.396,4.58-2.668,6.906-3.934
		c0.59-0.318,1.187-0.633,1.786-0.933c0.306-0.877,0.509-1.793,0.603-2.75c0.2-2.119,0.059-4.263,0.084-6.39
		C95.012,198.367,94.184,199.055,93.351,199.729z"/>
	<path fill="#BCBEC0" d="M110.479,171.258c-0.571-0.25-1.621-0.911-2.695-1.393c-1.539,0.47-3.041,1.091-4.471,1.846
		c1.064,2.334,1.814,4.756,2.289,7.239c6.145-4.481,14.5-5.239,21.628-7.946c3.619-3.436,6.835-7.418,8.246-12.275
		c0.733-2.523,0.949-5.176,0.874-7.799c-0.047-1.55-0.303-3.091-0.5-4.63c-0.016,0.248-0.025,0.483-0.041,0.701
		c-0.09,1.433-0.178,2.823-0.418,4.248c-0.487,2.888-2.273,5.46-5.548,4.803c-2.797-0.562-2.963-4.771-3.369-6.928
		c-0.125-0.656-0.281-1.304-0.481-1.934c-0.934,5.77-7.169,10.897-12.18,7.585c-0.028,0.524-0.043,1.047-0.063,1.567
		c1.03,0.771,1.648,1.944,2.214,3.086c0.665,1.354,1.196,2.709,1.452,4.2c0.425,2.425-0.012,5.483-1.783,7.31
		C114.267,172.353,112.087,171.961,110.479,171.258z"/>
	<path fill="#BCBEC0" d="M140.172,144.461c-0.75,0.618-2.254,1.844-3.209,2.162c0.281,1.442,0.505,2.87,0.437,4.445
		c-0.06,1.333-0.178,2.913-0.497,4.18c-0.05,0.289-0.103,0.577-0.162,0.863c0.421-0.355,0.836-0.709,1.243-1.081
		c2.042-1.85,4.031-3.808,5.82-5.91c1.243-1.461,2.342-3.04,3.288-4.708c3.216-5.701,4.493-12.271,4.886-18.743
		c0.291-4.748,0.203-9.502,0.634-14.246c0.187-2.1,0.652-4.012,1.299-6.016c0.5-1.555,1.027-3.15,1.136-4.789
		c-3.085,5.572-4.443,11.568-5.658,17.786C147.606,127.539,147.85,138.124,140.172,144.461z"/>
	<path fill="#BCBEC0" d="M121.863,142.972c5.386,4.681,13.548,4.108,18.231-1.277c4.68-5.387,4.106-13.549-1.28-18.23
		c-5.386-4.681-13.547-4.108-18.225,1.278C115.906,130.129,116.478,138.292,121.863,142.972z"/>
	<path fill="#BCBEC0" d="M83.534,172.905c4.146-2.435,7.256-6.427,10.909-9.49c2.875-2.41,6.014-4.496,9.308-6.289
		c0.175-0.101,0.347-0.208,0.524-0.31c2.429-1.37,4.689-2.812,7.409-3.538c2.57-0.682,3.744,1.717,6.357,1.58
		c2.167-0.113,4.999-2.968,6.22-4.887c0.943-1.479,0.89-3.454-0.493-4.622c-3.485-2.95-9.036-0.773-12.673,0.729
		c-4.815,1.99-9.623,4.956-13.688,8.215c-4.203,3.366-8.318,6.95-12.074,10.814c-1.854,1.903-3.772,3.653-5.83,5.336
		c-1.839,1.505-3.278,3.231-5.667,2.883C76.665,175.349,80.49,174.695,83.534,172.905z"/>
	<path fill="#BCBEC0" d="M90.594,154.174c-2.764,3.016-5.714,5.851-8.075,9.215c-0.006,0.012-0.003,0.021-0.012,0.032
		c1.218-0.918,2.373-1.912,3.497-2.926c3.531-3.192,6.735-6.687,10.428-9.72c1.105-0.907,2.242-1.763,3.413-2.567
		c4.484-3.431,10.647-7.2,17.366-6.184c-6.685-1.566-13.791,1.374-18.293,4.62C95.867,148.849,93.11,151.425,90.594,154.174z"/>
	<path fill="#BCBEC0" d="M82.547,159.769c3.847-6.47,7.899-12.2,14.119-16.62c0.921-0.66,1.886-1.273,2.875-1.844
		c-2.66,1.113-5.186,2.494-7.528,4.267c-3.984,3.028-7.309,7.024-10.079,11.162c-2.367,3.531-4.406,7.265-6.623,10.892
		c-0.44,0.724-0.927,1.489-1.464,2.231C77.923,168.004,80.371,163.426,82.547,159.769z"/>
	<path fill="#BCBEC0" d="M260.596,135.452c-0.571-0.22-1.167-0.424-1.773-0.596c2.427,1.859,4.075,4.633,5.03,7.622
		c1.174,3.683,1.208,7.544,0.937,11.382c1.708,0.716,3.481,1.324,5.286,1.825c7.007,1.267,14.26,1.157,21.157-0.694
		c4.293-1.152,8.829-2.702,12.214-5.69c3.145-2.769,5.021-6.447,3.481-10.244c-0.072,0.84-0.281,1.658-0.777,2.446
		c-1.259,1.999-3.838,3.318-5.901,4.283c-4.708,2.201-10.082,2.963-15.209,2.231c-5.457-0.772-10.681-2.978-15.189-6.102
		C267.065,139.988,263.952,137.112,260.596,135.452z"/>
	<path fill="#BCBEC0" d="M260.49,133.481c7.334,0,13.278-5.95,13.278-13.281c0-7.335-5.944-13.283-13.278-13.283
		c-7.335,0-13.282,5.948-13.282,13.283C247.208,127.532,253.155,133.481,260.49,133.481z"/>
	<path fill="#BCBEC0" d="M262.7,142.162c-0.952-4.036-4.317-7.81-8.093-8.647c0.047,0.1,0.081,0.202,0.125,0.302
		c2.061,3.204,0.993,8.462-0.737,11.492c-0.777,1.367-1.813,2.517-3.072,3.254c-1.28,0.749-2.413,1.349-3.952,1.046
		c-1.115-0.222-2.258-0.905-3.132-1.706c-0.978,2.404-1.958,4.812-2.988,7.198c2.683,2.423,5.717,4.113,9.227,5.343
		c0.462,0.161,0.934,0.3,1.408,0.426c0.06,0.014,0.115,0.03,0.172,0.044c2.235,0.499,4.549,0.854,6.834,1
		c0.506,0.032,1.037,0.044,1.571,0.03c0.824-0.066,1.62-0.241,2.326-0.584C263.978,155.113,264.221,148.588,262.7,142.162z"/>
	<path fill="#BCBEC0" d="M256.371,162.677c-2.217-0.223-4.414-0.699-6.55-1.311c-3.21-0.918-7.06-2.287-9.633-4.736
		c-1.626,3.658-3.422,7.228-5.602,10.576c-1.433,2.469-2.963,4.889-4.09,7.521c-0.331,0.771-0.368,1.623-0.652,2.394
		c0.266-0.729,0.658-1.437,1.227-2.119c4.453-5.389,12.933-4.391,19.053-3.495c0.749,0.11,7.162,1.64,7.271,1.447
		c2.033-3.557,3.635-6.665,4.725-10.55C260.296,162.998,258.238,162.865,256.371,162.677z"/>
	<path fill="#BCBEC0" d="M298.101,209.879c-1.026-1.891-1.957-3.836-2.862-5.769c-2.011-4.275-4.072-8.484-6.632-12.462
		c-0.766-1.189-1.58-2.318-2.454-3.395c-2.729-3.005-5.864-5.57-9.63-7.496c-4.471-2.286-9.363-3.826-14.228-5.032
		c-2.17-0.53-4.344-1.047-6.522-1.531c-2.508-0.556-5.024-1.076-7.565-1.443c-4.037-0.584-8.596-1.083-12.573,0.089
		c-1.48,0.438-2.823,1.2-3.794,2.414c-0.812,1.015-1.82,2.721-1.995,4.03c-0.662,4.913,4.898,7.951,8.893,9
		c1.62,0.427,3.256,0.676,4.896,0.813c8.027,0.667,16.242-1.432,24.194,0.524c6.066,1.488,9.979,5.285,13.801,10.029
		c2.183,2.715,5.049,6.327,8.352,9.662c-4.483,0.021-8.941,0.696-13.332,1.695c-5.691,1.292-11.103,3.532-16.383,5.968
		c-5.688,2.62-11.04,5.479-16.173,9.083c-4.771,3.346-9.639,6.555-14.382,9.946c-2.572,1.839-5.332,3.365-8.07,4.948
		c-2.823,1.637-5.546,3.527-8.44,5.024c-9.27,4.802-19.586,9.444-30.158,10.513c1.833-0.02,3.669-0.175,5.458-0.381
		c4.908-0.553,9.819-1.212,14.606-2.436c10.051-2.574,19.03-7.475,27.754-12.97c4.955-3.12,9.791-6.436,14.69-9.653
		c2.436-1.692,4.937-3.276,7.493-4.763c1.165-0.709,2.339-1.405,3.522-2.079c5.866-3.353,12.111-5.867,18.533-7.853
		c3.763-1.254,7.716-2.303,11.678-3.014c6.214-1.498,12.661-2.051,19.064-1.75c-0.898-0.27-1.792-0.545-2.669-0.799
		C301.511,210.322,299.809,210.069,298.101,209.879z"/>
	<path fill="#BCBEC0" d="M224.608,155.93c1.893,2.764,4.468,5.71,7.625,7.178c-2.17-2.331-3.591-5.444-4.468-8.405
		c-0.868-2.92-1.131-6.069-0.234-9.01c0.671-2.196,2.123-4.983,4.577-5.597c2.491-0.63,4.937,1.133,7.031,2.209
		c4.109,2.781,6.385,7.157,10.247,5.701c4.978-1.878,5.717-9.653,5.305-12.715c-0.303-2.266-2.497-2.606-4.333-3.151
		c-1.415-0.421-2.819-0.859-4.234-1.262c-2.916-0.827-5.816-1.298-8.82-1.642c-3.16-0.364-6.479-0.614-9.616,0.037
		c-1.559,0.318-3.332,1.063-4.584,2.047c-0.721,0.566-1.32,1.225-1.808,1.951c-2.195,3.271-2.211,7.914-1.445,11.596
		C220.675,148.826,222.326,152.596,224.608,155.93z"/>
	<path fill="#BCBEC0" d="M136.469,171.611c-0.234,0.034-0.465,0.071-0.699,0.115c-2.158,0.387-6.198,0.98-8.228,1.805
		c-10.584,4.284-16.438,8.167-19.614,18.997c-1.14,3.894-1.024,8.125-1.602,12.119c-1.361,9.426-7.519,17.951-16.345,21.698
		c-2.794,1.185-5.739,2.131-8.67,2.913c4.79-0.347,9.816-0.311,14.25-2.344c11.19-5.13,15.54-17.688,18.119-28.834
		c0.871-3.753,1.967-7.812,3.981-11.141C121.701,180.265,129.8,175.376,136.469,171.611z"/>
	<path fill="#BCBEC0" d="M96.647,218.19c2.426-3.61,3.815-7.725,4.63-11.971c0.846-4.396,0.225-8.873,0.958-13.279
		c0.634-3.821,2.089-7.613,4.693-10.492c-2.164,1.604-4.19,3.272-5.576,5.537c-0.253,0.412-0.481,0.84-0.687,1.295
		c-3.35,7.342-1.608,15.974-5.124,23.274c-1.14,2.364-2.991,4.365-5.261,5.705c-2.691,1.589-6.123,2.595-9.214,3.005
		c-2.317,0.311-4.693,0.345-7.025,0.482c-2.632,0.154-4.934,0.584-7.462,1.312c-4.203,1.208-8.068,3.271-11.568,5.879
		c-3.272,2.438-6.182,5.519-8.399,8.939c-1.111,1.716-1.945,3.612-2.698,5.506c-0.608,1.531-1.427,2.938-1.389,4.616
		c0.003,0.097,0.153,0.019,0.156-0.05c0.084-2.113,1.676-4.66,2.641-6.544c1.018-1.991,2.292-3.828,3.778-5.499
		c3.05-3.422,6.972-5.707,11.353-6.978c8.599-2.495,17.822-1.048,26.346-3.888C90.541,223.795,94.406,221.523,96.647,218.19z"/>
	<path fill="#BCBEC0" d="M200.813,242.021c3.578-1.849,6.966-4.078,10.563-5.891c-3.44,1.731-7.318,3.074-10.896,4.595
		c-5.161,2.193-10.4,3.712-16.049,3.644c-14.928-0.185-32.659-5.479-41.186-18.631c-2.123-3.278-4.255-7.443-5.136-11.27
		c-1.136-4.923-1.024-10.499,0.337-15.348c0.656-2.331,1.805-4.523,2.694-6.77c0.06-0.148,0.116-0.305,0.172-0.456
		c-1.733,1.989-3.291,4.115-4.552,6.433c-0.038,0.068-0.072,0.139-0.106,0.206c-1.945,4.547-2.426,9.3-2.301,14.262
		c0.271,10.77,7.069,19.376,15.265,25.656c5.389,4.131,12.068,5.972,18.656,7.108c7.069,1.213,14.45,1.863,21.525,0.342
		C193.526,245.099,197.416,243.774,200.813,242.021z"/>
	<path fill="#BCBEC0" d="M126.035,231.157c-6.507-11.82-6.529-27.563,1.633-38.217c-10.806,9.333-14.291,26.199-7.896,39.017
		c4.049,8.111,10.11,14.022,18.284,17.9c3.928,1.862,8.305,2.858,12.564,3.59c2.816,0.489,5.661,0.91,8.508,1.27
		c-4.505-1.442-8.889-3.272-13.001-5.45C138.043,244.986,130.521,239.313,126.035,231.157z"/>
	<path fill="#BCBEC0" d="M153.954,155.527c-0.497,5.201-1.951,10.209-5.161,14.405c-3.581,4.688-8.28,8.194-12.711,12.012
		c-0.805,0.696-1.614,1.408-2.438,2.123c1.408-1.218,3.491-2.026,5.108-2.944c6.869-3.901,13.451-9.267,16.139-16.971
		c0.846-2.43,1.346-5.24,1.434-7.809c0.115-3.612-0.687-6.931-1.789-10.238C154.641,149.284,154.235,152.563,153.954,155.527z"/>
	<path fill="#BCBEC0" d="M149.958,197.087c-0.927-16.986,5.714-28.417,5.714-28.417
		C146.404,181.183,149.958,197.087,149.958,197.087z"/>
</g>
</svg>
