<?xml version="1.0" encoding="utf-8"?>
<!-- Generator: Adobe Illustrator 16.0.0, SVG Export Plug-In . SVG Version: 6.00 Build 0)  -->
<!DOCTYPE svg PUBLIC "-//W3C//DTD SVG 1.1 Tiny//EN" "http://www.w3.org/Graphics/SVG/1.1/DTD/svg11-tiny.dtd">
<svg version="1.1" baseProfile="tiny" id="Layer_1" xmlns="http://www.w3.org/2000/svg" xmlns:xlink="http://www.w3.org/1999/xlink"
	 x="0px" y="0px" width="350px" height="350px" viewBox="0 0 350 350" overflow="scroll" xml:space="preserve">
<g>
	<path fill="#FCD087" d="M112.266,183.096L96.04,214.97c0,0,0.386,0.192,2.512,0c2.125-0.194,32.453-27.818,32.453-27.818
		L112.266,183.096z"/>
	<path fill="#FCD087" d="M82.276,211.443c0,0,1.594-8.577,13.764-8.272s23.905,10.279,23.326,11.884s-11.88,5.661-21.442,6.096
		S81.551,215.21,82.276,211.443z"/>
	<path fill="#F3899F" d="M115.723,210.885c-2.532,1.847-12.366,5.077-20.841,5.462c-5.359,0.243-9.852-1.651-12.64-4.027
		c0.335,3.797,6.825,9.233,15.681,8.831c9.562-0.435,20.863-4.491,21.442-6.096C119.575,214.475,118.17,212.801,115.723,210.885z"/>
	<path fill="#F3899F" d="M67.063,177.809c0,0-8.307-1.545-5.988-5.022c2.318-3.477,81.326,8.5,119.961,11.591
		c38.635,3.09,93.11,5.602,104.121,7.92c11.012,2.318,27.431,6.535,23.567,9.448c-3.863,2.915-160.528-11.443-192.016-14.792
		C85.222,183.604,67.063,177.809,67.063,177.809z"/>
	<path fill="#A9977E" d="M301.964,196.613c-30.897-0.557-157.324-12.189-185.255-15.16c-31.487-3.349-49.646-9.144-49.646-9.144
		s-0.243-0.045-0.629-0.137c-3.124-0.063-5.028,0.117-5.359,0.614c-2.318,3.478,5.988,5.022,5.988,5.022s18.159,5.795,49.646,9.145
		c31.487,3.349,188.152,17.707,192.016,14.792C310.726,200.236,307.278,198.377,301.964,196.613z"/>
	<g>
		<path fill="#F3899F" d="M76.301,160.665l-19.757-36.337c-0.229-0.421-0.073-0.949,0.349-1.179
			c0.421-0.229,0.949-0.073,1.179,0.349l18.685,34.365l4.536-4.229l-5.712-33.956l19.308,24.899
			c0.294,0.379,0.225,0.925-0.154,1.219c-0.379,0.294-0.925,0.226-1.22-0.154l-15.072-19.438l4.721,28.063L76.301,160.665z"/>
	</g>
	<g>
		<path fill="#F3899F" d="M131.643,144.216l-11.133-1.82l-10.854-12.44l1.346,9.873c0.065,0.476-0.268,0.914-0.744,0.979
			c-0.479,0.064-0.915-0.269-0.979-0.744l-2.13-15.626l14.258,16.343l8.958,1.464l3.469-13.145c0.122-0.464,0.596-0.742,1.062-0.619
			c0.464,0.123,0.741,0.598,0.619,1.063L131.643,144.216z"/>
	</g>
	<g>
		<path fill="#F3899F" d="M157.521,157.383l3.023-25.887l-20.401,22.175c-0.325,0.354-0.875,0.376-1.228,0.051
			c-0.353-0.325-0.376-0.875-0.051-1.228l24.029-26.118l-3.159,27.042l29.649-23.426c0.376-0.298,0.924-0.233,1.221,0.143
			c0.297,0.377,0.233,0.924-0.145,1.221L157.521,157.383z"/>
	</g>
	<g>
		<path fill="#F3899F" d="M238.084,186.746l-2.476-57.89c-0.018-0.42,0.356-0.773,0.836-0.789c0.479-0.01,0.884,0.312,0.901,0.732
			l2.116,49.48l18.675-49.267l3.741,56.096c0.028,0.418-0.338,0.778-0.816,0.804c-0.481,0.022-0.891-0.297-0.919-0.716
			l-3.213-48.167L238.084,186.746z"/>
	</g>
	<path fill="#FCD087" d="M73.825,162.548c-0.576-7.105-0.58-18.738,12.363-25.692s45.782,4.057,45.782,4.057l4.83-2.511h18.158
		c0,0,1.739,3.478,1.159,5.409c-0.58,1.932-1.545,4.74-1.545,4.74l11.205-1.649c0,0,3.67-3.67,6.181-3.863
		c2.511-0.193,13.027,2.704,13.027,2.704s1.462,3.864,0.882,5.409c-0.579,1.545-0.579,1.545-0.579,1.545l1.546,0.772
		c0,0,2.896-5.78,4.442-4.918s47.327,17.282,47.327,17.282s8.308-9.272,12.558-18.352c4.249-9.079,8.499-12.75,14.487-13.715
		s12.75,15.647,14.102,27.817c1.352,12.17-2.617,27.224-13.188,28.68s-78.107-1.871-115.08-5.306
		C113.522,181.431,75.828,187.277,73.825,162.548z"/>
	<g>
		<path fill="#A9977E" d="M132.918,140.419c5.872,1.565,14.236,3.899,22.206,6.493c0.315-0.945,0.702-2.134,0.993-3.103
			c0.228-0.757,0.097-1.751-0.144-2.681c-7.761-0.845-15.085-1.501-20.655-1.958L132.918,140.419z"/>
	</g>
	<path fill="#F3899F" d="M279.68,161.026c-1.138,9.234-5.1,20.998-12.882,22.069c-10.572,1.455-79.231-0.621-116.203-4.055
		c-37.165-3.452-73.184-2.498-76.593-25.475c-0.514,3.293-0.385,6.43-0.177,8.981c2.003,24.729,39.847,20.074,77.806,23.601
		c36.971,3.434,104.357,5.569,114.929,4.113s14.54-16.509,13.188-28.68C279.728,161.399,279.702,161.211,279.68,161.026z"/>
	<path fill="#A9977E" d="M204.005,153.331c-6.901-2.521-12.221-4.496-12.73-4.78c-1.546-0.862-4.442,4.918-4.442,4.918l-1.546-0.772
		c0,0,0,0,0.579-1.545c0.58-1.545-0.882-5.409-0.882-5.409s-3.186-0.877-6.471-1.635c-2.201-0.36-4.478-0.705-6.796-1.032
		c-2.498,0.39-5.941,3.826-5.941,3.826l-7.408,1.091c7.27,2.473,13.855,5.111,17.418,7.502c7.641,5.127,26.476,27.225,35.604,37.648
		c9.308,0.492,20.105,1.818,28.209,2.11C230.124,183.557,211.393,161.054,204.005,153.331z"/>
	<path fill="#FCD087" d="M134.674,185.255l15.261,47.134h2.511c0,0,6.94-40.794,7.339-43.821
		C160.185,185.541,134.674,185.255,134.674,185.255z"/>
	<path fill="#FCD087" d="M140.518,226.353c0,0-3.767-3.209-1.739-9.139c2.029-5.93,12.17-7.668,19.994-4.19
		c7.823,3.477,20.675,11.3,18.088,14.053s-8.297,5.949-19.172,6.085C146.313,233.304,140.518,226.353,140.518,226.353z"/>
	<path fill="#F3899F" d="M174.333,222.334c-3.204,2.074-8.461,3.91-16.644,4.012c-11.376,0.143-17.171-6.809-17.171-6.809
		s-0.99-0.847-1.681-2.469c-0.018,0.05-0.041,0.096-0.058,0.146c-2.028,5.93,1.739,9.139,1.739,9.139s5.795,6.951,17.171,6.809
		c10.875-0.136,16.585-3.332,19.172-6.085C177.832,226.043,176.629,224.297,174.333,222.334z"/>
	<ellipse fill="#F3899F" cx="87.767" cy="156.584" rx="9.997" ry="14.995"/>
	<path fill="#90D3D2" d="M156.116,143.81c0.418-1.394-0.369-3.587-0.841-4.703l-0.406-0.706h-18.07l-4.83,2.511l22.601,7.638
		C154.571,148.55,155.537,145.742,156.116,143.81z"/>
	<path fill="#90D3D2" d="M185.865,151.151c0.58-1.545-0.882-5.409-0.882-5.409s-10.516-2.897-13.027-2.704
		c-2.511,0.193-6.181,3.863-6.181,3.863l19.511,5.795C185.286,152.696,185.286,152.696,185.865,151.151z"/>
	<polygon fill="#FFFFFF" points="146.615,145.862 150.595,147.206 146.784,138.401 143.127,138.401 	"/>
	<path fill="#FFFFFF" d="M179.709,151.04l3.87,1.149l-3.317-7.667c-1.305-0.318-2.718-0.646-4.026-0.914L179.709,151.04z"/>
	<polygon fill="#FFFFFF" points="142.228,144.379 144.631,145.191 141.692,138.401 139.433,138.401 	"/>
	<path fill="#FFFFFF" d="M175.024,143.374c-0.581-0.105-1.118-0.191-1.594-0.251l3.286,7.028l1.425,0.423L175.024,143.374z"/>
	<path fill="#A9977E" d="M240.147,168.537c0,0-2.599-0.039,3.5,4.303c6.099,4.341,23.569,7.339,37.316,11.681
		c13.749,4.342,30.299-0.506,29.983-2.785C310.632,179.455,240.147,168.537,240.147,168.537z"/>
	<path fill="#F3899F" d="M240.147,168.537c0,0,70.702,9.272,71.089,12.557c0.386,3.283-23.567,1.931-32.84,0
		C269.124,179.161,240.727,169.502,240.147,168.537z"/>
	<path fill="#FCD087" d="M80.036,130.495c0,0-10.13-1.67-25.716-4.008c-15.585-2.338-21.375-3.896-18.814-7.792
		c2.561-3.896,237.289-0.431,250.617-0.576c13.331-0.145,33.323,6.788,28.108,12.376c-5.216,5.589-75.918,4.429-100.548,5.299
		C189.054,136.663,80.036,130.495,80.036,130.495z"/>
	<path fill="#A9977E" d="M313.35,125.641c-20.934,2.753-71.505,2.117-91.554,2.825c-24.63,0.869-133.647-5.299-133.647-5.299
		s-10.13-1.67-25.716-4.007c-4.225-0.634-7.724-1.21-10.538-1.792c-9.954,0.291-15.99,0.72-16.389,1.327
		c-2.561,3.896,3.229,5.455,18.814,7.792c15.586,2.338,25.716,4.008,25.716,4.008s109.018,6.168,133.647,5.299
		c24.63-0.87,95.332,0.29,100.548-5.299C315.698,128.921,315.169,127.24,313.35,125.641z"/>
	<path fill="#90D3D2" d="M72.556,120.782c0,0,0.42-2.171,2.521-1.681c2.102,0.49,9.246,30.679,9.246,30.679s2.381,1.471,2.732,4.553
		c0.35,3.082-1.121,4.903-1.121,4.903l9.036,32.151c0,0,0.561,2.171-0.56,3.361c-1.121,1.191-3.012,0.07-3.502-1.261
		c-0.49-1.33-7.705-32.29-7.705-32.29s-1.681,0.21-2.591-1.891c0,0,2.591-1.26,2.591-4.272c0-3.012-2.597-4.523-5.081-2.402
		C78.122,152.632,72.346,122.183,72.556,120.782z"/>
	<path fill="#A9977E" d="M79.049,152.005c0,0-3.758,1.199-4.177,3.064s1.968,4.139,5.739,4.237S85.319,149.82,79.049,152.005z"/>
</g>
</svg>
