<?xml version="1.0" encoding="utf-8"?>
<!-- Generator: Adobe Illustrator 16.0.0, SVG Export Plug-In . SVG Version: 6.00 Build 0)  -->
<!DOCTYPE svg PUBLIC "-//W3C//DTD SVG 1.1 Tiny//EN" "http://www.w3.org/Graphics/SVG/1.1/DTD/svg11-tiny.dtd">
<svg version="1.1" baseProfile="tiny" id="Layer_1" xmlns="http://www.w3.org/2000/svg" xmlns:xlink="http://www.w3.org/1999/xlink"
	 x="0px" y="0px" width="350px" height="350px" viewBox="0 0 350 350" overflow="scroll" xml:space="preserve">
<g>
	<g>
		<path fill="#EB9347" d="M272.283,90.87c-0.113-14.699-12.059-26.582-26.785-26.582H233.84v19.224h20.014
			C260.996,83.513,267.48,86.313,272.283,90.87z"/>
	</g>
	<g>
		
			<rect x="200.179" y="242.114" transform="matrix(0.9865 -0.1639 0.1639 0.9865 -39.3625 36.8117)" fill="#EB9347" width="6.423" height="29.642"/>
		<rect x="188.865" y="269.571" fill="#EB9347" width="41.477" height="5.209"/>
		<path fill="#EB9347" d="M230.342,269.546h0.293c2.729,0,4.941,2.212,4.941,4.942v0.292h-5.234V269.546z"/>
		<path fill="#EB9347" d="M188.572,269.546h0.293v5.234h-5.236v-0.292C183.629,271.758,185.842,269.546,188.572,269.546z"/>
		<path fill="#734E30" d="M199.637,244.993h-0.998c-4.656,0-8.432-3.775-8.432-8.432v-22.859h17.861v22.859
			C208.068,241.218,204.293,244.993,199.637,244.993z"/>
		<path fill="#734E30" d="M242.393,74.801c-2.082-10.271-12.096-16.911-22.367-14.829c-6.143,1.245-10.984,5.328-13.441,10.605
			l-25.867,44.049l-0.006-0.002l-0.143,0.238c-0.051,0.086-0.102,0.172-0.152,0.258l-54.239,90.946
			c11.474,13.325,27.669,22.1,45.405,24.21c7.309,0.87,14.879,0.612,22.486-0.929c38.396-7.782,63.213-45.216,55.432-83.611
			l-11.146-55.003C241.916,86.464,243.582,80.676,242.393,74.801z"/>
		<g>
			<path fill="#FFFFFF" d="M242.393,74.801c-2.082-10.271-12.096-16.911-22.367-14.829c-6.143,1.245-10.984,5.328-13.441,10.605
				l-25.867,44.049l-0.006-0.002l-0.143,0.238c-0.008,0.014-0.016,0.027-0.023,0.041c9.1,12.484,23.828,20.604,40.459,20.604
				c9.133,0,17.688-2.459,25.059-6.733l-7.709-38.039C241.916,86.464,243.582,80.676,242.393,74.801z"/>
		</g>
		<path fill="#9B5E34" d="M229.244,136.119c0.084-0.297,0.17-0.593,0.246-0.894v-0.002l0,0c0.947-3.761,1.088-7.786,0.268-11.84
			c-2.939-14.501-17.076-23.874-31.576-20.935c-7.555,1.531-13.709,6.103-17.465,12.178l-0.006-0.002l-0.143,0.238
			c-0.051,0.086-0.102,0.172-0.152,0.258L77.717,287.323c6.638,4.401,15.345,4.069,21.63-0.822l102.854-80.057l-0.002-0.006
			c5.912-4.271,10.268-10.379,12.383-17.322v0.001l0.055-0.194c0.139-0.464,0.27-0.931,0.387-1.401L229.244,136.119z"/>
		<circle fill="#1C0C0F" cx="222.637" cy="72.858" r="4.271"/>
	</g>
</g>
</svg>
