<?xml version="1.0" encoding="utf-8"?>
<!-- Generator: Adobe Illustrator 16.0.0, SVG Export Plug-In . SVG Version: 6.00 Build 0)  -->
<!DOCTYPE svg PUBLIC "-//W3C//DTD SVG 1.1//EN" "http://www.w3.org/Graphics/SVG/1.1/DTD/svg11.dtd">
<svg version="1.1" id="Layer_1" xmlns="http://www.w3.org/2000/svg" xmlns:xlink="http://www.w3.org/1999/xlink" x="0px" y="0px"
	 width="350px" height="350px" viewBox="0 0 350 350" enable-background="new 0 0 350 350" xml:space="preserve">
<g>
	<g>
		<path d="M230.478,248.937c-0.7-4.145-1.494-8.841-3.474-12.771c-0.853-1.693-1.991-2.624-3.206-2.624c-1.257,0-2.342,1-2.98,2.682
			c-0.604-0.78-1.545-1.904-2.687-1.904h-0.001c-0.703,0.017-1.115,0.324-1.38,0.694c-2.426-3.796-5.507-7.132-8.971-9.703
			c-4.065-6.069-7.996-12.651-7.843-20.505c0.006-0.278-0.094-0.536-0.279-0.725c-0.188-0.19-0.455-0.301-0.732-0.301
			c-0.432,0-0.794,0.247-0.954,0.613l-27.14,6.977c-0.086-0.031-0.177-0.049-0.271-0.049c-0.25,0-0.479,0.117-0.627,0.323
			c-4.546,6.309-10.85,9.35-17.524,12.57c-1.863,0.897-3.789,1.826-5.684,2.835c-5.283,2.81-9.241,6.391-11.776,10.653
			c-1.55-2.273-3.205-4.224-4.912-4.224c-0.136,0-0.271,0.013-0.402,0.039c-1.84,0.363-1.679,2.376-1.618,3.134
			c0.162,2.016,0.655,4.223,1.473,6.594c-0.896-1.073-1.8-2.119-2.707-3.127c-0.193-0.216-0.425-0.499-0.688-0.819
			c-1.375-1.68-3.454-4.217-5.64-4.217c-0.687,0-1.324,0.249-1.891,0.738c-2.499,2.157-0.863,6.939,0.016,9.51l0.141,0.413
			c1.263,3.749,3.296,7.468,6.04,11.054c2.743,3.584,5.914,6.936,9.241,9.773c-7.381-3.249-12.691-8.296-15.803-15.031
			c-0.162-0.35-0.36-0.88-0.589-1.495c-1.101-2.951-2.766-7.411-5.737-7.411c-0.29,0-0.584,0.044-0.877,0.133
			c-1.246,0.374-2.497,1.497-2.367,4.529c-0.813-1.238-1.759-2.393-2.998-3.318c-0.666-0.497-1.366-0.761-2.028-0.761
			c-0.962,0-1.783,0.551-2.312,1.549c-0.363,0.685-0.515,1.533-0.457,2.564c-1.024-1.247-2.192-2.323-3.747-3.002
			c-0.141-0.062-0.295-0.094-0.446-0.094c-0.373,0-0.692,0.191-0.855,0.515c-0.749,1.491-1.038,3.018-0.869,4.47l-0.094-0.098
			c-0.963-0.99-2.417-2.485-3.877-2.485c-0.593,0-1.428,0.251-2.033,1.453c-1.422,2.822,1.192,7.14,2.382,8.865
			c2.442,3.539,5.856,6.342,8.213,8.142c10.369,7.925,24.457,12.468,38.652,12.468c1.127,0,2.265-0.029,3.384-0.086
			c0.974,1,2.061,1.962,3.311,2.929c1.145,5.383,4.381,10.146,8.728,12.856c-0.143,1.007-0.137,2.031-0.108,2.92
			c0.012,0.387,0.046,0.781,0.104,1.197c-3.403,4.069-6.574,10.938-4.553,17.272c0.098,0.308,0.213,0.621,0.339,0.929l0.058,0.138
			c0.146,0.344,0.279,0.628,0.418,0.895c0.266,0.506,0.764,0.808,1.332,0.808c0.719,0,1.373-0.467,1.59-1.135
			c0.114-0.345,0.219-0.692,0.321-1.037l0.031-0.104c0.328-1.125,0.613-2.269,0.89-3.374c0.277-1.115,0.566-2.268,0.895-3.39
			c0.401-1.364,0.996-2.739,1.851-4.271c0.545,0.749,1.131,1.478,1.702,2.19c0.739,0.922,1.437,1.794,2.042,2.686
			c0.951,1.4,1.8,2.79,2.596,4.249c0.5,0.919,1.107,1.722,1.692,2.498l0.069,0.091c0.219,0.292,0.437,0.584,0.649,0.883l0.08,0.116
			c0.247,0.351,0.429,0.628,0.588,0.895c0.254,0.426,0.706,0.68,1.212,0.68c0.396,0,0.777-0.157,1.044-0.431
			c0.254-0.261,0.389-0.609,0.381-0.983c-0.006-0.242-0.006-0.477-0.004-0.705l0.008-0.58c0.024-1.315,0.046-2.559-0.511-4.008
			c-0.762-1.982-1.838-3.834-2.69-5.225l-0.1-0.163c-0.364-0.592-0.754-1.229-1.17-1.884c0.716,0.23,1.423,0.487,2.114,0.77
			c1.598,0.651,3.235,1.454,5.008,2.454c0.424,0.239,0.806,0.434,1.169,0.593c0.148,0.065,0.292,0.124,0.433,0.178l0.187,0.066
			c0.095,0.034,0.19,0.066,0.319,0.107l0.15,0.046c0.115,0.034,0.233,0.065,0.367,0.1l0.132,0.033
			c0.138,0.032,0.281,0.063,0.427,0.094c0,0,0.423,0.08,0.563,0.106l0.722,0.123c0.032,0.005,0.075,0.008,0.108,0.008
			c0.21,0,0.41-0.098,0.536-0.262c0.118-0.154,0.166-0.396,0.118-0.583c-0.482-1.805-0.864-2.794-2.295-4.067
			c0,0-0.155-0.142-0.204-0.183c-0.854-0.726-1.783-1.417-2.76-2.059c-0.155-0.264-0.419-0.436-0.721-0.456
			c-0.654-0.402-1.217-0.72-1.763-0.997c-2.195-1.111-5.024-2.44-7.834-3.086c0.02-0.072,0.039-0.146,0.057-0.219
			c0.091-0.376,0.196-0.751,0.298-1.122c0.035-0.122,0.068-0.244,0.102-0.366c0.194,0.006,0.388,0.01,0.58,0.01
			c4.752,0,9.167-2.024,11.884-5.433c1.072,0.056,2.154,0.082,3.219,0.082c2.063,0,4.122-0.104,6.127-0.31
			c2.251,2.058,4.765,3.381,7.315,3.853c0.055,0.477,0.138,0.999,0.252,1.607c0.071,0.381,0.166,0.766,0.288,1.168
			c-2.734,4.544-4.807,11.82-1.833,17.768c0.143,0.284,0.305,0.577,0.479,0.864l0.079,0.128c0.197,0.316,0.371,0.577,0.551,0.819
			c0.292,0.394,0.717,0.611,1.198,0.611c0.792,0,1.512-0.609,1.639-1.387c0.059-0.357,0.11-0.716,0.157-1.072l0.013-0.109
			c0.151-1.16,0.257-2.335,0.359-3.471c0.104-1.144,0.209-2.328,0.362-3.486c0.185-1.41,0.56-2.859,1.169-4.506
			c0.655,0.656,1.347,1.287,2.021,1.904c0.872,0.796,1.696,1.549,2.432,2.337c1.158,1.238,2.212,2.481,3.22,3.798
			c0.636,0.829,1.357,1.528,2.054,2.204l0.086,0.082c0.262,0.254,0.522,0.51,0.778,0.771l0.098,0.104
			c0.297,0.309,0.52,0.553,0.719,0.794c0.265,0.319,0.656,0.502,1.074,0.502c0.434,0,0.855-0.194,1.128-0.521
			c0.26-0.312,0.362-0.706,0.29-1.114c-0.044-0.237-0.079-0.468-0.113-0.697l-0.077-0.535c-0.084-0.602-0.164-1.169-0.298-1.747
			c-0.187-0.821-0.45-1.511-0.83-2.172c-1.06-1.844-2.408-3.505-3.465-4.748l-0.128-0.15c-0.448-0.526-0.933-1.094-1.441-1.675
			c0.744,0.117,1.481,0.263,2.207,0.434c1.682,0.398,3.423,0.94,5.326,1.653c0.459,0.173,0.87,0.307,1.256,0.407
			c0.151,0.041,0.3,0.076,0.45,0.107l0.191,0.036c0.098,0.02,0.196,0.036,0.314,0.054l0.174,0.025
			c0.118,0.016,0.239,0.028,0.407,0.044l0.105,0.01c0.142,0.011,0.287,0.021,0.436,0.027c0,0,0.43,0.015,0.557,0.018l0.752,0.011
			c0.231,0,0.443-0.115,0.569-0.308c0.114-0.176,0.135-0.444,0.051-0.637c-0.8-1.814-1.337-2.723-3.124-3.814
			c-0.954-0.584-1.978-1.124-3.047-1.608c-0.175-0.213-0.431-0.341-0.702-0.341c-0.026,0-0.053,0.001-0.078,0.003
			c-0.707-0.296-1.313-0.524-1.896-0.714c-2.341-0.761-5.341-1.636-8.215-1.842c0.007-0.074,0.015-0.148,0.021-0.223
			c0.031-0.383,0.076-0.763,0.12-1.141c0.083-0.712,0.168-1.446,0.169-2.171c2.971-2.098,5.118-5.445,5.938-9.27
			c6.002-4.022,10.259-9.369,12.677-15.909c0.731,1.245,1.838,2.539,3.602,3.152c0.569,0.197,1.15,0.297,1.729,0.297
			c2.073,0,4.178-1.339,5.63-3.581C232.06,261.31,231.331,253.982,230.478,248.937z"/>
		<g>
			<g>
				<path fill="#ECA700" d="M212.307,300.565c-1.758-1.074-3.634-1.963-5.593-2.599c-2.514-0.817-5.75-1.749-8.724-1.849
					c0.037-0.284,0.08-0.566,0.104-0.859c0.19-2.286,0.828-4.539-0.749-6.472c-1.058-1.293-3.108-1.541-4.406-0.447
					c-2.129,1.792-1.854,4.528-1.378,7.053c0.091,0.477,0.213,0.927,0.354,1.364c-3.41,5.498-4.979,13.619-0.902,19.126
					c0.524,0.71,1.599,0.281,1.726-0.504c0.438-2.707,0.532-5.41,0.889-8.121c0.256-1.954,0.837-3.771,1.558-5.557
					c1.604,1.74,3.582,3.289,5.132,4.948c1.151,1.234,2.232,2.505,3.26,3.845c1.13,1.472,2.552,2.527,3.719,3.937
					c0.493,0.594,1.545,0.163,1.403-0.626c-0.329-1.818-0.297-3.302-1.245-4.954c-0.949-1.649-2.167-3.205-3.399-4.652
					c-0.801-0.943-1.707-2.013-2.683-3.06c1.324,0.133,2.643,0.354,3.937,0.659c1.834,0.436,3.637,1.015,5.399,1.677
					c1.727,0.647,2.591,0.685,4.425,0.699c0.038,0,0.069-0.033,0.054-0.072C214.436,302.399,213.965,301.578,212.307,300.565z"/>
				<path fill="#BD7000" d="M212.307,300.565c-1.758-1.074-3.634-1.963-5.593-2.599c-2.514-0.817-5.75-1.749-8.724-1.849
					c0.037-0.284,0.08-0.566,0.104-0.859c0.19-2.286,0.828-4.539-0.749-6.472c-1.058-1.293-3.108-1.541-4.406-0.447
					c-2.129,1.792-1.854,4.528-1.378,7.053c0.091,0.477,0.213,0.927,0.354,1.364c-3.41,5.498-4.979,13.619-0.902,19.126
					c0.524,0.71,1.599,0.281,1.726-0.504c0.438-2.707,0.532-5.41,0.889-8.121c0.256-1.954,0.837-3.771,1.558-5.557
					c1.604,1.74,3.582,3.289,5.132,4.948c1.151,1.234,2.232,2.505,3.26,3.845c1.13,1.472,2.552,2.527,3.719,3.937
					c0.493,0.594,1.545,0.163,1.403-0.626c-0.329-1.818-0.297-3.302-1.245-4.954c-0.949-1.649-2.167-3.205-3.399-4.652
					c-0.801-0.943-1.707-2.013-2.683-3.06c1.324,0.133,2.643,0.354,3.937,0.659c1.834,0.436,3.637,1.015,5.399,1.677
					c1.727,0.647,2.591,0.685,4.425,0.699c0.038,0,0.069-0.033,0.054-0.072C214.436,302.399,213.965,301.578,212.307,300.565z
					 M210.981,302.748c-1.961-0.736-3.759-1.293-5.495-1.704c-1.318-0.313-2.678-0.541-4.037-0.679l-2.051-0.206l1.405,1.509
					c0.916,0.981,1.777,1.993,2.536,2.887l0.125,0.146c1.018,1.196,2.314,2.795,3.315,4.537c0.639,1.111,0.783,2.161,0.95,3.376
					c0.061,0.427,0.122,0.867,0.205,1.33l-0.032-0.013c-0.009,0.002-0.017,0.001-0.018,0c-0.558-0.678-1.176-1.276-1.774-1.856
					c-0.691-0.671-1.345-1.305-1.918-2.051c-1.039-1.355-2.123-2.633-3.309-3.903c-0.773-0.828-1.657-1.635-2.511-2.415
					c-0.893-0.814-1.814-1.658-2.619-2.529l-0.831-0.901l-0.458,1.137c-0.863,2.138-1.373,3.965-1.608,5.745
					c-0.155,1.188-0.263,2.385-0.366,3.543c-0.135,1.497-0.273,3.046-0.519,4.556c-0.017,0.106-0.135,0.194-0.232,0.21
					c-0.055,0.009-0.073-0.004-0.102-0.043c-3.884-5.245-2.236-13.142,0.937-18.256l0.189-0.307l-0.11-0.342
					c-0.145-0.447-0.254-0.862-0.331-1.271c-0.539-2.863-0.541-4.918,1.115-6.315c0.298-0.25,0.667-0.415,1.069-0.479
					c0.841-0.131,1.72,0.193,2.236,0.825c1.1,1.346,0.916,2.909,0.704,4.72c-0.047,0.396-0.094,0.796-0.126,1.197
					c-0.019,0.206-0.046,0.408-0.073,0.61l-0.137,1.062l0.853,0.027c2.902,0.097,6.073,1.019,8.511,1.811
					c1.84,0.598,3.664,1.445,5.427,2.521c1.111,0.681,1.601,1.22,2.086,2.149C212.943,303.334,212.2,303.205,210.981,302.748z"/>
				<path fill="#BD7000" d="M188.859,310.462c-0.129,0.201,0.127,0.485,0.321,0.304c0.988-0.929,2.293-0.981,3.439-0.353
					c0.411,0.228,0.731-0.43,0.383-0.698C191.714,308.722,189.727,309.131,188.859,310.462z M188.953,306.22
					c-0.1,0.174,0.11,0.44,0.283,0.268c0.998-1.001,2.546-1.096,3.615-0.174c0.326,0.281,0.833-0.241,0.524-0.555
					C192.139,304.5,189.849,304.646,188.953,306.22z M189.962,301.85c-0.052,0.106,0.102,0.217,0.188,0.137
					c0.598-0.56,1.534-0.537,2.225-0.176c0.678,0.354,1.104,0.962,1.679,1.44c0.35,0.291,0.722-0.207,0.509-0.535
					C193.66,301.334,190.998,299.729,189.962,301.85z M201.845,302.087c-1.519-0.628-4.286-1.086-4.45,1.279
					c-0.013,0.181,0.23,0.198,0.271,0.031c0.445-1.829,2.77-1.124,3.937-0.697C202.002,302.845,202.236,302.249,201.845,302.087z
					 M204.32,304.747c-1.362-0.836-3.982-0.565-3.813,1.496c0.011,0.146,0.239,0.136,0.255-0.006
					c0.085-0.77,0.792-1.207,1.503-1.271c0.643-0.059,1.225,0.218,1.845,0.319C204.396,305.334,204.574,304.904,204.32,304.747z
					 M206.134,307.144c-1.527-0.285-3.05,0.963-2.926,2.539c0.014,0.177,0.285,0.162,0.306-0.008c0.149-1.203,1.34-2.14,2.546-1.877
					C206.47,307.889,206.551,307.222,206.134,307.144z M205.407,297.668c-1.422,0.589-1.426,2.754-0.738,3.856
					c0.126,0.203,0.456-0.007,0.354-0.218c-0.28-0.573-0.342-1.21-0.148-1.822c0.181-0.568,0.568-0.895,0.908-1.354
					C205.971,297.878,205.687,297.554,205.407,297.668z M201.5,300.527c-0.152-1.147-0.238-2.244,0.668-3.123
					c0.345-0.333-0.12-0.917-0.476-0.584c-0.972,0.915-1.531,2.811-0.394,3.831C201.385,300.729,201.514,300.629,201.5,300.527z
					 M208.731,298.747c-1.18,0.704-1.443,2.481-0.808,3.613c0.105,0.189,0.439,0.127,0.391-0.115
					c-0.11-0.531-0.105-1.082,0.027-1.609c0.142-0.568,0.479-0.917,0.801-1.381C209.319,299.001,209.037,298.563,208.731,298.747z
					 M197.233,296.461c-1.425,1.072-3.026,1.152-4.579,0.261c-0.159-0.092-0.399,0.1-0.244,0.259
					c1.341,1.367,3.877,1.356,5.217-0.034C197.899,296.662,197.563,296.213,197.233,296.461z M197.904,294.167
					c0.267-0.214-0.004-0.586-0.299-0.483c-0.905,0.314-1.722,0.702-2.695,0.765c-1.052,0.068-2.057-0.163-3.049-0.491
					c-0.209-0.069-0.404,0.228-0.196,0.357C193.429,295.396,196.229,295.508,197.904,294.167z M194.448,299.684
					c0.086,0.516,0.177,1.058,0.382,1.542c0.11,0.261,0.529,0.139,0.479-0.143c-0.093-0.518-0.313-1.021-0.521-1.501
					C194.709,299.396,194.414,299.483,194.448,299.684z M198.509,298.991c0.296,0.363,0.592,0.729,0.889,1.092
					c0.275,0.338,0.53,0.72,0.872,0.994c0.286,0.229,0.611-0.17,0.42-0.443c-0.244-0.353-0.621-0.636-0.935-0.929
					c-0.34-0.317-0.68-0.636-1.02-0.954C198.596,298.619,198.393,298.848,198.509,298.991z"/>
				<path d="M190.574,313.641c-0.227,0.163-0.432,0.343-0.613,0.521c0.299,0.597,0.646,1.172,1.053,1.721
					c0.524,0.71,1.599,0.281,1.726-0.504c0.114-0.711,0.205-1.421,0.283-2.13c-0.261-0.11-0.516-0.165-0.762-0.176
					C191.631,313.045,191.057,313.298,190.574,313.641z M208.219,310.851c-0.288-0.011-0.546,0.014-0.777,0.071
					c-0.674,0.164-1.126,0.581-1.43,1.054c-0.153,0.241-0.27,0.495-0.356,0.736c0.566,0.548,1.129,1.1,1.641,1.719
					c0.493,0.594,1.545,0.163,1.403-0.626C208.505,312.739,208.434,311.789,208.219,310.851z M212.524,300.708
					c-0.23,0.167-0.405,0.362-0.532,0.576c-0.304,0.513-0.347,1.132-0.276,1.716c0.037,0.304,0.104,0.599,0.18,0.861
					c1.045,0.277,1.872,0.302,3.237,0.313c0.038,0,0.069-0.033,0.054-0.072C214.472,302.481,213.998,301.658,212.524,300.708z"/>
			</g>
			<g>
				<path fill="#009FD5" d="M180.22,285.019c3.258,5.304,8.566,8.647,13.568,7.965c5.17-0.706,10.188-6.254,10.737-13.272
					L180.22,285.019z"/>
				<path fill="#006AA2" d="M180.152,285.074c3.28,5.569,8.999,9.188,14.262,8.253c5.175-0.92,10.053-6.438,10.272-13.618
					c0.007-0.217-0.273-0.286-0.314-0.048c-1.113,6.438-5.134,11.553-9.901,12.735c-5.346,1.326-10.568-2.184-14.184-7.432
					C180.212,284.857,180.082,284.953,180.152,285.074L180.152,285.074z"/>
			</g>
			<g>
				<linearGradient id="SVGID_1_" gradientUnits="userSpaceOnUse" x1="115.3105" y1="260.1924" x2="106.8248" y2="242.1259">
					<stop  offset="0" style="stop-color:#009ED4"/>
					<stop  offset="1" style="stop-color:#00CFFF"/>
				</linearGradient>
				<path fill="url(#SVGID_1_)" d="M141.379,270.07c-10.247-1.375-19.597-8.221-24.003-17.573c-1.078-2.288-1.879-4.714-3.172-6.888
					c-0.628-1.058-1.679-2.172-2.874-1.882c-1.246,0.303-1.632,1.877-1.644,3.158c-0.021,2.262,0.394,4.524,1.204,6.636
					c-1.944-2.828-3.311-6.332-5.842-8.685c-0.341-0.317-0.727-0.624-1.188-0.693c-0.722-0.109-1.421,0.421-1.731,1.081
					c-0.309,0.66-0.308,1.42-0.258,2.148c0.106,1.557,0.416,3.098,0.902,4.58c-1.849-2.459-3.311-5.487-6.117-6.744
					c-1.452,2.189-1.211,5.354,0.556,7.299l2.012,2.417c-2.322-2.141-4.063-4.234-6.44-6.38c-0.585-0.53-1.346-1.097-2.088-0.828
					c-0.817,0.298-0.979,1.379-0.896,2.245c0.39,4.037,3.072,7.477,5.984,10.301c12.55,12.165,30.864,17.021,48.327,16.297
					L141.379,270.07z"/>
				
					<ellipse transform="matrix(0.8689 -0.495 0.495 0.8689 -111.8986 78.4524)" fill="#81E2FF" cx="92.166" cy="250.486" rx="0.89" ry="1.643"/>
				
					<ellipse transform="matrix(0.8681 -0.4964 0.4964 0.8681 -110.2097 81.3286)" fill="#81E2FF" cx="97.914" cy="248.023" rx="0.89" ry="1.642"/>
				
					<ellipse transform="matrix(0.9113 -0.4117 0.4117 0.9113 -92.4393 65.0176)" fill="#81E2FF" cx="104.689" cy="247.064" rx="0.889" ry="1.643"/>
				
					<ellipse transform="matrix(0.9594 -0.282 0.282 0.9594 -64.9262 41.6891)" fill="#81E2FF" cx="112.353" cy="246.38" rx="0.89" ry="1.644"/>
				<path fill="#0084BF" d="M95.786,260.263c12.55,12.165,30.864,17.021,48.327,16.297l-1.389-3.297
					c-0.97-0.022-1.964-0.042-2.996-0.057c-35.727-0.51-48.375-20.524-49.925-23.234C90.195,254.006,92.875,257.44,95.786,260.263z"
					/>
				<path fill="#006AA2" d="M144.113,276.444c-13.491-0.263-26.791-2.42-38.545-9.472c-5.517-3.309-12.484-8.296-14.651-14.655
					c-0.216-0.634-0.815-2.45-0.58-3.029c0.912-2.245,2.64-0.046,3.38,0.631c0.954,0.874,1.858,1.803,2.781,2.71
					c2.304,2.266,4.682,4.35,7.374,6.146c0.18,0.12,0.343-0.167,0.169-0.288c-2.519-1.741-4.62-3.756-6.687-5.868
					c0.051-0.056,0.073-0.135,0.018-0.204c-0.659-0.858-2.721-6.686-0.294-6.532c1.492,0.095,3.326,3.569,4.026,4.585
					c1.966,2.851,4.295,5.273,7.395,6.901c0.258,0.135,0.455-0.219,0.225-0.385c-2.488-1.786-4.352-3.795-6.107-6.175
					c-0.186-0.851-0.33-1.708-0.401-2.592c-0.052-0.524-0.072-1.051-0.063-1.578c1.229-1.831,2.258-2.168,3.089-1.013
					c1.4,0.862,2.479,3.463,3.283,4.871c1.57,2.753,3.235,5.543,6.183,6.975c0.319,0.155,0.588-0.288,0.281-0.479
					c-2.014-1.259-3.284-3.104-4.406-5.057c-0.251-0.989-0.434-1.988-0.523-3.039c-0.097-1.155-0.471-6.19,2.881-4.164
					c1.55,0.937,2.569,4.785,3.218,6.292c1.543,3.583,3.513,6.839,6.188,9.693c4.823,5.146,11.868,9.312,19.035,9.716
					c0.41,0.022,0.494-0.618,0.098-0.715c-10.358-2.512-19.219-7.919-23.841-17.921c-0.964-2.087-2.877-9.518-6.46-8.44
					c-2.477,0.746-2.129,4.283-1.394,7.145c-1.228-2.24-2.448-4.479-4.521-6.03c-1.243-0.929-2.621-0.928-3.42,0.583
					c-0.679,1.28-0.381,3.148,0.104,4.819c-0.053-0.076-0.106-0.149-0.16-0.226c-1.345-1.939-2.722-3.783-4.944-4.753
					c-0.171-0.075-0.401-0.063-0.498,0.13c-1.108,2.21-1.165,4.527,0.01,6.565c-0.609-0.631-1.22-1.267-1.844-1.905
					c-1.208-1.237-3.712-3.957-5.041-1.319c-1.207,2.396,1.038,6.347,2.339,8.232c2.153,3.122,5.081,5.713,8.079,8.003
					c12.287,9.389,28.907,13.48,44.227,12.072C144.258,276.662,144.264,276.447,144.113,276.444z"/>
			</g>
			<g>
				<linearGradient id="SVGID_2_" gradientUnits="userSpaceOnUse" x1="230.5332" y1="292.0527" x2="231.6282" y2="296.9801">
					<stop  offset="0" style="stop-color:#009ED4"/>
					<stop  offset="1" style="stop-color:#00CFFF"/>
				</linearGradient>
				<path fill="url(#SVGID_2_)" d="M229.588,250.58c-0.264-2.147-3.169-19.453-6.758-15.72c-0.778,0.81-1.304,1.818-1.493,2.957
					l-0.063,1.093c-0.605-1.025-1.285-2.003-2.047-2.903c-0.414-0.489-1.067-0.992-1.588-0.638c-0.51,0.346-0.454,1.281-0.995,1.566
					v0.005c-2.478-4.232-5.635-8.011-9.321-11.08l9.162,36.226c0.598,1.589,1.209,3.202,2.202,4.546
					c0.993,1.346,2.438,2.409,4.04,2.491c1.698,0.088,3.322-0.954,4.378-2.379C230.372,262.334,230.237,255.856,229.588,250.58z"/>
				
					<ellipse transform="matrix(0.9669 -0.2552 0.2552 0.9669 -53.3495 65.0822)" fill="#60D5F2" cx="224.174" cy="238.168" rx="1.164" ry="2.396"/>
				<path fill="#0084BF" d="M218.688,266.632c0.993,1.346,2.438,2.409,4.04,2.491c1.698,0.088,3.322-0.954,4.378-2.379
					c1.896-2.561,2.642-5.818,2.812-9.132c-0.834,2.738-3.887,6.615-6.701,7.382c-3.012,0.821-5.748-5.748-5.748-5.748l-1.362,1.342
					l0.38,1.498C217.083,263.675,217.694,265.288,218.688,266.632z"/>
				<path fill="#006AA2" d="M229.865,249.041c-0.708-4.197-1.485-8.765-3.416-12.598c-1.81-3.592-4.553-2.749-5.39,1.162
					c-0.15-0.215-0.293-0.436-0.456-0.641c-0.503-0.643-1.479-2.051-2.458-2.027c-0.918,0.023-1.045,0.708-1.321,1.375
					c-2.439-4.085-5.639-7.712-9.454-10.533c-0.087-0.064-0.188,0.075-0.113,0.148c6.068,5.924,10.435,12.739,13.343,20.701
					c0.104,0.285,0.539,0.175,0.461-0.128c-0.866-3.406-2.222-6.706-3.995-9.765c0.316-0.333,0.308-0.434,1.291-0.158
					c1.482,0.418,2.166,2.013,2.895,3.339c1.382,2.513,2.216,5.117,2.748,7.92c0.05,0.269,0.498,0.21,0.478-0.064
					c-0.235-3.347-1.21-6.803-3.053-9.654c0.097-0.021,0.186-0.086,0.223-0.216c1.884-6.458,4.305-0.683,5.194,2.24
					c0.844,2.767,1.445,5.615,1.93,8.465c0.579,3.409,0.875,6.933,0.492,10.379c-0.337,3.025-1.354,7.048-4.068,8.841
					c-4.175,2.758-7.242-2.594-8.573-5.778c-0.068-0.163-0.333-0.102-0.272,0.074c0.949,2.77,1.991,6.193,5.075,7.265
					c2.732,0.948,5.191-0.811,6.633-3.035C231.272,261.385,230.809,254.616,229.865,249.041z"/>
			</g>
			<g>
				<linearGradient id="SVGID_3_" gradientUnits="userSpaceOnUse" x1="165.7031" y1="233.3564" x2="157.6734" y2="220.582">
					<stop  offset="0" style="stop-color:#009ED4"/>
					<stop  offset="1" style="stop-color:#00CFFF"/>
				</linearGradient>
				<path fill="url(#SVGID_3_)" d="M170.562,212.079c-7.549,11.657-20.054,12.021-29.957,20.171
					c-6.207,5.109-8.784,13.584-7.759,21.415c1.066,8.147,4.254,18.229,10.349,23.738c22.51,20.354,74.542,15.094,75.375-22.524
					c0.263-11.829-5.762-20.361-12.135-29.686c-4.168-6.098-7.963-13.027-7.526-20.4L170.562,212.079z"/>
				<path fill="#FFDE9A" d="M180.787,214.262c0,0,5.475,18.614-1.096,31.023c-3.99,7.54-4.792,18.771-1.194,26.59
					c6.438,13.981,27.193,6.445,33.645-3.685c3.649-5.733,3.116-12.821,2.224-19.256c-1.825-13.139-16.789-23.357-18.614-36.497
					L180.787,214.262z"/>
				
					<radialGradient id="SVGID_4_" cx="173.377" cy="212.3164" r="46.6038" gradientTransform="matrix(0.4794 0 0 0.5258 112.1208 132.2598)" gradientUnits="userSpaceOnUse">
					<stop  offset="0.0034" style="stop-color:#FFFFE4"/>
					<stop  offset="1" style="stop-color:#FFEABC"/>
				</radialGradient>
				<path fill="url(#SVGID_4_)" d="M183.158,215.531c0,0,4.463,16.641-0.894,27.736c-3.253,6.741-3.906,16.783-0.973,23.773
					c5.247,12.5,22.167,5.762,27.427-3.294c2.975-5.127,2.54-11.465,1.813-17.216c-1.488-11.748-13.687-20.884-15.175-32.632
					L183.158,215.531z"/>
				<g>
					<linearGradient id="SVGID_5_" gradientUnits="userSpaceOnUse" x1="183.8145" y1="208.1162" x2="186.7345" y2="244.9821">
						<stop  offset="0" style="stop-color:#0078D6"/>
						<stop  offset="1" style="stop-color:#00BFFF"/>
					</linearGradient>
					<path fill="url(#SVGID_5_)" d="M195.751,212.438c0.43,3.091,1.591,6.02,3.133,8.864c3.035-0.91,3.802-1.931,3.802-1.931
						s-2.19-5.109-3.649-8.394c-1.46-3.284-29.563,2.555-29.563,2.555l-2.919,3.65c0,0,7.377,3.714,15.823,5.03
						c-0.634-4.692-1.589-7.951-1.589-7.951L195.751,212.438z"/>
					<path fill="#FFCA90" d="M195.751,212.438l-14.964,1.824c0,0,0.955,3.259,1.589,7.951c0.68,0.106,1.367,0.195,2.059,0.269
						c1.454,0.149,2.925,0.221,4.382,0.176c4.019-0.126,6.913-0.554,8.981-1.062c0.392-0.096,0.752-0.194,1.086-0.294
						C197.342,218.457,196.181,215.528,195.751,212.438z"/>
				</g>
				<path fill="#006AA2" d="M170.437,212.006c-5.943,8.246-14.84,11.025-23.42,15.59c-8.024,4.269-13.64,10.643-14.683,19.935
					c-0.958,8.538,1.931,18.664,6.632,25.784c3.612,5.47,9.375,9.271,15.304,11.855c21.298,9.29,55.291,5.288,63.302-20.124
					c2.793-8.864,1.781-18.314-2.297-26.61c-5.455-11.1-16.217-20.437-15.959-33.643c0.011-0.525-0.785-0.521-0.813,0
					c-0.508,9.809,5.689,17.751,10.791,25.519c5.416,8.247,9.427,16.981,8.532,27.083c-1.136,12.843-9.591,22.85-21.379,27.56
					c-11.386,4.547-24.599,4.633-36.254,1.049c-5.777-1.777-11.389-4.551-15.979-8.521c-6.827-5.905-10.065-15.875-10.981-24.628
					c-0.558-5.347,0.535-10.912,3.421-15.482c2.858-4.527,7.426-7.454,12.108-9.836c8.194-4.167,16.835-7.197,21.925-15.383
					C170.789,211.991,170.544,211.857,170.437,212.006L170.437,212.006z"/>
			</g>
			<g>
				<linearGradient id="SVGID_6_" gradientUnits="userSpaceOnUse" x1="171.3462" y1="289.0869" x2="173.9011" y2="293.8317">
					<stop  offset="0" style="stop-color:#009ED4"/>
					<stop  offset="1" style="stop-color:#00CFFF"/>
				</linearGradient>
				<path fill="url(#SVGID_6_)" d="M132.175,247.74c-1.543-3.586-2.643-7.36-3.268-11.213c-0.137-0.846-0.005-2.033,0.848-2.113
					c0.305-0.03,0.599,0.118,0.862,0.276c2.146,1.288,3.568,3.473,4.915,5.58c2.013,3.153,4.027,6.305,6.04,9.455
					c-1.15-3.094-2.893-7.504-3.033-10.802c-0.047-1.102-0.027-2.247,0.44-3.245c0.467-0.999,1.494-1.813,2.592-1.706
					c0.963,0.095,1.721,0.835,2.378,1.546c1.841,1.989,4.643,5.223,6.231,7.419c0.046-1.51,0.326-3.013,0.827-4.437
					c0.295-0.835,0.688-1.675,1.38-2.228c1.447-1.155,3.717-0.589,5.013,0.734c1.296,1.322,1.861,3.176,2.383,4.953
					c0,0,4.045-5.233,7.781-5.518c3.736-0.283,5.483,3.4,5.483,3.4c-0.892,9.76-4.666,19.239-10.727,26.939
					c-5.716,7.266-12.805,8.684-20.677,3.42c-10.393-6.948-21-17.256-22.843-30.197c-0.191-1.337-0.034-3.089,1.256-3.491
					c1.042-0.323,2.057,0.51,2.822,1.285c4.316,4.381,8.297,9.092,11.897,14.077L132.175,247.74z"/>
				
					<ellipse transform="matrix(0.8122 -0.5834 0.5834 0.8122 -117.5605 116.8383)" fill="#60D5F2" cx="122.673" cy="240.994" rx="1.147" ry="3.327"/>
				
					<ellipse transform="matrix(0.8808 -0.4735 0.4735 0.8808 -97.4331 91.1162)" fill="#60D5F2" cx="132.255" cy="239.076" rx="1.148" ry="3.328"/>
				
					<ellipse transform="matrix(0.8284 -0.5601 0.5601 0.8284 -109.0742 120.9788)" fill="#60D5F2" cx="142.932" cy="238.527" rx="1.147" ry="3.327"/>
				
					<ellipse transform="matrix(0.928 -0.3726 0.3726 0.928 -77.8988 75.4015)" fill="#60D5F2" cx="156.151" cy="239.263" rx="1.148" ry="2.738"/>
				<path fill="#0084BF" d="M141.642,270.203c7.872,5.264,14.96,3.846,20.677-3.42c4.836-6.145,8.211-13.422,9.833-21.069
					c-3.02,7.619-10.041,21.67-20.927,22.201c-13.652,0.665-29.428-22.057-32.09-26.046
					C121.677,253.937,131.752,263.592,141.642,270.203z"/>
				<path fill="#006AA2" d="M172.922,239.844c-1.027,9.507-5.081,19.027-11.112,26.432c-2.795,3.434-6.51,6.337-11.135,6.292
					c-4.459-0.044-8.22-2.657-11.674-5.194c-6.912-5.076-13.37-11.438-16.98-19.333c-0.958-2.096-1.716-4.309-2.17-6.571
					c-0.169-0.847-0.711-2.509-0.228-3.353c1.201-2.1,4.183,1.554,4.828,2.229c3.553,3.712,6.831,7.672,9.958,11.746
					c0.323,0.421,1.047,0.03,0.732-0.427c-2.694-3.904-5.646-7.603-8.818-11.131c-1.399-1.558-4.717-6.517-7.352-4.242
					c-2.314,1.997-0.425,6.987,0.339,9.254c1.328,3.939,3.424,7.581,5.945,10.876c4.831,6.312,11.784,12.874,19.088,16.227
					c7.097,3.259,13.846,0.549,18.485-5.356c6.25-7.954,9.412-17.477,10.343-27.447
					C173.185,239.685,172.939,239.688,172.922,239.844L172.922,239.844z"/>
				<path fill="#006AA2" d="M132.311,247.703c-0.877-2.45-1.744-4.893-2.36-7.425c-0.229-0.946-0.447-1.904-0.609-2.864
					c-0.731-1.786,0.068-2.299,2.398-1.535c0.412,0.368,0.797,0.763,1.156,1.184c3.288,3.783,5.71,8.616,8.337,12.861
					c0.224,0.361,0.868,0.132,0.713-0.301c-1.236-3.465-3.732-8.544-2.855-12.286c1.24-5.287,5.177-0.835,6.628,0.81
					c1.427,1.617,2.82,3.267,4.112,4.993c0.236,0.315,0.726,0.22,0.75-0.202c0.063-1.117,0.122-2.413,0.526-3.47
					c0.734-1.919,2.802-4.07,4.968-2.959c2.045,1.05,2.706,3.544,3.435,5.527c0.124,0.337,0.627,0.209,0.544-0.149
					c-0.673-2.897-2.225-6.668-5.79-6.627c-3.678,0.042-4.304,4.88-4.488,7.678c0.25-0.067,0.5-0.135,0.75-0.203
					c-1.789-2.441-3.744-4.774-5.783-7.012c-1.315-1.443-2.947-3.028-4.942-1.713c-4.579,3.02,0.006,12.269,1.391,15.82
					c0.238-0.1,0.476-0.2,0.714-0.301c-2.288-3.474-4.487-7.01-6.799-10.467c-0.859-1.286-3.349-5.331-5.354-4.937
					c-1.189,0.234-1.199,1.481-1.119,2.476c0.303,3.78,1.784,7.818,3.417,11.21C132.122,247.954,132.366,247.854,132.311,247.703
					L132.311,247.703z"/>
			</g>
			<g>
				<path fill="#ECA700" d="M173.793,304.474c-1.57-1.332-3.287-2.499-5.124-3.43c-2.358-1.196-5.412-2.615-8.335-3.171
					c0.081-0.276,0.166-0.549,0.235-0.835c0.542-2.229,1.519-4.355,0.257-6.509c-0.845-1.441-2.832-2.003-4.283-1.123
					c-2.38,1.444-2.531,4.188-2.45,6.756c0.016,0.485,0.066,0.95,0.14,1.403c-4.218,4.906-7.021,12.689-3.842,18.76
					c0.409,0.78,1.535,0.522,1.782-0.233c0.85-2.606,1.36-5.264,2.13-7.886c0.556-1.892,1.41-3.598,2.397-5.251
					c1.317,1.967,3.032,3.803,4.308,5.682c0.947,1.396,1.819,2.819,2.628,4.301c0.889,1.629,2.132,2.891,3.067,4.462
					c0.395,0.664,1.501,0.4,1.482-0.401c-0.044-1.847,0.217-3.308-0.466-5.086c-0.684-1.777-1.647-3.502-2.641-5.122
					c-0.646-1.054-1.376-2.251-2.18-3.438c1.288,0.337,2.557,0.758,3.788,1.26c1.745,0.712,3.437,1.563,5.078,2.488
					c1.604,0.907,2.453,1.076,4.263,1.374c0.037,0.007,0.074-0.022,0.063-0.063C175.615,306.615,175.276,305.729,173.793,304.474z"
					/>
				<path fill="#BD7000" d="M173.793,304.474c-1.57-1.332-3.287-2.499-5.124-3.43c-2.358-1.196-5.412-2.615-8.335-3.171
					c0.081-0.276,0.166-0.549,0.235-0.835c0.542-2.229,1.519-4.355,0.257-6.509c-0.845-1.441-2.832-2.003-4.283-1.123
					c-2.38,1.444-2.531,4.188-2.45,6.756c0.016,0.485,0.066,0.95,0.14,1.403c-4.218,4.906-7.021,12.689-3.842,18.76
					c0.409,0.78,1.535,0.522,1.782-0.233c0.85-2.606,1.36-5.264,2.13-7.886c0.556-1.892,1.41-3.598,2.397-5.251
					c1.317,1.967,3.032,3.803,4.308,5.682c0.947,1.396,1.819,2.819,2.628,4.301c0.889,1.629,2.132,2.891,3.067,4.462
					c0.395,0.664,1.501,0.4,1.482-0.401c-0.044-1.847,0.217-3.308-0.466-5.086c-0.684-1.777-1.647-3.502-2.641-5.122
					c-0.646-1.054-1.376-2.251-2.18-3.438c1.288,0.337,2.557,0.758,3.788,1.26c1.745,0.712,3.437,1.563,5.078,2.488
					c1.604,0.907,2.453,1.076,4.263,1.374c0.037,0.007,0.074-0.022,0.063-0.063C175.615,306.615,175.276,305.729,173.793,304.474z
					 M172.149,306.426c-1.824-1.029-3.515-1.857-5.167-2.531c-1.255-0.513-2.562-0.947-3.884-1.292l-1.995-0.521l1.154,1.706
					c0.754,1.111,1.449,2.245,2.063,3.245l0.1,0.161c0.821,1.34,1.856,3.118,2.576,4.996c0.46,1.196,0.441,2.255,0.419,3.48
					c-0.008,0.432-0.016,0.876-0.004,1.346L167.383,317c-0.011,0-0.018-0.001-0.019-0.002c-0.446-0.757-0.965-1.444-1.466-2.108
					c-0.581-0.769-1.128-1.496-1.579-2.322c-0.818-1.501-1.691-2.928-2.668-4.367c-0.637-0.938-1.384-1.87-2.108-2.773
					c-0.756-0.943-1.537-1.918-2.197-2.902l-0.683-1.021l-0.628,1.054c-1.182,1.98-1.968,3.705-2.475,5.43
					c-0.337,1.148-0.628,2.314-0.909,3.443c-0.364,1.458-0.74,2.966-1.215,4.42c-0.033,0.104-0.163,0.173-0.263,0.173
					c-0.054,0-0.07-0.016-0.093-0.059c-3.028-5.781-0.184-13.327,3.741-17.893l0.235-0.273l-0.057-0.355
					c-0.074-0.465-0.118-0.892-0.129-1.306c-0.093-2.913,0.222-4.945,2.075-6.068c0.332-0.201,0.722-0.309,1.129-0.309
					c0.851,0,1.669,0.457,2.083,1.161c0.878,1.499,0.457,3.016-0.033,4.771c-0.107,0.385-0.214,0.771-0.309,1.163
					c-0.05,0.202-0.107,0.397-0.166,0.593l-0.299,1.027l0.838,0.159c2.853,0.543,5.844,1.942,8.129,3.101
					c1.725,0.875,3.397,1.995,4.972,3.33c0.993,0.843,1.395,1.45,1.73,2.445C173.996,307.308,173.282,307.064,172.149,306.426z"/>
				<path fill="#BD7000" d="M149.101,310.636c-0.16,0.179,0.05,0.499,0.27,0.35c1.12-0.765,2.417-0.617,3.453,0.183
					c0.371,0.288,0.79-0.312,0.487-0.63C152.189,309.356,150.162,309.454,149.101,310.636z M149.848,306.458
					c-0.126,0.158,0.042,0.453,0.239,0.31c1.14-0.836,2.683-0.69,3.597,0.385c0.281,0.328,0.86-0.11,0.605-0.468
					C153.261,305.25,150.976,305.041,149.848,306.458z M151.518,302.296c-0.067,0.098,0.068,0.23,0.164,0.164
					c0.677-0.461,1.599-0.293,2.225,0.17c0.615,0.454,0.943,1.12,1.436,1.682c0.3,0.341,0.746-0.093,0.586-0.45
					C155.252,302.356,152.869,300.362,151.518,302.296z M163.222,304.363c-1.403-0.854-4.067-1.733-4.594,0.578
					c-0.04,0.177,0.198,0.231,0.264,0.073c0.723-1.739,2.909-0.684,3.998-0.083C163.261,305.137,163.585,304.584,163.222,304.363z
					 M165.258,307.374c-1.216-1.036-3.847-1.174-3.999,0.89c-0.011,0.146,0.215,0.171,0.253,0.033
					c0.203-0.746,0.969-1.07,1.681-1.023c0.645,0.042,1.176,0.404,1.773,0.601C165.243,307.966,165.485,307.568,165.258,307.374z
					 M166.68,310.022c-1.465-0.52-3.161,0.479-3.281,2.056c-0.014,0.177,0.256,0.204,0.302,0.041
					c0.333-1.167,1.654-1.908,2.805-1.462C166.897,310.809,167.081,310.163,166.68,310.022z M167.425,300.547
					c-1.497,0.363-1.834,2.501-1.326,3.697c0.094,0.219,0.453,0.063,0.383-0.161c-0.187-0.61-0.149-1.248,0.136-1.823
					c0.267-0.534,0.698-0.797,1.106-1.198C167.949,300.841,167.717,300.477,167.425,300.547z M163.123,302.771
					c0.025-1.158,0.11-2.255,1.142-2.984c0.391-0.276,0.022-0.925-0.38-0.649c-1.102,0.753-1.948,2.541-0.981,3.725
					C162.978,302.951,163.121,302.872,163.123,302.771z M170.541,302.127c-1.273,0.513-1.808,2.228-1.354,3.445
					c0.076,0.204,0.416,0.192,0.403-0.055c-0.026-0.542,0.065-1.085,0.276-1.586c0.229-0.54,0.615-0.833,1.005-1.24
					C171.083,302.467,170.873,301.992,170.541,302.127z M159.534,298.094c-1.573,0.84-3.168,0.672-4.564-0.448
					c-0.145-0.115-0.412,0.038-0.281,0.218c1.113,1.557,3.621,1.938,5.159,0.77C160.161,298.396,159.898,297.898,159.534,298.094z
					 M160.551,295.931c0.296-0.17,0.086-0.579-0.221-0.523c-0.944,0.17-1.81,0.429-2.781,0.341c-1.049-0.096-2.008-0.48-2.936-0.957
					c-0.197-0.102-0.436,0.163-0.25,0.322C155.938,296.455,158.688,296.997,160.551,295.931z M156.286,300.848
					c0.005,0.523,0.01,1.073,0.138,1.583c0.068,0.275,0.502,0.219,0.496-0.066c-0.011-0.526-0.151-1.059-0.282-1.564
					C156.587,300.604,156.283,300.645,156.286,300.848z M160.403,300.79c0.237,0.405,0.474,0.811,0.71,1.217
					c0.22,0.377,0.413,0.792,0.708,1.116c0.248,0.271,0.629-0.073,0.483-0.374c-0.188-0.387-0.516-0.723-0.779-1.061
					c-0.288-0.367-0.574-0.733-0.86-1.102C160.548,300.436,160.311,300.631,160.403,300.79z"/>
				<path d="M150.306,314.042c-0.25,0.125-0.482,0.27-0.688,0.42c0.203,0.635,0.458,1.258,0.775,1.863
					c0.409,0.78,1.535,0.522,1.782-0.233c0.223-0.685,0.422-1.371,0.609-2.061c-0.241-0.147-0.484-0.242-0.726-0.291
					C151.44,313.614,150.833,313.777,150.306,314.042z M168.168,314.006c-0.282-0.056-0.542-0.07-0.779-0.051
					c-0.691,0.06-1.203,0.401-1.575,0.823c-0.189,0.212-0.343,0.445-0.465,0.671c0.473,0.629,0.944,1.259,1.355,1.95
					c0.395,0.664,1.501,0.4,1.482-0.401C168.162,315.915,168.235,314.965,168.168,314.006z M173.988,304.649
					c-0.254,0.128-0.457,0.294-0.616,0.486c-0.379,0.46-0.518,1.065-0.538,1.653c-0.009,0.305,0.011,0.605,0.046,0.878
					c0.988,0.436,1.802,0.587,3.149,0.808c0.037,0.007,0.074-0.022,0.063-0.063C175.638,306.7,175.297,305.814,173.988,304.649z"/>
			</g>
			<g>
				<path fill="#009FD5" d="M145.149,276.706c0.309,7.009,4.525,13.924,10.993,16.639c6.467,2.715,14.87,0.509,18.522-5.479
					L145.149,276.706z"/>
				<path fill="#006AA2" d="M145.034,276.706c0.148,7.278,4.692,14.774,11.645,17.405c6.589,2.492,14.792,0.2,18.153-6.148
					c0.097-0.183-0.161-0.413-0.302-0.233c-4.001,5.082-11.021,7.447-17.227,5.484c-7.251-2.295-11.253-9.309-12.038-16.508
					C145.249,276.563,145.03,276.554,145.034,276.706L145.034,276.706z"/>
			</g>
		</g>
	</g>
	<g>
		<path d="M261.383,146.711c-0.025-0.392-0.055-0.78-0.089-1.165l-0.011-0.122c-0.112-1.258-0.271-2.512-0.471-3.729l-0.024-0.144
			c-0.06-0.352-0.121-0.7-0.187-1.043l-0.031-0.162c-0.073-0.379-0.149-0.754-0.231-1.13c-1.422-6.478-4.079-11.745-7.292-14.456
			c-4.232-3.569-8.107-9.645-12.598-16.678c-0.602-0.943-1.217-1.906-1.846-2.886c0.047-0.487,0.036-0.992-0.032-1.508
			c-0.083-0.612-0.614-1.076-1.234-1.076c-0.126,0-0.251,0.021-0.37,0.058c-4.905-7.502-10.535-15.421-18.083-23.096
			c-3.438-3.496-8.144-6.552-13.983-9.076c-0.243-0.106-0.486-0.212-0.734-0.315c-0.187-0.077-0.604-0.247-0.604-0.247
			c-0.227-0.093-0.455-0.184-0.685-0.273c-0.208-0.082-0.416-0.162-0.625-0.242c-0.234-0.09-0.47-0.178-0.707-0.266l-0.124-0.045
			c-0.163-0.062-0.328-0.121-0.493-0.181c-0.282-0.102-0.567-0.2-0.854-0.298c-0.276-0.096-0.554-0.189-0.833-0.282
			c-0.311-0.103-0.621-0.204-0.935-0.304c-0.162-0.051-0.637-0.197-0.637-0.197c-0.252-0.076-0.504-0.153-0.756-0.229
			c-0.223-0.065-0.445-0.13-0.668-0.193c-0.253-0.073-0.507-0.144-0.775-0.217c-0.218-0.061-0.432-0.119-0.65-0.178
			c-0.279-0.074-0.561-0.146-0.842-0.218c0,0-0.464-0.119-0.597-0.151c-0.453-0.111-0.91-0.221-1.369-0.325
			c-0.139-0.031-0.618-0.136-0.618-0.136c-0.287-0.063-0.572-0.126-0.86-0.187c-0.227-0.048-0.453-0.094-0.68-0.14
			c-0.274-0.055-0.549-0.108-0.824-0.162c-0.229-0.043-0.459-0.087-0.689-0.129c-0.29-0.054-0.582-0.104-0.872-0.153
			c0,0-0.485-0.085-0.641-0.11c-0.48-0.079-0.962-0.155-1.445-0.228l-0.519-0.072c-0.341-0.048-0.682-0.096-1.024-0.142
			c-0.189-0.023-0.666-0.081-0.666-0.081c-0.298-0.038-0.597-0.072-0.896-0.106c-0.229-0.026-0.459-0.05-0.688-0.074
			c-0.305-0.032-0.61-0.063-0.917-0.091c0,0-0.484-0.046-0.652-0.061c-0.38-0.033-0.76-0.063-1.139-0.091l-0.529-0.04
			c-0.475-0.032-0.95-0.062-1.426-0.086l-0.615-0.028c-0.329-0.016-0.655-0.029-0.984-0.041c-0.222-0.008-0.444-0.014-0.667-0.021
			c-0.32-0.009-0.64-0.016-0.991-0.021c-0.207-0.005-0.415-0.008-0.623-0.01c-0.24-0.002-0.481-0.003-0.721-0.003l-0.882,0.001
			c-0.519,0.005-1.038,0.014-1.556,0.027l-0.51,0.018c-0.368,0.011-0.735,0.024-1.103,0.041l-0.629,0.031
			c-0.334,0.017-0.668,0.036-1.001,0.058c-0.212,0.014-0.425,0.027-0.637,0.042c-0.352,0.026-0.703,0.054-1.053,0.083l-0.56,0.047
			c-0.526,0.048-1.05,0.099-1.574,0.156l-0.288,0.034c-0.438,0.049-0.875,0.103-1.312,0.158l-0.578,0.079
			c-0.345,0.048-0.689,0.096-1.035,0.147c-0.204,0.03-0.409,0.062-0.614,0.095c-0.345,0.055-0.689,0.112-1.035,0.171l-0.568,0.1
			c-0.43,0.077-0.859,0.158-1.289,0.243l-0.293,0.056c-0.52,0.105-1.039,0.217-1.555,0.331l-0.49,0.114
			c-0.363,0.084-0.724,0.169-1.083,0.258c-0.192,0.048-0.383,0.096-0.576,0.145c-0.34,0.087-0.678,0.177-1.05,0.278
			c-0.175,0.047-0.35,0.094-0.526,0.144c-0.376,0.106-0.752,0.216-1.126,0.327l-0.416,0.122c-0.507,0.156-1.011,0.316-1.514,0.482
			l-0.357,0.123c-0.387,0.131-0.772,0.264-1.156,0.4c-0.14,0.051-0.522,0.192-0.522,0.192c-0.333,0.122-0.664,0.247-0.995,0.375
			c-0.179,0.069-0.358,0.139-0.535,0.21c-0.343,0.137-0.683,0.276-1.022,0.419l-0.46,0.192c-0.299,0.128-0.597,0.259-0.893,0.391
			c-0.217-5.001-2.087-9.084-5.688-12.439c-3.116-2.905-7.525-5.245-13.874-7.36c-9.928-3.31-12.174-17.711-12.196-17.856
			c-0.082-0.551-0.554-0.958-1.11-0.958h-0.016c-0.562,0.007-1.031,0.429-1.099,0.987c-2.072,17.093-0.958,27.177,3.613,32.694
			c2.867,3.462,7.032,5.197,13.505,5.628c6.168,0.412,9.89,1.098,12.101,1.709c-0.026,0.016-0.433,0.245-0.545,0.311
			c-0.375,0.217-0.747,0.439-1.117,0.665l-0.241,0.146c-0.447,0.275-0.89,0.561-1.326,0.849c-0.079,0.053-0.37,0.25-0.37,0.25
			c-0.316,0.213-0.63,0.428-0.94,0.648c-0.143,0.1-0.284,0.201-0.456,0.326c-0.285,0.206-0.567,0.416-0.849,0.628l-0.044,0.034
			c-0.134,0.101-0.267,0.201-0.399,0.304c-0.307,0.237-0.609,0.478-0.909,0.722c0,0-0.262,0.211-0.334,0.27
			c-0.407,0.336-0.808,0.678-1.204,1.026l-0.239,0.218c-0.315,0.28-0.627,0.566-0.934,0.856c-0.1,0.094-0.199,0.189-0.297,0.285
			l-0.096,0.092c-0.257,0.249-0.512,0.499-0.764,0.754c-0.135,0.136-0.269,0.272-0.402,0.41c-0.256,0.266-0.509,0.534-0.759,0.806
			l-0.117,0.126c-0.077,0.084-0.154,0.167-0.229,0.249c-0.376,0.417-0.713,0.802-1.042,1.193c-0.002,0.002-0.005,0.006-0.005,0.006
			c-0.005,0.006-0.01,0.012-0.015,0.018c-0.343,0.406-0.676,0.817-1.004,1.229c-0.074,0.092-0.309,0.394-0.309,0.394
			c-0.225,0.288-0.447,0.575-0.665,0.864c-0.114,0.15-0.226,0.301-0.337,0.451c-0.21,0.284-0.417,0.567-0.62,0.853l-0.303,0.426
			c-0.247,0.351-0.489,0.705-0.726,1.06l-0.145,0.211c-0.281,0.426-0.556,0.851-0.824,1.277l-0.236,0.384
			c-0.188,0.303-0.374,0.607-0.556,0.914c-0.094,0.156-0.186,0.313-0.277,0.471c-0.167,0.284-0.33,0.57-0.491,0.856l-0.262,0.469
			c-0.176,0.319-0.348,0.641-0.518,0.962l-0.184,0.347c-0.224,0.431-0.442,0.862-0.656,1.295l-0.174,0.364
			c-0.154,0.317-0.305,0.634-0.452,0.951c-0.063,0.137-0.226,0.497-0.226,0.497c-0.127,0.28-0.252,0.562-0.375,0.843
			c-0.073,0.169-0.147,0.339-0.22,0.509c-0.125,0.294-0.246,0.588-0.367,0.881l-0.183,0.449c-0.171,0.428-0.338,0.857-0.499,1.285
			l-0.13,0.354c-0.119,0.322-0.237,0.645-0.351,0.968c-0.05,0.141-0.183,0.529-0.183,0.529c-0.091,0.267-0.182,0.533-0.269,0.8
			c-0.062,0.186-0.122,0.372-0.182,0.558c-0.085,0.266-0.167,0.529-0.248,0.794l-0.164,0.536c-0.099,0.331-0.194,0.661-0.288,0.992
			c-0.057,0.202-0.113,0.403-0.167,0.605c-0.087,0.32-0.174,0.64-0.256,0.959c-0.038,0.148-0.145,0.576-0.145,0.576
			c-0.061,0.244-0.121,0.488-0.179,0.73c-0.049,0.203-0.096,0.407-0.143,0.61c-0.054,0.232-0.105,0.464-0.156,0.697
			c0,0-0.096,0.437-0.133,0.61c-0.052,0.247-0.101,0.492-0.15,0.737c-0.054,0.269-0.107,0.535-0.158,0.805
			c-0.058,0.309-0.116,0.619-0.171,0.928c-0.029,0.163-0.056,0.327-0.083,0.49c0,0-0.099,0.59-0.129,0.777
			c-0.035,0.222-0.069,0.441-0.102,0.663c-0.03,0.198-0.06,0.398-0.088,0.596c-0.032,0.223-0.064,0.444-0.094,0.666
			c0,0-0.14,1.082-0.16,1.248l-0.067,0.604c-1.807,16.123,1.438,29.241,2.004,31.362c-0.407,1.883-2.352,12.237,1.121,24.254
			c2.214,7.661,6.187,14.382,11.806,19.976c6.991,6.96,16.553,12.168,28.421,15.48c14.617,4.078,26.83,6.063,37.335,6.063
			c11.94,0,21.953-2.521,31.513-7.931c8.595-4.865,16.103-11.545,25.433-20.745c0.459-0.453,0.93-0.938,1.484-1.529l0.087-0.095
			c0.002-0.003,0.005-0.005,0.008-0.009c0.431-0.464,0.817-0.894,1.184-1.316c0.387-0.445,0.754-0.883,1.094-1.303
			c0,0,0.185-0.233,0.188-0.238c8.931-11.164,11.157-23.322,11.453-31.573l0.002-0.063c0.063-1.796,0.037-3.602-0.073-5.365
			L261.383,146.711z"/>
		<g>
			<g>
				<linearGradient id="SVGID_7_" gradientUnits="userSpaceOnUse" x1="134.1699" y1="75.2114" x2="104.6943" y2="36.8038">
					<stop  offset="0" style="stop-color:#0078D6"/>
					<stop  offset="1" style="stop-color:#00BFFF"/>
				</linearGradient>
				<path fill="url(#SVGID_7_)" d="M140.375,72.92c0,0-2.234-2.232-15.631-3.126c-13.398-0.894-19.651-7.593-16.078-37.068
					c0,0,2.233,15.185,12.952,18.757C132.336,55.057,141.268,60.415,140.375,72.92z"/>
				<linearGradient id="SVGID_8_" gradientUnits="userSpaceOnUse" x1="133.7036" y1="70.4795" x2="101.994" y2="30.7308">
					<stop  offset="0" style="stop-color:#00B6FF"/>
					<stop  offset="1" style="stop-color:#00E1FA"/>
				</linearGradient>
				<path fill="url(#SVGID_8_)" d="M132.921,62.329c-4.133-3.113-9.139-3.447-13.676-5.646
					c-8.531-4.137-10.183-14.503-10.657-23.298c-0.175,1.492-0.326,2.926-0.45,4.302c0.258,1.948,0.634,3.876,1.015,5.706
					c0.899,4.314,2.513,8.459,5.808,11.52c3.873,3.599,8.927,3.842,13.637,5.687c5.377,2.106,9.305,6.608,11.26,11.981
					c0.04,0.021,0.078,0.043,0.113,0.063c0.021-0.013,0.036-0.034,0.027-0.066C138.838,68.431,136.372,64.928,132.921,62.329z"/>
			</g>
			<g>
				<linearGradient id="SVGID_9_" gradientUnits="userSpaceOnUse" x1="193.4414" y1="182.9063" x2="182.0536" y2="144.0538">
					<stop  offset="0" style="stop-color:#009ED4"/>
					<stop  offset="1" style="stop-color:#00CFFF"/>
				</linearGradient>
				<path fill="url(#SVGID_9_)" d="M111.495,151.224c0,0-11.017-38.705,12.505-66.692c23.521-27.986,76.517-22.032,94.084-4.168
					c17.566,17.863,24.712,37.216,34.239,45.256c9.527,8.039,14.291,40.79-7.146,61.929c-24.331,23.993-41.98,36.621-93.191,22.33
					C100.776,195.587,111.495,151.224,111.495,151.224z"/>
				<linearGradient id="SVGID_10_" gradientUnits="userSpaceOnUse" x1="159.168" y1="177.1074" x2="146.4406" y2="72.6082">
					<stop  offset="0" style="stop-color:#009ED4"/>
					<stop  offset="1" style="stop-color:#00CFFF"/>
				</linearGradient>
				<path fill="url(#SVGID_10_)" d="M132.783,152.416c0,0,7.418-49.074,23.224-58.061c0,0,25.902-4.465,19.203,56.72
					L132.783,152.416z"/>
				<linearGradient id="SVGID_11_" gradientUnits="userSpaceOnUse" x1="227.8848" y1="168.1719" x2="215.375" y2="65.46">
					<stop  offset="0" style="stop-color:#009ED4"/>
					<stop  offset="1" style="stop-color:#00CFFF"/>
				</linearGradient>
				<path fill="url(#SVGID_11_)" d="M207.364,138.123c0,0-13.616-42.327-1.785-49.572c4.289-2.626,33.941,12.058,37.068,39.748
					L207.364,138.123z"/>
				<linearGradient id="SVGID_12_" gradientUnits="userSpaceOnUse" x1="151.3022" y1="68.6963" x2="159.3411" y2="106.211">
					<stop  offset="0" style="stop-color:#0078D6"/>
					<stop  offset="1" style="stop-color:#00BFFF"/>
				</linearGradient>
				<path fill="url(#SVGID_12_)" d="M137.696,85.425c17.369-5.79,47.617,7.07,67.272-13.674
					c-23.206-10.292-61.837-9.983-80.968,12.78c-9.521,11.328-13.382,24.412-14.606,35.975
					C112.818,112.489,123.468,90.167,137.696,85.425z"/>
			</g>
			<g>
				
					<radialGradient id="SVGID_13_" cx="502.3975" cy="-9.9341" r="166.3607" gradientTransform="matrix(0.453 0 0 0.453 -31.8411 173.0085)" gradientUnits="userSpaceOnUse">
					<stop  offset="0.0034" style="stop-color:#FFFFE4"/>
					<stop  offset="1" style="stop-color:#FFEABC"/>
				</radialGradient>
				<path fill="url(#SVGID_13_)" d="M245.178,187.548c14.677-14.474,17.071-34.389,14.064-48.09
					c-8.903-10.401-21.124,0.526-25.527,5.812c-4.466,5.359-12.059,9.379-12.059,9.379l-6.252,3.127l-16.524,5.805l-17.417-3.572
					c0,0-13.846,4.466-21.438,5.359c-7.592,0.893-28.583-4.02-36.175,10.718c-5.381,10.447,3.598,20.668,9.283,25.735
					c5.094,3.18,11.294,5.948,18.853,8.058C203.197,224.169,220.847,211.541,245.178,187.548z"/>
				<path fill="#FFDE9A" d="M210.938,186.804c0,0-4.02-0.894-7.593,3.573C203.346,190.377,206.919,191.269,210.938,186.804z"/>
				<path fill="#00AFD9" d="M136.098,203.553c-1.027-0.562-2.016-1.14-2.964-1.732c-4.419-3.938-10.825-10.99-10.934-18.843
					c-8.466-11.506-10.591-23.933-11.123-29.439C109.909,161.535,108.33,188.37,136.098,203.553z"/>
				<path fill="#FFDE9A" d="M146.627,201.541c-11.388-4.555-19.142-11.379-24.427-18.563c0.109,7.853,6.515,14.904,10.934,18.843
					c0.949,0.593,1.937,1.171,2.964,1.732c0.036,0.021,0.072,0.039,0.107,0.059c0.585,0.318,1.185,0.632,1.795,0.939
					c0.167,0.084,0.334,0.167,0.503,0.251c0.423,0.208,0.853,0.414,1.29,0.619c0.289,0.133,0.578,0.268,0.871,0.399
					c0.262,0.118,0.525,0.235,0.792,0.351c0.467,0.202,0.938,0.404,1.419,0.601c0.205,0.085,0.415,0.167,0.623,0.251
					c0.449,0.179,0.904,0.356,1.365,0.53c0.143,0.053,0.282,0.108,0.426,0.161c0.59,0.22,1.194,0.432,1.805,0.643
					c0.157,0.054,0.315,0.108,0.473,0.161c0.628,0.212,1.266,0.419,1.914,0.62c0.129,0.04,0.259,0.079,0.39,0.119
					c0.694,0.212,1.397,0.421,2.116,0.621c51.211,14.291,68.86,1.663,93.191-22.33c0.411-0.406,0.809-0.816,1.202-1.23
					c0.112-0.119,0.224-0.24,0.335-0.359c0.297-0.319,0.588-0.642,0.874-0.966c0.098-0.109,0.195-0.219,0.291-0.329
					c0.365-0.421,0.723-0.846,1.069-1.274c0.06-0.073,0.117-0.149,0.177-0.223c0.289-0.362,0.571-0.727,0.849-1.093
					c0.099-0.13,0.195-0.261,0.293-0.391c0.262-0.354,0.519-0.711,0.77-1.068c0.064-0.093,0.13-0.182,0.193-0.274
					c0.306-0.442,0.603-0.89,0.891-1.336c0.07-0.11,0.138-0.22,0.206-0.33c0.225-0.352,0.442-0.707,0.656-1.063
					c0.079-0.133,0.158-0.264,0.235-0.396c0.246-0.419,0.486-0.84,0.717-1.264c0.021-0.038,0.044-0.077,0.064-0.115
					c0.112-0.206,0.216-0.415,0.325-0.622C226.608,209.632,182.193,215.769,146.627,201.541z"/>
			</g>
			<g>
				<g>
					<path d="M152.471,103.304c1.063,0.744,2.329-0.302,3.317-0.959c2.632-1.749,5.006-4.225,5.726-7.393
						c0.601-2.643-0.843-4.885-3.65-4.837c-2.153,0.036-3.625,1.229-4.493,3.128c-0.883,1.937,0.094,4.197-0.607,6.198
						c-0.412,1.173-1.671,2.402-0.604,3.584C152.26,103.137,152.365,103.229,152.471,103.304z"/>
					
						<ellipse transform="matrix(0.8278 -0.561 0.561 0.8278 -24.9925 103.7112)" fill="#B8CDE4" cx="156.453" cy="92.569" rx="1.675" ry="1.117"/>
				</g>
				<g>
					<path d="M212.599,91.562c-0.342,1.192-1.867,0.897-2.935,0.811c-2.713-0.22-5.511-1.131-7.646-3.331
						c-1.76-1.813-2.23-4.382-0.677-5.937c1.268-1.268,2.873-1.145,4.569-0.003c1.764,1.189,2.455,3.786,4.148,5.171
						c1.006,0.821,2.697,1.24,2.606,2.878C212.656,91.304,212.633,91.44,212.599,91.562z"/>
					<path fill="#B8CDE4" d="M202.221,84.368c0.094,0.624,0.765,1.134,1.514,1.144c0.764,0.011,1.327-0.501,1.244-1.146
						c-0.083-0.653-0.789-1.176-1.563-1.164C202.656,83.213,202.128,83.737,202.221,84.368z"/>
				</g>
			</g>
			<g>
				<path fill="#007ACA" d="M207.663,139.612c0,0-7.146-26.797,5.954-38.705c13.101-11.91,28.285,12.803,28.881,27.987
					L207.663,139.612z"/>
				<path fill="#009CD6" d="M229.23,102.477c1.999,9.014-0.31,17.153-5.421,18.518c-5.091,1.36-11.125-4.494-13.9-13.248
					c-6.162,12.358-1.288,30.647-1.288,30.647l32.807-10.094C241.095,119.828,235.941,108.211,229.23,102.477z"/>
				<path fill="#0AF6FF" d="M223.81,120.994c5.111-1.364,7.42-9.504,5.421-18.518c-4.617-3.945-9.972-5.106-15.002-0.534
					c-1.834,1.667-3.243,3.646-4.319,5.804C212.685,116.5,218.719,122.354,223.81,120.994z"/>
				<g>
					<path d="M223.707,97.914c1.128,2.833,0.012,5.676-2.198,7.59c-0.474,0.41,0.159,1.248,0.677,0.877
						c2.72-1.952,3.274-5.696,1.79-8.579C223.9,97.657,223.645,97.758,223.707,97.914L223.707,97.914z"/>
					<path d="M237.242,103.84c0.294,3.792-4.33,4.823-7.115,5.456c-0.744,0.169-0.424,1.279,0.314,1.138
						c3.467-0.667,7.583-2.354,7.017-6.594C237.44,103.707,237.231,103.698,237.242,103.84L237.242,103.84z"/>
					<path d="M243.564,116.936c-0.823,2.86-4.362,1.743-6.357,1.404c-0.6-0.101-0.818,0.688-0.251,0.909
						c2.489,0.964,6.112,0.86,6.763-2.271C243.739,116.879,243.593,116.836,243.564,116.936L243.564,116.936z"/>
					<path d="M246.74,128.904c-3.624,2.376-7.049-1.214-9.482-3.492c-0.431-0.403-1.018,0.201-0.641,0.643
						c2.527,2.967,6.57,5.836,10.233,2.992C246.932,128.984,246.825,128.849,246.74,128.904L246.74,128.904z"/>
					<g>
						<path d="M214.809,142.887c0,0,17.566,8.636,28.284-12.803c0,0-1.19-19.054-15.184-25.604
							c-13.993-6.55-24.712,13.398-19.948,32.453L214.809,142.887z"/>
						<path fill="#FFFFFF" d="M241.067,130.064c-1.971-8.608-5.95-22.619-16.926-22.986c-15.355-0.511-17.038,23.113-15.97,33.634
							c0,0,10.508,6.047,20.928,1.878C239.521,138.421,241.067,130.064,241.067,130.064z"/>
						<g>
							
								<linearGradient id="SVGID_14_" gradientUnits="userSpaceOnUse" x1="165.7046" y1="163.4053" x2="167.1344" y2="175.1295" gradientTransform="matrix(0.9915 -0.1299 0.1299 0.9915 36.1904 -17.2754)">
								<stop  offset="0" style="stop-color:#005DAD"/>
								<stop  offset="0.987" style="stop-color:#06B3F0"/>
							</linearGradient>
							<path fill="url(#SVGID_14_)" d="M235.035,123.65c1.15,8.779-3.636,16.646-10.689,17.57
								c-7.055,0.924-13.706-5.443-14.855-14.222c-1.15-8.779,3.636-16.646,10.689-17.57
								C227.233,108.505,233.885,114.873,235.035,123.65z"/>
							
								<linearGradient id="SVGID_15_" gradientUnits="userSpaceOnUse" x1="165.7236" y1="163.5635" x2="167.0482" y2="174.4247" gradientTransform="matrix(0.9915 -0.1299 0.1299 0.9915 36.1904 -17.2754)">
								<stop  offset="0" style="stop-color:#006BDB"/>
								<stop  offset="0.987" style="stop-color:#50CEFF"/>
							</linearGradient>
							<path fill="url(#SVGID_15_)" d="M234.095,123.774c1.066,8.132-3.367,15.419-9.902,16.275
								c-6.534,0.857-12.696-5.042-13.762-13.175c-1.066-8.133,3.368-15.42,9.902-16.276
								C226.868,109.743,233.029,115.642,234.095,123.774z"/>
							<ellipse transform="matrix(0.9915 -0.13 0.13 0.9915 -14.4038 29.9521)" cx="222.263" cy="125.325" rx="9.959" ry="12.395"/>
							
								<linearGradient id="SVGID_16_" gradientUnits="userSpaceOnUse" x1="161.0981" y1="158.9541" x2="167.9337" y2="167.7833" gradientTransform="matrix(0.9915 -0.1299 0.1299 0.9915 36.1904 -17.2754)">
								<stop  offset="0" style="stop-color:#FFFFFF"/>
								<stop  offset="0.987" style="stop-color:#41D8C5"/>
							</linearGradient>
							<path fill="url(#SVGID_16_)" d="M213.993,129.108c-1.629-3.604-1.042-8.95,1.54-11.829c3.741-4.17,10.075-4.133,11.518,0.655
								c1.445,4.789-3.071,1.485-4.866,6.481c-0.91,2.531-5.504,10.365-8.127,4.832
								C214.036,129.202,214.014,129.155,213.993,129.108z"/>
							
								<linearGradient id="SVGID_17_" gradientUnits="userSpaceOnUse" x1="173.8604" y1="176.0566" x2="166.5553" y2="166.5039" gradientTransform="matrix(0.9915 -0.1299 0.1299 0.9915 36.1904 -17.2754)">
								<stop  offset="0" style="stop-color:#FFFFFF"/>
								<stop  offset="0.987" style="stop-color:#41D8C5"/>
							</linearGradient>
							<path fill="url(#SVGID_17_)" d="M228.694,135.213c-1.054-0.346-1.75-1.976-2.345-2.901c-1.026-1.597,0.903-4.015,3.308-2.813
								c1.831,0.915,2.044,4.833,0.001,5.665C229.306,135.307,228.986,135.309,228.694,135.213z"/>
						</g>
						<path d="M208.203,140.712c-0.375-3.844-0.119-7.934,0.29-11.763c0.491-4.613,1.472-9.341,3.618-13.489
							c1.966-3.797,5.076-6.924,9.432-7.655c5.556-0.932,10.16,2.14,13.13,6.609c3.16,4.755,4.671,10.271,6.149,15.718
							c0.086,0.32,0.551,0.184,0.491-0.136c-1.744-9.158-5.729-23.133-17.172-23.493c-10.234-0.322-14.371,10.337-15.725,18.792
							c-0.83,5.173-0.782,10.23-0.276,15.417C208.144,140.752,208.206,140.753,208.203,140.712L208.203,140.712z"/>
					</g>
				</g>
			</g>
			<g>
				<path fill="#007ACA" d="M133.23,154.797c0,0-4.765-18.46,9.825-33.941c13.988-14.845,29.476-2.978,30.667,18.459L133.23,154.797
					z"/>
				<path fill="#009CD6" d="M159.446,116.014c0.432,1.094,0.813,2.243,1.132,3.439c2.546,9.532,0.263,18.421-5.099,19.853
					s-11.771-5.135-14.317-14.667c-0.005-0.017-0.008-0.033-0.013-0.051c-10.659,13.871-6.753,29.018-6.753,29.018l38.114-14.573
					C171.847,127.082,166.462,118.293,159.446,116.014z"/>
				<path fill="#0AF6FF" d="M155.479,139.306c5.362-1.432,7.645-10.32,5.099-19.853c-0.319-1.196-0.7-2.346-1.132-3.439
					c-4.83-1.569-10.432-0.054-15.801,5.645c-0.911,0.967-1.739,1.944-2.496,2.93c0.005,0.018,0.008,0.034,0.013,0.051
					C143.708,134.171,150.117,140.737,155.479,139.306z"/>
				<g>
					<path d="M126.954,153.022c3.815,3.055,9.923,3.129,13.15-0.871c0.423-0.523-0.251-1.245-0.754-0.756
						c-3.3,3.214-8.353,4.258-12.269,1.463C126.985,152.79,126.86,152.948,126.954,153.022L126.954,153.022z"/>
					<path d="M128.746,142.896c2.268,3.233,6.986,4.282,9.946,1.286c0.421-0.426-0.149-1.241-0.664-0.86
						c-2.688,1.989-6.872,2.21-9.211-0.481C128.784,142.802,128.716,142.853,128.746,142.896L128.746,142.896z"/>
					<path d="M134.89,128.626c1.608,2.693,4.689,5.728,7.978,3.523c0.613-0.412,0.086-1.291-0.574-0.982
						c-2.798,1.31-5.517-0.446-7.217-2.65C134.994,128.411,134.816,128.503,134.89,128.626L134.89,128.626z"/>
					<path d="M144.773,118.776c0.794,1.709,1.549,3.546,3.157,4.659c1.285,0.891,3.063,1.274,4.431,0.373
						c0.446-0.294,0.171-1.011-0.369-0.874c-3.376,0.854-5.438-1.634-7.015-4.279C144.898,118.522,144.709,118.64,144.773,118.776
						L144.773,118.776z"/>
					<g>
						<path d="M168.661,158.667c0,0-16.376,11.612-35.729-3.87c0,0-0.298-14.291,10.42-27.689
							c10.719-13.397,30.369-8.932,31.857,22.33l-4.764,3.574L168.661,158.667z"/>
						<path fill="#FFFFFF" d="M174.912,151.522c-0.308-6.68-1.34-10.922-4.061-17.03c-1.725-3.871-4.175-7.777-8.089-9.401
							c-3.652-1.515-7.917-0.706-11.437,1.09c-4.987,2.545-8.869,6.935-11.529,11.86s-4.18,10.389-5.29,15.875
							c0,0,8.252,8.324,22.543,7.729C171.339,161.049,174.912,151.522,174.912,151.522z"/>
						<g>
							<linearGradient id="SVGID_18_" gradientUnits="userSpaceOnUse" x1="154.124" y1="141.2915" x2="155.6127" y2="153.4987">
								<stop  offset="0" style="stop-color:#005DAD"/>
								<stop  offset="0.987" style="stop-color:#06B3F0"/>
							</linearGradient>
							<ellipse fill="url(#SVGID_18_)" cx="154.398" cy="143.537" rx="14.21" ry="16.682"/>
							<linearGradient id="SVGID_19_" gradientUnits="userSpaceOnUse" x1="154.1445" y1="141.4575" x2="155.5236" y2="152.7658">
								<stop  offset="0" style="stop-color:#006BDB"/>
								<stop  offset="0.987" style="stop-color:#50CEFF"/>
							</linearGradient>
							<ellipse fill="url(#SVGID_19_)" cx="154.399" cy="143.537" rx="13.164" ry="15.454"/>
							<ellipse cx="154.398" cy="143.537" rx="10.987" ry="12.897"/>
							<linearGradient id="SVGID_20_" gradientUnits="userSpaceOnUse" x1="149.1504" y1="136.5527" x2="156.2968" y2="145.7835">
								<stop  offset="0" style="stop-color:#FFFFFF"/>
								<stop  offset="0.987" style="stop-color:#41D8C5"/>
							</linearGradient>
							<path fill="url(#SVGID_20_)" d="M144.811,146.323c-1.266-3.939,0.144-9.376,3.379-11.996
								c4.69-3.797,11.612-2.903,12.506,2.233c0.893,5.136-3.573,1.116-6.253,6.029c-1.357,2.488-7.505,9.949-9.582,3.887
								C144.844,146.426,144.827,146.374,144.811,146.323z"/>
							<linearGradient id="SVGID_21_" gradientUnits="userSpaceOnUse" x1="163.0073" y1="154.4946" x2="155.2672" y2="144.3729">
								<stop  offset="0" style="stop-color:#FFFFFF"/>
								<stop  offset="0.987" style="stop-color:#41D8C5"/>
							</linearGradient>
							<path fill="url(#SVGID_21_)" d="M160.016,154.609c-1.103-0.499-1.631-2.276-2.149-3.311c-0.893-1.787,1.564-4.02,4.021-2.456
								c1.872,1.191,1.543,5.262-0.811,5.845C160.671,154.788,160.322,154.748,160.016,154.609z"/>
						</g>
						<path d="M134.577,153.936c2.413-11.362,8.396-25.878,21.113-28.699c13.899-3.085,17.988,16.363,18.892,26.286
							c0.037,0.417,0.667,0.434,0.663,0c-0.076-6.483-1.771-12.661-4.527-18.506c-2.64-5.593-7.118-9.991-13.723-9.233
							c-6.165,0.708-11.463,4.981-15.003,9.859c-4.368,6.018-6.123,13.085-7.556,20.255
							C134.416,153.989,134.557,154.028,134.577,153.936L134.577,153.936z"/>
					</g>
				</g>
			</g>
			<path fill="#88F1F2" d="M125.463,162.96c-1.173,0-2.125,0.8-2.125,1.786c0,0.987,0.952,1.787,2.125,1.787
				c1.174,0,2.125-0.8,2.125-1.787C127.589,163.76,126.637,162.96,125.463,162.96z M250.06,129.335c-0.82,0-1.484,0.559-1.484,1.248
				s0.664,1.248,1.484,1.248s1.484-0.559,1.484-1.248S250.88,129.335,250.06,129.335z"/>
			<g>
				<path fill="#FFE200" d="M181.463,160.231c0,0,0.462,0.154,1.147,0.289c1.492,0.296,4.032,0.5,5.104-1.184
					c1.563-2.456,1.34-8.932,5.136-13.621s7.368-5.805,9.378-4.242c2.011,1.563,3.797,3.796,5.808,4.019
					c0,0,4.465-2.679,8.261-1.563c3.797,1.117,4.02,5.806,3.126,7.593c-0.893,1.785-1.563,3.796-1.563,3.796
					s1.786,1.116,3.572-0.895c0,0-0.893,2.681-4.912,3.797c0,0-3.35,7.146-4.242,13.175c-0.894,6.029,4.689,11.835-1.786,14.068
					c0,0-3.797,1.563-8.264-3.796c0,0-5.135-3.797-9.602-8.263s-8.039-10.049-8.039-10.049L181.463,160.231z"/>
				<linearGradient id="SVGID_22_" gradientUnits="userSpaceOnUse" x1="197.8262" y1="152.4136" x2="200.9521" y2="141.9193">
					<stop  offset="0" style="stop-color:#FFE200"/>
					<stop  offset="1" style="stop-color:#FFFF65"/>
				</linearGradient>
				<path fill="url(#SVGID_22_)" d="M199.996,153.532c3.127-3.797,8.04-8.04,8.04-8.04c-2.011-0.223-3.797-2.456-5.808-4.019
					c-2.01-1.563-5.582-0.447-9.378,4.242c-1.653,2.042-2.543,4.423-3.151,6.663C191.496,155.753,197.509,156.551,199.996,153.532z"
					/>
				<g>
					<path fill="#ECA700" d="M217.86,155.318c0,0,0.67-2.011,1.563-3.796c0.572-1.143,0.681-3.469-0.303-5.292
						c-0.048-0.022-0.095-0.046-0.144-0.067c-5.954-2.681-12.058,3.87-17.864,10.569c-5.806,6.698-14.142,6.698-14.142,6.698
						l-5.233-3.118c-0.173-0.049-0.274-0.081-0.274-0.081l3.123,3.124c2.207,1.84,12.101,10.139,14.741,13.177
						c2.977,3.424,6.549,8.188,9.973,7.74c2.528-0.329,3.837-2.198,4.35-3.155c-0.185-2.709-1.896-6.176-1.371-9.722
						c0.893-6.028,4.242-13.175,4.242-13.175c4.02-1.116,4.912-3.797,4.912-3.797C219.646,156.435,217.86,155.318,217.86,155.318z"
						/>
					<path fill="#FFBA00" d="M209.3,184.272c-3.424,0.447-6.996-4.316-9.973-7.74c-2.641-3.038-12.534-11.337-14.741-13.177
						l0.002,0.001c0,0,3.572,5.583,8.039,10.049s9.602,8.263,9.602,8.263c4.467,5.358,8.264,3.796,8.264,3.796
						c2.667-0.92,3.287-2.447,3.157-4.347C213.137,182.074,211.828,183.943,209.3,184.272z"/>
				</g>
				<path fill="#B95C00" d="M191.14,164.176c0,0,8.932-1.488,13.396-7.295c0,0,6.402-7.592,8.933-7.443c0,0,3.275,1.489,0.894,6.253
					c0,0-6.401,13.547-5.658,25.307c0,0-3.274-0.893-6.549-5.358c-3.275-4.466-8.039-9.23-9.528-10.271L191.14,164.176z"/>
				<path d="M199.772,165.663c0,0,1.043-2.381,0.596-4.764c0,0-7.294,3.872-9.081,3.276c-1.786-0.596,2.681,1.637,3.126,2.084
					L199.772,165.663z"/>
				<g>
					<path fill="#FF5B80" d="M201.848,167.063c-0.781-0.775-1.45-1.693-2.396-2.255c-0.947-0.562-2.314-0.641-3.029,0.196
						l0.755,0.774c-0.626-0.374-1.358-0.624-2.062-0.819c-0.853-0.237-1.893-0.399-2.516,0.23l3.601,3.452l1.494,1.548l2.673-0.264
						c1.262-0.124,2.68-0.333,3.429-1.357C203.087,168.149,202.431,167.643,201.848,167.063z"/>
					<path fill="#EA3259" d="M203.965,168.277c-1.702-1.07-2.839-3.123-4.678-3.921c-1.088-0.471-2.192-0.368-2.972,0.542
						c-0.016,0.019-0.024,0.039-0.03,0.062c-0.148-0.06-0.302-0.112-0.456-0.161c-1.09-0.344-2.487-0.698-3.311,0.309
						c-0.082,0.102,0.018,0.241,0.14,0.182c1.615-0.794,4.718,0.533,5.647,1.948c0.156,0.235,0.491,0.032,0.374-0.218
						c-0.435-0.938-1.204-1.536-2.105-1.937c1.539-1.082,3.166,0.238,4.22,1.359c0.775,0.823,1.553,1.545,2.473,2.174
						c-1.416,1.23-3.876,1.077-5.643,1.32c-0.29,0.041-0.223,0.532,0.07,0.515c2.074-0.121,4.84,0.068,6.341-1.644
						C204.18,168.642,204.159,168.398,203.965,168.277z"/>
				</g>
				<path fill="#B95100" d="M221.524,154.579c-0.707,1.534-2.133,2.61-3.802,2.905c-0.394,0.069-0.812,0.09-1.21,0.063
					c-0.942-0.065-1.424-0.21-1.755-1.138c-0.373-1.043,0.136-1.478,0.484-2.419c0.616-1.663,0.264-3.582-1.115-4.677
					c1.204-0.343,2.502-0.4,3.913-0.037c0.295,0.075,0.512-0.374,0.216-0.51c-6.185-2.846-11.703,5.17-15.314,8.874
					c-2.691,2.763-5.723,4.946-9.611,5.56c-4.236,0.667-8.389-0.479-11.709-3.169c-0.092-0.075-0.222,0.047-0.134,0.134
					c2.306,2.22,4.948,3.379,8.011,4.076c2.881,0.655,4.699,2.934,6.556,5.054c2.014,2.299,4.06,4.566,6.11,6.833
					c1.895,2.096,5.231,7.087,8.547,4.448c0.312-0.247-0.091-0.755-0.423-0.548c-0.465,0.292-0.919,0.433-1.365,0.457
					c0.354-4.698,0.66-9.273,1.904-13.849c0.564-2.08,1.188-4.152,1.786-6.222c0.371-1.286,0.909-2.515,1.422-3.751
					c0.152,0.484,0.54,0.85,1.162,1.106c2.628,1.084,5.548-0.629,6.531-3.105C221.774,154.549,221.576,154.464,221.524,154.579z
					 M209.956,166.817c-0.94,4.421-1.729,9.121-1.467,13.652c-2.189-0.246-4.09-3.156-5.397-4.655
					c-1.819-2.084-3.639-4.164-5.479-6.229c-1.654-1.854-3.543-4.299-5.924-5.267c2.393,0.038,4.792-0.493,6.944-1.668
					c3.085-1.684,5.377-4.445,7.649-7.053c1.965-2.257,4.188-4.804,6.903-5.95c0.026,0.032,0.052,0.066,0.093,0.092
					c1.006,0.678,1.599,1.766,1.608,2.99c0.007,0.833-0.366,1.494-0.646,2.213C212.12,158.501,210.799,162.854,209.956,166.817z"/>
			</g>
		</g>
	</g>
</g>
</svg>
