<?xml version="1.0" encoding="utf-8"?>
<!-- Generator: Adobe Illustrator 16.0.0, SVG Export Plug-In . SVG Version: 6.00 Build 0)  -->
<!DOCTYPE svg PUBLIC "-//W3C//DTD SVG 1.1//EN" "http://www.w3.org/Graphics/SVG/1.1/DTD/svg11.dtd">
<svg version="1.1" id="Layer_1" xmlns="http://www.w3.org/2000/svg" xmlns:xlink="http://www.w3.org/1999/xlink" x="0px" y="0px"
	 width="350px" height="350px" viewBox="0 0 350 350" enable-background="new 0 0 350 350" xml:space="preserve">
<g>
	<path fill="#353581" d="M137.579,156.153c-4.225,21.725-10.365,42.933-17.089,63.971c-7.07,12.486-15.776,24.55-12.72,38.66
		c4.42,20.407,29.203,26.805,47.213,28.603c21.735,2.168,44.568-0.773,64.138-10.974c11.234-5.856,27.43-20.443,22.984-34.377
		c-0.323-5.906-1.587-11.921-2.481-16.366c-1.327-6.574-3.119-13.608-5.952-20.076c-1.228-4.01-2.521-7.962-3.813-11.812
		c-5.416-16.119-11.88-31.917-19.637-47.06c-15.849-30.941-36.24-59.144-60.655-83.894c-1.998-2.023-5.538-0.313-5.419,2.443
		C145.45,95.675,143.39,126.265,137.579,156.153z M165.226,90.063c3.071,3.771,6.063,7.606,8.969,11.506
		c-0.588,2.976-3.293,6.091-6.603,5.273c-8.131-2.01-7.762-10.645-4.837-16.78C163.59,90.135,164.415,90.141,165.226,90.063z
		 M224.137,198.447c0.569,1.798,1.108,3.604,1.628,5.417c-0.155,0.205-0.294,0.427-0.388,0.676
		c-7.868,20.587-35.439,0.68-35.163-14.857c0.271-15.213,16.644-23.7,25.522-14.341
		C218.834,182.931,221.655,190.632,224.137,198.447z M235.79,251.021c-1.484,5.318-4.434,9.827-8.388,13.643
		c-0.201-0.265-0.5-0.439-0.864-0.385c-4.498,0.688-9.159,0.403-10.396-5.267c-1.057-4.837,0.465-9.394,3.03-13.494
		c2.032-3.248,6.382-10.505,11.445-8.692c2.391,0.854,3.487,2.49,4.616,4.239c0.15,1.861,0.285,3.726,0.365,5.602
		C235.663,248.177,235.688,249.62,235.79,251.021z M189.847,280.549c-9.565,1.525-19.373,1.916-28.146,1.448
		c-0.032-0.021-0.053-0.048-0.088-0.063c-19.25-9.534,1.577-32.852,17.199-28.14c6.735,2.034,13.334,7.214,13.521,14.916
		C192.437,273.059,191.183,276.644,189.847,280.549z M121.485,230.607c0.271,0.491,0.765,0.872,1.537,0.992
		c5.331,0.819,10.895,2.365,13.563,7.613c2.75,5.412,2.446,12.438-2.132,16.887c-6.424,6.242-13.224,5.182-20.442,2.859
		c-1.367-5.307-0.756-10.849,0.993-16.188c0.269-0.069,0.512-0.237,0.666-0.527C117.716,238.422,119.644,234.535,121.485,230.607z
		 M150.786,73.431c3.399,3.662,6.689,7.425,9.923,11.233c-0.732,0.157-1.376,0.593-1.796,1.285c-4.98,8.21-5.365,21.421,5.37,25.328
		c4.819,1.752,11.024-0.548,13.479-4.785c9.977,13.906,18.924,28.548,26.603,43.85c2.86,5.702,5.577,11.477,8.136,17.323
		c-3.583-1.623-7.795-2.203-11.898-1.57c-12.717,1.965-18.163,15.328-17.021,26.728c1.141,11.381,11.882,23.469,22.943,26.23
		c8.138,2.032,17.304,0.24,21.67-6.15c1.522,5.961,2.955,11.944,4.529,17.88c-0.213-0.057-0.425-0.122-0.642-0.157
		c-8.522-1.432-14.77,4.73-18.681,11.732c-3.592,6.423-7.2,17.066-0.906,23.274c2.256,2.229,5.666,3.891,8.813,3.886
		c-7.202,4.739-16.274,7.97-25.869,9.987c3.959-5.875,3.706-15.077-0.082-20.8c-5.594-8.456-16.007-13.875-26.278-11.257
		c-11.073,2.827-19.448,11.103-21.593,22.428c-0.668,3.531,0.361,7.702,2.493,10.886c-1.794-0.298-3.496-0.636-5.083-1.013
		c-9.135-2.18-21.568-5.195-27.447-13.41c9.232,2.55,21.724-3.021,25.065-11.688c5.005-12.976-3.462-29.818-19.033-27.749
		c-0.109,0.014-0.211,0.045-0.313,0.072c0.775-1.726,1.533-3.459,2.272-5.202c2.105-4.119,3.928-8.307,4.996-12.657
		c0.796-2.17,1.545-4.356,2.29-6.546c0.729,4.806,3.293,9.292,8.074,12.266c12.191,7.578,27.913,0.926,30.187-13.495
		c1.117-7.089-4.691-18.018-11.961-20.518c-5.285-2.4-11.702-2.38-17.195,1.25c-1.436,0.947-2.716,2.076-3.844,3.332
		C147.948,149.066,151.499,110.551,150.786,73.431z M147.652,186.121c2.043-0.57,4.027-0.715,5.919-0.524
		c6.899,2.595,13.536,7.275,11.109,16.081c-2.476,8.987-14.226,14.414-21.7,7.147C136.084,202.117,137.415,188.979,147.652,186.121z
		"/>
	<path fill="#353581" d="M158.573,159.285c11.709,8.833,24.846-0.381,26.605-13.577c0.788-5.905-0.891-12.174-5.093-16.421
		c-0.968-0.978-2.146-1.674-3.392-2.125c-4.217-2.484-9.806-2.998-14.638-0.476C150.383,132.78,147.443,150.887,158.573,159.285z
		 M165.926,130.807c0.652-0.152,1.291-0.24,1.925-0.301c0.17,0.281,0.465,0.497,0.882,0.528c9.118,0.697,13.447,10.875,8.998,18.897
		c-3.778,6.81-13.269,9.87-18.252,2.074C154.986,144.975,156.405,133.029,165.926,130.807z"/>
	<path fill="#353581" d="M170.956,239.563c8.828,5.756,21.211-0.145,21.364-11.107c0.066-4.857-2.465-9.7-6.896-11.974
		c-1.374-0.707-2.983-1.286-4.597-1.532c-2.484-0.552-5.107-0.336-7.639,0.866C163.706,220.315,161.748,233.56,170.956,239.563z
		 M175.398,221.351c1.75-0.83,3.342-0.951,4.786-0.611c0.638,0.219,1.262,0.456,1.852,0.732c1.444,0.814,2.694,2.098,3.729,3.58
		c0.288,0.741,0.453,1.588,0.425,2.599c-0.16,5.605-6.086,10.408-11.35,6.987C169.763,231.338,169.568,224.119,175.398,221.351z"/>
</g>
</svg>
