<?xml version="1.0" encoding="utf-8"?>
<!-- Generator: Adobe Illustrator 16.0.0, SVG Export Plug-In . SVG Version: 6.00 Build 0)  -->
<!DOCTYPE svg PUBLIC "-//W3C//DTD SVG 1.1//EN" "http://www.w3.org/Graphics/SVG/1.1/DTD/svg11.dtd">
<svg version="1.1" id="Layer_1" xmlns="http://www.w3.org/2000/svg" xmlns:xlink="http://www.w3.org/1999/xlink" x="0px" y="0px"
	 width="350px" height="350px" viewBox="0 0 350 350" enable-background="new 0 0 350 350" xml:space="preserve">
<g>
	<g opacity="0.7">
		<image overflow="visible" width="214" height="315" xlink:href="8F992C6.png"  transform="matrix(1 0 0 1 70 18)">
		</image>
	</g>
	<path fill="#FFFFFF" d="M105.977,272.31c10.199,13.348,34.339,21.613,66.23,22.676c17.904,0.598,33.246-1.124,45.594-5.118l0,0
		c9.751-3.152,17.153-7.56,21.994-13.094c5.484-6.259,4.199-14.857,2.109-24.632c-1.493-6.977-3.991-16.417-7.431-28.064
		c-5.841-19.791-14.33-45.702-23.292-71.104l-0.22-0.625c-4.383-12.407-8.489-23.571-11.857-32.246c0,0-1.566-3.996-1.665-4.236
		c10.964-8.038,17.083-18.176,17.169-28.925c0.183-22.793-11.978-30.225-14.416-31.483c-3.351-1.729-7.134-1.956-10.52-0.86
		c-2.509,0.811-4.799,2.348-6.532,4.537l-0.924,1.167c-11.033-8.609-20.519-7.268-22.669-6.811c-0.47,0.1-0.929,0.223-1.377,0.368
		c-5.686,1.838-9.591,7.197-9.492,13.279l0.038,2.396c-3.193,0.233-6.187,0.799-8.964,1.697c-8.106,2.621-11.946,7.238-13.219,9.101
		c-3.706,5.414-3.06,12.693,1.539,17.371l10.804,10.991c3.689,3.754,9.067,5.055,13.927,3.483c0.758-0.246,1.503-0.561,2.228-0.946
		c0.012-0.006,1.136-0.579,2.678-1.077c1.466-0.474,2.479-0.609,2.985-0.632c0.161,0.106,0.348,0.242,0.56,0.409
		c-6.762,13.502-16.409,35.864-21.096,46.889l-2.267,5.357c-12.664,30.057-34.059,82.818-35.045,98.481"/>
	<g>
		<g>
			<path fill="#8C86E6" d="M179.258,109.865c0,0-6.132-24.293-21.506-26.338c-15.378-2.043-19.894,4.555-19.894,4.555l10.807,10.99
				c0,0,9.508-5.074,16.495-2.593C172.141,98.961,179.258,109.865,179.258,109.865z"/>
			<path fill="#8C86E6" d="M177.365,111.24c0,0,12.314-21.822,2.584-33.904c-9.722-12.084-17.548-10.42-17.548-10.42l0.251,15.411
				c0,0,10.383,2.883,13.733,9.497C179.729,98.435,177.365,111.24,177.365,111.24z"/>
			<path fill="#8C86E6" d="M177.414,111.435c0,0,23.347-9.091,23.472-24.603c0.122-15.51-6.987-19.178-6.987-19.178l-9.567,12.085
				c0,0,6.213,8.809,4.615,16.044C187.351,103.022,177.414,111.435,177.414,111.435z"/>
		</g>
		<path fill="#FFED6F" d="M178.451,107.689c-3.683-0.124-67.357,148.715-61.57,156.289c5.785,7.568,23.11,16.202,55.782,17.29
			c32.672,1.09,50.535-6.366,56.811-13.536C235.751,260.563,182.138,107.811,178.451,107.689z"/>
		<g>
			<path fill="#FD7198" d="M135.844,203.499c-2.814,7.129-5.47,14.056-7.867,20.525c30.134,2.814,60.489-0.294,89.373-9.117
				c-2.022-6.505-4.189-13.276-6.434-20.117C186.625,202.177,161.197,205.149,135.844,203.499z"/>
			<path fill="#FD7198" d="M227.941,252.611c-1.304-5.694-3.161-12.662-5.417-20.489c-32.346,12.18-67.208,16.235-101.512,11.78
				c-3.546,10.954-5.321,18.521-4.132,20.075c0.193,0.252,0.43,0.506,0.65,0.758C154.802,269.704,192.688,265.519,227.941,252.611z"
				/>
			<path fill="#FD7198" d="M171.79,119.578c-2.765,5.745-6.187,13.223-9.992,21.83c9.896-0.402,19.758-1.402,29.522-3.066
				c-2.963-8.025-5.62-14.96-7.754-20.194C179.653,118.735,175.731,119.216,171.79,119.578z"/>
			<path fill="#FD7198" d="M152.788,162.187c-2.903,6.832-5.868,13.924-8.792,21.051c20.526,0.617,41.019-1.515,60.963-6.285
				c-2.328-6.857-4.667-13.603-6.938-20.033C183.18,160.316,168.016,162.057,152.788,162.187z"/>
		</g>
	</g>
	<path fill="#8C86E6" d="M153.73,268.573l1.101-0.766l-1.548-2.218c0.153,0.625,0.279,1.26,0.359,1.907
		C153.69,267.857,153.698,268.214,153.73,268.573z"/>
</g>
</svg>
