<?xml version="1.0" encoding="utf-8"?>
<!-- Generator: Adobe Illustrator 16.0.0, SVG Export Plug-In . SVG Version: 6.00 Build 0)  -->
<!DOCTYPE svg PUBLIC "-//W3C//DTD SVG 1.1//EN" "http://www.w3.org/Graphics/SVG/1.1/DTD/svg11.dtd">
<svg version="1.1" id="Layer_1" xmlns="http://www.w3.org/2000/svg" xmlns:xlink="http://www.w3.org/1999/xlink" x="0px" y="0px"
	 width="350px" height="350px" viewBox="0 0 350 350" enable-background="new 0 0 350 350" xml:space="preserve">
<g>
	<g opacity="0.7">
		<image overflow="visible" width="308" height="317" xlink:href="3AA7271D.png"  transform="matrix(1 0 0 1 22 17)">
		</image>
	</g>
	<path fill="#FFFFFF" d="M290.337,205.257c-0.243-0.685-0.547-1.349-0.929-2.027c-0.047-0.086-0.097-0.174-0.147-0.262
		c-0.308-0.522-0.654-1.034-1.038-1.533l-0.176-0.224c-0.345-0.435-0.726-0.871-1.132-1.289c-0.012-0.012-0.079-0.08-0.091-0.093
		c-0.705-0.722-1.517-1.438-2.457-2.167c-0.036-0.028-0.075-0.057-0.112-0.085c-0.422-0.324-0.879-0.654-1.305-0.944
		c-0.035-0.024-0.167-0.115-0.176-0.121c-0.445-0.301-0.917-0.606-1.418-0.917c0,0-0.083-0.051-0.098-0.06
		c-4.453-2.732-10.514-5.344-17.817-7.697c3.706-13.941,7.935-32.773,7.735-40.125c0-0.003-0.003-0.095-0.005-0.14
		c-0.011-0.289-0.025-0.563-0.047-0.819c-0.01-0.153-0.022-0.292-0.031-0.363c-0.033-0.332-0.076-0.637-0.119-0.904
		c-0.021-0.132-0.056-0.333-0.083-0.465c-0.123-0.616-0.276-1.179-0.465-1.709c-3.229-9.087-19.023-14.861-34.269-18.386
		l0.134-18.302c0.02-2.72-0.654-5.313-1.855-7.6c2.68-3.207,4.265-7.321,4.297-11.772c0.044-6.146-3.858-10.54-6.708-13.748
		c-0.566-0.637-1.351-1.519-1.826-2.136c-0.392-3.084-2.21-5.857-4.979-7.431c-2.205-1.253-4.754-1.598-7.14-1.061
		c-1.253,0.282-2.461,0.808-3.551,1.574c-6.215,4.367-12.853,13.751-12.912,22.529c-0.032,4.435,1.51,8.542,4.114,11.771
		c-1.233,2.283-1.933,4.89-1.952,7.644l-0.099,13.553c-3.891-0.347-7.887-0.629-11.974-0.844l0.167-23.036
		c0.021-2.723-0.652-5.318-1.854-7.607c2.677-3.206,4.261-7.316,4.294-11.766c0.046-6.147-3.856-10.543-6.707-13.752
		c-0.565-0.636-1.349-1.519-1.824-2.135c-0.394-3.085-2.21-5.859-4.979-7.433c-2.207-1.253-4.755-1.598-7.141-1.06
		c-1.253,0.282-2.461,0.808-3.551,1.574c-6.213,4.368-12.851,13.75-12.914,22.534c-0.03,4.432,1.511,8.537,4.116,11.764
		c-1.234,2.283-1.934,4.891-1.953,7.645l-0.166,22.946c-4.082,0.133-8.082,0.333-11.982,0.6l0.097-13.385
		c0.021-2.725-0.651-5.321-1.855-7.611c2.679-3.206,4.263-7.319,4.295-11.771c0.044-6.144-3.857-10.538-6.707-13.746
		c-0.566-0.637-1.351-1.52-1.827-2.138c-0.392-3.085-2.21-5.859-4.98-7.433c-2.205-1.251-4.753-1.597-7.139-1.06
		c-1.253,0.282-2.461,0.808-3.551,1.574c-6.213,4.367-12.85,13.75-12.911,22.534c-0.032,4.433,1.509,8.538,4.114,11.765
		c-1.236,2.284-1.935,4.891-1.954,7.646l-0.13,17.874c-1.035,0.214-2.053,0.433-3.054,0.659
		c-19.492,4.391-30.752,10.326-33.464,17.635c-0.184,0.493-0.338,1.012-0.458,1.542c-0.042,0.189-0.083,0.394-0.12,0.603
		c-0.024,0.133-0.047,0.266-0.068,0.409c-0.037,0.24-0.068,0.498-0.093,0.763c-0.006,0.057-0.013,0.115-0.018,0.174
		c-0.183,2.041-0.05,4.624,0.438,8.409l0.26,1.902c0.015,0.104,0.031,0.207,0.049,0.309c1.142,7.702,3.512,19.146,6.213,29.996
		c0.007,0.031,0.095,0.382,0.13,0.523c-0.229,0.071-0.746,0.232-0.781,0.244c-0.864,0.271-1.699,0.541-2.487,0.806
		c-0.009,0.003-0.102,0.033-0.112,0.038c-0.845,0.282-1.663,0.568-2.5,0.872c-0.014,0.004-0.033,0.011-0.052,0.018
		c-0.764,0.277-1.505,0.555-2.218,0.832c-0.041,0.016-0.078,0.029-0.132,0.052c-3.728,1.456-6.944,2.98-9.508,4.497
		c-0.081,0.046-0.172,0.099-0.233,0.135c-4.891,2.923-7.788,5.949-9.116,9.521c-0.208,0.56-0.376,1.142-0.515,1.789
		c-0.032,0.15-0.063,0.315-0.092,0.482c-0.056,0.313-0.106,0.651-0.15,1.041l-0.02,0.198c-0.034,0.336-0.061,0.697-0.08,1.083
		c0,0.024-0.002,0.049-0.002,0.072c-0.484,11.158,7.401,44.827,11.531,59.542c0,0.002,0.433,1.527,0.438,1.54
		c0.429,1.495,0.849,2.906,1.254,4.218c0.007,0.024,0.385,1.227,0.385,1.227l0.436,1.346c0,0,0.276,0.825,0.397,1.177
		c0.004,0.015,0.423,1.208,0.432,1.236c0.276,0.765,0.542,1.467,0.778,2.051c0,0,0.298,0.729,0.382,0.922
		c0,0,0.342,0.773,0.418,0.935l0.162,0.341c0.109,0.226,0.216,0.438,0.308,0.615l0.195,0.366c0.122,0.224,0.241,0.429,0.373,0.649
		c0.076,0.128,0.154,0.255,0.223,0.362c0.157,0.244,0.305,0.459,0.472,0.689c0.11,0.154,0.252,0.345,0.364,0.486
		c0.469,0.588,0.958,1.101,1.473,1.545c2.7,2.348,6.318,3.466,14.893,4.598c0,0,0.056,0.007,0.084,0.012
		c10.82,1.423,26.858,2.412,38.416,2.992c0,0,5.572,0.267,5.65,0.269c11.765,0.528,23.823,0.893,34.011,1.022l3.614,0.034
		c5.68,0.041,12.358,0.009,19.318-0.094l0.202-0.004c25.282-0.383,58.832-1.733,70.174-4.29c0.001,0,0.001,0,0.002,0
		c2.278-0.512,4.903-1.287,7.114-3.158c0.513-0.436,0.983-0.914,1.483-1.516c0.115-0.142,0.239-0.305,0.365-0.474
		c0.151-0.202,0.304-0.416,0.451-0.638c0.076-0.115,0.275-0.433,0.299-0.47c0.112-0.182,0.225-0.372,0.358-0.608l0.163-0.298
		c0.105-0.19,0.211-0.396,0.319-0.609c0.054-0.106,0.111-0.222,0.185-0.371c0.1-0.21,0.396-0.851,0.396-0.851
		c3.747-8.348,9.779-31.1,13.448-48.29c0,0,0.572-2.723,0.572-2.726c3.99-19.369,3.197-23.206,2.745-25.23
		C290.652,206.248,290.506,205.732,290.337,205.257z"/>
	<g>
		<g>
			<g>
				<g>
					<path fill="#8C86E6" d="M181.603,133.586c-0.024,3.455-2.848,6.236-6.302,6.21l0,0c-3.457-0.023-6.237-2.846-6.212-6.301
						l0.271-37.591c0.025-3.454,2.848-6.236,6.304-6.21l0,0c3.454,0.024,6.236,2.846,6.211,6.302L181.603,133.586z"/>
					<path fill="#FFFFFF" d="M173.922,129.846c-0.008,0.801-0.662,1.444-1.463,1.438l0,0c-0.799-0.006-1.444-0.659-1.437-1.46
						l0.245-33.932c0.007-0.8,0.659-1.444,1.458-1.438l0,0c0.801,0.006,1.446,0.658,1.439,1.458L173.922,129.846z"/>
				</g>
				<path fill="#432918" d="M176.188,91.146c-0.002,0.295-0.242,0.533-0.54,0.53l0,0c-0.295-0.002-0.531-0.242-0.529-0.537
					l0.073-10.072c0.002-0.295,0.241-0.532,0.538-0.53l0,0c0.296,0.002,0.534,0.242,0.532,0.538L176.188,91.146z"/>
				<g>
					<path fill="#FFED00" d="M184.313,76.617c-0.034,4.727-3.889,8.532-8.619,8.497c-4.726-0.034-8.529-3.896-8.495-8.622
						c0.033-4.728,4.43-11.446,8.663-14.422C175.497,66.939,184.352,71.889,184.313,76.617z"/>
					<path fill="#F9B233" d="M180.122,78.723c-0.02,2.676-2.201,4.828-4.876,4.808c-2.675-0.02-4.826-2.203-4.806-4.877
						c0.018-2.674,2.504-6.478,4.9-8.16C175.13,73.249,180.14,76.05,180.122,78.723z"/>
				</g>
			</g>
		</g>
		<g>
			<g>
				<g>
					<g>
						<path fill="#8C86E6" d="M226.02,144.15c-0.025,3.457-2.847,6.236-6.302,6.21l0,0c-3.458-0.024-6.236-2.847-6.211-6.301
							l0.271-37.591c0.025-3.455,2.846-6.236,6.301-6.211l0,0c3.456,0.025,6.237,2.847,6.214,6.302L226.02,144.15z"/>
						<path fill="#FFFFFF" d="M218.338,140.41c-0.006,0.799-0.659,1.443-1.46,1.437l0,0c-0.8-0.005-1.443-0.659-1.438-1.459
							l0.245-33.932c0.005-0.8,0.659-1.443,1.458-1.438l0,0c0.803,0.006,1.445,0.659,1.439,1.459L218.338,140.41z"/>
					</g>
					<path fill="#432918" d="M220.605,101.71c-0.005,0.295-0.243,0.534-0.539,0.531l0,0c-0.297-0.003-0.532-0.244-0.529-0.538
						l0.072-10.072c0.002-0.295,0.241-0.532,0.537-0.531l0,0c0.297,0.003,0.532,0.244,0.531,0.54L220.605,101.71z"/>
					<g>
						<path fill="#FFED00" d="M228.731,87.181c-0.033,4.726-3.89,8.53-8.618,8.497c-4.728-0.034-8.532-3.894-8.495-8.621
							c0.031-4.728,4.428-11.447,8.661-14.423C219.913,77.503,228.768,82.453,228.731,87.181z"/>
						<path fill="#F9B233" d="M224.539,89.287c-0.021,2.676-2.2,4.827-4.877,4.808c-2.675-0.019-4.824-2.201-4.805-4.877
							c0.018-2.673,2.502-6.477,4.899-8.16C219.549,83.813,224.557,86.614,224.539,89.287z"/>
					</g>
				</g>
			</g>
			<g>
				<g>
					<g>
						<path fill="#8C86E6" d="M137.037,143.506c-0.023,3.455-2.848,6.236-6.301,6.211l0,0c-3.456-0.025-6.236-2.846-6.213-6.301
							l0.273-37.592c0.024-3.454,2.846-6.235,6.304-6.211l0,0c3.453,0.024,6.237,2.846,6.21,6.301L137.037,143.506z"/>
						<path fill="#FFFFFF" d="M129.355,139.765c-0.007,0.8-0.66,1.444-1.462,1.438l0,0c-0.797-0.005-1.44-0.659-1.436-1.459
							l0.246-33.932c0.007-0.8,0.659-1.444,1.458-1.438l0,0c0.801,0.006,1.445,0.658,1.438,1.458L129.355,139.765z"/>
					</g>
					<path fill="#432918" d="M131.623,101.065c-0.003,0.295-0.243,0.533-0.541,0.531l0,0c-0.295-0.002-0.531-0.243-0.527-0.538
						l0.072-10.072c0.001-0.295,0.243-0.533,0.537-0.53l0,0c0.297,0.002,0.535,0.242,0.532,0.538L131.623,101.065z"/>
					<g>
						<path fill="#FFED00" d="M139.75,86.537c-0.034,4.727-3.889,8.532-8.619,8.497c-4.729-0.034-8.53-3.894-8.496-8.621
							c0.033-4.729,4.427-11.447,8.662-14.424C130.932,76.858,139.784,81.809,139.75,86.537z"/>
						<path fill="#F9B233" d="M135.556,88.643c-0.02,2.677-2.201,4.828-4.877,4.809c-2.675-0.02-4.824-2.203-4.805-4.877
							c0.019-2.674,2.503-6.478,4.901-8.161C130.565,83.167,135.575,85.971,135.556,88.643z"/>
					</g>
				</g>
			</g>
		</g>
		<path fill="#FFED6F" d="M87.52,145.405c1.921-5.173,29.512-17.229,86.867-16.815c57.358,0.415,84.769,12.872,86.617,18.072
			c1.849,5.197-10.776,56.026-14.097,58.829c-3.32,2.806-48.448,4.364-73.107,4.187c-24.658-0.179-69.758-2.392-73.039-5.244
			C97.482,201.582,85.595,150.575,87.52,145.405z"/>
		<g>
			<circle fill="#FD7198" cx="248.962" cy="146.784" r="3.358"/>
			<path fill="#FD7198" d="M189.754,179.383c-0.014,1.855,1.48,3.369,3.331,3.384c1.857,0.014,3.371-1.478,3.385-3.335
				c0.014-1.854-1.478-3.367-3.336-3.381C191.282,176.037,189.767,177.528,189.754,179.383z"/>
			<circle fill="#FD7198" cx="204.594" cy="165.995" r="3.357"/>
			<circle fill="#FD7198" cx="177.989" cy="169.161" r="3.357"/>
			<path fill="#FD7198" d="M180.429,149.646c-0.01,1.854,1.48,3.369,3.334,3.382c1.856,0.013,3.37-1.479,3.383-3.334
				c0.014-1.854-1.479-3.368-3.334-3.382C181.958,146.299,180.444,147.791,180.429,149.646z"/>
			<circle fill="#FD7198" cx="218.224" cy="181.727" r="3.357"/>
			<path fill="#FD7198" d="M204.697,151.6c0.015-1.855-1.478-3.369-3.336-3.382c-1.851-0.014-3.367,1.479-3.379,3.333
				c-0.015,1.855,1.48,3.369,3.33,3.382C203.172,154.946,204.686,153.457,204.697,151.6z"/>
			<circle fill="#FD7198" cx="255.562" cy="163.007" r="3.358"/>
			<circle fill="#FD7198" cx="220.793" cy="158.851" r="3.358"/>
			<circle fill="#FD7198" cx="235.532" cy="169.577" r="3.357"/>
			<circle fill="#FD7198" cx="240.814" cy="186.774" r="3.358"/>
			<path fill="#FD7198" d="M235.636,155.182c1.856,0.014,3.37-1.477,3.384-3.333s-1.478-3.369-3.335-3.382
				c-1.852-0.014-3.369,1.478-3.382,3.332C232.29,153.656,233.785,155.168,235.636,155.182z"/>
			<path fill="#FD7198" d="M92.581,177.477c0.49,2.109,0.99,4.196,1.497,6.225c0.986-0.58,1.655-1.635,1.665-2.862
				C95.755,179.045,94.354,177.58,92.581,177.477z"/>
			<path fill="#FD7198" d="M165.419,161.39c0.014-1.855-1.479-3.37-3.334-3.383c-1.853-0.013-3.37,1.479-3.381,3.333
				c-0.014,1.855,1.481,3.368,3.332,3.382C163.894,164.737,165.405,163.245,165.419,161.39z"/>
			<path fill="#FD7198" d="M158.576,179.157c0.013-1.853-1.479-3.368-3.333-3.379c-1.854-0.016-3.37,1.478-3.383,3.332
				c-0.014,1.856,1.481,3.368,3.335,3.382C157.047,182.505,158.563,181.014,158.576,179.157z"/>
			<path fill="#FD7198" d="M253.961,175.269c-1.855-0.012-3.368,1.479-3.382,3.335c-0.013,1.854,1.479,3.367,3.333,3.38
				c0.257,0.002,0.505-0.03,0.747-0.085c0.494-1.912,0.975-3.863,1.447-5.814C255.526,175.588,254.783,175.275,253.961,175.269z"/>
			<path fill="#FD7198" d="M92.6,151.208c0.015-1.854-1.48-3.368-3.335-3.382c-0.712-0.005-1.369,0.216-1.916,0.59
				c0.08,1.549,0.3,3.542,0.638,5.877c0.383,0.155,0.797,0.247,1.229,0.25C91.071,154.556,92.586,153.063,92.6,151.208z"/>
			<circle fill="#FD7198" cx="165.514" cy="148.378" r="3.358"/>
			<circle fill="#FD7198" cx="136.133" cy="174.416" r="3.357"/>
			<path fill="#FD7198" d="M148.087,157.905c0.014-1.855-1.478-3.368-3.332-3.382c-1.854-0.014-3.368,1.479-3.382,3.333
				c-0.014,1.856,1.481,3.37,3.332,3.383C146.562,161.251,148.074,159.761,148.087,157.905z"/>
			<circle fill="#FD7198" cx="104.73" cy="172.053" r="3.358"/>
			<circle fill="#FD7198" cx="129.597" cy="149.277" r="3.358"/>
			<circle fill="#FD7198" cx="104.831" cy="158.012" r="3.357"/>
			<circle fill="#FD7198" cx="121.277" cy="165.393" r="3.357"/>
			<path fill="#FD7198" d="M114.448,180.974c-0.013,1.857,1.482,3.37,3.334,3.384c1.854,0.013,3.368-1.479,3.381-3.335
				c0.012-1.853-1.479-3.367-3.333-3.379C115.979,177.63,114.462,179.12,114.448,180.974z"/>
		</g>
		<path fill="#FD7198" d="M174.386,128.59c57.358,0.415,84.769,12.872,86.617,18.072c0.277,0.782,0.223,2.612-0.072,5.147
			c-0.795,0.932-1.818,1.458-3.155,1.284c-6.754-0.874-12.581-15.582-20.345-13.5c-7.759,2.086-3.034,9.706-10.614,9.319
			c-7.581-0.384-4.7-10.42-9.824-9.138c-5.116,1.285,0.271,8.409-4.505,7.88c-4.775-0.528-11.782-11.787-18.384-10.68
			c-6.601,1.104-2.351,6.244-8.945,6.032c-6.589-0.212-11.475-7.993-20.223-6.327c-8.749,1.667-7.668,11.564-12.438,10.541
			c-4.775-1.024-3.586-6.122-7.206-6.314c-3.627-0.191-4.806,3.451-8.759,3.327c-3.956-0.124-2.608-4.563-9.694-4.615
			c-7.084-0.05-6.833,10.663-11.934,9.472c-5.1-1.189-2.41-8.256-6.534-8.287c-4.122-0.03-1.704,8.063-5.657,7.54
			c-3.951-0.522-4.084-4.944-6.725-4.404c-2.64,0.545-4.3,7.123-8.603,4.787c-0.011-0.003-0.016-0.009-0.022-0.014
			c-0.094-1.57-0.057-2.733,0.157-3.307C89.441,140.232,117.032,128.175,174.386,128.59z"/>
		<path fill="#9EFFC1" d="M280.912,208.602c-2.28-6.42-36.126-21.798-106.943-22.31c-70.818-0.516-104.88,14.372-107.255,20.759
			c-2.377,6.385,12.304,69.358,16.352,72.879c4.048,3.523,59.735,6.254,90.177,6.473c30.443,0.223,86.165-1.699,90.262-5.166
			C267.606,277.777,283.196,215.021,280.912,208.602z"/>
		<g>
			<path fill="#8C86E6" d="M138.467,187.436c-3.975,0.3-7.778,0.657-11.41,1.057L76.06,259.204
				c1.025,3.926,2.033,7.546,2.975,10.637L138.467,187.436z"/>
			<path fill="#8C86E6" d="M161.88,186.36c-3.752,0.066-7.373,0.185-10.895,0.335l-67.449,93.528
				c1.354,0.684,4.633,1.336,9.248,1.947L161.88,186.36z"/>
			<path fill="#8C86E6" d="M184.422,186.491c-3.396-0.104-6.864-0.175-10.453-0.199c-0.017-0.002-0.033-0.002-0.052-0.001
				l-69.996,97.051c3.148,0.278,6.531,0.54,10.089,0.782L184.422,186.491z"/>
			<path fill="#8C86E6" d="M237.86,191.8l-68.205,94.567c1.228,0.014,2.434,0.03,3.588,0.035c2.212,0.02,4.574,0.018,7.026,0.015
				l66.842-92.681C244.218,193.065,241.14,192.414,237.86,191.8z"/>
			<path fill="#8C86E6" d="M66.47,209.726c0.04,2.807,0.607,7.272,1.518,12.655L86.797,196.3
				c-6.803,2.126-11.865,4.327-15.208,6.325L66.47,209.726z"/>
			<path fill="#8C86E6" d="M113.803,190.242c-4.41,0.693-8.5,1.451-12.273,2.254l-31.027,43.024
				c0.773,3.709,1.621,7.525,2.501,11.299L113.803,190.242z"/>
			<path fill="#8C86E6" d="M273.167,251.77c1.862-7.28,3.65-14.938,5.061-21.781l-39.389,54.62
				c4.145-0.269,7.952-0.565,11.287-0.887L273.167,251.77z"/>
			<path fill="#8C86E6" d="M281.078,209.413c-0.04-0.325-0.091-0.603-0.166-0.812c-0.5-1.406-2.518-3.243-6.104-5.262
				l-59.419,82.394c3.724-0.13,7.398-0.277,10.968-0.444L281.078,209.413z"/>
			<path fill="#8C86E6" d="M206.205,187.674c-3.266-0.268-6.653-0.496-10.147-0.695l-70.568,97.851
				c3.378,0.19,6.824,0.359,10.276,0.519L206.205,187.674z"/>
			<path fill="#8C86E6" d="M227.147,190.026c-3.106-0.455-6.354-0.873-9.738-1.263l-69.991,97.051
				c3.55,0.124,7.041,0.232,10.417,0.318L227.147,190.026z"/>
			<path fill="#8C86E6" d="M265.771,199.248c-2.533-0.96-5.39-1.927-8.577-2.869l-64.858,89.931
				c3.524-0.054,7.144-0.127,10.802-0.215L265.771,199.248z"/>
		</g>
		<path fill="#FD7198" d="M173.365,269.923c-28.82-0.209-77.488-2.169-95.724-4.854c2.245,7.997,4.27,13.857,5.425,14.861
			c4.048,3.523,59.735,6.254,90.177,6.473c30.443,0.223,86.165-1.699,90.262-5.166c1.172-0.986,3.277-6.819,5.639-14.783
			C250.877,268.875,202.184,270.133,173.365,269.923z"/>
		<path fill="#FD7198" d="M173.969,186.292c-70.818-0.516-104.88,14.372-107.255,20.759c-0.357,0.962-0.321,3.224,0,6.359
			c0.965,1.159,2.217,1.83,3.876,1.639c8.349-0.957,15.806-19.013,25.351-16.298c9.542,2.714,3.575,12.033,12.937,11.692
			c9.366-0.341,5.995-12.779,12.291-11.105c6.297,1.675-0.482,10.375,5.423,9.81c5.909-0.57,14.756-14.342,22.886-12.859
			c8.127,1.483,2.792,7.752,10.934,7.606c8.139-0.142,14.313-9.663,25.084-7.448c10.768,2.215,9.252,14.413,15.166,13.237
			c5.909-1.18,4.53-7.495,9.008-7.667c4.478-0.173,5.866,4.35,10.755,4.264c4.884-0.084,3.297-5.589,12.046-5.525
			c8.75,0.063,8.25,13.284,14.566,11.906c6.317-1.378,3.123-10.149,8.213-10.112c5.087,0.037,1.963,9.983,6.851,9.41
			c4.889-0.577,5.13-6.03,8.382-5.316c3.251,0.72,5.181,8.872,10.54,6.062c0.007-0.003,0.011-0.014,0.021-0.018
			c0.142-1.938,0.119-3.373-0.132-4.085C278.632,202.182,244.786,186.804,173.969,186.292z"/>
	</g>
</g>
</svg>
