<?xml version="1.0" encoding="utf-8"?>
<!-- Generator: Adobe Illustrator 16.0.0, SVG Export Plug-In . SVG Version: 6.00 Build 0)  -->
<!DOCTYPE svg PUBLIC "-//W3C//DTD SVG 1.1//EN" "http://www.w3.org/Graphics/SVG/1.1/DTD/svg11.dtd">
<svg version="1.1" id="Layer_1" xmlns="http://www.w3.org/2000/svg" xmlns:xlink="http://www.w3.org/1999/xlink" x="0px" y="0px"
	 width="350px" height="350px" viewBox="0 0 350 350" enable-background="new 0 0 350 350" xml:space="preserve">
<g>
	<g>
		<rect x="56.423" y="84.039" fill="#00C37A" width="236.922" height="177.692"/>
	</g>
	<g>
		<path fill="#7E5C62" d="M289.23,79.808H60.77c-4.665,0-8.461,3.795-8.461,8.462v165c0,2.336,1.893,4.229,4.231,4.229
			s4.23-1.894,4.23-4.229v-165H289.23v165c0,2.336,1.892,4.229,4.23,4.229s4.23-1.894,4.23-4.229v-165
			C297.691,83.603,293.895,79.808,289.23,79.808z"/>
	</g>
	<g>
		<path fill="#E6BE8A" d="M306.27,270.191H43.73c-2.336,0-4.23-1.894-4.23-4.23v-8.462c0-2.336,1.894-4.229,4.23-4.229H306.27
			c2.336,0,4.23,1.894,4.23,4.229v8.462C310.5,268.298,308.605,270.191,306.27,270.191z"/>
	</g>
	<g>
		<path fill="#FFFFFF" d="M111.539,253.27v-8.462c0-2.337-1.895-4.23-4.231-4.23H81.923c-2.336,0-4.231,1.894-4.231,4.23v8.462"/>
	</g>
	<g>
		<g>
			<path fill="#FFFFFF" d="M103.077,185.577c-2.339,0-4.231-1.895-4.231-4.23c0-2.337,1.892-4.231,4.231-4.231
				c6.999,0,12.692-5.693,12.692-12.692c0-6.999-5.694-12.692-12.692-12.692s-12.692,5.693-12.692,12.692
				c0,2.337-1.892,4.231-4.23,4.231s-4.231-1.894-4.231-4.231c0-11.664,9.49-21.153,21.154-21.153s21.154,9.49,21.154,21.153
				C124.231,176.087,114.74,185.577,103.077,185.577z"/>
		</g>
	</g>
	<g>
		<g>
			<path fill="#FFFFFF" d="M120,202.5H86.154c-2.338,0-4.231-1.895-4.231-4.23v-4.231c0-9.331,7.59-16.923,16.923-16.923h4.231
				c2.338,0,4.23,1.895,4.23,4.231c0,2.336-1.892,4.23-4.23,4.23h-4.231c-4.664,0-8.461,3.795-8.461,8.461H120
				c2.339,0,4.231,1.895,4.231,4.231C124.231,200.605,122.339,202.5,120,202.5z"/>
		</g>
	</g>
	<g>
		<g>
			<path fill="#FFFFFF" d="M179.23,185.577c-2.339,0-4.23-1.895-4.23-4.23c0-2.337,1.892-4.231,4.23-4.231
				c6.999,0,12.692-5.693,12.692-12.692c0-6.999-5.693-12.692-12.692-12.692c-6.999,0-12.692,5.693-12.692,12.692
				c0,2.337-1.893,4.231-4.231,4.231s-4.231-1.894-4.231-4.231c0-11.664,9.491-21.153,21.154-21.153
				c11.664,0,21.154,9.49,21.154,21.153C200.385,176.087,190.895,185.577,179.23,185.577z"/>
		</g>
	</g>
	<g>
		<g>
			<path fill="#FFFFFF" d="M196.153,202.5h-33.846c-2.338,0-4.231-1.895-4.231-4.23v-4.231c0-9.331,7.59-16.923,16.923-16.923h4.23
				c2.339,0,4.23,1.895,4.23,4.231c0,2.336-1.892,4.23-4.23,4.23H175c-4.664,0-8.461,3.795-8.461,8.461h29.615
				c2.339,0,4.231,1.895,4.231,4.231C200.385,200.605,198.492,202.5,196.153,202.5z"/>
		</g>
	</g>
	<g>
		<g>
			<path fill="#FFFFFF" d="M149.615,177.115h-16.923c-2.338,0-4.231-1.894-4.231-4.23s1.893-4.231,4.231-4.231h16.923
				c2.339,0,4.231,1.895,4.231,4.231S151.954,177.115,149.615,177.115z"/>
		</g>
	</g>
	<g>
		<g>
			<path fill="#FFFFFF" d="M225.769,185.577h-16.922c-2.339,0-4.231-1.895-4.231-4.23c0-2.337,1.893-4.231,4.231-4.231h16.922
				c2.34,0,4.231,1.895,4.231,4.231C230,183.683,228.108,185.577,225.769,185.577z"/>
		</g>
	</g>
	<g>
		<g>
			<path fill="#FFFFFF" d="M225.769,172.885h-16.922c-2.339,0-4.231-1.895-4.231-4.231s1.893-4.231,4.231-4.231h16.922
				c2.34,0,4.231,1.895,4.231,4.231S228.108,172.885,225.769,172.885z"/>
		</g>
	</g>
	<g>
		<g>
			<path fill="#FFFFFF" d="M141.154,185.577c-2.339,0-4.231-1.895-4.231-4.23v-16.924c0-2.336,1.892-4.23,4.231-4.23
				c2.338,0,4.23,1.894,4.23,4.23v16.924C145.385,183.683,143.493,185.577,141.154,185.577z"/>
		</g>
	</g>
	<g>
		<g>
			<path fill="#FFFFFF" d="M272.308,185.577h-33.847c-1.301,0-2.532-0.602-3.334-1.628s-1.087-2.365-0.769-3.63l8.461-33.846
				c0.566-2.266,2.86-3.652,5.128-3.078c2.269,0.566,3.648,2.863,3.078,5.132l-7.145,28.588h28.426c2.339,0,4.23,1.896,4.23,4.231
				C276.537,183.684,274.646,185.577,272.308,185.577z"/>
		</g>
	</g>
	<g>
		<g>
			<path fill="#FFFFFF" d="M263.847,202.5c-2.34,0-4.231-1.895-4.231-4.23v-38.077c0-2.336,1.892-4.231,4.231-4.231
				c2.338,0,4.229,1.895,4.229,4.231v38.077C268.076,200.605,266.185,202.5,263.847,202.5z"/>
		</g>
	</g>
	<g>
		<path fill="#C9A07C" d="M39.5,261.73v4.23c0,2.337,1.894,4.23,4.23,4.23H306.27c2.336,0,4.23-1.894,4.23-4.23v-4.23H39.5z"/>
	</g>
</g>
</svg>
