<?xml version="1.0" encoding="utf-8"?>
<!-- Generator: Adobe Illustrator 16.0.0, SVG Export Plug-In . SVG Version: 6.00 Build 0)  -->
<!DOCTYPE svg PUBLIC "-//W3C//DTD SVG 1.1//EN" "http://www.w3.org/Graphics/SVG/1.1/DTD/svg11.dtd">
<svg version="1.1" id="Layer_1" xmlns="http://www.w3.org/2000/svg" xmlns:xlink="http://www.w3.org/1999/xlink" x="0px" y="0px"
	 width="350px" height="350px" viewBox="0 0 350 350" enable-background="new 0 0 350 350" xml:space="preserve">
<g>
	<path fill="#706257" d="M278.223,177.982c-3.951-7.701-11.779-12.485-20.428-12.485c-6.143,0-11.912,2.414-16.244,6.797
		l-0.191,0.194c-7.59,7.677-9.783,19.041-5.6,28.955c1.402,3.32,1.891,6.873,1.451,10.559c-0.857,7.184-5.553,13.297-11.932,16.201
		c0.002-0.178,0.002-0.355,0.002-0.533c0-4.365-0.615-8.674-1.838-12.877c6.486-9.459,9.988-20.639,9.988-32.209v-35.07
		c0-1.498-0.061-3.008-0.184-4.521c0.121-0.709,0.184-1.436,0.184-2.171V71.75c0-4.989-2.887-9.527-7.406-11.642
		c-1.736-0.813-3.596-1.211-5.443-1.211c-2.955,0-5.881,1.019-8.238,2.986L178.232,90.36c-0.666-0.024-1.33-0.036-1.99-0.036h-51.47
		c-0.661,0-1.324,0.012-1.989,0.036L88.67,61.884c-2.356-1.968-5.283-2.986-8.238-2.986c-1.848,0-3.706,0.397-5.444,1.211
		c-4.519,2.114-7.406,6.652-7.406,11.642v69.071c0,0.735,0.063,1.462,0.185,2.171c-0.123,1.514-0.185,3.023-0.185,4.521v35.07
		c0,11.025,3.215,21.764,9.171,30.965c-1.473,4.59-2.216,9.316-2.216,14.121c0,13.563,5.896,26.377,16.739,36.656v4.58
		c0,14.086,11.461,25.547,25.549,25.547h4.124c3.944,0,7.642-1.545,10.412-4.352c1.568-1.59,2.73-3.477,3.435-5.533
		c4.938,0.768,9.988,1.152,15.114,1.152c5.53,0,10.959-0.445,16.25-1.33c0.697,2.127,1.881,4.076,3.494,5.709
		c2.77,2.809,6.467,4.354,10.411,4.354h4.125c10.92,0,20.26-6.885,23.91-16.541c1.785,0.227,3.58,0.381,5.383,0.465
		c1.092,0.051,2.195,0.076,3.283,0.076c38.063,0,69.031-30.967,69.031-69.031C285.797,198.514,283.178,187.643,278.223,177.982z
		 M216.766,265.602c-0.889,0-1.787-0.021-2.686-0.063c0.955,0.045,1.904,0.061,2.848,0.059
		C216.873,265.598,216.82,265.602,216.766,265.602z M220.613,242.66c-0.584,0.064-1.162,0.109-1.738,0.145
		C219.451,242.77,220.029,242.725,220.613,242.66c0.953-0.107,1.896-0.254,2.824-0.439
		C222.51,242.406,221.566,242.553,220.613,242.66z M250.492,181.531c-0.729,0.738-1.361,1.543-1.895,2.4
		C249.131,183.074,249.764,182.27,250.492,181.531c0.066-0.068,0.135-0.135,0.201-0.203
		C250.627,181.396,250.559,181.463,250.492,181.531z M257.332,178.371c0.154-0.006,0.309-0.021,0.463-0.021
		c0.064,0,0.127,0.012,0.191,0.014C257.768,178.359,257.549,178.361,257.332,178.371z"/>
	<g>
		<path fill="#F1F2F2" d="M274.844,174.631c-3.951-7.701-11.777-12.485-20.428-12.485c-6.143,0-11.912,2.414-16.242,6.797
			l-0.193,0.195c-7.588,7.676-9.783,19.04-5.598,28.954c1.4,3.32,1.889,6.873,1.449,10.559c-0.855,7.184-5.553,13.297-11.932,16.201
			c0.002-0.178,0.004-0.355,0.004-0.531c0-4.367-0.617-8.676-1.838-12.879c6.484-9.459,9.988-20.637,9.988-32.209v-35.07
			c0-1.497-0.063-3.008-0.186-4.521c0.123-0.709,0.186-1.435,0.186-2.171V68.399c0-4.988-2.889-9.527-7.406-11.641
			c-1.738-0.813-3.598-1.212-5.445-1.212c-2.955,0-5.881,1.019-8.238,2.986l-34.111,28.476c-0.666-0.023-1.329-0.036-1.99-0.036
			h-51.47c-0.661,0-1.324,0.013-1.99,0.036L85.292,58.533c-2.356-1.968-5.283-2.986-8.238-2.986c-1.848,0-3.707,0.398-5.444,1.212
			c-4.52,2.113-7.406,6.652-7.406,11.641v69.071c0,0.736,0.063,1.462,0.185,2.171c-0.123,1.514-0.185,3.024-0.185,4.521v35.07
			c0,11.025,3.215,21.766,9.171,30.965c-1.473,4.592-2.216,9.316-2.216,14.123c0,13.561,5.896,26.377,16.739,36.656v4.578
			c0,14.088,11.461,25.547,25.548,25.547h4.125c3.943,0,7.641-1.545,10.411-4.352c1.568-1.59,2.731-3.477,3.436-5.533
			c4.938,0.768,9.987,1.154,15.113,1.154c5.531,0,10.959-0.445,16.251-1.33c0.697,2.125,1.881,4.074,3.493,5.709
			c2.771,2.807,6.468,4.352,10.413,4.352h4.123c10.92,0,20.26-6.885,23.91-16.541c1.785,0.227,3.582,0.381,5.385,0.465
			c1.09,0.051,2.193,0.078,3.281,0.078c38.064,0,69.031-30.969,69.031-69.031C282.418,195.162,279.799,184.291,274.844,174.631z
			 M213.387,262.25c-0.889,0-1.787-0.02-2.684-0.063c0.953,0.045,1.902,0.061,2.846,0.059
			C213.494,262.246,213.441,262.25,213.387,262.25z M217.234,239.309c-0.582,0.064-1.162,0.111-1.738,0.146
			C216.072,239.42,216.652,239.373,217.234,239.309c0.953-0.105,1.896-0.254,2.826-0.439
			C219.131,239.055,218.188,239.203,217.234,239.309z M247.113,178.18c-0.729,0.738-1.361,1.545-1.895,2.4
			C245.752,179.725,246.385,178.918,247.113,178.18c0.068-0.066,0.135-0.135,0.201-0.203
			C247.248,178.045,247.182,178.113,247.113,178.18z M253.953,175.021c0.154-0.007,0.309-0.022,0.463-0.022
			c0.064,0,0.127,0.012,0.191,0.013C254.389,175.007,254.172,175.011,253.953,175.021z"/>
		<g>
			<g>
				<path d="M247.314,177.977c-0.066,0.068-0.133,0.137-0.201,0.203c-3.887,3.934-5.039,9.82-2.891,14.916
					c2.178,5.158,3.1,10.977,2.371,17.076c-1.816,15.254-14.092,27.434-29.359,29.137c-20.197,2.254-37.301-13.494-37.301-33.238
					c0-13.084,7.518-24.406,18.465-29.904c-2.475,0.297-5.047-1.122-4.807-4.314c0.545-6.283,1.053-12.567,1.395-18.86
					c-22.67,7.858-38.756,29.813-37.732,55.387c1.157,28.91,24.544,52.463,53.449,53.809c32.246,1.502,58.863-24.199,58.863-56.117
					c0-9.213-2.225-17.902-6.158-25.572C260.279,174.4,252.133,173.102,247.314,177.977z"/>
				<path d="M175.805,223.57h-57.353c-22.769,0-41.396-18.629-41.396-41.396v-40.952c0-22.769,18.628-41.397,41.396-41.397h57.353
					c22.767,0,41.396,18.629,41.396,41.397v40.952C217.201,204.941,198.572,223.57,175.805,223.57z"/>
				<polyline points="77.056,137.47 77.056,68.399 114.702,99.825 				"/>
				<polyline points="217.201,137.47 217.201,68.399 179.557,99.825 				"/>
				<path d="M180.811,195.465h-67.365c-6.982,0-12.695,5.713-12.695,12.695v57.395c0,6.982,5.713,12.695,12.695,12.695h4.125
					c0.991,0,1.783-0.809,1.783-1.801c0-0.006,0-0.012,0-0.018c0-23.104,12.435-41.832,27.774-41.832s27.775,18.729,27.775,41.832
					c0,0.006,0,0.012,0,0.018c0,0.992,0.791,1.801,1.784,1.801h4.123c6.984,0,12.697-5.713,12.697-12.695V208.16
					C193.508,201.178,187.795,195.465,180.811,195.465z"/>
				<ellipse cx="146.531" cy="224.32" rx="62.52" ry="45.197"/>
			</g>
			<g>
				<g>
					<g>
						
							<ellipse transform="matrix(0.8564 0.5163 -0.5163 0.8564 93.4585 -39.8109)" fill="#FFFFFF" cx="118.295" cy="148.101" rx="16.962" ry="24.094"/>
						<circle cx="129.237" cy="147.401" r="5.591"/>
					</g>
					<g>
						
							<ellipse transform="matrix(-0.8564 0.5164 -0.5164 -0.8564 396.6894 185.861)" fill="#FFFFFF" cx="172.496" cy="148.101" rx="16.962" ry="24.095"/>
						<circle cx="161.851" cy="148.101" r="5.59"/>
					</g>
				</g>
				<g>
					<path fill="#4C4A4A" d="M163.034,190.449c-4.583,0-10.497-1.65-13.604-4.82c-1.305-1.332-2.771-3.711-3.764-6.098
						c-0.758,2.436-2.164,4.773-4.886,6.57c-3.188,2.105-8.231,4.459-14.137,3.727c-0.549-0.068-0.938-0.568-0.869-1.115
						c0.067-0.549,0.563-0.949,1.115-0.869c5.3,0.66,9.882-1.49,12.788-3.41c3.006-1.986,4.403-4.795,4.822-9.696
						c0.045-0.534,0.546-0.945,1.037-0.914c0.535,0.021,0.957,0.461,0.959,0.996c0.008,2.563,2.464,7.473,4.361,9.409
						c3.05,3.111,9.645,4.639,13.902,4.123c0.552-0.078,1.046,0.322,1.113,0.871c0.067,0.547-0.322,1.047-0.871,1.113
						C164.385,190.412,163.725,190.449,163.034,190.449z"/>
					<polygon fill="#D77BC3" points="135.666,166.223 155.125,166.223 145.396,174.822 					"/>
				</g>
			</g>
		</g>
	</g>
</g>
</svg>
