<?xml version="1.0" encoding="utf-8"?>
<!-- Generator: Adobe Illustrator 16.0.0, SVG Export Plug-In . SVG Version: 6.00 Build 0)  -->
<!DOCTYPE svg PUBLIC "-//W3C//DTD SVG 1.1//EN" "http://www.w3.org/Graphics/SVG/1.1/DTD/svg11.dtd">
<svg version="1.1" id="Capa_1" xmlns="http://www.w3.org/2000/svg" xmlns:xlink="http://www.w3.org/1999/xlink" x="0px" y="0px"
	 width="350px" height="350px" viewBox="0 0 350 350" enable-background="new 0 0 350 350" xml:space="preserve">
<g>
	<path d="M276.111,182.777V140v-19.444h7.777V97.223h-7.777V81.717V64.159c0-3.212-2.613-5.826-5.825-5.826h-9.73h-38.889h-1.952
		c-3.212,0-5.825,2.613-5.825,5.826v33.063h-7.779V81.717V64.159c0-3.212-2.613-5.826-5.825-5.826h-9.729h-38.889h-1.952
		c-3.212,0-5.825,2.613-5.825,5.826v33.063h-7.778V81.717V64.159c0-3.212-2.613-5.826-5.825-5.826h-9.73H81.667h-1.952
		c-3.212,0-5.826,2.613-5.826,5.826v33.063h-7.778v23.333h7.778V140v42.777H58.333v108.89h233.333v-108.89H276.111z
		 M221.667,237.223v-15.556c2.146,0,3.889-1.742,3.889-3.89c0-2.146-1.742-3.888-3.889-3.888v-15.557
		c2.146,0,3.889-1.742,3.889-3.889s-1.742-3.889-3.889-3.889V175c2.146,0,3.889-1.742,3.889-3.889c0-2.146-1.742-3.889-3.889-3.889
		v-15.556c2.146,0,3.889-1.742,3.889-3.889h15.555c0,2.146,1.743,3.889,3.89,3.889c2.147,0,3.89-1.742,3.89-3.889h15.555
		c0,2.146,1.742,3.889,3.889,3.889v15.556c-2.146,0-3.889,1.742-3.889,3.889c0,2.147,1.742,3.889,3.889,3.889v15.556
		c-2.146,0-3.889,1.742-3.889,3.889s1.742,3.889,3.889,3.889v15.557c-2.146,0-3.889,1.742-3.889,3.888
		c0,2.147,1.742,3.89,3.889,3.89v15.556c-2.146,0-3.889,1.742-3.889,3.888c0,1.7,1.104,3.104,2.621,3.633
		c-3.139,9.182-11.834,15.813-22.065,15.813s-18.927-6.631-22.065-15.813c1.517-0.528,2.621-1.933,2.621-3.633
		C225.556,238.965,223.813,237.223,221.667,237.223z M268.333,140h-46.666v-19.444h46.666V140z M260.556,91.389
		c0-3.216,2.617-5.833,5.833-5.833c0.731,0,1.385,0.144,1.944,0.35v10.967c-0.56,0.206-1.213,0.35-1.944,0.35
		C263.173,97.223,260.556,94.605,260.556,91.389z M252.112,66.111c-1.605,4.526-5.93,7.778-11.002,7.778
		c-5.07,0-9.395-3.251-11.001-7.778H252.112z M222.06,66.111c1.809,8.863,9.664,15.556,19.051,15.556
		c9.389,0,17.244-6.693,19.053-15.556h8.17v11.826c-0.642-0.094-1.287-0.16-1.944-0.16c-7.505,0-13.611,6.106-13.611,13.611
		c0,2.096,0.518,4.06,1.366,5.833h-5.453c-0.979-8.727-8.318-15.556-17.301-15.556c-3.598,0-6.938,1.097-9.723,2.963V66.111H222.06z
		 M240.917,97.223H221.86c0.902-4.434,4.831-7.778,9.529-7.778C236.087,89.444,240.011,92.789,240.917,97.223z M213.89,105h0.711
		h30.205h31.306v7.778H213.89V105z M213.89,120.556V140v42.777h-7.779V140v-19.444H213.89z M198.333,140h-46.667v-19.444h46.667V140
		z M151.667,237.223v-15.556c2.147,0,3.889-1.742,3.889-3.89c0-2.146-1.742-3.888-3.889-3.888v-15.557
		c2.147,0,3.889-1.742,3.889-3.889s-1.742-3.889-3.889-3.889V175c2.147,0,3.889-1.742,3.889-3.889c0-2.146-1.742-3.889-3.889-3.889
		v-15.556c2.147,0,3.889-1.742,3.889-3.889h15.555c0,2.146,1.742,3.889,3.889,3.889c2.147,0,3.89-1.742,3.89-3.889h15.555
		c0,2.146,1.742,3.889,3.889,3.889v15.556c-2.146,0-3.889,1.742-3.889,3.889c0,2.147,1.742,3.889,3.889,3.889v15.556
		c-2.146,0-3.889,1.742-3.889,3.889s1.742,3.889,3.889,3.889v15.557c-2.146,0-3.889,1.742-3.889,3.888
		c0,2.147,1.742,3.89,3.889,3.89v15.556c-2.146,0-3.889,1.742-3.889,3.888c0,1.7,1.104,3.104,2.621,3.633
		c-3.139,9.182-11.834,15.813-22.065,15.813c-10.232,0-18.927-6.631-22.065-15.813c1.517-0.528,2.621-1.933,2.621-3.633
		C155.556,238.965,153.813,237.223,151.667,237.223z M190.556,91.389c0-3.216,2.617-5.833,5.834-5.833
		c0.73,0,1.384,0.144,1.943,0.35v10.967c-0.56,0.206-1.213,0.35-1.943,0.35C193.173,97.223,190.556,94.605,190.556,91.389z
		 M182.112,66.111c-1.605,4.526-5.93,7.778-11.001,7.778c-5.071,0-9.396-3.251-11.001-7.778H182.112z M152.06,66.111
		c1.808,8.863,9.664,15.556,19.051,15.556c9.388,0,17.244-6.693,19.052-15.556h8.17v11.826c-0.642-0.094-1.287-0.16-1.943-0.16
		c-7.506,0-13.612,6.106-13.612,13.611c0,2.096,0.518,4.06,1.366,5.833h-5.453c-0.979-8.727-8.318-15.556-17.301-15.556
		c-3.598,0-6.938,1.097-9.723,2.963V66.111H152.06z M170.917,97.223h-19.056c0.902-4.434,4.83-7.778,9.528-7.778
		C166.086,89.444,170.01,92.789,170.917,97.223z M143.889,105h0.711h30.205h31.305v7.778h-62.221V105z M143.889,120.556V140v42.777
		h-7.778V140v-19.444H143.889z M81.667,237.223v-15.556c2.146,0,3.889-1.742,3.889-3.89c0-2.146-1.742-3.888-3.889-3.888v-15.557
		c2.146,0,3.889-1.742,3.889-3.889s-1.742-3.889-3.889-3.889V175c2.146,0,3.889-1.742,3.889-3.889c0-2.146-1.742-3.889-3.889-3.889
		v-15.556c2.146,0,3.889-1.742,3.889-3.889h15.556c0,2.146,1.742,3.889,3.889,3.889c2.147,0,3.889-1.742,3.889-3.889h15.555
		c0,2.146,1.742,3.889,3.889,3.889v15.556c-2.147,0-3.889,1.742-3.889,3.889c0,2.147,1.742,3.889,3.889,3.889v15.556
		c-2.147,0-3.889,1.742-3.889,3.889s1.742,3.889,3.889,3.889v15.557c-2.147,0-3.889,1.742-3.889,3.888
		c0,2.147,1.742,3.89,3.889,3.89v15.556c-2.147,0-3.889,1.742-3.889,3.888c0,1.7,1.104,3.104,2.621,3.633
		c-3.138,9.182-11.833,15.813-22.065,15.813c-10.231,0-18.927-6.631-22.065-15.813c1.517-0.528,2.621-1.933,2.621-3.633
		C85.556,238.965,83.813,237.223,81.667,237.223z M120.556,91.389c0-3.216,2.617-5.833,5.833-5.833c0.731,0,1.384,0.144,1.944,0.35
		v10.967c-0.56,0.206-1.213,0.35-1.944,0.35C123.173,97.223,120.556,94.605,120.556,91.389z M112.113,66.111
		c-1.606,4.526-5.93,7.778-11.001,7.778s-9.396-3.251-11.002-7.778H112.113z M82.06,66.111c1.809,8.863,9.664,15.556,19.052,15.556
		s17.243-6.693,19.052-15.556h8.17v11.826c-0.642-0.094-1.287-0.16-1.944-0.16c-7.505,0-13.611,6.106-13.611,13.611
		c0,2.096,0.517,4.06,1.365,5.833h-5.453c-0.979-8.727-8.318-15.556-17.301-15.556c-3.597,0-6.938,1.097-9.722,2.963V66.111H82.06z
		 M100.917,97.223H81.861c0.906-4.434,4.83-7.778,9.528-7.778S100.011,92.789,100.917,97.223z M73.889,105h0.711h30.205h31.305
		v7.778H73.889V105z M81.667,120.556h46.667V140H81.667V120.556z M283.889,283.89H66.111v-93.334h7.778v46.667
		c0,17.153,13.957,31.11,31.111,31.11c17.154,0,31.111-13.957,31.111-31.11v-46.667h7.778v46.667
		c0,17.153,13.957,31.11,31.111,31.11c17.153,0,31.11-13.957,31.11-31.11v-46.667h7.779v46.667c0,17.153,13.957,31.11,31.11,31.11
		s31.111-13.957,31.111-31.11v-46.667h7.777V283.89z"/>
	<circle cx="233.333" cy="159.445" r="3.889"/>
	<circle cx="256.667" cy="159.445" r="3.889"/>
	<circle cx="245" cy="171.111" r="3.889"/>
	<circle cx="233.333" cy="182.778" r="3.889"/>
	<circle cx="233.333" cy="206.111" r="3.889"/>
	<circle cx="245" cy="194.444" r="3.889"/>
	<circle cx="256.667" cy="182.778" r="3.889"/>
	<circle cx="256.667" cy="206.111" r="3.889"/>
	<circle cx="245" cy="217.778" r="3.889"/>
	<circle cx="233.333" cy="229.444" r="3.889"/>
	<circle cx="245" cy="241.111" r="3.889"/>
	<circle cx="256.667" cy="229.444" r="3.889"/>
	<circle cx="163.333" cy="159.445" r="3.889"/>
	<circle cx="186.667" cy="159.445" r="3.889"/>
	<circle cx="175" cy="171.111" r="3.889"/>
	<circle cx="163.333" cy="182.778" r="3.889"/>
	<circle cx="163.333" cy="206.111" r="3.889"/>
	<circle cx="175" cy="194.444" r="3.889"/>
	<circle cx="186.667" cy="182.778" r="3.889"/>
	<circle cx="186.667" cy="206.111" r="3.889"/>
	<circle cx="175" cy="217.778" r="3.889"/>
	<circle cx="163.333" cy="229.444" r="3.889"/>
	<circle cx="175" cy="241.111" r="3.889"/>
	<circle cx="186.667" cy="229.444" r="3.889"/>
	<circle cx="93.333" cy="159.445" r="3.889"/>
	<circle cx="116.667" cy="159.445" r="3.889"/>
	<circle cx="105" cy="171.111" r="3.889"/>
	<circle cx="93.333" cy="182.778" r="3.889"/>
	<circle cx="93.333" cy="206.111" r="3.889"/>
	<circle cx="105" cy="194.444" r="3.889"/>
	<circle cx="116.667" cy="182.778" r="3.889"/>
	<circle cx="116.667" cy="206.111" r="3.889"/>
	<circle cx="105" cy="217.778" r="3.889"/>
	<circle cx="93.333" cy="229.444" r="3.889"/>
	<circle cx="105" cy="241.111" r="3.889"/>
	<circle cx="116.667" cy="229.444" r="3.889"/>
</g>
</svg>
