<?xml version="1.0" encoding="utf-8"?>
<!-- Generator: Adobe Illustrator 16.0.0, SVG Export Plug-In . SVG Version: 6.00 Build 0)  -->
<!DOCTYPE svg PUBLIC "-//W3C//DTD SVG 1.1//EN" "http://www.w3.org/Graphics/SVG/1.1/DTD/svg11.dtd">
<svg version="1.1" id="Layer_1" xmlns="http://www.w3.org/2000/svg" xmlns:xlink="http://www.w3.org/1999/xlink" x="0px" y="0px"
	 width="350px" height="350px" viewBox="0 0 350 350" enable-background="new 0 0 350 350" xml:space="preserve">
<g>
	<g>
		<path d="M228.453,243.354l-12.883-29.575c-0.005-0.011-0.011-0.022-0.016-0.034l-22.484-51.613
			c-0.021-0.05-0.049-0.095-0.071-0.144c-0.046-0.098-0.094-0.196-0.145-0.292c-0.043-0.081-0.089-0.159-0.135-0.236
			c-0.052-0.086-0.104-0.172-0.162-0.257c-0.053-0.079-0.107-0.156-0.164-0.233c-0.058-0.077-0.116-0.153-0.179-0.228
			c-0.062-0.075-0.124-0.148-0.189-0.22c-0.063-0.071-0.13-0.139-0.198-0.208s-0.139-0.135-0.21-0.2
			c-0.07-0.064-0.143-0.125-0.217-0.187c-0.075-0.063-0.153-0.123-0.232-0.182c-0.074-0.055-0.15-0.108-0.228-0.161
			c-0.087-0.057-0.174-0.112-0.263-0.166c-0.076-0.044-0.152-0.089-0.23-0.131c-0.099-0.052-0.199-0.102-0.3-0.148
			c-0.047-0.021-0.091-0.048-0.139-0.068c-0.03-0.013-0.061-0.022-0.091-0.035c-0.104-0.043-0.208-0.081-0.315-0.119
			c-0.08-0.028-0.161-0.058-0.243-0.083c-0.1-0.03-0.201-0.055-0.301-0.08c-0.089-0.021-0.179-0.045-0.267-0.063
			c-0.099-0.02-0.195-0.033-0.295-0.047c-0.092-0.014-0.184-0.028-0.275-0.037c-0.103-0.01-0.203-0.013-0.306-0.019
			c-0.088-0.004-0.176-0.01-0.264-0.01c-0.107,0-0.216,0.007-0.325,0.012c-0.082,0.005-0.163,0.007-0.245,0.015
			c-0.109,0.011-0.218,0.028-0.327,0.044c-0.082,0.012-0.163,0.024-0.244,0.039c-0.103,0.02-0.203,0.046-0.306,0.072
			c-0.089,0.021-0.177,0.044-0.264,0.069c-0.092,0.028-0.182,0.06-0.271,0.092c-0.099,0.035-0.194,0.07-0.289,0.109
			c-0.033,0.014-0.066,0.023-0.099,0.037c-0.052,0.023-0.099,0.05-0.147,0.073c-0.098,0.045-0.191,0.092-0.286,0.142
			c-0.082,0.044-0.161,0.09-0.241,0.138c-0.086,0.052-0.17,0.104-0.253,0.16c-0.081,0.054-0.159,0.109-0.235,0.167
			c-0.076,0.057-0.153,0.116-0.227,0.177c-0.075,0.062-0.148,0.125-0.22,0.19c-0.072,0.064-0.141,0.131-0.209,0.199
			c-0.067,0.068-0.134,0.138-0.198,0.208c-0.064,0.071-0.128,0.145-0.19,0.22c-0.062,0.075-0.12,0.15-0.178,0.228
			c-0.057,0.076-0.111,0.155-0.165,0.234c-0.057,0.084-0.11,0.17-0.161,0.256c-0.046,0.078-0.092,0.156-0.135,0.237
			c-0.052,0.095-0.1,0.193-0.145,0.291c-0.022,0.049-0.05,0.094-0.071,0.144l-22.485,51.613c-0.005,0.012-0.01,0.023-0.015,0.035
			l-12.884,29.574c-1.305,2.996,0.065,6.483,3.062,7.788c0.77,0.336,1.571,0.494,2.36,0.494c2.282,0,4.458-1.329,5.428-3.556
			l11.368-26.095h37.182l11.367,26.095c0.971,2.228,3.145,3.556,5.429,3.556c0.788,0,1.592-0.158,2.359-0.494
			C228.389,249.837,229.76,246.35,228.453,243.354z M174.211,210.151l13.435-30.839l13.435,30.839H174.211z"/>
	</g>
</g>
<g>
	<g>
		<path d="M273.008,49.029c-0.01-3.26-2.655-5.9-5.918-5.9H111.361c-18.951,0-34.369,15.418-34.369,34.372v195v0.001
			c0,0.001,0,0.001,0,0.002c0,18.485,14.673,33.602,32.983,34.332c0.209,0.022,0.42,0.035,0.635,0.035
			c0.084,0,0.167-0.009,0.25-0.013c0.167,0.003,0.332,0.013,0.499,0.013h155.73c3.27,0,5.918-2.649,5.918-5.918V141.656v-35.591
			V49.029L273.008,49.029z M104.693,294.028c-9.18-2.85-15.866-11.421-15.866-21.524v-0.002V103.418
			c4.439,3.865,9.873,6.612,15.866,7.795V294.028z M88.827,77.499c0-12.426,10.108-22.535,22.534-22.535h129.52
			c-1.88,2.16-3.494,4.554-4.793,7.133h-89.174c-3.268,0-5.918,2.649-5.918,5.917s2.65,5.917,5.918,5.917h85.702
			c-0.12,1.173-0.186,2.363-0.186,3.568c0,1.204,0.063,2.392,0.186,3.565h-37.178c-3.268,0-5.918,2.649-5.918,5.917
			s2.65,5.917,5.918,5.917h40.65c1.299,2.581,2.914,4.974,4.793,7.133H111.359C98.935,100.033,88.827,89.925,88.827,77.499z
			 M261.174,141.656v153.379H116.527V111.868h144.646V141.656z M261.174,99.323c-9.713-2.504-16.909-11.339-16.909-21.824
			s7.196-19.318,16.909-21.824V99.323z"/>
	</g>
</g>
</svg>
