<?xml version="1.0" encoding="utf-8"?>
<!-- Generator: Adobe Illustrator 16.0.0, SVG Export Plug-In . SVG Version: 6.00 Build 0)  -->
<!DOCTYPE svg PUBLIC "-//W3C//DTD SVG 1.1//EN" "http://www.w3.org/Graphics/SVG/1.1/DTD/svg11.dtd">
<svg version="1.1" id="Layer_1" xmlns="http://www.w3.org/2000/svg" xmlns:xlink="http://www.w3.org/1999/xlink" x="0px" y="0px"
	 width="350px" height="350px" viewBox="0 0 350 350" enable-background="new 0 0 350 350" xml:space="preserve">
<g>
	<g>
		<g>
			<g>
				<path fill="#FFFFFF" d="M229.165,280.623c-0.334-5.322-1.19-10.567-2.35-15.769c-0.286-1.286-1.897-2.242-3.16-1.794
					c-0.85,0.301-1.58,0.726-2.197,1.248c-1.749-0.581-4.149,0.784-3.51,3.115c0.095,0.368,0.188,0.736,0.283,1.104
					c-0.931,5.021-1.07,10.564-0.701,15.576c0.271,3.668,2.731,5.28,6.338,4.734C228.807,288.091,229.446,285.093,229.165,280.623z"
					/>
				<path fill="#FFFFFF" d="M137.239,190.79c0.017-0.09,0.045-0.172,0.055-0.266c0.181-1.565,0.029-3.056-0.354-4.584
					c-0.469-1.866-2.645-2.591-4.247-1.728c-0.051,0.027-0.109,0.061-0.163,0.09c-0.264,0.04-0.534,0.099-0.817,0.196
					c-0.344,0.118-0.636,0.284-0.887,0.482c-2.012-1.115-4.609-0.44-6.366,0.968c-1.402,1.124-0.889,3.604,0.566,4.395
					c0.003,0.002,0.006,0.003,0.01,0.005c-0.345,0.444-0.728,0.867-1.149,1.267c-0.504-0.007-1.03,0.1-1.556,0.366
					c-0.115,0.059-0.205,0.138-0.313,0.203c-2.095-0.892-4.337,0-6.177,1.598c-1.612,1.398-0.638,3.993,1.202,4.555
					c1.393,0.425,2.762,0.662,4.177,0.769c0.047,0.044,0.095,0.085,0.142,0.126c-0.152,0.309-0.293,0.625-0.399,0.961
					c-0.366,1.149,0.215,2.94,1.404,3.45c3.092,1.326,6.72,0.478,9.795-0.593c0.073-0.025,0.135-0.063,0.204-0.092
					c2.852-0.074,5.839-1.018,7.625-3.312c1.026-1.317,1.444-2.885,1.276-4.383C141.72,192.868,140.747,190.595,137.239,190.79z
					 M132.911,195.64l-0.199,0.531c-0.041,0.109-0.068,0.224-0.091,0.338c-1.262,0.124-2.576,0.188-2.811,0.136
					c-0.052-0.011-0.105-0.024-0.157-0.036c-0.146-0.047-0.29-0.097-0.428-0.156c-0.283-1.031-1.063-1.861-2.204-2.049
					c-0.104-0.199-0.204-0.406-0.286-0.63c-0.383-1.042-1.136-1.748-2.038-2.027c0.381-0.299,0.736-0.611,1.063-0.941
					c0.754,0.688,1.804,1.104,2.856,1.002c0.716-0.069,1.439-0.313,2.082-0.679c0.286-0.056,0.571-0.122,0.855-0.199
					c0.039,1.615,1.356,2.388,2.73,2.325c-0.039,0.247-0.062,0.497-0.048,0.746C133.65,194.375,133.169,194.949,132.911,195.64z"/>
				<g>
					<circle fill="#FFFFFF" cx="204.472" cy="160.983" r="4.292"/>
					<circle fill="#FFFFFF" cx="162.759" cy="160.983" r="4.293"/>
					<path fill="#FFFFFF" d="M147.393,154.015c3.203,17.837,19.337,31.587,37.987,31.125c18.821-0.465,34.815-15.404,36.517-34.165"
						/>
					<path fill="#FFFFFF" d="M197.682,152.017c0.236-0.402,0.545-0.644,0.917-0.835c-0.008,0.004-0.017,0.007-0.024,0.011
						c0.052-0.024,0.102-0.053,0.151-0.081c1.581-0.903,3.621,0.24,3.621,2.077c0,1.83-2.043,2.993-3.621,2.078
						c-0.6-0.348-1.087-0.846-1.268-1.54C197.308,153.147,197.378,152.536,197.682,152.017z"/>
					<path fill="#FFFFFF" d="M166.236,152.017c0.236-0.402,0.544-0.644,0.917-0.835c-0.009,0.004-0.017,0.007-0.024,0.011
						c0.052-0.024,0.101-0.053,0.152-0.081c1.58-0.903,3.62,0.24,3.62,2.077c0,1.83-2.043,2.993-3.62,2.078
						c-0.602-0.348-1.089-0.846-1.268-1.54C165.863,153.147,165.933,152.536,166.236,152.017z"/>
					<path fill="#FFFFFF" d="M170.461,164.864c7.098,7.943,19.907,7.943,27.005,0"/>
					<path fill="#FFFFFF" d="M188.5,186v5.373c0,0,6.339,0.321,9.227-0.963s22.648,48.989,22.648,48.989l-4.35,4.091l-18.659-42.764
						l-0.474,38.773h-21.757l-0.883-38.715c0,0-15.603,28.396-34.363,30.928"/>
					<path fill="#FFFFFF" d="M221.176,155.586c0,0,10.398-21.378-8.57-42.105"/>
					<polyline fill="#FFFFFF" points="194.199,295.739 196.979,240.025 175.24,239.77 173.695,295.739 					"/>
					<polyline fill="#FFFFFF" points="187.051,295.739 186.256,250.464 180.253,295.739 					"/>
					<polyline fill="#FFFFFF" points="173.901,295 165.164,300.958 180.047,300.561 180.256,295 					"/>
					<polyline fill="#FFFFFF" points="193.404,295 202.143,300.958 187.259,300.561 187.051,295 					"/>
					<path fill="#FFFFFF" d="M216.043,243.49c0,0-0.555,4.646,0.583,6.765c1.138,2.118,2.726-0.66,2.726-0.66
						s1.589,3.572,3.178,2.778s1.815-8.278-2.686-11.984"/>
					<path fill="#FFFFFF" d="M138.863,228.015c22.24-7.943,32.583-36.283,32.583-36.283l9.622,0.623l-0.751-7.45"/>
					<g>
						<path fill="#FFFFFF" d="M138.503,227.571c0.237,1.665,0.474,3.329,0.711,4.994"/>
						<g>
							<path fill="#FFFFFF" d="M137.057,227.97c0.237,1.665,0.474,3.33,0.711,4.994c0.115,0.812,1.133,1.244,1.845,1.048
								c0.862-0.237,1.163-1.036,1.047-1.845c-0.237-1.665-0.474-3.33-0.711-4.994c-0.115-0.812-1.133-1.244-1.845-1.048
								C137.242,226.362,136.941,227.161,137.057,227.97L137.057,227.97z"/>
						</g>
					</g>
					<g>
						<path fill="#FFFFFF" d="M136.467,228.04c-2.508-0.596-5.237-0.2-7.473,1.084c-0.65,0.374-1.342,1.046-1.095,1.754
							c0.254,0.727,1.229,0.803,1.998,0.786c1.486-0.032,3.442,0.546,3.409,2.031c-0.016,0.64-0.384,1.438,0.133,1.816
							c0.233,0.171,0.552,0.149,0.838,0.106c1.658-0.251,3.235-1.01,4.468-2.146"/>
						<g>
							<path fill="#FFFFFF" d="M136.866,226.594c-3.034-0.607-5.891-0.211-8.628,1.235c-1.95,1.029-2.801,4.311-0.145,5.091
								c1.166,0.343,2.429,0.061,3.539,0.602c0.349,0.17,0.047,1.26,0.068,1.637c0.029,0.533,0.304,1.038,0.68,1.414
								c1.927,1.927,5.922-0.768,7.427-2.04c1.479-1.25-0.654-3.361-2.121-2.121c-0.943,0.797-1.917,1.282-3.101,1.622
								c0.075,0.695,0.129,0.749,0.165,0.163c0.079-0.321,0.078-0.643,0-0.963c-0.155-1.204-0.999-2.008-2.049-2.52
								c-0.555-0.271-1.158-0.408-1.768-0.478c-0.343-0.055-0.687-0.079-1.034-0.072c-0.585-0.104-0.634-0.019-0.146,0.255
								c1.768-1.223,4.289-1.339,6.317-0.933C137.957,229.865,138.762,226.974,136.866,226.594L136.866,226.594z"/>
						</g>
					</g>
					<g>
						<path fill="#FFFFFF" d="M131.938,230.068c-0.628-6.337-1.902-19.183-2.531-25.521"/>
						<g>
							<path fill="#FFFFFF" d="M133.438,230.068c-0.843-8.507-1.687-17.014-2.531-25.521c-0.189-1.906-3.191-1.925-3,0
								c0.844,8.507,1.688,17.014,2.531,25.521C130.627,231.975,133.629,231.993,133.438,230.068L133.438,230.068z"/>
						</g>
					</g>
					<g>
						<path fill="#FFFFFF" d="M125.106,196.483c-2.169,1.098-4.184,2.499-5.969,4.148c-0.618,0.571-1.252,1.274-1.226,2.115
							c0.027,0.864,0.785,1.567,1.613,1.815c0.828,0.249,1.717,0.144,2.574,0.032c2.555-0.329,5.142-0.69,7.514-1.695
							c1.158-0.49,2.425-1.478,2.17-2.709c-0.288-1.389-2.219-1.73-2.931-2.957"/>
						<g>
							<path fill="#FFFFFF" d="M124.35,195.188c-2.806,1.481-7.169,3.788-7.884,7.16c-0.684,3.221,3.428,3.992,5.634,3.746
								c3.478-0.388,7.912-0.782,10.424-3.499c2.616-2.829-1.212-4.627-2.611-6.423c-1.187-1.525-3.294,0.614-2.121,2.121
								c0.662,0.851,1.524,1.306,2.348,1.979c0.956,0.779-5.112,2.375-5.565,2.46c-0.822,0.14-1.647,0.26-2.476,0.362
								c-1.414,0.186-2.444-0.918-1.221-2.009c1.495-1.334,3.222-2.376,4.985-3.308C127.575,196.875,126.059,194.285,124.35,195.188
								L124.35,195.188z"/>
						</g>
					</g>
					<g>
						<path fill="#FFFFFF" d="M124.903,192.703c-1.165,0.698-0.918,2.653,0.203,3.42c1.121,0.768,2.654,0.587,3.903,0.054
							c0.414-0.177,0.833-0.406,1.063-0.792c0.69-1.154-0.71-2.409-1.903-3.03"/>
						<g>
							<path fill="#FFFFFF" d="M124.146,191.408c-1.37,0.974-1.851,2.612-1.235,4.191c0.692,1.771,2.425,2.574,4.256,2.531
								c1.573-0.036,4.062-0.831,4.469-2.596c0.471-2.036-1.054-3.562-2.709-4.476c-1.694-0.937-3.208,1.655-1.514,2.59
								c0.461,0.255,1.153,0.603,1.347,1.138c-0.072-0.199,0.153-0.244-0.26-0.019c-0.332,0.182-0.737,0.256-1.103,0.337
								c-0.542,0.12-1.189,0.038-1.589-0.359c-0.109-0.108-0.156-0.337-0.168-0.477c-0.02-0.235,0.1-0.328,0.02-0.271
								C127.223,192.888,125.727,190.284,124.146,191.408L124.146,191.408z"/>
						</g>
					</g>
					<g>
						<path fill="#FFFFFF" d="M124.192,192.167c-2.2-1.369-4.882-1.947-7.45-1.606c-0.473,0.063-0.965,0.166-1.328,0.476
							c-0.313,0.267-0.493,0.654-0.639,1.038c-0.539,1.427-0.729,2.984-0.546,4.499c0.078,0.643,0.242,1.316,0.705,1.77
							s5.548,0.881,5.979,0.396"/>
						<g>
							<path fill="#FFFFFF" d="M124.949,190.872c-2.786-1.621-5.896-2.231-9.08-1.675c-3.024,0.527-3.341,5.017-3.14,7.376
								c0.2,2.347,1.419,3.345,3.593,3.645c1.485,0.205,3.994,0.724,5.347-0.184c1.598-1.07,0.098-3.671-1.514-2.59
								c-0.14,0.094-1.703-0.018-2.22-0.052c-0.514-0.034-1.025-0.093-1.534-0.175c-0.195-0.033-0.388-0.074-0.58-0.122
								c-0.305-0.011-0.328-0.156-0.068-0.438c-0.25-0.904-0.08-2.038,0.092-2.935c0.275-1.438,0.881-1.7,2.188-1.758
								c1.917-0.084,3.767,0.545,5.402,1.496C125.111,194.438,126.62,191.844,124.949,190.872L124.949,190.872z"/>
						</g>
					</g>
					<g>
						<path fill="#FFFFFF" d="M121.455,189.883c0.683-1.297-1.023-2.915-0.404-4.244c0.426-0.913,1.644-1.051,2.651-1.062
							c1.904-0.019,3.81-0.037,5.714-0.057c1.189-0.012,2.408-0.019,3.526,0.387c1.117,0.405,2.131,1.316,2.309,2.492
							c0.202,1.338-0.699,2.599-1.724,3.483c-1.025,0.884-2.238,1.584-3.034,2.678"/>
						<g>
							<path fill="#FFFFFF" d="M122.901,190.281c0.328-1.173,0.112-2.089-0.29-3.222c-0.546-1.539,4.084-1.012,4.9-1.02
								c1.324-0.014,8.483-0.49,5.547,3.209c-1,1.259-2.569,2.011-3.626,3.251c-1.247,1.464,0.865,3.596,2.121,2.121
								c1.639-1.924,5.182-3.466,5.194-6.431c0.012-2.745-1.965-4.659-4.661-5.017c-3.146-0.416-7.543-0.707-10.608,0.253
								c-0.758,0.238-1.686,1.005-1.875,1.813c-0.343,1.467,0.768,2.939,0.404,4.244
								C119.488,191.351,122.382,192.143,122.901,190.281L122.901,190.281z"/>
						</g>
					</g>
					<g>
						<path fill="#FFFFFF" d="M135.189,190.651c1.558-0.215,3.431-0.31,4.391,0.936c0.611,0.793,0.626,1.879,0.614,2.88
							c-0.014,1.147-0.028,2.294-0.042,3.441c-0.008,0.673-0.062,1.442-0.592,1.856c-0.317,0.247-0.737,0.307-1.137,0.35
							c-1.986,0.212-3.994,0.214-5.979,0.005"/>
						<g>
							<path fill="#FFFFFF" d="M135.189,192.151c0.924-0.114,1.986-0.299,2.872,0.086c1.103,0.479,0.62,3.372,0.608,4.294
								c-0.005,0.459-0.011,0.918-0.017,1.377c-0.013,1.068-0.872,0.769-1.722,0.825c-1.495,0.101-2.997,0.022-4.486-0.114
								c-1.927-0.177-1.91,2.824,0,3c2.151,0.197,5.31,0.64,7.336-0.308c1.964-0.919,1.866-2.88,1.889-4.78
								c0.023-1.874,0.415-4.501-1.028-6.005c-1.47-1.533-3.452-1.622-5.451-1.375C133.295,189.386,133.272,192.389,135.189,192.151
								L135.189,192.151z"/>
						</g>
					</g>
					<g>
						<line fill="#FFFFFF" x1="132.089" y1="232.074" x2="133.251" y2="247.56"/>
						<g>
							<path fill="#FFFFFF" d="M130.589,232.074c0.387,5.162,0.775,10.323,1.162,15.485c0.144,1.917,3.145,1.931,3,0
								c-0.387-5.162-0.775-10.323-1.162-15.485C133.445,230.157,130.444,230.144,130.589,232.074L130.589,232.074z"/>
						</g>
					</g>
					<g>
						<path fill="#FFFFFF" d="M131.004,220.225c0.279-3.11,1.902-5.977,4.004-8.286s4.671-4.134,7.22-5.938
							c0.674,6.482-1.354,13.203-5.503,18.229c-1.057,1.28-2.307,2.493-3.887,2.999"/>
						<g>
							<path fill="#FFFFFF" d="M132.45,220.623c0.946-6.243,5.692-9.888,10.534-13.328c-0.752-0.432-1.504-0.863-2.257-1.295
								c0.507,6.842-1.673,16.822-8.646,19.934c-1.764,0.786-0.237,3.371,1.514,2.59c7.887-3.518,10.712-14.715,10.133-22.523
								c-0.076-1.028-1.254-2.008-2.257-1.295c-5.444,3.868-10.853,8.115-11.913,15.121
								C129.271,221.718,132.162,222.531,132.45,220.623L132.45,220.623z"/>
						</g>
					</g>
					<g>
						<path fill="#FFFFFF" d="M130.017,220.016c-3.106-4.121-8.518-6.376-13.631-5.681c1.288,3.61,3.372,6.935,6.061,9.667
							c2.295,2.332,5.532,4.334,8.685,3.455"/>
						<g>
							<path fill="#FFFFFF" d="M131.077,218.955c-3.557-4.421-9.048-6.706-14.691-6.12c-0.881,0.092-1.822,0.904-1.446,1.898
								c2.471,6.545,8.383,15.792,16.59,14.17c1.897-0.375,1.092-3.267-0.798-2.893c-6.238,1.233-11.09-7.282-12.9-12.074
								c-0.482,0.633-0.964,1.266-1.446,1.898c4.96-0.516,9.444,1.356,12.57,5.241C130.169,222.584,132.278,220.447,131.077,218.955
								L131.077,218.955z"/>
						</g>
					</g>
					<g>
						<path fill="#FFFFFF" d="M175.16,295.245c1.101,0.624,2.419,0.856,3.667,0.645"/>
						<g>
							<path fill="#FFFFFF" d="M174.403,296.54c1.529,0.82,3.118,1.044,4.822,0.796c0.811-0.118,1.244-1.132,1.048-1.845
								c-0.236-0.861-1.036-1.166-1.845-1.048c-0.864,0.126-1.753-0.087-2.512-0.493
								C174.213,293.036,172.698,295.626,174.403,296.54L174.403,296.54z"/>
						</g>
					</g>
					<g>
						<path fill="#FFFFFF" d="M187.499,295.548c2.224,0.177,4.469,0.09,6.672-0.26"/>
						<g>
							<path fill="#FFFFFF" d="M187.499,297.048c2.378,0.167,4.716,0.038,7.07-0.313c1.908-0.285,1.095-3.175-0.797-2.893
								c-2.081,0.311-4.178,0.354-6.273,0.206C185.567,293.912,185.58,296.913,187.499,297.048L187.499,297.048z"/>
						</g>
					</g>
					<g>
						<path fill="#FFFFFF" d="M180.853,191.885c0.263,1.951,2.681,3.087,4.548,2.463c1.867-0.625,3.076-2.526,3.426-4.464"/>
						<g>
							<path fill="#FFFFFF" d="M179.406,192.283c0.535,2.522,3.141,4.027,5.623,3.669c2.848-0.412,4.675-3.022,5.243-5.67
								c0.405-1.886-2.486-2.688-2.893-0.797c-0.302,1.404-0.95,2.85-2.378,3.416c-1.145,0.454-2.456-0.251-2.703-1.415
								C181.897,189.594,179.006,190.396,179.406,192.283L179.406,192.283z"/>
						</g>
					</g>
					<g>
						<path fill="#FFFFFF" d="M187.14,204.672c1.313,0.311,2.683,0.38,4.02,0.204"/>
						<g>
							<path fill="#FFFFFF" d="M186.741,206.118c1.458,0.325,2.934,0.434,4.418,0.258c0.812-0.096,1.5-0.609,1.5-1.5
								c0-0.745-0.687-1.597-1.5-1.5c-1.221,0.145-2.42,0.117-3.621-0.15C185.653,202.806,184.853,205.698,186.741,206.118
								L186.741,206.118z"/>
						</g>
					</g>
					<g>
						<path fill="#FFFFFF" d="M187.415,205.216c-0.501,1.402-0.259,3.047,0.626,4.245c0.587,0.796,1.575,1.419,2.536,1.18
							c1.153-0.287,1.692-1.636,1.761-2.823s-0.146-2.423,0.266-3.538"/>
						<g>
							<path fill="#FFFFFF" d="M185.969,204.817c-0.861,2.786,0.447,7.14,3.89,7.352c1.602,0.099,2.888-0.852,3.507-2.294
								c0.727-1.694,0.172-3.485,0.685-5.197c0.557-1.857-2.339-2.646-2.893-0.797c-0.485,1.62,0.146,3.588-0.67,5.068
								c-0.451,0.817-1.336-0.513-1.539-0.879c-0.419-0.752-0.328-1.674-0.087-2.456
								C189.435,203.761,186.538,202.975,185.969,204.817L185.969,204.817z"/>
						</g>
					</g>
					<g>
						<path fill="#FFFFFF" d="M175.463,249.513c3.228-1.809,5.67-4.965,6.611-8.542"/>
						<g>
							<path fill="#FFFFFF" d="M176.22,250.808c3.59-2.103,6.166-5.437,7.301-9.438c0.529-1.864-2.365-2.655-2.893-0.797
								c-0.927,3.267-2.992,5.93-5.922,7.646C173.038,249.194,174.547,251.788,176.22,250.808L176.22,250.808z"/>
						</g>
					</g>
					<g>
						<path fill="#FFFFFF" d="M190.133,240.568c-0.447,3.498,2.217,7.106,5.69,7.71"/>
						<g>
							<path fill="#FFFFFF" d="M188.633,240.568c-0.392,4.231,2.645,8.286,6.792,9.156c1.887,0.396,2.69-2.495,0.797-2.893
								c-2.949-0.619-4.865-3.274-4.589-6.264C191.812,238.642,188.81,238.659,188.633,240.568L188.633,240.568z"/>
						</g>
					</g>
					<g>
						<path fill="#FFFFFF" d="M185.83,244.572"/>
						<g>
							<path fill="#FFFFFF" d="M185.83,246.072c1.935,0,1.935-3,0-3S183.896,246.072,185.83,246.072L185.83,246.072z"/>
						</g>
					</g>
					<g>
						<path fill="#FFFFFF" d="M218.531,250.283c-1.713,1.328-1.805,3.839-1.699,6.004c0.118,2.438,0.291,4.874,0.521,7.305"/>
						<g>
							<path fill="#FFFFFF" d="M217.471,249.223c-3.624,3.423-2.015,10.023-1.617,14.369c0.175,1.91,3.176,1.927,3,0
								c-0.19-2.085-0.346-4.17-0.468-6.26c-0.119-2.047-0.426-4.446,1.206-5.988C221.001,250.013,218.876,247.896,217.471,249.223
								L217.471,249.223z"/>
						</g>
					</g>
					<g>
						<path fill="#FFFFFF" d="M214.567,265.572c0.052,7.896,0.301,15.793,0.749,23.677"/>
						<g>
							<path fill="#FFFFFF" d="M213.067,265.572c0.067,7.898,0.316,15.789,0.749,23.677c0.105,1.924,3.106,1.934,3,0
								c-0.433-7.888-0.682-15.778-0.749-23.677C216.051,263.639,213.051,263.637,213.067,265.572L213.067,265.572z"/>
						</g>
					</g>
					<g>
						<path fill="#FFFFFF" d="M216.467,289.338c2.596,0.789,5.396,0.895,8.045,0.303"/>
						<g>
							<path fill="#FFFFFF" d="M216.068,290.784c2.92,0.828,5.871,0.908,8.842,0.303c1.896-0.386,1.091-3.277-0.797-2.893
								c-2.446,0.498-4.85,0.377-7.248-0.303C215.001,287.362,214.21,290.257,216.068,290.784L216.068,290.784z"/>
						</g>
					</g>
					<g>
						<path fill="#FFFFFF" d="M214.832,265.583c2.417-0.412,4.907-0.387,7.315,0.074"/>
						<g>
							<path fill="#FFFFFF" d="M215.23,267.029c2.165-0.338,4.361-0.308,6.519,0.074c1.891,0.335,2.7-2.556,0.797-2.893
								c-2.724-0.482-5.38-0.501-8.112-0.074C212.526,264.435,213.339,267.325,215.23,267.029L215.23,267.029z"/>
						</g>
					</g>
					<g>
						<path fill="#FFFFFF" d="M222.448,266.242c0.376,7.441,0.752,14.884,1.128,22.326"/>
						<g>
							<path fill="#FFFFFF" d="M220.948,266.242c0.376,7.442,0.752,14.884,1.128,22.326c0.098,1.925,3.098,1.935,3,0
								c-0.376-7.442-0.752-14.884-1.128-22.326C223.851,264.317,220.851,264.308,220.948,266.242L220.948,266.242z"/>
						</g>
					</g>
					<g>
						<path fill="#FFFFFF" d="M221.176,263.906c0.032-4.231-0.164-8.466-0.587-12.676"/>
						<g>
							<path fill="#FFFFFF" d="M222.676,263.906c0.015-4.237-0.181-8.458-0.587-12.676c-0.184-1.908-3.186-1.926-3,0
								c0.406,4.218,0.602,8.438,0.587,12.676C219.669,265.841,222.669,265.841,222.676,263.906L222.676,263.906z"/>
						</g>
					</g>
					<g>
						<path fill="#FFFFFF" d="M222.864,261.296c1.031-0.136,2.019,0.604,2.503,1.523c0.485,0.92,0.576,1.989,0.659,3.026
							c0.504,6.329,1.008,12.658,1.512,18.987"/>
						<g>
							<path fill="#FFFFFF" d="M222.864,262.796c3.006,0.392,2.961,19.357,3.174,22.037c0.152,1.915,3.153,1.93,3,0
								c-0.504-6.329-1.008-12.658-1.512-18.987c-0.256-3.217-1.302-5.612-4.662-6.05
								C220.95,259.547,220.974,262.55,222.864,262.796L222.864,262.796z"/>
						</g>
					</g>
					<g>
						<path fill="#FFFFFF" d="M227.798,284.88c-0.991,1.229-1.982,2.459-2.974,3.688"/>
						<g>
							<path fill="#FFFFFF" d="M226.737,283.819c-0.991,1.229-1.982,2.459-2.974,3.688c-0.513,0.636-0.624,1.497,0,2.121
								c0.531,0.532,1.607,0.638,2.121,0c0.991-1.229,1.982-2.459,2.974-3.688c0.513-0.636,0.624-1.497,0-2.121
								C228.327,283.287,227.251,283.182,226.737,283.819L226.737,283.819z"/>
						</g>
					</g>
					<g>
						<path fill="#FFFFFF" d="M148.037,155.188c-2.037-8.62,1.218-17.146,6.904-23.938c2.853-3.407,6.583-6.282,8.148-10.441
							c3.203,4.836,9.336,6.918,15.128,7.251c5.791,0.332,11.577-0.749,17.378-0.686c5.8,0.063,11.998,1.517,15.842,5.861
							c2.156,2.438,3.386,5.58,5.527,8.031c1.381,1.58,3.941,6.87,5.183,8.563"/>
						<g>
							<path fill="#FFFFFF" d="M149.483,154.79c-1.463-7.37,0.651-14.016,4.74-20.157c3.107-4.666,7.838-7.853,10.162-13.066
								c-0.864,0-1.727,0-2.591,0c7.654,10.255,20.715,7.796,31.869,7.326c8.141-0.343,14.875,1.992,19.248,9.111
								c2.577,4.194,5.207,8.489,7.941,12.584c1.068,1.6,3.668,0.1,2.59-1.514c-5.424-8.123-8.983-18.183-18.794-21.82
								c-12.605-4.674-30.815,5.458-40.263-7.201c-0.592-0.793-2.082-1.143-2.591,0c-2.902,6.511-9.27,10.901-12.68,17.266
								c-3.031,5.658-3.762,12.035-2.524,18.269C146.967,157.484,149.859,156.679,149.483,154.79L149.483,154.79z"/>
						</g>
					</g>
					<g>
						<path fill="#FFFFFF" d="M148.291,157.73c-1.781-2.686-3.688-5.853-4.349-9.007c-1.832-8.758-1.901-18.095,1.341-26.434
							c3.242-8.34,10.139-15.522,18.817-17.697"/>
						<g>
							<path fill="#FFFFFF" d="M149.586,156.974c-10.678-16.477-5.938-45.02,14.913-50.935c1.858-0.527,1.067-3.422-0.798-2.893
								c-22.674,6.432-28.469,37.191-16.706,55.341C148.043,160.104,150.642,158.602,149.586,156.974L149.586,156.974z"/>
						</g>
					</g>
					<g>
						<path fill="#FFFFFF" d="M165.765,103.896c0.142-0.91,0.468-1.791,0.952-2.573c0.12-0.194,0.275-0.398,0.501-0.434
							c0.239-0.036,0.456,0.133,0.64,0.291c0.962,0.834,1.924,1.667,2.885,2.5"/>
						<g>
							<path fill="#FFFFFF" d="M167.211,104.294c0.083-0.458,0.197-0.894,0.348-1.335c0.08-0.2,0.173-0.395,0.279-0.583
								c0.325-0.445,0.195-0.433-0.389,0.036c-0.252-0.068-0.505-0.137-0.757-0.205c1.075,0.567,2.064,1.73,2.99,2.532
								c1.454,1.261,3.585-0.852,2.121-2.121c-0.769-0.667-1.538-1.333-2.308-2c-0.733-0.635-1.281-1.126-2.277-1.23
								c-1.808-0.189-2.667,2.826-2.899,4.108C163.975,105.388,166.866,106.196,167.211,104.294L167.211,104.294z"/>
						</g>
					</g>
					<g>
						<path fill="#FFFFFF" d="M171.49,103.925c1.762-3.223,6.258-3.818,9.796-2.833s6.688,3.11,10.255,3.989
							c4.257,1.048,8.773,0.231,12.905-1.234c2.179-0.773,4.44-1.741,6.717-1.339c2.41,0.426,4.425,2.531,4.743,4.957
							c0.319,2.427-1.083,4.981-3.301,6.016"/>
						<g>
							<path fill="#FFFFFF" d="M172.786,104.682c4.826-6.909,14.428,1.669,20.363,2.208c2.954,0.268,5.65-0.008,8.536-0.637
								c1.641-0.358,3.233-0.985,4.809-1.551c2.205-0.984,4.46-0.786,6.766,0.596c1.768,3.091,1.298,5.388-1.41,6.888
								c-1.646,1.01-0.14,3.605,1.514,2.591c2.998-1.839,5.3-5.717,3.545-9.248c-2.733-5.5-7.79-4.948-12.859-3.127
								c-3.942,1.416-7.959,2.029-12.108,1.234c-3.534-0.677-6.82-2.875-10.255-3.989c-4.26-1.383-8.938-0.13-11.49,3.522
								C169.084,104.758,171.687,106.255,172.786,104.682L172.786,104.682z"/>
						</g>
					</g>
					<g>
						<path fill="#FFFFFF" d="M145.125,152.025c-2.065-0.465-4.094,1.604-4.094,3.722s1.548,3.988,3.412,4.99
							c1.016,0.546,2.459,0.806,3.178-0.097"/>
						<g>
							<path fill="#FFFFFF" d="M145.125,150.525c-4.097-0.547-6.46,4.034-5.136,7.487c1.16,3.025,5.743,6.486,8.693,3.689
								c1.406-1.333-0.718-3.451-2.121-2.121c-1.042,0.988-3.191-1.589-3.617-2.292c-1.041-1.717,0.092-4.042,2.182-3.763
								C147.038,153.781,147.014,150.777,145.125,150.525L145.125,150.525z"/>
						</g>
					</g>
					<g>
						<path fill="#FFFFFF" d="M220.751,159.602c1.211,1.314,3.446,1.421,4.882,0.356s2.003-3.093,1.5-4.808
							c-0.504-1.714-1.97-3.066-3.67-3.616"/>
						<g>
							<path fill="#FFFFFF" d="M219.69,160.662c2.718,2.553,6.99,1.661,8.565-1.687c1.775-3.775-0.835-7.568-4.395-8.887
								c-1.817-0.674-2.595,2.227-0.797,2.893c1.656,0.614,2.992,2.131,2.708,3.985c-0.29,1.888-2.478,2.969-3.961,1.575
								C220.403,157.218,218.277,159.335,219.69,160.662L219.69,160.662z"/>
						</g>
					</g>
				</g>
			</g>
			<g>
				<path fill="#FF7672" d="M229.165,280.623c-0.334-5.322-1.19-10.567-2.35-15.769c-0.286-1.286-1.897-2.242-3.16-1.794
					c-0.85,0.301-1.58,0.726-2.197,1.248c-1.749-0.581-4.149,0.784-3.51,3.115c0.095,0.368,0.188,0.736,0.283,1.104
					c-0.931,5.021-1.07,10.564-0.701,15.576c0.271,3.668,2.731,5.28,6.338,4.734C228.807,288.091,229.446,285.093,229.165,280.623z"
					/>
				<path fill="#FF7672" d="M137.239,190.79c0.017-0.09,0.045-0.172,0.055-0.266c0.181-1.565,0.029-3.056-0.354-4.584
					c-0.469-1.866-2.645-2.591-4.247-1.728c-0.051,0.027-0.109,0.061-0.163,0.09c-0.264,0.04-0.534,0.099-0.817,0.196
					c-0.344,0.118-0.636,0.284-0.887,0.482c-2.012-1.115-4.609-0.44-6.366,0.968c-1.402,1.124-0.889,3.604,0.566,4.395
					c0.003,0.002,0.006,0.003,0.01,0.005c-0.345,0.444-0.728,0.867-1.149,1.267c-0.504-0.007-1.03,0.1-1.556,0.366
					c-0.115,0.059-0.205,0.138-0.313,0.203c-2.095-0.892-4.337,0-6.177,1.598c-1.612,1.398-0.638,3.993,1.202,4.555
					c1.393,0.425,2.762,0.662,4.177,0.769c0.047,0.044,0.095,0.085,0.142,0.126c-0.152,0.309-0.293,0.625-0.399,0.961
					c-0.366,1.149,0.215,2.94,1.404,3.45c3.092,1.326,6.72,0.478,9.795-0.593c0.073-0.025,0.135-0.063,0.204-0.092
					c2.852-0.074,5.839-1.018,7.625-3.312c1.026-1.317,1.444-2.885,1.276-4.383C141.72,192.868,140.747,190.595,137.239,190.79z
					 M132.911,195.64l-0.199,0.531c-0.041,0.109-0.068,0.224-0.091,0.338c-1.262,0.124-2.576,0.188-2.811,0.136
					c-0.052-0.011-0.105-0.024-0.157-0.036c-0.146-0.047-0.29-0.097-0.428-0.156c-0.283-1.031-1.063-1.861-2.204-2.049
					c-0.104-0.199-0.204-0.406-0.286-0.63c-0.383-1.042-1.136-1.748-2.038-2.027c0.381-0.299,0.736-0.611,1.063-0.941
					c0.754,0.688,1.804,1.104,2.856,1.002c0.716-0.069,1.439-0.313,2.082-0.679c0.286-0.056,0.571-0.122,0.855-0.199
					c0.039,1.615,1.356,2.388,2.73,2.325c-0.039,0.247-0.062,0.497-0.048,0.746C133.65,194.375,133.169,194.949,132.911,195.64z"/>
				<g>
					<circle fill="#FF7672" cx="204.472" cy="160.983" r="4.292"/>
					<circle fill="#FF7672" cx="162.759" cy="160.983" r="4.293"/>
					<path fill="none" stroke="#454C53" stroke-width="3" stroke-linecap="round" stroke-miterlimit="10" d="M147.393,154.015
						c3.203,17.837,19.337,31.587,37.987,31.125c18.821-0.465,34.815-15.404,36.517-34.165"/>
					<path fill="#454C53" d="M197.682,152.017c0.236-0.402,0.545-0.644,0.917-0.835c-0.008,0.004-0.017,0.007-0.024,0.011
						c0.052-0.024,0.102-0.053,0.151-0.081c1.581-0.903,3.621,0.24,3.621,2.077c0,1.83-2.043,2.993-3.621,2.078
						c-0.6-0.348-1.087-0.846-1.268-1.54C197.308,153.147,197.378,152.536,197.682,152.017z"/>
					<path fill="#454C53" d="M166.236,152.017c0.236-0.402,0.544-0.644,0.917-0.835c-0.009,0.004-0.017,0.007-0.024,0.011
						c0.052-0.024,0.101-0.053,0.152-0.081c1.58-0.903,3.62,0.24,3.62,2.077c0,1.83-2.043,2.993-3.62,2.078
						c-0.602-0.348-1.089-0.846-1.268-1.54C165.863,153.147,165.933,152.536,166.236,152.017z"/>
					<path fill="none" stroke="#454C53" stroke-width="3" stroke-linecap="round" stroke-miterlimit="10" d="M170.461,164.864
						c7.098,7.943,19.907,7.943,27.005,0"/>
					
						<path fill="none" stroke="#454C53" stroke-width="3" stroke-linecap="round" stroke-linejoin="round" stroke-miterlimit="10" d="
						M188.5,186v5.373c0,0,6.339,0.321,9.227-0.963s22.648,48.989,22.648,48.989l-4.35,4.091l-18.659-42.764l-0.474,38.773h-21.757
						l-0.883-38.715c0,0-15.603,28.396-34.363,30.928"/>
					<path fill="none" stroke="#454C53" stroke-width="3" stroke-linecap="round" stroke-miterlimit="10" d="M221.176,155.586
						c0,0,10.398-21.378-8.57-42.105"/>
					<polyline fill="none" stroke="#454C53" stroke-width="3" stroke-linecap="round" stroke-miterlimit="10" points="
						194.199,295.739 196.979,240.025 175.24,239.77 173.695,295.739 					"/>
					<polyline fill="none" stroke="#454C53" stroke-width="3" stroke-linecap="round" stroke-miterlimit="10" points="
						187.051,295.739 186.256,250.464 180.253,295.739 					"/>
					
						<polyline fill="none" stroke="#454C53" stroke-width="3" stroke-linecap="round" stroke-linejoin="round" stroke-miterlimit="10" points="
						173.901,295 165.164,300.958 180.047,300.561 180.256,295 					"/>
					
						<polyline fill="none" stroke="#454C53" stroke-width="3" stroke-linecap="round" stroke-linejoin="round" stroke-miterlimit="10" points="
						193.404,295 202.143,300.958 187.259,300.561 187.051,295 					"/>
					
						<path fill="none" stroke="#454C53" stroke-width="3" stroke-linecap="round" stroke-linejoin="round" stroke-miterlimit="10" d="
						M216.043,243.49c0,0-0.555,4.646,0.583,6.765c1.138,2.118,2.726-0.66,2.726-0.66s1.589,3.572,3.178,2.778
						s1.815-8.278-2.686-11.984"/>
					
						<path fill="none" stroke="#454C53" stroke-width="3" stroke-linecap="round" stroke-linejoin="round" stroke-miterlimit="10" d="
						M138.863,228.015c22.24-7.943,32.583-36.283,32.583-36.283l9.622,0.623l-0.751-7.45"/>
					<g>
						<g>
							<path fill="#454C53" d="M137.057,227.97c0.237,1.665,0.474,3.33,0.711,4.994c0.115,0.812,1.133,1.244,1.845,1.048
								c0.862-0.237,1.163-1.036,1.047-1.845c-0.237-1.665-0.474-3.33-0.711-4.994c-0.115-0.812-1.133-1.244-1.845-1.048
								C137.242,226.362,136.941,227.161,137.057,227.97L137.057,227.97z"/>
						</g>
					</g>
					<g>
						<g>
							<path fill="#454C53" d="M136.866,226.594c-3.034-0.607-5.891-0.211-8.628,1.235c-1.95,1.029-2.801,4.311-0.145,5.091
								c1.166,0.343,2.429,0.061,3.539,0.602c0.349,0.17,0.047,1.26,0.068,1.637c0.029,0.533,0.304,1.038,0.68,1.414
								c1.927,1.927,5.922-0.768,7.427-2.04c1.479-1.25-0.654-3.361-2.121-2.121c-0.943,0.797-1.917,1.282-3.101,1.622
								c0.075,0.695,0.129,0.749,0.165,0.163c0.079-0.321,0.078-0.643,0-0.963c-0.155-1.204-0.999-2.008-2.049-2.52
								c-0.555-0.271-1.158-0.408-1.768-0.478c-0.343-0.055-0.687-0.079-1.034-0.072c-0.585-0.104-0.634-0.019-0.146,0.255
								c1.768-1.223,4.289-1.339,6.317-0.933C137.957,229.865,138.762,226.974,136.866,226.594L136.866,226.594z"/>
						</g>
					</g>
					<g>
						<g>
							<path fill="#454C53" d="M133.438,230.068c-0.843-8.507-1.687-17.014-2.531-25.521c-0.189-1.906-3.191-1.925-3,0
								c0.844,8.507,1.688,17.014,2.531,25.521C130.627,231.975,133.629,231.993,133.438,230.068L133.438,230.068z"/>
						</g>
					</g>
					<g>
						<g>
							<path fill="#454C53" d="M124.35,195.188c-2.806,1.481-7.169,3.788-7.884,7.16c-0.684,3.221,3.428,3.992,5.634,3.746
								c3.478-0.388,7.912-0.782,10.424-3.499c2.616-2.829-1.212-4.627-2.611-6.423c-1.187-1.525-3.294,0.614-2.121,2.121
								c0.662,0.851,1.524,1.306,2.348,1.979c0.956,0.779-5.112,2.375-5.565,2.46c-0.822,0.14-1.647,0.26-2.476,0.362
								c-1.414,0.186-2.444-0.918-1.221-2.009c1.495-1.334,3.222-2.376,4.985-3.308C127.575,196.875,126.059,194.285,124.35,195.188
								L124.35,195.188z"/>
						</g>
					</g>
					<g>
						<g>
							<path fill="#454C53" d="M124.146,191.408c-1.37,0.974-1.851,2.612-1.235,4.191c0.692,1.771,2.425,2.574,4.256,2.531
								c1.573-0.036,4.062-0.831,4.469-2.596c0.471-2.036-1.054-3.562-2.709-4.476c-1.694-0.937-3.208,1.655-1.514,2.59
								c0.461,0.255,1.153,0.603,1.347,1.138c-0.072-0.199,0.153-0.244-0.26-0.019c-0.332,0.182-0.737,0.256-1.103,0.337
								c-0.542,0.12-1.189,0.038-1.589-0.359c-0.109-0.108-0.156-0.337-0.168-0.477c-0.02-0.235,0.1-0.328,0.02-0.271
								C127.223,192.888,125.727,190.284,124.146,191.408L124.146,191.408z"/>
						</g>
					</g>
					<g>
						<g>
							<path fill="#454C53" d="M124.949,190.872c-2.786-1.621-5.896-2.231-9.08-1.675c-3.024,0.527-3.341,5.017-3.14,7.376
								c0.2,2.347,1.419,3.345,3.593,3.645c1.485,0.205,3.994,0.724,5.347-0.184c1.598-1.07,0.098-3.671-1.514-2.59
								c-0.14,0.094-1.703-0.018-2.22-0.052c-0.514-0.034-1.025-0.093-1.534-0.175c-0.195-0.033-0.388-0.074-0.58-0.122
								c-0.305-0.011-0.328-0.156-0.068-0.438c-0.25-0.904-0.08-2.038,0.092-2.935c0.275-1.438,0.881-1.7,2.188-1.758
								c1.917-0.084,3.767,0.545,5.402,1.496C125.111,194.438,126.62,191.844,124.949,190.872L124.949,190.872z"/>
						</g>
					</g>
					<g>
						<g>
							<path fill="#454C53" d="M122.901,190.281c0.328-1.173,0.112-2.089-0.29-3.222c-0.546-1.539,4.084-1.012,4.9-1.02
								c1.324-0.014,8.483-0.49,5.547,3.209c-1,1.259-2.569,2.011-3.626,3.251c-1.247,1.464,0.865,3.596,2.121,2.121
								c1.639-1.924,5.182-3.466,5.194-6.431c0.012-2.745-1.965-4.659-4.661-5.017c-3.146-0.416-7.543-0.707-10.608,0.253
								c-0.758,0.238-1.686,1.005-1.875,1.813c-0.343,1.467,0.768,2.939,0.404,4.244
								C119.488,191.351,122.382,192.143,122.901,190.281L122.901,190.281z"/>
						</g>
					</g>
					<g>
						<g>
							<path fill="#454C53" d="M135.189,192.151c0.924-0.114,1.986-0.299,2.872,0.086c1.103,0.479,0.62,3.372,0.608,4.294
								c-0.005,0.459-0.011,0.918-0.017,1.377c-0.013,1.068-0.872,0.769-1.722,0.825c-1.495,0.101-2.997,0.022-4.486-0.114
								c-1.927-0.177-1.91,2.824,0,3c2.151,0.197,5.31,0.64,7.336-0.308c1.964-0.919,1.866-2.88,1.889-4.78
								c0.023-1.874,0.415-4.501-1.028-6.005c-1.47-1.533-3.452-1.622-5.451-1.375C133.295,189.386,133.272,192.389,135.189,192.151
								L135.189,192.151z"/>
						</g>
					</g>
					<g>
						<g>
							<path fill="#454C53" d="M130.589,232.074c0.387,5.162,0.775,10.323,1.162,15.485c0.144,1.917,3.145,1.931,3,0
								c-0.387-5.162-0.775-10.323-1.162-15.485C133.445,230.157,130.444,230.144,130.589,232.074L130.589,232.074z"/>
						</g>
					</g>
					<g>
						<g>
							<path fill="#454C53" d="M132.45,220.623c0.946-6.243,5.692-9.888,10.534-13.328c-0.752-0.432-1.504-0.863-2.257-1.295
								c0.507,6.842-1.673,16.822-8.646,19.934c-1.764,0.786-0.237,3.371,1.514,2.59c7.887-3.518,10.712-14.715,10.133-22.523
								c-0.076-1.028-1.254-2.008-2.257-1.295c-5.444,3.868-10.853,8.115-11.913,15.121
								C129.271,221.718,132.162,222.531,132.45,220.623L132.45,220.623z"/>
						</g>
					</g>
					<g>
						<g>
							<path fill="#454C53" d="M131.077,218.955c-3.557-4.421-9.048-6.706-14.691-6.12c-0.881,0.092-1.822,0.904-1.446,1.898
								c2.471,6.545,8.383,15.792,16.59,14.17c1.897-0.375,1.092-3.267-0.798-2.893c-6.238,1.233-11.09-7.282-12.9-12.074
								c-0.482,0.633-0.964,1.266-1.446,1.898c4.96-0.516,9.444,1.356,12.57,5.241C130.169,222.584,132.278,220.447,131.077,218.955
								L131.077,218.955z"/>
						</g>
					</g>
					<g>
						<g>
							<path fill="#454C53" d="M174.403,296.54c1.529,0.82,3.118,1.044,4.822,0.796c0.811-0.118,1.244-1.132,1.048-1.845
								c-0.236-0.861-1.036-1.166-1.845-1.048c-0.864,0.126-1.753-0.087-2.512-0.493
								C174.213,293.036,172.698,295.626,174.403,296.54L174.403,296.54z"/>
						</g>
					</g>
					<g>
						<g>
							<path fill="#454C53" d="M187.499,297.048c2.378,0.167,4.716,0.038,7.07-0.313c1.908-0.285,1.095-3.175-0.797-2.893
								c-2.081,0.311-4.178,0.354-6.273,0.206C185.567,293.912,185.58,296.913,187.499,297.048L187.499,297.048z"/>
						</g>
					</g>
					<g>
						<g>
							<path fill="#454C53" d="M179.406,192.283c0.535,2.522,3.141,4.027,5.623,3.669c2.848-0.412,4.675-3.022,5.243-5.67
								c0.405-1.886-2.486-2.688-2.893-0.797c-0.302,1.404-0.95,2.85-2.378,3.416c-1.145,0.454-2.456-0.251-2.703-1.415
								C181.897,189.594,179.006,190.396,179.406,192.283L179.406,192.283z"/>
						</g>
					</g>
					<g>
						<g>
							<path fill="#454C53" d="M186.741,206.118c1.458,0.325,2.934,0.434,4.418,0.258c0.812-0.096,1.5-0.609,1.5-1.5
								c0-0.745-0.687-1.597-1.5-1.5c-1.221,0.145-2.42,0.117-3.621-0.15C185.653,202.806,184.853,205.698,186.741,206.118
								L186.741,206.118z"/>
						</g>
					</g>
					<g>
						<g>
							<path fill="#454C53" d="M185.969,204.817c-0.861,2.786,0.447,7.14,3.89,7.352c1.602,0.099,2.888-0.852,3.507-2.294
								c0.727-1.694,0.172-3.485,0.685-5.197c0.557-1.857-2.339-2.646-2.893-0.797c-0.485,1.62,0.146,3.588-0.67,5.068
								c-0.451,0.817-1.336-0.513-1.539-0.879c-0.419-0.752-0.328-1.674-0.087-2.456
								C189.435,203.761,186.538,202.975,185.969,204.817L185.969,204.817z"/>
						</g>
					</g>
					<g>
						<g>
							<path fill="#454C53" d="M176.22,250.808c3.59-2.103,6.166-5.437,7.301-9.438c0.529-1.864-2.365-2.655-2.893-0.797
								c-0.927,3.267-2.992,5.93-5.922,7.646C173.038,249.194,174.547,251.788,176.22,250.808L176.22,250.808z"/>
						</g>
					</g>
					<g>
						<g>
							<path fill="#454C53" d="M188.633,240.568c-0.392,4.231,2.645,8.286,6.792,9.156c1.887,0.396,2.69-2.495,0.797-2.893
								c-2.949-0.619-4.865-3.274-4.589-6.264C191.812,238.642,188.81,238.659,188.633,240.568L188.633,240.568z"/>
						</g>
					</g>
					<g>
						<g>
							<path fill="#454C53" d="M185.83,246.072c1.935,0,1.935-3,0-3S183.896,246.072,185.83,246.072L185.83,246.072z"/>
						</g>
					</g>
					<g>
						<g>
							<path fill="#454C53" d="M217.471,249.223c-3.624,3.423-2.015,10.023-1.617,14.369c0.175,1.91,3.176,1.927,3,0
								c-0.19-2.085-0.346-4.17-0.468-6.26c-0.119-2.047-0.426-4.446,1.206-5.988C221.001,250.013,218.876,247.896,217.471,249.223
								L217.471,249.223z"/>
						</g>
					</g>
					<g>
						<g>
							<path fill="#454C53" d="M213.067,265.572c0.067,7.898,0.316,15.789,0.749,23.677c0.105,1.924,3.106,1.934,3,0
								c-0.433-7.888-0.682-15.778-0.749-23.677C216.051,263.639,213.051,263.637,213.067,265.572L213.067,265.572z"/>
						</g>
					</g>
					<g>
						<g>
							<path fill="#454C53" d="M216.068,290.784c2.92,0.828,5.871,0.908,8.842,0.303c1.896-0.386,1.091-3.277-0.797-2.893
								c-2.446,0.498-4.85,0.377-7.248-0.303C215.001,287.362,214.21,290.257,216.068,290.784L216.068,290.784z"/>
						</g>
					</g>
					<g>
						<g>
							<path fill="#454C53" d="M215.23,267.029c2.165-0.338,4.361-0.308,6.519,0.074c1.891,0.335,2.7-2.556,0.797-2.893
								c-2.724-0.482-5.38-0.501-8.112-0.074C212.526,264.435,213.339,267.325,215.23,267.029L215.23,267.029z"/>
						</g>
					</g>
					<g>
						<g>
							<path fill="#454C53" d="M220.948,266.242c0.376,7.442,0.752,14.884,1.128,22.326c0.098,1.925,3.098,1.935,3,0
								c-0.376-7.442-0.752-14.884-1.128-22.326C223.851,264.317,220.851,264.308,220.948,266.242L220.948,266.242z"/>
						</g>
					</g>
					<g>
						<g>
							<path fill="#454C53" d="M222.676,263.906c0.015-4.237-0.181-8.458-0.587-12.676c-0.184-1.908-3.186-1.926-3,0
								c0.406,4.218,0.602,8.438,0.587,12.676C219.669,265.841,222.669,265.841,222.676,263.906L222.676,263.906z"/>
						</g>
					</g>
					<g>
						<g>
							<path fill="#454C53" d="M222.864,262.796c3.006,0.392,2.961,19.357,3.174,22.037c0.152,1.915,3.153,1.93,3,0
								c-0.504-6.329-1.008-12.658-1.512-18.987c-0.256-3.217-1.302-5.612-4.662-6.05
								C220.95,259.547,220.974,262.55,222.864,262.796L222.864,262.796z"/>
						</g>
					</g>
					<g>
						<g>
							<path fill="#454C53" d="M226.737,283.819c-0.991,1.229-1.982,2.459-2.974,3.688c-0.513,0.636-0.624,1.497,0,2.121
								c0.531,0.532,1.607,0.638,2.121,0c0.991-1.229,1.982-2.459,2.974-3.688c0.513-0.636,0.624-1.497,0-2.121
								C228.327,283.287,227.251,283.182,226.737,283.819L226.737,283.819z"/>
						</g>
					</g>
					<g>
						<g>
							<path fill="#454C53" d="M149.483,154.79c-1.463-7.37,0.651-14.016,4.74-20.157c3.107-4.666,7.838-7.853,10.162-13.066
								c-0.864,0-1.727,0-2.591,0c7.654,10.255,20.715,7.796,31.869,7.326c8.141-0.343,14.875,1.992,19.248,9.111
								c2.577,4.194,5.207,8.489,7.941,12.584c1.068,1.6,3.668,0.1,2.59-1.514c-5.424-8.123-8.983-18.183-18.794-21.82
								c-12.605-4.674-30.815,5.458-40.263-7.201c-0.592-0.793-2.082-1.143-2.591,0c-2.902,6.511-9.27,10.901-12.68,17.266
								c-3.031,5.658-3.762,12.035-2.524,18.269C146.967,157.484,149.859,156.679,149.483,154.79L149.483,154.79z"/>
						</g>
					</g>
					<g>
						<g>
							<path fill="#454C53" d="M149.586,156.974c-10.678-16.477-5.938-45.02,14.913-50.935c1.858-0.527,1.067-3.422-0.798-2.893
								c-22.674,6.432-28.469,37.191-16.706,55.341C148.043,160.104,150.642,158.602,149.586,156.974L149.586,156.974z"/>
						</g>
					</g>
					<g>
						<g>
							<path fill="#454C53" d="M167.211,104.294c0.083-0.458,0.197-0.894,0.348-1.335c0.08-0.2,0.173-0.395,0.279-0.583
								c0.325-0.445,0.195-0.433-0.389,0.036c-0.252-0.068-0.505-0.137-0.757-0.205c1.075,0.567,2.064,1.73,2.99,2.532
								c1.454,1.261,3.585-0.852,2.121-2.121c-0.769-0.667-1.538-1.333-2.308-2c-0.733-0.635-1.281-1.126-2.277-1.23
								c-1.808-0.189-2.667,2.826-2.899,4.108C163.975,105.388,166.866,106.196,167.211,104.294L167.211,104.294z"/>
						</g>
					</g>
					<g>
						<g>
							<path fill="#454C53" d="M172.786,104.682c4.826-6.909,14.428,1.669,20.363,2.208c2.954,0.268,5.65-0.008,8.536-0.637
								c1.641-0.358,3.233-0.985,4.809-1.551c2.205-0.984,4.46-0.786,6.766,0.596c1.768,3.091,1.298,5.388-1.41,6.888
								c-1.646,1.01-0.14,3.605,1.514,2.591c2.998-1.839,5.3-5.717,3.545-9.248c-2.733-5.5-7.79-4.948-12.859-3.127
								c-3.942,1.416-7.959,2.029-12.108,1.234c-3.534-0.677-6.82-2.875-10.255-3.989c-4.26-1.383-8.938-0.13-11.49,3.522
								C169.084,104.758,171.687,106.255,172.786,104.682L172.786,104.682z"/>
						</g>
					</g>
					<g>
						<g>
							<path fill="#454C53" d="M145.125,150.525c-4.097-0.547-6.46,4.034-5.136,7.487c1.16,3.025,5.743,6.486,8.693,3.689
								c1.406-1.333-0.718-3.451-2.121-2.121c-1.042,0.988-3.191-1.589-3.617-2.292c-1.041-1.717,0.092-4.042,2.182-3.763
								C147.038,153.781,147.014,150.777,145.125,150.525L145.125,150.525z"/>
						</g>
					</g>
					<g>
						<g>
							<path fill="#454C53" d="M219.69,160.662c2.718,2.553,6.99,1.661,8.565-1.687c1.775-3.775-0.835-7.568-4.395-8.887
								c-1.817-0.674-2.595,2.227-0.797,2.893c1.656,0.614,2.992,2.131,2.708,3.985c-0.29,1.888-2.478,2.969-3.961,1.575
								C220.403,157.218,218.277,159.335,219.69,160.662L219.69,160.662z"/>
						</g>
					</g>
				</g>
			</g>
		</g>
		<g>
			<g>
				<path fill="#454C53" d="M163.072,299.933c-9.188,1.359-18.375,2.72-27.563,4.079c-1.432,0.212-0.821,2.38,0.598,2.17
					c9.188-1.359,18.375-2.72,27.563-4.079C165.102,301.891,164.491,299.723,163.072,299.933L163.072,299.933z"/>
			</g>
		</g>
		<g>
			<g>
				<path fill="#454C53" d="M202.331,301.412c11.172-0.229,22.34-0.148,33.507,0.24c1.451,0.051,1.446-2.199,0-2.25
					c-11.167-0.389-22.335-0.469-33.507-0.24C200.882,299.191,200.879,301.441,202.331,301.412L202.331,301.412z"/>
			</g>
		</g>
		<path fill="#FF7672" d="M209.8,64.893c-0.719-0.117-1.456,0.079-2.046,0.513c-0.268-0.088-0.553-0.108-0.825-0.012
			c-2.473,0.877-4.255,2.721-5.022,4.984c-0.457-0.492-0.961-0.969-1.49-1.425c-0.373-1.223-1.037-2.301-2.329-2.854
			c-0.663-0.283-1.394-0.375-2.083-0.281c-0.485-0.289-0.935-0.543-1.319-0.75c-0.733-0.395-1.606-0.167-2.053,0.538
			c-1.851,2.923,0.101,6.098,2.815,8.704c0.641,1.285,1.547,2.438,2.665,3.236c0.062,0.415,0.206,0.86,0.47,1.342
			c0.527,0.961,1.375,1.495,2.315,1.7c0.777,1.033,2.271,1.536,3.867,0.72c0.472-0.242,0.681-0.728,0.697-1.225
			c1.033-0.406,2.041-1.117,2.693-1.791c0.938-0.968,2.407-2.676,3.545-4.557c0.952-1.351,1.636-2.868,1.93-4.078
			C214.884,64.487,212.464,63.769,209.8,64.893z"/>
		<g>
			<g>
				<path fill="#454C53" d="M201.418,83.183c6.24-3.611,14.884-11.613,11.36-19.55c-1.282-2.889-5.057-2.724-7.502-1.971
					c-3.629,1.117-6.062,4.664-5.996,8.333c0.736-0.1,1.474-0.199,2.21-0.299c-0.831-4.516-9.025-11.923-12.703-5.646
					c-4.141,7.07,6.591,15.099,10.745,18.979c1.06,0.989,2.653-0.599,1.592-1.591c-2.636-2.462-5.355-4.806-7.732-7.528
					c-1.783-2.044-2.914-4.408-3.036-7.136c2.364-2.898,4.7-3.109,7.008-0.63c1.171,1.187,1.823,2.57,1.957,4.15
					c0.233,1.266,2.232,0.948,2.21-0.299c-0.068-3.831,3.043-6.194,6.392-6.64c3.219,1.649,4.236,3.866,3.055,6.65
					c-0.581,1.599-1.456,3.017-2.624,4.254c-2.193,2.585-5.159,5.296-8.069,6.981C199.028,81.967,200.16,83.912,201.418,83.183
					L201.418,83.183z"/>
			</g>
		</g>
		<path fill="#FF7672" d="M174.523,48.456c-0.957-0.157-1.94,0.104-2.725,0.683c-0.356-0.117-0.737-0.145-1.1-0.016
			c-3.295,1.168-5.668,3.624-6.691,6.64c-0.609-0.656-1.279-1.291-1.984-1.897c-0.498-1.63-1.382-3.065-3.104-3.803
			c-0.883-0.378-1.855-0.5-2.774-0.375c-0.646-0.386-1.244-0.723-1.758-0.999c-0.976-0.525-2.14-0.223-2.734,0.717
			c-2.465,3.894,0.134,8.123,3.751,11.596c0.854,1.712,2.061,3.246,3.55,4.311c0.082,0.553,0.274,1.146,0.626,1.788
			c0.702,1.279,1.831,1.991,3.084,2.265c1.035,1.376,3.027,2.047,5.152,0.958c0.629-0.321,0.906-0.969,0.929-1.631
			c1.376-0.542,2.719-1.488,3.588-2.386c1.249-1.289,3.207-3.565,4.723-6.07c1.269-1.799,2.179-3.82,2.57-5.433
			C181.297,47.915,178.072,46.958,174.523,48.456z"/>
		<g>
			<g>
				<path fill="#454C53" d="M163.17,72.499c6.702-3.82,20.362-15.409,15.411-24.708c-4.854-9.118-18.221-1.019-17.696,7.463
					c0.737-0.1,1.473-0.199,2.21-0.299c-0.653-3.974-3.223-8.002-7.272-9.284c-2.737-0.867-7.722-1.362-9.083,2.121
					c-3.929,10.06,8.164,18.744,14.371,24.561c1.057,0.991,2.651-0.597,1.591-1.591c-4.062-3.807-8.404-7.346-11.703-11.875
					c-1.718-2.359-2.665-5.01-2.75-7.923c1.881-1.182,3.762-2.364,5.643-3.545c1.668,0.415,3.111,1.228,4.33,2.44
					c1.682,1.466,2.358,3.591,2.704,5.694c0.207,1.256,2.288,0.958,2.21-0.299c-0.276-4.467,3.101-7.485,7.028-8.899
					c7.389-2.662,7.421,6.516,5.616,10.646c-2.243,5.132-9.005,10.855-13.744,13.557C160.775,71.274,161.908,73.218,163.17,72.499
					L163.17,72.499z"/>
			</g>
		</g>
	</g>
</g>
</svg>
