<?xml version="1.0" encoding="utf-8"?>
<!-- Generator: Adobe Illustrator 16.0.0, SVG Export Plug-In . SVG Version: 6.00 Build 0)  -->
<!DOCTYPE svg PUBLIC "-//W3C//DTD SVG 1.1 Tiny//EN" "http://www.w3.org/Graphics/SVG/1.1/DTD/svg11-tiny.dtd">
<svg version="1.1" baseProfile="tiny" id="Layer_1" xmlns="http://www.w3.org/2000/svg" xmlns:xlink="http://www.w3.org/1999/xlink"
	 x="0px" y="0px" width="350px" height="350px" viewBox="0 0 350 350" overflow="scroll" xml:space="preserve">
<g>
	<path fill-rule="evenodd" fill="#FBD3C1" d="M216.052,243.514c0.622,18.192,4.129,47.399,5.022,61.554l-10.274,0.346
		c-5.283-11.468-10.563-45.991-35.885-45.242c-25.322,0.75-30.476,32.467-36.684,45.242h-8.947
		c-2.041-12.98,7.507-43.758,8.132-61.984C157.536,243.482,193.659,243.593,216.052,243.514z"/>
	<path fill-rule="evenodd" fill="#194C69" d="M131.288,232.739c-1.016,7.105-8.46,56.172-8.46,56.172l36.196,4.145
		c15.746-30.158,10.624-30.918,29.333-0.632l38.355-1.821c0,0-9.713-53.313-6.768-53.465
		C222.89,236.986,131.288,232.739,131.288,232.739z"/>
	<path fill-rule="evenodd" fill="#F3F3F3" d="M209.192,156.415c0.295,0.844,10.736,85.295,11.002,93.071
		c-23.873,0.084-72.285-1.28-93.735-1.338c1.971-14.782,7.125-90.053,7.606-91.462l40.85-2.229L209.192,156.415z"/>
	<path fill-rule="evenodd" fill="#F68932" d="M214.999,202.792c0.767,6.366,1.525,12.74,2.217,18.658h-88.279
		c0.481-5.932,0.981-12.304,1.471-18.658H214.999z"/>
	<path fill-rule="evenodd" fill="#FBD3C1" d="M158.368,155.359l16.548-0.903l13.149,0.751c2.378,1.6,3.791,3.599,3.791,5.768
		c0,5.257-8.297,9.518-18.529,9.518c-10.233,0-18.529-4.261-18.529-9.518C154.798,158.875,156.124,156.933,158.368,155.359z"/>
	<path fill-rule="evenodd" fill="#FBD3C1" d="M165.629,145.546h15.396c0,4.286,0,8.572,0,12.858c-0.165,3.676-15.284,4.05-15.396,0
		V145.546z"/>
	<path fill-rule="evenodd" fill="#EFC9B8" d="M165.629,145.546h15.396v5.666c-2.287,0.457-4.91,0.715-7.697,0.715
		s-5.41-0.258-7.698-0.715V145.546z"/>
	<path fill-rule="evenodd" fill="#FBD3C1" d="M119.638,96.683c1.17-3.988,0.269-12.347,1.829-15.867
		c10.629-23.988,32.006-32.477,51.406-33.768c0.682,0.046,1.364,0.106,2.045,0.182c0.682-0.075,1.363-0.136,2.044-0.182
		c19.399,1.291,40.777,9.78,51.406,33.768c1.561,3.521,0.658,11.879,1.828,15.867c18.176-12.222,16.043,35.604-2.396,29.979
		c1.133,15.943-25.868,23.361-52.883,23.172c-27.015,0.189-54.017-7.229-52.884-23.172
		C103.596,132.287,101.463,84.461,119.638,96.683z"/>
	<path fill-rule="evenodd" fill="#835B59" d="M118.116,89.974c0,0,0.364,3.184,0.87,7.38c0.979,8.123,2.499,20.045,2.974,20.045
		c0.719,0,3.021,0.919,3.021,0.153c0-0.767,1.87-30.213,2.877-33.895s5.754-14.417,13.81-17.484
		c3.839-1.462,18.334-2.366,32.735-2.779c14.399,0.413,28.894,1.316,32.735,2.779c8.055,3.067,12.802,13.803,13.809,17.484
		c1.006,3.681,2.877,33.127,2.877,33.895c0,0.767,2.302-0.153,3.021-0.153c0.72,0,3.843-27.425,3.843-27.425
		c2.088-11.79,3.191-20.111-2.648-27.684c-0.951-1.232-2.016-2.422-3.176-3.563c-11.826-11.62-33.879-18.394-51.982-18.333
		c-18.201-0.043-46.429,20.669-46.429,20.669C115.854,64.428,115.601,76.314,118.116,89.974z"/>
	<path fill-rule="evenodd" fill="#835B59" d="M131.475,62.27c-0.173-0.518-2.246-3.973-7.342-6.997
		c-5.096-3.023-11.143-2.332-11.143-2.332l10.02,5.441c0,0-2.419-0.173-6.219,1.641c-3.801,1.814-7.083,6.392-7.083,6.392
		s3.973-3.455,9.069-3.023c5.097,0.432,8.246,2.193,8.246,2.193L131.475,62.27z"/>
	<path fill-rule="evenodd" fill="#835B59" d="M126.562,80.075c5.468,10.542,19.416,17.3,27.313,17.73c0,0-11.108-20.858-9.4-18.711
		c8.507,10.692,25.654,22.785,38.741,21.778l-11.983-20.359c8.905,8.714,26.425,16.325,38.19,17.292l-16.898-20.713l26.109,17.991
		c0.203-7.052,0.691-13.789-4.033-23.242c-4.076-8.153-4.264-10.261-10.578-17.49l18.766,4.801
		c-6.818-19.311-74.342-26.383-92.922-7.795C124.33,56.896,123.175,73.547,126.562,80.075z"/>
	<path fill-rule="evenodd" fill="#E8BCA8" d="M118.118,100.118c-0.713-0.537-4.986-3.451-6.837-0.613
		c-1.852,2.837,1.494,18.251,3.845,20.858c2.351,2.607,3.845,2.684,4.273-0.154c0.125-0.832,0.041-2.922-0.134-5.456
		c-0.601-0.41-1.291-1.04-1.895-1.833c-1.46-1.917-1.816-3.987-1.104-5.828c0.465-1.201,1.535-1.275,2.243-1.353
		C118.218,102.497,118,100.034,118.118,100.118z"/>
	<path fill-rule="evenodd" fill="#E8BCA8" d="M231.272,100.625c0.713-0.537,4.986-3.451,6.838-0.614s-1.495,18.251-3.846,20.859
		c-2.352,2.607-3.846,2.684-4.273-0.154c-0.125-0.832-0.041-2.922,0.135-5.456c0.601-0.41,1.29-1.04,1.895-1.833
		c1.46-1.917,1.816-3.987,1.104-5.828c-0.465-1.201-1.535-1.276-2.242-1.353C231.173,103.004,231.39,100.541,231.272,100.625z"/>
	<path fill-rule="evenodd" fill="#414142" d="M131.608,298.271c7.475,0,13.535,4.166,13.535,9.305c0,0.697-0.113,1.377-0.325,2.031
		h-26.42c-0.212-0.654-0.325-1.334-0.325-2.031C118.073,302.437,124.133,298.271,131.608,298.271z"/>
	<path fill-rule="evenodd" fill="#414142" d="M219.021,298.271c-7.475,0-13.534,4.166-13.534,9.305c0,0.697,0.112,1.377,0.325,2.031
		h26.42c0.211-0.654,0.324-1.334,0.324-2.031C232.556,302.437,226.495,298.271,219.021,298.271z"/>
	<path fill-rule="evenodd" fill="#EFCABA" d="M105.063,175.508c-1.291-0.078-7.977,7.577-10.489,11.176
		c-0.209,0.3-0.391,0.571-0.536,0.808c-2.75,4.463-5.836,9,1.406,14.594c10.755,8.309,29.203-13.611,38.254-18.886
		c1.767-1.03-4.213-7.968-5.586-9.891c-1.543-2.162-2.956,0.646-7.063,1.581c-8.978,2.045-6.685,7.253-15.014,1.406
		c-0.287-0.201-0.603-0.525-1.095-0.42L105.063,175.508z"/>
	<path fill-rule="evenodd" fill="#E8C0AE" d="M109.842,182.436c0.932,2.078-0.726,11.483-2.65,13.12
		c-0.386,0.328,0.721,0.656,2.578-3.314c0.672-1.434,3.231-10.059,1.553-10.059C110.802,182.183,109.722,182.169,109.842,182.436z"
		/>
	<path fill-rule="evenodd" fill="#F3F3F3" d="M155.382,170.41c-3.384-1.692-21.316-13.725-21.316-13.725l-27.412,19.478
		c0,0,18.611,22.672,19.288,20.979S155.382,170.41,155.382,170.41z"/>
	<g>
		<path fill-rule="evenodd" fill="#E7E7E7" stroke="#CFCFCF" stroke-width="0.216" stroke-miterlimit="2.6131" d="M205.097,213.521
			c0.086-0.129,0.326-0.154,0.413-0.279s0.024-0.352,0.114-0.476c4.342-6.017,10.731-10.173,17.82-11.75
			c0.18-0.039,0.433,0.144,0.612,0.108c0.175-0.036,0.278-0.292,0.454-0.324c4.55-0.838,9.354-0.619,14.066,0.843
			c2.443,0.757,4.716,1.802,6.795,3.089c0.129,0.078,0.196,0.326,0.324,0.407c0.115,0.075,0.641,0.026,0.757,0.104
			c10.801,7.128,15.708,20.828,11.646,33.931c-4.916,15.86-21.629,24.771-37.328,19.905c-15.697-4.867-24.438-21.67-19.521-37.53
			C202.157,218.621,203.466,215.931,205.097,213.521z"/>
		<path fill-rule="evenodd" fill="#414142" d="M217.995,247.306c0,0,0.568,0.242,0.729,0.033c0.161-0.207,0.319-0.512,0.319-0.512
			s-0.011,0.865,0.311,1.384c0.323,0.519,2.098,2.581,4.396,4.612c2.299,2.033,2.931,2.488,3.225,2.578
			c0.293,0.091,0.983,0.563,0.983,0.563s-0.275-0.15-0.461,0.242c-0.187,0.395-0.35,0.504-0.35,0.504s0.002-0.836-0.226-1.035
			c-0.227-0.199-3.393-2.758-4.16-3.51c-0.764-0.752-3.41-3.634-3.814-3.889C218.544,248.024,217.995,247.306,217.995,247.306z"/>
		<path fill-rule="evenodd" fill="#414142" d="M222.815,236.634c0,0,0.453-0.213,0.191-0.617c-0.261-0.4-0.419-0.516-0.419-0.516
			s0.728,0.451,2.571,0.219c1.842-0.234,6.268-1.115,7.623-1.436c1.354-0.319,3.09-0.521,3.783-0.888
			c0.691-0.363,1.305-0.366,1.436-0.165s-0.072,0.234-0.072,0.234s-0.781-0.08-1.012,0.041s-8.844,2.053-10.123,2.236
			c-1.281,0.182-2.883,0.266-3.13,0.543S222.815,236.634,222.815,236.634z"/>
		<path fill-rule="evenodd" fill="#414142" d="M240.827,253.806c-0.105,0.189-0.138-0.146-0.196-0.094
			c-0.174,0.16-0.196-0.092-0.196-0.092s2.109-3.273,3.195-5.738c1.086-2.462,1.715-4.391,1.656-4.828
			c-0.057-0.436-0.111-1.193,0.125-1.023s0.529,0.164,0.571,0.338s-0.985,3.492-1.919,5.359s-2.031,3.748-2.541,4.459
			C241.354,252.423,241.034,253.434,240.827,253.806z"/>
		<path fill-rule="evenodd" fill="#414142" d="M252.763,222.263c0,0,1.166-2.407,1.418-3.746c0.225-1.177,0.276-3.327,0.285-3.826
			c-0.057-0.068-0.065-0.123-0.098-0.203c0,0-0.389-0.717-1.523-2.661c-0.506-0.864-1.743-2.52-3.116-3.863
			c-1.525-1.492-3.552-2.87-3.552-2.87c0.108,0.064,3.327,1.932,5.523,4.609c2.195,2.674,3.217,4.054,3.863,5.188
			c0.647,1.135,0.927,1.994,0.927,1.994s-0.72-1.415-1.407-1.789c-0.148-0.08-0.262-0.145-0.35-0.199
			c0.031,0.567-0.057,2.666-0.318,3.598c-0.308,1.096-1.252,3.828-1.369,3.791C252.929,222.249,252.763,222.263,252.763,222.263z"/>
		<path fill-rule="evenodd" fill="#414142" d="M254.969,235.079c0,0,1.278,0.431,2.007,0.516c0.729,0.086,2.029-0.174,2.029-0.174
			s-0.098,0.146-0.068,0.213c0.029,0.068-1.388,0.318-1.973,0.162c-0.586-0.156-1.83-0.42-1.797-0.525
			C255.202,235.163,254.969,235.079,254.969,235.079z"/>
		<path fill-rule="evenodd" fill="#414142" d="M232.411,209.837c0,0,0.303,0.061,0.453-0.215c0.148-0.275,0.369-0.464,0.369-0.464
			s-0.219,0.704,0.543,1.358c0.763,0.656,2.424,1.943,4.05,3.863c1.626,1.921,4.693,5.832,4.892,6.022
			c0.198,0.192-0.162-0.308-0.301,0.036c-0.138,0.342-0.244,0.374-0.244,0.374s-0.964-1.875-1.523-2.563
			c-0.559-0.689-3.363-4.102-4.693-5.414c-1.331-1.314-2.242-2.113-2.576-2.28S232.411,209.837,232.411,209.837z"/>
		<path fill-rule="evenodd" fill="#414142" d="M213.599,226.084c0,0,0.111-0.255,0.475-0.079c0.363,0.178,0.376,0.343,0.376,0.343
			s-0.075-0.795,0.138-1.791c0.212-0.997,1.008-3.454,1.629-5.256c0.623-1.804,1.9-4.884,2.476-5.702
			c0.577-0.82,1.016-1.198,1.016-1.198s-0.375,0.173-0.544-0.009c-0.17-0.18-0.26-0.305-0.26-0.305s-1.172,2.951-2.354,5.514
			C215.368,220.164,213.599,226.084,213.599,226.084z"/>
		<path fill-rule="evenodd" fill="#414142" d="M202.431,227.707c-0.9-1.615-1.762-3.733-1.762-3.733s1.107,2.242,1.757,3.475
			c0.647,1.23,1.994,2.979,2.218,3.327c0.24,0.37,1.326,0.665,1.406,0.724c0.078,0.055-0.592,0.138-0.646,0.314
			c-0.055,0.176-0.009,1.176-0.075,0.932c-0.139-0.516-0.627-1.534-0.778-1.773C204.485,230.865,203.323,229.308,202.431,227.707z"
			/>
		<path fill-rule="evenodd" fill="#414142" d="M205.509,213.245c0,0,2.616-2.73,3.795-3.523c1.18-0.793,3.583-2.107,4.055-2.38
			c0.471-0.272,1.35-0.515,1.35-0.515l-0.216,0.383l0.339,0.363c0,0-3.412,0.938-5.348,2.301
			C207.547,211.237,205.509,213.245,205.509,213.245z"/>
		<path fill-rule="evenodd" fill="#414142" d="M240.444,202.511c0,0-2.381,0.098-2.73,0.087c-0.35-0.013-2.111-0.044-2.111-0.044
			s0.186,0.025,0.102,0.192s-0.127,0.091-0.127,0.091s1.662-0.064,2.381-0.1c0.721-0.035,2.926-0.092,3.051-0.18
			c0.125-0.092,0.205,0.063,0.205,0.063l-0.286-0.218L240.444,202.511z"/>
		<path fill-rule="evenodd" fill="#414142" d="M207.832,243.005c0.257,1.076,1.54,0.793,1.002,1.793c0,0-0.838-0.334-1.121,0.061
			c-0.282,0.396-0.779,1.787-0.947,2.539c-0.171,0.752-0.116,1.412-0.116,1.412l-0.102-0.192c0,0-0.103-0.706,0.134-1.472
			c0.237-0.763,0.733-2.082,0.799-2.607C207.547,244.011,207.681,243.183,207.832,243.005z"/>
		<path fill-rule="evenodd" fill="#414142" d="M222.471,259.445c0,0,1.101,0.083,1.567,0.034c0.465-0.049,1.347-0.193,1.467-0.061
			c0.118,0.135-0.2,0.228-0.474,0.176c-0.274-0.053-1.218,0.234-2.011,0.052C222.21,259.46,222.471,259.445,222.471,259.445z"/>
		<path fill-rule="evenodd" fill="#414142" d="M205.077,231.49c0.158-0.292,4.287-3.308,6.07-4.214
			c1.781-0.905,2.689-1.611,2.962-1.527c0.274,0.086,3.632,4.344,5.345,6.293c1.715,1.947,3.633,3.785,3.701,3.979
			c0.07,0.193-1.398,3.686-2.357,6.222c-0.957,2.535-1.807,5.275-1.977,5.267c-0.168-0.01-1.488,0.097-5.246-1.068
			c-3.758-1.166-5.328-1.781-5.479-2.128c-0.149-0.347-1.498-2.782-2.031-5.351C205.53,236.394,204.878,231.856,205.077,231.49z"/>
		<path fill-rule="evenodd" fill="#414142" d="M205.116,247.422c0,0,0.933,1.041,1.188,1.152c0.256,0.11,0.41,0.128,0.424,0.292
			c0.014,0.166-0.062,0.305,0.141,0.59c0.199,0.288,1.643,2.033,2.604,2.879c0.96,0.846,1.769,1.697,1.769,1.697
			s-1.174-0.851-2.398-2.021c-0.842-0.806-1.708-1.87-2.227-2.472C205.378,248.104,205.116,247.422,205.116,247.422z"/>
		<path fill-rule="evenodd" fill="#414142" d="M214.492,207.21c0.106-0.111,0.779-1.785,4.576-3.859
			c3.798-2.073,4.659-2.257,4.777-2.222c0.116,0.038,4.647-0.457,7.356,0.254s4.926,1.237,4.793,1.356
			c-0.134,0.121-0.691-0.053-1.329,2.004c-0.636,2.055-1.631,5.158-1.631,5.158s-6.634,0.422-9.687,1.342s-4.033,1.486-4.152,1.352
			c-0.119-0.134-1.807-2.266-2.727-3.355C215.554,208.15,214.397,207.31,214.492,207.21z"/>
		<path fill-rule="evenodd" fill="#414142" d="M237.723,233.402c0.04-0.183,1.536-4.126,2.381-6.537
			c0.843-2.409,1.943-6.477,2.156-6.54c0.212-0.063,2.837-0.021,6.022,0.612c3.184,0.633,4.58,0.904,4.809,1.2
			c0.23,0.297,1.623,5.879,1.967,7.885c0.342,2.004,0.307,4.922,0.216,5.215c-0.091,0.295-3.325,3.67-6.429,5.476
			c-3.103,1.806-3.131,1.797-3.43,1.512C245.117,241.94,237.642,233.763,237.723,233.402z"/>
		<path fill-rule="evenodd" fill="#414142" d="M225.292,259.481c-0.053-0.157,0.639-0.606,1.061-1.346
			c0.421-0.737,0.877-2.205,1.255-2.28c0.378-0.077,4.984-0.193,6.495-0.497c1.51-0.305,5.734-1.474,6.014-1.645
			c0.277-0.171,0.479-0.303,0.66-0.054c0.18,0.25,1.251,1.259,1.902,1.652c0.648,0.396,1.816,0.886,1.779,1.003
			c-0.036,0.119-4.982,2.993-9.636,3.676c-4.653,0.682-7.372,0.417-8.03,0.148C226.136,259.873,225.375,259.733,225.292,259.481z"/>
	</g>
	<path fill-rule="evenodd" fill="#EFCABA" d="M249.446,224.303c-2.557-16.638-3.947-28.907-10.143-37.438
		c-6.243-8.596-14.727-13.376-20.445-17.197l-5.061,7.68c18.258,12.2,22.258,27.28,25.497,48.364L249.446,224.303z"/>
	<path fill-rule="evenodd" fill="#F3F3F3" d="M197.007,180.394c3.383-1.692,12.186-23.979,12.186-23.979l30.451,25.333
		c0,0-20.979,19.118-21.656,17.426C217.31,197.481,197.007,180.394,197.007,180.394z"/>
	<path fill-rule="evenodd" fill="#EFCABA" d="M242.556,220.358c-1.598,0.155-9.263,5.496-13.005,7.657
		c-3.743,2.161-2.569,3.938-0.146,4.237c2.421,0.301,7.683-3.09,8.019-2.129c0.334,0.963-4.267,10.742-5.656,14.718
		c-1.389,3.976,1.859,4.399,3.168,2.127c1.31-2.272,3.441-10.037,5.143-9.278c1.701,0.758-3.729,12.302-1.61,13.963
		c2.118,1.66,2.458-0.006,3.741-3.867c1.281-3.859,1.59-8.681,2.683-8.475c1.073,0.204,0.7,5.526,1.506,8.975
		c1.213,5.196,3.716,3.688,3.118-1.063c-0.38-3.024-1.09-8.577-0.523-8.841c0.621-0.29,3.301,2.531,3.414,4.787
		c0.232,4.602,4.176,2.498,1.852-4.066c-1.131-3.19-3.744-6.266-3.746-8.537C250.505,225.773,250.026,220.222,242.556,220.358z"/>
	<path fill-rule="evenodd" fill="#EFCABA" d="M113.17,158.205c-2.809-6.122-1.365-5.948-2.821-11.498
		c-1.574-6.003-7.667-2.936-5.837,5.753c0.625,2.962,1.385,4.663-0.783,10.081c-1.743,4.357,1.725,22.738,6.572,18.711
		C114.503,177.761,117.35,167.313,113.17,158.205z"/>
	<path fill-rule="evenodd" fill="#FBD3C1" d="M94.339,161.046c5.116-1.717,13.595-5.551,18.231-1.385
		c2.303,2.068-0.138,3.38,0.019,4.904c0.077,0.753,1.444-0.313,2.172,2.998c0.729,3.314-1.396,3.374-0.778,3.829
		c3.106,2.289,0.625,6.037-0.334,6.787c-0.421,0.33,0.774,0.082,1.181,1.85c0.811,3.522-6.898,5.808-9.766,5.921
		c-6.725,0.267-9.622,1.269-12.441-6.872C87.579,164.512,92.838,162.803,94.339,161.046z"/>
	<path fill-rule="evenodd" fill="#EDC6B5" d="M111.088,158.651c0.526,0.265,1.023,0.598,1.481,1.009
		c2.303,2.068-0.138,3.38,0.019,4.904c0.078,0.754,1.445-0.313,2.173,2.999c0.729,3.313-1.396,3.373-0.778,3.828
		c3.106,2.289,0.625,6.037-0.334,6.787c-0.421,0.33,0.774,0.082,1.181,1.85c0.66,2.867-4.325,4.914-7.75,5.639
		c2.921-1.557,6.275-3.367,6.516-3.607c0.432-0.433,0.864-1.771-0.13-2.592c-0.993-0.82-13.043,1.512-13.043,1.512
		s11.444-2.721,11.661-2.852c0.216-0.129,1.468-0.69,2.159-2.115c0.691-1.426,0.691-2.203-0.432-3.499
		c-1.124-1.296-14.901,1.987-14.901,1.987s13.518-3.413,13.734-3.456s1.425-1.167,1.555-2.332c0.129-1.166-1.209-2.851-2.678-3.24
		s-13.951,1.944-14.167,1.987s13.827-2.362,14.901-4.621C113.331,160.58,111.524,159.197,111.088,158.651z"/>
	<path fill-rule="evenodd" fill="#D4C1C0" d="M144.818,309.606c0.212-0.654,0.325-1.334,0.325-2.031
		c0-0.233-0.013-0.465-0.038-0.695H118.11c-0.024,0.23-0.037,0.462-0.037,0.695c0,0.697,0.113,1.377,0.325,2.031H144.818z"/>
	<path fill-rule="evenodd" fill="#D4C1C0" d="M205.486,307.575c0,0.697,0.112,1.377,0.325,2.031h26.42
		c0.211-0.654,0.324-1.334,0.324-2.031c0-0.233-0.013-0.465-0.037-0.695h-26.994C205.499,307.11,205.486,307.342,205.486,307.575z"
		/>
	<g>
		<path fill-rule="evenodd" fill="#80151E" d="M162.354,133.983c-0.126,1.589,4.54,8.596,11.929,8.608
			c7.389-0.012,12.034-7.386,11.928-8.608H162.354z"/>
		<path fill-rule="evenodd" fill="#E8BCA8" d="M174.796,124.581c1.848,0,3.347-1.27,3.347-2.837l-0.002-0.077h-6.69l-0.001,0.077
			C171.449,123.311,172.948,124.581,174.796,124.581z"/>
		<path fill-rule="evenodd" fill="#E8BCA8" d="M174.121,144.604c-2.008,0.04-4.103,0.09-4.103,0.09s0.778,1.253,3.456,1.512
			c0.224,0.022,0.44,0.028,0.647,0.022c0.208,0.006,0.424,0,0.647-0.022c2.677-0.259,3.456-1.512,3.456-1.512
			S176.128,144.644,174.121,144.604z"/>
		<path fill-rule="evenodd" fill="#E8BCA8" d="M174.284,141.317c-5.936-0.01-10.826-4.869-11.883-7.334h-0.046
			c-1.228,1.07,4.519,9.006,11.908,9.019c7.389-0.012,13.178-7.948,11.95-9.019h-0.046
			C185.108,136.449,180.22,141.308,174.284,141.317z"/>
	</g>
	<g>
		<g>
			<path fill-rule="evenodd" fill="#8D633A" d="M154.644,103.722c-2.848-2.671-15.63-2.957-19.257,0.011
				c-2.835,1.466-5.934-2.088-3.426-4.187c2.862-2.342,7.434-3.396,11.846-3.362c4.696,0.039,12.073,1.293,14.537,3.604
				C160.682,101.613,157.171,106.352,154.644,103.722z"/>
			<path fill-rule="evenodd" fill="#8D633A" d="M214.327,103.722c-2.848-2.671-15.631-2.957-19.258,0.01
				c-2.834,1.466-5.934-2.087-3.426-4.186c2.863-2.342,7.434-3.397,11.846-3.362c4.697,0.039,12.073,1.293,14.537,3.604
				C220.364,101.613,216.854,106.352,214.327,103.722z"/>
		</g>
		<g>
			<g>
				<path fill-rule="evenodd" fill="#414142" d="M145.076,112.837c1.687,0,3.062-1.55,3.062-3.451s-1.375-3.451-3.062-3.451
					s-3.063,1.55-3.063,3.451S143.389,112.837,145.076,112.837z"/>
				<circle fill-rule="evenodd" fill="#FFFFFF" cx="146.354" cy="108.114" r="1.166"/>
			</g>
			<g>
				<path fill-rule="evenodd" fill="#414142" d="M204.759,112.837c1.687,0,3.063-1.55,3.063-3.451s-1.376-3.451-3.063-3.451
					s-3.063,1.55-3.063,3.451S203.072,112.837,204.759,112.837z"/>
				<circle fill-rule="evenodd" fill="#FFFFFF" cx="206.155" cy="108.114" r="1.166"/>
			</g>
		</g>
	</g>
</g>
</svg>
