<?xml version="1.0" encoding="utf-8"?>
<!-- Generator: Adobe Illustrator 16.0.0, SVG Export Plug-In . SVG Version: 6.00 Build 0)  -->
<!DOCTYPE svg PUBLIC "-//W3C//DTD SVG 1.1 Tiny//EN" "http://www.w3.org/Graphics/SVG/1.1/DTD/svg11-tiny.dtd">
<svg version="1.1" baseProfile="tiny" id="Layer_1" xmlns="http://www.w3.org/2000/svg" xmlns:xlink="http://www.w3.org/1999/xlink"
	 x="0px" y="0px" width="350px" height="350px" viewBox="0 0 350 350" overflow="scroll" xml:space="preserve">
<g>
	<path fill-rule="evenodd" fill="#6B3A16" d="M217.933,80.739c9.837,3.512,30.904,12.363,31.126,12.696
		c0.221,0.333,10.255,3.203,22.775,14.37c12.521,11.166,1.354,22.671-12.521,25.04c-13.873,2.369-59.895-26.056-59.895-26.056
		L217.933,80.739z"/>
	<path fill-rule="evenodd" fill="#FBD3C1" d="M230.888,181.953c12.18,11.619,19.678,23.498,23.129,33.462
		c3.477,10.039,2.541,19.73,2.402,26.607l-9.195-0.245c0.444-21.954-7.865-37.582-23.301-52.306L230.888,181.953z"/>
	<path fill-rule="evenodd" fill="#FBD3C1" d="M227.075,246.867c0.621,18.192,9.471,48.924,6.91,61.895h-8.546
		c-7.577-9.912-0.89-43.573-35.886-45.242s-28.058,34.885-36.684,45.242h-8.947c-2.041-12.98,0.25-43.775,0.874-62.002
		C164.917,246.813,204.682,246.947,227.075,246.867z"/>
	<path fill-rule="evenodd" fill="#44535B" d="M148.352,236.2c-1.015,7.107-15.466,70.786-15.466,70.786l26.776,3.171l25.085-40.059
		l4.875-0.067v-27.64h44.418c0.043-1.2,0.213-1.888,0.544-1.904C237.528,240.335,148.352,236.2,148.352,236.2z"/>
	<path fill-rule="evenodd" fill="#1A2836" d="M148.352,236.2c-1.015,7.107-15.466,70.786-15.466,70.786l26.776,3.171l25.085-40.059
		l3.521-0.049l3.523,0.049l25.084,40.059l26.775-3.171c0,0-14.451-63.679-15.466-70.786c0,0-19.472,0.902-39.917,1.881
		C167.823,237.103,148.352,236.2,148.352,236.2z"/>
	<path fill-rule="evenodd" fill="#B83157" d="M223.505,159.745c2.832,8.093,7.791,49.251,14.51,91.846
		c-23.873,0.084-74.781-0.718-96.231-0.774c9.769-46.98,9.406-82.23,12.237-90.316l6.187-1.062l29.306-1.647L223.505,159.745z"/>
	<path fill-rule="evenodd" fill="#FBD3C1" d="M181.858,148.895h15.396c0,4.286,0,8.572,0,12.858c-0.166,3.676-15.285,4.051-15.396,0
		V148.895z"/>
	<path fill-rule="evenodd" fill="#EFC9B8" d="M181.856,148.563h15.396v5.666c-2.289,0.456-4.911,0.715-7.699,0.715
		c-2.787,0-5.409-0.259-7.697-0.715V148.563z"/>
	<path fill-rule="evenodd" fill="#FBD3C1" d="M134.276,100.032c1.17-3.988,0.269-12.347,1.829-15.867
		c10.629-23.987,32.006-32.477,51.407-33.768c0.683,0.046,1.364,0.106,2.045,0.182c0.682-0.075,1.362-0.136,2.045-0.182
		c19.399,1.291,40.777,9.78,51.405,33.768c1.561,3.521,0.659,11.879,1.83,15.867c18.174-12.222,16.042,35.604-2.396,29.979
		c1.133,15.942-25.869,23.36-52.884,23.172c-27.015,0.188-54.017-7.229-52.885-23.172
		C118.234,135.636,116.102,87.811,134.276,100.032z"/>
	<path fill-rule="evenodd" fill="#F9A15C" d="M132.755,93.322c0,0,0.365,3.185,0.87,7.381c0.979,8.121,1.992,11.247,2.466,11.247
		c0.719,0,3.022,0.919,3.022,0.152c0-0.766,2.377-21.415,3.384-25.097c1.007-3.681,5.754-14.417,13.81-17.484
		c3.839-1.462,18.334-2.365,32.736-2.778c14.4,0.413,28.895,1.316,32.734,2.778c8.056,3.067,12.803,13.804,13.81,17.484
		c1.007,3.682,3.046,23.652,3.046,24.42c0,0.767,2.303-0.153,3.021-0.153s3.674-17.95,3.674-17.95
		c2.088-11.79,1.357-17.298-4.342-24.976C219.576,39.503,127.867,41.936,132.755,93.322z"/>
	<path fill-rule="evenodd" fill="#E8BCA8" d="M132.756,103.467c-0.712-0.537-4.985-3.451-6.836-0.613
		c-1.852,2.837,1.494,18.251,3.845,20.858c2.351,2.606,3.845,2.684,4.273-0.154c0.125-0.832,0.041-2.922-0.134-5.455
		c-0.601-0.41-1.291-1.04-1.895-1.834c-1.46-1.917-1.816-3.986-1.104-5.827c0.465-1.201,1.535-1.276,2.243-1.354
		C132.856,105.846,132.638,103.384,132.756,103.467z"/>
	<path fill-rule="evenodd" fill="#E8BCA8" d="M245.913,103.974c0.712-0.537,4.984-3.45,6.836-0.613s-1.494,18.251-3.846,20.858
		c-2.35,2.607-3.844,2.684-4.272-0.153c-0.125-0.832-0.04-2.923,0.135-5.456c0.601-0.41,1.29-1.039,1.895-1.833
		c1.46-1.917,1.815-3.987,1.103-5.828c-0.465-1.2-1.534-1.275-2.242-1.353C245.813,106.353,246.03,103.891,245.913,103.974z"/>
	<path fill-rule="evenodd" fill="#4D586C" d="M145.231,301.788c7.475,0,13.535,4.166,13.535,9.305c0,0.698-0.113,1.377-0.325,2.03
		h-26.42c-0.212-0.653-0.325-1.332-0.325-2.03C131.697,305.954,137.756,301.788,145.231,301.788z"/>
	<path fill-rule="evenodd" fill="#4D586C" d="M230.784,301.788c-7.475,0-13.535,4.166-13.535,9.306c0,0.697,0.113,1.376,0.326,2.029
		h26.42c0.211-0.653,0.324-1.332,0.324-2.029C244.319,305.954,238.259,301.788,230.784,301.788z"/>
	<path fill-rule="evenodd" fill="#A21C37" d="M153.02,198.599c0.172-3.968,8.16-39.176,8.16-39.176l-6.914,1.785l-22.689,21.378
		c-6.132,5.093,9.45,27.289,9.45,27.289L153.02,198.599z"/>
	<path fill-rule="evenodd" fill="#B83157" d="M207.247,173.76c3.385-1.692,16.258-14.015,16.258-14.015s20.164,24.344,26.379,36.517
		c-6.26,8.291-24.194,16.073-24.871,14.381C224.335,208.951,207.247,173.76,207.247,173.76z"/>
	<path fill-rule="evenodd" fill="#FBD3C1" d="M248.79,239.194c-3.035,2.386-8.932,6.04-9.121,10.508
		c-0.188,4.384,5.492,1.049,3.518,3.511c-1.75,2.182,0.919,5.445,3.546,6.026c4.12,0.913,6.087,1.817,8.495-2.383
		c2.371-4.137,3.27-12.203,0.926-16.372c-0.373-0.662-5.645-1.817-7.186-1.307L248.79,239.194z"/>
	<g>
		<path fill-rule="evenodd" fill="#414142" d="M81.338,275.862l0.429,9.203c0,0,7.99,0.642,8.704,4.494l0.356-18.335
			C90.827,271.225,85.333,276.647,81.338,275.862z"/>
		<circle fill-rule="evenodd" fill="#D1D2D3" cx="79.003" cy="280.726" r="6.278"/>
		<g>
			<image width="21" height="21" xlink:href="2EBC5794.png"  transform="matrix(0.24 0 0 0.24 76.5063 278.2285)">
			</image>
		</g>
		<path fill-rule="evenodd" fill="#414142" d="M81.338,183.893l0.429,9.203c0,0,7.99,0.642,8.704,4.494l0.356-18.335
			C90.827,179.255,85.333,184.677,81.338,183.893z"/>
		<circle fill-rule="evenodd" fill="#D1D2D3" cx="79.423" cy="189.008" r="6.278"/>
		<g>
			<image width="21" height="21" xlink:href="2EBC5795.png"  transform="matrix(0.24 0 0 0.24 76.9263 186.5107)">
			</image>
		</g>
		<path fill-rule="evenodd" fill="#A25742" d="M99.995,310.927c0,0-2.141,1.498-3.532-0.856c0,0-6.527-14.661-6.207-21.402V178.659
			c0,0,2.89-19.263,7.705-21.725c0,0,1.82-0.428,1.927,1.07l-6.635,19.798l0.535,110.544L99.995,310.927z"/>
		<path fill-rule="evenodd" fill="#F48220" d="M92.932,181.228v102.304c0,0,1,25.005,7.063,27.396c0,0,2.14,0.214-0.25-5.957
			c0,0-3.602-14.804-3.709-21.117l-0.428-102.625c0,0,2.247-11.665,3.638-15.303c0,0,2.354-7.92,0.428-8.454
			c0,0-2.355,0.855-5.458,13.59C94.216,171.061,93.253,174.057,92.932,181.228z"/>
	</g>
	<path fill-rule="evenodd" fill="#FBD3C1" d="M98.492,151.598c-4.061,0.508-7.275,1.523-8.459,7.275s2.18,8.842,2.18,8.842
		s1.489-6.999,3.488-7.234c1.999-0.236,3.797,2.446,3.797,2.446s-3.606,1.369-3.882,4.575c-0.275,3.207,1.196,3.194,2.106,2.281
		c0.91-0.913,4.183-3.494,4.183-3.494s1.595,7.362,4.979,5.5c3.384-1.86,5.259-4.08,2.891-11.017
		C107.406,153.835,98.492,151.598,98.492,151.598z"/>
	<path fill-rule="evenodd" fill="#FBD3C1" d="M105.128,173.251c1.185,4.146,18.651,25.619,23.161,26.771
		c4.51,1.153,19.356-11.243,19.356-11.243l-6.925-14.809l-11.524,11.046l-19.765-21.225L105.128,173.251z"/>
	<path fill-rule="evenodd" fill="#B83157" d="M130.756,183.523c1.521-0.846,10.493,16.648,10.271,26.351
		c0,0,2.485-1.826,4.391-2.993c4.911-3.005,12.295-7.367,12.295-7.367s11.197-35.545,6.851-39.245
		c-1.574-1.341-9.032-1.077-11.689,0.901c-8.278,6.16-14.975,13.505-21.647,21.038C130.78,182.714,130.6,183.203,130.756,183.523z"
		/>
	<path fill-rule="evenodd" fill="#8E4C21" d="M248.991,93.769c-3.326-2.465-30.889-14.449-63.277-23.01
		c-32.39-8.561-45.708-2.447-45.708-2.447s0.363-10.072,2.394-11.765s-0.338-3.384,7.783-10.828
		c8.121-7.444,6.615-8.077,36.547-8.798c29.93-0.721,41.494,7.488,52.449,16.919c10.955,9.432,12.989,24.051,12.989,24.051
		L248.991,93.769z"/>
	<path fill-rule="evenodd" fill="#414142" d="M167.656,64.99c1.679-4.946,9.59-18.92,3.076-21.614
		c-4.906-2.03-11.908-1.638-16.359,1.211c-4.451,2.85-11.694,19.993-10.88,20.784C144.305,66.163,167.656,64.99,167.656,64.99z"/>
	<path fill-rule="evenodd" fill="#F9A15C" d="M162.951,62.491l7.181-3.461l2.249-6.071c0,0-0.802-2.313-11.123-6.203
		c-10.321-3.892-14.381-3.046-14.381-3.046s10.998,5.415,10.151,4.907c-0.845-0.508-5.239-1.342-12.39,1.358
		c-7.152,2.7-9.606,5.729-9.606,5.729l7.698-0.833c0.153-0.034,0.274-0.05,0.361-0.056c-0.24,0.012-0.709,0.075-1.231,0.352
		c-0.576,0.251-1.333,0.676-2.278,1.397c-2.496,1.902-4.484,4.948-4.315,4.736c0.105-0.131,2.351-0.621,4.177-0.994
		c-0.188,2.747,0.549,4.952,0.886,3.718C140.75,62.478,162.951,62.491,162.951,62.491z"/>
	<path fill-rule="evenodd" fill="#8E4C21" d="M141.083,60.687c3.105-1.098,8.724-3.723,19.043-2.814
		c12.678,1.116,16.895,2.047,17.078,5.686c0.184,3.638-4.606,3.908-4.606,3.908s-32.034,4.138-33.678,2.229
		C137.823,68.424,137.645,61.903,141.083,60.687z"/>
	<path fill-rule="evenodd" fill="#C0C097" d="M192.216,209.628c-0.346,2.531-1.205,6.148-4.266,9.114
		c-4.157,4.026-7.405-0.26-10.913-0.39s-3.508,5.326-3.508,5.326s-0.81-2.601-0.291-4.81c0.432-1.833,2.475-2.614,4.272-2.809
		c-0.886-0.466-1.514-1.259-1.739-2.451c-0.455-2.403-2.468-5.651-4.742-5.847c-2.273-0.194-3.996,3.055-3.996,3.055
		s1.169-7.015,6.496-4.677c5.327,2.339,1.689,9.094,8.185,7.795c3.92-0.784,5.711-3.177,6.6-5.606
		c-0.097-0.048-0.193-0.096-0.288-0.146c-3.736,2.235-8.519,3.592-9.818-1.978c-0.455-1.949-0.953-5.449-3.032-6.684
		c-2.079-1.234-5.543,0.123-5.543,0.123s2.696-3.507,6.983-1.818c4.286,1.689,1.819,7.372,4.612,9.224
		c1.961,1.3,3.297,0.46,4.346-0.609c-2.177-2.039-3.566-3.631-3.537-8.157c0.085-13.843,20.446-13.874,20.359,0
		c-0.029,4.526-1.361,6.118-3.539,8.157c1.05,1.069,2.386,1.909,4.348,0.609c2.792-1.852,0.324-7.534,4.611-9.224
		c4.287-1.688,6.982,1.818,6.982,1.818s-3.464-1.357-5.543-0.123c-2.078,1.234-2.576,4.734-3.031,6.684
		c-1.301,5.569-6.082,4.213-9.818,1.978c-0.096,0.051-0.191,0.099-0.289,0.146c0.891,2.43,2.681,4.822,6.6,5.606
		c6.496,1.299,2.858-5.456,8.186-7.795c5.326-2.338,6.495,4.677,6.495,4.677s-1.722-3.249-3.995-3.055
		c-2.273,0.195-4.287,3.443-4.742,5.847c-0.227,1.192-0.854,1.985-1.74,2.451c1.797,0.194,3.841,0.976,4.271,2.809
		c0.52,2.209-0.289,4.81-0.289,4.81s0-5.456-3.508-5.326s-6.756,4.416-10.913,0.39C193.419,215.776,192.56,212.159,192.216,209.628
		L192.216,209.628z M196.57,213.928c0.87,1.895,2.217,3.317,3.546,3.317c1.032,0,2.117-0.387,3.219-0.728
		C201.161,216.255,198.677,215.274,196.57,213.928L196.57,213.928z M187.86,213.928c-2.107,1.347-4.59,2.327-6.764,2.59
		c1.102,0.341,2.186,0.728,3.218,0.728C185.644,217.245,186.991,215.822,187.86,213.928z"/>
	<circle fill-rule="evenodd" fill="#8E1833" cx="186.991" cy="194.905" r="1.879"/>
	<path fill-rule="evenodd" fill="#8E1833" d="M197.529,196.784c1.035,0,1.879-0.844,1.879-1.879s-0.844-1.879-1.879-1.879
		c-1.034,0-1.879,0.844-1.879,1.879S196.495,196.784,197.529,196.784z"/>
	<g>
		<path fill-rule="evenodd" fill="#80151E" d="M177.627,137.22c-0.126,1.589,4.54,8.596,11.93,8.608
			c7.39-0.013,12.034-7.387,11.929-8.608H177.627z"/>
		<path fill-rule="evenodd" fill="#E8BCA8" d="M190.069,127.817c1.848,0,3.347-1.27,3.347-2.837l-0.001-0.076h-6.691l-0.002,0.076
			C186.722,126.548,188.221,127.817,190.069,127.817z"/>
		<path fill-rule="evenodd" fill="#E8BCA8" d="M189.394,147.841c-2.008,0.04-4.104,0.09-4.104,0.09s0.778,1.253,3.456,1.512
			c0.224,0.021,0.44,0.028,0.647,0.021c0.207,0.007,0.424,0,0.648-0.021c2.677-0.259,3.455-1.512,3.455-1.512
			S191.401,147.881,189.394,147.841z"/>
		<path fill-rule="evenodd" fill="#E8BCA8" d="M189.557,144.554c-5.937-0.01-10.826-4.868-11.883-7.334h-0.047
			c-1.228,1.07,4.519,9.007,11.908,9.019c7.39-0.012,13.179-7.948,11.95-9.019h-0.046
			C200.383,139.686,195.493,144.544,189.557,144.554z"/>
	</g>
	<g>
		<g>
			<path fill-rule="evenodd" fill="#F9A15C" d="M169.283,110.775c-2.848-2.671-15.63-2.956-19.257,0.011
				c-2.835,1.466-5.934-2.088-3.426-4.187c2.862-2.342,7.434-3.396,11.846-3.361c4.696,0.038,12.073,1.293,14.537,3.604
				C175.321,108.667,171.81,113.406,169.283,110.775z"/>
			<path fill-rule="evenodd" fill="#F9A15C" d="M228.967,110.775c-2.848-2.671-15.63-2.956-19.257,0.011
				c-2.834,1.466-5.934-2.088-3.426-4.187c2.862-2.342,7.434-3.396,11.846-3.361c4.696,0.038,12.072,1.293,14.537,3.604
				C235.005,108.667,231.495,113.406,228.967,110.775z"/>
		</g>
		<g>
			<g>
				<path fill-rule="evenodd" fill="#414142" d="M159.715,119.891c1.687,0,3.062-1.551,3.062-3.451s-1.375-3.45-3.062-3.45
					s-3.063,1.55-3.063,3.45S158.028,119.891,159.715,119.891z"/>
				<circle fill-rule="evenodd" fill="#FFFFFF" cx="160.993" cy="115.167" r="1.166"/>
			</g>
			<g>
				<path fill-rule="evenodd" fill="#414142" d="M219.399,119.891c1.686,0,3.062-1.55,3.062-3.451c0-1.9-1.376-3.45-3.062-3.45
					c-1.688,0-3.063,1.55-3.063,3.45C216.337,118.341,217.712,119.891,219.399,119.891z"/>
				<circle fill-rule="evenodd" fill="#FFFFFF" cx="220.796" cy="115.167" r="1.166"/>
			</g>
		</g>
	</g>
	<path fill-rule="evenodd" fill="#2A2315" d="M258.144,242.652c-0.345-0.604-0.355-6.637-0.949-6.651
		c-0.594-0.014-11.575,0.26-11.575,0.26l-1.253,6.34l-3.123,3.184c0,0,2.994,2.311,2.82,3.692c-0.172,1.382-0.877,3.736-0.877,3.736
		s10.217,6.398,11.129,5.021c0.912-1.378,3.483-3.229,4.002-8.239C258.835,244.984,258.144,242.652,258.144,242.652z"/>
	<path fill-rule="evenodd" fill="#FBD3C1" d="M158.441,313.123c0.212-0.653,0.325-1.332,0.325-2.03c0-0.332-0.025-0.661-0.075-0.984
		h-26.92c-0.049,0.323-0.075,0.652-0.075,0.984c0,0.698,0.113,1.377,0.325,2.03H158.441z"/>
	<path fill-rule="evenodd" fill="#FBD3C1" d="M217.249,311.094c0,0.697,0.113,1.376,0.326,2.029h26.42
		c0.211-0.653,0.324-1.332,0.324-2.029c0-0.333-0.025-0.662-0.074-0.985l-26.92-0.005
		C217.275,310.429,217.249,310.759,217.249,311.094z"/>
	<path fill-rule="evenodd" fill="#2A2315" d="M100.3,168.83c-0.618-0.75-3.383-4.134-3.383-4.134l1.458-2.181
		c0,0-1.747-0.553-2.178-0.726s-1.254-0.899-1.254-0.899s0.678-9.2,0.736-8.991c0.058,0.208,2.516,0.089,2.813-0.302
		c0.297-0.39,5.826,1.511,8.115,3.454s5.485,10.884,5.485,10.884l2.809,2.678c0,0-9.545,6.651-9.588,6.393s-2.073-3.974-2.203-4.233
		c-0.129-0.259-1.252-2.505-1.252-2.505L100.3,168.83z"/>
	<path fill-rule="evenodd" fill="#FBD3C1" d="M175.07,158.603l11.742-0.994l17.826,0.991c2.379,1.601,3.791,3.599,3.791,5.768
		c0,5.257-8.296,9.519-18.529,9.519s-18.53-5.84-18.53-9.519S172.826,160.177,175.07,158.603z"/>
</g>
</svg>
