<?xml version="1.0" encoding="utf-8"?>
<!-- Generator: Adobe Illustrator 16.0.0, SVG Export Plug-In . SVG Version: 6.00 Build 0)  -->
<!DOCTYPE svg PUBLIC "-//W3C//DTD SVG 1.1//EN" "http://www.w3.org/Graphics/SVG/1.1/DTD/svg11.dtd">
<svg version="1.1" id="Layer_1" xmlns="http://www.w3.org/2000/svg" xmlns:xlink="http://www.w3.org/1999/xlink" x="0px" y="0px"
	 width="350px" height="350px" viewBox="0 0 350 350" enable-background="new 0 0 350 350" xml:space="preserve">
<g>
	<g>
		<g>
			<path d="M277.311,153.464c-1.824-13.735-8.31-26.387-18.503-35.948c-11.176-10.484-25.775-16.258-41.109-16.258
				c-2.371,0-4.816,0.166-7.413,0.506c-11.701-8.932-26.121-13.823-40.898-13.823c-15.812,0-31.083,5.585-43.233,15.77
				c-18.091,1.275-35.259,8.74-48.537,21.146c-13.286,12.413-21.901,29.024-24.382,46.939c-6.812,8.434-10.543,18.93-10.543,29.757
				c0,25.433,20.21,46.319,45.417,47.381c12.995,8.592,28.049,13.125,43.651,13.125c19.621,0,38.323-7.202,52.929-20.326h49.97
				c7.234,3.966,15.338,6.054,23.541,6.054c27.08,0,49.109-22.03,49.109-49.108C307.309,178.81,295.402,161.092,277.311,153.464z
				 M258.201,236.195c-6.669,0-13.258-1.814-19.056-5.247c-0.894-0.529-1.914-0.809-2.953-0.809h-43.539
				c1.23-3.181,1.881-6.59,1.881-10.1c0-7.476-2.914-14.506-8.205-19.797c-2.151-2.149-5.638-2.149-7.788,0
				c-2.15,2.15-2.15,5.638,0,7.787c3.211,3.211,4.98,7.476,4.98,12.01c0,3.999-1.379,7.789-3.908,10.832
				c-0.43,0.237-0.832,0.524-1.191,0.868c-12.678,12.076-29.25,18.728-46.663,18.728c-13.82,0-27.136-4.168-38.509-12.051
				c-0.155-0.107-0.316-0.203-0.479-0.295c-7.52-8.673-7.166-21.851,1.075-30.091c2.15-2.149,2.15-5.637,0-7.787
				c-2.151-2.149-5.637-2.149-7.788,0c-9.502,9.502-12.001,23.387-7.518,35.204c-14.086-4.836-24.256-18.217-24.256-33.895
				c0-8.629,3.144-16.982,8.853-23.525c0.771-0.883,1.255-1.979,1.39-3.145c1.833-15.855,9.292-30.613,21.003-41.554
				c8.938-8.351,19.939-14.075,31.763-16.659c-1.399,3.636-2.14,7.533-2.14,11.543c0,8.578,3.345,16.647,9.417,22.719
				c1.075,1.075,2.484,1.613,3.894,1.613c1.41,0,2.818-0.538,3.894-1.613c2.151-2.15,2.151-5.637,0-7.788
				c-3.993-3.993-6.191-9.296-6.191-14.932c0-5.114,1.816-9.952,5.135-13.787c0.357-0.202,0.697-0.438,1.007-0.714
				c10.264-9.143,23.432-14.178,37.079-14.178c9.854,0,19.511,2.632,27.959,7.515c-7.177,5.126-11.39,13.934-10.197,23.278
				c0.355,2.781,2.725,4.81,5.456,4.81c0.231,0,0.468-0.015,0.704-0.045c3.017-0.385,5.15-3.144,4.766-6.159
				c-0.959-7.503,4.366-14.388,11.87-15.346c0.281-0.037,0.553-0.1,0.818-0.176c2.486-0.37,4.774-0.562,6.936-0.562
				c22.978,0,42.584,16.26,47.41,38.132c-11.299-0.047-21.997,6.794-26.283,17.952c-1.092,2.839,0.326,6.024,3.166,7.115
				c0.648,0.249,1.316,0.367,1.973,0.367c2.214,0,4.3-1.344,5.142-3.534c3.053-7.945,11.461-12.286,19.532-10.49
				c0.438,0.3,0.917,0.548,1.437,0.722c15.338,5.12,25.643,19.412,25.643,35.563C295.716,219.365,278.887,236.195,258.201,236.195z"
				/>
		</g>
	</g>
	<g>
		<g>
			<path d="M269.525,191.27c-11.218,0-20.346,9.128-20.346,20.348c0,3.041,2.465,5.506,5.507,5.506c3.04,0,5.506-2.466,5.506-5.506
				c0-5.147,4.187-9.334,9.333-9.334c3.042,0,5.507-2.465,5.507-5.507C275.032,193.736,272.567,191.27,269.525,191.27z"/>
		</g>
	</g>
	<g>
		<g>
			<path d="M142.732,184.671c-13.324,0-24.164,10.839-24.164,24.163c0,3.041,2.465,5.506,5.506,5.506
				c3.042,0,5.506-2.465,5.506-5.506c0-7.251,5.899-13.15,13.15-13.15c3.042,0,5.507-2.466,5.507-5.507
				C148.239,187.135,145.773,184.671,142.732,184.671z"/>
		</g>
	</g>
	<g>
		<g>
			<path d="M208.559,166.98c-6.516-14.505-23.618-21.005-38.123-14.489c-2.775,1.245-4.013,4.505-2.767,7.279
				c1.246,2.773,4.504,4.013,7.28,2.767c8.966-4.025,19.538-0.01,23.564,8.956c0.917,2.042,2.924,3.251,5.026,3.251
				c0.755,0,1.521-0.156,2.254-0.484C208.566,173.013,209.806,169.754,208.559,166.98z"/>
		</g>
	</g>
</g>
</svg>
