<?xml version="1.0" encoding="utf-8"?>
<!-- Generator: Adobe Illustrator 16.0.0, SVG Export Plug-In . SVG Version: 6.00 Build 0)  -->
<!DOCTYPE svg PUBLIC "-//W3C//DTD SVG 1.1//EN" "http://www.w3.org/Graphics/SVG/1.1/DTD/svg11.dtd">
<svg version="1.1" id="Layer_1" xmlns="http://www.w3.org/2000/svg" xmlns:xlink="http://www.w3.org/1999/xlink" x="0px" y="0px"
	 width="350px" height="350px" viewBox="0 0 350 350" enable-background="new 0 0 350 350" xml:space="preserve">
<path fill="#BBBBBB" d="M296.61,155.532c-0.854-0.307-1.496-0.005-1.886,0.53c-1.296-1.245-3.304-2.132-4.68-2.859
	c-1.614-0.852-3.378-1.696-5.167-2.315c0.656-0.706,1.298-1.417,1.898-2.145c1.12-1.355,0.789-3.448-1.05-3.978
	c-10.93-3.148-20.883-4.83-30.449-1.632c-0.094-0.239-0.239-0.465-0.481-0.64c-4.977-3.598-12.104-4.253-18.545-4.813
	c0.26-0.212,0.526-0.428,0.784-0.639c0.626-0.129,1.053-0.526,1.282-1.05c0.238-0.195,0.485-0.396,0.72-0.59
	c0.822-0.678,0.042-1.703-0.813-1.696c-0.351-0.714-1.007-1.294-1.974-1.422c-19.453-2.572-37.955-5.639-53.323,8.737
	c-1.834,1.715-3.613,3.486-5.367,5.285c0.586-1.134,0.3-2.868-1.241-3.512c-1.833-0.767-2.762-0.632-4.47-2.188
	c-1.532-1.396-3.751-0.364-3.926,1.459c-0.764-0.705-1.529-1.408-2.287-2.125c-0.096-0.092-0.213-0.14-0.321-0.209
	c0.108,0,0.215,0.006,0.324,0.006c2.994,0.012,5.989,0.051,8.98,0.191c1.933,0.091,4.446,0.909,6.306,0.317
	c1.062-0.338,1.471-1.671,0.658-2.492c-2.56-2.585-9.708-1.257-12.955-1.146c-1.059,0.037-6.551-0.248-9.178,0.49
	c0.345-1.73-1.374-2.841-2.935-2.619c-18.877,2.693-35.731,3.168-49.907,17.632c-1.582,1.614-3.127,3.263-4.658,4.927
	c-1.081-0.306-2.355-0.309-3.32-0.412c-2.273-0.244-4.573-0.332-6.872-0.35c-0.869-0.686-1.898-0.563-2.639,0.021
	c-0.395,0.011-0.791-0.008-1.183,0.009c-0.845,0.038-3.507,0.03-5.431,0.58c1.086-1.192,2.212-2.308,3.375-3.314
	c0.363,0.024,0.729,0.009,1.089,0.05c1.207,0.138,1.402-1.773,0.281-2.073c-0.079-0.021-0.156-0.034-0.235-0.054
	c-0.297-0.799-1.288-1.417-2.164-0.885c-0.187,0.113-0.363,0.248-0.548,0.366c-15.471-1.945-30.795,12.77-39.652,23.62
	c-7.19,8.805-11.731,20.159-3.033,29.418c8.71,9.272,24.771,11.569,36.607,13.376c12.239,1.87,24.587,2.465,36.949,2.579
	c1.779,0.016,1.723-2.575,0-2.722c-20.148-1.697-40.817-1.704-59.976-8.999c-12.179-4.637-18.603-13.599-11.639-25.903
	c6.783-11.989,22.054-26.447,37.011-28.6c-9.245,7.983-15.185,21.575-15.804,33.217c-0.068,1.278,1.078,2.186,2.252,2.254
	c14.212,0.812,26.921-16.549,35.304-25.75c6.207-6.812,11.933-13.057,20.105-17.593c9.268-5.145,20.659-5.287,31.174-6.369
	c-5.679,13.531-17.571,23.439-20.096,38.567c-0.208,1.252,0.309,2.614,1.67,2.942c15.736,3.788,30.44-15.112,39.746-24.934
	c6.929-7.314,13.84-16.294,23.588-19.819c10.469-3.785,23.031-1.385,34.06,0.282c-0.371,0.214-0.745,0.452-1.118,0.674
	c-0.004,0-0.01-0.001-0.016-0.002c-0.401-0.048-0.669,0.183-0.794,0.491c-14.057,8.634-28.136,23.319-30.343,39.006
	c-0.163,1.158,0.265,2.619,1.625,2.863c11.774,2.105,21.774-6.593,30.172-13.692c6.166-5.213,11.917-10.918,18.553-15.551
	c9.428-6.581,19.92-4.817,30.131-2.019c-7.674,8.069-17.593,14.964-20.002,26.319c-0.341,1.601,0.701,2.896,2.304,3.024
	c6.565,0.52,13.503-3.724,19.008-6.773c4.266-2.363,11.899-6.082,13.979-10.94c0.019-0.043,0.025-0.085,0.041-0.128
	c14.941,11.572,13.081,29.865-3.929,38.719c-15.647,8.146-35.657,9.848-52.863,12.496c-20.084,3.091-40.57,3.594-60.853,3.981
	c-0.287,0.005-0.574,0.021-0.862,0.027c0.916-0.313,1.543-1.419,1.4-2.461c-0.172-1.259-0.258-2.532-0.344-3.809
	c3.456,1.814,6.618,4.082,10.283,5.567c1.139,0.462,2.644-0.716,2.522-1.921c-0.184-1.8-0.016-3.557,0.058-5.326
	c3.259,1.393,6.177,3.257,9.303,5.025c1.674,0.945,3.285-0.595,2.997-2.304c-0.19-1.129-0.299-2.749-0.418-4.292
	c4.055,0.297,7.005,2.513,10.453,4.597c1.391,0.84,3.169-0.246,3.184-1.827c0.095-10.127,8.314-2.601,12.625,0.478
	c1.488,1.063,3.039-0.428,3.229-1.854c0.844-6.36,9.268-0.283,11.726,0.709c1.416,0.573,2.617-0.837,2.735-2.084
	c2.35-4.231,5.178-5.009,8.484-2.333c1.116,0.523,2.789,0.183,3.054-1.242c0.259-1.39,0.503-2.613,0.646-3.863
	c3.317,1.38,6.117,3.406,9.382,5.088c1.728,0.891,3.281-0.555,3.022-2.324c-0.179-1.223-0.267-2.467-0.359-3.711
	c1.807,0.401,3.586,0.829,5.39,1.449c1.146,0.395,2.18-0.446,2.561-1.453c1.403-1.875,3.148-3.296,5.233-4.263
	c2.329-1.327,0.24-4.904-2.099-3.589c-3.025,1.7-4.829,2.434-6.219,4.791c-2.188-0.629-4.363-1.06-6.63-1.552
	c-1.661-0.361-2.778,0.972-2.544,2.545c0.13,0.87,0.21,1.752,0.281,2.637c-3.019-1.76-5.932-3.521-9.432-4.492
	c-1.24-0.344-2.692,0.641-2.617,1.993c0.004,1.102-0.086,2.188-0.226,3.271c-5.596-2.089-10.052-1.668-11.692,4.022
	c-6.32-2.833-11.951-5.967-14.221,0.855c-7.093-4.707-14.817-8.082-16.304,1.357c-3.734-2.179-7.215-3.815-11.901-3.312
	c-1.447,0.155-2.188,1.189-1.987,2.608c0.138,0.972,0.208,1.807,0.268,2.614c-3.028-1.727-6.021-3.352-9.441-4.411
	c-1.156-0.36-2.68,0.645-2.543,1.937c0.183,1.733,0.042,3.431-0.029,5.134c-3.542-1.829-6.76-4.159-10.504-5.674
	c-1.587-0.643-2.622,1.15-2.445,2.444c0.145,1.05,0.226,2.111,0.3,3.176c-2.695-1.743-5.397-3.402-8.394-4.722
	c-1.188-0.523-3.172,0.045-2.972,1.706c0.044,0.377,0.093,0.741,0.139,1.113c-5.36-3.749-11.711-6.411-12.483,0.549
	c-2.182-1.486-4.472-2.639-7.205-3.441c-1.17-0.342-2.312,0.6-2.334,1.779c-0.229,1.373-0.535,2.729-0.821,4.089
	c-3.649-2.076-7.083-4.476-10.845-6.38c-1.078-0.546-2.37-0.09-2.727,1.108c-0.883,2.977-6.494,0.623-8.034,0.073
	c-0.869-0.311-2.157,0.345-2.292,1.302c-0.092,0.649-0.185,1.298-0.276,1.947c-1.49-1.021-3.022-1.952-4.563-3.047
	c-1.241-0.884-2.675,0.334-2.779,1.594c-0.151,0.912-0.223,1.823-0.24,2.735c-1.286-0.734-2.583-1.44-3.869-2.25
	c-1.177-0.743-2.767,0.224-2.753,1.579c0.001,0.282,0.01,0.564,0.014,0.846c-2.028-1.295-4.057-2.589-5.932-4.104
	c-0.873-0.704-2.596-0.641-2.825,0.747c-0.065,0.5-0.193,0.988-0.283,1.484c-1.763-0.818-3.773-1.753-4.853-2.409
	c-1.106-0.67-2.287,0.223-2.391,1.372c-0.134,0.682-0.192,1.358-0.203,2.036c-1.682-0.855-3.406-1.595-5.028-2.625
	c-0.743-0.472-2.03-0.055-2.174,0.885c-0.566,3.667-4.16,0.584-6.866-0.72c-0.849-0.41-1.955,0.073-1.939,1.112
	c0.005,0.396-2.969-2.037-4.446-2.758c-2.699-1.319-3.694-1.64-6.477-2.677c-0.68-0.253-1.16,0.881-0.496,1.174
	c4.259,1.877,8.087,4.336,12.065,6.736c0.836,0.505,1.909-0.146,1.916-1.1c-0.005,0.593,3.587,2.031,6.264,3.981
	c0.708,0.518,1.937,0.004,2.092-0.851c0.727-4.001,3.098-1.282,6.119,0.925c0.894,0.653,2.373-0.215,2.273-1.305
	c-0.148-0.743-0.214-1.485-0.214-2.227c1.257,0.652,2.218,0.989,4.746,2.284c0.924,0.472,2.168,0.096,2.435-0.992
	c0.081-0.296,0.118-0.602,0.189-0.899c2.262,1.651,4.635,3.124,6.953,4.735c1.143,0.793,2.629-0.275,2.655-1.524
	c0.009-0.318,0.008-0.636,0.015-0.955c1.408,0.798,2.811,1.586,4.171,2.543c1.102,0.777,2.878-0.248,2.769-1.588
	c-0.157-0.943-0.231-1.888-0.244-2.832c1.319,0.929,2.63,1.87,3.969,2.771c0.924,0.815,2.89,0.674,3.105-0.82
	c0.635-4.405,2.917-3.022,7.344-1.447c0.731,0.261,1.771-0.149,2.107-0.857c0.332-0.697,0.572-1.21,0.785-1.709
	c3.754,2.09,7.274,4.535,11.133,6.466c1.006,0.503,2.392,0.12,2.671-1.088c0.411-1.777,0.891-3.302,1.189-4.932
	c2.546,0.939,4.797,2.394,6.73,4.408c1.112,0.989,3.389,0.433,3.223-1.336c-0.832-8.836,6.479-1.49,9.81,1.374
	c1.115,0.958,3.559,0.479,3.315-1.374c-0.1-0.697-0.163-1.399-0.25-2.099c2.855,1.573,5.531,3.382,8.313,5.189
	c0.19,0.123,0.377,0.2,0.561,0.253c-18.405,0.622-36.715,5.125-55.059,1.354c-1.051-0.217-1.493,1.319-0.445,1.615
	c21.874,6.199,46.513,1.404,68.973,1.538c24.82,0.146,48.914-2.809,73.29-7.13c16.484-2.924,39.181-6.912,46.788-24.023
	C315.709,176.011,309.35,160.108,296.61,155.532z M76.151,165.664c0.369,1.215,0.717,2.425,1.015,3.641
	c-0.562-0.818-1.124-1.638-1.665-2.471C75.716,166.442,75.927,166.049,76.151,165.664z M69.479,184.623
	c0.252-2.069,0.695-4.187,1.286-6.309c0.72,1.786,1.664,3.485,2.794,5.206C72.228,184.067,70.867,184.457,69.479,184.623z
	 M75.233,182.739c-0.176-0.514-0.355-1.027-0.533-1.544c1.258,0.394,2.67-0.688,2.426-2.313c-0.152-1.012-0.326-2.021-0.485-3.032
	c0.557,0.838,1.133,1.665,1.663,2.522c0.514,0.832,1.321,1.085,2.066,0.949C78.735,180.632,77.018,181.815,75.233,182.739z
	 M88.257,159.007c0.138,0.802,0.173,1.609,0.153,2.421c-1.093-0.471-2.347,0.27-2.811,1.323c-1.064-1.174-2.082-2.383-2.901-3.745
	c-0.024-0.041-0.061-0.06-0.086-0.099C83.942,158.817,85.967,158.878,88.257,159.007z M88.888,171.222
	c-2.003,2.05-4.325,4.484-6.877,6.719c0.069-0.191,0.126-0.393,0.144-0.613c0.144-1.827,0.045-3.586-0.186-5.317
	c1.467,1.548,4.448-0.039,3.687-2.148c-0.07-0.193-0.123-0.39-0.189-0.583c0.198,0.232,0.408,0.455,0.601,0.694
	c1.285,1.585,3.83,0.221,3.832-1.588c0.001-0.165,0.001-0.331,0.001-0.497c1.317,0.357,2.708-0.938,2.765-2.255
	c0.028-0.647,0.072-1.286,0.114-1.923c0.313,0.045,0.63,0.045,0.934-0.043c0.202,0.245,0.417,0.491,0.667,0.747
	c0.167,0.17,0.353,0.273,0.54,0.371C92.939,166.958,90.943,169.118,88.888,171.222z M97.717,161.695
	c-0.474-0.739-0.97-1.448-1.482-2.145c1.165,0.081,2.271,0.153,3.242,0.203C98.891,160.401,98.303,161.047,97.717,161.695z
	 M158.719,139.272c0.099,0.053,0.198,0.108,0.334,0.126c1.241,0.167,2.483,0.241,3.727,0.283c-0.846,0.466-1.394,1.372-0.972,2.483
	c0.208,0.547,0.358,1.1,0.515,1.653c-1.593-0.837-3.646,0.283-3.234,2.465c0.2,1.058,0.444,2.104,0.67,3.155
	c-0.811-1.084-1.612-2.175-2.446-3.243c-0.413-0.526-0.946-0.703-1.481-0.68C156.917,143.504,157.908,141.438,158.719,139.272z
	 M153.833,149.01c0.483,1.704,0.929,3.399,1.321,5.101c-0.65-0.8-1.32-1.588-2.025-2.355c-0.222-0.243-0.458-0.398-0.697-0.508
	C152.907,150.507,153.375,149.761,153.833,149.01z M149.796,155.245c0.289,2.025,0.546,4.044,0.748,6.069
	c-0.952-0.989-1.886-1.994-2.759-3.057C148.452,157.252,149.124,156.249,149.796,155.245z M138.677,176.712
	c0.158-0.638,0.35-1.257,0.539-1.878c0.368,0.533,0.76,1.074,1.188,1.653c0.058,0.078,0.13,0.126,0.196,0.186
	C139.959,176.727,139.319,176.749,138.677,176.712z M141.122,169.792c0.34-0.752,0.698-1.494,1.072-2.228
	c0.25,1.211,0.453,2.406,0.676,3.588C142.282,170.706,141.7,170.252,141.122,169.792z M145.444,165.632
	c-0.637-0.504-1.381-0.587-2.005-0.386c0.494-0.876,1.001-1.744,1.529-2.602c0.337,1.131,0.688,2.26,1.017,3.394
	C145.804,165.902,145.621,165.772,145.444,165.632z M147.484,174.505c-0.377-1.015-0.634-2.065-0.815-3.135
	c0.506,0.382,1.025,0.744,1.506,1.161c0.569,0.495,1.311,0.59,1.959,0.413C149.265,173.514,148.38,174.039,147.484,174.505z
	 M162.833,161.744c-3.116,3.119-7.133,7.291-11.598,10.446c0.294-0.413,0.431-0.944,0.236-1.576
	c-0.336-1.095-0.639-2.199-0.953-3.299c0.345,0.384,0.695,0.763,1.026,1.16c1.177,1.417,3.579,0.241,3.538-1.465
	c-0.054-2.201-0.219-4.375-0.438-6.543c0.671,0.935,1.339,1.874,2.012,2.813c1.154,1.608,4.102,1.229,4.005-1.085
	c-0.07-1.673-0.266-3.304-0.509-4.922c0.759,1.022,1.507,2.052,2.287,3.06c0.325,0.42,0.702,0.618,1.086,0.697
	C163.293,161.265,163.067,161.51,162.833,161.744z M166.168,158.301c-0.006-0.047,0.008-0.093-0.001-0.14
	c-0.302-1.635-0.663-3.255-1.017-4.879c1.604,0.77,3.476-0.837,3.119-2.698c-0.132-0.691-0.243-1.379-0.353-2.066
	c0.462,0.502,0.919,1.011,1.348,1.549c1.296,1.631,3.963,0.229,3.94-1.632c-0.009-0.67-0.073-1.294-0.115-1.934
	c0.606,0.213,1.263,0.43,2.015,0.698c0.662,0.236,1.219,0.174,1.66-0.062C173.2,150.826,169.716,154.598,166.168,158.301z
	 M222.656,149.276c0.408,1.914,0.766,3.827,1.032,5.749c-0.759-0.903-1.541-1.792-2.372-2.663c-0.372-0.388-0.776-0.574-1.179-0.645
	C220.965,150.893,221.803,150.077,222.656,149.276z M205.315,175.319c0.385-1.644,0.911-3.241,1.53-4.806
	c0.655,1.529,1.332,3.049,2.011,4.566C207.679,175.263,206.498,175.376,205.315,175.319z M209.141,165.707
	c0.643-1.152,1.325-2.287,2.07-3.396c0.275,2.127,0.507,4.255,0.69,6.388C210.963,167.722,210.051,166.714,209.141,165.707z
	 M217.589,154.366c0.006,0.056-0.008,0.109,0.001,0.165c0.376,2.333,0.645,4.562,0.758,6.802c-1.176-1.26-2.39-2.49-3.619-3.716
	C215.643,156.51,216.604,155.43,217.589,154.366z M216.194,172.637c-0.057-2.603-0.232-5.188-0.49-7.767
	c1.086,1.2,2.158,2.412,3.179,3.684c1.334,1.664,3.556,0.104,3.729-1.544c0.209-1.989,0.21-3.938,0.117-5.878
	c0.665,0.941,1.313,1.898,1.932,2.895c0.553,0.891,1.547,1.184,2.433,1.012C223.592,168.028,219.938,170.747,216.194,172.637z
	 M228.782,163.576c0.063-0.214,0.11-0.44,0.104-0.694c-0.05-2.547-0.248-5.046-0.548-7.531c0.814,1.071,1.628,2.143,2.451,3.209
	c0.623,0.806,1.488,1.125,2.289,1.052C231.68,160.94,230.247,162.273,228.782,163.576z M233.476,143.803
	c-1.496-2.325-4.811-0.79-4.32,1.821c0.269,1.426,0.543,2.837,0.789,4.25c-1.1-1.391-2.23-2.757-3.427-4.079
	c2.471-2.157,4.97-4.227,7.4-6.211c2.495,0.543,4.995,1.062,7.494,1.598c-0.308,0.283-0.542,0.644-0.615,1.107
	c-0.07,0.454-0.165,0.901-0.265,1.346c-0.295-0.392-0.586-0.79-0.839-1.224c-1.252-2.142-4.326-1.105-4.462,1.208
	c-0.046,0.772-0.126,1.542-0.196,2.313C234.489,145.251,233.959,144.555,233.476,143.803z M235.075,157.706
	c0.023-0.111,0.065-0.207,0.075-0.328c0.115-1.335,0.095-2.646,0.001-3.947c0.034,0.043,0.07,0.083,0.104,0.126
	c1.396,1.751,3.971,0.173,4.062-1.683c0.03-0.615,0.101-1.227,0.15-1.84c0.066,0.104,0.146,0.196,0.208,0.304
	c0.412,0.712,1.216,1.081,2.025,1.124C239.627,153.321,237.409,155.463,235.075,157.706z M248.844,146.093
	c-0.094-0.301-0.226-0.599-0.446-0.878c-0.099-0.125-0.197-0.25-0.297-0.375c-0.312-0.394-0.711-0.582-1.125-0.641
	c-0.63-0.523-1.122-1.179-1.498-1.947c2.216,0.684,4.39,1.468,6.607,2.13C251.001,144.878,249.921,145.458,248.844,146.093z
	 M285.984,153.97c-0.275,0.372-0.457,0.827-0.479,1.345c-0.009,0.223-0.026,0.445-0.042,0.669c-0.531-0.5-1.044-1.021-1.499-1.604
	c-0.512-0.658-1.196-0.825-1.853-0.688c0.35-0.341,0.709-0.681,1.052-1.025C284.105,153.104,285.049,153.526,285.984,153.97z
	 M280.132,155.603c-0.033,0.133-0.078,0.263-0.084,0.4c-0.042,0.917-0.162,1.826-0.287,2.734c-0.643-0.316-1.285-0.634-1.931-0.948
	C278.6,157.058,279.365,156.329,280.132,155.603z M272.398,163.326c0.324,2.59-0.026,5.051-0.198,7.698
	c-2.088,0.752-4.083,1.323-5.824,1.624C267.709,169.183,269.886,166.156,272.398,163.326z M278.198,168.454
	c0.018-0.205,0.047-0.405,0.005-0.634c-0.293-1.614-0.216-3.246-0.083-4.876c0.795,0.404,1.589,0.812,2.386,1.214
	c1.577,0.795,3.33-0.186,3.423-1.964c0.024-0.469,0.072-0.936,0.128-1.401c0.636,0.587,1.255,1.192,1.785,1.885
	c0.222,0.288,0.499,0.491,0.795,0.652C284.207,165.178,281.253,166.945,278.198,168.454z"/>
</svg>
