<?xml version="1.0" encoding="utf-8"?>
<!-- Generator: Adobe Illustrator 16.0.0, SVG Export Plug-In . SVG Version: 6.00 Build 0)  -->
<!DOCTYPE svg PUBLIC "-//W3C//DTD SVG 1.1//EN" "http://www.w3.org/Graphics/SVG/1.1/DTD/svg11.dtd">
<svg version="1.1" id="Capa_1" xmlns="http://www.w3.org/2000/svg" xmlns:xlink="http://www.w3.org/1999/xlink" x="0px" y="0px"
	 width="350px" height="350px" viewBox="0 0 350 350" enable-background="new 0 0 350 350" xml:space="preserve">
<g>
	<path d="M289.4,175c0-63.081-51.319-114.401-114.4-114.401c-63.081,0-114.401,51.32-114.401,114.401
		c0,63.081,51.32,114.4,114.401,114.4c14.045,0,27.498-2.559,39.937-7.207l-0.045,0.271l6.536-2.909
		c0.53-0.236,1.045-0.504,1.571-0.747c0.861-0.4,1.72-0.805,2.569-1.225c0.893-0.442,1.773-0.896,2.655-1.361
		c0.766-0.404,1.528-0.815,2.284-1.235c0.949-0.53,1.891-1.071,2.829-1.628c0.637-0.378,1.266-0.763,1.892-1.152
		c1.033-0.64,2.059-1.296,3.073-1.971c0.48-0.321,0.957-0.649,1.431-0.977c0.674-0.466,1.364-0.908,2.032-1.385l1.613-1.163v-0.045
		C271.295,245.783,289.4,212.466,289.4,175z M231.327,237.565c1.831,7.165,3.932,16.535,4.332,25.237
		c-0.24,0.168-0.473,0.344-0.713,0.507c-1.099,0.747-2.216,1.461-3.341,2.167c-0.904,0.568-1.815,1.117-2.733,1.658
		c-1.202,0.705-2.407,1.399-3.636,2.056c-0.209,0.109-0.426,0.213-0.636,0.327c0.011-0.114,0.026-0.229,0.038-0.343
		C225.554,261.167,226.774,250.555,231.327,237.565z M242.859,257.38c-1.076-10.166-3.741-20.275-5.488-26.826
		c-0.37-1.389-0.694-2.608-0.945-3.611l-0.767-3.074c7.433-10.78,11.795-23.623,11.795-37.428c0-26.29-5.629-36.06-15.845-53.799
		c-4.106-7.131-9.218-16.005-15.051-27.952c-0.923-1.891-3.196-2.681-5.099-1.754c-1.892,0.923-2.677,3.207-1.75,5.099
		c5.948,12.18,11.127,21.183,15.295,28.413c9.869,17.142,14.822,25.748,14.822,49.994c0,33.642-29.081,61.014-64.827,61.014
		c-35.747,0-64.827-27.372-64.827-61.014c0-2.109-1.708-3.814-3.813-3.814c-2.105,0-3.813,1.705-3.813,3.814
		c0,37.848,32.501,68.641,72.454,68.641c18.594,0,35.518-6.728,48.357-17.671c-4.16,12.652-5.392,23.002-6.3,30.888
		c-0.217,1.88-0.423,3.547-0.645,5.113c-12.74,5.385-26.735,8.363-41.413,8.363c-58.875,0-106.774-47.9-106.774-106.774
		c0-58.875,47.9-106.774,106.774-106.774c58.874,0,106.773,47.9,106.773,106.774C281.773,208.126,266.608,237.779,242.859,257.38z"
		/>
	<path d="M175,144.493c-21.027,0-38.134,17.106-38.134,38.133c0,21.028,17.107,38.135,38.134,38.135
		c21.027,0,38.134-17.106,38.134-38.135C213.134,161.6,196.027,144.493,175,144.493z M175,213.134
		c-16.821,0-30.507-13.687-30.507-30.508c0-16.82,13.686-30.506,30.507-30.506c16.82,0,30.507,13.687,30.507,30.506
		C205.507,199.447,191.82,213.134,175,213.134z"/>
	<path d="M175,167.374c-8.412,0-15.253,6.841-15.253,15.252c0,8.413,6.841,15.254,15.253,15.254s15.254-6.841,15.254-15.254
		C190.254,174.214,183.412,167.374,175,167.374z M175,190.254c-4.206,0-7.626-3.421-7.626-7.628c0-4.205,3.42-7.626,7.626-7.626
		s7.626,3.421,7.626,7.626C182.626,186.833,179.206,190.254,175,190.254z"/>
</g>
</svg>
