<?xml version="1.0" encoding="utf-8"?>
<!-- Generator: Adobe Illustrator 16.0.0, SVG Export Plug-In . SVG Version: 6.00 Build 0)  -->
<!DOCTYPE svg PUBLIC "-//W3C//DTD SVG 1.1//EN" "http://www.w3.org/Graphics/SVG/1.1/DTD/svg11.dtd">
<svg version="1.1" id="Layer_1" xmlns="http://www.w3.org/2000/svg" xmlns:xlink="http://www.w3.org/1999/xlink" x="0px" y="0px"
	 width="350px" height="350px" viewBox="0 0 350 350" enable-background="new 0 0 350 350" xml:space="preserve">
<g>
	<path fill-rule="evenodd" clip-rule="evenodd" d="M157.932,253.7c-7.081-0.116-13.726-1.736-19.825-5.287
		c-7.57-4.404-15.066-8.933-22.59-13.422c-4-2.39-7.999-4.792-11.978-7.224c-12.502-7.641-23.885-16.634-33.245-27.996
		c-9.103-11.051-10.967-23.724-8.286-37.435c2.795-14.283,10.128-25.423,22.427-33.305c2.659-1.702,4.87-4.176,7.644-5.599
		c4.278-2.192,8.88-3.739,13.311-5.643c3.57-1.534,7.387-2.738,10.571-4.868c16.209-10.835,33.481-18.017,53.445-16.394
		c5.182,0.42,10.449,0.853,15.464,2.114c12.391,3.116,24.945,4.201,37.663,4.787c15.691,0.723,29.697,6.896,42.591,15.493
		c3.337,2.228,6.131,5.509,8.597,8.745c5.444,7.136,10.625,14.609,12.811,23.43c5.042,20.374,3.387,39.402-11.097,56.22
		c-10.22,11.864-23.055,19.24-37.211,25.025c-17.851,7.293-36.385,12.26-55.099,16.652c-5.792,1.361-11.595,2.705-17.43,3.874
		C163.155,253.381,160.521,253.437,157.932,253.7z M227.371,135.662c0.481,0.289,0.96,0.574,1.444,0.862
		c-0.674,5.851-3.311,11.183-5.958,16.316c-6.285,12.183-15.589,21.243-29.12,25.677c0.208,1.246,0.294,2.341,0.582,3.379
		c2.018,7.217,1.903,14.381-0.475,21.49c-2.485,7.432-4.788,14.936-7.578,22.251c-3.207,8.412-8.407,15.351-16.536,19.747
		c-1.089,0.589-2.101,1.319-3.151,1.982c18.891-4.571,38.012-7.922,56.196-14.798c11.689-4.418,23.663-8.256,34.056-15.464
		c14.677-10.184,25.521-23.035,27.096-41.693c0.656-7.807,0.119-15.627-2.241-23.199c-1.659-5.334-3.846-10.407-7.63-14.77
		c-7.843,15.078-23.849,30.221-34.456,32.668c-2.008-1.863-0.647-3.746,0.023-5.601c2.542-7.018,5.14-14.013,7.651-21.04
		c2.801-7.839,3.096-16.08,3.76-24.257c0.191-2.363-0.86-3.687-3.014-4.722c-13.854-6.658-28.553-7.881-43.466-7.297
		c-1.058,4.065-1.496,8.103-3.147,11.564c-2.882,6.046-6.016,12.102-9.981,17.459c-3.037,4.106-7.359,7.336-11.402,10.587
		c-2.43,1.954-4.048,0.871-4.241-2.359c-0.033-0.556,0.052-1.118,0.052-1.68c0.018-13.743,2.392-26.99,8.6-39.669
		c-0.867-0.31-1.509-0.62-2.185-0.767c-22.25-4.854-42.585,0.135-61.291,12.421c-5.065,3.328-10.071,6.255-16.071,7.462
		c-2.734,0.55-5.322,1.812-8.758,3.031c8.248,2.021,15.381,3.768,23.058,5.65c5.756-8.103,14.57-13.462,23.045-19.207
		c1.038-0.703,2.656-0.548,4.006-0.79c0.096,1.216,0.511,2.512,0.229,3.635c-1.804,7.234-3.799,14.42-5.657,21.642
		c-0.549,2.134-0.857,4.331-1.267,6.439c10.521,9.068,23.033,13.45,33.846,18.341c4.63-1.587,8.092-2.864,11.61-3.946
		c3.374-1.036,6.963-1.512,10.196-2.854c10.371-4.303,20.249-9.531,28.973-16.736C225.093,136.658,226.297,136.24,227.371,135.662z
		 M100.088,131.079c-9.268-0.397-17.261,2.122-22.909,10.077c-1.083,1.521-2.244,2.985-3.379,4.464
		c-6.977,9.093-8.649,19.675-8.199,30.686c0.254,6.206,1.987,12.105,5.764,17.289c8.938,12.276,20.254,21.805,33.329,29.379
		c5.472,3.172,10.816,6.563,16.29,9.73c7.733,4.474,15.487,8.92,23.343,13.168c1.543,0.834,3.629,1.128,5.413,0.996
		c14.211-1.052,24.956-7.956,30.722-20.863c4.16-9.316,7.199-19.253,9.654-29.18c2.894-11.697-2.531-22.402-13.056-28.262
		c-2.278-1.27-4.65-2.375-6.986-3.541c-9.332-4.658-19.215-8.217-27.782-14.405c-4.533-3.27-9.208-6.43-14.142-9.032
		C119.295,136.91,110.682,131.378,100.088,131.079z M245.391,162.447c2.035-1.178,3.109-1.57,3.887-2.29
		c4.915-4.565,10.177-8.857,14.488-13.943c2.788-3.289,4.311-7.713,6.075-11.769c0.508-1.166,0.435-3.229-0.29-4.178
		c-3.684-4.807-7.604-9.467-13.9-11.619c-0.975,7.551-1.355,14.851-2.979,21.859C251.045,147.517,248.179,154.239,245.391,162.447z
		 M222.278,144.617c-7.679,3.966-14.376,8.003-21.516,10.952c-7.163,2.958-14.776,4.828-22.199,7.176
		c4.721,3.987,9.063,7.655,13.684,11.558C206.653,169.554,216.148,159.402,222.278,144.617z M180.218,140.7
		c9.867-6.335,19.916-25.248,18.938-34.475c-1.516-0.378-3.105-0.798-4.712-1.169c-5.982-1.383-7.658-0.584-9.295,5.31
		c-1.636,5.898-3.089,11.872-4.167,17.893C180.309,132.001,180.477,135.895,180.218,140.7z M141.399,117.378
		c-8.5,3.816-14.161,9.191-19.243,15.758c4.999,2.669,9.475,5.057,14.066,7.508C137.989,132.713,139.597,125.482,141.399,117.378z"
		/>
	<path fill-rule="evenodd" clip-rule="evenodd" fill="#F4B77A" d="M227.371,135.662c-1.074,0.579-2.278,0.996-3.201,1.757
		c-8.724,7.205-18.602,12.434-28.973,16.736c-3.233,1.342-6.822,1.818-10.196,2.854c-3.518,1.082-6.979,2.359-11.61,3.946
		c-10.813-4.891-23.326-9.273-33.846-18.341c0.41-2.109,0.718-4.305,1.267-6.439c1.858-7.221,3.853-14.407,5.657-21.642
		c0.282-1.124-0.134-2.419-0.229-3.635c-1.35,0.242-2.968,0.087-4.006,0.79c-8.475,5.745-17.289,11.104-23.045,19.207
		c-7.677-1.882-14.811-3.63-23.058-5.65c3.437-1.219,6.024-2.48,8.758-3.031c6-1.207,11.006-4.135,16.071-7.462
		c18.706-12.287,39.042-17.275,61.291-12.421c0.676,0.147,1.317,0.457,2.185,0.767c-6.208,12.679-8.582,25.926-8.6,39.669
		c0,0.562-0.085,1.124-0.052,1.68c0.193,3.229,1.811,4.313,4.241,2.359c4.043-3.25,8.365-6.48,11.402-10.587
		c3.966-5.358,7.1-11.414,9.981-17.459c1.651-3.461,2.09-7.499,3.147-11.564c14.913-0.584,29.611,0.64,43.466,7.297
		c2.153,1.035,3.205,2.359,3.014,4.722c-0.664,8.178-0.959,16.418-3.76,24.257c-2.512,7.026-5.109,14.022-7.651,21.04
		c-0.671,1.855-2.031,3.738-0.023,5.601c10.607-2.447,26.613-17.59,34.456-32.668c3.784,4.363,5.971,9.436,7.63,14.77
		c2.36,7.571,2.897,15.392,2.241,23.199c-1.575,18.658-12.419,31.509-27.096,41.693c-10.393,7.208-22.366,11.046-34.056,15.464
		c-18.184,6.876-37.305,10.227-56.196,14.798c1.05-0.663,2.062-1.394,3.151-1.982c8.129-4.396,13.329-11.335,16.536-19.747
		c2.79-7.315,5.093-14.819,7.578-22.251c2.378-7.109,2.492-14.273,0.475-21.49c-0.288-1.038-0.374-2.133-0.582-3.379
		c13.531-4.434,22.835-13.495,29.12-25.677c2.647-5.133,5.284-10.465,5.958-16.316C228.331,136.236,227.853,135.95,227.371,135.662z
		 M275.232,186.265c-1.7,0.624-2.137,0.653-2.36,0.89c-0.771,0.804-1.573,1.61-2.164,2.543
		c-5.445,8.561-12.798,14.846-21.943,19.276c-5.853,2.835-11.123,7.023-17.14,9.342c-12.828,4.94-25.979,9.047-38.984,13.528
		c-1.277,0.439-2.478,1.097-3.711,1.652c0.099,0.417,0.196,0.831,0.294,1.248c2.646-0.262,5.337-0.31,7.929-0.839
		c3.642-0.746,7.279-1.64,10.79-2.846c9.487-3.261,19.121-6.226,28.283-10.25c7.289-3.201,13.978-7.785,20.918-11.775
		c6.812-3.912,11.896-9.513,15.635-16.342C273.712,190.989,274.191,189.035,275.232,186.265z M239.455,204.53
		c1.133-1.255,1.979-2.026,2.557-2.963c0.123-0.202-0.709-0.996-1.104-1.516c-0.875,0.718-1.832,1.362-2.559,2.207
		C238.191,202.443,238.854,203.333,239.455,204.53z M255.661,193.405c0.433,0.372,0.871,0.743,1.307,1.112
		c0.666-0.914,1.333-1.83,1.997-2.746c-0.313-0.265-0.629-0.528-0.945-0.797C257.232,191.785,256.445,192.595,255.661,193.405z
		 M201.871,220.912c-0.482,0.909-0.933,1.431-0.99,1.992c-0.031,0.313,0.593,0.69,0.921,1.039c0.376-0.479,0.89-0.917,1.059-1.46
		C202.947,222.206,202.416,221.732,201.871,220.912z"/>
	<path fill-rule="evenodd" clip-rule="evenodd" fill="#FCD8B9" d="M100.088,131.079c10.594,0.299,19.208,5.831,28.062,10.507
		c4.933,2.602,9.608,5.763,14.142,9.032c8.567,6.188,18.45,9.747,27.782,14.405c2.336,1.165,4.708,2.271,6.986,3.541
		c10.524,5.86,15.949,16.564,13.056,28.262c-2.455,9.927-5.494,19.863-9.654,29.18c-5.766,12.907-16.511,19.812-30.722,20.863
		c-1.783,0.132-3.869-0.162-5.413-0.996c-7.856-4.248-15.61-8.694-23.343-13.168c-5.473-3.167-10.818-6.559-16.29-9.73
		c-13.074-7.574-24.391-17.103-33.329-29.379c-3.777-5.184-5.51-11.083-5.764-17.289c-0.45-11.01,1.222-21.593,8.199-30.686
		c1.135-1.479,2.296-2.943,3.379-4.464C82.827,133.201,90.82,130.682,100.088,131.079z M104.563,174.733
		c0.057-0.187,0.115-0.371,0.172-0.557c0.746,0,1.495,0.047,2.235-0.008c3.784-0.281,6.259-2.29,6.283-5.067
		c0.03-2.802-2.282-5.288-5.69-5.94c-3.608-0.691-7.076-0.087-10.295,1.638c-3.539,1.897-3.895,5.3-0.45,7.392
		C99.082,173.566,101.961,173.921,104.563,174.733z M135.271,207.939c-0.226-0.136-0.454-0.268-0.679-0.403
		c-0.035-0.557-0.037-1.116-0.113-1.665c-0.439-3.245-2.171-5.273-5.037-5.931c-2.548-0.586-5.847,1.208-7.373,3.912
		c-1.542,2.73,0.282,4.553,1.668,6.487c0.428,0.596,0.949,1.169,1.539,1.597c1.941,1.412,4.138,3.487,6.436,1.731
		C133.383,212.396,134.117,209.893,135.271,207.939z M147.763,180.984c1.216,0.064,3.056-0.254,3.273-2.713
		c0.229-2.634-3.058-6.926-5.284-7.14c-2.284-0.221-4.149,1.558-4.304,4.106C141.25,178.488,143.377,180.686,147.763,180.984z
		 M81.307,162.842c-0.057-2.77-1.566-4.266-4.125-4.096c-2.55,0.168-4.938,3.037-4.943,5.936c-0.005,2.278,2.079,4.601,4.083,4.545
		C79.046,169.153,81.38,166.167,81.307,162.842z M172.592,203.803c-1.412-1.025-2.413-2.218-2.953-2.039
		c-0.982,0.325-1.691,1.472-2.514,2.275c0.718,0.702,1.502,2.026,2.136,1.957C170.245,205.892,171.128,204.835,172.592,203.803z
		 M98.341,194.279c-0.987-0.81-1.649-1.765-2.209-1.705c-0.657,0.066-1.632,0.956-1.714,1.587c-0.069,0.53,0.9,1.629,1.493,1.691
		C96.526,195.918,97.244,195.042,98.341,194.279z M152.08,230.012c0.473,0.297,0.944,0.595,1.415,0.892
		c0.306-0.857,0.831-1.711,0.837-2.569c0.003-0.469-0.968-1.402-1.321-1.324c-0.704,0.156-1.444,0.767-1.839,1.397
		C151.018,228.655,151.753,229.461,152.08,230.012z M108.163,144.572c-0.822-0.785-1.271-1.555-1.752-1.578
		c-0.489-0.021-1.408,0.678-1.42,1.087c-0.019,0.508,0.612,1.316,1.125,1.481C106.536,145.695,107.197,145.074,108.163,144.572z"/>
	<path fill-rule="evenodd" clip-rule="evenodd" fill="#FCD8B9" d="M245.391,162.447c2.788-8.208,5.654-14.93,7.281-21.939
		c1.623-7.009,2.004-14.308,2.979-21.859c6.296,2.152,10.217,6.812,13.9,11.619c0.725,0.949,0.798,3.013,0.29,4.178
		c-1.765,4.056-3.287,8.48-6.075,11.769c-4.312,5.085-9.573,9.378-14.488,13.943C248.5,160.876,247.426,161.269,245.391,162.447z"/>
	<path fill-rule="evenodd" clip-rule="evenodd" fill="#FCD8B9" d="M222.278,144.617c-6.13,14.785-15.625,24.937-30.031,29.686
		c-4.621-3.903-8.963-7.571-13.684-11.558c7.423-2.348,15.036-4.219,22.199-7.176C207.902,152.621,214.6,148.583,222.278,144.617z"
		/>
	<path fill-rule="evenodd" clip-rule="evenodd" fill="#FCD8B9" d="M180.218,140.7c0.259-4.806,0.091-8.699,0.765-12.44
		c1.078-6.021,2.531-11.995,4.167-17.893c1.637-5.894,3.313-6.693,9.295-5.31c1.606,0.371,3.196,0.791,4.712,1.169
		C200.134,115.453,190.085,134.365,180.218,140.7z"/>
	<path fill-rule="evenodd" clip-rule="evenodd" fill="#FCD8B9" d="M141.399,117.378c-1.803,8.104-3.41,15.334-5.176,23.266
		c-4.592-2.451-9.068-4.839-14.066-7.508C127.239,126.569,132.9,121.194,141.399,117.378z"/>
	<path fill-rule="evenodd" clip-rule="evenodd" d="M275.232,186.265c-1.041,2.771-1.521,4.725-2.454,6.428
		c-3.739,6.829-8.823,12.43-15.635,16.342c-6.94,3.99-13.629,8.574-20.918,11.775c-9.162,4.024-18.796,6.989-28.283,10.25
		c-3.511,1.206-7.148,2.1-10.79,2.846c-2.592,0.529-5.282,0.577-7.929,0.839c-0.098-0.417-0.195-0.831-0.294-1.248
		c1.233-0.556,2.434-1.213,3.711-1.652c13.006-4.481,26.156-8.588,38.984-13.528c6.017-2.318,11.287-6.507,17.14-9.342
		c9.146-4.431,16.498-10.716,21.943-19.276c0.591-0.933,1.394-1.739,2.164-2.543C273.096,186.918,273.532,186.889,275.232,186.265z"
		/>
	<path fill-rule="evenodd" clip-rule="evenodd" d="M239.455,204.53c-0.602-1.197-1.264-2.087-1.105-2.271
		c0.727-0.845,1.684-1.489,2.559-2.207c0.395,0.52,1.227,1.313,1.104,1.516C241.435,202.504,240.588,203.275,239.455,204.53z"/>
	<path fill-rule="evenodd" clip-rule="evenodd" d="M255.661,193.405c0.784-0.811,1.571-1.62,2.358-2.431
		c0.316,0.269,0.633,0.532,0.945,0.797c-0.664,0.916-1.331,1.832-1.997,2.746C256.532,194.148,256.094,193.777,255.661,193.405z"/>
	<path fill-rule="evenodd" clip-rule="evenodd" d="M201.871,220.912c0.545,0.82,1.076,1.294,0.989,1.571
		c-0.169,0.543-0.683,0.98-1.059,1.46c-0.328-0.349-0.952-0.727-0.921-1.039C200.938,222.343,201.389,221.821,201.871,220.912z"/>
	<path fill-rule="evenodd" clip-rule="evenodd" d="M104.563,174.733c-2.602-0.812-5.482-1.167-7.745-2.542
		c-3.445-2.092-3.089-5.495,0.45-7.392c3.219-1.725,6.687-2.329,10.295-1.638c3.408,0.652,5.72,3.138,5.69,5.94
		c-0.024,2.777-2.5,4.786-6.283,5.067c-0.741,0.055-1.49,0.008-2.235,0.008C104.678,174.362,104.621,174.546,104.563,174.733z
		 M98.176,168.809c3.784,2.913,7.528,2.476,11.246,1.586c0.527-0.126,1.26-1.651,1.04-2.132c-0.386-0.837-1.467-1.951-2.213-1.92
		C105.038,166.48,101.565,165.732,98.176,168.809z"/>
	<path fill-rule="evenodd" clip-rule="evenodd" d="M135.271,207.939c-1.154,1.953-1.887,4.456-3.56,5.729
		c-2.298,1.756-4.495-0.319-6.436-1.731c-0.589-0.428-1.111-1.001-1.539-1.597c-1.387-1.935-3.21-3.757-1.668-6.487
		c1.526-2.704,4.825-4.498,7.373-3.912c2.866,0.657,4.598,2.686,5.037,5.931c0.077,0.549,0.078,1.108,0.113,1.665
		C134.817,207.672,135.045,207.804,135.271,207.939z M129.306,211.011c0.511-0.247,1.023-0.492,1.538-0.739
		c0.323-2.18,1.187-4.55-1.217-6.286c-1.995-1.445-3.657-0.218-5.781,1.476C125.871,207.521,127.586,209.266,129.306,211.011z"/>
	<path fill-rule="evenodd" clip-rule="evenodd" d="M147.763,180.984c-4.385-0.299-6.513-2.496-6.315-5.747
		c0.155-2.549,2.02-4.327,4.304-4.106c2.227,0.214,5.514,4.506,5.284,7.14C150.818,180.73,148.979,181.049,147.763,180.984z
		 M148.4,177.175c-0.78-0.98-1.566-1.961-2.713-3.399C145.364,176.756,145.364,176.756,148.4,177.175z"/>
	<path fill-rule="evenodd" clip-rule="evenodd" d="M81.307,162.842c0.073,3.325-2.261,6.311-4.985,6.385
		c-2.004,0.056-4.088-2.267-4.083-4.545c0.005-2.898,2.393-5.767,4.943-5.936C79.741,158.576,81.25,160.073,81.307,162.842z
		 M75.583,166.163c3.009-1.92,3.009-1.92,1.274-4.46c-0.509,0.841-1.099,1.536-1.368,2.337
		C75.295,164.618,75.53,165.337,75.583,166.163z"/>
	<path fill-rule="evenodd" clip-rule="evenodd" d="M172.592,203.803c-1.464,1.032-2.347,2.089-3.331,2.193
		c-0.634,0.069-1.418-1.255-2.136-1.957c0.822-0.804,1.532-1.95,2.514-2.275C170.179,201.585,171.18,202.777,172.592,203.803z"/>
	<path fill-rule="evenodd" clip-rule="evenodd" d="M98.341,194.279c-1.097,0.763-1.814,1.639-2.43,1.573
		c-0.593-0.063-1.563-1.161-1.493-1.691c0.082-0.631,1.057-1.521,1.714-1.587C96.691,192.515,97.354,193.47,98.341,194.279z"/>
	<path fill-rule="evenodd" clip-rule="evenodd" d="M152.08,230.012c-0.327-0.551-1.062-1.356-0.907-1.604
		c0.395-0.631,1.135-1.241,1.839-1.397c0.353-0.078,1.324,0.855,1.321,1.324c-0.007,0.858-0.532,1.712-0.837,2.569
		C153.024,230.606,152.553,230.309,152.08,230.012z"/>
	<path fill-rule="evenodd" clip-rule="evenodd" d="M108.163,144.572c-0.966,0.502-1.627,1.123-2.047,0.99
		c-0.513-0.165-1.144-0.973-1.125-1.481c0.012-0.409,0.932-1.109,1.42-1.087C106.893,143.017,107.341,143.787,108.163,144.572z"/>
	<path fill-rule="evenodd" clip-rule="evenodd" fill="#FCD8B9" d="M98.176,168.809c3.389-3.077,6.862-2.329,10.072-2.466
		c0.746-0.031,1.827,1.083,2.213,1.92c0.221,0.481-0.513,2.006-1.04,2.132C105.704,171.285,101.959,171.722,98.176,168.809z"/>
	<path fill-rule="evenodd" clip-rule="evenodd" fill="#FCD8B9" d="M129.306,211.011c-1.719-1.745-3.435-3.49-5.459-5.55
		c2.124-1.693,3.786-2.921,5.781-1.476c2.404,1.736,1.54,4.106,1.217,6.286C130.329,210.519,129.816,210.764,129.306,211.011z"/>
	<path fill-rule="evenodd" clip-rule="evenodd" fill="#FCD8B9" d="M148.4,177.175c-3.037-0.419-3.037-0.419-2.713-3.399
		C146.834,175.213,147.62,176.194,148.4,177.175z"/>
	<path fill-rule="evenodd" clip-rule="evenodd" fill="#FCD8B9" d="M75.583,166.163c-0.054-0.826-0.288-1.545-0.094-2.123
		c0.27-0.802,0.859-1.497,1.368-2.337C78.592,164.243,78.592,164.243,75.583,166.163z"/>
</g>
</svg>
