<?xml version="1.0" encoding="utf-8"?>
<!-- Generator: Adobe Illustrator 16.0.0, SVG Export Plug-In . SVG Version: 6.00 Build 0)  -->
<!DOCTYPE svg PUBLIC "-//W3C//DTD SVG 1.1//EN" "http://www.w3.org/Graphics/SVG/1.1/DTD/svg11.dtd">
<svg version="1.1" id="Layer_1" xmlns="http://www.w3.org/2000/svg" xmlns:xlink="http://www.w3.org/1999/xlink" x="0px" y="0px"
	 width="350px" height="350px" viewBox="0 0 350 350" enable-background="new 0 0 350 350" xml:space="preserve">
<g>
	<path fill="#FBBE3A" d="M257.328,194.245c15.26,12.563,29.049,29.243,12.287,40.776c11.255-26.271-43.512-39.231-63.489-45.931
		c0.875-4.954-0.952-10.264-3.882-14.187c-5.747-7.609-14.426-10.463-23.542-11.375c-2.694-6.776-9.074-12.127-14.306-16.881
		c-7.609-6.856-14.426-14.347-17.873-24.136c-0.199-0.594-0.555-0.95-0.952-1.188c-1.743-3.805-4.081-7.174-7.806-9.353
		c-2.419-1.387-5.153-1.784-7.888-1.863c-0.635,0-1.546-0.039-2.458,0.041c-3.446-10.819-12.8-18.192-24.016-19.459
		c-10.858-1.229-17.278,7.767-17.437,17.516c-2.734,0.317-5.23,1.467-7.489,3.172c3.208-21.044,23.382-31.349,44.188-25.483
		c16.644,4.677,29.405,21.677,39.907,34.321c12.207,14.662,22.946,25.322,38.839,35.588
		C220.392,168.087,239.851,179.858,257.328,194.245z"/>
	<path fill="#1D1D1B" d="M196.814,192.063c1.029-0.511,0.911-0.434,1.625-1.27c0.157-0.154,0,0.081,0.395-0.631
		c0.12-0.197,0.238-0.438,0.358-0.635c0-0.038,0-0.038,0-0.038c0.674-1.861,0.712-3.41,0.315-5.151
		c-0.515-2.299-1.386-4.242-2.932-6.105c-4.756-5.666-12.086-9.075-19.102-10.778c-0.872-0.199-1.349-0.911-1.428-1.664
		c-7.568-5.153-14.94-12.564-21.241-19.023c-6.539-6.698-10.78-13.83-12.286-23.144c-0.039-0.041,0-0.041,0-0.08
		c-4.834-4.557-9.234-7.094-16.05-6.3c-1.705,3.09-2.537,6.3-0.238,9.511c2.337,3.249,5.865,5.351,8.402,8.402
		c0.277,0.277,0.397,0.594,0.436,0.871c1.981-0.277,4.161,1.981,2.854,4.042c-1.546,2.458-3.331,5.151-3.924,8.085
		c-0.714,3.687,8.679,1.268,9.71,1.07c1.624-0.276,3.21,0.436,3.685,2.1c3.409,11.851,12.247,18.786,21.917,24.969
		c1.229-0.991,3.052-1.19,4.398,0.238c5.35,5.706,10.263,13.551,18.19,15.613c1.349,0.356,1.546,0.438,3.092,0.356
		c0.277-0.039,0.396-0.039,0.436,0h0.041c0-0.039,0.077-0.081,0.355-0.12C195.982,192.341,196.735,192.063,196.814,192.063z
		 M208.583,149.621c25.524,16.169,122.224,71.693,55.525,98.559c-0.755,0.278-1.428,0.356-2.063,0.317
		c-1.266,4.915-5.508,9.792-12.923,14.029c-0.116,0.081-0.232,0.081-0.355,0.12c-0.236,0.832-0.751,1.625-1.819,2.222
		c-42.328,23.02-99.354-3.848-132.843-31.349c-18.784-15.38-36.461-34.44-45.258-57.507c-5.707-15.02-10.463-39.471,1.029-53.342
		c0.873-1.862,1.864-3.605,2.973-5.23c-0.08-0.118-0.159-0.197-0.236-0.356c-15.061-37.213,41.571-50.213,65.191-33.448
		c17.001,12.086,28.653,28.653,42.484,43.909C188.609,136.741,198.161,143.042,208.583,149.621z M269.615,235.021
		c16.762-11.533,2.973-28.214-12.287-40.776c-17.478-14.387-36.937-26.158-55.916-38.442
		c-15.893-10.266-26.632-20.926-38.839-35.588c-10.502-12.644-23.264-29.644-39.907-34.321
		c-20.806-5.865-40.979,4.439-44.188,25.483c2.258-1.705,4.754-2.854,7.489-3.172c0.159-9.749,6.579-18.745,17.437-17.516
		c11.216,1.267,20.57,8.64,24.016,19.459c0.912-0.08,1.823-0.041,2.458-0.041c2.734,0.079,5.469,0.476,7.888,1.863
		c3.725,2.179,6.063,5.548,7.806,9.353c0.397,0.238,0.753,0.594,0.952,1.188c3.446,9.79,10.264,17.28,17.873,24.136
		c5.232,4.754,11.612,10.105,14.306,16.881c9.116,0.912,17.795,3.766,23.542,11.375c2.93,3.923,4.757,9.232,3.882,14.187
		C226.104,195.79,280.87,208.751,269.615,235.021z M259.271,236.848c3.724-4.675,6.146-10.387,1.192-15.457
		c-5.434-5.589-12.726-8.72-19.857-11.494c-12.288-4.791-26.159-7.446-37.452-14.544c-2.97,3.409-7.647,4.838-12.403,3.727
		c-4.002-0.952-7.609-3.17-10.779-5.747c-4.042-3.251-8.164-7.369-10.938-11.812c-11.254-4.635-20.568-15.256-26.036-25.837
		c-5.43,1.546-12.207,2.337-15.376-3.131c-2.854-4.993,1.506-10.66,4.875-14.465c-0.041,0-0.041,0-0.079-0.039
		c-4.915-2.14-9.987-6.024-12.563-10.819c-2.419-4.559-0.753-9.79,1.308-14.109c-3.172-6.697-8.64-12.8-16.328-14.029
		c-7.214-1.149-12.088,2.734-13.277,9.59c2.417,0.673,4.954,1.941,7.609,4.042c10.74,8.481,13.079,16.407,14.823,29.682
		c2.614,19.856,16.764,36.937,32.02,49.419c19.341,15.81,38.245,21.162,62.302,25.044c13.592,2.222,27.978,4.954,40.304,11.494
		C253.403,230.942,256.934,233.837,259.271,236.848z M245.361,256.067c28.338-21.681-39.909-30.598-50.846-32.536
		c-19.26-3.448-35.191-9.672-50.45-22.195c-12.563-10.303-29.049-25.679-34.953-41.411c-3.131-8.363-2.339-16.963-4.36-25.523
		c-1.943-8.044-16.328-30.793-28.614-10.382c-1.07,1.585-1.941,3.249-2.734,4.954c-0.832,6.142-2.258,12.246-1.823,18.625
		c0.673,10.939,3.487,21.917,8.52,31.665c9.669,18.705,23.699,34.994,40.186,48.11c32.654,25.918,81.36,49.538,122.813,30.872
		c0.317-0.159,0.596-0.159,0.913-0.236C244.251,257.298,244.649,256.624,245.361,256.067z"/>
	<path fill="#683C11" d="M260.463,221.391c4.954,5.07,2.531,10.782-1.192,15.457c-2.337-3.011-5.867-5.905-10.658-8.483
		c-12.326-6.54-26.712-9.272-40.304-11.494c-24.057-3.882-42.96-9.234-62.302-25.044c-15.256-12.482-29.405-29.563-32.02-49.419
		c-1.744-13.275-4.083-21.201-14.823-29.682c-2.655-2.102-5.192-3.369-7.609-4.042c1.188-6.856,6.063-10.74,13.277-9.59
		c7.688,1.229,13.156,7.332,16.328,14.029c-2.061,4.319-3.727,9.55-1.308,14.109c2.576,4.795,7.647,8.679,12.563,10.819
		c0.039,0.039,0.039,0.039,0.079,0.039c-3.369,3.805-7.729,9.472-4.875,14.465c3.17,5.468,9.946,4.677,15.376,3.131
		c5.468,10.581,14.782,21.203,26.036,25.837c2.775,4.442,6.897,8.561,10.938,11.812c3.17,2.577,6.777,4.795,10.779,5.747
		c4.756,1.111,9.434-0.317,12.403-3.727c11.293,7.098,25.164,9.753,37.452,14.544C247.737,212.671,255.029,215.802,260.463,221.391z
		"/>
	<path fill="#FBBE3A" d="M194.516,223.531c10.937,1.938,79.184,10.855,50.846,32.536c-0.712,0.557-1.11,1.23-1.347,1.942
		c-0.317,0.077-0.596,0.077-0.913,0.236c-41.453,18.666-90.159-4.954-122.813-30.872c-16.487-13.116-30.517-29.405-40.186-48.11
		c-5.033-9.749-7.847-20.726-8.52-31.665c-0.436-6.38,0.991-12.483,1.823-18.625c0.793-1.705,1.664-3.369,2.734-4.954
		c12.286-20.411,26.671,2.337,28.614,10.382c2.021,8.561,1.229,17.16,4.36,25.523c5.904,15.732,22.391,31.108,34.953,41.411
		C159.324,213.859,175.256,220.083,194.516,223.531z"/>
	<path fill="#FF4121" d="M199.508,184.338c0.396,1.741,0.358,3.29-0.315,5.151c0,0,0,0,0,0.038c-0.12,0.197-0.238,0.438-0.358,0.635
		c-0.395,0.712-0.237,0.477-0.395,0.631c-0.714,0.836-0.596,0.759-1.625,1.27c-0.079,0-0.832,0.278-0.991,0.317
		c-0.278,0.039-0.355,0.081-0.355,0.12h-0.041c-0.039-0.039-0.158-0.039-0.436,0c-1.546,0.081-1.743,0-3.092-0.356
		c-7.927-2.063-12.84-9.907-18.19-15.613c-1.347-1.429-3.169-1.229-4.398-0.238c-9.669-6.183-18.507-13.118-21.917-24.969
		c-0.474-1.664-2.061-2.376-3.685-2.1c-1.031,0.198-10.424,2.617-9.71-1.07c0.594-2.934,2.378-5.627,3.924-8.085
		c1.306-2.061-0.873-4.319-2.854-4.042c-0.039-0.277-0.159-0.594-0.436-0.871c-2.537-3.051-6.064-5.153-8.402-8.402
		c-2.299-3.21-1.467-6.421,0.238-9.511c6.815-0.793,11.216,1.743,16.05,6.3c0,0.039-0.039,0.039,0,0.08
		c1.505,9.313,5.747,16.446,12.286,23.144c6.301,6.459,13.673,13.87,21.241,19.023c0.079,0.753,0.556,1.465,1.428,1.664
		c7.016,1.703,14.346,5.113,19.102,10.778C198.122,180.096,198.993,182.039,199.508,184.338z"/>
</g>
</svg>
