<?xml version="1.0" encoding="utf-8"?>
<!-- Generator: Adobe Illustrator 16.0.0, SVG Export Plug-In . SVG Version: 6.00 Build 0)  -->
<!DOCTYPE svg PUBLIC "-//W3C//DTD SVG 1.1//EN" "http://www.w3.org/Graphics/SVG/1.1/DTD/svg11.dtd">
<svg version="1.1" id="Layer_1" xmlns="http://www.w3.org/2000/svg" xmlns:xlink="http://www.w3.org/1999/xlink" x="0px" y="0px"
	 width="350px" height="350px" viewBox="0 0 350 350" enable-background="new 0 0 350 350" xml:space="preserve">
<g>
	<ellipse opacity="0.3" fill="#C0B6A1" cx="174.117" cy="307.952" rx="94.224" ry="15.199"/>
	<polygon opacity="0.5" fill="#E6DACC" points="243.317,107.168 237.055,100.344 235.946,109.541 235.423,100.119 228.785,105.165 
		234.31,98.667 226.032,96.606 234.367,96.836 229.299,88.877 235.562,95.702 236.672,86.506 237.194,95.926 243.83,90.881 
		238.308,97.381 246.584,99.439 238.251,99.209 	"/>
	<g>
		<path fill="#FFBF96" d="M210.331,95.08c0,0,1.243,10.315,0.827,11.187c-0.415,0.869-2.281,2.59-4.192,2.314
			c-1.909-0.274-7.996-3.342-8.357-5.342c-0.362-2.003,0.125-19.388,0.361-19.304C199.209,84.019,210.331,95.08,210.331,95.08z"/>
	</g>
	<g id="head_4_">
		<path fill="#C44A39" d="M224.394,54.229c2.419,4.281,4.152,9.564,2.218,13.902c-1.423,3.188-4.915,4.428-7.963,5.479
			c-3.159,1.091-7.299,0.465-10.065,2.481c-3.147,2.296-4.212,7.223-6.373,10.335c-0.757,1.089-1.47,2.208-2.166,3.334
			c-1.542,2.499-7.186,1.64-9.499,0.8c-0.986-0.357-1.9-0.883-2.81-1.406c-5.674-3.264-11.349-6.53-17.023-9.795
			c3.04-2.259,5.637-5.109,7.607-8.344c1.236-2.029,2.223-4.201,3.205-6.365c1.234-2.72,2.56-5.323,3.606-8.134
			c1.701-4.568,3.443-8.6,7.886-11.162c3.621-2.088,7.969-2.635,12.136-2.292c4.409,0.363,10.656,1.115,14.032,4.19
			c1.09,0.992,1.994,2.177,2.864,3.36C222.837,51.685,223.648,52.909,224.394,54.229z"/>
		<path fill="#C44A39" d="M226.714,80.683c-0.766,2.572-1.963,4.976-3.54,7.254c-0.249,0.359-0.528,0.702-0.85,1.002
			c-0.144,0.134-0.927,0.566-0.959,0.704c0.438-1.842,0.876-3.684,1.314-5.527c0.723-3.042,1.482-6.403,0.633-9.501
			c-1.074-3.921-1.636-7.957-1.949-12.005c-0.161-2.08,2.324-5.591,4.333-3.134c1.212,1.486,1.55,3.78,1.666,5.584
			c0.232,3.619,0.548,7.047,0.259,10.677C227.49,77.455,227.185,79.101,226.714,80.683z"/>
		<path fill="#FFCAA1" d="M221.191,54.622c0,0,4.437,6.192,4.405,16.08c-0.014,4.964,0.26,10.038-1.349,14.825
			c-1.585,4.718-5.733,12.143-11.276,12.736c-5.185,0.555-9.648-1.074-13.241-4.915c-3.612-3.861-5.542-8.708-7.147-13.649
			c-1.738-5.353-2.871-10.968-2.597-16.619c0.136-2.797,0.592-5.955,2.341-8.251C194.995,51.324,206.836,38.823,221.191,54.622z"/>
		<path fill="#925339" d="M200.196,71.954c-0.611,0.399-1.369,1.42-1.366,2.17c0.735-0.784,1.9-1.1,2.899-1.412
			c1.165-0.362,2.417-0.211,3.638-0.177c0.07,0.003,0.15,0,0.202-0.05c0.037-0.036,0.05-0.094,0.06-0.146
			c0.308-1.598-2.502-1.218-3.334-1.076C201.437,71.411,200.727,71.608,200.196,71.954z"/>
		<path fill="#925339" d="M220.467,69.398c1.266-0.087,2.393-0.023,3.384,0.84c0.087,0.075,0.167,0.168,0.138,0.289
			c0.023-0.098-0.589-0.261-0.673-0.282c-1.075-0.259-2.232-0.171-3.274,0.188c-0.498,0.171-0.907,0.461-1.376,0.679
			c-0.432,0.199-0.725-0.038-0.745-0.491C217.876,69.64,219.816,69.443,220.467,69.398z"/>
		<path fill="#FFF2E3" d="M212.279,85.917c1.768,0.036,3.543-0.082,5.168-0.806c0.643-0.287,1.189-0.8,1.92-0.828
			c0.384-0.014-0.604,1.94-0.689,2.1c-1.655,3.104-5.685,4.996-8.993,3.98c-1.222-0.376-2.416-1.042-3.373-1.921
			c-0.45-0.412-0.801-1.085-1.099-1.618c-0.407-0.729-0.809-1.191-0.01-1.335c0.762-0.138,1.893,0.215,2.682,0.254
			c0.63,0.031,1.264,0.042,1.894,0.069C210.599,85.85,211.438,85.901,212.279,85.917z"/>
		<path fill="#F5AB87" d="M215.816,81.821c-0.032,0.071-0.076,0.139-0.131,0.205c-0.659,0.792-2.061,0.888-3,0.937
			c0.631-0.278,1.228-0.677,1.623-1.241c0.396-0.563,0.569-1.311,0.336-1.961c-0.168-0.473-0.312-0.951-0.438-1.436
			c-0.113-0.44-0.396-0.966-0.247-1.424c0.16,0.224,0.357,0.502,0.48,0.763c0.328,0.708,0.658,1.416,0.951,2.14
			C215.62,80.374,216.114,81.188,215.816,81.821z"/>
		<path fill="#C44A39" d="M226.638,73.124c-0.764-0.851-0.893-2.371-1.552-3.395c-1.304-2.026-3.367-3.404-4.469-5.601
			c-0.553-1.102-2.521-5.688-1.539-6.832c-4.554,5.306-11.392,7.696-17.299,11.089c-2.72,1.563-6.194,3.591-7.903,6.33
			c-0.855,1.371-0.388,2.226-0.189,3.723c0.052,0.381,0.372,3.979-0.641,3.435c-4.313-2.317-6.899-14.65-6.668-16.305
			c0.503-3.565,0.746-7.289,2.573-10.507c2.046-3.601,5.913-6.407,9.88-7.505c3.047-0.842,6.26-0.791,9.422-0.731
			c2.992,0.055,6.14-0.1,8.953,1.082c3.129,1.315,4.851,3.711,6.746,6.373c1.978,2.781,3.043,6.107,3.446,9.475
			c0.199,1.648,0.239,3.313,0.157,4.969C227.539,69.057,226.735,73.232,226.638,73.124z"/>
		<path fill="#FFCAA1" d="M185.584,80.34c0.371,2.745,2.848,4.674,5.529,4.312c2.681-0.364,4.558-1.177,4.186-3.921
			c-0.369-2.742-2.924-6.083-5.605-5.72C187.011,75.373,185.212,77.598,185.584,80.34z"/>
		<path fill="#864023" d="M206.969,76.595c-0.196-1.464-1.545-2.491-3.01-2.292c-1.464,0.199-2.489,1.545-2.291,3.009
			c0.198,1.464,1.359,1.578,2.821,1.378C205.955,78.493,207.167,78.059,206.969,76.595z"/>
		<path fill="#864023" d="M222.396,74.003c-0.168-1.237-1.307-2.104-2.544-1.936c-1.236,0.167-2.104,1.307-1.937,2.542
			c0.167,1.238,1.006,1.762,2.243,1.595C221.394,76.037,222.563,75.241,222.396,74.003z"/>
		<path fill="#D06E61" d="M194.468,52.198c-0.726,1.05-0.87,2.207-0.323,2.585c0.548,0.379,1.028-0.425,1.754-1.474
			c0.728-1.05,1.424-1.947,0.876-2.325C196.226,50.605,195.194,51.148,194.468,52.198z"/>
		<path fill="#D06E61" d="M191.953,59.009c-0.726,1.05-0.869,2.208-0.322,2.587c0.548,0.379,1.027-0.426,1.753-1.475
			s1.423-1.945,0.875-2.325C193.713,57.417,192.68,57.959,191.953,59.009z"/>
		<path fill="#D06E61" d="M188.077,59.137c-0.726,1.049-0.871,2.208-0.321,2.586c0.548,0.379,1.026-0.425,1.751-1.475
			c0.727-1.049,1.425-1.947,0.877-2.325C189.835,57.544,188.805,58.088,188.077,59.137z"/>
	</g>
	<path fill="#632B1F" d="M203.651,148.233l9.91-10.157c0,0-12.261-14.437-16.953-19.697c-4.422-4.955-11.071-12.793-15.919-17.331
		c-1.419-1.328-9.49,10.771-5.347,15.034L203.651,148.233z"/>
	<path fill="#FFBF96" d="M184.006,106.152c-4.096,3.919-5.065,31.878-6.58,34.26c-1.515,2.379-36.563,9.302-39.16,9.952v7.14
		c0,0,28.922-3.926,34.549-5.656c5.624-1.731,9.791-3.24,12.604-9.514c2.813-6.273,7.801-33.943,7.801-33.943
		s-3.17-4.251-6.437-3.506C186.425,104.967,184.884,105.312,184.006,106.152z"/>
	<g>
		<path fill="#FFF2E3" d="M205.281,296.792c-0.049,1.588-0.047,3.176-0.095,4.733c-0.047,1.526-0.065,3.161,0.766,4.441
			c0.363,0.561,0.867,1.013,1.364,1.458c1.343,1.203,3.9,2.893,5.16,0.729c1.144-1.959,0.792-4.717,0.854-6.87
			c0.132-4.657-0.844-9.238-1.818-13.742c-1.3-0.092-2.604-0.131-3.907-0.117c-0.208,0.003-0.434,0.013-0.596,0.144
			c-0.122,0.099-0.186,0.249-0.244,0.394C205.646,290.763,205.376,293.777,205.281,296.792z"/>
		<path fill="#FFCAA1" d="M216.691,207.363c-0.108,2.504-0.225,5.005-0.342,7.509c-0.399,8.551-0.828,17.1-1.291,25.646
			c-0.551,10.203-1.143,20.402-1.87,30.594c-0.304,4.249-0.63,8.498-1.027,12.74c-0.156,1.655-0.322,3.31-0.515,4.96
			c-0.589,5.024,2.157,10.448,0.164,15.245c-0.842,2.025-3.349,1-4.285-0.342c-1.449-2.078-1.127-4.652-0.988-7.037
			c0.147-2.527,0.58-5.07,0.444-7.605c-0.31-5.771-1.167-9.362-1.302-15.156c-0.22-9.38-0.546-18.758-0.895-28.135
			c-0.324-8.718-0.679-17.436-1.051-26.15c-0.164-3.845-0.33-7.688-0.506-11.53L216.691,207.363z"/>
		<path fill="#FFCAA1" d="M187.665,202.42c0,0,6.097,70.088,9.179,84.992c0,0-4.553,8.479-8.459,10.822
			c-3.906,2.343-8.112,2.142-8.193,3.825c-0.081,1.682,12.58,1.443,14.321,0.262c1.743-1.182,3.667-6.148,5.831-7.31
			c2.163-1.163,3.566-4.047,2.063-7.913c-1.501-3.866-1.261-84.455-1.261-84.455L187.665,202.42z"/>
		<path fill="#FFF2E3" d="M186.34,299.063l2.51,1.755c0,0,2.946-0.311,5.435-2.841s8.23-10.655,8.23-10.655s0.997,1.57,0.988,2.923
			c-0.009,1.352-0.817,6.5-0.944,7.958c-0.125,1.461-0.125,1.461-0.125,1.461l-0.978-0.063l0.335-5.379c0,0-1.82,1.547-2.404,1.971
			c-0.585,0.423-1.795,2.168-2.543,3.655c-0.747,1.486-0.972,2.659-2.858,3.188c-1.885,0.531-6.626,0.697-8.877,0.591
			c-2.756-0.133-5.253-0.411-5.46-1.332C179.276,300.643,186.34,299.063,186.34,299.063z"/>
	</g>
	<path fill="#FFBF96" d="M211.029,101.911c0,0-1.714,5.277-6.781,5.081c-3.794-0.148-5.005-4.975-5.005-4.975l-12.461,2.868
		c0,0-3.721,16.575,0.198,23.146c3.921,6.57,5.098,17.155,5.098,17.155s-5.457,12.005-6.436,19.833
		c-0.979,7.826,0.897,43.877,0.897,43.877l30.226,0.039c0,0,1.206-31.633,1.206-42.069c0-10.435-5.404-21.812-5.404-21.812
		s5.437-22.9,6.305-27.188c0.869-4.287,5.212-12.646,5.212-12.646L211.029,101.911z"/>
	<g>
		<g>
			<path fill="#925339" d="M131.946,301.04c0,0,0.058-1.089,0.425-1.161c0.369-0.073,10.204-1.923,10.435,0.637
				c0.23,2.563,0.452,7.034,0.452,7.034s-7.524,2.883-10.782,0.8c-3.259-2.082-20.485,7.03-25.776-1.438
				C106.699,306.911,131.459,301.651,131.946,301.04z"/>
			<path fill="#864023" d="M119.22,304.197c0,0,0.559,1.486,1.563,1.447c1.002-0.038,12.044-2.282,12.106-3.462
				c0.061-1.182-1.129-2.791-2.424-2.403C129.171,300.167,122.879,303.843,119.22,304.197z"/>
			<path fill="#9E664F" d="M143.267,307.44l0.015,1.382c-5.794,2.885-10.246,1.015-11.461-0.144
				c-1.214-1.154-9.249,2.794-17.256,2.739c-8.008-0.055-7.865-4.507-7.865-4.507c5.291,8.469,22.518-0.644,25.776,1.438
				C135.733,310.433,143.267,307.44,143.267,307.44z"/>
			<path fill="#864023" d="M106.784,307.008c5.291,8.468,22.516-0.645,25.776,1.438c3.258,2.08,10.784-0.802,10.784-0.802
				s-0.121-2.439-0.279-4.746C143.066,302.898,141.846,309.021,106.784,307.008z"/>
		</g>
		<g>
			<path fill="#925339" d="M171.413,300.522c0,0-0.027-1.09-0.393-1.173c-0.366-0.082-10.149-2.198-10.448,0.355
				c-0.3,2.555-0.642,7.019-0.642,7.019s7.442,3.085,10.757,1.092c3.315-1.993,20.289,7.582,25.805-0.742
				C196.492,307.073,171.884,301.147,171.413,300.522z"/>
			<path fill="#864023" d="M184.05,304.023c0,0-0.6,1.469-1.601,1.403c-1.002-0.064-11.979-2.606-12.009-3.787
				c-0.03-1.182,1.204-2.76,2.487-2.338C174.212,299.724,180.4,303.57,184.05,304.023z"/>
			<path fill="#9E664F" d="M159.923,306.616l-0.051,1.381c5.714,3.038,10.216,1.288,11.461,0.166
				c1.244-1.122,9.17,3.043,17.176,3.203c8.006,0.162,7.983-4.293,7.983-4.293c-5.517,8.324-22.49-1.251-25.805,0.742
				C167.373,309.809,159.923,306.616,159.923,306.616z"/>
			<path fill="#864023" d="M196.405,307.165c-5.519,8.324-22.492-1.25-25.807,0.744c-3.314,1.993-10.757-1.093-10.757-1.093
				s0.186-2.435,0.405-4.736C160.246,302.08,161.301,308.235,196.405,307.165z"/>
		</g>
		<g>
			<path fill="#9E664F" d="M170.687,292.642c0,0-1.327,6.599-1.179,7.224c0.147,0.627-1.748,1.892-3.657,1.971
				c-1.91,0.079-4.222-0.261-4.253-1.627c-0.031-1.368,0.021-7.942,0.021-7.942S167.382,290.381,170.687,292.642z"/>
			<g>
				<path fill="#9E664F" d="M133.251,293.55c0,0,0.385,6.72,0.153,7.317c-0.234,0.601,1.463,2.118,3.343,2.465
					c1.879,0.349,4.215,0.336,4.438-1.013c0.224-1.348,1.098-7.865,1.098-7.865S136.842,291.777,133.251,293.55z"/>
				<g>
					<path fill="#7D4539" d="M153.666,190.008c2.167-8.407,24.424-4.165,25.393-1.513c0.907,2.486,0.459,40.141-1.527,51.878
						c0.751,7.116-4.602,28.687-4.488,33.714c0.123,5.465,0.067,13.248-0.698,17.987c-0.632,3.927-11.617,3.706-13.043,0
						c-1.374-3.565,3.488-47.546,3.857-50.507C162.68,236.564,153.666,190.008,153.666,190.008z"/>
					<path fill="#7D4539" d="M133.528,274.848c0.753-4.562-1.103-23.632-0.051-32.066c-2.256-9.366-2.801-50.86-1.846-53.478
						c0.967-2.652,23.918-6.989,26.087,1.42c0,0-9.761,42.744-10.131,50.753c0.188,0.71,0.297,1.501,0.305,2.38
						c0,0-2.437,45.811-3.026,49.737c-0.379,2.533-13.297,2.407-13.424-0.887C131.258,287.911,132.637,280.24,133.528,274.848z"/>
				</g>
			</g>
			<path fill="#7D4539" d="M178.648,178.651c0,0,0.468,9.388-0.243,11.568c-0.445,1.373-18.304,26.486-18.304,26.486
				s-5.958,0.954-8.342,1.431c-10.006,2.001-17.604-24.281-18.404-24.962c-1.815-1.545-2.621-17.765-2.621-17.765L178.648,178.651z"
				/>
		</g>
	</g>
	<path fill="#27BDBE" d="M157.175,95.306c0,0,14.84-0.738,19.398,7.625c4.559,8.364,0.248,37.781,0.323,42.378
		c0.076,4.598,1.326,22.579,2.159,23.917c0.833,1.338-0.138,3.381-1.792,4.078c-1.651,0.694-13.312,0.27-20.357,0.467
		c-7.047,0.195-22.549-3.651-22.549-3.651s2.585-17,2.348-24.811c-0.234-7.81-10.412-35.584-6.507-40.38
		C134.099,100.134,144.774,95.769,157.175,95.306z"/>
	<path fill="#FFF2E3" d="M152.218,101.032l5.142,10.549l3.28-10.904c0,0,4.433-4.787,5.23-4.787s13.032,4.079,13.829,5.851
		c0,0-1.861,33.333-1.772,39.627c0.089,6.293,0.976,37.283,0.976,37.283l-44.324-0.797c0,0,3.368-25.14,2.393-36.931
		c-0.974-11.79-7.447-36.788-7.447-36.788s10.284-5.94,13.475-7.448C146.189,95.181,152.218,101.032,152.218,101.032z"/>
	<g>
		<path fill="#DB8D5A" d="M161.764,83.503c0,0,1.838,13.175,1.327,14.297c-0.521,1.148-1.902,1.441-3.105,1.779
			c-1.321,0.371-2.667,1.797-3.266,3.191c-0.521-0.969-1.136-1.932-2.057-2.535c-1.493-0.977-3.066-1.793-4.567-2.776
			c-1.108-0.726-2.857-1.811-3.141-3.232c-0.512-2.553-0.307-24.818,0-24.716C147.262,69.612,161.764,83.503,161.764,83.503z"/>
	</g>
	<g id="head_2_">
		<path fill="#F5B27A" d="M182.412,66.263c-0.249,3.458-3.407,7.857-6.09,6.869c-2.01-0.74-0.867-7.676-0.224-8.975
			c0.644-1.297,2.863-1.918,4.15-1.523C181.931,63.149,182.53,64.64,182.412,66.263z"/>
		<path fill="#BE6B41" d="M178.508,58.268c0,0,1.573,10.685-0.691,11.578c-2.264,0.892-2.492-9.613-2.492-9.613L178.508,58.268z"/>
		<path fill="#BE6B41" d="M177.738,45.154c0.034,0.039,0.068,0.075,0.101,0.114c2.348,2.631,2.087,6.79,1.906,10.115
			c-0.165,3.013-0.479,7.738-2.611,10.05c-0.675,0.73-1.556,1.244-2.471,1.638c-3.238,1.391-6.895,1.358-10.411,1.11
			c-2.765-0.193-5.542-0.511-8.314-0.304c-2.404,0.179-4.782-0.051-7.19,0.375c-1.699,0.299-1.292,0.832-1.316,2.604
			c-0.021,1.477-0.045,2.954-0.067,4.432c0,2.661-0.142,5.319-0.131,7.976c0.001,0.216-0.065,0.504-0.28,0.504
			c-0.591-1.298-1.287-2.55-2.079-3.737c-2.795-4.196-6.043-8.451-7.901-13.214c-1.517-3.891-2.042-8.149-1.853-12.308
			c0.182-4.007,0.833-9.222,3.733-12.265c1.715-1.798,4.239-3.304,6.361-4.581c2.597-1.563,5.349-2.604,8.355-3.023
			c2.901-0.406,6.099-0.615,9.008-0.225C168.653,35.23,173.858,40.805,177.738,45.154z"/>
		<path fill="#F5B27A" d="M172.619,45.898c0,0,4.627,6.208,4.786,16.261c0.055,3.475,0.579,7.149,0.623,10.711
			c0.051,4.096-0.837,8.593-2.395,12.377c-1.116,2.711-3.247,4.244-6.061,4.913c-1.684,0.4-3.397,0.702-5.118,0.888
			c-2.321,0.25-5.717,0.702-7.802-0.675c-3.682-2.428-10.938-9.264-13.96-22.128c-3.02-12.864-1.303-19,0.592-21.587
			C145.928,43.046,157.725,30.114,172.619,45.898z"/>
		<path fill="#FFF2E3" d="M158.533,81.167c0.051,0.152,0.154,0.303,0.257,0.423c0.786,0.905,1.579,1.669,2.762,2.029
			c1.949,0.596,4.574,0.499,6.542,0.024c1.091-0.264,2.298-0.468,3.128-1.282c0.803-0.789,1.4-1.939,1.633-3.031
			c0.048-0.22,0.292-0.926,0.053-1.069c-0.238-0.144-1.265,0.483-1.504,0.591c-2.123,0.965-4.244,2.041-6.636,2.083
			c-1.558,0.025-3.111-0.101-4.666-0.165c-0.247-0.011-1.322-0.193-1.494-0.037C158.482,80.847,158.479,81.006,158.533,81.167z"/>
		<path fill="#BE6B41" d="M163.386,91.209c-0.003,0.09,0.132,0.045,0.42,0.059c1.259,0.056,2.581,0.092,3.836-0.11
			c1.303-0.208,2.739-0.789,3.758-1.614c0.688-0.556-0.475-0.677-0.898-0.963c-0.506-0.343-0.936-0.803-1.236-1.335
			c-0.282-0.499-0.426-1.05-0.463-1.62c-0.019-0.292,0.301-1.066,0.06-1.298c-0.178-0.17-3.046,0.352-3.046,0.352
			c-0.251,1.25,0.034,2.431-0.53,3.668c-0.294,0.644-0.678,1.247-1.136,1.785c-0.202,0.232-0.475,0.457-0.615,0.73
			C163.439,91.054,163.388,91.155,163.386,91.209z"/>
		<path fill="#BE6B41" d="M177.077,47.838c0.062,0.128,0.121,0.258,0.175,0.389c0.48,1.175,1.093,5.142-0.645,5.728
			c-0.456,0.154-0.931-0.15-1.311-0.446c-1.782-1.379-3.443-2.918-4.956-4.588c-0.191-0.21-0.384-0.427-0.627-0.573
			c-0.01-0.008-3.171,2.782-3.49,3.021c-3.005,2.245-6.891,3.02-10.576,3.059c-1.847,0.019-3.702-0.146-5.517-0.494
			c-1.863-0.356-3.07-1.405-4.466-2.628c-0.218-0.192-0.489-0.373-0.778-0.333c-0.444,0.063-0.646,0.581-0.745,1.018
			c-0.92,4.034-0.713,8.246-0.187,12.318c0.259,1.993,0.768,3.975,0.979,5.968c0.039,0.375,0.216,4.175-0.401,3.858
			c-4.43-2.271-7.294-14.76-7.091-16.446c0.374-3.087,0.603-6.062,1.698-9.018c1.938-5.236,5.738-8.612,10.939-10.503
			c4.7-1.706,10.002-2.089,14.926-1.266c4.286,0.718,7.741,5.191,10.299,8.362C175.96,46.077,176.621,46.904,177.077,47.838z"/>
		<path fill="#BE6B41" d="M152.235,58.043c0.085-0.184,0.155-0.375,0.205-0.577c0.362-1.437,0.374-2.981,0.366-4.452
			c-0.004-0.562-0.261-4.729-1.521-4.069c-0.156,0.083-0.26,0.236-0.357,0.386c-0.902,1.375-1.882,2.528-3.062,3.689
			c-0.313,0.307-0.632,0.613-0.989,0.866c-0.485,0.345-2.199,0.447-2.33,1.123c-0.183,0.956,1.223,1.301,1.896,1.421
			c1.106,0.2,2.142-0.053,2.884-0.965c0.187,0.974-0.371,1.921-0.906,2.758c-0.68,1.063-1.355,1.713-2.273,2.552
			c-0.082,0.075-0.167,0.156-0.193,0.263c-0.043,0.186,0.125,0.367,0.31,0.411C148.669,62.024,151.248,60.177,152.235,58.043z"/>
		<path fill="#D1977A" d="M147.101,40.277c-0.933,0.903-1.307,2.027-0.837,2.514c0.47,0.487,1.109-0.218,2.042-1.121
			c0.934-0.9,1.808-1.655,1.337-2.142C149.172,39.04,148.035,39.376,147.101,40.277z"/>
		<path fill="#D1977A" d="M143.235,46.566c-0.932,0.901-1.308,2.025-0.838,2.514c0.471,0.487,1.109-0.219,2.042-1.12
			c0.933-0.902,1.808-1.657,1.337-2.143C145.307,45.33,144.168,45.665,143.235,46.566z"/>
		<path fill="#D1977A" d="M139.347,45.921c-0.934,0.9-1.31,2.026-0.838,2.513c0.47,0.487,1.109-0.219,2.041-1.12
			c0.934-0.901,1.808-1.656,1.338-2.143C141.417,44.683,140.279,45.019,139.347,45.921z"/>
		<path fill="#FFC593" d="M136.068,71.467c0.893,2.273,2.773,4.706,4.823,5.616c2.625,1.164,4.607-1.444,4.225-3.93
			c-0.5-3.239-3.063-6.489-6.347-7.107c-2.667-0.502-3.592,1.733-3.127,4.009C135.732,70.508,135.877,70.984,136.068,71.467z"/>
		<path fill="#6F3023" d="M155.877,71.178c3.114-0.483,2.174-5.837-0.832-5.373C152.672,66.173,153.372,71.567,155.877,71.178z"/>
		<path fill="#6F3023" d="M171.627,68.442c1.549,0.794,2.476-1.315,2.35-2.732c-0.101-1.129-0.823-2.181-2.025-2.273
			c-0.919-0.071-1.577,0.373-1.733,1.288c-0.201,1.184,0.09,2.859,1.192,3.591C171.484,68.364,171.556,68.406,171.627,68.442z"/>
		<path fill="#BE6B41" d="M175.057,59.581c-0.065,0.218-0.176,0.411-0.354,0.552c-0.851,0.672-2.688,0.021-3.731,0.256
			c-1.866,0.422-3.159,2.258-3.943,0.925c-0.333-0.563,0.279-2.564,3.817-3.123c1.058-0.166,2.219-0.264,3.284-0.331
			c0.58-0.037,0.577-0.262,0.919,0.236C175.262,58.407,175.157,59.245,175.057,59.581z"/>
		<path fill="#BE6B41" d="M159.166,62.653c0.36,1.136-2.502-0.056-4.642,0.188c-1.047,0.118-2.108,1.069-3.127,1.04
			c-0.499-0.017-2.148-1.425-1.295-1.833c1.067-0.511,2.216-1.292,3.4-1.427c0.955-0.107,2.119-0.063,3.076,0.05
			C157.92,60.828,158.753,61.349,159.166,62.653z"/>
		<path fill="#DB8D5A" d="M165.847,63.272c0,0-0.155,1.677,0.214,2.396c0.37,0.718,3.258,8.383,3.311,9.72
			c0.051,1.336-1.206,2.562-1.762,2.648c-0.555,0.085-2.596-0.426-2.596-0.426s2.725-1.093,2.738-1.662
			c0.017-0.571-1.081-5-1.595-6.316C165.644,68.316,163.972,64.183,165.847,63.272z"/>
	</g>
	<g>
		<g>
			<path fill="#6F3023" d="M143.822,95.07c0,0,11.096,53.872,11.557,61.521c1.443,23.954-4.591,27.087-6.942,29.198
				c-2.348,2.109-14.296,6.732-18.61,6.333c-2.035-0.188,2.562-18.843,1.855-38.44c-0.792-21.982-7.308-46.155-4.1-49.854
				C132.585,98.063,143.822,95.07,143.822,95.07z"/>
		</g>
	</g>
	<g>
		<g>
			<path fill="#6F3023" d="M164.587,95.106c0,0-4.514,55.362-4.93,63.013c-1.055,19.418,6.265,32.131,22.636,32.68
				c1.938,0.064-1.674-15.673-2.467-38.792c-0.629-18.375,3.828-49.242,0.585-51.214C172.004,95.684,164.587,95.106,164.587,95.106z
				"/>
		</g>
	</g>
	<path fill="#7D4539" d="M164.587,95.106c0,0,6.824,0.657,14.183,4.724c0,0-9.726,14.589-12.536,17.699l8.134,3.41l-14.403,32.595
		C159.964,153.534,163.417,97.207,164.587,95.106z"/>
	<path fill="#7D4539" d="M143.822,95.07c0,0,5.649,25.199,6.972,31.564c1.323,6.366,4.28,26.44,4.28,26.44l-17.234-30.223
		l7.357-5.375L130.82,100.99C130.82,100.99,135.172,96.97,143.822,95.07z"/>
	<path fill="#FFBF96" d="M129.764,155.875c-0.245,1.66-0.427,3.326-0.458,5.004c-0.015,0.85,0.76,1.233,1.35,1.733
		c0.349,0.294,0.698,0.59,1.047,0.885c0,0,3.73,0.421,7.109-1.769c0.557-1.881,0.663-3.803-0.166-4.152
		c0.722,0.642,2.065,0.258,2.339-0.668c0.18-0.61-2.561-1.967-2.992-2.135c-0.847-0.329-3.969-2.177-3.398-3.586
		c0.14-0.346,0.319-0.676,0.533-0.982c0.229-0.331,0.511-0.662,0.538-1.063c0.025-0.375-0.188-0.735-0.479-0.971
		c-0.292-0.237-0.655-0.365-1.016-0.467c-0.758,0.756-1.493,1.536-2.208,2.332c-0.633,0.707-1.457,1.392-1.625,2.359
		C130.137,153.553,129.934,154.712,129.764,155.875z"/>
	<g>
		<path fill="#FFFBC3" d="M231.23,237.479c-7.624,4.094-16.223,5.935-24.688,7.729c-8.489,1.8-16.986,3.6-25.578,4.808
			c2.801-1.986,3.17-5.93,3.278-9.363c0.28-8.822,0.561-17.645,0.839-26.467c0.023-0.705,10.076-0.178,11.018-0.08
			c3.715,0.387,7.385,1.187,10.926,2.375c6.111,2.051,12.128,4.776,15.633,10.295C225.102,230.622,228.081,234.194,231.23,237.479z"
			/>
		<path fill="#F0EB9F" d="M180.701,210.688c-0.237,0.47-0.486,1.018-0.278,1.502c0.11,0.255,0.331,0.442,0.544,0.621
			c1.438,1.198,2.875,2.399,4.419,3.459c5.078,3.49,11.088,5.326,17.038,6.93c5.83,1.571,16.512,2.708,24.217,2.423
			c-6.279-11.699-6.975-16.697-8.231-25.839c-0.041-0.294-0.084-0.6-0.242-0.852c-0.234-0.377-0.673-0.565-1.084-0.734
			c-7.097-2.896-14.24-5.741-21.652-7.698c-4.415-1.165-9.002-0.799-9.697,4.319C184.974,200.398,183.246,205.65,180.701,210.688z"
			/>
		<path fill="#FFFBC3" d="M176.112,192.679c7.625,4.095,16.222,5.937,24.688,7.729c8.489,1.8,16.986,3.6,25.578,4.809
			c-2.802-1.986-3.17-5.931-3.278-9.364c-0.28-8.821-0.561-17.644-0.839-26.466c-0.022-0.707-10.076-0.179-11.018-0.081
			c-3.715,0.388-7.385,1.187-10.926,2.375c-6.11,2.052-12.127,4.776-15.633,10.296C182.241,185.822,179.262,189.396,176.112,192.679
			z"/>
		<path fill="#F0EB9F" d="M183.637,183.922c15.805-2.921,31.816-7.203,44.797-16.68c-5.563,0.042-10.576-4.186-12.583-9.375
			c-0.148-0.383-0.301-0.796-0.639-1.031c-0.237-0.165-0.532-0.216-0.817-0.256c-8.365-1.199-16.5,0.133-24.923,0.821
			c-2.313,0.189-3.333-0.228-3.916,2.255c-0.543,2.308-0.638,7.726-0.676,10.088C184.804,174.478,185.152,179.356,183.637,183.922z"
			/>
		<path fill="#FFFBC3" d="M187.537,129.227c2.913,6.808,3.095,16.293,3.095,16.293c-2.389,5.241-2.33,7.683-9.748,14.246
			c13.005,4.001,27.024,1.959,38.725,1.258c0.177-0.011-3.346-9.628-3.692-10.447c-0.781-1.85-1.597-3.696-2.514-5.484
			c0.145-0.583,0.287-1.165,0.43-1.748c1.363-5.549,2.723-11.099,4.032-16.66c0.832-3.535,0.601-7.056,1.052-10.581
			c0.508-3.957,1.414-7.864,2.705-11.64c-3.542-0.09-7.068,0.152-10.601,0.135c-7.793-0.038-15.587-0.298-23.365-0.779
			c0.452,3.661-0.086,7.364-0.623,11.013c-0.647,4.402-2.171,8.994-0.052,13.197C187.177,128.417,187.361,128.817,187.537,129.227z"
			/>
	</g>
	<path fill="#FFBF96" d="M226.652,107.81c-0.388-1.643-2.055-3.111-3.779-3.098c-2.145,0.016-3.372,2.414-3.962,4.158
		c-0.855,2.533-1.316,5.196-1.378,7.868c-0.057,2.422-0.021,5.337,1.157,7.488c1.263,2.302,2.101,4.868,3.339,7.205
		c1.313,2.479,2.739,4.895,4.089,7.353c0.208,0.376,1.827,4.048,2.268,4.058c0,0-22.433-0.492-22.955-2.189
		c-0.084-0.271-0.107-0.56-0.13-0.845c-0.114-1.494-0.287-2.996-0.53-4.477c-0.309-0.114-0.633-0.208-0.963-0.189
		c-0.329,0.019-0.666,0.166-0.84,0.445c-0.188,0.3-0.156,0.679-0.161,1.033c-0.006,0.327-0.048,0.655-0.126,0.972
		c-0.315,1.295-3.487,1.009-4.259,0.81c-0.393-0.103-3.041-0.542-3.226-0.014c-0.28,0.798,0.479,1.761,1.322,1.676
		c-0.769-0.176-1.68,1.247-2.248,2.871c1.283,3.293,4.154,4.909,4.154,4.909l7.077-0.555c0,0,28.465,7.239,31.968,5.341
		C240.973,150.733,227.856,112.919,226.652,107.81z"/>
	<g>
		<g>
			<path fill="#6EA258" d="M198.904,132.289c-0.146,1.233-0.376,2.319-0.747,3.679c-1.016,3.71-2.28,6.657-2.57,7.404
				c-0.568,1.465,5.119,3.085,5.567,1.258c0.215-0.879,0.417-4.573,1.207-7.633c0.176-0.68,0.39-2.015,0.883-3.342
				c0.143-0.384-1.043-0.398-2.155-0.792C199.923,132.447,199.025,131.271,198.904,132.289z"/>
			<path fill="#537A42" d="M198.468,133.923c0,0,2.974,2.242,4.01,2.671l-0.388,2.031c0,0-1.106-0.559-2.221-1.282
				c-1.114-0.725-1.832-1.499-1.832-1.499S198.395,134.559,198.468,133.923z"/>
			<path fill="#537A42" d="M197.51,137.375c0,0,3.312,2.513,4.347,2.942l-0.287,2.179c0,0-1.544-0.979-2.659-1.703
				c-1.113-0.724-1.998-1.492-1.998-1.492S197.437,138.01,197.51,137.375z"/>
		</g>
		<g>
			<defs>
				<path id="SVGID_1_" d="M215.844,106.797c-10.201-7-24.145-4.404-31.144,5.798c-6.998,10.201-4.402,24.144,5.798,31.142
					c10.2,7,24.144,4.404,31.144-5.797C228.641,127.739,226.045,113.797,215.844,106.797z M198.707,132.174
					c-3.709-2.545-4.653-7.615-2.109-11.325c2.546-3.71,7.615-4.653,11.326-2.108c3.708,2.544,4.652,7.614,2.107,11.325
					C207.485,133.774,202.416,134.72,198.707,132.174z"/>
			</defs>
			<clipPath id="SVGID_2_">
				<use xlink:href="#SVGID_1_"  overflow="visible"/>
			</clipPath>
			<g clip-path="url(#SVGID_2_)">
				<path fill="#805D4A" d="M215.866,120.003c-0.208,1.288-0.883,2.524-1.619,3.585c-0.276,0.396-0.652,0.87-1.095,1.234
					c0.289-0.078,0.579-0.162,0.865-0.251c0.952-0.295,1.83-0.751,2.806-0.985c0.821-0.197,1.754-0.396,2.37-1.016
					c0.059-0.058,0.063,0.118,0.039,0.151c-0.385,0.546-0.955,0.768-1.573,0.976c-0.981,0.328-1.95,0.555-2.916,0.95
					c-1.379,0.566-2.887,0.929-4.399,1.163c0.798,0.117,1.588,0.375,2.379,0.504c1.175,0.194,2.358,0.181,3.545,0.19
					c0.046,0,0.032,0.14-0.013,0.149c-2.188,0.417-4.564,0.037-6.641-0.738c-0.592,0.076-1.184,0.134-1.764,0.178
					c-0.17,0.013-0.341,0.02-0.511,0.032c1.535,0.454,2.782,1.505,3.521,3.126c0.012,0.025-0.011,0.161-0.047,0.111
					c-0.651-0.904-1.27-1.749-2.202-2.389c-0.931-0.637-2.029-0.64-3.095-0.776c-1.035,0.021-2.071,0.008-3.106-0.012
					c0.426,0.101,0.846,0.225,1.252,0.377c1.154,0.431,1.815,1.773,2.507,2.693c0.012,0.017-0.007,0.092-0.022,0.075
					c-0.754-0.788-1.337-1.722-2.274-2.313c-1.375-0.864-3.235-0.676-4.801-0.934c-0.275-0.011-0.551-0.023-0.826-0.036
					c0.357,0.133,0.7,0.319,1.031,0.485c0.674,0.332,1.35,0.688,1.937,1.158c0.038,0.031,0.037,0.225-0.03,0.205
					c-0.627-0.18-1.188-0.516-1.757-0.827c-0.658-0.361-1.402-0.618-2.009-1.057c-0.103-0.141-1.467,0.012-1.756-0.096
					c0.65-0.835,2.763-0.215,3.663-0.182c0.239,0.008,0.479,0.014,0.719,0.021c0.009-0.021,0.022-0.038,0.038-0.042
					c0.716-0.184,1.242-0.484,1.772-1.004c0.493-0.485,0.854-1.137,1.41-1.554c0.086-0.063,0.074,0.198,0.057,0.231
					c-0.363,0.738-1.25,1.939-2.214,2.402c0.789,0.018,1.579,0.031,2.369,0.035c0.823-0.134,1.511-0.534,2.156-1.071
					c0.619-0.514,1.066-1.247,1.71-1.72c0.089-0.064,0.07,0.208,0.053,0.242c-0.466,0.906-1.528,2.058-2.664,2.549
					c0.652-0.004,1.308-0.016,1.96-0.035c0.416-0.015,0.832-0.038,1.248-0.07c0.874-0.591,1.574-1.137,2.204-2.021
					c0.561-0.789,0.953-1.682,1.517-2.47c0.051-0.07,0.07,0.116,0.059,0.146c-0.538,1.365-1.507,3.412-2.935,4.27
					c1.196-0.127,2.386-0.333,3.556-0.613c1.899-1.046,2.471-3.321,3.47-5.116C215.853,119.838,215.872,119.973,215.866,120.003z"/>
				<path fill="#99D4C0" d="M218.328,128.016c0.113-1.168-0.916-2.03-1.984-2.28c-0.559-0.131-2.512,0.103-2.79,0.726
					c-0.32,0.719,0.848,1.825,1.33,2.263C216.176,129.898,218.108,130.258,218.328,128.016z"/>
				<path fill="#99D4C0" d="M212.31,131.869c-0.59,0.213-1.327,0.039-1.755-0.693c-0.283-0.485-1.167-2.48-0.44-2.868
					c0.183-0.098,1.482,0.347,1.747,0.438c0.713,0.244,1.155,0.682,1.318,1.436C213.364,131.03,212.912,131.652,212.31,131.869z"/>
				<path fill="#99D4C0" d="M208.018,129.869c-0.36-0.644-1.247-1.865-2.075-1.883c-1.472-0.033-1.091,1.505-0.707,2.298
					c0.439,0.909,0.974,2.563,2.27,2.171C208.688,132.097,208.498,130.729,208.018,129.869z"/>
				<path fill="#99D4C0" d="M220.959,121.311c-1.775-1.081-3.996,0.055-4.414,1.74c-0.383,1.548,1.587,2.183,3.104,1.542
					c1.256-0.528,3.096-2.146,1.362-3.25C220.993,121.332,220.977,121.32,220.959,121.311z"/>
				<path fill="#99D4C0" d="M217.385,119.543c0.084-1.119-0.772-2.522-1.993-1.759c-1.004,0.626-1.518,3.424-0.91,4.414
					C215.407,123.712,217.317,120.438,217.385,119.543z"/>
				<path fill="#99D4C0" d="M211.22,119.827c-1.601,1.151-1.827,4.797,0.868,3.281C213.886,122.095,213.4,118.258,211.22,119.827z"
					/>
				<path fill="#805D4A" d="M216.545,123.051c0.218-0.877,0.921-1.603,1.8-1.948c0.104,0.027,0.173,0.095,0.138,0.251
					c-0.053,0.239-0.264,0.458-0.438,0.618c-0.173,0.16-0.441,0.33-0.544,0.549c-0.189,0.405,0.589,0.291,0.773,0.245
					c0.217-0.051,0.885-0.252,1.024,0.032c0.146,0.292-0.457,0.548-0.646,0.617c-0.16,0.062-0.695,0.096-0.743,0.309
					c-0.08,0.36,0.668,0.36,0.852,0.382c0.207,0.023,0.827,0.107,0.841,0.385c0.002,0.042-0.008,0.086-0.027,0.132
					C218.069,125.211,216.168,124.575,216.545,123.051z"/>
				<path fill="#99D4C0" d="M203.465,128.604c0.545-1.553-1.349-2.019-2.486-1.802c-1.094,0.21-0.96,1.258-0.345,1.989
					C201.383,129.677,203.014,129.892,203.465,128.604z"/>
				<path fill="#99D4C0" d="M202.857,123.873c0.9,0.495,2.147-0.58,2.459-1.358c0.463-1.144-0.761-1.929-1.769-1.328
					c-0.687,0.411-1.717,2.026-0.752,2.648C202.816,123.848,202.837,123.861,202.857,123.873z"/>
				<path fill="#99D4C0" d="M206.152,124.31c0.229,0.173,0.52,0.275,0.818,0.275c0.565,0.004,1.067-0.332,1.392-0.777
					c0.479-0.658,0.596-1.756-0.245-2.178c-0.971-0.488-2.15,0.654-2.385,1.536C205.606,123.634,205.81,124.052,206.152,124.31z"/>
				<path fill="#805D4A" d="M216.173,125.71c0.284,0.324-0.667,0.618-0.845,0.678c-0.119,0.041-0.239,0.077-0.358,0.112
					c-0.104,0.031-0.212,0.029-0.115,0.126c0.108,0.107,0.377,0.163,0.517,0.2c0.2,0.055,0.406,0.094,0.595,0.187
					c0.239,0.115,0.109,0.238-0.1,0.302c-0.278,0.085-0.472-0.064-0.736-0.072c-0.151-0.005-0.283,0.029-0.285,0.201
					c-0.005,0.409,0.54,0.654,0.706,0.976c0.025,0.053,0.131,0.247,0.13,0.313c-0.002,0.002,0,0.005-0.002,0.006
					c-0.017,0.092-0.116,0.089-0.196,0.102c-0.15,0.026-0.301,0.028-0.447,0.012c-0.052-0.042-0.103-0.085-0.151-0.129
					c-0.482-0.438-1.65-1.544-1.33-2.263C213.809,125.892,215.467,125.648,216.173,125.71z"/>
				<path fill="#805D4A" d="M211.345,128.77c-0.077-0.013-0.407-0.095-0.471-0.001c-0.088,0.129,0.546,0.359,0.619,0.409
					c0.265,0.183-0.125,0.317-0.306,0.263c-0.18-0.056-0.489-0.455-0.659-0.323c-0.194,0.15-0.072,0.576-0.009,0.756
					c0.066,0.19,0.244,0.468,0.057,0.644c-0.146,0.137-0.263,0.07-0.355-0.046c-0.319-0.782-0.629-1.885-0.106-2.164
					c0.154-0.081,1.087,0.217,1.542,0.369C211.626,128.803,211.461,128.791,211.345,128.77z"/>
				<path fill="#805D4A" d="M214.293,120.071c0.273,0.221,0.117,0.988,0.385,1.143c0.144-0.228,0.545-1.411,0.906-0.842
					c0.136,0.213-0.106,0.613-0.205,0.778c-0.146,0.244-0.467,0.737-0.037,0.717c0.263-0.011,0.518-0.344,0.762-0.434
					c0.211-0.078,0.326-0.042,0.374,0.046c-0.64,0.905-1.476,1.572-1.996,0.72C214.201,121.742,214.159,120.905,214.293,120.071z"/>
				<path fill="#805D4A" d="M210.103,121.665c0.551,0.184,0.497,0.898,0.501,1.337c0.297-0.257,0.428-0.913,0.857-0.992
					c0.608-0.113-0.324,0.864-0.335,1.069c0.266-0.048,1.245-0.675,1.602-0.568c-0.166,0.24-0.379,0.449-0.64,0.598
					C210.354,124.083,209.831,122.922,210.103,121.665z"/>
				<path fill="#805D4A" d="M206.257,123.134c0.072,0.233-0.09,0.541-0.131,0.768c0.229-0.143,0.54-0.688,0.867-0.586
					c0.532,0.162-0.411,0.728-0.547,0.87c0.258,0.02,1.313-0.316,1.804-0.238c-0.324,0.376-0.775,0.641-1.279,0.638
					c-0.299,0-0.589-0.103-0.818-0.275c-0.343-0.258-0.546-0.676-0.42-1.144c0.021-0.076,0.05-0.152,0.082-0.229
					C205.989,122.799,206.175,122.86,206.257,123.134z"/>
				<path fill="#805D4A" d="M202.667,122.196c0.028,0.037,0.057,0.089,0.087,0.161c0.125,0.304,0.013,0.775,0.014,1.102
					c0.285-0.168,0.7-0.704,1.053-0.607c-0.019,0.375-0.597,0.434-0.647,0.783c0.497,0.042,0.892-0.277,1.411-0.202
					c-0.006,0.018-0.016,0.033-0.022,0.05c-0.511,0.422-1.168,0.685-1.704,0.391c-0.021-0.012-0.041-0.025-0.062-0.037
					C202.242,123.477,202.347,122.792,202.667,122.196z"/>
				<path fill="#805D4A" d="M200.979,126.802c0.389-0.073,0.864-0.068,1.301,0.034c0.002,0.019,0,0.04-0.003,0.061
					c-0.063,0.285-0.952,0.218-1.154,0.235c-0.052,0.389,0.549,0.361,0.715,0.572c-0.22,0.126-0.841-0.113-0.965,0.119
					c-0.105,0.191,0.515,0.656,0.633,0.848c0.348,0.567-0.122,0.605-0.564,0.407c-0.112-0.085-0.216-0.182-0.307-0.288
					C200.019,128.06,199.885,127.012,200.979,126.802z"/>
				<path fill="#805D4A" d="M205.235,130.284c-0.384-0.793-0.765-2.331,0.707-2.298c0.668,0.015,1.374,0.813,1.811,1.458
					c-0.416,0.151-0.84-0.671-1.262-0.599c0.041,0.194,0.618,0.639,0.466,0.854c-0.224,0.318-0.642-0.527-0.713-0.62
					c-0.718-0.905-0.601,0.725-0.445,1.154c0.091,0.251,0.207,0.7-0.211,0.757c-0.01,0.001-0.019,0.001-0.028,0.001
					C205.441,130.738,205.335,130.49,205.235,130.284z"/>
			</g>
			<g clip-path="url(#SVGID_2_)">
				<g>
					<path fill="#99D4C0" d="M201.277,122.459c0.019,0.02,0.039,0.032,0.063,0.037c0.041,0.01,0.083,0.002,0.126-0.006
						c0.853-0.167,1.891-0.591,2.585-1.13c0.173-0.14,0.317-0.303,0.446-0.484c0.274-0.38,0.66-0.879,0.649-1.371
						c-0.013-0.697-0.646-0.52-1.047-0.241c-0.299,0.207-0.549,0.48-0.771,0.764c-0.458,0.587-0.807,1.25-1.281,1.825
						c-0.479,0.581-0.168-0.876-0.143-0.98c0.176-0.702,0.417-1.385,0.572-2.093c0.261-1.257,1.609-0.96,2.396-1.84
						c0.323-0.393,0.716-1.791,0.545-2.279c-0.732,0.229-1.332,0.792-1.746,1.422c-0.223,0.338-0.369,0.681-0.501,1.057
						c-0.05,0.14-0.243,0.688-0.454,0.415c-0.147-0.188-0.078-1.465-0.062-1.78c0.029-0.537,0-1.117-0.007-1.813
						c0.329-0.488,0.924-0.479,1.316-0.856c0.675-0.65,0.563-1.825-0.03-2.495c-0.124-0.137-0.752,0.916-0.789,1.017
						c-0.168,0.438-0.155,0.884-0.248,1.336c-0.012,0.061-0.237,0.593-0.299,0.536c-0.091-0.086-0.089-0.222-0.11-0.338
						c-0.055-0.321-0.147-0.949-0.342-1.676c-0.187-0.689-0.367-1.068-0.467-1.381c-0.085-0.265,0.395-1.105,0.506-1.454
						c0.254-0.798,0.135-1.412-0.27-1.629c-0.994-0.538-1.251,0.96-1.251,0.96s-0.699-0.868-1.18-0.4
						c-1.042,1.015,1.426,2.367,1.739,2.714c0.295,0.326,0.469,0.738,0.587,1.159c0.119,0.415,0.358,0.945,0.274,1.379
						c-0.174-0.09-0.358-0.131-0.519-0.256c-0.147-0.115-0.266-0.264-0.401-0.391c-0.206-0.193-0.442-0.332-0.685-0.479
						c-0.34-0.203-0.771-0.193-1.145-0.284c-0.634-0.154,0.027,0.628,0.143,0.786c0.134,0.179,0.268,0.366,0.464,0.487
						c0.682,0.42,1.612-0.103,2.156,0.623c0.334,0.446,0.271,1.018,0.289,1.553c0.01,0.307,0.006,0.618-0.015,0.926
						c-0.014,0.225,0.005,0.828,0.005,0.828s-0.372-0.168-0.464-0.258c-0.092-0.089-0.124-0.715-0.43-1.126
						c-0.178-0.24-1.441-1.264-1.683-1.153c-0.486,0.227,0.31,1.856,0.932,2.297c0.514,0.367,1.592,0.517,1.606,0.631
						c0.117,1.004-0.176,1.992-0.46,2.942c-0.104,0.349-0.233,0.822-0.481,1.102l-0.044-0.046c-0.084-0.136-0.022-0.361-0.014-0.509
						c0.011-0.198,0.002-0.394-0.027-0.591c-0.07-0.44-0.228-0.862-0.432-1.256c-0.145-0.28-0.34-0.578-0.617-0.747
						c-0.479-0.29-0.666,0.026-0.607,0.483c0.051,0.386,0.139,0.763,0.204,1.146c0.163,0.982,0.612,1.405,1.162,2.139
						C201.144,121.837,201.139,122.318,201.277,122.459z"/>
				</g>
			</g>
			<g clip-path="url(#SVGID_2_)">
				<g>
					<g>
						<g>
							<path fill="#DAB26F" d="M203.351,120.34c0.002,0.032,0.021,0.062,0.058,0.092c0.239,0.196,1.083-0.301,1.336-0.402
								c1.602-0.661,2.293,1.069,3.875,1.283c0.682,0.062,2.541-0.557,2.956-1.119c-0.812-0.645-1.893-0.886-2.911-0.873
								c-0.548,0.009-1.039,0.104-1.562,0.24c-0.191,0.051-0.953,0.251-0.808-0.19c0.101-0.31,1.577-1.197,1.941-1.416
								c0.623-0.375,1.247-0.847,2.021-1.382c0.794-0.002,1.234,0.669,1.954,0.821c1.237,0.261,2.463-0.753,2.762-1.923
								c0.061-0.241-1.591-0.145-1.732-0.111c-0.617,0.145-1.105,0.497-1.679,0.734c-0.079,0.034-0.844,0.186-0.826,0.073
								c0.028-0.166,0.179-0.269,0.293-0.378c0.554-0.538,1.109-1.071,1.612-1.653c0.303-0.349,0.979-0.199,1.411-0.375
								c0.461-0.186,0.676-0.229,1.135-0.867c0.421-0.586,0.381-1.457,0.629-2.098c-1.059-0.072-2.516-0.196-3.159,0.82
								c-0.791,1.254,0.146,2.737-1.567,3.474c-0.03-0.263-0.124-0.501-0.104-0.774c0.017-0.253,0.092-0.495,0.13-0.743
								c0.059-0.375,0.037-0.746,0.015-1.127c-0.027-0.534-0.365-1.007-0.549-1.494c-0.309-0.824-0.681,0.508-0.768,0.753
								c-0.101,0.287-0.207,0.577-0.196,0.888c0.049,1.082,1.337,1.723,0.939,2.879c-0.246,0.712-0.933,1.077-1.515,1.5
								c-0.337,0.243-0.688,0.476-1.047,0.686c-0.261,0.154-0.921,0.632-0.921,0.632s-0.094-0.543-0.063-0.714
								c0.031-0.168,0.705-0.681,0.935-1.331c0.135-0.381,0.318-2.569,0.012-2.754c-0.618-0.372-1.838,1.75-1.859,2.781
								c-0.021,0.85,0.628,2.17,0.511,2.271c-0.531,0.459-1.147,0.797-1.79,1.07C204.634,119.692,203.33,120.047,203.351,120.34z"/>
						</g>
					</g>
				</g>
				<path fill="#6EA258" d="M215.118,111.62c-0.395-0.223-1.244,0.276-1.58,0.503c-0.427,0.29-0.69,0.741-0.763,1.244
					C213.625,113.164,214.393,112.11,215.118,111.62z"/>
				<path fill="#6EA258" d="M211.272,116.525c0.148,0.14,0.442,0.199,0.632,0.255c0.33,0.099,0.64,0.12,0.978,0.052
					c0.307-0.062,0.65-0.228,0.92-0.385c0.138-0.08,0.245-0.213,0.378-0.29c-0.257,0.113-0.592,0.08-0.868,0.105
					c-0.298,0.024-0.597,0.011-0.886,0.087c-0.223,0.055-0.444,0.094-0.666,0.132c-0.162,0.03-0.346-0.014-0.504,0.036
					L211.272,116.525z"/>
				<path fill="#6EA258" d="M210.627,112.333c-0.085-0.275-0.24-0.515-0.233-0.795c-0.104,0.219-0.22,0.381-0.201,0.637
					c0.016,0.234,0.061,0.494,0.128,0.721c0.063,0.218,0.199,0.406,0.255,0.625c0.037,0.146,0.073,0.365,0.17,0.103
					c0.064-0.176,0.019-0.414,0.007-0.597C210.736,112.792,210.696,112.559,210.627,112.333z"/>
				<path fill="#6EA258" d="M207.623,120.208c0.341,0.134,0.676,0.159,1.037,0.152c0.546-0.011,1.084-0.084,1.621-0.129
					c-0.389-0.116-0.811-0.132-1.211-0.129c-0.31,0.003-0.624-0.055-0.925-0.123c-0.2-0.045-0.412-0.095-0.62-0.108
					c-0.17-0.012-0.338,0.031-0.506,0.04C207.235,119.965,207.416,120.125,207.623,120.208z"/>
				<path fill="#6EA258" d="M207.201,116.275c0.115-0.344,0.191-0.698,0.24-1.057c0.049-0.363,0.126-0.703,0.224-1.047
					c-0.121,0.123-0.213,0.283-0.325,0.415c-0.137,0.159-0.228,0.289-0.267,0.496c-0.066,0.36-0.135,0.722-0.196,1.083
					c-0.034,0.204-0.063,0.407-0.098,0.612c-0.027,0.159-0.107,0.375-0.085,0.533C207.007,117.173,207.106,116.561,207.201,116.275z
					"/>
			</g>
			<g clip-path="url(#SVGID_2_)">
				<g>
					<g>
						<g>
							<path fill="#DAB26F" d="M198.912,119.953c-0.49-0.498-0.933-1.046-1.246-1.673c-0.069-0.139,1.034-1.11,1.342-1.902
								c0.374-0.961,0.059-3.388-0.654-3.283c-0.354,0.055-1.021,2.147-1.042,2.55c-0.038,0.688,0.388,1.418,0.353,1.588
								c-0.038,0.168-0.332,0.635-0.332,0.635s-0.426-0.694-0.607-0.938c-0.253-0.331-0.488-0.68-0.705-1.033
								c-0.377-0.614-0.872-1.214-0.825-1.965c0.073-1.221,1.51-1.321,1.968-2.302c0.13-0.282,0.143-0.591,0.16-0.895
								c0.012-0.26,0.178-1.633-0.421-0.991c-0.356,0.381-0.85,0.688-1.08,1.17c-0.165,0.346-0.328,0.679-0.417,1.048
								c-0.06,0.244-0.082,0.497-0.163,0.736c-0.086,0.259-0.265,0.443-0.394,0.674c-1.303-1.335,0.133-2.347-0.119-3.809
								c-0.205-1.185-1.601-1.627-2.604-1.968c-0.017,0.688-0.386,1.478-0.223,2.18c0.181,0.767,0.362,0.887,0.718,1.236
								c0.331,0.327,1.015,0.448,1.159,0.885c0.241,0.729,0.552,1.436,0.857,2.143c0.063,0.146,0.165,0.298,0.126,0.463
								c-0.026,0.109-0.676-0.323-0.734-0.383c-0.438-0.44-0.756-0.952-1.271-1.323c-0.116-0.085-1.605-0.807-1.643-0.561
								c-0.171,1.196,0.573,2.602,1.816,2.833c0.723,0.137,1.387-0.317,2.119-0.011c0.51,0.79,0.906,1.466,1.338,2.05
								c0.252,0.341,1.278,1.728,1.253,2.05c-0.035,0.465-0.662-0.012-0.819-0.131c-0.431-0.328-0.849-0.603-1.351-0.82
								c-0.938-0.401-2.029-0.593-3.024-0.308c0.169,0.678,1.649,1.961,2.305,2.164c1.541,0.41,2.841-0.924,4.068,0.299
								c0.196,0.189,0.785,0.971,1.081,0.882c0.046-0.013,0.075-0.035,0.089-0.064C200.119,120.92,199.051,120.094,198.912,119.953z
								"/>
						</g>
					</g>
				</g>
				<path fill="#6EA258" d="M192.454,108.626c0.448-0.056,1.044,0.731,1.267,1.067c0.282,0.432,0.354,0.95,0.228,1.442
					C193.242,110.623,192.936,109.354,192.454,108.626z"/>
				<path fill="#6EA258" d="M194.127,114.629c-0.188,0.07-0.482,0.013-0.68-0.006c-0.342-0.036-0.636-0.134-0.922-0.326
					c-0.26-0.174-0.514-0.459-0.703-0.708c-0.098-0.127-0.146-0.291-0.239-0.411c0.195,0.202,0.518,0.299,0.764,0.428
					c0.265,0.138,0.546,0.239,0.784,0.419c0.185,0.137,0.375,0.258,0.563,0.377c0.14,0.089,0.325,0.12,0.453,0.227H194.127z"/>
				<path fill="#6EA258" d="M196.33,111.002c0.184-0.224,0.419-0.384,0.521-0.646c0.013,0.242,0.057,0.435-0.06,0.666
					c-0.103,0.209-0.244,0.433-0.395,0.618c-0.142,0.177-0.338,0.297-0.473,0.479c-0.091,0.123-0.208,0.309-0.197,0.031
					c0.009-0.188,0.142-0.39,0.223-0.554C196.052,111.384,196.181,111.185,196.33,111.002z"/>
				<path fill="#6EA258" d="M196.091,119.426c-0.367-0.005-0.685-0.111-1.017-0.254c-0.499-0.219-0.969-0.493-1.448-0.741
					c0.404,0.041,0.8,0.188,1.169,0.345c0.285,0.123,0.598,0.188,0.9,0.241c0.203,0.036,0.418,0.07,0.614,0.138
					c0.162,0.056,0.299,0.159,0.453,0.23C196.543,119.351,196.314,119.428,196.091,119.426z"/>
				<path fill="#6EA258" d="M197.987,115.956c0.024-0.362,0.089-0.717,0.182-1.068c0.094-0.355,0.152-0.695,0.193-1.053
					c0.065,0.16,0.089,0.342,0.144,0.507c0.064,0.199,0.099,0.353,0.055,0.56c-0.075,0.359-0.15,0.718-0.232,1.076
					c-0.048,0.201-0.098,0.401-0.144,0.603c-0.038,0.157-0.046,0.389-0.126,0.525C197.821,116.858,197.964,116.256,197.987,115.956z
					"/>
			</g>
			<g clip-path="url(#SVGID_2_)">
				<path fill="#78C9BA" d="M190.689,116.213c-0.281-0.28-0.604-0.467-0.951-0.378c-0.895,0.232,0,1.475,0.16,1.924
					c-0.338-0.436-0.767-0.664-1.342-0.803c-0.458-0.112-1.146-0.167-1.192,0.387c-0.057,0.665,0.974,0.77,1.425,1.096
					c-0.547-0.051-1.316-0.279-1.624,0.272c-0.211,0.375-0.028,0.814,0.388,1.03c0.237,0.123,0.848,0.201,1.086,0.046
					c-0.354,0.23-1.08,0.448-0.967,0.958c0.213,0.945,1.534,0.251,1.959-0.108c-0.017,0.313-0.007,0.622-0.017,0.938
					c-0.008,0.26,0.024,0.577,0.313,0.726c0.872,0.455,1.31-1.093,1.07-1.6c0.053,0.511,1.015,2.43,1.866,1.677
					c0.438-0.388-0.18-1.199-0.185-1.635c0.257,0.376,1.861,1.487,1.999,0.557c0.124-0.842-0.875-1.189-1.542-1.547
					c0.975,0.339,2.3-0.581,1.926-1.496c-0.405-0.991-1.688-0.278-2.096,0.292c0.301-0.467,0.509-0.944,0.506-1.497
					c-0.003-0.444-0.159-1.313-0.828-1.331c-0.853-0.025-1.028,1.148-1.094,1.668C191.369,117.134,191.067,116.591,190.689,116.213z
					"/>
				<path fill="#DAD49C" d="M190.77,119.996c0.983,0.963,2.346-0.791,1.284-1.409C191.062,118.009,189.997,119.24,190.77,119.996z"
					/>
			</g>
		</g>
		<g>
			<g>
				<g>
					<path fill="#9BD09A" d="M204.366,126.421c-0.306,0.31-0.71,0.527-1.175,0.593c-0.517,0.073-1.016-0.051-1.421-0.317
						c-0.045,0.12-0.097,0.236-0.167,0.349c-0.546,0.898-1.364,2.256-0.731,3.289c0.4,0.654,1.226,0.98,1.92,1.206
						c1.095,0.358,2.319,0.08,3.132-0.749c0.665-0.678,0.857-1.895,0.399-2.74c-0.014-0.026-0.029-0.051-0.046-0.077
						c-0.257-0.402-0.702-0.598-1.098-0.841C204.863,126.938,204.607,126.69,204.366,126.421z"/>
					<path fill="#9BD09A" d="M197.281,128.286c0.268,0.449,0.721,0.881,1.282,0.854c1.288-0.063,2.09-1.105,2.688-2.153
						c0.085-0.146,0.167-0.323,0.235-0.511c-0.333-0.31-0.566-0.73-0.637-1.217c-0.024-0.164-0.024-0.328-0.009-0.488
						c-0.632-0.234-1.486-0.243-1.962-0.321c-0.728-0.12-1.537,0.278-2.058,0.761C195.983,125.991,196.805,127.485,197.281,128.286z
						"/>
					<path fill="#9BD09A" d="M198.264,123.806c0.794,0.473,1.729,0.554,2.626,0.671c0.162-0.662,0.645-1.216,1.298-1.454
						c-0.047-0.134-0.098-0.257-0.152-0.373c-0.194-0.405-0.486-0.633-0.789-0.946c-0.341-0.356-0.201-0.715-0.434-1.14
						c-0.363-0.661-1.366-0.703-1.952-0.359c-0.748,0.44-1.414,1.271-1.43,2.169C197.42,122.954,197.785,123.521,198.264,123.806z"
						/>
					<path fill="#9BD09A" d="M202.441,122.95c0.054-0.013,0.11-0.025,0.166-0.033c0.848-0.121,1.649,0.29,2.065,0.981
						c0.619-0.321,1.156-0.819,1.432-1.357c0.515-1.004,0.974-2.314-0.025-3.146c-0.853-0.711-2.582-0.914-3.555-0.367
						c-0.534,0.3-1.083,1.019-1.084,1.651c-0.001,0.492,0.357,0.84,0.605,1.226C202.253,122.229,202.381,122.577,202.441,122.95z"/>
					<path fill="#9BD09A" d="M204.947,124.674c0.078,0.543-0.063,1.064-0.356,1.479c0.379,0.308,0.77,0.555,0.968,0.644
						c1.107,0.495,2.644,0.62,3.613-0.236c0.842-0.741,1.035-2.303,0.493-3.276c-0.284-0.511-1.005-0.977-1.599-1.015
						c-0.615-0.041-1.371,0.053-1.799,0.531c-0.354,0.393-0.613,0.811-1.032,1.143c-0.14,0.109-0.282,0.174-0.429,0.227
						C204.872,124.327,204.922,124.496,204.947,124.674z"/>
					<circle fill="#A2D5B2" cx="202.899" cy="124.967" r="1.702"/>
					<g>
						<path fill="#FFFCE8" d="M202.063,126.163l0.603-1.083l-0.004-0.016l-1.154,0.325l-0.077-0.53l1.2-0.022l-0.004-0.022
							l-0.883-0.829l0.451-0.353l0.633,1.024l0.017,0l0.342-1.173l0.485,0.217l-0.605,1.058l0.002,0.024l1.135-0.322l0.074,0.531
							l-1.168,0.016l0.002,0.017l0.871,0.854l-0.437,0.341l-0.641-1.023l-0.016,0.002l-0.319,1.17L202.063,126.163z"/>
					</g>
				</g>
				<path fill="#9BD09A" d="M207.657,127.531c0.568-0.081,1.102-0.361,1.605-0.624c0.144,0.707,0.333,1.49-0.027,2.16
					c-0.422,0.786-1.368,1.421-2.286,1.03c-0.498-0.213-0.207-0.646-0.202-1.092c0.007-0.473-0.139-0.938-0.238-1.396
					c0.24-0.169,0.566-0.058,0.831-0.056C207.447,127.553,207.553,127.546,207.657,127.531z"/>
				<path fill="#9BD09A" d="M206.76,120.049c0.174,0.632,0.341,1.663-0.134,2.203c0.393-0.032,0.757-0.294,1.191-0.289
					c0.296,0.005,0.779,0.364,0.989,0.058c0.169-0.248-0.118-0.822-0.245-1.032c-0.196-0.326-0.49-0.618-0.829-0.795
					C207.666,120.159,206.724,119.915,206.76,120.049z"/>
				<path fill="#9BD09A" d="M200.756,130.69c0.245,0.313,0.402,0.521-0.054,0.714c-0.301,0.128-0.718,0.145-1.028,0.064
					c-0.881-0.234-1.558-1.066-1.493-2.011c0.297,0.089,0.755,0.17,1.048,0.045c0.447-0.19,0.806-0.544,1.189-0.828
					C200.685,129.369,200.203,129.99,200.756,130.69z"/>
				<path fill="#9BD09A" d="M201.061,120.287c0.005,0.025,0.007,0.022,0.004-0.006c-0.214-0.326-1.122-0.716-1.499-0.628
					c0.015-0.003,0.138-0.469,0.176-0.526c0.107-0.16,0.221-0.245,0.394-0.333c0.322-0.166,0.752-0.232,1.111-0.224
					c0.228,0.004,0.795,0.054,0.825,0.376C202.097,119.215,200.947,119.71,201.061,120.287z"/>
				<path fill="#9BD09A" d="M197.331,122.645c-0.515,0.019-0.941,0.48-1.096,0.946c-0.108,0.324-0.234,1.221-0.083,1.537
					c0.23,0.482,0.558-0.303,0.844-0.505c0.365-0.26,0.691-0.382,1.13-0.364C197.674,123.733,197.279,123.431,197.331,122.645z"/>
				<path fill="#9BD09A" d="M205.253,131.625c0.337-0.508,1.002-0.571,1.296-1.174c0.275,0.099,0.896-0.104,1.106,0.068
					c0.287,0.241-0.179,0.692-0.397,0.884c-0.292,0.255-0.67,0.465-1.058,0.516C206.119,131.93,205.127,131.813,205.253,131.625z"/>
				<path fill="#9BD09A" d="M202.762,131.974c-0.433-0.143-0.777-0.459-1.19-0.618c-0.145,0.691,0.71,1.218,1.299,1.284
					c1.03,0.115,1.348-0.22,2.063-0.847c-0.376,0.33-1.432,0.323-1.887,0.251C202.949,132.029,202.855,132.005,202.762,131.974z"/>
				<path fill="#9BD09A" d="M209.747,127.81c0.014,0.056,0.029,0.111,0.044,0.165c0.437-0.213,0.427-0.794,0.484-1.216
					c0.059-0.417,0.017-0.95-0.147-1.334c-0.192,0.526-0.674,1.183-0.528,1.764C209.649,127.39,209.693,127.604,209.747,127.81z"/>
				<path fill="#9BD09A" d="M209.063,120.765c0.036,0.461,0.055,0.833,0.013,1.264c0.464,0.201,0.642,0.858,0.868,1.256
					c0.125-0.357-0.045-0.856-0.16-1.206c-0.085-0.26-0.191-0.515-0.326-0.753C209.388,121.2,209.073,120.888,209.063,120.765z"/>
				<path fill="#9BD09A" d="M206.482,119.294c-0.285-0.266-0.709-0.522-1.104-0.473c0.355-0.371,1.019-0.003,1.396,0.223
					c0.383,0.229,1.067,0.4,1.238,0.848C207.476,119.561,206.978,119.757,206.482,119.294z"/>
				<path fill="#9BD09A" d="M202.729,118.585c-0.269,0.033-0.749-0.075-1.041-0.14c0.603-0.509,1.802-0.621,2.384-0.019
					C203.616,118.415,203.19,118.529,202.729,118.585z"/>
				<path fill="#9BD09A" d="M196.876,128.351c-0.042-0.12-0.058-0.261-0.035-0.437c-0.005,0.045-0.112,0.146-0.135,0.202
					c-0.036,0.09-0.046,0.188-0.049,0.282c-0.005,0.181,0.033,0.362,0.04,0.543c0.021,0.586,0.26,0.924,0.659,1.302
					c0.064,0.063,0.573,0.396,0.573,0.392c0.008-0.379-0.039-1.052-0.255-1.358C197.401,128.894,197.008,128.738,196.876,128.351z"
					/>
				<path fill="#9BD09A" d="M197.749,120.902c0.032-0.068-0.085-0.405-0.055-0.537c0.048-0.218,0.193-0.416,0.353-0.568
					c0.252-0.241,0.708-0.494,1.038-0.267c-0.125,0.206-0.494,0.284-0.694,0.453C198.106,120.222,197.899,120.568,197.749,120.902z"
					/>
				<path fill="#9BD09A" d="M196.351,125.647c-0.021,0.048-0.456,0.246-0.54,0.371c-0.137,0.204-0.197,0.477-0.184,0.72
					c0.026,0.509,0.501,1.066,1.045,0.766C196.444,126.84,196.06,126.4,196.351,125.647z"/>
			</g>
			<g>
				<defs>
					<path id="SVGID_3_" d="M195.399,128.228c0,0-0.8-2.054,0.258-5.245c1.179-3.55,4.391-5.172,4.391-5.172
						s1.742-8.231-6.859-4.865C184.585,116.312,184.038,129.889,195.399,128.228z"/>
				</defs>
				<clipPath id="SVGID_4_">
					<use xlink:href="#SVGID_3_"  overflow="visible"/>
				</clipPath>
				<g clip-path="url(#SVGID_4_)">
					<path fill="#805D4A" d="M189.366,125.985c-2.267-1.825-1.349-4.19,1.281-4.629c2.725-0.454,6.019,0.54,8.367,1.917
						c0.386,0.227,2.583,0.977,2.396,1.605c-0.149,0.459-2.376,1.062-2.855,1.302C195.685,127.628,192.069,128.161,189.366,125.985z
						"/>
					<path fill="#8ACA8D" d="M201.293,124.904c0.002-0.021-0.004-0.044-0.02-0.063c-0.067-0.079-0.218-0.059-0.311-0.071
						c-0.171-0.023-0.343-0.044-0.514-0.067c-0.345-0.042-0.689-0.08-1.036-0.114c-0.016-0.001-0.049,0.002-0.063-0.005
						c-0.415-0.248-0.817-0.505-1.21-0.786c-0.45-0.321-0.882-0.721-1.401-0.917c-0.053-0.02-0.119,0.114-0.082,0.148
						c0.619,0.554,1.423,1.161,2.229,1.51c-0.517-0.044-1.033-0.078-1.549-0.107c0.01-0.022,0.012-0.05-0.002-0.04
						c-0.023,0.016-0.038,0.026-0.052,0.038c-0.023-0.001-0.046-0.003-0.071-0.004c-0.456-0.11-0.938-0.351-1.36-0.517
						c-0.744-0.295-1.427-0.707-2.053-1.2c-0.018-0.015-0.054,0.06-0.038,0.077c0.555,0.615,1.238,1.015,1.999,1.332
						c0.16,0.067,0.385,0.174,0.624,0.265c-0.75-0.037-1.498-0.072-2.245-0.12c0.011-0.033,0.01-0.064-0.02-0.067
						c-0.583-0.047-1.248-0.486-1.773-0.727c-0.745-0.34-1.324-0.857-1.99-1.315c-0.044-0.031-0.101,0.104-0.076,0.138
						c0.474,0.656,1.232,1.091,1.951,1.429c0.29,0.135,0.658,0.335,1.03,0.473c-0.775-0.084-1.537-0.254-2.312-0.327
						c-0.865-0.081-1.731-0.035-2.592-0.166c-0.048-0.006-0.096,0.119-0.051,0.133c0.615,0.178,1.251,0.176,1.887,0.178
						c0.938,0.003,1.854,0.219,2.783,0.324c0.057,0.006,0.116,0.011,0.173,0.017c-0.35,0.077-0.696,0.197-0.983,0.289
						c-0.752,0.241-1.464,0.637-2.045,1.176c-0.03,0.026-0.057,0.19,0.002,0.144c0.625-0.472,1.283-0.826,2.022-1.087
						c0.662-0.233,1.38-0.208,2.03-0.428c0.748,0.056,1.5,0.092,2.251,0.134c-0.147,0.054-0.29,0.121-0.415,0.191
						c-1.065,0.599-2.181,1.135-3.221,1.771c-0.055,0.034-0.139,0.25-0.021,0.211c0.932-0.306,1.805-0.875,2.641-1.382
						c0.295-0.18,0.587-0.345,0.889-0.492c0.269-0.096,0.542-0.197,0.728-0.269c0.351,0.021,0.699,0.044,1.049,0.071
						c0.338,0.025,0.673,0.059,1.011,0.093c-0.304,0.079-0.598,0.251-0.855,0.387c-0.461,0.237-0.934,0.477-1.373,0.753
						c-0.026,0.017-0.097,0.163-0.031,0.15c0.448-0.094,0.856-0.348,1.256-0.563c0.448-0.241,0.936-0.413,1.375-0.666
						c0.007-0.002,0.014-0.011,0.021-0.022c0.331,0.037,0.662,0.077,0.994,0.12c0.118,0.016,0.235,0.033,0.354,0.049
						c0.072,0.01,0.146,0.007,0.22,0.005c0.059,0,0.129,0.013,0.186-0.01C201.267,124.966,201.289,124.937,201.293,124.904z"/>
				</g>
				<g clip-path="url(#SVGID_4_)">
					<path fill="#805D4A" d="M195.331,116.156c0.645-2.02,2.491-2.019,3.481-0.347c1.026,1.731,1.219,4.23,0.9,6.187
						c-0.053,0.322,0.015,2.013-0.461,2.051c-0.35,0.019-1.346-1.335-1.636-1.597C195.878,120.881,194.565,118.565,195.331,116.156z
						"/>
					<path fill="#8ACA8D" d="M199.202,123.974c0.016-0.005,0.029-0.015,0.039-0.031c0.036-0.066-0.019-0.164-0.035-0.229
						c-0.028-0.122-0.059-0.245-0.089-0.367c-0.063-0.245-0.128-0.489-0.194-0.733c-0.004-0.01-0.015-0.033-0.013-0.044
						c0.059-0.347,0.128-0.688,0.214-1.028c0.101-0.389,0.258-0.789,0.254-1.193c0-0.041-0.107-0.05-0.121-0.017
						c-0.213,0.566-0.415,1.272-0.44,1.911c-0.104-0.362-0.219-0.721-0.334-1.079c0.019,0.001,0.037-0.004,0.026-0.012
						c-0.017-0.011-0.027-0.019-0.037-0.024c-0.005-0.017-0.012-0.033-0.018-0.049c-0.045-0.339-0.009-0.731-0.006-1.061
						c0.003-0.582,0.104-1.156,0.274-1.71c0.005-0.017-0.055-0.022-0.062-0.007c-0.271,0.54-0.364,1.11-0.379,1.709
						c-0.005,0.127-0.019,0.308-0.016,0.493c-0.172-0.518-0.346-1.035-0.511-1.555c0.026-0.001,0.048-0.012,0.041-0.031
						c-0.121-0.408,0.002-0.976,0.027-1.396c0.034-0.595,0.233-1.125,0.37-1.699c0.009-0.039-0.097-0.041-0.113-0.015
						c-0.322,0.494-0.419,1.125-0.458,1.703c-0.016,0.23-0.056,0.535-0.051,0.823c-0.146-0.549-0.231-1.11-0.387-1.656
						c-0.172-0.608-0.431-1.186-0.57-1.805c-0.008-0.033-0.104-0.031-0.102,0.001c0.04,0.464,0.209,0.896,0.375,1.328
						c0.244,0.638,0.34,1.317,0.513,1.975c0.01,0.042,0.021,0.083,0.033,0.123c-0.145-0.218-0.315-0.422-0.454-0.593
						c-0.362-0.447-0.818-0.825-1.337-1.079c-0.027-0.012-0.144,0.011-0.099,0.041c0.486,0.299,0.899,0.654,1.271,1.086
						c0.331,0.389,0.504,0.884,0.825,1.266c0.159,0.525,0.331,1.046,0.5,1.567c-0.075-0.088-0.158-0.167-0.24-0.233
						c-0.686-0.565-1.344-1.182-2.049-1.722c-0.038-0.029-0.206-0.029-0.149,0.042c0.456,0.552,1.07,0.996,1.634,1.43
						c0.199,0.154,0.389,0.308,0.568,0.475c0.137,0.157,0.275,0.315,0.372,0.423c0.078,0.243,0.155,0.485,0.229,0.731
						c0.07,0.235,0.138,0.472,0.204,0.711c-0.135-0.185-0.33-0.339-0.49-0.479c-0.282-0.251-0.567-0.509-0.871-0.736
						c-0.018-0.014-0.139-0.022-0.111,0.019c0.183,0.279,0.462,0.492,0.714,0.705c0.281,0.241,0.526,0.528,0.813,0.76
						c0.003,0.002,0.011,0.005,0.021,0.007c0.063,0.236,0.122,0.471,0.179,0.708c0.022,0.084,0.041,0.168,0.062,0.254
						c0.012,0.051,0.035,0.101,0.055,0.151c0.015,0.039,0.025,0.09,0.055,0.122C199.153,123.972,199.18,123.979,199.202,123.974z"/>
				</g>
			</g>
			<path fill="#6BA97E" d="M202.43,127.49c-0.46-0.176-0.808,0.516-0.322,0.648C202.548,128.258,202.969,127.698,202.43,127.49z"/>
			<path fill="#6BA97E" d="M203.653,127.613c-0.682,0.194-0.243,1.498,0.369,0.959C204.345,128.291,204.165,127.468,203.653,127.613
				z"/>
			<path fill="#6BA97E" d="M200.266,126.043c-0.44,0.075-0.136,0.855,0.279,0.643C200.888,126.509,200.607,125.985,200.266,126.043z
				"/>
			<path fill="#6BA97E" d="M200.053,125.667c0.047-0.279-0.207-0.425-0.442-0.44c-0.334-0.018-0.664,0.405-0.403,0.707
				C199.412,126.17,200.003,125.974,200.053,125.667z"/>
			<path fill="#6BA97E" d="M200.782,122.917c-0.406-0.073-0.632,0.667-0.16,0.676C201.015,123.599,201.271,123.006,200.782,122.917z
				"/>
			<path fill="#6BA97E" d="M199.644,123.176c-0.325,0.021-0.425,0.611-0.006,0.513C199.938,123.619,200.037,123.15,199.644,123.176z
				"/>
			<path fill="#6BA97E" d="M203.013,121.672c-0.55,0.069-0.358,0.91,0.119,0.724C203.524,122.245,203.497,121.61,203.013,121.672z"
				/>
			<path fill="#6BA97E" d="M204.607,122.203c-0.532-0.127-0.734,0.713-0.162,0.758C204.973,123.002,205.163,122.334,204.607,122.203
				z"/>
			<path fill="#6BA97E" d="M204.064,121.354c-0.328,0.054-0.176,0.506,0.094,0.447C204.439,121.741,204.37,121.305,204.064,121.354z
				"/>
			<path fill="#6BA97E" d="M204.767,127.69c-0.288-0.031-0.324,0.263-0.112,0.394C205.024,128.313,205.143,127.73,204.767,127.69z"
				/>
			<path fill="#6BA97E" d="M205.732,124.033c-0.481-0.06-0.335,0.603-0.014,0.642C206.083,124.72,206.104,124.08,205.732,124.033z"
				/>
			<path fill="#6BA97E" d="M205.608,125.393c-0.52-0.006-0.392,0.816,0.077,0.592C206.03,125.82,206.034,125.398,205.608,125.393z"
				/>
			<path fill="#6BA97E" d="M206.514,124.492c-0.444,0.076-0.18,0.696,0.174,0.539C207.004,124.893,206.853,124.433,206.514,124.492z
				"/>
		</g>
	</g>
	<path fill="#FFBF96" d="M228.386,142.842c0,0-22.433-0.492-22.955-2.189c-0.084-0.271-0.107-0.56-0.13-0.845
		c-0.114-1.494-0.287-2.996-0.53-4.477c-0.309-0.114-0.633-0.208-0.963-0.189c-0.329,0.019-0.666,0.166-0.84,0.445
		c-0.188,0.3-0.156,0.679-0.161,1.033c-0.006,0.327-0.048,0.655-0.126,0.972c-0.315,1.295-3.487,1.009-4.259,0.81
		c-0.393-0.103-3.041-0.542-3.226-0.014c-0.28,0.798,0.479,1.761,1.322,1.676c-0.769-0.176-1.68,1.247-2.248,2.871
		c1.283,3.293,4.154,4.909,4.154,4.909l7.077-0.555c0,0,28.465,7.239,31.968,5.341C240.973,150.733,227.945,142.833,228.386,142.842
		z"/>
	<path fill="#DB8D5A" d="M229.931,110.014c0.125,0.221,0.248,0.444,0.369,0.667c0.94,1.737,0.504,2.266-0.336,3.953
		c-0.713,1.429-1.264,2.036-2.656,2.865c-1.278,0.76-2.648,1.368-4.072,1.801c-0.441,0.135-1.005,0.24-1.443,0.016
		c-0.097-0.049-0.957-0.769-0.664-0.915c-0.615,0.308-1.45,0.273-1.897-0.25c-0.545-0.633-0.296-1.598-0.019-2.388
		c-0.374,0.275-0.92,0.284-1.305,0.024c-0.383-0.261-0.575-0.772-0.458-1.22c0.048-0.19,0.146-0.366,0.169-0.561
		c0.023-0.192-0.062-0.424-0.251-0.474c-0.171-0.042-0.334,0.077-0.502,0.123c-0.351,0.095-0.723-0.142-0.903-0.456
		c-0.734-1.289-0.185-2.275,0.733-3.178c0.843-0.83,3.619-4.635,2.215-6.023c-0.344-0.341-0.727-0.643-1.14-0.899
		c-0.443-0.277-0.949-0.526-1.188-0.993c-0.222-0.434-0.153-0.975,0.072-1.405c0.44-0.832,0.981-1.081,1.824-0.734
		c0.938,0.386,1.866,0.793,2.788,1.216c0.588,0.271,1.172,0.548,1.754,0.832c0.816,0.399,1.615,0.625,2.285,1.269
		c0.828,0.797,1.412,1.822,2.073,2.754C228.29,107.322,229.157,108.64,229.931,110.014z"/>
	<g>
		<g>
			<path fill="#777776" d="M250.12,91.506c-0.016-0.269-0.088-0.493-0.193-0.678V90.82c-0.258-0.466-0.854-0.761-1.382-0.708
				c-0.35,0.036-0.779,0.182-1.113,0.316c-0.004,0-0.006,0-0.009,0.001l-0.019,0.009c-0.304,0.122-0.527,0.231-0.527,0.231
				l-9.974,4.392c-0.789,0.349-1.383,1.392-1.325,2.333l1.446,23.767c0.02,0.322,0.117,0.583,0.262,0.783l-0.003,0.005
				c0.005,0.005,0.011,0.01,0.015,0.014c0.123,0.162,0.278,0.279,0.458,0.339c0.847,0.391,1.966-0.063,1.966-0.063l10.52-4.633
				c0.789-0.347,1.383-1.392,1.325-2.333L250.12,91.506z"/>
			<g>
				<path fill="#4A4A49" d="M251.566,115.272c0.058,0.941-0.536,1.986-1.325,2.333l-10.52,4.633
					c-0.789,0.347-1.476-0.134-1.534-1.077l-1.444-23.767c-0.058-0.941,0.535-1.984,1.324-2.333l10.52-4.632
					c0.789-0.346,1.477,0.134,1.533,1.076L251.566,115.272z"/>
			</g>
			<path fill="#777776" d="M239.576,97.275c0.062,0.596-0.135,1.189-0.439,1.323c-0.304,0.132-0.599-0.242-0.66-0.837
				c-0.063-0.597,0.134-1.189,0.438-1.323C239.219,96.304,239.515,96.678,239.576,97.275z"/>
		</g>
		<g>
			<path fill="#4A4A49" d="M247.092,118.643l-39.699,46.308c-0.729,0.851-2.01,0.949-2.86,0.219c-0.851-0.729-0.95-2.01-0.219-2.86
				c0.011-0.013,0.021-0.026,0.034-0.04l0.04-0.044l41.063-45.07c0.411-0.453,1.111-0.485,1.564-0.073
				c0.443,0.404,0.483,1.086,0.097,1.538L247.092,118.643z"/>
			<g>
				<defs>
					<path id="SVGID_5_" d="M247.092,118.643l-39.699,46.308c-0.729,0.851-2.01,0.949-2.86,0.219c-0.851-0.729-0.95-2.01-0.221-2.86
						c0.013-0.013,0.023-0.026,0.036-0.04l0.04-0.044l41.063-45.07c0.411-0.453,1.111-0.485,1.564-0.073
						c0.443,0.404,0.483,1.086,0.095,1.538L247.092,118.643z"/>
				</defs>
				<clipPath id="SVGID_6_">
					<use xlink:href="#SVGID_5_"  overflow="visible"/>
				</clipPath>
				<path clip-path="url(#SVGID_6_)" fill="#8E8E8D" d="M236.74,136.902c-0.049,0-0.098-0.001-0.147-0.008
					c-7.241-0.718-8.269-4.928-8.31-5.106l2.881-0.649l-0.011-0.043c0.029,0.095,0.758,2.366,5.731,2.86
					c0.812,0.081,1.404,0.803,1.324,1.615C238.132,136.334,237.49,136.902,236.74,136.902z"/>
				<path clip-path="url(#SVGID_6_)" fill="#8E8E8D" d="M223.662,150.808c-0.121,0-0.243-0.014-0.367-0.045
					c-7.05-1.8-7.434-6.116-7.446-6.299l2.946-0.207l-0.005-0.046c0.014,0.1,0.395,2.454,5.236,3.69
					c0.789,0.202,1.267,1.006,1.066,1.797C224.922,150.363,224.32,150.808,223.662,150.808z"/>
			</g>
		</g>
	</g>
	<path fill="#BE6B41" d="M151.592,32.592c-0.112-1.294-0.59-2.592-1.52-3.5c-0.96-0.939-2.308-1.378-3.636-1.576
		c-3.431-0.507-6.494,1.064-8.688,3.6c-1.465,1.692-2.628,3.673-2.764,5.953c-0.021,0.342-0.017,0.695,0.109,1.012
		c0.796,1.989,4.713,3.041,6.531,3.458c0.826,0.192,1.575,0.611,2.465,0.52c0.61-0.063,1.17-0.358,1.699-0.666
		c1.577-0.92,3.38-2.078,4.591-3.463C151.528,36.615,151.737,34.269,151.592,32.592z"/>
	<g>
		<path fill="#FFFFFF" d="M163.096,93.424l4.271,2.537l1.063,8.183l-7.79-3.466C160.639,100.677,162.637,93.427,163.096,93.424z"/>
		<path fill="#FFFFFF" d="M152.218,101.032l-10.461,3.104l1.418-8.599c0,0,3.31-2.669,3.725-1.951
			C148.158,95.778,152.218,101.032,152.218,101.032z"/>
	</g>
	<g>
		<path fill="#632B1F" d="M127.094,104.673c-0.861,3.139-2.548,13.389,3.401,16.682c3.824,2.118,26.261,16.493,32.534,19.987
			c9.903,5.515,21.574,9.999,21.574,9.999s7.969-9.226,8.266-11.857s-10.496-3.23-21.746-10.813
			c-6.844-4.613-15.961-14.307-19.297-16.9C143.008,104.914,128.665,98.957,127.094,104.673z"/>
		<path fill="#DB8D5A" d="M183.347,148.168c1.163,0.245,19.299,7.246,19.961,7.957c0.002,0.003,7.542,8.113,7.542,8.113
			s5.003,1.179,9.954-1.248c1.062-2.466,1.52-5.063,0.451-5.671c0.877,0.989,2.766,0.685,3.29-0.529
			c0.344-0.799-3.161-3.091-3.721-3.39c-1.098-0.585-5.042-3.606-4.036-5.429c0.246-0.448,0.544-0.866,0.883-1.248
			c0.367-0.412,0.804-0.816,0.906-1.358c0.095-0.504-0.136-1.03-0.494-1.399s-0.83-0.603-1.305-0.799
			c-1.843,1.444-3.627,2.986-5.338,4.582c-0.326,0.302-0.658,0.608-1.044,0.833c-1.024,0.598-2.973-0.213-3.969-0.514
			c-0.301-0.09-17.574-7.773-17.275-7.682c0.031,0.009-1.302,1.998-2.763,3.95C184.809,146.449,183.347,148.168,183.347,148.168z"/>
		<g>
			<path fill="#734035" d="M177.287,149.167c0.03-0.196,0.099-0.403,0.161-0.524c0.181-0.355,0.459-0.688,0.682-1.018
				c0.527-0.789,1.047-1.581,1.556-2.38c0.931-1.463,2.008-2.994,2.588-4.642c0.777-2.198,2.33-6.597,3.105-6.467
				c0.776,0.129,2.587,1.164,3.753,1.422c1.163,0.259,4.657,1.166,4.657,2.07c0,0.906-0.388,4.27-2.717,7.634
				c-2.329,3.363-5.563,7.244-6.21,7.502c-0.7,0.28-2.19-0.983-2.735-1.31c-0.818-0.49-1.718-0.804-2.626-1.077
				c-0.505-0.152-2.021-0.301-2.208-0.859C177.264,149.429,177.267,149.3,177.287,149.167z"/>
			<path fill="#FFF2E3" d="M183.646,152.781c0,0,0.995,0.461,1.123,0.596c0.409,0.432,2.041-1.925,2.248-2.221
				c2.333-3.33,5.206-6.082,7.233-9.382c0.556-0.901-2.023-2.146-2.647-2.107C190.883,139.712,182.239,151.979,183.646,152.781z"/>
			<path fill="#FFF2E3" d="M193.876,142.078c0,0-1.328-3.271-1.374-3.46c-0.048-0.191,0.331-1.802,0.521-2.465
				c0.19-0.664,2.607,0.616,2.749,1.138C195.915,137.811,195.203,141.129,193.876,142.078z"/>
		</g>
	</g>
	<g>
		<path opacity="0.8" fill="#FFF9AA" d="M184.031,48.53c-2.846,2.808-4.607,6.194,0.475,7.695c4.468,1.32,10.016-0.223,14.201-1.76
			c3.856-1.417,15.771-4.382,14.391-10.094c-0.876-3.626-8.372-3.567-11.547-3.533c-4.389,0.049-8.694,1.583-12.412,3.761
			C187.9,45.325,185.765,46.821,184.031,48.53z"/>
		<path opacity="0.8" fill="#FFF9AA" d="M190.097,42.012c-2.24,2.072-3.427,5.074-2.137,8.175c0.601,1.441,5.024,0.42,6.164,0.189
			c3.056-0.625,6.086-1.755,8.641-3.563c2.847-2.012,0.285-5.062-1.825-6.43C197.598,38.217,192.977,39.348,190.097,42.012z"/>
		<g>
			<g>
				<path fill="#805D4A" d="M186.283,44.562c-0.326,0.258-0.564,0.637-0.746,1.006c-0.067,0.139-0.142,0.317-0.174,0.497
					c-0.022-0.093-0.044-0.186-0.063-0.28c-0.066-0.311-0.074-0.625-0.161-0.933c-0.071-0.259-0.161-0.549-0.084-0.818
					c0.008-0.024-0.043,0.003-0.049,0.014c-0.092,0.191-0.064,0.386-0.027,0.588c0.062,0.324,0.148,0.629,0.187,0.959
					c0.057,0.472,0.189,0.946,0.359,1.404c-0.156-0.204-0.351-0.384-0.509-0.583c-0.235-0.297-0.416-0.629-0.602-0.957
					c-0.009-0.012-0.045,0.014-0.04,0.026c0.224,0.674,0.696,1.275,1.234,1.732c0.07,0.177,0.146,0.35,0.223,0.518
					c0.023,0.051,0.048,0.098,0.071,0.148c-0.365-0.358-0.85-0.541-1.415-0.495c-0.009,0.001-0.043,0.028-0.024,0.031
					c0.353,0.04,0.684,0.081,1.007,0.241c0.32,0.161,0.491,0.466,0.694,0.741c0.154,0.291,0.319,0.578,0.485,0.862
					c-0.095-0.103-0.194-0.201-0.299-0.291c-0.299-0.254-0.775-0.229-1.138-0.279c-0.007-0.001-0.025,0.016-0.018,0.019
					c0.337,0.087,0.687,0.104,0.995,0.274c0.453,0.249,0.69,0.794,1.004,1.189c0.045,0.076,0.092,0.15,0.138,0.224
					c-0.093-0.078-0.196-0.144-0.294-0.21c-0.197-0.136-0.399-0.27-0.622-0.359c-0.015-0.006-0.068,0.023-0.053,0.04
					c0.147,0.146,0.327,0.249,0.503,0.36c0.201,0.127,0.388,0.294,0.604,0.395c0.056,0.006,0.224,0.41,0.299,0.474
					c0.131-0.311-0.369-0.802-0.517-1.047c-0.04-0.066-0.078-0.131-0.118-0.196c0.005-0.006,0.008-0.012,0.006-0.017
					c-0.06-0.227-0.058-0.421,0.005-0.649c0.059-0.213,0.185-0.415,0.214-0.633c0.005-0.033-0.066,0.01-0.073,0.019
					c-0.149,0.216-0.346,0.649-0.325,0.99c-0.128-0.217-0.254-0.435-0.377-0.654c-0.09-0.25-0.085-0.502-0.036-0.766
					c0.048-0.251,0.182-0.49,0.214-0.742c0.005-0.036-0.068,0.012-0.075,0.022c-0.181,0.271-0.336,0.745-0.296,1.136
					c-0.101-0.182-0.199-0.366-0.295-0.55c-0.061-0.118-0.118-0.237-0.174-0.358c0.029-0.335,0.072-0.613,0.222-0.926
					c0.131-0.278,0.319-0.527,0.45-0.805c0.013-0.024-0.042-0.001-0.049,0.005c-0.296,0.363-0.716,0.948-0.732,1.478
					c-0.15-0.351-0.277-0.714-0.381-1.083c-0.004-0.69,0.541-1.201,0.886-1.758C186.332,44.541,186.292,44.556,186.283,44.562z"/>
				<path fill="#99D4C0" d="M183.674,45.12c0.308-0.213,0.706-0.061,0.941,0.198c0.123,0.135,0.36,0.714,0.23,0.889
					c-0.15,0.2-0.639,0.046-0.835-0.019C183.483,46.009,183.085,45.526,183.674,45.12z"/>
				<path fill="#99D4C0" d="M183.534,47.39c0.032,0.198,0.196,0.374,0.466,0.382c0.178,0.002,0.871-0.06,0.864-0.322
					c-0.001-0.065-0.326-0.358-0.392-0.418c-0.178-0.161-0.368-0.215-0.604-0.145C183.604,46.966,183.502,47.188,183.534,47.39z"/>
				<path fill="#99D4C0" d="M184.756,48.274c0.234,0,0.711,0.058,0.845,0.285c0.237,0.404-0.249,0.537-0.529,0.553
					c-0.32,0.019-0.863,0.125-0.956-0.294C184.032,48.433,184.442,48.272,184.756,48.274z"/>
				<path fill="#99D4C0" d="M185.131,43.349c0.577,0.327,0.604,1.121,0.199,1.498c-0.37,0.347-0.852-0.104-0.909-0.625
					c-0.047-0.432,0.117-1.194,0.692-0.882C185.119,43.342,185.126,43.345,185.131,43.349z"/>
				<path fill="#99D4C0" d="M186.178,44.068c0.297-0.196,0.82-0.174,0.797,0.283c-0.02,0.376-0.717,0.951-1.087,0.937
					C185.323,45.265,185.938,44.225,186.178,44.068z"/>
				<path fill="#99D4C0" d="M187.053,45.827c-0.072,0.625-1.051,1.252-1.046,0.268C186.009,45.438,187.151,44.978,187.053,45.827z"
					/>
				<path fill="#805D4A" d="M185.33,44.846c0.211-0.198,0.305-0.505,0.264-0.802c-0.022-0.024-0.054-0.033-0.091,0
					c-0.058,0.052-0.087,0.145-0.104,0.217c-0.019,0.073-0.023,0.174-0.068,0.237c-0.084,0.115-0.173-0.119-0.188-0.177
					c-0.019-0.068-0.065-0.284-0.168-0.279c-0.103,0.005-0.081,0.212-0.071,0.274c0.009,0.054,0.082,0.208,0.03,0.255
					c-0.089,0.078-0.203-0.129-0.239-0.178c-0.037-0.054-0.157-0.212-0.236-0.173c-0.013,0.005-0.023,0.015-0.033,0.026
					C184.494,44.756,184.966,45.187,185.33,44.846z"/>
				<path fill="#99D4C0" d="M185.813,49.345c0.347-0.393,0.77,0.063,0.886,0.411c0.11,0.338-0.202,0.463-0.501,0.404
					C185.836,50.09,185.524,49.669,185.813,49.345z"/>
				<path fill="#99D4C0" d="M187.223,48.78c-0.277-0.173-0.171-0.688-0.004-0.894c0.248-0.306,0.655-0.087,0.645,0.285
					c-0.009,0.255-0.299,0.792-0.62,0.621C187.236,48.789,187.229,48.784,187.223,48.78z"/>
				<path fill="#99D4C0" d="M186.591,47.931c-0.083-0.037-0.157-0.101-0.204-0.185c-0.088-0.157-0.073-0.349,0.001-0.508
					c0.109-0.235,0.396-0.437,0.645-0.269c0.285,0.196,0.149,0.699-0.058,0.901C186.862,47.979,186.716,47.987,186.591,47.931z"/>
				<path fill="#805D4A" d="M184.648,45.361c-0.134-0.028-0.068,0.282-0.058,0.341c0.008,0.039,0.016,0.078,0.024,0.117
					c0.008,0.034,0.025,0.063-0.017,0.051c-0.048-0.014-0.104-0.079-0.137-0.112c-0.047-0.047-0.089-0.098-0.144-0.137
					c-0.07-0.048-0.084,0.006-0.068,0.075c0.019,0.09,0.09,0.122,0.134,0.194c0.024,0.041,0.035,0.083-0.013,0.109
					c-0.111,0.065-0.265-0.048-0.38-0.045c-0.019,0.001-0.09,0.003-0.107,0.014h-0.001c-0.023,0.02-0.007,0.047,0.002,0.071
					c0.017,0.048,0.039,0.089,0.066,0.127c0.019,0.007,0.039,0.016,0.06,0.022c0.196,0.065,0.685,0.219,0.835,0.019
					C184.965,46.047,184.775,45.548,184.648,45.361z"/>
				<path fill="#805D4A" d="M184.546,47.179c0.017,0.02,0.09,0.098,0.073,0.13c-0.023,0.044-0.184-0.096-0.209-0.109
					c-0.092-0.046-0.068,0.084-0.026,0.126c0.043,0.041,0.202,0.064,0.191,0.133c-0.011,0.079-0.148,0.11-0.208,0.12
					c-0.064,0.011-0.169,0.003-0.188,0.084c-0.017,0.061,0.021,0.084,0.067,0.092c0.268-0.032,0.621-0.117,0.617-0.305
					c-0.001-0.056-0.229-0.27-0.34-0.372C184.494,47.105,184.522,47.149,184.546,47.179z"/>
				<path fill="#805D4A" d="M186.509,45.011c-0.104-0.042-0.293,0.12-0.379,0.07c0.042-0.076,0.31-0.371,0.095-0.383
					c-0.079-0.004-0.154,0.125-0.184,0.178c-0.046,0.078-0.134,0.244-0.194,0.122c-0.038-0.075,0.016-0.197,0.002-0.279
					c-0.011-0.071-0.038-0.098-0.069-0.098c-0.153,0.318-0.21,0.655,0.108,0.667C186.058,45.295,186.298,45.177,186.509,45.011z"/>
				<path fill="#805D4A" d="M186.715,46.422c-0.137-0.125-0.327,0.002-0.45,0.068c0.025-0.123,0.188-0.261,0.144-0.393
					c-0.063-0.188-0.189,0.224-0.246,0.26c-0.027-0.082-0.005-0.451-0.09-0.533c-0.04,0.083-0.065,0.174-0.065,0.27
					C186.002,46.727,186.406,46.693,186.715,46.422z"/>
				<path fill="#805D4A" d="M186.901,47.72c-0.075,0.017-0.137,0.108-0.192,0.156c0.003-0.086,0.107-0.257,0.027-0.333
					c-0.128-0.123-0.139,0.229-0.157,0.289c-0.045-0.07-0.116-0.415-0.213-0.54c-0.054,0.147-0.058,0.314,0.021,0.455
					c0.047,0.083,0.121,0.148,0.204,0.185c0.125,0.056,0.271,0.047,0.384-0.06c0.018-0.017,0.034-0.038,0.05-0.058
					C187.037,47.742,186.99,47.7,186.901,47.72z"/>
				<path fill="#805D4A" d="M187.719,48.574c-0.015-0.003-0.034-0.003-0.059,0c-0.104,0.012-0.217,0.117-0.309,0.167
					c0.003-0.105,0.088-0.304,0.006-0.387c-0.101,0.063-0.027,0.233-0.118,0.301c-0.088-0.132-0.06-0.292-0.162-0.425
					c-0.003,0.005-0.006,0.01-0.01,0.014c-0.038,0.208-0.01,0.432,0.155,0.535c0.007,0.004,0.014,0.009,0.021,0.013
					C187.428,48.891,187.602,48.754,187.719,48.574z"/>
				<path fill="#805D4A" d="M186.699,49.756c-0.04-0.119-0.115-0.25-0.21-0.356c-0.006,0.003-0.013,0.006-0.018,0.012
					c-0.069,0.06,0.087,0.297,0.114,0.355c-0.102,0.075-0.186-0.095-0.271-0.109c0,0.08,0.162,0.217,0.117,0.287
					c-0.037,0.06-0.263-0.041-0.334-0.044c-0.211-0.009-0.148,0.126-0.025,0.22c0.041,0.017,0.084,0.032,0.126,0.04
					C186.497,50.219,186.81,50.094,186.699,49.756z"/>
				<path fill="#805D4A" d="M185.071,49.112c0.28-0.017,0.767-0.149,0.529-0.553c-0.106-0.183-0.438-0.256-0.685-0.278
					c0.021,0.14,0.315,0.13,0.36,0.259c-0.06,0.018-0.273-0.073-0.31,0.002c-0.054,0.111,0.246,0.097,0.283,0.103
					c0.363,0.06-0.108,0.28-0.251,0.302c-0.085,0.014-0.228,0.051-0.179,0.176c0.001,0.004,0.003,0.005,0.004,0.009
					C184.913,49.125,184.999,49.117,185.071,49.112z"/>
			</g>
			<g>
				<path fill="#805D4A" d="M190.562,44.463c0.167,0.244,0.251,0.551,0.296,0.84c0.017,0.108,0.029,0.245,0.014,0.373
					c0.035-0.057,0.069-0.116,0.102-0.176c0.111-0.197,0.184-0.41,0.307-0.601c0.104-0.161,0.226-0.339,0.229-0.538
					c0-0.018,0.028,0.01,0.03,0.019c0.021,0.151-0.036,0.275-0.106,0.406c-0.108,0.208-0.231,0.396-0.328,0.613
					c-0.137,0.309-0.328,0.604-0.538,0.879c0.148-0.106,0.317-0.187,0.468-0.29c0.224-0.152,0.415-0.339,0.611-0.523
					c0.007-0.008,0.026,0.017,0.021,0.025c-0.293,0.411-0.741,0.721-1.204,0.918c-0.085,0.106-0.173,0.208-0.261,0.306
					c-0.025,0.028-0.053,0.057-0.079,0.085c0.323-0.166,0.692-0.189,1.067-0.039c0.006,0.002,0.022,0.028,0.009,0.025
					c-0.247-0.046-0.481-0.087-0.734-0.046c-0.253,0.042-0.434,0.212-0.629,0.356c-0.167,0.167-0.339,0.327-0.512,0.484
					c0.086-0.049,0.174-0.095,0.265-0.133c0.257-0.109,0.575,0.006,0.833,0.049c0.004,0,0.013,0.016,0.009,0.016
					c-0.248-0.011-0.49-0.074-0.736-0.024c-0.361,0.075-0.637,0.396-0.934,0.599c-0.046,0.042-0.094,0.082-0.14,0.124
					c0.079-0.033,0.163-0.057,0.244-0.083c0.162-0.051,0.329-0.098,0.499-0.113c0.011-0.001,0.042,0.032,0.026,0.038
					c-0.13,0.069-0.274,0.102-0.417,0.14c-0.165,0.044-0.325,0.119-0.495,0.142c-0.039-0.007-0.238,0.232-0.303,0.259
					c-0.024-0.239,0.42-0.469,0.572-0.603c0.042-0.037,0.081-0.073,0.12-0.11c0-0.004,0-0.009,0-0.012
					c0.09-0.142,0.129-0.274,0.134-0.442c0.005-0.157-0.038-0.321-0.011-0.476c0.003-0.023,0.042,0.021,0.045,0.03
					c0.056,0.178,0.099,0.513,0.014,0.74c0.131-0.121,0.263-0.241,0.393-0.365c0.114-0.151,0.164-0.324,0.187-0.514
					c0.021-0.182-0.021-0.372,0.011-0.549c0.005-0.025,0.044,0.022,0.047,0.031c0.065,0.221,0.071,0.577-0.038,0.834
					c0.106-0.103,0.212-0.208,0.316-0.312c0.065-0.067,0.13-0.137,0.193-0.207c0.05-0.233,0.079-0.434,0.045-0.676
					c-0.031-0.217-0.107-0.425-0.139-0.643c-0.003-0.02,0.03,0.008,0.033,0.016c0.125,0.308,0.286,0.794,0.188,1.159
					c0.175-0.208,0.339-0.428,0.487-0.658c0.146-0.47-0.116-0.931-0.233-1.382C190.532,44.438,190.558,44.456,190.562,44.463z"/>
				<path fill="#99D4C0" d="M192.22,45.39c-0.164-0.208-0.468-0.189-0.683-0.062c-0.111,0.065-0.396,0.41-0.344,0.556
					c0.061,0.167,0.425,0.166,0.572,0.163C192.161,46.035,192.534,45.792,192.22,45.39z"/>
				<path fill="#99D4C0" d="M191.837,46.964c-0.063,0.128-0.212,0.216-0.396,0.162c-0.122-0.035-0.58-0.223-0.521-0.401
					c0.014-0.044,0.296-0.174,0.354-0.203c0.154-0.07,0.295-0.068,0.44,0.029C191.878,46.662,191.901,46.834,191.837,46.964z"/>
				<path fill="#99D4C0" d="M190.819,47.311c-0.159-0.051-0.497-0.112-0.634,0.016c-0.248,0.224,0.056,0.417,0.242,0.487
					c0.215,0.08,0.561,0.268,0.713,0C191.278,47.57,191.033,47.375,190.819,47.311z"/>
				<path fill="#99D4C0" d="M191.602,43.88c-0.461,0.101-0.647,0.635-0.451,0.977c0.179,0.313,0.602,0.108,0.75-0.233
					c0.123-0.284,0.171-0.837-0.285-0.747C191.61,43.876,191.604,43.878,191.602,43.88z"/>
				<path fill="#99D4C0" d="M190.737,44.148c-0.16-0.195-0.521-0.291-0.603,0.025c-0.065,0.26,0.288,0.798,0.543,0.866
					C191.067,45.143,190.867,44.307,190.737,44.148z"/>
				<path fill="#99D4C0" d="M189.772,45.161c-0.082,0.44,0.452,1.074,0.655,0.403C190.564,45.116,189.884,44.562,189.772,45.161z"/>
				<path fill="#805D4A" d="M191.15,44.856c-0.103-0.179-0.101-0.408-0.012-0.602c0.022-0.011,0.044-0.011,0.063,0.02
					c0.029,0.047,0.029,0.117,0.026,0.169c-0.004,0.054-0.021,0.125-0.004,0.175c0.032,0.096,0.143-0.044,0.166-0.08
					c0.026-0.043,0.104-0.181,0.173-0.157c0.069,0.026,0.01,0.162-0.01,0.203c-0.018,0.035-0.099,0.125-0.073,0.167
					c0.043,0.072,0.166-0.045,0.199-0.071c0.037-0.029,0.151-0.111,0.198-0.068c0.006,0.006,0.013,0.017,0.017,0.026
					C191.738,44.971,191.327,45.165,191.15,44.856z"/>
				<path fill="#99D4C0" d="M189.875,47.815c-0.153-0.34-0.536-0.12-0.688,0.094c-0.148,0.207,0.039,0.356,0.255,0.38
					C189.702,48.318,190.003,48.097,189.875,47.815z"/>
				<path fill="#99D4C0" d="M189.035,47.135c0.226-0.06,0.261-0.432,0.19-0.609c-0.104-0.259-0.427-0.196-0.498,0.062
					c-0.049,0.174,0.035,0.601,0.292,0.551C189.024,47.137,189.03,47.136,189.035,47.135z"/>
				<path fill="#99D4C0" d="M189.644,46.691c0.064-0.009,0.129-0.037,0.177-0.083c0.094-0.087,0.123-0.222,0.107-0.347
					c-0.025-0.181-0.178-0.38-0.382-0.318c-0.235,0.072-0.25,0.444-0.151,0.625C189.448,46.665,189.547,46.701,189.644,46.691z"/>
				<path fill="#805D4A" d="M191.505,45.35c0.098,0.009-0.013,0.207-0.031,0.243c-0.014,0.025-0.027,0.051-0.042,0.075
					c-0.012,0.022-0.03,0.038,0.001,0.04c0.034,0,0.087-0.033,0.116-0.048c0.042-0.022,0.082-0.049,0.127-0.063
					c0.058-0.019,0.055,0.022,0.03,0.065c-0.031,0.058-0.086,0.063-0.132,0.104c-0.025,0.022-0.041,0.05-0.014,0.077
					c0.062,0.068,0.189,0.022,0.268,0.051c0.013,0.003,0.06,0.019,0.07,0.031v0c0.012,0.017-0.005,0.034-0.016,0.048
					c-0.021,0.027-0.045,0.051-0.071,0.072c-0.016,0.001-0.031,0.001-0.046,0.003c-0.147,0.003-0.512,0.005-0.572-0.163
					C191.146,45.75,191.379,45.45,191.505,45.35z"/>
				<path fill="#805D4A" d="M191.193,46.607c-0.016,0.011-0.082,0.049-0.077,0.073c0.006,0.036,0.146-0.025,0.166-0.029
					c0.07-0.012,0.027,0.072-0.011,0.092c-0.037,0.02-0.15,0.001-0.158,0.05c-0.009,0.055,0.078,0.106,0.117,0.125
					c0.041,0.021,0.113,0.039,0.111,0.097c-0.003,0.045-0.033,0.053-0.066,0.048c-0.176-0.078-0.398-0.21-0.355-0.339
					c0.012-0.038,0.21-0.134,0.31-0.181C191.244,46.568,191.215,46.593,191.193,46.607z"/>
				<path fill="#805D4A" d="M190.314,44.72c0.079-0.006,0.174,0.145,0.241,0.128c-0.012-0.06-0.131-0.317,0.018-0.281
					c0.055,0.013,0.078,0.117,0.088,0.16c0.015,0.063,0.039,0.193,0.105,0.123c0.042-0.043,0.03-0.137,0.058-0.19
					c0.022-0.046,0.047-0.058,0.068-0.051c0.036,0.248,0.005,0.489-0.215,0.43C190.562,45.009,190.423,44.877,190.314,44.72z"/>
				<path fill="#805D4A" d="M189.877,45.638c0.119-0.056,0.222,0.07,0.291,0.141c0.009-0.088-0.073-0.216-0.015-0.296
					c0.082-0.113,0.082,0.191,0.112,0.227c0.036-0.049,0.099-0.306,0.173-0.345c0.012,0.068,0.009,0.135-0.011,0.199
					C190.297,45.994,190.029,45.887,189.877,45.638z"/>
				<path fill="#805D4A" d="M189.477,46.481c0.048,0.027,0.069,0.102,0.099,0.146c0.015-0.06-0.02-0.196,0.05-0.232
					c0.113-0.058,0.048,0.183,0.047,0.229c0.045-0.037,0.166-0.258,0.258-0.323c0.007,0.113-0.026,0.229-0.109,0.306
					c-0.048,0.046-0.112,0.075-0.177,0.083c-0.097,0.01-0.195-0.026-0.249-0.124c-0.007-0.015-0.015-0.032-0.021-0.049
					C189.38,46.467,189.421,46.449,189.477,46.481z"/>
				<path fill="#805D4A" d="M188.741,46.889c0.01,0.001,0.023,0.006,0.039,0.014c0.068,0.029,0.123,0.125,0.176,0.178
					c0.019-0.072,0.003-0.224,0.076-0.265c0.057,0.065-0.028,0.165,0.018,0.23c0.088-0.071,0.103-0.185,0.198-0.254
					c0.003,0.004,0.003,0.009,0.005,0.012c-0.019,0.149-0.084,0.294-0.218,0.332c-0.005,0.001-0.011,0.002-0.016,0.003
					C188.871,47.166,188.782,47.037,188.741,46.889z"/>
				<path fill="#805D4A" d="M189.187,47.909c0.051-0.072,0.13-0.146,0.217-0.198c0.004,0.003,0.007,0.006,0.01,0.011
					c0.034,0.056-0.122,0.184-0.152,0.218c0.053,0.073,0.146-0.025,0.207-0.017c-0.017,0.055-0.156,0.112-0.14,0.17
					c0.013,0.048,0.187,0.028,0.236,0.04c0.146,0.039,0.074,0.12-0.028,0.157c-0.031,0.002-0.064,0.003-0.095,0
					C189.226,48.265,189.038,48.115,189.187,47.909z"/>
				<path fill="#805D4A" d="M190.428,47.813c-0.187-0.07-0.49-0.263-0.242-0.487c0.111-0.103,0.351-0.083,0.524-0.045
					c-0.044,0.09-0.243,0.021-0.301,0.1c0.037,0.024,0.202,0.007,0.21,0.066c0.014,0.087-0.188,0.014-0.215,0.01
					c-0.258-0.036,0.017,0.212,0.109,0.259c0.053,0.026,0.144,0.083,0.084,0.157c-0.002,0.002-0.004,0.002-0.005,0.003
					C190.534,47.855,190.478,47.832,190.428,47.813z"/>
			</g>
			<g>
				<path fill="#79B9BB" d="M192.3,50.094c0.103-0.328,0.087-0.656-0.219-0.891c-0.794-0.612-1.469,0.572-1.816,0.873
					c0.224-0.434,0.182-0.857-0.042-1.363c-0.177-0.403-0.555-0.961-1.135-0.782c-0.695,0.213-0.154,1.062-0.197,1.54
					c-0.293-0.447-0.548-1.138-1.29-1.166c-0.508-0.017-0.827,0.296-0.783,0.706c0.025,0.233,0.333,0.741,0.634,0.867
					c-0.447-0.189-1.12-0.672-1.557-0.383c-0.811,0.532,0.71,1.297,1.335,1.488c-0.323,0.109-0.625,0.237-0.944,0.354
					c-0.263,0.094-0.559,0.242-0.527,0.526c0.094,0.859,1.909,0.599,2.266,0.215c-0.476,0.241-1.784,1.738-0.501,2.112
					c0.662,0.193,1.083-0.606,1.514-0.78c-0.215,0.349-0.313,2.036,0.697,1.782c0.919-0.23,0.637-1.146,0.577-1.809
					c0.271,0.896,2.019,1.575,2.696,0.927c0.732-0.702-0.782-1.429-1.606-1.526c0.653,0.053,1.261,0.03,1.809-0.186
					c0.44-0.176,1.209-0.634,0.808-1.167c-0.511-0.677-1.79-0.358-2.349-0.207C191.808,50.984,192.161,50.537,192.3,50.094z"/>
				<path fill="#DAD49C" d="M188.581,51.627c-0.343,1.144,2.259,1.528,2.211,0.456C190.745,51.083,188.85,50.729,188.581,51.627z"/>
			</g>
			<g>
				<path fill="#FFFBC3" d="M186.446,47.754c0.119-0.073,0.259-0.123,0.411-0.134c0.155-0.012,0.739-0.103,0.847-0.01
					c-0.502-0.429-1.265-0.721-1.141-1.419c0.162-0.92,1.949-0.529,2.433,0.048c0.28,0.333,0.364,0.786,0.288,1.168
					c0.042-0.219,0.534-0.375,0.762-0.392c0.284-0.021,0.578,0.062,0.812,0.21c0.504,0.319,0.607,0.871,0.332,1.294
					c-0.312,0.478-0.949,0.316-1.454,0.101c0.402,0.33,1.007,0.654,0.874,1.175c-0.128,0.505-0.814,0.896-1.453,0.747
					c-0.653-0.151-0.918-0.791-0.721-1.26c-0.305,0.725-1.461,0.709-2.05,0.165c-0.413-0.383-0.521-0.976-0.237-1.402
					C186.221,47.934,186.322,47.832,186.446,47.754z"/>
				<path fill="#DAD49C" d="M188.218,48.165c0.044-0.236,0.439-0.208,0.646-0.109c0.252,0.123,0.218,0.484-0.002,0.599
					C188.595,48.795,188.178,48.387,188.218,48.165z"/>
			</g>
			<g>
				<path fill="#B7E1D3" d="M186.772,50.926c-0.072-0.126-0.171-0.234-0.298-0.307c-0.13-0.075-0.597-0.404-0.728-0.349
					c0.61-0.261,1.393-0.271,1.575-1.07c0.24-1.052-1.462-1.343-2.118-0.917c-0.381,0.248-0.64,0.7-0.733,1.141
					c0.054-0.251-0.305-0.613-0.496-0.722c-0.236-0.137-0.522-0.164-0.786-0.097c-0.567,0.142-0.886,0.691-0.823,1.257
					c0.07,0.635,0.687,0.716,1.211,0.687c-0.484,0.194-1.141,0.302-1.241,0.913c-0.101,0.595,0.331,1.286,0.943,1.381
					c0.626,0.097,1.12-0.483,1.145-1.066c-0.038,0.9,0.965,1.344,1.699,0.992c0.517-0.247,0.853-0.84,0.788-1.412
					C186.893,51.208,186.848,51.058,186.772,50.926z"/>
				<path fill="#DAD49C" d="M185.074,50.663c0.062-0.271-0.292-0.398-0.511-0.374c-0.27,0.031-0.39,0.432-0.249,0.642
					C184.487,51.188,185.019,50.917,185.074,50.663z"/>
			</g>
		</g>
	</g>
</g>
</svg>
