<?xml version="1.0" encoding="utf-8"?>
<!-- Generator: Adobe Illustrator 16.0.0, SVG Export Plug-In . SVG Version: 6.00 Build 0)  -->
<!DOCTYPE svg PUBLIC "-//W3C//DTD SVG 1.1//EN" "http://www.w3.org/Graphics/SVG/1.1/DTD/svg11.dtd">
<svg version="1.1" id="Layer_1" xmlns="http://www.w3.org/2000/svg" xmlns:xlink="http://www.w3.org/1999/xlink" x="0px" y="0px"
	 width="350px" height="350px" viewBox="0 0 350 350" enable-background="new 0 0 350 350" xml:space="preserve">
<g>
	<ellipse fill="#B7A99F" cx="153.779" cy="290.324" rx="99.395" ry="3.258"/>
	<path fill="#FFF7E9" d="M133.033,282.768c0,0,15.892-111.002,64.152-102.186c48.258,8.815,63.883,96.17,63.883,96.17
		S212.088,310.266,133.033,282.768z"/>
	<ellipse fill="#EABB98" cx="197.657" cy="118.167" rx="32.653" ry="26.639"/>
	<path fill="#351F10" d="M227.328,103.325c13.939-12.811,7.914-30.153-11.627-33.279c-15.41-2.466-18.879,11.429-19.611,19.481
		c-5.791,0.833-12.395,3.041-19.916,7.157c0,0,12.031,36.951,33.514,45.543c0,0,26.639-4.297,24.059-25.779
		C233.746,116.448,232,109.972,227.328,103.325z"/>
	<path fill="#FFFFFF" d="M205.391,103.559c1.473-0.948,6.016-4.658,3.541-6.592c-1.941-1.519-7.004,2.736-6.73,4.407
		c0.035-2.162-0.709-7.116-3.66-5.441c-2.074,1.178-1.125,6.877,0.207,8.573c-1.496-2.416-7.385-2.154-7.867,0.35
		c-0.836,4.362,5.875,4.533,8.521,2.995c-1.781,2.102-4.457,5.581-1.883,7.413c0.252,0.178,2.844,0.196,3.166,0.023
		c0.834-0.444,1.58-1.734,1.895-2.943c0.244,2.003,1.162,4.302,2.979,4.096c3.699-0.423,2.377-7.42,1.008-9.048
		c1.813,1.657,5.203,1.434,5.711-0.909C213.146,102.479,207.902,101.838,205.391,103.559z"/>
	<path opacity="0.7" fill="#F7F2E8" d="M227.328,103.325l-21.938,0.234l30.074,85.071l60.15-26.638
		C295.615,161.992,262.154,103.951,227.328,103.325z"/>
	<path fill="#EABB98" d="M185.627,159.414c0,0-1.719-15.468,12.031-14.608c13.748,0.858,12.887,21.482,12.887,21.482
		L185.627,159.414z"/>
	<polygon fill="#FFF7E9" points="184.723,152.969 189.166,186.056 207.906,185.911 211.684,160.703 	"/>
	<polygon fill="#EABB98" points="197.656,151.681 153.832,198.941 206.25,156.835 	"/>
	<ellipse fill="#EABB98" cx="194.219" cy="125.471" rx="6.875" ry="9.023"/>
	<path fill="#351F10" d="M86.749,214.796h40.444c0,0,4.306-94.875-18.904-94.265C75.636,121.39,86.749,214.796,86.749,214.796z"/>
	<path fill="#665E5A" d="M104.851,117.953c-5.155,0-14.607,6.015-14.607,6.015l36.949,63.001l-0.859-63.001L104.851,117.953z"/>
	<polygon fill="#351F10" points="97.119,134.28 155.121,200.23 100.984,173.978 	"/>
	<g>
		
			<ellipse transform="matrix(0.9889 0.1484 -0.1484 0.9889 15.1477 -14.9625)" fill="#EABB98" cx="107.821" cy="94.007" rx="32.653" ry="26.638"/>
		<path fill="#351F10" d="M91.375,116.736l11.982-10.366l30.086-26.766l10.072-14.998c0,0-55.188-25.811-68.156,14.1
			C65.67,108.534,91.375,116.736,91.375,116.736z"/>
		<circle fill="#EABB98" cx="110.158" cy="98.702" r="9.023"/>
	</g>
	<polygon fill="#FFFFFF" points="121.118,120.308 101.357,118.117 110.808,138.886 122.832,124.283 142.069,127.677 134.151,106.46 
			"/>
	<path fill="#351F10" d="M91.89,210.972c0,0,8.694,42.535,12.99,77.767l27.498-0.859l-14.608-8.164l8.135-68.743H91.89z"/>
</g>
</svg>
