<?xml version="1.0" encoding="utf-8"?>
<!-- Generator: Adobe Illustrator 16.0.0, SVG Export Plug-In . SVG Version: 6.00 Build 0)  -->
<!DOCTYPE svg PUBLIC "-//W3C//DTD SVG 1.1//EN" "http://www.w3.org/Graphics/SVG/1.1/DTD/svg11.dtd">
<svg version="1.1" id="Layer_1" xmlns="http://www.w3.org/2000/svg" xmlns:xlink="http://www.w3.org/1999/xlink" x="0px" y="0px"
	 width="350px" height="350px" viewBox="0 0 350 350" enable-background="new 0 0 350 350" xml:space="preserve">
<g>
	<ellipse opacity="0.3" fill="#C0B6A1" cx="175" cy="308.168" rx="115.595" ry="15.631"/>
	<g>
		<path fill="#FFBF96" d="M182.47,89.243c0,0-1.277,10.61-0.85,11.504c0.426,0.895,2.346,2.664,4.311,2.38
			c1.964-0.283,8.225-3.437,8.596-5.495s-0.128-19.938-0.373-19.851C193.909,77.868,182.47,89.243,182.47,89.243z"/>
		<g id="head_1_">
			<path fill="#63261A" d="M201.603,84.133c0.492,3.342,4.571,5.78,7.118,2.586c0.769-0.964,1.037-2.137,1.373-3.295
				c1.806,2.742,3.926,4.806,7.466,4.082c2.122-0.433,4.548-1.35,5.73-3.227c1.181-1.874,1.66-4.151,1.568-6.348
				c-0.168-4.002-2.076-8.206-5.685-10.275c-4.075-2.335-9.703-1.512-12.838,2.004c-2.443,2.74-3.041,6.754-4.063,10.189
				c-0.337,1.136-0.678,2.287-0.716,3.472C201.548,83.596,201.563,83.867,201.603,84.133z"/>
			<path fill="#63261A" d="M165.623,74.437c0.787,2.644,2.019,5.117,3.64,7.46c0.257,0.371,0.544,0.723,0.874,1.031
				c0.147,0.139,0.952,0.583,0.985,0.725c-0.449-1.895-0.9-3.789-1.351-5.684c-0.743-3.129-1.525-6.585-0.651-9.772
				c1.105-4.033,1.683-8.183,2.005-12.347c0.166-2.138-2.391-5.75-4.455-3.223c-1.248,1.527-1.595,3.888-1.714,5.744
				c-0.239,3.721-0.564,7.247-0.266,10.979C164.823,71.117,165.139,72.809,165.623,74.437z"/>
			<path fill="#6F3023" d="M168.01,47.23c-2.488,4.403-4.271,9.836-2.281,14.297c1.463,3.28,5.055,4.554,8.189,5.635
				c3.249,1.121,7.505,0.478,10.35,2.552c3.238,2.362,4.333,7.427,6.555,10.63c0.778,1.12,1.512,2.269,2.228,3.428
				c0.816,1.324,1.208,1.284,2.762,1.07c1.215-0.168,2.402-0.496,3.55-0.927c4.729-1.775,8.677-5.211,11.372-9.456
				c2.569-4.052,4.034-8.803,4.222-13.597c0.151-3.855-1.993-7.901-3.629-11.285c-1.927-3.984-4.298-7.684-8.135-10.044
				c-3.342-2.056-7.293-3.497-11.248-3.836c-2.017-0.173-4.081-0.05-6.021,0.552c-0.917,0.285-1.839,0.666-2.646,1.19
				c-0.646,0.42-1.209,0.972-1.921,1.284c-0.955,0.416-1.122,0.163-1.885-0.415c-1.838-1.389-4.742,0.506-6.104,1.748
				c-1.119,1.02-2.051,2.239-2.945,3.455C169.608,44.614,168.775,45.874,168.01,47.23z"/>
			<path fill="#FFCAA1" d="M171.302,47.633c0,0-4.563,6.368-4.532,16.537c0.016,5.106-0.265,10.323,1.39,15.247
				c1.629,4.854,5.895,12.489,11.595,13.099c5.334,0.57,9.924-1.105,13.62-5.056c3.714-3.971,5.698-8.955,7.348-14.037
				c1.788-5.504,2.955-11.28,2.672-17.09c-0.141-2.877-0.607-6.125-2.406-8.487C198.242,44.243,186.066,31.387,171.302,47.633z"/>
			<path fill="#864023" d="M192.895,65.459c0.628,0.41,1.405,1.459,1.404,2.23c-0.756-0.805-1.956-1.131-2.981-1.451
				c-1.198-0.373-2.486-0.218-3.741-0.183c-0.073,0.002-0.155,0-0.208-0.051c-0.039-0.039-0.052-0.096-0.063-0.15
				c-0.315-1.644,2.573-1.254,3.429-1.106C191.618,64.901,192.349,65.104,192.895,65.459z"/>
			<path fill="#864023" d="M172.048,62.831c-1.302-0.09-2.461-0.024-3.48,0.864c-0.088,0.077-0.172,0.173-0.143,0.297
				c-0.022-0.101,0.607-0.269,0.692-0.29c1.105-0.268,2.295-0.178,3.368,0.192c0.511,0.176,0.933,0.475,1.415,0.698
				c0.442,0.205,0.745-0.038,0.766-0.504C174.712,63.08,172.716,62.877,172.048,62.831z"/>
			<path fill="#FFF2E3" d="M180.523,80.862c-1.487,0.029-2.982-0.064-4.349-0.649c-0.539-0.23-1.001-0.645-1.615-0.666
				c-0.322-0.011,0.507,1.567,0.579,1.696c1.39,2.505,4.78,4.034,7.565,3.21c1.028-0.304,2.034-0.843,2.84-1.554
				c0.379-0.334,0.675-0.878,0.926-1.309c0.343-0.589,0.682-0.963,0.009-1.079c-0.641-0.11-1.592,0.174-2.257,0.207
				c-0.53,0.025-1.063,0.034-1.595,0.058C181.938,80.807,181.231,80.848,180.523,80.862z"/>
			<path fill="#F5AB87" d="M176.828,75.606c0.035,0.073,0.08,0.144,0.135,0.211c0.679,0.814,2.12,0.913,3.086,0.963
				c-0.647-0.287-1.261-0.696-1.67-1.275c-0.407-0.58-0.584-1.35-0.345-2.017c0.174-0.485,0.321-0.979,0.45-1.477
				c0.117-0.453,0.408-0.994,0.254-1.465c-0.164,0.231-0.368,0.518-0.493,0.786c-0.339,0.728-0.678,1.456-0.979,2.201
				C177.031,74.12,176.523,74.956,176.828,75.606z"/>
			<path fill="#6F3023" d="M164.273,72.157c0.025-0.919,0.069-1.836,0.219-2.742c0.387-2.336,1.479-4.494,2.899-6.37
				c1.465-1.938,3.432-3.406,4.856-5.371c1.642-2.264,2.877-4.848,3.363-7.616c-0.194,1.102,3.518,3.131,4.312,3.436
				c1.414,0.542,2.526,1.196,3.781,2.103c2.345,1.694,4.794,3.531,7.375,4.979c1.389,0.78,2.834,1.465,4.343,1.979
				c1.337,0.456,2.947,0.51,4.208,1.125c1.055,0.515,1.253,1.506,1.124,2.575c-0.202,1.698-0.885,3.293-1.124,4.979
				c-0.064,0.453-0.81,5.191,0.616,4.426c4.438-2.381,7.098-15.069,6.858-16.77c-0.518-3.667-0.768-7.496-2.646-10.805
				c-2.104-3.704-6.08-6.59-10.16-7.719c-3.134-0.867-6.438-0.813-9.689-0.753c-3.079,0.057-6.314-0.103-9.208,1.113
				c-3.218,1.352-4.99,3.816-6.938,6.553c-1.718,2.417-2.896,5.119-3.784,7.95c-1.012,3.228-1.922,6.709-2.377,10.062
				c-0.306,2.25-0.028,4.246,0.544,6.419c0.753,2.862,0.716,5.781-1.005,8.313c1.151-0.773,1.785-2.131,2.081-3.486
				C164.235,75.104,164.232,73.628,164.273,72.157z"/>
			<path fill="#FFCAA1" d="M207.922,74.084c-0.382,2.822-2.929,4.806-5.688,4.433c-2.757-0.373-4.688-1.21-4.304-4.032
				c0.38-2.821,3.008-6.257,5.765-5.883C206.453,68.976,208.303,71.264,207.922,74.084z"/>
			<path fill="#6F3023" d="M201.737,65.406c0.893-0.844,3.943-1.878,3.65,0.471c-0.158,1.266-1.363,1.807-2.105,2.67
				c-1.743,2.03-1.971,4.671-2.253,7.207c-0.234,2.114-0.205,4.133-0.218,6.271c-0.014,2.501-0.557,4.859-2.858,6.105
				c-0.613,0.332-1.17,0.518-1.845,0.684c1.363-0.335,2.736-2.529,2.868-3.853c0.227-2.233-0.158-4.665-0.117-6.929
				c0.027-1.541,0.402-2.993,0.47-4.518c0.081-1.771,0.422-3.628,0.898-5.333C200.532,67.091,200.984,66.118,201.737,65.406z"/>
			<path fill="#6F3023" d="M185.929,70.232c0.202-1.506,1.589-2.561,3.094-2.357c1.506,0.204,2.562,1.59,2.357,3.095
				c-0.205,1.506-1.397,1.623-2.902,1.418C186.972,72.185,185.725,71.738,185.929,70.232z"/>
			<path fill="#6F3023" d="M170.063,67.567c0.172-1.272,1.344-2.165,2.616-1.991c1.271,0.172,2.164,1.343,1.992,2.615
				c-0.172,1.273-1.035,1.811-2.308,1.639C171.094,69.658,169.893,68.839,170.063,67.567z"/>
			<path fill="#8C594F" d="M198.785,45.141c0.746,1.081,0.895,2.271,0.331,2.66c-0.562,0.39-1.058-0.437-1.803-1.516
				c-0.748-1.079-1.464-2.002-0.9-2.391C196.978,43.503,198.037,44.062,198.785,45.141z"/>
			<path fill="#8C594F" d="M201.372,52.146c0.745,1.08,0.893,2.27,0.331,2.659c-0.563,0.39-1.057-0.437-1.803-1.516
				c-0.748-1.08-1.464-2.002-0.9-2.391C199.562,50.509,200.624,51.067,201.372,52.146z"/>
			<path fill="#8C594F" d="M205.357,52.279c0.746,1.079,0.896,2.27,0.331,2.659c-0.563,0.39-1.057-0.437-1.803-1.516
				c-0.746-1.08-1.464-2.002-0.901-2.391C203.55,50.641,204.609,51.199,205.357,52.279z"/>
		</g>
		<g>
			<g>
				<path fill="#805D4A" d="M211.227,59.723c-0.383,0.396-0.628,0.937-0.8,1.454c-0.064,0.193-0.128,0.44-0.14,0.681
					c-0.046-0.117-0.091-0.236-0.134-0.355c-0.142-0.396-0.209-0.807-0.376-1.196c-0.142-0.326-0.311-0.691-0.258-1.056
					c0.005-0.034-0.057,0.009-0.062,0.025c-0.086,0.268-0.016,0.516,0.069,0.777c0.138,0.413,0.307,0.797,0.417,1.223
					c0.158,0.608,0.417,1.208,0.721,1.777c-0.241-0.24-0.527-0.441-0.771-0.675c-0.361-0.347-0.657-0.749-0.959-1.146
					c-0.014-0.016-0.058,0.024-0.049,0.041c0.413,0.844,1.142,1.549,1.929,2.053c0.124,0.219,0.255,0.433,0.386,0.64
					c0.039,0.06,0.079,0.12,0.118,0.18c-0.54-0.403-1.21-0.557-1.942-0.397c-0.013,0.003-0.053,0.045-0.026,0.044
					c0.469-0.009,0.91-0.014,1.362,0.139c0.45,0.153,0.729,0.522,1.043,0.847c0.257,0.354,0.522,0.701,0.791,1.044
					c-0.143-0.117-0.29-0.228-0.444-0.326c-0.437-0.28-1.056-0.164-1.542-0.165c-0.009,0-0.03,0.026-0.02,0.027
					c0.456,0.055,0.919,0.015,1.354,0.182c0.64,0.245,1.048,0.919,1.529,1.382c0.072,0.09,0.147,0.18,0.221,0.27
					c-0.135-0.086-0.284-0.155-0.424-0.226c-0.282-0.143-0.572-0.281-0.879-0.359c-0.022-0.005-0.086,0.044-0.063,0.062
					c0.22,0.166,0.476,0.271,0.724,0.384c0.289,0.131,0.563,0.316,0.864,0.41c0.074-0.001,0.367,0.497,0.478,0.567
					c0.116-0.43-0.628-0.986-0.866-1.281c-0.064-0.079-0.126-0.158-0.189-0.237c0.006-0.009,0.008-0.018,0.006-0.023
					c-0.12-0.288-0.151-0.542-0.109-0.851c0.037-0.289,0.167-0.577,0.165-0.869c0-0.045-0.084,0.025-0.091,0.04
					c-0.158,0.309-0.338,0.912-0.25,1.353c-0.206-0.261-0.41-0.524-0.611-0.79c-0.163-0.311-0.202-0.645-0.185-0.998
					c0.018-0.338,0.15-0.675,0.146-1.011c0-0.047-0.086,0.029-0.094,0.042c-0.188,0.386-0.307,1.036-0.186,1.543
					c-0.163-0.222-0.325-0.444-0.482-0.67c-0.103-0.143-0.199-0.29-0.294-0.438c-0.021-0.444-0.014-0.818,0.124-1.254
					c0.124-0.389,0.326-0.748,0.449-1.136c0.012-0.035-0.057,0.005-0.063,0.017c-0.324,0.528-0.77,1.372-0.698,2.07
					c-0.258-0.436-0.49-0.889-0.692-1.354c-0.128-0.905,0.494-1.673,0.848-2.463C211.286,59.687,211.235,59.714,211.227,59.723z"/>
				<path fill="#99D4C0" d="M207.902,60.92c0.365-0.334,0.916-0.206,1.271,0.092c0.185,0.155,0.599,0.873,0.46,1.124
					c-0.162,0.29-0.829,0.175-1.1,0.124C207.813,62.122,207.201,61.562,207.902,60.92z"/>
				<path fill="#99D4C0" d="M208.125,63.923c0.077,0.254,0.323,0.458,0.679,0.417c0.234-0.027,1.132-0.233,1.077-0.576
					c-0.014-0.087-0.491-0.412-0.59-0.479c-0.262-0.179-0.521-0.217-0.816-0.082C208.143,63.356,208.046,63.666,208.125,63.923z"/>
				<path fill="#99D4C0" d="M209.885,64.865c0.309-0.041,0.944-0.051,1.161,0.224c0.383,0.488-0.232,0.749-0.597,0.82
					c-0.417,0.082-1.11,0.32-1.306-0.216C208.964,65.202,209.474,64.921,209.885,64.865z"/>
				<path fill="#99D4C0" d="M209.497,58.337c0.814,0.325,0.992,1.361,0.529,1.929c-0.424,0.521-1.136,0.017-1.305-0.656
					c-0.139-0.558-0.059-1.587,0.752-1.282C209.482,58.331,209.489,58.334,209.497,58.337z"/>
				<path fill="#99D4C0" d="M210.998,59.095c0.355-0.31,1.045-0.376,1.098,0.228c0.042,0.497-0.772,1.377-1.259,1.423
					C210.092,60.817,210.713,59.345,210.998,59.095z"/>
				<path fill="#99D4C0" d="M212.462,61.246c0.016,0.83-1.156,1.829-1.326,0.537C211.021,60.921,212.438,60.113,212.462,61.246z"/>
				<path fill="#805D4A" d="M210.026,60.266c0.241-0.295,0.309-0.717,0.203-1.1c-0.036-0.028-0.077-0.034-0.12,0.017
					c-0.066,0.078-0.088,0.205-0.098,0.304c-0.011,0.098,0,0.232-0.048,0.322c-0.089,0.166-0.247-0.125-0.279-0.199
					c-0.037-0.087-0.137-0.362-0.269-0.338c-0.136,0.025-0.069,0.293-0.046,0.374c0.021,0.069,0.145,0.259,0.084,0.329
					c-0.1,0.118-0.289-0.134-0.344-0.19c-0.06-0.063-0.246-0.251-0.342-0.187c-0.015,0.011-0.027,0.025-0.038,0.043
					C208.912,60.298,209.609,60.778,210.026,60.266z"/>
				<path fill="#99D4C0" d="M211.463,66.08c0.387-0.577,1.022-0.056,1.235,0.382c0.207,0.421-0.181,0.642-0.581,0.619
					C211.627,67.053,211.143,66.558,211.463,66.08z"/>
				<path fill="#99D4C0" d="M213.212,65.088c-0.396-0.178-0.348-0.87-0.164-1.172c0.269-0.445,0.843-0.231,0.896,0.261
					c0.035,0.335-0.25,1.092-0.702,0.923C213.23,65.096,213.221,65.092,213.212,65.088z"/>
				<path fill="#99D4C0" d="M212.23,64.088c-0.115-0.033-0.223-0.105-0.3-0.206c-0.144-0.19-0.158-0.444-0.089-0.667
					c0.1-0.327,0.44-0.645,0.797-0.468c0.409,0.205,0.322,0.891,0.085,1.192C212.597,64.101,212.405,64.139,212.23,64.088z"/>
				<path fill="#805D4A" d="M209.225,61.064c-0.182-0.014-0.04,0.381-0.015,0.456c0.017,0.05,0.034,0.1,0.053,0.149
					c0.017,0.042,0.044,0.078-0.014,0.071c-0.064-0.009-0.149-0.086-0.198-0.124c-0.069-0.054-0.134-0.113-0.213-0.154
					c-0.1-0.051-0.108,0.024-0.077,0.11c0.042,0.115,0.141,0.143,0.211,0.23c0.039,0.049,0.062,0.103,0.004,0.146
					c-0.138,0.105-0.356-0.017-0.507,0.009c-0.025,0.004-0.117,0.019-0.139,0.036l-0.002,0.001c-0.026,0.029,0,0.062,0.015,0.092
					c0.03,0.058,0.066,0.109,0.109,0.154c0.027,0.007,0.056,0.012,0.082,0.018c0.271,0.051,0.938,0.166,1.1-0.124
					C209.762,61.906,209.425,61.286,209.225,61.064z"/>
				<path fill="#805D4A" d="M209.414,63.465c0.024,0.023,0.136,0.113,0.119,0.159c-0.021,0.062-0.26-0.093-0.293-0.105
					c-0.13-0.043-0.077,0.122-0.012,0.17c0.064,0.046,0.276,0.05,0.275,0.14c-0.002,0.103-0.176,0.17-0.253,0.194
					c-0.081,0.025-0.22,0.036-0.231,0.143c-0.009,0.083,0.044,0.107,0.104,0.109c0.346-0.09,0.796-0.265,0.757-0.511
					c-0.012-0.072-0.348-0.312-0.514-0.427C209.332,63.379,209.378,63.431,209.414,63.465z"/>
				<path fill="#805D4A" d="M211.601,60.271c-0.143-0.036-0.362,0.211-0.482,0.16c0.041-0.107,0.339-0.542,0.056-0.52
					c-0.105,0.009-0.181,0.191-0.21,0.266c-0.045,0.111-0.131,0.344-0.233,0.194c-0.063-0.092-0.015-0.262-0.047-0.367
					c-0.026-0.091-0.067-0.121-0.108-0.115c-0.145,0.445-0.158,0.896,0.262,0.855C211.06,60.725,211.354,60.527,211.601,60.271z"/>
				<path fill="#805D4A" d="M212.124,62.087c-0.2-0.139-0.429,0.06-0.577,0.169c0.012-0.165,0.198-0.375,0.117-0.54
					c-0.116-0.233-0.21,0.328-0.275,0.384c-0.052-0.102-0.088-0.591-0.215-0.684c-0.038,0.117-0.055,0.241-0.038,0.366
					C211.244,62.614,211.768,62.497,212.124,62.087z"/>
				<path fill="#805D4A" d="M212.601,63.755c-0.097,0.035-0.159,0.167-0.226,0.238c-0.01-0.113,0.095-0.356-0.021-0.441
					c-0.189-0.138-0.142,0.323-0.154,0.405c-0.073-0.082-0.226-0.522-0.376-0.668c-0.045,0.204-0.021,0.423,0.107,0.593
					c0.077,0.1,0.185,0.172,0.3,0.206c0.175,0.051,0.366,0.013,0.493-0.148c0.021-0.026,0.038-0.055,0.057-0.085
					C212.782,63.76,212.714,63.714,212.601,63.755z"/>
				<path fill="#805D4A" d="M213.825,64.728c-0.019,0-0.044,0.004-0.076,0.012c-0.134,0.034-0.264,0.191-0.376,0.274
					c-0.015-0.139,0.062-0.415-0.06-0.509c-0.123,0.102,0.003,0.311-0.102,0.417c-0.14-0.157-0.132-0.371-0.289-0.527
					c-0.003,0.007-0.006,0.014-0.01,0.02c-0.014,0.279,0.064,0.568,0.299,0.673c0.009,0.004,0.019,0.008,0.029,0.012
					C213.501,65.196,213.705,64.987,213.825,64.728z"/>
				<path fill="#805D4A" d="M212.698,66.462c-0.072-0.149-0.194-0.309-0.339-0.43c-0.007,0.004-0.014,0.01-0.02,0.017
					c-0.08,0.093,0.167,0.376,0.212,0.448c-0.118,0.116-0.261-0.094-0.373-0.097c0.014,0.106,0.251,0.255,0.204,0.356
					c-0.039,0.084-0.352-0.007-0.447,0.001c-0.278,0.025-0.173,0.194,0.006,0.293c0.058,0.016,0.116,0.026,0.176,0.03
					C212.518,67.104,212.905,66.884,212.698,66.462z"/>
				<path fill="#805D4A" d="M210.449,65.908c0.364-0.071,0.979-0.332,0.597-0.82c-0.176-0.222-0.622-0.258-0.95-0.242
					c0.054,0.179,0.438,0.114,0.521,0.274c-0.075,0.035-0.371-0.047-0.405,0.059c-0.05,0.156,0.34,0.083,0.389,0.084
					c0.486,0.013-0.091,0.385-0.275,0.441c-0.108,0.033-0.289,0.107-0.202,0.263c0.001,0.004,0.004,0.006,0.007,0.01
					C210.243,65.953,210.354,65.927,210.449,65.908z"/>
			</g>
			<g>
				<path fill="#805D4A" d="M216.82,58.828c0.263,0.291,0.427,0.68,0.537,1.051c0.042,0.139,0.083,0.316,0.086,0.488
					c0.036-0.083,0.07-0.167,0.103-0.25c0.109-0.279,0.165-0.57,0.293-0.843c0.108-0.229,0.235-0.486,0.205-0.747
					c-0.003-0.024,0.04,0.008,0.043,0.02c0.056,0.192,0.001,0.368-0.065,0.551c-0.106,0.292-0.233,0.562-0.322,0.862
					c-0.124,0.43-0.321,0.852-0.55,1.251c0.177-0.166,0.386-0.303,0.563-0.464c0.265-0.24,0.482-0.52,0.707-0.796
					c0.009-0.011,0.039,0.019,0.033,0.03c-0.312,0.592-0.845,1.079-1.415,1.421c-0.093,0.153-0.189,0.303-0.288,0.447
					c-0.029,0.043-0.06,0.084-0.088,0.126c0.394-0.275,0.873-0.371,1.392-0.242c0.009,0.003,0.036,0.033,0.018,0.032
					c-0.334-0.016-0.648-0.029-0.974,0.07c-0.323,0.099-0.528,0.356-0.76,0.582c-0.189,0.246-0.385,0.487-0.585,0.726
					c0.104-0.081,0.212-0.156,0.324-0.224c0.316-0.189,0.755-0.094,1.1-0.084c0.007,0.001,0.021,0.019,0.015,0.02
					c-0.327,0.03-0.655-0.008-0.969,0.102c-0.459,0.161-0.764,0.632-1.116,0.952c-0.055,0.063-0.109,0.125-0.163,0.187
					c0.098-0.058,0.205-0.104,0.306-0.152c0.205-0.095,0.414-0.188,0.635-0.237c0.014-0.004,0.059,0.033,0.043,0.045
					c-0.16,0.113-0.345,0.182-0.523,0.257c-0.208,0.087-0.408,0.213-0.625,0.274c-0.052-0.002-0.271,0.347-0.35,0.394
					c-0.074-0.309,0.467-0.688,0.643-0.893c0.047-0.055,0.093-0.11,0.139-0.165c-0.002-0.006-0.005-0.012-0.002-0.017
					c0.09-0.202,0.119-0.382,0.095-0.604c-0.021-0.207-0.106-0.414-0.1-0.621c0.001-0.033,0.06,0.02,0.064,0.029
					c0.104,0.223,0.222,0.656,0.149,0.968c0.151-0.181,0.303-0.364,0.451-0.549c0.123-0.219,0.157-0.455,0.152-0.707
					c-0.005-0.242-0.093-0.484-0.084-0.723c0.001-0.034,0.062,0.022,0.066,0.032c0.125,0.279,0.197,0.744,0.101,1.102
					c0.12-0.154,0.241-0.31,0.357-0.466c0.075-0.1,0.148-0.203,0.219-0.306c0.023-0.316,0.026-0.582-0.063-0.896
					c-0.08-0.279-0.217-0.539-0.296-0.817c-0.008-0.025,0.04,0.005,0.045,0.014c0.22,0.382,0.52,0.992,0.453,1.487
					c0.194-0.305,0.369-0.622,0.521-0.949c0.109-0.642-0.317-1.201-0.552-1.771C216.778,58.801,216.813,58.822,216.82,58.828z"/>
				<path fill="#99D4C0" d="M219.16,59.749c-0.252-0.245-0.646-0.164-0.905,0.04c-0.136,0.106-0.445,0.608-0.352,0.791
					c0.108,0.209,0.586,0.143,0.779,0.111C219.2,60.607,219.646,60.22,219.16,59.749z"/>
				<path fill="#99D4C0" d="M218.939,61.883c-0.061,0.178-0.239,0.318-0.49,0.282c-0.168-0.024-0.802-0.19-0.756-0.433
					c0.011-0.062,0.358-0.284,0.43-0.329c0.19-0.122,0.375-0.143,0.583-0.041C218.939,61.478,219.001,61.701,218.939,61.883z"/>
				<path fill="#99D4C0" d="M217.667,62.516c-0.218-0.036-0.671-0.057-0.829,0.135c-0.284,0.339,0.148,0.538,0.405,0.596
					c0.297,0.067,0.784,0.251,0.935-0.126C218.316,62.776,217.959,62.564,217.667,62.516z"/>
				<path fill="#99D4C0" d="M218.079,57.877c-0.586,0.214-0.735,0.949-0.418,1.362c0.292,0.379,0.81,0.035,0.943-0.439
					c0.11-0.395,0.075-1.128-0.508-0.929C218.09,57.873,218.084,57.875,218.079,57.877z"/>
				<path fill="#99D4C0" d="M216.995,58.386c-0.247-0.229-0.736-0.29-0.785,0.139c-0.041,0.353,0.52,0.997,0.865,1.04
					C217.604,59.63,217.193,58.569,216.995,58.386z"/>
				<path fill="#99D4C0" d="M215.909,59.886c-0.029,0.592,0.783,1.327,0.932,0.41C216.94,59.685,215.949,59.081,215.909,59.886z"/>
				<path fill="#805D4A" d="M217.661,59.239c-0.164-0.215-0.203-0.517-0.12-0.787c0.026-0.019,0.056-0.022,0.085,0.015
					c0.046,0.057,0.059,0.147,0.063,0.218c0.004,0.071-0.005,0.166,0.027,0.231c0.059,0.121,0.178-0.084,0.201-0.135
					c0.029-0.061,0.107-0.255,0.2-0.235c0.095,0.021,0.042,0.21,0.023,0.267c-0.015,0.049-0.107,0.182-0.066,0.233
					c0.07,0.086,0.21-0.09,0.249-0.129c0.045-0.044,0.181-0.174,0.248-0.125c0.01,0.007,0.019,0.018,0.025,0.031
					C218.454,59.286,217.948,59.613,217.661,59.239z"/>
				<path fill="#99D4C0" d="M216.519,63.348c-0.262-0.418-0.726-0.061-0.887,0.247c-0.155,0.296,0.115,0.46,0.401,0.452
					C216.382,64.038,216.736,63.695,216.519,63.348z"/>
				<path fill="#99D4C0" d="M215.296,62.605c0.283-0.119,0.264-0.613,0.141-0.831c-0.183-0.323-0.596-0.182-0.643,0.167
					c-0.032,0.238,0.154,0.782,0.48,0.672C215.281,62.611,215.287,62.608,215.296,62.605z"/>
				<path fill="#99D4C0" d="M216.015,61.915c0.082-0.021,0.161-0.071,0.217-0.141c0.106-0.132,0.122-0.313,0.078-0.472
					c-0.064-0.235-0.301-0.468-0.558-0.35c-0.296,0.137-0.248,0.627-0.085,0.847C215.753,61.916,215.889,61.947,216.015,61.915z"/>
				<path fill="#805D4A" d="M218.217,59.824c0.13-0.006,0.021,0.272,0.002,0.325c-0.015,0.035-0.028,0.071-0.042,0.105
					c-0.013,0.03-0.032,0.055,0.009,0.051c0.045-0.005,0.108-0.058,0.144-0.083c0.05-0.037,0.098-0.078,0.155-0.105
					c0.071-0.035,0.076,0.019,0.052,0.081c-0.031,0.081-0.104,0.098-0.154,0.159c-0.029,0.034-0.046,0.071-0.007,0.104
					c0.096,0.078,0.255-0.004,0.361,0.017c0.018,0.003,0.083,0.016,0.099,0.028c0,0.001,0,0.001,0,0.001
					c0.018,0.022,0,0.044-0.012,0.066c-0.023,0.04-0.05,0.076-0.082,0.107c-0.019,0.004-0.038,0.008-0.059,0.011
					c-0.193,0.032-0.671,0.099-0.779-0.111C217.816,60.412,218.07,59.978,218.217,59.824z"/>
				<path fill="#805D4A" d="M218.032,61.529c-0.018,0.016-0.099,0.078-0.088,0.11c0.013,0.044,0.187-0.061,0.211-0.069
					c0.092-0.028,0.051,0.089,0.004,0.121c-0.046,0.032-0.197,0.029-0.197,0.095c-0.002,0.073,0.119,0.124,0.175,0.143
					c0.057,0.021,0.155,0.031,0.162,0.107c0.005,0.059-0.034,0.075-0.078,0.075c-0.243-0.071-0.561-0.205-0.527-0.379
					c0.009-0.051,0.254-0.214,0.374-0.293C218.092,61.47,218.058,61.505,218.032,61.529z"/>
				<path fill="#805D4A" d="M216.541,59.21c0.104-0.023,0.253,0.157,0.341,0.124c-0.026-0.077-0.23-0.392-0.028-0.371
					c0.075,0.008,0.124,0.14,0.145,0.194c0.028,0.08,0.085,0.248,0.16,0.143c0.048-0.064,0.017-0.186,0.042-0.26
					c0.021-0.064,0.05-0.084,0.08-0.08c0.093,0.32,0.094,0.64-0.205,0.604C216.917,59.544,216.712,59.397,216.541,59.21z"/>
				<path fill="#805D4A" d="M216.131,60.493c0.146-0.096,0.305,0.051,0.408,0.132c-0.005-0.118-0.134-0.272-0.072-0.387
					c0.087-0.164,0.143,0.238,0.188,0.279c0.037-0.072,0.074-0.418,0.165-0.482c0.026,0.083,0.035,0.173,0.021,0.262
					C216.745,60.885,216.376,60.791,216.131,60.493z"/>
				<path fill="#805D4A" d="M215.758,61.67c0.067,0.026,0.109,0.123,0.154,0.174c0.011-0.081-0.06-0.256,0.025-0.313
					c0.139-0.094,0.095,0.232,0.102,0.291c0.053-0.056,0.172-0.366,0.282-0.467c0.026,0.146,0.006,0.302-0.09,0.419
					c-0.056,0.069-0.135,0.119-0.217,0.141c-0.126,0.032-0.262,0.001-0.348-0.116c-0.015-0.019-0.026-0.04-0.039-0.062
					C215.628,61.67,215.679,61.638,215.758,61.67z"/>
				<path fill="#805D4A" d="M214.865,62.337c0.014,0,0.032,0.003,0.054,0.009c0.096,0.028,0.185,0.142,0.263,0.203
					c0.014-0.098-0.035-0.296,0.054-0.361c0.084,0.075-0.01,0.221,0.063,0.298c0.104-0.109,0.102-0.261,0.218-0.369
					c0.002,0.004,0.003,0.01,0.006,0.015c0.003,0.199-0.059,0.402-0.226,0.473c-0.009,0.003-0.015,0.005-0.021,0.008
					C215.087,62.677,214.945,62.523,214.865,62.337z"/>
				<path fill="#805D4A" d="M215.632,63.595c0.056-0.105,0.146-0.216,0.249-0.299c0.005,0.003,0.011,0.007,0.014,0.012
					c0.056,0.068-0.125,0.264-0.16,0.314c0.083,0.085,0.188-0.061,0.269-0.06c-0.012,0.075-0.184,0.176-0.153,0.248
					c0.026,0.061,0.251,0.002,0.319,0.01c0.198,0.024,0.119,0.142-0.011,0.209c-0.041,0.01-0.082,0.016-0.125,0.018
					C215.747,64.055,215.477,63.891,215.632,63.595z"/>
				<path fill="#805D4A" d="M217.243,63.247c-0.257-0.058-0.689-0.256-0.405-0.596c0.127-0.154,0.447-0.171,0.68-0.152
					c-0.042,0.126-0.314,0.072-0.376,0.184c0.053,0.026,0.266-0.025,0.288,0.05c0.032,0.112-0.245,0.052-0.279,0.052
					c-0.348-0.001,0.059,0.276,0.188,0.32c0.076,0.026,0.203,0.082,0.14,0.191c-0.003,0.002-0.004,0.004-0.007,0.007
					C217.39,63.283,217.312,63.262,217.243,63.247z"/>
			</g>
			<g>
				<path fill="#79B9BB" d="M220.104,65.905c0.076-0.45,0-0.875-0.444-1.13c-1.149-0.66-1.824,1.013-2.227,1.471
					c0.214-0.609,0.084-1.159-0.298-1.78c-0.305-0.496-0.899-1.162-1.629-0.823c-0.875,0.404-0.012,1.419,0.018,2.057
					c-0.465-0.535-0.923-1.396-1.902-1.299c-0.667,0.066-1.032,0.536-0.899,1.064c0.075,0.302,0.568,0.913,0.985,1.024
					c-0.62-0.166-1.589-0.68-2.112-0.224c-0.966,0.843,1.166,1.575,2.02,1.715c-0.403,0.202-0.777,0.423-1.177,0.632
					c-0.328,0.172-0.689,0.418-0.598,0.783c0.276,1.111,2.612,0.447,3.011-0.121c-0.581,0.401-2.03,2.599-0.279,2.86
					c0.902,0.135,1.313-0.989,1.845-1.294c-0.219,0.496-0.046,2.726,1.234,2.213c1.164-0.466,0.63-1.617,0.434-2.475
					c0.517,1.125,2.931,1.704,3.702,0.732c0.836-1.052-1.28-1.734-2.38-1.714c0.866-0.048,1.658-0.185,2.34-0.567
					c0.547-0.308,1.472-1.049,0.851-1.674c-0.791-0.797-2.414-0.148-3.12,0.149C219.621,67.16,220.003,66.51,220.104,65.905z"/>
				<path fill="#DAD49C" d="M215.503,68.58c-0.245,1.563,3.235,1.603,2.98,0.205C218.243,67.479,215.694,67.354,215.503,68.58z"/>
			</g>
			<g>
				<path fill="#FFFBC3" d="M212.012,63.881c0.143-0.117,0.315-0.208,0.514-0.249c0.201-0.043,0.951-0.267,1.109-0.165
					c-0.734-0.474-1.789-0.722-1.75-1.659c0.048-1.234,2.463-1.042,3.198-0.373c0.429,0.388,0.619,0.967,0.587,1.482
					c0.018-0.293,0.634-0.586,0.929-0.648c0.371-0.079,0.771-0.022,1.104,0.13c0.717,0.328,0.953,1.032,0.665,1.638
					c-0.322,0.682-1.188,0.583-1.888,0.392c0.586,0.362,1.438,0.678,1.357,1.385c-0.079,0.686-0.909,1.321-1.773,1.239
					c-0.884-0.083-1.347-0.873-1.17-1.525c-0.271,1.006-1.79,1.192-2.66,0.583c-0.612-0.428-0.855-1.187-0.563-1.797
					C211.746,64.156,211.862,64.004,212.012,63.881z"/>
				<path fill="#DAD49C" d="M214.407,64.104c0.016-0.317,0.538-0.352,0.828-0.258c0.354,0.116,0.373,0.596,0.104,0.785
					C215.015,64.862,214.395,64.401,214.407,64.104z"/>
			</g>
			<g>
				<path fill="#B7E1D3" d="M213.004,67.983c-0.116-0.152-0.265-0.276-0.446-0.349c-0.181-0.075-0.853-0.424-1.013-0.327
					c0.753-0.451,1.775-0.605,1.872-1.686c0.128-1.422-2.157-1.501-2.941-0.825c-0.455,0.393-0.715,1.034-0.759,1.628
					c0.025-0.34-0.511-0.751-0.778-0.86c-0.334-0.136-0.717-0.121-1.049,0.013c-0.72,0.287-1.038,1.065-0.856,1.796
					c0.206,0.822,1.028,0.817,1.712,0.685c-0.601,0.341-1.442,0.599-1.466,1.419c-0.025,0.796,0.665,1.627,1.483,1.641
					c0.839,0.017,1.384-0.832,1.311-1.603c0.111,1.188,1.508,1.591,2.407,0.998c0.634-0.416,0.968-1.255,0.781-1.993
					C213.213,68.331,213.127,68.142,213.004,67.983z"/>
				<path fill="#DAD49C" d="M210.73,67.94c0.03-0.365-0.454-0.469-0.738-0.397c-0.347,0.088-0.433,0.636-0.211,0.885
					C210.054,68.736,210.701,68.285,210.73,67.94z"/>
			</g>
		</g>
	</g>
	<path fill="#6F3023" d="M203.875,141.085c0.757,0.736,1.5,1.514,1.986,2.452c0.72,1.389,0.82,3.013,0.785,4.578
		c-0.021,0.936-0.103,1.925-0.638,2.692c-0.901,1.291-2.703,1.494-4.276,1.52c-0.334,0.005-0.677,0.007-0.99-0.105
		c-0.343-0.122-0.624-0.371-0.861-0.646c-0.948-1.102-1.232-2.605-1.594-4.012c-0.362-1.408-0.923-2.9-2.164-3.657
		c-0.922-0.561-2.081-0.622-3.007-1.176c-1.681-1.005-2.043-3.538-0.951-5.164c1.074-1.599,3.686-2.629,5.433-1.633
		C199.866,137.228,202.01,139.271,203.875,141.085z"/>
	<path fill="#FFF2E3" d="M203.066,144.968c0.739,1.738,1.133,3.622,1.153,5.51c0.003,0.242-0.003,0.489-0.094,0.712
		c-0.174,0.438-0.627,0.687-1.047,0.9c-0.569,0.291-1.263,0.582-1.819,0.262c-0.341-0.196-0.527-0.575-0.684-0.937
		c-0.908-2.118-1.403-4.412-1.451-6.715c-0.021-0.986,0.665-1.992,1.778-1.917C201.986,142.858,202.698,144.098,203.066,144.968z"/>
	<path fill="#632B1F" d="M186.27,143.908l10.192-10.446c0,0-12.608-14.848-17.435-20.257c-4.548-5.096-11.386-13.156-16.373-17.823
		c-1.458-1.365-9.76,11.076-5.499,15.461L186.27,143.908z"/>
	<path fill="#FFBF96" d="M166.065,100.629c-4.211,4.032-5.21,32.786-6.768,35.234c-1.557,2.448-37.603,9.568-40.272,10.235v7.342
		c0,0,29.745-4.037,35.529-5.817c5.786-1.78,10.071-3.331,12.964-9.783s8.022-34.908,8.022-34.908s-3.26-4.372-6.62-3.606
		C168.554,99.41,166.969,99.765,166.065,100.629z"/>
	<path fill="#FFBF96" d="M199.758,205.061c0,0-5.539,72.113-8.632,87.456c0,0,4.727,8.696,8.757,11.085
		c4.029,2.39,8.354,2.161,8.445,3.891c0.092,1.73-12.929,1.552-14.728,0.345c-1.799-1.206-3.804-6.304-6.034-7.487
		c-2.23-1.183-3.688-4.143-2.164-8.126c1.524-3.984,0.493-86.864,0.493-86.864L199.758,205.061z"/>
	<path fill="#FFF2E3" d="M201.988,304.444l-2.571,1.817c0,0-3.031-0.304-5.604-2.894c-2.571-2.589-8.521-10.914-8.521-10.914
		s-1.017,1.619-1.001,3.012c0.017,1.39,0.875,6.679,1.012,8.18c0.139,1.5,0.139,1.5,0.139,1.5l1.003-0.07l-0.372-5.53
		c0,0,1.882,1.583,2.483,2.015c0.603,0.432,1.857,2.222,2.634,3.745c0.776,1.524,1.016,2.729,2.956,3.266
		c1.941,0.535,6.818,0.683,9.133,0.561c2.833-0.149,5.4-0.449,5.608-1.397C209.262,306.031,201.988,304.444,201.988,304.444z"/>
	<path fill="#FFBF96" d="M168.673,205.021c0,0,5.755,72.124,8.815,87.473c0,0-4.743,8.687-8.777,11.067
		c-4.035,2.382-8.36,2.144-8.455,3.874c-0.095,1.729,12.927,1.577,14.727,0.375c1.802-1.203,3.816-6.297,6.051-7.476
		c2.233-1.179,3.696-4.135,2.181-8.122s-0.678-86.864-0.678-86.864L168.673,205.021z"/>
	<path fill="#FFF2E3" d="M166.603,304.4l2.567,1.822c0,0,3.032-0.297,5.609-2.88c2.577-2.585,8.543-10.898,8.543-10.898
		s1.013,1.622,0.995,3.013c-0.02,1.39-0.89,6.678-1.03,8.178s-0.141,1.5-0.141,1.5l-1.004-0.071l0.385-5.529
		c0,0-1.885,1.578-2.488,2.009s-1.861,2.217-2.641,3.74s-1.02,2.728-2.963,3.259s-6.82,0.669-9.134,0.542
		c-2.833-0.156-5.399-0.461-5.605-1.409C159.325,305.973,166.603,304.4,166.603,304.4z"/>
	<path fill="#FFBF96" d="M194.579,96.177c0,0-2.484,5.519-7.695,5.316c-3.901-0.152-5.147-5.116-5.147-5.116l-12.815,2.95
		c0,0-3.826,17.046,0.205,23.804c4.031,6.756,5.242,17.643,5.242,17.643s-5.612,12.347-6.619,20.396
		c-1.006,8.049,0.924,45.125,0.924,45.125l31.085,0.04c0,0,1.24-32.533,1.24-43.265s-5.559-22.432-5.559-22.432
		s5.592-23.551,6.484-27.961c0.894-4.409,5.359-13.005,5.359-13.005L194.579,96.177z"/>
	<g>
		<g>
			<path fill="#925339" d="M112.525,301.06c0,0,0.06-1.119,0.438-1.194c0.379-0.075,10.494-1.978,10.731,0.655
				c0.236,2.635,0.464,7.233,0.464,7.233s-7.737,2.965-11.089,0.823s-21.067,7.23-26.51-1.48
				C86.56,307.097,112.025,301.688,112.525,301.06z"/>
			<path fill="#864023" d="M99.438,304.307c0,0,0.574,1.528,1.607,1.488c1.031-0.039,12.387-2.349,12.45-3.561
				c0.063-1.215-1.161-2.87-2.491-2.472C109.671,300.162,103.201,303.941,99.438,304.307z"/>
			<path fill="#9E664F" d="M124.169,307.643l0.014,1.422c-5.958,2.966-10.537,1.041-11.787-0.148
				c-1.248-1.188-9.511,2.872-17.746,2.817c-8.236-0.056-8.09-4.637-8.09-4.637c5.442,8.711,23.158-0.661,26.51,1.48
				S124.169,307.643,124.169,307.643z"/>
			<path fill="#864023" d="M86.647,307.196c5.442,8.709,23.158-0.663,26.511,1.479c3.351,2.141,11.09-0.824,11.09-0.824
				s-0.123-2.509-0.286-4.88C123.962,302.972,122.708,309.269,86.647,307.196z"/>
		</g>
		<g>
			<path fill="#925339" d="M153.114,300.526c0,0-0.027-1.119-0.403-1.204s-10.438-2.262-10.745,0.364
				c-0.309,2.627-0.66,7.218-0.66,7.218s7.654,3.173,11.063,1.124c3.409-2.05,20.865,7.797,26.539-0.764
				C178.907,307.265,153.6,301.17,153.114,300.526z"/>
			<path fill="#864023" d="M166.111,304.127c0,0-0.615,1.512-1.646,1.444c-1.03-0.066-12.319-2.682-12.35-3.896
				c-0.031-1.216,1.236-2.838,2.558-2.403C155.993,299.705,162.358,303.661,166.111,304.127z"/>
			<path fill="#9E664F" d="M141.298,306.794l-0.052,1.421c5.876,3.125,10.506,1.324,11.787,0.171
				c1.279-1.155,9.431,3.128,17.664,3.293c8.233,0.167,8.21-4.414,8.21-4.414c-5.674,8.561-23.13-1.286-26.539,0.764
				C148.96,310.077,141.298,306.794,141.298,306.794z"/>
			<path fill="#864023" d="M178.817,307.359c-5.675,8.56-23.131-1.286-26.54,0.765c-3.408,2.05-11.063-1.124-11.063-1.124
				s0.191-2.505,0.416-4.871C141.631,302.129,142.716,308.459,178.817,307.359z"/>
		</g>
		<g>
			<path fill="#9E664F" d="M152.368,292.423c0,0-1.363,6.785-1.212,7.429s-1.798,1.945-3.761,2.026
				c-1.965,0.082-4.342-0.269-4.374-1.674c-0.031-1.406,0.021-8.168,0.021-8.168S148.97,290.098,152.368,292.423z"/>
			<g>
				<path fill="#9E664F" d="M113.868,293.355c0,0,0.396,6.912,0.156,7.526c-0.241,0.617,1.506,2.178,3.438,2.536
					c1.933,0.356,4.336,0.344,4.564-1.043c0.229-1.386,1.13-8.089,1.13-8.089S117.561,291.533,113.868,293.355z"/>
				<g>
					<path fill="#7D4539" d="M144.755,188.642c2.23-8.647,15.227-6.056,16.223-3.328c0.934,2.558,0.473,41.282-1.571,53.354
						c0.773,7.319-4.731,29.503-4.614,34.672c0.127,5.622,0.068,13.625-0.718,18.5c-0.65,4.038-11.947,3.811-13.414,0
						c-1.413-3.666,3.587-48.898,3.967-51.944C144.134,234.751,144.755,188.642,144.755,188.642z"/>
					<path fill="#7D4539" d="M114.153,274.123c0.775-4.692-1.135-24.305-0.052-32.979c-2.321-9.632-2.882-52.307-1.899-54.998
						c0.994-2.727,13.992-5.318,16.222,3.328c0,0,0.568,42.093,0.188,50.328c0.193,0.73,0.304,1.544,0.313,2.448
						c0,0-2.507,47.113-3.112,51.151c-0.391,2.604-13.676,2.476-13.806-0.911C111.818,287.557,113.237,279.668,114.153,274.123z"/>
				</g>
			</g>
			<path fill="#7D4539" d="M160.556,175.192c0,0,0.479,9.653-0.249,11.896c-0.729,2.245-19.976,2.256-22.907,2.505
				c-2.932,0.251-21.558,2.125-23.425,0.534c-1.867-1.59-2.696-18.27-2.696-18.27L160.556,175.192z"/>
		</g>
		<path fill="#E6DACC" d="M138.472,89.475c0,0,15.264-0.758,19.95,7.842c4.688,8.602,0.255,38.854,0.332,43.583
			c0.077,4.729,3.21,26.886,4.065,28.263c0.858,1.376-0.142,3.477-1.842,4.193c-1.699,0.715-15.535,0.278-22.781,0.479
			c-7.248,0.202-25.653-3.753-25.653-3.753s5.121-21.15,4.877-29.183c-0.24-8.033-10.708-36.596-6.692-41.528
			C114.74,94.44,125.719,89.951,138.472,89.475z"/>
		<g>
			<path fill="#F5B27A" d="M143.191,77.336c0,0,1.891,13.549,1.365,14.705c-0.524,1.155-2.94,3.466-5.462,3.151
				c-2.52-0.315-10.609-4.202-11.135-6.828c-0.524-2.626-0.313-25.524,0-25.418C128.276,63.05,143.191,77.336,143.191,77.336z"/>
		</g>
		<g>
			<path fill="#27BDBE" d="M141.353,103.454c0,0,1.447,0.542,1.91,1.701c0.461,1.159,1.785,52.548,1.785,52.548
				s-6.18,7.733-6.951,8.042c-0.774,0.308-7.227-8.238-7.362-8.857c-0.134-0.618,4.091-50.156,5.984-51.583
				C138.61,103.879,141.353,103.454,141.353,103.454z"/>
			<path opacity="0.4" fill="#A69A92" d="M137.437,105.17c0,0,0.091-0.271,0.171-0.297c2.277-0.744,5.035-0.25,5.035-0.25
				s0.125,0.102,0.295,0.282C142.938,104.905,139.751,108.841,137.437,105.17z"/>
			<path fill="#27BDBE" d="M143.688,96.052c0,0,0.203,8.298-1.046,8.571c-1.248,0.271-4.79,0.973-5.371-0.155
				c-0.582-1.127-1.645-7.7-1.645-7.7S141.221,95.018,143.688,96.052z"/>
		</g>
		<path fill="#93645A" d="M140.374,116.32l13.383-22.289l6.916,3.615c0,0-1.996,38.525-1.919,43.254
			c0.077,4.729,3.21,30.858,4.065,32.235c0.858,1.376-0.142,3.476-1.842,4.192c-0.933,0.393-16.809,2.996-16.809,2.996l-5.344-5.187
			l-4.873,5.658l-21.409-6.739c0,0,5.121-25.123,4.877-33.155c-0.178-5.941-6.101-43.568-6.101-43.568s2.986-1.729,6.443-3.772
			L140.374,116.32z"/>
		<g>
			<circle fill="#7D4539" cx="136.647" cy="135.203" r="1.373"/>
			<circle fill="#7D4539" cx="136.647" cy="122.619" r="1.373"/>
			<circle fill="#7D4539" cx="136.647" cy="148.397" r="1.373"/>
			<circle fill="#7D4539" cx="136.647" cy="162.432" r="1.373"/>
		</g>
		<g>
			<path fill="#FFF2E3" d="M144.562,87.54c0,0,7.116,7.523,7.126,8.936c0.014,1.414-6.028,10.381-6.509,9.127
				c-0.481-1.252-4.482-10.333-4.482-10.333S144.091,87.544,144.562,87.54z"/>
			<path fill="#FFF2E3" d="M140.699,95.273c0,0-3.433,11.488-4.215,11.556c-0.783,0.067-15.108-6.564-15.311-8.912
				c-0.2-2.348,5.427-13.355,6.526-11.443C128.996,88.728,140.699,95.273,140.699,95.273z"/>
		</g>
		<g id="head_3_">
			<path fill="#F5B27A" d="M164.428,59.605c-0.257,3.558-3.507,8.082-6.264,7.065c-2.066-0.761-0.892-7.895-0.229-9.231
				c0.661-1.333,2.944-1.971,4.267-1.565C163.932,56.404,164.548,57.937,164.428,59.605z"/>
			<path fill="#BE6B41" d="M160.411,51.384c0,0,1.618,10.989-0.71,11.907c-2.328,0.918-2.564-9.886-2.564-9.886L160.411,51.384z"/>
			<path fill="#BE6B41" d="M157.695,38.156c2.244,5.058,2.962,11.016,2.926,16.291c-0.001,0.24-0.01,0.492-0.129,0.701
				c-0.111,0.198-0.307,0.332-0.499,0.451c-1.876,1.157-3.707,1.139-5.716,1.676c-2.801,0.748-5.372,2-8.265,2.553
				c-2.511,0.479-5.036,0.882-7.574,1.193c-2.825,0.346-5.856,0.142-8.634,0.631c-1.747,0.308-1.328,0.855-1.354,2.678
				c-0.021,1.52-0.046,3.04-0.069,4.559c-0.011,0.697-0.109,8.356-0.127,8.356c-0.614-0.193-2.338-0.066-2.662-0.667
				c-0.064-0.121-0.041-0.378-0.06-0.514c-0.053-0.385-0.125-0.767-0.213-1.145c-0.175-0.752-0.416-1.488-0.703-2.204
				c-0.585-1.463-1.36-2.841-2.179-4.183c-1.665-2.731-3.572-5.356-4.742-8.356c-2.159-5.538-2.424-12.173-1.26-17.961
				c0.822-4.088,2.684-8.067,6.219-10.475c1.897-1.292,3.947-1.823,6.146-2.339c2.787-0.655,4.828-2.547,7.742-2.994
				c4.142-0.635,8.553,0.246,12.302,2.085C153.066,30.562,155.881,34.063,157.695,38.156z"/>
			<path fill="#FFC593" d="M154.354,38.663c0,0,4.76,6.385,4.922,16.723c0.056,3.575,0.596,7.353,0.641,11.016
				c0.053,4.213-0.86,8.838-2.462,12.729c-1.148,2.789-3.339,4.366-6.234,5.053c-1.732,0.412-3.493,0.722-5.263,0.913
				c-2.387,0.257-5.88,0.721-8.024-0.692c-3.787-2.497-11.249-9.529-14.357-22.758c-3.106-13.229-1.339-19.541,0.608-22.201
				C126.905,35.73,139.038,22.43,154.354,38.663z"/>
			<path fill="#FFF2E3" d="M141.466,75.319c0.045,0.134,0.135,0.271,0.227,0.377c0.692,0.81,1.392,1.492,2.437,1.815
				c1.72,0.531,4.036,0.445,5.771,0.021c0.962-0.234,2.028-0.419,2.76-1.146c0.708-0.705,1.236-1.733,1.441-2.709
				c0.042-0.197,0.257-0.829,0.047-0.957c-0.211-0.127-1.117,0.432-1.328,0.529c-1.873,0.864-3.744,1.825-5.854,1.861
				c-1.375,0.024-2.745-0.088-4.118-0.146c-0.218-0.009-1.164-0.172-1.316-0.033C141.421,75.033,141.417,75.175,141.466,75.319z"/>
			<path fill="#BE6B41" d="M163.283,39.891c-3.155,8.469-16.351,8.466-23.596,7.244c-2.895-0.488-5.771-1.157-8.588-1.981
				c0.07,0.021-0.983,3.283-1.05,3.476c-0.465,1.349-0.896,2.726-1.6,3.974c-0.755,1.341-1.952,2.18-2.895,3.36
				c-0.927,1.16-0.857,1.19-0.497,2.686c0.194,0.806,2.013,9.875,0.41,9.055c-4.556-2.336-7.501-15.182-7.292-16.915
				c0.212-1.733,0.186-16.343,12.722-19.821c1.086-0.302,2.162-0.375,3.249-0.646c1.173-0.292,2.28-0.792,3.417-1.19
				c3.164-1.108,6.826-1.516,10.101-0.647c1.532,0.406,2.188,1.44,3.459,2.333c1.343,0.942,2.887,1.601,4.5,1.899
				c1.346,0.249,3.33-0.076,3.321-1.87c-0.006-1.188-1.469-2.351-2.459-1.294c-0.123,0.132-0.216,0.296-0.364,0.401
				c-0.477,0.337-1.157-0.194-1.235-0.772c-0.103-0.765,0.449-1.5,1.138-1.847c0.689-0.346,1.487-0.385,2.26-0.388
				c0.871-0.003,1.759,0.034,2.58,0.327c2.328,0.833,3.31,3.056,3.438,5.359C164.428,34.851,164.16,37.537,163.283,39.891z"/>
			<path fill="#FFC593" d="M116.765,64.959c0.917,2.336,2.853,4.839,4.96,5.774c2.7,1.198,4.738-1.485,4.345-4.041
				c-0.514-3.331-3.15-6.674-6.526-7.309c-2.745-0.517-3.696,1.783-3.218,4.124C116.42,63.973,116.569,64.462,116.765,64.959z"/>
			<path fill="#6F3023" d="M139.918,61.912c-0.234-1.527-1.664-2.572-3.19-2.336c-1.525,0.236-2.572,1.665-2.336,3.19
				c0.236,1.527,1.452,1.623,2.976,1.387C138.896,63.917,140.155,63.439,139.918,61.912z"/>
			<path fill="#6F3023" d="M155.993,58.9c-0.198-1.29-1.406-2.174-2.696-1.975c-1.29,0.2-2.174,1.407-1.975,2.697
				c0.198,1.29,1.087,1.821,2.376,1.622C154.986,61.045,156.192,60.19,155.993,58.9z"/>
			<path fill="#C47A54" d="M157.389,52.854c0.494,1.122-2.566,0.222-4.727,0.71c-1.92,0.435-3.249,2.323-4.057,0.952
				c-0.34-0.579,0.287-2.638,3.925-3.211C156.112,50.742,156.792,51.501,157.389,52.854z"/>
			<path fill="#C47A54" d="M140.52,55.894c0.369,1.168-2.574-0.058-4.775,0.192c-1.955,0.222-3.483,1.955-4.137,0.504
				c-0.274-0.611,0.573-2.591,4.254-2.766C139.48,53.654,140.074,54.483,140.52,55.894z"/>
			<path fill="#F5B27A" d="M147.391,56.531c0,0-0.159,1.725,0.221,2.463c0.38,0.739,3.352,8.623,3.404,9.997
				c0.053,1.374-1.24,2.635-1.812,2.724c-0.571,0.088-2.671-0.438-2.671-0.438s2.803-1.124,2.816-1.711
				c0.018-0.586-1.111-5.142-1.641-6.496C147.182,61.719,145.463,57.467,147.391,56.531z"/>
			<path fill="#D1977A" d="M126.371,36.653c-0.737,1.112-0.866,2.325-0.285,2.71c0.578,0.386,1.065-0.464,1.804-1.576
				c0.738-1.111,1.45-2.062,0.869-2.447C128.179,34.955,127.111,35.542,126.371,36.653z"/>
			<path fill="#D1977A" d="M123.876,43.824c-0.736,1.111-0.864,2.324-0.286,2.709c0.58,0.386,1.066-0.465,1.804-1.576
				c0.738-1.111,1.449-2.063,0.87-2.448C125.685,42.125,124.615,42.712,123.876,43.824z"/>
			<path fill="#D1977A" d="M119.828,44.034c-0.739,1.111-0.867,2.325-0.287,2.709c0.58,0.386,1.066-0.465,1.803-1.576
				c0.739-1.111,1.45-2.063,0.871-2.447C121.634,42.333,120.566,42.922,119.828,44.034z"/>
		</g>
	</g>
	<g>
		<g>
			<g>
				<path fill="#6F3023" d="M146.094,89.271c0,0-4.641,56.937-5.068,64.804c-1.085,19.971,6.443,33.044,23.279,33.608
					c1.993,0.067-1.722-16.118-2.537-39.894c-0.647-18.896,3.938-50.642,0.601-52.669C153.722,89.864,146.094,89.271,146.094,89.271
					z"/>
			</g>
		</g>
		<path fill="#7D4539" d="M146.094,89.271c0,0,7.02,0.674,14.586,4.857c0,0-10,15.004-12.892,18.203l8.365,3.506l-14.813,33.521
			C141.34,149.359,144.893,91.431,146.094,89.271z"/>
	</g>
	<g>
		<path fill="#632B1F" d="M111.368,95.321c-2.624,2.292-9.476,7.937-11.07,12.14c-1.594,4.203-6.504,27.571-7.05,34.936
			c-0.861,11.625,0.539,39.836,0.539,39.836s12.055,3.444,14.639,2.583s-2.063-26.573,0.146-40.349
			c1.344-8.381,8.351-19.139,9.327-23.373C120.481,109.899,115.961,91.31,111.368,95.321z"/>
		<path fill="#6F3023" d="M124.74,89.233c0,0,11.41,55.404,11.884,63.27c1.483,24.635-4.722,27.858-7.139,30.028
			c-2.415,2.171-14.703,6.925-19.141,6.514c-2.092-0.193,2.635-19.378,1.908-39.533c-0.813-22.608-7.515-47.466-4.216-51.27
			C113.183,92.31,124.74,89.233,124.74,89.233z"/>
		<path fill="#7D4539" d="M124.74,89.233c0,0,5.809,25.915,7.169,32.462c1.36,6.547,4.4,27.192,4.4,27.192l-17.724-31.083
			l7.567-5.527l-14.785-16.957C111.368,95.321,115.843,91.186,124.74,89.233z"/>
		<path fill="#7D4539" d="M139.504,175.798l-0.679-0.662l-0.536,0.635c1.15-21.478,1.442-59.702,1.445-60.094l0.64,0.644
			l0.613-1.016C140.983,115.697,140.655,154.292,139.504,175.798z"/>
	</g>
	<g>
		<path fill="#F5B27A" d="M95.857,182.787c0.274,1.191,1.399,2.659,1.022,3.585c-0.002,0.003-4.307,10.545-4.307,10.545
			s1.064,5.179,5.47,8.748c2.762-0.075,5.382-0.771,5.487-2.031c-0.543,1.245,0.557,2.877,1.916,2.839
			c0.896-0.023,1.517-4.285,1.554-4.937c0.071-1.277,1.185-6.264,3.319-6.114c0.523,0.036,1.044,0.132,1.547,0.284
			c0.543,0.165,1.108,0.396,1.658,0.257c0.513-0.129,0.903-0.572,1.092-1.065s0.203-1.035,0.182-1.563
			c-2.145-1.094-4.355-2.092-6.584-2.998c-0.425-0.173-0.853-0.35-1.228-0.612c-1.004-0.697-1.089-2.867-1.24-3.927
			c-0.045-0.318-0.161-1.278-0.116-0.96c0.005,0.034-2.428-0.35-4.882-0.869C98.094,183.406,95.857,182.787,95.857,182.787z"/>
		<path fill="#FFF2E3" d="M94.914,182.416c0,0,0,1.126-0.06,1.304c-0.188,0.569,1.363,0.685,1.67,0.75
			c3.455,0.736,6.652,2.227,9.974,2.692c0.908,0.127,0.946-2.818,0.689-3.383C106.892,183.127,95.033,180.755,94.914,182.416z"/>
		<path fill="#632B1F" d="M108.567,144.487l-15.312-2.178c-0.002,0.028-0.006,0.059-0.008,0.087
			c-0.861,11.625,0.539,39.836,0.539,39.836s12.055,3.444,14.639,2.583C111.008,183.956,106.367,158.268,108.567,144.487z"/>
	</g>
	<g>
		<g>
			<path fill="#805D4A" d="M119.987,110.681c-0.218,0.521-0.253,1.129-0.227,1.687c0.011,0.209,0.041,0.469,0.119,0.704
				c-0.088-0.096-0.175-0.192-0.26-0.291c-0.282-0.326-0.5-0.695-0.804-1.004c-0.256-0.26-0.553-0.547-0.638-0.916
				c-0.008-0.035-0.05,0.03-0.049,0.046c0.017,0.289,0.176,0.501,0.354,0.718c0.285,0.346,0.588,0.65,0.852,1.017
				c0.377,0.524,0.847,1.002,1.349,1.435c-0.319-0.14-0.668-0.226-0.987-0.36c-0.477-0.199-0.907-0.475-1.345-0.742
				c-0.018-0.01-0.045,0.044-0.03,0.057c0.708,0.655,1.667,1.06,2.606,1.25c0.2,0.164,0.403,0.32,0.606,0.469
				c0.06,0.044,0.12,0.086,0.181,0.129c-0.668-0.184-1.367-0.084-2.008,0.341c-0.012,0.007-0.034,0.061-0.01,0.051
				c0.446-0.183,0.867-0.351,1.355-0.373c0.488-0.021,0.892,0.23,1.314,0.425c0.375,0.244,0.758,0.478,1.143,0.706
				c-0.18-0.06-0.362-0.11-0.546-0.148c-0.522-0.107-1.072,0.235-1.537,0.415c-0.008,0.003-0.019,0.035-0.009,0.033
				c0.456-0.117,0.885-0.326,1.365-0.328c0.702-0.002,1.342,0.492,1.976,0.757c0.103,0.059,0.207,0.117,0.311,0.176
				c-0.161-0.032-0.329-0.043-0.489-0.059c-0.323-0.032-0.652-0.057-0.976-0.019c-0.021,0.002-0.065,0.074-0.036,0.083
				c0.271,0.078,0.554,0.083,0.835,0.099c0.324,0.019,0.655,0.094,0.979,0.072c0.069-0.028,0.535,0.34,0.666,0.368
				c-0.048-0.457-0.966-0.713-1.304-0.906c-0.09-0.052-0.179-0.104-0.268-0.157c0.001-0.01,0-0.02-0.006-0.024
				c-0.22-0.231-0.345-0.461-0.42-0.774c-0.07-0.292-0.053-0.613-0.161-0.893c-0.018-0.043-0.073,0.056-0.074,0.072
				c-0.035,0.354,0.015,0.999,0.263,1.388c-0.294-0.174-0.587-0.35-0.877-0.53c-0.272-0.237-0.433-0.542-0.547-0.887
				c-0.109-0.331-0.105-0.703-0.234-1.023c-0.018-0.044-0.072,0.06-0.073,0.077c-0.037,0.439,0.089,1.106,0.394,1.546
				c-0.239-0.152-0.477-0.306-0.712-0.462c-0.149-0.101-0.297-0.205-0.442-0.311c-0.185-0.418-0.317-0.779-0.346-1.247
				c-0.025-0.418,0.035-0.836,0.009-1.254c-0.002-0.038-0.052,0.026-0.055,0.04c-0.114,0.625-0.229,1.598,0.099,2.239
				c-0.409-0.321-0.799-0.668-1.164-1.04c-0.458-0.819-0.146-1.784-0.102-2.672C120.031,110.624,119.993,110.669,119.987,110.681z"
				/>
			<path fill="#99D4C0" d="M117.249,113.059c0.226-0.455,0.802-0.536,1.251-0.382c0.234,0.08,0.897,0.613,0.856,0.905
				c-0.046,0.337-0.728,0.476-1.006,0.526C117.608,114.243,116.816,113.932,117.249,113.059z"/>
			<path fill="#99D4C0" d="M118.575,115.851c0.168,0.214,0.479,0.318,0.803,0.147c0.216-0.113,0.997-0.643,0.819-0.952
				c-0.046-0.078-0.624-0.212-0.741-0.239c-0.318-0.074-0.58-0.015-0.813,0.224C118.381,115.302,118.404,115.634,118.575,115.851z"
				/>
			<path fill="#99D4C0" d="M120.608,116.101c0.28-0.155,0.886-0.4,1.193-0.217c0.549,0.325,0.056,0.802-0.266,1.005
				c-0.37,0.233-0.944,0.718-1.331,0.277C119.853,116.765,120.235,116.307,120.608,116.101z"/>
			<path fill="#99D4C0" d="M117.819,109.995c0.899,0.01,1.455,0.936,1.222,1.65c-0.214,0.656-1.083,0.437-1.493-0.145
				c-0.339-0.482-0.644-1.497,0.245-1.506C117.802,109.995,117.811,109.995,117.819,109.995z"/>
			<path fill="#99D4C0" d="M119.536,110.165c0.226-0.429,0.861-0.748,1.135-0.189c0.225,0.46-0.228,1.604-0.678,1.829
				C119.308,112.148,119.355,110.509,119.536,110.165z"/>
			<path fill="#99D4C0" d="M121.734,111.681c0.322,0.79-0.429,2.18-1.07,1.005C120.235,111.903,121.293,110.606,121.734,111.681z"/>
			<path fill="#805D4A" d="M119.041,111.645c0.121-0.372,0.028-0.8-0.214-1.128c-0.045-0.013-0.086-0.004-0.108,0.061
				c-0.035,0.1-0.009,0.229,0.019,0.327c0.026,0.098,0.086,0.222,0.074,0.326c-0.023,0.192-0.283-0.028-0.341-0.087
				c-0.067-0.069-0.267-0.296-0.383-0.224c-0.12,0.074,0.043,0.306,0.095,0.375c0.045,0.059,0.234,0.194,0.203,0.283
				c-0.054,0.15-0.328-0.021-0.4-0.055c-0.081-0.039-0.328-0.149-0.396-0.051c-0.011,0.015-0.018,0.034-0.021,0.054
				C117.986,112.089,118.83,112.291,119.041,111.645z"/>
			<path fill="#99D4C0" d="M122.569,116.679c0.156-0.694,0.958-0.432,1.325-0.092c0.354,0.328,0.064,0.681-0.329,0.809
				C123.088,117.55,122.439,117.255,122.569,116.679z"/>
			<path fill="#99D4C0" d="M123.876,115.082c-0.443-0.024-0.654-0.705-0.592-1.061c0.094-0.527,0.722-0.534,0.954-0.083
				c0.157,0.308,0.166,1.137-0.33,1.144C123.896,115.082,123.886,115.082,123.876,115.082z"/>
			<path fill="#99D4C0" d="M122.566,114.488c-0.123,0.011-0.253-0.019-0.363-0.086c-0.208-0.129-0.315-0.367-0.333-0.605
				c-0.024-0.351,0.184-0.78,0.59-0.743c0.468,0.043,0.639,0.732,0.523,1.11C122.922,114.365,122.752,114.471,122.566,114.488z"/>
			<path fill="#805D4A" d="M118.568,112.706c-0.18,0.054,0.104,0.38,0.154,0.442c0.035,0.042,0.07,0.083,0.106,0.124
				c0.03,0.035,0.07,0.059,0.013,0.073c-0.064,0.015-0.176-0.027-0.235-0.044c-0.086-0.026-0.171-0.06-0.261-0.068
				c-0.115-0.012-0.095,0.063-0.033,0.134c0.083,0.094,0.188,0.084,0.287,0.142c0.057,0.033,0.097,0.075,0.059,0.139
				c-0.092,0.152-0.348,0.116-0.482,0.197c-0.022,0.013-0.104,0.061-0.119,0.084c-0.001,0.001-0.001,0.001-0.001,0.001
				c-0.015,0.039,0.022,0.061,0.049,0.083c0.049,0.044,0.104,0.08,0.161,0.107c0.028-0.003,0.058-0.008,0.085-0.013
				c0.278-0.05,0.96-0.189,1.006-0.526C119.395,113.314,118.842,112.845,118.568,112.706z"/>
			<path fill="#805D4A" d="M119.64,114.935c0.031,0.013,0.172,0.058,0.173,0.108c0.002,0.067-0.282,0.007-0.32,0.008
				c-0.139,0.006-0.027,0.145,0.052,0.166c0.078,0.021,0.282-0.055,0.315,0.033c0.037,0.099-0.105,0.228-0.169,0.279
				c-0.068,0.055-0.198,0.116-0.17,0.224c0.022,0.083,0.082,0.086,0.142,0.065c0.297-0.214,0.663-0.548,0.535-0.771
				c-0.038-0.064-0.448-0.169-0.651-0.217C119.528,114.883,119.592,114.916,119.64,114.935z"/>
			<path fill="#805D4A" d="M120.55,111.067c-0.151,0.018-0.269,0.335-0.403,0.331c0-0.117,0.124-0.644-0.139-0.517
				c-0.099,0.047-0.103,0.249-0.104,0.333c-0.002,0.123,0.003,0.378-0.15,0.272c-0.094-0.065-0.111-0.245-0.181-0.334
				c-0.06-0.078-0.109-0.091-0.147-0.069c0.027,0.479,0.182,0.916,0.567,0.722C120.2,111.701,120.408,111.403,120.55,111.067z"/>
			<path fill="#805D4A" d="M121.723,112.612c-0.244-0.06-0.388,0.216-0.489,0.376c-0.051-0.163,0.051-0.434-0.088-0.561
				c-0.198-0.18-0.079,0.392-0.122,0.47c-0.086-0.079-0.302-0.534-0.458-0.576c0.007,0.126,0.036,0.251,0.099,0.365
				C121.077,113.442,121.534,113.136,121.723,112.612z"/>
			<path fill="#805D4A" d="M122.798,114.031c-0.08,0.07-0.091,0.22-0.128,0.313c-0.052-0.104-0.041-0.376-0.184-0.414
				c-0.232-0.063-0.017,0.361,0.001,0.444c-0.099-0.052-0.409-0.417-0.607-0.5c0.033,0.211,0.138,0.414,0.323,0.528
				c0.11,0.067,0.24,0.097,0.363,0.086c0.186-0.017,0.355-0.123,0.417-0.324c0.01-0.032,0.017-0.067,0.022-0.103
				C122.973,113.97,122.891,113.951,122.798,114.031z"/>
			<path fill="#805D4A" d="M124.33,114.51c-0.019,0.007-0.041,0.02-0.069,0.04c-0.114,0.083-0.181,0.281-0.257,0.401
				c-0.066-0.127-0.095-0.419-0.247-0.464c-0.079,0.142,0.119,0.296,0.058,0.436c-0.191-0.099-0.263-0.306-0.471-0.398
				c-0.002,0.008-0.002,0.016-0.003,0.023c0.091,0.272,0.271,0.52,0.535,0.534c0.01,0,0.021,0,0.032,0
				C124.193,115.078,124.311,114.802,124.33,114.51z"/>
			<path fill="#805D4A" d="M123.895,116.587c-0.125-0.117-0.301-0.222-0.484-0.286c-0.005,0.007-0.01,0.015-0.013,0.023
				c-0.042,0.119,0.299,0.298,0.37,0.351c-0.071,0.155-0.285,0.007-0.395,0.046c0.052,0.097,0.335,0.151,0.327,0.265
				c-0.006,0.095-0.339,0.123-0.426,0.167c-0.258,0.128-0.095,0.25,0.114,0.279c0.06-0.007,0.119-0.018,0.177-0.036
				C123.959,117.269,124.248,116.915,123.895,116.587z"/>
			<path fill="#805D4A" d="M121.536,116.89c0.321-0.203,0.814-0.681,0.266-1.005c-0.248-0.147-0.689-0.016-0.998,0.121
				c0.117,0.151,0.462-0.054,0.6,0.07c-0.06,0.061-0.372,0.093-0.366,0.206c0.01,0.168,0.356-0.047,0.404-0.064
				c0.471-0.167,0.054,0.403-0.102,0.526c-0.091,0.07-0.236,0.209-0.096,0.326c0.003,0.003,0.007,0.004,0.01,0.007
				C121.355,117.01,121.451,116.943,121.536,116.89z"/>
		</g>
		<g>
			<path fill="#805D4A" d="M125.011,107.752c0.359,0.18,0.661,0.492,0.905,0.806c0.091,0.118,0.196,0.273,0.262,0.436
				c0.004-0.093,0.006-0.185,0.006-0.277c0.002-0.308-0.053-0.607-0.031-0.916c0.018-0.259,0.045-0.552-0.081-0.791
				c-0.011-0.022,0.041-0.007,0.049,0.003c0.125,0.163,0.138,0.351,0.142,0.552c0.006,0.318-0.016,0.624,0.011,0.945
				c0.04,0.458,0.008,0.934-0.063,1.401c0.107-0.224,0.256-0.433,0.366-0.654c0.165-0.327,0.271-0.677,0.383-1.024
				c0.005-0.014,0.045,0.003,0.043,0.017c-0.079,0.682-0.409,1.345-0.828,1.884c-0.032,0.181-0.07,0.36-0.111,0.536
				c-0.011,0.05-0.024,0.101-0.037,0.152c0.275-0.409,0.699-0.679,1.243-0.747c0.009-0.001,0.047,0.019,0.029,0.024
				c-0.326,0.107-0.632,0.212-0.905,0.428c-0.274,0.215-0.375,0.538-0.514,0.838c-0.09,0.306-0.188,0.61-0.29,0.912
				c0.069-0.116,0.145-0.229,0.227-0.334c0.232-0.3,0.688-0.37,1.022-0.488c0.006-0.002,0.027,0.01,0.021,0.013
				c-0.301,0.149-0.63,0.234-0.89,0.456c-0.381,0.325-0.497,0.889-0.717,1.326c-0.028,0.08-0.058,0.16-0.086,0.239
				c0.071-0.092,0.157-0.176,0.236-0.259c0.16-0.167,0.327-0.333,0.52-0.461c0.013-0.01,0.069,0.009,0.058,0.027
				c-0.111,0.167-0.261,0.301-0.405,0.44c-0.167,0.16-0.311,0.355-0.495,0.493c-0.052,0.018-0.132,0.432-0.19,0.507
				c-0.186-0.268,0.191-0.833,0.284-1.093c0.024-0.07,0.048-0.14,0.072-0.209c-0.005-0.004-0.009-0.01-0.009-0.016
				c0.013-0.226-0.027-0.409-0.132-0.613c-0.098-0.19-0.256-0.356-0.327-0.558c-0.011-0.031,0.065-0.003,0.073,0.004
				c0.184,0.175,0.455,0.547,0.502,0.872c0.079-0.23,0.155-0.461,0.229-0.693c0.036-0.255-0.018-0.494-0.116-0.733
				c-0.095-0.229-0.269-0.428-0.348-0.661c-0.011-0.032,0.067-0.001,0.075,0.006c0.224,0.221,0.465,0.639,0.504,1.019
				c0.06-0.192,0.116-0.386,0.17-0.58c0.035-0.124,0.066-0.248,0.096-0.373c-0.094-0.311-0.189-0.568-0.392-0.834
				c-0.18-0.237-0.407-0.435-0.587-0.673c-0.016-0.021,0.041-0.01,0.049-0.003c0.352,0.284,0.864,0.757,0.985,1.255
				c0.071-0.363,0.122-0.732,0.147-1.102c-0.133-0.655-0.749-1.032-1.186-1.491C124.961,107.741,125.003,107.748,125.011,107.752z"
				/>
			<path fill="#99D4C0" d="M127.594,107.766c-0.334-0.14-0.682,0.083-0.854,0.374c-0.09,0.153-0.2,0.748-0.043,0.887
				c0.182,0.161,0.614-0.081,0.787-0.182C127.949,108.573,128.232,108.038,127.594,107.766z"/>
			<path fill="#99D4C0" d="M128.172,109.891c0.009,0.193-0.11,0.394-0.365,0.452c-0.169,0.039-0.837,0.115-0.884-0.134
				c-0.012-0.063,0.239-0.404,0.29-0.474c0.137-0.187,0.307-0.276,0.543-0.255C128.022,109.503,128.164,109.693,128.172,109.891z"/>
			<path fill="#99D4C0" d="M127.188,110.969c-0.222,0.046-0.663,0.194-0.744,0.437c-0.146,0.43,0.342,0.459,0.61,0.42
				c0.307-0.045,0.843-0.051,0.847-0.468C127.905,110.977,127.486,110.907,127.188,110.969z"/>
			<path fill="#99D4C0" d="M125.864,106.375c-0.481,0.422-0.352,1.18,0.104,1.458c0.421,0.254,0.789-0.266,0.74-0.771
				c-0.039-0.418-0.346-1.108-0.83-0.701C125.874,106.367,125.869,106.372,125.864,106.375z"/>
			<path fill="#99D4C0" d="M125.016,107.264c-0.321-0.127-0.813-0.005-0.701,0.424c0.093,0.353,0.867,0.761,1.215,0.674
				C126.06,108.229,125.272,107.366,125.016,107.264z"/>
			<path fill="#99D4C0" d="M124.531,109.103c0.191,0.576,1.242,0.979,1.045,0.046C125.443,108.528,124.271,108.317,124.531,109.103z
				"/>
			<path fill="#805D4A" d="M125.969,107.834c-0.237-0.145-0.386-0.419-0.406-0.709c0.018-0.028,0.045-0.042,0.086-0.018
				c0.065,0.038,0.111,0.12,0.143,0.186s0.056,0.161,0.111,0.211c0.102,0.093,0.14-0.147,0.143-0.206
				c0.006-0.068,0.008-0.283,0.104-0.298c0.1-0.016,0.119,0.185,0.123,0.248c0.003,0.052-0.037,0.213,0.022,0.247
				c0.099,0.057,0.167-0.164,0.189-0.216c0.026-0.058,0.108-0.232,0.19-0.211c0.014,0.003,0.025,0.01,0.037,0.02
				C126.745,107.584,126.383,108.084,125.969,107.834z"/>
			<path fill="#99D4C0" d="M126.397,112.19c-0.406-0.303-0.718,0.211-0.758,0.565c-0.04,0.341,0.281,0.398,0.553,0.284
				C126.522,112.902,126.735,112.442,126.397,112.19z"/>
			<path fill="#99D4C0" d="M124.95,111.933c0.229-0.219,0.027-0.684-0.172-0.848c-0.294-0.241-0.638,0.047-0.554,0.399
				c0.059,0.239,0.438,0.691,0.71,0.464C124.939,111.943,124.945,111.938,124.95,111.933z"/>
			<path fill="#99D4C0" d="M125.383,111.005c0.072-0.051,0.129-0.127,0.156-0.215c0.054-0.166,0.001-0.344-0.101-0.481
				c-0.149-0.2-0.461-0.336-0.663-0.128c-0.233,0.24-0.005,0.692,0.232,0.843C125.134,111.104,125.275,111.082,125.383,111.005z"/>
			<path fill="#805D4A" d="M126.718,108.188c0.121-0.054,0.12,0.253,0.121,0.311c0.001,0.038,0,0.077,0,0.116
				c-0.001,0.033-0.011,0.064,0.026,0.045c0.042-0.022,0.083-0.096,0.107-0.133c0.033-0.054,0.064-0.111,0.108-0.158
				c0.057-0.06,0.081-0.01,0.08,0.057c-0.001,0.09-0.063,0.133-0.089,0.21c-0.016,0.044-0.018,0.086,0.033,0.103
				c0.119,0.039,0.241-0.099,0.352-0.118c0.018-0.002,0.085-0.016,0.104-0.009l0.002,0.001c0.025,0.013,0.016,0.042,0.012,0.067
				c-0.006,0.047-0.02,0.091-0.037,0.132c-0.018,0.011-0.035,0.023-0.053,0.033c-0.173,0.101-0.605,0.343-0.787,0.182
				C126.553,108.899,126.634,108.389,126.718,108.188z"/>
			<path fill="#805D4A" d="M127.172,109.889c-0.011,0.022-0.065,0.111-0.044,0.138c0.031,0.038,0.156-0.127,0.178-0.144
				c0.078-0.061,0.082,0.067,0.049,0.114c-0.032,0.048-0.178,0.102-0.155,0.164c0.026,0.071,0.162,0.075,0.221,0.072
				c0.063-0.002,0.161-0.028,0.195,0.043c0.026,0.054-0.004,0.084-0.046,0.1c-0.26,0.022-0.612,0.011-0.646-0.168
				c-0.01-0.053,0.164-0.3,0.251-0.419C127.207,109.81,127.188,109.856,127.172,109.889z"/>
			<path fill="#805D4A" d="M124.886,108.221c0.091-0.06,0.302,0.057,0.372-0.008c-0.055-0.063-0.365-0.291-0.165-0.344
				c0.075-0.02,0.171,0.088,0.21,0.132c0.059,0.065,0.175,0.206,0.208,0.077c0.021-0.078-0.054-0.184-0.058-0.264
				c-0.004-0.069,0.018-0.1,0.048-0.105c0.207,0.271,0.326,0.579,0.028,0.653C125.369,108.402,125.119,108.336,124.886,108.221z"/>
			<path fill="#805D4A" d="M124.969,109.6c0.104-0.145,0.31-0.063,0.439-0.024c-0.049-0.111-0.229-0.21-0.213-0.344
				c0.023-0.189,0.224,0.175,0.283,0.197c0.011-0.083-0.084-0.429-0.019-0.523c0.055,0.071,0.097,0.153,0.116,0.243
				C125.703,109.749,125.313,109.796,124.969,109.6z"/>
			<path fill="#805D4A" d="M125.047,110.866c0.075,0,0.15,0.077,0.213,0.11c-0.02-0.081-0.152-0.223-0.092-0.31
				c0.097-0.142,0.176,0.188,0.205,0.241c0.029-0.074,0.028-0.415,0.097-0.552c0.08,0.129,0.117,0.286,0.069,0.435
				c-0.027,0.088-0.084,0.164-0.156,0.215c-0.107,0.077-0.249,0.099-0.375,0.019c-0.021-0.013-0.04-0.028-0.061-0.045
				C124.923,110.914,124.959,110.865,125.047,110.866z"/>
			<path fill="#805D4A" d="M124.44,111.835c0.013-0.004,0.031-0.008,0.056-0.01c0.101-0.01,0.229,0.067,0.325,0.097
				c-0.023-0.1-0.144-0.271-0.083-0.365c0.109,0.04,0.074,0.216,0.172,0.262c0.058-0.142,0-0.287,0.07-0.433
				c0.004,0.003,0.008,0.008,0.012,0.011c0.078,0.189,0.095,0.407-0.042,0.537c-0.005,0.005-0.011,0.01-0.016,0.015
				C124.778,112.078,124.586,111.984,124.44,111.835z"/>
			<path fill="#805D4A" d="M125.64,112.756c0.014-0.121,0.06-0.261,0.128-0.38c0.007,0.002,0.013,0.004,0.019,0.007
				c0.077,0.045-0.023,0.3-0.037,0.361c0.11,0.052,0.157-0.128,0.234-0.157c0.017,0.077-0.11,0.237-0.054,0.294
				c0.047,0.048,0.239-0.091,0.308-0.107c0.198-0.05,0.166,0.091,0.067,0.204c-0.035,0.025-0.073,0.047-0.112,0.063
				C125.921,113.154,125.6,113.097,125.64,112.756z"/>
			<path fill="#805D4A" d="M127.055,111.825c-0.269,0.04-0.756,0.01-0.61-0.42c0.065-0.195,0.365-0.329,0.595-0.397
				c0.007,0.136-0.274,0.184-0.291,0.315c0.06,0.006,0.244-0.123,0.293-0.059c0.073,0.095-0.214,0.14-0.247,0.152
				c-0.333,0.128,0.157,0.243,0.298,0.238c0.082-0.004,0.225,0.003,0.203,0.131c0,0.003-0.002,0.006-0.002,0.009
				C127.207,111.806,127.125,111.815,127.055,111.825z"/>
		</g>
		<g>
			<path fill="#79B9BB" d="M130.777,113.31c-0.094-0.458-0.325-0.837-0.845-0.917c-1.345-0.206-1.371,1.646-1.587,2.232
				c-0.02-0.663-0.348-1.14-0.943-1.594c-0.476-0.362-1.293-0.779-1.865-0.185c-0.688,0.711,0.515,1.363,0.778,1.962
				c-0.643-0.34-1.399-0.995-2.301-0.539c-0.616,0.311-0.791,0.896-0.469,1.352c0.184,0.262,0.883,0.663,1.325,0.616
				c-0.656,0.071-1.775-0.062-2.106,0.568c-0.612,1.165,1.699,1.076,2.568,0.894c-0.313,0.342-0.587,0.693-0.891,1.04
				c-0.252,0.286-0.506,0.656-0.283,0.972c0.676,0.96,2.667-0.541,2.837-1.232c-0.408,0.599-0.98,3.239,0.792,2.841
				c0.915-0.206,0.89-1.433,1.287-1.922c-0.024,0.555,0.964,2.627,2.002,1.661c0.941-0.878,0.004-1.782-0.502-2.531
				c0.91,0.886,3.436,0.545,3.815-0.671c0.41-1.316-1.87-1.186-2.914-0.759c0.812-0.367,1.52-0.792,2.029-1.411
				c0.409-0.498,1.021-1.549,0.194-1.917c-1.053-0.469-2.365,0.751-2.932,1.298C130.779,114.691,130.904,113.927,130.777,113.31z"/>
			<path fill="#DAD49C" d="M127.362,117.575c0.346,1.588,3.692,0.335,2.93-0.907C129.579,115.507,127.092,116.332,127.362,117.575z"
				/>
		</g>
		<g>
			<path fill="#FFFBC3" d="M122.28,114.372c0.093-0.165,0.225-0.316,0.399-0.429c0.177-0.116,0.813-0.608,1.001-0.569
				c-0.879-0.181-1.979-0.027-2.29-0.939c-0.41-1.201,1.972-1.911,2.924-1.542c0.554,0.213,0.951,0.696,1.111,1.201
				c-0.092-0.287,0.39-0.796,0.649-0.965c0.325-0.212,0.729-0.306,1.104-0.284c0.809,0.048,1.294,0.635,1.244,1.322
				c-0.056,0.771-0.921,0.999-1.662,1.075c0.695,0.129,1.627,0.117,1.813,0.824c0.179,0.685-0.382,1.601-1.239,1.843
				c-0.876,0.249-1.611-0.337-1.684-1.026c0.112,1.063-1.272,1.805-2.332,1.543c-0.743-0.183-1.259-0.819-1.203-1.513
				C122.129,114.733,122.183,114.544,122.28,114.372z"/>
			<path fill="#DAD49C" d="M124.656,113.696c-0.104-0.309,0.385-0.536,0.696-0.554c0.382-0.02,0.578,0.432,0.393,0.712
				C125.519,114.198,124.754,113.986,124.656,113.696z"/>
		</g>
		<g>
			<path fill="#B7E1D3" d="M124.75,117.93c-0.168-0.103-0.357-0.166-0.557-0.169c-0.201-0.004-0.974-0.089-1.092,0.063
				c0.554-0.711,1.477-1.238,1.169-2.307c-0.404-1.409-2.622-0.638-3.121,0.299c-0.292,0.545-0.303,1.255-0.124,1.84
				c-0.103-0.334-0.767-0.53-1.064-0.535c-0.37-0.006-0.73,0.15-1,0.401c-0.581,0.542-0.599,1.405-0.153,2.037
				c0.502,0.711,1.287,0.401,1.893,0.021c-0.448,0.55-1.158,1.109-0.877,1.902c0.271,0.772,1.239,1.312,2.029,1.021
				c0.809-0.295,1.016-1.31,0.659-2.02c0.547,1.096,2.032,0.964,2.675,0.063c0.452-0.632,0.462-1.561,0.01-2.197
				C125.079,118.186,124.927,118.037,124.75,117.93z"/>
			<path fill="#DAD49C" d="M122.557,118.731c-0.105-0.361-0.607-0.282-0.853-0.107c-0.3,0.213-0.18,0.77,0.125,0.926
				C122.205,119.744,122.657,119.072,122.557,118.731z"/>
		</g>
	</g>
	<path fill="#FFBF96" d="M110.703,150.653c-0.221,1.498-0.386,3.002-0.412,4.515c-0.014,0.769,0.686,1.114,1.218,1.565
		c0.315,0.267,0.631,0.533,0.945,0.8c0,0,3.366,0.379,6.418-1.597c0.501-1.698,0.597-3.433-0.149-3.747
		c0.65,0.579,1.863,0.232,2.11-0.603c0.163-0.551-2.311-1.776-2.7-1.928c-0.765-0.297-3.582-1.965-3.067-3.237
		c0.126-0.312,0.288-0.61,0.48-0.886c0.208-0.298,0.462-0.597,0.486-0.959c0.022-0.338-0.17-0.664-0.434-0.877
		c-0.263-0.212-0.591-0.329-0.916-0.421c-0.685,0.683-1.348,1.386-1.993,2.105c-0.572,0.637-1.315,1.256-1.467,2.128
		C111.04,148.557,110.857,149.603,110.703,150.653z"/>
	<path fill="#FFF2E3" d="M182.341,119.002c0,0-2.271-5.163-6.516-7.518c-1.632-0.906-1.611-0.867-3.427-0.604
		c-1.654,0.239-6.844,5.174-3.272,12.25c3.545,7.024,3.754,17.987,3.754,17.987s-5.421,11.891-6.427,19.94
		c-0.794,6.343-5.251,102.773-22.45,137.172c-3.386,6.771-9.636,5.208-8.333,10.937c0.912,4.016,31.417,5.99,59.634,5.47
		c26.523-0.49,77.342-2.344,77.342-5.729c0-3.385-15.726-4.422-20.572-15.104c-16.745-36.901-46.353-116.924-47.916-129.684
		c-1.304-10.653-7.858-23.442-7.858-23.442s4.943-20.032,5.837-24.441c0.459-2.268-7.922-7.233-13.605-4.207
		C184.245,114.312,182.341,119.002,182.341,119.002z"/>
	<path fill="#99D4C0" d="M172.768,139.895c0,0,2.166,1.912,11.55,1.912c9.383,0,13.014-1.169,13.014-1.169s0.539,2.566,0.946,3.512
		c0,0-4.101,1.329-13.96,1.329c-9.86,0-12.571-2.305-12.571-2.305S172.748,141.479,172.768,139.895z"/>
	<g>
		<g>
			<path fill="#6EA258" d="M184.485,170.589c0.891,0.629,1.634,1.26,2.527,2.117c2.44,2.335,4.188,4.544,4.645,5.082
				c0.894,1.053,4.523-2.664,3.299-3.774c-0.588-0.534-3.355-2.235-5.39-4.125c-0.452-0.421-1.393-1.144-2.211-2.08
				c-0.237-0.272-0.743,0.639-1.514,1.333C185.033,169.868,183.75,170.07,184.485,170.589z"/>
			<path fill="#537A42" d="M185.565,171.61c0,0,2.974-1.359,3.739-1.979l1.406,1.148c0,0-0.894,0.622-1.921,1.179
				c-1.024,0.558-1.923,0.789-1.923,0.789S186.024,171.932,185.565,171.61z"/>
			<path fill="#537A42" d="M187.829,173.793c0,0,3.327-1.505,4.091-2.126l1.563,1.134c0,0-1.4,0.783-2.428,1.341
				c-1.025,0.558-1.986,0.919-1.986,0.919S188.29,174.116,187.829,173.793z"/>
		</g>
		<g>
			<defs>
				<path id="SVGID_1_" d="M171.881,146.841c-9.672,4.952-13.5,16.807-8.549,26.48c4.951,9.672,16.807,13.5,26.479,8.549
					c9.674-4.951,13.502-16.806,8.551-26.479C193.409,145.719,181.555,141.89,171.881,146.841z M184.313,170.693
					c-3.518,1.8-7.828,0.408-9.63-3.109c-1.8-3.517-0.407-7.828,3.11-9.629c3.518-1.8,7.828-0.408,9.628,3.109
					C189.222,164.582,187.831,168.893,184.313,170.693z"/>
			</defs>
			<clipPath id="SVGID_2_">
				<use xlink:href="#SVGID_1_"  overflow="visible"/>
			</clipPath>
			<g clip-path="url(#SVGID_2_)">
				<path fill="#805D4A" d="M182.092,152.348c0.906,0.7,1.58,1.738,2.091,2.75c0.19,0.379,0.399,0.869,0.496,1.363
					c0.06-0.257,0.116-0.515,0.168-0.773c0.171-0.859,0.185-1.728,0.411-2.579c0.192-0.716,0.428-1.521,0.207-2.256
					c-0.021-0.068,0.118,0.002,0.134,0.034c0.26,0.526,0.192,1.06,0.095,1.623c-0.157,0.896-0.387,1.738-0.485,2.649
					c-0.14,1.303-0.489,2.619-0.942,3.885c0.424-0.567,0.954-1.07,1.384-1.627c0.642-0.826,1.126-1.746,1.631-2.658
					c0.019-0.036,0.122,0.033,0.108,0.071c-0.593,1.865-1.88,3.542-3.348,4.82c-0.188,0.489-0.392,0.97-0.6,1.437
					c-0.062,0.137-0.128,0.272-0.189,0.407c0.992-0.996,2.327-1.518,3.887-1.41c0.026,0.001,0.122,0.075,0.067,0.081
					c-0.971,0.125-1.882,0.25-2.768,0.702c-0.882,0.452-1.342,1.3-1.894,2.066c-0.417,0.807-0.859,1.603-1.309,2.394
					c0.257-0.287,0.528-0.559,0.815-0.809c0.814-0.712,2.129-0.66,3.129-0.81c0.018-0.002,0.068,0.044,0.048,0.048
					c-0.923,0.252-1.889,0.313-2.736,0.79c-1.243,0.701-1.877,2.215-2.729,3.316c-0.125,0.208-0.249,0.416-0.374,0.624
					c0.252-0.22,0.539-0.407,0.805-0.595c0.539-0.38,1.097-0.753,1.705-1.009c0.04-0.018,0.189,0.064,0.147,0.108
					c-0.403,0.41-0.896,0.701-1.375,1.011c-0.554,0.357-1.063,0.824-1.656,1.109c-0.152,0.02-0.604,1.137-0.808,1.316
					c-0.374-0.852,0.988-2.225,1.393-2.906c0.104-0.181,0.21-0.364,0.315-0.545c-0.012-0.016-0.019-0.034-0.017-0.048
					c0.158-0.628,0.146-1.162-0.033-1.789c-0.169-0.583-0.522-1.136-0.61-1.739c-0.012-0.092,0.184,0.026,0.202,0.053
					c0.417,0.59,0.975,1.778,0.929,2.714c0.345-0.601,0.686-1.206,1.019-1.814c0.241-0.691,0.22-1.391,0.074-2.114
					c-0.14-0.693-0.518-1.345-0.612-2.04c-0.015-0.097,0.189,0.033,0.208,0.06c0.506,0.739,0.949,2.042,0.854,3.125
					c0.27-0.507,0.534-1.017,0.793-1.529c0.162-0.327,0.318-0.659,0.468-0.992c-0.092-0.923-0.218-1.692-0.638-2.549
					c-0.374-0.763-0.901-1.44-1.274-2.204c-0.032-0.069,0.119-0.006,0.138,0.015c0.829,0.988,2.004,2.592,2.07,4.052
					c0.401-0.977,0.741-1.981,1.014-3.001c-0.014-1.905-1.53-3.297-2.499-4.82C181.958,152.29,182.07,152.332,182.092,152.348z"/>
				<path fill="#99D4C0" d="M189.31,153.799c-0.855-0.577-1.951-0.142-2.592,0.58c-0.334,0.376-0.971,1.982-0.605,2.458
					c0.421,0.548,1.764,0.108,2.304-0.08C189.863,156.25,190.95,154.907,189.31,153.799z"/>
				<path fill="#99D4C0" d="M189.769,160.059c-0.083,0.545-0.526,1.041-1.271,1.066c-0.493,0.016-2.403-0.135-2.398-0.859
					c0.002-0.182,0.889-1,1.069-1.166c0.486-0.449,1.008-0.607,1.66-0.418C189.561,158.894,189.853,159.503,189.769,160.059z"/>
				<path fill="#99D4C0" d="M186.428,162.538c-0.647,0.009-1.963,0.182-2.323,0.814c-0.642,1.123,0.707,1.473,1.479,1.508
					c0.887,0.042,2.387,0.32,2.628-0.845C188.43,162.952,187.292,162.527,186.428,162.538z"/>
				<path fill="#99D4C0" d="M185.231,148.962c-1.578,0.919-1.629,3.11-0.502,4.138c1.035,0.943,2.349-0.313,2.489-1.751
					c0.117-1.192-0.361-3.29-1.94-2.413C185.264,148.944,185.246,148.953,185.231,148.962z"/>
				<path fill="#99D4C0" d="M182.371,150.983c-0.829-0.532-2.271-0.458-2.192,0.804c0.063,1.038,2.01,2.604,3.028,2.55
					C184.764,154.254,183.035,151.41,182.371,150.983z"/>
				<path fill="#99D4C0" d="M180.011,155.864c0.221,1.718,2.941,3.418,2.897,0.702C182.878,154.754,179.712,153.523,180.011,155.864
					z"/>
				<path fill="#805D4A" d="M184.729,153.1c-0.587-0.535-0.853-1.383-0.752-2.205c0.063-0.068,0.146-0.093,0.252-0.001
					c0.161,0.141,0.243,0.395,0.295,0.596c0.051,0.201,0.068,0.479,0.196,0.65c0.233,0.316,0.471-0.333,0.514-0.495
					c0.05-0.189,0.175-0.789,0.452-0.778c0.286,0.01,0.231,0.583,0.207,0.757c-0.02,0.149-0.218,0.578-0.073,0.704
					c0.246,0.212,0.559-0.366,0.651-0.499c0.105-0.15,0.429-0.593,0.649-0.489c0.034,0.017,0.063,0.043,0.09,0.077
					C187.035,152.826,185.748,154.028,184.729,153.1z"/>
				<path fill="#99D4C0" d="M183.547,165.525c-0.973-1.07-2.124,0.197-2.432,1.165c-0.296,0.933,0.57,1.268,1.392,1.099
					C183.504,167.581,184.353,166.412,183.547,165.525z"/>
				<path fill="#99D4C0" d="M179.638,164.014c0.759-0.487,0.45-1.9-0.019-2.467c-0.691-0.836-1.81-0.219-1.767,0.811
					c0.03,0.702,0.848,2.175,1.731,1.688C179.602,164.036,179.62,164.025,179.638,164.014z"/>
				<path fill="#99D4C0" d="M181.355,161.653c0.229-0.104,0.429-0.286,0.554-0.517c0.24-0.435,0.191-0.963-0.018-1.399
					c-0.308-0.644-1.106-1.195-1.786-0.722c-0.782,0.546-0.393,1.935,0.189,2.485C180.605,161.792,181.012,161.81,181.355,161.653z"
					/>
				<path fill="#805D4A" d="M186.628,154.5c0.37-0.084,0.198,0.774,0.171,0.936c-0.02,0.108-0.042,0.216-0.064,0.324
					c-0.019,0.093-0.065,0.175,0.05,0.142c0.129-0.039,0.283-0.222,0.372-0.315c0.125-0.131,0.241-0.275,0.391-0.381
					c0.191-0.136,0.231,0.015,0.192,0.203c-0.05,0.25-0.245,0.337-0.362,0.538c-0.067,0.115-0.097,0.231,0.036,0.305
					c0.314,0.175,0.73-0.145,1.049-0.137c0.051,0.001,0.244,0.002,0.295,0.031c0.001,0.001,0.004,0.002,0.005,0.003
					c0.063,0.052,0.02,0.128-0.005,0.194c-0.043,0.128-0.104,0.245-0.177,0.351c-0.054,0.022-0.109,0.043-0.164,0.063
					c-0.54,0.188-1.883,0.628-2.304,0.08C185.778,156.4,186.284,155.018,186.628,154.5z"/>
				<path fill="#805D4A" d="M186.972,159.508c-0.044,0.054-0.245,0.274-0.198,0.363c0.063,0.122,0.506-0.271,0.574-0.307
					c0.251-0.128,0.192,0.229,0.076,0.346c-0.12,0.116-0.557,0.187-0.526,0.375c0.035,0.212,0.415,0.295,0.579,0.322
					c0.176,0.028,0.466,0.007,0.523,0.226c0.044,0.169-0.058,0.233-0.185,0.255c-0.738-0.08-1.721-0.303-1.716-0.822
					c0.002-0.153,0.621-0.749,0.93-1.037C187.113,159.305,187.034,159.427,186.972,159.508z"/>
				<path fill="#805D4A" d="M181.487,153.592c0.283-0.119,0.81,0.323,1.042,0.181c-0.116-0.206-0.863-1.012-0.272-1.053
					c0.223-0.015,0.43,0.339,0.515,0.484c0.128,0.216,0.375,0.67,0.539,0.329c0.102-0.207-0.049-0.543-0.016-0.769
					c0.027-0.197,0.104-0.27,0.191-0.271c0.432,0.875,0.599,1.798-0.279,1.844C182.739,154.361,182.074,154.043,181.487,153.592z"/>
				<path fill="#805D4A" d="M180.964,157.496c0.373-0.35,0.901-0.008,1.24,0.172c-0.073-0.337-0.523-0.712-0.406-1.077
					c0.169-0.517,0.532,0.613,0.687,0.707c0.072-0.226-0.001-1.245,0.23-1.475c0.116,0.229,0.189,0.48,0.193,0.743
					C182.937,158.313,181.821,158.231,180.964,157.496z"/>
				<path fill="#805D4A" d="M180.49,161.08c0.209,0.042,0.379,0.295,0.537,0.423c-0.014-0.238-0.304-0.706-0.09-0.916
					c0.349-0.343,0.392,0.622,0.442,0.786c0.125-0.19,0.307-1.146,0.572-1.492c0.155,0.406,0.171,0.867-0.043,1.254
					c-0.125,0.231-0.325,0.413-0.554,0.517c-0.344,0.157-0.75,0.139-1.061-0.154c-0.05-0.048-0.098-0.102-0.144-0.16
					C180.118,161.147,180.244,161.029,180.49,161.08z"/>
				<path fill="#805D4A" d="M178.263,163.46c0.042-0.006,0.093-0.006,0.162,0.001c0.286,0.03,0.604,0.314,0.855,0.45
					c-0.01-0.291-0.251-0.835-0.028-1.067c0.283,0.172,0.086,0.642,0.335,0.828c0.239-0.367,0.158-0.804,0.434-1.174
					c0.01,0.012,0.018,0.025,0.027,0.038c0.113,0.571,0.042,1.189-0.41,1.479c-0.018,0.011-0.036,0.022-0.054,0.032
					C179.074,164.325,178.59,163.957,178.263,163.46z"/>
				<path fill="#805D4A" d="M181.115,166.69c0.104-0.331,0.308-0.695,0.568-0.99c0.017,0.007,0.032,0.016,0.047,0.028
					c0.192,0.167-0.229,0.826-0.301,0.989c0.277,0.203,0.508-0.272,0.741-0.312c0.005,0.223-0.439,0.602-0.313,0.795
					c0.104,0.161,0.722-0.123,0.92-0.134c0.583-0.031,0.415,0.347,0.079,0.607c-0.113,0.05-0.231,0.09-0.351,0.115
					C181.686,167.958,180.819,167.623,181.115,166.69z"/>
				<path fill="#805D4A" d="M185.583,164.86c-0.771-0.036-2.12-0.385-1.479-1.508c0.292-0.509,1.202-0.72,1.884-0.788
					c-0.057,0.385-0.869,0.368-0.99,0.724c0.167,0.05,0.752-0.209,0.854-0.002c0.152,0.307-0.677,0.274-0.777,0.292
					c-0.999,0.175,0.31,0.766,0.705,0.826c0.233,0.034,0.628,0.133,0.498,0.479c-0.005,0.008-0.008,0.014-0.012,0.023
					C186.022,164.891,185.785,164.87,185.583,164.86z"/>
			</g>
			<g clip-path="url(#SVGID_2_)">
				<g>
					<path fill="#99D4C0" d="M177.886,164.644c0.022-0.006,0.041-0.016,0.055-0.032c0.025-0.028,0.036-0.065,0.048-0.101
						c0.229-0.729,0.335-1.708,0.208-2.469c-0.035-0.193-0.101-0.373-0.187-0.548c-0.179-0.371-0.404-0.877-0.787-1.074
						c-0.546-0.282-0.672,0.281-0.624,0.708c0.035,0.316,0.142,0.624,0.269,0.914c0.261,0.598,0.628,1.146,0.871,1.753
						c0.25,0.613-0.746-0.237-0.815-0.3c-0.467-0.429-0.894-0.902-1.377-1.316c-0.862-0.728-0.067-1.646-0.419-2.623
						c-0.168-0.413-1.082-1.301-1.533-1.374c-0.129,0.663,0.056,1.36,0.369,1.944c0.168,0.314,0.371,0.57,0.607,0.83
						c0.086,0.097,0.429,0.476,0.13,0.525c-0.208,0.035-1.164-0.553-1.4-0.698c-0.402-0.248-0.862-0.467-1.403-0.753
						c-0.239-0.458,0.018-0.915-0.11-1.375c-0.221-0.793-1.174-1.198-1.939-1.02c-0.156,0.038,0.393,0.963,0.455,1.033
						c0.269,0.314,0.618,0.491,0.929,0.751c0.043,0.035,0.358,0.431,0.29,0.455c-0.105,0.035-0.21-0.023-0.309-0.056
						c-0.271-0.092-0.794-0.283-1.437-0.436c-0.611-0.145-0.98-0.163-1.261-0.218c-0.242-0.044-0.689-0.766-0.913-0.998
						c-0.51-0.53-1.034-0.695-1.37-0.474c-0.831,0.542,0.218,1.368,0.218,1.368s-0.962,0.177-0.802,0.744
						c0.348,1.229,2.424-0.112,2.824-0.209c0.373-0.09,0.766-0.052,1.14,0.031c0.369,0.082,0.88,0.119,1.181,0.367
						c-0.144,0.096-0.251,0.222-0.416,0.292c-0.15,0.066-0.313,0.096-0.468,0.147c-0.235,0.078-0.441,0.202-0.657,0.329
						c-0.299,0.177-0.471,0.513-0.698,0.765c-0.382,0.425,0.498,0.241,0.667,0.218c0.194-0.028,0.396-0.054,0.571-0.153
						c0.609-0.352,0.596-1.289,1.382-1.406c0.485-0.072,0.901,0.216,1.319,0.426c0.242,0.121,0.482,0.254,0.711,0.399
						c0.167,0.104,0.641,0.342,0.641,0.342s-0.285,0.217-0.393,0.25c-0.107,0.033-0.604-0.203-1.049-0.14
						c-0.262,0.036-1.579,0.585-1.595,0.819c-0.03,0.469,1.562,0.537,2.162,0.241c0.5-0.244,1.066-1.015,1.161-0.977
						c0.824,0.329,1.464,0.968,2.079,1.585c0.227,0.228,0.536,0.525,0.648,0.833l-0.052,0.016c-0.142,0.007-0.289-0.135-0.4-0.204
						c-0.147-0.092-0.304-0.167-0.468-0.225c-0.369-0.13-0.761-0.186-1.15-0.193c-0.276-0.006-0.589,0.021-0.835,0.165
						c-0.425,0.249-0.259,0.524,0.119,0.67c0.318,0.123,0.646,0.214,0.971,0.323c0.826,0.284,1.341,0.115,2.138-0.003
						C177.35,164.486,177.72,164.691,177.886,164.644z"/>
				</g>
			</g>
			<g clip-path="url(#SVGID_2_)">
				<g>
					<g>
						<g>
							<path fill="#DAB26F" d="M177.115,162.156c0.025,0.011,0.058,0.011,0.096-0.005c0.251-0.104,0.222-0.963,0.249-1.2
								c0.16-1.515,1.785-1.323,2.61-2.456c0.334-0.5,0.634-2.195,0.374-2.751c-0.838,0.357-1.477,1.092-1.893,1.884
								c-0.223,0.426-0.355,0.846-0.467,1.307c-0.042,0.169-0.206,0.84-0.487,0.543c-0.195-0.207-0.264-1.719-0.279-2.092
								c-0.028-0.638-0.134-1.318-0.224-2.139c0.33-0.614,1.035-0.673,1.451-1.165c0.721-0.846,0.451-2.217-0.328-2.938
								c-0.162-0.147-0.778,1.168-0.811,1.292c-0.146,0.538-0.08,1.062-0.135,1.605c-0.007,0.074-0.21,0.728-0.289,0.667
								c-0.116-0.09-0.133-0.251-0.171-0.384c-0.183-0.652-0.362-1.306-0.602-1.937c-0.144-0.38,0.257-0.84,0.303-1.246
								c0.048-0.435,0.105-0.618-0.196-1.24c-0.275-0.57-0.966-0.904-1.357-1.364c-0.498,0.789-1.203,1.863-0.688,2.784
								c0.638,1.136,2.175,1.031,2.027,2.664c-0.216-0.086-0.439-0.113-0.643-0.242c-0.187-0.119-0.343-0.278-0.519-0.412
								c-0.265-0.203-0.56-0.34-0.864-0.484c-0.425-0.201-0.931-0.139-1.384-0.2c-0.765-0.107,0.107,0.737,0.261,0.908
								c0.179,0.198,0.359,0.401,0.604,0.522c0.855,0.415,1.891-0.311,2.617,0.479c0.446,0.487,0.439,1.171,0.523,1.798
								c0.047,0.361,0.079,0.73,0.091,1.095c0.011,0.267,0.105,0.976,0.105,0.976s-0.459-0.155-0.578-0.25
								c-0.118-0.095-0.23-0.829-0.639-1.278c-0.237-0.263-1.849-1.32-2.121-1.162c-0.546,0.323,0.583,2.151,1.37,2.601
								c0.647,0.372,1.938,0.421,1.968,0.555c0.132,0.601,0.134,1.22,0.076,1.83C177.151,160.894,176.881,162.049,177.115,162.156z"
								/>
						</g>
					</g>
				</g>
				<path fill="#6EA258" d="M175.304,149.42c-0.337,0.211-0.308,1.076-0.272,1.43c0.046,0.451,0.283,0.844,0.643,1.109
					C175.871,151.22,175.379,150.185,175.304,149.42z"/>
				<path fill="#6EA258" d="M177.483,154.441c0.17-0.056,0.339-0.258,0.462-0.381c0.214-0.213,0.36-0.443,0.448-0.733
					c0.08-0.262,0.097-0.597,0.088-0.871c-0.004-0.141-0.063-0.279-0.064-0.414c-0.021,0.246-0.187,0.491-0.284,0.714
					c-0.104,0.241-0.24,0.466-0.303,0.721c-0.049,0.196-0.113,0.383-0.175,0.57c-0.046,0.137-0.156,0.261-0.185,0.404
					L177.483,154.441z"/>
				<path fill="#6EA258" d="M173.976,153.187c-0.249-0.05-0.498-0.03-0.711-0.152c0.123,0.172,0.2,0.328,0.407,0.421
					c0.187,0.085,0.406,0.16,0.611,0.203c0.193,0.042,0.395,0.016,0.588,0.064c0.129,0.033,0.313,0.096,0.15-0.088
					c-0.109-0.123-0.312-0.187-0.457-0.255C174.375,153.294,174.179,153.228,173.976,153.187z"/>
				<path fill="#6EA258" d="M178.801,158.8c0.246-0.206,0.405-0.454,0.553-0.736c0.22-0.425,0.387-0.874,0.578-1.306
					c-0.253,0.252-0.443,0.571-0.607,0.881c-0.127,0.242-0.304,0.459-0.48,0.663c-0.117,0.137-0.246,0.279-0.342,0.434
					c-0.081,0.127-0.117,0.274-0.183,0.408C178.451,158.998,178.649,158.926,178.801,158.8z"/>
				<path fill="#6EA258" d="M175.587,157.482c-0.217-0.233-0.457-0.439-0.715-0.627c-0.261-0.19-0.489-0.391-0.717-0.611
					c0.046,0.146,0.132,0.282,0.185,0.425c0.066,0.171,0.128,0.296,0.272,0.413c0.25,0.203,0.501,0.407,0.755,0.605
					c0.143,0.111,0.288,0.221,0.431,0.332c0.113,0.087,0.246,0.24,0.377,0.289C176.199,158.007,175.768,157.675,175.587,157.482z"/>
			</g>
			<g clip-path="url(#SVGID_2_)">
				<g>
					<g>
						<g>
							<path fill="#DAB26F" d="M174.96,165.423c-0.589,0.17-1.198,0.282-1.813,0.262c-0.137-0.004-0.424-1.264-0.908-1.833
								c-0.587-0.69-2.592-1.462-2.809-0.867c-0.105,0.296,1.23,1.686,1.533,1.871c0.517,0.317,1.258,0.293,1.373,0.392
								c0.115,0.099,0.353,0.522,0.353,0.522s-0.715,0.038-0.979,0.077c-0.361,0.056-0.729,0.092-1.093,0.112
								c-0.632,0.034-1.302,0.165-1.863-0.184c-0.911-0.568-0.389-1.719-0.954-2.483c-0.164-0.219-0.397-0.358-0.624-0.499
								c-0.196-0.119-1.188-0.82-0.941-0.089c0.146,0.434,0.176,0.943,0.452,1.323c0.198,0.273,0.387,0.538,0.635,0.761
								c0.163,0.147,0.349,0.271,0.5,0.435c0.164,0.175,0.231,0.389,0.357,0.585c-1.577,0.447-1.758-1.084-2.993-1.501
								c-1-0.337-1.926,0.554-2.608,1.189c0.524,0.299,0.979,0.916,1.59,1.083c0.668,0.182,0.837,0.091,1.255-0.037
								c0.392-0.119,0.77-0.596,1.169-0.526c0.665,0.119,1.339,0.175,2.015,0.235c0.139,0.012,0.299-0.002,0.409,0.096
								c0.074,0.067-0.531,0.387-0.604,0.408c-0.522,0.154-1.051,0.185-1.553,0.428c-0.114,0.055-1.293,0.903-1.12,1.034
								c0.853,0.633,2.25,0.646,2.948-0.217c0.407-0.5,0.336-1.204,0.879-1.642c0.823-0.062,1.512-0.086,2.143-0.175
								c0.37-0.053,1.868-0.265,2.108-0.11c0.343,0.222-0.286,0.506-0.445,0.579c-0.432,0.194-0.82,0.402-1.198,0.7
								c-0.701,0.555-1.306,1.318-1.503,2.207c0.596,0.153,2.206-0.454,2.636-0.875c0.963-1.02,0.475-2.582,1.934-3.019
								c0.229-0.071,1.079-0.199,1.134-0.465c0.008-0.041,0.003-0.072-0.013-0.094C176.214,164.895,175.128,165.375,174.96,165.423z
								"/>
						</g>
					</g>
				</g>
				<path fill="#6EA258" d="M163.511,165.672c0.145-0.371,1-0.5,1.354-0.531c0.451-0.039,0.882,0.124,1.209,0.428
					C165.383,165.898,164.274,165.604,163.511,165.672z"/>
				<path fill="#6EA258" d="M168.848,166.89c-0.025,0.176-0.192,0.379-0.291,0.523c-0.17,0.249-0.368,0.435-0.637,0.576
					c-0.243,0.127-0.569,0.205-0.841,0.246c-0.139,0.022-0.286-0.01-0.418,0.013c0.237-0.066,0.446-0.274,0.65-0.41
					c0.217-0.148,0.412-0.322,0.652-0.431c0.183-0.083,0.354-0.181,0.527-0.277c0.126-0.07,0.229-0.202,0.363-0.255L168.848,166.89z
					"/>
				<path fill="#6EA258" d="M166.968,163.673c-0.096-0.235-0.122-0.485-0.282-0.672c0.193,0.091,0.36,0.138,0.489,0.323
					c0.119,0.168,0.231,0.371,0.313,0.563c0.077,0.183,0.089,0.386,0.172,0.566c0.056,0.121,0.152,0.291-0.058,0.165
					c-0.141-0.085-0.242-0.271-0.336-0.403C167.146,164.046,167.045,163.864,166.968,163.673z"/>
				<path fill="#6EA258" d="M173.373,167.381c-0.157,0.281-0.371,0.483-0.622,0.678c-0.378,0.295-0.786,0.542-1.177,0.809
					c0.201-0.295,0.479-0.54,0.754-0.758c0.215-0.169,0.396-0.383,0.563-0.595c0.113-0.141,0.228-0.293,0.362-0.417
					c0.111-0.102,0.248-0.165,0.369-0.253C173.504,167.001,173.47,167.209,173.373,167.381z"/>
				<path fill="#6EA258" d="M171.486,164.465c-0.27-0.171-0.517-0.369-0.749-0.588c-0.234-0.221-0.474-0.409-0.732-0.59
					c0.151,0.017,0.301,0.075,0.451,0.103c0.182,0.033,0.314,0.071,0.456,0.191c0.245,0.208,0.491,0.417,0.733,0.629
					c0.136,0.121,0.271,0.243,0.405,0.363c0.107,0.095,0.281,0.198,0.354,0.316C172.115,164.97,171.709,164.607,171.486,164.465z"/>
			</g>
			<g clip-path="url(#SVGID_2_)">
				<path fill="#78C9BA" d="M168.633,170.21c-0.334,0.099-0.614,0.27-0.69,0.575c-0.196,0.789,1.138,0.617,1.554,0.681
					c-0.479,0.079-0.835,0.314-1.183,0.701c-0.277,0.308-0.607,0.816-0.2,1.084c0.489,0.32,1.002-0.432,1.442-0.643
					c-0.267,0.401-0.766,0.899-0.469,1.368c0.202,0.32,0.616,0.361,0.958,0.131c0.194-0.132,0.51-0.571,0.489-0.819
					c0.029,0.369-0.106,1.021,0.337,1.147c0.817,0.231,0.834-1.08,0.733-1.558c0.236,0.143,0.479,0.265,0.719,0.404
					c0.197,0.115,0.455,0.223,0.69,0.063c0.717-0.483-0.295-1.469-0.787-1.497c0.417,0.173,2.301,0.234,2.075-0.739
					c-0.115-0.501-1.002-0.363-1.34-0.542c0.399-0.041,1.927-0.816,1.267-1.311c-0.599-0.45-1.283,0.178-1.84,0.543
					c0.669-0.61,0.515-2.019-0.35-2.113c-0.935-0.101-0.92,1.188-0.65,1.741c-0.234-0.427-0.518-0.788-0.944-1.017
					c-0.344-0.184-1.08-0.427-1.375,0.083c-0.375,0.649,0.458,1.275,0.832,1.543C169.629,170.069,169.082,170.075,168.633,170.21z"
					/>
				<path fill="#DAD49C" d="M171.587,171.729c1.155-0.356,0.371-2.143-0.551-1.581C170.174,170.673,170.682,172.01,171.587,171.729z
					"/>
			</g>
		</g>
		<g>
			<g>
				<g>
					<path fill="#9BD09A" d="M182.238,163.917c0.11,0.365,0.109,0.768-0.034,1.154c-0.158,0.43-0.465,0.763-0.839,0.965
						c0.073,0.085,0.142,0.175,0.199,0.275c0.464,0.797,1.171,1.997,2.234,1.941c0.671-0.036,1.27-0.537,1.735-0.979
						c0.732-0.695,1.031-1.758,0.73-2.733c-0.245-0.797-1.104-1.453-1.947-1.453c-0.026,0-0.053,0-0.079,0.002
						c-0.418,0.03-0.756,0.292-1.109,0.496C182.846,163.748,182.546,163.842,182.238,163.917z"/>
					<path fill="#9BD09A" d="M180.713,170.167c0.459-0.02,0.982-0.188,1.196-0.634c0.491-1.02,0.022-2.076-0.537-2.977
						c-0.078-0.127-0.18-0.263-0.297-0.395c-0.378,0.127-0.802,0.132-1.207-0.018c-0.137-0.051-0.263-0.118-0.38-0.197
						c-0.445,0.39-0.811,1.046-1.069,1.381c-0.396,0.51-0.43,1.302-0.272,1.907C178.398,170.209,179.896,170.201,180.713,170.167z"
						/>
					<path fill="#9BD09A" d="M177.666,167.535c0.697-0.415,1.15-1.105,1.617-1.747c-0.445-0.402-0.671-1.007-0.581-1.612
						c-0.125-0.019-0.239-0.032-0.352-0.038c-0.395-0.019-0.693,0.112-1.063,0.213c-0.418,0.115-0.636-0.143-1.061-0.141
						c-0.662,0.003-1.114,0.762-1.094,1.357c0.026,0.762,0.39,1.625,1.077,2.013C176.654,167.83,177.244,167.785,177.666,167.535z"
						/>
					<path fill="#9BD09A" d="M178.753,163.949c0.012-0.046,0.026-0.094,0.044-0.141c0.26-0.705,0.913-1.152,1.62-1.186
						c0.012-0.613-0.149-1.236-0.449-1.674c-0.561-0.818-1.38-1.719-2.44-1.296c-0.905,0.361-1.786,1.613-1.769,2.592
						c0.007,0.538,0.333,1.262,0.82,1.528c0.379,0.207,0.799,0.076,1.199,0.045C178.116,163.794,178.438,163.841,178.753,163.949z"
						/>
					<path fill="#9BD09A" d="M181.131,162.735c0.451,0.167,0.796,0.495,0.994,0.894c0.396-0.164,0.75-0.362,0.901-0.478
						c0.846-0.649,1.584-1.782,1.329-2.889c-0.22-0.962-1.346-1.763-2.324-1.753c-0.514,0.006-1.174,0.368-1.452,0.812
						c-0.288,0.458-0.532,1.081-0.343,1.612c0.155,0.437,0.37,0.812,0.45,1.275c0.026,0.151,0.018,0.29-0.004,0.426
						C180.834,162.648,180.983,162.68,181.131,162.735z"/>
					<circle fill="#A2D5B2" cx="180.5" cy="164.44" r="1.495"/>
					<g>
						<path fill="#FFFCE8" d="M181.074,165.586l-0.583-0.918l-0.013-0.004l-0.233,1.028l-0.441-0.162l0.485-0.936l-0.019-0.007
							l-1.01,0.334l-0.083-0.496l1.056-0.06l0.006-0.013l-0.763-0.754l0.371-0.284l0.564,0.91l0.019,0.008l0.226-1.01l0.441,0.164
							l-0.477,0.91l0.013,0.004l1.025-0.314l0.081,0.479l-1.059,0.067l-0.005,0.013l0.771,0.736L181.074,165.586z"/>
					</g>
				</g>
				<path fill="#9BD09A" d="M184.472,161.837c0.177-0.472,0.182-1.001,0.19-1.5c0.604,0.185,1.29,0.366,1.655,0.923
					c0.432,0.656,0.527,1.651-0.16,2.197c-0.374,0.296-0.586-0.109-0.929-0.301c-0.362-0.203-0.782-0.285-1.177-0.399
					c-0.029-0.256,0.191-0.462,0.304-0.667C184.401,162.009,184.438,161.925,184.472,161.837z"/>
				<path fill="#9BD09A" d="M178.317,159.402c0.562,0.13,1.428,0.432,1.647,1.025c0.139-0.317,0.088-0.708,0.274-1.042
					c0.126-0.226,0.606-0.45,0.458-0.74c-0.121-0.234-0.685-0.252-0.899-0.242c-0.334,0.016-0.683,0.119-0.963,0.308
					C178.781,158.747,178.199,159.374,178.317,159.402z"/>
				<path fill="#9BD09A" d="M184.025,168.49c0.343-0.059,0.57-0.093,0.528,0.34c-0.027,0.287-0.188,0.616-0.379,0.821
					c-0.55,0.582-1.478,0.758-2.18,0.313c0.193-0.192,0.448-0.513,0.473-0.792c0.04-0.423-0.083-0.849-0.142-1.264
					C182.975,167.992,183.252,168.624,184.025,168.49z"/>
				<path fill="#9BD09A" d="M176.117,163.902c0.021,0.007,0.02,0.006-0.003-0.004c-0.34,0.028-1.022,0.568-1.111,0.895
					c0.002-0.012-0.307-0.303-0.334-0.355c-0.078-0.149-0.096-0.273-0.092-0.443c0.007-0.318,0.135-0.678,0.291-0.953
					c0.1-0.173,0.374-0.59,0.638-0.479C175.724,162.654,175.624,163.749,176.117,163.902z"/>
				<path fill="#9BD09A" d="M176.377,167.77c-0.2,0.405-0.021,0.928,0.272,1.242c0.206,0.219,0.846,0.691,1.153,0.707
					c0.469,0.024,0-0.557-0.038-0.862c-0.048-0.391-0.005-0.695,0.192-1.026C177.362,167.96,176.963,168.138,176.377,167.77z"/>
				<path fill="#9BD09A" d="M186.628,165.408c-0.251-0.472-0.022-1.013-0.365-1.492c0.191-0.171,0.297-0.736,0.517-0.825
					c0.307-0.123,0.46,0.427,0.516,0.676c0.076,0.332,0.079,0.712-0.044,1.033C187.226,164.867,186.721,165.583,186.628,165.408z"/>
				<path fill="#9BD09A" d="M185.855,167.479c-0.291,0.274-0.682,0.407-0.975,0.66c0.473,0.401,1.236-0.04,1.533-0.466
					c0.521-0.748,0.396-1.132,0.21-1.947c0.097,0.427-0.349,1.241-0.595,1.562C185.976,167.356,185.918,167.418,185.855,167.479z"/>
				<path fill="#9BD09A" d="M185.562,160.341c0.049,0.013,0.098,0.023,0.146,0.034c0.018-0.426-0.435-0.661-0.736-0.883
					c-0.299-0.219-0.728-0.411-1.094-0.444c0.327,0.368,0.632,1.015,1.142,1.146C185.195,160.241,185.381,160.296,185.562,160.341z"
					/>
				<path fill="#9BD09A" d="M179.833,157.922c0.371,0.165,0.666,0.306,0.981,0.519c0.349-0.274,0.931-0.136,1.334-0.145
					c-0.225-0.247-0.681-0.324-0.999-0.382c-0.236-0.042-0.479-0.067-0.718-0.061C180.306,157.853,179.933,157.966,179.833,157.922z
					"/>
				<path fill="#9BD09A" d="M177.618,159.3c-0.323,0.108-0.7,0.329-0.827,0.654c-0.137-0.43,0.425-0.788,0.757-0.985
					c0.336-0.201,0.756-0.657,1.172-0.602C178.24,158.645,178.183,159.111,177.618,159.3z"/>
				<path fill="#9BD09A" d="M175.501,161.903c-0.087,0.221-0.371,0.546-0.543,0.745c-0.143-0.678,0.273-1.651,0.981-1.849
					C175.741,161.146,175.65,161.522,175.501,161.903z"/>
				<path fill="#9BD09A" d="M180.595,170.508c-0.108-0.018-0.226-0.065-0.353-0.155c0.034,0.023,0.066,0.147,0.101,0.188
					c0.054,0.066,0.126,0.114,0.198,0.156c0.137,0.08,0.293,0.126,0.434,0.196c0.462,0.23,0.823,0.185,1.282,0.035
					c0.075-0.024,0.546-0.276,0.544-0.278c-0.29-0.165-0.83-0.411-1.155-0.372C181.233,170.329,180.948,170.568,180.595,170.508z"/>
				<path fill="#9BD09A" d="M175.207,166.718c-0.04-0.053-0.349-0.104-0.438-0.182c-0.149-0.129-0.24-0.324-0.291-0.511
					c-0.081-0.295-0.086-0.754,0.229-0.913c0.105,0.183,0.011,0.5,0.059,0.726C174.831,166.157,175.012,166.461,175.207,166.718z"/>
				<path fill="#9BD09A" d="M178.287,169.783c0.028,0.035-0.001,0.456,0.06,0.572c0.101,0.19,0.286,0.351,0.479,0.443
					c0.404,0.192,1.033,0.059,1.028-0.487C179.246,170.209,178.747,170.322,178.287,169.783z"/>
			</g>
			<g>
				<defs>
					<path id="SVGID_3_" d="M179.883,171.596c0,0-1.922-0.241-3.944-2.393c-2.249-2.394-2.157-5.555-2.157-5.555
						s-5.63-4.789-6.628,3.264C166.155,174.965,176.412,181.067,179.883,171.596z"/>
				</defs>
				<clipPath id="SVGID_4_">
					<use xlink:href="#SVGID_3_"  overflow="visible"/>
				</clipPath>
				<g clip-path="url(#SVGID_4_)">
					<path fill="#805D4A" d="M175.627,175.319c-2.359,0.986-3.801-0.712-3.04-2.927c0.789-2.294,2.935-4.423,4.98-5.661
						c0.336-0.203,1.835-1.586,2.241-1.179c0.292,0.308-0.174,2.279-0.188,2.751C179.538,171.125,178.438,174.14,175.627,175.319z"
						/>
					<path fill="#8ACA8D" d="M179.78,165.655c-0.016-0.011-0.035-0.016-0.058-0.012c-0.088,0.019-0.135,0.144-0.183,0.21
						c-0.09,0.123-0.178,0.246-0.268,0.37c-0.177,0.249-0.35,0.499-0.521,0.752c-0.007,0.011-0.019,0.038-0.03,0.045
						c-0.365,0.217-0.731,0.419-1.112,0.606c-0.436,0.213-0.926,0.379-1.293,0.7c-0.038,0.032,0.037,0.14,0.079,0.125
						c0.687-0.246,1.492-0.614,2.099-1.089c-0.25,0.379-0.492,0.764-0.73,1.151c-0.013-0.017-0.033-0.031-0.033-0.016
						c0.003,0.024,0.005,0.041,0.009,0.055c-0.011,0.018-0.021,0.035-0.032,0.053c-0.275,0.306-0.665,0.579-0.97,0.835
						c-0.538,0.452-1.142,0.806-1.785,1.084c-0.019,0.006,0.024,0.067,0.043,0.062c0.707-0.172,1.302-0.533,1.865-0.987
						c0.119-0.096,0.295-0.224,0.466-0.371c-0.342,0.563-0.683,1.125-1.032,1.683c-0.021-0.022-0.046-0.034-0.06-0.013
						c-0.279,0.43-0.898,0.761-1.304,1.066c-0.572,0.434-1.215,0.664-1.848,0.987c-0.042,0.021,0.037,0.121,0.074,0.116
						c0.705-0.091,1.358-0.496,1.921-0.91c0.226-0.167,0.535-0.367,0.796-0.597c-0.39,0.563-0.839,1.08-1.219,1.648
						c-0.424,0.634-0.752,1.321-1.212,1.933c-0.025,0.033,0.053,0.123,0.08,0.094c0.396-0.4,0.659-0.893,0.928-1.383
						c0.395-0.724,0.943-1.339,1.414-2.014c0.029-0.042,0.057-0.085,0.086-0.126c-0.088,0.302-0.141,0.618-0.189,0.878
						c-0.13,0.683-0.119,1.398,0.053,2.072c0.009,0.035,0.124,0.124,0.114,0.06c-0.104-0.681-0.104-1.337,0.005-2.017
						c0.098-0.609,0.416-1.153,0.52-1.748c0.355-0.555,0.699-1.12,1.045-1.683c-0.021,0.137-0.028,0.274-0.026,0.402
						c0.018,1.072-0.034,2.158,0.021,3.227c0.004,0.057,0.136,0.213,0.155,0.104c0.152-0.848,0.079-1.76,0.037-2.617
						c-0.016-0.304-0.021-0.598-0.008-0.893c0.038-0.247,0.074-0.5,0.097-0.673c0.162-0.261,0.326-0.521,0.493-0.781
						c0.162-0.25,0.326-0.496,0.493-0.741c-0.064,0.267-0.055,0.566-0.059,0.822c-0.009,0.455-0.021,0.92,0.009,1.374
						c0,0.028,0.085,0.144,0.101,0.088c0.114-0.386,0.091-0.806,0.091-1.206c0.001-0.447,0.074-0.896,0.063-1.341
						c-0.001-0.005-0.004-0.014-0.009-0.024c0.167-0.241,0.336-0.48,0.508-0.718c0.062-0.084,0.125-0.169,0.187-0.253
						c0.039-0.052,0.065-0.11,0.097-0.168c0.024-0.045,0.063-0.094,0.07-0.147C179.817,165.701,179.804,165.672,179.78,165.655z"/>
				</g>
				<g clip-path="url(#SVGID_4_)">
					<path fill="#805D4A" d="M170.53,166.6c-1.291-1.342-0.517-2.769,1.188-2.835c1.766-0.067,3.776,0.83,5.155,1.894
						c0.227,0.175,1.56,0.83,1.391,1.213c-0.132,0.279-1.595,0.481-1.918,0.596C174.408,168.154,172.07,168.199,170.53,166.6z"/>
					<path fill="#8ACA8D" d="M178.187,166.88c0.004-0.014,0.001-0.028-0.006-0.042c-0.037-0.056-0.135-0.054-0.191-0.069
						c-0.107-0.029-0.215-0.057-0.322-0.084c-0.214-0.055-0.43-0.107-0.647-0.157c-0.01-0.002-0.031-0.003-0.039-0.009
						c-0.243-0.19-0.478-0.387-0.704-0.596c-0.259-0.24-0.501-0.529-0.815-0.694c-0.032-0.018-0.085,0.062-0.064,0.086
						c0.349,0.402,0.81,0.852,1.292,1.14c-0.323-0.07-0.646-0.134-0.974-0.193c0.009-0.014,0.013-0.031,0.003-0.026
						c-0.017,0.008-0.027,0.014-0.036,0.019c-0.014-0.003-0.028-0.006-0.044-0.007c-0.281-0.107-0.568-0.299-0.823-0.439
						c-0.448-0.247-0.848-0.563-1.205-0.927c-0.011-0.011-0.039,0.033-0.032,0.045c0.304,0.436,0.706,0.745,1.162,1.007
						c0.097,0.057,0.23,0.142,0.374,0.219c-0.472-0.085-0.943-0.167-1.414-0.258c0.009-0.021,0.012-0.041-0.008-0.043
						c-0.365-0.078-0.752-0.41-1.065-0.605c-0.446-0.276-0.771-0.652-1.157-0.997c-0.025-0.021-0.072,0.058-0.059,0.082
						c0.246,0.456,0.693,0.793,1.122,1.065c0.172,0.109,0.391,0.268,0.615,0.384c-0.485-0.117-0.954-0.286-1.441-0.393
						c-0.542-0.123-1.095-0.164-1.632-0.315c-0.029-0.007-0.067,0.067-0.041,0.08c0.376,0.163,0.778,0.213,1.183,0.265
						c0.595,0.078,1.159,0.289,1.74,0.431c0.036,0.009,0.072,0.018,0.108,0.025c-0.229,0.02-0.459,0.067-0.648,0.102
						c-0.497,0.092-0.981,0.287-1.393,0.581c-0.021,0.016-0.053,0.116-0.01,0.093c0.434-0.25,0.881-0.42,1.37-0.526
						c0.44-0.095,0.894-0.021,1.324-0.109c0.471,0.097,0.944,0.181,1.418,0.268c-0.098,0.022-0.194,0.053-0.28,0.088
						c-0.724,0.293-1.476,0.544-2.187,0.863c-0.037,0.017-0.109,0.147-0.03,0.132c0.616-0.12,1.217-0.41,1.786-0.664
						c0.204-0.089,0.402-0.172,0.606-0.24c0.177-0.04,0.359-0.081,0.482-0.11c0.22,0.041,0.441,0.084,0.66,0.128
						c0.213,0.044,0.424,0.091,0.634,0.141c-0.198,0.027-0.398,0.112-0.574,0.177c-0.313,0.114-0.63,0.227-0.933,0.367
						c-0.018,0.008-0.073,0.096-0.032,0.092c0.292-0.023,0.572-0.151,0.843-0.256c0.304-0.117,0.628-0.186,0.929-0.311
						c0.002-0.002,0.009-0.005,0.014-0.012c0.208,0.051,0.415,0.103,0.62,0.157c0.074,0.019,0.148,0.039,0.223,0.059
						c0.045,0.012,0.093,0.015,0.139,0.021c0.038,0.005,0.081,0.019,0.118,0.009C178.165,166.917,178.183,166.9,178.187,166.88z"/>
				</g>
			</g>
			<path fill="#6BA97E" d="M182.253,165.859c-0.328,0.28,0.06,0.838,0.365,0.519C182.896,166.089,182.64,165.53,182.253,165.859z"/>
			<path fill="#6BA97E" d="M182.859,164.965c-0.134,0.608,1.057,0.814,0.897,0.116C183.672,164.713,182.963,164.508,182.859,164.965
				z"/>
			<path fill="#6BA97E" d="M180.23,166.924c-0.127,0.372,0.604,0.462,0.612,0.053C180.852,166.639,180.328,166.636,180.23,166.924z"
				/>
			<path fill="#6BA97E" d="M179.851,166.931c-0.195-0.152-0.415-0.018-0.523,0.158c-0.154,0.251,0.035,0.683,0.375,0.607
				C179.972,167.637,180.066,167.098,179.851,166.931z"/>
			<path fill="#6BA97E" d="M178.032,165.219c-0.228,0.283,0.251,0.766,0.455,0.406C178.656,165.324,178.306,164.878,178.032,165.219
				z"/>
			<path fill="#6BA97E" d="M177.755,166.206c-0.119,0.259,0.295,0.583,0.394,0.219C178.221,166.162,177.9,165.89,177.755,166.206z"
				/>
			<path fill="#6BA97E" d="M178.003,162.975c-0.177,0.454,0.552,0.657,0.609,0.21C178.66,162.818,178.159,162.575,178.003,162.975z"
				/>
			<path fill="#6BA97E" d="M179.08,161.964c-0.32,0.358,0.244,0.865,0.52,0.443C179.851,162.017,179.415,161.59,179.08,161.964z"/>
			<path fill="#6BA97E" d="M178.198,162.03c-0.096,0.275,0.317,0.346,0.385,0.114C178.654,161.9,178.287,161.772,178.198,162.03z"/>
			<path fill="#6BA97E" d="M183.385,164.137c-0.145,0.209,0.066,0.36,0.258,0.251C183.973,164.198,183.573,163.864,183.385,164.137z
				"/>
			<path fill="#6BA97E" d="M180.964,161.861c-0.247,0.346,0.326,0.511,0.492,0.279C181.642,161.877,181.154,161.594,180.964,161.861
				z"/>
			<path fill="#6BA97E" d="M181.962,162.526c-0.222,0.399,0.467,0.644,0.491,0.188C182.471,162.379,182.146,162.2,181.962,162.526z"
				/>
			<path fill="#6BA97E" d="M181.646,161.451c-0.127,0.374,0.464,0.43,0.49,0.09C182.16,161.238,181.742,161.164,181.646,161.451z"/>
		</g>
	</g>
	<path fill="#FFBF96" d="M207.913,99.803c-5.209-1.414-6.77,5.878-6.413,11.223c0.356,5.345,8.118,31.199,8.118,31.199
		s-15.879,23.733-17.67,23.375c-0.288-0.058-0.56-0.177-0.828-0.296c-1.408-0.628-2.852-1.208-4.31-1.714
		c-0.253,0.224-0.497,0.472-0.643,0.778c-0.144,0.307-0.175,0.683-0.009,0.978c0.182,0.316,0.539,0.474,0.856,0.652
		c0.294,0.165,0.568,0.363,0.817,0.59c1.019,0.92-0.795,3.648-1.353,4.248c-0.286,0.306-1.98,2.485-1.594,2.91
		c0.586,0.646,1.827,0.43,2.163-0.374c-0.536,0.608,0.306,2.129,1.496,3.438c3.607,0.452,6.472-1.353,6.472-1.353l2.966-6.672
		c0,0,20.488-22.195,20.488-26.292S213.123,101.217,207.913,99.803z"/>
	<path fill="#F5B27A" d="M203.233,149.521c0.066,0.253,0.129,0.507,0.19,0.761c0.479,1.974-0.097,2.386-1.373,3.84
		c-1.086,1.235-1.794,1.693-3.397,2.149c-1.472,0.419-2.993,0.661-4.521,0.717c-0.475,0.018-1.063-0.025-1.44-0.364
		c-0.083-0.075-0.748-1.017-0.419-1.084c-0.692,0.144-1.513-0.111-1.82-0.749c-0.374-0.773,0.127-1.667,0.611-2.377
		c-0.444,0.173-0.99,0.04-1.305-0.32c-0.312-0.36-0.368-0.918-0.134-1.334c0.099-0.175,0.242-0.325,0.316-0.512
		s0.051-0.439-0.125-0.537c-0.158-0.088-0.352-0.013-0.532-0.011c-0.372,0.002-0.68-0.331-0.776-0.691
		c-0.392-1.474,0.416-2.31,1.565-2.966c1.056-0.602,4.818-3.654,3.79-5.404c-0.254-0.43-0.555-0.831-0.896-1.194
		c-0.368-0.392-0.806-0.774-0.92-1.3c-0.107-0.49,0.104-1.009,0.443-1.378c0.656-0.712,1.26-0.816,2.007-0.25
		c0.829,0.63,1.646,1.28,2.45,1.944c0.513,0.423,1.021,0.853,1.522,1.289c0.708,0.612,1.443,1.046,1.94,1.863
		c0.613,1.01,0.923,2.184,1.335,3.283C202.313,146.413,202.826,147.952,203.233,149.521z"/>
	<path fill="#FFF2E3" d="M168.581,114.958c0,0,4.127-8.596,6.094-11.767c1.968-3.171,3.815-6.226,3.815-6.226
		s0.623-0.217,1.47-0.338c0.848-0.121,1.396-0.25,1.396-0.25s-2.317,3.729-3.446,6.377c-2.182,5.11-3.433,9.023-3.433,9.023
		L168.581,114.958z"/>
	<path fill="#FFF2E3" d="M202.217,116.083c0,0-0.518-5.969-2.237-11.574c-1.149-3.74-3.023-7.735-3.023-7.735
		s-0.531-0.162-0.9-0.263c-0.418-0.114-1.22-0.307-1.22-0.307s1.273,4.383,1.714,8.318c0.546,4.862,0.449,8.595,0.449,8.595
		L202.217,116.083z"/>
</g>
</svg>
