<?xml version="1.0" encoding="utf-8"?>
<!-- Generator: Adobe Illustrator 16.0.0, SVG Export Plug-In . SVG Version: 6.00 Build 0)  -->
<!DOCTYPE svg PUBLIC "-//W3C//DTD SVG 1.1//EN" "http://www.w3.org/Graphics/SVG/1.1/DTD/svg11.dtd">
<svg version="1.1" id="Layer_1" xmlns="http://www.w3.org/2000/svg" xmlns:xlink="http://www.w3.org/1999/xlink" x="0px" y="0px"
	 width="350px" height="350px" viewBox="0 0 350 350" enable-background="new 0 0 350 350" xml:space="preserve">
<g>
	<ellipse fill="#B7A99F" cx="154.414" cy="292.041" rx="103.26" ry="3.386"/>
	<g>
		<path fill="#351F10" d="M215.318,206.234l-15.969-45.401l46.963,26.379l-52.018-57.546l-50.962,11.297l-6.61,41.379
			l-29.131,17.214l34.428-9.269l6.402-21.004l0.593,47.958l8.899-1.497l8.699,65.045l-13.791,12.235l24.051-0.562l1.615-15.215
			c0,0,5.688-59.748,5.99-58.137c0.303,1.608,0.168,74.136,0.168,74.136l27.297-0.143l-17.938-17.282l15.047-68.7L215.318,206.234z"
			/>
		<polygon fill="#E2D4BF" points="150.415,133.187 181.512,189.766 182.396,126.078 		"/>
		<g>
			<path fill="#EABB98" d="M204.119,96.068c-0.398-5.412-3.891-9.565-7.795-9.278c-1.576,0.116-2.973,0.942-4.059,2.231
				c-7.072-7.327-20.902-10.426-35.422-7.006c-15.577,3.673-27.097,13.712-29.102,24.231c-2.279-1.23-4.728-1.413-6.632-0.244
				c-3.342,2.047-3.755,7.457-0.919,12.081c2.834,4.627,7.841,6.717,11.183,4.669c0.514-0.313,0.948-0.715,1.321-1.172
				c7.184,7.043,20.782,9.965,35.032,6.606c14.437-3.403,25.384-12.267,28.513-21.919c0.494,0.11,1.004,0.154,1.52,0.117
				C201.666,106.096,204.512,101.478,204.119,96.068z"/>
			<g>
				
					<ellipse transform="matrix(0.9973 0.0732 -0.0732 0.9973 7.9207 -10.7045)" fill="#351F10" cx="150.01" cy="102.715" rx="2.832" ry="3.069"/>
				<path fill="#351F10" d="M176.662,98.376c-0.125,1.689-1.489,2.968-3.049,2.854c-1.557-0.115-2.723-1.579-2.599-3.267
					c0.124-1.691,1.49-2.969,3.049-2.854C175.621,95.223,176.785,96.686,176.662,98.376z"/>
			</g>
			<path fill="#351F10" d="M127.609,110.648c0,0,4.156-19.395,27.654-26.427c23.5-7.031,42.744,14.079,42.744,14.079
				s-0.779-36.468-44.864-44.792C153.144,53.509,108.417,81.334,127.609,110.648z"/>
		</g>
		<path fill="#665E5A" d="M151.474,132.702l-12.106,9.333c0,0,19.092,40.375,41.486,47.28L151.474,132.702z"/>
		<path fill="#665E5A" d="M178.203,122.997l3.309,66.769c0,0,14.75-34.371,15.387-60.587L178.203,122.997z"/>
		<polygon fill="#FFFFFF" points="166.314,128.271 146.631,122.824 152.826,145.431 167.406,132.583 186.361,139.165 
			181.795,116.353 		"/>
	</g>
	<g>
		<path opacity="0.8" fill="#F7F2E8" d="M205.875,79.613c0,0-36.987,10.445-37.629,80.381c0,0,65.893,16.345,110.273-17.975
			c0,0-11.572-54.215-47.582-58.376L205.875,79.613z"/>
		<path fill="#EABB98" d="M232.824,136.561c6.146-2.17,11.197-5.569,14.438-9.649c2.111-0.167,4.576-2.61,5.953-6.132
			c1.637-4.198,1.102-8.325-1.189-9.216c-0.529-0.207-1.107-0.215-1.699-0.067c-3.469-9.722-16.945-16.348-32.543-15.307
			c-13.926,0.929-25.365,7.697-29.18,16.325c-0.813-0.566-1.674-0.816-2.5-0.635c-2.408,0.52-3.611,4.393-2.689,8.65
			c0.92,4.257,3.615,7.288,6.023,6.769c0.137-0.03,0.268-0.074,0.396-0.125c3.367,5.136,9.762,9.037,17.641,10.845l-66.779,52.271
			l68.152-38.343l22.592-4.162l38.512,51.429L232.824,136.561z"/>
		<path fill="#FFF7E9" d="M214.273,181.684l-6.924-32.292c0,0,8.506-4.887,11.688-5.155c3.529-0.298,13.723,3.459,13.723,3.459
			l-3.25,32.823L214.273,181.684z"/>
		<path fill="#351F10" d="M231.57,82.819c3.203-4.314,16.467-24.212-9.059-27.055c-25.59-2.851-18.285,20.389-16.787,24.539
			c-28.174,4.924-20.066,35.167-20.066,35.167s21.176,0.41,30.807-19.194c0,0,8.084,20.064,33.592,19.82
			C250.057,116.095,252.24,91.707,231.57,82.819z"/>
		
			<ellipse transform="matrix(0.9978 -0.0666 0.0666 0.9978 -7.2295 13.9097)" fill="#351F10" cx="205.047" cy="115.406" rx="2.831" ry="3.07"/>
		<path fill="#351F10" d="M231.936,114.98c0.111,1.69-1.063,3.147-2.623,3.251c-1.559,0.104-2.916-1.183-3.027-2.875
			c-0.115-1.691,1.061-3.147,2.619-3.251C230.463,112.001,231.822,113.289,231.936,114.98z"/>
		<path fill="#FFFFFF" d="M233.105,82.011c1.445-1.073,5.85-5.186,3.18-6.999c-2.094-1.425-6.992,3.283-6.598,4.978
			c-0.111-2.219-1.215-7.246-4.123-5.328c-2.047,1.35-0.684,7.126,0.797,8.773c-1.697-2.374-7.717-1.702-8.039,0.898
			c-0.559,4.527,6.332,4.242,8.939,2.486c-1.684,2.276-4.189,6.024-1.422,7.727c0.271,0.166,2.928,0.006,3.246-0.193
			c0.822-0.513,1.502-1.886,1.74-3.146c0.387,2.036,1.484,4.331,3.334,3.994c3.762-0.686,1.928-7.768,0.414-9.342
			c1.973,1.574,5.43,1.113,5.791-1.323C240.982,80.373,235.561,80.074,233.105,82.011z"/>
		<path fill="#FFF7E9" d="M168.019,289.178c0,0,8.698-114.865,58.769-109.128c50.068,5.733,72.059,94.205,72.059,94.205
			S250.932,311.955,168.019,289.178z"/>
	</g>
	<g>
		<g>
			<path fill="#EABB98" d="M83.096,229.35c0,0.365,0.296,0.662,0.662,0.662l0,0c0.366,0,0.662-0.297,0.662-0.662v-1.324
				c0-0.367-0.296-0.662-0.662-0.662l0,0c-0.366,0-0.662,0.295-0.662,0.662V229.35z"/>
			<path fill="#FFF7E9" d="M134.074,224.716v-20.809c0-10.447-5.928-18.916-13.241-18.916H73.165
				c-7.313,0-13.241,8.469-13.241,18.916v20.809H134.074z"/>
			<path fill="#FFFAF3" d="M121.495,184.991v-14.565c0-7.313-3.916-13.241-8.749-13.241H81.252c-4.832,0-8.749,5.928-8.749,13.241
				v14.565H121.495z"/>
			<path fill="#FFF7E9" d="M110.24,158.508v-14.565c0-7.313-2.116-13.242-4.729-13.242H88.486c-2.611,0-4.729,5.928-4.729,13.242
				v14.565H110.24z"/>
		</g>
		<polygon fill="#351F10" points="140.033,236.633 140.033,224.716 53.965,224.716 53.965,236.633 93.026,236.633 93.026,282.977 
			74.489,282.977 70.517,289.598 123.481,289.598 119.509,282.977 100.972,282.977 100.972,236.633 		"/>
	</g>
</g>
</svg>
