<?xml version="1.0" encoding="utf-8"?>
<!-- Generator: Adobe Illustrator 16.0.0, SVG Export Plug-In . SVG Version: 6.00 Build 0)  -->
<!DOCTYPE svg PUBLIC "-//W3C//DTD SVG 1.1//EN" "http://www.w3.org/Graphics/SVG/1.1/DTD/svg11.dtd">
<svg version="1.1" id="Layer_1" xmlns="http://www.w3.org/2000/svg" xmlns:xlink="http://www.w3.org/1999/xlink" x="0px" y="0px"
	 width="350px" height="350px" viewBox="0 0 350 350" enable-background="new 0 0 350 350" xml:space="preserve">
<g id="XMLID_6_">
	<path id="XMLID_417_" fill="#414042" d="M160.514,46.796c0.062-0.071-0.018-0.205-0.11-0.16c-1.469,0.725-3.11,2.549-4.009,4.114
		c-0.026-2.145-1.022-5.209-1.855-7.048c-0.056-0.123-0.251-0.095-0.239,0.051c0.212,2.757,0.392,5.882,0.333,8.642
		c-0.028,1.351-0.776,2.391-0.943,3.69c-0.201,1.568,0.223,3.3,0.951,4.656c0.125,0.233,0.425,0.087,0.485-0.106
		c0.357-1.167,0.039-2.349-0.213-3.523c1.202-1.238,1.873-2.157,2.255-4.085c0.247-1.244,0.787-2.356,1.517-3.393
		c0.171-0.243,1.951-2.377,1.703-2.786c0.017,0.027,0.057,0.026,0.076,0.004C160.483,46.832,160.499,46.814,160.514,46.796z
		 M154.742,56.183c-0.099-0.703-0.105-1.402,0.147-2.091c0.21-0.57,0.508-0.93,0.787-1.274c-0.151,0.956-0.189,1.945-0.583,2.818
		C155.005,55.827,154.877,56.005,154.742,56.183z"/>
	<path id="XMLID_421_" fill="#414042" d="M150.728,73.35c1.198,0.8,4.287,0.952,5.652,0.99c2.078,0.059,4.938,0.153,6.834-0.863
		c1.75-0.938,2.491-2.894,3.888-4.202c0.251-0.236-0.125-0.603-0.394-0.433c-1.024,0.645-1.912,1.544-2.911,2.242
		c-2.011,1.404-4.356,1.785-6.794,1.741c-1.211-0.022-3.1-0.115-4.271-0.506c-1.261-0.422-1.061,0.476-1.646-1.747
		c-0.089-0.337-0.122-1.437-0.208-1.82c-0.031-0.136-0.208-0.081-0.238,0.021C150.224,70.135,149.172,72.312,150.728,73.35z"/>
	<path id="XMLID_422_" fill="#414042" d="M140.929,57.294c-0.57,0.104-1.099,0.368-1.661,0.52c-0.701,0.191-1.425,0.321-2.141,0.448
		c-0.133,0.024-0.17,0.25-0.011,0.258c1.246,0.071,2.902-0.091,3.956-0.826C141.24,57.577,141.154,57.253,140.929,57.294z"/>
	<path id="XMLID_423_" fill="#414042" d="M138.669,58.856c-0.444,0.142-0.881,0.31-1.319,0.471
		c-0.265,0.097-0.117,0.459,0.143,0.401c0.43-0.096,0.863-0.183,1.289-0.296c0.378-0.101,0.817-0.156,1.125-0.409
		c0.14-0.117,0.123-0.385-0.089-0.411C139.418,58.565,139.044,58.736,138.669,58.856z"/>
	<path id="XMLID_424_" fill="#414042" d="M155.229,40.734c-1.457,0.662-2.303,2.034-3.88,2.549c-1.855,0.606-3.494,0.189-5.367,0.09
		c-0.175-0.009-0.279,0.182-0.146,0.313c1.367,1.33,3.692,1.375,5.46,1.012c1.843-0.378,4.272-1.229,4.831-3.208
		C156.26,41.015,155.67,40.533,155.229,40.734z"/>
	<path id="XMLID_427_" fill="#414042" d="M158.383,47.151c2.667-3.809,6.817-3.615,10.921-3.001
		c1.015,0.151,3.173,0.313,5.303,0.594c-2.68,0.057-5.361,0.133-8.033,0.321c-0.136,0.009-0.112,0.2,0.017,0.205
		c3.527,0.132,7.206-0.292,10.74-0.069c1.283,0.281,2.312,0.642,2.701,1.119c0.197,0.243,0.705,0.226,0.732-0.16
		c0.003-0.047,0.001-0.089,0.003-0.136c2.646,1.274,5.617,3.974,6.952,6.721c-0.323-0.417-1.033-0.293-1.296,0.175
		c-0.02,0.035-0.035,0.068-0.054,0.103c-1.027-1.614-2.045-3.234-3.063-4.852c-0.29-0.462-0.926-0.142-0.925,0.33
		c0.001,0.301,0.02,0.595,0.034,0.891c-2.453-1.72-5.315-2.967-7.191-3.472c-0.314-0.085-0.563,0.337-0.376,0.585
		c0.26,0.344,0.519,0.69,0.778,1.034c-1.236-0.517-2.544-0.897-3.909-1.106c-0.436-0.067-0.694,0.464-0.462,0.761
		c-1.518,5.695,5.314,6.633,9.597,9.006c0.554,0.92,1.073,1.867,1.573,2.824c-0.126-0.089-0.289-0.115-0.44-0.004
		c-0.328,0.237-0.597,0.491-0.838,0.752c-0.236-0.162-0.48-0.311-0.732-0.444c-0.163-0.118-0.351-0.205-0.55-0.277
		c-1.176-0.518-2.483-0.82-3.837-1.173c-5.098-1.327-8.533-5.034-8.415-10.507c0.002-0.085-0.143-0.093-0.149-0.007
		c-0.216,3.046,0.77,5.937,2.981,8.1c1.146,1.12,2.462,1.839,3.978,2.357c1.009,0.344,2.073,0.514,3.098,0.805
		c0.226,0.052,0.44,0.13,0.662,0.196c-0.214,0.003-0.42,0.012-0.604,0.026c-1.176,0.094-2.82,0.347-3.052,1.748
		c-0.226-0.082-0.492-0.094-0.793-0.032c-0.001-0.004,0-0.008,0-0.012c-0.637-3.648-5.147,0.421-6.153-2.689
		c-0.471-1.453,0.027-3.561-0.237-5.126c-0.292-1.732-0.822-3.389-1.568-4.979c-0.067-0.142-0.288-0.07-0.233,0.083
		c0.721,2.027,1.273,4.073,1.44,6.225c0.12,1.554-0.375,3.257-0.044,4.779c0.737,3.393,3.883,0.592,5.748,2.25
		c0.269,0.24,0.705,0.15,0.922-0.106c0.002,0.001,0.003,0.003,0.005,0.004c2.099,0.607,0.622,2.681-0.299,3.601
		c-0.444,0.443-2.299,2.768-2.931,2.59c-0.364-0.103-0.504,0.453-0.19,0.611c0.906,0.457,1.773-0.236,2.433-0.849
		c0.939-0.874,2.099-1.871,2.698-3.021c0.201-0.387,0.293-0.896,0.274-1.403c0.336,0.169,0.711,0.28,1.089,0.328
		c-0.311,0.648-0.428,1.404-0.277,2.169c0.036,0.183,0.097,0.355,0.164,0.525c-1.255,1.31-2.872,2.431-3.632,3.233
		c-1.009,1.065-1.935,2.31-2.09,3.811c-0.099,0.95,0.132,1.576,0.479,2.405c0.231,0.552,0.755,0.847,1.042,1.354
		c0.374,0.661,0.663,1.257,0.895,1.796c0.017,1.48,0.007,2.943-0.234,4.322c-0.021,0.121,0.049,0.224,0.142,0.291
		c-0.601,1.262-1.117,2.933,0.263,3.776c0.672,0.412,1.397,0.243,1.992-0.173c-0.104-0.296-0.26-1.163-0.484-2.85
		c-0.014-0.106,0.276-0.496,0.626-0.923c0.05,1.586,0.074,3.113,0.004,3.667c0.42-0.335,0.763-0.789,0.942-1.248
		c0.382-0.979,0.22-2.202-0.083-3.43c0.185-0.209,0.314-0.355,0.322-0.367c0.34-0.528,0.665-1.096,0.934-1.688
		c0.359,1.485,0.846,3.337,0.62,4.115c-0.162,0.154-0.318,0.312-0.49,0.458c-0.605,0.514-0.391,1.774,0.577,1.617
		c1.694-0.275,2.312-1.221,2.38-2.463c1.256-1.826,2.042-3.847,2.302-5.912c0.965,1.727,1.891,3.462,1.779,5.582
		c-0.061,1.147,1.363,1.682,1.954,0.608c0.452-0.823,0.745-1.62,0.908-2.397c-0.002,0.03-0.003,0.06-0.006,0.09
		c-0.048,0.571,0.758,1.144,1.154,0.538c0.468-0.715,0.574-1.296,0.47-1.847c1.368,2.882,7.637,12.635,3.772,14.67
		c-0.219,0.116-0.329,0.421-0.31,0.653c0.546,6.263,0.761,12.342,2.454,18.445c0.045,0.164,0.328,0.105,0.292-0.063
		c-1.033-4.894-2.026-10.072-1.63-15.099c0.206-2.621,2.088-4.034,1.956-6.622c-0.161-3.141-2.113-6.222-3.513-8.962
		c-1.08-2.114-2.22-4.232-3.005-6.481c-0.094-2.034-0.472-4.056-1.097-5.996c0.162-0.224,0.481-0.155,1.036,0.393
		c0.05,0.049,0.133-0.027,0.092-0.082c-0.48-0.601-0.909-1.236-1.286-1.907c-0.104-0.167-0.303-0.168-0.448-0.08
		c-0.03-0.073-0.056-0.149-0.086-0.222c-0.043-0.104-0.104-0.211-0.156-0.315c0.187-0.055,0.344-0.237,0.27-0.479
		c-0.015-0.044-0.054-0.189-0.113-0.401c0.609-0.355,1.207-0.725,1.792-1.11c-0.1,0.057-0.198,0.125-0.297,0.203
		c-0.244,0.194-0.37,0.503-0.263,0.808c0.179,0.502,0.329,0.599,0.849,0.725c0.203,0.048,0.416-0.088,0.503-0.265
		c0.031-0.062,0.063-0.125,0.094-0.187c0.145-0.292-0.173-0.644-0.479-0.523c1.647-0.653,4.07,9.122,4.305,10.41
		c0.524,2.888,0.757,5.795,1.44,8.649c1.552,6.479,1.505,13.339,1.705,19.975c0.354,11.788,0.748,23.685,3.741,35.158
		c2.829,10.843,8.393,19.458,15.131,28.252c3.612,4.714,7.166,9.523,9.504,15.022c1.246,2.93,2.146,6.004,2.863,9.103
		c0.412,1.777,1.164,3.82,0.654,5.604c-0.716,2.505-3.793,4.323-6.304,2.939c-0.675-0.373-1.404,0.546-0.964,1.144
		c2.529,3.433,6.99,1.208,8.322-2.217c0.86-2.215,0.074-3.77-0.484-6.225c-0.945-4.154-2.07-8.236-3.89-12.104
		c-2.854-6.072-7.136-11.283-11.189-16.575c-4.783-6.241-8.844-12.676-11.38-20.183c-5.246-15.523-4.934-32.304-5.363-48.483
		c-0.205-7.718,0.411-15.646-1.693-23.168c-0.528-1.89-3.675-9.883-6.799-8.069c0.063-0.042,0.13-0.082,0.193-0.124
		c0.554-0.184,0.929-0.456,1.362-0.951c0.094-0.107,0.113-0.233,0.09-0.354c0.078-0.019,0.15-0.045,0.227-0.068
		c0.396-0.07,0.756-0.066,1.084,0.004c0.465,0.523,1.087,0.961,1.806,1.338c0.612,0.896,1.031,2.118,1.373,3.35
		c0.085,3.088,0.952,6.026,1.946,9.109c1.027,3.185,2.158,6.345,3.348,9.481c1.146,6.316,2.291,12.633,3.498,18.937
		c2.747,14.352,5.47,28.949,10.188,42.81c4.235,12.446,11.091,21.874,20.447,30.945c4.882,4.733,10.666,9.798,13.37,16.193
		c3.26,7.716-2.396,16.974-6.313,23.652c-0.423,0.72,0.775,1.493,1.252,0.795c3.194-4.675,6.492-9.397,8.211-14.868
		c1.681-5.345-1.083-9.283-4.036-13.579c-6.713-9.766-16.951-16.391-23.654-26.161c-7.805-11.378-11.089-25.36-14.164-38.609
		c-2.739-11.8-4.924-23.713-7.05-35.636c0.186,0.462,0.366,0.927,0.554,1.389c1.953,4.79,5.087,9.724,5.937,14.845
		c0.795,4.786-0.65,9.571,0.479,14.351c0.089,0.379,0.652,0.218,0.639-0.138c-0.183-4.747,2.255-9.12,1.863-13.845
		c-0.382-4.598-3.217-8.973-5.032-13.126c-0.577-1.32-1.145-2.644-1.708-3.97c0.021-0.006,0.042-0.008,0.063-0.019
		c1.998-1.047,2.963-3.265,2.41-5.512c-0.553-2.243-1.686-3.938-1.28-6.433c0.352-2.166,1.419-4.215,1.948-6.333
		c0.679-2.717,0.634-4.715-1.897-6.238c-1.925-1.156-4.845-1.523-6.969-2.168c-1.183-0.36-2.425-0.658-3.587-1.105
		c-0.653-0.691-1.426-1.203-2.234-1.452c-0.245-0.199-0.482-0.391-0.697-0.556c-0.027-0.116-0.063-0.233-0.109-0.352
		c0.03-0.074,0.039-0.156,0.014-0.24c-0.024-0.081-0.049-0.163-0.073-0.245c-0.048-0.162-0.208-0.275-0.374-0.303
		c-0.29-0.4-0.662-0.771-1.067-1.067c0.756-0.293,1.525-0.599,2.309-0.97c1.816-0.861,2.912-2.184,2.971-4.208
		c0.024-0.847-0.986-1.052-1.573-0.745c-1.41,0.738-3.627,0.902-5.738,1.262c1.363-3.581-2.059-7.896-4.979-9.792
		c-1.221-0.793-2.507-0.938-3.857-0.935c-0.258-0.59-0.751-1.038-1.568-1.378c-0.563-0.234-1.301-0.193-1.901-0.244
		c-2.481-0.208-5.001-0.242-7.496-0.471c-4.284-0.396-9.391,0.122-11.389,4.519C158.15,47.143,158.31,47.255,158.383,47.151z
		 M183.886,59.876c0.039,0.038,0.082,0.068,0.13,0.09c0,0.007,0.002,0.014,0.004,0.022c-0.032-0.015-0.064-0.029-0.097-0.04
		C183.911,59.924,183.897,59.901,183.886,59.876z M183.725,59.563c-0.349-0.702-0.698-1.405-1.07-2.093
		c0.509,0.477,0.891,1.025,1.135,1.651c-0.022,0.111-0.059,0.208-0.074,0.326C183.71,59.485,183.721,59.524,183.725,59.563z
		 M182.952,65.644c0.262,1.447,0.521,2.896,0.793,4.343c-0.408-0.682-0.796-1.367-1.136-2.059
		C182.769,67.245,182.905,66.449,182.952,65.644z M185.221,63.352c0.128,0.193,0.255,0.389,0.368,0.562
		c0.417,0.633,0.677,1.507,0.902,2.368c-0.028,0.145-0.045,0.266-0.047,0.379c-0.753-1.09-1.589-2.203-1.928-3.202
		C184.753,63.478,184.995,63.443,185.221,63.352z M186.652,64.463c0.169,0.076,0.346,0.147,0.538,0.208
		c-0.094,0.171-0.194,0.34-0.289,0.511C186.822,64.948,186.74,64.708,186.652,64.463z M186.975,62.824
		c0.013-0.018,0.024-0.037,0.037-0.055c0.369-0.008,0.585,0.293,0.506,0.947C187.301,63.496,187.117,63.204,186.975,62.824z
		 M184.755,52.56c0.248,0.417,0.488,0.839,0.734,1.256c0.072,0.314,0.137,0.603,0.196,0.876c-0.162,0.613-0.219,1.242-0.202,1.931
		c-0.021,0.014-0.047,0.026-0.068,0.042c-0.039-0.074-0.077-0.145-0.118-0.229c-0.498-0.91-0.902-1.86-1.212-2.847
		c-0.246-0.784-0.404-1.558-0.512-2.337C184.016,51.672,184.417,52.111,184.755,52.56z M176.936,47.198
		c0.634,0.224,1.251,0.483,1.854,0.78c1.081,0.532,2.451,1.353,3.693,2.333c0.124,1.282,0.374,2.517,0.769,3.706
		c-1.509-2.432-3.632-4.417-6.15-5.774c-0.04-0.068-0.094-0.137-0.13-0.205C175.921,47.113,175.909,46.832,176.936,47.198z
		 M176.865,49.184c0.471,0.627,0.941,1.255,1.412,1.882c-0.865-0.951-1.813-1.824-2.864-2.59
		C175.911,48.688,176.397,48.923,176.865,49.184z M171.431,47.329c0.003,0.001,0.005,0.004,0.007,0.005
		c4.023,1.653,6.774,4.667,8.975,8.145C176.193,53.431,170.634,52.42,171.431,47.329z M179.221,50.979
		c-0.124-0.163-0.271-0.337-0.414-0.51c2.053,1.596,3.684,3.703,4.744,6.158C182.106,54.745,180.662,52.864,179.221,50.979z
		 M181.186,54.934c0.451,0.602,0.904,1.203,1.355,1.805c-0.154-0.116-0.315-0.228-0.48-0.336
		C181.776,55.906,181.488,55.415,181.186,54.934z M183.01,60.167c-0.063,0.056-0.126,0.117-0.188,0.191
		c-0.056-0.296-0.111-0.592-0.167-0.889C182.774,59.701,182.893,59.934,183.01,60.167z M179.294,66.211
		c0.106-0.086,0.213-0.174,0.319-0.26c0.137,0.049,0.262,0.092,0.415,0.151c0.287-0.045,0.534-0.064,0.761-0.071
		c0.166,0.392,0.34,0.776,0.525,1.152c0,0.556-0.033,1.122-0.135,1.707c-0.019,0.101-0.047,0.19-0.067,0.288
		c-0.278-0.416-0.578-0.825-0.916-1.223c-0.16-0.189-0.923-0.965-1.233-1.296C179.078,66.513,179.188,66.364,179.294,66.211z
		 M175.352,78.875c-0.104,0.464-0.396,0.969-0.724,1.468c0.134-0.811,0.022-1.656-0.396-2.617c-0.04-0.093-0.093-0.179-0.145-0.265
		c-0.035-1.663-0.186-3.339,0.091-4.967c0.071,0.269,0.149,0.547,0.229,0.878c0.213,0.888,0.585,1.911,0.822,2.943
		c0.044,0.73,0.106,1.471,0.167,2.229C175.382,78.654,175.376,78.767,175.352,78.875z M174.061,70.486
		c-0.734,1.861-0.823,3.912-0.812,5.981c-0.442-0.428-0.904-0.837-1.174-1.331c-2.134-3.893,1.377-6.033,3.514-7.997
		c0.404-0.372,0.799-0.787,1.16-1.229c0.02,0.037,0.038,0.074,0.059,0.11C175.648,67.388,174.374,68.755,174.061,70.486z
		 M178.265,74.962c-0.057,0.114-0.111,0.229-0.167,0.344c-0.662-2.113-2.353-3.515-0.778-6.435c0.244-0.455,0.531-0.846,0.828-1.217
		c0.519,0.515,1.051,1.011,1.445,1.54c0.388,0.518,0.713,1.062,0.994,1.619C179.957,72.25,179.029,73.426,178.265,74.962z
		 M180.44,80.865c-0.513-1.915-1.337-3.864-0.554-5.867c0.319-0.817,0.85-1.545,1.262-2.326c0.102,0.678,0.294,1.322,0.546,1.941
		C181.906,76.759,181.48,78.938,180.44,80.865z M181.93,61.901c-0.009-0.146-0.027-0.288-0.053-0.427
		c0.053-0.241,0.102-0.383,0.148-0.43c0.046,0.054,0.089,0.11,0.134,0.166c0.018,0.07,0.036,0.162,0.054,0.273
		c-0.079,0.037-0.127,0.125-0.069,0.228c0.021,0.039,0.042,0.077,0.063,0.116c-0.003,0.147,0.006,0.297,0.034,0.447
		C182.148,62.142,182.045,62.018,181.93,61.901z M185.849,79.695c-0.272-0.533-0.584-1.063-0.935-1.621
		c-0.736-1.176-1.33-2.218-1.779-3.242c-0.103-1.188-0.385-2.37-0.865-3.518c-0.033-0.665-0.004-1.365,0.108-2.124
		c0.831,1.472,1.689,2.883,2.362,4.319c0.168,0.407,0.357,0.854,0.56,1.325C185.856,76.357,186.112,77.946,185.849,79.695z
		 M187.427,76.829c-0.471-1.458-1.248-2.866-2.096-4.261c-0.405-1.246-0.705-2.575-0.99-4.099l-0.694-3.707
		c0.439,0.55,0.871,1.05,1.115,1.453c1.296,2.129,2.113,4.364,2.578,6.672c0.063,0.686,0.172,1.366,0.316,2.04
		c0.094,0.813,0.156,1.634,0.178,2.462C187.695,77.201,187.555,77.014,187.427,76.829z M188.579,65.997
		c-0.544,0.444-1.029,0.799-1.131,0.738c-0.032-0.02-0.052-0.044-0.079-0.065c-0.078-0.262-0.169-0.56-0.271-0.88
		c0.075-0.338,0.264-0.701,0.445-1.023c0.384,0.098,0.795,0.166,1.217,0.201c-0.088,0.152-0.168,0.323-0.24,0.54
		C188.458,65.697,188.496,65.863,188.579,65.997z M204.099,80.346c0.087,0.952,0.302,1.811,0.575,2.673
		c-2.61-3.308-4.538-6.861-6.221-10.68c-0.1-0.643-0.173-1.297-0.25-1.952c1.723,2.993,3.734,5.845,5.995,8.379
		C204.104,79.327,204.054,79.862,204.099,80.346z M205.011,91.384c-1.261-2.986-2.482-5.988-3.638-9.018
		c-0.386-1.012-0.784-2.029-1.181-3.051c-0.157-0.822-0.33-1.635-0.53-2.438c1.514,2.926,3.43,5.662,5.544,8.101
		c0.066,0.075,0.146,0.112,0.227,0.133C206.432,87.547,207.326,89.136,205.011,91.384z M204.484,69.628
		c2.227,1.721,0.59,5.288-0.117,8.305c-2.302-3.042-4.447-6.089-6.414-9.314c-0.071-0.405-0.162-0.805-0.27-1.198
		C200.421,68.195,203.278,68.697,204.484,69.628z M191.465,61.904c-0.026,0.208-0.037,0.408-0.033,0.6
		c-0.045,0.146-0.112,0.287-0.203,0.422c-0.418,0.208-0.818,0.514-1.189,0.938c-0.234,0.099-0.479,0.171-0.722,0.201
		c-0.544,0.161-1.005,0.143-1.389-0.045c0.318-0.956,0.325-1.563-0.249-2.37c0.735-0.421,1.489-0.76,2.259-1.072
		c0.239,0.067,0.487,0.178,0.745,0.346C191.149,61.226,191.39,61.564,191.465,61.904z M193.07,56.733
		c-1.527,0.784-3.736,1.037-4.963,1.627c-0.313,0.151-0.609,0.321-0.905,0.491c0.024-0.312,0.039-0.604,0.053-0.984
		c0.006-0.153-0.044-0.278-0.114-0.39c0.024-0.073,0.037-0.154,0.039-0.241c1.33-0.351,2.914-0.23,4.228-0.295
		C191.981,56.914,192.529,56.834,193.07,56.733z M188.424,55.519c-0.057,0.012-0.109,0.028-0.165,0.04
		c-0.009-0.86-0.139-1.627-0.397-2.508C188.229,53.888,188.432,54.721,188.424,55.519z"/>
	<path id="XMLID_455_" fill="#414042" d="M175.576,86.253c-0.047,0.038-0.097,0.071-0.146,0.106
		C175.5,86.556,175.546,86.49,175.576,86.253z"/>
	<path id="XMLID_456_" fill="#414042" d="M145.057,151.747c-0.232,0.086-0.106,0.44,0.129,0.362
		c8.801-2.908,17.823,0.743,26.706,0.989c7.329,0.204,15.13-1.987,21.665-5.243c0.149,0.12,0.371,0.144,0.519-0.045
		c2.471-3.193,3.102-6.682,2.859-10.639c-0.367-5.991-1.277-11.978-1.968-17.939c-1.177-10.172-1.322-22.378-8.339-30.604
		c-0.014-0.017-0.047-0.005-0.036,0.019c2.083,4.69,4.029,8.688,4.808,13.853c0.756,5.02,0.913,10.156,1.361,15.21
		c0.427,4.806,0.849,9.612,1.312,14.415c0.467,4.847,1.392,10.226-0.475,14.86c-0.025,0.002-0.047-0.001-0.074,0.006
		c-4.142,1.061-8.093,2.765-12.272,3.728c-5.189,1.195-10.227,1.107-15.484,0.447C158.557,150.257,152.03,149.152,145.057,151.747z"
		/>
	<path id="XMLID_457_" fill="#414042" d="M157.039,142.447c10.065,1.448,20.872-2.127,30.581-4.406
		c0.207-0.049,0.104-0.326-0.072-0.333c-1.303-0.053-2.601-0.02-3.892,0.078c0.06-0.065,0.096-0.154,0.071-0.26
		c-2.2-9.65-2.496-21.872-9.311-29.655c-0.032-0.037-0.108-0.011-0.084,0.043c0.83,1.966,1.439,3.979,1.976,6.012
		c-2.398-1.882-5.02-3.982-7.756-4.703c-3.445-0.907-6.359,1.083-8.934,3.105c-0.057,0.044,0.001,0.126,0.062,0.091
		c1.326-0.766,2.743-1.646,4.222-2.082c2.945-0.868,4.305-0.049,6.509,1.477c2.279,1.58,4.429,3.428,6.647,5.104
		c0.399,1.661,0.79,3.328,1.247,4.988c1.461,5.311,3.391,10.499,4.904,15.802c0.015,0.049,0.038,0.085,0.065,0.113
		c-8.769,0.748-17.307,4.391-26.225,4.365C156.901,142.188,156.893,142.426,157.039,142.447z"/>
	<path id="XMLID_460_" fill="#414042" d="M137.509,187.755c0.408-0.136,0.442-0.557,0.269-0.844c0.122,0.002,0.251-0.045,0.3-0.167
		c0.01-0.026,0.017-0.052,0.027-0.079c0.027,0.008,0.054,0.015,0.082,0.021c0.126,0.034,0.286-0.057,0.334-0.176
		c2.023-4.957,1.786-11.063,2.282-16.344c0.048-0.512,0.096-1.022,0.144-1.532c0.011,0.432,0.023,0.864,0.033,1.295
		c0.085,3.531-0.655,8.194,0.927,11.513c1.266,2.653,3.787,3.078,6.397,3.839c2.004,0.585,3.991,1.242,5.999,1.815
		c2.408,0.688,1.359,0.54,3.925-0.691c0.391-0.188,0.199-0.789-0.229-0.647c-3.345,1.109-7.58-1.71-10.573-2.919
		c-1.472-0.595-2.497-0.89-3.656-2.073c-1.66-1.695-1.639-3.507-1.78-5.778c-0.313-5.035-0.392-10.082-0.674-15.118
		c-0.019-0.417-0.041-0.835-0.076-1.253c-0.069-1.087-0.146-2.174-0.242-3.26c-0.012-0.135-0.202-0.112-0.205,0.017
		c-0.001,0.033,0,0.067-0.001,0.1c-0.022-0.11-0.035-0.22-0.058-0.33c-0.024-0.112-0.1-0.167-0.187-0.199
		c-0.051-0.132-0.185-0.235-0.349-0.185c-0.882,0.273-2.884-0.564-3.901-0.57c-2.255-0.014-4.568,0.738-6.845,0.804
		c-2.937,0.083-5.959,0.283-8.119-1.735c-1.299-1.215-1.423-2.132-1.598-3.359c0.506,0.174,1.001,0.33,1.407,0.494
		c1.143,0.463,2.467,1.181,3.724,1.273c1.579,0.116,3.34-1.354,3.34-2.939c0-0.156,0.005-0.352,0.005-0.558
		c1.966,0.422,4.566,0.384,6.932,0.166c0.309,1.566,1.262,2.198,3.001,2.105c3.783-0.201,7.284-0.789,10.679-2.613
		c1.499-0.806,2.509-2.06,2.583-3.692c0.338,0.101,0.712,0.128,1.104,0.062c1.407-0.238,1.792-1.63,2.131-2.848
		c0.574-2.068,0.915-4.223,0.943-6.372c0.032-2.415-0.559-3.344-1.625-5.326c-0.019-0.034-0.049-0.044-0.073-0.068
		c0.297-2.234,0.413-4.641-1.557-5.989c-0.233-0.16-0.585-0.244-0.831-0.042c-0.08,0.065-0.136,0.139-0.208,0.207
		c-0.994-0.071-1.974,0.083-2.91,0.393c0.217-0.302,0.536-0.748,0.688-1.196c1.261-1.505-2.216-3.456-2.985-4.102
		c-1.41-1.186-2.792-2.436-4.261-3.548c-0.295-0.224-0.602-0.411-0.915-0.581c-0.043-0.098-0.098-0.198-0.171-0.299
		c-0.185-0.254-0.375-0.508-0.565-0.763c0.058-0.098,0.095-0.207,0.086-0.327c-0.049-0.65-0.129-1.316-0.221-1.988
		c0.428-2.394,1.576-4.349,3.269-6.179c1.046-1.13,3.375-2.292,3.97-3.838c0.385-1.001-0.222-2.575-0.565-3.504
		c-0.372-1.003-3.501-7.283-0.256-6.154c0.373,0.13,0.92-0.106,0.831-0.584c-1.118-6.027-4.151-11.953-7.572-17.203
		c3.47,1.624,7.021,2.047,10.761,3.138c0.902,0.263,1.589,0.616,2.141,1.029c0.346,2.319,1.251,10.088,1.461,14.212
		c-0.143,1.177-0.342,2.358-0.643,3.549c-0.025,0.102,0.012,0.177,0.073,0.225c0.092,1.224,1.453,1.544,2.445,1.358
		c0.021-0.003,0.041-0.011,0.061-0.015c-0.779,0.794-1.367,1.814-0.563,2.648c0.301,0.312,0.652,0.473,1.03,0.536
		c-0.393,0.355-0.707,0.752-0.883,1.204c-0.351,0.903,0.035,1.933,1.054,2.156c0.442,0.097,0.872,0.017,1.288-0.145
		c-1.34,1.021-3.206,2.073-4.049,3.393c-0.105,0.165-0.103,0.331,0.04,0.475c0.812,0.815,3.249,0.62,3.894-0.366
		c0.36-0.549-0.453-1.066-0.758-0.481c0.2-0.382-2.451,0.894-2.536,0.396c0.019,0.106,1.303-0.895,1.347-0.931
		c1.022-0.854,2.053-1.698,3.048-2.584c1.617-1.442,3.028-2.967,4.189-4.769c-0.002,0.011-0.006,0.022-0.01,0.033
		c-0.023,0.096,0.137,0.148,0.169,0.052c0.168-0.502,0.365-0.989,0.58-1.465c0.127-0.143,0.248-0.288,0.366-0.438
		c-2.178,4.678-4.723,9.07-7.68,13.546c-0.1,0.151,0.093,0.328,0.22,0.186c2.532-2.841,6.037-5.804,7.904-9.127
		c1.672-2.979,2.178-6.401,2.459-9.781c0.069-0.256,0.134-0.513,0.186-0.771c0.424,1.268,0.84,2.532,1.253,3.779
		c0.097,0.292,0.513,0.178,0.505-0.109c-0.172-7.216-3.138-12.596-7.72-18.099c-0.072-0.087-0.207,0.001-0.147,0.101
		c1.84,3.057,3.273,6.413,4.535,9.831c-0.117,0.028-0.23,0.077-0.333,0.156c-1.557,1.206-3.022,1.476-4.788,2.222
		c-1.59,0.671-3.021,1.604-4.427,2.599c-0.326,0.231-0.374,0.644-0.182,0.976c0.341,0.586,0.716,1.035,1.112,1.382
		c-0.993-0.069-2.111,0.151-2.84,0.646c0.938-1.688,0.337-11.608-0.044-14.418c0.823,2.102,0.613,4.775,1.881,7.2
		c0.52,0.994,1.952-0.004,1.438-0.987c-1.757-3.362-0.246-7.864-3.958-10.157c-1.651-1.02-3.895-1.16-5.741-1.558
		c-0.583-0.125-1.158-0.26-1.728-0.403c0.495-0.157,0.95-0.45,1.334-0.972c0.179-0.243,1.724-4.103,1.247-4.202
		c0.032,0.006,0.058-0.022,0.056-0.052c-0.002-0.048-0.002-0.097-0.004-0.145c-0.004-0.132-0.199-0.199-0.279-0.089
		c-0.848,1.174-1.381,2.893-2.728,3.428c-1.553,0.619-3.413-0.295-4.951-0.997c-0.966-0.44-1.933-0.979-2.879-1.459
		c-1.624-0.823-2.096-2.061-3.288-3.23c-0.167-0.163-0.407,0.082-0.292,0.265c0.977,1.567,1.442,3.023,2.727,4.231
		c0.039,0.151,0.085,0.292,0.128,0.44c-0.537,0.182-1.061,0.485-1.649,0.782c-0.685,0.344-1.192,0.816-1.809,1.253
		c-0.302,0.214-0.565,0.364-0.762,0.569c-0.026-0.003-0.051-0.009-0.077-0.012c-0.556-0.708-1.249-0.67-2.464-1.061
		c-1.798-0.579-3.354-1.303-4.939-2.338c-0.793-0.473-1.536-1.016-2.228-1.627c-1.677-0.982-2.335-2.415-1.976-4.3
		c0.519,0.136,0.886-0.398,0.805-0.856c2.739-1.033,5.491-0.787,8.126-2.095c0.636,1.23,2.193,1.705,3.446,1.171
		c0.268-0.114,0.195-0.525-0.109-0.506c-1.639,0.106-1.357-2.366-1.106-3.304c0.287-1.072,0.614-2.088,0.88-3.148
		c0.035,0.013,0.066,0.031,0.101,0.045c-0.018,0.349,0.439,0.56,0.762,0.378c0.521,0.309,1.002,0.69,1.454,1.098
		c0.203,0.184,0.529-0.05,0.436-0.302c-0.104-0.279-0.232-0.526-0.372-0.76c0.191,0.007,0.383-0.077,0.489-0.304
		c0.006-0.013,0.013-0.024,0.019-0.037c0.2,0.179,0.515,0.233,0.765,0.094c0.027,0.006,0.057,0.007,0.085,0.01
		c-0.693,0.28-0.33,1.349,0.396,1.345c1.147-0.007,2.133,0.086,3.19-0.358c0.329-0.139,0.427-0.681,0.037-0.826
		c-0.181-0.067-0.358-0.116-0.533-0.158c1.71-0.782,3.555-1.654,4.085-3.153c0.399-1.127-0.044-2.698-0.03-3.849
		c0.023-1.886,0.955-3.432,1.125-5.244c0.011-0.12-0.108-0.197-0.213-0.136c-0.984,0.57-1.537,1.603-1.835,2.725
		c-0.23-0.176-0.569-0.201-0.85,0.091c-0.36,0.376-0.69,0.766-1.031,1.15c0.747-1.459,1.493-2.919,2.24-4.379
		c0.05-0.099,0.056-0.197,0.043-0.291c3.879,0.312,7.251-0.35,10.724-2.151c0.144-0.075,0.019-0.321-0.13-0.255
		c-2.143,0.943-4.253,1.411-6.564,1.784c-0.186,0.03-4.204,0.922-1.997,0.193c2.955-0.977,5.432-2.012,7.976-3.84
		c0.086-0.062,0.132-0.135,0.149-0.211c0.776,0.405,1.314,0.804,1.321,1.148c0.021,1.128,1.701,0.946,1.724-0.146
		c0.005-0.269,0.012-0.538,0.018-0.807c0.01-0.464-0.519-0.858-0.953-0.803c-4.579,0.57-10.138-3.395-13.906-5.579
		c-0.087-0.051-0.172,0.087-0.095,0.149c0.72,0.583,1.475,1.112,2.248,1.614c-2.846,0.866-5.552,1.999-8.085,3.569
		c-0.583,0.362-1.193,0.837-1.44,1.035c0.173-0.143,0.554-0.463,1.25-1.064c1.63-1.408,3.061-3.179,4.555-4.731
		c0.182-0.188-0.052-0.482-0.28-0.404c-2.435,0.832-4.712,1.844-6.891,3.224c-1.167,0.739-2.182,1.687-3.321,2.443
		c-0.04,0.026-0.063,0.037-0.101,0.06c-0.228-0.025-0.463-0.053-0.706-0.081c0.454-1.051,3.043-3.948,4.38-4.247
		c0.268-0.059,0.121-0.459-0.143-0.401c-2.647,0.586-4.295,2.213-4.841,4.579c-0.896-0.099-1.847-0.179-2.773-0.158
		c1.161-1.11,2.154-2.662,3.078-3.68c1.295-1.428,3.047-2.278,4.867-2.845c1.305-0.406,6.402-1.833,7.04,0.206
		c0.053,0.17,0.329,0.07,0.259-0.092c-1.138-2.661-7.49-0.819-9.394-0.055c-2.594,1.041-8.193,3.235-8.077,6.793
		c-0.676,0.212-1.287,0.543-1.78,1.047c-2.271,2.319-4.693,9.286-1.742,11.827c-0.402,1.699-0.353,3.365-0.163,5.048
		c-0.314,1.798-0.39,3.515,0.667,4.848c0.056,0.504,0.096,1.017,0.121,1.533c-0.089,0.04-0.171,0.096-0.235,0.178
		c-1.321,1.703-2.441,3.225-3.171,5.134c-0.092,0.013-0.179,0.062-0.228,0.167c-0.35,0.457-0.699,0.912-1.048,1.368
		c-0.184,0.147-0.286,0.354-0.295,0.563c-7.605,3.829-15.801,6.304-23.427,10.01c-0.081-0.043-0.188-0.039-0.249,0.039
		c-0.026,0.033-0.042,0.073-0.067,0.109c-0.009,0.004-0.02,0.008-0.029,0.013c-0.25,0.123-0.401,0.43-0.349,0.687
		c-0.201,0.478-0.35,0.988-0.53,1.454c-0.33,0.852-0.732,1.797-0.782,2.715c-0.025,0.478,0.506,0.997,0.97,0.622
		c0.754-0.607,1.14-1.624,1.208-2.576c0.03-0.415,0.068-0.87,0.08-1.327c0.987,0.476,2.575,0.71,3.003,0.832
		c1.08,0.309,2.602,0.731,3.505,1.479c0.691,0.572,0.858,1.334,1.28,2.055c1.123,1.917,2.446,3.379,3.168,5.563
		c0.031,0.094,0.194,0.063,0.173-0.037c-0.35-1.664-0.983-3.163-1.578-4.746c-0.386-1.027-0.354-2.213-0.968-3.154
		c-0.622-0.952-1.744-1.527-2.767-1.922c-0.82-0.318-1.693-0.56-2.552-0.744c-0.058-0.012-0.282-0.048-0.583-0.097
		c4.382-1.349,13.67-5.331,18.863-7.896c0.237,7.121,1.038,14.255,1.599,21.353c0.013,0.165,0.165,0.286,0.326,0.275
		c2.401-0.158,8.985-0.923,10.814,1.065c0.976,1.061-0.146,0.868-1.322,1.963c-0.976,0.908-1.704,1.903-2.451,2.998
		c-0.279,0.41-0.207,0.923,0.26,1.163c5.508,2.826,9.105,6.862,12.924,11.29c-0.025,0.021-0.054,0.031-0.079,0.054
		c-0.242,0.227-0.381,0.502-0.47,0.799c-0.808-0.792-2.114-1.185-3.104-1.55c-2.158-0.797-4.439-0.914-6.695-0.516
		c-1.507,0.266-4.523,0.742-5.543,2.073c-0.342,0.446-0.488,0.79-0.5,1.057c-0.167,0.147-0.292,0.319-0.309,0.523
		c-0.016,0.18,0.056,0.306,0.154,0.413c-1.834-0.807-3.762,0.475-4.847,1.888c-0.688,0.897-1.813,2.268-0.653,3.191
		c0.612,0.488,1.416,0.667,2.177,0.73c-0.039,0.057-0.072,0.114-0.103,0.171c-1.248-0.53-2.62-0.672-3.94-0.35
		c0.102-0.142,0.039-0.37-0.171-0.35c-0.272,0.028-2.092-0.004-3.729,0.181c4.815-4.637,7.786-10.921,8.134-17.694
		c0.059-1.147,0.045-2.342-0.067-3.519c0.349-0.76,0.629-1.513,0.739-2.206c0.146-0.919,0.273-3.681-1.46-2.018
		c-0.491,0.469-0.312,2.026-0.049,3.53c-0.068,0.539-0.148,1.072-0.257,1.375c-0.55,1.528-1.461,3.091-2.159,4.558
		c-1.734,3.643-3.522,7.26-5.334,10.865c0-0.776,0.01-1.55,0.036-2.322c0.072-0.023,0.137-0.079,0.138-0.176
		c0.013-0.844,0.01-1.689-0.001-2.535c0.123-1.743,0.294-3.483,0.506-5.232c0.667-5.53,1.508-11.142,0.867-16.719
		c-0.397-3.451-0.994-7.839-4.322-9.624c-0.246-0.131-0.574,0.103-0.536,0.376c1.201,8.54,1.784,17.079,2.447,25.636
		c-0.164-0.297-0.339-0.588-0.526-0.869c-0.313-2.282-0.662-4.562-1.055-6.836c-0.022-0.129-0.225-0.115-0.205,0.017
		c0.318,2.083,0.6,4.17,0.864,6.261c-0.048-0.065-0.091-0.135-0.141-0.199c-0.399-0.699-0.854-1.352-1.351-1.97
		c-0.559-2.266-1.317-4.526-2.708-6.322c-2.053-2.648-5.746-4.323-8.516-6.072c-1.142-0.721-3.461-3.222-4.809-1.989
		c-0.15,0.138-0.042,0.367,0.1,0.448c3.751,2.134,6.156,5.479,9.192,8.388c-2.845-1.912-5.953-3.438-8.836-4.54
		c-0.394-0.15-0.91,0.21-0.72,0.658c1.095,2.567,3.641,3.226,5.984,4.435c3.587,1.849,7.859,4.477,10.405,7.98
		c0.024,0.108,0.043,0.217,0.066,0.326c-0.245-0.126-0.509-0.227-0.806-0.284c-0.076-0.014-0.138,0.099-0.067,0.144
		c0.64,0.42,1.041,1.196,1.282,2.179c0.063,0.333,0.122,0.667,0.183,1.001c0.367,2.868-0.237,6.892-0.699,9.866
		c-0.646-2.434-1.761-4.834-2.568-6.641c-2.063-4.621-4.856-9.479-9.268-12.203c-0.138-0.086-0.448-0.294-0.813-0.537
		c-1.147-1.134-2.361-2.055-3.606-2.576c0.26-0.621,0.542-1.236,0.871-1.838c0.198-0.362-0.327-0.647-0.586-0.372
		c-4.28,4.543-2.905,11.805-3.063,17.58c-0.207,7.594-0.071,15.36-0.797,22.928c-0.341,3.541-1.579,3.795,0.389,6.04
		c2.58,2.94,6.294,5.383,9.282,7.939c1.078,0.923,2.169,1.837,3.263,2.75c0.528,6.457-0.039,12.707-0.297,19.159
		c-0.226,5.64,1.461,13.403-1.659,18.422c-0.218,0.351,0.168,0.856,0.556,0.792c7.065-1.179,15.126,0.759,22.281,0.98
		C125.344,191.194,131.266,189.835,137.509,187.755z M156.554,97.784c0.086-0.265,0.409-0.532,0.787-0.774
		c0.714-0.249,1.395-0.593,1.989-1.029c1.646-0.77,3.444-1.412,4.831-2.376c-0.07,0.256-0.143,0.51-0.206,0.768
		c-0.014,0.055-0.007,0.104-0.009,0.156c-0.028,0.042-0.051,0.083-0.082,0.125c-0.993,1.312-2.449,2.487-3.731,3.498
		c-0.309,0.263-0.635,0.502-0.977,0.718c-0.104,0.087-0.209,0.159-0.314,0.213l0,0C158.103,99.461,157.34,99.029,156.554,97.784z
		 M159.437,102.49c-0.317,0.155-0.513,0.195-1.028-0.171c-1.011-0.719,0.175-0.92,0.926-1.386c1.281-0.792,2.578-1.549,3.697-2.568
		c0.112-0.101,0.22-0.21,0.33-0.317c-0.016,0.052-0.03,0.105-0.045,0.158C162.203,99.782,160.864,101.19,159.437,102.49z
		 M166.748,89.507c-0.007-0.002-0.013-0.007-0.021-0.009c-0.072-0.095-0.173-0.168-0.287-0.204c-0.004-0.18,0.004-0.352-0.014-0.544
		c0.015-0.013,0.03-0.029,0.045-0.043C166.564,88.974,166.657,89.24,166.748,89.507z M163.345,90.104
		c0.719-0.174,1.37-0.358,1.963-0.636c-0.457,0.904-1.003,1.763-1.701,2.5c-0.597,0.63-1.264,1.25-2.06,1.617
		c-1.213,0.56-3.88,0.931-4.228-0.974C159.274,91.621,161.2,90.622,163.345,90.104z M157.119,95.238
		c0.581-0.099,1.232-0.035,1.778-0.262c0.056-0.023,0.096-0.078,0.108-0.138c2.065,0.225,4.321-1.451,5.855-3.446
		c-0.046,0.132-0.098,0.267-0.143,0.394c-0.12,0.338-0.226,0.68-0.33,1.023c-1.215,1.051-2.998,1.67-4.668,2.34
		c-0.063-0.046-0.134-0.079-0.211-0.071c-0.675,0.061-1.334,0.235-1.995,0.381c-0.338,0.075-2.116,0.56-2.329,0.433
		C155.218,95.913,156.86,95.282,157.119,95.238z M153.907,79.525c-0.039,0.027-0.071,0.064-0.066,0.12
		c0.197,2.214,0.385,4.386,0.458,6.547c-0.017-0.211-0.032-0.421-0.049-0.631c-0.18-2.279-0.208-5.075-1.208-7.151
		C153.399,78.749,153.683,79.122,153.907,79.525z M90.795,94.083c1.321,0.568,2.593,1.209,3.819,1.913
		C93.311,95.453,91.893,94.892,90.795,94.083z M100.26,97.993c-1.979-1.724-3.71-3.595-5.509-5.504
		c-0.878-0.932-3.1-3.831-4.442-3.852c1.566,0.024,5.061,3.193,6.417,4.054c3.622,2.298,5.705,4.45,6.999,8.549
		C102.666,100.106,101.484,99.058,100.26,97.993z M140.074,170.041c-0.488,5.415-0.896,10.862-1.646,16.248
		c0.016-0.112-0.048-0.196-0.13-0.258c0.276-1.163,0.153-2.358,0.184-3.604c0.078-3.098,0.204-6.191,0.403-9.283
		c0.105-1.63,0.457-15.792,1.625-16.128C140.613,156.985,140.249,168.104,140.074,170.041z M113.669,162.308
		c-0.806-1.929,1.324-5.335,2.093-7.242c0.374-0.929,0.718-1.909,1.105-2.871c-0.171,1.3-0.076,2.639,0.283,4.038
		c0.104,0.405,0.708,0.613,1.042,0.353c-0.869,1.277-1.985,2.459-2.727,3.695c-0.293,0.488-0.56,0.972-0.807,1.482
		C114.066,162.989,114.373,163.992,113.669,162.308z M114.364,143.291c0.2,0.219,0.6-0.015,0.559-0.29
		c-0.461-3.124-1.848-5.954-2.957-8.888c-0.048-0.18-0.118-0.352-0.175-0.528c0.173,0.388,0.347,0.777,0.532,1.16
		c0.724,1.481,1.552,2.85,2.452,4.232c0.162,0.249,0.514-0.006,0.374-0.256c-1.574-2.807-2.919-5.639-3.999-8.664
		c-0.131-0.366-0.732-0.255-0.678,0.147c0.205,1.542,3.235,10.565,2.765,10.702c-1.202,0.352-2.972-7.378-3.036-8.026
		c-0.199-1.993,0.257-8.841,3.485-4.405c1.181,1.623,1.428,4.774,1.92,6.664c0.644,2.471,2.453,6.114,0.346,7.925
		c-1.692,1.455-2.019,1.008-3.761-0.35c-1.386-1.08-2.504-2.646-3.091-4.316c-0.907-2.581-0.923-7.011,0.606-9.896
		C108.96,133.87,110.559,139.116,114.364,143.291z M118.435,149.76c-0.222,1.339-0.394,3.151-0.226,3.703
		c0.131,0.433,0.3,0.793,0.489,1.121c-0.165,0.077-0.328,0.162-0.491,0.264C117.777,153.096,117.859,151.426,118.435,149.76z
		 M127.244,148.394c-0.065,1.92-2.385,1.406-3.624,0.891c-1.349-0.563-4.966-1.23-4.86-2.904c0.069-1.107,0.849-1.731,0.503-2.658
		c0.267-0.481,0.433-1.021,0.56-1.582c0.049,1.38,0.492,2.693,1.898,2.899c1.156,0.169,1.748-0.821,2.161-1.95
		c0,0.002,0,0.005-0.001,0.006c-0.357,1.843-0.727,3.808-0.415,5.68c0.005,0.029,0.049,0.035,0.055,0.002
		c0.217-1.427,0.273-2.867,0.524-4.293c0.116-0.661,0.255-1.316,0.398-1.973c0.122-0.555,0.168-1.274,0.29-1.892
		c0.07-0.132,0.148-0.264,0.228-0.395c0.055,0.045,0.124,0.049,0.188,0.006c-0.081,0.638-0.078,1.28,0.028,1.855
		c-0.011,0.018-0.033,0.028-0.04,0.05c-0.217,0.586-0.104,1.236-0.087,1.854c0.01,0.344-0.028,0.801,0.052,1.186
		c-0.026,0.205-0.032,0.416-0.005,0.636c0.124,1.006,0.93,1.666,2.116,2.081C127.241,148.033,127.251,148.194,127.244,148.394z
		 M124.28,123.685c0.069,0.212,0.163,0.42,0.284,0.624c-1.75-0.645-3.816-0.238-5.342,0.813c-0.153,0.105,0.007,0.337,0.164,0.238
		c1.815-1.152,3.701-1.096,5.62-0.445c0.154,0.173,0.321,0.336,0.502,0.488c-1.996,0.735-3.711,1.946-5.436,3.234
		c-0.009,0.007-0.007,0.017-0.015,0.025c-0.808-0.722-0.896-1.654-1.051-2.88c-0.069-0.546-0.503-1.241-0.496-1.726
		C118.541,121.823,122.519,123.25,124.28,123.685z M143.669,129.127c-0.038-0.742-0.232-1.66-0.099-2.404
		c0.301,0.789,0.527,1.613,0.457,2.635c-0.04,0.574-0.047,1.524-0.32,2.061c-0.656,0.894-1.298,1.338-1.927,1.362
		c-0.007-0.066-0.023-0.127-0.035-0.19c0.484,0.085,0.918-0.069,1.436-0.776C143.765,131.019,143.716,130.068,143.669,129.127z
		 M144.379,131.932c0.167-0.562,0.241-1.167,0.313-1.672c0.112-0.787,0.215-1.608,0.15-2.406c-0.073-0.893-0.455-1.716-0.415-2.596
		c0.235-0.11,0.385,0.101,0.446,0.648c1.159,1.316,1.324,4.279,1.152,5.902c-0.048,0.448-0.061,1.902-0.857,1.936
		c-0.067-0.006-0.132-0.014-0.199-0.019c-0.032-0.006-0.068-0.021-0.102-0.031c-0.071-0.047-0.141-0.096-0.217-0.138
		C144.449,133.267,144.442,132.505,144.379,131.932z M149.426,141.816c-0.038,0.019-0.072,0.028-0.11,0.05
		c-0.098,0.054-0.139,0.133-0.148,0.215c-1.348,0.264-2.548-0.165-3.405-1.258c0.873,0.674,1.856,1.16,2.997,1.296
		c0.238,0.028,0.411-0.143,0.41-0.376c-0.002-0.227,0.005-0.45,0.012-0.673C149.257,141.322,149.337,141.572,149.426,141.816z
		 M150.641,130.407c-0.055-0.768-0.662-5.66,0.684-3.79c1.174,1.632,0.076,5.502-0.247,7.523c-0.295,1.845-0.669,3.643-1.137,5.432
		c-0.052-0.142-0.091-0.291-0.136-0.437c0.126,0.043,0.287-0.021,0.284-0.2c-0.033-2.003,0.992-3.567,1.026-5.46
		C151.132,132.577,150.71,131.381,150.641,130.407z M145.423,144.417c0.732-0.394,1.364-0.741,1.679-0.941
		c0.724,0.046,1.454-0.127,2.061-0.504c-0.56,0.654-1.251,1.107-2.087,1.336c-0.66,0.264-1.324,0.518-1.992,0.76
		c-0.104,0.037-0.255,0.082-0.431,0.132C144.943,144.947,145.206,144.685,145.423,144.417z M120.765,140.927
		c0.222-1.234,1.033-2.081,1.742-3.052c0.848-1.164,1.681-2.28,2.56-3.389c-0.497,1.105-1.335,2.268-1.633,3.123
		c-0.444,1.271-0.363,3.645-1.417,4.547c-0.118,0.101,0.011,0.302,0.14,0.205c0.507-0.384,0.675-0.696,0.866-1.332
		c0.414-1.373,0.609-2.776,1.199-4.104c0.3-0.676,0.904-1.424,1.326-2.194c0.219,1.09,0.201,2.194-0.26,3.266
		c-0.074,0.172-0.875,1.375-0.97,1.538c-0.474,0.819-0.735,1.896-1.238,2.659C122.066,143.728,120.325,143.38,120.765,140.927z
		 M126.257,125.925c0.152,0.086,0.307,0.162,0.462,0.228c-0.41,0.518-1.59,1.972-1.685,1.195
		C125.001,127.068,125.694,126.419,126.257,125.925z M137.754,128.351c0.013-0.018,0.024-0.035,0.036-0.053
		c-0.007,0.013-0.014,0.026-0.021,0.04C137.764,128.341,137.759,128.347,137.754,128.351z M142.625,137.282
		c-0.269,0.004-0.529,0.155-0.692,0.377c0.075-0.374,0.134-0.753,0.182-1.134c0.159,0.23,0.319,0.463,0.484,0.699
		C142.606,137.243,142.618,137.261,142.625,137.282z M140.454,138.457c0.403-0.493,0.691-0.958,0.887-1.455
		c0.001,0.437,0.064,0.868,0.24,1.262c0.033,0.074,0.153,0.098,0.193,0.015c0.023,0.121,0.08,0.24,0.174,0.354
		c-0.193,0.138-0.39,0.273-0.614,0.295c-0.291,0.027-0.604-0.152-0.846-0.337c-0.017-0.033-0.045-0.062-0.068-0.091
		C140.431,138.484,140.443,138.47,140.454,138.457z M139.462,133.415c0.192,0.292,0.144,1.493,0.252,1.952
		c0.355,1.484,0.114,2.819-1.057,3.861c-1.302,1.159-3.314,1.441-4.459-0.008c-0.815-1.031-0.829-2.137-0.911-3.381
		c-0.005-0.076-0.042-0.139-0.09-0.19c0.202-0.12,0.381-0.257,0.54-0.406c0.461,0.344,0.903,0.698,1.288,1.149
		c0.357,0.42,0.626,0.991,1.071,1.334c0.517,0.399,1.195,0.414,1.52-0.226c0.379-0.747-0.143-1.435-0.698-1.902
		c-0.484-0.407-0.987-0.792-1.495-1.173c0.184,0.114,0.374,0.219,0.556,0.337c0.691,0.447,2.744,1.436,2.704,2.419
		c-0.001,0.033,0.055,0.043,0.065,0.011c0.32-1.001-0.96-1.632-1.631-2.118c-1.066-0.772-2.185-1.455-3.33-2.096
		c-0.057-0.093-0.116-0.185-0.18-0.277c0.249,0.061,0.506,0.112,0.771,0.157C135.43,133.041,138.962,132.656,139.462,133.415z
		 M126.165,141.137c-0.178-1.388,0.314-2.592,0.86-3.834c0.072-0.164,0.009-0.301-0.103-0.376c0.019-0.055,0.029-0.112,0.046-0.167
		c0.187,0.139,0.396,0.258,0.641,0.34c0.468,0.16,0.997,0.117,1.522,0c-0.836,1.489-1.135,3.34-0.95,5.01
		c-0.34,0.146-0.661,0.305-0.959,0.476C126.421,142.545,126.251,141.816,126.165,141.137z M134.203,134.142
		c0.23,0.183,0.458,0.368,0.693,0.544c0.531,0.399,1.975,1.079,2.245,1.727c-0.365,1.148-0.755,1.339-1.171,0.573
		c-0.059-0.085-0.119-0.172-0.178-0.258c-0.229-0.299-0.439-0.601-0.696-0.879c-0.324-0.35-0.681-0.668-1.07-0.94
		C134.169,134.671,134.22,134.412,134.203,134.142z M130.862,131.08c0.659,0.774,1.887,1.678,2.161,2.692
		c0.382,1.414-3.054,2.068-4.011,1.827c-1.352-0.341-1.266-2.135-0.605-3.083c0.322-0.461,1.559-1.606,2.392-1.67
		C130.787,130.926,130.802,131.009,130.862,131.08z M128.433,142.005c0.194-1.794,0.668-3.368,1.276-5.062
		c0.382-0.117,0.751-0.251,1.08-0.355c0.282-0.089,0.604-0.187,0.935-0.299c0.049,1.173,0.688,2.409,0.256,3.495
		c-0.444,1.116-1.805,1.417-2.83,1.949c-0.007,0.003-0.018,0.01-0.024,0.014C128.888,141.828,128.658,141.914,128.433,142.005z
		 M132.141,136.14c0.15-0.057,0.297-0.117,0.443-0.181c-0.056,0.224-0.093,0.451-0.104,0.684
		C132.367,136.46,132.255,136.294,132.141,136.14z M136.693,130.033c-0.031,0.001-0.061,0.002-0.09,0.004
		c-0.009-0.005-0.02-0.006-0.028-0.011c0.264-0.289,0.495-0.621,0.711-0.954c0.047-0.039,0.092-0.084,0.139-0.124
		C137.204,129.326,136.966,129.691,136.693,130.033z M130.259,129.46c0.016,0.038,0.034,0.075,0.05,0.113
		c-0.024-0.003-0.049-0.003-0.073-0.006c0,0,0-0.001,0-0.002C130.249,129.529,130.249,129.497,130.259,129.46z M128.575,125.028
		c-0.217-0.148-0.488-0.219-0.717-0.104c-0.025,0.013-0.05,0.025-0.075,0.038c-0.011,0.006-0.021,0.014-0.032,0.02
		c-0.106-0.103-0.212-0.206-0.323-0.312c-0.396-0.375-0.66-0.882-1.041-1.246l-0.082-0.128c0.152-0.099,0.306-0.196,0.333-0.213
		c0.313-0.204,0.627-0.416,0.945-0.622c0.002,0.036,0.006,0.065,0.009,0.079c0.088,0.347,0.313,0.599,0.558,0.847
		c0.291,0.296,0.593,0.57,0.806,0.903C128.822,124.525,128.69,124.772,128.575,125.028z M127.1,121.217
		c0.038-0.046,0.073-0.098,0.112-0.141c0.019,0.05,0.053,0.077,0.081,0.114C127.229,121.198,127.165,121.206,127.1,121.217z
		 M127.266,126.329c0.047,0.012,0.093,0.032,0.139,0.042c-0.205,0.377-0.392,0.763-0.546,1.163
		C127.021,127.018,127.188,126.557,127.266,126.329z M133.544,139.722c0.365,0.436,0.806,0.793,1.313,1.03
		c-0.48,0.015-0.985,0.05-1.501,0.103C133.496,140.504,133.558,140.125,133.544,139.722z M139.659,139.32
		c0.117,0.385,0.417,0.757,0.707,0.962c-0.902,0.056-1.805,0.208-2.676,0.421C138.412,140.381,139.085,139.874,139.659,139.32z
		 M142.939,140.239c0.058,0.065,0.116,0.129,0.174,0.184c0.032,0.031,0.067,0.064,0.1,0.096c-0.166-0.042-0.33-0.093-0.498-0.124
		C142.794,140.349,142.868,140.297,142.939,140.239z M146.049,143.239c0.122,0.047,0.243,0.094,0.369,0.127
		c-0.185,0.128-0.37,0.256-0.556,0.38C145.947,143.577,146.011,143.408,146.049,143.239z M149.976,135.561
		c-0.234,1.055-0.414,1.9-0.345,2.929c-0.66-2.885-0.111-6.356,0.338-9.365c0.013,0.242,0.027,0.485,0.038,0.728
		C150.105,131.987,150.456,133.39,149.976,135.561z M148.522,141.159c-1.111-0.726-2.267-1.322-3.239-2.284
		c-0.542-0.538-0.959-1.21-1.39-1.864c0.08,0.029,0.151,0.063,0.234,0.09c1.181,0.38,2.463,0.763,2.883,2.084
		c0.086,0.271,0.497,0.122,0.415-0.147c-0.253-0.825-0.775-1.351-1.53-1.76c-0.599-0.324-1.655-0.525-2.452-0.92
		c-0.266-0.365-0.557-0.701-0.891-0.988c0.368,0.014,0.738,0.016,1.125,0.025c1.319,0.033,1.974,0.448,2.965,1.172
		c0.804,0.587,1.534,0.736,1.799,1.81C148.655,139.242,148.601,140.246,148.522,141.159z M143.666,133.192
		c0.008-0.007,0.017-0.011,0.024-0.019c0.183-0.172,0.329-0.381,0.446-0.611c0.013,0.276,0.032,0.557,0.058,0.79
		C144.023,133.288,143.847,133.235,143.666,133.192z M143.313,130.689c-1.247,1.161-2.172,1.266-2.774,0.313
		c-0.027-0.042-0.062-0.074-0.104-0.096c-0.788-0.207-0.972-0.569-1.688-0.013c-0.081,0.062-0.136,0.165-0.151,0.27
		c-0.113-0.002-0.225-0.004-0.341-0.003c0.044-0.136,0.055-0.278,0.035-0.42c0.755-0.533,1.269-1.348,1.877-2.126
		c0.866-1.108,1.831-2.028,2.879-2.897c-0.027,0.819,0.091,1.672,0.116,2.05C143.209,128.537,143.597,129.991,143.313,130.689z
		 M138.291,126.521c-0.262,0.307-0.565,0.542-0.567,0.976c0,0.077,0.008,0.162,0.026,0.244c-0.524,0.927-1.272,1.693-2.258,2.003
		c-0.525-0.036-1.107,0.016-1.659,0.093c-1.136-0.178-2.151-0.778-2.971-1.582c-0.146-0.394-0.328-0.896-0.595-1.227
		c0.688-0.009,1.373,0.04,2.051,0.184c0.964,0.204,1.771,0.707,2.688,0.989c0.479,0.148,1.149,0.198,1.349-0.405
		c0.531-1.6-3.622-1.622-5.806-1.543c2.029-0.715,4.146-0.767,6.291-0.272c0.097,0.022,0.149-0.136,0.052-0.169
		c-1.865-0.649-3.779-0.683-5.623-0.203c0.76-0.608,1.512-1.229,2.287-1.818c0.538-0.41,1.072-0.836,1.639-1.205
		c0.187-0.128,0.373-0.256,0.56-0.384c0.413-0.446,0.681-0.431,0.806,0.048c0.335,0.214,0.639,1.076,0.864,1.406
		c0.375,0.551,0.757,1.09,1.177,1.604C138.536,125.672,138.433,126.099,138.291,126.521z M132.127,126.741
		c0.407,0.02,0.814,0.031,1.221,0.07c0.373,0.036,1.139-0.035,1.42,0.171c0.444-0.03,0.451,0.184,0.021,0.643
		c-0.221-0.116-0.447-0.221-0.679-0.313C133.465,127.041,132.801,126.863,132.127,126.741z M134.236,120.781
		c-0.103,0.073-0.207,0.146-0.308,0.223c0.038-0.103,0.082-0.201,0.117-0.305c0.066-0.195,0.154-0.44,0.247-0.713
		c-0.027,0.226-0.051,0.453-0.066,0.684C134.223,120.711,134.23,120.745,134.236,120.781z M133.16,118.815
		c-0.214,0.469-0.425,0.949-0.689,1.394c-0.779,1.312-2.061,1.95-2.912,3.135c-0.086,0.119-0.188,0.272-0.295,0.439
		c-0.18-0.237-0.383-0.452-0.548-0.703c-0.305-0.465-0.169-0.961-0.271-1.453c-0.031-0.152-0.103-0.333-0.271-0.386
		c-0.001,0-0.001,0-0.001,0c0.329-0.191,0.598-0.547,0.531-0.958c-0.086-0.536-0.409-0.531-0.808-0.28
		c0.009-0.018,0.015-0.038,0.024-0.057c0.192-0.389,0.433-0.734,0.751-1.029c0.224-0.207,0.85-0.826,1.126-0.38
		c0.098,0.158-0.343,1.209-0.4,1.411c-0.267,0.939-0.515,1.882-0.758,2.828c-0.044,0.171,0.245,0.265,0.3,0.093
		c0.375-1.181,0.73-2.364,1.075-3.554c0.141-0.485,0.504-1.19-0.182-1.377c-1.126-0.306-2.524,1.649-2.667,2.689
		c-0.224,0.23-0.444,0.482-0.64,0.72c-0.371,0.1-0.729,0.221-1.031,0.312c-0.911-1.13-1.608-2.759-2.24-4.075
		c0.917-1.031,2.594-2.576,3.603-2.103c0.147,0.069,0.631,0.951,0.84,1.111c1.697,1.296,4.104-0.529,5.513,0.501
		C133.981,117.655,133.581,117.893,133.16,118.815z M121.728,116.156c-0.063-0.036-0.125-0.071-0.189-0.103
		c0.192-0.007,0.387-0.024,0.579-0.047C121.984,116.063,121.854,116.114,121.728,116.156z M120.306,116.534
		c0.167,0.057,0.308,0.14,0.437,0.233c-0.021,0.042-0.034,0.088-0.049,0.132c-0.15-0.148-0.307-0.279-0.465-0.395
		C120.254,116.513,120.281,116.525,120.306,116.534z M125.452,126.023c-0.788,0.764-1.591,1.763-0.981,2.337
		c0.495,0.467,1.146-0.016,1.702-0.634c-0.337,0.972-0.541,2.016,0.208,2.254c0.165,0.054,0.333-0.012,0.372-0.195
		c0.213-0.992,0.542-1.864,0.931-2.738c0.053,0.094,0.1,0.173,0.12,0.205c0.41,0.691,0.939,1.768,0.859,2.647
		c-0.706,0.328-1.36,0.843-1.782,1.351c-0.179-0.017-0.36-0.052-0.545-0.107c-0.164-0.16-0.371-0.257-0.598-0.279
		c-0.076-0.039-0.162-0.057-0.261-0.059c-0.564-0.268-1.11-0.579-1.563-0.743c-0.954-0.345-2.066-0.405-2.97-0.829
		c-0.212-0.099-0.396-0.204-0.56-0.313C121.991,127.802,123.68,126.84,125.452,126.023z M129.458,145.331
		c-0.667-1.116-0.002-1.266,1.077-1.625c-0.449,0.418-0.816,0.905-1.053,1.485C129.464,145.237,129.459,145.285,129.458,145.331z
		 M129.687,145.671c0.022,0.009,0.04,0.023,0.063,0.028c4.211,0.812,8.017-0.21,12.042-1.444c0.193-0.059,0.272-0.37,0.09-0.491
		c-2.387-1.569-4.853-1.708-7.381-0.375c-0.208,0.109-0.104,0.437,0.103,0.471c0.1,0.016,0.2,0.032,0.3,0.048
		c0.313,0.051,0.371-0.387,0.082-0.473c0.875,0.263,6.179-0.985,5.315,0.661c-0.504,0.96-5.333,1.206-6.557,1.256
		c-2.026,0.083-3.478-0.243-1.24-1.997c0.597-0.468,1.712-0.738,2.423-1.007c0.813-0.309,1.639-0.614,2.48-0.834
		c0.828-0.154,1.655-0.309,2.483-0.463c1.817-0.626,3.052-0.101,3.706,1.58c0.841,1.095,1.007,1.662,0.654,2.128
		c-1.029,0.602-2.091,1.146-3.223,1.613c-0.093,0.039-0.126,0.11-0.136,0.184c-0.668,0.208-1.356,0.353-2.067,0.456
		c-2.073,0.296-4.246,0.13-6.316-0.129C131.207,146.719,130.489,146.784,129.687,145.671z M148.143,147.218
		c-0.356,0.138-0.712,0.275-1.068,0.413c-1.444,0.692-3.281,1.053-4.848,1.135c-1.369,0.07-3.92-0.01-5.616-0.589
		c1.872-0.236,3.442-0.555,4.188-0.788c0.636-0.199,1.449-0.567,2.246-1.041c2.445-0.625,6.285-1.739,7.167-3.197
		c0.153,0.31,0.38,0.555,0.655,0.736C151.052,144.883,150.146,145.994,148.143,147.218z M153.637,131.381
		c0.011-0.091,0.024-0.186,0.037-0.279c0.794,2.128,0.974,4.115,0.38,6.502c-0.286,1.147-0.812,3.043-1.638,3.981
		c-0.098,0.797-0.518,1.085-1.251,0.877c-0.089-0.227-0.198-0.415-0.333-0.554C152.936,138.992,153.207,134.85,153.637,131.381z
		 M150.787,124.33c-0.396,0.551-0.633,1.157-0.751,1.806c-0.099-0.009-0.195,0.021-0.237,0.146c-0.925,2.806-1.48,6.095-1.423,9.299
		c-0.078-0.124-0.141-0.249-0.233-0.374c-0.457-0.616-1.051-0.987-1.713-1.21c0.726-1.177,0.861-3.095,0.77-4.115
		c-0.05-0.551-0.28-1.736-0.66-2.913c0.043-0.036,0.079-0.079,0.093-0.131c0.062-0.221,0.046-0.421,0.009-0.65
		c-0.009-0.061-0.021-0.129-0.039-0.191c0.284-0.085,0.511-0.256,0.578-0.54C148.31,124.825,149.511,124.484,150.787,124.33z
		 M142.193,116.649c0.901,0.792,1.785,1.604,2.651,2.435c0.828,0.794,2.352,1.86,2.776,2.898c0.129,0.317-0.792-0.447-1.09-0.627
		c-0.292-0.176-0.585-0.349-0.876-0.524c0.054-0.062,0.078-0.146,0.028-0.248c-1.063-2.176-3.065-3.336-4.935-4.66
		c0.055-0.068,0.104-0.14,0.143-0.218C141.339,115.982,141.777,116.285,142.193,116.649z M140.366,116.248
		c1.727,1.192,3.521,2.297,4.581,4.126c-0.029-0.021-0.061-0.038-0.09-0.058c-0.944-0.662-1.836-1.411-2.687-2.189
		c-0.643-0.589-1.254-1.215-1.847-1.855C140.337,116.264,140.352,116.256,140.366,116.248z M126.109,85.99
		c0.604-1.745,1.296-3.442,2.232-5.052c0.361-0.621,0.768-1.154,1.195-1.647c0.358,0.641,1.259,0.776,1.911,0.927
		c0.183,0.042,0.368,0.076,0.553,0.111c-0.149,0.238-0.038,0.645,0.271,0.699c-0.123,0.497-0.013,1.022,0.358,1.393
		c-0.121,1.862-0.934,5.026-1.026,5.793c-0.12,0.991-0.371,2.266-0.447,3.49C129.179,89.871,127.512,88.083,126.109,85.99z
		 M139.691,77.688c-0.258-1.144-0.645-2.232-1.133-3.361c-0.047-0.108-0.199-0.448-0.359-0.805c0.492,1.087,0.997,2.169,1.488,3.257
		c0.166,0.367,0.326,0.737,0.487,1.108C140.085,77.764,139.932,77.69,139.691,77.688z M139.432,81.015
		c0.071,3.139,0.279,6.229-0.077,9.354c-0.104,0.913-0.212,1.827-0.321,2.742c-0.175-0.448-0.307-0.929-0.416-1.427
		c0.05-0.192-0.001-0.361-0.108-0.498c-0.098-0.534-0.17-1.083-0.238-1.629c0.038-0.099,0.086-0.19,0.119-0.291
		c0.086-0.27-0.035-0.573-0.242-0.726c-0.088-0.734-0.18-1.45-0.318-2.098c-0.349-1.639-0.801-3.275-1.613-4.736
		c0.18-0.239,0.305-0.496,0.321-0.761c0.038-0.64-0.426-1.053-0.966-1.388c-0.009-0.652,0.517-1.239,0.58-1.886
		c0.476,0.424,0.948,0.876,1.311,1.39c0.427,0.604,0.576,1.281,0.923,1.921C138.604,81.386,139.164,81.313,139.432,81.015z
		 M138.248,96.08c0.187-0.59,0.376-1.164,0.502-1.693c0.001-0.005,0-0.009,0.001-0.014c0.04,0.042,0.082,0.072,0.125,0.091
		c-0.065,0.56-0.127,1.119-0.188,1.679C138.547,96.098,138.397,96.075,138.248,96.08z M133.927,93.995
		c-0.03-0.014-0.058-0.029-0.093-0.032c-0.134-0.009-0.233-0.115-0.309-0.295c0.448-0.323,0.874-0.666,1.276-1.034
		C134.475,93.063,134.173,93.509,133.927,93.995z M131.72,77.707c0.261-0.43,0.491-0.883,0.66-1.356
		c0.228-0.254,0.452-0.519,0.667-0.802c0.514,0.323,1.036,0.63,1.549,0.953c0.331,0.422,0.773,0.779,0.674,1.4
		c-0.025,0.162-0.272,0.688-0.392,0.837c-0.157,0.196-0.163,0.261-0.244,0.281c-0.033-0.02-0.071-0.04-0.102-0.06
		c-0.136-0.086-0.332-0.039-0.462,0.058c-0.522-0.016-1.078-0.106-1.583-0.183c-0.248-0.038-1.237-0.371-1.514-0.126
		C131.158,78.394,131.619,77.873,131.72,77.707z M134.549,80.478c0.139-0.014,0.277-0.018,0.415-0.041
		c0.008-0.001,0.015-0.006,0.023-0.008c0.211,0.197,0.286,0.455,0.207,0.412C135.09,80.786,133.911,80.912,134.549,80.478z
		 M133.949,86.324c0.069-0.024,0.146-0.048,0.213-0.073c-0.09,0.126-0.173,0.258-0.258,0.389
		C133.918,86.534,133.934,86.428,133.949,86.324z M134.147,84.967c0.017-0.112,0.032-0.22,0.048-0.327
		c0.144-0.078,0.29-0.158,0.43-0.237C134.468,84.576,134.305,84.771,134.147,84.967z M136.459,84.763
		c0.106,0.4,0.205,0.805,0.3,1.209c-0.767,0.588-1.92,1.688-2.185,1.327C134.229,86.825,135.641,85.506,136.459,84.763z
		 M135.668,84.778c-0.17,0.095-0.334,0.21-0.493,0.342c-0.125,0.061-0.244,0.098-0.343,0.076c-0.308-0.067,0.661-1.114,1.261-1.74
		c0.073,0.242,0.137,0.486,0.205,0.728C136.109,84.368,135.891,84.586,135.668,84.778z M134.309,83.854
		c0.018-0.126,0.034-0.245,0.049-0.357c0.104-0.213,0.279-0.496,0.452-0.762c0.302-0.119,0.612-0.295,0.887-0.508
		c0.085,0.253,0.178,0.508,0.257,0.761C135.345,83.5,134.517,84.273,134.309,83.854z M133.599,88.951
		c0.207-0.104,0.444-0.231,0.695-0.377c-0.251,0.279-0.504,0.565-0.749,0.845C133.563,89.263,133.581,89.107,133.599,88.951z
		 M133.424,90.696c0.004-0.058,0.009-0.116,0.013-0.175c0.597-0.833,2.516-2.874,3.476-3.872c0.044,0.201,0.095,0.399,0.137,0.602
		c-0.26,0.228-0.788,0.717-1.385,1.281c-0.208,0.167-0.422,0.372-0.641,0.607C134.35,89.781,133.713,90.398,133.424,90.696z
		 M137.242,88.277c0.028,0.156,0.057,0.311,0.085,0.468c-0.614,0.491-1.187,1.025-1.746,1.573
		C136.152,89.652,136.729,88.988,137.242,88.277z M137.631,90.838c0.001,0.014,0.004,0.028,0.005,0.042
		c-0.01,0.002-0.021,0-0.031,0.003C137.615,90.869,137.623,90.853,137.631,90.838z M137.973,92.825
		c0.057,0.206,0.123,0.404,0.2,0.592c-0.169-0.058-0.354-0.078-0.531-0.04C137.744,93.194,137.863,93.008,137.973,92.825z
		 M143.996,90.556c-0.189,0.008-0.387,0.215-0.348,0.412c0.438,2.188,0.796,4.355,0.986,6.57c0.281,3.27-0.794,4.98-2.698,7.498
		c-1.001,1.325-1.817,2.658-2.257,4.114c-0.12-0.64-0.25-1.282-0.39-1.924c0.997-3.989,1.104-9.881,1.81-14.247
		c0.691-4.271-0.668-9.208-1.119-13.541c0.19-0.484,0.356-1.01,0.279-1.359c1.797,4.142,3.361,8.437,5.449,12.432
		C145.237,90.497,145.005,90.51,143.996,90.556z M136.332,73.455c0.413-0.258,0.815-0.524,1.212-0.793
		c0.592,1.757,1.28,3.345,1.633,5.159c-0.149,0.152-0.178,0.422,0.075,0.514c0.004,0.001,0.006,0.006,0.011,0.009
		c0.019,0.123,0.045,0.241,0.06,0.367c-0.004,0.014-0.006,0.027-0.011,0.041c-0.426-0.771-1.123-1.471-1.682-2.002
		c-0.799-0.76-1.832-1.554-2.932-2.078C135.256,74.279,135.774,73.804,136.332,73.455z M123.493,48.375
		c0.642-1.76,1.454-3.445,2.408-5.056c0.105-0.179,3.583-6.128,1.696-1.845c-2.791,6.339-5.322,12.258-4.603,19.166
		c-0.134,0.194-0.27,0.386-0.403,0.581c-0.185-0.4-0.235-0.911-0.395-1.332c-0.165-0.431-0.307-0.851-0.439-1.266
		C121.737,55.14,122.28,51.701,123.493,48.375z M128.52,40.131c0.083,0.018,0.18-0.005,0.242-0.062
		c0.353-0.326,0.765-0.704,1.214-1.106c1.213,0.04,2.457,0.209,3.7,0.463c-0.138,0.144-0.277,0.288-0.416,0.432
		c-0.202,0.21,0.112,0.555,0.345,0.381c0.271-0.202,0.556-0.417,0.85-0.638c0.823,0.19,1.64,0.412,2.445,0.655
		c0.018,0.18,0.21,0.335,0.417,0.21c0-0.001,0.04-0.021,0.107-0.052c0.253,0.08,0.502,0.163,0.752,0.246
		c-0.186,0.384-0.376,0.767-0.564,1.151c-0.143-0.167-0.392-0.345-0.791-0.536c-0.202-0.097-0.402,0.042-0.455,0.239
		c-0.024,0.095-0.053,0.187-0.078,0.28c-0.141-0.156-0.436-0.153-0.536,0.072c-1.345,3.012-2.808,5.949-4.381,8.821
		c1.057-2.834,1.817-5.792,2.231-8.88c0.042-0.314-0.449-0.507-0.56-0.174c-1.132,3.403-2.493,6.703-4.145,9.883
		c1.401-3.588,2.358-7.416,3.056-10.777c0.042-0.205-0.248-0.348-0.376-0.175c-3.989,5.358-6.791,11.443-7.913,18.052
		c-0.062,0.367-0.09,0.821-0.111,1.219c-0.082,0.122-0.169,0.24-0.252,0.362c-0.045-0.237-0.101-0.551-0.17-0.971
		c-0.402-2.456,0.166-5.229,0.757-7.627C124.879,47.586,126.681,43.823,128.52,40.131z M139.547,41.13
		c0.076,0.091,0.191,0.145,0.315,0.111c0.129,0.046,0.252,0.093,0.38,0.139c-0.761,1.531-1.568,3.032-2.401,4.517
		c0.535-1.588,0.964-3.224,1.291-4.912C139.271,41.033,139.41,41.082,139.547,41.13z M141.158,41.718
		c0.124,0.047,0.246,0.093,0.367,0.139c-0.016,0.021-0.036,0.035-0.05,0.059c-0.335,0.587-0.67,1.174-1.006,1.761
		C140.707,43.029,140.937,42.376,141.158,41.718z M142.066,41.623c-0.309-0.156-0.622-0.303-0.936-0.446
		c-0.109-0.159-0.297-0.247-0.479-0.214c-0.071-0.03-0.139-0.064-0.211-0.095c0.324-0.218,0.698-0.46,1.112-0.713
		c0.421-0.059,1.087-0.466,1.826-1.014c1.956-0.978,4.159-1.7,5.532-0.99c1.058,0.037,0.88,0.315-0.534,0.834
		c-0.787,0.406-1.575,0.812-2.364,1.217c-0.423,0.19-1.607,0.414-2.11,0.762c-0.591,0.203-1.183,0.402-1.773,0.619
		C142.104,41.594,142.087,41.61,142.066,41.623z M142.315,38.904c-0.703,0.289-1.625,0.721-1.581,1.006
		c-0.461,0.292-0.825,0.525-1.031,0.664c-0.208-0.081-0.417-0.161-0.627-0.236c-0.104-0.111-0.259-0.169-0.412-0.156
		c-0.152-0.052-0.306-0.095-0.458-0.145c2.125-1.023,7.358-3.535,7.36-3.477C145.576,36.775,143.903,37.885,142.315,38.904z
		 M133.626,54.612c0.004-0.005,0.009-0.006,0.012-0.011c1.305-1.921,2.539-3.881,3.713-5.874c-0.51,1.096-1.053,2.177-1.621,3.248
		c-0.552,0.967-1.105,1.934-1.658,2.901C133.929,54.784,133.779,54.697,133.626,54.612z M137.072,42.917
		c-0.273,0.548-0.551,1.093-0.829,1.638c0.063-0.434,0.108-0.865,0.129-1.291C136.579,43.164,136.834,43.049,137.072,42.917z
		 M128.01,51.85c-1.128,2.539-2.478,4.949-3.985,7.268c0.458-2.774,1.143-5.488,2.174-8.141c0.592-1.522,4.962-8.86,4.932-8.914
		C132.072,43.712,128.882,49.885,128.01,51.85z M122.673,61.921c0.139-0.18,0.277-0.359,0.416-0.54
		c0.042,0.306,0.079,0.61,0.134,0.92c0.001,0.008,0.009,0.011,0.011,0.019C122.947,62.276,122.763,62.14,122.673,61.921z
		 M123.615,62.346c-0.014,0.002-0.022-0.003-0.036-0.002c0.002-0.01,0.012-0.014,0.014-0.025c0.067-0.636,0.148-1.268,0.236-1.898
		c1.588-2.119,3.072-4.31,4.399-6.608c1.093-1.892,2.083-3.84,2.977-5.833c0.168-0.376,0.732-2.051,1.178-3.317
		c-0.358,1.407-0.716,3.373-0.871,3.875c-0.618,2.016-1.371,3.963-2.299,5.858c-0.876,1.788-2.539,3.584-3.361,5.387
		c-0.504,0.75-1.015,1.496-1.538,2.236c-0.204,0.289,0.201,0.646,0.428,0.361c0.575-0.727,1.123-1.467,1.647-2.218
		c0.468-0.54,0.908-1.305,1.298-1.988c0.238-0.383,0.467-0.771,0.693-1.16c1.912-3.001,3.685-6.093,5.3-9.264
		c0.299-0.588,1.883-5.036,2.081-5.117c-0.028,0.012,0.081,0.155,0.211,0.303c-0.634,2.194-1.381,4.344-2.268,6.438
		c-2.398,4.385-4.976,8.666-7.781,12.828c-0.057,0.083-0.066,0.171-0.048,0.25c-0.153,0.02-0.305,0.041-0.458,0.05
		C124.795,62.684,124.194,62.632,123.615,62.346z M129.958,61.134c-1.084,0.46-2.203,0.94-3.356,1.194
		c1.517-1.875,3.244-4.13,4.823-6.573C130.547,57.374,129.58,59.397,129.958,61.134z M132.25,54.43
		c1.315-2.173,2.471-4.455,3.221-6.714c0.566-1.016,1.119-2.037,1.668-3.061c-1.06,3.293-2.5,6.406-4.377,9.389
		c-0.044,0.07-0.06,0.142-0.063,0.21C132.536,54.265,132.381,54.329,132.25,54.43z M135.201,55.749
		c-0.008,0.018-0.005,0.034-0.012,0.051c-0.104-0.114-0.211-0.225-0.327-0.328c0.313-0.536,0.63-1.069,0.931-1.609
		c0.405-0.699,0.81-1.399,1.215-2.099L135.201,55.749z M137.7,56.068c0.005-0.004,0.01-0.006,0.014-0.01
		c0.139-0.131,0.278-0.262,0.417-0.393c0.188,0.037,0.391,0.011,0.578-0.104c0.101-0.063,0.202-0.125,0.304-0.188
		c0.033,0.075,0.082,0.145,0.136,0.209C138.674,55.763,138.189,55.924,137.7,56.068z M148.697,41.004
		c-1.651,0.702-3.349,1.126-5.118,1.455c-0.14,0.026-0.242,0.129-0.292,0.25c-0.206-0.076-0.439-0.05-0.592,0.168
		c-0.5,0.712-0.975,1.436-1.452,2.159c0.402-0.891,0.804-1.782,1.206-2.672c0.022-0.05,0.026-0.096,0.034-0.143
		c0.196,0.075,0.396,0.151,0.585,0.224c0.157,0.061,0.255-0.154,0.108-0.237c-0.088-0.05-0.182-0.093-0.271-0.143
		c0.372-0.12,0.744-0.237,1.107-0.367c1.204,0.617,6.398-2.701,7.97-2.373C152.131,39.357,149.081,40.842,148.697,41.004z
		 M148.929,39.405c0.719-0.421,1.428-0.875,2.131-1.368c0.153-0.107,0.169-0.341,0.072-0.489c0.677,0.254,1.363,0.526,1.975,0.802
		C151.7,38.667,150.31,39.023,148.929,39.405z M150.769,37.414c-2.034-0.114-4.015,0.028-5.941,0.574
		c0.979-0.817,1.876-1.619,2.284-1.912c0.031-0.022,0.053-0.048,0.072-0.075c0.185,0.095,0.367,0.196,0.553,0.288
		C148.151,36.494,149.407,36.911,150.769,37.414z M146.459,35.624c-2.126,0.678-4.241,1.474-6.223,2.516
		c0.032-0.024,0.066-0.048,0.093-0.07l4.223-3.35c0.053-0.041,0.077-0.093,0.092-0.146
		C145.237,34.944,145.843,35.292,146.459,35.624z M142.532,35.372c1.631-0.168-0.562,0.72-1.296,1.302
		c-1.301,1.03-2.603,2.061-3.907,3.088c-0.761-0.224-1.53-0.417-2.305-0.586C137.272,37.508,140.023,35.63,142.532,35.372z
		 M138.438,33.867c1.583-0.097-0.415,1.055-1.188,1.855c-1.049,1.088-2.099,2.177-3.149,3.265c-1.179-0.223-2.365-0.391-3.547-0.5
		c-0.011-0.001-0.022-0.002-0.033-0.003C132.852,36.451,136.033,34.014,138.438,33.867z M128.45,38.996
		c-0.019,0.144-0.026,0.294-0.037,0.443c-3.868,4.713-6.329,10.204-6.873,16.353c-0.056,0.635-0.046,1.279-0.044,1.921
		c-0.443-1.643-0.648-3.208-0.621-4.829c1.09-4.422,2.749-8.617,4.816-12.669c0.052-0.103-0.11-0.177-0.162-0.075
		c-1.924,3.749-3.501,7.65-4.603,11.706c0.074-1.023,0.222-2.078,0.453-3.206c0.016-0.076-0.03-0.126-0.087-0.142
		c0.61-2.965,1.645-5.755,3.12-8.479C125.648,39.398,127.016,39.092,128.45,38.996z M120.645,43.675
		c0.799-1.392,1.784-2.413,2.897-3.148c-0.561,0.991-1.12,1.981-1.662,2.984c-0.069,0.127,0.138,0.264,0.218,0.139
		c0.125-0.192,0.276-0.403,0.43-0.618c-0.417,0.915-0.86,1.849-0.965,2.181c-0.071,0.226-0.802,3.102-1.008,4.191
		c-0.003-0.228-0.007-0.455-0.01-0.682c0-0.044-0.069-0.038-0.068,0.006l0.008,1.085C118.028,49.613,120.063,44.687,120.645,43.675z
		 M128.134,73.216c0.619,0.333,1.257,0.627,1.914,0.88c1.737,0.194,1.985,0.811,0.745,1.849c-0.3,1.102-1.787,2.468-2.392,3.455
		c-1.186,1.931-2.032,3.958-2.606,6.106c-0.906-1.426-1.699-2.996-2.388-4.821c-1.485-3.931-2.514-8.595-5.181-11.934
		c0.427-1.038,1.138-2.662,1.723-3.611C120.343,68.884,125.148,71.678,128.134,73.216z M124.62,100.905
		c0.941-2.095,2.4-3.476,4.527-4.585c0.246-0.128,0.206-0.575-0.057-0.66c-2.357-0.767-4.734-1.348-7.214-1.554
		c-2.52-0.212-4.885,0.716-5.806-2.161c-0.882-2.754-0.543-6.582-0.781-9.48c-0.259-3.135-0.482-6.28-0.872-9.402
		c1.62-0.809,2.795-1.461,3.208-1.817c0.09-0.078,0.159-0.174,0.216-0.275c1.028,3.748,2.162,7.757,3.735,11.151
		c1.548,3.338,4.522,6.53,7.258,8.992c0.818,0.736,1.603,1.421,2.348,2.093c0.033,0.275,0.079,0.542,0.154,0.788
		c0.267,0.877,1.339,1.58,2.078,1.378c0.89,0.957,1.674,1.965,2.315,3.126c-0.086,0.602-0.107,1.208,0.005,1.819
		c0.099,0.546,0.626,0.957,1.136,0.931c0.039,0.129,0.076,0.263,0.111,0.396c-0.005,0.199-0.014,0.398-0.01,0.599
		c0.005,0.277,0.125,0.499,0.3,0.661c0.006,0.034,0.015,0.064,0.021,0.098c0.472,2.599,0.313,5.531,0.904,8.158
		C134.525,106.741,130.012,102.701,124.62,100.905z M137.881,115.242c1.398,2.073,3.299,3.906,5.174,5.449
		c0.835,0.688,2.908,2.5,4.509,2.76c-0.568,0.506-1.252,0.749-1.886,1.146c-0.06,0.037-0.106,0.085-0.146,0.138
		c-0.236-0.348-0.494-0.623-0.772-0.776c0.147-0.897-0.916-1.497-1.727-1.057c-1.334,0.724-2.501,1.728-3.526,2.849
		c0.822-1.428,1.41-2.995,1.538-4.644c0.005-0.063-0.077-0.076-0.095-0.017c-0.42,1.377-0.9,2.677-1.598,3.888
		c-0.293-1.935-0.91-5.599-3.445-5.02c0.842-1.594,1.399-3.353,1.406-5.166c0.001-0.04-0.061-0.04-0.067-0.002
		c-0.315,1.923-0.827,3.679-1.843,5.328c-0.049,0.02-0.097,0.043-0.146,0.064c0.224-0.54,0.591-1.069,0.791-1.499
		c0.249-0.537,0.444-1.086,0.622-1.65c0.174-0.557,0.219-1.192,0.405-1.73c-0.06-0.323,0.005-0.584,0.173-0.792
		C137.458,114.753,137.669,114.998,137.881,115.242z M131.038,112.729c0.617,0.156,1.2,0.38,1.701,0.719
		c1.476,0.998,1.882,2.114,1.902,3.347c-0.121-0.29-0.321-0.529-0.639-0.681c-1.033-0.493-2.505,0.174-3.542,0.237
		c-1.643,0.1-1.855-0.242-2.889-1.302c-0.142-0.145-0.062-0.441-0.301-0.559c-0.072-0.035-0.147-0.057-0.223-0.082
		c0.219-0.082,0.437-0.165,0.655-0.246c0.233-0.086,2.062-0.597,2.096-0.782c0-0.005-0.024-0.014-0.063-0.023
		c0.409-0.082,0.806-0.205,1.177-0.403C131.009,112.903,131.043,112.816,131.038,112.729z M124.365,113.116
		c1.642-0.454,3.916-0.829,5.91-0.535c-0.533,0.199-1.068,0.395-1.603,0.592c-0.728-0.111-1.58-0.228-1.812-0.238
		c-1.568-0.076-2.905,0.067-3.838,1.404c-0.157,0.225,0.131,0.469,0.325,0.275c1.181-1.178,2.803-1.1,4.416-1.104
		c-1.135,0.42-2.271,0.842-3.407,1.259c-1.009,0.37-1.895,1.296-2.382,0.03c-0.007-0.017-0.009-0.031-0.014-0.047
		c0.192-0.073,0.384-0.144,0.583-0.198c0.252-0.068,0.163-0.505-0.098-0.453c-0.188,0.038-0.366,0.097-0.548,0.149
		C122.027,113.447,123.432,113.374,124.365,113.116z M115.918,119.265c1.204-0.908,2.688-1.894,3.86-0.432
		c0.146,0.183,0.283,0.367,0.421,0.546c-1.327-0.224-2.751-0.039-4.011,0.276c-0.149,0.038-0.095,0.293,0.058,0.267
		c1.232-0.219,2.579-0.336,3.822-0.107c0.093,0.017,0.385,0.117,0.745,0.263c0.277,0.257,0.593,0.463,1.005,0.568
		c0.055,0.014,0.107,0.001,0.156-0.022c0.098,0.054,0.191,0.108,0.278,0.165c0.047,0.079,0.097,0.155,0.145,0.233
		c-1.817-0.707-4.019-0.756-5.376,0.283c-0.563-0.012-1.31-0.057-1.745-0.315C114.219,120.359,115.284,119.744,115.918,119.265z
		 M116.031,123.33c0.049,0.368,0.2,0.738,0.446,1.106c0.517,0.777,1.078,1.254,1.399,2.232c0.243,0.739,0.314,1.491,0.805,2.129
		c0.984,1.279,2.764,1.367,4.193,1.779c0.352,0.101,0.74,0.288,1.143,0.501c-0.008,0.01-0.007,0.025-0.013,0.036
		c-1.376,0.304-2.769,0.563-4.116,0.952c-1.078,0.313-1.928,0.791-2.52,1.755c-0.077,0.125,0.129,0.254,0.219,0.139
		c1.368-1.762,4.229-1.85,6.545-1.895c-0.009,0.021-0.021,0.041-0.027,0.062c-0.628,0.488-1.559,0.714-2.163,1.152
		c-0.901,0.655-1.458,1.625-2.019,2.557c-0.655,1.089-1.301,2.196-1.725,3.397c-0.147,0.419-0.271,0.845-0.375,1.277
		c-0.339-3.376-1.832-7.09-2.702-10.144c-0.655-2.298-1.417-4.165-3.534-5.004c-0.032-0.09-0.074-0.178-0.136-0.26
		C111.243,124.825,114.408,123.566,116.031,123.33z M109.562,122.144c1.358,0.286,1.693-0.212,1.091,0.361
		c-0.055,0.033-0.113,0.055-0.167,0.089c-0.962,0.612-1.257,1.052-1.349,1.582c-0.977,1.075-1.988,2.094-2.871,3.287
		c-0.176,0.237-0.006,0.521,0.273,0.528c0.631,0.015,0.583,0.022,1.008-0.457c0.187-0.21-0.11-0.553-0.338-0.373
		c0.668-0.526,1.281-1.169,1.879-1.846c-0.004,0.204-0.014,0.424-0.039,0.672c-0.215,2.079-1.314,4.637-1.52,7.139
		c-0.275-0.318-0.621-0.591-0.953-0.804c-0.364-0.234-0.906-0.188-1.19,0.104c-0.06-0.018-0.124-0.032-0.176-0.057
		c-0.389,0.077-0.548-0.058-0.477-0.405c0.083-0.17,0.175-0.336,0.274-0.498c0.479-0.843,0.99-1.646,1.355-2.546
		c0.144-0.05,0.181-0.242,0.06-0.354c-0.029-0.182-0.147-0.345-0.353-0.372c-0.084-0.011-0.139-0.018-0.196-0.025
		c0.053-0.079,0.12-0.147,0.17-0.23c0.142-0.242-0.082-0.49-0.325-0.513c1.017-1.051,1.296-2.775,1.318-4.554
		c0.208-0.177,0.42-0.348,0.624-0.529c0.03,0.492,0.059,0.983,0.094,1.478c0.026,0.351,0.56,0.303,0.543-0.046
		c-0.024-0.51-0.063-1.02-0.091-1.529C108.659,122.234,109.111,122.208,109.562,122.144z M106.796,117.748
		c0.001-0.273,0.018-0.605,0.04-0.96c0.108,0.542,0.23,1.057,0.345,1.316c-0.116,0.229-0.231,0.459-0.348,0.688
		C106.809,118.41,106.794,118.058,106.796,117.748z M107.027,121.889c-0.028-0.849-0.095-1.685-0.15-2.44
		c0.096-0.179,0.192-0.357,0.287-0.537c0.01,0.18,0.066,0.408,0.168,1.077c0.014,0.088,0.094,0.117,0.16,0.1
		c-0.013,0.519-0.002,1.044,0.115,1.429c0.004,0.074,0.01,0.149,0.014,0.224c-0.009,0.008-0.018,0.017-0.027,0.025
		C107.395,121.802,107.207,121.844,107.027,121.889z M107.501,119.25c-0.031-0.267-0.059-0.534-0.09-0.8
		c0.021-0.039,0.041-0.075,0.061-0.114C107.481,118.641,107.49,118.945,107.501,119.25z M111.548,110.417
		c0.99-2.01,1.974-4.025,2.92-6.056c0.412-0.885,1.016-1.916,1.558-2.968c0.104,0.566,0.183,1.041,0.183,1.321
		c0.006,4.151-1.03,8.27-2.974,11.935c-0.967,1.824-2.151,3.537-3.533,5.071c-0.489,0.544-1.015,1.05-1.554,1.542
		c-0.047-0.787-0.086-1.575-0.141-2.36c-0.013-0.515-0.021-0.909-0.022-0.984c-0.005-0.177-0.002-0.352-0.005-0.528
		C109.196,115.08,110.393,112.76,111.548,110.417z M107.408,117.654c-0.031,0.001-0.061,0.016-0.067,0.057
		c-0.002,0.014-0.004,0.026-0.006,0.04c-0.108-0.955-0.242-1.906-0.368-2.858c0.048-0.691,0.09-1.428,0.108-2.181
		c0.143,1.622,0.268,3.244,0.372,4.869C107.433,117.604,107.42,117.629,107.408,117.654z M106.142,86.135
		c-0.028-0.247-0.563-4.197-0.511-4.208c1.86-0.396,2.823,5.684,2.911,6.2c1.012,5.979,0.054,12.027-0.604,17.994
		c-0.21-3.579-0.54-7.158-0.852-10.706C106.813,92.317,106.498,89.224,106.142,86.135z M107.165,109.246
		c0.071,0.02,0.139,0.025,0.204,0.023c0.052,0.635,0.102,1.27,0.155,1.904c-0.023,0.48-0.037,0.958-0.052,1.437
		c-0.113-1.129-0.237-2.256-0.368-3.382C107.126,109.233,107.141,109.24,107.165,109.246z M98.058,105.72
		c2.174,3.198,5.532,9.062,6.479,14.176c-0.094,0.628-0.168,1.174-0.208,1.602c-0.004,0.05-0.007,0.112-0.01,0.168
		c-1.192-2.013-1.741-6.033-2.294-7.484c-0.925-2.43-2.221-4.699-3.688-6.838c-1.134-1.653-2.599-3.905-4.267-5.957
		C95.579,102.592,96.87,103.972,98.058,105.72z M85.937,135.603c-0.552-6.32,0.219-13.122,0.412-19.462
		c0.192-6.332-0.372-13.043,1.912-18.985c0.846,0.979,1.705,1.537,2.876,2.229c0.333,0.197,0.653,0.396,0.967,0.598
		c0.61,0.829,1.17,1.681,1.529,2.096c2.154,2.495,4.223,5.072,5.88,7.93c1.034,1.786,1.935,3.657,2.56,5.627
		c0.522,1.646,0.443,3.546,1.045,5.108c0.388,1.006,0.563,1.564,1.167,1.98c-0.017,0.758-0.044,1.649-0.187,2.435
		c-2.207,0.669-4.312,1.547-6.309,2.629c-3.771,1.085-12.967,5.016-10.724,9.652c0.083,0.173,0.338,0.274,0.476,0.087
		c2.391-3.264,5.357-6.027,8.8-8.165c0.304-0.188,0.615-0.364,0.925-0.542c0.63-0.178,1.268-0.328,1.912-0.446
		c0.438-0.081,1.044-0.086,1.694-0.073c-5.037,2.892-10.268,5.482-13.863,10.249C86.43,137.649,86.03,136.678,85.937,135.603z
		 M99.859,127.476c0.809-0.374,1.629-0.724,2.465-1.029c0.522-0.191,1.051-0.363,1.583-0.525c-0.161,0.467-0.39,0.849-0.723,1.064
		C102.538,127.404,101.105,127.416,99.859,127.476z M103.132,128.349c-2.878,1.148-5.653,2.523-8.28,4.188
		c-0.346,0.219-0.673,0.462-1.012,0.689c0.032-0.024,0.063-0.051,0.096-0.075c2.026-1.48,4.155-2.783,6.375-3.949
		c0.59-0.311,1.298-0.578,2.018-0.862C102.608,128.349,102.875,128.351,103.132,128.349z M94.494,129.841
		c-0.993,0.708-1.956,1.471-2.877,2.307c-0.309,0.282-3.825,3.83-3.672,3.952c-1.51-1.222,2.924-4.242,3.811-4.813
		C92.625,130.727,93.549,130.259,94.494,129.841z M93.558,144.688c-1.881-1.659-4.434-3.354-6.061-5.451
		c2.419-2.257,4.976-4.31,7.78-6.077c1.635-1.03,3.337-1.97,5.083-2.801c0.731-0.349,3.907-1.596,3.905-1.593
		c-0.318,0.61-2.336,1.375-2.982,1.848c-1.076,0.789-2.058,1.687-3.062,2.561c-2.2,1.913-4.369,3.987-6.311,5.94
		c0.217-0.219-0.153-0.533-0.368-0.31c-0.204,0.212-0.409,0.426-0.613,0.638c-0.179,0.187,0.112,0.518,0.31,0.342
		c2.869-2.547,5.655-5.277,8.705-7.609c0.752-0.575,1.647-1.021,2.535-1.474c-0.043,0.049-0.09,0.101-0.129,0.144
		c-0.083,0.092,0.064,0.214,0.147,0.124c0.108-0.118,0.289-0.315,0.508-0.542c0.677-0.355,1.33-0.733,1.893-1.192
		c-0.389,0.471-0.762,0.958-1.11,1.459c-0.351,0.506-0.712,1.02-0.713,1.661c-0.003,1.498,1.833,1.625,2.979,1.833
		c0.207,0.287,0.389,0.588,0.668,0.854c0.254,0.243,0.557,0.246,0.81,0.121c0.194,2.542,1.061,4.879,2.805,6.864
		c1.064,1.21,2.872,2.631,4.454,3.093c0.776,0.517,1.775,0.483,2.656,0.142c-0.597,1.152-0.978,2.38-0.017,3.411
		c0.126,0.135,0.278,0.255,0.441,0.369c-0.036,0.073-0.083,0.144-0.118,0.217c-1.716,3.258-3.007,6.887-4.303,10.295
		c-0.387,1.018-0.679,1.94-0.643,2.823c-2.94-4.214-7.642-7.454-11.395-10.763L93.558,144.688z M114.755,189.713
		c-5.59-0.361-11.538-1.389-17.166-0.926c1.189-1.617,2.113-3.081,2.414-5.216c0.481-3.413-0.416-6.977-0.651-10.374
		c-0.481-6.965,0.669-14.175-0.877-21.035c5.001,4.163,10.084,8.284,14.766,12.765c0.331,0.317,0.713,0.036,0.775-0.318
		c0.069-0.021,0.13-0.064,0.152-0.129c0.765-2.416,2.059-4.493,3.601-6.494c0.617-0.801,1.226-1.542,1.729-2.358
		c0.015-0.01,0.03-0.02,0.044-0.029c0.738,0.613,1.699,0.924,2.907,1.074c3.592,0.448,7.351-0.565,10.897-0.989
		c2.025-0.242,4.771,0.614,6.656-0.195c-0.751,5.257-1.348,10.529-1.731,15.827c-0.146,2.018-0.266,4.037-0.355,6.057
		c-0.068,1.513,0.568,8.527-0.722,9.24c-0.021,0.012-0.032,0.031-0.042,0.051c-0.009,0.003-0.019,0.001-0.029,0.004
		C129.621,189.34,122.713,190.228,114.755,189.713z"/>
	<path id="XMLID_581_" fill="#414042" d="M262.935,294.136c-0.118-0.233-0.505-0.103-0.388,0.138
		c0.935,1.92,1.737,4.066,2.952,5.826c0.103,0.149,0.335,0.028,0.279-0.142C265.113,297.945,263.894,296.022,262.935,294.136z"/>
	<path id="XMLID_584_" fill="#414042" d="M263.082,251.141c0.255-7.741-8.017-10.731-14.258-12.456
		c-4.978-1.375-9.781-2.889-14.295-5.44c-4.626-2.615-12.75-7.67-12.863-13.576c-0.011-0.554-0.556-1.178-1.121-1.224
		c-2.881-0.234-5.739-0.627-8.632-0.511c-0.052,0.001-0.096,0.021-0.142,0.034c0.825-0.543,1.628-1.124,2.412-1.742
		c0.723,0.227,1.377,0.255,1.805-0.111c1.636-1.399-1.201-4.044-2.121-4.829c-2.41-2.057-5.19-3.524-8.172-4.566
		c-0.457-0.159-0.979-0.097-1.336,0.184c-0.37-1.671-0.657-3.328-0.876-4.988c1.087-0.313,2.165-0.657,3.224-1.068
		c0.274-0.107,0.19-0.527-0.11-0.506c-1.104,0.078-2.188,0.241-3.26,0.451c-0.33-2.937-0.444-5.897-0.396-8.983
		c0.086-5.328,0.546-10.828-0.492-16.094c-0.78-3.962-2.733-6.939-5.134-10.115c-3.5-4.629-6.108-9.612-9.204-14.481
		c-0.172-0.27-0.521-0.033-0.461,0.235c2.334,10.408,11.895,17.351,12.747,28.102c0.563,7.098,0.051,14.596,1.017,21.766
		c-1.785,0.451-3.544,1.014-5.303,1.582c-0.094,0.007-0.189,0.017-0.282,0.023c-6.687,0.521-13.508-0.752-19.543-3.686
		c-3.915-1.902-7.16-4.558-10.189-7.493c3.036,2.021,6.453,3.597,9.578,4.703c5.044,1.786,10.649,1.686,16.093,1.472
		c0.829,0.002,1.662-0.022,2.503-0.101l0,0c1.04-0.041,2.072-0.076,3.088-0.092c0.249-0.004,0.214-0.386-0.032-0.383
		c-2.352,0.024-4.708,0.077-7.063,0.103c-12.51-1.316-24.798-10.617-30.673-22.069c-1.456-6.654-2.648-13.332-2.874-20.352
		c-0.003-0.109-0.175-0.116-0.19-0.008c-2.061,13.954,3.474,28.182,5.065,41.939c0.216,1.864,0.508,3.773,0.755,5.68
		c-0.227,0.038-0.345,0.367-0.146,0.522c0.077,0.06,0.156,0.115,0.233,0.175c0.176,1.437,0.319,2.87,0.37,4.277
		c0.072,1.973,0.006,3.788,0.298,5.591l-0.425-0.203c-0.132-0.063-0.332-0.029-0.421,0.095c-0.013,0.018-0.021,0.037-0.033,0.054
		c-0.294-0.206-0.776-0.07-0.736,0.397c0.058,0.668,0.143,1.326,0.239,1.98c0.02,0.191,0.049,0.386,0.088,0.585
		c0.166,0.987,0.378,1.956,0.634,2.907c-0.401-0.92-0.785-1.852-1.133-2.808c-0.144-0.395-0.831-0.28-0.745,0.161
		c0.805,4.128,2.166,8.058,4.184,11.688c-0.065-0.093-0.136-0.184-0.201-0.276c-2.129-3.077-3.78-6.4-5.174-9.866
		c-0.081-0.201-0.405-0.146-0.381,0.083c0.05,0.479,0.13,0.943,0.209,1.41c-0.535-0.552-1.629-0.499-1.73,0.461
		c-0.089,0.849-0.039,1.605,0.096,2.323c-0.121-0.085-0.241-0.17-0.361-0.254c-0.796-0.561-1.643,0.274-1.218,1.104
		c0.092,0.18,0.193,0.359,0.287,0.54c-1.003,0.793-2.261,1.394-3.418,2.06c2.048-5.354,3.152-10.762,3.959-16.69
		c0.85-6.235,2.113-13.859,0.34-20.016c-0.047-0.165-0.333-0.15-0.344,0.029c-0.766,13.262-4.414,26.103-6.723,39.108
		c-0.028,0.05-0.068,0.091-0.094,0.141c-0.918,1.801-0.974,4.842-1.612,6.77c-0.653,1.972-1.423,3.913-2.207,5.835
		c-2.958,7.256-6.582,14.193-10.503,20.971c-1.415,2.446-2.999,4.86-4.439,7.34c0.644-3.045,1.242-6.104,2.078-9.09
		c1.656-5.913,2.574-12.066,3.488-18.134c0.821-5.454,1.464-10.809,0.809-16.296c-0.813-6.806,0.912-13.98,1.917-20.718
		c0.049-0.323-0.438-0.409-0.5-0.087c-1.188,6.158-2.611,12.271-3.798,18.425c-1.143,5.925-0.884,12.094-1.78,18.095
		c-1.628,10.909-4.16,22.054-4.901,33.117c-0.793,1.92-1.393,3.911-1.666,6.016c-1.143,8.829-0.873,17.958-1.31,26.845
		c-0.014,0.266,0.382,0.352,0.419,0.072c1.118-8.346,2.497-16.676,3.419-25.043c0.418-3.792,0.834-7.129,2.584-10.567
		c1.724-3.386,3.676-6.66,5.456-10.018c3.536-6.669,6.928-13.453,9.699-20.48c1.263-3.206,2.062-8.402,4.272-11.106
		c1.353-1.654,3.648-2.203,5.171-3.694c0.298-0.292,0.545-0.583,0.777-0.878c2.253,3.99,4.956,7.943,7.746,11.441
		c0.186,0.232,0.437,0.367,0.704,0.426c0.013,0.243,0.026,0.476,0.021,0.671c-0.021,0.829-0.046,1.661-0.062,2.492
		c-1.511-0.699-3.428-0.064-4.961,0.647c-0.653,0.303-0.701,1.131-0.067,1.487c1.88,1.058,2.269,3.389,3.472,5.014
		c0.57,0.771,1.817,2.097,2.88,1.426c0.687-0.435,0.884-1.072,0.794-1.79c0.555,0.265,1.251,0.38,2.012,0.364
		c-0.646,1.953-0.858,4.521-1.059,6.767c-0.56,2.425-1.029,4.882-1.577,7.282c-0.627,2.754-1.474,5.656-1.819,8.535
		c-0.027-1.614,0.018-3.229,0.155-4.839c0.501-5.854,1.614-10.732-1.335-16.177c-3.627-6.696-10.869-10.453-8.372-19.256
		c0.053-0.186-0.261-0.285-0.326-0.102c-1.076,3.063-1.186,6.122,0.146,9.144c2.306,5.23,7.598,8.563,7.966,14.757
		c0.342,5.731-1.268,11.467-0.814,17.282c0.441,5.655,1.697,11.132,3.135,16.604c0.779,2.967,1.634,5.915,2.388,8.887
		c0.577,2.272,1.44,3.249-0.61,4.977c-2.165,1.823-1.994,0.505-3.348-1.224c-3.063-3.914-6.297-7.798-10.585-10.431
		c-6.765-4.152-17.238-4.135-23.777,0.596c-0.187,0.135-0.146,0.491,0.112,0.515c8.126,0.74,13.859,5.629,19.911,10.634
		c0.266,0.219,0.604-0.183,0.345-0.409c-4.614-4.039-9.419-7.666-15.266-9.702c-3.494-1.217-5.341-1.364,0.009-2.835
		c4.558-1.251,10.103-1.666,14.559-0.039c7.212,2.633,11.263,8.947,15.915,14.58c1.458,1.766,2.679,3.217,4.221,0.558
		c0.899-1.549,0.911-3.615,0.563-5.768c0.106,0.231,0.199,0.468,0.309,0.696c0.076,0.157,0.317,0.08,0.259-0.092
		c-2.185-6.4-3.692-12.877-3.927-19.497c0.149-0.019,0.295-0.137,0.283-0.306c-0.149-1.982-0.168-3.958-0.105-5.93
		c0.083-0.907,0.185-1.815,0.322-2.729c0.668-4.414,2.163-8.346,4.241-12.262c1.474-2.778,2.57-5.286,2.612-8.459
		c0.004-0.346-0.269-0.625-0.547-0.778c-0.193-0.33-0.387-0.66-0.58-0.989c0.044-0.299-0.152-0.551-0.413-0.618
		c1.017-0.402,1.929-0.975,2.544-1.665c0.342-0.076,0.622-0.348,0.805-0.655c0.298,1.443,0.675,2.928,0.709,4.11
		c0.167,5.656-0.96,11.228-2.332,16.688c-1.333,5.307-3.018,10.533-4.146,15.892c-0.567,2.697-0.421,5.48-0.481,8.232
		c-0.023,1.033-0.586,3.5,0.228,4.335c1.486,1.524,4.267-0.813,5.67-1.325c5.169-1.89,10.774-2.314,16.234-2.458
		c0.847-0.021,1.79,0.041,2.754,0.1c-0.737,0.203-1.472,0.378-2.194,0.425c-2.411,0.154-4.617,0.08-6.974,0.61
		c-0.002,0-0.004,0-0.007,0l0.001,0.001c-0.047,0.012-0.094,0.019-0.141,0.029c-0.671,0.157-0.345,1.071,0.235,1.086
		c1.881,0.05,11.078-0.682,12.829,1.019c-0.726,1.651-1.542,3.245-2.235,4.706c-2.167,4.563-2.906,8.02,0.824,12.038
		c0.298,0.321,0.919-0.105,0.719-0.498c-3.03-5.97,3.409-13.558,5.126-19.448c1.094-3.759-0.94-6.888,0.328-10.46
		c1.068-3.006,2.162-5.981,3.035-9.054c1.733-6.104,3.097-12.222,0.632-18.301c-1.844-4.549-5.044-8.438-8.124-12.306
		c0.805,0.635,1.598,1.287,2.349,1.994c6.96,6.553,15.732,18.614,11.726,28.502c-0.106,0.265,0.262,0.431,0.399,0.185
		c4.338-7.755-1.173-16.376-5.524-22.834c-1.498-2.223-3.14-4.245-4.896-6.183c0.22,0.199,0.428,0.407,0.657,0.6
		c0.25,0.211,0.526-0.151,0.318-0.378c-1.79-1.948-3.709-3.835-5.28-5.969c-0.667-0.902-3.038-5.981-2.749-7.935
		c0.296-0.142,0.578-0.306,0.848-0.488c0.271,1.086,1.36,5.01,1.453,5.229c0.744,1.761,1.755,3.297,3.041,4.716
		c0.224,0.247,0.586,0.007,0.429-0.293c-1.731-3.294-2.211-6.612-1.698-10.028c0.743,2.16,1.757,4.311,2.466,6.462
		c0.807,2.452,1.879,4.643,3.279,6.815c2.782,4.317,6.376,7.997,10.974,10.349c0.257,0.131,0.522-0.267,0.276-0.437
		c-1.618-1.119-3.01-2.349-4.233-3.678c0.337,0.275,0.684,0.546,1.039,0.809c5.866,4.336,12.893,6.362,19.368,9.54
		c2.646,1.3,4.876,2.14,5.691,5.334c0.334,1.309,0.265,2.904,0.554,4.272c0.545,2.588,1.214,5.318,2.693,7.553
		c1.466,2.215,3.166,3.085,5.522,4.026c2.984,1.191,4.777,1.612,6.302,4.408c0.897,1.646,1.769,3.306,2.668,4.95
		c0.233,0.426,0.977,0.052,0.765-0.391c-1.286-2.686-2.364-6.249-4.346-8.517c-1.735-1.985-4.56-2.088-6.514-3.721
		c-5.089-4.253-2.099-12.833-7.169-16.759c-2.401-1.86-5.668-2.727-8.462-3.803c-3.658-1.411-7.356-2.747-10.903-4.429
		c-3.786-1.797-7.403-4.073-10.2-7.226c-1.438-2.314-2.577-4.862-3.585-7.634c-1.225-3.363-1.993-8.8-5.675-10.31
		c0.059-0.213,0.124-0.428,0.189-0.642c0.537-0.034,1.066-0.056,1.572-0.117c0.799,0.287,1.585,0.106,2.212-0.879
		c0.347-0.316,0.646-0.741,0.888-1.32c0.142-0.341,0.232-0.708,0.286-1.09c0.104-0.007,0.206-0.015,0.318-0.049
		c1.164-0.365,2.266-0.828,3.32-1.368c0.082,0.522,0.675,0.534,1.144,0.491c0.628-0.058,1.234-0.104,1.868-0.054
		c0.651,0.051,1.385,0.328,2.026,0.204c0.02-0.004,0.04-0.015,0.061-0.024c1.546,0.35,3.105,0.624,4.673,0.91
		c0.603,3.122,3.299,5.171,5.77,7.132c3.469,2.752,7.191,5.196,11.163,7.16c8.778,4.34,23.486,4.301,25.695,16.025
		C261.879,252.135,263.054,252.023,263.082,251.141z M214.705,213.361c0.392,0.436,0.624,0.842,0.524,1.144
		c-0.015,0.046-0.043,0.075-0.064,0.113c-1.088-0.303-2.109-0.715-3.067-1.232C213.042,213.686,213.961,213.77,214.705,213.361z
		 M206.376,208.261c1.46,0.018,4.032,1.833,4.899,2.42c0.165,0.111,0.466,0.31,0.826,0.558c-1.918-0.897-3.836-1.796-5.754-2.693
		C206.357,208.449,206.367,208.355,206.376,208.261z M212.581,212.488c-1.438-0.415-3.217-1.391-3.916-1.696
		c-0.421-0.185-0.724,0.24-0.588,0.591c-0.768-0.582-1.509-1.245-1.837-1.845C208.354,210.521,210.467,211.505,212.581,212.488z
		 M201.085,220.763c-0.44-0.702-0.778-1.476-1.031-2.266c-0.461-1.436-0.574-2.984-0.632-4.48c-0.032-0.848-0.122-1.233,0.406-1.921
		c0.347,1.988,0.885,3.898,1.651,5.777c0.24,0.591,0.735,2.831,1.62,2.925c0.221,0.024,0.39-0.002,0.532-0.053
		c-0.071,0.065-0.128,0.119-0.209,0.191C201.934,222.263,201.999,222.222,201.085,220.763z M202.868,216.701
		c-0.191-0.238-0.648-0.06-0.51,0.26c0.259,0.586,0.609,1.155,0.481,1.818c-0.203,1.059-0.852-1.006-1.076-1.491
		c-0.191-0.419-1.828-4.487-1.442-4.739c1.125-0.734,2.669,3.152,2.929,3.722c0.213,0.468,0.414,0.941,0.613,1.415
		c0.06,0.417,0.089,0.838,0.088,1.263C203.669,218.005,203.107,216.997,202.868,216.701z M202.786,214.053
		c-0.023,0.126-0.007,0.247,0.027,0.363c-0.601-1.122-1.325-2.107-2.469-2.773c0.876-0.433,1.808,0.662,2.422,1.503
		c0.04,0.054,0.088,0.12,0.133,0.181c-0.046,0.243-0.093,0.484-0.137,0.728C202.771,214.053,202.778,214.053,202.786,214.053z
		 M203.434,215.685c-0.152-0.334-0.308-0.658-0.469-0.977c0.092,0.12,0.21,0.216,0.344,0.287c0.06,0.271,0.119,0.54,0.182,0.809
		C203.472,215.765,203.452,215.725,203.434,215.685z M170.423,196.216c6.911,5.103,15.388,7.505,23.811,7.185
		c-2.616,0.824-5.259,1.568-8.02,1.863c-7.246,0.775-14.484-0.366-21.501-2.145c0.059-0.889,0.075-1.779-0.002-2.678
		c-0.264-3.068-0.849-6.107-1.483-9.118c-0.138-0.654-0.279-1.306-0.421-1.956C164.986,191.934,167.912,194.361,170.423,196.216z
		 M170.305,188.796c4.754,4.211,10.439,7.406,16.589,8.561c-0.557-0.004-1.113-0.003-1.67-0.015
		c-5.609-0.114-10.313-1.555-15.188-4.199c-1.945-1.056-3.898-2.126-5.694-3.422c-0.229-0.166-0.739-0.644-1.29-1.159
		c-0.186-0.196-0.371-0.396-0.557-0.591c-0.877-3.917-1.811-7.775-2.671-11.634C162.5,181.068,166.302,185.248,170.305,188.796z
		 M163.297,214.075c0.159,0.651,0.371,1.305,0.672,1.967c2.165,4.751,5.922,8.76,10.737,10.818c0.292,0.125,0.499-0.316,0.207-0.449
		c-3.223-1.462-5.746-3.525-7.92-6.325c-1.552-2-2.386-4.002-2.756-6.13c0.077-0.098,0.079-0.266-0.054-0.332
		c-0.25-1.663-0.23-3.405-0.047-5.289c0.116-1.203,0.291-2.396,0.427-3.591c5.018,3.291,10.689,5.215,16.788,5.448
		c1.78,0.068,3.724,0.069,5.717-0.039c-0.143,0.047-0.284,0.098-0.427,0.143c-6.043,1.937-13.033,3.935-19.43,3.099
		c-0.436-0.057-0.556,0.605-0.117,0.677c5.976,0.975,12.521-0.92,18.213-2.663c1.375-0.421,2.716-0.917,4.05-1.43
		c4.507-0.455,9.063-1.574,12.443-3.931c0.258-0.18,0.108-0.596-0.204-0.571c-4.038,0.315-7.749,2.042-11.503,3.549
		c-6.794,0.948-13.696,0.779-20.125-1.98c-1.334-0.573-2.633-1.238-3.876-1.99c-0.625-0.379-1.105-0.679-1.464-0.914
		c0.018-0.181,0.035-0.36,0.05-0.541c0.717,0.229,1.693,0.575,2.358,0.728c3.414,0.777,6.873,1.36,10.367,1.622
		c6.172,0.461,12.138-0.26,18.003-2.218c0.603-0.201,1.249-0.382,1.911-0.558c1.434-0.169,2.858-0.431,4.27-0.76
		c0.407,2.554,1.026,5.06,1.969,7.485c-0.084,0.448-0.168,0.897-0.256,1.345c-0.805-0.848-1.827-1.465-3.033-1.552
		c-1.533-0.111-2.481,0.619-2.629,2.141c-0.003,0.034-0.004,0.069-0.007,0.104c-0.356,0.595-0.7,1.198-1.077,1.774
		c-0.636,0.972-1.591,1.818-2.077,2.867c-0.752-0.354-1.584-0.592-2.376-0.581c-0.033-0.008-0.062-0.028-0.096-0.032
		c-0.046-0.004-0.091-0.009-0.136-0.014c-0.083-0.009-0.167-0.007-0.251,0.001c-1.294-0.498-2.777-0.483-3.785,0.481
		c-0.602,0.575-0.604,1.12-0.481,1.765c-1.322,0.199-2.633,0.426-3.554,1.503c-0.291,0.341-0.492,0.717-0.64,1.113
		c-0.056-1.29-0.18-2.492-1.834-2.622c-1.878-0.148-3.873,1.625-5.077,2.86c-0.306,0.313-0.381,0.865-0.229,1.265
		c0.448,1.184,1.489,2.128,1.383,3.354c-0.646,0.627-1.283,1.336-1.736,2.094c-0.013-0.006-0.024-0.014-0.039-0.019
		c-0.069-0.022-0.137-0.036-0.203-0.047c-1.021-1.012-3.762-1.324-5.341-0.607c-1.441-1.611-2.774-3.274-3.94-5.101
		c-0.644-1.009-1.206-2.034-1.745-3.104C164.369,218.833,162.304,214.781,163.297,214.075z M192.971,208.561
		c0.944-0.375,1.893-0.743,2.85-1.092c0.849-0.309,4.646-1.573,4.496-1.151c-0.407,1.145-5.245,1.841-6.421,2.071
		C193.588,208.448,193.279,208.504,192.971,208.561z M192.934,227.428c-0.091-0.122-0.338-0.104-0.349,0.076
		c-0.009,0.132,0,0.255-0.003,0.385c-0.382,0.104-0.77,0.196-1.171,0.256c-0.283,0.042-0.893,0.159-1.455,0.212
		c-0.178-0.474-0.446-0.938-0.745-1.398c0.596-1.008,1.035-1.969,0.862-3.188c-0.101-0.7-0.312-1.311-0.478-1.924
		c0.094-0.67,0.134-1.346,0.079-2.01c-0.018-0.228-0.074-0.447-0.136-0.657c-0.004-0.18-0.061-0.358-0.154-0.519
		c-0.155-0.589-0.12-1.06,1.004-1.329c0.062-0.016,0.125-0.018,0.187-0.027c0.059,0.438,0.327,0.864,0.76,0.991
		c0.002,0.042-0.012,0.07-0.003,0.118c-0.009,0.31-0.001,0.619,0.021,0.928c0.027,0.52,0.083,1.035,0.177,1.546
		c0.178,0.958,0.487,1.879,0.929,2.748c0.584,1.149,1.44,2.369,2.722,2.799c0.126,0.042,0.262,0.067,0.397,0.092
		c-0.761,0.499-1.573,0.903-2.437,1.196C193.07,227.625,193.005,227.524,192.934,227.428z M174.03,240.535
		c0.036-0.111,0.038-0.234-0.023-0.345c-1.099-2.011-2.31-3.886-4.477-4.874c-0.124-0.057-0.257-0.112-0.395-0.167
		c1.792,0.306,3.704,1.444,5.55,1.603c0.296,1.461-0.021,2.919-0.052,4.421C174.417,240.943,174.208,240.726,174.03,240.535z
		 M169.449,237.365c0.819,0.425,1.578,1.047,2.29,1.717c0.119,0.13,0.231,0.256,0.341,0.38c-0.669-0.414-1.446-0.398-2.187,0.44
		c-0.192,0.219-0.009,0.665,0.309,0.598c0.171-0.046,0.344-0.082,0.518-0.107c1.244,0.096,1.981,0.641,2.197,1.644
		c-0.252,0.55-0.505,1.1-0.758,1.649c-0.705,0.279-1.919-1.981-2.174-2.526c-0.285-0.605-0.499-1.251-0.685-1.894
		C169.06,238.441,168.312,237.193,169.449,237.365z M172.042,229.189c1.082,0.076,2.284,0.308,3.039-0.118
		c0.01,0.007,0.021,0.014,0.031,0.021c-0.085,0.374-0.114,0.753-0.055,1.137c0.047,0.308,0.215,0.645,0.532,0.759
		c0.197,0.069,0.412,0.147,0.633,0.228c0.025,0.071,0.058,0.14,0.088,0.21c-0.538,0.121-1.091,0.165-1.644,0.121
		c-0.324-0.026-0.65-0.08-0.965-0.157c-0.148-0.044-0.296-0.087-0.443-0.13c-0.591-0.185-0.699-0.701-0.325-1.55
		c0.16-0.056,0.073-0.291-0.087-0.246c-1.048,0.298-0.761,1.537-0.049,2.039c1.043,0.736,2.465,0.711,3.72,0.488
		c0.021,0.001,0.04-0.006,0.062-0.006c0.114,0.198,0.231,0.395,0.372,0.575c0.131,0.168,0.274,0.297,0.402,0.409
		c-0.624,0.391-1.191,0.895-1.606,1.465c-0.227-0.018-0.459,0.028-0.674,0.137c-0.246-0.006-0.484-0.025-0.694-0.058
		c-1.005-0.156-2.082-0.558-2.634-1.455c-0.672-1.091-0.017-1.855,0.237-2.937C172.046,229.846,172.069,229.511,172.042,229.189z
		 M188.44,225.813c0.198-0.572,0.465-1.137,0.622-1.585c0.093,0.702-0.006,1.423-0.257,2.126
		C188.683,226.173,188.56,225.993,188.44,225.813z M187.52,221.354c0.16,0.302,0.381,0.551,0.595,0.803
		c0.123,1.021,0.148,2.048,0.016,3.169c-0.188-0.312-0.354-0.62-0.47-0.926c-0.52-1.383-0.724-2.899-2.482-2.483
		c-0.484-0.135-0.974-0.163-1.459-0.118c0.164-0.712,0.615-1.118,1.871-1.335c0.488-0.084,1.022-0.088,1.556-0.079
		C187.215,220.692,187.332,221,187.52,221.354z M179.952,223.462c-0.209-0.8-0.315-1.564-0.185-2.444
		c0.022-0.147-0.204-0.188-0.23-0.039c-0.153,0.871-0.143,1.834,0.132,2.698c-0.115,0.089-0.229,0.181-0.34,0.271
		c-0.094-0.536-0.269-1.082-0.475-1.587c-0.396-0.967-0.463-1.01,0.002-1.825c0.748-1.312,2.899-1.529,3.386,0.133
		c0.152,0.52,0.165,0.964,0.21,1.412C181.563,222.39,180.712,222.898,179.952,223.462z M177.293,235.436
		c0.061-0.182,0.154-0.355,0.267-0.521c0.125-0.075,0.257-0.139,0.374-0.227c0.331-0.248,0.721-0.586,0.851-0.984
		c0.137-0.105,0.274-0.209,0.407-0.309c0.037,0.038,0.088,0.056,0.142,0.053c-0.456,0.287-0.829,0.671-0.913,1.231
		c-0.13,0.885,0.64,1.625,1.443,1.826c0.654,0.165,1.822-0.122,1.727-1.01c-0.098-0.898-1.698-1.205-2.375-0.984
		c-0.313,0.101-0.245,0.544,0.052,0.608c0.421,0.091,1.16-0.021,1.498,0.305c0.469,0.449-0.323,0.597-0.632,0.56
		c-0.26-0.031-0.497-0.135-0.707-0.286c-1.338-0.963,0.081-2.042,1.006-2.477c0.157-0.073,0.075-0.324-0.092-0.259
		c-0.271,0.104-0.56,0.229-0.831,0.38c0.252-0.257,0.224-0.223,0.419-0.573c0.029-0.053,0.029-0.107,0.032-0.162
		c0.479,0.253,0.95,0.524,1.448,0.739c0.293,0.126,1.289,0.355,1.519,0.624c0.868,1.02-1.815,2.908-2.489,3.189
		c-0.89,0.372-1.432-0.055-2.15-0.506c-0.318-0.232-0.636-0.466-0.955-0.699C177.011,235.884,176.997,235.711,177.293,235.436z
		 M179.156,232.208c-0.322,0.066-0.658,0.188-0.992,0.334c-0.027-0.021-0.058-0.043-0.082-0.066
		c-0.264-0.249-0.462-0.505-0.623-0.771c0.01-0.016,0.023-0.029,0.03-0.047c0.521,0.178,1.072,0.357,1.65,0.529
		C179.147,232.193,179.147,232.202,179.156,232.208z M179.02,230.447c-0.782-0.273-1.876-0.401-1.601-1.521
		c0.136-0.554,1.829-1.911,2.119-2.168c0.48-0.425,1.069-0.966,1.716-1.454c-0.56,0.763-0.97,1.496-1.059,2.01
		c-0.176,1.017,0.901,1.694,1.814,1.977c1.248,0.387,3.264,0.078,3.926-1.224c0.883-1.736-1.181-1.751-1.321-3.327
		c-0.015-0.157-0.201-0.313-0.362-0.233c-0.556,0.274-1.109,0.412-1.688,0.479c0.175-0.165,0.336-0.315,0.465-0.442
		c0.146-0.144,0.297-0.286,0.45-0.422c0.215-0.056,0.431-0.091,0.646-0.1c0.324,0.396,0.878,0.583,1.368,0.186
		c0.24-0.195,0.407-0.387,0.504-0.611c0.174,0.142,0.346,0.328,0.514,0.582c0.313,0.475,0.349,1.351,0.581,1.896
		c0.18,0.422,0.492,0.842,0.66,1.269c-0.061,0.453,0.007,0.866,0.481,1.266c0.034,0.029,0.075,0.05,0.112,0.076
		c-0.067,0.338-0.283,0.691-0.67,1.063c-0.093,1.339-0.787,1.979-2.085,1.921C183.39,232.001,181.061,231.163,179.02,230.447z
		 M182.043,225.497c1.12,0.016,2.333-0.619,2.847,0.695c1.344,3.437-5.117,3.792-3.7,0.426
		C181.335,226.273,181.675,225.874,182.043,225.497z M193.074,231.404c-0.287-0.287-0.571-0.575-0.858-0.862
		c-0.379-0.378-0.825-0.986-1.333-1.471c0.578-0.003,1.16-0.029,1.735-0.089c0.084,0.899,0.285,1.742,0.598,2.529
		C193.171,231.477,193.123,231.441,193.074,231.404z M194.757,219.498c0.064,0.056,0.122,0.119,0.182,0.181
		c-0.248,0.016-0.494,0.076-0.813,0.141c-0.427,0.087-1.36,0.106-1.815,0.313c-0.018-0.265-0.04-0.527-0.032-0.807
		c0-0.007,0.053-0.507,0.061-0.893C193.23,218.573,194.004,218.837,194.757,219.498z M194.202,221.103
		c0.671,0.715,1.093,1.438,1.273,2.325c-0.818-0.263-1.532-0.699-2.115-1.38c-0.564-0.659-0.633-0.725-0.085-1.066
		c0.312-0.194,0.624-0.301,0.935-0.347C194.104,220.752,194.077,220.97,194.202,221.103z M198.713,224.671
		c-0.214-0.23-0.619-0.295-0.892-0.015c-0.348,0.359-0.713,0.691-1.089,1.006c-1.17,0.174-2.246-0.309-3.01-1.405
		c-0.252-0.362-0.467-0.756-0.653-1.163c0.797,0.733,1.797,1.197,2.884,1.415c0.297,0.059,0.557-0.205,0.538-0.492
		c-0.098-1.472-0.697-2.629-1.953-3.409c0.49-0.002,0.969,0.146,1.418,0.395c0.241,0.291,0.516,0.541,0.88,0.691
		c0.033,0.014,0.064,0.013,0.098,0.021c0.528,0.482,0.983,1.055,1.315,1.58C198.682,223.979,198.877,224.354,198.713,224.671z
		 M166.288,225.994c-0.986-1.678-1.78-3.434-2.387-5.256c0.262,0.426,0.537,0.848,0.819,1.263c1.211,2.067,2.705,3.981,4.514,5.727
		c-0.05,0.065-0.102,0.129-0.141,0.2c-0.239,0.443-0.067,1.066,0.308,1.377c0.189,0.157,0.446,0.253,0.622,0.395
		c0.261,0.209,0.345,0.103,0.365,0.057c-0.01,0.03-0.028,0.137-0.028,0.445c0,0.275-0.104,0.55-0.205,0.832
		C168.74,229.423,167.45,227.746,166.288,225.994z M162.755,221.736c-0.072-0.212-0.135-0.415-0.201-0.619
		c0.618,1.285,1.284,2.547,2.02,3.768c0.944,1.567,1.99,3.285,3.221,4.694c0.675,0.862,1.407,1.693,2.184,2.5
		c0.105,1.091,0.834,2.033,1.742,2.599c0.202,0.126,0.418,0.236,0.641,0.338c-0.955-0.264-1.937-0.637-2.287-0.725
		c-0.009-0.003-0.017-0.004-0.025-0.007c0-0.058-0.015-0.117-0.061-0.172C166.87,230.406,164.337,226.341,162.755,221.736z
		 M162.318,227.12c-0.918-1.595-1.755-3.343-2.273-5.123c-0.19-0.653-0.337-1.175-0.45-1.592c-0.031-0.183-0.071-0.359-0.099-0.546
		c-0.021-0.139-0.067-0.263-0.134-0.371c-0.315-1.408,0.533,0.766,0.961,1.714c2.165,4.781,5.169,9.042,8.728,12.876
		c-0.531-0.079-1.044-0.084-1.568,0.05C165.593,231.922,163.77,229.643,162.318,227.12z M166.916,234.328
		c-0.039,0.017-0.076,0.028-0.115,0.048c-0.072,0.035-0.126,0.093-0.175,0.152c-0.275-0.483-0.569-0.977-0.879-1.479
		C166.127,233.481,166.515,233.908,166.916,234.328z M165.866,248.077c-1.025-0.462-1.447-2.41-1.853-3.644
		c0.614,1.034,1.625,2.023,2.18,2.269c0.242,0.107,0.417-0.271,0.172-0.374c-0.922-0.386-1.509-1.091-1.935-1.977
		c-0.137-0.285-0.437-0.813-0.425-1.147c0.025-0.766,0.167-0.454,0.599-0.114c0.532,0.418,1.021,1.174,1.447,1.731
		c0.207,0.796,0.575,1.524,1.214,2.064C167.303,247.378,166.836,247.775,165.866,248.077z M164.232,241.987
		c-0.057-0.045-0.123-0.042-0.184-0.008c-0.54,0.3-0.64,0.823-0.491,1.416c-0.261-0.49-0.568-0.922-0.938-1.296
		c1.027-0.429,2.076-0.688,3.162-0.42c0,0.301-0.009,0.603-0.002,0.902c0.008,0.331,0.029,0.673,0.062,1.015
		C165.214,242.871,164.598,242.279,164.232,241.987z M165.947,276.934c0.049,0.147,0.09,0.296,0.145,0.442
		c0,0.273,0.017,0.548,0.021,0.821C166.054,277.776,166,277.354,165.947,276.934z M167.142,267.23
		c-0.207,0.896-0.388,1.806-0.523,2.748c-0.264,1.848-0.427,3.72-0.493,5.602c-0.158-0.832-0.264-1.726-0.284-1.979
		c-0.227-2.844,0.671-5.848,1.292-8.601c0.211-0.939,0.424-1.879,0.639-2.818C167.529,263.861,167.314,265.544,167.142,267.23z
		 M170.783,257.402c-1.049,2.191-1.97,4.323-2.705,6.521c0.112-0.818,0.231-1.636,0.357-2.453c0.376-2.43,0.795-4.853,1.207-7.275
		c0.005-0.026,0.009-0.053,0.014-0.078c0.717-2.772,1.769-6.405,2.243-5.991c0.065,0.057,0.12,1.24,0.259,1.569
		C173.25,252.303,171.952,254.961,170.783,257.402z M170.374,249.104c0.05-0.499,0.102-1.017,0.149-1.471
		c0.415-0.043,0.84-0.118,1.262-0.226C171.081,247.82,170.682,248.388,170.374,249.104z M173.497,245.615
		c-0.653,0.369-1.432,0.659-2.204,0.779c0.01-0.095-0.028-0.193-0.094-0.265c-0.041-0.045-0.083-0.089-0.124-0.133
		c-0.098-0.106-0.328-0.085-0.406,0.034c-0.084,0.127-0.153,0.278-0.228,0.418c-1.158-0.038-2.181-0.581-2.569-2.018
		c-0.376-1.389-0.086-3.027-0.045-4.45c0.02-0.699-0.212-1.921,0.065-2.552c0.125-0.283,0.211-0.441,0.315-0.514
		c-0.576,2.43,2.301,8.573,4.809,7.642c1.204-0.447,1.01-2.413,0.197-3.836c0.906,0.981,1.794,2.042,1.739,3.058
		c-0.103-0.108-0.367-0.945-0.353-0.898c-0.109-0.357-0.644-0.162-0.543,0.193c0.134,0.478,0.086,1.29,0.383,1.82
		C174.211,245.142,173.909,245.383,173.497,245.615z M197.478,291.79c-1.105-0.243-2.286-0.361-3.494-0.423
		c1.104-0.12,2.201-0.26,3.282-0.465c0.83-0.157,1.609-0.021,2.361,0.065c-0.164,0.478-0.342,0.953-0.532,1.425
		C198.719,292.101,198.192,291.947,197.478,291.79z M207.491,256.547c1.256,8.069-3.256,16.496-6.033,23.802
		c-0.788,2.072-0.902,3.597-0.901,5.769c0,1.038-0.159,2.094-0.422,3.151c-6.426-0.199-13.092-0.128-19.374,1.149
		c-1.503,0.306-2.986,0.686-4.444,1.166c-0.484,0.159-3.713,1.893-4.17,1.664c-2.707-1.35,0.955-9.994,1.375-12.148
		c1.438-7.376,3.742-14.62,4.517-22.118c0.323-3.134,0.46-6.348,0.231-9.491c-0.096-1.324-0.25-2.636-0.502-3.94
		c-0.136-0.699-0.644-1.885-0.985-2.992c0.076-0.922,0.068-1.885,0.173-2.674c0.074-0.555,0.126-1.097,0.146-1.634
		c0.846,0.646,1.667,1.216,2.817,1.04c1.842-0.28,3.969-2.589,4.385-4.373c0.201-0.858-0.242-1.434-0.946-1.842
		c2.417,0.244,4.703-0.124,6.086-1.868c0.887,1.318,2.565,2.573,3.282,3.449c1.355,1.657,2.99,2.971,4.652,4.262
		C201.234,244.509,206.418,249.65,207.491,256.547z M196.147,232.956c0.234,0.375,0.47,0.747,0.706,1.118
		c0.58,1.049,1.274,2.051,1.977,2.948c0.509,0.712,1.046,1.399,1.601,2.072c-0.373-0.378-0.75-0.755-1.132-1.131
		c-0.107-0.105-0.211-0.218-0.318-0.324c0.039-0.131,0.021-0.281-0.102-0.405c-1.329-1.347-2.669-2.684-4.006-4.022
		c-1.044-1.483-2.347-3.523-2.191-4.237c0.242-0.025,0.482-0.058,0.721-0.097C194.383,229.558,195.719,232.271,196.147,232.956z
		 M195.808,231.673c-0.622-0.972-1.261-1.934-1.917-2.884c0.579-0.118,1.141-0.282,1.672-0.5
		C195.334,229.386,195.456,230.533,195.808,231.673z M199.686,233.715c0.039,0.145,0.654,1.778,0.906,2.463
		c-0.262-0.504-0.887-1.464-0.923-1.529c-1.277-2.332-2.004-4.731-2.495-7.295c0.47-0.375,0.886-0.827,1.231-1.369
		c0.31-0.17,0.593-0.369,0.825-0.592c0.079-0.074,0.137-0.147,0.192-0.222c-0.002,0.051,0,0.101,0.012,0.148
		c0.049,0.202,0.11,0.403,0.167,0.605C198.975,228.473,198.999,231.136,199.686,233.715z M199.515,223.069
		c-0.157-0.047-0.315-0.005-0.448,0.083c-0.011-0.018-0.021-0.033-0.032-0.052c-0.348-0.569-0.805-1.23-1.332-1.821
		c0.615-1.266-0.583-2.768-1.583-3.636c0.17-0.057,0.308-0.246,0.224-0.425c-0.006-0.014-0.011-0.023-0.018-0.036
		c0.531-0.632,0.922-1.412,1.297-2.153c0.129,1.664,0.468,3.343,1.031,4.794c0.454,1.169,1.389,2.631,2.438,3.546
		C200.547,223.342,199.996,223.213,199.515,223.069z M206.544,217.59c-0.414,0.115-0.745,0.271-1.032,0.485
		c-0.13-0.593-0.309-1.182-0.517-1.748c0.578-0.714,0.285-1.708-0.113-2.587c0.394-0.935,0.748-1.918,1.019-2.918
		c1.137,1.336,3.195,2.462,4.227,3.121c0.565,0.36,1.822,1.278,3.072,1.883c-1.74,0.958-3.591,1.652-5.508,2.177
		C207.479,217.66,207.073,217.442,206.544,217.59z M211.454,218.178c-0.021,0.024-0.039,0.053-0.058,0.081
		c-0.019-0.002-0.04-0.003-0.06-0.005C211.376,218.23,211.415,218.202,211.454,218.178z"/>
	<path id="XMLID_820_" fill="#414042" d="M126.045,253.455c1.386-5.164,2.748-10.336,3.962-15.543
		c2.488-10.674,4.267-21.473,4.497-32.447c0.003-0.187-0.283-0.159-0.288,0.024c-0.509,19.761-6.549,38.188-11.24,57.192
		c-1.012,4.102-0.583,8.177-1.373,12.271c-0.885,4.588-4.345,8.844-7.267,12.362c-2.117,2.548-4.284,5.047-6.454,7.546
		c-0.001-0.028,0-0.054-0.003-0.084c-0.167-0.667-0.42-1.301-0.758-1.9c0-1.668,0.325-3.254,0.977-4.761
		c0.577-2.642,0.948-5.085,0.905-7.805c-0.135-8.604-0.565-16.706,0.748-25.308c1.134-7.433,2.155-15.124,4.044-22.408
		c0.058-0.226,0.11-0.452,0.167-0.679c0.039-0.132,0.069-0.266,0.099-0.399c1.701-6.836,2.729-13.722,2.407-20.801
		c-0.007-0.152-0.264-0.17-0.272-0.012c-0.264,5.226-1.288,9.968-2.723,14.703c-0.623-2.621-1.423-5.215-1.753-7.932
		c-0.969-7.959-1.531-15.967-2.468-23.934c-0.029-0.246-0.396-0.215-0.383,0.032c0.345,6.867,0.824,13.75,0.805,20.628
		c-0.01,3.335-0.251,6.65,0.216,9.971c0.451,3.211,1.32,5.995,0.851,9.28c-2.351,6.548-2.957,13.331-3.547,20.234
		c-0.634,7.417-0.644,14.765-0.068,22.184c0.343,4.422,0.564,8.734-0.973,12.991c-0.429,1.188-0.77,1.827-0.874,3.149
		c-0.117,1.483,0.714,2.105,0.481,3.854c-0.054,0.399,0.16,0.727,0.457,0.917c-0.121,0.14-0.243,0.279-0.364,0.419
		c-2.849,3.29,2.178,7.462-1.435,10.612c-1.191,1.04-0.363,3.193,1.327,2.604c0.017-0.001,0.032,0,0.049-0.002
		c-0.574,1.653-0.842,3.429-1.536,5.061c-0.294,0.692-0.035,1.616,0.708,1.917c1.322,0.534,2.378,1.433,3.771,1.804
		c1.345,0.359,2.736,0.42,4.121,0.42c0.954,0,5.281,0.542,5.009-1.353c-0.035-0.244-0.412-0.286-0.45-0.019
		c-0.155,1.117-5.558,0.46-6.386,0.278c-1.932-0.423-2.678-1.604-3.794-2.813c0.592-1.692,1.057-3.544,0.792-5.297
		c1.08,0.096,2.133,0.326,3.15,0.731c0.446,0.148,0.793-0.356,0.445-0.701c-0.346-0.342-0.7-0.61-1.058-0.853
		c0.353,0.014,0.704,0.032,1.061,0.022c0.788-0.021,3.222-0.712,3.811-0.155c0.742,0.704,1.783-0.524,1.026-1.218
		c-0.241-0.222-0.462-0.355-0.688-0.439c0.268-0.053,0.534-0.106,0.801-0.17c0.742-0.179,2.32-0.578,1.879-1.746
		c-0.421-1.119-2.604-0.82-3.476-0.813c-1.104,0.011-2.191,0.112-3.263,0.287c0.953-0.391,1.905-0.781,2.857-1.172
		c1.724-0.709,3.502-1.266,4.698-2.762c0.085-0.107,0.072-0.257-0.03-0.349c-1.344-1.21-3.38-0.106-4.828,0.433
		c-1.883,0.702-3.664,1.573-5.382,2.577c-0.57-1.789-2.341-3.796-1.747-5.678c0.543-1.719,4.047-4.221,5.305-5.59
		c2.989-3.252,6.304-6.69,8.332-10.662c1.979-3.876,1.759-7.882,1.743-12.085C122.643,264.4,124.589,258.878,126.045,253.455z
		 M112.464,306.035c0.718-0.072,1.437-0.113,2.157-0.117c0.3-0.002,3.712-0.294,1.697,0.518c-1.13,0.456-2.73,0.333-3.935,0.523
		c-1.268,0.199-2.448,0.495-3.625,0.986c0.194-0.412,0.339-0.85,0.422-1.309C110.257,306.359,111.348,306.146,112.464,306.035z
		 M112.567,302.659c0.916-0.384,1.844-0.738,2.789-1.04c0.717-0.229,3.089-1.443,2.585,0.436c-0.223,0.832-4.5,1.962-5.229,2.255
		c-1.15,0.462-2.301,0.925-3.452,1.387c0.002-0.404-0.035-0.814-0.123-1.223c-0.011-0.051-0.027-0.102-0.04-0.152
		C110.229,303.717,111.382,303.155,112.567,302.659z"/>
	<path id="XMLID_822_" fill="#414042" d="M199.671,149.372c0.102,0.503,0.206,1.003,0.332,1.501c0.043,0.173,0.333,0.11,0.306-0.067
		c-0.074-0.492-0.17-0.979-0.269-1.466C199.993,149.109,199.624,149.138,199.671,149.372z"/>
</g>
</svg>
