<?xml version="1.0" encoding="utf-8"?>
<!-- Generator: Adobe Illustrator 16.0.0, SVG Export Plug-In . SVG Version: 6.00 Build 0)  -->
<!DOCTYPE svg PUBLIC "-//W3C//DTD SVG 1.1//EN" "http://www.w3.org/Graphics/SVG/1.1/DTD/svg11.dtd">
<svg version="1.1" id="Capa_1" xmlns="http://www.w3.org/2000/svg" xmlns:xlink="http://www.w3.org/1999/xlink" x="0px" y="0px"
	 width="350px" height="350px" viewBox="0 0 350 350" enable-background="new 0 0 350 350" xml:space="preserve">
<g>
	<path fill="#88C057" d="M247.422,111.648c0-4.296-2.432-7.992-5.988-9.96c1.684-3.437,2.654-7.271,2.654-11.338
		c0-14.477-11.946-26.212-26.683-26.212c-3.851,0-7.504,0.816-10.811,2.262c-3.942-5.332-10.319-8.816-17.538-8.816
		c-8.182,0-15.297,4.456-18.988,11.027c-4.067-2.811-9.016-4.473-14.365-4.473c-13.816,0-25.016,11.001-25.016,24.575
		c0,1.015,0.082,2.012,0.203,2.992c-9.818,3.32-16.882,12.448-16.882,23.22c0,8.401,4.296,15.811,10.842,20.24
		c-2.612,3.519-4.171,7.836-4.171,12.526c0,11.761,9.706,21.298,21.678,21.298c5.013,0,9.611-1.688,13.285-4.49
		c4.835,6.675,12.758,11.043,21.74,11.043c9.489,0,17.801-4.882,22.532-12.213c3.183,5.34,9.071,8.937,15.824,8.937
		c10.134,0,18.346-8.069,18.346-18.021c0-2.232-0.432-4.361-1.188-6.334c6.58-2.737,11.195-9.14,11.195-16.601
		c0-3.532-1.05-6.821-2.841-9.602C244.904,119.77,247.422,116.018,247.422,111.648z"/>
	<path fill="#659C35" d="M151.08,167.103c-2.677,1.17-5.604,1.887-8.726,1.887c-11.973,0-21.679-9.538-21.679-21.298
		c0-4.689,1.559-9.007,4.171-12.526c-6.545-4.43-10.842-11.839-10.842-20.24c0-4.067,1.015-7.901,2.798-11.273
		c-7.155-4.253-16.571-3.394-22.75,2.673c-0.544,0.535-1.032,1.101-1.494,1.679c-6.938-3.324-15.539-2.171-21.303,3.489
		c-4.495,4.417-6.2,10.531-5.133,16.243c-3.26,0.496-6.39,1.964-8.899,4.43c-6.295,6.183-6.295,16.212,0,22.395
		c2.634,2.591,5.958,4.08,9.391,4.499c-1.032,6.01,0.799,12.4,5.518,17.037c4.991,4.901,11.973,6.628,18.384,5.217
		c-1.183,4.45-0.013,9.382,3.536,12.874c5.328,5.233,13.963,5.233,19.291,0c1.196-1.174,2.107-2.517,2.768-3.946
		c4.926,1.961,10.776,0.977,14.77-2.944c1.891-1.856,3.096-4.128,3.644-6.515c2.962,0.872,6.291,0.198,8.631-2.099
		c2.297-2.259,3-5.458,2.18-8.329C147.397,169.642,149.301,168.489,151.08,167.103z"/>
	<path fill="#659C35" d="M292.057,135.61c-0.544-0.535-1.118-1.015-1.71-1.468c3.385-6.817,2.21-15.267-3.554-20.927
		c-4.494-4.417-10.72-6.092-16.536-5.043c-0.509-3.199-1.999-6.277-4.508-8.739c-6.294-6.187-16.502-6.187-22.8,0
		c-0.41,0.406-0.752,0.855-1.105,1.291c-0.144,0.319-0.26,0.656-0.41,0.967c3.557,1.964,5.988,5.665,5.988,9.96
		c0,4.369-2.518,8.121-6.175,10.056c1.788,2.78,2.841,6.066,2.841,9.602c0,7.461-4.614,13.864-11.194,16.601
		c0.755,1.973,1.187,4.102,1.187,6.334c0,9.952-8.212,18.021-18.345,18.021c-2.371,0-4.624-0.466-6.705-1.274
		c0.225,0.255,0.354,0.557,0.596,0.795c1.892,1.856,4.2,3.043,6.631,3.583c-0.889,2.91-0.202,6.183,2.138,8.479
		c2.297,2.258,5.558,2.948,8.48,2.142c0.953,2.677,2.495,5.194,4.676,7.331c7.749,7.612,20.31,7.612,28.06,0
		c2.024-1.99,3.506-4.305,4.473-6.774c4.927,0.769,10.143-0.695,13.941-4.426c4.3-4.227,5.66-10.245,4.085-15.607
		c3.639-0.622,7.133-2.301,9.947-5.069C299.318,154.314,299.318,142.748,292.057,135.61z"/>
	<path fill="#436B1C" d="M226.875,185.992c-2.923,0.803-6.18,0.116-8.48-2.142c-1.369-1.343-2.172-3.021-2.422-4.767
		c-0.143-0.972-0.471-1.908-0.958-2.742c-16.916,17.461-28.734,49.627-28.734,49.627c5.618-19.974,4.732-39.903,2.993-53.197
		c-3.58,1.766-7.617,2.771-11.9,2.771c-4.17,0-8.095-0.975-11.605-2.654c7.56,26.729,3.242,70.35,3.242,70.35
		c-8.091-32.36-25.879-52.592-34.286-60.695c-0.6,0.471-1.14,1.014-1.52,1.696c-0.604,1.097-1.381,2.129-2.327,3.062
		c-3.994,3.924-9.849,4.904-14.771,2.943c-0.661,1.43-1.572,2.773-2.768,3.947c-1.425,1.398-3.096,2.396-4.866,3.048
		c21.678,0,46.543,43.149,49.751,89.18c0.237,3.384,3.074,6.009,6.468,6.009h21.587c3.325,0,6.097-2.49,6.473-5.789
		c1.981-17.512,8.1-90.721,42.079-90.721c-1.162-0.738-2.267-1.588-3.286-2.586C229.374,191.187,227.828,188.669,226.875,185.992z"
		/>
	<path fill="#659C35" d="M153.826,118.029c-0.522,0-1.054-0.095-1.572-0.298c-10.867-4.249-16.256-16.549-12.007-27.417
		c4.249-10.863,16.528-16.251,27.421-12.012c2.219,0.868,3.32,3.373,2.448,5.592c-0.868,2.223-3.363,3.315-5.596,2.452
		c-6.438-2.517-13.717,0.673-16.23,7.107c-2.517,6.437,0.674,13.717,7.107,16.229c2.219,0.868,3.32,3.372,2.448,5.591
		C157.18,116.989,155.548,118.029,153.826,118.029z"/>
	<path fill="#88C057" d="M264.425,163.234c-2.608,0-5.212-0.488-7.712-1.464c-5.263-2.06-9.412-6.04-11.679-11.221
		c-0.959-2.185,0.038-4.732,2.224-5.686c2.201-0.959,4.736,0.043,5.686,2.223c1.344,3.066,3.8,5.423,6.918,6.645
		c3.121,1.217,6.523,1.144,9.588-0.194c3.065-1.343,5.424-3.8,6.641-6.917c1.218-3.117,1.152-6.519-0.194-9.585
		c-0.958-2.185,0.039-4.732,2.224-5.686c2.197-0.954,4.732,0.039,5.687,2.224c2.267,5.177,2.388,10.928,0.328,16.195
		c-2.06,5.267-6.04,9.417-11.221,11.683C270.188,162.634,267.308,163.234,264.425,163.234z"/>
	<path fill="#659C35" d="M205.304,152.561c-7.388,0-14.572-3.868-18.457-10.747c-1.175-2.077-0.444-4.71,1.632-5.884
		c2.067-1.175,4.71-0.445,5.881,1.632c1.648,2.915,4.329,5.013,7.555,5.911c3.217,0.89,6.603,0.479,9.517-1.166
		c2.914-1.645,5.013-4.326,5.911-7.555c0.893-3.225,0.479-6.606-1.167-9.516c-1.174-2.077-0.444-4.71,1.633-5.885
		c2.067-1.17,4.71-0.445,5.88,1.632c2.785,4.922,3.484,10.63,1.969,16.079c-1.515,5.448-5.06,9.978-9.981,12.758
		C212.397,151.68,208.826,152.561,205.304,152.561z"/>
	<path fill="#659C35" d="M190.149,129.259c-3.091,0-6.222-0.678-9.188-2.111c-10.504-5.086-14.912-17.767-9.831-28.271
		c1.041-2.142,3.614-3.044,5.769-2.008c2.146,1.041,3.044,3.622,2.008,5.768c-3.01,6.217-0.401,13.726,5.819,16.735
		c6.218,3.001,13.726,0.401,16.736-5.82c1.036-2.142,3.609-3.048,5.768-2.008c2.146,1.041,3.044,3.623,2.007,5.768
		C205.58,124.86,198.012,129.259,190.149,129.259z"/>
	<path fill="#659C35" d="M157.327,153.494c-2.88,0-5.755-0.596-8.471-1.783c-10.69-4.676-15.586-17.175-10.915-27.87
		c0.954-2.176,3.479-3.182,5.682-2.228c2.185,0.954,3.182,3.501,2.228,5.686c-2.763,6.329,0.134,13.734,6.463,16.498
		c3.074,1.342,6.477,1.407,9.59,0.186c3.117-1.222,5.569-3.58,6.912-6.649c0.954-2.176,3.484-3.178,5.682-2.229
		c2.185,0.955,3.182,3.502,2.228,5.687c-2.258,5.181-6.403,9.17-11.67,11.23C162.551,153.006,159.939,153.494,157.327,153.494z"/>
	<path fill="#659C35" d="M205.36,106.38c-0.683,0-1.369-0.03-2.06-0.095c-5.631-0.54-10.708-3.238-14.305-7.599
		c-1.52-1.839-1.256-4.559,0.583-6.079c1.848-1.524,4.563-1.252,6.079,0.583c2.128,2.582,5.134,4.179,8.467,4.499
		c3.377,0.341,6.593-0.682,9.171-2.807c5.328-4.395,6.087-12.309,1.692-17.637c-1.521-1.84-1.256-4.56,0.583-6.08
		c1.848-1.524,4.563-1.252,6.079,0.583c7.426,8.998,6.144,22.365-2.854,29.791C214.963,104.697,210.256,106.38,205.36,106.38z"/>
	<path fill="#88C057" d="M95.167,158.48c-2.646,0-5.332-0.497-7.931-1.55c-10.811-4.387-16.04-16.752-11.653-27.568
		c0.894-2.21,3.411-3.268,5.626-2.379c2.21,0.898,3.273,3.416,2.379,5.626c-2.599,6.398,0.497,13.721,6.899,16.32
		c6.416,2.608,13.73-0.497,16.32-6.899c0.898-2.215,3.424-3.273,5.626-2.379c2.21,0.898,3.277,3.415,2.379,5.625
		C111.47,153.489,103.535,158.48,95.167,158.48z"/>
</g>
</svg>
