<?xml version="1.0" encoding="utf-8"?>
<!-- Generator: Adobe Illustrator 16.0.0, SVG Export Plug-In . SVG Version: 6.00 Build 0)  -->
<!DOCTYPE svg PUBLIC "-//W3C//DTD SVG 1.1//EN" "http://www.w3.org/Graphics/SVG/1.1/DTD/svg11.dtd">
<svg version="1.1" id="Layer_1" xmlns="http://www.w3.org/2000/svg" xmlns:xlink="http://www.w3.org/1999/xlink" x="0px" y="0px"
	 width="350px" height="350px" viewBox="0 0 350 350" enable-background="new 0 0 350 350" xml:space="preserve">
<g id="XMLID_1724_">
	<g id="XMLID_1725_">
		<path id="XMLID_1726_" fill="#CDCDD0" d="M196.204,276.923c-3.758-4.199-10.209-4.557-14.405-0.798
			c-1.87,1.674-4.285,2.596-6.799,2.596c-5.625,0-10.202-4.576-10.202-10.202s4.577-10.202,10.202-10.202
			c5.634,0,10.202-4.567,10.202-10.202V61.077c0-5.634-4.568-10.202-10.202-10.202c-5.634,0-10.202,4.568-10.202,10.202v178.59
			c-11.875,4.212-20.404,15.552-20.404,28.853c0,16.877,13.729,30.606,30.606,30.606c7.543,0,14.79-2.77,20.407-7.797
			C199.605,287.571,199.962,281.12,196.204,276.923z"/>
		<path id="XMLID_1727_" fill="#ACABB1" d="M175,278.721c-5.625,0-10.202-4.575-10.202-10.201c0-5.627,4.577-10.202,10.202-10.202
			c0-28.226,0-166.635,0-207.443c-5.634,0-10.202,4.568-10.202,10.202v178.59c-11.875,4.212-20.404,15.552-20.404,28.853
			c0,16.877,13.729,30.606,30.606,30.606C175,290.964,175,285.862,175,278.721z"/>
	</g>
	<path id="XMLID_27_" fill="#FF5023" d="M181.801,159.697c15.026,0,27.206,12.18,27.206,27.206l0,0
		c0,15.025-12.18,27.205-27.206,27.205h-13.602c-15.026,0-27.206-12.18-27.206-27.205l0,0c0-15.025,12.18-27.206,27.206-27.206
		H181.801z"/>
	<path id="XMLID_1728_" fill="#BD3C1A" d="M176.134,159.697h-7.935c-15.026,0-27.206,12.18-27.206,27.206
		s12.18,27.205,27.206,27.205h7.935V159.697L176.134,159.697z"/>
	<g id="XMLID_1729_">
		<rect id="XMLID_1730_" x="140.993" y="207.307" fill="#91DC5A" width="68.014" height="20.403"/>
		<rect id="XMLID_1731_" x="140.993" y="207.307" fill="#64C37D" width="34.007" height="20.403"/>
	</g>
	<path id="XMLID_22_" fill="#FF5023" d="M181.801,98.484c15.026,0,27.206,12.18,27.206,27.206l0,0
		c0,15.025-12.18,27.206-27.206,27.206h-13.602c-15.026,0-27.206-12.181-27.206-27.206l0,0c0-15.026,12.18-27.206,27.206-27.206
		H181.801z"/>
	<path id="XMLID_1732_" fill="#BD3C1A" d="M175,98.484h-6.801c-15.026,0-27.206,12.18-27.206,27.206
		c0,15.025,12.18,27.206,27.206,27.206H175V98.484z"/>
	<g id="XMLID_1733_">
		<rect id="XMLID_1734_" x="140.993" y="146.094" fill="#91DC5A" width="68.014" height="20.404"/>
		<rect id="XMLID_1735_" x="140.993" y="146.094" fill="#64C37D" width="34.007" height="20.404"/>
	</g>
	<g id="XMLID_1736_">
		<rect id="XMLID_1737_" x="140.993" y="84.881" fill="#91DC5A" width="68.014" height="20.404"/>
		<rect id="XMLID_1738_" x="140.993" y="84.881" fill="#64C37D" width="34.007" height="20.404"/>
	</g>
</g>
</svg>
