<?xml version="1.0" encoding="utf-8"?>
<!-- Generator: Adobe Illustrator 16.0.0, SVG Export Plug-In . SVG Version: 6.00 Build 0)  -->
<!DOCTYPE svg PUBLIC "-//W3C//DTD SVG 1.1//EN" "http://www.w3.org/Graphics/SVG/1.1/DTD/svg11.dtd">
<svg version="1.1" id="Layer_1" xmlns="http://www.w3.org/2000/svg" xmlns:xlink="http://www.w3.org/1999/xlink" x="0px" y="0px"
	 width="350px" height="350px" viewBox="0 0 350 350" enable-background="new 0 0 350 350" xml:space="preserve">
<path fill="#E4EAF8" d="M300.225,272.396H49.776c-5.123,0-9.276-4.153-9.276-9.275V86.879c0-5.123,4.153-9.276,9.276-9.276h250.449
	c5.123,0,9.275,4.153,9.275,9.276v176.242C309.5,268.243,305.348,272.396,300.225,272.396z"/>
<path fill="#AFB9D2" d="M309.5,114.707h-269V86.879c0-5.123,4.153-9.276,9.276-9.276h250.449c5.123,0,9.275,4.153,9.275,9.276
	V114.707z"/>
<g>
	<path fill="#E4EAF8" d="M96.155,100.793H59.052c-2.564,0-4.638-2.077-4.638-4.638c0-2.562,2.074-4.638,4.638-4.638h37.103
		c2.564,0,4.639,2.077,4.639,4.638C100.793,98.716,98.719,100.793,96.155,100.793z"/>
	<path fill="#E4EAF8" d="M202.828,100.793h-18.552c-2.563,0-4.638-2.077-4.638-4.638c0-2.562,2.073-4.638,4.638-4.638h18.552
		c2.563,0,4.638,2.077,4.638,4.638C207.466,98.716,205.392,100.793,202.828,100.793z"/>
	<path fill="#E4EAF8" d="M239.931,100.793h-18.552c-2.563,0-4.638-2.077-4.638-4.638c0-2.562,2.074-4.638,4.638-4.638h18.552
		c2.564,0,4.639,2.077,4.639,4.638C244.569,98.716,242.495,100.793,239.931,100.793z"/>
</g>
<path fill="#C7CFE2" d="M290.948,100.793h-32.465c-2.564,0-4.639-2.077-4.639-4.638c0-2.562,2.074-4.638,4.639-4.638h32.465
	c2.563,0,4.639,2.077,4.639,4.638C295.586,98.716,293.512,100.793,290.948,100.793z"/>
<path fill="#7F8499" d="M119.345,100.793h-4.639c-2.563,0-4.638-2.077-4.638-4.638c0-2.562,2.074-4.638,4.638-4.638h4.639
	c2.563,0,4.638,2.077,4.638,4.638C123.983,98.716,121.908,100.793,119.345,100.793z"/>
<path fill="#FFDC64" d="M165.724,100.793h-4.638c-2.563,0-4.638-2.077-4.638-4.638c0-2.562,2.074-4.638,4.638-4.638h4.638
	c2.563,0,4.638,2.077,4.638,4.638C170.362,98.716,168.288,100.793,165.724,100.793z"/>
<path fill="#7DF5A5" d="M142.535,100.793h-4.638c-2.563,0-4.638-2.077-4.638-4.638c0-2.562,2.074-4.638,4.638-4.638h4.638
	c2.563,0,4.638,2.077,4.638,4.638C147.172,98.716,145.098,100.793,142.535,100.793z"/>
<g>
	<path fill="#707487" d="M151.811,142.535H68.328c-2.563,0-4.638-2.077-4.638-4.638c0-2.561,2.074-4.638,4.638-4.638h83.483
		c2.564,0,4.638,2.077,4.638,4.638C156.448,140.458,154.375,142.535,151.811,142.535z"/>
	<path fill="#707487" d="M137.896,179.639H68.328c-2.563,0-4.638-2.078-4.638-4.639c0-2.561,2.074-4.638,4.638-4.638h69.569
		c2.563,0,4.638,2.077,4.638,4.638C142.535,177.561,140.46,179.639,137.896,179.639z"/>
</g>
<g>
	<path fill="#5B5D6E" d="M114.707,161.086H68.328c-2.563,0-4.638-2.077-4.638-4.638c0-2.562,2.074-4.639,4.638-4.639h46.38
		c2.563,0,4.638,2.077,4.638,4.639C119.345,159.009,117.271,161.086,114.707,161.086z"/>
	<path fill="#5B5D6E" d="M207.466,142.535h-37.104c-2.563,0-4.638-2.077-4.638-4.638c0-2.561,2.074-4.638,4.638-4.638h37.104
		c2.563,0,4.638,2.077,4.638,4.638C212.104,140.458,210.029,142.535,207.466,142.535z"/>
</g>
<path fill="#707487" d="M198.189,161.086h-64.931c-2.563,0-4.638-2.077-4.638-4.638c0-2.562,2.074-4.639,4.638-4.639h64.931
	c2.563,0,4.639,2.077,4.639,4.639C202.828,159.009,200.753,161.086,198.189,161.086z"/>
<path fill="#5B5D6E" d="M179.639,179.639h-23.19c-2.563,0-4.638-2.078-4.638-4.639c0-2.561,2.074-4.638,4.638-4.638h23.19
	c2.563,0,4.638,2.077,4.638,4.638C184.276,177.561,182.201,179.639,179.639,179.639z"/>
<g>
	<path fill="#707487" d="M281.672,161.086h-64.931c-2.563,0-4.638-2.077-4.638-4.638c0-2.562,2.074-4.639,4.638-4.639h64.931
		c2.563,0,4.638,2.077,4.638,4.639C286.31,159.009,284.236,161.086,281.672,161.086z"/>
	<path fill="#707487" d="M281.672,142.535h-55.655c-2.563,0-4.638-2.077-4.638-4.638c0-2.561,2.074-4.638,4.638-4.638h55.655
		c2.563,0,4.638,2.077,4.638,4.638C286.31,140.458,284.236,142.535,281.672,142.535z"/>
	<path fill="#707487" d="M151.811,207.466H68.328c-2.563,0-4.638-2.077-4.638-4.638c0-2.563,2.074-4.639,4.638-4.639h83.483
		c2.564,0,4.638,2.076,4.638,4.639C156.449,205.389,154.375,207.466,151.811,207.466z"/>
</g>
<g>
	<path fill="#5B5D6E" d="M123.983,226.017H86.879c-2.563,0-4.638-2.076-4.638-4.638s2.074-4.638,4.638-4.638h37.104
		c2.563,0,4.638,2.076,4.638,4.638C128.621,223.941,126.546,226.017,123.983,226.017z"/>
	<path fill="#5B5D6E" d="M207.466,207.466h-37.104c-2.563,0-4.638-2.077-4.638-4.638c0-2.563,2.074-4.639,4.638-4.639h37.104
		c2.563,0,4.638,2.076,4.638,4.639C212.104,205.389,210.029,207.466,207.466,207.466z"/>
</g>
<g>
	<path fill="#707487" d="M198.189,226.017h-55.655c-2.563,0-4.638-2.076-4.638-4.638s2.074-4.638,4.638-4.638h55.655
		c2.563,0,4.639,2.076,4.639,4.638C202.828,223.941,200.753,226.017,198.189,226.017z"/>
	<path fill="#707487" d="M281.672,226.017h-64.931c-2.563,0-4.638-2.076-4.638-4.638s2.074-4.638,4.638-4.638h64.931
		c2.563,0,4.638,2.076,4.638,4.638C286.31,223.941,284.236,226.017,281.672,226.017z"/>
	<path fill="#707487" d="M281.672,207.466h-55.655c-2.563,0-4.638-2.077-4.638-4.638c0-2.563,2.074-4.639,4.638-4.639h55.655
		c2.563,0,4.638,2.076,4.638,4.639C286.31,205.389,284.236,207.466,281.672,207.466z"/>
</g>
<path fill="#464655" d="M68.328,253.845c-2.563,0-4.638-2.077-4.638-4.639v-27.827c0-2.562,2.074-4.638,4.638-4.638
	s4.639,2.076,4.639,4.638v27.827C72.965,251.768,70.891,253.845,68.328,253.845z"/>
</svg>
