<?xml version="1.0" encoding="utf-8"?>
<!-- Generator: Adobe Illustrator 16.0.0, SVG Export Plug-In . SVG Version: 6.00 Build 0)  -->
<!DOCTYPE svg PUBLIC "-//W3C//DTD SVG 1.1//EN" "http://www.w3.org/Graphics/SVG/1.1/DTD/svg11.dtd">
<svg version="1.1" id="Layer_1" xmlns="http://www.w3.org/2000/svg" xmlns:xlink="http://www.w3.org/1999/xlink" x="0px" y="0px"
	 width="350px" height="350px" viewBox="0 0 350 350" enable-background="new 0 0 350 350" xml:space="preserve">
<g>
	<path d="M126.854,82.222c2.782,2.121,6.752,1.587,8.874-1.191c9.438-12.366,23.752-19.458,39.271-19.458
		c11.075,0,21.523,3.627,30.037,10.188c-2.605,0.785-4.503,3.2-4.503,6.06c0,3.497,2.834,6.331,6.331,6.331h13.928
		c3.496,0,6.33-2.834,6.33-6.331V63.895c0-3.497-2.834-6.331-6.33-6.331c-3.229,0-5.887,2.417-6.276,5.54
		C203.521,53.969,189.691,48.912,175,48.912c-19.5,0-37.483,8.907-49.336,24.437C123.542,76.127,124.076,80.1,126.854,82.222z"/>
	<path d="M213.467,130.92c0,14.268,11.607,25.875,25.875,25.875s25.875-11.608,25.875-25.875s-11.608-25.875-25.875-25.875
		C225.074,105.044,213.467,116.652,213.467,130.92z"/>
	<path d="M274.063,169.334l-0.044-0.014l-13.686-2.266c-1.166-0.358-2.41,0.258-2.829,1.407l-15.528,42.608
		c-0.896,2.458-4.372,2.458-5.268,0l-15.529-42.608c-0.338-0.928-1.214-1.51-2.152-1.51c-0.223,0-14.361,2.366-14.361,2.366
		c-9.434,3.143-15.737,11.889-15.737,21.778v35.452c0,5.313,4.308,9.62,9.621,9.62h81.579c5.313,0,9.62-4.308,9.62-9.62v-35.571
		C289.748,181.131,283.42,172.399,274.063,169.334z"/>
	<path d="M110.667,156.795c14.268,0,25.875-11.608,25.875-25.875s-11.608-25.875-25.875-25.875s-25.875,11.607-25.875,25.875
		C84.792,145.187,96.399,156.795,110.667,156.795z"/>
	<path d="M161.073,226.548v-35.571c0-9.846-6.327-18.577-15.685-21.643l-0.043-0.014l-13.686-2.266
		c-1.165-0.358-2.41,0.258-2.829,1.407l-15.529,42.608c-0.896,2.458-4.372,2.458-5.268,0l-15.53-42.608
		c-0.338-0.928-1.214-1.51-2.152-1.51c-0.223,0-14.362,2.366-14.362,2.366c-9.434,3.143-15.737,11.889-15.737,21.778v35.452
		c0,5.313,4.308,9.62,9.62,9.62h81.58C156.765,236.168,161.073,231.86,161.073,226.548L161.073,226.548z"/>
	<path d="M224.634,267.777c-2.781-2.121-6.752-1.587-8.874,1.192c-9.438,12.365-23.752,19.457-39.271,19.457
		c-11.075,0-21.525-3.627-30.038-10.189c2.604-0.783,4.502-3.198,4.502-6.06c0-3.497-2.834-6.331-6.331-6.331h-13.927
		c-3.497,0-6.331,2.834-6.331,6.331v13.928c0,3.497,2.834,6.331,6.331,6.331c3.228,0,5.886-2.417,6.276-5.54
		c10.997,9.135,24.825,14.191,39.517,14.191c19.5,0,37.482-8.906,49.336-24.437C227.946,273.872,227.413,269.899,224.634,267.777z"
		/>
	<path d="M245.344,167.991c-0.635-0.691-1.563-1.039-2.502-1.039h-7c-0.938,0-1.866,0.348-2.502,1.039
		c-0.982,1.071-1.124,2.617-0.428,3.825l3.742,5.641l-1.752,14.778l3.45,9.177c0.336,0.924,1.641,0.924,1.978,0l3.45-9.177
		l-1.752-14.778l3.742-5.641C246.469,170.607,246.326,169.062,245.344,167.991z"/>
	<path d="M116.664,167.991c-0.634-0.691-1.562-1.039-2.501-1.039h-7.001c-0.938,0-1.866,0.348-2.501,1.039
		c-0.982,1.071-1.125,2.617-0.428,3.825l3.742,5.641l-1.75,14.778l3.45,9.178c0.336,0.923,1.641,0.923,1.978,0l3.45-9.178
		l-1.752-14.777l3.742-5.641C117.789,170.607,117.646,169.062,116.664,167.991L116.664,167.991z"/>
</g>
</svg>
