<?xml version="1.0" encoding="utf-8"?>
<!-- Generator: Adobe Illustrator 16.0.0, SVG Export Plug-In . SVG Version: 6.00 Build 0)  -->
<!DOCTYPE svg PUBLIC "-//W3C//DTD SVG 1.1//EN" "http://www.w3.org/Graphics/SVG/1.1/DTD/svg11.dtd">
<svg version="1.1" id="Layer_1" xmlns="http://www.w3.org/2000/svg" xmlns:xlink="http://www.w3.org/1999/xlink" x="0px" y="0px"
	 width="350px" height="350px" viewBox="0 0 350 350" enable-background="new 0 0 350 350" xml:space="preserve">
<polygon fill="#FFDBE4" points="68.527,176.051 281.473,198.318 160.285,151.682 "/>
<g>
	<g>
		<g>
			<defs>
				<path id="SVGID_1_" d="M280.518,256.886v-112.28L67.571,122.338V234.54l211.447,23.358
					C279.514,257.563,280.016,257.224,280.518,256.886z"/>
			</defs>
			<clipPath id="SVGID_2_">
				<use xlink:href="#SVGID_1_"  overflow="visible"/>
			</clipPath>
			<path clip-path="url(#SVGID_2_)" fill="#EAC591" d="M280.518,256.886v-112.28L67.571,122.338V234.54l211.447,23.358
				C279.514,257.563,280.016,257.224,280.518,256.886z"/>
		</g>
		<g>
			<g>
				<polygon fill="#E18EA4" points="67.571,180.161 67.571,203.241 280.518,230.759 280.518,205.125 				"/>
				<polygon fill="#FFFFFF" points="67.571,190.121 67.571,193.243 280.518,219.843 280.518,216.602 				"/>
			</g>
			<path fill="#F85B7B" d="M67.571,188.961"/>
			<path fill="#F85B7B" d="M279.653,215.209"/>
			<path fill="#F85B7B" d="M279.653,212.267"/>
		</g>
	</g>
	<g>
		<path fill="#5B3831" d="M286.58,145.874c-17.315-17.648-100.169-47.431-118.268-50.219c-27.245-4.2-58.372,8.893-83.327,16.747
			c-16.03,5.048-25.545,14.28-27.231,29.492c-0.601,5.417,3.605,31.287,16.956,24.04c2.357-1.285,3.932-11.601,6.093-14.404
			c10.968-14.223,18.572,1.403,31.125-1.504c5.802-1.348,8.186-9.306,13.532-10.46c7.481-1.616,9.031,5.807,14.498,8.918
			c7.09,4.029,12.804-3.955,19.307-2.542c9.227,2.006,6.828,16.556,9.613,23.099c7.181,16.87,14.793,6.382,19.637-4.204
			c8.887-19.414,13.202,1.456,25.325-1.17c9.283-2.004,11.639-7.893,17.199,1.841c2.328,4.069,2.898,11.181,7.779,13.303
			c16.876,7.313,16.876-25.866,28.204-1.81c2.498,5.305,6.974,31.109,14.362,31.9C290.512,209.881,297.85,157.358,286.58,145.874z"
			/>
		<path fill="#724A3F" d="M288.999,149.514c0,0-129.533-10.205-221.428-27.176c0,0,0-5.509,43.209-19.65
			c55.324-18.112,58.573-10.517,96.989,4.324C292.3,139.67,288.999,149.514,288.999,149.514z"/>
	</g>
</g>
</svg>
