<?xml version="1.0" encoding="utf-8"?>
<!-- Generator: Adobe Illustrator 16.0.0, SVG Export Plug-In . SVG Version: 6.00 Build 0)  -->
<!DOCTYPE svg PUBLIC "-//W3C//DTD SVG 1.1//EN" "http://www.w3.org/Graphics/SVG/1.1/DTD/svg11.dtd">
<svg version="1.1" id="Layer_1" xmlns="http://www.w3.org/2000/svg" xmlns:xlink="http://www.w3.org/1999/xlink" x="0px" y="0px"
	 width="350px" height="350px" viewBox="0 0 350 350" enable-background="new 0 0 350 350" xml:space="preserve">
<g>
	<g opacity="0.7">
		<image overflow="visible" width="272" height="304" xlink:href="3B7BF492.png"  transform="matrix(1 0 0 1 40 25)">
		</image>
	</g>
	<path fill="#FFFFFF" d="M273.234,197.72c0.086-0.781,0.119-1.561,0.098-2.339c-0.178-9.597-5.168-18.326-12.809-23.53
		c-0.834-5.5-2.215-10.84-4.131-15.971c-0.014-0.033-0.025-0.067-0.039-0.102c-2.318-6.184-5.422-12.041-9.225-17.405
		c-0.02-0.029-0.039-0.058-0.063-0.087c-2.436-3.427-5.189-6.692-8.096-9.618l-0.299-0.301c-2.939-2.934-6.145-5.671-9.404-8.041
		l-0.383-0.283c-1.643-1.186-3.361-2.333-5.07-3.381l-0.473-0.285c-1.791-1.088-3.494-2.046-5.203-2.927
		c-0.057-0.029-0.109-0.057-0.164-0.085c-1.709-0.877-3.5-1.714-5.445-2.548l-0.879-0.373c-1.67-0.697-3.24-1.306-4.771-1.848
		c-3.811-11.79-13.641-20.685-25.789-23.29c-0.068-0.013-0.133-0.027-0.201-0.041c-5.365-12.707-12.012-21.264-19.829-25.507
		c-1.469-0.796-3.023-1.365-4.617-1.707c-3.479-0.746-7.144-0.406-10.482,1.038c-4.866,2.108-8.497,6.336-9.841,11.469l-1.469,5.604
		c-2.036,7.778,1.567,15.905,8.632,19.639c0.585,0.493,1.459,1.47,2.52,2.878c-2.197,2.983-3.904,6.309-5.049,9.853
		c-0.119,0.041-0.243,0.084-0.362,0.127c-0.474,0.167-0.942,0.341-1.538,0.564c-0.652,0.242-1.3,0.493-1.929,0.745
		c-0.529,0.211-1.059,0.424-1.599,0.651c-0.641,0.271-1.271,0.552-1.907,0.838c-0.852,0.382-1.692,0.776-2.566,1.204
		c-0.605,0.292-1.206,0.587-1.784,0.885c-0.531,0.274-1.055,0.558-1.578,0.844l-0.226,0.124c-0.455,0.25-0.91,0.499-1.339,0.745
		c-0.604,0.344-1.2,0.691-1.807,1.057c-0.39,0.234-0.774,0.476-1.181,0.73c-2.192,1.37-4.338,2.854-6.441,4.457l-0.711,0.545
		c-0.656,0.512-1.3,1.034-1.906,1.539l-0.716,0.607c-2.981,2.537-5.789,5.305-8.341,8.232c-0.021,0.023-0.376,0.431-0.376,0.431
		c-0.619,0.724-1.228,1.455-1.823,2.199c-0.012,0.015-0.024,0.028-0.036,0.043c-1.917,2.409-3.718,4.977-5.286,7.528
		c-0.044,0.07-0.133,0.212-0.176,0.283c-0.528,0.865-1.039,1.74-1.533,2.629c-0.024,0.043-0.091,0.164-0.094,0.17
		c-4.701,8.49-7.728,17.673-9.047,27.422c-7.574,5.299-12.513,14.115-12.44,24.038c0.014,1.988,0.362,3.894,0.994,5.664
		l21.393,65.795c1.974,9.475,9.357,16.995,18.955,19.052h0.002c1.755,0.378,3.558,0.562,5.354,0.548l107.289-0.799
		c11.857-0.086,21.824-8.525,24.021-19.966l20.461-66.252C272.848,200.094,273.102,198.927,273.234,197.72z"/>
	<g>
		<g>
			<path fill="#8C86E6" d="M244.209,184.126c0.291,39.005-31.096,70.861-70.1,71.151c-39.004,0.292-70.86-31.094-71.152-70.1
				c-0.29-39.007,31.144-64.548,70.149-64.84C212.109,120.047,243.92,145.121,244.209,184.126z"/>
			<g>
				<rect x="197.21" y="184.492" fill="none" width="0.004" height="23.544"/>
				<rect x="150.129" y="184.845" fill="none" width="0.004" height="23.536"/>
				<g>
					<path fill="#6AC3FF" d="M218.32,270.237l9.551-0.071c3.764-0.028,6.906-2.883,7.289-6.626l20.91-67.714l-23.545,0.175
						L218.32,270.237z"/>
					<polygon fill="#6AC3FF" points="138.363,196.701 146.291,270.775 164.91,270.637 161.9,196.527 					"/>
					<polygon fill="#6AC3FF" points="183.537,270.497 202.16,270.36 208.982,196.178 185.441,196.351 					"/>
					<path fill="#6AC3FF" d="M91.279,197.054l21.913,67.395c0.438,3.738,3.618,6.545,7.389,6.518l9.547-0.071l-15.307-74.017
						L91.279,197.054z"/>
					<path fill="#6AC3FF" d="M102.957,185.178c-6.498,0.049-11.727,5.363-11.68,11.872l23.543-0.174
						C114.771,190.366,109.458,185.131,102.957,185.178z"/>
					<path fill="#6AC3FF" d="M150.041,184.829c-6.502,0.049-11.726,5.361-11.678,11.87l23.535-0.176
						C161.852,190.017,156.541,184.778,150.041,184.829z"/>
					<path fill="#6AC3FF" d="M197.125,184.478c-6.502,0.048-11.732,5.362-11.684,11.873l23.543-0.176
						C208.936,189.666,203.631,184.429,197.125,184.478z"/>
					<path fill="#6AC3FF" d="M244.209,184.126c-6.502,0.049-11.73,5.363-11.684,11.873l23.545-0.175
						C256.021,189.315,250.705,184.078,244.209,184.126z"/>
				</g>
				<path fill="#FFFFFF" d="M185.441,196.351c-0.049-6.511-5.355-11.746-11.857-11.697c-6.503,0.047-11.732,5.363-11.687,11.87
					l0.002,0.004l3.01,74.109l18.627-0.14L185.441,196.351L185.441,196.351z"/>
				<path fill="#FFFFFF" d="M232.525,195.999c-0.047-6.51-5.355-11.745-11.857-11.696s-11.732,5.363-11.684,11.872l-0.002,0.003
					l-6.822,74.183l16.16-0.123l14.205-74.236V195.999z"/>
				<path fill="#FFFFFF" d="M138.363,196.699c-0.048-6.509-5.362-11.744-11.862-11.697c-6.503,0.049-11.729,5.364-11.68,11.874
					v0.002l15.307,74.017l16.163-0.119l-7.928-74.074V196.699z"/>
			</g>
			<path fill="#FFED6F" d="M225.908,151.403c5.256-0.303,4.578,14.957,12.189,12.532c0.939-0.297,1.619-1.032,2.096-2.083
				c-9.74-25.997-36.135-41.743-67.087-41.515c-30.106,0.225-55.687,15.504-65.666,40.399c0.925,1.633,2.325,2.723,4.411,2.823
				c9.468,0.456,11.038-9.549,18.121-7.499c7.091,2.052-1.518,12.375,6.11,11.79c7.622-0.583,7.681-12.156,14.979-10.895
				c7.305,1.261,2.023,8.139,10.586,5.707c8.567-2.429,1.613-9.479,12.43-9.56c10.814-0.08-0.648,14.773,7.238,14.431
				c7.889-0.341,4.244-19.513,10.217-17.452c5.973,2.057,10.229,15.44,17.207,13.282c6.984-2.154-6.508-12.574,1.117-12.895
				c7.629-0.32,0.752,8.937,7.631,8.098C224.377,157.726,220.652,151.704,225.908,151.403z"/>
		</g>
		<g>
			<path fill="#FD7198" d="M190.541,114.195c2.809,9.234-2.396,18.999-11.629,21.807c-9.236,2.811-18.998-2.397-21.81-11.631
				c-2.809-9.232,2.396-18.996,11.637-21.806C177.969,99.755,187.73,104.962,190.541,114.195z"/>
			<path fill="#FFFFFF" d="M186.146,119.84c-2.383,4.461-4.465-2.383-9.975-5.317c-5.513-2.941-12.36-0.859-9.979-5.325
				c2.381-4.46,8.772-5.702,14.286-2.76C185.99,109.374,188.521,115.375,186.146,119.84z"/>
			<path fill="#FD7198" d="M169.423,104.828c0,0-6.455-24.388-16.601-29.894l-1.469,5.605
				C160.056,84.765,169.423,104.828,169.423,104.828z"/>
		</g>
	</g>
</g>
</svg>
