<?xml version="1.0" encoding="utf-8"?>
<!-- Generator: Adobe Illustrator 16.0.0, SVG Export Plug-In . SVG Version: 6.00 Build 0)  -->
<!DOCTYPE svg PUBLIC "-//W3C//DTD SVG 1.1//EN" "http://www.w3.org/Graphics/SVG/1.1/DTD/svg11.dtd">
<svg version="1.1" id="Layer_1" xmlns="http://www.w3.org/2000/svg" xmlns:xlink="http://www.w3.org/1999/xlink" x="0px" y="0px"
	 width="350px" height="350px" viewBox="0 0 350 350" enable-background="new 0 0 350 350" xml:space="preserve">
<g>
	<g>
		<g>
			<path fill="#633930" d="M259.811,164.067c-83.518,26.691-160.693,1.03-169.003-1.899c-0.487-0.172-0.487-0.172-0.487-0.172
				c-0.139-0.051-0.201,0.102-0.138,0.339l27.098,102.657c0.063,0.238,0.315,0.433,0.562,0.433l116.011,0.214
				c0.216-0.117,0.443-0.408,0.506-0.646l26.304-100.8c0.063-0.238-0.079-0.372-0.313-0.298
				C260.349,163.894,260.133,163.963,259.811,164.067z"/>
		</g>
		<g>
			<g opacity="0.7">
				
					<rect x="65.292" y="213.317" transform="matrix(0.2051 0.9787 -0.9787 0.2051 303.4545 57.1015)" fill="#4C2620" width="102.562" height="4.108"/>
			</g>
			<g opacity="0.7">
				
					<rect x="96.288" y="216.504" transform="matrix(0.0972 0.9953 -0.9953 0.0972 347.0835 54.473)" fill="#4C2620" width="94.453" height="4.11"/>
			</g>
			<g opacity="0.7">
				
					<rect x="232.239" y="164.089" transform="matrix(0.9787 0.2054 -0.2054 0.9787 49.2294 -43.5293)" fill="#4C2620" width="4.108" height="102.564"/>
			</g>
			<g opacity="0.7">
				
					<rect x="205.304" y="173.046" transform="matrix(0.9951 0.0984 -0.0984 0.9951 22.5908 -19.3346)" fill="#4C2620" width="4.11" height="92.743"/>
			</g>
			<g opacity="0.7">
				<rect x="171.358" y="173.273" fill="#4C2620" width="4.107" height="92.289"/>
			</g>
		</g>
	</g>
	<g>
		<path fill="#724A3F" d="M272.72,145.141c-11.466-39.709-48.351-65.554-69.943-69.876c-9.215-1.841-19.191-2.499-27.356-2.503
			v-0.004c-0.067,0-0.144,0.004-0.211,0.004c-0.206,0-0.428-0.004-0.632-0.004v0.013c-8.106,0.004-17.255,0.654-26.47,2.495
			c-21.598,4.323-59.36,30.167-70.826,69.876c-0.678,2.351-4.168,16.921,14.113,19.313c5.127,2.438,38.388,15.841,82.723,17.31
			v0.061c0.297-0.006,0.589-0.021,0.884-0.03c0.295,0.009,0.587,0.024,0.885,0.03v-0.061c44.329-1.469,77.595-14.871,82.717-17.31
			C276.888,162.062,273.397,147.492,272.72,145.141z"/>
		<g>
			<path opacity="0.7" fill="#4C2620" d="M161.959,101.454c0-3.914,3.238-7.089,7.232-7.089c3.999,0,7.232,3.175,7.232,7.089"/>
			<path opacity="0.7" fill="#4C2620" d="M216.537,125.873c0-3.908,3.242-7.083,7.237-7.083c3.99,0,7.232,3.175,7.232,7.083"/>
			<path opacity="0.7" fill="#4C2620" d="M106.055,125.873c0-3.908,3.238-7.083,7.237-7.083c3.994,0,7.232,3.175,7.232,7.083"/>
			<path opacity="0.7" fill="#4C2620" d="M136.289,156c0-3.912,3.234-7.08,7.228-7.08c3.995,0,7.233,3.168,7.233,7.08"/>
			<path opacity="0.7" fill="#4C2620" d="M194.579,159.541c0-3.912,3.233-7.085,7.232-7.085c3.994,0,7.236,3.173,7.236,7.085"/>
			<path opacity="0.7" fill="#4C2620" d="M169.191,131.501c0-3.914,3.238-7.085,7.232-7.085s7.232,3.171,7.232,7.085"/>
		</g>
	</g>
</g>
</svg>
