<?xml version="1.0" encoding="utf-8"?>
<!-- Generator: Adobe Illustrator 16.0.0, SVG Export Plug-In . SVG Version: 6.00 Build 0)  -->
<!DOCTYPE svg PUBLIC "-//W3C//DTD SVG 1.1//EN" "http://www.w3.org/Graphics/SVG/1.1/DTD/svg11.dtd">
<svg version="1.1" id="Layer_1" xmlns="http://www.w3.org/2000/svg" xmlns:xlink="http://www.w3.org/1999/xlink" x="0px" y="0px"
	 width="350px" height="350px" viewBox="0 0 350 350" enable-background="new 0 0 350 350" xml:space="preserve">
<g>
	<g>
		<path d="M287.908,73.932h-44.661V61.937c0-3.223-2.613-5.837-5.836-5.837c-3.224,0-5.837,2.613-5.837,5.837v11.996h-50.735V61.937
			c0-3.223-2.613-5.837-5.837-5.837c-3.223,0-5.836,2.613-5.836,5.837v11.996h-50.739V61.937c0-3.223-2.613-5.837-5.836-5.837
			s-5.836,2.613-5.836,5.837v11.996H62.092c-8.046,0-14.592,6.545-14.592,14.592v190.784c0,8.046,6.546,14.592,14.592,14.592
			h225.816c8.046,0,14.592-6.546,14.592-14.592V88.523C302.5,80.478,295.954,73.932,287.908,73.932z M290.826,279.309
			c0,1.609-1.309,2.918-2.918,2.918H62.092c-1.609,0-2.918-1.309-2.918-2.918V145.901h231.653V279.309L290.826,279.309z
			 M290.826,134.228H59.173V88.523c0-1.608,1.309-2.918,2.918-2.918h44.662v17.265c-2.024,1.679-3.314,4.212-3.314,7.046
			c0,5.055,4.097,9.151,9.151,9.151s9.151-4.097,9.151-9.151c0-2.834-1.29-5.368-3.314-7.046V85.605h50.739v17.265
			c-2.024,1.678-3.314,4.211-3.314,7.046c0,5.054,4.097,9.15,9.151,9.15s9.15-4.097,9.15-9.15c0-2.835-1.29-5.368-3.313-7.046
			V85.605h50.735v17.265c-2.024,1.678-3.314,4.211-3.314,7.046c0,5.054,4.097,9.15,9.15,9.15s9.15-4.097,9.15-9.15
			c0-2.835-1.29-5.368-3.313-7.046V85.605h44.661c1.608,0,2.918,1.309,2.918,2.918V134.228L290.826,134.228z"/>
	</g>
</g>
<g>
	<g>
		<path d="M253.362,169.046h-39.181H175H135.82H96.638c-3.223,0-5.836,2.614-5.836,5.837v39.181v39.182
			c0,3.222,2.613,5.835,5.836,5.835h39.181H175h39.181h39.181c3.224,0,5.837-2.613,5.837-5.835v-39.182v-39.181
			C259.198,171.66,256.586,169.046,253.362,169.046z M129.982,247.408h-27.507V219.9h27.507V247.408z M129.982,208.227h-27.507
			V180.72h27.507V208.227z M169.163,247.408h-27.508V219.9h27.508V247.408z M169.163,208.227h-27.508V180.72h27.508V208.227z
			 M208.344,247.408h-27.507V219.9h27.507V247.408z M208.345,208.227h-27.508V180.72h27.508V208.227z M247.525,247.408h-27.508
			V219.9h27.508V247.408z M247.525,208.227h-27.508V180.72h27.508V208.227z"/>
	</g>
</g>
</svg>
