<?xml version="1.0" encoding="utf-8"?>
<!-- Generator: Adobe Illustrator 16.0.0, SVG Export Plug-In . SVG Version: 6.00 Build 0)  -->
<!DOCTYPE svg PUBLIC "-//W3C//DTD SVG 1.1//EN" "http://www.w3.org/Graphics/SVG/1.1/DTD/svg11.dtd">
<svg version="1.1" id="Layer_1" xmlns="http://www.w3.org/2000/svg" xmlns:xlink="http://www.w3.org/1999/xlink" x="0px" y="0px"
	 width="350px" height="350px" viewBox="0 0 350 350" enable-background="new 0 0 350 350" xml:space="preserve">
<path fill="#CCCCCC" d="M273.489,202.129c2.83-4.134,3.518-8.773,0.121-12.117c8.057-4.243,10.671-13.732,3.696-18.421
	c4.318-2.057,7.976-5.705,6.941-10.872c-1.022-5.112-5.099-6.928-9.514-7.037c5.478-6.326,11.546-16.241,0.817-18.831
	c-10.567-2.55-21.897,6.339-27.399,15.161c-6.589-16.027-21.377-27.349-42.173-22.559c-10.283,2.37-20.518,10.839-26.963,21.144
	c-1.75-2.299-3.851-4.435-6.184-6.292c0.428-2.396-0.668-4.9-2.567-7.364c0.094,0.009,0.178,0.031,0.282,0.02
	c8.347-0.987,27.967-9.78,23.952-21.529c-2.531-7.404-11.053-5.918-17.852-3.317c2.359-4.643,3.396-10.12-1.491-13.321
	c-5.474-3.586-10.758-1.651-14.951,2.07c0.641-6.871,0.068-15.441-7.901-13.162c-9,2.574-14.285,15.428-15.762,24.609
	c-8.274-4.151-16.843-5.247-25.799,2.37c-13.263,11.279-32.425,27.66-28.119,47.071c0.465,2.096,1.358,4.155,2.519,6.163
	c-0.125-0.022-0.247-0.051-0.395-0.033c-8.684,1.056-16.857,8.848-21.167,16.052c-4.525,7.563,0.577,15.596,9.607,12.966
	c0.631,2.56,1.951,5.269,3.53,7.695c-5.479-0.454-11.041,0.975-11.872,7.475c-0.848,6.638,2.737,11.994,7.704,15.722
	c-5.679,1.538-10.516,5.146-9.789,12.028c0.494,4.665,3.455,6.73,7.028,7.248c-4.002,4.834-5.077,11.053,1.677,15.64
	c12.739,8.646,29.659-7.219,39.01-14.24c4.65,11.782,20.495,14.435,31.46,15.426c16.665,1.508,33.744,1.197,50.489,2.251
	c14.495,0.912,29.573,0.712,36.082-14.337c0.717-1.66,1.316-3.435,1.818-5.288c7.553,11.167,26.181,20.43,37.705,20.149
	c3.521-0.086,8.185-2.781,8.006-6.84c-0.231-5.255-3.454-9.282-7.389-12.571c6.086-0.403,11.888-2.98,12.785-9.857
	c0.61-4.688-1.162-7.914-4.054-10.041c5.616-2.059,10.118-6.161,10.657-12.968C288.835,202.364,281.155,200.868,273.489,202.129z
	 M264.844,181.45c-3.787-2.4-8.928-3.673-13.481-3.738c0.48-3.17,0.67-6.382,0.577-9.569c0.117,0.062,0.251,0.106,0.414,0.108
	c5.174,0.049,10.828-0.546,15.394-3.143c0.857-0.489,0.267-1.75-0.65-1.545c-4.991,1.111-9.559,2.729-14.743,2.927
	c-0.209,0.007-0.365,0.086-0.5,0.188c-0.088-1.563-0.267-3.112-0.487-4.651c0.058,0.002,0.108,0.013,0.168,0
	c5.413-1.003,11.059-4.067,13.667-9.111c0.612-1.186-0.975-2.041-1.746-1.021c-3.289,4.343-6.875,7.479-12.273,8.846
	c-0.007,0.002-0.009,0.006-0.016,0.006c-0.468-2.791-1.129-5.53-2.039-8.158c5.292-7.204,12.882-13.232,22.045-14.096
	c13.392-1.263,0.443,13.038-3.288,16.47c-1.528,1.407,0.067,3.893,1.97,3.386c3.803-1.014,10.191-1.673,10.44,3.873
	c0.214,4.729-5.972,6.567-9.525,7.167c-1.999,0.339-1.922,3.544,0,3.943c10.534,2.193,7.199,11.372-0.979,14.092
	c-0.058,0.02-0.093,0.062-0.146,0.084c-0.714-0.296-1.468-0.573-2.318-0.813c-6.036-1.695-13.197,0.547-19.905,4.298
	c1.772-3.787,2.954-7.812,3.692-11.912c2.22,0.263,4.305,0.86,6.405,1.66c2.181,0.831,4.243,2.107,6.536,2.581
	C265.188,183.555,265.847,182.087,264.844,181.45z M177.57,151.063c-1.764,3.205-3.123,6.545-4.018,9.904
	c-4.208-2.094-8.042-5.235-11.774-7.925c-0.33-0.238-0.821,0.24-0.57,0.569c1.68,2.202,3.746,4.007,5.911,5.722
	c1.782,1.413,3.745,2.974,5.883,4.012c-0.393,1.997-0.629,3.994-0.65,5.962c-3.92-0.11-7.866,0.086-11.781,0.161
	c-1.151,0.022-1.151,1.763,0,1.785c3.929,0.077,7.89,0.273,11.824,0.161c0.159,2.44,0.619,4.828,1.476,7.103
	c-4.784,0.398-9.475,0.93-14.298,1.012c-1.042,0.018-1.043,1.603,0,1.618c4.915,0.081,10.234,0.447,15.015-0.911
	c1.309,2.765,3.195,5.351,5.781,7.645c-10.021,0.051-20.048,0.194-30.064-0.13c0.087-0.282,0.129-0.584,0.051-0.912
	c-1.161-4.914,2.431-7.555,6.769-8.522c2.27-0.507,1.739-4.042-0.542-4.009c-5.108,0.075-10.777-1.909-11.552-7.687
	c-0.819-6.106,6.272-6.752,10.553-6.198c1.845,0.238,2.572-2.333,1.437-3.47c-4.822-4.828-14.189-16.852-1.217-17.072
	c4.678-0.082,9.213,1.596,13.276,4.124c0.11,0.09,0.227,0.163,0.354,0.231C172.466,146.174,175.229,148.575,177.57,151.063z
	 M146.672,93.849c1.79-2.079,3.934-3.972,6.497-5.017c6.151-2.508,2.834,14.207,2.646,15.199c-0.398,2.094,2.113,3.09,3.34,1.409
	c2.283-4.131,5.687-6.432,10.212-6.899c6.38,4.891,6.659,9.765,0.84,14.617c-1.354,1.638,0.313,3.994,2.291,2.971
	c2.914-1.51,19.827-9.401,18.002,1.252c-1.587,9.274-14.183,10.768-20.717,14.765c-0.48,0.293-0.692,0.844-0.683,1.382
	c-4.285-4.772-11.236-9.267-15.93-12.347c4.262-2.094,7.94-5.945,9.143-10.47c0.227-0.851-0.964-1.356-1.413-0.598
	c-2.528,4.272-5.241,7.499-9.357,9.99c-0.691-0.461-1.303-0.88-1.802-1.246c-1.155-0.846-2.318-1.684-3.484-2.511
	c0.87-2.495,1.634-5.059,2.204-7.601c0.211-0.939-1.21-1.655-1.631-0.688c-0.986,2.266-1.656,4.688-2.27,7.109
	c-2.266-1.556-4.551-3.024-6.861-4.265C139.364,104.562,142.33,98.89,146.672,93.849z M106.807,122.335
	c5.144-5.416,10.891-10.912,18.727-11.339c6.959-0.381,13.38,5.277,18.613,9.201c3.272,2.453,19.919,12.395,23.622,18.776
	c-5.136-2.738-10.941-4.001-16.689-2.703c-11.242,2.537-5.301,13.49-0.052,20.053c-5.516,0.602-10.184,3.729-10.083,10.298
	c0.085,5.553,4.138,9.066,8.907,10.698c-3.087,2.471-4.816,6.132-3.082,10.305c-0.65-0.028-1.302-0.035-1.952-0.07
	c-6.334-0.333-15.468-0.829-22.399,1.757c-0.04-0.033-0.063-0.075-0.108-0.104c-10.545-6.926-21.517-13.164-30.451-22.23
	C76.032,150.909,96.07,133.641,106.807,122.335z M109.199,222.254c-6.902-3.56-12.857-7.611-15.562-15.228
	c-0.405-1.142-2.059-0.694-1.814,0.501c1.693,8.235,9.048,13.997,16.575,16.779c0.184,0.068,0.353,0.065,0.512,0.035
	c-0.118,0.93-0.229,1.86-0.313,2.79c-7.009-2.418-14.437-3.756-21.853-3.74c-1.092,0.002-1.085,1.653,0,1.69
	c7.536,0.263,14.397,2.507,21.679,4.12c0.007,0.002,0.011,0,0.017,0.002c-0.115,1.869-0.154,3.732-0.086,5.584
	c-6.208-0.263-13.084,2.374-18.841,3.6c-1.012,0.214-0.649,1.554,0.225,1.659c2.894,0.349,6.137-0.754,8.937-1.333
	c3.289-0.68,6.556-1.076,9.867-1.332c0.138,1.504,0.324,3.003,0.626,4.484c-0.211,0.072-0.427,0.169-0.643,0.33
	c-5.815,4.283-11.364,8.811-17.616,12.468c-4.991,2.918-9.999,3.752-15.664,2.518c-12.493-2.721,2.665-12.995,4.716-13.934
	c2.775-1.355,0.351-5.354-2.397-4.103c-3.535,1.735-9.587,3.146-10.184-2.563c-0.648-6.194,8.401-6.964,12.38-6.977
	c2.875-0.009,2.98-3.696,0.632-4.667c-5.155-2.131-9.056-5.544-10.733-10.924c-2.698-8.652,8.008-6.908,12.459-5.432
	c2.302,0.765,3.996-2.37,2.324-3.994c-3.14-3.053-7.164-6.717-7.436-11.403c-0.258-4.438,7.61-3.712,10.016-3.311
	c11.523,1.92,19.216,12.214,22.15,22.808c0.235,0.845,0.898,1.148,1.551,1.094C110.141,216.591,109.618,219.422,109.199,222.254z
	 M111.63,209.507c-3.682-13.429-14.879-24.999-29.637-24.636c-6.647,0.163-9.064,3.031-9.184,6.78
	c-2.3-0.434-5.978-0.247-6.707-2.858c-0.692-2.482,1.961-5.989,3.248-7.861c3.672-5.334,9.509-10.318,15.794-12.128
	c0.6-0.172,0.927-0.674,1.012-1.217c3.438,5.13,8.786,9.843,14.595,13.777c-1.47,1.85-2.98,3.639-4.645,5.346
	c-0.784,0.802,0.427,2.012,1.228,1.228c1.776-1.735,3.552-3.51,5.028-5.509c1.903,1.226,3.835,2.33,5.76,3.373
	c-1.39,1.875-2.224,4.175-2.222,6.509c0,1.041,1.515,1.014,1.594,0c0.166-2.145,1.239-3.877,2.447-5.544
	c3.262,1.673,6.447,3.08,9.296,4.089c-2.816,1.706-5.004,4.169-6.018,7.762c-0.238,0.845-0.097,1.536,0.257,2.055
	C112.922,203.57,112.275,206.524,111.63,209.507z M221.093,251.208c-6.6,11.709-30.19,6.877-40.979,5.94
	c-10.95-0.95-21.745-0.763-32.716-1.032c-13.844-0.337-31.116-2.539-33.092-19.135c-1.419-11.928,1.857-23.938,2.908-35.812
	c0.379-0.28,0.704-0.673,0.918-1.197c4.151-10.168,25.471-6.568,33.852-6.037c15.968,1.014,32.002-0.408,47.996,0.083
	c5.961,0.184,12.172,0.351,18.001,1.691c6.656,1.527,6.805,9.013,7.252,14.557C226.264,223.134,227.6,239.661,221.093,251.208z
	 M210.221,188.711c-8.438-0.692-16.894-0.847-25.354-0.847c-16.19-20.8-1.885-48.382,22.436-55.614
	c14.832-4.413,29.277,5.244,36.256,17.861c7.232,13.076,3.922,28.601-1.252,41.631c-0.337,0.853-0.035,1.591,0.536,2.074
	c-4.769,3.218-9.084,6.963-12.285,10.243C228.494,192.39,221.393,189.628,210.221,188.711z M283.342,213.051
	c-1.258,6.289-7.019,8.908-12.877,9.426c-2.703-0.56-5.555-0.696-8.134-0.503c-2.407,0.184-3.241,3.897-0.6,4.444
	c2.669,0.551,5.674,0.721,8.674,0.458c3.566,0.81,6.521,2.775,6.686,7.146c0.309,8.146-11.486,7.113-16.131,5.914
	c-2.639-0.681-3.994,2.833-1.804,4.279c2.917,1.741,5.597,3.8,8.042,6.176c4.294,3.021,3.844,6.177-1.354,9.475
	c-5.414,0.152-11.458-3.225-15.955-5.632c-6.11-3.271-14.478-8.725-18.433-14.908c0.238-1.435,0.396-2.916,0.547-4.399
	c1.27,2.604,4.748,4.559,6.884,6.238c3.47,2.727,7.043,6.423,11.188,8.048c0.868,0.342,1.719-0.831,1.21-1.574
	c-2.354-3.438-6.615-5.709-9.931-8.138c-2.646-1.936-5.593-4.984-8.773-5.941c-0.143-0.044-0.286-0.015-0.419,0.04
	c0.477-5.667,0.371-11.581-0.07-17.181c6.798,1.527,13.914-0.544,19.025-5.392c0.875-0.831-0.275-2.36-1.298-1.684
	c-5.714,3.793-11.086,6.196-17.882,5.385c-0.176-1.938-0.379-3.845-0.621-5.667c0.193-0.082,0.386-0.159,0.573-0.305
	c4.752-3.721,9.476-7.45,14.469-10.852c3.363-2.29,6.912-4.322,10.69-5.842c2.309-0.787,4.695-1.177,7.164-1.166
	c2.484,2.227,4.969,4.455,7.455,6.684c-2.004,3.622-4.832,6.198-8.486,7.732c-2.61,1.418-0.322,5.143,2.292,3.924
	C270.628,206.837,285.608,201.734,283.342,213.051z"/>
</svg>
