<?xml version="1.0" encoding="utf-8"?>
<!-- Generator: Adobe Illustrator 16.0.0, SVG Export Plug-In . SVG Version: 6.00 Build 0)  -->
<!DOCTYPE svg PUBLIC "-//W3C//DTD SVG 1.1//EN" "http://www.w3.org/Graphics/SVG/1.1/DTD/svg11.dtd">
<svg version="1.1" id="Capa_1" xmlns="http://www.w3.org/2000/svg" xmlns:xlink="http://www.w3.org/1999/xlink" x="0px" y="0px"
	 width="350px" height="350px" viewBox="0 0 350 350" enable-background="new 0 0 350 350" xml:space="preserve">
<g>
	<path d="M286.628,108.874h-7.066c-0.751,0-1.367-0.616-1.367-1.367v-7.066c0-5.569-4.529-10.102-10.098-10.102h-7.071
		c-0.751,0-1.362-0.612-1.362-1.363v-7.066c0-5.564-4.53-10.098-10.099-10.098h-7.071c-0.751,0-1.366-0.616-1.366-1.367v-7.063
		c0.009-5.573-4.521-10.102-10.089-10.102h-9.019c-4.041,0-7.683,2.402-9.282,6.119l-7.529,17.566
		c-12.613,15.247-25.769,30.088-39.33,44.558c-4.97,5.307-10.015,10.565-15.129,15.78c-0.258,0.263-0.511,0.529-0.773,0.791
		c-5.154,5.245-10.377,10.438-15.662,15.574c-0.179,0.175-0.358,0.354-0.542,0.529c-5.35,5.193-10.766,10.325-16.229,15.391
		c-0.131,0.123-0.262,0.245-0.394,0.367c-5.547,5.132-11.146,10.198-16.789,15.177c-0.092,0.083-0.184,0.166-0.275,0.245
		l-4.721,4.171l0.018,0.009c-6.08,5.293-12.216,10.521-18.418,15.653l-17.706,7.587c-3.634,1.563-5.979,5.123-5.979,9.075v9.399
		c0,5.442,4.429,9.87,9.871,9.87h7.53c0.625,0,1.131,0.507,1.131,1.136v7.525c0,5.441,4.429,9.87,9.871,9.87h7.53
		c0.629,0,1.135,0.507,1.135,1.136v7.53c0,5.442,4.429,9.871,9.871,9.871h7.53c0.625,0,1.131,0.506,1.131,1.13v7.53
		c0,5.442,4.429,9.871,9.871,9.871h9.399c3.957,0,7.521-2.35,9.072-5.984l7.586-17.701c12.579-15.203,25.694-30.001,39.212-44.436
		c5.088-5.434,10.255-10.818,15.487-16.151c0.131-0.136,0.263-0.271,0.393-0.401c5.285-5.382,10.641-10.705,16.056-15.964
		c0.053-0.048,0.101-0.101,0.153-0.148c10.979-10.662,22.213-21.065,33.617-31.123l4.936-4.355l-0.027-0.013
		c6.08-5.293,12.212-10.521,18.419-15.653l17.57-7.53c3.717-1.594,6.114-5.237,6.114-9.281v-9.032
		C296.726,113.403,292.196,108.874,286.628,108.874z M224.316,176.073c-0.337,0.313-0.677,0.628-1.014,0.943
		c-4.73,4.42-9.412,8.893-14.055,13.408c-0.375,0.367-0.752,0.733-1.127,1.101c-4.673,4.56-9.303,9.163-13.885,13.818
		c-0.196,0.201-0.393,0.402-0.589,0.604c-4.704,4.791-9.369,9.617-13.973,14.5l-68.688-33.075c0.07-0.061,0.136-0.127,0.206-0.188
		c4.809-4.306,9.569-8.661,14.291-13.063c0.458-0.428,0.921-0.856,1.38-1.284c4.634-4.333,9.22-8.713,13.771-13.137
		c0.476-0.463,0.948-0.926,1.423-1.389c4.573-4.468,9.111-8.975,13.597-13.531c0.318-0.328,0.638-0.655,0.957-0.979
		c4.616-4.704,9.198-9.447,13.718-14.242l68.689,33.075C234.069,167.063,229.173,171.543,224.316,176.073z M137.664,267.962
		l-8.486,19.349c-0.174,0.415-0.585,0.681-1.04,0.681h-9.399c-0.629,0-1.135-0.507-1.135-1.136v-7.528
		c0-5.438-4.429-9.867-9.866-9.867h-7.53c-0.629,0-1.136-0.507-1.136-1.136v-7.529c0-5.442-4.429-9.871-9.871-9.871h-7.525
		c-0.629,0-1.136-0.507-1.136-1.136v-7.524c0-5.442-4.428-9.871-9.866-9.871h-7.525c-0.629,0-1.136-0.507-1.136-1.136v-9.398
		c0-0.454,0.276-0.865,0.686-1.044l18.283-7.835l1.061-0.647c7.386-6.101,14.653-12.355,21.86-18.68l69.536,33.481
		C161.144,240.441,149.177,254.029,137.664,267.962z M287.99,127.986c0,0.546-0.323,1.035-0.821,1.253l-18.146,7.774l-1.062,0.646
		c-7.386,6.101-14.652,12.356-21.859,18.68l-69.532-33.481c12.3-13.295,24.267-26.887,35.775-40.819l8.425-19.2
		c0.21-0.502,0.703-0.826,1.25-0.826h9.019c0.751,0,1.362,0.616,1.362,1.367v7.067c0,5.569,4.529,10.102,10.103,10.102h7.071
		c0.751,0,1.362,0.611,1.362,1.363v7.071c0,5.564,4.529,10.098,10.098,10.098h7.071c0.751,0,1.362,0.616,1.362,1.367v7.066
		c0,5.569,4.529,10.102,10.103,10.102h7.066c0.751,0,1.367,0.612,1.367,1.363v9.006H287.99z"/>
	<path d="M158.012,154.93c-11.067,11.067-11.067,29.075,0,40.146c5.538,5.537,12.806,8.298,20.078,8.298
		c7.268,0,14.54-2.769,20.073-8.298c5.364-5.363,8.315-12.491,8.315-20.078s-2.956-14.71-8.315-20.073
		c-5.359-5.364-12.487-8.316-20.073-8.316C170.503,146.609,163.375,149.57,158.012,154.93z M197.744,175.003
		c0,5.249-2.044,10.185-5.757,13.901c-7.66,7.661-20.125,7.661-27.795,0c-7.661-7.664-7.661-20.134,0-27.795
		c3.717-3.716,8.647-5.756,13.901-5.756c5.255,0,10.186,2.044,13.897,5.756C195.7,164.817,197.744,169.753,197.744,175.003z"/>
	<path d="M227.504,85.441c-1.707-1.708-4.467-1.708-6.175,0l-6.176,6.176c-1.708,1.708-1.708,4.468,0,6.176
		c0.852,0.852,1.97,1.28,3.088,1.28s2.236-0.428,3.088-1.28l6.175-6.176C229.208,89.914,229.208,87.149,227.504,85.441z"/>
	<path d="M239.855,97.793c-1.707-1.708-4.468-1.708-6.176,0l-6.176,6.18c-1.707,1.708-1.707,4.472,0,6.176
		c0.853,0.852,1.971,1.28,3.088,1.28c1.118,0,2.236-0.428,3.088-1.28l6.176-6.18C241.559,102.265,241.559,99.496,239.855,97.793z"/>
	<path d="M252.212,110.149c-1.708-1.708-4.469-1.708-6.176,0l-6.176,6.176c-1.708,1.708-1.708,4.468,0,6.175
		c0.852,0.852,1.97,1.28,3.088,1.28s2.236-0.428,3.088-1.28l6.176-6.175C253.915,114.622,253.915,111.856,252.212,110.149z"/>
	<path d="M258.388,122.504l-6.176,6.176c-1.708,1.708-1.708,4.468,0,6.176c0.852,0.852,1.97,1.279,3.088,1.279
		s2.236-0.428,3.088-1.279l6.175-6.176c1.709-1.708,1.709-4.468,0-6.176C262.855,120.797,260.096,120.797,258.388,122.504z"/>
	<path d="M97.792,215.154c-1.708-1.708-4.468-1.708-6.176,0l-6.175,6.176c-1.708,1.708-1.708,4.468,0,6.175
		c0.851,0.853,1.97,1.28,3.088,1.28c1.118,0,2.236-0.428,3.087-1.28l6.176-6.175C99.5,219.622,99.5,216.857,97.792,215.154z"/>
	<path d="M110.148,227.51c-1.708-1.708-4.468-1.708-6.176,0l-6.176,6.176c-1.708,1.708-1.708,4.468,0,6.176
		c0.852,0.852,1.97,1.279,3.088,1.279c1.118,0,2.236-0.428,3.088-1.279l6.176-6.176C111.852,231.979,111.852,229.214,110.148,227.51
		z"/>
	<path d="M122.5,239.861c-1.708-1.708-4.468-1.708-6.176,0l-6.176,6.176c-1.708,1.707-1.708,4.468,0,6.176
		c0.852,0.852,1.97,1.279,3.088,1.279s2.236-0.428,3.088-1.279l6.176-6.176C124.203,244.329,124.203,241.564,122.5,239.861z"/>
	<path d="M128.68,252.213l-6.176,6.176c-1.708,1.708-1.708,4.468,0,6.175c0.852,0.852,1.97,1.28,3.088,1.28
		c1.118,0,2.236-0.429,3.088-1.28l6.176-6.175c1.708-1.708,1.708-4.469,0-6.176C133.147,250.505,130.383,250.505,128.68,252.213z"/>
</g>
</svg>
