<?xml version="1.0" encoding="utf-8"?>
<!-- Generator: Adobe Illustrator 16.0.0, SVG Export Plug-In . SVG Version: 6.00 Build 0)  -->
<!DOCTYPE svg PUBLIC "-//W3C//DTD SVG 1.1//EN" "http://www.w3.org/Graphics/SVG/1.1/DTD/svg11.dtd">
<svg version="1.1" id="Layer_1" xmlns="http://www.w3.org/2000/svg" xmlns:xlink="http://www.w3.org/1999/xlink" x="0px" y="0px"
	 width="350px" height="350px" viewBox="0 0 350 350" enable-background="new 0 0 350 350" xml:space="preserve">
<path fill="#2A2A33" d="M71.058,217.727v39.071c0,7.844,6.359,14.203,14.203,14.203l0,0c7.844,0,14.203-6.358,14.203-14.203v-39.071
	H71.058z"/>
<path opacity="0.1" enable-background="new    " d="M71.058,239.997c6.08,5.76,14.278,9.252,23.268,9.252h5.137v-31.523H71.058
	V239.997z"/>
<path fill="#2A2A33" d="M278.941,217.727v39.071c0,7.844-6.358,14.203-14.202,14.203l0,0c-7.844,0-14.203-6.358-14.203-14.203
	v-39.071H278.941z"/>
<path opacity="0.1" enable-background="new    " d="M278.941,239.997c-6.079,5.76-14.277,9.252-23.268,9.252h-5.137v-31.523h28.404
	V239.997L278.941,239.997z"/>
<path fill="#D2555A" d="M278.941,217.727c4.246-41.737-20.516-71.726-20.516-71.726H91.574c0,0-24.76,29.988-20.516,71.726
	c1.216,11.956,11.25,21.071,23.268,21.071h161.348C267.691,238.797,277.727,229.683,278.941,217.727z"/>
<path opacity="0.1" enable-background="new    " d="M98.325,217.727c-4.246-41.737,20.516-71.726,20.516-71.726H91.574
	c0,0-24.76,29.988-20.516,71.726c1.216,11.956,11.25,21.071,23.268,21.071h27.266C109.575,238.797,99.541,229.683,98.325,217.727z"
	/>
<circle fill="#FFB64D" cx="99.865" cy="180.514" r="12.929"/>
<path opacity="0.1" enable-background="new    " d="M96.024,180.514c0-5.541,3.486-10.266,8.384-12.105
	c-1.414-0.531-2.945-0.823-4.545-0.823c-7.14,0-12.929,5.788-12.929,12.929s5.788,12.929,12.929,12.929
	c1.6,0,3.13-0.292,4.545-0.823C99.511,190.779,96.024,186.055,96.024,180.514z"/>
<circle fill="#FFB64D" cx="250.135" cy="180.514" r="12.929"/>
<path fill="#FF6465" d="M258.427,146.001c0,0-2.221-67.002-49.716-67.002H141.29c-47.495,0-49.716,67.002-49.716,67.002H258.427z"/>
<path fill="#99EEFF" d="M107.061,132.367c0.947-4.716,2.364-10.135,4.479-15.468c3.01-7.592,6.815-13.486,11.309-17.518
	c5.06-4.542,11.092-6.749,18.441-6.749h67.422c7.431,0,13.521,2.26,18.618,6.909c4.521,4.125,8.337,10.142,11.338,17.886
	c1.998,5.156,3.354,10.375,4.27,14.94H107.061L107.061,132.367z"/>
<circle fill="#FF9140" cx="91.572" cy="208.436" r="7.889"/>
<path opacity="0.1" enable-background="new    " d="M89.137,208.437c0-3.397,2.152-6.285,5.163-7.396
	c-0.851-0.314-1.767-0.494-2.727-0.494c-4.357,0-7.889,3.532-7.889,7.889c0,4.357,3.532,7.89,7.889,7.89
	c0.959,0,1.876-0.18,2.727-0.494C91.289,214.722,89.137,211.834,89.137,208.437z"/>
<circle fill="#FF9140" cx="258.424" cy="208.436" r="7.889"/>
<circle fill="#BAC2D9" cx="175.002" cy="197.229" r="7.466"/>
<path opacity="0.1" enable-background="new    " d="M172.534,197.228c0-3.245,2.074-5.999,4.966-7.027
	c-0.783-0.278-1.621-0.438-2.5-0.438c-4.123,0-7.466,3.342-7.466,7.466c0,4.123,3.342,7.465,7.466,7.465
	c0.878,0,1.716-0.159,2.5-0.438C174.608,203.226,172.534,200.473,172.534,197.228z"/>
<path opacity="0.1" enable-background="new    " d="M246.296,180.514c0-5.541,3.486-10.266,8.385-12.105
	c-1.414-0.531-2.945-0.823-4.545-0.823c-7.141,0-12.929,5.788-12.929,12.929s5.788,12.929,12.929,12.929
	c1.6,0,3.13-0.292,4.545-0.823C249.782,190.779,246.296,186.055,246.296,180.514z"/>
<path opacity="0.1" enable-background="new    " d="M255.99,208.437c0-3.397,2.151-6.285,5.163-7.396
	c-0.851-0.314-1.767-0.494-2.727-0.494c-4.357,0-7.89,3.532-7.89,7.889c0,4.357,3.532,7.89,7.89,7.89
	c0.959,0,1.876-0.18,2.727-0.494C258.142,214.722,255.99,211.834,255.99,208.437z"/>
<path opacity="0.1" enable-background="new    " d="M168.556,78.999H141.29c-47.495,0-49.716,67.002-49.716,67.002h27.266
	C118.84,146.001,121.061,78.999,168.556,78.999z"/>
<rect x="149.649" y="230.221" fill="#BAC2D9" width="50.702" height="17.154"/>
<path opacity="0.1" enable-background="new    " d="M149.648,230.22v17.154h19.375c-9.036-4.582-9.334-12.692-8.697-17.154H149.648z
	"/>
<g>
	<path fill="#FF6465" d="M78.867,131.541h-4.152c-2.118,0-3.835,1.717-3.835,3.835c0,2.118,1.717,3.834,3.835,3.834h4.152
		c2.118,0,3.835-1.717,3.835-3.834C82.702,133.258,80.984,131.541,78.867,131.541z"/>
	<path fill="#FF6465" d="M271.134,131.541h4.152c2.118,0,3.835,1.717,3.835,3.835c0,2.118-1.717,3.834-3.835,3.834h-4.152
		c-2.118,0-3.835-1.717-3.835-3.834C267.299,133.258,269.016,131.541,271.134,131.541z"/>
</g>
<path d="M276.44,144.597c4.322-0.844,7.596-4.656,7.596-9.221c0-5.182-4.216-9.398-9.398-9.398h-2.857
	c-5.182,0-9.397,4.215-9.397,9.398c0,4.344,2.966,7.998,6.977,9.07c-0.048,0.114-0.101,0.227-0.158,0.342
	c-0.827,1.634-2.401,2.914-4.685,3.823c-1.176-1.764-2.133-3.067-2.741-3.864c-0.246-4.127-1.488-18.697-7.219-33.48
	c-9.047-23.34-24.899-35.678-45.847-35.678h-48.385c-1.882,0-3.409,1.525-3.409,3.408s1.526,3.408,3.409,3.408h48.386
	c18.103,0,31.37,10.49,39.434,31.178c4.512,11.577,6.09,23.319,6.62,29.007H95.235c0.531-5.688,2.11-17.431,6.621-29.007
	c8.063-20.688,21.331-31.178,39.434-31.178h5.401c1.882,0,3.409-1.525,3.409-3.408s-1.526-3.408-3.409-3.408h-5.401
	c-20.946,0-36.8,12.337-45.846,35.678c-5.73,14.783-6.973,29.352-7.22,33.48c-0.608,0.796-1.564,2.1-2.741,3.864
	c-2.284-0.909-3.857-2.189-4.685-3.823c-0.058-0.115-0.11-0.229-0.158-0.342c4.01-1.072,6.977-4.726,6.977-9.07
	c0-5.182-4.215-9.398-9.398-9.398h-2.857c-5.182,0-9.398,4.216-9.398,9.398c0,4.566,3.273,8.377,7.596,9.221
	c0.679,3.344,2.93,7.339,8.308,9.865c-1.399,2.438-2.894,5.264-4.378,8.441c-0.011,0.022-0.021,0.044-0.031,0.066
	c-0.284,0.608-0.567,1.224-0.849,1.857c-5.316,11.943-11.175,30.831-8.96,53.052v38.919c0,9.711,7.901,17.611,17.611,17.611
	s17.611-7.9,17.611-17.611v-14.593h43.368v5.169c0,1.883,1.526,3.408,3.409,3.408h50.704c1.882,0,3.408-1.525,3.408-3.408v-5.168
	h43.368v14.592c0,9.711,7.9,17.611,17.61,17.611c9.711,0,17.611-7.9,17.611-17.611v-38.919c2.216-22.222-3.644-41.108-8.96-53.052
	c-1.768-3.972-3.582-7.444-5.258-10.365C273.511,151.936,275.761,147.94,276.44,144.597z M78.22,137.957h-2.858
	c-1.423,0-2.581-1.158-2.581-2.581c0-1.423,1.158-2.581,2.581-2.581h2.858c1.423,0,2.581,1.158,2.581,2.581
	S79.643,137.957,78.22,137.957z M93.253,149.409h163.494c1.58,2.139,4.915,6.97,8.374,13.916c-1.922,1.312-3.931,2.498-6.006,3.549
	c-2.579-1.703-5.665-2.698-8.979-2.698c-6.158,0-11.529,3.425-14.313,8.47c-0.304,0.005-0.606,0.012-0.909,0.012H115.086
	c-0.302,0-0.606-0.007-0.909-0.012c-2.784-5.044-8.155-8.47-14.313-8.47c-3.314,0-6.4,0.995-8.978,2.698
	c-2.082-1.055-4.097-2.244-6.023-3.56C88.316,156.399,91.668,151.551,93.253,149.409z M259.657,180.514
	c0,5.25-4.271,9.521-9.521,9.521c-5.25,0-9.521-4.271-9.521-9.521s4.271-9.521,9.521-9.521
	C255.386,170.993,259.657,175.264,259.657,180.514z M109.385,180.514c0,5.25-4.271,9.521-9.521,9.521s-9.521-4.271-9.521-9.521
	s4.271-9.521,9.521-9.521S109.385,175.264,109.385,180.514z M74.122,203.2c0.072,0.128,0.092,0.205,0.092,0.205l-0.104,0.043
	C74.114,203.366,74.117,203.283,74.122,203.2z M96.055,256.798c0,5.952-4.842,10.794-10.794,10.794s-10.794-4.842-10.794-10.794
	v-23.381c0.026,0.029,0.054,0.057,0.081,0.086c3.924,4.286,9.289,7.253,15.008,8.275c2.157,0.386,4.316,0.427,6.5,0.427
	L96.055,256.798L96.055,256.798z M196.943,243.965h-43.887v-10.336h43.887V243.965L196.943,243.965z M275.533,256.798
	c0,5.952-4.842,10.794-10.794,10.794s-10.794-4.842-10.794-10.794v-14.593c3.256,0,6.449-0.2,9.581-1.169
	c2.783-0.861,5.393-2.15,7.767-3.841c1.511-1.074,2.909-2.323,4.159-3.692c0.026-0.028,0.055-0.056,0.081-0.085V256.798
	L275.533,256.798z M275.551,217.382c-1.043,10.266-9.589,18.007-19.877,18.007h-5.137h-46.776v-5.168
	c0-1.883-1.526-3.408-3.408-3.408h-50.705c-1.882,0-3.408,1.525-3.408,3.408v5.168H99.463h-5.137
	c-10.288,0-18.833-7.741-19.877-18.007c-0.199-1.957-0.331-3.888-0.401-5.788c2.059,1.148,4.787,2.351,8.403,3.496
	c2.057,2.813,5.379,4.644,9.123,4.644c1.941,0,3.769-0.492,5.366-1.357c11.38,1.829,25.646,2.759,42.45,2.759h71.224
	c16.804,0,31.069-0.93,42.448-2.759c1.598,0.866,3.425,1.357,5.366,1.357c3.744,0,7.065-1.831,9.122-4.644
	c3.616-1.146,6.344-2.348,8.402-3.495C275.879,213.497,275.75,215.426,275.551,217.382z M87.092,208.437
	c0-2.471,2.01-4.48,4.481-4.48s4.481,2.01,4.481,4.48s-2.01,4.481-4.481,4.481S87.092,210.907,87.092,208.437z M253.944,208.437
	c0-2.471,2.011-4.48,4.481-4.48s4.48,2.01,4.48,4.48s-2.01,4.481-4.48,4.481S253.944,210.907,253.944,208.437z M275.898,203.451
	l-0.113-0.046c0,0,0.021-0.083,0.102-0.221C275.892,203.273,275.895,203.363,275.898,203.451z M275.887,203.177
	c-0.202,0.273-1.572,1.941-6.246,3.906c-0.671-5.594-5.443-9.944-11.214-9.944c-6.23,0-11.298,5.069-11.298,11.299
	c0,1.341,0.236,2.627,0.667,3.822c-10.286,1.365-22.755,2.059-37.184,2.059h-71.224c-14.429,0-26.898-0.693-37.184-2.059
	c0.43-1.195,0.667-2.482,0.667-3.822c0-6.229-5.068-11.299-11.298-11.299c-5.771,0-10.542,4.351-11.213,9.944
	c-4.619-1.94-6.01-3.591-6.237-3.895c0.731-13.572,4.316-25.187,7.858-33.606c1.291,0.846,2.613,1.643,3.965,2.388
	c-1.533,2.487-2.418,5.413-2.418,8.543c0,9.008,7.329,16.337,16.337,16.337s16.337-7.329,16.337-16.337
	c0-0.349-0.015-0.695-0.037-1.038h117.671c-0.021,0.343-0.036,0.689-0.036,1.038c0,9.008,7.329,16.337,16.337,16.337
	s16.337-7.329,16.337-16.337c0-3.13-0.887-6.056-2.418-8.543c1.344-0.74,2.659-1.533,3.943-2.374
	C271.798,178.619,275.185,190.078,275.887,203.177z M269.2,135.376c0-1.423,1.158-2.581,2.581-2.581h2.856
	c1.424,0,2.582,1.158,2.582,2.581c0,1.424-1.158,2.581-2.582,2.581h-2.856C270.358,137.957,269.2,136.8,269.2,135.376z"/>
<path d="M222.289,193.818h-36.966c-1.434-4.331-5.519-7.466-10.324-7.466s-8.89,3.135-10.324,7.466H127.71
	c-1.882,0-3.408,1.525-3.408,3.408s1.526,3.409,3.408,3.409h36.967c1.433,4.33,5.518,7.465,10.323,7.465
	c4.806,0,8.89-3.135,10.323-7.465h36.967c1.882,0,3.408-1.526,3.408-3.409S224.172,193.818,222.289,193.818z M175,201.284
	c-2.237,0-4.058-1.819-4.058-4.058c0-2.237,1.82-4.057,4.058-4.057c2.238,0,4.057,1.819,4.057,4.057
	C179.058,199.465,177.236,201.284,175,201.284z"/>
<path d="M141.137,132.368c0,1.882,1.526,3.408,3.408,3.408h98.392c1.021,0,1.989-0.458,2.637-1.249
	c0.646-0.79,0.906-1.829,0.705-2.831c-1.123-5.593-2.613-10.809-4.433-15.502c-3.192-8.238-7.305-14.688-12.221-19.172
	c-5.754-5.248-12.595-7.798-20.914-7.798h-8.396c-1.883,0-3.408,1.525-3.408,3.408c0,1.882,1.525,3.408,3.408,3.408h8.396
	c6.542,0,11.881,1.969,16.321,6.018c4.131,3.768,7.648,9.352,10.457,16.6c1.232,3.178,2.304,6.629,3.2,10.301h-94.145
	C142.663,128.959,141.137,130.485,141.137,132.368z"/>
<path d="M120.572,96.845c-4.889,4.387-8.994,10.712-12.201,18.798c-1.921,4.845-3.486,10.247-4.651,16.054
	c-0.201,1.001,0.058,2.041,0.705,2.831c0.647,0.79,1.615,1.249,2.637,1.249h23.851c1.882,0,3.408-1.526,3.408-3.408
	c0-1.883-1.526-3.409-3.408-3.409h-19.604c0.944-3.862,2.083-7.483,3.399-10.803c2.814-7.097,6.319-12.561,10.417-16.237
	c4.407-3.955,9.694-5.877,16.165-5.877h45.393c1.882,0,3.408-1.526,3.408-3.409c0-1.882-1.526-3.408-3.408-3.408H141.29
	C133.063,89.224,126.286,91.717,120.572,96.845z"/>
</svg>
