<?xml version="1.0" encoding="utf-8"?>
<!-- Generator: Adobe Illustrator 16.0.0, SVG Export Plug-In . SVG Version: 6.00 Build 0)  -->
<!DOCTYPE svg PUBLIC "-//W3C//DTD SVG 1.1//EN" "http://www.w3.org/Graphics/SVG/1.1/DTD/svg11.dtd">
<svg version="1.1" id="Layer_1" xmlns="http://www.w3.org/2000/svg" xmlns:xlink="http://www.w3.org/1999/xlink" x="0px" y="0px"
	 width="350px" height="350px" viewBox="0 0 350 350" enable-background="new 0 0 350 350" xml:space="preserve">
<g>
	<path d="M319.351,205.113c0.674,0.918,1.358,0.066,0.482-0.799c-0.773-0.635-1.755-1.081-2.454-1.764
		c-0.637-0.621-0.348-1.419,0.037-1.932c0.638-0.852,1.24-2.678,0.865-4.525c-0.443-2.211-9.2-7.974-11.346-9.281
		c-3.505-2.132-9.232-5.229-11.155-6.23c-0.937-1.634-1.342-3.57-3.038-4.342c-7.799-3.413-26.004-10.516-27.188-10.998
		c-4.894-1.99-15.74-5.975-18.729-6.704c-6.138-1.503-13.685-3.686-20.453-4.973c-0.894-0.209-0.896-0.892-0.704-1.71
		c0.374,0.09,21.499,5.689,23.148,6.184c7.994,2.415,37.484,13.947,44.114,17.822c0.146-0.642,0.09-1.197-0.065-1.696
		c-0.56-1.8-4.406-9.192-5.95-11.601c-1.066-1.664-2.156-3.303-3.154-4.987c-0.826-1.387-2.967-6.068-4.095-6.82
		c-0.696-0.425-0.533,1.47-0.375,2.263c-4.365-4.441-15.856-10.872-18.416-12.252c-4.455-2.394-11.477-5.365-16.622-6.993
		c-4.488-1.417-13.824-2.83-18.716-3.281c-12.102-1.118-26.309-1.528-35.252-0.725c-11.035,0.998-24.172,2.504-33.046,8.961
		c-0.427-1.003-1.325-0.499-1.517-0.216c-0.197,0.31-0.103,1.191-0.533,1.14c-0.577-0.074-8.017-0.893-12.542-1.25
		c-5.359-0.42-16.948-0.614-23.646-0.084c-4.663,0.368-12.475,1.828-16.602,3.072c-1.113,0.393-1.493,1.281-0.327,1.354
		c-1.344,1.138-2.662,2.519-3.691,3.875c-9.565,1.647-16.687,10.11-22.66,17.443c-0.924,1.128-1.75,1.875-2.482,2.289
		c-0.635,0.358-0.395,0.641,0.242,0.336c1.077-0.509,2.022-1.371,2.759-2.179c5.44-5.995,11.196-13.611,18.919-15.69
		c0.728-0.146,1.073,0.792,0.84,1.491c-1.395,2.998-2.668,6.268-3.815,9.591c-0.413,1.197-1.458,5.506-1.678,5.999
		c-2.447,5.535-9.101,6.683-14.686,7.44c-5.605,0.933-11.724,1.306-16.442,3.874c-0.592,0.372-0.808,1.271-0.388,1.922
		c-1.231,0.313-4.703,1.212-5.356,1.444c-0.28,0.14-0.751-0.076-0.654-0.326c1.354-3.597,1.073-7.708,1.354-11.959
		c0.466,0.609,1.666,0.935,1.495,1.543c-0.188,0.516-0.59,0.253-0.841,0.326c0.093,3.127-0.14,6.311-0.327,9.06
		c1.168-1.259,0.864-6.063,1.043-6.854c0.065-0.299,0.16-0.584,0.311-0.851c0.188,0.283,0.467,0.373,0.84,0.326
		c0.281-1.727,2.383-0.792,3.177-1.68c-4.25-0.981-6.914-5.702-10.931-7.239c-2.662-1.134-6.628-1.77-9.443-0.405
		c-2.93,1.423-2.825,3.633-1.576,5.565c0.257,0.399,0.382,0.32,0.278-0.247c-0.178-0.992,0.296-2.158,0.979-2.72
		c0.29-0.224,1.149-0.324,1.167,0.326c0,6.494,2.521,12.099,7.568,16.304c-0.562,0.512-1.542,0.559-2.15,0.512v-0.652
		c-2.287-3.453-4.389-6.493-5.417-10.415c-1.046-0.263-3.299-1.827-3.98-3.533c-1.18-2.96,0.233-5.706,3.107-6.913
		c2.724-1.15,5.386-1.707,8.202-1.937c2.098-0.173,11.164-0.405,11.655-0.479c1.591-0.257,3.167-0.902,4.417,0.063
		c0.327,0.047,0.561-0.656,0.842-0.189c-0.327,0.379-0.794,0.888-1.168,0.705c0,0.483,0.882,1.165,1.681,0.137
		c0.265-0.967-0.094-2.521-0.702-3.502c-0.653-0.839-2.615-0.699-1.819-2.195c5.091-1.305,10.977-0.376,16.301-0.188
		c0.676-0.026,0.903,0.609,0.653,1.029c-2.289,3.406-8.105,10.829-8.36,11.091c-0.962,0.988-1.223,0.426-0.903-0.835
		c0.422-1.657,2.473-3.101,2.398-4.887c-2.104,0.047-3.503,1.916-5.232,2.851c-1.253,0.668-2.454,0.568-1.223-1.36
		c1.55-2.425,6.35-4.529,8.603-4.86c1.596-0.226,3.188-0.419,3.877-2.189c-4.624-0.419-9.578-0.525-14.342-0.436l-0.792,0.625
		l0.513,0.326c3.177-0.184,6.54-0.373,9.762,0.189c-0.765,0.204-1.868,0.466-2.521,0.655c0.887,0.047,2.085-0.246,2.662,0.184
		c-5.652,1.307-10.931,5.512-12.238,11.261c-0.6,2.519-0.375,5.013,0.171,7.282c0.05,0.204,0.108,0.177,0.087-0.043
		c-0.332-3.769,0.285-8.357,2.403-11.45c0.327,0.236,0.363,0.599,0.403,0.957c0.16,1.385,1.057,1.191,2.333,0.387
		c1.63-1.022,2.689-3.224,4.505-3.533c-0.861,1.833-2.538,3.443-2.651,5.482c-0.08,1.417,0.328,2.419,2.435,0.786
		c3.197-2.489,5.273-6.372,7.729-9.579c2.298-3.009,10.009-11.393,19.754-13.865c0.221-0.052,0.193-0.205-0.04-0.215
		c-4.167-0.258-7.544,1.538-10.698,3.528c-0.579,0.366-6.494,4.688-6.621,4.781c-1.48,1.104-3.527,1.156-5.377,0.861
		c-4.851-0.772-12.19-0.283-16.301,1.49c1.261,0.516,2.663,0.658,3.55,2.012c0.734,1.411-0.152,2.079-0.893,1.122
		c-1.354-1.741-4.211-3.17-7.188-2.103c-1.214,1.727-3.551,1.071-4.904,2.193c-0.198,0.951-0.782,0.924-1.496,0.981
		c-1.965,0.169-3.86,0.263-5.768,0.609c-4.745,0.861-7.416,2.883-7.777,5.854c-0.499,4.095,1.313,6.756,3.97,7.832
		c0.121,0.042,0.364,0.515,0.676,1.191c0.865,1.875,4.018,7.96,4.188,8.343c0.203,0.456,0.261,0.849-0.301,1.028
		c-1.723,0.472-3.806,1.496-3.727,3.979c0.052,2.987,3.549,6.939,2.561,8.363l-2.128,0.306c-4.003,0.845-8.188,2.361-10.517,5.373
		c-1.006,1.124-0.421,2.112,0.513,1.03c2.88-2.887,5.682-4.427,12.176-5.611c5.398-0.981,14.485-1.514,17.875-1.297
		c0.586,0.036,6.617,0.646,7.411,3.543c-1.261,1.402-3.597,1.496-5.372,1.68v0.332c1.916,0.088,3.69-0.189,5.045,0.184
		c-0.047,0.329-0.608,0.655-0.141,0.981c0.376,0.24,0.794-0.605,1.168-0.137c-0.793,3.224-4.858,4.063-7.427,5.04
		c-0.891,0.203-2.308,0.486-2.85-0.373c-3.64-0.31-6.888-0.063-10.309,0.193c-1.432,0.106-9.366,1.107-13.51,0.232
		c-2.271-0.479-2.64-1.146-0.37-1.886c6.289-2.053,13.877-2.136,20.311-2.231l1.124-0.214c0.888,0.372-0.813,0.734-0.096,1.244
		c2.007,1.081,6.171,0.036,7.026-0.242c0.461-0.153,0.892-0.216,1.054,0.383c-1.701,0.918-4.203,1.49-6.213,1.869
		c2.606,0.929,8.092-1.112,8.736-3.364c-1.159-0.085-2.553,0.062-3.75,0.413c-1.045,0.306-4.056,1.214-5.499-0.089
		c1.402-1.444,3.55-1.632,5.045-2.662c-9.185,0-20.325,0.223-29.903,2.704c-3.131,0.809-2.88,2.678-0.711,4.126
		c3.079,2.053,6.822,1.839,10.763,1.58l1.167,1.167c3.282,3.284,12.658,2.289,19.01,2.665l0.513,0.842
		c-2.607,0.486-11.375,0.445-12.871,0.402c-3.972-0.104-8.563-0.177-12.114,0.253c-0.439,0.053-3.459,0.698-3.787,1.723
		c13.446,2.303,28.849,1.8,43.094,2.113c3.37,0.076,23.719-0.183,27.089-0.25c14.281-0.289,29.231-0.872,43.006-1.014
		c0.386,0,20.122-0.563,22.177-0.85c0.373,0.283,0.443,0.66,0.351,1.181c-0.735,0.324-5.26,0.697-5.777,0.724
		c-4.822,0.263-22.565,1.16-25.547,1.203c-8.714,0.126-35.104,0.666-40.114,0.849c-13,0.485-37.209,0.51-43.842,0.05
		c-4.38-0.306-14.905-1.088-18.652-2.006c-1.105-0.273-2.161-0.705-3.138-1.48c0.184,0.938,0.842,1.443,1.67,1.773
		c3.053,1.214,15.22,2.096,20.831,2.395c11.417,0.599,22.833,0.566,34.213,0.503c8.785-0.047,70.908-1.92,78.712-2.608
		c2.186-0.189,4.313-0.242,6.2,0.782c7.753,1.916,16.534,2.851,24.196,0.515c1.87-2.188,4.452-1.802,6.853-1.177
		c0.417,0.11,6.131,1.779,8.607,2.484c2.432,0.702,4.484-0.422,6.588-0.981c2.706,0.276,5.557,0.276,8.218-0.698
		c6.147-0.18,48.751-0.599,53.83-0.652c0.623-0.006,1.522,0.762,1.897,1.191c0.651,0.756,1.315,0.227,2.02-0.34
		c0.553-0.441,1.482-1.041,2.126-1.34c0.249-0.116,22.266-2.278,23.619-2.398l0.841-1.028c-1.376-0.383-2.965,0.22-3.943-0.479
		c0.834-0.803,2.158-0.709,3.271-0.825c1.122-0.109,1.707-0.719,2.257-1.704c0.477-0.845,1.567-1.114,2.558-1.281
		c1.421-0.248,2.402-2.152,2.517-3.571h-0.513c-2.57,1.869-5.747,1.775-8.594,0.515c1.961,2.242,5.648,1.444,7.893,0.981
		c-0.328,1.54-4.097,1.564-4.575,1.523c-1.525-0.132-3.094-0.642-4.171-1.7c-1.04-1.03-0.981-3.093,1.118-4.018
		c1.683-0.739,5.815-0.124,6.907,0.448C318.42,204.245,319.092,204.519,319.351,205.113z M61.032,156.26
		c0.577,0.356,0.559,0.646-0.086,0.75c-0.712,0.112-1.538-0.01-2.268,0.033c0.233-0.656,1.494,0.047,1.682-0.656
		c-1.262-0.279-2.664,0.283-4.018,0.324C57.63,156.111,59.629,155.393,61.032,156.26z M58.023,155.22
		c-0.7,0.046-1.353,0.604-2.008,0.142C56.483,154.937,57.418,154.937,58.023,155.22z M55.315,156.386
		c-1.167,0.373-2.99,0.56-4.017,1.169C52.279,156.574,53.727,156.15,55.315,156.386z M31.447,203.8
		c7.806-2.604,17.335-3.265,25.567-3.191c0.338,0,0.355,0.084,0.026,0.12c-8.407,0.892-17.36,1.15-25.407,3.396L31.447,203.8z
		 M309.232,189.694c0.466,0.835,0.183,1.863-0.143,2.519C309.139,191.374,308.951,190.434,309.232,189.694z M308.389,190.529
		c0.047,0.981-0.187,2.667,0.844,3.363c0.419-0.839,0.606-1.164,0.511-2.193c0.7,0.699,0.434,2.315-0.186,2.852
		C307.062,194.266,308.389,190.529,308.389,190.529z M307.552,189.83c0.243,0.536,0.418,2.426-0.517,3.224
		c-0.281-0.094-0.556-0.409-0.654-0.841C307.363,192.119,307.27,190.529,307.552,189.83z M224.311,149.147
		c0.518-0.699,1.403-1.261,2.012-2.006c1.036-1.48,3.641-4.3,2.892-6.919c-0.762-1.833-3.736-1.727-5.742-2.194l-0.328,0.373
		c0.7,0.561,2.242,0.75,2.523,2.01c-0.654,1.402-2.428,1.402-3.69,1.355c-0.187,0-0.421-0.048-0.513,0.142l0.513,0.698
		c-2.008,0.142-4.064,0.325-6.076,0.467h-0.649c0.418-1.68,2.43-0.84,3.362-2.005c-0.839-0.514-2.146,0.373-3.222-0.142
		c-0.244-0.153-0.656-0.42-0.469-0.845c1.683-1.492,3.828-1.212,5.698-1.68c-0.658-0.368-1.32-0.368-2.52-0.509
		c-13.783-1.774-27.607-0.284-41.201,0l-1.026-0.704c10.378-1.486,22.203-2.383,33.266-1.859c6.92,0.326,15.704,1.029,19.944,2.725
		c1.271,0.504,2.323,1.901,1.629,3.712c-0.518,1.684-1.45,3.271-2.525,4.531c0.234-0.981,0.888-1.775,1.173-2.71l-0.146-0.136
		C227.968,145.588,226.74,148.117,224.311,149.147z M225.104,153.01c-0.682,0.303-1.633-0.037-2.286-0.173
		c-0.094-0.515,0.096-0.981,0.511-1.354c-0.09,0.277-0.126,0.792,0.053,0.918c0.64,0.409,1.319,0.104,1.393-0.379
		c0.054-0.609,0.005-1.611-1.115-1.521c0.092-0.279,0.659-0.299,0.981-0.189C225.761,150.738,224.966,152.306,225.104,153.01z
		 M226.51,139.57c0.886,0.143,1.965,0.898,1.678,1.823l-0.651,2.193c-0.796-0.419-1.52-1.038-1.869-2.01
		C226.322,141.067,226.648,140.411,226.51,139.57z M226.836,144.617l-0.656,1.165c-0.139-0.183-0.419-0.23-0.325-0.515l0.468-0.513
		l-1.171-0.136c0.096-0.279,0.234-0.515,0.186-0.841l-1.026-0.189c-0.232-0.372,0.518-0.513,0-0.839l-0.839,0.326
		c-0.607-0.604,0.521-0.646,0.847-0.882C225.487,142.706,226.275,143.493,226.836,144.617z M223.986,146.437h1.026
		c-0.233,0.326-0.233,0.841-0.702,0.841C223.813,147.231,223.964,146.773,223.986,146.437z M223.659,144.617
		c0.513-0.143,0.786,0.256,0.981,0.649c0.276,0.658-0.424,0.572-0.654,0.515C223.635,145.661,223.455,144.753,223.659,144.617z
		 M209.881,144.753c-0.374,0.426-0.89,0.892-1.217,1.218c1.217,0.047,2.569-0.841,3.877-0.515c-0.709,1.444-1.752,1.606-2.916,1.364
		c-1.446-0.287-8.528-1.877-8.528-1.877c1.214-0.699,2.71-0.699,4.203-0.652l-0.651,0.976
		C206.281,145.362,208.15,144.427,209.881,144.753z M210.718,141.576c-0.511,0.236-0.274,1.334-1.352,1.149
		c0.071-0.178-0.202-0.614-0.516-0.493c-0.045,1.353-1.262,1.775-2.335,2.058c-0.013-0.378,0.207-0.908,0.515-1.197
		c1.407-1.323,4.307-2.604,6.677-2.54c0.349,0.042,0.984,0.498,0.703,1.023c-0.656-0.326-1.495,0.704-1.869-0.509
		c-0.326,0.698-0.745,0.935-1.497,1.023C211.14,141.813,210.938,141.508,210.718,141.576z M211.7,144.617
		c0.327-0.699,1.447-0.699,2.007-0.699C213.522,144.894,212.408,144.344,211.7,144.617z M209.177,143.775
		c1.401-1.259,3.364-1.028,5.046-1.542c0.668-0.168,0.094,0.698,0,1.028C212.445,143.261,210.813,144.71,209.177,143.775z
		 M210.346,140.411c-2.853,0.893-4.83,3.907-8.408,3.507c-1.028-1.266-4.179-0.788-5.044-0.332c-0.94,0.599-1.901,0.678-2.883,0.589
		c-1.31-0.116-9.729-1.428-9.729-1.428c3.47-0.504,7.069,1.265,9.623-0.981c1.073-0.467,2.24,0.278,2.989-0.698
		c-1.03-0.657-2.195-0.095-3.177-0.514c0.145-0.294,0.454-0.336,0.801-0.326c0.422,0.01,9.857-0.168,13.682-0.845
		c-4.858-0.373-9.904-0.699-14.81-0.326c-0.279-0.188-0.377-0.515-0.326-0.84c7.658-0.419,15.04,0,22.328,0.515
		C214.365,140.784,212.107,139.807,210.346,140.411z M200.445,144.942l-3.038-0.515c0.979-0.509,2.053-0.373,3.226-0.326
		C200.537,144.337,200.396,144.617,200.445,144.942z M166.16,140.222c0.078-0.273,0.31-0.336,0.585-0.341
		c0.373-0.011,9.968-1.385,14.173-1.149c-0.325,0.981-0.7,2.194-1.496,2.845c-2.004,0.047-3.64-0.326-5.698-0.65
		c2.01-0.657,4.669-0.048,6.353-1.213C175.407,139.755,170.829,140.127,166.16,140.222z M166.587,138.159
		c0.892-0.635,1.745-0.311,2.599,0.289c0.326,0.226,0.308,0.373-0.01,0.425C168.283,139.004,167.396,138.547,166.587,138.159z
		 M170.69,137.561c0.893-0.635,1.748-0.304,2.599,0.288c0.328,0.226,0.307,0.373-0.008,0.421
		C172.386,138.406,171.498,137.943,170.69,137.561z M181.292,139.57c0.794-0.278,2.012-0.141,2.663-0.188
		c-0.608,0.745-2.338,0.199-2.338,1.186v0.499l9.905-0.142l0.7-0.515c-0.77-0.352-5.319-0.305-6.068-0.346
		c-0.37-0.026-0.676-0.184-0.843-0.682c1.274-0.158,1.226-1.476,1.849-1.066c0.313,0.226,0.11,0.552,0.159,0.74
		c1.539,0.656,3.781,0.094,5.229,0.514c-0.159,0.516,0.515,0.84,0.515,0.84c0,0.494-0.238,0.956-0.61,1.255
		c-0.799,0.64-8.461,0.587-11.923-0.137L181.292,139.57z M254.732,159.284c-3.926-1.318-20.375-6.217-24.676-7.288
		c-0.847-0.25-0.466-1.065,0-1.684c1.45-1.727,2.709-3.502,4.346-5.182l-0.253-0.356l-3.119,3.323c0,0-0.244,0.136-0.098-0.073
		c1.254-1.8,3.111-3.928,5.262-5.098c2.985-1.627,9.381-1.191,15.663,0.677c8.279,2.468,20.339,8.703,26.61,14.458
		c0.694,0.64,7.266,7.06,6.895,10.751l-2.194,1.68C273.825,166.47,264.417,162.544,254.732,159.284z M279.997,151.719
		c1.165,1.584,1.631,3.075,2.657,4.667c-1.543-1.024-2.385-2.94-3.177-4.531L279.997,151.719z M237.11,133.356
		c3.299-0.216,13.546,3.501,15.631,4.398c5.107,2.205,16.749,8.642,19.569,10.489c3.718,2.431,6.99,5.632,9.9,9.092
		c0.415,0.499,0.183,0.631-0.253,0.159c-10.03-10.895-25.905-17.766-40.318-22.317c-0.953-0.299-2.122-1.323-3.034-0.977
		c0.562,1.26,3.222,0.792,2.524,2.662c-1.686,1.008-4.048,0.351-5.936-0.299c-2.311-0.803-1.616-1.885-0.334-2.184
		c1.108-0.251,2.385-0.1,3.231-0.556L237.11,133.356z M237.624,139.382c-1.768,0.813-2.319-0.084-4.203,0.188
		c-0.469-0.561-0.937-1.306-0.513-2.01c1.4-0.373,3.038-0.184,4.202,0.467C237.522,138.311,237.767,138.637,237.624,139.382z
		 M159.107,138.253c4.443-3.16,14.014-5.469,21.648-6.572c17.706-2.556,44.735-1.002,51.124,0.462
		c0.865,0.2,1.631,0.546,2.192,1.213c-5.553-0.599-10.847-1.181-16.162-1.534c-7.801-0.524-23.513-0.65-32.44,0.2
		c-2.614,0.252-19.958,2.189-26.552,7.035c1.121-0.41,2.242-0.855,3.388-1.254c4.098-1.434,14.201-3.748,20.757-4.458
		c11.13-1.213,35.244-0.945,45.597,0.572c1.584,0.231,2.916,0.546,3.547,1.124c2.102,1.916-1.702,1.979,0,4.205l1.68,2.331
		c0.471-2.052,4.25-0.047,5.044-2.194l-0.325-0.84c5.266-1.086,10.43,0.215,15.431,2.284c5.567,2.304,17.054,8.068,21.512,11.669
		c5.982,4.82,13.35,14.148,15.702,21.544c-2.246-1.071-4.477-2.063-6.718-3.138c3.734-1.843,0.961-6.005-0.137-7.565
		c-5.228-7.412-13.37-12.678-20.532-16.048c-8.564-4.032-20.852-8.215-26.913-5.639c-4.336,1.843-6.364,6.447-9.791,9.691
		c-0.381-0.204-0.792-0.562-1.165-0.839c1.758-2.206,4.348-4.663,5.46-7.324c1.209-2.898-0.028-5.254-1.31-5.921
		c-4.014-2.089-17.183-2.987-23.259-3.124c-13.8-0.299-21.872-0.017-36.292,2.299c-0.848,0.136-9.069,1.833-11.865,3.465
		C157.918,139.334,158.38,138.768,159.107,138.253z M164.942,139.246c-1.074,0.699-2.942,0.746-4.341,0.651
		C161.952,139.429,163.401,138.684,164.942,139.246z M156.771,139.088c0.363,0.378,0.077,0.835-0.469,0.499
		C155.698,139.214,156.285,138.569,156.771,139.088z M52.047,176.019c0,0,0.142,1.526-0.235,1.716
		c-1.027,0.373-2.289,0.137-2.896-0.655c-0.517-0.729,0.141-1.869,1.027-2.195c0.093,0.279-0.907,0.92-0.253,1.617
		c0.749-0.649,0.908-1.521,1.935-0.965c0.752,0.41,1.436-1.211,1.683,0C52.98,175.678,52.655,175.945,52.047,176.019z
		 M50.785,174.039c0.223-0.073,2.048-0.55,2.523,0.143C52.7,175.442,51.465,174.245,50.785,174.039z M50.458,173.204
		c0.98-0.247,1.448-0.75,2.196-1.169c0,0,0.654,0.466,0.84,0.466C53.167,173.762,51.388,173.283,50.458,173.204z M52.279,166.476
		c0.42,0.33,0.653,0.703,0.701,1.165c-0.188,0.426-0.748,0.426-1.029,0.189l-0.652-0.698c-0.607,0.745-1.382,1.59-2.523,1.354
		c-1.448-0.332-1.028-2.621,0.327-2.708C50.272,165.735,51.019,167.085,52.279,166.476z M45.926,163.11
		c1.542,0.189,2.945,0.751,4.205,1.686c-1.215,0.046-2.849-1.308-4.205-1.171c0.188,1.217,3.597,0.886,1.495,2.519
		c-0.793,0.52-1.819,1.171-2.849,0.662C44.012,165.588,44.712,164.045,45.926,163.11z M42.988,173.898
		c-1.816-3.928-2.112-9.182-0.797-10.972h0.7c-1.588,3.081-0.7,7.891,1.168,10.929c1.073-0.792-0.932-2.472,0-3.364
		c-2.243-2.148-0.841-5.276,0-7.381c0.232-0.184,0.413-0.29,0.654-0.326c-0.935,1.68-1.484,3.33-1.309,5.046
		c0.936,0.609,2.009-0.562,2.849,0.324c-0.279,0.798-1.354,0.473-1.867,0.984c2.007-0.373,3.923,0.749,5.885,0.373
		c-0.187,0.703-1.168,0.33-1.681,0.656c0.56,1.26,2.243,0.513,3.035,0c0.374-0.326,0.562-1.45,1.168-1.028
		c-0.244,3.433-4.641,4.671-8.407,1.68c-0.346,0.719,0.794,1.049,0.699,1.867c-0.046,0.332,0.047,0.658,0.328,0.845l0.327-0.656
		c0.701-0.236,1.916,0.419,2.71,0.656c-0.981,0.279-2.29,0.049-2.896,0.835c1.448,0.379,2.896-0.326,4.39-0.326
		c-0.935,1.45-2.896,0.658-3.877,1.686c0.375,0.562,2.429-0.515,2.01,0.652c-0.329,0.376-0.888,0.141-1.169,0.702
		c1.588,0.184,3.363,2.944,5.372,1.308c0.452,0.272,0.021,0.729-0.141,1.028c-0.654,0.841-1.728-0.33-1.868,1.024
		c-0.073,0.451,0.748,0.235,1.167,0.329c0.178,0.579-0.937,0.525-1.307,0.658C46.778,179.714,44.426,177.012,42.988,173.898z
		 M55.315,207.998c5.674-0.177,12.112-0.813,15.269-6.198c0.066-0.11,0.127-0.043,0.094,0.104c-0.417,1.76-0.994,2.987-1.21,4.93
		c1.637,0.842,5.058,0.283,6.353,0.326c0.318,0.52-0.044,0.809-0.5,0.976c-0.279,0.1-13.325,1.407-20.005,0.189V207.998z
		 M69.094,199.777l0.188-0.839c0.654-0.047,0.654,0.656,1.028,0.839H69.094z M81.978,216.089
		c-13.128-0.499-27.897,0.535-41.325-1.075c-1.144-0.137-1.166-0.459,0-0.442c16.496,0.152,37.373,0.432,52.685,0.342l37.521,0.084
		l0.315,0.242C118.441,215.732,83.869,216.157,81.978,216.089z M68.627,212.203c0.156-0.46,0.934-0.184,0.84,0.189L68.627,212.203z
		 M70.776,212.393v-0.373c0.374,0.043,0.785,0.037,1.012-0.016l0.016,0.389H70.776z M88.105,212.02l0.187,0.184
		c-3.83,2.059-9.716,1.916-13.777,0.189l0.465-0.373c2.103,0.42,5.045-0.146,6.587,0.516v0.326c-0.908-0.143-1.824-0.422-2.71,0
		C82.081,213.936,85.163,213.233,88.105,212.02z M165.643,214.398c-5.893-0.336-29.28-0.463-34.453-0.629
		c-6.41-0.217-34.771-0.347-41.917-0.21v-0.189c2.966-0.604,7.267-0.741,11.072-0.489c1.479,0.101,25.902,0.343,30.639,0.353
		l0.003-0.389c-7.52-0.529-15.384,0.079-22.889-0.52c-0.437-0.036-0.847-0.126-0.022-0.132c5.732-0.052,28.995-0.257,37.203-0.174
		c0.581,0.037,1.028,0.279,1.168,0.699c-2.987-0.157-6.008,0.31-9.229,0.468c-0.609,0.03-0.599,0.094,0.025,0.114
		c5.617,0.179,11.495,0.026,16.956,0.069v-0.651c0.809,0,1.355,0.143,2.103,0.115l0.05,0.29c1.648,0.276,7.563,0.623,9.807,0.759
		L165.643,214.398z M166.688,211.743c-0.417,0.067-0.677-0.353-0.203-0.568C166.924,211.071,166.989,211.694,166.688,211.743z
		 M164.942,209.685c-7.146,1.563-24.047,1.171-24.047,1.171l-45.387,0.183c0,0-21.918,0.163-30.183,0.116
		c-5.867-0.036-12.733,0.131-17.052-1.154c-2.858-0.852-1.879-1.989,0.418-1.208c4.044,1.364,8.761,1.448,13.022,1.401l19.678-0.216
		c0,0,1.076-1.085-0.151-1.222c-1.248-0.137-2.519-0.159-3.551-0.758c0.482-1.354,2.399-0.608,3.55-1.138
		c1.087-0.493,1.19-1.092-0.126-0.889c-3.065,0.489-7.228,0.073-10.151,0.159c0.8-4.973,3.035-9.854,4.531-14.757l1.028-0.845
		c5.54-0.356,10.385-0.457,15.708-1.724c0.196-0.046,0.919-0.329,1.107-0.472c-0.42-0.42-1.261-0.604-2.01-0.514
		c-1.401,0.467-2.521-0.136-3.549-0.186c2.009-0.423,4.157-0.56,6.399-0.466c1.073-1.308,2.942-1.637,4.718-1.687
		c-0.42,0.988-1.775,0.658-2.196,1.687c2.878-0.488,5.841-1.606,8.768-2.558c0.429-0.137,0.48-0.46-0.105-0.34
		c-1.41,0.289-2.886,0.875-4.458,0.839c0-0.277-0.177-0.623-0.514-0.649c-2.196-0.096-4.812,0.649-6.914,1.867
		c-1.922-0.477-6.75,0.263-7.372,0.325c-8.746,0.852-28.346,2.968-29.879,3.12c-2.146,0.21-4.352,0.383-6.095,0.383
		c4.559-1.203,28.822-4.498,35.639-5.37v-0.136c-12.05,0.276-24.709,2.562-36.153,3.826l0.981-0.842
		c11.724-2.198,24.43-3.879,36.667-4.345c-0.093,1.171,1.447,1.36,2.382,1.496l15.786-1.355c0.143-0.141,0.421-0.23,0.329-0.467
		c-5.979-0.562-10.698,0.189-16.303,0.656c-0.094-0.846,1.403-1.075,2.196-1.358c10.835-1.356,21.533-0.788,31.95-1.167
		c0.14-1.443,1.562-0.803,2.192-0.513c-0.373,0.046-0.888-0.096-1.213,0.187v0.326c6.866,0.419,12.659,1.354,19.011,0.515
		c0.14-0.704-0.605-0.655-0.981-0.841c-0.091,0.09-0.186,0.186-0.373,0.137l-0.467-0.466c1.074-1.308,2.523-0.23,3.691-1.354
		c-1.73-0.978-4.11-0.232-6.074-0.698c-3.407-0.184-6.914-0.652-10.927-0.467c-0.283,0.188-0.376,0.467-0.328,0.839
		c0.514,0.563,1.727,0.143,1.868,0.981c-2.663,0.656-6.354,0.326-8.924-0.325v-0.33c1.494-0.462,3.457-0.373,4.717-1.024
		c-1.585-1.308-4.39-0.283-6.399-0.845c-9.386,0.562-22.139,0.189-32.134,2.199c-6.92,0.525-13.901,1.197-20.341,2.115
		c-1.601,0.232-17.634,2.788-23.053,5.123c-1.261,2.711,0.748,5.323,2.195,7.565l0.327-0.326l-1.308-3.736l0.655-0.326
		c0.794,1.165,1.075,2.756,2.336,3.55c4.716,0.466,18.281-1.523,19.098-1.623c2.189-0.263,4.427-0.477,6.639,0.269
		c-0.297,2.802-1.636,5.181-2.334,7.795c-0.069,0.267-0.143,0.31-0.168,0.067c-0.25-2.376-3.353-4.425-5.205-5.337
		c1.588-1.03,4.11-0.609,5.885-1.681l-0.373-0.331c-9.67,0.096-18.405,1.68-27.886,2.521c0.332-0.389,0.764-0.894,0.654-1.539
		c-0.456-1.927-2.225-3.747-2.708-5.643c-0.613-2.415,0.98-3.161,2.993-3.979c1.155-0.468,2.403-0.768,3.591-1.124
		c13.544-3.359,28.586-4.997,42.038-6.724c0.874-0.133,1.776-0.047,2.336-0.841c-0.933-0.436-1.929-0.363-2.935-0.226
		c-3.583,0.495-23.391,2.474-29.014,3.775c-0.468-0.372-0.516-0.792-0.142-1.214c6.914-2.708,15.182-3.18,22.84-4.528
		c4.013-0.721,7.803-3.832,8.783-7.896c1.87-8.374,5.267-19.092,13.576-23.339c1.655-0.845,3.504-1.432,5.575-1.7l1.869-0.184
		c-4.151,1.422-8.863,3.838-11.866,7.402c-3.767,4.478-7.153,13.696-6.304,19.691c0.213,0.143,0.632,0.083,0.646-0.346
		c0.022-0.603-0.088-1.413-0.075-2.179c0.069-4.089,3.594-15.985,10.873-20.363c6.779-4.089,13.855-5.019,21.204-5.082
		c8.278-0.068,17.3,0.378,22.678,0.94c14.025,1.475,27.622,2.32,41.177,4.983c3.02,0.646,12.425,1.401,18.17,3.174
		c0.79,0.731,0.845,3.024-1.037,2.521c-12.364-3.323-24.574-4.747-37.454-6.347c-3.268-0.479-5.979,0.603-8.407,2.851
		c-10.416-1.827-26.232-1.733-30.967-0.52c-0.943,0.31-0.867,1.322-0.095,1.71c1.609,0.955,0.727,1.454-0.459,1.748
		c-1.848,0.458-3.733,0.757-5.849,0.562l-0.326,0.373c1.098,0.446,2.331,0.751,3.523,1.041c2.134,0.509,1.918,2.226,0.443,3.197
		c-3.016,1.983-7.283,1.847-9.152,5.663c-0.149-1.185-0.993-2.23-1.788-3.264c-2.53-3.297-1.499-4.598,0.302-5.455
		c1.271-0.599,2.598-1.049,4.011-1.371c-1.071-0.649-2.462-0.985-3.691-1.594c-2.575-1.281-1.75-3.366,0.73-4.001
		c8.782-1.852,17.058-1.222,25.697-0.646c2.212,0.146,15.132,1.328,17.948,1.387c-0.373-0.468-1.142-0.662-1.87-0.705
		c-12.599-1.301-26.341-2.865-37.922-1.668c-1.791,0.184-4.657,0.624-6.374,1.947c-2.285,1.764-1.331,3.413,2.583,5.097
		c-1.076,0.841-3.202,0.898-3.691,2.708c-0.72,3.224,2.415,5.276,3.413,8.143c0.23,0.656,0.514,3.065,0.981,3.439
		c0.373-0.794-0.048-2.338,0.325-3.36c1.914-4.531,7.52-3.366,10.416-6.726c0.89-1.228,0.189-2.572-0.979-3.696
		c1.494-0.373,3.644-0.136,4.017-2.189c0.083-0.613-1.945-0.992-1.339-1.348c1.599-0.788,5.93-0.735,6.895-0.662
		c-0.659,0.688-1.755,1.344-2.553,2.163c-2.156,2.209-1.63,6.101,0.173,9.471c-3.504,2.892-4.343,6.907-5.183,10.925
		c-7.146-0.196-14.325-0.085-21.329,0.466c-4.163,0.326-13.069,1.138-15.406,2.545c-1.291,0.778-1.254,2.063,0.013,2.562
		c1.024,0.399,2.179,0.462,3.356,0.505c0.753,0.027,27.544-0.157,40.116,0.755c5.019,0.362,15.935,1.564,18.334,2.026
		c4.077,0.788,7.896,2.226,8.875,6.93h0.325c0.326-2.615-0.981-5.276-3.362-6.724c-2.335-1.267-4.486-1.544-7.242-1.87
		c-0.138-0.655,0.657-0.466,0.84-0.981c-0.84-0.656-2.412,2.172-2.52-0.189c2.94-3.779,4.11-8.546,4.714-13.124
		c1.588,1.823,0.189,4.767-0.325,6.913c-0.559,2.053-1.542,3.928-2.333,5.885l0.139,0.189c2.519-3.041,3.69-6.96,4.719-10.792
		c1.913,0.047,2.333,2.429,4.014,3.034c2.271,0.902,4.934,0.347,7.557,0.572c0.845,0.073,6.406,0.945,7.954,1.112v0.326
		c-1.927,0.263-4.532-0.656-6.59,0c0.557,0.998,2.431,0.332,3.556,0.841c-3.225,3.926-4.534,7.942-5.561,12.798l0.325,0.33
		c1.449-3.69,2.336-7.616,5.044-10.746c0.59-0.629,1.122-1.028,1.869-1.028v0.839c-4.997,5.702-6.165,13.267-7.427,20.369
		c-0.047,0.047-0.187,0.1-0.326,0.143c0.045-2.851,0.373-5.562,0.515-8.41c-1.636,2.426-0.982,5.606-1.872,8.268L167,192.025
		l1.494-0.515l-0.329-0.326c-6.863-0.094-13.497-1.165-20.176-0.839l-0.514,0.513c0.795,1.118,3.318-0.236,3.362,1.167
		c6.542,0.845,12.987,0.935,19.012,2.525c1.685,0.529,1.887,3.038,2.166,4.581c0.073,0.247-0.765,0.137-1.184,0.137
		c-1.449-0.1-3.41,0.09-4.669,0.509c0.138,1.218,2.147,0.326,1.818,1.497c-2.475,1.45-5.184,1.773-8.221,0.841
		c1.449-1.403,3.783-0.698,5.371-1.869c-6.641-2.405-14.817-2.321-21.975-2.757c-1.044-0.063-16.534-0.677-17.894-0.703
		c-4.869-0.096-9.882-0.073-14.805,0.546c-1.23,0.152-6.421,0.951-7.215,1.937c3.269,0,7.287-1.122,9.949,0.509
		c14.762,0.888,30.5,1.03,46.243,1.171l-1.866,1.491c2.039,2.468,10.812,1.79,11.956-1.349l-0.373-0.845
		c0.837-0.096,1.675-0.306,2.52-0.326c0.091,2.336-2.189,4.205-3.362,4.531c-6.835,1.517-15.531,0.676-23.001,0.43
		c-0.803-0.031-12.041-0.11-12.749-0.131c-8.026-0.236-16.303,0.073-24.926-0.436c-2.113-0.189-2.467-5.156-5.886-2.199
		l-1.168,1.028c0.237-2.126,1.071-4.819,1.494-7.065c0.078-0.416-0.142-0.452-0.303-0.047c-1.081,2.691-2.043,6.108-3.058,9.118
		c-5.466-0.232-9.763,0.283-14.48,0.845c-0.277,0.031-0.421,0.373-0.328,0.65c0.421,0.608,1.027,0.745,1.682,0.704
		c0.232,0.189-0.047,0.603-0.328,0.839c0.253,0.422,0.638,0.499,1.053,0.505c1.809,0.011,7.683-0.409,8.71-0.043
		c0.186,0.568-1.121,0.893-0.188,1.36c3.411-1.213,5.046,0.981,8.408-0.325c10.715-0.405,21.205-0.037,31.042,0.036
		c2.771,0.017,15.017-0.137,18.169-0.525c1.803-0.226,3.499-0.708,4.927-1.706l0.514-0.52c3.271-0.137,7.098-0.183,10.087-1.165
		C168.351,207.442,165.832,209.422,164.942,209.685z M118.373,179.415c-7.239,1.171-15.605,0.358-23.146,1.28
		c-0.875,0.11-9.041,1.34-12.796,1.634c-2.897,0.226-24.376,2.771-32.161,4.324c-1.721,0.343-1.775,2.662-3.363,3.041
		c-0.934-1.218,0.224-2.904,1.355-3.224c12.176-3.407,25.26-4.704,38.327-5.995c14.135-1.407,15.881-1.387,31.143-2.022l0.64,0.123
		c-1.325,0.513-7.754,0.419-11.256,0.839v0.183C111.118,179.897,114.872,178.948,118.373,179.415z M49.617,191.699l4.636-0.395
		c0,0,20.83-2.425,22.728-2.572c4.147-0.325,5.427,0.259,5.427,0.259c-1.962,0.656-6.166,0.041-8.409,1.165
		c-5.15,0.09-10.496,1.034-15.82,1.59c-3.27,0.336-9.046,1.124-9.729,0.279l-1.215-1.496
		C48.263,189.877,48.543,191.558,49.617,191.699z M126.243,180.686l0.025-0.246h0.84l-0.023,0.246H126.243z M127.48,180.582
		l3.177,0.187C129.959,181.237,127.793,180.965,127.48,180.582z M132.015,179.598v-0.372c2.897-0.188,5.79,0.325,8.081,0.841
		l-0.373,0.373C137.096,180.203,134.35,179.883,132.015,179.598z M141.261,151.996l1.354-0.324
		c-0.979,2.193-1.189,4.834-1.354,7.239c-2.977-2.784-2.709-8.049-1.026-8.41l0.187,0.649c0.231,0.373,0.514-0.326,0.84-0.326
		C141.823,151.247,140.561,151.523,141.261,151.996z M143.086,157.881c0.416-3.224,1.587-6.398,4.199-8.41
		c0.236,0.096,0.189,0.326,0.189,0.515c-0.945,0.378-3.518,4.625-3.835,7.858c-0.244,2.462,0.153,5.003,1.126,7.088h0.188
		c0.142-1.729-0.982-3.786-0.326-5.512c0.095,0.324,0.512,0.75,0.84,0.845c0.514-0.521-0.872-2.163,0.653-2.385
		c2.848-0.373,5.512,2.851,7.895,0.705c0.186,0.835-0.753,1.371-1.306,1.301l-2.387-0.326c-0.092,0.515,0.7,1.403,1.357,1.543
		c1.913,0.562,3.41-0.981,5.042-1.543c0.444-0.141,0.239-0.672,0.187-0.976c-0.073-0.252-0.759-0.126-1.034,0.126l-1.019,1.032
		c0.048-0.373,0.559-1.206,0.84-1.863c0.583-0.057,1.901-0.157,1.872,0.705c-0.188,2.378-2.01,4.341-4.207,5.18
		c-0.888-0.093-1.449,0.096-1.354,0.841c-0.512-0.326-0.983-0.652-1.497-0.981c-0.698,0.283,0.612,1.171-0.512,0.839
		c-1.123-1.821-3.271-1.821-4.016-3.873c-0.701,0.745,0.328,1.678,0.467,2.519c-0.423-0.143-0.795,0.142-1.168,0.33
		c0.325,0.652,1.446,0.096,2.005,0.515c1.948,1.171,6.914,1.933,8.082,0.652l2.011-2.521l0.188,1.167
		c-0.611,0.047-1.637,0.56-1.031,1.354h0.843l0.039,0.719c-0.138,0-0.427,0.053-0.509,0.12l-0.511,0.515
		c-3.315-0.232-6.586-0.651-10.088-0.515l-0.328,0.332c1.073,0.935,3.128,0.366,4.669,0.513c-0.605,1.303-1.916,1.024-3.365,1.024
		c-0.325-0.047-0.604,0.047-0.837,0.326c0.885,0.513,1.307,0.467,2.38,0.513c-0.142,0.705-0.22,1.87-1.296,1.633l0.028,0.326
		c0.981,0.047,1.239,0.741,1.509,1.438c0.625,1.603,2.395,1.576,3.263,1.653c-0.048,0.232-0.058,0.584-0.142,0.835
		c-3.065,0.285-5.352-4.089-6.032-6.225c-0.275-0.872-0.506-1.749-1.021-2.504l-0.374,0.326c0.793,3.732,2.756,7.707,6.257,9.575
		v0.189c-6.674-1.175-8.64-11.917-8.748-15.114c-0.071-2.036,0.139-4.079,0.672-5.911v3.506H143.086z M155.227,153.865
		c0.279,0,0.594,0.184,0.654,0.509c0.281,0.941-0.84,0.609-1.165,1.171l1.68,1.354c-0.467,0.283-1.289,0.326-1.665,0.369
		c0-0.137,0.029-0.646-0.202-0.741c-0.89-0.094-0.305,0.918-1.171,1.213c-0.707,0.194-1.617,0.25-2.297-0.053
		c-1.228-0.546-0.867-2.672,0.617-2.981c0.95-0.173,2.216-0.226,2.336,1.165c0.279,0.094,0.539-0.146,0.515-0.326
		C154.107,154.89,154.377,153.798,155.227,153.865z M153.359,154.002c-1.449-0.513-2.942,0.143-3.688,1.36
		c-0.541,0.892-1.124,0.509-1.541,1.024h-1.17c-0.061-2.794,2.753-6.5,6.585-4.714C154.761,152.369,153.359,153.209,153.359,154.002
		z M149.485,157.225c-0.354,0.525-1.04,0.247-1.685,0l1.542-0.326C149.513,156.863,149.586,157.063,149.485,157.225z
		 M146.12,157.042l-0.84,0.183c-0.234-2.851,1.354-5.417,3.876-6.724h0.515C147.193,151.855,146.072,154.375,146.12,157.042z
		 M154.854,169.325c-1.123,0.137-2.43-0.283-3.362,0.326c0.979,0.515,2.239,0.283,2.378,1.68c-0.735,0.935-2.604,0.778-3.378-0.383
		c-0.903-1.354,0.448-2.794,1.84-3.118c1.31-0.322,2.011,1.401,3.034,0.466c0.404-0.256,1.541,0.469,0.843,1.214
		C155.949,169.74,155.227,170.119,154.854,169.325z M154.387,172.176l0.84-1.358C155.834,171.241,154.854,172.968,154.387,172.176z
		 M153.172,173.855l-0.464-0.651c0.464,0.049,0.745-0.796,1.163-0.33C154.06,173.342,153.545,173.762,153.172,173.855z
		 M149.573,169.867c-0.023,0.236-0.075,0.472-0.231,0.625c-0.183-0.915,0.071-1.869,0.702-2.551
		c0.717-0.778,2.058-1.381,2.475-0.809C151.085,167.231,149.716,168.376,149.573,169.867z M154.201,166.806
		c0.281-0.189,1.542-0.33,2.195-0.189c0.325,0.096,0.606,0.419,0.511,0.841C156.023,167.085,154.574,168.296,154.201,166.806z
		 M141.403,163.625c1.52,4.182,2.52,8.966,6.585,12.1c-1.076,0.466-2.336-0.699-3.036-1.543l-1.355-1.823
		c-0.325,1.03,0.234,2.994-1.496,3.041c-2.548,0.042-7.518-0.416-10.927-0.703c-0.048-0.143-0.145-0.841,0.325-0.981
		c3.551,0.14,7.287,0.324,10.602,0.466c0.142-0.143,0.423-0.23,0.328-0.466c-1.577-0.988-20.925-1.613-25.204-1.556
		c-1.947,0.027-15.764,0.788-19.545,1.371v0.186c10.557,0,22.28-0.794,32.325,0c0.093,0.649-0.338,0.965-0.842,0.981
		c-10.531-1.057-21.02,0.466-32.264-0.468c-1.296-0.11-1.477-0.609-0.233-1.092c3.555-1.36,11.968-2.116,13.815-2.262
		c10.199-0.819,20.83-0.552,31.294,0.456c0.512,0.053,1.499-0.146,1.311-0.651c-0.843-2.525-1.544-5.138-2.665-7.569
		c0.091,2.246,0.981,4.72,1.354,7.056c-2.57-0.137-6.105-0.468-8.864-0.605c0.888-3.696,1.063-7.616,4.987-10
		c0.539,0.698,0.979,1.403,1.68,2.012l0.843-0.841C141.125,161.22,141.045,162.491,141.403,163.625z M206,170.492
		c7.343,0.566,14.796,2.246,20.367,3.973c13.456,4.159,26.28,8.058,37.975,17.046c4.983,3.875,9.902,7.145,13.967,11.77l1.169,0.189
		l-0.515,0.513l3.691,2.851c0.582-0.672,1.012-0.439,1.409-0.036c0.428,0.441,1.959,1.764,2.261,2.021
		c0.158,0.137,0.185,0.324-0.123,0.677c-0.327,0.278,0,0.841-0.513,1.03l-1.353-0.841c0.326-0.42,0.978,0.136,1.212-0.516
		c0.047-0.257-1.236-1.421-2.03-2.026l-0.678,0.347c-4.903-3.134-8.27-6.824-12.937-10.609v0.516l12.937,11.633l-0.186,0.326
		c-4.459-3.203-9.375-8.044-12.751-11.114c-11.961-10.935-26.293-17.472-41.101-22.143c-0.232,0.047-0.175,0.662-0.175,0.662
		c14.614,5.123,27.974,10.908,39.341,21.065c0.826,0.734,7.103,6.862,9.514,8.835c0.807,0.662,3.84,2.981,4.598,3.407
		c0.48,0.278,0.833,0.582,0.76,1.107c-1.026-0.137-2.563-0.766-3.362-1.49c-9.872-8.536-19.394-17.911-30.648-23.839
		c-4.435-2.336-18.361-7.806-23.085-9.232c-8.769-2.652-18.575-4.904-27.222-6.417c-1.095-0.193-10.981-1.338-17.512-1.879
		c-1.935-0.157-1.723-0.277-0.026-0.23c8.728,0.273,18.943,1.201,27.354,3.433l0.188-0.189
		C207.721,170.979,206.981,170.958,206,170.492z M278.637,196.23c-0.234,0.839-1.447,0.513-2.01,0.324l-0.326-0.324l0.326-0.326
		c2.383-0.047,4.578-0.189,6.728,0.839c-1.077,0.42-2.901-0.263-3.791,0.437c0.704,0.892-0.229,2.924,1.267,3.066v0.513
		c-0.465-0.094-1.12,0.332-1.353-0.323c0.086-1.224-0.796-2.195-0.188-3.183C278.246,197.259,279.429,196.418,278.637,196.23z
		 M284.521,192.213c-3.036-0.745-6.26-1.401-9.436-1.354c0.576-0.525,1.269-0.686,1.993-0.686
		C279.629,190.187,282.093,190.738,284.521,192.213z M278.309,188.849l0.654,0.326c-0.141,0.426-0.745,0.426-0.981,0.141
		C277.89,189.085,278.171,188.991,278.309,188.849z M279.413,194.671c0.093-0.09,0.25-0.169,0.391-0.12v0.509h-0.981
		c-0.281-0.931-0.281-2.331,0-3.034C279.524,192.586,278.71,193.973,279.413,194.671z M281.16,201.464
		c0.965,0.535,1.916,0.462,3.176,0.651c-1.03,0.236-3.225,1.028-4.532,0c-0.568,1.302-1.822-0.189-1.822-0.189
		C279.382,202.303,279.71,200.619,281.16,201.464z M282.84,205.479c-0.935,0.183-1.729-0.888-1.869-1.869
		c0.89,0,0.621,1.58,1.684,1.213C282.986,204.708,283.215,205.369,282.84,205.479z M288.214,211.69
		c-0.281,0.562-2.289,0.798-1.685,2.01c0.308,0.535,0.792,0.468,1.169,0.698c0,0.468-0.796,0.468-1.169,0.655
		c-0.328,0.888-1.293,1.876-2.026,0.908l-0.822-0.908c-4.65-0.057-10.227-0.163-14.946,0l-0.516-0.513
		c-0.374,0.325-0.7,1.075-1.354,0.513l-0.328-0.513c-0.653,0.094-0.653,1.122-1.352,0.513c-0.186-0.188-0.186-0.513-0.516-0.655
		l-0.656,0.841l-1.539-0.841c-0.188,0.189-0.188,0.515-0.464,0.655c-0.985,0.373-0.518-0.981-1.358-0.839l-0.511,0.698
		c-3.411,0.011-7.804-0.372-11.259-0.189c-0.234-0.231-0.047-0.604-0.332-0.841c-0.559,0.426-0.931,1.124-1.676,0.841
		c-0.189-0.183-0.096-0.698-0.518-0.651c-0.56,0.42-0.23,1.124-1.167,0.841c-0.325-0.231-0.094-0.698-0.513-0.841
		c-0.42,0.326-0.42,1.403-1.356,0.981c0.141-0.419-0.188-0.655-0.326-0.981c-0.464,0.373-0.372,1.308-1.355,1.167l-0.324-1.869
		c-1.124,0.938-1.334-1.591-2.851,0c-2.055,0.053-4.156-0.09-6.07,0.189c2.148,0.466,4.482,0.466,6.724,0.655
		c-0.175,0.304-0.464,0.556-0.653,0.839c-3.736-0.608-8.502,0.745-12.143-1.171c-0.094-0.419,0.302-0.892,0.698-0.839
		c0.891,0.189,1.823,1.124,2.666,0.326c-2.15-1.261-3.087-3.896-5.7-5.046l-0.189,0.189c0.891,0.777,2.106,1.616,2.707,2.657
		c0.272,0.46,0.458,1.82-1.167,1.364l-0.186-0.143c0.096-0.42,1.028,0.143,1.028-0.52c-0.281-0.278-0.702-0.136-1.028-0.183
		c0-0.516,1.589-0.279,0.516-0.978c-1.063-0.563-2.248,0.997-1.371,1.975c0.377,0.424,0.923,0.703,0.717,1.195
		c-1.914,0.609-3.875,3.46-5.885,1.171c-1.018-1.148-2.36-1.044-1.871-2.192l-0.326-0.326c-0.224,0.466-0.428,0.415-0.635,0.22
		c-0.227-0.199-1.405-0.949-1.23-1.207c0.604-0.835,2.191-0.929,2.004-2.053c-0.511,0.189-0.839,0.419-1.308-0.141v-0.326
		c0.139-0.047,0.332-0.026,0.424,0.063l0.232-0.253c-1.82-2.372-4.873-2.641-5.626-0.143c-0.564,1.87,0.768,2.957,2.451,3.323
		l0.464-0.472c0,0.608,0.658,0.94,1.216,1.313c-0.558,0.325-1.216-0.283-1.865,0.372c0.79,1.075,2.843-0.096,3.36,0.981
		l-0.518,0.326c0.33,0.513,1.687,0.372,1.687,0.372l0.325,0.467c-2.83,0.132-6.3-0.137-8.737-1.79
		c-2.389-1.623-2.969-4.547-1.521-7.282c1.418-2.665,5.826-3.757,9.086-2.252c1.585,0.735,2.566,1.79,3.368,3.104
		c-0.979,0.33-2.073,1.071-3.038,0.655c-0.351,0.416,0.424,0.936,0.375,1.54c2.246-0.279,3.152-3.732,6.166-1.045
		c0.15-0.814-0.859-1.449-1.634-1.991c-1.156,0.075-1.768-0.587-2.354-1.342c-1.617-2.065-4.655-2.684-7.408-2.537
		c0.467-1.349,2.623-1.229,3.547-0.976c0.379,0.137,0.705,0.462,1.169,0.325c-0.15-0.861,0.986-0.944,1.683-0.698
		c0.297-0.319,0.358-0.661,0.323-1.018c-0.016-0.169-0.743-5.759-2.006-7.392h-0.325c0.59,2.319,1.026,4.624,1.169,7.096h-0.33
		c-0.124-3.982-2.041-7.921-3.484-8.986c-1.617-1.19-2.445,1.165-0.871,1.611c0.82,0.232,0.287,0.851-0.214,0.809
		c-0.844-0.073-1.609-0.923-1.69-1.7c-0.141-0.652-0.326-1.354-0.467-2.006c0.12-0.08,0.3-0.131,0.467-0.189
		c0.33,0.379,0.33,0.935,0.843,1.03l0.188-1.354c0.558-0.049,0.467,1.118,1.354,0.703c0.619-0.367,0.315-1.438-0.479-1.601
		c-0.66-0.137-1.418-0.033-2.047-0.273c-0.019-0.242,0.242-0.31,0.503-0.389c0.607-0.18,0.692-0.542,0.098-0.972
		c-1.739-1.271,0.283-4.594,1.925-5.176c0.486-0.143,0.967-0.021,1.166,0.651v0.656c-1.307-0.842-2.577,0.802-2.851,1.68
		c-0.276,0.792-0.276,2.105,0.844,2.057c0.841,0.931,1.775,1.869,2.194,2.987h-0.513c-0.094,1.118,1.4,1.965,1.82,3.04
		c0.351-0.353,0.401-0.792,0.31-1.261c-0.297-1.521-1.719-3.946-3.556-5.716c-0.753-0.725,0.43-2.342,1.389-1.906
		c1.809,0.819,3.929,5.901,4.777,8.494c1.13,3.439,1.735,7.071,2.126,10.805c-0.983-0.189-0.655-3.503-2.148-1.308
		c-0.096,0.698,0.886-0.047,0.841,0.651c-0.749,0.377-1.402-0.935-2.194-0.326c0.387,0.593,1.079,0.772,1.71,1.082
		c0.825,0.393,2.818,1.983,3.832,3.164c2.037,2.368,3.843,5.014,7.066,5.513l9.762,0.472c0.469,0.373,0.75,1.024,1.31,1.024
		c0.373-0.229,0-1.024,0.702-0.841l0.652,1.356c0.935-0.516,0.233-1.356,1.168-1.54c0.232,0.42,0.188,1.167,0.84,1.024
		c0.515-0.229,0.096-1.354,1.03-1.024l0.511,1.214c0.937-0.096,0.141-1.822,1.358-1.36c0.37,0.236-0.141,1.218,0.649,0.988
		c0.332-0.673,1.094-0.868,1.979-0.904c1.016-0.041,8.953,0.246,8.953,0.246c0.062,0.315-0.484,0.925,0.326,0.841
		c0.655-0.136,0.302-0.608,0.188-0.841c0.796-0.146,0.419,0.658,0.981,0.841c0.513-0.047,0.604-0.745,1.026-0.841l0.841,0.841
		l1.028-0.841l0.653,0.841c0.516-0.047,0.658-0.981,1.354-0.651c0.096,0.232,0.139,0.469,0.325,0.651
		c0.799,0.279,0.891-0.981,1.683-0.651l0.33,0.651c3.604-1.4,11.854-0.488,15.32,0.326c0.281-0.509,0.746-1.633,1.495-1.822
		c1.075,0.515-0.89,1.124,0.188,1.686c1.211-0.608,0.978-2.567,2.195-2.897C286.76,211.4,288.214,211.69,288.214,211.69z
		 M298.814,212.393c0.289-0.646,1.051-0.576,1.788-0.52c0.325,0.026,4.052,0.715,4.939,0.988
		c-4.744,1.736-15.915,1.982-17.986,0.372C291.622,212.156,295.08,213.187,298.814,212.393z M240.287,214.913l-0.841-0.515
		c0.186-0.42,0.735-0.037,1.026,0.143C240.617,214.641,240.381,214.817,240.287,214.913z M226.322,214.913l-0.143,0.467
		l-1.028-0.141C225.478,214.96,226.09,214.866,226.322,214.913z M214.223,210.193l1.028,0.143c-1.477,1.395-4.113-0.771-2.71-2.012
		C212.637,209.143,213.335,210.01,214.223,210.193z M214.3,208.893c0.461,0.293,0.021,0.672-0.289,0.235
		C213.759,208.766,213.966,208.677,214.3,208.893z M203.481,207.349l1.492-3.224c0.326,0.651-0.606,1.916,0.188,2.708
		c0.839-0.466,0.981-1.543,1.169-2.382c0.401,1.197-1.588,4.718-0.516,7.239c-1.565,0.897-4.204,0.329-6.399,0.329
		c4.718-7.103,6.772-15.044,6.728-23.686c0.42,0.562,0.516,1.449,1.353,1.496c0.183-0.672,0.246-1.736,0.191-2.688
		c-0.029-0.503,0.042-0.493,0.152-0.053c0.599,2.384,1.236,5.123,0.173,7.129c-2.105,1.171-2.197,3.034-2.524,5.05
		c-0.782,4.048-2.595,8.394-5.372,12.279C201.659,210.944,202.652,208.912,203.481,207.349z M206.843,176.377
		c5.706,0.402,17.498,4.641,19.565,9.222c0.627,1.397,0.287,1.523-0.823,2.814c-0.417,0.482-0.704,0.976-0.572,1.417
		c1.741-1.008,3.558-2.258,2.589-4.435c-0.861-1.942-3.358-3.533-5.348-4.747c-4.337-2.645-12.58-5.023-19.29-6.609l-0.186-0.324
		c4.684,0.403,15.179,3.527,19.72,6.182c2.124,1.24,4.28,2.761,5.689,5.076c0.561,1.167,0.469,2.285-0.326,3.36
		c-1.121,1.267-2.479,2.547-3.973,2.92l0.283-1.098c-0.411-0.069-0.843-0.246-1.028-0.841c-0.747-2.104-1.773-4.903-3.036-7.192
		c-0.477-0.829-1.668-1.364-2.521-0.696c-0.656,0.603-1.169,1.258-1.495,2.004c-0.301-0.36-0.383-0.876-0.477-1.375
		c-0.415-2.126-2.366-2.173-3.767-0.766c-1.271,1.285-2.393,4.188-1.642,5.689c-0.13,0.069-0.326,0.232-0.515,0.326
		c0.047,2.389,1.402,4.813,0.188,7.056c-3.926,2.105-0.985,7.144-1.869,10.279c-0.139,0.12-0.33,0.183-0.517,0.183
		c0.327-3.732-2.381-8.356,1.682-10.794c0.358-0.845,0.397-1.79,0.308-2.749c-0.206-2.158-2.063-11.45-4.651-14.903
		c0.096-0.232,0.381-0.306,0.654,0c2.146,2.429,2.757,5.51,3.363,8.597c0.062,0.273,0.232,0.422,0.516,0.326
		C209.647,182.355,206.843,176.377,206.843,176.377z M199.813,171.158c-0.545-0.13-0.513-0.22,0.043-0.137
		c8.249,1.36,16.834,3.759,24.315,5.869c0.479,0.096,0.324,1.107,0.33,1.497c-1.503-0.516-7.099-2.568-8.227-2.961
		C211.175,173.646,205.251,172.435,199.813,171.158z M260.142,198.938c-1.077-0.283-1.823-0.955-3.13-0.771
		c-0.141,0.52-0.613,1.285-1.263,1.238c-10.182-0.603-19.2-0.792-29.755-1.165l-0.327,0.326l0.843,7.428h0.186
		c0.7-2.152-0.373-4.115,0-6.726c9.715,0.09,19.151,0.42,28.913,0.978c0.981,0.047,1.633-0.604,2.334-1.167l3.551,1.024
		c1.067-0.462-0.281-1.261-0.513-1.863c2.521,0.23,4.812,2.006,6.911,3.686c0.563-0.745-0.933-1.071-0.839-1.822
		c1.402,1.497,3.641,2.498,4.528,4.021c-0.792-0.473-1.642-1.449-2.484-1.214c2.055,2.202,4.729,3.687,6.504,6.258
		c-10.91,0.053-32.351-0.482-45.914-0.655c-1.03-0.563-2.061-1.82-3.177-1.681c1.336,1.985,3.008,2.621,4.853,2.794
		c1.916,0.174,21.191,0.636,32.489,0.473c1.43-0.017,10.438,0.094,11.505,0.263c0.762,0.073,1.36,0.24,1.922,0.486
		c-0.045,0.373-0.554,0.679-1.167,0.699c-10.09,0.325-35.502-0.609-37.042-0.656c-4.699-0.143-11.531-0.079-13.075-3.402
		c-0.376-5.47-0.935-9.765-1.822-14.808c0,0,4.03-2.122,5.339-5.586c0.188-0.499,0.361-1.088,0.035-1.613
		c-0.747-1.211-1.501-2.492-2.525-3.547c1.448,0.563,2.57,2.802,3.501,4.393h0.376c-0.233-2.802-3.174-5.653-5.746-6.913l0.006-2.23
		l1.022,0.36c18.009,6.19,28.344,12.379,37.134,20.04v0.325c-1.261-0.468-2.847-1.213-4.016-0.841
		C258.834,197.957,260.092,198.051,260.142,198.938z M223.472,202.439c0.232,0.472,0.372,1.686-0.143,2.201
		c-2.053-1.916-0.79-5.235-1.865-7.897c-0.469-0.935,0.839-0.698,0.651-1.543c-0.279-3.597-1.822-7.05-3.689-10.414l-0.839,0.696
		c0-1.757,0.678-2.575,1.894-1.38c1.191,1.171,3.07,6.011,3.804,9.534c0.876,4.215,1.617,8.163,1.544,12.682h-0.188
		c-0.188-2.477-0.844-4.765-1.169-7.05C223.239,200.246,223.239,201.693,223.472,202.439z M220.95,194.361
		c-0.657-2.94-1.901-5.569-3.093-8.354l0.304-0.256C219.379,188.507,221.276,191.185,220.95,194.361z M217.257,183.106
		c0.195-1.434,1.942-1.434,2.195-0.143h-0.514C218.869,182.485,217.961,182.229,217.257,183.106z M214.551,194.551
		c-1.493-0.236-2.851,0.419-4.018,0.509l0.511-1.539c0.702,0.608,1.871,1.03,2.663,0.372l0.703-0.839
		c1.49,2.006,1.918,4.767,2.008,7.565c-0.467,0.093-0.666-0.27-0.656-0.699C215.857,197.91,215.17,196.141,214.551,194.551z
		 M213.707,197.91c-1.447,0.047-3.153-0.236-4.414,0.792c1.635,0.326,3.573-0.325,4.93,0.377c-0.049,0.326-0.606,0.563-0.143,0.841
		c0.471,0.184,0.705-0.231,0.985-0.515c0.578,1.145-0.04,1.124-0.781,1.066c-1.469-0.122-3.441,0.886-3.566,2.3l-1.352,0.839
		c-0.422-2.336-0.609-4.342-0.516-6.73c0,0,2.244-1.4,3.034-1.49l0.143,0.841c0.654-0.049,0.981-0.798,1.68-0.651
		c0.499,0.104,1.028,1.211,1.028,2.006l-1.166-0.842C213.103,197.116,213.848,197.442,213.707,197.91z M198.248,170.679
		c-0.489,0.479-1.773-0.324-3.034-0.324C195.786,169.761,197.203,170.602,198.248,170.679z M156.535,199.405v0.372
		c-13.873-0.462-26.621-0.372-39.655-1.354c-0.468,0.608-1.494,0.278-1.68-0.326c10.972-0.556,21.983,0.043,32.185,0.782
		C149.123,199.006,156.535,199.405,156.535,199.405z M170.829,207.349l-0.328,0.326c-0.607-0.285-0.092-0.705,0-1.03
		C170.746,206.813,170.971,207.017,170.829,207.349z M87.266,206.97c4.484-1.261,10.929-0.276,15.647-0.839l1.028-2.661l0.14,1.68
		c1.402-0.651,3.129,0.938,4.718,1.354c5.317,0.449,9.608,0.083,14.635,0.13c0.228,0.006,21.061,0.053,31.607,0.525l-1.682,0.839
		l-10.413,0.326H114.03c-6.251,0.195-11.717-0.12-17.611-0.546c-1.282-0.094-5.931-0.104-5.931-0.104
		c0.327-0.705,2.461-0.206,3.177-0.705C91.515,206.504,89.273,207.253,87.266,206.97z M100.391,205.29l1.354-1.308
		C102.026,204.776,101.277,206.088,100.391,205.29z M171.659,216.135l-0.914,0.106l-0.176-1.145c0.331,0,0.632,0.026,0.963-0.021
		C171.861,215.076,171.94,216.062,171.659,216.135z M172.045,212.203c0.044,0.189-0.056,0.362-0.187,0.332
		c-0.47-0.143-0.796-0.662-1.168-0.987c-0.215,1.15-1.168,1.113-1.375,0.053c-0.068-0.342-0.155-0.646-0.634-0.563
		c-0.329,0.326-0.143,0.888-0.187,1.354c-1.026,0.469-0.84-1.401-1.026-1.867c0.325,0,0.511,0.13,0.745,0.313
		c0.654-0.326,0.095-0.972,0.281-1.344l1.028,0.515c0.749-0.698-0.795-1.124,0-1.822c0.417,0.047,0.464,0.794,0.979,0.841
		l0.514-1.03l0.654,0.651c-0.281,0.473-1.683,1.171-0.654,1.876c0.349,0.261,0.993,0.272,0.68-0.349
		c-0.394-0.798,0.787-0.938,1.003,0.349C172.231,210.991,171.483,211.548,172.045,212.203z M173.737,212.562
		c-0.383,0.413-0.588,0.326-0.914-0.315c-0.22-0.43-0.228-0.925,0.386-1.071C173.504,211.428,174.173,212.089,173.737,212.562z
		 M198.248,218.088c-6.771,2.525-14.806,1.775-22.001,0l0.325-0.649c2.337-0.608,5-0.562,7.383-1.03
		c-5.795-1.312-9.902-7.38-12.097-12.426c2.619-3.643,0.188-8.204,0.853-12.389c0.457-2.865,2.25-10.725,4.189-14.515
		c1.215-2.662,3.923-6.4,7.381-6.587c-0.193,0.387-0.77,0.656-1.36,0.992c-4.443,2.509-8.876,10.253-8.317,20.893
		c0.409,7.748,3.082,14.411,10.05,16.793c2.246,0.705,5.126,0.809,6.62-0.56l-0.201-0.578c-3.37,1.832-8.97-0.542-11.748-4.1
		c-3.148-4.038-3.967-9.523-3.864-14.684c0.078-4.179,1.835-12.978,7.6-16.73c3.292-2.142,8.797-1.739,11.554,1.334
		c5.229,5.832,6.614,17.376,2.411,26.404c-1.075,2.871-2.619,5.486-5.502,7.559c0.057,0.236,0.132,0.416,0.205,0.572
		c5.027-1.237,8.058-10.01,8.534-18.656c0.33-6.052-1.122-12.143-4.862-17.229c1.352-0.373,3.177-0.047,4.53,0.515
		c1.66,0.723,2.959,5.217,3.203,5.995c3.383,10.803,0.964,23.181-5.4,32.026c-1.914,2.897-3.361,4.438-6.866,5.696
		c-0.092,0.282,0.077,0.515,0.326,0.515c2.573-0.326,4.72-0.189,7.056,0.516V218.088z M198.248,213.883l0.7-0.513l7.885,0.057
		l1.09,0.935l-0.66,0.127C204.045,214.162,201.097,214.866,198.248,213.883z M307.135,215.027
		c-6.17,0.505-10.792,1.513-17.357,1.687c-0.344,0.01-1.482,0.329-2.509,0.971c-1.447,0.792-2.513,0.263-3.775-0.436
		c-10.778,0.193-20.906,0.227-30.739,0.1c-1.972-0.026-23.208,0.227-23.208,0.227c-2.614,1.68-6.986,0.991-7.185,0.938
		c-1.057-0.289-2.052,0.09-3.104,0.473c-2.867,1.051-6.036,0.525-11.245-1.411c0.698-0.516,2.008-0.279,2.847-0.841
		c-1.963-0.236-5.371-0.094-7.705-0.84c4.203-0.419,7.846,0.047,11.77,0.84c0,0,0.27-0.683,0.336-0.735
		c0.332-0.283,0.656-0.114,0.988,0.109c0.488,0.332,0.985,0.784,1.527,0.112l1.82,0.188c-0.595,0.944,1.216,0.841,1.216,0.841
		c2.179,0.143,4.44-0.589,6.6-0.729c0.657-0.049,38.567,0.167,55.758-0.112c0.884,0.608,2.732,1.224,3.033,0.841
		c1.534-2.016,3.902-2.01,6.391-1.822c1.824,0.143,10.019-0.477,14.545-0.523C307.735,214.891,307.647,214.986,307.135,215.027z
		 M311.428,209.685c-0.422,1.49-2.525,1.4-3.552,2.188c1.914-0.183,4.158-0.651,5.744-2.006l0.518,0.143
		c-2.588,2.556-5.502,2.415-8.575,1.97c-4.761-0.694-6.605-0.825-10.85-0.559c-2.231,0.143-4.521,0.232-6.499-0.572
		c1.494-0.087,3.686,0.189,5.367-0.136v-0.188c-2.282-0.163-3.92-0.049-6.025-1.171c0.658-0.075,1.306,0.03,1.965,0.177
		c3.521,0.788,11.568,0.599,14.995-0.503v-0.189c-5.872,0.593-12.676,1.407-18.073-1.749c-0.143-0.083-0.141-0.141,0.02-0.087
		c4.944,1.646,20.136,1.138,21.5,0.691C308.809,207.396,309.88,209.727,311.428,209.685z M288.91,197.069
		c-2.725-0.11-3.393,2.321-1.022,2.708c8.87,0.981,18.726,0.746,27.93,1.497c0.094,0.515,0.238,1.002,0.328,1.497
		c-2.747-0.189-5.37-0.936-7.429,1.543c-0.49,0.672-0.604,2.562-2.01,2.519c-7.099-0.14-14.389,1.308-20.692-1.869
		c0.096-0.698,1.169-0.608,1.541-1.354c-1.398-0.189-2.474,0.419-3.875,0.189c0.017-0.347,0.229-0.499,0.509-0.577
		c0.367-0.111,2.947-0.358,3.698-0.783v-0.324l-5.889-1.356c-0.139-0.323-0.467-0.56-0.326-0.981
		c0.705,0.216,0.981-0.325,0.981-0.698c1.026,0.09,1.959-0.094,2.708-0.33c-1.026-0.792-2.899-0.556-4.02-0.839v-0.186
		c1.544-0.372,3.694,0.096,4.858-0.655c-1.68-1.024-3.783-1.165-5.559-2.01c0.094-0.368,0.937-0.698,1.544-1.03
		c0.7,0.053,1.449,0.662,2.149,0.189c-0.888-0.976-2.522-0.886-3.832-1.349v-0.515c1.773,0.137,3.783,1.214,5.37,0.326
		c-0.251-1.387-2.857-2.06-4.03-2.273c-0.666-0.122-1.271-0.299-1.576-0.877c-0.77-1.444-4.231-2.226-7.005-0.872v0.189l3.878,0.326
		c-0.982,0.377-3.354,0.456-3.037,2.01c0.654,1.071,1.591,0.655,2.572,0.981c-0.709,0.479,0.279,1.214,0.279,1.214
		c0.861-0.609,0.175-1.214,0.175-1.214l0.636,0.026c-0.026,0.935-0.019,1.89,0.03,2.867c-1.026,0.047-2.104-0.232-2.71,0.845
		c-0.459,0.976,0.562,1.397,1.498,1.538c1.676,0.252,1.749,1.333,2.053,2.661c0.189,0.768-0.25,1.188-1.081,0.482
		c-9.101-7.752-18.648-14.954-29.192-19.518c-1.216-0.523-6.887-2.839-8.917-3.663c3.423,0.136,15.254,2.441,18.442,3.313
		c5.348,1.458,10.617,3.201,16.03,3.554c0.325,0.047,0.558,0.655,0.839,0.189c-1.589-1.214-3.861-1.193-5.372-1.687
		c-6.754-1.933-13.631-3.869-20.489-5.402c-4.219-0.944-18.375-3.517-18.375-3.517c-0.884,0.656-1.54,0.263-2.52-0.14
		c-7.939-3.177-15.32-3.13-23.869-4.904c-6.819-1.727-14.573-1.963-19.151-8.406c-0.7,0.416-0.094,1.118,0.139,1.54
		c3.034,3.833,7.196,4.767,11.118,6.351c-5.511,0.515-11.022-3.413-13.777-8.031c-0.42,0.466-0.279,1.495,0.138,2.003
		c1.45,2.102,3.644,3.786,5.556,5.372c-5.828-0.562-12.679-0.804-18.955-1.364c-2.895-0.258-3.937-0.421-5.686-2.252
		c-3.039-3.187-4.292-7.372-6.861-10.831c-2.506-3.374-6.986-5.366-11.478-4.981c-10.038,0.839-8.14,8.099-4.614,11.532
		c-0.279,0.705-0.838,0.143-1.168-0.183c-4.15-3.942-3.671-10.803,1.405-11.9c4.128-0.888,8.494-0.829,12.845-0.416
		c7.486,0.709,18.87,2.741,18.87,2.741c-0.654,0.562-0.979,1.15-2.339,1.028c-4.013-0.466-8.594-1.171-12.796-1.354
		c-0.67-0.02-1.307-0.189-1.497,0.516c6.961,1.307,17.833,1.643,21.206,3.174c-1.213-0.141-2.475-0.466-3.551-0.33
		c1.076,0.751,2.758,0.845,4.207,0.981c-0.946,0.389-2.259,0.432-3.012,1.118c-0.444,0.399-1.134,1.617,0.554,1.753
		c0.874,0.069,4.373,0.588,5.169,1.008v0.326c-1.544-0.093-3.13-0.419-4.579-0.326c1.449,1.54,4.345,0.326,5.886,1.863
		c0.405-0.236,0.127-0.929-0.148-1.611c-0.409-1.008-0.959-1.623-2.171-1.796c-1.012-0.146-3.297,0.069-3.054-0.649
		c0.514-1.354,3.361,0.047,2.849-1.823c-0.961-3.207-4.306-1.234-5.886-3.04c0.704-1.354,4.115,0.698,2.386-1.678
		c-0.604-0.721-1.401-1.586-2.199-1.356c0.05,0.515,0.659,1.03,0.189,1.543l-5.418-1.358c1.632-1.167,3.832,0.985,4.902-0.699
		c-1.309-0.751-2.848-1.45-4.388-1.167c-0.981,0.326-2.103,0.794-3.034,0.841l3.22-1.497c-1.775-0.277-3.318,1.028-4.903,1.822
		c1.929-2.038,4.619-2.568,7.279-2.158c3.155,0.499,5.013,1.863,7.192,4.977c2.195,3.13,3.678,6.793,5.38,9.98h0.326
		c-1.229-4.71-4.216-10.825-7.567-13.965c9.473,0.136,30.072,5.375,35.501,6.726c1.13,0.326,1.633,2.662,3.177,1.538
		c0.729-0.499-0.31-1.202-1.107-1.334c-0.324-0.051-0.642-0.12-0.9-0.346c-0.655-2.614,1.593-5.958,5.555-7.564l-0.325-0.377
		c-2.803,0.513-5.885,2.525-6.913,5.233c-0.255-0.589-0.214-1.177,0-1.737c0.91-2.405,3.695-4.504,7.981-4.587
		c1.764-0.033,2.976,0.098,3.411,2.761c0.34,2.057-0.542,4.278-1.441,6.271c-1.011,2.216-4.083,1.181-5.543,1.739
		c3.13,1.773,6.007-0.196,9.369,1.627c-0.418,0.513-0.837,1.165-0.649,2.006c-8.149-1.733-17.38-3.423-26.205-5.152
		c-4.59-0.896-12.343-1.684-13.835,1.02c-0.436,0.786-0.535,1.89-0.135,2.592c0.108,0.263,0.377,0.515,0.658,0.515
		c0.599-0.259,0.232-0.489-0.022-0.762c-0.43-0.462-0.816-2.405,2.689-3.317c2.835-0.741,8.528,0.346,12.12,1.055
		c4.364,0.861,24.754,5.05,24.754,5.05c0.708,1.8,0.419,8.477,0,10.719c-0.424,0.419-1.242,0.053-1.523,0.705
		c0.468,0.935,1.218-0.421,1.684,0.513l0.842-0.649c0.061,1.254,1.025,0.649,0.981,1.49c1.551-0.378,1.549,1.658,2.688,1.601
		c0.259-0.016,2.447-0.383,2.871-1.087c-0.471-0.696,0-1.957,1.026-1.68c0.42-1.075-0.375-2.053,1.167-2.383l0.327-0.326
		c-1.213-0.75-3.457,1.633-4.202-0.839c-1.869-1.267-2.338,2.425-4.018,0.698c-0.601-0.552-0.628,1.322-1.028,1.821
		c0.374-3.128,0.468-6.867,0.188-10.23c2.699,0.436,5.815,1.171,8.548,1.495c-2.432-1.265-6.231-1.92-8.735-2.708
		c-0.234-0.609,0.374-1.443,0.757-1.344c6.117,1.028,12.086,2.651,17.928,4.242c0.721,0.246,1.21-1.002,0.298-1.344
		c-0.279-0.1-14.499-3.842-21.178-5.895h1.541c6.393,1.423,13.992,3.48,19.795,5.156c3.882,1.118,16.079,5.422,22.681,7.764
		c1.169,0.414,18.009,6.551,24.785,10.104h-0.7c-9.713-4.388-19.895-8.125-29.754-11.77c-0.186-0.047-0.375,0.053-0.326,0.189
		c0.281,0.509,1.075,0.651,1.682,0.834v0.332c-1.541-0.562-3.099-0.888-4.594-1.68l0.204-0.332
		c-3.89-1.538-7.887-2.761-11.859-4.059c-0.843-0.283-1.458,0.831-0.411,1.308c0.285,0.132,11.781,4.001,17.088,5.832
		c7.034,2.425,23.171,8.726,29.327,12.053c0.047,0.332-0.045,0.611-0.33,0.842c-3.909-0.506-6.209-2.122-8.988-3.617
		c-4.404-2.362-11.428-4.93-16.746-6.331l-0.514,0.513c0.607,3.177,0.933,6.729,1.026,9.9c0.888-3.317,0.514-5.926,0-9.243
		c2.666,0.745,5.421,1.395,7.893,2.702c1.356,3.27,5.661,3.307,8.602,4.521l-0.006,0.199c-3.177-0.137-7.316,1.118-8.266,4.205
		c-0.46,1.627-0.77,3.034-2.032,4.146c-0.15,0.133-0.137,0.206,0.09,0.159c0.978-0.206,2.415-0.011,2.643-1.454
		c0.322-2.012,1.165-4.627,3.503-5.559c2.944-0.931,5.917-0.326,8.595-0.652l0.65,0.652c5.75,2.335,11.68,2.618,16.493,7.053
		c-0.228,1.418-0.413,5.492,1.165,6.584h0.845c0.23,0.751,0.699,1.181,1.587,1.417c0.7,0.159,1.018-0.576,1.352-1.175
		c0.094-0.159,0.33-0.346,0.249,0.11c-0.088,0.488-0.273,0.935-0.613,1.37c1.471,0.026,1.486-2.745,1.486-2.745
		c1.773,1.165,3.558,2.413,5.187,4.199c0.654-0.279,0.244-0.852-0.081-1.229c-1.636-1.68-3.423-3.675-5.478-4.793v-0.379
		c2.521,1.03,5.803,4.006,6.072,5.235c0.325,1.494-0.326,2.938-1.028,4.205C307.314,199.967,297.974,197.353,288.91,197.069z
		 M305.714,199.784c-3.554-0.017-15.257-0.446-17.641-1.36c2.474-1.024,14.714,0.792,17.665,1.254
		C306.149,199.741,305.986,199.784,305.714,199.784z M229.028,168.154c-0.173-0.497,1.373-0.849,1.869,0
		c0.392,0.648,0.898,0.621,1.683,0.658c-0.987,0.293-1.428,2.615-3.22,2.383c-0.659-0.703-1.263-1.212-2.34-0.839
		C227.349,169.278,229.263,169.793,229.028,168.154z M232.721,169.84c0.134,0.23-0.058,0.253-0.289,0.336
		c-0.399,0.136-1.167,1.15-1.067,2l-1.818,0.509c-0.259,0.116-2.188-1.375-1.869-2.005c0.745,0.515,1.684,1.729,2.845,0.983
		C231.599,171.101,231.845,169.205,232.721,169.84z M226.51,168.995c0,0,0.599-0.829,1.352,0H226.51z M284.336,178.25
		c-1.704-0.556-5.188-1.218-7.381-2.851c1.912,0.326,4.111,1.164,6.074,2.006L284.336,178.25z"/>
	<path d="M44.572,174.365c0.467,2.621,2.849,5.329,5.372,5.702v-0.469C47.514,178.712,45.647,176.706,44.572,174.365z"/>
	<path d="M50.114,167.179c0.139-0.529-0.662-0.762-0.705-0.1C49.361,167.84,49.946,167.83,50.114,167.179z"/>
	<path d="M64.084,199.195c0.674-0.415,0.243-0.709-0.371-0.426C63.145,199.032,63.576,199.505,64.084,199.195z"/>
	<path d="M103.415,188.134c0.279-0.051,0.355,0.358,0.228,0.788c-0.327,1.728-1.089,3.67-1.656,5.603l0.6,0.026
		c0.752-2.358,1.216-4.254,2.008-6.4c0.747-0.094,1.45,0.094,2.009,0.509c-0.187,3.134-2.195,5.938-2.195,8.736
		c0.73-1.051,4.65-3.43,6.133-3.976c5.263-1.946,11.216-1.903,17.08-1.721c1.171-1.307,3.27-0.278,4.719-0.841
		c-1.165-1.4-3.457-0.702-4.859-1.867c0.798-1.356,2.804-0.189,4.208-0.332l-0.145-0.452c1.066-0.755,2.478-0.665,3.646-0.712
		l0.383,0.413l-1.223,0.94c1.304-0.419,2.895-0.604,4.202-0.515c0.234,0.421-0.373,0.515-0.325,0.841
		c0.651,0.562,1.496-0.604,2.52-0.326c-0.074,0.902,0.307,1.171,0.855,1.224c0.785,0.084,4.026,0.613,4.714,0.604
		c0.383-0.004,0.722-0.137,0.968-0.52h-1.68c-0.792-1.261-1.916-0.279-2.989-0.841c0-0.656,0.409-0.473,0.981-0.467l17.519,0.846
		c0.464-0.047,0.932-0.52,0.979-1.035c-1.142-2.571-1.107-6.288-3.961-7.433c-0.406-0.162-7.903-2.374-10.848-1.486l1.216,0.842
		c-0.187,0.419-0.651,0.229-0.84,0.513c0.701,0.515,1.308-0.236,2.149,0c0.793,0.279,0,0.792,0,1.167c0,0,4.09,0.723,5.224,1.111
		c1.063,0.369,1.958,0.941,2.344,2.109c-0.795,0.941-1.987,1.587-2.99,1.497c-7.472-0.676-14.688-1.201-21.957-1.548
		c-5.183-0.242-19.86-0.468-21.97-0.488c-2.84-0.037-5.651,0.216-8.062,2.036c1.729,0,3.364-0.651,4.904-0.651
		c-2.988,2.427-7.287,0.841-10.93,2.006C98.429,188.477,101.033,188.229,103.415,188.134z M160.086,188.659l-2.194-0.183
		c-0.095-0.232,0.11-0.369,0.326-0.469c0.692-0.051,1.354-0.047,1.869,0.326V188.659z M152.005,181.284
		c2.663-0.283,5.278,0.888,7.241,2.336v0.325l-0.306-0.146c-0.258-0.096-0.129,0.582,0.023,0.715l0.937,0.597h-2.008
		c0.564-0.373,0.69-1.081,0.187-1.49C155.744,181.977,153.685,182.498,152.005,181.284z M155.566,187.884
		c1.37,0.1,2.651-2.861,4.706-2.069v0.514c-0.792-0.047-1.682-0.047-2.055,0.651c0.701,0.047,1.541-0.326,2.197,0.326
		c-0.935,0.472-3.177-0.373-3.365,1.354c-5.418-0.183-10.602-0.975-15.647-0.651l0.373-0.702c-1.452-0.456-2.979,0.818-4.383,0.199
		c-0.173-0.083-1.69-0.525-1.69-0.525C142.662,186.607,148.563,187.321,155.566,187.884z M108.471,192.355
		c-0.174-0.216-0.297-0.636-0.131-0.929c0.549-0.631,1.485-0.053,1.485-0.053L108.471,192.355z M116.984,186.051
		c1.662-0.21,13.809-0.163,18.392,0.745c-6.308,0.557-14.985,0.809-18.355,0.184c2.362-0.326,4.977-0.047,7.375-0.22
		c0.346-0.021,0-0.143,0-0.143l-7.425-0.251C116.971,186.366,116.612,186.077,116.984,186.051z M115.338,186.141l-1.496,0.33
		C114.03,185.861,114.92,185.878,115.338,186.141z M107.771,188.849c6.072-0.372,12.238-0.888,18.356-0.698l-0.005,0.745
		c0,0-14.75,0.432-17.487,0.756c-0.841,1.03-1.285,3.869-2.545,4.241C106.836,192.256,107.303,190.529,107.771,188.849z"/>
	<path d="M101.23,201.789c2.384-1.449,5.186-1.963,8.081-2.194C107.508,199.105,101.682,199.931,101.23,201.789z"/>
	<path d="M105.763,189.175c-0.187-0.279-0.516-0.373-0.842-0.326c-0.466,1.075-0.137,2.452-0.654,3.507h0.516
		C105.295,191.231,105.015,190.203,105.763,189.175z"/>
	<path d="M105.763,146.622c-0.532,0.051-1.309,0.796-1.169,1.495C105.295,148.07,105.715,147.278,105.763,146.622z"/>
	<path d="M136.73,183.945c2.945,0.279,5.885,0.279,8.408-0.143c-9.203-0.466-19.151-1.164-28.258-1.354l-0.326,0.325
		c-2.394-0.063-7.103-0.562-10.464,0.332C116.599,183.153,126.407,182.917,136.73,183.945z"/>
	<path d="M107.539,145.492c8.737-4.751,20-4.184,30.359-3.916l0.108-0.441c-10.557-1.176-23.534-1.37-30.657,4.22
		C107.043,145.598,107.176,145.688,107.539,145.492z"/>
	<path d="M140.235,140.741h-0.326c-0.331,0.137-0.89,0.509-0.659,1.024C139.723,141.766,140.235,141.25,140.235,140.741z"/>
	<path d="M142.13,141.608c6.953,0.85,20.452,2.367,21.565,2.463c0.931,0.077,1.821,0.004,2.603-0.485
		c-7.023-0.576-16.546-2.346-24.097-2.703C141.211,140.836,141.033,141.472,142.13,141.608z"/>
	<path d="M145.138,161.241c-0.163,0.059-0.231,0.189-0.186,0.332h0.514C145.466,161.573,145.403,161.094,145.138,161.241z"/>
	<path d="M154.53,186.141c0.745-0.143,1.632-0.326,2.005-1.03c-3.129-0.745-6.677-0.839-9.901-0.981
		c2.615,0.704,5.837,0.608,8.082,1.354l-0.329,0.332C154.343,185.951,154.435,186.045,154.53,186.141z"/>
	<path d="M147.285,159.235c0.286-0.572-0.082-0.723-0.325-0.649c-0.279,0.183-0.373,0.462-0.326,0.835L147.285,159.235z"/>
	<path d="M152.778,155.535c-0.968-0.026-1.635,0.955-0.336,1.38C153.404,157.225,153.918,155.572,152.778,155.535z"/>
	<path d="M159.118,207.778c2.071,0.169,3.977,0.242,6.131,0.047c0.305,0,0.378,0.253,0.394,0.499l1.357-1.491
		c-2.355,0.557-5.454,0.846-7.909,0.855C158.668,207.694,158.713,207.748,159.118,207.778z"/>
	<path d="M161.253,165.778c0.15,0.666,0.83,0.393,0.649-0.222C161.714,164.933,161.015,165.157,161.253,165.778z"/>
	<path d="M165.726,199.006c0.516-0.493,0.331-0.949-0.364-0.499C164.737,198.918,165.134,199.574,165.726,199.006z"/>
	<path d="M173.023,169.325c-2.801-0.56-4.95-0.283-7.565-0.839v0.326c2.333,0.886,5.006,0.184,7.342,1.028
		C173.205,169.94,173.509,169.457,173.023,169.325z"/>
	<path d="M166.485,186.141c-0.28,0.141-0.139,0.467-0.187,0.655h0.512C166.719,186.561,166.671,186.328,166.485,186.141z"/>
	<path d="M169.662,210.193c-0.095,0.473,0.138,1.077,0.7,0.981C170.315,210.762,170.125,210.287,169.662,210.193z"/>
	<path d="M175.131,150.858c-0.43,0.004-0.561,0.204,0.026,0.383c0.771,0.236,2.314,0.319,3.097,0.615
		C177.663,150.149,176.392,150.825,175.131,150.858z"/>
	<path d="M176.572,188.991h2.011c0.84,1.212-2.056,1.538-1.496,3.222c0.608,1.403,2.429,1.261,3.691,0.983
		c0.188,1.82,1.776,2.938,3.038,4.057c0.277,0.798,0.884,2.105,0.139,2.667c-1.4-0.189-2.663-0.792-3.689-2.01
		c-0.518-0.604-0.609-1.865-1.495-1.865c-0.798,2.102,0.797,4.458,2.148,6.258c2.755,3.718,7.834,3.696,10.786,1.344
		c-0.301,1.413,0.287,1.503,1.358,1.503c0.467-0.049,0.935-0.509,0.979-1.024c0-1.028-1.197-0.914-1.82-0.845
		c1.462-1.79,4.828-7.954,3.828-10.41l-0.837,0.65c-0.189,1.203-1.216,2.71-1.684,3.549l1.684-1.49
		c0.096,0.278,0.096,0.556,0.043,0.845c-0.867,4.614-8.187,11.587-13.826,5.691c-0.217-0.222-0.232-0.562,0-0.651
		c4.294,2.861,9.114,0.546,9.617-4.152c0.075-0.715,0.118-1.423,0.804-1.732v1.816c2.1-1.302,2.615-3.586,3.222-5.696
		c0,0,0.978,0,1.353-0.188c1.727,1.869,0.28,3.832,0,5.885l0.655,0.189l-0.655,2.661c1.541-3.034,2.374-6.993,2.337-10.09
		c-0.802-0.362-1.006,0.353-1.438,0.861c-0.12,0.146-1.01,0.004-0.899-0.346c0.236-0.936,0.61-1.681,1.822-1.356l-0.613-0.546
		l0.941-0.949c-0.047-0.09-0.139-0.186-0.328-0.186c-1.525-0.057-1.729-0.712-2.01-2.01l-0.326,1.171
		c-0.464-0.515-1.649-1.37-1.355-2.146c0.374-1.124,1.055-0.163,1.682-0.521c-0.375-1.867-0.465-3.779-1.867-5.228
		c0.045,1.354,1.307,2.146,0.843,3.69c-0.391,0.901-1.448,0.183-2.15,1.028c-0.572-0.457-1.447-1.312-1.684-2.336
		c-0.232-1.055-2.236-3.464-3.226-2.059c-0.229,0.269-0.432,0.751-0.886,0.82c-0.373,0.063-2.687,0.257-3.826,1.238
		c-0.424-0.563-0.844-0.143-1.308,0c-0.139-0.189-0.212-0.446-0.375-0.516c-0.749-0.236-1.541-0.329-2.15-0.187
		c0.814-3.15,6.802-7.016,10.418-3.177c0.411,0.415,0.888,1.543,1.165,2.192c0.188-1.631-1.059-3.018-2.334-3.873
		c0.411-0.306,0.854-0.243,1.306-0.069c0.515,0.206,2.25,1.104,3.226,1.75v-0.516c-6.005-6.005-15.055,0.568-14.798,5.339
		c0.041,0.799,0.34,1.574,1.018,2.043l0.469-0.469c0.841,0.888,0.655,2.195,0.188,3.366c-0.609,0-0.843-1.077-1.495-0.516
		c-0.421,0.363,0.422,0.842,0.326,1.354c-0.981,0.469-2.196-0.156-3.128-0.203l-0.053,2.005c0.223,6.315,1.407,11.444,5.245,14.52
		c0.438,0.358,0.912,0.595,1.438,0.635C177.558,201.181,176.294,194.645,176.572,188.991z M192.613,203.789
		c0.652-0.582,1.375,0.525,0.647,0.814C192.268,205.007,191.93,204.398,192.613,203.789z M184.281,196.23
		c-1.263-0.137-2.195-1.539-2.521-2.71c1.353,0.278,2.334-0.277,3.222-1.165c0.375,0.326-1.026,1.727-1.026,2.006l0.188,0.189
		l1.354-1.03C185.497,194.361,184.749,195.343,184.281,196.23z M183.902,201.458c-0.332-0.236-0.413-0.64,0.053-1.354
		c0.698-0.184,0.773,0.572,1.287,0.805c2.057-1.077,3.01-2.531,5.113-3.839C190.851,198.371,187.055,203.669,183.902,201.458z
		 M189.701,196.555c0.326-0.976,1.165-2.004,2.004-2.525C192.06,195.359,189.701,196.555,189.701,196.555z M193.281,195.29
		c-0.379,0.541-0.749,0.567-0.58-0.063c0.201-0.739-0.096-1.647,0.336-2.162c0.139-0.163,1.002-0.673,1.002-0.673
		C193.827,193.233,193.819,194.528,193.281,195.29z M193.717,183.62c0.281,0.183,0.271,0.482,0.322,0.761l-0.204,0.23l-0.558-0.556
		C193.416,183.866,193.485,183.709,193.717,183.62z M189.103,180.569c0.163-0.523,0.566-0.646,1.073-0.03
		c0.829,0.965,1.094,2.146,1.529,3.264h-2.517C189.27,182.738,188.744,181.726,189.103,180.569z M187.505,180.769
		c0.14,0.563,0.173,1.407,0.981,1.493c-0.047,0.33-0.658,0.396-0.988,0.45c-0.374,0.608,0.054,1.28-0.319,1.938
		c-0.609-0.988-1.497-2.152-2.197-3.224C185.269,181.091,186.523,180.675,187.505,180.769z M182.972,188.659l2.525,0.516
		c0.28-0.604,0-1.68,0.979-1.68c-1.356-1.544-2.615-3.177-4.342-4.531l-0.375,0.326c0.094,0.513,0.933,0.745,0.839,1.36
		c-0.417-0.285-1.865-0.054-1.68-1.22c-0.841-0.141-1.541-1.169-0.981-2.004c2.708-0.473,4.997,1.308,6.4,3.547
		c0.094,0.651,0.37,1.308,0.841,1.822c0.606-0.235,0.043-0.944,0.326-1.313c1.845-1.993,5.654-0.596,7.082,1.157
		c2.509,3.081-0.518,5.074-4.046,6.881c-1.167,2.337-3.128,4.437-5.044,6.257c-2.104-2.472,0.886-4.761,1.496-7.096h0.326
		c-0.094,1.773-1.727,3.176-1.822,4.714c1.211-1.214,2.241-2.751,2.849-4.342l-1.353-1.68c0.933,0.047,1.589,1.261,2.52,0.839
		c-0.605-0.702-1.261-1.779-2.008-2.383c-2.756,0.888-5.185,0.981-7.896,1.869h4.859c-1.823,1.634-5.185,0.467-6.727,0.326
		C178.677,189.973,180.966,189.269,182.972,188.659z M184.794,187.82c-1.071-0.421-2.798,0.935-3.502-0.515
		c-0.103-0.289,0.04-1.617,0.529-1.764c0.114-0.032,1.358,0.439,1.49,0.855c0.133,0.398-0.672,0.562-1.038,0.771
		C182.927,187.867,184.189,187.122,184.794,187.82z"/>
	<path d="M182.974,175.11c3.513-1.926,6.097-1.669,8.426-0.635l0.306-0.945c0,0-4.512-2.22-8.927,0.782
		c-3.621,2.426-6.19,7.402-6.718,12.342h0.326C176.748,182.791,179.83,176.843,182.974,175.11z"/>
	<path d="M179.423,152.694c0.468,0.705,0.749,1.497,0.843,2.336c-0.904,1.097-1.82,0.096-2.847,0.515
		c0.016,0.356,2.83,0.861,3.5,0.143C180.778,154.517,179.943,152.937,179.423,152.694z"/>
	<path d="M178.254,194.219c-0.31,0.073-0.371,0.515-0.324,0.841l0.841-0.186C178.864,194.361,178.604,194.192,178.254,194.219z"/>
	<path d="M180.93,160.212c-0.396,0.536,0.061,0.772,0.46,0.273C181.72,160.066,181.255,159.777,180.93,160.212z"/>
	<path d="M185.12,162.927c-1.397-2.195-2.612-4.388-3.689-6.73C181.617,158.081,183.874,161.882,185.12,162.927z"/>
	<path d="M183.442,205.479c1.751,2.993,7,2.289,6.913,1.024C190.355,206.504,186.965,207.978,183.442,205.479z"/>
	<path d="M185.014,160.076h0.623v-0.332l-0.647-0.021C184.989,159.856,184.994,159.956,185.014,160.076z"/>
	<path d="M191.192,189.83c-0.326,0.516-1.214,0.792-1.022,1.544c1.657,0.914,4.896-1.145,4.387-2.383
		c-1.071,0.373-2.566-0.794-3.552,0.324c-0.649-0.141-1.226,0.012-2.004-0.467l-2.851,0.143l0.326,0.184
		C188.016,189.552,189.808,189.4,191.192,189.83z M193.904,189.694c-0.464,0.928-2.883,1.81-2.712,0.978
		C191.429,189.694,192.617,189.248,193.904,189.694z"/>
	<path d="M187.505,187.635h-0.701c-0.169,0.043-0.421,0.279-0.327,0.516C186.712,188.692,187.505,188.15,187.505,187.635z"/>
	<path d="M191.522,207.159c0.28-0.283,0.95-0.615,0.766-1.081c0,0-0.968-0.342-0.861-0.762
		C190.487,205.821,191.273,206.939,191.522,207.159z"/>
	<rect x="192.363" y="174.365" width="0.511" height="0.332"/>
	<path d="M194.202,178.539c0.396-0.389,0.162-0.805-0.332-0.535C193.221,178.344,193.717,179.016,194.202,178.539z"/>
	<path d="M204.974,207.675c-0.466-0.232-0.419,0.199-0.513,0.513l0.513,0.137V207.675z"/>
	<path d="M207.682,192.355c0.013-0.242-0.187-0.189-0.325-0.143c-0.094,0.079-0.098,0.272-0.116,0.432l0.441,0.037V192.355z"/>
	<path d="M207.682,191.699c0.469-0.515,0.191-1.26-0.187-1.543C207.088,190.618,207.169,191.746,207.682,191.699z"/>
	<path d="M208.664,210.525h0.702c0,1.574,2.107,3.095,3.034,2.336c-1.704-0.595-2.464-1.649-2.539-2.685
		c-0.243-3.396,2.37-4.703,5.716-3.673C212.769,203.695,208.576,206.277,208.664,210.525z"/>
	<path d="M227.861,175.861c-5.465-2.099-12.816-3.59-17.98-4.199c6.35,1.727,11.675,2.482,17.98,4.901V175.861z"/>
	<path d="M219.554,152.89c1.833-1.54,3.177-4.378,2.236-6.081c-0.092,0.841-0.234,2.095-0.84,2.338
		c-0.472-1.356-1.853-1.303-3.038-1.031c0.281-0.975,1.287-1.617,2.024-1.794l0.171,0.819h0.328c0.323-0.283,0.981-0.894,0.702-1.36
		c-2.836-0.256-6.341,2.678-4.984,7.156C216.471,153.985,218.707,153.586,219.554,152.89z M217.509,149.933
		c0.347-0.572,0.697-1.065,1.43-1.301c0.656-0.142,1.354,0.236,1.354,0.839c0.022,0.957-0.043,2.101-1.165,2.525
		C217.022,152.48,217.045,150.701,217.509,149.933z"/>
	<path d="M216.092,206.833v0.326h0.514l-0.013-0.346C216.463,206.813,216.23,206.833,216.092,206.833z"/>
	<path d="M219.049,210.362l2.415-2.364l-0.188-0.184c-1.494,1.407-3.551,2.332-4.671,3.876l0.651,0.513
		c0.281-0.141,0.143-0.466,0.188-0.655c0.032-0.377,0.562-0.929,1.169-0.699c0.419,0.326,0.663,0.726,0.653,1.171
		c-0.092,0.699-0.886,0.652-1.354,0.842l1.683,0.839v-1.165c0.841-1.077,2.195,0.137,3.034-0.662
		C221.651,211.317,219.379,212.229,219.049,210.362z"/>
	<path d="M221.79,144.942h-0.326c-0.094,0.094-0.188,0.188-0.188,0.324h0.514V144.942z"/>
	<path d="M221.977,196.418c0.341,2.284,0.444,5.275,0.981,7.382l0.186-0.189c-0.372-2.326-0.163-5.164-1.004-7.313L221.977,196.418z
		"/>
	<path d="M223.842,213.533c0.172,0.02,0.401-0.106,0.469-0.3h-0.651C223.659,213.233,223.772,213.526,223.842,213.533z"/>
	<polygon points="229.546,168.296 229.214,169.138 230.057,168.812 	"/>
	<path d="M229.687,170.492c0.415,0.513,0.696-0.326,1.026-0.509l-0.191-0.143C230.122,170.093,229.499,169.793,229.687,170.492z"/>
	<path d="M273.516,154.827c-4.59-3.502-17.239-9.764-27.376-11.523c-2.342-0.415-7.18-1.039-9.744,0.731
		c-2.014,1.391-4.738,5.113-5.874,7.306c2.431,0.609,5.427,1.574,7.204,1.949l-0.477-0.595c-0.232-0.214,0.049-0.649,0.375-0.839
		c0.419-0.183,0.513,0.33,0.841,0.466c-0.186-2.073-0.234-4.625-0.516-6.866c-0.047-0.299,0.281-0.326,0.516-0.326
		c0.89,2.71,0.89,5.791,1.308,8.735c5.251,1.124,20.837,6.966,21.159,7.119c0.517,0.236,0.937,0.403,0.888-0.069
		c-0.281-3.271-2.755-11.071-2.755-11.071c-6.775-3.034-14.434-5.091-22.142-5.417c2.961-2.437,14.64,0.729,18.486,2.036
		c14.98,5.109,27.151,15.382,28.598,21.367c-5.044-7.754-12.518-13.124-20.506-16.49c-0.813-0.31-2.717-1.297-2.334,0
		c0.886,3.643,1.401,7.475,3.175,10.746c5.794,2.148,11.927,4.537,17.657,7.239l0.884,0.385c0.513-0.279,1.873-1.224,1.967-1.739
		C282.438,162.332,278.35,158.333,273.516,154.827z M240.287,152.511c0.7-0.236,1.238,0.625,1.353,0.839
		C241.269,153.35,240.006,153.489,240.287,152.511z M241.64,151.483l-0.324,0.839c-0.702-0.466-1.447-0.886-1.543-1.82
		c-0.045-0.226-0.067-0.935,0.185-0.705C240.613,150.223,241.92,150.778,241.64,151.483z M243.651,154.191
		c-0.933-0.525-1.479-2.173-0.33-2.604c1.682-0.629,8.65-0.766,13.269,0.599v0.326c-4.391,0.23-9.058-1.124-12.751,0.326
		c-0.471,0.326,0.138,0.699,0.138,1.028L243.651,154.191z M258.646,158.911l-1.544-0.515h1.544V158.911z M258.785,157.74
		c-4.484-0.185-9.296-2.148-13.595-3.223c-1.214-1.354,0.672-1.507,1.495-1.497c3.643,0.142,7.52,0.283,11.257,1.171
		C258.354,155.242,258.732,156.459,258.785,157.74z M257.103,151.151c-0.981,0.096-2.569-0.556-2.663-2.003
		C255.653,149.098,256.539,150.453,257.103,151.151z M253.083,148.821l1.356,1.68c-0.544,0.026-2.143,0.33-2.897-1.167
		C252.057,149.194,252.855,149.514,253.083,148.821z M248.883,147.142l2.519,3.034c-2.704,1.061-3.971-3.02-5.742-3.739
		C246.494,146.044,248.469,146.752,248.883,147.142z M244.49,147.977v-1.354c1.077,1.354,2.567,1.914,3.364,3.554
		c-0.797,0.277-1.961,0.089-2.664,0.136l-2.195-2.195L244.49,147.977z M244.164,150.501c-1.822,1.543-3.177-1.261-4.532-2.012
		c-0.082-0.776-0.133-1.385-0.186-2.053C241.081,147.142,242.946,148.962,244.164,150.501z M237.11,145.598
		c0.469,1.59,0.469,3.596,0.656,5.417c-1.295,1.59-3.637,0.545-5.438,0.096c-0.747-0.179-0.946-0.379-0.492-0.994
		C233.215,148.227,234.793,146.034,237.11,145.598z M266.537,154.191c-1.036-0.063-2.8-0.189-4.063-0.656
		C263.782,152.974,265.276,153.725,266.537,154.191z M262.846,154.847c4.626,0.652,9.951,0.841,13.081,5.419
		c-4.158-1.354-8.035-1.218-12.426-2.199C263.273,157.168,263.065,156.028,262.846,154.847z M276.439,161.241
		c-0.328,0.332-0.904,0.236-1.354,0.189l-0.139-0.515C275.271,160.591,275.927,161.147,276.439,161.241z M274.104,160.591
		c-0.824,0-2.052,1.028-2.192-0.326C272.377,160.123,273.786,160.313,274.104,160.591z M264.156,159.561v-0.326
		c2.289-0.047,5.396,0.595,7.097,0.841c-2.053,1.354-2.942-0.935-5.231,0.189C265.558,160.029,265,159.284,264.156,159.561z
		 M279.804,167.315c-3.584-1.38-14.734-5.685-14.734-5.685c0.374-0.609,1.653-0.572,2.309-0.898l0.141,0.183
		c-0.186,0.279-0.606,0.515-0.653,0.845c1.307,0.136,2.476-0.939,4.016-0.656l-0.978,1.165c1.212,0.096,2.519-1.211,4.016-0.509
		l-1.356,1.167c1.401,0.23,2.757-1.167,4.207-0.658l-1.312,1.686c1.169,0.279,1.916-1.543,3.364-1.171
		c0.188,0.143,0.464,0.31,0.655,0.468c-0.096,0.792-1.637,0.982-1.355,1.868l2.007-1.165c0.375,0.373,1.031,0.841,0.514,1.354
		l-1.353,1.167c0.839,1.118,1.214-0.794,2.053-0.698c0.33,0.324,0.794,0.839,0.844,1.354
		C281.718,167.332,281.592,168.04,279.804,167.315z M282.654,168.669h-0.981c0.249-0.273,0.558-0.466,0.981-0.373V168.669z"/>
	<path d="M231.038,213.56h0.842l-0.328-0.326C231.364,213.023,231.087,213.374,231.038,213.56z"/>
	<path d="M236.781,161.53c9.554,2.462,18.566,5.203,27.746,8.826l1.494,0.136c-9.493-4.478-21-7.438-29.232-9.078
		C236.231,161.3,236.223,161.387,236.781,161.53z"/>
	<path d="M250.397,213.124l-0.674-0.405c-0.469,0.143-0.607,0.325-0.516,0.841l9.438,0.323c0.188,0.189,0.188,0.705,0.651,0.516
		c0.232-0.09,0.173-0.582,0.173-0.771C256.712,213.207,253.525,213.028,250.397,213.124z"/>
	<path d="M284.094,214.288c-4.164-1.197-13.678-0.389-13.967-0.535c-0.595-0.3-1.1-0.556-1.254,0.462
		c5.32,0.047,10.272,0.131,15.203,0.178C284.285,214.393,284.308,214.319,284.094,214.288z"/>
	<path d="M277.315,198.696c0.503,0.09,0.593-0.918-0.133-0.702C276.92,198.184,277.026,198.644,277.315,198.696z"/>
	<path d="M304.701,187.82l-5.231-2.521c-3.787-1.597-11.68-4.718-18.31-3.69c-3.741,0.699-3.882,5.49-1.497,4.342
		c0.841-0.469,2.385-1.443,2.01-2.521c-0.466,0.362-0.835,0.894-1.276,1.233c-1.477,1.15-1.833-0.492-0.193-1.7
		c0.781-0.578,1.646-1.15,2.631-1.028c2.984,0.377,20.85,3.47,22.053,9.249C305.025,190.156,304.561,188.659,304.701,187.82z"/>
	<path d="M285.362,215.569l0.652-0.516l-0.326-0.655C285.176,214.817,285.343,215.05,285.362,215.569z"/>
	<path d="M310.775,205.994c1.197,0.487,5.738,1.022,7.05-0.704c-1.837-1.694-5.637-1.554-6.817-0.446
		C310.755,205.08,310.629,205.433,310.775,205.994z M316.471,205.479c-0.653,0.515-1.729,0.047-2.333,0.651
		c-0.377-0.888-1.589-0.422-1.685-1.167C313.761,204.641,315.445,204.823,316.471,205.479z"/>
	<path d="M94.766,193.174l-0.006-0.01c-0.498,1.297-0.908,2.588-1.234,3.999c-0.036,0.152-0.064,0.3-0.091,0.452
		c0.959,0.01,1.907-0.141,2.84-0.34c0.094-1.407,0.163-2.814,0.093-4.228C95.833,193.08,95.286,192.99,94.766,193.174z"/>
	<path d="M101.563,189.937c0,0-14.945,1.228-22.328,1.747l-2.601,0.1c0,0-3.29,8.793-3.99,12.857c0,0,6.246,0.214,8.67-0.223
		c0.953-0.167,16.437-0.665,16.437-0.665S100.773,193.138,101.563,189.937z M78.027,202.036c0.03-0.073,0.934-3.89,0.571-6.147
		c-1.191,1.48-2.55,2.967-3,4.813c-0.09,0.546-0.172,1.092-0.223,1.649l-0.583-0.053c0.026-0.296,0.174-1.676,0.29-2.059
		c0.417-2.319,1.093-4.594,1.455-6.934l0.584,0.063c-0.252,1.638-0.661,3.248-1.027,4.865c0.806-1.232,1.633-2.336,2.614-3.385
		l0.53,0.024c0.024,1.629,0.119,3.597-0.094,5.209c0.595-0.892,1.337-1.696,1.929-2.651c0.809-1.307,0.633-2.768,0.62-4.188h0.585
		c0.023,1.501,0.157,3.038-0.665,4.425c-0.829,1.397-2.604,3.77-3.021,4.524C78.403,202.172,78.25,202.126,78.027,202.036z
		 M86.75,193.982c-0.917,1.323-1.261,2.751-1.533,4.185c0.42-0.043,0.844-0.069,1.271-0.057l0.013,0.582
		c-0.469-0.017-0.933,0.021-1.395,0.077c-0.175,0.961-0.348,1.923-0.673,2.851l-0.566-0.162c0.295-0.85,0.471-1.728,0.635-2.603
		c-0.703,0.109-1.402,0.256-2.104,0.372c-0.276,0.792-0.584,1.58-0.989,2.319l-0.542-0.209c1.521-2.831,1.728-6.305,3.844-8.799
		l0.39,0.436c-1.316,1.644-1.852,3.659-2.493,5.622c0.669-0.12,1.335-0.251,2.008-0.351c0.291-1.556,0.627-3.109,1.617-4.547
		c0.128-0.184,0.262-0.326,0.413-0.473l0.414,0.416C86.949,193.752,86.84,193.853,86.75,193.982z M90.758,200.918
		c-0.814,0.556-1.845,0.803-2.773,0.582c-0.685-0.156-0.799-0.305-0.789-1.301c0.013-1.276,0.022-2.578,0.539-3.766
		c0.528-1.207,1.423-2.188,2.432-3.023l0.377,0.442c-0.93,0.798-1.799,1.706-2.298,2.854c-0.452,1.04-0.405,2.179-0.464,3.293
		c-0.054,0.981,0.336,1.008,1.09,0.971c0.578-0.032,1.148-0.163,1.571-0.568c1.825-1.71,1.604-4.587,0.827-6.776
		c-0.153-0.43-0.517-0.865-1.045-0.871l0.091-0.579c0.735,0.054,1.277,0.636,1.526,1.267c0.535,1.354,0.637,2.818,0.449,4.289
		C92.139,198.929,91.834,200.177,90.758,200.918z M96.79,202.036c-0.166,0.063-0.75,0.293-0.748,0.083
		c0.016-1.417,0.096-2.828,0.194-4.241c-0.953,0.199-1.914,0.346-2.894,0.326c-0.118,0.865-0.401,2.834-0.433,2.954
		c-0.137-0.026-0.365-0.073-0.559-0.167c0.33-1.303,0.319-2.594,0.609-3.969c0.347-1.649,0.833-3.023,1.411-4.478
		c0,0,2.228-0.1,2.632-0.026L96.79,202.036z"/>
</g>
</svg>
