<?xml version="1.0" encoding="utf-8"?>
<!-- Generator: Adobe Illustrator 16.0.0, SVG Export Plug-In . SVG Version: 6.00 Build 0)  -->
<!DOCTYPE svg PUBLIC "-//W3C//DTD SVG 1.1//EN" "http://www.w3.org/Graphics/SVG/1.1/DTD/svg11.dtd">
<svg version="1.1" id="Layer_1" xmlns="http://www.w3.org/2000/svg" xmlns:xlink="http://www.w3.org/1999/xlink" x="0px" y="0px"
	 width="350px" height="350px" viewBox="0 0 350 350" enable-background="new 0 0 350 350" xml:space="preserve">
<g>
	<path d="M323.615,173.649c-0.419-1.456-1.584-2.231-2.908-2.814c-0.192-0.71-0.067-1.293-0.096-1.973
		c1.646-2.65,2.293-6.499,0.807-9.537c-0.581-1.293-2.942-1.392-2.683-3.266c-0.227-0.873-1.166-1.521-1.972-1.747
		c-5.884-1.454-20.964-4.125-22.539-4.247c-2.373-0.183-4.718-0.446-6.464-2.155c-0.744-0.356-2.039-0.711-1.973-1.841
		c-0.192-1.197-1.583-1.358-2.423-1.423c-0.973-1.908-2.298-3.655-3.268-5.562c-0.451-3.718-0.548-8.826-4.074-11.638
		c-6.106-8.698-15.489-11.997-24.572-14.809c-10.536-2.432-21.155-3.666-31.939-4.554c-0.827-0.069-3.075,0.059-3.204,0.027
		c-9.117-0.484-19.304-0.453-28.743-0.13c-12.412,1.003-23.699,1.003-35.047,4.204c-0.906,2.23-3.262,1.002-4.655,2.327
		c-0.42,0.55-0.42,1.423,0,1.972c-8.148,8.601-15.487,18.722-22.796,27.934c-3.394,0.809-7.855,0.938-11.411,2.33
		c-6.012,0.355-12.643,0.226-18.623,0.581c-5.432,0.226-10.7,1.327-15.94,1.747c-1.229,0.064-2.942,0.291-4.334,0.71
		c-0.451-0.323-0.581-0.807-0.675-1.294c-4.982,0.26-10.476,0.293-15.846,1.747c-0.581-0.583-0.676-1.747-1.746-1.747
		c-1.518,0.843-3.264,1.716-4.655,3.136c-0.192-0.192-0.354-0.354-0.581-0.58c-2.102,0.549-4.107,2.002-5.336,3.848
		c-3.459,1.001-6.852,2.068-9.893,3.977c-3.919,4.445-2.415,11.331-0.259,15.227c0.873,1.646,3.751,2.585,2.683,4.883
		c-2.972,3.555-4.267,8.082-6.628,11.995c-0.547-0.228-1.228-0.099-1.616,0.355c-2.294,3.395-5.203,7.307-3.49,11.639
		c3.071,4.302,8.988,4.202,13.709,5.109c1.162,1.455,2.875,2.618,4.655,2.909c0.831,1.151,2.297,1.432,3.634,1.561
		c0.69,0.07,2.737,0.2,3.126,0.197c0.192-0.003,0.363,0.075,0.479,0.344c1.426,6.047,4.366,11.736,8.47,16.295
		c3.785,3.46,9.314,3.849,14.097,4.43c2.448-0.058,4.947-0.517,6.987-1.294c5.397-2.166,7.819-8.019,9.89-12.803
		c21.534,2.91,44.522,4.527,65.89,1.293c1.973,5.108,4.108,10.121,7.794,14.55c3.338,4.378,8.478,5.729,13.659,6.338
		c5.144,0.607,13.772,0.799,18.932-2.489c5.24-4.722,7.471-11.673,8.828-18.27c2.424-9.924,2.198-22.954-1.164-32.364
		c0.161-0.131,0.292-0.322,0.483-0.225c1.036,2.91,2.198,5.463,2.424,8.728c0.39,3.881,0.614,7.599,0.483,11.866
		c2.232,0.713,4.465,1.779,6.406,2.911c-0.681,1.518-1.78,2.846-2.331,4.428c-0.486,0.842-0.188,2.688,1.034,2.33
		c21.566-4.463,43.423-8.989,64.502-15.036c0.614,2.49,1.358,4.754,2.553,7.114c1.541,3.406,5.207,3.395,7.794,4.072
		c4.755,0.551,10.187,0.098,12.677-4.202c0.813-0.972,3.802-9.301,3.489-17.459c2.71,0.176,8.86-3.914,12.351-7.079
		c0.259,0.03,0.615-0.1,0.81,0.095c1.747-0.938,3.264-2.393,4.559-3.719C324.229,179.921,323.712,176.461,323.615,173.649z
		 M320.352,167.118c-12.931,1.422-25.514,2.294-38.152,3.717c-1.228,0.42-3.267,0.647-4.785,0.712
		c-0.194-2.523-0.551-5.108-0.583-7.567c1.846,0.065,5.401,0.099,5.464-0.129c12.74,0.293,25.61,0.778,38.316,1.423
		C320.381,165.856,320.545,166.406,320.352,167.118z M270.203,197.379c2.007-6.693,3.527-12.739,5.009-19.657
		c0.198-3.266-1.256-6.757-4.197-8.276c-1.328-0.355-2.46-1.164-3.85-1.392c-10.541-1.099-19.304-1.713-29.779-1.616
		c-0.094-0.582-0.32-1.132-0.259-1.746c7.535-0.389,14.779-0.744,22.376-0.583c0.033,0.583-0.13,1.327,0.581,1.487
		c4.204-0.291,7.533,0.519,11.381,1.067c2.035,1.003,3.494,3.136,3.849,5.463c0.355,0.454,0.808,0.614,1.161,0.454
		c0.13,0,0.23,0,0.356,0c0.422,9.021-0.581,17.717-1.389,26.317c-1.684,0.907-3.655,1.067-5.464,1.617
		c-11.057,3.006-22.665,5.399-33.882,7.34c2.294-13.87,2.616-27.418,1.387-40.836c9.86,0.291,20.627,0.099,30.844,1.973
		c2.135,0.84,4.367,1.843,5.37,4.172c2.294,5.819-1.359,11.444-2.103,17.134c-0.422,2.393-1.392,5.14-2.197,7.664
		C269.917,198.704,269.881,197.573,270.203,197.379z M225.263,126.605c1.941-0.129,3.17-0.161,5.014-0.225
		c-0.971,4.46-4.496,15.321-4.785,13.74C225.65,135.238,225.232,131.068,225.263,126.605z M227.493,115.904
		c-3.878-0.323-7.133-0.963-11.17-1.097c-20.593-1.906-43.273-0.714-64.482,0.999c-0.614,0.454-1.876,0.583-2.585,0.324
		c0-0.096,0.062-0.161,0.125-0.226c0.777-0.13,1.875-0.13,2.331-0.453c25.087-2.263,53.378-3.33,77.625,0
		C229.758,116.809,228.106,115.774,227.493,115.904z M226.331,140.573c2.198-6.24,4.491-12.319,6.143-18.493
		c0.162-1.002-0.13-2.135-0.581-3.04c-0.519-1.228-3.363-0.712-1.973-2.651c0.261-0.228-0.033-0.615,0.228-0.841
		c2.81,0.517,5.204,0.906,8.05,1.293c-2.618,9.311-5.432,18.526-8.378,27.708c-1.323-0.68-2.683-1.195-4.073-1.648
		C225.589,142.157,225.391,140.962,226.331,140.573z M274.504,150.952c-0.711,0.127-1.207,0.009-1.972-0.129
		c-0.03-6.79,0.325-14.777-1.648-21.048c-4.106-7.08-13.094-6.919-20.014-9.441c-3.849-0.907-7.921-1.94-11.996-2.685
		c-0.129-1.164,1.101-0.226,1.651-0.354c9.212,2.425,19.011,3.815,27.448,7.824c6.5,4.042,6.112,11.671,6.658,18.138
		C274.599,145.811,274.698,148.171,274.504,150.952z M234.22,145.228c2.328-0.063,4.947,0.163,6.982,0.259
		c0.129-0.064,0.034,0.356-0.096,0.324c-2.232-0.098-4.463-0.228-6.757-0.324C234.384,145.357,234.282,145.293,234.22,145.228z
		 M234.399,141.505c-1.483-0.071-1.947-0.288,0.101-0.328c0.718-0.014,4.868-0.125,5.732-0.112c0.435,0.006,0.915,0.263,1.324,0.349
		C240.596,141.546,236.514,141.605,234.399,141.505z M233.055,140.702c1.262-4.817,3.072-9.732,4.331-14.322
		c1.488,0.225,3.299,0.096,4.757,0.128c0.226,0.064,0.028,0.291,0.226,0.355c-0.067,4.494-0.711,9.215-0.812,13.709
		C238.356,140.799,236.321,140.669,233.055,140.702z M243.657,119.396c0.261-0.355,0.591-0.131,0.812,0
		c-0.033,7.824-0.777,15.357-1.165,23.052c-0.134,1.312-0.477,1.703-0.936,2.329C242.819,136.175,243.4,127.932,243.657,119.396z
		 M249.351,141.512c6.207-0.13,13.286,0.741,19.562,1.389c0,0.226,0,0.389,0,0.583C262.704,142.836,249.254,141.996,249.351,141.512
		z M268.688,148.397c-5.662-0.614-10.734-1.617-16.526-1.875c-0.388-0.161-0.095-0.355,0-0.581c5.305,0.42,10.932,1,16.526,1.744
		C268.688,147.912,268.813,148.042,268.688,148.397z M244.114,140.573c0.52-4.851,0.484-9.15,0.84-13.968
		c8.182-0.064,13.805,0.355,21.046,0.713c3.589,4.46,2.327,9.795,2.912,14.903C260.697,141.478,251.97,140.799,244.114,140.573z
		 M243.22,144.407c0.185-0.257,0.367-0.476,0.698,0.111c0.33,0.587,1.212,1.728,1.802,2.131c0.583,0.406,0.069,0.809-0.331,1.139
		c-0.404,0.333-0.883,1.397-1.802,0.552C242.669,147.495,242.765,145.042,243.22,144.407z M243.657,150.144
		c0.746-1.003,1.843-1.973,3.044-2.685c2.294,0.355-1.166,1.003-1.521,2.102c-1.065,1.293-2.295,2.651-3.138,3.944
		c-1.713-0.29-3.202-0.42-4.783-0.71C239.359,151.792,242.368,152.794,243.657,150.144z M247.959,147.233
		c-0.485-0.324-1.129-0.647-1.743-0.355c0.225-0.551-0.518-0.486-0.585-0.808c-0.645-0.034-0.03-1.843-1.032-1.164
		c0.097-0.842-1.068-0.881-0.941-1.527c0.034-0.389,1.041-1.07,1.396-1.104c1.295-0.451-0.455,0.916,0.706,0.755
		c0.26,0.13-0.484,0.614,0.1,0.809c0.938-0.065-0.386,1.197,0.711,1.164c-0.13,0.549,0.289,0.873,0.451,1.293
		c0.745-0.776,1.037-2.037,1.067-3.04c0.229,0.034,0.453,0.453,0.681,0.129c0.839-0.389-1.167-1.357,0.354-0.809
		c0.228-0.129,0.098-0.386,0.131-0.581c1.164,0.744,2.135,1.712,2.197,3.136c-0.418,0.096-1.292-0.065-1.16,0.679
		c-0.424,0.775-2.396,1.164-1.843,2.328c0.868-0.195,2.034-0.938,2.777-1.164c-0.292,1.617-2.035,2.619-3.364,3.169
		c-0.742,0.031-1.421-0.065-2.002-0.357C246.407,148.721,248.703,148.622,247.959,147.233z M250.516,149.206
		c6.894,0.821,16.425,1.408,23.04,2.196c1.197,0.145,1.186,0.357-0.013,0.292c-7.221-0.391-17.389-1.102-24.87-1.324
		C249.351,150.175,249.996,149.852,250.516,149.206z M269.452,143.49c0-0.662,0.443-0.735,0.514-0.148
		c0.108,0.879,0.297,5.878,0.222,6.541c-0.076,0.66-0.59,0.809-0.59,0.146C269.598,149.367,269.452,144.15,269.452,143.49z
		 M239.135,118.942c-2.295,8.826-5.788,17.493-8.053,26.061c-0.227-0.065-0.388-0.291-0.676-0.227
		c2.648-8.73,5.754-17.88,8.372-26.544C239.296,118.006,239.25,118.579,239.135,118.942z M225.746,143.741
		c0.648-0.226,1.296,0.324,1.972,0.453c3.562,1.326,6.761,3.429,10.577,4.074c1.487,0.744,3.848,0.032,5.138,0.583
		c-0.096,0.743-0.518,1.195-1.162,1.615c-5.818-0.257-11.156-2.392-16.423-4.395C225.65,145.357,225.78,144.388,225.746,143.741z
		 M225.848,146.749c4.005,1.1,7.791,3.426,12.221,3.846c1.128,0.324,2.553,0.324,3.619,0.454c-1.327,0.71-3.619,0.744-5.235,1.518
		c-3.105-0.645-7.051,0.065-9.54-2.327C226.75,149.011,225.554,147.879,225.848,146.749z M235.111,152.9
		c1.097,0.363,4.069,0.791,4.402,0.858c1.455,0.297,3.088,1.417,3.694-0.607c9.212-0.163,18.458-0.453,27.576-0.356
		c1.262,1.164,2.523,2.618,2.913,4.075c-1.843,0.225-3.945-0.195-5.143,1.744c-0.16,0.842,0.775,0.938,1.293,1.067
		c0.842-0.194,0.097-0.873,0.937-1.067c2.04-0.969,2.135,2.33,4.075,0.938c0.324,0.034,0.583,0.519,0.454,0.938
		c-12.997-0.29-23.925-0.033-37.83,0.454c-3.264-1.682-1.128-5.981-4.075-8.019C234.049,152.676,234.598,152.729,235.111,152.9z
		 M269.397,158.743c1.421-2.457,4.559-0.71,6.626-1.035c0,0.096,0,0.226,0,0.324C273.759,158.518,270.914,157.483,269.397,158.743z
		 M274.596,158.993c-0.515,0.368-0.661,0.514-1.104,0.295c-0.438-0.222-0.07-0.441,0.146-0.514
		C273.989,158.657,275.109,158.625,274.596,158.993z M238.424,163.042c0.389-0.581-0.129-1.066-0.457-1.519
		c12.967-0.451,24.35-0.581,38.057-0.324c0.193,0.422,0.551,0.809,0.682,1.262C263.285,162.492,251.647,162.85,238.424,163.042z
		 M276.705,171.674c-0.974-0.127-0.488-1.648-1.036-2.327c-2.531-6.086-9.886-4.055-15.11-4.843
		c-0.24-0.037-0.346-0.477-0.053-0.487c5.373-0.18,10.58-0.006,15.388-0.038C276.217,166.406,276.705,169.122,276.705,171.674z
		 M236.902,161.523c0.451,0.226,0.743,0.518,0.936,0.938c0.034,0.194-0.192,0.259-0.124,0.484
		c-7.308,0.904-14.521,0.453-21.987,1.747c-14.454,1.098-27.742,2.586-41.548,5.558c-0.193-1.16,1.199-1.549,1.971-1.841
		C196.13,164.079,216.308,162.332,236.902,161.523z M320.837,164.206c-13.063-0.419-25.479-1.454-38.638-1.615
		c-0.163,0.096-3.426,0.259-4.785,0c0.063-0.582-0.645-0.808-0.583-1.391c14.097,0.034,29.683,0.614,43.78,1.746
		C321.028,163.236,320.739,163.787,320.837,164.206z M319.899,159.681c0.192,0.97,0.098,1.778,0.126,2.683
		c-12.993-0.807-24.861-1.745-37.826-1.875c-1.649,0.291-3.848-0.033-5.949-0.129c0.259-0.68-0.937-0.938-0.71-1.487
		c0.612-0.097,1.064,0.258,1.291-0.485c0.163-0.84-0.384-1.454-1.162-1.519c-0.71,0-1.424,0.127-1.297-0.809
		c-0.579-1.098-1.646-2.135-2.551-3.009c3.814-0.191,7.212,0.324,11.055,0c11.546,0.939,23.508,1.586,34.564,3.945
		C317.473,158.711,319.607,158.162,319.899,159.681z M317.118,155.833c0.096,0.193,0.451,0.292,0.322,0.583
		c-11.671-2.167-22.372-3.331-34.435-3.944c0-1.035-1.065-1.003-1.388-1.876c0.03-0.259,0.301-0.125,0.581-0.226
		C293.936,151.338,305.962,152.794,317.118,155.833z M282.426,146.975c-0.322,0.549-1.066,0.389-1.522,0.259
		c-2.294-1.778-1.713-5.012-1.971-7.339C280.098,142.253,281.457,144.647,282.426,146.975z M278.352,141.512
		c0.196,2.392,0.066,4.978,2.427,6.4c0.903,0.518,1.775-0.356,2.683-0.582c0.452-0.321-1.068-2.392,0.581-1.389
		c0.519,0.451,0.519,1.163,0.485,1.874c-1.228,0.743-2.654,1.487-4.205,0.678c-3.229-2.284-1.971-6.464-2.552-9.891
		c-0.551-2.297-0.259-5.272-1.166-7.567C279.078,132.246,278.287,138.246,278.352,141.512z M154.039,112.995
		c10.053-2.716,21.23-3.065,32.16-3.71c9.603-0.355,33.252-1.617,43.368,1.025c11.375,1.552,22.821,3.009,32.941,7.567
		c5.887,2.812,12.309,7.684,13.742,13.385c0.812,5.01,0.711,10.055,1.745,15.13c0.746,1.293,1.618,2.685,3.139,3.169
		c1.358-0.42,3.039,0.064,4.074-1.422c1.454,0.614,2.908,1.229,4.204,2.23c-3.139-0.454-5.404-0.582-8.509-0.354
		c-0.806,0.679-1.646,1.518-2.1,2.457c-8.908-0.274-23.505,0-35.273,0c0.324-0.809,1.584-1.941,3.04-1.648
		c9.766,0.549,19.722,0.646,29.551,1.39c0.129,0.034,0.196-0.032,0.259-0.096c0.225-6.759-0.259-14.389-1.292-21.178
		c-3.209-6.857-9.376-9.246-15.969-10.889c-4.445-1.107-8.771-2.096-13.132-3.434c-10.903-2.885-27.899-4.551-29.229-4.3
		c-22.111-1.778-42.515-0.389-64.015,1.487C153.07,113.285,153.617,113.253,154.039,112.995z M151.841,114.383
		c23.665-2.262,49.078-3.136,73.065-0.904c13.742,1.779,27,4.818,39.706,9.053c3.814,1.423,8.145,3.849,9.666,8.052
		c1.554,6.983,1.357,13.481,1.521,20.465c-0.163,0.258-0.443,0.353-0.587,0c0.067-5.723-0.062-11.219-0.58-16.392
		c-0.405-1.431-1.041-5.888-3.229-7.275c-3.888-4.732-11.678-5.552-17.398-7.502c-16.68-4.46-34.917-7.21-52.245-7.113
		c-15.585-0.516-33.656,0.711-50.048,2.101c-0.712,0.194-1.683,0.519-2.686,0.454C149.769,114.739,151.193,115.192,151.841,114.383z
		 M148.799,117.294c0.84-0.84,2.081-0.675,3.138-0.905c21.306-1.422,44.098-2.941,64.822-0.841c2.553-0.007,8.19,0.63,12.352,1.163
		c-0.063,0.647-0.417,1.358-1.032,0.938c-8.699-1.13-17.654-1.583-25.964-1.842c-17.362-0.58-33.655,0.388-50.404,1.392
		c-1.223,0.303-1.649,0.614-2.331,1.26c-3.489,2.327-14.194,16.62-17.004,21.08c-0.03,1.165,1.326,1.165,2.099,0.938
		c2.138-0.161,4.43-0.68,6.401-0.485c-0.259,0.355-0.483,0.873-0.225,1.292c-3.619,0.099-11.445,1.164-12.092,1.293
		C134.961,133.88,142.235,125.475,148.799,117.294z M205.022,139.667c4.851-0.161,8.925,1.586,13.742,1.617
		c1.876,0.55,4.106,0.647,5.562,1.973c0,0.712,0.033,1.457-0.097,2.101c-2.231-0.388-4.818-1.064-7.212-1.616
		c-0.098,0.064-0.161,0.129-0.259,0.228c-3.719-0.906-7.563-1.487-11.377-2.23C205.089,141.123,205.478,140.346,205.022,139.667z
		 M204.441,140.346c-0.259,0.517-0.937,0.646-1.292,0.227c-0.067-0.194-0.259-0.354-0.455-0.453
		c-5.82-1.939-11.896-3.685-18.037-4.527c-0.489,0.098-0.551,0.906-1.166,0.453c1.842-1.583,4.374-0.419,6.497,0
		c4.851,1.068,9.83,1.778,14.323,3.621C204.538,139.7,204.407,140.12,204.441,140.346z M143.334,139.667
		c2.524-0.677,5.886-0.096,8.506-0.936c6.11-0.938,14.224-0.647,20.366-0.712c0.422-0.452,0.844,0.065,1.392-0.096
		c0.194,0.031,0.033,0.291,0.225,0.324c7.954-0.033,16.266,0.484,23.86,0.935c1.359,0.454,2.651,1.037,4.075,1.294
		c0.063,0.097,0.063,0.517-0.13,0.678c-16.848-1.907-33.526-1.744-49.466-1.034c-2.585,0.712-5.529,0.485-8.469,0.712
		C143.626,140.411,143.851,139.895,143.334,139.667z M142.849,141.058c-0.485,0.389-1.195,0.225-1.617-0.226
		c-0.126-0.422,0.359-0.26,0.455-0.583c-1.003-1.132,0.709-1.487,1.162-2.327c2.912-0.55,5.887-1.262,8.733-1.651
		c0.128-0.096,0.259-0.226,0.354-0.354c3.62,0.128,7.371-1.778,10.604-0.097c-1.002,0.581-1.842-0.583-2.912-0.484
		c-2.554,0.452-5.077,1.034-7.692,1.293c-0.163,0.16-0.354,0.386-0.585,0.451c-3.134,0.583-6.171,1.423-9.083,2.457
		C142.625,139.861,143.304,140.443,142.849,141.058z M208.046,133.965c-3.32,0.207-6.521,1.426-9.2,3.472
		c-0.999-0.129-1.81-0.647-2.777-0.808c1.88-4.264,5.778-7.142,10.165-8.254c0.97-0.246,4.112-0.707,4.559-0.724
		c4.25-0.157,8.544-1.104,13.084-1.046c0.095,0.099,0.386,9.506,0.45,14.549c-0.486-0.064-0.84,0.163-1.262,0.26
		C220.001,135.138,214.243,133.579,208.046,133.965z M221.773,141.283c-0.773,0.178-1.383-0.003-1.927-0.356
		c-0.94-0.607-2.15-2.459-6.447-4.168c-3.818-1.715-8.958-0.971-12.352,1.164c-0.388,0.031-0.68-0.163-1.034-0.259
		c2.502-2.083,5.522-3.042,8.619-3.077C212.358,134.646,219.968,137.078,221.773,141.283z M197.459,117.648
		c-0.615,1.102-1.357,2.266-1.877,3.266c-0.225,0.408-0.32,0.702-0.806,0.713c-2.783,0.031-5.819-0.064-8.603-0.355
		c-0.841-1.392-0.096-3.396,1.036-4.431c3.134-0.42,6.885-0.13,9.893-0.226C197.613,116.619,197.659,117.11,197.459,117.648z
		 M188.017,129.645c-0.226,1.843-0.874,3.524-1.388,5.238c-0.102,0.268-0.716-0.129-1.036-0.225c0.71-1.876,1.358-3.753,1.843-5.725
		C187.662,128.707,187.954,129.355,188.017,129.645z M186.855,128.254c-0.39,2.2-1.195,4.237-1.974,6.273
		c-0.681,0.485-1.554,0.451-2.102,1.164c-3.105-0.064-5.724-0.324-8.502-0.226c-0.744,0.226-0.875,1.229-0.455,1.744
		c-0.419,0.163-1.003,0.194-1.387,0c0.159-0.774,0.545-1.13,0-1.874c-4.075,0.031-8.12,1.163-11.77-0.907
		c-2.716,0.485-5.951,0.422-8.826,0.907c-1.07,0.873-2.299,0.614-3.753,0.839c2.035-4.462,4.367-8.956,6.308-13.289
		C165.545,121.853,177.507,122.531,186.855,128.254z M174.408,136.045c2.907-0.064,7.725-0.174,8.502,0.356
		c-3.07,0.324-5.432-0.096-8.632-0.13C174.341,136.209,174.437,136.175,174.408,136.045z M171.85,136.401
		c-3.2-0.161-5.624,0.259-8.955,0.098c0.064-0.42,0.678-0.064,0.907-0.324c2.813,0.161,5.303-0.355,8.147,0
		C171.98,136.271,171.917,136.336,171.85,136.401z M145.761,136.759c-1.199-0.163-2.039,0.71-3.234,0.581
		c-0.777,0.647-1.325,1.098-1.876,1.841c-1.747,0.164-3.619,0.68-5.235,0.485c3.07-4.655,6.367-9.246,9.535-13.87
		c1.175-1.471,2.888-2.175,4.59-2.482c0.695-0.123,2.846-0.33,3.202-0.428C150.709,127.608,148.252,132.491,145.761,136.759z
		 M161.248,136.499c-2.071-0.129-3.721,0.291-5.691,0.13C157.026,136.251,159.499,135.562,161.248,136.499z M151.481,138.374
		c-1.646,0.129-2.941,0.229-4.428,0.357c1.329-0.583,2.877-0.712,4.298-1.067C151.418,137.954,151.064,138.213,151.481,138.374z
		 M202.114,138.246c4.171-2.684,10.186-2.037,14.322,0.839c5.725,3.234-2.748,0.71-4.202,0.809
		C208.712,139.345,205.348,139.15,202.114,138.246z M224.214,123.478c-0.052-0.44,0.241-0.587,0.291,0.147
		c0.051,0.734,0.64,16.901,0.64,17.685c0,0.783-0.393,0.637-0.393,0.196C224.752,141.064,224.297,124.257,224.214,123.478z
		 M132.502,142.577c4.948-0.646,10.347-0.581,15.491-1.423c17.196-1.679,34.203-1.195,51.083,0.358
		c1.162,0.386,2.716,0.096,3.488,1.163c5.016-0.454,10.153,1.164,15.04,1.744c2.196,0.778,4.682,0.809,6.722,1.973
		c0.423,1.037-0.711,1.423-0.581,2.459c-2.169-0.712-4.559-0.907-6.728-1.617c-0.098,0.065-0.161,0.13-0.259,0.226
		c-21.598-5.431-43.647-5.592-65.048-5.238c0.03,0.099-17.009,1.262-24.898,2.555C127.815,142.641,130.532,143.126,132.502,142.577z
		 M151.582,143.03c2.356-0.355,5.14-0.259,7.241-0.355c21.952-0.484,44.356,1.423,65.053,6.886c0.286,0.904,1.16,1.326,1.972,1.617
		c0.936,0.16,1.617-0.163,2.326,0.451c-3.686-0.321-12.485-0.298-13.023-0.286c-9.285,0.201-19.024,0.334-28.069,1.708
		c-0.191-0.225-0.356-0.386-0.581-0.58c-4.723,0.355-9.541,0.969-14.422,1.747c-0.289-0.647-0.741-1.133-1.39-1.423
		c-1.813,0.485-3.299,1.745-4.883,2.683c-0.321-0.452-0.969-0.84-1.421-0.355c-1.65,1.389-2.067,3.104-3.588,4.333
		c-2.942,0.744-5.691,2.003-8.504,3.006c-2.714,2.877-3.977,7.308-3.362,10.96c-2.716,2.329-5.788,4.981-8.053,7.889
		c-3.391-0.581-6.788-1.196-9.309-4.072c-9.341-3.266-19.271-4.496-29.327-5.691c-4.433-0.688-13.132-0.895-15.936-0.453
		c-7.771,0.032-15.243,1.011-23.281,2.651c-1.05,0.616-1.618,2.398-2.591,2.897c-0.402,0.206-1.997-0.019-2.194-0.213
		c8.666-10.153,19.755-16.264,30.748-21.404c2.975-0.971,6.047-1.78,8.954-2.91c-0.259,0.193,0.198,0.387-0.13,0.451
		c-5.301,2.265-10.892,4.559-15.226,8.376c-0.225,0.291-0.386,0.679-0.257,0.936c4.622-3.88,10.441-6.756,16.199-8.827
		c1.325,0.617,2.779,1.037,4.169,1.488c0.419,0.647-0.196,1.163,0.13,1.65c5.69-1.327,12.481-1.715,18.623-2.329
		c1.153-0.233,2.519,0.259,2.457-1.164c-0.551-0.84-1.809-0.291-2.457-0.581c-2.198,0.031-4.526-0.614-6.756-0.583
		c3.749-1.389,7.535-2.812,11.282-4.203c0.355-0.291,0.094-0.581-0.226-0.679c-3.882,0.648-8.182,0.744-12.318,1.488
		C125.489,145.228,138.876,143.354,151.582,143.03z M186.4,154.218c-6.307,1.195-13.029,3.103-19.785,4.655
		c-1.584,0-0.226-2.263,0.936-1.747c0.355,0.194-1.229,0.842-0.485,1.392c2.587-0.42,5.172-1.553,7.792-2.102
		c2.198-1.034,5.043-0.841,7.111-1.876c-0.129-0.097-0.226-0.226-0.354-0.322c-4.232,0.257-8.503,2.102-12.318,2.908
		c-0.255-0.263,0.485-0.452,0.451-0.485c1.392-0.161,1.973-2.101,3.623-1.972c4.299-0.839,8.536-1.194,12.903-1.518
		C186.5,153.44,186.37,153.861,186.4,154.218z M167.067,155.478c1.194-0.646,2.295-1.553,3.621-1.973
		c1.359,0.55,0.452,1.877-0.483,2.198c-1.165,0.228-2.524,0.777-3.815,1.068C165.579,156.125,166.773,155.833,167.067,155.478z
		 M168.133,167.926c-0.581-0.323-1.292-0.227-1.743,0c0,0.451,0.029,0.29-0.13,0c-0.484-0.583-0.484,0.646-0.81,0.258
		c-0.874,0.323,0.372,0.681,0.372,1.39c0.743,0.291-0.152,2.401,0.87,2.775c0.42,0.646-0.502,1.521,0.597,1.586
		c-0.098,0.969,0.489,1.167,0.714,1.814c0.614-0.323,0.907,0.807,1.618,0.581c-0.903,3.62-3.202,7.695-7.304,8.373
		c-2.672,0.008-5.787-0.354-7.697-2.456c2.394,1.326,5.69,0.679,7.792-0.806c2.23-1.328,2.879-3.754,3.848-5.822
		c0.394-4.968-2.686-11.477-8.276-13.612c-5.432,0.032,0.769-1.215,1.746-1.746c1.045-0.046,2.391-0.323,3.167,0.581
		c-0.938,1.229-2.618,0-3.75,1.035c0.292,0.614,1.26-0.192,1.875,0.228c-0.581,0-1.002,1.002-0.129,1.164
		c1.521-0.064,2.92,0.781,4.437,0.328c0-0.096,0.15-0.409,0.15-0.54c-0.906-0.58-1.387-1.405-2.259-2.115
		c3.458,0.871,5.172,4.752,6.078,7.824C169.332,168.896,168.616,167.279,168.133,167.926z M169.393,171.192
		c0.163-0.228,0.198-0.388,0.228-0.583c0.333,0.827,0.265,1.813,0.241,2.789c-0.003,0.356-0.186,0.423-0.414,0.16
		c-0.075-0.088-0.133-0.175-0.15-0.266c-0.355-0.678-1.358-0.096-1.52-0.935c-0.548,0.516-0.13-0.389-0.581-0.358
		c-0.165-0.548-0.48-0.699-0.543-1.346c0.589-0.196,1.303-0.085,1.273-0.539C168.283,171.019,168.616,170.899,169.393,171.192z
		 M150.417,169.93c0.952-3.247,3.2-5.917,6.4-6.401c1.195-0.388,2.62-0.712,3.622,0.321c2.683,2.201-1.098-0.191-1.875,0.26
		c-2.654-0.13-5.337,1.164-6.724,3.719c-1.199,2.78-2.264,6.79-0.489,9.666c1.262,1.813,3.075,3.59,5.24,4.174
		c2.879,0.354,5.69-0.68,7.336-3.14c0.603-0.752,0.992-1.646,1.272-2.531c0.139-0.447,0.288-0.358,0.175,0.104
		c-0.409,1.706-1.511,3.259-2.833,4.53c-1.942,1.325-4.429,2.328-6.886,1.39c-8.395-3.289-7.945-16.086-1.984-19.698
		c0.743-0.29,1.813-0.44,2.565-0.088c-3.556-0.129-4.785,3.46-5.917,6.046C150.157,168.877,149.35,169.638,150.417,169.93z
		 M160.569,175.621c0.97-0.453,1.388-1.746,1.748-2.78c0.096-0.292-0.259-0.389-0.359-0.583c-0.87,0.065-0.096,1.812-1.388,1.747
		c-0.225,0.225-0.096,0.614-0.13,0.904c-0.71,0.324-1.554,0.034-2.327,0.583c0.159,0.744-0.422,1.163-0.714,1.649
		c-0.256,0.064-1.258-0.648-1.972-0.13c0,1.003-1-1.133-1.162,0.228c-0.326-0.194-0.581-0.874-0.94-0.584
		c-0.192,0.609-1.129-1.518-1.743-1.034c0.159,0.581-0.23,0.872-0.327,0.227c0.035-0.71-0.709-1.875,0.226-2.198
		c0.327,0,0.843,0.549,0.94-0.129c-0.162-0.259-0.268-1.886,1.262-0.229c0.614-0.194,0.743-1.518,1.646-1.163
		c0.326-1.098,0.84-1.422,0.457-0.226c0.225,0.679,0.644-0.129,1.032,0.226c0.452-0.905,1.262,0.26,1.52-0.13
		c0.52,0.358,0.581-0.806,0.711-0.225c0.744,1.163,0.84-1.229,1.521,0c0.451-0.841,1.619,0.744,1.388-0.453
		c-0.159-1.069-1.518-0.744-1.743-1.649c-0.259,0.324-0.422,0.389-0.356-0.097c-0.129-0.227-0.388-0.258-0.584-0.128
		c-0.417-0.13,0.325-0.648-0.226-0.809c-0.546,0.969-1.228-0.969-1.392,0.454c-1.195,0.291-0.483-1.845-1.646-0.907
		c-0.743,0.292,0.097-1.066-0.81-0.711c-0.193,1.358-0.936-0.389-1.292,0.809c-0.094-0.228-0.742,0-0.455-0.355
		c0.033-0.227-0.029-0.421-0.226-0.583c-1.132,0.646,0.519-1.098,1.037-1.392c2.135-0.516,4.62,0.228,5.821,1.876
		c0.71-0.874,1.872-0.648,2.553-1.519c1.678,2.423,3.491,5.592,2.23,8.728c-0.552,2.49-2.457,4.722-4.783,5.82
		c-1.201,0.16-2.943,0.711-4.175,0c-0.548-0.583-2.002-1.875-0.125-0.713c0.614,0.323,0.744-0.581,1.162-0.581
		c1.323-0.711,1.356-1.52,2.551-2.326C159.37,176.557,160.114,176.105,160.569,175.621z M162.057,159.681
		c0.355-1.617,1.617-3.071,2.908-4.074c0.94,0.679,0.354,1.553,0.354,2.425C164.417,158.776,163.346,159.616,162.057,159.681z
		 M179.514,202.261c1.003,0.292,0.681-0.323,0.84-1.033c0.197-1.812,1.876-2.975,2.071-4.786c0.16-0.096,0.289-0.323,0.485-0.323
		c-0.196,2.426-1.358,4.752-2.457,6.984c-1.843-1.196-8.732,1.293-5.336-3.041c1.489-1.453,2.813-3.037,4.752-3.716
		c-1.389,1.875-3.72,3.005-3.944,5.463C176.959,202.65,178.382,201.614,179.514,202.261z M182.91,204.136
		c1.002,0.744,0.096,1.877-0.13,2.685c-0.095,0.194-0.404,0.377-0.584,0.097c-0.322-0.744,1.295-1.938-0.098-1.843
		c-0.517,0.744-0.386,2.006-1.16,2.425c-0.034-0.743,0.674-1.431,0.446-2.434c-1.262-0.678-2.583,0.461-3.845,0.104
		c-1.194,0.454-1.445,3.165-2.326,2.104c-0.097-0.872,0.033-1.618,0.484-2.427c-0.192-0.872-1.193-0.518-1.648-0.583
		c0.229,1.1-1.292,1.327-0.807,2.556c-0.711,0-1.036,0.775-1.036,1.391c-2.165,2.329-5.529,1.132-8.279,1.293
		c-0.286-0.258-0.094-1.228-0.806-0.711c-1.358,0.711-3.104,0.518-4.557,1.034c-0.581-0.581-0.293-1.745-0.681-2.553
		c0.229-0.712,0.388-1.487,0.94-2.104c0.806,0.228,1.228-0.84,1.972-0.45c0.581,1.357-1.68,0.678-1.65,1.518
		c-1.003,0.422-0.228,1.101,0.483,1.163c0.229,0,0.551-0.063,0.585-0.354c-0.259-0.644,0.546-0.226,0.806-0.354
		c0.486-0.55,1.973-0.227,1.392-1.39c-0.163-0.099-0.163-0.388,0-0.454c0.518-0.808,1.81,0.615,1.291-0.84
		c-0.529-0.383-0.94-0.768-1.442-1.013c-0.257-0.124-0.253-0.25,0.082-0.253c0.638-0.006,1.232-0.095,1.232-0.706
		C170.007,202.748,176.768,203.426,182.91,204.136z M178.184,209.776c0,0.257-0.292,0.465-0.655,0.465s-0.661-0.208-0.661-0.465
		s0.298-0.629,0.661-0.629S178.184,209.52,178.184,209.776z M156.722,207.759c-0.261,0.744,0.548,1.745-0.225,2.068
		c-4.11-0.775-8.216,0.16-12.127-0.81c-1.906,0.034-0.806,3.235-3.364,2.232c-0.873,0.097-1.646-0.55-1.973-1.294
		c0-0.289-0.027-0.71,0.228-0.809c0.551-0.225-0.193-0.711-0.485-0.711c-6.464-1.067-14.257-1.001-20.822-1.972
		c-1.583,0.646-0.417-1.585-0.354-2.2c0.647-1.906,1.165-3.813,2.102-5.592c0.162-0.129,0.257-0.324,0.451-0.225
		c8.117,0.483,16.295,1.289,24.443,1.97c-0.097,0.323,0.163,0.682,0.484,0.581c2.491,0.39,5.272,1.23,7.566,1.037
		c0.034,1.1,1.421-0.192,1.167,1.066c-1.781-0.485-3.591-0.292-5.24-1.165c-0.711,0.811-1.973,0.615-2.909,0.454
		c-0.777-0.583-1.358,0.744-2.331,0.453c-1.129,0-2.553-1.165-3.394,0c-0.292-0.551-0.743,0.063-0.907,0.258
		c-0.354-0.485-1.132,0-1.419-0.581c-0.648,0.323,0.26,0.581,0.26,0.904c1.064,0.16,2.488,0.839,3.358-0.226
		c0.446,0.14,0.957,0.385,1.424,0.46c0.282,0.043,0.419,0.132,0.228,0.302c-0.073,0.064-0.427,0.22-0.444,0.334
		c1.424,0.742,3.61-0.32,5.197-0.288c0.873-0.355,1.973-0.937,2.909-0.228c-0.907,1.423-3.331,0.615-4.655,1.165
		c-0.326,0.323-1.488-0.226-1.167,0.581c1.94-0.063,4.143,0.098,6.177-0.452c1.099-0.452,0.292-2.198,1.843-1.52
		c0.197,0.13,0.455,0.194,0.484,0.453c-0.451,0.322-0.773-0.163-1.162,0.356c1.388,0.873-1.295,1.388,0.356,1.746
		c0.546,0.16,0.936-0.292,1.162-0.682c-0.322-0.646,0.551-1.099,0.812-1.648c0.354,0.228,1.226-0.064,1.032,0.713
		c0.033,0.614-0.711,1.194-1.388,1.39c-0.455,0-1.228,1.034-0.94,1.163c0.518-0.322,1.391,0.194,1.747-0.452
		c-0.165,0.13,0.225,0.518,0.581,0.681c0.325,0.126,0.681-0.13,0.583-0.454c-0.94-1.294,1.325-1.263,0.226-2.327
		c-0.096-0.129-0.355-0.323-0.096-0.485c0.643-0.292,1.032-0.388,1.743-0.228c-0.255,0.324-0.741,0.162-0.936,0.584
		C157.656,205.269,156.754,206.627,156.722,207.759z M116.793,214.742c-1.843,1.974-5.014,2.393-7.922,2.651
		c-1.003-0.228-1.876-1.327-2.101-2.329c-0.034-6.498,0.417-12.804,1.521-18.946c-0.232-1.39-0.518-3.006-0.232-4.331
		c1.782-2.361,4.982-0.713,7.213-1.488c1.55,2.165,3.944,4.688,3.978,7.435c-0.293,0.131-0.293,0.52-0.129,0.715
		c-1.877,3.523-3.042,7.822-3.042,11.734c0.325,1.325,0.775,2.684,1.746,3.623C118.084,214.418,116.98,214.594,116.793,214.742z
		 M118.084,214.838c10.793-0.48,23.218,0.245,34.125,0.985c0.104,0.005,0.109,0.283,0.004,0.3
		c-13.107,2.278-26.917,1.783-41.073,1.848c-0.326,0-0.368-0.07-0.07-0.122C113.647,217.423,115.97,216.403,118.084,214.838z
		 M106.189,196.797c-16.007-1.519-30.263-2.068-46.3-3.588c-0.26-0.646-0.941-1.067-1.07-1.745
		c16.526,2.941,31.785,3.265,48.661,4.654c-0.451,3.17-0.646,6.854-1.036,9.634c-0.84,0.55-2.52-0.645-2.327,1.068
		c-0.435,1.185-0.695,0.549-0.414-0.035c0.192-0.412,0.325-0.898-0.167-1.033c-0.322-0.45-1.167-0.582-1.749-0.323
		c-0.806,0.423-0.967,1.488-0.708,1.972c-0.293,0.099-0.52-0.256-0.581-0.483c-0.102-0.515,0.675-0.807,0.129-1.261
		c-2.688-0.259-5.206-0.905-8.052-0.809c-0.034-0.128,0.063-0.194,0.13-0.259c1.548-0.388,2.749,0.485,4.298,0
		c-0.034-0.259-0.292-0.324-0.451-0.453c-3.978-0.483-7.99-0.096-11.64,0.129c-0.711,0.486,0.84,1.609-0.711,1.618
		c0.354-0.485,0.354-1.003,0-1.519c-0.398-0.402-0.97-0.712-1.521-0.356c-1.262,0.388,0.681,3.428-1.036,1.294
		c-0.159-0.551,0.681-1.132-0.129-1.521c-2.358,0.679-5.204-0.936-7.433-0.226c-0.098,0.194,0.094,0.323,0.225,0.453
		c-0.196,0.451-0.485,0.549-0.711,0.938c0.159-0.356,0.289-1.52-0.583-1.745c-0.744-0.228-1.421,0.29-1.619,0.936
		c-0.254,0.293,0.554,1.166-0.225,0.712c-0.451-0.291-0.448-1.399,0.225-1.52c-0.708-0.775-1.419-0.097-2.457-0.483
		c-1.872-0.194-4.072-0.972-6.045-0.681c-1.1-0.184-1.972,0.613-2.779-0.227c-0.552,0.323,0.615,0.84-0.129,1.263
		c0.063-0.292-0.226-0.939-0.681-1.263c-0.452,0.194,0.164,1.198-0.355,1.617c-0.355,0.065-0.613-0.096-0.807-0.354
		c-0.354-0.583,1.196-1.229,0-1.263c-0.421,0.227-0.551,0.744-0.484,1.035c0.098,0.776-0.421-0.291-0.581-0.451
		c-0.23-1.197,2.165-0.518,1.065-1.522c-1.065,0.13-1.713,0.194-2.811,0.229c0.84-2.684,2.519-5.076,3.848-7.438
		c10.053,0.713,21.271,1.812,31.876,2.201c5.629,0.483,10.025,1.099,15.618,1.518c0.097-0.259,0.614,0.097,0.581-0.354
		C107.058,196.701,106.477,197.09,106.189,196.797z M49.413,181.893c0.129-0.388,0.773-1.553-0.129-1.842
		c-3.137,0.258-6.467,1.938-9.893,0.808c5.594-0.907,11.122-1.972,16.521-2.33c-0.937,2.266-2.329,4.302-3.139,6.63
		c-0.902,0.484-2.585,0.226-3.618,0.938C48.895,184.704,51.775,182.83,49.413,181.893z M47.408,189.136
		c-3.329,0.419-6.66,0.127-9.99,0.226c-0.097-1.811,0.581-4.172,2.197-5.238c3.038-0.097,6.599-1.356,9.539-0.226
		C48.862,185.74,47.34,187.26,47.408,189.136z M57.303,177.365c0.838,0,1.713-0.517,2.456,0c-2.102,2.716-4.204,5.305-6.271,7.793
		C54.745,182.572,55.782,179.856,57.303,177.365z M83.976,177.722c-1.875-0.55-3.51,0.804-5.157-0.555
		c-5.301,0.357-9.881,0.521-15.442,0.911c-0.062-1.099,0.94-2.231,1.973-2.814c0.36-0.096,0.743-0.195,1.035-0.451
		c-0.063-0.679-0.936-0.679-1.392-0.485c-1.841,0.679-1.713,2.911-3.132,3.621c0.516-0.614,0.885-1.564,1.043-2.309
		c-0.417-0.647-0.179-1.12,0.727-1.412c7.569-1.843,14.88-2.229,22.897-2.553c0.098-0.096,2.348-0.271,3.41-0.261
		c13.609,0.145,27.11,2.339,39.526,5.728c2.165,0.548,3.945,2.261,5.721,3.491c2.004,0.452,3.69,0.679,5.596,1.39
		c-2.491,3.654-5.466,7.729-6.887,11.865c-0.614,1.65-1.584,3.268-1.843,4.883c-3.813-0.321-8.085-0.681-11.899-1.036
		c-0.193-0.128-0.064-0.388-0.096-0.579c2.844-0.938,7.24,1.713,8.827-2.102c0.711-2.911-3.333-7.206-4.172-7.565
		c-12.285-2.814-24.699-4.98-37.73-5.336c-6.045,0.26-12.414-0.065-18.364,0.323c-3.235,0.032-6.92,0.387-10.379,0.581
		c-0.676,0.066-1.032,0.873-1.746,0.939c0.195-0.372,0.535-0.926,0.868-1.095c1.016-0.513,2.308-0.168,1.943-1.816
		c0.681-0.938,1.199-2.393,2.783-1.972c5.282-0.838,10.718-0.695,15.853-0.701c0.614-0.001,4.934-0.527,6.393-0.009
		C85.075,178.108,84.297,177.722,83.976,177.722z M122.479,194.373c1.876,0.355,4.175,0.68,5.951,0.226
		c-1.359,3.685-5.753,1.163-8.503,1.747c-1.324-1.553,1.038-0.97,1.746-0.938c0.293-0.129,1.167,0.292,1.296-0.354
		C122.935,194.762,122.512,194.663,122.479,194.373z M85.819,183.995c0.028-0.012,0.059-0.023,0.089-0.036
		c0.259-0.52,0.993-0.913,1.202-0.548c-2.196,0.584,0.163,3.299-1.746,3.849c-0.666,0.243-1.099,0.646-1.747,0.228
		c0.259-0.809,1.521-0.488,1.876-1.391C85.786,185.189,84.846,184.64,85.819,183.995z M84.914,189.361
		c8.857-0.355,19.398-0.776,29.097-1.293c0.669-0.222,1.425-0.453,2.069-0.809c-0.772,1.551-2.907,1.228-4.3,2.102
		c-8.891,1.324-18.009,2.134-27.126,2.911c-6.692-1.553-13.383-3.105-19.204-6.76c0-0.616,0.309-0.474,0.677-0.301
		C69.658,186.77,78.573,188.035,84.914,189.361z M58.465,183.768c-0.029,0.486-1.421,2.199-0.581,3.138
		c1.132-0.323,2.619-1.003,3.492-0.584c-0.293,1.133-4.4,0.486-2.328,2.556c1.551,0.386,3.202-1.294,4.2,0.129
		c-0.614,1.001-2.26,0.42-2.778,1.391c0.71,0.582,1.194-0.162,1.972,0.225c3.168,0.584,6.885,0.809,10.121,1.166
		c8.309,2.229,16.001,1.163,25.153,2.1c3.234,0.227,6.433-0.063,9.636,0.712c-0.064,0.325,0.162,0.52,0.128,0.809
		c-17.006-1.422-32.429-1.583-49.015-4.786c-0.938-1.454-0.841-3.716-2.329-4.979C56.266,184.448,57.59,184.155,58.465,183.768z
		 M103.063,206.478c0,0.276-0.316,0.497-0.705,0.497c-0.39,0-0.707-0.221-0.707-0.497c0-0.275,0.317-0.499,0.707-0.499
		C102.747,205.979,103.063,206.202,103.063,206.478z M84.032,205.083c0,0.274-0.313,0.498-0.708,0.498
		c-0.388,0-0.705-0.224-0.705-0.498c0-0.276,0.317-0.501,0.705-0.501C83.719,204.582,84.032,204.807,84.032,205.083z
		 M73.305,204.348c0,0.274-0.316,0.498-0.705,0.498c-0.394,0-0.707-0.224-0.707-0.498c0-0.276,0.313-0.5,0.707-0.5
		C72.989,203.848,73.305,204.071,73.305,204.348z M88.728,216.359c-7.727,0.256-15.423-1.685-22.698-2.554
		c-3.718-0.842-7.5-1.553-11.156-2.556c0.422-0.71,1.003-1.359,1.262-2.103c11.157,0.454,20.984,4.105,32.271,4.3
		C88.694,214.354,88.277,215.551,88.728,216.359z M60.565,209.147c-1.617-0.225-3.392-0.484-4.881-0.711
		c0.072-0.655-0.092-1.328,0.314-1.459c0.135-0.043,0.397-0.26,0.718-0.286c5.077-0.324,10.153,1.453,15.489,1.52
		c2.52-1.261,5.366-0.195,7.921,0.452c1.551-0.291,3.653,0.034,5.237,0.583c1.098-0.293,2.135-0.549,3.267-0.099
		c4.169-1.034,7.597,1.424,11.411,0.583c1.746,1.714,7.503-1.777,6.271,2.553C90.344,211.25,75.666,211.25,60.565,209.147z
		 M89.893,212.059c0.354,0,0.711,0,1.064,0c-0.775,1.326-0.292,3.459-1.746,4.171C89.279,214.644,88.986,213.317,89.893,212.059z
		 M93.381,212.157c-0.288,1.744-1.548,3.329-3.134,4.202C91.636,215.099,90.604,211.121,93.381,212.157z M93.512,213.901
		c4.074,0.29,8.632,0.354,12.677,0.841c-0.457,1.487,1.162,2.263,2,3.136c-5.915-0.356-10.992-0.581-16.78-1.162
		C91.96,215.938,92.863,214.774,93.512,213.901z M169.748,193.078c-0.127-0.227-0.157-0.516-0.451-0.71
		c-0.838,0.969-2.651,2.069-2.101,3.623c-2.65,1.163-0.937,4.621-3.623,5.463c-10.83-1.067-20.139-1.584-30.941-2.685
		c1.81-4.851,3.527-9.408,6.728-13.707c0.84-0.39,1.55,0.127,2.23,0.45c-0.128,0.714-2.039,1.393-0.715,1.975
		c0.389,0.227,1.038-0.323,1.296,0c-0.226,0.451-0.129,1,0.355,1.291c1.488-0.16,2.196-1.873,3.008-2.812
		c-0.744-0.938-3.041,2.23-2.427-0.097c0.648-0.194,0.128-0.905,0-1.295c-0.711-0.549-1.646-0.615-2.457-0.936
		c-0.13-0.292,0.196-0.453,0.225-0.68c7.05,1.488,14.036,2.069,20.725,4.429c2.75,0.809,5.855,1.39,7.568,3.945
		c1.679,1.324,2.36,3.459,3.849,4.784C171.85,196.151,170.526,194.34,169.748,193.078z M104.117,150.823
		c0.129,0.614,0.906,0.744,1.487,0.806c5.014,0.229,16.762,0.604,16.555,1.166c-6.143-0.453-13.254-0.033-19.334-0.323
		c-0.13,0.129-0.326,0.258-0.226,0.453c0.417,0.68,1.518-0.453,1.612,0.581c1.588-0.129,3.432,0.777,4.885,0.13
		c3.494-0.484,10.822-0.911,11.77-0.355c-5.369,0.743-11.478,0.743-17.236,2.198c0-2.683-3.132-1.778-4.653-2.78
		c1.162-1.293,3.262-1.229,4.298-2.553c5.37-0.874,14.586-2.37,15.845-2.102C113.817,148.98,109.16,149.367,104.117,150.823z
		 M119.868,148.412c0.615-0.195,2.453-0.638,2.611-0.37c-4.363,0.938-8.046,4.494-12.899,3.136
		C113.074,151.338,116.217,148.767,119.868,148.412z M51.74,152.794c1.618-1.101,3.46-1.746,5.106-2.78
		c0.457,0.549,0.614,1.26,0.716,1.972c-1.426,0.226-2.361,0.485-3.623,1.065c0.421-1.065,2.231-0.904,1.876-2.229
		c-1.324,0.679-2.62,2.037-3.978,2.553C51.775,153.215,51.708,153.051,51.74,152.794z M51.966,154.088
		c0.84-0.484,1.713,0.032,2.554-0.453c2.686-1.682,6.563-0.031,9.184-2.102c0.839,0.034,1.646,0.034,2.231-0.484
		c0.029-0.097-0.066-0.162-0.13-0.226c-2.618-0.064-4.98,1.487-7.663,1.164c-0.162-0.389,0.324-0.259,0.452-0.454
		c5.186-2.166,9.816-1.799,14.42-1.648c0.292,0.291,0.518,1.068,0.259,1.068c-6.693,1.065-14.353,2.843-21.209,4.525
		C51.126,155.219,51.837,154.604,51.966,154.088z M52.063,155.962c7.274-1.617,14.807-3.426,22.021-4.43
		c0.259-0.195-0.035-0.518,0.225-0.71c4.75-0.357,8.44-0.843,13.158-1.617c7.956-0.549,16.617-1.308,24.087-1.164
		c-2.749,0.969-5.753,1.13-8.728,1.519c-2.491,2.555-6.661,2.132-9.895,3.49c-5.009,1.262-9.246,4.333-13.968,6.274
		c-8.34,4.494-16.909,11.219-22.921,18.623c-5.691,0.518-11.446,1.195-16.78,2.197c0.805-0.646-0.746-5.721,1.419-2.197
		c1.358,1.422,3.269,1.195,5.111,0.711c3.781-0.938,6.337-5.01,7.111-8.504c0.845-5.301-0.322-11.153-5.01-13.61
		C49.121,156.156,50.737,155.283,52.063,155.962z M50.575,152.697c0.457-0.065,0.457,0.453,0.681,0.678
		c-0.354,0.583-0.743-0.065-1.165-0.096c-0.938,0.324-1.162,1.195-1.973,1.617c1.07,0.322,1.842-0.809,3.042-0.583
		c-0.745,1.682-2.996,0.733-4.354,1.153C47.551,154.075,48.792,152.748,50.575,152.697z M46.5,156.416
		c0.423,0.194,0.811,0.549,1.262,0.71c-1.392-0.226-2.173,0.982-3.626,0.593c-0.489-0.146-0.86,0.249-0.443,0.54
		c0.615,0.064,1.094,1.518,1.743,0.84c-0.322,0.292,0.097,0.614,0.129,0.808c0.292,0.614,1.616-0.321,1.262,0.808
		c0.483,0.42,1.228,0.129,1.646,0.713c0.615-0.164,1.843-0.324,1.843,0.581c1.1-0.195-0.062-1.165,0.129-1.875
		c-1.257-1.487-3.105,0.581-4.202-1.261c0.292-0.26,0.714-0.485,1.068-0.26c0.322-0.581,0.903-0.129,1.518-0.096
		c1.07,0.678,2.168,1.324,2.654,2.682c1.261,1.391-0.778,1.101-1.167,1.843c-0.581-0.031-1.127,0.098-1.387-0.581
		c-0.229,0.516-0.351,0.443-0.284,1.285c0.676,0.42,0.3,0.688,0.977,0.977c1.417-0.376,1.12,0.561,1.99,0.065
		c0.163,0.388,0.709,0.259,0.935,0.129c0.778,5.077-1.253,10.218-5.521,12.741c-1.583,0.773-4.458,1.468-5.536-0.066
		c0.129,0.031,1.358-0.099,1.162,0.355c1.141,0.409,2.04,0.097,3.139-0.227c1.132-0.581,2.36-1.391,3.038-2.554
		c-1.843-0.614-3.373,3.175-4.429,2.071c3.233-1.747,4.625-5.271,4.754-8.601c0.127-3.569-2.326-8.181-6.045-9.895
		c-0.778-0.225-1.454-0.71-2.328-0.71C42.653,157.449,44.563,156.934,46.5,156.416z M38.68,158.97
		c-1.813,2.263-3.139,4.396-3.234,7.34c0.129,0.291,0.417,0.225,0.676,0.225c0.648-3.2,2.75-6.304,6.047-6.984
		c3.042-0.032,4.71,2.968,5.594,5.367c1.358,3.783,0.777,7.37-1.746,10.249c-1.422,1.457-3.038,2.038-4.881,1.748
		C33.606,174.063,32.236,162.629,38.68,158.97z M39.457,182.947c3.009-0.32,5.849-0.536,8.887-0.699
		c0.259,1.229,2.169-0.517,1.296,1.163c-0.356-0.451-1.003-0.355-1.391-0.679c-3.105,0.129-6.436,0.615-9.439,0.907
		c-1.229,1.744-2.461,3.814-2.102,6.173c3.2,0.228,6.652-0.136,9.656-0.104c-0.063,0.194-0.506,0.268-0.572,0.462
		c-3.322,0.052-6.919,0.198-10.154,0.052c-0.096-0.095-0.48-0.44-0.451-0.764C36.708,187.42,36.646,184.015,39.457,182.947z
		 M37.87,181.797c-0.064,0.387,0.225,0.775,0.581,0.936c-1.843,1.683-2.683,4.204-3.845,6.403c-0.26,1.034,0.805,1.323,1.516,1.485
		c3.072-0.062,6.661,0.194,9.896,0c0.873,0,2.197-2.165,1.972,0.13c0.197,0.744-0.613,0.744-0.321,1.521
		c-4.785-0.034-9.703-0.39-14.55-0.584C34.021,188.102,36.005,185.005,37.87,181.797z M44.625,207.046
		c-4.075-0.258-8.599-1.259-12.673-1.876c-2.456-0.905-5.753-3.198-4.429-6.143c-0.192,1.488,0.613,2.944,1.973,3.494
		c3.234,1.099,7.274,0.614,10.346,1.743c1.002-0.612,0.776,0.519,1.294,0.905c1.162,0.033,2.491,0.388,3.719,0.582
		C44.725,206.173,44.822,206.659,44.625,207.046z M34.564,200.181c0-0.274,0.314-0.498,0.706-0.498c0.388,0,0.705,0.224,0.705,0.498
		s-0.317,0.498-0.705,0.498C34.878,200.679,34.564,200.455,34.564,200.181z M44.271,199.707c-2.616-0.031-4.985,0.726-7.606,0.691
		c-0.433,0.681-0.405,0.367-0.287-0.215c-0.081-0.996-1.354-1.414-1.999-0.833c-0.225,0.369-0.321,0.824-0.232,1.2
		c0.351,0.471-0.16,0.145-0.43-0.016c-1.521-0.874-3.314-0.932-4.931-1.508c-0.873-0.354-0.551-1.388-0.451-2.003
		c0.999-1.52,1.743-3.168,2.907-4.656c5.979-0.031,10.638,0.55,16.166,0.71c-0.354,2.395-1.165,4.592-1.488,6.983
		C45.369,199.932,44.207,200.87,44.271,199.707z M53.358,211.702c-2.299-0.063-4.688-0.258-6.63-0.808
		c-1.387-0.583-1.162-2.037-1.517-3.136c0.647-5.173,1.905-10.346,3.133-15.391c0.681-0.775-0.417-2.198,0.94-2.328
		c-0.033,0.614-0.484,1.261,0.129,1.747c0.614-0.422,1.208-0.699,1.435-1.637c0.614-1.359-0.792-1.792,0.184-3.021
		c-0.457-0.291-0.067-0.774-0.36-0.903c1.813,0.16,3.622-1.424,5.24,0c0.806,0.903,1.403,2.061,1.295,3.135
		c-0.627-0.583-0.519-1.26-1.07-1.647c-1.357,0.354-2.875,0.579-3.814,1.647c-0.258-0.194-0.647-0.324-0.709,0.097
		c0.743,4.688-1.748,8.438-1.748,12.803c-1.262,2.168-0.095,5.821-3.364,6.662c-0.287,0.063-0.417,0.449-0.354,0.808
		c1.842,1.648,4.35,1.865,6.609,0.896c2.946-1.747,1.054-4.744,1.184-7.072c-0.192-1.002-0.097-2.101-0.129-3.137
		c-0.84-0.681-2.069,0.452-2.778-0.581c0.129-2.556,1.064-5.075,1.611-7.564c1.392-0.454,2.817-1.067,4.333-0.809
		c0.23-0.099,0.097-0.338,0.289-0.531c-0.519-2.877,1.027,0.54,1.2,1.34c0.095,0.225,0.292,0.386,0.483,0.579
		c-1.488,2.75-3.652,5.432-4.428,8.603c0.354,2.554,0.195,5.561,0.811,7.693C55.167,210.41,53.939,210.927,53.358,211.702z
		 M135.545,219.042c-16.554,0.744-32.461,0.289-49.016-1.391c-2.749-0.194-7.834-0.793-8.957-1.065
		c-7.918-1.167-15.84-2.685-23.762-4.527c0.162-0.131,0.292-0.325,0.483-0.227c13.13,3.201,26.737,5.238,40.256,5.562
		c5.656,0.904,11.798,0.614,17.585,1.165c12.288,0.126,26.899,0.581,39.448-1.748c1.291-0.258,2.518-1.423,3.845-0.809
		C149.836,218.783,142.009,218.364,135.545,219.042z M118.665,213.447c-1.127-0.549-1.712-1.714-1.743-2.907
		c3.005-0.293,6.143,1.002,9.309,0.71c0.616,1.357,3.072,0.775,4.526,0.907c0.743,0.062,1.91,0.481,2.457-0.325
		c4.688-0.033,9.927,1.519,14.779,0.451c3.038,1.067,6.141,0.455,9.179,0.13c2.557,0,5.432,1.843,8.051,0.325
		c3.752,0.646,7.342-0.811,11.055,0.354c3.076,0,4.593-3.072,6.146-5.237c-0.518,2.65-2.618,6.176-5.819,6.628
		C157.013,216.94,138.195,213.966,118.665,213.447z M161.02,219.042c-1.002-0.194-2.294,0.39-3.264,0
		c2.717-0.678,5.659-0.84,8.275-1.745c0.975-0.356,1.588-1.555,2.782-1.391C167.132,218.429,163.641,218.008,161.02,219.042z
		 M184.043,239.154c-3.882-3.391-7.117-9.936-8.474-14.875c-1.003-2.685-1.291-5.821-1.97-8.729c0.094-0.194,0.386-0.097,0.58-0.132
		c1.458,8.343,3.881,16.2,9.182,22.699c1.488,1.26,2.751,2.393,4.431,3.137C186.896,241.329,185.241,240.203,184.043,239.154z
		 M201.178,231.135c-1.813,2.877-4.011,5.786-7.695,6.174c-2.943,0.066-4.947-2.91-6.401-5.108
		c-3.398-6.337-4.915-14.291-4.982-21.531c0.746-1.521,1.067-3.233,1.749-4.786c-0.55,7.339-0.036,14.484,4.169,20.5
		c1.391,1.292,2.59,3.3,4.429,2.551c6.025-1.382,7.309-8.858,8.863-14.321c1.323-8.568,1.099-17.686-3.85-24.668
		c-0.975-1.19-2.62-2.814-4.66-2.457c-3.132,0.969-3.972,3.62-5.718,5.948c-1.584,3.426-2.394,7.372-3.009,11.058
		c-0.029,0.096-0.446-0.638-0.636-0.764c-1.058-0.264-0.157-1.475-0.301-2.275c-0.259-3.59,1.713-6.984,2.327-10.347
		c2.165-4.851,5.076-9.311,9.895-12.124c6.047,1.875,7.438,8.826,9.539,13.739C208.03,205.463,206.868,219.237,201.178,231.135z
		 M193.967,206.594c-1.906-0.098-3.46-0.938-5.237-1.292c0-0.099,0-0.132,0-0.228c1.483,0.713,3.653,0.389,5.237,1.262
		c0.551-1.004,1.615-2.296,0.681-3.491c-1.651-2.618-4.367-3.88-5.82-6.629c-0.033-0.194-0.292-0.033-0.326-0.225
		c-0.937,1.163-0.998,2.713-1.746,3.94c-0.557-2.029,1.867-6.477,4.398-7.563c0.227-0.065,0.293,0.163,0.486,0.129
		c-0.681,0.484-1.651,0.938-1.748,1.876c0.321,0.905,0.681,2.068,1.521,2.554c0.909-0.322-0.259-0.775,0.098-1.165
		c1.262,1.555,2.778,3.363,3.267,5.237c1.101,0.39,1.127,2.717,2.554,1.522c-0.586-2.846-2.523-4.788-2.913-7.698
		c1.843,0,2.135,2.104,2.913,3.266c0.581,2.138,0.806,3.755,0.71,6.047c-0.45-0.258-1.036-0.483-1.521-0.227
		c-1.713,1.198-1.905,3.008-2.103,4.884c-2.941-0.614-5.721,0.193-8.598-0.227c-0.034-0.13,0.065-0.194,0.094-0.227
		c2.716,0.323,5.659-0.195,8.149,0C194.226,207.79,194.355,206.886,193.967,206.594z M195.529,210.872
		c0.647-0.68,0.701-1.919,1.801-2.209c0.547,0,1.162,0.096,1.65-0.097c-0.196,1.584-0.259,3.751-2.007,4.655
		c-0.968,0.518-1.456-0.904-1.843-1.52c-0.483-2.586-0.422-5.658,1.743-7.338c1.037-0.194,1.588,1.033,1.848,1.746
		c0,0.678,0.613,2.003-0.101,1.972c-0.356-1.102-0.159-2.524-1.388-3.137C194.626,205.557,195.345,210.65,195.529,210.872z
		 M189.763,224.734c0.552,0.191,1.323,0.225,1.747-0.229c0.322-0.484,0.873,0.163,1.289-0.226c0.876-0.614,1.427-3.653,2.913-1.746
		c0.679-0.259,0.778-1.003,0.808-1.648c0.163-0.323-0.227-0.583-0.451-0.678c-0.551,0.354-0.873-0.194-0.486-0.584
		c0.548-0.678,0.908-1.68,0.581-2.457c-0.968,0.648-0.709,1.779-1.615,2.685c-0.712,0.969-1.488,1.519-2.457,2.103
		c1.813-2.813,3.915-5.531,5.368-8.506c0.355,1.909-0.618,3.106-0.975,4.917c0.679,0.744,1.07-0.421,1.556-0.843
		c0.525-0.405,1.027-1.736,1.358-2.435c0.112-0.249,0.268-0.157,0.207,0.119c-0.767,3.576-2.832,7.551-5.414,10.463
		c-0.903,0.613-1.87,1.1-2.908,1.392c-0.096,0.225,0.129,0.32,0.227,0.484c6.337-2.361,8.114-9.281,9.212-15.132
		c0.615-6.046,0.356-14.45-3.392-20.271c-1.359-1.422-2.683-3.394-4.885-3.006c-2.778,0.904-3.91,3.91-5.462,6.046
		c-0.066-1.845,1.713-2.974,2.198-4.203c1.291-1.166,2.294-2.748,4.204-2.781c4.654,0.68,5.85,6.045,7.077,9.766
		c2.267,9.536,0.941,20.207-4.653,28.063c-1.003,1.424-2.996,3.066-4.526,2.196c-4.591-2.974-7.106-10.995-6.756-13.158
		C185.401,218.653,186.111,222.729,189.763,224.734z M272.886,203.909c-18.944,5.628-38.891,9.118-58.325,13.161
		c0.452-1.683,1.715-2.717,2.327-4.332c4.012-8.279,1.584-18.914-1.032-27.676c-1.683-4.074-4.885-8.472-9.443-8.861
		c-7.726-1.679-14.452,3.461-18.977,9.539c-1.938,3.137-2.942,6.401-3.944,9.797c-3.685-0.161-6.693,0.873-10.379,0
		c-2.424-3.43-4.688-7.728-9.409-8.148c-3.974-1.292-7.662-2.199-11.766-3.168c-1.449,0.002-7.375-1.391-10.574-1.973
		c-0.185-0.036-0.185-0.477,0-0.679c2.229-2.359,4.688-5.334,7.566-7.34c0.42,3.2,2.653,5.982,4.885,8.245
		c1.816,1.552,6.779,4.25,10.7,2.229c4.75-2.618,5.69-7.789,5.949-12.576c-0.326-4.719-2.428-10.151-7.244-11.994
		c0.873-0.064,2.265-1.65,3.491-0.583c6.724-1.812,14.228-3.589,20.854-5.012c-0.197-0.162-0.094-0.452-0.129-0.679
		c9.568-1.843,19.074-1.778,29.323-1.875c0.098-0.064,10.345,0.291,15.489,0.808c1.777,1.229,2.649,3.266,2.553,5.498
		c0.067,1.13,0.872,1.614,1.424,2.552c-6.077,0.713-13.19,0.42-19.337,1.165c-13.967,0.969-27.125,2.879-40.382,5.595
		c-1.066,0.291-2.228,0.71-2.813,1.744c-0.289,0.517-0.191,1.036,0.13,1.487c1.358,0.583,3.041,0.873,4.428,0.485
		c19.012-4.139,38.637-5.819,58.201-6.627c0.096,0.581,0.226,1.164,0.353,1.746c-2.167,0.323-5.012-0.193-6.657,0.452
		c2.163,0.615,4.653-0.194,6.657,0.228c1.521,13.257,0.778,27.836-1.164,41.222c0.1,0.065,0.163,0.291,0.326,0.227
		c13.35-2.359,26.219-5.366,39.245-8.859C274.926,201.324,274.346,202.876,272.886,203.909z M286.721,206.388
		c-0.551-1.906-0.413-3.996-0.803-5.97c0.098-0.097,0.13-0.161,0.227-0.226c0.838,4.851,1.972,10.668,6.531,13.613
		C289.412,212.738,287.982,209.138,286.721,206.388z M300.823,209.73c-0.924,1.142-2.199,2.618-3.849,1.843
		c-5.625-3.07-6.498-9.636-6.887-15.455c0.551-0.581,0.939-1.745,1.421-2.102c0.326,3.653,0.358,8.311,2.332,11.735
		c1.099,1.004,2.694,1.211,3.802,0.318c3.233-3.653,3.678-8.869,3.97-13.375c0.063-4.783,0.535-10.933-2.537-15.33
		c-0.709-0.517-1.42-0.969-2.327-0.936c0.485-1.361,1.713-2.685,3.234-2.781c1.194,0.096,1.551,1.034,2.006,1.972
		C304.93,186.192,305.219,199.611,300.823,209.73z M298.236,192.045c0.191-0.098,0.191,0.193,0.354,0.097
		c0.098-0.518,0.281-0.703,0.771-0.768c-0.034-0.744,0.04-1.562-0.189-2.238c-0.644,0.194-0.744,1.034-0.936,1.615
		c-0.348-0.16,0.225-2.166,0.839-3.037c1.004,1.097,0.824,2.142,1.099,3.593c0.098,1.196-0.32,3.196-1.099,4.455
		C298.107,194.857,298.528,193.436,298.236,192.045z M297.655,198.544c-0.484,1.745-1.554,3.265-3.363,3.848
		c1.551-1.845,3.363-3.943,3.944-6.4C298.688,196.732,297.978,197.769,297.655,198.544z M300.401,190.916
		c-0.352-3.281-0.139-6.681-1-9.928c-0.713-1.067-1.002-2.91-2.556-3.04c-0.581,0.16-1.162-0.195-0.452-0.583
		c0.322-0.386,0.969-0.259,1.393-0.127c1.937,1.518,2.196,4.072,2.681,6.173c0.294,7.503,1.097,18.249-3.037,22.018
		c-0.814,0.347-1.378,0.813-2.202,0.228c1.262-0.064,2.587-0.582,3.139-1.972c1.354-2.926,1.595-6.486,1.962-9.713
		C300.401,193.347,300.447,191.325,300.401,190.916z M297.655,178.756c1.617,2.555,2.198,5.692,2.23,8.958
		c-1.616-1.651-0.518-3.785-1.649-5.692c-0.45-1.261-0.71-3.298-2.553-3.266C296.456,178.318,296.97,178.392,297.655,178.756z
		 M298.366,187.487c-0.423,1.323-0.711,2.584-0.811,3.977c-1.68-1.328,0.583-4.398-2.229-5.237
		c-0.811,0.225-0.259,1.648-1.392,0.452c0.356-1.391,0.647-2.879,1.521-3.946C296.23,184.381,297.621,185.804,298.366,187.487z
		 M295.327,203.78c1.613-0.936,1.613-2.747,2.586-4.073c0.098,0.52,0.565,0.068,1.259-0.582c-0.644,2.004-0.806,4.396-2.683,5.723
		c-0.692,0.402-1.745,0.517-2.424-0.128c-0.325-0.355-0.388-0.777-0.579-1.165C294.032,203.459,294.646,204.234,295.327,203.78z
		 M316.764,185.158c-3.494,2.846-7.05,4.882-11.061,6.53c-0.322-1.323,1.459-1.713,1.745-2.91
		c1.943-4.429,2.361-10.636,0.101-14.774c-1.716-2.587-5.104-1.455-7.437-1.293c-7.115,3.071-5.466,11.993-7.793,17.91
		c-1.65,4.172-4.591,9.185-9.313,10.249c-2.716,1.262-5.916,1.78-8.858,2.685c2.457-3.137,1.974-7.758,2.813-11.282
		c0.259-7.339,1.034-12.321,0.584-19.789c13.254-2.164,27.966-2.974,41.901-4.557c0.161,1.583-0.228,3.006-0.261,4.914
		c1.195,0.129-0.161,1.422-0.226,1.973c-0.225,0.064-0.517,0.354-0.581,0.581C318.023,178.595,317.828,182.411,316.764,185.158z
		 M320.707,183.187c-0.969,0.194-1.65,2.359-2.423,1.163c1.291-3.491,0.467-6.662,1.6-10.221c0.39-0.127,1.049-0.415,1.308-0.838
		c0.062-0.549-0.552-0.87-0.936-1.034c0.522-0.183,1.813,0.211,2.14,0.955c0.45,0.614-0.494,0.533-0.753,0.792
		c-0.483,0.904-1.584,0.161-1.617,1.389c0.52,1.292-0.546,2.555,0,3.719c0.941-0.129,0.553-1.552,0.812-2.102
		c0.225-1.067,1.228-2.004,1.617-2.555C322.68,177.238,323.485,180.89,320.707,183.187z"/>
	<path d="M31.112,194.113c-0.811,1.263-2.102,2.521-2.068,4.204c0.581,0.323,1.227,0.839,1.973,0.452
		c-0.486-1.067-0.097-1.94,0.095-3.008c0.164-0.58,1.132-0.678,0.84-1.52C31.631,194.34,31.406,194.113,31.112,194.113z"/>
	<path d="M47.311,171.547c1.258-3.233,0.486-7.663-2.23-10.25c-1.1-0.646-2.415-1.372-3.72-0.937
		c-1.228,0.453-2.418,1.082-3.008,2.23c-2.264,3.625-2.131,8.217-0.259,10.929c0.845,1.519,2.491,2.457,4.204,2.553
		C44.692,175.782,46.63,173.745,47.311,171.547z M39.745,174.683c-0.192-1.002,1.421-0.583,1.036-1.518
		c1.326,0.225,1.742-1.198,2.458-1.845c1.065-0.614,1.132-1.746,2.198-2.458c-0.355-0.873-0.936,0.161-1.522,0.13
		c-0.191,0.84-1.616,0.389-1.616,1.519c-0.807-0.26-0.937,0.972-1.517,0.454c-0.584-0.129-0.584,0.71-1.036,0.355
		c-0.581,0.907-0.84-0.128-1.521,0.227c-0.389-0.355-0.129-1.487-0.806-1.163c-0.129-0.552-0.226-1.068-0.356-1.617
		c0.519-0.324,0.743-0.647,1.162-1.163c0.292,1.42,1.133-0.842,1.521,0.225c0.452,0.065,0.743-0.259,1.036-0.583
		c0.774,0.259,1.618-0.322,2.328-0.127c0.322-1.358-1.521-1.392-2.199-1.974c-1.357,1.036-0.811-1.196-2.101-0.581
		c-1.392-0.42-0.326-1.392,0.129-2.102c1.098,1.648,2.744-1.293,3.489,0.938c0.325-0.129,0.455-0.258,0.811-0.129
		c0.096,0.58,0.26,0.419,0.676,0.58c0.681,0.874,1.359,2.201,2.683,2.006c0.23,0.324,0.13,0.938,0.714,0.905
		c0.322,2.78-0.552,6.758-3.622,8.502C42.269,175.684,40.91,175.587,39.745,174.683z"/>
	<path d="M39.164,196.572c-0.907,0.841-2.169,1.616-2.231,3.039c2.007,0.031,3.619-1.134,5.591-0.713
		c0.619,0.033,2.103,0.55,2.461-0.45c-1.262-0.454-2.427-1.035-3.718-1.294C40.618,196.861,39.842,196.377,39.164,196.572z"/>
	<path d="M49.284,201.454c-0.259-1.228,1.518-2.651-0.13-3.365c0.71-1.129,0.548-2.196,1.067-3.395
		c-0.034-0.709,0.614-1.809-0.129-2.197c-0.356,1.327-0.616,2.716-1.392,3.849c-0.486,3.426-0.773,7.24-1.972,10.119
		c0.067,0.741-1.1,1.261-0.356,1.972C48.084,206.432,49.313,204.201,49.284,201.454z"/>
	<path d="M75.699,200.999c-1.356,1.197-2.783-0.873-4.304,0c-0.867-2.358-3.556-0.71-5.104-1.519
		c-2.041-1.518-3.332,1.553-5.141,1.974c0,0.129,0,0.226,0,0.354c3.138-0.535,5.561-0.08,8.144,0.583
		c0.94,0.549,2.006,0.031,2.816-0.454c0.873,0.259,1.984,0.098,2.469,1.035c1.358,0.484,2.248-0.712,3.352-0.937
		C78.025,200.645,76.28,201.355,75.699,200.999z"/>
	<path d="M97.609,180.662c0.006-0.056-0.04-0.107-0.14-0.153c-0.102-0.049-0.226-0.074-0.369-0.086
		c-0.146-0.008-0.268,0.006-0.376,0.037c-0.107,0.033-0.162,0.079-0.167,0.134l-0.027,0.409l1.052,0.068L97.609,180.662z"/>
	<path d="M75.699,178.983c-4.011,0.289-8.87,0.032-12.764,0.438l-1.654,0.035l-0.44,0.331l-1.027,1.47l-0.075,0.92l3.856-0.039
		l-0.033-2.203l1.562-0.015c-0.581,0.774,0.327,1.098,0.227,1.648l0.008,0.387l3.31-0.146l0.07-1.544
		c0-1.099,0.881-0.798,1.497-0.701c-0.196,0.486-0.096,0.647-0.129,1.165l-0.043,1.116l4.224,0.11l-0.07-2.389
		c0.936,0.228,2.971-0.876,1.613,1.064l0.037,1.14l4.224,0.111l0.185-2.461c0.715,0.031,0.339-0.149,1.014,0.046
		c0.033,0.678-0.094,1.262,0.13,1.975l0.104,0.367h4.705l0.071-2.353l1.324,0.036c-0.137,1.092,0.737,2.463,0.737,2.463
		s3.238,0.047,3.894,0.072c1.133-0.29-0.396-1.874,0.185-2.424c1.454,0.291,1.235-0.268,2.594,0.221
		c-0.198,0.612-0.69,1.563-0.724,2.24c0.958,0.258,4.155,0.587,4.669,0.295c0.183-0.624,0.355-1.692,0.259-2.24
		c1.55,0.097-0.088,0.049,1.433,0.146c2.035-0.129,0.38,1.814,1.027,2.719c1.004-0.258,3.261,0.737,4.262,0.478
		c0.13-0.42,0.49-2.114,0.585-2.535c0.481-0.148,0.901,0.486,2.683,0.258c-0.16,0.518-0.219,2.572-0.219,2.572l3.564,0.66
		c0,0,0.824-1.814,0.728-2.848c1.617,0.162,1.458,0.348,2.946,0.864c-0.228,0.873-0.648,1.492-0.259,2.463
		c0.583-0.033,3.456,0.941,4.069,0.844c0.375-0.919,0.907-1.457,0.81-2.554c1.421,0.484,3.715,0.259,4.429,2.102
		c0.485,2.813,4.204,4.622,4.43,7.563c0.372,1.242-0.494,2.913-1.508,3.991c-0.309,0.327-0.228,0.484,0.225,0.213
		c0.548-0.326,1.366-0.959,1.51-1.648c0.967-3.62-1.359-6.37-3.848-8.86c-0.13-1.13-0.581-2.293-1.522-2.779
		c-8.21-2.619-17.457-3.459-25.701-4.203C94.495,179.078,82.347,178.197,75.699,178.983z M62.675,181.814
		c-0.191,0.08-0.425,0.125-0.697,0.133l-0.497,0.016c-0.33,0.007-0.581-0.018-0.748-0.077c-0.167-0.061-0.254-0.154-0.259-0.28
		l0.497-0.016c0,0.016,0,0.025,0,0.032c0,0.055,0.054,0.092,0.16,0.116c0.104,0.022,0.221,0.033,0.342,0.03
		c0.179-0.006,0.306-0.023,0.381-0.061c0.074-0.034,0.111-0.086,0.111-0.147c-0.003-0.049-0.054-0.092-0.149-0.133l-1.069-0.425
		c-0.197-0.077-0.297-0.168-0.297-0.264l-0.005-0.096c-0.003-0.104,0.089-0.199,0.281-0.28c0.191-0.082,0.426-0.126,0.697-0.133
		l0.498-0.014c0.623-0.019,0.957,0.101,1.007,0.355l-0.498,0.014c-0.045-0.126-0.205-0.188-0.472-0.179
		c-0.176,0.005-0.305,0.024-0.393,0.059c-0.088,0.036-0.129,0.086-0.129,0.15c0.005,0.048,0.054,0.092,0.151,0.132l1.068,0.428
		c0.198,0.077,0.298,0.166,0.302,0.262v0.098C62.959,181.64,62.867,181.731,62.675,181.814z M68.484,180.063l-0.992-0.003
		l-0.003,1.54h-0.994l0.003-1.54l-0.995-0.001v-0.192l2.98,0.005V180.063z M73.594,181.253c-0.005,0.106-0.105,0.197-0.305,0.27
		c-0.2,0.077-0.439,0.108-0.715,0.103l-1.015-0.017c-0.28-0.006-0.514-0.048-0.715-0.129c-0.196-0.082-0.292-0.177-0.292-0.282
		l0.029-1.375l1.016,0.019l-0.029,1.375c-0.006,0.052,0.046,0.101,0.146,0.141c0.096,0.041,0.216,0.063,0.354,0.064
		c0.143,0.001,0.265-0.017,0.359-0.054c0.1-0.034,0.152-0.08,0.158-0.133l0.027-1.375l1.013,0.021L73.594,181.253z M79.79,181.164
		c-0.004,0.107-0.104,0.198-0.308,0.267c-0.202,0.071-0.44,0.103-0.715,0.095l-2.028-0.064l0.063-1.766l2.032,0.064
		c0.274,0.008,0.509,0.054,0.705,0.137c0.196,0.086,0.292,0.181,0.289,0.288L79.79,181.164z M116.768,182.689l2.219,0.286
		c0.3,0.039,0.557,0.114,0.761,0.227c0.203,0.114,0.294,0.229,0.279,0.345l-0.016,0.117c-0.014,0.096-0.114,0.176-0.298,0.242
		c-0.185,0.068-0.472,0.075-0.873,0.025c0,0,0.894,0.36,0.995,0.415c0.104,0.058,0.045,0.384,0.037,0.442l-0.292,0.367l-0.883-0.249
		l0.097-0.644c0.007-0.059-0.042-0.117-0.143-0.173c-0.103-0.055-0.23-0.094-0.383-0.113l-0.557-0.071l-0.125,0.858l-1.107-0.141
		L116.768,182.689z M109.832,181.616l2.683,0.241l-0.024,0.216l-1.594-0.139l-0.07,0.635l1.094,0.104l-0.024,0.211l-1.095-0.106
		l-0.072,0.636l1.587,0.166l-0.021,0.217l-2.677-0.277L109.832,181.616z M102.266,180.714l1.07,0.084l-0.067,0.763l1.8-0.627
		l0.949,0.076l-2.231,0.765l2.059,1.103l-1.075-0.084l-1.541-0.854l-0.067,0.728l-1.069-0.085L102.266,180.714z M95.508,180.526
		c0.008-0.111,0.119-0.2,0.331-0.268c0.213-0.067,0.463-0.09,0.748-0.073l1.056,0.068c0.289,0.021,0.532,0.076,0.732,0.169
		c0.2,0.095,0.296,0.198,0.289,0.307l-0.109,1.425l-1.05-0.065l0.059-0.814l-1.053-0.07l-0.062,0.816l-1.049-0.067L95.508,180.526z
		 M88.969,179.837l2.064,0.111c0.284,0.015,0.272,0.031,0.477,0.123c0.202,0.09,0.296,0.191,0.293,0.304l-0.009,0.102
		c-0.008,0.118-0.102,0.209-0.28,0.268c-0.179,0.057-0.189,0.105-0.535,0.103c0.343,0.021,0.352,0.055,0.52,0.146
		c0.17,0.091,0.25,0.188,0.246,0.297l-0.009,0.104c-0.004,0.111-0.116,0.2-0.331,0.269c-0.209,0.072-0.2,0.099-0.48,0.083
		l-2.068-0.11L88.969,179.837z M82.852,179.722l2.583,0.112l-0.013,0.2l-1.545-0.067l-0.033,0.6l1.035,0.046l-0.007,0.198
		l-1.036-0.044l-0.03,0.6l1.547,0.067l-0.009,0.2l-2.583-0.113L82.852,179.722z"/>
	<path d="M78.67,180.008c-0.097-0.041-0.217-0.063-0.356-0.068l-0.505-0.017l-0.054,1.372l0.511,0.017
		c0.138,0.005,0.258-0.01,0.359-0.046c0.1-0.035,0.154-0.081,0.154-0.133l0.037-0.981C78.816,180.097,78.771,180.051,78.67,180.008z
		"/>
	<path d="M90.836,180.681c0.106-0.033,0.16-0.08,0.165-0.133l0.008-0.202c0.003-0.054-0.042-0.103-0.143-0.147
		c-0.1-0.044-0.216-0.069-0.359-0.078l-0.517-0.026l-0.039,0.6l0.518,0.027C90.611,180.727,90.733,180.714,90.836,180.681z"/>
	<path d="M90.963,181.147c0.007-0.135-0.163-0.209-0.505-0.229l-0.519-0.025l-0.038,0.6l0.518,0.027
		c0.142,0.008,0.263-0.008,0.368-0.04c0.106-0.034,0.159-0.077,0.163-0.132L90.963,181.147z"/>
	<path d="M118.704,183.75c0.116-0.028,0.177-0.07,0.187-0.13l0.029-0.215c0.009-0.058-0.039-0.117-0.142-0.173
		c-0.1-0.057-0.229-0.092-0.381-0.113l-0.556-0.071l-0.095,0.644l0.557,0.073C118.452,183.783,118.586,183.78,118.704,183.75z"/>
	<path d="M81.646,190.525c0.646,0.129,1.746,0.194,1.617,1.163c0.292,0,0.518-0.13,0.714-0.354c0.227-0.389,0.807-0.904,0.356-1.294
		c-5.596-0.71-11.189-2.102-16.557-3.719c-0.031,0.065-0.128,0.13-0.094,0.226C72.24,188.035,76.861,189.458,81.646,190.525z"/>
	<path d="M91.766,173.066c-8.567,0.355-16.067,0.065-23.86,1.617c0,0.13,0,0.226,0,0.355c2.165,0.065,4.818-1.099,7.111-0.355
		c5.37-0.969,11.317-0.938,16.749-1.392C91.766,173.195,91.766,173.165,91.766,173.066z"/>
	<path d="M88.986,177.238c-0.033,0.031-0.096,0.096-0.129,0.127c0.744,0.777,2.068-0.321,3.038-0.127
		c0.033,0.483-0.485,0.84,0.1,1.064c1.873-0.518,3.715-1.356,5.721-1.162c1.036-0.648,2.068,0.098,2.912,0.679
		c0.84-0.713,2.228-1.358,2.648,0.259c2.524,0.711,5.24-0.809,7.923-0.938c1.358-0.097,2.749,0.679,3.847,0.225
		c-3.814-1.422-7.921-0.711-12.091-0.581c-0.841-1.777-2.073-0.13-3.268-0.13c-1.938-1.163-3.978-0.162-6.047,0
		C91.928,175.458,90.474,177.979,88.986,177.238z"/>
	<path d="M102.599,174.456c1.743,0.388,3.264,0.193,5.009,0.583c-0.936,0.291-1.778,0.389-2.585,0.355
		c-0.812,0.194-1.747-0.485-2.068,0.356c3.264,0.258,7.628-0.033,10.925,0.226c0.648,0.485,1.488,0.485,2.328,0.454
		c1.036,1,2.587,0.127,3.719,0c0.389-0.422,1.07,0.387,1.165-0.229c-4.139-1.487-7.373-0.904-11.736-1.874
		c-0.873-0.323-2.23,0.581-2.812-0.583c-0.873,0.777-2.232,0.389-3.364,0.484C102.599,173.745,101.337,173.649,102.599,174.456z"/>
	<path d="M115.627,205.752c-0.096-0.807,1.325-1.323,0.806-2.424c-0.383-0.775-1.548-2.135-2.422-0.937
		c-0.355-0.777,0.81-1.521,1.036-2.33c-0.162-0.419-1.423-0.806-0.455-1.292c1.132-0.129,2.331-0.129,3.362-0.452
		c0.163-0.29,0.163-0.873,0-1.036c-0.545-0.871-1.161,0.163-1.875,0c-0.419-0.42-1.646,0.358-1.488-0.709
		c-2.035,0.452-2.198-1.94-3.038-3.041c0.259-0.581,0.97-0.29,1.391-0.322c-0.196-0.712-1.002-1.326-0.681-2.102
		c-1.032,0.033-1.132,1.034-1.875,1.52c-0.581-0.389-1.325-0.613-1.743-1.163c-0.292,0.45-0.222,1.325-0.093,2.163
		c0.147,3.231,1.322,2.719,2.42,4.336c0.13,3.137-0.13,6.659-0.711,9.796c-1.232,1.194,0,2.941-0.583,4.398
		c-0.259,1.71-2.746,0-2.553,1.648c0.226,1.193,0.292,2.521,1.746,2.78c2.844-0.131,5.433-1.167,7.692-2.426
		C115.109,211.928,114.754,208.34,115.627,205.752z"/>
	<path d="M116.922,178.078c-1.295,0.969-2.716-0.485-4.072,0.324c-1.229,0.581-3.364-1.262-4.075,0.71
		c0.485,0.388,1.195-0.129,1.843-0.129c0.259,0.517,0.772,0.873,1.292,0.938c2.264-0.584,3.943,1.033,6.174,0.938
		c0-0.098,0-0.129,0-0.227c-1.713-0.42-3.521-0.905-5.01-1.648c0.84,0.227,2.232,0.098,3.134,0.129
		c1.099,0.969,2.557,1.067,3.719,0.809c0.226-0.84,1.099-0.161,1.651,0c0.32-0.226,0.969,0.13,1.391,0
		c-1.329-1.099,0.903-1.099,0.936-1.973c-0.096-0.324-0.452-0.583-0.84-0.454C120.8,177.819,119.121,178.272,116.922,178.078z"/>
	<path d="M125.748,180.729c-0.681,0.129-1.454,0.225-2.102,0.483c-1.003,0.39-2.165-0.354-2.907,0.455
		c1.256,0.516,3.036,0.451,4.428,0.935c3.003-0.03,0.807,4.044,3.264,4.885c0.647-2.005,1.035-4.106,1.875-6.045
		c0.228-0.974,1.422-1.683,1.262-2.687c-0.94-1.357-2.783-0.776-4.074-0.937c-0.225,1.067-0.777,2.231-1.97,2.006
		C125.456,180.146,126.006,180.438,125.748,180.729z"/>
	<path d="M131.697,189.717c0.063,0.904-2.039,1.842-0.584,2.425c0.714-0.518,1.424-1.228,1.615-2.102
		c-0.128-2.716-0.451-5.302,1.973-6.984c-1.743,2.977-0.13,7.211-2.907,9.895c-1.521-0.161-0.424,1.358-0.909,2.103
		c1.229-0.454,2.104-1.586,2.913-2.685c0.259-2.458,2.211-3.319,2.627-5.647c0.907-1.132-0.915-0.52-1.076-0.196
		c-0.737,0.44-0.08-0.754-0.052-0.979c0.648-1.005,1.634-2.33,3.154-1.906c0.26-0.584,1.229-1.004,0.809-1.747
		c-1.614-0.419-3.16-0.693-4.844-0.953c-0.548-0.259-0.844-1.375-1.558-1.244c-0.483,0.969,0.777,1.486,1.165,2.197
		C131.371,184.091,132.57,186.999,131.697,189.717z"/>
	<path d="M138.68,195.053c-0.322-1.327-2.52-0.066-2.232-1.617c-0.84,0.71-1.584,2.166-2.068,3.266
		c0.906-0.485,2.232-0.066,3.234-0.355c0.322-0.228-0.067-0.485-0.096-0.713c0.772-0.321,2.552,0.26,2.326-0.938
		C139.587,195.148,139.006,194.762,138.68,195.053z"/>
	<path d="M140.651,192.368c-1.099-0.13-2.293-0.065-3.133-0.904c-0.292-0.065-0.873-0.485-0.714,0.225
		c0.355,0.419,0.906,0.874,1.648,0.68c0.615,0.483,1.81,0.873,1.749,1.745c0.71-0.388,1.228-1.293,1.487-2.068
		C141.3,191.205,141.041,192.174,140.651,192.368z"/>
	<path d="M164.514,190.17c-3.848-0.907-7.631-1.939-11.512-2.683c-2.102-0.033-4.136-0.905-6.53-0.582
		c-2.75,1.68-3.848,5.076-5.596,7.693c-0.062,1.034-0.062,2.134,0.94,2.683c6.046,0.939,11.867,1.359,17.913,2.33
		c3.297-0.646,5.433-4.333,6.076-7.339C165.905,191.495,165.257,190.525,164.514,190.17z M161.472,198.317
		c-0.581,0.421-1.387,0.647-1.973,0.71c-5.945-1.033-11.247-1.163-17.327-2.23c-0.422-0.517-1.166-1.229-0.709-2.103
		c1.486-2.422,2.716-5.073,4.653-7.207c6.271-0.357,12.155,1.843,17.946,3.038c0.419,0.129,0.807,0.389,1.162,0.809
		C165.189,194.017,163.803,196.829,161.472,198.317z"/>
	<path d="M161.957,191.334c-3.264-0.969-6.887-1.358-10.021-2.328c-1.106,0.115-2.427-0.228-3.493-0.452
		c-3.364-0.775-3.425,3.428-4.879,5.236c-0.778,0.421-1.004,1.94-0.23,2.426c5.595,0.938,10.541,0.711,16.165,2.232
		c2.265-0.648,3.396-3.235,3.847-5.37C163.477,192.045,162.412,191.914,161.957,191.334z M162.769,193.209
		c-0.424,1.777-1.521,3.751-3.14,4.655c-5.432-1.035-10.7-1.292-16.194-2.231c-0.293-1.26,0.969-1.582,1.162-2.683
		c0.708-1.424,1.228-3.752,3.171-3.814c4.655,0.031,9.405,1.615,13.833,2.651C162.086,192.107,162.93,192.402,162.769,193.209z"/>
	<path d="M151.937,186.451c2.261,0.228,4.232,1.876,6.4,1.617c-1.907-1.069-4.461-1.034-6.4-2.328
		c-0.614,0.517-1.328-0.421-1.972-0.228c-0.388,0.325-1.004,0.228-0.94,0.938C149.931,186.613,151.031,186.613,151.937,186.451z"/>
	<path d="M156.236,189.458c0.388,0.228,1.419,0.452,1.419,0c-2.099-0.485-4.298-1.488-6.4-1.261
		c-0.225-0.129-0.968-0.322-0.838,0.226C152.163,188.585,154.62,188.683,156.236,189.458z"/>
	<path d="M227.593,178.528c0,6.437-1.037,11.447,0,17.59c0.514,0.517,1.258,0.906,1.974,0.583c0.867-0.355,1.128-1.068,1.646-1.747
		c0.483-4.105,0.483-8.146,0.681-11.994c0.192-1.941,0.355-4.269-1.037-5.595C229.853,177.915,228.14,177.106,227.593,178.528z
		 M230.855,194.017c-0.292,0.745-0.579,1.616-1.289,2.102c-0.486,0.033-1.618,0.454-1.618-0.485c-0.873-3.686,0.158-7.758,0-11.735
		c0.03-1.714-0.096-3.362,0.13-5.142c0.615-0.937,1.617-0.647,2.553-0.678c0.97,1.065,0.581,2.617,0.806,3.943
		C231.601,185.577,230.729,190.33,230.855,194.017z"/>
	<path d="M273.212,179.337c0.581-0.064,0.355-0.809,0.711-1.163c0.423-3.33-1.877-6.367-4.655-8.019
		c-0.811,0.034-1.78-1.163-2.327-0.225c0.772,0.065,1.843,0.194,2.553,0.809C272.271,172.678,274.278,175.815,273.212,179.337z"/>
	<path d="M271.24,164.434c0,0.129,0,0.259,0,0.355c1.775-0.065,3.619,0.842,4.653,2.329c0.034-0.938-0.322-1.586-0.354-2.684
		C274.086,164.434,272.563,164.499,271.24,164.434z"/>
	<path d="M278.343,164.578c-0.647,0.098-0.844,3.967,0.514,3.967c0.294-0.127,0.227-0.42,0.227-0.679
		c0.45-1.099,0.981-1.524,2.051-1.686c0.645-0.163,0.773-0.099,1.292-0.228c4.979,0.129,9.669,0.26,14.773,0.712
		c0.778,0.291,1.616,1.164,2.202,1.262c-0.326-0.873-0.586-1.81-1.165-2.653c-1.357-0.259-2.328-0.452-3.814-0.355
		C293.486,164.758,280.55,164.505,278.343,164.578z"/>
	<path d="M289.282,156.286c-0.457-0.324-0.716,0.129-0.94,0.484c-0.744,0.389-0.613-0.646-1.262-0.581
		c-1.775,2.423-1.375-1.739-3.41-0.834c-1.099,0.97-0.435,2.967,0.372,3.97c2.103,0,4.137-0.034,6.305,0.129
		C290.639,158.323,289.085,157.677,289.282,156.286z M283.686,156.641c0.098,0.099,0.165,0.163,0.261,0.229
		c0.227,0.031,0.418,0,0.581-0.229c0.135-0.292-0.246-0.286-0.344-0.514c-0.354-0.064-0.735-0.403,0-0.625
		c0.322-0.064,0.773,0.552,0.773,0.774c0.029,0.354-0.978,0.915-0.204,1.078c1.392-0.163,2.94,0.386,4.17-0.484
		c0.101,0.451,0.113,0.949,0.259,1.292c-1.129,0.356-3.489-0.163-5.14,0C283.749,157.74,283.653,157.225,283.686,156.641z
		 M288.68,159.042c-1.323,0.148-3.334-0.146-3.823-0.146s-0.584-0.295-0.24-0.295c0.438,0,3.672,0,4.161,0.05
		C289.267,158.698,290,158.896,288.68,159.042z"/>
	<path d="M306.305,153.923c0.919,0.083,0.928-0.01,0-0.143c-6.611-0.926-15.995-2.051-22.488-2.731
		c-0.225,0.096-0.71,0.289-0.355,0.58C290.076,152.43,299.415,153.296,306.305,153.923z"/>
	<path d="M304.412,167.246c1.099,0.487,7.308-0.645,9.308-0.581c1.2-0.548,2.846-0.226,3.721-0.808
		c-4.363,0.065-9.405-0.13-13.255-0.356C304.8,165.89,305.544,166.825,304.412,167.246z"/>
	<path d="M141.157,208.886c-0.521,0-0.944,0.531-0.944,0.898c0,0.366,0.423,0.664,0.944,0.664c0.519,0,0.94-0.298,0.94-0.664
		C142.097,209.417,141.676,208.886,141.157,208.886z M141.157,210.214c-0.368,0-0.66-0.208-0.66-0.464
		c0-0.258,0.292-0.629,0.66-0.629c0.363,0,0.657,0.371,0.657,0.629C141.813,210.006,141.52,210.214,141.157,210.214z"/>
	<path d="M164.262,157.157c-0.308,0.233-0.514,0.404-0.73,0.917c-0.222,0.516,0.66,0.184,0.769,0
		c0.113-0.184,0.296-0.625,0.368-0.844C164.743,157.008,164.852,156.717,164.262,157.157z"/>
	<path d="M302.077,167.222c0.588-0.44,1.178-1.617,0-1.763c-1.175-0.146-1.062,0.161-1.765-0.073
		c-0.438-0.146-0.07,1.176,0.442,1.985C301.269,168.177,301.49,167.664,302.077,167.222z"/>
</g>
</svg>
