<?xml version="1.0" encoding="utf-8"?>
<!-- Generator: Adobe Illustrator 16.0.0, SVG Export Plug-In . SVG Version: 6.00 Build 0)  -->
<!DOCTYPE svg PUBLIC "-//W3C//DTD SVG 1.1//EN" "http://www.w3.org/Graphics/SVG/1.1/DTD/svg11.dtd">
<svg version="1.1" id="Layer_1" xmlns="http://www.w3.org/2000/svg" xmlns:xlink="http://www.w3.org/1999/xlink" x="0px" y="0px"
	 width="350px" height="350px" viewBox="0 0 350 350" enable-background="new 0 0 350 350" xml:space="preserve">
<g>
	<path d="M320.384,113.917c-1.725,2.066-4.015,3.937-6.56,4.045c0.864-0.772,1.577-1.625,2.345-2.383
		c1.814-1.789,0.627-2.044-0.664-0.534c-2.587,3.046-5.822,2.995-8.457,6.119c-1.368-0.382-2.501,0.434-3.577,1.106
		c-0.122,0.082-0.304-0.104-0.222-0.204c1.02-1.146,2.504-1.837,3.751-2.29c0.271-0.101,0.207-0.371-0.053-0.378
		c-3.143-0.052-5.031,4.371-8.597,3.918c-2.297-0.43-2.816,2.709-5.351,3.247c-1.437,0.308-1.96,0.278-3.351,1.38
		c-1.864,1.451-3.438,3.492-5.949,2.979c0.022-0.204,0.49-0.85,1.369-1.05c3.087-0.728,5.099-4.186,8.346-4.404
		c0.219-0.015,0.46-0.164,0.093-0.312c-0.698-0.286-1.955-0.508-3.336,0.586c-3.161,1.963-7.426,1.084-10.375,3.525
		c0.545-2.431,2.015-4.765,2.4-7.421c0.208-1.436-0.98-1.465-2.294-1.232c-2.701,0.493-5.376,1.518-7.974,2.468
		c-1.614-1.15-3.213-1.744-5.124-2.427c-0.038-0.26,0.69-0.775,2.021-0.516c2.858,0.568,5.37-1.792,6.802-3.599l2.521,0.516
		c1.959,0.412,4.063-2.037,5.915-2.898c0.678,0.026,1.198,0.408,1.713,0.832c0.183,0.148,0.524-0.067,0.405-0.286
		c-0.712-1.299-3.547-1.685-6.115-0.427c-0.574,0.282-0.783,0.07-0.264-0.308c1.202-0.876,2.357-1.325,3.63-1.106
		c2.69,0.475,5.384,0.133,7.674-1.214c1.751,0.13,3.703-0.434,4.63-2.156c1.651-0.063,3.886-0.167,5.24-1.321
		c1.658-0.123,3.454,0.011,5.095-0.824c0.553-0.278,0.26-0.505-0.297-0.312c-0.728,0.252-1.425,0.319-2.152,0.189
		c-1.466-0.274-3.243-0.063-4.549,0.019c1.636-1.18,3.94-0.668,5.432-2.145c0.142-0.141,1.507-0.939,2.075-1.162
		c2.601-1.046,5.254-2.003,7.514-3.744c0.571-0.453,0.338-0.693-0.349-0.274c-1.47,0.873-2.962,1.662-3.889,1.692
		c-3.169,0.104-6.119,2.564-8.898,2.294c0.605-0.598,1.269-1.084,1.937-1.559c0.315-0.227,0.23-0.527-0.182-0.319
		c-2.608,1.313-6.516,2.542-7.344,3.072c-1.914,1.299-3.279,1.618-5.352,1.919c-1.821,0.3-3.409,1.087-5.127,1.651
		c-3.14-1.061-5.226,1.789-8.067,2.145c-0.679,0.093-0.72-0.179-0.264-0.49c1.996-1.213,4.339-1.714,6.309-2.913
		c0.608-0.371,0.549-0.568-0.159-0.312c-3.059,1.135-7.385,0.787-8.168,1.933c-1.985,2.78-5.722,1.292-7.74,4.03
		c-1.7-0.39-3.129,0.185-4.52,0.875c-0.706,0.356-3.645,1.674-4.041,0.913c2.207-0.823,4.579-1.658,6.472-3.116
		c0.7-0.538,0.486-0.683-0.271-0.234c-2.245,1.325-4.884,1.811-7.521,1.563c-3.54-0.227-5.621,3.146-8.933,3.477
		c-4.46-0.702-9.484-0.861-13.685-2.646c-2.304-0.979-9.354-3.911-12.708-4.935c-7.797-2.372-24.469-5.785-35.242-6.086
		c-7.198-0.208-46.78,1.622-53.976,6.435c-0.898,0.602-1.632,1.451-1.632,2.702c-0.976,1.258-6.954,11.563-8.754,15.466
		c-0.367,0.79-0.17,1.009,0.341,0.2c2.564-4.509,7.299-12.391,7.819-12.687c0.167,0.282,0.085,0.538-0.052,0.798
		c-0.133,0.249-4.642,8.524-6.598,12.523c-0.479,0.958,0.301,1.321,0.702,1.655c-0.769,0.293-1.406,0.263-2.486,0.263
		c0.33-0.233-0.264-0.598-0.516-0.598c0,0-17.006,3.032-17.826,3.225c-0.62,0.148-1.814,0.097-2.334-0.134
		c-0.998-0.449-3.755-0.701-4.605-0.623c-0.557,0.052-3.299,1.199-3.9,1.303c-8.631,1.469-41.472,10.137-52.259,14.182
		c-1.981,0.861-4.063,1.488-5.685,3.21c-0.594,0.627-0.137,1.343,0.234,1.915c2.212,3.143,0.724,7.907,4.03,10.586
		c-0.46,0.627-1.451,1.254-1.555,2.149c-1.484,1.158-2.278,3.009-1.785,4.995c-1.321,0.86-3.069,1.737-4.338,2.935
		c-3.121,2.961-2.36,4.048,0.167,5.73c1.596,1.057,3.515,1.609,5.266,2.308c2.683,15.654,13.288,29.642,30.198,44.528
		c9.24,8.135,22.083,14.902,33.742,19.941c14.153,6.119,24.55,5.581,33.69,0.219c5.221-3.068,9.881-7.385,15.447-9.603
		c-3.076,4.62-0.285,6.078,4.408,5.313c3.585-0.583,7.162-2.594,10.346-4.538c1.307-0.806,0.999-1.106-0.445-0.404
		c-2.702,1.332-5.51,2.553-8.464,3.354c-6.175,1.655-7.203-0.696-4.579-4.192c0.567-0.753,5.877-4.705,8.008-5.637
		c1.125-0.49,2.237-1.023,3.262-1.777c0.189-0.142-0.089-0.546-0.304-0.482c-5.985,1.739-15.57-0.561-15.57-0.561
		c0.137-1.357,0.631-2.182,1.659-3.209c2.92,1.153,12.783,0.997,16.331-1.556c0.46-0.371-0.553-0.53,0.141-0.828
		c0.508-0.267,2.108-1.551,2.108-1.551c0.085,0.115-0.008,0.39-0.115,0.631c-0.116,0.245,0.066,0.204,0.211,0.078
		c4.854-4.134,6.672-10.189,8.55-15.926c0.167-0.52,0.396-0.501,0.304,0.011c-0.519,3.028-1.677,5.952-3.023,8.705
		c-0.108,0.223,0.17,0.297,0.296,0.107c0.939-1.425,1.518-3.013,2.476-4.318c0,0,1.361-0.034,2.152-1.059
		c-1.002,5.566-5.507,12.818-11.213,16.967c-0.676,0.489-0.42,0.675,0.367,0.304c2.976-1.396,5.912-2.925,9.322-3.024
		c2.33-0.07,2.515,2.95-2.39,7.109c-0.419,0.353-0.156,0.631,0.359,0.375c2.286-1.161,4.275-3.154,4.872-5.989
		c0.449-2.122-0.52-2.557-3.424-2.327c-0.178,0.02-0.26-0.118-0.119-0.196c2.928-1.666,6.123-3.971,8.174-6.905
		c2.742-2.412,6.282-3.767,8.665-6.313c7.833-5.221,30.213-19.844,30.213-19.844l28.049-18.458l0.327,0.212
		c-2.883,3.388,1.8,3.098,6.282,0.359l23.964-16.969l-0.424-0.386l-15.358,10.81c0,0-7.829,5.518-11.874,7.017
		c-2.624,0.972-2.601,0.074-2.093-0.701c0.656-1.002,1.778-1.934,2.229-2.342c4.268-2.219,7.916-4.731,11.557-8.137
		c6.093-3.188,11.596-6.26,14.66-9.697c0.431-0.486,0.16-0.731-0.33-0.296c-4.679,4.167-11.94,7.978-13.47,8.642
		c-2.063,0.883-4.787,4.052-5.392,3.496c1.885-1.44,3.777-3.243,5.688-4.665c0.363-0.278,0.097-0.449-0.335-0.249
		c-0.366,0.17-0.737,0.323-1.087,0.386l0.36-1.091c-0.489-0.464-1.352-0.134-2.015-0.233c0.3-0.464,0.827-0.991,1.324-1.292
		c1.926,0.742,3.919,0.46,5.737-0.397c1.299-0.62,9.002-5.455,9.395-6.52c0.857-2.341,2.755-3.607,2.721-5.841
		c1.685-0.033,2.509-1.929,4.134-2.126c1.496-0.041,2.698-0.55,3.84-1.525c0.483-0.415,0.398-0.731-0.252-0.449
		c-0.909,0.397-2.033,0.553-2.908,0.293c-0.929-0.204-2.008,0.044-2.869,0.542c-0.367,0.234-0.921,0.286-1.017-0.174
		c0.594-1.058,1.685-0.895,2.639-1.058c3.113-0.816,2.386-2.824,4.772-2.649c2.775,0.2,5.05-1.781,6.544-4.034
		c3.229,0.423,5.374-3.496,8.405-2.327c0.316,0.119,0.497-0.052,0.219-0.341c-0.404-0.427-0.871-0.806-1.384-0.939
		c-1.491-0.468-2.813,1.095-4.171,1.002c1.325-2.252,4.2-1.592,6.319-2.386c1.815-0.579,4.413-2.639,6.869-3.217
		c0.768-0.186,0.72-0.453-0.053-0.382c-1.702,0.156-3.343,0.486-4.901,0.99l-0.263-0.267c0.637-0.52,1.357-0.787,2.1-1.017
		c2.341-0.734,8.81-3.944,10.609-8.268C320.993,113.706,320.726,113.516,320.384,113.917z M301.994,123.698
		c-0.842,1.121-2.178,2.445-3.644,2.097c0.945-1.002,2.408-1.362,3.51-2.205C302.095,123.405,302.198,123.432,301.994,123.698z
		 M268.022,122.86c0.757-0.071,1.358,0.16,1.989,0.456c0.101,0.464-0.435,0.43-0.694,0.598l-1.788-0.23
		C267.403,123.353,267.826,123.056,268.022,122.86z M274.441,116.771c-0.705,0.498-1.365,1.001-2.278,1.054
		c0.375-0.846,1.243-1.15,2.152-1.347C274.69,116.325,274.69,116.644,274.441,116.771z M292.265,109.724
		c-0.868,0.06-1.834,0.813-2.842,0.501c0.938-0.865,3.799-1.458,5.584-0.828C294.268,110.251,293.222,109.657,292.265,109.724z
		 M298.948,104.971c-0.063,0.296-1.195,1.016-2.019,0.953C297.195,105.393,298.238,104.896,298.948,104.971z M259.896,113.661
		c-1.221,0.368-2.746,0.564-3.439,1.789c1.551,1.321,3.573,0.13,5.125-0.367c1.551-1.225,3.605-1.622,5.588-1.421
		c1.551-1.651,3.536-2.215,5.718-2.382c1.426-0.891,2.987-2.423,4.528-2.149c-0.787,0.498-1.949,0.999-2.379,2.052
		c0.563,0.631,1.424,0.497,2.379,0.23c2.447-0.724,4.533-3.039,7.376-2.148c2.613-0.791,4.998-2.115,7.972-2.019
		c1.29,0.059,2.244-1.685,3.703-1.781c-0.298,0.293-0.999,0.794-0.494,1.058c1.914,0.954,3.469-1.121,5.121-1.889
		c2.353,0.086,4.055-1.417,6.163-1.903c0.497-0.115,0.628,0.148,0.186,0.29c-1.398,0.468-2.594,0.991-3.915,2.1
		c-1.91,0.598-4.49,0.909-5.773,2.594c1.258,0.794,1.84-0.252,3.132-0.082c-1.537,0.917-2.431,1.306-4.189,1.27
		c0-0.427,0.567-0.561,0.827-0.824c-0.66-0.301-1.188,0.464-1.785,0.731c-2.778-0.535-5.984-0.401-7.87,1.777
		c0.657,0.712,1.422,0.509,2.238,0.208c1.164-0.431,2.657-0.784,3.484-0.104c-0.995,0.457-1.559-0.104-2.616,0.23
		c-2.372,2.33-5.514,1.083-8.315,1.247c-1.767,0.093-4.413,1.491-4.547,2.917c0.368,0.397,1.125,0.3,1.555,0.134
		c0.958-0.698,2.022-1.058,3.211-1.188c-1.789,1.054-3.708,2.579-6.053,2.145l0.924-0.724c-0.56-0.2-1.149,0.197-1.651,0.494
		c-1.923-0.531-3.837,0.197-4.897,1.655c-0.294,0.694,0.471,0.865,0.864,1.057c-1.559,1.885-4.717-0.111-6.531,1.411
		c-3.544-0.828-15.028-3.195-15.028-3.195C253.15,114.885,256.052,113.23,259.896,113.661z M240.255,116.173
		c9.188,1.622,18.546,2.716,27.048,5.952l-0.724,0.238c-8.438-2.282-17.232-3.674-25.961-5.232
		C240.226,117.104,239.198,116.273,240.255,116.173z M266.709,125.205c-1.354,0.724-2.946,1.354-3.841,2.639
		c1.439-0.2,2.85-0.649,4.249-1.169c1.528-0.561,10.008-3.525,12.186-3.852c0.101,2.082-1.024,3.967-1.555,5.948
		c-9.477,4.107-19.117,7.84-28.175,12.973c-5.849,3.31-10.153,7.314-11.203,11.433l-18.351,7.74
		c-16.396,6.902-32.766,13.949-48.676,22.149c0.037-0.531,1.065-0.962,0.467-1.422l-3.31,2.141l0.832-1.447
		c-1.125,0.034-2.082,1.251-3.21,1.685v-0.497c-2.182-0.227-4.03,1.592-5.351,3.247v0.33c-1.621,0.687-3.773,0.857-4.535,2.739
		c0.627,0.627,1.719,0.334,2.479,0.229c-6.842,3.881-13.759,7.625-20.672,11.41c-0.16,0.087-0.215,0.067-0.078-0.044
		c0.312-0.26,0.613-0.582,0.794-0.953c0.422-0.865,0.579-3.57-0.609-4.189c-1.158,0.196-2.182,0.986-2.976,1.777l0.697,0.237
		c0.26,1.287-0.066,2.906,0.494,4.163c-0.72,0.36-1.458,0.977-2.212,1.202c-0.141,0.049-0.211-0.028-0.111-0.089
		c0.783-0.478,1.039-1.068,1.105-1.677c0.104-0.861,0.089-3.429-0.697-3.733c-1.028,0.457-2.252,0.924-2.847,1.923
		c0.216,0.036,0.464,0.096,0.691,0.096c0.333,1.392-0.197,3.072,0.497,4.297c-0.408,0.175-0.857,0.728-1.451,0.728
		c0.115-0.312,0.2-0.59,0.245-0.846c0.182-1.002,0.107-2.843-0.345-3.589c-1.128-0.986-2.212,0.301-3.213,0.731
		c-0.679,0.189,0.037,0.53,0.337,0.597c0.093,0.16,0.13,0.405,0.134,0.69c0.022,1.37-0.304,3.411,0.958,3.607
		c-2.286,1.425-4.861,2.709-7.043,4.627c0-0.73,1.154-1.521,0.367-2.019c-0.735,0.234-1.329,0.895-2.022,1.288
		c-0.097-0.464,0.141-1.013,0.308-1.574c0.182-0.638,0.267-1.287-0.308-1.858c-1.362-2.783-4.23-4.765-8.097-6.68
		c0.842-0.768,1.685-0.724,2.56-0.423c2.716,0.945,7.025,5.651,7.459,9.018c0.327,0.134,0.627-0.265,0.69-0.491
		c-0.233-4.04-3.837-7.046-6.913-9.294c16.405-8.731,33-16.967,49.665-25.092l24.999-11.681c4.631-2.074,9.195-4.33,13.689-6.772
		c-2.714,0.713-5.41,1.703-8.094,2.742c-4.631,1.792-33.04,13.537-44.646,19.273l-24.892,11.678
		c-4.979,2.464-9.625,4.924-14.156,8.067c-1.618-0.364-3.77-0.264-5.358-0.104c5.874-5.377,20.91-12.019,20.91-12.019l15.993-7.154
		c0,0,25.697-11.521,27.311-12.26c8.701-3.993,15.74-7.815,22.545-8.572l0.598-0.597l0.364,0.371
		c11.674-4.468,23.215-9.299,35.349-12.635c2.148-0.597,4.631-0.828,6.909-0.694c3.93-6.153,11.47-6.813,16.561-11.444
		c0.034-0.227-0.028-0.427-0.263-0.59c-4.643,1.399-9.129,3.729-13.666,6.394c-0.877,0.512-3.3,2.572-3.723,2.85
		c-0.82,0.55-1.826,0.65-2.823,0.761c-2.562,0.293-20.506,6.375-30.095,9.481c-0.423,0.134-0.479,0.082-0.111-0.063
		c7.633-3.113,15.582-5.596,23.407-8.119l0.498-0.598c-0.234-4.661-0.464-9.321-1.192-13.782c-0.118-0.579-0.475-0.75-0.957-0.738
		c-3.34,0.074-15.781,4.227-22.617,6.687c-0.426,0.995-1.755,0.631-2.148,1.785c-0.063,4.234,0.357,13.511,0.368,14.004
		c0.003,0.297-0.082,0.572-0.368,0.746c-0.085-5.417-0.73-10.253-1.061-16.067l3.209-1.655l0.101-0.501
		c15.318-5.822,29.664-8.338,35.823-8.097c5.429,0.211,10.383,2.394,13.93,6.81c0.798,0.133,0.932-1.451,1.688-0.36
		c3.047-0.464,5.923-1.392,8.565-2.875l-0.224-0.238l-7.903,2.123l-0.564-0.334c-2.75-3.469-5.788-7.369-9.662-9.886v-0.233
		c5.967-0.089,18.07,2.668,19.544,3.34c-2.545,1.095-5.488,1.688-8.331,2.252c-1.164,0.189-2.761-0.556-4.115-0.887
		c-0.055-0.011-0.167,0.145-0.122,0.182c4.798,3.584,10.472-0.435,15.411-1.314c-1.551,1.421-3.699,2.019-5.352,3.206
		C263.069,126.029,264.954,125.234,266.709,125.205z M136.96,197.942c0.267,0.204,0.501,0.233,0.828,0.13
		c0.096,0.765,0.326,2.223-0.59,2.712h-0.238C137.123,199.798,136.593,198.903,136.96,197.942z M133.62,202.836l-0.186-2.835
		l0.115-0.479c0.215,0.179,0.52,0.134,0.79,0.041C134.474,200.525,134.745,202.076,133.62,202.836z M129.598,201.738
		c0.264,0.196,0.501,0.227,0.832,0.13c0.1,0.757,0.286,2.871-0.646,3.37h-0.23C129.72,204.247,129.23,202.696,129.598,201.738z
		 M120.031,213.553c-0.527,1.125-1.269,3.032-2.378,2.977c-3.525-0.146-7.852-3.177-9.366-5.095
		c-1.433-1.826-1.458-4.29-1.347-6.579c0.111-1.968-1.354-2.743-1.655-4.297c0,0,0.794-0.131,0.854-0.012
		c0.096,0.2,0.932,1.729,1.525,1.696c0.037-0.628,0.4-1.125,0.597-1.685h0.363c-0.267,1.124-0.92,2.018-0.816,3.109
		c0.593-0.134,0.386-0.531,0.816-0.832c-0.96,2.613-0.43,5.752,1.062,7.968c-1.997-1.689-1.9-4.2-1.885-6.446h-0.137
		c-0.52,3.656,0.093,6.302,2.563,8.249c0.453,0.356,0.932,0.553,1.47,0.35c0.897-0.067,0.363,0.597,0.73,1.058
		c0.434,0.541,3.555,1.699,4.16,1.658c1.429-0.301,2.085-2.022,2.75-3.213l2.249-1.551c-0.363,1.09-1.751,1.42-2.378,2.382
		C119.372,213.683,119.735,213.486,120.031,213.553z M113.749,202.702c0.857,0.335,0.368-1.249,1.191-0.59
		c0.394,0.461-0.464,1.089,0.327,1.422l0.601-0.698c0.89,0.268-0.197,1.092,0.494,1.521l0.694-0.463
		c-0.03,0.396-0.297,1.027,0.134,1.324l0.593-0.133c0.164,0.56-0.824,0.797-0.46,1.324c-0.831,0.464-1.521,0.033-2.382,0.326
		c0.664,0.594,1.985,0.561,2.976,0.371l1.058-0.697c0.1,0.326,0.33,0.563,0.234,0.92c-0.268,0.2-0.631,0.134-0.832,0.501
		c-0.264,0.56,0.497,0.925,0.731,1.058c-0.167,0.397-0.167,1.124-0.497,1.551c-1.388-1.781-3.54-2.541-5.354-3.332
		c0.493-0.334,1.388-0.134,1.421-0.965c-1.325-1.321-4.464-0.426-4.498-2.705c0.598,0.063,0.46-0.761,0.827-1.094
		c0.167,0.159,0.101,0.793,0.594,0.724c0.56-0.231-0.167-1.221,0.594-1.188c0.4,0.166-0.364,0.623,0.233,0.822
		c0.791-0.096,0.334-1.353,1.321-1.053C113.583,201.945,113.516,202.406,113.749,202.702z M116.959,214.247
		c-0.927,0.227-1.889-0.166-2.746-0.468c0.531,0.104,2.048-0.029,1.918-0.823c0,0-0.022-0.516-0.842-0.445
		c-4.705,0.407-6.542-5.764-6.201-7.062c1.125,0.857,2.579,0.794,3.934,0.961c-0.527,0.527-1.651,0.326-2.148,1.054
		c0.401,0.296,0.928,0.441,1.466,0.582c1.967,0.49,4.965,2.086,4.482,4.179c-0.292,0.256-0.363,0.802-0.363,0.802
		c0.846-0.248,1.325-0.371,2.056-0.932c-0.268,0.694-1.325,0.995-1.926,1.685L116.959,214.247z M110.51,201.649
		c0.23-0.464,0.698-0.865,1.188-0.865l0.133,0.134l-0.229,0.468L110.51,201.649z M111.831,200.099
		c-2.115-0.568-4.196-0.401-6.312-0.603c1.751-2.081,5.388-1.554,7.737-0.956c2.23-1.292,6.323-4.102,8.512-5.276
		c4.264-2.291,8.598-4.405,12.91-6.491l30.988-14.567c0,0,16.178-7.036,22.379-9.648c1.97-0.835,2.06-0.779,0.13,0.066
		c-24.479,10.858-48.524,22.709-72.307,35.189C114.41,198.343,112.792,198.837,111.831,200.099z M119.995,207.494
		c0.229-0.034,0.482,0.248,0.453,0.411c-0.034,0.16-0.082,0.423-0.286,0.52C119.835,208.495,119.564,207.656,119.995,207.494z
		 M204.543,135.317l-0.33-0.23c-0.368,0.104-1.849,0.334-2.145,1.195l-0.598,0.13c-0.057-0.765,2.412-1.956,3.34-1.918
		c0.664,5.054,1.054,9.488,1.19,14.65l-4.435,1.321c-0.396-4.705-0.366-8.653-0.325-12.765c0.474-0.958,2.311-1.521,2.841-1.417
		c0.034,1.384,0.394,2.609,0.595,3.934l0.363-0.367L204.543,135.317z M217.308,131.417c0.806,0.167,0.03,2.156-1.617,1.799
		c0.181-0.126,0.36-0.245,0.293-0.512l-0.724-0.052c0,0-0.224-0.148-0.03-0.178c0.409-0.052,0.813-0.082,0.988-0.456
		c-0.677,0.019-1.341,0.133-2.046,0.1c-0.259-0.011-0.289-0.174-0.029-0.2C215.229,131.832,216.376,131.865,217.308,131.417z
		 M214.796,131.283c0.761-0.264,1.785-0.987,2.512-0.464C216.614,131.316,215.69,131.316,214.796,131.283z M215.237,134.244
		c1.177-0.074,2.256-0.453,2.994-1.636l-0.229-1.915c1.035,0.052,1.873,0.694,2.39,1.525c1.799,2.887-5.266,5.091-9.923,4.453
		c-0.56-0.078-5.194-0.691-4.831-2.545c1.24-0.876,2.404-0.631,3.636-0.338C210.543,134.096,214.225,134.318,215.237,134.244z
		 M218.829,130.1l0.86-0.368v0.59C219.427,130.593,219.004,130.24,218.829,130.1z M220.384,138.79l4.067-8.331
		c0.319,1.239,0.53,2.998,0.594,4.531l-2.278,5.455c-1.128-0.063-2.684-0.427-3.808-1.062c0.233-0.426-0.393-0.957,0-1.417
		c0.761-0.363,0.991-1.391,1.191-2.152c1.218-1.21,1.576-3.351,0.819-4.208c-1.068-1.206-0.085-2.252,0.884-2.338
		c0.668-0.059,1.396,0.23,2.003,0.363c-1.584,2.813-2.648,5.886-3.706,8.925L220.384,138.79z M206.461,136.645l1.062,0.46
		c-0.497,0.1-0.86-0.13-1.291-0.23c-0.527,1.024,1.414,0.06,0.979,1.021c0.734-0.334,1.466-0.368,2.227-0.293
		c-0.728,0.597-1.915,0.296-2.608,0.69h-0.368c-0.129-0.297,0.33-0.297,0.469-0.46c-0.067-0.197-0.301-0.096-0.469-0.134
		l-0.46,0.594C205.964,137.833,205.437,136.508,206.461,136.645z M205.734,136.043c0.199,0.071,0.363,0.101,0.497,0.238
		C206.212,136.712,205.475,136.508,205.734,136.043z M208.48,138.292c-0.049,0.423-1.025,0.631-1.288,0.134
		C207.623,138.029,208.064,138.504,208.48,138.292z M206.695,138.79v0.234l-0.464-0.364
		C206.395,138.626,206.629,138.593,206.695,138.79z M206.365,139.625c0.133,0.293,0.297,0.36,0.564,0.36
		c0.355-0.334,0.196-0.698,0.489-0.961c0.104,0.326,0.928,0.119,1.559,0l-0.698,0.757c0.297,0.427,0.401-0.234,0.698-0.16
		c0.097,0.263-0.204,0.657-0.364,0.957h0.594c-0.264,0.46-0.145,0.69,0.101,1.058c1.915-0.924-0.627-2.182,0.359-3.21h-0.593
		c0.267-0.264,0.593-0.397,0.83-0.728c0.694,0.134,1.284,0.501,1.915,0.728l-1.354,0.115c0,0-0.018,0.134,0.067,0.152
		c0.871,0.141,1.595,0.575,2.359,0.679c1.014,0.133,1.897-0.327,2.772-1.232c0.453-0.475,0.884-0.961,1.515-1.035
		c0.26,0.593,0.92,0.957,0.823,1.685c-0.594,0.271-1.258-0.03-2.019,0.234c-0.131-0.561,1.161-0.331,0.367-0.961
		c-0.924,0.631-1.487,1.655-2.383,2.383c-0.326,0.312-0.426,0.909-0.593,1.454c-0.36,1.132-1.723,1.514-2.349,0.75
		c-0.275-0.338-0.494-0.775-1.024-1.017c-0.762,0.594-0.057,0.787,0.266,1.329c0.461,0.594,1.084,0.823,1.686,1.054l0.33-0.23
		c0.037,0.09,0.155,0.216,0.155,0.216c2.086-1.388,0.731-4.041,4.509-4.617c0.445-0.063,1.021,0.071,1.414-0.229l0.238,0.33
		c-0.784,1.024-2.557,1.076-3.667,1.547c-1.213,0.512-1.146,2.427-0.104,2.772c0.983,0.322,1.856-0.182,2.119-1.34l-0.137-0.259
		c0.961-0.498,0.53-1.559,1.421-1.859c0.13,0.661,0.598,1.484-0.263,2.041c-0.234,0.037-0.591-0.386-0.79-0.026
		c-0.134,0.363,0.229,0.631,0.459,0.698l0.861-0.46c-0.743,2.434-4.07,2.245-6.216,3.103c0-0.13,0.034-0.293-0.1-0.356
		c-0.201-0.071-0.23,0.126-0.364,0.226l-0.534-0.597l-0.289,0.133l-0.497-0.263c-0.824-0.386-2.951-3.396-2.482-4.761
		c-0.237,0.175-0.456,0.367-0.717,0.468c-0.178,0.063-1.239-0.041-1.202-1.292C206.098,139.257,206.624,139.198,206.365,139.625z
		 M210.035,137.239c0.705,0.018,1.551-0.112,1.784,0.459C211.223,137.933,210.74,137.591,210.035,137.239z M212.283,138.426v-0.958
		h0.264c0.045,0.457,0.167,0.972,0.558,0.972c0.845,0.022,1.35-0.29,1.98-0.571c0.145-0.06,0.223,0,0.104,0.096
		C214.391,138.59,213.29,139.294,212.283,138.426z M215.757,141.402c0.426-0.334,1.023-0.334,1.551-0.468
		C216.877,141.335,216.351,141.473,215.757,141.402z M216.581,142.36c-0.074,0.549-0.346,0.879-0.824,0.957
		c-1.295,0.097-1.503-0.708-1.194-1.447C215.322,141.436,215.887,142.2,216.581,142.36z M211.456,146.163l-3.076,0.961
		c0.301-0.824,1.191-1.225,1.888-1.555C210.699,145.7,211.078,145.911,211.456,146.163z M206.231,140.935l0.827,0.104
		c-0.063,0.728-0.268,1.425-0.598,2.019C206.365,142.723,206.135,141.699,206.231,140.935z M207.522,141.87
		c0.623,0.987,1.091,2.279,2.049,3.236c-0.958,0.364-1.818-0.163-2.642-0.497c-0.497-0.263-0.505-0.702-0.598-1.188
		C207.025,143.358,207.312,142.69,207.522,141.87z M206.591,145.209c0.631,0.23,1.266,0.583,2.119,0.724
		c-0.761,0.594-0.895,1.688-2.015,1.789C206.498,146.927,206.629,145.74,206.591,145.209z M206.695,148.416
		c5.588-1.785,11.484-3.93,16.798-5.455c0,0,0.765-0.301,0-0.601c-0.167-0.394,0.245-0.427,0.461-0.49h0.594
		c0,0.13,0.133,0.434,0.253,0.427c0.456-0.03,0.907-0.405,1.298-0.297l-0.59,0.598c-6.12,2.245-13.07,4.382-18.579,6.182
		C206.698,148.861,206.576,148.53,206.695,148.416z M218.829,142c1.08-0.438,2.13,0.286,2.048,1.058l-2.148,0.727
		C218.94,143.239,219.159,142.597,218.829,142z M220.384,141.54c0.99-0.501,1.855,0.293,2.517,0.687
		c-0.201,0.497-0.861,0.464-1.329,0.598C221.438,142.163,220.981,141.766,220.384,141.54z M225.045,128.771
		c0.223,0.123,0.326,0.319,0.385,0.549c0.082,0.364,1.069,7.726,1.136,11.355c0,0.256,0,0.527-0.33,0.497
		C225.743,136.842,225.831,132.73,225.045,128.771z M225.378,141.269c-0.3,0.1-0.816,0.089-1.29,0.271l-0.595-0.731l1.552-3.804
		C225.345,138.267,225.442,139.785,225.378,141.269z M189.203,126.756c2.312-1.325,5.678,1.525,7.235,2.679
		c0.731,0.542,1.299,1.221,1.463,2.215c2.578,1.722,5.377-0.097,4.86-1.091c-1.095,0.924-2.683,1.458-4.037,0.724
		c-0.212-0.104-0.326-0.264-0.233-0.464c1.194-1.188,3.075-1.488,4.534-1.321c0.163,0.4-0.364,0.627,0,0.961
		c0.397-0.36,0.727-0.765,0.598-1.325l-0.598-0.59c10.546-2.805,21.941-7.143,33.304-6.512c3.893,0.219,7.755,1.043,9.719,1.966
		c2.2,1.036,4.868,3.452,5.514,4.906c-5.722-5.488-14.086-5.685-21.656-4.631c-9.18,1.484-18.219,4.037-26.88,7.144
		c-0.79,1.128-2.379,1.191-3.573,1.789l-0.857,0.694c-1.556-3.837-5.622-5.195-8.929-6.646l0.498-0.267L189.203,126.756z
		 M184.861,103.716c8.108-0.141,26.402,3.24,36.811,6.045c4.342,1.169,18.713,7.184,25.986,13.789
		c-3.536-1.425-7.095-2.753-11.203-2.75c-12.962,0-24.688,3.937-36.558,7.344c0.263,0.1,0.448,0.245,0.615,0.4
		c-3.108,1.451-4.891-2.583-7.74-2.846c0.33-0.527,1.599-1.507,0.957-2.282c-1.681-1.718-4.159-1.522-6.312-2.115
		c0.905-0.17,1.788-0.364,2.612-0.69c1.173-0.471,1.258-0.946-0.46-1.361c-3.707-0.431-8.435-0.891-11.314,1.324
		c-10.345-2.683-20.564-5.755-30.58-9.162c0.03-1.024,1.496-1.488,2.609-1.785c12.2-3.173,25.989-3.767,39.051-3.57
		c1.262,0.085,2.76,0.071,3.974,0.568c0.842,0.345,0.816,0.634,0.141,0.838c-2.924,0.891-5.892,1.51-8.778,2.761
		c-0.891,0.393-1.256,1.424-1.055,2.248c1.588,1.518,3.767,1.696,5.818,1.915c13.291,1.109,25.771,1.908,39.166,0.048
		c0.631-0.085,0.617-0.241-0.093-0.171c-11.923,1.221-23.109,0.404-35.504-0.371c-2.615-0.238-5.955-0.301-8.333-1.885
		c0.178-0.512,0.511-0.816,0.915-1.039c1.426-0.791,8.083-2.397,9.563-3.258c0.404-0.196,0.553-0.705,0.233-0.961
		c-1.915-1.191-4.353-1.477-6.643-1.521c-14.601-0.3-40.253,1.054-42.754,5.688c-0.23,1.125,0.79,1.685,1.555,2.048l29.894,8.665
		v0.857c0,0-29.315-8.742-31.934-9.537c-4.067-1.236-8.186-2.275-12.606-1.77C139.209,106.184,169.54,103.991,184.861,103.716z
		 M125.156,128.311c1.518-4,3.941-7.666,6.086-11.44c-0.408-0.404,0.397-1.421,0.363-2.249c1.981-0.891,4.026-0.832,6.056-0.486
		c6.72,1.117,24.083,6.694,29.95,8.638c1.005,0.334,6.252,2.327,6.252,2.327c-2.616-0.196-5.759-0.564-8.468-0.493
		c-0.264-0.334,0.701-0.797,0-1.191c-0.954,0.1-0.935,1.636-2.145,1.191l1.087-0.924c-1.841-1.625-3.882-2.282-6.164-3.046
		c-0.508-0.174-16.153-5.948-24.09-5.287c-0.661,0.463-1.028,0.923-1.652,1.521l0.36,0.26c-1.254,2.319-3.37,4.898-3.934,7.611
		c-0.163,0.653,0.657,1.451,1.421,1.551c7.31,0.133,13.855-2.575,21.196-2.282c0.426,0.037,1.228,0.204,1.191,0.597
		c-0.275,1.362-1.606,1.569-2.813,1.93c-0.404,0.119-1.948,0.716-2.178,1.18c1.581-0.237,3.336-0.827,5.092-1.061
		c10.813-1.685,22.186-1.187,32.402,1.421l0.096-0.134c-2.642-1.054-11.981-4.397-11.981-4.397s-25.081-7.689-27.051-8.287
		c-4.49-1.347-8.999-2.705-14.034-2.059l-1.455,0.59c0.687-1.106,1.907-1.558,3.28-1.707c4.487-0.527,8.598,1.009,14.676,2.709
		c3.269,0.917,25.968,7.918,29.074,8.876c0.229,0.075,1.421,0.546,1.543,0.245c-0.672-1.284-0.868-2.271,0.497-3.132
		c2.745-1.729,6.576-1.202,9.756-0.672c-1.099,0.516-2.694,0.256-3.829,0.924c-1.303,0.768,0.278,1.195,0.904,1.28
		c2.02,0.26,4.271,0.085,5.663,1.599c-1.058,2.078-3.703,2.115-5.618,2.479c0.134,0.034,0.252,0.086,0.378,0.141
		c0.216,0.089,0.238,0.093,0.026,0.141c-0.163,0.033-0.305,0.122-0.404,0.312c1.484,0.99,3.37,1.458,5.025,2.282
		c2.37,0.994,4.838,2.772,5.995,5.188c1.348,2.81,1.73,11.574,2.142,16.472c0.138,1.647,0.982,2,2.643,1.395
		c10.86-3.959,21.518-8.397,33.259-10.193c0,0,0.512-0.178,0.594-0.267c3.984-4.083,9.013-6.09,13.859-8.242
		c0.423-0.193,0.472,0.026,0.067,0.241c-4.664,2.464-9.968,4.226-13.226,8.735c-3.719,0.059-7.214,0.938-10.661,1.997
		c-2.972,0.92-11.402,4.011-19.678,6.998c-4.753,1.718-9.34,3.533-13.109,4.561c-7.393,1.818-13.496-0.994-19.463-4.327
		c-6.46-3.618-24.079-11.589-33.375-14.821l-0.13-1.321c1.618,0.296,3.169,0.794,4.657,1.421c6.419-3.277,17.147-5.169,21.726-5.718
		c8.46-1.024,17.889-1.396,25.396,1.087c0.594,0.297,1.121,1.032,0.724,1.652c-1.718-1.251-4.278-1.289-6.312-1.188
		c-12.167,0.527-23.941,1.584-34.287,6.91v0.233c10.939,4.167,21.062,10.316,32.035,14.417l0.101-0.134l-0.691-0.82
		c-0.564-6.783,2.509-12.568,7.734-16.898l2.975-2.382c-0.273-3.265-6.738-5.818-8.33-5.818c1.225,0.961,2.977,1.354,4.264,2.479
		c-11.871-2.679-25.819-2.679-38.187,0c-3.837,0.824-7.544,2.015-11.081,3.57c-1.095-0.219-1.962-1.203-2.917-2.101
		c-1.421-1.328-4.186-2.211-6.371-2.583c-1.247-0.212-4.505-1.217-4.95-1.396c-0.579-0.223-0.995-0.419-1.592-0.104l0.816,0.824
		C125.787,129.231,124.981,128.764,125.156,128.311z M158.386,124.971l-3.703,0.129c0.233-0.493,0.86-0.79,0.727-1.417
		c-2.267-2.208-6.315-0.979-9.362-0.504c-3.748,0.579-7.343,1.532-11.236,1.792l2.847-7.147l-0.46-0.226
		c0.16-0.661,0.497-1.273,1.417-1.058c15.117,3.402,24.379,6.887,24.208,7.588c-0.256,1.017-1.009,0.49-1.714,0.093
		C160.218,123.717,158.53,123.665,158.386,124.971z M160.998,125.101c-0.378,0.16-1.437,0.457-1.555-0.129
		C159.376,124.47,160.564,124.619,160.998,125.101z M134.084,117.13l-0.278-0.134c0.289-0.854,1.884-0.727,2.56-0.59
		c-0.3,0.33-0.501,0.653-0.438,0.983l0.438,0.208l-3.106,7.606c-0.798,0.197-1.889,0.264-2.516-0.333
		C131.505,122.125,133.193,119.646,134.084,117.13z M130.151,123.78l0.13-1.317l1.298-1.896l0.071,0.078L130.151,123.78z
		 M143.379,135.224c8.553-3.588,17.645-5.448,27.448-5.645c1.039-0.014,1.061,0.219,0.033,0.282
		c-9.076,0.549-17.822,2.59-25.93,5.822L143.379,135.224z M180.697,135.042c2.42-0.36,4.112-0.044,6.721,0.182
		c-0.301,0.393-1.388,0.56-1.058,1.421c0.924,0.69,2.346,0.724,3.436,0.36l-1.19,1.195c-3.604-1.692-8.594-1.722-11.671,1.421
		c-0.229-0.798-0.56-1.852-0.1-2.616c-0.824-1.091-1.851,0.101-2.872-0.13c-0.686-0.115-1.027,0.987-0.831,1.785
		c0.664,0.431,1.392,0.527,1.558,1.421c-2.386-0.66-5.852-1.388-8.104,0.594c-1.254-0.594,0.701-0.768,1.199-1.069
		c0.56-0.723,1.317-1.543,1.417-2.5c0.018-0.142-0.167-0.301-0.364-0.23v-0.23h0.264l0.101-1.061
		c4.653-0.991,9.22-1.566,14.07-1.744c4.012-0.148,5.961-0.512,8.539,0.653v0.233c-3.741-1.035-7.433-0.553-11.27-0.037
		C180.298,134.727,180.442,135.079,180.697,135.042z M181.926,152.479l-16.393-7.526c0,0-6.293-2.883-6.832-3.135
		c-0.319-0.16-0.579-0.382-0.683-0.779c1.162-0.49,2.223,0.928,3.443,0.598c-0.957-0.991-1.822-1.651-2.378-2.977
		c-1.618,0.264-3.073,1.358-4.631,1.421c1.522-0.894,3.34-1.588,5.125-2.115c0.297,1.125,0.694,2.509,1.885,2.969
		c1.291,0.546,1.124-0.95,2.015-0.356c0.69-2.015,2.717-1.662,4.665-2.286c-0.761,1.726-2.809,1.106-3.933,2.16
		c0.233,0.467,0.56,0.356,0.957,0.356l-0.594,0.46c-0.167-0.36-0.631-0.263-0.828-0.097c-0.49,1.34-1.391,0.516-2.282,0.828
		c0.664,0.991,2.567,0.438,2.979,0.227c4.854-3.997,10.542-0.657,15.466,0.832c0.954,0.378,2.319,1.024,2.746,2.152
		C182.587,147.722,180.738,150.071,181.926,152.479z M164.204,136.508c0.201,0.137,0.334,0.471,0.367,0.665
		c0,0,2.178-0.167,3.57-0.167c0,0.631-0.583,0.624-1.091,0.694l-2.546,0.364c-0.66,0.728-1.028,1.922-2.081,2.152l-1.062-0.367
		c1.685-0.011,2.412-1.956,2.797-2.884C164.211,136.823,164.241,136.678,164.204,136.508z M165.262,136.508v-0.227
		c1.021-0.271,2.16-0.523,3.113-0.564v0.46L165.262,136.508z M162.056,139.024c-0.308,0.107-0.724-0.234-1.058-0.468
		c0.531-0.394,1.325-0.624,1.885-1.188c-0.794-0.263-1.726,0.694-2.386,0.234l2.753-0.828
		C163.18,137.499,163.017,138.593,162.056,139.024z M176.107,140.578c-0.823-0.526-1.19-1.985-2.145-2.378
		c-0.482-1.005,2.012-0.831,2.012-0.831C175.678,138.426,176.604,139.547,176.107,140.578z M183.484,145.343
		c0.497,0.49,0.394,1.098,0.216,1.722c-0.13,0.453-0.88,3.533-0.917,4.69C181.896,149.503,183.284,147.584,183.484,145.343z
		 M179.547,141.87c1.533-2.353,5.307-1.726,6.684-0.698c-0.697,1.091-1.295,2.219-1.729,3.407
		C182.884,143.484,181.362,142.463,179.547,141.87z M184.687,139.373c-2.575-0.612-4.404,0.312-6.264,2.078l-1.12-0.412
		c1.821-2.842,7.525-3.704,9.521-1.781C186.312,139.855,185.518,139.573,184.687,139.373z M120.893,130.459
		c-0.924,0.586-15.957,3.455-15.971,2.979C110.046,132.174,115.468,131.22,120.893,130.459z M94.847,134.793
		c0.242-0.675,0.698-1.15,1.644-1.354c3.93-0.337,12.535,2.976,13.317,3.091c0.319,0.041,1.032-0.783,0.832-0.946
		c6.416-1.844,13.348-2.583,19.8-4.104c0.271-0.063,0.227-0.164-0.082-0.141c-7.469,0.523-21.537,3.48-22.149,3.606
		c-0.419,0.093-0.834,0.049-1.269-0.319c6.475-1.622,13.388-2.742,20.134-3.933c4.464-0.464,9.952,0.16,12.267,4.531v0.36
		c-0.333-0.041-0.623-0.012-0.868,0.145c-0.119,0.074-0.089,0.738,0.174,0.964c0.397,0.233,0.598-0.148,0.924-0.186
		c0.779,3.496-0.531,6.371-7.14,8.598c-4.961,1.525-9.918,3.143-15.01,4.397c0.182-0.78,0.523-1.321,1.318-1.421
		c4.667-1.176,9.243-2.472,13.811-3.889c0.193-0.055,0.201-0.378,0.034-0.352c-0.734,0.111-1.288,0.308-2.171,0.308
		c3.01-1.425,7.867-1.091,8.561-5.358c-0.861-1.021-0.46,0.776-0.958,1.195c-1.814,1.751-15.536,5.555-20.101,5.818
		c0.427-2.512,0.976-5.474-0.364-6.913c-1.258-0.991-2.783-1.358-4.167-2.015c6.813-2.015,14.382-2.679,21.292-4.764l-0.226-0.227
		c-6.442,1.043-22.914,3.677-23.812,4.891c2.416,1.221,6.249,1.818,6.683,5.095c-0.315,3.622-0.631,8.167-2.286,11.674
		c-0.43,0.49-1.187,0.586-1.781,0.364c-5.395-1.956-10.55-4.435-15.838-6.687c-1.951-0.857-2.749-2.286-3.02-3.963
		C94.112,141.536,94.58,135.55,94.847,134.793z M113.85,160.086c-0.924,0.716-0.101,1.421-0.101,1.421
		c2.613-0.497,4.861-1.885,7.474-2.379c-0.546,0.694-2.36,0.891-3.6,1.51c-0.101,0.056-0.038,0.26,0.096,0.242
		c1.317-0.156,2.624-0.895,4.097-0.895c-1.417,0.561-3.726,1.57-5.581,2.201c-1.51,0.52-2.995,0.538-4.405-1.009
		c0.464-0.394,1.325-0.464,1.425-1.191c-0.063-0.556,0.211-0.746,0.583-0.846c0.397-0.107,6.49-1.566,8.943-2.724
		c0.887,0.924,1.751,1.718,2.976,2.119l-1.554,0.593c-0.542-0.408-1.34-0.964-1.043-1.662
		C120.083,158.227,117.056,159.158,113.85,160.086z M110.777,158.434c-0.498,0.524-1.091,1.121-1.789,0.694
		c-2.646-3.606-6.442-6.286-10.12-8.333c-0.527,0.196-0.823,0.196-1.321,0c-1.366-0.654,0.256-1.759,1.176-1.808
		c0.211-0.011,0.742,0.382,0.742,0.382h-0.497v0.367c3.511,2.283,6.846,4.824,10.119,7.604c0.23,0.037,0.464,0,0.598-0.23
		c0-0.464-0.831-0.761-0.367-1.292c0.69-0.267,1.158-1.058,1.918-1.087c-0.263,0.464-0.694,0.82-0.828,1.317
		c0.728,0.761,1.289-0.427,2.019-0.363c-0.134,0.53-0.73,0.828-0.73,1.425c0.764,0.36,1.287-0.464,1.915-0.694
		c0.137,0.3,0.935,0.728,1.065,0.694c-0.694,0.661-1.588,1.324-2.482,1.785c0.467,0.464,0.363,1.225-0.364,1.325
		c-0.359-0.101-0.694-0.268-0.957-0.598C110.677,159.128,111.337,158.761,110.777,158.434z M109.916,159.622l0.364,1.191
		l-0.92-0.134C109.95,160.353,109.188,159.652,109.916,159.622z M105.051,159.258l-0.23,0.234c-3.21-1.292-6.364-2.824-8.976-5.236
		c0.074-1.325,0.438-2.115,2.067-1.681v0.367c-0.531-0.43-1.154-0.029-1.421,0.234c-0.505,0.582,0.078,1.42,0.564,1.766
		c0.197,0.141,0.394,0.289,0.627,0.152c0.034-0.731-1.722-1.042-0.363-1.655c0.493-0.033,0.427,0.69,0.823,0.824
		c0.268-0.263,0.464-0.72,0.234-1.087l1.785-0.101v-0.597c1.094,0.396,1.785,1.584,3.106,1.429c0.23,0.393,0.438,0.897,0.598,1.187
		c-1.756-0.364-3.34-1.165-4.995-1.655l-0.107,0.293c2.976,1.685,6.026,2.716,8.772,4.802c-0.197,0.159-0.263,0.36-0.23,0.593
		c0.23,0.394,0.824,0.297,1.091,0c0.363,0.394-0.201,0.824-0.498,0.958c-0.928,0.23-1.258-0.728-1.655-1.288l-7.043-3.938
		c-0.323,0.056-0.761,0.134-1.058,0.46C99.133,155.919,104.528,158.694,105.051,159.258z M96.357,151.521l-2.612,0.958v-0.36
		c0.1-0.074,2.468-2.163,3.607-0.508c0.49,0.233,1.254-0.286,1.518,0.274C97.945,152.345,97.151,152.056,96.357,151.521z
		 M99.151,152.457v0.252h-0.39v-0.252H99.151z M108.989,159.855c0.1,0.327-0.115,0.646-0.364,0.724l-0.229-0.13
		C108.625,160.383,108.695,160.089,108.989,159.855z M108.495,154.264l-0.463,0.516c0.208,0.274,0.463,0.511,0.824,0.541
		c0.134,0.03,0.067,0.486-0.134,0.364c-1.51-0.69-2.906-2.668-4.401-2.743c-0.074-0.007-0.241-0.3-0.241-0.3l0.249-0.163
		c-1.258-1.125-2.913-1.755-3.937-2.976c2.991,1.217,5.974,2.356,8.78,3.959c0.17,0.104,0.141,0.167-0.048,0.096
		c-1.058-0.4-2.171-0.79-3.244-0.849C106.673,153.439,107.634,153.741,108.495,154.264z M111.471,155.458
		c0.119-0.427,0.757-1.095,1.321-0.598C112.495,155.158,111.797,155.396,111.471,155.458z M116.821,152.942
		c-0.233-0.493-0.063-1.187,0.138-1.655h0.364C116.959,151.885,117.586,152.512,116.821,152.942z M120.299,151.521
		c-0.171-0.564,0.594-0.827,0.594-0.827c0.1,1.224,0.924-0.394,1.421,0.463c0.301-0.331,0.694-0.331,1.058-0.463
		c-0.233,1.027,1.421,1.258,0.497,2.248c-0.4,0.464-0.627,0.631-1.187,0.728c-0.898,0.238-1.032-1.292-2.052-1.095l-0.234-0.23
		c-1.254,0.627-1.421,2.85-3.206,2.386l-0.75-0.634c-0.527,0.697,1.213,1.885-0.572,1.822c-0.501-0.167,0.067-0.924-0.601-0.958
		c-0.327,0.394-0.23,0.761,0,1.191c0.134,0.16,0.337,0.297,0.268,0.493l-0.498,0.364c-0.359-0.264-0.92-0.991-0.359-1.458
		c-0.527-0.13-1.065,0.497-1.655,0.601c0.364-1.789,2.549-0.894,3.209-2.482C118.376,154.331,117.683,150.497,120.299,151.521z
		 M126.941,153.908c0.397-0.138,0.263-0.731,0.367-1.065c0.164,0.301,0.46,0.701,0.824,0.701c0.828-0.074,0.59-1.54,1.996-0.787
		l0.52,0.085c-1.755,0.661-3.34,1.718-5.258,2.019c-1.027-0.953,0.857-1.091,1.321-1.421
		C126.607,153.636,126.781,153.918,126.941,153.908z M128.859,148.779c0.3,0.457,0,1.058-0.494,1.191
		c-0.564,0-0.693-0.665-0.468-1.062C128.132,148.712,128.529,148.809,128.859,148.779z M128.629,147.358
		c1.685-0.701,3.44-1.228,5.229-1.658C132.333,146.794,130.648,147.488,128.629,147.358z M129.457,149.603
		c0.119-0.29-0.089-0.552-0.13-0.79c-0.037-0.249,0.085-0.68,0.501-0.75c0.538-0.085,1.254,0.523,1.777-0.341h0.331
		c-0.037,0.067-0.037,0.23-0.007,0.36c0.337,0.497,0.824,0.052,1.098-0.264c0.134-0.096,0.26-0.3,0.46-0.233
		c0,0.338-0.193,0.661-0.36,0.831c0.297,0.694,1.191,0.82,1.325,1.555c-0.832,0.426-0.98-0.765-1.7-0.932
		c-0.271,0.104-0.486,0.434-0.223,0.698l1.458,1.421c-0.1,0.364-0.65,0.345-0.961,0.233c-0.794-0.4-0.594-1.32-1.325-1.655
		c-0.46,0.728-0.263,1.685-0.82,2.382c-0.534,0.063-1.128-0.034-1.328-0.597l0.965-2.613l-0.237-0.359
		c-1.024,0.854-0.728,3.47-2.383,3.206c-0.229,0.048-0.349,0.245-0.408,0.456c-0.03,0.093-0.093,0.093-0.107-0.004
		c-0.082-0.504-0.078-1.083,0.152-1.647C128.295,150.794,129.123,150.233,129.457,149.603z M135.042,146.761
		c-0.13,0.229-0.397,0.263-0.59,0.134c0.141-0.197,0.327-0.397,0.46-0.594C135.142,146.363,135.008,146.631,135.042,146.761z
		 M134.559,148.033c-0.211,0.482-0.793,0.453-0.552-0.186C134.221,147.276,134.778,147.528,134.559,148.033z M132.433,152.119
		l-0.957,0.36c0.129-0.36,0.196-0.924,0.594-0.958C132.292,151.503,132.529,151.818,132.433,152.119z M128.132,152.942
		c-0.431-0.067-0.331-0.463-0.104-0.69c0.115-0.093,0.368-0.104,0.467,0.093C128.6,152.646,128.366,152.875,128.132,152.942z
		 M125.887,152.709h-0.731c0.397-1.221,0.101-2.839,1.188-3.7C126.577,150.167,126.021,151.488,125.887,152.709z M119.338,150.2
		c2.052-0.697,4.067-1.488,6.182-2.018C123.765,149.603,121.382,150.022,119.338,150.2z M124.692,150.2l-0.133,0.958
		c-0.197,0.13-0.327,0.104-0.457-0.104C123.958,150.794,124.136,150.037,124.692,150.2z M121.353,153.908l0.597,0.59
		c-0.823,0.33-1.918,0.564-2.842,0.823l-1.555,0.498c-0.167-0.66,0.627-0.163,0.824-0.498
		C119.011,154.167,120.366,154.167,121.353,153.908z M120.161,153.439c0.104-0.616,0.832-0.263,0.832-0.263
		C120.826,153.503,120.396,153.573,120.161,153.439z M122.313,155.551c-2.152,1.396-4.927,1.692-7.373,2.52
		C117.156,156.716,119.668,155.592,122.313,155.551z M123.735,155.458c-1.455,0.03-0.891-1.718,0.233-1.688
		c0.234,0.293,0.234,0.627,0.368,0.961l-0.234,0.23c1.288,1.351,3.139,1.848,4.858,2.378
		C126.9,158.412,122.978,157.166,123.735,155.458z M128.729,156.416v-0.264c1.455-0.694,3.121-0.757,4.245-1.985l-0.078-0.397
		l-4.868,1.551c1.462-1.413,3.213-2.078,4.998-2.746c0.134,0.894,0.101,2.089,1.058,2.746
		C132.462,156.019,130.715,156.449,128.729,156.416z M133.858,152.252c0.093-0.665,0.694-0.698,1.184-0.497
		c0.331,0.363-0.13,0.82-0.464,0.954L133.858,152.252z M136.003,154.627c0.063,0.3-0.828,0.3-1.192,0.104
		c-0.393-0.2-0.53-0.73-0.59-1.188C134.811,153.908,135.409,154.264,136.003,154.627z M134.912,153.076
		c0.46-0.234,0.895-0.895,1.455-0.501C136.106,152.972,135.372,153.908,134.912,153.076z M135.175,149.009
		c0.697,0.327,0.33,1.191,0.33,1.191C135.175,149.904,135.189,149.429,135.175,149.009z M138.381,153.67
		c-0.23,0.3-0.706,0.363-1.099,0.56c-0.497,0.201-0.82-0.3-1.176-0.46C136.693,152.616,137.591,153.636,138.381,153.67z
		 M138.251,153.076c-0.894-0.264-1.617-0.895-2.378-1.555c0.92-0.33,2.445,0.2,3.336-0.468c-0.394-0.82-1.354-0.854-1.916-1.317
		c2.112,0.364,3.789,1.207,5.934,1.169c-2.512-1.451-4.798-2.312-7.611-3.139l-0.341,0.649c-0.471-0.126,0.23-0.627,0.133-1.058
		c2.776,0.46,5.93,1.592,8.101,2.972c0.382,0.323,0.497,0.713,0.227,0.958C142.118,152.416,140.236,153.543,138.251,153.076z
		 M94.706,146.631c-4.138,1.25-8.598,2.345-12.995,3.239c-0.189-0.649-0.397-1.392-1.292-1.789c4.2-1.154,8.635-2.446,13.096-3.34
		c0.163,0.234,0.363,0.698,0.463,1.062c-2.909,0.694-5.952,1.417-8.564,2.612C88.42,147.985,93.314,146.579,94.706,146.631z
		 M77.907,150.794c0.494-0.297,1.195-0.435,1.918-0.824l-0.264-0.234l-2.248,0.728c0.229-0.927,1.518-0.627,2.015-1.188
		c-0.694-0.497-1.555,0.494-2.015,0c0.345-0.671,3.239-1.132,3.339,0.093c0,0-0.067,1.095-0.234,1.559l-1.607,0.486
		c0,0-0.327-0.019-0.07-0.142c0.467-0.223,0.987-0.43,1.414-0.712C79.432,150.3,78.668,151.087,77.907,150.794z M75.893,152.345
		c-3.273,1.362-6.846,2.319-10.487,2.386c1.351-1.543,3.584-2.686,5.726-3.209l0.048,0.435c-1.291,0.563-2.827,1.287-3.855,2.174
		c0.995,0.134,1.889-0.69,2.842-1.054l4.791-1.848c0.196-0.724,0.687-1.273,1.162-1.492c0.4,0.197,0.697,0.895,0.831,1.421
		c-0.664,0.43-1.584,0.386-2.249,0.728C74.898,152.479,75.559,152.056,75.893,152.345z M70.768,154.861l-4.167,3.21l-0.464-0.134
		c0.264-1.024,0.924-1.955,1.889-2.616C68.979,155.258,69.87,155.032,70.768,154.861z M74.182,150.957l-0.308-0.029
		c0.813-0.961,1.313-1.751,1.985-2.709c0.089-0.137-0.397-0.133-0.397-0.133l-2.675,3.202h-0.368
		c2.397-3.091,3.11-5.076,7.047-5.484c-0.07,0.56-0.59,1.644-0.831,2.145C76.286,147.455,75.473,149.699,74.182,150.957z
		 M93.745,134.393v0.334c-13.771,3.243-43.85,10.635-51.234,13.786c-1.458,0.619-1.053,1.224,0.412,0.724
		c16.387-5.544,33.475-9.333,50.593-13.059l-0.268,5.225c-3.997,1.028-8.13,1.722-12,3.109l0.23,0.464
		c3.87-0.761,7.871-1.918,11.771-1.789v0.464l-12.962,2.979c-0.33-0.535,0.635-1.325,0.134-1.889l-4.661,1.559l-3.937,4.03
		c-3.562,1.354-6.453,2.898-8.331,5.221l2.98,0.134c-0.731,0.828-1.492,1.852-1.195,2.976c0.463,0.991,1.343,0.309,1.915,0
		c0.797-0.464,5.503-3.759,6.687-4.349c6.842-3.392,14.535-4.709,21.886-6.824c0.627,0.326,1.336,0.656,1.963,0.986
		c0.193,0.101,0.186,0.264,0.007,0.278c-0.534,0.049-0.998,0.301-1.146,0.616c-0.59,1.425-2.627,1.354-3.666,1.918
		c-0.46,0.234-0.898,0.694-0.731,1.288c5.024,5.525,11.871,8.208,18.917,9.655c1.354,0.898,2.742,1.956,4.427,1.655
		c9.492-4.167,19.34-7.436,28.902-11.406c0.909-0.475,1.718-1.058,1.321-2.149c-3.109-1.981-6.516-3.113-9.981-4.397
		c0.022-0.497,0.671-0.931,1.365-1.414c0.557-0.394,2.419-2.219,2.419-2.219c10.349,3.169,19.619,8.423,29.541,12.561l0.23-0.233
		c-9.27-4.995-19.077-9.8-29.133-13.607c0.427-0.823,0.497-1.733,0.564-2.728c8.772,2.813,17.122,6.621,25.385,10.643
		c9.411,4.586,15.518,8.832,20.472,8.81c0.219,0,0.044,0.222,0.044,0.222l-30.327,13.196c0,0-42.518,18.972-48.537,23.44
		l-2.152,2.022c-0.702-4.03-6.98-8.984-11.036-11.805c-1.981-1.383-17.697-12.909-17.697-12.909
		c3.173-7.373,11.618-8.932,17.062-10.735c-2.345,1.477-5.091,2.746-7.232,4.772c-1.989,1.889-1.377,4.108-0.308,4.976
		c5.425,4.371,12.649,8.653,18.152,11.199c2.112,0.976,4.301,1.739,6.88,1.309c-0.401,0.961-1.11,2.286-0.913,3.384
		c0.297,1.655,1.792,0.731,2.445,0.268c17.103-12.167,37.033-17.48,55.138-27.229l4.813-2.938c2.53,1.035,4.867,2.467,7.658,2.368
		c0.163,0,0.101-0.208-0.09-0.23c-2.771-0.423-5.208-1.603-7.617-2.902c-1.27,0.731-2.319,1.681-3.804,2.382
		c-8.616,4.575-22.977,10.62-31.912,14.424c-1.195,0.493-1.559,0.512-0.13-0.108c8.642-3.93,26.558-11.941,27.923-12.594
		c2.612-1.244,5.076-2.523,6.724-3.982c0.082-0.074-0.148-0.479-0.345-0.486c-3.217-0.123-6.241,0.846-9.169,1.681
		c-11.745,3.325-34.754,13.322-34.754,13.322c-0.234-0.587,0.33-1.351,0.59-2.008c0.705-0.612,1.606-0.783,2.412-1.176
		c0.149-0.071,0.108-0.404-0.056-0.371c-2.727,0.638-5.551,1.651-8.204,2.868c-2.743,2.413-4.397,5.815-7.144,7.732
		c-1.673,1.18-3.269,2.78-4.163,4.501c-2.913,0.394-5.392-0.957-7.837-2.021c-5.552-2.805-10.88-6.011-15.838-10.212
		c-0.534-0.427-1.024-1.321-0.594-2.148c0.516-2.015,8.672-6.491,12.546-8.892l-0.412-0.267c-9.57,2.727-18.483,4.123-22.829,11.971
		c-2.805-0.36-13.996-7.711-16.631-10.234c-2.319-2.223-2.26-4.382,1.247-6.942c4.508-3.288,9.655-4.783,14.568-7.244l-0.044-0.404
		c-4.598,0.044-8.568,1.31-12.788,2.501c-2.501,0.705-11.848,2.697-14.108,3.042c-2.746,0.419-5.41,0.297-7.277-2.119
		c-0.902,0.034-1.789,0.468-2.712,0.134C55.87,142.341,74.768,138.626,93.745,134.393z M144.337,151.391
		c0.074-0.163,0.141-0.389,0.141-0.638l0.453,0.174v0.463H144.337z M113.482,181.28c1.421-1.391,3.31-1.487,4.764-2.738
		c0.178-0.252,0.538-0.567,0.728-0.834l0.197,0.085l-0.657,0.876c0.694,0.097,1.617-0.464,2.378-0.23
		c-2.479,2.112-5.856,2.609-8.928,3.57c0.957-1.589,2.642-2.616,4.034-3.704c0.101,0.063,0.352,0.327,0.233,0.461
		c-1.061,0.56-1.952,1.487-2.846,2.382L113.482,181.28z M128.262,171.526c11.837-5.336,24.149-9.596,36.439-13.893
		c2.022-0.716,5.225-1.12,5.225-1.12l-1.088,0.827c-12.371,6.646-25.399,11.704-38.19,17.262c-0.564,0.167-1.132-0.17-1.191-0.69
		c-0.034-0.382,0-0.667-0.36-0.831h-0.367c0.375,1.065-0.987,1.225-1.421,1.418c-0.434,0.178-0.467-0.475-0.271-0.627
		c0.505-0.401,1.677-0.301,1.225-1.054c-0.69,0.13-1.421,0.794-2.015,0.36c0.828-0.197,1.718-1.447,2.516-0.356
		C129.26,172.361,128.462,171.99,128.262,171.526z M127.075,175.92c-0.331-1.218,1.188-1.021,1.785-1.551
		C129.256,175.493,127.768,175.66,127.075,175.92z M123.735,177.244c-0.534,0.204-1.188,0.563-1.918,0.593
		C121.631,176.854,123.735,177.244,123.735,177.244z M121.353,176.753c0.964-2.333,3.94-4.352,4.764-2.254
		c0.03,0.137,0.115,0.353,0.13,0.467l-4.431,2.014L121.353,176.753z M124.065,177.581l0.627,0.127l-1.554,0.463L124.065,177.581z
		 M124.559,176.516l1.785-0.822c0.167,0.204,0.345,0.389,0.134,0.693C125.983,177.147,124.956,176.649,124.559,176.516z
		 M126.577,172.123h0.601C127.044,172.383,126.744,172.383,126.577,172.123z M125.887,172.123c-2.516,0.49-4.731,1.915-5.492,4.526
		c-0.297,0.33-0.694,0.33-1.058,0.469c0.531-0.898,1.087-1.789,1.555-2.75c-0.297-0.412-0.712,0.111-1.191,0.775
		c-0.712,0.975-0.998,2.214-2.148,2.693c0.946-1.324,1.521-2.719,2.356-3.977c1.284-1.915,1.503-2.468,3.907-3.547
		c1.013-0.457,2.137-0.742,3.125-1.165L125.887,172.123z M113.842,182.665c0.891-0.167,1.729-0.516,2.394-1.05l-0.004-0.335
		l0.356-0.232l0.138,0.463l1.885-0.597c-1.818,1.488-3.933,2.219-5.588,4.07l0.134,0.097c4.067-2.743,8.364-4.988,12.731-7.14
		c0.494-1.188,1.714-1.555,2.742-2.021c0.115,0.366-0.264,0.596-0.264,0.961c-5.455,2.975-11.113,5.555-16.305,9.291h-0.363
		C111.927,184.721,112.454,183.489,113.842,182.665z M75.295,172.354c-0.887,1.974-1.918,4.296-2.876,6.412
		c-1.818,0.827-3.796-0.205-5.095-0.824c-5.918-3.874-12.134-7.41-17.522-12.004c1.158-2.226,1.777-4.708,2.832-6.987
		c2.119-4.598,7.247-7.139,11.655-8.694c0.378-0.145,0.416,0,0.03,0.196c-3.117,1.573-7.466,3.306-8.201,7.484
		C56.689,161.845,71.625,170.636,75.295,172.354z M46.132,159.388c0.338-3.076-0.779-4.078-2.512-5.024
		c-0.43,0.197-0.134,0.631-0.229,0.957c0.59-0.063,1.135,1.214,1.076,1.555c-0.067,0.375,0.111,1.061,0.111,1.061
		c0.267,0.264,0.728,0.464,0.367,0.861c-0.675,1.206-2.427-0.012-2.152-1.095c-1.555,0.233-2.612-1.154-3.44-2.152h-0.594
		c0.13-0.954,0.501-2.082,1.517-2.475c0,0,2.153,1.48,2.88,1.054c-0.991-1.514-2.683-2.312-4.167-3.076l1.191-0.724
		c2.416,1.852,5.755,3.213,6.909,6.315C47.257,157.421,47.208,159.199,46.132,159.388z M46.726,159.985
		c0.07,0.661-0.604,1.084-1.091,1.191C45.602,160.482,46.166,159.93,46.726,159.985z M44.578,160.579
		c-2.13,2.208-6.394,0.516-5.818-4.66c0.527,1.05,0.631,2.167,1.755,2.463c0.828,0.197,2.216,1.406,2.412,1.704
		c-0.564,0.363-1.325,0.23-1.785,0.727C42.196,161.24,43.549,161.01,44.578,160.579z M38.492,150.2
		c-0.438,0.39-1.487,1.162-2.479,0.728C36.51,150.167,37.602,149.904,38.492,150.2z M37.026,155.458
		c-0.097-1.191-0.367-2.286-1.51-2.979c-0.286-0.156-0.72-0.857,0.134-0.724c0.698,0.954,1.161,1.358,2.085,1.889
		c0.048-0.457,0.264-0.832,0.527-1.392c0.497-0.271,1.024,0.03,1.424,0.227c-3.15,1.907-1.265,7.659-0.033,8.865
		c1.566,1.525,4.791,0.531,4.791,0.531l-0.694,0.824c-0.731,0.397-1.584-0.264-2.148,0.134c0.052,0.783,1.755,1.25,2.746,1.053
		c0.694-0.59,0.958-1.451,1.785-1.881c-0.06,0.746-0.423,2.891-1.785,2.746C38.566,164.271,37.386,159.934,37.026,155.458z
		 M36.611,168.65c-0.012,0.486-0.101,0.957-0.134,1.454C35.869,170.042,35.802,169.128,36.611,168.65z M32.31,178.305
		c-0.958-0.1-2.271-0.883-2.612-1.918c0.267-0.831,1.057-1.421,1.554-2.119c0.739,0.419,1.259,1.392,1.195,2.381
		c-0.831,0.134-1.588-0.263-2.286-0.134C30.551,177.273,32.729,177.188,32.31,178.305z M33.138,178.896
		c-0.624-0.695,0.423-1.352,1.191-0.824c0.308,0.263-0.431,0.401-0.467,0.694c0.048,0.251,0.504,0.478,0.775,0.749
		C34.091,179.515,33.535,179.196,33.138,178.896z M33.178,177.151c0.301-0.913-0.17-2.3-0.868-3.195
		c-0.534-0.709,0.683-1.076,1.083-0.791c1.225,0.854,1.544,2.386,1.663,3.813C34.544,176.881,33.842,176.917,33.178,177.151z
		 M149.198,230.218c2.378,0.293,4.757,0.394,7.27,0.326c-4.327,3.311-9.154,6.354-14.049,8.235c1.618-2.053,2.609-4.364,3.339-6.78
		L149.198,230.218z M128.729,241.754c3.502-2.778,7.67-4.563,11.44-7.038c1.607-0.961,3.188-2.387,4.794-3.374
		c0.111-0.069,0.26,0.138,0.16,0.253C142.737,234.304,134.281,240.88,128.729,241.754z M171.48,210.573
		c0.331-0.538,0.598-1.099,0.865-1.655c0.256-0.571,0.408-0.448,0.2,0.138c-5.418,15.073-19.919,16.82-26.061,12.924
		c1.221,0.331,2.842,0.828,4.394,0.962c0,0,5.577,0.182,7.239-0.749c0.164-0.09,0.056-0.391-0.104-0.372
		c-3.781,0.505-7.563,0.238-10.702-1.128v-0.264c9.147,2.861,16.873-0.768,18.55-3.799c-0.813-0.408-1.299,0.274-1.852,0.912
		c-3.158,3.692-14.609,3.299-16.104,1.597v-0.365c0.958,0.394,2.048,0.762,3.072,0.598l-0.924-0.961
		c0.761-0.394,1.818,0.363,2.612-0.229c-1.421-0.53-3.273-0.229-4.397-1.195c6.123,0.765,15.251,0.909,17.722-5.814
		c-0.52-0.46-0.646-0.13-0.771,0.289c-0.516,1.696-4.338,4.339-6.505,3.61c0.238-0.793-0.434-2.611,1.191-3.072
		c2.249-0.527,2.977-4.233,5.723-2.512l0.363,1.087c2.713-3.139,3.076-7.402,3.796-11.436h0.368c0.037,0.961-0.394,2.212-0.23,3.206
		c0.597-0.862,0.86-2.086,1.061-3.206c0.13,0.292,0.282,1.246,0.556,1.383l0.761-0.659c-0.991,5.388-2.412,10.913-5.852,15.474
		h0.731c2.149-2.417,3.206-5.289,4.394-8.102c-0.233-0.197-0.274-1.042,0.059-1.473c0.991-1.091,2.327-6.623,2.327-6.623h0.364
		c0.16,4.063-1.918,7.535-3.113,11.169L171.48,210.573z M155.046,204.726c-0.041-0.694,3.318-3.018,3.573-1.789
		c-0.531,0.53-1.387,0.461-1.789,0.958c0.401,0.2,0.961,0.096,1.421,0.137c0.097,0.364-0.43,0.494-0.46,0.824
		c0.586,0.497,1.577-1.406,1.544-0.101c-0.067,2.435-4.75,2.839-5.248,1.599c-0.125-0.312-0.148-0.597,0.134-0.904
		c0,0,1.971,1.224,3.44-0.23C156.864,204.855,155.811,205.485,155.046,204.726z M158.972,202.385c0-0.249,0.223-0.45,0.49-0.45
		c0.274,0,0.49,0.201,0.49,0.45c0,0.251-0.215,0.451-0.49,0.451C159.194,202.836,158.972,202.636,158.972,202.385z M154.73,207.494
		c0.883,0.812,2.601,0.638,3.714-0.29c1.317-1.095,2.167-3.361,2.427-4.06c0.197-0.553,0.233-1.065-0.464-1.495l0.59-0.498
		c0.341,0.33,0.775,0.999,0.475,1.692c0.627-0.129,1.31-0.567,2.271-0.371c-0.564,0.564-1.521,0.794-2.282,1.191
		c0.022,0.567-0.186,1.11-0.33,1.625c-0.082,0.294,0.341,0.453,0.486,0.179c0.208-0.39,0.341-0.839,0.575-1.21
		c0.101,0.401,0.233,0.73,0.282,0.954c0.731-0.126,0.148-1.055,0.905-1.088c-0.037,0.401-0.497,0.831,0.096,1.095l0.965-1.188
		c0.494,0.26-0.467,1.088,0.494,1.055c0.527-0.36,0.327-1.222,1.058-1.321c0.197,0.493-0.46,0.895,0.233,1.19
		c0.523-0.363,0.561-1.257,1.188-1.291c-0.015,0.412-0.101,0.693-0.101,1.062c0.857,0.523-0.096,1.354-0.13,2.011l-4.475,0.393
		c0,0-0.475-0.151-0.048-0.222c0.92-0.147,1.933-0.178,2.839-0.345c0.441-0.093,0.419-0.368-0.015-0.397
		c-1.8-0.115-3.818-0.646-4.876,0.554c-0.282,0.325-1.458,1.869-1.941,2.244c-0.438,0.337-0.898,0.631-1.466,0.523
		c-0.267,0.196-0.259,0.427-0.259,0.728l0.85,0.226c-0.26,0.364-1.091,0.271-1.091,0.961c0.331,0.694,1.158-0.363,1.188,0.464
		c-0.356,0.36-1.188,0.23-1.058,0.958c0.219,0.453,0.895-0.297,1.058,0.367c-0.227,0.393-1.225,0.13-1.058,0.954
		c0.134,0.277,1.058-0.394,1.058,0.468c-0.26,0.459-0.954,0.066-1.058,0.724c0.201,0.43,0.731,0.4,1.058,0.232
		c0.126,0.442-0.657,1.063-1.292,0.962h-1.781c-0.728-1.951-0.561-4.371-0.861-6.315c0.794,0.326,0.816,3.803,1.061,4.49
		c0.063,0.174,0.509-0.193,0.509-0.193l0.119-4.071c0.249-0.051,0.486-0.122,0.705-0.236c0.223-0.112,0.182-0.77-0.026-0.717
		c-0.274,0.063-0.579,0.259-1.042,0.23c-0.731-0.175-1.347-0.608-2.008-0.082l-0.015,2.59h-0.489
		c-0.038-0.86-0.134-1.918-0.23-2.843l-1.195-0.724c0.441-0.597,0.801-1.691,1.614-1.754
		C153.175,206.885,154.434,207.223,154.73,207.494z M161.391,200.863c0-0.16,0.201-0.286,0.453-0.286
		c0.245,0,0.449,0.126,0.449,0.286c0,0.159-0.205,0.288-0.449,0.288C161.592,201.151,161.391,201.022,161.391,200.863z
		 M166.586,201.386c0.53-0.268,0.542-1.655,0.675-2.182c0.2,0.16,0.727,0.174,0.976,0.292c-0.03,1.128-0.293,2.187-0.694,3.206
		c-0.694,0.038-1.354,0.469-2.011,0.134c0.519-0.868,0.557-2.052,0.76-2.99c0.075-0.315,0.441-0.252,0.412,0.041
		C166.665,200.417,166.482,200.938,166.586,201.386z M166.586,208.425c-0.761-0.794-1.755,0.037-2.742-0.23
		c0.79-0.229,1.915-0.839,2.608-0.601C166.917,207.765,166.85,208.177,166.586,208.425z M161.959,208.889
		c-0.134,0.961-1.169,1.521-2.152,2.02l-0.954,0.359v-0.359C159.907,210.277,161.061,209.913,161.959,208.889z M153.729,216.529
		l-1.061-0.13c0.419-0.705,0.375-1.752,0.46-3.21h0.234L153.729,216.529z M152.438,213.883c0.029,0.428-0.038,1.088-0.264,1.551
		c-0.731,1.389-2.453,0.669-2.846,0.365c-0.56-0.991-0.029-2.149,0.46-2.977C150.586,213.29,152.538,212.425,152.438,213.883z
		 M188.104,210.532c-2.586,1.741-5.933,3.044-7.365,6.098c-2.315,2.11-4.923,3.536-7.606,4.76c1.785-2.75,3.31-5.591,4.534-8.567
		c1.622-0.334,3.239-0.623,4.857-0.958c-0.598,1.292-3.069,2.282-2.282,4.102c1.837-2.721,4.803-4.313,7.777-5.582
		C188.261,210.283,188.323,210.384,188.104,210.532z M182.196,204.258c0.698,1.836,2.424,2.513,3.433,0.598
		c0.205-0.364,0.205-0.794,0.368-1.191c0.724,1.585,1.454,3.407,1.655,5.354c-3.044,0.598-5.956,1.617-8.929,2.382l-0.367-0.229
		c0.994-2.486,1.421-5.157,2.382-7.637c0.167,2.183-1.076,4.308-1.038,6.557C180.921,208.109,181.499,206.443,182.196,204.258z
		 M250.704,160.731c0.976-0.593,3.377-2.931,3.603-4.683c0.265-0.129,0.531-0.363,0.829-0.363c-0.702,3.113-3.637,5.889-6.65,6.783
		h-1.191C248.304,161.778,249.573,161.425,250.704,160.731z M248.719,160.579c1.191-1.584,2.813-3.239,4.527-4.066
		c-0.461,1.388-1.488,2.812-2.976,3.573L248.719,160.579z M248.121,166.765c0.498-0.134,1.092-0.163,1.426-0.731
		c0.063-0.36-0.071-0.624-0.367-0.82c0,0,2.089-0.958,2.649-1.788l-0.363-0.368c-1.096,0.464-2.187,1.192-3.479,0.731
		c0.401-0.196,0.896-0.561,1.192-0.827c3.209-0.958,6.052-4.465,6.813-7.641l0.464-0.226l0.134,1.188
		c0.497,0.23,0.623-0.43,1.054-0.363c-0.69,2.976-2.215,5.588-4.297,7.966c0.263,0.331,0.479,0.145,0.73-0.096
		c2.274-2.445,3.733-4.924,4.757-7.87c0.546-0.138,1.329-0.264,1.652,0.363C257.087,166.405,250.359,169.392,248.121,166.765z
		 M259.298,161.411l2.053-4.527C261.291,158.063,260.475,160.706,259.298,161.411z M269.095,153.076
		c-0.604-0.104-4.769-0.794-6.453-0.958c3.369-2.186,6.974-2.434,10.68-3.855l0.03-0.446c-4.112,0.546-7.882,1.748-11.464,3.551
		c-3.19,1.603-0.211,1.94-0.211,1.94c2.616,0,4.632,0.36,6.917,1.054c-2.657,0.397-5.262-0.293-7.845-0.453
		c-7.478-0.468-14.761,4.527-17.154,15.106c-0.248,1.254-1.618,2.712-2.977,3.699c-16.271,11.34-49.077,35.345-49.571,35.693
		c-0.553,0.39-1.154,0.652-1.71,0.479c-2.168-7.956-7.581-12.746-14.186-13.069c-6.702-0.33-19.003,5.006-23.905,11.099
		c-2.457,3.051-3.188,7.66-4.156,11.236c-0.412,1.515-1.032,2.924-2.331,3.744c-0.393,0.256-8.534,4.598-12.142,6.521
		c-4.616,2.449-10.568,4.545-14.194,4.342c-2.552-0.149-3.358-1.221-0.096-2.858c0.249-0.126,0.219-0.274-0.049-0.241
		c-2.768,0.293-5.087,2.13-7.406,3.764c-1.822,0.863-3.789,1.406-5.767,1.911c-0.141,0.033-0.375-0.245-0.3-0.353
		c3.002-4.194-1.354-9.716-7.389-10.123c1.488-2.25,3.934-4.102,6.813-3.471c-1.221,1.032-1.938,1.741-1.918,3.185
		c0.015,0.704,0.115,1.425,0.954,1.477c2.482,0.197,4.958-0.234,7.013-1.324c2.115,1.759,3.002,3.395,3.996,5.614
		c0.297-0.368,3.807-1.61,5.295-2.045l-0.233-0.229c-1.588,0.1-3.173,0.196-4.531,0.819c-3.095-5.503-7.604-9.555-12.546-13.144
		c-5.392-3.914-28.417-19.336-30.625-20.142l-0.274,0.326c3.688,2.32,7.737,4.828,11.444,7.607
		c-0.293,1.443,0.839,2.067,1.963,2.693c0.545,0.301,7.789,5.11,11.128,7.063h-0.865c-4.226-2.516-8.427-5.158-12.598-7.975
		c-0.464-0.327-0.264-0.857-0.126-1.421c-0.928,0.096-2.123,0.2-2.979,0.831c0.464,0.36,1.125-0.17,1.789,0
		c-0.242,1.265,0.957,1.581,1.551,2.011l11.674,7.277c0.022,0.582-1.206,1.131-1.555,0.957c-4.301-2.512-8.631-4.958-12.632-8.234
		c-0.564-1.306-1.606-1.915-2.75-2.382c-0.995-0.412-5.584-2.769-6.772-3.796l2.642-1.421c1.258,0.26,5.28,3.799,5.956,4.033
		c0.593,0.196,1.487,0.724,2.015,0c-3.206-2.684-6.876-4.765-10.479-6.78l-0.237,0.234c0.649,0.705,1.555,1.488,2.022,2.145
		c-1.158,0.595-3.206,0.564-3.206,2.382c-1.087-0.856-2.156-1.421-3.21-2.147l2.535-1.076c0.894,0.1,1.495,1.172,2.331,0.746
		l-1.655-1.56c-0.816,0.197-1.625,0.394-2.438,0.587c-0.152,0.041-0.245-0.275-0.137-0.312c1.091-0.368,2.835-1.284,2.776-1.485
		c-0.101-0.325-2.72-3.506-2.999-3.706c-1.637-1.154-2.794-0.527-4.115-0.338c0.594,0.426,4.431,3.109,5.492,4.164l-2.052,0.86
		c-1.028-0.86-4.731-4.234-5.362-5.125c-0.327-0.066-0.59,0.101-0.82,0.364c0.07,0.839,0.015,1.617-0.397,2.256
		c-0.534,0.809-0.653,1.358,0.008,2.212c2.159,2.816,5.228,4.905,6.471,8.264c0.397,0.133,0.86,0.133,1.188,0.46h-1.685
		c-1.128-3.48-4.928-5.804-6.81-8.987c-0.746-1.259,0.041-2.215,0.816-3.144c-3.098-3.143-6.197-6.697-7.099-9.064
		c-0.497,0.022-1.054,0.203-1.559,0.248c-0.876,0.082-1.073-0.728-0.445-1.168c0.378-0.26,2.367-0.765,2.597-1.321
		c-0.794-0.432-1.655,0.104-2.516,0.233c-0.665,0.493-1.24,1.807-2.023,2.208c-0.263,0.13-0.396-0.06-0.185-0.189
		c1.054-0.68,1.265-2.4,2.393-2.558c0.197-0.028,2.498-0.525,3.421-0.293c-1.484,0.717-0.728,2.379-0.728,2.379
		c2.346,2.979,5.188,5.521,7.971,8.201c1.488-0.394,2.872-1.259,4.527-0.824c1.789,0.892,2.471,2.612,3.893,3.793
		c0.163,0.13,0.368-0.093,0.23-0.271c-7.221-9.473-17.351-16.33-26.142-23.766c-0.326-0.334-0.765-0.687-1.292-0.687
		c0,0-0.085,0.397-0.133,0.687c-2.13,0.367-4.828,0.312-7.077,1.351c-0.223,0.104,0.063,0.486,0.308,0.438
		c1.792-0.341,3.647-0.717,5.451-0.694c-0.3,0.56-1.162,0.237-1.525,0.831c0.527,0.661,1.525,0.23,2.249,0.364
		c-0.794,1.948-1.744,3.154-3.232,4.712c1.094-0.037,5.611-1.406,5.611-1.406c0,0.538-0.034,1.125,0.237,1.555
		c-1.755,0.264-3.629,0.917-5.117,2.171c-0.791,7.229,5.685,16.334,8.234,19.915c13.043,18.306,24.94,27.619,39.438,33.356
		c1.748,0.697,3.566,1.124,5.551,0.863c0.464,4.009,7.273,4.914,12.924,4.462c0.216-0.02,0.249-0.219,0.026-0.294
		c-0.308-0.107-0.646-0.223-0.946-0.359c0.327,0,2.579-0.168,3.336-0.368c-0.252,0.193-0.461,0.345-0.713,0.527
		c-0.137,0.104-0.019,0.327,0.219,0.308c1.154-0.097,2.349-0.505,3.34-1.168c6.264,6.448,14.747,2.337,22.977-2.279
		c0.482-0.359,1.083-0.608,1.596-0.949c0.972-0.628,0.33-1.007-0.542-0.551c-6.579,3.438-14.498,7.854-22.112,3.653
		c-0.797-0.527-1.454-1.66-0.827-2.616c0.693-1.125,1.881-2.083,2.976-2.742c0.55,3.16,6.961,2.359,11.648,0.693
		c6.215-2.22,11.6-6.408,17.744-8.791c0.761-0.204,1.421-0.427,2.019-0.104c0.716,2.297-5.793,6.11-8.917,8.52
		c-0.364,0.282,0.015,0.611,0.535,0.375c1.202-0.557,7.685-5.095,7.685-5.095c0.167,2.349-2.179,4.26-4.293,5.458
		c-7.077,4.349-14.375,8.19-22.313,10.487c-1.492,0.434-0.984,0.868-0.074,1.238c2.613,1.064,7.024,0.62,9.956-0.579
		c0.133-0.051-0.245-0.566-0.401-0.537c-0.486,0.092-0.979,0.048-1.455-0.127c-1.547-0.516,0.467-2.019,0.467-2.019
		c0.293,0.271-0.3,0.694-0.104,1.191c0.3,0.368,0.661,0.49,1.05,0.494c2.887,0.021,9.641-3.875,12.561-6.265
		c0.583-0.475,0.705-0.386,0.167,0.131c-3.036,2.883-6.665,4.853-10.334,6.363l0.227,0.234c2.593-0.643,4.995-1.671,7.303-2.898
		c0.549-0.289,0.734-0.119,0.282,0.244c-6.832,5.537-15.671,8.387-24.346,6.917c-15.411-3.302-29.297-10.416-42.262-19.637
		c-9.718-7.143-17.823-16.799-24.996-26.42c-3.996-5.722-7.403-11.904-8.824-18.813c-0.167-0.82-0.167-1.589,0.264-2.382
		c-0.794-0.064-1.785-0.261-2.649-0.592c1.124-1.898,0.43-6.374-1.421-7.836c2.186-1.398,4.761-1.985,7.374-1.918
		c0.296-0.1,0.296-0.53,0.133-0.697c-2.771-2.382-4.301,0-4.301,0c0-0.724,0.371-1.455,1.095-1.688
		c4.457-1.117,17.559,12.345,22.903,16.487c0.133,0.11,0.282-0.09,0.137-0.237c-3.792-3.894-15.637-14.391-18.587-16.045
		c-1.755-0.983-3.677-1.773-5.648-1.161c2.583-2.178,5.499,0.041,7.841,1.454c9.076,5.722,17.566,13.073,26.053,20.082
		c1.124,0.932,6.167,4.506,7.551,5.403c1.421,0.932,2.861,1.822,4.386,2.494v-0.505c-1.785-1.317-3.866-3.173-5.258-4.991
		c4.753,0.379,22.772,13.088,24.754,15.596c1.818,2.297,0.783,3.159-1.269,1.903c-6-3.698-11.592-8.303-17.633-11.907l-0.23,0.234
		l21.066,15.6c5.121,3.741,11.611,8.346,14.323,14.127c-1.18,0.093-2.731,0-3.844,0.159c-0.594,0.037-0.364,0.761-0.263,1.062
		c1.421,0.06,4.72-0.085,4.928-0.085c4.679,0.033,8.913-1.607,13.058-3.124c2.082-0.828,3.937-1.927,6.085-2.843
		c-5.362,3.94-11.233,7.098-17.953,7.985c-1.284,0.167-1.195,0.716-0.523,1.198c1.272,0.916,2.701,0.946,4.119,0.631
		c4.713-1.046,13.195-6.163,20.045-11.01c3.57-5.418,2.675-12.694,8.331-17.258c1.32-1.092,3.076-2.049,4.167-3.337
		c-1.655,0.327-3.276,1.552-4.761,2.742c-5.529,4.264-5.396,11.307-8.334,16.898c-4.63,3.952-13.321,9.485-19.818,10.684
		c-0.382,0.067-0.423-0.029-0.09-0.137c6.617-2.019,12.409-5.874,18.228-9.896c1.165-0.999,0.46-1.733-0.72-1.063
		c-5.893,3.366-12.609,6.008-18.658,7.188c-1.852,0.119-2.505,0.019-3.128-0.979c-2.126-3.402-6.182-7.808-10.148-10.45
		c-2.367-1.576-4.486-3.307-4.453-6.523c-1.599-4.957-18.049-15.685-26.78-18.582c-1.759-0.661-1.685,0.727-1.685,0.727
		l-20.835-16.071c-5.191-3.829-10.083-7.733-16.104-9.555l-0.657-0.096c0.367-1.013,0.901-0.772,1.454-0.386
		c1.469,1.009,3.6,1.629,4.961,0.983c1.852-1.362,2.965-7.006,2.742-9.062c-0.927-1.028-1.647-2.412-2.976-3.31
		c8.394-0.805,16.464-3.458,24.628-5.474c0.523-0.13,0.597-0.003,0.1,0.179c-6.776,2.449-15.381,4.211-18.64,11.945
		c-0.864,2.115-1.064,4.494-2.649,6.315c-0.1,0.341,0.041,0.728,0.301,1.035c1.084,1.307,12.39,9.633,18.873,12.586
		c2.397,1.096,4.902,2.082,6.653-1.97c0.627-1.454,1.051-3.027,1.748-4.364c0,0,22.313,15.904,24.253,17.599
		c1.704,1.485,5.667,4.943,3.525,9.167c0.331,1.458,1.154,2.841,2.149,3.903c0.13,1.113-0.015,2.416-0.048,3.681
		c-0.093,4.197,5.332,8.067,8.438,9.389c3.458,1.469,4.468,1.194,6.754-3.818c0.456-1.01,1.076-1.777,2.612-1.378
		c13.192-5.624,25.787-12.831,38.555-19.514l0.122,0.408l-21.548,11.362c-6.079,3.507-12.632,6.319-18.918,9.396l0.234,0.263
		c10.81-3.48,20.364-9.955,30.558-14.839c0.282-0.134,9.109-5.328,13.648-6.835c3.703-1.381,6.249-3.34,7.433-3.938
		c7.959-4.033,36.283-17.366,36.283-17.366l13.719-6.326c15.654-6.828,32.936-14.116,50.719-17.949
		C273.61,149.618,272.201,153.592,269.095,153.076z M98.606,235.075c-1.217,1.144-4.932,0.946-4.861-1.881
		c0.119-1.006,0.1-2.977,1.655-3.24c2-0.312,3.848,0.543,4,2.269c0.052,0.56,0.133,1.049,0.99,0.972
		c-0.694,0.954-5.058,0.623-5.685,1.053C95.86,234.875,97.251,235.009,98.606,235.075z M81.15,222.808
		c3.607,2.62,7.407,4.68,11.507,6.078v0.237c-3.039-0.534-5.818-2.092-8.687-3.67c-0.156-0.088-0.308,0.111-0.167,0.227
		c2.76,2.327,6.074,3.726,9.443,4.769c-0.39,2.104-1.585,2.182-3.206,2.015c-6.605-1.005-18.658-8.638-24.454-13.916
		c-6.665-6.063-14.383-15.075-19.2-21.899c-2.991-4.238-5.388-8.747-6.337-13.815c-0.13-2.126,1.551-2.977,1.551-2.977
		c-0.133-0.167-0.724-0.244-0.453-0.43c0.445-0.286,1.032-0.53,1.729-0.698c0.093-0.022,0.229,0.196,0.229,0.196l-0.545,0.572
		c0.731-0.204,1.288-0.431,2.148-0.237c-0.004,0.99,1.18,10.379,3.67,12.735c0.241-0.082,0.527-0.167,0.727-0.464
		c-0.961-1.918-2.052-3.805-2.152-6.082c0.531,0.041,0.39,0.905,0.735,1.654c3.5,7.734,9.417,14.644,15.8,20.963
		c0,0-2.679,2.323-2.98,4.208c0.895,0.396,3.748-1.578,4.19-1.745c0.333-0.129,0.686-0.199,1.072,0.045
		c2.95,2.643,18.256,12.613,21.425,14.153c0.397-0.234,1.062-0.098,1.062,0.467c2.011,0.891,4.063,1.618,6.182,2.142
		c-0.349,0.979-0.85,0.616-1.421,0.497c-4.36-1.191-7.64-2.991-11.596-5.396C81.128,222.255,80.936,222.659,81.15,222.808z
		 M49.802,179.363c0.375-0.387,0.653-0.535,0.917-0.713c0.089-0.063,0.426,0.159,0.312,0.319c-0.301,0.394-1.139,1.413-1.206,1.606
		c-0.13,0.371-0.256,0.734-0.716,0.472c-0.924-1.389-0.431-3.6-2.282-4.398c-0.616-0.229-1.191,0.038-1.521,0.595l-0.134,0.593
		c-0.594-0.656-0.007-1.795,0.72-1.962c2.813-0.534,4.245,2.07,3.681,3.254L49.802,179.363z M63.985,190.071
		c-0.097,0.234-0.431,0.301-0.724,0.268c-2.015-1.381-3.934-3.329-5.878-4.684c-0.104-0.073-0.308,0.101-0.237,0.197
		c1.176,1.556,2.868,3.332,4.145,4.694c0.246,0.26-0.063,0.363-0.219,0.212c-2.293-2.257-5.399-4.824-7.106-7.46
		c-0.516-1.48,1.013-1.383,1.273-1.094C57.725,184.906,60.912,188.086,63.985,190.071z M58.055,183.801l3.651,3.428
		C60.482,187.141,58.147,184.624,58.055,183.801z M50.663,180.813c0.167-0.924,1.188-1.421,2.019-1.555
		c0.494-0.029,1.021,0.631,1.555,0.965C53.316,180.412,51.903,180.613,50.663,180.813z M47.19,182.599l0.731,0.602
		c-0.167,0.363-0.894,0.511-1.195,0.099c-1.221-1.754-1.221-3.739-0.494-5.722h0.36c-0.03,0.728-0.427,1.786-0.093,2.646
		c0.527,0.159,0.542-0.327,0.583-0.795c0.041-0.452,0.237-1.101,0.593-0.065c0.301,0.879,0.353,1.974,1.303,2.516
		c-0.238,0.393-0.861,0.263-1.187,0.13c-0.668-0.297-0.067-1.719-1.065-1.326C46.563,181.311,46.956,182.009,47.19,182.599z
		 M44.43,175.418c-1.411,0.133-2.138,0.438-3.596,0.634c1.225-1.187,1.685-2.453,2.093-4.063c1.414,0.879,2.876,1.921,4.264,2.976
		C46.333,174.899,45.03,174.854,44.43,175.418z M57.54,196.625c2.085,2.805,5.061,5.421,6.549,8.23
		c-2.616-2.512-6.219-5.756-8.337-9.166v-0.59c-1.392-2.917-3.867-5.336-4.824-8.438c-0.408-1.336,0.404-1.959,1.091-0.594
		c1.38,2.765,3.911,4.858,6.019,7.348C56.285,194.042,56.779,195.512,57.54,196.625z M78.683,217.854
		c0.687,0.472,10.999,7.496,16.35,8.428l-0.304,0.485c-10.386-3.054-19.871-10.921-28.702-17.633l-3.358,1.306
		c0.79-0.891,1.789-1.347,2.816-1.807c-6.52-5.952-11.978-13.103-16.142-20.438c-0.446-0.745-0.631-1.655-0.602-2.383
		C54.745,198.507,66.823,209.761,78.683,217.854z M63.613,196.781c-0.274-0.193-0.43,0.267-0.734,0.227
		c-0.404-0.316-0.096-0.639-0.197-0.939l-0.345-0.371l-0.271,0.327l-0.59-0.461c0.13-0.229,0.338-0.541,0.252-0.627
		c-0.119-0.115-0.282-0.233-0.393-0.204c-0.639,0.594-0.575-0.564-1.006,0.229c1.521,2.019,2.564,2.583,4.148,4.468
		c-0.13,0.205-0.182,0.457-0.26,0.765c0.464,0.494,3.106,3.34,3.106,3.34c0.75,0.085,2.353-0.464,2.85-0.827l-0.642-0.59
		c0.201-0.335,0.438-0.404,0.634-0.731c2.468,1.6,4.865,2.676,7.281,4.063c-0.831,0.297-1.669,0.423-2.038,1.313
		c-1.651-1.188-3.618-2.338-5.373-3.458c-0.296,0.427,0.101,1.091,0.13,1.65c0.564-0.334,0.798-0.334,1.329,0.131
		c0.186,0.178-0.2,0.508,0.223,0.675c0.501,0.137,0.649-0.453,1.146,0.044c0.134,0.186,0.041,0.502-0.078,0.706l-6.65-2.847
		l-0.333-0.594c-1.692-2.839-4.297-4.957-6.212-7.736c0.164-0.798,0.876-1.24,0.92-2.152l0.23-0.268
		c1.358,1.751,2.946,3.644,4.664,5.028c0.167,0.215,0,0.534-0.226,0.731c-0.564-0.301-1.069-0.746-1.61-1.202
		C63.788,197.319,63.888,197.011,63.613,196.781z M66.371,200.559c0.368-0.138,1.822,0.982,2.394,1.848
		c0.163,0.26-0.327,0.538-0.557,0.312c-0.36-0.333-0.675-0.693-1.017-0.016C66.62,201.801,66.371,200.559,66.371,200.559z
		 M76.486,209.019c0.23-1.254,1.718-1.388,2.746-1.785c3.77,3.307,8.364,5.226,12.36,8.2c0.463,0.331,0.037,1.354,0.831,1.196
		c0.661-0.664,1.121-1.295,2.019-0.958c0.293,0.261,0.627,0.521,0.928,0.39c-0.067-0.301-0.238-0.494-0.438-0.727
		c0.111-0.876,2.111-1.979,2.979-1.452c-0.905,0.628-2.479,1.488-2.015,2.747c-2.186,0.286-3.503,1.072-2.646,3.703
		c0.041,0.114,0.594,0.204,0.576-0.082c-0.201-2.824,1.451-3.01,2.396-2.438c1.358,0.961,1.095,3.845,3.34,3.11
		c-0.263,0.534-1.74,0.936-2.1,0.737c-0.909-0.503-0.642-0.737-0.642-0.737c0.43-0.138,0.727,0.333,1.091,0
		c-0.761-0.53-1.648-1.232-2.409-1.997l-0.683,0.368c0.594,0.894,1.402,1.792,1.67,2.819c-0.268,0.795-1.158-0.1-1.558,0.461
		c0.4,0.396,1.027,0.768,1.788,0.601c0.067,0.465-1.358,0.624-2.015,0.36c-2.293-1.188-1.581-3.514-3.147-5.169
		c-1.336-1.411-10.661-6.884-13.882-8.75h-1.558c-2.179-1.092-4.561-1.985-6.542-3.206l0.234-0.268l5.848,2.646
		c0.561-0.564,0.364-1.354,0.598-2.053c0.627-0.561,1.755-0.656,2.379-0.694l0.1,0.368c-0.694,0.326-1.852,0.167-2.148,1.054
		C76.386,208.065,76.256,208.391,76.486,209.019z M101.255,217.951c0.356-0.101,0.624,0.096,0.691,0.459
		c-0.167,0.795-0.854,0.806-0.657,1.563c1.822-1.32,3.696-0.223,5.915,1.317c-2.282-0.728-4.693-1.124-7.143-0.861
		c-0.133-0.2-0.133-0.427-0.363-0.593c-0.497,0-1.417,0.53-1.555-0.331c-0.356-1.621-2.954-3.585-0.359-4.435
		c1.417-0.363,2.608,0.561,3.699,1.329c-0.957,0.754-2.349,1.617-2.512,2.972C99.864,219.301,100.194,218.017,101.255,217.951z
		 M109.088,223.772c-1.235,0.938-3.273,1.618-5.224,1.088c-1.288-0.994,0.167-2.68,1.288-3.11
		C106.673,221.917,108.127,222.744,109.088,223.772z M103.63,231.51c-0.661,0.623-1.522,1.217-2.509,1.316
		c-0.341-2.823-2.219-4.063-5.956-4.53l0.961-1.785C100.176,226.1,103.341,228.76,103.63,231.51z M73.376,206.511
		c0.497,0.096,1.158,0.497,1.685,0.819C74.601,207.435,73.41,207.297,73.376,206.511z M68.025,205.55
		c0.049-0.06,0.394-0.064,0.494,0.134v0.358C68.353,205.883,67.889,205.946,68.025,205.55z M75.165,210.307
		c1.021,0.378,1.685,0,2.512,0.497c4.531,2.486,9.058,4.868,13.196,8.208c0.631,0.646,0.816,1.206,1.046,1.773
		c0.078,0.205,0.672,2.022,1.002,2.62c0.79,1.124,2.081,1.354,3.206,1.321c-1.681,1.514-7.563-1.838-10.116-3.403
		c-4.505-2.787-16.379-10.757-20.138-14.913C69.146,206.907,72.123,208.859,75.165,210.307z M100.888,234.979
		c0.535-0.106,1.191-0.333,1.789-0.497c-0.296,0.958-1.655,2.052-2.879,2.145C100.161,236.033,100.888,234.979,100.888,234.979z
		 M103.73,235.995c0.145-0.088,0.286,0.023,0.186,0.216c-0.104,0.196-0.205,0.427-0.186,0.557c1.918,0.327,3.502-0.702,5.358-0.865
		c-1.651,1.484-5.243,1.566-6.646,1.192C102.743,236.863,103.248,236.284,103.73,235.995z M91.593,209.616
		c-0.69,0.019-7.752-4.082-7.733-5.259C86.472,205.976,89.084,207.728,91.593,209.616z M125.757,243.409
		c-1.213,0.294-2.716,0.461-3.963,0.301c-0.152-0.018-0.178-0.211-0.048-0.229c1.254-0.205,2.49-0.517,3.773-0.669
		C125.691,243.016,125.757,243.213,125.757,243.409z M38.396,169.607c0.39-1.203,2.015-0.367,2.015-0.367L38.396,169.607z
		 M178.438,183.878c9.551-5.279,34.587-17.064,53.835-24.95c11.89-4.869,24.023-9.458,36.443-12.613
		c2.133-0.546,2.185-0.382,0.074,0.201c-12.368,3.455-24.421,7.83-36.258,12.694c-5.963,2.449-19.819,8.624-22.995,10.104
		c-8.899,4.156-26.41,12.364-30.881,14.687C177.095,184.806,176.938,184.702,178.438,183.878z M276.828,148.401
		c0.835-0.301,1.681-0.913,2.475-1.411c-0.627,2.019-2.938,3.01-4.63,3.938l1.702-3.938l2.928-1.421
		c-0.322,0.913-1.506,1.948-2.575,2.546C276.599,148.185,276.661,148.467,276.828,148.401z M280.992,143.317
		c-1.288,1.563-3.147,2.319-4.896,2.983l-1.637,3.641c0,0-0.204,0.274-0.111-0.026c0.609-1.915,1.377-4.089,1.748-6.263
		c-1.079,0.074-2.137,0.241-3.19,0.456c-3.032,0.623-12.123,3.433-13.708,3.911c-23.088,7.028-44.707,17.548-66.556,27.537
		c-6.35,2.917-18.969,9.625-19.043,9.682c-0.86,0.697-0.237,2.355-1.398,2.396c-0.108,0.005-1.344-0.404-1.812-0.173
		c0.234,0.266,0.665,0.463,0.598,0.831c-1.128,0.923-2.713,1.188-4.037,1.188c0.233,0.229,0.697,0.664,0.363,1.095
		c-1.284,0.463-2.708,1.584-4.063,0.823c0.029-0.527,1.058-0.957,0.493-1.426h-0.363c-6.483,3.875-13.029,7.545-19.645,11.085
		l-18.083,8.928h-0.364c5.191-3.347,18.792-10.72,20.205-11.463c5.956-3.105,11.8-6.475,17.655-9.866
		c-0.233-0.961-1.094,0.003-1.696,0.114c-1.458,0.126-2.571,0.71-4.022,0.479c1.388-1.187,3.469-1.554,5.121-2.145
		c-0.163-0.371-0.561-0.174-0.857-0.237c0.598-1.384,2.53-2.586,3.339-2.611c0.096,0.894-1.391,1.361-0.961,2.248l3.109-2.382
		c0.36,0.435-0.731,1.061,0,1.558c0.987-0.363,1.551-1.754,2.605-1.893c-0.067,0.175-0.223,0.438,0,0.602
		c0.932,0.468,3.444-0.949,3.863-1.143c3.161-1.473,6.256-3.069,9.348-4.672c1.939-1.009,11.64-5.581,13.811-6.53
		c8.03-3.529,27.085-11.886,29.055-12.684c4.383-1.773,8.784-3.477,13.2-5.095c3.25-9.522,18.649-15.648,24.612-18.472
		c4.688-2.223,9.552-3.956,14.334-5.926l0.469-0.501c0.527-2.512,1.748-4.757,2.145-7.366l-0.36-0.237
		c-4.938,1.039-9.195,2.712-13.685,4.297c1.543-1.555,13.414-5.336,14.638-4.757c1.303,0.75-4.092,10.646-3.928,15.11
		c0.459,0.527,1.55,0.894,1.646,1.788c-0.624,0.427-1.414,0.561-2.111,0.824c0.074-0.824,0.4-1.981-0.728-2.149v-0.23
		c1.128-0.167,0.412-1.681,0.728-2.616l0.924-2.612l-0.227-0.264c-5.784,1.829-11.347,4.215-16.787,6.883
		c-6.461,3.165-11.414,5.603-14.761,8.227c-2.428,1.903-4.754,4.148-5.455,7.046l0.233,0.234c3.663-1.591,7.47-3.046,11.307-4.267
		l0.958-0.965l0.229,0.368l1.555-0.861c0,0,1.521-0.694,2.476-0.46c6.182-2.375,13.153-4.123,18.353-5.592
		c0.535-0.498,0.698-1.154,0.932-1.781l2.375-0.961c0.468,1.358-0.671,2.089-1.521,2.015c-0.558-0.063-1.088,0.07-1.318,0.501
		l1.551-0.037c-0.227,0.724,0.119,0.954,0.832,0.497c0.162,0-0.264,0.887,0.359,0.724c0.598-0.497,0.724-1.636,1.559-1.184
		C281.021,141.933,281.284,142.66,280.992,143.317z M243.844,150.497c5.825-5.559,21.719-12.482,31.894-15.637
		c-0.138,1.981,0.394,3.9-0.468,5.814c-11.373,3.214-22.521,6.78-33.326,11.307c2.212-4.493,6.906-6.843,10.939-9.258
		c7.18-4.119,15.343-7.666,23.577-10.249c-0.314,0.898-0.953,1.08-1.918,1.425c-15.044,5.191-25.659,11.292-31.036,16.346
		C243.082,150.649,243.457,150.868,243.844,150.497z M293.492,132.938c0.628-0.827,1.439-1.636,2.605-1.521
		C295.308,132.174,294.614,133.072,293.492,132.938z M310.614,121.632c-2.015,0-3.667,1.518-4.631,3.109
		c0.928,0.66,1.654-0.665,2.616-0.731c-2.616,3.143-7.54,1.525-10.02,5.024c0.994,0.761,2.141,0.175,3.217-0.249
		c0.245-0.097,0.298-0.026,0.09,0.093c-1.076,0.649-2.078,1.488-3.337,1.655c-0.14,0.015-0.088-0.152-0.088-0.152l0.979-0.516
		c-1.421-0.037-2.645,0.987-4.166,0.954c-0.999,0.044-2.512,1.261-2.877,2.62c0.301,0.397,0.988,0.36,1.321,0.36
		c-1.488,1.622-4.267,0.197-5.852,1.651c-1.158,2.215-3.54,1.918-5.358,2.75c-0.571,0.271-0.623,0.69-0.693,1.184
		c0.531,0.698,1.525,0.698,2.249,0.464c0.727-0.464,1.324-0.62,2.06-0.612c0.104,0,0.348,0.394,0.222,0.449
		c-0.386,0.141-0.898,0.171-1.32,0.301c-1.226,0.46-2.282,2.044-3.708,1.417c-0.426-0.364-0.794-0.791-1.417-0.728
		c0.033-1.718,0.229-4.03-1.789-4.861c-0.232-2.375,0.594-4.36,2.286-5.948c1.715-1.588,4.36-1.388,6.543-1.555
		c-1.385,1.054-4.172,1.054-4.432,3.21c0.598,0.828,1.218,0.661,2.152,0.498c3.737-0.765,5.357-5.659,9.652-5.032
		c1.684-1.648,3.406-3.333,5.817-3.303v0.23c-1.12,0.59-2.671,1.187-3.069,2.479c0.921,0.731,2.313,0.264,3.203-0.233
		c2.182-1.188,3.574-4.828,6.549-4.264c1.39-0.616,2.68-2.479,4.395-2.746c-0.23,0.401-1.05,1.062-0.36,1.425
		c0.898-0.3,1.451-1.387,2.279-1.785l2.979-0.728C314.585,119.149,312.303,120.144,310.614,121.632z"/>
	<path d="M48.578,192.414c1.417,2.841,3.874,6.423,5.525,8.04c-1.455-2.608-3.239-5.617-4.995-8.23L48.578,192.414z"/>
	<path d="M70.3,195.334l0.702,0.229c0.326-0.07,0.456-0.427,0.493-0.727C71.002,194.807,70.601,194.902,70.3,195.334z"/>
	<path d="M103.964,215.799v-0.464c-5.729-3.945-14.431-10.681-17.262-11.077C92.423,208.225,98.179,212.095,103.964,215.799z"/>
	<polygon points="94.706,222.113 93.979,221.521 93.845,221.616 94.442,222.348 	"/>
	<path d="M98.74,146.631c4.957,2.111,9.852,4.457,15.11,5.848c1.685-1.785,2.074-8.669,2.137-9.455
		c0.182-2.074-0.471-2.598-1.926-3.492c-2-1.217-11.637-4.39-14.26-4.98c-2.29-0.52-3.726-0.082-4.278,1.158
		c-0.542,1.206-0.52,4.16-0.327,6.309C95.448,144.775,95.849,145.581,98.74,146.631z M113.504,150.661
		c-0.282,0-0.512-0.178-0.512-0.394c0-0.223,0.23-0.404,0.512-0.404c0.278,0,0.512,0.182,0.512,0.404
		C114.017,150.482,113.783,150.661,113.504,150.661z M113.364,141.885l0.62-0.015c-0.119,1.429-0.271,2.828-0.434,4.345
		l-0.598,0.093C113.022,144.683,113.271,143.347,113.364,141.885z M105.07,136.831l5.44,2.193c-1.191-0.126-2.794-0.431-4.056-1.076
		c-0.071-0.037-0.23,0.126-0.17,0.174c1.71,1.563,4.029,1.796,6.13,2.279c0.367,0.085,0.352,0.26-0.007,0.241
		c-3.136-0.189-6.297-1.113-8.309-3.637L105.07,136.831z M112.547,141.885c0,1.425-0.486,2.824-0.486,4.416h-0.59
		c0.063-1.592,0.252-2.816,0.478-4.368L112.547,141.885z M110.948,141.978c-0.107,1.262-0.152,2.968-0.438,4.186l-0.694-0.133
		l0.545-4.275C110.361,141.755,110.97,141.77,110.948,141.978z M109.4,141.521c-0.033,1.559-0.226,2.738-0.545,4.179l-0.594-0.13
		l0.594-4.301L109.4,141.521z M107.809,141.068c0,1.288-0.107,2.895-0.371,4.141l-0.598-0.468l0.375-4.041
		C107.215,140.701,107.801,140.919,107.809,141.068z M106.473,140.345c-0.13,1.325-0.13,2.746-0.457,4.037l-0.367-0.367l0.229-3.934
		C106.046,139.951,106.343,140.118,106.473,140.345z M105.051,143.187c-0.623-1.087-0.753-3.165-0.23-3.93
		C105.251,140.148,105.051,143.187,105.051,143.187z M114.083,147.221c0.326,0.4,0,0.898-0.471,0.861
		c-1.945,0.356-6.898-0.616-9.381-3.473c-0.479-0.531-0.698-1.217-0.367-1.647C105.886,145.966,112.833,148.022,114.083,147.221z
		 M102.773,136.412c0.249,0.694,0.958,1.788,0.958,1.788C102.565,138.063,102.108,137.057,102.773,136.412z M96.127,137.469
		c0.694-0.664,1.818-0.664,2.742-0.464c-0.794,2.056-1.188,5.292,0.331,7.244c0.635,0.011,0.089-0.995,0-1.651
		c-0.412-3.629,2.003-5.083,3.837-3.573c0.761,0.761,0.46,1.911,0.694,2.846c-0.268,0.293-0.861,0.331-0.828,0.854
		c-0.237,3.989,6.794,6.242,10.947,6.186c-0.957,0.731-2.575,0.861-3.804,0.961c0,0,2.315,1.217,3.804,1.184
		c-0.334,0.668-1.125,0.353-1.789,0.104c-5.288-2.015-10.709-3.77-15.57-6.776C95.463,142.463,95.333,139.547,96.127,137.469z"/>
	<path d="M98.012,149.603c-0.527,0.038-0.594,0.924,0.129,0.598C98.309,150,98.279,149.77,98.012,149.603z"/>
	<path d="M104.461,215.799c-0.197,0.181-0.082,0.304,0.07,0.438c1.362,1.194,5.41,4.353,7.529,6.571
		c0.923,1.124,1.551,2.36,2.386,3.474C113.883,221.29,108.194,218.276,104.461,215.799z"/>
	<path d="M109.449,232.693c1.028-0.063,4.434-1.455,4.401-2.149c-0.164-0.17-0.367-0.358-0.594-0.459
		C111.768,230.448,110.51,231.51,109.449,232.693z M111.178,231.644c0.493-0.469,1.351-0.636,1.844-0.969
		C112.893,231.376,111.59,231.688,111.178,231.644z"/>
	<path d="M111.831,157.937c-0.286-0.434-0.994-0.296-0.824,0.134C111.208,158.234,111.698,158.334,111.831,157.937z"/>
	<path d="M115.535,210.573c-0.828,0.765-2.182,0.464-3.106,0.694c1.072,0.419,2.608,0.864,3.703,0.233
		C116.165,211.104,115.898,210.711,115.535,210.573z"/>
	<path d="M119.571,141.269c4.75,0.861,15.645-2.074,18.313-4.494c0.174-0.126,0.078-0.535-0.226-0.598
		c-5.588-0.43-11.34,0.958-16.435,2.847C120.796,139.194,118.744,140.037,119.571,141.269z M120.993,140.578
		c1.369-2.025,10.505-3.451,14.283-3.573C131.127,139.316,124.937,140.422,120.993,140.578z"/>
	<path d="M120.993,151.885c0,0-0.045-0.23-0.204-0.293c-0.219-0.085-0.557,0.03-0.393,0.39
		C120.563,152.252,120.893,152.085,120.993,151.885z"/>
	<path d="M120.993,173.779l0.36-0.104c0.66-2.379,3.206-2.182,4.764-3.47v-0.233C124.266,170.928,121.423,171.163,120.993,173.779z"
		/>
	<path d="M123.501,152.842c0.731-0.694-0.319-0.861-0.493-1.555c-0.46,0.631-0.349,1.191-0.327,1.889
		C122.941,153.406,123.297,153.005,123.501,152.842z"/>
	<path d="M132.069,149.276v-0.133c-0.074-0.353-0.709-0.353-0.594,0.133H132.069z"/>
	<rect x="138.481" y="137.603" width="0.493" height="0.363"/>
	<path d="M142.556,231.294c0.69-1.083-0.274-1.54-1.11-0.59C140.299,232.007,141.717,232.611,142.556,231.294z M141.691,230.964
		c0.353-0.501,0.834-0.322,0.367,0.309C141.595,231.892,141.22,231.628,141.691,230.964z"/>
	<path d="M152.07,208.524l1.291,0.265c0.13-0.571,0.263-0.809,0.564-0.873c0.152-0.033,0.226-0.144,0.025-0.229
		c-0.375-0.167-0.753-0.331-1.183-0.356C152.438,207.697,152.07,208.027,152.07,208.524z"/>
	<path d="M239.977,171.144c-8.305,5.808-16.491,11.439-24.817,17.273c0,0-24.074,16.242-25.363,17.133c0,0-1.049-2.409-1.299-3.333
		c-0.178-0.668-0.151-1.273,0.476-1.763l-0.367-0.355c-0.535,0.553-0.932,0.077-1.365-0.554c-2.438-3.536-6.265-5.893-12.416-6.037
		c-5.971-0.141-10.549,2.012-15.421,4.783c-0.598,0.338-0.386,0.464,0.3,0.152c2.111-0.95,4.259-1.911,6.46-2.672
		c5.407-1.863,13.324-2.06,17.956,1.773c2.987,2.472,4.973,6.35,5.677,9.919l48.44-34.646l1.863-1.518
		C240.1,171.299,240.704,170.636,239.977,171.144z"/>
	<path d="M167.191,141.714c-0.041,0.022,0.059,0.138,0.059,0.138l1.97-0.189c3.158-0.245,10.22,2.612,11.05,3.595
		c0.327,0.39,0.62,0.82,0.962,1.043c0.167-0.267,0.267-0.601,0.234-0.957C180.323,143.807,172.06,140.185,167.191,141.714z"/>
	<path d="M174.68,135.87c-0.505,0.267-0.149,0.857,0.371,0.39C175.481,135.874,175.181,135.606,174.68,135.87z"/>
	<path d="M180.522,147.384c-0.199,0.813,0.535,0.813,0.795,0.201C181.611,146.909,180.731,146.556,180.522,147.384z"/>
	<path d="M193.37,147.124c-0.152,0.579-0.712,0.942-1.402,1.221c-2.041,0.816-1.763,2.624-1.21,3.411
		c-1.027,1.321-2.55,2.608-3.934,3.206c4.063,0.56,9.254,0.59,11.436-3.57c0.84-3.414,0.387-13.284-1.654-16.074
		c-0.735-0.991-0.983-0.765-0.85,0.229C196.29,139.621,194.669,143.343,193.37,147.124z M196.539,152.553
		c-1.577,1.892-4.408,1.985-6.612,1.944l1.789-1.655c1.617,0.891,3.732,0.401,4.723-0.371
		C196.613,152.341,196.684,152.375,196.539,152.553z M197.021,138.664c0.694,3.024,0.854,6.672,0.724,10.286
		c-0.019,0.538-0.134,0.646-0.168,0.03c-0.185-3.069-0.479-7.989-0.689-10.301C196.866,138.333,196.951,138.382,197.021,138.664z
		 M196.81,149.736c0.895,1.907-1.784,3.151-3.469,2.772c-2.657-0.59-2.531-3.109-0.205-3.829
		C194.461,148.382,196.05,148.512,196.81,149.736z M196.572,143.918v4.631c-0.69-0.331-1.48-0.665-2.242-0.731
		c0.278-0.809,0.69-2.278,1.292-3.306c0.155,1.229-0.301,2.282,0.13,3.073C195.752,147.584,196.38,145.076,196.572,143.918z"/>
	<path d="M245.438,157.67c-6.06,2.286-17.232,8.724-17.915,12.435c1.952,0.268,3.7-1.113,5.358-1.321
		c-2.313,3.076-5.488,5.254-8.561,7.502l-19.778,13.46l-14.249,9.009l-0.668,0.404c0,0-0.16,0.994,0.901,0.337
		c0.538-0.325,10.517-6.479,14.88-9.525l18.776-12.853c3.44-2.349,6.847-4.902,9.793-8.205c0.486-0.604,0.486-1.421-0.264-1.191
		c-1.558,0.431-3.247,1.024-4.764,1.295c4.994-4.668,10.642-8.171,16.661-10.483c0.132,0.159,0.366,0.293,0.366,0.49
		c-1.149,2.783-2.305,5.726-2.782,8.654c-0.09,0.527,0.037,0.549,0.196-0.008c0.891-3.039,2.646-6.813,3.989-9.117
		C247.881,157.7,247.187,157.01,245.438,157.67z"/>
	<path d="M193.496,149.369c-1.477,0.457-1.559,2.063,0.134,2.438c1.071,0.238,2.775-0.549,2.207-1.767
		C195.352,149.261,194.338,149.176,193.496,149.369z M192.906,150.738c0.448-1.091,1.629-1.206,2.346-0.304
		C195.314,151.488,193.563,151.622,192.906,150.738z"/>
	<path d="M205.144,148.082c-0.994,0.728-2.318,0.928-3.209,1.655c0.935-0.182,2.608-0.564,3.703-1.321l-0.516-7.907l-0.445,0.3
		C205.011,143.317,205.011,145.666,205.144,148.082z"/>
	<path d="M231.824,148.909c-0.134-0.296,0.233-0.396,0.364-0.597c-0.197-0.564-1.226,0.134-0.962-0.727
		c-0.523-0.13-2.523,0.601-3.054,0.853c-0.371,0.175-0.608,0.468-0.512,1.065c-1.328,0.497-2.616,1.388-3.938,1.551
		c-0.995-0.33-2.219,0.434-2.976,1.199c2.441,2.178,5.024-0.564,7.373-0.731v0.364c-1.006,0.475-2.001,0.946-3.024,1.424
		c-0.257,0.119-0.416,0.249,0.126,0.086c1.37-0.404,3.866-1.136,4.257-1.154c1.265-0.052,1.751-0.249,1.829-1.032
		c0.048-0.59,0.819-0.319,1.117-1.009C232.611,149.555,232.488,149.039,231.824,148.909z M229.212,151.521l-0.497-0.364
		c0.264-0.197,0.675-0.356,0.827-0.104C229.709,151.391,229.452,151.406,229.212,151.521z M230.269,150.694l-0.129-0.594
		c-2.019,0.396-4.041,1.521-6.052,2.245c-0.729,0.271-1.488,0.033-2.149-0.227c0.449-0.646,1.344-0.479,2.142-0.527
		c0.301-0.018,3.87-0.994,4.869-2.223c-0.101-0.133-0.298-0.26-0.234-0.46c0.827-0.296,1.666-1.013,2.526-0.411
		c-0.1,0.196-0.378,0.345-0.244,0.646c0.2,0.093,0.394,0.107,0.594,0.226c-0.364,0.134-0.746,0.13-1.109,0.486
		c0.492,0.372,0.846-0.252,1.343,0.116C231.558,150.561,230.93,150.794,230.269,150.694z"/>
	<path d="M227.887,155.919c0.646,1.284,2.688,1.128,2.847-1.421l-0.252-0.019C230.225,156.371,228.845,156.42,227.887,155.919z"/>
	<path d="M230.188,154.553c0.902-2.516-1.796-1.944-2.06-0.375C227.813,156.079,229.668,155.997,230.188,154.553z M228.556,154.193
		c0.159-0.938,1.781-1.28,1.235,0.23C229.487,155.291,228.365,155.336,228.556,154.193z"/>
	<path d="M228.206,127.142c0,0,1.035,10.193,1.467,14.26l0.467,0.467c1.517-0.534,3.436-0.894,5.258-1.061
		c3.637-3.373,13.274-7.796,13.852-7.956c0.868-0.237,1.54-0.471,1.121-1.796C245.183,124.537,235.509,125.094,228.206,127.142z
		 M229.446,130.56l2.145,0.363l-1.786,3.203C229.513,133.139,229.379,131.813,229.446,130.56z M229.905,135.684
		c0.698-1.529,1.686-3.013,2.521-4.531l2.604,0.497c-1.288,2.186-2.512,4.393-3.34,6.776l0.233,0.233
		c1.651-2.051,2.413-5.061,4.531-6.642l1.829,0.501c-1.551,1.384-2.233,3.265-2.789,5.083l0.271,0.052
		c0.942-1.77,1.811-3.228,3.299-4.817c0.597,0.167,1.896,0.227,1.688,0.824c-0.593,0.564-0.86,1.292-1.091,2.022
		c-2.842,0.994-4.531,4.728-8.07,4.067c-0.468-0.067-0.824,0.133-1.188,0.234C230.373,139.061,229.936,136.077,229.905,135.684z
		 M242.173,133.662l0.464,0.601l-2.118,1.054C240.659,134.86,241.387,133.279,242.173,133.662z M243.914,134.375
		c-3.389,1.918-8.884,5.84-8.884,5.84c-1.116,0.17-4.09,0.957-4.312,0.308l3.804-0.594c2.897-2.082,6.17-4.345,9.316-5.667
		C244.155,134.137,244.226,134.192,243.914,134.375z M244.084,133.536c-2.007-1.789-4.924-1.818-7.402-2.716
		c0.649-0.372,2.004-0.148,2.59-0.59c0.661-0.505-0.308-1.324-0.308-1.324c2.493,0.245,6.152,1.221,7.433,2.1
		c0.353,0.259-0.482,1.239-1.247,1.833c1.054-0.426,2.799-0.838,3.436-1.781c-2.382-1.889-14.152-4.301-14.152-4.301
		c0.995-0.608,7.354,1.176,10.865,2.246c0.152,0.048,0.264-0.145,0.104-0.238c-1.956-1.069-4.107-1.781-6.337-2.238
		c4.782,0.048,9.428,2.553,10.115,4.891C247.691,132.641,245.817,132.942,244.084,133.536z"/>
	<path d="M247.896,136.886c-3.48,1.451-8.424,3.518-10.019,7.956c0.065,0.296,0.441,0.493,0.731,0.367
		c1.365-0.765,2.296-1.837,2.756-3.106c1.021-2.805,4.252-3.592,6.595-5.099C248.145,136.894,248.1,136.805,247.896,136.886z
		 M238.863,144.211c-0.167-1.087,1.752-2.979,2.354-3.04C241.182,142.2,239.857,143.614,238.863,144.211z"/>
	<path d="M255.78,159.065l-0.278-0.17c-0.897,1.458-2.086,3.009-3.443,4.067l0.101,0.233
		C253.848,162.364,255.235,160.661,255.78,159.065z"/>
	<path d="M256.689,156.883l-0.367-0.137l-0.597,1.555l0.366,0.133C256.326,157.93,256.601,157.38,256.689,156.883z"/>
</g>
</svg>
