<?xml version="1.0" encoding="utf-8"?>
<!-- Generator: Adobe Illustrator 16.0.0, SVG Export Plug-In . SVG Version: 6.00 Build 0)  -->
<!DOCTYPE svg PUBLIC "-//W3C//DTD SVG 1.1//EN" "http://www.w3.org/Graphics/SVG/1.1/DTD/svg11.dtd">
<svg version="1.1" id="Layer_1" xmlns="http://www.w3.org/2000/svg" xmlns:xlink="http://www.w3.org/1999/xlink" x="0px" y="0px"
	 width="350px" height="350px" viewBox="0 0 350 350" enable-background="new 0 0 350 350" xml:space="preserve">
<g>
	<path d="M174.23,233.264c-2.004-0.524-3.87-1.319-5.82-1.979c-6.701-2.276-11.285-9.053-13.151-15.422
		c-1.147-4.323-1.66-10.464,0.758-14.636c1.863-3.213,4.586-3.352,4.075,1.403c-0.279,2.358-0.668,4.911-0.708,7.418
		c-0.101,6.093,3.231,12.859,7.736,13.635c-2.664-2.03-5.022-4.72-6.124-7.904c-2.002-6.342-1.068-13.511,3.736-18.284l0.108,0.988
		c0.713,0.193,1.069-0.766,1.673-0.494l-2.058,2.059c-1.453,1.614-3.083,5.198-2.47,8.511c0.357-4.31,2.334-8.317,6.124-10.87
		c0.189-0.112,0.463-0.331,0.684-0.112c-1.333,0.961-3.9,3.45-3.841,4.066c0.383-0.385,0.905-0.907,1.37-1.373l0.385,0.272
		c0.771-0.908,1.729-1.564,2.69-1.758c-0.96,1.066-1.855,3.688-0.604,4.941c-0.21-1.16-0.22-2.442,0.301-3.568
		c1.466-2.429,4.119-3.047,6.92-2.774c0.084,0.193,0.217,0.346,0.301,0.499c-2.115-0.056-4.089,0.33-5.543,1.594
		c1.562-0.745,3.675-0.745,5.242,0c-0.632,0.71-1.429,1.476-1.401,2.36l1.209-1.485c0.026,0.447,0.133,1.021,0.165,1.129
		c0.674,2.108,3.542,2.532,5.393,0.727c0.022-0.069-0.05-0.188-0.123-0.263c-1.14,0.953-2.924,0.929-3.701,0.419
		c-1.273-0.833-0.901-3.607,3.096-3.301c0.494,0,1.042-0.44,1.486,0l-0.193,0.494c0.795,0.354,1.89,0.823,2.059,1.702l-1.678,0.078
		c-0.271,0.197-0.042,0.47,0.191,0.607c0.816,0.36,1.622,0.688,2.39,1.18c0.274,0.603,0.329,1.397,0.383,1.979
		c0,0-2.693-0.419-4.84-0.538c-3.581-0.197-6.437-0.804-6.697-4.12c-0.061-0.761-0.621-0.938-1.256-0.4
		c-1.397,1.198-1.772,3.232-0.797,5.716c0.622,1.595,1.843,2.952,1.651,4.779l-0.301,0.3c-2.138-1.798-3.286-3.969-4.058-6.328
		c-0.254-0.632-0.52-0.509-0.801-0.015c-1.536,3.109-1.121,6.709-0.252,8.505c-3.463-0.498-3.939-7.552-0.327-11.856l-0.108-0.108
		c-1.626,1.051-2.67,4.051-3.065,5.987c-0.491,2.398-0.077,6.299,4.524,7.429c0.639,0.153,1.379,0.147,1.204,1.026
		c0.656,0.851,2.029,0.494,2.883,0.301c2.964,0.851,6.752,0.851,9.768,0.385c-1.838,2.059-4.333,3.866-6.913,4.857v0.193
		c0,0,4.971,1.102,7.776,0.207c0.521-0.168,1.042-0.341,1.526-0.315c-0.714,0.903-2.059,1.095-3.185,1.479v0.193
		c2.323-0.291,3.129-0.588,4.699-1.539c0.415-0.247,0.827-0.475,1.229-0.519c-2.252,4.057-12.356,3.657-16.75,1.914
		c-0.304-0.118-0.385,0.184-0.084,0.331c6.124,2.932,13.181,1.684,15.465,0.307l0.109,0.109c-0.437,0.385-0.962,0.467-1.402,0.795
		c0.494,1.017-1.286,0.413-0.985,1.37c1.266-0.369,2.36-0.873,3.458-1.066c-2.229,2.431-11.926,3.15-18.898-0.009
		c-0.979-0.444-1.167,0.152-0.296,0.662c4.5,2.621,10.467,3.006,15.646,2.601c0.389-0.029,0.452,0.044,0.299,0.405
		c-0.682,1.608,0.269,3.254,1.189,4.437c-2.767,0.726-5.882,0.841-8.852,0.807c-1.4-0.021-1.702,0.595-0.131,1.076
		c3.864,1.174,8.219,1.599,12.442,2.071c0.961,0.879,2.059,0.851,3.349,0.688c5.632,1.292,11.625,1.993,17.296,2.96
		c2.824,0.504,4.381,0.554,6.725,1.596c6.097,2.207,16.603-1.821,22.131-3.035c0,0-0.046-0.791-0.393-0.726
		c-3.324,0.867-6.679,1.708-10.027,2.496c-2.045,0.484-7.185,1.937-9.93,0.253c-0.946-0.584-0.529-0.987,0.333-0.829
		c0.79,0.138,1.643,0.088,1.838-0.85c0.576-2.854,0.877-6.229,0.877-8.975c-0.632-0.883-1.728-1.101-2.551-1.678
		c-0.028-0.331,0.029-0.603,0.272-0.794c6.452-1.014,12.67-2.527,18.998-3.954c-0.247-0.326-0.963-0.163-0.713-0.688
		c-6.287,1.511-12.519,3.131-18.779,4.147c-2.029,2.581,2.033,1.842,1.978,3.948c-0.036,1.328-0.132,3.189-0.442,4.501
		c-1.938,0.538-4.965,1.349-7.735,1.132c-5.905-0.44-11.339-2.28-16.911-3.269c-1.182-0.153-1.182-2.25-1.784-3.347h-0.191
		c-0.279,1.407,1.244,2.84-0.303,3.456c-0.714,0.275-2.049,0.454-2.282-0.604c-1.509-9.521-5.112-30.184-5.361-31.038
		c-1.132-3.879-5.541-4.873-11.828-6.141c-5.351-1.072-14.381-3.09-18.578-1.555c-2.937,1.18-4.83,4.092-5.519,7.029
		c-1.562,6.836-2.505,23.398-2.604,24.394c-0.096,1.014-0.451,0.982-0.469-0.104c0.027-7.054,0.262-14.699,1.032-21.841l-0.427-0.09
		c-1.098,7.385-1.043,14.739-1.289,22.231c-0.496-0.463-0.79-0.982-0.989-1.589c-1.896-6.288-0.75-22.145-0.73-22.46
		c0.375-5.168,0.878-11.052,2.705-14.487c3.512-5.687,14.882-3.425,20.628-2.468c12.515,2.083,24.608,5.469,36.583,8.89
		c2.282,0.707,4.361,0.988,6.916,0.988c-1.959,1.831-1.202,3.45-0.084,3.845c-1.764,2.093,1.041,4.038,2.78,1.965
		c0.391-0.464,0.268-0.632-0.239-0.237c-2.034,1.614-3.449-1.021-1.283-2.053c0.534-0.253,0.488-0.469-0.075-0.347
		c-1.019,0.219-2.328-0.552-1.072-2.384c0.472-0.691,1.199-1.313,1.756-1.886c-2.123,0.726-5.856,0.068-7.313-0.326
		c-11.216-3-22.562-5.993-33.968-8.273c-4.115-0.819-9.888-1.78-14.868-2.018c-3.784-0.179-7.425,0.369-10.174,3.504
		c0.716-2.932,1.679-6.422,4.863-7.986c4.117-1.728,8.974-1.975,13.644-2.084v-0.197c-2.991-0.463-5.903-0.024-9.006,0.391
		l-0.3-0.193c4.393-1.07,9.168-1.648,13.833-1.376c-0.74,0.469-1.755,0.306-2.552,0.579c-0.538,0.162-1.098,0.191-1.21,0.686
		c5.502,0.306,28.274,2.966,28.274,2.966c3.52,0.632,15.494,2.449,17.918,2.818c7.429,1.126,14.671,2.736,22,4.098l0.412,0.301
		c-2.854,0.538-9.679,2.83-12.13,4.363c-5.315,3.322-6.306,5.762-8.255,10.801c-1.985,5.134-2.964,10.479-3.526,16.271
		c-0.033,0.346,0.255,0.606,0.383,0.385c0.132-0.326,0.588-0.37,0.99-0.385v-0.192c-0.998-0.371-0.193-3.568-0.193-3.568
		l0.813,0.341c0.207,1.336-0.716,3.845,0.929,3.977c0.193-1.042,0.168-2.165,0.315-3.332c1.138,0.307,0.544,2.431,0.496,3.763
		l-0.275,0.307c-0.799-0.347-1.457,0.773-1.399,1.283c-0.579,0-1.046-0.326-1.482-0.711c-0.182-0.188-0.111-0.85-0.387-1.072
		c-0.904,3.298,3.462,3.051,5.024,4.942c0.188,3.854-1.812,7.661-2.061,11.56c0.95-1.358,2.611-8.356,3.06-9.704
		c0.201-0.613,0.452-1.205,1.09-1.471c5.43-1.151,10.795-2.503,16.178-3.791c2.834-0.682,12.482-3.125,13.696-3.422
		c6.556-1.608,16.683-4.758,17.968-5.178c10.005-3.272,20.138-6.234,29.847-10.203c0.354-0.142,2.963-1.317,3.346-1.697
		l-0.797,3.154c-1.042,0.576-2.416,0.138-3.54,0c-0.717,0.271-2.641,0.897-2.836,1.021c-0.733,0.459-0.755,1.525-0.927,2.434
		c-1.229,0.469-2.445,0.85-3.649,1.186c0.012-0.311,0.107-0.633,0.084-0.986c-0.084-0.688-0.81-0.944-1.375-0.801
		c-6.368,2.005-12.423,3.904-18.777,6.041c-0.41,1.082-0.484,2.177-0.649,3.131l-16.325,4.955c-1.645-0.469-3-0.81-4.68-1.279
		l-2.256,0.416c-0.26,0.078-0.022,0.395,0.195,0.391c0.395-0.021,0.783-0.149,1.287-0.197c1.264,0.241,2.836,0.576,3.906,1.124
		c-1.604,0.375-3.167,0.825-4.647,1.072c-0.821-0.688-1.618-0.716-2.717-1.323c0.385-0.301,0.907-0.347,1.375-0.494l-0.303-0.379
		c-0.688,0.122-1.524,0.36-2.361,0.572c-0.825,0.492-0.469,1.594-0.687,2.388c-0.167,0.406-0.835,0.307-1.146,0.642
		c0.668,0,1.026,0.762,2.026,0.54c8.945-2.035,17.649-4.942,26.297-7.41l-0.134,0.889c-1.564,0.741-2.475,2.597-3.82,3.444
		c-2.637,1.393-5.943,1.886-8.881,3.037c-0.281,0.153,0,0.691,0.263,0.642c3.538-1.07,8.438-2.049,10.292-3.954
		c-0.117,3.337-0.496,6.629-0.906,10.159l-0.383,0.492c-5.884,2.104-18.956,6.112-23.018,7.063
		c-0.521,0.134-0.445,0.775,0.056,0.672c6.606-1.372,19.563-5.42,23.452-7.02c0.799-0.331,1.447-1.43,2.091-1.589
		c1.1,0.522,2.185,0.429,3.263,0.113c1.394-0.414,9.941-3.687,12.741-5.059c1.463-0.711,3.032-1.329,3.649-2.662
		c5.985-2.497,11.691-5.85,16.995-9.688c0.214-0.203-0.027-0.775-0.291-0.582c-4.389,3.291-9.331,5.919-14.079,8.315l1.136-8.612
		c8.972-4.295,16.665-7.904,22.042-14.058c-0.191,1.899-0.564,4.032-0.984,5.85c-0.773,3.622-4.67,5.956-7.414,7.986
		c-0.243,0.256,0.023,0.775,0.159,0.66c2.675-1.628,5.696-4.072,6.951-6.097c1.318-3.016,1.894-6.392,2.169-9.882
		c-1.317-0.795-2.772-0.492-4.147-0.27c-2.112,3.044-5.465,4.777-8.509,6.42c0.094-0.783,0.398-1.568,0.604-2.397
		c0.326-1.304,0.721-2.202-0.686-2.543c-0.551-0.124-1.123-0.697-0.907-1.21c1.777-4.402,3.757-8.728,4.813-13.426
		c0.676-3.001,1.469-8.678-2.727-11.058c-5.354-3.157-11.803-4.477-17.898-4.94l-0.384,0.272c3.025,0.607,5.365,1.183,7.175,2.556
		c2.126,1.614,1.013,3.604-1.547,2.991c-5.192-1.417-7.229-6.82-8.863-11.249c-1.375-3.736-4.854-5.563-10.607-7.464
		c-12.867-4.239-26.177-7.364-39.632-10.139c-1.03-0.262-2.445-0.854-3.351-1.673c0.279-1.11,0.532-2.809,1.034-3.282
		c0.57-0.469,0.854-1.457,0.148-1.58c-2.01-0.45-0.604-2.8-2.278-3.541c-0.578-0.216-1.29-0.029-1.677,0.578
		c-1.413-4.467-2.716-9.009-4.749-13.235c-0.57-1.125,0.104-1.407,0.831-1.945c0.881-0.645,0.893-1.061,0.655-1.47
		c-0.556-0.973,1.099-1.115,0.985-1.718c-0.14-0.71-1.017-0.879-1.563-1.204c-0.667-2.428-2.923-3.807-5.14-4.611
		c-13.641-4.961-39.979-7.198-54.602-7.814c-13.222-0.554-26.653-0.529-33.388,0.44c-3.948,0.566-7.074,4.714-7.588,7.754
		c-1.154,8.731-4.255,16.827-6.506,25.204l-0.796,0.988c-4.479-1.022-16.506-1.072-17.992-1.21c-4.979-0.81-9.789-0.193-9.789-0.193
		c-0.409-0.76-7.741-0.655-9.69-0.191c-0.299-0.686-7.549-0.686-8.482,0H45.648c-0.691,1.051-1.181,2.058-1.757,3.075
		c-0.34,0.623,1.484,1.067,2.058,1.974c-0.218,0.416-0.19,0.879,0.11,1.264c-3.511,3.391-2.517,7.73,1.785,8.703v8.102
		c-1.076,2.6-1.254,9.61-1.266,10.746c-0.797-0.217-1.835,0.009-2.604,0.231c-1.84,0.463-0.614,2.656-1.374,3.075
		c-0.987,0.603-1.256,1.542-1.225,2.583c0.055,1.671,0.638,3.939,1.123,4.555c0.157,0.197,0.266,0.385,0.102,0.548
		c-1.051,0.09-2.415,0.108-3.458,0.603c-0.408,0.261-0.894,3.282-0.538,5.184c0.075,0.398,0.341,0.36,0.337-0.046
		c-0.016-1.396,0.29-2.521,0.393-3.958c0.051-0.594,0.405-0.81,0.852-0.903c0.523-0.113,2.458-0.285,3.247-0.36
		c0.261,0.075,0.714,0.666,0.458,0.691c-0.878,0.078-2.091,0.226-3.081,0.31l0.007,8.086c-0.912-0.178-1.399-1.282-1.689-2.251
		c-0.149-0.492-0.491-0.47-0.402,0.05c0.263,1.529,0.754,2.725,2.394,2.887c0.763,0.021,0.621-0.597,0.686-1.095
		c0,0,8.847-1.052,10.98-0.795c0.083,0.554,0.178,1.313,0.273,1.742c0,0-7.761,0.326-8.578,0.366
		c-0.992,0.05-4.294,1.017-4.543,1.461h3.459c-0.37,0.726-1.036,1.511-0.603,2.274c0.852,1.511,2.498,1.433,3.762,2.059
		c-0.787,0.851,0.137,1.595,0.576,1.979c-0.192,0.272-3.65-0.497-2.664-2.249l-2.278-0.416c-1.738-0.307-2.144-2.206-0.624-2.597
		c0.427-0.108,0.85-0.188,1.035-0.563c-0.906-0.157-1.814,0.069-2.771,0.193c-2.464,2.103-1.401,3.854,0.686,4.94
		c-0.275,0.335-0.439,0.69-0.494,1.101c2.168,2.734,8.214,5.061,11.451,5.806c0.397,0.088,0.453-0.163,0.069-0.337
		c-3.628-1.644-7.671-2.729-10.725-5.66c0.887-0.904,0.37-1.323-0.278-1.754c-1.206-0.795-1.496-1.289-1.205-2.31
		c0.221-0.44,0.495-1.342,1.098-1.179c-1.526,2.071,0.726,3.341,3.24,3.544c-0.137,0.492,0.265,1.055,0.642,1.302
		c4.639,2.549,9.819,3.772,15.17,3.94l0.412-0.303c-3.157-3.213-5.133-7.082-5.929-11.367c-1.086-5.869-1.881-13.397,0.991-18.951
		c1.97-3.816,5.271-3.307,4.735,1.038c-0.153,1.252-0.477,2.478-0.788,3.701c-0.963,3.797-1.372,8.358,0.164,13.482
		c1.646,5.493,4.705,9.763,11.396,8.361c-0.736,1.934,0.237,2.822,2.856,2.665c-2.643,2.784-6.407,3.886-8.973,3.125
		c-0.56-0.174-1.083-0.385-1.597-0.162c0.521,1.511,1.888,2.117,3.156,2.853c2.855,1.674,14.22,4.402,16.687,5.184
		c16.054,5.099,33.28,10.726,46.479,13.593c-0.025,0.766,1.15,0.825,1.866,0.794c0.419-0.028,0.74-0.132,0.604-0.601
		c-1.65-0.814-3.094-2.196-3.593-3.954c-0.466-1.63-0.688-3.785,0.133-4.942c0.53,0.085,0.521,0.313,0.413,0.588
		c-0.294,0.726,0.217,1.599,1.261,1.239c0.921-0.326,1.015-1.559,0.496-1.712c-1.111-0.272-0.768-0.963-0.796-1.68
		c0.022-0.331,0.441-0.656,0.796-0.686c1.619,0.247,7.382,0.577,8.399,2.063c0.373,0.954,0.08,1.877-0.61,2.286
		c-0.346,0.207-0.866,0.253-1.063,0.676c-0.461,1.052,0.96,2.361,1.975,1.289c0.577-0.602-0.42-1.289-0.192-1.783
		c0.33,0,0.607,0.016,0.88,0.303c0.521,0.607-0.328,1.349,0.108,1.865c0.729-0.251,0.906-1.965,0.346-2.547
		c-0.177-0.188-0.047-0.351,0.111-0.321c0.28,0.065,0.563,0.257,0.724,0.618c0.385,0.961-0.247,1.756-0.494,2.557l0.192,0.193
		c0.659-0.525,0.687-1.511,1.096-2.252c0.36,0.05,0.693,0.078,1.073,0.193c-0.166,0.789-0.523,1.614-0.301,2.468h0.217
		c0.111-0.494,0.111-1.041,0.385-1.485c0.246,0.576,0.355,1.184,0.301,1.87c-1.043,0.38-2.221,0.163-3.075-0.493
		c-0.575,0.246-0.383,1.041-0.987,1.288c-0.055-0.44,0.388-0.988,0.496-1.481c-0.635-0.611-1.977,0.218-2.856-0.301v0.301
		c0.849,0.134,0.548,1.26,1.481,1.288c-0.383,1.279-1.76,2.171-2.903,2.493c-0.077-0.982-1.098-1.264-1.172-0.297
		c-0.094,0.538-0.76,0.81-1.309,0.879c-0.479,0.05-0.096,0.479,0.331,0.465c2.335-0.327,4.228,0.962,6.427,1.209
		c2.167,1.072,4.418,0.138,6.229,2.058c1.868,0.332,3.843,0.193,5.546-0.191c7.026,2.25,14.357,4.092,22.015,4.556
		C174.016,233.875,174.421,233.812,174.23,233.264z M190.562,234.29c0.45,1.007,1.411,0.785,2.74,0.508
		c0.325-0.069,0.662-0.113,1.019-0.073c0.18,0.02,9.658,2.063,10.55,2.23c4.893,0.908,9.892,2.331,14.926,0.755v0.494
		c-0.933,0.578-2.89,0.341-2.88,1.294c-0.028,0.379-0.105,0.761-0.084,1.18c-0.959-0.578-9.228-1.786-12.006-2.137
		c-0.77-0.1-8.482-1.313-9.116-1.486c-1.551-0.421-3.094-1.003-4.983-0.638l-0.879-0.572c-3.474-0.315-6.844-0.873-10.26-1.333
		c-0.176-0.024-0.191-0.099-0.022-0.118c2.352-0.197,5.021-0.157,7.44-0.548C187.47,233.771,190.194,233.461,190.562,234.29z
		 M168.904,208.173c-0.087-0.297-0.371-0.222-0.413,0.191c-0.194,2.005,0.349,3.935,1.098,5.248
		c-1.362-0.622-2.462-5.089-0.987-7.907c0.726,1.983,1.471,3.607,2.917,4.724c0.501,0.385,1.076,0.726,1.42,1.204
		c-0.069,0.153-0.139,0.247-0.192,0.385C171.263,210.917,169.397,210.122,168.904,208.173z M171.155,215.171l-0.084-0.191
		c1.239-1.179,2.555-2.442,2.967-4.142c0.247,0.326,0.388,0.904,0.88,0.873c0.22-0.108,0.29-0.212,0.299-0.488
		c0.881,0.657,1.951,1.012,3.075,0.682C176.48,214.154,173.789,215.31,171.155,215.171z M175.711,206.385
		c2.088-0.385,2.603,1.348,2.663,1.788c-1.428-0.01-2.527-0.409-3.845-0.494c0.04,0.745,1.656,0.977,2.203,0.998
		c0.415,0.01,2.055,0.182,2.055,0.182c0.06,0.479-1.528,1.279-3.075,0.988c-0.99-0.193-1.481-1.403-2.279-1.674
		c-0.029-0.465,0.643-0.291,0.558-0.869c0-0.741,0.787-1.786,2.024-1.821l0.096,0.207c-0.493,0.271-1.467,0.504-1.689,1.086
		C174.859,206.969,175.208,206.494,175.711,206.385z M186.087,208.942c-2.083-0.108-4.117,0.576-5.136,2.469
		c0.605,0.331,1.142-0.745,1.867-0.686c0.362,0.054,0.66-0.056,0.909-0.297l-0.413-0.391l0.494-0.385l0.195,0.385
		c0.245-0.217,0.601-0.301,0.903-0.385c0.081,0.578-0.796,0.247-0.603,0.885c0.549,0.132,1.097-0.031,1.591,0.3
		c0.632,0.52,0.823,1.317,0.576,2.059c-0.821,2.384-2.609,4.664-4.722,6.229l0.195,0.193c1.974-0.112,3.868-0.415,5.513-1.264
		c0.138,0.276,0.166,0.632,0.222,0.992l-1.593,0.982v-0.602c-1.976,0.191-4.309,0.877-6.314,0.492
		c1.436-1.308,3.159-2.31,4.208-3.898c0.472-0.701,0.201-1.076-0.557-0.851c-1.841,0.5-4.117,0.691-5.846,0.607
		c1.317-0.883,2.581-2.443,3.182-3.954h-0.494c-1.313,1.151-2.47,2.469-4.059,3.155c0.301,0.167,0.712,0.085,1.095,0.107
		c0,0.524-0.501,0.726-0.905,0.691l-1.868-0.413c0.417-0.173,0.965-0.336,1.377-0.579c3.594-1.589,5.352-7.098,10.072-6.456
		C185.978,208.33,186.063,208.665,186.087,208.942z M185.978,218.14c-0.385-0.247-1.017-0.247-1.483-0.085
		c0.413-0.656,1.045-1.342,1.401-2.083C186.256,216.444,186.458,217.802,185.978,218.14z M185.593,205.975
		c0.08,0.609,0.337,1.783-0.191,1.704c-1.674-0.03-3.104,0.276-4.365,1.564c0.028-1.233-0.739-2.497-1.865-3.159l-0.191,0.193
		c0.632,0.961,1.618,1.925,1.068,3.267c-0.911,1.876-3.631,2.198-5.023,0.688c2.201,0.995,4.425,0.235,4.299-1.827
		c-0.096-1.545-1.149-2.887-1.691-3.144c-1.246-0.584-3.817-0.524-4.089,2.2c-2.063-1.549-1.99-5.306-0.911-6.876
		c0.242-0.351,0.593-0.301,0.627,0.188c0.102,1.433,0.62,2.85,2.066,3.446C178.685,205.611,182.355,204.657,185.593,205.975z
		 M239.838,220.523c1.099,0.144,2.029,0.606,2.964,1.076C241.901,221.791,239.164,223.011,239.838,220.523z M296.388,203.725
		c-1.156,0.661-2.694,1.211-3.956,0.686C293.611,203.863,294.957,203.146,296.388,203.725z M291.636,204.91l1.593,0.395l-1.593,0.67
		C291.325,205.803,291.54,205.305,291.636,204.91z M264.955,228.925l-0.905,0.576c0.419-3.582,0.469-7.849,1.479-11.062l0.416-0.222
		C265.66,221.722,265.174,225.301,264.955,228.925z M265.943,225.469c0.44-4.393,0.793-8.787,1.482-13.066
		c6.01-1.974,12.049-3.959,18.088-5.934c0.251,0,0.442,0.115,0.578,0.307c-4.859,1.679-16.434,5.445-17.037,5.715
		c-0.534,0.244-0.749,0.476-0.75,0.707l-1.07,11.283L265.943,225.469z M284.826,219.579c-0.344,3.393-2.148,3.747-4.009,4.651
		c-4.339,2.111-8.944,3.604-13.499,5.187l1.702-16.057c0,0,11.835-3.934,16.987-5.49
		C286.083,210.335,284.991,217.927,284.826,219.579z M287.55,212.384c-0.127,2.837-0.525,5.603-1.157,8.224l-1.099,0.191
		c0,0,1.172-8.321,1.218-8.702C286.676,211.045,287.626,210.645,287.55,212.384z M308.244,196.314
		c0.644-0.088,2.573-0.206,2.167,0.386c-3.267,4.532-12.71,9.79-16.639,11.57c-1.662,0.757-3.396,1.308-5.293,1.383
		c1.072-1.096,2.854-1.367,3.846-2.469c-1.815,0.44-3.569,1.511-5.437,2.059v-0.301c3.681-1.679,9.744-4.182,11.47-5.129
		C305.988,199.618,308.244,196.314,308.244,196.314z M156.023,223.322c0,0-3.786,0.123-5.812,0.444
		c0.183-4.369,0.363-8.407,0.814-12.678c0.082-0.794,0.232-0.785,0.192,0.031c-0.163,3.46-0.459,6.866-0.575,10.341
		c-0.022,0.799,0.541,0.686,0.593-0.03c0.16-2.236,0.499-4.417,0.646-6.645c0.281,0.313,0.417,0.52,0.662,0.767
		c0.523-0.466,0.055-1.092,0.328-1.67C153.587,217.067,154.295,220.602,156.023,223.322z M149.633,204.639
		c0.679-3.732,1.752-7.508,3.724-8.521c0.077-0.039,0.202,0.099,0.153,0.168c-1.432,1.728-2.229,3.731-2.767,5.844
		c-1.289,5.055-1.639,14.908-2.51,22.544l-0.289-0.112C148.602,218.271,148.453,211.124,149.633,204.639z M238.134,187.061
		c0.484-0.074,0.391-0.287,0.038-0.44c-0.275-0.118-2.774-1.057-3.584-1.595c-1.521-0.991-0.881-1.89-0.102-2.137
		c1.842-0.592,6.761,0.475,8.545,1.871c1.405,1.106,1.092,1.832-0.724,2.049c-1.015,0.118-2.263-0.004-3.155,0.006
		c0.413,0.641,2.512,1.786,1.818,1.904c-4.978,0.607-12.185,1.975-16.834,3.88c-1.164,0.475-2.75,1.529-3.297,2.009
		c-2.742,0.712-4.695,4.013-6.093,6.234C217.52,190.94,231.675,188.057,238.134,187.061z M241.429,189.671
		c-0.082,0.632-0.429,1.264-0.686,1.704c-3.869,0.986-7.825,1.648-11.556,2.966c-1.129,0.406-3.955,0.078-5.738-0.307
		c3.789-1.564,7.795-2.609,11.996-3.435L241.429,189.671z M296.962,196.208c-0.588,1.164,2.515,2.023,1.594,2.659
		c-5.542,3.1-11.531,5.108-17.489,7.217c-20.779,6.753-41.505,13.072-63.465,16.694c-0.743,0.089-3.816-1.238-4.528-1.673
		c3.918,0.206,9.72-0.311,10.075-2.059c2.112,0.109,12.373-2.266,15.42-2.966c4.825-1.11,20.184-5.355,21.968-5.85
		c7.562-2.064,22.021-6.344,27.813-8.486c2.761-1.017,7.956-2.685,8.311-4.937l-0.192-0.216c-0.712,0.492-1.152,1.752-2.169,1.479
		c-0.136-0.854,0.028-1.87,0-2.749c0.6-0.316,1.484-0.795,2.089-1.48c0.08,0.548-0.082,1.451,0,2.172
		c0.931-0.964,1.425-2.25,1.479-3.46c1.103-1.042,0.961-2.774,2.171-3.87C299.019,191.182,298.307,193.843,296.962,196.208z
		 M217.602,218.331l-0.273-0.191l0.385-2.553l7.408-0.909c0.084,0.469-0.023,1.294-0.191,1.896
		C223.04,218.355,220.266,219.318,217.602,218.331z M288.066,191.947l-1.674,0.113l-14.437,3.841
		c-1.176,0.351-1.517-0.666-0.085-1.289c0.823-0.355,11.778-3.074,16.006-4.339C287.848,190.693,288.013,191.582,288.066,191.947z
		 M282.058,195.823c0.771-0.632,1.105-1.604,1.777-2.202c1.194-1.048,4.867-1.482,5.222-0.572c-1.128-0.095-5.632,0.591-5.931,2.468
		c2.16-1.636,5.7-1.773,7.069-1.21c0.119,0.05,0.211,0.144,0.263,0.306c-0.825,0.438-1.979,0.085-2.886-0.084l-0.189,0.301
		c1.097,1.017,2.774,0.524,4.144,0.771c-1.017,0.739-3.039-0.494-3.46,0.907c-0.197,0.958-0.628,2.435,0,2.66l2.886,0.795
		c-0.32,0.193-0.986,0.361-1.291,0.306c-1.174-0.3-2.936-0.517-4.064-1.401c0.191-0.602,0.391-1.643-0.193-2.359
		c-0.63-0.744-1.702-0.685-2.66-0.415c-4.969,1.482-10.021,2.69-15.016,3.954v-0.191
		C272.427,198.419,277.28,197.165,282.058,195.823z M297.596,182.869c-0.752-0.365-1.17,0.045-0.503,0.627
		c2.336,2.039-0.813,11.61-5.266,11.126c-0.161-0.019-0.23-0.222-0.05-0.251c2.633-0.449,4.297-4.063,4.499-5.771l-0.329,0.024
		c-0.548,1.461-1.041,3.091-2.356,4.117c-1.813,1.417-4.387,0.804-4.994-1.787c-0.102-0.421,0.018-0.81,0.568-1.066
		c0.225,0.948,1.072,0.729,0.992-0.3l-0.073-0.225c0.38-0.257,0.979,0.644,0.835,0.785c-0.85,1.417,0.207,2.587,1.191,2.38
		c1.773-0.381,1.505-1.491,1.138-2.483c-0.188-0.498-0.368-0.889,0.172-0.951c1.072-0.109,1.949-0.382,2.856-0.988
		c0.521-2.033,0.139-4.285-1.593-5.543c0.502-0.257,1.932-0.755,3.075-0.193c1.641,0.819,1.62,3.406,1.344,4.285
		c-0.055,0.188-0.264,0.162-0.252-0.079C298.896,185.763,298.762,183.437,297.596,182.869z M297.95,189.671
		c-0.138,1.729-1.383,3.791-3.155,4.67C296.306,192.964,297.265,191.399,297.95,189.671z M293.611,195.823
		c-0.176,0.897,0.012,2.131-0.688,2.743c-1.059,0.929-3.594,0.729-4.168,0c-0.054-0.741,0.134-1.373,0.216-2.059
		c1.622,0.085,3.159-0.03,4.339-0.991L293.611,195.823z M295.975,187.505c-0.44,0.385-0.908,0.927-1.564,0.492
		c-0.729-0.107-1.128,0.431-1.528,0.889c-0.982,1.132-2.077,0.953-2.177-0.36c-0.107-1.386,1.087-1.852,1.812-1.214l0.493,0.686
		c0.192,0,0.41-0.138,0.41-0.301c-0.237-2.458-3.309-1.767-3.185,0.904l-1.756,0.084c0.337-1.635,1.05-3.309,2.417-4.398
		C293.642,182.09,296.476,183.496,295.975,187.505z M288.672,200.759c-20.672,6.836-41.507,12.879-63.164,16.693
		c0.578-0.657,0.578-1.702,0.604-2.473c1.313-0.766,2.688-2.058,3.569-3.269l15.4-2.853c0.437,0.686,1.124,1.511,1.89,1.786
		c4.229-0.522,8.211-1.617,12.136-2.881l0.221-0.386c1.537-0.168,3.075-1.15,4.528-0.794c3.431-1.102,8.152-0.688,9.692-4.942
		c3.512-1.292,7.107-2.28,10.87-2.966C284.746,200.324,288.672,200.759,288.672,200.759z M300.603,186.067
		c-0.486,1.097-0.638,1.022-0.282-0.201c0.575-1.971,0.031-3.6-1.459-4.104c-2.933-0.982-8.681,0.421-10.538,4.526l-1.05,3.19
		c-5.575,1.786-11.062,2.853-16.58,4.748c-1.95,2.744-3.973,5.321-5.316,8.233c0.116,0.029,0.212,0.054,0.31,0.006
		c0.737-1.26,1.674-1.723,2.866-2.113c1.766-0.577,15.37-3.761,15.37-3.761c0.898-0.159,1.142,0.592,0.452,0.848
		c-0.193,0.075-5.323,1.452-7.703,2.168c-2.614,0.785-12.331,3.582-12.421,3.619c-0.626,0.245-0.767,0.794-0.479,1.761l-0.301,0.494
		l-3.567,0.795c-0.492-1.204,1.18-1.176,1.589-1.974l-0.299-0.194c-1.276,0.292-12.656,2.726-13.338,2.863
		c-4.771,0.963-15.383,3.065-17.188,3.372c0.178-0.514,0.646-1.195,0.726-1.821c10.814-2.42,21.729-4.22,32.463-6.772
		c-1.564-2.69-4.749-3.322-7.604-2.968c0.933-0.548,3.119-0.414,3.269-1.208l-0.689-0.573c-4.823,1.012-9.377,1.871-14.141,2.985
		c-0.056,0.362-0.006,0.771,0.167,0.766c4.664-0.76,9.999-2.205,14.872-0.897c2.054,0.551,2.755,1.979,2.755,1.979
		c-0.482,0.107-0.815-0.164-1.158-0.396c-0.424-0.285-1.151-1.308-2.888-1.164c-2.939,0.237-20.35,3.51-26.521,4.602
		c0.532-1.038,1.264-1.482,2.16-1.764c1.003-0.325,7.395-1.574,10.087-2.19c0-0.223,0.092-0.628-0.153-0.766
		c0,0-8.869,1.511-9.995,1.485c0.054-0.77,0.741-1.101,1.373-1.292c13.926-3.313,27.283-5.634,40.901-9.429
		c1.424-0.4,8.815-2.514,8.815-2.514c0.929-0.261,0.857-1.451,0.985-2.196c-0.385-0.301-0.965,0.03-0.985,0.409
		c-0.031,0.5-0.195,0.992-0.688,1.186c-10.752,3.198-48.124,11.111-49.617,11.565c-0.59,0.178-1.045,0.435-1.26,0.81l-1.61,3.135
		c0.314-3.382-2.451-6.009-4.339-5.628c0.109,0.682,0.967,0.613,1.676,1.096c2.067,1.294,2.198,3.881,1.911,5.999
		c-0.018,0.128-0.127,1.114-0.127,1.114l3.841-0.795c0.031,0.548,0.496,1.092,0.906,1.59c-1.068,0.281-2.882,0.519-4.142,0.77
		l-0.111-1.076c-0.521-0.151-0.699,0.247-0.815,0.756c-0.534,2.35-3.631,8.233-9.05,6.758c-0.108-0.029-0.245-0.179-0.074-0.203
		c0.174-0.014,0.331-0.073,0.168-0.305c-1.979-0.415-4.063-1.648-4.666-3.737c0.492,0.193,0.705,0.726,1.207,1.185
		c1.264,1.161,2.975,1.511,4.74,1.371c2.814-0.231,5.098-2.738,5.526-7.714c0.05-0.858-0.571-0.87-1.08-0.661
		c-0.464,0.188-1.777,0.576-1.777,0.576c0-0.488-0.361-0.542-0.744-0.503c-0.235,0.024-1.505,0.365-1.941,0.503
		c-0.32-2.374-3.556-2.259-4.042,0.691c-0.188,0.219-0.661,0.06-0.602-0.191c0.992-3.575,4.603-4.937,7.111-4.369
		c0-0.632-1.812-0.717-2.218-0.667c-2.565,0.301-5.298,3.322-5.652,5.307c-0.189,1.081-0.068,2.139,0.833,1.882
		c0.59-0.169,0.841-0.4,1.519,0.207c-0.991,1.648,0.253,3.313,1.682,3.209c0.098-0.006,0.195-0.021,0.295-0.05
		c2.091-0.617,1.315-1.989,0.69-2.972c-0.277-0.435-0.431-0.835,0.384-1.264c0.061-0.223,0.136-0.572-0.195-0.711
		c-0.236,0.085-0.36,0.295-0.472,0.528c-0.854,1.812-3.1,1.04-2.924-0.731c0.159-1.599,2.053-2.029,2.677-1.11
		c0.448,0.661,0.372,1.017,0.525,0.933c0.547-0.275,1.183-0.275,1.784-0.385c-0.191,0.385-0.602,0.933-0.301,1.258
		c1.235-0.054,2.35-0.457,3.567-0.686c-0.323,5.722-7.025,7.623-9.648,4.138c-1.549-2.06-1.2-4.491-0.04-6.536
		c2.274-3.993,7.528-5.444,9.015-1.229c0.31,0.889,0.973,0.735,0.863-0.098c-0.249-1.896-2.244-3.288-4.743-3.19
		c0.823-0.438,1.754-0.576,2.662-0.798c0.108-0.243-0.088-0.514-0.303-0.49c-4.1,0.212-8.546,3.396-9.162,7.391
		c-0.132,0.849,0.361,1.728-0.309,2.493c-0.413,3.016,1.538,5.627,3.952,7.023c0.195,0.084,0.54,0.084,0.576,0.301
		c-1.29,0.277-3.373-0.217-3.54,0.794c-0.237,1.319-0.548,2.633-0.494,3.653c1.015,0.632,2.662,0.356,3.952,0.688
		c-1.756,0.468-3.845,0.301-5.434-0.797c-0.157-1.005,0.222-2.378-0.183-3.266c-0.158-0.351-1.57-1.412-1.679-0.86
		c-0.016,0.466-0.207,1.985-0.285,2.665c-0.056,0.46-0.127-0.024-0.127-0.024l0.104-2.96c-0.22-0.44-0.762-0.563-1.206-0.688
		c0.353-2.469,0.848-4.887,1.589-7.221c0.14-0.375,2.188,1.001,2.17-0.572c-0.6-0.163-1.911-0.475-1.911-0.475
		c1.394-4.398,4.804-9.201,7.265-9.813c2.864-0.71,5.842,0.791,8.977-0.01c8.18-2.274,16.497-4.255,24.899-5.928l5.541-1.098
		c-0.167,0.431-0.333,0.885-0.299,1.289c-8.963,1.792-17.857,3.807-26.787,5.742c-1.054,0.226-4.343,0.967-4.665,1.224
		c-0.138,0.109-0.186,0.271-0.061,0.557c2.311,0.01,3.883,2.059,3.761,4.749c1.007-0.977-0.075-2.65,1.232-3.263
		c1.85-0.869,14.629-3.751,19.347-4.847c1.241-0.293,11.971-2.795,13.656-3.269c8.915-2.483,21.185-5.727,21.185-5.727
		c-0.536,1.403-1.26,2.968-0.795,4.557c0.259-0.108,0.255-1.085,0.424-1.767c1.133-4.576,5.35-6.901,10.081-6.619
		C299.728,181.152,302.197,182.46,300.603,186.067z M282.632,183.357c3.569-3.268,12.125-3.929,13.756-3.074
		c-2.991-0.623-5.71,1.886-9.003,2.596C286.783,183.008,282.632,183.357,282.632,183.357z M284.114,184.425
		c-6.778,1.723-13.386,3.14-20.193,4.344c0.219-0.524,0.452-1.146,1.034-1.264c6.294-1.141,12.867-2.483,19.056-3.274
		C284.543,184.168,284.606,184.3,284.114,184.425z M275.829,184.399c-1.708,0.36-34.092,6.798-34.092,6.798
		c0.329-0.548,0.433-1.387,1.064-1.718c2.938-0.466,29.384-5.756,29.384-5.756l11.243-2.152
		C281.127,183.082,278.512,183.821,275.829,184.399z M260.59,189.479c0.084-1.842,2.141-1.042,3.183-1.674
		C263.707,189.483,261.777,189.217,260.59,189.479z M263.36,189.589c-0.193,1.949-2.001,1.317-3.157,1.864
		c0.03-0.331,0.291-0.897,0.62-1.258C261.589,189.982,262.512,189.811,263.36,189.589z M245.98,194.81
		c-4.619,1.176-9.718,2.3-14.543,3.071v-0.193l14.541-3.178C245.979,194.51,247.236,194.484,245.98,194.81z M298.042,180.401
		c0.025-0.45-0.448-0.642-0.973-0.804c1.118-0.269,3.489-0.085,4.259,1.673l0.191,0.799
		C300.78,181.378,299.616,180.258,298.042,180.401z M302.205,180.283c-0.619-0.795-1.333-1.289-2.106-1.586
		c-3.067-1.154-19.151,2.129-25.765,3.44c-10.633,2.118-21.511,4.173-32.218,6.354l-1.18-0.986c1.61,0,3.649,0.083,4.339-1.679
		c5.074-1.151,30.056-5.844,37.657-7.023c6.629-1.022,17.943-3.234,19.259-0.731C302.275,178.781,302.213,179.498,302.205,180.283z
		 M280.551,168.051c1.561,2.966,4.1,4.733,6.352,5.325c3.917,1.032,4.917-1.836,3.416-3.52c-0.472-0.523-1.1-0.952-1.563-1.43
		c5.71,1.239,13.483,3.663,13.449,8.509c-1.867-1.648-9.447-0.601-10.555-0.453c-16.061,2.133-30.969,5.139-46.764,8.248
		c-2.725-1.802-5.957-2.493-9.185-3.065c-1.877-0.331-19.113-3.741-26.198-4.429c-0.108,0.163-0.191,0.688-0.191,0.688
		c7.88,0.622,24.704,4.339,24.704,4.339c-1.543,0.656-1.623,2.344,0.033,3.372c0.108,0.068,0.116,0.142,0,0.116
		c-11.755-2.591-24.293-4.736-36.728-6.594c-6.109-0.908-24.079-3.104-26.854-3.406c3.899-1.011,8.838-0.573,12.846-0.41
		c8.648,0.494,18.341,1.871,25.179,2.439c0.03-0.163,0.132-0.651,0.132-0.651c-16.635-1.896-31.65-3.816-49.109-2.173
		c-1.925-3.016-1.342-7.246-0.735-10.786c0.479-2.772,1.14-4.777,3.985-5.246c2.177-0.356,4.739,0.272,6.713,0.522
		c19.409,3.075,38.566,7.632,58.004,10.569l0.025-0.503c-1.07-0.188-2.495-0.484-3.675-0.869c1.363-0.203,2.198-1.583,0.935-2.631
		c2.033,0.247,3.723,0.597,5.698,0.954c0.048-0.144,0.069-0.337,0.048-0.575c-1.836-0.479-8.511-1.943-12.273-1.836
		c0,0-0.285-0.404-0.986-0.586c-8.057-2.08-16.188-3.288-24.369-5.061c-0.389-0.084-0.389-0.172,0.002-0.122
		c10.519,1.204,21.457,2.996,31.86,3.554c4.972,0.266,11.146,0.701,17.587-1.708c3.369-1.254,3.415-3.697,0.118-5.633
		c-3.356-1.968-17.811-5.625-22.135-6.736c-1.003-0.262-0.987-0.456,0.012-0.228c10.312,2.359,20.63,4.684,30.791,7.76
		c4.72,1.618,10.073,4.012,11.444,9.472c0.948,4.261,1.467,8.703,2.981,12.735c0.375,1.002,0.986,1.151,0.967-0.009
		c-0.064-4.029-0.722-8.797,0.104-13.007c0.927-4.71,7.9-3.891,9.8-2.759C278.546,163.485,279.396,165.853,280.551,168.051z
		 M220.051,165.371c5.729,0.119,4.901,3.416-0.314,2.531C215.379,167.163,216.11,165.287,220.051,165.371z M169.082,150.666
		c1.262,0.435,3.466-0.01,4.924-0.351c13.208-3.09,26.312-6.278,40.933-4.21c6.282,1.032,13.196,2.7,19.764,4.226
		c6.204,1.445,17.907,4.358,22.376,6.397c3.257,1.48,6.123,3.691,7.191,7.467c0.938,3.175,1.03,6.631,1.216,9.869
		c0.014,0.261-0.066,0.282-0.118,0.029c-1.431-6.945-1.002-14.374-11.412-18.021c-4.942-1.733-13.513-3.973-19.634-5.331
		c-2.673-0.594-15.81-3.659-16.361-3.767c-2.164-0.44-4.469-0.934-6.606-1.042c-0.482-0.025-0.612,0.188-0.046,0.37
		c3.501,1.126,11.014,3.998,11.169,4.057c2.493,0.919,1.102,2.828-4.566,3.412c-7.167,0.735-29.479-1.057-42.583-3.219v0.192
		c9.546,2.039,19.53,2.902,29.31,3.544c6.273,0.406,12.465,0.919,16.859-0.341c2.87-0.823,3.491-1.812,2.748-3.094
		c-0.44-0.547-0.961-0.794-1.482-1.095c5.648,1.683,11.94,2.719,17.675,5.197c4.263,1.836,5.172,4.735-2.534,5.987
		c-11.059,1.802-24.048-0.37-46.94-3.248c-6.968-0.873-17.215-2.196-25.323-5.064c-2.969-1.047-3.91-3.209-1.602-4.66
		c1.397-0.883,3.283-1.165,4.645-1.367C167.414,147.709,166.638,149.817,169.082,150.666z M225.314,137.208
		c0.251,0.084,0.632,0.168,0.688,0.5c0.08,0.423-0.276,0.657-0.576,0.686h-0.305c-0.054,0.932-0.243,1.842-0.604,2.661l-0.193-0.08
		c-0.189-1.155,0.715-2.059,0.605-3.267C225.014,137.515,225.177,137.348,225.314,137.208z M224.175,134.342
		c0.456,0.714,0.695,3.814-0.532,4.545c-0.222-0.03-0.517-0.207-0.494-0.494c0.05-0.716,0.849-1.126,1.096-1.787
		c-0.468-0.056-1.482,0.191-1.593-0.573c-0.023-0.662,0.389-1.21,0.798-1.595c-0.193-0.494-0.933,0.603-1.099,0.385
		C222.018,133.686,223.754,133.68,224.175,134.342z M221.854,137.293c0.08,0.36-0.219,0.77-0.574,0.416
		c-0.686-0.579,0.495-1.486-0.299-1.974c-0.663,0.27-1.13,0.982-1.486,1.559c-1.152-0.301-1.126-1.643-1.481-2.553
		c-0.56,0.1,0.18,0.982-0.301,1.18c-0.757-3.716-1.104-7.586-1.385-11.515c-0.034-0.479,0.058-0.504,0.129,0
		c0.507,3.491,0.867,7.839,1.27,9.656c0.03,0.123,0.191,0.123,0.2,0c0.127-2.702-0.304-5.076-0.407-7.829
		c0.957,1.924,1.262,4.146,2.276,5.928c-0.616-4.042-2.276-7.898-3.773-11.693c-0.675-1.713-2.142-2.246-4.717-2.937
		c-7.638-2.049-20.16-2.769-30.07-2.616c-3.723,0.058-11.877,0.36-13.817,0.971c-0.785,0.252-1.18,0.653-0.834,1.926
		c1.967,7.326,5.455,21.299,5.455,21.299c5.073-0.731,10.666-1.141,15.771-1.451c6.062-0.37,22.766-0.316,32.866,0.735
		c0.438,0.572,1.354,0.568,1.975,0.794c1.673,0.553,1.103,1.289,1.103,1.289c-6.702-1.673-13.978-1.698-20.676-1.89
		c-14.629-0.416-28.932,1.943-43.481,4.061c-2.66,0.272-5.573,0.519-7.986-0.992c-1.104-1.036-1.082-2.3-0.827-3.594
		c0.721-3.638,2.708-10.711,4.852-16.354c2.374-6.244,7.229-6.357,10.421-6.786c5.955-0.806,15.313-0.913,19.276-0.85
		c9.519,0.149,19.037,0.913,27.86,3.225c1.344,0.35,2.799,0.932,3.53,2.018l-0.385,0.188
		C218.699,125.215,220.65,131.118,221.854,137.293z M214.938,137.017c-0.747,0.019-1.758-0.079-2.662-0.109
		c-0.467-4.695-0.222-9.936-0.987-14.631c-0.33-1.457-1.793-2.449-3.269-2.662l-1.216-0.123c0,0-0.281-0.178-0.038-0.207
		c0.733-0.094,1.696-0.094,1.748-0.356l-0.688-0.494c1.015,0,2.117,0.44,3.075,0c0.907-0.32,1.941,0.256,2.932,0.559
		c0.166,0.27,0.352,0.873,0.484,1.164c1.457,3.169,2.049,14.058,2.02,15.76c-0.136,0.115-0.479,0.316-0.672,0.233
		c0,0-0.153-11.758-2.103-16.922c-0.134,0-0.273,0.084-0.41,0.193C214.747,125.13,214.307,131.064,214.938,137.017z
		 M180.459,135.619c0.278-0.469,1.098,0.163,1.182-0.576c-0.301-0.193-1.015-0.134-1.375,0.083
		c-0.302,0.277-0.243,0.524-0.218,0.909c-0.714,0.242-1.429,0.657-1.867,1.371c-1.645-0.113-3.484,0.218-5.048,0.387
		c-0.25-1.57-0.632-3.105-0.99-4.641c0.329-0.029,0.74,0.078,0.99-0.084c-0.08-0.26-0.679-0.316-0.976-0.325
		c-0.152,0-0.116-0.113-0.04-0.142c0.314-0.13,0.768,0.029,0.934-0.243c-0.22-0.25-0.704-0.138-1.182-0.197
		c0.273-0.356,1.182,0.041,1.264-0.507l-1.484-0.178c0.531-0.209,1.533-0.09,1.784-0.381c-0.55-0.444-1.315,0.109-1.974-0.222
		c0.852-0.138,2.342-0.272,2.661,0c0.086,0.372,0.038,0.707,0.494,0.795c0.03,1.042,0.632,2.361,1.594,2.883
		c0.379,0.222,3.885,0.508,5.051-0.988c0.165,0.272,0.107,0.688,0.492,0.879c0.22-0.276,0.028-0.848-0.217-1.18
		c-0.18-0.3-0.304-1.457,0.217-1.786c-0.036,1.417,0.852,2.527,1.564,3.651c0.161,0.287-0.219,0.716-0.574,0.687
		c-0.494-0.109-1.239-0.222-1.704,0.107c-0.165,0.165-0.183,0.563-0.085,0.688c0.307,0.438,0.663-0.056,0.994,0.301
		c0.267-0.326,0.521-0.602,0.984-0.686l0.494,0.879c-1.343-0.025-3.185,0.107-4.444,0.191
		C179.225,136.389,181.34,136.745,180.459,135.619z M170.661,127.139c0.163-0.247,0.602,0.084,0.602-0.301
		c-0.108-0.222-0.521,0.079-0.491-0.307c0.19-0.247,0.63,0.113,0.794-0.3l-0.604-0.301c0-0.247,0.962,0.094,0.967-0.193
		c0.013-0.237-0.693-0.216-0.859-0.385c0.332-0.416,0.936,0,1.291-0.301c-0.192-0.356-0.604-0.115-0.903-0.193v-0.191
		c0.383-0.247,0.987,0.083,1.289-0.303c-0.164-0.339-0.605,0.084-0.99-0.107c1.161-0.563,2.404-1.166,3.877-1.107
		c0.125,0,1.181-0.231,1.656-0.345c0.658-0.153,1.29-0.291,1.88,0.379c0.134-0.257,0.18-0.636,0.494-0.494
		c0.855,0.237-0.605,1.157,0.601,1.072c0.085-0.36,0.249-0.632,0-0.992c0.605-0.41,1.074,0.275,1.375,0.691
		c0.159-0.385,0.617-0.45,1-0.45c0.304,0.006,0.519,0.134,0.359,0.341c-0.098,0.128-0.138,0.285-0.07,0.41
		c0.963,0.216,1.81-0.147,2.552,0.494c0.774,0.902,0.853,1.949,0.496,3.075c0,0-0.385,1.673-0.688,1.974
		c-0.291-0.326-0.104-1.101,0.14-1.564c0.625-0.76,0.523-1.289,0.523-1.289c-0.412,0.306-0.311,0.882-0.965,0.879
		c0.344-0.307,0.685-1.042,0.823-1.595l-0.219-0.084c-0.218,0.524-0.44,1.072-0.988,1.486c0.632-0.923,0.494-1.593,0.494-1.593
		c-0.383,0.385-0.355,1.208-1.095,1.486c0.463-0.525,0.794-1.319,0.49-1.873c-0.161,0.609-0.383,1.21-0.877,1.679h-0.303
		c-0.107-0.332,0.22-0.469,0.109-0.8c-0.163-0.132-0.284-0.251-0.605-0.191c0.516-1.254-0.301-1.482-0.301-1.482
		c0.23,1.051-0.945,2.524-1.974,2.474c0.275-0.469,0.741-1.126,0.407-1.595c-0.325,0.688-0.875,1.18-1.589,1.402
		c-0.877,0.134-1.593-0.438-2.278-0.498c-0.165,0.425,0.742,0.307,0.987,0.77c-1.535,0.44-2.962-0.354-4.446-0.191
		c0.081,0.685,2.485,0.492,3.375,0.794c-1.892,0.36-3.622-0.188-5.434-0.297l-0.304,0.188c1.047,0.494,2.362,0.247,3.458,0.607
		c-1.068,0.163-2.441,0-3.347,0.686c2.801-0.028,5.847-0.607,8.589-1.371c-0.109,0.685-0.931,0.632-1.178,1.179
		c1.017,0.163,1.729-1.017,2.663-1.289l-1.29,1.091c1.015-0.05,1.864-1.283,2.659-1.974c-0.078,1.346-1.782,1.456-2.274,2.472
		c0.521-0.084,1.18-0.414,1.702-0.795c0.775-0.967,1.204-0.053,1.865-0.385c0.604,0.438,0.521,1.126,0.604,1.758
		c-3.68-0.059-6.617-0.36-10.103,0.301c-0.109,0.193-0.275,0.216-0.494,0.193l-0.274-0.278c-0.794,0.44-1.676,0.741-2.582,0.879
		c-0.192-0.963-1.095-2.221-0.192-3.075L170.661,127.139z M179.362,122.277c-2.256-0.553-5.688,0.285-7.01,0.977
		c-1.236,0.647-2.534,1.748-2.57,2.399h-0.192c-0.794-2.512-1.446-5.049-1.977-7.655c-0.13-0.647-0.052-0.992,1.018-1.091
		c3.053-0.282,7.004-0.172,9.058,0.237C180.186,117.86,179.091,120.47,179.362,122.277z M190.908,119.928l-0.566,0.566
		c-0.44-0.632,0.566-0.833,0.574-1.48c0-1.101-0.516-1.999-0.861-2.972c-0.047-0.128,0.046-0.159,0.13-0.035
		C190.982,117.188,191.622,119.064,190.908,119.928z M190.727,115.662c0.729,0.115,0.852,2.004,1.784,2.28
		C191.468,118.437,190.935,116.187,190.727,115.662z M190.234,118.63c-0.038,0.295-3.508,0.025-4.281,0.272
		c-0.287,0.167-0.621,2.284-0.552,3.297l0.41,0.251c0.333-1.07,0.046-2.953,0.771-2.947h3.073c-0.247,0.36-0.356,0.745-0.303,1.21
		c0.138,0.883,1.057,0.236,1.29,1.264c0.525,0.138,1.153-1.373,0.686-1.566l0.579-1.781c0.471,0.034,1.129-0.016,1.631,0.107
		c0.735,0.184,0.672,0.801,0.64,2.045c-0.038,1.499,0.038,2.058-1.224,2.167c-2.11,0.176-4.72,0.128-6.952-0.168
		c-1.114-0.153-1.168-0.722-0.99-2.33c0.076-0.691,0.265-1.323,0.58-1.93C187.404,118.471,188.503,118.461,190.234,118.63z
		 M189.886,117.78c-1.124,0.287-4.404,0.025-4.678,0.163c-0.821,1.319-0.319,3.362-0.564,4.819c-0.119,0-0.23,0.039-0.339,0.01
		c-0.163-0.869,0.028-3.397,0.22-4.235c0.073-0.316,0.215-0.804,0.574-0.785l4.189-0.065c0.265-0.104,0.349-0.301,0.356-0.573
		c0.008-0.157,0.082-0.188,0.161,0.025C189.859,117.292,189.92,117.598,189.886,117.78z M183.23,136.223
		c0.442-0.41,0.934-0.904,0.578-1.482c-0.165-0.132-0.219-0.3-0.191-0.492l1.181-0.109c0.332,0.795-0.11,1.781-0.385,2.577
		l-0.302,0.301L183.23,136.223z M183.735,133.64c-0.146-0.02-0.176-0.117-0.022-0.117c0.739-0.03,1.884,0.083,2.396-0.559
		c0.402-0.503,0.751-2.027,0.474-2.586c-3.491-0.301-7.207-0.157-10.484-0.079c-0.321,0.065-0.689,0.735-0.58,1.283
		c0.631,0.278,1.125-0.601,1.783-0.3c-0.191,0.878-1.727,0.607-1.479,1.564c0.473,1.452,2.674,0.785,4.076,0.791
		c0.307,0,0.271-0.395-0.046-0.419c-1.08-0.081-2.294,0.517-3.345-0.256c1.104,0.094,1.07-0.604,1.07-0.604
		c1.292-0.444,2.966,0.697,3.458-1.376c0.174-0.735,1.39-0.642,1.481-0.193c0.107,0.494,0.223,1.017,0.605,1.373
		c0.446,0.351,2.113-0.271,2.579,0.498c-0.63,0.613-1.967,0.421-2.69,0.494c-0.582-0.395-0.467-1.22-0.644-1.806
		c-0.218-0.741-0.931-0.676-1.2-0.006c-0.327,0.81-0.391,1.727-0.817,2.493c0,0-3.521,0.316-4.166,0.029
		c-1.147-0.517-1.774-3.282-0.17-3.87c3.704-0.138,6.863-0.138,10.568,0l0.656,0.44c-0.245,1.126-0.355,2.497-1.344,3.208
		C185.459,133.729,184.526,133.758,183.735,133.64z M187.267,131.859l0.604-0.688c0.177-0.191,0.23-0.626,0.012-0.927l-0.616-0.444
		l0.019-6.062c0.358-0.025,0.777,0.05,1.164,0.025c-0.367,0.967,0.318,1.126,0.866,1.155c0.821,0.04,0.823-0.661,0.728-1.155
		c1.461-0.281,3.454,0.613,4.446-0.597c0.379-0.463,0.626-2.863,0.493-3.742c4.137,0.153,8.452,0.301,12.438,1.105
		c1.927,0.391,2.814,0.794,3.301,3.381c0.51,2.696,0.584,12.953,0.584,12.953s-15.939-0.256-24.039,0.044
		C187.131,135.181,187.131,133.724,187.267,131.859z M217.52,118.821c-1.758-1.436-3.807-2.259-5.973-2.838
		c-9.521-2.533-31.641-4.279-49.368-1.308c-2.253,0.36-3.791,0.686-5.439,3.223c-4.356,6.709-7.022,19.766-7.2,21.472
		c-0.126,1.254,0.069,2.449,1.165,3.359l0.412-0.575l0.987,0.494c-0.125,0.253-0.064,0.419,0.059,0.524
		c0.975,0.82,5.176,0.764,7.148,0.423c13.757-2.394,28.063-4.151,42.324-4.155c6.456-0.006,16.21,0.438,20.342,1.603
		c0.904,0.252,1.722,0.672,2.371,1.507c0.892,1.145,3.351,2.028,6.629,2.809c1.842,0.433,12.286,2.679,13.449,2.96
		c9.88,2.365,19.746,4.773,28.932,8.852c2.139,0.932,3.979,3.207,4.744,5.325c-3.59-2.926-10.967-3.01-12.352,1.976
		c-2.411-6.725-8.588-9.068-14.872-10.807c-6.38-1.768-18.887-4.843-24.126-5.966c-0.176-0.035-0.199-0.119-0.026-0.119
		c0.566,0.004,1.15,0.039,1.66-0.094c1.491-0.385,1.231-1.392-0.029-1.974c-1.665-0.771-4.423-1.344-7.042-1.388
		c-0.178-0.004-0.062,0.41,0.072,0.425c2.095,0.178,4.109,0.572,5.947,1.392c1.062,0.473,1.275,1.135-0.827,1.007
		c-3.253-0.203-6.422-0.785-9.623-1.308c-4.758-0.785-11-1.205-16.371-0.865c-12.112,0.766-27.287,5.505-30.335,5.223
		c-2.266-0.207-2.081-2.221-0.506-3.14c1.637-0.952,7.33-1.742,7.33-1.742c0.205,1.298,0.581,1.882,3.396,1.466
		c1.499-0.216,2.906-0.697,4.017-1.876c5.599-2.131,23.853-1.827,35.167-0.492c0.758,0.088,1.479-0.303,1.591-1.072
		c-0.028-0.494-0.576-0.933-0.986-1.101c-0.111,0-0.062-0.285-0.111-0.454c-0.16-0.77-1.068-0.049-1.485-0.726
		c-0.303-0.494-3.326-0.25-3.155,0.879l0.108,0.988c-0.637-0.094-0.158-1.789-1.097-1.373c-0.55,0.301-0.521,0.854-0.494,1.373
		c-9.938-0.657-20.917-0.988-30.636,0.714c-0.084-0.3,0.469-0.735,0-1.208c0.109-0.218,1.019,0.019,0.689-0.381
		c-0.578-0.626-2.363,0.188-2.363,0.188c0.376-1.352-2.215-0.986-2.938-0.705c-1.31,0.517-1.478,2.097,0.083,2.685
		c0.305,0.063,0.564-0.079,0.768,0.494c0.678,0.098,1.493-0.113,2.229-0.149c1.229-0.059,1.205,0.756-0.022,1.176
		c-0.843,0.287-2.991,0.686-3.585,0.404c-0.457-0.217-0.391-0.854,0.271-1.214c0.291-0.157,0.438-0.632-0.14-0.553
		c-3.392,0.45-12.185,1.907-14.195,2.83c-3.699,1.702-3.823,4.245,0.918,6.347c3.979,1.762,11.21,2.813,16.478,3.904
		c0.77,0.159,35.997,7.345,35.997,7.345c-3.098,0.356-2.6,1.786-1.77,2.636c-4.641-0.838-46.235-8.771-50.537-9.256
		c-2.217-0.247-4.287-0.103-5.571,1.383c-2.745,3.169-2.728,12.475-1.101,15.781c-4.61,0.494-9.605,2.552-11.474,7.113
		c-1.54,3.663-2.165,7.705-2.75,11.763c-0.072,0.499-0.147,0.543-0.108-0.016c0.499-6.555,1.896-20.174,2.171-21.713
		c0.06-0.416,0.122-0.829,0.188-1.235c1.074-6.797,2.868-13.302,4.344-19.933c0.338-1.871-3.708-1.07-4.942-2.468
		c0.349-5.622,2.035-10.68,3.562-15.91c0.282-0.952,4.149-14.33,6.746-19.429c1.215-0.142,2.979-0.079,4.514-0.236
		c16.059-1.733,32.396-1.156,48.042,1.396c3.267,0.548,6.826,1.461,9.277,2.774C218.933,117.755,218.04,118.437,217.52,118.821z
		 M216.42,141.469c0.081,0.425,0.303,1.013,0.908,1.067h0.877c-0.331,0.444-1.153,0.691-1.674,0.306
		C216.145,142.564,215.873,141.794,216.42,141.469z M218.316,143.443c0.191-0.275,0.271-0.576,0.574-0.794
		c0.256-0.157,0.989-0.167,1.294,0.193C220.874,143.843,218.316,143.443,218.316,143.443z M180.459,141.963
		c-0.273-0.084-0.656,0.054-0.604,0.379c-0.239-0.235,0.028-0.641,0.307-0.754c0.442-0.059,0.931,0.044,0.985,0.567
		c0.069,0.475-0.443,0.885-0.785,0.781c-0.262-0.079-0.268-0.172-0.104-0.253c0.132-0.063,0.313-0.207,0.396-0.341
		C180.737,142.179,180.614,142.063,180.459,141.963z M181.725,142.595c0.229-0.182,0.958-0.301,0.912,0.375
		c-0.033,0.375-0.47,0.572-1.104,0.666h-0.773C181.14,143.43,181.381,142.871,181.725,142.595z M179.474,143.424
		c-0.146,0.119-0.444,0.065-0.575,0.019c-0.932-0.316-0.957-1.711,0.384-1.589C179.516,142.106,179.446,142.92,179.474,143.424z
		 M112.242,133.655l2.532-8.296c0,0,1.792-6.481,2.544-9.913c0.24-1.107,0.445-1.092,0.282,0.094
		c-0.337,2.468-1.738,7.458-2.47,9.936c-0.824,2.784-1.705,5.539-2.803,8.224C112.21,133.986,112.242,133.655,112.242,133.655z
		 M97.214,136.395c3.016-0.041,5.961,0.216,9.019,0.513c1.18,0.03,2.396,0.172,2.472,1.101c0,0.385-0.435,0.554-0.796,0.494
		c-3.653-0.381-7.077-1.357-10.671-1.939C96.917,136.514,96.899,136.4,97.214,136.395z M86.898,135.635
		c7.183,0.745,14.331,2.706,21.182,4.142c-0.12,0.212-0.167,0.404-0.255,0.592c-2.002-0.192-4.116-0.739-6.121-1.18l-14.83-3.42
		C86.874,135.769,86.563,135.6,86.898,135.635z M76.699,135.466c9.354,0.701,30.632,6.19,30.632,6.19l-0.275,0.785
		c-10.147-2.286-20.315-4.323-30.358-6.86C76.496,135.531,76.491,135.453,76.699,135.466z M72.743,135.619l33.792,7.824
		c-0.147,0.362-0.552,1.051-0.719,1.383c0,0-26.211-6.101-38.92-9.285L72.743,135.619z M49.578,135.688
		c6.149,0.469,11.999-0.961,17.62,0.618l38.429,9.16l-1.673,2.918c-18.113-3.9-36.493-8.09-54.376-12.578
		C49.33,135.744,49.33,135.669,49.578,135.688z M103.764,153.024c0.123-0.285,0.292-0.548,0.323-0.854
		c0.055-0.528-0.617-0.716-0.62-0.054c-0.001,0.282,0.061,0.592-0.089,0.795l-0.412-0.079c-0.204,0.982-0.47,1.934-0.934,2.803
		c-0.044,0.079,0.07,0.256,0.12,0.197c0.368-0.41,0.467-1.111,0.924-1.327c-0.302,0.77-0.834,2.616-1.483,2.059
		c-0.365-0.366-0.146-0.712,0.139-1.076c0.701-0.885,1.15-4.444,1.042-5.84l0.374-0.435c0.713,0.351,0.177,1.614,0.533,2.133
		c0.603-0.351-0.093-1.398,0.539-1.752c0,0,1.024,1.974,0.23,3.508L103.764,153.024z M104.449,153.819
		c-0.356,0.879-0.385,2.005-1.18,2.662l-0.193-0.193c0.438-0.848,0.62-1.955,0.878-2.685
		C104.174,153.603,104.338,153.627,104.449,153.819z M100.002,171.609c-0.521-2.25-0.287-3.977-1.182-6.426
		c-0.315,0.144-0.417,0.435-0.505,0.741c-0.316,1.086-1.078,1.12-1.917,0.458c-1.012-0.799-1.608-2.867-1.632-3.495
		c-0.113-2.907,2.103-2.778,3.124-0.754c0.472,0.937,1.322,0.867,1.078-0.362c-0.16-0.804-0.587-1.568-0.944-2.325
		c1.071,0.332,2.003,0.992,2.965,1.564c-0.201,1.808-0.302,3.709-0.495,5.545c-0.493-1.013-0.493-2.499-1.372-3.347
		C99.508,165.953,100.332,168.674,100.002,171.609z M102.583,187.505c0,1.1-0.085,2.246-0.661,3.101
		c-1.312,1.949-2.092,1.03-2.529-0.831c-0.466-1.984-0.033-4.368-0.077-6.417l0.3-2.472
		C99.811,183.437,100.526,185.93,102.583,187.505z M94.567,158.158c0.768-0.082,1.673,1.017,2.195,1.783
		C96.022,159.916,95.254,158.708,94.567,158.158z M71.068,149.564c-5.643-1.21-15.235-2.912-15.729-1.289
		c5.441,0.337,10.66,1.047,15.514,2.173c0.266,0.057,0.267,0.138,0.002,0.107c-5.391-0.522-11.302-0.996-16.585,0.573
		c-0.137-2.468-0.166-4.965-0.221-7.493l29.866,7.408c5.409,1.566,10.927,2.83,16.389,4.26c-0.307,1.18,1.047,1.526,1.176,2.578
		c0.032,0.266-0.238,1.195-0.271,1.373C91.601,154.891,81.472,151.87,71.068,149.564z M78.755,152.53
		c0.742-0.113,1.646,0.41,2.388,0.797c0.576,0.053,0.906-0.193,1.373,0.191l-0.266,0.435c2.954,0.917,6.857,2.424,9.572,4.205
		c-0.329,0.381-0.549,0.795-0.605,1.289c-5.525-3.628-19.416-7.642-28.411-8.54c-0.183-0.019-0.213-0.073-0.047-0.084
		c6.054-0.316,10.958,1.358,16.408,2.587C79.604,153.331,78.755,152.53,78.755,152.53z M53.473,143.336l-0.057,8.14
		c-0.405,0.119-0.855,0.494-1.239,0.716l0.005-9.656c-0.274-0.463-0.659-0.849-0.798-1.367l33.601,8.396l15.318,4.038v1.095
		l-28.55-7.301l-18.283-4.595l-0.603-0.153C52.869,142.648,52.512,143.133,53.473,143.336z M48.531,139.874
		c-0.796-0.438-1.839-0.276-2.471-1.095c0,0,53.501,13.323,54.011,13.491c0.321,0.109,0.432,0.281,0.335,0.729
		c-16.607-4.283-33.527-8.459-50.136-12.798l-0.368,14.196c-0.547,0.686-0.96,1.426-1.29,2.167
		C48.806,150.39,48.668,145.833,48.531,139.874z M50.811,141.963l0.686,0.879l-0.111,9.882c-0.218,0.216-0.3,0.488-0.574,0.686
		C50.725,149.614,50.747,145.852,50.811,141.963z M102.027,151.973c-0.191,0.113-0.523,0.716-0.624,0.366
		c-0.084-0.716,0.243-1.457,0.685-2.089c0.619,0.347,0.338,3.584-0.795,4.749C101.676,154.097,102.165,152.937,102.027,151.973z
		 M44.963,137.792c0.232-0.638,0.686-1.516,1.29-2.058l39.722,9.19l16.416,3.845c-0.863,0.869-1.345,2.033-1.675,3.159
		l-12.957-3.353l-34.697-8.703L44.963,137.792z M46.857,141.657c0.191-0.519-0.934-1.042-0.111-1.289
		c0.467,0.825,1.285,1.17,1.098,2.583c-1.238,0.863-1.46,2.881,0,4.145v1.974C45.333,149.205,43.347,144.307,46.857,141.657z
		 M46.252,177.621c-0.521-0.166-0.458-1.401,0.063-1.84l0.542-0.138C46.802,176.357,45.923,176.768,46.252,177.621z M46.636,170.811
		c-0.057,1.421,0.038,2.681,0.11,4.146h-0.191c-0.412-0.77-0.495-1.812-1.18-2.281c-0.194,0.193-0.084,0.469-0.111,0.691
		c-0.44-0.285-0.802-0.917-0.835-1.496C44.333,170.248,46.363,170.514,46.636,170.811z M42.054,173.801
		c0.078-0.76,0.422-1.442,1.342-1.92l0.193-1.48c0.128-1.101,2.035-1.007,2.965-0.879l-0.001,0.325
		c-3.098,0.05-2.049,0.592-2.687,1.93c-0.28,0.588-0.921,1.036-0.387,1.589l2.086,2.277c0.036,0.482-0.127,0.62-0.374,0.642
		c-0.316,0.024-1.334-0.01-1.425-0.021c-0.977-0.078-0.169-1.696-0.975-2.103l-0.192,0.193c0.192,1.837,0.248,3.732,1.482,5.158
		c0.159-0.112,0.33-0.277,0.495-0.409c-0.027-0.604-0.879-0.879-0.687-1.564l1.181-0.41c0.164,0.873,0.576,1.781,1.482,2.166
		c0.69,0.253,0.576,0.578,0.879,1.097c-0.248,0.632-0.833,0.438-1.291,0.113l-1.18-1.101c-0.55,0.3-0.275,0.825,0.11,1.179
		C42.89,179.71,41.799,176.357,42.054,173.801z M41.695,188.19c-0.055-0.741-0.191-6.313-0.191-6.313
		c1.595-0.069,3.453-0.713,4.749,0.191c0.396,0.218,1.063,0.024,1.482-0.191c0.303,1.288,0.879,2.412,1.785,3.46
		c-0.439,0.351-1.125,0.109-1.482,0.601l0.796,0.272c-0.907,0.385-1.976,0.44-2.69,1.101c1.867,0.025,3.844-0.548,5.847-0.191
		l0.046,0.267C48.741,187.471,45.044,187.775,41.695,188.19z M51.496,180.776c-1.01-0.231-0.275-5.765,0-7.908
		c0.157,0.073,0.205,0.479,0.385,0.498c0.357,0.109,0.248-0.517,0.494-0.498C52.072,175.313,51.797,178.141,51.496,180.776z
		 M71.754,196.015c-2.524,0.957-5.626,0.463-7.713-1.102c-5.12-4.457-5.358-14.777-3.72-20.386c0.851-2.918,2.294-5.593,4.6-7.779
		c0.803-0.8,1.325-0.094,0.725,0.603c-3.159,3.657-4.921,8.387-5.054,13.242c-0.028,0.973,0.287,1.076,0.381,0.006
		c0.063-0.716-0.181-1.708,0.982-1.304v0.494c0.824,0.222,1.84-0.029,2.471,0.603c-0.274,5.078,0.713,10.515,5.352,12.957
		l1.868,0.276c-1.441,0.785-3.479,0.993-5.092,0.325c-0.572-0.241-0.882,0.115-0.282,0.554c0.707,0.513,1.762,0.559,2.71,0.603
		c2.004,0.217,3.57-0.632,5.244-1.179C74.17,195.106,72.742,195.68,71.754,196.015z M65.633,172.187
		c0.174,0.332,0.494,0.438,0.769,0.188c-1.154,2.033-1.895,4.369-2.251,6.644c-0.94-0.237-1.941-0.497-2.966-0.493
		c0.356-3.579,2.058-6.26,4.035-9.003c0.22,0.054-0.164,0.385,0.193,0.494l0.796-0.687
		C66.019,169.878,65.359,171.142,65.633,172.187z M72.633,168.233c-0.769,0.519-1.838,0.904-2.47,1.782c0.246,0.438,0.604,0,0.906,0
		c-0.933,0.879-2.334,1.84-2.882,3.267c0.632,0.084,3.794-4.007,6.121-3.76l0.22,0.191c-2.146,0.707-4.402,2.099-5.665,4.069
		c-0.79,1.229-0.903,4.349,0.503,6.229l-1.262,0.079c0.112,0.746,0.936,0.815,1.586,0.869c0.473,0.034,0.574,0.019,0.59-0.508
		c0.108-3.406,0.864-8.58,3.534-9.143l0.108,0.084c-0.63,0.682-1.371,1.643-1.785,2.577l0.193,0.191
		c0.467-0.494,0.605-0.932,1.208-1.292c-0.164,0.554-0.466,1.208-0.218,1.787c0.494-0.522,0.987-1.455,1.784-1.673l0.493,0.109
		v2.854c-0.901-0.929,0.362-2.834-0.987-2.359c-1.601,1.599-2.183,5.572-1.674,6.998c-0.632,0.193-1.235-0.354-1.785,0.109
		c0.529,0.801,2.234-0.291,2.388,1.377c0.11,2.083-4.501,1.097-1.894,3.378c0.604,0.491,3.102,0.241,3.761,0
		c0.054,1.479-0.055,3.153-0.302,4.633c-0.852,0.278-1.538,0.386-2.471,0.193c0.96-0.819,2.443-2.029,1.977-3.347
		c-2.085,0.079-3.898-0.222-5.737-1.101c-1.281-1.98-1.505-6.772-0.769-8.59c-0.083-0.167-0.276-0.082-0.413-0.107
		c-0.521,0.68-0.605,1.59-0.687,2.469c-0.663-0.129-1.735-0.366-1.781,0.423c-0.056,0.994,0.694,1.363,1.672,1.057
		c0.64,6.072,3.733,10.968,8.157,9.951c0.02,0.315-0.021,0.973-0.443,1.032c-2.032,0.355-4.53-0.029-6.231-1.48
		c-0.302,0.657,0.495,1.066,0.906,1.559c-1.153-0.435-1.839-1.479-2.664-2.358l0.165-0.153c0.192,0.138,0.501,0.519,0.667,0.616
		c-0.1-0.36-0.322-0.701-0.542-1.036c-1.74-2.637-3.864-11.245,0.589-16.911C68.652,170.811,71.98,167.557,72.633,168.233z
		 M69.477,167.241c0.851-0.05,1.399,0.469,2.168,0.607C70.932,167.933,68.652,169.083,69.477,167.241z M69.366,177.045l0.713-0.716
		l-0.411,2.966c-0.551-0.992-1.374-2.581-0.578-3.732C69.037,175.895,69.118,176.576,69.366,177.045z M75.708,181.187
		c-0.607,0.961-2.085,0.651-2.279-0.903c0.936,1.401,2.17,0.804,2.086,0.3c-0.549-0.3-1.456-0.162-1.701-0.794
		c0.191-0.139,0.542,0.112,0.762-0.267c-1.363-1.126,0.289-2.296,1.132-2.093c0.059,0.711,0.371,2.187-0.604,2.168l-0.191,0.191
		C75.543,180.036,75.912,180.568,75.708,181.187z M75.597,182.37c-0.256,3.471-3.015,3.065-3.72,2.236
		c-0.245-0.285,0.003-0.424,0.354-0.548c1.103-0.379,1.149-0.391,1.767-1.333C74.276,182.297,75.597,182.37,75.597,182.37z
		 M74.801,174.161c0.014,0.735,0.027,1.783,0.495,2.474c-0.458,0.029-0.961,0.849-1.565,0.682
		C73.429,176.082,74.314,174.755,74.801,174.161z M69.86,187.006c1.427,0.059,1.921,1.707,3.267,1.896
		C71.604,190.189,69.932,188.072,69.86,187.006z M95.665,214.786c-7.385-2.058-14.192-5.459-21.934-6.723
		c-2.389-0.469-4.613-1.348-6.834-2.28c3.925,0.36,7.85-0.494,11.774-1.18c0.427,0.864,1.123,1.327,1.908,1.658
		c4.812,2.009,27.999,8.959,37.923,12.479c-0.218,0.138-0.843,0.075-0.711,0.385c1.248,1.67,6.834,3.46,6.834,3.46l0.384,0.604
		C114.99,220.992,105.34,217.837,95.665,214.786z M77.079,198.482c0.578,0.301,1.374-0.054,1.895-0.494l0.495,0.795
		c-0.247,0.331-1.208,0.44-0.713,1.072c-0.385,0.054-0.714-0.056-0.989-0.301c0.357-0.109,0.741-0.303,0.905-0.688
		c-0.711-0.686-1.752,1.102-2.165-0.188c-0.096-0.311-0.085-0.829,0.08-1.104l0.688,0.497
		C77.19,198.211,76.935,198.345,77.079,198.482z M127.588,222.009c0,0.657,0.331,1.208,0.578,1.758
		c-0.686-0.277-1.594-0.524-1.974-1.182c0.439-0.054,0.649,0.115,0.953-0.27c-0.197-0.277-0.385-0.316-0.593-0.356
		c-0.136-0.028-1.597-0.553-1.624-1.16C125.862,220.799,127.067,221.105,127.588,222.009z M135.496,214.186l-3.952-0.795
		c1.37-0.084,2.881,0.107,4.145,0.602L135.496,214.186z M142.989,217.646c-0.491,0.132-1.646,0.275-1.565-0.5
		c-0.437-0.217-0.849-0.157-1.176,0.193c0.052-0.241-0.111-0.464-0.223-0.682l-0.575,0.488c-0.136-0.71-0.054-1.89-1.101-2.166
		c0.635-0.055,1.098,0.223,1.399,0.691c0.283,0.454,0.639,0.548,0.967,0.676c0.222,0.089,1.069,0.335,1.286,0.311
		c0.166,0.41,0.988,0.682,0.988,0.682V217.646z M87.063,193.843c0,0,30.165,11.265,32.122,11.984
		c7.871,2.909,15.877,5.628,23.726,8.659l0.08,1.979c-1.015-0.554-2.121-0.632-3.046-1.68c-0.91-1.001-4.983-1.545-7.029-2.274
		c-5.681-2.005-39.199-14.715-50.206-18.972l-0.193,0.193c1.449,1.299,3.38,1.821,5.436,2.666c0,0,37.91,14.408,42.796,16.413
		l-1.783,0.988c-4.372-1.417-8.375-3.2-12.712-4.705c-0.095,0.354-0.143,0.711-0.19,0.948c3.819,1.476,7.455,2.828,11.2,4.363
		c0.375,0.153,0.368,0.231-0.011,0.107c-3.713-1.204-7.428-2.744-11.214-4.062c-0.07,0.188-0.115,0.4-0.142,0.598
		c2.606,0.986,5.106,2.063,7.741,2.941v0.301c-0.961-0.354-6.094-1.674-7.714-1.975c-0.165,0.084-0.083,0.331-0.111,0.494
		c2.361,0.825,11.045,4.166,11.089,4.64c-4.346-1.49-8.835-3.101-13.088-5.024c-0.222-0.1-17.161-6.615-25.369-9.907
		c-2.476-0.923-6.545-2.552-8.29-4.532c-0.549-0.795-0.576-1.896-0.413-2.882c1.703,1.343,9.232,4.743,10.435,5.178
		c8.568,3.109,17.198,6.25,25.554,9.645c0.093-0.335,0.212-0.651,0.212-0.977c-8.725-3.604-17.78-6.723-26.646-10.02
		c-1.008-0.376-7.083-2.947-8.648-4.705c0.082-1.072,1.266-0.909,2.277-0.987c2.553-0.217,5.134-0.41,7.494-0.191
		c0.884-0.06,0.193-0.91,0.193-0.91c-2.553-0.107-5.052-0.048-7.495-0.764c0.582-0.173,1.462-0.231,1.974-0.741
		c1.083-1.07,0.753-3.688,0.707-5.844c1.977-1.433,3.88-2.858,5.225-5.001c0.316-0.617,0.049-0.823-0.351-0.958
		c-2.792-0.938-3.068-4.473-1.971-6.253c0.817-1.333,2.247-2.418,3.611-2.947c-0.795-4.117-3.127-7.824-6.423-10.594
		c0.384,0.081,1.126,0.688,1.758,0.41c-7.165-4.392-15.456-6.422-24.103-7.408c-1.765-0.184-4.254-0.415-5.82,0.301
		c-0.082,0.41,0.413,0.356,0.688,0.385c1.565,0.138,3.402,0.138,5.023,0.379l0.607-0.339c1.311-0.174,6.599,1.042,7.085,1.149
		c7.281,1.648,13.731,4.413,16.64,7.77c1.893,2.187,3.195,4.754,3.641,7.538c-5.585,3.179-5.401,8.168-0.99,10.376
		c-1.07,1.756-3.047,3.074-4.64,4.445c-0.237-4.692,0.087-7.773-0.262-12.434c-0.065-0.877-0.628-0.877-0.596,0
		c0.146,4.047,0.127,8.856-0.321,12.627c-1.235,2.275-5.116,5.222-2.472,7.33l1.292,0.682c-1.292,0.084-2.816,0.331-4.255,0.193
		c-0.181-3.673,0.201-21.346-0.1-23.314c-0.742-4.842-4.79-4.758-12.939-7.02l-0.302,0.498c0,0,6.996,1.821,9.659,3.51
		c1.675,1.066,2.579,1.551,2.716,4.685c0.07,1.599-0.24,17.228,0.06,23.618c0.384,0.44,0.687,0.795,0.411,1.404
		c-0.273,0.433-0.905,0.3-1.29,0.191c-1.268-0.573-1.578-1.737-1.584-3.057c-0.017-4.245,0.875-16.066,0.564-20.727
		c-0.163-2.438-0.919-4.605-3.536-5.484c-5.709-1.783-11.337-3.263-17.185-4.448c-2.338-0.435-3.994,1.848-4.768,3.989
		c-1.746,4.857-1.573,16.491,0.128,18.937c-0.603,0.082-1.18-0.741-1.482-1.264c-2.601-4.913-2.224-15.065-2.037-18.69
		c0.31-6.041,1.473-8.553,5.247-9.3c4.329-0.858,11.246,0.9,14.176,1.526c6.253,1.342,13.325,3.263,15.462,5.465
		c1.604,1.652,2.155,4.142,2.615,6.388c0.133,0.651,0.411,0.469,0.427-0.1c0.084-2.957-1.087-6.022-3.499-7.724
		c-3.957-2.784-23.523-7.119-28.969-6.566c-1.171,0.119-2.292,0.41-3.23,1.032c0.743-1.852,3.089-3.619,4.73-4.138
		c3.933-1.243,10.794-0.188,15.461,0.712c9.407,1.811,18.042,5.315,22.303,9.541c0.329,0.029,0.632,0,0.795-0.301
		c-0.027-1.042-1.646-2.083-0.412-2.962c1.016-0.084,1.482,0.71,2.085,1.396c-0.439,1.21-0.877,2.993,0,4.147
		c-1.179,0.878-0.082,1.911,0,3.044c0.183,4.388,0.069,8.117,0.011,11.996c-0.02,1.289,0.436,1.245,0.532-0.024
		c0.212-2.77,0.336-12.544,0.336-12.544c0.611,0.416,1.237,0.766,1.785,0.988c0.083,1.289,0.209,9.068,0.093,10.697
		c-0.314,4.343-0.859,8.534-0.779,12.829c-1.082,0.157-3.796,0.197-5.442,0.773c0.124,0.219,0.286,0.644,0.391,0.791
		c2.233-0.45,4.917-0.366,7.211-0.119c0.333-0.004,0.405,0.219,0.094,0.219c-1.167,0.063,0.011,0.676,0.011,0.676l3.554,1.114
		c0,0,39.501,13.226,40.044,13.457c0.022,0.306,0.091,0.592,0.069,0.854c-6.011-2.093-22.402-7.76-22.402-7.76l-23.146-7.946
		c-1.038-0.282-0.309,0.566-0.309,0.566l45.953,15.831c0,0,0.114,0.77,0.023,0.741c-16.292-5.599-33.403-11.542-49.701-17.139
		c-0.672-0.213-1.099,0.576-0.363,0.863c16.635,5.543,33.745,11.956,50.271,17.83l0.08,1.371
		c-3.288-1.427-14.943-5.469-17.441-6.332c-3.258-1.132-28.703-10.386-38.174-13.817C87.183,193.271,86.896,193.675,87.063,193.843z
		 M82.13,188.792c0.7-1.461,1.115-2.068,2.774-3.345c0.138,1.302,0.438,3.404-0.188,4.279
		C83.619,191.275,81.442,190.975,82.13,188.792z M143.211,204.988h-1.896l-28.165-9.087l-10.68-3.763
		c0.39-0.557,1.081-2.803,1.209-3.948c2.366,1.401,6.656,3.544,8.885,4.448c7.147,2.896,30.727,9.991,30.727,9.991
		C143.182,203.369,143.211,204.219,143.211,204.988z M143.293,197.688c-11.174-2.255-21.935-6.723-32.915-10.075l-0.191,0.193
		c1.568,1.279,3.613,1.742,5.463,2.543c5.879,2.541,21.144,7.023,27.627,8.737c-0.006,0.479,0,0.951-0.049,1.188
		c-12.629-2.715-25.411-6.594-36.885-12.084c-2.028-1.022-1.528-2.428-1.623-3.737c1.564,0.656,12.346,4.798,14.916,5.579
		c1.423,0.43,17.123,5.813,23.656,7.462V197.688z M143.401,196.015c-12.874-4.146-25.775-8.318-38.649-12.464
		c-0.556-3.49-0.249-8.214,0.236-12.537c0.741-6.576,1.686-11.221,2.992-20.086c0.043-0.331-0.456-0.494-0.513-0.149
		c-1.734,10.219-3.826,20.18-3.739,30.649c0.006,0.578-0.102,3.988,0.447,5.084c-2.276,0.731-3.859-6.964-3.346-12.207
		c0.131-1.338,0.298-7.01,0.298-7.01l1.115-9.196c0.238,0.287,0.725,0.431,1.001,0.119c2.169-2.443,2.359-6.288,2.002-9.338
		c-0.049-0.503-0.033-0.869,0.236-1.273c1.093-1.639,2.28-5.183,3.262-7.676c0.521-1.329,1.019-2.158,1.659-2.582
		c0.8-0.528,1.375-1.206,1.821-1.96c1.074-1.821,3.127-8.456,3.472-9.685c0.188-0.676,2.303-8.096,2.703-11.042l-0.196-3.47
		c0.744-1.729,1.759-3.925,3.087-5.514c2.186-2.616,4.097-2.271,7.498-2.675c5.539-0.666,12.597-0.593,15.848-0.568
		c15.041,0.109,30.136,1.195,44.864,3.274c5.648,0.795,17.317,2.616,24.382,5.637c1.66,0.714,2.93,1.627,3.035,2.725
		c-15.783-3.565-33.023-5.104-48.806-3.647c0.082-0.796-0.79-1.264-1.402-1.486c-4.411-1.492-9.053-2.439-13.81-3.111
		c-6.738-0.961-13.243-1.437-19.771-1.781c-0.172-0.016-0.217-0.081-0.072-0.094c3.508-0.371,6.43-0.124,9.935-0.337
		c0.057-0.163-0.047-0.295-0.19-0.304c-8.493-0.209-18.466,0.438-20.754,2.581l0.192,0.191c4.756-1.84,13.16-1.208,18.77-0.67
		c8.559,0.814,17.393,1.392,24.903,4.23c0.958,0.36,1.271,0.663,0.052,0.8c-12.521,1.411-26.794-1.542-40.265-1.995
		c-2.115,0.081-4.607,0.208-5.821,2.468c-0.494,1.097-1.742,3.268-0.605,3.653h0.302c-0.658,3.021-1.783,5.844-2.553,8.812
		c-0.26,0.854,0.135,0.938,0.397,0.216c1.26-3.47,2.308-7.048,3.145-10.702c-0.401-0.542-0.523,0.494-0.797,0.604
		c0.634-5.105,4.728-4.527,8.592-4.32c4.729,0.262,20.398,2.23,24.185,2.458c3.147,0.188,5.225,0.079,8.579-0.128
		c13.468-0.825,26.336-0.829,40.394,0.695c3.948,0.563,8.046,1.254,12.032,2.054c0.5,0.104,3.876,0.937,4.523,1.174
		c0.969,0.356,0.989,0.898-0.093,0.76c-0.728-0.094-3.239-0.938-3.684-1.042c-14.253-3.357-29.502-4.235-43.715-3.441
		c-6.209,0.341-12.447,0.879-18.538,0.578c-2.31-0.119-13.009-1.48-16.181-1.836c-3.204-0.36-9.964-0.998-12.098-0.613
		c-1.468,0.262-2.785,0.894-3.387,2.533l0.191,0.144c1.496-1.673,3.208-2.049,5.241-2.064c2.407-0.02,10.631,0.898,12.323,1.061
		c1.405,0.134,12.682,1.708,17.322,1.683c-2.602,5.806-4.297,11.986-6.109,18.117c-1.511,5.124-3.366,10.962-4.045,14.729
		c-0.41,0.188-1.343,0.597-2.006,0.456c-0.082-0.609-1.852-0.644-2.059-1.294c2.063,0.01,4.25-6.713,5.163-10.123
		c0.207-0.772-0.55-0.741-0.75-0.041c-0.832,2.907-1.875,5.756-3.341,8.406c-0.462,0.741-1.676,0.91-2.363,0.772l-0.48-0.559
		c0.906-0.192,1.961-0.32,2.539-1.199c1.429-2.114,2.059-4.507,2.883-6.838c1.56-4.683,3.455-10.113,4.122-15.341
		c0.212-1.664,0.195-2.162-1.459-2.518c-5.377-1.151-19.027-2.888-21.838-2.844c-1.801,0.031-2.823,0.958-3.517,2.522
		c-0.676,1.526-6.316,17.327-5.934,20.16c0.061,0.45,0.214,0.86,0.639,1.007c-0.418-4.279,3.638-15.284,5.23-18.925
		c1.515-3.47,1.606-4.033,5.064-3.91c3.941,0.134,14.011,1.545,19.853,2.799c0.575,0.123,0.561,0.222-0.002,0.138
		c-7.625-1.092-15.239-2.365-20.55-2.439c-2.03-0.058-2.992,1.892-3.65,3.456c-0.722,1.758-1.317,3.619-1.915,5.434
		c-0.298,0.904,0.217,1.313,0.624,0.193c0.592-2.143,1.427-4.151,2.284-6.15c0.512-1.185,1.425-2.033,3.212-2.049
		c4.351-0.034,17.2,1.965,21.187,2.765c-0.669,4.915-2.308,9.58-3.653,14.33c-1.476-0.307-3.512,0.507-5.165-1.003
		c-1.75-1.599-4.522-1.836-6.21-1.289c-1.949,0.622-2.275,1.645-2.275,1.645c-3.249-0.128-6.177-0.484-9.343-0.05
		c-2.872,0.391-3.769,3.037-2.891,4.157h0.19c-0.093-2.706,1.483-3.569,6.122-3.46l5.519,0.31l-0.274,0.676
		c-2.717,0.193-6.205-0.71-8.895,0.578v0.222c2.443-0.385,5.682-0.607,8.016,0.494c0.403,0.226,0.528,0.576,0.588,0.958
		c0.346,2.146,1.308,3.297,5.021,4.195c0.275,0.028,0.404,0.188,0.594,0.381c-4.145-0.574-11.414-2.365-16.823-3.931
		c-1.291-0.429-0.608-2.181-0.36-3.197c0.695-2.759,1.673-5.712,2.663-8.511c-0.11-0.014-0.302-0.054-0.495-0.083
		c-0.786,2.038-3.175,8.4-3.258,10.005c-0.025,0.454-0.123,1.974-0.123,2.336c5.875,1.918,12.055,2.976,18.122,4.461
		c0.488,0.134,0.014,0.731,0.014,0.731c-5.931-1.21-12.041-2.656-17.777-4.029c-0.12,0.335-0.116,0.582-0.144,0.883
		c3.898,0.988,19.663,4.473,19.663,4.473c0.186,0.36,0.282,0.672,0.378,1.032c0,0-15.193-3.219-17.706-3.623
		c-0.843-0.138-0.701,0.435,0.093,0.601c6.033,1.279,11.938,2.862,17.951,4.266c0.763,2.55,2.886,2.931,4.45,2.784
		c0.22-0.306,0.215-0.559-0.004-0.806c-0.688,0.253-3.165-0.094-3.46-1.564c-0.657-3.407-2.471-6.288-4.061-9.304
		c-0.6-0.1-1.375-0.385-1.595-1.182c-0.543-1.361,0.386-2.625,1.783-1.731c0.713,0.444,0.552,1.787,1.594,1.618
		c0,0,1.881-0.316,2.626-0.775c0.377-0.232,0.499-0.467-0.192-0.517c-0.992-0.069-2.542,0.138-2.74,0.167
		c-0.241,0.046-0.434,0.015-0.488-0.354c-1.683-1.852-3.349-0.691-3.349,0.986c-1.262-0.538-0.933-2.581-0.284-3.213
		c1.392-1.352,4.206-1.249,5.887-0.37c2.639,1.382,2.362,4.517,0.992,6.16c-0.987,1.189-1.424,1.333-2.456-0.532
		c-0.575-1.042-0.987-0.553-0.459,0.247c1.696,2.566,2.55,6.544,5.938,7.32c0.61,0.138,0.96,0.444,1.017,0.804
		c0.015,0.282-0.259,0.375-0.259,0.375c0.037-0.904-0.832-0.385-0.889,0.642c-0.052,0.954,0.696,1.026,0.973-0.069l0.494,0.222
		c-0.111-1.48,1.264-1.179,2.085-1.48c-0.052,0.661,0.067,1.427-0.797,1.756c-0.713,0.303-1.809,0.494-1.865,1.482
		c1.068,0.079,2.515-1.624,3.252-0.503c0.358,0.547,4.526,0.385,4.159,1.905c-1.73,7.795-3.762,15.619-4.749,23.605
		C144.472,181.847,143.813,189.286,143.401,196.015z M140.82,136.716h2.964c-0.713,2.063-1.15,5.3-3.949,5.741
		c-0.77,0.138-1.538-0.138-1.787-0.988C139.886,140.423,140.701,138.7,140.82,136.716z M140.632,135.175
		c1.261-0.138,2.394-0.147,3.549,0.262c-0.05,0.153-0.037,0.482-0.397,0.482l-3.045-0.107
		C140.726,135.629,140.701,135.413,140.632,135.175z M130.765,136.626c0.33,0.5,1.024,0.889,1.656,0.889l0.177,0.4
		C130.586,138.128,130.347,137.046,130.765,136.626z M133.215,138.587c0.41,0.423,0.715,0.68,1.101,0.986
		c-0.097,1.323-2.088,0.193-2.088,0.193L133.215,138.587z M138.542,224.259c-0.576,1.097-1.94,1.729-2.964,1.782
		C136.621,225.578,137.747,225.054,138.542,224.259z M151.61,228.131c-2.031,0.901-4.803,0.901-6.642-0.41
		c-1.145-0.688-1.932-0.421-3.159-0.688l-4.144-0.992c0.802,0.016,1.547-0.449,2.272-0.77c1.311-0.572,3.54-0.463,4.547,0.686
		c0.605,0.688,0.96,1.857,2.073,2.064c1.923,0.547,2.745-2.174,4.833-1.482c1.126,1.066,2.48,1.545,3.893,1.886
		c1.377,0.332,7.488,1.496,9.028,2.049c0.669,0.241,2.451,1.363,2.7,1.502C161.71,231.15,156.578,229.857,151.61,228.131z"/>
	<path d="M63.354,161.426c-2.918-0.672-5.933-1.737-8.818-1.667c-5.854,0.147-5.687,5.183-5.933,11.54l0.23,0.009
		c0.265-4.072,0.511-10.717,5.252-10.854c2.646-0.075,7.069,1.072,9.03,1.461C64.134,162.112,64.234,161.698,63.354,161.426z"/>
	<path d="M128.276,227.721c-10.294-1.457-37.459-9.74-41.17-10.964c-3.791-1.248-15.76-4.971-17.958-5.612
		c-2.94-0.854-7.875-2.795-9.16-3.594c-0.73-0.454-0.871-0.025-0.166,0.385c2.749,1.58,5.681,2.715,8.663,3.723
		c0.166,0.053,12.532,3.869,18.486,5.878c3.146,1.066,29.198,8.896,39.52,10.677c0.904,1.481,2.994,1.373,4.556,1.896
		c-0.794-1.017-2.434-0.913-3.475-1.762L128.276,227.721z"/>
	<path d="M61.099,184.212c-0.042-0.879-0.473-1.026-0.406,0.024c0.347,3.551,1.162,6.896,3.986,9.398
		c0.457,0.405,0.796,0.046,0.296-0.386C62.294,190.94,61.257,187.628,61.099,184.212z"/>
	<path d="M62.367,181.378l0.796,0.115v0.686c0.081,0.275,0.191,0.71,0.576,0.686c0.083-0.661,0.137-1.594,0-2.359
		c-0.218-0.104-1.317-0.522-1.674,0.078C62.531,180.583,62.641,181.077,62.367,181.378z"/>
	<path d="M66.704,181.763c-0.089-0.31-0.427-0.329-0.757-0.257c-0.882,0.197,0.716,1.961,0.868,2.455
		C67.033,183.249,66.32,182.534,66.704,181.763z"/>
	<path d="M88.142,200.438c9.17,3.678,18.434,6.476,27.491,10.346l0.098-0.438c-9.086-3.738-18.282-7.223-27.589-10.489V200.438z"/>
	<path d="M118.566,147.299c-2.387-0.09-5.367-0.885-8.462-1.604c-0.357-0.084-0.714,0.41-0.906,0
		c0.191-1.783,2.224-2.853,2.964-4.448c0,0,4.379-13.514,4.712-14.956c0.337-1.466,0.068-1.545-0.389-0.184
		c-1.677,5.011-2.984,10.16-4.9,15.062c-2.795,1.989-3.126,5.327-3.661,8.258c-0.031,0.172,0.236,0.291,0.32,0.04
		c0.137-0.425,0.188-1.013,0.46-1.304c0.471,0.356,1.186,0.591,1.069,1.175c-0.39,1.652,2.871,1.743,2.865-0.125
		c0-0.228,0.033-0.435,0.32-0.553c0,0,5.021,1.057,6.128,0.894C121.153,149.254,121.189,147.397,118.566,147.299z M109.116,147.669
		c0.576-0.05,1.29,0.138,1.977,0.222v0.193C110.405,148.247,109.609,148.222,109.116,147.669z M118.279,148.282
		c-1.255-0.016-3.228-0.341-4.333-0.691l-0.192,0.188c0.455,0.291,0.816,0.429,1.194,0.588c0.155,0.063,0.126,0.176-0.054,0.132
		c-1.1-0.251-2.278-0.933-3.033,0.079c-0.029,0.14,0.031,0.302,0.219,0.302h0.275c-0.129,0.379-0.222,1.07-0.773,1.095
		c-0.571,0.019-1.213-0.025-1.406-0.547c0.105-1.145,0.788-0.313,1.19-0.766c0.247-0.438,0.795-0.992,0.303-1.486
		c-0.468-0.469-1.291-0.379-1.291-0.379l0.705,0.553c-0.55,0.035-1.979-0.071-1.885-0.444c0.109-0.603,0.646-0.031,0.989-0.716
		c2.177,0.745,6.75,1.755,7.827,1.88C118.874,148.113,118.946,148.307,118.279,148.282z"/>
	<path d="M108.566,155.483c0.708,2.271,4.152,0.973,2.958-1.135C110.396,152.358,107.81,153.055,108.566,155.483z M109.462,155.023
		c0.107,0.406,0.417,0.559,0.953,0.524c-0.762,0.483-1.224,0.197-1.409-0.657c-0.139-0.701,0.767-1.013,1.373-1.072l0.604,0.77
		C110.296,155.33,109.352,153.568,109.462,155.023z"/>
	<path d="M116.912,140.562c0.367-1.383-1.344-0.632-1.42-2.262c-0.042-2.7,2.827-12.463,3.583-14.749
		c0.869-2.631,1.766-5.247,2.98-7.73c0.615-1.26,1.53-1.692,2.646-1.777c3.524-0.266,19.522,1.633,23.659,2.729
		c1.789,0.475,2.034,1.042,1.703,2.968c-0.757,4.417-2.248,8.496-3.515,12.695c-0.329,1.091,0.146,1.413,0.553,0.212
		c0.918-2.734,3.41-11.243,3.699-12.863c0.538-2.987-0.402-3.469-2.277-3.835c-4.367-0.854-21.922-3.263-24.385-2.759
		c-1.705,0.345-2.012,0.81-2.737,2.518c-2.31,5.449-5.488,15.218-6.486,21.403C114.531,139.476,115.346,140.437,116.912,140.562z"/>
	<path d="M130.885,217.532c0,0.473-0.264,0.808-0.74,1.046c-0.592,0.287-1.02,0-1.676,0.053c0.192,0.964,1.561,1.067,2.279,1.098
		c0.474-0.223,0.932-0.741,0.796-1.397C131.48,217.911,131.406,217.473,130.885,217.532z"/>
	<path d="M132.981,225.321c0.328-0.021,0.713-0.056,0.841-0.568c-0.469-0.354-0.079-1.126-0.496-1.48
		c0.577-0.301,0.521,0.657,0.881,0.795c0.109-0.069,0.701-1.564-1.511-1.393C130.851,222.995,131.095,225.498,132.981,225.321z"/>
	<path d="M147.355,231.891c-0.548,0.47,0.854,0.77,0.302,1.07c-1.731-0.191-3.269-1.017-4.445-2.28
		c-0.963,0.277-1.788-0.054-2.886-0.078c-0.74,0.024-1.289,0.766-2.058,0.381c-0.987-1.176-1.869,0.606-2.964,0
		c-0.795-0.494-2.029-0.766-2.772-0.494c2.243,1.495,5.967,1.451,7.37,1.036c0.138-0.038,3.144-0.435,3.995,0.75
		c0.284,0.43,2.91,1.896,4.526,1.096c-0.189-1.534,1.046-0.325,1.788-0.902c6.012,1.456,11.775,3.539,18.2,3.948v-0.188
		c-6.067-0.879-11.667-2.828-17.402-4.447C149.907,231.807,148.423,232.167,147.355,231.891z"/>
	<path d="M133.527,136.992c0.256,1.233,1.846,0.76,1.409-0.435C134.565,135.541,133.311,135.932,133.527,136.992z"/>
	<path d="M140.738,146.905c-2.004-0.41-2.414-2.774-3.265-4.176c0.219,1.486,1.125,2.665,1.481,4.067
		c0.056,0.241,0.086,0.498,0.138,0.745c0.155,0.741,1.614,1.842,2.229,1.076c0.256-0.32,0.358-1.771-0.086-2.122
		C140.876,146.38,140.82,146.683,140.738,146.905z"/>
	<path d="M154.732,190.768c-4.707,0.902-7.434,3.401-7.489,12.241c-0.012,0.153,0.346,0.197,0.368-0.016
		c0.696-6.688,1.938-10.063,7.459-11.431c4.479-1.11,11.936,0.226,18.362,1.57c0.319,0.068,0.461-0.48,0.193-0.578
		C167.572,191.291,160.962,189.567,154.732,190.768z"/>
	<path d="M157.914,157.432c-2.113-0.245-4.171-0.632-6.148-1.179c-0.102,0.296-0.15,0.582-0.195,0.909
		c1.95,0.414,4.102,0.864,6.122,1.18C157.765,158.029,157.834,157.788,157.914,157.432z"/>
	<path d="M156.29,123.511c-1.333,3.077-3.461,11.098-3.91,14.242c-0.114,0.789-0.104,1.555,0.338,2.255
		c1.057,1.679,5.645,1.205,6.876,0.573c3.384-1.737-0.069-15.529-0.484-16.848C158.178,120.767,157.226,121.345,156.29,123.511z
		 M154.688,139.688c-1.93,0.157-1.663-2.702,0.025-2.681C156.534,137.021,156.45,139.539,154.688,139.688z M160.283,138.694
		c-0.057,1.473-2.323,1.739-3.495,1.773c-1.113,0.025-1.278-0.034-0.066-0.335c3.692-0.913,3.413-5.042,0.215-5.583
		c0.713-0.909,0.876-2.276,0.494-3.377c-0.247-0.41-0.824-1.017-1.292-0.492c0.055-2.251,1.198-4.582,1.481-6.807
		c-1.261,1.781-2.695,7.311-2.67,8.559c0.024,1.254,0.375,0.741,0.634,0.054c0.635-1.687,1.572-1.361,1.328,0.406
		c-0.185,1.308-0.429,1.603-1.955,1.658c-1.269,0-1.2-0.509-1.001-1.417c0.577-2.65,1.241-5.268,2.298-7.717
		c1.423-3.292,1.841-3.81,2.621-0.013C159.767,129.766,160.52,134.095,160.283,138.694z"/>
	<path d="M159.143,120.86c2.23,6.122,3.655,14.474,3.912,19.81c0.141-0.015,0.277-0.109,0.415-0.193
		c0.331-5.306-1.916-15.475-4.181-19.67C159.237,120.708,159.11,120.776,159.143,120.86z"/>
	<path d="M169.397,222.281l0.192-0.188c-4.336-2.442-7-7.113-7.604-11.861c-0.438,2.719,0.521,5.465,1.866,7.605l0.108-0.592
		c0.274,0.632,1.43,1.333,0.881,1.802C166.078,220.582,167.613,221.815,169.397,222.281z"/>
	<path d="M162.213,118.364c0.841,2.694,4.176,15.341,5.382,20.237c0.141,0.607,0.255,0.619,0.175-0.038
		c-0.809-6.635-3.233-14.064-4.907-20.427C162.381,116.926,161.838,117.159,162.213,118.364z"/>
	<path d="M171.95,220.607c0.111-0.109,0.207-0.243,0.304-0.385c-2.91-1.289-5.958-3.594-7.412-6.531
		C164.388,215.512,168.759,219.97,171.95,220.607z"/>
	<path d="M174.759,128.971c0.463-0.168,0.518-0.366-0.011-0.316c-1.142,0.107-3.139,0.398-3.374,0.952
		c0.713-0.138,1.456-0.576,2.169-0.41c-0.713,0.326-1.602,0.569-2.169,0.988C172.56,129.919,173.636,129.375,174.759,128.971z"/>
	<path d="M173.734,220.305c-0.413,0.607-1.071-0.022-1.373,0.607l0.689,0.302c0.353,0.326-0.25,0.548-0.195,0.879
		c0.027,0.438,0.388,0.933,0.879,0.602c-0.163-0.191-0.483-0.226-0.291-0.66c0.214-0.36,0.881-0.219,1.085,0.166
		c0.168,0.331-0.271,0.416-0.298,0.688c1.592,0.138,0.138-1.21,0.684-1.867C174.806,220.523,173.966,220.029,173.734,220.305z"/>
	<path d="M267.234,234.143c2.854-0.953,5.744-1.926,8.459-3.269c0.353-0.172,0.102-0.982-0.287-0.835
		c-3.397,1.285-6.671,3.121-10.561,3.332c-0.522,1.264-1.782,1.626-2.854,1.979c-11.504,3.816-23.444,5.899-35.003,9.275
		c-3.512,0.909-7.876,1.704-11.364,0.115l-0.083-0.91c-4.21-1.164-20.225-4.022-21.849-4.333c-6.641-0.4-12.925-1.379-19.437-2.35
		c-0.581-0.09-0.598,0.133-0.033,0.271c5.993,1.511,12.831,2.236,19.141,2.868c4.641,0.873,18.47,3.332,21.384,4.147
		c-0.033,0.285-0.058,0.616-0.081,0.947c2.24,0.598,4.217,1.008,6.394,1.417c14.304-3.653,28.77-6.753,42.713-11.255
		C264.706,234.581,265.832,234.059,267.234,234.143z"/>
	<path d="M176.315,123.264c-0.661,0.771-1.838-0.241-2.47,0.5c1.128,0.216,2.601,0.144,3.54,0.191L176.315,123.264z"/>
	<path d="M175.04,192.864c-0.281-0.059-0.477,0.476-0.122,0.573c6.367,1.244,11.461,2.464,12.658,7.078
		c1.437,5.519,2.18,11.295,3.11,16.992c0.172,1.035,1.559,8.959,2.428,11.614l0.271-0.006c-1.964-9.368-3.159-18.944-5.019-28.501
		C187.305,195.15,182.108,194.316,175.04,192.864z"/>
	<path d="M179.362,123.679c0,0-0.44-0.463-1.082-0.203c-0.57-0.167-0.785,0.287-0.785,0.287
		C178.181,124.198,178.995,123.813,179.362,123.679z"/>
	<path d="M183.728,225.547c-1.152,0.194-2.691,0.169-4.063,0.301v0.307C179.665,226.154,183.831,226.273,183.728,225.547z"/>
	<path d="M218.699,138.888c-1.783-0.578-3.818-0.522-5.737-0.794l-0.193,0.301c1.702,0.716,3.87,0.218,5.628,0.794L218.699,138.888z
		"/>
	<path d="M213.749,197.269c-0.383,0.178-0.646,0.351,0.008,0.528c0.58,0.301,0.58,1.18,0.387,1.758h0.217
		c0.359-0.55,0.551-1.429,0.193-2.061c0,0,1.369-1.312,2.023-2.314c1.678-2.547-0.072-3.874-2.521-2.581
		c-0.863,0.453-0.807,0.553,0.088,0.257c2.077-0.771,3.474,0.246,1.737,2.527C215.381,196.039,214.219,197.05,213.749,197.269z"/>
	<path d="M215.352,206.969h-0.302c-0.396,2.609,0.287,6.797,3.155,7.132v-0.3C215.951,212.856,214.965,209.791,215.352,206.969z"/>
	<path d="M215.132,205.102l0.301,0.109c1.256-4.733,4.281-7.705,10.187-8.896v-0.222
		C223.425,195.951,215.907,198.182,215.132,205.102z"/>
	<path d="M219.794,205.261c-0.151,0.967,1.264,1.229,1.377,0.191C221.265,204.583,219.963,204.163,219.794,205.261z"/>
	<path d="M223.148,139.874c-0.604-0.523-1.43-0.548-2.167-0.798c-0.115,0.144-0.165,0.294-0.195,0.414
		C221.554,139.598,222.459,140.042,223.148,139.874z"/>
	<path d="M251.793,223.864c-9.169,2.256-19.313,5.39-28.753,6.432l-0.496,0.5c-0.41,3.016-0.651,5.888-1.149,8.75
		c-0.162,0.919,0.131,1.176,0.402,0.259c0.471-1.576,0.609-7.697,1.459-8.714c9.662-1.205,19.462-4.329,28.823-6.579
		C252.49,224.343,252.395,223.786,251.793,223.864z"/>
	<path d="M309.052,207.758c-0.66,1.491-3.63,4.038-5.962,5.902c-4.251,3.397-11.772,9.06-18.29,10.708l0.222,0.603
		c-2.464,2.112-5.74,3.075-8.62,4.646c0,0,0.102,0.946,0.797,0.572c2.635-1.397,5.762-2.651,8.218-4.319
		c0.644-1.62,1.953-0.954,3.256-1.692c7.019-3.615,15.477-9.913,19.865-14.721c0.817-0.895,1.12-0.454,0.618,0.355
		c-2.625,4.215-17.573,15.954-22.651,17.222c-0.084,0.688-0.564,1.313-1.101,1.674c-5.034,3.421-16.121,8.599-20.065,8.702
		c-6.682,2.162-13.362,4.389-20.152,6.338c-4.57,1.313-16.028,4.082-22.349,3.767c-0.667-0.035-0.596,0.494,0.024,0.618
		c1.888,0.364,8.353-0.475,9.77-0.697c11.259-1.782,21.845-5.652,32.514-9.037l2.09-0.193c5.964-1.925,18.086-7.523,19.848-10.268
		c6.667-2.689,12.457-8.017,18.087-12.766c3.018-2.562,5.059-4.511,4.729-7.389C309.814,207.032,309.442,206.879,309.052,207.758z"
		/>
	<path d="M237.827,169.828c-0.327,1.555-1.007,2.206-1.425,0.473c-0.373-1.536-0.686-2.462-2.075-3.044
		c-1.034-0.431-2.319-0.45-3.386-0.81v0.601c1.429,0.385,2.968,0.444,3.952,1.789c1.136,1.909,1.313,4.22,1.961,6.323
		c1.244,4.066,2.755,4.491,7.123,4.27c2.055-0.1,4.158-0.582,6.043-0.903c0.247-0.054,0.128-0.532-0.191-0.494
		c0,0-7.288,1.057-9.455,0.247c-3.276-1.229-3.294-6.179-0.996-8.772c2.302-2.59,11.121-4.17,16.728-1.658
		c5.135,2.299,4.991,8.148-4.174,10.01c-1.107,0.223-1.094,0.816,0.103,0.578c5.821-1.154,8.908-4.407,8.219-7.256
		c-1.467-6.082-10.896-5.81-18.33-4.624c0.438-0.49,1.264-0.465,1.867-0.682c5.463-0.775,11.408-1.032,16.716-2.389v-0.192
		c-3.621,0.548-14.641,1.618-16.456,1.89C240.201,165.759,238.389,167.176,237.827,169.828z"/>
	<path d="M282.824,221.214c-0.771,1.08-11.813,4.902-12.402,5.09c-0.626,0.191-1.136,0.281-1.132-0.069
		c-0.042-1.491,0.337-3.421,0.303-4.848c-0.008-0.356-0.279-0.484-0.337-0.188c-0.327,1.604-0.808,6.24-0.808,6.24
		c4.044-1.072,13.545-4.839,14.329-5.343c1.731-1.066,1.517-4.614,1.642-6.51l-0.385-0.084
		C283.77,217.532,284.034,219.428,282.824,221.214z"/>
	<path d="M269.29,220.029l0.422,0.024c0.355-1.896,0.383-3.668,0.831-5.286c3.515-1.54,13.035-4.558,13.92-4.674l-0.36,4.505
		l0.429-0.05c0.215-1.762,0.498-3.666,0.548-5.483c0,0-10.297,2.922-14.99,5.12C269.666,215.956,269.449,218.055,269.29,220.029z"/>
	<path d="M289.424,187.317c-0.024,0.117,0.418,0.345,0.486,0.025c0.598-2.668,4.693-4.153,5.27-1.404
		C295.931,182.554,290.293,183.411,289.424,187.317z"/>
	<path d="M291.604,187.574c-0.674,0.072-0.8,1.708,0.125,1.624C292.666,189.198,292.394,187.484,291.604,187.574z"/>
	<path d="M294.492,197.575l0.191,0.112l0.219-2.364C294.592,195.808,294.446,196.978,294.492,197.575z"/>
	<path d="M157.454,159.18c-2.112-0.247-4.173-0.632-6.15-1.185c-0.102,0.303-0.148,0.584-0.19,0.91
		c1.95,0.414,4.102,0.863,6.121,1.179C157.304,159.772,157.375,159.537,157.454,159.18z"/>
	<path d="M156.899,161.604c0.072-0.307,0.144-0.544,0.222-0.898c-2.112-0.247-4.171-0.632-6.15-1.182
		c-0.098,0.293-0.148,0.584-0.192,0.904C152.728,160.844,154.88,161.292,156.899,161.604z"/>
	<path d="M150.494,162.146c1.95,0.415,4.1,0.865,6.119,1.181c0.069-0.312,0.144-0.549,0.222-0.904
		c-2.115-0.247-4.173-0.632-6.148-1.179C150.583,161.539,150.536,161.827,150.494,162.146z"/>
	<path d="M150.038,163.973c1.95,0.416,4.184,0.844,6.2,1.156c0.072-0.312,0.144-0.549,0.222-0.904
		c-2.112-0.247-4.25-0.607-6.229-1.16C150.131,163.362,150.083,163.647,150.038,163.973z"/>
	<path d="M149.715,165.997c1.949,0.419,4.171,0.844,6.189,1.16c0.075-0.31,0.144-0.548,0.222-0.908
		c-2.112-0.247-4.245-0.607-6.219-1.156C149.804,165.39,149.759,165.677,149.715,165.997z"/>
	<path d="M149.335,167.646c1.947,0.416,4.265,0.863,6.283,1.179c0.072-0.31,0.146-0.551,0.225-0.907
		c-2.115-0.247-4.341-0.632-6.315-1.18C149.424,167.035,149.377,167.32,149.335,167.646z"/>
	<path d="M149.045,169.375c1.948,0.419,4.312,0.892,6.333,1.208c0.069-0.31,0.144-0.547,0.222-0.904
		c-2.115-0.245-4.387-0.655-6.362-1.208C149.137,168.766,149.088,169.053,149.045,169.375z"/>
	<path d="M148.809,170.908c1.947,0.416,4.457,0.913,6.476,1.226c0.072-0.313,0.144-0.548,0.222-0.898
		c-2.112-0.252-4.531-0.682-6.505-1.235C148.9,170.301,148.853,170.583,148.809,170.908z"/>
	<path d="M148.594,172.672c1.947,0.413,4.389,0.794,6.408,1.104c0.069-0.306,0.141-0.547,0.219-0.904
		c-2.113-0.241-4.459-0.557-6.435-1.104C148.686,172.064,148.639,172.35,148.594,172.672z"/>
</g>
</svg>
