<?xml version="1.0" encoding="utf-8"?>
<!-- Generator: Adobe Illustrator 16.0.0, SVG Export Plug-In . SVG Version: 6.00 Build 0)  -->
<!DOCTYPE svg PUBLIC "-//W3C//DTD SVG 1.1//EN" "http://www.w3.org/Graphics/SVG/1.1/DTD/svg11.dtd">
<svg version="1.1" id="Layer_1" xmlns="http://www.w3.org/2000/svg" xmlns:xlink="http://www.w3.org/1999/xlink" x="0px" y="0px"
	 width="350px" height="350px" viewBox="0 0 350 350" enable-background="new 0 0 350 350" xml:space="preserve">
<g>
	<path d="M323.864,192.064c-1.612-0.98-3.525-1.609-5.441-1.902c0.424-0.515,0.635-1.087,0.525-1.878
		c-1.248-2.042-3.761-2.042-5.642-3.187c-0.205-0.941-1.722-0.474-2.405-1.149c0.887-0.383,1.904-0.522,2.97-0.539
		c1.229-0.011,2.066-0.466,2.983-1.691c1.103-1.489,1.716-3.197,0.325-4.706c-0.922-0.999-2.313-1.844-2.931-2.835
		c0.468-0.941,0-1.837-0.731-2.253c1.424-0.443,0.969-2.813,0.698-4.005c-0.15-0.709-0.425-1.333-1.046-1.664
		c-0.698-0.375-1.48-0.427-1.53-1.128c-1.029-10.913-11.762-12.153-30.52-14.179c-8.748-0.941-39.805-1.398-51.225-0.574
		c0,0-1.694-0.247-2.578-0.457c-1.889-2.973-3.463-5.059-6.438-5.573c-3.279-0.572-6.366-3.676-8.98-5.929
		c0.219-5.546-14.491-6.356-23.396-6.068c-17.417,0.563-51.78,6.788-68.596,12.481c-9.494,3.216-26.334,10.927-28.649,12.824
		c-0.646,0.533-3.08,1.1-3.635,1.292c-5.013,1.737-26.931,10.722-31.241,12.489c-2.932,1.199-12.988,6.065-14.216,8.11
		c-2.407,4.051-7.467,4.122-9.81,7.407c-1.448,2.025-2.116,5.611-2.251,7.313c-0.065,0.783-0.156,1.553-0.963,2.124
		c-2.399,1.829-0.939,5.645-0.515,8.103c-3.141,1.412,0.416,3.348-1.152,5.069c-0.42-1.149-0.625-2.513-1.31-3.553
		c-0.786-0.266-1.411,0.314-1.725,0.938c1.486,0.843,1.136,2.516,1.63,3.75c0.729,1.801,5.369,2.631,8.078,2.765
		c1.033,0.058,2.108,0.071,2.944,0.597c-0.469,1.306-4.508,1.262-5.673,1.479c-3.055,0.594-1.902,1.253,0.115,1.486
		c1.972,0.232,187.419,1.059,208.079,0.479c4.257-0.12,13.667-1.256,14.031-1.3c9.481-1.33,18.761-0.676,28.188-0.805
		c1.892-0.02,29.256-1.687,30.824-1.404c3.616,0.635,6.955-0.061,7.801-2.165c1.35-3.313,1.027-7.476,1.229-10.93
		c0.167-2.877,0.75-3.162,2.458-4.128C325.999,195.71,326.158,193.455,323.864,192.064z M309.502,186.308
		c-3.021,0.302-3.101-1.576-0.246-1.248C311.404,185.317,311.895,186.069,309.502,186.308z M309.182,198.639l-1.105,0.206
		c0.225-1.404,0.061-3.611,1.312-4.911C309.543,195.028,309.072,197.12,309.182,198.639z M305.621,191.681
		c0.996-1.617,2.091-0.364,3.767-0.728C308.602,192.311,306.669,191.476,305.621,191.681z M307.896,195.095
		c-0.225,1.47-0.044,3.588-0.937,3.635l0.337-3.496L307.896,195.095z M291.144,190.381c1.565-2.042,5.305-3.378,6.589-2.822
		C294.965,187.564,293.123,190.66,291.144,190.381z M293.755,195.809c-0.131,1.029-0.153,1.52-0.208,2.672l-1.207-0.053
		c0.082-0.659,0.058-1.773,0.112-2.775L293.755,195.809z M291.74,195.604c-0.049,1.005-0.021,1.936-0.076,2.877l-1.314,0.046
		l0.225-3.651C290.854,195.048,291.423,195.27,291.74,195.604z M294.488,195.809l1.073,0.17c-0.068,0.859-0.076,1.664-0.134,2.502
		h-1.096L294.488,195.809z M295.428,192.414c0.682-0.782,1.152-1.223,2.156-1.932c-0.884-0.734-2.156,0.153-3.096-0.32
		c0.104-0.677,0.674-0.893,1.254-1.104c0.298-0.112,5.223-2.23,7.796-2.441c0.153,0.627,1.078,0.865,1.877,0.941
		c-0.843,0.355-1.521,0.572-2.25,0.939c-0.049,0.728,0.789,0.936,1.306,1.095c-1.519,0.788-3.298,0.104-5.071,0.569
		c-0.4,0.14-2.771,1.47-3.548,3.032C295.69,193.094,295.326,192.833,295.428,192.414z M296.339,195.839l1.183-0.03
		c-0.085,1.051-0.191,1.886-0.241,2.693h-1.128L296.339,195.839z M296.372,193.562c1.149-0.884,2.627-2.751,3.607-2.086
		C298.562,192.105,298.146,194.298,296.372,193.562z M298.217,195.839l1.183-0.03c-0.05,1.076-0.126,1.886-0.279,2.768h-1.134
		L298.217,195.839z M298.671,193.775c0.783-0.786,1.725-1.993,2.98-2.095C300.606,192.154,300.338,194.347,298.671,193.775z
		 M300.308,195.839l1.183-0.03c-0.214,0.969-0.252,1.834-0.477,2.768h-1.136L300.308,195.839z M300.921,193.775
		c0.619-0.991,1.199-2.054,2.822-2.095C302.656,192.174,302.067,194.246,300.921,193.775z M302.952,193.775
		c-0.099-0.474,0.481-1.046,0.791-0.942C303.954,192.883,303.581,193.934,302.952,193.775z M302.427,195.806l1.185-0.03
		c-0.222,0.964-0.479,1.867-0.709,2.801h-1.133L302.427,195.806z M304.315,195.652h0.733c-0.307,0.985-0.63,2.655-0.756,2.998
		c-0.175,0.057-0.481,0-0.755-0.012C303.79,197.432,303.992,196.657,304.315,195.652z M305.58,196.29
		c0.137-0.473,0.389-0.818,0.987-0.843l-0.583,3.191l-1.015-0.038C305.123,197.996,305.369,197.024,305.58,196.29z M305.984,188.856
		c1.21-0.206,2.88-0.518,3.559,0.946C308.345,189.593,306.511,190.43,305.984,188.856z M315.604,178.146
		c0.525,0.366,0.791,2.009,0.055,2.633c-1.834,1.725-4.544,0.871-6.849,1.5C310.956,180.655,315.188,181.961,315.604,178.146z
		 M313.518,177.362c0.471-0.106,0.835,0.469,0.941,0.783c0.367,0.938-0.41,1.626-1.152,1.88l-1.667,0.361
		C312.475,179.451,313.102,178.463,313.518,177.362z M229.408,152.897c11.792-2.376,47.37-1.561,65.868,1.596
		c5.699,0.98,14.062,4.114,14.267,10.848c-0.767-0.173-1.133-0.859-1.511-1.596c-2.516-4.899-9.603-7.131-20.022-8.748
		c-12.956-2.01-45.233-2.579-55.202-0.586c-2.036,2.384-4.45,2.825-7.007,3.396c1.722-0.941,4.442-1.667,4.544-4.127
		L229.408,152.897z M219.965,146.021c5.737-0.49,7.357,6.061,5.311,7.814H224.7c1.527-2.288,0.323-4.195-0.925-4.916
		c-2.403-1.396-3.088,0.384-3.203,2.877c-1.046-0.934-1.101-2.51-0.785-3.761c0.178-0.638,1.391-0.334,1.311-0.788
		c-0.104-0.887-1.614-0.616-2.241-0.299c-3.104,2.524,0.563,7.462,0.563,7.462c-0.774-0.326-1.716-0.917-2.189-1.732
		C216.144,150.79,215.854,146.369,219.965,146.021z M216.028,143.487c0,1.045,0.044,2.613-0.161,3.761
		C215.345,145.997,215.81,143.52,216.028,143.487z M215.867,151.797c-0.342-0.361-0.811-0.999-1.046-0.972l-0.468,0.61l-0.941-0.785
		l0.941-0.944c0.369,0.063,0.87,0.268,1.303,0.366C215.818,150.702,215.832,151.184,215.867,151.797z M215.205,142.86
		c0.205,0.996-0.107,3.153-0.118,3.87C214.402,145.786,214.835,143.96,215.205,142.86z M214.173,142.135l0.345,0.372
		c-0.104,1.155-0.378,2.396-0.378,3.438l-0.574-0.457L214.173,142.135z M213.412,141.601c0.153,1.098-0.153,2.948-0.367,3.613
		C212.624,144.01,213.182,141.935,213.412,141.601z M212.427,141.048c0.353,1.262-0.246,2.622-0.679,2.751L212.427,141.048z
		 M211.167,140.668c0.433,0.181,0.115,1.834-0.58,2.296L211.167,140.668z M210.223,138.784l0.364,0.416
		c-0.257,1.306-2.666,1.936-1.878,3.348c1.227,2.127,3.816,3.865,5.804,5.488c-2.688-0.375-6.756-4.456-6.8-6.175
		C207.686,141.07,209.618,139.247,210.223,138.784z M113.097,150.072c-0.222,0.709-1.275,0.507-1.671,0.206
		C111.789,149.813,112.822,149.517,113.097,150.072z M107.45,152.164v0.361c-3.133,0.947-6.06,2.57-9.041,3.982
		C100.916,154.203,105.263,152.443,107.45,152.164z M105.445,155.24c0.135-0.433,0.16-0.887,0.539-1.347
		C106.025,154.238,106.193,155.199,105.445,155.24z M104.407,155.946c0.136-0.435,0.156-0.884,0.535-1.347
		C104.988,154.939,105.16,155.903,104.407,155.946z M103.171,156.861c0.166-0.548,0.203-1.104,0.668-1.679
		C103.897,155.604,104.11,156.812,103.171,156.861z M101.875,157.748c0.164-0.553,0.197-1.106,0.667-1.681
		C102.6,156.494,102.81,157.701,101.875,157.748z M100.652,158.38c0.17-0.539,0.207-1.103,0.68-1.678
		C101.394,157.129,101.595,158.331,100.652,158.38z M100.5,157.236c-0.313,0.777-0.313,1.828-1.148,2.244
		C99.541,158.793,99.241,157.343,100.5,157.236z M98.985,158.014c0.203,0.424,0,1.573-0.732,1.891
		C98.516,159.275,98.409,158.542,98.985,158.014z M92.979,160.403c0.205,1.007,0.543,2.091,1.3,2.844
		c1.251,0.81,1.833,0.229,1.347-1.002c-0.354-0.917-1.142-1.872-0.619-2.918c0.84,0.89,1.413,2.354,2.673,2.976
		c4.857-2.663,9.407-6.586,13.325-10.506v0.939c-3.272,4.125-9.06,8.156-12.391,10.439c-3.84,2.639-5.689,1.289-6.18-2.658
		C92.345,159.754,92.838,159.71,92.979,160.403z M58.374,172.575c8.875-3.952,25.029-10.021,28.166-10.79
		c-0.465,1.149,0.898,2.56,0.066,3.717c-1.362,1.137-2.848,1.44-4.388,1.648c-4.336,0.607-15.903,3.717-23.655,5.959
		C57.233,173.498,57.061,173.164,58.374,172.575z M76.211,169.939c5.129-1.016,10.897-2.271,16.545-3.173
		c-1.292-0.506-2.873-0.679-4.334-0.602c-0.379,0.024-0.592-0.15-0.44-0.482c0.955-2.058-1.98-4.667,2.536-5.261
		c0.103,0.791,2.944,6.038,4.256,5.981c6.22-0.356,13.363-1.61,19.628-2.584l-0.363-0.361c-3.992,0.389-8.554,0.949-12.053,1.245
		c-1.392,0.112-1.659-0.2-0.795-0.9c2.22-1.79,11.223-10.33,13.582-12.367c14.778-6.577,47.009-12.895,52.748-13.599
		c10.003-1.226,20.312-1.904,30.557-2.02c0.339-0.009,0.257-0.389,0.06-0.399c-19.959-1.432-39.76,2.926-56.158,6.626
		c-2.774,0.636-21.242,5.511-27.001,8.028c0.297-0.777,0.918-1.239,1.643-1.585c10.486-5.03,43.597-11.581,54.687-12.856
		c14.524-1.661,31.815-2.239,36.496,1.243c0.353,0.266-0.222,0.846-0.748,0.489c-0.969-0.662-5.293-1.959-7.406-1.858l0.017,0.452
		c2.397,0.451,5.222,0.892,6.58,3.03c-1.462,4.76,2.824,7.113,5.857,9.987c-0.624,1.407-0.436,4.268,1.889,4.498h1.459
		c-1.19,1.262-1.037,2.595-0.112,3.862c0.701,0.972-0.518,2.269-0.985,3.087c-25.826,2.039-50.912,5.072-73.028,16.784
		c-0.469-5.44,1.251-11.135,3.03-15.635c-1.359-0.465-1.684,1.254-2.091,2.092c-8.917,0.325-41.406,4.333-44.26,4.763
		c-20.172,3.038-42.78,6.783-56.213,14.425C44.845,177.778,72.062,170.755,76.211,169.939z M213.596,162.809
		c-0.419,0.528-0.605,1.043-0.978,1.582c-13.749,1.005-26.148,2.385-39.034,5.157c-7.471,1.62-29.142,8.437-40.652,14.841
		c-0.771,0.433-0.877,0.334-0.203-0.123c13.01-8.92,31.856-14.264,40.448-15.977C185.514,165.845,201.508,163.622,213.596,162.809z
		 M35.576,189.434c0.56-0.112,0.56,0.548,0.568,0.947c-0.284,0.405-1.095,1.251-1.511,0.364
		C34.789,190.269,34.949,189.593,35.576,189.434z M35.576,193.562v0.214h-0.787v-0.214H35.576z M34.27,191.895
		c-0.057,0.416-0.527,0.679-0.943,0.52C33.364,192.023,33.797,191.681,34.27,191.895z M30.994,197.193
		c1.189-0.227,5.462-0.75,6.62,0.712c-0.647,0.923-1.779,2.51-1.882,4.128c-1.675,0.73-3.352,1.511-5.072,2.25v-0.364
		c1.833-1.62,5.072-2.144,5.484-4.916l-0.412-0.364l-5.804,0.206C29.532,197.618,30.194,197.342,30.994,197.193z M30.865,202.764
		c0.096-1.883,2.236-2.898,4.129-2.973v0.361L30.865,202.764z M52.668,212.383c-0.515-0.091-1.101-0.205-1.677-0.205
		c7.126-4.443,15.442-4.87,23.944-5.174c10.254-0.358,21.942-0.326,32.514-0.471c0.209-0.211,0.402-0.493,0.576-0.736l-2.429-0.063
		c-0.152-2.666,0.234-6.681,0.338-9.925c0.806-0.058,1.378-0.126,2.091-0.156l-0.576,9.572h0.736
		c0.234-2.882,0.437-6.143,0.572-9.572c0.502-0.134,1.54-0.134,1.511-0.533c-13.738-0.055-27.59,0.279-41.072,2.264
		c-4.769,0.7-16.014,2.053-21.753,8.781c0.962-3.392,2.008-7.744,5.253-9.695c8.756-5.242,39.137-12.296,63.796-11.951
		c0.367-0.536,0.433-1.439,0.367-2.239c-9.802-0.979-36.178,2.789-49.945,6.898c-7.13,2.132-15.61,4.889-17.685,7.962
		c-2.643,3.906-3.03,8.778-3.883,13.152c1.623-0.468,1.256-2.403,2.615-3.345c0.156,0.263-0.943,1.933-0.729,2.828
		c1.56-1.413,1.306-3.871,3.186-5.283c0.108,1.831-1.626,3.969-1.515,6.011c1.779-2.141,1.413-5.857,3.764-7.53
		c0.058,2.253-1.515,4.916-1.462,7.319c1.725-2.094,1.684-5.8,2.614-7.886l1.144-0.58c-0.391,2.466-1.099,4.984-1.437,7.303
		l0.441-0.17l1.915-7.426c0.308-0.229,0.976-0.438,1.478-0.569l-1.746,7.7c-1.684,0.807-3.89,1.839-5.768,3.147
		c-6.591,0.055-13.704-0.522-19.555-2.458c-1.597-0.539-1.688-1.79-0.81-2.935c1.486-1.943,5.043-2.906,6.093-3.446v0.736
		c-2.142,0.937-4.598,1.41-6.011,3.603l0.363,0.372c1.729-1.256,3.553-2.458,5.648-3.038c-0.264,1.048-3.401,2.264-3.694,2.466
		c-0.292,0.2-0.515,0.441-0.439,0.939c1.411,0.205,3.244-1.369,4.701,0c-0.358,2.083,4.056,2.148,4.583,2.197
		c1.675,0.159,3.774,0.69,4.049-1.42c0.207-3.085,0.988-6.422,1.882-9.408c1.331-3.934,4.334-5.857,7.765-7.265
		c14.273-5.888,39.097-11.657,60.923-11.557c0.42-0.416,0.523-2.135,0.209-2.663c-24.721-0.071-50.138,7.424-61.281,11.666
		c-5.908,2.25-8.402,4.383-9.839,10.558c-0.734,3.156-1.191,6.92-1.907,7.729c0.264-1.724,0.749-4.606,0.728-6.793l-0.65,0.306
		l-0.814,7.011h-0.783c0.268-2.352,0.84-4.81,0.783-7.108l-0.565,0.027l-0.954,6.925h-0.572c-0.203-2.297,0.316-4.752,0.946-6.952
		l-0.892-0.138l-0.993,6.723c-0.992-1.88-0.049-4.968,0.209-6.999c-0.328,0-0.502,0.137-0.601,0.34
		c-0.172,0.337-0.543,3.366-0.757,4.779c-0.578-2.979,0.572-6.011,2.087-8.469c-0.203-0.835-0.885-1.673-1.668-2.092
		c2.038-2.564,0.465-6.591,2.825-9.044c2.605-3.011,5.747-4.875,9.118-6.238c9.275-3.752,33.082-8.512,41.094-9.763
		c16.937-2.661,34.116-4.539,50.989-6.009c-1.411,4.237-2.514,9.569-2.979,13.91c-2.355,1.345-6.954,3.636-9.398,6.95
		c-0.754,1.013,0.407,1.91,1.811,1.084c15.03-8.847,38.878-15.304,48.888-17.063c10.473-1.851,21.079-3.389,32.037-4.073
		c-0.197,2.253-0.991,4.213-0.731,6.518c0.271,1.297,1.013,1.445,1.131,0.17c0.104-1.202,0.815-5.984,1.177-6.762
		c16.735-1.839,32.157-2.271,47.904-1.951c9.293,0.188,27.243,1.095,37.142,3.436c0.985,0.232,1.21-0.854,0.252-1.07
		c-7.533-1.694-28.016-3.698-42.736-3.528c-1.093,0.003-32.658,0.769-42.014,2.044c0.607-1.054,1.74-1.478,2.888-1.579
		c1.297-0.117,22.59-1.517,32.942-1.245c0.14-0.818-0.244-0.991-0.937-1.136c-1.604-0.315-23.157-0.859-33.284,0.155
		c0.334-0.949,1.368-1.872,0.536-3.043c-0.689-0.978-0.689-2.01,0.126-2.587c1.078,1.905,4.938,2.841,5.962,1.831
		c0.331-0.328,0.618-0.654,1.095-0.367c0.525,0.323,1.615,0.159,2.625-1.113c0.654-0.832,1.292-1.681,2.707-1.292
		c-0.099,2.499-6.515,4.836-9.285,4.321l-2.373-0.399l0.364,1.152c5.699,0.726,11.921,0.05,15.996-3.764
		c7.052-0.887,39.865-2.739,58.386,1.714c5.531,1.324,13.877,4.029,15.219,8.056c-18.788-5.097-47.814-6.014-54.75-4.878
		c-1.363,0.229-1.634,1.133,0.399,1.284c3.235,0.249,8.869-0.159,10.149-0.102c16.977,0.698,33.033,1.81,48.695,7.098
		c1.038,3.243,0.58,6.963,0.23,8.335c-0.903,3.558-6.096,2.997-6.816,7.086c-0.292,1.139-0.525,2.349-1.877,2.658
		c-4.922-0.884-10.618-0.416-14.483,2.983c-2.197,2.144-0.424,6.118-1.519,8.469c-1.09-1.152-1.046-3.503-0.733-5.646
		c-0.206-0.104-0.37-0.225-0.575-0.367c-0.211,1.152-0.396,1.82-0.364,2.828c-1.869-4.585-3.501-10.12-6.928-13.913
		c-3.641-4.024-10.149-5.212-15.692-4.963c-0.436,0.021-0.498-0.115-0.074-0.175c1.413-0.225,2.962-0.438,3.307-1.651
		c-2.151-1.935-11.091-0.944-11.091-0.944c-32.992-1.064-73.977,3.841-88.987,7.848c-2.376,0.624-20.473,6.061-26.954,8.724
		c0.137-1.517,0.351-3.446,0.61-5.045c0.283-1.732-1.037-1.85-1.717-0.032c-0.708,1.907-0.433,4.256-0.984,6.024
		c-4.133,1.514-8.051,3.443-11.819,5.795c-1.04-0.885-2.766-0.572-3.758-0.942c1.392-1.724,3.792-1.069,5.558-1.959
		c1.343-0.688,1.523-1.919,0.31-2.549c-0.791-0.408-1.784-0.26-2.681-0.563c0.713-0.849,3.071-0.638,3.907-1.415
		c0.869-0.8-0.334-2.352-1.083-2.716c0.14-1.896,1.412-4.021,0.806-5.844c-0.675-2.056-7.125-2.663-11.498-2.318
		c-0.111,0.501,0.062,2.559,0.062,2.559c2.091-0.068,8.395,0.397,9.152,1.761c0.72,1.324-0.91,2.893-0.775,4.429
		c-0.254,0.202-0.439,0.334-0.781,0.572c-0.63-1.158,0.812-2.833,0-3.772c-1.515-1.514-4.129-1.04-6.011-1.139
		c-0.172,0.665-0.033,1.448,0.1,2.149c1.054,0.164,1.757,0.073,2.387,0.325c1.742,0.712,1.783,3.774-1.638,5.409
		c-1.918,0.922-4.051,1.215-5.759,2.671c0.47,0.942,1.778,0.469,2.458,1.101c-1.413,0.729-3.735,0.575-4.912,1.21
		c0.498,0.181,0.774,0.342,1.148,0.509c0.1,1.109,0.779,3.293-0.58,3.767h-0.728c-0.053-1.464-0.107-2.762-0.211-4.338h-0.365v4.338
		c-0.235-0.003-0.457-0.019-0.729,0.523c0.519,0.626,0.625,0.993,0.576,1.883l-0.946,0.938c1.099,0.364,0.732,1.52,0.523,2.305
		c-0.334,0.192-0.943,0.515-1.644,0.704c-0.066,0.635,0.502,0.67,1.281,0.703l6.858,0.17c0.207,2.352,0.771,4.38,2.396,6.102
		l-3.038-0.156c1.581-1.114,0.642-4.06-1.532-4.664c-2.421-0.674-14.495-0.882-20.25-0.78l-0.433,0.741
		c2.828,0.89,5.443,0.816,8.233,0.759c3.083-0.058,10.028,0.394,12.465,2.066c-0.988,0.991-2.787,1.204-4.701,0.934
		c-6.22-0.882-11.606-1.93-17.669-3.235c0.313-0.214,0.445-0.816,0.392-1.232c-5.213,0.039-12.285,0.071-18.958,0.307
		C69.757,207.611,55.019,209.295,52.668,212.383z M79.699,205.08c1.099-1.309,0.91-5.801,1.058-8.163l2.446-0.155
		c-0.42,2.972-0.684,6.002-0.58,9.246c-1.829,0.101-3.578,0.131-6.011,0.156l0.939-9.044l2.503-0.153
		C80.053,200.098,79.385,202.148,79.699,205.08z M76.072,206.188l-2.47,0.052l0.918-8.701c0.642-0.071,1.515-0.156,2.248-0.211
		L76.072,206.188z M72.791,206.24l-2.569,0.153l0.901-8.488c0.832-0.104,1.726-0.263,2.659-0.211L72.791,206.24z M69.604,206.533
		l-2.255,0.058l0.791-8.11c0.617-0.156,1.477-0.313,2.251-0.413L69.604,206.533z M66.414,206.738l-2.194,0.104l1.099-7.998
		l2.042-0.364C66.94,202.058,66.883,203.708,66.414,206.738z M63.461,206.892l-1.864,0.255c0.42-2.716,1.009-5.344,1.568-7.711
		l1.581-0.433L63.461,206.892z M60.894,207.245l-1.915,0.363l1.429-7.456c0.464-0.21,1.12-0.468,1.646-0.468
		C61.948,202.405,61.05,204.792,60.894,207.245z M58.13,207.921l-1.7,0.49l1.725-7.687c0.523-0.156,0.972-0.284,1.515-0.361
		L58.13,207.921z M86.355,205.43l0.396-8.668c0.765-0.153,1.675-0.107,2.453-0.165l-0.572,9.2l-5.277,0.211l0.428-9.197
		c0.523-0.099,1.564-0.099,2.219-0.099c-0.152,3.244-0.041,5.745-0.25,8.718H86.355z M89.369,205.797
		c0.205-3.143,0.415-6.479,0.572-9.408l2.313-0.027c-0.103,3.274-0.457,6.249-0.588,9.436H89.369z M101.595,205.797h-2.61
		l0.939-9.771h2.247L101.595,205.797z M102.954,196.025l2.247-0.151l-0.572,9.923h-2.458L102.954,196.025z M98.15,205.783
		l-2.355,0.014c0.14-3.285,0.597-6.314,0.728-9.621c0.824-0.017,1.73-0.017,2.462-0.033C98.809,199.436,98.352,202.4,98.15,205.783z
		 M95.008,205.797c0,0-1.749-0.014-2.602-0.014l0.565-9.607h2.824L95.008,205.797z M288.686,192.989
		c0.744,0.507,0.985,1.166,1.019,1.886c0.063,1.202-0.109,2.54-0.077,3.764l-1.309,0.206
		C288.308,196.736,288.91,195.195,288.686,192.989z M270.809,187.917c0.419,0.058,0.934,0.022,1.316,0.022
		C272.202,188.971,270.784,188.895,270.809,187.917z M270.962,189.803h0.786C271.991,190.397,270.962,191.413,270.962,189.803z
		 M270.809,186.771v-0.528h1.667v0.528H270.809z M270.604,185.098v-0.58c0.559-0.033,1.319-0.058,1.851-0.008l0.021,0.588H270.604z
		 M272.12,183.212v0.58c-0.677-0.017-1.158,0.099-1.79-0.317C270.904,183.113,271.419,183.201,272.12,183.212z M269.503,182.065
		l2.4,0.213C271.772,182.796,270.023,182.694,269.503,182.065z M256.818,177.86c-8.384,0.457-18.673,1.331-21.764,6.868
		c-0.571,0.106-0.791-0.047-0.946-0.572c2.313-6.764,16.563-7.172,22.74-7.527l1.52-1.519c0,0-13.864-0.263-19.626-0.688
		c-0.466-0.032-1.002-0.657-0.575-0.673c6-0.17,15.51,0.363,21.346,0.427c-0.674,1.478,0,2.244,0,2.244
		c13.582-0.184,17.89,2.004,21.738,9.739c2.095,4.207,3.29,8.756,5.195,13.051l-1.521,0.941c-1.73-6.41-4.057-13.108-8.272-18.583
		C274.162,178.326,265.638,177.379,256.818,177.86z M249.324,191.109c1.046-0.564,2.403-0.89,3.607-1.307
		c-0.348,6.575,11.136,5.743,10.928-0.369c0.561,0.033,2.104,0.099,2.616,0.159C266.306,198.771,250.616,200.145,249.324,191.109z
		 M255.971,200.796l-1.002-0.071l0.416-1.306C256.32,199.531,256.068,200.273,255.971,200.796z M253.849,200.544
		c-0.682-0.164-0.369-1.054,0-1.363l0.548,0.178C254.448,199.991,254.317,200.175,253.849,200.544z M252.855,198.945
		c-0.205,0.323-0.317,0.638-0.569,0.944c-0.498-0.041-0.487-0.985-0.132-1.313C252.218,198.526,252.65,198.789,252.855,198.945z
		 M251.621,198.275c-0.211,0.309-0.315,0.629-0.572,0.936c-0.493-0.041-0.487-0.993-0.126-1.313
		C250.978,197.843,251.41,198.11,251.621,198.275z M245.191,185.67l-0.017-1.313l1.33-0.564L245.191,185.67z M245.558,195.081
		c-0.635-0.742-0.938-1.987-0.938-3.187C246.083,192.116,245.728,194.139,245.558,195.081z M247.288,192.833
		c-0.061,0.361-0.597,0.824-0.903,1.057l-0.255-0.607C246.499,193.077,246.71,192.678,247.288,192.833z M247.441,193.934
		c0.167,0.061,0.229,0.232,0.186,0.372c-0.027,0.088-0.867,0.914-0.867,0.914l-0.255-0.506
		C246.74,194.339,247.074,193.983,247.441,193.934z M248.224,194.875c0.375,0.654-0.435,1.322-0.684,1.635l-0.466-0.484
		C247.288,195.554,247.756,195.081,248.224,194.875z M248.958,196.025l0.377,0.336c-0.501,0.685-0.706,0.852-1.111,1.128
		C248.019,196.762,248.435,196.438,248.958,196.025z M249.74,196.762l0.827,0.706c-0.405,0.448-0.723,1.171-1.402,0.6
		C248.752,197.694,249.259,197.243,249.74,196.762z M264.951,183.212l0.785,0.736c-1.1,0.008-4.836,0.008-7.368,0.208l0.422,0.55
		c-0.252,0.104-0.46,0.261-0.709,0.305c-0.206-0.354-0.288-0.646-0.441-0.854l-5.49,0.208c0.515-0.533,1.154-0.728,1.848-0.788
		C255.19,183.483,264.951,183.212,264.951,183.212z M254.969,182.851c3.498-2.104,6.334-1.313,8.674-0.364
		C260.72,182.533,257.779,182.495,254.969,182.851z M265.736,184.729c-0.041,1.193-1.757,0.846-2.094,0.574l-0.014-0.541
		C264.236,184.811,265.003,184.78,265.736,184.729z M259.671,192.262v0.571c-5.168,1.216-6.685-3.232-3.184-6.216
		C256.487,186.617,252.855,192.94,259.671,192.262z M256.849,188.284c0.734-0.802,2.357-1.514,3.605-0.572
		C259.359,188.18,257.928,188.396,256.849,188.284z M258.212,191.476h-1.152l0.733-0.522L258.212,191.476z M259.513,190.162
		c0.389-0.359,0.791-0.569,1.308-0.569C260.982,190.953,260.049,190.762,259.513,190.162z M254.81,185.303
		c-0.991,0.479-2.715,0.63-3.969,0.523l0.208-0.729C252.437,184.967,254.049,184.811,254.81,185.303z M253.507,186.403
		c-0.159,2.037-2.885,0.679-3.038,0.214L253.507,186.403z M263.859,187.559c-0.083,1.388-1.73,3.551-1.73,3.551
		c0.438-1.807,0.832-3.307-0.937-4.867c1.199-0.31,2.133,1.541,3.033,0h5.064c0.038,0.229,0.087,0.536,0.087,0.742
		C267.549,187.033,265.748,186.88,263.859,187.559z M266.679,184.156c0.366-0.572,0.684-1.36,1.461-0.944
		c0.789,0.58,0.947,1.363,0.947,2.253h-1.309C267.609,184.762,267.207,184.356,266.679,184.156z M239.914,184.156
		c0.155-0.465,1.054-0.788,1.626-0.682l0.257,0.682H239.914z M241.644,184.887c-0.126,0.326-0.214,0.523-0.367,0.783l-3.038-0.205
		C238.868,184.419,240.505,184.786,241.644,184.887z M234.68,204.858l0.528-0.575C235.364,204.645,235.055,205.014,234.68,204.858z
		 M235.055,205.797v0.736h-0.571C234.483,206.216,234.845,206.06,235.055,205.797z M233.166,206.738l-0.172-0.893l0.753,0.162
		L233.166,206.738z M233.747,207.683v0.729c-0.677,0.197-1.152-0.469-0.419-0.729H233.747z M230.996,185.5
		c-0.044,0.61,1.391,2.631,1.391,2.631c-2.042,6.216-5.746,19.297-5.814,19.437c-0.481,1.057-1.524,1.486-2.441,2.357
		c2.772-4.021,6.498-18.153,7.051-20.039c0.733-2.491-0.837-2.754-0.849-4.585c-0.011-2.76,3.381-5.341,4.347-5.275
		C232.923,181.441,231.149,183.262,230.996,185.5z M232.233,209.353v0.422h-0.367v-0.422H232.233z M231.078,207.311h-0.572
		c-0.052-0.313,0.26-0.364,0.419-0.572C231.138,206.843,231.078,207.103,231.078,207.311z M229.942,208.663l-0.742,0.325
		l0.208-0.577L229.942,208.663z M116.56,204.979l-0.066,0.607l-2.664-0.156L116.56,204.979z M114.283,203.87l1.317,0.503
		l-1.161,0.305L114.283,203.87z M113.674,202.764l0.365-0.358c2.265,0.052,4.652-0.164,6.95,0.566
		c-0.404,0.244-0.993,0.531-1.515,0.736C117.564,203.517,115.135,204.229,113.674,202.764z M113.463,197.905
		c0.63-0.104,1.359,0.263,1.31,0.939c0.021,0.539-0.84,0.263-1.31,0.366V197.905z M113.748,195.866
		c0.115-0.044,1.075-0.156,1.23,0.159c0.103,0.941-0.794,0.736-1.515,0.736C113.381,196.402,113.377,196.017,113.748,195.866z
		 M122.874,197.328c-1.884,0.627-4.029,0.421-6.225,0.211C118.671,196.762,120.887,196.542,122.874,197.328z M118.956,192.623
		c2.001-0.901,4.281-1.355,6.578-0.729C123.554,192.678,120.586,192.896,118.956,192.623z M121.355,199.419
		c-0.617,0.671-1.066,1.07-1.675,0.944c0.16-0.421,0.478-0.679,0.738-0.944H121.355z M120.046,205.068
		c0.371,0.261-0.219,1.374,0.371,1.67c0.527-0.955,1.304-2.349,2.667-3.03c-1.486,1.928-2.405,3.29-3.19,5.28
		C119.059,207.942,119.737,206.265,120.046,205.068z M136.411,196.967c0.781,0.522,1.773,0.484,2.194,1.473
		c1.876-0.862-0.738-2.149,0.103-2.631c8.074-4.029,29.138-9.843,31.563-10.456c20.285-5.089,40.979-7.776,63.058-9.355
		c0.448-0.033,0.481,0.076,0,0.164c-7.817,1.47-22.804,3.254-24.036,3.372c-16.836,1.593-48.832,11.031-59.374,14.765
		c-5.693,2.006-11.231,4.391-16.299,7.875c-4.441,3.052-3.619,5.839-1.325,7.289c2.745,1.728,6.672,1.357,9.604,1.612
		c1.099,1.412,0.099,1.787-1.72,1.886c-5.698,0.05-12.392,1.098-17.884-1.886C122.558,203.755,130.771,199.791,136.411,196.967z
		 M129.869,197.268c-2.577,1.407-4.228,2.83-6.784,4.035c3.955-3.739,9.002-6.208,13.326-7.943
		c-0.445,0.632-0.836,1.354-0.939,2.088c-4.08,2.146-7.95,3.764-11.448,7.316c0.299-1.313,3.692-3.788,6.042-5.088
		C130.47,197.319,130.372,197.065,129.869,197.268z M137.963,194.175c0.263-1.292,0.88-1.872,1.61-2.231
		c4.054-1.976,24.428-8.529,28.178-9.457c18.65-4.623,43.586-7.264,61.006-8.636c3.044-0.243,2.98,0.334,0,0.627
		c-18.071,1.784-41.798,4.412-60.483,9.34C165.651,184.51,145.233,190.564,137.963,194.175z M142.404,208.525
		c2.54-0.09,4.804,0.23,4.565,2.705h-0.728c0.452-1.807-2.204-2.458-3.805-2.428C141.898,208.811,141.853,208.539,142.404,208.525z
		 M145.492,212.456c8-0.254,17.261-0.421,25.833-0.386c5.089,0.022,4.824,0.644-0.181,0.835c-5.603,0.252-17.793,0.662-25.475,0.293
		C145.035,213.165,144.916,212.47,145.492,212.456z M151.408,209.793c-2.142-0.167-4.071-0.881-5.381-3.055
		c-2.557-0.679-5.38-0.205-8.102-1.152c0.498-2.192,6.648-4.3,9.613-5.513c10.448-4.268,20.397-8.277,31.637-10.64v-0.783
		c-6.665,0.926-13.017,3.523-19.633,5.141c-0.494,0.123-0.584-0.134-0.127-0.295c15.561-5.582,37.618-11.234,50.384-12.099
		c3.594-0.247,17.759-2.066,20.737-2.853c0.017,1.262-0.873,2.567-1.588,3.692c-1.242,1.971-1.379,4.333,0.252,5.475
		c-1.149,6.896-2.666,13.634-5.28,19.971c-2.195,2.45-16.88,1.314-21.079,1.407C197.662,209.205,154.158,210.025,151.408,209.793z
		 M111.216,201.458v-0.733h1.308L111.216,201.458z M110.845,204.858l0.16-1.314C112.625,203.394,112.365,205.274,110.845,204.858z
		 M56.064,212.591v-0.575c9.958-3.32,25.533-3.181,30.493-2.642c6.921,0.75,13.293,2.883,19.954,3.742
		C106.511,213.116,61.712,213.59,56.064,212.591z M97.314,216.814c0.806-0.682,1.441-1.779,2.585-1.694
		C99.266,215.925,98.503,217.068,97.314,216.814z M99.137,216.814c0.808-0.723,1.479-1.779,2.624-1.694
		C101.208,215.752,100.389,217.061,99.137,216.814z M101.558,216.655c0.894-0.755,1.593-1.971,2.87-1.88
		C103.723,215.664,102.872,216.932,101.558,216.655z M103.58,216.655c0.894-0.797,1.65-1.971,2.919-1.88
		C105.88,215.479,104.976,216.929,103.58,216.655z M105.931,216.707c0.992-0.837,1.778-2.195,3.186-2.088
		C108.338,215.607,107.395,217.02,105.931,216.707z M108.182,216.707c0.988-0.887,1.829-2.195,3.239-2.088
		C110.739,215.396,109.73,217.014,108.182,216.707z M110.64,216.719c0.996-0.832,1.774-2.195,3.19-2.086
		C113.043,215.623,112.106,217.036,110.64,216.719z M112.887,216.719c0.992-0.885,1.829-2.195,3.24-2.086
		C115.444,215.413,114.439,217.027,112.887,216.719z M115.189,216.719c0.991-0.885,1.987-2.557,3.342-2.086
		C117.695,215.623,116.914,217.094,115.189,216.719z M117.708,216.563c0.992-0.89,1.829-2.195,3.245-2.089
		C120.268,215.257,119.255,216.872,117.708,216.563z M119.989,216.57c0.728-0.897,1.458-1.667,2.725-1.573
		C122.459,215.82,121.379,216.85,119.989,216.57z M122.327,216.798c0.733-0.897,1.458-1.673,2.726-1.574
		C124.793,216.039,123.719,217.077,122.327,216.798z M124.336,216.702c0.601-0.742,1.195-1.371,2.24-1.292
		C126.361,216.081,125.476,216.924,124.336,216.702z M126.456,216.672c0.601-0.744,1.195-1.374,2.236-1.295
		C128.477,216.051,127.592,216.896,126.456,216.672z M128.721,216.587c0.605-0.742,1.198-1.374,2.235-1.292
		C130.747,215.96,129.869,216.814,128.721,216.587z M130.841,216.549c0.597-0.739,1.193-1.366,2.235-1.292
		C132.866,215.928,131.977,216.775,130.841,216.549z M133.611,216.488c0.605-0.744,1.202-1.377,2.239-1.297
		C135.636,215.867,134.755,216.71,133.611,216.488z M135.727,216.45c0.605-0.739,1.199-1.374,2.245-1.292
		C137.752,215.829,136.875,216.683,135.727,216.45z M140.016,216.88h-0.782c0.625-0.887,1.515-1.828,2.664-1.883
		C141.762,215.568,140.906,216.22,140.016,216.88z M141.539,216.88c0.833-0.955,1.64-2.39,3.303-2.22
		C143.985,215.802,143.228,217.027,141.539,216.88z M143.993,216.863c0.836-0.963,1.643-2.384,3.307-2.22
		C146.447,215.788,145.685,217.014,143.993,216.863z M146.554,216.775c0.754-0.859,1.482-2.148,2.977-1.995
		C148.76,215.81,148.077,216.913,146.554,216.775z M151.872,214.78c-0.765,1.029-1.448,2.133-2.975,1.995
		C149.654,215.916,150.379,214.627,151.872,214.78z M150.984,216.74c0.753-0.865,1.482-2.151,2.979-2.001
		C153.19,215.776,152.507,216.874,150.984,216.74z M153.334,216.59c0.758-0.859,1.486-2.148,2.981-1.995
		C155.55,215.623,154.861,216.727,153.334,216.59z M158.658,214.595c-0.762,1.028-1.449,2.132-2.973,1.995
		C156.438,215.73,157.167,214.441,158.658,214.595z M157.768,216.554c0.757-0.859,1.482-2.146,2.977-1.998
		C159.975,215.591,159.292,216.691,157.768,216.554z M160.024,216.614c0.754-0.862,1.482-2.144,2.977-1.995
		C162.23,215.648,161.547,216.751,160.024,216.614z M165.342,214.619c-0.765,1.029-1.448,2.129-2.971,1.995
		C163.12,215.747,163.853,214.457,165.342,214.619z M164.454,216.57c0.749-0.856,1.482-2.146,2.977-1.998
		C166.664,215.607,165.977,216.71,164.454,216.57z M166.775,216.516c0.754-0.862,1.482-2.148,2.977-2.001
		C168.982,215.553,168.298,216.647,166.775,216.516z M172.099,214.515c-0.775,1.029-1.454,2.133-2.977,2.001
		C169.871,215.653,170.604,214.367,172.099,214.515z M171.205,216.48c0.753-0.865,1.479-2.154,2.973-1.998
		C173.416,215.512,172.729,216.614,171.205,216.48z M173.584,216.467c0.75-0.859,1.482-2.149,2.977-1.996
		C175.788,215.5,175.107,216.604,173.584,216.467z M178.903,214.471c-0.769,1.029-1.449,2.133-2.977,1.996
		C176.684,215.607,177.409,214.317,178.903,214.471z M178.014,216.431c0.75-0.862,1.479-2.154,2.973-1.998
		C180.221,215.459,179.533,216.565,178.014,216.431z M180.303,216.426c0.755-0.857,1.486-2.149,2.978-1.996
		C182.509,215.459,181.835,216.563,180.303,216.426z M185.626,214.425c-0.769,1.034-1.447,2.138-2.98,1.998
		C183.401,215.561,184.132,214.276,185.626,214.425z M184.736,216.385c0.75-0.859,1.479-2.149,2.973-1.996
		C186.943,215.418,186.256,216.521,184.736,216.385z M190.039,214.471c-0.726,0.972-1.377,2.026-2.822,1.895
		C187.929,215.544,188.618,214.323,190.039,214.471z M189.193,216.332c0.714-0.82,1.406-2.047,2.824-1.899
		C191.29,215.404,190.644,216.458,189.193,216.332z M191.372,216.327c0.717-0.818,1.409-2.042,2.83-1.897
		C193.469,215.404,192.817,216.458,191.372,216.327z M196.425,214.425c-0.733,0.979-1.38,2.033-2.83,1.902
		C194.312,215.509,195.004,214.282,196.425,214.425z M195.582,216.291c0.711-0.823,1.401-2.042,2.824-1.902
		C197.676,215.369,197.027,216.417,195.582,216.291z M198.292,216.341c0.717-0.824,1.409-2.042,2.83-1.899
		C200.394,215.418,199.736,216.467,198.292,216.341z M200.273,216.308c0.717-0.821,1.407-2.042,2.824-1.899
		C202.373,215.386,201.724,216.431,200.273,216.308z M202.452,216.303c0.717-0.824,1.401-2.037,2.827-1.895
		C204.546,215.386,203.897,216.431,202.452,216.303z M207.505,214.405c-0.729,0.98-1.382,2.025-2.83,1.897
		C205.395,215.479,206.087,214.258,207.505,214.405z M206.656,216.267c0.723-0.821,1.41-2.042,2.83-1.899
		C208.759,215.347,208.102,216.398,206.656,216.267z M211.252,214.953c-0.58,0.785-1.103,1.617-2.264,1.521
		C209.563,215.813,210.122,214.841,211.252,214.953z M210.576,216.441c0.575-0.653,1.128-1.628,2.261-1.519
		C212.257,215.697,211.731,216.546,210.576,216.441z M212.322,216.439c0.569-0.651,1.122-1.626,2.261-1.517
		C213.998,215.697,213.472,216.546,212.322,216.439z M216.362,214.923c-0.586,0.774-1.1,1.623-2.261,1.517
		C214.674,215.788,215.224,214.813,216.362,214.923z M215.687,216.409c0.572-0.657,1.125-1.629,2.258-1.514
		C217.361,215.673,216.845,216.516,215.687,216.409z M235.651,212.911c-3.966,0.501-24.451,0.295-33.725,0.049
		c-2.311-0.079-2.113-0.227-0.027-0.235c7.311-0.024,18.761-0.184,27.137-0.547c2.091,0.389,4.391,0.556,6.574,0.489
		C236.054,212.648,236.278,212.831,235.651,212.911z M237.11,209.213l0.554-0.597l0.755,0.296L237.11,209.213z M236.602,207.146
		l0.413-0.354l0.649,0.89l-0.351,0.425L236.602,207.146z M239.186,213.327c-0.112-0.263-0.211-0.58-0.211-0.944
		c2.62,0.005,6.217-0.258,8.313,0.944H239.186z M248.043,210.565c-15.257-6.638-14.762-20.303-10.53-24.323
		c1.043,0.317,2.401,0.112,3.551,0.161c-3.386,9.862,2.852,18.233,13.149,20.048c4.807,0.849,11.311-0.384,15.811-6.088
		c-0.603-0.659-1.221-0.355-1.878,0.148c-5.121,3.902-12.187,5.663-19.659,1.333c-4.062-2.347-6.969-6.036-5.868-11.696
		c0.038-0.181,0.662,0.12,0.641,0.257c-0.402,4.284,2.326,8.13,5.354,9.772c4.568,2.477,16.747,5.112,20.891-4.73l-0.574-0.572
		c-2.825,4.73-8.511,6.909-11.869,5.488c0.301-0.741,1.046-0.944,2.116-0.881c3.78,0.222,8.061-4.175,10.327-9.32
		c0.31,0.53,0.364,1.62,1.306,1.886c2.245-0.838,2.768-3.397,2.981-5.645l0.848,0.041c-0.421,4.7-1.16,9.422-4.771,12.767
		c0.211,0.314,0.577,0.416,0.941,0.37c3.764-3.405,5.332-8.105,5.645-13.178c1.623,2.672,2.822,5.62,3.769,8.472
		C276.305,209.96,259.487,215.536,248.043,210.565z M271.54,212.96l0.002-0.438c4.306-0.534,8.609-0.671,12.441-1.081l1.303,1.306
		L271.54,212.96z M287.536,208.411c-0.313,0.424-0.575,0.785-0.939,1.149C286.387,209.196,286.961,207.942,287.536,208.411z
		 M287.169,210.291c0.523-0.517,0.996-1.617,1.886-2.036c0.332,0.733-0.7,1.588-1.313,2.247L287.169,210.291z M288.538,210.927
		c0.99-0.885,1.352-2.62,2.759-2.516C290.306,209.353,289.791,211.194,288.538,210.927z M289.783,211.23
		c1.514-1.196,2.091-2.658,3.764-2.976c-0.676,1.207-2.138,2.874-3.187,3.187L289.783,211.23z M292.085,211.441
		c1.046-1.093,2.141-3.03,3.548-3.187l-2.614,3.187H292.085z M293.966,211.441l2.822-3.187h0.944
		C296.58,209.196,295.852,211.441,293.966,211.441z M296.005,211.441l3.033-3.392h0.941l-2.825,3.392H296.005z M298.096,211.441
		l3.189-3.392l0.911,0.008C300.894,209.147,300.138,211.704,298.096,211.441z M300.138,211.441c1.514-1.15,2.508-3.446,4.544-3.392
		C303.48,209.145,301.967,212.016,300.138,211.441z M302.596,211.441c1.147-1.046,2.344-2.614,3.762-3.392
		c-0.206,1.146-1.621,2.241-2.464,3.392H302.596z M304.841,211.441c1.043-1.15,2.354-3.08,3.761-3.187
		C307.61,209.353,306.773,211.704,304.841,211.441z M307.14,211.23l2.611-2.976c0.471,0.156,0.566,0.354,0.315,0.63
		c-0.633,0.791-1.391,1.538-1.99,2.346H307.14z M309.021,211.074c0.665-0.75,1.421-1.987,2.4-2.247
		C310.852,209.667,310.381,211.23,309.021,211.074z M314.459,209.925l-1.886,0.788c0.994-1.582-0.117-2.663-2.352-2.956
		c-4.943-0.676-24.936-0.446-24.936-0.446c-0.731-1.514-0.313-3.498,1.16-4.547c4.424-3.068,19.856-3.279,24.094-1.303
		c2.791,1.306,0.372,2.573-0.947,2.898c-3.326,0.818-6.496,0.876-10.193,1.07c0.029,0.61-0.022,0.304,0.029,0.857
		c5.948,0.205,10.689,0.506,15.967-0.123c0.63-0.156,1.073,0.123,1.309,0.782C317.123,208.411,315.608,209.366,314.459,209.925z
		 M313.518,204.283c0.307-0.422,0.052-1.467,0.941-1.312c0.695,0.115-0.058,1.096-0.372,1.312H313.518z M316.551,203.339
		c-0.148-0.509,0.021-0.882,0.351-1.202c0.571-0.561,2.633-2.194,2.633-2.194C319.844,201.253,317.44,202.299,316.551,203.339z
		 M319.736,201.825c0,1.568-1.724,2.036-2.666,3.033l-0.366-0.367L319.736,201.825z M316.704,211.646
		c0.785-0.882,1.309-1.872,2.458-2.086C318.948,210.812,317.541,210.921,316.704,211.646z M318.587,207.311
		c-0.208-0.777,0.679-1.251,1.149-1.514C319.682,206.427,319.217,207.048,318.587,207.311z M318.013,205.586
		c0.07-0.761,0.87-1.283,1.521-1.667l0.358,0.572C319.477,204.962,318.642,205.797,318.013,205.586z M322.2,195.888
		c-1.177,0.874-2.71,1.243-2.666,2.957c-1.316,0.996-2.713,2.102-3.931,2.98l-0.416-0.367c1.418-1.412,3.603-2.63,4.347-4.13
		c-1.855-0.72-5.285-2.434-5.945-0.671l-1.016,2.924l-0.934-0.162c1.049-1.902,1.199-3.709,0.723-5.485
		c2.513-0.158,5.283,0.208,7.53,1.147c-0.156,0.317-0.73,0.473-0.528,0.944c0.203,0.369,0.395,0.418,0.592,0.339
		c0.317-0.131,2.288-1.283,2.025-2.066c-2.874-1.884-6.323-2.458-9.98-2.403c-0.219-0.58-0.276-1.388-0.156-1.732
		c0.313-0.671,1.202-0.099,1.462-0.937c0.337-1.491-2.822-0.522-3.764-2.036c2.097-0.263,5.157,0.194,6.433,1.667
		c0.443,1.149-2.929,1.412-3.402,2.46c3.32-0.281,6.72,0.523,9.085,1.673C322.956,193.627,323.993,194.563,322.2,195.888z
		 M315.031,200.52c0.188-0.454,0.44-1.691,0.906-1.993c0.187-0.114,1.133,0.318,1.133,0.318L315.031,200.52z"/>
	<path d="M44.204,187.343c0.697-1.101,0.762-2.359-0.275-2.344c-0.857,0.012-2.153,0.885-2.977,2.165
		c-1.531,2.368-0.358,4.418,1.05,2.809c0.226-0.257,0.478-0.52,0.89-0.539c0.304,0.017,0.474,0.263,0.365,0.575l1.363,0.153
		c0.309-0.359,1.152-1.492,1.169-1.667C45.842,187.767,44.962,187.302,44.204,187.343z M41.585,189.075h-0.367
		c0.157-1.309,1.047-2.57,2.249-3.044C44.146,187.189,42.471,188.339,41.585,189.075z"/>
	<path d="M152.852,159.133c1.689-0.14,50.78-4.511,50.78-4.511c5.762-0.569,7.122-1.33,5.806-5.857
		c-2.354-4.073-6.378-5.957-10.506-7.317c-9.041-0.443-17.14-0.624-25.553,0.104c-13,1.131-32.805,5.091-52.542,14.589
		c-2.416,1.142-7.217,3.499-4.709,6.586C128.247,161.714,140.688,160.143,152.852,159.133z M154.499,146.878
		c3.528-0.659,5.88-1.013,5.97-1.045c6.372-2.614,31.514-4.861,42.963,0.112c1.659,0.802,3.86,2.354,3.554,4.705
		c-1.774,2.408-4.987,2.395-8.508,2.704c-12.952,1.155-74.466,6.849-80.885,7.278C122.829,154.551,144.133,148.806,154.499,146.878z
		"/>
	<path d="M158.209,147.19c-13.511,2.171-26.265,6.008-38.163,12.137v0.369c7.687-1.154,16.418-1.467,24.103-2.622
		c4.352-3.856,9.021-7.713,14.306-9.615C158.822,147.327,158.711,147.1,158.209,147.19z M129.461,157.074
		c0.024-0.372,0.256-0.566,0.572-0.78C130.454,156.401,129.828,157.182,129.461,157.074z M130.4,157.074
		c0.054-0.518,0.424-1.029,0.786-1.357C131.626,155.799,130.976,157.074,130.4,157.074z M131.548,156.866
		c0.264-0.52,0.367-1.517,1.095-1.517C132.385,155.878,132.286,156.866,131.548,156.866z M132.643,156.655
		c0.754-0.481,0.264-1.877,1.52-1.877C133.59,155.35,134.006,156.866,132.643,156.655z M134.163,156.508
		c0.26-0.896,0.416-2.464,1.726-2.256C135.575,155.096,134.999,156.347,134.163,156.508z M135.472,156.294
		c0.884-0.782,0.519-2.39,1.88-2.613C136.987,154.252,136.723,156.294,135.472,156.294z M136.987,156.141
		c0.263-0.941,0.921-2.589,1.304-2.668l-0.687,2.523L136.987,156.141z M138.292,155.928c0.416-1.149,0.679-2.663,1.725-3.191
		l-1.103,3.085L138.292,155.928z M139.444,155.717c0.68-0.996,0.89-2.768,1.882-3.191
		C140.7,153.631,140.594,155.612,139.444,155.717z M140.75,155.563c0.836-1.048,0.625-2.88,1.882-3.399
		C142.058,153.313,141.713,155.339,140.75,155.563z M141.898,155.35c0.679-1.146,0.787-2.923,2.042-3.553
		C143.261,152.949,143.364,155.35,141.898,155.35z M143.413,155.199c0.683-1.363,0.787-3.24,2.042-3.977
		C144.723,152.525,144.776,154.622,143.413,155.199z M145.088,154.044c0.367-1.095,0.734-2.501,1.677-3.032
		C146.884,151.961,145.924,153.473,145.088,154.044z"/>
	<path d="M131.626,196.967c0.701-0.107,0.44-0.994-0.165-0.753C130.775,196.471,130.902,197.073,131.626,196.967z"/>
	<path d="M163.045,146.599c-5.648,2.664-12.35,4.944-16.838,10.484c0.676,0.314,34.689-3.556,50.422-4.919
		c-0.058-2.801,0.293-4.511,0.419-6.95C185.553,143.805,174.281,144.084,163.045,146.599z M150.947,154.778l4.701-2.981
		C154.656,153.365,153.399,155.717,150.947,154.778z M155.228,154.411c0.375-0.632,0.786-1.675,1.725-2.247
		c0.264,0.944-0.757,1.133-0.341,1.864l0.498-0.348c0.082,0.273,0.16,0.522,0.209,0.73H155.228z M157.69,151.436
		c-0.045-0.835,0.361-1.101,0.941-1.157h0.207C158.554,150.781,158.176,151.282,157.69,151.436z M160.147,149.55
		c0.1,0.785-0.732,1.936-1.515,2.827C158.377,151.028,159.74,149.769,160.147,149.55z M158.838,154.044
		c-0.207-1.617,1.503-3.063,1.882-3.972C160.403,151.168,159.987,153.108,158.838,154.044z M161.453,150.65
		c0.35,0.712-1.148,2.614-1.886,3.602C160.193,153.059,160.563,151.748,161.453,150.65z M160.876,153.108l1.148-1.673
		C162.309,152.268,161.819,153.313,160.876,153.108z M161.832,153.606l-0.012-0.293l0.917-0.115l0.024,0.274L161.832,153.606z
		 M163.334,152.377c0.679-0.418,2.247,0,3.029-0.941l-3.603-0.785c0.836-0.104,2.042,0.058,2.45-0.372l-3.549-0.934v-0.37
		c1.882-0.52,3.655-1.253,5.644-1.516l2.821,4.133C168.249,152.427,165.582,153.265,163.334,152.377z M171.226,152.736
		c1.354-0.849-1.581-3.854-2.614-5.488c1.622,0.211,5.009,4.514,5.318,5.296C173.045,152.646,172.193,152.744,171.226,152.736z
		 M176.503,152.268c1.046-1.94,3.607-1.883,5.491-1.256l1.095,0.58C181.644,151.613,177.817,152.213,176.503,152.268z
		 M183.215,149.949c-1.643-1.297-6.386-1.092-8.227,1.063l-1.882-1.878c6.378-0.941,14.088-0.802,20.176-0.369l0.162,1.886
		C192.177,150.848,186.067,152.196,183.215,149.949z M194.706,146.837c-6.449-0.419-14.699-0.474-23.246,0.54l-0.597-0.493
		c6.294-1.117,16.088-1.647,23.892-0.118C194.946,146.808,194.922,146.862,194.706,146.837z"/>
	<path d="M148.274,163.534c9.069-0.818,47.923-4.631,63.876-4.984c0.106,0,0.331-0.521,0.147-0.521
		c-15.654,0.449-55.616,3.641-64.023,5.221C147.448,163.408,147.595,163.592,148.274,163.534z"/>
	<path d="M204.699,151.446c1.514-0.769,1.722-2.6,0.326-3.533c-1.84-1.237-4.875-2.08-5.938-2.335
		c-1.812,0.46-1.103,6.46-1.103,6.46C200.026,152.002,202.806,152.402,204.699,151.446z M204.007,148.765
		c0.153,1.231-1.521,1.152-1.521,1.152C203.152,149.597,203.583,149.345,204.007,148.765z M200.235,146.73h0.58l-1.884,1.462
		C198.981,147.565,199.569,146.823,200.235,146.73z M201.543,147.248l-2.611,2.097C199.452,148.66,200.503,146.985,201.543,147.248z
		 M202.274,147.459l0.58,0.369c-1.152,0.937-2.461,2.244-3.767,2.244L202.274,147.459z M203.432,148.192
		c0.302,0.542-1.467,1.667-2.463,1.88C201.763,149.492,202.537,148.66,203.432,148.192z"/>
	<path d="M203.273,139.926c1.801,0,3.134-1.193,0.325-2.4C200.599,136.241,198.989,139.918,203.273,139.926z M204.365,138.987
		c-0.733,0.418-1.776,0.317-2.608-0.203C201.341,137.777,203.766,137.854,204.365,138.987z"/>
	<path d="M218.952,171.259c-0.088,0.638,0.515,0.802,0.657,0.797c1.174-0.036,1.511,1.76,3.366,0.235
		c3.273,0.835,0.578-2.54,2.464-3.115c0.835-0.26,1.139-0.726,0.205-1.38c-2.075-1.606-6.648-1.265-7.377,1.309
		C220.238,169.138,219.089,170.229,218.952,171.259z M223.852,171.349h-1.609c-0.181-0.421-0.011-0.588,0.266-0.659
		c0.271-0.074,1.412-0.074,1.412-0.074L223.852,171.349z M222.587,169.888l0.235-0.578l0.729,0.156L222.587,169.888z
		 M220.318,168.166l4.18-0.003v0.238l-4.18-0.025V168.166z M221.306,169.466l-0.032,0.522l-0.701-0.312
		C220.783,169.619,221.021,169.438,221.306,169.466z M221.306,170.777l-0.032,0.571h-1.117
		C220.206,170.665,220.731,170.777,221.306,170.777z"/>
	<path d="M249.631,158.413c-1.133,0.985,0.257,1.79,1.051,1.116C251.84,158.55,250.654,157.529,249.631,158.413z"/>
	<path d="M268.425,172.797c0.219-0.351,0.197-0.761-0.143-1.183c-0.269-0.331-1.062-0.307-1.511,0.208
		C265.734,173.027,267.62,174.089,268.425,172.797z"/>
	<path d="M269.597,174.078c13.85,0.566,26.271,0.167,40.401,0.293c2.094,0.02,2.126-1.404-0.455-1.509
		c-12.355-0.604-35.378,0.422-39.952,0.68C268.939,173.583,268.939,174.054,269.597,174.078z M309.751,173.807
		c-4.357,0.299-15.082,0.066-16.563-0.21C293.525,172.994,310.017,172.994,309.751,173.807z"/>
	<path d="M270.444,192.833h-0.577c-0.364,0.05-0.638,0.526-0.577,0.942h1.154V192.833z"/>
	<path d="M301.49,201.095c0,0-11.507-0.307-14.148,2.083c-0.474,0.424-0.859,0.969-1.114,1.681c4.814,2.351,8.57-3.513,13.383-2.248
		C300.289,202.299,301.233,201.775,301.49,201.095z M290.175,203.81c-1.571,0.452-1.79-0.249-0.235-0.764
		C291.253,202.613,291.652,203.38,290.175,203.81z"/>
	<path d="M286.446,206.164v0.369c3.756,0.26,8.037,0.112,11.649-0.159l-0.284-0.738L286.446,206.164z"/>
	<path d="M302.799,167.591c2.507,1.095-1.773,1.773,0.153,3.024c2.269,1.391,5.809-0.89,8.688-1.306l-0.112-0.632
		c-3.503-1.101-6.808-2.066-10.541-2.773C300.095,167.005,301.898,167.161,302.799,167.591z M309.388,169.104
		c-1.514,0.416-4.032,1.561-6.014,0.726c0.164-0.679,1.847-1.104,1.297-1.656l-0.777-0.744L309.388,169.104z"/>
	<path d="M308.971,201.894c0.22-0.065-0.09-0.501-0.271-0.477c-1.561-0.273-5.496-0.322-6.249-0.322
		c-0.255,0.355-0.402,0.561-0.594,0.938C301.857,202.033,306.801,202.496,308.971,201.894z"/>
	<path d="M303.056,183.22c-0.547,0-0.996,0.433-0.996,0.964s0.449,0.961,0.996,0.961c0.554,0,1.002-0.43,1.002-0.961
		S303.609,183.22,303.056,183.22z"/>
	<path d="M133.244,196.143c0.198,0,0.358-0.131,0.358-0.293c0-0.156-0.16-0.282-0.358-0.282c-0.197,0-0.361,0.126-0.361,0.282
		C132.883,196.012,133.047,196.143,133.244,196.143z"/>
</g>
</svg>
