<?xml version="1.0" encoding="utf-8"?>
<!-- Generator: Adobe Illustrator 16.0.0, SVG Export Plug-In . SVG Version: 6.00 Build 0)  -->
<!DOCTYPE svg PUBLIC "-//W3C//DTD SVG 1.1//EN" "http://www.w3.org/Graphics/SVG/1.1/DTD/svg11.dtd">
<svg version="1.1" id="Layer_1" xmlns="http://www.w3.org/2000/svg" xmlns:xlink="http://www.w3.org/1999/xlink" x="0px" y="0px"
	 width="350px" height="350px" viewBox="0 0 350 350" enable-background="new 0 0 350 350" xml:space="preserve">
<g>
	<path d="M251.819,203.429c-0.282,0-0.506,0.134-0.506,0.292c0,0.159,0.224,0.293,0.506,0.293c0.27,0,0.497-0.134,0.497-0.293
		C252.316,203.563,252.089,203.429,251.819,203.429z"/>
	<path d="M249.441,203.079c-0.275,0-0.5,0.133-0.5,0.292c0,0.16,0.225,0.293,0.5,0.293c0.282,0,0.506-0.133,0.506-0.293
		C249.947,203.212,249.724,203.079,249.441,203.079z"/>
	<path d="M251.516,202.518c0-0.159-0.221-0.292-0.498-0.292c-0.282,0-0.504,0.133-0.504,0.292c0,0.164,0.222,0.292,0.504,0.292
		C251.295,202.81,251.516,202.682,251.516,202.518z"/>
	<ellipse cx="246.95" cy="203.499" rx="0.503" ry="0.291"/>
	<ellipse cx="248.305" cy="202.579" rx="0.504" ry="0.289"/>
	<path d="M245.582,202.23c-0.276,0-0.504,0.133-0.504,0.293c0,0.158,0.228,0.293,0.504,0.293c0.277,0,0.5-0.135,0.5-0.293
		C246.082,202.363,245.859,202.23,245.582,202.23z"/>
	<path d="M240.986,203.118c-0.278,0-0.502,0.134-0.502,0.289c0,0.162,0.224,0.292,0.502,0.292c0.275,0,0.499-0.13,0.499-0.292
		C241.485,203.252,241.262,203.118,240.986,203.118z"/>
	<ellipse cx="238.49" cy="203.537" rx="0.501" ry="0.292"/>
	<ellipse cx="239.847" cy="202.614" rx="0.504" ry="0.288"/>
	<path d="M237.125,202.269c-0.276,0-0.502,0.13-0.502,0.293c0,0.162,0.226,0.29,0.502,0.29c0.273,0,0.5-0.128,0.5-0.29
		C237.625,202.398,237.398,202.269,237.125,202.269z"/>
	<path d="M243.847,203.059c-0.276,0-0.503,0.127-0.503,0.293c0,0.158,0.227,0.292,0.503,0.292s0.501-0.134,0.501-0.292
		C244.348,203.186,244.123,203.059,243.847,203.059z"/>
	<path d="M242.709,202.269c-0.28,0-0.504,0.128-0.504,0.286c0,0.165,0.224,0.292,0.504,0.292c0.277,0,0.5-0.127,0.5-0.292
		C243.209,202.396,242.986,202.269,242.709,202.269z"/>
	<path d="M256.662,203.563c-0.282,0-0.504,0.134-0.504,0.293c0,0.163,0.222,0.292,0.504,0.292c0.271,0,0.5-0.129,0.5-0.292
		C257.162,203.696,256.933,203.563,256.662,203.563z"/>
	<path d="M254.286,203.217c-0.276,0-0.5,0.135-0.5,0.293s0.224,0.292,0.5,0.292c0.28,0,0.504-0.134,0.504-0.292
		S254.566,203.217,254.286,203.217z"/>
	<path d="M256.358,202.656c0-0.16-0.221-0.293-0.497-0.293c-0.282,0-0.504,0.133-0.504,0.293s0.222,0.291,0.504,0.291
		C256.138,202.947,256.358,202.816,256.358,202.656z"/>
	<path d="M253.152,202.421c-0.283,0-0.507,0.134-0.507,0.292c0,0.159,0.224,0.293,0.507,0.293c0.273,0,0.497-0.134,0.497-0.293
		C253.649,202.555,253.426,202.421,253.152,202.421z"/>
	<path d="M303.342,203.689c0,0.159,0.229,0.287,0.504,0.287c0.277,0,0.499-0.128,0.499-0.287c0-0.164-0.222-0.292-0.499-0.292
		C303.571,203.397,303.342,203.525,303.342,203.689z"/>
	<path d="M301.979,203.339c0-0.158-0.229-0.284-0.504-0.284c-0.276,0-0.504,0.126-0.504,0.284c0,0.165,0.228,0.293,0.504,0.293
		C301.751,203.632,301.979,203.504,301.979,203.339z"/>
	<path d="M303.047,202.2c-0.276,0-0.501,0.126-0.501,0.289c0,0.161,0.225,0.29,0.501,0.29c0.28,0,0.504-0.129,0.504-0.29
		C303.551,202.326,303.327,202.2,303.047,202.2z"/>
	<path d="M300.838,202.549c0-0.164-0.221-0.292-0.504-0.292c-0.275,0-0.504,0.128-0.504,0.292c0,0.16,0.229,0.286,0.504,0.286
		C300.617,202.835,300.838,202.709,300.838,202.549z"/>
	<ellipse cx="308.69" cy="203.822" rx="0.504" ry="0.291"/>
	<path d="M306.823,203.479c0-0.165-0.229-0.293-0.504-0.293c-0.277,0-0.504,0.128-0.504,0.293c0,0.158,0.227,0.291,0.504,0.291
		C306.595,203.77,306.823,203.637,306.823,203.479z"/>
	<path d="M307.891,202.337c-0.277,0-0.501,0.128-0.501,0.286c0,0.165,0.224,0.293,0.501,0.293c0.279,0,0.502-0.128,0.502-0.293
		C308.393,202.465,308.17,202.337,307.891,202.337z"/>
	<path d="M305.682,202.682c0-0.158-0.223-0.292-0.504-0.292c-0.273,0-0.497,0.134-0.497,0.292c0,0.165,0.224,0.293,0.497,0.293
		C305.459,202.975,305.682,202.847,305.682,202.682z"/>
	<ellipse cx="313.961" cy="203.914" rx="0.502" ry="0.291"/>
	<path d="M312.091,203.569c0-0.162-0.222-0.293-0.499-0.293c-0.281,0-0.504,0.131-0.504,0.293c0,0.158,0.223,0.286,0.504,0.286
		C311.869,203.855,312.091,203.728,312.091,203.569z"/>
	<path d="M313.163,202.427c-0.276,0-0.504,0.128-0.504,0.286c0,0.165,0.228,0.293,0.504,0.293c0.275,0,0.497-0.128,0.497-0.293
		C313.66,202.555,313.438,202.427,313.163,202.427z"/>
	<path d="M310.951,202.772c0-0.158-0.224-0.292-0.499-0.292s-0.505,0.134-0.505,0.292c0,0.163,0.229,0.293,0.505,0.293
		S310.951,202.936,310.951,202.772z"/>
	<path d="M318.302,204.052c0,0.158,0.225,0.292,0.507,0.292c0.274,0,0.497-0.134,0.497-0.292c0-0.159-0.223-0.293-0.497-0.293
		C318.526,203.759,318.302,203.893,318.302,204.052z"/>
	<path d="M316.934,203.699c0-0.158-0.221-0.286-0.497-0.286c-0.28,0-0.504,0.128-0.504,0.286c0,0.165,0.224,0.293,0.504,0.293
		C316.713,203.992,316.934,203.864,316.934,203.699z"/>
	<path d="M318.007,202.562c-0.276,0-0.506,0.126-0.506,0.29c0,0.161,0.229,0.291,0.506,0.291c0.274,0,0.498-0.13,0.498-0.291
		C318.505,202.688,318.281,202.562,318.007,202.562z"/>
	<path d="M315.795,202.911c0-0.167-0.225-0.293-0.501-0.293c-0.274,0-0.502,0.126-0.502,0.293c0,0.158,0.228,0.284,0.502,0.284
		C315.57,203.195,315.795,203.069,315.795,202.911z"/>
	<path d="M320.437,204.104c0,0.158,0.223,0.292,0.504,0.292c0.273,0,0.497-0.134,0.497-0.292c0-0.165-0.224-0.293-0.497-0.293
		C320.659,203.812,320.437,203.939,320.437,204.104z"/>
	<path d="M320.139,202.607c-0.274,0-0.505,0.131-0.505,0.293c0,0.158,0.23,0.292,0.505,0.292c0.276,0,0.498-0.134,0.498-0.292
		C320.637,202.738,320.415,202.607,320.139,202.607z"/>
	<ellipse cx="277.512" cy="206.68" rx="0.446" ry="0.342"/>
	<path d="M279.914,199.333c0.172,0,0.309-0.16,0.309-0.353c0-0.196-0.137-0.354-0.309-0.354c-0.164,0-0.301,0.157-0.301,0.354
		C279.613,199.173,279.75,199.333,279.914,199.333z"/>
	<path d="M282.2,200.142c0.166,0,0.3-0.201,0.3-0.455c0-0.249-0.134-0.458-0.3-0.458c-0.165,0-0.296,0.209-0.296,0.458
		C281.904,199.94,282.035,200.142,282.2,200.142z"/>
	<ellipse cx="116.968" cy="177.999" rx="0.427" ry="0.319"/>
	<path d="M331.449,192.793l-3.173-1.873l-1.145-3.537c0.413-0.68,1.108-1.353,1.872-1.667c0.641-4.128,1.354-8.586,1.146-12.595
		c-1.512-2.965-2.446-6.606-2.813-9.729l-93.439-0.703c-0.627-0.6-3.751-6.551-3.944-7.489c-0.282-1.376-0.487-2.786-1.756-3.623
		c-0.947-4.194-2.428-8.902-3.911-12.953c1.61-1.164,0.165-3.504-0.891-4.806c-1.508-1.849-5.586-2.698-9.399-3.035
		c-2.925-0.257-17.822-0.49-22.514-0.544c-2.962-0.032-33.918,0.096-45.98,1.591c-6.31,0.784-12.749,2.122-14.965,4.001
		c-1.489,1.262-1.892,3.414-2.57,5.283c-4.637,3.906-6.807,7.046-10.307,11.399L98.37,153.76c0,0-20.84,0.694-24.922,0.987
		c-5.679,0.405-11.113,1.589-15.171,6.403c-8.294-0.055-19.762-0.202-26.087,0.793c-3.355,0.528-6.433,1.607-8.938,3.683
		c-1.883,1.756-3.238,4.771-1.874,6.976c3.332,4.992,7.027,9.262,8.066,14.78c-1.475,1.308-1.83,2.717-0.892,3.459
		c1.475,1.313-0.786,8.268-0.897,8.473c-1.133,2.062-4.017,1.601-5.911,2.692c-5.037,2.707-3.399,5.476-1.149,5.995
		c4.997,1.152,24.018,1.093,30.146,0.794c1.157,2.538,8.549,9.5,17.725,9.409c8.779-0.09,14.293-6.377,15.662-8.737
		c19.439,0.392,41.131,0.977,45.739,1.061c5.867,10.754,25.502,12.309,32.905,2.383c18.644-0.553,67.387-1.35,73.409-1.35
		l0.269-1.606l16.328,1.204c0.743,0.149,1.273,2.084,4.154,3.487c2.445,1.183,5.618,2.54,8.519,3.403
		c9.905,3.863,18.558,0.729,22.374-4.7c1.659-0.508,6.611-1.897,7.103-1.484c0.824,0.691,1.115,1.571,2.796,1.378
		c8.653-0.91,18.167-2.186,26.437-5.257c4.951-1.715,3.438-7.335,5.623-10.872C332.133,197.226,331.502,193.911,331.449,192.793z
		 M328.276,184.779c-0.084,0.272-0.679,1.092-1.145,0.52c0.879-2.29,0.886-5.342,0.932-8.225c0.277-0.081,0.479-0.203,0.781-0.209
		C329.004,179.678,328.671,182.213,328.276,184.779z M326.766,164.535c-0.207,3.229,1.819,6.661,2.079,9.942h-0.568
		c-0.862-2.748-1.876-6.526-2.345-9.754C326.16,164.649,326.484,164.571,326.766,164.535z M230.488,163.392
		c2.601,0.886,4.629,3.694,5.41,6.191c-1.449,0.085-3.227,0-4.473,0c-0.264-2.083-0.835-4.265-2.447-5.622l0.729-0.936
		c-2.962-0.559-2.334-4.477-3.178-6.763l2.083-0.521C229.758,158.081,231.007,160.583,230.488,163.392z M229.914,177.441
		c-0.833-0.261-1.111,0.557-1.143,1.145c0.31,4.84,0.31,10.774,0,16.291c-3.594,0-6.506-3.957-10.099-1.67
		c-0.889,0.654-2.998,3.263-4.729,2.533c-0.727-1.349-2.661-2.322-4.067-2.739c2.912-4.528,9.821-0.676,12.742-4.918
		c0.367-0.53,1.625-4.189,2.405-5.386l-0.367-0.363c-1.35,1.767-2.391,4.526-4.891,5.049c-2.558,0.556-6.772-3.034-10.462-1.306
		c-0.875,0.423-1.711,1.021-2.567,1.58c-5.665,3.682-6.071,0.297-6.071,0.297c2.636-1.658,5.547-5.146,8.726-3.434
		c1.356,0.729,3.985,0.324,6.278-1.456c2.205-1.717,4.176-3.937,6.909-3.905c0-0.458-0.426-0.534-0.733-0.573
		c-3.902-0.312-6.442,4.734-9.573,2.809c-2.797-1.766-5.413-3.018-8.222-1.717c-2.346,1.147-5.015,4.02-7.494,2.292l-2.449-1.872
		c1.773-0.473,1.867-2.45,5.262-1.145c3.223,1.35,6.031-0.576,8.222-2.813c9.938,0.623,19.826-0.417,29.035,0.21
		c-0.413,2.395-1.039,4.685-1.871,6.92l-0.179,7.078c-0.791,0.375-1.374,1.765-1.968,2.627c-1.123,1.642-2.693,1.694-2.693,1.694
		C230.174,188.993,230.174,183.32,229.914,177.441z M230.277,202.007c-0.26,0.156-1.559,0-1.506-0.784
		C229.132,201.223,230.121,201.223,230.277,202.007z M190.908,184.005c-1.525-0.065-2.212,0.931-2.212,0.931
		c-0.954-2.166,1.457-2.76,2.602-3.541c3.226-1.353,4.047,2.705,7.13,2.604c3.799-0.206,6.035-4.787,10.307-3.381
		c0.893,0.421,3.537,1.923,5.409,2.444c-2.807,2.294-6.141-1.197-9.364,0.208c-2.396,1.093-4.475,4.475-7.86,3.174
		C195.261,184.789,193.196,184.107,190.908,184.005z M195.047,187.015c-1.094,0.648-2.374,1.675-3.796,1.802
		c-2.172,0.203-3.058-1.76-1.661-2.893C190.953,184.82,193.402,185.579,195.047,187.015z M186.977,174.994
		c-18.433,0.974-60.619,0.39-61.951,0.18c-1.6-0.255-2.997-0.947-3.624-2.99c-0.381-1.475-1.08-2.965-2.074-4.251
		c-2.96-3.831-8.798-3.605-15.135-1.982c-1.128,0.45-2.199,2.175-2.25,3.422c-0.729,0-0.637-0.71-0.574-1.09
		c0.538-2.916,3.401-4.388,6.482-4.693c10.905-1.069,29.242,0.215,43.025,0.136c2.123-0.011,19.815-0.179,24.863,0.444
		c-1.049,1.109-2.487,0.666-3.828,0.563c-3.4-0.26-4.322,3.129-1.014,4.122c-8.952,0.053-38.977-0.42-38.977-0.42
		c0.311-0.622,1.246-1.295,1.301-2.235c-0.887-1.46-2.966-1.146-4.11-0.937c-1.305-0.259-3.073-0.469-3.959,0.937
		c-0.948,2.191,2.332,3.207,3.59,3.592c-1.001,1.251-0.763,2.063,0.535,2.883c1.727,1.091,4.851,1.234,6.48,0.436
		c0.878-0.427,1.641-1.077,2.512-1.444c13.582-0.419,26.959-0.625,39.915-1.354c-0.131,2.729,4.361,1.965,6.495,1.063
		c1.687-0.711,3.355-1.619,5.32-1.583C189.579,171.771,187.97,173.278,186.977,174.994z M187.188,181.97
		c-4.594,2.983-8.519,0.955-6.994-1.694c1.162-2.02,4.602-0.868,6.782-0.025C186.977,180.617,187.113,181.339,187.188,181.97z
		 M103.872,168.017c0.761-0.864,2.89-1.345,3.899-0.877c-1.07,0.394-3.626,1.557-4.063,1.837c-0.299,0.194-0.261,0.407-0.218,0.917
		l2.563-0.676c-2.427,6.656,4.57,14.223,10.15,8.429c2.081-2.182,2.081-4.527,2.237-7.492c1.742,2.273-1.145,6.919-1.145,6.919
		c1.77,0.521,3.173-3.534,3.173-3.534h0.21c0,6.123-10.46,11.479-14.281,4.551c-0.905-1.642-1.377-3.445-2.216-5.127l0.364-0.362
		C102.536,171.694,102.733,169.323,103.872,168.017z M103.087,176.14c-12.283-1.61-26.438-1.56-38.252-1.506
		c-5.794,0.079-10.981,0.257-16.654,0.78c-0.833-0.051-1.614-0.834-2.083-1.356c0.26-1.039,3.283-1.574,3.703-1.628
		c15.535-2.084,39.43-2.209,49.419-0.767c1.96,0.284,3.848,0.899,4.594,3.332C103.971,175.569,103.289,175.893,103.087,176.14z
		 M113.912,174.839l2.446-0.206c0.105,0.153-0.171,1.12,0.61,0.856l-0.038,0.287C115.836,176.195,114.557,175.466,113.912,174.839z
		 M115.266,176.713c-3.015,3.577-7.767,0.512-7.912-2.446c1.456,0.572,3.644,0.572,5.099,0
		C112.818,175.62,114.256,176.195,115.266,176.713z M113.182,172.603c-2.081,0.728-4.891,0.362-6.346-1.145
		c0.096-3.033,3.815-5.021,6.493-4.653c3.233,0.438,4.7,3.018,4.113,5.53C117.115,173.737,115.037,173.089,113.182,172.603z
		 M188.122,165.264c-3.319,1.639-4.464-0.482-7.027-0.84c-0.578-0.078-3.143,0.126-3.64,0.266c-0.312,0.051-0.418-0.258-0.362-0.52
		c0.405,0.096,4.701-0.331,5.433-0.481C184.751,163.238,186.8,163.044,188.122,165.264z M185.678,162.299l0.783-0.78l0.36,0.361
		L185.678,162.299z M191.298,169.792c2.438,0.244,5.839-0.38,8.485,0.825c1.607,0.735,4.63,0.475,4.63,0.475
		c-4.685,4.007-9.106-2.29-14.051,0.729C190.516,171.092,190.778,170.361,191.298,169.792z M191.144,169.012
		c0-0.454,0.828-0.687,1.565-0.807c1.391-0.215,3.847,0.807,3.847,0.807H191.144z M196.191,172.603l0.364,0.362
		c-1.092,0.939-2.706,1.822-4.321,1.303l-0.937-1.146C192.287,171.821,194.683,172.5,196.191,172.603z M198.635,173.904
		c0.885,0.52,1.719,0.986,2.605,1.51h-6.193C196.243,174.787,197.021,173.437,198.635,173.904z M200.873,173.694
		c1.771-0.257,3.635-1.242,5.255-2.446l5.778-0.156C208.423,172.028,205.089,176.865,200.873,173.694z M209.304,173.904
		c1.509-0.836,3.332-2.812,5.414-1.51c0.573-0.313-0.21-0.573-0.156-0.936c5.464-0.21,9.991-1.097,15.716-0.728
		c0.229,1.271,0.059,2.871-0.569,4.134c-7.329-0.101-13.629,0.803-20.404-0.387V173.904z M208.003,169.792
		c0.42-1.146,1.976-2.083,1.873-3.229c-2.758,2.5-6.556,4.111-10.147,2.81c-2.497-1.874-5.724-2.602-9.003-2.233
		c1.611-1.042,1.406-3.335,3.59-3.749c10.826,0,22.065,0,32.425,0c2.135,1.298,3.174,3.644,3.537,5.981
		C221.638,169.532,216.983,169.694,208.003,169.792z M190.205,165.626l0.7-0.699l0.274,0.27L190.205,165.626z M189.271,164.535
		l-0.938-0.938c0.784-0.572,2.848-0.553,3.748-0.206C191.505,164.225,190.205,164.17,189.271,164.535z M188.851,166.411l0.574,0.572
		c-1.822,1.557-4.943,1.453-7.285,0.727c-2.917,0.885-5.621,1.664-8.793,1.303c2.81-0.886,6.242-6.194,9.521-2.241
		C184.534,166.93,187.238,167.396,188.851,166.411z M184.587,169.792c-1.408,0.466-2.968,1.506-4.528,0.363
		C181.516,170.466,182.918,169.532,184.587,169.792z M170.534,167.14c-0.263-0.887,0.694-1.488,1.302-1.305
		c1.296,0.365,3.383,0.208,4.683-0.572C174.911,167.216,171.325,169.246,170.534,167.14z M173.709,162.818
		c3.175-3.225,7.182-0.156,11.24-1.668C181.98,164.38,177.712,161.775,173.709,162.818z M168.452,161.359
		c-0.96-0.777,0.244-1.305,0.936-1.146c1.666,0.313,3.281,0.833,5.051,0.937C172.773,162.139,170.324,162.662,168.452,161.359z
		 M130.774,169.792c9.236,0.24,19.853-0.454,29.954-0.106c0.827,0.026,0.846,0.238,0,0.294c-7.707,0.504-17.139,0.364-23.381,0.565
		c-1.562,1.926-3.901,2.048-6.35,1.683C129.063,171.9,129.628,169.895,130.774,169.792z M129.472,168.855
		c-1.144-0.366-2.289-0.78-3.172-1.715c-0.7-0.91,1.035-1.565,1.909-1.338c0.526,0.191,1.757-0.1,2.637-0.024
		c1.044,0.087,1.677,0.578,1.074,1.362C131.243,167.919,130.357,168.333,129.472,168.855z M187.993,175.49
		c0.303-0.727,1.33-1.692,1.639-2.525c0,0.939,0.627,1.615,1.302,2.239l-1.663,0.366l0.361,0.363
		c4.395-0.209,8.354,0.278,12.417,0.194c1.892-0.036,2.978-0.095,4.446-0.713c-1.096,0.726-2.148,2.174-3.918,2.483
		c-2.188,0.68-3.785-1.964-6.231-0.822c-2.341,1.46-5.231,3.443-8.252,1.778C187.966,177.474,187.634,176.374,187.993,175.49z
		 M189.632,180.825c-0.361,0.312-1.144,0.986-1.51,0.209C188.386,180.407,189.271,180.617,189.632,180.825z M188.396,194.463
		l0.455,0.048c0.158,0.366-0.154,0.677-0.519,0.571L188.396,194.463z M236.216,174.445c-0.344,0.267-0.867,0.394-1.462,0.394h-3.747
		c0.524-1.249,0.573-2.914,0.573-4.109c1.441,0.018,4.125-0.161,4.647,0.371C236.775,171.635,236.67,174.081,236.216,174.445z
		 M224.251,140.679c0.731,1.895,2.274,6.365,2.673,8.663c0.035,0.207-0.304,0.244-0.377,0.037c-0.719-2.062-2.134-6.68-2.771-8.627
		C223.376,139.526,223.673,139.195,224.251,140.679z M224.656,152.15h-0.363c-0.838-4.142-3.949-12.473-3.949-12.473
		c-6.656-0.42-13.796,0.188-20.976-0.276l-0.004-0.4l21.338-0.333c0.833,1.876,1.406,3.853,2.081,5.829
		c0.42-1.717-0.414-3.85-0.938-5.619c0.129-0.105,0.366-0.21,0.576-0.21c0.676,2.238,3.902,13.115,3.902,13.115
		c-0.47,0.472-0.884,0.066-1.094-0.57c-0.312-1.666-0.779-3.331-1.508-4.84C223.411,148.296,224.5,150.17,224.656,152.15z
		 M198.938,142.808c-0.092-1.097,0.314-1.276,0.5,0.004c0.403,2.801,1.072,8.242,1.072,8.242c2.912-2.286,6.139-4.005,9.732-4.681
		l-0.208,0.521c-2.032,1.194-4.688,2.393-5.622,4.682l0.209,0.207c5.254-2.552,11.398-3.488,17.433-3.538l1.051,4.254l-22.964,0.404
		C199.921,150.386,199.15,145.373,198.938,142.808z M199.012,152.903c-1.128,0.02-3.703,0.586-4.713-0.857
		c-0.157-0.226-4.733-11.775-3.219-13.323l6.202-0.054C198.221,140.802,199.116,150.353,199.012,152.903z M201.033,148.975
		c0-2.553-0.363-5.41-0.188-8.046l18.191-0.023c1.308,0.702,1.885,4.067,2.45,5.988c-4.169,0.051-8.382,0.677-12.022,1.507
		c1.143-1.093,3.017-1.507,3.952-2.969C211.726,143.476,203.791,147.114,201.033,148.975z M137.271,134.537
		c7.18-1.544,19.587-2.203,26.38-2.465c16.526-0.642,33.745-1.021,49.034-0.168c3.336,0.211,6.664,0.939,9.37,2.291
		c-0.051,0.779-0.83,1.417-1.507,1.458c-11.294,0.57-21.638-0.593-31.123,0c-1.001,0.082-1.507,0.762-1.508,1.351
		c0.053,1.303-0.21,3.022,0.934,3.541c0.546-0.583-0.042-1.456,0.039-2.249c0.159-1.639,2.274-1.308,3.495-1.358
		c9.604-0.396,18.655,0.175,28.317,0.222c1.039-0.207,2.081-1.506,3.02-0.727c-1.095,1.092-2.451,1.411-3.956,1.506
		c-9.265,0-19.412,0-28.468,0c-1.012,0.004-1.344,1.118-1.351,2.364c-0.005,0.904,2.657,10.473,4.222,13.804
		c0,0,26.026,0.879,33.667-1.18c0.416,0.125,0.644,0.702,0.565,1.095c-3.428,1.643-20.203,1.34-20.203,1.34l-0.195,1.315
		c5.83,0.103,11.793-0.112,17.227-0.416l1.301,5.617c-9.78,0.47-21.183,0.68-32.994,0.575l-0.936,0.571
		c0-0.676-0.565-0.735-1.096-0.726h-3.747c-0.49-1.47,1.331-2.847,2.793-2.057c0.634,0.348,1.08,1.221,1.891,0.701
		c-0.984-1.671-2.197-2.3-4.721-2.194c0.05-0.936-0.221-1.861-0.532-2.645c1.454-0.883,3.643-0.313,4.477-2.237
		c0.467,0.365,0.622,0.883,0.569,1.458c-1.144-0.207-2.132,0.364-2.81,0.937c5.829,0.466,11.865,0.832,17.797,0.416
		c0.122-0.461,0.175-0.813,0.21-1.353c-4.729-0.013-9.349,0.164-13.896-0.52c-1.662-4.165-2.782-8.603-4.111-12.964l-0.574-0.36
		c0.55,3.447,1.723,6.284,2.027,9.639c0.108,1.249-0.302,3.536-2.784,3.488c-1.083-0.02-2.777,0.371-2.167,1.501
		c0.49,0.912,0.765,2.09,0.895,2.961c-2.326,1.414-4.59,1.533-7.077,1.15c-0.629-0.094-2.092-0.19-2.651-0.214
		c1.192-1.509,2.863-1.716,4.838-1.301c0.834,0.157,1.977,0.678,3.019,0.211c-0.468-0.626-1.822-0.266-2.237-0.939
		c-2.395-4.218-6.872-1.197-10.146-2.08l-2.242-0.729l0.572-0.937c2.966,0.154,6.815-0.313,9.522,0.363
		c0.158-0.209,0.271-0.336,0.42-0.572c-4.012-0.572-7.809-1.822-12.021-1.872v-0.367c1.3-0.207,3.171,0.472,3.956-0.57
		c-1.772,0.26-1.396-1.977-1.146-2.968c0.795-3.659,4.482-8.083,6.176-9.297c1.005-0.717,2.001-1.399,2.464-2.516l1.507-0.209
		c0.098-0.163,0.207-0.363,0.366-0.57c-7.287-1.979-27.506-0.738-30.06-0.602c-5.841,0.299-11.793,0.795-17.648,2.019
		c-2.01,0.419-4.388,1.598-4.388,1.598C131.788,136.101,134.454,135.144,137.271,134.537z M126.663,152.367
		c-0.56,0-0.602-0.193-0.062-0.267c4.603-0.646,9.595-0.582,14.385-0.723c1.898-0.056,18.097-0.685,23.147,0.406
		c-0.106,0.241-0.207,0.367-0.366,0.575C151.676,151.164,138.777,152.396,126.663,152.367z M155.544,153.867
		c-0.353,0.439-1.246,0.883-1.874,0.365C154.194,153.813,154.993,153.881,155.544,153.867z M123.487,150.484
		c0.935-1.77,2.812-3.538,3.958-4.891c0.988,1.302,0.153,3.175,0.521,4.681C126.56,150.587,124.787,150.587,123.487,150.484z
		 M124.215,151.577c-0.468,0.782-1.401,0.937-2.027,0.782c0.051-0.625,0.677-1.252,1.3-1.305
		C123.801,151.003,124.422,151.106,124.215,151.577z M125.321,153.532c5.306-0.205,18.109-0.382,21.949-0.321
		c0.902,0.014,0.668,0.255,0.13,0.329c-5.874,0.804-16.062,0.623-22.147,0.306C124.24,153.794,124.028,153.579,125.321,153.532z
		 M134.01,150.118c-0.832,0-2.087,0.051-2.09-0.78c-0.018-2.184-0.596-4.97,0.364-6.558l2.652-0.57
		C134.053,144.916,135.152,147.566,134.01,150.118z M135.165,150.293c0.625-2.411,0.463-5.503,1.231-8.451
		c-0.21,2.655-0.21,5.99-0.73,8.432L135.165,150.293z M144.098,147.465c5.67-1.823,11.812-2.496,18.006-3.176l1.456-1.298
		l0.037,1.079c1.659,0.023,3.518-0.279,5.064-0.51c0.727-1.403,2.114-2.881,3.175-4.318l-0.365-0.364
		c-4.685,0.523-9.366,0.523-14.053,0l0.729-0.416c5.986,0.053,11.917-0.107,18.009,0.206c-2.551,2.759-4.686,5.415-5.622,8.641
		h-1.354c0.626-3.172,2.966-5.777,4.892-8.277c-0.698-0.019-1.287,0.334-1.809,0.852c-1.243,1.222-3.829,6.086-4.539,7.425
		c-3.382,0.05-7.443-0.52-9.786,2.601c-6.297,0-13.364,0.029-18.891,0.208c0.99-4.213,4.841-7.908,9.16-8.43l0.209,0.154
		c-1.979,1.461-4.895,2.19-5.051,5.053L144.098,147.465z M157.003,140.906l-0.363,0.368c-1.562-0.313-1.17-2.024,0-2.812
		C156.326,139.242,156.377,140.074,157.003,140.906z M157.786,141.274l-0.21-0.936c1.093,0,2.236-0.833,3.176,0
		c0.466,0.882,0.676,1.819,0.569,2.807l-8.794,0.415c-0.885-1.143-0.248-2.881,0.73-3.382c1.642-0.877,1.388,0.504,1.778,1.457
		C155.513,142.818,158.062,142.712,157.786,141.274z M167.882,153.656c-1.252,0.626-2.703,0.677-3.749,0.211L167.882,153.656z
		 M165.555,151.672c0.193-0.126,0.556-0.095,0.66,0.112v0.575C165.953,152.513,164.881,152.194,165.555,151.672z M166.786,151.784
		h0.729v0.729C166.839,152.772,166.812,152.024,166.786,151.784z M161.167,149.705c1.608-1.441,6.852-1.532,8.587-0.157
		C167.254,150.433,163.56,150.223,161.167,149.705z M144.098,137.003c3.84-0.616,19.878-0.52,29.975-0.414v0.206
		c-9.266,1.198-26.486,0.171-29.614,0.938c-4.524,1.196-10.304,0.468-14.621,2.812C133.792,137.419,139.621,138.147,144.098,137.003
		z M132.299,140.629c2.853-0.937,6.512-1.343,9.56-1.228c3.696-1.254,8.377-0.523,12.541-0.733v0.21
		c-5.007,0.093-12.786,1.04-13.321,1.139c-0.912,0.17-1.804,0.381-2.032,1.464c-0.57,2.705-0.917,5.822-1.126,8.734
		c-0.174,0.027-0.477,0.078-0.747,0.059c0.157-3.276,0.417-6.242,1.093-9.523c0.786,0.006,1.146-0.572,1.146-0.572
		c-2.746,0.125-7.237,0.52-9.16,2.967l0.39,6.545c-0.517,0.153-0.875,0.175-1.205,0.226c0.47-2.446-1.994-5.47,0.399-7.291
		c-3.051,0.781-8.224,8.222-8.224,8.222h-0.727C123.386,145.68,127.217,142.304,132.299,140.629z M121.249,151.99
		c0.104,0.056,0.208,0.16,0.153,0.369h-1.297C120.43,152.152,120.78,151.836,121.249,151.99z M61.72,159.691
		c3.569-2.862,8.022-3.68,12.73-3.915c5.199-0.263,35.767-1.857,45.654-2.12l0.782,0.729c7.232,0.836,14.127,1.781,21.7,0.783
		c3.125-0.521,7.86-1.562,10.514,0.157c2.266,1.442,6.784-2.872,9.157-1.094c1.772,1.404,5.154,1.143,6.923,0.363
		c-2.811,4.372-7.025-0.676-10.306,2.603c-0.771,1.002,0.333,1.653,1.357,1.873c4.187,0.742,7.668-3.38,11.667-2.139
		c1.266,0.393,2.423,0.515,3.823,0.145c1.623-0.436,3.276-0.781,4.697,0.328c-3.215-0.603-6.139,4.037-9.524,1.774
		c-2.356-1.573-5.321-0.198-3.169,3.484c-25.475-0.966-57.335-2.388-63.409,0.023c-4.156,1.647-5.448,5.388-3.675,7.627
		c-11.997-1.603-33.272-1.123-39.768-0.686c-5.45,0.372-10.905,0.645-15.865,2.767c0.363-3.485,3.954-5.623,6.921-6.559
		c0.312,0.625,0.052,1.664,0.936,1.874c1.87,0.285,2.83-0.775,3.703-2.083C57.298,164.529,60.767,160.455,61.72,159.691z
		 M163.04,157.404c-0.313,0.729-1.649,0.594-2.083,0.366C161.375,157.351,162.311,156.99,163.04,157.404z M24.555,174.477
		c0.051-0.68,0.884-0.47,0.936-1.146c-0.571-0.52-1.509-1.146-1.665-2.083c0.199-3.301,3.807-3.075,5.984-3.172
		c-1.821,1.04-4.008,0.833-5.622,2.809c1.146,0.208,2.29-1.092,3.541-0.572c-3.501,6.301,3.204,11.54,7.909,8.641
		c2.29-1.615,2.864-4.32,2.811-7.132c0.988,2.343-0.052,5.149-1.508,7.132l0.155,0.206l2.291-2.294
		c-1.953,5.366-6.985,6.149-10.366,3.876C26.832,179.265,25.843,176.561,24.555,174.477z M34.858,177.647
		c-1.785,2.382-6.191-0.182-6.191-2.444l2.809-1.3l0.574,0.153l-1.093,1.146c1.456,1.197,3.746,0.885,5.412,0.936
		c-0.625,0.99-4.111,0.261-4.475,0.21l-0.209,0.154C32.777,177.441,33.617,177.422,34.858,177.647z M33.349,174.633
		c-0.104-0.366,0.312-1.355-0.52-1.669c-1.771-0.464-2.759,0.729-4.163,1.093l-0.729-0.153c0.26-1.51,0.311-3.133,1.508-4.111
		c4.058-3.707,8.553-0.28,8.104,3.016c-0.105,0.774-0.627,1.388-1.182,1.825H33.349z M29.237,182.906
		c1.197,0,0.833,1.718,1.509,2.236c-0.116,0.213-0.207,0.364-0.364,0.573C29.603,185.087,29.603,183.844,29.237,182.906z
		 M30.383,187.59l1.667-0.782c0,0.626-1.406,0.937-0.939,1.872c1.589,1.896,4.607,0.269,4.684-0.36
		c-0.156-0.937-0.988-2.134-2.028-2.242l-1.509-0.206c1.561-0.47,3.435-0.155,4.111,1.512c0,0.884,0.834,1.873,0,2.602
		c-0.781,0.363-0.574-0.47-1.146-0.729c-0.571,0.883-1.09,2.286-2.392,2.236c-1.354-0.209-2.916-0.158-3.592-1.508
		C28.822,188.89,30.005,187.84,30.383,187.59z M33.241,187.212c0.675-0.212,1.43,0.376,1.461,0.899
		c-0.358,0.705-1.665,0.83-2.446,0.414C32.013,187.882,32.517,187.5,33.241,187.212z M36.368,191.334
		c-0.99,1.093-2.394,2.501-4.111,1.667C34.183,193.313,34.753,190.709,36.368,191.334z M31.11,198.049
		c2.239,0.107,5.31,0.472,6.923,1.148l-7.286-0.781c0,0-0.715,0.052-0.744-1.094c-0.022-0.865,0.068-2.254,0.744-3.021
		C31.424,195.291,29.757,197.217,31.11,198.049z M24.533,207.149c-3.979-0.388-4.656-2.463-2.066-3.343
		c3.152-1.072,10.889-0.688,16.622-0.53c8.93,0.249,47.615,0.812,50.311,0.759c0.336-0.031,0.518-0.413,0.364-0.728
		c-1.51-1.145-3.539-0.784-5.048-1.876v-0.36c2.238-0.473,4.58-0.105,6.349,1.092c1.613-1.356,3.643-2.085,5.829-1.461
		c-0.833,1.408-3.019,0.938-3.749,2.605c1.876,0.048,3.489-1.563,5.623-1.511c-0.054,0.366-0.679,0.938-1.146,1.144
		c1.146,1.927,3.798-0.626,4.527,0.728c0.111,0.262,0.209,0.367,0.364,0.574c7.599-0.054,16.084-0.102,23.574,1.145
		c0.744,1.146,1.358,2.238,1.878,3.332C124.878,208.226,29.806,207.669,24.533,207.149z M80.953,179.079l0.017-0.702h7.129
		c0.033,0.274,0.005,0.499-0.119,0.778C85.821,179.103,82.985,179.128,80.953,179.079z M87.891,181.186l-6.921-0.151
		C82.894,180.511,85.912,180.303,87.891,181.186z M80.969,182.49c2.343-0.213,5.329-0.225,7.285,0.207v0.938h-7.285V182.49z
		 M81.54,185.143h6.714l0.366,0.364l-7.441-0.003L81.54,185.143z M81.827,197.776l6.922,0.359c0.112,0.291,0.112,0.619-0.04,0.894
		c-2.288-0.147-4.843,0.327-6.976-0.402C81.577,198.318,81.67,197.982,81.827,197.776z M81.604,196.871
		c-0.154-0.312-0.063-0.645,0.093-0.853l6.923,0.364c0.112,0.289,0.112,0.616-0.037,0.894
		C86.291,197.129,83.739,197.602,81.604,196.871z M81.479,195.092c-0.156-0.262-0.198-0.507-0.042-0.871
		c2.602-0.209,5.318-0.279,7.345,0.118l0.045,0.743L81.479,195.092z M81.333,192.065c2.555-0.112,4.789-0.135,7.287,0.206v0.521
		c-2.499,0.261-4.756,0.314-7.266-0.013L81.333,192.065z M88.62,190.765l-7.266-0.063l-0.021-1.085h7.25
		C88.682,189.971,88.62,190.398,88.62,190.765z M81.333,187.954v-1.146l7.224-0.024c0.026,0.328,0.063,0.807,0.063,1.171H81.333z
		 M81.54,199.764c0.885,0.055,1.896-0.004,2.602,0.157c-0.52,1.094-1.734,0.718-2.916,0.692
		C81.227,200.2,81.178,199.976,81.54,199.764z M91.594,178.554L92,178.586c0.885,5.935,0.798,15.075,0.939,21.335
		c-1.041,0.105-2.031,1.823-2.967,0.366c0.104-7.86-0.26-13.893-0.417-21.91l0.559,0.075c0.728,6.61,0.951,14.705,1.16,21.469
		l0.572-1.093C91.48,191.595,92.001,185.582,91.594,178.554z M102.879,197.478h-6.765c-0.253-0.38-0.78-0.831-1.232-0.352
		c-0.281,0.294-0.436,0.246-0.799,0.192v-0.777l9.382,0.03c0.7-0.4,1.052-1.23,0.893-2.411c-0.1-0.739-0.311-0.841-0.907-0.953
		h-7.858c-0.06-0.249-0.266-0.5-0.634-0.524c-0.352-0.023-1.055,0.425-1.055,0.425l-0.028-0.836l9.367,0.155
		c1.202-0.119,0.45-2.832-0.029-4.311l-7.465-0.005c-0.417-0.265-0.567-0.862-1.244-0.601l-0.677,0.605l-0.024-1.106l9.009-0.202
		c0.142-0.926-0.611-1.976-1.079-2.81c-1.979-0.311-3.749-0.104-6.349-0.154c-0.053-0.418-0.573-1.405-1.147-0.782
		c-0.285,0.385,0,0.832-0.519,0.782c-0.243-0.247-0.156-0.885-0.209-1.354l6.923-0.156c0.208-1.044-1.508-1.772-2.448-2.236
		c-1.404-0.522-3.433,0.31-4.682-0.784l0.573-0.569c2.75,0.314,5.898,0.971,7.735,2.99c2.25,2.478,4.285,11.214,3.425,15.482
		c-0.603,2.989-3.079,3.49-6.11,3.645l-0.367-0.366c1.197-1.718,4.478-0.312,5.05-2.604L102.879,197.478z M97.984,198.828
		c-0.042,0.354-2.957,0.703-3.78,0H97.984z M94.053,195.369v-0.68l8.759-0.177c0.05,0.28,0.076,0.579,0.067,0.934
		C99.825,195.565,97.492,195.519,94.053,195.369z M93.927,189.469l8.222-0.006c0.104,0.364,0.343,0.944,0.186,1.41l-8.382-0.127
		C93.978,190.369,93.927,190.022,93.927,189.469z M94.083,185.143h6.923l0.363,0.573c-2.341-0.052-4.579,0.112-7.24-0.063
		L94.083,185.143z M93.509,181.553v-0.158c0.543-0.31,1.718-0.413,2.239,0.158H93.509z M160.309,210.776
		c-5.185,4.956-12.805,6.192-18.494,4.203c-5.057-1.773-11.744-7.592-11.198-12.245c0.47-3.072,1.197-6.088,2.24-9.006
		c0.309,0.836,0.052,1.878,0.936,2.445c0.349-0.6,0.555-1.368,0.746-2.189c1.512-6.528,4.674-10.018,12.82-11.28
		c4.251-0.659,8.684,1.217,10.348,2.69c0.514,0.458,0.973,0.259,1.586-0.096c5.816,0.501,4.268,12.75,4.268,12.75
		c0.311,0.315,0.783,0.885,1.144,0.367l1.146-2.397C165.433,201.55,164.351,206.91,160.309,210.776z M163.194,211.531
		c1.307-2.111,2.917-4.738,3.591-7.496c0.835,2.078-1.873,4.631-2.29,6.764c1.303-0.781,3.386-4.105,3.386-4.105
		c0.779,0.668,0.989,1.92,2.236,2.232c1.405-0.207,1.872-1.666,2.29-2.813c0.52,1.308,1.474,3.401,1.684,4.962L163.194,211.531z
		 M179.902,210.227c-3.435-7.806-6.041-16.165-9.427-23.968c-0.183-0.363-1.294,0.549-1.294,0.549
		c2.603,6.041,7.671,20.982,8.164,22.305c-0.002,0.328-0.079,0.647-0.252,0.96c-0.914,0.412-1.341-0.048-1.625-0.711
		c-0.255-0.583-5.66-17.716-9.828-24.999c-1.666-3.251-5.305-2.8-8.222-2.81h-13.529c0,0-4.759-0.077-7.454,2.287
		c-4.885,4.28-6.969,16.571-8.056,21.547c-0.77,0.07-0.934-0.938-1.716-1.352c-2.327-0.487-19.057-1.646-23.212-1.665
		c0.364-0.626,1.25-0.783,1.301-1.509c-0.937,0.21-2.029,1.146-3.175,1.302c4.498-2.203,6.141-5.146,4.99-10.331
		c-0.324-1.463-1.916-8.218-2.912-9.985c-0.932-1.652-2.228-3.019-4.314-3.47c-16.395-2.395-34.192-1.926-51.521-0.364
		c-2.073,1.42-3.364,3.203-4.302,5.177c-2.353,4.946-3.391,9.195-3.46,12.329c-0.064,3.033,1.954,4.952,6.183,5.49
		c5.356,0.683,27.61,0.659,37.54,0.998l0.363,0.363c-9.574,0.153-36.292-0.356-38.83-0.416c-5.521-0.135-10.986-0.446-17.011-0.731
		v-0.361c4.58-0.993,8.172-0.521,12.752-0.366c0.27,0.044,0.671-0.46,0.362-0.731c-2.758-2.131-6.505-2.286-9.732-2.649
		c-0.224-0.893,0.521-1.615,0.366-2.604c1.248,0.52,2.861-0.051,3.956-0.937c0.925-0.867,1.977-2.082,1.508-3.383l-0.417-0.364
		c0.78-0.313,0.937-1.508,0.574-2.237c-0.98-2.313-3.188-3.371-4.844-2.994c-0.998,0.225-1.905,0.491-1.87-0.961v-0.365
		c3.381,0.729,6.608-0.831,8.431-3.747c3.096-5.963,1.166-13.118-5.692-12.884c-2.084,0.068-4.358,0.52-6.332,0.344
		c-2.236,0.053-4.006,1.716-4.839,3.539c-0.076-3.327,2.783-5.258,4.922-6.191c3.569-1.56,19.347-2.243,29.531-1.669
		c-0.729,1.143-1.979,2.759-3.175,3.539c-1.562-0.626-0.054-1.406,0.363-2.24c0.104-0.258-0.119-0.516-0.363-0.569
		c-4.625,0.104-18.111-0.887-26.074,2.079l0.418,0.365c7.544-1.508,15.508-1.041,23.417-1.146c-3.07,1.354-6.555,3.436-7.909,6.977
		c-0.366,2.756,2.411,4.377,4.319,5.774c12.333-1.509,24.979-1.718,37.835-1.302c5.726,0.159,11.761,1.146,17.642,1.665
		c0.208-0.21,0.208-0.52,0.572-0.73c1.249,2.189,2.864,5.26,5.621,5.832c5.052,0.979,8.134-1.784,10.288-4.128
		c0.979-1.07,2.132-2.034,3.556-2.065c18.788-0.313,59.714-0.347,63.125-0.573c0.025,0.731,0.203,1.606,0.364,2.237
		c-0.481,0-0.886-0.132-1.281-0.302c-1.848-0.771-5.905-0.427-7.18,1.896c-1.404,2.543,0.522,4.779,3.005,4.978
		c1.907,0.155,3.969-0.366,5.668-1.105c0.203,0.78,0.262,1.35,0.364,2.027c-2.239,1.873,1.144,3.489,0,5.83
		c-1.249-0.418-3.438-0.312-4.113,1.506c-1.02,2.861,1.675,4.813,3.749,3.907c-0.159,2.704-0.523,6.088-0.367,8.64
		c0.455-0.525,0.666-1.209,0.776-1.958c0.188-1.241,0.398-6.163,0.708-7.094c0.436-1.309,2.376-1.458,3.201-1.445
		c0.672,0.01,1.322,0.019,1.664-0.38c-1.506-0.731-4.572-0.74-4.651-2.52l0.177-2.74c4.003,3.135,7.601-4.185,11.008-0.518
		c1.367,1.476,3.328,2.324,6.386,0.623c2.875-1.596,4.267-4.09,8.994-1.979c1.457,0.625,3.173,1.197,4.682,0.936
		c-2.655,2.502-6.9-0.767-8.796,1.147c-2.235,2.238-4.892,5.569-8.586,4.475c-1.616-0.675-2.76-2.34-4.685-2.236
		c-4.814,0.19-4.637,5.169-0.414,6.858c1.8,0.716,4.176-0.455,6.298-1.798c3.462-2.19,6.878-4.724,10.197-0.012
		c3.052,0.413,5.359-4.384,9.214-2.969c0.865,0.367,3.276,1.873,4.842,2.028v0.367c-3.438,1.405-7.134-2.239-9.371,1.718
		c-1.463,2.19,1.325,3.799,4.189,3.079c1.781-0.447,3.451-1.402,5.388-1.051v1.353c-4.217-0.417-7.37,4.946-10.877,1.875
		c-2.813-2.759-6.195-6.61-10.516-4.527c-2.938,1.763-2.576,4.118,0.822,4.221c2.504,0.072,5.481-1.126,7.09,1.4
		c-0.418,0.099-0.989-0.521-1.506-0.729c-3.385-1.356-5.155,2.392-8.434,1.874c-4.998-0.941-8.95-8.747-14.417-3.957
		c-2.674,2.382-0.556,5.81,2.813,4.525c1.349-0.568,2.931-2.271,4.109-1.714c1.507,0.986,1.873,3.122,3.905,3.173
		c-2.698,1.792-4.23-1.397-5.415-1.459c-3.744-0.051-7.547,5.049-10.305,0.371c-1.877-3.115-3.509-2.675-4.475,0.154
		c-0.363,1.092,0.353,2.974,1.663,2.806c2.136-0.206,4.11-1.247,5.986,0.212C186.821,210.592,182.033,210.127,179.902,210.227z
		 M79.097,178.013l0.552-0.015c0.467,1.77,0.349,17.893,0.725,22.672c-0.853,0.027-1.853-0.019-2.79,0.032
		c-0.155-5.722-0.727-22.689-0.727-22.689h0.727c0,0,0.573,15.459,0.937,20.246l0.575-0.781
		C79.199,191.283,78.938,184.205,79.097,178.013z M75.289,179.167c-0.086,0.069-4.325,0.112-6.108,0.011
		c-0.157-0.309-0.233-0.903-0.027-1.165h6.351C75.543,178.474,75.551,178.971,75.289,179.167z M75.63,180.409
		c0.026,0.198-0.005,0.563,0,0.649c-1.681,0.177-4.11,0.288-6.398,0.078l-0.051-0.551L75.63,180.409z M69.13,182.328l6.583,0.006
		c-0.031,0.685,0.245,1.137-0.583,1.112l-6-0.026V182.328z M69.255,184.953c2.292,0.053,4.344-0.127,6.777,0.074l0.027,0.374
		c-2.51,0.103-4.513,0.081-6.805,0.026V184.953z M76.077,186.653v1.091l-6.714-0.154v-0.937
		C71.665,186.608,74.074,186.654,76.077,186.653z M69.363,189.463l6.771,0.006l0.051,0.953l-6.801-0.023
		C69.344,190.019,69.332,189.769,69.363,189.463z M69.64,197.724c2.446,0,4.631-0.053,6.765,0.362v0.574l-6.765-0.21V197.724z
		 M69.519,196.541v-0.728c2.447,0,4.631-0.053,6.766,0.36v0.576L69.519,196.541z M76.285,194.669l-6.766-0.158v-0.782l6.766,0.234
		C76.308,194.264,76.285,194.44,76.285,194.669z M76.133,192.807l-6.702-0.25l-0.025-0.703c2.209-0.099,4.669,0.149,6.751,0.203
		C76.315,192.367,76.288,192.601,76.133,192.807z M69.363,199.764h6.922c0.074,0.249,0.125,0.626,0.155,0.938
		c-2.498,0.054-4.274,0.045-7.084-0.216L69.363,199.764z M46.618,182.092c1.25,0.729,3.402,0.297,5.12,0.399
		c0.072,0.33-0.024,0.755-0.017,1.144c-1.482,0.286-4.625-0.091-5.396,0.233c-0.692,0.292-1.179,2.022-1.413,2.765l0.459,0.021
		h6.713v0.937c-2.239-0.051-4.842,0.104-7.494-0.207c0,0-1.06,2.086-1.302,3.746c3.227,0.205,5.985,0.363,9.003,0.572v0.57
		l-9.003-0.206c-0.284,0.591-0.863,2.198-0.585,3.179l9.589,0.362c0,0.207-0.027,0.918-0.027,0.918
		c-3.592-0.104-6.062-0.455-9.548-0.351c0.794,3.183,10.877,3.177,10.877,3.177c-0.157-6.609-0.365-14.157-0.572-20.606
		c0.936-0.21,0.748,0.562,0.78,1.144c0.051,4.006,0.434,8.624,0.746,12.893l0.627-0.527c-0.052-4.262-0.594-9.244-0.073-13.509
		c0.938,7.127,0.469,13.527,1.145,20.453c0.032,0.362,0.053,0.724,0.521,0.934l0.779-0.78l6.923,0.209
		c0.207,0.259,0.442,0.526,0.727,0.728l0.417-0.366c0.312-7.494-0.52-14.464-0.78-21.699c0.504-0.081,0.752-0.031,0.807,0.277
		c0.094,0.528,0.627,13.28,1.274,18.251l0.365-0.367c0.343-6.161-0.208-12.438,0.208-18.161c0.788,7.557,0.813,15.79,1.114,22.293
		c-6.869,0.416-17.669,0.273-22.66-0.955c-1.77-0.523-4.445-1.432-4.528-3.386c-0.044-2.403,0.456-4.621,1.184-6.722
		c1.367-3.938,2.78-8.162,4.563-9.433c1.267-0.902,3.034-1.041,4.603-1.113c0,0.296-0.026,0.473-0.043,0.771
		C49.69,179.783,47.346,179.904,46.618,182.092z M51.721,181.395l-2.81,0.158C49.482,180.981,51.011,180.934,51.721,181.395z
		 M51.913,185l0.016,0.299h-5.258v-0.363L51.913,185z M52.085,189.256v0.936c-2.707,0.207-4.487-0.146-7.077-0.207l0.154-0.938
		C47.243,189.097,49.69,188.941,52.085,189.256z M52.329,197.288v0.417l-7.857-0.207c0.009-0.462,0.124-0.598,0.278-0.614
		C45.016,196.866,50.092,197.182,52.329,197.288z M52.292,194.146l-7.858-0.204c0.009-0.463,0.124-0.602,0.277-0.61
		c0.267-0.022,5.344,0.296,7.581,0.397V194.146z M64.262,196.75l-6.714-0.367v-0.569h6.923L64.262,196.75z M64.472,197.892v0.367
		c-2.446,0.21-4.892,0.417-6.923-0.21v-0.363C59.58,197.738,62.44,197.528,64.472,197.892z M64.108,194.877l-6.768-0.366v-0.569
		h7.131C64.523,194.302,64.418,194.669,64.108,194.877z M57.31,191.875l6.953-0.174v0.935l-6.922-0.364L57.31,191.875z
		 M64.262,190.398c-1.874-0.153-4.818,0.148-7.053-0.277l-0.024-0.504c2.239-0.257,5.308-0.257,7.078,0V190.398z M57.185,187.744
		v-1.091l6.923,0.154v1.146L57.185,187.744z M64.087,185.73c-2.276-0.036-5.237,0.244-7.109-0.432c2.027-0.262,5.1-0.262,7.13,0
		L64.087,185.73z M63.743,183.844l-6.974-0.209v-0.938l6.94-0.257C63.886,182.969,63.899,183.32,63.743,183.844z M56.978,181.186
		c2.081-0.102,4.786-0.568,6.765,0C61.66,181.864,57.51,181.588,56.978,181.186z M56.612,179.522v-0.569
		c2.393-0.523,4.944-0.576,6.922-0.367l0.208,0.573C61.556,179.888,58.799,179.783,56.612,179.522z M187.553,193.365
		c-0.108,0.873-0.034,2.227-0.731,2.448c-1.984,0.398-2.69-1.112-2.221-2.094C185.143,192.581,186.837,192.137,187.553,193.365z
		 M203.32,195.813c-1.928,1.142-4.579,2.911-6.765,1.142c-1.406-1.039-1.039-3.59,0.937-3.59
		C199.865,193.359,201.033,195.761,203.32,195.813z M228.299,197.473l-0.151,1.479c-2.757-0.986-5.521,1.959-8.382,0.398
		c0.937-3.018,4.32-0.935,6.558-1.302L228.299,197.473z M227.836,204.035c-4.011-1.301-7.134,5.152-11.245,1.507l-0.57-0.729
		c0.936,0.523,2.695,1.345,4.023,0.994c2.553-0.62,4.72-2.913,7.632-3.072C228.042,203.149,227.897,203.52,227.836,204.035z
		 M213.056,201.797c-1.773-0.726-4.843,0.779-6.561-0.574C206.964,199.346,211.177,198.815,213.056,201.797z M196.529,202.996
		c-1.461-0.675-2.68-0.886-4.295-0.833c3.487-1.876,6.036,1.61,8.639,3.591c-1.505,0.727-2.758-3.538-5.047-2.239l-3.226,1.665
		C193.588,203.464,194.859,203.413,196.529,202.996z M191.144,204.813c-1.198-1.092,0.667-1.712,1.457-1.712
		C193.171,204.088,191.455,204.242,191.144,204.813z M182.712,207.781l0.728,0.572c-0.155,0.365-0.466,0.265-0.728,0.212
		c-1.022-0.557-1.255-1.958,0.156-2.243h0.363C183.022,206.639,182.085,207.207,182.712,207.781z M193.019,209.865
		c0.518-0.731,3.067-0.105,4.109-0.574c-0.937-0.778-2.125-2.005-3.689-1.225c-1.298,0.881-2.816,2.061-4.377,1.799
		c2.76-0.261,5.724-5.158,8.221-0.939c4.549,1.142,8.584-2.144,12.684-3.857c1.802-0.753,2.878-0.095,2.878-0.095
		c-3.54,0.413-6.61,2.808-9.938,4.16l0.414,0.364c9.62-0.202,19.232-0.403,28.419-0.403c0.249-0.825,0.353-1.78,0.575-2.737
		c-1.247-0.878-1.62-3.257-3.701-2.322c-0.063-0.389-0.134-0.664-0.212-1.095c1.307-0.626,2.503,0.622,3.179,1.668
		c0.159,0.398,0.398,0.71,0.763,1.022c0.55-1.701-0.194-3.055-1.082-4.389c-0.847-1.282-2.256-2.134-2.256-2.134
		c0.094-3.09,4.14-4.187,5.361-6.935c0.095-0.218,0.192-0.205,0.174,0.031c-0.476,5.768-1.319,11.771-2.18,17.448
		C218.621,210.018,206.078,210.227,193.019,209.865z M251.978,208.889c-4.216,1.979-8.529,1.184-12.122-1.107v-0.521
		c2.392-0.359,5.202-0.988,7.65-0.206c-0.156,0.473-0.781,0.261-0.731,0.728c2.03,0.053,4.595-1.776,6.673-0.632
		C254.178,207.982,252.598,208.544,251.978,208.889z M260.462,214.758c-0.675-0.056-0.882-0.419-1.142-0.94
		c0.513-0.207,0.852,0.145,1.142,0.521V214.758z M259.893,211.531c0.314,0.567,1.092,1.349,1.301,2.079
		C260.099,213.505,260.046,212.363,259.893,211.531z M282.79,215.371c-3.757,3.04-10.478,3.571-15.884,0.664
		c-2.351-1.368-4.359-3.019-5.396-4.759c-0.45-0.754,0.355-5.005,1.762-4.954c3.179,3.49,7.083,5.002,11.608,5.049
		c0.504-0.016,0.504-0.971,0.557-1.697c-5.836-0.9-10.303-2.991-12.012-9.91c0.111-0.204,0.34-0.407,0.58-0.413
		c1.484,5.81,8.831,9.921,12.539,7.909l-0.366-0.412c-1.092,0.152-2.911,0.619-3.538-0.367c0.934-0.209,2.135-0.209,2.807-0.727
		c-1.139-0.159-2.492,0.313-3.379-0.367c0.42-0.45,1.028-0.502,1.612-0.604c2.616-0.438,5.104-3.726,6.038-8.032
		c0.519-0.367,1.288-0.604,1.721-0.731c0,2.293-1.095,5.053-2.813,7.082l0.158,0.207c2.127-1.721,2.892-4.818,3.83-7.161
		c0.466,0.052,0.901,0.289,1.269,0.604c0.277,1.646-1.829,5.238-2.747,6.828c-0.294,0.514-0.532,0.986-0.638,1.396
		c1.771-0.938,2.091-2.355,2.964-3.902c0.331-0.007,0.521,0.151,0.785,0.36c-0.785,3.069-3.946,7.342-7.485,8.062
		c-0.398,0.229,0.405,1.673,0.931,1.514c5.877-1.041,9.522-7.651,10.667-12.748c0.934-0.367,2.601-0.21,3.534,0.569
		C291.735,205.074,287.846,211.287,282.79,215.371z M267.383,198.049c-0.673-0.521-1.452-2.792,0.426-2.483l0.306,0.041v0.567
		c-0.364-0.049-0.704-0.118-0.964,0.199C266.684,197.098,268.114,197.478,267.383,198.049z M268.114,201.223
		c0.262,0.521-0.284,0.669-0.571,0.784l-0.938,0.156C266.97,201.797,267.543,201.277,268.114,201.223z M268.684,198.987
		c0.619-0.309,1.008-1.307,1.655-1.334c0.228-0.008,0.948,0.396,0.948,0.396c-0.151,1.302-1.558,1.196-2.237,2.082
		c-1.979-0.725-0.208-2.239,0-3.59C269.828,197.372,268.269,198.206,268.684,198.987z M275.605,199.56
		c0.367,0.519,1.047,0.781,1.721,0.936c-0.105,0.576-0.42,1.092-0.939,1.512C276.492,201.223,274.514,200.444,275.605,199.56z
		 M275.605,202.163c-0.414,1.352-2.131,1.244-2.444,2.286c-0.779-0.414-2.552,0.212-2.393-1.349
		c0.519,0.207,0.833,0.779,1.459,0.567c0.255-0.204,0.255-0.567,0.569-0.728C273.627,204.188,274.673,202.37,275.605,202.163z
		 M276.387,198.987c0.711,0.073,1.895-1.799,2.031-2.032c0.033,0.279,0.017,2.349-0.822,2.604
		C277.07,199.764,276.699,199.301,276.387,198.987z M278.053,196.019l-3.02-0.205c0.314-0.99,2.309-0.974,2.813-0.731
		C278.264,195.291,278.313,195.658,278.053,196.019z M275.973,197.114c-0.313,1.509-1.406,2.341-2.398,3.381h-2.806
		c0.78-0.677,2.339-0.208,3.173-1.145l-1.145-0.522C273.627,197.633,274.934,197.114,275.973,197.114z M273.161,197.318
		c-1.64-0.975-2.822-0.345-2.393-1.712l1.3-0.368c0.658-0.196,1.506-0.051,1.666,0.78
		C273.777,196.42,273.528,197.164,273.161,197.318z M269.622,204.035c-0.833,0.053-1.299-0.78-2.079-0.935
		c0.78-0.577,1.4-1.878,2.652-1.094C269.881,202.734,269.208,203.407,269.622,204.035z M284.248,199.764
		c0.362-1.505,0.728-3.014,1.089-4.525c0.938,1.303-0.101,3.073-0.361,4.525H284.248z M288.567,211.738
		c0.567-1.248,1.507-2.551,2.394-3.544c0.52,1.046-1.667,1.983-0.939,2.972c1.303-1.039,1.719-2.447,3.591-1.875
		c0.472-0.104,0.733-0.572,1.095-0.938c0.625,0.26,0.471,1.145,0.571,1.719C292.939,210.438,290.961,211.531,288.567,211.738z
		 M296.579,209.498c-0.36-2.031-0.827-4.318-0.934-5.983c-0.261-2.292-1.353-4.27-2.033-6.4c1.927,2.498,2.754,5.806,2.967,9.208
		V209.498z M322.808,204.449c0.938,1.513-2.701,1.618-0.521,2.244v0.36c-8.021,2.977-15.871,3.606-24.314,4.524
		c-0.03-2.582-1.234-9.979-1.732-12.301c-0.341-1.603-0.939-3.125-2.628-4.039c-7.081-2.104-16.349-1.363-23.874-1.304
		c-4.522,0.034-7.367,3.921-9.023,9.32c-0.954,3.12-3.349,10.059-3.349,10.059c-0.369,0.207-0.753,0.091-0.858-0.434
		c1.926-6.032,3.741-12.192,6.918-17.434c1.343-2.037,3.9-3.117,6.691-3.72c-4.218-0.854-7.55,0.652-9.89,6.401
		c-0.557,1.379-3.3,8.698-3.71,9.685c-0.423,1.019-0.901,1.969-1.675,2.625c0.778-1.872,1.687-3.499,1.893-5.581
		c-3.618-0.481-20.393-0.688-20.551-0.365c-0.134,0.266-0.196,0.59-0.23,0.936c-0.063,0.588-0.165,2.682-0.418,3.822
		c-0.063,0.271-0.188,0.224-0.173,0.028c0.509-7.992,2.053-17.269,2.408-25.852c0.625-1.927,1.751-4.271,0.939-6.141
		c-0.131,0.199-0.249,0.602-0.367,1.061c-0.178,0.675-1.499,4.296-1.596,5.502c-0.15,1.944-2.068,19.45-2.933,25.65l-0.521,0.05
		c1.46-9.108,2.348-17.365,2.764-26.731c0.833-1.873,1.421-4.287,1.68-6.423c0.476,0.051,1.183,0,1.183-0.461
		c0.05-1.926,0.008-3.801-0.458-5.62h0.458c0.192,0.246,0.325,0.384,0.501,0.536c23.188,0.278,52.352,0.652,74.803,0.037v-0.363
		c-15.459-0.523-65.213-0.729-75.88-0.729c-0.52-2.396-2.653-4.529-4.528-6.038c24.2-0.259,91.075,0.573,91.075,0.573
		c2.523,9.706,3,17.652,0.734,22.687c-0.213,2.032,2.96,4.687,0.206,5.778c-1.145,0.364-2.138,1.404-2.239,2.653l0.729,0.728
		c-0.107,2.708-1.302,5.104-1.093,7.706c-0.42-0.212-1.248-0.365-1.354,0.362C322.132,204.608,322.494,204.661,322.808,204.449z
		 M324.148,206.008l-0.402-0.466c0.313-1.507,2.234-2.145,3.02-2.808C326.871,204.294,325.296,205.488,324.148,206.008z
		 M329.576,195.446c-0.779,0.78-2.131,0.679-2.811,1.509l1.511,0.159l-1.145,3.747l-2.604,1.509
		c0.363-1.978,0.678-4.164,1.512-5.829c0.445-0.92-1.109-1.427-0.208-2.239c1.04-0.884,2.232-1.351,3.745-1.095
		C330.506,193.403,330.192,194.765,329.576,195.446z"/>
	<path d="M36.577,172.028c0.159-1.915-2.154-3.552-5.101-2.08l2.446,0.207c1.327,0.165,1.628,1.369,1.508,2.239
		C35.848,172.394,36.278,172.302,36.577,172.028z"/>
	<path d="M38.317,189.421c-0.312,0.155-0.202,0.448-0.157,0.728l1.093-0.362C39.044,189.474,38.732,189.368,38.317,189.421z"/>
	<path d="M56.248,167.5l5.621-5.411c2.577-2.458,5.646-3.272,8.919-3.711c1.838-0.244,44.649-3.844,51.189-1.544
		c-2.499-1.835-5.433-2.053-8.474-1.896c-4.632,0.235-40.435,1.973-45.15,2.831c-5.295,0.963-9.024,5.676-12.521,9.578L56.248,167.5
		z"/>
	<path d="M114.329,199.56c-3.07-0.572-6.61-0.051-9.213,1.663c6.143,0.417,13.22,0.784,19.099,1.147l0.779-0.573
		C123.344,200.147,116.988,198.377,114.329,199.56z M109.644,200.702v-0.207c4.163-0.208,7.546-0.677,11.605,0.576
		C117.033,201.223,113.963,200.807,109.644,200.702z"/>
	<path d="M113.39,195.621c4.587,0.141,7.494-3.789,5.777-8.031c-0.57-1.461-2.082-2.343-3.537-2.654
		c-0.746,1.119-0.757,0.492-1.175-0.038c-0.387-0.493-4.374-0.385-5.754,5.539C108.025,193.333,110.727,195.54,113.39,195.621z
		 M111.517,193.941c1.926,0.256,4.529-0.157,5.777-2.085l0.573,0.209C117.331,194.52,113.191,195.298,111.517,193.941z
		 M112.61,187.383h1.718c-0.885,0.674-2.655,0.729-3.02,2.234c0.17,3.07,3.733,2.095,5.83,0.21c0.051-0.73,0.051-1.82-0.781-2.444
		c-0.988-0.988-2.5-1.306-3.747-1.145c2.146-1.076,4.663,0.187,5.503,1.943c0.234,0.489,0.163,0.987-0.612,1.436
		c0.208,0.21,0.52,0.405,0.729,0.574c0.105,0.262-0.209,0.555-0.363,0.573c-0.893-0.511-1.333,0.504-2.036,1.334
		c-1.648,1.948-6.593,0.558-6.396-0.97C109.644,189.36,110.946,187.847,112.61,187.383z M115.785,189.463
		c-0.676,0.782-2.105,0.785-2.811,0.521c-0.746-0.448-0.264-1.081,0.376-1.35C114.972,187.962,115.979,188.617,115.785,189.463z"/>
	<path d="M112.369,167.919c1.773,0.339,1.752,2.942,2.896,3.902c0.396,0.207,0.883,0.26,1.3-0.363
		C116.96,169.287,114.514,167.039,112.369,167.919z M115.785,170.73l-0.155,0.154c-0.521-0.261-0.521-1.092-0.781-1.666
		C115.562,169.442,115.994,169.845,115.785,170.73z"/>
	<path d="M112.636,198.221c0.071,0.35,0.443,0.682,0.91,0.402c0.284-0.144,0.489-0.358,0.385-0.672
		C113.492,197.296,112.553,197.798,112.636,198.221z"/>
	<path d="M115.785,184.205c0.156-0.312,0.054-0.707-0.364-0.779c-0.572-0.05-0.78,0.468-0.572,0.937
		C115.06,184.624,115.611,184.425,115.785,184.205z"/>
	<path d="M138.35,179.743c-1.279,0.19-2.984,0.641-3.621,1.442c-4.788,6.611-6.764,14.002-7.86,22.329h0.365
		c1.299-6.715,3.178-14.461,6.638-19.615c0.879-1.311,1.349-2.264,3.099-2.888c3.974-1.414,10.539-1.334,14.984-1.334v-0.364
		C147.746,179.163,142.004,179.181,138.35,179.743z"/>
	<path d="M134.155,197.114h-0.573c0,3.921,0.685,6.862,3.814,10.024c0.576,0.504,0.801-0.127,1.081-0.578
		C135.92,204.179,134.533,201.432,134.155,197.114z"/>
	<path d="M152.403,208.796c1.08-0.267,2.881-1.116,3.298-2.315c-1.043,0.105-1.691,1.613-2.669,1.109l0.068-0.536
		c-6.525,2.467-13.655-0.944-15.412-3.756c-1.16-1.856-1.627-4.078-1.661-6.184c0.886,0.883,0.834,2.187,1.303,3.173
		c1.456-0.104-0.469-1.767,0.936-2.028c0.57,0.938,1.197,1.768,1.51,2.813c-0.261,0.516-0.836,0.413-1.093,0.936
		c-0.284,0.414,0.051,1.556,0.729,2.028c2.603,1.873,4.578,2.658,7.701,2.287c-0.784-0.414-2.287-0.414-1.72-1.873
		c0.576-1.094,1.926-0.261,2.655-0.935c0.988,0.521,0.367,1.353,0.523,2.027c0.363,1.925,2.302,1.523,3.381,1.151
		c3.018-1.514,5.515-4.739,5.621-7.865c-0.78,0.263-0.676,1.771-1.51,2.243c0,0-1.203-0.85-1.304-1.366
		c-0.045-0.226,0.017-1.254,0.017-1.562c0-0.317-0.063-0.56-0.584-0.458c-0.103,0.886-0.313,2.078-1.303,2.235
		c-0.053-1.039,0.83-2.443,0.78-3.538c1.252,0,2.395,0.158,3.541-0.776c0.678-2.449-0.105-5.312-2.239-7.081
		c-1.611-0.832-2.757,0.468-3.59,1.459c-0.955-0.919-1.904-0.157-2.876,0.486c-0.875,0.587-3.007,1.383-3.837-0.072
		c-0.112,1.455-2.112,3.424-3.592,2.028c1.895-2.047,5.523-4.871,7.539-3.394c0.305,0.226,0.56,0.59,0.895,0.223
		c-1.98-0.681,0.832-2.028-0.937-2.603c0.833-1.669,2.758-0.835,3.954-0.782l-0.702-0.771c-2.862-0.517-7.519-0.579-9.602,2.283
		c-0.154,0.831,0.259,1.507,0.363,2.234c-0.547,0.375-1.3,0.73-1.873,1.303c-1.04-0.781,0-1.823-0.156-2.601
		c-0.78,0.206-1.247,1.665-2.08,1.144c3.276-3.799,7.804-5.569,12.905-5.258l-0.364-0.57c-6.263-0.99-15.082,2.337-15.646,13.189
		C134.894,206.147,143.426,210.49,152.403,208.796z M147.361,185.488c0.281,0,0.562,0.102,0.847,0.383
		c0.156,0.523-0.207,1.304-0.364,1.873h-0.366c0.159-0.624,0.625-1.457-0.363-1.667c-1.72-0.206-3.226,0.576-4.162,1.877
		C142.953,186.139,146.348,185.487,147.361,185.488z M144.669,204.813c-1.664,1.387-4.556-1.197-4.821-1.61
		c-0.397-0.621-0.458-1.419,0.502-1.563c0.159-0.022,0.259,0.157,0.207,0.367c0,0-0.862,0.427,0.812,1.741
		c0.754,0.596,1.559,1.064,2.52,1.064c0.26-0.036,0.57-0.416,0.57-0.777c-0.051-0.287,0.156-0.287,0.241-0.059
		C144.785,204.205,144.746,204.661,144.669,204.813z M145.202,203.055c-1.376-0.331-2.583-1.163-3.915-0.685l-0.363-1.875
		c0.039-0.158,0.282-0.112,0.39-0.009c0.754-1.328-1.434-1.604-1.173-3.168c0.865-0.144,1.863,0,2.412,0.447
		c0.212,0.17,3.077,2.247,4.926,3.457c-1.093,1.612-3.589-0.728-4.112,0.574c1.116,1.304,4.053,0.443,5.208,0.366
		C148.26,203.101,145.454,203.101,145.202,203.055z M148.986,201.223l-1.143-1.302l2.08-2.029c0.159,0.784,0.523,1.515,0.366,2.396
		C150.123,200.788,149.562,201.329,148.986,201.223z M152.165,200.861c0,1.302-1.793,2.188-2.813,2.446
		C150.29,202.576,151.332,201.851,152.165,200.861z M154.607,201.797l-0.207-0.574c0.104-0.361,0.729,0.055,0.936,0.417
		c-0.103,1.095-1.299,1.982-1.143,2.969c-1.356-0.314-3.072,2.239-4.111,0.778c0.352-0.378,0.915-0.497,1.443-0.646
		C152.772,204.39,153.791,202.92,154.607,201.797z M154.4,189.256c0.883,0.673,1.269,1.943,2.08,2.236
		c-0.673,1.301,0.989,3.695-1.351,3.954c1.483-1.301,0.531-4.291-0.364-5.255c-0.728-1.095-2.031,0.364-2.811,0.364
		C152.475,189.878,153.412,189.256,154.4,189.256z M151.59,192.636c0.818,0.238,0.811,0.994,0.97,1.676
		c0.084,0.357,0.698,0.719,0.905,0.771c0.416,0.834-0.574,1.197-0.729,1.873c-0.254,0.896-0.052,1.927-0.937,2.604
		c-0.52-0.523-0.836-1.403-0.939-2.241l1.748-1.172l-2.161-1.478C150.706,193.941,151.279,193.313,151.59,192.636z M144.459,193.574
		c0.886-0.726,2.345-1.096,3.385-0.367c0.31,0.211,0.573,0.681,0.937,0.734c0.363-0.213,0.156-0.734-0.208-0.94l-1.095-0.936
		c0.835-0.676,2.032-1.874,3.381-1.146c0.103,1.352-0.986,2.809-1.873,3.749c0.524,1.35,0,3.435-1.716,3.954
		c-1.14,0.283-2.915-0.574-3.748-1.668C143.146,195.718,143.731,194.511,144.459,193.574z M140.713,193.574l2.433-0.063
		c-1.252,0.964-0.905,2.007-0.923,2.871c-1.25-0.258-2.603-0.258-3.746-0.776C138.941,194.669,139.621,193.729,140.713,193.574z
		 M139.414,190.556l0.364,0.364c-1.98,0.414-2.337,5.149-2.134,5.673c0.125,0.33,0.179,0.642-0.102,0.885
		C136.666,194.662,137.568,191.953,139.414,190.556z"/>
	<path d="M156.85,207.26c-5.39,5.915-15.356,2.432-18.012-0.412l-0.36,1.139c4.853,5.131,14.774,5.752,19.461,0.939
		C158.253,208.217,157.6,207.865,156.85,207.26z"/>
	<path d="M143.366,200.131c-0.519-0.313-1.074,0.657-0.936,1.092h0.936V200.131z"/>
	<path d="M147.115,197.478c0.363-0.105,0.988-0.522,0.729-1.095c-0.574,0.521-1.144,0.624-1.873,0.367
		c-1.454-0.639-0.223-3.271,0.937-2.809c-0.242-0.358-0.736-0.558-1.358-0.199C143.366,195.005,144.896,198.081,147.115,197.478z"/>
	<path d="M148.573,194.877c0-0.208,0.052-0.473-0.156-0.575c-0.353-0.112-0.78,0.053-0.573,0.575H148.573z"/>
	<path d="M156.419,185.653c-1.195-0.986-2.99-2.152-4.29-1.483c1.611,0.211,3.287,1.585,4.144,2.068L156.419,185.653z"/>
	<path d="M152.891,186.653l0.78,0.154v-0.73C153.155,185.818,153.032,186.458,152.891,186.653z"/>
	<path d="M152.857,179.254l0.033,0.424c3.959-0.103,7.462-0.053,11.261,0.779c3.746,0.871,4.42,4.005,4.618,4.241
		c0.261,0.312,0.624,0.176,0.521-0.249C167.814,178.441,158.73,179.205,152.857,179.254z"/>
	<path d="M159.083,199.351c-0.521,1.979-1.09,4.005-2.443,5.623c-0.167,0.308-0.104,0.621,0.21,0.78
		c1.454-1.771,2.583-4.008,2.634-6.296C159.328,199.406,159.186,199.301,159.083,199.351z"/>
	<path d="M160.022,192.065c-0.162-1.966-0.741-4.257-3.019-5.622l-0.363,0.364c1.212,1.409,2.619,3.211,2.568,5.397
		C159.521,192.152,159.785,192.057,160.022,192.065z"/>
	<path d="M159.812,186.077c-0.363-0.05-0.677,0.052-0.937,0.366c1.787,1.833,2.614,4.148,2.839,6.588
		c0.302,3.226-1.431,12.092-4.139,13.816c0.553,0.137,0.812,0.291,1.279,1.018c1.957-1.035,4.708-9.205,4.098-15.012
		C162.697,190.416,161.796,188.102,159.812,186.077z"/>
	<path d="M160.438,194.106c-0.049-0.383-0.241-0.679-0.779-0.741c0.153,1.251-0.21,3.385-0.366,4.684l0.52,0.21
		C159.812,198.259,160.64,195.705,160.438,194.106z"/>
	<path d="M184.013,137.369c-1.511,4.421-3.121,9.053-6.92,12.335c-0.625,0.623-1.821,0.988-1.874,1.872
		c1.715,0.574,6.652,1.176,7.493,1.351c0.583-1.12-0.998-0.647-1.921-1.128c-0.522-0.273-0.692-0.794,0.429-0.904
		c2.076-0.208,4.49,0.973,6.333-0.777c1.039-2.809-2.016-9.529-2.478-10.253c-0.32-0.504-0.573-1.008-0.488-1.559
		c2.507,2.092,4.574,9.199,4.334,11.266c-0.099,0.877-0.225,2.076-1.004,2.418c-0.521,0.266-1.456,0.523-1.665,0.937
		c1.945,0.109,3.738-0.083,3.361-4.42c-0.175-2.008-2.082-10.454-6.745-12.44C182.815,136.746,183.648,136.953,184.013,137.369z
		 M180.419,149.91h-0.937c0-0.206,0-0.469,0.212-0.572c0.312-0.106,0.697,0.151,0.725,0.367V149.91z M185.313,142.21
		c0.467,2.497,2.137,4.684,0.938,7.127c-1.459,0.52-3.021,0.729-4.321-0.157C183.284,146.738,184.065,144.707,185.313,142.21z
		 M181.356,148.402c-0.336,0.586-0.676,0.366-0.938,0.208c0.573-1.355,2.915-6.453,3.961-7.86
		C184.013,143.097,182.765,146.009,181.356,148.402z"/>
	<path d="M184.38,153.087c0.463,0.155,0.728-0.21,1.144-0.367l-0.34-0.597C184.61,151.343,183.494,152.72,184.38,153.087z"/>
	<path d="M192.601,139.608c-1.094-0.005-1.421,1.525-1.096,2.443l3.385,9.733h3.171c-0.155-4.424-1.194-7.751-1.299-12.176H192.601z
		 M195.618,151.054c-1.251-1.822-3.051-8.346-3.197-9.294c-0.109-0.709,0.078-1.21,1.115-1.215h2.29
		c0.425,3.549,1.403,7.112,1.433,10.401C196.84,151.102,196.191,151.161,195.618,151.054z"/>
	<path d="M226.53,203.515l0.819,0.059C227.35,202.962,226.771,203.276,226.53,203.515z"/>
	<path d="M228.928,203.174l0.051,0.341h0.729C229.604,203.149,229.181,203.111,228.928,203.174z"/>
	<path d="M323.497,176.871l3.062-0.006v-0.361c-10.876-0.415-67.689-0.387-86.703-0.727l-0.333,0.589
		c0.475,0.054,1.053,0.176,0.851,0.919L323.497,176.871z"/>
	<path d="M324.891,183.844c-7.967-3.837-30.248-1.368-35.961,0l-0.781-0.938c-3.798-0.416-7.076-0.053-10.822,0.363
		c-13.013,1.873-25.09,5.986-36.743,11.032c2.025-0.467,7.592-2.529,8.396-2.781c12.145-3.776,24.585-7.593,37.715-7.886
		c1.04,1.095-0.99,0.886-1.357,1.664c-0.112,0.228,0,0.469,0.213,0.572c11.145-2.013,22.966-4.08,34.483-2.934
		C320.856,183.021,324.299,183.9,324.891,183.844z"/>
	<path d="M282.944,211.166c-4.133,3.803-11.433,2.757-14.265,1.309c-1.371-0.694-2.612-1.685-3.949-2.402
		c3.364,6.487,16.093,6.998,20.245,0.365c0.548-0.912,1.456-1.719,0.933-2.656C284.665,208.719,284.144,210.127,282.944,211.166z"/>
	<path d="M271.368,191.53c-0.154,0.155-0.229,0.261-0.127,0.571l15.182,0.479l0.271-0.516
		C281.958,191.646,276.679,191.11,271.368,191.53z"/>
	<path d="M299.392,203.88c-0.697-2.937-1.148-6.292-2.616-9.171c-0.818-1.59-5.066-2.719-8.919-2.652
		c-0.275,0.072-0.377,0.391-0.275,0.65c3.719,0.479,6.997,0.412,8.271,2.739c2.238,5.31,2.6,9.215,3.018,14.78
		c7.6,0.158,14.987-1.508,21.913-3.533v-0.213c-6.724,1.338-13.754,2.85-20.776,2.642c0,0-0.474-3.093-0.478-4.446
		c0.886,0.679,0.693,2.271,1.008,3.105c7.024,0.832,14.625-1.195,21.544-2.602C320.61,205.021,299.713,205.165,299.392,203.88z"/>
	<polygon points="322.595,171.147 322.654,170.73 315.849,170.641 315.867,170.898 	"/>
</g>
</svg>
