<?xml version="1.0" encoding="utf-8"?>
<!-- Generator: Adobe Illustrator 16.0.0, SVG Export Plug-In . SVG Version: 6.00 Build 0)  -->
<!DOCTYPE svg PUBLIC "-//W3C//DTD SVG 1.1//EN" "http://www.w3.org/Graphics/SVG/1.1/DTD/svg11.dtd">
<svg version="1.1" id="Layer_1" xmlns="http://www.w3.org/2000/svg" xmlns:xlink="http://www.w3.org/1999/xlink" x="0px" y="0px"
	 width="350px" height="350px" viewBox="0 0 350 350" enable-background="new 0 0 350 350" xml:space="preserve">
<g>
	<path fill="#E84766" d="M151.377,278.383c-1.417,4.237-2.517,8.967-1.471,13.418c1.142,4.859,5.074,8.193,9.984,8.832
		c2.735,0.356,5.535-0.085,8.198-0.736c2.644-0.646,5.853-1.37,7.889-3.302c4.997-4.74,0.133-11.195-4.607-13.652
		c-4.858-2.518-10.943-3.026-16.097-1.101c-5.25,1.962-10.188,6.939-6.837,12.795c2.786,4.869,9.046,6.394,14.078,4.484
		c2.66-1.009,4.885-2.609,7.04-4.442c2.319-1.974,4.89-4.285,5.064-7.542c0.363-6.814-8.197-8.555-13.359-9.123
		c-5.706-0.627-12.543,2.007-13.628,8.291c-0.974,5.64,4.681,10.603,10.182,9.301c6.005-1.421,7.449-9.396,4.337-13.992
		c-3.247-4.795-10.833-5.321-14.342-0.499c-3.943,5.421,0.763,10.921,5.905,12.882c5.509,2.1,12.214,1.835,17.904,0.735
		c5.245-1.013,12.9-3.413,15.769-8.352c3.791-6.53-3.11-13.173-9.624-12.777c-3.549,0.216-6.568,2.007-9.268,4.183
		c-2.523,2.033-5.299,4.42-5.509,7.895c-0.4,6.609,6.964,9.42,12.481,8.976c7.061-0.569,13.66-3.521,18.775-8.419
		c2.77-2.651,1.068-6.641-2.075-7.862c-8.601-3.341-19.524,0.357-23.981,8.512c-1.223,2.236-0.579,5.201,1.706,6.507
		c7.19,4.106,16.015,2.249,22.599-2.218c6.569-4.456,10.76-11.59,17.413-15.881c-0.817,0.221-1.636,0.441-2.453,0.663
		c-1.701-0.404-2.625-1.368-2.771-2.895c-0.013,0.57-0.012,0.636,0.003,0.196c-0.314,0.289-0.099,0.472-0.351,0.873
		c-0.277,0.443-2.125,2.068-2.944,2.812c-2.677,2.428-5.448,4.743-8.417,6.807c-5.794,4.027-12.255,7.324-19.302,8.388
		c-9.921,1.497-23.369-2.841-25.816-13.27c-3.304,0.911-6.607,1.821-9.911,2.732c4.966,12.956,18.527,19.335,31.773,19.942
		c15.541,0.712,31.278-6.876,44.426-14.446c7.05-4.059,13.678-10.28,11.936-19.124c-0.537-2.725-3.788-4.286-6.322-3.589
		c-2.843,0.781-4.127,3.589-3.589,6.321c0.137,0.693-0.101,1.372-0.68,2.236c-0.706,1.053-1.688,1.975-2.678,2.769
		c-2.935,2.353-6.503,3.961-9.83,5.661c-7.4,3.781-14.974,7.296-23.15,9.021c-6.715,1.418-13.538,1.189-20.016-1.155
		c-4.958-1.794-10.035-5.346-11.959-10.368c-2.331-6.08-11.451-3.829-9.911,2.732c2.167,9.23,9.828,15.485,18.395,18.654
		c9.042,3.344,19.142,2.77,28.055-0.682c9.888-3.828,19.365-10.505,26.613-18.254c2.942-3.146,4.727-8.303,2.209-12.219
		c-1.447-2.25-4.455-3.405-7.056-2.691c-2.544,0.699-5.03,3.242-6.912,5.004c-3.937,3.684-7.157,8.365-11.602,11.471
		c-3.61,2.522-8.772,4.657-12.953,2.296c0.569,2.169,1.137,4.337,1.706,6.507c2.558-4.734,8.455-6.083,13.267-4.24
		c-0.691-2.621-1.383-5.241-2.075-7.862c-3.444,3.33-9.225,6.475-14.22,5.803c0.042,0.006-1.939-0.593-1.847-0.646
		c1.348-0.785,0.452,1.847,0.532,1.947c-0.051,0.156-0.102,0.313-0.153,0.469c0.328-0.356,0.672-0.694,1.034-1.015
		c1.313-1.232,3.676-3.733,5.689-3.329c0.193,0.039,0.672,0.391,0.814,0.366c-0.294,0.052,0.266-1.214,0.033-1.425
		c0.053,0.048-2.432,1.531-2.606,1.622c-2.524,1.312-5.29,2.16-8.084,2.664c-2.662,0.479-5.448,0.545-8.138,0.275
		c-1.085-0.108-2.188-0.26-3.237-0.564c-0.399-0.116-2.01-1.035-2.212-0.969c0.206-0.068-0.207,2.118-0.151,1.824
		c-0.05,0.267-0.228-0.321-0.098,0.207c-0.23-0.935,0.125,1.138-0.163,0.871c0.113,0.104,1.183-0.765,1.345-0.66
		c0.019,0.012,0.057,0.678,0.122,0.678c0.308-0.005,1.686-1.035,2.179-1.115c1.475-0.238,3.081,0.095,4.508,0.41
		c0.336,0.074,3.234,1.032,3.383,0.912c0.061,0.013,0.122,0.026,0.183,0.039c-0.116-0.551-0.232-1.103-0.347-1.653
		c-0.301-0.03-1.716,1.648-1.989,1.894c-1.547,1.393-3.574,3.222-5.758,3.451c-0.732,0.077-1.465-0.052-2.091-0.458
		c-1.125-0.729-0.39-0.862-0.799-0.328c1.181-1.54,4.137-2.128,5.927-2.255c2.534-0.18,5.164,0.345,7.322,1.717
		c0.435,0.276,0.83,0.737,1.261,0.988c0.226,0.188,0.395,0.422,0.509,0.698c0.245-0.71,0.047-0.766-0.591-0.166
		c-1.509,0.423-2.964,1.247-4.476,1.72c-2.634,0.823-5.911,1.588-8.46,0.093c-4.586-2.691-2.799-10.082-1.711-14.186
		C155.97,276.916,152.202,275.916,151.377,278.383L151.377,278.383z"/>
	<path fill="#1D1D1B" d="M60.042,108.107c1.18-0.958,1.663-2.512,2.324-3.861c0.779-1.59,1.456-3.23,2.208-4.835
		c1.388-2.963,2.902-5.867,4.532-8.705c3.461-6.025,7.389-12.204,12.129-17.315c2.561-2.762,5.575,0.407,7.63,2.342
		c2.77,2.608,5.522,5.236,8.294,7.842c5.665,5.327,11.357,10.625,17.036,15.938c3.259,3.048,8.194-1.883,4.901-4.901
		c-6.589-6.039-13.158-12.101-19.78-18.104c-4.813-4.362-12.579-14.066-19.878-8.996c-2.912,2.023-4.862,5.697-6.746,8.62
		c-2.195,3.406-4.219,6.922-6.061,10.531c-1.768,3.463-3.366,7.013-4.801,10.627c-1.172,2.952-3.506,7.365-2.707,10.575
		C59.231,108.3,59.737,108.355,60.042,108.107L60.042,108.107z"/>
	<path fill="#1D1D1B" d="M116.657,97.592c3.922,0.662,8.323-0.061,12.282-0.301c4.021-0.244,8.042-0.493,12.063-0.748
		c8.377-0.53,16.75-1.101,25.122-1.728c16.738-1.253,33.482-2.443,50.204-3.91c2.865-0.251,2.872-4.773,0-4.494
		c-16.735,1.629-33.456,3.363-50.204,4.85c-8.375,0.744-16.748,1.498-25.122,2.249c-4.021,0.36-8.042,0.715-12.063,1.065
		c-3.965,0.345-8.485,0.23-12.282,1.45C115.958,96.249,115.813,97.449,116.657,97.592L116.657,97.592z"/>
	<path fill="#1D1D1B" d="M216.025,89.681c1.554-2.921,2.219-6.306,3.153-9.462c1.064-3.595,2.154-7.186,3.323-10.748
		c2.283-6.959,5.324-13.771,7.208-20.847c0.583-2.191-2.839-3.829-3.801-1.603c-2.902,6.716-4.536,14.06-6.416,21.112
		c-0.924,3.465-1.856,6.927-2.728,10.406c-0.874,3.489-2.11,7.145-2.121,10.768C214.643,90.024,215.675,90.34,216.025,89.681
		L216.025,89.681z"/>
	<path fill="#1D1D1B" d="M224.989,47.736c1.775,2.082,4.415,3.517,6.617,5.106c2.418,1.745,4.715,3.667,7.079,5.484
		c4.609,3.543,9.088,7.277,13.271,11.316c7.998,7.722,14.878,16.472,18.859,26.956c1.469,3.869,7.661,2.318,6.314-1.741
		c-3.775-11.385-11.596-20.93-20.648-28.624c-4.641-3.943-9.573-7.539-14.632-10.925c-2.581-1.728-5.268-3.239-7.902-4.875
		c-2.519-1.563-5.074-3.592-7.936-4.456C224.939,45.654,224.347,46.983,224.989,47.736L224.989,47.736z"/>
	<path fill="#1D1D1B" d="M62.965,98.78c-17.51,29.964-24.264,68.33-14.969,102.053c4.72,17.124,13.349,33.876,26.127,46.35
		c13.234,12.918,29.866,22.039,47.311,27.91c35.065,11.798,74.352,10.229,108.2-4.73c30.132-13.315,56.351-37.774,69.519-68.214
		c15.132-34.977,4.037-73.853-16.277-104.266c-2.664-3.988-5.483-7.776-8.62-11.403c-2.855-3.301-8.393,0.997-6.044,4.664
		c9.599,14.988,19.102,29.82,24.47,46.949c4.959,15.822,6.457,32.74,2.232,48.91c-3.948,15.109-12.463,29.19-22.606,40.95
		c-10.228,11.855-22.529,21.77-36.217,29.359c-30.154,16.719-66.524,20.997-100.01,13.269
		c-16.814-3.881-33.065-10.767-47.139-20.817c-13.879-9.911-24.883-23.689-31.531-39.401c-13.468-31.831-9.274-67.653,2.882-99.177
		c1.497-3.882,2.847-7.816,4.377-11.686C65.065,98.499,63.485,97.891,62.965,98.78L62.965,98.78z"/>
	<path fill="#1D1D1B" d="M209.035,85.886c-1.568,0.817-3.436,1.578-5.68,2.281c-20.164,6.31-42.78,6.585-63.827,5.772
		c-23.575-0.91-31.048,0.401-44.954-18.538c-3.058-4.164-9.201-7.281-13.907-4.746c-1.931,1.041-3.228,2.833-4.36,4.612
		c-8.408,13.205-11.411,28.673-14.001,43.803c-4.849,28.322-8.74,57.423-2.456,85.503s24.485,55.352,52.994,66.715
		c8.396,3.348,17.396,5.229,26.431,6.538c33.199,4.809,68.268,1.807,98.37-11.988c30.102-13.796,54.661-39.045,62.628-69.192
		c6.095-23.063,2.376-47.718-7.123-69.777c-9.497-22.059-24.513-41.759-41.17-59.841c-6.233-6.767-17.503-20.852-25.627-13.199
		C212.88,66.524,223.183,78.508,209.035,85.886z"/>
	<path fill="#FFFFFF" d="M234.649,124.299c-4.09,3.295-3.387,10.018-0.68,13.945c1.247,1.81,3.896,2,5.104,0
		c2.535-4.194,2.063-8.517,0.805-13.021c-0.964-3.451-5.112-3.435-7.007-0.916c-2.956,3.931-2.937,9.519-0.098,13.505
		c1.294,1.816,3.606,2.683,5.657,1.483c1.738-1.017,2.855-3.877,1.483-5.658c-1.362-1.768-1.652-3.523-0.423-5.461
		c-2.007,0.258-4.014,0.517-6.021,0.775c1.488,1.79,0.799,5.063,0.2,7.015c1.646-0.435,3.294-0.87,4.94-1.304
		c-2.935-2.584-2.672-5.626-1.806-9.108C237.139,124.221,235.616,123.52,234.649,124.299L234.649,124.299z"/>
	<path fill="#FFFFFF" d="M86.615,134.402c-1.359,3.418-0.611,7.406,0.926,10.643c0.497,1.046,1.938,1.514,3,1.22
		c2.951-0.815,5.386-3.379,6.271-6.29c0.945-3.106,0.114-6.842-3.167-8.119c-2.955-1.149-6.701,0.209-8.367,2.902
		c-2.086,3.372-0.789,7.122,0.736,10.397c0.815,1.75,2.955,2.18,4.642,1.889c5.081-0.875,6.562-7.308,3.292-10.826
		c-3.673-3.953-9.579,1.974-5.916,5.915c-0.438-0.438-0.605-0.942-0.5-1.514c0.058-0.695,0.031-0.771-0.083-0.227
		c0.135-0.385,0.553-1.171,1.02-1.275c1.547,0.629,3.095,1.259,4.642,1.889c-0.257-0.489-0.531-0.968-0.72-1.485
		c-0.095-0.259-0.116-0.801-0.231-0.961c0.06,0.084-0.186,0.309-0.32,0.407c0.571-0.417,0.196,0.063,0.003-0.088
		c-0.217-0.172-1.198-0.736-1.192-0.739c0.062-0.037-0.185,1.039-0.22,1.125c-0.378,0.949-1.145,1.556-1.94,2.147
		c1.073,0.138,2.146,0.277,3.219,0.415c-2.116-2.002-2.811-4.264-2.938-7.131C88.717,133.398,87.063,133.274,86.615,134.402
		L86.615,134.402z"/>
	<path fill="#E84766" d="M171.271,183.05c-3.377,6.508-2.903,13.195-0.828,20.029c0.52,1.71,2.296,2.288,3.827,1.557
		c3.751-1.79,5.914-6.677,6.467-10.565c0.609-4.295-0.365-8.778-3.014-12.258c-1.475-1.938-5.083-2.809-6.358,0
		c-3.378,7.442-4.049,16.16-0.154,23.558c1.86,3.533,7.656,1.11,6.465-2.726c-1.773-5.716-2.433-11.473,0.047-17.115
		c-1.927,0.248-3.855,0.496-5.782,0.745c1.754,2.026,2.535,4.695,2.29,7.36c-0.285,3.097-1.98,4.932-3.526,7.438
		c1.364-0.176,2.728-0.352,4.092-0.527c-3.758-4.521-3.272-11.354-1.124-16.481C174.25,182.689,171.951,181.74,171.271,183.05
		L171.271,183.05z"/>
	<path fill="#FFFFFF" d="M165.334,165.994c1.097,2.191,2.164,5.156,2.305,7.637c0.156,2.735-0.635,5.588-2.345,7.758
		c-1.567,1.988-3.714,3.471-6.271,3.704c-1.521,0.139-4.536-0.035-5.104-1.78c-1.542-4.743-9.026-2.738-7.514,2.071
		c3.199,10.17,17.459,8.605,23.035,1.57c2.754-3.474,3.941-8.073,3.419-12.456c-0.249-2.093-0.823-4.264-1.965-6.06
		c-0.517-0.813-1.169-1.625-1.873-2.285c-0.922-0.867-1.679-0.896-2.771-1.354C165.538,164.501,165.055,165.435,165.334,165.994
		L165.334,165.994z"/>
	<path fill="#FFFFFF" d="M168.736,169.019c-2.211,3.577-0.31,8.395,2.077,11.356c3.161,3.925,7.34,6.56,12.542,6.406
		c10.517-0.312,17.69-10.798,16.326-20.669c-0.675-4.882-8.558-2.941-7.56,2.084c1.139,5.737-3.396,11.344-8.894,12.49
		c-3.083,0.644-7.01-0.267-9.466-2.291c-2.893-2.385-3.349-5.459-3.422-8.942C170.321,168.594,169.186,168.29,168.736,169.019
		L168.736,169.019z"/>
	<path fill="#FFFFFF" d="M171.522,159.844c-3.074-3.334-8.659-2.731-11.635,0.479c-4.493,4.848,2.094,11.095,7.221,11.324
		c5.288,0.236,10.06-5.67,7.331-10.679c-1.824-3.35-5.339-2.671-8.444-1.68c-3.113,0.993-5.899,2.648-8.294,4.864
		c-2.26,2.092-0.922,5.593,1.712,6.486c2.847,0.963,6.189,0.639,8.616-1.202c1.694-1.285,2.582-3.401,1.415-5.396
		c-1.062-1.814-3.573-2.531-5.396-1.415c-0.854,0.522-1.587,0.768-2.572,0.528c0.571,2.162,1.142,4.324,1.712,6.486
		c2.324-2.563,5.137-3.923,8.534-4.484c-1.116-0.295-2.232-0.59-3.348-0.885c0.735,0.671,0.078,0.094,0.136-0.184
		c-0.12,0.582,0.052,0.335-0.029,0.442c-0.307,0.398-0.441,0.771-0.959,0.945c-1.916,0.645-3.781-1.668-4.458-3.109
		c0.087,0.667,0.174,1.334,0.261,2.001c0.704-2.834,4.678-3.445,7.011-2.484C171.543,162.378,172.269,160.653,171.522,159.844
		L171.522,159.844z"/>
	<path fill="#1D1D1B" d="M139.409,274.796c-3.213,6.275-0.769,13.893,3.551,19.024c5.388,6.399,14.013,9.214,22.091,10
		c15.735,1.531,32.308-4.059,44.759-13.557c6.844-5.222,12.661-11.646,16.733-19.259c2.146-4.009-3.896-7.566-6.108-3.57
		c-6.287,11.356-16.392,20.093-28.271,25.238c-5.985,2.593-12.479,4.334-18.979,4.906c-7.157,0.63-14.986,0.281-21.482-3.096
		c-7.007-3.643-11.442-10.708-9.891-18.675C142.081,274.433,140.13,273.389,139.409,274.796L139.409,274.796z"/>
	<path fill="#FFFFFF" d="M234.338,64.509c-1.391,5.949-2.781,11.898-4.173,17.848c7.323,0.712,14.646,1.424,21.97,2.136
		c-0.47-8.36-6.076-16.313-14.164-20.095L234.338,64.509z"/>
	<path fill="#FFFFFF" d="M77.647,100.543c-0.372-6.292,0.582-12.648,2.794-18.609c0.736-1.984,2.082-4.249,4.352-4.315
		c4.684,5.27,8.849,10.935,12.425,16.899c0.292,0.487,0.588,1.01,0.55,1.565c-0.067,0.957-1.062,1.596-1.954,2.087
		c-4.014,2.21-9.14,4.431-13.073,2.101c-1.774-1.052-4.19-2.883-5.479-1.342L77.647,100.543z"/>
	<path fill="#FFFFFF" d="M240.311,169.467c4.211-1.965,8.093-3.909,12.776-4.531c4.473-0.594,8.984-0.223,13.305,1.049
		c3.727,1.097,5.364-4.871,1.602-5.808c-9.757-2.432-22.464-1.014-30.028,6.249C236.29,168.034,238.409,170.354,240.311,169.467
		L240.311,169.467z"/>
	<path fill="#FFFFFF" d="M248.747,179.229c3.575-0.084,7.146-0.738,10.689-1.201c3.173-0.414,2.613-4.941-0.591-4.366
		c-3.523,0.632-7.131,1.089-10.569,2.093C246.397,176.304,246.708,179.277,248.747,179.229L248.747,179.229z"/>
	<path fill="#FFFFFF" d="M109.917,169.318c-8.093-2.007-16.624-2.792-24.903-3.699c-3.222-0.353-3.238,4.761,0,5.067
		c8.097,0.765,16.399,1.678,24.535,1.354C111.065,171.98,111.488,169.707,109.917,169.318L109.917,169.318z"/>
	<path fill="#FFFFFF" d="M104.357,179.864c-5.694,0.816-11.36,2.798-16.909,4.291c-2.702,0.728-1.529,5.01,1.157,4.195
		c5.649-1.714,11.614-3.087,17.023-5.472C107.494,182.057,106.025,179.626,104.357,179.864L104.357,179.864z"/>
</g>
</svg>
