<?xml version="1.0" encoding="utf-8"?>
<!-- Generator: Adobe Illustrator 16.0.0, SVG Export Plug-In . SVG Version: 6.00 Build 0)  -->
<!DOCTYPE svg PUBLIC "-//W3C//DTD SVG 1.1//EN" "http://www.w3.org/Graphics/SVG/1.1/DTD/svg11.dtd">
<svg version="1.1" id="Capa_1" xmlns="http://www.w3.org/2000/svg" xmlns:xlink="http://www.w3.org/1999/xlink" x="0px" y="0px"
	 width="350px" height="350px" viewBox="0 0 350 350" enable-background="new 0 0 350 350" xml:space="preserve">
<g>
	<polygon fill="#B27C4F" points="93.872,278.455 62.558,264.988 62.558,58.5 93.872,58.5 	"/>
	<path fill="#A46F3E" d="M127.768,211.665c0,0,0-0.31,0-0.467c0-10.643,35.745-19.271,79.835-19.271
		c4.614,0,9.111,0.117,13.511,0.296l12.017-45.068V58.5H94.012v219.955h69.928C142.173,264.194,127.768,239.626,127.768,211.665z"/>
	<path fill="#F9EA80" d="M152.335,162.768h-16.42c-13.242,0-23.979-10.737-23.979-23.979v-16.42h16.42
		c13.242,0,23.979,10.737,23.979,23.979V162.768z"/>
	<path fill="#F9EA80" d="M170.291,162.768h16.42c13.243,0,23.98-10.737,23.98-23.979v-16.42h-16.421
		c-13.242,0-23.979,10.737-23.979,23.979V162.768z"/>
	<path fill="#F9EA80" d="M161.282,142.568l11.612-11.613c9.364-9.364,9.364-24.545,0-33.909l-11.612-11.612l-11.613,11.612
		c-9.364,9.364-9.364,24.545,0,33.909L161.282,142.568z"/>
	<path fill="#EFE7D0" d="M238.747,193.449l16.833-63.127c0-2.469-2.021-4.489-4.489-4.489h-8.978c-2.469,0-4.489,2.02-4.489,4.489
		l-16.505,61.901c-4.399-0.185-8.897-0.296-13.512-0.296c-44.095,0-79.835,8.628-79.835,19.271c0,0.157,0,0.467,0,0.467
		c0,44.095,35.745,79.835,79.835,79.835c44.094,0,79.835-35.745,79.835-79.835c0,0,0-0.31,0-0.467
		C287.442,203.222,267.368,196.381,238.747,193.449z"/>
	<path fill="#FFF5BB" d="M238.747,193.449l16.833-63.127c0-2.469-2.021-4.489-4.489-4.489h-8.978c-2.469,0-4.489,2.02-4.489,4.489
		l-16.505,61.901c-4.399-0.185-8.897-0.296-13.512-0.296c-44.095,0-79.835,8.628-79.835,19.271
		c0,10.644,35.745,19.271,79.835,19.271c44.094,0,79.835-8.627,79.835-19.271C287.442,203.222,267.368,196.381,238.747,193.449z"/>
	<path fill="#D2D5D7" d="M238.747,193.449l16.833-63.127c0-2.469-2.021-4.489-4.489-4.489h-8.978c-2.469,0-4.489,2.02-4.489,4.489
		l-16.505,61.901l-2.945,11.231l17.395,3.178L238.747,193.449z"/>
	<path fill="#ED8F20" d="M188.247,215.611h-8.979c0-2.479-2.016-4.489-4.489-4.489s-4.489,2.011-4.489,4.489h-8.978
		c0-7.425,6.042-13.467,13.466-13.467S188.247,208.187,188.247,215.611z"/>
	<path fill="#ED8F20" d="M224.157,220.1h-8.978c0-2.478-2.016-4.488-4.488-4.488c-2.474,0-4.489,2.011-4.489,4.488h-8.978
		c0-7.425,6.042-13.467,13.467-13.467C218.115,206.633,224.157,212.675,224.157,220.1z"/>
</g>
</svg>
