<?xml version="1.0" encoding="utf-8"?>
<!-- Generator: Adobe Illustrator 16.0.0, SVG Export Plug-In . SVG Version: 6.00 Build 0)  -->
<!DOCTYPE svg PUBLIC "-//W3C//DTD SVG 1.1//EN" "http://www.w3.org/Graphics/SVG/1.1/DTD/svg11.dtd">
<svg version="1.1" id="Layer_1" xmlns="http://www.w3.org/2000/svg" xmlns:xlink="http://www.w3.org/1999/xlink" x="0px" y="0px"
	 width="350px" height="350px" viewBox="0 0 350 350" enable-background="new 0 0 350 350" xml:space="preserve">
<g>
	<path fill="#CCBB9B" d="M287.258,258.924c0,12.869-45.938,23.301-102.6,23.301c-56.663,0-102.596-10.432-102.596-23.301
		c0-12.871,45.933-23.301,102.596-23.301C241.32,235.623,287.258,246.053,287.258,258.924"/>
	<polygon fill="#E6E6E6" stroke="#F6F7F9" stroke-width="1.1498" stroke-miterlimit="10" points="76.451,69.67 191.49,64.27 
		291.844,123.381 290.391,135.539 276.885,136.784 264.834,141.148 231.383,137.976 207.697,127.434 166.35,125.148 
		132.672,106.293 95.706,96.741 82.617,80.893 	"/>
	<path fill="#FF6269" d="M77.428,68.926c0,0-10.991,7.475-4.576,15.292c0,0,5.74,4.779,9.765-3.324c0,0-4.362,14.543,13.505,24.309
		c0,0,15.96,7.168,36.549,1.091C132.672,106.293,79.448,89.672,77.428,68.926"/>
	<path fill="#F6F7F9" stroke="#F6F7F9" stroke-width="1.3334" stroke-miterlimit="10" d="M83.113,79.9
		c-1.87-2.752-5.188-5.879-5.685-10.975c0,0-10.991,7.475-4.576,15.292c0,0,5.74,4.778,9.764-3.325L83.113,79.9z"/>
	<path fill="#F6F7F9" stroke="#F6F7F9" stroke-width="1.3334" stroke-miterlimit="10" d="M132.672,106.293
		c0,0,44.48,18.231,75.025,21.142C207.697,127.435,158.454,150.29,132.672,106.293"/>
	<path fill="#FF6269" d="M294.184,127.435c0,0,2.648,14.854-9.238,18.257c0,0-10.24,1.43-8.527-7.727
		c0,0-11.531,13.208-33.816,10.074c0,0-27.27-3.88-34.904-20.604C207.697,127.435,261.926,150.394,294.184,127.435"/>
	<path fill="#857438" d="M136.364,260.697c15.919-53.846,31.837-107.694,47.757-161.542c0.008-0.034,0.021-0.069,0.029-0.104
		c0.688-2.318-2.924-3.302-3.605-0.994c-15.918,53.846-31.838,107.695-47.757,161.542c-0.009,0.033-0.02,0.068-0.03,0.104
		C132.073,262.023,135.683,263.006,136.364,260.697"/>
	<path fill="#857438" d="M178.58,112.095c-18.395-11.847-36.789-23.694-55.183-35.541c-1.018-0.656-1.953,0.963-0.945,1.614
		c18.395,11.846,36.789,23.695,55.182,35.542C178.652,114.364,179.588,112.745,178.58,112.095"/>
	<path fill="#857438" d="M139.562,76.256c12.627,12.435,25.255,24.872,37.883,37.307c0.859,0.847,2.184-0.474,1.322-1.321
		c-12.627-12.436-25.255-24.871-37.886-37.308C140.024,74.087,138.699,75.408,139.562,76.256"/>
	<path fill="#857438" d="M172.201,93.14c1.67,6.67,3.337,13.341,5.004,20.011c0.293,1.17,2.096,0.674,1.803-0.497
		c-1.668-6.669-3.336-13.34-5.004-20.011C173.711,91.474,171.907,91.97,172.201,93.14"/>
	<path fill="#857438" d="M180.742,112.243c5.871-3.429,11.738-6.857,17.607-10.285c1.041-0.608,0.104-2.225-0.943-1.614
		c-5.869,3.428-11.738,6.856-17.607,10.285C178.758,111.236,179.699,112.853,180.742,112.243"/>
	<path fill="#857438" d="M180.207,113.804c18.492-2.67,36.982-5.342,55.477-8.012c1.189-0.172,0.68-1.974-0.498-1.804
		c-18.492,2.67-36.984,5.341-55.477,8.011C178.52,112.173,179.027,113.973,180.207,113.804"/>
	<path fill="#857438" d="M179.959,114.76c22.959,0.451,45.918,0.899,68.875,1.351c1.209,0.022,1.207-1.847,0-1.872
		c-22.957-0.45-45.916-0.898-68.875-1.349C178.752,112.868,178.754,114.737,179.959,114.76"/>
	<path fill="#FF6269" d="M196.479,55.96l-117.03,6.388c0,0-5.61,8.859,1.87,12.313c0,0,8.259,1.74,10.442-5.611L196.479,55.96z"/>
	<path fill="#F6F7F9" stroke="#F6F7F9" stroke-width="1.3334" stroke-miterlimit="10" d="M196.479,55.96L149.52,76.4
		c0,0-41.136,16.335-57.759-7.351L196.479,55.96z"/>
	<path fill="#FF6269" d="M230.137,98.762c0,0-49.574,16.33-81.407-22.066l47.749-20.736L230.137,98.762z"/>
	<path fill="#F6F7F9" stroke="#F6F7F9" stroke-width="1.3334" stroke-miterlimit="10" d="M288.729,121.617l-92.25-65.657
		l33.658,42.802C230.137,98.762,251.537,131.174,288.729,121.617"/>
	<path fill="#FF6269" d="M196.328,56.166l101.127,68.359c0,0,2.143,8.631-6.078,8.104c0,0-4.23-3.51-2.648-11.012L196.328,56.166z"
		/>
	<path fill="#F6BA84" d="M104.098,159.408c27.641,35.055,55.279,70.107,82.918,105.16c2.797,3.545,5.59,7.09,8.385,10.633
		c2.674,3.389,8.379-0.244,5.674-3.674c-27.639-35.053-55.28-70.107-82.92-105.162c-2.793-3.543-5.589-7.089-8.385-10.632
		C107.098,152.344,101.392,155.977,104.098,159.408"/>
	<path fill="#BD885F" d="M138.105,191.326c-6.401,20.398-12.804,40.797-19.204,61.195c-1.309,4.168,5.296,5.619,6.592,1.496
		c6.401-20.398,12.802-40.797,19.203-61.193C146.004,188.656,139.399,187.203,138.105,191.326"/>
	<path fill="#F6BA84" d="M138.033,191.576C137.956,191.867,138.123,191.285,138.033,191.576c1.987-2.867,7.921-1.268,5.047,6.4
		c0.128-0.406,1.422-4.563,1.562-4.973C146.192,188.396,139.317,186.707,138.033,191.576"/>
	<path fill="#F6BA84" d="M193.813,222.713c0,0-0.979-1.646-4.313-0.594l-5.438,1.906l3.291,5.732l5.561-2.043
		C192.914,227.715,195.752,225.67,193.813,222.713"/>
	<path fill="#BD885F" d="M105.42,154.739c-1.878,0.811-2.648,2.845-1.571,4.328c25.303,34.777,53.24,67.558,79.858,101.337
		c3.939,4.996,7.879,9.996,11.816,14.992c1.273,1.615,3.383,1.463,4.863,0.5L105.42,154.739z"/>
	<path fill="#F6BA84" d="M61.836,176.912c16.135-2.89,32.271-5.779,48.408-8.668c4.124-0.738,3.865-7.499-0.309-6.751
		c-16.137,2.89-32.273,5.778-48.41,8.668C57.403,170.899,57.661,177.658,61.836,176.912"/>
	<path fill="#BD885F" d="M58.807,175.275c0.178,1.6,1.302,2.95,3.298,2.553c16.079-3.202,32.158-6.401,48.239-9.603
		c1.852-0.368,2.788-1.942,2.881-3.487L58.807,175.275z"/>
	<path fill="#F6BA84" d="M141.95,281.168c15.411-5.584,30.825-11.168,46.238-16.754c0.908-0.328,1.443-0.67,2.313-1.133
		c2.387-1.27-0.695-6.58-3.762-5.467c-15.414,5.584-30.827,11.17-46.237,16.752C136.563,275.994,138.852,282.35,141.95,281.168"/>
	<path fill="#BD885F" d="M139.023,279.941c0.826,1.482,1.446,2.813,3.348,2.086c15.303-5.883,30.654-11.738,45.959-17.621
		c0.809-0.309,2.441-0.729,2.17-1.125c-0.402-0.59-0.904-1.236-1.701-2.172L139.023,279.941z"/>
	<path fill="#86D3CC" d="M99.316,161.946c0,0,12.871,5.306,21.707,34.069c0,0,13.229,32.77,50.506,32.566l-33.089,11.619
		c0,0-37.012,7.227-53.199-37.586c0,0-4.963-23.074-20.764-32.962L99.316,161.946z"/>
	<path fill="#ABECE5" d="M147.892,236.883c0,0,5.108-2.641,6.567,1.352c0,0,0.238,3.068-5.049,4.936l38.257-13.523
		c0,0,1.582-1.576,0.584-3.635c0,0-0.586-2.98-5.492-1.703L147.892,236.883z"/>
	<path fill="#F6BA84" d="M53.499,170.746c27.641,35.406,55.283,70.811,82.925,106.215c4.088,5.24,8.178,10.479,12.269,15.715
		c2.659,3.406,8.364-0.229,5.673-3.672c-27.641-35.406-55.281-70.811-82.923-106.215c-4.089-5.24-8.181-10.478-12.271-15.716
		C56.514,163.667,50.81,167.304,53.499,170.746"/>
	<path fill="#BD885F" d="M54.127,166.581c-1.612,0.852-2.568,2.752-1.123,4.588c27.795,35.286,55.586,70.573,83.382,105.856
		c4.112,5.223,8.225,10.443,12.337,15.662c1.328,1.688,3.401,1.629,4.819,0.729L54.127,166.581z"/>
	<path fill="#BD885F" d="M72.23,271.648c6.072-20.84,12.144-41.68,18.217-62.52c1.222-4.195-5.381-5.656-6.593-1.496
		c-6.071,20.84-12.147,41.68-18.216,62.518C64.416,274.348,71.019,275.807,72.23,271.648"/>
	<path fill="#F6BA84" d="M62.194,277.148c30.034-11.703,60.067-23.402,90.103-35.102c4.04-1.572,1.98-8.014-2.094-6.428
		c-30.034,11.699-60.068,23.398-90.104,35.1C56.062,272.293,58.12,278.732,62.194,277.148"/>
	<path fill="#BD885F" d="M58.13,275.182c0.539,1.576,2.054,2.746,4.063,1.967c30.038-11.691,60.078-23.377,90.118-35.066
		c1.955-0.76,2.478-2.658,2.04-4.24L58.13,275.182z"/>
</g>
</svg>
