<?xml version="1.0" encoding="utf-8"?>
<!-- Generator: Adobe Illustrator 16.0.0, SVG Export Plug-In . SVG Version: 6.00 Build 0)  -->
<!DOCTYPE svg PUBLIC "-//W3C//DTD SVG 1.1//EN" "http://www.w3.org/Graphics/SVG/1.1/DTD/svg11.dtd">
<svg version="1.1" id="Layer_1" xmlns="http://www.w3.org/2000/svg" xmlns:xlink="http://www.w3.org/1999/xlink" x="0px" y="0px"
	 width="350px" height="350px" viewBox="0 0 350 350" enable-background="new 0 0 350 350" xml:space="preserve">
<g>
	<g>
		
			<radialGradient id="SVGID_1_" cx="150.3262" cy="256.7471" r="134.6134" gradientTransform="matrix(1 9.644690e-005 -1.488185e-005 0.1543 0.0038 217.1162)" gradientUnits="userSpaceOnUse">
			<stop  offset="0" style="stop-color:#000000"/>
			<stop  offset="0.8587" style="stop-color:#000000;stop-opacity:0.1413"/>
			<stop  offset="1" style="stop-color:#000000;stop-opacity:0"/>
		</radialGradient>
		<path opacity="0.28" fill="url(#SVGID_1_)" d="M71.574,249.465c-0.527,0.083-16.006,4.136-20.058,5.098
			c-4.52,1.073-5.084,2.415-3.672,2.415c1.413,0,13.278,1.878,17.232,4.293c3.955,2.416,31.923,5.366,46.896,4.294
			c14.973-1.073,48.59-1.157,57.348,0.227c8.757,1.384,25.142,2.104,35.595,0s23.166-4.521,31.075-5.593
			c7.91-1.074,11.582-4.563,10.453-6.172c-1.13-1.609-17.515-8.586-23.73-8.855c-6.214-0.267-16.103-1.072-22.601,0
			c-6.497,1.074-23.676-0.548-27.517-0.541c-3.841,0.005-25.593,1.347-32.374,2.152c-6.78,0.804-26.555,1.072-36.725,0.804
			c-10.17-0.268-21.753-0.804-25.99,0C73.27,248.393,71.574,249.465,71.574,249.465z"/>
		<linearGradient id="SVGID_2_" gradientUnits="userSpaceOnUse" x1="290.3516" y1="148.522" x2="254.0634" y2="113.0624">
			<stop  offset="0" style="stop-color:#F6DA80"/>
			<stop  offset="0.5621" style="stop-color:#FBE8B0"/>
			<stop  offset="1" style="stop-color:#FFF1D1"/>
		</linearGradient>
		<path fill="url(#SVGID_2_)" d="M273.333,152.984l5.252,2.846l13.993-4.909l5.78-8.133c0,0-7.113-20.439-8.619-21.671
			c-1.505-1.232-7.909-5.947-8.213-5.947c-0.305,0-44.819-18.252-45.73-18.252c-0.912,0-15.312-2.637-15.312-2.637l-4.36,8.518"/>
		<linearGradient id="SVGID_3_" gradientUnits="userSpaceOnUse" x1="248.1123" y1="153.8091" x2="230.1902" y2="109.8015">
			<stop  offset="0" style="stop-color:#F6DA80"/>
			<stop  offset="0.5621" style="stop-color:#FBE8B0"/>
			<stop  offset="1" style="stop-color:#FFF1D1"/>
		</linearGradient>
		<path fill="url(#SVGID_3_)" d="M273.333,152.984l-24.153,4.57l-27.374-5.588l-7.259-41.867l1.577-7.3
			C216.124,102.799,250.6,107.973,273.333,152.984z"/>
		<linearGradient id="SVGID_4_" gradientUnits="userSpaceOnUse" x1="192.0566" y1="147.2813" x2="206.2901" y2="105.021">
			<stop  offset="0" style="stop-color:#F6DA80"/>
			<stop  offset="0.5621" style="stop-color:#FBE8B0"/>
			<stop  offset="1" style="stop-color:#FFF1D1"/>
		</linearGradient>
		<path fill="url(#SVGID_4_)" d="M221.803,152.383c0,0,0.304-30.455-5.679-47.168l-11.052-0.392l-10.193,0.96l-21.445,15.977
			l-7.594,9.938l2.421,8.293l7.303,6.409L221.803,152.383z"/>
		<linearGradient id="SVGID_5_" gradientUnits="userSpaceOnUse" x1="193.1484" y1="157.1992" x2="195.056" y2="148.1018">
			<stop  offset="0" style="stop-color:#F6DA80"/>
			<stop  offset="0.5621" style="stop-color:#FBE8B0"/>
			<stop  offset="1" style="stop-color:#FFF1D1"/>
		</linearGradient>
		<path fill="url(#SVGID_5_)" d="M221.795,151.966c0,0-0.338,5.626-0.618,7.426c-0.281,1.8-1.239,2.87-3.77,2.307
			c-2.531-0.563-41.013-8.833-44.164-9.733c-3.15-0.9-4.524-1.946-5.063-4.051c-0.538-2.104,0.081-7.925,0.081-7.925
			S193.485,147.126,221.795,151.966z"/>
		<linearGradient id="SVGID_6_" gradientUnits="userSpaceOnUse" x1="148.2266" y1="130.0425" x2="180.4132" y2="99.197">
			<stop  offset="0" style="stop-color:#F6DA80"/>
			<stop  offset="0.5621" style="stop-color:#FBE8B0"/>
			<stop  offset="1" style="stop-color:#FFF1D1"/>
		</linearGradient>
		<path fill="url(#SVGID_6_)" d="M168.261,139.991c0,0,14.719-25.735,36.812-35.167l-6.49-3.343l-30.321-1.679
			c0,0-35.995,16.475-36.299,16.581c-0.305,0.106-2.365,4.735-2.365,4.735s5.813,10.885,6.218,10.986
			C136.221,132.204,168.261,139.991,168.261,139.991z"/>
		<linearGradient id="SVGID_7_" gradientUnits="userSpaceOnUse" x1="124.7769" y1="117.9668" x2="154.5923" y2="100.9834">
			<stop  offset="0" style="stop-color:#F6DA80"/>
			<stop  offset="0.5621" style="stop-color:#FBE8B0"/>
			<stop  offset="1" style="stop-color:#FFF1D1"/>
		</linearGradient>
		<path fill="url(#SVGID_7_)" d="M129.597,121.117c0,0,22.949-18.128,50.226-19.086c0,0-15.413-12.82-16.021-12.718
			c-0.608,0.101-16.224,3.245-16.224,3.245L124.154,102.9l-0.913,12.371L129.597,121.117z"/>
		<g>
			<linearGradient id="SVGID_8_" gradientUnits="userSpaceOnUse" x1="234.9258" y1="249.4043" x2="234.9258" y2="227.4668">
				<stop  offset="0" style="stop-color:#B56C2C"/>
				<stop  offset="0.0928" style="stop-color:#BA7335"/>
				<stop  offset="0.3061" style="stop-color:#C17E43"/>
				<stop  offset="0.5659" style="stop-color:#C6844B"/>
				<stop  offset="1" style="stop-color:#C7864E"/>
			</linearGradient>
			<path fill="url(#SVGID_8_)" d="M232.902,249.404c0,0-0.885,0.01-1.488-0.082l-0.211-0.737l5.745-21.118l1.7,1.467
				L232.902,249.404z"/>
			<linearGradient id="SVGID_9_" gradientUnits="userSpaceOnUse" x1="230.1777" y1="238.7295" x2="237.4482" y2="238.7295">
				<stop  offset="0" style="stop-color:#873E14"/>
				<stop  offset="0.3572" style="stop-color:#904615"/>
				<stop  offset="0.9362" style="stop-color:#A85B19"/>
				<stop  offset="1" style="stop-color:#AB5E19"/>
			</linearGradient>
			<path fill="url(#SVGID_9_)" d="M230.178,248.999l5.826-20.862l1.444,0.378l-6.034,20.808c0,0-0.483,0.016-0.704-0.15
				C230.49,249.006,230.178,248.999,230.178,248.999z"/>
			<linearGradient id="SVGID_10_" gradientUnits="userSpaceOnUse" x1="255.3936" y1="219.5762" x2="257.9922" y2="219.5762">
				<stop  offset="0" style="stop-color:#E6B36F"/>
				<stop  offset="0.0552" style="stop-color:#EAB874"/>
				<stop  offset="0.2615" style="stop-color:#F6C582"/>
				<stop  offset="0.5209" style="stop-color:#FDCD8A"/>
				<stop  offset="1" style="stop-color:#FFCF8C"/>
			</linearGradient>
			<polygon fill="url(#SVGID_10_)" points="255.616,219.368 257.992,219.507 255.394,219.785 			"/>
			<linearGradient id="SVGID_11_" gradientUnits="userSpaceOnUse" x1="256.3555" y1="220.3535" x2="258.1426" y2="220.3535">
				<stop  offset="0" style="stop-color:#C7864E"/>
				<stop  offset="0.4341" style="stop-color:#C6844B"/>
				<stop  offset="0.6939" style="stop-color:#C17E43"/>
				<stop  offset="0.9072" style="stop-color:#BA7335"/>
				<stop  offset="1" style="stop-color:#B56C2C"/>
			</linearGradient>
			<path fill="url(#SVGID_11_)" d="M258.143,221.197c-0.029,0.007-1.787-0.002-1.787-0.002l0.188-1.252l0.18-0.437h1.27
				L258.143,221.197z"/>
			<linearGradient id="SVGID_12_" gradientUnits="userSpaceOnUse" x1="254.8994" y1="220.3516" x2="257.0313" y2="220.3516">
				<stop  offset="0" style="stop-color:#873E14"/>
				<stop  offset="0.3572" style="stop-color:#904615"/>
				<stop  offset="0.9362" style="stop-color:#A85B19"/>
				<stop  offset="1" style="stop-color:#AB5E19"/>
			</linearGradient>
			<path fill="url(#SVGID_12_)" d="M255.237,219.552c0,0,1.246-0.045,1.485-0.045c0.241,0,0.34,0.173,0.301,0.519
				c-0.037,0.345-0.089,0.684-0.128,0.855c-0.037,0.173-0.178,0.313-0.6,0.315c-0.451,0.004-1.396-0.037-1.396-0.037
				L255.237,219.552z"/>
			<linearGradient id="SVGID_13_" gradientUnits="userSpaceOnUse" x1="270.9971" y1="262.9951" x2="258.2021" y2="216.5067">
				<stop  offset="0" style="stop-color:#B56C2C"/>
				<stop  offset="0.0928" style="stop-color:#BA7335"/>
				<stop  offset="0.3061" style="stop-color:#C17E43"/>
				<stop  offset="0.5659" style="stop-color:#C6844B"/>
				<stop  offset="1" style="stop-color:#C7864E"/>
			</linearGradient>
			<path fill="url(#SVGID_13_)" d="M257.562,213.27c0,0,0.505,0,0.758,0s0.533,0.146,0.661,0.671
				c0.127,0.522,10.479,38.662,10.619,39.224c0.142,0.563,0.253,1.377,0,1.615c-0.253,0.239-0.393,0.447-0.814,0.441
				c-0.421-0.005-1.414,0-1.414,0l-10.34-41.28L257.562,213.27z"/>
			<linearGradient id="SVGID_14_" gradientUnits="userSpaceOnUse" x1="256.5342" y1="234.5801" x2="268.25" y2="234.5801">
				<stop  offset="0" style="stop-color:#873E14"/>
				<stop  offset="0.3572" style="stop-color:#904615"/>
				<stop  offset="0.9362" style="stop-color:#A85B19"/>
				<stop  offset="1" style="stop-color:#AB5E19"/>
			</linearGradient>
			<path fill="url(#SVGID_14_)" d="M257.432,213.94c0,0,10.586,38.872,10.721,39.389c0.135,0.515,0.125,1.084,0,1.312
				c-0.124,0.228-0.548,0.569-0.661,0.579c-0.114,0.011-0.363-0.23-0.363-0.23l-1.282-4.571l-9.312-34.402L257.432,213.94z"/>
			<linearGradient id="SVGID_15_" gradientUnits="userSpaceOnUse" x1="246.7754" y1="215.1328" x2="265.7373" y2="215.1328">
				<stop  offset="0" style="stop-color:#B56C2C"/>
				<stop  offset="0.0928" style="stop-color:#BA7335"/>
				<stop  offset="0.3061" style="stop-color:#C17E43"/>
				<stop  offset="0.5659" style="stop-color:#C6844B"/>
				<stop  offset="1" style="stop-color:#C7864E"/>
			</linearGradient>
			<path fill="url(#SVGID_15_)" d="M248.436,239.648c0,0,17.021-46.553,17.168-46.983c0.148-0.433,0.191-0.907,0.036-1.183
				c-0.156-0.277-0.461-0.627-0.574-0.747c-0.112-0.12-0.198-0.125-0.481-0.112c-0.205,0.006-1.333,0.055-1.333,0.055
				l-16.476,47.788L248.436,239.648z"/>
			<linearGradient id="SVGID_16_" gradientUnits="userSpaceOnUse" x1="246.0635" y1="214.7773" x2="264.1875" y2="214.7773">
				<stop  offset="0" style="stop-color:#873E14"/>
				<stop  offset="0.3572" style="stop-color:#904615"/>
				<stop  offset="0.9362" style="stop-color:#A85B19"/>
				<stop  offset="1" style="stop-color:#AB5E19"/>
			</linearGradient>
			<path fill="url(#SVGID_16_)" d="M247.282,238.877c0,0,16.648-45.99,16.784-46.339c0.136-0.35,0.165-0.757,0.048-0.97
				c-0.115-0.214-0.394-0.523-0.618-0.746c-0.225-0.224-0.381-0.185-0.478,0.087l-16.955,46.98L247.282,238.877z"/>
			<linearGradient id="SVGID_17_" gradientUnits="userSpaceOnUse" x1="233.3232" y1="244.3105" x2="271.8779" y2="244.3105">
				<stop  offset="0" style="stop-color:#B56C2C"/>
				<stop  offset="0.0928" style="stop-color:#BA7335"/>
				<stop  offset="0.3061" style="stop-color:#C17E43"/>
				<stop  offset="0.5659" style="stop-color:#C6844B"/>
				<stop  offset="1" style="stop-color:#C7864E"/>
			</linearGradient>
			<path fill="url(#SVGID_17_)" d="M236.029,229.031l35.28,29.17c0.347,0.279,0.596,0.5,0.566,0.912
				c-0.028,0.413-0.048,0.618-0.153,0.918c0,0-0.163-0.041-0.479,0c-0.317,0.043-0.518,0.053-0.777,0.071
				c-0.26,0.02-0.731-0.073-0.731-0.073l-0.007-0.724l-36.404-30.791L236.029,229.031z"/>
			<linearGradient id="SVGID_18_" gradientUnits="userSpaceOnUse" x1="231.9609" y1="244.5313" x2="270.3154" y2="244.5313">
				<stop  offset="0" style="stop-color:#873E14"/>
				<stop  offset="0.3572" style="stop-color:#904615"/>
				<stop  offset="0.9362" style="stop-color:#A85B19"/>
				<stop  offset="1" style="stop-color:#AB5E19"/>
			</linearGradient>
			<path fill="url(#SVGID_18_)" d="M231.961,229.318l35.037,29.441c0,0,2.301,1.233,2.736,1.27c0.435,0.035,0.536-0.327,0.566-0.627
				c0.032-0.298,0.032-0.651-0.22-0.871c-0.251-0.221-35.302-29.5-35.302-29.5L231.961,229.318z"/>
			<linearGradient id="SVGID_19_" gradientUnits="userSpaceOnUse" x1="222.0625" y1="197.167" x2="225.2148" y2="197.167">
				<stop  offset="0" style="stop-color:#786654"/>
				<stop  offset="0.05" style="stop-color:#8A7763"/>
				<stop  offset="0.1526" style="stop-color:#A9957C"/>
				<stop  offset="0.2649" style="stop-color:#C3AD90"/>
				<stop  offset="0.3885" style="stop-color:#D7C0A0"/>
				<stop  offset="0.5293" style="stop-color:#E5CDAB"/>
				<stop  offset="0.7021" style="stop-color:#EED5B2"/>
				<stop  offset="1" style="stop-color:#F0D7B4"/>
			</linearGradient>
			<path fill="url(#SVGID_19_)" d="M222.613,193.55c0,0-0.078,5.288-0.551,7.234c0,0,2.809-3.008,2.887-3.088
				c0.078-0.078,0.223-3.405,0.265-3.477C225.257,194.148,222.613,193.55,222.613,193.55z"/>
			<linearGradient id="SVGID_20_" gradientUnits="userSpaceOnUse" x1="213.707" y1="239.8525" x2="203.8249" y2="223.4552">
				<stop  offset="0" style="stop-color:#D4BD94"/>
				<stop  offset="0.0998" style="stop-color:#D9C4A0"/>
				<stop  offset="0.7131" style="stop-color:#F4EEE4"/>
				<stop  offset="1" style="stop-color:#FFFFFF"/>
			</linearGradient>
			<path fill="url(#SVGID_20_)" d="M204.476,230.254c0,0-4.662,0.533-9.716-2.979c0,0-2.49-2.489-2.462-2.855
				c0.027-0.364,0.351-0.57,0.834-0.527c0.483,0.044,0.396,0.078,0.79-0.005c0.396-0.081,0.491,0.125,0.838,0
				c0.348-0.126,0.806-0.133,1.037-0.02c0.233,0.112,0.604-0.05,0.804-0.08c0.202-0.03,3.074-0.105,4.566-0.197
				c1.493-0.092,2.183-0.303,3.309,0c1.126,0.302,1.522-0.084,2.092,0c0.572,0.083,1.234-0.084,1.649,0
				c0.415,0.083,7.361-0.082,7.361-0.082l2.01,2.625C217.588,226.134,211.999,229.238,204.476,230.254z"/>
			<linearGradient id="SVGID_21_" gradientUnits="userSpaceOnUse" x1="242.1572" y1="194.2959" x2="242.1572" y2="192.3105">
				<stop  offset="0" style="stop-color:#873E14"/>
				<stop  offset="0.5398" style="stop-color:#BF7740"/>
				<stop  offset="0.8348" style="stop-color:#D99255"/>
			</linearGradient>
			<path fill="url(#SVGID_21_)" d="M263.496,193.146c0-0.461-0.22-0.835-0.491-0.835l-42.153,0.183l-0.033,1.803l42.187-0.318
				C263.276,193.978,263.496,193.605,263.496,193.146z"/>
			<linearGradient id="SVGID_22_" gradientUnits="userSpaceOnUse" x1="249.0537" y1="260.0283" x2="249.0054" y2="258.3965">
				<stop  offset="0" style="stop-color:#873E14"/>
				<stop  offset="0.5398" style="stop-color:#BF7740"/>
				<stop  offset="0.8348" style="stop-color:#D99255"/>
			</linearGradient>
			<path fill="url(#SVGID_22_)" d="M269.06,258.702c0-0.46-0.22-0.832-0.491-0.832l-39.578,1.572l0.386,0.396
				c0,0,4.719-0.089,11.872,0.076c7.641,0.177,11.365,0.096,11.365,0.096l15.955-0.474
				C268.84,259.537,269.06,259.164,269.06,258.702z"/>
			<linearGradient id="SVGID_23_" gradientUnits="userSpaceOnUse" x1="232.9834" y1="230.2451" x2="232.7526" y2="192.1649">
				<stop  offset="0" style="stop-color:#786654"/>
				<stop  offset="0.0405" style="stop-color:#8A765F"/>
				<stop  offset="0.1237" style="stop-color:#A99072"/>
				<stop  offset="0.2147" style="stop-color:#C3A781"/>
				<stop  offset="0.315" style="stop-color:#D7B88D"/>
				<stop  offset="0.4291" style="stop-color:#E5C496"/>
				<stop  offset="0.5692" style="stop-color:#EECB9B"/>
				<stop  offset="0.8108" style="stop-color:#F0CD9C"/>
				<stop  offset="0.8444" style="stop-color:#F1CFA1"/>
				<stop  offset="0.882" style="stop-color:#F3D7AE"/>
				<stop  offset="0.9214" style="stop-color:#F7E2C4"/>
				<stop  offset="0.962" style="stop-color:#FDF3E3"/>
				<stop  offset="0.9727" style="stop-color:#FFF8ED"/>
			</linearGradient>
			<path fill="url(#SVGID_23_)" d="M204.476,230.254c0,0,31.171-0.657,34.238-0.876c3.066-0.219,7.492-0.655,12.347-7.289
				c5.224-7.138,8.604-21.691,9.845-26.364l0.366-1.826c0,0-0.598-1.847-1.466-2.011c-0.869-0.162-1.466-0.162-2.499-0.107
				c-1.032,0.053-34.274,0.705-34.274,0.705s0.87,0.163,0.435,2.119c-0.435,1.954-2.443,11.353-4.563,17.653
				C216.786,218.559,213.8,228.063,204.476,230.254z"/>
			<linearGradient id="SVGID_24_" gradientUnits="userSpaceOnUse" x1="189.9307" y1="241.8506" x2="228.7998" y2="241.8506">
				<stop  offset="0" style="stop-color:#873E14"/>
				<stop  offset="0.3572" style="stop-color:#904615"/>
				<stop  offset="0.9362" style="stop-color:#A85B19"/>
				<stop  offset="1" style="stop-color:#AB5E19"/>
			</linearGradient>
			<path fill="url(#SVGID_24_)" d="M228.8,260.11c0,0-0.661-0.331-2.313-0.859c-1.652-0.529-2.775-1.851-3.635-2.313
				s-32.047-30.532-32.047-30.532s-0.492-0.507-0.674-0.675c-0.184-0.169-0.211-0.479-0.197-0.717
				c0.014-0.268,0.084-0.844,0.099-1.098c0.013-0.253,0.169-0.465,0.435-0.211C190.734,223.958,228.8,260.11,228.8,260.11z"/>
			<linearGradient id="SVGID_25_" gradientUnits="userSpaceOnUse" x1="190.2324" y1="241.8096" x2="230.4971" y2="241.8096">
				<stop  offset="0" style="stop-color:#B56C2C"/>
				<stop  offset="0.0928" style="stop-color:#BA7335"/>
				<stop  offset="0.3061" style="stop-color:#C17E43"/>
				<stop  offset="0.5659" style="stop-color:#C6844B"/>
				<stop  offset="1" style="stop-color:#C7864E"/>
			</linearGradient>
			<path fill="url(#SVGID_25_)" d="M190.232,223.593c0,0,0.905-0.079,1.193-0.084c0.333-0.007,0.49,0.144,0.62,0.272
				c0.167,0.168,0.279,0.274,0.279,0.274l38.172,36.055c-0.746-0.146-1.697,0-1.697,0l-38.433-35.837L190.232,223.593z"/>
			<linearGradient id="SVGID_26_" gradientUnits="userSpaceOnUse" x1="196.0908" y1="249.3223" x2="196.0908" y2="218.8398">
				<stop  offset="0" style="stop-color:#B56C2C"/>
				<stop  offset="0.0928" style="stop-color:#BA7335"/>
				<stop  offset="0.3061" style="stop-color:#C17E43"/>
				<stop  offset="0.5659" style="stop-color:#C6844B"/>
				<stop  offset="1" style="stop-color:#C7864E"/>
			</linearGradient>
			<path fill="url(#SVGID_26_)" d="M191.759,249.322c0,0,1.218-0.102,1.563,0l7.054-28.893c0,0,0.144-0.537-0.07-0.907
				c-0.115-0.195-0.263-0.398-0.347-0.476c-0.085-0.076-0.215-0.207-0.4-0.207c-0.184,0-1.345,0-1.345,0L191.759,249.322z"/>
			<linearGradient id="SVGID_27_" gradientUnits="userSpaceOnUse" x1="190.6357" y1="234.082" x2="198.8848" y2="234.082">
				<stop  offset="0" style="stop-color:#873E14"/>
				<stop  offset="0.3572" style="stop-color:#904615"/>
				<stop  offset="0.9362" style="stop-color:#A85B19"/>
				<stop  offset="1" style="stop-color:#AB5E19"/>
			</linearGradient>
			<path fill="url(#SVGID_27_)" d="M191.759,249.322c0,0,6.339-25.832,6.653-27.096c0.106-0.429,0.257-1.121,0.42-1.867
				c0,0,0.149-0.709-0.054-0.973c-0.202-0.263-0.457-0.607-0.617-0.537c-0.163,0.072-0.234,0.213-0.336,0.679
				c-0.101,0.467-7.189,29.553-7.189,29.553s0.217,0,0.572,0.114C191.537,249.301,191.759,249.322,191.759,249.322z"/>
			<linearGradient id="SVGID_28_" gradientUnits="userSpaceOnUse" x1="204.7949" y1="216.1699" x2="222.0625" y2="216.1699">
				<stop  offset="0" style="stop-color:#B56C2C"/>
				<stop  offset="0.0928" style="stop-color:#BA7335"/>
				<stop  offset="0.3061" style="stop-color:#C17E43"/>
				<stop  offset="0.5659" style="stop-color:#C6844B"/>
				<stop  offset="1" style="stop-color:#C7864E"/>
			</linearGradient>
			<path fill="url(#SVGID_28_)" d="M219.699,190.899c0,0,1.167,0,1.388,0s0.301,0.015,0.442,0.195
				c0.141,0.182,0.321,0.432,0.442,0.652c0.12,0.222,0.14,0.604-0.061,1.277c-0.201,0.673-15.117,47.617-15.117,47.617
				c-0.084,0.243-0.227,0.603-0.274,0.685c-0.047,0.081-0.054,0.114-0.631,0.114s-1.094-0.027-1.094-0.027l0.033-0.617
				L219.699,190.899z"/>
			<linearGradient id="SVGID_29_" gradientUnits="userSpaceOnUse" x1="260.0537" y1="195.9189" x2="260.0537" y2="191.976">
				<stop  offset="0" style="stop-color:#C47800"/>
				<stop  offset="0.2711" style="stop-color:#CF902D"/>
				<stop  offset="0.8824" style="stop-color:#EBCB9E"/>
				<stop  offset="1" style="stop-color:#F0D7B4"/>
			</linearGradient>
			<path fill="url(#SVGID_29_)" d="M258.448,191.747c0,0,0.603,0.228,1.05,0.883c0.445,0.656,1.634,2.23,1.407,3.095
				c0,0,0.12,0.029,0.366-0.521c0.247-0.552,0.536-1.234,0.301-2.022c-0.237-0.787-0.761-1.172-1.34-1.286
				C259.655,191.78,258.448,191.747,258.448,191.747z"/>
			<linearGradient id="SVGID_30_" gradientUnits="userSpaceOnUse" x1="223.3311" y1="197.2539" x2="224.5894" y2="190.8722">
				<stop  offset="0" style="stop-color:#C47800"/>
				<stop  offset="0.2711" style="stop-color:#CF902D"/>
				<stop  offset="0.8824" style="stop-color:#EBCB9E"/>
				<stop  offset="1" style="stop-color:#F0D7B4"/>
			</linearGradient>
			<path fill="url(#SVGID_30_)" d="M222.218,194.704c0,0,0.404,0.23,0.868-0.158c0.461-0.387,0.97-1.382,1.023-1.732
				c0.054-0.35-0.156-0.346-0.156-0.346s-0.09-0.258,0.165-0.336c0.254-0.079,1.252-0.054,1.487,0
				c0.236,0.052,0.315,0.394,0.158,0.919c-0.158,0.524-0.763,1.916-1.971,2.546c-1.206,0.63-1.575,0.524-1.575,0.524
				S222.14,195.387,222.218,194.704z"/>
			<linearGradient id="SVGID_31_" gradientUnits="userSpaceOnUse" x1="244.4609" y1="254.1475" x2="244.4135" y2="252.487">
				<stop  offset="0" style="stop-color:#873E14"/>
				<stop  offset="0.5398" style="stop-color:#BF7740"/>
				<stop  offset="0.8348" style="stop-color:#D99255"/>
			</linearGradient>
			<path fill="url(#SVGID_31_)" d="M267.371,252.5c0-0.46-0.219-0.832-0.489-0.832l-45.354,1.656v1.665l45.354-1.654
				C267.152,253.335,267.371,252.961,267.371,252.5z"/>
			<linearGradient id="SVGID_32_" gradientUnits="userSpaceOnUse" x1="200.3281" y1="248.7324" x2="219.8423" y2="195.3522">
				<stop  offset="0" style="stop-color:#873E14"/>
				<stop  offset="0.3572" style="stop-color:#904615"/>
				<stop  offset="0.9362" style="stop-color:#A85B19"/>
				<stop  offset="1" style="stop-color:#AB5E19"/>
			</linearGradient>
			<path fill="url(#SVGID_32_)" d="M205.619,239.313c0,0,14.673-46.246,14.758-46.518c0.086-0.271,0.187-0.585,0.071-0.827
				c-0.114-0.243-0.482-0.797-0.6-0.957c-0.157-0.214-0.379-0.167-0.584,0.557l-14.747,46.906c0,0-0.073,0.156-0.237,0.656
				c-0.165,0.502-0.255,0.966-0.146,1.257c0.109,0.292,0.384,0.729,0.474,0.894c0.092,0.163,0.347,0.263,0.502-0.237
				C205.264,240.541,205.619,239.313,205.619,239.313z"/>
			<g>
				<linearGradient id="SVGID_33_" gradientUnits="userSpaceOnUse" x1="193.623" y1="219.9629" x2="211.6816" y2="219.9629">
					<stop  offset="0" style="stop-color:#B56C2C"/>
					<stop  offset="0.0928" style="stop-color:#BA7335"/>
					<stop  offset="0.3061" style="stop-color:#C17E43"/>
					<stop  offset="0.5659" style="stop-color:#C6844B"/>
					<stop  offset="1" style="stop-color:#C7864E"/>
				</linearGradient>
				<path fill="url(#SVGID_33_)" d="M193.623,219.033c0,0,0.027-0.125,0.618-0.125s0.742,0,1.113,0
					c0.372,0,15.929,1.483,15.929,1.483s0.398,0.056,0.398,0.221s-0.563,0.404-0.563,0.404L193.623,219.033z"/>
				<linearGradient id="SVGID_34_" gradientUnits="userSpaceOnUse" x1="193.4854" y1="220.627" x2="211.6816" y2="220.627">
					<stop  offset="0" style="stop-color:#873E14"/>
					<stop  offset="0.3572" style="stop-color:#904615"/>
					<stop  offset="0.9362" style="stop-color:#A85B19"/>
					<stop  offset="1" style="stop-color:#AB5E19"/>
				</linearGradient>
				<path fill="url(#SVGID_34_)" d="M194.007,220.612l16.795,1.594c0,0,0.646,0.083,0.88-0.096v-1.498c0,0-0.233,0.067-1.168,0
					c-0.935-0.069-16.465-1.554-16.754-1.58c-0.289-0.028-0.274,0.082-0.274,0.273c0,0.193,0,0.812,0,0.99
					C193.485,220.474,193.544,220.567,194.007,220.612z"/>
			</g>
			<linearGradient id="SVGID_35_" gradientUnits="userSpaceOnUse" x1="211.0059" y1="235.5684" x2="222.4736" y2="235.5684">
				<stop  offset="0" style="stop-color:#B56C2C"/>
				<stop  offset="0.0928" style="stop-color:#BA7335"/>
				<stop  offset="0.3061" style="stop-color:#C17E43"/>
				<stop  offset="0.5659" style="stop-color:#C6844B"/>
				<stop  offset="1" style="stop-color:#C7864E"/>
			</linearGradient>
			<path fill="url(#SVGID_35_)" d="M211.006,214.098c0,0,1.107-0.006,1.371-0.006c0.265,0,0.381,0.2,0.494,0.674
				c0.112,0.474,9.505,40.589,9.505,40.589c0.057,0.306,0.112,0.599,0.094,0.806c-0.019,0.206-0.312,0.565-0.462,0.716
				s-0.217,0.169-0.565,0.169s-1.582-0.1-1.582-0.1L211.006,214.098z"/>
			<linearGradient id="SVGID_36_" gradientUnits="userSpaceOnUse" x1="210.2646" y1="235.5215" x2="220.8916" y2="235.5215">
				<stop  offset="0" style="stop-color:#873E14"/>
				<stop  offset="0.3572" style="stop-color:#904615"/>
				<stop  offset="0.9362" style="stop-color:#A85B19"/>
				<stop  offset="1" style="stop-color:#AB5E19"/>
			</linearGradient>
			<path fill="url(#SVGID_36_)" d="M210.588,216.894c0,0,8.676,37.959,8.842,38.656c0.165,0.698,0.265,1.396,0.431,1.396
				c0.167,0,1.031-0.664,1.031-0.93c0-0.267-9.327-40.697-9.387-40.977c-0.061-0.28-0.347-0.98-0.534-0.94
				c-0.186,0.04-0.578,0.554-0.645,0.706c-0.068,0.153-0.095,0.428,0,0.887C210.419,216.151,210.588,216.894,210.588,216.894z"/>
		</g>
		<g>
			<linearGradient id="SVGID_37_" gradientUnits="userSpaceOnUse" x1="153.1963" y1="235.3398" x2="160.5309" y2="226.3058">
				<stop  offset="0" style="stop-color:#D4BD94"/>
				<stop  offset="0.0998" style="stop-color:#D9C4A0"/>
				<stop  offset="0.7131" style="stop-color:#F4EEE4"/>
				<stop  offset="1" style="stop-color:#FFFFFF"/>
			</linearGradient>
			<path fill="url(#SVGID_37_)" d="M161.571,230.434c0,0,0.786,0.955,2.781-0.309c1.995-1.266,2.894-2.418,2.894-2.418l1.799-3.202
				c0,0-0.674-0.422-0.984-0.394c-0.309,0.027-1.742,0.31-2.275,0.253c-0.534-0.056-0.955-0.14-1.18-0.084
				c-0.225,0.056-0.534-0.256-0.898-0.17c-0.365,0.086-0.618,0.423-1.742,0.311c-1.125-0.112-3.203-0.202-3.962-0.325
				c-0.758-0.124-3.119-0.505-3.119-0.505l-0.45,3.594c0,0,0.703,1.872,0.815,1.872S161.571,230.434,161.571,230.434z"/>
			<linearGradient id="SVGID_38_" gradientUnits="userSpaceOnUse" x1="150.8447" y1="241.6377" x2="171.0347" y2="241.6377">
				<stop  offset="0" style="stop-color:#873E14"/>
				<stop  offset="0.3572" style="stop-color:#904615"/>
				<stop  offset="0.9362" style="stop-color:#A85B19"/>
				<stop  offset="1" style="stop-color:#AB5E19"/>
			</linearGradient>
			<path fill="url(#SVGID_38_)" d="M150.845,259.23c0,0,19.5-34.536,19.652-34.804c0.153-0.267,0.402-0.627,0.48-0.146
				c0.084,0.522,0.056,1.002,0.039,1.193c-0.028,0.313-0.076,0.573-0.229,0.888c-0.153,0.313-17.622,31.454-17.622,31.454
				s-0.353,0.188-0.744,0.428C152.032,258.483,151.158,258.982,150.845,259.23z"/>
			<linearGradient id="SVGID_39_" gradientUnits="userSpaceOnUse" x1="148.9316" y1="241.6797" x2="170.8726" y2="241.6797">
				<stop  offset="0" style="stop-color:#B56C2C"/>
				<stop  offset="0.0928" style="stop-color:#BA7335"/>
				<stop  offset="0.3061" style="stop-color:#C17E43"/>
				<stop  offset="0.5659" style="stop-color:#C6844B"/>
				<stop  offset="1" style="stop-color:#C7864E"/>
			</linearGradient>
			<path fill="url(#SVGID_39_)" d="M148.932,259.289c0,0,19.844-34.607,19.948-34.789c0.207-0.363,0.335-0.448,0.427-0.458
				c0.092-0.009,1.566,0.003,1.566,0.003l-20.028,35.186C150.845,259.23,150.286,259.385,148.932,259.289z"/>
			<linearGradient id="SVGID_40_" gradientUnits="userSpaceOnUse" x1="103.8228" y1="234.0645" x2="111.8379" y2="234.0645">
				<stop  offset="0" style="stop-color:#B56C2C"/>
				<stop  offset="0.0928" style="stop-color:#BA7335"/>
				<stop  offset="0.3061" style="stop-color:#C17E43"/>
				<stop  offset="0.5659" style="stop-color:#C6844B"/>
				<stop  offset="1" style="stop-color:#C7864E"/>
			</linearGradient>
			<path fill="url(#SVGID_40_)" d="M111.838,213.126c0,0-0.977,0-1.237,0c-0.26,0-0.375,0.132-0.417,0.463
				c-0.041,0.33-6.252,39.594-6.309,39.939c-0.057,0.345-0.099,0.674,0.05,1.01c0.094,0.212,0.282,0.437,0.448,0.451
				c0.213,0.021,1.601,0.01,1.601,0.01L111.838,213.126z"/>
			<linearGradient id="SVGID_41_" gradientUnits="userSpaceOnUse" x1="111.3047" y1="220.0547" x2="117.2578" y2="220.0547">
				<stop  offset="0" style="stop-color:#873E14"/>
				<stop  offset="0.3572" style="stop-color:#904615"/>
				<stop  offset="0.9362" style="stop-color:#A85B19"/>
				<stop  offset="1" style="stop-color:#AB5E19"/>
			</linearGradient>
			<path fill="url(#SVGID_41_)" d="M111.518,219.372c0,0,0.318,0.265,1.913,0.035c1.594-0.23,3.259-0.425,3.259-0.425l0.567,1.63
				c0,0-3.775,0.385-4.394,0.46c-0.868,0.106-1.381,0.036-1.523-0.035C111.199,220.966,111.518,219.372,111.518,219.372z"/>
			<linearGradient id="SVGID_42_" gradientUnits="userSpaceOnUse" x1="111.5293" y1="219.2314" x2="116.6377" y2="219.2314">
				<stop  offset="0" style="stop-color:#B56C2C"/>
				<stop  offset="0.0928" style="stop-color:#BA7335"/>
				<stop  offset="0.3061" style="stop-color:#C17E43"/>
				<stop  offset="0.5659" style="stop-color:#C6844B"/>
				<stop  offset="1" style="stop-color:#C7864E"/>
			</linearGradient>
			<path fill="url(#SVGID_42_)" d="M116.638,218.574c-0.089,0.019-5.102,0.639-5.102,0.639s-0.089,0.62,0.372,0.673
				c0.46,0.054,4.588-0.655,4.588-0.655L116.638,218.574z"/>
			<linearGradient id="SVGID_43_" gradientUnits="userSpaceOnUse" x1="105.6162" y1="234.0635" x2="112.2192" y2="234.0635">
				<stop  offset="0" style="stop-color:#873E14"/>
				<stop  offset="0.3572" style="stop-color:#904615"/>
				<stop  offset="0.9362" style="stop-color:#A85B19"/>
				<stop  offset="1" style="stop-color:#AB5E19"/>
			</linearGradient>
			<path fill="url(#SVGID_43_)" d="M111.148,215.976c0,0,0.312-1.937,0.375-2.34c0.063-0.404,0.237-0.572,0.353-0.488
				c0.116,0.084,0.314,0.617,0.337,1.196c0.024,0.616-0.039,2.12-0.039,2.12s-5.768,36.964-5.828,37.384
				c-0.061,0.421-0.16,1.177-0.374,1.151c-0.225-0.028-0.46-0.358-0.31-1.331C105.814,252.694,111.148,215.976,111.148,215.976z"/>
			<linearGradient id="SVGID_44_" gradientUnits="userSpaceOnUse" x1="106.6694" y1="215.998" x2="119.3213" y2="215.998">
				<stop  offset="0" style="stop-color:#B56C2C"/>
				<stop  offset="0.0928" style="stop-color:#BA7335"/>
				<stop  offset="0.3061" style="stop-color:#C17E43"/>
				<stop  offset="0.5659" style="stop-color:#C6844B"/>
				<stop  offset="1" style="stop-color:#C7864E"/>
			</linearGradient>
			<path fill="url(#SVGID_44_)" d="M108.92,190.557c0,0-1.086,0-1.473,0s-0.553,0.086-0.696,0.504
				c-0.158,0.46-0.071,0.915,0.148,2.087c0.22,1.173,10.327,46.397,10.488,47.235c0.162,0.839,0.274,1.056,0.564,1.056
				s1.37,0,1.37,0v-0.685L108.92,190.557z"/>
			<linearGradient id="SVGID_45_" gradientUnits="userSpaceOnUse" x1="108.3584" y1="215.998" x2="119.6978" y2="215.998">
				<stop  offset="0" style="stop-color:#873E14"/>
				<stop  offset="0.3572" style="stop-color:#904615"/>
				<stop  offset="0.9362" style="stop-color:#A85B19"/>
				<stop  offset="1" style="stop-color:#AB5E19"/>
			</linearGradient>
			<path fill="url(#SVGID_45_)" d="M109.164,191.477c0,0-0.137-0.839-0.206-0.908c-0.069-0.068-0.36,0.172-0.497,0.497
				s-0.137,0.395,0,1.336c0.137,0.942,10.483,47.575,10.597,48.179c0.118,0.631,0.217,0.966,0.315,0.827
				c0.099-0.138,0.453-0.729,0.275-1.87l-1.063-6.223L109.164,191.477z"/>
			<linearGradient id="SVGID_46_" gradientUnits="userSpaceOnUse" x1="104.0254" y1="244.5898" x2="127.4897" y2="244.5898">
				<stop  offset="0" style="stop-color:#B56C2C"/>
				<stop  offset="0.0928" style="stop-color:#BA7335"/>
				<stop  offset="0.3061" style="stop-color:#C17E43"/>
				<stop  offset="0.5659" style="stop-color:#C6844B"/>
				<stop  offset="1" style="stop-color:#C7864E"/>
			</linearGradient>
			<path fill="url(#SVGID_46_)" d="M127.49,229.117l-1.875-0.148c0,0-20.872,28.391-21.229,28.897
				c-0.356,0.507-0.375,0.9-0.356,1.274c0.019,0.376,0.094,1.069,0.094,1.069s0.971-0.024,1.659-0.051L127.49,229.117z"/>
			<linearGradient id="SVGID_47_" gradientUnits="userSpaceOnUse" x1="105.6182" y1="244.5459" x2="128.6973" y2="244.5459">
				<stop  offset="0" style="stop-color:#873E14"/>
				<stop  offset="0.3572" style="stop-color:#904615"/>
				<stop  offset="0.9362" style="stop-color:#A85B19"/>
				<stop  offset="1" style="stop-color:#AB5E19"/>
			</linearGradient>
			<path fill="url(#SVGID_47_)" d="M106.83,259.674c0,0-0.324,0.203-0.57,0.327c-0.247,0.122-0.477,0.158-0.477,0.158
				s-0.461-1.143,0.159-2.062c0.32-0.474,21.335-29.165,21.335-29.165l1.419,0.46L106.83,259.674z"/>
			<linearGradient id="SVGID_48_" gradientUnits="userSpaceOnUse" x1="130.5767" y1="254.3994" x2="130.6766" y2="252.5346">
				<stop  offset="0" style="stop-color:#873E14"/>
				<stop  offset="0.5398" style="stop-color:#BF7740"/>
				<stop  offset="0.8348" style="stop-color:#D99255"/>
			</linearGradient>
			<path fill="url(#SVGID_48_)" d="M105.945,252.381c0,0.461,0.22,0.834,0.49,0.834l48.821,2.327v-1.846l-48.821-2.148
				C106.165,251.548,105.945,251.92,105.945,252.381z"/>
			<linearGradient id="SVGID_49_" gradientUnits="userSpaceOnUse" x1="131.6079" y1="194.6064" x2="131.6725" y2="192.0686">
				<stop  offset="0" style="stop-color:#873E14"/>
				<stop  offset="0.5398" style="stop-color:#BF7740"/>
				<stop  offset="0.8348" style="stop-color:#D99255"/>
			</linearGradient>
			<path fill="url(#SVGID_49_)" d="M108.825,192.956c0,0.461,0.316,0.92,0.587,0.92l45.022,0.729v-1.845l-45.119-0.639
				C109.045,192.122,108.825,192.496,108.825,192.956z"/>
			<path fill="#FFFFFF" stroke="#1D1D1B" stroke-width="0.25" stroke-miterlimit="10" d="M152.025,196.008l-0.039,2.57l-0.951-3.725
				C151.036,194.854,151.742,195.479,152.025,196.008z"/>
			<linearGradient id="SVGID_50_" gradientUnits="userSpaceOnUse" x1="123.2427" y1="238.4824" x2="128.2754" y2="238.4824">
				<stop  offset="0" style="stop-color:#B56C2C"/>
				<stop  offset="0.0928" style="stop-color:#BA7335"/>
				<stop  offset="0.3061" style="stop-color:#C17E43"/>
				<stop  offset="0.5659" style="stop-color:#C6844B"/>
				<stop  offset="1" style="stop-color:#C7864E"/>
			</linearGradient>
			<path fill="url(#SVGID_50_)" d="M126.865,249.625c0,0,0.513-0.013,1.214,0.003l0.196-0.735l-3.512-21.555l-1.521,1.164
				L126.865,249.625z"/>
			<linearGradient id="SVGID_51_" gradientUnits="userSpaceOnUse" x1="124.2979" y1="238.8174" x2="129.2295" y2="238.8174">
				<stop  offset="0" style="stop-color:#873E14"/>
				<stop  offset="0.3572" style="stop-color:#904615"/>
				<stop  offset="0.9362" style="stop-color:#A85B19"/>
				<stop  offset="1" style="stop-color:#AB5E19"/>
			</linearGradient>
			<path fill="url(#SVGID_51_)" d="M129.229,249.305l-3.588-21.298l-1.343,0.379l3.781,21.242c0,0,0.451,0.018,0.655-0.15
				C128.938,249.312,129.229,249.305,129.229,249.305z"/>
			<linearGradient id="SVGID_52_" gradientUnits="userSpaceOnUse" x1="136.7666" y1="231.2715" x2="134.8561" y2="191.6561">
				<stop  offset="0" style="stop-color:#786654"/>
				<stop  offset="0.0501" style="stop-color:#927C63"/>
				<stop  offset="0.1197" style="stop-color:#AF9473"/>
				<stop  offset="0.1976" style="stop-color:#C7A880"/>
				<stop  offset="0.2857" style="stop-color:#D9B88A"/>
				<stop  offset="0.3899" style="stop-color:#E6C392"/>
				<stop  offset="0.5257" style="stop-color:#EEC996"/>
				<stop  offset="0.8108" style="stop-color:#F0CB97"/>
				<stop  offset="0.8412" style="stop-color:#F1CE9D"/>
				<stop  offset="0.8803" style="stop-color:#F4D6AD"/>
				<stop  offset="0.9241" style="stop-color:#F8E4C7"/>
				<stop  offset="0.971" style="stop-color:#FFF7EC"/>
				<stop  offset="0.9727" style="stop-color:#FFF8ED"/>
			</linearGradient>
			<path fill="url(#SVGID_52_)" d="M111.008,193.142c0.059,1.309,0.27,4.15,1.028,7.691c0.71,3.317,3.351,18.249,5.913,22.758
				c2.563,4.508,4.007,5.427,6.569,5.756c2.563,0.328,36.135,1.249,36.135,1.249s-3.745-4.143-5.19-10.908
				c-1.446-6.765-4.125-24.962-4.072-25.96c0.055-0.997,0.235-1.007,0.235-1.007s-12.456-0.356-15.12-0.401
				c-2.663-0.046-10.555-0.178-11.728-0.187c-2.242-0.016-9.933-0.033-12.75,0.107C111.408,192.271,110.986,192.636,111.008,193.142
				z"/>
			<linearGradient id="SVGID_53_" gradientUnits="userSpaceOnUse" x1="111.6968" y1="196.002" x2="112.1511" y2="192.1855">
				<stop  offset="0" style="stop-color:#C47800"/>
				<stop  offset="0.2711" style="stop-color:#CF902D"/>
				<stop  offset="0.8824" style="stop-color:#EBCB9E"/>
				<stop  offset="1" style="stop-color:#F0D7B4"/>
			</linearGradient>
			<path fill="url(#SVGID_53_)" d="M111.216,195.761c0,0-0.083-0.048-0.23-0.242c-0.148-0.193-0.281-1.186-0.341-1.462
				c-0.061-0.279,0.271-1.208,0.73-1.752c0,0,0.096-0.146,0.411-0.157c0.314-0.014,1.632-0.05,1.668,0
				c0.036,0.048-0.114-0.195-0.537,0.566c-0.423,0.761-0.633,1.186-1.012,1.916C111.588,195.24,111.216,195.761,111.216,195.761z"/>
			<linearGradient id="SVGID_54_" gradientUnits="userSpaceOnUse" x1="151.0005" y1="196.2979" x2="150.3607" y2="192.4592">
				<stop  offset="0" style="stop-color:#C47800"/>
				<stop  offset="0.2711" style="stop-color:#CF902D"/>
				<stop  offset="0.8824" style="stop-color:#EBCB9E"/>
				<stop  offset="1" style="stop-color:#F0D7B4"/>
			</linearGradient>
			<path fill="url(#SVGID_54_)" d="M148.97,192.606c0,0,0.057,0.971,1.033,2.067c0.976,1.095,1.921,1.487,2.042,1.503
				c0.04,0.006,0.06-0.02,0.08-0.06s0.12-1.186,0.05-1.255c-0.07-0.07-0.479-0.415-1.025-1.245
				c-0.578-0.877-0.484-0.979-0.484-0.979S149.179,192.617,148.97,192.606z"/>
			<linearGradient id="SVGID_55_" gradientUnits="userSpaceOnUse" x1="165.3013" y1="234.7715" x2="170.8726" y2="234.7715">
				<stop  offset="0" style="stop-color:#B56C2C"/>
				<stop  offset="0.0928" style="stop-color:#BA7335"/>
				<stop  offset="0.3061" style="stop-color:#C17E43"/>
				<stop  offset="0.5659" style="stop-color:#C6844B"/>
				<stop  offset="1" style="stop-color:#C7864E"/>
			</linearGradient>
			<path fill="url(#SVGID_55_)" d="M169.421,250.361c0,0-0.001-0.006-0.004-0.019c-0.113-0.814-3.93-28.173-4.009-28.806
				c-0.08-0.645-0.156-1.437-0.064-1.861c0.092-0.426,0.317-0.561,0.674-0.561c0.356,0,1.217,0,1.217,0l3.638,31.313
				C170.873,250.428,170.565,250.339,169.421,250.361z"/>
			<linearGradient id="SVGID_56_" gradientUnits="userSpaceOnUse" x1="166.8877" y1="234.7715" x2="171.6401" y2="234.7715">
				<stop  offset="0" style="stop-color:#873E14"/>
				<stop  offset="0.3572" style="stop-color:#904615"/>
				<stop  offset="0.9362" style="stop-color:#A85B19"/>
				<stop  offset="1" style="stop-color:#AB5E19"/>
			</linearGradient>
			<path fill="url(#SVGID_56_)" d="M170.873,250.428c0,0-3.944-29.559-3.977-29.864c-0.034-0.307,0.04-1.086,0.2-1.313
				c0.16-0.227,0.306-0.253,0.406,0.62c0.1,0.873,4.138,30.227,4.138,30.227S171.312,250.288,170.873,250.428z"/>
			<linearGradient id="SVGID_57_" gradientUnits="userSpaceOnUse" x1="160.9878" y1="220.9355" x2="170.8726" y2="220.9355">
				<stop  offset="0" style="stop-color:#873E14"/>
				<stop  offset="0.3572" style="stop-color:#904615"/>
				<stop  offset="0.9362" style="stop-color:#A85B19"/>
				<stop  offset="1" style="stop-color:#AB5E19"/>
			</linearGradient>
			<path fill="url(#SVGID_57_)" d="M160.996,220.678c0,0-0.032,1.708,0.034,1.801c0.064,0.094,0.478,0.146,1.566,0
				c1.087-0.146,8.044-1.408,8.191-1.448c0.146-0.04,0.085-1.704-0.037-1.729C170.627,219.276,160.996,220.678,160.996,220.678z"/>
			<linearGradient id="SVGID_58_" gradientUnits="userSpaceOnUse" x1="160.9937" y1="220.0586" x2="170.7871" y2="220.0586">
				<stop  offset="0" style="stop-color:#B56C2C"/>
				<stop  offset="0.0928" style="stop-color:#BA7335"/>
				<stop  offset="0.3061" style="stop-color:#C17E43"/>
				<stop  offset="0.5659" style="stop-color:#C6844B"/>
				<stop  offset="1" style="stop-color:#C7864E"/>
			</linearGradient>
			<path fill="url(#SVGID_58_)" d="M163.189,220.744c-0.66,0.096-1.776,0.184-2.041,0.063c-0.265-0.118-0.301-0.271,0.822-0.432
				c1.123-0.161,6.063-0.994,6.48-1.06c0.417-0.063,1.075-0.048,1.555-0.063c0.482-0.017,0.995,0.048,0.69,0.111
				C170.695,219.364,163.545,220.693,163.189,220.744z"/>
			<linearGradient id="SVGID_59_" gradientUnits="userSpaceOnUse" x1="106.3062" y1="258.7891" x2="140.1147" y2="258.7891">
				<stop  offset="0" style="stop-color:#873E14"/>
				<stop  offset="0.5398" style="stop-color:#BF7740"/>
				<stop  offset="0.8348" style="stop-color:#D99255"/>
			</linearGradient>
			<path fill="url(#SVGID_59_)" d="M106.306,258.615c0,0.46,0.22,0.834,0.49,0.834l11.554,0.35
				c10.855-0.145,21.765-0.305,21.765-0.305l-33.318-1.714C106.526,257.78,106.306,258.154,106.306,258.615z"/>
			<linearGradient id="SVGID_60_" gradientUnits="userSpaceOnUse" x1="153.25" y1="216.5098" x2="163.8003" y2="216.5098">
				<stop  offset="0" style="stop-color:#B56C2C"/>
				<stop  offset="0.0928" style="stop-color:#BA7335"/>
				<stop  offset="0.3061" style="stop-color:#C17E43"/>
				<stop  offset="0.5659" style="stop-color:#C6844B"/>
				<stop  offset="1" style="stop-color:#C7864E"/>
			</linearGradient>
			<path fill="url(#SVGID_60_)" d="M155.5,191.069c0,0-1.086,0-1.473,0c-0.387,0-0.553,0.086-0.697,0.503
				c-0.158,0.461-0.071,0.917,0.148,2.088c0.22,1.172,8.225,46.397,8.386,47.235c0.162,0.839,0.274,1.055,0.564,1.055
				c0.29,0,1.371,0,1.371,0v-0.684L155.5,191.069z"/>
			<linearGradient id="SVGID_61_" gradientUnits="userSpaceOnUse" x1="154.9385" y1="216.5098" x2="164.1758" y2="216.5098">
				<stop  offset="0" style="stop-color:#873E14"/>
				<stop  offset="0.3572" style="stop-color:#904615"/>
				<stop  offset="0.9362" style="stop-color:#A85B19"/>
				<stop  offset="1" style="stop-color:#AB5E19"/>
			</linearGradient>
			<path fill="url(#SVGID_61_)" d="M155.743,191.989c0,0-0.137-0.84-0.206-0.909c-0.068-0.067-0.359,0.172-0.496,0.498
				c-0.137,0.324-0.137,0.394,0,1.336c0.137,0.941,8.381,47.574,8.495,48.178c0.118,0.631,0.217,0.967,0.315,0.828
				c0.098-0.137,0.453-0.728,0.275-1.871l-1.063-6.222L155.743,191.989z"/>
			<linearGradient id="SVGID_62_" gradientUnits="userSpaceOnUse" x1="154.3291" y1="235.9326" x2="161.1479" y2="235.9326">
				<stop  offset="0" style="stop-color:#B56C2C"/>
				<stop  offset="0.0928" style="stop-color:#BA7335"/>
				<stop  offset="0.3061" style="stop-color:#C17E43"/>
				<stop  offset="0.5659" style="stop-color:#C6844B"/>
				<stop  offset="1" style="stop-color:#C7864E"/>
			</linearGradient>
			<path fill="url(#SVGID_62_)" d="M161.148,214.359c0,0-0.974,0-1.233,0c-0.259,0-0.37,0.132-0.401,0.465
				c-0.031,0.331-5.1,40.858-5.146,41.204c-0.047,0.348-0.079,0.676,0.08,1.014c0.1,0.213,0.294,0.438,0.459,0.452
				c0.214,0.021,1.597,0.009,1.597,0.009L161.148,214.359z"/>
			<linearGradient id="SVGID_63_" gradientUnits="userSpaceOnUse" x1="156.1221" y1="235.9316" x2="161.5679" y2="235.9316">
				<stop  offset="0" style="stop-color:#873E14"/>
				<stop  offset="0.3572" style="stop-color:#904615"/>
				<stop  offset="0.9362" style="stop-color:#A85B19"/>
				<stop  offset="1" style="stop-color:#AB5E19"/>
			</linearGradient>
			<path fill="url(#SVGID_63_)" d="M160.545,217.217c0,0,0.253-1.942,0.304-2.347c0.051-0.405,0.22-0.574,0.338-0.489
				c0.118,0.084,0.439,0.624,0.371,1.198c-0.067,0.574-0.642,4.813-0.642,4.813s-4.027,35.535-4.076,35.957
				c-0.048,0.421-0.124,1.18-0.338,1.153c-0.225-0.027-0.47-0.358-0.349-1.335C156.274,255.191,160.545,217.217,160.545,217.217z"/>
		</g>
		<radialGradient id="SVGID_64_" cx="134.6577" cy="214.2402" r="70.8681" gradientUnits="userSpaceOnUse">
			<stop  offset="0" style="stop-color:#000000"/>
			<stop  offset="0.8587" style="stop-color:#000000;stop-opacity:0.1413"/>
			<stop  offset="1" style="stop-color:#000000;stop-opacity:0"/>
		</radialGradient>
		<path opacity="0.24" fill="url(#SVGID_64_)" d="M168.855,229.822c1.16-2.072,1.901-3.397,1.932-3.461
			c0.153-0.314,0.201-0.575,0.229-0.888c0.017-0.191,0.045-0.671-0.039-1.193c-0.024-0.146-0.064-0.206-0.112-0.225l0.007-0.011
			c0,0-1.474-0.012-1.566-0.003c-0.086,0.01-0.205,0.087-0.387,0.39c-0.205-0.117-0.615-0.331-0.845-0.319
			c-0.134-0.985-0.251-1.841-0.343-2.521c1.615-0.292,2.991-0.545,3.056-0.562c0.136-0.037,0.093-1.466-0.012-1.696
			c0.012-0.011,0.002-0.021-0.022-0.029c-0.001-0.002-0.001-0.003-0.003-0.003h-0.002c-0.105-0.036-0.429-0.06-0.743-0.049
			c-0.48,0.016-1.139,0-1.555,0.063c-0.103,0.016-0.481,0.078-1.008,0.166c-0.06-0.288-0.13-0.38-0.206-0.358l-0.001-0.009
			c0,0-0.861,0-1.217,0c-0.356,0-0.582,0.135-0.674,0.561c-0.011,0.048-0.018,0.103-0.024,0.159
			c-1.38,0.229-2.808,0.464-3.349,0.541c-0.743,0.106-0.977,0.208-0.975,0.302l0,0l0,0.002c0,0.003,0,0.006,0,0.009
			c-0.001,0.074-0.013,0.791-0.003,1.297l-0.155-0.885c0.052-0.455,0.08-0.708,0.08-0.708s0.574-4.239,0.642-4.813
			c0.068-0.574-0.253-1.114-0.371-1.198c-0.013-0.01-0.027-0.004-0.041-0.008l0.001-0.014c0,0-0.974,0-1.233,0
			c-0.106,0-0.182,0.029-0.243,0.077l-3.928-22.447c0,0-0.137-0.84-0.206-0.909c-0.008-0.008-0.022-0.012-0.038-0.011l0,0
			c0,0-1.086,0-1.473,0c-0.387,0-0.553,0.086-0.697,0.503c-0.108,0.314-0.1,0.632-0.015,1.173l-1.689-0.024
			c-0.004,0-0.364-0.011-0.964-0.026c-0.005-0.043,0.002-0.056,0.002-0.056s-1.485-0.021-1.695-0.032c0,0,0.001,0.016,0.004,0.04
			c-3.811-0.108-10.583-0.296-12.466-0.327c-2.663-0.046-10.555-0.178-11.728-0.187c-1.884-0.014-7.611-0.028-11.066,0.052
			l-0.38-0.005c0.104-0.062,0.141-0.007,0.121-0.032c-0.036-0.05-1.354-0.014-1.668,0c-0.025,0-0.042,0.007-0.064,0.009
			l-2.407-0.034c-0.002,0-0.004,0.001-0.006,0.001l-0.146-0.646c0,0-0.137-0.839-0.206-0.908c-0.01-0.008-0.023-0.012-0.038-0.011
			l0-0.001c0,0-1.086,0-1.473,0s-0.553,0.086-0.696,0.504c-0.158,0.46-0.071,0.915,0.148,2.087
			c0.098,0.521,2.159,9.789,4.427,19.979c-0.278,0-0.593,0-0.726,0c-0.26,0-0.375,0.132-0.417,0.463
			c-0.041,0.33-6.252,39.594-6.309,39.939c-0.057,0.345-0.099,0.674,0.05,1.01c0.094,0.212,0.282,0.437,0.448,0.451
			c0.213,0.021,1.601,0.01,1.601,0.01c0.214,0.025,0.313-0.73,0.374-1.151c0.004-0.03,0.039-0.254,0.098-0.633l1.306,0.063
			c-1.95,2.655-3.277,4.465-3.365,4.589c-0.356,0.507-0.375,0.9-0.356,1.274c0.019,0.376,0.094,1.069,0.094,1.069
			s0.971-0.024,1.659-0.051c0,0,0.229-0.036,0.477-0.158c0.247-0.124,0.57-0.327,0.57-0.327l0.159-0.22l11.361,0.345
			c10.855-0.145,21.765-0.305,21.765-0.305l-31.968-1.643l3.18-4.404l39.865,1.901c-1.383,2.412-2.26,3.94-2.26,3.94
			c1.354,0.096,1.913-0.059,1.913-0.059c0.313-0.248,1.187-0.747,1.577-0.987c0.391-0.239,0.744-0.428,0.744-0.428
			s0.473-0.843,1.259-2.246c-0.035,0.277-0.055,0.439-0.058,0.459c-0.047,0.348-0.079,0.676,0.08,1.014
			c0.1,0.213,0.294,0.438,0.459,0.452c0.214,0.021,1.597,0.009,1.597,0.009c0.214,0.026,0.29-0.732,0.338-1.153
			c0.013-0.112,0.303-2.672,0.723-6.377c1.396-2.49,2.991-5.335,4.58-8.169c0.075,0.105,0.165,0.146,0.286,0.146
			c0.29,0,1.371,0,1.371,0v-0.005c0.017,0.004,0.034-0.002,0.051-0.025c0.098-0.137,0.453-0.728,0.275-1.871l-0.234-1.366
			c1.108-1.977,2.174-3.879,3.122-5.571c1.087,7.808,2.338,16.771,2.402,17.231c0.003,0.013,0.004,0.019,0.004,0.019
			c1.144-0.022,1.452,0.066,1.452,0.066c0.439-0.14,0.768-0.331,0.768-0.331S170.063,238.635,168.855,229.822z M123.35,229.123
			l0.407,2.373c-1.132,1.539-2.695,3.667-4.448,6.051l-0.723-4.232l-2.826-12.549c0.36-0.037,0.688-0.071,0.947-0.098
			c0.41,1.185,0.828,2.192,1.243,2.923C120.095,227.364,121.459,228.621,123.35,229.123z M112.651,219.074
			c-0.384,0.047-0.704,0.087-0.901,0.112c0.185-1.183,0.318-2.036,0.382-2.444C112.305,217.521,112.479,218.299,112.651,219.074z
			 M152.022,196.171c0.006,0.001,0.019,0.006,0.022,0.006c0.04,0.006,0.06-0.02,0.08-0.06s0.12-1.186,0.05-1.255
			c-0.032-0.031-0.14-0.127-0.297-0.298l1.77,0.029c0.636,3.562,2.926,16.483,4.929,27.78c-0.071,0.567-0.145,1.158-0.22,1.768
			c-0.136-0.015-0.255-0.03-0.353-0.046c-0.273-0.046-0.756-0.124-1.261-0.205c-0.498-1.254-0.948-2.66-1.278-4.203
			c-1.007-4.715-2.614-14.979-3.477-21.109L152.022,196.171z M166.415,228.798c-0.914,1.593-2.026,3.535-3.244,5.657l-0.107-0.628
			l-0.534-3.051c0.437-0.003,1.034-0.153,1.822-0.651c0.892-0.565,1.562-1.107,2.034-1.534
			C166.396,228.66,166.405,228.728,166.415,228.798z M159.763,230.57c0.096,0.003,0.186,0.005,0.267,0.008
			c0.508,2.86,0.947,5.334,1.269,7.143c-0.957,1.669-1.943,3.391-2.923,5.1C158.835,238.759,159.332,234.377,159.763,230.57z
			 M162.596,222.479c0.392-0.052,1.55-0.251,2.874-0.484c0.066,0.479,0.18,1.299,0.329,2.371c-0.004,0-0.009,0-0.013-0.001
			c-0.534-0.056-0.955-0.14-1.18-0.084c-0.225,0.056-0.534-0.256-0.898-0.17c-0.365,0.086-0.618,0.423-1.742,0.311
			c-0.167-0.017-0.354-0.033-0.555-0.049l-0.324-1.856C161.234,222.583,161.669,222.604,162.596,222.479z M110.644,193.896
			c-0.007,0.063-0.008,0.121,0,0.161c0.061,0.276,0.193,1.269,0.341,1.462c0.147,0.193,0.23,0.242,0.23,0.242v-0.001
			c0.152,1.387,0.403,3.123,0.821,5.073c0.534,2.495,2.16,11.558,4.023,17.817c-0.212,0.026-0.471,0.059-0.756,0.094l-5.599-24.863
			L110.644,193.896z M106.703,251.56c0.938-6.026,3.495-22.418,4.753-30.485c0.225,0.053,0.694,0.086,1.408-0.002
			c0.052-0.006,0.134-0.016,0.226-0.026c2.093,9.393,3.976,17.846,4.26,19.166c-2.86,3.891-5.958,8.108-8.41,11.446L106.703,251.56z
			 M112.506,251.815l11.907-16.49l2.452,14.3c0,0,0.513-0.013,1.214,0.003c0,0,0.451,0.018,0.655-0.15
			c0.205-0.166,0.496-0.173,0.496-0.173l-2.82-16.743l2.158-2.987c7.375,0.311,22.485,0.75,28.993,0.935
			c-0.75,5.996-1.573,12.582-2.196,17.563c-1.146,1.998-2.219,3.869-3.149,5.491L112.506,251.815z"/>
		<linearGradient id="SVGID_65_" gradientUnits="userSpaceOnUse" x1="179.1387" y1="181.2598" x2="214.5469" y2="181.2598">
			<stop  offset="0" style="stop-color:#873E14"/>
			<stop  offset="0.3572" style="stop-color:#904615"/>
			<stop  offset="0.9362" style="stop-color:#A85B19"/>
			<stop  offset="1" style="stop-color:#AB5E19"/>
		</linearGradient>
		<path fill="url(#SVGID_65_)" d="M179.139,261.491c1.668,0.163,2.526,0.174,2.526,0.174l32.882-160.283l-2.473-0.527
			L179.139,261.491z"/>
		<linearGradient id="SVGID_66_" gradientUnits="userSpaceOnUse" x1="189.3398" y1="202.9395" x2="195.5254" y2="202.9395">
			<stop  offset="0" style="stop-color:#B56C2C"/>
			<stop  offset="0.0928" style="stop-color:#BA7335"/>
			<stop  offset="0.3061" style="stop-color:#C17E43"/>
			<stop  offset="0.5659" style="stop-color:#C6844B"/>
			<stop  offset="1" style="stop-color:#C7864E"/>
		</linearGradient>
		<path fill="url(#SVGID_66_)" d="M193.044,193.672c0,0,1.363-0.122,2.481,0.433l-3.718,18.114c0,0-0.993-0.572-2.468-0.485
			L193.044,193.672z"/>
		<linearGradient id="SVGID_67_" gradientUnits="userSpaceOnUse" x1="207.457" y1="115.9111" x2="213.2178" y2="115.9111">
			<stop  offset="0" style="stop-color:#B56C2C"/>
			<stop  offset="0.0928" style="stop-color:#BA7335"/>
			<stop  offset="0.3061" style="stop-color:#C17E43"/>
			<stop  offset="0.5659" style="stop-color:#C6844B"/>
			<stop  offset="1" style="stop-color:#C7864E"/>
		</linearGradient>
		<path fill="url(#SVGID_67_)" d="M210.459,114.63c-1.543-0.257-2.81-0.028-2.83,0.511l-0.172,1.228l5.59,0.93l0.171-1.228
			C213.238,115.531,212.003,114.887,210.459,114.63z"/>
		<linearGradient id="SVGID_68_" gradientUnits="userSpaceOnUse" x1="122.9873" y1="124.6885" x2="126.5092" y2="117.3512">
			<stop  offset="0" style="stop-color:#F6DA80"/>
			<stop  offset="0.5621" style="stop-color:#FBE8B0"/>
			<stop  offset="1" style="stop-color:#FFF1D1"/>
		</linearGradient>
		<path fill="url(#SVGID_68_)" d="M129.597,121.117c0,0-0.404,10.574-1.211,10.009c-0.808-0.565-5.229-12.318-6.169-14.165
			c-0.94-1.848-1.426-4.894-1.134-6.254c0.292-1.361,3.143-1.75,3.143-1.75S127.078,116.475,129.597,121.117z"/>
		<linearGradient id="SVGID_69_" gradientUnits="userSpaceOnUse" x1="146.0313" y1="141.7607" x2="148.3792" y2="134.5702">
			<stop  offset="0" style="stop-color:#F6DA80"/>
			<stop  offset="0.5621" style="stop-color:#FBE8B0"/>
			<stop  offset="1" style="stop-color:#FFF1D1"/>
		</linearGradient>
		<path fill="url(#SVGID_69_)" d="M168.261,139.991c0,0-0.4,4.18-0.656,6.083c-0.323,2.393-0.971,3.641-2.926,3.073
			c-1.955-0.569-17.332-8.027-21.169-9.769c-3.838-1.742-11.089-5.296-12.262-5.864c-1.173-0.569-2.275-2.417-2.559-4.549
			c-0.285-2.133,0.908-7.849,0.908-7.849S142.921,128.262,168.261,139.991z"/>
		<linearGradient id="SVGID_70_" gradientUnits="userSpaceOnUse" x1="247.6348" y1="163.394" x2="247.6348" y2="154.4426">
			<stop  offset="0" style="stop-color:#F6DA80"/>
			<stop  offset="0.5621" style="stop-color:#FBE8B0"/>
			<stop  offset="1" style="stop-color:#FFF1D1"/>
		</linearGradient>
		<path fill="url(#SVGID_70_)" d="M221.795,151.966c0,0,0.058,3.82,0.271,6.066c0.25,2.62,0.036,4.633,3.258,4.76
			c0.895,0.036,41.492,1.253,43.891,1.183c2.399-0.072,3.796-0.537,4.118-2.686c0.321-2.147,0-8.306,0-8.306
			S260.016,153.951,221.795,151.966z"/>
		<linearGradient id="SVGID_71_" gradientUnits="userSpaceOnUse" x1="288.9766" y1="159.2646" x2="285.4971" y2="149.3232">
			<stop  offset="0" style="stop-color:#F6DA80"/>
			<stop  offset="0.5621" style="stop-color:#FBE8B0"/>
			<stop  offset="1" style="stop-color:#FFF1D1"/>
		</linearGradient>
		<path fill="url(#SVGID_71_)" d="M273.333,152.984c0,0,0.508,6.615,0.675,8.026c0.166,1.412,0.25,2.864,1.826,2.283
			c1.578-0.582,19.053-7.804,21.917-8.924c2.862-1.122,3.984-1.909,4.15-3.528l-4.98-8.053
			C296.921,142.788,285.256,150.675,273.333,152.984z"/>
		
			<radialGradient id="SVGID_72_" cx="217.207" cy="109.1592" r="107.2385" gradientTransform="matrix(0.9909 0.1346 -0.0734 0.5405 9.9928 20.9206)" gradientUnits="userSpaceOnUse">
			<stop  offset="0.1159" style="stop-color:#000000"/>
			<stop  offset="1" style="stop-color:#000000;stop-opacity:0"/>
		</radialGradient>
		<path opacity="0.2" fill="url(#SVGID_72_)" d="M297.59,143.87l0.769-1.082c0,0-7.113-20.439-8.619-21.671
			c-1.505-1.232-7.909-5.947-8.213-5.947c-0.305,0-44.819-18.252-45.73-18.252c-0.912,0-15.312-2.637-15.312-2.637l-4.36,8.518
			l-0.518,2.397l-10.534-0.373l-6.49-3.343l-20.816-1.152c-4.216-3.482-13.495-11.094-13.964-11.015
			c-0.608,0.101-16.224,3.245-16.224,3.245L124.154,102.9l-0.454,6.156c-0.837,0.186-2.405,0.659-2.618,1.651
			c-0.292,1.361,0.194,4.407,1.134,6.254c0.939,1.846,5.361,13.599,6.169,14.165c0.189,0.132,0.356-0.352,0.501-1.165
			c0.442,1.694,1.375,3.076,2.361,3.554c1.173,0.568,8.423,4.123,12.262,5.864c3.838,1.742,19.214,9.199,21.169,9.769
			c1.955,0.568,2.603-0.68,2.926-3.073c0.199-1.483,0.487-4.347,0.604-5.541c-0.138,1.493-0.467,5.669-0.029,7.382
			c0.539,2.104,1.913,3.15,5.063,4.051c3.151,0.901,41.633,9.17,44.164,9.733c2.53,0.563,3.488-0.507,3.77-2.307
			c0.235-1.506,0.509-5.688,0.593-7.014l0.033,0.004v-0.001c0.021,1.047,0.092,3.852,0.264,5.651c0.25,2.62,0.036,4.633,3.258,4.76
			c0.895,0.036,41.492,1.253,43.891,1.183c2.399-0.072,3.796-0.537,4.118-2.686c0.321-2.147,0-8.306,0-8.306
			s0.508,6.615,0.675,8.026c0.166,1.412,0.25,2.864,1.826,2.283c1.578-0.582,19.053-7.804,21.917-8.924
			c2.862-1.122,3.984-1.909,4.15-3.528L297.59,143.87z M221.805,151.964l0.001,0.002l0.003,0.001c-0.002,0-0.002,0-0.004-0.001
			C221.805,151.966,221.805,151.965,221.805,151.964z"/>
		<g>
			<path fill="#A38475" d="M171.929,140.136c-0.201,0.557-0.834,0.839-1.417,0.63l-2.655-0.955
				c-0.582-0.209-0.891-0.831-0.691-1.388l0,0c0.201-0.557,0.834-0.839,1.416-0.629l2.657,0.955
				C171.82,138.957,172.13,139.579,171.929,140.136L171.929,140.136z"/>
			<path fill="#A38475" d="M224.424,151.115c-0.06,0.588-0.608,1.015-1.223,0.953l-2.809-0.286c-0.614-0.063-1.064-0.59-1.004-1.18
				l0,0c0.06-0.588,0.606-1.015,1.223-0.953l2.807,0.286C224.034,149.998,224.483,150.525,224.424,151.115L224.424,151.115z"/>
			<path fill="#A38475" d="M275.568,151.574c0.056,0.589-0.398,1.115-1.013,1.173l-2.81,0.269c-0.616,0.059-1.16-0.371-1.217-0.96
				l0,0c-0.057-0.589,0.396-1.115,1.013-1.175l2.81-0.268C274.967,150.555,275.512,150.984,275.568,151.574L275.568,151.574z"/>
			<path fill="#A38475" d="M132.685,121.704c-0.307,0.507-0.925,0.694-1.38,0.418l-2.079-1.259
				c-0.456-0.275-0.577-0.909-0.271-1.416l0,0c0.307-0.507,0.924-0.694,1.38-0.418l2.08,1.258
				C132.87,120.563,132.991,121.197,132.685,121.704L132.685,121.704z"/>
			<g>
				<path fill="#A38475" d="M130.82,120.479c-0.134,0-0.267-0.063-0.349-0.181c-0.136-0.193-0.089-0.459,0.103-0.594
					c0.268-0.188,27.06-18.847,50.672-18.372c0.234,0.004,0.422,0.199,0.418,0.435c-0.006,0.235-0.198,0.416-0.437,0.417
					c-0.293-0.006-0.587-0.009-0.881-0.009c-23.093,0-49.019,18.041-49.281,18.225C130.991,120.454,130.905,120.479,130.82,120.479z
					"/>
			</g>
			<g>
				<path fill="#A38475" d="M169.547,139.13c-0.07,0-0.141-0.018-0.206-0.054c-0.207-0.114-0.281-0.373-0.168-0.579
					c0.137-0.246,13.889-24.765,36.576-34.73c0.216-0.096,0.467,0.003,0.562,0.219c0.095,0.216-0.003,0.467-0.218,0.562
					c-22.427,9.851-36.037,34.118-36.173,34.362C169.843,139.05,169.698,139.13,169.547,139.13z"/>
			</g>
			<g>
				<path fill="#A38475" d="M221.905,151.285c-0.013,0-0.027-0.001-0.042-0.002c-0.234-0.024-0.405-0.233-0.382-0.467
					c0.019-0.191,1.827-19.424-5.768-45.482c-0.065-0.226,0.065-0.463,0.29-0.529c0.229-0.067,0.463,0.064,0.529,0.29
					c7.645,26.228,5.815,45.613,5.797,45.806C222.308,151.12,222.122,151.285,221.905,151.285z"/>
			</g>
			<g>
				<path fill="#A38475" d="M273.048,152.24c-0.165,0-0.321-0.097-0.393-0.258c-12.945-30.274-48.014-47.272-48.367-47.44
					c-0.212-0.101-0.302-0.356-0.201-0.568c0.102-0.213,0.354-0.303,0.569-0.202c0.355,0.169,35.713,17.308,48.784,47.875
					c0.094,0.216-0.008,0.467-0.224,0.56C273.161,152.23,273.105,152.24,273.048,152.24z"/>
			</g>
			<g>
				<path fill="#A38475" d="M207.435,116.172c-0.002,0-0.005,0-0.009,0l-18.682-0.393c-0.235-0.005-0.422-0.2-0.416-0.435
					c0.004-0.233,0.194-0.418,0.426-0.418c0.002,0,0.006,0,0.009,0l18.682,0.393c0.235,0.005,0.422,0.2,0.416,0.435
					C207.856,115.987,207.666,116.172,207.435,116.172z"/>
			</g>
			<g>
				<path fill="#A38475" d="M207.835,116.013c-0.041,0-0.084-0.007-0.125-0.02l-40.426-12.408c-0.226-0.069-0.352-0.308-0.283-0.533
					s0.308-0.351,0.533-0.283l40.426,12.408c0.226,0.069,0.352,0.308,0.282,0.533C208.187,115.894,208.018,116.013,207.835,116.013z
					"/>
			</g>
			<g>
				<path fill="#A38475" d="M208.315,115.772c-0.07,0-0.143-0.018-0.207-0.054l-20.814-11.607c-0.205-0.115-0.279-0.375-0.163-0.581
					c0.114-0.206,0.373-0.279,0.58-0.164l20.813,11.607c0.206,0.115,0.279,0.375,0.165,0.581
					C208.609,115.693,208.465,115.772,208.315,115.772z"/>
			</g>
			<g>
				<path fill="#A38475" d="M209.355,115.612c-0.131,0-0.261-0.061-0.344-0.175c-3.317-4.534-8.385-11.402-8.878-11.919
					c-0.143-0.107-0.208-0.297-0.147-0.476c0.074-0.224,0.313-0.345,0.54-0.27c0.163,0.055,0.368,0.123,9.174,12.16
					c0.139,0.19,0.098,0.457-0.093,0.596C209.531,115.585,209.443,115.612,209.355,115.612z"/>
			</g>
			<g>
				<path fill="#A38475" d="M210.636,115.452c-0.062,0-0.124-0.014-0.183-0.042c-0.213-0.101-0.303-0.356-0.202-0.568l4.244-8.886
					c0.102-0.212,0.355-0.303,0.568-0.201c0.213,0.102,0.303,0.356,0.2,0.568l-4.242,8.886
					C210.948,115.362,210.795,115.452,210.636,115.452z"/>
			</g>
			<g>
				<path fill="#A38475" d="M211.918,116.092c-0.173,0-0.336-0.105-0.398-0.278c-0.083-0.22,0.029-0.466,0.25-0.548l18.251-6.804
					c0.22-0.082,0.466,0.03,0.549,0.251c0.082,0.22-0.029,0.466-0.251,0.548l-18.251,6.805
					C212.018,116.084,211.968,116.092,211.918,116.092z"/>
			</g>
			<g>
				<path fill="#A38475" d="M212.477,116.492c-0.223,0-0.412-0.175-0.424-0.402c-0.014-0.235,0.166-0.437,0.401-0.45l28.498-1.601
					c0.23-0.015,0.437,0.167,0.45,0.402s-0.168,0.437-0.402,0.45l-28.498,1.601C212.494,116.492,212.485,116.492,212.477,116.492z"
					/>
			</g>
			<g>
				<path fill="#A38475" d="M248.342,121.536c-0.018,0-0.036,0-0.054-0.003l-35.142-4.403c-0.234-0.029-0.4-0.242-0.371-0.476
					c0.029-0.233,0.242-0.401,0.476-0.37l35.143,4.403c0.234,0.029,0.399,0.242,0.37,0.476
					C248.736,121.378,248.553,121.536,248.342,121.536z"/>
			</g>
			<g>
				<path fill="#A38475" d="M219.762,122.577c-0.075,0-0.151-0.02-0.221-0.062l-7.925-4.804c-0.201-0.122-0.266-0.384-0.144-0.585
					c0.122-0.202,0.385-0.267,0.587-0.144l7.925,4.803c0.201,0.123,0.265,0.385,0.144,0.586
					C220.047,122.503,219.906,122.577,219.762,122.577z"/>
			</g>
		</g>
		<linearGradient id="SVGID_73_" gradientUnits="userSpaceOnUse" x1="207.457" y1="116.834" x2="213.0469" y2="116.834">
			<stop  offset="0" style="stop-color:#873E14"/>
			<stop  offset="0.3572" style="stop-color:#904615"/>
			<stop  offset="0.9362" style="stop-color:#A85B19"/>
			<stop  offset="1" style="stop-color:#AB5E19"/>
		</linearGradient>
		<path fill="url(#SVGID_73_)" d="M213.047,117.298c-0.021,0.539-1.288,0.769-2.83,0.512c-1.545-0.257-2.779-0.902-2.76-1.441
			c0.021-0.539,1.287-0.768,2.83-0.511C211.83,116.114,213.066,116.759,213.047,117.298z"/>
		<linearGradient id="SVGID_74_" gradientUnits="userSpaceOnUse" x1="208.2852" y1="118.1387" x2="211.3838" y2="118.1387">
			<stop  offset="0" style="stop-color:#B56C2C"/>
			<stop  offset="0.0928" style="stop-color:#BA7335"/>
			<stop  offset="0.3061" style="stop-color:#C17E43"/>
			<stop  offset="0.5659" style="stop-color:#C6844B"/>
			<stop  offset="1" style="stop-color:#C7864E"/>
		</linearGradient>
		<path fill="url(#SVGID_74_)" d="M208.285,119.341c0,0,1.271-0.429,2.465,0.555l0.634-3.092c0,0-1.265-0.664-2.512-0.326
			L208.285,119.341z"/>
		<linearGradient id="SVGID_75_" gradientUnits="userSpaceOnUse" x1="143.5303" y1="96.7021" x2="142.6562" y2="93.0744">
			<stop  offset="0" style="stop-color:#F6DA80"/>
			<stop  offset="0.5621" style="stop-color:#FBE8B0"/>
			<stop  offset="1" style="stop-color:#FFF1D1"/>
		</linearGradient>
		<path fill="url(#SVGID_75_)" d="M120.027,103.337c0,0,1.076-1.442,2.217-2.698c0.665-0.73,36.078-13.574,43.596-15.526
			l-5.541,5.099l-4.093,1.417c0,0-27.321,13.193-27.52,13.193C128.487,104.823,120.027,103.337,120.027,103.337z"/>
		<linearGradient id="SVGID_76_" gradientUnits="userSpaceOnUse" x1="139.209" y1="107.749" x2="138.0841" y2="97.7501">
			<stop  offset="0" style="stop-color:#F6DA80"/>
			<stop  offset="0.5621" style="stop-color:#FBE8B0"/>
			<stop  offset="1" style="stop-color:#FFF1D1"/>
		</linearGradient>
		<path fill="url(#SVGID_76_)" d="M156.206,91.63c0,0-0.266,6.802-0.646,8.169c-0.38,1.368-1.085,2.778-3.635,3.7
			c-2.55,0.923-27.233,8.572-28.644,8.843c-1.41,0.271-2.224,0.054-2.604-2.387c-0.379-2.441-0.651-6.618-0.651-6.618
			S135.538,95.851,156.206,91.63z"/>
		<linearGradient id="SVGID_77_" gradientUnits="userSpaceOnUse" x1="255.1211" y1="107.0723" x2="257.6715" y2="99.4374">
			<stop  offset="0" style="stop-color:#F6DA80"/>
			<stop  offset="0.5621" style="stop-color:#FBE8B0"/>
			<stop  offset="1" style="stop-color:#FFF1D1"/>
		</linearGradient>
		<path fill="url(#SVGID_77_)" d="M249.475,97.62c-3.044-0.774-11.793-4.025-16.254-6.445c-4.461-2.42-6.685-3.586-8.749-4.288
			l2.553,10.733l61.21,22.265c0,0,0.649-2.438-1.96-4.762c-3.071-2.737-6.984-6.893-14.799-10.565
			C258.491,98.454,256.531,99.416,249.475,97.62z"/>
		<linearGradient id="SVGID_78_" gradientUnits="userSpaceOnUse" x1="294.7813" y1="129.2026" x2="293.6952" y2="114.3598">
			<stop  offset="0" style="stop-color:#F6DA80"/>
			<stop  offset="0.5621" style="stop-color:#FBE8B0"/>
			<stop  offset="1" style="stop-color:#FFF1D1"/>
		</linearGradient>
		<path fill="url(#SVGID_78_)" d="M302.095,141.433c0,0,0.17-2.042-1.7-4.65c-0.488-0.68-3.466-4.877-6.352-9.469
			c-2.673-4.255-5.228-8.866-6.642-10.922l0.833,3.493l7.964,17.238L302.095,141.433z"/>
		<linearGradient id="SVGID_79_" gradientUnits="userSpaceOnUse" x1="255.2148" y1="119.6831" x2="258.9215" y2="107.4141">
			<stop  offset="0" style="stop-color:#F6DA80"/>
			<stop  offset="0.5621" style="stop-color:#FBE8B0"/>
			<stop  offset="1" style="stop-color:#FFF1D1"/>
		</linearGradient>
		<path fill="url(#SVGID_79_)" d="M227.024,97.62c0,0,0,4.825,0,7.384c0,2.558,2.246,4.271,3.525,4.911
			c1.28,0.64,49.741,18.019,52.299,18.766c2.561,0.746,4.746,0.213,5.012-1.813c0.267-2.026,0.374-6.984,0.374-6.984
			S253.521,103.271,227.024,97.62z"/>
		<linearGradient id="SVGID_80_" gradientUnits="userSpaceOnUse" x1="291.0273" y1="142.0518" x2="296.8298" y2="132.866">
			<stop  offset="0" style="stop-color:#F6DA80"/>
			<stop  offset="0.5621" style="stop-color:#FBE8B0"/>
			<stop  offset="1" style="stop-color:#FFF1D1"/>
		</linearGradient>
		<path fill="url(#SVGID_80_)" d="M302.841,142.915c0,0-0.159,4.425-0.266,5.972c-0.106,1.546-0.374,3.625-1.92,1.546
			c-1.546-2.08-8.104-11.302-10.075-14.981c-1.973-3.679-2.016-5.596-2.079-7.25c-0.054-1.386-0.267-8.317-0.267-8.317
			S300.442,137.53,302.841,142.915z"/>
		<g>
			<defs>
				<path id="SVGID_81_" d="M271.31,258.201l-3.606-2.981c0.327-0.001,0.817-0.003,1.082,0.001c0.422,0.004,0.562-0.202,0.814-0.441
					c0.253-0.238,0.142-1.053,0-1.615c-0.14-0.562-10.492-38.701-10.619-39.224c-0.128-0.524-0.408-0.671-0.661-0.671
					c-0.066,0-0.151,0-0.24,0c3.874-10.602,7.456-20.408,7.524-20.604c0.148-0.433,0.191-0.907,0.036-1.183
					c-0.156-0.277-0.461-0.627-0.574-0.747c-0.112-0.12-0.198-0.125-0.481-0.112c-0.205,0.006-1.333,0.055-1.333,0.055l-0.001,0.002
					c-0.099-0.005-0.175,0.072-0.231,0.229l-0.507,1.404l-1.447,0.007c-0.241-0.229-0.528-0.366-0.832-0.426
					c-0.43-0.085-1.209-0.125-1.579-0.14c-0.02-0.001-0.041-0.003-0.063-0.003c-0.088-0.004-0.143-0.005-0.143-0.005
					s0.004,0.003,0.006,0.003c-0.341-0.006-0.703,0.006-1.147,0.03c-0.847,0.044-23.443,0.492-31.473,0.65
					c-0.028-0.168-0.106-0.272-0.229-0.299c-0.235-0.054-1.233-0.079-1.487,0c-0.255,0.078-0.165,0.336-0.165,0.336
					c-0.378,0.007-0.648,0.012-0.793,0.015l-1.126,0.006c0.054-0.353,0.021-0.587-0.063-0.741c-0.121-0.221-0.302-0.471-0.442-0.652
					c-0.142-0.181-0.222-0.195-0.442-0.195s-1.388,0-1.388,0l-0.001,0.005c-0.133-0.02-0.289,0.148-0.434,0.663l-7.082,22.526
					c-0.409,0-1.177,0.004-1.177,0.004l0.001,0.011c-0.012-0.003-0.023-0.013-0.036-0.01c-0.186,0.04-0.578,0.554-0.645,0.706
					c-0.068,0.153-0.095,0.428,0,0.887c0.093,0.46,0.262,1.202,0.262,1.202s0.109,0.476,0.301,1.316l-0.654,2.082
					c-2.01-0.19-6.512-0.619-10.044-0.949c-0.086-0.129-0.174-0.243-0.231-0.296c-0.085-0.076-0.215-0.207-0.4-0.207
					c-0.184,0-1.345,0-1.345,0v0.003c-0.019-0.001-0.037,0-0.053,0.007c-0.103,0.045-0.169,0.118-0.229,0.283
					c-1.473-0.134-2.486-0.225-2.577-0.225c-0.371,0-0.522,0-1.113,0s-0.618,0.125-0.618,0.125c-0.144,0.02-0.138,0.12-0.138,0.272
					c0,0.193,0,0.812,0,0.99c0,0.178,0.059,0.271,0.521,0.316l3.478,0.33c-0.174,0.721-0.409,1.689-0.688,2.832
					c-0.103,0.006-0.17,0.01-0.196,0.014c-0.2,0.03-0.57,0.192-0.804,0.08c-0.231-0.113-0.689-0.106-1.037,0.02
					c-0.347,0.125-0.442-0.082-0.838,0c-0.395,0.083-0.307,0.049-0.79,0.005c-0.334-0.029-0.588,0.062-0.725,0.24l-0.082-0.077
					c0,0-0.112-0.106-0.279-0.274c-0.13-0.129-0.287-0.279-0.62-0.272c-0.288,0.005-1.193,0.084-1.193,0.084v0.002
					c-0.12,0.011-0.191,0.156-0.2,0.321c-0.015,0.254-0.085,0.83-0.099,1.098c-0.014,0.237,0.014,0.548,0.197,0.717
					c0.182,0.168,0.674,0.675,0.674,0.675s1.709,1.646,4.337,4.177c-2.043,8.393-4.506,18.499-4.506,18.499s0.217,0,0.572,0.114
					c0.329,0.105,0.551,0.127,0.551,0.127s1.218-0.102,1.563,0l4.051-16.594c2.044,1.965,4.406,4.235,6.854,6.584
					c-0.127,0.428-0.189,0.819-0.094,1.074c0.109,0.292,0.384,0.729,0.474,0.894c0.04,0.07,0.109,0.125,0.188,0.129v0.004
					c0,0,0.517,0.027,1.094,0.027c0.307,0,0.45-0.009,0.525-0.03c4.642,4.447,9.328,8.923,12.506,11.92
					c0.301,1.316,0.485,2.124,0.51,2.22c0.165,0.698,0.265,1.396,0.433,1.396c0,0,1.231,0.1,1.58,0.1s0.415-0.019,0.565-0.169
					c0.084-0.084,0.212-0.232,0.312-0.385c0.293,0.261,0.477,0.415,0.532,0.446c0.859,0.463,1.982,1.784,3.635,2.313
					c1.652,0.528,2.313,0.859,2.313,0.859s0.951-0.146,1.697,0l-0.298-0.282c1.646-0.018,5.654-0.037,11.049,0.087
					c7.641,0.177,11.365,0.096,11.365,0.096l15.91-0.473c0.525,0.254,1.029,0.477,1.211,0.491c0,0,0.472,0.093,0.731,0.073
					c0.26-0.019,0.46-0.028,0.777-0.071c0.316-0.041,0.479,0,0.479,0c0.105-0.3,0.125-0.505,0.153-0.918
					C271.905,258.701,271.656,258.48,271.31,258.201z M248.537,239.373c0.562-1.536,3.426-9.372,6.653-18.202
					c0.316,0.012,0.813,0.028,1.105,0.025c0.021,0,0.04-0.001,0.06-0.003v0.002c0,0,1.112,0.005,1.581,0.004l7.909,29.219
					l0.357,1.273l-2.65,0.098L248.537,239.373z M256.765,216.866l0.706,2.61l-1.626-0.095
					C256.149,218.548,256.457,217.708,256.765,216.866z M266.666,253.343l0.373,1.327l-1.554-1.285L266.666,253.343z
					 M246.22,237.458l-8.088-6.688l0.388-1.379c0.073-0.004,0.14-0.009,0.194-0.013c3.066-0.219,7.492-0.655,12.347-7.289
					c0.565-0.772,1.108-1.638,1.631-2.563L246.22,237.458z M222.583,194.769c-0.218,0.017-0.365-0.064-0.365-0.064
					c-0.078,0.683,0,1.417,0,1.417s0.09,0.024,0.313-0.022c-0.074,1.63-0.214,3.625-0.465,4.672
					c-0.857,3.593-1.992,8.011-3.161,11.487c-1.016,3.021-2.234,6.778-4.251,10.112c-0.326-1.39-0.621-2.649-0.872-3.723
					c3.229-10.164,6.594-20.768,7.73-24.356l1.084-0.009C222.593,194.428,222.588,194.59,222.583,194.769z M198.246,229.156
					c3.522,1.406,6.229,1.098,6.229,1.098s0.995-0.021,2.644-0.057l-1.898,6.038l-7.073-6.682L198.246,229.156z M209.666,222.099
					l-0.477,1.515c-0.522,0.002-0.888-0.005-0.973-0.022c-0.415-0.084-1.077,0.083-1.649,0c-0.569-0.084-0.966,0.302-2.092,0
					c-1.126-0.303-1.815-0.092-3.309,0c-0.441,0.026-1.004,0.052-1.581,0.076l0.603-2.468L209.666,222.099z M210.133,230.131
					c1.058-0.022,2.225-0.049,3.463-0.077c1.37,5.996,2.943,12.872,4.109,17.974l-10.198-9.633
					C208.103,236.522,209.028,233.607,210.133,230.131z M221.501,251.611c-1.148-4.902-3.231-13.797-5.063-21.621
					c5.314-0.121,11.367-0.265,15.859-0.389l2.672,2.243l-4.791,17.154c0,0,0.313,0.007,0.532,0.173
					c0.221,0.166,0.704,0.15,0.704,0.15c0.604,0.092,1.488,0.082,1.488,0.082l4.383-15.612l21.618,18.167l-35.658,1.301
					L221.501,251.611z M259.946,199.422c0.398-1.518,0.72-2.794,0.959-3.697c0,0,0.12,0.029,0.366-0.521
					c0.158-0.354,0.333-0.761,0.377-1.215l0.261-0.001L259.946,199.422z M229.759,259.413l-4.813-4.547l35.859-1.31l5.254,4.413
					L229.759,259.413z"/>
			</defs>
			<clipPath id="SVGID_82_">
				<use xlink:href="#SVGID_81_"  overflow="visible"/>
			</clipPath>
			<radialGradient id="SVGID_83_" cx="224.2598" cy="220.2061" r="68.0184" gradientUnits="userSpaceOnUse">
				<stop  offset="0" style="stop-color:#000000"/>
				<stop  offset="0.9138" style="stop-color:#000000;stop-opacity:0.0862"/>
				<stop  offset="1" style="stop-color:#000000;stop-opacity:0"/>
			</radialGradient>
			<path opacity="0.24" clip-path="url(#SVGID_82_)" fill="url(#SVGID_83_)" d="M248.677,239.178c0,0-11.39,10.435-4.369,11.877
				c9.028,1.853,1.063,8.666-10.984,9.945c-15.814,1.679,19.296,15.165,19.903,15.47c0.608,0.304-39.525-3.959-40.088-3.806
				c-0.563,0.151-22.925-0.458-22.925-0.458l-8.249-3.807c0,0-7.769-9.019-8.296-9.609c-0.527-0.59,0.984-20.354,0.984-20.354
				s1.27-10.95,1.401-11.302c0.13-0.352,11.055-20.783,9.704-21.37c-1.349-0.585,23.621-18.58,23.621-18.58l35.101-4.491h19.101
				c0,0,8.804,2.549,6.827,3.447c-1.976,0.899-0.717,11.021-1.794,12.834c-1.076,1.811-1.957,13.624-1.897,15.034
				c0.059,1.409-8.638-0.738-8.638-0.738l-1.314,3.597c0,0,2.308,8.243,1.8,8.59C257.801,225.977,248.677,239.178,248.677,239.178z"
				/>
		</g>
		<linearGradient id="SVGID_84_" gradientUnits="userSpaceOnUse" x1="191.3115" y1="96.71" x2="192.8308" y2="86.3282">
			<stop  offset="0" style="stop-color:#F6DA80"/>
			<stop  offset="0.5621" style="stop-color:#FBE8B0"/>
			<stop  offset="1" style="stop-color:#FFF1D1"/>
		</linearGradient>
		<path fill="url(#SVGID_84_)" d="M200.186,86.519c-6.999-0.8-19.748-4.17-25.391-3.557c-5.644,0.613-17.304,4.212-18.588,8.668
			l41.526,6.664l29.292-0.674c0,0,1.068-9.12-2.553-10.733C221.88,85.731,217.358,88.481,200.186,86.519z"/>
		<linearGradient id="SVGID_85_" gradientUnits="userSpaceOnUse" x1="190.7021" y1="107.9077" x2="191.8895" y2="93.513">
			<stop  offset="0" style="stop-color:#F6DA80"/>
			<stop  offset="0.5621" style="stop-color:#FBE8B0"/>
			<stop  offset="1" style="stop-color:#FFF1D1"/>
		</linearGradient>
		<path fill="url(#SVGID_85_)" d="M156.206,91.638c0,0,0.181,4.073,0.387,5.458c0.403,2.704,0.266,4.394,3.86,5.192
			c3.595,0.799,55.58,5.458,59.44,5.658c3.859,0.2,6.651-0.376,6.847-2.446c0.22-2.317,0.284-7.88,0.284-7.88
			S184.896,91.372,156.206,91.638z"/>
	</g>
</g>
</svg>
