<?xml version="1.0" encoding="utf-8"?>
<!-- Generator: Adobe Illustrator 16.0.0, SVG Export Plug-In . SVG Version: 6.00 Build 0)  -->
<!DOCTYPE svg PUBLIC "-//W3C//DTD SVG 1.1//EN" "http://www.w3.org/Graphics/SVG/1.1/DTD/svg11.dtd">
<svg version="1.1" id="Capa_1" xmlns="http://www.w3.org/2000/svg" xmlns:xlink="http://www.w3.org/1999/xlink" x="0px" y="0px"
	 width="350px" height="350px" viewBox="0 0 350 350" enable-background="new 0 0 350 350" xml:space="preserve">
<g id="XMLID_3_">
	<rect id="XMLID_127_" x="70.466" y="120.906" fill="#F0EDE0" width="165.812" height="111.743"/>
	<rect id="XMLID_126_" x="265.115" y="120.906" fill="#F0EDE0" width="14.419" height="111.743"/>
	<g id="XMLID_105_">
		<path id="XMLID_125_" fill="#D6D0BB" d="M207.42,165.988h-10.813c-1.99,0-3.605-1.611-3.605-3.604s1.615-3.604,3.605-3.604h10.813
			c1.99,0,3.605,1.611,3.605,3.604S209.41,165.988,207.42,165.988"/>
		<path id="XMLID_124_" fill="#D6D0BB" d="M153.351,151.57h-10.813c-1.99,0-3.604-1.611-3.604-3.604
			c0-1.993,1.614-3.604,3.604-3.604h10.813c1.99,0,3.604,1.611,3.604,3.604C156.955,149.959,155.337,151.57,153.351,151.57"/>
		<path id="XMLID_123_" fill="#D6D0BB" d="M207.42,151.57h-25.232c-1.989,0-3.604-1.611-3.604-3.604
			c0-1.993,1.615-3.604,3.604-3.604h25.232c1.99,0,3.605,1.611,3.605,3.604C211.025,149.959,209.41,151.57,207.42,151.57"/>
		<path id="XMLID_122_" fill="#D6D0BB" d="M167.77,151.57c-0.974,0-1.875-0.396-2.56-1.045c-0.649-0.685-1.045-1.622-1.045-2.559
			s0.396-1.878,1.045-2.559c1.333-1.334,3.749-1.334,5.119,0c0.649,0.681,1.045,1.622,1.045,2.559s-0.396,1.875-1.045,2.559
			C169.644,151.173,168.703,151.57,167.77,151.57"/>
		<path id="XMLID_121_" fill="#D6D0BB" d="M182.188,165.988h-25.232c-1.989,0-3.604-1.611-3.604-3.604s1.615-3.604,3.604-3.604
			h25.232c1.99,0,3.605,1.611,3.605,3.604S184.178,165.988,182.188,165.988"/>
		<path id="XMLID_120_" fill="#D6D0BB" d="M142.537,165.988c-0.974,0-1.875-0.396-2.56-1.045c-0.649-0.685-1.045-1.622-1.045-2.56
			c0-0.977,0.396-1.878,1.045-2.559c1.334-1.334,3.749-1.334,5.119,0c0.649,0.681,1.045,1.583,1.045,2.559
			c0,0.938-0.396,1.875-1.045,2.56C144.411,165.592,143.47,165.988,142.537,165.988"/>
		<path id="XMLID_119_" fill="#56B46F" d="M102.886,206.442c-9.938,0-18.023-8.085-18.023-18.022c0-1.993,1.615-3.604,3.604-3.604
			c1.99,0,3.605,1.611,3.605,3.604c0,5.962,4.852,10.814,10.814,10.814c3.187,0,6.2-1.399,8.262-3.836
			c0.923-1.092,1.348-2.509,1.193-3.986c-0.166-1.579-0.98-3.054-2.242-4.03l-18.853-14.664c-2.8-2.181-4.621-5.454-4.985-8.983
			c-0.361-3.446,0.656-6.78,2.862-9.382c3.431-4.059,8.449-6.388,13.762-6.388c9.938,0,18.023,8.089,18.023,18.023
			c0,1.994-1.615,3.604-3.604,3.604s-3.604-1.611-3.604-3.604c0-5.962-4.852-10.813-10.814-10.813c-3.187,0-6.2,1.398-8.262,3.838
			c-0.922,1.093-1.348,2.502-1.193,3.976c0.166,1.583,0.98,3.057,2.242,4.037l18.852,14.667c2.801,2.178,4.618,5.447,4.985,8.969
			c0.36,3.45-0.656,6.783-2.858,9.394C113.217,204.114,108.199,206.442,102.886,206.442"/>
		<path id="XMLID_118_" fill="#56B46F" d="M102.886,212.849c-1.99,0-3.604-1.611-3.604-3.605v-64.882
			c0-1.993,1.615-3.605,3.604-3.605s3.604,1.612,3.604,3.605v64.882C106.491,211.237,104.876,212.849,102.886,212.849"/>
		<path id="XMLID_117_" fill="#D6D0BB" d="M153.87,185.453c-7.898,4.113-10.555,11.968-11.521,20.121
			c-1.493-1.251-2.984-2.498-4.477-3.749c-3.536-2.963-8.666,2.108-5.097,5.097c3.37,2.827,6.744,5.649,10.114,8.476
			c2.386,1.996,6.042,0.761,6.153-2.549c0.263-7.814,0.641-17.097,8.463-21.17C161.638,189.53,157.986,183.309,153.87,185.453"/>
		<path id="XMLID_116_" fill="#D6D0BB" d="M187.534,203.776c-1.876-3.353-5.92-5.015-9.69-3.947
			c-4.92,1.391-10.749,7.36-14.188,0.382c-2.058-4.17-8.276-0.516-6.225,3.641c1.849,3.748,5.407,6.478,9.621,6.96
			c2.188,0.249,4.026-0.043,6.085-0.814c1.467-0.548,6.932-4.798,8.171-2.585C183.576,211.475,189.804,207.839,187.534,203.776"/>
		<rect id="XMLID_115_" x="236.258" y="93.896" fill="#E6E7E9" width="14.418" height="14.418"/>
		<path id="XMLID_114_" fill="#D85B4B" d="M250.676,68.664h-7.264c-0.987,0-1.928,0.202-2.786,0.563
			c-0.426,0.18-0.833,0.404-1.216,0.66c-1.902,1.287-3.152,3.464-3.152,5.933v18.077h14.418V68.664z"/>
		<path id="XMLID_113_" fill="#D85B4B" d="M257.936,68.664L257.936,68.664c0.987,0,1.928,0.202,2.786,0.563
			C259.863,68.866,258.926,68.664,257.936,68.664"/>
		<rect id="XMLID_112_" x="250.676" y="108.314" fill="#E38E23" width="14.418" height="136.976"/>
		<rect id="XMLID_111_" x="250.676" y="93.896" fill="#CFCECE" width="14.418" height="14.418"/>
		<path id="XMLID_110_" fill="#D85B4B" d="M265.094,75.819L265.094,75.819c0-2.469-1.251-4.646-3.153-5.933
			C263.84,71.173,265.094,73.35,265.094,75.819"/>
		<path id="XMLID_109_" fill="#C56256" d="M265.094,93.896V75.819c0-2.473-1.251-4.646-3.153-5.933
			c-0.383-0.256-0.79-0.479-1.215-0.66c-0.862-0.36-1.8-0.563-2.787-0.563h-7.263v25.232H265.094z"/>
		<polygon id="XMLID_108_" fill="#EDDDC8" points="265.094,245.29 236.258,245.29 250.676,270.522 		"/>
		<path id="XMLID_107_" fill="#5F5F5F" d="M247.07,277.732c0,1.992,1.611,3.604,3.605,3.604c1.993,0,3.604-1.611,3.604-3.604
			v-14.419h-7.21V277.732z"/>
		<rect id="XMLID_106_" x="236.258" y="108.314" fill="#F39D20" width="14.418" height="136.976"/>
	</g>
</g>
</svg>
