<?xml version="1.0" encoding="utf-8"?>
<!-- Generator: Adobe Illustrator 16.0.0, SVG Export Plug-In . SVG Version: 6.00 Build 0)  -->
<!DOCTYPE svg PUBLIC "-//W3C//DTD SVG 1.1//EN" "http://www.w3.org/Graphics/SVG/1.1/DTD/svg11.dtd">
<svg version="1.1" id="Capa_1" xmlns="http://www.w3.org/2000/svg" xmlns:xlink="http://www.w3.org/1999/xlink" x="0px" y="0px"
	 width="350px" height="350px" viewBox="0 0 350 350" enable-background="new 0 0 350 350" xml:space="preserve">
<path d="M306.779,163.158l-0.13-0.019c-0.052-0.01-0.099-0.042-0.15-0.047l-25-3.286l-0.01-48.933c0-0.033,0.015-0.075,0.015-0.075
	c0-0.084-0.015-0.131-0.015-0.188v-0.117c-0.004-0.145-0.037-0.281-0.046-0.426c-0.033-0.515-0.075-1.03-0.178-1.535
	c-0.023-0.113-0.066-0.225-0.089-0.337c-0.127-0.557-0.281-1.109-0.492-1.657c-0.019-0.042-0.042-0.084-0.057-0.126
	c-7.671-19.35-65.768-32.054-120.299-32.054c-58.527,0.004-121.184,14.632-121.184,36.407c0,0.07,0.019,0.14,0.019,0.206
	l-0.019,85.091c0,20.225,55.733,37.965,119.27,37.965l2.48-0.019c2.565-0.028,4.625-2.115,4.625-4.681v-31.492
	c5.05,1.681,12.423,4.151,18.723,6.273v38.76c0,1.095,0.384,2.158,1.081,3.001l23.404,28.084c0.046,0.057,0.121,0.075,0.168,0.132
	c0.052,0.056,0.074,0.135,0.126,0.191c0.267,0.262,0.599,0.416,0.913,0.608c0.178,0.108,0.323,0.258,0.516,0.342
	c0.584,0.258,1.216,0.412,1.871,0.412c0.011,0,0.015,0,0.024,0c37.975-0.178,73.604-4.615,95.299-11.87
	c1.905-0.637,3.197-2.43,3.197-4.438v-91.536C310.852,165.447,309.11,163.462,306.779,163.158z M214.663,174.715l-12.694-14.669
	l51.844,5.588l0.032,0.005h0.005l10.467,1.371l16.163,2.125C261.854,172.477,238.857,174.466,214.663,174.715z M272.133,158.576
	l-12.993-1.709v-17.922c5.06-2.031,9.46-5.317,12.989-9.151L272.133,158.576z M152.166,139.838
	c-64.5-1.175-103.449-20.347-103.645-29.001v-0.112c0.229-9.483,46.489-27.003,111.799-27.003
	c52.518,0,92.702,11.328,106.552,20.637c0.164,0.112,0.346,0.225,0.505,0.337c0.159,0.112,0.295,0.22,0.444,0.332
	c2.299,1.695,3.728,3.314,4.162,4.779c0.042,0.155,0.057,0.3,0.079,0.45c0.024,0.14,0.056,0.281,0.061,0.412v0.178
	c-0.074,3.487-5.869,15.311-16.414,19.509L140.773,106.39l-0.983-0.206c-0.117-0.023-0.238-0.005-0.355-0.019
	c-1.517-0.201-2.977,0.347-4.002,1.447c-0.159,0.168-0.342,0.313-0.478,0.51c-0.533,0.781-0.81,1.685-0.819,2.593
	c-0.009,0.903,0.243,1.816,0.758,2.607L152.166,139.838z M156.164,224.658c-67.042-0.427-107.657-19.954-107.657-28.595
	l0.014-71.157c18.339,13.621,61.266,23.999,107.643,24.331v42.146V224.658z M165.525,188.176v-43.601
	c0-0.051-0.019-0.098-0.023-0.154c-0.004-0.168-0.052-0.328-0.07-0.496c-0.037-0.253-0.056-0.51-0.131-0.758
	c-0.061-0.201-0.178-0.388-0.267-0.581c-0.088-0.192-0.149-0.393-0.262-0.571l-15.849-24.335l100.856,21.325v16.631l-60.017-7.887
	c-0.065-0.009-0.132,0.009-0.196,0.004l-0.028-0.004c-0.145-0.019-0.286,0.014-0.431,0.004c-0.226-0.009-0.449-0.009-0.674,0.01
	c-0.258,0.028-0.501,0.084-0.749,0.154c-0.132,0.038-0.263,0.033-0.393,0.08c-0.085,0.033-0.15,0.094-0.23,0.131
	c-0.225,0.098-0.426,0.225-0.637,0.356c-0.196,0.126-0.383,0.248-0.557,0.398c-0.173,0.149-0.323,0.323-0.473,0.5
	c-0.154,0.183-0.3,0.36-0.426,0.562c-0.047,0.08-0.122,0.136-0.164,0.215c-0.07,0.135-0.089,0.281-0.149,0.417
	c-0.094,0.215-0.174,0.431-0.234,0.66c-0.062,0.244-0.088,0.478-0.112,0.721c-0.01,0.154-0.061,0.29-0.061,0.435v1.544v40.292
	C175.182,191.19,169.358,189.267,165.525,188.176z M193.608,200.744v-35.789l14.043,16.229v76.848l-14.043-16.855V200.744z
	 M217.013,266.228v-82.189c32.925-0.486,63.635-4.17,84.479-10.072v81.936C281.387,261.968,250.429,265.76,217.013,266.228z"/>
</svg>
