<?xml version="1.0" encoding="utf-8"?>
<!-- Generator: Adobe Illustrator 16.0.0, SVG Export Plug-In . SVG Version: 6.00 Build 0)  -->
<!DOCTYPE svg PUBLIC "-//W3C//DTD SVG 1.1//EN" "http://www.w3.org/Graphics/SVG/1.1/DTD/svg11.dtd">
<svg version="1.1" id="Capa_1" xmlns="http://www.w3.org/2000/svg" xmlns:xlink="http://www.w3.org/1999/xlink" x="0px" y="0px"
	 width="350px" height="350px" viewBox="0 0 350 350" enable-background="new 0 0 350 350" xml:space="preserve">
<g>
	<path d="M306.181,283.41l-46.999-131.382v-50.325h1.409c2.337,0,4.229-1.893,4.229-4.229c0-2.335-1.893-4.229-4.229-4.229h-65.118
		c-2.336,0-4.229,1.894-4.229,4.229c0,2.335,1.893,4.229,4.229,4.229h1.41v50.326l-47,131.381
		c-2.199,6.145-1.609,12.297,1.617,16.879c3.227,4.581,8.821,7.209,15.348,7.209h122.368c6.527,0,12.121-2.628,15.348-7.209
		C307.79,295.707,308.38,289.555,306.181,283.41z M297.649,295.419c-1.646,2.335-4.64,3.622-8.434,3.622H166.848
		c-3.793,0-6.788-1.287-8.433-3.622c-1.645-2.335-1.847-5.588-0.569-9.161l47.247-132.071c0.164-0.457,0.247-0.939,0.247-1.424
		v-51.059h45.384v51.059c0,0.485,0.084,0.967,0.247,1.424l47.247,132.071C299.495,289.831,299.294,293.084,297.649,295.419z"/>
	<path d="M208.648,181.909c0.471,0.169,0.952,0.248,1.424,0.248c1.736,0,3.363-1.076,3.982-2.806l7.952-22.231
		c0.163-0.458,0.247-0.939,0.247-1.424v-41.307c0-2.335-1.893-4.229-4.229-4.229c-2.335,0-4.228,1.894-4.228,4.229v40.574
		l-7.706,21.541C205.305,178.703,206.449,181.124,208.648,181.909z"/>
	<path d="M275.24,247.138c-0.787-2.201-3.206-3.344-5.405-2.558s-3.345,3.206-2.558,5.405l11.498,32.141H177.288l29.711-83.055
		h42.064l12.517,34.987c0.787,2.199,3.206,3.346,5.405,2.558c2.199-0.786,3.345-3.206,2.557-5.405l-13.52-37.793
		c-0.601-1.682-2.195-2.804-3.981-2.804h-48.021c-1.786,0-3.38,1.122-3.981,2.804l-32.737,91.513
		c-0.463,1.295-0.268,2.734,0.524,3.859c0.792,1.124,2.082,1.794,3.458,1.794h113.494c1.375,0,2.665-0.67,3.457-1.794
		c0.793-1.125,0.988-2.564,0.525-3.859L275.24,247.138z"/>
	<path d="M104.529,165.852l-7.512,3.355c-11.169,4.988-20.608,13.055-27.298,23.325c-1.275,1.957-0.722,4.577,1.234,5.852
		c0.713,0.464,1.514,0.687,2.305,0.687c1.382,0,2.737-0.678,3.547-1.923c5.799-8.903,13.982-15.896,23.661-20.219l10.017-4.475
		c1.523-0.68,2.504-2.192,2.504-3.861v-54.204c0-2.335-1.893-4.229-4.229-4.229c-2.335,0-4.229,1.894-4.229,4.229V165.852z"/>
	<path d="M108.758,101.703c2.336,0,4.229-1.893,4.229-4.229V63.646c0-2.335-1.893-4.229-4.229-4.229
		c-2.335,0-4.229,1.893-4.229,4.229v33.829C104.529,99.81,106.422,101.703,108.758,101.703z"/>
	<path d="M137.136,297.622c-4.669,0.94-9.475,1.419-14.282,1.419c-39.639,0-71.887-32.249-71.887-71.888
		c0-28.332,16.722-54.108,42.602-65.668c1.523-0.681,2.504-2.193,2.504-3.861V50.96h53.563v106.664c0,1.668,0.98,3.181,2.504,3.861
		c7.828,3.497,14.916,8.332,21.064,14.372c0.823,0.81,1.893,1.213,2.963,1.213c1.094,0,2.188-0.423,3.018-1.266
		c1.636-1.666,1.612-4.344-0.055-5.98c-6.208-6.099-13.274-11.1-21.037-14.892V50.96h1.409c2.336,0,4.229-1.894,4.229-4.229
		s-1.893-4.229-4.229-4.229H86.206c-2.336,0-4.229,1.893-4.229,4.229s1.893,4.229,4.229,4.229h1.409v103.974
		c-27.491,13.432-45.105,41.479-45.105,72.22c0,44.303,36.042,80.345,80.344,80.345c5.368,0,10.735-0.533,15.953-1.586
		c2.29-0.461,3.771-2.69,3.311-4.979C141.656,298.644,139.426,297.161,137.136,297.622z"/>
	<path d="M162.042,215.985c2.335,0,4.229-1.894,4.229-4.229c0-2.335-1.893-4.229-4.229-4.229l-96.345-0.001
		c-1.91,0-3.583,1.281-4.082,3.125c-1.454,5.379-2.191,10.93-2.191,16.502c0,34.975,28.455,63.429,63.43,63.429
		c4.905,0,9.794-0.564,14.533-1.68c2.272-0.535,3.682-2.813,3.147-5.086c-0.536-2.272-2.811-3.682-5.085-3.146
		c-4.104,0.966-8.342,1.455-12.596,1.455c-30.312,0-54.972-24.66-54.972-54.972c0-3.755,0.387-7.499,1.151-11.171L162.042,215.985z"
		/>
</g>
</svg>
