<?xml version="1.0" encoding="utf-8"?>
<!-- Generator: Adobe Illustrator 16.0.0, SVG Export Plug-In . SVG Version: 6.00 Build 0)  -->
<!DOCTYPE svg PUBLIC "-//W3C//DTD SVG 1.1//EN" "http://www.w3.org/Graphics/SVG/1.1/DTD/svg11.dtd">
<svg version="1.1" id="Layer_1" xmlns="http://www.w3.org/2000/svg" xmlns:xlink="http://www.w3.org/1999/xlink" x="0px" y="0px"
	 width="350px" height="350px" viewBox="0 0 350 350" enable-background="new 0 0 350 350" xml:space="preserve">
<rect x="141.707" y="258.234" fill="#5B5D6E" width="66.586" height="33.294"/>
<rect x="141.707" y="258.234" fill="#464655" width="66.586" height="12.484"/>
<path fill="#707487" d="M287.366,262.396H62.634c-4.597,0-8.323-3.728-8.323-8.324V112.574c0-4.597,3.727-8.323,8.323-8.323h224.732
	c4.597,0,8.323,3.727,8.323,8.323v141.498C295.689,258.669,291.963,262.396,287.366,262.396z"/>
<rect x="154.191" y="104.251" fill="#5B5D6E" width="41.617" height="16.646"/>
<path fill="#959CB5" d="M274.881,245.749H75.119c-2.298,0-4.162-1.864-4.162-4.162V125.06c0-2.298,1.864-4.162,4.162-4.162h199.762
	c2.299,0,4.162,1.864,4.162,4.162v116.527C279.043,243.885,277.18,245.749,274.881,245.749z"/>
<path fill="#E4EAF8" d="M204.132,245.749h70.747c2.3,0,4.163-1.864,4.162-4.164l-0.002-5.681
	c-4.543-9.343-12.48-16.731-22.208-20.563c-1.633-0.643-2.758-2.145-2.758-3.899v-57.251h-24.971v57.251
	c0,1.755-1.126,3.257-2.759,3.899c-9.727,3.831-17.664,11.22-22.207,20.563"/>
<path fill="#D5DCED" d="M254.072,154.191h-24.971v57.251c0,1.755-1.126,3.256-2.758,3.899c-9.728,3.831-17.665,11.22-22.207,20.562
	l-0.005,9.846h20.809c0,0,0-20.809,14.808-30.407c1.062-0.688,1.84-2.145,1.84-3.899v-40.604c0-2.298,1.863-4.162,4.161-4.162h8.324
	L254.072,154.191L254.072,154.191z"/>
<path fill="#E4EAF8" d="M254.072,158.354h-24.971c-2.3,0-4.161-1.861-4.161-4.162c0-2.3,1.86-4.162,4.161-4.162h24.971
	c2.3,0,4.162,1.861,4.162,4.162S256.373,158.354,254.072,158.354z"/>
<path fill="#00C3FF" d="M209.385,245.749h64.405c-1.546-5.993-4.706-11.325-9.004-15.51c-0.77-0.748-1.827-1.137-2.9-1.137h-40.598
	c-1.072,0-2.13,0.389-2.899,1.137C214.09,234.424,210.931,239.756,209.385,245.749z"/>
<path fill="#00AAF0" d="M221.288,229.103c-1.072,0-2.13,0.389-2.899,1.137c-4.299,4.185-7.459,9.517-9.004,15.51h15.556
	c0,0,0.003-8.179,3.652-16.646H221.288z"/>
<path fill="#E4EAF8" d="M154.191,245.749l-22.967-26.801c-1.292-1.509-2.003-3.43-2.003-5.417v-75.986h-24.971v75.986
	c0,1.987-0.71,3.908-2.003,5.417l-22.967,26.801H154.191L154.191,245.749z"/>
<path fill="#9BF57D" d="M118.949,220.778h-4.425c-1.235,0-2.407,0.549-3.197,1.498l-19.561,23.473h49.941l-19.561-23.473
	C121.355,221.328,120.183,220.778,118.949,220.778z"/>
<path fill="#D5DCED" d="M100.089,245.749l16.588-26.801c0.934-1.509,1.447-3.43,1.447-5.417v-59.34c0-2.298,1.864-4.162,4.162-4.162
	h6.936v-12.486h-24.971v75.987c0,1.987-0.71,3.908-2.003,5.417l-22.967,26.801h74.911H100.089z"/>
<path fill="#E4EAF8" d="M129.222,141.707h-24.971c-2.3,0-4.162-1.862-4.162-4.163c0-2.3,1.861-4.162,4.162-4.162h24.971
	c2.3,0,4.162,1.861,4.162,4.162C133.383,139.845,131.521,141.707,129.222,141.707z"/>
<path fill="#707487" d="M229.103,295.689H120.897c-2.3,0-4.162-1.861-4.162-4.162c0-2.3,1.861-4.161,4.162-4.161h108.204
	c2.301,0,4.162,1.86,4.162,4.161S231.402,295.689,229.103,295.689z"/>
<g>
	<path fill="#E4EAF8" d="M192.696,174.43c-3.127-1.311-5.211-4.301-5.211-7.691V87.604h-24.971v79.131
		c0,3.4-2.099,6.387-5.233,7.705c-17.919,7.53-30.05,26.099-27.79,47.221c0.967,9.043,4.677,17.367,10.264,24.099l70.558-0.01
		c6.537-7.915,10.465-18.065,10.465-29.133C220.778,197.614,209.187,181.349,192.696,174.43z"/>
	<path fill="#E4EAF8" d="M179.202,62.634c-2.3,0-4.182-1.861-4.182-4.162c0-2.301,1.841-4.162,4.142-4.162h0.04
		c2.301,0,4.163,1.861,4.163,4.162C183.365,60.773,181.503,62.634,179.202,62.634z"/>
	<path fill="#E4EAF8" d="M166.717,75.119c-2.3,0-4.182-1.861-4.182-4.162c0-2.3,1.841-4.162,4.142-4.162h0.041
		c2.3,0,4.162,1.861,4.162,4.162C170.879,73.258,169.018,75.119,166.717,75.119z"/>
</g>
<path fill="#D5DCED" d="M162.515,87.604v79.13c0,3.4-2.099,6.388-5.233,7.705c-17.919,7.528-30.05,26.1-27.79,47.222
	c0.967,9.043,4.677,17.367,10.264,24.099l21.138-0.003c-3.555-6.732-5.916-15.054-6.531-24.097
	c-1.438-21.122,6.28-39.692,17.685-47.221c1.995-1.317,3.33-4.305,3.33-7.705v-62.483c0-2.298,1.863-4.162,4.162-4.162h7.946V87.604
	H162.515z"/>
<path fill="#E4EAF8" d="M187.485,91.766h-24.971c-2.3,0-4.162-1.861-4.162-4.162c0-2.301,1.861-4.162,4.162-4.162h24.971
	c2.301,0,4.162,1.861,4.162,4.162C191.647,89.904,189.786,91.766,187.485,91.766z"/>
<path fill="#FF5050" d="M137.545,216.617c0,11.773,5.442,22.266,13.938,29.132h47.036c8.494-6.866,13.937-17.358,13.937-29.132
	c0-3.308-0.451-6.506-1.268-9.556c-0.471-1.762-2.152-2.93-3.977-2.93H142.79c-1.824,0-3.506,1.167-3.978,2.93
	C137.996,210.111,137.545,213.31,137.545,216.617z"/>
<path fill="#C84146" d="M142.79,204.132c-1.824,0-3.506,1.167-3.978,2.93c-0.816,3.05-1.267,6.248-1.267,9.556
	c0,11.773,5.442,22.266,13.938,29.132h9.409c-3.553-6.729-5.912-15.049-6.526-24.088c-0.417-6.132-0.042-12.035,0.949-17.529H142.79
	z"/>
<g>
	<path fill="#FF6464" d="M199.971,224.94c-2.301,0-4.183-1.861-4.183-4.162c0-2.3,1.841-4.162,4.142-4.162h0.041
		c2.3,0,4.162,1.861,4.162,4.162C204.132,223.079,202.271,224.94,199.971,224.94z"/>
	<path fill="#FF6464" d="M175.041,233.264c-2.3,0-4.182-1.861-4.182-4.162c0-2.3,1.841-4.161,4.142-4.161h0.041
		c2.3,0,4.162,1.86,4.162,4.161S177.341,233.264,175.041,233.264z"/>
	<path fill="#FF6464" d="M154.232,224.94c-2.3,0-4.182-1.861-4.182-4.162c0-2.3,1.841-4.162,4.142-4.162h0.041
		c2.3,0,4.162,1.861,4.162,4.162S156.533,224.94,154.232,224.94z"/>
</g>
<path fill="#FF5050" d="M154.737,224.838c-0.123-1.06-0.3-2.094-0.374-3.177c-0.116-1.701-0.157-3.381-0.154-5.044h-0.018
	c-2.3,0-4.142,1.861-4.142,4.162c0,2.3,1.881,4.161,4.182,4.161C154.412,224.94,154.564,224.859,154.737,224.838z"/>
<path fill="#8CE16E" d="M91.766,245.749h8.323l15.455-24.971h-1.02c-1.235,0-2.407,0.549-3.197,1.498L91.766,245.749z"/>
</svg>
