<?xml version="1.0" encoding="utf-8"?>
<!-- Generator: Adobe Illustrator 16.0.0, SVG Export Plug-In . SVG Version: 6.00 Build 0)  -->
<!DOCTYPE svg PUBLIC "-//W3C//DTD SVG 1.1 Tiny//EN" "http://www.w3.org/Graphics/SVG/1.1/DTD/svg11-tiny.dtd">
<svg version="1.1" baseProfile="tiny" id="Layer_1" xmlns="http://www.w3.org/2000/svg" xmlns:xlink="http://www.w3.org/1999/xlink"
	 x="0px" y="0px" width="350px" height="350px" viewBox="0 0 350 350" overflow="scroll" xml:space="preserve">
<g>
	<g>
		
			<polyline fill="#FDC116" stroke="#231F20" stroke-width="4.9756" stroke-linecap="round" stroke-linejoin="round" stroke-miterlimit="10" points="
			206.48,216.77 206.48,291.713 234.799,307.609 187.472,307.609 195.162,216.77 		"/>
		
			<line fill="none" stroke="#231F20" stroke-width="4.9756" stroke-linecap="round" stroke-linejoin="round" stroke-miterlimit="10" x1="190.178" y1="284.336" x2="206.353" y2="284.336"/>
		
			<line fill="none" stroke="#231F20" stroke-width="4.9756" stroke-linecap="round" stroke-linejoin="round" stroke-miterlimit="10" x1="190.178" y1="275.439" x2="206.353" y2="275.439"/>
		
			<polyline fill="#FDC116" stroke="#231F20" stroke-width="4.9756" stroke-linecap="round" stroke-linejoin="round" stroke-miterlimit="10" points="
			171.291,216.77 171.291,291.713 199.609,307.609 152.281,307.609 159.971,216.77 		"/>
		
			<line fill="none" stroke="#231F20" stroke-width="4.9756" stroke-linecap="round" stroke-linejoin="round" stroke-miterlimit="10" x1="155.115" y1="275.439" x2="171.291" y2="275.439"/>
		
			<line fill="none" stroke="#231F20" stroke-width="4.9756" stroke-linecap="round" stroke-linejoin="round" stroke-miterlimit="10" x1="155.115" y1="284.336" x2="171.291" y2="284.336"/>
	</g>
	<g>
		<g>
			
				<line fill="#FDC116" stroke="#231F20" stroke-width="4.9756" stroke-linecap="round" stroke-linejoin="round" stroke-miterlimit="10" x1="195.07" y1="212.892" x2="206.39" y2="212.892"/>
			
				<path fill="#FDC116" stroke="#231F20" stroke-width="4.9756" stroke-linecap="round" stroke-linejoin="round" stroke-miterlimit="10" d="
				M234.708,303.733"/>
		</g>
		<g>
			
				<line fill="#FDC116" stroke="#231F20" stroke-width="4.9756" stroke-linecap="round" stroke-linejoin="round" stroke-miterlimit="10" x1="159.971" y1="212.892" x2="171.291" y2="212.892"/>
		</g>
		<g>
			<g>
				
					<path fill="#FFFFFF" stroke="#231F20" stroke-width="4.9756" stroke-linecap="round" stroke-linejoin="round" stroke-miterlimit="10" d="
					M76.348,170.84c1.526,9.908,8.458,22.969,14.386,22.055c5.926-0.916,8.604-15.453,7.076-25.363
					c-1.526-9.907-7.567-17.197-13.495-16.286C78.387,152.161,74.819,160.932,76.348,170.84z"/>
				
					<path fill="#EB2427" stroke="#231F20" stroke-width="4.9756" stroke-linecap="round" stroke-linejoin="round" stroke-miterlimit="10" d="
					M210.58,66.955c-2.078,7.221-1.473,18.285,2.849,19.528c4.319,1.242,10.714-7.806,12.79-15.026
					c2.08-7.221,0.264-14.081-4.055-15.325C217.843,54.889,212.656,59.735,210.58,66.955z"/>
				
					<path fill="#EB2427" stroke="#231F20" stroke-width="4.9756" stroke-linecap="round" stroke-linejoin="round" stroke-miterlimit="10" d="
					M187.677,64.042c4.202,9.103,14.469,19.74,19.915,17.224c5.442-2.514,4.004-17.228-0.201-26.329
					c-4.202-9.101-12.022-14.44-17.467-11.926C184.479,45.526,183.473,54.943,187.677,64.042z"/>
				
					<path fill="#EB2427" stroke="#231F20" stroke-width="4.9756" stroke-linecap="round" stroke-linejoin="round" stroke-miterlimit="10" d="
					M171.671,73.666c6.702,3.401,17.682,4.886,19.715,0.877c2.033-4.007-5.649-11.992-12.351-15.39
					c-6.7-3.401-13.779-2.908-15.815,1.101C161.188,64.262,164.972,70.268,171.671,73.666z"/>
				
					<path fill="#FFFFFF" stroke="#231F20" stroke-width="4.9756" stroke-linecap="round" stroke-linejoin="round" stroke-miterlimit="10" d="
					M67.735,185.764c5.427,4.682,15.255,8.568,18.056,5.319c2.797-3.246-2.492-12.395-7.921-17.076
					c-5.426-4.68-12.096-5.841-14.896-2.594C60.175,174.661,62.306,181.086,67.735,185.764z"/>
				<path fill="#FFFFFF" d="M275.396,215.461c26.255-45.037,11.036-102.824-33.992-129.078
					c-45.028-26.255-102.814-11.036-129.067,33.992c-8.537,14.639-12.685,30.626-12.854,46.441v-0.001
					c-1.204,15.532-9.744,40.631-35.849,14.383c15.505,54.841,52.144,75.115,87.872,80.919c20.945,3.403,39.8,1.504,53.321-0.452
					C233.175,257.563,259.858,242.111,275.396,215.461z"/>
				<g>
					<path fill="#E0D5D9" d="M190.418,157.799c-15.836-16.627-42.152-17.269-58.781-1.434c-10.847,10.331-14.885,25.12-11.99,38.773
						c1.68-7.925,5.561-15.575,11.99-21.454C156.396,151.053,190.418,157.799,190.418,157.799z"/>
				</g>
				<path fill="#E0D5D9" d="M288.245,166.732c-0.002-0.236-0.007-0.47-0.011-0.707c-0.666-31.776-17.364-62.461-46.831-79.643
					c-39.008-22.745-87.586-14.358-116.949,17.564c8.871-3.817,18.479-6.333,28.616-7.273c51.9-4.807,97.873,33.369,102.681,85.27
					c2.553,27.571-7.441,53.015-24.467,72.265c9.283-4.012,17.977-9.434,25.669-16.255c0.111-0.106,0.229-0.216,0.339-0.321
					c18.663-17.88,30.848-42.502,30.959-69.706C288.252,167.529,288.25,167.13,288.245,166.732z"/>
				
					<path fill="none" stroke="#231F20" stroke-width="4.9756" stroke-linecap="round" stroke-linejoin="round" stroke-miterlimit="10" d="
					M275.396,215.461c26.255-45.037,11.036-102.824-33.992-129.078c-45.028-26.255-102.814-11.036-129.067,33.992
					c-8.537,14.639-12.685,30.626-12.854,46.441v-0.001c-1.204,15.532-9.744,40.631-35.849,14.383
					c15.505,54.841,52.144,75.115,87.872,80.919c20.945,3.403,39.8,1.504,53.321-0.452
					C233.175,257.563,259.858,242.111,275.396,215.461z"/>
				
					<path fill="none" stroke="#231F20" stroke-width="4.9756" stroke-linecap="round" stroke-linejoin="round" stroke-miterlimit="10" d="
					M188.985,216.59c-16.628,15.835-42.945,15.194-58.782-1.437c-15.834-16.634-15.193-42.952,1.434-58.788
					c16.629-15.835,42.945-15.193,58.781,1.434"/>
				<circle fill="#231F20" cx="223.804" cy="132.607" r="8.217"/>
				<circle fill="#231F20" cx="262.19" cy="132.607" r="8.217"/>
				
					<path fill="#FDC116" stroke="#231F20" stroke-width="4.9756" stroke-linecap="round" stroke-linejoin="round" stroke-miterlimit="10" d="
					M244.061,137.79c0,0-6.315,6.574-6.315,15.825c0,9.252,6.315,15.825,6.315,15.825l28.978-15.825L244.061,137.79z"/>
				<path fill="#E8A424" d="M244.061,137.79c0,0,1.431-3.812-0.437,0.676c6.339,5.787,10.348,13.342,12.23,24.533l17.184-9.384
					L244.061,137.79z"/>
				
					<path fill="none" stroke="#231F20" stroke-width="4.9756" stroke-linecap="round" stroke-linejoin="round" stroke-miterlimit="10" d="
					M238.672,147.452c0,0,5.989,10.466,34.366,6.163"/>
				
					<path fill="none" stroke="#231F20" stroke-width="4.9756" stroke-linecap="round" stroke-linejoin="round" stroke-miterlimit="10" d="
					M244.061,137.79c0,0-6.315,6.574-6.315,15.825c0,9.252,6.315,15.825,6.315,15.825l28.978-15.825L244.061,137.79z"/>
			</g>
		</g>
	</g>
</g>
</svg>
