<?xml version="1.0" encoding="utf-8"?>
<!-- Generator: Adobe Illustrator 16.0.0, SVG Export Plug-In . SVG Version: 6.00 Build 0)  -->
<!DOCTYPE svg PUBLIC "-//W3C//DTD SVG 1.1 Tiny//EN" "http://www.w3.org/Graphics/SVG/1.1/DTD/svg11-tiny.dtd">
<svg version="1.1" baseProfile="tiny" id="Layer_1" xmlns="http://www.w3.org/2000/svg" xmlns:xlink="http://www.w3.org/1999/xlink"
	 x="0px" y="0px" width="350px" height="350px" viewBox="0 0 350 350" overflow="scroll" xml:space="preserve">
<g>
	<g>
		<path fill-rule="evenodd" fill="#414042" d="M273.868,191.775c-1.358-0.532-2.765-0.94-4.209-1.424
			c1.973-1.179,3.947-2.054,5.552-3.376c4.151-3.419,3.359-8.253-1.57-10.192c-0.984-0.388-2.05-0.618-3.1-0.775
			c-3.76-0.559-7.53-1.055-11.296-1.576c1.576-1.459,3.33-2.226,4.748-3.398c0.818-0.677,1.563-2.057,1.467-3.035
			c-0.08-0.809-1.319-1.843-2.257-2.168c-4.503-1.564-9.053-3-13.63-4.333c-5.67-1.649-10.587-4.547-14.721-8.708
			c-0.819-0.825-1.366-2.203-1.49-3.384c-0.403-3.838-0.236-7.756-0.861-11.548c-1.833-11.097-7.957-20.143-14.771-28.656
			c-7.897-9.865-18.214-16.822-29.272-22.708c-1.217-0.648-2.623-0.961-3.965-1.345c-5.672-1.62-11.426-2.993-17.007-4.876
			c-4.59-1.548-6.751-7.184-4.928-11.744c0.915-2.291,1.876-4.564,2.873-6.82c0.55-1.248,1.3-2.756-0.293-3.405
			c-0.869-0.354-2.606,0.22-3.351,0.971c-2.949,2.978-5.836,6.053-8.418,9.35c-3.488,4.458-5.568,9.514-4.97,15.351
			c0.181,1.753-0.945,2.429-2.289,2.673c-3.69,0.67-5.226,3.111-5.665,6.527c-0.23,1.791-0.279,3.608-0.58,5.384
			c-0.413,2.436-0.666,4.801-2.644,6.837c-4.004,4.12-7.812,8.464-11.371,12.976c-1.952,2.474-3.46,5.373-4.771,8.261
			c-3.314,7.295-4.989,14.954-4.53,23.034c0.052,0.921-0.459,2.136-1.126,2.793c-3.426,3.375-7.211,6.317-11.829,7.89
			c-5.447,1.855-10.975,3.478-16.409,5.367c-1.091,0.379-2.638,1.443-2.7,2.286c-0.079,1.068,0.927,2.483,1.86,3.292
			c1.286,1.112,2.941,1.797,4.439,2.665c-1.574,0.696-2.951,0.885-4.324,1.094c-3.17,0.48-6.389,0.763-9.488,1.528
			c-2.1,0.519-4.465,1.361-4.795,4.038c-0.334,2.706,0.6,5.096,2.896,6.686c1.588,1.1,3.353,1.945,5.188,2.99
			c-1.687,0.615-3.365,1.055-4.88,1.818c-2.859,1.44-3.428,5.553-0.879,7.406c1.679,1.222,3.815,2.484,5.775,2.529
			c8.5,0.196,16.965-0.285,24.824-4.157c3.599-1.774,7.226-3.494,10.653-5.147c-0.443,4.756-0.88,9.635-1.36,14.51
			c-0.788,8.008,1.043,15.591,4.115,22.846c3.758,8.878,9.876,16.069,16.998,22.491c6.123,5.521,9.479,12.755,11.614,20.521
			c0.936,3.404,1.051,7.035,1.56,10.722c-2.649,0-4.687-0.321-6.551,0.109c-1.299,0.299-3.014,1.436-3.345,2.553
			c-0.341,1.146,0.48,2.962,1.347,4.039c0.651,0.81,2.235,1.38,3.307,1.25c3.716-0.452,7.409-1.173,11.066-1.99
			c0.789-0.176,1.911-1.157,1.949-1.819c0.049-0.856-0.846-1.763-1.319-2.655c-0.406-0.766-1.151-1.557-1.125-2.314
			c0.133-3.767,0.421-7.53,0.756-11.285c0.214-2.401,0.606-4.786,0.853-6.676c6.597,0.532,12.633,1.377,18.673,1.407
			c6.111,0.032,12.226-0.741,19.013-1.208c0.146,5.566,0.313,11.377,0.429,17.188c0.006,0.331-0.349,0.704-0.598,1.007
			c-1.846,2.228-1.36,3.735,1.585,4.024c4.14,0.405,8.312,0.636,12.469,0.604c1.111-0.008,3.115-1.221,3.129-1.909
			c0.025-1.306-0.833-2.902-1.824-3.861c-0.759-0.736-2.28-0.887-3.473-0.923c-2.098-0.062-4.205,0.168-6.406,0.279
			c0.195-2.949,0.077-5.87,0.645-8.651c0.817-4.006,2.088-7.924,3.287-11.844c0.183-0.598,0.938-1.155,1.563-1.462
			c6.869-3.386,12.277-8.597,17.317-14.157c7.469-8.241,12.567-17.915,13.83-28.953c0.755-6.61-0.331-13.437-0.687-20.161
			c-0.065-1.252-0.591-2.479-0.957-3.929c0.614,0.151,0.877,0.157,1.072,0.274c8.655,5.186,17.781,8.923,28.04,9.292
			c4.028,0.145,8.054,0.653,11.732-1.76c1.799-1.177,2.567-2.681,2.476-4.748C276.846,193.532,275.576,192.446,273.868,191.775z
			 M157.255,68.929c0.074-0.389,0.323-0.757,0.542-1.101c0.123-0.191,0.354-0.313,0.195-0.18c0.213,2.858,0.253,5.971,0.721,9.018
			c0.555,3.613,2.95,5.471,6.439,6.625c9.174,3.032,18.264,6.333,27.332,9.676c2.509,0.925,2.279,3.314-0.653,6.38
			c-4.807-7.446-12.71-5.406-19.679-6.412c-2.518-0.363-5.069-0.597-7.545-1.157c-3.909-0.882-6.586-3.232-7.636-7.219
			C155.592,79.323,156.257,74.121,157.255,68.929z M188.206,101.449c-7.954,2.371-14.104-2.688-21.59-4.967
			c5.636,0.384,10.6,0.596,15.531,1.104C185.205,97.9,186.812,99.127,188.206,101.449z M150.576,88.124
			c1.273-1.345,1.419-2.704,1.305-4.478c-0.156-2.42,0.245-4.875,0.407-7.316c0.286-0.009,0.572-0.019,0.859-0.029
			c-0.702,8.441,0.25,16.032,10.435,19.292c-4.384,0.629-8.044,1.154-12.393,1.778c-0.601-1.915-1.483-4.057-1.867-6.285
			C149.165,90.18,149.867,88.873,150.576,88.124z M144.736,90.692c0.192,0.107,0.384,0.214,0.577,0.322
			c1.122,2.618,2.243,5.237,3.448,8.051c-1.462,0.787-3.43,1.844-6.077,3.266C143.457,97.954,144.096,94.323,144.736,90.692z
			 M226.941,230.022c-0.213-0.058-0.427-0.116-0.641-0.174c1.447-4.23,3.335-8.373,4.216-12.718
			c0.89-4.392,0.781-8.983,1.145-13.961C235.229,213.459,229.812,221.489,226.941,230.022z M267.597,198.119
			c-11.961,0.099-22.8-3.345-32.837-9.849c-9.369-6.07-17.424-13.457-24.149-22.333c-0.298-0.393-0.535-0.916-0.935-1.133
			c-0.577-0.313-1.274-0.402-1.923-0.586c-0.058,0.66-0.413,1.516-0.128,1.948c1.859,2.813,3.774,5.597,5.839,8.261
			c1.408,1.817,3.21,3.33,4.619,5.147c1.583,2.043,3.163,4.154,4.327,6.449c5.657,11.145,7.348,22.904,3.914,34.969
			c-1.653,5.808-4.325,11.361-6.896,16.862c-2.792,5.976-7.945,9.901-12.832,13.996c-0.25-0.176-0.499-0.352-0.749-0.526
			c0.644-0.973,1.165-2.062,1.953-2.896c6.175-6.536,10.44-14.151,12.949-22.759c0.36-1.235,0.454-2.547,0.673-3.822
			c-0.252-0.113-0.504-0.227-0.754-0.339c-2.643,4.722-5.283,9.442-8.025,14.347c-0.203-3.697-0.468-7.071-0.556-10.445
			c-0.241-9.178-4.14-16.47-11.433-21.889c-4.204-3.124-8.256-6.619-13.619-7.75c-7.44-1.571-14.932-2.999-22.357-0.261
			c-1.865,0.688-3.46,2.35-4.882,3.845c-0.412,0.434,0.21,1.851,0.358,2.817c0.749-0.313,1.72-0.429,2.209-0.977
			c2.346-2.619,5.541-3.024,8.598-2.858c4.326,0.237,8.75,0.693,12.887,1.895c5.037,1.465,10.35,2.81,14.117,6.933
			c1.568,1.717,2.987,3.63,4.168,5.634c5.18,8.798,7.604,18.155,3.945,28.083c-2.415,6.551-5.313,13.006-12.617,15.869
			c-4.274,1.676-8.377,3.818-12.708,5.312c-4.281,1.477-8.782,1.066-13.071-0.184c-4.466-1.302-9.243-2.305-13.106-4.695
			c-4.367-2.702-7.697-7.073-9.244-12.134c-1.502-4.911-2.48-10.021-3.262-15.105c-0.458-2.974-0.084-6.072-0.084-9.735
			c-6.041,12.604-1.401,23.465,3.091,34.691c-2.318-1.757-4.742-3.394-6.936-5.293c-6.86-5.944-12.657-12.797-16.344-21.15
			c-4.2-9.511-5.896-19.312-2.131-29.465c0.823-2.218,1.246-4.605,2.243-6.733c3.172-6.772,9.12-11.35,13.733-16.988
			c2.237-2.735,4.325-5.6,6.32-8.516c0.414-0.604,0.111-1.7,0.139-2.569c-0.747,0.34-1.777,0.474-2.194,1.051
			c-5.557,7.683-12.417,14.061-19.858,19.828c-2.526,1.958-5.3,3.638-8.1,5.197c-8.001,4.456-16.407,7.64-25.751,7.627
			c-1.233-0.003-2.497,0.356-3.692,0.179c-1.841-0.274-3.634-0.869-5.447-1.327c0.004-0.37,0.009-0.739,0.014-1.107
			c2.312-0.681,4.606-1.43,6.938-2.031c8.357-2.156,16.389-5.004,23.121-10.665c0.814-0.684,1.729-1.406,2.174-2.316
			c0.351-0.718,0.049-1.754,0.037-2.65c-0.897,0.072-1.985-0.156-2.657,0.272c-2.145,1.359-4.053,3.092-6.199,4.447
			c-5.906,3.736-12.458,4.454-19.24,3.726c-2.217-0.238-2.617-0.753-3.276-3.518c3.471-0.813,6.965-1.561,10.42-2.459
			c7.306-1.899,14.903-3.073,21.062-7.986c1.218-0.971,2.408-2.013,3.426-3.184c0.486-0.559,0.54-1.495,0.96-2.784
			c-4.069,1.458-7.505,2.685-10.938,3.924c-0.929,0.335-1.822,0.889-2.773,1.003c-0.757,0.091-1.576-0.333-2.367-0.528
			c0.415-0.769,0.635-1.889,1.278-2.243c2.151-1.187,4.608-1.857,6.666-3.168c4.003-2.549,7.814-5.4,11.079-7.687
			c1.549,0.87,3.035,2.389,4.005,2.111c2.224-0.638,1.068-2.68,0.754-4.209c-3.06-14.856,1.131-27.645,10.997-38.843
			c5.194-5.895,10.7-11.414,17.841-14.978c6.666-3.327,13.342-3.019,19.989,0.072c5.025,2.337,10.089,4.311,15.82,4.208
			c4.883-0.087,8.594-2.617,12.228-5.262c1.529-1.113,2.699-1.548,4.113-0.336c2.982,2.554,6.112,4.989,8.776,7.849
			c3.216,3.45,6.146,7.19,8.963,10.98c7.711,10.378,10.344,22.04,8.413,34.779c-0.186,1.221-0.521,2.46-0.437,3.666
			c0.054,0.799,0.733,1.555,1.133,2.33c0.786-0.458,1.643-0.831,2.331-1.405c0.389-0.322,0.5-0.977,0.729-1.464
			c3.996,2.804,7.828,5.646,11.825,8.229c1.842,1.19,4.079,1.754,5.999,2.844c0.833,0.472,1.318,1.558,1.961,2.364
			c-0.985,0.171-2.094,0.723-2.936,0.451c-4.189-1.358-8.309-2.933-13.103-4.111c0.456,0.942,0.718,2.063,1.397,2.799
			c4.112,4.446,9.401,6.855,15.159,8.317c4.939,1.255,9.915,2.362,14.865,3.572c1.424,0.348,2.815,0.821,4.201,1.229
			c0.141,2.195-1.029,3.141-2.722,3.362c-6.6,0.858-13.01,0.203-18.866-3.184c-2.405-1.392-4.499-3.314-6.86-4.793
			c-0.731-0.458-1.88-0.249-2.838-0.346c0.066,0.964-0.253,2.362,0.262,2.816c2.515,2.222,5.087,4.461,7.942,6.192
			c6.623,4.017,14.128,5.784,21.507,7.826c0.844,0.232,1.665,0.546,2.781,0.917C271.415,197.691,269.592,198.103,267.597,198.119z
			 M165.539,134.273c0.187-3.665-0.183-7.364-0.394-11.043c-0.245-4.293-2.721-7.017-6.36-8.979
			c-6.473-3.489-13.729,0.648-13.933,8.01c-0.019,0.658-0.003,1.316-0.003,1.975c-0.021,8.937,4.427,14.959,12.129,16.443
			C161.625,141.573,165.299,139.011,165.539,134.273z M156.073,126.958c-0.399,1.618-2.313,2.168-3.477,1.07
			c-1.745-1.644-2.625-5.441-1.453-7.556c0.458-0.83,1.653-1.662,2.549-1.705c0.688-0.032,1.75,1.044,2.08,1.857
			c0.477,1.176,0.441,2.56,0.522,3.139C156.199,125.322,156.267,126.172,156.073,126.958z M196.445,114.057
			c-2.242-1.401-5.868-1.335-7.772,0.461c-4.564,4.307-8.491,15.213-4.406,21.983c2.195,3.639,6.894,5.274,10.764,3.343
			c5.623-2.805,7.416-7.725,7.743-13.493C202.982,121.015,201.002,116.906,196.445,114.057z M193.312,123.287
			c-0.982,2.758-1.462,2.849-5.131,1.417c1.045-2.214,1.936-4.26,2.989-6.217c0.232-0.431,1.128-0.846,1.57-0.725
			c0.425,0.115,0.914,0.928,0.925,1.445C193.696,120.571,193.757,122.038,193.312,123.287z M185.058,142.709
			c-2.349-1.492-4.739-2.958-6.901-4.699c-2.526-2.034-3.989-2.309-6.695-0.352c-2.729,1.972-5.349,4.095-8.048,6.11
			c-1.228,0.917-1.414,1.827-0.474,3.114c1.631,2.236,3.173,4.539,4.695,6.852c2.512,3.817,4.979,7.666,7.743,11.929
			c3.846-5.611,7.723-11.059,11.365-16.66C188.83,145.795,188.39,144.826,185.058,142.709z M173.638,155.834
			c-0.156,0.125-0.312,0.25-0.467,0.375c-2.38-3.168-4.76-6.337-7.338-9.771c2.561-1.838,4.897-3.515,7.805-5.602V155.834z
			 M177.772,156.646c-0.229-0.113-0.46-0.227-0.689-0.34v-15.113c2.553,1.641,4.7,3.021,7.406,4.762
			C182.172,149.643,179.972,153.144,177.772,156.646z M136.499,162.832c-6.73,6.133-12.165,13.684-20.166,18.443
			c-0.403,0.24-0.777,1.384-0.593,1.585c0.417,0.455,1.332,0.959,1.792,0.782c1.438-0.548,3.033-1.133,4.08-2.186
			c5.152-5.186,10.205-10.475,15.157-15.85c1.165-1.265,1.808-3.011,2.691-4.536c-0.225-0.141-0.45-0.281-0.675-0.422
			C138.025,161.377,137.278,162.122,136.499,162.832z M227.683,176.906c-4.714-4.481-9.276-9.122-13.903-13.693
			c-0.898-0.886-1.824-1.743-2.737-2.612c-0.177,0.133-0.354,0.266-0.53,0.399c0.583,1.128,1.062,2.326,1.766,3.372
			c4.496,6.691,10.183,12.281,16.362,17.384c0.991,0.817,2.236,1.427,3.466,1.813c0.586,0.184,1.409-0.388,2.124-0.616
			c-0.343-0.648-0.53-1.485-1.054-1.911C231.398,179.596,229.332,178.474,227.683,176.906z M190.596,210.631
			c4.712,1.834,7.696,5.409,10.184,9.556c0.486,0.813,0.955,1.636,1.433,2.453c0.199-0.031,0.397-0.066,0.596-0.1
			c0.122-0.827,0.351-1.654,0.347-2.481c-0.016-3.524-1.692-6.391-4.229-8.564c-2.131-1.824-4.636-3.269-7.144-4.552
			c-0.541-0.277-1.803,0.854-2.731,1.336C189.556,209.086,189.883,210.353,190.596,210.631z M132.187,182.146
			c-3.387,4.749-6.663,9.584-9.803,14.499c-0.704,1.102-0.835,2.646-0.95,4.009c-0.043,0.517,0.707,1.101,1.095,1.653
			c0.48-0.465,1.131-0.845,1.412-1.408c0.982-1.974,1.627-4.141,2.783-5.994c2.612-4.191,5.459-8.234,8.195-12.35
			c0.478-0.721,0.874-1.494,1.308-2.245c-0.247-0.244-0.492-0.488-0.739-0.733C134.37,180.422,132.962,181.06,132.187,182.146z
			 M131.803,206.859c0.341-0.827,0.355-1.788,0.52-2.688c-0.161-0.064-0.322-0.128-0.483-0.192
			c-0.394,0.368-0.918,0.666-1.162,1.115c-2.428,4.474-4.853,8.949-7.166,13.484c-0.424,0.832-0.568,1.958-0.425,2.883
			c0.126,0.821,0.833,1.552,1.283,2.323c0.538-0.688,1.271-1.3,1.577-2.079c0.773-1.97,1.249-4.054,2.038-6.016
			C129.18,212.716,130.583,209.824,131.803,206.859z M125.172,209.055c2.243-3.833,4.388-7.728,6.469-11.651
			c0.62-1.169,0.93-2.502,1.553-4.236c-0.941,0.315-1.374,0.321-1.505,0.522c-3.11,4.809-6.225,9.615-9.208,14.503
			c-0.252,0.414,0.411,1.388,0.649,2.102C123.827,209.891,124.818,209.659,125.172,209.055z M134.427,213.76
			c-0.75,0.099-0.986,0.062-1.044,0.146c-3.601,5.251-5.247,11.222-6.252,17.397c-0.08,0.485,0.698,1.11,1.077,1.671
			c0.526-0.514,1.34-0.94,1.527-1.558c0.835-2.737,1.485-5.528,2.213-8.298C132.732,220.13,133.53,217.143,134.427,213.76z
			 M231.796,176.421c0.553,0.376,1.604,0.019,2.423,0.002c-0.202-0.787-0.14-1.914-0.647-2.31c-3.795-2.96-7.701-5.777-11.573-8.638
			c-0.219,0.26-0.437,0.519-0.655,0.779C224.16,170.313,227.714,173.653,231.796,176.421z M118.104,176.428
			c4.091-2.763,7.642-6.113,10.467-10.171c-0.216-0.264-0.431-0.525-0.646-0.788c-3.871,2.86-7.778,5.675-11.571,8.634
			c-0.513,0.399-0.46,1.522-0.67,2.31C116.503,176.435,117.552,176.8,118.104,176.428z M131.528,234.332
			c-0.038,0.564,0.792,1.189,1.217,1.787c0.434-0.514,1.142-0.975,1.254-1.552c0.607-3.128,1.105-6.282,1.564-9.437
			c0.228-1.572,0.291-3.166,0.429-4.75c-0.279-0.038-0.561-0.077-0.84-0.118C133.046,224.704,131.868,229.416,131.528,234.332z"/>
	</g>
</g>
</svg>
