<?xml version="1.0" encoding="utf-8"?>
<!-- Generator: Adobe Illustrator 16.0.0, SVG Export Plug-In . SVG Version: 6.00 Build 0)  -->
<!DOCTYPE svg PUBLIC "-//W3C//DTD SVG 1.1//EN" "http://www.w3.org/Graphics/SVG/1.1/DTD/svg11.dtd">
<svg version="1.1" id="Layer_1" xmlns="http://www.w3.org/2000/svg" xmlns:xlink="http://www.w3.org/1999/xlink" x="0px" y="0px"
	 width="350px" height="350px" viewBox="0 0 350 350" enable-background="new 0 0 350 350" xml:space="preserve">
<g>
	<path fill-rule="evenodd" clip-rule="evenodd" fill="#553310" d="M109.008,176.766c-5.157-6.021-18.241-12.108-24.333-8.573
		c-16.836,9.772-11.059,37.469,2.293,46.338c3.896,2.588,15.876,8.106,29.311,6.653c13.436-1.453,23.323-10.841,26.088-13.478
		c-5.765-0.668-8.011-3.15-7.86-3.211c0.15-0.062,7.939-3.668,6.646-3.849s-7.466-3.021-7.466-3.021s5.988-3.499,5.286-3.113
		C132.972,197.814,113.48,180.655,109.008,176.766z"/>
	<path fill-rule="evenodd" clip-rule="evenodd" fill="#4A2D0E" d="M92.885,167.577c-3.162-0.678-6.104-0.606-8.21,0.616
		c-16.836,9.772-11.059,37.469,2.293,46.338c3.896,2.588,15.876,8.106,29.311,6.653c13.436-1.453,23.323-10.841,26.088-13.478
		C81.833,232.83,75.363,179.342,92.885,167.577z"/>
	<g>
		<path fill-rule="evenodd" clip-rule="evenodd" fill="#F48120" d="M161.948,252.627c0.624,2.967,6.403,26.084,6.403,26.084
			s-4.109,0.23-8.405,1.479c-5.951,1.731-4.553,5.797,3.954,5.158c3.124-0.234,5.623-0.546,9.137,1.016
			c3.515,1.562,7.811,4.921,13.433,4.687c5.623-0.234,5.701-2.109,5.468-3.359c-0.234-1.249-0.234-1.249-0.234-1.249
			s2.968,1.289,5.506-0.312c2.538-1.602,0.703-3.789-0.039-4.452c-3.387-3.03-10.513-1.235-14.644-1.289
			c-6.014-0.077-7.342-2.108-7.342-2.108l-7.967-26.943L161.948,252.627z"/>
		<path fill-rule="evenodd" clip-rule="evenodd" fill="#DC7426" d="M161.948,252.627c0.624,2.967,6.403,26.084,6.403,26.084
			s-4.109,0.23-8.405,1.479c-5.951,1.731-4.553,5.797,3.954,5.158c3.124-0.234,5.623-0.546,9.137,1.016
			c3.515,1.562,7.811,4.921,13.433,4.687c5.623-0.234,5.701-2.109,5.468-3.359c-0.234-1.249-0.234-1.249-0.234-1.249
			s2.968,1.289,5.506-0.312c1.515-0.956,1.472-2.121,1.033-3.045c-0.565,0.404-1.174,0.795-1.76,1.055
			c-1.859,0.822-3.476,0.586-4.608,0c-1.132-0.586-11.676-2.148-11.87-2.188c-0.195-0.039,10.621,3.085,11.017,3.541
			c0.396,0.457-0.513,1.887-0.513,1.887s-1.25,2.578-4.999,2.539c-3.748-0.04-10.854-4.14-14.135-5.311
			c-0.33-0.119-19.143,0.141-12.065-3.398c1.563-0.78,10.466-2.146,10.935-2.068c0.357,0.059-4.906-17.148-7.174-26.791
			L161.948,252.627z"/>
		<path fill-rule="evenodd" clip-rule="evenodd" fill="#231F20" d="M158.666,280.858c-3.629-0.091-5.371,2.604-4.803,3.983
			c0,0,2.245-1.738,5.154-1.523C159.896,282.519,158.666,280.858,158.666,280.858z"/>
		<path fill-rule="evenodd" clip-rule="evenodd" fill="#231F20" d="M187.974,285.146c6.12-0.154,9.057,4.39,8.099,6.716
			c0,0-3.786-2.929-8.691-2.567C185.899,287.945,187.974,285.146,187.974,285.146z"/>
		<path fill-rule="evenodd" clip-rule="evenodd" fill="#231F20" d="M194.103,280.658c6.12-0.154,9.057,4.391,8.099,6.717
			c0,0-3.786-2.93-8.691-2.568C192.028,283.457,194.103,280.658,194.103,280.658z"/>
	</g>
	<g>
		<g>
			<path fill-rule="evenodd" clip-rule="evenodd" fill="#3B200E" d="M181.217,96.359c-4.716-1.158-13.022,3.932-13.514,11.276
				c-2.403,35.933,3.122,105.197,13.513,106.367h0.001l0,0c10.392-1.17,15.916-70.434,13.514-106.367
				C194.239,100.291,185.933,95.201,181.217,96.359z"/>
			<path fill-rule="evenodd" clip-rule="evenodd" fill="#825522" d="M168.857,165.578c0.293,3.384,0.624,6.705,0.988,9.926
				c3.619-0.547,7.433-0.839,11.371-0.839s7.752,0.292,11.371,0.839c0.364-3.221,0.694-6.542,0.988-9.926
				c-3.911-0.647-8.061-0.996-12.359-0.996C176.917,164.583,172.768,164.931,168.857,165.578z"/>
			<path fill-rule="evenodd" clip-rule="evenodd" fill="#825522" d="M195.257,131.513c0.042-3.457,0.041-6.833-0.004-10.083
				c-4.394-0.838-9.117-1.293-14.036-1.293s-9.644,0.456-14.036,1.293c-0.046,3.25-0.046,6.626-0.004,10.083
				c4.395-0.838,9.119-1.294,14.04-1.294C186.137,130.219,190.862,130.675,195.257,131.513z"/>
		</g>
		<g>
			<path fill-rule="evenodd" clip-rule="evenodd" fill="#3B200E" d="M152.606,103.529c-4.648,0.308-11.102,7.547-9.77,14.589
				c6.514,34.455,28.474,97.862,38.379,95.884h0.001l0,0c9.337-4.176-2.393-70.854-13.356-103.886
				C165.62,103.365,156.69,101.045,152.606,103.529z"/>
			<path fill-rule="evenodd" clip-rule="evenodd" fill="#825522" d="M157.997,172.188c1.095,3.091,2.208,6.112,3.328,9.028
				c3.218-1.585,6.678-2.987,10.324-4.153c3.647-1.166,7.249-2.021,10.732-2.58c-0.445-3.132-0.947-6.349-1.498-9.613
				c-3.778,0.55-7.705,1.452-11.686,2.725C165.218,168.867,161.46,170.422,157.997,172.188z"/>
			<path fill-rule="evenodd" clip-rule="evenodd" fill="#825522" d="M174.155,132.383c-0.802-3.259-1.624-6.429-2.456-9.467
				c-4.271,0.514-8.756,1.484-13.311,2.94s-8.817,3.283-12.681,5.37c0.749,3.065,1.569,6.236,2.448,9.47
				c3.865-2.088,8.129-3.915,12.685-5.372C165.396,133.868,169.882,132.897,174.155,132.383z"/>
		</g>
		<g>
			<path fill-rule="evenodd" clip-rule="evenodd" fill="#3B200E" d="M128.236,120.186c-4.229,1.662-8.469,10.274-5.547,16.4
				c14.293,29.973,49.83,82.179,58.526,77.416h0.001l0,0c7.644-6.63-19.205-64.894-37.276-92.232
				C140.247,116.182,131.423,116.677,128.236,120.186z"/>
			<path fill-rule="evenodd" clip-rule="evenodd" fill="#825522" d="M149.691,182.161c1.754,2.538,3.51,5.005,5.247,7.374
				c2.599-2.421,5.466-4.744,8.563-6.903s6.227-4.017,9.318-5.565c-1.163-2.768-2.399-5.597-3.692-8.457
				c-3.366,1.628-6.786,3.625-10.166,5.982C155.581,176.949,152.475,179.501,149.691,182.161z"/>
			<path fill-rule="evenodd" clip-rule="evenodd" fill="#825522" d="M155.107,140.523c-1.523-2.78-3.045-5.472-4.544-8.039
				c-3.832,1.74-7.751,3.967-11.619,6.663c-3.868,2.697-7.377,5.65-10.454,8.727c1.428,2.617,2.948,5.309,4.538,8.043
				c3.078-3.078,6.587-6.032,10.457-8.729C147.354,144.49,151.274,142.263,155.107,140.523z"/>
		</g>
		<g>
			<path fill-rule="evenodd" clip-rule="evenodd" fill="#3B200E" d="M109.667,142.824c-3.518,2.79-5.377,12.02-1.204,16.827
				c20.42,23.519,65.842,61.337,72.752,54.351h0.001l0,0c5.487-8.402-33.342-54.399-56.63-74.361
				C119.827,135.561,111.776,138.631,109.667,142.824z"/>
			<path fill-rule="evenodd" clip-rule="evenodd" fill="#825522" d="M144.393,193.854c2.233,1.83,4.45,3.596,6.626,5.274
				c1.827-3.011,3.924-6.011,6.273-8.927s4.803-5.563,7.294-7.911c-1.741-2.219-3.564-4.472-5.447-6.737
				c-2.727,2.504-5.414,5.365-7.979,8.549C148.596,187.284,146.332,190.567,144.393,193.854z"/>
			<path fill-rule="evenodd" clip-rule="evenodd" fill="#825522" d="M139.423,153.698c-2.077-2.123-4.131-4.165-6.134-6.098
				c-3.13,2.746-6.226,5.967-9.16,9.609c-2.934,3.642-5.475,7.415-7.586,11.174c1.95,2,4.002,4.043,6.13,6.104
				c2.112-3.761,4.653-7.535,7.588-11.178C133.196,159.667,136.292,156.444,139.423,153.698z"/>
		</g>
		<g>
			<path fill-rule="evenodd" clip-rule="evenodd" fill="#3B200E" d="M97.903,169.281c-2.588,3.625-2.097,12.721,2.92,15.936
				c24.547,15.731,75.67,37.299,80.393,28.785l0,0h0.001c3.066-9.404-43.916-40.497-70.264-52.085
				C105.568,159.549,98.85,164.775,97.903,169.281z"/>
			<path fill-rule="evenodd" clip-rule="evenodd" fill="#825522" d="M142.291,206.249c2.506,1.033,4.982,2.011,7.399,2.921
				c0.969-3.328,2.191-6.727,3.668-10.122c1.476-3.396,3.112-6.572,4.855-9.483c-2.144-1.539-4.372-3.086-6.658-4.626
				c-1.925,3.126-3.726,6.571-5.337,10.277C144.606,198.922,143.298,202.631,142.291,206.249z"/>
			<path fill-rule="evenodd" clip-rule="evenodd" fill="#825522" d="M128.061,170.54c-2.432-1.351-4.824-2.633-7.142-3.829
				c-2.24,3.469-4.333,7.368-6.177,11.608c-1.844,4.241-3.292,8.487-4.345,12.593c2.284,1.274,4.675,2.559,7.139,3.836
				c1.054-4.107,2.501-8.354,4.346-12.596C123.726,177.91,125.819,174.01,128.061,170.54z"/>
		</g>
		<g>
			<path fill-rule="evenodd" clip-rule="evenodd" fill="#3B200E" d="M210.086,102.484c-4.122-2.511-13.14-0.173-15.405,6.642
				c-11.086,33.345-22.961,100.661-13.536,104.883l0,0l0,0c10.001,2.003,32.204-62.004,38.799-96.789
				C221.291,110.11,214.779,102.798,210.086,102.484z"/>
			<path fill-rule="evenodd" clip-rule="evenodd" fill="#825522" d="M181.505,164.401c-0.558,3.296-1.066,6.543-1.518,9.705
				c3.517,0.566,7.153,1.431,10.835,2.61c3.681,1.18,7.174,2.6,10.422,4.201c1.133-2.943,2.259-5.994,3.365-9.114
				c-3.496-1.785-7.289-3.357-11.308-4.645C189.284,165.872,185.319,164.959,181.505,164.401z"/>
			<path fill-rule="evenodd" clip-rule="evenodd" fill="#825522" d="M214.561,140.014c0.891-3.264,1.721-6.465,2.478-9.559
				c-3.9-2.11-8.204-3.957-12.802-5.43s-9.125-2.456-13.438-2.978c-0.842,3.067-1.673,6.268-2.484,9.558
				c4.313,0.521,8.843,1.504,13.441,2.978C206.355,136.056,210.66,137.903,214.561,140.014z"/>
		</g>
		<g>
			<path fill-rule="evenodd" clip-rule="evenodd" fill="#3B200E" d="M235.68,117.645c-3.271-3.611-12.341-4.131-16.143,1.608
				c-18.604,28.078-46.261,87.936-38.41,94.76l0,0l0,0c8.936,4.907,45.517-48.711,60.239-79.503
				C244.374,128.216,240.025,119.357,235.68,117.645z"/>
			<path fill-rule="evenodd" clip-rule="evenodd" fill="#825522" d="M193.6,167.369c-1.332,2.938-2.605,5.844-3.805,8.688
				c3.177,1.595,6.392,3.508,9.573,5.731c3.182,2.223,6.126,4.615,8.796,7.106c1.787-2.433,3.594-4.967,5.4-7.573
				c-2.858-2.738-6.049-5.365-9.521-7.792C200.571,171.104,197.059,169.046,193.6,167.369z"/>
			<path fill-rule="evenodd" clip-rule="evenodd" fill="#825522" d="M230.718,154.366c1.638-2.808,3.202-5.574,4.673-8.262
				c-3.16-3.167-6.764-6.206-10.736-8.982c-3.974-2.777-8-5.07-11.937-6.864c-1.544,2.636-3.11,5.401-4.679,8.257
				c3.938,1.794,7.966,4.088,11.939,6.865C223.953,148.158,227.558,151.199,230.718,154.366z"/>
		</g>
		<g>
			<path fill-rule="evenodd" clip-rule="evenodd" fill="#3B200E" d="M255.578,140.287c-2.183-4.356-10.537-7.56-15.484-3.333
				c-24.208,20.681-64.592,68.364-58.907,77.096l0,0l0,0c7.164,7.266,54.379-31.911,75.615-56.292
				C261.143,152.777,259.227,143.191,255.578,140.287z"/>
			<path fill-rule="evenodd" clip-rule="evenodd" fill="#825522" d="M204.167,174.174c-1.959,2.347-3.854,4.684-5.666,6.984
				c2.583,2.443,5.126,5.195,7.561,8.228s4.607,6.15,6.499,9.279c2.262-1.738,4.566-3.567,6.888-5.462
				c-2.009-3.417-4.354-6.83-7.012-10.139C209.779,179.755,206.993,176.779,204.167,174.174z"/>
			<path fill-rule="evenodd" clip-rule="evenodd" fill="#825522" d="M242.028,173.137c2.212-2.135,4.347-4.253,6.373-6.325
				c-2.186-3.907-4.817-7.829-7.859-11.616c-3.041-3.787-6.249-7.137-9.495-9.994c-2.083,2.003-4.218,4.119-6.378,6.319
				c3.247,2.857,6.456,6.208,9.498,9.996C237.209,165.305,239.842,169.228,242.028,173.137z"/>
		</g>
		<g>
			<path fill-rule="evenodd" clip-rule="evenodd" fill="#3B200E" d="M269.35,167.091c-0.991-4.764-8.081-10.305-13.777-7.816
				c-27.87,12.18-77.588,44.922-74.366,54.867l0,0l0,0c4.975,9.011,59.049-13.652,85.024-30.216
				C271.539,180.541,272.077,170.93,269.35,167.091z"/>
			<path fill-rule="evenodd" clip-rule="evenodd" fill="#825522" d="M212.613,183.503c-2.419,1.621-4.777,3.251-7.047,4.871
				c1.837,3.082,3.56,6.443,5.113,10.036c1.553,3.592,2.838,7.188,3.855,10.707c2.557-0.956,5.176-1.982,7.826-3.068
				c-1.057-3.826-2.433-7.75-4.128-11.672C216.538,190.457,214.641,186.811,212.613,183.503z"/>
			<path fill-rule="evenodd" clip-rule="evenodd" fill="#825522" d="M248.548,193.957c2.606-1.344,5.136-2.695,7.553-4.036
				c-1.104-4.343-2.627-8.833-4.566-13.319c-1.939-4.487-4.144-8.613-6.504-12.285c-2.452,1.258-4.982,2.607-7.556,4.029
				c2.361,3.673,4.565,7.8,6.506,12.288C245.921,185.121,247.442,189.613,248.548,193.957z"/>
		</g>
		<g>
			<path fill-rule="evenodd" clip-rule="evenodd" fill="#3B200E" d="M276.063,196.666c0.231-4.803-5.11-12.186-11.104-11.559
				c-29.328,3.072-84.348,18.961-83.742,29.337l0,0l0,0c2.491,10.021,59.157,4.978,87.77-2.812
				C274.833,210.041,277.699,201.12,276.063,196.666z"/>
			<path fill-rule="evenodd" clip-rule="evenodd" fill="#825522" d="M218.415,194.996c-2.685,0.801-5.313,1.626-7.854,2.471
				c0.979,3.469,1.783,7.168,2.37,11.033s0.92,7.652,1.018,11.287c2.65-0.129,5.378-0.308,8.149-0.531
				c-0.061-3.936-0.398-8.061-1.039-12.279C220.419,202.757,219.52,198.736,218.415,194.996z"/>
			<path fill-rule="evenodd" clip-rule="evenodd" fill="#825522" d="M249.813,215.758c2.794-0.48,5.516-0.991,8.128-1.527
				c0.021-4.438-0.314-9.143-1.048-13.971s-1.804-9.395-3.134-13.58c-2.627,0.446-5.35,0.956-8.13,1.52
				c1.331,4.186,2.402,8.755,3.136,13.584C249.497,206.613,249.834,211.318,249.813,215.758z"/>
		</g>
		<g>
			<path fill-rule="evenodd" clip-rule="evenodd" fill="#3B200E" d="M273.672,228.267c1.374-4.396-1.81-12.851-7.533-14.052
				c-28.005-5.88-82.982-7.496-84.923,2.328l0,0v0.001c-0.102,10.058,53.791,22.245,82.268,23.528
				C269.303,240.334,274.119,232.895,273.672,228.267z"/>
			<path fill-rule="evenodd" clip-rule="evenodd" fill="#825522" d="M220.487,209.545c-2.688-0.057-5.331-0.072-7.897-0.043
				c0.073,3.516-0.071,7.193-0.458,10.961c-0.388,3.77-0.991,7.389-1.777,10.796c2.495,0.67,5.073,1.316,7.704,1.935
				c0.893-3.677,1.574-7.612,1.996-11.725C220.478,217.355,220.611,213.351,220.487,209.545z"/>
			<path fill-rule="evenodd" clip-rule="evenodd" fill="#825522" d="M244.665,238.195c2.713,0.385,5.366,0.721,7.925,1.002
				c1.09-4.12,1.912-8.594,2.396-13.3s0.59-9.271,0.362-13.558c-2.549-0.367-5.202-0.704-7.924-1.008
				c0.228,4.287,0.122,8.854-0.362,13.561C246.579,229.6,245.756,234.075,244.665,238.195z"/>
		</g>
	</g>
	<g>
		<path fill-rule="evenodd" clip-rule="evenodd" fill="#F48120" d="M129.932,246.631c-0.625,2.968-6.404,26.084-6.404,26.084
			s4.11,0.23,8.405,1.48c5.951,1.731,4.553,5.797-3.954,5.158c-3.124-0.234-5.623-0.547-9.137,1.016
			c-3.514,1.562-7.81,4.92-13.433,4.686s-5.701-2.108-5.467-3.357c0.234-1.25,0.234-1.25,0.234-1.25s-2.968,1.289-5.506-0.313
			c-2.538-1.602-0.703-3.787,0.039-4.451c3.387-3.029,10.513-1.235,14.644-1.289c6.014-0.078,7.341-2.109,7.341-2.109l7.966-26.943
			L129.932,246.631z"/>
		<path fill-rule="evenodd" clip-rule="evenodd" fill="#DC7426" d="M129.932,246.631c-0.625,2.968-6.404,26.084-6.404,26.084
			s4.11,0.23,8.405,1.48c5.951,1.731,4.553,5.797-3.954,5.158c-3.124-0.234-5.623-0.547-9.137,1.016
			c-3.514,1.562-7.81,4.92-13.433,4.686s-5.701-2.108-5.467-3.357c0.234-1.25,0.234-1.25,0.234-1.25s-2.968,1.289-5.506-0.313
			c-1.515-0.955-1.472-2.12-1.033-3.045c0.565,0.404,1.174,0.795,1.76,1.055c1.858,0.823,3.475,0.586,4.608,0
			c1.132-0.586,11.675-2.147,11.871-2.187s-10.622,3.085-11.017,3.541c-0.396,0.456,0.512,1.887,0.512,1.887s1.25,2.577,4.999,2.538
			c3.749-0.039,10.855-4.139,14.135-5.311c0.331-0.117,19.144,0.143,12.065-3.397c-1.562-0.78-10.465-2.147-10.934-2.069
			c-0.358,0.059,4.906-17.148,7.173-26.789L129.932,246.631z"/>
		<path fill-rule="evenodd" clip-rule="evenodd" fill="#231F20" d="M133.213,274.863c3.629-0.092,5.371,2.604,4.803,3.982
			c0,0-2.245-1.736-5.154-1.522C131.983,276.523,133.213,274.863,133.213,274.863z"/>
		<path fill-rule="evenodd" clip-rule="evenodd" fill="#231F20" d="M103.906,279.151c-6.12-0.154-9.057,4.39-8.098,6.716
			c0,0,3.786-2.93,8.691-2.567C105.98,281.949,103.906,279.151,103.906,279.151z"/>
		<path fill-rule="evenodd" clip-rule="evenodd" fill="#231F20" d="M97.777,274.663c-6.12-0.153-9.057,4.39-8.099,6.716
			c0,0,3.786-2.93,8.691-2.567C99.851,277.462,97.777,274.663,97.777,274.663z"/>
	</g>
	<path fill-rule="evenodd" clip-rule="evenodd" fill="#30190C" d="M138.001,238.217c-0.614,0.865-4.518,13.707-13.987,16.547
		c-9.47,2.84-18.312-3.013-20.027-9.317c-1.716-6.304-5.728-8.55,6.11-12.612C121.934,228.771,138.001,238.217,138.001,238.217z"/>
	<path fill-rule="evenodd" clip-rule="evenodd" fill="#30190C" d="M96.825,160.213c-18.935,18.934-23.39,81.203,18.198,92.033
		c49.517,12.896,87.124-28.814,85.38-59.338c-8.991-25.923-36.507,2.482-70.502-30.823c-2.466-2.416-1.392-8.271-3.841-11.361
		L96.825,160.213z"/>
	<path fill-rule="evenodd" clip-rule="evenodd" fill="#B71F25" d="M107.89,108.767c-9.019-19.954,25.979-33.953,31.076-3.023
		c1.557,9.445-8.948,15.191-9.781,38.082c-0.833,22.891,15.987,22.476,15.987,22.476s-4.958,3.538-9.536,3.33
		c-4.579-0.208-5.827-0.833-5.827-0.833s1.041,1.665,1.873,6.451c0.833,4.786-0.208,11.445-0.208,9.78
		c0-1.664-5.411-11.445-5.411-11.445s-2.705,14.047-4.578,16.648c-1.873,2.602-2.081,3.329-1.873,2.809
		c0.208-0.52,1.041-5.723-0.624-12.174c-1.665-6.451-1.457-6.867-1.457-6.867s-1.561,2.392-4.578,7.388
		c-3.018,4.994-3.226,9.052-3.33,7.803c-0.104-1.248-1.666-4.578-2.185-9.26c-0.521-4.683-0.313-5.619-0.313-5.619
		s-4.891,4.994-6.868,8.22c-1.978,3.226-3.122,6.764-2.914,5.099s0.936-10.822,0.936-10.822s-4.786,3.227-6.347,5.412
		c-1.561,2.185-2.705,3.433-2.394,2.809c0.313-0.624-5.035-11.248,3.434-21.018C116.168,137.255,120.495,123.065,107.89,108.767z"/>
	<path fill-rule="evenodd" clip-rule="evenodd" fill="#AD1E23" d="M132.687,159.425c4.716,7.065,12.485,6.876,12.485,6.876
		s-4.958,3.538-9.536,3.33c-4.579-0.208-5.827-0.833-5.827-0.833s1.041,1.665,1.873,6.451c0.833,4.786-0.208,11.445-0.208,9.78
		c0-1.664-5.411-11.445-5.411-11.445s-2.705,14.047-4.578,16.648c-1.873,2.602-2.081,3.329-1.873,2.809
		c0.208-0.52,1.041-5.723-0.624-12.174c-1.665-6.451-1.457-6.867-1.457-6.867s-1.561,2.392-4.578,7.388
		c-3.018,4.994-3.226,9.052-3.33,7.803c-0.104-1.248-1.666-4.578-2.185-9.26c-0.521-4.683-0.313-5.619-0.313-5.619
		s-4.891,4.994-6.868,8.22c-1.978,3.226-3.122,6.764-2.914,5.099s0.936-10.822,0.936-10.822s-4.786,3.227-6.347,5.412
		c-1.561,2.185-2.705,3.433-2.394,2.809c0.313-0.624-5.035-11.248,3.434-21.018c15.301-17.652,22.389-29.834,21.823-40.187
		l0.002-0.001c4.046-3.944,10.731-14.692,9.454-11.413s-14.673,37.427-21.122,45.755c-6.45,8.328-9.467,13.218-9.051,12.594
		s15.087-11.341,13.422-9.677s-6.763,13.423-6.763,13.423s14.567-11.134,13.63-10.197s-3.746,13.735-3.538,13.318
		c0.208-0.416,11.966-14.462,11.862-13.942c-0.104,0.52-0.61,11.244-0.397,10.685c0.212-0.559,2.815-5.176,3.479-10.948
		c0.664-5.772,0.858-6.963,0.858-6.963s6.004,10.303,5.84,9.099C132.391,164.939,132.53,162.068,132.687,159.425z"/>
	<path fill-rule="evenodd" clip-rule="evenodd" fill="#E6E7E8" d="M110.417,107.832c2.076,0,3.77-2.387,3.77-5.313
		c0-2.926-1.693-5.313-3.77-5.313c-2.076,0-3.769,2.387-3.769,5.313C106.648,105.445,108.341,107.832,110.417,107.832z"/>
	<path fill-rule="evenodd" clip-rule="evenodd" fill="#EC1651" d="M108.636,114.17c-0.208,0.624-6.22,8.479-15.503,12.069
		c-9.283,3.591-9.283,3.591-9.283,3.591c14.807,6.946,31.712-2.982,32.59-12.643c0.104-1.144-4.267-3.85-4.995-3.85
		C110.717,113.338,108.636,114.17,108.636,114.17z"/>
	<path fill-rule="evenodd" clip-rule="evenodd" fill="#F89F1B" d="M101.255,109.008c-8.872-1.103-21.629-1.248-25.001,4.903
		c-3.537,6.451-2.913,13.319-2.29,11.862c0.625-1.457,2.112-5.25,13.142-4c11.029,1.249,10.582,1.711,17.033-0.162
		c6.452-1.873,9.053-5.931,9.053-5.931s-4.578,11.445-16.439,13.318c-11.862,1.873-12.902,0.833-12.902,0.833s0,2.081,10.821,4.37
		c10.821,2.29,16.024-0.624,21.226-6.659c5.203-6.035,4.058-9.26,6.555-11.341c2.497-2.082,2.498-6.451-0.624-6.868
		s-9.364-1.717-12.07-3.381C106.391,103.879,104.45,109.405,101.255,109.008z"/>
	<path fill-rule="evenodd" clip-rule="evenodd" fill="#A01C20" d="M103.232,107.656c-0.05,3.282,3.866,1.011,5.866,9.743
		c2,8.73-9.677,20.497-8.324,25.284c1.353,4.786,5.186,4.39,8.619-0.709c3.434-5.098,5.896-17.396,5.741-23.639
		C114.73,102.172,103.282,104.374,103.232,107.656z"/>
	<path fill-rule="evenodd" clip-rule="evenodd" fill="#404041" d="M111.249,104.214c0.915,0,1.661-0.866,1.661-1.928
		s-0.746-1.928-1.661-1.928s-1.661,0.866-1.661,1.928S110.333,104.214,111.249,104.214z"/>
	<path fill-rule="evenodd" clip-rule="evenodd" fill="#E6E7E8" d="M118.65,109.025c2.076,0,3.769-2.387,3.769-5.313
		c0-2.927-1.693-5.313-3.769-5.313c-2.076,0-3.769,2.387-3.769,5.313C114.881,106.638,116.574,109.025,118.65,109.025z"/>
	<path fill-rule="evenodd" clip-rule="evenodd" fill="#404041" d="M119.481,105.407c0.915,0,1.661-0.866,1.661-1.927
		c0-1.062-0.746-1.928-1.661-1.928c-0.916,0-1.661,0.866-1.661,1.928C117.82,104.542,118.566,105.407,119.481,105.407z"/>
	<g>
		<path fill-rule="evenodd" clip-rule="evenodd" fill="#3C3C3D" d="M80.367,75.875c-1.412-2.104,28.092,7.302,28.092,7.302
			l24.321-21.771c1.789-1.602,4.838-4.244,6.524-2.897c2.013,1.607,5.939,4.769,8.135,6.693c3.04,2.664,12.646,4.272,10.81,9.146
			c-1.835,4.873-15.034,29.504-14.332,30.348s17.792,21.345,16.689,22.415C160.254,127.454,81.777,77.98,80.367,75.875z"/>
		<g>
			<path fill-rule="evenodd" clip-rule="evenodd" fill="#404041" d="M95.808,85.316c0.735,0.588,29.548,15.73,38.663,20.14
				c9.114,4.41,3.528-6.027,3.528-6.027s7.938-2.205,9.262-7.204c1.323-4.998-3.528-14.26-0.588-17.641
				c1.599-1.838,4.455-4.324,6.896-6.189c-2.303-1.099-4.823-2.049-6.129-3.194c-2.196-1.924-6.123-5.085-8.135-6.693
				c-1.686-1.347-4.735,1.296-6.524,2.897l-24.321,21.771c0,0-29.503-9.406-28.092-7.302c0.363,0.542,5.841,4.228,13.773,9.391
				C95.098,85.241,95.808,85.316,95.808,85.316z"/>
			<path fill-rule="evenodd" clip-rule="evenodd" fill="#404041" d="M160.533,127.09c0.044,0.019,0.068,0.025,0.073,0.02
				c0,0,0,0,0.001,0C160.583,127.104,160.558,127.096,160.533,127.09z"/>
		</g>
		<polygon fill-rule="evenodd" clip-rule="evenodd" fill="#806A50" points="115.073,76.108 148.135,97.228 144.822,105.785 
			107.626,82.808 		"/>
		<path fill-rule="evenodd" clip-rule="evenodd" fill="#FFCA05" d="M127.115,81.974l-7.356,9.252l11.648,7.404l6.266-10.012
			L127.115,81.974L127.115,81.974z M127.517,83.944l7.817,5.103l-4.789,7.399l-8.667-5.45L127.517,83.944z"/>
	</g>
	<path fill-rule="evenodd" clip-rule="evenodd" fill="#30190C" d="M181.21,231.26c-0.208,1.041,1.457,14.358-6.035,20.811
		c-7.49,6.451-17.949,4.706-22.085-0.352c-4.135-5.06-8.713-5.476,0.443-14.008C162.689,229.179,181.21,231.26,181.21,231.26z"/>
	<path fill-rule="evenodd" clip-rule="evenodd" fill="#553310" d="M162.703,173.412c-7.522-5.797-24.356-9.732-30.635-4.093
		c-17.351,15.582-3.793,46.646,14.037,53.779c5.202,2.08,20.602,5.618,36.001,0.624s24.696-18.425,27.292-22.192
		c-6.924,0.629-10.165-1.732-10.004-1.842c0.161-0.108,8.412-6.244,6.853-6.141c-1.562,0.104-9.495-1.713-9.495-1.713
		s6.165-5.57,5.437-4.945C195.96,192.229,168.899,176.879,162.703,173.412z"/>
	<path fill-rule="evenodd" clip-rule="evenodd" fill="#4A2D0E" d="M141.546,166.585c-3.874-0.021-7.307,0.784-9.478,2.733
		c-17.351,15.582-3.793,46.646,14.037,53.779c5.202,2.08,20.602,5.618,36.001,0.624s24.696-18.425,27.292-22.192
		C144.564,245.813,123.878,184.674,141.546,166.585z"/>
	<path fill-rule="evenodd" clip-rule="evenodd" fill="#F1BB74" d="M75.324,119.31c9.472-8.796,25.625-3.949,26.332-9.213
		C94.76,109.729,74.974,107.403,75.324,119.31z"/>
	<circle fill-rule="evenodd" clip-rule="evenodd" fill="#E6E7E8" cx="111.792" cy="101.833" r="0.817"/>
	<circle fill-rule="evenodd" clip-rule="evenodd" fill="#E6E7E8" cx="120.135" cy="103" r="0.817"/>
</g>
</svg>
