<?xml version="1.0" encoding="utf-8"?>
<!-- Generator: Adobe Illustrator 16.0.0, SVG Export Plug-In . SVG Version: 6.00 Build 0)  -->
<!DOCTYPE svg PUBLIC "-//W3C//DTD SVG 1.1//EN" "http://www.w3.org/Graphics/SVG/1.1/DTD/svg11.dtd">
<svg version="1.1" id="Layer_1" xmlns="http://www.w3.org/2000/svg" xmlns:xlink="http://www.w3.org/1999/xlink" x="0px" y="0px"
	 width="350px" height="350px" viewBox="0 0 350 350" enable-background="new 0 0 350 350" xml:space="preserve">
<g>
	<g>
		<path fill-rule="evenodd" clip-rule="evenodd" fill="#F9BD4F" d="M141.438,227.91c2.048,0,3.543,0,5.495,0
			c0.267,2.104,0.728,9.476,0.759,11.591c0.104,6.711,0.032,13.423,0.073,20.138c0.007,1.711-0.086,3.485,0.312,5.124
			c0.646,2.65,0.1,4.634,3.5,4.829c1.651,0.095,4.984,1.128,6.533,1.814c1.594,0.709,2.182,2.193,1.967,3.895
			c-0.239,1.866-1.659,2.786-3.261,2.767c-1.619-0.022-3.319-0.498-4.802-1.169c-1.06-0.479-1.822-1.608-2.725-2.459
			c-2.121,0.809-2.864,2.411-3.419,4.275c-0.44,1.483-1.066,2.933-1.794,4.301c-0.822,1.55-1.966,2.795-4.582,2.518
			c-2.948,0.039,0.968-6.218,1.438-9.254c-0.292-0.141-0.292-0.141-0.587-0.282c-0.864,0.732-1.665,1.657-2.374,2.519
			c-2.488,3.029-5.69,4.703-9.208,6.029c-1.191,0.448-3.376,0.451-3.843-1.163c-0.258-0.894,0.39-2.665,1.175-3.141
			c3.436-2.085,7.363-4.083,10.78-6.219c1.752-1.096,1.178-1.985,1.178-1.985c-0.741-0.755-5.682,1.64-8.495,2.774
			c-2.286,0.921-4.676,1.679-7.089,2.139c-0.963,0.183-2.715-0.341-3.065-1.055c-0.862-1.752,0.85-2.545,2.134-2.891
			c4.656-1.255,9.385-3.229,14.131-4.023c5.031-0.842,5.408-2.569,5.581-5.33c0.021-2.957-0.317-5.918-0.282-8.875
			C141.057,247.643,141.271,235.251,141.438,227.91z"/>
		<path fill-rule="evenodd" clip-rule="evenodd" fill="#C7915C" d="M103.759,104.285c1.889-3.471,3.42-7.096,5.651-10.223
			c5.11-7.154,12.648-7.974,20.546-6.76c7.844,1.206,12.659,5.918,15.038,13.552c2.783,8.935,2.558,18.135,3.144,27.282
			c0.404,6.357,0.907,12.711,1.52,19.049c0.685,7.024,4.981,11.267,11.319,13.479c5.176,1.804,10.563,2.613,16.102,2.447
			c8.562-0.251,17.148-0.494,25.58,1.471c1.956,0.455,3.964,1.036,5.693,2.008c4.092,2.287,6.419,5.759,6.228,10.647
			c-0.623,15.903-5.38,30.027-18.13,40.384c-4.087,3.318-8.826,5.799-14.077,7.142c-7.697,1.966-15.287,4.465-23.345,4.529
			c-13.047,0.105-26.188,1.247-38.997-2.071c-6.43-1.665-13.022-3.549-18.8-6.695c-9.36-5.092-12.428-14.532-13.224-24.455
			c-0.981-12.167,0.354-24.254,3.014-36.183c0.907-4.083,1.635-8.207,2.415-12.317C93.935,144.947,102.068,107.387,103.759,104.285"
			/>
		<path fill-rule="evenodd" clip-rule="evenodd" fill="#936037" stroke="#936037" stroke-width="2.85" stroke-miterlimit="10" d="
			M213.092,143.906c2.601-0.073,3.814-0.772,3.653-3.077c-0.338-4.968,1.406-9.489,3.178-13.993
			c1.509-3.831,4.377-6.332,7.839-8.352c3.506-2.049,6.85-1.738,10.13,0.386c3.28,2.123,4.163,5.404,3.789,8.994
			c-0.582,5.554-2.868,10.476-6.216,14.919c-0.845,1.121-1.809,2.188-2.452,3.415c-0.913,1.742-0.306,2.981,1.636,3.489
			c2.226-2.938,4.23-6.025,6.682-8.697c2.089-2.27,4.564-4.251,7.1-6.027c3.973-2.787,8.817-2.645,12.707,0.019
			c3.318,2.271,4.577,6.512,3.738,11.225c-1.743,9.805-8.193,15.825-16.259,20.538c-6.285,3.672-13.186,5.711-20.369,6.474
			c-6.517,0.695-12.729-0.518-18.081-4.673c-0.126-0.096-0.235-0.216-0.372-0.285c-9.717-4.853-12.853-13.77-14.521-23.569
			c-0.494-2.908-1.178-5.853-1.142-8.773c0.037-3.36,0.361-6.836,1.314-10.035c1.211-4.073,4.452-5.88,8.513-6.039
			c4.238-0.167,6.556,2.592,7.525,5.844c1.221,4.095,1.407,8.513,1.852,12.812C213.514,140.248,213.192,142.043,213.092,143.906z"/>
		
			<path fill-rule="evenodd" clip-rule="evenodd" fill="#E6332A" stroke="#E6332A" stroke-width="3.8" stroke-linecap="round" stroke-linejoin="round" stroke-miterlimit="10" d="
			M122.814,79.937c0.212-1.39,0.544-2.771,0.611-4.168c0.095-2.012-0.138-4.045,0.016-6.05c0.245-3.159,2.403-5.403,4.82-5.286
			c2.573,0.126,4.391,2.362,4.365,5.61c-0.014,1.543-0.385,3.083-0.487,4.632c-0.085,1.336-0.017,2.683-0.017,3.937
			c1.953,0.562,2.521-0.465,2.998-1.741c0.65-1.746,1.238-3.544,2.141-5.162c0.736-1.331,1.723-2.639,2.898-3.591
			c1.719-1.393,3.749-2.398,6.038-1.205c2.481,1.291,2.091,3.699,1.784,5.772c-0.822,5.545-3.298,10.335-7.173,14.412
			c-1.338,1.408-2.651,1.535-4.589,1.032c-4.029-1.052-8.188-1.604-12.305-2.321c-0.602-0.107-2.62-0.046-3.712,0.104
			c0,0-4.126,0.189-6.279-2.475c-2.577-3.189-4.874-6.548-4.719-10.872c0.081-2.307,1.537-3.301,3.858-2.787
			c3.41,0.754,5.087,3.349,6.34,6.319c0.56,1.331,1.104,2.669,1.658,4.001C121.647,80.045,122.23,79.991,122.814,79.937z"/>
		
			<path fill-rule="evenodd" clip-rule="evenodd" fill="#E6332A" stroke="#E6332A" stroke-width="3.8" stroke-linecap="round" stroke-linejoin="round" stroke-miterlimit="10" d="
			M103.555,128.463c0,2.961-0.181,4.446-0.727,6.539c-0.734,2.808-2.714,4.508-5.471,5.176c-4.299,1.037-6.366-1.107-5.299-4.938
			c1.438-5.17,4.838-9.753,7.111-14.667c0.281-0.607,0.866-1.493,1.487-1.312c0.856,0.254,1.922,1.146,2.146,1.97
			C103.443,123.612,103.555,125.614,103.555,128.463z"/>
		
			<path fill-rule="evenodd" clip-rule="evenodd" fill="#F9BD4F" stroke="#F9BD4F" stroke-width="3.8" stroke-linecap="round" stroke-linejoin="round" stroke-miterlimit="10" d="
			M84.873,111.924c5.722-3.273,11.232-3.51,16.539-4.489c1.658-0.307,2.864,0.726,2.992,2.261c0.161,1.929,0.404,4.224-0.452,5.771
			c-1.113,2.006-3.547,1.449-5.544,0.817C94.142,114.93,89.885,113.542,84.873,111.924z"/>
		<path fill-rule="evenodd" clip-rule="evenodd" fill="#936037" d="M188.751,190.413c-0.147,2.73-1.272,4.236-3.02,5.859
			c-8.18,7.578-18.35,10.419-28.813,12.42c-5.642,1.077-11.443,1.544-17.196,1.786c-5.826,0.244-11.356-1.146-16.641-3.901
			c-8.001-4.176-10.971-11.265-11.615-19.526c-0.323-4.14,0.492-8.38,0.918-12.562c0.495-4.896,3.618-7.697,7.876-9.558
			c7.855-3.44,15.599-2.507,23.138,0.853c4.12,1.837,8.027,4.152,12.004,6.296c10.167,5.476,20.318,10.973,30.466,16.482
			C186.818,189.076,187.692,189.728,188.751,190.413z"/>
		<path fill-rule="evenodd" clip-rule="evenodd" fill="#634E42" d="M122.892,115.94c-2.739,0.021-5.703-2.634-5.683-5.089
			c0.021-2.526,2.814-5.298,5.461-5.423c2.838-0.134,5.15,2.04,5.084,4.782C127.68,113.36,125.508,115.918,122.892,115.94z"/>
		<path fill-rule="evenodd" clip-rule="evenodd" fill="#634E42" d="M154.134,196.753c0.985-2.631-5.028-8.274-8.331-12.455
			c-1.315-2.068,3.897,0.598,5.423,1.716c2.75,2.021,5.495,4.063,8.373,5.887c1.746,1.105,4.946,2.113,5.38,0.045
			c-0.515-4.083-4.822-4.343-6.872-7.25c-0.795-1.313,0.684-1.644,1.62-0.914c2.298,1.804,4.688,3.551,6.662,5.674
			c0.77,0.82,1.444,3.672,0.895,4.339c-0.942,1.137-3.069,1.591-4.482,1.505c-2.247-0.138-4.438-1.233-6.916-2.01
			c0.071,0.463,0.13,0.952,0.222,1.435c0.883,4.799-0.933,6.709-5.534,5.25c-3.036-0.964-5.82-2.739-9.045-4.312
			c-0.08,0.239-0.234,0.878-0.5,1.465c-1.448,3.169-4.677,4.536-7.692,2.836c-5.31-2.987-11.262-9.786-10.003-13.817
			c0.714-1.011,1.707,1.157,2.468,2.277c1.739,2.562,3.613,5.02,5.76,7.245c0.826,0.855,2.021,1.526,3.165,1.868
			c2.612,0.785,4.49-0.859,3.757-3.502c-0.521-1.874-1.758-3.592-2.871-5.247c-1.021-1.515-2.305-2.853-3.51-4.318
			c-1.26-2.074,2.241-0.617,3.147,0.33c2.796,2.921,5.506,5.953,8.527,8.624c1.708,1.511,3.885,2.587,6.005,3.498
			C151.031,197.458,153.42,198.287,154.134,196.753z"/>
	</g>
	
		<path fill-rule="evenodd" clip-rule="evenodd" fill="none" stroke="#936037" stroke-width="0.95" stroke-linecap="round" stroke-linejoin="round" stroke-miterlimit="10" d="
		M108.813,136.14c0,2.631-2.631,7.453,1.095,9.208c4.387,1.971,5.92-5.262,5.92-8.112c0.657,2.85,0.219,8.549,5.043,7.673
		c3.945-0.659,3.068-5.919,2.19-8.768c0.221,3.507,5.043,10.521,9.427,9.425c3.727-1.097,2.631-6.794,0.877-9.207
		c0.659,3.289,5.042,8.33,8.987,6.577c3.727-1.535,2.193-7.673-0.877-9.208"/>
</g>
</svg>
