<?xml version="1.0" encoding="utf-8"?>
<!-- Generator: Adobe Illustrator 16.0.0, SVG Export Plug-In . SVG Version: 6.00 Build 0)  -->
<!DOCTYPE svg PUBLIC "-//W3C//DTD SVG 1.1 Tiny//EN" "http://www.w3.org/Graphics/SVG/1.1/DTD/svg11-tiny.dtd">
<svg version="1.1" baseProfile="tiny" id="Layer_1" xmlns="http://www.w3.org/2000/svg" xmlns:xlink="http://www.w3.org/1999/xlink"
	 x="0px" y="0px" width="350px" height="350px" viewBox="0 0 350 350" overflow="scroll" xml:space="preserve">
<g>
	<path fill="#BEB09D" d="M281.294,276.793c0,6.386-24.032,11.563-53.676,11.563c-29.646,0-53.677-5.177-53.677-11.563
		s24.031-11.562,53.677-11.562C257.262,265.231,281.294,270.407,281.294,276.793"/>
	<path fill="#483931" d="M299.681,180.884c0.297-0.599,0.593-1.197,0.89-1.795c-0.353-2.354-0.706-4.707-1.059-7.06
		c-1.089-1.295-2.177-2.59-3.266-3.884c0.065-0.618,0.131-1.236,0.196-1.854c-0.917-2.396-1.834-4.79-2.751-7.186
		c2.567-3.72-2.342-3.76-2.919-5.933c3.809-2.405,1.037-5.417,0.757-8.2c-1.188-1.497-2.377-2.992-3.564-4.489
		c-0.025,0.022-0.05,0.045-0.075,0.067c0.025-0.022,0.05-0.045,0.075-0.067c1.188,1.497,2.376,2.993,3.564,4.489
		c-1.132-4.281-2.262-8.563-3.393-12.843c-1.581-3.513-3.161-7.025-4.742-10.539l4.615-4.462c0.906-3.14,1.931-6.255,2.622-9.443
		c0.138-0.638-0.989-1.55-1.533-2.336c-0.382-0.269-0.763-0.539-1.144-0.807c-0.277-0.001-0.553-0.002-0.829-0.003
		c0.276,0.001,0.552,0.001,0.83,0.003c-0.27-0.309-0.539-0.616-0.81-0.923c-0.471-0.219-0.942-0.438-1.414-0.657
		c0.472,0.219,0.943,0.438,1.415,0.657c0.27,0.308,0.539,0.615,0.809,0.923c0.38,0.269,0.761,0.538,1.143,0.807
		c0.461-4.113,3.542-2.966,5.907-2.747c2.156,0.2,3.619,0.186,2.898-2.586c-0.325-1.795-0.649-3.589-0.975-5.384
		c0.376-1.173,0.751-2.347,1.127-3.521c1.494-6.316-0.433-12.512-4.774-14.434c-1.213-0.537-2.856-0.097-4.303-0.105
		c-0.386-2.659-0.771-5.316-1.212-8.354c-1.623,2.873-2.886,5.106-4.147,7.34c-1.215-3.947-2.432-7.894-3.646-11.841
		c-0.367,0.096-0.734,0.192-1.102,0.289c-0.607,3.059-1.215,6.119-2.094,10.549c-1.68-2.693-2.485-4.368-3.648-5.742
		c-1.158-1.368-2.715-2.59-2.89,0.732c-0.101,1.13-0.202,2.261-0.304,3.392c-2.683-2.344-5.365-4.689-9.048-7.907
		c1.231,3.838,2.021,6.297,2.81,8.755c-3.4-1.868-6.801-3.736-10.947-6.014c0.632,1.946,1.058,3.258,1.498,4.613
		c-0.946,0.702-1.993,1.479-2.98,2.211c1.041,2.092,1.752,3.523,2.463,4.953c2.041,4.076,5.091,6.755,9.824,7.108
		c-0.884,0.693-1.665,1.675-2.669,2.035c-8.565,3.068-15.11,8.702-20.504,15.846c-3.635,4.792-7.27,9.584-10.904,14.377
		c0.909-0.603,1.816-1.205,2.727-1.806c-0.91,0.601-1.817,1.204-2.726,1.805c-1.145,2.395-2.29,4.79-3.436,7.183
		c-2.092,5.385-4.185,10.769-6.277,16.154c0.462-0.002,0.923-0.004,1.385-0.006l0,0c-0.462,0.002-0.923,0.004-1.385,0.006
		c-1.044,1.803-2.088,3.605-3.438,5.94c-0.816-2.44-1.4-4.186-1.984-5.931c-1.972-4.69-4.02-9.321-8.957-11.749
		c-1.538-2.06-3.078-4.121-4.618-6.18c-3.088-2.879-5.959-6.048-9.322-8.561c-3.81-2.848-8.059-5.107-12.117-7.622
		c-0.848-1.219-1.695-2.437-2.543-3.655c-1.233-1.512-2.469-3.025-3.702-4.537c-2.808-3.558-5.615-7.116-8.423-10.673
		c-3.258-5.234-7.484-9.402-13.168-11.967c-0.546-0.513-1.093-1.026-1.64-1.539c-3.277-4.879-8.121-7.365-13.589-8.897
		c-0.896-0.344-1.792-0.688-2.689-1.031c-4.18-0.877-8.359-1.756-12.538-2.633c-1.212,0.031-2.424,0.062-3.636,0.093
		c-0.828,1.13-0.996,1.857-0.801,2.36c-0.196-0.503-0.027-1.23,0.8-2.361c1.213-0.03,2.425-0.062,3.637-0.092
		c-8.116-3.208-16.997-1.395-21.75,4.44c-0.275,1.518-0.552,3.035-0.827,4.552c0.478-0.021,0.956-0.041,1.434-0.062v0
		c-0.478,0.021-0.956,0.041-1.434,0.061c-0.884,0.601-1.77,1.2-2.653,1.801c-1.496,0.599-2.992,1.198-4.488,1.797
		c-0.287,0.075-0.575,0.15-0.862,0.226c-3.594,1.726-7.188,3.451-10.781,5.176c-0.594,0.344-1.188,0.688-1.782,1.031
		c-2.128,1.405-4.255,2.81-6.383,4.214c-3.561,3.339-7.121,6.679-10.681,10.018c-5.304,5.655-9.995,11.638-11.4,20.323
		c5.422-5.894,10.218-11.107,15.014-16.321c0.935-0.713,1.786-1.593,2.818-2.113c6.461-3.25,11.113-9.581,18.668-10.953
		c1.496-1.199,2.992-2.397,4.488-3.597c2.999-0.033,5.998-0.066,8.997-0.1c0.188-0.712,0.376-1.424,0.563-2.135
		c-0.188,0.711-0.376,1.423-0.563,2.135c1.811,0.024,3.621,0.049,5.431,0.073c0.206,0.292,0.41,0.585,0.615,0.877
		c0.536-0.104,1.071-0.209,1.607-0.314c-0.536,0.104-1.071,0.21-1.607,0.314c-2.15,0.957-4.582,1.551-6.389,2.952
		c-3.07,2.381-5.747,5.272-8.589,7.949c-5.907,4.135-10.123,12.214-8.671,17.166c0.85-0.645,1.599-1.214,2.348-1.782
		c0.842-0.503,1.827-0.86,2.5-1.531c4.887-4.869,9.71-9.801,14.554-14.713c0.603-0.284,1.205-0.567,1.808-0.851
		c3.278-0.898,6.515-2.056,9.851-2.612c2.642-0.442,5.407-0.147,8.117-0.179c-1.504,3.604-3.009,7.208-4.514,10.813
		c-0.588,0.598-1.176,1.197-1.764,1.795c-1.782,2.329-4.435,4.409-5.182,7.032c-2.263,7.941-3.856,16.078-5.532,24.176
		c-0.286,1.38,0.309,2.943,0.605,5.283c1.572-1.844,2.453-2.878,3.629-4.257c0.291,1.622,0.49,2.728,0.786,4.375
		c1.978-4.878,3.692-9.108,5.408-13.338c1.507-1.693,3.015-3.388,4.521-5.082c-0.927,3.763-1.854,7.526-2.781,11.29
		c0.252,0.166,0.503,0.332,0.754,0.498c0.76-0.982,1.519-1.965,2.277-2.947c0.86,1.432,1.722,2.865,2.624,4.368
		c0.511-1.634,1.104-3.529,1.697-5.423c1.271-1.074,2.542-2.147,3.813-3.222c1.885-1.054,3.765-2.07,5.219,0.604
		c0.058,2.387,0.113,4.774,0.17,7.161c0.007,0.301,0.014,0.601,0.021,0.902c-0.693,3.131-1.499,6.244-2.042,9.402
		c-0.37,2.153-0.265,4.504,2.877,4.099c3.197-0.413,4.553,1.712,6.533,3.525c3.818,3.5,2.962,8.303,4.278,12.484
		c0.228,0.036,0.448,0.095,0.663,0.179c0.946,1.477,1.893,2.953,2.839,4.428c1.2-0.035,2.401-0.071,3.602-0.108
		c0.886-0.865,1.773-1.729,2.659-2.595c0.051-0.284,0.063-0.57,0.035-0.858c3.391-0.582,4.337,2.125,5.312,4.313
		c0.906,2.034,1.179,4.352,1.73,6.544c0.92,1.735,1.84,3.47,2.76,5.205c0.364-0.646,0.729-1.292,1.093-1.938
		c0.468,0.426,0.935,0.851,1.401,1.275c0.644,1.761,1.287,3.521,1.931,5.281c0.232,0.031,0.47,0.1,0.697,0.078
		c0.086-0.008,0.187-0.211,0.224-0.342c0.598-2.133-2.34-6.823,3.658-5.042c3.316,5.554,2.776,12.058,4.439,18.019
		c-0.041,0.259,0.016,0.495,0.169,0.708c0.525,3.056,1.05,6.11,1.593,9.27c0.461-0.779,0.875-1.479,1.444-2.442
		c0.749,3.696,1.431,7.058,2.113,10.419c-0.137,7.407,0.064,14.785,2.952,21.76c0.422,1.02,1.651,1.706,2.508,2.547
		c0.838-0.078,1.94,0.15,2.46-0.297c1.248-1.074,4.38-1.22,5.847,0.029c0.72,0.613,0.401,2.876-0.128,5.053l-0.029-0.157
		c-0.003,0.105-0.007,0.211-0.01,0.318c-0.459,1.847-1.057,3.601-1.288,4.188c-1.542,3.902-4.048,7.458-7.173,10.253
		c2.218-0.606,4.439,0.912,5.595,2.962c0.071,0.994,0.148,2.009,0.232,3.025c0.086,1.056,0.365,2.097,0.557,3.145
		c0.044-0.014,0.089-0.027,0.134-0.041c-0.091,1.204-0.251,2.413-0.361,3.608c-0.257,2.788-0.115,5.868,1.723,7.979
		c0.39-4.041,2.043-7.942,4.65-11.054c5.818,2.202,11.396,5.382,17.888,4.848c0.152-0.414,0.305-0.829,0.458-1.242
		c-1.785-0.771-3.571-1.54-5.356-2.311c-2.628-1.74-5.256-3.481-7.884-5.223l10.303-1.971c-0.021-0.601-0.041-1.202-0.061-1.803
		c0.081,2.409-12.646-1.618-13.827-3.619c-2.85-4.827,0.262-11.901,0.94-16.929c1.731,0.385,3.462,0.771,5.436,1.209
		c0.193-0.625,0.44-1.418,0.688-2.21c2.598-1.16,5.196-2.319,7.794-3.479c2.671,0.317,5.375,1.053,8.005,0.845
		c3.149-0.249,6.235-1.305,9.349-2.011c2.02,0.7,4.039,1.4,6.058,2.1l-0.089,0.049c0.718,5.887,1.436,11.771,2.152,17.657
		c-0.325,0.929-0.651,1.856-0.979,2.786c-0.364,1.014-4.405,1.335-5.322,1.543c-0.042,0.583-0.083,1.165-0.126,1.748
		c1.821,0.479,3.529,1.031,5.392,1.377c-1.554,8.025-4.174,8.558-11.216,12.083c2.588,2.517,10.049-1.475,5.98,6.308
		c-0.675,1.289-1.367,2.731-1.013,4.144c3.743-4.317,7.147-7.976,12.556-4.566c2.798,1.763,5.595,3.526,8.393,5.289
		c0.393-0.259,0.787-0.518,1.18-0.776c-1.5-2.453-3-4.905-4.889-7.994c5.088-0.552,9.608-1.042,14.129-1.532
		c-0.009-0.193-0.019-0.387-0.027-0.58c-5.946-0.907-11.893-1.813-17.838-2.721c-0.313-1.479-0.624-2.96-0.936-4.439
		c-0.018-3.594-0.036-7.187-0.054-10.78c0.031-4.184,0.063-8.366,0.094-12.549c2.69-2.073,3.545-6.53,8.074-6.214
		c3.303-1.198,6.604-2.396,9.906-3.595c4.183-0.729,7.297-3.07,9.728-6.441c3.568-3.354,7.136-6.709,9.898-9.307
		c2.1-0.495,4.185-0.394,4.612-1.188c2.354-4.361,4.301-8.941,6.388-13.446c0.559-3.077,1.117-6.154,1.677-9.23
		c-0.592,0.625-1.184,1.25-1.775,1.875c-0.316,2.093-0.379,4.352-1.761,5.744c1.382-1.393,1.444-3.651,1.761-5.744
		c0.592-0.625,1.184-1.25,1.775-1.875c0.382-2.7,0.763-5.4,1.145-8.1c-0.384,0.007-0.768,0.014-1.15,0.02
		c-0.001-0.282,0.047-0.555,0.145-0.819C298.571,185.12,299.127,183.001,299.681,180.884 M162.299,90.157
		c-0.505-0.552-1.009-1.104-1.513-1.655C161.291,89.053,161.794,89.605,162.299,90.157c0.279,0.015,0.558,0.04,0.835,0.075
		C162.856,90.197,162.578,90.172,162.299,90.157 M173.152,180.481c-0.051,0.082-0.089,0.167-0.116,0.257
		c0.027-0.09,0.066-0.176,0.117-0.259L173.152,180.481z"/>
	<path fill="#FFFFFF" d="M286.994,98.734c0,0,0.161,0.013,0.44,0.05c0.276,0.042,0.677,0.084,1.15,0.166
		c0.948,0.154,2.201,0.403,3.443,0.689c1.244,0.287,2.479,0.612,3.398,0.872c0.916,0.263,1.527,0.437,1.527,0.437l0.005,0.001
		c0.088,0.025,0.14,0.118,0.114,0.207c-0.021,0.073-0.088,0.121-0.16,0.121c0,0-0.164,0-0.45-0.015
		c-0.282-0.026-0.688-0.053-1.165-0.118c-0.958-0.125-2.219-0.356-3.468-0.642c-1.246-0.286-2.481-0.624-3.397-0.915
		c-0.46-0.142-0.836-0.285-1.103-0.374c-0.265-0.094-0.414-0.156-0.414-0.156c-0.085-0.036-0.126-0.134-0.091-0.22
		C286.854,98.768,286.924,98.728,286.994,98.734"/>
	<path fill="#FFFFFF" d="M278.738,92.14c-1.021-0.737-2.677-0.181-3.102,1.004s0.433,2.631,1.666,2.886
		c1.232,0.255,2.564-0.668,2.821-1.9c0.119-0.577,0.02-1.214-0.347-1.676s-1.019-0.705-1.576-0.517"/>
	<path fill="#FFFFFF" d="M278.933,103.678c0,0-0.225,0.218-0.583,0.649c-0.178,0.215-0.384,0.483-0.604,0.802
		c-0.215,0.321-0.44,0.693-0.669,1.105c-0.215,0.42-0.427,0.884-0.591,1.393c-0.07,0.257-0.171,0.515-0.212,0.792
		c-0.055,0.273-0.125,0.549-0.143,0.838c-0.015,0.143-0.029,0.287-0.046,0.433c0,0.146,0.002,0.293,0.002,0.441
		c0.004,0.148-0.003,0.297,0.009,0.446l0.059,0.447c0.024,0.302,0.104,0.596,0.185,0.892c0.04,0.145,0.072,0.304,0.119,0.438
		l0.157,0.461c0.098,0.313,0.207,0.613,0.32,0.905c0.106,0.295,0.224,0.589,0.35,0.879c0.239,0.582,0.503,1.146,0.77,1.685
		c0.531,1.08,1.058,2.078,1.553,2.909c0.492,0.833,0.91,1.525,1.224,1.996c0.311,0.471,0.487,0.74,0.487,0.74l0.003,0.002
		c0.051,0.076,0.028,0.179-0.048,0.23c-0.068,0.046-0.159,0.034-0.213-0.026c0,0-0.225-0.243-0.585-0.689
		c-0.354-0.451-0.863-1.093-1.41-1.912c-0.273-0.408-0.563-0.855-0.855-1.339c-0.292-0.483-0.602-0.993-0.878-1.545
		c-0.285-0.547-0.566-1.121-0.824-1.717c-0.135-0.294-0.263-0.598-0.383-0.909c-0.126-0.31-0.244-0.62-0.346-0.925l-0.156-0.462
		c-0.057-0.174-0.085-0.335-0.128-0.503c-0.084-0.332-0.164-0.662-0.186-1.001l-0.056-0.502c-0.01-0.167,0-0.334-0.001-0.5
		c0.003-0.166,0.007-0.33,0.009-0.493c0.021-0.163,0.041-0.323,0.061-0.483c0.069-0.639,0.257-1.235,0.466-1.778
		c0.212-0.543,0.471-1.029,0.727-1.463c0.139-0.209,0.271-0.41,0.397-0.601c0.142-0.18,0.276-0.35,0.401-0.51
		c0.264-0.311,0.505-0.569,0.711-0.773c0.414-0.405,0.691-0.602,0.691-0.602l0.005-0.003c0.074-0.053,0.179-0.036,0.23,0.039
		C279,103.53,278.99,103.622,278.933,103.678"/>
	<path fill="#FFFFFF" d="M283.424,109.931c0,0,0.03,0.489-0.009,1.21c-0.036,0.722-0.14,1.679-0.304,2.626
		c-0.164,0.948-0.392,1.885-0.606,2.579c-0.213,0.694-0.415,1.14-0.415,1.14c-0.037,0.085-0.137,0.124-0.223,0.085
		c-0.065-0.029-0.103-0.095-0.1-0.162c0,0,0.022-0.484,0.104-1.196c0.078-0.712,0.207-1.657,0.367-2.596
		c0.161-0.939,0.353-1.874,0.528-2.573c0.17-0.698,0.327-1.158,0.327-1.158c0.03-0.089,0.126-0.136,0.215-0.106
		C283.376,109.804,283.419,109.864,283.424,109.931"/>
	<path fill="#FFFFFF" d="M228.577,186.812c-0.454,2.599-0.981,5.182-1.574,7.753c-0.61,2.566-1.284,5.12-2.057,7.648
		c-0.778,2.526-1.669,5.023-2.771,7.446c-0.282,0.603-0.563,1.206-0.888,1.793c-0.31,0.591-0.651,1.171-1.023,1.733
		c-0.373,0.563-0.771,1.114-1.244,1.619c-0.449,0.521-1.017,0.959-1.632,1.334c-0.197,0.12-0.455,0.058-0.574-0.14l-0.018-0.031
		l-0.009-0.018l-2.35-4.737l0.698,0.081c-0.66,0.762-1.336,1.473-2.042,2.17c-0.347,0.353-0.71,0.688-1.068,1.029
		c-0.354,0.345-0.732,0.665-1.099,0.997c-0.365,0.334-0.755,0.639-1.134,0.956c-0.378,0.32-0.769,0.622-1.163,0.921
		c-0.394,0.3-0.78,0.606-1.191,0.884c-0.406,0.282-0.806,0.573-1.218,0.847l-1.255,0.795c-0.415,0.269-0.858,0.492-1.286,0.74
		c-0.429,0.248-0.863,0.484-1.317,0.686c-0.449,0.208-0.89,0.435-1.348,0.626l-1.384,0.539c-0.455,0.197-0.944,0.302-1.413,0.455
		c-0.476,0.142-0.945,0.297-1.437,0.376l-1.454,0.292c-0.09,0.018-0.178-0.041-0.195-0.131c-0.018-0.087,0.037-0.173,0.124-0.192
		l0.016-0.005l1.42-0.337c0.478-0.094,0.936-0.263,1.396-0.419c0.456-0.167,0.929-0.283,1.369-0.494l1.339-0.576
		c0.44-0.204,0.866-0.441,1.299-0.66c0.437-0.215,0.859-0.452,1.275-0.706c0.415-0.252,0.846-0.478,1.249-0.751l1.216-0.806
		c0.4-0.275,0.788-0.571,1.182-0.855c0.397-0.281,0.773-0.591,1.153-0.894c0.384-0.301,0.762-0.605,1.127-0.928
		c0.368-0.318,0.743-0.628,1.098-0.962c0.359-0.328,0.729-0.646,1.075-0.987c0.351-0.337,0.706-0.67,1.044-1.02
		c0.687-0.686,1.356-1.403,1.977-2.128l0.002-0.003c0.151-0.177,0.417-0.197,0.594-0.047c0.044,0.037,0.078,0.083,0.103,0.131
		l2.381,4.723l-0.601-0.188c0.501-0.318,0.991-0.688,1.4-1.171c0.431-0.451,0.811-0.968,1.168-1.499
		c0.356-0.533,0.689-1.087,0.994-1.659c0.316-0.563,0.596-1.152,0.875-1.739c1.102-2.362,1.981-4.836,2.798-7.326
		c0.817-2.491,1.54-5.019,2.2-7.562c0.675-2.539,1.302-5.096,1.846-7.666c0.019-0.09,0.105-0.148,0.195-0.13
		C228.534,186.638,228.592,186.723,228.577,186.812"/>
	<path fill="#FFFFFF" d="M194.597,150.24c0,0-0.14-0.116-0.402-0.336c-0.266-0.216-0.666-0.523-1.179-0.907
		c-0.517-0.379-1.156-0.822-1.905-1.305c-0.381-0.231-0.786-0.476-1.214-0.734c-0.438-0.238-0.892-0.503-1.377-0.756
		c-0.977-0.491-2.049-0.996-3.228-1.404c-0.295-0.101-0.594-0.203-0.896-0.307c-0.302-0.102-0.619-0.165-0.934-0.251
		c-0.316-0.074-0.631-0.18-0.958-0.239c-0.327-0.056-0.656-0.112-0.989-0.169l-0.501-0.086l-0.51-0.035
		c-0.341-0.022-0.685-0.044-1.03-0.067c-0.345-0.021-0.69,0.026-1.04,0.035c-0.347,0.031-0.702,0.006-1.046,0.082
		c-0.346,0.063-0.691,0.128-1.04,0.191c-0.161,0.032-0.377,0.062-0.493,0.097l-0.521,0.173l-1.048,0.348
		c-0.343,0.124-0.645,0.299-0.971,0.44c-0.319,0.154-0.645,0.289-0.961,0.456l-0.934,0.55c-0.633,0.344-1.217,0.77-1.803,1.18
		c-0.598,0.394-1.144,0.854-1.695,1.289c-0.56,0.427-1.071,0.9-1.586,1.353c-0.521,0.445-1.002,0.917-1.482,1.372
		c-0.484,0.448-0.942,0.905-1.38,1.358c-0.891,0.891-1.689,1.777-2.422,2.599c-1.461,1.647-2.628,3.068-3.415,4.086
		c-0.794,1.013-1.227,1.605-1.227,1.605c-0.054,0.074-0.157,0.09-0.231,0.036c-0.071-0.051-0.089-0.15-0.043-0.223
		c0,0,0.399-0.626,1.149-1.68c0.375-0.528,0.845-1.157,1.387-1.878c0.553-0.712,1.176-1.518,1.895-2.363
		c0.718-0.847,1.502-1.762,2.38-2.686c0.431-0.47,0.882-0.944,1.362-1.412c0.472-0.475,0.958-0.958,1.484-1.416
		c0.52-0.465,1.036-0.95,1.605-1.392c0.561-0.45,1.113-0.924,1.726-1.335c0.599-0.427,1.195-0.868,1.851-1.232l0.964-0.578
		c0.333-0.18,0.688-0.333,1.032-0.5c0.347-0.157,0.693-0.344,1.043-0.465l1.05-0.339l0.523-0.168
		c0.234-0.067,0.385-0.075,0.582-0.116c0.371-0.064,0.742-0.128,1.11-0.193c0.367-0.075,0.744-0.049,1.113-0.078
		c0.369-0.007,0.738-0.051,1.103-0.027c0.363,0.027,0.726,0.054,1.085,0.081l0.536,0.043l0.524,0.094
		c0.348,0.063,0.692,0.125,1.034,0.186c0.341,0.067,0.666,0.174,0.994,0.262c0.324,0.099,0.652,0.173,0.963,0.287
		c0.31,0.116,0.616,0.23,0.918,0.342c1.205,0.453,2.291,1,3.275,1.528c0.488,0.272,0.944,0.552,1.383,0.81
		c0.423,0.282,0.825,0.549,1.202,0.8c0.74,0.523,1.368,1,1.875,1.407c1.008,0.816,1.536,1.349,1.536,1.349
		c0.064,0.064,0.064,0.169-0.001,0.234C194.759,150.292,194.662,150.295,194.597,150.24"/>
	<path fill="#FFFFFF" d="M118.359,108.575c0,0,0.959-0.465,2.656-1.229c1.7-0.758,4.131-1.843,7.11-2.996
		c2.979-1.147,6.479-2.449,10.339-3.52c1.93-0.533,3.947-1.018,6.035-1.357c2.084-0.325,4.258-0.56,6.456-0.191
		c0.281,0.066,0.53,0.095,0.836,0.194l0.753,0.26c0.502,0.168,1.005,0.334,1.498,0.583c0.493,0.229,0.992,0.449,1.477,0.685
		c0.467,0.254,0.933,0.508,1.396,0.762c0.938,0.489,1.801,1.078,2.69,1.603c0.864,0.561,1.711,1.126,2.541,1.685
		c1.645,1.138,3.193,2.293,4.646,3.406c1.45,1.119,2.801,2.199,4.038,3.207c1.236,1.011,2.351,1.958,3.331,2.808
		c0.975,0.855,1.823,1.601,2.522,2.215c1.39,1.239,2.169,1.965,2.169,1.965c0.067,0.062,0.07,0.167,0.009,0.234
		c-0.062,0.066-0.164,0.07-0.231,0.012c0,0-0.798-0.698-2.223-1.891c-0.717-0.59-1.586-1.308-2.585-2.13
		c-1.01-0.808-2.149-1.719-3.393-2.713c-1.251-0.982-2.616-2.035-4.078-3.122c-0.736-0.536-1.493-1.086-2.267-1.648
		c-0.783-0.547-1.584-1.105-2.397-1.673c-0.825-0.549-1.667-1.104-2.525-1.654c-0.878-0.512-1.738-1.091-2.658-1.563
		c-0.456-0.245-0.913-0.492-1.372-0.739c-0.465-0.213-0.933-0.427-1.399-0.64c-0.454-0.231-0.961-0.396-1.466-0.562l-0.755-0.255
		c-0.199-0.065-0.48-0.104-0.717-0.159c-2.006-0.337-4.128-0.148-6.164,0.165c-2.045,0.318-4.039,0.786-5.952,1.301
		c-3.824,1.047-7.343,2.236-10.326,3.338c-2.982,1.105-5.455,2.069-7.17,2.782c-1.718,0.707-2.687,1.138-2.687,1.138
		c-0.084,0.038-0.182,0-0.219-0.083C118.243,108.71,118.279,108.614,118.359,108.575"/>
	<path fill="#FFFFFF" d="M101.26,71.899c0,0,1.031-0.15,2.837-0.321c1.808-0.165,4.396-0.378,7.511-0.421
		c1.557-0.026,3.245-0.022,5.029,0.039c1.785,0.053,3.667,0.16,5.606,0.361c0.973,0.077,1.954,0.219,2.95,0.346
		c0.998,0.112,1.998,0.303,3.009,0.472c1.014,0.152,2.02,0.399,3.035,0.615c1.02,0.199,2.019,0.506,3.025,0.779
		c2.031,0.592,3.935,1.307,5.84,2.166c0.48,0.195,0.937,0.427,1.389,0.662c0.454,0.23,0.905,0.46,1.354,0.688
		c0.897,0.457,1.737,0.993,2.588,1.475c0.839,0.502,1.63,1.048,2.418,1.562c0.771,0.536,1.506,1.09,2.231,1.613
		c0.702,0.555,1.385,1.094,2.045,1.616c0.64,0.546,1.257,1.074,1.851,1.582c0.573,0.528,1.124,1.035,1.646,1.516
		c0.505,0.499,0.984,0.973,1.435,1.419c0.883,0.908,1.634,1.717,2.238,2.396c1.207,1.361,1.837,2.194,1.837,2.194
		c0.055,0.073,0.041,0.177-0.032,0.232c-0.071,0.054-0.173,0.042-0.229-0.028c0,0-0.646-0.8-1.887-2.112
		c-0.621-0.655-1.393-1.433-2.298-2.306c-0.46-0.428-0.95-0.882-1.467-1.362c-0.528-0.465-1.084-0.955-1.664-1.466
		c-0.596-0.491-1.217-1.003-1.86-1.533c-0.662-0.503-1.347-1.025-2.05-1.561c-0.728-0.504-1.462-1.038-2.233-1.554
		c-0.788-0.488-1.571-1.024-2.399-1.515c-0.842-0.468-1.671-0.992-2.557-1.436c-0.442-0.221-0.888-0.445-1.335-0.669
		c-0.446-0.228-0.896-0.454-1.361-0.639c-0.462-0.196-0.926-0.394-1.391-0.592l-0.698-0.297l-0.729-0.252l-1.465-0.506
		c-0.238-0.079-0.503-0.18-0.72-0.241l-0.742-0.204c-1.972-0.572-3.975-1.043-5.967-1.404c-0.998-0.174-1.984-0.369-2.971-0.485
		c-0.985-0.132-1.956-0.279-2.918-0.36c-0.962-0.096-1.905-0.2-2.834-0.255c-0.928-0.068-1.835-0.147-2.721-0.177
		c-1.771-0.094-3.446-0.129-4.995-0.133c-3.096-0.002-5.678,0.082-7.481,0.199c-1.806,0.11-2.829,0.226-2.829,0.226
		c-0.091,0.01-0.173-0.056-0.183-0.147C101.107,71.993,101.172,71.913,101.26,71.899"/>
	<path fill="#FFFFFF" d="M110.688,84.916c0,0,0.705-0.272,1.959-0.667c0.628-0.196,1.393-0.428,2.277-0.669
		c0.883-0.246,1.885-0.505,2.99-0.739c0.55-0.127,1.127-0.24,1.726-0.353c0.598-0.122,1.22-0.223,1.86-0.322
		c1.279-0.208,2.64-0.37,4.057-0.452c1.414-0.097,2.885-0.095,4.38-0.017c0.746,0.06,1.499,0.144,2.252,0.244l1.124,0.219
		l0.563,0.11c0.215,0.055,0.369,0.106,0.557,0.16c0.719,0.208,1.438,0.414,2.152,0.696l1.068,0.396
		c0.345,0.148,0.688,0.295,1.03,0.442c1.371,0.583,2.679,1.243,3.926,1.907c1.249,0.662,2.419,1.365,3.519,2.046
		c1.099,0.682,2.122,1.351,3.054,1.985c1.867,1.265,3.36,2.405,4.402,3.207c1.038,0.806,1.61,1.294,1.61,1.294
		c0.07,0.06,0.079,0.165,0.02,0.234c-0.057,0.067-0.156,0.077-0.226,0.024c0,0-0.598-0.447-1.665-1.202
		c-1.064-0.761-2.611-1.81-4.494-3.023s-4.128-2.554-6.6-3.849c-1.236-0.646-2.53-1.285-3.878-1.846
		c-0.337-0.141-0.675-0.282-1.014-0.424l-1.028-0.372c-0.676-0.263-1.399-0.464-2.122-0.667l-0.524-0.148l-0.538-0.109l-1.074-0.22
		c-0.724-0.101-1.45-0.19-2.172-0.254c-1.451-0.088-2.887-0.104-4.275-0.019c-0.694,0.042-1.377,0.078-2.044,0.155
		c-0.667,0.062-1.321,0.123-1.953,0.217c-0.635,0.081-1.251,0.165-1.845,0.27c-0.595,0.096-1.169,0.193-1.717,0.305
		c-1.098,0.209-2.101,0.426-2.987,0.63c-0.887,0.202-1.656,0.4-2.287,0.568c-1.264,0.336-1.975,0.557-1.975,0.557
		c-0.087,0.027-0.181-0.022-0.207-0.109C110.562,85.037,110.607,84.948,110.688,84.916"/>
	<path fill="#FFFFFF" d="M122.425,123.425c0,0,0.107-0.195,0.327-0.561c0.221-0.36,0.556-0.88,1.004-1.527
		c0.232-0.318,0.489-0.67,0.769-1.054c0.295-0.373,0.614-0.774,0.955-1.205c0.36-0.414,0.744-0.855,1.149-1.319
		c0.432-0.44,0.886-0.902,1.36-1.384c0.505-0.451,1.019-0.936,1.575-1.41c0.578-0.446,1.149-0.944,1.788-1.388
		c1.271-0.896,2.667-1.778,4.222-2.477c0.389-0.174,0.78-0.349,1.176-0.526c0.391-0.188,0.818-0.29,1.23-0.44
		c0.416-0.139,0.835-0.279,1.256-0.419c0.43-0.113,0.868-0.196,1.306-0.295c0.438-0.093,0.876-0.199,1.319-0.281
		c0.449-0.046,0.899-0.092,1.352-0.139c0.459-0.04,0.885-0.107,1.375-0.125l1.34,0.007c0.448,0.01,0.891-0.006,1.343,0.027
		l1.36,0.131c0.451,0.051,0.908,0.072,1.35,0.148c0.442,0.078,0.882,0.157,1.32,0.233c0.437,0.085,0.879,0.14,1.306,0.25
		c0.427,0.106,0.853,0.213,1.275,0.317c0.852,0.191,1.669,0.457,2.475,0.714c0.813,0.236,1.589,0.534,2.347,0.829
		c0.765,0.276,1.491,0.6,2.198,0.913c0.714,0.299,1.39,0.629,2.041,0.952c0.657,0.311,1.279,0.638,1.87,0.961
		c0.598,0.313,1.163,0.624,1.688,0.944c0.531,0.308,1.03,0.608,1.489,0.905c0.931,0.577,1.719,1.114,2.363,1.562
		c1.288,0.898,1.988,1.467,1.988,1.467c0.071,0.058,0.082,0.163,0.024,0.233c-0.057,0.07-0.157,0.082-0.229,0.028
		c0,0-0.709-0.533-2.021-1.376c-0.655-0.42-1.457-0.924-2.399-1.46c-0.466-0.278-0.971-0.557-1.508-0.842
		c-0.533-0.292-1.095-0.599-1.692-0.893c-0.593-0.307-1.214-0.619-1.869-0.911c-0.65-0.306-1.324-0.617-2.034-0.898
		c-0.704-0.294-1.427-0.597-2.186-0.853c-0.752-0.271-1.518-0.56-2.316-0.787c-0.793-0.247-1.597-0.502-2.433-0.683
		c-0.414-0.101-0.831-0.202-1.251-0.303c-0.418-0.105-0.85-0.154-1.277-0.234c-0.428-0.073-0.858-0.146-1.289-0.219
		c-0.432-0.072-0.865-0.088-1.299-0.134l-1.304-0.12c-0.438-0.03-0.891-0.01-1.336-0.018l-1.34-0.009
		c-0.401,0.013-0.861,0.077-1.288,0.111c-0.436,0.042-0.869,0.082-1.302,0.124c-0.427,0.075-0.849,0.176-1.271,0.262
		c-0.422,0.093-0.846,0.169-1.26,0.275c-0.407,0.133-0.812,0.264-1.215,0.396c-0.398,0.142-0.813,0.235-1.191,0.416
		c-0.383,0.168-0.763,0.335-1.141,0.501c-1.505,0.672-2.877,1.499-4.136,2.342c-0.631,0.419-1.2,0.895-1.775,1.317
		c-0.554,0.452-1.066,0.916-1.571,1.346c-0.477,0.462-0.934,0.906-1.368,1.328c-0.415,0.441-0.81,0.86-1.18,1.254
		c-0.352,0.41-0.682,0.794-0.986,1.149c-0.29,0.367-0.557,0.704-0.798,1.01c-0.941,1.241-1.39,2.003-1.39,2.003
		c-0.046,0.079-0.147,0.105-0.227,0.059C122.406,123.605,122.381,123.503,122.425,123.425"/>
	<path fill="#FFFFFF" d="M151.41,147.653c0,0,0.438-0.627,1.27-1.668c0.839-1.036,2.045-2.514,3.637-4.159
		c1.592-1.642,3.515-3.513,5.818-5.238c1.15-0.862,2.388-1.696,3.718-2.431c1.329-0.732,2.75-1.376,4.256-1.798
		c0.376-0.103,0.761-0.182,1.143-0.267c0.392-0.053,0.767-0.133,1.169-0.163c0.76-0.047,1.492-0.153,2.262-0.149
		c0.762-0.019,1.518-0.043,2.255-0.007c0.368,0.011,0.736,0.021,1.102,0.032c0.363,0.026,0.724,0.052,1.082,0.078
		c1.433,0.093,2.807,0.291,4.103,0.493c1.296,0.208,2.512,0.451,3.631,0.693c1.116,0.245,2.132,0.508,3.027,0.752
		c0.895,0.25,1.671,0.481,2.307,0.68c1.271,0.402,1.985,0.678,1.985,0.678c0.085,0.033,0.127,0.128,0.095,0.215
		c-0.031,0.082-0.121,0.124-0.205,0.099c0,0-0.72-0.228-1.997-0.571c-0.64-0.172-1.419-0.37-2.316-0.582
		c-0.898-0.207-1.915-0.422-3.026-0.644c-1.113-0.213-2.322-0.423-3.607-0.597c-1.285-0.172-2.645-0.318-4.052-0.408
		c-0.353-0.022-0.707-0.044-1.065-0.067c-0.356-0.008-0.718-0.015-1.08-0.022c-0.727-0.029-1.452,0-2.185,0.023
		c-0.728,0-1.49,0.114-2.239,0.166c-0.352,0.027-0.719,0.109-1.078,0.16c-0.357,0.083-0.718,0.159-1.072,0.259
		c-2.848,0.802-5.461,2.37-7.722,4.032c-2.262,1.679-4.236,3.444-5.845,5.038c-1.608,1.596-2.892,2.987-3.759,3.987
		c-0.872,0.998-1.344,1.587-1.344,1.587c-0.058,0.071-0.161,0.083-0.233,0.025C151.374,147.824,151.361,147.724,151.41,147.653"/>
</g>
</svg>
