<?xml version="1.0" encoding="utf-8"?>
<!-- Generator: Adobe Illustrator 16.0.0, SVG Export Plug-In . SVG Version: 6.00 Build 0)  -->
<!DOCTYPE svg PUBLIC "-//W3C//DTD SVG 1.1//EN" "http://www.w3.org/Graphics/SVG/1.1/DTD/svg11.dtd">
<svg version="1.1" id="Layer_1" xmlns="http://www.w3.org/2000/svg" xmlns:xlink="http://www.w3.org/1999/xlink" x="0px" y="0px"
	 width="350px" height="350px" viewBox="0 0 350 350" enable-background="new 0 0 350 350" xml:space="preserve">
<g>
	<path fill="#1D1D1B" d="M216.123,139.107c0-0.04,0-0.04,0-0.083l-0.043-0.04C216.123,139.068,216.123,139.068,216.123,139.107
		c0,0.161-0.083,0.079-0.126,0c-0.078-0.04-0.078-0.04-0.157-0.04c-0.082,0-0.122-0.043-0.165-0.043c-0.039,0-0.078,0-0.157,0
		c-0.849-0.04-1.689,0-2.256,0.122c-2.695,0.483-5.635,1.851-8.331,1.207l-0.039-0.04c-1.206,0.122-2.373-0.44-2.574-2.051
		c-0.562-3.945-1.284-8.61-4.185-11.589c-1.769-1.851-3.419-2.255-5.471-1.45c-6.924,2.656-3.623,12.716-2.334,18.108
		c0.24,0.884,0.079,1.69-0.204,2.334c0.483,0.444,0.483,1.289,0.039,1.729c-5.47,5.635-15.571,7.246-22.814,9.419
		c-11.75,3.498-23.501,7.443-34.727,12.473c-20.282,9.133-50.381,23.5-55.855,47.605c-8.813,38.873,36.538,57.664,68.047,50.261
		c42.535-10.021,45.069-45.753,55.731-81.086c0.684-2.212,2.295-3.257,3.984-3.379c0.078-1.772,1.572-3.502,3.702-2.778
		c7.285,2.456,16.418,2.334,22.98-2.213c1.006-0.645,1.969-1.489,2.491-2.574c0.322-0.605,0.283-0.806,0.04-1.411
		c-1.329-3.297-7.243-4.464-10.021-5.914c-1.606-0.845-2.051-2.213-1.729-3.462c-0.885-0.684-1.446-1.851-0.802-3.179
		c1.328-2.857,4.625-5.792,4.221-9.172c-0.079-0.522-0.157-1.289-0.559-1.611c-0.204-0.122-0.282-0.161-0.404-0.24
		c-0.279,0.118-0.602,0.24-0.767,0.362c-1.524,0.845-3.175,1.45-4.947,1.289c-0.602-0.043-1.128-0.322-1.568-0.688
		c-1.732,0.444-3.866-0.923-3.057-2.975c0.88-2.334,1.969-4.991,2.09-7.486c0-0.401,0-0.806,0-1.207
		C216.162,139.347,216.162,139.229,216.123,139.107z M216.162,139.146c0,0,0.039,0.04,0.079,0.083c0,0,0,0,0-0.043
		C216.162,139.146,216.162,139.146,216.162,139.146z M276.641,94.843c7.403,6.52,9.094,17.825,8.127,27.162
		c-0.841,8.087-3.254,19.476-11.023,23.905c-9.459,5.348-16.54-4.146-20.163-11.994c-3.215,3.419-7.561,6.036-10.94,9.294
		c-3.867,3.706-7.446,7.647-10.948,11.71c-0.243,0.283-0.562,0.444-0.845,0.566c-0.24,0.723-0.562,1.446-1.006,2.13
		c-0.845,1.289-1.812,2.496-2.735,3.663c5.592,1.006,12.556,4.708,14.567,10.221c1.528,4.268-0.483,8.894-3.906,11.589
		c-7.604,5.918-18.87,7.848-27.964,4.308c0.039,0.361,0,0.805-0.082,1.206c-7.447,42.052-19.798,80.925-66.919,89.012
		c-34.204,5.875-69.053-9.176-76.898-45.109c-6.319-28.69,21.207-51.428,43.378-63.5c15.373-8.37,31.669-15.129,48.491-20.038
		c6.881-2.012,16.699-5.596,25.026-5.152c-4.344-9.054-2.613-23.378,8.174-26.439c9.455-2.653,15.09,4.546,16.736,12.638
		c4.265-3.1,8.288-6.44,11.911-10.304c1.852-1.969,3.502-4.103,5.273-6.114c-8.652-0.201-17.868-2.578-20.843-11.428
		c-2.821-8.292,2.091-17.263,8.048-22.859c5.91-5.553,14.808-10.339,23.013-7.121c8.731,3.38,11.671,13.039,12.599,21.971
		C257.126,89.892,268.353,87.518,276.641,94.843z M275.757,120.032c0.361-6.358-0.201-14.485-5.475-18.831
		c-6.799-5.553-17.986,0.201-24.345,3.78c-2.936,1.611-6.637-0.44-6.637-3.82c-0.04-5.835,0.157-19.035-7.529-20.965
		c-4.904-1.25-10.34,2.413-13.719,5.993c-3.302,3.501-6.803,9.259-5.396,13.601c2.177,6.681,14.045,7.203,19.719,7.407
		c1.69,0.04,2.617,1.167,2.818,2.374c0.16,0.483,0.16,0.967,0,1.446c-0.04,0.043-0.04,0.043-0.04,0.083
		c-0.082,0.161-0.161,0.283-0.2,0.444c-2.373,5.67-7.246,10.139-11.872,14.084c-2.656,2.212-5.396,4.264-8.331,6.075
		c2.213-0.039,4.752,0.401,6.276,2.051c2.9,3.057,2.216,7.003,0.645,10.666c0.849-0.444,1.854-0.888,2.778-0.767
		c2.656,0.244,5.714,1.973,6.52,4.668c2.617-3.58,5.392-7.081,8.527-10.26c3.623-3.663,7.647-8.331,12.52-10.143
		c0.479-0.201,0.924-0.161,1.368-0.04c2.012-2.334,6.476-2.979,8.048,0.362c1.407,3.018,3.702,7.887,5.914,9.297
		c1.089,0.641,1.246,0.763,2.291-0.204C273.544,133.594,275.435,126.108,275.757,120.032z"/>
	<path fill="#F6F6F6" d="M270.282,101.201c5.273,4.346,5.836,12.473,5.475,18.831c-0.322,6.076-2.213,13.562-6.119,17.303
		c-1.045,0.967-1.202,0.845-2.291,0.204c-2.212-1.411-4.507-6.279-5.914-9.297c-1.572-3.34-6.036-2.696-8.048-0.362
		c-0.444-0.122-0.889-0.161-1.368,0.04c-4.872,1.812-8.896,6.48-12.52,10.143c-3.136,3.179-5.91,6.681-8.527,10.26
		c-0.806-2.696-3.863-4.425-6.52-4.668c-0.924-0.122-1.93,0.322-2.778,0.767c1.571-3.663,2.256-7.608-0.645-10.666
		c-1.524-1.65-4.063-2.09-6.276-2.051c2.936-1.812,5.675-3.863,8.331-6.075c4.626-3.945,9.499-8.414,11.872-14.084
		c0.039-0.161,0.118-0.283,0.2-0.444c0-0.039,0-0.039,0.04-0.083c0.16-0.479,0.16-0.963,0-1.446
		c-0.201-1.206-1.128-2.334-2.818-2.374c-5.674-0.204-17.542-0.727-19.719-7.407c-1.407-4.342,2.094-10.1,5.396-13.601
		c3.379-3.58,8.814-7.242,13.719-5.993c7.687,1.93,7.489,15.129,7.529,20.965c0,3.38,3.701,5.431,6.637,3.82
		C252.296,101.402,263.483,95.648,270.282,101.201z"/>
	<path fill="#683C11" d="M233.744,173.712c0.243,0.605,0.282,0.806-0.04,1.411c-0.522,1.085-1.485,1.93-2.491,2.574
		c-6.563,4.547-15.695,4.669-22.98,2.213c-2.13-0.724-3.624,1.006-3.702,2.778c-1.689,0.122-3.301,1.167-3.984,3.379
		c-10.662,35.333-13.196,71.065-55.731,81.086c-31.509,7.403-76.859-11.388-68.047-50.261c5.474-24.105,35.573-38.472,55.855-47.605
		c11.225-5.03,22.977-8.976,34.727-12.473c7.243-2.173,17.344-3.784,22.814-9.419c0.444-0.44,0.444-1.285-0.039-1.729
		c0.283-0.645,0.444-1.45,0.204-2.334c-1.289-5.392-4.59-15.452,2.334-18.108c2.052-0.806,3.702-0.401,5.471,1.45
		c2.9,2.979,3.623,7.644,4.185,11.589c0.201,1.611,1.368,2.173,2.574,2.051l0.039,0.04c2.696,0.645,5.636-0.723,8.331-1.207
		c0.566-0.122,1.407-0.161,2.256-0.122c0.079,0,0.118,0,0.157,0c0.043,0,0.083,0.043,0.165,0.043c0.079,0,0.079,0,0.157,0.04
		c0.043,0.079,0.126,0.161,0.126,0c0.039,0.122,0.039,0.24,0.078,0.322c0,0.401,0,0.806,0,1.207c-0.121,2.496-1.21,5.152-2.09,7.486
		c-0.81,2.051,1.324,3.419,3.057,2.975c0.44,0.366,0.967,0.645,1.568,0.688c1.772,0.161,3.423-0.444,4.947-1.289
		c0.165-0.122,0.487-0.244,0.767-0.362c0.122,0.079,0.2,0.118,0.404,0.24c0.401,0.322,0.479,1.089,0.559,1.611
		c0.404,3.379-2.893,6.315-4.221,9.172c-0.645,1.328-0.083,2.496,0.802,3.179c-0.322,1.25,0.122,2.617,1.729,3.462
		C226.501,169.248,232.415,170.416,233.744,173.712z"/>
</g>
</svg>
