<?xml version="1.0" encoding="utf-8"?>
<!-- Generator: Adobe Illustrator 16.0.0, SVG Export Plug-In . SVG Version: 6.00 Build 0)  -->
<!DOCTYPE svg PUBLIC "-//W3C//DTD SVG 1.1//EN" "http://www.w3.org/Graphics/SVG/1.1/DTD/svg11.dtd">
<svg version="1.1" id="Layer_1" xmlns="http://www.w3.org/2000/svg" xmlns:xlink="http://www.w3.org/1999/xlink" x="0px" y="0px"
	 width="350px" height="350px" viewBox="0 0 350 350" enable-background="new 0 0 350 350" xml:space="preserve">
<path fill="#C7CFE2" d="M297.355,135.672c2.416,0,4.371-1.954,4.371-4.37c0-2.416-1.955-4.371-4.371-4.371h-52.438v-13.109h52.438
	c2.416,0,4.371-1.955,4.371-4.37s-1.955-4.37-4.371-4.37h-52.438V52.645c0-2.415-1.954-4.37-4.37-4.37s-4.369,1.955-4.369,4.37
	v52.438h-13.11V52.645c0-2.415-1.954-4.37-4.37-4.37c-2.415,0-4.37,1.955-4.37,4.37v52.438h-13.109V52.645
	c0-2.415-1.955-4.37-4.37-4.37s-4.37,1.955-4.37,4.37v52.438h-13.109V52.645c0.002-2.416-1.952-4.37-4.368-4.37
	c-2.416,0-4.37,1.955-4.37,4.37v52.438h-13.109V52.645c0-2.415-1.954-4.37-4.37-4.37s-4.37,1.955-4.37,4.37v52.438h-13.11V52.645
	c0-2.415-1.955-4.37-4.37-4.37s-4.37,1.955-4.37,4.37v52.438h-13.109V52.645c0-2.415-1.954-4.37-4.37-4.37
	c-2.415,0-4.37,1.955-4.37,4.37v52.438H52.646c-2.415,0-4.37,1.954-4.37,4.37c0,2.415,1.954,4.37,4.37,4.37h52.438v13.109H52.646
	c-2.415,0-4.37,1.955-4.37,4.37s1.954,4.37,4.37,4.37h52.438v13.11H52.646c-2.415,0-4.37,1.954-4.37,4.37
	c0,2.415,1.954,4.37,4.37,4.37h52.438v13.11H52.646c-2.416-0.002-4.37,1.953-4.37,4.368s1.954,4.371,4.37,4.371h52.438v13.109
	H52.646c-2.415,0-4.37,1.954-4.37,4.37c0,2.414,1.954,4.37,4.37,4.37h52.438v13.109H52.646c-2.415,0-4.37,1.954-4.37,4.369
	c0,2.416,1.954,4.37,4.37,4.37h52.438v13.11H52.646c-2.415,0-4.37,1.954-4.37,4.37s1.954,4.37,4.37,4.37h52.438v52.438
	c0,2.415,1.955,4.37,4.37,4.37c2.415,0,4.37-1.954,4.37-4.37v-52.44h13.109v52.438c0,2.416,1.955,4.37,4.37,4.37
	s4.37-1.954,4.37-4.37v-52.438h13.11v52.438c0,2.416,1.954,4.37,4.37,4.37s4.37-1.954,4.37-4.37v-52.438h13.11v52.438
	c0,2.416,1.955,4.37,4.37,4.37c2.415,0,4.37-1.954,4.37-4.37v-52.438h13.109v52.438c0,2.416,1.954,4.37,4.37,4.37
	s4.37-1.954,4.37-4.37v-52.438h13.109v52.438c0,2.416,1.955,4.37,4.371,4.37c2.414,0,4.369-1.954,4.369-4.37v-52.438h13.109v52.438
	c0,2.416,1.954,4.37,4.37,4.37s4.37-1.954,4.37-4.37v-52.438h52.438c2.415,0,4.37-1.954,4.37-4.369c0-2.416-1.955-4.37-4.37-4.37
	h-52.442v-13.109h52.438c2.416,0,4.371-1.955,4.371-4.37c0-2.416-1.955-4.37-4.371-4.37h-52.438v-13.11h52.438
	c2.416,0,4.371-1.954,4.371-4.37c0-2.415-1.955-4.369-4.371-4.369h-52.438v-13.11h52.438c2.416,0,4.371-1.954,4.371-4.37
	c0-2.415-1.955-4.37-4.371-4.37h-52.438v-13.107h52.438c2.416,0,4.371-1.954,4.371-4.37s-1.955-4.37-4.371-4.37h-52.438v-13.11
	L297.355,135.672L297.355,135.672z"/>
<path fill="#AFB9D2" d="M275.507,113.823v-8.739h-30.589V74.494h-8.739v30.589h-13.11V74.494h-8.739v30.589H201.22V74.494h-8.739
	v30.589h-13.11V74.494h-8.739v30.589h-13.109V74.494h-8.739v30.589h-13.11V74.494h-8.74v30.589h-13.109V74.494h-8.74v30.589H74.495
	v8.739h30.589v13.11H74.495v8.739h30.589v13.11H74.495v8.739h30.589v13.11H74.495v8.74h30.589v13.109H74.495v8.739h30.589v13.109
	H74.495v8.74h30.589v13.109H74.495v8.74h30.589v30.588h8.74v-30.588h13.109v30.588h8.74v-30.588h13.11v30.588h8.739v-30.588h13.11
	v30.588h8.74v-30.588h13.109v30.588h8.739v-30.588h13.109v30.588h8.74v-30.588h13.109v30.588h8.74v-30.588h30.588v-8.74h-30.588
	v-13.109h30.588v-8.74h-30.588V201.22h30.588v-8.74h-30.588V179.37h30.588v-8.74h-30.588v-13.109h30.588v-8.739h-30.588v-13.11
	h30.588v-8.739h-30.588v-13.11H275.507z"/>
<path fill="#5B5D6E" d="M249.288,266.768H100.713c-9.653,0-17.479-7.826-17.479-17.48V100.713c0-9.653,7.826-17.479,17.479-17.479
	h148.575c9.653,0,17.479,7.826,17.479,17.479v148.574C266.768,258.941,258.941,266.768,249.288,266.768z"/>
<path fill="#707487" d="M244.918,249.287H105.083c-2.413,0-4.37-1.956-4.37-4.37V105.083c0-2.414,1.957-4.371,4.37-4.371h139.835
	c2.413,0,4.37,1.957,4.37,4.371v139.835C249.288,247.331,247.331,249.287,244.918,249.287z"/>
<path fill="#AFB9D2" d="M144.393,170.02v26.219c0,2.413,1.957,4.37,4.37,4.37h52.438c2.413,0,4.369-1.957,4.369-4.37V170.02H144.393
	L144.393,170.02z"/>
<g>
	<path fill="#959CB5" d="M223.051,166.252l-8.74,0.009l0.042,30.594c0.005,2.41,1.959,4.365,4.371,4.365h0.004
		c2.415-0.005,4.369-1.963,4.365-4.374L223.051,166.252z"/>
	<path fill="#959CB5" d="M144.393,184.017l23.833,6.356c2.203,0.587,4.476,0.885,6.755,0.885c2.279,0,4.553-0.297,6.756-0.885
		l23.833-6.356V170.02h-61.178V184.017z"/>
</g>
<path fill="#C7CFE2" d="M170.478,149.371l-55.572,14.819c-1.495,0.399-1.495,2.52,0,2.918l55.572,14.819
	c2.951,0.788,6.057,0.788,9.008,0l55.573-14.819c1.493-0.399,1.493-2.52,0-2.918l-55.573-14.819
	C176.534,148.584,173.429,148.584,170.478,149.371z"/>
<circle fill="#AFB9D2" cx="218.677" cy="209.959" r="4.37"/>
</svg>
