<?xml version="1.0" encoding="utf-8"?>
<!-- Generator: Adobe Illustrator 16.0.0, SVG Export Plug-In . SVG Version: 6.00 Build 0)  -->
<!DOCTYPE svg PUBLIC "-//W3C//DTD SVG 1.1 Tiny//EN" "http://www.w3.org/Graphics/SVG/1.1/DTD/svg11-tiny.dtd">
<svg version="1.1" baseProfile="tiny" id="Layer_1" xmlns="http://www.w3.org/2000/svg" xmlns:xlink="http://www.w3.org/1999/xlink"
	 x="0px" y="0px" width="350px" height="350px" viewBox="0 0 350 350" overflow="scroll" xml:space="preserve">
<g>
	<polygon fill="#323E4E" points="130.213,274.296 130.213,274.299 130.222,274.296 	"/>
	<polygon fill="#323E4E" points="130.515,274.064 129.92,274.064 130.508,274.299 130.515,274.288 	"/>
	<path fill="#323E4E" d="M272.755,85.672l-2.156-10.189l-3.472,10.189l-3.627,3.862v3.983h-42v-3.983l-1.853-3.862l-2.209-10.189
		l-3.392,10.189l-3.547,3.862v4.12v44.812v19.255v8.797h0.628c-3.235-17-19.295-28.359-34.698-28.359
		c-16.805,0-31.362,11.359-34.598,28.359H140.5v-8.797v-31.858V93.654v-4.12l-1.962-3.862l-2.265-10.189l-3.809,10.189l-3.965,3.862
		v3.983h-42v-3.983l-1.568-3.862l-2.068-10.189L79.26,85.672l-3.76,3.862v4.12v44.812v19.255v116.797h33.712h32.208h0.064h69.953
		h0.038h33.57H274.5V157.721v-31.858V93.654v-4.12L272.755,85.672z"/>
	<g>
		<polygon fill="#FFFFFF" points="183.5,158.518 177.5,158.518 177.5,152.518 172.5,152.518 172.5,158.518 165.5,158.518 
			165.5,163.518 172.5,163.518 172.5,180.518 177.5,180.518 177.5,163.518 183.5,163.518 		"/>
		<path fill="#FFFFFF" d="M174.5,226.952c-8.294,0-15,6.724-15,15.018v22.548h30V241.97
			C189.5,233.676,182.794,226.952,174.5,226.952z"/>
		<path fill="#FFFFFF" d="M201.5,226.952c-3.752,0-7,3.041-7,6.794v19.771h14v-19.771C208.5,229.993,205.252,226.952,201.5,226.952z
			"/>
		<path fill="#FFFFFF" d="M147.5,226.952c-3.752,0-7,3.041-7,6.794v19.771h14v-19.771C154.5,229.993,151.252,226.952,147.5,226.952z
			"/>
		<path fill="#FFFFFF" d="M107.5,112.124c-3.752,0-7,3.041-7,6.794v19.6h14v-19.6C114.5,115.165,111.252,112.124,107.5,112.124z"/>
		<path fill="#FFFFFF" d="M243.5,112.124c-3.752,0-7,3.041-7,6.794v19.6h14v-19.6C250.5,115.165,247.252,112.124,243.5,112.124z"/>
		<path fill="#FFFFFF" d="M107.5,226.952c-3.752,0-7,3.041-7,6.794v19.771h14v-19.771C114.5,229.993,111.252,226.952,107.5,226.952z
			"/>
		<path fill="#FFFFFF" d="M243.5,226.952c-3.752,0-7,3.041-7,6.794v19.771h14v-19.771C250.5,229.993,247.252,226.952,243.5,226.952z
			"/>
	</g>
</g>
</svg>
