<?xml version="1.0" encoding="utf-8"?>
<!-- Generator: Adobe Illustrator 16.0.0, SVG Export Plug-In . SVG Version: 6.00 Build 0)  -->
<!DOCTYPE svg PUBLIC "-//W3C//DTD SVG 1.1 Tiny//EN" "http://www.w3.org/Graphics/SVG/1.1/DTD/svg11-tiny.dtd">
<svg version="1.1" baseProfile="tiny" id="Layer_1" xmlns="http://www.w3.org/2000/svg" xmlns:xlink="http://www.w3.org/1999/xlink"
	 x="0px" y="0px" width="350px" height="350px" viewBox="0 0 350 350" overflow="scroll" xml:space="preserve">
<g>
	<polygon fill="#323E4E" points="248.5,141.209 248.5,141.221 207.5,157.439 207.5,93.374 207.5,89.254 204.59,85.392 
		201.851,75.201 199.253,85.392 196.5,89.254 196.5,93.799 154.5,93.799 154.5,89.254 151.483,85.392 148.691,75.201 
		146.174,85.392 143.5,89.254 143.5,93.374 143.5,157.439 102.645,141.321 75.658,188.799 75.5,188.799 75.5,274.799 274.5,274.799 
		274.5,188.598 	"/>
	<polygon fill="#323E4E" points="248.046,140.985 248.046,140.989 248.055,140.985 	"/>
	<polygon fill="#323E4E" points="102.41,140.985 101.816,140.985 102.404,141.221 102.41,141.209 	"/>
	<g>
		<g>
			<polygon fill="#FFFFFF" points="182.5,120.799 176.5,120.799 176.5,114.799 171.5,114.799 171.5,120.799 164.5,120.799 
				164.5,125.799 171.5,125.799 171.5,142.799 176.5,142.799 176.5,125.799 182.5,125.799 			"/>
			<g>
				<path fill="#FFFFFF" d="M173,228.072c-8.294,0-14.5,6.724-14.5,15.018v22.709h29V243.09
					C187.5,234.796,181.294,228.072,173,228.072z"/>
				<path fill="#FFFFFF" d="M206.5,228.072c-3.752,0-7,3.041-7,6.793v19.934h14v-19.934
					C213.5,231.113,210.252,228.072,206.5,228.072z"/>
				<path fill="#FFFFFF" d="M140.5,228.072c-3.752,0-7,3.041-7,6.793v19.934h14v-19.934
					C147.5,231.113,144.252,228.072,140.5,228.072z"/>
			</g>
		</g>
		<path fill="#FFFFFF" d="M95.5,228.072c-3.752,0-7,3.041-7,6.793v19.934h14v-19.934C102.5,231.113,99.252,228.072,95.5,228.072z"/>
		<path fill="#FFFFFF" d="M253.5,228.072c-3.752,0-7,3.041-7,6.793v19.934h14v-19.934C260.5,231.113,257.252,228.072,253.5,228.072z
			"/>
	</g>
</g>
</svg>
