<?xml version="1.0" encoding="utf-8"?>
<!-- Generator: Adobe Illustrator 16.0.0, SVG Export Plug-In . SVG Version: 6.00 Build 0)  -->
<!DOCTYPE svg PUBLIC "-//W3C//DTD SVG 1.1//EN" "http://www.w3.org/Graphics/SVG/1.1/DTD/svg11.dtd">
<svg version="1.1" id="Capa_1" xmlns="http://www.w3.org/2000/svg" xmlns:xlink="http://www.w3.org/1999/xlink" x="0px" y="0px"
	 width="350px" height="350px" viewBox="0 0 350 350" enable-background="new 0 0 350 350" xml:space="preserve">
<path fill="#CBB292" d="M191.871,67.443h-12.653V54.79c0-2.329-1.89-4.218-4.218-4.218s-4.218,1.89-4.218,4.218v12.654h-12.654
	c-2.329,0-4.218,1.889-4.218,4.218c0,2.328,1.89,4.218,4.218,4.218h12.654v21.09c0,2.328,1.89,4.218,4.218,4.218
	s4.218-1.89,4.218-4.218v-21.09h12.653c2.329,0,4.219-1.89,4.219-4.218C196.09,69.333,194.2,67.443,191.871,67.443z"/>
<polygon fill="#ECF0F1" points="263.576,299.429 86.424,299.429 86.424,253.031 120.167,215.07 229.833,215.07 263.576,253.031 "/>
<rect x="120.167" y="172.891" fill="#ECF0F1" width="109.666" height="42.179"/>
<polygon fill="#E4C05C" points="234.051,172.891 115.949,172.891 149.692,143.366 200.308,143.366 "/>
<polygon fill="#E4C05C" points="196.09,118.058 153.91,118.058 175,88.533 "/>
<rect x="158.128" y="118.058" fill="#ECF0F1" width="33.743" height="25.308"/>
<path fill="#4482C3" d="M141.257,299.429v-31.635c0-10.439-8.542-18.98-18.98-18.98c-10.44,0-18.981,8.541-18.981,18.98v31.635
	H141.257z"/>
<path fill="#4482C3" d="M227.724,248.813c-10.438,0-18.98,8.541-18.98,18.98v31.635h37.962v-31.635
	C246.705,257.354,238.163,248.813,227.724,248.813z"/>
<path fill="#556080" d="M191.871,299.429v-46.397c0-9.279-7.592-16.871-16.871-16.871s-16.872,7.592-16.872,16.871v46.397H191.871z"
	/>
<path fill="#0096E6" d="M153.91,185.545c-6.959,0-12.653,5.694-12.653,12.653v16.872h25.308v-16.872
	C166.564,191.239,160.87,185.545,153.91,185.545z"/>
<path fill="#0096E6" d="M196.09,185.545c-6.96,0-12.654,5.694-12.654,12.653v16.872h25.308v-16.872
	C208.743,191.239,203.049,185.545,196.09,185.545z"/>
</svg>
