<?xml version="1.0" encoding="utf-8"?>
<!-- Generator: Adobe Illustrator 16.0.0, SVG Export Plug-In . SVG Version: 6.00 Build 0)  -->
<!DOCTYPE svg PUBLIC "-//W3C//DTD SVG 1.1//EN" "http://www.w3.org/Graphics/SVG/1.1/DTD/svg11.dtd">
<svg version="1.1" id="Layer_1" xmlns="http://www.w3.org/2000/svg" xmlns:xlink="http://www.w3.org/1999/xlink" x="0px" y="0px"
	 width="350px" height="350px" viewBox="0 0 350 350" enable-background="new 0 0 350 350" xml:space="preserve">
<g>
	<g opacity="0.4">
		<ellipse opacity="0" fill="#48443E" cx="168.411" cy="201.978" rx="137.5" ry="51.221"/>
		<ellipse opacity="0.0196" fill="#48443E" cx="168.793" cy="201.605" rx="135.804" ry="50.589"/>
		<ellipse opacity="0.0392" fill="#48443E" cx="169.176" cy="201.232" rx="134.108" ry="49.957"/>
		<ellipse opacity="0.0588" fill="#48443E" cx="169.559" cy="200.859" rx="132.412" ry="49.326"/>
		<ellipse opacity="0.0784" fill="#48443E" cx="169.941" cy="200.487" rx="130.716" ry="48.693"/>
		<ellipse opacity="0.098" fill="#48443E" cx="170.323" cy="200.115" rx="129.02" ry="48.062"/>
		<ellipse opacity="0.1176" fill="#48443E" cx="170.705" cy="199.742" rx="127.324" ry="47.43"/>
		<ellipse opacity="0.1373" fill="#48443E" cx="171.088" cy="199.37" rx="125.628" ry="46.798"/>
		<ellipse opacity="0.1569" fill="#48443E" cx="171.47" cy="198.997" rx="123.932" ry="46.167"/>
		<ellipse opacity="0.1765" fill="#48443E" cx="171.853" cy="198.624" rx="122.236" ry="45.535"/>
		<ellipse opacity="0.1961" fill="#48443E" cx="172.235" cy="198.252" rx="120.54" ry="44.903"/>
		<ellipse opacity="0.2157" fill="#48443E" cx="172.617" cy="197.88" rx="118.844" ry="44.271"/>
		<ellipse opacity="0.2353" fill="#48443E" cx="173" cy="197.507" rx="117.148" ry="43.64"/>
		<ellipse opacity="0.2549" fill="#48443E" cx="173.382" cy="197.135" rx="115.452" ry="43.007"/>
		<ellipse opacity="0.2745" fill="#48443E" cx="173.765" cy="196.762" rx="113.756" ry="42.376"/>
		<ellipse opacity="0.2941" fill="#48443E" cx="174.147" cy="196.389" rx="112.06" ry="41.744"/>
		<ellipse opacity="0.3137" fill="#48443E" cx="174.53" cy="196.017" rx="110.364" ry="41.112"/>
		<ellipse opacity="0.3333" fill="#48443E" cx="174.912" cy="195.645" rx="108.668" ry="40.48"/>
		<ellipse opacity="0.3529" fill="#48443E" cx="175.294" cy="195.271" rx="106.972" ry="39.849"/>
		<ellipse opacity="0.3725" fill="#48443E" cx="175.676" cy="194.899" rx="105.276" ry="39.217"/>
		<ellipse opacity="0.3922" fill="#48443E" cx="176.059" cy="194.526" rx="103.58" ry="38.585"/>
		<ellipse opacity="0.4118" fill="#48443E" cx="176.441" cy="194.154" rx="101.884" ry="37.953"/>
		<ellipse opacity="0.4314" fill="#48443E" cx="176.824" cy="193.781" rx="100.188" ry="37.322"/>
		<ellipse opacity="0.451" fill="#48443E" cx="177.206" cy="193.409" rx="98.492" ry="36.689"/>
		<ellipse opacity="0.4706" fill="#48443E" cx="177.589" cy="193.036" rx="96.796" ry="36.058"/>
		<ellipse opacity="0.4902" fill="#48443E" cx="177.971" cy="192.664" rx="95.1" ry="35.426"/>
		<ellipse opacity="0.5098" fill="#48443E" cx="178.353" cy="192.291" rx="93.404" ry="34.795"/>
		<ellipse opacity="0.5294" fill="#48443E" cx="178.735" cy="191.918" rx="91.708" ry="34.164"/>
		<ellipse opacity="0.549" fill="#48443E" cx="179.118" cy="191.546" rx="90.012" ry="33.531"/>
		<ellipse opacity="0.5686" fill="#48443E" cx="179.5" cy="191.174" rx="88.316" ry="32.898"/>
		<ellipse opacity="0.5882" fill="#48443E" cx="179.883" cy="190.801" rx="86.62" ry="32.268"/>
		<ellipse opacity="0.6078" fill="#48443E" cx="180.265" cy="190.429" rx="84.924" ry="31.636"/>
		<ellipse opacity="0.6275" fill="#48443E" cx="180.648" cy="190.056" rx="83.228" ry="31.004"/>
		<ellipse opacity="0.6471" fill="#48443E" cx="181.03" cy="189.684" rx="81.532" ry="30.372"/>
		<ellipse opacity="0.6667" fill="#48443E" cx="181.412" cy="189.311" rx="79.836" ry="29.74"/>
		<ellipse opacity="0.6863" fill="#48443E" cx="181.795" cy="188.938" rx="78.14" ry="29.108"/>
		<ellipse opacity="0.7059" fill="#48443E" cx="182.177" cy="188.565" rx="76.444" ry="28.477"/>
		<ellipse opacity="0.7255" fill="#48443E" cx="182.56" cy="188.193" rx="74.748" ry="27.845"/>
		<ellipse opacity="0.7451" fill="#48443E" cx="182.942" cy="187.82" rx="73.052" ry="27.214"/>
		<ellipse opacity="0.7647" fill="#48443E" cx="183.324" cy="187.448" rx="71.356" ry="26.581"/>
		<ellipse opacity="0.7843" fill="#48443E" cx="183.707" cy="187.076" rx="69.66" ry="25.949"/>
		<ellipse opacity="0.8039" fill="#48443E" cx="184.09" cy="186.703" rx="67.964" ry="25.317"/>
		<ellipse opacity="0.8235" fill="#48443E" cx="184.471" cy="186.33" rx="66.268" ry="24.687"/>
		<ellipse opacity="0.8431" fill="#48443E" cx="184.854" cy="185.958" rx="64.572" ry="24.055"/>
		<ellipse opacity="0.8627" fill="#48443E" cx="185.236" cy="185.586" rx="62.876" ry="23.422"/>
		<ellipse opacity="0.8824" fill="#48443E" cx="185.619" cy="185.213" rx="61.18" ry="22.791"/>
		<ellipse opacity="0.902" fill="#48443E" cx="186.001" cy="184.84" rx="59.484" ry="22.159"/>
		<ellipse opacity="0.9216" fill="#48443E" cx="186.384" cy="184.468" rx="57.788" ry="21.527"/>
		<ellipse opacity="0.9412" fill="#48443E" cx="186.766" cy="184.095" rx="56.092" ry="20.896"/>
		<ellipse opacity="0.9608" fill="#48443E" cx="187.148" cy="183.723" rx="54.396" ry="20.264"/>
		<ellipse opacity="0.9804" fill="#48443E" cx="187.531" cy="183.351" rx="52.7" ry="19.632"/>
		<ellipse fill="#48443E" cx="187.913" cy="182.978" rx="51.004" ry="19"/>
	</g>
	<path fill="#FFFFFF" stroke="#EEEEEE" stroke-miterlimit="10" d="M183.438,234.501c-17.717,0-34.611-6.808-47.349-18.886
		c-4.302,1.28-8.769,1.927-13.351,1.927c-12.648,0-24.617-5.102-33.344-13.948c-2.263,0.589-4.605,0.89-6.984,0.89
		c-15.256,0-27.667-12.41-27.667-27.666c0-14.82,11.713-26.957,26.368-27.637c7.914-15.422,23.757-25.315,41.627-25.315
		c1.907,0,3.812,0.117,5.702,0.35c12.968-17.287,33.048-27.413,54.997-27.413c21.847,0,42.324,10.456,55.225,27.757
		c3.79-0.96,7.691-1.444,11.67-1.444c17.999,0,34.426,10.389,42.436,26.068c14.632,0.705,26.32,12.831,26.32,27.635
		c0,15.256-12.411,27.666-27.666,27.666c-2.295,0-4.56-0.281-6.75-0.832c-8.897,9.285-21.233,14.642-34.34,14.642
		c-6.394,0-12.651-1.271-18.46-3.721C219.037,227.326,201.797,234.501,183.438,234.501z"/>
	<path fill="#A5EEFE" d="M291.423,159.151c-1.769,0-3.473,0.267-5.083,0.75c-4.643-15.493-19.002-26.787-36.007-26.787
		c-5.622,0-10.951,1.243-15.74,3.455c-10.127-17.774-29.233-29.768-51.154-29.768c-21.407,0-40.141,11.433-50.438,28.522
		c-3.259-0.943-6.698-1.459-10.261-1.459c-16.587,0-30.61,10.965-35.227,26.041c-1.616-0.487-3.327-0.755-5.102-0.755
		c-9.758,0-17.667,7.909-17.667,17.666s7.909,17.666,17.667,17.666c3.665,0,7.069-1.117,9.893-3.027
		c6.633,9.71,17.788,16.086,30.436,16.086c5.73,0,11.155-1.309,15.992-3.644c10.794,12.604,26.812,20.603,44.707,20.603
		c18.741,0,35.424-8.771,46.201-22.421c5.936,3.923,13.046,6.213,20.693,6.213c13.061,0,24.562-6.663,31.299-16.773
		c2.803,1.87,6.168,2.964,9.791,2.964c9.757,0,17.666-7.909,17.666-17.666S301.18,159.151,291.423,159.151z"/>
	<g>
		<defs>
			<path id="SVGID_1_" d="M291.423,159.151c-1.769,0-3.473,0.267-5.083,0.75c-4.643-15.493-19.002-26.787-36.007-26.787
				c-5.622,0-10.951,1.243-15.74,3.455c-10.127-17.774-29.233-29.768-51.154-29.768c-21.407,0-40.141,11.433-50.438,28.522
				c-3.259-0.943-6.698-1.459-10.261-1.459c-16.587,0-30.61,10.965-35.227,26.041c-1.616-0.487-3.327-0.755-5.102-0.755
				c-9.758,0-17.667,7.909-17.667,17.666s7.909,17.666,17.667,17.666c3.665,0,7.069-1.117,9.893-3.027
				c6.633,9.71,17.788,16.086,30.436,16.086c5.73,0,11.155-1.309,15.992-3.644c10.794,12.604,26.812,20.603,44.707,20.603
				c18.741,0,35.424-8.771,46.201-22.421c5.936,3.923,13.046,6.213,20.693,6.213c13.061,0,24.562-6.663,31.299-16.773
				c2.803,1.87,6.168,2.964,9.791,2.964c9.757,0,17.666-7.909,17.666-17.666S301.18,159.151,291.423,159.151z"/>
		</defs>
		<clipPath id="SVGID_2_">
			<use xlink:href="#SVGID_1_"  overflow="visible"/>
		</clipPath>
		<circle clip-path="url(#SVGID_2_)" fill="#FFFFFF" cx="190.121" cy="104.85" r="3.204"/>
		<circle clip-path="url(#SVGID_2_)" fill="#FFFFFF" cx="211.676" cy="104.85" r="3.204"/>
		<circle clip-path="url(#SVGID_2_)" fill="#FFFFFF" cx="233.23" cy="104.85" r="3.204"/>
		<circle clip-path="url(#SVGID_2_)" fill="#FFFFFF" cx="254.785" cy="104.85" r="3.204"/>
		<circle clip-path="url(#SVGID_2_)" fill="#FFFFFF" cx="276.34" cy="104.85" r="3.204"/>
		<circle clip-path="url(#SVGID_2_)" fill="#FFFFFF" cx="297.896" cy="104.85" r="3.204"/>
		<circle clip-path="url(#SVGID_2_)" fill="#FFFFFF" cx="201.031" cy="115.76" r="3.204"/>
		<circle clip-path="url(#SVGID_2_)" fill="#FFFFFF" cx="222.586" cy="115.76" r="3.204"/>
		<circle clip-path="url(#SVGID_2_)" fill="#FFFFFF" cx="244.141" cy="115.76" r="3.204"/>
		<circle clip-path="url(#SVGID_2_)" fill="#FFFFFF" cx="265.695" cy="115.76" r="3.204"/>
		<circle clip-path="url(#SVGID_2_)" fill="#FFFFFF" cx="287.25" cy="115.76" r="3.204"/>
		<circle clip-path="url(#SVGID_2_)" fill="#FFFFFF" cx="308.806" cy="115.76" r="3.204"/>
		<circle clip-path="url(#SVGID_2_)" fill="#FFFFFF" cx="190.121" cy="128.193" r="3.204"/>
		<circle clip-path="url(#SVGID_2_)" fill="#FFFFFF" cx="211.676" cy="128.193" r="3.204"/>
		<circle clip-path="url(#SVGID_2_)" fill="#FFFFFF" cx="233.23" cy="128.193" r="3.204"/>
		<circle clip-path="url(#SVGID_2_)" fill="#FFFFFF" cx="254.785" cy="128.193" r="3.204"/>
		<circle clip-path="url(#SVGID_2_)" fill="#FFFFFF" cx="276.34" cy="128.193" r="3.204"/>
		<circle clip-path="url(#SVGID_2_)" fill="#FFFFFF" cx="297.896" cy="128.193" r="3.204"/>
		<circle clip-path="url(#SVGID_2_)" fill="#FFFFFF" cx="201.031" cy="139.104" r="3.204"/>
		<circle clip-path="url(#SVGID_2_)" fill="#FFFFFF" cx="222.586" cy="139.104" r="3.204"/>
		<circle clip-path="url(#SVGID_2_)" fill="#FFFFFF" cx="244.141" cy="139.104" r="3.204"/>
		<circle clip-path="url(#SVGID_2_)" fill="#FFFFFF" cx="265.695" cy="139.104" r="3.204"/>
		<circle clip-path="url(#SVGID_2_)" fill="#FFFFFF" cx="287.25" cy="139.104" r="3.204"/>
		<circle clip-path="url(#SVGID_2_)" fill="#FFFFFF" cx="308.806" cy="139.104" r="3.204"/>
		<circle clip-path="url(#SVGID_2_)" fill="#FFFFFF" cx="190.121" cy="151.537" r="3.204"/>
		<circle clip-path="url(#SVGID_2_)" fill="#FFFFFF" cx="211.676" cy="151.537" r="3.204"/>
		<circle clip-path="url(#SVGID_2_)" fill="#FFFFFF" cx="233.23" cy="151.537" r="3.204"/>
		<circle clip-path="url(#SVGID_2_)" fill="#FFFFFF" cx="254.785" cy="151.537" r="3.204"/>
		<circle clip-path="url(#SVGID_2_)" fill="#FFFFFF" cx="276.34" cy="151.537" r="3.204"/>
		<circle clip-path="url(#SVGID_2_)" fill="#FFFFFF" cx="297.896" cy="151.537" r="3.204"/>
		<circle clip-path="url(#SVGID_2_)" fill="#FFFFFF" cx="201.031" cy="162.447" r="3.204"/>
		<circle clip-path="url(#SVGID_2_)" fill="#FFFFFF" cx="222.586" cy="162.447" r="3.204"/>
		<circle clip-path="url(#SVGID_2_)" fill="#FFFFFF" cx="244.141" cy="162.447" r="3.204"/>
		<circle clip-path="url(#SVGID_2_)" fill="#FFFFFF" cx="265.695" cy="162.447" r="3.204"/>
		<circle clip-path="url(#SVGID_2_)" fill="#FFFFFF" cx="287.25" cy="162.447" r="3.204"/>
		<circle clip-path="url(#SVGID_2_)" fill="#FFFFFF" cx="308.806" cy="162.447" r="3.204"/>
		<circle clip-path="url(#SVGID_2_)" fill="#FFFFFF" cx="190.121" cy="174.881" r="3.204"/>
		<circle clip-path="url(#SVGID_2_)" fill="#FFFFFF" cx="211.676" cy="174.881" r="3.204"/>
		<circle clip-path="url(#SVGID_2_)" fill="#FFFFFF" cx="233.23" cy="174.881" r="3.204"/>
		<circle clip-path="url(#SVGID_2_)" fill="#FFFFFF" cx="254.785" cy="174.881" r="3.204"/>
		<circle clip-path="url(#SVGID_2_)" fill="#FFFFFF" cx="276.34" cy="174.881" r="3.204"/>
		<circle clip-path="url(#SVGID_2_)" fill="#FFFFFF" cx="297.896" cy="174.881" r="3.204"/>
		<circle clip-path="url(#SVGID_2_)" fill="#FFFFFF" cx="201.031" cy="185.792" r="3.204"/>
		<circle clip-path="url(#SVGID_2_)" fill="#FFFFFF" cx="222.586" cy="185.792" r="3.204"/>
		<circle clip-path="url(#SVGID_2_)" fill="#FFFFFF" cx="244.141" cy="185.792" r="3.204"/>
		<circle clip-path="url(#SVGID_2_)" fill="#FFFFFF" cx="265.695" cy="185.792" r="3.204"/>
		<circle clip-path="url(#SVGID_2_)" fill="#FFFFFF" cx="287.25" cy="185.792" r="3.204"/>
		<circle clip-path="url(#SVGID_2_)" fill="#FFFFFF" cx="308.806" cy="185.792" r="3.204"/>
		<circle clip-path="url(#SVGID_2_)" fill="#FFFFFF" cx="190.121" cy="198.226" r="3.204"/>
		<circle clip-path="url(#SVGID_2_)" fill="#FFFFFF" cx="211.676" cy="198.226" r="3.204"/>
		<circle clip-path="url(#SVGID_2_)" fill="#FFFFFF" cx="233.23" cy="198.226" r="3.204"/>
		<circle clip-path="url(#SVGID_2_)" fill="#FFFFFF" cx="254.785" cy="198.226" r="3.204"/>
		<circle clip-path="url(#SVGID_2_)" fill="#FFFFFF" cx="276.34" cy="198.226" r="3.204"/>
		<circle clip-path="url(#SVGID_2_)" fill="#FFFFFF" cx="297.896" cy="198.226" r="3.204"/>
		<circle clip-path="url(#SVGID_2_)" fill="#FFFFFF" cx="201.031" cy="209.136" r="3.204"/>
		<circle clip-path="url(#SVGID_2_)" fill="#FFFFFF" cx="222.586" cy="209.136" r="3.204"/>
		<circle clip-path="url(#SVGID_2_)" fill="#FFFFFF" cx="244.141" cy="209.136" r="3.204"/>
		<circle clip-path="url(#SVGID_2_)" fill="#FFFFFF" cx="265.695" cy="209.136" r="3.204"/>
		<circle clip-path="url(#SVGID_2_)" fill="#FFFFFF" cx="287.25" cy="209.136" r="3.204"/>
		<circle clip-path="url(#SVGID_2_)" fill="#FFFFFF" cx="308.806" cy="209.136" r="3.204"/>
		<circle clip-path="url(#SVGID_2_)" fill="#FFFFFF" cx="190.121" cy="221.569" r="3.204"/>
		<circle clip-path="url(#SVGID_2_)" fill="#FFFFFF" cx="211.676" cy="221.569" r="3.204"/>
		<circle clip-path="url(#SVGID_2_)" fill="#FFFFFF" cx="233.23" cy="221.569" r="3.204"/>
		<circle clip-path="url(#SVGID_2_)" fill="#FFFFFF" cx="254.785" cy="221.569" r="3.204"/>
		<circle clip-path="url(#SVGID_2_)" fill="#FFFFFF" cx="276.34" cy="221.569" r="3.204"/>
		<circle clip-path="url(#SVGID_2_)" fill="#FFFFFF" cx="297.896" cy="221.569" r="3.204"/>
		<circle clip-path="url(#SVGID_2_)" fill="#FFFFFF" cx="201.031" cy="232.479" r="3.204"/>
		<circle clip-path="url(#SVGID_2_)" fill="#FFFFFF" cx="222.586" cy="232.479" r="3.204"/>
		<circle clip-path="url(#SVGID_2_)" fill="#FFFFFF" cx="244.141" cy="232.479" r="3.204"/>
		<circle clip-path="url(#SVGID_2_)" fill="#FFFFFF" cx="265.695" cy="232.479" r="3.204"/>
		<circle clip-path="url(#SVGID_2_)" fill="#FFFFFF" cx="287.25" cy="232.479" r="3.204"/>
		<circle clip-path="url(#SVGID_2_)" fill="#FFFFFF" cx="308.806" cy="232.479" r="3.204"/>
		<circle clip-path="url(#SVGID_2_)" fill="#FFFFFF" cx="60.291" cy="104.85" r="3.204"/>
		<circle clip-path="url(#SVGID_2_)" fill="#FFFFFF" cx="81.846" cy="104.85" r="3.204"/>
		<circle clip-path="url(#SVGID_2_)" fill="#FFFFFF" cx="103.4" cy="104.85" r="3.204"/>
		<circle clip-path="url(#SVGID_2_)" fill="#FFFFFF" cx="124.956" cy="104.85" r="3.204"/>
		<circle clip-path="url(#SVGID_2_)" fill="#FFFFFF" cx="146.511" cy="104.85" r="3.204"/>
		<circle clip-path="url(#SVGID_2_)" fill="#FFFFFF" cx="168.066" cy="104.85" r="3.204"/>
		<circle clip-path="url(#SVGID_2_)" fill="#FFFFFF" cx="71.201" cy="115.76" r="3.204"/>
		<circle clip-path="url(#SVGID_2_)" fill="#FFFFFF" cx="92.756" cy="115.76" r="3.204"/>
		<circle clip-path="url(#SVGID_2_)" fill="#FFFFFF" cx="114.311" cy="115.76" r="3.204"/>
		<circle clip-path="url(#SVGID_2_)" fill="#FFFFFF" cx="135.866" cy="115.76" r="3.204"/>
		<circle clip-path="url(#SVGID_2_)" fill="#FFFFFF" cx="157.421" cy="115.76" r="3.204"/>
		<circle clip-path="url(#SVGID_2_)" fill="#FFFFFF" cx="178.977" cy="115.76" r="3.204"/>
		<circle clip-path="url(#SVGID_2_)" fill="#FFFFFF" cx="60.291" cy="128.193" r="3.204"/>
		<circle clip-path="url(#SVGID_2_)" fill="#FFFFFF" cx="81.846" cy="128.193" r="3.204"/>
		<circle clip-path="url(#SVGID_2_)" fill="#FFFFFF" cx="103.4" cy="128.193" r="3.204"/>
		<circle clip-path="url(#SVGID_2_)" fill="#FFFFFF" cx="124.956" cy="128.193" r="3.204"/>
		<circle clip-path="url(#SVGID_2_)" fill="#FFFFFF" cx="146.511" cy="128.193" r="3.204"/>
		<circle clip-path="url(#SVGID_2_)" fill="#FFFFFF" cx="168.066" cy="128.193" r="3.204"/>
		<circle clip-path="url(#SVGID_2_)" fill="#FFFFFF" cx="71.201" cy="139.104" r="3.204"/>
		<circle clip-path="url(#SVGID_2_)" fill="#FFFFFF" cx="92.756" cy="139.104" r="3.204"/>
		<circle clip-path="url(#SVGID_2_)" fill="#FFFFFF" cx="114.311" cy="139.104" r="3.204"/>
		<circle clip-path="url(#SVGID_2_)" fill="#FFFFFF" cx="135.866" cy="139.104" r="3.204"/>
		<circle clip-path="url(#SVGID_2_)" fill="#FFFFFF" cx="157.421" cy="139.104" r="3.204"/>
		<circle clip-path="url(#SVGID_2_)" fill="#FFFFFF" cx="178.977" cy="139.104" r="3.204"/>
		<circle clip-path="url(#SVGID_2_)" fill="#FFFFFF" cx="60.291" cy="151.537" r="3.204"/>
		<circle clip-path="url(#SVGID_2_)" fill="#FFFFFF" cx="81.846" cy="151.537" r="3.204"/>
		<circle clip-path="url(#SVGID_2_)" fill="#FFFFFF" cx="103.4" cy="151.537" r="3.204"/>
		<circle clip-path="url(#SVGID_2_)" fill="#FFFFFF" cx="124.956" cy="151.537" r="3.204"/>
		<circle clip-path="url(#SVGID_2_)" fill="#FFFFFF" cx="146.511" cy="151.537" r="3.204"/>
		<circle clip-path="url(#SVGID_2_)" fill="#FFFFFF" cx="168.066" cy="151.537" r="3.204"/>
		<circle clip-path="url(#SVGID_2_)" fill="#FFFFFF" cx="71.201" cy="162.447" r="3.204"/>
		<circle clip-path="url(#SVGID_2_)" fill="#FFFFFF" cx="92.756" cy="162.447" r="3.204"/>
		<circle clip-path="url(#SVGID_2_)" fill="#FFFFFF" cx="114.311" cy="162.447" r="3.204"/>
		<circle clip-path="url(#SVGID_2_)" fill="#FFFFFF" cx="135.866" cy="162.447" r="3.204"/>
		<circle clip-path="url(#SVGID_2_)" fill="#FFFFFF" cx="157.421" cy="162.447" r="3.204"/>
		<circle clip-path="url(#SVGID_2_)" fill="#FFFFFF" cx="178.977" cy="162.447" r="3.204"/>
		<circle clip-path="url(#SVGID_2_)" fill="#FFFFFF" cx="60.291" cy="174.881" r="3.204"/>
		<circle clip-path="url(#SVGID_2_)" fill="#FFFFFF" cx="81.846" cy="174.881" r="3.204"/>
		<circle clip-path="url(#SVGID_2_)" fill="#FFFFFF" cx="103.4" cy="174.881" r="3.204"/>
		<circle clip-path="url(#SVGID_2_)" fill="#FFFFFF" cx="124.956" cy="174.881" r="3.204"/>
		<circle clip-path="url(#SVGID_2_)" fill="#FFFFFF" cx="146.511" cy="174.881" r="3.204"/>
		<circle clip-path="url(#SVGID_2_)" fill="#FFFFFF" cx="168.066" cy="174.881" r="3.204"/>
		<circle clip-path="url(#SVGID_2_)" fill="#FFFFFF" cx="71.201" cy="185.792" r="3.204"/>
		<circle clip-path="url(#SVGID_2_)" fill="#FFFFFF" cx="92.756" cy="185.792" r="3.204"/>
		<circle clip-path="url(#SVGID_2_)" fill="#FFFFFF" cx="114.311" cy="185.792" r="3.204"/>
		<circle clip-path="url(#SVGID_2_)" fill="#FFFFFF" cx="135.866" cy="185.792" r="3.204"/>
		<circle clip-path="url(#SVGID_2_)" fill="#FFFFFF" cx="157.421" cy="185.792" r="3.204"/>
		<circle clip-path="url(#SVGID_2_)" fill="#FFFFFF" cx="178.977" cy="185.792" r="3.204"/>
		<circle clip-path="url(#SVGID_2_)" fill="#FFFFFF" cx="60.291" cy="198.226" r="3.204"/>
		<circle clip-path="url(#SVGID_2_)" fill="#FFFFFF" cx="81.846" cy="198.226" r="3.204"/>
		<circle clip-path="url(#SVGID_2_)" fill="#FFFFFF" cx="103.4" cy="198.226" r="3.204"/>
		<circle clip-path="url(#SVGID_2_)" fill="#FFFFFF" cx="124.956" cy="198.226" r="3.204"/>
		<circle clip-path="url(#SVGID_2_)" fill="#FFFFFF" cx="146.511" cy="198.226" r="3.204"/>
		<circle clip-path="url(#SVGID_2_)" fill="#FFFFFF" cx="168.066" cy="198.226" r="3.204"/>
		<circle clip-path="url(#SVGID_2_)" fill="#FFFFFF" cx="71.201" cy="209.136" r="3.204"/>
		<circle clip-path="url(#SVGID_2_)" fill="#FFFFFF" cx="92.756" cy="209.136" r="3.204"/>
		<circle clip-path="url(#SVGID_2_)" fill="#FFFFFF" cx="114.311" cy="209.136" r="3.204"/>
		<circle clip-path="url(#SVGID_2_)" fill="#FFFFFF" cx="135.866" cy="209.136" r="3.204"/>
		<circle clip-path="url(#SVGID_2_)" fill="#FFFFFF" cx="157.421" cy="209.136" r="3.204"/>
		<circle clip-path="url(#SVGID_2_)" fill="#FFFFFF" cx="178.977" cy="209.136" r="3.204"/>
		<circle clip-path="url(#SVGID_2_)" fill="#FFFFFF" cx="60.291" cy="221.569" r="3.204"/>
		<circle clip-path="url(#SVGID_2_)" fill="#FFFFFF" cx="81.846" cy="221.569" r="3.204"/>
		<circle clip-path="url(#SVGID_2_)" fill="#FFFFFF" cx="103.4" cy="221.569" r="3.204"/>
		<circle clip-path="url(#SVGID_2_)" fill="#FFFFFF" cx="124.956" cy="221.569" r="3.204"/>
		<circle clip-path="url(#SVGID_2_)" fill="#FFFFFF" cx="146.511" cy="221.569" r="3.204"/>
		<circle clip-path="url(#SVGID_2_)" fill="#FFFFFF" cx="168.066" cy="221.569" r="3.204"/>
		<circle clip-path="url(#SVGID_2_)" fill="#FFFFFF" cx="71.201" cy="232.479" r="3.204"/>
		<circle clip-path="url(#SVGID_2_)" fill="#FFFFFF" cx="92.756" cy="232.479" r="3.204"/>
		<circle clip-path="url(#SVGID_2_)" fill="#FFFFFF" cx="114.311" cy="232.479" r="3.204"/>
		<circle clip-path="url(#SVGID_2_)" fill="#FFFFFF" cx="135.866" cy="232.479" r="3.204"/>
		<circle clip-path="url(#SVGID_2_)" fill="#FFFFFF" cx="157.421" cy="232.479" r="3.204"/>
		<circle clip-path="url(#SVGID_2_)" fill="#FFFFFF" cx="178.977" cy="232.479" r="3.204"/>
	</g>
</g>
</svg>
