<?xml version="1.0" encoding="utf-8"?>
<!-- Generator: Adobe Illustrator 16.0.0, SVG Export Plug-In . SVG Version: 6.00 Build 0)  -->
<!DOCTYPE svg PUBLIC "-//W3C//DTD SVG 1.1//EN" "http://www.w3.org/Graphics/SVG/1.1/DTD/svg11.dtd">
<svg version="1.1" id="Layer_1" xmlns="http://www.w3.org/2000/svg" xmlns:xlink="http://www.w3.org/1999/xlink" x="0px" y="0px"
	 width="350px" height="350px" viewBox="0 0 350 350" enable-background="new 0 0 350 350" xml:space="preserve">
<path fill="#EEEEEE" d="M265.39,191.028c-0.117,0-0.225,0.033-0.341,0.035c2.154-4.987,3.362-10.479,3.362-16.258
	c0-22.659-18.367-41.027-41.025-41.027c-8.009,0-15.456,2.33-21.771,6.298c-8.543-20.762-28.949-35.391-52.792-35.391
	c-31.526,0-57.083,25.558-57.083,57.084c0,2.382,0.192,4.716,0.476,7.023c-0.16-0.002-0.315-0.024-0.476-0.024
	c-21.138,0-38.274,17.136-38.274,38.274c0,21.138,17.136,38.271,38.274,38.271H265.39c14.991,0,27.144-12.15,27.144-27.142
	S280.381,191.028,265.39,191.028z"/>
</svg>
