<?xml version="1.0" encoding="utf-8"?>
<!-- Generator: Adobe Illustrator 16.0.0, SVG Export Plug-In . SVG Version: 6.00 Build 0)  -->
<!DOCTYPE svg PUBLIC "-//W3C//DTD SVG 1.1//EN" "http://www.w3.org/Graphics/SVG/1.1/DTD/svg11.dtd">
<svg version="1.1" id="Layer_1" xmlns="http://www.w3.org/2000/svg" xmlns:xlink="http://www.w3.org/1999/xlink" x="0px" y="0px"
	 width="350px" height="350px" viewBox="0 0 350 350" enable-background="new 0 0 350 350" xml:space="preserve">
<g>
	
		<radialGradient id="SVGID_1_" cx="-10.1924" cy="391.0938" r="62.8234" gradientTransform="matrix(1.0566 0.0332 -0.0194 0.6177 215.8257 27.1885)" gradientUnits="userSpaceOnUse">
		<stop  offset="0" style="stop-color:#808080"/>
		<stop  offset="0.227" style="stop-color:#949494;stop-opacity:0.773"/>
		<stop  offset="0.7363" style="stop-color:#BCBCBC;stop-opacity:0.2637"/>
		<stop  offset="1" style="stop-color:#CCCBCB;stop-opacity:0"/>
	</radialGradient>
	<path opacity="0.8" fill="url(#SVGID_1_)" d="M196.07,312.956c-37.506-1.178-67.284-22.071-66.512-46.67
		c0.773-24.592,31.804-43.576,69.309-42.398c37.508,1.178,67.289,22.073,66.516,46.665
		C264.61,295.15,233.579,314.135,196.07,312.956"/>
	<g>
		
			<radialGradient id="SVGID_2_" cx="134.9092" cy="288.4473" r="111.7393" gradientTransform="matrix(0.9995 0.0314 -0.0314 0.9995 3.6514 -86.2197)" gradientUnits="userSpaceOnUse">
			<stop  offset="0" style="stop-color:#FFFFFF"/>
			<stop  offset="0.3206" style="stop-color:#FCFCFC"/>
			<stop  offset="0.5923" style="stop-color:#F1F2F2"/>
			<stop  offset="0.8452" style="stop-color:#E0E1E2"/>
			<stop  offset="1" style="stop-color:#D1D3D4"/>
		</radialGradient>
		<path fill="url(#SVGID_2_)" d="M193.291,287.961c-1.88-0.059-3.837-0.27-5.82-0.626c-17.708-3.184-22.737-10.655-24.159-14.882
			c-3.083,3.311-9.906,9.057-19.892,8.743c-1.466-0.047-2.967-0.228-4.459-0.536c-13.293-2.759-16.035-12.818-16.6-16.79
			c-1.923,0.383-5.49,0.926-9.743,0.793c-8.125-0.254-19.074-3.026-25.079-14.783c-4.396-8.606-3.829-18.784,1.52-27.221
			c4.528-7.145,11.713-11.444,18.749-11.224c0.703,0.022,1.407,0.089,2.104,0.199c1.188-3.436,5.551-12.76,17.768-12.376
			c1.715,0.054,3.537,0.3,5.431,0.735c1.208-5.485,7.129-24.459,31.109-24.479c0.583,0,1.159,0.009,1.724,0.026
			c19.824,0.623,27.055,12.377,28.942,16.36c2.336-0.864,7.646-2.514,13.798-2.32c6.666,0.21,12.307,2.497,16.769,6.804
			c9.9,9.555,9.78,18.803,9.15,22.695c0.891-0.05,2.059-0.081,3.424-0.038c5.935,0.187,16.862,1.878,23.348,11.113
			c4.613,6.573,4.693,15.815,0.209,24.122c-3.997,7.405-10.653,11.93-17.448,11.895c-1.38,2.154-6.081,8.122-15.667,7.82
			c-2.506-0.078-5.177-0.594-7.955-1.535C218.456,276.292,210.54,288.503,193.291,287.961z"/>
		
			<radialGradient id="SVGID_3_" cx="197.2813" cy="329.9131" r="109.8376" gradientTransform="matrix(0.9995 0.0314 -0.0314 0.9995 3.6514 -86.2197)" gradientUnits="userSpaceOnUse">
			<stop  offset="0" style="stop-color:#FFFFFF"/>
			<stop  offset="0.629" style="stop-color:#E6E7E8"/>
			<stop  offset="0.8322" style="stop-color:#D7D9DA"/>
			<stop  offset="1" style="stop-color:#D1D3D4"/>
		</radialGradient>
		<path fill="url(#SVGID_3_)" d="M134.151,201.624c0,0,3.025-24.761,30.068-24.784c24.542-0.02,29.953,16.773,29.953,16.773
			s18.066-8.14,30.359,3.725c12.295,11.864,8.375,23.22,8.375,23.22s18.29-2.591,27.382,10.36
			c9.092,12.952-2.279,34.76-16.897,33.904c0,0-6.329,12.469-23.542,5.99c0,0-8.134,19.535-32.143,15.219
			c-24.009-4.315-23.624-16.575-23.624-16.575s-9.122,13.173-24.852,9.907c-15.729-3.265-15.693-17.118-15.693-17.118
			s-24.751,6.744-34.819-12.967c-9.29-18.188,6.396-39.776,22.112-36.117C110.831,213.161,114.529,196.257,134.151,201.624z"/>
	</g>
	<g>
		<radialGradient id="SVGID_4_" cx="163.5796" cy="215.9316" r="25.5508" gradientUnits="userSpaceOnUse">
			<stop  offset="0" style="stop-color:#00A79D"/>
			<stop  offset="1" style="stop-color:#2B3990"/>
		</radialGradient>
		<circle fill="url(#SVGID_4_)" cx="162.423" cy="193.991" r="8.54"/>
		<g opacity="0.4">
			<radialGradient id="SVGID_5_" cx="162.3486" cy="199.1621" r="12.8768" gradientUnits="userSpaceOnUse">
				<stop  offset="0" style="stop-color:#00A79D"/>
				<stop  offset="1" style="stop-color:#2B3990"/>
			</radialGradient>
			<path fill="url(#SVGID_5_)" d="M157.423,193.991c0-4.11,2.903-7.539,6.77-8.354c-0.57-0.12-1.162-0.187-1.77-0.187
				c-4.716,0-8.54,3.824-8.54,8.541c0,4.716,3.824,8.539,8.54,8.539c0.607,0,1.199-0.065,1.77-0.186
				C160.326,201.529,157.423,198.1,157.423,193.991z"/>
		</g>
	</g>
	<path fill="#D1D3D4" d="M162.925,185.536c0,0.521-0.422,0.943-0.942,0.943l0,0c-0.521,0-0.944-0.423-0.944-0.943v-10.339
		c0-0.521,0.422-0.943,0.944-0.943l0,0c0.52,0,0.942,0.422,0.942,0.943V185.536z"/>
	<path fill="#D1D3D4" d="M173.649,163.528c-5.232,0.177-8.583,3.71-10.477,6.654V36.992h-2.033v136.426
		c-2.836,0.195-5.976-0.092-9.304-1.114c-0.538-0.166-1.105,0.137-1.271,0.674c-0.164,0.537,0.138,1.105,0.673,1.27
		c2.866,0.879,5.61,1.249,8.168,1.249c0.798,0,1.578-0.036,2.337-0.104c0.077,0.034,0.16,0.059,0.246,0.074
		c0.278,0.047,0.553-0.026,0.768-0.184c6.188-0.796,10.917-3.669,13.056-6.155c1.322-1.536,1.754-2.999,1.217-4.121
		C176.687,164.291,175.818,163.454,173.649,163.528z M174.272,167.801c-1.753,2.037-5.471,4.354-10.397,5.271
		c1.323-2.62,4.445-7.329,9.843-7.513c0.066-0.002,0.131-0.003,0.192-0.003c0.823,0,1.22,0.191,1.286,0.33
		C175.297,166.095,175.135,166.8,174.272,167.801z"/>
</g>
</svg>
