<?xml version="1.0" encoding="utf-8"?>
<!-- Generator: Adobe Illustrator 16.0.0, SVG Export Plug-In . SVG Version: 6.00 Build 0)  -->
<!DOCTYPE svg PUBLIC "-//W3C//DTD SVG 1.1//EN" "http://www.w3.org/Graphics/SVG/1.1/DTD/svg11.dtd">
<svg version="1.1" id="Layer_1" xmlns="http://www.w3.org/2000/svg" xmlns:xlink="http://www.w3.org/1999/xlink" x="0px" y="0px"
	 width="350px" height="350px" viewBox="0 0 350 350" enable-background="new 0 0 350 350" xml:space="preserve">
<g>
	<path fill="#A9D2FF" d="M258.425,137.646c-0.108,0-0.206,0.03-0.314,0.031c1.989-4.603,3.104-9.672,3.104-15.006
		c0-20.913-16.953-37.866-37.866-37.866c-7.392,0-14.266,2.151-20.094,5.813c-7.883-19.162-26.718-32.664-48.723-32.664
		c-29.099,0-52.686,23.588-52.686,52.686c0,2.199,0.177,4.353,0.439,6.482c-0.148-0.002-0.291-0.022-0.439-0.022
		c-19.509,0-35.325,15.815-35.325,35.325c0,19.509,15.815,35.325,35.325,35.325h156.579c13.838,0,25.054-11.217,25.054-25.052
		C283.479,148.862,272.263,137.646,258.425,137.646z"/>
	<path fill="#A9D2FF" d="M134.272,222.19c0,4.272-3.462,7.735-7.733,7.735s-7.733-3.463-7.733-7.735
		c0-4.269,3.463-7.731,7.733-7.731S134.272,217.922,134.272,222.19z"/>
	<path fill="#A9D2FF" d="M182.732,222.19c0,4.272-3.462,7.735-7.732,7.735c-4.272,0-7.733-3.463-7.733-7.735
		c0-4.269,3.461-7.731,7.733-7.731C179.271,214.459,182.732,217.922,182.732,222.19z"/>
	<circle fill="#A9D2FF" cx="175" cy="284.314" r="7.733"/>
	<circle fill="#A9D2FF" cx="149.223" cy="252.608" r="7.732"/>
	<circle fill="#A9D2FF" cx="201.292" cy="252.608" r="7.733"/>
	<path fill="#A9D2FF" d="M231.193,222.19c0,4.272-3.463,7.735-7.733,7.735s-7.733-3.463-7.733-7.735
		c0-4.269,3.463-7.731,7.733-7.731S231.193,217.922,231.193,222.19z"/>
</g>
</svg>
