<?xml version="1.0" encoding="utf-8"?>
<!-- Generator: Adobe Illustrator 16.0.0, SVG Export Plug-In . SVG Version: 6.00 Build 0)  -->
<!DOCTYPE svg PUBLIC "-//W3C//DTD SVG 1.1//EN" "http://www.w3.org/Graphics/SVG/1.1/DTD/svg11.dtd">
<svg version="1.1" id="Layer_1" xmlns="http://www.w3.org/2000/svg" xmlns:xlink="http://www.w3.org/1999/xlink" x="0px" y="0px"
	 width="350px" height="350px" viewBox="0 0 350 350" enable-background="new 0 0 350 350" xml:space="preserve">
<g>
	<g>
		<path fill="#B2795C" d="M185.397,267.144c0.568-0.022,1.141-0.068,1.718-0.145C186.541,267.074,185.97,267.098,185.397,267.144z"
			/>
		<path fill="#774634" d="M195.299,226.498c-8.34,1.091-16.076-1.583-22.259-8.121c-0.33,1.466-0.666,2.931-1.011,4.394
			C179.26,227.138,187.36,229.408,195.299,226.498z"/>
		<path fill="#774634" d="M191.511,176.947c-4.479,1.642-8.598,1.028-12.675-0.767c-0.025,0.965-0.06,1.93-0.102,2.896
			C183.017,179.974,187.414,179.627,191.511,176.947z"/>
		<path fill="#B2795C" d="M180.513,128.785c-1.128,0.759-2.183,2.525-3.087,5.71c-2.039,7.179,0.325,14.795,0.908,22.119
			c0.521,6.515,0.681,13.052,0.502,19.567c4.077,1.795,8.196,2.408,12.675,0.767c-4.097,2.68-8.494,3.026-12.776,2.129
			c-0.163,3.748-0.432,7.486-0.827,11.206c-1.012,9.502-2.782,18.845-4.868,28.095c6.183,6.538,13.919,9.212,22.259,8.121
			c-7.938,2.91-16.039,0.64-23.271-3.728c-0.66,2.798-1.337,5.592-2.033,8.376c-2.146,8.603-4.42,17.16-6.791,25.682
			c6.438,5.396,13.84,10.644,22.192,10.315c0.572-0.046,1.144-0.069,1.718-0.145c-0.574,0.075-1.146,0.099-1.718,0.145
			c-8.165,0.668-16.165-1.476-23.551-5.47c-1.295,4.568-2.611,9.129-3.969,13.672c2.232,10.543,11.976,16.029,20.755,18.891
			c6.597-11.32,11.579-23.869,15.018-37.083c-3.577-1.633-6.966-3.745-10.009-6.381c3.593,1.443,7.154,2.599,10.762,3.391
			c4.339-18.017,5.826-37.188,4.553-56.148c-4.519-0.629-9.052-2.441-13.449-5.116c3.827,0.35,8.672,1.996,13.22,2.17
			C196.801,171.688,190.68,148.737,180.513,128.785z"/>
		<path fill="#774634" d="M185.507,192.898c4.397,2.675,8.931,4.487,13.449,5.116c-0.066-0.982-0.147-1.964-0.229-2.946
			C194.179,194.895,189.334,193.248,185.507,192.898z"/>
		<path fill="#774634" d="M163.205,256.828c-0.45,1.616-0.901,3.232-1.359,4.846c7.904,4.274,16.507,6.473,25.269,5.325
			C178.055,268.185,170.079,262.59,163.205,256.828z"/>
		<path fill="#774634" d="M183.642,250.772c3.043,2.636,6.432,4.748,10.009,6.381c0.259-0.993,0.512-1.989,0.753-2.99
			C190.796,253.371,187.234,252.216,183.642,250.772z"/>
		<path fill="#8F5D47" d="M193.65,257.153c-3.438,13.214-8.421,25.763-15.018,37.083c0.918,0.299,1.826,0.572,2.714,0.816
			c0.486,0.146,0.976,0.274,1.464,0.414c0.447,0.068,0.895,0.137,1.342,0.205c2.394,0.365,4.897,0.72,7.136-0.195
			c2.223-0.909,3.89-2.958,5.271-5.095c5.521-8.535,7.689-19.087,8.771-29.793C201.319,260.011,197.381,258.855,193.65,257.153z"/>
		<path fill="#8F5D47" d="M191.46,141.097c-2.615-6.029-7.19-14.838-10.947-12.312c10.167,19.952,16.288,42.903,18.214,66.283
			c2.219,0.086,4.359-0.202,6.285-1.14C202.889,175.664,198.707,157.798,191.46,141.097z"/>
		<path fill="#774634" d="M205.457,198.052c-0.136-1.376-0.285-2.75-0.445-4.123c-1.926,0.938-4.066,1.226-6.285,1.14
			c0.082,0.982,0.163,1.964,0.229,2.946C201.133,198.317,203.305,198.341,205.457,198.052z"/>
		<path fill="#8F5D47" d="M198.956,198.015c1.273,18.96-0.214,38.132-4.553,56.148c3.713,0.815,7.479,1.226,11.389,1.084
			c0.089-1.224,0.173-2.447,0.246-3.665c1.077-17.701,1.182-35.776-0.581-53.53C203.305,198.341,201.133,198.317,198.956,198.015z"
			/>
		<path fill="#774634" d="M194.403,254.163c-0.241,1.001-0.494,1.997-0.753,2.99c3.73,1.702,7.669,2.857,11.68,3.436
			c0.181-1.779,0.332-3.563,0.462-5.342C201.883,255.389,198.116,254.979,194.403,254.163z"/>
	</g>
	<path fill="#7DA63F" d="M174.946,114.884c-3.104-7.944-6.207-15.888-9.311-23.832c-1.234-3.159-2.473-6.331-3.246-9.634
		c-1.079-4.602-1.292-9.55-3.718-13.607c1.771,2.817,3.543,5.635,5.315,8.452c-1.007-5.363-1.495-10.822-1.456-16.278
		c1.519,3.196,3.037,6.392,4.555,9.588c-1.19-4.122-0.693-8.704,1.352-12.475c2.755,11.433,4.643,23.073,5.641,34.79
		c0.003-4.341,0.68-8.68,1.998-12.814c1.478,13.46,1.994,27.025,1.544,40.559L174.946,114.884z"/>
	<g>
		<path fill="#7DA63F" d="M193.544,66.415c-23.619,16.626-18.216,47.861-7.143,70.719c2.332-4.121,2.423-9.434,2.795-14.306
			c0.597-7.825,2.359-15.56,5.212-22.871c-2.268,0.604-4.535,1.208-6.801,1.812c4.291-7.56,9.76-14.45,16.148-20.345
			c-2.263-1.607-4.833-2.78-7.529-3.435c10.149-4.669,21.176-7.422,32.329-8.073c-1.558-2.893-3.656-5.493-6.157-7.625
			c7.336-0.119,14.693,1.218,21.52,3.91c-5.366-9.431-17.405-13.004-28.295-12.131C207.81,57.053,200.355,61.248,193.544,66.415z"/>
		<path fill="#9AC03C" d="M174.819,88.655c-3.23,15.979,3.463,32.136,10.331,46.921l-0.397,3.844
			c0.653-0.706,1.19-1.475,1.648-2.286c-11.074-22.857-16.477-54.093,7.143-70.719c6.812-5.167,14.266-9.362,22.079-12.344
			c-0.453,0.036-0.906,0.067-1.354,0.119C195.725,56.326,178.52,70.358,174.819,88.655z"/>
	</g>
	<path fill="#9AC03C" d="M161.965,99.494c-37.492-23.307-73.089,12.028-90.023,46.854c-0.199,0.71-0.4,1.422-0.596,2.129
		c6.174-5.025,12.347-10.051,18.52-15.077c-1.841,2.695-2.95,5.887-3.172,9.145c14.138-10.131,27.674-21.104,40.514-32.837
		c-1.34,6.763-4.585,13.138-9.266,18.201c13.121-3.182,27.791-7.532,33.99-19.525c-0.122,3.606-0.244,7.213-0.366,10.819
		c13.465,3.343,26.209,9.558,37.136,18.107c-2.433-7.272-6.18-15.328-10.288-22.791C173.651,108.55,168.019,103.43,161.965,99.494z"
		/>
	<g>
		<path fill="#83A845" d="M189.563,145.753c-0.446,2.629-2.117,4.936-4.207,6.591c-2.089,1.656-4.579,2.724-7.096,3.604
			c-1.213,0.422-2.549,0.806-3.754,0.365c-1.488-0.545-2.269-2.137-2.903-3.588c-1.123-2.563-2.271-5.337-1.69-8.075
			c0.544-2.567,2.572-4.628,4.915-5.81c2.027-1.023,4.248-1.442,6.474-1.77C186.085,136.37,190.354,141.094,189.563,145.753z"/>
		<path fill="#9ABC5C" d="M171.987,141.917c1.64-2.245,4.233-3.761,6.981-4.153c2.4-0.341,5.794,1.5,5.359,4.483
			c-0.218,1.495-0.964,2.869-1.88,4.072c-1.799,2.365-4.542,4.253-7.51,4.126c-0.557-0.023-1.118-0.12-1.617-0.369
			c-0.924-0.462-1.532-1.409-1.821-2.401c-0.289-0.993-0.3-2.042-0.309-3.076c-0.004-0.475-0.007-0.958,0.122-1.416
			C171.443,142.72,171.703,142.305,171.987,141.917z"/>
	</g>
	<g>
		<path fill="#83A845" d="M200.79,142.187c0.85,2.527,0.471,5.35-0.587,7.797c-1.057,2.447-2.745,4.568-4.547,6.532
			c-0.867,0.946-1.863,1.917-3.135,2.099c-1.567,0.225-3.009-0.809-4.255-1.787c-2.201-1.726-4.525-3.628-5.31-6.313
			c-0.735-2.519,0.076-5.295,1.58-7.444c1.302-1.861,3.06-3.281,4.865-4.623C193.285,135.566,199.282,137.707,200.79,142.187z"/>
		<path fill="#9ABC5C" d="M183.491,147.125c0.383-2.754,1.949-5.317,4.185-6.961c1.954-1.438,5.814-1.422,6.843,1.412
			c0.516,1.421,0.51,2.984,0.271,4.477c-0.466,2.934-1.99,5.896-4.664,7.188c-0.502,0.243-1.042,0.424-1.6,0.44
			c-1.032,0.03-2.016-0.516-2.74-1.254c-0.725-0.737-1.23-1.657-1.729-2.564c-0.228-0.417-0.459-0.841-0.562-1.304
			C183.393,148.089,183.425,147.6,183.491,147.125z"/>
	</g>
	<path fill="#7DA63F" d="M143.847,82.389c-9.756-2.064-19.967,0.243-29.178,4.064c-5.774,2.395-11.332,5.406-16.17,9.365
		c-14.975,12.254-21.319,31.808-26.557,50.53c16.934-34.825,52.531-70.16,90.023-46.854c6.054,3.936,11.686,9.056,16.448,15.025
		c-2.23-4.053-4.565-7.933-6.857-11.411C165.045,93.228,155.424,84.838,143.847,82.389z"/>
	<g>
		<path fill="#9AC03C" d="M134.778,136.22c-28.104,21.717-33.007,56.857-22.896,89.101c0.297,0.795,0.595,1.589,0.895,2.382
			c3.893-11.79,5.69-24.27,5.285-36.68c2.072,4.225,4.145,8.448,6.218,12.672c3.495-9.327,10.31-16.953,15.7-25.33
			c5.389-8.376,9.487-18.629,6.628-28.17c2.391,4.517,4.203,9.339,5.376,14.314c6.123-5.373,10.678-12.287,16.347-18.137
			c5.67-5.85,12.668-8.287,20.809-7.98c-0.394-0.511-0.813-1-1.227-1.494C171.321,126.542,150.281,124.164,134.778,136.22z"/>
		<path fill="#7DA63F" d="M150.343,119.467c-14.909,0.089-29.603,7.474-38.568,19.385c-4.461,5.926-7.437,12.755-9.198,19.954
			c1.753-1.65,3.257-3.8,6.352-2.768c-3.316,2.412-5.742,5.301-7.489,8.495c-0.938,6.079-1.095,12.318-0.58,18.422
			c1.228,14.589,5.894,28.634,11.023,42.365c-10.112-32.243-5.208-67.383,22.896-89.101c15.503-12.056,36.543-9.678,53.136,0.677
			C178.741,125.989,164.607,119.382,150.343,119.467z"/>
	</g>
	<g>
		<path fill="#7DA63F" d="M212.815,103.091c27.135-5.907,50.642,8.827,64.862,31.094c0.326,0.578,0.652,1.155,0.977,1.733
			c-9.018-3.598-17.394-8.796-24.619-15.28c1.486,3.365,2.974,6.73,4.46,10.096c-7.342-2.598-15.335-2.352-23.061-3.337
			s-15.926-3.688-20.2-10.196c1.502,3.702,3.479,7.213,5.867,10.417c-6.296,0.964-12.728,0.215-19.08,0.668
			c-6.353,0.454-11.332,3.417-15.241,8.446c-0.107-0.492-0.19-0.989-0.277-1.484C188.646,120.105,197.802,106.31,212.815,103.091z"
			/>
		<path fill="#9AC03C" d="M194.958,103.986c7.55-8.881,19.36-13.966,31.001-13.345c5.791,0.309,11.376,1.961,16.573,4.527
			c-1.87,0.219-3.913,0.04-4.852,2.411c3.11-0.772,6.061-0.772,8.852-0.213c4.111,2.496,7.926,5.539,11.322,8.917
			c8.118,8.07,14.181,17.928,19.823,27.903c-14.221-22.267-37.728-37.001-64.862-31.094c-15.014,3.219-24.17,17.014-26.313,32.156
			C184.584,124.269,187.734,112.484,194.958,103.986z"/>
	</g>
	<g>
		<path fill="#7DA63F" d="M226.675,134.761c-7.879-9.192-27.362-5.484-40.724,3.52l0.205,1.036
			c7.012,2.078,13.435,6.105,18.358,11.513c2.175-3.726,5.294-6.895,8.985-9.127c-2.546,4.817-1.62,10.723,0.101,15.892
			c1.722,5.169,4.19,10.196,4.599,15.629c1.98-3.988,5.155-7.374,9.009-9.607c-2.395,4.296-4.857,8.858-4.75,13.775
			c0.046,2.057,0.546,4.071,1.042,6.067c1.594,6.403,3.188,12.807,4.782,19.21c1.405-2.329,3.4-4.3,5.748-5.676
			c-1.395,11.771-1.761,23.664-1.091,35.498c0.731-1.204,1.434-2.428,2.151-3.641C246.841,194.979,253.494,160.687,226.675,134.761z
			"/>
		<path fill="#9AC03C" d="M258.134,157.609c-1.931-7.063-6.013-13.338-10.437-19.173c-3.921-5.172-8.24-10.178-13.701-13.685
			c-7.891-5.066-17.958-6.603-27-4.12c-9.042,2.485-16.913,8.948-21.107,17.335l0.063,0.314c13.361-9.003,32.845-12.712,40.724-3.52
			c26.819,25.926,20.166,60.218,8.416,94.088c5.271-8.907,10.18-18.029,14.657-27.359
			C256.337,187.762,262.151,172.297,258.134,157.609z"/>
	</g>
</g>
</svg>
