<?xml version="1.0" encoding="utf-8"?>
<!-- Generator: Adobe Illustrator 16.0.0, SVG Export Plug-In . SVG Version: 6.00 Build 0)  -->
<!DOCTYPE svg PUBLIC "-//W3C//DTD SVG 1.1//EN" "http://www.w3.org/Graphics/SVG/1.1/DTD/svg11.dtd">
<svg version="1.1" id="Capa_1" xmlns="http://www.w3.org/2000/svg" xmlns:xlink="http://www.w3.org/1999/xlink" x="0px" y="0px"
	 width="350px" height="350px" viewBox="0 0 350 350" enable-background="new 0 0 350 350" xml:space="preserve">
<g id="XMLID_19_">
	<path id="XMLID_122_" fill="#D1D4D2" d="M282.127,272.881l-12.035-16.047c-0.064-0.085-0.152-0.132-0.221-0.208
		c-0.141-0.161-0.293-0.293-0.457-0.43c-0.137-0.101-0.269-0.196-0.413-0.277c-0.276-0.176-0.55-0.333-0.862-0.437
		c-0.008-0.004-0.017-0.013-0.024-0.013c-0.052-0.02-0.1-0.008-0.152-0.023c-0.008,0-0.017,0-0.024-0.004
		c-0.345-0.097-0.682-0.214-1.055-0.214h-20.058c-2.218,0-4.012,1.798-4.012,4.013s1.794,4.012,4.012,4.012h14.032
		c-5.15,11.982-13.462,24.068-26.066,24.068c-8.657,0-17.213-7.75-24.098-21.818c-0.975-1.989-3.373-2.809-5.367-1.842
		c-1.989,0.971-2.812,3.374-1.841,5.368c10.643,21.75,22.897,26.314,31.306,26.314c9.704,0,22.934-5.122,33.063-28.124l7.854,10.475
		c0.79,1.05,1.989,1.604,3.213,1.604c0.839,0,1.682-0.261,2.403-0.802C283.097,277.168,283.458,274.653,282.127,272.881"/>
	<path id="XMLID_121_" fill="#D1D4D2" d="M111.198,54.656c-9.704,0-22.934,5.127-33.063,28.125l-7.859-10.474
		c-1.328-1.769-3.835-2.134-5.616-0.802c-1.773,1.328-2.13,3.843-0.802,5.616l12.034,16.046c0.052,0.068,0.132,0.092,0.188,0.156
		c0.277,0.325,0.606,0.578,0.971,0.802c0.136,0.084,0.245,0.197,0.389,0.261c0.132,0.06,0.273,0.084,0.414,0.132
		c0.008,0.008,0.016,0.012,0.024,0.012c0.121,0.044,0.241,0.032,0.361,0.064c0.285,0.068,0.558,0.176,0.867,0.176h0.124
		c0.008,0,0.008,0,0.008,0c0.008,0,0.012,0,0.016,0h19.909c2.214,0,4.012-1.797,4.012-4.011c0-2.214-1.797-4.012-4.012-4.012H85.135
		c5.146-11.982,13.458-24.069,26.063-24.069c8.657,0,17.213,7.75,24.097,21.818c0.975,1.99,3.374,2.816,5.368,1.841
		c1.989-0.971,2.812-3.374,1.841-5.363C131.861,59.221,119.602,54.656,111.198,54.656"/>
	<path id="XMLID_120_" fill="#FCC62D" d="M291.333,158.954c0,31.017-52.085,56.161-116.333,56.161
		c-64.248,0-116.333-25.145-116.333-56.161S110.752,102.793,175,102.793C239.248,102.793,291.333,127.938,291.333,158.954"/>
	<path id="XMLID_119_" fill="#FFD949" d="M175,199.068c-61.219,0-100.287-23.759-100.287-40.114
		c0-16.354,39.068-44.126,100.287-44.126s100.287,27.771,100.287,44.126C275.287,175.309,236.219,199.068,175,199.068"/>
	<path id="XMLID_118_" fill="#F0C41B" d="M209.262,161.814c4-0.846,6.347-3.313,5.48-6.125l-0.923-3.005
		c-0.683-2.206-3.321-4.052-6.555-4.966c-4.394-9.399-15.608-12.801-32.265-12.801c-0.79,0-1.564,0.016-2.323,0.048
		c-5.684,0.237-11.356-0.317-15.781-1.933c-1.801-0.658-3.27-1.348-4.24-2.066c-0.441-0.321-1.5-0.116-1.5,0.293
		c0,0.714,0.052,1.56,0.208,2.495c0.606,3.639-0.116,3.093-3.714,6.723c-2.09,2.11-3.75,4.553-4.954,7.249
		c-3.217,0.918-5.841,2.76-6.515,4.958l-0.927,3.005c-0.862,2.816,1.48,5.283,5.48,6.125c1.143,7.189,6.029,13.519,16.696,16.997
		l-0.586,5.059c-0.153,1.352-1.324,2.604-3.021,3.214l-21.506,7.762c12.56,2.635,26.877,4.224,42.682,4.224
		c15.58,0,29.717-1.544,42.148-4.106l-21.036-7.867c-1.665-0.622-2.804-1.861-2.956-3.189l-0.586-5.095
		C203.232,175.333,208.119,169.003,209.262,161.814"/>
	<path id="XMLID_117_" fill="#E4AF18" d="M175,215.115c-64.248,0-116.333-25.145-116.333-56.161v36.103
		c0,31.018,52.085,56.162,116.333,56.162c64.248,0,116.333-25.145,116.333-56.162v-36.103
		C291.333,189.971,239.248,215.115,175,215.115"/>
	<path id="XMLID_116_" fill="#CE9912" d="M70.702,183.834v36.103c2.371,2.311,5.042,4.533,8.022,6.651v-36.104
		C75.744,188.366,73.073,186.144,70.702,183.834"/>
	<path id="XMLID_115_" fill="#CE9912" d="M271.275,190.48v36.103c2.98-2.113,5.652-4.34,8.023-6.65V183.83
		C276.928,186.144,274.256,188.366,271.275,190.48"/>
	<path id="XMLID_114_" fill="#CE9912" d="M86.748,195.523v36.103c2.536,1.424,5.211,2.784,8.023,4.079v-36.104
		C91.958,198.307,89.283,196.946,86.748,195.523"/>
	<path id="XMLID_113_" fill="#CE9912" d="M255.229,199.602v36.104c2.813-1.295,5.487-2.655,8.023-4.079v-36.103
		C260.717,196.946,258.042,198.307,255.229,199.602"/>
	<path id="XMLID_112_" fill="#CE9912" d="M102.793,202.972v36.104c2.592,0.991,5.259,1.934,8.023,2.82v-36.103
		C108.053,204.905,105.385,203.963,102.793,202.972"/>
	<path id="XMLID_111_" fill="#CE9912" d="M239.184,205.788v36.104c2.764-0.883,5.432-1.829,8.023-2.82v-36.104
		C244.615,203.963,241.947,204.905,239.184,205.788"/>
	<path id="XMLID_110_" fill="#CE9912" d="M118.839,208.139v36.104c2.612,0.698,5.291,1.34,8.023,1.938v-36.104
		C124.13,209.482,121.451,208.841,118.839,208.139"/>
	<path id="XMLID_109_" fill="#CE9912" d="M223.138,210.076v36.104c2.732-0.594,5.411-1.239,8.022-1.934v-36.104
		C228.549,208.837,225.87,209.482,223.138,210.076"/>
	<path id="XMLID_108_" fill="#CE9912" d="M138.897,212.343v36.104c2.635,0.417,5.307,0.79,8.022,1.114v-36.103
		C144.204,213.133,141.532,212.76,138.897,212.343"/>
	<path id="XMLID_107_" fill="#CE9912" d="M203.081,213.458v36.103c2.716-0.324,5.387-0.697,8.022-1.114v-36.104
		C208.468,212.76,205.797,213.133,203.081,213.458"/>
	<path id="XMLID_106_" fill="#CE9912" d="M158.954,214.569v36.104c2.647,0.176,5.323,0.309,8.023,0.396v-36.104
		C164.277,214.878,161.602,214.746,158.954,214.569"/>
	<path id="XMLID_105_" fill="#CE9912" d="M183.022,214.966v36.104c2.7-0.084,5.376-0.221,8.024-0.396v-36.104
		C188.398,214.746,185.723,214.878,183.022,214.966"/>
</g>
</svg>
