<?xml version="1.0" encoding="utf-8"?>
<!-- Generator: Adobe Illustrator 16.0.0, SVG Export Plug-In . SVG Version: 6.00 Build 0)  -->
<!DOCTYPE svg PUBLIC "-//W3C//DTD SVG 1.1//EN" "http://www.w3.org/Graphics/SVG/1.1/DTD/svg11.dtd">
<svg version="1.1" id="Capa_1" xmlns="http://www.w3.org/2000/svg" xmlns:xlink="http://www.w3.org/1999/xlink" x="0px" y="0px"
	 width="350px" height="350px" viewBox="0 0 350 350" enable-background="new 0 0 350 350" xml:space="preserve">
<g id="XMLID_94_">
	<path id="XMLID_93_" fill="#F5CF78" d="M188.392,299.987c-60.4,0-109.364-55.958-109.364-124.987
		c0-69.029,48.963-124.987,109.364-124.987c60.399,0,109.364,55.958,109.364,124.987
		C297.756,244.029,248.791,299.987,188.392,299.987"/>
	<path id="XMLID_133_" fill="#DBB765" d="M79.028,175c0-63.842,41.893-116.471,95.972-124.019
		c-4.393-0.616-8.856-0.969-13.392-0.969c-60.4,0-109.364,55.958-109.364,124.987c0,69.029,48.964,124.987,109.364,124.987
		c4.536,0,8.999-0.353,13.392-0.964C120.921,291.471,79.028,238.842,79.028,175"/>
	<path id="XMLID_132_" fill="#C49A44" d="M79.023,179.468H52.249c0.085,3.005,0.259,5.981,0.531,8.928h26.796
		C79.295,185.454,79.112,182.477,79.023,179.468"/>
	<path id="XMLID_131_" fill="#C49A44" d="M80.041,157.149H53.276c-0.371,2.941-0.634,5.923-0.826,8.927h26.783
		C79.42,163.077,79.675,160.095,80.041,157.149"/>
	<path id="XMLID_130_" fill="#C49A44" d="M81.478,201.787H54.69c0.581,3.018,1.25,5.995,2.014,8.928h26.778
		C82.719,207.787,82.054,204.81,81.478,201.787"/>
	<path id="XMLID_129_" fill="#C49A44" d="M87.723,224.106H60.922c1.138,3.044,2.397,6.013,3.736,8.928H91.45
		C90.107,230.128,88.861,227.15,87.723,224.106"/>
	<path id="XMLID_128_" fill="#C49A44" d="M84.706,134.83H57.949c-0.866,2.933-1.678,5.901-2.357,8.928h26.814
		C83.081,140.745,83.839,137.758,84.706,134.83"/>
	<path id="XMLID_127_" fill="#C49A44" d="M93.598,112.516H66.81c-1.469,2.905-2.857,5.878-4.125,8.927h26.801
		C90.754,118.394,92.125,115.417,93.598,112.516"/>
	<path id="XMLID_126_" fill="#C49A44" d="M111.814,85.732H85c-2.54,2.839-4.955,5.816-7.24,8.928h26.806
		C106.851,91.549,109.27,88.571,111.814,85.732"/>
	<path id="XMLID_125_" fill="#C49A44" d="M139.106,63.409h-26.846c-4.558,2.634-8.937,5.615-13.106,8.928h26.823
		C130.152,69.029,134.535,66.047,139.106,63.409"/>
	<path id="XMLID_124_" fill="#C49A44" d="M101.432,250.89H74.64c2.076,3.094,4.259,6.07,6.575,8.928h26.814
		C105.708,256.96,103.512,253.983,101.432,250.89"/>
	<path id="XMLID_123_" fill="#C49A44" d="M93.91,273.209c3.584,3.228,7.338,6.227,11.267,8.927h26.85
		c-3.95-2.709-7.74-5.687-11.347-8.927H93.91z"/>
	<path id="XMLID_106_" fill="#C49A44" d="M188.771,275.544h-0.379c-3.125,0-6.271-0.188-9.352-0.554
		c-2.446-0.295-4.201-2.514-3.901-4.964c0.285-2.446,2.441-4.151,4.959-3.901c2.723,0.325,5.518,0.491,8.29,0.491
		c2.468,0,4.65,1.999,4.65,4.464C193.043,273.543,191.239,275.544,188.771,275.544 M214.732,270.736
		c-1.803,0-3.504-1.104-4.183-2.893c-0.866-2.304,0.299-4.88,2.603-5.75c2.58-0.974,5.146-2.111,7.615-3.379
		c2.2-1.134,4.884-0.264,6.017,1.928c1.126,2.192,0.264,4.884-1.937,6.009c-2.772,1.429-5.646,2.701-8.548,3.794
		C215.786,270.642,215.255,270.736,214.732,270.736 M154.314,267.325c-0.683,0-1.375-0.156-2.018-0.486
		c-2.758-1.397-5.473-2.973-8.075-4.679c-2.066-1.348-2.643-4.114-1.29-6.177c1.357-2.059,4.115-2.639,6.182-1.286
		c2.326,1.522,4.754,2.933,7.222,4.183c2.201,1.115,3.072,3.803,1.956,5.999C157.511,266.433,155.944,267.325,154.314,267.325
		 M244.087,251.443c-1.139,0-2.272-0.429-3.138-1.286c-1.755-1.736-1.772-4.562-0.041-6.315c1.951-1.965,3.83-4.076,5.62-6.263
		c1.554-1.911,4.361-2.201,6.272-0.647c1.919,1.558,2.2,4.369,0.651,6.28c-1.965,2.41-4.049,4.736-6.191,6.905
		C246.386,251.001,245.234,251.443,244.087,251.443 M127.045,245.162c-1.295,0-2.571-0.558-3.451-1.633
		c-1.928-2.344-3.785-4.844-5.526-7.429c-1.384-2.04-0.848-4.815,1.191-6.199c2.049-1.376,4.817-0.84,6.205,1.205
		c1.589,2.352,3.285,4.633,5.04,6.767c1.558,1.906,1.285,4.719-0.63,6.281C129.045,244.832,128.041,245.162,127.045,245.162
		 M263.696,222.224c-0.594,0-1.196-0.121-1.781-0.371c-2.259-0.986-3.289-3.616-2.308-5.879c1.12-2.571,2.138-5.231,3.044-7.896
		c0.79-2.335,3.321-3.589,5.661-2.809c2.329,0.791,3.588,3.321,2.803,5.656c-0.986,2.91-2.103,5.808-3.316,8.615
		C267.058,221.219,265.419,222.224,263.696,222.224 M110.029,214.34c-1.857,0-3.598-1.17-4.227-3.026
		c-0.986-2.893-1.866-5.874-2.611-8.848c-0.589-2.393,0.866-4.812,3.254-5.405c2.388-0.607,4.812,0.857,5.414,3.249
		c0.674,2.728,1.482,5.465,2.388,8.125c0.804,2.325-0.451,4.869-2.781,5.664C110.993,214.26,110.507,214.34,110.029,214.34
		 M272.137,188.012c-0.106,0-0.231-0.004-0.348-0.013c-2.459-0.188-4.299-2.335-4.106-4.795c0.214-2.691,0.313-5.45,0.313-8.204
		c0-2.464,1.999-4.611,4.464-4.611c2.468,0,4.464,1.853,4.464,4.321V175c0,2.986-0.112,5.978-0.339,8.893
		C276.4,186.235,274.45,188.012,272.137,188.012 M104.32,179.513c-2.464,0-4.464-1.946-4.464-4.41V175
		c0-3.013,0.125-6.071,0.362-9.088c0.187-2.459,2.383-4.263,4.798-4.098c2.455,0.192,4.294,2.339,4.102,4.798
		c-0.218,2.786-0.334,5.607-0.334,8.388C108.784,177.464,106.788,179.513,104.32,179.513 M269.205,152.891
		c-1.995,0-3.821-1.348-4.33-3.375c-0.679-2.728-1.495-5.459-2.41-8.12c-0.8-2.335,0.45-4.875,2.771-5.674
		c2.361-0.808,4.875,0.442,5.678,2.772c0.991,2.897,1.875,5.874,2.621,8.842c0.598,2.393-0.854,4.817-3.25,5.415
		C269.924,152.85,269.563,152.891,269.205,152.891 M109.966,144.784c-0.473,0-0.959-0.081-1.428-0.241
		c-2.339-0.791-3.589-3.326-2.794-5.661c0.986-2.919,2.111-5.816,3.339-8.61c0.996-2.259,3.607-3.294,5.875-2.294
		c2.259,0.991,3.29,3.625,2.303,5.879c-1.125,2.563-2.156,5.218-3.067,7.892C113.564,143.61,111.828,144.784,109.966,144.784
		 M254.916,120.707c-1.433,0-2.844-0.688-3.7-1.96c-1.576-2.321-3.272-4.593-5.049-6.753c-1.571-1.902-1.29-4.719,0.611-6.285
		c1.906-1.563,4.714-1.29,6.285,0.611c1.951,2.375,3.813,4.875,5.544,7.419c1.38,2.044,0.839,4.816-1.201,6.2
		C256.644,120.457,255.777,120.707,254.916,120.707 M126.916,113.921c-0.996,0-1.991-0.326-2.826-1.004
		c-1.91-1.562-2.187-4.37-0.629-6.281c1.959-2.401,4.049-4.722,6.2-6.892c1.746-1.754,4.567-1.758,6.312-0.027
		c1.759,1.736,1.768,4.563,0.027,6.312c-1.951,1.969-3.839,4.076-5.629,6.254C129.496,113.363,128.21,113.921,126.916,113.921
		 M229.954,95.932c-0.839,0-1.683-0.237-2.438-0.723c-2.334-1.527-4.767-2.928-7.227-4.165c-2.201-1.107-3.085-3.799-1.973-6
		c1.106-2.201,3.78-3.089,5.99-1.973c2.754,1.384,5.477,2.955,8.093,4.66c2.067,1.344,2.651,4.111,1.303,6.178
		C232.838,95.218,231.409,95.932,229.954,95.932 M154.145,91.696c-1.629,0-3.192-0.888-3.986-2.433
		c-1.116-2.201-0.25-4.888,1.946-6.008c2.79-1.419,5.669-2.696,8.557-3.772c2.33-0.87,4.884,0.308,5.75,2.616
		c0.861,2.308-0.313,4.879-2.616,5.745c-2.576,0.964-5.147,2.093-7.624,3.361C155.52,91.535,154.828,91.696,154.145,91.696
		 M197.024,83.884c-0.165,0-0.339-0.009-0.513-0.031c-2.692-0.313-5.42-0.469-8.12-0.469c-2.464,0-4.558-2-4.558-4.464
		s1.897-4.464,4.36-4.464h0.197c3.039,0,6.119,0.179,9.142,0.531c2.451,0.281,4.205,2.5,3.919,4.946
		C201.193,82.21,199.261,83.884,197.024,83.884"/>
	<path id="XMLID_105_" fill="#C49A44" d="M236.003,208.192c-0.965-0.968-1.978-1.174-2.67-1.174c-1.084,0-2.124,0.491-3.134,1.491
		c-7.918,8.298-18.547,12.503-31.576,12.503c-10.429,0-19.36-3.021-26.542-8.981c-6.548-5.418-11.075-12.592-13.499-21.341h35.697
		c2.679,0,4.41-1.728,4.41-4.401c0-2.678-1.736-4.41-4.41-4.41h-37.322c-0.201-1.87-0.299-3.986-0.299-6.321
		c0-2.379,0.103-4.593,0.313-6.602h40.215c2.674,0,4.4-1.736,4.4-4.406c0-2.679-1.731-4.406-4.4-4.406h-38.604
		c2.397-8.687,6.731-15.847,12.9-21.315c6.754-5.973,14.592-9.008,23.311-9.008c8.807,0,17.078,2.696,24.564,7.982
		c3.075,2.232,5.838,4.687,8.2,7.302v9.298c0,2.678,1.731,4.41,4.414,4.41c2.674,0,4.396-1.732,4.396-4.41v-27.542
		c0-2.674-1.728-4.401-4.396-4.401c-2.688,0-4.414,1.731-4.414,4.401v5.87c-9.58-7.776-20.182-11.717-31.533-11.717
		c-11.918,0-22.225,3.848-30.626,11.44c-7.923,7.169-13.24,16.476-15.811,27.689h-8.923c-2.683,0-4.406,1.727-4.406,4.406
		c0,2.673,1.728,4.406,4.406,4.406h7.481c-0.196,2.036-0.29,4.25-0.29,6.602c0,2.304,0.094,4.42,0.277,6.321h-10.37
		c-2.674,0-4.406,1.732-4.406,4.41c0,2.674,1.736,4.401,4.406,4.401h11.816c2.598,11.428,8.146,20.797,16.529,27.881
		c8.821,7.469,19.771,11.254,32.524,11.254c14.842,0,27.564-5.094,37.809-15.138c1.146-1.133,1.384-2.28,1.384-3.039
		C237.811,210.171,236.779,208.97,236.003,208.192"/>
</g>
</svg>
