<?xml version="1.0" encoding="utf-8"?>
<!-- Generator: Adobe Illustrator 16.0.0, SVG Export Plug-In . SVG Version: 6.00 Build 0)  -->
<!DOCTYPE svg PUBLIC "-//W3C//DTD SVG 1.1//EN" "http://www.w3.org/Graphics/SVG/1.1/DTD/svg11.dtd">
<svg version="1.1" id="Capa_1" xmlns="http://www.w3.org/2000/svg" xmlns:xlink="http://www.w3.org/1999/xlink" x="0px" y="0px"
	 width="350px" height="350px" viewBox="0 0 350 350" enable-background="new 0 0 350 350" xml:space="preserve">
<g>
	<path d="M260.742,112.092c17.67-2.1,31.421-17.165,31.421-35.391c0-19.658-15.994-35.65-35.651-35.65H93.488
		c-19.658,0-35.651,15.993-35.651,35.65c0,18.226,13.75,33.292,31.421,35.391v43.15c-6.502,1.847-11.28,7.834-11.28,14.919
		s4.778,13.073,11.28,14.919v119.64c0,2.336,1.894,4.23,4.23,4.23c2.336,0,4.23-1.895,4.23-4.23v-119.05h154.563v119.05
		c0,2.336,1.895,4.23,4.23,4.23s4.23-1.895,4.23-4.23v-119.64c6.501-1.847,11.279-7.834,11.279-14.919s-4.778-13.073-11.279-14.919
		V112.092z M66.297,76.7c0-14.993,12.198-27.19,27.19-27.19h163.023c14.993,0,27.191,12.197,27.191,27.19
		c0,14.993-12.198,27.19-27.191,27.19c-14.992,0-27.19-12.198-27.19-27.19c0-4.429,1.03-8.651,3.061-12.547
		c1.08-2.072,0.276-4.626-1.796-5.706c-2.072-1.08-4.627-0.276-5.706,1.796c-2.629,5.043-4.019,10.734-4.019,16.457
		c0,18.226,13.751,33.292,31.42,35.391v20H127.328c-2.336,0-4.23,1.894-4.23,4.23s1.894,4.23,4.23,4.23h124.953v14.1H97.718v-14.1
		h12.69c2.336,0,4.23-1.895,4.23-4.23s-1.894-4.23-4.23-4.23h-12.69v-20c17.67-2.1,31.42-17.165,31.42-35.391
		c0-5.722-1.389-11.413-4.019-16.457c-1.08-2.072-3.633-2.876-5.706-1.796c-2.071,1.08-2.876,3.634-1.796,5.706
		c2.031,3.897,3.061,8.118,3.061,12.547c0,14.993-12.198,27.19-27.191,27.19C78.495,103.891,66.297,91.694,66.297,76.7z
		 M263.562,170.162c0,3.888-3.162,7.049-7.05,7.049H93.488c-3.888,0-7.05-3.162-7.05-7.049s3.162-7.05,7.05-7.05h163.023
		C260.399,163.112,263.562,166.274,263.562,170.162z"/>
	<path d="M128.604,199.772c-8.553,0-15.51,6.957-15.51,15.509v89.439c0,2.336,1.894,4.23,4.23,4.23c2.336,0,4.23-1.895,4.23-4.23
		v-89.439c0-3.888,3.163-7.049,7.05-7.049s7.05,3.161,7.05,7.049v89.439c0,2.336,1.894,4.23,4.23,4.23c2.336,0,4.23-1.895,4.23-4.23
		v-89.439C144.114,206.729,137.157,199.772,128.604,199.772z"/>
	<path d="M175,199.772c-8.552,0-15.51,6.957-15.51,15.509v89.439c0,2.336,1.894,4.23,4.23,4.23s4.23-1.895,4.23-4.23v-89.439
		c0-3.888,3.162-7.049,7.05-7.049s7.051,3.161,7.051,7.049v89.439c0,2.336,1.894,4.23,4.229,4.23c2.337,0,4.231-1.895,4.231-4.23
		v-89.439C190.511,206.729,183.552,199.772,175,199.772z"/>
	<path d="M221.396,199.772c-8.553,0-15.51,6.957-15.51,15.509v89.439c0,2.336,1.893,4.23,4.229,4.23c2.337,0,4.23-1.895,4.23-4.23
		v-89.439c0-3.888,3.163-7.049,7.051-7.049s7.049,3.161,7.049,7.049v16.921c0,2.336,1.895,4.229,4.231,4.229
		c2.335,0,4.229-1.894,4.229-4.229v-16.921C236.906,206.729,229.948,199.772,221.396,199.772z"/>
	<path d="M232.677,244.893c-2.337,0-4.231,1.894-4.231,4.229v55.6c0,2.336,1.895,4.23,4.231,4.23c2.335,0,4.229-1.895,4.229-4.23
		v-55.6C236.906,246.786,235.012,244.893,232.677,244.893z"/>
	<path d="M112.219,76.7c0-2.336-1.894-4.23-4.23-4.23c-2.336,0-4.229,1.894-4.229,4.23c0,5.664-4.607,10.271-10.271,10.271
		c-5.664,0-10.271-4.607-10.271-10.271S87.825,66.43,93.488,66.43c2.336,0,4.23-1.894,4.23-4.23s-1.894-4.23-4.23-4.23
		c-10.329,0-18.73,8.403-18.73,18.73c0,10.328,8.402,18.73,18.73,18.73C103.816,95.431,112.219,87.028,112.219,76.7z"/>
	<path d="M256.512,95.431c10.329,0,18.73-8.403,18.73-18.73c0-10.328-8.401-18.731-18.73-18.731c-2.336,0-4.23,1.894-4.23,4.23
		s1.895,4.23,4.23,4.23c5.664,0,10.271,4.607,10.271,10.271s-4.606,10.271-10.271,10.271c-5.663,0-10.271-4.607-10.271-10.271
		c0-2.336-1.894-4.23-4.23-4.23c-2.336,0-4.229,1.894-4.229,4.23C237.782,87.028,246.184,95.431,256.512,95.431z"/>
	<path d="M141.829,80.93h66.342c2.336,0,4.229-1.894,4.229-4.23s-1.894-4.23-4.229-4.23h-66.342c-2.336,0-4.23,1.894-4.23,4.23
		S139.493,80.93,141.829,80.93z"/>
</g>
</svg>
