<?xml version="1.0" encoding="utf-8"?>
<!-- Generator: Adobe Illustrator 16.0.0, SVG Export Plug-In . SVG Version: 6.00 Build 0)  -->
<!DOCTYPE svg PUBLIC "-//W3C//DTD SVG 1.1//EN" "http://www.w3.org/Graphics/SVG/1.1/DTD/svg11.dtd">
<svg version="1.1" id="Layer_1" xmlns="http://www.w3.org/2000/svg" xmlns:xlink="http://www.w3.org/1999/xlink" x="0px" y="0px"
	 width="350px" height="350px" viewBox="0 0 350 350" enable-background="new 0 0 350 350" xml:space="preserve">
<g>
	<g>
		<g>
			<g>
				<path fill="#414042" d="M152.989,268.662c-7.231,8.686-17.843,13.897-29.026,15.028c-11.625,1.183-23.546-1.889-33.354-8.2
					c-18.516-11.904-28.255-35.837-22.048-57.196c1.618-5.569,4.326-10.814,8.005-15.311c2.391-2.924,5.178-5.34,8.085-7.722
					c7.129-5.855,14.717-11.037,22.442-16.067c10.595-6.915,21.167-13.845,31.354-21.344c6.133-4.526,12.134-9.203,18.12-13.909
					c8.937-7.028,17.623-14.395,26.189-21.868c8.984-7.838,17.779-15.861,26.571-23.899c3.568-3.263,7.137-6.527,10.702-9.794
					c-4.918,14.338-9.945,28.617-15.318,42.782c-1.997-1.515-4.002-3.034-6-4.552c11.105-8.026,22.256-16,33.403-23.974
					c7.062-5.039,14.127-10.092,21.193-15.145c6.323-4.519,12.646-9.033,18.977-13.559c3.671-2.626,7.345-5.25,11.02-7.872
					c-4.5,6.12-8.995,12.24-13.491,18.359c-6.293,8.565-12.579,17.127-18.872,25.692c-4.921,6.696-9.888,13.363-14.832,20.033
					c-2.352,3.181-4.703,6.346-7.051,9.526c-1.152-1.232-2.302-2.472-3.455-3.701c8.071-5.306,16.174-10.566,24.261-15.853
					c6.828-4.462,13.664-8.927,20.492-13.396c1.748-1.146,3.504-2.284,5.249-3.429c-6.297,7.363-12.421,14.896-19.079,21.92
					c-15.608,16.475-30.199,33.84-43.758,52.033c-12.277,16.476-23.036,33.935-33.426,51.639
					C171.281,242.626,163.269,256.423,152.989,268.662z M151.146,267.071c7.987-9.79,14.67-20.462,20.975-31.39
					c6.342-10.992,12.466-22.098,19.061-32.947c9.255-15.242,19.219-29.999,29.977-44.21c10.767-14.226,22.121-27.916,33.667-41.516
					c1.447,1.748,2.901,3.497,4.356,5.238c-8.374,4.914-16.751,9.828-25.124,14.75c-5.652,3.316-11.166,6.813-16.697,10.34
					c4.533-6.444,9.063-12.892,13.596-19.335c4.926-7.002,9.824-14.022,14.772-21.005c6.104-8.618,12.209-17.229,18.313-25.839
					c0.543-0.754,1.078-1.515,1.613-2.265c1.545,1.534,3.09,3.075,4.639,4.613c-7.593,5.626-15.183,11.245-22.779,16.863
					c-6.267,4.643-12.537,9.281-18.805,13.92c-10.89,8.068-21.811,16.091-32.746,24.091c-1.029,0.757-2.065,1.515-3.098,2.272
					c5-13.675,10.151-27.291,15.345-40.895c1.997,1.368,4.002,2.74,5.999,4.115c-6.226,5.186-12.425,10.401-18.691,15.533
					c-11.931,9.768-23.854,19.565-36.174,28.828c-6.323,4.752-12.673,9.458-19.147,14.007
					c-10.414,7.329-21.158,14.116-31.924,20.906c-7.516,4.741-14.851,9.651-21.809,15.18c-3.119,2.483-6.042,5.068-8.484,8.256
					c-3.537,4.62-5.992,10.017-7.286,15.684c-4.927,21.574,6.798,44.459,26.414,54.174
					C114.767,285.183,138.302,282.839,151.146,267.071z"/>
			</g>
		</g>
		<g>
			<path fill="#414042" d="M116.308,269.766c-9.395,0-18.222-3.662-24.867-10.306c-6.642-6.641-10.299-15.473-10.299-24.864
				c0-9.395,3.657-18.228,10.301-24.871s15.471-10.299,24.865-10.299s18.224,3.655,24.867,10.299
				c13.713,13.714,13.713,36.025,0,49.735C134.532,266.104,125.703,269.766,116.308,269.766z M116.308,205.271
				c-7.831,0-15.196,3.045-20.731,8.588c-5.542,5.544-8.59,12.903-8.59,20.737c0,7.835,3.048,15.194,8.59,20.733
				c5.536,5.536,12.903,8.589,20.731,8.589c7.834,0,15.196-3.053,20.733-8.589c11.435-11.433,11.435-30.041,0-41.471
				C131.506,208.315,124.143,205.271,116.308,205.271z"/>
		</g>
		<g>
			<polygon fill="#414042" points="135.664,208.346 215.672,135.232 142.555,215.234 			"/>
		</g>
		<g>
			<path fill="#414042" d="M104.984,201.325c4.299-1.906,8.588-3.817,12.682-6.146c5.272-2.991,10.399-6.214,15.432-9.586
				c10.342-6.941,20.289-14.509,29.924-22.396c6.802-5.573,13.551-11.222,20.064-17.131c-5.979,6.124-12.202,12.017-18.476,17.835
				c-9.106,8.433-18.512,16.649-28.387,24.163c-6.809,5.186-13.747,10.092-21.106,14.463c-1.688,1.003-3.416,1.899-5.161,2.804
				c-0.891,0.456-1.775,1.006-2.704,1.383C103.805,208.12,101.57,202.821,104.984,201.325z"/>
		</g>
		<g>
			<path fill="#414042" d="M144.606,242.306c3.997-10.223,9.977-19.475,16.404-28.322c7.267-10.021,15.156-19.577,23.301-28.896
				c6.633-7.578,13.423-15.051,20.481-22.241c-13.359,15.314-25.994,31.492-37.275,48.4c-4.925,7.379-9.636,14.972-13.453,22.995
				c-1.56,3.278-2.688,6.632-3.949,10.02C148.765,247.898,143.207,245.924,144.606,242.306z"/>
		</g>
		<g>
			<path fill="#414042" d="M83.214,207.999c-2.92,4.484-5.609,9.131-6.826,14.406c-1.313,5.664-1.551,11.734-0.064,17.398
				c1.524,5.788,3.939,11.223,7.542,16.042c3.48,4.654,7.803,8.731,12.692,11.87c6.794,4.368,14.61,7.119,22.723,7.428
				c4.292,0.17,8.598-0.309,12.754-1.395c3.614-0.852,6.97-2.37,10.35-3.866c-4.334,2.849-8.737,5.17-13.77,6.542
				c-5.673,1.541-11.558,1.733-17.359,0.837c-11.645-1.794-22.214-8.618-29.435-17.806c-5.967-7.594-10.017-17.761-9.291-27.547
				c0.343-4.699,1.328-9.225,3.363-13.502C77.758,214.477,80.33,211.21,83.214,207.999z"/>
		</g>
		<g>
			<path fill="#414042" d="M103.021,216.998c3.686-3.874,8.33-6.007,13.734-5.932c5.907,0.075,11.506,3.015,15.622,7.13
				c4.068,4.093,6.638,9.587,6.905,15.371c0.252,5.407-1.863,10.321-5.34,14.35c1.721-4.148,2.972-8.282,2.497-12.831
				c-0.527-5.095-2.832-9.967-6.37-13.679c-3.493-3.667-8.064-6.523-13.129-7.33c-2.632-0.422-5.265-0.32-7.85,0.32
				C106.917,214.94,104.979,215.95,103.021,216.998z"/>
		</g>
	</g>
	<path fill="#414042" d="M237.34,215.385c-0.693-0.331-1.681-0.734-2.864-1.111c-1.718-0.543-3.851-0.938-6.089-1.111
		c-0.174-2.416-0.539-4.715-1.04-6.554c-0.347-1.277-0.717-2.344-1.025-3.086c-0.306-0.746-0.539-1.176-0.539-1.176
		s-0.233,0.43-0.531,1.176c-0.309,0.742-0.682,1.809-1.032,3.086c-0.498,1.843-0.867,4.138-1.036,6.554
		c-2.242,0.181-4.375,0.576-6.09,1.115c-1.188,0.377-2.175,0.783-2.864,1.107c-0.693,0.324-1.089,0.573-1.089,0.573
		s0.396,0.256,1.089,0.58c0.689,0.332,1.677,0.728,2.864,1.108c1.715,0.534,3.84,0.927,6.082,1.115
		c0.17,2.411,0.539,4.71,1.036,6.557c0.347,1.281,0.724,2.344,1.032,3.083c0.302,0.746,0.539,1.172,0.539,1.172
		s0.237-0.426,0.539-1.172c0.309-0.739,0.682-1.802,1.032-3.083c0.505-1.847,0.867-4.138,1.033-6.557
		c2.242-0.174,4.371-0.565,6.089-1.108c1.184-0.377,2.171-0.776,2.864-1.115c0.689-0.316,1.085-0.58,1.085-0.58
		S238.029,215.709,237.34,215.385z"/>
	<path fill="#414042" d="M133.95,134.494c-0.693-0.347-1.679-0.742-2.864-1.123c-1.715-0.542-3.85-0.935-6.094-1.111
		c-0.167-2.408-0.535-4.707-1.036-6.553c-0.349-1.274-0.716-2.336-1.025-3.083c-0.305-0.746-0.537-1.176-0.537-1.176
		s-0.234,0.43-0.533,1.176c-0.311,0.746-0.684,1.809-1.031,3.083c-0.499,1.846-0.867,4.145-1.038,6.561
		c-2.238,0.177-4.373,0.577-6.09,1.112c-1.185,0.376-2.17,0.776-2.864,1.115c-0.691,0.316-1.085,0.565-1.085,0.565
		s0.394,0.26,1.085,0.588c0.693,0.324,1.679,0.723,2.864,1.1c1.717,0.539,3.842,0.935,6.086,1.116
		c0.168,2.416,0.533,4.71,1.038,6.557c0.345,1.278,0.718,2.344,1.027,3.09c0.304,0.746,0.541,1.168,0.541,1.168
		s0.235-0.422,0.537-1.168c0.313-0.746,0.684-1.813,1.034-3.09c0.503-1.846,0.867-4.141,1.033-6.549
		c2.24-0.177,4.375-0.573,6.088-1.115c1.185-0.377,2.17-0.776,2.864-1.108c0.689-0.324,1.085-0.588,1.085-0.588
		S134.639,134.81,133.95,134.494z"/>
	<path fill="#414042" d="M107.844,93.671c-0.693-0.339-1.683-0.739-2.862-1.112c-1.72-0.542-3.851-0.935-6.093-1.115
		c-0.17-2.412-0.537-4.703-1.039-6.55c-0.347-1.281-0.716-2.34-1.023-3.082c-0.305-0.747-0.539-1.172-0.539-1.172
		s-0.235,0.426-0.535,1.172c-0.309,0.742-0.682,1.801-1.025,3.082c-0.503,1.847-0.87,4.138-1.038,6.557
		c-2.244,0.185-4.377,0.573-6.093,1.115c-1.185,0.377-2.172,0.773-2.862,1.104c-0.691,0.328-1.087,0.576-1.087,0.576
		s0.396,0.256,1.087,0.577c0.69,0.332,1.677,0.728,2.862,1.112c1.714,0.527,3.846,0.931,6.086,1.119
		c0.166,2.408,0.535,4.707,1.034,6.549c0.347,1.277,0.724,2.348,1.033,3.09c0.301,0.746,0.539,1.164,0.539,1.164
		s0.238-0.418,0.541-1.164c0.309-0.743,0.68-1.813,1.031-3.09c0.501-1.843,0.867-4.134,1.034-6.549
		c2.242-0.177,4.37-0.577,6.088-1.112c1.179-0.376,2.168-0.772,2.862-1.119c0.69-0.313,1.085-0.577,1.085-0.577
		S108.534,93.999,107.844,93.671z"/>
	<path fill="#414042" d="M82.93,154.692c-0.458-0.214-1.108-0.482-1.89-0.731c-1.132-0.354-2.545-0.618-4.024-0.735
		c-0.113-1.594-0.354-3.113-0.686-4.33c-0.231-0.837-0.475-1.538-0.678-2.039c-0.2-0.49-0.352-0.772-0.352-0.772
		s-0.157,0.283-0.356,0.772c-0.205,0.501-0.448,1.202-0.68,2.039c-0.33,1.217-0.571,2.736-0.686,4.333
		c-1.478,0.121-2.887,0.384-4.023,0.735c-0.782,0.252-1.432,0.513-1.89,0.727c-0.458,0.219-0.718,0.392-0.718,0.392
		s0.26,0.166,0.718,0.373c0.458,0.222,1.108,0.486,1.89,0.728c1.136,0.358,2.54,0.625,4.021,0.746
		c0.111,1.594,0.354,3.109,0.686,4.326c0.228,0.848,0.475,1.553,0.68,2.046c0.202,0.486,0.358,0.765,0.358,0.765
		s0.152-0.279,0.352-0.765c0.208-0.494,0.454-1.198,0.686-2.046c0.33-1.217,0.571-2.732,0.682-4.326
		c1.481-0.117,2.888-0.381,4.021-0.739c0.782-0.241,1.432-0.505,1.89-0.731c0.458-0.211,0.718-0.377,0.718-0.377
		S83.388,154.911,82.93,154.692z"/>
	<path fill="#414042" d="M167.445,93.863c-0.458-0.218-1.11-0.482-1.89-0.731c-1.134-0.354-2.545-0.618-4.026-0.739
		c-0.111-1.59-0.353-3.105-0.686-4.326c-0.229-0.84-0.473-1.538-0.674-2.042c-0.204-0.486-0.356-0.769-0.356-0.769
		s-0.155,0.283-0.354,0.769c-0.204,0.505-0.45,1.202-0.678,2.042c-0.333,1.221-0.575,2.736-0.686,4.333
		c-1.479,0.121-2.89,0.377-4.026,0.738c-0.78,0.249-1.432,0.513-1.89,0.724c-0.458,0.219-0.718,0.384-0.718,0.384
		s0.26,0.166,0.718,0.385c0.458,0.218,1.11,0.482,1.89,0.731c1.136,0.354,2.542,0.614,4.021,0.738
		c0.113,1.59,0.354,3.113,0.688,4.334c0.23,0.84,0.477,1.541,0.678,2.027c0.202,0.501,0.358,0.78,0.358,0.78s0.154-0.279,0.356-0.78
		c0.204-0.486,0.45-1.187,0.68-2.027c0.333-1.221,0.575-2.736,0.682-4.334c1.483-0.117,2.89-0.376,4.024-0.734
		c0.78-0.253,1.432-0.509,1.89-0.735c0.456-0.215,0.718-0.385,0.718-0.385S167.9,94.082,167.445,93.863z"/>
</g>
</svg>
