<?xml version="1.0" encoding="utf-8"?>
<!-- Generator: Adobe Illustrator 16.0.0, SVG Export Plug-In . SVG Version: 6.00 Build 0)  -->
<!DOCTYPE svg PUBLIC "-//W3C//DTD SVG 1.1//EN" "http://www.w3.org/Graphics/SVG/1.1/DTD/svg11.dtd">
<svg version="1.1" id="Layer_1" xmlns="http://www.w3.org/2000/svg" xmlns:xlink="http://www.w3.org/1999/xlink" x="0px" y="0px"
	 width="350px" height="350px" viewBox="0 0 350 350" enable-background="new 0 0 350 350" xml:space="preserve">
<g>
	<g>
		<path d="M174.983,110.087c-9.295,0-16.856,7.562-16.856,16.856c0,9.294,7.561,16.855,16.856,16.855
			c9.294,0,16.855-7.561,16.855-16.855S184.277,110.087,174.983,110.087z M174.983,133.138c-3.417,0-6.195-2.779-6.195-6.195
			c-0.001-3.417,2.779-6.196,6.195-6.196c3.416,0,6.195,2.779,6.195,6.196C181.179,130.359,178.399,133.138,174.983,133.138z"/>
	</g>
</g>
<g>
	<g>
		<path d="M271.182,219.764H252.59l-44.034-76.268c2.473-4.995,3.871-10.613,3.871-16.554c0-14.348-8.116-26.83-19.995-33.114
			v-40.44c0-3.271-2.651-5.922-5.922-5.922h-23.052c-3.271,0-5.922,2.651-5.922,5.922v40.441
			c-11.878,6.284-19.995,18.766-19.995,33.114c0,5.952,1.402,11.582,3.885,16.583L97.41,219.764H78.819
			c-3.271,0-5.922,2.651-5.922,5.922c0,3.271,2.651,5.923,5.922,5.923h11.752l-3.1,5.37c-8.788,15.222-4.991,34.303,8.129,45.144
			l-6.656,11.528c-1.636,2.833-0.665,6.455,2.168,8.09c0.932,0.54,1.951,0.795,2.956,0.795c2.046,0,4.037-1.063,5.134-2.962
			l9.366-16.222l29.874-51.743h73.117l29.876,51.746c0.003,0.005,0.006,0.009,0.008,0.013l9.356,16.206
			c1.098,1.899,3.087,2.962,5.135,2.962c1.004,0,2.022-0.257,2.956-0.795c2.832-1.635,3.803-5.257,2.167-8.09l-6.654-11.525
			c13.12-10.841,16.917-29.922,8.129-45.143l-3.103-5.374h11.752c3.271,0,5.923-2.651,5.923-5.923
			C277.104,222.415,274.451,219.764,271.182,219.764z M169.38,59.31h11.207v30.611c-1.829-0.275-3.699-0.42-5.604-0.42
			c-1.904,0-3.775,0.145-5.603,0.42V59.31L169.38,59.31z M174.983,101.345c14.114,0,25.598,11.484,25.598,25.598
			c0,13.72-10.851,24.95-24.421,25.568c-0.112,0-0.226,0.002-0.339,0.009c-0.279,0.009-0.557,0.021-0.837,0.021
			c-0.239,0-0.477-0.012-0.714-0.019c-0.173-0.012-0.345-0.016-0.517-0.013c-13.545-0.645-24.366-11.865-24.366-25.566
			C149.386,112.829,160.869,101.345,174.983,101.345z M101.642,271.657c-2.997-2.932-5.166-6.624-6.28-10.78
			c-1.638-6.112-0.797-12.496,2.367-17.976l51.357-88.955c4.28,4.106,9.527,7.206,15.366,8.921L101.642,271.657z M145.28,219.764
			L175,168.288l29.719,51.476H145.28z M248.355,271.654l-62.813-108.795c5.836-1.719,11.081-4.823,15.358-8.933l51.372,88.979
			C257.782,252.446,255.876,264.269,248.355,271.654z"/>
	</g>
</g>
</svg>
