<?xml version="1.0" encoding="utf-8"?>
<!-- Generator: Adobe Illustrator 16.0.0, SVG Export Plug-In . SVG Version: 6.00 Build 0)  -->
<!DOCTYPE svg PUBLIC "-//W3C//DTD SVG 1.1//EN" "http://www.w3.org/Graphics/SVG/1.1/DTD/svg11.dtd">
<svg version="1.1" id="Layer_1" xmlns="http://www.w3.org/2000/svg" xmlns:xlink="http://www.w3.org/1999/xlink" x="0px" y="0px"
	 width="350px" height="350px" viewBox="0 0 350 350" enable-background="new 0 0 350 350" xml:space="preserve">
<g>
	<g>
		<g>
			<path fill="#868491" d="M233.446,208.429H116.442c-2.31,0-4.179-1.871-4.179-4.179s1.87-4.179,4.179-4.179h117.004
				c2.31,0,4.179,1.871,4.179,4.179S235.756,208.429,233.446,208.429z"/>
		</g>
	</g>
	<g>
		<g>
			<path fill="#868491" d="M245.98,308.721c0.416,0,0.836-0.063,1.253-0.195c2.202-0.692,3.428-3.039,2.733-5.24l-10.026-31.849
				c-0.698-2.202-3.048-3.425-5.24-2.73c-2.203,0.691-3.428,3.038-2.733,5.239l10.026,31.849
				C242.557,307.577,244.205,308.721,245.98,308.721z"/>
		</g>
	</g>
	<g>
		<path fill="#B4B6BC" d="M176.704,112.318l53.059,167.989c1.122,3.567,4.418,5.85,7.97,5.85c0.831,0,1.678-0.124,2.513-0.387
			c4.403-1.386,6.847-6.079,5.462-10.481l-55.008-174.155L176.704,112.318z"/>
	</g>
	<g>
		<g>
			<path fill="#868491" d="M104.02,308.721c-0.417,0-0.836-0.063-1.252-0.195c-2.204-0.692-3.428-3.039-2.734-5.24l10.026-31.849
				c0.698-2.202,3.049-3.425,5.24-2.73c2.203,0.691,3.428,3.038,2.733,5.239l-10.026,31.849
				C107.443,307.577,105.795,308.721,104.02,308.721z"/>
		</g>
	</g>
	<g>
		<path fill="#B4B6BC" d="M173.296,112.318l-53.059,167.989c-1.122,3.567-4.417,5.85-7.97,5.85c-0.831,0-1.678-0.124-2.512-0.387
			c-4.403-1.386-6.847-6.079-5.462-10.481L159.3,101.134L173.296,112.318z"/>
	</g>
	<g>
		<g>
			<path fill="#3482AC" d="M175.058,78.888c-4.615,0-8.357-3.742-8.357-8.357V49.637c0-4.615,3.742-8.357,8.357-8.357
				c4.616,0,8.358,3.742,8.358,8.357V70.53C183.416,75.146,179.674,78.888,175.058,78.888z"/>
		</g>
	</g>
	<g>
		<path fill="#009BCA" d="M183.416,62.173h-16.715c-6.913,0-12.536,5.624-12.536,12.536v20.894c0,11.521,9.374,20.894,20.893,20.894
			c11.521,0,20.895-9.373,20.895-20.894V74.709C195.952,67.797,190.329,62.173,183.416,62.173z"/>
	</g>
	<g>
		<path fill="#009BCA" d="M182.371,220.965h-14.625c-0.577,0-1.044-0.467-1.044-1.045v-31.341c0-0.576,0.467-1.044,1.044-1.044
			h14.625c0.577,0,1.045,0.468,1.045,1.044v31.341C183.416,220.497,182.948,220.965,182.371,220.965z"/>
	</g>
	<g>
		<circle fill="#5C546A" cx="174.944" cy="95.603" r="8.357"/>
	</g>
</g>
</svg>
