<?xml version="1.0" encoding="utf-8"?>
<!-- Generator: Adobe Illustrator 16.0.0, SVG Export Plug-In . SVG Version: 6.00 Build 0)  -->
<!DOCTYPE svg PUBLIC "-//W3C//DTD SVG 1.1//EN" "http://www.w3.org/Graphics/SVG/1.1/DTD/svg11.dtd">
<svg version="1.1" id="Layer_1" xmlns="http://www.w3.org/2000/svg" xmlns:xlink="http://www.w3.org/1999/xlink" x="0px" y="0px"
	 width="350px" height="350px" viewBox="0 0 350 350" enable-background="new 0 0 350 350" xml:space="preserve">
<g>
	<g>
		<path d="M232.229,103.04c-0.008-0.038-0.008-0.081-0.008-0.119c-0.014-0.14-0.042-0.28-0.063-0.416
			c-0.008-0.003-0.008-0.01-0.008-0.01c-0.027-0.136-0.056-0.266-0.098-0.398c-0.014-0.039-0.027-0.077-0.035-0.116
			c-0.034-0.102-0.069-0.199-0.104-0.297c-0.014-0.039-0.027-0.073-0.042-0.108c-0.056-0.129-0.119-0.259-0.182-0.381
			c0-0.007-0.007-0.01-0.014-0.018c-0.057-0.115-0.126-0.23-0.202-0.346c-0.022-0.031-0.049-0.066-0.07-0.098
			c-0.063-0.087-0.119-0.171-0.188-0.255c-0.027-0.035-0.05-0.066-0.077-0.098c-0.091-0.108-0.189-0.213-0.287-0.314l-38.171-38.167
			c-0.098-0.102-0.203-0.196-0.308-0.287c-0.034-0.028-0.069-0.052-0.099-0.077c-0.083-0.066-0.167-0.129-0.258-0.188
			c-0.034-0.025-0.063-0.046-0.098-0.07c-0.12-0.073-0.23-0.143-0.35-0.209c-0.007,0-0.007-0.003-0.007-0.003
			c-0.126-0.07-0.259-0.126-0.392-0.182c-0.027-0.014-0.07-0.028-0.098-0.042c-0.105-0.039-0.203-0.077-0.308-0.108
			c-0.035-0.01-0.07-0.024-0.112-0.035c-0.133-0.039-0.267-0.074-0.392-0.102c-0.014,0-0.014,0-0.014,0
			c-0.14-0.028-0.28-0.049-0.419-0.063c-0.043-0.007-0.085-0.007-0.119-0.01c-0.104-0.01-0.218-0.017-0.328-0.017
			c-0.022,0-0.043-0.004-0.07-0.004H65.27c-2.635,0-4.77,2.135-4.77,4.769v219.464c0,2.627,2.135,4.767,4.77,4.767h162.213
			c2.629,0,4.767-2.14,4.767-4.767V103.439c0-0.024,0-0.049,0-0.074C232.243,103.257,232.236,103.148,232.229,103.04z
			 M194.079,76.791l21.88,21.877h-21.88V76.791z M222.704,279.954H70.043V70.043h114.503v33.395c0,2.634,2.132,4.77,4.767,4.77
			h33.392V279.954L222.704,279.954z"/>
	</g>
</g>
<g>
	<g>
		<path d="M289.5,112.981c0-10.542-8.54-19.085-19.079-19.085c-10.545,0-19.092,8.544-19.092,19.085v128.816h5.926l-5.926,20.672
			l19.092,12.72l19.079-12.72l-5.919-20.672h5.919V112.981z M270.421,263.72l-7.994-5.331l4.752-16.592h6.479l4.752,16.592
			L270.421,263.72z M279.954,232.251h-19.079v-119.27c0-5.262,4.277-9.542,9.546-9.542c5.256,0,9.533,4.28,9.533,9.542V232.251
			L279.954,232.251z"/>
	</g>
</g>
<g>
	<g>
		<path d="M198.858,184.547H93.983c-2.635,0-4.773,2.132-4.773,4.767c0,2.634,2.139,4.765,4.773,4.765h104.875
			c2.629,0,4.767-2.131,4.767-4.765C203.625,186.679,201.487,184.547,198.858,184.547z"/>
	</g>
</g>
<g>
	<g>
		<path d="M198.858,213.172H93.983c-2.635,0-4.773,2.132-4.773,4.767c0,2.634,2.139,4.766,4.773,4.766h104.875
			c2.629,0,4.767-2.132,4.767-4.766C203.625,215.304,201.487,213.172,198.858,213.172z"/>
	</g>
</g>
<g>
	<g>
		<path d="M151.145,241.797H93.983c-2.635,0-4.773,2.132-4.773,4.767c0,2.634,2.139,4.765,4.773,4.765h57.162
			c2.635,0,4.773-2.132,4.773-4.765C155.918,243.929,153.78,241.797,151.145,241.797z"/>
	</g>
</g>
<g>
	<g>
		<path d="M151.233,98.669h-23.897v-5.07c0-2.635-2.135-4.77-4.77-4.77c-2.638,0-4.773,2.134-4.773,4.77v5.07h-23.81
			c-2.635,0-4.773,2.135-4.773,4.77c0,2.634,2.138,4.77,4.773,4.77h23.81v38.168H103.48c-2.635,0-4.77,2.134-4.77,4.769
			c0,2.635,2.135,4.773,4.77,4.773h38.168c2.635,0,4.77-2.138,4.77-4.773c0-2.635-2.135-4.769-4.77-4.769h-14.313v-38.168h23.897
			c2.634,0,4.77-2.135,4.77-4.77C156.002,100.804,153.867,98.669,151.233,98.669z"/>
	</g>
</g>
<g>
	<g>
		<path d="M98.354,117.751h-9.539c-2.635,0-4.773,2.135-4.773,4.77s2.139,4.773,4.773,4.773h9.539c2.635,0,4.773-2.138,4.773-4.773
			C103.126,119.886,100.988,117.751,98.354,117.751z"/>
	</g>
</g>
<g>
	<g>
		<path d="M155.918,117.751h-9.542c-2.635,0-4.77,2.135-4.77,4.77s2.135,4.773,4.77,4.773h9.542c2.635,0,4.77-2.138,4.77-4.773
			C160.688,119.886,158.553,117.751,155.918,117.751z"/>
	</g>
</g>
</svg>
