<?xml version="1.0" encoding="utf-8"?>
<!-- Generator: Adobe Illustrator 16.0.0, SVG Export Plug-In . SVG Version: 6.00 Build 0)  -->
<!DOCTYPE svg PUBLIC "-//W3C//DTD SVG 1.1//EN" "http://www.w3.org/Graphics/SVG/1.1/DTD/svg11.dtd">
<svg version="1.1" id="Capa_1" xmlns="http://www.w3.org/2000/svg" xmlns:xlink="http://www.w3.org/1999/xlink" x="0px" y="0px"
	 width="350px" height="350px" viewBox="0 0 350 350" enable-background="new 0 0 350 350" xml:space="preserve">
<g>
	<g>
		<path fill="#6A3311" d="M109.203,206.888c0-55.591,45.064-100.655,100.655-100.655c1.198,0,2.357,0.137,3.541,0.177
			c-10.268-36.943-43.199-64.007-82.322-64.007c-47.333,0-85.705,39.569-85.705,88.38c0,41.175,27.344,75.673,64.302,85.488
			C109.39,213.178,109.203,210.055,109.203,206.888z"/>
		<path fill="#6A3311" d="M115.218,222.82l-6.8-1.802c-40.012-10.624-67.955-47.735-67.955-90.236
			c0-51.442,40.65-93.29,90.615-93.29c40.193,0,75.993,27.8,87.054,67.606l1.793,6.442l-6.679-0.221
			c-0.555-0.015-1.109-0.054-1.659-0.093c-0.579-0.04-1.148-0.084-1.729-0.084c-52.792,0-95.745,42.953-95.745,95.745
			c0,2.73,0.147,5.646,0.452,8.927L115.218,222.82z M131.078,47.313c-44.553,0-80.794,37.444-80.794,83.47
			c0,35.662,21.904,67.061,54.049,78.673c-0.024-0.874-0.039-1.729-0.039-2.568c0-57.127,45.619-103.807,102.334-105.516
			C194.897,69.231,164.701,47.313,131.078,47.313z"/>
	</g>
	<g>
		<path fill="#6A3311" d="M109.203,206.888c0-55.591,45.064-100.655,100.655-100.655c1.198,0,2.357,0.137,3.541,0.177
			c-10.268-36.943-43.199-64.007-82.322-64.007c-47.333,0-85.705,39.569-85.705,88.38c0,41.175,27.344,75.673,64.302,85.488
			C109.39,213.178,109.203,210.055,109.203,206.888z"/>
		<path fill="#6A3311" d="M115.218,222.82l-6.8-1.802c-40.012-10.624-67.955-47.735-67.955-90.236
			c0-51.442,40.65-93.29,90.615-93.29c40.193,0,75.993,27.8,87.054,67.606l1.793,6.442l-6.679-0.221
			c-0.555-0.015-1.109-0.054-1.659-0.093c-0.579-0.04-1.148-0.084-1.729-0.084c-52.792,0-95.745,42.953-95.745,95.745
			c0,2.73,0.147,5.646,0.452,8.927L115.218,222.82z M131.078,47.313c-44.553,0-80.794,37.444-80.794,83.47
			c0,35.662,21.904,67.061,54.049,78.673c-0.024-0.874-0.039-1.729-0.039-2.568c0-57.127,45.619-103.807,102.334-105.516
			C194.897,69.231,164.701,47.313,131.078,47.313z"/>
	</g>
	<path fill="#8C572C" d="M116.539,169.272c3.024-7.498,6.947-14.524,11.602-21c-2.022-7.238-8.597-12.58-16.483-12.58
		c-9.491,0-17.185,7.694-17.185,17.185c0,9.491,7.693,17.185,17.185,17.185C113.367,170.063,114.982,169.739,116.539,169.272z"/>
	<g>
		<path fill="#A46F3E" d="M50.283,116.053c0,0,8.593,7.674,24.55,9.82"/>
		<path fill="#A46F3E" d="M74.838,130.783c-0.216,0-0.442-0.015-0.663-0.044c-17.253-2.322-26.77-10.669-27.167-11.023
			c-2.023-1.807-2.2-4.91-0.393-6.933c1.797-2.023,4.885-2.195,6.918-0.408c0.206,0.177,7.979,6.751,21.953,8.632
			c2.686,0.363,4.576,2.833,4.213,5.524C79.365,128.996,77.259,130.783,74.838,130.783z"/>
	</g>
	<g>
		<path fill="#A46F3E" d="M74.833,106.233c0,8.141-6.589,14.73-14.73,14.73"/>
		<path fill="#A46F3E" d="M60.103,125.873c-2.71,0-4.91-2.195-4.91-4.91s2.2-4.91,4.91-4.91c5.416,0,9.82-4.404,9.82-9.82
			c0-2.715,2.2-4.91,4.91-4.91c2.71,0,4.91,2.195,4.91,4.91C79.743,117.064,70.935,125.873,60.103,125.873z"/>
	</g>
	<circle fill="#4C312C" cx="116.568" cy="84.138" r="17.185"/>
	<g>
		<path fill="#A46F3E" d="M177.943,57.133c0,0,1.532,22.095-14.729,29.46c0,0-10.13,2.15-9.82,9.82"/>
		<path fill="#A46F3E" d="M153.389,101.323c-2.622,0-4.797-2.072-4.905-4.713c-0.358-8.98,7.807-13.375,13.115-14.681
			c12.466-6.049,11.455-24.28,11.445-24.467c-0.172-2.7,1.871-5.038,4.572-5.219c2.694-0.187,5.037,1.851,5.224,4.551
			c0.074,1.041,1.552,25.601-17.603,34.271l-1.006,0.33c-0.035,0.005-6.064,1.512-5.932,4.816c0.108,2.71-1.998,4.999-4.708,5.102
			C153.521,101.323,153.458,101.323,153.389,101.323z M163.214,86.593h0.049H163.214z"/>
	</g>
	<g>
		<path fill="#A46F3E" d="M173.034,76.773c0,0-17.799-6.138-19.64-4.91"/>
		<path fill="#A46F3E" d="M173.034,81.683c-0.531,0-1.07-0.088-1.601-0.27c-6.403-2.205-14.426-4.566-16.847-4.788
			c-1.954,0.491-4.09-0.27-5.278-2.042c-1.502-2.259-0.894-5.303,1.36-6.811c1.812-1.208,3.864-2.578,23.966,4.355
			c2.563,0.884,3.923,3.678,3.04,6.241C176.977,80.406,175.071,81.683,173.034,81.683z M156.119,75.948l-0.005,0.005
			C156.113,75.953,156.113,75.948,156.119,75.948z"/>
	</g>
	<g>
		<path fill="#A46F3E" d="M295.215,245.024c-11.318-4.562-16.797-17.431-12.241-28.748c2.181-5.411,6.289-9.438,11.189-11.721
			c-8.376-5.038-12.137-15.501-8.366-24.859c0.835-2.076,2.043-3.869,3.417-5.484c-2.175-0.309-4.346-0.85-6.477-1.704
			c-14.15-5.7-20.999-21.79-15.299-35.936c1.276-3.167,3.093-5.941,5.269-8.317c-5.283-4.218-11.067-7.969-17.337-11.146
			c-49.581-25.134-110.157-5.317-135.291,44.269c-25.135,49.587-5.317,110.156,44.269,135.291
			c49.586,25.134,110.156,5.317,135.291-44.27c0.986-1.944,1.776-3.927,2.626-5.9C299.903,246.369,297.526,245.957,295.215,245.024z
			"/>
		<path fill="#A46F3E" d="M209.751,312.507c-16.361,0-32.607-3.844-47.623-11.459c-25.154-12.752-43.832-34.527-52.601-61.326
			c-8.769-26.8-6.574-55.41,6.172-80.559c12.747-25.149,34.532-43.832,61.331-52.602c26.799-8.769,55.41-6.584,80.559,6.172
			c6.432,3.255,12.545,7.188,18.182,11.681l4.104,3.28l-3.549,3.874c-1.876,2.047-3.335,4.35-4.336,6.845
			c-4.675,11.612,0.967,24.864,12.584,29.548c1.65,0.667,3.389,1.125,5.322,1.395l8.823,1.247l-5.765,6.795
			c-1.197,1.409-2.052,2.765-2.602,4.14c-2.818,7.001-0.147,14.911,6.344,18.819l7.915,4.763l-8.376,3.895
			c-3.997,1.86-7.091,5.096-8.706,9.103c-1.719,4.257-1.67,8.927,0.128,13.154c1.797,4.218,5.131,7.487,9.393,9.206l0,0
			c1.596,0.648,3.388,1.017,5.479,1.129l7.007,0.384l-3.275,7.664c-0.707,1.665-1.409,3.334-2.239,4.97
			c-12.756,25.153-34.532,43.836-61.331,52.605C231.89,310.749,220.793,312.507,209.751,312.507z M209.957,111.094
			c-10.021,0-20.077,1.586-29.873,4.797c-24.304,7.954-44.062,24.898-55.625,47.71c-11.563,22.812-13.552,48.761-5.603,73.065
			s24.894,44.063,47.706,55.626c22.812,11.558,48.757,13.552,73.066,5.598c24.284-7.949,44.027-24.864,55.59-47.652
			c-0.628-0.196-1.246-0.412-1.851-0.657c-6.692-2.701-11.932-7.836-14.76-14.471c-2.823-6.638-2.896-13.978-0.201-20.671
			c1.636-4.041,4.203-7.581,7.482-10.369c-6.333-6.973-8.342-17.063-4.659-26.205c0.078-0.191,0.157-0.378,0.241-0.569
			c-0.192-0.073-0.389-0.147-0.58-0.227c-16.635-6.702-24.717-25.689-18.02-42.324c0.785-1.944,1.753-3.805,2.912-5.568
			c-4.012-2.882-8.249-5.455-12.644-7.684C239.53,114.584,224.79,111.094,209.957,111.094z"/>
	</g>
	<circle fill="#6A3311" cx="203.501" cy="165.134" r="17.186"/>
	<circle fill="#4C312C" cx="172.42" cy="226.444" r="17.185"/>
	<circle fill="#8C572C" cx="236.015" cy="242.167" r="17.185"/>
	<path fill="#8C572C" d="M234.565,309.649c-0.746,0-1.502-0.167-2.215-0.53c-2.42-1.222-3.382-4.184-2.159-6.599
		c2.097-4.135-3.055-12.555-13.08-17.642c-2.422-1.229-3.384-4.184-2.16-6.6c1.222-2.416,4.177-3.393,6.599-2.154
		c14.734,7.468,22.374,21.014,17.396,30.834C238.086,308.668,236.358,309.649,234.565,309.649z"/>
	<path fill="#4C312C" d="M237.693,140.588c-0.746,0-1.503-0.167-2.215-0.53c-12.068-6.118-16.914-20.927-10.796-33
		c1.228-2.416,4.178-3.397,6.599-2.155c2.42,1.222,3.383,4.178,2.16,6.599c-3.673,7.248-0.766,16.129,6.477,19.802
		c2.421,1.223,3.383,4.184,2.16,6.599C241.214,139.606,239.485,140.588,237.693,140.588z"/>
	<path fill="#8C572C" d="M147.403,188.396c-0.747,0-1.502-0.166-2.214-0.529c-4.89-2.48-8.298-6.737-9.835-11.594
		c-1.355,0.752-2.799,1.38-4.301,1.877c-6.236,2.032-12.883,1.526-18.736-1.443c-2.42-1.228-3.383-4.184-2.161-6.6
		c1.228-2.416,4.179-3.397,6.599-2.155c3.516,1.783,7.502,2.092,11.244,0.864c3.736-1.223,6.776-3.825,8.553-7.341
		c1.228-2.416,4.178-3.397,6.599-2.155c2.42,1.223,3.383,4.184,2.16,6.599c-2.45,4.827-0.511,10.748,4.321,13.198
		c2.421,1.222,3.383,4.184,2.161,6.599C150.924,187.415,149.195,188.396,147.403,188.396z"/>
	<path fill="#8C572C" d="M151.101,287.569c-3.511,0-7.262-0.952-11.146-3.274c-2.327-1.395-3.083-4.409-1.688-6.737
		c1.389-2.322,4.404-3.078,6.736-1.694c10.826,6.492,19.39-6.525,19.748-7.08c8.082-15.172,25.984-13.188,26.745-13.069
		c2.69,0.328,4.605,2.779,4.276,5.469c-0.329,2.687-2.833,4.61-5.449,4.276c-0.561-0.078-12.045-1.207-17.112,8.288
		C169.479,279.57,161.279,287.569,151.101,287.569z"/>
</g>
</svg>
