<?xml version="1.0" encoding="utf-8"?>
<!-- Generator: Adobe Illustrator 16.0.0, SVG Export Plug-In . SVG Version: 6.00 Build 0)  -->
<!DOCTYPE svg PUBLIC "-//W3C//DTD SVG 1.1//EN" "http://www.w3.org/Graphics/SVG/1.1/DTD/svg11.dtd">
<svg version="1.1" id="Layer_1" xmlns="http://www.w3.org/2000/svg" xmlns:xlink="http://www.w3.org/1999/xlink" x="0px" y="0px"
	 width="350px" height="350px" viewBox="0 0 350 350" enable-background="new 0 0 350 350" xml:space="preserve">
<g>
	<g>
		<path d="M259.567,96.468c-2.467-4.109-6.179-6.467-10.194-6.467c-4.008,0-7.72,2.358-10.187,6.467
			c-0.039,0.063-0.07,0.125-0.102,0.183c-0.086-0.086-0.163-0.176-0.249-0.261c1.627-3.334,2.568-7.342,2.568-11.704
			c0-11.914-6.997-21.249-15.938-21.249c-4.521,0-8.545,2.396-11.417,6.303c-0.801-3.429-2.179-6.591-4.085-9.257
			c-3.479-4.875-8.482-7.673-13.711-7.673c-5.238,0-10.234,2.798-13.721,7.673c-3.026,4.242-4.738,9.743-4.863,15.56
			c-0.023,0.004-0.047,0.008-0.07,0.012c0.039-0.677,0.055-1.346,0.055-1.992c0-6.821-2.031-13.288-5.728-18.213
			c-3.977-5.307-9.634-8.35-15.517-8.35c-5.884,0-11.541,3.042-15.525,8.35c-3.689,4.926-5.728,11.393-5.728,18.213
			c0,6.747,1.962,15.366,5.128,22.49c0.202,0.464,0.405,0.906,0.615,1.338c-7.455,7.498-13.471,16.245-17.891,26.058
			c-2.801,6.217-4.958,12.872-6.466,19.902c-0.226,0.129-0.444,0.272-0.646,0.436l-26.56,21.252
			c-1.261,1.008-1.992,2.533-1.992,4.147v74.369c0,2.941,2.381,5.323,5.315,5.323h53.112c2.934,0,5.315-2.382,5.315-5.323v-74.368
			c0-1.614-0.731-3.14-1.992-4.147l-22.475-17.984c1.339-6.735,3.322-13.062,5.938-18.938c2.249-5.047,4.98-9.766,8.147-14.144
			c-0.561,5.572-0.179,11.611,1.136,18.17c2.77,13.817,9.245,27.65,14.949,39.856c4.902,10.482,9.533,20.374,9.696,26.217
			c0.327,11.299-1.292,19.548-3.175,29.088c-1.58,8.055-3.377,17.183-4.405,29.806c-1.409,17.354,1.253,29.416,8.14,36.887
			c4.895,5.308,11.705,8,20.248,8c0,0,0,0,0.009,0c4.631,0,9.876-0.81,15.603-2.405c15.681-4.365,29.393-28.171,40.747-70.738
			c8.599-32.225,13.735-68.771,13.735-85.488c0-6.393-0.771-12.548-2.297-18.408c1.724-1.102,3.256-2.705,4.478-4.743
			c1.992-3.319,3.09-7.626,3.09-12.125C262.656,104.099,261.56,99.791,259.567,96.468z M140.464,172.241v66.509H97.967v-66.509
			l16.357-13.085c-0.272,3.439-0.42,6.949-0.42,10.532c0,2.934,2.381,5.312,5.315,5.312s5.307-2.377,5.307-5.312
			c0-3.37,0.14-6.657,0.405-9.875L140.464,172.241z M225.467,74.064c2.171,0,5.314,4.136,5.314,10.623
			c0,1.545-0.179,2.954-0.482,4.203c-3.167-2.351-6.528-4.428-10.039-6.218C220.829,77.356,223.537,74.064,225.467,74.064z
			 M196.254,63.438c3.766,0,7.968,5.455,7.968,13.28c0,0.023,0,0.047,0,0.07c-5.027-1.179-10.155-1.794-15.268-1.794
			c-0.202,0-0.397,0.004-0.6,0.008C188.915,68.107,192.767,63.438,196.254,63.438z M145.779,74.064
			c0-8.642,4.872-15.938,10.631-15.938c5.759,0,10.623,7.296,10.623,15.938c0,1.638-0.171,3.49-0.483,5.432
			c-3.229,1.428-6.241,3.186-8.996,5.252c-2.615,1.591-5.417,3.491-8.296,5.731C147.157,85.115,145.779,78.737,145.779,74.064z
			 M233.389,226.617c-4.73,17.735-9.953,32.226-15.517,43.081c-7.518,14.654-13.837,19.05-17.82,20.163
			c-4.794,1.339-9.081,2.008-12.748,2.008h-0.008c-5.532,0-9.603-1.494-12.443-4.576c-4.692-5.089-6.49-14.785-5.354-28.824
			c0.98-12.016,2.708-20.832,4.241-28.606c2.001-10.179,3.728-18.958,3.37-31.455c-0.233-8.046-5.081-18.404-10.692-30.408
			c-5.455-11.661-11.634-24.879-14.164-37.447c-2.716-13.533-0.653-24.085,6.303-32.268c1.471-1.731,3.121-3.295,4.918-4.688
			c7.137-4.288,12.435-5.906,12.514-5.934c0.537-0.16,1.026-0.393,1.471-0.689c3.595-0.896,7.447-1.354,11.493-1.354
			c14.101,0,28.365,5.525,39.137,15.159c8.52,7.619,18.676,21.28,18.676,43.089C246.766,159.899,241.763,195.232,233.389,226.617z
			 M251.015,114.122c-1.229-2.626-2.614-5.151-4.163-7.576c0.421-3.408,1.829-5.482,2.521-5.883c0.832,0.479,2.661,3.3,2.661,7.93
			C252.034,110.912,251.575,112.775,251.015,114.122z"/>
	</g>
</g>
<g>
	<g>
		<path d="M119.22,185.63c-2.934,0-5.315,2.373-5.315,5.308v31.875c0,2.933,2.381,5.307,5.315,5.307s5.307-2.374,5.307-5.307
			v-31.875C124.527,188.003,122.153,185.63,119.22,185.63z"/>
	</g>
</g>
</svg>
