<?xml version="1.0" encoding="utf-8"?>
<!-- Generator: Adobe Illustrator 16.0.0, SVG Export Plug-In . SVG Version: 6.00 Build 0)  -->
<!DOCTYPE svg PUBLIC "-//W3C//DTD SVG 1.1 Tiny//EN" "http://www.w3.org/Graphics/SVG/1.1/DTD/svg11-tiny.dtd">
<svg version="1.1" baseProfile="tiny" id="Layer_1" xmlns="http://www.w3.org/2000/svg" xmlns:xlink="http://www.w3.org/1999/xlink"
	 x="0px" y="0px" width="350px" height="350px" viewBox="0 0 350 350" overflow="scroll" xml:space="preserve">
<g>
	<path fill="#15264F" d="M293.61,192.266c-2.065-14.65-12.864-23.087-21.94-27.667l1.226-1.992l-0.882-0.462
		c-0.467-0.244-11.604-5.98-26.797-5.98c-1.031,0-2.067,0.027-3.093,0.082l0.162-1.625l-1.16,0.151
		c-0.699,0.091-6.332,0.899-8.817,3.548c-3.476-3.288-17.774-16.276-29.25-18.78l-0.286-0.063l-0.27,0.112
		c-0.055,0.023-3.815,1.569-9.017,2.559v-15.512c1.841,0.529,4.93,1.237,8.295,1.237c8.805,0,14.344-4.829,15.597-13.599
		c0.848-5.929-0.409-11.028-3.634-14.745c-3.037-3.503-7.589-5.433-12.815-5.433c-2.561,0-5.187,0.459-7.818,1.364
		c-1.798-1.205-5.825-3.491-10.521-3.491c-2.601,0-5.995,0.731-9.262,3.598c-3.267-2.866-6.662-3.598-9.263-3.598
		c-4.695,0-8.722,2.286-10.52,3.491c-2.632-0.905-5.258-1.364-7.819-1.364c-5.226,0-9.777,1.93-12.815,5.433
		c-3.224,3.717-4.48,8.816-3.633,14.745c1.252,8.77,6.792,13.599,15.597,13.599c3.365,0,6.453-0.708,8.295-1.237V141.4
		c-3.395-0.874-5.629-1.793-5.672-1.811l-0.27-0.112l-0.286,0.063c-11.476,2.504-25.774,15.492-29.25,18.78
		c-2.485-2.648-8.118-3.457-8.817-3.548l-1.161-0.151l0.163,1.625c-1.025-0.055-2.062-0.082-3.093-0.082
		c-15.193,0-26.33,5.736-26.797,5.98l-0.882,0.462l1.226,1.992c-9.076,4.58-19.875,13.017-21.941,27.667
		c-1.277,9.055,1.39,16.093,1.504,16.388l1.928,4.985l-0.133-5.344c-0.156-6.209,2.057-11.825,4.212-15.781
		c-0.177,0.569-0.288,0.937-0.303,0.989l-0.019,0.07c-1.689,7.826-2.561,19.146,2.879,28.62c3.292,5.731,7.31,8.042,7.479,8.139
		l3.446,1.943l-2.221-3.273c-2.766-4.077-3.549-15.064-3.555-15.131c-0.1-4.717,0.492-8.488,1.269-11.357
		c-0.022,0.325-0.028,0.524-0.029,0.561c-0.86,13.63,4.307,22.551,8.792,27.634c4.868,5.517,9.89,7.774,10.102,7.868l3.066,1.354
		l-1.932-2.739c-10.235-14.515-7.228-29.09-5.882-33.693l1.23,1.405l0.39-1.808c1.734-8.052,12.126-15.677,15.44-17.931l0.853,2.771
		l1.012-1.618c0.715-0.386,3.838-0.79,7.581-1.102c-5.67,2.641-9.908,6.251-10.146,6.455l-1.334,1.148l2.643,0.705
		c-6.784,8.824-7.087,18.753-7.061,21.03c-2.532,2.232-2.687,4.109-2.695,4.308c-1.178,18.607,9.413,27.351,9.845,27.698
		c8.972,7.61,19.996,11.469,32.768,11.469c0,0,0.003,0,0.003,0c16.203-0.001,29.213-6.201,29.759-6.466l4.683-2.265l-5.177,0.505
		c-1.125,0.109-2.26,0.165-3.372,0.165c-18.469,0-30.366-15.282-34.493-21.597c1.977,0.717,3.826,0.902,5.21,0.902
		c1.222,0,2.008-0.148,2.015-0.15c2.318-0.38,4.648-0.573,6.926-0.573c9.628,0,15.611,3.44,15.669,3.475l2.043,1.205l-0.681-2.271
		c-2.369-7.897-9.293-13.944-20.023-17.486c-6.364-2.101-12.217-2.741-14.498-2.922l0.199-1.654l-1.876-0.794
		c0.601-2.387,0.492-6.157,0.392-7.988h0.546l0.202-0.655c1.352-4.393,9.59-5.455,9.673-5.465l0.214-0.026l1.322-0.863
		c0.356,0.015,0.71,0.021,1.058,0.021c3.625,0,5.946-0.788,6.947-1.222c6.602,4.72,11.994,5.723,15.384,5.723
		c2.55,0,4.03-0.571,4.092-0.596l0.141-0.055l0.117-0.099c3.875-3.264,10.184-4.091,11.01-4.188
		c0.827,0.097,7.135,0.924,11.011,4.188l0.115,0.099l0.143,0.055c0.062,0.024,1.541,0.596,4.091,0.596
		c3.391,0,8.783-1.003,15.384-5.723c1.001,0.434,3.322,1.222,6.947,1.222c0.347,0,0.701-0.007,1.058-0.021l1.322,0.863l0.214,0.026
		c0.084,0.01,8.321,1.072,9.673,5.465l0.202,0.655h0.546c-0.1,1.831-0.21,5.602,0.392,7.988l-1.876,0.794l0.199,1.654
		c-2.281,0.181-8.135,0.821-14.499,2.922c-10.729,3.542-17.653,9.589-20.022,17.486l-0.682,2.271l2.042-1.205
		c0.059-0.034,6.042-3.475,15.67-3.475c2.277,0,4.608,0.193,6.926,0.573c0.007,0.002,0.793,0.15,2.015,0.15
		c1.385,0,3.233-0.186,5.211-0.902c-4.127,6.314-16.023,21.597-34.493,21.597c-1.111,0-2.246-0.056-3.371-0.165l-5.177-0.505
		l4.683,2.265c0.546,0.265,13.556,6.465,29.759,6.466c0,0,0.003,0,0.004,0c12.771,0,23.795-3.858,32.768-11.469
		c0.433-0.348,11.023-9.091,9.845-27.698c-0.008-0.198-0.163-2.075-2.695-4.308c0.027-2.277-0.276-12.206-7.061-21.03l2.644-0.705
		l-1.335-1.148c-0.238-0.204-4.476-3.814-10.146-6.455c3.742,0.312,6.865,0.716,7.581,1.102l1.011,1.618l0.854-2.771
		c3.313,2.254,13.706,9.879,15.44,17.931l0.389,1.808l1.23-1.405c1.346,4.604,4.353,19.179-5.882,33.693l-1.932,2.739l3.065-1.354
		c0.212-0.094,5.234-2.352,10.102-7.868c4.485-5.083,9.651-14.004,8.792-27.634c-0.001-0.036-0.008-0.235-0.029-0.561
		c0.777,2.869,1.369,6.641,1.27,11.357c-0.006,0.066-0.789,11.054-3.555,15.131l-2.222,3.273l3.446-1.943
		c0.169-0.097,4.188-2.407,7.479-8.139c5.439-9.475,4.567-20.794,2.878-28.62l-0.018-0.07c-0.017-0.053-0.126-0.42-0.304-0.989
		c2.155,3.956,4.367,9.572,4.212,15.781l-0.134,5.344l1.929-4.985C292.221,208.358,294.888,201.32,293.61,192.266z"/>
	<path fill="#FFFFFF" d="M210.588,102.269c-2.232-2.574-5.662-3.992-9.659-3.992c-2.39,0-4.872,0.497-7.38,1.475l-1.131,0.441
		l-0.943-0.763c-0.04-0.033-4.107-3.28-8.885-3.28c-3.615,0-6.728,1.952-9.262,5.796c-2.535-3.844-5.647-5.796-9.263-5.796
		c-4.777,0-8.844,3.247-8.884,3.28l-0.943,0.763l-1.131-0.441c-2.507-0.978-4.99-1.475-7.38-1.475c-3.996,0-7.426,1.418-9.658,3.992
		c-2.406,2.774-3.324,6.722-2.654,11.415c0.962,6.736,4.711,10.011,11.459,10.011c0,0,0,0,0.001,0c4.465,0,8.519-1.515,8.56-1.529
		l0.891-0.338l0.842,0.451c2.539,1.366,5.137,2.06,7.724,2.06c5.076,0,8.909-2.615,10.438-3.85c1.528,1.234,5.361,3.85,10.437,3.85
		c2.587,0,5.186-0.693,7.725-2.06l0.842-0.451l0.891,0.338c0.041,0.015,4.095,1.529,8.56,1.529c0.001,0,0,0,0.001,0
		c6.748,0,10.497-3.274,11.459-10.011C213.912,108.99,212.994,105.043,210.588,102.269z"/>
	<path fill="#ED1C24" d="M100.55,213.271c0,0,0.735-13.97,8.978-19.658c0,0-4.024,9.288-1.548,16.563
		C107.98,210.176,102.563,211.567,100.55,213.271z"/>
	<path fill="#ED1C24" d="M109.528,190.944c0,0,3.831,0.231,5.688,1.509c0,0,5.92-7.43,17.065-8.126
		C132.281,184.327,120.092,183.631,109.528,190.944z"/>
	<path fill="#ED1C24" d="M105.658,215.129c0,0-6.81,2.166-7.584,4.488c0,0-2.631,39.934,50.613,33.587
		C148.688,253.204,105.04,252.122,105.658,215.129z"/>
	<path fill="#ED1C24" d="M100.55,175.505c0,0-14.936,6.269-20.74,15.787c0,0,3.831,2.205,4.759,4.411
		C84.569,195.703,87.82,183.631,100.55,175.505z"/>
	<path fill="#ED1C24" d="M78.727,194.388c0,0-7.771,22.329,6.54,36.605c0,0-9.883-13.26-3.483-34.013
		C81.783,196.98,80.274,194.349,78.727,194.388z"/>
	<path fill="#ED1C24" d="M76.62,178.175c0,0-12.133,8.126-11.553,28.789c0,0,0.348,8.241,5.224,16.483c0,0-4.527-10.68-3.483-18.689
		c0,0,1.045-13.698,11.609-24.262C78.417,180.496,77.377,179.22,76.62,178.175z"/>
	<path fill="#ED1C24" d="M77.14,174.344c0,0,2.73,2.67,3.803,5.456c0,0,6.412-9.402,21.271-14.395
		C102.214,165.405,85.73,167.727,77.14,174.344z"/>
	<path fill="#ED1C24" d="M102.969,173.415c0,0,1.586,2.845,2.07,4.76h8.436l-2.206-1.857l-0.58-2.902
		C110.689,173.415,105.407,173.125,102.969,173.415z"/>
	<path fill="#ED1C24" d="M105.059,161.864c0,0,0.813,2.438,0.581,4.702c0,0,5.514,0.464,6.675,1.451l1.509-3.076
		C113.823,164.941,111.211,162.097,105.059,161.864z"/>
	<path fill="#ED1C24" d="M81.358,163.509c0,0,10.318-4.992,24.765-4.565c0,0-17.181,1.238-22.908,7.274L81.358,163.509z"/>
	<path fill="#ED1C24" d="M80.391,166.798c0,0-19.502,7.43-21.94,29.95C58.45,196.748,62.629,179.22,80.391,166.798z"/>
	<path fill="#ED1C24" d="M110.457,157.163v2.244c0,0,4.02,0.542,5.531,2.09C115.988,161.497,115.255,158.711,110.457,157.163z"/>
	<path fill="#ED1C24" d="M115.988,177.13l-2.513-2.09c0,0,2.438-4.527,5.34-4.875c0,0,7.429,0,24.61,8.01
		c7.281,3.394,21.592,9.116,28.917,8.384c0,0-7.171,3.495-28.917-4.785c-6.108-2.326-19.425-8.049-24.726-8.487
		c0,0-2.163,0.618-3.29,1.522L115.988,177.13z"/>
	<path fill="#ED1C24" d="M125.47,182.896c0,0,1.586-2.2,5.417-1.974c2.83,0.167,7.952,2.187,7.12,8.822c0,0-0.219-6.696-6.695-7.274
		C129.854,182.34,128.488,182.508,125.47,182.896z"/>
	<path fill="#ED1C24" d="M145.472,189.744c0,0,10.476,6.89,17.339,5.03c0,0,3.56-2.041,4.914-2.355
		C167.725,192.419,156.109,194.465,145.472,189.744z"/>
	<path fill="#ED1C24" d="M125.844,224.146c0,0,4.343,2.665,11.467,1.641c4.807-0.691,13.001-1.913,19.967,3.04
		C157.278,228.826,149.539,218.534,125.844,224.146z"/>
	<path fill="#ED1C24" d="M203.479,143.465c0,0-17.8,6.811-28.479,1.239c-10.68,5.571-28.479-1.239-28.479-1.239
		c-20.431,8.203-30.533,22.753-30.533,22.753c9.71-3.096,29.281,9.954,38.736,13.931c12.735,5.355,20.276,4.16,20.276,4.16
		s7.541,1.195,20.276-4.16c9.455-3.977,29.025-17.026,38.735-13.931C234.012,166.218,223.91,151.668,203.479,143.465z"/>
	<path fill="#ED1C24" d="M249.449,213.271c0,0-0.735-13.97-8.977-19.658c0,0,4.023,9.288,1.548,16.563
		C242.021,210.176,247.438,211.567,249.449,213.271z"/>
	<path fill="#ED1C24" d="M240.473,190.944c0,0-3.831,0.231-5.689,1.509c0,0-5.92-7.43-17.063-8.126
		C217.72,184.327,229.908,183.631,240.473,190.944z"/>
	<path fill="#ED1C24" d="M244.342,215.129c0,0,6.811,2.166,7.584,4.488c0,0,2.631,39.934-50.613,33.587
		C201.313,253.204,244.96,252.122,244.342,215.129z"/>
	<path fill="#ED1C24" d="M249.449,175.505c0,0,14.937,6.269,20.741,15.787c0,0-3.831,2.205-4.76,4.411
		C265.431,195.703,262.18,183.631,249.449,175.505z"/>
	<path fill="#ED1C24" d="M271.273,194.388c0,0,7.77,22.329-6.54,36.605c0,0,9.884-13.26,3.482-34.013
		C268.216,196.98,269.726,194.349,271.273,194.388z"/>
	<path fill="#ED1C24" d="M273.38,178.175c0,0,12.133,8.126,11.553,28.789c0,0-0.348,8.241-5.224,16.483
		c0,0,4.527-10.68,3.482-18.689c0,0-1.045-13.698-11.608-24.262C271.583,180.496,272.623,179.22,273.38,178.175z"/>
	<path fill="#ED1C24" d="M272.859,174.344c0,0-2.73,2.67-3.803,5.456c0,0-6.412-9.402-21.271-14.395
		C247.785,165.405,264.27,167.727,272.859,174.344z"/>
	<path fill="#ED1C24" d="M247.031,173.415c0,0-1.587,2.845-2.07,4.76h-8.436l2.205-1.857l0.58-2.902
		C239.311,173.415,244.593,173.125,247.031,173.415z"/>
	<path fill="#ED1C24" d="M244.941,161.864c0,0-0.813,2.438-0.58,4.702c0,0-5.515,0.464-6.675,1.451l-1.51-3.076
		C236.177,164.941,238.789,162.097,244.941,161.864z"/>
	<path fill="#ED1C24" d="M268.643,163.509c0,0-10.318-4.992-24.766-4.565c0,0,17.182,1.238,22.908,7.274L268.643,163.509z"/>
	<path fill="#ED1C24" d="M269.609,166.798c0,0,19.502,7.43,21.94,29.95C291.55,196.748,287.371,179.22,269.609,166.798z"/>
	<path fill="#ED1C24" d="M239.544,157.163v2.244c0,0-4.021,0.542-5.532,2.09C234.012,161.497,234.745,158.711,239.544,157.163z"/>
	<path fill="#ED1C24" d="M234.012,177.13l2.514-2.09c0,0-2.438-4.527-5.341-4.875c0,0-7.429,0-24.609,8.01
		c-7.281,3.394-21.592,9.116-28.917,8.384c0,0,7.17,3.495,28.917-4.785c6.107-2.326,19.425-8.049,24.726-8.487
		c0,0,2.163,0.618,3.289,1.522L234.012,177.13z"/>
	<path fill="#ED1C24" d="M224.529,182.896c0,0-1.586-2.2-5.417-1.974c-2.829,0.167-7.952,2.187-7.12,8.822
		c0,0,0.22-6.696,6.695-7.274C220.146,182.34,221.512,182.508,224.529,182.896z"/>
	<path fill="#15264F" d="M182.274,167.926c6.036-0.857,11.067-7.713,11.067-7.713c7.197-7.952,15.787-3.076,15.787-3.076
		c-3.981-0.518-6.941,0.241-9.053,1.328c0.604,2.438,1.853,10.062-5.806,10.938c-1.507,0.173-3.534,0.239-6.445-1.997h0.001
		C184.833,168.085,182.274,167.926,182.274,167.926z"/>
	<path fill="#15264F" d="M204.021,159.33c0,0,0.31,9.495-6.553,11.531c-2.202,0.653-5.057,1.645-9.08-1.384
		c0,0,3.096,4.712,8.357,3.508C200.357,172.159,206.305,170.165,204.021,159.33z"/>
	<path fill="#15264F" d="M204.718,146.254c0,0-20.896,6.269-29.718,1.045c-8.823,5.224-29.718-1.045-29.718-1.045
		c-15.126,6.291-22.739,16.325-22.739,16.325c10.332-9.402,23.087-14.528,23.087-14.528c18.225,5.84,29.37,2.147,29.37,2.147
		s11.145,3.692,29.369-2.147c0,0,12.756,5.126,23.087,14.528C227.456,162.579,219.844,152.545,204.718,146.254z"/>
	<path fill="#ED1C24" d="M204.527,189.744c0,0-10.476,6.89-17.339,5.03c0,0-3.56-2.041-4.914-2.355
		C182.274,192.419,193.891,194.465,204.527,189.744z"/>
	<path fill="#15264F" d="M175,173.329c0,0-6.793-1.075-12.017,4.033c0,0,9.175-0.116,12.017,0c2.842-0.116,12.017,0,12.017,0
		C181.793,172.254,175,173.329,175,173.329z"/>
	<path fill="#ED1C24" d="M224.155,224.146c0,0-4.343,2.665-11.467,1.641c-4.807-0.691-13.001-1.913-19.966,3.04
		C192.723,228.826,200.462,218.534,224.155,224.146z"/>
	<path fill="#FFFFFF" d="M193.98,163.085c0.328,0.418,0.686,1.118,0.69,2.204c0,0,1.617-1.412,0.787-3.393l1.663-1.338
		c0,0,1.826,5.498-2.893,6.038c-0.779,0.089-1.826,0.124-3.33-1.031L193.98,163.085z"/>
	<path fill="#15264F" d="M167.725,167.926c-6.036-0.857-11.066-7.713-11.066-7.713c-7.198-7.952-15.788-3.076-15.788-3.076
		c3.981-0.518,6.941,0.241,9.053,1.328c-0.603,2.438-1.854,10.062,5.806,10.938c1.507,0.173,3.534,0.239,6.445-1.997h0
		C165.167,168.085,167.725,167.926,167.725,167.926z"/>
	<path fill="#15264F" d="M145.979,159.33c0,0-0.31,9.495,6.553,11.531c2.201,0.653,5.056,1.645,9.08-1.384
		c0,0-3.096,4.712-8.358,3.508C149.642,172.159,143.696,170.165,145.979,159.33z"/>
	<path fill="#FFFFFF" d="M156.02,163.085c-0.328,0.418-0.686,1.118-0.69,2.204c0,0-1.617-1.412-0.788-3.393l-1.663-1.338
		c0,0-1.826,5.498,2.893,6.038c0.778,0.089,1.826,0.124,3.33-1.031L156.02,163.085z"/>
	<path fill="#FFFFFF" d="M183.765,128.517c-4.335,0-7.921-1.487-10.396-2.943v-0.047c-0.014,0.008-0.027,0.016-0.041,0.023
		c-0.014-0.008-0.028-0.016-0.041-0.023v0.047c-2.476,1.456-6.062,2.943-10.397,2.943c-1.859,0-3.712-0.276-5.542-0.824v14.504
		l2.347,0.055l1.345-12.774l1.47,12.839l3.284,0.076l1.36-12.915l1.485,12.979l3.254,0.075l1.375-13.055l1.495,13.055l3.252-0.074
		l1.366-12.98l1.479,12.915l3.284-0.076l1.352-12.839l1.462,12.774l2.35-0.055v-14.504
		C187.477,128.24,185.624,128.517,183.765,128.517z"/>
</g>
</svg>
