<?xml version="1.0" encoding="utf-8"?>
<!-- Generator: Adobe Illustrator 16.0.0, SVG Export Plug-In . SVG Version: 6.00 Build 0)  -->
<!DOCTYPE svg PUBLIC "-//W3C//DTD SVG 1.1//EN" "http://www.w3.org/Graphics/SVG/1.1/DTD/svg11.dtd">
<svg version="1.1" id="Capa_1" xmlns="http://www.w3.org/2000/svg" xmlns:xlink="http://www.w3.org/1999/xlink" x="0px" y="0px"
	 width="350px" height="350px" viewBox="0 0 350 350" enable-background="new 0 0 350 350" xml:space="preserve">
<g id="XMLID_8_">
	<path id="XMLID_128_" fill="#CCB375" d="M290.071,268.725H59.929c-7.936,0-14.358-6.427-14.358-14.358V95.634
		c0-7.931,6.422-14.358,14.358-14.358h230.142c7.931,0,14.357,6.427,14.357,14.358v158.732
		C304.429,262.298,298.002,268.725,290.071,268.725"/>
	<path id="XMLID_127_" fill="#7A693C" d="M112.517,206.241H72.35c-2.468,0-4.463,2-4.463,4.463c0,2.465,1.995,4.464,4.463,4.464
		h40.167c2.468,0,4.463-1.999,4.463-4.464C116.98,208.241,114.985,206.241,112.517,206.241"/>
	<path id="XMLID_126_" fill="#7A693C" d="M175,210.704c0-2.463-1.995-4.463-4.463-4.463H130.37c-2.468,0-4.463,2-4.463,4.463
		c0,2.465,1.995,4.464,4.463,4.464h40.167C173.005,215.168,175,213.169,175,210.704"/>
	<path id="XMLID_125_" fill="#7A693C" d="M76.813,228.557H72.35c-2.468,0-4.463,2-4.463,4.463c0,2.464,1.995,4.463,4.463,4.463
		h4.463c2.468,0,4.463-1.999,4.463-4.463C81.276,230.557,79.281,228.557,76.813,228.557"/>
	<path id="XMLID_124_" fill="#7A693C" d="M103.591,228.557h-8.926c-2.468,0-4.463,2-4.463,4.463c0,2.464,1.995,4.463,4.463,4.463
		h8.926c2.468,0,4.463-1.999,4.463-4.463C108.054,230.557,106.059,228.557,103.591,228.557"/>
	<path id="XMLID_123_" fill="#7A693C" d="M125.906,228.557h-4.463c-2.468,0-4.463,2-4.463,4.463c0,2.464,1.995,4.463,4.463,4.463
		h4.463c2.468,0,4.463-1.999,4.463-4.463C130.37,230.557,128.375,228.557,125.906,228.557"/>
	<path id="XMLID_122_" fill="#7A693C" d="M152.685,228.557h-8.926c-2.468,0-4.463,2-4.463,4.463c0,2.464,1.995,4.463,4.463,4.463
		h8.926c2.468,0,4.463-1.999,4.463-4.463C157.148,230.557,155.153,228.557,152.685,228.557"/>
	<path id="XMLID_121_" fill="#7A693C" d="M167.368,229.852c-0.808,0.848-1.294,2.008-1.294,3.168c0,1.161,0.486,2.321,1.294,3.169
		c0.844,0.803,2.008,1.294,3.168,1.294c1.161,0,2.317-0.491,3.169-1.294c0.804-0.848,1.294-2.008,1.294-3.169
		c0-1.16-0.491-2.32-1.294-3.168C172.01,228.2,168.966,228.2,167.368,229.852"/>
	<path id="XMLID_120_" fill="#E74C3D" d="M250.872,219.631c0,14.791-11.988,26.778-26.778,26.778
		c-14.791,0-26.779-11.987-26.779-26.778s11.988-26.778,26.779-26.778C238.884,192.853,250.872,204.84,250.872,219.631"/>
	<path id="XMLID_119_" fill="#F0C41B" d="M282.113,219.631c0,14.791-11.987,26.778-26.778,26.778
		c-14.79,0-26.778-11.987-26.778-26.778s11.988-26.778,26.778-26.778C270.126,192.853,282.113,204.84,282.113,219.631"/>
	<path id="XMLID_118_" fill="#F0C41B" d="M138.158,170.537H77.951c-3.088,0-5.601-2.508-5.601-5.602v-42.354
		c0-3.093,2.513-5.601,5.601-5.601h60.207c3.093,0,5.601,2.508,5.601,5.601v42.354C143.759,168.029,141.25,170.537,138.158,170.537"
		/>
	<path id="XMLID_115_" fill="#F3D55C" d="M138.158,175H77.951c-5.547,0-10.064-4.517-10.064-10.064v-42.354
		c0-5.548,4.517-10.064,10.064-10.064h60.207c5.547,0,10.064,4.517,10.064,10.064v42.354C148.222,170.483,143.705,175,138.158,175
		 M77.951,121.443c-0.634,0-1.138,0.509-1.138,1.138v42.354c0,0.63,0.504,1.139,1.138,1.139h60.207c0.629,0,1.138-0.509,1.138-1.139
		v-42.354c0-0.629-0.509-1.138-1.138-1.138H77.951z"/>
	<path id="XMLID_114_" fill="#F0C41B" d="M143.759,122.582c0-3.093-2.508-5.601-5.601-5.601H116.98h-12.251
		c-3.098,0-5.602,2.508-5.602,5.601v12.251v30.103c0,3.093,2.504,5.602,5.602,5.602h6.65c3.092,0,5.601-2.508,5.601-5.602v-24.502
		c0-3.093,2.508-5.601,5.601-5.601h15.576c3.093,0,5.601-2.508,5.601-5.601V122.582z"/>
	<path id="XMLID_111_" fill="#F3D55C" d="M111.379,175h-6.65c-5.548,0-10.064-4.517-10.064-10.064v-42.354
		c0-5.548,4.517-10.064,10.064-10.064h33.428c5.547,0,10.064,4.517,10.064,10.064v6.65c0,5.547-4.517,10.064-10.064,10.064h-15.576
		c-0.634,0-1.138,0.509-1.138,1.138v24.502C121.443,170.483,116.927,175,111.379,175 M104.729,121.443
		c-0.634,0-1.139,0.509-1.139,1.138v42.354c0,0.63,0.505,1.139,1.139,1.139h6.65c0.629,0,1.138-0.509,1.138-1.139v-24.502
		c0-5.547,4.517-10.064,10.064-10.064h15.576c0.629,0,1.138-0.509,1.138-1.138v-6.65c0-0.629-0.509-1.138-1.138-1.138H104.729z"/>
	<line id="XMLID_110_" fill="none" x1="116.98" y1="152.685" x2="143.759" y2="152.685"/>
	<path id="XMLID_109_" fill="#F3D55C" d="M143.759,157.148H116.98c-2.468,0-4.463-2-4.463-4.463c0-2.463,1.995-4.463,4.463-4.463
		h26.778c2.468,0,4.463,2,4.463,4.463C148.222,155.148,146.227,157.148,143.759,157.148"/>
	<line id="XMLID_108_" fill="none" x1="99.128" y1="134.833" x2="72.35" y2="134.833"/>
	<path id="XMLID_107_" fill="#F3D55C" d="M99.128,139.295H72.35c-2.468,0-4.463-2-4.463-4.463c0-2.464,1.995-4.463,4.463-4.463
		h26.778c2.468,0,4.463,1.999,4.463,4.463C103.591,137.296,101.596,139.295,99.128,139.295"/>
	<line id="XMLID_106_" fill="none" x1="99.128" y1="152.685" x2="72.35" y2="152.685"/>
	<path id="XMLID_105_" fill="#F3D55C" d="M99.128,157.148H72.35c-2.468,0-4.463-2-4.463-4.463c0-2.463,1.995-4.463,4.463-4.463
		h26.778c2.468,0,4.463,2,4.463,4.463C103.591,155.148,101.596,157.148,99.128,157.148"/>
</g>
</svg>
