<?xml version="1.0" encoding="utf-8"?>
<!-- Generator: Adobe Illustrator 16.0.0, SVG Export Plug-In . SVG Version: 6.00 Build 0)  -->
<!DOCTYPE svg PUBLIC "-//W3C//DTD SVG 1.1//EN" "http://www.w3.org/Graphics/SVG/1.1/DTD/svg11.dtd">
<svg version="1.1" id="Capa_1" xmlns="http://www.w3.org/2000/svg" xmlns:xlink="http://www.w3.org/1999/xlink" x="0px" y="0px"
	 width="350px" height="350px" viewBox="0 0 350 350" enable-background="new 0 0 350 350" xml:space="preserve">
<g id="XMLID_7_">
	<path id="XMLID_130_" fill="#6BBEA1" d="M288.864,267.742H61.136c-7.852,0-14.207-6.359-14.207-14.208V96.466
		c0-7.848,6.355-14.207,14.207-14.207h227.729c7.848,0,14.207,6.359,14.207,14.207v157.068
		C303.071,261.383,296.712,267.742,288.864,267.742"/>
	<rect id="XMLID_129_" x="69.01" y="210.33" fill="#498679" width="39.747" height="26.497"/>
	<rect id="XMLID_128_" x="126.421" y="210.33" fill="#498679" width="39.746" height="26.497"/>
	<rect id="XMLID_127_" x="183.832" y="210.33" fill="#498679" width="39.746" height="26.497"/>
	<rect id="XMLID_126_" x="241.244" y="210.33" fill="#498679" width="39.746" height="26.497"/>
	<path id="XMLID_125_" fill="#F0C41B" d="M134.127,161.751H74.552c-3.056,0-5.542-2.482-5.542-5.542v-41.91
		c0-3.061,2.486-5.542,5.542-5.542h59.575c3.061,0,5.542,2.482,5.542,5.542v41.91C139.67,159.27,137.188,161.751,134.127,161.751"/>
	<path id="XMLID_122_" fill="#F3D55C" d="M134.127,166.167H74.552c-5.489,0-9.958-4.469-9.958-9.958v-41.91
		c0-5.49,4.469-9.959,9.958-9.959h59.575c5.49,0,9.959,4.469,9.959,9.959v41.91C144.086,161.698,139.617,166.167,134.127,166.167
		 M74.552,113.172c-0.627,0-1.126,0.503-1.126,1.126v41.91c0,0.623,0.499,1.126,1.126,1.126h59.575c0.623,0,1.126-0.504,1.126-1.126
		v-41.91c0-0.623-0.503-1.126-1.126-1.126H74.552z"/>
	<path id="XMLID_121_" fill="#F0C41B" d="M139.67,114.299c0-3.065-2.481-5.542-5.542-5.542h-20.955H101.05
		c-3.065,0-5.542,2.478-5.542,5.542v12.123v29.788c0,3.061,2.478,5.542,5.542,5.542h6.58c3.061,0,5.542-2.482,5.542-5.542v-24.246
		c0-3.06,2.478-5.542,5.542-5.542h15.413c3.061,0,5.542-2.482,5.542-5.542V114.299z"/>
	<path id="XMLID_118_" fill="#F3D55C" d="M107.63,166.167h-6.58c-5.489,0-9.958-4.469-9.958-9.958v-41.91
		c0-5.49,4.469-9.959,9.958-9.959h33.078c5.49,0,9.959,4.469,9.959,9.959v6.58c0,5.489-4.469,9.958-9.959,9.958h-15.413
		c-0.627,0-1.126,0.504-1.126,1.126v24.246C117.589,161.698,113.12,166.167,107.63,166.167 M101.05,113.172
		c-0.627,0-1.126,0.503-1.126,1.126v41.91c0,0.623,0.5,1.126,1.126,1.126h6.58c0.623,0,1.126-0.504,1.126-1.126v-24.246
		c0-5.489,4.469-9.958,9.958-9.958h15.413c0.623,0,1.126-0.503,1.126-1.126v-6.58c0-0.623-0.503-1.126-1.126-1.126H101.05z"/>
	<line id="XMLID_117_" fill="none" x1="113.172" y1="144.086" x2="139.67" y2="144.086"/>
	<path id="XMLID_116_" fill="#F3D55C" d="M139.67,148.502h-26.498c-2.442,0-4.416-1.978-4.416-4.416s1.974-4.417,4.416-4.417h26.498
		c2.442,0,4.417,1.979,4.417,4.417S142.112,148.502,139.67,148.502"/>
	<line id="XMLID_115_" fill="none" x1="95.507" y1="126.421" x2="69.01" y2="126.421"/>
	<path id="XMLID_114_" fill="#F3D55C" d="M95.507,130.837H69.01c-2.442,0-4.416-1.979-4.416-4.416c0-2.438,1.974-4.416,4.416-4.416
		h26.498c2.442,0,4.416,1.978,4.416,4.416C99.923,128.859,97.95,130.837,95.507,130.837"/>
	<line id="XMLID_113_" fill="none" x1="95.507" y1="144.086" x2="69.01" y2="144.086"/>
	<path id="XMLID_112_" fill="#F3D55C" d="M95.507,148.502H69.01c-2.442,0-4.416-1.978-4.416-4.416s1.974-4.417,4.416-4.417h26.498
		c2.442,0,4.416,1.979,4.416,4.417S97.95,148.502,95.507,148.502"/>
	<path id="XMLID_111_" fill="#498679" d="M223.578,104.34h-39.746c-2.441,0-4.415,1.979-4.415,4.417
		c0,2.438,1.974,4.416,4.415,4.416h39.746c2.443,0,4.417-1.978,4.417-4.416C227.995,106.319,226.021,104.34,223.578,104.34"/>
	<path id="XMLID_110_" fill="#498679" d="M285.406,108.756c0-2.438-1.974-4.417-4.416-4.417h-39.746
		c-2.443,0-4.417,1.979-4.417,4.417c0,2.438,1.974,4.416,4.417,4.416h39.746C283.433,113.172,285.406,111.194,285.406,108.756"/>
	<path id="XMLID_109_" fill="#498679" d="M188.249,126.421h-4.417c-2.441,0-4.415,1.979-4.415,4.416
		c0,2.438,1.974,4.416,4.415,4.416h4.417c2.441,0,4.416-1.978,4.416-4.416C192.665,128.4,190.69,126.421,188.249,126.421"/>
	<path id="XMLID_108_" fill="#498679" d="M214.746,126.421h-8.832c-2.442,0-4.416,1.979-4.416,4.416
		c0,2.438,1.974,4.416,4.416,4.416h8.832c2.442,0,4.416-1.978,4.416-4.416C219.162,128.4,217.188,126.421,214.746,126.421"/>
	<path id="XMLID_107_" fill="#498679" d="M236.827,126.421h-4.416c-2.442,0-4.416,1.979-4.416,4.416
		c0,2.438,1.974,4.416,4.416,4.416h4.416c2.443,0,4.417-1.978,4.417-4.416C241.244,128.4,239.271,126.421,236.827,126.421"/>
	<path id="XMLID_106_" fill="#498679" d="M263.325,126.421h-8.832c-2.443,0-4.417,1.979-4.417,4.416
		c0,2.438,1.974,4.416,4.417,4.416h8.832c2.442,0,4.416-1.978,4.416-4.416C267.741,128.4,265.768,126.421,263.325,126.421"/>
	<path id="XMLID_105_" fill="#498679" d="M277.854,127.702c-0.799,0.839-1.281,1.987-1.281,3.135c0,1.148,0.482,2.296,1.281,3.136
		c0.835,0.795,1.938,1.28,3.136,1.28c1.148,0,2.292-0.485,3.136-1.28c0.795-0.839,1.28-1.987,1.28-3.136
		c0-1.148-0.485-2.296-1.28-3.135C282.447,126.068,279.488,126.068,277.854,127.702"/>
</g>
</svg>
