<?xml version="1.0" encoding="utf-8"?>
<!-- Generator: Adobe Illustrator 16.0.0, SVG Export Plug-In . SVG Version: 6.00 Build 0)  -->
<!DOCTYPE svg PUBLIC "-//W3C//DTD SVG 1.1 Tiny//EN" "http://www.w3.org/Graphics/SVG/1.1/DTD/svg11-tiny.dtd">
<svg version="1.1" baseProfile="tiny" id="Layer_1" xmlns="http://www.w3.org/2000/svg" xmlns:xlink="http://www.w3.org/1999/xlink"
	 x="0px" y="0px" width="350px" height="350px" viewBox="0 0 350 350" overflow="scroll" xml:space="preserve">
<g>
	<path fill="#0D322F" d="M316.937,166.38h-2.259c0,0-6.778-19.83-31.126-11.797c0,0-10.794,9.037-17.821,6.778
		c0,0-19.329-12.551-35.394-12.3c0,0,3.766-7.28,0.252-14.559c0,0-5.773-16.566-19.58-5.521c0,0-10.04-7.343-17.068-3.797
		c0,0-9.538-5.982-17.57-0.967c0,0-21.838-22.596-40.413-4.272l3.012,0.25c0,0-10.464,4.19-15.5,14.354
		c-6.113-1.255-20.758-1.543-40.829,15.893l6.756,1.567c-0.146,0.119-0.294,0.242-0.441,0.361
		c-3.033,1.132-14.517,6.129-30.247,21.696l8.6,0.811c0,0-13.451,8.611-26.387,22.02l9.398,3.347h0
		c-0.005,0.004-12.958,9.094-21.364,17.177c0,0,30.4,27.813,127.847,17.518c3.371-0.356,7.035-1.039,11.035-2.038
		c0,0,40.161,7.781,69.529-7.782c0,0,20.081-7.028,33.636-4.518c0,0,26.607,5.021,36.397-21.839c0,0,5.021-4.016,10.291-3.765
		c0,0,3.012-3.223,0-8.515C317.689,186.48,325.721,175.918,316.937,166.38z"/>
	<path fill="#119A49" d="M313.003,191.23c0,0,2.176-2.304,0-4.75c0,0-16.9-11.482-33.467,0.733c0,0,1.506,8.367-6.191,12.383
		c0,0,4.518-6.359,2.845-10.71c0,0-2.677,0.001-4.017,1.172c0,0-0.251,16.985-17.487,7.781c0,0-3.682,0.754-1.673,3.766
		c0,0,4.266,2.845,10.291,2.51c0,0-11.212,3.515-16.064-3.347c0,0-0.67-2.009,1.339-2.846c0,0-12.468,1.59-25.27,8.619
		c0,0-10.291,4.77-33.133,3.263c0,0-22.21-2.889-36.612-1.621l0,0h-0.003c-2.577,0.227-6.842,1.055-6.9,0.936
		c-3.317,0.674-7.093,1.811-9.531,3.698c0,0,3.132-5.015,7.957-7.186c-3.163-7.42-9.479-24.662-6.611-38.333l-1.597-0.933
		c-8.702,8.509-6.443,24.864-6.443,24.864c-11.713-23.093,6.694-33.23,6.694-33.23c2.313,1.416,8.948,4.927,13.878,7.506
		c20.332,10.063,67.027,31.215,97.151,29.489l6.274-0.251c0,0,6.276-12.3,7.28-17.403c0,0,7.864,7.403,8.869,9.14l7.447-2.781
		c0,0,15.563-10.542,27.945-6.358c0,0,3.265-4.897,4.899-7.404c-5.648,2.866-9.689-1.925-9.689-1.925
		c5.354,3.119,8.64,0.857,9.609-0.012c-0.366-0.474-0.877-1.092-1.526-1.784c-0.717,0.611-2.352,0.931-4.211,0.745
		c-2.438-0.244-4.331-1.265-4.229-2.278c0.103-1.013,2.159-1.637,4.596-1.392c0.255,0.025,0.502,0.062,0.743,0.103
		c-4.285-3.317-11.077-6.387-20.106-3.623c0,0-7.797,5.99-16.19,7.832c-6.76,1.482-17.068,3.924-27.652-1.306
		c0,0,15.395,1.171,19.914-1.172c-9.288-5.69-14.894-9.706-36.982-12.216c0,0-7.53-4.35-8.033-11.881c0,0,3.013,3.682,6.024,4.687
		c0,0,3.85-4.687,2.176-9.706c0,0-5.021-8.535-11.044-3.849l2.175,2.677c0,0-12.216-7.495-18.24-4.083c0,0,1.84,4.25,2.175,5.756
		c0,0-12.215-13.126-18.741-6.647l3.012,5.476c0,0-23.428-17.237-34.806-14.057l-4.016,1.339l0.836,2.343
		c0,0-7.196,1.84-5.354,11.881c0,0,8.869,7.698,12.55,16.566c0,0-15.83-14.826-28.536-12.46c-8.242,1.535-18.738,5.6-26.018,21.163
		l5.522-1.757c0,0-4.686,15.646,3.012,35.141l3.515-3.263c0,0,6.526,9.036,10.542,20.08c0,0,1.004-7.279,0-12.048
		c0,0,5.53,10.608,6.024,19.83c0,0,8.033,17.319,50.203,3.263c0,0,6.775-3.514,13.805-3.766c0,0-11.547,4.519-14.057,7.531
		c0,0,24.348,5.021,52.461-5.021c0,0,19.078-7.781,27.863-6.777c0,0-9.037-3.263-14.309-2.008c0,0,10.207-4.519,21.421-0.335
		c0,0,16.9,11.546,35.142-13.555c0,0,2.822-4.583,5.814-5.87c0,0-7.907-4.924-16.441-1.074
		C289.827,192.485,302.293,183.197,313.003,191.23z"/>
	<path fill="#119A49" d="M130.782,135.008c0,0,1.494-6.196,6.347-7.2v7.698L130.782,135.008z"/>
	<path fill="#0D322F" d="M147.002,131.657c0,0,8.869-5.689,15.729,1.172c0,0,12.216,21.084,23.93,17.236
		c0,0-2.008,5.355-10.877,2.845c0,0-24.403,4.472-23.929-16.733c0.013-0.599,0.502-2.343,0.502-2.343
		S150.683,130.82,147.002,131.657z"/>
	<path fill="#0D322F" d="M202.894,139.689c0,0,8.368,13.387,18.909,15.73C216.747,157.013,203.897,152.909,202.894,139.689z"/>
	<path fill="#0D322F" d="M193.933,147.373c4.896-8.618-2.921-10.863-2.921-10.863c3.348,4.518,0,11.546,0,11.546
		c7.698,12.132,19.579,10.041,19.579,10.041C199.547,156.759,193.933,147.373,193.933,147.373z"/>
	<path fill="#FFFFFF" d="M315.347,169.811c0,0-3.012,8.366-5.689,9.873c0,0,4.184,2.51,5.689,1.673
		C315.347,181.356,319.028,175.333,315.347,169.811z"/>
	<path fill="#FFFFFF" d="M262.969,182.57c0,0-3.326,9.538-5.084,13.303c0,0,8.279,4.311,11.986-4.769
		C269.871,191.104,266.106,185.331,262.969,182.57z"/>
	<path fill="#0D322F" d="M128.613,146.801c0,0-15.545,4.042-17.255,16.789l5.363-1.321c0,0-4.741,9.871-1.788,16.71l2.021-2.644
		c0,0,0.466,10.416,6.84,14.769c0,0-5.208-15.001-1.011-23.006c-1.236,0.094-4.43,2.487-4.43,2.487s1.632-9.913,7.534-14.17
		c0,0-5.047-0.286-8.079,1.113C117.81,157.527,122.395,150.533,128.613,146.801z"/>
	<path fill="#0D322F" d="M156.809,153.579c0,0,5.905,5.357,16.717,2.166C173.526,155.745,161.33,165.915,156.809,153.579z"/>
	
		<ellipse transform="matrix(-0.2511 -0.968 0.968 -0.2511 195.8318 484.2549)" fill="#0D322F" cx="285.252" cy="166.369" rx="2.063" ry="4.962"/>
	<path fill="#0D322F" d="M278.908,169.769c0,0,5.898,4.246,12.801-1.046C291.709,168.723,285.058,177.55,278.908,169.769z"/>
	<path fill="none" d="M153.56,208.184"/>
	<path fill="#FFFFFF" d="M175.449,181.691c0,0-3.179-0.836-4.183,0.335c0,0-5.188-8.535-11.547-5.355c0,0-4.224-8.171-8.471-4.419
		c0,0-2.574-5.787-5.586-4.448c0,0-0.766,10.594,0.625,20.897c3.469-2.028,10.72-5.918,14.938-5.67l-2.175,4.184
		c0,0,12.885-2.354,15.73-0.759l-2.175,2.6c0,0,12.863,0.711,14.703,2.05l-3.826,2.134l17.318,5.02l-25.685-3.179l2.175-1.674
		c0,0-12.049-0.502-14.559,1.004l2.435-3.771c0,0-9.595,3.604-11.604,5.444l0.634-4.853c0,0-4.388,1.447-6.961,2.812
		c0.836,3.688,2.045,7.068,3.781,9.571c0,0,7.028,1.841,10.208-3.18c0,0,7.698,5.188,12.384,0.503c0,0,16.399,9.538,55.557-1.674
		C229.166,199.263,187.162,188.887,175.449,181.691z"/>
	<path fill="#FFFFFF" d="M167.999,145.59c-0.109,0.406-0.312,0.755-0.614,1.019c-1.233,1.071-3.647,0.311-5.39-1.697
		c-1.744-2.007-2.157-4.504-0.924-5.575c0.338-0.294,0.768-0.445,1.246-0.476c-0.926-1.167-1.509-1.933-1.509-1.933
		c-1.088-1.506-4.687-1.423-4.687-1.423c-1.673,16.483,17.404,14.894,17.404,14.894C172.24,149.929,170.132,147.919,167.999,145.59z
		"/>
	<path fill="#119A49" d="M86.521,198.985c0,0,2.137,20.032,24.838,28.783C111.358,227.769,76.818,228.738,86.521,198.985z"/>
	<path fill="#119A49" d="M68.675,208.33c0,0,1.388,13.008,16.126,18.688C84.802,227.019,62.376,227.648,68.675,208.33z"/>
</g>
</svg>
