<?xml version="1.0" encoding="utf-8"?>
<!-- Generator: Adobe Illustrator 16.0.0, SVG Export Plug-In . SVG Version: 6.00 Build 0)  -->
<!DOCTYPE svg PUBLIC "-//W3C//DTD SVG 1.1 Tiny//EN" "http://www.w3.org/Graphics/SVG/1.1/DTD/svg11-tiny.dtd">
<svg version="1.1" baseProfile="tiny" id="Layer_1" xmlns="http://www.w3.org/2000/svg" xmlns:xlink="http://www.w3.org/1999/xlink"
	 x="0px" y="0px" width="350px" height="350px" viewBox="0 0 350 350" xml:space="preserve">
<path d="M238.908,122.751c-0.031,1.64-3.877,6.214-8.402,10.724h-44.17V89.503c4.508-4.524,9.084-8.369,10.723-8.398
	c-3.615,0.066-22.23-17.866-22.298-21.481c0.068,3.615-17.862,22.23-21.478,22.297c1.561-0.028,5.924,3.309,10.383,7.394v44.161
	h-44.173c-4.524-4.51-8.368-9.084-8.398-10.724c0.065,3.615-17.866,22.231-21.482,22.3c3.616-0.068,22.229,17.863,22.297,21.479
	c-0.028-1.563,3.307-5.928,7.394-10.386h44.361v104.697c-4.398,4.376-8.787,8.024-10.383,8.055
	c3.616-0.065,22.229,17.865,22.296,21.48c-0.067-3.615,17.865-22.229,21.48-22.296c-1.604,0.027-6.148-3.48-10.723-7.708V156.145
	h44.363c4.084,4.458,7.422,8.822,7.395,10.386c0.064-3.616,18.68-21.548,22.293-21.479
	C256.773,144.982,238.842,126.366,238.908,122.751z"/>
</svg>
