<?xml version="1.0" encoding="utf-8"?>
<!-- Generator: Adobe Illustrator 16.0.0, SVG Export Plug-In . SVG Version: 6.00 Build 0)  -->
<!DOCTYPE svg PUBLIC "-//W3C//DTD SVG 1.1 Tiny//EN" "http://www.w3.org/Graphics/SVG/1.1/DTD/svg11-tiny.dtd">
<svg version="1.1" baseProfile="tiny" id="Layer_1" xmlns="http://www.w3.org/2000/svg" xmlns:xlink="http://www.w3.org/1999/xlink"
	 x="0px" y="0px" width="350px" height="350px" viewBox="0 0 350 350" overflow="scroll" xml:space="preserve">
<g id="XMLID_2268_">
	<polygon id="XMLID_1525_" fill="#FAAF40" points="249.355,166.465 262.055,179.145 289.031,152.216 262.055,125.287 
		250.992,136.332 190.096,136.332 190.096,99.757 201.977,87.898 175,60.969 148.024,87.898 159.907,99.76 159.907,136.332 
		99.009,136.332 87.944,125.287 60.969,152.216 87.944,179.145 100.645,166.465 159.907,166.465 159.907,250.24 148.024,262.102 
		175,289.031 201.977,262.102 190.096,250.244 190.096,166.465 	"/>
	<image width="207" height="230" id="XMLID_2307_" xlink:href="9DAD589E.png"  transform="matrix(1 0 0 1 60 60)">
	</image>
	<g id="XMLID_2303_">
		<path id="XMLID_836_" fill="#1B1B4E" d="M175,292.832c-0.972,0-1.943-0.369-2.686-1.109l-26.976-26.93
			c-0.714-0.713-1.116-1.682-1.116-2.691s0.402-1.977,1.116-2.689l10.768-10.748v-78.397h-53.889l-11.588,11.567
			c-1.483,1.482-3.888,1.482-5.371,0l-26.976-26.928c-0.714-0.712-1.116-1.681-1.116-2.69c0-1.01,0.401-1.978,1.116-2.691
			l26.976-26.929c1.483-1.482,3.887-1.482,5.371,0l9.952,9.935h55.525v-31.194l-10.768-10.748c-0.714-0.713-1.116-1.682-1.116-2.69
			s0.402-1.977,1.116-2.689l26.976-26.93c1.483-1.482,3.889-1.482,5.371,0l26.975,26.93c0.715,0.712,1.117,1.681,1.117,2.689
			s-0.402,1.977-1.117,2.69l-10.764,10.745v31.197h55.523l9.951-9.935c1.482-1.482,3.887-1.482,5.369,0l26.977,26.929
			c0.715,0.713,1.115,1.681,1.115,2.691c0,1.009-0.4,1.978-1.115,2.69l-26.977,26.928c-1.482,1.482-3.887,1.482-5.369,0
			l-11.588-11.567h-53.887v78.399l10.764,10.746c0.715,0.713,1.117,1.68,1.117,2.689s-0.402,1.979-1.117,2.691l-26.975,26.93
			C176.943,292.463,175.972,292.832,175,292.832z M153.404,262.102L175,283.662l21.596-21.561l-9.186-9.168
			c-0.715-0.713-1.115-1.68-1.115-2.689v-83.779c0-2.1,1.701-3.801,3.801-3.801h59.26c1.006,0,1.973,0.399,2.686,1.111l10.014,9.999
			l21.598-21.558l-21.598-21.56l-8.379,8.365c-0.713,0.711-1.678,1.111-2.684,1.111h-60.896c-2.1,0-3.801-1.701-3.801-3.801V99.757
			c0-1.01,0.4-1.978,1.115-2.69l9.186-9.169L175,66.34l-21.596,21.558l9.188,9.171c0.714,0.713,1.116,1.681,1.116,2.69v36.572
			c0,2.1-1.702,3.801-3.801,3.801H99.009c-1.007,0-1.973-0.399-2.686-1.111l-8.379-8.365l-21.595,21.56l21.595,21.558l10.016-9.999
			c0.713-0.711,1.679-1.111,2.686-1.111h59.262c2.1,0,3.801,1.702,3.801,3.801v83.775c0,1.01-0.401,1.977-1.116,2.691
			L153.404,262.102z"/>
	</g>
	<image width="207" height="230" id="XMLID_2297_" xlink:href="9DAD58A2.png"  transform="matrix(1 0 0 1 83 60)">
	</image>
	<g id="XMLID_2292_">
		<path id="XMLID_1514_" fill="#FFF100" d="M190.096,118.049c8.08,3.672,14.576,10.193,18.209,18.283h16.891
			c-5.004-16.836-18.262-30.119-35.1-35.173V118.049z"/>
		<path id="XMLID_1513_" fill="#FFF100" d="M141.695,136.332c3.633-8.091,10.132-14.613,18.212-18.284v-16.891
			c-16.839,5.054-30.099,18.337-35.101,35.175H141.695z"/>
		<path id="XMLID_1512_" fill="#FFF100" d="M208.135,166.465c-3.662,7.916-10.084,14.292-18.039,17.908v16.893
			c16.713-5.018,29.906-18.143,34.992-34.8H208.135z"/>
		<path id="XMLID_1511_" fill="#FFF100" d="M159.907,184.373c-7.955-3.613-14.378-9.99-18.042-17.908h-16.953
			c5.086,16.66,18.281,29.785,34.995,34.802V184.373z"/>
	</g>
	<g id="XMLID_2275_">
		<g id="XMLID_2288_">
			<path id="XMLID_833_" fill="#1B1B4E" d="M225.195,140.133h-16.891c-1.496,0-2.854-0.879-3.467-2.244
				c-3.262-7.264-9.057-13.081-16.314-16.378c-1.357-0.618-2.229-1.971-2.229-3.461v-16.891c0-1.201,0.568-2.333,1.531-3.05
				c0.967-0.717,2.213-0.936,3.361-0.591c18.178,5.457,32.252,19.562,37.65,37.731c0.342,1.149,0.121,2.393-0.596,3.355
				C227.523,139.567,226.395,140.133,225.195,140.133z M210.68,132.531h9.135c-4.895-11.742-14.176-21.044-25.918-25.975v9.13
				C201.063,119.49,206.908,125.356,210.68,132.531z"/>
		</g>
		<g id="XMLID_2284_">
			<path id="XMLID_830_" fill="#1B1B4E" d="M141.695,140.133h-16.889c-1.2,0-2.329-0.565-3.047-1.528
				c-0.717-0.962-0.938-2.205-0.597-3.355c5.397-18.171,19.473-32.276,37.652-37.733c1.149-0.344,2.397-0.125,3.361,0.591
				c0.964,0.717,1.532,1.849,1.532,3.05v16.891c0,1.491-0.871,2.845-2.229,3.461c-7.26,3.298-13.055,9.115-16.317,16.38
				C144.549,139.254,143.191,140.133,141.695,140.133z M130.187,132.531h9.133c3.772-7.176,9.619-13.044,16.787-16.846v-9.13
				C144.363,111.485,135.08,120.789,130.187,132.531z"/>
		</g>
		<g id="XMLID_2280_">
			<path id="XMLID_827_" fill="#1B1B4E" d="M190.096,205.066c-0.809,0-1.605-0.256-2.27-0.75c-0.963-0.719-1.531-1.85-1.531-3.051
				v-16.893c0-1.49,0.871-2.844,2.229-3.461c7.135-3.242,12.875-8.939,16.16-16.042c0.623-1.344,1.971-2.206,3.451-2.206h16.953
				c1.205,0,2.338,0.572,3.055,1.54s0.932,2.218,0.58,3.371c-5.484,17.966-19.516,31.921-37.533,37.332
				C190.83,205.014,190.463,205.066,190.096,205.066z M193.896,186.736v9.131c11.605-4.877,20.826-14.043,25.764-25.601h-9.18
				C206.703,177.268,200.93,183.004,193.896,186.736z"/>
		</g>
		<g id="XMLID_2276_">
			<path id="XMLID_824_" fill="#1B1B4E" d="M159.907,205.068c-0.366,0-0.734-0.053-1.092-0.16
				c-18.02-5.41-32.053-19.365-37.538-37.332c-0.352-1.154-0.136-2.404,0.581-3.372c0.716-0.968,1.85-1.54,3.055-1.54h16.953
				c1.481,0,2.828,0.862,3.45,2.206c3.287,7.103,9.027,12.802,16.165,16.042c1.357,0.617,2.229,1.971,2.229,3.461v16.895
				c0,1.201-0.568,2.332-1.532,3.049C161.512,204.811,160.715,205.068,159.907,205.068z M130.34,170.267
				c4.937,11.56,14.16,20.724,25.767,25.603v-9.133c-7.035-3.732-12.811-9.467-16.587-16.47H130.34z"/>
		</g>
	</g>
	<ellipse id="XMLID_1510_" fill="#4F142A" cx="175" cy="151.212" rx="3.991" ry="3.984"/>
	<g id="XMLID_2271_">
		<ellipse id="XMLID_1509_" fill="#4F142A" cx="264.959" cy="151.212" rx="3.992" ry="3.984"/>
		<ellipse id="XMLID_1508_" fill="#4F142A" cx="85.041" cy="151.212" rx="3.991" ry="3.984"/>
	</g>
	<ellipse id="XMLID_1507_" fill="#4F142A" cx="175" cy="85.76" rx="3.991" ry="3.983"/>
	<circle id="XMLID_1506_" fill="#4F142A" cx="175" cy="265.367" r="3.991"/>
</g>
</svg>
