<?xml version="1.0" encoding="utf-8"?>
<!-- Generator: Adobe Illustrator 16.0.0, SVG Export Plug-In . SVG Version: 6.00 Build 0)  -->
<!DOCTYPE svg PUBLIC "-//W3C//DTD SVG 1.1 Tiny//EN" "http://www.w3.org/Graphics/SVG/1.1/DTD/svg11-tiny.dtd">
<svg version="1.1" baseProfile="tiny" id="Layer_1" xmlns="http://www.w3.org/2000/svg" xmlns:xlink="http://www.w3.org/1999/xlink"
	 x="0px" y="0px" width="350px" height="350px" viewBox="0 0 350 350" overflow="scroll" xml:space="preserve">
<g>
	<g>
		<polygon fill="#FFFFFF" points="249.607,107.541 198.663,107.541 198.663,64.649 151.337,64.649 151.337,107.541 100.393,107.541 
			100.393,154.865 151.337,154.865 151.337,285.352 198.663,285.352 198.663,154.865 249.607,154.865 		"/>
		<path d="M200.067,286.756h-50.136V156.271H98.988v-50.134h50.943V63.244h50.136v42.892h50.944v50.134h-50.944V286.756z
			 M152.742,283.947h44.517V153.461h50.943v-44.516h-50.943V66.054h-44.517v42.892h-50.944v44.516h50.944V283.947z"/>
	</g>
	<g>
		<polygon fill="#FFFFFF" points="155.084,281.605 155.084,151.12 104.138,151.12 104.138,111.287 155.084,111.287 155.084,68.395 
			194.915,68.395 194.915,111.287 245.861,111.287 245.861,151.12 194.915,151.12 194.915,281.605 		"/>
		<path d="M196.319,283.01h-42.64V152.523h-50.946v-42.642h50.946V66.99h42.64v42.892h50.946v42.642h-50.946V283.01z M156.488,280.2
			h37.023V149.714h50.944v-37.023h-50.944V69.8h-37.023v42.891h-50.945v37.023h50.945V280.2z"/>
	</g>
	<g>
		<path fill="#FFFFFF" d="M219.517,154.865c0,0-16.46,10.746-28.321,6.421c-17.431-6.353-36.343-26.512-46.263-42.011
			c-7.119-11.12-15.442-12.013-15.442-12.013s15.97-2.675,27.832,1.341c6.186,2.094,16.752,24.991,38.024,39.09
			C208.394,156.344,219.517,154.866,219.517,154.865z"/>
		<path d="M197.446,163.249c-2.392,0-4.601-0.365-6.57-1.083c-17.568-6.402-36.539-26.46-46.731-42.386
			c-6.798-10.619-14.676-11.578-14.755-11.586l-6.782-0.729l6.728-1.126c0.216-0.037,5.365-0.886,12.045-0.886
			c6.342,0,11.807,0.762,16.242,2.263c2.732,0.925,5.91,5.083,10.31,10.837c6.438,8.423,15.257,19.958,27.932,28.36
			c9.684,6.418,18.359,7.112,21.64,7.112h0.002c0.827,0,1.405-0.041,1.687-0.067l1.261-0.821v1.728c0,0.411-0.18,0.643-0.428,0.779
			l0.004,0.005C219.553,155.96,208.265,163.248,197.446,163.249z M133.835,107.681c3.205,1.496,7.744,4.618,11.887,11.09
			c14.305,22.354,33.767,37.251,45.794,41.636c1.766,0.642,3.762,0.969,5.931,0.969c6.994,0,14.423-3.36,18.478-5.52
			c-4.635-0.238-12.431-1.639-21.094-7.382c-12.939-8.575-21.866-20.256-28.387-28.784c-4.039-5.285-7.23-9.458-9.421-10.199
			c-4.242-1.437-9.505-2.165-15.643-2.165C138.489,107.327,135.866,107.493,133.835,107.681z"/>
	</g>
	<path d="M144.577,113.974c0.081,0.105-0.06,0.255-0.15,0.15c-2.186-2.52-4.515-4.618-7.234-6.542
		c-0.107-0.076-0.016-0.237,0.103-0.178C140.215,108.874,142.581,111.444,144.577,113.974z M140.077,106.282
		c-0.044-0.03-0.099,0.04-0.058,0.075c2.761,2.333,5.341,4.771,7.714,7.504c0.056,0.065,0.146-0.028,0.092-0.093
		C145.563,110.991,143.048,108.314,140.077,106.282z M143.633,107.66c-0.094-0.077-0.227,0.05-0.135,0.135
		c2.084,1.933,4.311,3.61,6.068,5.871c0.084,0.109,0.266-0.033,0.189-0.146C148.172,111.164,145.788,109.458,143.633,107.66z
		 M146.441,107.426c-0.088-0.084-0.221,0.047-0.135,0.135c1.944,1.969,4.297,3.495,6.074,5.631c0.097,0.114,0.249-0.047,0.162-0.16
		C150.827,110.838,148.452,109.322,146.441,107.426z M149.939,108.144c-0.075-0.056-0.179,0.044-0.105,0.104
		c2.152,1.75,3.956,3.844,5.839,5.869c0.084,0.091,0.211-0.043,0.135-0.135C154.017,111.877,152.131,109.839,149.939,108.144z
		 M153.474,108.121c-0.098-0.1-0.234,0.046-0.15,0.15c1.506,1.878,3.251,3.647,4.892,5.41c0.109,0.119,0.31-0.034,0.225-0.172
		C157.169,111.485,155.136,109.817,153.474,108.121z M156.494,109.043c-0.114-0.068-0.216,0.108-0.104,0.178
		c2.808,1.752,4.765,4.399,6.741,6.994c0.088,0.117,0.288,0.007,0.199-0.118C161.445,113.391,159.37,110.751,156.494,109.043z
		 M210.091,158.878c-2.01-0.401-3.924-0.925-5.869-1.584c-0.087-0.029-0.117,0.102-0.037,0.135c1.869,0.77,3.83,1.587,5.872,1.701
		C210.199,159.138,210.232,158.906,210.091,158.878z M211.495,158.175c-1.717-0.385-3.445-0.738-5.164-1.118
		c-0.094-0.019-0.129,0.111-0.04,0.142c1.646,0.58,3.416,1.149,5.171,1.228C211.607,158.433,211.637,158.206,211.495,158.175z
		 M212.891,157.273c-1.776-0.685-3.757-1.177-5.645-1.422c-0.117-0.015-0.145,0.189-0.027,0.209
		c1.914,0.297,3.718,1.125,5.623,1.392C212.959,157.467,213.002,157.316,212.891,157.273z M203.302,158.41
		c-0.161-0.04-0.228,0.202-0.068,0.247c0.514,0.146,1.017,0.329,1.513,0.531c0.503,0.203,1.002,0.515,1.534,0.625
		c0.104,0.022,0.203-0.11,0.112-0.19C205.608,158.95,204.283,158.643,203.302,158.41z M204.242,160.034
		c-1.479-0.434-2.843-0.827-4.206-1.581c-0.105-0.056-0.192,0.095-0.093,0.158c1.25,0.793,2.741,1.65,4.261,1.703
		C204.368,160.321,204.393,160.078,204.242,160.034z M201.66,160.765c-0.687-0.238-1.413-0.354-2.103-0.594
		c-0.837-0.292-1.616-0.732-2.326-1.259c-0.093-0.068-0.215,0.089-0.124,0.162c1.201,0.959,2.936,1.941,4.521,1.914
		C201.76,160.985,201.776,160.807,201.66,160.765z M193.733,158.468c-0.089-0.079-0.213,0.043-0.131,0.13
		c1.124,1.167,2.675,2.193,4.247,2.629c0.136,0.039,0.215-0.154,0.096-0.227C196.506,160.131,195.012,159.621,193.733,158.468z
		 M190.444,158.672c-0.124-0.067-0.231,0.119-0.109,0.19c1.788,1.017,3.738,1.823,5.641,2.602c0.136,0.058,0.22-0.162,0.098-0.233
		C194.287,160.208,192.263,159.649,190.444,158.672z"/>
</g>
</svg>
