<?xml version="1.0" encoding="utf-8"?>
<!-- Generator: Adobe Illustrator 16.0.0, SVG Export Plug-In . SVG Version: 6.00 Build 0)  -->
<!DOCTYPE svg PUBLIC "-//W3C//DTD SVG 1.1//EN" "http://www.w3.org/Graphics/SVG/1.1/DTD/svg11.dtd">
<svg version="1.1" id="Capa_1" xmlns="http://www.w3.org/2000/svg" xmlns:xlink="http://www.w3.org/1999/xlink" x="0px" y="0px"
	 width="350px" height="350px" viewBox="0 0 350 350" enable-background="new 0 0 350 350" xml:space="preserve">
<g>
	<path d="M176.917,144.305c0.615,2.268,2.665,3.758,4.907,3.758c0.438,0,0.885-0.056,1.332-0.178l21.948-5.939
		c2.71-0.732,4.313-3.524,3.58-6.235c-0.732-2.715-3.52-4.342-6.24-3.58l-21.947,5.939
		C177.786,138.802,176.186,141.594,176.917,144.305z"/>
	<path d="M97.115,171.765l15.256,5.086c0.534,0.178,1.078,0.264,1.606,0.264c2.131,0,4.114-1.347,4.826-3.478
		c0.89-2.665-0.549-5.548-3.214-6.433l-15.256-5.085c-2.67-0.895-5.543,0.549-6.433,3.214
		C93.011,168.002,94.45,170.88,97.115,171.765z"/>
	<path d="M152.447,162.794c0.106,0.005,0.208,0.01,0.31,0.01c2.669,0,4.912-2.08,5.07-4.78l0.427-7.18
		c0.168-2.807-1.968-5.212-4.77-5.38c-2.853-0.147-5.212,1.973-5.38,4.771l-0.427,7.18
		C147.509,160.227,149.645,162.632,152.447,162.794z"/>
	<path d="M242.598,184.651c0.992,0.991,2.293,1.489,3.596,1.489c1.302,0,2.604-0.498,3.596-1.489c1.987-1.989,1.987-5.203,0-7.19
		l-5.086-5.085c-1.987-1.988-5.202-1.988-7.19,0s-1.988,5.202,0,7.19L242.598,184.651z"/>
	<path d="M196.394,172.37c-1.988-1.988-5.202-1.988-7.19,0s-1.988,5.202,0,7.19l5.086,5.085c0.99,0.992,2.293,1.49,3.595,1.49
		c1.301,0,2.604-0.498,3.595-1.49c1.988-1.987,1.988-5.202,0-7.19L196.394,172.37z"/>
	<path d="M179.292,94.225c0.58,2.314,2.648,3.855,4.927,3.855c0.413,0,0.824-0.051,1.241-0.153c2.727-0.681,4.379-3.442,3.702-6.163
		l-5.085-20.341c-0.682-2.731-3.453-4.374-6.169-3.702c-2.725,0.681-4.378,3.442-3.702,6.163L179.292,94.225z"/>
	<path d="M156.149,124.788c0.992,0.992,2.293,1.49,3.595,1.49s2.604-0.499,3.596-1.49c1.988-1.988,1.988-5.202,0-7.19l-5.085-5.085
		c-1.988-1.988-5.202-1.988-7.191,0c-1.988,1.988-1.988,5.202,0,7.191L156.149,124.788z"/>
	<path d="M305.711,203.131c-4.079-4.033-8.818-7.002-13.862-8.98c0.066-1.002,0.117-1.979,0.117-2.924
		c0-23.031-15.169-42.711-36.838-48.844c0.824-3.132,1.241-6.356,1.241-9.636c0-20.514-16.277-37.295-36.599-38.109
		c0.417-2.38,0.626-4.775,0.626-7.185c0-25.167-17.88-45.646-39.848-45.646h-5.793c-21.973,0-39.853,20.473-39.853,45.646
		c0,2.405,0.208,4.8,0.621,7.18c-20.407,0.711-36.792,17.534-36.792,38.114c0,2.894,0.32,5.741,0.956,8.518
		c-23.809,4.348-41.638,25.172-41.638,49.963c0,0.956,0.051,1.938,0.117,2.943c-5.044,1.979-9.779,4.934-13.857,8.95l-2.736,2.69
		l48.788,89.709c3.077,7.592,10.587,12.667,18.8,12.667h131.683c8.212,0,15.724-5.075,18.8-12.667l48.783-89.698L305.711,203.131z
		 M68.215,191.571c0-0.111,0-0.229,0-0.341c0-21.576,16.893-39.395,38.459-40.564c1.653-0.097,3.158-0.977,4.033-2.385
		c0.879-1.404,1.017-3.143,0.376-4.674c-1.45-3.448-2.187-7.099-2.187-10.862c0-15.418,12.545-27.969,27.969-27.969
		c0.575,0,1.927,0.066,4.557,0.519c1.78,0.29,3.6-0.366,4.755-1.759c1.165-1.388,1.495-3.291,0.875-4.989
		c-1.317-3.631-1.983-7.358-1.983-11.096c0-19.563,13.318-35.475,29.683-35.475h5.792c16.363,0,29.678,15.911,29.678,35.475
		c0,3.742-0.667,7.48-1.989,11.106c-0.619,1.713-0.279,3.625,0.896,5.014c1.17,1.388,2.996,2.054,4.795,1.729
		c2.36-0.433,3.646-0.524,4.308-0.524c15.424,0,27.969,12.55,27.969,27.969c0,3.905-0.809,7.704-2.4,11.294
		c-0.636,1.444-0.568,3.097,0.184,4.485c0.747,1.383,2.105,2.344,3.661,2.599c19.792,3.193,34.152,20.061,34.152,40.106
		c0,0.107,0,0.225,0,0.331c-0.452-0.056-0.905-0.056-1.363-0.097c-0.696-0.061-1.393-0.122-2.095-0.152
		c-0.554-0.021-1.108-0.021-1.663-0.015c-0.772,0-1.545,0.015-2.318,0.061c-0.493,0.03-0.981,0.066-1.471,0.112
		c-0.843,0.076-1.688,0.183-2.526,0.314c-0.417,0.066-0.834,0.132-1.246,0.209c-0.915,0.167-1.825,0.376-2.73,0.609
		c-0.341,0.087-0.682,0.169-1.017,0.266c-0.977,0.273-1.933,0.6-2.889,0.945c-0.27,0.097-0.539,0.184-0.809,0.29
		c-1.007,0.392-1.993,0.834-2.976,1.307c-0.209,0.103-0.427,0.188-0.636,0.295c-1.042,0.523-2.059,1.104-3.061,1.724
		c-0.133,0.082-0.27,0.147-0.402,0.234c-1.128,0.718-2.228,1.479-3.295,2.313c-0.971-0.762-2.029-1.337-3.052-2.003
		c-14.527-9.438-33.74-8.864-47.552,1.998c-14.783-11.625-35.835-11.614-50.613,0.011c-14.915-11.636-36.182-11.636-51.092,0.015
		c-1.754-1.373-3.615-2.553-5.527-3.6c-0.132-0.072-0.259-0.158-0.396-0.229c-1.861-0.996-3.789-1.815-5.757-2.507
		c-0.234-0.081-0.462-0.173-0.696-0.25c-1.912-0.635-3.865-1.118-5.838-1.469c-0.341-0.062-0.682-0.117-1.022-0.174
		c-1.927-0.289-3.865-0.457-5.813-0.478c-0.178,0-0.351-0.046-0.528-0.046c-0.311,0-0.621,0.052-0.936,0.056
		c-1.073,0.025-2.146,0.092-3.214,0.198C68.907,191.542,68.561,191.526,68.215,191.571z M250.562,290.933l-0.28,0.601
		c-1.489,3.879-5.283,6.483-9.438,6.483H109.161c-4.154,0-7.948-2.609-9.438-6.483l-45.441-83.643
		c4.49-3.463,9.743-5.513,15.139-6.199c0.386-0.051,0.768-0.051,1.154-0.081c1.282-0.117,2.568-0.158,3.855-0.117
		c0.528,0.016,1.058,0.052,1.581,0.092c1.251,0.101,2.492,0.284,3.722,0.533c0.417,0.088,0.839,0.133,1.251,0.235
		c1.551,0.381,3.077,0.889,4.566,1.51c0.453,0.188,0.88,0.422,1.322,0.636c1.104,0.523,2.187,1.107,3.234,1.765
		c0.453,0.284,0.905,0.564,1.343,0.874c1.357,0.956,2.68,1.988,3.9,3.184c0.021,0.021,0.046,0.036,0.066,0.056
		c0,0,0.005,0,0.01,0.006l3.56,3.504l3.57-3.51c0.728-0.712,1.556-1.245,2.329-1.877c12.205-9.88,30.247-9.356,41.643,1.877
		l3.585,3.529l3.57-3.549c5.807-5.782,13.384-8.701,21.012-8.874c0.234-0.006,0.468-0.066,0.701-0.066
		c0.265,0,0.53,0.071,0.799,0.076c5.629,0.147,11.228,1.755,16.1,4.953c1.703,1.119,3.315,2.42,4.811,3.911l3.59,3.569l3.586-3.565
		h0.004c1.495-1.489,3.112-2.796,4.812-3.915c11.909-7.821,28.131-6.515,38.607,3.911l3.58,3.559l3.59-3.549
		c1.235-1.221,2.573-2.269,3.946-3.24c0.427-0.299,0.87-0.579,1.312-0.859c1.047-0.661,2.125-1.245,3.229-1.769
		c0.438-0.209,0.859-0.442,1.308-0.632c1.475-0.614,2.979-1.118,4.521-1.499c0.432-0.107,0.874-0.162,1.312-0.25
		c1.199-0.243,2.405-0.422,3.62-0.523c0.535-0.046,1.073-0.081,1.612-0.097c1.261-0.04,2.527,0.006,3.783,0.117
		c0.396,0.036,0.788,0.036,1.185,0.081c5.365,0.682,10.583,2.731,15.048,6.188L250.562,290.933z"/>
	<path d="M108.714,225.49c-0.742-2.711-3.549-4.338-6.245-3.57c-2.71,0.743-4.307,3.535-3.57,6.246l15.256,55.937
		c0.621,2.263,2.665,3.748,4.902,3.748c0.442,0,0.895-0.056,1.343-0.178c2.71-0.743,4.307-3.534,3.57-6.245L108.714,225.49z"/>
	<path d="M247.53,221.916c-2.72-0.737-5.508,0.859-6.244,3.569l-15.256,55.933c-0.737,2.705,0.859,5.502,3.57,6.244
		c0.446,0.122,0.899,0.179,1.342,0.179c2.238,0,4.287-1.485,4.902-3.748l15.256-55.933
		C251.838,225.455,250.241,222.658,247.53,221.916z"/>
	<path d="M200.889,221.758c-2.807-0.239-5.268,1.811-5.521,4.603l-5.086,55.933c-0.255,2.802,1.805,5.272,4.607,5.527
		c0.157,0.015,0.31,0.021,0.463,0.021c2.604,0,4.82-1.989,5.059-4.623l5.086-55.933
		C205.745,224.489,203.686,222.013,200.889,221.758z"/>
	<path d="M149.116,221.758c-2.797,0.255-4.862,2.731-4.607,5.527l5.085,55.933c0.239,2.64,2.456,4.623,5.06,4.623
		c0.153,0,0.31-0.006,0.463-0.021c2.797-0.255,4.862-2.726,4.607-5.527l-5.085-55.933
		C154.384,223.573,151.943,221.528,149.116,221.758z"/>
</g>
</svg>
