<?xml version="1.0" encoding="utf-8"?>
<!-- Generator: Adobe Illustrator 16.0.0, SVG Export Plug-In . SVG Version: 6.00 Build 0)  -->
<!DOCTYPE svg PUBLIC "-//W3C//DTD SVG 1.1//EN" "http://www.w3.org/Graphics/SVG/1.1/DTD/svg11.dtd">
<svg version="1.1" id="Layer_1" xmlns="http://www.w3.org/2000/svg" xmlns:xlink="http://www.w3.org/1999/xlink" x="0px" y="0px"
	 width="350px" height="350px" viewBox="0 0 350 350" enable-background="new 0 0 350 350" xml:space="preserve">
<path fill="#F58CAC" d="M226.409,86.201c-2.496,0-4.997,0.219-7.432,0.652c-2.166,0.396-4.291-0.78-5.133-2.802
	C207.286,68.323,192.04,58.159,175,58.159s-32.286,10.164-38.845,25.892c-0.842,2.022-2.972,3.198-5.133,2.802
	c-2.435-0.434-4.936-0.652-7.433-0.652c-23.192,0-42.063,18.87-42.063,42.063s18.87,42.063,42.063,42.063h102.819
	c23.193,0,42.063-18.87,42.063-42.063S249.603,86.201,226.409,86.201z M128.264,156.306c2.581,0,4.673,2.092,4.673,4.673
	c0,2.581-2.092,4.673-4.673,4.673c-20.616,0-37.389-16.773-37.389-37.389s16.773-37.389,37.389-37.389
	c2.581,0,4.673,2.093,4.673,4.673c0,2.581-2.092,4.674-4.673,4.674c-15.463,0-28.042,12.578-28.042,28.042
	S112.801,156.306,128.264,156.306z M221.736,165.653c-2.58,0-4.673-2.092-4.673-4.674c0-2.581,2.093-4.673,4.673-4.673
	c15.463,0,28.042-12.579,28.042-28.042s-12.579-28.042-28.042-28.042c-2.58,0-4.673-2.093-4.673-4.674
	c0-2.581,2.093-4.673,4.673-4.673c20.616,0,37.39,16.773,37.39,37.389C259.126,148.88,242.353,165.653,221.736,165.653z"/>
<path fill="#EAEAEA" d="M123.02,291.841H226.98l12.802-98.146H110.218L123.02,291.841z M213.049,202.464l9.265,1.237l-10.584,79.37
	l-9.266-1.237L213.049,202.464z M170.327,203.042h9.348v79.451h-9.348V203.042z M136.952,202.464l10.584,79.37l-9.265,1.237
	l-10.584-79.37L136.952,202.464z"/>
<g>
	<path fill="#314E55" d="M226.409,76.854c-1.822,0-3.648,0.096-5.458,0.288c-8.689-17.323-26.351-28.33-45.951-28.33
		s-37.261,11.007-45.951,28.33c-1.809-0.192-3.635-0.288-5.458-0.288c-28.347,0-51.41,23.062-51.41,51.41
		s23.063,51.409,51.41,51.409h102.82c28.348,0,51.41-23.062,51.41-51.409S254.758,76.854,226.409,76.854z M226.409,170.327H123.59
		c-23.192,0-42.063-18.87-42.063-42.063s18.87-42.063,42.063-42.063c2.497,0,4.998,0.219,7.433,0.653
		c2.161,0.395,4.291-0.78,5.132-2.802C142.714,68.323,157.96,58.159,175,58.159s32.286,10.164,38.845,25.892
		c0.843,2.022,2.968,3.198,5.133,2.802c2.435-0.434,4.936-0.652,7.433-0.652c23.192,0,42.063,18.87,42.063,42.063
		S249.603,170.327,226.409,170.327z"/>
	<path fill="#314E55" d="M245.104,184.348H104.896c-1.345,0-2.625,0.58-3.512,1.59c-0.888,1.011-1.296,2.354-1.123,3.688
		l14.021,107.493c0.303,2.328,2.287,4.068,4.635,4.068h112.167c2.35,0,4.332-1.74,4.635-4.068l14.021-107.493
		c0.174-1.335-0.234-2.678-1.123-3.688C247.729,184.928,246.448,184.348,245.104,184.348z M226.98,291.841H123.02l-12.802-98.146
		h129.564L226.98,291.841z"/>
	
		<rect x="172.35" y="238.097" transform="matrix(0.1323 -0.9912 0.9912 0.1323 -56.3503 421.1674)" fill="#314E55" width="80.07" height="9.346"/>
	
		<rect x="132.941" y="202.726" transform="matrix(0.9912 -0.1323 0.1323 0.9912 -30.8999 20.3346)" fill="#314E55" width="9.347" height="80.068"/>
	<rect x="170.327" y="203.042" fill="#314E55" width="9.348" height="79.451"/>
	<path fill="#314E55" d="M221.736,90.875c-2.58,0-4.673,2.092-4.673,4.674c0,2.581,2.093,4.673,4.673,4.673
		c15.463,0,28.042,12.579,28.042,28.042s-12.579,28.042-28.042,28.042c-2.58,0-4.673,2.093-4.673,4.674
		c0,2.581,2.093,4.673,4.673,4.673c20.616,0,37.39-16.773,37.39-37.389C259.126,107.647,242.353,90.875,221.736,90.875z"/>
	<path fill="#314E55" d="M128.264,100.222c2.581,0,4.673-2.092,4.673-4.673c0-2.581-2.092-4.673-4.673-4.673
		c-20.616,0-37.389,16.773-37.389,37.389s16.773,37.389,37.389,37.389c2.581,0,4.673-2.093,4.673-4.673
		c0-2.581-2.092-4.674-4.673-4.674c-15.463,0-28.042-12.578-28.042-28.042S112.801,100.222,128.264,100.222z"/>
</g>
</svg>
