<?xml version="1.0" encoding="utf-8"?>
<!-- Generator: Adobe Illustrator 16.0.0, SVG Export Plug-In . SVG Version: 6.00 Build 0)  -->
<!DOCTYPE svg PUBLIC "-//W3C//DTD SVG 1.1//EN" "http://www.w3.org/Graphics/SVG/1.1/DTD/svg11.dtd">
<svg version="1.1" id="Layer_1" xmlns="http://www.w3.org/2000/svg" xmlns:xlink="http://www.w3.org/1999/xlink" x="0px" y="0px"
	 width="350px" height="350px" viewBox="0 0 350 350" enable-background="new 0 0 350 350" xml:space="preserve">
<g>
	<g>
		<path d="M234.771,99.854c-0.008-0.04-0.008-0.084-0.015-0.124c-0.015-0.146-0.036-0.292-0.065-0.434c0,0,0-0.011,0-0.015
			c-0.029-0.138-0.066-0.273-0.104-0.408c-0.014-0.044-0.028-0.084-0.043-0.125c-0.028-0.106-0.066-0.208-0.109-0.31
			c-0.014-0.04-0.028-0.077-0.044-0.113c-0.059-0.135-0.117-0.27-0.189-0.397c0-0.008-0.008-0.011-0.008-0.019
			c-0.065-0.124-0.139-0.241-0.219-0.357c-0.022-0.037-0.044-0.073-0.073-0.109c-0.059-0.088-0.124-0.175-0.189-0.263
			c-0.029-0.033-0.059-0.069-0.08-0.103c-0.095-0.113-0.197-0.223-0.3-0.328l-39.861-39.857c-0.103-0.106-0.219-0.208-0.328-0.303
			c-0.036-0.026-0.065-0.051-0.095-0.073c-0.095-0.073-0.184-0.139-0.278-0.205c-0.028-0.022-0.065-0.044-0.095-0.066
			c-0.124-0.08-0.248-0.153-0.372-0.223l-0.007-0.003c-0.132-0.069-0.263-0.131-0.401-0.189c-0.036-0.015-0.073-0.029-0.109-0.044
			c-0.103-0.04-0.204-0.08-0.313-0.113c-0.037-0.011-0.081-0.025-0.124-0.04c-0.133-0.037-0.263-0.069-0.396-0.099
			c-0.007,0-0.021-0.004-0.028-0.007c-0.146-0.026-0.284-0.048-0.431-0.063c-0.044-0.007-0.088-0.007-0.139-0.014
			c-0.103-0.008-0.212-0.011-0.321-0.015c-0.029,0-0.059-0.003-0.088-0.003H60.415c-2.751,0-4.984,2.229-4.984,4.98v229.181
			c0,2.744,2.233,4.978,4.984,4.978h169.393c2.751,0,4.978-2.233,4.978-4.978V100.27c0-0.026,0-0.051,0-0.077
			C234.785,100.08,234.778,99.967,234.771,99.854z M194.932,72.443l22.85,22.846h-22.85V72.443z M224.823,284.601H65.399V65.396
			h119.569v34.874c0,2.751,2.226,4.98,4.978,4.98h34.877V284.601z"/>
	</g>
</g>
<g>
	<g>
		<path d="M294.569,110.235c0-11.008-8.918-19.93-19.924-19.93c-11.005,0-19.93,8.922-19.93,19.93v134.52h6.181l-6.181,21.588
			l19.93,13.282l19.924-13.282l-6.174-21.588h6.174V110.235z M274.646,267.647l-8.349-5.567l4.963-17.325h6.765l4.963,17.325
			L274.646,267.647z M284.608,234.786h-19.932V110.235c0-5.495,4.475-9.965,9.969-9.965c5.496,0,9.963,4.47,9.963,9.965V234.786z"/>
	</g>
</g>
<g>
	<g>
		<path d="M199.915,184.97H90.395c-2.751,0-4.978,2.227-4.978,4.978s2.226,4.977,4.978,4.977h109.52
			c2.751,0,4.978-2.227,4.978-4.977C204.893,187.196,202.666,184.97,199.915,184.97z"/>
	</g>
</g>
<g>
	<g>
		<path d="M199.915,214.862H90.395c-2.751,0-4.978,2.226-4.978,4.978c0,2.75,2.226,4.977,4.978,4.977h109.52
			c2.751,0,4.978-2.227,4.978-4.977C204.893,217.088,202.666,214.862,199.915,214.862z"/>
	</g>
</g>
<g>
	<g>
		<path d="M150.092,244.755H90.395c-2.751,0-4.978,2.226-4.978,4.978c0,2.75,2.226,4.977,4.978,4.977h59.698
			c2.751,0,4.984-2.227,4.984-4.977C155.077,246.98,152.843,244.755,150.092,244.755z"/>
	</g>
</g>
<g>
	<g>
		<path d="M120.288,85.324c-19.23,0-34.87,15.643-34.87,34.873c0,9.094,3.569,17.829,9.875,24.317v10.56
			c0,2.751,2.226,4.981,4.977,4.981h39.861c2.751,0,4.977-2.229,4.977-4.981v-10.381c6.422-6.506,10.057-15.307,10.057-24.496
			C155.164,100.967,139.518,85.324,120.288,85.324z M136.824,138.829c-1.065,0.948-1.679,2.302-1.679,3.725v7.535h-9.875
			c0-2.751-2.233-4.98-4.984-4.98c-2.752,0-4.978,2.229-4.978,4.98h-10.057v-7.692c0-1.409-0.599-2.755-1.643-3.7
			c-5.232-4.719-8.232-11.462-8.232-18.5c0.001-13.735,11.174-24.909,24.909-24.909c13.734,0,24.915,11.174,24.915,24.908
			C145.202,127.309,142.145,134.1,136.824,138.829z"/>
	</g>
</g>
<g>
	<g>
		<path d="M110.238,115.216c-2.751,0-4.984,2.229-4.984,4.98c0,2.752,2.233,4.984,4.984,4.984c2.752,0,4.978-2.232,4.978-4.984
			C115.215,117.445,112.99,115.216,110.238,115.216z"/>
	</g>
</g>
<g>
	<g>
		<path d="M130.162,115.216c-2.751,0-4.978,2.229-4.978,4.98c0,2.752,2.226,4.984,4.978,4.984c2.758,0,4.984-2.232,4.984-4.984
			C135.146,117.445,132.92,115.216,130.162,115.216z"/>
	</g>
</g>
</svg>
