<?xml version="1.0" encoding="utf-8"?>
<!-- Generator: Adobe Illustrator 16.0.0, SVG Export Plug-In . SVG Version: 6.00 Build 0)  -->
<!DOCTYPE svg PUBLIC "-//W3C//DTD SVG 1.1//EN" "http://www.w3.org/Graphics/SVG/1.1/DTD/svg11.dtd">
<svg version="1.1" id="Layer_1" xmlns="http://www.w3.org/2000/svg" xmlns:xlink="http://www.w3.org/1999/xlink" x="0px" y="0px"
	 width="350px" height="350px" viewBox="0 0 350 350" enable-background="new 0 0 350 350" xml:space="preserve">
<g>
	<path d="M175,104.829c13.876,0,25.164-11.289,25.164-25.165c0-13.875-11.288-25.165-25.164-25.165
		c-13.875,0-25.165,11.289-25.165,25.165C149.835,93.541,161.125,104.829,175,104.829z"/>
	<path d="M217.894,182.024v-43.951c0-9.576-6.153-18.067-15.254-21.049l-0.042-0.014l-7.183-2.204
		c-1.132-0.348-2.344,0.251-2.75,1.369l-15.103,41.438c-0.872,2.391-4.252,2.391-5.124,0l-15.103-41.438
		c-0.329-0.902-1.18-1.469-2.093-1.469c-0.217,0-7.832,2.3-7.832,2.3c-9.175,3.058-15.304,11.563-15.304,21.181v43.834
		c0,0.436,0.127,0.861,0.366,1.225l15.758,23.981v60.678c0,1.231,0.999,2.23,2.23,2.23h49.076c1.231,0,2.231-0.999,2.231-2.23
		v-60.678l15.758-23.981C217.767,182.884,217.894,182.459,217.894,182.024z"/>
	<path d="M96.837,251.718c1.588-3.615-0.056-7.831-3.67-9.419c-3.619-1.592-7.833,0.056-9.42,3.67l-11.161,25.412
		c-1.588,3.614,0.056,7.831,3.67,9.42l25.412,11.161c0.936,0.41,1.911,0.604,2.871,0.604c2.751,0,5.373-1.596,6.549-4.276
		c1.588-3.615-0.056-7.832-3.67-9.42l-9.611-4.221l42.499-16.56v-15.345l-47.69,18.583L96.837,251.718L96.837,251.718z"/>
	<path d="M109.251,192.108c3.679-1.433,5.499-5.577,4.065-9.256c-1.434-3.68-5.579-5.503-9.256-4.065L78.2,188.864
		c-3.679,1.434-5.499,5.578-4.065,9.257l10.078,25.86c1.101,2.826,3.801,4.555,6.663,4.555c0.863,0,1.741-0.155,2.593-0.488
		c3.679-1.434,5.499-5.578,4.065-9.256l-3.811-9.78l46.584,20.459v-15.615l-40.834-17.934L109.251,192.108z"/>
	<path d="M265.789,249.816c-1.435-3.68-5.579-5.503-9.257-4.065c-3.679,1.434-5.499,5.578-4.065,9.257l3.812,9.779l-46.584-20.459
		v15.616l40.835,17.934l-9.78,3.811c-3.679,1.434-5.499,5.578-4.065,9.257c1.102,2.825,3.802,4.556,6.663,4.555
		c0.863,0,1.741-0.156,2.594-0.489l25.86-10.077c3.68-1.434,5.499-5.578,4.065-9.256L265.789,249.816L265.789,249.816z"/>
	<path d="M273.743,192.996l-25.411-11.161c-3.619-1.59-7.833,0.056-9.421,3.67s0.056,7.832,3.671,9.421l9.61,4.22l-42.499,16.56
		v15.346l47.689-18.584l-4.221,9.61c-1.588,3.615,0.057,7.832,3.67,9.42c0.937,0.411,1.911,0.605,2.872,0.605
		c2.751,0,5.372-1.596,6.549-4.276l11.161-25.412C279.002,198.802,277.357,194.584,273.743,192.996L273.743,192.996z"/>
	<path d="M180.735,115.62c-0.606-0.66-1.493-0.993-2.391-0.993h-6.69c-0.896,0-1.784,0.333-2.391,0.993
		c-0.938,1.023-1.075,2.501-0.409,3.657l3.576,5.391l-1.674,14.124l3.297,8.77c0.322,0.882,1.569,0.882,1.891,0l3.298-8.77
		l-1.675-14.124l3.576-5.391C181.811,118.121,181.675,116.643,180.735,115.62z"/>
</g>
</svg>
