<?xml version="1.0" encoding="utf-8"?>
<!-- Generator: Adobe Illustrator 16.0.0, SVG Export Plug-In . SVG Version: 6.00 Build 0)  -->
<!DOCTYPE svg PUBLIC "-//W3C//DTD SVG 1.1//EN" "http://www.w3.org/Graphics/SVG/1.1/DTD/svg11.dtd">
<svg version="1.1" id="Layer_1" xmlns="http://www.w3.org/2000/svg" xmlns:xlink="http://www.w3.org/1999/xlink" x="0px" y="0px"
	 width="350px" height="350px" viewBox="0 0 350 350" enable-background="new 0 0 350 350" xml:space="preserve">
<path fill="#010001" d="M87.7,111.363c5.446,0.574,11.835,4.251,16.278,4.282c2.888,0.017,6.791-2.152,9.968-2.379
	c3.163-0.226,6.417-0.119,9.546,0.574c14.583,3.161,28.052,5.693,44.048,4.895c8.051-0.41,14.445-1.927,22.081-4.429
	c7.923-2.593,13.622-4.778,19.45,2.485c1.688,2.138,3.227,7.095,5.334,8.436c2.939,1.868,8.771-0.395,11.885-0.646
	c5.563-0.469,18.683,1.639,22.224-3.273c1.959-2.801-0.938-8.105-0.18-11.419c0.72-3.346,3.313-5.663,5.275-8.436
	c3.764-5.394,8.766-12.537,9.441-19.013c3.105,5.452-5.347,18.894-6.069,24.95c5.634-8.047,9.836-17.99,12.896-25.942
	c0.028,7.847-0.786,13.798-4.276,20.79c-2.745,5.53-5.879,14.523-2.396,20.305c3.009,4.976,8.84,6.392,10.153,12.827
	c1.644,7.936,4.804,12.365,9.265,19.087c2.775,4.17,10.605,12.144,7.282,17.042c-0.894,1.339-6.619,5.166-8.217,5.521
	c-3.719,0.759-5.288-2.796-8.83-4.305c-3.279-1.416-6.022-2.016-9.426-3.93c-3.377-1.886-6.163-3.044-10.158-3.044
	c-3.825,0-8.043,0.86-11.661,2.064c-4.729,1.597-4.261,3-6.599,6.627c-7.023,11.075-23.141,15.369-31.578,25.732
	c-5.92,7.231-2.684,26.61-2.095,36.131c0.346,5.544,2.021,11.751,4.775,16.752c2.185,3.979,8.53,8.935,8.376,13.516
	c-3.219,0.409-11.661-5.193-13.256-7.744c-2.745-4.368-2.2-12.885-3.209-17.766c-1.083-5.254-2.968-10.245-4.883-15.18
	c-2.079-5.306-3.029-12.678-6.191-17.284c0.573,5.181,0.693,10.396-0.364,15.446c-0.988,4.635-3.675,8.629-4.343,13.254
	c-0.791,5.244,0,11.267,0,16.605c0,3.28-0.016,5.088,1.452,7.893c1.329,2.394,3.981,3.331,3.858,6.266
	c-14.92-4.005-10.772-21.781-10.234-33.684c0.351-6.857-0.2-13.684-0.973-20.429c-0.62-5.323,0.128-15.881-2.448-20.493
	c-2.783-4.975-11.408-1.871-16.234-1.203c-7.626,1.021-15.27,2.21-22.954,1.416c-6.11-0.604-12.097-2.924-17.131-6.479
	c-4.392-3.058-8.942-10.13-13.63-11.604c-0.251,8.53-4.524,11.209-7.567,18.563c-2.606,6.264-4.069,14.626-5.306,21.062
	c-3.313,17.144,5.495,29.468,11.792,44.144c1.134,2.668,3.534,6.553,2.343,9.189c-5.198-1.989-7.373-1.82-9.833-7.653
	c-2.107-4.942-2.899-10.261-4.653-15.4c-1.636-4.757-3.196-10.063-4.86-15.062c-0.848-2.458-3.562-14.734-7.533-10.275
	c1.667,3.388,1.516,8.468,2.104,12.217c0.691,4.476,2.092,8.903,3.36,13.216c1.099,3.781,2.069,7.966,3.396,11.72
	c1.25,3.482,4.166,7.503,3.828,11.257c-13.825-3.061-15.474-28.479-17.899-38.753c-1.514-6.238-5.539-14.074-5.508-20.444
	c0-7.291,5.447-14.346,7.805-21.031c3.011-8.427,1.101-15.4-2.313-23.173c-2.901-6.566-4.504-16.301-8.965-21.758
	c-1.017,15.215,0,30.618,0,46.375c0,8.348,0.09,15.854,0.545,23.988c0.233,5.405,1.457,18.321-2.978,21.604
	c-4.074-4.809-0.65-17.751,0-23.563c0.904-8.184,1.416-15.338,0.609-23.504c-1.521-15.622-3.034-32.03-3.034-47.999
	c0-12.611,2.901-19.118,13.702-25.103C78.013,112.389,82.043,110.792,87.7,111.363z"/>
</svg>
