<?xml version="1.0" encoding="utf-8"?>
<!-- Generator: Adobe Illustrator 16.0.0, SVG Export Plug-In . SVG Version: 6.00 Build 0)  -->
<!DOCTYPE svg PUBLIC "-//W3C//DTD SVG 1.1//EN" "http://www.w3.org/Graphics/SVG/1.1/DTD/svg11.dtd">
<svg version="1.1" id="Capa_1" xmlns="http://www.w3.org/2000/svg" xmlns:xlink="http://www.w3.org/1999/xlink" x="0px" y="0px"
	 width="350px" height="350px" viewBox="0 0 350 350" enable-background="new 0 0 350 350" xml:space="preserve">
<g>
	<rect x="117.983" y="76.695" fill="#E8D5B2" width="58.984" height="165.153"/>
	<rect x="176.967" y="159.271" fill="#A98258" width="102.236" height="82.577"/>
	<circle fill="#8697CB" cx="218.254" cy="117.983" r="41.288"/>
	<rect x="137.644" y="76.695" fill="#CBB292" width="19.661" height="23.593"/>
	<rect x="216.288" y="159.271" fill="#F4D5BD" width="19.661" height="23.593"/>
	<circle fill="#556080" cx="133.712" cy="261.508" r="15.729"/>
	<circle fill="#556080" cx="251.678" cy="261.508" r="15.729"/>
	<path fill="#BDC3C7" d="M287.067,245.779H94.39c-2.174,0-3.932-1.758-3.932-3.932c0-2.175,1.758-3.933,3.932-3.933h192.678
		c2.175,0,3.933,1.758,3.933,3.933C291,244.021,289.242,245.779,287.067,245.779z"/>
	<path fill="#BDC3C7" d="M94.39,88.492H74.729c-2.175,0-3.933-1.758-3.933-3.932c0-2.175,1.758-3.933,3.933-3.933H94.39
		c2.175,0,3.933,1.758,3.933,3.933C98.322,86.734,96.564,88.492,94.39,88.492z"/>
	<path fill="#BDC3C7" d="M94.39,245.779c-2.174,0-3.932-1.758-3.932-3.932V84.56c0-2.175,1.758-3.933,3.932-3.933
		c2.175,0,3.933,1.758,3.933,3.933v157.288C98.322,244.021,96.564,245.779,94.39,245.779z"/>
	<circle fill="#D8625E" cx="70.796" cy="84.559" r="11.797"/>
</g>
</svg>
