<?xml version="1.0" encoding="utf-8"?>
<!-- Generator: Adobe Illustrator 16.0.0, SVG Export Plug-In . SVG Version: 6.00 Build 0)  -->
<!DOCTYPE svg PUBLIC "-//W3C//DTD SVG 1.1//EN" "http://www.w3.org/Graphics/SVG/1.1/DTD/svg11.dtd">
<svg version="1.1" id="Layer_1" xmlns="http://www.w3.org/2000/svg" xmlns:xlink="http://www.w3.org/1999/xlink" x="0px" y="0px"
	 width="350px" height="350px" viewBox="0 0 350 350" enable-background="new 0 0 350 350" xml:space="preserve">
<g>
	<ellipse fill="#351920" cx="175" cy="300.506" rx="82.429" ry="7.758"/>
	<g>
		<path fill="#351920" d="M214.063,135.302c-0.492-0.065-0.985,0.092-1.347,0.43c-0.363,0.336-0.557,0.818-0.528,1.312
			c0.815,14.016-5.03,18.319-7.203,19.426c-2.796-2.347-6.382-3.747-10.228-3.747h-4.087v-3.262
			c8.712-5.91,15.964-13.66,21.289-22.594c0.141,0.038,0.281,0.077,0.431,0.077c0.094,0,0.188-0.007,0.281-0.024
			c28.805-4.917,23.337-39.407,23.278-39.754c-0.097-0.579-0.493-1.062-1.04-1.273c-0.545-0.21-1.164-0.117-1.625,0.246
			l-11.434,9.028c0.102-1.539,0.165-3.084,0.165-4.64v-0.222c0-25.929-21.095-47.023-47.023-47.023
			c-10.319,0-20.412,3.438-28.578,9.691l-5.696-3.921c-0.563-0.388-1.305-0.391-1.871-0.008c-0.565,0.381-0.839,1.072-0.689,1.738
			l1.824,8.131c0,0.001-0.001,0.001-0.001,0.001c-7.746,8.633-12.012,19.782-12.012,31.391v0.222c0,1.556,0.063,3.102,0.165,4.64
			l-11.434-9.028c-0.461-0.363-1.079-0.456-1.625-0.246c-0.548,0.211-0.943,0.694-1.041,1.273
			c-0.059,0.347-5.526,34.838,23.278,39.754c0.095,0.017,0.188,0.024,0.282,0.024c0.149,0,0.291-0.039,0.431-0.077
			c6.017,10.095,14.496,18.678,24.76,24.801v1.714h-4.475c-3.789,0-7.36,1.382-10.161,3.708c-0.157-0.123-0.335-0.223-0.536-0.285
			c-0.367-0.113-8.961-2.962-7.984-19.761c0.028-0.494-0.165-0.975-0.527-1.312c-0.363-0.337-0.856-0.495-1.348-0.43
			c-0.275,0.036-27.555,4.163-24.469,48.684c0.042,0.604,0.411,1.139,0.962,1.392c0.221,0.104,0.458,0.153,0.694,0.153
			c0.35,0,0.698-0.111,0.989-0.327c0.14-0.104,13.287-9.759,24.141-10.367l-5.702,19.294c-0.298,1.011-0.449,2.052-0.449,3.089
			c0,5.395,3.983,9.878,9.169,10.677v6.752c0,5.894,1.239,11.59,3.682,16.93l0.006,0.013c0.007,0.016,0.013,0.03,0.021,0.045
			l9.835,21.564c0.091,0.2,0.225,0.361,0.375,0.504c0.338,1.613,0.603,2.778,0.723,3.295c0.042,0.177,0.115,0.341,0.206,0.489
			c-12.429-0.555-21.843,0.942-29.235,4.665l-2.723-7.936c-0.177-0.514-0.593-0.909-1.116-1.058
			c-0.522-0.146-1.084-0.032-1.505,0.312c-0.261,0.214-25.854,21.595-10.071,47.075c0.252,0.405,0.665,0.684,1.136,0.763
			c0.092,0.016,0.184,0.022,0.275,0.022c0.379,0,0.75-0.129,1.047-0.371l28.114-22.862c0.434-0.354,0.661-0.9,0.604-1.457
			c-0.057-0.556-0.39-1.046-0.886-1.304l-6.239-3.238c8.315-2.897,19.173-2.351,27.205-1.556l1.393,3.057
			c0.449,0.986,0.461,2.076,0.033,3.069c-0.426,0.991-1.222,1.73-2.242,2.082l-15.711,5.443c-1.456,0.505-2.69,1.431-3.559,2.663
			c-0.894,1.237-1.367,2.708-1.367,4.252c0,4.034,3.282,7.316,7.316,7.316h29.679c2.529,0,4.896-1.126,6.49-3.09
			c1.596-1.964,2.214-4.511,1.694-6.988l-3.18-15.172c0.492,0.082,0.973,0.163,1.443,0.242c1.117,0.19,2.191,0.372,3.367,0.546
			l1.824,25.137c0.313,4.329,3.959,7.72,8.301,7.72h15.659c2.511,0,4.86-1.115,6.449-3.061c1.586-1.946,2.208-4.473,1.704-6.933
			l-4.685-22.838c3.054-0.922,5.599-2.277,7.74-4.127c4.337-3.743,6.536-9.18,6.536-16.16c0-13.102-5.211-24.545-15.07-33.097
			c-4.45-3.856-8.931-6.293-11.715-7.598l-2.216-10.797h0.143c3.26,0,6.313-1.447,8.377-3.971c2.065-2.525,2.879-5.81,2.231-9.01
			l-2.911-14.356c10.746,0.876,23.483,10.228,23.618,10.328c0.291,0.216,0.638,0.327,0.988,0.327c0.235,0,0.473-0.05,0.694-0.153
			c0.551-0.253,0.919-0.787,0.962-1.392C241.618,139.464,214.339,135.338,214.063,135.302z M183.749,260.417l-1.374-0.202
			l-0.405-1.932h0.937c0.502,0,0.978-0.227,1.292-0.617c0.315-0.391,0.437-0.902,0.331-1.394c-0.722-3.339-1.466-7.305-2.11-11.411
			c0.505-0.222,1.04-0.354,1.606-0.354c2.098,0,3.857,1.635,4.008,3.724l0.939,12.939
			C187.234,260.924,185.49,260.674,183.749,260.417z M220.891,253.703c0,3.213-0.716,5.394-2.188,6.667
			c-0.547,0.471-1.259,0.872-2.092,1.214l-6.453-31.456C215.559,234.848,220.891,242.368,220.891,253.703z"/>
		<g>
			<g>
				<path fill="#E32C25" d="M192.207,174.16l-3.491,2.924l1.202,0.047c2.69,0.106,5.043,1.802,5.994,4.319l1.198,3.175
					c0.547,1.451,2.057,2.321,3.587,2.08l10.251-1.646l-2.698-13.304h-9.429C196.407,171.754,194.058,172.608,192.207,174.16z"/>
				<path fill="#E32C25" d="M152.024,187.182c-0.857-0.257-1.356-1.146-1.128-2.012l2.152-8.179
					c0.001-0.004,0.003-0.006,0.004-0.009c0.002-0.006,0.001-0.012,0.003-0.018l3.444-12.269c0.248-0.883,1.167-1.398,2.046-1.149
					c0.883,0.247,1.397,1.164,1.149,2.046l-2.875,10.245l26.959,1.055l6.296-5.276c1.412-1.184,3.048-2.048,4.788-2.578
					l-1.541-4.903c-0.274-0.874,0.211-1.806,1.086-2.081c0.873-0.271,1.805,0.211,2.081,1.086l1.674,5.325
					c0.22-0.011,0.438-0.029,0.659-0.029h8.755l-0.465-2.293c-1.188-5.853-6.383-10.101-12.354-10.101h-5.747
					c-0.917,0-1.659-0.743-1.659-1.659v-2.804c-3.706,2.223-7.64,4.131-11.782,5.665c-0.186,0.068-0.381,0.103-0.576,0.103
					s-0.39-0.035-0.576-0.103c-2.874-1.064-5.644-2.314-8.312-3.716v1.515c0,0.917-0.743,1.66-1.66,1.66h-6.134
					c-5.541,0-10.51,3.712-12.086,9.028l-8.672,29.341c-0.207,0.705-0.313,1.43-0.313,2.15c0,4.01,3.183,7.282,7.161,7.468
					l25.017-12.29L152.024,187.182z"/>
				<path fill="#E32C25" d="M151.581,234.12l3.229,7.08c-0.288-2.064-0.538-4.183-0.721-6.273
					C153.163,234.657,152.32,234.384,151.581,234.12z"/>
				<path fill="#E32C25" d="M182.119,217.713c-0.37,0.46-0.659,1.137-0.886,1.975c1.131-0.171,2.285-0.366,3.462-0.587
					c-0.563-1.631-1.598-1.809-1.834-1.823C182.68,217.278,182.427,217.331,182.119,217.713z"/>
				<path fill="#E32C25" d="M164.306,220.685c3.95,0.157,8.466,0.045,13.509-0.534c0.347-1.931,0.897-3.501,1.722-4.521
					c0.881-1.093,2.047-1.67,3.369-1.67c1.396,0,4.048,0.979,5.061,4.479c4.77-1.048,9.883-2.519,15.309-4.516
					c0.01-0.137,0.039-0.274,0.086-0.409l-2.392-11.655l-26.875-8.058l-27.683,13.597v7.252c0,0.996,0.052,1.98,0.128,2.963
					c1.36,0.494,4.273,1.425,8.583,2.148c0.22-0.475,0.463-0.905,0.747-1.263c0.898-1.131,2.102-1.729,3.479-1.729
					C160.695,216.769,163.221,217.63,164.306,220.685z"/>
				<path fill="#812A1A" d="M143.044,164.786c0.567-1.913,1.492-3.654,2.672-5.177c-2.636-1.224-9.661-5.868-9.478-20.548
					c-5.617,1.737-21.122,9.474-19.801,41.764c4.729-3.106,15.329-9.298,24.622-9.323L143.044,164.786z"/>
				<path fill="#F8F6C6" d="M152.263,75.167c1.154,0,2.848-0.311,4.369-1.789l0.167-0.166c1.299-1.326,1.942-3.159,1.763-5.029
					c-0.186-1.92-1.203-3.649-2.79-4.743l-9.959-6.856c-0.216-0.087-0.415-0.222-0.583-0.401l-2.904-1.999l3.567,15.901
					C146.564,73.078,149.183,75.167,152.263,75.167z"/>
				<path fill="#812A1A" d="M233.011,90.584l-11.614,9.17c-1.098,8.301-3.652,16.248-7.441,23.52
					C233.385,118.745,233.629,98.255,233.011,90.584z"/>
				<path fill="#E32C25" d="M116.98,90.586c-0.609,7.675-0.34,28.164,19.051,32.687c-3.789-7.271-6.344-15.218-7.442-23.519
					L116.98,90.586z"/>
				<path fill="#F8F6C6" d="M187.479,75.167c1.152,0,2.847-0.311,4.368-1.789l0.166-0.167c1.3-1.325,1.943-3.158,1.763-5.028
					c-0.185-1.92-1.202-3.649-2.79-4.743l-13.445-9.256l3.566,15.901C181.778,73.078,184.397,75.167,187.479,75.167z"/>
				<path fill="#812A1A" d="M193.147,50.554c-5.532-2.533-11.684-3.95-18.156-3.95c-9.229,0-18.257,2.954-25.692,8.354l8.354,5.753
					c2.401,1.649,3.928,4.26,4.215,7.159c0.266,2.844-0.708,5.643-2.699,7.668l-0.222,0.221c-1.814,1.76-4.182,2.733-6.683,2.733
					c-2.412,0-4.647-0.853-6.362-2.324c-1.604-1.338-2.766-3.187-3.253-5.355l-1.759-7.834c-1.937,2.412-3.596,5.012-4.968,7.756
					v0.012c-1.782,3.54-3.076,7.313-3.829,11.219c-0.199,1.018-0.365,2.046-0.487,3.087c-0.033,0.354-0.077,0.697-0.11,1.052
					c-0.033,0.343-0.066,0.697-0.089,1.04c-0.022,0.31-0.044,0.608-0.055,0.918c-0.022,0.32-0.033,0.642-0.044,0.962
					c-0.011,0.433-0.022,0.853-0.022,1.284v0.221c0,2.633,0.155,5.244,0.465,7.823c0.078,0.21,0.111,0.442,0.088,0.675
					c3.143,24.563,19.662,45.951,43.152,54.891c2.313-0.885,4.558-1.881,6.727-2.999c19.895-10.19,33.604-29.752,36.425-51.892
					c-0.012-0.232,0.021-0.465,0.1-0.675c0.299-2.579,0.453-5.19,0.453-7.823v-0.221C218.695,72.683,208.206,57.469,193.147,50.554z
					 M174.062,49.038c0.564-0.376,1.306-0.376,1.87,0.011l16.94,11.662c2.39,1.649,3.928,4.26,4.204,7.159
					c0.276,2.844-0.708,5.643-2.688,7.668l-0.222,0.221c-1.813,1.76-4.193,2.733-6.683,2.733c-4.647,0-8.598-3.164-9.615-7.679
					l-4.492-20.027C173.221,50.111,173.497,49.425,174.062,49.038z M153.315,109.395c0-2.854,1.372-5.167,3.065-5.167
					c1.682,0,3.054,2.313,3.054,5.167c0,2.855-1.373,5.167-3.054,5.167C154.688,114.562,153.315,112.25,153.315,109.395z
					 M176.021,103.387c-1.926,1.505-3.796,2.269-5.588,2.269c-0.442,0-0.874-0.056-1.305-0.144c-0.587,0.31-1.494,0.686-2.7,0.896
					c0.443,2.867,0.808,8.365-1.859,12.536c-1.46,2.269-3.573,3.817-6.307,4.626c0.188,0.663,0.553,1.438,1.25,2.002
					c1.04,0.863,2.655,1.095,4.802,0.708c0.907-0.166,1.77,0.432,1.936,1.328c0.166,0.908-0.432,1.771-1.339,1.937
					c-0.863,0.155-1.682,0.232-2.456,0.232c-2.047,0-3.762-0.553-5.09-1.671c-2.623-2.18-2.656-5.643-2.656-5.797
					c0-0.797,0.586-1.494,1.373-1.626c2.611-0.464,4.47-1.615,5.687-3.53c2.224-3.463,1.693-8.441,1.305-10.666
					c-2.6-0.343-5.842-1.638-9.526-4.935c-1.682-1.504-3.153-2.932-4.448-4.193c-3.098-3.009-5.333-5.211-7.07-5.123
					c-0.907,0.034-1.958,0.719-3.198,2.125c-0.608,0.687-1.66,0.742-2.334,0.133c-0.686-0.609-0.752-1.66-0.144-2.345
					c1.903-2.136,3.662-3.165,5.554-3.231c3.154-0.144,5.809,2.479,9.505,6.063c1.272,1.239,2.711,2.633,4.348,4.094
					c4.238,3.806,7.546,4.381,9.626,4.16c-0.973-1.106-1.46-2.179-1.494-2.256c-0.365-0.842,0.022-1.815,0.863-2.18
					c0.841-0.365,1.814,0.011,2.18,0.852c0.022,0.055,1.007,2.158,2.799,2.6c1.184,0.298,2.611-0.199,4.227-1.471
					c0.741-0.587,1.604-1.295,2.556-2.081c7.723-6.396,22.096-18.289,30.981-9.184c0.641,0.653,0.63,1.705-0.023,2.346
					c-0.663,0.642-1.714,0.631-2.356-0.033c-6.749-6.916-19.584,3.717-26.488,9.426
					C177.657,102.059,176.772,102.789,176.021,103.387z M181.464,109.395c0-2.854,1.371-5.167,3.064-5.167
					c1.682,0,3.054,2.313,3.054,5.167c0,2.855-1.372,5.167-3.054,5.167C182.835,114.562,181.464,112.25,181.464,109.395z"/>
				<path fill="#E32C25" d="M158.778,220.268c0.462,0.052,0.929,0.103,1.414,0.147c-0.393-0.267-0.753-0.321-0.881-0.328
					C159.161,220.087,158.98,220.124,158.778,220.268z"/>
				<path fill="#5C4148" d="M154.175,223.036c-3.087-0.548-5.497-1.201-7.163-1.736c0.518,2.881,1.375,5.687,2.567,8.396
					c0.691,0.343,2.137,1.002,4.271,1.691C153.709,228.292,153.776,225.398,154.175,223.036z"/>
				<path fill="#5C4148" d="M180.865,254.964c-1.183-5.831-4.045-21.283-3.439-31.371c-3.597,0.395-6.935,0.562-9.992,0.562
					c-1.387,0-2.698-0.042-3.97-0.104c-0.052,0.015-0.1,0.032-0.154,0.042c-0.289,0.046-0.57,0.008-0.828-0.087
					c-1.832-0.11-3.526-0.279-5.096-0.482c-1.184,6.827,1.092,21.579,3.289,31.44H180.865z"/>
				<path fill="#E32C25" d="M181.921,241.507c0.677-0.203,1.379-0.318,2.104-0.318c3.83,0,7.045,2.988,7.318,6.804l3.693,50.87
					c0.188,2.602,2.381,4.64,4.99,4.64h15.659c1.51,0,2.922-0.67,3.877-1.84c0.954-1.17,1.327-2.689,1.024-4.168l-6.715-32.732
					c-0.122-0.169-0.223-0.355-0.276-0.569c-0.065-0.265-0.057-0.529,0.002-0.777l-7.301-35.585
					c-8.455,4.151-16.863,6.93-25.048,8.277C181.441,237.883,181.668,239.694,181.921,241.507z"/>
				<path fill="#5C4148" d="M180.713,223.172c-0.185,2.665-0.08,5.997,0.22,9.624c8.043-1.35,16.329-4.144,24.677-8.325l-1.5-7.313
					C195.491,220.309,187.661,222.174,180.713,223.172z"/>
				<path fill="#812A1A" d="M215.582,139.093c0.15,12.72-5.117,17.894-8.234,19.838c1.459,1.883,2.521,4.101,3.017,6.549
					l1.226,6.037c9.052,0.379,19.204,6.292,23.793,9.305C236.668,148.876,221.16,140.916,215.582,139.093z"/>
				<path fill="#E32C25" d="M211.609,188.313l-10.386,1.669c-3.081,0.496-6.117-1.266-7.22-4.186l-1.197-3.174
					c-0.479-1.268-1.664-2.122-3.019-2.175l-33.869-1.324l-1.405,5.34l48.126,14.429h1.933c2.259,0,4.376-1.004,5.808-2.753
					c1.433-1.752,1.996-4.029,1.548-6.249L211.609,188.313z"/>
				<path fill="#E32C25" d="M178.578,258.283h-15.977l6.358,13.941c0.829,1.822,0.851,3.92,0.061,5.758
					c-0.788,1.832-2.321,3.257-4.208,3.906l-15.708,5.444c-0.795,0.275-1.468,0.777-1.945,1.454
					c-0.494,0.683-0.749,1.481-0.749,2.323c0,2.204,1.793,3.997,3.997,3.997h29.679c1.525,0,2.951-0.68,3.914-1.864
					c0.962-1.184,1.334-2.72,1.021-4.214L178.578,258.283z"/>
				<path fill="#812A1A" d="M209.255,225.178c6.822,4.875,14.955,13.781,14.955,28.525c0,4.234-1.092,7.237-3.339,9.179
					c-0.966,0.833-2.15,1.494-3.583,2.008l1.192,5.81c2.464-0.781,4.535-1.871,6.246-3.35c3.574-3.083,5.386-7.675,5.386-13.646
					c0-12.11-4.815-22.688-13.925-30.588c-3.112-2.697-6.226-4.638-8.691-5.961l1.632,7.95
					C209.17,225.129,209.214,225.147,209.255,225.178z"/>
				<path fill="#812A1A" d="M128.6,265.981c-0.429,0.248-0.947,0.291-1.412,0.117s-0.828-0.546-0.988-1.016l-2.541-7.405
					c-5.163,5.014-18.776,20.782-8.503,39.486l24.649-20.045l-7.119-3.694c-0.552-0.287-0.897-0.857-0.895-1.479
					c0.002-0.622,0.351-1.19,0.904-1.473c6.936-3.546,16.339-4.614,30.262-3.409l-2.795-6.129
					C146.156,260.038,136.106,261.642,128.6,265.981z"/>
				<path fill="#812A1A" d="M183.266,263.701l-0.165-0.024l1.262,6.02c0.97,0.152,1.86,0.304,2.729,0.45
					c0.858,0.146,1.695,0.287,2.564,0.422l-0.437-6.009C187.24,264.282,185.25,263.993,183.266,263.701z"/>
				<path fill="#E32C25" d="M193.147,50.554c-5.532-2.533-11.684-3.95-18.156-3.95c-9.229,0-18.257,2.954-25.692,8.354l8.354,5.753
					c2.401,1.649,3.928,4.26,4.215,7.159c0.266,2.844-0.708,5.643-2.699,7.668l-0.222,0.221c-1.814,1.76-4.182,2.733-6.683,2.733
					c-2.412,0-4.647-0.853-6.362-2.324c-1.604-1.338-2.766-3.187-3.253-5.355l-1.759-7.834c-1.937,2.412-3.596,5.012-4.968,7.756
					v0.012c-1.782,3.54-3.076,7.313-3.829,11.219h0.011c-0.199,1.018-0.365,2.046-0.498,3.087c-0.033,0.354-0.077,0.697-0.11,1.052
					c-0.033,0.343-0.066,0.697-0.089,1.04c-0.022,0.31-0.044,0.608-0.055,0.918c-0.022,0.32-0.033,0.642-0.044,0.962
					c-0.011,0.433-0.022,0.853-0.022,1.284v0.221c0,2.633,0.155,5.244,0.465,7.823c0.078,0.21,0.111,0.442,0.088,0.675
					c3.143,24.563,19.662,45.951,43.152,54.891c2.313-0.885,4.558-1.881,6.727-2.999c15.667-11.994,26.234-30.947,28.68-52.014
					c-0.011-0.254,0.022-0.509,0.089-0.752c0.309-2.833,0.465-5.709,0.465-8.608v-0.244
					C210.951,73.424,203.936,59.328,193.147,50.554z M174.062,49.038c0.564-0.376,1.306-0.376,1.87,0.011l16.94,11.662
					c2.39,1.649,3.928,4.26,4.204,7.159c0.276,2.844-0.708,5.643-2.688,7.668l-0.222,0.221c-1.813,1.76-4.193,2.733-6.683,2.733
					c-4.647,0-8.598-3.164-9.615-7.679l-4.492-20.027C173.221,50.111,173.497,49.425,174.062,49.038z M153.315,109.395
					c0-2.854,1.372-5.167,3.065-5.167c1.682,0,3.054,2.313,3.054,5.167c0,2.855-1.373,5.167-3.054,5.167
					C154.688,114.562,153.315,112.25,153.315,109.395z M184.528,114.562c-1.693,0-3.064-2.312-3.064-5.167
					c0-2.854,1.371-5.167,3.064-5.167c1.682,0,3.054,2.313,3.054,5.167C187.582,112.25,186.21,114.562,184.528,114.562z
					 M207.476,91.857c-0.663,0.642-1.714,0.631-2.356-0.033c-6.749-6.916-19.584,3.717-26.488,9.426
					c-0.974,0.808-1.858,1.538-2.61,2.136c-1.926,1.505-3.796,2.269-5.588,2.269c-0.442,0-0.874-0.056-1.305-0.144
					c-0.587,0.31-1.494,0.686-2.7,0.896c0.443,2.867,0.808,8.365-1.859,12.536c-1.46,2.269-3.573,3.817-6.307,4.626
					c0.188,0.663,0.553,1.438,1.25,2.002c1.04,0.863,2.655,1.095,4.802,0.708c0.907-0.166,1.77,0.432,1.936,1.328
					c0.166,0.908-0.432,1.771-1.339,1.937c-0.863,0.155-1.682,0.232-2.456,0.232c-2.047,0-3.762-0.553-5.09-1.671
					c-2.623-2.18-2.656-5.643-2.656-5.797c0-0.797,0.586-1.494,1.373-1.626c2.611-0.464,4.47-1.615,5.687-3.53
					c2.224-3.463,1.693-8.441,1.305-10.666c-2.6-0.343-5.842-1.638-9.526-4.935c-1.682-1.504-3.153-2.932-4.448-4.193
					c-3.098-3.009-5.333-5.211-7.07-5.123c-0.907,0.034-1.958,0.719-3.198,2.125c-0.608,0.687-1.66,0.742-2.334,0.133
					c-0.686-0.609-0.752-1.66-0.144-2.345c1.903-2.136,3.662-3.165,5.554-3.231c3.154-0.144,5.809,2.479,9.505,6.063
					c1.272,1.239,2.711,2.633,4.348,4.094c4.238,3.806,7.546,4.381,9.626,4.16c-0.973-1.106-1.46-2.179-1.494-2.256
					c-0.365-0.842,0.022-1.815,0.863-2.18c0.841-0.365,1.814,0.011,2.18,0.852c0.022,0.055,1.007,2.158,2.799,2.6
					c1.184,0.298,2.611-0.199,4.227-1.471c0.741-0.587,1.604-1.295,2.556-2.081c7.723-6.396,22.096-18.289,30.981-9.184
					C208.14,90.165,208.129,91.216,207.476,91.857z"/>
			</g>
			<g>
				
					<path fill="none" stroke="#351920" stroke-width="3" stroke-linecap="round" stroke-linejoin="round" stroke-miterlimit="10" d="
					M141.217,60.021c-7.205,8.03-11.587,18.645-11.587,30.283v0.222c0,29.071,18.099,55.069,45.363,65.159l0,0l0,0
					c27.264-10.09,45.363-36.088,45.363-65.159v-0.222c0-25.053-20.31-45.363-45.363-45.363l0,0
					c-10.823,0-20.761,3.79-28.558,10.115"/>
				
					<path fill="none" stroke="#351920" stroke-width="3" stroke-linecap="round" stroke-linejoin="round" stroke-miterlimit="10" d="
					M181.465,243.456c0.764-0.388,1.632-0.608,2.561-0.608c2.977,0,5.45,2.299,5.663,5.263l3.694,50.872
					c0.252,3.48,3.15,6.179,6.645,6.179h15.659c4.217,0,7.374-3.867,6.528-8l-19.818-96.609h2.177c5.792,0,10.132-5.308,8.982-10.99
					l-4.817-23.75c-1.35-6.651-7.193-11.429-13.98-11.429h-5.747v-5.773"/>
				
					<path fill="none" stroke="#351920" stroke-width="3" stroke-linecap="round" stroke-linejoin="round" stroke-miterlimit="10" d="
					M160.459,257.585l6.99,15.329c1.33,2.925-0.142,6.36-3.177,7.406l-15.711,5.443c-1.136,0.395-2.092,1.124-2.757,2.066
					c-0.672,0.93-1.053,2.073-1.053,3.28c0,3.126,2.531,5.656,5.657,5.656h29.678c4.255,0,7.432-3.912,6.561-8.078l-6.673-31.834"/>
				
					<path fill="none" stroke="#351920" stroke-width="3" stroke-linecap="round" stroke-linejoin="round" stroke-miterlimit="10" d="
					M164.447,151.211v3.829h-6.134c-6.315,0-11.882,4.159-13.677,10.216l-8.672,29.342c-0.258,0.878-0.381,1.756-0.381,2.621
					c0,4.882,3.958,9.144,9.169,9.144v8.285c0,5.605,1.201,11.146,3.532,16.24l9.861,21.623"/>
				
					<path fill="none" stroke="#351920" stroke-width="3" stroke-linecap="round" stroke-linejoin="round" stroke-miterlimit="10" d="
					M202.396,200.552l-49.895-14.96l2.153-8.179l35.199,1.377c2.019,0.078,3.793,1.358,4.507,3.248l1.198,3.174
					c0.828,2.194,3.086,3.504,5.402,3.132l11.958-1.92"/>
				
					<line fill="none" stroke="#351920" stroke-width="3" stroke-linecap="round" stroke-linejoin="round" stroke-miterlimit="10" x1="144.751" y1="206.363" x2="173.947" y2="192.023"/>
				
					<line fill="none" stroke="#351920" stroke-width="3" stroke-linecap="round" stroke-linejoin="round" stroke-miterlimit="10" x1="154.653" y1="177.413" x2="158.097" y2="165.144"/>
				
					<path fill="none" stroke="#351920" stroke-width="3" stroke-linecap="round" stroke-linejoin="round" stroke-miterlimit="10" d="
					M184.354,178.574l6.786-5.687c2.153-1.804,4.872-2.792,7.682-2.792h10.784"/>
				
					<line fill="none" stroke="#351920" stroke-width="3" stroke-linecap="round" stroke-linejoin="round" stroke-miterlimit="10" x1="196.98" y1="170.24" x2="194.904" y2="163.637"/>
				
					<path fill="none" stroke="#351920" stroke-width="3" stroke-linecap="round" stroke-linejoin="round" stroke-miterlimit="10" d="
					M144.971,218.781c0,0,23.032,10.423,60.375-3.85"/>
				
					<path fill="none" stroke="#351920" stroke-width="3" stroke-linecap="round" stroke-linejoin="round" stroke-miterlimit="10" d="
					M179.445,234.727c8.062-1.15,17.489-3.891,28.046-9.335"/>
				
					<path fill="none" stroke="#351920" stroke-width="3" stroke-linecap="round" stroke-linejoin="round" stroke-miterlimit="10" d="
					M148.281,230.892c0,0,2.292,1.319,6.573,2.533"/>
				
					<path fill="none" stroke="#351920" stroke-width="3" stroke-linecap="round" stroke-linejoin="round" stroke-miterlimit="10" d="
					M186.605,219.941c-0.646-4.321-3.698-4.321-3.698-4.321c-8.865,0,0,41.004,0,41.004h-23.558c0,0-8.864-38.195,0-38.195
					c0,0,3.053,0,3.698,4.024"/>
				
					<path fill="none" stroke="#351920" stroke-width="3" stroke-linecap="round" stroke-linejoin="round" stroke-miterlimit="10" d="
					M204.678,158.395c0,0,10.244-2.937,9.168-21.448c0,0,26.045,3.444,23.031,46.924c0,0-14.697-10.912-26.478-10.726"/>
				
					<path fill="none" stroke="#351920" stroke-width="3" stroke-linecap="round" stroke-linejoin="round" stroke-miterlimit="10" d="
					M147.143,158.395c0,0-10.245-2.937-9.168-21.448c0,0-26.045,3.444-23.032,46.924c0,0,15.322-11.375,27.217-10.699"/>
				<g>
					
						<path fill="none" stroke="#351920" stroke-width="3" stroke-linecap="round" stroke-linejoin="round" stroke-miterlimit="10" d="
						M219.801,98.899l14.513-11.459c0,0,5.584,33.148-21.921,37.843"/>
					
						<path fill="none" stroke="#351920" stroke-width="3" stroke-linecap="round" stroke-linejoin="round" stroke-miterlimit="10" d="
						M130.186,98.899L115.673,87.44c0,0-5.584,33.148,21.92,37.843"/>
				</g>
				
					<path fill="none" stroke="#351920" stroke-width="3" stroke-linecap="round" stroke-linejoin="round" stroke-miterlimit="10" d="
					M179.487,70.45l-4.494-20.033l16.932,11.657c4.12,2.836,4.772,8.732,1.271,12.302c-0.063,0.064-0.127,0.129-0.192,0.192
					C188.483,78.962,180.868,76.602,179.487,70.45z"/>
				
					<path fill="none" stroke="#351920" stroke-width="3" stroke-linecap="round" stroke-linejoin="round" stroke-miterlimit="10" d="
					M144.273,70.45l-4.494-20.033l16.933,11.657c4.12,2.836,4.772,8.732,1.27,12.302c-0.063,0.064-0.127,0.129-0.193,0.192
					C153.268,78.962,145.653,76.602,144.273,70.45z"/>
				<ellipse fill="#351920" cx="184.525" cy="109.395" rx="3.061" ry="5.166"/>
				<ellipse fill="#351920" cx="156.375" cy="109.395" rx="3.061" ry="5.166"/>
				
					<path fill="none" stroke="#351920" stroke-width="3" stroke-linecap="round" stroke-linejoin="round" stroke-miterlimit="10" d="
					M165.415,100.313c0,0,3.013,6.93,9.579,1.765c6.565-5.167,22.494-20.449,31.319-11.409"/>
				
					<path fill="none" stroke="#351920" stroke-width="3" stroke-linecap="round" stroke-linejoin="round" stroke-miterlimit="10" d="
					M168.887,103.721c0,0-5.625,4.298-14.234-3.409c-8.61-7.707-11.518-13.303-17.06-7.061"/>
				
					<path fill="none" stroke="#351920" stroke-width="3" stroke-linecap="round" stroke-linejoin="round" stroke-miterlimit="10" d="
					M164.447,104.917c0,0,3.982,15.242-8.072,17.395c0,0,0,7.102,8.24,5.595"/>
				
					<path fill="none" stroke="#351920" stroke-width="3" stroke-linecap="round" stroke-linejoin="round" stroke-miterlimit="10" d="
					M217.332,272.771c3.272-0.807,6.128-2.135,8.479-4.165c3.958-3.416,5.96-8.427,5.96-14.903c0-12.605-5.011-23.615-14.497-31.842
					c-4.828-4.185-9.672-6.644-12.351-7.811"/>
				
					<path fill="none" stroke="#351920" stroke-width="3" stroke-linecap="round" stroke-linejoin="round" stroke-miterlimit="10" d="
					M182.974,271.163c3.218,0.475,5.417,0.938,8.46,1.341"/>
				
					<path fill="none" stroke="#351920" stroke-width="3" stroke-linecap="round" stroke-linejoin="round" stroke-miterlimit="10" d="
					M161.056,259.325c-12.267-0.858-24.106-0.089-33.287,5.219l-3.358-9.788c0,0-24.911,20.379-9.711,44.918l28.114-22.862
					l-9.363-4.86c8.263-4.224,19.909-4.225,31.952-2.99"/>
				
					<path fill="none" stroke="#351920" stroke-width="3" stroke-linecap="round" stroke-linejoin="round" stroke-miterlimit="10" d="
					M190.254,263.032c-2.281-0.316-4.587-0.655-6.88-0.993c-0.71-0.104-1.422-0.209-2.137-0.313"/>
				
					<path fill="none" stroke="#351920" stroke-width="3" stroke-linecap="round" stroke-linejoin="round" stroke-miterlimit="10" d="
					M208.29,226.527c6.452,4.61,14.261,13.099,14.261,27.176c0,3.726-0.904,6.314-2.764,7.923c-1.154,0.995-2.709,1.697-4.58,2.165"
					/>
			</g>
		</g>
	</g>
</g>
</svg>
