<?xml version="1.0" encoding="utf-8"?>
<!-- Generator: Adobe Illustrator 16.0.0, SVG Export Plug-In . SVG Version: 6.00 Build 0)  -->
<!DOCTYPE svg PUBLIC "-//W3C//DTD SVG 1.1//EN" "http://www.w3.org/Graphics/SVG/1.1/DTD/svg11.dtd">
<svg version="1.1" id="Capa_1" xmlns="http://www.w3.org/2000/svg" xmlns:xlink="http://www.w3.org/1999/xlink" x="0px" y="0px"
	 width="350px" height="350px" viewBox="0 0 350 350" enable-background="new 0 0 350 350" xml:space="preserve">
<g>
	<rect x="170.604" y="122.242" fill="#556080" width="8.794" height="105.517"/>
	<polygon fill="#556080" points="276.121,227.759 267.328,227.759 267.328,179.397 82.672,179.397 82.672,227.759 73.879,227.759 
		73.879,170.604 276.121,170.604 	"/>
	<rect x="47.5" y="227.759" fill="#46B29D" width="61.552" height="61.552"/>
	<rect x="240.948" y="227.759" fill="#2B7F6F" width="61.552" height="61.552"/>
	<rect x="144.224" y="227.759" fill="#3B9B89" width="61.551" height="61.552"/>
	<path fill="#F0C419" d="M175,122.242L175,122.242c-16.997,0-30.776-13.779-30.776-30.776l0,0c0-16.997,13.779-30.776,30.776-30.776
		l0,0c16.997,0,30.775,13.779,30.775,30.776l0,0C205.775,108.463,191.997,122.242,175,122.242z"/>
</g>
</svg>
