<?xml version="1.0" encoding="utf-8"?>
<!-- Generator: Adobe Illustrator 16.0.0, SVG Export Plug-In . SVG Version: 6.00 Build 0)  -->
<!DOCTYPE svg PUBLIC "-//W3C//DTD SVG 1.1//EN" "http://www.w3.org/Graphics/SVG/1.1/DTD/svg11.dtd">
<svg version="1.1" id="Layer_1" xmlns="http://www.w3.org/2000/svg" xmlns:xlink="http://www.w3.org/1999/xlink" x="0px" y="0px"
	 width="350px" height="350px" viewBox="0 0 350 350" enable-background="new 0 0 350 350" xml:space="preserve">
<g>
	<g>
		<g>
			<path fill="#F09489" d="M120.948,231.526c-8.501,0-16.141,2.074-22.71,6.152c-5.282,3.278-9.737,7.784-13.24,13.378
				c-5.554,8.868-6.857,17.66-6.987,18.634l-0.109,0.819l-0.353,16.47h25.175v-14.528c0.29-1.479,1.292-5.233,3.643-8.754
				c3.352-5.018,7.975-7.348,14.581-7.348h59.002v-24.823H120.948z"/>
		</g>
		<path fill="#C44141" d="M263.624,153.365c-17.181-23.681-65.852-16.463-65.852-16.463s0.01,0.018,0.029,0.049
			c-1.842-0.908-3.532-1.828-5.066-2.76c-3.979-2.42-6.933-4.923-8.741-7.438c-2.726-3.792-5.278-14.313-5.278-14.6V63.449h-24.822
			v48.705c0,0,1.818,18.596,9.351,29.074c3.813,5.304,9.357,9.933,16.291,14.149c1.19,0.723,2.587,1.432,3.872,2.129
			c-7.021,20.213-4.465,72.228-4.465,72.228c-41.156-3.658-44.318,11.89-44.318,11.89s-20.559,55.334,65.871,47.56
			C286.926,281.407,280.543,176.687,263.624,153.365z"/>
		<circle fill="#EDC080" cx="191.007" cy="187.245" r="4.468"/>
		<circle fill="#EDC080" cx="199.233" cy="176.309" r="3.775"/>
		<circle fill="#EDC080" cx="210.229" cy="185.013" r="2.518"/>
		<circle fill="#EDC080" cx="225.73" cy="175.716" r="2.739"/>
		<circle fill="#EDC080" cx="237.984" cy="184.79" r="2.739"/>
		<circle fill="#EDC080" cx="246.904" cy="181.998" r="2.739"/>
		<circle fill="#EDC080" cx="258.771" cy="186.187" r="2.739"/>
		<circle fill="#EDC080" cx="237.832" cy="174.317" r="1.888"/>
		<circle fill="#EDC080" cx="214.486" cy="167.26" r="1.889"/>
		<circle fill="#EDC080" cx="254.507" cy="172.456" r="1.889"/>
		<circle fill="#EDC080" cx="214.953" cy="178.661" r="1.888"/>
		<circle fill="#EDC080" cx="230.461" cy="163.85" r="2.74"/>
		<circle fill="#EDC080" cx="209.366" cy="172.148" r="2.74"/>
		<path fill="#EDC080" d="M182.425,191.009c0,0-0.465,34.394,0.466,38.112c0.93,3.717-4.029,4.957-7.747,4.182
			c-3.718-0.774-40.28-2.633-38.577,21.38c1.705,24.014,23.704,35.014,67.082,30.211c43.379-4.803,55.153-36.253,64.913-65.998
			c0,0,2.944-22.464,0.774-28.661c0,0-3.253-2.788-10.999-2.015c-7.747,0.775-10.845,1.859-14.253,1.551
			c-3.408-0.31-5.732-2.944-11-3.1c-5.268-0.154-8.366,0.775-14.098,1.704c-5.732,0.931-6.817-3.563-12.549-2.479
			c-5.732,1.084-8.831,0.774-13.323,1.859C188.622,188.841,183.82,186.052,182.425,191.009z"/>
		<g>
			<path fill="#F09489" d="M276.215,191.667c-0.915-16.721-4.99-31.941-10.635-39.722c-5.089-7.014-13.172-12.12-24.023-15.173
				c-7.837-2.205-16.985-3.323-27.194-3.323c-8.026,0-14.192,0.701-16.229,0.964c-1.493-0.756-2.881-1.523-4.137-2.287
				c-3.703-2.251-6.396-4.534-8.014-6.784c-2.149-2.989-4.435-11.715-4.798-13.402V63.354h-4.864v48.8
				c0,0.967,1.441,5.792,1.725,6.703c1.356,4.375,2.71,7.506,4.005,9.309c1.998,2.779,5.172,5.502,9.431,8.092
				c1.583,0.963,3.351,1.925,5.254,2.862c0.603,0.297,1.282,0.323,1.885,0.107c1.732-0.226,7.866-0.943,15.742-0.943
				c16.12,0,37.411,2.862,47.306,16.5c5.051,6.962,8.866,21.542,9.72,37.145c1.032,18.856-2.134,37.452-8.915,52.367
				c-11.438,25.155-32.943,39.836-62.19,42.467c-5.452,0.49-10.648,0.727-15.448,0.727c-0.002,0-0.006,0-0.008,0
				c-22.548,0-37.69-5.305-45.002-15.785c-3.686-5.284-5.312-11.758-4.833-19.266c0.366-5.736,1.89-9.935,1.904-9.973
				c0.043-0.117,0.078-0.237,0.103-0.36c0.021-0.104,2.898-10.511,30.176-10.511c3.581,0,7.471,0.185,11.56,0.548
				c0.695,0.062,1.386-0.181,1.89-0.665s0.773-1.163,0.738-1.861c-0.024-0.516-2.45-51.772,4.338-71.317
				c0.389-1.119-0.092-2.355-1.134-2.919c-0.337-0.183-0.682-0.365-1.027-0.551c-0.938-0.499-1.909-1.016-2.733-1.517
				c-7.013-4.265-12.11-8.68-15.572-13.495c-6.771-9.418-8.726-26.279-8.871-27.786V63.354h-4.791v48.8
				c0,0.077-0.012,0.155-0.004,0.231c0.075,0.786,1.923,19.371,9.747,30.254c3.848,5.353,9.404,10.195,16.981,14.804
				c0.702,0.426,1.455,0.84,2.206,1.244c-2.603,8.851-4.071,23.12-4.369,42.476c-0.173,11.256,0.116,21.289,0.288,25.942
				c-3.236-0.23-6.336-0.349-9.248-0.349c-12.96,0-22.692,2.242-28.929,6.669c-4.515,3.204-5.684,6.547-5.933,7.487
				c-0.293,0.834-1.739,5.165-2.134,11.024c-0.58,8.56,1.375,16.317,5.653,22.471c8.26,11.881,24.745,17.87,48.995,17.87
				c0.002,0,0.006,0,0.008,0c4.943,0,10.286-0.219,15.882-0.723c16.56-1.489,30.804-6.549,42.337-15.105
				c10.128-7.514,18.142-17.656,23.821-30.146c3.764-8.279,6.46-17.508,8.013-27.426
				C276.271,210.022,276.718,200.867,276.215,191.667z"/>
		</g>
	</g>
	<circle fill="#EE4540" cx="235.712" cy="94.933" r="37.21"/>
	<g>
		<path fill="#FFFFFF" d="M240.939,109.521c0,1.513-1.227,2.74-2.739,2.74h-4.552c-1.514,0-2.741-1.227-2.741-2.74v-30.07
			c0-1.514,1.228-2.741,2.741-2.741h4.552c1.513,0,2.739,1.228,2.739,2.741V109.521z"/>
		<path fill="#FFFFFF" d="M253.611,96.851c0,1.512-1.227,2.739-2.74,2.739H220.8c-1.513,0-2.74-1.227-2.74-2.739v-4.553
			c0-1.514,1.228-2.74,2.74-2.74h30.071c1.514,0,2.74,1.226,2.74,2.74V96.851z"/>
	</g>
	<g>
		<g>
			<g>
				<path fill="#609340" d="M112.499,69.626c-5.096,1.234-8.586,5.407-8.498,9.87c3.174-2.698,7.357-4.837,12.185-5.948
					c5.417-1.266,10.667-1.016,14.983,0.385c-4.07-1.066-8.846-1.179-13.74-0.042c-4.043,0.941-7.633,2.586-10.558,4.678
					c0,0.004,0,0.004,0,0.004c-1.4,0.678-3.066,2.242-4.104,3.304c0.164,0.383,0.364,0.877,0.573,1.404
					c-0.036-0.094-0.061-0.205-0.102-0.294c0.401-0.41,0.784-0.798,1.159-1.151c1.479,4.668,6.866,7.44,12.336,6.108
					c7.704-1.885,12.193-13.75,19.25-12.077C135.985,75.867,126.925,66.126,112.499,69.626z"/>
				<path fill="#3C444F" d="M102.75,81.894c-2.132-4.333-5.062-6.161-5.367-6.419c-1.437-1.213-3.582-1.039-4.803,0.392
					c-1.216,1.435-1.043,3.588,0.388,4.806c0.103,0.089,6.261,3.474,5.042,14.302c1.092,0.298,2.033,0.633,2.56,1.003
					c0,0,1.734-0.517,4.307-1.133c0.372-4.917-0.381-8.693-1.535-11.564c-0.209-0.526-0.409-1.021-0.573-1.404
					C102.762,81.881,102.752,81.89,102.75,81.894z"/>
			</g>
			<g>
				<path fill="#D0442E" d="M100.569,95.978c-0.527-0.37-1.467-0.705-2.56-1.003v0.005c-1.324-0.331-2.996-0.696-4.863-1.012
					c-1.314-0.21-2.542-0.371-3.508-0.486c-9.051-0.981-20.856-0.028-25.848,10.141c-8.618,17.54-2.774,41.546,12,52.01
					c13.208,9.357,23.196,5.923,25.166,5.09V95.866C100.72,95.933,100.569,95.978,100.569,95.978z"/>
				<path fill="#C73C27" d="M138.881,103.622c-2.571-5.232-6.954-8.019-11.831-9.37c0.081,0.058,0.186,0.094,0.267,0.157
					c-0.081-0.063-0.186-0.099-0.267-0.157c-7.953-2.193-17.227-0.548-22.174,0.674c0-0.027,0-0.054,0-0.081
					c-1.874,0.446-3.282,0.838-3.92,1.021v64.856c0.232-0.097,0.379-0.169,0.379-0.169s10.771,5.542,25.545-4.921
					C141.656,145.168,147.499,121.162,138.881,103.622z"/>
			</g>
		</g>
	</g>
	<g>
		<path fill="#D6D5D3" d="M255.31,206.77v-5.239h-0.864h-2.144h-1.665h-2.144h-1.664h-2.144h-1.664h-2.144h-1.665h-0.515v5.434
			c0.875-0.127,1.766-0.194,2.671-0.194H255.31z"/>
		<path fill="#C9C8C7" d="M269.677,201.53h-2.145h-1.665h-2.144h-1.663h-2.143h-1.665h-2.144h-0.8v5.239h13.941
			c0.905,0,1.796,0.067,2.671,0.194v-5.434h-0.581H269.677z"/>
		<path fill="#C9C8C7" d="M290.222,230.883c0-12.274-7.98-22.41-18.3-23.919c-0.875-0.127-1.766-0.194-2.671-0.194H255.31v5.068
			v22.521h17.604c6.6,0,11.942,6.148,11.942,13.73v9.304c0,7.583-5.343,13.73-11.942,13.73H255.31v19.309h32.266
			c0.966,0,1.797-0.617,2.236-1.522h0.098c0.014-0.091,0.02-0.182,0.033-0.272c0.13-0.356,0.207-0.752,0.207-1.164
			c0-0.123-0.021-0.241-0.034-0.361c0.064-0.726,0.106-1.454,0.106-2.199V230.883z"/>
		<path fill="#E8E4E2" d="M241.369,206.77c-0.905,0-1.796,0.067-2.671,0.194c-10.32,1.509-18.3,11.645-18.3,23.919v54.029
			c0,0.742,0.041,1.471,0.104,2.191c-0.014,0.122-0.032,0.244-0.032,0.369c0,0.416,0.075,0.81,0.209,1.168
			c0.013,0.088,0.019,0.18,0.031,0.269h0.095c0.441,0.905,1.271,1.522,2.237,1.522h32.267v-19.309h-17.604
			c-6.599,0-11.943-6.147-11.943-13.73v-9.304c0-7.582,5.345-13.73,11.943-13.73h17.604v-22.521v-5.068H241.369z"/>
		<path fill="#2E3E57" d="M225.763,248.089v9.304c0,7.583,5.345,13.73,11.943,13.73h17.604v-4.984h-16.462v-5.553h16.462v-4.616
			h-21.021v-5.554h21.021v-4.617h-21.021v-5.553h21.021v-5.888h-17.604C231.107,234.358,225.763,240.507,225.763,248.089z"/>
		<path fill="#32515E" d="M276.329,240.246v5.553h-21.02v4.617h21.02v5.554h-21.02v4.616h16.463v5.553H255.31v4.984h17.604
			c6.6,0,11.942-6.147,11.942-13.73v-9.304c0-7.582-5.343-13.73-11.942-13.73H255.31v5.888H276.329z"/>
		<rect x="234.288" y="240.246" fill="#46A5A4" width="21.021" height="5.553"/>
		<rect x="255.31" y="240.246" fill="#4EBBC0" width="21.02" height="5.553"/>
		<rect x="234.288" y="250.416" fill="#46A5A4" width="21.021" height="5.554"/>
		<rect x="255.31" y="250.416" fill="#4EBBC0" width="21.02" height="5.554"/>
		<rect x="255.31" y="260.586" fill="#4EBBC0" width="16.463" height="5.553"/>
		<rect x="238.848" y="260.586" fill="#46A5A4" width="16.462" height="5.553"/>
		<rect x="262.061" y="187.839" fill="#2E3E57" width="1.663" height="13.688"/>
		<rect x="262.891" y="200.697" fill="#4EBBC0" width="0.003" height="1.663"/>
		<rect x="258.253" y="187.839" fill="#2E3E57" width="1.665" height="13.688"/>
		<rect x="259.084" y="200.696" fill="#4EBBC0" width="0.003" height="1.665"/>
		<rect x="235.404" y="187.839" fill="#2E3E57" width="1.664" height="13.691"/>
		<rect x="239.213" y="187.839" fill="#2E3E57" width="1.665" height="13.688"/>
		<rect x="240.044" y="200.696" fill="#4EBBC0" width="0.003" height="1.665"/>
		<polygon fill="#2E3E57" points="255.31,187.839 254.445,187.839 254.445,201.527 255.31,201.527 256.109,201.527 256.109,187.839 
					"/>
		<rect x="255.31" y="201.527" fill="#4EBBC0" width="0.8" height="0.003"/>
		<rect x="254.876" y="201.097" fill="#4EBBC0" width="0.003" height="0.864"/>
		<rect x="250.637" y="187.839" fill="#2E3E57" width="1.665" height="13.688"/>
		<rect x="251.468" y="200.696" fill="#4EBBC0" width="0.003" height="1.665"/>
		<rect x="265.867" y="187.839" fill="#2E3E57" width="1.665" height="13.688"/>
		<rect x="266.698" y="200.696" fill="#4EBBC0" width="0.003" height="1.665"/>
		<rect x="243.021" y="187.839" fill="#2E3E57" width="1.664" height="13.688"/>
		<rect x="243.852" y="200.697" fill="#4EBBC0" width="0.003" height="1.664"/>
		<rect x="269.677" y="187.839" fill="#2E3E57" width="1.664" height="13.688"/>
		<rect x="270.507" y="200.697" fill="#4EBBC0" width="0.003" height="1.664"/>
		<rect x="273.485" y="187.839" fill="#2E3E57" width="1.663" height="13.691"/>
		<rect x="246.829" y="187.839" fill="#2E3E57" width="1.664" height="13.688"/>
		<rect x="247.66" y="200.697" fill="#4EBBC0" width="0.003" height="1.664"/>
		<rect x="277.291" y="187.839" fill="#2E3E57" width="1.465" height="13.691"/>
		<rect x="231.864" y="187.839" fill="#2E3E57" width="1.396" height="13.691"/>
		<rect x="233.26" y="187.839" fill="#32515E" width="2.145" height="13.691"/>
		<polygon fill="#32515E" points="239.213,201.527 239.213,187.839 237.068,187.839 237.068,201.53 238.698,201.53 238.698,201.527 
					"/>
		<rect x="238.698" y="201.527" fill="#75CCD5" width="0.515" height="0.003"/>
		<rect x="240.878" y="187.839" fill="#32515E" width="2.144" height="13.688"/>
		<rect x="241.948" y="200.457" fill="#75CCD5" width="0.003" height="2.144"/>
		<rect x="244.686" y="187.839" fill="#32515E" width="2.144" height="13.688"/>
		<rect x="245.756" y="200.457" fill="#75CCD5" width="0.003" height="2.144"/>
		<rect x="248.493" y="187.839" fill="#32515E" width="2.144" height="13.688"/>
		<rect x="249.563" y="200.457" fill="#75CCD5" width="0.003" height="2.144"/>
		<rect x="252.302" y="187.839" fill="#32515E" width="2.144" height="13.688"/>
		<rect x="253.372" y="200.457" fill="#75CCD5" width="0.003" height="2.144"/>
		<rect x="256.109" y="187.839" fill="#32515E" width="2.144" height="13.688"/>
		<rect x="257.18" y="200.457" fill="#75CCD5" width="0.003" height="2.144"/>
		<rect x="259.918" y="187.839" fill="#32515E" width="2.143" height="13.688"/>
		<rect x="260.988" y="200.458" fill="#75CCD5" width="0.003" height="2.143"/>
		<rect x="263.724" y="187.839" fill="#32515E" width="2.144" height="13.688"/>
		<rect x="264.794" y="200.457" fill="#75CCD5" width="0.003" height="2.144"/>
		<rect x="267.532" y="187.839" fill="#32515E" width="2.145" height="13.688"/>
		<rect x="268.603" y="200.457" fill="#75CCD5" width="0.003" height="2.145"/>
		<polygon fill="#32515E" points="271.922,201.527 271.922,201.53 273.485,201.53 273.485,187.839 271.341,187.839 271.341,201.527 
					"/>
		<rect x="271.63" y="201.238" fill="#75CCD5" width="0.003" height="0.581"/>
		<rect x="275.148" y="187.839" fill="#32515E" width="2.143" height="13.691"/>
	</g>
	<g>
		<path fill="#EE4540" d="M234.983,285.371l1.66-1.299l-13.591-17.343l-6.63,5.195l9.693,12.371
			C228.269,287.042,232.237,287.523,234.983,285.371z"/>
		<path fill="#C23C2F" d="M236.644,284.072l1.659-1.301c2.746-2.152,3.226-6.121,1.075-8.867l-9.694-12.371l-6.631,5.196
			L236.644,284.072z"/>
		<path fill="#EFEFEF" d="M229.684,261.533l-11.692-14.921c-2.151-2.746-6.121-3.228-8.867-1.076l-1.659,1.301l15.588,19.893
			L229.684,261.533z"/>
		<path fill="#FFFFFF" d="M207.465,246.837l-1.659,1.301c-2.746,2.151-3.228,6.12-1.076,8.866l11.693,14.921l6.63-5.195
			L207.465,246.837z"/>
	</g>
</g>
</svg>
