<?xml version="1.0" encoding="utf-8"?>
<!-- Generator: Adobe Illustrator 16.0.0, SVG Export Plug-In . SVG Version: 6.00 Build 0)  -->
<!DOCTYPE svg PUBLIC "-//W3C//DTD SVG 1.1//EN" "http://www.w3.org/Graphics/SVG/1.1/DTD/svg11.dtd">
<svg version="1.1" id="Layer_1" xmlns="http://www.w3.org/2000/svg" xmlns:xlink="http://www.w3.org/1999/xlink" x="0px" y="0px"
	 width="350px" height="350px" viewBox="0 0 350 350" enable-background="new 0 0 350 350" xml:space="preserve">
<g>
	<g>
		<g>
			<path fill="#F4BCA1" d="M160.712,217.373l4.995,4.996c0,0-1.249-5.617,11.031-11.031c12.276-5.41,27.472-11.861,31.218-23.311
				c-1.667-3.328-1.667-3.328-1.667-3.328s-2.912,4.996-7.489,9.783c-4.579,4.783-14.226,9.949-20.258,12.447
				c-6.036,2.496-8.481,5.607-10.337,3.992C165.279,208.385,160.712,217.373,160.712,217.373z"/>
			<path fill="#391609" d="M165.719,222.682c-0.009,0-0.016,0-0.022,0c-0.077-0.004-0.152-0.033-0.21-0.094l-4.995-4.994
				c-0.096-0.094-0.118-0.242-0.059-0.359c0.149-0.291,3.631-7.076,6.622-7.076c0.496,0,0.951,0.18,1.354,0.525
				c0.976,0.85,2.262,0.1,4.453-1.184c1.441-0.846,3.229-1.896,5.559-2.859c5.531-2.287,15.462-7.475,20.153-12.375
				c4.496-4.705,7.418-9.674,7.448-9.725c0.06-0.096,0.149-0.148,0.279-0.154c0.114,0.004,0.217,0.072,0.27,0.174l1.664,3.33
				c0.037,0.072,0.043,0.156,0.019,0.236c-3.703,11.309-18.573,17.854-30.521,23.115l-0.868,0.385
				c-6.215,2.734-8.837,5.508-9.94,7.35c-1.032,1.723-0.96,2.965-0.923,3.26c0.019,0.039,0.031,0.086,0.031,0.133
				C166.032,222.543,165.893,222.682,165.719,222.682z M161.093,217.314l4.27,4.27c0.13-1.818,1.531-6.246,11.248-10.531
				l0.874-0.385c11.79-5.189,26.452-11.643,30.136-22.613l-1.356-2.711c-0.858,1.379-3.514,5.457-7.241,9.352
				c-4.757,4.973-14.783,10.217-20.36,12.525c-2.294,0.947-4.063,1.982-5.485,2.816c-1.626,0.953-2.801,1.643-3.82,1.643
				c-0.508,0-0.955-0.172-1.357-0.518c-0.291-0.258-0.601-0.379-0.945-0.379C164.963,210.783,162.144,215.32,161.093,217.314z"/>
		</g>
		<path opacity="0.7" fill="#F4BCA1" d="M160.712,217.373l4.995,4.996c0,0-1.249-5.617,11.031-11.031
			c12.276-5.41,27.472-11.861,31.218-23.311c-1.667-3.328-1.667-3.328-1.667-3.328s-2.912,4.996-7.489,9.783
			c-4.579,4.783-14.226,9.949-20.258,12.447c-6.036,2.496-8.481,5.607-10.337,3.992
			C165.279,208.385,160.712,217.373,160.712,217.373z"/>
		<g>
			<g>
				<path fill="#F4BCA1" d="M201.712,168.259c-2.705-7.911-2.913-9.159-3.746-12.905c-0.834-3.747-11.238-26.012-16.441-38.918
					c-5.205-12.905-5.828-15.399-10.615-25.808c-4.787-10.405-5.463-14.972-6.076-20.41c-0.074-1.457-1.915-2.222-2.525-3.985
					c-0.613-1.76-0.384-3.83,0.995-3.675c1.379,0.152,2.299,1.837,2.299,1.837s1.403-1.379,3.154,0.037
					c-0.75-2.51-3.043-4.009-3.703-2.953c-0.53-1.146-2.026-1.276-2.6-0.307c-0.483-0.883-2.513-0.356-2.293,1.277
					c-0.616-0.483-1.939-0.354-1.673,1.543c-1.543-0.31-0.896,3.38,1.131,4.003c0.468,3.904,3.278,11.393,6.866,17.169
					c3.594,5.775,4.217,11.238,10.147,25.445c5.934,14.201,20.919,49.791,26.536,66.805c5.621,17.014,17.011,46.824,17.011,46.824
					c0.047,0.338,0.093,0.666,0.143,0.992l1.828-3.205C222.149,222.027,205.25,178.041,201.712,168.259z"/>
				<path fill="#391609" d="M220.321,225.545c-0.019,0-0.04-0.004-0.059-0.006c-0.127-0.025-0.229-0.131-0.251-0.262
					c-0.047-0.318-0.093-0.635-0.134-0.959c-0.449-1.172-11.535-30.238-17.008-46.807c-5.245-15.883-18.755-48.195-25.246-63.719
					l-1.28-3.064c-2.637-6.312-4.217-10.882-5.49-14.554c-1.596-4.61-2.652-7.66-4.632-10.842
					c-3.688-5.934-6.368-13.286-6.888-17.107c-1.441-0.585-2.153-2.497-1.989-3.585c0.084-0.542,0.375-0.893,0.799-0.963
					c-0.028-0.586,0.096-1.038,0.378-1.36c0.316-0.363,0.839-0.499,1.326-0.366c0.056-0.406,0.235-0.7,0.406-0.893
					c0.341-0.387,0.852-0.623,1.37-0.623c0.319,0,0.601,0.09,0.815,0.251c0.304-0.304,0.719-0.474,1.171-0.474
					c0.601,0,1.153,0.285,1.509,0.769c0.164-0.103,0.362-0.155,0.579-0.155c1.1,0,2.687,1.379,3.331,3.437
					c0.031,0.049,0.05,0.108,0.05,0.17c0,0.173-0.152,0.297-0.319,0.313c-0.074-0.006-0.143-0.025-0.201-0.071
					c-0.468-0.378-0.945-0.57-1.425-0.57c-0.775,0-1.308,0.508-1.314,0.515c-0.071,0.065-0.17,0.099-0.263,0.083
					c-0.1-0.016-0.183-0.071-0.229-0.158c-0.009-0.015-0.858-1.546-2.061-1.676c-0.288-0.034-0.505,0.062-0.666,0.292
					c-0.4,0.564-0.4,1.813,0.003,2.971c0.267,0.772,0.796,1.345,1.308,1.896c0.613,0.666,1.19,1.292,1.236,2.175
					c0.645,5.713,1.413,10.225,6.045,20.295c3.238,7.034,4.539,10.371,6.699,15.908c1.044,2.68,2.23,5.717,3.922,9.916
					c2.244,5.562,5.401,12.741,8.45,19.682c4.04,9.187,7.526,17.123,8.01,19.282l0.155,0.709c0.703,3.188,1.056,4.791,3.578,12.162
					c3.495,9.662,20.268,53.32,20.435,53.759c0.038,0.088,0.028,0.186-0.019,0.268l-1.831,3.203
					C220.535,225.486,220.433,225.545,220.321,225.545z M158.313,64.285c-0.074,0-0.285,0-0.353,0.449
					c-0.136,0.911,0.552,2.597,1.75,2.965c0.118,0.034,0.205,0.14,0.217,0.26c0.446,3.694,3.117,11.081,6.823,17.042
					c2.017,3.244,3.08,6.318,4.694,10.969c1.271,3.666,2.848,8.227,5.475,14.52l1.28,3.061c6.494,15.536,20.01,47.857,25.266,63.765
					c5.549,16.813,16.893,46.516,17.008,46.814c0.009,0.023,0.016,0.045,0.019,0.072s0.006,0.057,0.009,0.084l1.305-2.283
					c-1.051-2.736-16.986-44.238-20.389-53.639c-2.534-7.412-2.891-9.023-3.601-12.233l-0.157-0.709
					c-0.465-2.098-4.109-10.389-7.97-19.167c-3.049-6.947-6.21-14.129-8.456-19.7c-1.691-4.199-2.879-7.238-3.926-9.922
					c-2.153-5.524-3.455-8.858-6.68-15.871c-4.673-10.157-5.451-14.715-6.104-20.509c-0.037-0.675-0.517-1.196-1.072-1.8
					c-0.53-0.573-1.128-1.221-1.441-2.116c-0.396-1.146-0.527-2.683,0.078-3.539c0.297-0.412,0.722-0.607,1.251-0.551
					c1.146,0.13,1.983,1.162,2.343,1.692c0.3-0.202,0.809-0.456,1.45-0.456c0.337,0,0.672,0.068,0.998,0.208
					c-0.861-1.778-2.429-2.662-2.813-2.042c-0.059,0.096-0.161,0.152-0.282,0.146c-0.118-0.009-0.217-0.077-0.263-0.183
					c-0.267-0.57-0.774-0.774-1.162-0.774c-0.381,0-0.7,0.183-0.886,0.492c-0.059,0.1-0.158,0.171-0.275,0.155
					c-0.112,0-0.214-0.062-0.267-0.161c-0.13-0.235-0.431-0.26-0.558-0.26c-0.335,0-0.682,0.158-0.902,0.409
					c-0.214,0.245-0.3,0.57-0.251,0.936c0.019,0.127-0.043,0.251-0.155,0.316c-0.112,0.062-0.248,0.05-0.347-0.028
					c-0.136-0.108-0.325-0.17-0.505-0.17c-0.137,0-0.326,0.034-0.474,0.205c-0.143,0.164-0.294,0.511-0.192,1.221
					c0.013,0.099-0.021,0.198-0.096,0.27c-0.075,0.071-0.177,0.099-0.276,0.081C158.385,64.291,158.348,64.285,158.313,64.285z"/>
			</g>
			<path opacity="0.7" fill="#F4BCA1" d="M201.712,168.259c-2.705-7.911-2.913-9.159-3.746-12.905
				c-0.834-3.747-11.238-26.012-16.441-38.918c-5.205-12.905-5.828-15.399-10.615-25.808c-4.787-10.405-5.463-14.972-6.076-20.41
				c-0.074-1.457-1.915-2.222-2.525-3.985c-0.613-1.76-0.384-3.83,0.995-3.675c1.379,0.152,2.299,1.837,2.299,1.837
				s1.403-1.379,3.154,0.037c-0.75-2.51-3.043-4.009-3.703-2.953c-0.53-1.146-2.026-1.276-2.6-0.307
				c-0.483-0.883-2.513-0.356-2.293,1.277c-0.616-0.483-1.939-0.354-1.673,1.543c-1.543-0.31-0.896,3.38,1.131,4.003
				c0.468,3.904,3.278,11.393,6.866,17.169c3.594,5.775,4.217,11.238,10.147,25.445c5.934,14.201,20.919,49.791,26.536,66.805
				c5.621,17.014,17.011,46.824,17.011,46.824c0.047,0.338,0.093,0.666,0.143,0.992l1.828-3.205
				C222.149,222.027,205.25,178.041,201.712,168.259z"/>
			<g>
				<path fill="#F4BCA1" d="M239.381,191.984c-15.818-25.808-25.393-33.092-26.846-39.125
					c-4.998-20.397-19.044-41.784-23.884-47.401c-4.837-5.621-7.18-5.308-7.024-10.458c0.155-5.149,0.313-5.305-1.562-7.805
					c-1.872-2.498-3.434-1.559-3.589-4.527c-0.313-6.553-1.403-8.583-1.403-12.174c0.31-3.51-1.472-5.397-2.882-4.651
					c-0.617-1.189-2.113-0.836-2.113-0.836s-0.31-0.486-1.323-0.573c-1.751-1.416-3.154-0.037-3.154-0.037s-0.92-1.686-2.299-1.837
					c-1.379-0.155-1.608,1.915-0.995,3.675c0.61,1.763,2.451,2.528,2.525,3.985c0.613,5.438,1.289,10.005,6.076,20.41
					c4.787,10.408,5.41,12.902,10.615,25.808c5.203,12.906,15.607,35.171,16.441,38.918c0.833,3.746,1.041,4.995,3.746,12.905
					c3.538,9.782,20.438,53.768,20.438,53.768l-1.828,3.205c3.548,23.969,18.517,23.512,24.47,19.406
					C253.742,237.354,255.195,217.793,239.381,191.984z"/>
				<path fill="#391609" d="M237.484,247.098h-0.003c-4.279,0-14.554-2.125-17.47-21.82c-0.01-0.07,0.003-0.139,0.04-0.201
					l1.754-3.072c-1.051-2.736-16.986-44.238-20.389-53.639c-2.534-7.412-2.891-9.023-3.601-12.233l-0.157-0.709
					c-0.465-2.098-4.109-10.389-7.97-19.167c-3.049-6.947-6.21-14.129-8.456-19.7c-1.691-4.199-2.879-7.238-3.923-9.922
					c-2.156-5.524-3.458-8.858-6.683-15.871c-4.673-10.157-5.451-14.715-6.104-20.509c-0.037-0.675-0.517-1.196-1.072-1.8
					c-0.53-0.573-1.128-1.221-1.441-2.116c-0.396-1.146-0.527-2.683,0.078-3.539c0.294-0.412,0.719-0.61,1.251-0.551
					c1.146,0.13,1.983,1.162,2.343,1.692c0.3-0.202,0.809-0.456,1.45-0.456c0.601,0,1.187,0.22,1.744,0.647
					c0.728,0.083,1.128,0.356,1.317,0.539c0.099-0.012,0.232-0.025,0.381-0.025c0.756,0,1.363,0.285,1.741,0.809
					c0.663-0.22,1.407,0.015,1.974,0.638c0.861,0.939,1.261,2.556,1.094,4.431c0,1.611,0.229,2.891,0.515,4.515
					c0.322,1.819,0.722,4.084,0.892,7.616c0.084,1.611,0.58,1.927,1.407,2.454c0.592,0.378,1.329,0.849,2.119,1.902
					c1.804,2.405,1.791,2.838,1.654,6.966l-0.03,1.035c-0.103,3.368,0.889,4.282,3.061,6.287c1.038,0.96,2.334,2.153,3.886,3.96
					c4.409,5.116,18.861,26.756,23.952,47.525c0.656,2.721,3.027,5.735,6.956,10.73c4.508,5.729,11.322,14.392,19.853,28.308
					c7.331,11.967,11.498,23.521,12.037,33.42c0.48,8.758-1.896,15.734-6.695,19.639
					C242.938,246.295,240.211,247.098,237.484,247.098z M220.644,225.291c2.866,19.117,12.726,21.184,16.838,21.184h0.003
					c2.603,0,5.199-0.764,7.13-2.094c12.149-9.887,5.67-34.014-5.5-52.234c-8.509-13.885-15.31-22.53-19.81-28.25
					c-3.984-5.06-6.386-8.115-7.076-10.966c-5.058-20.658-19.428-42.177-23.813-47.268c-1.527-1.775-2.808-2.956-3.836-3.907
					c-2.247-2.07-3.374-3.111-3.263-6.764l0.031-1.035c0.133-4.097,0.142-4.344-1.531-6.572c-0.719-0.963-1.376-1.382-1.958-1.75
					c-0.89-0.567-1.593-1.017-1.695-2.947c-0.167-3.498-0.563-5.738-0.88-7.539c-0.282-1.59-0.526-2.962-0.526-4.654
					c0.151-1.704-0.195-3.182-0.93-3.981c-0.456-0.502-1.004-0.651-1.487-0.394c-0.078,0.041-0.165,0.046-0.242,0.022
					c-0.078-0.022-0.146-0.078-0.186-0.152c-0.307-0.595-0.896-0.719-1.338-0.719c-0.248,0-0.425,0.041-0.428,0.041
					c-0.127,0.031-0.263-0.025-0.332-0.136c-0.009-0.009-0.267-0.359-1.087-0.431c-0.062-0.003-0.121-0.028-0.17-0.068
					c-0.468-0.378-0.945-0.57-1.425-0.57c-0.775,0-1.308,0.508-1.314,0.515c-0.071,0.065-0.17,0.099-0.263,0.083
					c-0.1-0.016-0.183-0.071-0.229-0.158c-0.009-0.015-0.858-1.546-2.061-1.676c-0.285-0.034-0.505,0.062-0.666,0.292
					c-0.4,0.564-0.4,1.813,0.003,2.971c0.267,0.772,0.796,1.345,1.308,1.896c0.613,0.666,1.19,1.292,1.236,2.175
					c0.645,5.713,1.413,10.225,6.045,20.295c3.238,7.034,4.539,10.371,6.699,15.908c1.044,2.68,2.23,5.717,3.922,9.916
					c2.244,5.562,5.401,12.741,8.45,19.682c4.04,9.187,7.526,17.123,8.01,19.282l0.155,0.709c0.703,3.188,1.056,4.791,3.578,12.162
					c3.495,9.662,20.268,53.32,20.435,53.759c0.038,0.088,0.028,0.186-0.019,0.268L220.644,225.291z"/>
			</g>
			<g>
				<path opacity="0.7" fill="#F4BCA1" d="M248.121,210.195c3.124,9.988,4.057,26.531-7.179,27.471
					c-11.238,0.936-16.546-23.725-19.044-32.779c-2.497-9.055-0.313-14.049,1.875-24.035c2.185-9.993,17.169,14.359,17.169,14.359
					l0.526,0.334c-0.666-1.178-1.351-2.361-2.088-3.561c-15.818-25.808-25.393-33.092-26.846-39.125
					c-4.998-20.397-19.044-41.784-23.884-47.401c-4.837-5.621-7.18-5.308-7.024-10.458c0.09-2.94,0.18-4.251-0.111-5.302
					c0.108,4.282-3.083,6.247,0.425,10.089c4.371,4.784,7.284,8.949,12.486,17.271c9.066,14.51,13.943,27.264,14.362,32.469
					c0.415,5.203-0.834,10.613,2.705,14.566c3.538,3.954,3.535,5.41,0.833,9.575c-2.708,4.165-3.749,5.202-6.662-0.626
					c-2.912-5.829-4.994-14.566-3.327-13.943c3.12,1.249,7.073,1.249,3.12-0.416c-8.741-2.708-25.219-51.113-27.977-57.583
					s-5.754-11.864-8.63-19.177c-2.875-7.31-4.555-14.021,1.559-12.822c2.401,0.471,4.006,2.758,5.069,5.357
					c-0.229-1.333-0.406-2.522-0.406-3.966c0.31-3.51-1.472-5.397-2.882-4.651c-0.617-1.189-2.113-0.836-2.113-0.836
					s-0.31-0.486-1.323-0.573c-1.751-1.416-3.154-0.037-3.154-0.037s-0.92-1.686-2.299-1.837c-1.379-0.155-1.608,1.915-0.995,3.675
					c0.61,1.763,2.451,2.528,2.525,3.985c0.613,5.438,1.289,10.005,6.076,20.41c4.787,10.408,5.41,12.902,10.615,25.808
					c5.203,12.906,15.607,35.171,16.441,38.918c0.833,3.746,1.041,4.995,3.746,12.905c3.538,9.782,20.438,53.768,20.438,53.768
					l-1.828,3.205c3.548,23.969,18.517,23.512,24.47,19.406c6.811-5.547,9.273-18.211,3.089-35.32
					C247.945,209.59,248.025,209.881,248.121,210.195z"/>
			</g>
		</g>
		<path opacity="0.5" fill="#F4BCA1" d="M206.006,143.592c-5.094-12.654-10.324-26.929-19.697-37.121
			c-0.105-0.114-0.371,0.183-0.291,0.298c4.09,5.785,7.719,11.675,10.848,18.04c3.105,6.312,5.661,12.871,8.583,19.267
			C205.585,144.373,206.108,143.849,206.006,143.592z"/>
		<g>
			<path opacity="0.7" fill="#F4BCA1" d="M201.712,168.259c-2.705-7.911-2.913-9.159-3.746-12.905
				c-0.834-3.747-11.238-26.012-16.441-38.918c-5.205-12.905-5.828-15.399-10.615-25.808c-4.787-10.405-5.463-14.972-6.076-20.41
				c-0.074-1.457-1.915-2.222-2.525-3.985c-0.613-1.76-0.384-3.83,0.995-3.675c1.379,0.152,2.299,1.837,2.299,1.837
				s1.403-1.379,3.154,0.037c-0.75-2.51-3.043-4.009-3.703-2.953c-0.53-1.146-2.026-1.276-2.6-0.307
				c-0.483-0.883-2.513-0.356-2.293,1.277c-0.616-0.483-1.939-0.354-1.673,1.543c-1.543-0.31-0.896,3.38,1.131,4.003
				c0.034,0.279,0.083,0.583,0.14,0.896c0.272-0.465,0.61-0.778,1.022-0.837c2.119-0.304,1.819,5.549,4.239,10.897
				c1.549,3.421,2.885,6.755,2.751,8.502c1.695,3.359,2.773,7.009,4.796,12.654c-0.737-2.352-2.123-6.984-1.658-6.984
				c0.626,0,16.856,41.208,22.27,54.528c4.083,10.055,11.012,27.097,10.764,32.083c5.828,17.262,16.236,44.504,16.236,44.504
				c0.047,0.338,0.093,0.666,0.143,0.992l1.828-3.205C222.149,222.027,205.25,178.041,201.712,168.259z"/>
		</g>
		<g>
			<g>
				<path fill="#38322E" d="M131.833,225.752c0,0-2.754,6.762-10.405,5.305c-4.527-1.248-5.255-4.836-5.255-4.836
					s-2.498,3.746,3.591,5.98c-3.018-0.258-4.685-1.768-4.685-1.768s0.158,5.256,4.945,6.713c-3.901-0.311-6.296,2.652-1.456,6.348
					c4.837,3.693,12.174,5.305,16.338-1.512c0.05,1.875-0.728,3.176-0.728,3.176s3.536,0.627,5.252-7.182
					c0.366,1.512,0.053,3.33,0.053,3.33s4.112-1.143,3.067-7.023c-1.038-5.879-7.437-7.908-7.437-7.908L131.833,225.752z"/>
				<path fill="#391609" d="M127.034,246.992c-2.795,0-5.949-1.186-8.654-3.252c-3.018-2.301-2.987-4.061-2.705-4.9
					c0.356-1.047,1.428-1.762,2.891-1.967c-3.619-1.986-3.796-6.383-3.799-6.434c0-0.123,0.071-0.238,0.183-0.291
					c0.112-0.053,0.248-0.029,0.341,0.053c0.009,0.01,0.737,0.648,2.067,1.146c-0.939-0.65-1.553-1.41-1.834-2.264
					c-0.53-1.627,0.353-2.982,0.394-3.037c0.068-0.105,0.195-0.154,0.319-0.133c0.121,0.021,0.22,0.121,0.245,0.24
					c0.031,0.141,0.759,3.422,5.032,4.602c0.672,0.127,1.357,0.195,2.011,0.195c5.775,0,8-5.268,8.022-5.316
					c0.056-0.139,0.202-0.221,0.35-0.191l3.278,0.625c0.099,0.031,6.628,2.166,7.688,8.162c1.075,6.088-3.25,7.365-3.294,7.377
					c-0.102,0.031-0.213,0.004-0.291-0.068c-0.081-0.07-0.118-0.18-0.099-0.285c0-0.012,0.108-0.666,0.118-1.5
					c-1.906,6.313-5.171,5.711-5.171,5.711c-0.099-0.018-0.186-0.086-0.229-0.18c-0.043-0.092-0.037-0.201,0.013-0.287
					c0.006-0.01,0.44-0.748,0.616-1.889C132.627,245.654,130.062,246.992,127.034,246.992z M119.467,237.434
					c-1.614,0-2.869,0.633-3.201,1.605c-0.394,1.164,0.514,2.695,2.491,4.205c2.6,1.982,5.615,3.123,8.276,3.123
					c3.157,0,5.788-1.57,7.604-4.545c0.071-0.119,0.214-0.174,0.35-0.141c0.13,0.035,0.227,0.154,0.229,0.295
					c0.034,1.27-0.292,2.283-0.53,2.85c0.923-0.164,3.176-1.174,4.44-6.916c0.031-0.143,0.155-0.244,0.301-0.244h0.003
					c0.146,0,0.27,0.1,0.304,0.238c0.254,1.057,0.195,2.244,0.127,2.916c0.992-0.492,3.164-2.092,2.386-6.484
					c-0.995-5.619-7.167-7.643-7.229-7.664l-3.002-0.57c-0.527,1.076-3.018,5.473-8.493,5.473c-0.691,0-1.416-0.07-2.15-0.211
					c-3.396-0.936-4.744-3.107-5.243-4.287c-0.146,0.465-0.242,1.117-0.013,1.82c0.409,1.234,1.67,2.248,3.755,3.012
					c0.146,0.057,0.229,0.211,0.195,0.363c-0.034,0.148-0.176,0.252-0.332,0.242c-2.07-0.18-3.52-0.924-4.273-1.41
					c0.217,1.426,1.1,4.664,4.651,5.742c0.155,0.045,0.245,0.201,0.217,0.355c-0.031,0.158-0.174,0.27-0.332,0.254
					C119.821,237.443,119.641,237.434,119.467,237.434z"/>
			</g>
			<g opacity="0.5">
				<path fill="#38322E" d="M142.551,234.283c-1.038-5.879-7.437-7.908-7.437-7.908l-3.281-0.623c0,0-2.754,6.762-10.405,5.305
					c-0.341-0.096-0.65-0.205-0.948-0.322c2.925,2.383,6.851,3.543,11.043-1.031c1.403-2.027,1.094,3.594,2.497,1.719
					c1.404-1.873,5.776,3.434,2.965,7.803c-2.342,3.75-0.936,0.313-1.249-1.559c-2.885,4.088-8.555,9.648-15.428,6.996
					c4.729,2.783,10.907,3.363,14.597-2.68c0.05,1.875-0.728,3.176-0.728,3.176s3.536,0.627,5.252-7.182
					c0.366,1.512,0.053,3.33,0.053,3.33S143.596,240.164,142.551,234.283z"/>
			</g>
			<path fill="#38322E" d="M119.191,233.916c0,0,6.089,3.125,10.929-1.557c0,0,0.623,1.715-3.278,3.432
				c-3.904,1.721-0.471,2.969,1.246,2.029c1.72-0.936-0.623,3.592,1.249,2.031c1.875-1.563,3.746-4.061,3.746-4.061
				s-1.091,8.119-9.677,7.492c2.5-0.936,3.12-3.119,0.784-2.652c-2.342,0.469,1.717-2.342-0.784-1.717
				c-2.498,0.623,2.188-1.715-1.249-2.5C118.724,235.637,119.191,233.916,119.191,233.916z"/>
		</g>
		<g>
			<path fill="#F65FAA" d="M132.122,222.279c0,0-2.667,0.512-1.949,2.871c0.716,2.355,7.179,3.074,7.381,0.104
				C134.991,223.922,132.122,222.279,132.122,222.279z"/>
			<path fill="#391609" d="M134.449,227.521L134.449,227.521c-1.881,0-4.124-0.799-4.577-2.281c-0.226-0.746-0.17-1.406,0.165-1.961
				c0.62-1.027,1.967-1.299,2.026-1.307c0.071-0.016,0.148-0.004,0.21,0.033c0.031,0.02,2.897,1.654,5.426,2.969
				c0.108,0.059,0.177,0.176,0.167,0.297C137.771,226.66,136.46,227.521,134.449,227.521z M132.072,222.611
				c-0.294,0.076-1.112,0.35-1.503,0.99c-0.238,0.4-0.272,0.891-0.099,1.457c0.307,1.014,2.095,1.84,3.976,1.84h0.003
				c1.224,0,2.553-0.391,2.767-1.471C135.006,224.271,132.605,222.914,132.072,222.611z"/>
		</g>
		<g>
			<g>
				<path fill="#38322E" d="M161.338,206.836c0,0,2.026-0.154,5.146-0.936c-3.588,0.158-9.131-1.404-9.751-2.885
					c-1.562,1.014-5.153,1.871-8.041-2.578c-2.888-4.447,0.158-5.305,3.901-4.291c-2.417-2.344-4.759-5.463-4.759-5.463
					s3.043,3.904,5.775,2.965c-4.604-4.449-7.569-11.084-6.166-16.156c1.481-0.076,2.575,4.84,3.124,4.369
					c1.404-0.855,2.175-8.936-1.174-15.898c1.639,0.787,3.35,5.778,4.403,4.858c1.047-1.116-0.849-8.047-3.861-9.252
					c-0.164,0.05-0.254,0.081-0.254,0.081c8.793-3.954,3.486-9.832,3.486-9.832s-0.208,0.831-1.456,2.339
					c0.521-3.852-4.781-6.553-4.781-6.553s1.441,3.074,0.675,5.373c-0.434-5.757-8.301-6.813-8.301-6.813s2.16,0.818,3.693,3.17
					c-4.416-3.313-10.169-1.199-10.169-1.199s4.893,0.958,6.715,3.355c-1.484-1.053-6.957-1.295-7.437,0.818
					c2.782-1.246,8.313,0.288,7.845,4.815c-18.104,0.781-26.223,11.864-29.033,22.945c-5.462,22.008,14.309,42.195,26.378,45.84
					c19.332,5.971,27.146-10.201,32.634-15.113C169.227,207.238,161.338,206.836,161.338,206.836z"/>
				<path fill="#391609" d="M145.365,227.525L145.365,227.525c-2.578,0-5.323-0.443-8.158-1.32
					c-12.481-3.766-32.061-24.176-26.588-46.211c2.088-8.24,8.635-22.168,29.042-23.168c0.059-1.112-0.273-2.07-0.985-2.86
					c-0.979-1.088-2.668-1.763-4.403-1.763c-0.762,0-1.472,0.136-2.036,0.39c-0.111,0.047-0.238,0.031-0.328-0.043
					c-0.093-0.074-0.133-0.195-0.105-0.31c0.263-1.159,1.794-1.85,4.099-1.85c0.809,0,1.611,0.09,2.293,0.248
					c-2.101-1.531-5.388-2.19-5.429-2.197c-0.139-0.028-0.238-0.143-0.251-0.282c-0.012-0.143,0.075-0.27,0.205-0.319
					c0.074-0.028,1.887-0.682,4.285-0.682c1.708,0,3.257,0.329,4.62,0.979c-1.218-1.208-2.414-1.673-2.429-1.679
					c-0.152-0.056-0.232-0.214-0.195-0.366c0.041-0.155,0.183-0.257,0.344-0.235c0.075,0.009,6.445,0.917,8.165,5.298
					c-0.084-1.735-0.849-3.396-0.862-3.417c-0.056-0.121-0.028-0.264,0.068-0.356c0.096-0.093,0.242-0.115,0.359-0.053
					c0.205,0.102,4.642,2.411,4.967,5.89c0.675-0.951,0.821-1.475,0.824-1.481c0.028-0.111,0.118-0.195,0.229-0.223
					c0.108-0.025,0.226,0.009,0.304,0.093c0.087,0.096,2.15,2.42,1.565,5.215c-0.391,1.862-1.859,3.452-4.369,4.738
					c1.745,1.097,3.055,3.904,3.573,6.244c0.205,0.933,0.458,2.59-0.146,3.232c-0.164,0.148-0.332,0.21-0.508,0.21
					c-0.704,0-1.345-1.041-2.16-2.361c-0.332-0.545-0.688-1.122-1.044-1.605c2.597,6.572,1.986,13.894,0.418,14.851
					c-0.041,0.041-0.14,0.078-0.242,0.078c-0.403,0-0.632-0.484-1.153-1.668c-0.406-0.922-1.057-2.406-1.661-2.689
					c-1.112,4.615,1.385,10.967,6.154,15.574c0.081,0.074,0.111,0.186,0.09,0.291c-0.028,0.105-0.103,0.191-0.205,0.227
					c-1.038,0.359-2.25,0.053-3.25-0.531c0.7,0.811,1.503,1.684,2.305,2.465c0.09,0.055,0.152,0.154,0.152,0.27
					c0,0.174-0.143,0.322-0.316,0.309c-0.028,0-0.059,0-0.09-0.006c-0.898-0.244-1.748-0.375-2.454-0.375
					c-0.737,0-1.692,0.137-2.048,0.797c-0.378,0.691-0.053,1.865,0.942,3.398c1.744,2.684,3.675,3.248,4.985,3.248
					c1.308,0,2.271-0.537,2.622-0.766c0.081-0.049,0.173-0.064,0.263-0.037s0.158,0.094,0.195,0.176
					c0.536,1.273,5.94,2.852,9.457,2.697c0.155,0.002,0.297,0.107,0.319,0.27c0.025,0.158-0.074,0.307-0.232,0.346
					c-1.078,0.27-2.026,0.465-2.804,0.607c2.463,0.428,5.993,1.459,6.476,3.924c0.024,0.105-0.013,0.219-0.096,0.291
					c-1.035,0.93-2.147,2.256-3.439,3.793C162.199,220.182,156.033,227.525,145.365,227.525z M134.272,151.58
					c1.906,0,3.771,0.753,4.868,1.968c0.877,0.973,1.267,2.222,1.122,3.606c-0.016,0.155-0.143,0.273-0.297,0.282
					c-20.218,0.871-26.685,14.604-28.745,22.708c-5.379,21.682,13.888,41.756,26.17,45.463c2.776,0.857,5.457,1.295,7.976,1.295
					c10.377,0,16.432-7.217,20.856-12.488c1.249-1.486,2.336-2.781,3.362-3.727c-0.868-3.129-8.189-3.533-8.264-3.539
					c-0.165-0.006-0.292-0.143-0.297-0.307c0-0.164,0.127-0.303,0.291-0.316c0.013,0,1.063-0.084,2.789-0.414
					c-3.067-0.352-6.522-1.457-7.474-2.672c-0.523,0.291-1.475,0.701-2.689,0.701c-1.465,0-3.613-0.613-5.506-3.533
					c-1.144-1.76-1.469-3.117-0.973-4.033c0.4-0.734,1.298-1.123,2.6-1.123c0.477,0,0.998,0.051,1.552,0.148
					c-2.119-2.195-4.006-4.703-4.025-4.73c-0.105-0.137-0.077-0.332,0.059-0.434c0.136-0.105,0.332-0.08,0.434,0.055
					c0.025,0.029,2.364,2.99,4.645,2.99c0.086,0,0.173-0.006,0.26-0.012c-4.75-4.818-7.146-11.35-5.841-16.061
					c0.037-0.127,0.152-0.219,0.285-0.225h0.003c1.106,0,1.831,1.65,2.473,3.109c0.189,0.428,0.437,0.99,0.592,1.221
					c1.134-1.221,1.822-8.752-1.385-15.417c-0.056-0.118-0.031-0.26,0.062-0.356c0.09-0.093,0.236-0.118,0.356-0.059
					c0.833,0.4,1.608,1.658,2.358,2.875c0.536,0.871,1.273,2.067,1.627,2.067c0.012,0,0.034,0,0.074-0.034
					c0.205-0.22,0.301-1.159-0.031-2.652c-0.545-2.451-1.958-5.28-3.638-6.036c-0.084,0.025-0.127,0.043-0.133,0.043
					c-0.158,0.053-0.332-0.021-0.394-0.177c-0.065-0.155,0.009-0.334,0.161-0.403c2.795-1.255,4.409-2.826,4.799-4.666
					c0.388-1.844-0.576-3.52-1.103-4.267c-0.204,0.418-0.595,1.072-1.298,1.924c-0.09,0.108-0.238,0.146-0.365,0.09
					c-0.13-0.056-0.205-0.192-0.186-0.328c0.369-2.721-2.438-4.884-3.842-5.782c0.384,1.112,0.896,3.092,0.341,4.741
					c-0.046,0.143-0.189,0.229-0.332,0.211c-0.148-0.019-0.267-0.136-0.272-0.285c-0.276-3.663-3.799-5.351-6.085-6.064
					c0.663,0.515,1.407,1.24,2.048,2.225c0.084,0.124,0.065,0.294-0.046,0.396c-0.111,0.105-0.279,0.115-0.4,0.025
					c-1.592-1.196-3.548-1.804-5.807-1.804c-1.177,0-2.212,0.17-2.946,0.335c1.602,0.446,4.406,1.44,5.735,3.185
					c0.093,0.127,0.081,0.297-0.025,0.409c-0.108,0.108-0.282,0.127-0.406,0.034c-0.607-0.428-2.03-0.729-3.461-0.729
					c-1.149,0-2.407,0.202-3.061,0.722C133.284,151.632,133.77,151.58,134.272,151.58z"/>
			</g>
			<g>
				<path fill="#F4BCA1" d="M178.296,182.41c4.372,5.723,5.828,18.42-7.907,27.992c-0.152,0.121-0.304,0.254-0.458,0.393
					c-0.704-3.557-8.592-3.959-8.592-3.959s2.026-0.154,5.146-0.936c-3.588,0.158-9.131-1.404-9.751-2.885
					c-1.562,1.014-5.153,1.871-8.041-2.578c-2.888-4.447,0.158-5.305,3.901-4.291c-2.417-2.344-4.759-5.463-4.759-5.463
					s3.043,3.904,5.775,2.965c-4.604-4.449-7.569-11.084-6.166-16.156c1.481-0.076,2.575,4.84,3.124,4.369
					c1.404-0.855,2.175-8.936-1.174-15.898c1.639,0.787,3.35,5.778,4.403,4.858c1.047-1.116-0.849-8.047-3.861-9.252
					c1.63-0.474,10.786-2.522,17.021,9.29c2.29,5.829,4.208,6.86,6.451,5.934c1.487-1.234,0.917-1.993,2.441-2.47
					C177.37,173.846,180.084,176.502,178.296,182.41z"/>
				<path fill="#391609" d="M169.93,211.105c-0.034,0-0.068-0.004-0.099-0.016c-0.108-0.037-0.186-0.123-0.208-0.234
					c-0.648-3.279-8.227-3.701-8.304-3.707c-0.165-0.006-0.292-0.143-0.297-0.307c0-0.164,0.127-0.303,0.291-0.316
					c0.013,0,1.063-0.084,2.789-0.414c-3.067-0.352-6.522-1.457-7.474-2.672c-0.523,0.291-1.475,0.701-2.689,0.701
					c-1.465,0-3.613-0.613-5.506-3.533c-1.144-1.76-1.469-3.117-0.973-4.033c0.4-0.734,1.298-1.123,2.6-1.123
					c0.477,0,0.998,0.051,1.552,0.148c-2.119-2.195-4.006-4.703-4.025-4.73c-0.105-0.137-0.077-0.332,0.059-0.434
					c0.136-0.105,0.332-0.08,0.434,0.055c0.025,0.029,2.364,2.99,4.645,2.99c0.086,0,0.173-0.006,0.26-0.012
					c-4.75-4.818-7.146-11.35-5.841-16.061c0.037-0.127,0.152-0.219,0.285-0.225h0.003c1.106,0,1.831,1.65,2.473,3.109
					c0.189,0.428,0.437,0.99,0.592,1.221c1.134-1.221,1.822-8.752-1.385-15.417c-0.056-0.118-0.031-0.26,0.062-0.356
					c0.09-0.093,0.236-0.118,0.356-0.059c0.833,0.4,1.608,1.658,2.358,2.875c0.536,0.871,1.273,2.067,1.627,2.067
					c0.012,0,0.034,0,0.074-0.034c0.205-0.22,0.301-1.159-0.031-2.652c-0.555-2.498-2.014-5.389-3.737-6.076
					c-0.124-0.05-0.202-0.174-0.199-0.307c0.006-0.13,0.1-0.248,0.227-0.285c0.573-0.165,1.775-0.446,3.377-0.446
					c4.006,0,9.689,1.713,14.005,9.891c1.651,4.205,3.139,6.064,4.827,6.064c0.366,0,0.756-0.084,1.184-0.258
					c0.592-0.492,0.821-0.898,1.02-1.258c0.285-0.502,0.527-0.933,1.491-1.236c0.781-0.245,1.738,0.186,2.411,1.091
					c0.563,0.756,1.723,2.972,0.48,7.229c2.476,3.326,3.522,8.031,2.807,12.623c-0.65,4.152-3.064,10.24-10.882,15.691
					c-0.133,0.105-0.282,0.234-0.431,0.367C170.079,211.078,170.004,211.105,169.93,211.105z M163.758,206.811
					c2.29,0.396,5.509,1.32,6.333,3.43c0.034-0.027,0.068-0.055,0.105-0.082c7.653-5.336,10.005-11.258,10.634-15.285
					c0.703-4.488-0.338-9.072-2.779-12.271c-0.063-0.084-0.081-0.186-0.053-0.281c1.236-4.09,0.176-6.139-0.338-6.833
					c-0.505-0.678-1.203-1.025-1.72-0.867c-0.731,0.229-0.883,0.499-1.134,0.948c-0.223,0.394-0.496,0.881-1.199,1.463
					c-0.028,0.018-0.053,0.037-0.081,0.047c-0.527,0.217-1.007,0.324-1.469,0.324h-0.003c-1.98,0-3.644-1.982-5.388-6.429
					c-4.158-7.871-9.605-9.528-13.441-9.528c-1.004,0-1.847,0.121-2.442,0.242c1.648,1.174,2.885,3.861,3.384,6.117
					c0.205,0.933,0.458,2.59-0.146,3.232c-0.164,0.148-0.332,0.21-0.508,0.21c-0.704,0-1.345-1.041-2.16-2.361
					c-0.332-0.545-0.688-1.122-1.044-1.605c2.597,6.572,1.986,13.894,0.418,14.851c-0.041,0.041-0.14,0.078-0.242,0.078
					c-0.403,0-0.632-0.484-1.153-1.664c-0.406-0.926-1.057-2.41-1.661-2.693c-1.112,4.615,1.385,10.967,6.154,15.574
					c0.081,0.074,0.111,0.186,0.09,0.291c-0.028,0.105-0.103,0.191-0.205,0.227c-1.038,0.359-2.25,0.053-3.25-0.531
					c0.716,0.828,1.531,1.715,2.349,2.508c0.105,0.1,0.127,0.258,0.056,0.381c-0.071,0.123-0.217,0.184-0.354,0.148
					c-0.898-0.244-1.748-0.375-2.454-0.375c-0.737,0-1.692,0.137-2.048,0.797c-0.378,0.691-0.053,1.865,0.942,3.398
					c1.744,2.684,3.675,3.248,4.985,3.248c1.308,0,2.271-0.537,2.622-0.766c0.081-0.049,0.173-0.064,0.263-0.037
					s0.158,0.094,0.195,0.176c0.536,1.273,5.94,2.852,9.457,2.697c0.155,0.002,0.297,0.107,0.319,0.27
					c0.025,0.158-0.074,0.307-0.232,0.346C165.484,206.473,164.536,206.668,163.758,206.811z"/>
			</g>
		</g>
		<g>
			<path opacity="0.7" fill="#F4BCA1" d="M167.597,178.813c1.023,1.543,1.441,3.068,0.933,3.402
				c-0.505,0.338-1.744-0.645-2.767-2.184c-1.022-1.547-1.441-3.072-0.936-3.406C165.335,176.291,166.574,177.266,167.597,178.813z"
				/>
			
				<ellipse transform="matrix(0.8338 -0.5521 0.5521 0.8338 -70.9098 121.6981)" fill="#391609" cx="166.636" cy="178.602" rx="1.1" ry="3.353"/>
			<path fill="#FFFFFF" d="M166.772,177.275c0.406,0.58,0.552,1.174,0.332,1.326c-0.217,0.152-0.722-0.191-1.127-0.771
				c-0.403-0.578-0.555-1.174-0.332-1.326C165.865,176.352,166.367,176.697,166.772,177.275z"/>
		</g>
		<g>
			<path fill="#F4BCA1" d="M198.954,246.094c-3.405,2.088-10.126,2.783-13.925,3.174c4.942,3.365,10.798,6.146,17.454,7.482
				C200.761,254.012,198.659,249.713,198.954,246.094z"/>
			<path fill="#391609" d="M202.483,257.063c-0.021,0-0.044-0.002-0.063-0.006c-6.113-1.227-12.021-3.758-17.565-7.533
				c-0.111-0.07-0.161-0.203-0.13-0.33s0.14-0.221,0.27-0.236c3.653-0.375,10.448-1.078,13.795-3.129
				c0.102-0.063,0.229-0.063,0.328,0c0.1,0.063,0.158,0.174,0.146,0.291c-0.319,3.941,2.327,8.629,3.483,10.463
				c0.064,0.109,0.062,0.242-0.01,0.344C202.679,257.01,202.582,257.063,202.483,257.063z M185.922,249.49
				c5.051,3.314,10.398,5.605,15.917,6.807c-1.397-2.336-3.284-6.15-3.223-9.65C195.295,248.406,189.56,249.105,185.922,249.49z"/>
		</g>
		<path opacity="0.7" fill="#F4BCA1" d="M192.772,249.816c0.927-0.391,2.603-1.098,3.393-0.146c1.193,1.441,1.869,3.51,2.578,5.219
			c0.146,0.352,0.291,0.699,0.44,1.049c1.081,0.307,2.172,0.586,3.3,0.813c-1.723-2.738-3.824-7.037-3.529-10.656
			c-3.405,2.088-10.126,2.783-13.925,3.174c1.302,0.889,2.677,1.732,4.105,2.521C190.347,251.129,191.496,250.352,192.772,249.816z"
			/>
		<g>
			<path fill="#2ED7FF" d="M193.491,240.164c4.543-4.922-4.887-16.469-8.667-20.715c-2.268,1.252-4.133,2.293-4.604,2.607
				c9.212,11.551,10.773,18.262,4.843,21.383c-2.464,1.295-5.215,0.816-7.843-0.574c0.546,0.529,1.112,1.061,1.695,1.586
				C184.298,245.688,189.286,244.715,193.491,240.164z"/>
			<path fill="#391609" d="M183.012,245.254L183.012,245.254c-1.319,0-2.724-0.164-4.167-0.498c-0.053-0.012-0.103-0.037-0.14-0.072
				c-0.598-0.541-1.171-1.078-1.704-1.596c-0.108-0.107-0.121-0.281-0.031-0.404c0.09-0.127,0.261-0.168,0.396-0.094
				c2.829,1.496,5.413,1.701,7.552,0.576c1.815-0.957,2.869-2.23,3.219-3.885c0.76-3.623-1.911-9.193-8.158-17.029
				c-0.056-0.068-0.077-0.156-0.065-0.242c0.016-0.088,0.063-0.164,0.137-0.215c0.422-0.277,1.977-1.162,4.623-2.617
				c0.127-0.072,0.285-0.047,0.384,0.064c4.158,4.67,13.33,16.078,8.664,21.133C190.728,243.611,187.127,245.254,183.012,245.254z
				 M179.062,244.166c1.373,0.311,2.702,0.465,3.95,0.465l0,0c3.988,0,7.344-1.529,10.25-4.678
				c4.363-4.732-5.184-16.352-8.505-20.109c-2.082,1.146-3.446,1.914-4.071,2.293c6.299,7.953,8.861,13.443,8.062,17.271
				c-0.384,1.824-1.577,3.275-3.541,4.309c-1.875,0.988-4.068,1.049-6.433,0.188C178.869,243.99,178.966,244.076,179.062,244.166z"
				/>
		</g>
		<path fill="#2ED7FF" d="M191.111,239.033c-0.016-2.033-0.077-4.135-0.892-6.027c-0.734-1.707-1.698-3.322-2.926-4.723
			c-0.985-1.117-2.162-2.242-2.829-3.598c-1.044-2.125,0.105-3.004,1.435-4.002c-0.387-0.455-0.753-0.875-1.075-1.234
			c-2.268,1.252-4.133,2.293-4.604,2.607c9.212,11.551,10.773,18.262,4.843,21.383c-2.464,1.295-5.215,0.816-7.843-0.574
			c0.546,0.529,1.112,1.061,1.695,1.586c4.137,0.949,8.04,0.59,11.532-1.693C189.9,241.688,191.118,240.018,191.111,239.033z"/>
		<g>
			<g>
				<path fill="#F65FAA" d="M223.773,238.76c-3.288-8.861-2.572-14.098-1.624-16.732c-1.469,0.928-2.748,3.619-2.748,3.619
					s-3.12-0.313-13.891-2.34c-1.562-4.684-9.993-9.68-9.993-9.68s-6.163,3.326-10.693,5.822c3.78,4.246,13.21,15.793,8.667,20.715
					c-4.205,4.551-9.193,5.523-14.575,4.287c1.844,1.672,3.886,3.305,6.113,4.816c3.799-0.391,10.52-1.086,13.925-3.174
					c-0.295,3.619,1.807,7.918,3.529,10.656c10.436,2.094,22.833,0.611,36.742-7.846c0,0,0.942-0.428,2.309-1.352
					C234.819,249.643,227.135,247.826,223.773,238.76z"/>
				<path fill="#391609" d="M211.029,257.908c-2.888,0-5.785-0.287-8.608-0.852c-0.083-0.018-0.157-0.068-0.204-0.139
					c-1.4-2.232-3.666-6.443-3.601-10.271c-3.598,1.904-10.026,2.568-13.553,2.93c-0.078,0.01-0.148-0.008-0.208-0.053
					c-2.119-1.438-4.189-3.066-6.15-4.84c-0.105-0.096-0.133-0.25-0.068-0.377c0.068-0.125,0.208-0.189,0.348-0.158
					c1.4,0.322,2.754,0.482,4.027,0.482c3.988,0,7.344-1.529,10.25-4.678c4.44-4.813-5.515-16.754-8.673-20.295
					c-0.062-0.072-0.09-0.168-0.071-0.262c0.016-0.092,0.071-0.172,0.155-0.219c4.48-2.473,10.638-5.791,10.699-5.826
					c0.096-0.049,0.214-0.049,0.307,0.006c0.344,0.205,8.348,4.99,10.064,9.674c9.001,1.691,12.614,2.176,13.476,2.281
					c0.334-0.66,1.459-2.725,2.767-3.549c0.111-0.07,0.257-0.061,0.362,0.023c0.103,0.082,0.14,0.223,0.097,0.346
					c-1.014,2.811-1.553,7.961,1.62,16.52c2.24,6.045,6.678,9.373,12.493,9.373c1.599,0,3.241-0.262,4.884-0.77
					c0.146-0.049,0.307,0.021,0.371,0.162c0.068,0.143,0.022,0.309-0.104,0.396c-1.37,0.926-2.315,1.357-2.355,1.373
					C229.85,254.969,220.309,257.908,211.029,257.908z M202.676,256.471c2.742,0.539,5.552,0.814,8.354,0.814
					c9.162,0,18.597-2.908,28.032-8.646c0.019-0.01,0.22-0.104,0.555-0.283c-1.029,0.193-2.052,0.291-3.059,0.291
					c-3.529,0-9.921-1.266-13.079-9.777c-2.885-7.781-2.748-12.834-1.945-15.906c-1.035,1.113-1.841,2.795-1.85,2.816
					c-0.057,0.119-0.187,0.195-0.313,0.178c-0.031-0.004-3.257-0.338-13.922-2.346c-0.108-0.02-0.198-0.102-0.235-0.207
					c-1.395-4.18-8.57-8.723-9.704-9.418c-0.964,0.521-6.157,3.328-10.191,5.547c4.264,4.84,12.974,15.891,8.403,20.842
					c-2.993,3.236-6.594,4.879-10.709,4.879c-0.97,0-1.979-0.09-3.023-0.266c1.651,1.432,3.371,2.758,5.121,3.959
					c3.675-0.381,10.368-1.086,13.681-3.119c0.102-0.063,0.229-0.063,0.328,0c0.1,0.063,0.158,0.174,0.146,0.291
					C198.951,249.98,201.488,254.563,202.676,256.471z"/>
			</g>
			<g>
				<path fill="#2ED7FF" d="M245.469,244.223c-6.398,4.523-14.829,0.465-19.043-6.246c-4.214-6.713-3.123-15.453-4.06-16.076
					c-0.071,0.037-0.143,0.08-0.217,0.127c-0.948,2.635-2.058,8.025,1.624,16.732c4.056,9.6,11.046,10.883,17.761,8.793
					C242.655,246.795,244.06,245.701,245.469,244.223z"/>
				<path fill="#391609" d="M236.294,248.725L236.294,248.725c-5.738,0-10.048-3.313-12.812-9.848
					c-2.73-6.463-3.294-12.324-1.624-16.955c0.021-0.064,0.065-0.121,0.124-0.158c0.084-0.053,0.161-0.102,0.245-0.143
					c0.099-0.053,0.217-0.043,0.313,0.02c0.418,0.279,0.502,1.113,0.666,3.133c0.261,3.217,0.697,8.604,3.482,13.039
					c3.059,4.871,8.075,8.016,12.782,8.016c2.116,0,4.071-0.629,5.818-1.863c0.131-0.09,0.311-0.07,0.412,0.053
					c0.108,0.121,0.103,0.305-0.009,0.418c-1.202,1.266-2.544,2.398-3.984,3.379c-0.025,0.016-0.053,0.031-0.084,0.039
					C239.765,248.43,237.971,248.725,236.294,248.725z M222.32,222.496c-1.457,4.422-0.861,9.99,1.738,16.141
					c2.652,6.279,6.77,9.463,12.235,9.463l0,0c1.6,0,3.315-0.279,5.101-0.828c0.726-0.496,1.426-1.031,2.092-1.602
					c-1.262,0.52-2.606,0.781-4.016,0.781c-4.918,0-10.142-3.26-13.309-8.309c-2.869-4.563-3.313-10.045-3.579-13.32
					C222.516,223.955,222.435,222.998,222.32,222.496z"/>
			</g>
		</g>
		<g>
			<path fill="#391609" d="M165.524,64.09c0,0-0.025,0.213-0.065,0.539c-0.019,0.152-0.025,0.325-0.034,0.505
				c0.006,0.177-0.006,0.363,0.034,0.539c0.012,0.18,0.068,0.354,0.115,0.521c0.059,0.165,0.118,0.326,0.183,0.465
				c0.056,0.143,0.127,0.26,0.164,0.347c0.041,0.09,0.062,0.149,0.062,0.149s-0.053-0.016-0.146-0.059
				c-0.09-0.04-0.229-0.096-0.359-0.211c-0.068-0.059-0.152-0.111-0.211-0.195c-0.059-0.081-0.143-0.161-0.192-0.26
				c-0.046-0.103-0.124-0.202-0.149-0.319c-0.034-0.115-0.074-0.229-0.086-0.353c-0.016-0.121-0.016-0.242-0.009-0.363
				c-0.003-0.118,0.034-0.235,0.052-0.344c0.059-0.214,0.143-0.403,0.242-0.548C165.313,64.21,165.524,64.09,165.524,64.09z"/>
			<path fill="#391609" d="M168.756,64.434c0,0-0.202,0.189-0.418,0.471c-0.111,0.136-0.22,0.31-0.31,0.489
				c-0.046,0.09-0.081,0.186-0.111,0.285c-0.046,0.093-0.046,0.201-0.071,0.301c-0.003,0.105-0.031,0.21-0.021,0.316
				c0.015,0.105-0.009,0.214,0.012,0.319c0.021,0.105,0.025,0.211,0.041,0.31c0.024,0.099,0.04,0.195,0.056,0.288
				c0.028,0.183,0.077,0.332,0.093,0.446c0.019,0.115,0.028,0.183,0.028,0.183s-0.053-0.04-0.136-0.121
				c-0.081-0.084-0.211-0.195-0.316-0.369c-0.115-0.165-0.229-0.375-0.301-0.629c-0.046-0.121-0.062-0.263-0.077-0.402
				c-0.019-0.14,0.003-0.285,0.006-0.431c0.041-0.146,0.059-0.292,0.124-0.425c0.05-0.136,0.13-0.254,0.211-0.366
				c0.077-0.111,0.176-0.198,0.266-0.279c0.093-0.081,0.189-0.146,0.279-0.192C168.471,64.424,168.756,64.434,168.756,64.434z"/>
			<path fill="#391609" d="M170.079,65.007c0,0-0.037,0.049-0.081,0.139c-0.046,0.078-0.09,0.214-0.148,0.341
				c-0.022,0.075-0.034,0.155-0.062,0.229c-0.034,0.074-0.034,0.164-0.046,0.248c-0.037,0.17-0.034,0.353-0.025,0.542
				c-0.009,0.093-0.012,0.186,0.016,0.282c0.021,0.093,0.024,0.189,0.034,0.279c0.019,0.093,0,0.189,0.031,0.272
				c0.019,0.087,0.034,0.17,0.046,0.248c0.053,0.313,0.046,0.564,0.046,0.564s-0.176-0.149-0.378-0.428
				c-0.053-0.071-0.108-0.148-0.158-0.232c-0.062-0.081-0.086-0.189-0.121-0.288c-0.031-0.108-0.074-0.217-0.096-0.329
				c-0.037-0.111-0.046-0.229-0.043-0.356c0.006-0.121,0.013-0.245,0.019-0.366c0.01-0.118,0.071-0.232,0.103-0.341
				c0.062-0.223,0.226-0.391,0.338-0.524c0.142-0.121,0.263-0.204,0.372-0.238C170.017,65.01,170.079,65.01,170.079,65.007z"/>
			<path fill="#391609" d="M172.192,65.843c0,0-0.019,0.056-0.037,0.152c-0.025,0.087-0.043,0.22-0.071,0.359
				c-0.019,0.075-0.012,0.155-0.028,0.236c-0.006,0.081-0.025,0.161-0.019,0.248c-0.003,0.087,0.003,0.174-0.006,0.26
				c-0.009,0.087,0.019,0.177,0.028,0.27c0.006,0.087-0.003,0.18,0.019,0.267c0.028,0.087,0.038,0.177,0.059,0.264
				c0.019,0.083,0.025,0.173,0.037,0.257c0.028,0.078,0.05,0.155,0.068,0.229c0.081,0.288,0.099,0.533,0.099,0.533
				s-0.186-0.118-0.416-0.366c-0.059-0.062-0.124-0.13-0.176-0.208c-0.046-0.083-0.096-0.176-0.136-0.272
				c-0.041-0.102-0.093-0.202-0.127-0.31c-0.031-0.108-0.034-0.229-0.049-0.341c-0.003-0.118-0.025-0.235-0.009-0.35
				s0.046-0.226,0.071-0.332c0.012-0.111,0.074-0.201,0.115-0.291c0.049-0.09,0.086-0.174,0.146-0.239
				c0.108-0.136,0.21-0.235,0.3-0.291C172.136,65.862,172.192,65.847,172.192,65.843z"/>
			<path fill="#391609" d="M158.487,63.994c0,0,0.127,0.081,0.263,0.173c0.071,0.043,0.118,0.096,0.198,0.155
				c0.075,0.059,0.13,0.133,0.189,0.205c0.041,0.084,0.112,0.152,0.161,0.232c0.047,0.078,0.084,0.161,0.108,0.245
				c0.056,0.155,0.065,0.31,0.065,0.31s-0.14,0.013-0.31-0.049c-0.083-0.028-0.18-0.071-0.27-0.13
				c-0.096-0.056-0.18-0.13-0.248-0.226c-0.062-0.096-0.124-0.195-0.164-0.294c-0.046-0.093-0.059-0.22-0.059-0.31
				C158.407,64.114,158.487,63.994,158.487,63.994z"/>
			<path fill="#391609" d="M160.16,62.451c0,0,0.013,0.043,0.043,0.105c0.022,0.059,0.071,0.143,0.108,0.223
				c0.028,0.047,0.059,0.09,0.078,0.137c0.019,0.046,0.065,0.09,0.087,0.136c0.053,0.096,0.121,0.195,0.186,0.294
				c0.04,0.111,0.139,0.201,0.189,0.31c0.052,0.108,0.114,0.208,0.167,0.301c0.096,0.186,0.14,0.362,0.14,0.362
				s-0.167-0.006-0.384-0.099c-0.108-0.04-0.232-0.099-0.338-0.201c-0.108-0.099-0.226-0.199-0.304-0.344l-0.111-0.21
				c-0.041-0.068-0.041-0.158-0.062-0.229c-0.04-0.149-0.021-0.304,0-0.421c0.031-0.124,0.074-0.217,0.124-0.279
				C160.126,62.472,160.164,62.451,160.16,62.451z"/>
			<path fill="#391609" d="M162.453,61.174c0,0,0.038,0.155,0.047,0.338c0.009,0.096,0.012,0.198,0.009,0.304
				c-0.009,0.105-0.009,0.208-0.025,0.313c-0.013,0.102-0.013,0.198-0.041,0.294c0,0.086-0.021,0.18-0.037,0.266
				c0,0.155-0.021,0.329-0.021,0.329s-0.143-0.037-0.316-0.202c-0.068-0.086-0.124-0.204-0.174-0.337
				c-0.028-0.13-0.034-0.279-0.031-0.418c0.031-0.133,0.046-0.272,0.111-0.384c0.053-0.115,0.118-0.214,0.192-0.288
				C162.305,61.229,162.453,61.174,162.453,61.174z"/>
			<path fill="#391609" d="M165.053,61.48c0,0,0.016,0.161,0.013,0.354c-0.003,0.096-0.003,0.205-0.022,0.307
				c-0.009,0.053,0,0.112-0.012,0.164c-0.006,0.053-0.025,0.105-0.025,0.158l-0.021,0.158c-0.006,0.049-0.031,0.102-0.028,0.148
				c-0.006,0.099-0.046,0.202-0.053,0.288c-0.016,0.174-0.071,0.341-0.071,0.341s-0.136-0.068-0.276-0.251
				c-0.077-0.09-0.108-0.213-0.152-0.35c-0.043-0.136-0.016-0.282-0.016-0.427c0.053-0.285,0.192-0.54,0.354-0.688
				C164.892,61.527,165.053,61.48,165.053,61.48z"/>
			<path fill="#391609" d="M177.775,94.793c0,0,0.267-0.041,0.645,0.056c0.186,0.053,0.403,0.127,0.617,0.254
				c0.213,0.121,0.421,0.294,0.604,0.496c0.171,0.21,0.325,0.446,0.394,0.691c0.05,0.121,0.065,0.245,0.078,0.359
				c0.024,0.115,0.024,0.223,0.012,0.325c-0.016,0.4-0.177,0.629-0.161,0.629c-0.012,0-0.068-0.26-0.191-0.583
				c-0.057-0.161-0.143-0.338-0.245-0.508c-0.04-0.09-0.105-0.173-0.161-0.26c-0.056-0.09-0.13-0.164-0.198-0.245
				c-0.134-0.167-0.295-0.316-0.449-0.456c-0.158-0.146-0.316-0.267-0.453-0.381C177.974,94.945,177.775,94.793,177.775,94.793z"/>
			<path fill="#391609" d="M200.952,157.641c0,0,0.195,0.065,0.44,0.18c0.127,0.053,0.264,0.118,0.409,0.192
				c0.148,0.065,0.285,0.164,0.443,0.229c0.146,0.083,0.294,0.17,0.434,0.248c0.136,0.078,0.263,0.177,0.378,0.239
				c0.229,0.14,0.384,0.288,0.384,0.288s-0.195,0.059-0.489,0.056c-0.148,0.01-0.31-0.031-0.486-0.074
				c-0.087-0.028-0.183-0.037-0.264-0.083l-0.26-0.127c-0.171-0.09-0.322-0.211-0.459-0.329c-0.071-0.053-0.124-0.127-0.18-0.186
				c-0.056-0.059-0.103-0.121-0.143-0.186C200.993,157.848,200.952,157.641,200.952,157.641z"/>
			<path fill="#391609" d="M222.68,222.057c0,0,0.071,0.223,0.191,0.609c0.118,0.387,0.311,0.934,0.54,1.584
				c0.117,0.328,0.244,0.678,0.381,1.047c0.127,0.375,0.294,0.756,0.443,1.162c0.325,0.799,0.666,1.65,1.06,2.479
				c0.186,0.418,0.378,0.834,0.585,1.232c0.202,0.406,0.396,0.803,0.607,1.178c0.201,0.381,0.403,0.744,0.604,1.086
				c0.198,0.34,0.378,0.666,0.57,0.953c0.18,0.295,0.347,0.568,0.495,0.803c0.158,0.232,0.298,0.434,0.412,0.602
				c0.229,0.334,0.354,0.533,0.354,0.533s-0.167-0.162-0.446-0.455c-0.14-0.15-0.31-0.332-0.505-0.541
				c-0.183-0.213-0.388-0.461-0.604-0.736c-0.229-0.268-0.446-0.58-0.669-0.908c-0.235-0.328-0.471-0.682-0.688-1.063
				c-0.227-0.375-0.462-0.762-0.667-1.174c-0.22-0.406-0.421-0.824-0.616-1.25c-0.201-0.424-0.369-0.857-0.545-1.281
				c-0.177-0.426-0.313-0.859-0.465-1.268c-0.27-0.83-0.499-1.615-0.647-2.299c-0.165-0.68-0.251-1.256-0.316-1.658
				C222.695,222.289,222.68,222.057,222.68,222.057z"/>
		</g>
		<path fill="#391609" d="M205.511,223.307c0,0,0.322,0.404,0.663,1.092c0.188,0.338,0.35,0.752,0.529,1.199
			c0.087,0.223,0.161,0.459,0.232,0.703c0.068,0.238,0.155,0.482,0.211,0.734c0.087,0.506,0.217,1.004,0.245,1.49
			c0.019,0.238,0.024,0.475,0.034,0.693c0.003,0.221,0.027,0.428-0.007,0.621c-0.08,0.773-0.191,1.27-0.191,1.27
			s-0.1-0.514-0.165-1.252c-0.009-0.189-0.074-0.387-0.102-0.598c-0.041-0.207-0.084-0.43-0.115-0.66
			c-0.024-0.229-0.099-0.459-0.146-0.697c-0.056-0.238-0.108-0.48-0.161-0.725c-0.046-0.242-0.124-0.477-0.183-0.717
			c-0.068-0.234-0.105-0.473-0.177-0.695c-0.133-0.447-0.229-0.877-0.338-1.236C205.641,223.795,205.511,223.307,205.511,223.307z"
			/>
		<g>
			<path fill="#999998" d="M98.255,239.896c0,0,0.297,1.131,1.035,3.031c0.731,1.898,1.915,4.566,3.647,7.598
				c0.849,1.523,1.869,3.113,2.997,4.762c1.137,1.643,2.423,3.311,3.814,4.982c1.41,1.658,2.925,3.328,4.574,4.908
				c0.412,0.396,0.827,0.793,1.243,1.193c0.427,0.381,0.861,0.762,1.295,1.146c0.849,0.783,1.772,1.486,2.668,2.229
				c0.898,0.73,1.847,1.402,2.767,2.105c0.954,0.654,1.902,1.305,2.847,1.949c0.973,0.598,1.931,1.205,2.891,1.781
				c0.979,0.547,1.946,1.086,2.9,1.615c0.973,0.486,1.93,0.967,2.866,1.441c0.945,0.451,1.887,0.857,2.798,1.273
				c0.901,0.43,1.815,0.756,2.689,1.111c0.874,0.344,1.71,0.701,2.544,0.971c1.648,0.564,3.151,1.115,4.518,1.502
				c1.36,0.406,2.541,0.787,3.536,1.018c1.97,0.514,3.102,0.805,3.102,0.805s-1.141-0.25-3.133-0.688
				c-1.001-0.201-2.194-0.543-3.569-0.914c-1.382-0.342-2.907-0.846-4.57-1.395c-0.84-0.254-1.686-0.592-2.572-0.924
				c-0.88-0.34-1.81-0.654-2.724-1.068c-0.923-0.4-1.878-0.791-2.838-1.23c-0.948-0.465-1.915-0.941-2.9-1.422
				c-0.96-0.529-1.937-1.066-2.928-1.607c-0.973-0.574-1.94-1.182-2.925-1.779c-0.954-0.645-1.918-1.295-2.885-1.949
				c-0.93-0.703-1.89-1.373-2.804-2.109c-0.896-0.754-1.822-1.467-2.677-2.266c-0.434-0.387-0.867-0.777-1.298-1.166
				c-0.418-0.402-0.831-0.805-1.246-1.207c-1.655-1.605-3.173-3.295-4.583-4.977c-1.4-1.689-2.655-3.406-3.774-5.076
				c-1.106-1.676-2.101-3.299-2.928-4.846c-0.843-1.537-1.537-2.99-2.098-4.297c-0.576-1.303-1.013-2.467-1.357-3.428
				c-0.344-0.963-0.561-1.734-0.716-2.262C98.317,240.182,98.255,239.896,98.255,239.896z"/>
			<path fill="#999998" d="M108.492,264.654c0,0,0.521,0.701,1.525,1.844c0.991,1.15,2.494,2.717,4.391,4.496
				c1.899,1.775,4.232,3.721,6.866,5.617c1.308,0.965,2.711,1.881,4.152,2.793c1.457,0.885,2.95,1.756,4.493,2.543
				c0.765,0.406,1.53,0.803,2.314,1.168c0.771,0.385,1.555,0.732,2.336,1.066c0.774,0.355,1.564,0.656,2.342,0.967
				c0.771,0.322,1.552,0.582,2.318,0.855c0.759,0.285,1.527,0.508,2.271,0.75c0.372,0.117,0.741,0.234,1.103,0.35
				c0.366,0.105,0.731,0.205,1.088,0.303c1.431,0.426,2.81,0.717,4.074,1.023c0.639,0.121,1.249,0.242,1.832,0.355
				c0.579,0.121,1.131,0.23,1.654,0.305c1.047,0.154,1.952,0.334,2.708,0.406c1.512,0.186,2.373,0.291,2.373,0.291
				s-0.867-0.063-2.386-0.168c-0.762-0.043-1.673-0.186-2.729-0.301c-1.057-0.107-2.231-0.338-3.523-0.549
				c-1.276-0.271-2.671-0.531-4.118-0.92c-0.363-0.092-0.734-0.186-1.106-0.281c-0.369-0.105-0.74-0.217-1.118-0.326
				c-0.756-0.217-1.528-0.451-2.299-0.729c-0.771-0.27-1.565-0.525-2.346-0.842c-0.784-0.305-1.58-0.604-2.364-0.951
				c-0.793-0.334-1.589-0.682-2.37-1.063c-0.79-0.359-1.571-0.754-2.346-1.156c-1.549-0.809-3.049-1.701-4.511-2.605
				c-1.444-0.93-2.851-1.865-4.162-2.848c-1.323-0.957-2.544-1.971-3.684-2.943c-1.131-0.982-2.172-1.943-3.104-2.861
				c-1.869-1.828-3.285-3.484-4.242-4.672C108.97,265.385,108.492,264.654,108.492,264.654z"/>
			<path fill="#999998" d="M212.25,99.865c0,0,0.415,0.186,1.115,0.573c0.347,0.192,0.769,0.44,1.242,0.725
				c0.472,0.297,1.011,0.62,1.568,1.02c0.566,0.381,1.159,0.83,1.788,1.301s1.267,1.001,1.921,1.559
				c0.623,0.589,1.308,1.153,1.934,1.803c0.641,0.635,1.289,1.283,1.887,1.974c0.301,0.347,0.61,0.685,0.898,1.038
				c0.282,0.359,0.558,0.716,0.837,1.072c0.573,0.7,1.06,1.441,1.546,2.15c0.508,0.691,0.901,1.425,1.292,2.107
				c0.195,0.341,0.385,0.675,0.567,0.995c0.161,0.334,0.315,0.657,0.465,0.967c0.294,0.617,0.573,1.181,0.783,1.698
				c0.192,0.521,0.36,0.976,0.499,1.348c0.27,0.75,0.422,1.177,0.422,1.177s-0.192-0.409-0.533-1.131
				c-0.167-0.359-0.368-0.799-0.601-1.301c-0.248-0.493-0.57-1.029-0.884-1.63c-0.161-0.297-0.328-0.61-0.502-0.933
				c-0.198-0.31-0.396-0.629-0.607-0.958c-0.418-0.654-0.843-1.354-1.351-2.036c-0.489-0.688-0.979-1.416-1.556-2.095
				c-0.278-0.344-0.561-0.694-0.843-1.044c-0.288-0.347-0.601-0.672-0.898-1.013c-0.579-0.691-1.212-1.338-1.834-1.974
				c-0.607-0.654-1.273-1.221-1.884-1.813c-0.642-0.552-1.24-1.112-1.841-1.608c-0.598-0.496-1.168-0.967-1.714-1.373
				c-1.078-0.824-2.001-1.487-2.664-1.924C212.641,100.101,212.25,99.865,212.25,99.865z"/>
			<path fill="#999998" d="M217.31,93.646c0,0,1.683,1.221,3.976,3.328c0.57,0.533,1.193,1.104,1.825,1.732
				c0.645,0.62,1.305,1.292,1.968,2.008c0.675,0.7,1.322,1.472,2.008,2.234c0.666,0.778,1.329,1.577,1.982,2.389
				c0.617,0.839,1.268,1.651,1.838,2.5c0.566,0.855,1.168,1.664,1.66,2.51c0.502,0.836,1.014,1.63,1.404,2.438
				c0.402,0.799,0.83,1.528,1.131,2.25c0.319,0.716,0.595,1.373,0.84,1.958c0.238,0.585,0.387,1.122,0.539,1.546
				c0.282,0.865,0.439,1.357,0.439,1.357s-0.201-0.478-0.555-1.314c-0.18-0.415-0.362-0.933-0.635-1.5
				c-0.285-0.564-0.607-1.196-0.942-1.894c-0.331-0.7-0.786-1.407-1.211-2.181c-0.419-0.784-0.967-1.543-1.469-2.371
				c-0.496-0.83-1.106-1.624-1.677-2.463c-0.576-0.833-1.236-1.629-1.853-2.454c-0.639-0.812-1.286-1.615-1.934-2.398
				c-0.672-0.762-1.305-1.54-1.968-2.247c-0.656-0.709-1.276-1.41-1.89-2.051c-0.604-0.65-1.199-1.246-1.741-1.797
				c-1.104-1.094-2.021-2.005-2.689-2.615C217.69,93.997,217.31,93.646,217.31,93.646z"/>
		</g>
		<g>
			<path opacity="0.7" fill="#F4BCA1" d="M178.296,182.41c1.094-3.615,0.502-6.008-0.474-7.213c0.462,2.198,0.371,5.342-2.736,7.885
				c-1.333,1.426,0.858,1.426,1.999,0.666c1.143-0.762,2.856,3.236,2.856,6.57c0,3.33-3.142,2.855-3.142,2.855
				s0.285-2.098-0.952-2.953c-1.239-0.857,0.667,4.855-1.713,7.236c2.091-0.951,2.95-1.902,2.95-1.902s1.431,0.473,2.379-0.289
				c0.951-0.762,0.707,7.957-7.929,8.998c-8.639,1.041-16.026-7.389-16.338-18.732c-0.623-10.508-1.249-12.488-1.249-12.488
				s1.977,1.146,1.977-2.498c0-3.641-2.392-7.595-2.392-7.595s2.404-1.682,5.974-0.21c-4.443-2.408-8.534-1.472-9.572-1.171
				c3.012,1.206,4.908,8.137,3.861,9.252c-1.053,0.92-2.764-4.072-4.403-4.858c3.35,6.962,2.578,15.042,1.174,15.898
				c-0.548,0.471-1.642-4.445-3.124-4.369c-1.403,5.072,1.562,11.707,6.166,16.156c-2.732,0.939-5.775-2.965-5.775-2.965
				s2.342,3.119,4.759,5.463c-3.303-0.893-6.058-0.328-4.676,2.871c1.125-1.428,3.65-2.299,5.094-1.619
				c0.802,0.377-0.694,1.369-0.902,1.508c0.043-0.027-1.741,1.277-0.697,1.314c0.406,0.016,0.62-0.164,0.979-0.338
				c0.657-0.318,1.112-0.396,1.791-0.078c1.677,0.785,0.992,2.773-0.139,4.016c1.103-0.023,2.061-0.398,2.689-0.805
				c0.62,1.48,6.163,3.043,9.751,2.885c-3.12,0.781-5.146,0.936-5.146,0.936s7.889,0.402,8.592,3.959
				c0.155-0.139,0.307-0.271,0.458-0.393C184.124,200.83,182.668,188.133,178.296,182.41z"/>
		</g>
		<path opacity="0.5" fill="#F4BCA1" d="M161.893,190.939c0,0,2.643-5.332,9.295-4.816
			C168.501,184.586,162.661,184.93,161.893,190.939z"/>
		<g>
			<path fill="#391609" d="M159.429,174.856c0,0-0.381-0.515-0.787-1.388c-0.102-0.217-0.201-0.461-0.291-0.722
				c-0.09-0.263-0.177-0.548-0.239-0.849c-0.05-0.304-0.105-0.629-0.081-0.973c0.021-0.341,0.099-0.716,0.329-1.047
				c0.052-0.083,0.142-0.143,0.21-0.217l0.115-0.099l0.012-0.009l0.006-0.009l0.043-0.022l0.025-0.015l0.052-0.025l0.211-0.103
				c0.102-0.028,0.208-0.056,0.313-0.074c0.396-0.053,0.744,0.037,1.041,0.17c0.304,0.121,0.552,0.301,0.778,0.468
				c0.226,0.173,0.418,0.356,0.585,0.53c0.667,0.709,0.967,1.276,0.967,1.276s-0.118-0.108-0.322-0.291
				c-0.205-0.189-0.511-0.437-0.88-0.716c-0.372-0.273-0.824-0.58-1.326-0.756c-0.245-0.099-0.521-0.114-0.734-0.09
				c-0.05,0.013-0.096,0.019-0.146,0.025l-0.208,0.108l-0.053,0.025l-0.028,0.016h-0.003c-0.034,0.019,0.041-0.022,0.031-0.019
				l-0.003,0.006l-0.006,0.006l-0.062,0.062c-0.037,0.043-0.09,0.068-0.115,0.121c-0.136,0.189-0.211,0.446-0.232,0.719
				c-0.021,0.275-0.009,0.563,0.021,0.843c0.043,0.279,0.087,0.551,0.143,0.812c0.065,0.26,0.127,0.502,0.183,0.729
				c0.127,0.449,0.226,0.83,0.319,1.09C159.379,174.704,159.429,174.856,159.429,174.856z"/>
			<path fill="#391609" d="M162.661,188.266c0,0,0.118-0.48,0.576-1.057c0.118-0.139,0.238-0.297,0.396-0.436
				c0.152-0.148,0.316-0.295,0.505-0.428c0.18-0.143,0.384-0.262,0.592-0.389c0.217-0.104,0.434-0.217,0.66-0.313
				c0.232-0.074,0.458-0.17,0.691-0.227c0.229-0.059,0.458-0.117,0.685-0.145c0.446-0.072,0.871-0.094,1.233-0.074
				c0.356-0.01,0.654,0.059,0.861,0.084c0.205,0.033,0.322,0.055,0.322,0.055s-0.118,0.025-0.322,0.068
				c-0.204,0.047-0.496,0.068-0.836,0.152c-0.17,0.033-0.353,0.07-0.545,0.102c-0.192,0.053-0.394,0.105-0.601,0.152
				c-0.208,0.041-0.412,0.131-0.626,0.182c-0.214,0.057-0.418,0.156-0.629,0.23c-0.21,0.08-0.412,0.176-0.613,0.266
				c-0.186,0.115-0.394,0.189-0.567,0.311c-0.18,0.107-0.356,0.217-0.511,0.328c-0.161,0.109-0.3,0.227-0.437,0.332
				C162.964,187.891,162.661,188.266,162.661,188.266z"/>
			<path fill="#391609" d="M175.765,191.436c0,0,0.173,0.299,0.307,0.781c0.071,0.242,0.13,0.527,0.173,0.84
				c0.034,0.316,0.047,0.654,0.025,0.994c-0.034,0.338-0.087,0.682-0.201,0.992c-0.041,0.158-0.127,0.301-0.195,0.438
				c-0.059,0.135-0.167,0.248-0.242,0.35c-0.078,0.111-0.189,0.18-0.27,0.25c-0.074,0.074-0.164,0.111-0.232,0.143
				c-0.14,0.063-0.217,0.088-0.217,0.088s0.049-0.066,0.136-0.184c0.046-0.055,0.099-0.117,0.136-0.207
				c0.041-0.09,0.105-0.168,0.143-0.281c0.031-0.113,0.09-0.215,0.118-0.346c0.031-0.127,0.068-0.254,0.09-0.396
				c0.056-0.277,0.093-0.582,0.108-0.895c0.034-0.307,0.034-0.619,0.05-0.92c0.006-0.295,0.019-0.576,0.025-0.822
				C175.733,191.773,175.765,191.436,175.765,191.436z"/>
			<path fill="#391609" d="M175.947,193.996c0,0,0.117,0.031,0.322,0.061c0.201,0.037,0.486,0.078,0.827,0.094
				c0.171,0.01,0.354,0.004,0.543-0.01c0.188-0.012,0.384-0.043,0.582-0.086c0.096-0.025,0.195-0.053,0.294-0.078l0.285-0.117
				c0.202-0.063,0.363-0.211,0.546-0.311c0.154-0.148,0.341-0.256,0.474-0.424c0.127-0.174,0.301-0.301,0.4-0.49
				c0.104-0.176,0.238-0.334,0.328-0.502c0.087-0.176,0.177-0.338,0.26-0.492c0.168-0.301,0.261-0.58,0.356-0.766
				c0.093-0.186,0.146-0.295,0.146-0.295s-0.006,0.121-0.024,0.33c-0.031,0.203-0.034,0.514-0.143,0.857
				c-0.05,0.174-0.105,0.365-0.174,0.566c-0.071,0.195-0.183,0.391-0.288,0.6c-0.096,0.213-0.267,0.396-0.415,0.598
				c-0.151,0.197-0.365,0.346-0.552,0.523c-0.229,0.121-0.434,0.287-0.682,0.359c-0.235,0.102-0.479,0.145-0.719,0.182
				c-0.238,0.035-0.468,0.029-0.682,0.01c-0.214-0.016-0.412-0.053-0.592-0.102c-0.177-0.037-0.334-0.111-0.471-0.162
				c-0.137-0.059-0.255-0.111-0.345-0.166C176.04,194.072,175.947,193.996,175.947,193.996z"/>
			<path fill="#391609" d="M150.837,200.078c0,0,0.136-0.27,0.493-0.533c0.173-0.137,0.4-0.264,0.663-0.359
				c0.263-0.102,0.561-0.152,0.858-0.164c0.304-0.01,0.601,0.033,0.871,0.111c0.263,0.086,0.499,0.191,0.679,0.316
				c0.189,0.107,0.319,0.242,0.409,0.328c0.093,0.086,0.137,0.143,0.137,0.143s-0.071-0.01-0.195-0.033s-0.285-0.072-0.487-0.105
				c-0.195-0.045-0.421-0.074-0.657-0.109c-0.238-0.018-0.486-0.043-0.737-0.031c-0.248,0-0.496,0.037-0.731,0.072
				c-0.232,0.045-0.456,0.096-0.647,0.15C151.106,199.973,150.837,200.078,150.837,200.078z"/>
			<path fill="#391609" d="M156.371,199.604c0,0,0.288,0.02,0.645,0.258c0.183,0.111,0.365,0.295,0.517,0.533
				c0.068,0.123,0.143,0.254,0.177,0.406c0.056,0.143,0.05,0.299,0.071,0.455c-0.021,0.148-0.021,0.307-0.071,0.445
				c-0.041,0.137-0.081,0.283-0.152,0.395c-0.121,0.244-0.279,0.434-0.428,0.578c-0.139,0.152-0.291,0.238-0.387,0.311
				c-0.099,0.068-0.161,0.1-0.161,0.1s0.022-0.068,0.065-0.178c0.043-0.113,0.124-0.256,0.189-0.434
				c0.034-0.09,0.068-0.186,0.115-0.279c0.041-0.096,0.059-0.203,0.099-0.307c0.05-0.098,0.041-0.213,0.075-0.314
				c0.031-0.109,0.015-0.215,0.031-0.32c-0.012-0.102,0.006-0.211-0.028-0.309c-0.021-0.104-0.046-0.205-0.083-0.299
				c-0.078-0.191-0.174-0.375-0.279-0.525C156.56,199.811,156.371,199.604,156.371,199.604z"/>
		</g>
		<g opacity="0.5">
			<path fill="#38322E" d="M115.417,206.555c0,0-0.003,0-0.006,0c5.797,9.961,15.068,17.295,21.885,19.354
				c19.332,5.971,27.146-10.201,32.634-15.113c-0.704-3.557-8.592-3.959-8.592-3.959s2.026-0.154,5.146-0.936
				c-3.588,0.158-9.131-1.404-9.751-2.885c-1.562,1.014-5.153,1.871-8.041-2.578c-2.888-4.447,0.158-5.305,3.901-4.291
				c-2.417-2.344-4.759-5.463-4.759-5.463s3.043,3.904,5.775,2.965c-4.604-4.449-7.569-11.084-6.166-16.156
				c1.481-0.076,2.575,4.84,3.124,4.369c1.404-0.855,2.175-8.936-1.174-15.898c1.639,0.787,3.35,5.778,4.403,4.858
				c1.047-1.116-0.849-8.047-3.861-9.252c-0.164,0.05-0.254,0.081-0.254,0.081c6.897-3.102,5.119-7.387,4.031-9.091
				c0.263,2.544-0.561,6.247-6.609,8.394c0,0,3.997,1.571,4.995,5.708c-2.498-3.067-5.209-3.709-5.209-3.709s3.52,8.221,3,13.215
				c-2.603-5.413-4.995-5.933-4.995-5.933s-2.705,8.849,3.542,18.628c-3.749-1.871-5.413-4.58-5.413-4.58s0.623,5.205,4.787,8.537
				c0,0-4.425,1.748-2.485,7.318c1.937,5.568,7.87,6.658,10.653,6.297C155.978,206.434,146.081,228.826,115.417,206.555z"/>
		</g>
		<g opacity="0.3">
			<path fill="#38322E" d="M161.338,206.836c0,0,2.026-0.154,5.146-0.936c-3.588,0.158-9.131-1.404-9.751-2.885
				c-1.562,1.014-5.153,1.871-8.041-2.578c-2.888-4.447,0.158-5.305,3.901-4.291c-2.417-2.344-4.759-5.463-4.759-5.463
				s3.043,3.904,5.775,2.965c-4.604-4.449-7.569-11.084-6.166-16.156c1.481-0.076,2.575,4.84,3.124,4.369
				c1.404-0.855,2.175-8.936-1.174-15.898c1.639,0.787,3.35,5.778,4.403,4.858c1.047-1.116-0.849-8.047-3.861-9.252
				c-0.164,0.05-0.254,0.081-0.254,0.081c8.793-3.954,3.486-9.832,3.486-9.832s-0.208,0.831-1.456,2.339
				c0.521-3.852-4.781-6.553-4.781-6.553s1.441,3.074,0.675,5.373c-0.434-5.757-8.301-6.813-8.301-6.813s2.16,0.818,3.693,3.17
				c-1.494-1.119-3.136-1.611-4.66-1.785c4.195,3.052,9.131,8.044,4.059,12.177c0,0,1.999-0.477,4.496,1.81
				c-4.995-1.453-4.704,0.688-4.704,0.688s-4.161,6.659-1.457,15.611c-5.202-3.124-6.036-6.662-6.036-6.04
				c0,0.626,1.664,10.616,7.7,17.692c0,0-1.872,0.623-7.282-4.994c-5.413-5.621-1.456,11.654,5.618,18.105
				c6.529,5.955-19.898,14.668-29.253-5.014c4.319,14.387,17.082,25.689,25.817,28.324c19.332,5.971,27.146-10.201,32.634-15.113
				C169.227,207.238,161.338,206.836,161.338,206.836z"/>
		</g>
		<path fill="#38322E" d="M134.086,161.42c0,0-1.797,4.199-1.047,10.644c-1.651-4.347-1.651-4.347-1.651-4.347
			s-2.098,4.347-1.051,11.096c-2.098-5.85-2.64-7.062-2.64-7.062s-2.458,9.089-3.805,2.941c-1.351-6.145-2.606,8.8-3.805,1.902
			c-1.199-6.894-7.944-1.661-8.995,12.283c0.598-13.944,6.203-22.657,17.147-28.054c-6.296,5.543-3.597,8.843-0.449,4.796
			c3.151-4.05,0.449,3.898,2.699-0.902C132.738,159.921,134.086,161.42,134.086,161.42z"/>
		<path fill="#2ED7FF" d="M186.005,223.578c-0.17-0.104-0.486,0.26-0.328,0.389c4.319,3.486,6.055,7.967,7.378,13.16
			c0.08,0.326,0.579-0.229,0.576-0.422C193.6,231.676,190.266,226.146,186.005,223.578z"/>
		<g>
			<path fill="#2ED7FF" d="M226.426,237.977c-4.214-6.713-3.123-15.453-4.06-16.076c-0.071,0.037-0.143,0.08-0.217,0.127
				c-0.84,2.328-1.794,6.811,0.53,13.822c-0.272-1.598-0.744-4.855-0.155-5.207c0.778-0.469,0.936,13.109,12.329,15.451
				c2.147,0.195,1.06,1.488-1.695,1.934c2.684,0.686,5.553,0.402,8.376-0.475c1.121-0.758,2.525-1.852,3.935-3.33
				C239.07,248.746,230.64,244.688,226.426,237.977z"/>
		</g>
		<path fill="#2ED7FF" d="M231.826,245.471c-2.069-1.201-3.802-2.205-5.403-4.055c-1.637-1.891-2.768-4.264-3.384-6.676
			c-0.056-0.207-0.316,0.084-0.301,0.219c0.489,4.275,4.04,10.432,8.738,11.096C231.684,246.084,232.068,245.611,231.826,245.471z"
			/>
		<g>
			<path opacity="0.7" fill="#F4BCA1" d="M251.31,229.541c-2.587,11.908-9.317,16.395-18.117,12.426
				c-8.803-3.969-11.22-17.43-6.903-10.355c4.313,7.078,7.938,6.904,7.938,6.904s-2.417-0.691-7.077-8.803
				c-5.004-10.18-11.561-28.643-10.008-33.131c2.417-7.25,5.004-19.498,6.039-23.985c0.267-1.149,0.619-2.116,1.004-2.919
				c-6.715-8.84-10.746-13.073-11.65-16.819c-0.369-1.506-0.79-3.015-1.252-4.521c-1.556,0.833-0.809,6.606-0.654,7.768
				c0.221,1.605,0.487,3.219,0.924,4.781c0.508,1.831,1.707,3.309,2.612,4.955c1.208,2.2,1.394,2.972,0.511,5.367
				c-0.861,2.33-2.163,4.381-3.879,6.176c-1.206,1.26-2.454,3.703-3.951,4.58c6.24,16.471,15.304,40.063,15.304,40.063l-1.828,3.205
				c3.548,23.969,18.517,23.512,24.47,19.406c3.786-3.08,6.225-8.363,6.584-15.383C251.356,229.354,251.332,229.443,251.31,229.541z
				"/>
		</g>
		<g>
			<path fill="#F4BCA1" d="M185.063,243.439c5.931-3.121,4.369-9.832-4.843-21.383c1.406-0.938,15.297-8.43,15.297-8.43
				s3.123-1.873,13.894-9.988c11.552-8.896,12.02-32.622,13.113-35.119c1.559-2.188,3.588-4.372,2.34-7.809
				c0.313-0.933,0.313-2.807-1.404-4.679c0,0,0.155-2.498-2.185-3.591c-0.468-1.094-1.874-3.433-4.526-3.904
				c-2.652-0.468-1.36,6.2-1.36,6.2s-1.389-5.553-4.164-5.035c-1.735,0.35,0.521,3.126,0.521,7.638c0,4.512,2.426,7.635,6.072,9.197
				c-2.949,11.625-14.748,24.292-15.79,28.633c-8.502,5.029-19.434,12.143-29.327,16.654c-9.023,4.861-10.584,10.24-2.256,23.082
				c1.701,2.449,3.976,5.221,6.776,7.959C179.849,244.256,182.6,244.734,185.063,243.439z"/>
			<path fill="#391609" d="M181.962,244.512L181.962,244.512c-1.527-0.004-3.17-0.463-4.887-1.373
				c-0.024-0.014-0.05-0.029-0.074-0.051c-2.565-2.512-4.924-5.279-6.814-8.002c-4.595-7.09-6.209-11.939-5.243-15.732
				c0.766-2.971,3.108-5.379,7.607-7.801c7.573-3.455,15.75-8.432,22.966-12.822c2.197-1.336,4.276-2.604,6.237-3.766
				c0.478-1.729,2.411-4.549,4.843-8.094c3.796-5.543,8.986-13.109,10.852-20.158c-3.883-1.76-6.018-5.079-6.018-9.373
				c0-1.992-0.455-3.668-0.793-4.896c-0.332-1.227-0.552-2.036-0.217-2.578c0.148-0.242,0.399-0.4,0.74-0.468
				c1.714-0.325,2.869,1.261,3.606,2.767c-0.059-1.292,0.044-2.718,0.647-3.449c0.342-0.412,0.8-0.592,1.386-0.483
				c2.94,0.518,4.359,3.201,4.71,3.979c2.079,1.035,2.252,3.139,2.262,3.703c1.567,1.766,1.77,3.607,1.419,4.793
				c1.112,3.191-0.508,5.392-1.939,7.337c-0.155,0.21-0.307,0.418-0.456,0.626c-0.21,0.521-0.421,2.063-0.688,4.006
				c-1.072,7.826-3.307,24.121-12.509,31.209c-10.662,8.033-13.888,9.992-13.919,10.01c-0.146,0.078-12.592,6.793-14.996,8.24
				c6.299,7.953,8.861,13.443,8.062,17.271c-0.384,1.824-1.577,3.275-3.541,4.309C184.208,244.242,183.114,244.512,181.962,244.512z
				 M177.41,242.607c1.607,0.85,3.139,1.281,4.552,1.281l0,0c1.05,0,2.045-0.246,2.956-0.723c1.815-0.957,2.869-2.23,3.219-3.885
				c0.76-3.623-1.911-9.193-8.158-17.029c-0.056-0.068-0.077-0.156-0.065-0.242c0.016-0.088,0.063-0.164,0.137-0.215
				c1.4-0.932,14.755-8.137,15.322-8.443c0.019-0.012,3.231-1.961,13.854-9.961c8.995-6.932,11.201-23.051,12.264-30.8
				c0.301-2.185,0.499-3.628,0.747-4.198c0.01-0.019,0.021-0.038,0.031-0.056c0.158-0.22,0.322-0.44,0.483-0.663
				c1.419-1.927,2.888-3.919,1.821-6.851c-0.024-0.068-0.024-0.14-0.006-0.208c0.328-0.985,0.177-2.721-1.339-4.372
				c-0.056-0.065-0.083-0.146-0.08-0.229c0.006-0.096,0.108-2.305-2.005-3.291c-0.068-0.031-0.124-0.09-0.155-0.158
				c-0.229-0.536-1.512-3.226-4.291-3.721c-0.344-0.059-0.598,0.025-0.8,0.267c-0.852,1.035-0.434,4.369-0.201,5.565
				c0.031,0.167-0.074,0.328-0.238,0.366c-0.168,0.037-0.332-0.065-0.372-0.229c-0.354-1.416-1.729-5.19-3.805-4.8
				c-0.221,0.043-0.295,0.127-0.329,0.183c-0.191,0.31,0.034,1.131,0.292,2.085c0.344,1.261,0.812,2.987,0.812,5.06
				c0,4.121,2.092,7.285,5.887,8.908c0.14,0.062,0.214,0.217,0.177,0.366c-1.834,7.229-7.133,14.962-11.006,20.609
				c-2.457,3.584-4.396,6.414-4.781,8.018c-0.019,0.084-0.074,0.152-0.146,0.195c-1.995,1.182-4.105,2.467-6.343,3.828
				c-7.231,4.398-15.428,9.389-23.013,12.846c-4.313,2.324-6.565,4.611-7.278,7.4c-0.926,3.609,0.667,8.303,5.156,15.225
				C172.561,237.408,174.878,240.133,177.41,242.607z"/>
		</g>
		<g>
			<path fill="#F4BCA1" d="M185.063,243.439c5.931-3.121,4.369-9.832-4.843-21.383c1.406-0.938,15.297-8.43,15.297-8.43
				s3.123-1.873,13.894-9.988c11.552-8.896,12.02-32.622,13.113-35.119c1.559-2.188,3.588-4.372,2.34-7.809
				c0.313-0.933,0.313-2.807-1.404-4.679c0,0,0.155-2.498-2.185-3.591c-0.468-1.094-1.874-3.433-4.526-3.904
				c-2.652-0.468-1.36,6.2-1.36,6.2s-1.389-5.553-4.164-5.035c-1.735,0.35,0.521,3.126,0.521,7.638c0,4.512,2.426,7.635,6.072,9.197
				c-2.949,11.625-14.748,24.292-15.79,28.633c-8.502,5.029-19.434,12.143-29.327,16.654c-9.023,4.861-10.584,10.24-2.256,23.082
				c1.701,2.449,3.976,5.221,6.776,7.959C179.849,244.256,182.6,244.734,185.063,243.439z"/>
			<path fill="#391609" d="M181.962,244.512L181.962,244.512c-1.527-0.004-3.17-0.463-4.887-1.373
				c-0.024-0.014-0.05-0.029-0.074-0.051c-2.565-2.512-4.924-5.279-6.814-8.002c-4.595-7.09-6.209-11.939-5.243-15.732
				c0.766-2.971,3.108-5.379,7.607-7.801c7.573-3.455,15.75-8.432,22.966-12.822c2.197-1.336,4.276-2.604,6.237-3.766
				c0.478-1.729,2.411-4.549,4.843-8.094c3.796-5.543,8.986-13.109,10.852-20.158c-3.883-1.76-6.018-5.079-6.018-9.373
				c0-1.992-0.455-3.668-0.793-4.896c-0.332-1.227-0.552-2.036-0.217-2.578c0.148-0.242,0.399-0.4,0.74-0.468
				c1.714-0.325,2.869,1.261,3.606,2.767c-0.059-1.292,0.044-2.718,0.647-3.449c0.342-0.412,0.8-0.592,1.386-0.483
				c2.94,0.518,4.359,3.201,4.71,3.979c2.079,1.035,2.252,3.139,2.262,3.703c1.567,1.766,1.77,3.607,1.419,4.793
				c1.112,3.191-0.508,5.392-1.939,7.337c-0.155,0.21-0.307,0.418-0.456,0.626c-0.21,0.521-0.421,2.063-0.688,4.006
				c-1.072,7.826-3.307,24.121-12.509,31.209c-10.662,8.033-13.888,9.992-13.919,10.01c-0.146,0.078-12.592,6.793-14.996,8.24
				c6.299,7.953,8.861,13.443,8.062,17.271c-0.384,1.824-1.577,3.275-3.541,4.309C184.208,244.242,183.114,244.512,181.962,244.512z
				 M177.41,242.607c1.607,0.85,3.139,1.281,4.552,1.281l0,0c1.05,0,2.045-0.246,2.956-0.723c1.815-0.957,2.869-2.23,3.219-3.885
				c0.76-3.623-1.911-9.193-8.158-17.029c-0.056-0.068-0.077-0.156-0.065-0.242c0.016-0.088,0.063-0.164,0.137-0.215
				c1.4-0.932,14.755-8.137,15.322-8.443c0.019-0.012,3.231-1.961,13.854-9.961c8.995-6.932,11.201-23.051,12.264-30.8
				c0.301-2.185,0.499-3.628,0.747-4.198c0.01-0.019,0.021-0.038,0.031-0.056c0.158-0.22,0.322-0.44,0.483-0.663
				c1.419-1.927,2.888-3.919,1.821-6.851c-0.024-0.068-0.024-0.14-0.006-0.208c0.328-0.985,0.177-2.721-1.339-4.372
				c-0.056-0.065-0.083-0.146-0.08-0.229c0.006-0.096,0.108-2.305-2.005-3.291c-0.068-0.031-0.124-0.09-0.155-0.158
				c-0.229-0.536-1.512-3.226-4.291-3.721c-0.344-0.059-0.598,0.025-0.8,0.267c-0.852,1.035-0.434,4.369-0.201,5.565
				c0.031,0.167-0.074,0.328-0.238,0.366c-0.168,0.037-0.332-0.065-0.372-0.229c-0.354-1.416-1.729-5.19-3.805-4.8
				c-0.221,0.043-0.295,0.127-0.329,0.183c-0.191,0.31,0.034,1.131,0.292,2.085c0.344,1.261,0.812,2.987,0.812,5.06
				c0,4.121,2.092,7.285,5.887,8.908c0.14,0.062,0.214,0.217,0.177,0.366c-1.834,7.229-7.133,14.962-11.006,20.609
				c-2.457,3.584-4.396,6.414-4.781,8.018c-0.019,0.084-0.074,0.152-0.146,0.195c-1.995,1.182-4.105,2.467-6.343,3.828
				c-7.231,4.398-15.428,9.389-23.013,12.846c-4.313,2.324-6.565,4.611-7.278,7.4c-0.926,3.609,0.667,8.303,5.156,15.225
				C172.561,237.408,174.878,240.133,177.41,242.607z"/>
		</g>
		<path fill="#391609" d="M180.221,222.057c0,0-0.292,0.313-0.648,0.799c-0.093,0.123-0.183,0.26-0.278,0.4
			c-0.103,0.139-0.177,0.307-0.276,0.457c-0.164,0.332-0.353,0.674-0.452,1.049c-0.074,0.182-0.111,0.371-0.151,0.555
			c-0.053,0.186-0.063,0.373-0.09,0.553c-0.028,0.184-0.019,0.361-0.034,0.531s0.006,0.332,0.006,0.482
			c0.016,0.148,0,0.295,0.028,0.416c0.012,0.123,0.024,0.234,0.037,0.324c0.013,0.184,0.021,0.293,0.021,0.293
			s-0.056-0.09-0.143-0.256c-0.04-0.082-0.093-0.186-0.151-0.299c-0.063-0.121-0.094-0.264-0.143-0.42
			c-0.044-0.154-0.108-0.322-0.121-0.508c-0.019-0.186-0.065-0.385-0.053-0.588c0.016-0.205-0.006-0.426,0.047-0.639
			c0.04-0.211,0.077-0.432,0.151-0.639c0.065-0.213,0.158-0.412,0.254-0.607c0.087-0.201,0.224-0.369,0.329-0.541
			c0.247-0.33,0.505-0.611,0.759-0.809C179.812,222.195,180.221,222.057,180.221,222.057z"/>
		<g opacity="0.7">
			<path fill="#F4BCA1" d="M224.864,160.711c0.313-0.933,0.313-2.807-1.404-4.679c0,0,0.155-2.498-2.185-3.591
				c-0.468-1.094-1.874-3.433-4.526-3.904c-2.652-0.468-1.36,6.2-1.36,6.2s-1.389-5.553-4.164-5.035
				c-0.422,0.086-0.607,0.319-0.648,0.682c1.996,0.276,2.234,2.507,3,5.596c0.635,2.584,2.023,2.584,2.674-0.186
				c0.653-2.773,2.773-2.448,5.218,0.895c2.448,3.344,3.508,7.337,1.224,9.132c-2.283,1.794-9.946-0.487-10.764-6.687
				c-0.01,0.031-0.019,0.056-0.028,0.084c0.586,3.507,2.805,5.983,5.918,7.319c-0.719,2.829-1.961,5.716-3.442,8.533
				c1.571-2.519,3.613-5.506,4.623-5.757c1.767-0.446,0.871,16.531-7.87,26.053c-8.515,9.273-11.69,3.74-6.95-4.344
				c-1.118,1.74-1.914,3.16-2.15,4.148c-4.437,2.625-9.534,5.813-14.802,8.908l0.022,0.027c0,0,10.457-6.088,12.8-4.682
				c2.339,1.404-2.126,7.033-15.766,14.83c-10.928,6.244-12.915,9.838-8.431,17.01c2.342,3.748,3.433,1.563,3.433-2.025
				c0-3.592,2.033-3.904,4.84,1.248c2.811,5.15,1.563,13.424-5.462,10.459c-6.963-2.941-16.066-16.77-12.574-23.547
				c-2.293,3.951-1.063,9.146,4.356,17.508c1.701,2.449,3.976,5.221,6.776,7.959c2.628,1.391,5.379,1.869,7.843,0.574
				c5.931-3.121,4.369-9.832-4.843-21.383c1.406-0.938,15.297-8.43,15.297-8.43s3.123-1.873,13.894-9.988
				c11.552-8.896,12.02-32.622,13.113-35.119C224.083,166.332,226.112,164.147,224.864,160.711z"/>
		</g>
		<g>
			<path fill="#391609" d="M217.523,151.992c0,0,0.291-0.056,0.713,0.059c0.108,0.019,0.211,0.068,0.328,0.118
				c0.111,0.053,0.245,0.09,0.351,0.173c0.111,0.078,0.232,0.152,0.344,0.242c0.124,0.078,0.211,0.198,0.313,0.301
				c0.097,0.111,0.189,0.22,0.282,0.328c0.077,0.124,0.134,0.254,0.198,0.372c0.065,0.121,0.115,0.242,0.164,0.35
				c0.05,0.112,0.06,0.232,0.084,0.338c0.08,0.421,0.074,0.703,0.074,0.703s-0.198-0.226-0.402-0.561
				c-0.06-0.084-0.103-0.18-0.171-0.27c-0.074-0.084-0.148-0.174-0.217-0.27c-0.068-0.099-0.148-0.192-0.214-0.297l-0.257-0.272
				c-0.084-0.09-0.149-0.202-0.251-0.273c-0.097-0.074-0.177-0.164-0.267-0.245c-0.084-0.086-0.18-0.148-0.264-0.22
				c-0.09-0.062-0.164-0.143-0.248-0.192c-0.161-0.111-0.294-0.217-0.396-0.276C217.589,152.029,217.523,151.992,217.523,151.992z"
				/>
			<path fill="#391609" d="M221.074,155.413c0,0,0.298,0.127,0.666,0.415c0.369,0.282,0.813,0.722,1.178,1.221
				c0.167,0.26,0.356,0.505,0.478,0.774c0.127,0.26,0.251,0.502,0.315,0.731c0.137,0.452,0.174,0.762,0.174,0.762
				s-0.229-0.229-0.492-0.595c-0.131-0.183-0.311-0.381-0.465-0.607c-0.155-0.229-0.345-0.459-0.515-0.697
				c-0.161-0.248-0.354-0.474-0.502-0.709c-0.167-0.223-0.307-0.446-0.434-0.635C221.229,155.695,221.074,155.413,221.074,155.413z"
				/>
			<path fill="#391609" d="M223.401,155.85c0,0,0.093,0.136,0.148,0.325c0.065,0.195,0.094,0.443,0.074,0.691
				c-0.024,0.248-0.096,0.49-0.191,0.667c-0.093,0.18-0.205,0.294-0.205,0.294s-0.096-0.133-0.154-0.325
				c-0.063-0.192-0.09-0.443-0.071-0.691c0.024-0.245,0.096-0.486,0.195-0.666C223.287,155.967,223.401,155.85,223.401,155.85z"/>
			<path fill="#391609" d="M221.208,152.298c0,0,0.146,0.177,0.267,0.475c0.133,0.291,0.238,0.697,0.281,1.115
				c0.013,0.208,0.016,0.421,0.003,0.617c-0.019,0.198-0.056,0.387-0.099,0.542c-0.103,0.316-0.232,0.499-0.232,0.499
				s-0.077-0.226-0.127-0.518c-0.04-0.152-0.068-0.322-0.09-0.508c-0.04-0.186-0.05-0.378-0.074-0.576
				c-0.037-0.396-0.037-0.802-0.013-1.112C221.148,152.522,221.208,152.298,221.208,152.298z"/>
			<path fill="#391609" d="M218.971,149.538c0,0,0.043,0.022,0.105,0.09c0.037,0.034,0.071,0.075,0.102,0.127
				c0.034,0.049,0.081,0.111,0.105,0.18c0.065,0.136,0.124,0.307,0.146,0.489c0.007,0.093,0.037,0.192,0.025,0.285L219.441,151
				c-0.013,0.198-0.074,0.381-0.127,0.555c-0.053,0.173-0.133,0.322-0.214,0.446c-0.151,0.245-0.307,0.384-0.307,0.384
				s-0.043-0.21-0.037-0.483c0-0.139,0.016-0.294,0.019-0.461c-0.003-0.165,0.047-0.335,0.047-0.505
				c0.04-0.337,0.08-0.675,0.111-0.933c0.012-0.127,0.027-0.248,0.03-0.328C218.974,149.59,218.971,149.538,218.971,149.538z"/>
		</g>
		<path opacity="0.5" fill="#F4BCA1" d="M216.102,174.583c0,0-11.446,17.481-12.276,22.684
			C203.825,191.439,207.363,185.611,216.102,174.583z"/>
		<g>
			<path opacity="0.5" fill="#F4BCA1" d="M169.413,216.057c0.152-0.113,0.177-0.475-0.081-0.318
				c-4.734,2.922-3.914,9.502-0.428,13.156c0.189,0.197,0.635-0.313,0.508-0.518C166.99,224.424,164.892,219.51,169.413,216.057z"/>
			<path opacity="0.5" fill="#F4BCA1" d="M176.515,211.67c-1.894,1.014-3.879,1.928-5.559,3.291
				c-0.127,0.105-0.152,0.424,0.071,0.277c1.785-1.162,3.666-2.141,5.519-3.191C176.737,211.939,176.824,211.502,176.515,211.67z"/>
		</g>
		<path opacity="0.5" fill="#F4BCA1" d="M235.976,189.906c-0.121-0.137-0.428,0.213-0.304,0.361
			c8.285,10.117,11.904,24.029,11.771,36.92c-0.007,0.375,0.601-0.057,0.619-0.301C248.884,214.307,244.397,199.375,235.976,189.906
			z"/>
		<g opacity="0.5">
			<path fill="#F4BCA1" d="M173.815,73.103c-0.086-0.167-0.39,0.133-0.319,0.279c1.707,3.526,2.063,7.256,1.934,11.124
				c-0.013,0.285,0.455-0.074,0.464-0.282C176.056,80.338,175.588,76.602,173.815,73.103z"/>
			<path fill="#F4BCA1" d="M177.246,86.037c-0.137-0.074-0.379,0.217-0.251,0.3c2.178,1.444,3.361,3.644,3.702,6.2
				c0.044,0.329,0.515-0.083,0.499-0.304C181.041,89.612,179.501,87.332,177.246,86.037z"/>
		</g>
		<path fill="#391609" d="M170.68,213.23c-0.127,0-0.251-0.082-0.294-0.211l-0.71-2.131c-0.052-0.164,0.038-0.34,0.199-0.393
			c0.164-0.057,0.341,0.033,0.396,0.197l0.707,2.129c0.053,0.16-0.034,0.34-0.195,0.396
			C170.748,213.229,170.714,213.23,170.68,213.23z"/>
		<g>
			<path fill="#F65FAA" d="M223.773,238.76c-3.288-8.861-2.572-14.098-1.624-16.732c-1.469,0.928-2.748,3.619-2.748,3.619
				s-0.077-0.008-0.254-0.031c0.421,4.129,0.04,6.93,2.128,14.236c2.498,8.74-16.443,4.994-14.776,1.248
				c1.664-3.746,3.746-8.74,2.705-13.943c-0.272-1.363-0.087-2.365,0.344-3.105c-1.088-0.195-2.29-0.418-3.606-0.666
				c5.249,17.305-8.986,22.566-8.184,13.551c0.834-9.365-9.363-15.607-4.164-19.354c2.032-1.463,4.164-1.559,5.999-1.131
				c-2.166-1.693-4.075-2.824-4.075-2.824s-6.163,3.326-10.693,5.822c3.78,4.246,13.21,15.793,8.667,20.715
				c-4.205,4.551-9.193,5.523-14.575,4.287c1.844,1.672,3.886,3.305,6.113,4.816c3.799-0.391,10.52-1.086,13.925-3.174
				c-0.295,3.619,1.807,7.918,3.529,10.656c10.436,2.094,22.833,0.611,36.742-7.846c0,0,0.942-0.428,2.309-1.352
				C234.819,249.643,227.135,247.826,223.773,238.76z"/>
		</g>
		<g>
			<path fill="#DA3D8F" d="M229.326,246.225c-0.391,0.318-0.766,0.645-1.165,0.951c-5.228,3.988-12.444,6.836-19.118,5.732
				c-2.628-0.438-5.038-1.664-6.398-4.047c-0.753-1.322-1.233-2.777-1.487-4.275c-0.115-0.67-0.214-1.34-0.27-2.018
				c-0.04-0.447-2.089,0.496-2.337,0.598c-2.754,1.131-5.735,2.816-8.79,2.869c-1.667,0.027-3.08-0.471-4.311-1.301
				c-2.091,0.359-4.275,0.238-6.534-0.283c1.844,1.672,3.886,3.305,6.113,4.816c3.799-0.391,10.52-1.086,13.925-3.174
				c-0.295,3.619,1.807,7.918,3.529,10.656c10.436,2.094,22.833,0.611,36.742-7.846c0,0,0.942-0.428,2.309-1.352
				C237.422,248.83,232.948,248.645,229.326,246.225z"/>
		</g>
		<g>
			<path fill="#F65FAA" d="M198.728,217.207c-0.127-0.115-0.396,0.207-0.278,0.332c4.087,4.301,6.268,8.773,7.358,14.572
				c0.071,0.367,0.555-0.105,0.546-0.336C206.235,226.154,202.769,220.887,198.728,217.207z"/>
			<path fill="#F65FAA" d="M218.171,228.969c-1.902-1.49-4.174-2.268-6.587-2.26c-0.195,0.004-0.468,0.459-0.184,0.475
				c2.349,0.121,4.413,0.967,6.318,2.32C217.948,229.668,218.388,229.139,218.171,228.969z"/>
		</g>
	</g>
	<g>
		<path fill="none" d="M222.524,168.52c-0.183,0.409-0.347,1.41-0.545,2.813C222.162,170.428,222.342,169.496,222.524,168.52z"/>
		<path opacity="0.7" fill="#F4BCA1" d="M188.236,214.895c-12.503,7.611-12.23,7.883-10.327,11.143
			c-0.267-1.855,1.09-3.002,2.547-3.684c-0.081-0.102-0.152-0.199-0.235-0.297c1.406-0.938,15.297-8.43,15.297-8.43
			s3.123-1.873,13.894-9.988c9.646-7.432,11.561-25.191,12.568-32.306c-3.08,15.321-6.458,20.776-9.277,26.167
			C209.709,203.207,200.742,207.281,188.236,214.895z"/>
	</g>
	<path opacity="0.5" fill="#F4BCA1" d="M176.508,174.989c-0.66-0.214-1.258,0.396-1.375,0.998c-0.059,0.306,0.319,0.083,0.397-0.034
		c0.161-0.263,0.403-0.18,0.629-0.016c0.297,0.213,0.449,0.551,0.533,0.895c0.12,0.506,0.746-0.096,0.783-0.381
		C177.562,175.789,177.134,175.19,176.508,174.989z"/>
	<path opacity="0.5" fill="#F4BCA1" d="M157.709,162.697c-0.164-0.068-0.437,0.307-0.242,0.406c3.371,1.667,5.698,4.167,7.04,7.669
		c0.108,0.282,0.583-0.183,0.539-0.394C164.297,166.667,161.071,164.039,157.709,162.697z"/>
</g>
</svg>
