<?xml version="1.0" encoding="utf-8"?>
<!-- Generator: Adobe Illustrator 16.0.0, SVG Export Plug-In . SVG Version: 6.00 Build 0)  -->
<!DOCTYPE svg PUBLIC "-//W3C//DTD SVG 1.1//EN" "http://www.w3.org/Graphics/SVG/1.1/DTD/svg11.dtd">
<svg version="1.1" id="Capa_1" xmlns="http://www.w3.org/2000/svg" xmlns:xlink="http://www.w3.org/1999/xlink" x="0px" y="0px"
	 width="350px" height="350px" viewBox="0 0 350 350" enable-background="new 0 0 350 350" xml:space="preserve">
<g>
	<path d="M166.388,113.6c0.197,0,0.397,0.04,0.629,0.04c1.926,0,3.577-1.411,3.892-3.341l0.039-0.24
		c0.354-2.394,0.865-4.795,1.533-7.075c0.589-2.083-0.625-4.245-2.748-4.831c-2.009-0.59-4.245,0.668-4.834,2.708
		c-0.708,2.594-1.298,5.346-1.769,8.215c-0.04,0.2-0.04,0.432-0.04,0.629C163.086,111.596,164.501,113.286,166.388,113.6z"/>
	<path d="M214.5,67.1c0.196,0,0.433,0,0.669-0.04c2.437-0.432,4.996-0.747,7.546-0.982c2.163-0.157,3.773-2.083,3.617-4.245
		c-0.197-2.123-2.044-3.773-4.246-3.577c-2.904,0.236-5.655,0.59-8.255,1.062c-1.886,0.314-3.263,1.926-3.263,3.817
		c0,0.235,0.04,0.471,0.079,0.707C210.962,65.724,212.574,67.1,214.5,67.1z"/>
	<path d="M261.158,69.104c2.358,0.511,4.83,1.065,7.587,1.769c0.313,0.04,0.628,0.083,0.982,0.083c1.769,0,3.345-1.222,3.772-2.948
		c0.555-2.123-0.742-4.245-2.829-4.76c-2.673-0.668-5.347-1.293-7.9-1.848c-2.123-0.428-4.246,0.983-4.679,3.031
		c-0.039,0.271-0.078,0.55-0.078,0.826C258.018,67.1,259.314,68.711,261.158,69.104z"/>
	<path d="M134.706,280.028c-2.362,0.314-4.835,0.511-7.59,0.669c-2.119,0.081-3.773,1.808-3.773,3.93c0,0.039,0,0.118,0,0.196
		c0.118,2.084,1.851,3.734,3.931,3.734c0.083,0,0.157,0,0.2,0c2.791-0.157,5.539-0.394,8.255-0.708
		c2.123-0.274,3.656-2.24,3.38-4.402C138.833,281.325,136.868,279.793,134.706,280.028z"/>
	<path d="M190.13,201.452c-0.586-2.633-1.219-5.307-1.966-7.939c-0.551-2.048-2.791-3.345-4.796-2.791
		c-2.122,0.586-3.341,2.751-2.79,4.831c0.668,2.362,1.257,4.834,1.808,7.312c0,0.078,0,0.156,0.039,0.235l0.04,0.156
		c0.432,1.695,2.008,2.948,3.816,2.948c0.271,0,0.55-0.038,0.825-0.113c1.809-0.397,3.106-2.009,3.106-3.852
		c0-0.197-0.044-0.354-0.083-0.551h0.039L190.13,201.452z"/>
	<path d="M187.893,237.93c-2.083-0.511-4.205,0.825-4.716,2.908c-0.59,2.478-1.298,4.832-2.163,7.115
		c-0.199,0.433-0.274,0.943-0.274,1.415c0.039,1.651,1.021,3.066,2.551,3.656c0.433,0.156,0.903,0.239,1.38,0.239
		c1.65,0,3.105-1.026,3.69-2.52c0.983-2.595,1.809-5.307,2.48-8.098C191.309,240.524,190.012,238.402,187.893,237.93z"/>
	<path d="M171.541,160.809c0.393,0,0.743-0.039,1.097-0.157c1.694-0.511,2.87-2.044,2.834-3.813c0-0.354-0.043-0.708-0.157-1.065
		c-0.747-2.708-1.415-5.185-1.965-7.504c-0.472-2.083-2.634-3.42-4.717-2.909c-2.123,0.472-3.42,2.594-2.948,4.717
		c0.59,2.477,1.297,5.149,2.083,7.901C168.239,159.629,169.808,160.809,171.541,160.809z"/>
	<path d="M288.988,76.73c1.635,0,3.159-1.026,3.718-2.657c0.704-2.052-0.393-4.289-2.444-4.996c-1.273-0.433-2.54-0.857-3.798-1.266
		c-0.023-0.008-0.051,0-0.074-0.008c-0.063-0.024-0.122-0.047-0.192-0.071c-0.904-0.279-1.828-0.165-2.657,0.173
		c-0.825-2.7-1.683-5.413-2.626-8.168c-0.707-2.052-2.94-3.141-4.996-2.445c-2.052,0.708-3.148,2.94-2.445,4.996
		c5.275,15.397,8.645,29.819,10.157,42.959L244.9,66.518c0.299,0.032,0.586,0.043,0.885,0.075c0.157,0.04,0.314,0.04,0.432,0.04
		c2.005,0,3.691-1.494,3.932-3.498c0.121-1.065-0.193-2.087-0.861-2.913c-0.624-0.826-1.568-1.336-2.59-1.454
		c-2.87-0.315-5.625-0.551-8.177-0.668c-0.672-0.024-1.292,0.165-1.867,0.444c-1.501-0.865-3.424-0.719-4.708,0.566
		c-1.537,1.537-1.537,4.021,0,5.558l52.534,52.534c0.306,11.121-0.908,21.101-3.641,29.716l-77.962-77.958
		c0.361-0.92,0.393-1.978-0.012-2.96c-0.825-1.922-3.184-2.905-5.149-2.123c-2.638,1.101-5.188,2.398-7.59,3.773
		c-1.219,0.711-1.966,2.009-1.966,3.419c0,0.712,0.196,1.38,0.555,1.966c0.707,1.179,2.004,1.926,3.376,1.926
		c0.712,0,1.415-0.157,2.005-0.511c0.66-0.385,1.356-0.743,2.044-1.109l81.552,81.547c-2.607,5.397-5.916,10.118-10.004,14.009
		c-1.608,1.533-3.365,2.889-5.186,4.163l-83.886-83.897c1.242-1.918,2.646-3.77,4.163-5.476c1.414-1.651,1.297-4.127-0.314-5.582
		c-1.572-1.376-4.206-1.219-5.582,0.354c-1.887,2.123-3.616,4.441-5.149,6.839c-0.302,0.507-0.448,1.049-0.522,1.604
		c-0.079,0.067-0.177,0.094-0.251,0.165c-1.537,1.537-1.537,4.021,0,5.558l84.499,84.503c-7.982,3.699-17.448,5.433-28.137,5.22
		l-57.341-57.345c-0.299-1.961-1.973-3.562-3.986-3.345c-2.162,0.083-3.852,1.887-3.773,4.049c0.118,2.708,0.314,5.464,0.629,8.254
		c0.236,1.965,1.883,3.459,3.888,3.459c0.157,0,0.314,0,0.472,0c1.073-0.126,1.973-0.684,2.598-1.47l45.393,45.392
		c-10.566-1.498-22.079-4.626-34.374-9.406c-0.178-0.456-0.362-0.924-0.527-1.38c-0.743-1.965-3.105-3.03-5.071-2.279
		c-0.566,0.228-1.042,0.585-1.446,1.014c-39.921-14.614-72.605-12.394-92.428,6.479c-13.714,13.062-20.22,33.406-19.465,58.63
		c-0.015,0.213-0.004,0.409,0.016,0.621c0.393,11.329,2.205,23.608,5.546,36.693c-0.417-0.404-0.9-0.742-1.49-0.935
		c-1.222-0.396-2.445-0.811-3.683-1.23c-2.056-0.696-4.288,0.393-4.996,2.444c-0.704,2.052,0.393,4.289,2.445,4.996
		c1.277,0.437,2.543,0.856,3.801,1.271c0.409,0.129,0.814,0.191,1.219,0.191c1.659,0,3.196-1.057,3.738-2.712
		c0.023-0.07,0.004-0.137,0.023-0.208c1.321,4.827,2.783,9.721,4.5,14.736c0.562,1.627,2.083,2.653,3.719,2.653
		c0.421,0,0.853-0.071,1.273-0.212c2.052-0.708,3.148-2.94,2.445-4.996c-0.578-1.69-1.082-3.338-1.612-5.004
		c0.079,0.031,0.134,0.09,0.212,0.11l0.275,0.038c2.594,0.669,5.188,1.259,7.625,1.809c0.275,0.044,0.555,0.083,0.826,0.083
		c1.852,0,3.459-1.298,3.852-3.105c0.197-1.021,0.04-2.083-0.554-2.948c-0.546-0.868-1.446-1.497-2.472-1.733
		c-2.551-0.551-5.11-1.14-7.586-1.766c-1.541-0.407-3.113,0.206-4.057,1.389c-3.25-11.187-5.437-21.804-6.525-31.686l34.87,34.869
		c-0.417-0.051-0.837-0.07-1.25-0.13l-0.043,0.196l-0.04-0.196c-2.162-0.239-4.127,1.298-4.402,3.42
		c-0.039,0.157-0.039,0.311-0.039,0.512c0,1.965,1.494,3.615,3.459,3.887c2.751,0.358,5.464,0.629,8.101,0.826
		c0.114,0,0.197,0,0.311,0c0.735,0,1.388-0.256,1.977-0.613c0.684,0.494,1.458,0.813,2.268,0.813c1.007,0,2.013-0.386,2.779-1.152
		c1.537-1.537,1.537-4.021,0-5.558l-48.772-48.772c-0.24-11.026,1.042-20.943,3.829-29.528l74.397,74.397
		c-0.649,0.712-1.062,1.62-1.062,2.629c0,0.394,0.04,0.826,0.197,1.259c0.511,1.607,2.005,2.673,3.734,2.673
		c0.429,0,0.826-0.039,1.219-0.197l0.24-0.082c2.673-0.9,5.228-1.922,7.586-3.026c1.965-0.943,2.83-3.263,1.883-5.229
		c-0.865-1.887-3.302-2.79-5.224-1.887c-0.295,0.142-0.613,0.26-0.916,0.397l-78.875-78.871c2.646-5.408,5.995-10.148,10.122-14.079
		c1.576-1.502,3.29-2.839,5.059-4.096l82.675,82.675c-0.255,0.188-0.535,0.354-0.739,0.609c-1.533,1.883-3.219,3.655-5.028,5.307
		c-0.825,0.708-1.297,1.769-1.297,2.909c0,0.943,0.354,1.882,1.022,2.633c0.708,0.825,1.769,1.297,2.909,1.297
		c0.982,0,1.922-0.353,2.633-0.982l0.354-0.354c2.005-1.852,3.849-3.816,5.543-5.896c0.542-0.707,0.785-1.568,0.785-2.444
		c0.563-0.186,1.098-0.464,1.541-0.912c1.538-1.537,1.538-4.021,0-5.559l-83.422-83.418c7.905-3.781,17.248-5.625,27.759-5.601
		l58.329,58.329v0.066c0.043,2.123,1.729,3.853,3.891,3.853h0.039c2.123,0,3.892-1.729,3.931-3.853c0-0.354,0-0.743,0-1.097
		c0-0.188-0.02-0.389-0.023-0.578c0-0.027-0.004-0.055-0.004-0.082c-0.012-2.15-0.071-4.32-0.247-6.533
		c-0.157-2.165-1.965-3.816-4.207-3.659c-1.064,0.082-2.004,0.59-2.711,1.38c-0.009,0.012-0.013,0.027-0.021,0.035l-47.078-47.079
		c11.12,1.384,23.293,4.591,36.32,9.654c0.334,0.881,0.66,1.745,1.03,2.677c0.55,1.533,2.044,2.595,3.69,2.595
		c0.433,0,0.904-0.083,1.34-0.275c0.943-0.339,1.667-1.053,2.114-1.922c15.37,5.522,29.611,8.518,42.418,9.005
		c0.102,0.008,0.195,0.06,0.299,0.06c0.055,0,0.105-0.027,0.161-0.031c19.527,0.655,35.683-4.537,47.267-15.578
		c5.417-5.157,9.662-11.513,12.799-18.86c0.059-0.122,0.122-0.232,0.165-0.358c4.595-10.951,6.635-24.166,6.159-39.123
		c0.087-0.507,0.075-1.006-0.039-1.505c-0.516-11.938-2.642-24.968-6.376-38.855c0.629,0.212,1.254,0.417,1.892,0.633
		C288.139,76.663,288.567,76.73,288.988,76.73z"/>
</g>
</svg>
