<?xml version="1.0" encoding="utf-8"?>
<!-- Generator: Adobe Illustrator 16.0.0, SVG Export Plug-In . SVG Version: 6.00 Build 0)  -->
<!DOCTYPE svg PUBLIC "-//W3C//DTD SVG 1.1//EN" "http://www.w3.org/Graphics/SVG/1.1/DTD/svg11.dtd">
<svg version="1.1" id="Layer_1" xmlns="http://www.w3.org/2000/svg" xmlns:xlink="http://www.w3.org/1999/xlink" x="0px" y="0px"
	 width="350px" height="350px" viewBox="0 0 350 350" enable-background="new 0 0 350 350" xml:space="preserve">
<g>
	<g>
		<path d="M285.127,69.875H64.87c-5.529,0-10.013,4.484-10.013,10.013V230.07c0,5.528,4.484,10.001,10.013,10.001h78.075
			l-5.995,30.036h-1.998c-2.765,0-5.005,2.244-5.005,5.016c0,2.758,2.24,5.002,5.005,5.002h80.101c2.757,0,5.002-2.244,5.002-5.002
			c0-2.771-2.245-5.016-5.002-5.016h-2.009l-5.998-30.036h78.082c5.535,0,10.016-4.472,10.016-10.001V79.888
			C295.143,74.358,290.662,69.875,285.127,69.875z M147.16,270.108L147.16,270.108l5.987-29.992l43.689-0.015l5.998,30.007H147.16
			L147.16,270.108z M285.127,230.07H175H64.87v-10.017H175h110.127V230.07z M285.127,210.036H64.87V79.888h220.257V210.036z"/>
	</g>
</g>
<g>
	<g>
		<path d="M175,220.054c-2.764,0-5.004,2.242-5.004,5c0,2.771,2.24,5.017,5.004,5.017c2.765,0,5.005-2.244,5.005-5.017
			C180.005,222.296,177.765,220.054,175,220.054z"/>
	</g>
</g>
<g>
	<g>
		<path d="M265.106,109.923h-80.09c-2.768,0-5.012,2.24-5.012,5.005c0,2.764,2.243,5.004,5.012,5.004h80.09
			c2.765,0,5.002-2.24,5.002-5.004C270.108,112.164,267.871,109.923,265.106,109.923z"/>
	</g>
</g>
<g>
	<g>
		<path d="M265.106,129.946h-80.09c-2.768,0-5.012,2.24-5.012,5.005c0,2.765,2.243,5.008,5.012,5.008h80.09
			c2.765,0,5.002-2.243,5.002-5.008C270.108,132.186,267.871,129.946,265.106,129.946z"/>
	</g>
</g>
<g>
	<g>
		<path d="M265.106,149.969h-80.09c-2.768,0-5.012,2.244-5.012,5.008s2.243,5.005,5.012,5.005h80.09c2.765,0,5.002-2.24,5.002-5.005
			S267.871,149.969,265.106,149.969z"/>
	</g>
</g>
<g>
	<g>
		<path d="M265.106,169.995h-80.09c-2.768,0-5.012,2.24-5.012,5.005c0,2.764,2.243,5.004,5.012,5.004h80.09
			c2.765,0,5.002-2.24,5.002-5.004C270.108,172.235,267.871,169.995,265.106,169.995z"/>
	</g>
</g>
<g>
	<g>
		<path d="M130.793,144.964c22.523-15.066,28.818-47.603,29.104-49.146c0.506-2.716-1.287-5.327-4.004-5.833
			c-2.717-0.506-5.328,1.283-5.84,4c-0.015,0.091-0.462,2.383-1.493,5.925H91.32c-1.03-3.542-1.478-5.833-1.496-5.925
			c-0.506-2.717-3.117-4.507-5.833-4.004c-2.72,0.506-4.514,3.12-4.007,5.837c0.286,1.543,6.581,34.08,29.104,49.146
			c-22.523,15.065-28.819,47.605-29.104,49.145c-0.506,2.713,1.287,5.323,4,5.837c0.312,0.059,0.62,0.081,0.924,0.081
			c2.361,0,4.466-1.68,4.917-4.085c0.018-0.088,0.465-2.383,1.496-5.925h57.241c1.03,3.534,1.478,5.83,1.493,5.925
			c0.447,2.405,2.552,4.092,4.917,4.092c0.304,0,0.613-0.028,0.92-0.088c2.717-0.506,4.514-3.117,4.008-5.837
			C159.612,192.569,153.317,160.03,130.793,144.964z M99.76,119.933c-1.972-3.38-3.604-6.805-4.928-10.01h50.217
			c-1.328,3.205-2.955,6.629-4.928,10.01H99.76z M107.001,129.946h25.878c-3.601,3.963-7.883,7.366-12.939,9.606
			C114.884,137.313,110.602,133.91,107.001,129.946z M119.94,150.375c5.056,2.241,9.338,5.643,12.939,9.606h-25.878
			C110.602,156.019,114.884,152.616,119.94,150.375z M94.833,180.004c1.323-3.204,2.955-6.628,4.928-10.009h40.36
			c1.973,3.381,3.6,6.805,4.928,10.009H94.833z"/>
	</g>
</g>
</svg>
