<?xml version="1.0" encoding="utf-8"?>
<!-- Generator: Adobe Illustrator 16.0.0, SVG Export Plug-In . SVG Version: 6.00 Build 0)  -->
<!DOCTYPE svg PUBLIC "-//W3C//DTD SVG 1.1//EN" "http://www.w3.org/Graphics/SVG/1.1/DTD/svg11.dtd">
<svg version="1.1" id="Layer_1" xmlns="http://www.w3.org/2000/svg" xmlns:xlink="http://www.w3.org/1999/xlink" x="0px" y="0px"
	 width="350px" height="350px" viewBox="0 0 350 350" enable-background="new 0 0 350 350" xml:space="preserve">
<g>
	<g>
		<path d="M280.795,135.007l-65.803-65.801c-2.075-2.075-5.438-2.074-7.514,0c-2.074,2.074-2.074,5.438,0,7.513l65.804,65.803
			c1.037,1.037,2.396,1.556,3.756,1.556s2.719-0.519,3.757-1.556C282.868,140.446,282.868,137.082,280.795,135.007z"/>
	</g>
</g>
<g>
	<g>
		<path d="M261.996,147.536l-59.308-59.308c-2.074-2.074-5.438-2.074-7.514,0c-2.074,2.075-2.074,5.438,0,7.514l59.308,59.309
			c1.038,1.037,2.398,1.556,3.757,1.556c1.36,0,2.72-0.519,3.757-1.556C264.07,152.975,264.07,149.611,261.996,147.536z"/>
	</g>
</g>
<g>
	<g>
		<path d="M238.607,155.467l-44.074-44.075c-2.076-2.074-5.438-2.074-7.515,0c-2.074,2.075-2.074,5.438,0,7.513l44.075,44.075
			c1.038,1.037,2.397,1.556,3.757,1.556c1.36,0,2.719-0.519,3.756-1.556C240.682,160.906,240.682,157.542,238.607,155.467z"/>
	</g>
</g>
<g>
	<g>
		<path d="M208.996,157.182l-16.646-16.647c-2.075-2.074-5.438-2.074-7.514,0c-2.075,2.075-2.075,5.438,0,7.513l16.647,16.647
			c1.037,1.037,2.396,1.556,3.756,1.556s2.719-0.519,3.756-1.556C211.071,162.62,211.071,159.256,208.996,157.182z"/>
	</g>
</g>
<g>
	<g>
		<path d="M142.521,273.281l-65.803-65.804c-2.074-2.074-5.438-2.074-7.513,0c-2.074,2.075-2.074,5.438,0,7.514l65.803,65.804
			c1.037,1.037,2.397,1.556,3.756,1.556c1.36,0,2.719-0.519,3.756-1.556C144.595,278.721,144.596,275.356,142.521,273.281z"/>
	</g>
</g>
<g>
	<g>
		<path d="M155.048,254.481l-59.529-59.529c-2.075-2.074-5.438-2.074-7.514,0c-2.074,2.074-2.074,5.438,0,7.513l59.53,59.531
			c1.037,1.037,2.397,1.555,3.756,1.555c1.359,0,2.719-0.518,3.756-1.555C157.123,259.921,157.123,256.557,155.048,254.481z"/>
	</g>
</g>
<g>
	<g>
		<path d="M162.979,231.094l-44.074-44.074c-2.074-2.074-5.438-2.074-7.513,0c-2.074,2.074-2.075,5.438,0,7.514l44.073,44.074
			c1.038,1.037,2.397,1.556,3.756,1.556c1.359,0,2.72-0.52,3.756-1.556C165.054,236.533,165.054,233.169,162.979,231.094z"/>
	</g>
</g>
<g>
	<g>
		<path d="M164.696,201.483l-16.648-16.647c-2.074-2.075-5.438-2.075-7.513,0c-2.074,2.074-2.074,5.438,0,7.513l16.648,16.647
			c1.037,1.038,2.397,1.557,3.756,1.557c1.359,0,2.719-0.519,3.756-1.557C166.771,206.923,166.771,203.559,164.696,201.483z"/>
	</g>
</g>
<g>
	<g>
		<path d="M300.944,139.048c-2.075-2.075-5.438-2.075-7.514,0c-37.909,37.91-74.752,35.213-113.601,31.122
			c-4.092-38.849-6.788-75.691,31.122-113.601c2.074-2.074,2.074-5.438,0-7.514c-2.075-2.074-5.438-2.074-7.513,0
			c-40.633,40.634-38.462,80.914-34.411,119.972c-39.06-4.05-79.338-6.222-119.972,34.412c-2.074,2.074-2.074,5.438,0,7.513
			c1.037,1.037,2.397,1.556,3.756,1.556c1.36,0,2.719-0.519,3.756-1.556c37.908-37.91,74.751-35.214,113.6-31.122
			c4.092,38.85,6.789,75.69-31.122,113.601c-2.074,2.075-2.074,5.438,0,7.514c1.038,1.037,2.397,1.557,3.756,1.557
			c1.359,0,2.719-0.52,3.756-1.557c40.633-40.634,38.462-80.913,34.41-119.973c10.627,1.103,21.34,2.066,32.129,2.066
			c28.869-0.002,58.267-6.898,87.845-36.477C303.019,144.485,303.019,141.122,300.944,139.048z"/>
	</g>
</g>
</svg>
