<?xml version="1.0" encoding="utf-8"?>
<!-- Generator: Adobe Illustrator 16.0.0, SVG Export Plug-In . SVG Version: 6.00 Build 0)  -->
<!DOCTYPE svg PUBLIC "-//W3C//DTD SVG 1.1//EN" "http://www.w3.org/Graphics/SVG/1.1/DTD/svg11.dtd">
<svg version="1.1" id="Layer_1" xmlns="http://www.w3.org/2000/svg" xmlns:xlink="http://www.w3.org/1999/xlink" x="0px" y="0px"
	 width="350px" height="350px" viewBox="0 0 350 350" enable-background="new 0 0 350 350" xml:space="preserve">
<path fill="#5D9CEC" d="M62.337,241.567c-2.824,0-5.124-2.295-5.124-5.115V82.815c0-2.82,2.3-5.116,5.124-5.116h225.322
	c2.827,0,5.131,2.295,5.131,5.116v153.637c0,2.82-2.304,5.116-5.131,5.116L62.337,241.567L62.337,241.567z"/>
<path fill="#E6E9ED" d="M287.658,72.576H62.337c-5.656,0-10.243,4.583-10.243,10.24v153.637c0,5.655,4.587,10.246,10.243,10.246
	h225.322c5.656,0,10.247-4.591,10.247-10.246V82.815C297.905,77.159,293.315,72.576,287.658,72.576z M287.658,236.452H62.337V82.815
	h225.322L287.658,236.452L287.658,236.452z"/>
<polygon fill="#CCD1D9" points="215.974,277.426 134.03,277.426 144.243,236.496 205.741,236.481 "/>
<rect x="59.749" y="215.974" fill="#E6E9ED" width="230.506" height="29.302"/>
<path fill="#434A54" d="M180.119,231.335c0,2.82-2.291,5.117-5.12,5.117c-2.828,0-5.12-2.297-5.12-5.117
	c0-2.834,2.292-5.13,5.12-5.13C177.828,226.204,180.119,228.501,180.119,231.335z"/>
<path fill="#E6E9ED" d="M215.974,267.179H134.03c-2.829,0-5.12,2.295-5.12,5.115c0,2.835,2.292,5.132,5.12,5.132h81.944
	c2.82,0,5.116-2.296,5.116-5.132C221.09,269.474,218.794,267.179,215.974,267.179z"/>
<g>
	<path fill="#434A54" d="M267.179,123.789h-81.932c-2.831,0-5.124-2.295-5.124-5.124c0-2.829,2.292-5.116,5.124-5.116h81.932
		c2.836,0,5.124,2.288,5.124,5.116C272.303,121.494,270.015,123.789,267.179,123.789z"/>
	<path fill="#434A54" d="M267.179,144.276h-81.932c-2.831,0-5.124-2.295-5.124-5.124c0-2.828,2.292-5.123,5.124-5.123h81.932
		c2.836,0,5.124,2.295,5.124,5.123C272.303,141.981,270.015,144.276,267.179,144.276z"/>
	<path fill="#434A54" d="M267.179,164.755h-81.932c-2.831,0-5.124-2.288-5.124-5.116c0-2.828,2.292-5.123,5.124-5.123h81.932
		c2.836,0,5.124,2.295,5.124,5.123C272.303,162.467,270.015,164.755,267.179,164.755z"/>
	<path fill="#434A54" d="M267.179,185.246h-81.932c-2.831,0-5.124-2.296-5.124-5.128c0-2.828,2.292-5.116,5.124-5.116h81.932
		c2.836,0,5.124,2.288,5.124,5.116C272.303,182.95,270.015,185.246,267.179,185.246z"/>
</g>
<g>
	<path fill="#CCD1D9" d="M151.741,113.549H85.757c-2.829,0-5.123-2.295-5.123-5.124s2.295-5.124,5.123-5.124h65.984
		c2.828,0,5.12,2.296,5.12,5.124S154.569,113.549,151.741,113.549z"/>
	<path fill="#CCD1D9" d="M142.21,134.029H95.142c-2.828,0-5.121-2.289-5.121-5.116c0-2.829,2.292-5.124,5.121-5.124h47.069
		c2.828,0,5.12,2.296,5.12,5.124S145.038,134.029,142.21,134.029z"/>
	<path fill="#CCD1D9" d="M142.207,175.002H95.142c-2.828,0-5.121-2.295-5.121-5.124c0-2.828,2.292-5.124,5.121-5.124h47.065
		c2.828,0,5.12,2.296,5.12,5.124C147.326,172.707,145.034,175.002,142.207,175.002z"/>
	<path fill="#CCD1D9" d="M151.741,195.478h-66.13c-2.828,0-5.12-2.28-5.12-5.115c0-2.82,2.292-5.116,5.12-5.116h66.13
		c2.829,0,5.12,2.296,5.12,5.116C156.861,193.197,154.569,195.478,151.741,195.478z"/>
</g>
<path fill="#E6E9ED" d="M82.839,205.726c-0.312,0-0.623-0.029-0.941-0.09c-2.78-0.51-4.618-3.182-4.1-5.972
	c0.331-1.771,8.417-43.551,39.08-55.066c7.183-2.693,17.475-9.564,25.704-26.983c5.079-10.75,6.882-20.269,6.901-20.367
	c0.514-2.783,3.188-4.613,5.968-4.104c2.783,0.518,4.618,3.196,4.103,5.971c-0.33,1.778-8.417,43.562-39.079,55.069
	c-7.183,2.701-17.475,9.572-25.705,26.992c-5.082,10.746-6.882,20.272-6.901,20.362C87.412,204,85.258,205.726,82.839,205.726z"/>
<path fill="#F5F7FA" d="M154.513,205.726c-2.423,0-4.573-1.726-5.03-4.187c-0.071-0.375-7.385-37.879-32.605-47.354
	c-30.663-11.507-38.75-53.291-39.08-55.069c-0.518-2.775,1.32-5.454,4.1-5.971c2.779-0.51,5.45,1.32,5.971,4.096l0,0
	c0.071,0.383,7.386,37.89,32.606,47.357c30.662,11.515,38.749,53.295,39.079,55.066c0.514,2.79-1.32,5.461-4.103,5.972
	C155.135,205.696,154.82,205.726,154.513,205.726z"/>
</svg>
