<?xml version="1.0" encoding="utf-8"?>
<!-- Generator: Adobe Illustrator 16.0.0, SVG Export Plug-In . SVG Version: 6.00 Build 0)  -->
<!DOCTYPE svg PUBLIC "-//W3C//DTD SVG 1.1//EN" "http://www.w3.org/Graphics/SVG/1.1/DTD/svg11.dtd">
<svg version="1.1" id="Layer_1" xmlns="http://www.w3.org/2000/svg" xmlns:xlink="http://www.w3.org/1999/xlink" x="0px" y="0px"
	 width="350px" height="350px" viewBox="0 0 350 350" enable-background="new 0 0 350 350" xml:space="preserve">
<path fill="#81E26F" d="M217.327,68c0.046-0.36,0.071-0.721,0.071-1.087c0-0.399-0.032-0.792-0.083-1.178l-0.098-17.536
	c-0.032-5.31-4.351-9.596-9.653-9.596h-0.058c-5.328,0.032-9.627,4.376-9.595,9.711l0.052,8.945h-45.93l0.052-8.945
	c0.032-5.335-4.267-9.679-9.595-9.711h-0.058c-5.303,0-9.621,4.286-9.646,9.595l-0.103,17.523c-0.052,0.393-0.084,0.785-0.084,1.19
	c0,0.366,0.032,0.733,0.071,1.094l-0.064,11.525c-0.2,34.134,10.522,67.746,30.304,95.469
	c-19.782,27.724-30.497,61.335-30.304,95.469l0.058,10.47c-0.032,0.348-0.058,0.702-0.058,1.056c0,0.387,0.032,0.766,0.071,1.139
	l0.109,18.663c0.032,5.315,4.344,9.602,9.652,9.602h0.059c5.328-0.032,9.627-4.376,9.595-9.711l-0.058-10.039h45.935l-0.059,10.039
	c-0.031,5.335,4.268,9.679,9.604,9.711h0.051c5.31,0,9.621-4.286,9.652-9.602l0.109-18.663c0.045-0.373,0.071-0.752,0.071-1.139
	c0-0.354-0.02-0.701-0.058-1.049l0.058-10.478c0.192-34.133-10.522-67.744-30.305-95.468c19.782-27.729,30.497-61.335,30.305-95.469
	L217.327,68z M198.092,270.359l-0.013,1.982h-46.154l-0.013-1.982c-0.02-3.211,0.077-6.416,0.276-9.607h45.626
	C198.015,263.943,198.111,267.148,198.092,270.359z M192.532,230.125c1.068,3.733,1.988,7.51,2.754,11.32h-40.568
	c0.766-3.809,1.687-7.587,2.754-11.32H192.532z M175.395,157.837c-0.129,0.206-0.257,0.412-0.393,0.618
	c-4.208-6.494-7.876-13.309-10.972-20.368h21.938C182.97,144.921,179.436,151.53,175.395,157.837z M185.479,210.819h-20.953
	c2.992-6.667,6.493-13.116,10.477-19.274c0.135,0.206,0.264,0.412,0.392,0.618C179.217,198.136,182.583,204.371,185.479,210.819z
	 M192.842,118.781h-35.685c-1.036-3.739-1.924-7.51-2.657-11.32h41C194.765,111.271,193.877,115.042,192.842,118.781z
	 M197.88,88.155h-45.756c-0.154-2.831-0.231-5.669-0.212-8.514l0.013-3.076h46.148l0.02,3.076
	C198.105,82.485,198.034,85.324,197.88,88.155z"/>
<path fill="#00BA63" d="M217.398,79.531c0.192,34.133-10.521,67.739-30.304,95.469c19.782,27.724,30.496,61.335,30.304,95.469
	l-0.058,10.477c0.038,0.348,0.058,0.695,0.058,1.049c0,0.387-0.025,0.766-0.071,1.14l-0.109,18.662
	c-0.032,5.316-4.343,9.602-9.653,9.602h-0.051c-5.335-0.032-9.634-4.375-9.602-9.711l0.058-10.038h-22.575v-19.307h22.685
	l0.013-1.982c0.019-3.21-0.078-6.416-0.277-9.607h-22.42v-19.306h19.892c-0.766-3.81-1.686-7.588-2.754-11.32h-17.138v-19.307
	h10.084c-2.896-6.447-6.262-12.684-10.084-18.655v-34.327c4.041-6.307,7.574-12.916,10.573-19.75h-10.573v-19.306h17.446
	c1.036-3.739,1.923-7.51,2.657-11.32h-20.104V88.155h22.484c0.155-2.831,0.226-5.669,0.213-8.514l-0.02-3.076h-22.678V57.259h22.568
	l-0.051-8.945c-0.032-5.335,4.267-9.679,9.595-9.711h0.058c5.304,0,9.621,4.286,9.653,9.595l0.096,17.536
	c0.052,0.386,0.084,0.778,0.084,1.178c0,0.366-0.025,0.727-0.07,1.087L217.398,79.531z"/>
</svg>
