<?xml version="1.0" encoding="utf-8"?>
<!-- Generator: Adobe Illustrator 16.0.0, SVG Export Plug-In . SVG Version: 6.00 Build 0)  -->
<!DOCTYPE svg PUBLIC "-//W3C//DTD SVG 1.1//EN" "http://www.w3.org/Graphics/SVG/1.1/DTD/svg11.dtd">
<svg version="1.1" id="Layer_1" xmlns="http://www.w3.org/2000/svg" xmlns:xlink="http://www.w3.org/1999/xlink" x="0px" y="0px"
	 width="350px" height="350px" viewBox="0 0 350 350" enable-background="new 0 0 350 350" xml:space="preserve">
<g>
	<path fill="#1B1B1C" d="M117.987,130.718c0,0,5.201,12.543,4.987,17.311c-0.213,4.768-6.394,30.229,12.002,30.797
		c18.396,0.567,49.296-2.313,49.296-2.313l-6.999-26.979L117.987,130.718z"/>
	<polygon fill="#205FAE" points="145.116,230.716 159.651,310.828 167.553,310.828 183.206,230.716 	"/>
	<g>
		<path fill="#1B4E90" d="M164.958,230.719c0,0,0.298,1.257,0.592,3.453c0.146,1.098,0.309,2.431,0.421,3.959
			c0.131,1.527,0.232,3.251,0.286,5.13c0.04,1.879,0.088,3.914-0.042,6.064c-0.117,2.149-0.472,4.413-0.801,6.756
			c-0.329,2.343-0.583,4.764-0.571,7.229c-0.039,2.464,0.123,4.971,0.365,7.479c0.228,2.508,0.494,5.016,0.553,7.481
			c0.083,2.467,0.156,4.894,0.194,7.242c0.054,2.349,0.017,4.617-0.086,6.768c-0.098,2.15-0.269,4.183-0.415,6.058
			c-0.183,1.876-0.351,3.595-0.555,5.117c-0.185,1.523-0.392,2.85-0.572,3.942c-0.356,2.186-0.659,3.433-0.659,3.433l-0.4-0.006
			c0,0-0.263-1.257-0.548-3.452c-0.145-1.098-0.309-2.431-0.445-3.959c-0.155-1.528-0.268-3.252-0.39-5.132
			c-0.086-1.88-0.191-3.916-0.22-6.068c-0.034-2.153,0.002-4.422,0.132-6.768c0.113-2.346,0.264-4.769,0.427-7.231
			c0.139-2.463,0.485-4.961,0.793-7.461c0.323-2.498,0.564-4.999,0.605-7.463c0.092-2.464-0.085-4.893-0.338-7.244
			c-0.253-2.352-0.536-4.626-0.583-6.778c-0.061-2.153,0.053-4.187,0.154-6.063c0.114-1.876,0.27-3.596,0.45-5.118
			c0.161-1.523,0.367-2.851,0.549-3.943c0.363-2.186,0.703-3.432,0.702-3.432L164.958,230.719z"/>
	</g>
	<path fill="#025798" d="M159.129,308.325c0,0-0.017,1.296-0.757,1.25c-0.741-0.047-3.24-0.324-3.379,1.573
		c-0.139,1.898,1.157,1.806,2.407,1.76c1.25-0.047,5.602-0.741,5.926-1.436c0.324-0.694,0-1.62,0-1.62
		S160.102,309.714,159.129,308.325z"/>
	<path fill="#025798" d="M167.81,308.325c0,0,0.017,1.296,0.757,1.25c0.74-0.047,3.24-0.324,3.379,1.573
		c0.14,1.898-1.157,1.806-2.407,1.76c-1.249-0.047-5.601-0.741-5.925-1.436c-0.324-0.694,0-1.62,0-1.62
		S166.837,309.714,167.81,308.325z"/>
	<path fill="#F2F2F4" d="M150.534,163.83c0,0,11.732-3.996,22.949,0l-0.661,1.019h-21.482L150.534,163.83z"/>
	<g>
		<image overflow="visible" width="79" height="79" xlink:href="CFD43EA5.png"  transform="matrix(1 0 0 1 97 94)">
		</image>
	</g>
	<g>
		<image overflow="visible" width="79" height="79" xlink:href="CFD43EA7.png"  transform="matrix(1 0 0 1 143 94)">
		</image>
	</g>
	<polygon fill="#F5AF98" points="155.877,155.687 167.454,155.921 167.454,163.83 155.877,163.83 	"/>
	<path fill="#F5AF98" d="M192.48,232.415c-7.974-1.565-13.263-34.736-14.14-41.884c-0.136-1.093-0.207-1.731-0.207-1.731
		l-32.155-0.261c0,0-0.01,0.257-0.032,0.726c-0.203,4.637-5.956,44.517-12.509,43.113c-7.033-1.505,0.81-11.195,3.199-44.041
		c0.78-10.731,2.75-20.092,2.75-20.092l16.371-4.81l11.679-0.015l17.039,4.521c0,0,2.414,10.248,3.198,21.533
		C188.654,203.62,198.276,228.815,192.48,232.415L192.48,232.415z"/>
	<g opacity="0.46">
		<g>
			<g>
				<defs>
					<rect id="SVGID_1_" x="155.877" y="156.117" width="11.576" height="3.266"/>
				</defs>
				<clipPath id="SVGID_2_">
					<use xlink:href="#SVGID_1_"  overflow="visible"/>
				</clipPath>
				<g clip-path="url(#SVGID_2_)">
					<defs>
						<rect id="SVGID_3_" x="155.877" y="156.117" width="11.576" height="3.266"/>
					</defs>
					<clipPath id="SVGID_4_">
						<use xlink:href="#SVGID_3_"  overflow="visible"/>
					</clipPath>
				</g>
			</g>
		</g>
		<g>
			<g>
				<defs>
					<rect id="SVGID_5_" x="155.877" y="156.117" width="11.576" height="3.266"/>
				</defs>
				<use xlink:href="#SVGID_5_"  overflow="visible" fill="#EF8066"/>
				<clipPath id="SVGID_6_">
					<use xlink:href="#SVGID_5_"  overflow="visible"/>
				</clipPath>
				<g clip-path="url(#SVGID_6_)">
					<defs>
						<rect id="SVGID_7_" x="155.877" y="156.117" width="11.576" height="3.266"/>
					</defs>
					<use xlink:href="#SVGID_7_"  overflow="visible" fill="#EF8066"/>
					<clipPath id="SVGID_8_">
						<use xlink:href="#SVGID_7_"  overflow="visible"/>
					</clipPath>
					<path clip-path="url(#SVGID_8_)" fill="#EF8066" d="M155.877,156.117c0,0,6.424,0.162,11.576,0.234v3.032
						c0,0-11.453-2.421-11.576-2.468V156.117z"/>
				</g>
			</g>
		</g>
		<g>
			<g>
				<defs>
					<rect id="SVGID_9_" x="155.877" y="156.117" width="11.576" height="3.266"/>
				</defs>
				<clipPath id="SVGID_10_">
					<use xlink:href="#SVGID_9_"  overflow="visible"/>
				</clipPath>
				<g clip-path="url(#SVGID_10_)">
					<defs>
						<rect id="SVGID_11_" x="155.877" y="156.117" width="11.576" height="3.266"/>
					</defs>
					<clipPath id="SVGID_12_">
						<use xlink:href="#SVGID_11_"  overflow="visible"/>
					</clipPath>
				</g>
			</g>
		</g>
	</g>
	<path fill="#EB6D54" d="M164.622,168.78c0,0,0.073-0.114,0.223-0.291c0.151-0.175,0.384-0.418,0.71-0.657
		c0.16-0.122,0.35-0.235,0.557-0.345c0.21-0.098,0.44-0.189,0.693-0.245c0.123-0.03,0.253-0.058,0.385-0.069
		c0.133-0.02,0.268-0.023,0.403-0.021c0.266-0.001,0.524,0.009,0.79,0.012c0.526,0.012,1.055,0.009,1.547,0.028
		c0.494,0.025,0.953,0.079,1.344,0.117c0.784,0.082,1.309,0.196,1.309,0.196c0.013,0.005,0.02,0.016,0.018,0.027
		c-0.001,0.01-0.01,0.018-0.019,0.02c0,0-0.529,0.084-1.326,0.118c-0.398,0.021-0.858,0.013-1.351-0.009
		c-0.494-0.032-1.018-0.092-1.544-0.135c-0.26-0.023-0.528-0.049-0.78-0.063c-0.123-0.009-0.245-0.016-0.365-0.003
		c-0.122,0-0.241,0.017-0.358,0.037c-0.234,0.036-0.453,0.11-0.659,0.186c-0.203,0.085-0.393,0.178-0.555,0.28
		c-0.332,0.203-0.58,0.419-0.741,0.578c-0.164,0.162-0.243,0.266-0.243,0.266c-0.007,0.009-0.023,0.01-0.031,0.004
		C164.616,168.804,164.615,168.791,164.622,168.78L164.622,168.78z"/>
	<g opacity="0.46">
		<g>
			<defs>
				<rect id="SVGID_13_" x="164.904" y="167.401" width="5.652" height="1.08"/>
			</defs>
			<clipPath id="SVGID_14_">
				<use xlink:href="#SVGID_13_"  overflow="visible"/>
			</clipPath>
			<g clip-path="url(#SVGID_14_)">
				<defs>
					<rect id="SVGID_15_" x="164.904" y="167.401" width="5.65" height="1.08"/>
				</defs>
				<clipPath id="SVGID_16_">
					<use xlink:href="#SVGID_15_"  overflow="visible"/>
				</clipPath>
				<path clip-path="url(#SVGID_16_)" fill="#DCA15F" d="M164.91,168.443c0,0,0.23-0.298,0.707-0.602
					c0.119-0.075,0.255-0.15,0.405-0.217c0.15-0.061,0.315-0.122,0.495-0.152c0.176-0.041,0.367-0.054,0.561-0.054h0.543
					c0.182,0,0.365-0.001,0.546-0.004c0.18-0.01,0.356-0.013,0.523-0.013c0.341,0.007,0.657,0.037,0.933,0.062
					c0.547,0.057,0.915,0.147,0.915,0.147c0.012,0.004,0.02,0.016,0.018,0.029c-0.004,0.009-0.009,0.016-0.018,0.018
					c0,0-0.364,0.104-0.915,0.163c-0.273,0.032-0.598,0.052-0.944,0.049c-0.173-0.003-0.353-0.01-0.533-0.024
					c-0.179-0.02-0.361-0.038-0.545-0.055s-0.366-0.035-0.549-0.052c-0.165-0.015-0.331-0.022-0.493,0
					c-0.162,0.014-0.315,0.054-0.461,0.096s-0.28,0.096-0.4,0.154c-0.242,0.114-0.43,0.24-0.559,0.332
					c-0.13,0.093-0.196,0.156-0.196,0.156c-0.009,0.007-0.023,0.007-0.031-0.001C164.903,168.464,164.903,168.45,164.91,168.443"/>
			</g>
		</g>
	</g>
	<path fill="#EB6D54" d="M159.279,168.807c0,0-0.079-0.104-0.241-0.268c-0.163-0.157-0.41-0.374-0.742-0.577
		c-0.164-0.103-0.352-0.195-0.554-0.28c-0.206-0.075-0.426-0.15-0.66-0.186c-0.117-0.021-0.237-0.037-0.357-0.037
		c-0.122-0.013-0.242-0.006-0.367,0.003c-0.253,0.014-0.521,0.04-0.781,0.063c-0.524,0.044-1.047,0.104-1.54,0.136
		c-0.495,0.022-0.955,0.03-1.354,0.009c-0.795-0.034-1.325-0.118-1.325-0.118c-0.012-0.002-0.022-0.014-0.019-0.026
		c0-0.01,0.009-0.017,0.017-0.021c0,0,0.525-0.114,1.309-0.196c0.391-0.038,0.85-0.092,1.344-0.117
		c0.494-0.019,1.02-0.016,1.547-0.028c0.265-0.003,0.524-0.013,0.79-0.012c0.136-0.001,0.27,0.001,0.401,0.021
		c0.134,0.012,0.262,0.039,0.387,0.069c0.25,0.056,0.482,0.147,0.692,0.248c0.208,0.106,0.395,0.22,0.558,0.342
		c0.323,0.239,0.557,0.482,0.708,0.657c0.15,0.176,0.223,0.291,0.223,0.291c0.005,0.009,0.002,0.023-0.006,0.031
		C159.3,168.817,159.288,168.815,159.279,168.807L159.279,168.807z"/>
	<g opacity="0.46">
		<g>
			<defs>
				<rect id="SVGID_17_" x="153.446" y="167.401" width="5.676" height="1.173"/>
			</defs>
			<clipPath id="SVGID_18_">
				<use xlink:href="#SVGID_17_"  overflow="visible"/>
			</clipPath>
			<g clip-path="url(#SVGID_18_)">
				<defs>
					<rect id="SVGID_19_" x="153.446" y="167.401" width="5.676" height="1.173"/>
				</defs>
				<clipPath id="SVGID_20_">
					<use xlink:href="#SVGID_19_"  overflow="visible"/>
				</clipPath>
				<path clip-path="url(#SVGID_20_)" fill="#DCA15F" d="M159.083,168.567c0,0-0.064-0.063-0.189-0.164
					c-0.129-0.098-0.313-0.235-0.553-0.362c-0.12-0.064-0.253-0.124-0.397-0.176c-0.146-0.049-0.3-0.097-0.461-0.117
					c-0.162-0.028-0.332-0.028-0.498-0.012c-0.18,0.015-0.367,0.033-0.55,0.049c-0.186,0.019-0.37,0.038-0.551,0.057
					c-0.184,0.016-0.364,0.022-0.54,0.027c-0.351,0.006-0.678-0.016-0.956-0.049c-0.555-0.056-0.923-0.163-0.923-0.163
					c-0.015-0.004-0.021-0.016-0.019-0.028c0.004-0.009,0.009-0.016,0.019-0.016c0,0,0.371-0.093,0.923-0.15
					c0.281-0.026,0.599-0.056,0.943-0.062c0.342,0.003,0.713,0.023,1.084,0.019h0.552c0.197,0,0.39,0.02,0.567,0.066
					c0.359,0.086,0.659,0.252,0.893,0.415c0.232,0.163,0.407,0.324,0.519,0.442c0.113,0.119,0.17,0.193,0.17,0.193
					c0.008,0.012,0.006,0.023-0.001,0.033C159.105,168.577,159.091,168.576,159.083,168.567"/>
			</g>
		</g>
	</g>
	<path fill="#F5AF98" d="M198.198,122.079c0,0,2.037,13.015-5.946,23.033c-6.812,8.547-22.373,11.501-30.654,11.303
		c-6.591-0.158-12.174-1.05-16.898-2.471c-6.466-1.939-11.337-4.854-15-8.214c-12.542-11.493-10.963-28.109-10.963-28.109
		s-8.562-44.049,33.643-45.188C211.354,70.848,198.198,122.079,198.198,122.079z"/>
	<path fill="#F5AF98" d="M118.44,118.661c0,0-4.034-0.369-3.395,4.436c0.64,4.803,2.946,7.735,6.025,7.725L118.44,118.661z"/>
	<path fill="#F5AF98" d="M198.339,118.664c0,0,3.892-1.521,4.083,3.321c0.19,4.843-1.58,8.125-4.617,8.642L198.339,118.664z"/>
	<g>
		<path fill="#502911" d="M188.438,102.257c0,0-1.116-0.748-2.859-1.681c-0.441-0.223-0.918-0.462-1.428-0.694
			c-0.521-0.212-1.036-0.487-1.606-0.687c-0.557-0.23-1.141-0.428-1.729-0.617c-0.58-0.22-1.191-0.336-1.784-0.493
			c-0.598-0.133-1.208-0.167-1.79-0.213c-0.585,0.042-1.145-0.012-1.666-0.007c-0.26-0.001-0.515-0.015-0.766-0.05
			c-0.253-0.046-0.499-0.075-0.735-0.076c-0.238-0.007-0.476-0.042-0.709-0.064c-0.237-0.043-0.466-0.068-0.683-0.061
			c-0.437-0.005-0.864-0.039-1.269-0.089c-0.39-0.011-0.736,0.013-1.048-0.007c-0.616-0.018-1.037-0.074-1.037-0.074l-0.203-0.345
			c0,0,0.18-0.347,0.615-0.872c0.219-0.261,0.496-0.584,0.859-0.895c0.377-0.275,0.831-0.564,1.355-0.847
			c0.519-0.311,1.138-0.43,1.796-0.617c0.166-0.04,0.334-0.08,0.505-0.121c0.17-0.012,0.343-0.032,0.519-0.037
			c0.351-0.02,0.711-0.019,1.076-0.005c0.73,0.032,1.438,0.292,2.155,0.497c0.687,0.285,1.383,0.549,2.045,0.848
			c0.653,0.32,1.319,0.604,1.915,0.977c0.303,0.178,0.605,0.347,0.894,0.53c0.278,0.196,0.554,0.39,0.824,0.581
			c1.081,0.752,1.983,1.574,2.733,2.285c1.492,1.428,2.298,2.545,2.298,2.545L188.438,102.257z"/>
	</g>
	<g>
		<path fill="#502911" d="M131.299,101.427c0,0,0.842-1.09,2.38-2.469c0.772-0.686,1.701-1.478,2.806-2.194
			c0.276-0.182,0.558-0.367,0.842-0.554c0.294-0.174,0.603-0.333,0.911-0.5c0.607-0.354,1.282-0.615,1.945-0.914
			c0.672-0.278,1.377-0.519,2.072-0.781c0.722-0.181,1.438-0.418,2.169-0.427c0.365-0.002,0.726,0.008,1.075,0.04
			c0.175,0.011,0.347,0.036,0.517,0.054c0.169,0.046,0.336,0.092,0.501,0.137c0.651,0.208,1.267,0.348,1.775,0.675
			c0.515,0.299,0.959,0.603,1.327,0.891c0.353,0.321,0.619,0.654,0.829,0.922c0.418,0.54,0.587,0.892,0.587,0.892l-0.215,0.338
			c0,0-0.423,0.042-1.039,0.041c-0.313,0.009-0.658-0.026-1.048-0.028c-0.406,0.037-0.834,0.058-1.271,0.048
			c-0.216-0.014-0.446,0.004-0.684,0.039c-0.233,0.015-0.472,0.041-0.71,0.041c-0.237-0.007-0.482,0.014-0.737,0.052
			c-0.252,0.027-0.507,0.032-0.768,0.025c-0.521-0.022-1.081,0.013-1.665-0.047c-0.583,0.028-1.194,0.042-1.796,0.155
			c-0.597,0.138-1.212,0.234-1.799,0.435c-0.594,0.17-1.185,0.349-1.748,0.561c-0.577,0.181-1.101,0.439-1.628,0.634
			c-0.517,0.215-1.001,0.438-1.449,0.647c-1.773,0.876-2.913,1.587-2.913,1.587L131.299,101.427z"/>
	</g>
	<path fill="#EA5E5F" d="M150.601,133.621c0,0,0.277,0.21,0.762,0.576c0.122,0.091,0.258,0.191,0.403,0.301
		c0.146,0.112,0.317,0.197,0.49,0.307c0.174,0.104,0.358,0.214,0.553,0.331c0.097,0.058,0.19,0.121,0.299,0.173
		c0.109,0.051,0.22,0.103,0.334,0.155c0.224,0.105,0.46,0.216,0.703,0.329c0.119,0.061,0.246,0.106,0.379,0.148
		c0.129,0.042,0.264,0.086,0.398,0.129c0.133,0.045,0.267,0.089,0.403,0.137c0.134,0.049,0.273,0.095,0.419,0.122
		c0.285,0.063,0.578,0.126,0.874,0.192c0.146,0.042,0.299,0.056,0.452,0.07c0.154,0.015,0.308,0.033,0.461,0.048
		c0.153,0.02,0.309,0.036,0.462,0.054c0.157,0.014,0.315,0.008,0.474,0.014c0.315-0.003,0.629,0.024,0.946,0.001
		c0.316-0.028,0.633-0.052,0.951-0.081c0.315-0.036,0.629-0.108,0.939-0.173c0.152-0.036,0.308-0.06,0.458-0.105l0.447-0.147
		c0.297-0.103,0.594-0.175,0.877-0.295c0.283-0.115,0.564-0.213,0.848-0.301c0.278-0.087,0.545-0.205,0.818-0.284
		c0.273-0.085,0.545-0.158,0.802-0.26c0.255-0.094,0.516-0.171,0.765-0.256c0.252-0.076,0.48-0.185,0.716-0.26
		c0.236-0.08,0.463-0.158,0.676-0.232c0.213-0.083,0.415-0.165,0.611-0.234c0.391-0.14,0.748-0.253,1.03-0.371
		c0.287-0.108,0.526-0.188,0.692-0.24c0.168-0.05,0.261-0.073,0.261-0.073l0.183,0.208c0,0-0.04,0.084-0.125,0.24
		c-0.085,0.153-0.215,0.373-0.394,0.646c-0.092,0.132-0.188,0.291-0.308,0.446c-0.124,0.15-0.258,0.31-0.412,0.478
		c-0.146,0.173-0.314,0.345-0.488,0.53c-0.185,0.174-0.387,0.349-0.602,0.526c-0.214,0.178-0.438,0.368-0.685,0.54
		c-0.254,0.161-0.512,0.335-0.79,0.499c-0.14,0.08-0.274,0.172-0.422,0.247c-0.15,0.068-0.301,0.144-0.456,0.212
		c-0.31,0.134-0.626,0.278-0.962,0.382c-0.681,0.195-1.393,0.354-2.138,0.402c-0.183,0.02-0.368,0.039-0.553,0.058
		c-0.185,0.016-0.375,0.009-0.561,0.016c-0.375-0.004-0.745,0.039-1.121,0.02c-0.372-0.02-0.744-0.039-1.117-0.058
		c-0.369-0.026-0.735-0.103-1.095-0.153c-0.182-0.031-0.362-0.051-0.539-0.09c-0.176-0.048-0.35-0.096-0.522-0.142
		c-0.172-0.049-0.343-0.097-0.513-0.144c-0.169-0.047-0.338-0.093-0.497-0.165c-0.321-0.129-0.634-0.255-0.942-0.381
		c-0.155-0.057-0.302-0.132-0.444-0.212c-0.139-0.078-0.278-0.155-0.417-0.23c-0.137-0.075-0.272-0.151-0.404-0.225
		c-0.134-0.07-0.264-0.145-0.38-0.235c-0.238-0.17-0.467-0.334-0.687-0.492c-0.111-0.08-0.217-0.158-0.32-0.232
		c-0.103-0.078-0.195-0.172-0.288-0.254c-0.182-0.167-0.355-0.325-0.516-0.474c-0.157-0.151-0.319-0.282-0.439-0.42
		c-0.118-0.14-0.227-0.269-0.324-0.385c-0.394-0.462-0.618-0.728-0.618-0.728L150.601,133.621z"/>
	<circle fill="#502911" cx="141.091" cy="118.873" r="5.491"/>
	<circle fill="#502911" cx="179.031" cy="119.246" r="5.491"/>
	<g>
		<image overflow="visible" width="81" height="81" xlink:href="CFD43EA2.png"  transform="matrix(1 0 0 1 97 93)">
		</image>
	</g>
	<g>
		<image overflow="visible" width="82" height="81" xlink:href="CFD43EA3.png"  transform="matrix(1 0 0 1 144 93)">
		</image>
	</g>
	<path fill="#EEEEEE" d="M139.386,168.245l-9.681,51.069l11.84,6.541C141.545,225.854,149.073,190.761,139.386,168.245z"/>
	<path fill="#EEEEEE" d="M184.886,168.05l11.562,52.984l-11.648,4.82C184.799,225.854,175.199,190.566,184.886,168.05z"/>
	<polygon fill="#B4CDEC" points="153.446,163.771 160.793,169.838 162.414,172.677 164.199,169.838 170.487,163.771 
		172.822,164.849 172.542,176.515 162.563,184.233 151.646,177.77 150.534,164.849 	"/>
	<path fill="none" stroke="#F2F2F4" stroke-linecap="round" stroke-linejoin="round" stroke-miterlimit="10" d="M153.446,163.771
		l7.347,6.068c0,0-1.497,1.565-0.767,5.007l-8.555-5.007"/>
	<path fill="none" stroke="#F2F2F4" stroke-linecap="round" stroke-linejoin="round" stroke-miterlimit="10" d="M170.927,163.451
		l-6.767,6.387c0,0,1.497,1.565,0.767,5.007l8.556-5.007"/>
	<path fill="#EEEEEE" d="M151.339,163.83l10.338,19.152l4.462,79.996c0,0-17.25,1.38-29.026-3.627c0,0,11.958-68.591,2.272-91.107
		C139.386,168.245,146.801,163.83,151.339,163.83z"/>
	<path fill="#EEEEEE" d="M172.822,163.83l-11.144,19.152l0.442,79.019c0,0,17.15,3.15,28.927-1.856c0,0-15.848-69.578-6.161-92.094
		C184.886,168.05,177.36,163.83,172.822,163.83z"/>
	<path fill="#FFFFFF" d="M172.822,163.83c0,0,3.964-0.067,5.842,1.019l0.642,8.071l-6.703,1.083l2.298,4.825l-11.904,8.292
		l-1.319-4.137L172.822,163.83z"/>
	<path fill="#FFFFFF" d="M151.339,163.83c0,0-3.309-0.297-6.224,1.58l-0.927,7.718l4.688,1.718l-1.112,3.981
		c0,0,16.994,11.564,17.14,16.684c0,0-0.696-9.08-5.782-17.871C154.21,169.148,151.339,163.83,151.339,163.83z"/>
	<g>
		<path fill="#F2F2F4" d="M164.956,194.614c0,0,0.237,4.27,0.593,10.674c0.368,6.404,0.724,14.945,1.124,23.486
			c0.11,2.135,0.221,4.27,0.33,6.371c0.125,2.102,0.226,4.17,0.278,6.173c0.036,2.003,0.048,3.939,0.001,5.776
			c-0.026,1.837-0.078,3.574-0.15,5.179c-0.251,6.416-0.841,10.702-0.841,10.702l-0.3,0.006c0,0-0.757-4.26-1.258-10.661
			c-0.135-1.6-0.253-3.334-0.352-5.169c-0.118-1.834-0.182-3.77-0.224-5.772c-0.026-2.003-0.005-4.073,0.037-6.178
			c0.027-2.104,0.054-4.242,0.081-6.38c0.067-8.55,0.089-17.099,0.207-23.513c0.105-6.413,0.176-10.688,0.176-10.688
			L164.956,194.614z"/>
	</g>
	<polyline fill="none" stroke="#F2F2F4" stroke-width="3" stroke-miterlimit="10" points="142.959,187.926 144.332,194.617 
		141.545,225.854 	"/>
	<polyline fill="none" stroke="#F2F2F4" stroke-width="3" stroke-miterlimit="10" points="182.603,187.119 181.776,192.732 
		184.799,225.854 	"/>
	<path fill="none" stroke="#0A1835" stroke-width="4" stroke-linecap="round" stroke-linejoin="round" stroke-miterlimit="10" d="
		M151.01,189.901c0,0,0.021-8.927-0.6-18.185c-0.7-10.428,4.919-9.485,4.919-9.485"/>
	<path fill="none" stroke="#CCCCCC" stroke-width="3" stroke-miterlimit="10" d="M146.669,201.085c0,0-0.14,7.145,3.98,6.884"/>
	<path fill="none" stroke="#CCCCCC" stroke-width="3" stroke-miterlimit="10" d="M157.073,201.085c0,0,0.141,7.145-3.98,6.884"/>
	<path fill="#0A1835" d="M150.943,208.777h-0.469c-0.376,0-0.685-0.309-0.685-0.685l0,0c0-0.377,0.308-0.685,0.685-0.685h0.469
		c0.376,0,0.685,0.308,0.685,0.685l0,0C151.627,208.469,151.319,208.777,150.943,208.777z"/>
	<path fill="#0A1835" d="M152.998,208.777h-0.469c-0.376,0-0.685-0.309-0.685-0.685l0,0c0-0.377,0.308-0.685,0.685-0.685h0.469
		c0.376,0,0.685,0.308,0.685,0.685l0,0C153.682,208.469,153.374,208.777,152.998,208.777z"/>
	<path fill="none" stroke="#0A1835" stroke-width="4" stroke-linecap="round" stroke-linejoin="round" stroke-miterlimit="10" d="
		M146.738,201.971c0,0-1.33-12.391,4.733-12.063c6.063,0.327,5.594,12.063,5.594,12.063"/>
	<path fill="none" stroke="#0A1835" stroke-width="4" stroke-linecap="round" stroke-linejoin="round" stroke-miterlimit="10" d="
		M167.73,162.209c0,0,5.731-0.475,5.753,6.605c0.021,7.08-0.661,25.802-0.661,25.802"/>
	<circle fill="#CCCCCC" stroke="#0A1835" stroke-width="2" stroke-miterlimit="10" cx="172.821" cy="195.511" r="2.979"/>
	<path fill="#1B1B1C" d="M135.961,81.982c0,0-7.581-2.23-10.414,3.303c-2.833,5.533,1.803,32.546-6.537,32.965l-1.579,0.097
		c0,0-15.013-37.13,9.657-45.911C127.089,72.437,129.78,81.192,135.961,81.982z"/>
	<path fill="#1B1B1C" d="M198.172,118.705c0,0,2.536-28.26-9.764-35.677s-47.715,5.272-57.143-3.38s-9.428-44.032,17.295-42.526
		c26.723,1.506,21.957,9.41,30.174,13.173c8.216,3.764,22.519-7.009,31.928,5.34s0.376,35.546,3.764,42.014
		c3.388,6.468,20.325,4.961,22.583,24.91s-42.154,38.014-21.453,63.232c0,0-18.227,4.806-26.674,0
		c-8.447-4.807-14.409-8.65-15.509-15.429c-1.101-6.778-5.919-14.244-5.919-14.244S199.607,157.004,198.172,118.705z"/>
</g>
</svg>
