<?xml version="1.0" encoding="utf-8"?>
<!-- Generator: Adobe Illustrator 16.0.0, SVG Export Plug-In . SVG Version: 6.00 Build 0)  -->
<!DOCTYPE svg PUBLIC "-//W3C//DTD SVG 1.1//EN" "http://www.w3.org/Graphics/SVG/1.1/DTD/svg11.dtd">
<svg version="1.1" id="Layer_1" xmlns="http://www.w3.org/2000/svg" xmlns:xlink="http://www.w3.org/1999/xlink" x="0px" y="0px"
	 width="350px" height="350px" viewBox="0 0 350 350" enable-background="new 0 0 350 350" xml:space="preserve">
<g>
	<path fill="#205FAE" d="M196.671,210.102l-1.028,88.462l-16.862,0.006v-64.35c0-1.119-0.856-2.015-1.938-2.015
		c-1.013,0-1.872,0.896-1.872,2.015v64.35l-18.76-1.513l-2.632-86.955H196.671z"/>
	<polygon fill="#9E5246" points="169.847,156.884 148.867,159.243 153.402,189.244 197.679,190.08 202.094,159.243 181.185,156.884 
			"/>
	<path fill="#537FC0" d="M164.248,157.514l11.387,11.092l11.574-11.203l13.128,1.641l-1.727,57.53c0,0-11.832,4.119-22.445,4.118
		c-7.491,0-21.625-3.65-21.625-3.65c-1.202-19.267-2.405-38.533-3.607-57.8L164.248,157.514z"/>
	
		<line fill="none" stroke="#1B4E90" stroke-width="3" stroke-linecap="round" stroke-linejoin="round" stroke-miterlimit="10" x1="164.248" y1="158.445" x2="191.283" y2="184.56"/>
	
		<line fill="none" stroke="#1B4E90" stroke-width="3" stroke-linecap="round" stroke-linejoin="round" stroke-miterlimit="10" x1="162.2" y1="158.734" x2="190.991" y2="187.096"/>
	
		<line fill="none" stroke="#1B4E90" stroke-width="3" stroke-linecap="round" stroke-linejoin="round" stroke-miterlimit="10" x1="175.847" y1="169.454" x2="187.209" y2="158.335"/>
	
		<line fill="none" stroke="#1B4E90" stroke-width="3" stroke-linecap="round" stroke-linejoin="round" stroke-miterlimit="10" x1="175.529" y1="170.835" x2="187.433" y2="158.889"/>
	<path fill="#9E5246" d="M217.241,109.527c0.028,1.809-0.071,3.608-0.314,5.386c0,0-0.715,5.798-4.064,12.661
		c-1.965,4.034-4.838,8.432-9.008,12.24c-6.127,5.596-15.052,9.915-28.004,9.915c-14.91,0-24.711-4.292-31.148-9.849
		c-3.808-3.286-6.444-7.014-8.263-10.56c-3.82-7.445-4.053-14.074-4.053-14.074s-0.103-1.127-0.049-3.061
		c0.174-5.585,1.72-17.956,11.164-29.708c16.51-2.348,44.937-5.54,61.939-2.622C212.535,88.271,217.079,99.067,217.241,109.527z"/>
	<polygon fill="#9E5246" points="169.969,148.888 181.325,149.152 181.325,158.143 169.969,158.143 	"/>
	<g opacity="0.45">
		<g>
			<defs>
				<rect id="SVGID_33_" x="163.142" y="120.922" width="52.363" height="28.942"/>
			</defs>
			<clipPath id="SVGID_1_">
				<use xlink:href="#SVGID_33_"  overflow="visible"/>
			</clipPath>
			<g clip-path="url(#SVGID_1_)">
				<defs>
					<polygon id="SVGID_35_" points="163.142,149.692 215.123,149.692 215.505,120.922 163.142,121.412 					"/>
				</defs>
				<clipPath id="SVGID_2_">
					<use xlink:href="#SVGID_35_"  overflow="visible"/>
				</clipPath>
				<path clip-path="url(#SVGID_2_)" fill="#D69B64" d="M215.123,121.412c0,0-18.309,34.058-51.981,26.911
					C163.142,148.322,202.901,159.549,215.123,121.412"/>
			</g>
		</g>
	</g>
	<g>
		<g>
			<g>
				<defs>
					<rect id="SVGID_3_" x="169.969" y="149.308" width="11.356" height="3.206"/>
				</defs>
				<clipPath id="SVGID_4_">
					<use xlink:href="#SVGID_3_"  overflow="visible"/>
				</clipPath>
				<g clip-path="url(#SVGID_4_)">
					<defs>
						<rect id="SVGID_5_" x="169.969" y="149.308" width="11.356" height="3.206"/>
					</defs>
					<clipPath id="SVGID_6_">
						<use xlink:href="#SVGID_5_"  overflow="visible"/>
					</clipPath>
				</g>
			</g>
		</g>
		<g>
			<g>
				<defs>
					<rect id="SVGID_7_" x="169.969" y="149.308" width="11.356" height="3.206"/>
				</defs>
				<use xlink:href="#SVGID_7_"  overflow="visible" fill="#9E5246"/>
				<clipPath id="SVGID_8_">
					<use xlink:href="#SVGID_7_"  overflow="visible"/>
				</clipPath>
				<g clip-path="url(#SVGID_8_)">
					<defs>
						<rect id="SVGID_9_" x="169.969" y="149.308" width="11.356" height="3.206"/>
					</defs>
					<use xlink:href="#SVGID_9_"  overflow="visible" fill="#9E5246"/>
					<clipPath id="SVGID_10_">
						<use xlink:href="#SVGID_9_"  overflow="visible"/>
					</clipPath>
					<path clip-path="url(#SVGID_10_)" fill="#9E5246" d="M169.969,149.308c0,0,6.302,0.159,11.356,0.23v2.976
						c0,0-11.237-2.376-11.356-2.422V149.308z"/>
				</g>
			</g>
		</g>
		<g>
			<g>
				<defs>
					<rect id="SVGID_11_" x="169.969" y="149.308" width="11.356" height="3.206"/>
				</defs>
				<clipPath id="SVGID_12_">
					<use xlink:href="#SVGID_11_"  overflow="visible"/>
				</clipPath>
				<g clip-path="url(#SVGID_12_)">
					<defs>
						<rect id="SVGID_13_" x="169.969" y="149.308" width="11.356" height="3.206"/>
					</defs>
					<clipPath id="SVGID_14_">
						<use xlink:href="#SVGID_13_"  overflow="visible"/>
					</clipPath>
				</g>
			</g>
		</g>
	</g>
	<path fill="#9E5246" d="M133.165,111.566c0,0-5.978,0.723-4.209,5.263c1.77,4.543,1.842,5.719,3.022,5.794
		c1.177,0.074,2.733-0.318,2.733-0.318L133.165,111.566z"/>
	<path fill="#9E5246" d="M216.835,110.414c0,0,5.978,0.723,4.209,5.263c-1.77,4.542-1.842,5.72-3.021,5.794
		c-1.176,0.074-2.733-0.318-2.733-0.318L216.835,110.414z"/>
	<path fill="#9462A3" d="M152.512,162.436c-0.069-0.104-0.083-0.195-0.037-0.289C152.475,162.147,152.489,162.249,152.512,162.436z"
		/>
	<g>
		<path fill="#1B1B1C" d="M185.588,99.747c0,0,1.245-0.369,3.107-0.798c0.466-0.103,0.97-0.214,1.503-0.333
			c0.525-0.142,1.11-0.183,1.724-0.248c1.224-0.15,2.545-0.199,3.889-0.276c0.663-0.012,1.313-0.044,1.976-0.109
			c0.658-0.056,1.309-0.087,1.908,0.02c0.596,0.117,1.167,0.3,1.651,0.615c0.492,0.291,0.941,0.623,1.341,0.976
			c0.4,0.345,0.751,0.711,1.046,1.078c0.297,0.363,0.545,0.704,0.736,1.022c0.193,0.311,0.336,0.579,0.427,0.782
			c0.091,0.203,0.139,0.311,0.139,0.311l-0.201,0.67c0,0-0.101,0.068-0.288,0.194c-0.187,0.127-0.451,0.284-0.776,0.453
			c-0.327,0.176-0.71,0.345-1.136,0.51c-0.427,0.169-0.892,0.312-1.38,0.414c-0.491,0.109-1.005,0.178-1.531,0.19
			c-0.53,0.019-1.065,0.041-1.595-0.093c-1.053-0.238-2.079-1.102-3.197-1.503c-1.096-0.374-2.216-0.721-3.279-1.149
			c-0.53-0.209-1.05-0.399-1.584-0.545c-0.522-0.159-1.016-0.309-1.472-0.447c-1.822-0.571-3.034-1.034-3.034-1.034L185.588,99.747z
			"/>
	</g>
	<g>
		<path fill="#1B1B1C" d="M167.134,100.446c0,0-1.212,0.463-3.035,1.034c-0.456,0.139-0.95,0.289-1.472,0.447
			c-0.534,0.146-1.053,0.336-1.583,0.545c-1.064,0.429-2.184,0.775-3.28,1.149c-1.118,0.401-2.145,1.266-3.197,1.503
			c-0.529,0.133-1.064,0.111-1.595,0.093c-0.526-0.012-1.041-0.081-1.531-0.19c-0.489-0.102-0.954-0.245-1.381-0.414
			c-0.426-0.165-0.808-0.334-1.135-0.51c-0.325-0.168-0.59-0.325-0.777-0.453c-0.188-0.126-0.287-0.194-0.287-0.194l-0.202-0.67
			c0,0,0.048-0.108,0.139-0.311c0.091-0.203,0.234-0.472,0.427-0.782c0.191-0.318,0.439-0.659,0.736-1.022
			c0.295-0.367,0.646-0.733,1.046-1.078c0.399-0.353,0.848-0.685,1.341-0.976c0.484-0.315,1.055-0.499,1.651-0.615
			c0.6-0.107,1.25-0.076,1.908-0.02c0.663,0.064,1.313,0.097,1.976,0.108c1.344,0.077,2.665,0.126,3.889,0.276
			c0.613,0.065,1.198,0.106,1.723,0.248c0.533,0.118,1.038,0.229,1.503,0.333c1.863,0.429,3.107,0.798,3.107,0.798L167.134,100.446z
			"/>
	</g>
	<path fill="#1B1B1C" d="M219.091,111.076c0,0-1.459,0.83-1.848-0.593c-0.32-1.172-0.037-4.458-0.639-5.907
		c-3.463-8.343-9.407-23.928-14.636-24.19c-7.242-0.368-19.211,16.977-47.025,0.604c0,0-15.645,6.603-21.669,23.064
		c-0.414,1.128,0.206,6.289-0.11,7.512s-0.828,0.62-1.495,0.36c0,0-0.917-3.953-1.519-8.924c-1.58-13.084-2.833-36.93,8.951-37.549
		c16.255-0.856,12.157-21.903,35.444-18.909c23.287,2.996,17.947,13.632,30.389,8.07c0,0-0.062,0.376-0.177,0.958l-0.002,0.003
		c-0.366,1.825-1.268,5.642-2.457,5.981C202.808,61.459,226.938,58.5,219.091,111.076z"/>
	<g opacity="0.72">
		<image overflow="visible" width="85" height="86" xlink:href="329EFE8.png"  transform="matrix(1 0 0 1 155 88)">
		</image>
	</g>
	<g opacity="0.72">
		<image overflow="visible" width="86" height="86" xlink:href="329EFE9.png"  transform="matrix(1 0 0 1 109 88)">
		</image>
	</g>
	<path fill="#020202" d="M204.935,54.614c0,0-0.062,0.376-0.177,0.958l-0.002,0.003c-10.408,9.136-23.63-4.575-33.519-5.146
		c-9.886-0.57-13.309,15.023-28.238,17.305c-14.926,2.282-12.454,36.32-12.454,36.32l-0.394-1.053
		c-1.58-13.084-2.833-36.93,8.951-37.549c16.255-0.856,12.157-21.903,35.444-18.909C197.833,49.54,192.493,60.176,204.935,54.614z"
		/>
	<path fill="#020202" d="M218.33,104.054l-1.194,0.521c-3.464-8.343-9.938-23.928-15.167-24.19
		c-7.242-0.368-19.211,16.977-47.025,0.604c0,0-15.645,6.603-21.669,23.064h-0.742c0,0,9.23-25.25,21.59-25.363
		c0,0,13.691,8.061,25.101,6.158c11.409-1.903,17.494-7.755,23.198-6.158C208.127,80.285,219.419,98.583,218.33,104.054z"/>
	<circle fill="#1B1B1C" cx="159.281" cy="115.837" r="4.294"/>
	<circle fill="#1B1B1C" cx="188.953" cy="116.129" r="4.294"/>
	<path fill="#440A0E" d="M167.369,135.169c0,0,0.206,0.155,0.565,0.426c0.09,0.067,0.19,0.142,0.299,0.224
		c0.108,0.083,0.235,0.146,0.362,0.228c0.129,0.077,0.266,0.158,0.41,0.243c0.073,0.043,0.141,0.092,0.222,0.129
		c0.081,0.039,0.164,0.077,0.247,0.115c0.167,0.079,0.341,0.16,0.521,0.244c0.088,0.045,0.183,0.079,0.281,0.109
		c0.096,0.032,0.196,0.064,0.295,0.096c0.098,0.034,0.198,0.066,0.299,0.102c0.1,0.037,0.202,0.07,0.311,0.089
		c0.211,0.047,0.428,0.095,0.647,0.144c0.108,0.029,0.222,0.042,0.334,0.051c0.114,0.011,0.229,0.025,0.342,0.036
		c0.113,0.013,0.228,0.027,0.342,0.04c0.116,0.009,0.234,0.005,0.351,0.009c0.233-0.001,0.467,0.02,0.701,0.001
		c0.234-0.02,0.469-0.038,0.705-0.059c0.233-0.027,0.465-0.081,0.695-0.128c0.112-0.027,0.229-0.044,0.339-0.077l0.333-0.109
		c0.22-0.077,0.439-0.13,0.649-0.218c0.21-0.086,0.419-0.158,0.628-0.224c0.207-0.065,0.404-0.151,0.606-0.211
		c0.203-0.062,0.403-0.117,0.594-0.192c0.189-0.069,0.383-0.126,0.567-0.189c0.186-0.057,0.355-0.136,0.531-0.192
		c0.174-0.059,0.342-0.117,0.5-0.173c0.157-0.061,0.307-0.122,0.452-0.173c0.289-0.104,0.554-0.186,0.763-0.274
		c0.213-0.082,0.391-0.141,0.514-0.178c0.124-0.036,0.193-0.054,0.193-0.054l0.136,0.154c0,0-0.031,0.062-0.094,0.177
		c-0.062,0.114-0.158,0.277-0.291,0.479c-0.068,0.097-0.139,0.214-0.228,0.33c-0.092,0.11-0.191,0.229-0.306,0.354
		c-0.108,0.128-0.232,0.255-0.361,0.393c-0.137,0.128-0.286,0.258-0.446,0.389c-0.158,0.132-0.324,0.273-0.508,0.4
		c-0.188,0.119-0.378,0.249-0.585,0.369c-0.104,0.059-0.202,0.128-0.313,0.183c-0.111,0.052-0.223,0.106-0.337,0.158
		c-0.229,0.099-0.464,0.206-0.713,0.282c-0.506,0.146-1.033,0.264-1.585,0.299c-0.135,0.016-0.272,0.029-0.41,0.043
		c-0.136,0.011-0.278,0.007-0.415,0.011c-0.277-0.003-0.552,0.029-0.831,0.015c-0.275-0.015-0.552-0.027-0.828-0.043
		c-0.273-0.019-0.545-0.077-0.812-0.113c-0.135-0.022-0.269-0.038-0.4-0.066c-0.13-0.035-0.258-0.071-0.386-0.105
		c-0.128-0.037-0.255-0.072-0.38-0.107c-0.125-0.035-0.251-0.069-0.368-0.12c-0.238-0.098-0.47-0.191-0.699-0.284
		c-0.115-0.042-0.223-0.098-0.329-0.158c-0.104-0.057-0.207-0.114-0.309-0.17c-0.102-0.057-0.202-0.112-0.3-0.167
		c-0.1-0.052-0.195-0.107-0.282-0.174c-0.176-0.126-0.346-0.248-0.508-0.365c-0.082-0.058-0.161-0.117-0.238-0.172
		c-0.076-0.058-0.144-0.126-0.212-0.187c-0.135-0.125-0.263-0.243-0.382-0.354c-0.117-0.111-0.237-0.207-0.326-0.311
		c-0.087-0.104-0.167-0.199-0.24-0.284c-0.292-0.343-0.458-0.541-0.458-0.541L167.369,135.169z"/>
	<path fill="#1B1B1C" d="M218.33,109.157c0,0-9.61,31.034-24.462,30.203c-13.806-0.772-0.737-7.868-20.738-8.558v-0.019
		c-0.147,0-0.29,0.003-0.433,0.006c-0.048-0.003-0.093-0.003-0.141-0.006v0.006c-11.669,0.245-3.855,7.654-17.555,8.752
		c-13.915,1.12-21.744-29.129-21.744-29.129l-0.936,1.13c-0.651,28.917,22.666,39.367,36.915,39.208l3.607,0.027
		c14.366,0.081,43.761-1.892,45.81-40.366L218.33,109.157z M174.839,147.008c-4.853,0-8.786-3.052-8.786-6.817
		c0-3.766,3.933-6.817,8.786-6.817c4.852,0,8.787,3.051,8.787,6.817C183.626,143.956,179.69,147.008,174.839,147.008z"/>
	<path fill="#9462A3" d="M152.956,163.021c-0.069-0.102-0.083-0.192-0.038-0.283C152.918,162.738,152.933,162.837,152.956,163.021z"
		/>
	<path fill="#025798" d="M175.101,298.01l-19.035-8.323c0,0-3.474,9.748-9.209,9.395c-5.725-0.357-2.125,4.188-1.128,4.587
		c0.987,0.401,29.373-0.847,29.373-0.847V298.01z"/>
	<path fill="#025798" d="M178.78,298.01l17.162-7.972c0,0,4.026,9.396,9.426,9.043c5.39-0.357,1.999,4.188,1.062,4.587
		c-0.93,0.401-27.649-0.847-27.649-0.847V298.01z"/>
	<path fill="#9E5246" d="M144.162,224.875l-3.073,10.518c0,0,3.701,5.807,10.735,2.893l-0.762-11.475L144.162,224.875z"/>
	<path fill="#EEEEEE" d="M148.867,159.243l-9.356,65.632l12.877,6.349C152.388,231.224,156.263,173.62,148.867,159.243z"/>
	<path fill="#9E5246" d="M207.135,221.211l3.072,10.519c0,0-3.699,5.807-10.733,2.891l0.761-11.474L207.135,221.211z"/>
	<path fill="#EEEEEE" d="M202.094,159.243l9.356,65.632l-12.878,6.349C198.572,231.224,194.697,173.62,202.094,159.243z"/>
	<path fill="#EEEEEE" d="M163.464,157.232v100.073c0,0-8.419,2.487-14.598-2.969c0,0,8.145-75.755,0-95.093L163.464,157.232z"/>
	<path fill="#EEEEEE" d="M187.496,157.232v100.073c0,0,8.42,2.487,14.598-2.969c0,0-8.145-75.755,0-95.093L187.496,157.232z"/>
	
		<polyline fill="none" stroke="#F2F2F4" stroke-width="3" stroke-linecap="round" stroke-linejoin="round" stroke-miterlimit="10" points="
		150.932,230.505 152.658,185.687 151.795,181.052 	"/>
	
		<polyline fill="none" stroke="#F2F2F4" stroke-width="3" stroke-linecap="round" stroke-linejoin="round" stroke-miterlimit="10" points="
		200.336,229.944 198.61,185.125 199.474,180.49 	"/>
	<path fill="#D0D0D8" d="M189.862,179.228h8.342c0,0,3.548,11.889-4.171,11.608C186.313,190.555,189.862,179.228,189.862,179.228z"
		/>
	<path fill="#D47476" d="M195.136,182.877L195.136,182.877c-0.606,0-1.103-0.495-1.103-1.102v-3.038
		c0-0.605,0.496-1.103,1.103-1.103l0,0c0.605,0,1.103,0.497,1.103,1.103v3.038C196.238,182.382,195.741,182.877,195.136,182.877z"/>
	<path fill="#FFFFFF" d="M163.82,157.17c0,0-3.547-0.667-5.482,1.549l0.718,18.167l2.813,1.897l-2.116,3.467l3.681,27.864
		L163.82,157.17z"/>
	<path fill="#FFFFFF" d="M187.122,157.17c0,0,3.546-0.667,5.48,1.549l-0.717,18.167l-2.813,1.897l2.114,3.467l-3.68,27.864
		L187.122,157.17z"/>
</g>
</svg>
