<?xml version="1.0" encoding="utf-8"?>
<!-- Generator: Adobe Illustrator 16.0.0, SVG Export Plug-In . SVG Version: 6.00 Build 0)  -->
<!DOCTYPE svg PUBLIC "-//W3C//DTD SVG 1.1//EN" "http://www.w3.org/Graphics/SVG/1.1/DTD/svg11.dtd">
<svg version="1.1" id="Layer_1" xmlns="http://www.w3.org/2000/svg" xmlns:xlink="http://www.w3.org/1999/xlink" x="0px" y="0px"
	 width="350px" height="350px" viewBox="0 0 350 350" enable-background="new 0 0 350 350" xml:space="preserve">
<g>
	<path fill="#502911" d="M180.614,44.119c-14.778-0.942-42.037,1.89-51.146,18.303s-6.596,42.645-1.57,55.44
		c5.025,12.796-10.298,19.907-4.521,34.411c5.777,14.504,38.231,27.273,55.611,27.327L180.614,44.119z"/>
	<path fill="#502911" d="M169.385,44.085c14.778-0.942,42.038,1.89,51.146,18.303s6.596,42.645,1.57,55.44
		c-5.025,12.796,10.298,19.907,4.521,34.411c-5.777,14.504-38.23,27.274-55.61,27.328L169.385,44.085z"/>
	<path fill="#F2F2F4" d="M166.48,154.189c0,0,11.774-4.01,23.032,0l-0.664,1.023h-21.56L166.48,154.189z"/>
	<polygon fill="#205FAE" points="158.356,223.565 172.945,303.97 180.875,303.97 196.585,223.565 	"/>
	<g>
		<image overflow="visible" width="79" height="79" xlink:href="29D83362.png"  transform="matrix(1 0 0 1 113 84)">
		</image>
	</g>
	<g>
		<image overflow="visible" width="79" height="79" xlink:href="29D83366.png"  transform="matrix(1 0 0 1 159 84)">
		</image>
	</g>
	<polygon fill="#F5AF98" points="171.843,146.017 183.461,146.252 183.461,154.189 171.843,154.189 	"/>
	<path fill="#F5AF98" d="M215.574,220.581c-8.002-1.57-20.306-32.42-21.187-39.593c-0.137-1.098-0.208-1.738-0.208-1.738
		l-32.271-0.262c0,0-0.01,0.258-0.032,0.729c-0.204,4.653-12.165,40.565-18.741,39.156c-7.058-1.511,7-7.122,9.397-40.088
		c0.783-10.77,2.76-20.165,2.76-20.165l16.431-4.828l11.721-0.015l17.101,4.538c0,0,2.423,10.286,3.21,21.612
		C204.739,194.124,221.392,216.97,215.574,220.581L215.574,220.581z"/>
	<g opacity="0.46">
		<g>
			<g>
				<defs>
					<rect id="SVGID_1_" x="171.843" y="146.448" width="11.618" height="3.278"/>
				</defs>
				<clipPath id="SVGID_2_">
					<use xlink:href="#SVGID_1_"  overflow="visible"/>
				</clipPath>
				<g clip-path="url(#SVGID_2_)">
					<defs>
						<rect id="SVGID_3_" x="171.843" y="146.448" width="11.618" height="3.278"/>
					</defs>
					<clipPath id="SVGID_4_">
						<use xlink:href="#SVGID_3_"  overflow="visible"/>
					</clipPath>
				</g>
			</g>
		</g>
		<g>
			<g>
				<defs>
					<rect id="SVGID_5_" x="171.843" y="146.448" width="11.618" height="3.278"/>
				</defs>
				<use xlink:href="#SVGID_5_"  overflow="visible" fill="#EF8066"/>
				<clipPath id="SVGID_6_">
					<use xlink:href="#SVGID_5_"  overflow="visible"/>
				</clipPath>
				<g clip-path="url(#SVGID_6_)">
					<defs>
						<rect id="SVGID_7_" x="171.843" y="146.448" width="11.618" height="3.278"/>
					</defs>
					<use xlink:href="#SVGID_7_"  overflow="visible" fill="#EF8066"/>
					<clipPath id="SVGID_8_">
						<use xlink:href="#SVGID_7_"  overflow="visible"/>
					</clipPath>
					<path clip-path="url(#SVGID_8_)" fill="#EF8066" d="M171.843,146.448c0,0,6.447,0.162,11.618,0.235v3.042
						c0,0-11.494-2.429-11.618-2.477V146.448z"/>
				</g>
			</g>
		</g>
		<g>
			<g>
				<defs>
					<rect id="SVGID_9_" x="171.843" y="146.448" width="11.618" height="3.278"/>
				</defs>
				<clipPath id="SVGID_10_">
					<use xlink:href="#SVGID_9_"  overflow="visible"/>
				</clipPath>
				<g clip-path="url(#SVGID_10_)">
					<defs>
						<rect id="SVGID_11_" x="171.843" y="146.448" width="11.618" height="3.278"/>
					</defs>
					<clipPath id="SVGID_12_">
						<use xlink:href="#SVGID_11_"  overflow="visible"/>
					</clipPath>
				</g>
			</g>
		</g>
	</g>
	<path fill="#EB6D54" d="M180.619,159.157c0,0,0.072-0.114,0.223-0.292c0.153-0.175,0.386-0.419,0.713-0.66
		c0.161-0.122,0.351-0.236,0.559-0.346c0.212-0.098,0.442-0.19,0.696-0.246c0.123-0.03,0.254-0.058,0.386-0.069
		c0.134-0.02,0.269-0.023,0.405-0.021c0.267-0.001,0.525,0.009,0.793,0.012c0.528,0.012,1.059,0.009,1.553,0.028
		c0.495,0.025,0.956,0.08,1.349,0.118c0.787,0.082,1.313,0.196,1.313,0.196c0.013,0.005,0.021,0.016,0.018,0.027
		c-0.001,0.01-0.009,0.018-0.019,0.02c0,0-0.531,0.084-1.33,0.118c-0.399,0.021-0.862,0.013-1.356-0.009
		c-0.495-0.033-1.021-0.092-1.549-0.136c-0.261-0.023-0.53-0.05-0.783-0.064c-0.124-0.009-0.246-0.016-0.367-0.003
		c-0.122,0-0.241,0.017-0.359,0.038c-0.235,0.035-0.455,0.11-0.661,0.186c-0.204,0.086-0.395,0.179-0.558,0.281
		c-0.332,0.204-0.582,0.421-0.743,0.581c-0.165,0.162-0.244,0.267-0.244,0.267c-0.007,0.009-0.022,0.011-0.031,0.004
		C180.613,159.181,180.612,159.167,180.619,159.157L180.619,159.157z"/>
	<g opacity="0.46">
		<g>
			<defs>
				<rect id="SVGID_13_" x="180.902" y="157.773" width="5.673" height="1.084"/>
			</defs>
			<clipPath id="SVGID_14_">
				<use xlink:href="#SVGID_13_"  overflow="visible"/>
			</clipPath>
			<g clip-path="url(#SVGID_14_)">
				<defs>
					<rect id="SVGID_15_" x="180.902" y="157.773" width="5.67" height="1.084"/>
				</defs>
				<clipPath id="SVGID_16_">
					<use xlink:href="#SVGID_15_"  overflow="visible"/>
				</clipPath>
				<path clip-path="url(#SVGID_16_)" fill="#DCA15F" d="M180.907,158.819c0,0,0.232-0.299,0.71-0.604
					c0.12-0.075,0.257-0.151,0.407-0.218c0.151-0.061,0.316-0.122,0.497-0.153c0.177-0.042,0.368-0.055,0.563-0.055h0.545
					c0.182,0,0.366,0,0.548-0.003c0.181-0.01,0.357-0.014,0.525-0.014c0.342,0.008,0.66,0.037,0.936,0.062
					c0.549,0.058,0.918,0.148,0.918,0.148c0.013,0.004,0.021,0.017,0.019,0.029c-0.004,0.01-0.009,0.016-0.019,0.018
					c0,0-0.364,0.104-0.917,0.164c-0.275,0.032-0.601,0.052-0.948,0.048c-0.174-0.003-0.354-0.01-0.536-0.024
					c-0.179-0.02-0.361-0.038-0.545-0.056c-0.186-0.018-0.369-0.035-0.552-0.052c-0.166-0.016-0.332-0.023-0.495-0.001
					c-0.162,0.014-0.316,0.055-0.463,0.097c-0.146,0.042-0.28,0.096-0.401,0.154c-0.243,0.115-0.432,0.242-0.562,0.333
					c-0.13,0.094-0.196,0.157-0.196,0.157c-0.009,0.006-0.023,0.006-0.031-0.002S180.901,158.826,180.907,158.819"/>
			</g>
		</g>
	</g>
	<path fill="#EB6D54" d="M175.257,159.185c0,0-0.079-0.104-0.242-0.269c-0.163-0.158-0.411-0.375-0.744-0.579
		c-0.165-0.103-0.354-0.195-0.557-0.281c-0.207-0.075-0.428-0.15-0.662-0.186c-0.118-0.021-0.238-0.038-0.359-0.038
		c-0.122-0.013-0.243-0.006-0.368,0.003c-0.253,0.014-0.522,0.041-0.784,0.063c-0.526,0.044-1.051,0.104-1.546,0.137
		c-0.496,0.022-0.958,0.029-1.358,0.009c-0.798-0.034-1.329-0.118-1.329-0.118c-0.012-0.002-0.022-0.014-0.019-0.026
		c0-0.01,0.009-0.017,0.017-0.021c0,0,0.527-0.114,1.313-0.196c0.392-0.038,0.853-0.093,1.348-0.118
		c0.496-0.02,1.023-0.017,1.553-0.028c0.266-0.003,0.526-0.013,0.793-0.012c0.137-0.001,0.271,0.001,0.403,0.021
		c0.134,0.012,0.263,0.039,0.389,0.069c0.251,0.056,0.483,0.147,0.695,0.249c0.209,0.106,0.396,0.221,0.56,0.343
		c0.324,0.24,0.559,0.484,0.71,0.66c0.15,0.177,0.224,0.292,0.224,0.292c0.006,0.01,0.003,0.023-0.007,0.032
		C175.279,159.195,175.266,159.193,175.257,159.185L175.257,159.185z"/>
	<g opacity="0.46">
		<g>
			<defs>
				<rect id="SVGID_17_" x="169.403" y="157.773" width="5.697" height="1.178"/>
			</defs>
			<clipPath id="SVGID_18_">
				<use xlink:href="#SVGID_17_"  overflow="visible"/>
			</clipPath>
			<g clip-path="url(#SVGID_18_)">
				<defs>
					<rect id="SVGID_19_" x="169.403" y="157.773" width="5.697" height="1.178"/>
				</defs>
				<clipPath id="SVGID_20_">
					<use xlink:href="#SVGID_19_"  overflow="visible"/>
				</clipPath>
				<path clip-path="url(#SVGID_20_)" fill="#DCA15F" d="M175.061,158.943c0,0-0.064-0.063-0.19-0.165
					c-0.129-0.099-0.313-0.236-0.554-0.364c-0.121-0.065-0.254-0.124-0.398-0.177c-0.147-0.048-0.301-0.096-0.463-0.117
					c-0.162-0.028-0.333-0.028-0.5-0.012c-0.18,0.015-0.368,0.033-0.551,0.049c-0.187,0.019-0.372,0.039-0.553,0.058
					c-0.184,0.016-0.365,0.022-0.542,0.027c-0.352,0.006-0.681-0.015-0.959-0.048c-0.557-0.056-0.927-0.164-0.927-0.164
					c-0.015-0.004-0.021-0.017-0.019-0.028c0.004-0.009,0.009-0.016,0.019-0.016c0,0,0.373-0.093,0.927-0.151
					c0.282-0.026,0.602-0.056,0.946-0.062c0.344,0.003,0.716,0.024,1.088,0.02h0.555c0.197,0,0.391,0.02,0.568,0.066
					c0.361,0.086,0.661,0.253,0.896,0.416c0.233,0.164,0.408,0.326,0.521,0.444c0.114,0.12,0.171,0.194,0.171,0.194
					c0.008,0.012,0.006,0.023-0.001,0.033C175.083,158.954,175.068,158.952,175.061,158.943"/>
			</g>
		</g>
	</g>
	<path fill="#F5AF98" d="M214.317,112.286c0,0,2.045,13.063-5.968,23.117c-6.836,8.579-22.453,11.543-30.766,11.344
		c-6.615-0.158-12.218-1.054-16.959-2.48c-6.489-1.946-11.378-4.872-15.054-8.244c-12.587-11.535-11.003-28.211-11.003-28.211
		s-8.593-44.21,33.765-45.353C227.522,60.868,214.317,112.286,214.317,112.286z"/>
	<path fill="#F5AF98" d="M135.01,108.776c0,0-3.997-0.744-3.806,4.116c0.191,4.86,2.223,8.005,5.301,8.281L135.01,108.776z"/>
	<path fill="#F5AF98" d="M214.459,108.858c0,0,3.906-1.526,4.098,3.333c0.191,4.861-1.586,8.155-4.634,8.673L214.459,108.858z"/>
	<g>
		<path fill="#502911" d="M202.742,92.588c0,0-1.12-0.751-2.869-1.689c-0.442-0.224-0.921-0.464-1.432-0.697
			c-0.523-0.213-1.041-0.489-1.613-0.69c-0.558-0.231-1.145-0.43-1.734-0.621c-0.582-0.221-1.196-0.338-1.791-0.496
			c-0.601-0.134-1.213-0.168-1.797-0.215c-0.588,0.042-1.15-0.013-1.673-0.008c-0.262-0.001-0.518-0.015-0.77-0.05
			c-0.255-0.046-0.501-0.075-0.738-0.076c-0.239-0.007-0.478-0.042-0.712-0.063c-0.237-0.043-0.468-0.068-0.685-0.061
			c-0.439-0.004-0.868-0.039-1.274-0.088c-0.392-0.011-0.739,0.014-1.052-0.005c-0.617-0.017-1.04-0.073-1.04-0.073l-0.203-0.345
			c0,0,0.181-0.347,0.618-0.874c0.22-0.261,0.498-0.586,0.862-0.896c0.378-0.276,0.834-0.565,1.36-0.848
			c0.521-0.311,1.142-0.431,1.802-0.618c0.167-0.04,0.336-0.08,0.507-0.121c0.17-0.012,0.344-0.032,0.52-0.037
			c0.352-0.02,0.713-0.019,1.079-0.004c0.732,0.032,1.443,0.293,2.161,0.498c0.689,0.286,1.388,0.55,2.053,0.851
			c0.655,0.321,1.324,0.605,1.921,0.979c0.304,0.178,0.607,0.348,0.897,0.531c0.279,0.197,0.556,0.392,0.826,0.583
			c1.086,0.754,1.991,1.579,2.744,2.292c1.499,1.433,2.308,2.553,2.308,2.553L202.742,92.588z"/>
	</g>
	<g>
		<path fill="#502911" d="M147.176,91.56c0,0,0.845-1.093,2.39-2.476c0.775-0.688,1.708-1.482,2.817-2.201
			c0.278-0.183,0.56-0.368,0.845-0.555c0.296-0.174,0.605-0.334,0.915-0.502c0.609-0.354,1.286-0.617,1.952-0.916
			c0.675-0.278,1.382-0.52,2.079-0.783c0.725-0.181,1.443-0.419,2.177-0.427c0.366-0.002,0.728,0.008,1.079,0.04
			c0.176,0.011,0.348,0.037,0.518,0.054c0.17,0.046,0.337,0.092,0.502,0.137c0.653,0.208,1.271,0.348,1.781,0.676
			c0.517,0.3,0.963,0.604,1.332,0.892c0.354,0.322,0.622,0.656,0.833,0.924c0.42,0.541,0.59,0.893,0.59,0.893l-0.215,0.338
			c0,0-0.424,0.042-1.042,0.039c-0.313,0.008-0.66-0.027-1.052-0.029c-0.407,0.036-0.837,0.056-1.276,0.046
			c-0.217-0.014-0.448,0.003-0.687,0.039c-0.234,0.015-0.474,0.041-0.713,0.041c-0.238-0.007-0.484,0.014-0.74,0.051
			c-0.253,0.027-0.509,0.032-0.771,0.025c-0.522-0.022-1.085,0.014-1.672-0.047c-0.585,0.028-1.199,0.042-1.803,0.157
			c-0.6,0.139-1.217,0.235-1.807,0.438c-0.596,0.171-1.189,0.35-1.754,0.563c-0.579,0.182-1.105,0.441-1.634,0.637
			c-0.519,0.216-1.005,0.44-1.454,0.65c-1.779,0.88-2.922,1.594-2.922,1.594L147.176,91.56z"/>
	</g>
	<path fill="#EA5E5F" d="M166.548,123.87c0,0,0.278,0.211,0.765,0.578c0.122,0.092,0.259,0.192,0.405,0.303
		c0.146,0.113,0.318,0.198,0.492,0.308c0.175,0.104,0.36,0.215,0.555,0.332c0.098,0.058,0.191,0.122,0.3,0.174
		c0.109,0.051,0.22,0.103,0.334,0.155c0.226,0.106,0.462,0.217,0.706,0.331c0.12,0.06,0.247,0.106,0.38,0.148
		c0.13,0.042,0.265,0.086,0.4,0.129c0.133,0.046,0.268,0.09,0.404,0.138c0.135,0.049,0.274,0.095,0.421,0.122
		c0.285,0.063,0.58,0.127,0.876,0.193c0.146,0.042,0.301,0.056,0.454,0.071c0.154,0.015,0.309,0.032,0.463,0.048
		c0.153,0.02,0.31,0.036,0.463,0.054c0.157,0.013,0.316,0.007,0.476,0.013c0.316-0.003,0.631,0.024,0.95,0.001
		c0.316-0.028,0.634-0.053,0.954-0.081c0.316-0.036,0.631-0.108,0.942-0.174c0.152-0.036,0.31-0.06,0.46-0.105l0.449-0.147
		c0.298-0.103,0.596-0.176,0.88-0.296c0.284-0.115,0.566-0.214,0.851-0.302c0.279-0.088,0.548-0.205,0.821-0.285
		c0.275-0.086,0.547-0.159,0.805-0.261c0.257-0.094,0.518-0.172,0.768-0.257c0.253-0.076,0.481-0.185,0.719-0.261
		c0.237-0.08,0.464-0.159,0.679-0.233c0.213-0.083,0.416-0.166,0.612-0.235c0.393-0.141,0.751-0.254,1.034-0.372
		c0.289-0.109,0.528-0.19,0.695-0.242c0.168-0.05,0.262-0.074,0.262-0.074l0.184,0.209c0,0-0.041,0.085-0.126,0.241
		c-0.085,0.154-0.215,0.374-0.396,0.647c-0.092,0.133-0.188,0.292-0.309,0.448c-0.124,0.151-0.259,0.312-0.413,0.479
		c-0.147,0.173-0.316,0.347-0.489,0.532c-0.186,0.175-0.389,0.351-0.604,0.527c-0.216,0.179-0.44,0.37-0.688,0.542
		c-0.255,0.162-0.513,0.336-0.793,0.501c-0.14,0.08-0.275,0.173-0.423,0.248c-0.151,0.068-0.302,0.145-0.458,0.213
		c-0.311,0.134-0.628,0.279-0.965,0.384c-0.684,0.196-1.398,0.355-2.146,0.404c-0.183,0.02-0.369,0.04-0.555,0.058
		c-0.186,0.016-0.378,0.009-0.563,0.016c-0.376-0.004-0.747,0.039-1.125,0.02c-0.373-0.02-0.747-0.039-1.12-0.058
		c-0.371-0.026-0.738-0.104-1.1-0.153c-0.183-0.031-0.363-0.051-0.541-0.091c-0.177-0.048-0.351-0.096-0.524-0.143
		c-0.173-0.049-0.344-0.097-0.514-0.145s-0.34-0.093-0.5-0.165c-0.321-0.13-0.636-0.256-0.945-0.382
		c-0.156-0.058-0.303-0.133-0.446-0.213c-0.14-0.078-0.28-0.155-0.418-0.231c-0.137-0.075-0.273-0.151-0.406-0.226
		c-0.135-0.07-0.265-0.146-0.382-0.236c-0.239-0.171-0.468-0.335-0.689-0.494c-0.111-0.08-0.218-0.158-0.322-0.233
		c-0.103-0.078-0.195-0.173-0.288-0.254c-0.183-0.167-0.356-0.326-0.518-0.476c-0.158-0.151-0.321-0.283-0.441-0.421
		c-0.118-0.14-0.227-0.27-0.325-0.387c-0.396-0.464-0.62-0.73-0.62-0.73L166.548,123.87z"/>
	<circle fill="#502911" cx="157.003" cy="109.068" r="5.51"/>
	<circle fill="#502911" cx="195.08" cy="109.443" r="5.511"/>
	<g>
		<image overflow="visible" width="82" height="82" xlink:href="29D83361.png"  transform="matrix(1 0 0 1 112 83)">
		</image>
	</g>
	<g>
		<image overflow="visible" width="82" height="82" xlink:href="29D83363.png"  transform="matrix(1 0 0 1 160 83)">
		</image>
	</g>
	<path fill="#EEEEEE" d="M155.292,158.62l-9.75,34.378l9.75,7.584C155.292,200.582,165.014,181.219,155.292,158.62z"/>
	<path fill="#EEEEEE" d="M200.956,158.425l9.64,34.573l-9.75,7.584C200.846,200.582,191.234,181.022,200.956,158.425z"/>
	<polygon fill="#537FC0" points="163.903,154.759 178.597,168.824 193.291,155.093 194.95,223.565 162.514,223.565 	"/>
	<path fill="#EEEEEE" d="M167.289,154.189l2.115,96.178c0,0-10.275,2.931-22.094-2.094c0,0,17.705-67.055,7.983-89.653
		C155.292,158.62,162.734,154.189,167.289,154.189z"/>
	<path fill="#EEEEEE" d="M188.849,154.189l-2.114,96.178c0,0,10.275,2.931,22.094-2.094c0,0-17.594-67.251-7.872-89.849
		C200.956,158.425,193.403,154.189,188.849,154.189z"/>
	<g>
		<path fill="#1B4E90" d="M178.271,223.568c0,0,0.299,1.262,0.592,3.466c0.146,1.102,0.309,2.439,0.421,3.973
			c0.131,1.534,0.232,3.264,0.285,5.149c0.04,1.886,0.088,3.928-0.041,6.086c-0.118,2.158-0.473,4.43-0.803,6.781
			c-0.328,2.351-0.583,4.781-0.57,7.255c-0.039,2.474,0.122,4.989,0.364,7.507c0.229,2.517,0.494,5.034,0.553,7.51
			c0.083,2.475,0.156,4.911,0.193,7.268c0.055,2.357,0.018,4.635-0.086,6.793c-0.098,2.158-0.269,4.197-0.415,6.08
			c-0.184,1.882-0.351,3.606-0.556,5.135c-0.185,1.529-0.392,2.86-0.571,3.957c-0.356,2.193-0.659,3.445-0.659,3.445l-0.4-0.006
			c0,0-0.263-1.261-0.548-3.465c-0.145-1.102-0.309-2.439-0.444-3.974c-0.155-1.534-0.267-3.264-0.39-5.15
			c-0.086-1.887-0.191-3.93-0.22-6.091c-0.034-2.16,0.002-4.438,0.132-6.791c0.113-2.354,0.264-4.787,0.427-7.258
			c0.139-2.473,0.485-4.98,0.794-7.488c0.323-2.508,0.564-5.018,0.605-7.491c0.092-2.473-0.085-4.91-0.337-7.271
			c-0.254-2.359-0.535-4.642-0.584-6.803c-0.06-2.161,0.054-4.201,0.154-6.084c0.114-1.884,0.271-3.608,0.451-5.138
			c0.161-1.528,0.366-2.86,0.549-3.957c0.363-2.193,0.702-3.444,0.702-3.444L178.271,223.568z"/>
	</g>
	<line fill="none" stroke="#1B4E90" stroke-width="3" stroke-miterlimit="10" x1="166.66" y1="157.299" x2="188.648" y2="178.537"/>
	
		<line fill="none" stroke="#1B4E90" stroke-width="3" stroke-miterlimit="10" x1="167.095" y1="160.356" x2="188.648" y2="181.557"/>
	<path fill="#FFFFFF" d="M167.289,154.819c0,0-3.984-0.521-6.084,1.519l1.31,16.348l3.198,1.645l-2.268,3.17l4.893,25.019
		L167.289,154.819z"/>
	
		<line fill="none" stroke="#1B4E90" stroke-width="3" stroke-miterlimit="10" x1="178.597" y1="168.824" x2="190.422" y2="157.773"/>
	
		<line fill="none" stroke="#1B4E90" stroke-width="3" stroke-miterlimit="10" x1="180.261" y1="170.435" x2="189.748" y2="161.612"/>
	<path fill="#FFFFFF" d="M188.849,154.189c0,0,4.168-0.521,6.268,1.519l-1.31,16.348l-3.198,1.645l2.269,3.171l-5.101,26.072
		L188.849,154.189z"/>
	<path fill="#502911" d="M174.715,60.932c0,0-1.715,13.939-16.131,18.876c-14.417,4.944-23.519,21.031-24.065,28.971
		c0-0.006,0-0.013-0.006-0.019C134.224,107.686,120.963,57.276,174.715,60.932z"/>
	<path fill="#502911" d="M174.713,62.5c0,0,3.104,13.23,16.602,17.856c13.498,4.625,23.146,20.987,23.663,28.421
		C214.979,108.776,225.577,59.042,174.713,62.5z"/>
	<path fill="#421F0C" d="M174.715,60.932c0,0-1.715,13.939-16.131,18.876c-14.417,4.944-23.519,21.031-24.065,28.971
		c0-0.006,0-0.013-0.006-0.019c-7.607-36.208,28.355-33.902,32.149-35.787C170.457,71.089,174.715,60.932,174.715,60.932z"/>
	<path fill="#421F0C" d="M174.489,61.628c0,0,1.714,13.939,16.131,18.876c14.416,4.944,23.519,21.031,24.064,28.971
		c0-0.006,0-0.013,0.006-0.019c7.607-36.208-28.354-33.902-32.149-35.787C178.748,71.786,174.489,61.628,174.489,61.628z"/>
	<path fill="#025798" d="M172.421,301.458c0,0-0.017,1.3-0.76,1.254c-0.743-0.047-3.252-0.325-3.392,1.579
		c-0.139,1.905,1.162,1.813,2.416,1.767c1.254-0.047,5.622-0.744,5.946-1.44c0.325-0.697,0-1.626,0-1.626
		S173.397,302.852,172.421,301.458z"/>
	<path fill="#025798" d="M181.133,301.458c0,0,0.017,1.3,0.76,1.254c0.743-0.047,3.253-0.325,3.392,1.579
		c0.14,1.905-1.161,1.813-2.416,1.767c-1.254-0.047-5.621-0.744-5.947-1.44c-0.325-0.697,0-1.626,0-1.626
		S180.157,302.852,181.133,301.458z"/>
</g>
</svg>
