<?xml version="1.0" encoding="utf-8"?>
<!-- Generator: Adobe Illustrator 16.0.0, SVG Export Plug-In . SVG Version: 6.00 Build 0)  -->
<!DOCTYPE svg PUBLIC "-//W3C//DTD SVG 1.1//EN" "http://www.w3.org/Graphics/SVG/1.1/DTD/svg11.dtd">
<svg version="1.1" id="Layer_1" xmlns="http://www.w3.org/2000/svg" xmlns:xlink="http://www.w3.org/1999/xlink" x="0px" y="0px"
	 width="350px" height="350px" viewBox="0 0 350 350" enable-background="new 0 0 350 350" xml:space="preserve">
<g>
	<path fill="#F5AF98" d="M139.875,178.734l-6.78,60.848c0,0,3.977,11.249,11.614,2.521l2.245-59.831L139.875,178.734z"/>
	<path fill="#F5AF98" d="M211.873,178.734l6.781,60.848c0,0-3.978,11.249-11.614,2.521l-2.245-59.831L211.873,178.734z"/>
	<path fill="#F5AF98" d="M221.918,100.786c0.031,2.009-0.079,4.008-0.349,5.981c0,0-0.795,6.441-4.515,14.063
		c-2.183,4.48-5.373,9.365-10.005,13.595c-6.806,6.216-16.719,11.013-31.105,11.013c-16.56,0-27.446-4.768-34.596-10.94
		c-4.229-3.649-7.157-7.79-9.178-11.728c-4.242-8.269-4.502-15.632-4.502-15.632s-0.114-1.251-0.054-3.399
		c0.193-6.203,1.91-19.944,12.4-32.997c18.337-2.607,49.912-6.152,68.796-2.912C216.69,77.177,221.737,89.169,221.918,100.786z"/>
	<polygon fill="#F5AF98" points="169.412,144.504 182.025,144.758 182.025,153.376 169.412,153.376 	"/>
	<g opacity="0.45">
		<g>
			<defs>
				<rect id="SVGID_25_" x="161.829" y="113.443" width="58.161" height="32.146"/>
			</defs>
			<clipPath id="SVGID_1_">
				<use xlink:href="#SVGID_25_"  overflow="visible"/>
			</clipPath>
			<g clip-path="url(#SVGID_1_)">
				<defs>
					<polygon id="SVGID_27_" points="161.829,145.398 219.564,145.398 219.989,113.443 161.829,113.986 					"/>
				</defs>
				<clipPath id="SVGID_2_">
					<use xlink:href="#SVGID_27_"  overflow="visible"/>
				</clipPath>
				<path clip-path="url(#SVGID_2_)" fill="#D69B64" d="M219.564,113.986c0,0-20.335,37.828-57.736,29.89
					C161.829,143.876,205.99,156.346,219.564,113.986"/>
			</g>
		</g>
	</g>
	<g opacity="0.45">
		<g>
			<defs>
				<rect id="SVGID_29_" x="169.412" y="144.971" width="12.614" height="3.561"/>
			</defs>
			<clipPath id="SVGID_3_">
				<use xlink:href="#SVGID_29_"  overflow="visible"/>
			</clipPath>
			<g clip-path="url(#SVGID_3_)">
				<defs>
					<rect id="SVGID_31_" x="169.412" y="144.971" width="12.614" height="3.561"/>
				</defs>
				<clipPath id="SVGID_4_">
					<use xlink:href="#SVGID_31_"  overflow="visible"/>
				</clipPath>
				<path clip-path="url(#SVGID_4_)" fill="#D69B64" d="M169.412,144.971c0,0,7,0.177,12.614,0.255v3.305
					c0,0-12.48-2.639-12.614-2.691V144.971z"/>
			</g>
		</g>
	</g>
	<path fill="#F5AF98" d="M128.534,103.051c0,0-6.64,0.803-4.675,5.846c1.966,5.045,2.045,6.352,3.356,6.435
		c1.308,0.083,3.037-0.353,3.037-0.353L128.534,103.051z"/>
	<path fill="#EFD6B9" d="M128.79,107.638c0,0-3.396,0.776-1.146,4.295L128.79,107.638z"/>
	<path fill="none" stroke="#D3A981" stroke-width="2.5555" stroke-linecap="round" stroke-miterlimit="10" d="M128.79,107.638
		c0,0-3.396,0.776-1.146,4.295"/>
	<path fill="#F5AF98" d="M221.467,101.771c0,0,6.64,0.803,4.675,5.845c-1.965,5.045-2.046,6.353-3.355,6.435
		c-1.307,0.083-3.036-0.353-3.036-0.353L221.467,101.771z"/>
	<path fill="none" stroke="#D3A981" stroke-width="2.5555" stroke-linecap="round" stroke-miterlimit="10" d="M221.211,106.358
		c0,0,3.396,0.774,1.146,4.295"/>
	<g>
		<path fill="#3C2010" d="M186.755,90.062c0,0,1.376-0.245,3.438-0.523c0.515-0.066,1.073-0.139,1.663-0.215
			c0.585-0.101,1.222-0.101,1.886-0.119c1.328-0.052,2.756-0.028,4.199-0.024c0.715,0.021,1.416,0.064,2.124,0.065
			c0.705,0.007,1.4,0.032,2.054,0.152c0.648,0.133,1.275,0.296,1.822,0.58c0.555,0.263,1.066,0.553,1.527,0.853
			c0.462,0.295,0.874,0.601,1.229,0.902c0.354,0.298,0.657,0.576,0.896,0.832c0.482,0.499,0.728,0.869,0.728,0.869l-0.145,0.479
			c0,0-0.413,0.19-1.083,0.374c-0.337,0.098-0.734,0.184-1.182,0.263c-0.448,0.082-0.942,0.14-1.468,0.164
			c-0.526,0.03-1.085,0.026-1.662-0.02c-0.58-0.045-1.182-0.062-1.782-0.207c-1.198-0.271-2.41-0.979-3.688-1.354
			c-1.267-0.326-2.551-0.633-3.764-0.994c-0.605-0.178-1.195-0.344-1.787-0.448c-0.582-0.122-1.133-0.236-1.641-0.342
			c-2.032-0.436-3.385-0.786-3.385-0.785L186.755,90.062z"/>
	</g>
	<g>
		<path fill="#3C2010" d="M166.257,90.562c0,0-1.353,0.35-3.385,0.785c-0.508,0.106-1.059,0.221-1.641,0.342
			c-0.591,0.104-1.181,0.27-1.787,0.448c-1.213,0.361-2.497,0.668-3.764,0.994c-1.277,0.375-2.489,1.083-3.687,1.354
			c-0.601,0.145-1.203,0.161-1.782,0.206c-0.578,0.046-1.136,0.05-1.663,0.021c-0.525-0.025-1.019-0.083-1.467-0.165
			c-0.448-0.079-0.845-0.165-1.182-0.263c-0.67-0.184-1.084-0.374-1.083-0.374l-0.145-0.479c0,0,0.245-0.37,0.728-0.869
			c0.24-0.255,0.542-0.533,0.897-0.832c0.354-0.301,0.766-0.607,1.229-0.902c0.461-0.3,0.973-0.589,1.527-0.852
			c0.547-0.284,1.174-0.447,1.822-0.58c0.653-0.12,1.349-0.145,2.054-0.152c0.708,0,1.409-0.043,2.124-0.065
			c1.444-0.004,2.872-0.028,4.199,0.024c0.665,0.018,1.302,0.018,1.886,0.119c0.59,0.076,1.148,0.148,1.664,0.215
			c2.061,0.278,3.437,0.523,3.437,0.523L166.257,90.562z"/>
	</g>
	<path fill="#3C2010" d="M223.974,102.507c0,0-1.621,0.921-2.054-0.659c-0.355-1.302-0.041-4.952-0.709-6.562
		c-3.846-9.267-10.449-26.577-16.257-26.869c-8.044-0.409-21.337,18.857-52.23,0.672c0,0-17.377,7.334-24.068,25.618
		c-0.459,1.253,0.228,6.985-0.122,8.343c-0.351,1.358-0.919,0.688-1.661,0.399c0,0-1.018-4.39-1.687-9.912
		c-1.755-14.533-3.146-41.019,9.941-41.706c18.056-0.951,13.503-24.329,39.368-21.002s19.934,15.141,33.754,8.963
		c0,0-0.07,0.418-0.197,1.064l-0.003,0.003c-0.405,2.027-1.406,6.267-2.729,6.644C205.886,47.397,232.688,44.111,223.974,102.507z"
		/>
	<g opacity="0.4">
		<image overflow="visible" width="90" height="91" xlink:href="89B20414.png"  transform="matrix(1 0 0 1 160 79)">
		</image>
	</g>
	<g opacity="0.4">
		<image overflow="visible" width="91" height="91" xlink:href="89B20415.png"  transform="matrix(1 0 0 1 99 79)">
		</image>
	</g>
	<path fill="#2A170D" d="M208.25,39.794c0,0-0.07,0.418-0.197,1.064l-0.003,0.003c-11.561,10.148-26.245-5.082-37.229-5.715
		c-10.981-0.634-14.783,16.687-31.365,19.222c-16.579,2.534-13.833,40.34-13.833,40.34l-0.437-1.169
		c-1.755-14.533-3.146-41.019,9.941-41.706c18.056-0.951,13.503-24.329,39.368-21.002S194.43,45.972,208.25,39.794z"/>
	<path fill="#2A170D" d="M223.127,94.708l-1.327,0.579c-3.846-9.267-11.038-26.577-16.846-26.869
		c-8.044-0.409-21.337,18.857-52.23,0.672c0,0-17.377,7.334-24.068,25.618h-0.824c0,0,10.252-28.044,23.979-28.171
		c0,0,15.208,8.953,27.88,6.84c12.673-2.113,19.431-8.614,25.767-6.84C211.795,68.308,224.337,88.631,223.127,94.708z"/>
	<circle fill="#502911" cx="157.541" cy="107.795" r="4.77"/>
	<circle fill="#502911" cx="190.498" cy="108.119" r="4.77"/>
	<path fill="#440A0E" d="M166.523,129.267c0,0,0.229,0.172,0.628,0.474c0.1,0.075,0.211,0.158,0.332,0.249
		c0.12,0.092,0.261,0.162,0.403,0.253c0.144,0.084,0.295,0.175,0.455,0.271c0.081,0.047,0.157,0.101,0.246,0.143
		c0.09,0.042,0.182,0.085,0.275,0.127c0.186,0.087,0.379,0.178,0.579,0.271c0.098,0.051,0.203,0.088,0.312,0.122
		c0.107,0.036,0.217,0.072,0.328,0.107c0.109,0.038,0.22,0.074,0.332,0.113c0.111,0.041,0.225,0.078,0.346,0.099
		c0.234,0.052,0.475,0.105,0.719,0.16c0.12,0.033,0.247,0.047,0.372,0.058c0.126,0.011,0.253,0.027,0.38,0.04
		c0.125,0.015,0.253,0.03,0.381,0.044c0.128,0.01,0.259,0.005,0.389,0.01c0.259-0.001,0.519,0.021,0.779,0.002
		c0.26-0.022,0.521-0.042,0.783-0.066c0.258-0.03,0.516-0.09,0.772-0.143c0.125-0.03,0.254-0.049,0.376-0.085l0.369-0.122
		c0.244-0.085,0.488-0.145,0.722-0.242c0.233-0.096,0.464-0.176,0.697-0.249c0.229-0.072,0.448-0.168,0.674-0.234
		c0.225-0.069,0.448-0.13,0.659-0.214c0.21-0.076,0.425-0.141,0.629-0.21c0.207-0.063,0.396-0.151,0.59-0.213
		c0.194-0.066,0.381-0.131,0.556-0.192c0.176-0.068,0.342-0.135,0.503-0.192c0.321-0.115,0.616-0.208,0.848-0.304
		c0.237-0.09,0.435-0.156,0.571-0.198c0.138-0.041,0.214-0.06,0.214-0.06l0.15,0.17c0,0-0.033,0.069-0.103,0.197
		c-0.07,0.126-0.177,0.307-0.324,0.532c-0.075,0.108-0.154,0.239-0.253,0.367c-0.102,0.123-0.213,0.255-0.34,0.393
		c-0.121,0.143-0.259,0.284-0.4,0.437c-0.152,0.143-0.318,0.287-0.496,0.432c-0.176,0.147-0.36,0.303-0.564,0.444
		c-0.208,0.132-0.42,0.276-0.649,0.41c-0.115,0.066-0.226,0.143-0.348,0.204c-0.123,0.057-0.247,0.119-0.374,0.175
		c-0.256,0.111-0.516,0.229-0.792,0.313c-0.561,0.162-1.147,0.293-1.76,0.333c-0.15,0.017-0.303,0.031-0.456,0.047
		c-0.151,0.012-0.308,0.008-0.46,0.012c-0.308-0.003-0.613,0.032-0.923,0.017c-0.305-0.017-0.613-0.03-0.919-0.048
		c-0.304-0.021-0.605-0.084-0.901-0.125c-0.15-0.025-0.298-0.042-0.444-0.074c-0.145-0.039-0.287-0.079-0.429-0.117
		c-0.142-0.041-0.283-0.08-0.422-0.12c-0.139-0.039-0.278-0.076-0.409-0.133c-0.264-0.109-0.522-0.212-0.776-0.315
		c-0.127-0.048-0.248-0.109-0.365-0.175c-0.114-0.064-0.229-0.126-0.343-0.189c-0.112-0.063-0.224-0.125-0.332-0.186
		c-0.111-0.057-0.217-0.12-0.313-0.193c-0.196-0.141-0.384-0.275-0.565-0.405c-0.091-0.064-0.179-0.13-0.264-0.191
		c-0.084-0.064-0.16-0.141-0.236-0.208c-0.149-0.138-0.292-0.269-0.425-0.392c-0.129-0.124-0.263-0.231-0.361-0.346
		c-0.097-0.115-0.186-0.221-0.267-0.315c-0.324-0.38-0.508-0.601-0.508-0.601L166.523,129.267z"/>
	<path fill="#3F1D04" d="M223.127,100.376c0,0-10.674,34.468-27.169,33.546c-15.335-0.857-0.819-8.739-23.035-9.506v-0.02
		c-0.163,0-0.322,0.003-0.481,0.006c-0.053-0.003-0.103-0.003-0.156-0.006v0.006c-12.962,0.272-4.282,8.501-19.499,9.721
		c-15.456,1.244-24.151-32.354-24.151-32.354l-1.04,1.255c-0.724,32.118,25.175,43.726,41.002,43.549l4.006,0.03
		c15.957,0.09,48.606-2.102,50.88-44.834L223.127,100.376z M174.82,142.417c-5.39,0-9.758-3.39-9.758-7.572
		c0-4.182,4.368-7.572,9.758-7.572c5.389,0,9.762,3.39,9.762,7.572C184.582,139.027,180.209,142.417,174.82,142.417z"/>
	<path fill="#205FAE" d="M199.727,213.398l-1.164,100.221l-19.105,0.007v-72.905c0-1.268-0.971-2.281-2.196-2.281
		c-1.148,0-2.121,1.014-2.121,2.281v72.905l-21.254-1.713l-2.981-98.515H199.727z"/>
	<polygon fill="#F5AF98" points="169.336,153.106 145.566,155.778 150.706,189.767 200.867,190.715 205.87,155.778 182.181,153.106 
			"/>
	<path fill="#537FC0" d="M162.993,153.819l12.9,12.567l13.114-12.691l16.863,2.083l-2.843,75.583c0,0-14.021,5.941-26.046,5.939
		c-8.487-0.001-27.497-4.793-27.497-4.793c-1.362-21.827-2.556-54.901-3.918-76.729L162.993,153.819z"/>
	
		<line fill="none" stroke="#1B4E90" stroke-width="3" stroke-linecap="round" stroke-linejoin="round" stroke-miterlimit="10" x1="162.993" y1="153.819" x2="204.438" y2="193.852"/>
	
		<line fill="none" stroke="#1B4E90" stroke-width="3" stroke-linecap="round" stroke-linejoin="round" stroke-miterlimit="10" x1="160.672" y1="154.147" x2="204.438" y2="197.26"/>
	
		<line fill="none" stroke="#1B4E90" stroke-width="3" stroke-linecap="round" stroke-linejoin="round" stroke-miterlimit="10" x1="176.134" y1="166.292" x2="189.007" y2="153.695"/>
	
		<line fill="none" stroke="#1B4E90" stroke-width="3" stroke-linecap="round" stroke-linejoin="round" stroke-miterlimit="10" x1="177.883" y1="167.856" x2="191.369" y2="154.322"/>
	<path fill="#9462A3" d="M149.696,159.396c-0.079-0.118-0.095-0.221-0.042-0.327C149.654,159.068,149.67,159.184,149.696,159.396z"
		/>
	<path fill="#9462A3" d="M150.199,160.058c-0.078-0.115-0.093-0.217-0.042-0.32C150.157,159.737,150.173,159.85,150.199,160.058z"/>
	<path fill="#025798" d="M175.288,312.992l-21.565-9.43c0,0-3.936,11.044-10.434,10.644c-6.486-0.405-2.407,4.744-1.278,5.196
		c1.119,0.456,33.277-0.959,33.277-0.959V312.992z"/>
	<path fill="#025798" d="M179.457,312.992l19.444-9.032c0,0,4.562,10.646,10.679,10.246c6.104-0.405,2.266,4.744,1.202,5.196
		c-1.053,0.456-31.325-0.959-31.325-0.959V312.992z"/>
	<path fill="#537FC0" d="M145.566,155.778l-9.906,19.368c0,0,5.266,5.556,11.294,7.126
		C146.954,182.272,150.879,164.412,145.566,155.778z"/>
	<path fill="#537FC0" d="M205.87,155.778l10.751,20.702c0,0-5.899,6.453-12.39,6.272
		C204.231,182.753,200.636,159.745,205.87,155.778z"/>
	<g>
		<path fill="none" stroke="#0A1835" stroke-width="4" stroke-linecap="round" stroke-linejoin="round" stroke-miterlimit="10" d="
			M164.529,180.966c0,0,0.021-9.078-0.61-18.491c-0.711-10.603,5.001-9.644,5.001-9.644"/>
		<path fill="none" stroke="#CCCCCC" stroke-width="3" stroke-miterlimit="10" d="M160.115,192.337c0,0-0.143,7.265,4.047,6.999"/>
		<path fill="none" stroke="#CCCCCC" stroke-width="3" stroke-miterlimit="10" d="M170.693,192.337c0,0,0.143,7.265-4.047,6.999"/>
		<path fill="#0A1835" d="M164.46,200.158h-0.477c-0.383,0-0.696-0.313-0.696-0.696l0,0c0-0.383,0.313-0.696,0.696-0.696h0.477
			c0.383,0,0.696,0.313,0.696,0.696l0,0C165.156,199.846,164.843,200.158,164.46,200.158z"/>
		<path fill="#0A1835" d="M166.55,200.158h-0.477c-0.383,0-0.696-0.313-0.696-0.696l0,0c0-0.383,0.313-0.696,0.696-0.696h0.477
			c0.383,0,0.696,0.313,0.696,0.696l0,0C167.246,199.846,166.933,200.158,166.55,200.158z"/>
		<path fill="none" stroke="#0A1835" stroke-width="4" stroke-linecap="round" stroke-linejoin="round" stroke-miterlimit="10" d="
			M160.185,193.237c0,0-1.352-12.598,4.813-12.265c6.165,0.333,5.688,12.265,5.688,12.265"/>
		<path fill="none" stroke="#0A1835" stroke-width="4" stroke-linecap="round" stroke-linejoin="round" stroke-miterlimit="10" d="
			M182.802,152.808c0,0,5.828-0.482,5.85,6.717c0.022,7.199-0.672,26.236-0.672,26.236"/>
		<circle fill="#CCCCCC" stroke="#0A1835" stroke-width="2" stroke-miterlimit="10" cx="187.979" cy="186.669" r="3.029"/>
	</g>
</g>
</svg>
