<?xml version="1.0" encoding="utf-8"?>
<!-- Generator: Adobe Illustrator 16.0.0, SVG Export Plug-In . SVG Version: 6.00 Build 0)  -->
<!DOCTYPE svg PUBLIC "-//W3C//DTD SVG 1.1//EN" "http://www.w3.org/Graphics/SVG/1.1/DTD/svg11.dtd">
<svg version="1.1" id="Layer_1" xmlns="http://www.w3.org/2000/svg" xmlns:xlink="http://www.w3.org/1999/xlink" x="0px" y="0px"
	 width="350px" height="350px" viewBox="0 0 350 350" enable-background="new 0 0 350 350" xml:space="preserve">
<g>
	<path fill="#603219" d="M181.437,232.13c-56.446,3.786-81.521-23.977-82.36-44.489c-0.549-13.472,10.354-20.197,19.15-26.539
		c0.006,0,0.006-0.006,0.006-0.006c4.593-3.313,8.606-6.518,10.121-10.531c4.417-11.704-25.977-84.265,2.492-105.144
		c2.751-2.013,5.477-3.704,8.165-5.105c28.835-15.067,53.323,2.656,53.323,2.656c14.152-2.625,23.295,0.303,28.955,6.619
		c20.538,22.897-4.72,90.386-2.688,99.415c1.465,6.499,9.812,11.364,17.661,16.86c0,0,0,0.006,0.007,0.006
		c6.082,4.253,11.861,8.878,13.925,14.935C254.925,194.688,237.889,228.344,181.437,232.13z"/>
	<path fill="#502911" d="M221.288,49.591c-17.862-13.963-30.734,6.392-30.734,6.392c-0.019-19.56-51.543-15.667-51.543-15.667
		c28.835-15.067,53.323,2.656,53.323,2.656C206.485,40.348,215.628,43.275,221.288,49.591z"/>
	<polygon fill="#205FAE" points="157.959,228.641 173.158,312.406 181.42,312.406 197.786,228.641 	"/>
	<g>
		<image overflow="visible" width="80" height="79" xlink:href="E7EDE714.png"  transform="matrix(1 0 0 1 112 85)">
		</image>
	</g>
	<g>
		<image overflow="visible" width="80" height="79" xlink:href="E7EDE715.png"  transform="matrix(1 0 0 1 160 85)">
		</image>
	</g>
	<polygon fill="#F5AF98" points="172.01,147.851 184.113,148.096 184.113,156.365 172.01,156.365 	"/>
	<path fill="#F5AF98" d="M217.569,225.532c-8.337-1.636-21.155-33.774-22.072-41.248c-0.143-1.144-0.217-1.811-0.217-1.811
		l-33.62-0.272c0,0-0.011,0.269-0.034,0.759c-0.212,4.848-12.673,42.261-19.524,40.794c-7.353-1.575,7.292-7.421,9.79-41.765
		c0.816-11.221,2.875-21.008,2.875-21.008l17.117-5.03l12.21-0.016l17.815,4.728c0,0,2.524,10.715,3.344,22.514
		C206.28,197.969,223.63,221.77,217.569,225.532L217.569,225.532z"/>
	<g opacity="0.46">
		<g>
			<g>
				<defs>
					<rect id="SVGID_1_" x="172.01" y="148.301" width="12.103" height="3.415"/>
				</defs>
				<clipPath id="SVGID_2_">
					<use xlink:href="#SVGID_1_"  overflow="visible"/>
				</clipPath>
				<g clip-path="url(#SVGID_2_)">
					<defs>
						<rect id="SVGID_3_" x="172.01" y="148.301" width="12.103" height="3.415"/>
					</defs>
					<clipPath id="SVGID_4_">
						<use xlink:href="#SVGID_3_"  overflow="visible"/>
					</clipPath>
				</g>
			</g>
		</g>
		<g>
			<g>
				<defs>
					<rect id="SVGID_5_" x="172.01" y="148.301" width="12.103" height="3.415"/>
				</defs>
				<use xlink:href="#SVGID_5_"  overflow="visible" fill="#EF8066"/>
				<clipPath id="SVGID_6_">
					<use xlink:href="#SVGID_5_"  overflow="visible"/>
				</clipPath>
				<g clip-path="url(#SVGID_6_)">
					<defs>
						<rect id="SVGID_7_" x="172.01" y="148.301" width="12.103" height="3.415"/>
					</defs>
					<use xlink:href="#SVGID_7_"  overflow="visible" fill="#EF8066"/>
					<clipPath id="SVGID_8_">
						<use xlink:href="#SVGID_7_"  overflow="visible"/>
					</clipPath>
					<path clip-path="url(#SVGID_8_)" fill="#EF8066" d="M172.01,148.301c0,0,6.716,0.169,12.103,0.245v3.17
						c0,0-11.975-2.531-12.103-2.581V148.301z"/>
				</g>
			</g>
		</g>
		<g>
			<g>
				<defs>
					<rect id="SVGID_9_" x="172.01" y="148.301" width="12.103" height="3.415"/>
				</defs>
				<clipPath id="SVGID_10_">
					<use xlink:href="#SVGID_9_"  overflow="visible"/>
				</clipPath>
				<g clip-path="url(#SVGID_10_)">
					<defs>
						<rect id="SVGID_11_" x="172.01" y="148.301" width="12.103" height="3.415"/>
					</defs>
					<clipPath id="SVGID_12_">
						<use xlink:href="#SVGID_11_"  overflow="visible"/>
					</clipPath>
				</g>
			</g>
		</g>
	</g>
	<path fill="#EB6D54" d="M181.152,161.541c0,0,0.076-0.119,0.232-0.304c0.159-0.183,0.401-0.438,0.743-0.687
		c0.167-0.128,0.364-0.246,0.582-0.36c0.22-0.102,0.46-0.198,0.725-0.256c0.129-0.032,0.265-0.06,0.402-0.073
		c0.139-0.021,0.279-0.023,0.422-0.022c0.277-0.001,0.548,0.009,0.826,0.012c0.55,0.012,1.103,0.009,1.617,0.029
		c0.517,0.026,0.996,0.083,1.405,0.123c0.82,0.085,1.368,0.204,1.368,0.204c0.013,0.006,0.021,0.016,0.018,0.028
		c-0.001,0.011-0.01,0.019-0.019,0.021c0,0-0.554,0.087-1.387,0.123c-0.416,0.021-0.898,0.014-1.412-0.009
		c-0.517-0.034-1.064-0.096-1.614-0.142c-0.272-0.023-0.553-0.051-0.815-0.066c-0.13-0.009-0.257-0.017-0.383-0.003
		c-0.128,0-0.252,0.018-0.375,0.039c-0.245,0.037-0.474,0.115-0.688,0.194c-0.212,0.089-0.41,0.186-0.58,0.292
		c-0.347,0.213-0.607,0.439-0.774,0.605c-0.172,0.169-0.255,0.278-0.255,0.278c-0.007,0.009-0.023,0.011-0.032,0.005
		C181.146,161.565,181.146,161.552,181.152,161.541L181.152,161.541z"/>
	<g opacity="0.46">
		<g>
			<defs>
				<rect id="SVGID_13_" x="181.447" y="160.099" width="5.91" height="1.129"/>
			</defs>
			<clipPath id="SVGID_14_">
				<use xlink:href="#SVGID_13_"  overflow="visible"/>
			</clipPath>
			<g clip-path="url(#SVGID_14_)">
				<defs>
					<rect id="SVGID_15_" x="181.447" y="160.099" width="5.908" height="1.129"/>
				</defs>
				<clipPath id="SVGID_16_">
					<use xlink:href="#SVGID_15_"  overflow="visible"/>
				</clipPath>
				<path clip-path="url(#SVGID_16_)" fill="#DCA15F" d="M181.453,161.188c0,0,0.241-0.312,0.739-0.629
					c0.125-0.079,0.268-0.158,0.424-0.227c0.158-0.063,0.33-0.126,0.518-0.159c0.185-0.043,0.385-0.057,0.586-0.057h0.568
					c0.189,0,0.381,0,0.57-0.004c0.189-0.011,0.373-0.014,0.548-0.014c0.356,0.008,0.688,0.039,0.975,0.065
					c0.572,0.06,0.957,0.154,0.957,0.154c0.013,0.004,0.021,0.017,0.019,0.03c-0.004,0.01-0.009,0.016-0.019,0.019
					c0,0-0.381,0.108-0.956,0.171c-0.286,0.033-0.625,0.054-0.987,0.05c-0.181-0.003-0.368-0.011-0.559-0.025
					c-0.187-0.021-0.377-0.039-0.568-0.058c-0.192-0.019-0.384-0.037-0.574-0.054c-0.173-0.017-0.347-0.024-0.516-0.001
					c-0.169,0.015-0.33,0.057-0.483,0.101c-0.15,0.044-0.292,0.1-0.418,0.161c-0.253,0.12-0.449,0.251-0.584,0.348
					c-0.136,0.097-0.205,0.163-0.205,0.163c-0.009,0.007-0.024,0.007-0.032-0.001C181.447,161.21,181.447,161.196,181.453,161.188"
					/>
			</g>
		</g>
	</g>
	<path fill="#EB6D54" d="M175.566,161.569c0,0-0.083-0.109-0.251-0.28c-0.17-0.165-0.428-0.39-0.775-0.604
		c-0.171-0.106-0.368-0.204-0.58-0.292c-0.215-0.079-0.446-0.157-0.69-0.194c-0.122-0.021-0.248-0.039-0.374-0.039
		c-0.127-0.014-0.253-0.006-0.384,0.003c-0.264,0.015-0.543,0.042-0.816,0.065c-0.548,0.046-1.096,0.108-1.61,0.142
		c-0.518,0.023-0.999,0.031-1.416,0.009c-0.831-0.036-1.385-0.123-1.385-0.123c-0.013-0.002-0.023-0.015-0.02-0.028
		c0-0.01,0.009-0.018,0.018-0.021c0,0,0.549-0.119,1.368-0.204c0.408-0.04,0.889-0.097,1.405-0.123
		c0.517-0.02,1.066-0.017,1.618-0.029c0.278-0.003,0.548-0.014,0.827-0.012c0.142-0.001,0.282,0.001,0.419,0.022
		c0.14,0.013,0.273,0.041,0.405,0.073c0.261,0.058,0.504,0.154,0.724,0.259c0.218,0.111,0.413,0.229,0.583,0.357
		c0.337,0.25,0.583,0.504,0.74,0.687c0.157,0.185,0.234,0.304,0.234,0.304c0.006,0.01,0.002,0.024-0.007,0.033
		C175.589,161.58,175.576,161.578,175.566,161.569L175.566,161.569z"/>
	<g opacity="0.46">
		<g>
			<defs>
				<rect id="SVGID_17_" x="169.468" y="160.099" width="5.935" height="1.227"/>
			</defs>
			<clipPath id="SVGID_18_">
				<use xlink:href="#SVGID_17_"  overflow="visible"/>
			</clipPath>
			<g clip-path="url(#SVGID_18_)">
				<defs>
					<rect id="SVGID_19_" x="169.468" y="160.099" width="5.935" height="1.227"/>
				</defs>
				<clipPath id="SVGID_20_">
					<use xlink:href="#SVGID_19_"  overflow="visible"/>
				</clipPath>
				<path clip-path="url(#SVGID_20_)" fill="#DCA15F" d="M175.362,161.318c0,0-0.067-0.065-0.198-0.171
					c-0.134-0.103-0.327-0.246-0.578-0.379c-0.125-0.067-0.265-0.129-0.415-0.184c-0.153-0.051-0.313-0.101-0.482-0.122
					c-0.169-0.03-0.347-0.03-0.521-0.014c-0.188,0.017-0.384,0.035-0.575,0.052c-0.194,0.02-0.387,0.04-0.576,0.06
					c-0.191,0.016-0.38,0.023-0.564,0.028c-0.367,0.006-0.709-0.016-1-0.05c-0.581-0.059-0.966-0.171-0.966-0.171
					c-0.015-0.004-0.022-0.017-0.019-0.029c0.004-0.009,0.009-0.017,0.019-0.017c0,0,0.388-0.097,0.966-0.157
					c0.293-0.028,0.626-0.058,0.986-0.065c0.358,0.003,0.746,0.025,1.133,0.021h0.578c0.206,0,0.407,0.021,0.592,0.069
					c0.376,0.089,0.689,0.263,0.934,0.433c0.243,0.17,0.425,0.339,0.542,0.463c0.119,0.125,0.178,0.202,0.178,0.202
					c0.009,0.012,0.006,0.024-0.001,0.034C175.385,161.329,175.37,161.327,175.362,161.318"/>
			</g>
		</g>
	</g>
	<path fill="#F5AF98" d="M216.26,112.71c0,0,2.13,13.608-6.218,24.083c-7.122,8.937-23.392,12.025-32.052,11.817
		c-6.891-0.165-12.728-1.098-17.668-2.583c-6.761-2.028-11.854-5.076-15.683-8.589c-13.114-12.017-11.463-29.39-11.463-29.39
		S124.224,61.99,168.353,60.8C230.016,59.143,216.26,112.71,216.26,112.71z"/>
	<path fill="#F5AF98" d="M133.638,109.054c0,0-4.165-0.775-3.965,4.288c0.199,5.063,2.316,8.339,5.522,8.627L133.638,109.054z"/>
	<path fill="#F5AF98" d="M216.406,109.14c0,0,4.069-1.59,4.27,3.473c0.199,5.063-1.652,8.496-4.828,9.035L216.406,109.14z"/>
	<g>
		<path fill="#502911" d="M206.061,91.979c0,0-1.16-0.79-2.978-1.777c-0.459-0.236-0.956-0.489-1.487-0.735
			c-0.544-0.226-1.082-0.517-1.678-0.729c-0.292-0.115-0.589-0.231-0.889-0.35c-0.304-0.101-0.61-0.204-0.919-0.307
			c-0.606-0.234-1.248-0.359-1.869-0.527c-0.626-0.143-1.266-0.183-1.877-0.238c-0.615,0.038-1.203-0.022-1.753-0.019
			c-0.274-0.002-0.543-0.016-0.808-0.051c-0.268-0.047-0.525-0.076-0.775-0.074c-0.251-0.006-0.501-0.039-0.746-0.059
			c-0.249-0.042-0.49-0.065-0.718-0.055c-0.459,0.001-0.906-0.027-1.328-0.072c-0.407-0.004-0.769,0.027-1.092,0.014
			c-0.641-0.006-1.075-0.056-1.075-0.056l-0.203-0.345c0,0,0.193-0.353,0.653-0.89c0.23-0.266,0.521-0.598,0.902-0.915
			c0.395-0.281,0.868-0.576,1.415-0.864c0.54-0.318,1.186-0.437,1.868-0.628c0.173-0.041,0.348-0.082,0.525-0.123
			c0.177-0.012,0.356-0.031,0.538-0.037c0.364-0.02,0.739-0.018,1.118-0.003c0.759,0.033,1.496,0.3,2.241,0.508
			c0.715,0.293,1.441,0.563,2.133,0.873c0.682,0.331,1.377,0.624,1.999,1.01c0.315,0.184,0.632,0.359,0.934,0.549
			c0.292,0.203,0.579,0.404,0.862,0.601c1.132,0.779,2.078,1.632,2.864,2.369c1.567,1.482,2.416,2.641,2.416,2.641L206.061,91.979z"
			/>
	</g>
	<g>
		<path fill="#502911" d="M146.317,91.124c0,0,0.887-1.131,2.501-2.561c0.811-0.711,1.784-1.532,2.94-2.274
			c0.289-0.188,0.583-0.379,0.881-0.573c0.308-0.179,0.63-0.344,0.952-0.518c0.634-0.366,1.338-0.636,2.03-0.944
			c0.701-0.287,1.436-0.533,2.16-0.803c0.752-0.184,1.498-0.427,2.257-0.435c0.379-0.002,0.754,0.008,1.117,0.04
			c0.182,0.011,0.361,0.037,0.537,0.054c0.176,0.047,0.349,0.094,0.521,0.14c0.677,0.213,1.317,0.353,1.848,0.688
			c0.536,0.307,1.001,0.617,1.386,0.91c0.37,0.329,0.65,0.67,0.872,0.943c0.442,0.552,0.624,0.911,0.624,0.911l-0.215,0.338
			c0,0-0.436,0.036-1.076,0.021c-0.324,0.003-0.684-0.041-1.091-0.049c-0.424,0.031-0.872,0.045-1.331,0.029
			c-0.227-0.018-0.468-0.003-0.719,0.031c-0.246,0.013-0.497,0.038-0.748,0.035c-0.25-0.009-0.508,0.011-0.777,0.049
			c-0.266,0.027-0.535,0.032-0.81,0.025c-0.549-0.022-1.139,0.019-1.752-0.039c-0.612,0.035-1.253,0.054-1.884,0.176
			c-0.626,0.148-1.271,0.252-1.885,0.466c-0.312,0.093-0.622,0.186-0.928,0.277c-0.304,0.108-0.604,0.215-0.9,0.32
			c-0.603,0.193-1.15,0.466-1.701,0.674c-0.539,0.229-1.044,0.466-1.511,0.687c-1.848,0.928-3.033,1.679-3.033,1.679L146.317,91.124
			z"/>
	</g>
	<path fill="#EA5E5F" d="M166.493,124.778c0,0,0.29,0.22,0.797,0.602c0.127,0.095,0.27,0.2,0.421,0.315
		c0.153,0.118,0.332,0.206,0.512,0.321c0.182,0.108,0.375,0.223,0.579,0.345c0.102,0.06,0.199,0.127,0.313,0.182
		c0.114,0.053,0.23,0.106,0.349,0.161c0.235,0.111,0.481,0.226,0.735,0.344c0.125,0.063,0.257,0.111,0.396,0.155
		c0.135,0.043,0.276,0.09,0.416,0.135c0.139,0.048,0.279,0.094,0.421,0.144c0.141,0.052,0.285,0.099,0.439,0.126
		c0.297,0.065,0.604,0.133,0.913,0.202c0.153,0.043,0.314,0.059,0.473,0.074c0.161,0.015,0.321,0.034,0.482,0.05
		c0.16,0.02,0.322,0.037,0.483,0.056c0.164,0.014,0.33,0.007,0.496,0.014c0.329-0.003,0.658,0.025,0.989,0.001
		c0.33-0.029,0.661-0.055,0.994-0.084c0.329-0.037,0.657-0.113,0.981-0.181c0.158-0.038,0.322-0.063,0.479-0.11l0.468-0.154
		c0.311-0.107,0.62-0.183,0.916-0.308c0.297-0.12,0.591-0.223,0.887-0.315c0.291-0.091,0.57-0.213,0.855-0.296
		c0.286-0.089,0.569-0.166,0.839-0.271c0.267-0.098,0.538-0.179,0.799-0.268c0.264-0.079,0.502-0.193,0.749-0.272
		c0.247-0.083,0.483-0.166,0.707-0.243c0.222-0.087,0.434-0.172,0.638-0.245c0.409-0.146,0.782-0.264,1.078-0.387
		c0.3-0.114,0.55-0.197,0.724-0.251c0.176-0.052,0.272-0.077,0.272-0.077l0.191,0.218c0,0-0.042,0.089-0.131,0.251
		c-0.088,0.161-0.225,0.39-0.411,0.675c-0.097,0.138-0.196,0.304-0.322,0.466c-0.129,0.157-0.27,0.325-0.431,0.5
		c-0.153,0.181-0.329,0.361-0.51,0.554c-0.193,0.182-0.405,0.365-0.629,0.55c-0.225,0.186-0.459,0.385-0.717,0.564
		c-0.266,0.168-0.534,0.351-0.826,0.522c-0.146,0.083-0.287,0.18-0.441,0.258c-0.157,0.072-0.313,0.151-0.476,0.222
		c-0.323,0.14-0.655,0.291-1.007,0.4c-0.711,0.203-1.456,0.37-2.235,0.42c-0.19,0.021-0.384,0.042-0.578,0.061
		c-0.193,0.016-0.393,0.009-0.586,0.016c-0.393-0.003-0.779,0.041-1.172,0.021c-0.389-0.021-0.778-0.041-1.167-0.06
		c-0.386-0.028-0.769-0.108-1.146-0.16c-0.19-0.032-0.378-0.053-0.563-0.095c-0.184-0.049-0.365-0.1-0.545-0.148
		c-0.18-0.051-0.359-0.101-0.536-0.15c-0.177-0.049-0.354-0.097-0.52-0.172c-0.335-0.135-0.663-0.267-0.985-0.398
		c-0.163-0.06-0.315-0.139-0.464-0.222c-0.146-0.082-0.291-0.162-0.436-0.242c-0.143-0.078-0.284-0.157-0.423-0.235
		c-0.14-0.073-0.275-0.151-0.397-0.246c-0.249-0.178-0.488-0.35-0.718-0.514c-0.116-0.083-0.227-0.166-0.335-0.243
		c-0.108-0.081-0.204-0.18-0.301-0.265c-0.19-0.174-0.371-0.34-0.539-0.496c-0.164-0.157-0.334-0.294-0.459-0.439
		c-0.123-0.146-0.236-0.281-0.339-0.402c-0.412-0.484-0.646-0.761-0.646-0.761L166.493,124.778z"/>
	<circle fill="#502911" cx="156.55" cy="109.358" r="5.741"/>
	<circle fill="#502911" cx="196.218" cy="109.749" r="5.741"/>
	<g>
		<image overflow="visible" width="82" height="82" xlink:href="E7EDE713.png"  transform="matrix(1 0 0 1 112 84)">
		</image>
	</g>
	<g>
		<image overflow="visible" width="82" height="82" xlink:href="E7EDE71C.png"  transform="matrix(1 0 0 1 161 84)">
		</image>
	</g>
	<g>
		<path fill="#1B4E90" d="M178.697,228.644c0,0,0.298,1.314,0.589,3.61c0.146,1.147,0.308,2.541,0.419,4.139
			c0.13,1.598,0.229,3.399,0.281,5.364c0.039,1.964,0.086,4.092-0.045,6.34c-0.119,2.248-0.477,4.615-0.807,7.065
			c-0.33,2.449-0.587,4.981-0.576,7.559c-0.04,2.577,0.119,5.198,0.359,7.82c0.227,2.622,0.49,5.244,0.548,7.823
			c0.082,2.578,0.152,5.116,0.188,7.571c0.053,2.456,0.014,4.828-0.091,7.076c-0.1,2.249-0.271,4.373-0.42,6.335
			c-0.184,1.961-0.353,3.758-0.558,5.351c-0.187,1.593-0.395,2.98-0.575,4.123c-0.357,2.285-0.661,3.589-0.661,3.589l-0.4-0.006
			c0,0-0.262-1.313-0.545-3.609c-0.145-1.147-0.308-2.541-0.442-4.139c-0.154-1.599-0.265-3.4-0.386-5.366
			c-0.085-1.965-0.188-4.094-0.216-6.345c-0.032-2.251,0.005-4.623,0.137-7.075c0.115-2.453,0.267-4.987,0.432-7.563
			c0.14-2.574,0.489-5.188,0.799-7.801c0.325-2.613,0.568-5.228,0.611-7.805c0.093-2.575-0.082-5.115-0.333-7.573
			c-0.252-2.459-0.532-4.837-0.579-7.088c-0.059-2.251,0.057-4.376,0.158-6.339c0.115-1.962,0.273-3.759,0.455-5.352
			c0.162-1.593,0.368-2.98,0.551-4.123c0.365-2.285,0.705-3.589,0.705-3.589L178.697,228.644z"/>
	</g>
	<path fill="#603219" d="M189.22,62.336v2.095c0,0-4.209,10.935-13.338,13.042c-9.13,2.101-27.479-6.341-35.208,3.786
		c-6.215,8.14-7.136,20.317-7.262,24.772c-0.025,1.085-0.006,1.716-0.006,1.716s-0.177-0.366-0.442-1.041
		c-0.126-0.31-0.271-0.682-0.423-1.124v-0.006c-2.019-5.805-5.88-22.362,8.133-38.622C160.284,44.196,189.22,62.336,189.22,62.336z"
		/>
	<path fill="#603219" d="M218.513,109.032h-2.619c2.872-14-9.989-27.647-19.157-31.758c-3.292-1.479-5.178-5.444-6.237-8.996
		c-1.033-3.465-1.279-6.543-1.279-6.543c13.061,0.253,20.457,6.883,24.588,15.106c3.984,7.903,4.951,17.285,5.045,23.875
		C218.932,105.66,218.513,109.032,218.513,109.032z"/>
	<path fill="#502911" d="M189.22,64.431c0,0-4.209,10.935-13.338,13.042c-9.13,2.101-27.479-6.341-35.208,3.786
		c-6.215,8.14-7.136,20.317-7.262,24.772l-0.448,0.675l-0.277,0.416c0,0-0.063-0.561-0.146-1.54v-0.006
		c-0.523-6.196-1.697-29.189,8.922-34.363c12.304-5.994,30.589,6.606,37.542,3.786c6.953-2.82,10.216-12.664,10.216-12.664
		C189.251,63.055,189.251,63.755,189.22,64.431z"/>
	<path fill="#502911" d="M218.853,100.716c-0.733,2.525-1.706,5.291-2.959,8.316c2.872-14-9.989-27.647-19.157-31.758
		c-3.292-1.479-5.178-5.444-6.237-8.996l-1.24-6.357c0.32,1.406,2.553,10.461,7.478,11.688c2.592,0.646,10.968-0.187,17.071,3.232
		C219.318,79.926,222.977,86.476,218.853,100.716z"/>
	<path fill="#537FC0" d="M165.075,157.709l-10.364,3.375c0,0,8.27,54.404,0.537,76.887c0,0,28.721,12.335,45.493,0
		c0,0-11.677-27.689,1.169-77.308l-10.026-2.661l-13.387,12.769L165.075,157.709z"/>
	
		<line fill="none" stroke="#1B4E90" stroke-width="3" stroke-linecap="round" stroke-linejoin="round" stroke-miterlimit="10" x1="164.79" y1="157.802" x2="196.63" y2="188.555"/>
	
		<line fill="none" stroke="#1B4E90" stroke-width="3" stroke-linecap="round" stroke-linejoin="round" stroke-miterlimit="10" x1="162.746" y1="158.468" x2="196.289" y2="191.51"/>
	
		<line fill="none" stroke="#1B4E90" stroke-width="3" stroke-linecap="round" stroke-linejoin="round" stroke-miterlimit="10" x1="178.646" y1="170.957" x2="191.884" y2="158.003"/>
	
		<line fill="none" stroke="#1B4E90" stroke-width="3" stroke-linecap="round" stroke-linejoin="round" stroke-miterlimit="10" x1="180.445" y1="172.565" x2="194.313" y2="158.647"/>
	<polygon fill="#537FC0" points="154.711,161.085 149.098,174.989 157.959,184.874 	"/>
	<path fill="#537FC0" d="M201.91,160.664c-0.02,0.093-4.104,10.2-4.124,10.293c-0.031,0.151-0.835,13.765-0.866,13.917
		c3.328-3.295,6.657-6.59,9.984-9.885L201.91,160.664z"/>
	<path fill="#025798" d="M172.631,310.945c0,0-0.017,1.354-0.792,1.307c-0.774-0.049-3.389-0.339-3.534,1.646s1.21,1.888,2.517,1.84
		c1.307-0.049,5.856-0.774,6.195-1.501s0-1.694,0-1.694S173.648,312.396,172.631,310.945z"/>
	<path fill="#025798" d="M181.707,310.945c0,0,0.018,1.354,0.792,1.307c0.774-0.049,3.388-0.339,3.533,1.646s-1.21,1.888-2.517,1.84
		c-1.308-0.049-5.856-0.774-6.196-1.501c-0.339-0.727,0-1.694,0-1.694S180.69,312.396,181.707,310.945z"/>
	<g>
		<path fill="none" stroke="#0A1835" stroke-width="4" stroke-linecap="round" stroke-linejoin="round" stroke-miterlimit="10" d="
			M166.866,184.897c0,0,0.022-9.334-0.627-19.014c-0.732-10.904,5.143-9.917,5.143-9.917"/>
		<path fill="none" stroke="#CCCCCC" stroke-width="3" stroke-miterlimit="10" d="M162.328,196.591c0,0-0.147,7.471,4.161,7.198"/>
		<path fill="none" stroke="#CCCCCC" stroke-width="3" stroke-miterlimit="10" d="M173.205,196.591c0,0,0.147,7.471-4.162,7.198"/>
		<path fill="#0A1835" d="M166.795,204.634h-0.491c-0.394,0-0.715-0.321-0.715-0.716l0,0c0-0.394,0.322-0.715,0.715-0.715h0.491
			c0.394,0,0.716,0.321,0.716,0.715l0,0C167.511,204.313,167.189,204.634,166.795,204.634z"/>
		<path fill="#0A1835" d="M168.944,204.634h-0.49c-0.394,0-0.716-0.321-0.716-0.716l0,0c0-0.394,0.322-0.715,0.716-0.715h0.49
			c0.394,0,0.716,0.321,0.716,0.715l0,0C169.66,204.313,169.337,204.634,168.944,204.634z"/>
		<path fill="none" stroke="#0A1835" stroke-width="4" stroke-linecap="round" stroke-linejoin="round" stroke-miterlimit="10" d="
			M162.399,197.518c0,0-1.39-12.955,4.949-12.613c6.339,0.343,5.849,12.613,5.849,12.613"/>
		<path fill="none" stroke="#0A1835" stroke-width="4" stroke-linecap="round" stroke-linejoin="round" stroke-miterlimit="10" d="
			M185.002,155.943c0,0,5.993-0.496,6.016,6.907c0.022,7.403-0.691,26.979-0.691,26.979"/>
		<circle fill="#CCCCCC" stroke="#0A1835" stroke-width="2" stroke-miterlimit="10" cx="190.326" cy="190.763" r="3.115"/>
	</g>
</g>
</svg>
