<?xml version="1.0" encoding="utf-8"?>
<!-- Generator: Adobe Illustrator 16.0.0, SVG Export Plug-In . SVG Version: 6.00 Build 0)  -->
<!DOCTYPE svg PUBLIC "-//W3C//DTD SVG 1.1//EN" "http://www.w3.org/Graphics/SVG/1.1/DTD/svg11.dtd">
<svg version="1.1" id="Layer_1" xmlns="http://www.w3.org/2000/svg" xmlns:xlink="http://www.w3.org/1999/xlink" x="0px" y="0px"
	 width="350px" height="350px" viewBox="0 0 350 350" enable-background="new 0 0 350 350" xml:space="preserve">
<g>
	<polygon fill="#F5AF98" points="169.503,155.067 146.542,157.649 151.507,190.479 199.961,191.395 204.794,157.649 181.91,155.067 
			"/>
	<polygon fill="#A5A3CA" points="167.642,155.277 174.349,163.988 176.356,169.698 178.188,163.988 184.18,155.323 190.648,156.053 
		192.955,225.464 154.53,225.464 161.003,156.023 	"/>
	<path fill="#F5AF98" d="M221.15,103.338c0.031,1.976-0.078,3.942-0.344,5.884c0,0-0.781,6.335-4.44,13.833
		c-2.147,4.406-5.285,9.212-9.842,13.372c-6.693,6.114-16.444,10.833-30.596,10.833c-16.289,0-26.997-4.69-34.03-10.761
		c-4.16-3.59-7.04-7.663-9.028-11.537c-4.173-8.134-4.428-15.376-4.428-15.376s-0.112-1.231-0.053-3.344
		c0.19-6.102,1.879-19.618,12.197-32.457c18.038-2.564,49.095-6.052,67.671-2.864C216.008,80.116,220.972,91.911,221.15,103.338z"/>
	<polygon fill="#F5AF98" points="169.503,146.341 181.91,146.591 181.91,155.067 169.503,155.067 	"/>
	<g opacity="0.45">
		<g>
			<defs>
				<rect id="SVGID_1_" x="162.044" y="115.788" width="57.208" height="31.62"/>
			</defs>
			<clipPath id="SVGID_2_">
				<use xlink:href="#SVGID_1_"  overflow="visible"/>
			</clipPath>
			<g clip-path="url(#SVGID_2_)">
				<defs>
					<polygon id="SVGID_3_" points="162.044,147.221 218.836,147.221 219.253,115.788 162.044,116.323 					"/>
				</defs>
				<clipPath id="SVGID_4_">
					<use xlink:href="#SVGID_3_"  overflow="visible"/>
				</clipPath>
				<path clip-path="url(#SVGID_4_)" fill="#D69B64" d="M218.836,116.323c0,0-20.003,37.208-56.792,29.4
					C162.044,145.723,205.482,157.989,218.836,116.323"/>
			</g>
		</g>
	</g>
	<g opacity="0.45">
		<g>
			<defs>
				<rect id="SVGID_5_" x="169.503" y="146.801" width="12.407" height="3.502"/>
			</defs>
			<clipPath id="SVGID_6_">
				<use xlink:href="#SVGID_5_"  overflow="visible"/>
			</clipPath>
			<g clip-path="url(#SVGID_6_)">
				<defs>
					<rect id="SVGID_7_" x="169.503" y="146.801" width="12.407" height="3.502"/>
				</defs>
				<clipPath id="SVGID_8_">
					<use xlink:href="#SVGID_7_"  overflow="visible"/>
				</clipPath>
				<path clip-path="url(#SVGID_8_)" fill="#D69B64" d="M169.503,146.801c0,0,6.885,0.173,12.407,0.251v3.25
					c0,0-12.276-2.596-12.407-2.647V146.801z"/>
			</g>
		</g>
	</g>
	<path fill="#F5AF98" d="M129.294,105.566c0,0-6.531,0.79-4.599,5.75c1.934,4.963,2.012,6.248,3.301,6.33
		c1.286,0.082,2.987-0.347,2.987-0.347L129.294,105.566z"/>
	<path fill="#EFD6B9" d="M129.546,110.078c0,0-3.341,0.763-1.128,4.225L129.546,110.078z"/>
	<path fill="none" stroke="#D3A981" stroke-width="2.5555" stroke-linecap="round" stroke-miterlimit="10" d="M129.546,110.078
		c0,0-3.341,0.763-1.128,4.225"/>
	<path fill="#F5AF98" d="M220.706,104.307c0,0,6.531,0.79,4.599,5.75c-1.933,4.963-2.012,6.249-3.301,6.33
		c-1.285,0.081-2.986-0.347-2.986-0.347L220.706,104.307z"/>
	<path fill="none" stroke="#D3A981" stroke-width="2.5555" stroke-linecap="round" stroke-miterlimit="10" d="M220.454,108.819
		c0,0,3.341,0.762,1.128,4.225"/>
	<g>
		<path fill="#1B1B1C" d="M186.566,92.686c0,0,1.359-0.365,3.392-0.787c0.509-0.102,1.059-0.211,1.641-0.328
			c0.574-0.141,1.21-0.176,1.876-0.234c1.33-0.137,2.765-0.172,4.222-0.236c0.719-0.003,1.424-0.022,2.142-0.076
			c0.713-0.045,1.417-0.065,2.069,0.052c0.647,0.128,1.27,0.319,1.801,0.648c0.54,0.304,1.034,0.648,1.474,1.011
			c0.442,0.357,0.83,0.733,1.159,1.109c0.33,0.372,0.607,0.721,0.823,1.045c0.217,0.317,0.379,0.59,0.482,0.797
			c0.104,0.206,0.158,0.316,0.158,0.316l-0.201,0.67c0,0-0.107,0.066-0.308,0.189c-0.2,0.124-0.483,0.275-0.833,0.438
			c-0.351,0.169-0.762,0.331-1.222,0.486c-0.46,0.16-0.963,0.293-1.492,0.384c-0.532,0.098-1.091,0.154-1.664,0.153
			c-0.577,0.005-1.164,0.02-1.745-0.125c-1.157-0.259-2.295-1.147-3.524-1.569c-1.21-0.388-2.442-0.748-3.611-1.189
			c-0.584-0.216-1.154-0.414-1.737-0.559c-0.571-0.161-1.111-0.313-1.609-0.453c-1.993-0.577-3.318-1.045-3.318-1.045
			L186.566,92.686z"/>
	</g>
	<g>
		<path fill="#1B1B1C" d="M166.405,93.385c0,0-1.326,0.468-3.319,1.045c-0.499,0.14-1.039,0.292-1.609,0.452
			c-0.583,0.146-1.153,0.343-1.737,0.559c-1.17,0.441-2.402,0.801-3.611,1.189c-1.23,0.421-2.367,1.31-3.525,1.569
			c-0.581,0.145-1.167,0.13-1.745,0.125c-0.573,0.001-1.132-0.055-1.664-0.153c-0.53-0.091-1.032-0.224-1.493-0.384
			c-0.459-0.156-0.871-0.316-1.222-0.486c-0.349-0.162-0.633-0.313-0.833-0.438c-0.201-0.123-0.307-0.189-0.307-0.189l-0.202-0.67
			c0,0,0.055-0.11,0.159-0.316c0.104-0.207,0.265-0.48,0.483-0.797c0.215-0.325,0.493-0.674,0.823-1.045
			c0.329-0.376,0.717-0.752,1.159-1.109c0.44-0.363,0.934-0.708,1.474-1.011c0.531-0.329,1.153-0.52,1.801-0.648
			c0.653-0.118,1.356-0.098,2.069-0.053c0.718,0.054,1.423,0.073,2.142,0.076c1.457,0.063,2.891,0.099,4.221,0.236
			c0.666,0.059,1.302,0.093,1.876,0.234c0.582,0.116,1.132,0.226,1.641,0.328c2.033,0.422,3.391,0.787,3.391,0.787L166.405,93.385z"
			/>
	</g>
	<path fill="#1B1B1C" d="M223.172,105.031c0,0-1.595,0.906-2.02-0.647c-0.351-1.281-0.04-4.872-0.698-6.454
		c-3.783-9.115-10.277-26.143-15.99-26.429c-7.912-0.402-20.988,18.548-51.375,0.661c0,0-17.093,7.214-23.675,25.199
		c-0.452,1.232,0.225,6.871-0.12,8.207c-0.345,1.335-0.905,0.677-1.634,0.394c0,0-1.001-4.318-1.659-9.75
		c-1.727-14.295-3.095-40.347,9.779-41.023c17.76-0.935,13.282-23.93,38.724-20.658c25.441,3.272,19.608,14.893,33.201,8.816
		c0,0-0.068,0.411-0.193,1.047l-0.003,0.003c-0.398,1.995-1.384,6.165-2.683,6.535C205.38,50.823,231.745,47.59,223.172,105.031z"/>
	<g opacity="0.4">
		<image overflow="visible" width="89" height="90" xlink:href="F388885A.png"  transform="matrix(1 0 0 1 160 82)">
		</image>
	</g>
	<g opacity="0.4">
		<image overflow="visible" width="90" height="90" xlink:href="F388885E.png"  transform="matrix(1 0 0 1 100 82)">
		</image>
	</g>
	<path fill="#020202" d="M207.705,43.344c0,0-0.068,0.411-0.193,1.047l-0.003,0.003c-11.371,9.982-25.816-4.999-36.62-5.622
		c-10.801-0.624-14.541,16.414-30.852,18.907c-16.308,2.493-13.606,39.68-13.606,39.68l-0.43-1.15
		c-1.727-14.295-3.095-40.347,9.779-41.023c17.76-0.935,13.282-23.93,38.724-20.658C199.945,37.8,194.112,49.421,207.705,43.344z"/>
	<path fill="#020202" d="M222.34,97.359l-1.306,0.57c-3.783-9.115-10.857-26.143-16.57-26.429
		c-7.912-0.402-20.988,18.548-51.375,0.661c0,0-17.093,7.214-23.675,25.199h-0.81c0,0,10.084-27.586,23.587-27.71
		c0,0,14.958,8.807,27.423,6.728c12.466-2.078,19.113-8.473,25.346-6.728C211.192,71.391,223.53,91.382,222.34,97.359z"/>
	<path fill="#020202" d="M198.858,213.307l-1.124,96.811l-18.455,0.008v-70.426c0-1.225-0.938-2.203-2.121-2.203
		c-1.109,0-2.049,0.979-2.049,2.203v70.426l-20.531-1.656l-2.88-95.162H198.858z"/>
	<path fill="#2E1C12" d="M175.252,309.512l-20.831-9.109c0,0-3.801,10.668-10.079,10.281c-6.265-0.393-2.325,4.582-1.234,5.02
		c1.081,0.439,32.144-0.926,32.144-0.926V309.512z"/>
	<path fill="#2E1C12" d="M179.279,309.512l18.783-8.725c0,0,4.405,10.283,10.314,9.896c5.897-0.393,2.189,4.582,1.162,5.02
		c-1.018,0.439-30.26-0.926-30.26-0.926V309.512z"/>
	<circle fill="#502911" cx="157.826" cy="110.233" r="4.692"/>
	<circle fill="#502911" cx="190.244" cy="110.551" r="4.691"/>
	<path fill="#440A0E" d="M166.662,131.354c0,0,0.225,0.169,0.618,0.466c0.099,0.073,0.208,0.155,0.326,0.244
		c0.118,0.091,0.256,0.159,0.396,0.25c0.141,0.083,0.291,0.172,0.448,0.266c0.08,0.046,0.155,0.1,0.242,0.14
		c0.089,0.042,0.179,0.084,0.271,0.125c0.182,0.086,0.373,0.176,0.569,0.267c0.097,0.05,0.199,0.086,0.307,0.12
		c0.105,0.035,0.213,0.07,0.322,0.105c0.107,0.037,0.216,0.072,0.326,0.111c0.11,0.04,0.222,0.077,0.34,0.098
		c0.23,0.051,0.467,0.104,0.707,0.157c0.118,0.032,0.242,0.045,0.366,0.057c0.124,0.011,0.249,0.027,0.374,0.039
		c0.123,0.014,0.249,0.029,0.374,0.043c0.126,0.01,0.255,0.005,0.383,0.01c0.254-0.002,0.51,0.021,0.766,0.002
		c0.255-0.022,0.512-0.042,0.77-0.065c0.254-0.029,0.508-0.088,0.759-0.141c0.123-0.029,0.25-0.048,0.371-0.084l0.363-0.12
		c0.24-0.083,0.479-0.142,0.709-0.238c0.229-0.094,0.457-0.173,0.687-0.245c0.226-0.071,0.441-0.165,0.662-0.23
		c0.222-0.068,0.441-0.128,0.649-0.21c0.206-0.075,0.417-0.138,0.619-0.207c0.203-0.062,0.389-0.149,0.58-0.21
		c0.19-0.065,0.374-0.129,0.546-0.189c0.173-0.067,0.336-0.133,0.494-0.189c0.317-0.113,0.606-0.204,0.834-0.299
		c0.233-0.089,0.428-0.153,0.563-0.195c0.136-0.04,0.211-0.059,0.211-0.059l0.147,0.167c0,0-0.033,0.068-0.102,0.194
		c-0.068,0.124-0.174,0.302-0.318,0.523c-0.075,0.106-0.151,0.235-0.249,0.36c-0.101,0.121-0.209,0.251-0.334,0.387
		c-0.119,0.14-0.255,0.279-0.395,0.429c-0.149,0.14-0.313,0.283-0.487,0.425c-0.173,0.145-0.355,0.299-0.555,0.437
		c-0.205,0.13-0.414,0.272-0.64,0.403c-0.113,0.064-0.222,0.14-0.342,0.2c-0.122,0.056-0.243,0.116-0.368,0.172
		c-0.251,0.109-0.507,0.226-0.779,0.309c-0.551,0.159-1.128,0.288-1.73,0.327c-0.147,0.016-0.298,0.031-0.448,0.047
		c-0.149,0.012-0.303,0.007-0.454,0.012c-0.303-0.003-0.603,0.032-0.907,0.017c-0.301-0.017-0.603-0.03-0.904-0.047
		c-0.298-0.021-0.595-0.083-0.886-0.123c-0.148-0.024-0.293-0.041-0.437-0.073c-0.142-0.038-0.282-0.077-0.421-0.115
		c-0.14-0.04-0.278-0.078-0.416-0.117c-0.137-0.038-0.274-0.075-0.402-0.131c-0.259-0.107-0.513-0.208-0.763-0.31
		c-0.125-0.047-0.244-0.107-0.359-0.172c-0.112-0.063-0.226-0.125-0.337-0.186c-0.11-0.062-0.22-0.122-0.327-0.182
		c-0.109-0.057-0.213-0.118-0.308-0.191c-0.193-0.138-0.378-0.27-0.556-0.398c-0.09-0.063-0.176-0.128-0.259-0.188
		c-0.083-0.063-0.158-0.139-0.232-0.205c-0.147-0.136-0.288-0.265-0.418-0.386c-0.127-0.122-0.259-0.227-0.355-0.34
		c-0.095-0.112-0.183-0.217-0.262-0.31c-0.319-0.375-0.5-0.591-0.5-0.591L166.662,131.354z"/>
	<path fill="#1B1B1C" d="M222.34,102.935c0,0-10.5,33.905-26.725,32.998c-15.084-0.843-0.807-8.596-22.658-9.35v-0.019
		c-0.16,0-0.316,0.003-0.473,0.006c-0.052-0.003-0.101-0.003-0.153-0.006v0.006c-12.75,0.268-4.211,8.362-19.18,9.563
		c-15.203,1.224-23.756-31.824-23.756-31.824l-1.022,1.235c-0.712,31.592,24.763,43.01,40.331,42.836l3.941,0.029
		c15.696,0.088,47.81-2.066,50.048-44.101L222.34,102.935z M174.823,144.288c-5.302,0-9.598-3.334-9.598-7.448
		s4.296-7.448,9.598-7.448c5.301,0,9.602,3.334,9.602,7.448S180.124,144.288,174.823,144.288z"/>
	<path fill="#F5AF98" d="M141.395,229.474l-3.363,11.511c0,0,4.05,6.354,11.748,3.164l-0.833-12.557L141.395,229.474z"/>
	<path fill="#EEEEEE" d="M146.542,157.649l-10.239,71.825l14.093,6.948C150.397,236.422,154.637,173.381,146.542,157.649z"/>
	<path fill="#F5AF98" d="M210.311,225.464l3.363,11.511c0,0-4.05,6.354-11.748,3.165l0.834-12.558L210.311,225.464z"/>
	<path fill="#EEEEEE" d="M204.794,157.649l10.239,71.825l-14.093,6.948C200.94,236.422,196.7,173.381,204.794,157.649z"/>
	<path fill="none" stroke="#4A4A77" stroke-width="2" stroke-linecap="round" stroke-linejoin="round" stroke-miterlimit="10" d="
		M162.628,160.358l10.846,9.339c-0.833-3.926,0.875-5.71,0.875-5.71l-6.707-8.711l-5.124,0.576"/>
	<path fill="none" stroke="#4A4A77" stroke-width="2" stroke-linecap="round" stroke-linejoin="round" stroke-miterlimit="10" d="
		M188.818,159.632l-9.756,10.066c0.833-3.926-0.874-5.71-0.874-5.71l5.991-8.665l4.639,0.523"/>
	<path fill="#EEEEEE" d="M162.518,155.447v109.518c0,0-9.213,2.723-15.976-3.248c0,0,8.914-82.906,0-104.068L162.518,155.447z"/>
	<path fill="#EEEEEE" d="M188.818,155.447v109.518c0,0,9.214,2.723,15.976-3.248c0,0-8.913-82.906,0-104.068L188.818,155.447z"/>
	
		<polyline fill="none" stroke="#4A4A77" stroke-width="2" stroke-linecap="round" stroke-linejoin="round" stroke-miterlimit="10" points="
		174.349,163.988 176.356,169.698 178.188,163.988 	"/>
	<path fill="none" stroke="#4A4A77" stroke-width="2" stroke-linecap="round" stroke-linejoin="round" stroke-miterlimit="10" d="
		M176.356,169.698c0,0-0.307,40.208,0.615,43.609"/>
	
		<polyline fill="none" stroke="#F2F2F4" stroke-width="2" stroke-linecap="round" stroke-linejoin="round" stroke-miterlimit="10" points="
		148.803,235.636 150.692,186.586 149.748,181.515 	"/>
	
		<polyline fill="none" stroke="#F2F2F4" stroke-width="2" stroke-linecap="round" stroke-linejoin="round" stroke-miterlimit="10" points="
		202.87,235.021 200.981,185.972 201.926,180.9 	"/>
	<path fill="#D0D0D8" d="M191.408,179.517h9.128c0,0,3.884,13.012-4.564,12.705C187.524,191.914,191.408,179.517,191.408,179.517z"
		/>
	<path fill="#D47476" d="M197.179,183.513L197.179,183.513c-0.664,0-1.207-0.543-1.207-1.206v-3.325
		c0-0.663,0.543-1.206,1.207-1.206l0,0c0.663,0,1.206,0.543,1.206,1.206v3.325C198.385,182.97,197.842,183.513,197.179,183.513z"/>
	<path fill="none" stroke="#4A4A77" stroke-width="2" stroke-linecap="round" stroke-linejoin="round" stroke-miterlimit="10" d="
		M162.628,160.358c0,0-1.651-4.873,5.014-5.082"/>
	<path fill="#FFFFFF" d="M162.908,155.38c0,0-3.882-0.73-5.999,1.695l0.785,19.88l3.079,2.075l-2.315,3.795l4.027,30.495
		L162.908,155.38z"/>
	<path fill="none" stroke="#4A4A77" stroke-width="2" stroke-linecap="round" stroke-linejoin="round" stroke-miterlimit="10" d="
		M184.18,155.323c0,0,5.693,0.26,4.263,4.697"/>
	<path fill="#FFFFFF" d="M188.409,155.38c0,0,3.882-0.73,5.998,1.695l-0.785,19.88l-3.078,2.075l2.314,3.795l-4.027,30.495
		L188.409,155.38z"/>
</g>
</svg>
