<?xml version="1.0" encoding="utf-8"?>
<!-- Generator: Adobe Illustrator 16.0.0, SVG Export Plug-In . SVG Version: 6.00 Build 0)  -->
<!DOCTYPE svg PUBLIC "-//W3C//DTD SVG 1.1//EN" "http://www.w3.org/Graphics/SVG/1.1/DTD/svg11.dtd">
<svg version="1.1" id="Layer_1" xmlns="http://www.w3.org/2000/svg" xmlns:xlink="http://www.w3.org/1999/xlink" x="0px" y="0px"
	 width="350px" height="350px" viewBox="0 0 350 350" enable-background="new 0 0 350 350" xml:space="preserve">
<g id="nurse">
	<g>
		<ellipse fill="#D1D3D4" cx="175" cy="306.705" rx="44" ry="5.867"/>
		<g>
			<polygon fill="#F7CDB9" points="170.152,301.036 160.969,301.036 157.908,222.866 173.212,222.866 			"/>
			<polygon fill="#F7CDB9" points="157.908,224.779 172.906,230.698 173.212,222.866 157.908,222.866 			"/>
			<polygon fill="#F1F1F1" points="170.54,291.401 160.581,291.401 160.961,300.839 170.16,300.839 			"/>
			<path fill="#E6E7E8" d="M172.578,303.563c0,4.123-18.365,4.123-18.365,0c0-4.124,4.111-5.889,9.183-5.889
				S172.578,299.438,172.578,303.563z"/>
		</g>
		<g>
			<polygon fill="#F7CDB9" points="187.752,298.74 178.569,298.74 175.508,222.866 190.813,222.866 			"/>
			<polygon fill="#F7CDB9" points="175.508,224.779 190.506,230.698 190.813,222.866 175.508,222.866 			"/>
			<polygon fill="#F1F1F1" points="188.141,291.401 178.181,291.401 178.562,300.839 187.76,300.839 			"/>
			<path fill="#E6E7E8" d="M193.873,303.563c0,4.123-18.365,4.123-18.365,0c0-4.124,4.112-5.889,9.182-5.889
				C189.762,297.674,193.873,299.438,193.873,303.563z"/>
		</g>
	</g>
	<g>
		<rect x="165.617" y="100.241" fill="#F7CDB9" width="17.6" height="35.495"/>
		<polygon fill="#F7CDB9" points="165.617,101.835 165.617,103.086 183.217,109.235 183.217,101.835 		"/>
	</g>
	<g>
		<path fill="#EEEEEE" d="M203.112,135.076c4.326-13.425-4.326-27.027-18.61-27.027l-10.085,14.922l-10.086-14.922
			c-14.283,0-22.936,13.602-18.61,27.027l3.685,2.66c0,0,6.589,7.509-2.316,43.426h27.327h27.327
			c-8.905-35.917-2.316-43.426-2.316-43.426L203.112,135.076z"/>
		<path fill="#EEEEEE" d="M195.469,170.45h-21.052h-21.052c0,0-10.36,8.975-0.229,53.84c0.065,0.291,0.471,0.489,0.769,0.489h20.512
			h20.512c0.298,0,0.704-0.198,0.77-0.489C205.828,179.425,195.469,170.45,195.469,170.45z"/>
		<path fill="#E6E7E8" d="M149.353,181.162l50.784,8.88c-0.029-3.524-0.282-6.456-0.655-8.88H149.353L149.353,181.162z"/>
		<circle fill="#E6E7E8" cx="174.417" cy="132.464" r="1.913"/>
		<circle fill="#E6E7E8" cx="174.495" cy="126.999" r="1.913"/>
		<g>
			<path fill="#FFFFFF" d="M165.096,108.049c-1.175,0-3.042,0.103-4.085,0.284c0.177,7.953,1.984,23.433,13.406,14.639
				L165.096,108.049z"/>
			<path fill="#FFFFFF" d="M183.737,108.049c1.176,0,3.042,0.103,4.085,0.284c-0.176,7.953-1.983,23.433-13.405,14.639
				L183.737,108.049z"/>
		</g>
	</g>
	<g>
		<polygon fill="#D1D3D4" points="167.323,133.768 166.528,134.227 160.394,123.602 159.897,120.906 		"/>
		<polygon fill="#D6D6D6" points="184.349,153.844 175.402,159.009 163.098,137.698 166.28,132.879 172.044,132.533 		"/>
		<polygon fill="#F15D44" points="175.057,155.829 164.479,137.508 166.926,133.997 171.189,133.635 181.767,151.955 		"/>
		
			<rect x="180.488" y="155.843" transform="matrix(0.866 -0.5001 0.5001 0.866 -55.5145 112.3173)" fill="#D1D3D4" width="2.582" height="7.765"/>
		
			<rect x="173.96" y="150.444" transform="matrix(0.866 -0.5 0.5 0.866 -52.622 109.4084)" fill="#42404D" width="7.748" height="4.895"/>
		
			<rect x="179.087" y="162.218" transform="matrix(0.866 -0.5 0.5 0.866 -57.3185 114.0968)" fill="#D1D3D4" width="10.33" height="3.581"/>
		
			<rect x="173.787" y="153.038" transform="matrix(0.866 -0.5 0.5 0.866 -53.4403 110.2266)" fill="#D1D3D4" width="10.33" height="3.58"/>
		<g>
			
				<rect x="171.489" y="133.6" transform="matrix(0.8657 -0.5005 0.5005 0.8657 -43.9476 104.15)" fill="#A7A9AC" width="1.292" height="0.765"/>
			
				<rect x="178.916" y="146.462" transform="matrix(0.866 -0.5 0.5 0.866 -49.3638 109.4443)" fill="#A7A9AC" width="1.291" height="0.764"/>
			
				<rect x="173.346" y="136.815" transform="matrix(0.8661 -0.4998 0.4998 0.8661 -45.2807 105.3261)" fill="#A7A9AC" width="1.292" height="0.765"/>
			
				<rect x="175.203" y="140.031" transform="matrix(0.8661 -0.4998 0.4998 0.8661 -46.6397 106.6846)" fill="#A7A9AC" width="1.292" height="0.766"/>
			
				<rect x="177.06" y="143.246" transform="matrix(0.8657 -0.5006 0.5006 0.8657 -48.03 108.2448)" fill="#A7A9AC" width="1.291" height="0.765"/>
		</g>
	</g>
	<g>
		<path fill="#F7CDB9" d="M215.537,161.627l-4.754-18.319l-10.383,2.639l3.464,13.347l-18.661,5.25
			c-2.839,0.833-4.465,3.809-3.632,6.648c0.686,2.335,2.821,3.85,5.138,3.85c0.499,0,1.007-0.07,1.511-0.219l23.641-6.711
			C214.636,167.298,216.265,164.427,215.537,161.627z"/>
		<path fill="#F7CDB9" d="M193.878,166.471c-0.523,0-1.044-0.213-1.422-0.632c-0.748-0.823-1.894-1.63-2.313-1.63
			c-0.001,0-0.001,0-0.001,0c-1.034,0.225-2.033-0.434-2.258-1.466c-0.224-1.033,0.45-2.054,1.482-2.278
			c2.64-0.577,5.21,2.008,5.933,2.813c0.707,0.785,0.643,1.995-0.144,2.701C194.79,166.309,194.333,166.471,193.878,166.471z"/>
		<polygon fill="#F7CDB9" points="203.864,159.294 209.165,157.808 203.279,157.042 		"/>
		<path fill="#E6E7E8" d="M198.064,140.958c0,0.004-0.001,0.011-0.001,0.016c-0.758,2.833-1.404,7.858-0.631,16.327l-5.107-28.188
			L198.064,140.958z"/>
		<path fill="#EEEEEE" d="M198.618,146.4c-3.104-12.873-8.998-19.472-9.058-19.537l9.868-12.125
			c0.878,0.933,9.252,11.279,13.303,28.073L198.618,146.4z"/>
	</g>
	<g>
		<path fill="#E6E7E8" d="M150.77,140.958c0,0.004,0,0.011,0.001,0.016c0.758,2.833,1.404,7.858,0.631,16.327l5.107-28.188
			L150.77,140.958z"/>
		<path fill="#F7CDB9" d="M176.463,150.568c-0.894-2.82-3.904-4.383-6.725-3.488l-23.11,7.32l1.734-9.212l-10.421-2.513
			l-3.642,18.511c-0.382,1.861,0.251,3.785,1.663,5.057c0.998,0.899,2.28,1.376,3.585,1.376c0.541,0,1.085-0.082,1.617-0.25
			l31.811-10.077C175.794,156.399,177.356,153.388,176.463,150.568z"/>
		<path fill="#F7CDB9" d="M165.123,153.104c-0.161,0-0.325-0.02-0.489-0.063c-1.021-0.269-1.631-1.315-1.362-2.337
			c0.365-1.383,1.149-3.855,2.306-4.872c0.794-0.697,2.002-0.619,2.7,0.176c0.697,0.793,0.619,2.002-0.175,2.699
			c-0.243,0.29-0.802,1.726-1.13,2.972C166.746,152.537,165.971,153.104,165.123,153.104z"/>
		<polygon fill="#F7CDB9" points="146.628,154.4 140.821,156.477 147.168,151.526 		"/>
		<path fill="#EEEEEE" d="M150.215,146.4l-14.113-3.588c4.051-16.794,13.375-28.168,14.253-29.101l8.872,13.201l0.046-0.049
			C159.214,126.929,153.32,133.528,150.215,146.4z"/>
	</g>
	<g>
		<circle fill="#2D1B10" cx="194.823" cy="82.212" r="10.458"/>
		<path fill="#F7CDB9" d="M174.417,46.757c-8.452,0-19.131,10.678-19.131,19.131v19.896c0,8.452,10.679,19.13,19.131,19.13
			s19.131-10.679,19.131-19.13V65.888C193.548,57.435,182.869,46.757,174.417,46.757z"/>
		<path fill="#3C2415" d="M174.417,40.95c-28.19,0-25.512,36.075-18.343,41.803c0,0-6.585-27.883,18.343-27.845
			c24.929-0.038,18.342,27.845,18.342,27.845C199.929,77.024,202.606,40.95,174.417,40.95z"/>
		<g>
			<path fill="#F7CDB9" d="M155.286,73.845c-2.113,0-3.826,1.713-3.826,3.826v3.979c0,2.113,1.713,3.826,3.826,3.826
				c2.113,0,3.826-1.712,3.826-3.826v-3.979C159.112,75.558,157.399,73.845,155.286,73.845z"/>
			<path fill="#F7CDB9" d="M193.548,73.845c-2.113,0-3.826,1.713-3.826,3.826v3.979c0,2.113,1.713,3.826,3.826,3.826
				c2.112,0,3.826-1.712,3.826-3.826v-3.979C197.374,75.558,195.66,73.845,193.548,73.845z"/>
		</g>
		<path fill="#3C2415" d="M188.738,70.997c-1.771-1.469-3.141-3.153-3.928-4.825c2.932,2.481,7.3,4.116,10.842,4.059
			c-4.678-6.892-2.683-18.737-7.367-21.276c-24.746-13.406-31.983,8.816-31.983,8.816s-6.946,16.261-1.016,16.075
			c3.804-0.12,8.707-8.703,11.736-14.845c2.771,3.887,6.968,7.687,11.46,9.694c-1.845-1.814-3.039-3.861-3.353-5.745
			C178.331,66.591,183.534,69.667,188.738,70.997z"/>
		<path opacity="0.6" fill="#F7CDB9" d="M197.268,76.811c-0.354-1.537-1.632-2.705-3.219-2.915
			c-0.166-0.022-0.329-0.051-0.501-0.051v-3.779c-3.056-0.451-6.365-1.887-8.737-3.895c0.787,1.672,2.157,3.356,3.928,4.825
			c-5.204-1.33-10.407-4.406-13.609-8.047c0.314,1.884,1.508,3.931,3.353,5.745c-1.395-0.624-2.76-1.421-4.065-2.339v11.393
			c-2.792,5.936-3.826,12.243-3.826,12.243l3.826,0.765v14.157c8.452,0,19.131-10.679,19.131-19.13v-0.307
			c2.112,0,3.826-1.712,3.826-3.826v-3.979C197.374,77.375,197.332,77.088,197.268,76.811z"/>
		<g>
			<g>
				<circle fill="#F7CDB9" cx="164.852" cy="79.021" r="3.022"/>
				<circle fill="#3C2415" cx="164.852" cy="78.256" r="3.022"/>
				<circle fill="#FFFFFF" cx="165.878" cy="77.313" r="0.756"/>
				<path fill="#3C2415" d="M168.527,75.841c-0.558-1.294-1.986-2.276-3.555-2.444c-0.961-0.104-2.766,0.038-4.317,2.001
					c-0.006,0.001-0.012,0.003-0.03,0.004c-0.044,0.001-0.112,0.003-0.199-0.006c-0.172-0.015-0.413-0.071-0.646-0.171
					c-0.476-0.191-0.872-0.592-0.872-0.592c-0.028-0.026-0.072-0.036-0.109-0.018c-0.046,0.022-0.066,0.079-0.043,0.126
					c0,0,0.059,0.13,0.174,0.32c0.112,0.19,0.289,0.436,0.514,0.65c0.223,0.216,0.489,0.4,0.713,0.511
					c0.111,0.057,0.212,0.096,0.287,0.123c0.072,0.025,0.147,0.04,0.135,0.038c0.208,0.021,0.398-0.09,0.49-0.265
					c1.016-1.418,2.374-2.116,3.823-1.96c1.281,0.137,2.487,0.954,2.932,1.986c0.085,0.194,0.31,0.283,0.503,0.2
					C168.521,76.26,168.611,76.036,168.527,75.841z"/>
			</g>
			<g>
				<circle fill="#F7CDB9" cx="183.982" cy="79.021" r="3.022"/>
				<circle fill="#3C2415" cx="183.982" cy="78.256" r="3.022"/>
				<circle fill="#FFFFFF" cx="185.008" cy="77.313" r="0.755"/>
				<path fill="#3C2415" d="M180.307,75.841c0.558-1.294,1.985-2.276,3.555-2.444c0.961-0.104,2.766,0.038,4.316,2.001
					c0.007,0.001,0.013,0.003,0.03,0.004c0.044,0.001,0.112,0.003,0.199-0.006c0.172-0.015,0.411-0.071,0.646-0.171
					c0.476-0.191,0.872-0.592,0.872-0.592c0.027-0.026,0.072-0.036,0.108-0.018c0.047,0.022,0.066,0.079,0.044,0.126
					c0,0-0.06,0.13-0.174,0.32c-0.112,0.19-0.289,0.436-0.515,0.65c-0.223,0.216-0.488,0.4-0.713,0.511
					c-0.11,0.057-0.212,0.096-0.287,0.123c-0.071,0.025-0.146,0.04-0.134,0.038c-0.209,0.021-0.398-0.09-0.49-0.265
					c-1.015-1.418-2.373-2.116-3.823-1.96c-1.282,0.137-2.488,0.954-2.932,1.986c-0.085,0.194-0.311,0.283-0.504,0.2
					C180.313,76.26,180.223,76.036,180.307,75.841z"/>
			</g>
		</g>
		<g>
			<path fill="#F1F2F2" d="M188.01,58.06c-8.853-2.75-18.333-2.75-27.187,0c-2.025-5.852-4.125-11.68-6.301-17.481
				c12.93-4.201,26.858-4.201,39.789,0C192.135,46.38,190.034,52.208,188.01,58.06z"/>
			<polygon fill="#65C6BB" points="180.156,44.717 176.625,44.717 176.625,41.185 172.209,41.185 172.209,44.717 168.678,44.717 
				168.678,49.132 172.209,49.132 172.209,52.664 176.625,52.664 176.625,49.132 180.156,49.132 			"/>
		</g>
	</g>
</g>
</svg>
