<?xml version="1.0" encoding="utf-8"?>
<!-- Generator: Adobe Illustrator 16.0.0, SVG Export Plug-In . SVG Version: 6.00 Build 0)  -->
<!DOCTYPE svg PUBLIC "-//W3C//DTD SVG 1.1//EN" "http://www.w3.org/Graphics/SVG/1.1/DTD/svg11.dtd">
<svg version="1.1" id="Layer_1" xmlns="http://www.w3.org/2000/svg" xmlns:xlink="http://www.w3.org/1999/xlink" x="0px" y="0px"
	 width="350px" height="350px" viewBox="0 0 350 350" enable-background="new 0 0 350 350" xml:space="preserve">
<g>
	<path fill="#F5AF98" d="M222.462,100.181c0.032,2.032-0.08,4.055-0.353,6.051c0,0-0.805,6.516-4.567,14.227
		c-2.208,4.532-5.436,9.474-10.121,13.752c-6.884,6.289-16.912,11.141-31.466,11.141c-16.752,0-27.764-4.824-34.998-11.067
		c-4.279-3.692-7.24-7.88-9.285-11.865c-4.292-8.364-4.554-15.813-4.554-15.813s-0.115-1.266-0.055-3.439
		c0.196-6.275,1.933-20.175,12.544-33.379c18.55-2.638,50.49-6.224,69.595-2.945C217.174,76.297,222.279,88.429,222.462,100.181z"/>
	<polygon fill="#F5AF98" points="169.347,144.406 182.106,144.663 182.106,153.38 169.347,153.38 	"/>
	<g opacity="0.45">
		<g>
			<defs>
				<rect id="SVGID_14_" x="161.676" y="112.984" width="58.836" height="32.519"/>
			</defs>
			<clipPath id="SVGID_1_">
				<use xlink:href="#SVGID_14_"  overflow="visible"/>
			</clipPath>
			<g clip-path="url(#SVGID_1_)">
				<defs>
					<polygon id="SVGID_16_" points="161.676,145.311 220.082,145.311 220.512,112.984 161.676,113.534 					"/>
				</defs>
				<clipPath id="SVGID_2_">
					<use xlink:href="#SVGID_16_"  overflow="visible"/>
				</clipPath>
				<path clip-path="url(#SVGID_2_)" fill="#D69B64" d="M220.082,113.534c0,0-20.571,38.266-58.406,30.236
					C161.676,143.771,206.35,156.385,220.082,113.534"/>
			</g>
		</g>
	</g>
	<g opacity="0.45">
		<g>
			<defs>
				<rect id="SVGID_13_" x="169.347" y="144.878" width="12.76" height="3.602"/>
			</defs>
			<clipPath id="SVGID_3_">
				<use xlink:href="#SVGID_13_"  overflow="visible"/>
			</clipPath>
			<g clip-path="url(#SVGID_3_)">
				<defs>
					<rect id="SVGID_15_" x="169.347" y="144.878" width="12.76" height="3.602"/>
				</defs>
				<clipPath id="SVGID_4_">
					<use xlink:href="#SVGID_15_"  overflow="visible"/>
				</clipPath>
				<path clip-path="url(#SVGID_4_)" fill="#D69B64" d="M169.347,144.878c0,0,7.081,0.179,12.76,0.259v3.343
					c0,0-12.625-2.669-12.76-2.722V144.878z"/>
			</g>
		</g>
	</g>
	<path fill="#F5AF98" d="M127.994,102.472c0,0-6.716,0.812-4.729,5.914c1.988,5.104,2.069,6.425,3.395,6.509
		c1.323,0.084,3.072-0.357,3.072-0.357L127.994,102.472z"/>
	<path fill="#EFD6B9" d="M128.253,107.112c0,0-3.436,0.785-1.16,4.345L128.253,107.112z"/>
	<path fill="none" stroke="#D3A981" stroke-width="2.5555" stroke-linecap="round" stroke-miterlimit="10" d="M128.253,107.112
		c0,0-3.436,0.785-1.16,4.345"/>
	<path fill="#F5AF98" d="M222.005,101.177c0,0,6.718,0.812,4.73,5.913c-1.988,5.104-2.069,6.426-3.396,6.51
		c-1.321,0.083-3.071-0.357-3.071-0.357L222.005,101.177z"/>
	<path fill="none" stroke="#D3A981" stroke-width="2.5555" stroke-linecap="round" stroke-miterlimit="10" d="M221.747,105.817
		c0,0,3.436,0.784,1.159,4.346"/>
	<path fill="#9462A3" d="M149.732,159.628c-0.079-0.116-0.094-0.219-0.042-0.324C149.69,159.305,149.706,159.418,149.732,159.628z"
		/>
	<g>
		<path fill="#824323" d="M186.896,89.235c0,0,1.397-0.363,3.487-0.784c0.522-0.101,1.088-0.21,1.687-0.325
			c0.59-0.142,1.244-0.174,1.928-0.23c1.365-0.133,2.837-0.164,4.332-0.222c0.737-0.001,1.462-0.015,2.197-0.065
			c0.731-0.042,1.454-0.058,2.124,0.063c0.665,0.132,1.304,0.325,1.851,0.659c0.557,0.308,1.065,0.656,1.519,1.023
			c0.456,0.36,0.856,0.741,1.196,1.119c0.342,0.375,0.629,0.727,0.853,1.054c0.226,0.319,0.394,0.594,0.501,0.802
			c0.107,0.208,0.165,0.318,0.165,0.318l-0.201,0.67c0,0-0.109,0.065-0.314,0.188c-0.204,0.123-0.494,0.272-0.851,0.432
			c-0.359,0.167-0.78,0.326-1.251,0.479c-0.472,0.157-0.987,0.287-1.53,0.374c-0.546,0.094-1.119,0.146-1.709,0.141
			c-0.593,0-1.196,0.012-1.795-0.136c-0.599-0.137-1.188-0.422-1.788-0.735c-0.599-0.307-1.22-0.648-1.847-0.855
			c-1.247-0.393-2.518-0.758-3.723-1.204c-0.602-0.218-1.188-0.418-1.788-0.563c-0.588-0.161-1.143-0.313-1.655-0.454
			c-2.051-0.58-3.414-1.049-3.414-1.049L186.896,89.235z"/>
	</g>
	<g>
		<path fill="#824323" d="M166.16,89.935c0,0-1.364,0.469-3.414,1.049c-0.513,0.141-1.068,0.293-1.656,0.454
			c-0.599,0.146-1.187,0.345-1.789,0.563c-1.205,0.446-2.475,0.811-3.722,1.204c-0.628,0.207-1.248,0.548-1.847,0.855
			c-0.601,0.313-1.189,0.598-1.788,0.735c-0.598,0.148-1.202,0.137-1.795,0.136c-0.589,0.005-1.163-0.047-1.708-0.141
			c-0.543-0.087-1.059-0.217-1.531-0.374c-0.47-0.153-0.891-0.311-1.25-0.479c-0.357-0.16-0.647-0.31-0.852-0.432
			c-0.205-0.122-0.314-0.188-0.314-0.188l-0.201-0.67c0,0,0.057-0.111,0.165-0.318c0.108-0.208,0.276-0.483,0.502-0.802
			c0.224-0.327,0.51-0.679,0.852-1.054c0.34-0.378,0.741-0.759,1.197-1.119c0.454-0.367,0.962-0.715,1.518-1.024
			c0.547-0.333,1.186-0.527,1.852-0.659c0.67-0.122,1.392-0.105,2.124-0.064c0.736,0.051,1.46,0.065,2.197,0.066
			c1.495,0.059,2.967,0.089,4.333,0.222c0.684,0.056,1.337,0.088,1.927,0.23c0.599,0.115,1.165,0.225,1.687,0.325
			c2.09,0.42,3.487,0.784,3.487,0.784L166.16,89.935z"/>
	</g>
	<path fill="#824323" d="M224.541,101.921c0,0-1.64,0.932-2.076-0.666c-0.361-1.318-0.042-5.01-0.718-6.638
		c-3.892-9.375-10.57-26.886-16.445-27.181c-8.138-0.414-21.585,19.076-52.836,0.679c0,0-17.579,7.42-24.348,25.916
		c-0.465,1.268,0.23,7.066-0.124,8.44c-0.354,1.374-0.93,0.696-1.68,0.404c0,0-1.03-4.441-1.706-10.027
		c-1.776-14.701-3.183-41.494,10.057-42.189c18.265-0.961,13.66-24.61,39.825-21.245c26.166,3.365,20.166,15.316,34.145,9.066
		c0,0-0.07,0.423-0.198,1.077l-0.003,0.003c-0.411,2.051-1.424,6.339-2.76,6.721C206.244,46.172,233.357,42.848,224.541,101.921z"/>
	<g opacity="0.4">
		<image overflow="visible" width="91" height="91" xlink:href="5F5201D.png"  transform="matrix(1 0 0 1 160 79)">
		</image>
	</g>
	<g opacity="0.4">
		<image overflow="visible" width="90" height="91" xlink:href="5F5201F.png"  transform="matrix(1 0 0 1 99 79)">
		</image>
	</g>
	<path fill="#683118" d="M208.635,38.48c0,0-0.07,0.423-0.198,1.077l-0.003,0.003c-11.695,10.266-26.551-5.141-37.662-5.782
		c-11.108-0.641-14.954,16.88-31.729,19.444c-16.771,2.564-13.993,40.809-13.993,40.809l-0.442-1.183
		c-1.776-14.701-3.183-41.494,10.057-42.189c18.265-0.961,13.66-24.61,39.825-21.245C200.655,32.779,194.655,44.73,208.635,38.48z"
		/>
	<path fill="#683118" d="M223.686,94.032l-1.343,0.586c-3.891-9.375-11.166-26.886-17.041-27.181
		c-8.138-0.414-21.585,19.076-52.836,0.679c0,0-17.579,7.42-24.348,25.916h-0.833c0,0,10.371-28.37,24.258-28.498
		c0,0,15.384,9.057,28.203,6.919c12.82-2.137,19.656-8.714,26.066-6.919C212.221,67.325,224.909,87.884,223.686,94.032z"/>
	<circle fill="#502911" cx="157.338" cy="107.271" r="4.825"/>
	<circle fill="#502911" cx="190.678" cy="107.599" r="4.825"/>
	<path fill="#440A0E" d="M166.425,128.992c0,0,0.231,0.175,0.635,0.479c0.102,0.076,0.214,0.159,0.335,0.251
		c0.121,0.093,0.264,0.164,0.408,0.256c0.145,0.085,0.298,0.178,0.46,0.273c0.082,0.047,0.159,0.103,0.249,0.144
		c0.091,0.044,0.184,0.087,0.278,0.129c0.188,0.088,0.383,0.18,0.585,0.274c0.099,0.051,0.205,0.089,0.315,0.123
		c0.108,0.036,0.22,0.072,0.332,0.109c0.11,0.038,0.222,0.074,0.335,0.114c0.112,0.041,0.228,0.079,0.35,0.101
		c0.237,0.052,0.48,0.106,0.727,0.162c0.121,0.033,0.249,0.046,0.376,0.058c0.127,0.011,0.256,0.028,0.384,0.04
		c0.126,0.015,0.256,0.03,0.385,0.045c0.13,0.01,0.262,0.005,0.394,0.01c0.262-0.001,0.524,0.021,0.788,0.002
		c0.263-0.022,0.527-0.043,0.792-0.066c0.261-0.03,0.522-0.091,0.781-0.145c0.126-0.03,0.257-0.05,0.381-0.086l0.374-0.123
		c0.246-0.086,0.493-0.146,0.729-0.245c0.235-0.097,0.47-0.178,0.705-0.251c0.232-0.073,0.454-0.17,0.682-0.237
		c0.229-0.07,0.454-0.131,0.668-0.216c0.212-0.077,0.429-0.142,0.636-0.212c0.21-0.064,0.4-0.153,0.597-0.216
		c0.196-0.066,0.385-0.132,0.563-0.194c0.177-0.068,0.345-0.137,0.508-0.195c0.326-0.116,0.623-0.209,0.857-0.308
		c0.24-0.091,0.44-0.158,0.578-0.201c0.14-0.041,0.218-0.06,0.218-0.06l0.15,0.172c0,0-0.033,0.07-0.104,0.2
		c-0.07,0.127-0.179,0.311-0.327,0.539c-0.077,0.109-0.156,0.242-0.257,0.371c-0.103,0.125-0.215,0.258-0.344,0.398
		c-0.122,0.144-0.262,0.288-0.405,0.441c-0.153,0.144-0.322,0.291-0.501,0.438c-0.179,0.148-0.364,0.307-0.571,0.449
		c-0.211,0.134-0.425,0.279-0.657,0.415c-0.115,0.066-0.228,0.144-0.351,0.206c-0.126,0.058-0.251,0.12-0.38,0.177
		c-0.258,0.112-0.521,0.232-0.801,0.318c-0.566,0.164-1.16,0.296-1.78,0.336c-0.151,0.017-0.306,0.032-0.461,0.048
		c-0.153,0.012-0.311,0.008-0.466,0.012c-0.312-0.002-0.62,0.033-0.933,0.018c-0.31-0.018-0.62-0.031-0.93-0.049
		c-0.307-0.021-0.612-0.086-0.912-0.127c-0.152-0.025-0.301-0.042-0.449-0.074c-0.146-0.04-0.29-0.08-0.434-0.119
		c-0.144-0.041-0.286-0.08-0.427-0.12c-0.141-0.039-0.282-0.077-0.414-0.135c-0.267-0.11-0.528-0.214-0.785-0.318
		c-0.129-0.048-0.25-0.11-0.369-0.177c-0.115-0.064-0.232-0.128-0.347-0.191c-0.113-0.063-0.227-0.125-0.336-0.187
		c-0.112-0.059-0.219-0.122-0.317-0.196c-0.198-0.143-0.388-0.278-0.571-0.41c-0.092-0.065-0.181-0.131-0.267-0.192
		c-0.085-0.066-0.162-0.143-0.239-0.21c-0.151-0.14-0.296-0.273-0.43-0.396c-0.131-0.125-0.267-0.233-0.366-0.35
		c-0.098-0.116-0.188-0.223-0.27-0.319c-0.328-0.385-0.514-0.607-0.514-0.607L166.425,128.992z"/>
	<polygon fill="#F5AF98" points="169.091,152.596 145.046,155.3 150.245,189.684 200.988,190.642 206.05,155.3 182.085,152.596 	"/>
	<polygon fill="#D47476" points="167.143,152.815 174.166,161.938 176.176,162.293 178.187,161.938 184.462,152.864 
		191.236,153.628 193.651,226.32 153.411,226.32 160.19,153.597 	"/>
	<path fill="#020202" d="M199.834,213.589l-1.178,101.383l-19.327,0.008v-73.751c0-1.283-0.981-2.308-2.221-2.308
		c-1.162,0-2.146,1.024-2.146,2.308v73.751l-21.5-1.733l-3.017-99.657H199.834z"/>
	<path fill="#2E1C12" d="M175.112,314.338l-21.815-9.539c0,0-3.981,11.172-10.556,10.768c-6.561-0.411-2.435,4.798-1.292,5.256
		c1.131,0.461,33.663-0.971,33.663-0.971V314.338z"/>
	<path fill="#2E1C12" d="M179.329,314.338L199,305.201c0,0,4.613,10.77,10.802,10.365c6.177-0.411,2.292,4.798,1.217,5.256
		c-1.065,0.461-31.689-0.971-31.689-0.971V314.338z"/>
	<path fill="#F5AF98" d="M139.654,230.519l-3.522,12.055c0,0,4.241,6.654,12.303,3.314l-0.873-13.15L139.654,230.519z"/>
	<path fill="#EEEEEE" d="M145.046,155.3l-10.723,75.219l14.759,7.276C149.082,237.795,153.522,171.775,145.046,155.3z"/>
	<path fill="#F5AF98" d="M211.827,226.32l3.521,12.055c0,0-4.24,6.653-12.303,3.313l0.873-13.15L211.827,226.32z"/>
	<path fill="#EEEEEE" d="M206.05,155.3l10.723,75.219l-14.759,7.276C202.014,237.795,197.573,171.775,206.05,155.3z"/>
	<path fill="#EEEEEE" d="M161.776,152.995v114.692c0,0-9.649,2.852-16.73-3.402c0,0,9.335-86.821,0-108.984L161.776,152.995z"/>
	<path fill="#EEEEEE" d="M189.319,152.995v114.692c0,0,9.649,2.852,16.73-3.402c0,0-9.335-86.821,0-108.984L189.319,152.995z"/>
	<path fill="none" stroke="#BA5258" stroke-width="3" stroke-miterlimit="10" d="M176.269,167.918c0,0-0.321,42.108,0.644,45.671"/>
	
		<polyline fill="none" stroke="#F2F2F4" stroke-width="3" stroke-linecap="round" stroke-linejoin="round" stroke-miterlimit="10" points="
		147.413,236.973 149.392,185.605 148.402,180.294 	"/>
	
		<polyline fill="none" stroke="#F2F2F4" stroke-width="3" stroke-linecap="round" stroke-linejoin="round" stroke-miterlimit="10" points="
		204.035,236.328 202.057,184.962 203.046,179.65 	"/>
	<path fill="#D0D0D8" d="M192.031,178.202h9.56c0,0,4.066,13.627-4.779,13.305C187.965,191.186,192.031,178.202,192.031,178.202z"/>
	<path fill="#A5A3CA" d="M198.074,182.387L198.074,182.387c-0.694,0-1.263-0.568-1.263-1.264v-3.481
		c0-0.694,0.568-1.264,1.263-1.264l0,0c0.695,0,1.264,0.569,1.264,1.264v3.481C199.338,181.818,198.77,182.387,198.074,182.387z"/>
	<path fill="none" stroke="#BA5258" stroke-miterlimit="10" d="M161.892,158.137c0,0-1.73-5.103,5.251-5.322"/>
	<path fill="none" stroke="#BA5258" stroke-miterlimit="10" d="M184.462,152.864c0,0,5.962,0.272,4.464,4.918"/>
	<path fill="#022640" d="M174.166,161.938h4.021c0,0,1.802,3.879,0.44,5.979h-4.238
		C174.389,167.918,172.833,163.983,174.166,161.938z"/>
	<path fill="none" stroke="#BA5258" stroke-width="3" stroke-miterlimit="10" d="M161.892,158.137l12.274,9.781
		c-0.872-4.111,0-5.979,0-5.979l-7.023-9.123l-5.366,0.604"/>
	<path fill="none" stroke="#BA5258" stroke-width="3" stroke-miterlimit="10" d="M189.319,157.376l-10.692,10.542
		c0.871-4.111-0.44-5.979-0.44-5.979l6.275-9.074l4.857,0.548"/>
	<path fill="#FFFFFF" d="M162.184,152.924c0,0-4.065-0.765-6.282,1.775l0.822,20.82l3.225,2.174l-2.425,3.974l4.218,31.936
		L162.184,152.924z"/>
	<path fill="#FFFFFF" d="M188.891,152.924c0,0,4.064-0.765,6.281,1.775l-0.821,20.82l-3.225,2.174l2.425,3.974l-4.219,31.936
		L188.891,152.924z"/>
	<polygon fill="#022640" points="174.389,167.918 170.338,204.22 176.564,210.665 181.809,204.371 178.627,167.918 	"/>
	<g>
		<path fill="none" stroke="#0A1835" stroke-width="4" stroke-linecap="round" stroke-linejoin="round" stroke-miterlimit="10" d="
			M164.094,180.433c0,0,0.022-9.183-0.617-18.706c-0.72-10.726,5.059-9.756,5.059-9.756"/>
		<path fill="none" stroke="#CCCCCC" stroke-width="3" stroke-miterlimit="10" d="M159.629,191.936c0,0-0.145,7.35,4.094,7.081"/>
		<path fill="none" stroke="#CCCCCC" stroke-width="3" stroke-miterlimit="10" d="M170.33,191.936c0,0,0.145,7.35-4.094,7.081"/>
		<path fill="#0A1835" d="M164.024,199.848h-0.483c-0.387,0-0.704-0.316-0.704-0.704l0,0c0-0.387,0.317-0.704,0.704-0.704h0.483
			c0.387,0,0.704,0.317,0.704,0.704l0,0C164.729,199.531,164.412,199.848,164.024,199.848z"/>
		<path fill="#0A1835" d="M166.138,199.848h-0.482c-0.387,0-0.704-0.316-0.704-0.704l0,0c0-0.387,0.317-0.704,0.704-0.704h0.482
			c0.387,0,0.704,0.317,0.704,0.704l0,0C166.842,199.531,166.525,199.848,166.138,199.848z"/>
		<path fill="none" stroke="#0A1835" stroke-width="4" stroke-linecap="round" stroke-linejoin="round" stroke-miterlimit="10" d="
			M159.699,192.847c0,0-1.368-12.744,4.869-12.407s5.753,12.407,5.753,12.407"/>
		<path fill="none" stroke="#0A1835" stroke-width="4" stroke-linecap="round" stroke-linejoin="round" stroke-miterlimit="10" d="
			M182.579,151.949c0,0,5.896-0.488,5.917,6.794c0.022,7.282-0.681,26.541-0.681,26.541"/>
		<circle fill="#CCCCCC" stroke="#0A1835" stroke-width="2" stroke-miterlimit="10" cx="187.816" cy="186.202" r="3.064"/>
	</g>
	<path opacity="0.36" fill="#FFFFFF" d="M168.293,117.39h-22.064c-2.054,0-3.735-1.681-3.735-3.734v-5.004
		c0-2.054,1.681-3.734,3.735-3.734h22.064c2.054,0,3.734,1.681,3.734,3.734v5.004C172.028,115.709,170.347,117.39,168.293,117.39z"
		/>
	<path fill="none" stroke="#2C2C3A" stroke-width="2" stroke-miterlimit="10" d="M168.293,117.39h-22.064
		c-2.054,0-3.735-1.681-3.735-3.734v-5.004c0-2.054,1.681-3.734,3.735-3.734h22.064c2.054,0,3.734,1.681,3.734,3.734v5.004
		C172.028,115.709,170.347,117.39,168.293,117.39z"/>
	<path opacity="0.36" fill="#FFFFFF" d="M202.126,117.39h-22.065c-2.054,0-3.734-1.681-3.734-3.734v-5.004
		c0-2.054,1.681-3.734,3.734-3.734h22.065c2.054,0,3.734,1.681,3.734,3.734v5.004C205.86,115.709,204.18,117.39,202.126,117.39z"/>
	<path fill="none" stroke="#2C2C3A" stroke-width="2" stroke-miterlimit="10" d="M202.126,117.39h-22.065
		c-2.054,0-3.734-1.681-3.734-3.734v-5.004c0-2.054,1.681-3.734,3.734-3.734h22.065c2.054,0,3.734,1.681,3.734,3.734v5.004
		C205.86,115.709,204.18,117.39,202.126,117.39z"/>
	<path fill="none" stroke="#2C2C3A" stroke-width="2" stroke-miterlimit="10" d="M171.63,108.989c0,0,2.626-2.526,5.092,0"/>
</g>
</svg>
