<?xml version="1.0" encoding="utf-8"?>
<!-- Generator: Adobe Illustrator 16.0.0, SVG Export Plug-In . SVG Version: 6.00 Build 0)  -->
<!DOCTYPE svg PUBLIC "-//W3C//DTD SVG 1.1//EN" "http://www.w3.org/Graphics/SVG/1.1/DTD/svg11.dtd">
<svg version="1.1" id="Layer_1" xmlns="http://www.w3.org/2000/svg" xmlns:xlink="http://www.w3.org/1999/xlink" x="0px" y="0px"
	 width="350px" height="350px" viewBox="0 0 350 350" enable-background="new 0 0 350 350" xml:space="preserve">
<g>
	<polygon fill="#F5AF98" points="165.197,271.309 168.783,293.432 172.889,314.378 177.414,315.919 177.414,271.309 	"/>
	<polygon fill="#F5AF98" points="189.148,271.309 185.563,293.432 181.457,314.378 176.932,315.919 176.932,271.309 	"/>
	<path fill="#4582A1" d="M157.676,264.043v5.771c0,0,20.479,6.946,37.789,1.263l0.242-7.034l-5.818-44.437h-23.338L157.676,264.043z
		"/>
	<path fill="#3A1A09" d="M151.747,55.102c0,0-13.269-21.477,22.268-23.249c35.536-1.772,25.157,22.167,25.157,22.167L151.747,55.102
		z"/>
	<path fill="#502911" d="M133.425,122.279c0,0-11.979-15.54-7.168-42.63c4.811-27.09,46.211-31.086,52.651-30.833
		c6.439,0.253,43.658,6.583,45.684,32.914s-7.184,39.779-7.184,39.779L133.425,122.279z"/>
	<path fill="#F2F2F4" d="M166.675,166.494c0,0,11.838-4.031,23.157,0l-0.668,1.028h-21.676L166.675,166.494z"/>
	<g>
		<image overflow="visible" width="79" height="80" xlink:href="9477B562.png"  transform="matrix(1 0 0 1 113 96)">
		</image>
	</g>
	<g>
		<image overflow="visible" width="80" height="80" xlink:href="9477B566.png"  transform="matrix(1 0 0 1 159 96)">
		</image>
	</g>
	<polygon fill="#F5AF98" points="172.067,158.278 183.748,158.515 183.748,166.494 172.067,166.494 	"/>
	<path fill="#F5AF98" d="M216.033,233.243c-8.045-1.579-20.414-32.595-21.301-39.807c-0.137-1.103-0.209-1.747-0.209-1.747
		l-32.444-0.263c0,0-0.01,0.259-0.033,0.732c-0.205,4.679-12.23,40.782-18.842,39.367c-7.096-1.52,7.038-7.16,9.448-40.304
		c0.788-10.828,2.774-20.273,2.774-20.273l16.519-4.854l11.785-0.015l17.191,4.562c0,0,2.436,10.341,3.227,21.727
		C205.139,206.644,221.883,229.611,216.033,233.243L216.033,233.243z"/>
	<g opacity="0.46">
		<g>
			<g>
				<defs>
					<rect id="SVGID_1_" x="172.067" y="158.712" width="11.681" height="3.295"/>
				</defs>
				<clipPath id="SVGID_2_">
					<use xlink:href="#SVGID_1_"  overflow="visible"/>
				</clipPath>
				<g clip-path="url(#SVGID_2_)">
					<defs>
						<rect id="SVGID_3_" x="172.067" y="158.712" width="11.681" height="3.295"/>
					</defs>
					<clipPath id="SVGID_4_">
						<use xlink:href="#SVGID_3_"  overflow="visible"/>
					</clipPath>
				</g>
			</g>
		</g>
		<g>
			<g>
				<defs>
					<rect id="SVGID_5_" x="172.067" y="158.712" width="11.681" height="3.295"/>
				</defs>
				<use xlink:href="#SVGID_5_"  overflow="visible" fill="#EF8066"/>
				<clipPath id="SVGID_6_">
					<use xlink:href="#SVGID_5_"  overflow="visible"/>
				</clipPath>
				<g clip-path="url(#SVGID_6_)">
					<defs>
						<rect id="SVGID_7_" x="172.067" y="158.712" width="11.681" height="3.295"/>
					</defs>
					<use xlink:href="#SVGID_7_"  overflow="visible" fill="#EF8066"/>
					<clipPath id="SVGID_8_">
						<use xlink:href="#SVGID_7_"  overflow="visible"/>
					</clipPath>
					<path clip-path="url(#SVGID_8_)" fill="#EF8066" d="M172.067,158.712c0,0,6.481,0.163,11.681,0.236v3.059
						c0,0-11.557-2.442-11.681-2.49V158.712z"/>
				</g>
			</g>
		</g>
		<g>
			<g>
				<defs>
					<rect id="SVGID_9_" x="172.067" y="158.712" width="11.681" height="3.295"/>
				</defs>
				<clipPath id="SVGID_10_">
					<use xlink:href="#SVGID_9_"  overflow="visible"/>
				</clipPath>
				<g clip-path="url(#SVGID_10_)">
					<defs>
						<rect id="SVGID_11_" x="172.067" y="158.712" width="11.681" height="3.295"/>
					</defs>
					<clipPath id="SVGID_12_">
						<use xlink:href="#SVGID_11_"  overflow="visible"/>
					</clipPath>
				</g>
			</g>
		</g>
	</g>
	<path fill="#EB6D54" d="M180.891,171.489c0,0,0.072-0.115,0.225-0.293c0.152-0.177,0.387-0.422,0.717-0.663
		c0.16-0.123,0.352-0.237,0.561-0.348c0.213-0.098,0.445-0.19,0.699-0.247c0.125-0.031,0.256-0.058,0.389-0.07
		c0.135-0.02,0.27-0.023,0.408-0.022c0.266-0.001,0.527,0.009,0.797,0.012c0.531,0.012,1.064,0.009,1.561,0.028
		c0.498,0.025,0.961,0.08,1.355,0.119c0.791,0.082,1.32,0.197,1.32,0.197c0.014,0.005,0.02,0.016,0.018,0.027
		c-0.002,0.01-0.01,0.018-0.018,0.02c0,0-0.535,0.084-1.338,0.119c-0.402,0.021-0.867,0.013-1.363-0.009
		c-0.498-0.033-1.027-0.093-1.559-0.137c-0.262-0.023-0.533-0.05-0.787-0.063c-0.125-0.009-0.248-0.017-0.369-0.003
		c-0.123,0-0.242,0.017-0.361,0.038c-0.236,0.036-0.457,0.111-0.664,0.187c-0.205,0.086-0.396,0.18-0.561,0.283
		c-0.334,0.205-0.586,0.423-0.748,0.583c-0.166,0.164-0.244,0.269-0.244,0.269c-0.008,0.009-0.023,0.01-0.031,0.004
		C180.885,171.513,180.883,171.5,180.891,171.489L180.891,171.489z"/>
	<g opacity="0.46">
		<g>
			<defs>
				<rect id="SVGID_13_" x="181.176" y="170.098" width="5.703" height="1.09"/>
			</defs>
			<clipPath id="SVGID_14_">
				<use xlink:href="#SVGID_13_"  overflow="visible"/>
			</clipPath>
			<g clip-path="url(#SVGID_14_)">
				<defs>
					<rect id="SVGID_15_" x="181.176" y="170.098" width="5.701" height="1.09"/>
				</defs>
				<clipPath id="SVGID_16_">
					<use xlink:href="#SVGID_15_"  overflow="visible"/>
				</clipPath>
				<path clip-path="url(#SVGID_16_)" fill="#DCA15F" d="M181.18,171.148c0,0,0.234-0.3,0.715-0.606
					c0.121-0.076,0.258-0.152,0.408-0.219c0.152-0.061,0.318-0.123,0.5-0.154c0.178-0.042,0.371-0.055,0.564-0.055h0.549
					c0.184,0,0.369,0,0.551-0.003c0.182-0.011,0.359-0.014,0.529-0.014c0.344,0.007,0.662,0.037,0.939,0.063
					c0.553,0.058,0.924,0.149,0.924,0.149c0.012,0.003,0.02,0.017,0.018,0.029c-0.004,0.01-0.01,0.016-0.018,0.018
					c0,0-0.367,0.104-0.922,0.165c-0.277,0.032-0.604,0.053-0.953,0.049c-0.176-0.003-0.355-0.01-0.539-0.024
					c-0.18-0.02-0.365-0.038-0.549-0.056c-0.186-0.018-0.371-0.036-0.555-0.053c-0.166-0.016-0.334-0.023-0.498,0
					c-0.162,0.014-0.318,0.055-0.465,0.097c-0.146,0.042-0.283,0.096-0.404,0.155c-0.244,0.116-0.434,0.243-0.563,0.335
					c-0.133,0.094-0.199,0.157-0.199,0.157c-0.008,0.007-0.023,0.007-0.031-0.001C181.174,171.17,181.174,171.156,181.18,171.148"/>
			</g>
		</g>
	</g>
	<path fill="#EB6D54" d="M175.5,171.517c0,0-0.08-0.105-0.243-0.27c-0.165-0.159-0.413-0.377-0.748-0.582
		c-0.166-0.103-0.355-0.197-0.56-0.283c-0.208-0.076-0.43-0.151-0.666-0.187c-0.118-0.021-0.239-0.038-0.361-0.038
		c-0.123-0.014-0.245-0.006-0.37,0.003c-0.255,0.014-0.525,0.041-0.788,0.063c-0.529,0.044-1.057,0.104-1.554,0.137
		c-0.499,0.022-0.963,0.03-1.366,0.009c-0.802-0.034-1.336-0.119-1.336-0.119c-0.012-0.002-0.022-0.014-0.019-0.027
		c0-0.009,0.009-0.017,0.018-0.021c0,0,0.529-0.115,1.32-0.197c0.394-0.039,0.858-0.094,1.356-0.119
		c0.499-0.02,1.029-0.016,1.561-0.028c0.268-0.003,0.529-0.013,0.797-0.012c0.138-0.001,0.272,0.002,0.405,0.022
		c0.135,0.012,0.264,0.039,0.391,0.07c0.252,0.056,0.486,0.148,0.698,0.25c0.21,0.107,0.398,0.222,0.563,0.345
		c0.326,0.241,0.562,0.486,0.714,0.663c0.152,0.178,0.226,0.293,0.226,0.293c0.006,0.009,0.003,0.024-0.006,0.032
		C175.521,171.527,175.508,171.525,175.5,171.517L175.5,171.517z"/>
	<g opacity="0.46">
		<g>
			<defs>
				<rect id="SVGID_17_" x="169.614" y="170.098" width="5.727" height="1.184"/>
			</defs>
			<clipPath id="SVGID_18_">
				<use xlink:href="#SVGID_17_"  overflow="visible"/>
			</clipPath>
			<g clip-path="url(#SVGID_18_)">
				<defs>
					<rect id="SVGID_19_" x="169.614" y="170.098" width="5.727" height="1.184"/>
				</defs>
				<clipPath id="SVGID_20_">
					<use xlink:href="#SVGID_19_"  overflow="visible"/>
				</clipPath>
				<path clip-path="url(#SVGID_20_)" fill="#DCA15F" d="M175.301,171.274c0,0-0.064-0.063-0.19-0.165
					c-0.13-0.1-0.315-0.238-0.558-0.366c-0.121-0.065-0.256-0.125-0.4-0.178c-0.147-0.049-0.303-0.097-0.466-0.118
					c-0.163-0.028-0.334-0.028-0.502-0.013c-0.182,0.016-0.371,0.033-0.555,0.049c-0.188,0.02-0.374,0.039-0.556,0.058
					c-0.185,0.016-0.367,0.022-0.544,0.027c-0.354,0.006-0.685-0.016-0.965-0.049c-0.56-0.056-0.932-0.165-0.932-0.165
					c-0.015-0.004-0.022-0.017-0.019-0.028c0.004-0.009,0.009-0.016,0.019-0.016c0,0,0.375-0.094,0.932-0.151
					c0.283-0.027,0.604-0.057,0.952-0.063c0.345,0.003,0.72,0.024,1.093,0.02h0.558c0.198,0,0.393,0.02,0.572,0.066
					c0.363,0.087,0.665,0.254,0.9,0.418c0.235,0.165,0.411,0.327,0.523,0.447c0.115,0.12,0.173,0.195,0.173,0.195
					c0.008,0.012,0.006,0.023-0.002,0.033C175.324,171.285,175.31,171.283,175.301,171.274"/>
			</g>
		</g>
	</g>
	<path fill="#F5AF98" d="M214.77,124.366c0,0,2.055,13.132-6,23.241c-6.873,8.625-22.574,11.605-30.932,11.405
		c-6.65-0.16-12.283-1.06-17.05-2.494c-6.524-1.957-11.439-4.898-15.134-8.289c-12.655-11.597-11.063-28.363-11.063-28.363
		s-8.639-44.448,33.947-45.596C228.045,72.672,214.77,124.366,214.77,124.366z"/>
	<path fill="#F5AF98" d="M134.292,120.917c0,0-4.071-0.372-3.425,4.476c0.646,4.847,2.973,7.805,6.079,7.794L134.292,120.917z"/>
	<path fill="#F5AF98" d="M214.912,120.92c0,0,3.926-1.535,4.119,3.351c0.191,4.886-1.594,8.199-4.658,8.719L214.912,120.92z"/>
	<g>
		<path fill="#502911" d="M204.923,104.364c0,0-1.125-0.756-2.883-1.7c-0.444-0.226-0.926-0.467-1.439-0.702
			c-0.525-0.214-1.046-0.493-1.621-0.695c-0.561-0.233-1.15-0.434-1.744-0.625c-0.586-0.223-1.203-0.341-1.802-0.5
			c-0.604-0.135-1.219-0.17-1.807-0.218c-0.592,0.041-1.156-0.014-1.683-0.009c-0.264-0.001-0.521-0.016-0.774-0.05
			c-0.257-0.046-0.504-0.075-0.743-0.076c-0.24-0.007-0.48-0.041-0.717-0.063c-0.239-0.043-0.471-0.067-0.688-0.06
			c-0.442-0.003-0.873-0.037-1.281-0.086c-0.394-0.01-0.743,0.016-1.057-0.002c-0.621-0.016-1.045-0.071-1.045-0.071l-0.203-0.345
			c0,0,0.183-0.348,0.623-0.875c0.221-0.262,0.5-0.587,0.867-0.898c0.38-0.277,0.839-0.567,1.367-0.851
			c0.523-0.312,1.147-0.432,1.811-0.619c0.167-0.04,0.337-0.08,0.509-0.121c0.171-0.012,0.346-0.032,0.522-0.037
			c0.354-0.02,0.716-0.018,1.084-0.004c0.736,0.032,1.449,0.294,2.172,0.5c0.691,0.287,1.395,0.552,2.063,0.853
			c0.659,0.322,1.331,0.607,1.931,0.983c0.306,0.179,0.611,0.349,0.902,0.533c0.281,0.198,0.559,0.393,0.831,0.585
			c1.092,0.757,2.003,1.585,2.76,2.301c1.508,1.439,2.321,2.564,2.321,2.564L204.923,104.364z"/>
	</g>
	<g>
		<path fill="#502911" d="M147.268,103.529c0,0,0.851-1.098,2.404-2.487c0.78-0.691,1.717-1.489,2.833-2.21
			c0.279-0.183,0.563-0.369,0.85-0.558c0.297-0.175,0.608-0.335,0.919-0.503c0.612-0.356,1.293-0.62,1.962-0.92
			c0.678-0.279,1.389-0.521,2.089-0.786c0.729-0.182,1.45-0.42,2.187-0.428c0.368-0.002,0.731,0.008,1.083,0.04
			c0.177,0.011,0.35,0.036,0.521,0.054c0.17,0.046,0.338,0.092,0.504,0.137c0.656,0.209,1.277,0.349,1.79,0.678
			c0.519,0.301,0.968,0.605,1.339,0.895c0.356,0.323,0.625,0.657,0.837,0.926c0.423,0.542,0.594,0.896,0.594,0.896l-0.215,0.338
			c0,0-0.425,0.042-1.046,0.037c-0.315,0.008-0.663-0.029-1.057-0.032c-0.41,0.036-0.841,0.055-1.283,0.044
			c-0.218-0.015-0.45,0.002-0.691,0.037c-0.236,0.015-0.477,0.041-0.718,0.04c-0.239-0.007-0.487,0.014-0.745,0.051
			c-0.255,0.027-0.512,0.032-0.775,0.025c-0.526-0.022-1.093,0.014-1.683-0.046c-0.589,0.029-1.206,0.044-1.813,0.159
			c-0.603,0.14-1.224,0.237-1.816,0.441c-0.6,0.172-1.196,0.353-1.764,0.568c-0.582,0.184-1.11,0.445-1.643,0.642
			c-0.521,0.218-1.01,0.444-1.461,0.655c-1.788,0.886-2.937,1.605-2.937,1.605L147.268,103.529z"/>
	</g>
	<path fill="#EA5E5F" d="M166.743,136.012c0,0,0.28,0.212,0.769,0.581c0.123,0.092,0.26,0.193,0.407,0.304
		c0.147,0.113,0.32,0.199,0.495,0.309c0.175,0.105,0.361,0.216,0.558,0.334c0.098,0.058,0.192,0.123,0.301,0.175
		c0.11,0.052,0.222,0.104,0.337,0.156c0.227,0.106,0.464,0.218,0.709,0.332c0.12,0.061,0.248,0.107,0.383,0.149
		c0.13,0.042,0.266,0.087,0.402,0.13c0.134,0.046,0.269,0.09,0.406,0.139c0.136,0.05,0.275,0.096,0.423,0.123
		c0.287,0.063,0.583,0.127,0.881,0.194c0.147,0.042,0.302,0.056,0.456,0.071c0.155,0.015,0.31,0.033,0.465,0.048
		c0.154,0.02,0.311,0.037,0.466,0.054c0.158,0.013,0.318,0.007,0.478,0.013c0.317-0.003,0.635,0.025,0.954,0.002
		c0.319-0.028,0.639-0.053,0.959-0.082c0.318-0.036,0.635-0.109,0.947-0.174c0.154-0.036,0.313-0.061,0.463-0.106l0.451-0.148
		c0.301-0.104,0.6-0.176,0.885-0.297c0.287-0.116,0.57-0.215,0.855-0.304c0.281-0.088,0.551-0.206,0.826-0.286
		c0.275-0.086,0.549-0.16,0.809-0.262c0.258-0.095,0.52-0.173,0.771-0.259c0.254-0.076,0.484-0.186,0.723-0.262
		c0.238-0.08,0.467-0.16,0.682-0.234c0.215-0.084,0.418-0.166,0.617-0.236c0.395-0.142,0.754-0.255,1.039-0.374
		c0.291-0.11,0.531-0.19,0.699-0.243c0.168-0.05,0.264-0.074,0.264-0.074l0.184,0.21c0,0-0.041,0.085-0.127,0.242
		c-0.084,0.155-0.217,0.376-0.396,0.651c-0.094,0.134-0.189,0.294-0.311,0.451c-0.125,0.151-0.26,0.313-0.416,0.482
		c-0.148,0.174-0.316,0.349-0.492,0.535c-0.186,0.176-0.391,0.353-0.607,0.53c-0.215,0.18-0.441,0.372-0.691,0.544
		c-0.256,0.163-0.516,0.338-0.797,0.504c-0.141,0.08-0.277,0.173-0.426,0.249c-0.15,0.069-0.303,0.146-0.459,0.214
		c-0.313,0.135-0.633,0.28-0.971,0.386c-0.688,0.197-1.406,0.357-2.158,0.406c-0.184,0.02-0.371,0.04-0.559,0.059
		c-0.186,0.016-0.379,0.009-0.564,0.016c-0.379-0.004-0.752,0.04-1.131,0.02c-0.375-0.02-0.751-0.039-1.127-0.058
		c-0.372-0.027-0.742-0.104-1.105-0.154c-0.184-0.031-0.365-0.051-0.543-0.091c-0.178-0.048-0.352-0.097-0.526-0.144
		c-0.174-0.049-0.346-0.098-0.517-0.145s-0.342-0.094-0.502-0.166c-0.323-0.131-0.64-0.258-0.951-0.384
		c-0.157-0.058-0.304-0.134-0.448-0.214c-0.141-0.079-0.281-0.156-0.42-0.233c-0.138-0.076-0.274-0.152-0.408-0.227
		c-0.135-0.07-0.266-0.146-0.384-0.237c-0.24-0.172-0.471-0.337-0.693-0.496c-0.112-0.08-0.219-0.16-0.323-0.234
		c-0.104-0.078-0.196-0.173-0.29-0.256c-0.184-0.168-0.358-0.328-0.521-0.479c-0.159-0.152-0.322-0.284-0.443-0.423
		c-0.119-0.141-0.228-0.272-0.327-0.389c-0.397-0.466-0.623-0.734-0.623-0.734L166.743,136.012z"/>
	<circle fill="#502911" cx="157.147" cy="121.132" r="5.54"/>
	<circle fill="#502911" cx="195.429" cy="121.508" r="5.54"/>
	<g>
		<image overflow="visible" width="81" height="82" xlink:href="9477B561.png"  transform="matrix(1 0 0 1 113 95)">
		</image>
	</g>
	<g>
		<image overflow="visible" width="82" height="82" xlink:href="9477B563.png"  transform="matrix(1 0 0 1 160 95)">
		</image>
	</g>
	<path fill="#EEEEEE" d="M155.427,170.949l-13.539,49.447l10.578,6.473C152.466,226.869,165.201,193.669,155.427,170.949z"/>
	<path fill="#EEEEEE" d="M201.336,170.753l15.934,51.696l-11.912,6.631C205.357,229.08,191.563,193.473,201.336,170.753z"/>
	<path fill="#025798" d="M172.621,313.598c0,0-0.018,1.309-0.811,1.262c-0.793-0.047-3.47-0.327-3.619,1.588
		s1.239,1.822,2.578,1.775c1.338-0.047,5.999-0.747,6.345-1.448c0.348-0.701,0-1.635,0-1.635S173.662,314.999,172.621,313.598z"/>
	<path fill="#025798" d="M181.648,313.598c0,0,0.016,1.309,0.764,1.262s3.27-0.327,3.41,1.588c0.139,1.915-1.168,1.822-2.43,1.775
		s-5.652-0.747-5.979-1.448c-0.328-0.701,0-1.635,0-1.635S180.666,314.999,181.648,313.598z"/>
	<path fill="#3A1A09" d="M215.332,121.509c0,0,1.629-29.552-9.744-34.613c-11.371-5.06-35.073-13.688-52.169-6.392
		c0,0-3.205-21.307,19.995-21.307S201.939,79.705,207,81.836c5.061,2.13,11.324-0.799,14.852,7.457
		c3.527,8.257-4.512,31.41-4.512,31.41L215.332,121.509z"/>
	<path fill="#3A1A09" d="M153.419,80.504c0,0-11.331,4.129-12.693,9.446c-1.362,5.317-1.329,30.753-9.428,32.796
		c0,0,2.313-5.513,2.498-11.868c0.184-6.355-5.524-16.786,0.672-26.914C140.663,73.837,157.623,71.974,153.419,80.504z"/>
	<polygon fill="#FFFFFF" points="169.614,166.435 177.027,172.558 178.662,175.422 180.465,172.558 186.809,166.435 
		189.164,167.522 188.883,179.294 176.68,185.819 167.797,180.56 166.675,167.522 	"/>
	<path fill="#243746" d="M164.957,172.558c0,0,8.981,8.631,13.411,8.42c4.219-0.2,13.408-8.42,13.408-8.42l-1.887,47.049h-23.338
		L164.957,172.558z"/>
	<path fill="none" stroke="#B8B8C1" stroke-width="2" stroke-linecap="round" stroke-linejoin="round" stroke-miterlimit="10" d="
		M169.614,166.435l7.413,6.123c0,0-1.51,1.578-0.773,5.052l-8.633-5.052"/>
	<path fill="none" stroke="#B8B8C1" stroke-width="2" stroke-linecap="round" stroke-linejoin="round" stroke-miterlimit="10" d="
		M187.252,166.112l-6.826,6.445c0,0,1.51,1.578,0.773,5.052l8.633-5.052"/>
	<polygon fill="#F2F2F4" points="142.363,218.66 141.231,222.291 151.519,229.08 153.135,224.987 	"/>
	<polygon fill="#F2F2F4" points="204.563,226.869 206.146,231.133 218.146,224.659 216.395,219.606 	"/>
	<path fill="none" stroke="#15232D" stroke-width="2" stroke-miterlimit="10" d="M166.675,177.609c0,0,8.315,6.526,11.579,6.421
		c3.262-0.105,11.578-6,11.578-6"/>
	
		<line fill="none" stroke="#1D5A6D" stroke-width="2" stroke-miterlimit="10" x1="162.176" y1="221.896" x2="194.938" y2="221.896"/>
	<path fill="#EEEEEE" d="M167.488,166.494l2.126,96.694c0,0-10.331,2.947-22.213-2.105c0,0,17.799-67.414,8.025-90.134
		C155.427,170.949,162.909,166.494,167.488,166.494z"/>
	<path fill="#EEEEEE" d="M189.164,166.494l-2.127,96.694c0,0,10.332,2.947,22.213-2.105c0,0-17.688-67.61-7.914-90.33
		C201.336,170.753,193.744,166.494,189.164,166.494z"/>
	<path fill="#F2F2F4" d="M162.701,188.507h-1.004c-0.783,0-1.424-0.641-1.424-1.424l0,0c0-0.783,0.641-1.424,1.424-1.424h1.004
		c0.783,0,1.424,0.641,1.424,1.424l0,0C164.125,187.866,163.484,188.507,162.701,188.507z"/>
	<path fill="#DDDDE8" d="M191.629,187.083h5.15c0,0,1.668,8.303-2.576,7.894C189.832,194.556,191.629,187.083,191.629,187.083z"/>
	<path fill="#4582A1" d="M195.059,189.662L195.059,189.662c-0.48,0-0.877-0.396-0.877-0.878v-1.771c0-0.482,0.396-0.877,0.877-0.877
		l0,0c0.484,0,0.879,0.395,0.879,0.877v1.771C195.938,189.267,195.543,189.662,195.059,189.662z"/>
	<path fill="#FFFFFF" d="M167.488,166.494c0,0-4.005-0.524-6.117,1.527l1.317,16.436l3.215,1.653l-2.28,3.188l4.92,25.152
		L167.488,166.494z"/>
	<path fill="#FFFFFF" d="M189.164,166.494c0,0,4.189-0.524,6.301,1.527l-1.316,16.436l-3.215,1.653l2.279,3.188l-5.127,26.213
		L189.164,166.494z"/>
	<g>
		<path fill="#E0856C" d="M177.418,273.312c-0.001,0,0.188,2.614,0.406,6.534c0.257,3.921,0.465,9.148,0.717,14.376
			c0.073,1.307,0.146,2.614,0.219,3.9c0.088,1.286,0.153,2.553,0.171,3.777c0.001,1.226-0.021,2.41-0.1,3.534
			c-0.059,1.123-0.14,2.186-0.24,3.166c-0.362,3.923-1.027,6.539-1.026,6.539l-0.301,0.002c0.001,0-0.683-2.612-1.072-6.532
			c-0.107-0.98-0.196-2.042-0.262-3.165c-0.086-1.123-0.117-2.308-0.124-3.532c0.009-1.226,0.065-2.492,0.144-3.779
			c0.063-1.287,0.127-2.594,0.191-3.901c0.216-5.229,0.387-10.458,0.615-14.381c0.191-3.922,0.362-6.536,0.361-6.536
			L177.418,273.312z"/>
	</g>
	<circle opacity="0.12" fill="#FFFFFF" cx="195.706" cy="121.5" r="15.036"/>
	<path fill="none" stroke="#6B052F" stroke-width="2" stroke-miterlimit="10" d="M172.058,118.75c0,0,3.782-3.79,8.864,0"/>
	<path opacity="0.12" fill="#FFFFFF" d="M197.947,106.576l-9.939,27.895c1.807,1.036,3.846,1.699,6.023,1.901l9.789-27.472
		L197.947,106.576z"/>
	<path opacity="0.12" fill="#FFFFFF" d="M207.125,111.925l-8.627,24.207c-0.986,0.202-2.004,0.309-3.045,0.309
		c-0.139,0-0.271,0-0.41-0.012l9.594-26.929C205.559,110.208,206.391,111.022,207.125,111.925z"/>
	<path opacity="0.12" fill="#FFFFFF" d="M172.184,120.692c0,7.263-5.147,13.319-11.993,14.728c-0.985,0.202-2.002,0.31-3.044,0.31
		c-0.139,0-0.271,0-0.411-0.013c-0.341,0-0.676-0.025-1.01-0.057c-2.179-0.202-4.219-0.865-6.025-1.901
		c-4.535-2.589-7.591-7.471-7.591-13.066c0-8.305,6.732-15.037,15.037-15.037c0.853,0,1.686,0.069,2.495,0.208
		c2.147,0.354,4.137,1.162,5.873,2.324c0.278,0.189,0.549,0.385,0.815,0.6c0.922,0.708,1.755,1.522,2.488,2.425
		C170.921,113.802,172.184,117.104,172.184,120.692z"/>
	<circle fill="none" stroke="#6B052F" stroke-width="2" stroke-miterlimit="10" cx="195.429" cy="121.509" r="15.036"/>
	<path opacity="0.12" fill="#FFFFFF" d="M159.733,105.861l-9.94,27.895c1.806,1.036,3.846,1.699,6.025,1.901l9.789-27.472
		L159.733,105.861z"/>
	<path opacity="0.12" fill="#FFFFFF" d="M168.909,111.21l-8.626,24.207c-0.985,0.202-2.002,0.309-3.044,0.309
		c-0.139,0-0.272,0-0.411-0.013l9.593-26.929C167.343,109.493,168.176,110.307,168.909,111.21z"/>
	<circle fill="none" stroke="#6B052F" stroke-width="2" stroke-miterlimit="10" cx="157.147" cy="120.692" r="15.037"/>
	<circle fill="#FFFFFF" cx="136.217" cy="132.991" r="2.346"/>
	<circle fill="#FFFFFF" cx="216.033" cy="132.991" r="2.346"/>
</g>
</svg>
