<?xml version="1.0" encoding="utf-8"?>
<!-- Generator: Adobe Illustrator 16.0.0, SVG Export Plug-In . SVG Version: 6.00 Build 0)  -->
<!DOCTYPE svg PUBLIC "-//W3C//DTD SVG 1.1//EN" "http://www.w3.org/Graphics/SVG/1.1/DTD/svg11.dtd">
<svg version="1.1" id="Layer_1" xmlns="http://www.w3.org/2000/svg" xmlns:xlink="http://www.w3.org/1999/xlink" x="0px" y="0px"
	 width="350px" height="350px" viewBox="0 0 350 350" enable-background="new 0 0 350 350" xml:space="preserve">
<g>
	<path fill="#1B1B1C" d="M186.878,41.027c0,0-43.869-10.434-62.458,12.511c-19.245,23.754,16.833,126.145-7.828,134.472
		c0,0,47.814,52.239,116.816,0.826c0,0-17.739-0.309-9.086-55.461C232.975,78.224,230.379,44.496,186.878,41.027z"/>
	<path fill="#F2F2F4" d="M163.166,155.403c0,0,12.166-4.143,23.797,0l-0.687,1.057h-22.274L163.166,155.403z"/>
	<g>
		<image overflow="visible" width="79" height="79" xlink:href="43C60A2D.png"  transform="matrix(1 0 0 1 109 84)">
		</image>
	</g>
	<g>
		<image overflow="visible" width="80" height="79" xlink:href="43C60A2F.png"  transform="matrix(1 0 0 1 156 84)">
		</image>
	</g>
	<polygon fill="#F5AF98" points="168.564,146.669 180.566,146.912 180.566,155.112 168.564,155.112 	"/>
	<path fill="#F5AF98" d="M213.902,226.415c-2.353,0-2.981-2.826-4.823-5.191c-7.384-9.46-16.49-32.496-17.224-38.421
		c-0.141-1.14-0.211-1.795-0.211-1.795l-33.344-0.272c0,0-0.008,0.265-0.031,0.749c-0.156,3.591-7.088,25.195-13.425,35.295
		c-2.139,3.427-4.223,5.526-5.94,5.159c-3.114-0.663-2.248-2.107-0.031-6.197c2.959-5.479,8.328-15.712,9.741-35.217
		c0.53-7.229,1.568-13.855,2.24-17.61c0.359-2.029,0.608-3.223,0.608-3.223l16.977-4.988l12.106-0.016l18.092,4.8
		c0,0,0.25,1.273,0.617,3.427c0.679,4.036,1.748,11.154,2.279,18.788c0.679,9.797,9.331,29.418,13.624,38.386
		C217.305,224.561,216.837,226.213,213.902,226.415z"/>
	<g opacity="0.46">
		<g>
			<g>
				<defs>
					<rect id="SVGID_1_" x="168.564" y="147.115" width="12.002" height="3.386"/>
				</defs>
				<clipPath id="SVGID_2_">
					<use xlink:href="#SVGID_1_"  overflow="visible"/>
				</clipPath>
				<g clip-path="url(#SVGID_2_)">
					<defs>
						<rect id="SVGID_3_" x="168.564" y="147.115" width="12.002" height="3.386"/>
					</defs>
					<clipPath id="SVGID_4_">
						<use xlink:href="#SVGID_3_"  overflow="visible"/>
					</clipPath>
				</g>
			</g>
		</g>
		<g>
			<g>
				<defs>
					<rect id="SVGID_5_" x="168.564" y="147.115" width="12.002" height="3.386"/>
				</defs>
				<use xlink:href="#SVGID_5_"  overflow="visible" fill="#EF8066"/>
				<clipPath id="SVGID_6_">
					<use xlink:href="#SVGID_5_"  overflow="visible"/>
				</clipPath>
				<g clip-path="url(#SVGID_6_)">
					<defs>
						<rect id="SVGID_7_" x="168.564" y="147.115" width="12.002" height="3.386"/>
					</defs>
					<use xlink:href="#SVGID_7_"  overflow="visible" fill="#EF8066"/>
					<clipPath id="SVGID_8_">
						<use xlink:href="#SVGID_7_"  overflow="visible"/>
					</clipPath>
					<path clip-path="url(#SVGID_8_)" fill="#EF8066" d="M168.564,147.115c0,0,6.661,0.167,12.002,0.243v3.143
						c0,0-11.875-2.51-12.002-2.559V147.115z"/>
				</g>
			</g>
		</g>
		<g>
			<g>
				<defs>
					<rect id="SVGID_9_" x="168.564" y="147.115" width="12.002" height="3.386"/>
				</defs>
				<clipPath id="SVGID_10_">
					<use xlink:href="#SVGID_9_"  overflow="visible"/>
				</clipPath>
				<g clip-path="url(#SVGID_10_)">
					<defs>
						<rect id="SVGID_11_" x="168.564" y="147.115" width="12.002" height="3.386"/>
					</defs>
					<clipPath id="SVGID_12_">
						<use xlink:href="#SVGID_11_"  overflow="visible"/>
					</clipPath>
				</g>
			</g>
		</g>
	</g>
	<path fill="#EB6D54" d="M177.631,160.245c0,0,0.075-0.118,0.23-0.301c0.158-0.181,0.398-0.433,0.736-0.681
		c0.166-0.126,0.362-0.244,0.577-0.357c0.218-0.102,0.457-0.196,0.719-0.254c0.128-0.031,0.263-0.059,0.399-0.072
		c0.138-0.021,0.277-0.023,0.418-0.022c0.275-0.001,0.544,0.009,0.82,0.012c0.545,0.012,1.093,0.009,1.604,0.029
		c0.512,0.026,0.988,0.082,1.393,0.122c0.814,0.085,1.357,0.203,1.357,0.203c0.013,0.005,0.021,0.016,0.018,0.029
		c-0.001,0.01-0.009,0.018-0.019,0.02c0,0-0.55,0.087-1.375,0.122c-0.413,0.021-0.891,0.014-1.4-0.009
		c-0.513-0.034-1.056-0.095-1.601-0.14c-0.27-0.023-0.548-0.051-0.81-0.065c-0.128-0.009-0.254-0.017-0.379-0.003
		c-0.127,0-0.25,0.018-0.372,0.039c-0.242,0.037-0.47,0.114-0.683,0.192c-0.211,0.088-0.407,0.185-0.576,0.291
		c-0.344,0.211-0.601,0.435-0.768,0.6c-0.17,0.167-0.252,0.276-0.252,0.276c-0.008,0.009-0.023,0.011-0.032,0.004
		C177.625,160.27,177.624,160.256,177.631,160.245L177.631,160.245z"/>
	<g opacity="0.46">
		<g>
			<defs>
				<rect id="SVGID_13_" x="177.924" y="158.815" width="5.86" height="1.12"/>
			</defs>
			<clipPath id="SVGID_14_">
				<use xlink:href="#SVGID_13_"  overflow="visible"/>
			</clipPath>
			<g clip-path="url(#SVGID_14_)">
				<defs>
					<rect id="SVGID_15_" x="177.924" y="158.815" width="5.858" height="1.12"/>
				</defs>
				<clipPath id="SVGID_16_">
					<use xlink:href="#SVGID_15_"  overflow="visible"/>
				</clipPath>
				<path clip-path="url(#SVGID_16_)" fill="#DCA15F" d="M177.93,159.896c0,0,0.239-0.309,0.732-0.624
					c0.124-0.078,0.266-0.157,0.421-0.225c0.156-0.063,0.327-0.125,0.513-0.158c0.183-0.043,0.382-0.057,0.581-0.057h0.563
					c0.188,0,0.379,0,0.566-0.003c0.187-0.011,0.369-0.014,0.543-0.014c0.354,0.007,0.681,0.038,0.967,0.064
					c0.567,0.059,0.948,0.153,0.948,0.153c0.013,0.004,0.021,0.017,0.019,0.03c-0.004,0.01-0.009,0.016-0.019,0.018
					c0,0-0.377,0.107-0.948,0.169c-0.284,0.032-0.619,0.054-0.979,0.05c-0.179-0.003-0.365-0.011-0.553-0.025
					c-0.186-0.021-0.375-0.039-0.564-0.057c-0.19-0.019-0.38-0.037-0.569-0.054c-0.171-0.016-0.344-0.023-0.512,0
					c-0.167,0.014-0.327,0.056-0.478,0.1s-0.291,0.099-0.415,0.159c-0.251,0.119-0.446,0.25-0.579,0.345
					c-0.136,0.097-0.204,0.161-0.204,0.161c-0.009,0.007-0.024,0.007-0.032-0.001S177.923,159.903,177.93,159.896"/>
			</g>
		</g>
	</g>
	<path fill="#EB6D54" d="M172.091,160.273c0,0-0.081-0.108-0.249-0.277c-0.169-0.164-0.425-0.387-0.77-0.599
		c-0.17-0.106-0.365-0.202-0.574-0.291c-0.214-0.078-0.442-0.155-0.685-0.192c-0.122-0.021-0.246-0.039-0.371-0.039
		c-0.126-0.014-0.251-0.006-0.38,0.003c-0.262,0.015-0.54,0.042-0.811,0.064c-0.543,0.046-1.086,0.107-1.597,0.141
		c-0.513,0.023-0.99,0.03-1.403,0.009c-0.824-0.035-1.373-0.122-1.373-0.122c-0.013-0.002-0.023-0.014-0.02-0.027
		c0-0.01,0.009-0.018,0.018-0.021c0,0,0.545-0.118,1.357-0.203c0.404-0.04,0.881-0.096,1.393-0.122
		c0.512-0.02,1.058-0.017,1.604-0.029c0.275-0.003,0.544-0.014,0.819-0.012c0.142-0.001,0.28,0.001,0.416,0.022
		c0.139,0.013,0.271,0.041,0.401,0.072c0.26,0.058,0.5,0.152,0.719,0.257c0.216,0.11,0.408,0.228,0.578,0.354
		c0.335,0.248,0.577,0.5,0.733,0.681c0.156,0.183,0.232,0.301,0.232,0.301c0.006,0.01,0.002,0.024-0.007,0.033
		C172.113,160.284,172.1,160.282,172.091,160.273L172.091,160.273z"/>
	<g opacity="0.46">
		<g>
			<defs>
				<rect id="SVGID_17_" x="166.044" y="158.815" width="5.885" height="1.216"/>
			</defs>
			<clipPath id="SVGID_18_">
				<use xlink:href="#SVGID_17_"  overflow="visible"/>
			</clipPath>
			<g clip-path="url(#SVGID_18_)">
				<defs>
					<rect id="SVGID_19_" x="166.044" y="158.815" width="5.885" height="1.216"/>
				</defs>
				<clipPath id="SVGID_20_">
					<use xlink:href="#SVGID_19_"  overflow="visible"/>
				</clipPath>
				<path clip-path="url(#SVGID_20_)" fill="#DCA15F" d="M171.888,160.024c0,0-0.066-0.065-0.195-0.169
					c-0.134-0.103-0.324-0.244-0.573-0.376c-0.124-0.067-0.263-0.128-0.412-0.183c-0.151-0.05-0.311-0.1-0.479-0.121
					c-0.167-0.029-0.343-0.029-0.516-0.013c-0.187,0.016-0.381,0.034-0.57,0.051c-0.192,0.02-0.383,0.04-0.571,0.06
					c-0.189,0.016-0.377,0.023-0.56,0.028c-0.363,0.006-0.703-0.016-0.991-0.05c-0.576-0.058-0.958-0.169-0.958-0.169
					c-0.015-0.004-0.021-0.017-0.019-0.029c0.004-0.009,0.01-0.017,0.019-0.017c0,0,0.386-0.096,0.958-0.155
					c0.291-0.028,0.621-0.058,0.978-0.064c0.355,0.003,0.74,0.024,1.124,0.02h0.573c0.203,0,0.403,0.021,0.588,0.069
					c0.372,0.089,0.683,0.261,0.925,0.43c0.241,0.169,0.422,0.336,0.537,0.459c0.118,0.124,0.178,0.2,0.178,0.2
					c0.008,0.012,0.006,0.024-0.002,0.034C171.911,160.035,171.896,160.034,171.888,160.024"/>
			</g>
		</g>
	</g>
	<path fill="#F5AF98" d="M212.446,111.821c0,0,2.111,13.496-6.166,23.883c-7.063,8.862-23.197,11.926-31.785,11.72
		c-6.834-0.164-12.623-1.089-17.521-2.563c-6.705-2.011-11.756-5.033-15.553-8.517c-13.005-11.917-11.368-29.146-11.368-29.146
		s-8.878-45.675,34.885-46.855C226.088,58.7,212.446,111.821,212.446,111.821z"/>
	<path fill="#F5AF98" d="M212.592,108.28c0,0,4.035-1.577,4.233,3.443c0.197,5.021-1.638,8.425-4.787,8.96L212.592,108.28z"/>
	<g>
		<path fill="#502911" d="M202.33,91.263c0,0-1.151-0.782-2.955-1.759c-0.456-0.234-0.949-0.484-1.477-0.728
			c-0.539-0.223-1.073-0.511-1.664-0.721c-0.289-0.113-0.583-0.229-0.881-0.345c-0.301-0.1-0.604-0.202-0.911-0.304
			c-0.602-0.231-1.237-0.354-1.853-0.521c-0.621-0.141-1.256-0.18-1.861-0.233c-0.609,0.039-1.191-0.021-1.735-0.017
			c-0.272-0.001-0.538-0.016-0.801-0.051c-0.265-0.047-0.52-0.076-0.767-0.075c-0.249-0.006-0.497-0.039-0.74-0.06
			c-0.246-0.042-0.485-0.065-0.71-0.056c-0.455,0-0.898-0.03-1.317-0.076c-0.404-0.006-0.762,0.025-1.084,0.01
			c-0.635-0.008-1.067-0.06-1.067-0.06l-0.203-0.345c0,0,0.19-0.352,0.646-0.887c0.229-0.265,0.517-0.596,0.895-0.911
			c0.391-0.28,0.861-0.573,1.403-0.861c0.537-0.316,1.177-0.436,1.855-0.626c0.171-0.04,0.345-0.081,0.521-0.123
			c0.176-0.012,0.354-0.031,0.535-0.037c0.361-0.02,0.733-0.018,1.109-0.003c0.754,0.032,1.485,0.299,2.225,0.506
			c0.71,0.292,1.431,0.561,2.116,0.869c0.677,0.329,1.366,0.62,1.982,1.003c0.314,0.183,0.628,0.356,0.927,0.545
			c0.289,0.202,0.574,0.401,0.854,0.598c1.122,0.774,2.061,1.621,2.84,2.353c1.553,1.472,2.394,2.623,2.394,2.623L202.33,91.263z"/>
	</g>
	<g>
		<path fill="#502911" d="M143.083,90.413c0,0,0.878-1.123,2.478-2.543c0.803-0.706,1.769-1.521,2.915-2.259
			c0.287-0.187,0.579-0.377,0.874-0.569c0.306-0.178,0.625-0.342,0.944-0.515c0.629-0.363,1.328-0.632,2.014-0.938
			c0.696-0.285,1.425-0.531,2.144-0.799c0.747-0.184,1.486-0.426,2.24-0.434c0.377-0.002,0.749,0.008,1.109,0.04
			c0.181,0.011,0.358,0.036,0.533,0.054c0.174,0.047,0.347,0.094,0.517,0.14c0.672,0.212,1.308,0.352,1.833,0.686
			c0.533,0.305,0.993,0.614,1.375,0.906c0.367,0.327,0.644,0.667,0.864,0.939c0.438,0.549,0.617,0.907,0.617,0.907l-0.215,0.338
			c0,0-0.434,0.037-1.069,0.025c-0.322,0.004-0.679-0.038-1.083-0.045c-0.42,0.033-0.865,0.048-1.319,0.033
			c-0.225-0.018-0.464-0.001-0.712,0.032c-0.244,0.013-0.493,0.038-0.741,0.036c-0.247-0.009-0.503,0.012-0.77,0.049
			c-0.263,0.027-0.529,0.032-0.801,0.025c-0.543-0.022-1.128,0.018-1.736-0.041c-0.607,0.033-1.242,0.052-1.867,0.172
			c-0.621,0.146-1.26,0.248-1.869,0.459c-0.31,0.092-0.617,0.184-0.92,0.274c-0.302,0.107-0.6,0.213-0.893,0.316
			c-0.598,0.191-1.141,0.461-1.687,0.667c-0.535,0.226-1.036,0.46-1.5,0.679c-1.834,0.918-3.01,1.662-3.01,1.662L143.083,90.413z"/>
	</g>
	<path fill="#EA5E5F" d="M163.093,123.789c0,0,0.288,0.218,0.791,0.597c0.126,0.095,0.267,0.198,0.418,0.313
		c0.151,0.117,0.329,0.205,0.508,0.318c0.181,0.107,0.372,0.222,0.573,0.343c0.102,0.059,0.197,0.125,0.311,0.18
		c0.113,0.052,0.228,0.106,0.346,0.16c0.232,0.11,0.478,0.224,0.729,0.342c0.124,0.062,0.255,0.109,0.394,0.153
		c0.134,0.043,0.273,0.09,0.413,0.134c0.137,0.047,0.276,0.093,0.417,0.142c0.14,0.051,0.283,0.099,0.436,0.126
		c0.295,0.065,0.6,0.131,0.905,0.2c0.151,0.042,0.311,0.058,0.469,0.073c0.159,0.015,0.318,0.034,0.479,0.049
		c0.158,0.021,0.319,0.038,0.479,0.056c0.162,0.014,0.327,0.007,0.491,0.014c0.326-0.003,0.652,0.025,0.981,0.001
		c0.327-0.029,0.656-0.054,0.986-0.084c0.327-0.037,0.651-0.112,0.973-0.179c0.157-0.037,0.32-0.063,0.476-0.109l0.464-0.152
		c0.309-0.107,0.615-0.182,0.909-0.306c0.294-0.119,0.585-0.221,0.879-0.313c0.289-0.091,0.565-0.212,0.849-0.294
		c0.284-0.088,0.564-0.164,0.832-0.269c0.264-0.098,0.533-0.178,0.792-0.266c0.261-0.079,0.498-0.191,0.743-0.27
		c0.245-0.083,0.479-0.164,0.7-0.241c0.22-0.086,0.431-0.171,0.633-0.242c0.405-0.146,0.775-0.262,1.069-0.384
		c0.298-0.113,0.546-0.196,0.718-0.249c0.174-0.052,0.271-0.076,0.271-0.076l0.189,0.215c0,0-0.042,0.088-0.13,0.249
		c-0.088,0.16-0.223,0.387-0.408,0.669c-0.096,0.137-0.194,0.302-0.319,0.462c-0.128,0.156-0.267,0.322-0.427,0.496
		c-0.152,0.179-0.326,0.358-0.506,0.55c-0.191,0.18-0.401,0.362-0.624,0.545c-0.223,0.184-0.454,0.382-0.71,0.56
		c-0.264,0.167-0.53,0.348-0.819,0.517c-0.145,0.083-0.284,0.179-0.438,0.256c-0.156,0.071-0.312,0.149-0.473,0.22
		c-0.321,0.139-0.649,0.288-0.997,0.396c-0.706,0.202-1.445,0.367-2.218,0.417c-0.188,0.021-0.381,0.041-0.573,0.06
		c-0.191,0.016-0.39,0.009-0.581,0.016c-0.389-0.004-0.773,0.041-1.163,0.021c-0.385-0.021-0.771-0.04-1.157-0.06
		c-0.383-0.027-0.763-0.106-1.136-0.159c-0.189-0.032-0.376-0.052-0.559-0.093c-0.183-0.05-0.362-0.099-0.542-0.147
		c-0.178-0.051-0.355-0.101-0.531-0.15c-0.175-0.048-0.351-0.096-0.516-0.17c-0.332-0.134-0.657-0.265-0.977-0.395
		c-0.161-0.06-0.313-0.137-0.46-0.22c-0.145-0.081-0.289-0.16-0.433-0.239c-0.142-0.078-0.282-0.157-0.419-0.233
		c-0.14-0.073-0.273-0.15-0.395-0.244c-0.247-0.177-0.483-0.347-0.712-0.51c-0.114-0.083-0.225-0.164-0.332-0.241
		c-0.106-0.08-0.201-0.179-0.298-0.263c-0.188-0.172-0.368-0.337-0.535-0.492c-0.162-0.156-0.331-0.292-0.455-0.435
		c-0.122-0.145-0.234-0.279-0.336-0.399c-0.408-0.479-0.641-0.754-0.641-0.754L163.093,123.789z"/>
	<circle fill="#502911" cx="153.232" cy="108.497" r="5.693"/>
	<circle fill="#502911" cx="192.571" cy="108.884" r="5.693"/>
	<g>
		<image overflow="visible" width="82" height="82" xlink:href="43C60A2A.png"  transform="matrix(1 0 0 1 108 83)">
		</image>
	</g>
	<g>
		<image overflow="visible" width="81" height="82" xlink:href="43C60A2B.png"  transform="matrix(1 0 0 1 158 83)">
		</image>
	</g>
	<path fill="#F5AF98" d="M130.511,107.809c0,0-4.13-0.77-3.932,4.252c0.197,5.021,2.296,8.27,5.476,8.556L130.511,107.809z"/>
	<circle fill="#FFFFFF" cx="130.36" cy="120.136" r="3.788"/>
	<circle fill="#FFFFFF" cx="213.745" cy="120.617" r="3.788"/>
	<path fill="#1B1B1C" d="M185.341,62.426v2.078c0,0-4.174,10.843-13.229,12.933c-9.054,2.084-27.25-6.288-34.914,3.754
		c-6.164,8.072-7.077,20.148-7.202,24.566c-0.025,1.076-0.007,1.702-0.007,1.702s-0.175-0.363-0.438-1.033
		c-0.125-0.307-0.27-0.676-0.42-1.114v-0.006c-2.002-5.757-5.831-22.176,8.066-38.3C156.645,44.437,185.341,62.426,185.341,62.426z"
		/>
	<path fill="#1B1B1C" d="M214.39,108.084h-2.598c2.849-13.883-9.905-27.417-18.998-31.494c-3.264-1.467-5.134-5.399-6.185-8.92
		c-1.024-3.437-1.269-6.489-1.269-6.489c12.951,0.251,20.286,6.826,24.383,14.98c3.952,7.837,4.91,17.141,5.003,23.676
		C214.806,104.741,214.39,108.084,214.39,108.084z"/>
	<path fill="#020202" d="M185.341,64.503c0,0-4.174,10.843-13.229,12.933c-9.054,2.084-27.25-6.288-34.914,3.754
		c-6.164,8.072-7.077,20.148-7.202,24.566l-0.444,0.669l-0.275,0.413c0,0-0.063-0.557-0.145-1.527v-0.006
		c-0.519-6.145-1.683-28.946,8.848-34.077c12.202-5.944,30.335,6.551,37.23,3.754s10.131-12.558,10.131-12.558
		C185.372,63.139,185.372,63.833,185.341,64.503z"/>
	<path fill="#020202" d="M214.727,99.837c-0.728,2.504-1.691,5.247-2.935,8.247c2.849-13.883-9.905-27.417-18.998-31.494
		c-3.264-1.467-5.134-5.399-6.185-8.92l-1.229-6.304c0.317,1.394,2.531,10.375,7.414,11.59c2.57,0.641,10.877-0.185,16.93,3.205
		C215.188,79.22,218.816,85.716,214.727,99.837z"/>
	<polygon fill="#F5AF98" points="161.647,263.112 165.333,285.847 169.552,307.37 174.201,308.954 174.201,263.112 	"/>
	<polygon fill="#F5AF98" points="186.26,263.112 182.575,285.847 178.355,307.37 173.706,308.954 173.706,263.112 	"/>
	<path fill="#4582A1" d="M153.919,255.646v5.931c0,0,21.043,7.139,38.833,1.299l0.247-7.229l-5.979-45.662h-23.981L153.919,255.646z
		"/>
	<path fill="#EEEEEE" d="M151.607,159.981l-13.913,50.813l10.87,6.652C148.564,217.446,161.651,183.329,151.607,159.981z"/>
	<path fill="#EEEEEE" d="M198.785,159.779l16.373,53.124l-12.242,6.814C202.916,219.718,188.741,183.127,198.785,159.779z"/>
	<path fill="#025798" d="M169.275,306.569c0,0-0.018,1.344-0.833,1.296c-0.814-0.048-3.566-0.336-3.719,1.632
		c-0.153,1.969,1.273,1.872,2.649,1.824c1.375-0.048,6.164-0.769,6.521-1.488s0-1.68,0-1.68S170.346,308.01,169.275,306.569z"/>
	<path fill="#025798" d="M178.553,306.569c0,0,0.017,1.344,0.785,1.296c0.768-0.048,3.359-0.336,3.504,1.632
		c0.144,1.969-1.2,1.872-2.496,1.824s-5.808-0.769-6.145-1.488c-0.336-0.72,0-1.68,0-1.68S177.545,308.01,178.553,306.569z"/>
	<polygon fill="#FFD55C" points="166.187,155.341 173.805,161.633 175.376,167.239 177.336,161.633 183.855,155.341 186.276,156.46 
		184.997,209.983 174.565,209.983 165.202,209.983 163.166,156.46 	"/>
	<path fill="none" stroke="#C69722" stroke-width="3" stroke-linecap="round" stroke-linejoin="round" stroke-miterlimit="10" d="
		M166.187,155.341l7.618,6.292c0,0-1.553,1.623-0.795,5.192l-8.871-5.192"/>
	<path fill="none" stroke="#C69722" stroke-width="3" stroke-linecap="round" stroke-linejoin="round" stroke-miterlimit="10" d="
		M184.313,155.01l-7.017,6.623c0,0,1.553,1.623,0.796,5.192l8.871-5.192"/>
	<polygon fill="#F2F2F4" points="138.183,209.01 137.02,212.741 147.591,219.718 149.252,215.513 	"/>
	<polygon fill="#F2F2F4" points="202.1,217.446 203.728,221.827 216.058,215.175 214.258,209.983 	"/>
	<path fill="none" stroke="#15232D" stroke-miterlimit="10" d="M163.166,166.825"/>
	<line fill="none" stroke="#1D5A6D" stroke-miterlimit="10" x1="158.542" y1="212.336" x2="192.208" y2="212.336"/>
	<path fill="#EEEEEE" d="M164.002,155.403l2.185,99.364c0,0-10.616,3.029-22.826-2.163c0,0,18.291-69.275,8.247-92.624
		C151.607,159.981,159.296,155.403,164.002,155.403z"/>
	<path fill="#EEEEEE" d="M186.276,155.403l-2.185,99.364c0,0,10.616,3.029,22.826-2.163c0,0-18.177-69.478-8.133-92.825
		C198.785,159.779,190.982,155.403,186.276,155.403z"/>
	<path fill="#F2F2F4" d="M159.083,178.023h-1.032c-0.805,0-1.463-0.658-1.463-1.463l0,0c0-0.806,0.658-1.464,1.463-1.464h1.032
		c0.805,0,1.463,0.658,1.463,1.464l0,0C160.546,177.365,159.888,178.023,159.083,178.023z"/>
	<path fill="#DDDDE8" d="M188.81,176.561h5.291c0,0,1.716,8.532-2.646,8.112C186.963,184.24,188.81,176.561,188.81,176.561z"/>
	<path fill="#4582A1" d="M192.335,179.211L192.335,179.211c-0.496,0-0.901-0.406-0.901-0.901v-1.821
		c0-0.496,0.405-0.901,0.901-0.901l0,0c0.495,0,0.9,0.405,0.9,0.901v1.821C193.235,178.805,192.83,179.211,192.335,179.211z"/>
	<path fill="#FFFFFF" d="M164.002,155.403c0,0-4.116-0.539-6.286,1.569l1.353,16.889l3.305,1.699l-2.344,3.277l5.056,25.847
		L164.002,155.403z"/>
	<path fill="#FFFFFF" d="M186.276,155.403c0,0,4.306-0.539,6.476,1.569l-1.354,16.889l-3.304,1.699l2.343,3.277l-5.269,26.938
		L186.276,155.403z"/>
	<g>
		<path fill="#E0856C" d="M174.202,265.171c0,0,0.188,2.687,0.408,6.715c0.257,4.028,0.464,9.4,0.717,14.772
			c0.073,1.343,0.146,2.687,0.219,4.008c0.088,1.322,0.154,2.623,0.171,3.882c0.001,1.26-0.021,2.477-0.099,3.632
			c-0.058,1.154-0.14,2.246-0.239,3.254c-0.363,4.03-1.027,6.719-1.027,6.719l-0.3,0.002c0,0-0.683-2.685-1.073-6.713
			c-0.107-1.007-0.196-2.098-0.262-3.252c-0.086-1.154-0.117-2.371-0.125-3.63c0.009-1.26,0.065-2.562,0.144-3.884
			c0.063-1.322,0.127-2.666,0.191-4.009c0.215-5.374,0.386-10.747,0.615-14.777c0.191-4.03,0.361-6.717,0.361-6.717L174.202,265.171
			z"/>
	</g>
	<g>
		<path fill="#C69722" d="M175.525,167.25c0,0,0.191,0.684,0.366,1.867c0.089,0.591,0.185,1.307,0.238,2.125
			c0.065,0.817,0.116,1.739,0.13,2.742c0.003,1.002,0.01,2.087-0.119,3.23c-0.117,1.143-0.392,2.341-0.659,3.583
			c-0.263,1.243-0.479,2.532-0.48,3.849c-0.018,1.314,0.101,2.654,0.288,3.992c0.178,1.338,0.364,2.674,0.46,3.982
			c0.1,1.31,0.19,2.596,0.253,3.841c0.04,0.622,0.057,1.234,0.063,1.833c0.029,0.595,0.041,1.178,0.044,1.745
			c0.005,1.136-0.05,2.213-0.092,3.21c-0.035,0.5-0.07,0.979-0.102,1.435c0.006,0.447-0.022,0.875-0.032,1.277
			c-0.024,0.806-0.08,1.518-0.131,2.109c-0.101,1.184-0.229,1.887-0.229,1.887l-0.295,0.055c0,0-0.289-0.625-0.668-1.767
			c-0.191-0.57-0.416-1.27-0.634-2.083c-0.107-0.407-0.238-0.84-0.341-1.302c-0.075-0.457-0.154-0.938-0.237-1.441
			c-0.133-1.007-0.287-2.102-0.388-3.263c-0.05-0.581-0.092-1.179-0.118-1.789c-0.001-0.608,0.01-1.229,0.043-1.862
			c0.049-1.264,0.126-2.568,0.211-3.893c0.052-1.326,0.326-2.664,0.551-4.002c0.24-1.337,0.413-2.673,0.447-3.991
			c0.065-1.316-0.032-2.617-0.208-3.882c-0.169-1.263-0.372-2.488-0.378-3.644c-0.014-1.154,0.101-2.24,0.204-3.242
			c0.112-1.001,0.254-1.917,0.423-2.727c0.15-0.811,0.331-1.513,0.488-2.091c0.317-1.154,0.603-1.804,0.603-1.804L175.525,167.25z"
			/>
	</g>
	<circle fill="#FFFFFF" cx="176.992" cy="171.468" r="0.73"/>
	<circle fill="#FFFFFF" cx="176.684" cy="178.789" r="0.73"/>
	<circle fill="#FFFFFF" cx="176.261" cy="188.361" r="0.73"/>
	<circle fill="#FFFFFF" cx="176.261" cy="197.88" r="0.73"/>
</g>
</svg>
