<?xml version="1.0" encoding="utf-8"?>
<!-- Generator: Adobe Illustrator 16.0.0, SVG Export Plug-In . SVG Version: 6.00 Build 0)  -->
<!DOCTYPE svg PUBLIC "-//W3C//DTD SVG 1.1 Tiny//EN" "http://www.w3.org/Graphics/SVG/1.1/DTD/svg11-tiny.dtd">
<svg version="1.1" baseProfile="tiny" id="Layer_1" xmlns="http://www.w3.org/2000/svg" xmlns:xlink="http://www.w3.org/1999/xlink"
	 x="0px" y="0px" width="350px" height="350px" viewBox="0 0 350 350" overflow="scroll" xml:space="preserve">
<g>
	<path fill="#0D0D0D" d="M256.049,118.126c-0.002-0.007-0.003-0.015-0.005-0.022c-0.014-0.052-0.026-0.109-0.04-0.161
		c-0.021-0.08-0.044-0.149-0.065-0.227c-0.067-0.243-0.135-0.484-0.206-0.716c-1.213-3.909-5.121-10.271-9.646-17.639
		c-8.475-13.798-19.021-30.97-19.021-42.814c0-1.311-0.007-2.518-0.021-3.629c-0.144-10.75-0.994-12.602-2.792-12.602
		c-0.777,0-1.425,0.47-2.164,1.638c-0.987,1.562-2.138,4.374-3.981,8.997c-0.685,1.717-1.434,3.594-2.239,5.532
		c-1.323,3.179-2.799,6.523-4.405,9.601c-0.252,0.483-0.497,0.964-0.735,1.443c-0.008,0.018-0.017,0.035-0.025,0.052
		c-2.183,4.39-3.818,8.656-5.045,13.267c-0.011,0.043-0.022,0.086-0.033,0.128c-0.104,0.395-0.205,0.792-0.304,1.191
		c-0.071,0.289-0.141,0.579-0.209,0.872c-0.018,0.073-0.034,0.146-0.051,0.219c-2.378,10.353-2.913,22.729-3.024,41.989
		c-0.156-0.06-0.311-0.121-0.468-0.181c-0.305-0.115-0.609-0.23-0.916-0.341c-0.2-0.073-0.402-0.142-0.604-0.213
		c-1.418-0.499-2.864-0.956-4.344-1.366c-0.003,0-0.005-0.001-0.007-0.002c-0.49-0.136-0.983-0.265-1.478-0.39
		c-0.091-0.023-0.182-0.046-0.272-0.069c-0.482-0.12-0.967-0.235-1.452-0.346c-0.074-0.017-0.149-0.033-0.223-0.049
		c-0.716-0.159-1.438-0.308-2.169-0.447c-0.728-0.138-1.461-0.265-2.199-0.383c-0.234-0.037-0.468-0.075-0.704-0.11
		c-0.37-0.055-0.74-0.106-1.113-0.156c-0.315-0.042-0.633-0.082-0.951-0.12c-0.329-0.04-0.658-0.08-0.99-0.116
		c-0.543-0.059-1.091-0.112-1.644-0.159c-0.253-0.022-0.508-0.042-0.763-0.062c-0.534-0.041-1.072-0.079-1.616-0.11
		c-0.244-0.014-0.49-0.026-0.735-0.038c-0.502-0.025-1.007-0.045-1.515-0.061c-0.226-0.007-0.45-0.015-0.678-0.021
		c-0.725-0.018-1.454-0.029-2.194-0.029c-0.74,0-1.47,0.012-2.194,0.029c-0.227,0.005-0.452,0.013-0.677,0.021
		c-0.508,0.016-1.014,0.036-1.515,0.061c-0.245,0.012-0.491,0.023-0.735,0.038c-0.544,0.031-1.082,0.069-1.617,0.11
		c-0.255,0.02-0.51,0.04-0.764,0.062c-0.551,0.047-1.099,0.101-1.642,0.159c-0.332,0.036-0.661,0.076-0.991,0.116
		c-0.319,0.039-0.636,0.078-0.951,0.12c-0.372,0.05-0.744,0.101-1.113,0.156c-0.236,0.035-0.47,0.073-0.705,0.11
		c-1.488,0.236-2.943,0.513-4.367,0.83c-0.074,0.017-0.149,0.033-0.223,0.049c-0.487,0.11-0.97,0.226-1.452,0.346
		c-0.091,0.023-0.182,0.046-0.273,0.069c-0.495,0.125-0.987,0.255-1.478,0.391c-0.001,0-0.003,0-0.004,0.001
		c-1.48,0.411-2.927,0.868-4.345,1.366c-0.202,0.071-0.405,0.141-0.605,0.213c-0.306,0.111-0.61,0.226-0.916,0.34
		c-0.156,0.06-0.312,0.121-0.467,0.181c-0.112-19.26-0.647-31.636-3.024-41.989c-0.017-0.073-0.034-0.146-0.051-0.219
		c-0.068-0.292-0.138-0.583-0.209-0.873c-0.098-0.398-0.198-0.794-0.303-1.187c-0.012-0.044-0.023-0.089-0.035-0.134
		c-1.226-4.61-2.861-8.876-5.044-13.265c-0.008-0.017-0.018-0.034-0.026-0.052c-0.238-0.479-0.483-0.96-0.735-1.443
		c-2.585-4.955-4.836-10.599-6.645-15.133c-0.402-1.01-0.772-1.934-1.114-2.777c-2.395-5.901-3.44-7.857-5.03-7.857
		c-1.799,0-2.649,1.852-2.792,12.602c-0.015,1.112-0.022,2.319-0.022,3.629c0,11.844-10.548,29.016-19.022,42.814
		c-4.524,7.367-8.432,13.73-9.645,17.639c-0.072,0.232-0.139,0.472-0.206,0.715c-0.022,0.078-0.045,0.148-0.066,0.228
		c-0.014,0.051-0.026,0.109-0.04,0.161c-0.001,0.007-0.004,0.015-0.005,0.022c-1.355,5.098-1.778,12.029-1.256,19.679
		c0.001,0.029,0.004,0.058,0.005,0.087c0.019,0.276,0.036,0.549,0.056,0.828c0.002,0.015,0.002,0.03,0.003,0.044
		c0.008,0.102,0.018,0.206,0.026,0.308c0.259,3.302,0.708,6.866,1.391,10.658c0,0.001,0,0.002,0,0.003
		c0.135,0.748,0.278,1.503,0.432,2.269c0.004,0.018,0.007,0.037,0.011,0.054c0.15,0.749,0.31,1.504,0.478,2.268
		c0.011,0.049,0.023,0.099,0.034,0.147c0.164,0.735,0.333,1.477,0.515,2.226c0.02,0.083,0.042,0.167,0.063,0.25
		c0.175,0.719,0.356,1.442,0.549,2.174c0.028,0.108,0.061,0.22,0.089,0.329c0.188,0.708,0.381,1.42,0.585,2.141
		c0.047,0.164,0.099,0.332,0.146,0.496c0.193,0.67,0.389,1.342,0.597,2.023c0.062,0.201,0.129,0.405,0.192,0.607
		c0.202,0.649,0.404,1.298,0.62,1.956c0.085,0.261,0.179,0.527,0.267,0.79c0.202,0.604,0.402,1.207,0.616,1.818
		c0.12,0.34,0.249,0.687,0.372,1.029c0.193,0.539,0.382,1.076,0.585,1.62c0.178,0.477,0.368,0.959,0.553,1.44
		c0.161,0.417,0.314,0.831,0.48,1.25c0.358,0.904,0.729,1.814,1.112,2.731c0.008,0.019,0.015,0.036,0.023,0.056
		c0.39,0.93,0.796,1.866,1.215,2.809c0.031,0.07,0.059,0.14,0.091,0.21c0.386,0.866,0.789,1.739,1.198,2.613
		c0.071,0.151,0.136,0.3,0.208,0.451c0.322,0.683,0.664,1.374,1.001,2.063c0.152,0.322,0.309,0.645,0.47,0.967
		c0.01,0.02,0.02,0.04,0.029,0.061c0.002,0.004,0.004,0.008,0.006,0.012c0.007,0.015,0.014,0.029,0.02,0.042
		c0.002,0.004,0.003,0.006,0.004,0.008c0.213,0.427,0.432,0.854,0.658,1.282c0.008,0.013,0.015,0.028,0.023,0.043
		c0.241,0.456,0.489,0.912,0.743,1.365c6.994,12.488,7.615,20.604,8.113,27.123c0.38,4.96,0.722,9.314,3.786,13.937
		c0,0.001,0.001,0.003,0.002,0.005c0.01,0.018,0.02,0.036,0.032,0.056l0.032,0.052c0.007,0.01,0.015,0.02,0.022,0.03
		c0.307,0.503,0.659,0.983,1.049,1.434c0.001,0.001,0.001,0.002,0.002,0.003c0.009,0.011,0.017,0.022,0.026,0.034
		c1.433,1.803,2.737,3.312,3.888,4.643c3.611,4.178,5.899,6.825,7.108,12.802c0.121,0.598,0.23,1.229,0.331,1.898
		c0.498,3.346,0.731,7.646,0.731,13.506c0,22.685,1.237,44.831,16.024,44.831c1.032,0,2.128-0.115,3.259-0.341
		c12.68-2.536,19.086-2.81,21.252-2.81c0.01,0,0.018,0,0.029,0v0.143l1.148-0.103l1.157,0.11v-0.15c0.01,0,0.017,0,0.026,0
		c2.165,0,8.57,0.273,21.251,2.81c1.132,0.226,2.227,0.341,3.257,0.341h0.002c0.226,0,0.447-0.005,0.666-0.016
		c0.058-0.002,0.115-0.009,0.174-0.012c0.159-0.01,0.318-0.02,0.475-0.034c0.068-0.007,0.136-0.017,0.204-0.023
		c0.144-0.017,0.286-0.033,0.428-0.054c0.07-0.01,0.141-0.023,0.212-0.034c0.135-0.022,0.27-0.045,0.402-0.071
		c0.071-0.015,0.143-0.031,0.215-0.047c0.128-0.028,0.256-0.057,0.383-0.089c0.071-0.019,0.143-0.039,0.215-0.059
		c0.122-0.034,0.244-0.069,0.364-0.106c0.072-0.022,0.145-0.047,0.217-0.071c0.116-0.039,0.231-0.08,0.347-0.122
		c0.073-0.027,0.145-0.056,0.217-0.085c0.11-0.044,0.221-0.089,0.329-0.137c0.073-0.032,0.146-0.065,0.218-0.1
		c0.105-0.049,0.209-0.099,0.312-0.15c0.074-0.037,0.146-0.075,0.22-0.114c0.099-0.054,0.197-0.107,0.294-0.163
		c0.074-0.042,0.147-0.086,0.22-0.131c0.095-0.057,0.188-0.115,0.279-0.175c0.073-0.047,0.146-0.096,0.218-0.146
		c0.09-0.062,0.18-0.124,0.268-0.188c0.071-0.053,0.143-0.105,0.212-0.159c0.088-0.066,0.174-0.135,0.26-0.204
		c0.067-0.055,0.136-0.111,0.203-0.169c0.085-0.073,0.171-0.146,0.256-0.224c0.063-0.057,0.125-0.114,0.188-0.173
		c0.086-0.082,0.172-0.164,0.258-0.248c0.056-0.056,0.112-0.113,0.167-0.17c0.09-0.094,0.18-0.188,0.268-0.283
		c0.047-0.051,0.092-0.103,0.138-0.153c0.097-0.108,0.191-0.219,0.285-0.33c0.033-0.04,0.066-0.081,0.1-0.122
		c0.104-0.129,0.209-0.259,0.31-0.393c0.018-0.022,0.033-0.044,0.05-0.065c0.199-0.266,0.391-0.542,0.578-0.826
		c0.084-0.127,0.165-0.261,0.248-0.393c0.096-0.154,0.191-0.31,0.283-0.47c0.104-0.175,0.205-0.354,0.306-0.538
		c0.05-0.094,0.101-0.191,0.15-0.288c1.062-2.021,1.941-4.457,2.634-7.337c1.992-8.28,2.238-19.104,2.256-28.822
		c0.001-0.447,0.002-0.895,0.002-1.338c0-0.585,0.003-1.155,0.008-1.712c0.009-1.11,0.027-2.161,0.057-3.157
		c0.028-0.996,0.066-1.937,0.114-2.826c0.121-2.227,0.304-4.138,0.553-5.811c0.205-1.38,0.455-2.598,0.752-3.696
		c1.288-4.759,3.459-7.27,6.688-11.004c1.149-1.331,2.454-2.84,3.888-4.643c0.003-0.004,0.006-0.009,0.009-0.013
		c0.008-0.01,0.015-0.02,0.022-0.029c0.389-0.449,0.74-0.929,1.046-1.429c0.007-0.011,0.015-0.021,0.021-0.03l0.033-0.052
		c0.011-0.02,0.02-0.038,0.031-0.056c0.715-1.079,1.292-2.144,1.745-3.204c1.488-3.485,1.752-6.934,2.042-10.737
		c0.358-4.687,0.78-10.196,3.586-17.562c1.098-2.883,2.561-6.05,4.527-9.562c0.254-0.452,0.502-0.908,0.742-1.364
		c0.009-0.018,0.018-0.034,0.026-0.051c0.226-0.426,0.443-0.85,0.655-1.275c0.002-0.002,0.003-0.004,0.005-0.008
		c0.005-0.01,0.011-0.021,0.016-0.033c0.004-0.007,0.007-0.014,0.011-0.021c0.017-0.035,0.033-0.068,0.05-0.104
		c0.154-0.31,0.297-0.615,0.448-0.924h0.001c0.002-0.005,0.005-0.01,0.007-0.014c0.334-0.683,0.672-1.366,0.991-2.042
		c0.123-0.261,0.236-0.518,0.356-0.777c0.356-0.766,0.712-1.529,1.049-2.287c0.073-0.165,0.141-0.326,0.213-0.49
		c0.374-0.848,0.743-1.694,1.095-2.532c0.03-0.072,0.057-0.142,0.087-0.214c0.381-0.911,0.748-1.817,1.103-2.716
		c0.231-0.587,0.448-1.166,0.669-1.747c0.117-0.31,0.241-0.623,0.355-0.931c0.245-0.659,0.477-1.31,0.707-1.961
		c0.08-0.224,0.166-0.452,0.243-0.675c0.238-0.681,0.463-1.355,0.686-2.028c0.063-0.188,0.131-0.38,0.191-0.568
		c0.229-0.696,0.443-1.385,0.654-2.072c0.051-0.159,0.104-0.321,0.152-0.48c0.222-0.728,0.433-1.448,0.637-2.165
		c0.033-0.113,0.068-0.229,0.101-0.341c0.209-0.739,0.407-1.47,0.6-2.197c0.023-0.087,0.049-0.177,0.072-0.265
		c0.198-0.756,0.386-1.503,0.565-2.246c0.013-0.055,0.029-0.112,0.042-0.167c0.184-0.761,0.356-1.514,0.521-2.261
		c0.008-0.034,0.017-0.07,0.024-0.104c0.171-0.775,0.332-1.542,0.484-2.3c0.001-0.004,0.001-0.009,0.002-0.013
		c0.927-4.63,1.506-8.945,1.815-12.887c0.009-0.102,0.019-0.206,0.026-0.308c0.005-0.062,0.008-0.12,0.013-0.181
		c0.016-0.229,0.031-0.456,0.046-0.683c0.003-0.032,0.004-0.064,0.006-0.096C257.826,130.155,257.404,123.224,256.049,118.126z"/>
	<path fill="#AE805E" d="M127.994,111.047c3.49-1.448,6.504-2.7,6.504-11.608c0-9.803-3.475-18.01-6.541-25.252
		c-1.446-3.414-2.847-6.723-3.8-9.989c-0.096,0.373-0.198,0.749-0.306,1.127c0,0,0,0.001-0.001,0.002
		c-0.012,0.043-0.025,0.086-0.038,0.129c-0.018,0.057-0.034,0.114-0.051,0.17c-0.091,0.312-0.184,0.624-0.282,0.938
		c0,0-0.001,0.002-0.001,0.003c-0.01,0.032-0.021,0.064-0.031,0.097c-0.037,0.115-0.073,0.231-0.111,0.347
		c-0.088,0.273-0.177,0.546-0.27,0.821c-0.004,0.013-0.009,0.026-0.014,0.04c-0.048,0.141-0.095,0.281-0.145,0.422
		c0,0.002-0.001,0.004-0.002,0.007c-0.1,0.287-0.203,0.576-0.308,0.866c-0.001,0.004-0.003,0.007-0.004,0.012
		c-0.02,0.053-0.04,0.106-0.059,0.16c-0.028,0.078-0.056,0.156-0.084,0.234c-0.155,0.418-0.315,0.837-0.48,1.259
		c-0.009,0.023-0.019,0.046-0.028,0.07c-0.016,0.039-0.032,0.078-0.047,0.117c-0.005,0.013-0.011,0.025-0.015,0.038
		c-0.141,0.354-0.284,0.708-0.431,1.064c0,0.002-0.002,0.005-0.003,0.007c-0.021,0.049-0.041,0.098-0.061,0.147
		c-0.043,0.103-0.086,0.206-0.129,0.309c-0.119,0.283-0.239,0.566-0.362,0.85c-0.018,0.042-0.036,0.083-0.054,0.125
		c-0.052,0.12-0.104,0.239-0.156,0.358c-0.001,0.004-0.003,0.008-0.005,0.012c-0.125,0.285-0.253,0.57-0.381,0.856
		c-0.004,0.008-0.007,0.016-0.011,0.023c-0.065,0.144-0.128,0.287-0.194,0.43c-0.001,0.004-0.003,0.008-0.005,0.012
		c-0.169,0.371-0.342,0.743-0.518,1.115c-0.036,0.077-0.071,0.154-0.108,0.231c-0.198,0.418-0.399,0.837-0.604,1.257
		c-0.001,0.004-0.004,0.008-0.006,0.012c-0.069,0.142-0.14,0.284-0.21,0.427c-0.005,0.01-0.011,0.021-0.016,0.032
		c-0.141,0.286-0.283,0.573-0.427,0.858c-0.063,0.125-0.126,0.251-0.19,0.376c-0.022,0.043-0.044,0.086-0.065,0.129
		c-0.003,0.007-0.007,0.013-0.01,0.02c-0.14,0.276-0.281,0.552-0.424,0.829c-0.005,0.01-0.011,0.021-0.016,0.031
		c-0.081,0.155-0.16,0.31-0.241,0.465c-0.003,0.006-0.006,0.012-0.009,0.018c-0.165,0.316-0.331,0.632-0.499,0.949
		c-0.066,0.125-0.132,0.25-0.198,0.375c-0.227,0.426-0.456,0.853-0.688,1.279c-0.058,0.108-0.118,0.216-0.177,0.324
		c-0.02,0.036-0.039,0.071-0.059,0.107c-0.013,0.023-0.025,0.047-0.039,0.07c-0.149,0.273-0.299,0.546-0.449,0.818
		c-0.005,0.01-0.011,0.02-0.017,0.03c-0.093,0.168-0.187,0.336-0.28,0.504c-0.008,0.015-0.017,0.03-0.025,0.045
		c-0.14,0.25-0.281,0.5-0.421,0.751c-0.01,0.019-0.021,0.037-0.031,0.055c-0.092,0.165-0.185,0.329-0.278,0.493
		c-0.007,0.013-0.014,0.025-0.021,0.038c-0.148,0.261-0.297,0.521-0.445,0.781c-0.054,0.094-0.108,0.188-0.162,0.282
		c-0.041,0.073-0.083,0.146-0.124,0.218c-0.006,0.01-0.011,0.021-0.018,0.03c-0.234,0.407-0.47,0.814-0.706,1.219
		c-0.118,0.202-0.235,0.403-0.353,0.604c-0.134,0.228-0.268,0.457-0.402,0.684c-0.131,0.223-0.263,0.444-0.394,0.666
		c-0.123,0.207-0.244,0.413-0.367,0.619c-0.018,0.031-0.037,0.062-0.055,0.092c-0.101,0.17-0.202,0.34-0.304,0.51
		c-0.016,0.026-0.031,0.052-0.047,0.078c-0.113,0.189-0.225,0.377-0.338,0.565c-0.041,0.067-0.081,0.135-0.122,0.202
		c-0.022,0.039-0.046,0.078-0.069,0.116c-0.081,0.134-0.161,0.268-0.242,0.401c-0.038,0.063-0.075,0.125-0.113,0.188
		c-0.412,0.684-0.823,1.363-1.233,2.036c-0.008,0.012-0.015,0.025-0.023,0.037c-0.032,0.052-0.063,0.104-0.095,0.155
		c-0.063,0.103-0.125,0.205-0.188,0.307c-0.128,0.211-0.257,0.422-0.386,0.632c-0.001,0.003-0.003,0.006-0.005,0.009
		c-0.215,0.352-0.428,0.7-0.642,1.049c-0.124,0.202-0.248,0.403-0.37,0.604c-0.089,0.146-0.179,0.291-0.268,0.437
		c-0.239,0.388-0.476,0.774-0.711,1.157c-2.708,4.409-5.19,8.451-6.971,11.758c-0.594,1.103-1.11,2.123-1.53,3.049
		c-0.388,0.854-0.695,1.627-0.906,2.308c-0.036,0.114-0.074,0.246-0.116,0.39c-0.039,0.135-0.077,0.274-0.116,0.415l0,0
		c-0.024,0.091-0.05,0.188-0.075,0.288c-0.001,0.001-0.001,0.002-0.001,0.003c-0.047,0.182-0.093,0.371-0.139,0.563
		c0,0,0,0.001,0,0.001c-0.13,0.55-0.267,1.199-0.401,1.943c-0.002,0.011-0.005,0.021-0.006,0.032
		c-0.016,0.089-0.032,0.177-0.048,0.268c0,0.002,0,0.004,0,0.005c-0.03,0.178-0.062,0.362-0.092,0.55c0,0.003,0,0.006-0.001,0.009
		c-0.045,0.284-0.088,0.573-0.13,0.871c0,0.002,0,0.005,0,0.007c-0.015,0.103-0.029,0.208-0.043,0.314
		c-0.001,0.005-0.001,0.01-0.002,0.015c-0.321,2.393-0.558,5.468-0.521,9.236v0.037c0.001,0.073,0.002,0.146,0.002,0.219
		c0,0.021,0,0.042,0.001,0.063c0.003,0.367,0.014,0.744,0.023,1.12c0.001,0.046,0.002,0.09,0.003,0.136
		c0.109,3.706,0.48,8.019,1.278,12.953c1.856,3.22,3.966,4.853,6.271,4.853h0c3.595,0,8.054-4.064,11.929-10.871
		c3.616-6.355,6.133-14.021,6.412-19.531C121.087,113.914,124.756,112.392,127.994,111.047z M155.228,273.934
		c-2.1-5.398-2.115-9.49-0.049-12.512c0.063-0.092,0.139-0.178,0.206-0.269v-22.796c0-2.462-1.984-4.465-4.422-4.465
		c-0.593,0-1.177,0.125-1.736,0.369c-2.899,1.271-6.115,2.161-9.558,2.642c-0.274,0.039-0.552,0.059-0.824,0.059
		c-8.675,0.001-12.267-19.146-14.207-29.985c-0.409,1.674-0.925,3.408-1.456,5.195c-1.838,6.174-3.734,12.558-1.16,16.999
		c0.001,0.001,0.001,0.002,0.001,0.003c0.012,0.021,0.023,0.043,0.036,0.063c0.001,0.001,0.001,0.003,0.001,0.003
		c0.064,0.095,0.133,0.188,0.2,0.283c0,0.001,0.001,0.002,0.001,0.002c0.002,0.003,0.005,0.007,0.006,0.01
		c0.004,0.005,0.007,0.01,0.011,0.015c0.055,0.078,0.109,0.157,0.165,0.234c0.002,0.003,0.004,0.006,0.005,0.008
		c0.028,0.038,0.053,0.076,0.08,0.113c0.152,0.208,0.31,0.412,0.47,0.615c0.012,0.016,0.023,0.032,0.036,0.047
		c1.114,1.402,2.152,2.625,3.103,3.729c0.246,0.287,0.49,0.57,0.724,0.841c3.279,3.793,5.583,6.458,6.998,11.303
		c0.202,0.692,0.386,1.429,0.551,2.22c0.2,0.948,0.373,1.976,0.521,3.097c0.444,3.364,0.661,7.579,0.661,13.096
		c0,21.517,1.059,42.523,13.716,42.523c0.88,0,1.824-0.1,2.807-0.296c12.419-2.484,18.929-2.854,21.705-2.854h0.025v-12.423
		C167.703,290.997,159.15,284.021,155.228,273.934z M254.701,123.358c-0.001-0.005-0.002-0.01-0.002-0.015
		c-0.015-0.105-0.029-0.211-0.044-0.314c0-0.002,0-0.005,0-0.007c-0.042-0.297-0.086-0.587-0.131-0.871
		c0-0.003-0.001-0.006-0.001-0.009c-0.03-0.188-0.062-0.372-0.092-0.55c-0.001-0.001-0.001-0.003-0.001-0.005
		c-0.016-0.091-0.032-0.178-0.048-0.268c-0.002-0.011-0.004-0.021-0.006-0.032c-0.135-0.744-0.272-1.393-0.401-1.943
		c-0.001,0-0.001-0.001-0.001-0.001c-0.045-0.192-0.092-0.381-0.139-0.563c0-0.001,0-0.002-0.001-0.003
		c-0.025-0.1-0.051-0.197-0.076-0.288l0,0c-0.037-0.14-0.075-0.278-0.114-0.413c-0.041-0.145-0.08-0.277-0.117-0.392
		c-0.281-0.908-0.732-1.98-1.319-3.189c-0.221-0.454-0.46-0.927-0.718-1.418c-1.799-3.438-4.454-7.76-7.369-12.508
		c-0.236-0.383-0.473-0.77-0.711-1.157c-0.09-0.146-0.179-0.291-0.269-0.437c-0.116-0.19-0.233-0.381-0.351-0.573
		c-0.221-0.359-0.439-0.718-0.661-1.081c-0.002-0.003-0.004-0.006-0.006-0.009c-0.128-0.21-0.257-0.421-0.386-0.632
		c-0.063-0.102-0.124-0.204-0.188-0.307c-0.031-0.052-0.063-0.104-0.095-0.155c-0.007-0.012-0.015-0.025-0.022-0.037
		c-0.41-0.673-0.821-1.352-1.233-2.036c-0.037-0.063-0.075-0.125-0.114-0.188c-0.08-0.133-0.16-0.268-0.241-0.401
		c-0.022-0.039-0.046-0.078-0.068-0.116c-0.041-0.067-0.081-0.135-0.122-0.202c-0.112-0.188-0.226-0.375-0.337-0.564
		c-0.017-0.026-0.031-0.052-0.047-0.078c-0.043-0.072-0.086-0.145-0.129-0.217c-0.079-0.131-0.157-0.263-0.235-0.395
		c-0.12-0.201-0.238-0.401-0.358-0.603c-0.02-0.035-0.041-0.07-0.062-0.105l-0.049-0.083c-0.097-0.162-0.191-0.324-0.288-0.486
		c-0.134-0.228-0.267-0.456-0.4-0.684c-0.117-0.201-0.235-0.402-0.353-0.604c-0.237-0.405-0.472-0.812-0.706-1.219
		c-0.006-0.01-0.012-0.02-0.018-0.03c-0.042-0.072-0.083-0.145-0.125-0.218c-0.053-0.094-0.107-0.188-0.161-0.282
		c-0.148-0.26-0.297-0.521-0.445-0.781c-0.007-0.013-0.014-0.025-0.021-0.038c-0.093-0.165-0.186-0.329-0.278-0.493
		c-0.01-0.018-0.021-0.036-0.03-0.055c-0.141-0.25-0.281-0.5-0.421-0.751c-0.009-0.015-0.017-0.03-0.025-0.045
		c-0.094-0.168-0.187-0.336-0.28-0.504c-0.005-0.01-0.011-0.02-0.017-0.03c-0.15-0.272-0.3-0.545-0.449-0.818
		c-0.013-0.023-0.025-0.047-0.038-0.07c-0.021-0.036-0.04-0.072-0.06-0.107c-0.06-0.108-0.118-0.216-0.178-0.324
		c-0.231-0.426-0.461-0.853-0.688-1.279c-0.066-0.125-0.132-0.25-0.198-0.375c-0.167-0.317-0.333-0.633-0.498-0.949
		c-0.003-0.006-0.006-0.012-0.01-0.018c-0.08-0.155-0.161-0.31-0.24-0.465c-0.005-0.01-0.011-0.021-0.016-0.031
		c-0.144-0.276-0.284-0.552-0.425-0.829c-0.004-0.007-0.007-0.013-0.01-0.02c-0.021-0.043-0.044-0.086-0.065-0.129
		c-0.063-0.125-0.127-0.251-0.19-0.376c-0.144-0.286-0.286-0.572-0.427-0.858c-0.005-0.01-0.01-0.021-0.017-0.032
		c-0.069-0.143-0.141-0.285-0.209-0.427c-0.003-0.004-0.005-0.008-0.006-0.012c-0.205-0.419-0.407-0.838-0.604-1.257
		c-0.037-0.077-0.073-0.154-0.109-0.231c-0.175-0.372-0.348-0.745-0.518-1.115c-0.001-0.004-0.003-0.008-0.005-0.012
		c-0.065-0.143-0.13-0.287-0.194-0.43c-0.004-0.008-0.007-0.016-0.01-0.023c-0.129-0.286-0.256-0.571-0.381-0.855
		c-0.002-0.004-0.004-0.008-0.006-0.012c-0.004-0.009-0.008-0.018-0.012-0.027c-0.067-0.153-0.134-0.306-0.199-0.459
		c-0.122-0.282-0.242-0.564-0.36-0.846c-0.065-0.155-0.131-0.311-0.194-0.466c-0.147-0.356-0.291-0.71-0.431-1.064
		c-0.005-0.013-0.01-0.025-0.016-0.038c-0.015-0.039-0.03-0.078-0.047-0.117c-0.009-0.023-0.019-0.046-0.027-0.07
		c-0.165-0.421-0.325-0.841-0.479-1.259c-0.029-0.078-0.058-0.157-0.085-0.234c-0.02-0.054-0.039-0.107-0.059-0.16
		c-0.001-0.004-0.003-0.008-0.005-0.012c-0.104-0.29-0.208-0.579-0.308-0.866c-0.001-0.002-0.001-0.004-0.002-0.007
		c-0.05-0.141-0.097-0.282-0.145-0.422c-0.005-0.013-0.009-0.026-0.014-0.04c-0.093-0.275-0.184-0.548-0.271-0.821
		c-0.037-0.116-0.074-0.231-0.111-0.347c-0.01-0.032-0.021-0.064-0.03-0.097c0-0.001-0.001-0.002-0.001-0.003
		c-0.099-0.314-0.192-0.627-0.283-0.938c-0.016-0.056-0.033-0.113-0.05-0.17c-0.013-0.043-0.025-0.086-0.038-0.129
		c0-0.001,0-0.001-0.001-0.002c-0.107-0.378-0.21-0.754-0.306-1.127c-0.954,3.266-2.354,6.575-3.801,9.989
		c-3.065,7.242-6.541,15.449-6.541,25.252c0,8.908,3.015,10.16,6.505,11.608c3.236,1.345,6.906,2.867,7.294,10.526
		c0.278,5.509,2.796,13.174,6.412,19.529c3.875,6.808,8.336,10.873,11.931,10.873c2.305,0,4.413-1.633,6.271-4.853
		c0.797-4.933,1.169-9.243,1.277-12.948c0.001-0.047,0.002-0.094,0.004-0.142c0.009-0.376,0.019-0.753,0.023-1.12
		c0-0.021,0-0.042,0-0.063c0.001-0.074,0.002-0.146,0.003-0.219c0-0.012,0-0.025,0-0.037
		C255.26,128.826,255.022,125.75,254.701,123.358z M225.362,206.977c-1.94,10.839-5.532,29.985-14.206,29.985
		c-0.272,0-0.55-0.02-0.825-0.059c-3.443-0.48-6.658-1.37-9.558-2.642c-0.559-0.244-1.143-0.369-1.735-0.369
		c-2.438,0-4.422,2.003-4.422,4.465v22.796c0.067,0.091,0.143,0.177,0.206,0.269c2.065,3.021,2.05,7.113-0.05,12.512
		c-3.922,10.088-12.475,17.063-18.618,17.869v12.423h0.026c2.774,0,9.284,0.37,21.704,2.854c0.981,0.196,1.925,0.296,2.804,0.296
		h0.002l0,0h0.001c0.327,0,0.646-0.017,0.961-0.046c0.038-0.003,0.077-0.005,0.115-0.009c0.302-0.03,0.597-0.076,0.887-0.133
		c0.041-0.008,0.083-0.016,0.124-0.024c0.293-0.062,0.58-0.136,0.861-0.225c0.025-0.008,0.052-0.017,0.078-0.025
		c0.237-0.076,0.468-0.166,0.695-0.262c0.043-0.019,0.085-0.039,0.128-0.058c0.195-0.085,0.387-0.179,0.574-0.278
		c0.03-0.016,0.061-0.032,0.091-0.049c5.373-2.931,7.639-11.43,8.571-22.047c0.021-0.229,0.04-0.461,0.059-0.692
		c0.015-0.174,0.028-0.349,0.042-0.522c0.407-5.259,0.515-10.989,0.527-16.789c0.001-0.456,0.002-0.913,0.002-1.364
		c0-5.517,0.217-9.731,0.661-13.096c0.148-1.121,0.321-2.148,0.521-3.097c0.167-0.791,0.351-1.527,0.553-2.22
		c1.414-4.845,3.719-7.51,6.998-11.303c0.233-0.271,0.477-0.554,0.724-0.841c0.95-1.104,1.987-2.327,3.103-3.729
		c0.012-0.015,0.023-0.031,0.036-0.047c0.16-0.203,0.317-0.407,0.469-0.615c0.028-0.037,0.054-0.075,0.081-0.113
		c0.058-0.08,0.113-0.162,0.171-0.242c0.006-0.009,0.012-0.018,0.018-0.026c0.066-0.095,0.136-0.188,0.2-0.283
		c0,0,0-0.002,0.001-0.003c0.013-0.021,0.022-0.043,0.036-0.063c2.576-4.442,0.679-10.826-1.158-17.002
		C226.288,210.385,225.771,208.65,225.362,206.977z"/>
	<path fill="#1A1A1A" d="M125.75,40.316c1.59,0,2.636,1.956,5.03,7.857C128.386,42.272,127.341,40.316,125.75,40.316
		c-1.799,0-2.649,1.852-2.792,12.602C123.101,42.168,123.951,40.316,125.75,40.316z M145.664,126.186
		c-0.153-30.278-1.277-43.498-8.745-58.206c-0.01-0.02-0.02-0.039-0.029-0.059c-0.13-0.256-0.262-0.512-0.396-0.769
		c-2.639-5.059-4.914-10.763-6.742-15.346c-1.356-3.402-2.865-7.184-3.804-8.664c-0.336,1.333-0.704,4.766-0.704,13.406
		c0,5.313,2.241,10.609,4.838,16.74c3.152,7.443,6.724,15.88,6.724,26.151c0,10.449-4.212,12.197-7.928,13.74
		c-3.106,1.29-5.56,2.308-5.874,8.511c-0.558,11.014-10.251,32.593-20.646,32.593c0,0,0,0-0.002,0
		c-1.966-0.001-3.777-0.775-5.416-2.299l-0.001-0.001c1.271,6.196,3.195,12.98,5.959,20.209c0-0.001,0-0.001,0-0.002
		c0.079-7.299,3.569-14.986,12.543-23.96C124.943,138.727,134.397,131.041,145.664,126.186z M106.68,186.519
		c0.01,0.021,0.02,0.041,0.03,0.062c0.001,0.004,0.004,0.008,0.005,0.011c-0.002-0.004-0.004-0.008-0.006-0.012
		C106.699,186.559,106.689,186.538,106.68,186.519z M148.434,125.064c-0.154,0.059-0.31,0.114-0.464,0.173
		c-0.1-18.845-0.554-31.303-3.027-41.981c2.377,10.353,2.913,22.729,3.024,41.989C148.123,125.185,148.278,125.124,148.434,125.064z
		 M116.277,216.454c-0.499-6.52-1.12-14.635-8.114-27.123C115.157,201.82,115.778,209.935,116.277,216.454
		c0.379,4.962,0.72,9.317,3.788,13.941c-0.001-0.002-0.002-0.004-0.002-0.005C116.998,225.769,116.656,221.414,116.277,216.454z
		 M211.461,66.084c1.606-3.078,3.082-6.422,4.405-9.601C214.543,59.662,213.067,63.005,211.461,66.084z M205.059,83.256
		c-2.475,10.679-2.928,23.136-3.027,41.981c-0.153-0.06-0.31-0.115-0.465-0.173c0.157,0.06,0.312,0.121,0.468,0.181
		C202.146,105.985,202.681,93.609,205.059,83.256z M224.251,40.316c1.798,0,2.648,1.852,2.792,12.602
		C226.899,42.168,226.049,40.316,224.251,40.316c-0.777,0-1.425,0.47-2.164,1.638C222.826,40.787,223.474,40.316,224.251,40.316z
		 M243.79,185.552c0.003-0.005,0.006-0.01,0.008-0.014C243.796,185.542,243.793,185.547,243.79,185.552L243.79,185.552z
		 M243.281,186.6c0.003-0.006,0.007-0.012,0.01-0.018c0.018-0.036,0.033-0.07,0.051-0.106c-0.017,0.035-0.033,0.068-0.05,0.104
		C243.288,186.586,243.285,186.593,243.281,186.6z M204.325,128.723c-0.381-0.171-0.767-0.337-1.152-0.502
		c-0.383-0.163-0.765-0.327-1.15-0.483c-3.608-1.457-7.407-2.619-11.461-3.45c-0.021-0.004-0.041-0.008-0.062-0.012
		c-0.633-0.129-1.271-0.249-1.917-0.362c-0.071-0.012-0.142-0.025-0.213-0.037c-0.646-0.111-1.297-0.214-1.955-0.308
		c-0.033-0.005-0.065-0.01-0.099-0.015c-1.372-0.195-2.775-0.352-4.207-0.474c-0.167-0.014-0.335-0.026-0.502-0.039
		c-0.524-0.042-1.055-0.078-1.588-0.109c-0.221-0.013-0.442-0.025-0.665-0.036c-0.509-0.026-1.023-0.046-1.541-0.063
		c-0.212-0.006-0.424-0.015-0.637-0.02c-0.719-0.018-1.442-0.029-2.177-0.029c-0.734,0-1.458,0.011-2.176,0.029
		c-0.213,0.005-0.425,0.014-0.638,0.02c-0.518,0.017-1.031,0.037-1.541,0.063c-0.222,0.011-0.443,0.023-0.664,0.036
		c-0.534,0.031-1.063,0.067-1.588,0.109c-0.167,0.013-0.335,0.024-0.501,0.039c-1.433,0.122-2.835,0.279-4.208,0.474
		c-0.032,0.004-0.065,0.01-0.097,0.015c-0.659,0.094-1.311,0.197-1.956,0.308c-0.071,0.012-0.142,0.024-0.212,0.037
		c-0.646,0.113-1.285,0.233-1.917,0.362c-0.021,0.004-0.041,0.008-0.062,0.012c-4.053,0.831-7.853,1.993-11.46,3.45
		c-0.387,0.156-0.768,0.32-1.151,0.483c-0.386,0.165-0.771,0.331-1.153,0.502c-10.589,4.753-19.569,12.105-28.603,21.138
		c-13.622,13.623-13.952,23.695-8.808,34.641c0.003,0.007,0.005,0.013,0.008,0.019c0.158,0.322,0.308,0.642,0.47,0.965
		c0.01,0.023,0.02,0.044,0.032,0.067l0,0c0.009,0.018,0.017,0.033,0.025,0.051c0,0,0,0,0,0.002c0.209,0.417,0.424,0.837,0.647,1.257
		c0.004,0.008,0.008,0.015,0.011,0.021c0.21,0.398,0.428,0.796,0.648,1.19c0.024,0.044,0.047,0.087,0.07,0.13
		c0.736,1.314,1.4,2.579,2.007,3.803c0.314,0.633,0.613,1.255,0.895,1.864c1.049,2.271,1.882,4.384,2.551,6.362
		c1.098,3.25,1.749,6.137,2.167,8.754c0.139,0.873,0.253,1.716,0.348,2.532c0.003,0.021,0.006,0.044,0.008,0.066
		c0.039,0.338,0.074,0.671,0.108,1c0.061,0.597,0.114,1.181,0.163,1.75c0,0.003,0,0.007,0.001,0.01
		c0.055,0.66,0.104,1.304,0.153,1.934c0.089,1.166,0.176,2.276,0.293,3.352c0.477-2.662,1.293-5.407,2.099-8.116
		c0.991-3.331,1.927-6.478,2.157-9.229c0.074-0.9,0.188-2.26,1.407-2.26c1.097,0,1.333,1.101,1.582,2.267
		c0.188,0.883,0.405,2.098,0.68,3.635c1.536,8.597,5.132,28.729,12.049,28.729c0.166,0,0.335-0.012,0.505-0.035
		c3.235-0.453,6.246-1.284,8.951-2.471c0.854-0.373,1.749-0.563,2.663-0.563c3.71,0,6.729,3.038,6.729,6.772v20.616
		c3.457-2.366,9.163-3.528,17.308-3.528c8.146,0,13.853,1.162,17.309,3.528v-20.616c0-3.734,3.019-6.772,6.729-6.772
		c0.913,0,1.809,0.19,2.662,0.563c2.706,1.187,5.717,2.018,8.951,2.471c7.26,1.004,10.982-19.892,12.555-28.693
		c0.274-1.537,0.491-2.752,0.68-3.635c0.249-1.166,0.484-2.267,1.581-2.267c1.219,0,1.332,1.359,1.407,2.26
		c0.229,2.752,1.166,5.898,2.157,9.229c0.806,2.709,1.623,5.454,2.1,8.116c0.116-1.075,0.203-2.186,0.292-3.351
		c0.032-0.423,0.065-0.85,0.101-1.286c0.034-0.435,0.071-0.877,0.111-1.327c0.468-5.193,1.423-11.432,5.287-19.795
		c0.281-0.609,0.581-1.232,0.895-1.865c0.606-1.224,1.271-2.488,2.007-3.803c0.246-0.438,0.485-0.88,0.72-1.321
		c0.003-0.005,0.006-0.011,0.009-0.018c0.224-0.422,0.439-0.843,0.648-1.262c0.001,0,0.001,0,0.001,0
		c0.007-0.014,0.013-0.027,0.02-0.041c0.001-0.003,0.003-0.006,0.004-0.009c0.084-0.166,0.158-0.328,0.24-0.494
		c0.089-0.181,0.174-0.359,0.263-0.539c0.001-0.004,0.003-0.008,0.004-0.011c5.149-10.949,4.821-21.022-8.804-34.648
		C223.895,140.828,214.915,133.476,204.325,128.723z M148.662,191.29c-11.607,0-13.341-4.771-13.341-7.615
		c0-2.773,5.195-8.078,13.341-8.078c6.664,0,9.699,4.038,9.699,7.788C158.361,187.314,155.029,191.29,148.662,191.29z
		 M202.218,191.29c-6.367,0-9.698-3.976-9.698-7.905c0-2.082,0.895-4.011,2.519-5.432c1.76-1.541,4.243-2.356,7.18-2.356
		c8.146,0,13.341,5.304,13.341,8.078C215.559,186.519,213.825,191.29,202.218,191.29z M121.229,232.004
		c-0.009-0.012-0.018-0.023-0.026-0.034c-0.001-0.001-0.001-0.002-0.002-0.003C121.209,231.979,121.218,231.991,121.229,232.004
		c1.433,1.803,2.736,3.312,3.887,4.643c3.16,3.655,5.307,6.139,6.604,10.707c-1.297-4.568-3.444-7.052-6.604-10.707
		C123.966,235.315,122.662,233.807,121.229,232.004z M253.062,151.984c-1.64,1.525-3.45,2.299-5.417,2.299
		c-10.396,0-20.09-21.58-20.647-32.593c-0.314-6.203-2.768-7.221-5.874-8.511c-3.716-1.542-7.928-3.291-7.928-13.74
		c0-10.271,3.572-18.708,6.724-26.151c2.597-6.131,4.839-11.427,4.839-16.74c0-8.64-0.369-12.073-0.705-13.406
		c-0.938,1.48-2.447,5.262-3.804,8.664c-1.827,4.583-4.103,10.288-6.742,15.346c-0.134,0.257-0.266,0.513-0.396,0.769
		c-0.01,0.02-0.02,0.039-0.03,0.059c-7.467,14.708-8.591,27.928-8.745,58.206c11.268,4.855,20.722,12.542,30.224,22.043
		c8.975,8.974,12.465,16.662,12.544,23.96c0,0.001,0,0.001,0,0.002C249.867,164.963,251.791,158.179,253.062,151.984
		C253.063,151.983,253.062,151.983,253.062,151.984z M231.682,227.191c1.488-3.485,1.752-6.934,2.043-10.737
		c0.209-2.733,0.438-5.746,1.151-9.244c-0.713,3.498-0.942,6.511-1.152,9.244C233.434,220.258,233.17,223.706,231.682,227.191z
		 M192.917,262.725c-0.177-0.258-0.385-0.503-0.608-0.742c-2.623-2.805-8.432-4.229-17.309-4.229
		c-8.876,0-14.684,1.425-17.308,4.229c-0.223,0.239-0.431,0.484-0.608,0.742c-0.213,0.312-0.393,0.641-0.546,0.988
		c-0.848,1.93-0.777,4.44,0.217,7.609c0.178,0.57,0.385,1.161,0.624,1.774c3.803,9.78,11.669,15.525,16.467,16.366
		c0.408,0.071,0.795,0.111,1.154,0.111c0.359,0,0.747-0.04,1.154-0.111c4.798-0.841,12.665-6.586,16.468-16.366
		c0.238-0.613,0.444-1.204,0.624-1.774c0.993-3.169,1.064-5.68,0.217-7.609C193.31,263.365,193.13,263.036,192.917,262.725z
		 M228.773,232.004c-1.434,1.803-2.738,3.312-3.888,4.643C226.035,235.315,227.34,233.807,228.773,232.004z"/>
	<path fill="#EFC27C" d="M210.384,187.618c1.682-0.795,2.867-2.032,2.867-3.943c0-0.51-0.686-1.581-1.981-2.664
		C212.007,183.197,211.715,185.654,210.384,187.618z"/>
	<path fill="#EFC27C" d="M198.428,178.604c-2.047,0.822-3.601,2.384-3.601,4.78c0,1.921,1.182,3.94,3.692,4.945
		c-1.188-1.364-1.844-3.087-1.844-4.913C196.676,181.636,197.295,179.951,198.428,178.604z"/>
	<path fill="#EFC27C" d="M152.358,188.331c2.513-1.006,3.694-3.024,3.694-4.946c0-1.407-0.614-2.719-1.729-3.695
		c-0.541-0.474-1.189-0.852-1.922-1.139C154.806,181.361,154.791,185.536,152.358,188.331z"/>
	<path fill="#EFC27C" d="M139.611,181.011c-1.296,1.083-1.981,2.154-1.981,2.664c0,1.911,1.187,3.148,2.867,3.943
		C139.165,185.654,138.873,183.197,139.611,181.011z"/>
	<path fill="#4D4D4D" d="M145.134,184.949c-0.916-0.915-1.42-2.132-1.42-3.426c0-1.055,0.34-2.056,0.959-2.886
		c-0.604,0.258-1.162,0.629-1.641,1.108c-2.024,2.024-2.024,5.317,0,7.343c0.981,0.979,2.285,1.521,3.671,1.521
		s2.691-0.541,3.671-1.521c0.512-0.512,0.892-1.104,1.146-1.735c-0.845,0.656-1.875,1.015-2.961,1.015
		C147.266,186.368,146.049,185.864,145.134,184.949z M206.068,186.406c-1.293,0-2.511-0.504-3.425-1.419
		c-0.916-0.915-1.42-2.132-1.42-3.426c0-1.087,0.36-2.117,1.017-2.963c-0.642,0.258-1.232,0.644-1.735,1.147
		c-0.981,0.98-1.521,2.284-1.521,3.671s0.54,2.69,1.521,3.672c0.98,0.979,2.283,1.521,3.67,1.521c1.388,0,2.691-0.541,3.673-1.521
		c0.483-0.484,0.848-1.043,1.101-1.638C208.119,186.069,207.121,186.406,206.068,186.406z"/>
	<path fill="#FFFFFF" d="M148.56,178.986c-0.678,0-1.315,0.263-1.794,0.743c-0.48,0.479-0.743,1.116-0.743,1.794
		s0.264,1.315,0.743,1.795c0.479,0.479,1.116,0.742,1.794,0.742c0.677,0,1.315-0.264,1.794-0.742c0.989-0.99,0.989-2.6,0-3.589
		C149.875,179.25,149.237,178.986,148.56,178.986z M207.863,179.767c-0.479-0.479-1.117-0.742-1.795-0.742s-1.314,0.264-1.794,0.742
		c-0.479,0.479-0.743,1.117-0.743,1.795s0.264,1.314,0.743,1.794s1.116,0.743,1.794,0.743s1.316-0.264,1.795-0.743
		s0.743-1.116,0.743-1.794S208.342,180.246,207.863,179.767z"/>
	<path fill="#0D0D0D" d="M202.218,175.597c-2.937,0-5.42,0.815-7.18,2.356c-1.624,1.421-2.519,3.35-2.519,5.432
		c0,3.93,3.331,7.905,9.698,7.905c11.607,0,13.341-4.771,13.341-7.615C215.559,180.901,210.363,175.597,202.218,175.597z
		 M204.274,179.767c0.479-0.479,1.116-0.742,1.794-0.742s1.316,0.264,1.795,0.742c0.479,0.479,0.743,1.117,0.743,1.795
		s-0.265,1.314-0.743,1.794s-1.117,0.743-1.795,0.743s-1.314-0.264-1.794-0.743s-0.743-1.116-0.743-1.794
		S203.795,180.246,204.274,179.767z M194.827,183.385c0-2.396,1.554-3.958,3.601-4.78c-1.133,1.347-1.752,3.031-1.752,4.813
		c0,1.826,0.655,3.549,1.844,4.913C196.009,187.325,194.827,185.306,194.827,183.385z M207.848,187.089
		c-0.981,0.979-2.285,1.521-3.673,1.521c-1.387,0-2.689-0.541-3.67-1.521c-0.981-0.981-1.521-2.285-1.521-3.672
		s0.54-2.69,1.521-3.671c0.503-0.504,1.094-0.89,1.735-1.147c-0.656,0.846-1.017,1.876-1.017,2.963c0,1.294,0.504,2.511,1.42,3.426
		c0.914,0.915,2.132,1.419,3.425,1.419c1.053,0,2.051-0.337,2.88-0.955C208.695,186.046,208.331,186.604,207.848,187.089z
		 M210.384,187.618c1.331-1.964,1.623-4.421,0.886-6.607c1.296,1.083,1.981,2.154,1.981,2.664
		C213.251,185.586,212.065,186.823,210.384,187.618z M256.049,118.126c-0.002-0.007-0.003-0.015-0.005-0.022
		c-0.014-0.052-0.026-0.109-0.04-0.161c-0.021-0.08-0.044-0.149-0.065-0.227c-0.067-0.243-0.135-0.484-0.206-0.716
		c-1.213-3.909-5.121-10.271-9.646-17.639c-8.475-13.798-19.021-30.97-19.021-42.814c0-1.311-0.007-2.518-0.021-3.629
		c-0.144-10.75-0.994-12.602-2.792-12.602c-0.777,0-1.425,0.47-2.164,1.638c-0.987,1.562-2.138,4.374-3.981,8.997
		c-0.685,1.717-1.434,3.594-2.239,5.532c-1.323,3.179-2.799,6.523-4.405,9.601c-0.252,0.483-0.497,0.964-0.735,1.443
		c-0.008,0.018-0.017,0.035-0.025,0.052c-2.183,4.39-3.818,8.656-5.045,13.267c-0.011,0.043-0.022,0.086-0.033,0.128
		c-0.104,0.395-0.205,0.792-0.304,1.191c-0.071,0.289-0.141,0.579-0.209,0.872c-0.018,0.073-0.034,0.146-0.051,0.219
		c-2.378,10.353-2.913,22.729-3.024,41.989c-0.156-0.06-0.311-0.121-0.468-0.181c-0.305-0.115-0.609-0.23-0.916-0.341
		c-0.2-0.073-0.402-0.142-0.604-0.213c-1.418-0.499-2.864-0.956-4.344-1.366c-0.003,0-0.005-0.001-0.007-0.002
		c-0.49-0.136-0.983-0.265-1.478-0.39c-0.091-0.023-0.182-0.046-0.272-0.069c-0.482-0.12-0.967-0.235-1.452-0.346
		c-0.074-0.017-0.149-0.033-0.223-0.049c-0.716-0.159-1.438-0.308-2.169-0.447c-0.728-0.138-1.461-0.265-2.199-0.383
		c-0.234-0.037-0.468-0.075-0.704-0.11c-0.37-0.055-0.74-0.106-1.113-0.156c-0.315-0.042-0.633-0.082-0.951-0.12
		c-0.329-0.04-0.658-0.08-0.99-0.116c-0.543-0.059-1.091-0.112-1.644-0.159c-0.253-0.022-0.508-0.042-0.763-0.062
		c-0.534-0.041-1.072-0.079-1.616-0.11c-0.244-0.014-0.49-0.026-0.735-0.038c-0.502-0.025-1.007-0.045-1.515-0.061
		c-0.226-0.007-0.45-0.015-0.678-0.021c-0.725-0.018-1.454-0.029-2.194-0.029c-0.74,0-1.469,0.012-2.194,0.029
		c-0.227,0.005-0.452,0.013-0.677,0.021c-0.508,0.016-1.014,0.036-1.515,0.061c-0.245,0.012-0.491,0.023-0.735,0.038
		c-0.544,0.031-1.082,0.069-1.617,0.11c-0.255,0.02-0.51,0.04-0.764,0.062c-0.551,0.047-1.099,0.101-1.642,0.159
		c-0.332,0.036-0.661,0.076-0.991,0.116c-0.319,0.039-0.636,0.078-0.951,0.12c-0.372,0.05-0.744,0.101-1.113,0.156
		c-0.236,0.035-0.47,0.073-0.705,0.11c-1.488,0.236-2.943,0.513-4.367,0.83c-0.074,0.017-0.149,0.033-0.223,0.049
		c-0.487,0.11-0.97,0.226-1.452,0.346c-0.091,0.023-0.182,0.046-0.273,0.069c-0.495,0.125-0.987,0.255-1.478,0.391
		c-0.001,0-0.003,0-0.004,0.001c-1.48,0.411-2.927,0.868-4.345,1.366c-0.202,0.071-0.404,0.141-0.605,0.213
		c-0.306,0.111-0.61,0.226-0.916,0.34c-0.156,0.06-0.312,0.121-0.467,0.181c-0.112-19.26-0.647-31.636-3.024-41.989
		c-0.017-0.073-0.034-0.146-0.051-0.219c-0.068-0.292-0.138-0.583-0.209-0.873c-0.098-0.398-0.198-0.794-0.303-1.187
		c-0.012-0.044-0.023-0.089-0.035-0.134c-1.226-4.61-2.861-8.876-5.044-13.265c-0.008-0.017-0.018-0.034-0.026-0.052
		c-0.238-0.479-0.483-0.96-0.735-1.443c-2.585-4.955-4.836-10.599-6.645-15.133c-0.402-1.01-0.772-1.934-1.114-2.777
		c-2.395-5.901-3.44-7.857-5.03-7.857c-1.799,0-2.649,1.852-2.792,12.602c-0.015,1.112-0.022,2.319-0.022,3.629
		c0,11.844-10.548,29.016-19.022,42.814c-4.524,7.367-8.432,13.73-9.645,17.639c-0.072,0.232-0.139,0.472-0.206,0.715
		c-0.022,0.078-0.045,0.148-0.066,0.228c-0.014,0.051-0.026,0.109-0.04,0.161c-0.001,0.007-0.004,0.015-0.005,0.022
		c-1.355,5.098-1.778,12.029-1.256,19.679c0.001,0.029,0.004,0.058,0.005,0.087c0.019,0.276,0.036,0.549,0.056,0.828
		c0.002,0.015,0.002,0.03,0.004,0.044c0.008,0.102,0.018,0.206,0.026,0.308c0.259,3.302,0.708,6.866,1.391,10.658
		c0,0.001,0,0.002,0,0.003c0.135,0.748,0.278,1.503,0.432,2.269c0.004,0.018,0.007,0.037,0.011,0.054
		c0.15,0.749,0.31,1.504,0.478,2.268c0.011,0.049,0.023,0.099,0.034,0.147c0.164,0.735,0.333,1.477,0.515,2.226
		c0.02,0.083,0.042,0.167,0.063,0.25c0.175,0.719,0.356,1.442,0.549,2.174c0.028,0.108,0.061,0.22,0.089,0.329
		c0.188,0.708,0.381,1.42,0.585,2.141c0.047,0.164,0.099,0.332,0.146,0.496c0.193,0.67,0.389,1.342,0.597,2.023
		c0.062,0.201,0.129,0.405,0.192,0.607c0.202,0.649,0.404,1.298,0.62,1.956c0.085,0.261,0.179,0.527,0.267,0.79
		c0.202,0.604,0.402,1.207,0.616,1.818c0.12,0.34,0.249,0.687,0.372,1.029c0.193,0.539,0.382,1.076,0.585,1.62
		c0.178,0.477,0.368,0.959,0.553,1.44c0.161,0.417,0.314,0.831,0.48,1.25c0.358,0.904,0.729,1.814,1.112,2.731
		c0.008,0.019,0.015,0.036,0.023,0.056c0.39,0.93,0.796,1.866,1.215,2.809c0.031,0.07,0.059,0.14,0.091,0.21
		c0.386,0.866,0.789,1.739,1.199,2.613c0.07,0.151,0.135,0.3,0.207,0.451c0.322,0.683,0.664,1.374,1.001,2.063
		c0.152,0.322,0.309,0.645,0.47,0.967c0.01,0.02,0.02,0.04,0.029,0.061c0.002,0.004,0.004,0.008,0.006,0.012
		c0.007,0.015,0.014,0.029,0.02,0.042c0.002,0.004,0.003,0.006,0.004,0.008c0.213,0.427,0.432,0.854,0.658,1.282
		c0.008,0.013,0.015,0.028,0.023,0.043c0.241,0.456,0.489,0.912,0.742,1.365c6.994,12.488,7.615,20.604,8.114,27.123
		c0.379,4.96,0.721,9.314,3.785,13.937c0,0.001,0.001,0.003,0.002,0.005c0.01,0.018,0.02,0.036,0.032,0.056l0.032,0.052
		c0.007,0.01,0.015,0.02,0.022,0.03c0.307,0.503,0.659,0.983,1.049,1.434c0.001,0.001,0.001,0.002,0.002,0.003
		c0.009,0.011,0.017,0.022,0.026,0.034c1.433,1.803,2.737,3.312,3.888,4.643c3.611,4.178,5.899,6.825,7.108,12.802
		c0.121,0.598,0.231,1.229,0.331,1.898c0.498,3.346,0.731,7.646,0.731,13.506c0,22.685,1.237,44.831,16.024,44.831
		c1.032,0,2.128-0.115,3.259-0.341c12.68-2.536,19.086-2.81,21.252-2.81c0.01,0,0.018,0,0.029,0v0.143l1.148-0.103l1.157,0.11v-0.15
		c0.01,0,0.017,0,0.026,0c2.165,0,8.57,0.273,21.251,2.81c1.132,0.226,2.227,0.341,3.257,0.341h0.002
		c0.226,0,0.447-0.005,0.666-0.016c0.058-0.002,0.115-0.009,0.174-0.012c0.159-0.01,0.318-0.02,0.475-0.034
		c0.068-0.007,0.136-0.017,0.204-0.023c0.144-0.017,0.286-0.033,0.428-0.054c0.07-0.01,0.141-0.023,0.212-0.034
		c0.135-0.022,0.27-0.045,0.402-0.071c0.071-0.015,0.143-0.031,0.215-0.047c0.128-0.028,0.256-0.057,0.383-0.089
		c0.071-0.019,0.143-0.039,0.215-0.059c0.122-0.034,0.245-0.069,0.365-0.106c0.071-0.022,0.144-0.047,0.216-0.071
		c0.116-0.039,0.231-0.08,0.347-0.122c0.073-0.027,0.145-0.056,0.217-0.085c0.11-0.044,0.221-0.089,0.329-0.137
		c0.073-0.032,0.146-0.065,0.218-0.1c0.105-0.049,0.209-0.099,0.312-0.15c0.074-0.037,0.146-0.075,0.22-0.114
		c0.099-0.054,0.197-0.107,0.294-0.163c0.074-0.042,0.147-0.086,0.22-0.131c0.095-0.057,0.188-0.115,0.279-0.175
		c0.073-0.047,0.146-0.096,0.218-0.146c0.09-0.062,0.18-0.124,0.268-0.188c0.071-0.053,0.143-0.105,0.212-0.159
		c0.088-0.066,0.174-0.135,0.26-0.204c0.067-0.055,0.136-0.111,0.203-0.169c0.085-0.073,0.171-0.146,0.256-0.224
		c0.063-0.057,0.125-0.114,0.188-0.173c0.086-0.082,0.172-0.164,0.258-0.248c0.056-0.056,0.112-0.113,0.167-0.17
		c0.09-0.094,0.18-0.188,0.268-0.283c0.047-0.051,0.092-0.103,0.138-0.153c0.097-0.108,0.191-0.219,0.285-0.33
		c0.033-0.04,0.066-0.081,0.1-0.122c0.104-0.129,0.209-0.259,0.31-0.393c0.018-0.022,0.033-0.044,0.05-0.065
		c0.199-0.266,0.391-0.542,0.578-0.826c0.084-0.127,0.165-0.261,0.248-0.393c0.096-0.154,0.191-0.31,0.283-0.47
		c0.104-0.175,0.205-0.354,0.306-0.538c0.05-0.094,0.101-0.191,0.15-0.288c1.062-2.021,1.941-4.457,2.634-7.337
		c1.992-8.28,2.238-19.104,2.256-28.822c0.001-0.447,0.002-0.895,0.002-1.338c0-0.585,0.003-1.155,0.008-1.712
		c0.009-1.11,0.027-2.161,0.057-3.157c0.028-0.996,0.066-1.937,0.114-2.826c0.121-2.227,0.304-4.138,0.553-5.811
		c0.205-1.38,0.455-2.598,0.753-3.696c1.287-4.759,3.458-7.27,6.687-11.004c1.149-1.331,2.454-2.84,3.888-4.643
		c0.003-0.004,0.006-0.009,0.009-0.013c0.008-0.01,0.015-0.02,0.022-0.029c0.389-0.449,0.74-0.929,1.046-1.429
		c0.007-0.011,0.015-0.021,0.021-0.03l0.033-0.052c0.011-0.02,0.02-0.038,0.031-0.056c0.715-1.079,1.292-2.144,1.745-3.204
		c1.488-3.485,1.752-6.934,2.042-10.737c0.358-4.687,0.78-10.196,3.586-17.562c1.098-2.883,2.561-6.05,4.527-9.562
		c0.254-0.452,0.502-0.908,0.742-1.364c0.009-0.018,0.018-0.034,0.026-0.051c0.226-0.426,0.443-0.85,0.655-1.275
		c0.002-0.002,0.003-0.004,0.005-0.008c0.005-0.01,0.011-0.021,0.016-0.033c0.004-0.007,0.007-0.014,0.011-0.021
		c0.017-0.035,0.033-0.068,0.05-0.104c0.154-0.31,0.297-0.615,0.448-0.924h0.001c0.002-0.005,0.005-0.01,0.007-0.014
		c0.334-0.683,0.672-1.366,0.991-2.042c0.123-0.261,0.236-0.518,0.356-0.777c0.356-0.766,0.712-1.529,1.049-2.287
		c0.073-0.165,0.141-0.326,0.213-0.49c0.374-0.848,0.743-1.694,1.095-2.532c0.03-0.072,0.057-0.142,0.087-0.214
		c0.381-0.911,0.748-1.817,1.103-2.716c0.231-0.587,0.448-1.166,0.669-1.747c0.117-0.31,0.241-0.623,0.356-0.931
		c0.244-0.659,0.476-1.31,0.706-1.961c0.08-0.224,0.166-0.452,0.243-0.675c0.238-0.681,0.463-1.355,0.686-2.028
		c0.063-0.188,0.131-0.38,0.191-0.568c0.229-0.696,0.443-1.385,0.654-2.072c0.051-0.159,0.104-0.321,0.152-0.48
		c0.222-0.728,0.433-1.448,0.637-2.165c0.033-0.113,0.068-0.229,0.101-0.341c0.209-0.739,0.407-1.47,0.6-2.197
		c0.023-0.087,0.049-0.177,0.072-0.265c0.198-0.756,0.386-1.503,0.565-2.246c0.013-0.055,0.029-0.112,0.042-0.167
		c0.184-0.761,0.356-1.514,0.521-2.261c0.008-0.034,0.017-0.07,0.024-0.104c0.171-0.775,0.332-1.542,0.484-2.3
		c0.001-0.004,0.001-0.009,0.002-0.013c0.927-4.63,1.506-8.945,1.815-12.887c0.009-0.102,0.019-0.206,0.026-0.308
		c0.005-0.062,0.008-0.12,0.013-0.181c0.016-0.229,0.031-0.456,0.046-0.683c0.003-0.032,0.004-0.064,0.006-0.096
		C257.826,130.155,257.404,123.224,256.049,118.126z M96.086,147.122c-0.757-4.683-1.126-8.798-1.256-12.373
		c-0.008-0.238-0.019-0.482-0.025-0.717c-0.011-0.379-0.018-0.753-0.023-1.12c-0.001-0.107-0.002-0.213-0.003-0.319
		c-0.037-3.768,0.2-6.843,0.521-9.236c0.001-0.005,0.001-0.01,0.002-0.015c0.014-0.105,0.028-0.211,0.043-0.314
		c0-0.002,0-0.005,0-0.007c0.042-0.301,0.086-0.593,0.13-0.871c0.03-0.192,0.062-0.379,0.094-0.565
		c0.016-0.092,0.033-0.179,0.048-0.268c0.021-0.117,0.043-0.227,0.064-0.341c0.018-0.099,0.036-0.197,0.055-0.293
		c0.097-0.497,0.194-0.945,0.288-1.34c0,0,0-0.001,0-0.001c0.048-0.202,0.094-0.388,0.139-0.563c0-0.001,0-0.002,0.001-0.003
		c0.025-0.1,0.051-0.197,0.075-0.288l0,0c0.085-0.317,0.165-0.589,0.232-0.805c0.211-0.681,0.518-1.454,0.906-2.308
		c1.681-3.702,4.891-8.929,8.501-14.807c0.235-0.383,0.473-0.77,0.711-1.157c0.088-0.145,0.178-0.292,0.268-0.437
		c0.161-0.264,0.323-0.527,0.486-0.793c0.109-0.178,0.218-0.356,0.328-0.535c0.066-0.108,0.132-0.216,0.199-0.325
		c0.002-0.003,0.004-0.006,0.005-0.009c0.08-0.13,0.16-0.262,0.24-0.393c0.111-0.182,0.222-0.364,0.333-0.547
		c0.032-0.052,0.063-0.104,0.095-0.155c0.008-0.012,0.015-0.025,0.023-0.037c0.144-0.236,0.288-0.474,0.432-0.712
		c0.072-0.118,0.144-0.236,0.216-0.354c0.195-0.322,0.39-0.646,0.585-0.97c0.038-0.063,0.076-0.125,0.113-0.188
		c0.016-0.025,0.031-0.051,0.046-0.076c0.088-0.147,0.177-0.294,0.265-0.441c0.041-0.067,0.081-0.135,0.122-0.202
		c0.113-0.188,0.225-0.376,0.338-0.565c0.016-0.026,0.031-0.052,0.047-0.078c0.102-0.169,0.203-0.339,0.304-0.51
		c0.019-0.031,0.037-0.062,0.055-0.092c0.123-0.206,0.244-0.412,0.367-0.619c0.021-0.035,0.041-0.069,0.062-0.104
		c0.099-0.167,0.198-0.334,0.297-0.502c0.011-0.02,0.022-0.04,0.035-0.06c0.134-0.228,0.268-0.456,0.402-0.684
		c0.036-0.063,0.073-0.127,0.11-0.19c0.073-0.125,0.146-0.25,0.22-0.375l0.022-0.039c0.236-0.405,0.471-0.812,0.706-1.219
		c0.006-0.01,0.011-0.02,0.018-0.03c0.073-0.128,0.146-0.257,0.22-0.385c0.022-0.038,0.044-0.076,0.065-0.115
		c0.148-0.26,0.297-0.521,0.445-0.781c0.007-0.013,0.014-0.025,0.021-0.038c0.093-0.165,0.186-0.329,0.278-0.493
		c0.011-0.018,0.021-0.036,0.031-0.055c0.141-0.25,0.281-0.5,0.421-0.751c0.008-0.015,0.017-0.03,0.025-0.045
		c0.093-0.168,0.187-0.336,0.28-0.504c0.005-0.01,0.011-0.02,0.017-0.03c0.15-0.272,0.3-0.545,0.449-0.818
		c0.013-0.023,0.026-0.047,0.039-0.07c0.076-0.138,0.151-0.275,0.227-0.413c0.003-0.006,0.007-0.012,0.01-0.019
		c0.232-0.426,0.461-0.853,0.688-1.279l0.008-0.015c0.05-0.094,0.099-0.188,0.149-0.282c0.014-0.026,0.027-0.052,0.041-0.078
		c0.168-0.317,0.334-0.633,0.499-0.949c0.003-0.006,0.006-0.012,0.009-0.018c0.081-0.155,0.16-0.31,0.241-0.465
		c0.005-0.01,0.01-0.021,0.016-0.031c0.143-0.276,0.285-0.552,0.424-0.829c0.003-0.007,0.007-0.013,0.01-0.02
		c0.083-0.164,0.166-0.327,0.247-0.489c0.003-0.006,0.006-0.011,0.008-0.017c0.144-0.286,0.286-0.572,0.427-0.858
		c0.005-0.01,0.011-0.021,0.016-0.032c0.07-0.143,0.141-0.285,0.21-0.427c0.002-0.004,0.005-0.008,0.006-0.012
		c0.205-0.419,0.407-0.838,0.604-1.257c0.007-0.015,0.015-0.03,0.022-0.045c0.017-0.037,0.034-0.073,0.051-0.11
		c0.012-0.025,0.023-0.05,0.035-0.076c0.176-0.372,0.348-0.745,0.518-1.115c0.002-0.004,0.004-0.008,0.005-0.012
		c0.066-0.143,0.129-0.287,0.194-0.43c0.004-0.008,0.007-0.016,0.011-0.023c0.128-0.286,0.256-0.571,0.381-0.856
		c0.001-0.004,0.003-0.008,0.005-0.012c0.069-0.157,0.137-0.314,0.205-0.472c0.001-0.003,0.003-0.007,0.005-0.011
		c0.123-0.284,0.243-0.567,0.362-0.85c0.002-0.005,0.004-0.011,0.007-0.017c0.061-0.146,0.123-0.293,0.184-0.439
		c0.001-0.002,0.002-0.005,0.003-0.007c0.147-0.356,0.29-0.71,0.431-1.064c0.004-0.013,0.01-0.025,0.015-0.038
		c0.023-0.061,0.049-0.121,0.073-0.181c0-0.002,0.001-0.003,0.002-0.005c0.165-0.421,0.325-0.841,0.48-1.259
		c0-0.001,0-0.003,0.001-0.004c0.048-0.13,0.094-0.26,0.142-0.39c0.001-0.004,0.003-0.008,0.004-0.012
		c0.105-0.29,0.208-0.579,0.308-0.866c0.001-0.002,0.002-0.004,0.002-0.007c0.053-0.152,0.104-0.304,0.156-0.455
		c0.001-0.002,0.001-0.005,0.002-0.007c0.093-0.275,0.182-0.548,0.27-0.821c0.001-0.002,0.001-0.004,0.002-0.006
		c0.047-0.146,0.094-0.292,0.14-0.437c0-0.001,0.001-0.002,0.001-0.003c0.08-0.254,0.154-0.506,0.229-0.758
		c0.019-0.064,0.039-0.128,0.058-0.191c0.028-0.096,0.058-0.192,0.084-0.288c0.001-0.001,0.001-0.001,0.001-0.002
		c0.108-0.378,0.21-0.754,0.306-1.127c0.953,3.266,2.354,6.575,3.8,9.989c3.066,7.242,6.541,15.449,6.541,25.252
		c0,8.908-3.014,10.16-6.504,11.608c-3.237,1.345-6.907,2.867-7.295,10.526c-0.279,5.509-2.796,13.175-6.412,19.531
		c-3.875,6.807-8.334,10.871-11.929,10.871h0C100.052,151.974,97.942,150.341,96.086,147.122z M102.897,172.189
		c0,0.001,0,0.001,0,0.002c-2.764-7.229-4.688-14.013-5.959-20.209l0.001,0.001c1.639,1.524,3.45,2.298,5.416,2.299
		c0.001,0,0.001,0,0.002,0c10.396,0,20.088-21.579,20.646-32.593c0.314-6.203,2.768-7.221,5.874-8.511
		c3.716-1.542,7.928-3.291,7.928-13.74c0-10.271-3.572-18.708-6.724-26.151c-2.597-6.131-4.838-11.427-4.838-16.74
		c0-8.64,0.368-12.073,0.704-13.406c0.939,1.48,2.447,5.262,3.804,8.664c1.828,4.583,4.103,10.288,6.742,15.346
		c0.135,0.257,0.266,0.513,0.396,0.769c0.01,0.02,0.02,0.039,0.029,0.059c7.468,14.708,8.592,27.928,8.745,58.206
		c-11.267,4.855-20.721,12.542-30.223,22.043C106.467,157.203,102.977,164.89,102.897,172.189z M173.846,304.226h-0.025
		c-2.776,0-9.285,0.37-21.705,2.854c-0.982,0.196-1.927,0.296-2.807,0.296c-12.657,0-13.716-21.007-13.716-42.523
		c0-5.517-0.217-9.731-0.661-13.096c-0.148-1.121-0.322-2.148-0.521-3.097c-1.329-6.326-3.802-9.188-7.549-13.522
		c-0.234-0.271-0.478-0.554-0.724-0.841c-0.95-1.104-1.988-2.327-3.103-3.729c-0.013-0.015-0.024-0.031-0.036-0.047
		c-0.161-0.203-0.318-0.407-0.47-0.615c-0.027-0.037-0.052-0.075-0.08-0.113c-0.001-0.002-0.003-0.005-0.005-0.008
		c-0.056-0.077-0.109-0.156-0.165-0.234c-0.003-0.004-0.007-0.009-0.01-0.014c-0.003-0.004-0.006-0.008-0.008-0.013
		c-0.066-0.095-0.135-0.188-0.2-0.283c0,0,0-0.002-0.001-0.003c-0.013-0.021-0.023-0.043-0.036-0.063c0-0.001,0-0.002-0.001-0.003
		c-2.574-4.441-0.678-10.825,1.16-16.999c0.531-1.787,1.047-3.521,1.456-5.195c1.94,10.839,5.532,29.986,14.207,29.985
		c0.271,0,0.549-0.02,0.824-0.059c3.443-0.48,6.659-1.37,9.558-2.642c0.559-0.244,1.143-0.369,1.736-0.369
		c2.438,0,4.422,2.003,4.422,4.465v22.796c-0.067,0.091-0.143,0.177-0.206,0.269c-2.066,3.021-2.05,7.113,0.049,12.512
		c3.922,10.088,12.475,17.063,18.618,17.869V304.226z M175,289.574c-0.358,0-0.746-0.04-1.154-0.111
		c-4.798-0.841-12.664-6.586-16.467-16.366c-0.239-0.613-0.446-1.204-0.624-1.774c-0.994-3.169-1.064-5.68-0.217-7.609
		c0.153-0.348,0.333-0.677,0.546-0.988c0.177-0.258,0.385-0.503,0.608-0.742c2.624-2.805,8.432-4.229,17.308-4.229
		c8.877,0,14.686,1.425,17.309,4.229c0.224,0.239,0.432,0.484,0.608,0.742c0.213,0.312,0.393,0.641,0.546,0.988
		c0.848,1.93,0.776,4.44-0.217,7.609c-0.18,0.57-0.386,1.161-0.624,1.774c-3.803,9.78-11.67,15.525-16.468,16.366
		C175.747,289.534,175.359,289.574,175,289.574z M227.978,229.174c-0.014,0.021-0.023,0.043-0.036,0.063
		c-0.001,0.001-0.001,0.003-0.001,0.003c-0.064,0.095-0.134,0.188-0.2,0.283c-0.006,0.009-0.012,0.018-0.018,0.026
		c-0.058,0.08-0.113,0.162-0.171,0.242c-0.027,0.038-0.053,0.076-0.081,0.113c-0.151,0.208-0.309,0.412-0.469,0.615
		c-0.013,0.016-0.024,0.032-0.036,0.047c-1.115,1.402-2.152,2.625-3.103,3.729c-0.247,0.287-0.49,0.57-0.724,0.841
		c-3.748,4.334-6.222,7.196-7.551,13.522c-0.199,0.948-0.372,1.976-0.521,3.097c-0.444,3.364-0.661,7.579-0.661,13.096
		c0,0.456-0.001,0.91-0.002,1.364c-0.013,5.8-0.12,11.53-0.527,16.789c-0.014,0.174-0.027,0.349-0.042,0.522
		c-0.019,0.231-0.038,0.463-0.059,0.692c-1.014,11.551-3.604,20.6-10.06,22.693c-0.026,0.009-0.053,0.018-0.078,0.025
		c-0.28,0.088-0.566,0.163-0.861,0.225c-0.041,0.009-0.083,0.017-0.124,0.024c-0.289,0.057-0.583,0.103-0.887,0.133
		c-0.038,0.004-0.077,0.006-0.115,0.009c-0.313,0.029-0.632,0.046-0.961,0.046h-0.001l0,0l0,0h-0.002
		c-0.879,0-1.822-0.1-2.804-0.296c-12.42-2.484-18.93-2.854-21.704-2.854h-0.026v-12.423c6.144-0.806,14.696-7.781,18.618-17.869
		c2.1-5.398,2.115-9.49,0.05-12.512c-0.063-0.092-0.139-0.178-0.206-0.269v-22.796c0-2.462,1.983-4.465,4.422-4.465
		c0.593,0,1.177,0.125,1.735,0.369c2.899,1.271,6.114,2.161,9.558,2.642c0.275,0.039,0.553,0.059,0.825,0.059
		c8.674,0,12.266-19.146,14.206-29.985c0.409,1.674,0.926,3.408,1.457,5.195C228.656,218.348,230.554,224.731,227.978,229.174z
		 M241.731,184.509c-0.001,0.003-0.003,0.007-0.004,0.011c-0.365,0.776-0.759,1.558-1.176,2.345
		c-0.003,0.007-0.006,0.013-0.009,0.018c-0.233,0.438-0.472,0.879-0.72,1.321c-0.735,1.314-1.4,2.579-2.007,3.803
		c-0.313,0.633-0.613,1.256-0.895,1.865c-3.864,8.363-4.819,14.602-5.287,19.795c-0.04,0.45-0.077,0.893-0.111,1.327
		c-0.035,0.437-0.068,0.863-0.101,1.286c-0.089,1.165-0.176,2.275-0.292,3.351c-0.477-2.662-1.294-5.407-2.1-8.116
		c-0.991-3.331-1.928-6.478-2.157-9.229c-0.075-0.9-0.188-2.26-1.407-2.26c-1.097,0-1.332,1.101-1.581,2.267
		c-0.188,0.883-0.405,2.098-0.68,3.635c-1.572,8.802-5.295,29.697-12.555,28.693c-3.234-0.453-6.245-1.284-8.951-2.471
		c-0.854-0.373-1.749-0.563-2.662-0.563c-3.711,0-6.729,3.038-6.729,6.772v20.616c-3.456-2.366-9.163-3.528-17.309-3.528
		c-8.145,0-13.852,1.162-17.308,3.528v-20.616c0-3.734-3.019-6.772-6.729-6.772c-0.914,0-1.809,0.19-2.663,0.563
		c-2.705,1.187-5.716,2.018-8.951,2.471c-0.169,0.023-0.339,0.035-0.505,0.035c-6.917,0.001-10.513-20.132-12.049-28.729
		c-0.274-1.537-0.492-2.752-0.68-3.635c-0.249-1.166-0.484-2.267-1.582-2.267c-1.219,0-1.333,1.359-1.407,2.26
		c-0.23,2.752-1.166,5.898-2.157,9.229c-0.806,2.709-1.623,5.454-2.099,8.116c-0.117-1.075-0.204-2.186-0.293-3.352
		c-0.048-0.63-0.098-1.273-0.153-1.934c-0.001-0.003-0.001-0.007-0.001-0.01c-0.048-0.569-0.102-1.153-0.163-1.75
		c-0.034-0.329-0.069-0.662-0.108-1c-0.002-0.022-0.005-0.045-0.008-0.066c-0.381-3.266-1.051-6.952-2.515-11.286
		c-0.669-1.979-1.502-4.091-2.551-6.362c-0.282-0.609-0.581-1.231-0.895-1.864c-0.606-1.224-1.271-2.488-2.007-3.803
		c-0.023-0.043-0.046-0.086-0.07-0.13c-0.222-0.397-0.438-0.795-0.648-1.19c-0.003-0.007-0.007-0.014-0.011-0.021
		c-0.417-0.786-0.809-1.566-1.174-2.342c-0.003-0.006-0.005-0.012-0.008-0.019c-5.144-10.946-4.814-21.018,8.808-34.641
		c9.033-9.033,18.013-16.385,28.603-21.138c0.381-0.171,0.767-0.337,1.153-0.502c0.383-0.163,0.764-0.327,1.151-0.483
		c3.608-1.457,7.407-2.619,11.46-3.45c0.021-0.004,0.041-0.008,0.062-0.012c0.632-0.129,1.271-0.249,1.917-0.362
		c0.07-0.012,0.142-0.025,0.212-0.037c0.646-0.111,1.297-0.214,1.956-0.308c0.032-0.005,0.065-0.01,0.097-0.015
		c0.691-0.098,1.387-0.186,2.087-0.265c0.699-0.079,1.407-0.147,2.121-0.208c0.166-0.014,0.334-0.026,0.501-0.039
		c0.525-0.042,1.055-0.078,1.588-0.109c0.221-0.013,0.442-0.025,0.664-0.036c0.51-0.026,1.023-0.046,1.541-0.063
		c0.212-0.006,0.424-0.015,0.638-0.02c0.718-0.018,1.442-0.029,2.176-0.029c0.735,0,1.458,0.011,2.177,0.029
		c0.214,0.005,0.425,0.014,0.637,0.02c0.518,0.017,1.032,0.037,1.541,0.063c0.223,0.011,0.444,0.023,0.665,0.036
		c0.533,0.031,1.063,0.067,1.588,0.109c0.167,0.013,0.335,0.024,0.502,0.039c0.714,0.061,1.421,0.13,2.12,0.208
		c0.701,0.079,1.396,0.167,2.087,0.265c0.033,0.004,0.065,0.01,0.099,0.015c0.658,0.094,1.31,0.197,1.955,0.308
		c0.071,0.012,0.142,0.024,0.213,0.037c0.646,0.113,1.284,0.233,1.917,0.362c0.021,0.004,0.041,0.008,0.062,0.012
		c4.054,0.831,7.853,1.993,11.461,3.45c0.386,0.156,0.768,0.32,1.15,0.483c0.386,0.165,0.771,0.331,1.152,0.502
		c10.59,4.753,19.569,12.105,28.603,21.138C246.553,163.486,246.881,173.56,241.731,184.509z M247.104,172.191
		c0-0.001,0-0.001,0-0.002c-0.079-7.298-3.569-14.986-12.544-23.96c-9.502-9.502-18.956-17.188-30.224-22.043
		c0.154-30.278,1.278-43.498,8.745-58.206c0.011-0.02,0.021-0.04,0.03-0.059c0.13-0.256,0.262-0.512,0.396-0.769
		c2.64-5.059,4.915-10.763,6.742-15.346c1.356-3.402,2.865-7.184,3.804-8.664c0.336,1.333,0.705,4.766,0.705,13.406
		c0,5.313-2.242,10.609-4.839,16.74c-3.151,7.443-6.724,15.88-6.724,26.151c0,10.449,4.212,12.197,7.928,13.74
		c3.106,1.29,5.56,2.308,5.874,8.511c0.558,11.014,10.252,32.593,20.647,32.593c1.967,0,3.777-0.774,5.417-2.299c0,0,0,0,0,0
		C251.791,158.179,249.867,164.963,247.104,172.191z M255.223,132.594c-0.001,0.105-0.002,0.212-0.003,0.319
		c-0.006,0.366-0.014,0.74-0.023,1.12c-0.007,0.242-0.019,0.494-0.027,0.74c-0.129,3.57-0.5,7.677-1.254,12.349
		c-1.857,3.22-3.966,4.853-6.271,4.853c-3.595,0-8.056-4.064-11.931-10.873c-3.616-6.354-6.134-14.02-6.412-19.529
		c-0.388-7.659-4.058-9.182-7.294-10.526c-3.49-1.448-6.505-2.7-6.505-11.608c0-9.803,3.476-18.01,6.541-25.252
		c1.446-3.414,2.847-6.723,3.801-9.989c0.096,0.373,0.198,0.749,0.306,1.127c0.001,0,0.001,0.001,0.001,0.002
		c0.026,0.095,0.057,0.191,0.085,0.288c0.019,0.063,0.039,0.127,0.058,0.191c0.074,0.252,0.149,0.504,0.229,0.758
		c0,0,0.001,0.002,0.001,0.003c0.045,0.145,0.093,0.291,0.14,0.437c0,0.002,0.001,0.004,0.002,0.006
		c0.087,0.273,0.178,0.546,0.271,0.821c0.001,0.002,0.001,0.005,0.002,0.007c0.052,0.151,0.104,0.303,0.156,0.455
		c0.001,0.002,0.001,0.004,0.002,0.007c0.1,0.287,0.203,0.576,0.308,0.866c0.002,0.004,0.004,0.007,0.005,0.012
		c0.048,0.13,0.093,0.26,0.142,0.39c0.001,0.001,0.002,0.003,0.002,0.004c0.154,0.418,0.314,0.837,0.479,1.259
		c0,0.002,0.001,0.003,0.002,0.005c0.023,0.06,0.049,0.121,0.072,0.181c0.006,0.013,0.011,0.025,0.016,0.038
		c0.14,0.354,0.283,0.708,0.431,1.064c0,0.003,0.001,0.005,0.003,0.008c0.061,0.147,0.122,0.294,0.185,0.441l0.007,0.017
		c0.118,0.282,0.238,0.563,0.36,0.846c0.001,0.004,0.003,0.008,0.004,0.012c0.069,0.158,0.138,0.315,0.207,0.474
		c0.002,0.004,0.004,0.008,0.006,0.012c0.125,0.284,0.252,0.569,0.381,0.855c0.003,0.008,0.006,0.016,0.01,0.023
		c0.064,0.144,0.129,0.287,0.194,0.43c0.002,0.004,0.004,0.008,0.005,0.012c0.17,0.371,0.343,0.743,0.518,1.115
		c0.012,0.025,0.023,0.05,0.035,0.076c0.018,0.037,0.034,0.073,0.052,0.11c0.007,0.015,0.015,0.03,0.022,0.045
		c0.197,0.418,0.399,0.837,0.604,1.257c0.001,0.004,0.003,0.008,0.006,0.012c0.068,0.142,0.14,0.284,0.209,0.427
		c0.007,0.01,0.012,0.021,0.017,0.032c0.141,0.286,0.283,0.573,0.427,0.858c0.003,0.006,0.006,0.011,0.008,0.017
		c0.082,0.163,0.165,0.326,0.248,0.489c0.003,0.007,0.006,0.013,0.01,0.02c0.141,0.276,0.281,0.552,0.425,0.829
		c0.005,0.01,0.011,0.021,0.016,0.031c0.079,0.155,0.16,0.31,0.24,0.465c0.004,0.006,0.007,0.012,0.01,0.018
		c0.165,0.316,0.331,0.632,0.498,0.949c0.015,0.026,0.028,0.052,0.042,0.078c0.05,0.094,0.099,0.188,0.148,0.282l0.008,0.015
		c0.228,0.426,0.457,0.853,0.688,1.279c0.004,0.006,0.008,0.013,0.011,0.019c0.075,0.138,0.15,0.275,0.227,0.413
		c0.013,0.023,0.025,0.047,0.038,0.07c0.149,0.273,0.299,0.546,0.449,0.818c0.006,0.01,0.012,0.02,0.017,0.03
		c0.094,0.168,0.187,0.336,0.28,0.504c0.009,0.015,0.017,0.03,0.025,0.045c0.14,0.25,0.28,0.5,0.421,0.751
		c0.01,0.019,0.021,0.037,0.03,0.055c0.093,0.165,0.186,0.329,0.278,0.493c0.008,0.013,0.015,0.025,0.021,0.038
		c0.148,0.261,0.297,0.521,0.445,0.781c0.022,0.039,0.044,0.077,0.066,0.115c0.073,0.128,0.146,0.257,0.22,0.385
		c0.006,0.01,0.012,0.021,0.018,0.03c0.234,0.407,0.469,0.814,0.706,1.219l0.021,0.039c0.073,0.125,0.146,0.25,0.22,0.375
		c0.037,0.063,0.074,0.126,0.111,0.19c0.134,0.228,0.267,0.456,0.4,0.684c0.012,0.02,0.023,0.039,0.035,0.059
		c0.101,0.17,0.201,0.341,0.302,0.511c0.021,0.035,0.042,0.07,0.062,0.105c0.12,0.201,0.238,0.402,0.358,0.603
		c0.018,0.031,0.037,0.062,0.055,0.093c0.104,0.173,0.206,0.347,0.31,0.519c0.016,0.026,0.03,0.052,0.047,0.078
		c0.111,0.188,0.225,0.376,0.337,0.564c0.041,0.067,0.081,0.135,0.122,0.202c0.088,0.147,0.176,0.294,0.265,0.441
		c0.015,0.025,0.03,0.051,0.045,0.076c0.039,0.063,0.077,0.125,0.114,0.188c0.195,0.324,0.391,0.648,0.586,0.97
		c0.072,0.118,0.144,0.236,0.216,0.354c0.144,0.238,0.288,0.476,0.432,0.712c0.008,0.012,0.016,0.025,0.022,0.037
		c0.032,0.052,0.063,0.104,0.095,0.155c0.111,0.183,0.223,0.365,0.334,0.547c0.08,0.131,0.16,0.263,0.239,0.393
		c0.002,0.003,0.004,0.006,0.006,0.009c0.066,0.109,0.132,0.217,0.199,0.325c0.109,0.179,0.218,0.357,0.327,0.535
		c0.163,0.266,0.324,0.529,0.485,0.793c0.09,0.145,0.179,0.292,0.269,0.437c0.238,0.388,0.475,0.774,0.711,1.157
		c3.332,5.426,6.323,10.297,8.087,13.926c0.587,1.209,1.038,2.281,1.319,3.189c0.067,0.216,0.147,0.487,0.231,0.805l0,0
		c0.026,0.094,0.051,0.191,0.076,0.288c0.001,0.001,0.001,0.002,0.001,0.003c0.045,0.176,0.091,0.361,0.139,0.563
		c0,0,0,0.001,0.001,0.001c0.093,0.396,0.19,0.845,0.287,1.341c0.018,0.09,0.035,0.182,0.052,0.273
		c0.022,0.121,0.046,0.237,0.068,0.36c0.016,0.089,0.031,0.176,0.048,0.268c0.032,0.186,0.063,0.373,0.094,0.565
		c0.045,0.278,0.088,0.57,0.131,0.871c0,0.002,0,0.005,0,0.007c0.015,0.104,0.03,0.208,0.044,0.314c0,0.005,0.001,0.01,0.002,0.015
		C255.022,125.75,255.26,128.826,255.223,132.594z M148.662,175.597c-8.146,0-13.341,5.304-13.341,8.078
		c0,2.844,1.733,7.615,13.341,7.615c6.367,0,9.699-3.976,9.699-7.905C158.361,179.635,155.326,175.597,148.662,175.597z
		 M146.766,179.729c0.479-0.48,1.116-0.743,1.794-0.743c0.677,0,1.315,0.264,1.794,0.743c0.989,0.989,0.989,2.599,0,3.589
		c-0.479,0.479-1.118,0.742-1.794,0.742c-0.678,0-1.315-0.264-1.794-0.742c-0.479-0.479-0.743-1.117-0.743-1.795
		S146.286,180.209,146.766,179.729z M137.629,183.675c0-0.51,0.686-1.581,1.981-2.664c-0.738,2.187-0.446,4.644,0.885,6.607
		C138.816,186.823,137.629,185.586,137.629,183.675z M150.375,187.089c-0.98,0.979-2.285,1.521-3.671,1.521s-2.69-0.541-3.671-1.521
		c-2.024-2.025-2.024-5.318,0-7.343c0.479-0.479,1.037-0.851,1.641-1.108c-0.619,0.83-0.959,1.831-0.959,2.886
		c0,1.294,0.504,2.511,1.42,3.426c0.915,0.915,2.131,1.419,3.426,1.419c1.086,0,2.116-0.358,2.961-1.015
		C151.268,185.985,150.887,186.577,150.375,187.089z M152.358,188.331c2.432-2.795,2.447-6.97,0.043-9.78
		c0.732,0.287,1.381,0.665,1.922,1.139c1.115,0.977,1.729,2.288,1.729,3.695C156.053,185.307,154.871,187.325,152.358,188.331z"/>
</g>
</svg>
