<?xml version="1.0" encoding="utf-8"?>
<!-- Generator: Adobe Illustrator 16.0.0, SVG Export Plug-In . SVG Version: 6.00 Build 0)  -->
<!DOCTYPE svg PUBLIC "-//W3C//DTD SVG 1.1 Tiny//EN" "http://www.w3.org/Graphics/SVG/1.1/DTD/svg11-tiny.dtd">
<svg version="1.1" baseProfile="tiny" id="Layer_1" xmlns="http://www.w3.org/2000/svg" xmlns:xlink="http://www.w3.org/1999/xlink"
	 x="0px" y="0px" width="350px" height="350px" viewBox="0 0 350 350" overflow="scroll" xml:space="preserve">
<g>
	<path fill="#0D0D0D" d="M298.782,90.18c-5.243-4.22-12.53-6.093-20.246-8.077c-7.151-1.839-14.548-3.74-20.62-7.648
		c-13.167-8.474-25.488-10.252-33.507-10.252c-6.628,0-12.598,1.248-15.956,3.079c-2.011-0.074-3.989-0.101-5.912-0.101
		c-4.204,0-8.482,0.128-13.011,0.261c-4.705,0.141-9.569,0.284-14.531,0.284c-4.96,0-9.825-0.144-14.529-0.284
		c-4.531-0.133-8.81-0.261-13.012-0.261c-1.924,0-3.903,0.026-5.914,0.101c-3.357-1.831-9.327-3.079-15.954-3.079
		c-8.018,0-20.341,1.778-33.508,10.252c-6.073,3.908-13.468,5.81-20.62,7.648c-7.715,1.984-15.003,3.857-20.245,8.077
		c-5.937,4.781-8.292,12.027-7.2,22.157c1.603,14.865,5.857,30.11,9.611,43.563c4.243,15.205,8.251,29.567,7.442,39.919
		c-0.205,2.617,0.134,4.305,1.065,5.313c0.547,0.591,1.273,0.904,2.1,0.904l0,0c4.702,0,12.843-11.213,18.826-22.325
		c0.883-1.642,2.04-3.887,3.293-6.562c0.419,16.876,6.549,41.974,14.426,62.707c-1.467,13.33,0.384,24.775,5.444,33.328
		c6.154,10.403,16.841,16.614,28.588,16.614h0.003c8.642,0,15.792-3.485,17.002-8.29c0.406-1.61,0.669-4.304,0.827-7.645
		c0.583-0.214,1.163-0.43,1.743-0.645c6.972-2.586,14.182-5.26,20.612-5.26c6.43,0,13.641,2.674,20.614,5.26
		c0.58,0.215,1.16,0.43,1.742,0.644c0.158,3.342,0.421,6.035,0.827,7.646c1.209,4.804,8.36,8.29,17.004,8.29c0.001,0,0,0,0,0
		c11.747,0,22.436-6.211,28.589-16.614c5.06-8.553,6.91-19.998,5.443-33.328c7.877-20.733,14.008-45.832,14.426-62.709
		c1.254,2.675,2.41,4.92,3.294,6.561c5.98,11.112,14.121,22.324,18.824,22.328h0.002c0.825,0,1.552-0.313,2.099-0.903
		c0.931-1.007,1.271-2.694,1.065-5.313c-0.809-10.352,3.198-24.714,7.441-39.919c3.753-13.452,8.009-28.697,9.611-43.563
		C307.073,102.207,304.719,94.961,298.782,90.18z"/>
	<path fill="#AE805E" d="M260.734,166.471c-3.336-8.282-6.462-18.61-6.462-28.229c0-21.801-18.167-64.113-43.021-64.698
		c-3.769-0.088-5.668-1.081-5.646-2.949c0.003-0.224,0.043-0.446,0.115-0.665c-1.045-0.021-2.104-0.031-3.18-0.031
		c-4.164,0-8.423,0.127-12.931,0.261c-4.725,0.14-9.608,0.284-14.611,0.284c-5,0-9.885-0.145-14.61-0.284
		c-4.509-0.134-8.769-0.261-12.931-0.261c-1.077,0-2.136,0.011-3.181,0.031c0.072,0.219,0.112,0.441,0.115,0.666
		c0.022,1.867-1.877,2.86-5.645,2.948c-24.854,0.585-43.021,42.897-43.021,64.698c0,9.619-3.126,19.946-6.462,28.23
		c-1.406,14.564,4.363,41.032,12.342,63.572c2.286-13.102,6.866-24.089,9.239-28.556c3.421-6.439,1.743-9.424-2.738-17.401
		c-1.827-3.25-4.101-7.296-6.597-12.618c-4.206-8.97-3.831-22.592,1.025-37.373c4.666-14.202,12.554-26.507,21.099-32.916
		c5.559-4.17,11.014-6.283,16.212-6.283c8.234,0,15.935,5.143,23.35,15.642c0.455-17.749,2.735-22.552,11.803-22.552
		c9.069,0,11.349,4.803,11.803,22.552c7.415-10.499,15.116-15.642,23.351-15.642c5.197,0,10.651,2.113,16.211,6.283
		c8.545,6.409,16.433,18.714,21.1,32.916c4.856,14.781,5.23,28.403,1.024,37.373c-2.496,5.322-4.769,9.368-6.596,12.618
		c-4.482,7.978-6.16,10.962-2.738,17.401c2.373,4.467,6.952,15.454,9.238,28.556C256.371,207.504,262.141,181.035,260.734,166.471z
		 M192.401,242.272c-0.056-0.062-0.111-0.122-0.166-0.183c-1.523-1.67-3.079-3.247-4.651-4.659
		c-4.179-0.641-8.41-0.969-12.584-0.969s-8.406,0.328-12.584,0.969c-1.572,1.412-3.127,2.989-4.651,4.659
		c-0.055,0.061-0.11,0.121-0.166,0.183c-1.682,1.855-3.322,3.819-4.899,5.79c0.147,6.488,0.209,13.284,0.052,18.864
		c0.231-0.085,0.461-0.17,0.69-0.256c7.198-2.669,14.64-5.429,21.558-5.429c6.917,0,14.36,2.76,21.559,5.429
		c0.229,0.086,0.459,0.17,0.688,0.256c-0.156-5.58-0.094-12.376,0.054-18.864C195.723,246.092,194.083,244.128,192.401,242.272z"/>
	<path fill="#1A1A1A" d="M147.076,255.351c-4.368,5.776-7.818,10.339-10.483,11.844c-0.976,0.552-2.021,0.832-3.106,0.832
		c-7.612,0-16.366-14.062-17.837-37.594c-1.503-24.061,4.047-53.971,24.135-65.762c18.955-11.125,23.312-19.485,23.312-44.726
		c0-1.628,0.006-3.175,0.02-4.649c-7.538-11.875-15.197-17.682-23.27-17.682c-4.598,0-9.503,1.932-14.582,5.74
		c-8.116,6.087-15.648,17.897-20.147,31.59c-4.574,13.923-5.003,27.146-1.146,35.372c2.453,5.232,4.7,9.229,6.505,12.44
		c4.585,8.16,6.888,12.255,2.77,20.007c-2.46,4.631-7.886,17.951-9.671,32.64c-0.119,0.98-0.224,1.965-0.308,2.953
		c-0.093,1.08-0.161,2.165-0.208,3.251c-0.394,9.164,0.93,18.46,5.504,26.194c8.157,13.789,21.076,15.278,26.25,15.279h0.003
		c8.011,0,13.594-3.17,14.368-6.236c0.325-1.29,0.551-3.375,0.699-5.979c0.028-0.473,0.052-0.963,0.074-1.468
		c0.021-0.476,0.04-0.964,0.057-1.466c0.159-4.755,0.137-10.627,0.032-16.482C149.018,252.784,148.025,254.097,147.076,255.351z
		 M125.229,138.467c0.423-0.369,10.446-9.041,18.004-9.041c2.36,0,4.275,0.816,5.69,2.423c3.461,3.929,3.544,6.952,3.004,8.797
		c-0.846,2.893-3.661,5.044-8.366,6.394c-0.853,0.244-1.778,0.368-2.749,0.368c-0.001,0-0.001,0-0.001,0
		c-7.105-0.001-15.209-6.586-15.551-6.866l-1.241-1.019L125.229,138.467z M138.684,70.828c1.538-0.037,2.35-0.227,2.753-0.373
		c-0.136-0.121-0.33-0.263-0.566-0.414c-0.571-0.364-1.438-0.798-2.609-1.228c-1.005-0.368-2.231-0.729-3.692-1.038
		c-2.374-0.499-5.354-0.856-8.979-0.856c-7.653,0-19.425,1.704-32.037,9.821c-6.441,4.145-14.052,6.102-21.414,7.994
		c-14.81,3.807-27.6,7.096-25.42,27.312c1.579,14.642,5.802,29.772,9.527,43.122c4.496,16.115,8.38,30.032,7.534,40.862
		c-0.201,2.577,0.294,3.193,0.351,3.256c0.023,0.023,0.03,0.031,0.105,0.031c2.174,0.001,9.093-7.26,16.432-20.896
		c2.267-4.211,4.245-8.426,5.924-12.558c0.631-1.551,1.218-3.09,1.76-4.612c0.544-1.527,1.05-3.041,1.503-4.531
		c2.053-6.754,3.153-13.065,3.153-18.479c0-11.648,5.01-28.321,12.466-41.489C114.778,80.319,126.573,71.112,138.684,70.828z
		 M180.455,232.443c-0.272-0.128-0.544-0.246-0.815-0.357c-0.058-0.022-0.113-0.047-0.171-0.069
		c-0.248-0.099-0.498-0.189-0.746-0.273c-0.082-0.027-0.163-0.053-0.243-0.078c-0.229-0.072-0.457-0.141-0.686-0.2
		c-0.109-0.028-0.217-0.051-0.324-0.076c-0.158-0.036-0.318-0.081-0.475-0.11c-0.043-0.008-0.086-0.012-0.13-0.02
		c-0.002,0-0.004,0-0.005,0c-0.156-0.027-0.311-0.046-0.466-0.066c-0.132-0.019-0.267-0.044-0.399-0.057
		c-0.021-0.003-0.04-0.003-0.061-0.004c-0.314-0.029-0.626-0.046-0.936-0.046c-0.308,0-0.621,0.017-0.935,0.046
		c-0.021,0.001-0.041,0.001-0.061,0.004c-0.131,0.013-0.265,0.038-0.397,0.057c-0.158,0.021-0.314,0.039-0.473,0.067
		c-0.003,0-0.006,0.001-0.01,0.001c-0.04,0.007-0.08,0.01-0.12,0.018c-0.155,0.029-0.313,0.073-0.47,0.109
		c-0.11,0.025-0.22,0.049-0.332,0.078c-0.225,0.059-0.452,0.126-0.678,0.197c-0.083,0.027-0.167,0.053-0.252,0.081
		c-0.246,0.083-0.492,0.174-0.739,0.271c-0.06,0.024-0.12,0.05-0.181,0.074c-0.268,0.109-0.536,0.226-0.804,0.352
		c-0.021,0.01-0.042,0.021-0.063,0.03c-0.959,0.456-1.944,1.014-2.96,1.698c0.006,0,0.013-0.001,0.02-0.002
		c2.821-0.28,5.649-0.422,8.452-0.422s5.631,0.142,8.453,0.422c0.007,0.001,0.014,0.002,0.021,0.002
		c-1.023-0.688-2.011-1.249-2.975-1.705C180.483,232.458,180.47,232.45,180.455,232.443z M277.86,84.734
		c-7.361-1.893-14.973-3.85-21.414-7.994c-12.612-8.117-24.384-9.821-32.037-9.821c-3.624,0-6.606,0.357-8.98,0.857
		c-1.461,0.308-2.688,0.669-3.692,1.037c-1.172,0.43-2.038,0.863-2.608,1.228c-0.237,0.151-0.432,0.293-0.566,0.414
		c0.403,0.146,1.216,0.336,2.754,0.373c12.111,0.284,23.905,9.491,33.209,25.925c7.456,13.168,12.465,29.841,12.465,41.489
		c0,5.413,1.102,11.725,3.154,18.479c0.453,1.49,0.959,3.003,1.503,4.531c0.543,1.522,1.13,3.061,1.761,4.611
		c1.68,4.133,3.656,8.346,5.923,12.557c7.339,13.633,14.26,20.896,16.435,20.897l0,0c0.074,0,0.082-0.008,0.104-0.031
		c0.057-0.063,0.551-0.678,0.351-3.256c-0.848-10.83,3.037-24.747,7.533-40.862c3.726-13.35,7.948-28.48,9.527-43.122
		C305.459,91.83,292.67,88.541,277.86,84.734z M181.184,195.191c0.358-0.266,0.719-0.551,1.077-0.856
		c0.346-0.294,0.69-0.607,1.032-0.938c2.302-2.216,4.479-5.232,5.936-8.978c1.442-3.707,1.537-6.397,0.288-8.223
		c-1.152-1.684-3.591-2.831-7.267-3.437c-0.435-0.072-0.889-0.136-1.358-0.191c-0.438-0.054-0.891-0.1-1.358-0.139
		c-1.384-0.117-2.89-0.179-4.534-0.179c-1.644,0-3.15,0.062-4.533,0.179c-0.469,0.039-0.92,0.085-1.358,0.139
		c-0.47,0.056-0.924,0.119-1.358,0.191c-3.676,0.605-6.115,1.753-7.268,3.437c-1.248,1.825-1.153,4.516,0.289,8.223
		c1.456,3.745,3.635,6.762,5.936,8.978c0.342,0.33,0.687,0.644,1.032,0.938c0.36,0.306,0.719,0.591,1.078,0.856
		c2.322,1.726,4.583,2.629,6.184,2.629C176.601,197.82,178.862,196.917,181.184,195.191z M246.027,170.316
		c3.858-8.226,3.429-21.449-1.146-35.372c-4.499-13.692-12.031-25.503-20.147-31.59c-5.078-3.809-9.985-5.74-14.581-5.74
		c-8.074,0-15.732,5.807-23.271,17.682c0.014,1.475,0.021,3.021,0.021,4.649c0,25.24,4.356,33.601,23.312,44.726
		c20.087,11.791,25.638,41.701,24.133,65.762c-1.471,23.532-10.224,37.594-17.835,37.594c0,0,0,0-0.001,0
		c-1.084,0-2.129-0.28-3.105-0.832c-2.664-1.505-6.114-6.067-10.483-11.844c-0.948-1.254-1.94-2.566-2.969-3.901
		c-0.105,5.855-0.127,11.728,0.032,16.482c0.017,0.502,0.036,0.989,0.057,1.466c0.022,0.505,0.047,0.994,0.074,1.467
		c0.148,2.604,0.374,4.689,0.699,5.98c0.772,3.065,6.359,6.236,14.37,6.236c5.175,0,18.092-1.488,26.25-15.279
		c4.575-7.734,5.898-17.03,5.505-26.194c-0.047-1.086-0.116-2.171-0.208-3.251c-0.085-0.988-0.189-1.973-0.309-2.953
		c-1.785-14.688-7.21-28.009-9.671-32.64c-4.118-7.752-1.816-11.847,2.77-20.007C241.328,179.546,243.574,175.549,246.027,170.316z
		 M224.74,140.541c-0.342,0.28-8.446,6.866-15.551,6.866c-0.973,0-1.897-0.124-2.75-0.368c-4.705-1.35-7.521-3.501-8.367-6.394
		c-0.539-1.845-0.457-4.868,3.003-8.797c1.417-1.606,3.331-2.423,5.691-2.423c7.559,0,17.581,8.672,18.005,9.041l1.209,1.056
		L224.74,140.541z M206.723,190.275c0.449-8.396-2.04-15.711-7.198-21.152c-4.301-4.536-10.285-7.541-17.274-8.756
		c-0.448-0.078-0.902-0.143-1.358-0.206c-0.449-0.062-0.902-0.113-1.358-0.161c-1.477-0.154-2.986-0.241-4.534-0.241
		c-1.546,0-3.056,0.087-4.533,0.241c-0.456,0.048-0.91,0.1-1.358,0.161c-0.456,0.063-0.912,0.128-1.358,0.206
		c-6.989,1.215-12.974,4.22-17.275,8.756c-5.158,5.441-7.647,12.756-7.198,21.152c0.454,8.473,3.421,21.229,6.66,33.027
		c0.193,0.702,0.386,1.401,0.58,2.095c0.539,1.929,1.082,3.819,1.619,5.654c1.045,3.573,2.066,6.928,2.988,9.883
		c0.001,0.005,0.002,0.01,0.004,0.015c0.883-0.988,1.749-1.915,2.599-2.782l-0.031,0.005l-0.29,0.046l2.483-2.194l1.012-0.895
		c1.396-1.233,2.751-2.289,4.074-3.181c0.008-0.005,0.016-0.011,0.024-0.017c0.351-0.236,0.699-0.46,1.045-0.673
		c0.045-0.027,0.092-0.056,0.137-0.084c0.335-0.203,0.669-0.396,1.001-0.578c0.01-0.005,0.02-0.011,0.03-0.017
		c0.076-0.041,0.151-0.078,0.227-0.118c0.274-0.146,0.549-0.287,0.82-0.418c0.363-0.172,0.725-0.337,1.088-0.484
		c0.058-0.023,0.115-0.046,0.172-0.069c0.241-0.095,0.482-0.183,0.723-0.266c0.018-0.006,0.035-0.013,0.053-0.02
		c0.008-0.002,0.015-0.006,0.023-0.009c0.111-0.038,0.224-0.075,0.334-0.111c0.001-0.001,0.002-0.001,0.002-0.001
		c0.012-0.003,0.026-0.009,0.038-0.012c0.052-0.018,0.104-0.037,0.155-0.053c0.133-0.04,0.266-0.074,0.4-0.11
		c0.027-0.009,0.054-0.017,0.082-0.023c0.1-0.026,0.199-0.058,0.297-0.083c0.061-0.015,0.121-0.028,0.182-0.043
		c0.123-0.029,0.246-0.054,0.368-0.08c0.129-0.027,0.259-0.059,0.387-0.082c0.073-0.013,0.146-0.022,0.219-0.034
		c0.008-0.002,0.016-0.003,0.024-0.004c0.105-0.018,0.209-0.034,0.314-0.049c0.131-0.019,0.263-0.037,0.394-0.053
		c0.042-0.004,0.084-0.014,0.125-0.018v-28.03c-1.901-0.331-4.042-1.32-6.154-2.849c-0.364-0.264-0.728-0.544-1.088-0.838
		c-0.352-0.289-0.702-0.59-1.048-0.907c-2.856-2.613-5.471-6.188-7.113-10.411c-1.792-4.607-1.791-8.12,0.002-10.742
		c1.664-2.432,4.749-3.958,9.51-4.665c0.438-0.064,0.892-0.123,1.358-0.174c0.44-0.049,0.893-0.091,1.358-0.127
		c1.395-0.107,2.901-0.162,4.533-0.162c1.632,0,3.139,0.055,4.534,0.162c0.466,0.036,0.919,0.078,1.358,0.127
		c0.467,0.051,0.92,0.109,1.358,0.174c4.761,0.707,7.846,2.233,9.509,4.665c1.794,2.622,1.795,6.135,0.003,10.742
		c-1.643,4.223-4.257,7.798-7.112,10.411c-0.347,0.317-0.697,0.618-1.049,0.907c-0.361,0.294-0.724,0.574-1.089,0.838
		c-2.11,1.528-4.252,2.518-6.153,2.849v28.03c0.041,0.004,0.084,0.014,0.126,0.018c0.131,0.016,0.263,0.034,0.395,0.053
		c0.104,0.015,0.211,0.032,0.316,0.049c0.007,0.002,0.014,0.002,0.021,0.004c0.073,0.012,0.146,0.021,0.219,0.033
		c0.13,0.024,0.26,0.056,0.39,0.083c0.122,0.026,0.244,0.051,0.365,0.079c0.062,0.016,0.122,0.029,0.184,0.045
		c0.098,0.024,0.194,0.055,0.292,0.08c0.031,0.009,0.063,0.018,0.094,0.026c0.131,0.036,0.262,0.069,0.392,0.109
		c0.064,0.02,0.132,0.044,0.197,0.065c0.11,0.036,0.222,0.073,0.333,0.111c0.007,0.003,0.013,0.006,0.02,0.008
		c0.032,0.011,0.066,0.024,0.1,0.036c0.227,0.079,0.453,0.161,0.68,0.25c0.058,0.023,0.114,0.046,0.173,0.069
		c0.363,0.148,0.727,0.313,1.088,0.485c0.272,0.13,0.546,0.271,0.82,0.417c0.077,0.041,0.154,0.079,0.232,0.121
		c0.004,0.001,0.009,0.004,0.013,0.007c0.338,0.185,0.679,0.381,1.021,0.589c0.041,0.024,0.082,0.051,0.123,0.075
		c0.352,0.216,0.705,0.443,1.062,0.684c0.004,0.003,0.007,0.005,0.01,0.007c1.325,0.893,2.682,1.949,4.079,3.185l1.014,0.896
		l2.481,2.192l-0.29-0.046l-0.031-0.005c0.85,0.867,1.716,1.794,2.599,2.782c0.002-0.005,0.004-0.01,0.005-0.015
		c0.922-2.955,1.942-6.31,2.987-9.883c0.537-1.835,1.08-3.726,1.618-5.654c0.194-0.693,0.388-1.393,0.58-2.094
		C203.301,211.505,206.269,198.748,206.723,190.275z"/>
	<path fill="#EFC27C" d="M132.242,136.604c-1.607,1.063-2.988,2.103-3.923,2.843c1.061,0.76,2.672,1.836,4.528,2.816
		C131.965,140.5,131.765,138.485,132.242,136.604z M145.711,132.707c0.055,0.051,0.114,0.098,0.167,0.151
		c0.001,0.001,0.002,0.003,0.004,0.005c0.005,0.006,0.011,0.009,0.016,0.015c0.116,0.115,0.223,0.235,0.322,0.36
		c2.271,2.573,2.644,6.245,1.103,9.175c1.045-0.75,1.723-1.601,1.994-2.531c0.631-2.153-0.975-4.58-2.434-6.237
		C146.54,133.255,146.15,132.943,145.711,132.707z M200.68,139.882c0.273,0.931,0.949,1.781,1.996,2.531
		c-1.541-2.929-1.169-6.601,1.102-9.174c0.1-0.125,0.207-0.246,0.322-0.36c0.006-0.006,0.012-0.01,0.018-0.016
		c0.001-0.002,0.002-0.004,0.004-0.005c0.054-0.054,0.112-0.101,0.168-0.151c-0.439,0.236-0.83,0.548-1.175,0.938
		C201.656,135.302,200.051,137.729,200.68,139.882z M221.682,139.447c-0.937-0.739-2.317-1.78-3.924-2.844
		c0.477,1.883,0.277,3.9-0.606,5.664C219.009,141.287,220.621,140.209,221.682,139.447z"/>
	<path fill="#4D4D4D" d="M139.488,139.288c-0.855-0.855-1.327-1.994-1.327-3.204c0-1.03,0.344-2.006,0.973-2.801
		c-1.073,0.195-2.061,0.708-2.85,1.496c-2.116,2.116-2.116,5.558,0,7.674c1.024,1.024,2.387,1.589,3.836,1.589
		c1.449,0,2.812-0.564,3.836-1.589c0.785-0.785,1.277-1.753,1.48-2.767c-0.786,0.6-1.738,0.93-2.743,0.93
		C141.483,140.616,140.345,140.144,139.488,139.288z M213.715,134.779c-0.788-0.788-1.776-1.301-2.85-1.496
		c0.629,0.795,0.973,1.771,0.973,2.801c0,1.21-0.472,2.349-1.328,3.205c-0.855,0.854-1.994,1.327-3.204,1.327
		c-1.005,0-1.958-0.33-2.742-0.93c0.202,1.014,0.694,1.981,1.479,2.767c1.024,1.024,2.387,1.589,3.836,1.589
		s2.811-0.564,3.836-1.589C215.83,140.337,215.83,136.896,213.715,134.779z"/>
	<path fill="#FFFFFF" d="M208.589,137.366c0.343-0.342,0.531-0.798,0.531-1.282c0-0.486-0.188-0.941-0.531-1.284
		s-0.799-0.531-1.283-0.531c-0.481,0-0.935,0.187-1.276,0.525c-0.003,0.003-0.005,0.003-0.008,0.006
		c-0.007,0.007-0.012,0.017-0.018,0.023c-0.688,0.709-0.683,1.843,0.018,2.543C206.707,138.053,207.902,138.053,208.589,137.366z
		 M143.977,137.366c0.701-0.7,0.706-1.835,0.018-2.544c-0.006-0.007-0.011-0.016-0.018-0.022c-0.002-0.003-0.005-0.004-0.008-0.006
		c-0.341-0.339-0.793-0.525-1.275-0.525c-0.485,0-0.94,0.188-1.283,0.531c-0.343,0.343-0.532,0.798-0.532,1.284
		c0,0.484,0.189,0.94,0.532,1.282C142.096,138.053,143.292,138.053,143.977,137.366z M208.839,167.015
		c-19.815-11.631-24.653-20.868-24.653-47.069c0-0.045,0-0.089,0-0.133c0-0.931-0.003-1.83-0.008-2.702
		c-0.005-0.889-0.013-1.748-0.022-2.578c-0.254-21.506-2.252-23.828-9.156-23.828s-8.902,2.322-9.156,23.828
		c-0.01,0.83-0.017,1.689-0.022,2.578c-0.005,0.872-0.007,1.771-0.007,2.702c0,0.044,0,0.088,0,0.133
		c0,26.201-4.839,35.438-24.654,47.069c-12.475,7.322-25.015,27.782-22.797,63.248c1.291,20.653,9.007,35.046,15.124,35.046
		c0.619,0,1.197-0.156,1.769-0.479c2.173-1.229,5.806-6.032,9.653-11.116c1.611-2.131,3.297-4.359,5.044-6.573
		c0.436-0.552,0.876-1.102,1.318-1.649c0.437-0.54,0.876-1.079,1.319-1.611c0.147-0.177,0.295-0.351,0.442-0.525
		c-0.165-0.524-0.333-1.061-0.505-1.611c-0.487-1.563-1-3.229-1.532-4.986c-0.51-1.688-1.036-3.456-1.567-5.278
		c-3.99-13.685-8.303-30.526-8.866-41.057c-0.491-9.16,2.255-17.171,7.94-23.167c4.802-5.066,11.483-8.373,19.246-9.633
		c0.451-0.073,0.9-0.147,1.358-0.206c0.448-0.059,0.903-0.103,1.358-0.147c1.48-0.145,2.99-0.227,4.533-0.227
		c1.543,0,3.053,0.082,4.534,0.227c0.454,0.045,0.91,0.089,1.358,0.147c0.458,0.059,0.908,0.133,1.358,0.206
		c7.763,1.26,14.443,4.566,19.246,9.633c5.685,5.996,8.431,14.007,7.939,23.167c-0.563,10.53-4.875,27.372-8.865,41.057
		c-0.531,1.822-1.058,3.59-1.567,5.278c-0.532,1.758-1.045,3.424-1.531,4.986c-0.173,0.551-0.341,1.087-0.505,1.611
		c0.146,0.175,0.294,0.349,0.44,0.525c0.444,0.532,0.883,1.071,1.32,1.611c0.442,0.548,0.883,1.098,1.318,1.649
		c1.748,2.214,3.433,4.442,5.045,6.573c3.846,5.084,7.479,9.888,9.652,11.116c0.563,0.318,1.158,0.479,1.77,0.479
		c6.117,0.001,13.832-14.392,15.124-35.046C233.09,207.009,227.864,178.182,208.839,167.015z"/>
	<path fill="#0D0D0D" d="M298.782,90.18c-5.243-4.22-12.53-6.093-20.246-8.077c-7.151-1.839-14.548-3.74-20.62-7.648
		c-13.167-8.474-25.488-10.252-33.507-10.252c-6.628,0-12.598,1.248-15.956,3.079c-2.01-0.074-3.989-0.101-5.912-0.101
		c-4.204,0-8.482,0.128-13.011,0.261c-4.705,0.141-9.569,0.284-14.531,0.284c-4.96,0-9.825-0.144-14.529-0.284
		c-4.531-0.133-8.81-0.261-13.012-0.261c-1.924,0-3.903,0.026-5.914,0.101c-3.357-1.831-9.327-3.079-15.954-3.079
		c-8.018,0-20.34,1.778-33.508,10.252c-6.073,3.908-13.468,5.81-20.62,7.648c-7.715,1.984-15.003,3.857-20.245,8.077
		c-5.937,4.781-8.292,12.027-7.2,22.157c1.603,14.865,5.857,30.11,9.611,43.563c4.243,15.205,8.251,29.567,7.442,39.919
		c-0.205,2.617,0.134,4.305,1.065,5.313c0.547,0.591,1.273,0.904,2.1,0.904l0,0c4.702,0,12.843-11.213,18.826-22.325
		c0.883-1.642,2.04-3.887,3.293-6.562c0.419,16.876,6.549,41.974,14.426,62.707c-1.467,13.33,0.384,24.775,5.444,33.328
		c6.154,10.403,16.841,16.614,28.588,16.614h0.003c8.642,0,15.792-3.485,17.002-8.29c0.406-1.61,0.669-4.304,0.827-7.645
		c0.583-0.214,1.164-0.43,1.743-0.645c6.972-2.586,14.182-5.26,20.612-5.26c6.43,0,13.641,2.674,20.614,5.26
		c0.58,0.215,1.16,0.43,1.742,0.644c0.158,3.342,0.421,6.035,0.827,7.646c1.209,4.804,8.36,8.29,17.004,8.29c0.001,0,0,0,0,0
		c11.747,0,22.436-6.211,28.589-16.614c5.06-8.553,6.91-19.998,5.443-33.328c7.877-20.733,14.008-45.832,14.426-62.709
		c1.254,2.675,2.41,4.92,3.294,6.561c5.981,11.112,14.121,22.324,18.824,22.328h0.002c0.825,0,1.552-0.313,2.099-0.903
		c0.932-1.007,1.271-2.694,1.065-5.313c-0.809-10.352,3.198-24.714,7.441-39.919c3.753-13.452,8.009-28.697,9.611-43.563
		C307.073,102.207,304.719,94.961,298.782,90.18z M86.592,165.864c-1.68,4.132-3.657,8.347-5.924,12.558
		c-7.339,13.636-14.258,20.896-16.432,20.896c-0.075,0-0.082-0.008-0.105-0.031c-0.057-0.063-0.552-0.679-0.351-3.256
		c0.846-10.83-3.038-24.747-7.534-40.862c-3.725-13.35-7.948-28.48-9.527-43.122c-2.18-20.216,10.61-23.505,25.42-27.312
		c7.362-1.893,14.973-3.85,21.414-7.994c12.612-8.117,24.384-9.821,32.037-9.821c3.625,0,6.605,0.357,8.979,0.856
		c1.461,0.309,2.688,0.67,3.692,1.038c1.171,0.43,2.038,0.863,2.609,1.228c0.237,0.151,0.43,0.293,0.566,0.414
		c-0.403,0.146-1.216,0.336-2.753,0.373c-12.111,0.284-23.906,9.491-33.209,25.925c-7.456,13.168-12.466,29.841-12.466,41.489
		c0,5.413-1.1,11.725-3.153,18.479c-0.453,1.49-0.958,3.004-1.503,4.531C87.81,162.774,87.223,164.313,86.592,165.864z
		 M150.013,267.932c-0.017,0.502-0.036,0.99-0.057,1.466c-0.022,0.505-0.046,0.995-0.074,1.468
		c-0.148,2.604-0.374,4.689-0.699,5.979c-0.773,3.066-6.357,6.236-14.368,6.236h-0.003c-5.174-0.001-18.093-1.49-26.25-15.279
		c-4.574-7.734-5.898-17.03-5.504-26.194c0.047-1.086,0.116-2.171,0.208-3.251c0.084-0.988,0.189-1.973,0.308-2.953
		c1.785-14.688,7.21-28.009,9.671-32.64c4.118-7.752,1.816-11.847-2.77-20.007c-1.805-3.211-4.052-7.208-6.505-12.44
		c-3.857-8.226-3.428-21.449,1.146-35.372c4.5-13.692,12.031-25.503,20.147-31.59c5.078-3.809,9.984-5.74,14.582-5.74
		c8.072,0,15.731,5.807,23.27,17.682c-0.013,1.475-0.02,3.021-0.02,4.649c0,25.24-4.357,33.601-23.312,44.726
		c-20.088,11.791-25.638,41.701-24.135,65.762c1.471,23.532,10.225,37.594,17.837,37.594c1.085,0,2.13-0.28,3.106-0.832
		c2.665-1.505,6.115-6.067,10.483-11.844c0.949-1.254,1.941-2.566,2.969-3.901C150.15,257.305,150.172,263.177,150.013,267.932z
		 M197.247,266.927c-0.229-0.086-0.46-0.17-0.688-0.256c-7.199-2.669-14.642-5.429-21.559-5.429c-6.918,0-14.36,2.76-21.558,5.429
		c-0.229,0.086-0.459,0.171-0.69,0.256c0.157-5.58,0.095-12.376-0.052-18.864c1.578-1.971,3.217-3.935,4.899-5.79
		c0.055-0.061,0.11-0.122,0.166-0.183c1.523-1.67,3.079-3.247,4.651-4.659c4.179-0.641,8.41-0.969,12.584-0.969
		s8.406,0.328,12.584,0.969c1.572,1.412,3.128,2.989,4.651,4.659c0.055,0.061,0.11,0.122,0.166,0.183
		c1.682,1.855,3.321,3.819,4.899,5.79C197.153,254.551,197.091,261.347,197.247,266.927z M190.113,236.025l-1.014-0.896
		c-0.784-0.692-1.555-1.324-2.314-1.907c-0.044-0.033-0.087-0.065-0.131-0.099c-0.248-0.188-0.495-0.376-0.74-0.553
		c-0.299-0.217-0.598-0.426-0.894-0.626c-0.003-0.002-0.006-0.004-0.01-0.007c-0.356-0.24-0.71-0.468-1.062-0.684
		c-0.041-0.024-0.082-0.051-0.123-0.075c-0.342-0.208-0.683-0.404-1.021-0.589c-0.021-0.011-0.041-0.023-0.061-0.034
		c-0.358-0.194-0.714-0.376-1.068-0.544c-0.04-0.02-0.079-0.036-0.12-0.055c-0.291-0.135-0.578-0.263-0.866-0.38
		c-0.013-0.006-0.025-0.012-0.038-0.018c-0.059-0.022-0.115-0.047-0.173-0.069c-0.038-0.015-0.074-0.026-0.112-0.041
		c-0.223-0.087-0.445-0.169-0.667-0.245c-0.007-0.002-0.013-0.005-0.02-0.008c-0.111-0.038-0.223-0.075-0.333-0.111
		c-0.065-0.021-0.133-0.046-0.197-0.065c-0.131-0.04-0.261-0.072-0.392-0.109c-0.031-0.009-0.063-0.018-0.094-0.026
		c-0.098-0.025-0.194-0.056-0.292-0.08c-0.062-0.016-0.122-0.029-0.184-0.045c-0.122-0.029-0.243-0.053-0.365-0.079
		c-0.13-0.027-0.26-0.059-0.39-0.083c-0.073-0.013-0.146-0.021-0.219-0.033c-0.007-0.002-0.014-0.002-0.021-0.004
		c-0.105-0.017-0.212-0.034-0.316-0.049c-0.132-0.019-0.264-0.037-0.395-0.053c-0.042-0.004-0.085-0.014-0.126-0.018v-28.03
		c1.901-0.331,4.043-1.32,6.153-2.849c0.365-0.264,0.728-0.544,1.089-0.838c0.352-0.289,0.702-0.59,1.049-0.907
		c2.855-2.613,5.47-6.188,7.112-10.411c1.792-4.607,1.791-8.12-0.003-10.742c-1.663-2.432-4.748-3.958-9.509-4.665
		c-0.438-0.064-0.892-0.123-1.358-0.174c-0.439-0.049-0.893-0.091-1.358-0.127c-1.395-0.107-2.901-0.162-4.534-0.162
		c-1.632,0-3.138,0.055-4.533,0.162c-0.466,0.036-0.918,0.078-1.358,0.127c-0.467,0.051-0.92,0.109-1.358,0.174
		c-4.761,0.707-7.846,2.233-9.51,4.665c-1.793,2.622-1.794,6.135-0.002,10.742c1.643,4.223,4.257,7.798,7.113,10.411
		c0.346,0.317,0.696,0.618,1.048,0.907c0.361,0.294,0.724,0.574,1.088,0.838c2.111,1.528,4.253,2.518,6.154,2.849v28.03
		c-0.041,0.004-0.084,0.014-0.125,0.018c-0.131,0.016-0.263,0.034-0.394,0.053c-0.105,0.015-0.209,0.031-0.314,0.049
		c-0.008,0.001-0.016,0.002-0.024,0.004c-0.073,0.012-0.146,0.021-0.219,0.034c-0.128,0.023-0.258,0.055-0.387,0.082
		c-0.122,0.026-0.244,0.051-0.368,0.08c-0.061,0.015-0.121,0.028-0.182,0.043c-0.099,0.025-0.198,0.057-0.297,0.083
		c-0.028,0.007-0.055,0.015-0.082,0.023c-0.134,0.037-0.267,0.069-0.4,0.11c-0.052,0.016-0.104,0.035-0.155,0.053
		c-0.012,0.003-0.026,0.009-0.038,0.012c0,0-0.001,0-0.002,0.001c-0.111,0.036-0.223,0.074-0.334,0.111
		c-0.008,0.003-0.015,0.007-0.023,0.009c-0.218,0.075-0.438,0.156-0.659,0.242c-0.039,0.016-0.077,0.028-0.117,0.043
		c-0.057,0.022-0.114,0.047-0.172,0.069c-0.013,0.006-0.027,0.013-0.042,0.019c-0.282,0.115-0.564,0.24-0.848,0.373
		c-0.046,0.021-0.092,0.04-0.138,0.063c-0.352,0.166-0.706,0.348-1.062,0.54c-0.025,0.014-0.051,0.03-0.076,0.043
		c-0.333,0.182-0.667,0.375-1.001,0.578c-0.045,0.028-0.092,0.057-0.137,0.084c-0.346,0.213-0.694,0.437-1.045,0.673
		c-0.008,0.006-0.016,0.012-0.024,0.017c-0.296,0.199-0.592,0.408-0.892,0.624c-0.247,0.18-0.497,0.367-0.746,0.558
		c-0.042,0.031-0.083,0.062-0.125,0.094c-0.759,0.583-1.528,1.214-2.312,1.905l-1.012,0.895l-2.483,2.194l0.29-0.046l0.031-0.005
		c-0.85,0.867-1.716,1.794-2.599,2.782c-0.002-0.005-0.003-0.01-0.004-0.015c-0.922-2.955-1.943-6.31-2.988-9.883
		c-0.537-1.835-1.08-3.726-1.619-5.654c-0.194-0.693-0.387-1.393-0.58-2.095c-3.239-11.798-6.206-24.555-6.66-33.027
		c-0.45-8.396,2.04-15.711,7.198-21.152c4.301-4.536,10.286-7.541,17.275-8.756c0.447-0.078,0.902-0.143,1.358-0.206
		c0.449-0.062,0.902-0.113,1.358-0.161c1.477-0.154,2.987-0.241,4.533-0.241c1.547,0,3.057,0.087,4.534,0.241
		c0.456,0.048,0.909,0.1,1.358,0.161c0.456,0.063,0.91,0.128,1.358,0.206c6.989,1.215,12.974,4.22,17.274,8.756
		c5.158,5.441,7.647,12.756,7.198,21.152c-0.454,8.473-3.422,21.229-6.66,33.028c-0.192,0.701-0.386,1.4-0.58,2.094
		c-0.538,1.929-1.081,3.819-1.618,5.654c-1.045,3.573-2.065,6.928-2.987,9.883c-0.001,0.005-0.003,0.01-0.005,0.015
		c-0.883-0.988-1.749-1.915-2.599-2.782l0.031,0.005l0.29,0.046L190.113,236.025z M174.065,231.132
		c0.313-0.029,0.626-0.046,0.935-0.046c0.309,0,0.621,0.017,0.936,0.046c0.021,0.001,0.04,0.001,0.061,0.004
		c0.132,0.013,0.267,0.038,0.399,0.057c0.155,0.021,0.31,0.039,0.466,0.066c0.001,0,0.003,0,0.005,0
		c0.044,0.008,0.087,0.012,0.13,0.02c0.156,0.029,0.316,0.074,0.475,0.11c0.107,0.025,0.215,0.048,0.324,0.076
		c0.011,0.002,0.022,0.007,0.034,0.01c0.216,0.057,0.433,0.122,0.651,0.19c0.08,0.025,0.161,0.051,0.243,0.078
		c0.247,0.083,0.496,0.175,0.746,0.273c0.058,0.022,0.113,0.047,0.171,0.069c0.27,0.11,0.541,0.229,0.815,0.357
		c0.015,0.007,0.028,0.015,0.044,0.021c0.477,0.227,0.96,0.479,1.451,0.758c0.015,0.01,0.031,0.019,0.046,0.027
		c0.484,0.278,0.977,0.583,1.478,0.92c-0.008,0-0.015-0.001-0.021-0.002c-2.821-0.28-5.649-0.422-8.453-0.422
		s-5.631,0.142-8.452,0.422c-0.007,0.001-0.014,0.002-0.02,0.002c0.505-0.339,1.001-0.648,1.491-0.929
		c0.005-0.003,0.01-0.006,0.015-0.009c0.491-0.281,0.975-0.534,1.454-0.761c0.021-0.01,0.042-0.021,0.063-0.03
		c0.27-0.127,0.538-0.243,0.804-0.352c0.061-0.024,0.121-0.05,0.181-0.074c0.249-0.098,0.495-0.188,0.739-0.271
		c0.084-0.028,0.168-0.054,0.252-0.081c0.227-0.071,0.454-0.14,0.678-0.197c0.111-0.029,0.221-0.053,0.332-0.078
		c0.157-0.036,0.315-0.08,0.47-0.109c0.04-0.008,0.08-0.011,0.12-0.018c0.003,0,0.006-0.001,0.01-0.001
		c0.003-0.001,0.008-0.002,0.012-0.002c0.154-0.026,0.308-0.045,0.461-0.065c0.132-0.019,0.266-0.044,0.397-0.057
		C174.024,231.133,174.044,231.133,174.065,231.132z M168.815,195.191c-0.359-0.266-0.718-0.551-1.078-0.856
		c-0.345-0.294-0.689-0.607-1.032-0.938c-2.301-2.216-4.48-5.232-5.936-8.978c-1.442-3.707-1.537-6.397-0.289-8.223
		c1.153-1.684,3.592-2.831,7.268-3.437c0.435-0.072,0.889-0.136,1.358-0.191c0.438-0.054,0.89-0.1,1.358-0.139
		c1.383-0.117,2.89-0.179,4.533-0.179c1.644,0,3.15,0.062,4.534,0.179c0.468,0.039,0.92,0.085,1.358,0.139
		c0.47,0.056,0.924,0.119,1.358,0.191c3.676,0.605,6.114,1.753,7.267,3.437c1.249,1.825,1.154,4.516-0.288,8.223
		c-1.456,3.745-3.634,6.762-5.936,8.978c-0.342,0.33-0.687,0.644-1.032,0.938c-0.358,0.306-0.719,0.591-1.077,0.856
		c-2.321,1.726-4.583,2.629-6.184,2.629C173.399,197.82,171.137,196.917,168.815,195.191z M197.407,243.879
		c-0.146-0.177-0.294-0.351-0.44-0.525c0.164-0.524,0.332-1.061,0.505-1.611c0.486-1.563,0.999-3.229,1.531-4.986
		c0.51-1.688,1.036-3.456,1.567-5.278c3.99-13.685,8.303-30.526,8.865-41.057c0.491-9.16-2.255-17.171-7.939-23.167
		c-4.803-5.066-11.483-8.373-19.246-9.633c-0.45-0.073-0.9-0.147-1.358-0.206c-0.448-0.059-0.904-0.103-1.358-0.147
		c-1.48-0.145-2.99-0.227-4.534-0.227c-1.543,0-3.053,0.082-4.533,0.227c-0.455,0.045-0.911,0.089-1.358,0.147
		c-0.458,0.059-0.908,0.133-1.358,0.206c-7.763,1.26-14.444,4.566-19.246,9.633c-5.685,5.996-8.431,14.007-7.94,23.167
		c0.563,10.53,4.875,27.372,8.866,41.057c0.532,1.822,1.057,3.59,1.567,5.278c0.531,1.758,1.044,3.424,1.532,4.986
		c0.172,0.551,0.34,1.087,0.505,1.611c-0.147,0.175-0.295,0.349-0.442,0.525c-0.443,0.532-0.883,1.071-1.319,1.611
		c-0.442,0.548-0.883,1.098-1.318,1.649c-1.748,2.214-3.433,4.442-5.044,6.573c-3.847,5.084-7.479,9.888-9.653,11.116
		c-0.572,0.323-1.15,0.479-1.769,0.479c-6.117,0-13.833-14.393-15.124-35.046c-2.217-35.466,10.322-55.926,22.797-63.248
		c19.815-11.631,24.654-20.868,24.654-47.069c0-0.045,0-0.089,0-0.133c0-0.931,0.002-1.83,0.007-2.702
		c0.005-0.889,0.012-1.748,0.022-2.578c0.254-21.506,2.252-23.828,9.156-23.828s8.902,2.322,9.156,23.828
		c0.01,0.83,0.018,1.689,0.022,2.578c0.005,0.872,0.008,1.771,0.008,2.702c0,0.044,0,0.088,0,0.133
		c0,26.201,4.838,35.438,24.653,47.069c19.025,11.167,24.251,39.994,22.798,63.248c-1.292,20.654-9.007,35.047-15.124,35.046
		c-0.611,0-1.206-0.161-1.77-0.479c-2.174-1.229-5.807-6.032-9.652-11.116c-1.612-2.131-3.297-4.359-5.045-6.573
		c-0.436-0.552-0.876-1.102-1.318-1.649C198.29,244.95,197.852,244.411,197.407,243.879z M241.437,267.802
		c-8.158,13.791-21.075,15.279-26.25,15.279c-8.011,0-13.598-3.171-14.37-6.236c-0.325-1.291-0.551-3.376-0.699-5.98
		c-0.027-0.473-0.052-0.962-0.074-1.467c-0.021-0.477-0.04-0.964-0.057-1.466c-0.159-4.755-0.138-10.627-0.032-16.482
		c1.028,1.335,2.021,2.647,2.969,3.901c4.369,5.776,7.819,10.339,10.483,11.844c0.977,0.552,2.021,0.832,3.105,0.832
		c0.001,0,0.001,0,0.001,0c7.611,0,16.364-14.062,17.835-37.594c1.505-24.061-4.046-53.971-24.133-65.762
		c-18.955-11.125-23.312-19.485-23.312-44.726c0-1.628-0.007-3.175-0.021-4.649c7.538-11.875,15.196-17.682,23.271-17.682
		c4.596,0,9.503,1.932,14.581,5.74c8.116,6.087,15.648,17.897,20.147,31.59c4.574,13.923,5.004,27.146,1.146,35.372
		c-2.453,5.232-4.699,9.229-6.504,12.44c-4.586,8.16-6.888,12.255-2.77,20.007c2.461,4.631,7.886,17.951,9.671,32.64
		c0.119,0.98,0.224,1.965,0.309,2.953c0.092,1.08,0.161,2.165,0.208,3.251C247.335,250.771,246.012,260.067,241.437,267.802z
		 M248.393,230.045c-2.286-13.102-6.865-24.089-9.238-28.556c-3.422-6.439-1.744-9.424,2.738-17.401
		c1.827-3.25,4.1-7.296,6.596-12.618c4.206-8.97,3.832-22.592-1.024-37.373c-4.667-14.202-12.555-26.507-21.1-32.916
		c-5.56-4.17-11.014-6.283-16.211-6.283c-8.234,0-15.936,5.143-23.351,15.642C186.349,92.79,184.068,87.987,175,87.987
		c-9.068,0-11.349,4.803-11.803,22.552c-7.415-10.499-15.116-15.642-23.35-15.642c-5.198,0-10.653,2.113-16.212,6.283
		c-8.544,6.409-16.433,18.714-21.099,32.916c-4.856,14.781-5.231,28.403-1.025,37.373c2.496,5.322,4.77,9.368,6.597,12.618
		c4.481,7.978,6.16,10.962,2.738,17.401c-2.373,4.467-6.953,15.454-9.239,28.556c-7.979-22.54-13.748-49.008-12.342-63.572
		c3.336-8.284,6.462-18.611,6.462-28.23c0-21.801,18.167-64.113,43.021-64.698c3.768-0.088,5.667-1.081,5.645-2.948
		c-0.003-0.225-0.043-0.447-0.115-0.666c1.045-0.021,2.104-0.031,3.181-0.031c4.163,0,8.422,0.127,12.931,0.261
		c4.725,0.14,9.61,0.284,14.61,0.284c5.002,0,9.886-0.145,14.611-0.284c4.508-0.134,8.767-0.261,12.931-0.261
		c1.076,0,2.135,0.011,3.18,0.031c-0.072,0.219-0.112,0.441-0.115,0.665c-0.021,1.868,1.878,2.861,5.646,2.949
		c24.854,0.585,43.021,42.897,43.021,64.698c0,9.618,3.126,19.946,6.462,28.229C262.141,181.035,256.371,207.504,248.393,230.045z
		 M303.28,112.046c-1.579,14.642-5.802,29.772-9.527,43.122c-4.496,16.115-8.381,30.032-7.533,40.862
		c0.2,2.578-0.294,3.193-0.351,3.256c-0.022,0.023-0.03,0.031-0.104,0.031h-0.001c-2.175-0.001-9.096-7.265-16.435-20.897
		c-2.267-4.211-4.243-8.424-5.923-12.557c-0.631-1.551-1.218-3.089-1.761-4.611c-0.544-1.528-1.05-3.041-1.503-4.531
		c-2.053-6.754-3.154-13.065-3.154-18.479c0-11.648-5.009-28.321-12.465-41.489c-9.304-16.434-21.098-25.641-33.209-25.925
		c-1.538-0.037-2.351-0.227-2.754-0.373c0.135-0.121,0.329-0.263,0.566-0.414c0.57-0.364,1.437-0.798,2.608-1.228
		c1.005-0.368,2.231-0.729,3.692-1.037c2.374-0.5,5.356-0.857,8.98-0.857c7.653,0,19.425,1.704,32.037,9.821
		c6.441,4.145,14.053,6.102,21.414,7.994C292.67,88.541,305.459,91.83,303.28,112.046z M140.811,147.407
		C140.811,147.407,140.811,147.407,140.811,147.407c0.972,0,1.897-0.124,2.75-0.368c4.705-1.35,7.52-3.501,8.366-6.394
		c0.54-1.845,0.457-4.868-3.004-8.797c-1.416-1.606-3.331-2.423-5.69-2.423c-7.558,0-17.581,8.672-18.004,9.041l-1.21,1.056
		l1.241,1.019C125.601,140.821,133.706,147.406,140.811,147.407z M146.885,133.645c1.458,1.657,3.064,4.084,2.434,6.237
		c-0.271,0.931-0.949,1.781-1.994,2.531c1.541-2.93,1.167-6.602-1.103-9.175c-0.1-0.125-0.207-0.245-0.322-0.36
		c-0.005-0.006-0.011-0.009-0.016-0.015c-0.002-0.002-0.003-0.004-0.004-0.005c-0.054-0.054-0.112-0.101-0.167-0.151
		C146.15,132.943,146.54,133.255,146.885,133.645z M141.411,134.8c0.343-0.343,0.798-0.531,1.283-0.531
		c0.482,0,0.934,0.187,1.275,0.525c0.003,0.002,0.005,0.003,0.008,0.006c0.007,0.007,0.012,0.016,0.018,0.022
		c0.688,0.709,0.683,1.844-0.018,2.544c-0.685,0.687-1.881,0.687-2.566,0c-0.343-0.342-0.532-0.798-0.532-1.282
		C140.879,135.598,141.068,135.143,141.411,134.8z M136.284,134.779c0.789-0.788,1.776-1.301,2.85-1.496
		c-0.629,0.795-0.973,1.771-0.973,2.801c0,1.21,0.472,2.349,1.327,3.204c0.856,0.855,1.995,1.328,3.206,1.328
		c1.004,0,1.957-0.33,2.743-0.93c-0.203,1.014-0.695,1.981-1.48,2.767c-1.024,1.024-2.387,1.589-3.836,1.589
		c-1.449,0-2.812-0.564-3.836-1.589C134.168,140.337,134.168,136.896,136.284,134.779z M132.242,136.604
		c-0.477,1.882-0.277,3.896,0.605,5.659c-1.855-0.98-3.467-2.057-4.528-2.816C129.254,138.706,130.635,137.667,132.242,136.604z
		 M206.767,129.426c-2.36,0-4.274,0.816-5.691,2.423c-3.46,3.929-3.542,6.952-3.003,8.797c0.847,2.893,3.662,5.044,8.367,6.394
		c0.853,0.244,1.777,0.368,2.75,0.368c7.104,0,15.209-6.586,15.551-6.866l1.24-1.019l-1.209-1.056
		C224.348,138.098,214.325,129.426,206.767,129.426z M206.004,134.823c0.006-0.007,0.011-0.017,0.018-0.023
		c0.003-0.003,0.005-0.003,0.008-0.006c0.342-0.339,0.795-0.525,1.276-0.525c0.484,0,0.94,0.188,1.283,0.531
		s0.531,0.798,0.531,1.284c0,0.484-0.188,0.94-0.531,1.282c-0.687,0.687-1.882,0.687-2.567,0
		C205.321,136.666,205.316,135.532,206.004,134.823z M204.121,132.858c-0.002,0.001-0.003,0.003-0.004,0.005
		c-0.006,0.006-0.012,0.01-0.018,0.016c-0.115,0.114-0.223,0.235-0.322,0.36c-2.271,2.573-2.643,6.245-1.102,9.174
		c-1.047-0.75-1.723-1.601-1.996-2.531c-0.629-2.153,0.977-4.58,2.435-6.237c0.345-0.39,0.735-0.701,1.175-0.938
		C204.233,132.758,204.175,132.805,204.121,132.858z M213.715,142.453c-1.025,1.024-2.387,1.589-3.836,1.589
		s-2.812-0.564-3.836-1.589c-0.785-0.785-1.277-1.753-1.479-2.767c0.784,0.6,1.737,0.93,2.742,0.93c1.21,0,2.349-0.473,3.204-1.327
		c0.856-0.856,1.328-1.995,1.328-3.205c0-1.03-0.344-2.006-0.973-2.801c1.073,0.195,2.062,0.708,2.85,1.496
		C215.83,136.896,215.83,140.337,213.715,142.453z M217.151,142.268c0.884-1.764,1.083-3.781,0.606-5.664
		c1.606,1.063,2.987,2.104,3.924,2.844C220.621,140.209,219.009,141.287,217.151,142.268z"/>
</g>
</svg>
