<?xml version="1.0" encoding="utf-8"?>
<!-- Generator: Adobe Illustrator 16.0.0, SVG Export Plug-In . SVG Version: 6.00 Build 0)  -->
<!DOCTYPE svg PUBLIC "-//W3C//DTD SVG 1.1//EN" "http://www.w3.org/Graphics/SVG/1.1/DTD/svg11.dtd">
<svg version="1.1" id="Capa_1" xmlns="http://www.w3.org/2000/svg" xmlns:xlink="http://www.w3.org/1999/xlink" x="0px" y="0px"
	 width="350px" height="350px" viewBox="0 0 350 350" enable-background="new 0 0 350 350" xml:space="preserve">
<g>
	<path d="M163.125,220.101c-7.474-0.497-14.888-1.505-22.094-2.909c0.021-0.376,0.104-0.739,0.104-1.12
		c0-4.854-2.205-9.83-5.897-13.314c-3.488-3.285-7.893-5.023-12.368-4.69c-4.452,0.204-10.945-2.783-12.069-5.606
		c-3.904-9.8-12.749-14.685-22.003-12.13c-3.67,1.008-7.116,3.459-9.61,6.675c-4.5-4.366-8.55-9.121-12.004-14.227
		c-1.34-1.975-4.021-2.494-6.004-1.158c-1.98,1.34-2.494,4.029-1.159,6.004c4.405,6.498,9.64,12.506,15.549,17.875
		c-0.35,2.547-0.138,5.079,0.795,7.436c3.571,8.961,9.83,16.867,17.758,22.479v12.99c0,8.438,6.869,15.307,15.312,15.307
		c8.442,0,15.312-6.868,15.312-15.307v-4.453c5.883-0.734,10.798-3.916,13.669-8.441c7.859,1.581,15.973,2.676,24.134,3.22
		c0.1,0.005,0.194,0.009,0.294,0.009c2.256,0,4.154-1.751,4.31-4.037C167.31,222.317,165.507,220.261,163.125,220.101z
		 M122.88,225.443c-0.813,0.043-1.608,0.048-2.417,0.03c-1.102,0.044-2.265,0.44-3.082,1.253c-0.821,0.813-1.279,1.916-1.279,3.07
		v8.606c0,3.674-2.987,6.661-6.666,6.661s-6.666-2.987-6.666-6.661v-15.29c0-1.479-0.752-2.849-1.997-3.645
		c-7.357-4.694-13.172-11.701-16.371-19.733c-0.855-2.152-0.203-4.275,0.493-5.68c1.293-2.594,3.722-4.708,6.199-5.391
		c0.895-0.246,1.742-0.359,2.546-0.359c4.517,0,7.629,3.58,9.129,7.349c2.948,7.418,14.015,11.438,20.607,11.041
		c2.079-0.143,4.197,0.713,5.935,2.352c1.993,1.881,3.181,4.504,3.181,7.024C132.493,221.851,127.656,225.163,122.88,225.443z"/>
	<path d="M202.321,216.754c-2.348,0.433-3.904,2.681-3.476,5.028c0.38,2.083,2.2,3.544,4.248,3.544c0.26,0,0.52-0.021,0.782-0.073
		c22.929-4.197,55.307-14.688,79.347-40.847c1.616-1.759,1.5-4.491-0.26-6.107c-1.755-1.613-4.487-1.509-6.108,0.26
		C254.44,202.956,223.951,212.795,202.321,216.754z"/>
	<path d="M183.343,181.212c0.787-0.064,1.574-0.134,2.352-0.22c0.787-0.087,1.562-0.187,2.33-0.299
		c0.458-0.065,0.908-0.143,1.362-0.217c20.541-3.358,35.326-14.991,35.326-29.252c0-16.967-20.888-30.26-47.551-30.26
		c-26.664,0-47.552,13.292-47.552,30.26c0,14.261,14.784,25.894,35.326,29.252c0.454,0.074,0.903,0.151,1.362,0.217
		c0.769,0.112,1.547,0.207,2.33,0.299c0.778,0.086,1.561,0.155,2.352,0.22c0.593,0.048,1.18,0.1,1.781,0.135
		c1.453,0.086,2.918,0.138,4.401,0.138c1.482,0,2.947-0.052,4.399-0.138C182.163,181.312,182.751,181.26,183.343,181.212z
		 M208.822,163.575c-0.718,0.566-1.491,1.103-2.296,1.625c-0.483,0.315-0.985,0.618-1.5,0.917c-0.519,0.303-1.067,0.583-1.617,0.869
		c-1.054,0.54-2.156,1.05-3.307,1.53c-0.519,0.216-1.028,0.441-1.569,0.64c-0.713,0.269-1.456,0.51-2.2,0.752
		c-0.627,0.203-1.263,0.394-1.906,0.575c-0.687,0.195-1.374,0.394-2.088,0.567c-1.288,0.311-2.603,0.592-3.951,0.821
		c-0.502,0.087-1.02,0.147-1.526,0.225c-1.098,0.16-2.213,0.302-3.341,0.411c-0.498,0.048-0.999,0.095-1.505,0.129
		c-1.599,0.122-3.211,0.203-4.854,0.203c-1.644,0-3.256-0.082-4.855-0.198c-0.505-0.035-1.003-0.083-1.504-0.13
		c-1.128-0.108-2.239-0.247-3.341-0.411c-0.51-0.074-1.024-0.139-1.526-0.225c-1.349-0.233-2.663-0.51-3.951-0.821
		c-0.709-0.173-1.396-0.372-2.083-0.566c-0.644-0.181-1.284-0.372-1.907-0.575c-0.743-0.242-1.487-0.484-2.2-0.752
		c-0.54-0.199-1.05-0.423-1.569-0.64c-1.15-0.479-2.257-0.99-3.307-1.53c-0.549-0.286-1.094-0.567-1.617-0.869
		c-0.514-0.298-1.016-0.601-1.5-0.917c-0.808-0.523-1.582-1.063-2.3-1.63c-0.151-0.117-0.324-0.229-0.471-0.346
		c-0.938-0.774-1.786-1.586-2.546-2.425c-0.047-0.052-0.09-0.104-0.138-0.155c10.444-3.917,22.375-5.966,34.817-5.966
		c12.44,0,24.372,2.049,34.824,5.957c-0.048,0.052-0.091,0.104-0.139,0.156c-0.766,0.843-1.607,1.655-2.546,2.425
		C209.15,163.346,208.978,163.458,208.822,163.575z M177.162,129.61c21.086,0,38.904,9.899,38.904,21.614
		c0,0.562-0.077,1.119-0.155,1.673c-11.642-4.492-24.925-6.86-38.749-6.86c-13.825,0-27.109,2.369-38.75,6.86
		c-0.078-0.554-0.156-1.111-0.156-1.673C138.256,139.51,156.075,129.61,177.162,129.61z"/>
	<path d="M175,64.768c-70.319,0-127.524,40.726-127.524,90.78v38.906c0,50.054,57.205,90.779,127.524,90.779
		s127.523-40.726,127.523-90.796v-38.889C302.523,105.493,245.319,64.768,175,64.768z M293.878,194.453
		c0,45.29-53.326,82.133-118.878,82.133S56.122,239.743,56.122,194.437v-38.889c0-45.291,53.327-82.134,118.878-82.134
		s118.878,36.843,118.878,82.134V194.453z"/>
	<path d="M120.42,212.082c-9.052,1.422-14.058-4.596-14.295-4.894c-1.47-1.864-4.163-2.191-6.043-0.744
		c-1.889,1.466-2.235,4.18-0.77,6.065c0.294,0.38,6.684,8.441,18.303,8.441c1.323,0,2.71-0.104,4.163-0.337
		c2.356-0.376,3.964-2.589,3.592-4.949C124.994,213.313,122.802,211.67,120.42,212.082z"/>
</g>
</svg>
