<?xml version="1.0" encoding="utf-8"?>
<!-- Generator: Adobe Illustrator 16.0.0, SVG Export Plug-In . SVG Version: 6.00 Build 0)  -->
<!DOCTYPE svg PUBLIC "-//W3C//DTD SVG 1.1//EN" "http://www.w3.org/Graphics/SVG/1.1/DTD/svg11.dtd">
<svg version="1.1" id="Capa_1" xmlns="http://www.w3.org/2000/svg" xmlns:xlink="http://www.w3.org/1999/xlink" x="0px" y="0px"
	 width="350px" height="350px" viewBox="0 0 350 350" enable-background="new 0 0 350 350" xml:space="preserve">
<g>
	<path fill="#EEAF4B" d="M302.28,156.067c0-49.331-56.985-89.318-127.279-89.318S47.723,106.737,47.723,156.067v40.176
		c0,0.004,0,0.014,0,0.018c0,49.331,56.985,89.318,127.278,89.318s127.279-39.987,127.279-89.318c0-0.004,0-0.014,0-0.018V156.067z
		 M177.235,178.397c-24.666,0-44.66-11.996-44.66-26.796s19.994-26.795,44.66-26.795c24.664,0,44.658,11.995,44.658,26.795
		C221.894,166.397,201.899,178.397,177.235,178.397z"/>
	<g>
		<path fill="#FBD490" d="M177.235,150.717c16.036,0,30.787,3.211,42.716,8.566c1.224-2.434,1.942-4.998,1.942-7.672
			c0-14.8-19.994-26.796-44.658-26.796c-24.666,0-44.66,11.996-44.66,26.796c0,2.675,0.719,5.238,1.943,7.672
			C146.442,153.928,161.193,150.717,177.235,150.717z"/>
	</g>
	<path fill="#E6E6E6" d="M305.004,146.395c-8.069-46.205-63.724-81.968-130.779-81.968c-64.229,0-117.414,32.815-128.792,76.188
		c-2.398,9.137,1.729,18.623,9.758,23.866c6.373,4.163,4.904,35.951,6.592,42.766c1.143,4.627,4.631,8.459,9.383,9.534
		c7.007,1.59,24.737-1.554,28.086,10.656c0.5,1.826,1.005,3.577,1.237,5.327c0.563,4.217,4.917,6.834,8.865,5.043
		c3.943-1.786,10.794-10.71,18.132-11.857c25.349-3.961,13.224,19.654,18.775,27.742c2.912,4.243,8.458,5.516,13.138,3.238
		c4.136-2.01,4.899-12.782,13.729-12.639c11.263,0.184,8.892,10.463,12.785,12.201c5.105,2.272,11.34,0.933,14.601-3.524
		c5.608-7.677,10.512-25.906,20.842-27.014c13.349-1.435,16.188,10.325,20.48,12.54c3.64,1.88,7.963-0.232,8.504-4.221
		c1.228-9.052,3.866-26.514,27.335-19.672c3.448,1.004,6.033-3.577,6.918-6.984c2.97-11.438,5.56-40.748,13.184-45.285
		C303.343,159.015,306.104,152.678,305.004,146.395z M177.235,178.397c-24.666,0-44.66-11.996-44.66-26.796
		s19.994-26.795,44.66-26.795c24.664,0,44.658,11.995,44.658,26.795C221.894,166.397,201.899,178.397,177.235,178.397z"/>
</g>
</svg>
