<?xml version="1.0" encoding="utf-8"?>
<!-- Generator: Adobe Illustrator 16.0.0, SVG Export Plug-In . SVG Version: 6.00 Build 0)  -->
<!DOCTYPE svg PUBLIC "-//W3C//DTD SVG 1.1//EN" "http://www.w3.org/Graphics/SVG/1.1/DTD/svg11.dtd">
<svg version="1.1" id="Layer_1" xmlns="http://www.w3.org/2000/svg" xmlns:xlink="http://www.w3.org/1999/xlink" x="0px" y="0px"
	 width="350px" height="350px" viewBox="0 0 350 350" enable-background="new 0 0 350 350" xml:space="preserve">
<path fill="#1F191A" d="M247.074,177.042c-14.948,10.328-25.171,11.576-25.171,11.576s0.386-46.232-26.364-56.965
	c-26.75-10.712-78.68-33.02-80.271-52.825c0,0-11.399,24.35,1.977,41.267c5.487,6.937,11.092,11.788,15.816,15.108
	c2.81,1.582,6.323,2.617,9.17,3.144c39.465,7.183,35.77,29.631,35.77,29.631s0.515-9.451-13.64-19.674
	c-3.608-2.583-9.3-5.48-19.884-6.71c-7.202-0.875-21.061,2.214-38.254-0.858c-18.496-3.304-38.96-16.107-38.96-16.107
	s-3.144,21.464,21.639,37.571c24.804,16.09,22.605,11.256,45.705,41.364c3.628,4.723,19.77,14.247,19.77,14.247
	s-48.153,11.256-65.474,14.119c-17.31,2.897-38.149,10.329-19.671,24.364c18.497,14.033,20.463,16.51,38.167,14.033
	c17.706-2.48,32.267-23.098,44.844-23.518c0,0,50.778,4.124,66.902,0.42c16.127-3.724,35.006-9.502,39.73-42.908
	c0,0,1.968-13.633,14.948-14.862c12.769-1.213,14.122-4.024,14.159-4.128c-0.055,0-0.738-0.28-7.082-4.127
	C273.438,176.639,262.022,166.73,247.074,177.042z"/>
</svg>
