<?xml version="1.0" encoding="utf-8"?>
<!-- Generator: Adobe Illustrator 16.0.0, SVG Export Plug-In . SVG Version: 6.00 Build 0)  -->
<!DOCTYPE svg PUBLIC "-//W3C//DTD SVG 1.1//EN" "http://www.w3.org/Graphics/SVG/1.1/DTD/svg11.dtd">
<svg version="1.1" id="Capa_1" xmlns="http://www.w3.org/2000/svg" xmlns:xlink="http://www.w3.org/1999/xlink" x="0px" y="0px"
	 width="350px" height="350px" viewBox="0 0 350 350" enable-background="new 0 0 350 350" xml:space="preserve">
<path d="M235.393,61.765H114.608c-2.087,0-3.774,1.691-3.774,3.774v45.294c0,2.083,1.687,3.774,3.774,3.774v29.883v113.235v30.51
	h120.785v-35.073V149.681v-35.073c2.086,0,3.773-1.691,3.773-3.774V65.54C239.166,63.456,237.479,61.765,235.393,61.765z
	 M231.617,107.059h-7.549V69.314h7.549V107.059z M208.971,107.059V69.314h7.548v37.745H208.971z M193.872,107.059V69.314h7.55
	v37.745H193.872z M178.774,107.059V69.314h7.549v37.745H178.774z M163.676,107.059V69.314h7.549v37.745H163.676z M148.578,107.059
	V69.314h7.549v37.745H148.578z M133.48,107.059V69.314h7.549v37.745H133.48z M118.382,69.314h7.549v37.745h-7.549V69.314z
	 M122.157,152.04h7.549v98.137h-7.549V152.04z M227.843,167.451h-37.744V175h37.744v7.549h-37.744v7.55h37.744v7.549h-37.744v7.548
	h37.744v7.55h-37.744v7.549h37.744v7.549h-37.744v7.55h37.744v15.097H175v-98.136h52.843V167.451z M227.843,144.804h-60.392v113.235
	h60.392v22.647H122.157v-22.961h15.098V144.491h-15.098v-29.883h105.686V144.804z"/>
</svg>
