<?xml version="1.0" encoding="utf-8"?>
<!-- Generator: Adobe Illustrator 16.0.0, SVG Export Plug-In . SVG Version: 6.00 Build 0)  -->
<!DOCTYPE svg PUBLIC "-//W3C//DTD SVG 1.1//EN" "http://www.w3.org/Graphics/SVG/1.1/DTD/svg11.dtd">
<svg version="1.1" id="Capa_1" xmlns="http://www.w3.org/2000/svg" xmlns:xlink="http://www.w3.org/1999/xlink" x="0px" y="0px"
	 width="350px" height="350px" viewBox="0 0 350 350" enable-background="new 0 0 350 350" xml:space="preserve">
<g>
	<path d="M255.333,106.716V54.5H94.666v52.217h12.05v4.017h-5.31c-3.715,0-6.74,3.021-6.74,6.736v10.628
		c0,3.715,3.025,6.736,6.74,6.736h5.31V271.4h-5.31c-3.715,0-6.74,3.021-6.74,6.736v10.628c0,3.716,3.025,6.736,6.74,6.736h147.191
		c3.712,0,6.735-3.021,6.735-6.736v-10.628c0-3.716-3.023-6.736-6.739-6.736h-5.311v-8.033v-120.5v-8.034h5.311
		c3.716,0,6.739-3.021,6.739-6.736v-10.628c0-3.715-3.023-6.736-6.739-6.736h-5.311v-4.017H255.333z M102.7,98.683v-36.15h12.05
		v8.034h8.033v-8.034h8.034v8.034h8.033v-8.034h8.033v8.034h8.034v-8.034h8.033v8.034h8.033v-8.034h8.034v8.034h8.033v-8.034h8.033
		v8.034h8.034v-8.034h8.033v8.034h8.032v-8.034h8.035v8.034h8.032v-8.034h12.051v36.15h-4.018h-8.033v-8.033h-8.032v8.033h-8.035
		v-8.033h-8.032v8.033h-8.033v-8.033h-8.034v8.033h-8.033v-8.033h-8.033v8.033h-8.034v-8.033h-8.033v8.033h-8.033v-8.033h-8.034
		v8.033h-8.033v-8.033h-8.033v8.033h-8.034v-8.033h-8.033v8.033h-8.033H102.7z M242.074,279.434h5.227v8.034H102.7v-8.034h5.226
		c3.76,0,6.824-3.064,6.824-6.828v-9.238h120.5v9.238C235.25,276.369,238.315,279.434,242.074,279.434z M114.878,255.333V150.9
		H235.25v104.433H114.878z M247.301,118.767v8.033h-5.227c-3.759,0-6.824,3.064-6.824,6.828v9.239h-120.5v-9.239
		c0-3.764-3.064-6.828-6.824-6.828H102.7v-8.033h4.017h136.567H247.301z M235.25,110.733h-120.5v-4.017h120.5V110.733z"/>
	<path d="M191.067,162.95h-32.134v24.1h-24.1v32.134h24.1v24.1h32.134v-24.1h24.1V187.05h-24.1V162.95z M207.133,195.083v16.067
		h-24.1v24.1h-16.066v-24.1h-24.1v-16.067h24.1v-24.1h16.066v24.1H207.133z"/>
	<rect x="122.783" y="126.8" width="24.1" height="8.033"/>
	<rect x="158.933" y="126.8" width="48.2" height="8.033"/>
	<rect x="219.183" y="126.8" width="8.035" height="8.033"/>
	<rect x="122.783" y="271.4" width="24.1" height="8.033"/>
	<rect x="158.933" y="271.4" width="48.2" height="8.033"/>
	<rect x="219.183" y="271.4" width="8.035" height="8.033"/>
</g>
</svg>
