<?xml version="1.0" encoding="utf-8"?>
<!-- Generator: Adobe Illustrator 16.0.0, SVG Export Plug-In . SVG Version: 6.00 Build 0)  -->
<!DOCTYPE svg PUBLIC "-//W3C//DTD SVG 1.1//EN" "http://www.w3.org/Graphics/SVG/1.1/DTD/svg11.dtd">
<svg version="1.1" id="Layer_1" xmlns="http://www.w3.org/2000/svg" xmlns:xlink="http://www.w3.org/1999/xlink" x="0px" y="0px"
	 width="350px" height="350px" viewBox="0 0 350 350" enable-background="new 0 0 350 350" xml:space="preserve">
<path fill="#E6E9ED" d="M282.924,233.644c0-22.31-18.153-40.47-40.47-40.47s-40.477,18.153-40.477,40.47
	c0,11.606,4.896,22.481,13.495,30.169v14.801c0,2.488,2.013,4.5,4.493,4.5h44.97c1.194,0,2.336-0.475,3.181-1.319
	s1.32-1.986,1.32-3.181v-14.801C278.034,256.125,282.924,245.251,282.924,233.644z"/>
<path fill="#967ADC" d="M68.395,281.418c-1.762-1.755-1.762-4.6,0-6.354l44.514-44.521c1.755-1.754,4.606-1.754,6.361,0
	c1.755,1.762,1.755,4.605,0,6.361l-44.521,44.515C72.994,283.18,70.149,283.18,68.395,281.418z"/>
<path fill="#E6E9ED" d="M235.229,144.523c0-1.195-0.476-2.343-1.319-3.181l-25.438-25.438c-1.756-1.762-4.601-1.762-6.355,0
	l-89.208,89.201c-0.845,0.844-1.32,1.985-1.32,3.18v25.438c0,1.24,0.508,2.369,1.32,3.18c0.812,0.813,1.94,1.32,3.181,1.32h25.438
	c1.194,0,2.336-0.476,3.181-1.32l89.2-89.207C234.753,146.858,235.229,145.71,235.229,144.523z"/>
<path fill="#AC92EB" d="M111.589,233.723c0,1.24,0.508,2.369,1.32,3.181c0.812,0.812,1.94,1.319,3.181,1.319h25.438
	c1.194,0,2.336-0.475,3.181-1.319l54.057-54.056h-63.599l-22.257,22.258c-0.845,0.844-1.32,1.985-1.32,3.18L111.589,233.723
	L111.589,233.723z"/>
<g>
	<path fill="#434A54" d="M233.46,233.644c0,2.487-2.013,4.5-4.5,4.5c-2.481,0-4.494-2.013-4.494-4.5
		c0-2.481,2.013-4.494,4.494-4.494C231.447,229.149,233.46,231.162,233.46,233.644z"/>
	<path fill="#434A54" d="M260.442,233.644c0,2.487-2.013,4.5-4.501,4.5c-2.48,0-4.493-2.013-4.493-4.5
		c0-2.481,2.013-4.494,4.493-4.494C258.43,229.149,260.442,231.162,260.442,233.644z"/>
</g>
<path fill="#E6E9ED" d="M276.569,90.466c0-1.194-0.476-2.342-1.32-3.18l-12.722-12.723c-1.756-1.755-4.6-1.755-6.354,0
	l-47.702,47.695c-0.845,0.845-1.313,1.986-1.313,3.181s0.468,2.335,1.313,3.18l12.722,12.723c1.755,1.755,4.605,1.755,6.361,0
	l47.695-47.702C276.094,92.803,276.569,91.654,276.569,90.466z"/>
<path fill="#CCD1D9" d="M198.937,119.085c-1.763-1.762-1.763-4.606,0-6.361c1.755-1.755,4.599-1.755,6.354,0l31.799,31.793
	c1.755,1.762,1.755,4.605,0,6.361c-1.756,1.755-4.6,1.755-6.355,0L198.937,119.085z"/>
<g>
	<path fill="#434A54" d="M179.681,201.925l-6.354-6.355c-1.755-1.762-4.606-1.755-6.361,0c-1.755,1.756-1.755,4.6,0,6.355
		l6.361,6.36L179.681,201.925z"/>
	<path fill="#434A54" d="M160.604,221.008l-6.361-6.361c-1.755-1.755-4.6-1.755-6.354,0c-1.762,1.755-1.762,4.605,0,6.361
		l6.354,6.354L160.604,221.008z"/>
	<path fill="#434A54" d="M198.771,182.835l-6.355-6.355c-1.761-1.762-4.605-1.755-6.36,0c-1.755,1.756-1.755,4.601,0,6.355
		l6.36,6.36L198.771,182.835z"/>
	<path fill="#434A54" d="M217.842,163.771l-6.362-6.361c-1.755-1.755-4.6-1.755-6.361,0c-1.755,1.755-1.755,4.606,0,6.361
		l6.361,6.361L217.842,163.771z"/>
</g>
<g>
	<path fill="#CCD1D9" d="M233.46,269.619c-2.488,0-4.5,2.014-4.5,4.5v8.994h8.994v-8.994
		C237.953,271.633,235.941,269.619,233.46,269.619z"/>
	<path fill="#CCD1D9" d="M251.448,269.059c-2.488,0-4.501,2.013-4.501,4.5v8.994c0,0.186,0.021,0.376,0.04,0.561h8.915
		c0.026-0.185,0.039-0.376,0.039-0.561v-8.994C255.941,271.071,253.929,269.059,251.448,269.059z"/>
	<path fill="#CCD1D9" d="M249.812,74.563c-1.755-1.755-1.755-4.599,0-6.361c1.755-1.755,4.6-1.755,6.361,0l25.438,25.438
		c1.755,1.762,1.755,4.606,0,6.361s-4.605,1.755-6.361,0L249.812,74.563z"/>
</g>
</svg>
