<?xml version="1.0" encoding="utf-8"?>
<!-- Generator: Adobe Illustrator 16.0.0, SVG Export Plug-In . SVG Version: 6.00 Build 0)  -->
<!DOCTYPE svg PUBLIC "-//W3C//DTD SVG 1.1//EN" "http://www.w3.org/Graphics/SVG/1.1/DTD/svg11.dtd">
<svg version="1.1" id="Layer_1" xmlns="http://www.w3.org/2000/svg" xmlns:xlink="http://www.w3.org/1999/xlink" x="0px" y="0px"
	 width="350px" height="350px" viewBox="0 0 350 350" enable-background="new 0 0 350 350" xml:space="preserve">
<g>
	<g>
		<g>
			<path d="M235.408,235.615c-2.785,0-5.038,2.26-5.038,5.037c0,2.778,2.253,5.038,5.038,5.038c2.777,0,5.03-2.26,5.03-5.038
				C240.438,237.875,238.186,235.615,235.408,235.615z"/>
			<path d="M265.612,235.615c-2.785,0-5.038,2.26-5.038,5.037c0,2.778,2.253,5.038,5.038,5.038c2.777,0,5.03-2.26,5.03-5.038
				C270.643,237.875,268.39,235.615,265.612,235.615z"/>
			<path d="M240.948,149.474c1.285,0,2.577-0.491,3.561-1.477c1.964-1.965,1.964-5.152,0-7.117l-7.121-7.122l46.271-46.271
				l3.56,3.557c0.982,0.982,2.275,1.474,3.561,1.474c1.292,0,2.577-0.491,3.561-1.474c1.964-1.965,1.964-5.152,0-7.117l-7.121-7.122
				l-14.234-14.238l-7.119-7.116c-1.966-1.969-5.156-1.969-7.122,0c-1.965,1.965-1.965,5.152,0,7.118l3.561,3.56l-46.271,46.274
				l-3.56-3.56c0,0,0,0-0.008-0.004l-3.553-3.557c-1.965-1.965-5.156-1.965-7.121,0c-1.965,1.969-1.965,5.156,0,7.121
				l-96.301,96.293c-0.938,0.946-1.47,2.231-1.47,3.561v26.4l-48.361,48.354c-1.965,1.965-1.965,5.155,0,7.121
				c0.982,0.981,2.267,1.478,3.56,1.478c1.286,0,2.579-0.496,3.561-1.478l48.362-48.361h26.386c1.337,0,2.615-0.524,3.561-1.471
				L237.388,148C238.37,148.983,239.655,149.474,240.948,149.474z M173.122,198.023l-3.56-3.561c-1.965-1.966-5.149-1.966-7.121,0
				c-1.965,1.972-1.965,5.156,0,7.121l3.561,3.56l-14.234,14.234l-3.561-3.561c-1.965-1.965-5.156-1.965-7.121,0
				c-1.965,1.966-1.965,5.156,0,7.121l3.561,3.561l-9.204,9.205h-21.355v-21.355l32.642-32.65h42.718L173.122,198.023z
				 M215.839,155.31l-3.559-3.561c-1.966-1.965-5.156-1.965-7.121,0c-1.966,1.969-1.966,5.152,0,7.121l3.561,3.561l-9.205,9.205
				h-42.718l52.114-52.114l3.561,3.561l2.031,2.035l15.763,15.764L215.839,155.31z M228.745,125.116l-5.6-5.595l46.279-46.275
				l7.12,7.121l-46.278,46.275L228.745,125.116z"/>
			<path d="M250.506,195.342c-24.981,0-45.303,20.329-45.303,45.311c0,12.993,5.474,25.161,15.099,33.766v16.568
				c0,2.785,2.253,5.038,5.038,5.038h50.341c2.777,0,5.031-2.253,5.031-5.038v-16.568c9.632-8.604,15.105-20.772,15.105-33.765
				C295.817,215.671,275.488,195.342,250.506,195.342z M272.526,268.161c-1.189,0.953-1.884,2.401-1.884,3.93v13.865h-5.03v-5.665
				c0-2.778-2.253-5.031-5.038-5.031c-2.777,0-5.03,2.253-5.03,5.031v5.665h-10.068v-5.029c0-2.779-2.253-5.039-5.037-5.039
				c-2.778,0-5.031,2.26-5.031,5.039v5.029h-5.038v-13.865c0-1.528-0.693-2.977-1.883-3.93c-8.399-6.736-13.216-16.76-13.216-27.508
				c0-19.428,15.809-35.235,35.235-35.235c19.436,0,35.243,15.809,35.243,35.235C285.749,251.401,280.933,261.425,272.526,268.161z"
				/>
		</g>
	</g>
</g>
</svg>
