<?xml version="1.0" encoding="utf-8"?>
<!-- Generator: Adobe Illustrator 16.0.0, SVG Export Plug-In . SVG Version: 6.00 Build 0)  -->
<!DOCTYPE svg PUBLIC "-//W3C//DTD SVG 1.1//EN" "http://www.w3.org/Graphics/SVG/1.1/DTD/svg11.dtd">
<svg version="1.1" id="Capa_1" xmlns="http://www.w3.org/2000/svg" xmlns:xlink="http://www.w3.org/1999/xlink" x="0px" y="0px"
	 width="350px" height="350px" viewBox="0 0 350 350" enable-background="new 0 0 350 350" xml:space="preserve">
<g>
	<path d="M211.167,231.058v-97.649v-28.933h-7.234v-3.617h3.617c2.001,0,3.617-1.621,3.617-3.617c0-1.997-1.616-3.617-3.617-3.617
		h-3.617v-3.617h3.617c2.001,0,3.617-1.62,3.617-3.617s-1.616-3.617-3.617-3.617h-3.617v-10.85h-90.416v10.85H109.9
		c-2,0-3.617,1.62-3.617,3.617s1.617,3.617,3.617,3.617h3.617v3.617H109.9c-2,0-3.617,1.62-3.617,3.617
		c0,1.996,1.617,3.617,3.617,3.617h3.617v3.617h-7.233v28.933v108.5h-21.7c-9.971,0-18.083,8.112-18.083,18.084
		c0,9.971,8.112,18.083,18.083,18.083h21.7h28.934h47.017h7.233H283.5v-47.018H211.167z M196.7,231.058v-90.416h7.232v90.416H196.7z
		 M120.75,100.858h3.617c2,0,3.617-1.621,3.617-3.617c0-1.997-1.617-3.617-3.617-3.617h-3.617v-3.617h3.617
		c2,0,3.617-1.62,3.617-3.617s-1.617-3.617-3.617-3.617h-3.617v-3.617h75.95v3.617h-3.617c-1.999,0-3.616,1.62-3.616,3.617
		s1.617,3.617,3.616,3.617h3.617v3.617h-3.617c-1.999,0-3.616,1.62-3.616,3.617c0,1.996,1.617,3.617,3.616,3.617h3.617v3.617h-75.95
		V100.858z M113.517,231.058h28.934v-7.232h-28.934v-7.233h28.934v-7.233h-28.934v-7.233h28.934v-7.233h-28.934v-7.233h28.934
		v-7.233h-28.934v-7.233h28.934v-7.234h-28.934v-7.233h28.934v-7.233h-28.934v-10.85h36.167v101.267h-14.466h-21.7V231.058z
		 M84.583,270.842c-5.981,0-10.85-4.868-10.85-10.85c0-5.982,4.868-10.851,10.85-10.851h21.7v21.7H84.583z M113.517,270.842v-21.7
		h21.7c5.981,0,10.85,4.868,10.85,10.851c0,5.981-4.869,10.85-10.85,10.85H113.517z M182.233,231.058v39.784h-32.644
		c2.296-3.03,3.71-6.764,3.71-10.85c0-4.087-1.414-7.819-3.71-10.851h7.328V133.408h-43.4v-21.7h90.416v21.7h-14.466v97.649H182.233
		z M276.267,270.842h-86.8v-32.55h3.616v7.233h7.234v-7.233h7.232v7.233h7.233v-7.233h7.233v7.233h7.233v-7.233h7.233v7.233h7.233
		v-7.233h7.233v7.233h7.233v-7.233h7.232v7.233h7.234v-7.233h3.616V270.842z"/>
	<path d="M138.833,93.625h-3.616c-2,0-3.617,1.62-3.617,3.617c0,1.996,1.617,3.617,3.617,3.617h3.616c2,0,3.617-1.621,3.617-3.617
		C142.45,95.245,140.833,93.625,138.833,93.625z"/>
	<path d="M138.833,82.775h-3.616c-2,0-3.617,1.62-3.617,3.617s1.617,3.617,3.617,3.617h3.616c2,0,3.617-1.62,3.617-3.617
		S140.833,82.775,138.833,82.775z"/>
	<path d="M153.3,93.625h-3.617c-2,0-3.616,1.62-3.616,3.617c0,1.996,1.617,3.617,3.616,3.617h3.617c2,0,3.617-1.621,3.617-3.617
		C156.917,95.245,155.3,93.625,153.3,93.625z"/>
	<path d="M153.3,82.775h-3.617c-2,0-3.616,1.62-3.616,3.617s1.617,3.617,3.616,3.617h3.617c2,0,3.617-1.62,3.617-3.617
		S155.3,82.775,153.3,82.775z"/>
	<path d="M167.767,93.625h-3.617c-2,0-3.617,1.62-3.617,3.617c0,1.996,1.617,3.617,3.617,3.617h3.617c2,0,3.617-1.621,3.617-3.617
		C171.383,95.245,169.767,93.625,167.767,93.625z"/>
	<path d="M167.767,82.775h-3.617c-2,0-3.617,1.62-3.617,3.617s1.617,3.617,3.617,3.617h3.617c2,0,3.617-1.62,3.617-3.617
		S169.767,82.775,167.767,82.775z"/>
	<path d="M182.233,93.625h-3.616c-2.001,0-3.617,1.62-3.617,3.617c0,1.996,1.616,3.617,3.617,3.617h3.616
		c2,0,3.616-1.621,3.616-3.617C185.85,95.245,184.233,93.625,182.233,93.625z"/>
	<path d="M182.233,82.775h-3.616c-2.001,0-3.617,1.62-3.617,3.617s1.616,3.617,3.617,3.617h3.616c2,0,3.616-1.62,3.616-3.617
		S184.233,82.775,182.233,82.775z"/>
</g>
</svg>
