<?xml version="1.0" encoding="utf-8"?>
<!-- Generator: Adobe Illustrator 16.0.0, SVG Export Plug-In . SVG Version: 6.00 Build 0)  -->
<!DOCTYPE svg PUBLIC "-//W3C//DTD SVG 1.1//EN" "http://www.w3.org/Graphics/SVG/1.1/DTD/svg11.dtd">
<svg version="1.1" id="Layer_1" xmlns="http://www.w3.org/2000/svg" xmlns:xlink="http://www.w3.org/1999/xlink" x="0px" y="0px"
	 width="350px" height="350px" viewBox="0 0 350 350" enable-background="new 0 0 350 350" xml:space="preserve">
<g>
	<g>
		<path fill="#FFFFFF" d="M267.135,256.734c0,7.211-41.254,13.059-92.136,13.059s-92.134-5.848-92.134-13.059
			s41.252-13.059,92.134-13.059S267.135,249.523,267.135,256.734z"/>
		<ellipse fill="#FEFEFE" cx="175" cy="256.734" rx="91.572" ry="12.947"/>
		<path fill="#FEFEFE" d="M266.009,256.734c0,7.088-40.75,12.837-91.01,12.837c-50.26,0-91.008-5.749-91.008-12.837
			c0-7.089,40.748-12.838,91.008-12.838C225.259,243.896,266.009,249.646,266.009,256.734z"/>
		<path fill="#FDFDFD" d="M265.446,256.734c0,7.027-40.498,12.727-90.447,12.727s-90.445-5.699-90.445-12.727
			s40.496-12.727,90.445-12.727S265.446,249.707,265.446,256.734z"/>
		<path fill="#FDFDFD" d="M264.883,256.734c0,6.967-40.246,12.615-89.884,12.615c-49.639,0-89.882-5.648-89.882-12.615
			c0-6.966,40.244-12.615,89.882-12.615C224.637,244.119,264.883,249.769,264.883,256.734z"/>
		<path fill="#FCFCFC" d="M264.32,256.734c0,6.905-39.994,12.505-89.322,12.505c-49.327,0-89.319-5.6-89.319-12.505
			s39.992-12.505,89.319-12.505C224.326,244.229,264.32,249.829,264.32,256.734z"/>
		<path fill="#FBFBFB" d="M263.758,256.734c0,6.844-39.742,12.395-88.759,12.395s-88.757-5.551-88.757-12.395
			s39.74-12.395,88.757-12.395S263.758,249.891,263.758,256.734z"/>
		<ellipse fill="#FBFBFB" cx="175" cy="256.734" rx="88.195" ry="12.283"/>
		<path fill="#FAFAFA" d="M262.632,256.734c0,6.722-39.238,12.173-87.633,12.173c-48.395,0-87.631-5.451-87.631-12.173
			s39.236-12.173,87.631-12.173C223.394,244.562,262.632,250.013,262.632,256.734z"/>
		<ellipse fill="#FAFAFA" cx="175" cy="256.734" rx="87.069" ry="12.062"/>
		<ellipse fill="#F9F9F9" cx="175" cy="256.734" rx="86.506" ry="11.951"/>
		<path fill="#F9F9F9" d="M260.943,256.734c0,6.539-38.482,11.84-85.944,11.84c-47.462,0-85.942-5.301-85.942-11.84
			c0-6.538,38.48-11.841,85.942-11.841C222.461,244.894,260.943,250.196,260.943,256.734z"/>
		<path fill="#F8F8F8" d="M260.38,256.734c0,6.478-38.229,11.73-85.381,11.73s-85.38-5.253-85.38-11.73
			c0-6.477,38.229-11.729,85.38-11.729S260.38,250.258,260.38,256.734z"/>
		<path fill="#F7F7F7" d="M259.817,256.734c0,6.416-37.978,11.619-84.818,11.619c-46.84,0-84.816-5.203-84.816-11.619
			s37.976-11.619,84.816-11.619C221.84,245.115,259.817,250.318,259.817,256.734z"/>
		<path fill="#F7F7F7" d="M259.255,256.734c0,6.355-37.727,11.509-84.256,11.509s-84.254-5.153-84.254-11.509
			c0-6.354,37.725-11.509,84.254-11.509S259.255,250.38,259.255,256.734z"/>
		<path fill="#F6F6F6" d="M258.692,256.734c0,6.294-37.475,11.397-83.693,11.397s-83.691-5.104-83.691-11.397
			s37.472-11.397,83.691-11.397S258.692,250.44,258.692,256.734z"/>
		<path fill="#F6F6F6" d="M258.129,256.734c0,6.232-37.222,11.287-83.13,11.287c-45.908,0-83.128-5.055-83.128-11.287
			s37.221-11.287,83.128-11.287C220.907,245.447,258.129,250.502,258.129,256.734z"/>
		<path fill="#F5F5F5" d="M257.566,256.734c0,6.172-36.971,11.176-82.567,11.176s-82.565-5.004-82.565-11.176
			s36.969-11.176,82.565-11.176S257.566,250.563,257.566,256.734z"/>
		<path fill="#F4F4F4" d="M257.003,256.734c0,6.11-36.718,11.065-82.004,11.065s-82.003-4.955-82.003-11.065
			s36.717-11.065,82.003-11.065S257.003,250.624,257.003,256.734z"/>
		<path fill="#F4F4F4" d="M256.44,256.734c0,6.05-36.466,10.955-81.441,10.955c-44.975,0-81.439-4.905-81.439-10.955
			c0-6.049,36.464-10.955,81.439-10.955C219.975,245.779,256.44,250.686,256.44,256.734z"/>
		<path fill="#F3F3F3" d="M255.878,256.734c0,5.988-36.215,10.844-80.879,10.844c-44.665,0-80.877-4.855-80.877-10.844
			s36.212-10.844,80.877-10.844C219.663,245.891,255.878,250.746,255.878,256.734z"/>
		<path fill="#F3F3F3" d="M255.314,256.734c0,5.928-35.962,10.733-80.315,10.733s-80.314-4.806-80.314-10.733
			c0-5.927,35.96-10.733,80.314-10.733S255.314,250.808,255.314,256.734z"/>
		<path fill="#F2F2F2" d="M254.752,256.734c0,5.866-35.711,10.623-79.753,10.623c-44.043,0-79.751-4.757-79.751-10.623
			s35.708-10.622,79.751-10.622C219.041,246.112,254.752,250.868,254.752,256.734z"/>
		<path fill="#F2F2F2" d="M254.188,256.734c0,5.805-35.458,10.512-79.189,10.512c-43.732,0-79.188-4.707-79.188-10.512
			s35.457-10.512,79.188-10.512C218.73,246.223,254.188,250.93,254.188,256.734z"/>
		<path fill="#F1F1F1" d="M253.626,256.734c0,5.744-35.206,10.401-78.627,10.401s-78.625-4.657-78.625-10.401
			c0-5.743,35.205-10.401,78.625-10.401S253.626,250.991,253.626,256.734z"/>
		<path fill="#F0F0F0" d="M253.063,256.734c0,5.683-34.954,10.29-78.064,10.29s-78.063-4.607-78.063-10.29
			c0-5.682,34.952-10.29,78.063-10.29S253.063,251.053,253.063,256.734z"/>
		<path fill="#F0F0F0" d="M252.5,256.734c0,5.621-34.702,10.18-77.501,10.18c-42.799,0-77.5-4.559-77.5-10.18
			s34.701-10.18,77.5-10.18C217.798,246.555,252.5,251.113,252.5,256.734z"/>
		<path fill="#EFEFEF" d="M251.938,256.734c0,5.561-34.45,10.069-76.938,10.069s-76.937-4.509-76.937-10.069
			s34.448-10.069,76.937-10.069S251.938,251.174,251.938,256.734z"/>
		<path fill="#EFEFEF" d="M251.375,256.734c0,5.5-34.198,9.958-76.376,9.958s-76.374-4.458-76.374-9.958
			c0-5.499,34.196-9.958,76.374-9.958S251.375,251.235,251.375,256.734z"/>
		<path fill="#EEEEEE" d="M250.812,256.734c0,5.438-33.946,9.848-75.813,9.848c-41.867,0-75.812-4.409-75.812-9.848
			c0-5.438,33.945-9.848,75.812-9.848C216.865,246.887,250.812,251.297,250.812,256.734z"/>
		<path fill="#EDEDED" d="M250.249,256.734c0,5.377-33.694,9.736-75.25,9.736s-75.249-4.359-75.249-9.736s33.693-9.736,75.249-9.736
			S250.249,251.357,250.249,256.734z"/>
		<path fill="#EDEDED" d="M249.686,256.734c0,5.316-33.441,9.626-74.687,9.626s-74.686-4.31-74.686-9.626
			c0-5.315,33.44-9.626,74.686-9.626S249.686,251.419,249.686,256.734z"/>
		<path fill="#ECECEC" d="M249.123,256.734c0,5.255-33.19,9.516-74.124,9.516c-40.935,0-74.122-4.261-74.122-9.516
			c0-5.254,33.188-9.516,74.122-9.516C215.933,247.219,249.123,251.48,249.123,256.734z"/>
		<path fill="#ECECEC" d="M248.561,256.734c0,5.193-32.938,9.404-73.562,9.404c-40.624,0-73.56-4.211-73.56-9.404
			s32.936-9.404,73.56-9.404C215.622,247.33,248.561,251.541,248.561,256.734z"/>
		<path fill="#EBEBEB" d="M247.997,256.734c0,5.133-32.686,9.294-72.998,9.294s-72.997-4.161-72.997-9.294
			c0-5.132,32.685-9.294,72.997-9.294S247.997,251.603,247.997,256.734z"/>
		<path fill="#EBEBEB" d="M247.435,256.734c0,5.071-32.435,9.184-72.436,9.184c-40.002,0-72.434-4.112-72.434-9.184
			c0-5.07,32.432-9.184,72.434-9.184C215,247.551,247.435,251.664,247.435,256.734z"/>
		<path fill="#EAEAEA" d="M246.871,256.734c0,5.011-32.182,9.072-71.872,9.072c-39.691,0-71.871-4.062-71.871-9.072
			c0-5.01,32.18-9.072,71.871-9.072C214.689,247.662,246.871,251.725,246.871,256.734z"/>
		<path fill="#E9E9E9" d="M246.309,256.734c0,4.949-31.931,8.962-71.31,8.962c-39.38,0-71.309-4.013-71.309-8.962
			s31.929-8.961,71.309-8.961C214.378,247.773,246.309,251.785,246.309,256.734z"/>
		<path fill="#E9E9E9" d="M245.746,256.734c0,4.889-31.679,8.851-70.747,8.851s-70.745-3.962-70.745-8.851
			c0-4.887,31.677-8.852,70.745-8.852S245.746,251.848,245.746,256.734z"/>
		<path fill="#E8E8E8" d="M245.184,256.734c0,4.827-31.427,8.74-70.185,8.74s-70.183-3.913-70.183-8.74
			c0-4.826,31.425-8.74,70.183-8.74S245.184,251.908,245.184,256.734z"/>
		<path fill="#E8E8E8" d="M244.62,256.734c0,4.766-31.175,8.63-69.621,8.63c-38.447,0-69.62-3.864-69.62-8.63
			s31.172-8.629,69.62-8.629C213.445,248.105,244.62,251.969,244.62,256.734z"/>
		<path fill="#E7E7E7" d="M244.058,256.734c0,4.705-30.923,8.519-69.059,8.519c-38.136,0-69.057-3.813-69.057-8.519
			c0-4.704,30.921-8.519,69.057-8.519C213.135,248.216,244.058,252.03,244.058,256.734z"/>
		<path fill="#E6E6E6" d="M243.494,256.734c0,4.644-30.67,8.408-68.495,8.408s-68.494-3.765-68.494-8.408
			c0-4.643,30.669-8.408,68.494-8.408S243.494,252.092,243.494,256.734z"/>
		<path fill="#E6E6E6" d="M242.932,256.734c0,4.583-30.418,8.297-67.933,8.297s-67.932-3.714-67.932-8.297
			c0-4.582,30.417-8.297,67.932-8.297S242.932,252.152,242.932,256.734z"/>
		<path fill="#E5E5E5" d="M242.369,256.734c0,4.521-30.167,8.187-67.37,8.187c-37.204,0-67.368-3.665-67.368-8.187
			c0-4.521,30.165-8.187,67.368-8.187C212.202,248.548,242.369,252.214,242.369,256.734z"/>
		<path fill="#E5E5E5" d="M241.806,256.734c0,4.46-29.914,8.076-66.807,8.076s-66.806-3.616-66.806-8.076
			c0-4.459,29.913-8.075,66.806-8.075S241.806,252.275,241.806,256.734z"/>
		<path fill="#E4E4E4" d="M241.243,256.734c0,4.399-29.663,7.965-66.244,7.965c-36.582,0-66.243-3.565-66.243-7.965
			c0-4.398,29.661-7.965,66.243-7.965C211.58,248.77,241.243,252.336,241.243,256.734z"/>
		<path fill="#E4E4E4" d="M240.68,256.734c0,4.338-29.41,7.854-65.681,7.854c-36.271,0-65.68-3.516-65.68-7.854
			c0-4.337,29.409-7.854,65.68-7.854C211.27,248.88,240.68,252.397,240.68,256.734z"/>
		<path fill="#E3E3E3" d="M240.117,256.734c0,4.277-29.158,7.744-65.118,7.744s-65.117-3.467-65.117-7.744
			c0-4.275,29.157-7.743,65.117-7.743S240.117,252.459,240.117,256.734z"/>
		<path fill="#E2E2E2" d="M239.555,256.734c0,4.216-28.906,7.633-64.556,7.633s-64.555-3.417-64.555-7.633
			c0-4.215,28.905-7.633,64.555-7.633S239.555,252.52,239.555,256.734z"/>
		<path fill="#E2E2E2" d="M238.991,256.734c0,4.154-28.654,7.521-63.992,7.521c-35.339,0-63.991-3.367-63.991-7.521
			s28.652-7.522,63.991-7.522C210.337,249.212,238.991,252.58,238.991,256.734z"/>
		<path fill="#E1E1E1" d="M238.429,256.734c0,4.094-28.402,7.412-63.43,7.412c-35.028,0-63.429-3.318-63.429-7.412
			c0-4.093,28.401-7.411,63.429-7.411C210.026,249.323,238.429,252.642,238.429,256.734z"/>
		<path fill="#E1E1E1" d="M237.865,256.734c0,4.032-28.15,7.301-62.866,7.301c-34.717,0-62.866-3.269-62.866-7.301
			c0-4.031,28.149-7.301,62.866-7.301C209.715,249.434,237.865,252.703,237.865,256.734z"/>
		<path fill="#E0E0E0" d="M237.303,256.734c0,3.971-27.898,7.19-62.304,7.19c-34.406,0-62.303-3.22-62.303-7.19
			s27.897-7.189,62.303-7.189C209.404,249.545,237.303,252.764,237.303,256.734z"/>
		<path fill="#DFDFDF" d="M236.74,256.734c0,3.91-27.646,7.079-61.741,7.079c-34.095,0-61.74-3.169-61.74-7.079
			c0-3.909,27.645-7.079,61.74-7.079C209.094,249.655,236.74,252.825,236.74,256.734z"/>
		<path fill="#DFDFDF" d="M236.177,256.734c0,3.849-27.395,6.969-61.178,6.969c-33.784,0-61.177-3.12-61.177-6.969
			c0-3.848,27.393-6.969,61.177-6.969C208.782,249.766,236.177,252.887,236.177,256.734z"/>
		<path fill="#DEDEDE" d="M235.614,256.734c0,3.788-27.143,6.857-60.615,6.857c-33.474,0-60.614-3.069-60.614-6.857
			c0-3.787,27.141-6.857,60.614-6.857C208.472,249.877,235.614,252.947,235.614,256.734z"/>
		<path fill="#DEDEDE" d="M235.051,256.734c0,3.727-26.89,6.747-60.052,6.747s-60.052-3.021-60.052-6.747
			c0-3.726,26.89-6.747,60.052-6.747S235.051,253.009,235.051,256.734z"/>
		<path fill="#DDDDDD" d="M234.488,256.734c0,3.666-26.639,6.637-59.489,6.637c-32.852,0-59.489-2.971-59.489-6.637
			c0-3.664,26.637-6.637,59.489-6.637C207.85,250.098,234.488,253.07,234.488,256.734z"/>
		<path fill="#DDDDDD" d="M233.926,256.734c0,3.604-26.387,6.525-58.927,6.525c-32.541,0-58.926-2.921-58.926-6.525
			c0-3.604,26.385-6.525,58.926-6.525C207.539,250.209,233.926,253.131,233.926,256.734z"/>
		<path fill="#DCDCDC" d="M233.362,256.734c0,3.543-26.134,6.415-58.363,6.415s-58.363-2.872-58.363-6.415
			c0-3.542,26.133-6.415,58.363-6.415S233.362,253.192,233.362,256.734z"/>
		<path fill="#DBDBDB" d="M232.8,256.734c0,3.482-25.882,6.304-57.801,6.304s-57.8-2.821-57.8-6.304c0-3.48,25.881-6.305,57.8-6.305
			S232.8,253.254,232.8,256.734z"/>
		<path fill="#DBDBDB" d="M232.237,256.734c0,3.421-25.631,6.193-57.238,6.193c-31.608,0-57.237-2.772-57.237-6.193
			c0-3.42,25.629-6.193,57.237-6.193C206.606,250.541,232.237,253.314,232.237,256.734z"/>
		<path fill="#DADADA" d="M231.674,256.734c0,3.359-25.378,6.083-56.675,6.083s-56.675-2.724-56.675-6.083
			c0-3.358,25.378-6.083,56.675-6.083S231.674,253.376,231.674,256.734z"/>
		<path fill="#DADADA" d="M231.111,256.734c0,3.299-25.127,5.973-56.112,5.973c-30.986,0-56.111-2.674-56.111-5.973
			c0-3.298,25.125-5.973,56.111-5.973C205.984,250.762,231.111,253.437,231.111,256.734z"/>
		<path fill="#D9D9D9" d="M230.549,256.734c0,3.237-24.875,5.861-55.55,5.861c-30.676,0-55.549-2.624-55.549-5.861
			c0-3.236,24.873-5.861,55.549-5.861C205.674,250.873,230.549,253.498,230.549,256.734z"/>
		<path fill="#D8D8D8" d="M229.985,256.734c0,3.177-24.622,5.75-54.986,5.75s-54.986-2.573-54.986-5.75
			c0-3.176,24.622-5.751,54.986-5.751S229.985,253.559,229.985,256.734z"/>
		<path fill="#D8D8D8" d="M229.423,256.734c0,3.115-24.37,5.64-54.424,5.64s-54.423-2.524-54.423-5.64
			c0-3.114,24.369-5.64,54.423-5.64S229.423,253.62,229.423,256.734z"/>
		<path fill="#D7D7D7" d="M228.859,256.734c0,3.055-24.118,5.529-53.86,5.529c-29.743,0-53.86-2.475-53.86-5.529
			c0-3.053,24.117-5.529,53.86-5.529C204.741,251.205,228.859,253.682,228.859,256.734z"/>
		<path fill="#D7D7D7" d="M228.297,256.734c0,2.993-23.867,5.418-53.298,5.418c-29.433,0-53.297-2.425-53.297-5.418
			c0-2.992,23.864-5.418,53.297-5.418C204.43,251.316,228.297,253.742,228.297,256.734z"/>
		<path fill="#D6D6D6" d="M227.734,256.734c0,2.932-23.615,5.308-52.735,5.308c-29.121,0-52.734-2.376-52.734-5.308
			c0-2.931,23.613-5.308,52.734-5.308C204.119,251.427,227.734,253.804,227.734,256.734z"/>
		<path fill="#D6D6D6" d="M227.172,256.734c0,2.871-23.363,5.197-52.173,5.197c-28.81,0-52.172-2.326-52.172-5.197
			c0-2.869,23.362-5.196,52.172-5.196C203.809,251.538,227.172,253.865,227.172,256.734z"/>
		<path fill="#D5D5D5" d="M226.608,256.734c0,2.81-23.11,5.086-51.609,5.086c-28.5,0-51.609-2.276-51.609-5.086
			c0-2.809,23.109-5.086,51.609-5.086C203.498,251.648,226.608,253.926,226.608,256.734z"/>
		<path fill="#D4D4D4" d="M226.045,256.734c0,2.748-22.858,4.976-51.046,4.976c-28.188,0-51.046-2.228-51.046-4.976
			c0-2.747,22.857-4.975,51.046-4.975C203.187,251.76,226.045,253.987,226.045,256.734z"/>
		<path fill="#D4D4D4" d="M225.482,256.734c0,2.688-22.606,4.865-50.483,4.865c-27.878,0-50.483-2.178-50.483-4.865
			c0-2.686,22.605-4.864,50.483-4.864C202.876,251.87,225.482,254.049,225.482,256.734z"/>
		<path fill="#D3D3D3" d="M224.92,256.734c0,2.626-22.354,4.754-49.921,4.754c-27.567,0-49.92-2.128-49.92-4.754
			c0-2.625,22.353-4.754,49.92-4.754C202.565,251.98,224.92,254.109,224.92,256.734z"/>
		<path fill="#D3D3D3" d="M224.357,256.734c0,2.565-22.103,4.644-49.358,4.644s-49.357-2.078-49.357-4.644
			c0-2.563,22.102-4.643,49.357-4.643S224.357,254.171,224.357,256.734z"/>
		<path fill="#D2D2D2" d="M223.794,256.734c0,2.504-21.851,4.532-48.795,4.532c-26.945,0-48.794-2.028-48.794-4.532
			c0-2.503,21.849-4.532,48.794-4.532C201.943,252.202,223.794,254.231,223.794,256.734z"/>
		<path fill="#D1D1D1" d="M223.23,256.734c0,2.443-21.598,4.422-48.231,4.422c-26.634,0-48.232-1.979-48.232-4.422
			c0-2.441,21.598-4.422,48.232-4.422C201.633,252.313,223.23,254.293,223.23,256.734z"/>
		<path fill="#D1D1D1" d="M222.668,256.734c0,2.382-21.347,4.311-47.669,4.311c-26.324,0-47.668-1.929-47.668-4.311
			c0-2.381,21.345-4.311,47.668-4.311C201.321,252.424,222.668,254.354,222.668,256.734z"/>
		<path fill="#D0D0D0" d="M222.105,256.734c0,2.32-21.095,4.2-47.106,4.2c-26.013,0-47.106-1.88-47.106-4.2
			c0-2.319,21.093-4.2,47.106-4.2C201.011,252.534,222.105,254.415,222.105,256.734z"/>
		<path fill="#D0D0D0" d="M221.543,256.734c0,2.26-20.843,4.09-46.544,4.09c-25.702,0-46.543-1.83-46.543-4.09
			c0-2.258,20.841-4.09,46.543-4.09C200.7,252.645,221.543,254.477,221.543,256.734z"/>
		<path fill="#CFCFCF" d="M220.979,256.734c0,2.198-20.591,3.979-45.98,3.979c-25.391,0-45.98-1.78-45.98-3.979
			c0-2.196,20.589-3.979,45.98-3.979C200.389,252.756,220.979,254.538,220.979,256.734z"/>
		<path fill="#CFCFCF" d="M220.417,256.734c0,2.138-20.339,3.868-45.418,3.868c-25.08,0-45.417-1.73-45.417-3.868
			c0-2.136,20.337-3.868,45.417-3.868C200.078,252.866,220.417,254.599,220.417,256.734z"/>
		<path fill="#CECECE" d="M219.854,256.734c0,2.076-20.086,3.757-44.854,3.757c-24.769,0-44.854-1.681-44.854-3.757
			c0-2.074,20.085-3.758,44.854-3.758C199.768,252.977,219.854,254.66,219.854,256.734z"/>
		<path fill="#CDCDCD" d="M219.291,256.734c0,2.015-19.834,3.646-44.292,3.646c-24.458,0-44.292-1.632-44.292-3.646
			c0-2.014,19.833-3.646,44.292-3.646C199.457,253.088,219.291,254.721,219.291,256.734z"/>
		<path fill="#CDCDCD" d="M218.729,256.734c0,1.954-19.583,3.536-43.729,3.536c-24.147,0-43.729-1.582-43.729-3.536
			c0-1.952,19.582-3.536,43.729-3.536C199.146,253.198,218.729,254.782,218.729,256.734z"/>
		<path fill="#CCCCCC" d="M218.165,256.734c0,1.893-19.33,3.426-43.166,3.426c-23.837,0-43.166-1.533-43.166-3.426
			c0-1.891,19.329-3.426,43.166-3.426C198.835,253.309,218.165,254.844,218.165,256.734z"/>
		<path fill="#CCCCCC" d="M217.603,256.734c0,1.832-19.079,3.314-42.604,3.314c-23.525,0-42.604-1.482-42.604-3.314
			c0-1.83,19.078-3.314,42.604-3.314C198.523,253.42,217.603,254.904,217.603,256.734z"/>
		<path fill="#CBCBCB" d="M217.04,256.734c0,1.771-18.827,3.204-42.041,3.204c-23.215,0-42.04-1.434-42.04-3.204
			c0-1.769,18.825-3.204,42.04-3.204C198.213,253.53,217.04,254.966,217.04,256.734z"/>
		<path fill="#CACACA" d="M216.477,256.734c0,1.71-18.574,3.093-41.478,3.093c-22.904,0-41.478-1.383-41.478-3.093
			c0-1.708,18.574-3.094,41.478-3.094C197.902,253.641,216.477,255.026,216.477,256.734z"/>
		<path fill="#CACACA" d="M215.914,256.734c0,1.648-18.323,2.982-40.915,2.982c-22.593,0-40.915-1.334-40.915-2.982
			c0-1.646,18.322-2.982,40.915-2.982C197.591,253.752,215.914,255.088,215.914,256.734z"/>
		<path fill="#C9C9C9" d="M215.351,256.734c0,1.587-18.07,2.871-40.352,2.871c-22.282,0-40.352-1.284-40.352-2.871
			c0-1.586,18.07-2.871,40.352-2.871C197.28,253.863,215.351,255.148,215.351,256.734z"/>
		<path fill="#C9C9C9" d="M214.788,256.734c0,1.526-17.818,2.761-39.789,2.761c-21.971,0-39.789-1.234-39.789-2.761
			c0-1.524,17.818-2.761,39.789-2.761C196.97,253.974,214.788,255.21,214.788,256.734z"/>
		<path fill="#C8C8C8" d="M214.226,256.734c0,1.465-17.566,2.65-39.227,2.65s-39.226-1.186-39.226-2.65
			c0-1.463,17.566-2.65,39.226-2.65S214.226,255.271,214.226,256.734z"/>
		<path fill="#C8C8C8" d="M213.662,256.734c0,1.403-17.314,2.539-38.663,2.539c-21.35,0-38.663-1.136-38.663-2.539
			c0-1.401,17.313-2.539,38.663-2.539C196.348,254.195,213.662,255.333,213.662,256.734z"/>
		<path fill="#C7C7C7" d="M213.1,256.734c0,1.343-17.063,2.429-38.101,2.429c-21.039,0-38.101-1.086-38.101-2.429
			c0-1.341,17.062-2.429,38.101-2.429C196.037,254.306,213.1,255.394,213.1,256.734z"/>
		<path fill="#C6C6C6" d="M212.536,256.734c0,1.282-16.811,2.318-37.537,2.318c-20.728,0-37.538-1.036-37.538-2.318
			c0-1.279,16.81-2.317,37.538-2.317C195.726,254.417,212.536,255.455,212.536,256.734z"/>
		<path fill="#C6C6C6" d="M211.974,256.734c0,1.221-16.559,2.207-36.975,2.207c-20.417,0-36.975-0.986-36.975-2.207
			c0-1.219,16.558-2.207,36.975-2.207C195.415,254.527,211.974,255.516,211.974,256.734z"/>
		<path fill="#C5C5C5" d="M211.411,256.734c0,1.159-16.308,2.097-36.412,2.097c-20.106,0-36.412-0.938-36.412-2.097
			c0-1.157,16.306-2.097,36.412-2.097C195.104,254.638,211.411,255.577,211.411,256.734z"/>
		<path fill="#C5C5C5" d="M210.848,256.734c0,1.099-16.055,1.985-35.849,1.985c-19.795,0-35.849-0.887-35.849-1.985
			c0-1.097,16.054-1.985,35.849-1.985C194.793,254.749,210.848,255.638,210.848,256.734z"/>
		<path fill="#C4C4C4" d="M210.285,256.734c0,1.037-15.803,1.875-35.286,1.875c-19.484,0-35.286-0.838-35.286-1.875
			c0-1.035,15.802-1.875,35.286-1.875C194.482,254.859,210.285,255.699,210.285,256.734z"/>
	</g>
	<g>
		<g>
			<path fill="#D92E4D" d="M196.252,161.724v58.987c0,14.084,11.465,25.545,25.551,25.545c14.082,0,25.545-11.461,25.545-25.545
				v-58.843C228.867,158.046,210.021,159.486,196.252,161.724z"/>
			<path fill="#FFFFFF" d="M221.803,82.598c-14.086,0-25.551,11.463-25.551,25.548v55.972c13.77-2.241,32.615-3.672,51.096,0.144
				v-56.116C247.348,94.062,235.885,82.598,221.803,82.598z"/>
			<path fill="#FF3B5E" d="M221.803,80.208c-14.086,0-25.551,11.46-25.551,25.548v55.969c13.77-2.238,32.615-3.678,51.096,0.144
				v-56.113C247.348,91.668,235.885,80.208,221.803,80.208z"/>
		</g>
		<g>
			<path fill="#1DA7DE" d="M120.441,159.294l27.614-52.122c6.596-12.448,22.084-17.207,34.534-10.612
				c12.447,6.593,17.205,22.083,10.611,34.535l-27.544,51.995C147.537,177.811,131.553,167.718,120.441,159.294z"/>
			<path fill="#FFFFFF" d="M105.975,241.172c-12.448-6.594-17.207-22.084-10.614-34.531l26.199-49.457
				c11.114,8.418,27.099,18.511,45.221,23.789l-26.271,49.584C133.916,243,118.426,247.768,105.975,241.172z"/>
			<path fill="#33C5FF" d="M104.854,243.287c-12.448-6.592-17.211-22.082-10.615-34.531l26.202-49.461
				c11.111,8.423,27.096,18.516,45.216,23.795l-26.269,49.584C132.793,245.121,117.302,249.887,104.854,243.287z"/>
		</g>
		<path fill="#FFFFFF" d="M153.154,237.127c-18.564-14.574-21.81-41.531-7.234-60.096c14.567-18.558,41.523-21.809,60.088-7.239
			c18.564,14.575,21.809,41.532,7.234,60.096C198.672,248.447,171.715,251.697,153.154,237.127z"/>
		<g>
			<path fill="#D1E4EB" d="M148.514,179.07c-13.105,16.697-10.62,40.656,5.331,54.344l48.718-62.065
				C185.482,159.1,161.619,162.373,148.514,179.07z"/>
			<path fill="#B6CCD4" d="M205.498,173.659l-48.711,62.058c17.072,12.084,40.803,8.764,53.861-7.873
				C223.707,211.211,221.293,187.371,205.498,173.659z"/>
		</g>
	</g>
</g>
</svg>
