<?xml version="1.0" encoding="utf-8"?>
<!-- Generator: Adobe Illustrator 16.0.0, SVG Export Plug-In . SVG Version: 6.00 Build 0)  -->
<!DOCTYPE svg PUBLIC "-//W3C//DTD SVG 1.1//EN" "http://www.w3.org/Graphics/SVG/1.1/DTD/svg11.dtd">
<svg version="1.1" id="Capa_1" xmlns="http://www.w3.org/2000/svg" xmlns:xlink="http://www.w3.org/1999/xlink" x="0px" y="0px"
	 width="350px" height="350px" viewBox="0 0 350 350" enable-background="new 0 0 350 350" xml:space="preserve">
<path d="M251.721,135.465l-9.984-15.976c-2.04-3.261-3.117-7.022-3.117-10.872v-9.165c2.198,0,3.976-1.781,3.976-3.976V59.69
	c0-2.195-1.777-3.976-3.976-3.976H111.381c-2.199,0-3.976,1.781-3.976,3.976v35.786c0,2.195,1.777,3.976,3.976,3.976v9.165
	c0,3.849-1.077,7.611-3.117,10.875l-9.984,15.976c-4.433,7.089-6.779,15.261-6.779,23.626v1.161v109.011v3.403
	c0,11.921,9.694,21.615,21.615,21.615H236.89c11.916,0,21.61-9.694,21.61-21.615v-3.403V160.256v-1.161
	C258.5,150.729,256.154,142.558,251.721,135.465z M194.881,266.452V163.071h55.667v15.905h-39.762v7.952h39.762v7.952h-39.762v7.953
	h39.762v7.952h-39.762v7.951h39.762v7.954h-39.762v7.951h39.762v7.952h-39.762v7.953h39.762v15.904H194.881z M234.643,91.5h-7.951
	V63.667h7.951V91.5z M210.786,91.5V63.667h7.951V91.5H210.786z M194.881,91.5V63.667h7.953V91.5H194.881z M178.977,91.5V63.667
	h7.952V91.5H178.977z M163.071,91.5V63.667h7.953V91.5H163.071z M147.167,91.5V63.667h7.953V91.5H147.167z M131.262,91.5V63.667
	h7.952V91.5H131.262z M115.357,63.667h7.953V91.5h-7.953V63.667z M119.333,163.071v103.381H99.452V163.071H119.333z
	 M236.886,286.334H113.115c-6.938,0-12.625-5.222-13.483-11.929h27.654V155.119H99.731c0.596-5.463,2.354-10.744,5.288-15.439
	l9.984-15.977c2.835-4.525,4.33-9.746,4.33-15.086v-9.165h111.333v9.165c0,5.344,1.495,10.561,4.331,15.086l9.983,15.977l0,0
	c2.935,4.696,4.692,9.972,5.289,15.436h-63.341v119.286h63.443C249.51,281.112,243.827,286.334,236.886,286.334z"/>
</svg>
