<?xml version="1.0" encoding="utf-8"?>
<!-- Generator: Adobe Illustrator 16.0.0, SVG Export Plug-In . SVG Version: 6.00 Build 0)  -->
<!DOCTYPE svg PUBLIC "-//W3C//DTD SVG 1.1//EN" "http://www.w3.org/Graphics/SVG/1.1/DTD/svg11.dtd">
<svg version="1.1" id="Capa_1" xmlns="http://www.w3.org/2000/svg" xmlns:xlink="http://www.w3.org/1999/xlink" x="0px" y="0px"
	 width="350px" height="350px" viewBox="0 0 350 350" enable-background="new 0 0 350 350" xml:space="preserve">
<path d="M281.466,51.5H111.121v59.621h8.518v29.457v82.216c-3.59-0.587-7.291-0.975-11.149-0.94
	c-21.587,0.299-38.532,10.787-39.835,24.218l-0.12,0.047v27.38c0.064,4.965,2.278,9.718,6.414,13.742
	c7.27,7.082,19.662,11.26,33.285,11.26c0.302,0,0.613,0,0.92-0.004c8.117-0.111,15.578-1.665,21.842-4.255h129.176
	c6.806,0,12.776-5.604,12.776-11.996v-19.058V146.433v-35.313h8.518V51.5z M243.138,102.604V60.017h8.518v42.586H243.138z
	 M140.931,102.604V60.017h8.517v42.586H140.931z M157.966,60.017h8.517v42.586h-8.517V60.017z M175,60.017h8.517v42.586H175V60.017z
	 M192.034,60.017h8.518v42.586h-8.518V60.017z M209.068,60.017h8.518v42.586h-8.518V60.017z M226.104,60.017h8.517v42.586h-8.517
	V60.017z M119.638,60.017h12.776v42.586h-12.776V60.017z M117.73,263.613c-0.86,0.149-1.733,0.285-2.619,0.396
	c-0.358,0.043-0.724,0.067-1.086,0.105c-0.63,0.064-1.256,0.137-1.891,0.18c-1.022,0.067-2.053,0.114-3.1,0.128
	c-2.108,0.029-4.173-0.073-6.192-0.269c-0.162-0.018-0.333-0.021-0.49-0.039c-1.831-0.191-3.599-0.497-5.327-0.863l29.87-29.871
	c0.081,0.031,0.17,0.052,0.247,0.082c0.328,0.123,0.626,0.268,0.945,0.396c0.307,0.128,0.579,0.277,0.877,0.409
	c0.788,0.353,1.584,0.693,2.316,1.09c0.2,0.106,0.392,0.213,0.584,0.323c1.085,0.618,2.112,1.273,3.023,1.977
	c0.042,0.034,0.094,0.063,0.136,0.098c1.018,0.797,1.92,1.636,2.687,2.521l0.336,0.389c0.366,0.455,0.703,0.916,0.988,1.388
	c0.124,0.2,0.247,0.404,0.362,0.613c0.272,0.511,0.485,1.026,0.665,1.55c0.063,0.188,0.148,0.363,0.2,0.555
	c0.188,0.677,0.293,1.366,0.311,2.057c0,0.008,0.004,0.017,0.004,0.03l-0.115,1.103c-0.758,7.192-10.195,13.419-22.495,15.625
	C117.888,263.592,117.811,263.601,117.73,263.613z M136.672,228.569c-0.068-0.038-0.145-0.077-0.213-0.115
	c-0.085-0.047-0.153-0.103-0.239-0.153c-0.221-0.123-0.481-0.208-0.703-0.332c-1.358-0.737-2.806-1.419-4.339-2.04
	c-0.656-0.269-1.312-0.523-1.989-0.767c-0.353-0.127-0.673-0.281-1.035-0.4v-75.667h8.517V228.569z M108.604,230.366
	c0.272-0.004,0.541-0.004,0.813-0.004c2.7,0,5.302,0.251,7.845,0.613l-29.235,29.235c-0.788-0.371-1.64-0.689-2.368-1.107
	c-1.542-0.882-3.581-2.257-5.293-4.063c-0.064-0.068-0.141-0.133-0.2-0.204c-0.137-0.149-0.251-0.32-0.383-0.473
	c-1.482-1.798-2.415-3.757-2.615-5.818l-0.042-1.545C77.861,238.126,91.906,230.597,108.604,230.366z M109.038,289.979
	c-11.592,0.217-22.388-3.228-28.145-8.841c-2.513-2.448-3.807-5.055-3.841-7.733v-9.872c0.17,0.137,0.366,0.256,0.537,0.388
	c0.545,0.418,1.112,0.826,1.703,1.223c0.516,0.349,1.043,0.681,1.593,1.013c0.188,0.111,0.35,0.234,0.537,0.341
	c0.115,0.069,0.255,0.111,0.37,0.175c3.445,1.946,7.427,3.496,11.839,4.565c0.094,0.021,0.188,0.051,0.281,0.072
	c2.138,0.507,4.361,0.903,6.678,1.175c0.255,0.03,0.511,0.047,0.766,0.073c1.993,0.208,4.037,0.328,6.137,0.349
	c0.251,0.004,0.494,0.043,0.746,0.043c0.302,0,0.609,0,0.916-0.004c1.554-0.021,3.075-0.106,4.574-0.23
	c0.383-0.034,0.758-0.086,1.137-0.123c1.141-0.115,2.27-0.252,3.377-0.422c0.354-0.056,0.694-0.119,1.043-0.183
	c1.171-0.205,2.321-0.435,3.445-0.699c0.222-0.051,0.443-0.106,0.665-0.161c1.329-0.332,2.623-0.699,3.879-1.112
	c0.004,0,0.009-0.004,0.013-0.004c5.438-1.789,10.114-4.318,13.734-7.397c0,0.213,0,0.417,0,0.627
	c0.008,3.206,0.004,5.889-0.013,7.465l-0.077,1.929c0,0.601-0.081,1.201-0.213,1.797c-0.034,0.154-0.098,0.304-0.141,0.456
	c-0.124,0.442-0.264,0.886-0.46,1.325c-0.081,0.188-0.188,0.37-0.281,0.553c-0.2,0.393-0.417,0.78-0.668,1.167
	c-0.141,0.213-0.298,0.426-0.456,0.639c-0.247,0.337-0.52,0.669-0.809,0.997c-0.217,0.247-0.439,0.49-0.677,0.729
	c-0.26,0.263-0.549,0.523-0.834,0.783c-0.315,0.28-0.626,0.566-0.971,0.839c-0.196,0.157-0.413,0.306-0.618,0.46
	C128.9,286.771,119.365,289.839,109.038,289.979z M264.432,166.483h-42.587V175h42.587v8.517h-42.587v8.518h42.587v8.518h-42.587
	v8.517h42.587v8.518h-42.587v8.518h42.587v8.517h-42.587v8.518h42.587v17.034h-59.621V149.448h59.621V166.483z M264.432,140.931
	h-68.139v127.758h68.139v13.556c0,1.72-2.151,3.479-4.26,3.479H143.823c1.776-1.915,3.168-3.981,4.123-6.179
	c0.029-0.068,0.051-0.137,0.081-0.204c0.388-0.929,0.694-1.879,0.92-2.845c0.051-0.214,0.106-0.422,0.149-0.635
	c0.205-1.053,0.345-2.116,0.349-3.202v-0.005l0,0l0,0h-0.094c0.145-1.469,0.2-3.772,0.205-7.581
	c0.004-3.807-0.042-9.112-0.111-16.578l-0.523-5.222l-0.273,0.047c-0.008-0.033-0.017-0.067-0.025-0.105
	c-0.077-0.333-0.153-0.66-0.247-0.983c-0.226-0.78-0.511-1.542-0.847-2.292c-0.098-0.221-0.17-0.446-0.281-0.668
	c-0.469-0.958-1.022-1.896-1.665-2.807c-0.119-0.17-0.269-0.332-0.396-0.503v-95.384h-17.035v-29.457h136.277v29.811H264.432z
	 M272.948,102.604h-12.776V60.017h12.776V102.604z"/>
</svg>
