<?xml version="1.0" encoding="utf-8"?>
<!-- Generator: Adobe Illustrator 16.0.0, SVG Export Plug-In . SVG Version: 6.00 Build 0)  -->
<!DOCTYPE svg PUBLIC "-//W3C//DTD SVG 1.1//EN" "http://www.w3.org/Graphics/SVG/1.1/DTD/svg11.dtd">
<svg version="1.1" id="Layer_1" xmlns="http://www.w3.org/2000/svg" xmlns:xlink="http://www.w3.org/1999/xlink" x="0px" y="0px"
	 width="350px" height="350px" viewBox="0 0 350 350" enable-background="new 0 0 350 350" xml:space="preserve">
<g>
	<g>
		<path d="M290.311,254.88l-88.97-81.103l50.858-55.796c2.28,0.587,4.627,0.883,7.006,0.883c23.628,0,39.296-27.033,39.296-44.909
			C298.5,61.57,288.425,51.5,276.046,51.5c-17.882,0-44.909,15.673-44.909,39.296c0,2.385,0.297,4.725,0.889,7l-57.021,51.974
			l-57.028-51.974c0.592-2.275,0.888-4.616,0.888-7c0-23.623-27.027-39.296-44.909-39.296C61.576,51.5,51.5,61.57,51.5,73.955
			c0,17.876,15.667,44.909,39.296,44.909c2.379,0,4.725-0.296,7.006-0.882l50.863,55.797l-88.964,81.091
			c-5.219,4.742-8.201,11.496-8.201,18.545c0,13.832,11.249,25.087,25.086,25.087c7.039,0,13.792-2.982,18.529-8.186L175,202.676
			l79.875,87.635c4.747,5.209,11.501,8.191,18.54,8.191c13.837,0,25.086-11.255,25.086-25.087
			C298.5,266.365,295.507,259.604,290.311,254.88z M103.634,107.719c-1.612-1.76-4.144-2.318-6.315-1.393
			c-2.073,0.872-4.266,1.311-6.524,1.311c-15.492,0-28.068-20.382-28.068-33.682c0-6.189,5.033-11.227,11.227-11.227
			c13.3,0,33.682,12.576,33.682,28.068c0,2.253-0.438,4.44-1.316,6.507c-0.921,2.193-0.362,4.726,1.393,6.332l58.956,53.734
			l-9.71,8.85L103.634,107.719z M86.815,282.756c-2.609,2.868-6.337,4.518-10.229,4.518c-7.643,0-13.859-6.218-13.859-13.859
			c0-3.892,1.645-7.625,4.517-10.233c0.011-0.006,0.011-0.006,0.011-0.006l175.031-159.541c1.755-1.606,2.314-4.139,1.393-6.332
			c-0.877-2.066-1.315-4.254-1.315-6.508c0-15.492,20.382-28.068,33.682-28.068c6.194,0,11.228,5.038,11.228,11.228
			c0,13.299-12.576,33.682-28.068,33.682c-2.259,0-4.451-0.438-6.523-1.311c-2.183-0.926-4.715-0.367-6.316,1.393L86.815,282.756z
			 M273.414,287.273c-3.892,0-7.619-1.645-10.239-4.523l-80.583-88.404l11.184-12.269l88.98,81.108
			c2.872,2.609,4.518,6.338,4.518,10.229C287.273,281.057,281.057,287.273,273.414,287.273z"/>
	</g>
</g>
</svg>
