<?xml version="1.0" encoding="utf-8"?>
<!-- Generator: Adobe Illustrator 16.0.0, SVG Export Plug-In . SVG Version: 6.00 Build 0)  -->
<!DOCTYPE svg PUBLIC "-//W3C//DTD SVG 1.1//EN" "http://www.w3.org/Graphics/SVG/1.1/DTD/svg11.dtd">
<svg version="1.1" id="Layer_1" xmlns="http://www.w3.org/2000/svg" xmlns:xlink="http://www.w3.org/1999/xlink" x="0px" y="0px"
	 width="350px" height="350px" viewBox="0 0 350 350" enable-background="new 0 0 350 350" xml:space="preserve">
<g>
	<g>
		<g>
			<path d="M154.5,246.75c0,11.307,9.199,20.5,20.5,20.5c11.3,0,20.5-9.193,20.5-20.5s-9.2-20.5-20.5-20.5
				C163.699,226.25,154.5,235.444,154.5,246.75z M185.25,246.75c0,5.65-4.595,10.25-10.25,10.25c-5.655,0-10.25-4.6-10.25-10.25
				s4.595-10.25,10.25-10.25C180.655,236.5,185.25,241.1,185.25,246.75z"/>
			<path d="M262.126,52h-71.75c-2.833,0-5.126,2.292-5.126,5.125v61.5c0,2.833,2.293,5.125,5.126,5.125h11.491l-0.551,4.411
				c-6.72-2.286-13.821-3.692-21.19-4.151v-0.26c0-2.833-2.293-5.125-5.125-5.125c-2.833,0-5.125,2.292-5.125,5.125v0.26
				c-7.369,0.458-14.471,1.866-21.19,4.151l-0.551-4.411h11.492c2.833,0,5.125-2.292,5.125-5.125v-61.5
				c0-2.833-2.292-5.125-5.125-5.125h-71.75c-2.833,0-5.125,2.292-5.125,5.125v61.5c0,2.833,2.292,5.125,5.125,5.125h49.93
				l1.063,8.503c-6.554,3.235-12.604,7.303-18.029,12.094l-0.201-0.202c-2.002-2.002-5.246-2.002-7.247,0
				c-2.002,2.002-2.002,5.246,0,7.247l0.201,0.201c-11.706,13.257-19.164,30.285-20.332,49.032h-0.259
				c-2.833,0-5.125,2.292-5.125,5.124c0,2.834,2.292,5.126,5.125,5.126h0.259c1.167,18.747,8.626,35.774,20.332,49.031l-0.201,0.201
				c-2.002,2.002-2.002,5.245,0,7.248c1.001,1,2.313,1.501,3.624,1.501c1.311,0,2.622-0.501,3.623-1.501l0.202-0.202
				c2.897,2.559,5.942,4.945,9.181,7.08l-15.018,15.019c-2.002,2.002-2.002,5.245,0,7.246c1.001,1.002,2.313,1.502,3.624,1.502
				s2.622-0.5,3.624-1.502l17.046-17.045c9.352,4.55,19.669,7.357,30.581,8.037v0.26c0,2.832,2.292,5.125,5.125,5.125
				c2.833,0,5.125-2.293,5.125-5.125v-0.26c10.912-0.68,21.23-3.487,30.582-8.037l17.046,17.045c1,1.002,2.312,1.502,3.623,1.502
				s2.623-0.5,3.623-1.502c2.003-2.002,2.003-5.244,0-7.246l-15.017-15.019c3.238-2.135,6.283-4.521,9.181-7.08l0.201,0.202
				c1.001,1,2.313,1.501,3.624,1.501c1.311,0,2.622-0.501,3.623-1.501c2.003-2.003,2.003-5.246,0-7.248l-0.201-0.201
				c11.706-13.257,19.164-30.285,20.332-49.031h0.259c2.833,0,5.126-2.292,5.126-5.126c0-2.832-2.293-5.124-5.126-5.124h-0.259
				c-1.168-18.747-8.626-35.775-20.332-49.032l0.201-0.201c2.003-2.002,2.003-5.245,0-7.247c-2.002-2.001-5.245-2.002-7.247,0
				l-0.2,0.202c-5.427-4.791-11.476-8.859-18.029-12.094l1.063-8.503h49.93c2.833,0,5.125-2.292,5.125-5.125v-61.5
				C267.251,54.292,264.958,52,262.126,52z M131.167,83.29c-2.533-1.247-5.605-0.245-6.877,2.292
				c-1.261,2.533-0.24,5.611,2.292,6.877l7.797,3.899l2.143,17.142H93V62.249h61.5v51.25h-7.648l-2.642-21.136
				c-0.21-1.702-1.261-3.183-2.793-3.949L131.167,83.29z M246.751,205.75c0,39.564-32.192,71.75-71.75,71.75
				c-39.559,0-71.75-32.186-71.75-71.75c0-39.564,32.191-71.75,71.75-71.75C214.559,134,246.751,166.186,246.751,205.75z
				 M257.001,113.5h-43.523l2.144-17.142l7.797-3.899c2.533-1.266,3.554-4.345,2.293-6.877c-1.272-2.537-4.336-3.548-6.878-2.292
				l-10.25,5.125c-1.531,0.766-2.583,2.248-2.793,3.949l-2.641,21.136h-7.648v-51.25h61.5V113.5z"/>
		</g>
	</g>
</g>
</svg>
