<?xml version="1.0" encoding="utf-8"?>
<!-- Generator: Adobe Illustrator 16.0.0, SVG Export Plug-In . SVG Version: 6.00 Build 0)  -->
<!DOCTYPE svg PUBLIC "-//W3C//DTD SVG 1.1//EN" "http://www.w3.org/Graphics/SVG/1.1/DTD/svg11.dtd">
<svg version="1.1" id="Layer_1" xmlns="http://www.w3.org/2000/svg" xmlns:xlink="http://www.w3.org/1999/xlink" x="0px" y="0px"
	 width="350px" height="350px" viewBox="0 0 350 350" enable-background="new 0 0 350 350" xml:space="preserve">
<g>
	<path fill="none" d="M149.898,256l-0.077,0.717c4.02,0.371,6.88,2.242,8.821,4.227c-0.377-1.671-0.716-2.943-1.022-4.943H149.898z"
		/>
	<path fill="none" d="M191.133,261.715c1.929-2.238,4.989-4.594,9.519-5.012L200.574,256h-8.159
		C192.008,258,191.576,259.971,191.133,261.715z"/>
	<path fill="#FFFFFF" d="M186.567,119.809c0,0-0.577-2.721-3.71-2.391C182.857,117.417,181.455,119.809,186.567,119.809z"/>
	<path d="M270.913,71.976c-43.622,0-51.173,66.693-59.143,83.052c-5.996,12.307-15.924,4.784-20.475,0.234L191.205,155h-0.054
		c-1.896-6-4.153-13.51-5.758-19.786c-3.528-13.814,12.062-9.008,12.062-9.008c-0.481-7.637-7.382-6.833-7.382-6.833l-5.181-5.004
		l-16.036,1.416l-9.731,38.141c-3.763,4.1-15.056,14.591-21.626,1.104c-7.969-16.358-15.52-83.053-59.143-83.053
		c0,0,1.258,134.224-38.59,196.722c0,0,19.714,0.42,33.557-10.486c0,0,16.778-28.942,16.778-144.292c0,0,9.647,75.92-7.55,138.838
		c0,0,12.584-5.453,22.231-17.617c0,0,9.276-47.4,0.21-110.525c0,0,10.276,34.605,10.276,101.718c0,0,9.228-6.712,15.939-20.974
		c0,0-3.356-45.3-10.486-64.595c0,0,14.681,32.059,15.939,58.065c0,0,12.823-14.832,19.953-32.832h0.54l-24.415,90h11.429
		l-0.049,0.311c0,0-13.75-0.629-18.006,9.805c0,0,15.24-8.941,33.501-1.127c1.098,4.252,2.442,8.614,4.103,12.953
		c0,0-3.314-31.522,6.971-52.093c0,0-5.227,27.546,3.976,51.905c0,0,11.397-20.061,5.072-51.999c0,0,10.382,18.389,5.51,51.952
		c0,0,2.449-4.011,4.917-12.417c18.568-8.35,34.196,0.84,34.196,0.84c-4.256-10.434-18.006-9.82-18.006-9.82l-0.049-0.31h8.116
		l-19.481-85.002c7.275,15.848,17.67,27.638,17.67,27.638c1.259-26.006,15.939-57.876,15.939-57.876
		c-7.131,19.294-10.486,64.598-10.486,64.598c6.711,14.262,15.939,20.976,15.939,20.976c0-67.113,10.276-101.717,10.276-101.717
		c-9.065,63.125,0.21,110.526,0.21,110.526c9.647,12.164,22.23,17.617,22.23,17.617c-17.197-62.918-7.55-138.838-7.55-138.838
		c0,115.349,16.777,144.292,16.777,144.292c13.842,10.906,33.557,10.485,33.557,10.485C269.655,206.2,270.913,71.976,270.913,71.976
		z M182.857,117.417c3.133-0.33,3.71,2.391,3.71,2.391C181.455,119.809,182.857,117.417,182.857,117.417z M149.821,256.717
		l0.077-0.717h7.722c0.306,2,0.645,3.272,1.022,4.943C156.701,258.959,153.841,257.088,149.821,256.717z M200.651,256.717
		c-4.529,0.418-7.59,2.745-9.519,4.983c0.443-1.744,0.875-3.7,1.282-5.7h8.159L200.651,256.717z"/>
</g>
</svg>
