<?xml version="1.0" encoding="utf-8"?>
<!-- Generator: Adobe Illustrator 16.0.0, SVG Export Plug-In . SVG Version: 6.00 Build 0)  -->
<!DOCTYPE svg PUBLIC "-//W3C//DTD SVG 1.1//EN" "http://www.w3.org/Graphics/SVG/1.1/DTD/svg11.dtd">
<svg version="1.1" id="Layer_1" xmlns="http://www.w3.org/2000/svg" xmlns:xlink="http://www.w3.org/1999/xlink" x="0px" y="0px"
	 width="350px" height="350px" viewBox="0 0 350 350" enable-background="new 0 0 350 350" xml:space="preserve">
<g>
	<image overflow="visible" opacity="0.75" width="226" height="276" xlink:href="8C177074.png"  transform="matrix(1 0 0 1 64 44)">
	</image>
	<g>
		<path fill="#99AAC6" d="M262.086,222.373v-25.609l-6.073-33.239l-4.566-49.731l-10.242-25.122l-9.14-12.865l-9.139-5.661
			l-15.947-8.834l-19.503-3.134H175h-12.476l-19.503,3.134l-15.946,8.834l-9.139,5.661l-9.139,12.865l-10.243,25.122l-4.565,49.731
			l-6.074,33.239v25.609l-4.67,20.51l7.283,11.129l10.108-2.634l9.896,14.687l5.039-10.911l4.649,19.07l10.333-12.651l7.212,18.688
			l11.457-31.294l-6.726,18.372l19.605,24.483L175,283.465l12.899,8.357l19.604-24.483l-6.726-18.372l11.457,31.294l7.213-18.688
			l10.333,12.651l4.648-19.07l5.039,10.911l9.896-14.687l10.107,2.634l7.283-11.129L262.086,222.373z M217.195,123.79l0.032,0.009
			l0.173,4.689L217.195,123.79z M223.134,99.099c0-0.009-0.001-0.019-0.001-0.028l0.013,0.021L223.134,99.099z M209.15,121.585
			l-0.003-0.001l-4.499,1.698l-12.24,4.621l16.739-6.319l-6.897-1.89L209.15,121.585z M157.591,127.903l-12.24-4.621l-4.499-1.698
			l-0.002,0.001l6.901-1.891l-6.898,1.89L157.591,127.903z M126.868,99.063c0,0.012-0.001,0.024-0.001,0.036l-0.012-0.008
			L126.868,99.063z M132.772,123.798l0.033-0.009l-0.205,4.698L132.772,123.798z M166.618,129.232l-1.626-11.621l3.172,22.662
			L166.618,129.232z M185.008,117.612l-1.626,11.621l-1.546,11.041L185.008,117.612z M235.701,111.184l-3.637,12.615l7.404-25.689
			L235.701,111.184z M223.219,114.43l4.262-11.2l2.214-5.818L223.219,114.43z M216.35,90.459c-0.017,0.002-0.033,0.004-0.05,0.006
			c-0.082,0.007-0.131,0.014-0.131,0.014h-0.001c0,0-0.002,0-0.003,0.001l0.146-0.041L216.35,90.459z M214.71,90.88
			c-0.001,0.001-0.003,0.001-0.005,0.002l-10.52,2.899L214.71,90.88z M133.018,90.459c-0.029,0.002-0.058,0.006-0.087,0.009
			l0.039-0.021L133.018,90.459z M122.52,103.23l4.262,11.2l-6.476-17.018L122.52,103.23z M114.299,111.184l-3.768-13.075
			l7.404,25.689L114.299,111.184z"/>
	</g>
</g>
<g>
	<g>
		<path fill="#FFE473" d="M215.439,95.043c-0.288-0.328-0.697-0.13-0.828,0.186c-2.458-1.682-4.471,0.934-4.861,3.443
			c-0.295,1.9,0.332,5,2.595,5.428c1.823,0.344,3.433-1.265,4.153-2.763C217.538,99.174,216.986,96.795,215.439,95.043z
			 M215.732,100.479c-0.399,1.19-1.398,2.341-2.661,2.603c-1.636,0.34-2.188-1.887-2.335-3.046
			c-0.232-1.826,1.206-5.741,3.505-3.795c0.267,0.226,0.596,0.132,0.775-0.072C215.95,97.431,216.249,98.942,215.732,100.479z"/>
		<polygon fill="#DEB501" points="175,140.854 181.836,140.273 175,161.783 		"/>
		<polygon fill="#FFD748" points="181.836,140.273 175,117.612 175,140.854 		"/>
		<polygon fill="#F9C900" points="181.836,140.273 185.008,117.612 175,117.612 		"/>
		<polygon fill="#E8E8DA" points="216.312,90.439 222.926,70.146 204.186,93.781 		"/>
		<polygon fill="#B5AC6D" points="185.008,117.612 192.408,127.903 183.382,129.232 		"/>
		<polygon fill="#BCB48B" points="192.408,127.903 188.361,107.437 185.008,117.612 		"/>
		<polygon fill="#FFD385" points="178.995,100.152 185.008,117.612 175,104.661 		"/>
		<polygon fill="#FFDEA9" points="178.995,100.152 175,99.091 175,104.661 		"/>
		<polyline fill="#FFA748" points="188.361,107.437 185.008,117.612 178.995,100.152 186.042,100.063 		"/>
		<polygon fill="#FFA748" points="186.042,100.063 191.771,94.696 192.408,107.437 188.361,107.437 		"/>
		<path fill="#4B6387" d="M186.042,100.063c0,0-1.189,5.987,2.319,7.374C188.361,107.437,191.108,104.61,186.042,100.063z"/>
		<polygon fill="#FFD629" points="185.008,117.612 175,104.661 175,117.612 		"/>
		<polygon fill="#F9C900" points="188.361,107.437 192.408,127.903 192.408,107.437 		"/>
		<polygon fill="#FFD748" points="178.995,100.152 175,91.825 186.042,100.063 		"/>
		<polygon fill="#FFE473" points="175,91.825 175,85.518 182.695,85.518 		"/>
		<polygon fill="#F9C900" points="175,91.825 191.771,94.696 186.042,100.063 		"/>
		<polygon fill="#FFD629" points="182.695,85.518 191.771,94.696 175,91.825 		"/>
		<polygon fill="#FFE473" points="175,91.825 178.995,100.152 175,99.091 		"/>
		<polygon fill="#FFE473" points="217.4,128.487 212.769,125.158 202.25,127.921 		"/>
		<polygon fill="#FFD629" points="217.4,128.487 217.192,123.717 212.769,125.158 		"/>
		<polygon fill="#FFD629" points="212.769,125.158 204.648,123.282 202.25,127.921 		"/>
		<polygon fill="#F9C900" points="212.769,125.158 209.147,121.584 204.648,123.282 		"/>
		<polygon fill="#FFA748" points="192.408,127.903 202.25,119.694 192.408,117.612 		"/>
		<polygon fill="#A49A4E" points="192.408,127.903 181.836,140.273 183.382,129.232 		"/>
		<polygon fill="#927E48" points="192.408,127.903 191.771,136.229 181.836,140.273 		"/>
		<polygon fill="#858936" points="192.408,127.903 202.25,138.078 191.771,136.229 		"/>
		<polygon fill="#A49A4E" points="192.408,127.903 202.25,127.921 202.25,138.078 		"/>
		<polygon fill="#CEC27A" points="202.25,127.921 204.648,123.282 192.408,127.903 		"/>
		<polygon fill="#DEB501" points="192.408,127.903 209.147,121.584 202.25,119.694 		"/>
		<polygon fill="#DEB501" points="212.769,125.158 209.147,121.584 217.192,123.717 		"/>
		<polygon fill="#CEC089" points="202.25,119.694 191.771,94.696 192.408,117.612 		"/>
		<polygon fill="#FEFFF3" points="175,85.518 187.476,58.178 175,58.178 		"/>
		<polygon fill="#FEFFF3" points="187.476,58.178 205.118,75.157 182.695,85.518 		"/>
		<polygon fill="#FCFBE0" points="205.118,75.157 191.771,94.696 182.695,85.518 		"/>
		<polygon fill="#FCFBE0" points="187.476,58.178 182.695,85.518 175,85.518 		"/>
		<polygon fill="#FCFBE0" points="205.118,75.157 206.979,61.312 222.926,70.146 		"/>
		<polygon fill="#EFEFED" points="222.926,70.146 191.771,94.696 205.118,75.157 		"/>
		<polygon fill="#EFEFED" points="205.118,75.157 187.476,58.178 206.979,61.312 		"/>
		<polygon fill="#E8E8DA" points="222.926,70.146 241.204,88.672 232.064,75.807 		"/>
		<polygon fill="#E2E1C9" points="204.186,93.781 191.771,94.696 222.926,70.146 		"/>
		<polygon fill="#D6D7D8" points="222.926,70.146 216.312,90.439 241.204,88.672 		"/>
		<polygon fill="#E2E1C9" points="241.204,88.672 239.469,98.109 251.446,113.794 		"/>
		<polygon fill="#E2E1C9" points="251.446,113.794 235.701,111.184 232.064,123.798 		"/>
		<polygon fill="#FFEEA6" points="232.064,123.798 223.219,114.43 217.03,118.42 		"/>
		<polygon fill="#D3C8C2" points="235.701,111.184 239.469,98.109 251.446,113.794 		"/>
		<polygon fill="#EADDCE" points="217.03,118.42 217.4,128.487 232.064,123.798 		"/>
		<polygon fill="#EADDCE" points="223.219,114.43 239.469,98.109 232.064,123.798 		"/>
		<polygon fill="#D3C8C2" points="223.219,114.43 229.694,97.412 239.469,98.109 		"/>
		<polygon fill="#D3C8C2" points="229.694,97.412 216.312,90.439 241.204,88.672 		"/>
		<polygon fill="#D3C8C2" points="217.03,118.42 208.188,109.71 202.25,119.694 		"/>
		<polygon fill="#C6B6AC" points="217.03,118.42 217.228,123.798 202.25,119.694 		"/>
		<polygon fill="#C6B6AC" points="208.188,109.71 223.219,114.43 223.146,99.091 		"/>
		<polygon fill="#C6B6AC" points="191.771,94.696 203.107,100.737 202.25,119.694 		"/>
		<polygon fill="#BBBCAC" points="203.107,100.737 208.188,109.71 202.25,119.694 		"/>
		<polygon fill="#BBBCAC" points="223.219,114.43 208.188,109.71 217.03,118.42 		"/>
		<polygon fill="#BBBCAC" points="223.146,99.091 227.48,103.23 223.219,114.43 		"/>
		<polygon fill="#BBBCAC" points="229.694,97.412 241.204,88.672 239.469,98.109 		"/>
		<polygon fill="#B5AC6D" points="227.48,103.23 223.146,99.091 229.694,97.412 		"/>
		<polygon fill="#A89282" points="204.186,93.781 203.107,100.737 191.771,94.696 		"/>
		<polygon fill="#A89282" points="223.146,99.091 217.914,90.705 229.694,97.412 		"/>
		<g>
			<path fill="#FFD748" d="M203.107,101.015c0,0,1.494,7.527,7.532,10.219c6.037,2.693,13.729-1.485,12.431-12.627L203.107,101.015z
				"/>
			<path fill="#234582" d="M216.169,90.479l-11.983,3.302c0,0-5.563,9.318,5.972,14.134c3.78,1.578,13.214,1.606,12.988-8.556
				C222.926,89.427,216.169,90.479,216.169,90.479z"/>
			<g>
				<path fill="#978139" d="M214.213,96.219c3.786-0.506,7.319,1.568,8.822,4.865c0.131-0.8,0.148-1.633,0.035-2.479
					c-0.426-3.187-2.581-6.938-5.397-8c-1.268-0.479-2.781,0.167-4.11,0.752c-4.316,1.9-8.087,4.099-7.269,9.49
					c0.128,0.844,0.349,1.645,0.686,2.382C207.563,99.655,210.428,96.725,214.213,96.219z"/>
				<path fill="#FFE473" d="M215.801,108.096c3.785-0.506,6.649-3.436,7.234-7.012c-1.503-3.297-5.036-5.372-8.822-4.865
					c-3.785,0.506-6.649,3.436-7.233,7.011C208.482,106.527,212.016,108.602,215.801,108.096z"/>
			</g>
			
				<ellipse transform="matrix(-0.9912 0.1325 -0.1325 -0.9912 439.765 169.0622)" fill="#234582" cx="214.257" cy="99.163" rx="3.141" ry="4.199"/>
		</g>
		<polygon fill="#FEFFF3" points="218.345,182.81 235.47,230.288 217.03,208.267 		"/>
		<polygon fill="#FEFFF3" points="217.03,208.267 197.979,196.704 208.709,231.854 		"/>
		<polygon fill="#FEFFF3" points="237.855,196.637 235.47,230.288 249.365,251.378 		"/>
		<polygon fill="#FCFBE0" points="218.345,182.81 237.855,196.637 235.47,230.288 		"/>
		<polygon fill="#E8E8DA" points="217.03,208.267 202.621,179.986 197.979,196.704 		"/>
		<polygon fill="#E8E8DA" points="197.979,196.704 187.03,186.926 185.848,227.46 		"/>
		<polygon fill="#E8E8DA" points="237.855,196.637 217.311,170.421 227.208,158.027 		"/>
		<polygon fill="#E8E8DA" points="237.855,196.637 243.646,150.993 256.013,163.525 		"/>
		<polygon fill="#FEF8CB" points="218.345,182.81 202.621,179.986 217.03,208.267 		"/>
		<polygon fill="#FEF8CB" points="217.311,170.421 218.345,182.81 237.855,196.637 		"/>
		<polygon fill="#FEF8CB" points="187.03,186.926 175,201.61 185.848,227.46 		"/>
		<polygon fill="#E2E1C9" points="237.855,196.637 262.086,196.764 256.013,163.525 		"/>
		<polygon fill="#E2E1C9" points="243.646,150.993 235.548,157.435 237.855,196.637 		"/>
		<polygon fill="#E2E1C9" points="217.03,208.267 234.43,255.153 235.47,230.288 		"/>
		<polygon fill="#D6D7D8" points="235.548,157.435 227.208,158.027 237.855,196.637 		"/>
		<polygon fill="#D6D7D8" points="217.03,208.267 219.448,261.572 228.398,238.899 		"/>
		<polygon fill="#D6D7D8" points="237.855,196.637 262.086,222.373 262.086,196.764 		"/>
		<polygon fill="#D6D7D8" points="191.771,136.229 217.311,170.421 202.25,138.078 		"/>
		<polygon fill="#D6D7D8" points="202.25,127.921 227.208,158.027 217.4,128.487 		"/>
		<polygon fill="#D6D7D8" points="208.709,231.854 200.778,248.967 197.979,196.704 		"/>
		<polygon fill="#D6D7D8" points="175,201.61 185.848,227.46 175,239.797 		"/>
		<polygon fill="#CCCDC6" points="197.979,196.704 185.848,227.46 200.778,248.967 		"/>
		<polygon fill="#CCCDC6" points="217.03,208.267 219.448,261.572 208.709,231.854 		"/>
		<polygon fill="#CCCDC6" points="237.855,196.637 257.063,233.243 262.086,222.373 		"/>
		<polygon fill="#CCCDC6" points="243.646,150.993 217.4,128.487 232.064,123.798 		"/>
		<polygon fill="#D3C8C2" points="202.25,127.921 227.208,158.027 202.25,138.078 		"/>
		<polygon fill="#D3C8C2" points="217.4,128.487 235.548,157.435 227.208,158.027 		"/>
		<polygon fill="#D3C8C2" points="251.446,113.794 243.646,150.993 256.013,163.525 		"/>
		<polygon fill="#D3C8C2" points="257.063,233.243 249.365,251.378 237.855,196.637 		"/>
		<polygon fill="#C6B6AC" points="227.208,158.027 202.25,138.078 217.311,170.421 		"/>
		<polygon fill="#C6B6AC" points="232.064,123.798 251.446,113.794 243.646,150.993 		"/>
		<polygon fill="#C6B6AC" points="243.646,150.993 217.4,128.487 235.548,157.435 		"/>
		<polygon fill="#C6B6AC" points="218.345,182.81 191.771,136.229 217.311,170.421 		"/>
		<polygon fill="#C6B6AC" points="187.03,186.926 175,161.783 175,201.61 		"/>
		<polygon fill="#CCCDC6" points="218.345,182.81 202.621,179.986 191.771,136.229 		"/>
		<polygon fill="#BBBCAC" points="202.621,179.986 181.836,140.273 191.771,136.229 		"/>
		<polygon fill="#BBBCAC" points="181.836,140.273 197.979,196.704 187.03,186.926 		"/>
		<polygon fill="#BAA393" points="181.836,140.273 175,161.783 187.03,186.926 		"/>
		<polygon fill="#C6B6AC" points="181.836,140.273 202.621,179.986 197.979,196.704 		"/>
		<polygon fill="#C6B6AC" points="262.086,222.373 266.756,242.883 257.063,233.243 		"/>
		<polygon fill="#777FA0" points="200.778,248.967 187.899,291.822 185.848,227.46 		"/>
		<polygon fill="#717BC6" points="185.848,227.46 175,239.797 175,283.465 		"/>
		<polygon fill="#526386" points="185.848,227.46 187.899,291.822 175,283.465 		"/>
		<polygon fill="#7E91C1" points="208.709,231.854 212.235,280.261 219.448,261.572 		"/>
		<polygon fill="#4A6DA0" points="208.709,231.854 200.778,248.967 212.235,280.261 		"/>
		<polygon fill="#2D52A0" points="200.778,248.967 207.504,267.339 187.899,291.822 		"/>
		<polygon fill="#4B6387" points="228.398,238.899 229.781,274.224 219.448,261.572 		"/>
		<polygon fill="#777FA0" points="228.398,238.899 234.43,255.153 229.781,274.224 		"/>
		<polygon fill="#68768E" points="235.47,230.288 239.469,266.064 234.43,255.153 		"/>
		<polygon fill="#7E91C1" points="235.47,230.288 249.365,251.378 239.469,266.064 		"/>
		<polygon fill="#7E91C1" points="257.063,233.243 259.473,254.012 249.365,251.378 		"/>
		<polygon fill="#99AAC6" points="257.063,233.243 266.756,242.883 259.473,254.012 		"/>
	</g>
	<g>
		<path fill="#FFE473" d="M133.502,101.337c0.721,1.498,2.331,3.107,4.153,2.763c2.263-0.427,2.89-3.527,2.594-5.428
			c-0.39-2.509-2.403-5.125-4.861-3.443c-0.131-0.316-0.54-0.514-0.829-0.186C133.014,96.795,132.462,99.174,133.502,101.337z
			 M134.983,96.168c0.18,0.204,0.509,0.298,0.775,0.072c2.299-1.946,3.738,1.969,3.506,3.795c-0.148,1.159-0.699,3.386-2.335,3.046
			c-1.264-0.262-2.262-1.413-2.662-2.603C133.751,98.942,134.05,97.431,134.983,96.168z"/>
		<polygon fill="#DEB501" points="175,140.854 168.165,140.273 175,161.783 		"/>
		<polygon fill="#FFD748" points="168.165,140.273 175,117.612 175,140.854 		"/>
		<polygon fill="#F9C900" points="168.165,140.273 164.992,117.612 175,117.612 		"/>
		<polygon fill="#E8E8DA" points="132.97,90.446 127.075,70.146 145.814,93.781 		"/>
		<polygon fill="#B5AC6D" points="164.992,117.612 157.591,127.903 166.618,129.232 		"/>
		<polygon fill="#BCB48B" points="157.591,127.903 161.639,107.437 164.992,117.612 		"/>
		<polygon fill="#FFD385" points="171.005,100.152 164.992,117.612 175,104.661 		"/>
		<polygon fill="#FFDEA9" points="171.005,100.152 175,99.091 175,104.661 		"/>
		<polyline fill="#FFA748" points="161.639,107.437 164.992,117.612 171.005,100.152 163.958,100.063 		"/>
		<polygon fill="#FFA748" points="163.958,100.063 158.229,94.696 157.591,107.437 161.639,107.437 		"/>
		<path fill="#4B6387" d="M163.958,100.063c0,0,1.19,5.987-2.318,7.374C161.639,107.437,158.892,104.61,163.958,100.063z"/>
		<polygon fill="#FFD629" points="164.992,117.612 175,104.661 175,117.612 		"/>
		<polygon fill="#F9C900" points="161.639,107.437 157.591,127.903 157.591,107.437 		"/>
		<polygon fill="#FFD748" points="171.005,100.152 175,91.825 163.958,100.063 		"/>
		<polygon fill="#FFE473" points="175,91.825 175,85.518 167.305,85.518 		"/>
		<polygon fill="#F9C900" points="175,91.825 158.229,94.696 163.958,100.063 		"/>
		<polygon fill="#FFD629" points="167.305,85.518 158.229,94.696 175,91.825 		"/>
		<polygon fill="#FFE473" points="175,91.825 171.005,100.152 175,99.091 		"/>
		<polygon fill="#FFE473" points="132.6,128.487 137.23,125.158 147.75,127.921 		"/>
		<polygon fill="#FFD629" points="132.6,128.487 132.808,123.717 137.23,125.158 		"/>
		<polygon fill="#FFD629" points="137.23,125.158 145.351,123.282 147.75,127.921 		"/>
		<polygon fill="#F9C900" points="137.23,125.158 140.852,121.584 145.351,123.282 		"/>
		<polygon fill="#FFA748" points="157.591,127.903 147.75,119.694 157.591,117.612 		"/>
		<polygon fill="#A49A4E" points="157.591,127.903 168.165,140.273 166.618,129.232 		"/>
		<polygon fill="#927E48" points="157.591,127.903 158.229,136.229 168.165,140.273 		"/>
		<polygon fill="#858936" points="157.591,127.903 147.75,138.078 158.229,136.229 		"/>
		<polygon fill="#A49A4E" points="157.591,127.903 147.75,127.921 147.75,138.078 		"/>
		<polygon fill="#CEC27A" points="147.75,127.921 145.351,123.282 157.591,127.903 		"/>
		<polygon fill="#DEB501" points="157.591,127.903 140.852,121.584 147.75,119.694 		"/>
		<polygon fill="#DEB501" points="137.23,125.158 140.852,121.584 132.808,123.717 		"/>
		<polygon fill="#CEC089" points="147.75,119.694 158.229,94.696 157.591,117.612 		"/>
		<polygon fill="#FEFFF3" points="175,85.518 162.524,58.178 175,58.178 		"/>
		<polygon fill="#FEFFF3" points="162.524,58.178 144.882,75.157 167.305,85.518 		"/>
		<polygon fill="#FCFBE0" points="144.882,75.157 158.229,94.696 167.305,85.518 		"/>
		<polygon fill="#FCFBE0" points="162.524,58.178 167.305,85.518 175,85.518 		"/>
		<polygon fill="#FCFBE0" points="144.882,75.157 143.021,61.312 127.075,70.146 		"/>
		<polygon fill="#EFEFED" points="127.075,70.146 158.229,94.696 144.882,75.157 		"/>
		<polygon fill="#EFEFED" points="144.882,75.157 162.524,58.178 143.021,61.312 		"/>
		<polygon fill="#E8E8DA" points="127.075,70.146 108.796,88.672 117.936,75.807 		"/>
		<polygon fill="#E2E1C9" points="145.814,93.781 158.229,94.696 127.075,70.146 		"/>
		<polygon fill="#D6D7D8" points="127.075,70.146 132.97,90.446 108.796,88.672 		"/>
		<polygon fill="#E2E1C9" points="108.796,88.672 110.531,98.109 98.553,113.794 		"/>
		<polygon fill="#E2E1C9" points="98.553,113.794 114.299,111.184 117.936,123.798 		"/>
		<polygon fill="#FFEEA6" points="117.936,123.798 126.782,114.43 132.97,118.42 		"/>
		<polygon fill="#D3C8C2" points="114.299,111.184 110.531,98.109 98.553,113.794 		"/>
		<polygon fill="#EADDCE" points="132.97,118.42 132.6,128.487 117.936,123.798 		"/>
		<polygon fill="#EADDCE" points="126.782,114.43 110.531,98.109 117.936,123.798 		"/>
		<polygon fill="#D3C8C2" points="126.782,114.43 120.306,97.412 110.531,98.109 		"/>
		<polygon fill="#D3C8C2" points="120.306,97.412 132.97,90.446 108.796,88.672 		"/>
		<polygon fill="#D3C8C2" points="132.97,118.42 141.812,109.71 147.75,119.694 		"/>
		<polygon fill="#C6B6AC" points="132.97,118.42 132.772,123.798 147.75,119.694 		"/>
		<polygon fill="#C6B6AC" points="141.812,109.71 126.782,114.43 126.854,99.091 		"/>
		<polygon fill="#C6B6AC" points="158.229,94.696 146.893,100.737 147.75,119.694 		"/>
		<polygon fill="#BBBCAC" points="146.893,100.737 141.812,109.71 147.75,119.694 		"/>
		<polygon fill="#BBBCAC" points="126.782,114.43 141.812,109.71 132.97,118.42 		"/>
		<polygon fill="#BBBCAC" points="126.854,99.091 122.52,103.23 126.782,114.43 		"/>
		<polygon fill="#BBBCAC" points="120.306,97.412 108.796,88.672 110.531,98.109 		"/>
		<polygon fill="#B5AC6D" points="122.52,103.23 126.854,99.091 120.306,97.412 		"/>
		<polygon fill="#A89282" points="145.814,93.781 146.893,100.737 158.229,94.696 		"/>
		<polygon fill="#A89282" points="126.854,99.091 130.286,91.922 120.306,97.412 		"/>
		<g>
			<path fill="#FFD748" d="M146.893,101.015c0,0-1.494,7.527-7.532,10.219c-6.038,2.693-13.729-1.485-12.432-12.627L146.893,101.015
				z"/>
			<path fill="#234582" d="M133.791,90.483l12.023,3.298c0,0,5.562,9.318-5.972,14.134c-3.781,1.578-13.222,1.605-12.988-8.556
				C127.075,89.783,133.791,90.483,133.791,90.483z"/>
			<g>
				<path fill="#978139" d="M135.787,96.219c-3.786-0.506-7.319,1.568-8.822,4.865c-0.131-0.8-0.148-1.633-0.036-2.479
					c0.426-3.188,2.583-6.939,5.4-8.001c1.268-0.478,2.989,0.228,4.108,0.753c4.23,1.987,8.121,4.099,7.269,9.49
					c-0.133,0.843-0.349,1.645-0.686,2.382C142.436,99.655,139.572,96.725,135.787,96.219z"/>
				<path fill="#FFE473" d="M134.199,108.096c-3.785-0.506-6.649-3.436-7.234-7.012c1.503-3.297,5.037-5.372,8.822-4.865
					c3.785,0.506,6.649,3.436,7.233,7.011C141.517,106.527,137.985,108.602,134.199,108.096z"/>
			</g>
			
				<ellipse transform="matrix(0.9912 0.1325 -0.1325 0.9912 14.3365 -17.1122)" fill="#234582" cx="135.743" cy="99.163" rx="3.141" ry="4.199"/>
		</g>
		<polygon fill="#FEFFF3" points="131.655,182.81 114.53,230.288 132.97,208.267 		"/>
		<polygon fill="#FEFFF3" points="132.97,208.267 152.022,196.704 141.291,231.854 		"/>
		<polygon fill="#FEFFF3" points="112.145,196.637 114.53,230.288 100.635,251.378 		"/>
		<polygon fill="#FCFBE0" points="131.655,182.81 112.145,196.637 114.53,230.288 		"/>
		<polygon fill="#E8E8DA" points="132.97,208.267 147.379,179.986 152.022,196.704 		"/>
		<polygon fill="#E8E8DA" points="152.022,196.704 162.97,186.926 164.152,227.46 		"/>
		<polygon fill="#E8E8DA" points="112.145,196.637 132.689,170.421 122.792,158.027 		"/>
		<polygon fill="#E8E8DA" points="112.145,196.637 106.355,150.993 93.988,163.525 		"/>
		<polygon fill="#FEF8CB" points="131.655,182.81 147.379,179.986 132.97,208.267 		"/>
		<polygon fill="#FEF8CB" points="132.689,170.421 131.655,182.81 112.145,196.637 		"/>
		<polygon fill="#FEF8CB" points="162.97,186.926 175,201.61 164.152,227.46 		"/>
		<polygon fill="#E2E1C9" points="112.145,196.637 87.914,196.764 93.988,163.525 		"/>
		<polygon fill="#E2E1C9" points="106.355,150.993 114.453,157.435 112.145,196.637 		"/>
		<polygon fill="#E2E1C9" points="132.97,208.267 115.57,255.153 114.53,230.288 		"/>
		<polygon fill="#D6D7D8" points="114.453,157.435 122.792,158.027 112.145,196.637 		"/>
		<polygon fill="#D6D7D8" points="132.97,208.267 130.552,261.572 121.602,238.899 		"/>
		<polygon fill="#D6D7D8" points="112.145,196.637 87.914,222.373 87.914,196.764 		"/>
		<polygon fill="#D6D7D8" points="158.229,136.229 132.689,170.421 147.75,138.078 		"/>
		<polygon fill="#D6D7D8" points="147.75,127.921 122.792,158.027 132.6,128.487 		"/>
		<polygon fill="#D6D7D8" points="141.291,231.854 149.222,248.967 152.022,196.704 		"/>
		<polygon fill="#D6D7D8" points="175,201.61 164.152,227.46 175,239.797 		"/>
		<polygon fill="#CCCDC6" points="152.022,196.704 164.152,227.46 149.222,248.967 		"/>
		<polygon fill="#CCCDC6" points="132.97,208.267 130.552,261.572 141.291,231.854 		"/>
		<polygon fill="#CCCDC6" points="112.145,196.637 92.936,233.243 87.914,222.373 		"/>
		<polygon fill="#CCCDC6" points="106.355,150.993 132.6,128.487 117.936,123.798 		"/>
		<polygon fill="#D3C8C2" points="147.75,127.921 122.792,158.027 147.75,138.078 		"/>
		<polygon fill="#D3C8C2" points="132.6,128.487 114.453,157.435 122.792,158.027 		"/>
		<polygon fill="#D3C8C2" points="98.553,113.794 106.355,150.993 93.988,163.525 		"/>
		<polygon fill="#D3C8C2" points="92.936,233.243 100.635,251.378 112.145,196.637 		"/>
		<polygon fill="#C6B6AC" points="122.792,158.027 147.75,138.078 132.689,170.421 		"/>
		<polygon fill="#C6B6AC" points="117.936,123.798 98.553,113.794 106.355,150.993 		"/>
		<polygon fill="#C6B6AC" points="106.355,150.993 132.6,128.487 114.453,157.435 		"/>
		<polygon fill="#C6B6AC" points="131.655,182.81 158.229,136.229 132.689,170.421 		"/>
		<polygon fill="#C6B6AC" points="162.97,186.926 175,161.783 175,201.61 		"/>
		<polygon fill="#CCCDC6" points="131.655,182.81 147.379,179.986 158.229,136.229 		"/>
		<polygon fill="#BBBCAC" points="147.379,179.986 168.165,140.273 158.229,136.229 		"/>
		<polygon fill="#BBBCAC" points="168.165,140.273 152.022,196.704 162.97,186.926 		"/>
		<polygon fill="#BAA393" points="168.165,140.273 175,161.783 162.97,186.926 		"/>
		<polygon fill="#C6B6AC" points="168.165,140.273 147.379,179.986 152.022,196.704 		"/>
		<polygon fill="#C6B6AC" points="87.914,222.373 83.244,242.883 92.936,233.243 		"/>
		<polygon fill="#777FA0" points="149.222,248.967 162.101,291.822 164.152,227.46 		"/>
		<polygon fill="#717BC6" points="164.152,227.46 175,239.797 175,283.465 		"/>
		<polygon fill="#526386" points="164.152,227.46 162.101,291.822 175,283.465 		"/>
		<polygon fill="#7E91C1" points="141.291,231.854 137.765,280.261 130.552,261.572 		"/>
		<polygon fill="#4A6DA0" points="141.291,231.854 149.222,248.967 137.765,280.261 		"/>
		<polygon fill="#2D52A0" points="149.222,248.967 142.496,267.339 162.101,291.822 		"/>
		<polygon fill="#4B6387" points="121.602,238.899 120.219,274.224 130.552,261.572 		"/>
		<polygon fill="#777FA0" points="121.602,238.899 115.57,255.153 120.219,274.224 		"/>
		<polygon fill="#68768E" points="114.53,230.288 110.531,266.064 115.57,255.153 		"/>
		<polygon fill="#7E91C1" points="114.53,230.288 100.635,251.378 110.531,266.064 		"/>
		<polygon fill="#7E91C1" points="92.936,233.243 90.527,254.012 100.635,251.378 		"/>
		<polygon fill="#99AAC6" points="92.936,233.243 83.244,242.883 90.527,254.012 		"/>
	</g>
</g>
</svg>
