<?xml version="1.0" encoding="utf-8"?>
<!-- Generator: Adobe Illustrator 16.0.0, SVG Export Plug-In . SVG Version: 6.00 Build 0)  -->
<!DOCTYPE svg PUBLIC "-//W3C//DTD SVG 1.1//EN" "http://www.w3.org/Graphics/SVG/1.1/DTD/svg11.dtd">
<svg version="1.1" id="Capa_1" xmlns="http://www.w3.org/2000/svg" xmlns:xlink="http://www.w3.org/1999/xlink" x="0px" y="0px"
	 width="350px" height="350px" viewBox="0 0 350 350" enable-background="new 0 0 350 350" xml:space="preserve">
<path d="M191.942,210.683l71.715,71.711l16.741-16.74l-72.556-72.557l-15.9,15.904v-37.949v-11.839h3.946v-7.893h-3.946h-7.894
	v-44.003c6.788-1.859,11.84-8.315,11.84-16.042c0-7.771-5.529-26.781-15.786-26.781c-9.088,0-14.459,14.917-15.564,23.722
	c-0.075,0-0.143-0.04-0.221-0.04c-0.079,0-0.146,0.04-0.221,0.043c-1.105-8.804-6.477-23.722-15.565-23.722
	c-9.088,0-14.459,14.918-15.564,23.722c-0.075-0.004-0.143-0.043-0.221-0.043c-0.079,0-0.146,0.04-0.221,0.043
	c-1.105-8.804-6.477-23.722-15.565-23.722c-9.088,0-14.459,14.918-15.564,23.722c-0.075-0.004-0.143-0.043-0.221-0.043
	c-0.079,0-0.146,0.04-0.221,0.043c-1.105-8.804-6.477-23.722-15.565-23.722c-10.257,0-15.786,19.006-15.786,26.781
	c0,7.727,5.051,14.184,11.839,16.042v43.999h-7.893h-3.946v7.893h3.946v11.839v94.715v11.84h-3.946v7.893h3.946h118.395h3.946
	v-7.893h-3.946v-11.84V210.683z M207.843,204.258l61.396,61.396l-5.581,5.58l-61.396-61.391L207.843,204.258z M184.049,206.898
	h-31.571v7.893h31.571v7.893h-31.571v7.894h31.571v7.893h-31.571v7.893h31.571v11.513h-55.25v-78.93h55.25v12.167h-31.571v7.893
	h31.571V206.898z M180.103,72.391c1.871,0,7.894,10.261,7.894,18.888c0,4.819-3.541,8.738-7.894,8.738s-7.893-3.919-7.893-8.738
	C172.21,82.651,178.232,72.391,180.103,72.391z M176.156,107.317v44.003h-7.893v-49.157
	C170.319,104.645,173.039,106.464,176.156,107.317z M160.37,102.163v49.157h-7.893v-44.003
	C155.595,106.464,158.311,104.645,160.37,102.163z M148.531,72.391c1.871,0,7.893,10.261,7.893,18.888
	c0,4.819-3.54,8.738-7.893,8.738c-4.353,0-7.893-3.919-7.893-8.738C140.638,82.651,146.66,72.391,148.531,72.391z M144.584,107.317
	v44.003h-7.893v-49.157C138.748,104.645,141.467,106.464,144.584,107.317z M128.798,102.163v49.157h-7.893v-44.003
	C124.023,106.464,126.739,104.645,128.798,102.163z M116.959,72.391c1.871,0,7.893,10.261,7.893,18.888
	c0,4.819-3.54,8.738-7.893,8.738c-4.353,0-7.893-3.919-7.893-8.738C109.066,82.651,115.088,72.391,116.959,72.391z M113.013,107.317
	v44.003h-7.893v-49.157C107.176,104.645,109.895,106.464,113.013,107.317z M77.495,91.278c0-8.627,6.022-18.888,7.893-18.888
	c1.871,0,7.893,10.261,7.893,18.888c0,4.819-3.54,8.738-7.893,8.738C81.035,100.016,77.495,96.097,77.495,91.278z M89.334,107.317
	c3.118-0.853,5.837-2.676,7.893-5.158v49.161h-7.893V107.317z M81.441,178.945h7.893v78.93h-7.893V178.945z M184.049,277.607H81.441
	v-11.84h15.786v-94.715H81.441v-11.839h102.608v11.839h-63.143v94.715h63.143V277.607z"/>
</svg>
