<?xml version="1.0" encoding="utf-8"?>
<!-- Generator: Adobe Illustrator 16.0.0, SVG Export Plug-In . SVG Version: 6.00 Build 0)  -->
<!DOCTYPE svg PUBLIC "-//W3C//DTD SVG 1.1//EN" "http://www.w3.org/Graphics/SVG/1.1/DTD/svg11.dtd">
<svg version="1.1" id="Capa_1" xmlns="http://www.w3.org/2000/svg" xmlns:xlink="http://www.w3.org/1999/xlink" x="0px" y="0px"
	 width="350px" height="350px" viewBox="0 0 350 350" enable-background="new 0 0 350 350" xml:space="preserve">
<path fill="#ECF0F1" d="M127.523,85.744h-26.587l0,0c-16.78,0-30.385,13.605-30.385,30.385v15.193v46.793
	c0,3.524,2.856,6.381,6.381,6.381h17.624c3.524,0,6.381-2.856,6.381-6.381v-40.412c0-3.524,2.856-6.381,6.381-6.381h20.207V85.744z"
	/>
<path fill="#ECF0F1" d="M222.477,169.303h26.587l0,0c16.781,0,30.386,13.604,30.386,30.386v15.192v46.793
	c0,3.524-2.856,6.381-6.381,6.381h-17.623c-3.525,0-6.382-2.856-6.382-6.381v-40.412c0-3.525-2.855-6.381-6.381-6.381h-20.206
	V169.303z"/>
<rect x="108.532" y="85.744" fill="#D1D4D1" width="7.596" height="45.578"/>
<rect x="233.871" y="169.303" fill="#D1D4D1" width="7.597" height="45.578"/>
<line fill="none" stroke="#D1D4D1" stroke-width="2" stroke-miterlimit="10" x1="264.257" y1="268.055" x2="264.257" y2="287.046"/>
<line fill="none" stroke="#D1D4D1" stroke-width="2" stroke-miterlimit="10" x1="85.744" y1="184.495" x2="85.744" y2="287.046"/>
<path fill="#E3E2E8" d="M184.495,108.532c0-3.198,0.342-6.313,0.977-9.324c0.607-2.895,0.284-5.925-0.882-8.641
	c-6.973-16.233-23.084-27.612-41.874-27.612l0,0c-8.39,0-15.192,6.802-15.192,15.193v60.77c0,8.39,6.802,15.193,15.192,15.193l0,0
	c18.79,0,34.901-11.379,41.874-27.613c1.166-2.715,1.493-5.75,0.882-8.641C184.837,114.845,184.495,111.73,184.495,108.532z"/>
<path fill="#E3E2E8" d="M207.284,146.514c-18.789,0-34.901,11.379-41.875,27.613c-1.166,2.715-1.493,5.747-0.881,8.64
	c0.635,3.013,0.976,6.127,0.976,9.325c0,3.197-0.341,6.313-0.976,9.324c-0.607,2.895-0.285,5.925,0.881,8.641
	c6.973,16.233,23.085,27.612,41.875,27.612l0,0c8.39,0,15.192-6.802,15.192-15.192v-60.77
	C222.477,153.316,215.674,146.514,207.284,146.514L207.284,146.514z"/>
<path fill="#ECF0F1" d="M184.59,90.567c-5.287-12.313-15.838-21.82-28.824-25.702c-3.407,12.135-5.454,27.232-5.454,43.667
	s2.047,31.532,5.454,43.664c12.986-3.882,23.537-13.385,28.824-25.702c1.166-2.716,1.493-5.746,0.882-8.641
	c-0.635-3.008-0.977-6.123-0.977-9.321c0-3.198,0.342-6.313,0.977-9.324C186.079,96.317,185.756,93.283,184.59,90.567z"/>
<path fill="#ECF0F1" d="M165.41,210.057c5.287,12.313,15.837,21.82,28.825,25.702c3.406-12.136,5.454-27.232,5.454-43.667
	s-2.048-31.532-5.454-43.664c-12.987,3.882-23.538,13.385-28.825,25.703c-1.166,2.715-1.493,5.747-0.881,8.64
	c0.635,3.009,0.976,6.123,0.976,9.321c0,3.197-0.341,6.313-0.976,9.324C163.921,204.307,164.244,207.341,165.41,210.057z"/>
</svg>
