<?xml version="1.0" encoding="utf-8"?>
<!-- Generator: Adobe Illustrator 16.0.0, SVG Export Plug-In . SVG Version: 6.00 Build 0)  -->
<!DOCTYPE svg PUBLIC "-//W3C//DTD SVG 1.1//EN" "http://www.w3.org/Graphics/SVG/1.1/DTD/svg11.dtd">
<svg version="1.1" id="Layer_1" xmlns="http://www.w3.org/2000/svg" xmlns:xlink="http://www.w3.org/1999/xlink" x="0px" y="0px"
	 width="350px" height="350px" viewBox="0 0 350 350" enable-background="new 0 0 350 350" xml:space="preserve">
<g>
	<path fill="#2B2B2B" d="M175,76.353c-54.395,0-98.647,44.252-98.647,98.647c0,54.394,44.252,98.647,98.647,98.647
		c54.394,0,98.648-44.254,98.648-98.647C273.647,120.604,229.394,76.353,175,76.353z"/>
	<path fill="#8E8E8E" d="M82.152,175c0-51.197,41.65-92.848,92.847-92.848c13.327,0,26.004,2.827,37.471,7.904
		c-0.081,3.027-1.629,5.924-4.42,8.195c-3.114,2.534-7.33,3.971-11.865,4.045c-9.117,0.151-16.596-5.28-16.707-12.099
		c-0.025-1.602-1.352-2.888-2.946-2.853c-1.602,0.026-2.878,1.346-2.853,2.948c0.163,9.893,10.055,17.806,22.147,17.806
		c0.149,0,0.303-0.002,0.451-0.003c5.833-0.097,11.313-1.995,15.434-5.348c3.392-2.759,5.554-6.239,6.29-10.017
		c29.604,15.535,49.845,46.579,49.845,82.268c0,20.894-6.939,40.198-18.634,55.732c-0.354-1.356-1.009-2.572-1.997-3.562
		c-1.522-1.52-3.61-2.324-6.039-2.324c-3.95,0-8.471,2.16-12.09,5.78c-2.704,2.704-4.621,5.932-5.401,9.087
		c-0.892,3.62-0.184,6.917,1.942,9.043c0.877,0.875,1.945,1.504,3.151,1.888c-15.184,10.826-33.751,17.204-53.78,17.204
		C123.803,267.849,82.152,226.196,82.152,175z"/>
	<path fill="#8E8E8E" d="M229.317,241.102c0.52-2.111,1.932-4.435,3.87-6.373c2.48-2.48,5.615-4.083,7.989-4.083
		c0.869,0,1.523,0.211,1.938,0.627c1.496,1.496,0.313,6.158-3.456,9.927c-2.48,2.48-5.616,4.083-7.991,4.083
		c-0.869,0-1.522-0.211-1.938-0.626C229.072,243.999,228.924,242.704,229.317,241.102z"/>
	<path fill="#2B2B2B" d="M129.051,120.738c1.274-3.931,0.784-7.289-1.384-9.456c-2.512-2.511-6.626-2.759-11.288-0.678
		c-1.463,0.652-2.119,2.367-1.467,3.829c0.653,1.464,2.367,2.12,3.83,1.468c2.425-1.083,4.262-1.08,4.824-0.519
		c1.069,1.068,0.029,6.036-4.879,10.943c-4.908,4.909-9.874,5.949-10.944,4.881c-0.423-0.423-0.578-1.691,0.031-3.566
		c0.494-1.523-0.34-3.158-1.863-3.653c-1.522-0.495-3.158,0.339-3.653,1.862c-1.275,3.932-0.784,7.29,1.384,9.459
		c1.377,1.377,3.237,2.077,5.418,2.077c1.25,0,2.606-0.229,4.038-0.695c3.27-1.06,6.711-3.283,9.689-6.263
		C125.766,127.449,127.99,124.007,129.051,120.738z"/>
	<path fill="#2B2B2B" d="M130.963,189.541c1.368-0.83,1.804-2.614,0.974-3.983c-0.832-1.368-2.615-1.804-3.983-0.974
		c-7.839,4.759-11.975,14.011-10.29,23.024c0.261,1.394,1.478,2.367,2.848,2.367c0.176,0,0.355-0.017,0.536-0.051
		c1.574-0.295,2.611-1.81,2.317-3.383C122.121,199.887,125.174,193.055,130.963,189.541z"/>
	<path fill="#2B2B2B" d="M158.401,192.027c-2.712-4.466-6.929-7.842-11.876-9.505c-1.519-0.508-3.162,0.309-3.672,1.825
		c-0.51,1.519,0.307,3.162,1.825,3.673c3.652,1.228,6.764,3.719,8.767,7.019c4.684,7.713,2.217,17.797-5.497,22.481
		c-5.636,3.42-12.732,3.138-18.078-0.721c-1.299-0.938-3.111-0.645-4.047,0.655c-0.938,1.297-0.644,3.111,0.654,4.048
		c3.869,2.791,8.414,4.2,12.973,4.2c3.972,0,7.955-1.07,11.507-3.227C161.403,216.135,164.743,202.475,158.401,192.027z"/>
	<path fill="#2B2B2B" d="M232.281,168.186c0.815,0,1.641-0.088,2.465-0.272c4.797-1.068,8.397-5.088,9.176-10.239
		c0.239-1.585-0.851-3.062-2.435-3.3c-1.582-0.24-3.061,0.851-3.301,2.434c-0.416,2.765-2.263,4.902-4.699,5.445
		c-3.394,0.755-6.852-1.768-7.709-5.623c-0.428-1.915-0.153-3.854,0.768-5.456c0.872-1.52,2.23-2.551,3.826-2.906
		c1.591-0.357,3.262,0.002,4.695,1.008c1.312,0.919,3.119,0.601,4.039-0.712c0.918-1.312,0.6-3.12-0.711-4.039
		c-2.786-1.95-6.082-2.63-9.285-1.917c-3.204,0.713-5.901,2.729-7.594,5.677c-1.645,2.862-2.141,6.273-1.399,9.607
		C221.475,163.985,226.651,168.186,232.281,168.186z"/>
	<path fill="#2B2B2B" d="M96.683,198.894c-1.547,0.413-2.468,2.003-2.056,3.549c0.412,1.547,2,2.47,3.548,2.057
		c0.787-0.208,2.382,1.018,3.001,3.341c0.315,1.184,0.296,2.394-0.053,3.317c-0.22,0.583-0.552,0.983-0.889,1.074
		c-1.548,0.411-2.467,1.999-2.056,3.549c0.345,1.297,1.518,2.153,2.8,2.153c0.247,0,0.499-0.031,0.749-0.099
		c2.171-0.579,3.929-2.267,4.821-4.629c0.779-2.062,0.861-4.496,0.232-6.859C105.366,201.039,100.931,197.762,96.683,198.894z"/>
	<path fill="#2B2B2B" d="M204.891,154.419c1.132,1.132,2.97,1.132,4.101,0c1.132-1.133,1.132-2.969,0-4.101
		c-9.986-9.987-26.237-9.987-36.224,0s-9.987,26.237,0,36.224c4.993,4.993,11.552,7.491,18.112,7.491
		c6.559,0,13.119-2.498,18.112-7.491c1.132-1.132,1.132-2.967,0-4.101c-1.131-1.131-2.967-1.131-4.101,0
		c-7.726,7.726-20.297,7.728-28.022,0c-7.726-7.726-7.726-20.297,0-28.022C184.594,146.693,197.165,146.692,204.891,154.419z"/>
	<path fill="#2B2B2B" d="M213.595,165.53c-1.601,0-2.899,1.298-2.899,2.901c0,1.179-0.105,2.364-0.316,3.522
		c-0.281,1.576,0.767,3.085,2.344,3.368c0.174,0.031,0.345,0.046,0.516,0.046c1.376,0,2.598-0.984,2.851-2.387
		c0.269-1.498,0.406-3.028,0.406-4.55C216.495,166.828,215.195,165.53,213.595,165.53z"/>
	<path fill="#2B2B2B" d="M161.839,257.319c-1.261,0.987-1.482,2.809-0.495,4.07c0.987,1.26,2.808,1.483,4.07,0.497
		c3.735-2.924,9.153-2.266,12.076,1.469c0.574,0.731,1.426,1.113,2.285,1.111c0.624,0,1.256-0.199,1.786-0.615
		c1.261-0.986,1.483-2.811,0.495-4.07C177.162,253.529,168.092,252.425,161.839,257.319z"/>
	<path opacity="0.18" fill="#2B2B2B" d="M82.152,176.165c1.164,53.602,44.483,92.454,93.463,91.684V82.153
		C127.406,81.017,80.985,122.455,82.152,176.165z"/>
</g>
</svg>
