<?xml version="1.0" encoding="utf-8"?>
<!-- Generator: Adobe Illustrator 16.0.0, SVG Export Plug-In . SVG Version: 6.00 Build 0)  -->
<!DOCTYPE svg PUBLIC "-//W3C//DTD SVG 1.1//EN" "http://www.w3.org/Graphics/SVG/1.1/DTD/svg11.dtd">
<svg version="1.1" id="Layer_1" xmlns="http://www.w3.org/2000/svg" xmlns:xlink="http://www.w3.org/1999/xlink" x="0px" y="0px"
	 width="350px" height="350px" viewBox="0 0 350 350" enable-background="new 0 0 350 350" xml:space="preserve">
<g>
	<path fill="#505050" d="M201.984,286.796c-27.507,0-49.761-10.341-64.341-29.906c-12.556-16.846-19.191-39.91-19.191-66.696
		c0-60.064,34.307-126.989,83.533-126.989c43.339,0,75.728,68.415,75.728,129.583c0,26.173-5.92,48.591-17.125,64.848
		C247.258,276.986,227.54,286.796,201.984,286.796z M201.984,69.527c-45.504,0-77.21,63.592-77.21,120.666
		c0,25.415,6.208,47.171,17.94,62.917c13.337,17.898,33.838,27.362,59.27,27.362c23.349,0,41.321-8.892,53.399-26.424
		c10.473-15.198,16.005-36.378,16.005-61.262C271.389,134.604,241.709,69.527,201.984,69.527z"/>
	<path fill="#505050" d="M199.638,76.935c0,0.005,3.754-0.734,9.196,0.678c2.692,0.689,5.805,1.834,8.843,3.59
		c3.096,1.689,6.034,4.061,8.743,6.636c1.251,1.394,2.561,2.727,3.672,4.185c1.079,1.479,2.141,2.938,3.038,4.419
		c0.856,1.511,1.598,3.013,2.313,4.423c0.675,1.42,1.136,2.857,1.598,4.146c1.013,2.542,1.292,4.87,1.605,6.428
		c0.255,1.581,0.329,2.493,0.329,2.493s-0.626-0.702-1.622-1.936c-1.013-1.223-2.215-3.068-3.886-5.094
		c-0.823-1.015-1.646-2.145-2.528-3.308c-0.946-1.126-1.959-2.291-2.906-3.544c-2.058-2.398-4.265-4.858-6.578-7.221
		c-2.388-2.274-4.783-4.553-7.245-6.448c-2.379-2.021-4.832-3.608-6.957-5.062C202.956,78.559,199.638,76.935,199.638,76.935z"/>
	<path fill="#505050" d="M174.313,77.135c-7.451-5.354-15.527-8.418-23.999-8.418c-82.8,0-123.314,212.563,0,212.563
		c9.279,0,17.495-1.433,24.757-4.021C97.219,251.851,117.628,112.895,174.313,77.135z M140.912,271.939
		c-1.762,0.008-3.911-0.054-6.389-0.255c-2.445-0.379-5.269-0.709-8.208-1.685c-1.515-0.366-3.022-0.95-4.569-1.593
		c-1.589-0.568-3.137-1.375-4.693-2.256c-3.178-1.663-6.282-3.886-9.221-6.479c-2.915-2.618-5.738-5.536-8.134-8.851
		c-2.429-3.289-4.644-6.792-6.554-10.439c-1.877-3.663-3.458-7.438-4.841-11.205c-1.392-3.767-2.429-7.574-3.334-11.255
		c-1.803-7.376-2.7-14.383-3.104-20.393c-0.881-12.024,0.338-19.986,0.338-19.986s1.144,7.925,3.647,19.418
		c1.293,5.747,2.89,12.391,5.088,19.314c1.038,3.475,2.388,6.966,3.722,10.497c1.375,3.524,2.939,7.023,4.734,10.37
		c1.704,3.396,3.656,6.647,5.796,9.674c1.054,1.535,2.256,2.91,3.31,4.388c1.21,1.321,2.33,2.746,3.589,3.956
		c2.511,2.429,5.031,4.734,7.723,6.509c1.309,0.95,2.635,1.79,3.985,2.498c1.317,0.782,2.61,1.52,3.936,2.046
		c2.577,1.256,5.096,2.021,7.327,2.828c2.281,0.576,4.298,1.132,5.969,1.507c3.425,0.597,5.376,0.947,5.376,0.947
		S144.443,271.7,140.912,271.939z"/>
</g>
</svg>
