<?xml version="1.0" encoding="utf-8"?>
<!-- Generator: Adobe Illustrator 16.0.0, SVG Export Plug-In . SVG Version: 6.00 Build 0)  -->
<!DOCTYPE svg PUBLIC "-//W3C//DTD SVG 1.1//EN" "http://www.w3.org/Graphics/SVG/1.1/DTD/svg11.dtd">
<svg version="1.1" id="Layer_1" xmlns="http://www.w3.org/2000/svg" xmlns:xlink="http://www.w3.org/1999/xlink" x="0px" y="0px"
	 width="350px" height="350px" viewBox="0 0 350 350" enable-background="new 0 0 350 350" xml:space="preserve">
<g>
	<path fill="#1D1D1B" d="M239.285,155.702c22.718,31.607,51.001,85.271,12.093,116.143c-75.108,59.614-114.014-78.275-132.521-124.1
		c-0.271-0.657-0.194-1.238,0-1.777c-0.271,0.076-0.501,0.155-0.773,0.23c-0.387,0.154-0.734,0.117-1.043-0.038
		c0.424,1.004-0.31,2.551-1.545,2.396c-22.757-3.052-20.052-35.429-10.083-50.147c-10.974-2.128-20.478-9.354-25.617-19.435
		c-0.54-1.083-0.694-2.475,0-3.554c3.633-5.331,8.925-8.848,14.643-11.628c1.392-0.66,3.169-0.389,3.941,1.042
		c4.675,8.576,14.296,11.666,20.438,18.699c15.918-10.006,34.233-9.542,49.068,2.241c0.696,0.581,1.004,1.313,1.004,2.049
		c0.888,0.501,1.547,1.388,1.624,2.434c0.076,1.698-0.194,3.554-0.696,5.41c0.232-0.079,0.501-0.154,0.811-0.117
		c11.398,0.928,25.191,16.266,33.804,23.144C217.768,129.355,229.238,141.795,239.285,155.702z M246.164,265.083
		c40.334-31.101-1.083-93.036-26.004-120.775c-8.927-9.968-18.586-18.507-29.092-26.815c-5.681-4.482-11.514-8.886-17.155-13.443
		c-1.43-1.162-2.86-2.166-4.058-3.633c-0.424-0.54-0.579-0.887-0.54-1.121c-0.078-0.076-0.155-0.076-0.194-0.155
		c-0.115-0.117-0.192-0.271-0.27-0.426c-1.816,4.754-4.792,9.466-7.38,12.753c-4.675,5.988-9.929,10.893-17.037,13.752
		c-2.667,1.045-3.903-2.935-1.817-4.365c6.607-4.558,11.514-9.697,15.339-16.805c2.279-4.135,3.592-9.082,6.065-13.138
		c-0.04,0-0.078,0-0.078-0.038c-13.213-9.852-28.204-9.157-42.769-2.743c-0.889,0.385-1.662,0.268-2.319-0.042
		c-0.656,0.464-1.507,0.581-2.396-0.075c-7.38-5.294-15.996-10.354-21.405-17.813c-3.013,1.856-5.795,4.06-7.882,6.878
		c6.22,7.961,12.519,13.949,22.371,17.579c0.851,0.31,1.313,1.083,1.467,1.856c1.198,1.003,1.894,2.664,0.774,4.094
		c-10.393,13.987-8.656,33.421,4.482,44.703c-0.271-0.694-0.154-1.585,0.617-1.97c2.358-1.275,6.299-2.204,8.076-4.252
		c0.54-0.656-1.702-5.176-1.854-6.063c-1.121-5.758-0.851-12.096-3.517-17.386c-1.39-2.822,2.086-5.72,4.443-3.441
		c4.907,4.867,12.674,5.795,17.154,11.126c1.739,2.049-0.502,5.565-2.975,3.905c-3.438-2.241-7.071-4.098-10.625-6.105
		c1.005,5.214,1.121,10.663,3.594,15.492c0.811,1.585,0.31,3.169-1.083,4.173c-2.124,1.505-4.094,2.471-6.18,3.282
		c0.385,0.271,0.734,0.619,0.966,1.121C142.541,185.416,180.019,316.084,246.164,265.083z"/>
	<path fill="#99B815" d="M123.108,133.026c-1.121-5.758-0.851-12.096-3.517-17.386c-1.39-2.822,2.086-5.72,4.443-3.441
		c4.454,4.418,11.24,5.625,15.811,9.795c0.704-0.204,1.858,3.758,2.583,3.625c0.16-0.245-0.07-4.588,0.19-4.765
		c6.607-4.558,11.514-9.697,15.339-16.805c2.279-4.135,3.592-9.082,6.065-13.138c-0.04,0-0.078,0-0.078-0.038
		c-13.213-9.852-28.204-9.157-42.769-2.743c-0.889,0.385-1.662,0.268-2.319-0.042c-0.656,0.464-1.507,0.581-2.396-0.075
		c-7.38-5.294-15.996-10.354-21.405-17.813c-3.013,1.856-5.795,4.06-7.882,6.878c6.22,7.961,12.519,13.949,22.371,17.579
		c0.851,0.31,1.313,1.083,1.467,1.856c1.198,1.003,1.894,2.664,0.774,4.094c-10.393,13.987-8.656,33.421,4.482,44.703
		c-0.271-0.694-0.154-1.585,0.617-1.97c2.358-1.275,6.299-2.204,8.076-4.252C125.502,138.433,123.261,133.913,123.108,133.026z"/>
	<path fill="#951B81" d="M220.16,144.308c-8.927-9.968-18.586-18.507-29.092-26.815c-5.681-4.482-11.514-8.886-17.155-13.443
		c-1.43-1.162-2.86-2.166-4.058-3.633c-0.424-0.54-0.579-0.887-0.54-1.121c-0.078-0.076-0.155-0.076-0.194-0.155
		c-0.115-0.117-0.192-0.271-0.27-0.426c-1.816,4.754-4.792,9.466-7.38,12.753c-4.675,5.988-9.929,10.893-17.037,13.752
		c-0.577,0.227-1.072,0.185-1.494,0.015c-0.406,0.076-0.81,0.151-1.208,0.242c-0.268,1.588-1.822,2.894-3.52,1.754
		c-3.438-2.241-7.071-4.098-10.625-6.105c1.005,5.214,1.121,10.663,3.594,15.492c0.811,1.585,0.31,3.169-1.083,4.173
		c-2.124,1.505-4.094,2.471-6.18,3.282c0.385,0.271,0.734,0.619,0.966,1.121c17.656,40.222,55.134,170.89,121.279,119.889
		C286.498,233.982,245.081,172.047,220.16,144.308z"/>
</g>
</svg>
