<?xml version="1.0" encoding="utf-8"?>
<!-- Generator: Adobe Illustrator 16.0.0, SVG Export Plug-In . SVG Version: 6.00 Build 0)  -->
<!DOCTYPE svg PUBLIC "-//W3C//DTD SVG 1.1//EN" "http://www.w3.org/Graphics/SVG/1.1/DTD/svg11.dtd">
<svg version="1.1" id="Layer_1" xmlns="http://www.w3.org/2000/svg" xmlns:xlink="http://www.w3.org/1999/xlink" x="0px" y="0px"
	 width="350px" height="350px" viewBox="0 0 350 350" enable-background="new 0 0 350 350" xml:space="preserve">
<g>
	<g>
		<g>
			<path d="M151.097,185.948c-2.175-2.176-5.699-2.176-7.874,0c-2.175,2.175-2.175,5.699,0,7.873l11.136,11.136
				c1.088,1.088,2.513,1.632,3.937,1.632c1.425,0,2.85-0.544,3.937-1.632c2.175-2.175,2.175-5.698,0-7.873L151.097,185.948z"/>
			<path d="M147.16,217.725c1.424,0,2.849-0.543,3.937-1.631c2.175-2.175,2.175-5.698,0-7.874l-11.136-11.136
				c-2.175-2.175-5.699-2.175-7.874,0c-2.175,2.176-2.175,5.699,0,7.874l11.136,11.136
				C144.311,217.182,145.735,217.725,147.16,217.725z"/>
			<path d="M295.867,70.84l-16.704-16.705c-1.778-1.784-4.519-2.148-6.699-0.897l-38.977,22.272
				c-1.735,0.989-2.807,2.839-2.807,4.833v8.831l-52.266,52.26l-3.866-19.309c-1.381-8.08-8.216-13.941-16.253-13.941
				c-8.036,0-14.872,5.861-16.291,14.175l-5.541,43.272l-74.621,33.475c-5.764,2.859-9.342,8.559-9.342,14.872
				c0,7.873,5.503,14.508,13.872,16.22l48.367,5.563l11.169,50.413c2.327,6.774,8.629,11.326,15.682,11.326
				c6.183,0,11.827-3.491,15.002-9.712l28.232-74.892l35.578-11.349c6.242-2.61,10.277-8.656,10.277-15.41
				c0-9.212-7.493-16.705-16.704-16.705h-3.263l50.112-50.113h8.831c1.996,0,3.845-1.071,4.834-2.806l22.272-38.977
				C298.01,75.358,297.646,72.612,295.867,70.84z M266.428,108.185h-7.906c-1.479,0-2.893,0.587-3.938,1.631l-61.248,61.25
				c-1.593,1.593-2.072,3.986-1.208,6.069c0.859,2.082,2.894,3.436,5.144,3.436h16.704c3.072,0,5.569,2.495,5.569,5.568
				c0,2.245-1.349,4.263-2.98,4.964l-37.688,12.002c-1.62,0.517-2.92,1.75-3.519,3.344l-28.917,76.816
				c-2.159,4.17-8.663,3.083-9.826-0.098l-11.859-53.686c-0.512-2.321-2.442-4.057-4.802-4.329l-51.815-5.938
				c-2.653-0.549-4.502-2.702-4.502-5.236c0-2.056,1.207-3.931,2.958-4.807l77.274-34.659c1.767-0.794,2.996-2.447,3.246-4.372
				l5.9-46.133c0.473-2.762,2.643-4.687,5.28-4.687s4.807,1.925,5.307,4.839l5.938,29.663c0.402,2.012,1.881,3.643,3.844,4.236
				c1.968,0.604,4.1,0.06,5.552-1.392l61.248-61.25c1.044-1.044,1.632-2.458,1.632-3.937v-7.906l32.479-18.559l10.69,10.69
				L266.428,108.185z"/>
			<circle cx="147.16" cy="236.249" r="5.568"/>
		</g>
	</g>
</g>
</svg>
