<?xml version="1.0" encoding="utf-8"?>
<!-- Generator: Adobe Illustrator 16.0.0, SVG Export Plug-In . SVG Version: 6.00 Build 0)  -->
<!DOCTYPE svg PUBLIC "-//W3C//DTD SVG 1.1//EN" "http://www.w3.org/Graphics/SVG/1.1/DTD/svg11.dtd">
<svg version="1.1" id="Capa_1" xmlns="http://www.w3.org/2000/svg" xmlns:xlink="http://www.w3.org/1999/xlink" x="0px" y="0px"
	 width="350px" height="350px" viewBox="0 0 350 350" enable-background="new 0 0 350 350" xml:space="preserve">
<g>
	<path fill="#ED7161" d="M98.45,245.746l50.958-50.958c-1.069-2.605-1.737-5.402-1.947-8.263c-0.476-6.423-0.04-15.501,3.426-26.539
		c2.543-8.103-2.94-16.936-11.395-17.746c-4.958-0.477-10.819,1.657-16.998,9.559c0,0-12.45,40.904-33.978,46.668
		c-9.889,2.65-19.47,6.562-27.052,13.442c-12.178,11.057-22.793,29.396-8.08,55.627c5.118,9.131,12.218,17.021,20.49,23.435
		c2.423,1.88,5.171,3.853,8.187,5.755c5.243,3.314,10.793,5.417,16.388,6.534V245.746L98.45,245.746z"/>
</g>
<path fill="#ECF0F1" d="M172.887,208.494c0,0-6.347,2.014-14.103-2.583c-4.338-2.57-7.497-6.544-9.381-11.123l-50.958,50.958v57.524
	c26.12,5.225,53.336-12.174,56.036-40.994c0.036-0.36,0.066-0.722,0.093-1.091c1.252-16.633,11.225-31.568,26.895-37.271
	c1.564-0.569,3.203-1.096,4.928-1.567c4.552-1.252,7.72-5.915,6.338-10.433C191.492,207.809,186.766,204.655,172.887,208.494z"/>
<polygon fill="#E4C05C" points="233.306,76.988 228.852,72.534 228.852,63.625 233.306,59.17 242.215,59.17 246.669,63.625 
	246.669,72.534 242.215,76.988 "/>
<polygon fill="#E4C05C" points="260.032,63.625 255.578,59.17 255.578,50.262 260.032,45.807 268.941,45.807 273.395,50.262 
	273.395,59.17 268.941,63.625 "/>
<path fill="#7F6E5D" d="M219.194,139.323l28.833-33.399c-10.784,0.86-19.154-8.882-18.842-18.953l-28.789,33.648
	c0.089,0.076,0.206,0.106,0.289,0.191L219.194,139.323z"/>
<path fill="#7F6E5D" d="M177.203,147.723l-11.662,13.631c0.089,0.076,0.205,0.106,0.29,0.191l18.344,18.347l11.719-13.577
	c-0.085-0.071-0.191-0.102-0.275-0.183L177.203,147.723z"/>
<path fill="#7F6E5D" d="M159.778,168.093l-12.455,14.557c0.013,1.371,0.053,2.687,0.142,3.875
	c0.584,7.889,4.521,15.354,11.328,19.386c0.699,0.414,1.367,0.717,2.036,1.029l17.554-20.335c-0.084-0.07-0.19-0.103-0.271-0.183
	L159.778,168.093z"/>
<path fill="#7F6E5D" d="M194.633,127.354l-11.666,13.635c0.09,0.076,0.205,0.107,0.29,0.191l18.427,18.428l11.716-13.572
	c-0.085-0.071-0.192-0.103-0.271-0.183L194.633,127.354z"/>
<g>
	<path fill="#494038" d="M200.686,120.81c-0.083-0.084-0.2-0.116-0.289-0.191l-5.764,6.735l18.5,18.499
		c0.079,0.08,0.187,0.107,0.271,0.183l5.796-6.712L200.686,120.81z"/>
	<path fill="#494038" d="M182.967,140.988l-5.764,6.735l18.415,18.415c0.079,0.08,0.187,0.107,0.275,0.183l5.795-6.713
		l-18.428-18.428C183.172,141.095,183.057,141.064,182.967,140.988z"/>
	<path fill="#494038" d="M165.542,161.354l-5.764,6.735l18.33,18.334c0.08,0.08,0.187,0.106,0.271,0.183l5.796-6.713l-18.344-18.347
		C165.742,161.46,165.631,161.434,165.542,161.354z"/>
</g>
<path fill="#E4C05C" d="M99.358,251.113c-1.14,0-2.28-0.437-3.149-1.305c-1.742-1.741-1.742-4.557,0-6.298l40.45-40.45
	c1.742-1.742,4.557-1.742,6.299,0c1.742,1.741,1.742,4.556,0,6.298l-40.45,40.45C101.639,250.677,100.499,251.113,99.358,251.113z"
	/>
<path fill="#E4C05C" d="M89.911,241.666c-1.14,0-2.281-0.437-3.149-1.305c-1.741-1.741-1.741-4.558,0-6.299l44.905-44.905
	c1.742-1.741,4.557-1.741,6.299,0c1.741,1.742,1.741,4.558,0,6.299L93.06,240.361C92.191,241.229,91.051,241.666,89.911,241.666z"/>
<path fill="#E4C05C" d="M108.811,260.562c-1.14,0-2.281-0.437-3.149-1.306c-1.742-1.741-1.742-4.557,0-6.298l40.45-40.45
	c1.742-1.741,4.557-1.741,6.299,0c1.741,1.741,1.741,4.557,0,6.299l-40.45,40.449C111.087,260.125,109.951,260.562,108.811,260.562z
	"/>
<polygon fill="#35495E" points="105.652,279.182 67.857,241.386 80.463,227.76 118.258,265.555 "/>
<path fill="#CBB292" d="M303.124,52.622c-1.266-3.804-4.405-7.43-11.911-6.73c0,0-7.475,0.637-17.947,4.24l0.129,0.129v8.909
	l-4.453,4.454h-8.909l-4.454-4.454v-0.913c-2.949,1.724-5.929,3.697-8.909,5.929v8.348l-4.454,4.454h-8.909l-0.267-0.267
	c-10.784,13.265,2.254,33.978,19.011,28.472c2.12-0.695,4.271-1.737,6.384-3.234c2.935-2.08,5.015-5.167,6.102-8.597
	c1.137-3.577,1.894-8.793,7.207-13.737c2.683-2.495,8.406-4.606,12.812-6.405c3.443-1.408,9.772-0.58,15.114-6.356
	C303.204,63.037,304.768,57.567,303.124,52.622z"/>
</svg>
