<?xml version="1.0" encoding="utf-8"?>
<!-- Generator: Adobe Illustrator 16.0.0, SVG Export Plug-In . SVG Version: 6.00 Build 0)  -->
<!DOCTYPE svg PUBLIC "-//W3C//DTD SVG 1.1//EN" "http://www.w3.org/Graphics/SVG/1.1/DTD/svg11.dtd">
<svg version="1.1" id="Layer_1" xmlns="http://www.w3.org/2000/svg" xmlns:xlink="http://www.w3.org/1999/xlink" x="0px" y="0px"
	 width="350px" height="350px" viewBox="0 0 350 350" enable-background="new 0 0 350 350" xml:space="preserve">
<g>
	<path fill="#CCD1D9" d="M133.681,92.369c-2.845,0-5.159-2.308-5.159-5.159V66.55c0-2.852,2.314-5.167,5.159-5.167
		c2.859,0,5.174,2.315,5.174,5.167v20.66C138.855,90.061,136.54,92.369,133.681,92.369z"/>
	<path fill="#CCD1D9" d="M216.321,92.369c-2.859,0-5.176-2.308-5.176-5.159V66.55c0-2.852,2.314-5.167,5.176-5.167
		c2.844,0,5.158,2.315,5.158,5.167v20.66C221.479,90.061,219.165,92.369,216.321,92.369z"/>
</g>
<path fill="#FFCE54" d="M185.335,82.043c-1.332,0-2.648-0.507-3.662-1.513l-17.006-17.006l-6.672,6.68
	c-0.968,0.968-2.285,1.514-3.646,1.514h-5.175c-2.845,0-5.159-2.315-5.159-5.167s2.315-5.167,5.159-5.167h3.026l8.82-8.813
	c2.012-2.02,5.288-2.02,7.308,0l17.006,17.006l6.673-6.68c0.968-0.968,2.285-1.513,3.646-1.513h5.174c2.845,0,5.16,2.315,5.16,5.167
	s-2.315,5.167-5.16,5.167h-3.025l-8.82,8.813C187.975,81.536,186.65,82.043,185.335,82.043z"/>
<path fill="#434A54" d="M221.479,185.326v-15.493c0-2.852-2.314-5.159-5.158-5.159h-82.641c-2.845,0-5.159,2.307-5.159,5.159v15.493
	c-2.853,0-5.16,2.315-5.16,5.168v82.631c0,2.853,2.308,5.16,5.16,5.16v5.166c0,8.542,6.952,15.493,15.493,15.493h61.972
	c8.549,0,15.493-6.951,15.493-15.493v-5.166c2.853,0,5.159-2.309,5.159-5.16v-82.631
	C226.639,187.642,224.332,185.326,221.479,185.326z"/>
<g>
	<path fill="#656D78" d="M133.681,247.298h-10.319v10.334h10.319c2.859,0,5.174-2.313,5.174-5.166S136.54,247.298,133.681,247.298z"
		/>
	<path fill="#656D78" d="M133.681,226.646h-10.319v10.326h10.319c2.859,0,5.174-2.314,5.174-5.167
		C138.855,228.955,136.54,226.646,133.681,226.646z"/>
	<path fill="#656D78" d="M133.681,205.987h-10.319v10.325h10.319c2.859,0,5.174-2.308,5.174-5.159
		C138.855,208.295,136.54,205.987,133.681,205.987z"/>
	<path fill="#656D78" d="M216.321,216.313h10.317v-10.325h-10.317c-2.859,0-5.176,2.308-5.176,5.166
		C211.146,214.006,213.462,216.313,216.321,216.313z"/>
	<path fill="#656D78" d="M216.321,236.973h10.317v-10.326h-10.317c-2.859,0-5.176,2.309-5.176,5.159
		C211.146,234.658,213.462,236.973,216.321,236.973z"/>
	<path fill="#656D78" d="M216.321,257.632h10.317v-10.334h-10.317c-2.859,0-5.176,2.315-5.176,5.168
		S213.462,257.632,216.321,257.632z"/>
</g>
<path fill="#ED5564" d="M185.335,231.806c0,5.704-4.63,10.333-10.334,10.333c-5.704,0-10.333-4.629-10.333-10.333
	c0-5.703,4.629-10.326,10.333-10.326C180.705,221.479,185.335,226.103,185.335,231.806z"/>
<path fill="#DA4453" d="M175,247.298c-8.541,0-15.493-6.951-15.493-15.492c0-8.54,6.952-15.493,15.493-15.493
	c8.548,0,15.494,6.953,15.494,15.493C190.494,240.347,183.549,247.298,175,247.298z M175,226.646c-2.845,0-5.16,2.315-5.16,5.159
	c0,2.853,2.315,5.167,5.16,5.167c2.844,0,5.16-2.314,5.16-5.167C180.16,228.962,177.845,226.646,175,226.646z"/>
<path fill="#656D78" d="M231.813,82.043h-15.492c-2.604,0-4.796,1.929-5.13,4.509c-0.015,0.091-1.256,9.433-6.521,18.776
	c-6.748,11.96-16.733,18.027-29.669,18.027c-12.845,0-22.778-5.977-29.526-17.778c-5.333-9.335-6.649-18.942-6.665-19.025
	c-0.333-2.58-2.527-4.509-5.129-4.509h-15.493c-2.845,0-5.159,2.308-5.159,5.167v61.972c0,1.112,0.363,2.202,1.029,3.095
	l15.493,20.66c0.983,1.301,2.512,2.065,4.13,2.065h82.641c1.618,0,3.146-0.764,4.13-2.065l15.492-20.66
	c0.665-0.893,1.028-1.982,1.028-3.095V87.209C236.972,84.35,234.656,82.043,231.813,82.043z"/>
<path fill="#434A54" d="M200.268,154.129h-51.215c-2.845,0-5.159-2.315-5.159-5.167c0-2.852,2.315-5.167,5.159-5.167h51.214
	c2.853,0,5.168,2.315,5.168,5.167C205.435,151.814,203.119,154.129,200.268,154.129z"/>
</svg>
