<?xml version="1.0" encoding="utf-8"?>
<!-- Generator: Adobe Illustrator 16.0.0, SVG Export Plug-In . SVG Version: 6.00 Build 0)  -->
<!DOCTYPE svg PUBLIC "-//W3C//DTD SVG 1.1//EN" "http://www.w3.org/Graphics/SVG/1.1/DTD/svg11.dtd">
<svg version="1.1" id="Layer_1" xmlns="http://www.w3.org/2000/svg" xmlns:xlink="http://www.w3.org/1999/xlink" x="0px" y="0px"
	 width="350px" height="350px" viewBox="0 0 350 350" enable-background="new 0 0 350 350" xml:space="preserve">
<g>
	<path d="M267.757,186.442l28.712,7.472c9.149-29.514-3.918-45.562-4.127-45.812c-0.526-0.62-0.823-1.409-0.829-2.225
		c0-0.25-0.554-26.135-23.506-47.998c-18.469-17.592-45.771-27.824-81.34-30.583c-0.276,0.263-0.566,0.506-0.938,0.668
		c-38.98,17.528-58.959,37.052-59.405,58.034c-0.654,31.105,41.55,57.888,56.263,66.262v-81.306c0-1.906,1.544-3.454,3.452-3.454
		c1.915,0,3.452,1.548,3.452,3.454v87.125c0,0.04-0.021,0.074-0.021,0.107c-0.007,0.216-0.074,0.432-0.135,0.647
		c-0.061,0.229-0.074,0.473-0.188,0.688c-0.021,0.033-0.014,0.067-0.027,0.094c-0.161,0.331-0.37,0.607-0.613,0.856
		c-0.054,0.054-0.114,0.088-0.176,0.135c-0.242,0.223-0.512,0.405-0.802,0.547c-0.102,0.047-0.202,0.087-0.311,0.135
		c-0.377,0.135-0.769,0.235-1.173,0.235c-0.007,0-0.007,0-0.014,0l0,0l0,0c-0.404,0-0.815-0.094-1.214-0.242
		c-0.067-0.027-0.128-0.048-0.202-0.074c-0.047-0.021-0.088-0.027-0.135-0.054c-2.69-1.355-65.946-33.526-65.069-75.312
		c0.452-21.815,18.381-41.716,53.208-59.268c-5.9-0.135-12.002-0.084-18.313,0.155c-41.334,1.551-70.679,14.1-87.199,37.309
		c-26.729,37.536-10.903,90.873-10.742,91.412l21.854,58.182l17.599-0.129l11.025-18.01c0.667-1.086,1.8-1.746,3.149-1.646
		c1.274,0.074,2.4,0.843,2.933,2.003l8.611,18.738l19.844,0.601l1.956-4.127c0.627-1.321,1.962-2.063,3.364-1.962
		c-2.002-4.235-6.365-15.617-0.654-25.172c5.482-9.187,18.395-13.604,38.354-13.03c17.053,0.458,25.859,3.891,27.72,10.795
		c3.237,11.992-19.642,26.867-24.268,29.727c-1.625,1.005-3.749,0.506-4.754-1.119c-1.004-1.618-0.499-3.749,1.12-4.754
		c9.764-6.049,22.582-17.087,21.233-22.057c-0.668-2.505-6.608-5.303-21.233-5.694c-1.032-0.033-2.037-0.047-3.021-0.047
		c-15.319,0-25.387,3.331-29.21,9.693c-1.45,2.414-1.908,5.11-1.848,7.721l15.435-2.745c1.875-0.351,3.668,0.917,3.999,2.792
		c0.337,1.881-0.924,3.675-2.805,4.005l-15.455,2.751c0.971,3.129,2.191,5.32,2.218,5.374c0.088,0.148,0.162,0.317,0.229,0.479
		c0.067,0.188,4.673,11.813,14.18,21.995c0.155-0.25,0.297-0.506,0.52-0.708l9.784-8.813c1.416-1.274,3.594-1.159,4.875,0.257
		c1.268,1.423,1.16,3.601-0.256,4.875l-9.784,8.807c-0.088,0.073-0.209,0.107-0.297,0.182c5.104,4.343,11.214,7.963,18.462,9.562
		c3.358,0.741,6.804,1.018,10.344,0.85l-2.609-29.13c-0.169-1.901,1.228-3.573,3.129-3.749c1.948-0.128,3.573,1.234,3.749,3.136
		l2.582,28.866c9.865-1.996,20.371-7.282,31.436-15.825l-22.016-21.18c-1.368-1.328-1.416-3.513-0.094-4.882
		c1.321-1.375,3.506-1.416,4.882-0.095l22.636,21.78c2.717-2.32,5.462-4.814,8.246-7.505c1.228-1.193,2.36-2.36,3.526-3.533
		l-8.199-5.368c-0.02-0.013-0.033-0.033-0.054-0.054c-0.027-0.02-0.067-0.02-0.088-0.04l-15.535-11.321
		c-1.544-1.119-1.882-3.284-0.762-4.821c1.126-1.537,3.276-1.882,4.814-0.755l15.475,11.28l9.237,6.035
		c4.484-4.754,8.47-9.346,12.01-13.782l-25.165-17.306c-1.571-1.079-1.969-3.23-0.896-4.801c1.079-1.571,3.236-1.97,4.808-0.897
		l25.454,17.508c7.519-10.226,12.656-19.558,15.987-27.933l-28.151-7.329c-1.848-0.479-2.946-2.36-2.475-4.207
		C264.021,187.063,265.909,185.964,267.757,186.442z M233.874,149.054c-0.438,0.175-0.89,0.263-1.342,0.263
		c-1.349,0-2.637-0.795-3.183-2.117c-4.255-10.195-6.999-10.33-7.127-10.33l0,0c-1.639,0.101-4.524,4.922-5.935,9.932
		c-0.519,1.834-2.42,2.899-4.261,2.38c-1.834-0.519-2.906-2.421-2.381-4.255c0.675-2.414,4.45-14.477,12.151-14.949
		c6.742-0.445,11.227,8.098,13.924,14.551C236.463,146.289,235.634,148.305,233.874,149.054z"/>
</g>
</svg>
