<?xml version="1.0" encoding="utf-8"?>
<!-- Generator: Adobe Illustrator 16.0.0, SVG Export Plug-In . SVG Version: 6.00 Build 0)  -->
<!DOCTYPE svg PUBLIC "-//W3C//DTD SVG 1.1//EN" "http://www.w3.org/Graphics/SVG/1.1/DTD/svg11.dtd">
<svg version="1.1" id="Capa_1" xmlns="http://www.w3.org/2000/svg" xmlns:xlink="http://www.w3.org/1999/xlink" x="0px" y="0px"
	 width="350px" height="350px" viewBox="0 0 350 350" enable-background="new 0 0 350 350" xml:space="preserve">
<g>
	<rect x="53.667" y="49.483" fill="#ECF0F1" width="242.667" height="242.667"/>
	<rect x="53.667" y="91.322" fill="#D1D4D1" width="242.667" height="54.39"/>
	<rect x="53.667" y="49.483" fill="#556080" width="242.667" height="41.839"/>
	<polygon fill="#556080" points="70.401,128.977 66.218,124.793 66.218,116.426 70.401,112.241 78.77,112.241 82.953,116.426 
		82.953,124.793 78.77,128.977 	"/>
	<polygon fill="#556080" points="103.874,128.977 99.689,124.793 99.689,116.426 103.874,112.241 112.241,112.241 116.425,116.426 
		116.425,124.793 112.241,128.977 	"/>
	<polygon fill="#556080" points="137.344,128.977 133.16,124.793 133.16,116.426 137.344,112.241 145.712,112.241 149.896,116.426 
		149.896,124.793 145.712,128.977 	"/>
	<polygon fill="#556080" points="170.815,128.977 166.632,124.793 166.632,116.426 170.815,112.241 179.184,112.241 
		183.366,116.426 183.366,124.793 179.184,128.977 	"/>
	<polygon fill="#556080" points="204.287,128.977 200.104,124.793 200.104,116.426 204.287,112.241 212.655,112.241 
		216.839,116.426 216.839,124.793 212.655,128.977 	"/>
	<polygon fill="#556080" points="237.759,128.977 233.573,124.793 233.573,116.426 237.759,112.241 246.125,112.241 
		250.311,116.426 250.311,124.793 246.125,128.977 	"/>
	<polygon fill="#556080" points="271.23,128.977 267.046,124.793 267.046,116.426 271.23,112.241 279.598,112.241 283.782,116.426 
		283.782,124.793 279.598,128.977 	"/>
	<polygon fill="#2C2F38" points="70.401,120.609 66.218,116.426 66.218,108.057 70.401,103.874 78.77,103.874 82.953,108.057 
		82.953,116.426 78.77,120.609 	"/>
	<polygon fill="#2C2F38" points="103.874,120.609 99.689,116.426 99.689,108.057 103.874,103.874 112.241,103.874 116.425,108.057 
		116.425,116.426 112.241,120.609 	"/>
	<polygon fill="#2C2F38" points="137.344,120.609 133.16,116.426 133.16,108.057 137.344,103.874 145.712,103.874 149.896,108.057 
		149.896,116.426 145.712,120.609 	"/>
	<polygon fill="#2C2F38" points="170.815,120.609 166.632,116.426 166.632,108.057 170.815,103.874 179.184,103.874 
		183.366,108.057 183.366,116.426 179.184,120.609 	"/>
	<polygon fill="#2C2F38" points="204.287,120.609 200.104,116.426 200.104,108.057 204.287,103.874 212.655,103.874 
		216.839,108.057 216.839,116.426 212.655,120.609 	"/>
	<polygon fill="#2C2F38" points="237.759,120.609 233.573,116.426 233.573,108.057 237.759,103.874 246.125,103.874 
		250.311,108.057 250.311,116.426 246.125,120.609 	"/>
	<polygon fill="#2C2F38" points="271.23,120.609 267.046,116.426 267.046,108.057 271.23,103.874 279.598,103.874 283.782,108.057 
		283.782,116.426 279.598,120.609 	"/>
	<rect x="66.218" y="66.219" fill="#2C2F38" width="16.735" height="16.735"/>
	<rect x="99.689" y="66.219" fill="#2C2F38" width="16.736" height="16.735"/>
	<rect x="133.16" y="66.219" fill="#2C2F38" width="16.736" height="16.735"/>
	<rect x="166.632" y="66.219" fill="#2C2F38" width="16.734" height="16.735"/>
	<rect x="66.218" y="57.85" fill="#FFFFFF" width="16.735" height="16.736"/>
	<rect x="99.689" y="57.85" fill="#FFFFFF" width="16.736" height="16.736"/>
	<rect x="133.16" y="57.85" fill="#FFFFFF" width="16.736" height="16.736"/>
	<rect x="166.632" y="57.85" fill="#FFFFFF" width="16.734" height="16.736"/>
	<rect x="200.104" y="62.035" fill="#D1F7EF" width="83.679" height="16.736"/>
	<g>
		<path fill="#A5A5A4" d="M82.953,154.081c-2.313,0-4.183,1.875-4.183,4.184v87.862c0,2.31,1.87,4.185,4.183,4.185
			c2.314,0,4.185-1.875,4.185-4.185v-87.862C87.138,155.955,85.268,154.081,82.953,154.081z"/>
		<path fill="#A5A5A4" d="M82.953,254.494c-2.313,0-4.183,1.875-4.183,4.184v16.736c0,2.31,1.87,4.184,4.183,4.184
			c2.314,0,4.185-1.874,4.185-4.184v-16.736C87.138,256.369,85.268,254.494,82.953,254.494z"/>
		<path fill="#A5A5A4" d="M128.977,154.081c-2.314,0-4.185,1.875-4.185,4.184v62.758c0,2.31,1.87,4.185,4.185,4.185
			c2.313,0,4.183-1.875,4.183-4.185v-62.758C133.16,155.955,131.29,154.081,128.977,154.081z"/>
		<path fill="#A5A5A4" d="M128.977,229.391c-2.314,0-4.185,1.875-4.185,4.184v41.84c0,2.31,1.87,4.184,4.185,4.184
			c2.313,0,4.183-1.874,4.183-4.184v-41.84C133.16,231.266,131.29,229.391,128.977,229.391z"/>
		<path fill="#A5A5A4" d="M175,183.367c-2.313,0-4.184,1.875-4.184,4.185v87.862c0,2.31,1.871,4.184,4.184,4.184
			c2.314,0,4.184-1.874,4.184-4.184v-87.862C179.184,185.242,177.313,183.367,175,183.367z"/>
		<path fill="#A5A5A4" d="M175,154.081c-2.313,0-4.184,1.875-4.184,4.184V175c0,2.31,1.871,4.185,4.184,4.185
			c2.314,0,4.184-1.875,4.184-4.185v-16.736C179.184,155.955,177.313,154.081,175,154.081z"/>
		<path fill="#A5A5A4" d="M221.021,154.081c-2.313,0-4.183,1.875-4.183,4.184v66.943c0,2.31,1.87,4.184,4.183,4.184
			c2.315,0,4.186-1.874,4.186-4.184v-66.943C225.207,155.955,223.337,154.081,221.021,154.081z"/>
		<path fill="#A5A5A4" d="M221.021,233.574c-2.313,0-4.183,1.875-4.183,4.185v37.655c0,2.31,1.87,4.184,4.183,4.184
			c2.315,0,4.186-1.874,4.186-4.184v-37.655C225.207,235.449,223.337,233.574,221.021,233.574z"/>
		<path fill="#A5A5A4" d="M267.046,154.081c-2.313,0-4.184,1.875-4.184,4.184v37.655c0,2.31,1.87,4.185,4.184,4.185
			c2.314,0,4.185-1.875,4.185-4.185v-37.655C271.23,155.955,269.36,154.081,267.046,154.081z"/>
		<path fill="#A5A5A4" d="M267.046,204.288c-2.313,0-4.184,1.874-4.184,4.183v66.943c0,2.31,1.87,4.184,4.184,4.184
			c2.314,0,4.185-1.874,4.185-4.184v-66.943C271.23,206.162,269.36,204.288,267.046,204.288z"/>
	</g>
	<g>
		<rect x="70.401" y="250.311" fill="#D1D4D1" width="25.104" height="12.552"/>
		<rect x="116.425" y="225.207" fill="#D1D4D1" width="25.104" height="12.552"/>
		<rect x="162.448" y="179.185" fill="#D1D4D1" width="25.104" height="12.552"/>
		<rect x="208.47" y="229.391" fill="#D1D4D1" width="25.104" height="12.552"/>
		<rect x="254.494" y="200.104" fill="#D1D4D1" width="25.104" height="12.552"/>
	</g>
	<g>
		<rect x="70.401" y="241.942" fill="#FFFFFF" width="25.104" height="12.552"/>
		<rect x="116.425" y="216.84" fill="#FFFFFF" width="25.104" height="12.551"/>
		<rect x="162.448" y="170.816" fill="#FFFFFF" width="25.104" height="12.551"/>
		<rect x="208.47" y="221.022" fill="#FFFFFF" width="25.104" height="12.552"/>
		<rect x="254.494" y="191.736" fill="#FFFFFF" width="25.104" height="12.552"/>
	</g>
	<rect x="53.667" y="292.149" fill="#D1D4D1" width="242.667" height="8.368"/>
</g>
</svg>
