<?xml version="1.0" encoding="utf-8"?>
<!-- Generator: Adobe Illustrator 16.0.0, SVG Export Plug-In . SVG Version: 6.00 Build 0)  -->
<!DOCTYPE svg PUBLIC "-//W3C//DTD SVG 1.1//EN" "http://www.w3.org/Graphics/SVG/1.1/DTD/svg11.dtd">
<svg version="1.1" id="Capa_1" xmlns="http://www.w3.org/2000/svg" xmlns:xlink="http://www.w3.org/1999/xlink" x="0px" y="0px"
	 width="350px" height="350px" viewBox="0 0 350 350" enable-background="new 0 0 350 350" xml:space="preserve">
<g>
	<circle cx="93.903" cy="224.244" r="4.013"/>
	<circle cx="77.85" cy="208.191" r="4.013"/>
	<path d="M280.687,97.408H69.313c-11.065,0-20.067,9.001-20.067,20.067v115.051c0,11.064,9.002,20.066,20.067,20.066h211.373
		c11.064,0,20.066-9.002,20.066-20.066V117.475C300.753,106.409,291.751,97.408,280.687,97.408z M292.727,232.525
		c0,6.639-5.402,12.04-12.04,12.04h-21.416c2.526-3.355,4.024-7.525,4.024-12.04c0-2.217-1.796-4.013-4.014-4.013
		c-2.217,0-4.014,1.796-4.014,4.013c0,6.639-5.4,12.04-12.039,12.04h-65.553v-28.094c0-2.218-1.797-4.014-4.014-4.014
		s-4.013,1.796-4.013,4.014v28.094H69.313c-6.639,0-12.04-5.401-12.04-12.04V117.475c0-6.639,5.401-12.041,12.04-12.041h100.335
		v94.984c0,2.217,1.796,4.014,4.013,4.014s4.014-1.797,4.014-4.014v-94.984h65.553c6.639,0,12.039,5.402,12.039,12.041v98.997
		c0,2.217,1.797,4.014,4.014,4.014c2.218,0,4.014-1.797,4.014-4.014v-98.997c0-4.515-1.498-8.685-4.024-12.041h21.416
		c6.638,0,12.04,5.402,12.04,12.041V232.525z"/>
	<circle cx="147.174" cy="125.756" r="4.013"/>
</g>
</svg>
