<?xml version="1.0" encoding="utf-8"?>
<!-- Generator: Adobe Illustrator 16.0.0, SVG Export Plug-In . SVG Version: 6.00 Build 0)  -->
<!DOCTYPE svg PUBLIC "-//W3C//DTD SVG 1.1//EN" "http://www.w3.org/Graphics/SVG/1.1/DTD/svg11.dtd">
<svg version="1.1" id="Capa_1" xmlns="http://www.w3.org/2000/svg" xmlns:xlink="http://www.w3.org/1999/xlink" x="0px" y="0px"
	 width="350px" height="350px" viewBox="0 0 350 350" enable-background="new 0 0 350 350" xml:space="preserve">
<g>
	<circle cx="145" cy="122.5" r="3.75"/>
	<circle cx="148.75" cy="238.75" r="3.75"/>
	<circle cx="167.5" cy="223.75" r="3.75"/>
	<circle cx="145" cy="205" r="3.75"/>
	<circle cx="171.25" cy="201.25" r="3.75"/>
	<circle cx="148.75" cy="175" r="3.75"/>
	<circle cx="163.75" cy="145" r="3.75"/>
	<circle cx="141.25" cy="145" r="3.75"/>
	<circle cx="167.5" cy="103.75" r="3.75"/>
	<circle cx="115" cy="152.5" r="3.75"/>
	<circle cx="115" cy="163.75" r="3.75"/>
	<circle cx="115" cy="175" r="3.75"/>
	<circle cx="115" cy="186.25" r="3.75"/>
	<circle cx="115" cy="197.5" r="3.75"/>
	<path d="M283.75,182.499h-15.285l-0.409,3.29C262.435,230.946,222.43,265,175,265c-15.06,0-25.751-3.394-32.681-10.384
		c-10.553-10.639-12.282-29.55-12.431-52.129c0.247-5.348,0.206-11.564,0.153-18.514C130.022,181.075,130,178.071,130,175
		c0-3.24,0.026-6.397,0.052-9.446c0.056-7.009,0.102-13.245-0.161-18.6c0.176-22.338,1.965-41.021,12.431-51.574
		C149.249,88.394,159.94,85,175,85c47.43,0,87.435,34.054,93.056,79.211l0.409,3.289h15.285c2.07,0,3.75-1.676,3.75-3.75
		s-1.68-3.75-3.75-3.75h-8.719C267.46,112.735,225.051,77.5,175,77.5c-36.746,0-70.436,14.111-90.93,37.849
		c-0.705-0.206-1.428-0.349-2.19-0.349c-13.316,0-19.38,31.103-19.38,60s6.064,60,19.38,60c0.762,0,1.485-0.143,2.19-0.349
		c20.494,23.737,54.184,37.848,90.93,37.848c50.051,0,92.46-35.234,100.031-82.499h8.719c2.07,0,3.75-1.677,3.75-3.75
		S285.82,182.499,283.75,182.499z M70,175c0-33.84,7.789-52.357,12.083-52.365l0.064,0.068c3.281,3.51,3.108,21.139,2.943,38.19
		C85.045,165.4,85,170.125,85,175s0.045,9.6,0.09,14.107c0.045,4.815,0.09,9.668,0.06,14.242
		c-0.086,11.741-0.708,21.648-3.27,24.149C77.849,227.499,70,208.971,70,175z M89.53,229.581c1.196-2.479,1.958-5.813,2.426-10.113
		c0.004-0.034,0.008-0.068,0.012-0.102c0.465-4.316,0.645-9.604,0.682-15.976c0-0.011,0-0.019,0-0.029
		c0.026-4.257-0.007-8.971-0.06-14.231c-0.041-4.515-0.09-9.247-0.09-14.13s0.049-9.615,0.09-14.134
		c0.053-5.261,0.083-9.975,0.06-14.231c0-0.007,0-0.019,0-0.03c-0.037-6.372-0.217-11.659-0.682-15.975
		c-0.004-0.034-0.008-0.067-0.012-0.102c-0.468-4.297-1.229-7.631-2.426-10.113c11.632-13.564,27.993-23.741,46.852-29.629
		c-8.411,8.925-11.842,21.619-13.181,36.694c-1.327-0.788-2.824-1.23-4.451-1.23c-12.825,0-22.5,20.958-22.5,48.75
		c0,27.791,9.675,48.75,22.5,48.75c1.624,0,3.124-0.446,4.451-1.249c1.339,15.083,4.767,27.779,13.181,36.709
		C117.523,253.318,101.163,243.146,89.53,229.581z M122.433,162.632c0.034,4.046,0.067,8.175,0.067,12.368
		s-0.034,8.321-0.067,12.367c-0.042,5.055-0.075,9.982-0.045,14.779c-0.303,6.734-1.05,12-2.801,13.762
		c-0.259,0.259-0.461,0.341-0.836,0.341c-7.08,0-15-17.64-15-41.249c0-23.61,7.92-41.25,15-41.25c0.405,0,0.623,0.086,0.893,0.36
		c1.699,1.714,2.438,6.701,2.745,13.106C122.354,152.211,122.391,157.353,122.433,162.632z"/>
	<path d="M283.75,171.25h-20.947l-61.553-61.553V96.25c0-2.074-1.68-3.75-3.75-3.75s-3.75,1.676-3.75,3.75v11.25H182.5
		c-2.069,0-3.75,1.676-3.75,3.75s1.681,3.75,3.75,3.75h13.447l56.25,56.25h-19.395l-27.026-27.026
		c-0.229-0.229-0.51-0.356-0.776-0.514V130c0-2.074-1.681-3.75-3.75-3.75c-2.07,0-3.75,1.676-3.75,3.75v11.25h-11.25
		c-2.07,0-3.75,1.676-3.75,3.75s1.68,3.75,3.75,3.75h13.706c0.158,0.266,0.285,0.547,0.518,0.776l21.724,21.724h-5.947h-32.197
		l-10.151-10.151c-1.466-1.466-3.836-1.466-5.303,0c-1.466,1.466-1.466,3.836,0,5.302l8.599,8.599l-8.599,8.599
		c-1.466,1.466-1.466,3.837,0,5.303c0.731,0.731,1.691,1.099,2.651,1.099s1.92-0.367,2.651-1.099l10.151-10.151h32.197h5.947
		l-22.5,22.5H186.25c-2.07,0-3.75,1.677-3.75,3.749c0,2.074,1.68,3.751,3.75,3.751h11.25V220c0,2.073,1.68,3.75,3.75,3.75
		c2.069,0,3.75-1.677,3.75-3.75v-13.447l27.803-27.803h19.395L195.947,235H182.5c-2.069,0-3.75,1.677-3.75,3.749
		c0,2.074,1.681,3.751,3.75,3.751h11.25v11.25c0,2.074,1.68,3.75,3.75,3.75s3.75-1.676,3.75-3.75v-13.447l61.553-61.553h20.947
		c2.07,0,3.75-1.677,3.75-3.75C287.5,172.926,285.82,171.25,283.75,171.25z"/>
</g>
</svg>
