<?xml version="1.0" encoding="utf-8"?>
<!-- Generator: Adobe Illustrator 16.0.0, SVG Export Plug-In . SVG Version: 6.00 Build 0)  -->
<!DOCTYPE svg PUBLIC "-//W3C//DTD SVG 1.1 Tiny//EN" "http://www.w3.org/Graphics/SVG/1.1/DTD/svg11-tiny.dtd">
<svg version="1.1" baseProfile="tiny" id="Layer_1" xmlns="http://www.w3.org/2000/svg" xmlns:xlink="http://www.w3.org/1999/xlink"
	 x="0px" y="0px" width="350px" height="350px" viewBox="0 0 350 350" overflow="scroll" xml:space="preserve">
<g>
	<g>
		<image width="985" height="150" xlink:href="793C9BCC.png"  transform="matrix(0.24 0 0 0.24 48.3105 235.2227)">
		</image>
		<path fill-rule="evenodd" fill="#E44B4F" d="M186.72,240.331c0.059,7.854-0.335,15.55-1.908,20.512
			c-3.155,9.951-12.582,11.249-10.891,14.776c1.804,3.764,9.439,0.213,15.034-2.257c2.724-1.201,5.343-1.745,6.366-3.173
			c1.016-1.417-0.581-5.078-1.21-7.219c-1.436-4.885-0.419-13.589,1.153-22.64H186.72z"/>
		<path fill-rule="evenodd" fill="#E44B4F" d="M220.194,240.331c-0.058,7.854,0.335,15.55,1.908,20.512
			c3.155,9.951,12.581,11.249,10.891,14.776c-1.804,3.764-9.438,0.213-15.033-2.257c-2.723-1.201-5.343-1.745-6.366-3.173
			c-1.016-1.417,0.581-5.078,1.21-7.219c1.435-4.885,0.419-13.589-1.153-22.64H220.194z"/>
		<path fill-rule="evenodd" fill="#FFFFFF" d="M212.301,266.271c-0.684,1.62-0.976,3.425,1.12,4.309
			C214.68,270.291,214.396,267.665,212.301,266.271z"/>
		<path fill-rule="evenodd" fill="#FFFFFF" d="M230.632,272.319c0,0,2.435,1.343,1.707,3.016c-0.728,1.674-3.201,1.658-5.359,0.793
			C226.598,273.083,229.359,271.638,230.632,272.319z"/>
		<path fill="#FFFFFF" d="M224.853,266.885c0.144,0.029,0.288,0.061,0.434,0.092c0.153,0.032,0.303-0.065,0.334-0.218
			c0.032-0.151-0.064-0.301-0.217-0.333c-0.186-0.04-0.369-0.078-0.551-0.115V266.885L224.853,266.885z M224.853,271.234v-1.174
			c0.158,0.004,0.319,0.012,0.483,0.024l0.023,0.001c0.067-0.049,0.135-0.097,0.204-0.144c0.719-0.487,1.478-0.796,2.248-0.71
			c0.155,0.017,0.266,0.156,0.249,0.311s-0.156,0.266-0.311,0.249c-0.497-0.056-1.006,0.105-1.507,0.388
			c0.799,0.108,1.658,0.28,2.579,0.476c0.152,0.031,0.249,0.181,0.217,0.334c-0.032,0.151-0.182,0.248-0.334,0.217
			c-1.164-0.248-2.229-0.455-3.182-0.541C225.296,270.841,225.071,271.033,224.853,271.234L224.853,271.234z M224.853,268.705
			c0.679,0.105,1.403,0.252,2.173,0.415c0.151,0.032,0.302-0.065,0.333-0.218c0.032-0.151-0.064-0.301-0.216-0.333
			c-0.756-0.16-1.47-0.305-2.143-0.411c0.177-0.013,0.359-0.01,0.549,0.011c0.154,0.017,0.293-0.094,0.311-0.248
			c0.017-0.155-0.095-0.294-0.249-0.311c-0.263-0.03-0.515-0.03-0.758-0.004V268.705z M219.988,266.995
			c-0.108,0.11-0.107,0.289,0.003,0.397c0.111,0.108,0.289,0.107,0.398-0.003c0.418-0.424,0.789-0.754,1.157-0.991
			c0.108,0.004,0.219,0.01,0.331,0.019c0.892,0.063,1.887,0.242,2.975,0.468v-0.574c-0.712-0.146-1.386-0.272-2.021-0.358
			c0.214-0.018,0.441-0.012,0.688,0.015c0.154,0.018,0.294-0.094,0.311-0.248c0.018-0.154-0.095-0.293-0.249-0.311
			c-0.75-0.083-1.352,0.009-1.923,0.282l0.001,0.001h-0.001c-0.088,0.042-0.175,0.089-0.263,0.14
			c-0.856-0.017-1.626,0.088-2.303,0.379c-0.143,0.061-0.21,0.227-0.149,0.369c0.062,0.143,0.227,0.209,0.369,0.149
			c0.388-0.167,0.815-0.265,1.281-0.309C220.399,266.591,220.199,266.782,219.988,266.995L219.988,266.995z M224.853,267.606v1.099
			c-0.394-0.061-0.771-0.108-1.132-0.137c-0.515,0.293-1.014,0.726-1.535,1.255c-0.108,0.11-0.287,0.111-0.397,0.003
			c-0.111-0.108-0.112-0.287-0.004-0.397c0.331-0.335,0.654-0.635,0.981-0.891c-0.636,0.017-1.209,0.117-1.714,0.334
			c-0.143,0.061-0.308-0.006-0.369-0.149c-0.061-0.143,0.006-0.308,0.149-0.369c0.797-0.342,1.722-0.428,2.766-0.358
			C223.997,267.788,224.41,267.653,224.853,267.606L224.853,267.606z M224.853,270.061v1.174c-0.281,0.257-0.554,0.527-0.813,0.79
			c-0.108,0.11-0.286,0.112-0.397,0.004c-0.11-0.109-0.111-0.287-0.003-0.398c0.332-0.336,0.686-0.684,1.056-1.008
			c-0.735-0.005-1.392,0.091-1.962,0.335c-0.144,0.062-0.309-0.006-0.369-0.148s0.006-0.309,0.148-0.369
			C223.2,270.145,223.981,270.04,224.853,270.061z"/>
		<path fill-rule="evenodd" fill="#377185" d="M221.254,169.359c0.909,7.315-0.395,37.384-1.076,47.189
			c-0.683,9.805,3.725,36.876,3.498,45.246c-3.639,0.957-9.934,2.535-14.254,0.861c-2.729-22.957-1.001-31.308-1.911-42.069
			c-0.909-10.761-3.393-22.071-3.848-28.05c-0.455,5.979-2.424,16.95-3.334,27.712c-0.909,10.761-0.457,19.45-3.186,42.407
			c-4.319,1.674-9.671,0.096-13.31-0.861c-0.227-8.37,3.551-36.444,2.869-46.249c-0.683-9.805-1.016-38.393-0.105-45.708
			C191.485,170.794,211.59,171.99,221.254,169.359z"/>
		<path fill-rule="evenodd" fill="#FFFFFF" d="M194.613,266.271c0.684,1.62,0.976,3.425-1.12,4.309
			C192.234,270.291,192.518,267.665,194.613,266.271z"/>
		<path fill-rule="evenodd" fill="#FFFFFF" d="M176.282,272.319c0,0-2.436,1.343-1.708,3.016c0.728,1.674,3.202,1.658,5.361,0.793
			C180.316,273.083,177.555,271.638,176.282,272.319z"/>
		<path fill="#FFFFFF" d="M186.926,266.995c0.108,0.11,0.107,0.289-0.003,0.397c-0.111,0.108-0.289,0.107-0.397-0.003
			c-0.419-0.424-0.79-0.754-1.157-0.991c-0.109,0.004-0.22,0.01-0.332,0.019c-0.893,0.063-1.887,0.242-2.975,0.468v-0.574
			c0.712-0.146,1.386-0.272,2.021-0.358c-0.214-0.018-0.441-0.012-0.688,0.015c-0.154,0.018-0.294-0.094-0.311-0.248
			s0.095-0.293,0.249-0.311c0.751-0.083,1.352,0.009,1.923,0.282v0.001l0,0c0.088,0.042,0.176,0.089,0.263,0.14
			c0.856-0.017,1.626,0.088,2.303,0.379c0.144,0.061,0.21,0.227,0.149,0.369c-0.062,0.143-0.227,0.209-0.369,0.149
			c-0.388-0.167-0.815-0.265-1.28-0.309C186.516,266.591,186.716,266.782,186.926,266.995L186.926,266.995z M182.062,271.234v-1.174
			c0.871-0.021,1.653,0.084,2.341,0.379c0.143,0.061,0.209,0.227,0.148,0.369s-0.227,0.21-0.369,0.148
			c-0.569-0.244-1.226-0.34-1.962-0.335c0.37,0.324,0.724,0.672,1.056,1.008c0.109,0.111,0.107,0.289-0.003,0.398
			c-0.11,0.108-0.289,0.106-0.397-0.004C182.615,271.762,182.342,271.491,182.062,271.234L182.062,271.234z M182.062,268.705v-1.099
			c0.442,0.047,0.855,0.182,1.255,0.389c1.044-0.069,1.969,0.017,2.766,0.358c0.144,0.062,0.21,0.227,0.149,0.369
			c-0.062,0.144-0.227,0.21-0.369,0.149c-0.505-0.217-1.078-0.317-1.714-0.334c0.327,0.256,0.651,0.556,0.981,0.891
			c0.108,0.11,0.107,0.289-0.004,0.397c-0.11,0.108-0.289,0.107-0.397-0.003c-0.521-0.529-1.021-0.962-1.535-1.255
			C182.833,268.597,182.455,268.645,182.062,268.705z M182.062,266.885c-0.144,0.029-0.288,0.061-0.435,0.092
			c-0.151,0.032-0.302-0.065-0.333-0.218c-0.032-0.151,0.064-0.301,0.217-0.333c0.186-0.04,0.369-0.078,0.551-0.115V266.885
			L182.062,266.885z M182.062,267.606v1.099c-0.679,0.105-1.403,0.252-2.173,0.415c-0.151,0.032-0.302-0.065-0.333-0.218
			c-0.032-0.151,0.064-0.301,0.217-0.333c0.755-0.16,1.469-0.305,2.142-0.411c-0.177-0.013-0.359-0.01-0.549,0.011
			c-0.154,0.017-0.293-0.094-0.311-0.248c-0.017-0.155,0.096-0.294,0.249-0.311C181.566,267.58,181.818,267.58,182.062,267.606
			L182.062,267.606z M182.062,270.061c-0.158,0.004-0.319,0.012-0.483,0.024l-0.022,0.001c-0.068-0.049-0.136-0.097-0.205-0.144
			c-0.719-0.487-1.478-0.796-2.248-0.71c-0.154,0.017-0.267,0.156-0.249,0.311s0.156,0.266,0.311,0.249
			c0.498-0.056,1.007,0.105,1.507,0.388c-0.798,0.108-1.658,0.28-2.579,0.476c-0.152,0.031-0.249,0.181-0.217,0.334
			c0.032,0.151,0.182,0.248,0.334,0.217c1.165-0.248,2.229-0.455,3.182-0.541c0.228,0.176,0.452,0.368,0.671,0.569V270.061z"/>
		<path fill-rule="evenodd" fill="#989798" d="M213.827,101.458c-1.769,5.753-6.433,10.967-11.418,10.967
			c-4.824,0-9.348-4.882-11.238-10.41C184.169,81.539,220.046,81.232,213.827,101.458z"/>
		<rect x="196.648" y="106.363" fill-rule="evenodd" fill="#989798" width="11.519" height="14.823"/>
		<path fill-rule="evenodd" fill="#ECC295" d="M176.479,130.64c-1.583,1.183-1.981,9.869-1.435,14.332
			c0.546,4.463-0.282,15.389-0.982,18.723c-0.7,3.333,1.442,0.738,3.026,0.842c0.916,0.06,4.517,3.33,5.217,0.967
			c1.921-6.483,1.063-13.762,2.639-19.887c1.12-4.354,1.852-13.02,0.436-14.397C182.198,130.085,179.781,129.928,176.479,130.64z"/>
		<path fill-rule="evenodd" fill="#989798" d="M202.546,158.887c4.865,0,8.834-3.388,8.834-7.543c0-4.154-3.969-7.543-8.834-7.543
			c-4.867,0-8.836,3.389-8.836,7.543C193.71,155.499,197.679,158.887,202.546,158.887z"/>
		<path fill-rule="evenodd" fill="#989798" d="M192.314,154.541c-1.229,1.312-3.226,5.114-3.84,9.836s-0.308,10.754,0.921,11.541
			c1.235,0.791,23.243,0.791,24.479,0c1.229-0.787,1.536-6.819,0.922-11.541s-2.611-8.524-3.84-9.836
			C208.99,152.442,194.28,152.442,192.314,154.541z"/>
		
			<ellipse transform="matrix(-0.3504 -0.9366 0.9366 -0.3504 183.8413 382.1438)" fill-rule="evenodd" fill="#6CAAC2" cx="224.449" cy="127.315" rx="5.416" ry="6.343"/>
		<path fill-rule="evenodd" fill="#ECC295" d="M229.763,129.132c1.856,0.675,4.746,8.876,5.513,13.308
			c0.767,4.431,2.631,9.621,2.281,10.864c-0.349,1.243-1.456,0.969-2.943,1.525c-1.486,0.556-2.142,1.49-3.221,0.781
			c-1.079-0.709-3.08-5.849-5.409-9.694c-2.33-3.846-5.532-11.93-4.574-13.658C224.127,130.253,226.396,129.404,229.763,129.132z"/>
		<path fill-rule="evenodd" fill="#989798" d="M152.342,107.485c-1.707,5.553-6.209,10.585-11.021,10.585
			c-4.656,0-9.022-4.712-10.847-10.047C123.716,88.26,158.345,87.963,152.342,107.485z"/>
		<rect x="135.761" y="112.221" fill-rule="evenodd" fill="#989798" width="11.118" height="14.307"/>
		
			<ellipse transform="matrix(-0.147 -0.9891 0.9891 -0.147 30.6567 352.0208)" fill-rule="evenodd" fill="#989798" cx="167.119" cy="162.791" rx="3.091" ry="3.621"/>
		<path fill-rule="evenodd" fill="#F8D2A7" d="M171.076,163.817c1.964,0.882,5.929,23.782,4.435,25.849
			c-0.111,0.154-3.047,1.999-3.546,1.896c-2.892-0.595-7.843-23.205-7.018-25.964C165.329,164.315,169.353,162.847,171.076,163.817z
			"/>
		<g>
			<path fill-rule="evenodd" fill="#B47E2B" d="M119.281,110.641c5.278,4.763,6.61,0.955,4.782-7.015
				c-2.201-9.6-0.322-21.706,11.119-24.162c8.857-6.742,29.316,4.283,23.595,23.203c-1.862,6.159-2.125,15.168,5.047,7.393
				C162.595,130.584,120.349,129.809,119.281,110.641z"/>
			<path fill-rule="evenodd" fill="#F8D2A7" d="M125.032,126.053c1.985-1.991,5.79-2.619,6.554-2.888
				c5.285-1.864,3.733-6.901,3.313-11.754h13.111c-0.421,4.853,0.289,10.687,3.313,11.754c3.024,1.067,6.331,2.44,7.545,2.998
				C156.398,138.396,127.712,138.328,125.032,126.053z"/>
			<path fill-rule="evenodd" fill="#DAAE80" d="M135.375,117.432c0.102-1.837-0.284-3.947-0.456-6.021h13.621
				c-0.165,1.99-0.527,4.014-0.466,5.797c-1.813,1.519-3.986,2.423-6.487,2.423C139.211,119.631,137.13,118.814,135.375,117.432z"/>
			<path fill-rule="evenodd" fill="#F8D2A7" d="M155.802,96.549c3.353,2.706,2.173,11.087-1.939,11.761
				c-2.347,5.23-6.659,9.15-12.572,9.15c-5.913,0-10.225-3.92-12.572-9.15c-4.113-0.674-5.292-9.055-1.939-11.761
				c0.686-7.666,5.241-14.503,14.511-14.503C150.561,82.046,155.115,88.883,155.802,96.549z"/>
			<path fill-rule="evenodd" fill="#B47E2B" d="M141.088,82.049c-6.06,0.131-11.754,8.872-11.437,16.054
				c0.166,3.759-0.216,2.78-0.896,0.786c-0.362-1.061-0.916-2.106-1.753-2.11c-0.59-0.002-1.025,0.522-1.21,0.917
				c-0.475,1.012-1.48,0.001-1.252-1.839c0.713-5.744,6.538-13.846,12.538-14.597c2.382-0.298,6.308-0.303,8.559,0.015
				c5.958,0.842,11.711,8.875,12.42,14.582c0.228,1.84-0.778,2.851-1.252,1.839c-0.185-0.395-0.62-0.919-1.21-0.917
				c-0.837,0.003-1.391,1.049-1.753,2.11c-0.68,1.995-1,2.973-0.834-0.786c0.315-7.123-5.351-15.782-11.35-16.051L141.088,82.049z"
				/>
			<path fill-rule="evenodd" fill="#B47E2B" d="M129.594,97.557c-0.284-17.428,24.146-15.569,23.563-0.033
				c6.218-7.546-0.31-17.53-11.836-17.534C129.794,79.985,127.158,89.718,129.594,97.557z"/>
			<path fill-rule="evenodd" fill="#B47E2B" d="M129.389,100.533c2.313-6.234,3.644-12.024,7.374-12.421
				c3.948,2.677,12.605,10.212,19.04,8.437c1.943-7.959,0.493-8.766-4.102-12.318C147.104,80.678,123.016,74.452,129.389,100.533z"
				/>
			<path fill-rule="evenodd" fill="#DAAE80" d="M155.781,99.33c-0.908-0.278-2.044,3.431-1.187,3.173
				c1.26-0.378,0.712,2.312,1.267,1.948C156.409,104.09,156.667,99.602,155.781,99.33z"/>
			<path fill-rule="evenodd" fill="#DAAE80" d="M147.459,109.012c0,2.82-2.761,5.106-6.168,5.106c-3.407,0-6.168-2.286-6.168-5.106
				H147.459z"/>
			<path fill="#DAAE80" d="M139.359,106.441c-0.182-0.185-0.18-0.483,0.006-0.666c0.185-0.182,0.483-0.18,0.666,0.006
				c0.122,0.124,0.294,0.226,0.5,0.297c0.223,0.078,0.486,0.119,0.772,0.119c0.27,0,0.52-0.043,0.736-0.119
				c0.213-0.075,0.392-0.18,0.52-0.304c0.187-0.182,0.485-0.177,0.666,0.009c0.181,0.187,0.177,0.485-0.009,0.666
				c-0.226,0.219-0.522,0.398-0.862,0.518c-0.317,0.111-0.674,0.175-1.05,0.175c-0.384,0-0.751-0.062-1.078-0.174
				C139.88,106.847,139.582,106.668,139.359,106.441z"/>
			<path fill-rule="evenodd" fill="#FFFFFF" d="M145.906,109.012c0,0.776-0.743,1.406-4.616,1.406s-4.615-0.629-4.615-1.406H145.906
				z"/>
			<g>
				<path fill-rule="evenodd" fill="#4E4E4E" d="M135.659,102.271c0.448,0,0.813-0.733,0.813-1.631c0-0.898-0.366-1.631-0.813-1.631
					c-0.448,0-0.813,0.733-0.813,1.631C134.845,101.539,135.21,102.271,135.659,102.271z"/>
				<path fill-rule="evenodd" fill="#4E4E4E" d="M146.923,102.271c0.448,0,0.814-0.733,0.814-1.631c0-0.898-0.366-1.631-0.814-1.631
					c-0.448,0-0.813,0.733-0.813,1.631C146.11,101.539,146.476,102.271,146.923,102.271z"/>
			</g>
		</g>
		<path fill-rule="evenodd" fill="#F8D2A7" d="M202.667,130.117c-5.047-2.01-11.283-5.476-12.127-12.878
			c2.875-1.015,4.479-3.783,5.297-6.929c2.141-0.246,4.438-0.379,6.83-0.379c2.393,0,4.69,0.134,6.831,0.379
			c0.817,3.146,2.421,5.914,5.296,6.929C213.95,124.641,207.714,128.106,202.667,130.117z"/>
		<path fill-rule="evenodd" fill="#F8D2A7" d="M217.912,89.036c3.546,2.862,2.299,11.726-2.051,12.438
			c-2.482,5.531-7.042,9.677-13.296,9.677s-10.813-4.146-13.296-9.677c-4.35-0.712-5.598-9.577-2.051-12.438
			c0.725-8.106,5.542-15.338,15.347-15.338C212.369,73.697,217.186,80.928,217.912,89.036z"/>
		<path fill-rule="evenodd" fill="#B47E2B" d="M190.256,90.68c0.176,3.975-0.229,2.94-0.948,0.831
			c-0.383-1.122-0.969-2.229-1.854-2.231c-0.624-0.002-1.812,2.328-2.007,2.745c-0.073-2.263,0.285-5.725,1.731-10.318
			c4.166-13.232,26.48-13.734,30.945-0.494c1.62,4.802,1.28,7.223,1.386,10.239c-0.32-0.77-1.193-2.173-1.818-2.171
			c-0.884,0.003-1.471,1.109-1.853,2.231c-0.72,2.109-1.059,3.144-0.883-0.831C215.934,68.563,189.273,68.47,190.256,90.68z"/>
		<path fill-rule="evenodd" fill="#B47E2B" d="M190.195,90.102c-0.046-2.834,0.356-5.287,1.526-7.077
			c1.131-1.733,2.296-2.594,5.584-1.73c1.597,0.42,3.525,0.666,5.604,0.666c2.086,0,4.023-0.248,5.625-0.671
			c2.866-0.758,3.606-0.026,4.763,1.528c1.378,1.851,1.926,4.381,1.817,7.25c6.577-7.981-0.327-18.54-12.518-18.544
			C190.407,71.518,187.618,81.812,190.195,90.102z"/>
		<path fill-rule="evenodd" fill="#DAAE80" d="M210.815,113.69c-2.087,2.146-4.91,3.058-7.992,3.058
			c-3.084,0-6.052-1.06-8.224-3.204c0.533-0.982,0.938-2.083,1.237-3.234c2.141-0.246,4.438-0.379,6.83-0.379
			c2.393,0,4.69,0.134,6.831,0.379C209.812,111.518,210.242,112.67,210.815,113.69z"/>
		<path fill="#B47E2B" d="M202.691,100.361c3.563-0.553,5.961-1.152,7.342-0.09c0.106,0.083,0.202,0.166,0.284,0.251
			c3.948,2.264,4.843-7.201,4.594-12.307c-0.149-4.181,3.391-0.736,2.046,1.206c-1.344,1.941-1.504,4.792-0.998,11.725
			c0.506,6.932-8.188,13.495-12.966,13.495c-0.104,0-0.204-0.002-0.302-0.007v-5.587c0.931,0.08,1.576,1.198,2.573,0.938
			c3.352-0.875,4.933-4.063,4.939-5.743c0.009-2.241-3.778-1.781-7.513-1.723V100.361z M195.065,100.522
			c0.081-0.085,0.177-0.168,0.283-0.251c1.392-1.07,3.648-0.454,7.259,0.103l0.084-0.013v2.157l-0.223,0.003
			c-3.616,0.04-7.106-0.51-7.28,1.462c-0.149,1.7,1.178,5.078,4.716,5.999c1.036,0.27,1.692-0.94,2.683-0.94
			c0.035,0,0.069,0.001,0.104,0.004v5.587l-0.104-0.005c-0.132,0.008-0.267,0.012-0.405,0.012c-4.779,0-13.473-6.563-12.967-13.495
			c0.506-6.933,0.346-9.784-0.998-11.725c-1.344-1.941,2.195-5.387,2.046-1.206C190.014,93.321,191.117,102.787,195.065,100.522z"/>
		<path fill-rule="evenodd" fill="#DAAE80" d="M209.399,103.386c0,3.018-3.06,5.464-6.834,5.464s-6.835-2.446-6.835-5.464H209.399z"
			/>
		<path fill="#DAAE80" d="M200.617,98.43c-0.184-0.187-0.182-0.487,0.006-0.671c0.187-0.184,0.487-0.182,0.671,0.006
			c0.123,0.125,0.297,0.227,0.505,0.299c0.225,0.078,0.489,0.12,0.778,0.12c0.271,0,0.524-0.043,0.742-0.121
			c0.216-0.075,0.396-0.181,0.524-0.306c0.188-0.183,0.488-0.179,0.672,0.009c0.183,0.188,0.179,0.489-0.01,0.671
			c-0.228,0.222-0.526,0.402-0.87,0.522c-0.319,0.113-0.68,0.177-1.059,0.177c-0.388,0-0.758-0.062-1.088-0.176
			C201.142,98.839,200.842,98.659,200.617,98.43z"/>
		<path fill-rule="evenodd" fill="#FFFFFF" d="M208.231,103.386c0,0.783-0.911,1.418-5.666,1.418c-4.756,0-5.667-0.635-5.667-1.418
			H208.231z"/>
		<g>
			<path fill-rule="evenodd" fill="#4E4E4E" d="M196.884,94.321c0.452,0,0.82-0.739,0.82-1.645c0-0.906-0.368-1.646-0.82-1.646
				s-0.82,0.739-0.82,1.646C196.063,93.582,196.432,94.321,196.884,94.321z"/>
			<path fill-rule="evenodd" fill="#4E4E4E" d="M208.246,94.321c0.453,0,0.821-0.739,0.821-1.645c0-0.906-0.368-1.646-0.821-1.646
				c-0.451,0-0.82,0.739-0.82,1.646C207.426,93.582,207.795,94.321,208.246,94.321z"/>
		</g>
		<path fill-rule="evenodd" fill="#989798" d="M105.93,164.792c-1.354,3.65-4.922,6.958-8.737,6.958
			c-3.691,0-7.152-3.097-8.599-6.604C83.237,152.155,110.688,151.96,105.93,164.792z"/>
		<rect x="92.785" y="167.905" fill-rule="evenodd" fill="#989798" width="8.813" height="9.404"/>
		<path fill-rule="evenodd" fill="#F8D2A7" d="M126.949,208.72c1.487,4.801,2.103,11.903,1.678,17.024
			c-0.425,5.12,2.257,28.223-0.832,37.963c-2.485,7.841-9.913,8.864-8.581,11.643c1.421,2.966,7.437,0.169,11.846-1.777
			c2.145-0.947,4.209-1.376,5.016-2.5c0.8-1.116-0.458-4.001-0.953-5.688c-2.506-8.53,4.474-31.835,4.686-40.156
			s0.945-18.749,2.857-22.75C144.578,198.479,128.436,200.398,126.949,208.72z"/>
		<path fill-rule="evenodd" fill="#F8D2A7" d="M155.857,208.72c-1.487,4.801-2.103,11.903-1.679,17.024
			c0.425,5.12-2.256,28.223,0.832,37.963c2.486,7.841,9.913,8.864,8.581,11.643c-1.421,2.966-7.437,0.169-11.845-1.777
			c-2.146-0.947-4.209-1.376-5.016-2.5c-0.801-1.116,0.458-4.001,0.953-5.688c2.506-8.53-4.473-31.835-4.686-40.156
			c-0.212-8.321-0.945-18.749-2.857-22.75C138.229,198.479,154.37,200.398,155.857,208.72z"/>
		<path fill-rule="evenodd" fill="#D37DAA" d="M147.581,265.718L147.581,265.718c-0.544,1.712-1.601,4.309-0.851,5.354
			c0.807,1.124,2.871,1.553,5.016,2.5c4.409,1.946,10.424,4.743,11.845,1.777c0.687-1.433-0.956-2.399-3.048-4.073
			c1.205,1.131-1.046,2.77-4.528,1.463C152.533,271.432,146.618,268.876,147.581,265.718z"/>
		<path fill-rule="evenodd" fill="#D37DAA" d="M135.225,265.718L135.225,265.718c0.544,1.712,1.601,4.309,0.851,5.354
			c-0.806,1.124-2.871,1.553-5.016,2.5c-4.409,1.946-10.424,4.743-11.846,1.777c-0.687-1.433,0.956-2.399,3.048-4.073
			c-1.205,1.131,1.046,2.77,4.528,1.463C130.274,271.432,136.188,268.876,135.225,265.718z"/>
		<path fill-rule="evenodd" fill="#DD8DBA" d="M156.731,125.189c3.594,1.659,10.874,5.077,11.704,15.582s4.699,27.921,4.699,27.921
			s-4.976,2.765-8.017,3.317c-0.481-4.352-4.231-16.079-8.911-29.339c-0.471,3.769-4.475,5.652-1.884,18.37
			c2.591,12.719,7.218,22.846,8.16,52.521c-10.363,4.945-35.563,2.826-41.688-1.413c0.942-29.675,5.182-38.389,7.772-51.108
			c2.591-12.718-1.413-14.602-1.884-18.37c-2.58,4.419-8.559,19.382-12.762,22.3c-0.266,0.186-2.328-8.423-1.883-10.377
			c1.305-5.481,7.116-25.287,14.521-29.801C134.41,140.866,156.018,132.125,156.731,125.189z"/>
		<g>
			<path fill-rule="evenodd" fill="#B47E2B" d="M97.297,139.773c7.393-1.365,11.252,5.895,14.349,11.279
				c3.969,6.901,6.042,13.204-0.648,18.783c-2.833,2.369-7.021,3.952-12.871,4.203l0.001,0.037h-1.662l0.001-0.037
				c-19.485-0.836-19.125-13.505-13.314-23.596C86.68,144.32,90.204,138.618,97.297,139.773z"/>
			<path fill-rule="evenodd" fill="#F8D2A7" d="M82.613,179.102c2.213-2.33,2.66-2.785,6.815-4.251
				c4.156-1.466,2.936-5.426,2.604-9.242h10.528c-0.331,3.816-1.551,7.776,2.605,9.242c4.156,1.466,4.389,1.921,6.603,4.251
				C102.207,185.049,92.49,185.144,82.613,179.102z"/>
			<path fill-rule="evenodd" fill="#DAAE80" d="M92.408,170.539c0.042-1.519-0.234-3.238-0.36-4.931h10.499
				c-0.126,1.692-0.403,3.412-0.36,4.932c-1.375,1.229-3.014,1.957-4.89,1.957C95.421,172.497,93.783,171.769,92.408,170.539z"/>
			<path fill-rule="evenodd" fill="#F8D2A7" d="M108.745,153.813c2.645,2.135,1.715,8.747-1.53,9.277
				c-1.852,4.126-5.253,7.219-9.918,7.219c-4.665,0-8.065-3.093-9.917-7.219c-3.245-0.53-4.174-7.143-1.53-9.277
				c0.541-6.047,4.134-11.441,11.447-11.441C104.61,142.373,108.203,147.767,108.745,153.813z"/>
			<path fill-rule="evenodd" fill="#B47E2B" d="M97.138,142.375c-4.781,0.103-9.273,6.999-9.022,12.664
				c0.131,2.965-0.171,2.193-0.707,0.62c-0.272-0.799-1.687-1.726-2.337-0.941c-0.562,0.679-1.168,0.001-0.988-1.451
				c0.563-4.531,5.157-10.922,9.89-11.515c1.88-0.234,4.976-0.239,6.752,0.012c4.7,0.664,9.239,7,9.797,11.502
				c0.18,1.452-0.19,1.825-0.988,1.451c-0.938-0.439-1.604,0.2-1.877,0.999c-0.537,1.573-1.25,2.288-1.119-0.678
				c0.248-5.619-4.221-12.449-8.954-12.662L97.138,142.375z"/>
			<path fill-rule="evenodd" fill="#B47E2B" d="M88.07,154.608c-0.224-13.748,19.047-12.282,18.588-0.026
				c4.905-5.953-0.245-13.829-9.337-13.832C88.228,140.747,86.148,148.425,88.07,154.608z"/>
			<path fill-rule="evenodd" fill="#B47E2B" d="M97.553,142.378c5.591,0,10.123,6.855,10.123,8.771
				c0,1.917-4.532,3.471-10.123,3.471c-5.59,0-10.123-1.554-10.123-3.471C87.431,149.233,91.963,142.378,97.553,142.378z"/>
			<path fill-rule="evenodd" fill="#DAAE80" d="M102.147,163.722c0,2.218-2.171,4.016-4.851,4.016c-2.679,0-4.851-1.798-4.851-4.016
				H102.147z"/>
			<path fill="#DAAE80" d="M95.778,161.7c-0.143-0.146-0.142-0.38,0.004-0.523c0.146-0.143,0.38-0.141,0.523,0.005
				c0.096,0.098,0.231,0.177,0.393,0.233c0.175,0.061,0.382,0.094,0.607,0.094c0.211,0,0.408-0.034,0.579-0.094
				c0.168-0.06,0.308-0.142,0.408-0.239c0.146-0.143,0.381-0.14,0.523,0.007c0.143,0.146,0.14,0.382-0.007,0.523
				c-0.178,0.173-0.411,0.313-0.678,0.407c-0.249,0.088-0.53,0.138-0.825,0.138c-0.302,0-0.591-0.048-0.848-0.138
				C96.188,162.019,95.954,161.878,95.778,161.7z"/>
			<path fill-rule="evenodd" fill="#FFFFFF" d="M100.926,163.722c0,0.61-0.583,1.105-3.629,1.105c-3.045,0-3.629-0.495-3.629-1.105
				H100.926z"/>
			<g>
				<ellipse fill-rule="evenodd" fill="#4E4E4E" cx="92.868" cy="157.139" rx="0.64" ry="1.283"/>
				<ellipse fill-rule="evenodd" fill="#4E4E4E" cx="101.727" cy="157.139" rx="0.639" ry="1.283"/>
			</g>
			<path fill-rule="evenodd" fill="#F2B3D1" d="M86.328,154.107c3.364-10.302,17.345-11.038,22.285,0.42
				C103.955,140.252,89.971,141.016,86.328,154.107z"/>
			<path fill-rule="evenodd" fill="#DAAE80" d="M85.735,156.108c0.713-0.218,1.607,2.698,0.933,2.496
				c-0.991-0.298-0.56,1.818-0.996,1.531C85.24,159.852,85.038,156.322,85.735,156.108z"/>
			<path fill-rule="evenodd" fill="#DAAE80" d="M108.77,156.108c-0.714-0.218-1.607,2.698-0.934,2.496
				c0.99-0.298,0.56,1.818,0.996,1.531C109.264,159.852,109.467,156.322,108.77,156.108z"/>
		</g>
		
			<rect x="256.703" y="168.493" transform="matrix(-0.9867 0.1627 -0.1627 -0.9867 546.9125 301.6108)" fill-rule="evenodd" fill="#989798" width="8.814" height="9.403"/>
		<path fill-rule="evenodd" fill="#989798" d="M264.625,193.876c-3.597,0.593-6.957,2.612-8.446,0.476
			c-1.488-2.138-8.35-12.737-6.446-14.976c1.904-2.238,9.388-3.379,11.878-3.79c2.489-0.411,9.943-1.73,12.466-0.222
			c2.521,1.508-0.576,13.749-1.3,16.25C272.052,194.118,268.221,193.283,264.625,193.876z"/>
		
			<ellipse transform="matrix(-0.1626 -0.9867 0.9867 -0.1626 114.1245 490.2417)" fill-rule="evenodd" fill="#989798" cx="265.089" cy="196.694" rx="4.786" ry="6.76"/>
		<path fill-rule="evenodd" fill="#F8D2A7" d="M257.73,198.469c-1.071,0.832-2.812,3.245-3.348,6.24
			c-0.535,2.995-0.268,6.822,0.804,7.322c1.077,0.502,20.261,0.502,21.338,0c1.071-0.5,1.339-4.327,0.803-7.322
			c-0.535-2.995-2.276-5.408-3.347-6.24C272.267,197.138,259.444,197.138,257.73,198.469z"/>
		<path fill-rule="evenodd" fill="#F8D2A7" d="M244.119,182.944c1.805-2.658,5.058-4.6,8.92-6.722
			c3.862-2.122,2.8-6.067,1.853-9.778l10.467-1.042c0.294,3.819,0.52,7.219,4.858,7.989s8.875,0.484,11.438,2.424L244.119,182.944z"
			/>
		<path fill-rule="evenodd" fill="#DAAE80" d="M255.14,167.421l10.244-1.688c0.166,2.143,0.349,4.13,1.301,5.565
			c-1.401,1.321-3.131,2.24-5.196,2.58c-2.117,0.35-4.096,0.009-5.881-0.837C256.022,171.35,255.626,169.378,255.14,167.421z"/>
		<g>
			<path fill-rule="evenodd" fill="#F8D2A7" d="M270.611,152.339c3.274,1.856,3.448,9.249-0.001,10.414
				c-1.28,4.842-4.44,8.834-9.538,9.674s-9.371-1.927-12.138-6.102c-3.641,0.003-5.849-7.055-3.343-9.863
				c-0.497-6.705,2.458-13.247,10.449-14.564S268.93,145.829,270.611,152.339z"/>
			<path fill-rule="evenodd" fill="#B47E2B" d="M255.867,141.931c-5.205,0.974-8.872,9.318-7.578,15.464
				c0.677,3.216,0.208,2.427-0.661,0.805c-0.463-0.863-1.089-1.686-1.811-1.57c-0.509,0.082-0.81,0.596-0.913,0.963
				c-0.017-2.354-1.847-13.76,8.747-16.897c2.012-0.595,2.768-0.671,4.754-0.717c11.022-0.254,12.491,10.09,13.232,13.208
				c-0.216-0.314-0.665-0.704-1.173-0.619c-0.722,0.121-1.051,1.102-1.212,2.068c-0.303,1.815-0.439,2.705-0.83-0.559
				c-0.741-6.185-6.855-12.844-12.064-12.224L255.867,141.931z"/>
			<path fill-rule="evenodd" fill="#B47E2B" d="M248.162,156.932c-0.418-2.305-0.42-4.357,0.293-5.974
				c0.689-1.564,1.523-2.423,4.319-2.16c1.358,0.127,2.963,0.068,4.656-0.211c1.701-0.28,3.247-0.743,4.495-1.303
				c2.234-1.003,2.937-0.506,4.088,0.605c1.371,1.324,2.158,3.313,2.456,5.666c4.288-7.389-2.759-15.067-12.695-13.434
				C245.838,141.756,244.948,150.521,248.162,156.932z"/>
			<path fill-rule="evenodd" fill="#B47E2B" d="M262.283,143.159c5.406,1.957,9.519,5.745,7.889,8.162
				c-1.632,2.417-5.436-1.829-10.842-3.786c-5.407-1.957-11.421-1.126-9.79-3.543S256.877,141.203,262.283,143.159z"/>
			<path fill-rule="evenodd" fill="#B47E2B" d="M250.444,146.485c-5.081,3.958-6.655,9.683-4.314,9.993
				c2.342,0.311,8.359-2.646,13.441-6.604c5.082-3.957,7.304-7.417,4.962-7.728S255.526,142.527,250.444,146.485z"/>
			<path fill="#6CAAC2" d="M263.903,159.955c0.359-0.033,0.719-0.106,1.065-0.214c1.067-0.333,2.019-1,2.508-1.886
				c0.488-0.883,0.533-2.59-0.449-3.137c-0.732-0.408-2.186-0.239-3.124-0.061v-0.691c0.084-0.016,0.159-0.029,0.228-0.04
				c0.91-0.14,2.121-0.115,3.036-0.097c0.586,0.012,1.044,0.021,1.16-0.011c0.159-0.045,0.291,0.011,0.397,0.144
				c0.076,0.096,0.143,0.25,0.196,0.43c0.046,0.154,0.087,0.343,0.121,0.536c0.097,0.537,0.063,1.116-0.075,1.192l0,0
				c-0.036,0.02-0.069,0.034-0.104,0.049h-0.001c-0.15,0.063-0.384,0.164-0.534,0.948c-0.107,0.563-0.263,1.275-0.793,1.928
				c-0.528,0.649-1.415,1.218-2.971,1.475c-0.231,0.038-0.451,0.063-0.66,0.079V159.955z M262.431,155.005
				c-1.235,0.371-2.652,1.047-2.41,2.261c0.42,2.1,2.155,2.849,3.883,2.688v0.644c-2.278,0.169-3.246-0.932-3.795-1.556
				c-0.069-0.08-0.132-0.15-0.191-0.21c-0.164-0.165-0.293-0.353-0.416-0.533c-0.228-0.333-0.436-0.636-0.851-0.568
				c-0.414,0.068-0.515,0.423-0.623,0.811c-0.059,0.21-0.12,0.429-0.223,0.638c-0.038,0.077-0.074,0.163-0.114,0.261
				c-0.349,0.837-0.987,2.374-3.746,2.829c-0.225,0.037-0.439,0.063-0.643,0.08v-0.686c2.107-0.055,4.219-1.369,3.885-3.931
				c-0.202-1.557-2.507-1.443-3.885-1.3v-0.676c0.489-0.044,1.053-0.079,1.596-0.092c0.782-0.02,1.533,0.006,1.981,0.113
				c0.458,0.109,0.963,0.118,1.455,0.037c0.493-0.082,0.969-0.252,1.366-0.501c0.392-0.245,1.094-0.51,1.842-0.743
				c0.228-0.071,0.575-0.171,0.805-0.235c0.593-0.162,1.157-0.293,1.557-0.369v0.691c-0.113,0.021-0.22,0.043-0.316,0.064
				C263.264,154.792,262.854,154.882,262.431,155.005z M253.302,155.757v0.676c-0.109,0.012-0.214,0.023-0.311,0.034
				c-0.905,0.103-2.628,0.404-3.259,1.101c-0.755,0.833-0.163,2.436,0.581,3.116c0.749,0.682,1.864,1.008,2.981,0.981h0.007v0.686
				c-1.202,0.099-2.038-0.143-2.644-0.523c-0.712-0.447-1.088-1.073-1.37-1.571c-0.394-0.695-0.647-0.714-0.81-0.727h-0.001
				c-0.039-0.002-0.074-0.006-0.115-0.012v-0.001c-0.155-0.028-0.372-0.565-0.454-1.105c-0.029-0.193-0.051-0.386-0.057-0.547
				c-0.007-0.188,0.005-0.354,0.048-0.47c0.058-0.16,0.164-0.255,0.33-0.264c0.12-0.006,0.551-0.162,1.103-0.361
				c0.86-0.311,2-0.724,2.907-0.883C252.491,155.842,252.868,155.795,253.302,155.757z"/>
			<path fill="#DAAE80" d="M257.855,162.867c-0.176-0.128-0.214-0.373-0.086-0.549c0.128-0.175,0.373-0.213,0.548-0.085
				c0.117,0.085,0.272,0.146,0.451,0.177c0.194,0.033,0.416,0.031,0.651-0.008c0.222-0.036,0.422-0.105,0.589-0.197
				c0.165-0.091,0.298-0.201,0.386-0.32c0.129-0.175,0.374-0.212,0.549-0.083c0.174,0.129,0.211,0.374,0.083,0.549
				c-0.156,0.211-0.376,0.397-0.64,0.543c-0.245,0.134-0.53,0.234-0.839,0.285c-0.315,0.053-0.627,0.052-0.91,0.003
				C258.338,163.129,258.068,163.023,257.855,162.867z"/>
			<g>
				
					<ellipse transform="matrix(-0.1624 -0.9867 0.9867 -0.1624 139.1614 434.3942)" fill-rule="evenodd" fill="#4E4E4E" cx="253.949" cy="158.133" rx="1.359" ry="0.678"/>
				
					<ellipse transform="matrix(-0.1627 -0.9867 0.9867 -0.1627 151.5266 441.7958)" fill-rule="evenodd" fill="#4E4E4E" cx="263.211" cy="156.607" rx="1.359" ry="0.678"/>
			</g>
			<path fill-rule="evenodd" fill="#DAAE80" d="M270.855,154.172c-0.784-0.105-1.217,3.098-0.547,2.77
				c0.984-0.481,0.899,1.805,1.306,1.43C272.017,158.001,271.621,154.275,270.855,154.172z"/>
			<path fill-rule="evenodd" fill="#DAAE80" d="M245.934,158.28c0.709-0.352,2.146,2.544,1.406,2.449
				c-1.087-0.141-0.272,1.998-0.777,1.773C246.062,162.279,245.241,158.623,245.934,158.28z"/>
		</g>
		<path fill-rule="evenodd" fill="#F8D2A7" d="M77.813,182.025c-1.296,2.88-3.601,7.649-3.601,7.649s-5.84-7.191-4.1-9.091
			c1.78-1.943-5.827-0.491-5.58,1.04c1.301,8.063,5.369,13.648,6.965,15.351c2.481,2.646,9.195-3.993,11.511-8.378
			C85.325,184.212,82.017,177.617,77.813,182.025z"/>
		<path fill-rule="evenodd" fill="#F8D2A7" d="M105.444,185.051c2.752,4.449,4.981,8.398,5.561,13.335
			c0.581,4.937,3.062,11.585,1.922,15.082c-1.141,3.498-1.524,7.35-0.362,5.626c1.161-1.723,1.44-2.287,1.937-0.437
			c0.496,1.849,0.649,7.547,3.103,4.469c2.454-3.077,0.339-6.908-0.204-10.048c-0.543-3.139,0.424-10.779-0.952-17.388
			s-3.712-12.261-5.648-15.665C108.865,176.622,105.868,180.539,105.444,185.051z"/>
		<path fill-rule="evenodd" fill="#F8D2A7" d="M85.863,226.2c1.104,3.565,1.562,8.84,1.246,12.643
			c-0.315,3.803,1.676,20.96-0.618,28.194c-1.846,5.822-7.362,6.582-6.373,8.646c1.056,2.202,5.523,0.125,8.797-1.319
			c1.593-0.704,3.126-1.022,3.725-1.857c0.594-0.828-0.34-2.972-0.708-4.225c-1.861-6.334,3.322-23.642,3.48-29.821
			s0.702-13.924,2.122-16.895C98.955,218.595,86.967,220.021,85.863,226.2z"/>
		<path fill-rule="evenodd" fill="#F8D2A7" d="M107.332,226.2c-1.104,3.565-1.562,8.84-1.247,12.643
			c0.316,3.803-1.675,20.96,0.618,28.194c1.846,5.822,7.362,6.582,6.373,8.646c-1.056,2.202-5.523,0.125-8.797-1.319
			c-1.593-0.704-3.126-1.022-3.725-1.857c-0.595-0.828,0.34-2.972,0.708-4.225c1.861-6.334-3.322-23.642-3.48-29.821
			s-0.702-13.924-2.122-16.895C94.24,218.595,106.228,220.021,107.332,226.2z"/>
		<path fill-rule="evenodd" fill="#377185" d="M101.185,268.529L101.185,268.529c-0.404,1.271-1.188,3.2-0.632,3.977
			c0.599,0.835,2.132,1.153,3.725,1.857c3.274,1.444,7.741,3.521,8.797,1.319c0.51-1.064-0.71-1.781-2.264-3.025
			c0.896,0.841-0.776,2.057-3.363,1.087C104.862,272.773,100.47,270.875,101.185,268.529z"/>
		<path fill-rule="evenodd" fill="#377185" d="M92.009,268.529L92.009,268.529c0.404,1.271,1.189,3.2,0.632,3.977
			c-0.599,0.835-2.132,1.153-3.725,1.857c-3.274,1.444-7.741,3.521-8.797,1.319c-0.51-1.064,0.709-1.781,2.264-3.025
			c-0.895,0.841,0.777,2.057,3.363,1.087C88.332,272.773,92.724,270.875,92.009,268.529z"/>
		<path fill-rule="evenodd" fill="#377185" d="M106.727,202.333c1.793,7.189,3.409,14.91,3.953,32.02
			c-7.172,3.423-24.613,1.956-28.851-0.978c0.541-17.05,2.132-24.103,3.86-31.042H106.727z"/>
		<path fill-rule="evenodd" fill="#E44B4F" d="M105.774,175.042c3.348,0.685,7.714,4.388,10.197,11.534
			c-0.86,2.701-2.079,4.017-6.687,6.344c-0.538-0.623-0.85-0.969-1.037-1.333c-0.878,4.391-0.781,9.239,0.975,14.947
			c-4.391,2.415-18.548,2.31-25.792,0.114c1.317-3.073,1.761-9.619,0.415-16.548c-0.734,0.455-0.972,0.552-1.719,0.854
			c-3.01-1.944-4.903-3.839-5.796-6.933c3.417-7.277,9.336-8.886,12.687-8.886C91.492,180.618,102.637,180.896,105.774,175.042z"/>
		<path fill-rule="evenodd" fill="#F8D2A7" d="M69.573,182.768c1.334-0.779,4.339-4.584,3.291-5.349
			c-0.833-0.607-1.415,2.257-2.335,1.476c-1.021-0.867,1.106-6.246-0.201-6.31c-1.481-0.074-0.776,4.537-1.91,4.292
			c-1.134-0.244,1.128-5.814-0.429-5.841s-0.51,5.344-1.665,5.237c-1.155-0.106,0.599-4.786-0.816-4.852
			c-1.578-0.073-0.368,5.734-1.098,5.617c-1.222-0.196,0.136-3.998-1.095-4.125c-0.727-0.075-0.914,2.01-0.76,4.3
			c0.136,2.025,0.601,4.112,1.449,5.114C65.787,184.435,67.183,184.164,69.573,182.768z"/>
		<path fill-rule="evenodd" fill="#ECC295" d="M172.616,186.24c0,1.19-3.733,8.907-1.515,9.276c-0.189,1.894,0.663,2.557,1.704,2.84
			c0.379,1.515,1.308,1.59,2.086,1.44c0.778-0.148,2.932-3.428,2.27-12.516C176.498,178.193,173.941,179.992,172.616,186.24z"/>
		<path fill-rule="evenodd" fill="#ECC295" d="M175.021,160.384c-1.953,1.078-1.568,21.798-2.14,26.303
			c-0.023,0.183,4.289,1.6,4.268,1.14c-0.225-4.949,6.472-24.628,5.768-26.425C182.412,160.111,176.718,159.236,175.021,160.384z"/>
		<path fill-rule="evenodd" fill="#F8D2A7" d="M175.203,200.338c-0.373-0.265-0.346-0.632-0.477-1.078
			c-0.26-0.895-0.353-1.803,0.429-2.037C176.327,196.871,176.532,201.281,175.203,200.338z"/>
		<path fill-rule="evenodd" fill="#F8D2A7" d="M175.567,198.747c-0.726-1.165-1.172-2.932,0-3.283
			c0.678-0.202,1.377,2.093,1.303,3.186C176.816,199.446,175.996,199.436,175.567,198.747z"/>
		<path fill-rule="evenodd" fill="#F8D2A7" d="M176.307,197.493c-0.539-1.262-0.708-3.076,0.505-3.243
			c0.701-0.097,1.017,2.42,0.775,3.489C177.41,198.519,176.625,198.239,176.307,197.493z"/>
		<path fill-rule="evenodd" fill="#ECC295" d="M177.066,187.66c0.852,2.65,1.42,4.354,1.42,5.964c0,1.608-0.474,3.691-1.515,3.028
			c-1.042-0.662,0.095-1.42,0-2.745S173.752,187.66,177.066,187.66z"/>
		<path fill-rule="evenodd" fill="#F8D2A7" d="M288.829,171.705c2.649-3.165,6.683-11.103,4.943-13.001
			c-1.78-1.944,5.827-0.492,5.58,1.039c-1.301,8.064-5.661,13.441-7.195,15.198C286.512,181.402,286.18,174.871,288.829,171.705z"/>
		<path fill-rule="evenodd" fill="#F8D2A7" d="M250.947,185.87c-2.752,4.448-4.981,8.397-5.562,13.334s-3.062,11.585-1.922,15.083
			c1.141,3.498,1.524,7.35,0.362,5.626s-1.44-2.287-1.937-0.438s-0.649,7.548-3.103,4.47c-2.455-3.078-0.34-6.909,0.203-10.048
			c0.543-3.14-0.424-10.78,0.952-17.388c1.375-6.608,3.711-12.262,5.647-15.665C247.526,177.44,250.523,181.357,250.947,185.87z"/>
		<path fill-rule="evenodd" fill="#F8D2A7" d="M294.621,159.344c-1.335-0.779-4.339-4.584-3.291-5.349
			c0.833-0.607,1.415,2.257,2.336,1.476c1.021-0.868-1.106-6.246,0.201-6.311c1.481-0.073,0.775,4.538,1.909,4.293
			s-1.128-5.814,0.43-5.842c1.558-0.028,0.51,5.345,1.665,5.238c1.154-0.107-0.6-4.788,0.815-4.854
			c1.577-0.073,0.367,5.735,1.098,5.618c1.222-0.197-0.135-3.998,1.096-4.125c0.727-0.075,0.913,2.009,0.76,4.3
			c-0.136,2.026-0.601,4.112-1.449,5.114C298.407,161.011,297.011,160.74,294.621,159.344z"/>
		<path fill-rule="evenodd" fill="#F8D2A7" d="M276.965,174.075c3.154-0.148,10.663-1.059,12.809-3.331
			c2.394-2.536,6.061-2.641,3.881,2.573c-1.399,3.345-6.438,5.923-12.867,6.545c-1.631,0.156-7.417,0.847-8.53,0.502
			C268.98,179.349,272.702,175.785,276.965,174.075z"/>
		<path fill-rule="evenodd" fill="#E44B4F" d="M254.661,222.233c1.216,3.928-0.169,10.413-0.518,14.603
			c-0.347,4.188,1.847,23.09-0.68,31.059c-2.033,6.414-8.11,7.251-7.021,9.524c1.163,2.426,6.084,0.138,9.691-1.454
			c1.755-0.775,3.443-1.126,4.103-2.045c0.655-0.914-0.374-3.274-0.779-4.654c-2.051-6.979,3.66-26.044,3.833-32.852
			c0.175-6.808,0.773-15.338,2.338-18.611S255.877,215.426,254.661,222.233z"/>
		<path fill-rule="evenodd" fill="#E44B4F" d="M276.306,222.233c-1.217,3.928,0.168,10.413,0.516,14.603
			c0.348,4.188-1.846,23.09,0.681,31.059c2.034,6.414,8.11,7.251,7.021,9.524c-1.163,2.426-6.084,0.138-9.69-1.454
			c-1.756-0.775-3.444-1.126-4.104-2.045c-0.655-0.914,0.374-3.274,0.779-4.654c2.05-6.979-3.66-26.044-3.834-32.852
			c-0.173-6.808-0.773-15.338-2.337-18.611S275.089,215.426,276.306,222.233z"/>
		<path fill-rule="evenodd" fill="#FFFFFF" d="M271.184,271.393c-0.44,1.045-0.629,2.208,0.722,2.777
			C272.717,273.984,272.534,272.292,271.184,271.393z"/>
		<path fill-rule="evenodd" fill="#FFFFFF" d="M283,275.292c0,0,1.569,0.866,1.101,1.944c-0.469,1.079-2.063,1.068-3.455,0.511
			C280.399,275.784,282.181,274.853,283,275.292z"/>
		<path fill="#FFFFFF" d="M279.274,271.789l0.28,0.059c0.098,0.021,0.194-0.042,0.215-0.14c0.021-0.098-0.042-0.194-0.14-0.216
			c-0.12-0.025-0.238-0.05-0.355-0.074V271.789L279.274,271.789z M279.274,274.593v-0.756c0.103,0.002,0.206,0.007,0.312,0.015
			l0.016,0.001c0.043-0.032,0.087-0.063,0.131-0.093c0.464-0.313,0.953-0.513,1.45-0.458c0.099,0.011,0.171,0.101,0.16,0.2
			s-0.101,0.172-0.2,0.161c-0.321-0.036-0.649,0.068-0.972,0.25c0.515,0.069,1.069,0.18,1.663,0.306
			c0.098,0.021,0.16,0.118,0.14,0.216s-0.118,0.16-0.216,0.14c-0.751-0.16-1.437-0.293-2.051-0.349
			C279.561,274.339,279.416,274.463,279.274,274.593L279.274,274.593z M279.274,272.963c0.438,0.067,0.905,0.162,1.4,0.267
			c0.099,0.021,0.194-0.042,0.216-0.14c0.021-0.098-0.042-0.194-0.14-0.215c-0.487-0.104-0.947-0.196-1.382-0.266
			c0.115-0.008,0.232-0.006,0.354,0.008c0.099,0.011,0.188-0.062,0.2-0.16c0.011-0.101-0.062-0.189-0.161-0.201
			c-0.169-0.019-0.331-0.019-0.488-0.002V272.963z M276.14,271.86c-0.07,0.071-0.069,0.186,0.002,0.256s0.187,0.069,0.256-0.002
			c0.271-0.273,0.509-0.486,0.746-0.639c0.07,0.002,0.142,0.007,0.214,0.012c0.575,0.04,1.216,0.156,1.917,0.302v-0.371
			c-0.459-0.094-0.893-0.175-1.302-0.23c0.138-0.011,0.284-0.008,0.443,0.01c0.1,0.012,0.189-0.061,0.2-0.16s-0.062-0.189-0.16-0.2
			c-0.484-0.054-0.871,0.006-1.239,0.183l0,0l0,0c-0.058,0.027-0.114,0.057-0.17,0.09c-0.552-0.011-1.048,0.058-1.484,0.244
			c-0.092,0.039-0.136,0.146-0.096,0.238c0.039,0.092,0.146,0.135,0.237,0.096c0.25-0.106,0.526-0.17,0.826-0.198
			C276.403,271.6,276.275,271.723,276.14,271.86L276.14,271.86z M279.274,272.254v0.709c-0.253-0.04-0.497-0.07-0.729-0.089
			c-0.331,0.188-0.653,0.468-0.989,0.809c-0.07,0.071-0.186,0.072-0.257,0.002c-0.071-0.069-0.071-0.185-0.002-0.256
			c0.213-0.216,0.422-0.408,0.633-0.573c-0.41,0.01-0.779,0.074-1.104,0.215c-0.093,0.038-0.199-0.005-0.238-0.097
			s0.004-0.199,0.096-0.238c0.515-0.22,1.11-0.275,1.783-0.231C278.724,272.371,278.99,272.284,279.274,272.254L279.274,272.254z
			 M279.274,273.837v0.756c-0.181,0.166-0.356,0.34-0.524,0.509c-0.069,0.072-0.185,0.072-0.256,0.003
			c-0.071-0.07-0.072-0.186-0.002-0.257c0.214-0.217,0.442-0.441,0.681-0.65c-0.475-0.002-0.897,0.06-1.265,0.217
			c-0.092,0.039-0.199-0.004-0.238-0.096s0.004-0.198,0.096-0.238C278.209,273.891,278.713,273.823,279.274,273.837z"/>
		<path fill-rule="evenodd" fill="#4E8CA3" d="M277.654,208.923c0.622,4.715-0.27,24.098-0.736,30.419
			c-0.467,6.319,2.55,23.771,2.395,29.166c-2.491,0.616-6.801,1.634-9.758,0.555c-1.868-14.798-0.686-20.181-1.309-27.118
			c-0.622-6.937-2.322-14.228-2.634-18.081c-0.312,3.854-1.66,10.926-2.282,17.862c-0.623,6.938-0.313,12.539-2.181,27.337
			c-2.958,1.079-6.621,0.062-9.112-0.555c-0.155-5.396,2.432-23.493,1.964-29.813c-0.467-6.321-0.694-24.749-0.072-29.464
			C257.275,209.848,271.039,210.618,277.654,208.923z"/>
		<path fill-rule="evenodd" fill="#E44B4F" d="M268.505,172.922c2.707,0.263,7.845,0.411,9.527,0.263
			c1.347,2.243,2.417,6.579,0.62,10.083c-0.611,0.148-2.081,0.499-3.71,0.705c-0.326,4.466,3.82,24.758,5.417,30.047
			c-4.057,2.941-21.238,4.775-28.699,3.497c-0.085-3.291,1.167-19.969-1.03-26.677c-0.672,0.543-0.896,0.668-1.6,1.061
			c-3.228-1.556-5.342-3.2-6.612-6.159c2.142-6.522,8.647-9.969,11.973-10.385C258.533,180.111,266.496,178.994,268.505,172.922z"/>
		<path fill-rule="evenodd" fill="#FFFFFF" d="M259.782,271.393c0.44,1.045,0.629,2.208-0.722,2.777
			C258.249,273.984,258.432,272.292,259.782,271.393z"/>
		<path fill-rule="evenodd" fill="#FFFFFF" d="M247.966,275.292c0,0-1.569,0.866-1.101,1.944c0.469,1.079,2.063,1.068,3.455,0.511
			C250.566,275.784,248.786,274.853,247.966,275.292z"/>
		<path fill="#FFFFFF" d="M254.827,271.86c0.069,0.071,0.068,0.186-0.003,0.256s-0.186,0.069-0.256-0.002
			c-0.271-0.273-0.509-0.486-0.745-0.639c-0.07,0.002-0.143,0.007-0.215,0.012c-0.574,0.04-1.216,0.156-1.917,0.302v-0.371
			c0.459-0.094,0.893-0.175,1.302-0.23c-0.138-0.011-0.284-0.008-0.443,0.01c-0.1,0.012-0.189-0.061-0.2-0.16s0.061-0.189,0.161-0.2
			c0.483-0.054,0.87,0.006,1.238,0.183l0,0l0,0c0.058,0.027,0.114,0.057,0.17,0.09c0.552-0.011,1.048,0.058,1.484,0.244
			c0.093,0.039,0.136,0.146,0.096,0.238c-0.038,0.092-0.146,0.135-0.237,0.096c-0.25-0.106-0.525-0.17-0.826-0.198
			C254.562,271.6,254.691,271.723,254.827,271.86L254.827,271.86z M251.691,274.593v-0.756c0.562-0.014,1.065,0.054,1.509,0.243
			c0.092,0.04,0.135,0.146,0.096,0.238s-0.146,0.135-0.238,0.096c-0.367-0.157-0.79-0.219-1.264-0.217
			c0.238,0.209,0.466,0.434,0.68,0.65c0.07,0.071,0.069,0.187-0.002,0.257c-0.071,0.069-0.187,0.069-0.257-0.003
			C252.048,274.933,251.872,274.759,251.691,274.593L251.691,274.593z M251.691,272.963v-0.709c0.285,0.03,0.551,0.117,0.809,0.25
			c0.673-0.044,1.269,0.012,1.783,0.231c0.092,0.039,0.135,0.146,0.096,0.238s-0.146,0.135-0.238,0.097
			c-0.325-0.141-0.694-0.205-1.104-0.215c0.211,0.165,0.42,0.357,0.633,0.573c0.07,0.071,0.069,0.187-0.002,0.256
			c-0.071,0.07-0.187,0.069-0.257-0.002c-0.336-0.341-0.657-0.62-0.989-0.809C252.188,272.893,251.944,272.923,251.691,272.963z
			 M251.691,271.789l-0.28,0.059c-0.098,0.021-0.194-0.042-0.215-0.14s0.042-0.194,0.14-0.216c0.12-0.025,0.238-0.05,0.355-0.074
			V271.789L251.691,271.789z M251.691,272.254v0.709c-0.438,0.067-0.904,0.162-1.4,0.267c-0.099,0.021-0.194-0.042-0.215-0.14
			c-0.021-0.098,0.041-0.194,0.14-0.215c0.486-0.104,0.947-0.196,1.381-0.266c-0.114-0.008-0.232-0.006-0.354,0.008
			c-0.101,0.011-0.189-0.062-0.2-0.16c-0.012-0.101,0.061-0.189,0.16-0.201C251.372,272.237,251.534,272.237,251.691,272.254
			L251.691,272.254z M251.691,273.837c-0.103,0.002-0.206,0.007-0.312,0.015l-0.015,0.001c-0.044-0.032-0.088-0.063-0.132-0.093
			c-0.464-0.313-0.952-0.513-1.449-0.458c-0.1,0.011-0.172,0.101-0.161,0.2s0.101,0.172,0.2,0.161
			c0.32-0.036,0.648,0.068,0.972,0.25c-0.515,0.069-1.069,0.18-1.663,0.306c-0.098,0.021-0.16,0.118-0.14,0.216
			c0.021,0.098,0.117,0.16,0.216,0.14c0.751-0.16,1.437-0.293,2.051-0.349c0.146,0.113,0.291,0.237,0.433,0.367V273.837z"/>
		<path fill-rule="evenodd" fill="#6CAAC2" d="M214.807,117.053c4.9,1.12,11.858,6.615,15.494,18.314
			c-1.26,4.422-3.043,6.574-9.788,10.385c-0.788-1.02-1.245-1.585-1.518-2.183c-1.285,7.188,1.507,19.102,4.077,28.445
			c-7.372,5.278-27.06,15.693-38.799,12.289c-2.021-6.453,2.204-25.973,0.232-37.316c-3.123,1.831-8.384,0.366-11.092-3.308
			c1.783-25.922,12.529-27.043,17.434-27.043C194.47,125.613,209.267,126.445,214.807,117.053z"/>
		<path fill-rule="evenodd" fill="#4E91AA" d="M216.675,169.943c-5.82,3.519-12.435,7.916-22.488,10.82
			C204.24,179.399,210.854,174.743,216.675,169.943z"/>
		<path fill-rule="evenodd" fill="#4E91AA" d="M216.68,169.894c-6.256,2.45-13.436,5.632-23.659,6.681
			C202.961,177.07,210.19,173.627,216.68,169.894z"/>
		<path fill-rule="evenodd" fill="#F8D2A7" d="M221.558,122.965c-0.299,1.346-1.096,1.545-1.644,1.794
			c-0.549,0.25-1.894,7.474,5.032,8.869c6.926,1.396,9.815-6.876,7.724-7.523c-2.094-0.648-2.144-2.491-1.695-4.335
			C231.424,119.926,222.754,118.93,221.558,122.965z"/>
		<path fill-rule="evenodd" fill="#989798" d="M232.973,117.471c-1.392,2.882-4.571,5.313-7.694,5.016
			c-3.021-0.288-5.613-3.093-6.524-6.077C215.381,105.359,237.867,107.337,232.973,117.471z"/>
		<path fill-rule="evenodd" fill="#DAAE80" d="M221.558,122.965c-0.151,0.683-0.432,1.07-0.742,1.319
			c1.197,0.767,2.581,1.27,4.151,1.418c2.206,0.21,4.186-0.333,5.883-1.393c-0.191-0.756-0.091-1.648,0.125-2.54
			C231.424,119.926,222.754,118.93,221.558,122.965z"/>
		<path fill-rule="evenodd" fill="#F8D2A7" d="M237.345,110.146c2.331,2.278,0.843,8.506-2.303,8.718
			c-2.143,3.771-5.671,6.415-10.125,5.991c-4.454-0.424-7.42-3.685-8.813-7.792c-3.049-0.802-3.337-7.199-0.618-8.997
			c1.066-5.724,4.987-10.548,11.97-9.884C234.437,98.848,237.377,104.324,237.345,110.146z"/>
		<path fill-rule="evenodd" fill="#B47E2B" d="M219.233,103.928c-0.971,1.734-1.603,3.667-1.696,5.515
			c-0.144,2.843-0.361,2.078-0.731,0.527c-0.196-0.825-0.538-1.652-1.168-1.714c-0.444-0.044-0.81,0.32-0.978,0.604
			c-0.308-1.245,0.129-10.528,7.449-11.106c5.582-2.395,10.91-0.348,14.014,3.737c2.95,3.884,2.068,7.569,1.895,9.591
			c-0.111-0.311-0.401-0.736-0.847-0.777c-0.63-0.058-1.122,0.69-1.47,1.463c-0.655,1.453-0.967,2.167-0.573-0.651
			c0.081-0.575,0.05-1.173,0.033-1.775C226.574,111.032,219.34,105.028,219.233,103.928z"/>
		<path fill-rule="evenodd" fill="#DAAE80" d="M230.479,117.881c-0.229,2.402-2.588,4.143-5.268,3.888
			c-2.682-0.255-4.669-2.409-4.44-4.812L230.479,117.881z"/>
		<path fill="#DAAE80" d="M224.382,115.805c-0.117-0.146-0.096-0.359,0.05-0.477c0.145-0.118,0.358-0.096,0.477,0.049
			c0.078,0.098,0.195,0.182,0.338,0.247c0.154,0.071,0.34,0.119,0.545,0.138c0.192,0.019,0.375,0.004,0.535-0.035
			c0.157-0.04,0.293-0.103,0.393-0.183c0.146-0.117,0.359-0.094,0.477,0.052s0.094,0.359-0.052,0.477
			c-0.177,0.141-0.401,0.249-0.653,0.312c-0.234,0.059-0.495,0.08-0.764,0.054c-0.275-0.027-0.534-0.096-0.761-0.199
			C224.728,116.131,224.526,115.983,224.382,115.805z"/>
		<path fill-rule="evenodd" fill="#FFFFFF" d="M229.648,117.803c-0.053,0.556-0.743,0.945-4.119,0.624
			c-3.378-0.321-3.982-0.834-3.93-1.39L229.648,117.803z"/>
		<g>
			
				<ellipse transform="matrix(0.0948 -0.9955 0.9955 0.0948 90.1624 321.9562)" fill-rule="evenodd" fill="#4E4E4E" cx="222.126" cy="111.397" rx="1.174" ry="0.586"/>
			
				<ellipse transform="matrix(0.0944 -0.9955 0.9955 0.0944 96.7928 330.7401)" fill-rule="evenodd" fill="#4E4E4E" cx="230.196" cy="112.166" rx="1.174" ry="0.585"/>
		</g>
		<path fill-rule="evenodd" fill="#DAAE80" d="M215.169,110.043c0.669-0.138,1.23,2.597,0.634,2.354
			c-0.876-0.357-0.668,1.608-1.04,1.309C214.394,113.41,214.515,110.177,215.169,110.043z"/>
		<path fill-rule="evenodd" fill="#DAAE80" d="M237.021,112.122c-0.631-0.261-1.698,2.319-1.066,2.192
			c0.929-0.185,0.353,1.705,0.774,1.482C237.146,115.576,237.637,112.377,237.021,112.122z"/>
		<path fill-rule="evenodd" fill="#FFFFFF" d="M211.438,133.48c-1.493-1.359-5.672-2.748-7.765-3.485
			c-0.201-0.071-3.795,0.744-3.624,1.154c2.183,5.241,8.856,7.49,12.105,7.36c2.278-0.091,6.639-2.543,6.254-3.278
			c-0.173-0.331-1.467-10.613-2.441-10.056C214.118,126.232,211.966,133.957,211.438,133.48z"/>
		
			<ellipse transform="matrix(0.0948 -0.9955 0.9955 0.0948 60.1927 351.611)" fill-rule="evenodd" fill="#CBCBCB" cx="223.438" cy="142.707" rx="3.935" ry="6.325"/>
		<path fill-rule="evenodd" fill="#4E8CA3" d="M215.989,143.674c-0.94,0.597-2.866,2.28-4.009,4.166
			c-1.144,1.886-2.166,4.412-2.378,9.202c0.842,0.494,20.196-0.32,21.115-0.646c0.914-0.325,1.013-3.595,0.808-6.089
			c-0.204-2.494-1.439-4.604-2.25-5.369C227.978,143.715,217.494,142.717,215.989,143.674z"/>
		<path fill-rule="evenodd" fill="#FFFFFF" d="M235.852,127.388c2.601,0.705,3.466,7.133,3.332,9.233
			c-0.134,2.101,0.285,5.09,1.556,7.912c1.271,2.821-0.588,2.251-1.702,2.422c-1.113,0.171-4.716,0.877-4.696-2.063
			s-1.179-6.428-2.216-8.349s-1.943-4.713-1.021-5.459C233.288,130.315,233.478,127.317,235.852,127.388z"/>
		<path fill-rule="evenodd" fill="#CBCBCB" d="M216.351,169.13c-1.958,0.227-3.33,1.186-3.063,2.144
			c0.267,0.957,2.069,1.551,4.028,1.324c1.958-0.226,3.328-1.186,3.063-2.143C220.111,169.498,218.308,168.905,216.351,169.13z"/>
		<path fill-rule="evenodd" fill="#E44B4F" d="M221.206,197.842c-10.067,1.162-2.227-6.285,2.754-6.859
			C228.98,190.403,231.327,196.674,221.206,197.842z"/>
		<path fill="#FFFFFF" d="M222.549,193.174c0.046,0.063,0.032,0.15-0.029,0.195c-0.063,0.046-0.149,0.032-0.195-0.029
			c-0.176-0.237-0.335-0.427-0.499-0.568c-0.054-0.006-0.108-0.011-0.164-0.014c-0.222-0.017-0.459-0.02-0.709-0.015v-0.28
			c0.093-0.001,0.184-0.002,0.272-0.001c-0.084-0.02-0.175-0.032-0.272-0.038v-0.279c0.347,0.019,0.619,0.106,0.867,0.271l0,0l0,0
			c0.04,0.027,0.08,0.057,0.119,0.087c0.422,0.052,0.793,0.158,1.105,0.349c0.065,0.04,0.087,0.126,0.047,0.192
			c-0.04,0.065-0.126,0.086-0.191,0.047c-0.179-0.109-0.383-0.188-0.608-0.242C222.376,192.947,222.461,193.055,222.549,193.174
			L222.549,193.174z M220.952,194.942v-0.317c0.039,0.021,0.077,0.042,0.114,0.064c0.066,0.04,0.087,0.126,0.047,0.192
			C221.08,194.938,221.012,194.961,220.952,194.942L220.952,194.942z M220.952,194.015v-0.578c0.414,0.053,0.779,0.158,1.087,0.346
			c0.066,0.04,0.087,0.127,0.047,0.192c-0.039,0.065-0.126,0.087-0.191,0.047c-0.233-0.142-0.508-0.231-0.818-0.284
			c0.143,0.148,0.28,0.319,0.419,0.507c0.046,0.062,0.032,0.149-0.029,0.195c-0.063,0.045-0.149,0.032-0.195-0.03
			C221.164,194.266,221.059,194.133,220.952,194.015z M220.952,192.743c-0.314,0.006-0.65,0.025-1.006,0.05
			c-0.076,0.005-0.143-0.054-0.148-0.131c-0.005-0.077,0.053-0.144,0.13-0.148c0.361-0.024,0.702-0.044,1.024-0.051V192.743
			L220.952,192.743z M220.952,192.424l-0.066-0.003c-0.077-0.003-0.138-0.067-0.136-0.144c0.003-0.077,0.067-0.138,0.145-0.136
			l0.058,0.003V192.424L220.952,192.424z M220.952,193.437v0.578c-0.113-0.126-0.229-0.237-0.348-0.33
			c-0.488-0.03-1.047-0.002-1.663,0.039c-0.076,0.005-0.144-0.054-0.148-0.13c-0.005-0.077,0.054-0.144,0.13-0.149
			c0.383-0.025,0.743-0.046,1.082-0.05c-0.086-0.021-0.177-0.031-0.271-0.034c-0.077-0.003-0.138-0.066-0.136-0.144
			c0.003-0.078,0.067-0.139,0.145-0.136c0.371,0.012,0.681,0.13,0.962,0.33C220.789,193.418,220.871,193.426,220.952,193.437
			L220.952,193.437z M220.952,194.625c-0.353-0.185-0.771-0.274-1.248-0.309h-0.012c-0.029-0.03-0.06-0.059-0.09-0.086
			c-0.319-0.29-0.671-0.495-1.056-0.507c-0.076-0.003-0.142,0.058-0.144,0.135c-0.003,0.077,0.058,0.142,0.135,0.145
			c0.248,0.008,0.487,0.123,0.714,0.297c-0.4-0.004-0.835,0.021-1.301,0.052c-0.077,0.005-0.136,0.072-0.13,0.149
			c0.005,0.076,0.071,0.135,0.148,0.13c0.59-0.04,1.127-0.067,1.601-0.042c0.229,0.233,0.44,0.51,0.635,0.772
			c0.045,0.062,0.133,0.075,0.194,0.029c0.063-0.046,0.075-0.133,0.03-0.195c-0.14-0.188-0.289-0.385-0.448-0.569
			c0.362,0.049,0.678,0.143,0.94,0.302c0.01,0.007,0.02,0.011,0.03,0.015V194.625z"/>
		<path fill-rule="evenodd" fill="#4E8CA3" d="M220.724,170.274c1.257,0.321,3.962,7.763,4.475,10.429
			c0.512,2.666,2.452,8.722,1.551,10.644c-0.581,1.241-5.535,1.791-6.811,1.027c-2.282-2.01-3.981-9.142-4.426-10.341
			c-1.151-3.109-3.532-12.265-3.153-12.921C212.808,168.335,218.972,169.706,220.724,170.274z"/>
		<path fill-rule="evenodd" fill="#E44B4F" d="M234.136,194.527c-8.366,4.94-5.812-6.045-1.673-8.489
			C236.635,183.575,242.547,189.561,234.136,194.527z"/>
		<path fill-rule="evenodd" fill="#4E8CA3" d="M219.765,168.195c1.604,1.194,5.782,4.163,8.657,7.157
			c2.875,2.994,7.237,9.645,7.109,10.315c-0.17,0.894-2.488,3.509-5.637,3.221c-1.818-0.561-8.184-6.937-9.175-7.856
			c-2.568-2.385-7.474-7.091-8.813-12.541C211.708,167.688,218.218,166.203,219.765,168.195z"/>
		<path fill-rule="evenodd" fill="#4E8CA3" d="M220.907,151.646c1.816,0.648,2.351,6.419,1.77,9.452s-0.734,6.329-1.515,7.12
			c-0.78,0.79-1.905,0.489-3.712,0.701c-1.807,0.21-2.824,0.762-3.778,0.175s-1.551-1.476-2.869-4.285
			c-1.318-2.811-1.648-10.927-0.046-11.975C214.376,151.79,217.133,151.467,220.907,151.646z"/>
		<path fill-rule="evenodd" fill="#4E8CA3" d="M231.462,153.441c1.331,1.277-2.224,9.168-4.26,11.638s-3.814,5.339-4.917,5.74
			c-1.104,0.401-1.977-0.3-3.726-0.809c-1.748-0.51-4.973-0.519-5.549-1.408c-0.525-0.811,4.934-15.064,7.455-15.463
			C224.277,153.608,228.117,151.827,231.462,153.441z"/>
		<path fill-rule="evenodd" fill="#377185" d="M219.165,153.952c-1.899,3.361-6.577,11.62-5.627,16.954
			c0.95,5.333,8.915,12.057,11.911,14.176c-3.58-1.315-11.911-8.843-12.861-14.176C211.639,165.572,216.535,157.533,219.165,153.952
			z"/>
		<path fill-rule="evenodd" fill="#ECC295" d="M238.096,156.802c0.043,4.066-14.976,12.895-18.887,12.342
			c-0.069-0.01-0.57-4.636-0.356-4.672c4.357-0.749,11.154-6.25,12.376-9.526C231.73,153.598,238.018,149.369,238.096,156.802z"/>
		<path fill-rule="evenodd" fill="#ECC295" d="M222.472,168.233c-2.936,1.429-10.548,3.657-10.443,1.41
			c-1.891-0.213-2.359-1.185-2.419-2.263c-1.401-0.688-1.231-2.881,0.639-3.804c0.79-0.392,0.964,3.074,5.083,0.8
			c2.692-1.487,3.435-0.271,6.021,0.484C230.098,167.416,225.531,166.744,222.472,168.233z"/>
		<path fill-rule="evenodd" fill="#ECC295" d="M220.497,165.507c-1.863-2.069-3.05-3.417-4.441-4.226
			c-1.391-0.81-3.429-1.448-3.38-0.215c0.049,1.234,1.275,0.633,2.373,1.381S218.831,168.372,220.497,165.507z"/>
		<path fill-rule="evenodd" fill="#FFFFFF" d="M240.07,143.727c0.903,0.216,2.666,4.735,3.141,6.851
			c0.476,2.115,1.086,4.017,0.097,4.739c-0.99,0.724-0.824,0.103-1.934,0.392c-1.109,0.289-1.845,0.725-2.604,0.665
			c-1.107-0.088-4.524-10.884-4.221-11.563C234.833,144.176,238.807,143.329,240.07,143.727z"/>
		<path fill-rule="evenodd" fill="#ECC295" d="M238.828,155.729c-0.369,0.628,0.169,2.485,0.625,3.365
			c0.455,0.88-0.045,3.167,2.534,2.705c2.579-0.463,2.223-1.876,2.358-3.434s-0.69-2.872-1.217-3.218
			C242.603,154.801,239.834,154.627,238.828,155.729z"/>
		<path fill-rule="evenodd" fill="#ECC295" d="M238.356,155.885c-0.389,2.131-0.574,3-0.309,4.641
			c0.15,0.932,1.063,0.857,1.067,0.221C239.124,159.269,240.912,155.549,238.356,155.885z"/>
		<path fill-rule="evenodd" fill="#F8D2A7" d="M204.009,129.072c0.504-1.071,0.8-4.199-0.193-4.226
			c-0.789-0.021-0.353,1.345-1.272,1.252c-1.021-0.104-1.575-3.727-2.428-3.2c-0.966,0.597,0.276,2.17,0.026,2.287
			c-0.591,0.277-1.18-2.907-2.174-2.249c-0.995,0.659,0.895,2.937,0.568,3.022c-0.855,0.224-1.045-2.275-1.966-1.702
			c-1.026,0.639,1.13,2.975,0.917,3.097c-0.462,0.266-0.821-1.658-1.652-1.203c-0.49,0.268,0.297,1.664,1.389,3.042
			c0.965,1.219,2.106,2.119,3.135,2.154C202.479,131.42,203.108,130.99,204.009,129.072z"/>
		<path fill-rule="evenodd" fill="#FFFFFF" d="M210.549,149.778c-0.792-3.469,2.429-5.46,3.082-7.792
			c1.381-4.932,0.001-15.392,2.237-16.747c1.32-0.8,2.69-0.971,4.723-0.749c0.258,3.908,6.414,5.516,10.557,0.62
			c2.367,0.397,5.098,2.02,6.095,3.84c1.378,2.515-5.219,12.263-4.604,16.583c0.394,2.773,0.636,5.205-0.618,8.306
			C230.25,150.708,215.445,147.921,210.549,149.778z"/>
		<path fill-rule="evenodd" fill="#FFFFFF" d="M227.16,192.188c1.033,0.964,0.89,2.929-0.657,3.581
			C225.574,195.556,225.614,193.217,227.16,192.188z"/>
		<path fill-rule="evenodd" fill="#FFFFFF" d="M217.205,195.105c0,0-0.787,1.004-0.404,1.624c0.382,0.62,2.223,0.971,3.294,0.541
			C220.284,195.759,217.836,194.767,217.205,195.105z"/>
		<path fill="#FFFFFF" d="M232.346,189.305c0.071,0.031,0.104,0.112,0.073,0.184c-0.03,0.07-0.113,0.104-0.184,0.073
			c-0.271-0.117-0.504-0.2-0.718-0.24c-0.049,0.022-0.099,0.046-0.148,0.07c-0.114,0.057-0.231,0.119-0.35,0.187v-0.548
			c0.104-0.015,0.208-0.02,0.314-0.013l0,0l0,0c0.049,0.004,0.098,0.008,0.146,0.016c0.391-0.168,0.764-0.264,1.13-0.257
			c0.077,0.001,0.139,0.064,0.138,0.142c-0.001,0.078-0.065,0.139-0.142,0.138c-0.209-0.004-0.425,0.031-0.646,0.098
			C232.082,189.196,232.209,189.246,232.346,189.305L232.346,189.305z M231.02,192.208v-0.299c0.176,0.066,0.349,0.138,0.516,0.21
			c0.07,0.03,0.104,0.112,0.072,0.183c-0.03,0.071-0.112,0.104-0.184,0.073C231.293,192.318,231.156,192.262,231.02,192.208
			L231.02,192.208z M231.02,191.791v-0.295c0.276-0.092,0.545-0.141,0.811-0.136c0.077,0.001,0.139,0.065,0.137,0.143
			c0,0.076-0.064,0.138-0.142,0.138C231.566,191.636,231.298,191.69,231.02,191.791L231.02,191.791z M231.02,190.741v-0.37
			c0.413-0.185,0.807-0.291,1.192-0.283c0.077,0,0.14,0.064,0.138,0.141c-0.001,0.077-0.064,0.14-0.142,0.138
			c-0.272-0.005-0.555,0.057-0.851,0.168c0.198,0.056,0.403,0.134,0.618,0.226c0.07,0.03,0.104,0.112,0.072,0.184
			c-0.03,0.07-0.112,0.103-0.184,0.072C231.563,190.887,231.282,190.788,231.02,190.741z M231.02,189.578
			c-0.35,0.199-0.719,0.441-1.113,0.709c-0.063,0.043-0.151,0.026-0.194-0.038c-0.043-0.063-0.026-0.15,0.038-0.193
			c0.385-0.261,0.747-0.5,1.093-0.699c-0.101,0.032-0.204,0.078-0.313,0.137c-0.067,0.036-0.152,0.011-0.188-0.057
			c-0.037-0.067-0.012-0.152,0.056-0.189c0.218-0.118,0.42-0.188,0.623-0.217V189.578L231.02,189.578z M231.02,190.371v0.37
			c-0.032-0.006-0.063-0.011-0.095-0.015c-0.438,0.22-0.906,0.525-1.417,0.872c-0.063,0.042-0.15,0.026-0.194-0.038
			c-0.042-0.064-0.026-0.15,0.038-0.194c0.316-0.215,0.618-0.414,0.908-0.589c-0.084,0.027-0.168,0.063-0.251,0.107
			c-0.067,0.037-0.152,0.012-0.188-0.057c-0.037-0.067-0.012-0.152,0.056-0.189c0.326-0.176,0.652-0.23,0.997-0.199
			C230.922,190.416,230.971,190.394,231.02,190.371L231.02,190.371z M231.02,191.496c-0.182,0.06-0.365,0.137-0.555,0.229
			l-0.01,0.006c-0.04-0.011-0.081-0.021-0.121-0.029c-0.422-0.089-0.828-0.089-1.167,0.095c-0.067,0.036-0.093,0.121-0.056,0.189
			c0.036,0.067,0.121,0.093,0.188,0.056c0.219-0.118,0.482-0.139,0.766-0.103c-0.347,0.198-0.71,0.438-1.097,0.7
			c-0.063,0.043-0.081,0.131-0.037,0.194c0.043,0.064,0.13,0.081,0.194,0.037c0.488-0.332,0.939-0.626,1.361-0.844
			c0.177,0.05,0.355,0.112,0.532,0.181v-0.299c-0.053-0.02-0.105-0.038-0.158-0.057c0.053-0.021,0.105-0.042,0.158-0.062V191.496z"
			/>
		<path fill-rule="evenodd" fill="#FFFFFF" d="M236.715,186.678c1.324,0.491,1.949,2.359,0.773,3.558
			C236.55,190.397,235.685,188.224,236.715,186.678z"/>
		<path fill-rule="evenodd" fill="#FFFFFF" d="M229.206,193.361c0,0-0.339,1.229,0.253,1.654c0.592,0.424,2.425,0.039,3.248-0.771
			C232.299,192.777,229.657,192.806,229.206,193.361z"/>
		<path fill-rule="evenodd" fill="#DAAE80" d="M265.276,163.286c0.467,2.477-1.581,4.942-4.573,5.506
			c-2.993,0.563-5.796-0.988-6.264-3.465L265.276,163.286z"/>
		<path fill-rule="evenodd" fill="#FFFFFF" d="M263.912,163.542c0.129,0.682-0.419,1.357-3.821,1.998s-4.158,0.211-4.286-0.472
			L263.912,163.542z"/>
		<path fill-rule="evenodd" fill="#4E91AA" d="M184.506,146.987c0.353-2.342-0.052-5.499,0.302-9.445
			C183.525,142.167,183.898,144.75,184.506,146.987z"/>
		<path fill-rule="evenodd" fill="#F8D2A7" d="M89.822,173.004c-2.62,0-5.297,0.73-6.136,3.454
			c-0.838,2.725,0.628,1.572,1.572,0.734c0.943-0.839,0.943,0.942,1.991-0.734c1.048-1.676,1.467-0.104,2.306-1.047
			c0.838-0.942,4.947-2.493,3.516-2.186C91.639,173.532,91.155,173.489,89.822,173.004z"/>
		<path fill-rule="evenodd" fill="#CBCBCB" d="M214.339,137.959c0.186-1.848,0.37-3.234,0.925-4.62
			C215.817,131.954,213.415,135.188,214.339,137.959z"/>
		<path fill-rule="evenodd" fill="#CBCBCB" d="M233.557,140.639c-0.462-1.571-0.555-5.082-0.555-6.098
			S232.17,139.53,233.557,140.639z"/>
		<image width="251" height="382" xlink:href="793C9BCD.png"  transform="matrix(0.24 0 0 0.24 112.8145 124.9111)">
		</image>
		<path fill-rule="evenodd" fill="#EB686D" d="M96.151,200.334c-0.861-0.387-8.231-4.996-8.231-9.584
			c0-2.285,1.958-4.096,4.244-4.096c2.285,0,4.027,2.227,4.027,3.146c0-0.92,1.662-3.146,3.947-3.146
			c2.286,0,4.244,1.811,4.244,4.096C104.382,195.338,97.012,199.947,96.151,200.334z"/>
		
			<text transform="matrix(0.9841 -0.1253 0.1263 0.992 258.0332 208.0332)" fill="#EB686D" font-family="'Arial-BoldMT'" font-size="23.5886">A</text>
	</g>
</g>
</svg>
