<?xml version="1.0" encoding="utf-8"?>
<!-- Generator: Adobe Illustrator 16.0.0, SVG Export Plug-In . SVG Version: 6.00 Build 0)  -->
<!DOCTYPE svg PUBLIC "-//W3C//DTD SVG 1.1 Tiny//EN" "http://www.w3.org/Graphics/SVG/1.1/DTD/svg11-tiny.dtd">
<svg version="1.1" baseProfile="tiny" id="Layer_1" xmlns="http://www.w3.org/2000/svg" xmlns:xlink="http://www.w3.org/1999/xlink"
	 x="0px" y="0px" width="350px" height="350px" viewBox="0 0 350 350" xml:space="preserve">
<g>
	<g>
		<g>
			<path fill="#773C23" d="M218.278,131.974c0,0,6.137,14.329,3.57,24.22c0,0,3.53-2.218,4.62-5.208c0,0,1.038,6.674,6.414,10.267
				c0,0-0.134-2.281,2.515-4.131c2.648-1.85,8.434-3.256,8.347-3.483C243.659,153.412,221.123,129.081,218.278,131.974z"/>
		</g>
		<g>
			<path fill="#773C23" d="M286.275,131.974c0,0-6.137,14.329-3.571,24.22c0,0-3.528-2.218-4.618-5.208
				c0,0-1.039,6.674-6.415,10.267c0,0,0.134-2.281-2.516-4.131c-2.648-1.85-8.432-3.256-8.347-3.483
				C260.896,153.412,283.432,129.081,286.275,131.974z"/>
		</g>
		<g>
			<path fill="#773C23" d="M55.169,134.858c0,0,10.314,21.694,3.203,41.267c0,0,3.555,1.666,8.843,1.797
				c0,0,0.821-8.721,0.639-10.851c0,0,1.094,8.188,0.729,10.851c0,0,12.582,1.064,22.974,0l-3.06-44.87L55.169,134.858z"/>
		</g>
		<g>
			<path fill="#773C23" d="M123.955,134.858c0,0-10.315,21.694-3.204,41.267c0,0-3.556,1.666-8.844,1.797
				c0,0-0.821-8.721-0.638-10.851c0,0-1.094,8.188-0.73,10.851c0,0-12.581,1.064-22.974,0l3.061-44.87L123.955,134.858z"/>
		</g>
		<g>
			<path fill="#FECD90" d="M56.833,211.877c0,0,0.647,6.307-5.322,8.613c-5.97,2.309-7.605-8.631-0.817-12.406
				C50.693,208.084,55.313,209.488,56.833,211.877z"/>
		</g>
		<g>
			<path fill="#FECD90" d="M123.866,211.877c0,0-0.646,6.307,5.324,8.613c5.969,2.309,7.605-8.631,0.817-12.406
				C130.007,208.084,125.385,209.488,123.866,211.877z"/>
		</g>
		<g>
			<rect x="82.466" y="143.321" fill="#FAAB6B" width="14.377" height="22.817"/>
		</g>
		<g>
			<ellipse fill="#FECD90" cx="89.655" cy="128.542" rx="35.32" ry="30.006"/>
		</g>
		<g>
			<polygon fill="#FECD90" points="75.502,222.168 78.858,265.926 86.555,265.926 89.219,236.545 92.475,265.926 99.975,265.926 
				104.119,222.168 			"/>
		</g>
		<g>
			<path fill="#F1625B" d="M86.537,265.926v6.613H68.289c0.529-6.084,8.463-6.613,8.463-6.613H86.537z"/>
		</g>
		<g>
			<path fill="#F1625B" d="M92.457,265.926v6.613h18.25c-0.529-6.084-8.463-6.613-8.463-6.613H92.457z"/>
		</g>
		<g>
			<path fill="#FECD90" d="M201.668,215.488c0,0-4.537,5.896,0,11.883c4.536,5.988,12.918-3.924,8.471-11.883
				C210.139,215.488,204.658,214.039,201.668,215.488z"/>
		</g>
		<g>
			<path fill="#FECD90" d="M301.711,215.488c0,0,4.535,5.896,0,11.883c-4.537,5.988-12.919-3.924-8.472-11.883
				C293.239,215.488,298.721,214.039,301.711,215.488z"/>
		</g>
		<g>
			<rect x="245.087" y="143.321" fill="#FAAB6B" width="14.378" height="22.817"/>
		</g>
		<g>
			<ellipse fill="#FECD90" cx="252.276" cy="123.807" rx="35.32" ry="30.006"/>
		</g>
		<g>
			<path fill="#773C23" d="M269.78,100.677c0,0-22.817,10.002-41.884,7.189c0,0-6.67,3.863-8.006,11.587
				c-1.297,7.505-5.122,8.104-5.434,0.604c-0.313-7.502-1.877-25.631,20.315-35.633s39.07,0.313,41.571,5.626
				c0,0,8.127,1.875,11.252,11.565s4.376,21.567,0,22.192c-1.025,0.147-1.862-0.823-2.703-2.446
				C282.146,116.06,279.353,103.788,269.78,100.677z"/>
		</g>
		<g>
			<path fill="#F1625B" d="M252.276,156.448c22.502-0.318,41.884,17.346,50.635,59.147l-12.483,1.988c0,0-5.02-29.572-15.335-36.396
				v40.379h-45.32v-41.232c0,0-12.503,14.502-18.129,36.682l-11.566-1.705C200.077,215.311,211.956,157.017,252.276,156.448z"/>
		</g>
		<g>
			<polygon fill="#7F6A60" points="229.772,221.566 235.085,265.324 247.275,265.324 251.495,235.945 256.651,265.324 
				268.53,265.324 275.093,221.566 			"/>
		</g>
		<g>
			<path fill="#594A42" d="M247.275,265.324v7.814h-21.567c0.626-7.189,10.003-7.814,10.003-7.814H247.275z"/>
		</g>
		<g>
			<path fill="#FECD90" d="M75.84,164.373c0,0-7.869,0.684-12.316,13.342c-4.448,12.658-9.408,27.197-13.685,31.303l5.987,4.619
				c0,0,9.726-16.76,11.46-23.436c1.411-5.43,10.434-12.828,10.434-12.828L75.84,164.373z"/>
		</g>
		<g>
			<path fill="#FECD90" d="M104.92,164.373c0,0,7.869,0.684,12.317,13.342c4.447,12.658,9.407,27.197,13.684,31.303l-5.987,4.619
				c0,0-9.727-16.76-11.461-23.436c-1.411-5.43-10.434-12.828-10.434-12.828L104.92,164.373z"/>
		</g>
		<g>
			<path fill="#594A42" d="M256.651,265.324v7.814h21.568c-0.626-7.189-10.003-7.814-10.003-7.814H256.651z"/>
		</g>
		<g>
			<path fill="#FAAB6B" d="M245.087,157.195c0,0,0.239,7.17,7.17,7.17c6.932,0,7.208-7.374,7.208-7.374
				S251.92,155.167,245.087,157.195z"/>
		</g>
		<g>
			<path fill="#F1625B" d="M88.388,160.436c-12.284,0.686-14.113,3.18-15.199,4.593c-1.085,1.413,2.533,16.604,4.343,19.784
				c1.81,3.18,5.427,11.658-1.81,18.371s-10.494,26.85-11.941,40.627c0,0,25.693,16.605,51.748,0c0,0-1.81-27.203-8.685-36.387
				c-6.875-9.186-7.6-12.012-5.79-18.371c1.809-6.361,6.763-16.62,6.151-24.377C106.844,160.083,94.643,160.087,88.388,160.436z"/>
		</g>
		<g>
			<path fill="#773C23" d="M103.921,109.221c0,0-10.24,7.453-21.455,8.409c0,0,6.574-2.284,9.481-5.442
				c0,0-14.711,7.373-24.461,8.032c-9.75,0.659-12.419,10.245-12.367,14.625c0,0-7.751-13.583-0.001-28.681
				c7.75-15.098,39.565-27.589,55.474-11.884c0,0,17.988,2.419,14.382,33.524C124.975,127.804,113.5,109.985,103.921,109.221z"/>
		</g>
		<g>
			<path fill="#FEF6AA" d="M50.934,207.738c0,0,4.873,0.682,6.121,3.783c0,0,1.84-1.545,1.03-2.9
				c-0.811-1.355-4.506-3.023-5.784-2.861C51.024,205.922,50.448,206.709,50.934,207.738z"/>
		</g>
		<g>
			<path fill="#FEF6AA" d="M82.466,161.001c0,0-2.548,0.659-2.42,1.813c0.129,1.155,1.668,0.678,1.925,1.558
				c0.256,0.879-1.69,2.053-0.717,3.006c0.974,0.953,2.128-1.487,3.026,0.118c0.898,1.604-0.514,2.759,1.539,3.144
				c2.052,0.385,1.383-1.924,2.744-1.283c1.362,0.642,1.43,2.181,2.871,1.925c1.441-0.257,1.441-2.31,2.467-2.566
				c1.027-0.257,2.037,2.438,2.943,0.898c0.906-1.54-0.649-2.977,0-3.477c0.649-0.5,1.547,0.654,2.317-0.885
				c0.769-1.539-1.54-1.202-1.154-1.819c0.384-0.618,0.702,0.152,1.313-0.618c0.61-0.77-2.476-2.692-2.476-2.692L82.466,161.001z"/>
		</g>
		<g>
			<path fill="#FAAB6B" d="M82.466,160.327c0,0,0.239,7.17,7.17,7.17c6.93,0,7.208-7.374,7.208-7.374S89.298,158.299,82.466,160.327
				z"/>
		</g>
		<g>
			<path fill="#FEF6AA" d="M115.529,243.811c0,0-0.116-1.734-0.398-4.473c-23.159,12.363-42.701,4.629-50.849,0.115
				c-0.185,1.5-0.355,2.967-0.5,4.357C63.781,243.811,89.474,260.416,115.529,243.811z"/>
		</g>
		<g>
			<path fill="#773C23" d="M103.921,109.221c0,0,10.356,4.027,13.692,12.133c0,0,0.669-8.188-11.854-14.217L103.921,109.221z"/>
		</g>
		<g>
			<path fill="#773C23" d="M259.65,156.269h-14.748c-2.935,0-5.336-2.401-5.336-5.336v-10.491c0-2.935,2.401-5.336,5.336-5.336
				h14.748c2.935,0,5.337,2.402,5.337,5.336v10.491C264.987,153.868,262.585,156.269,259.65,156.269z"/>
		</g>
		<g>
			<path fill="#FECD90" d="M258.459,147.715h-12.365c-1.292,0-2.35-1.057-2.35-2.349v-2.508c0-1.292,1.058-2.35,2.35-2.35h12.365
				c1.292,0,2.35,1.057,2.35,2.35v2.508C260.809,146.658,259.751,147.715,258.459,147.715z"/>
		</g>
		<g>
			<path fill="#773C23" d="M256.594,149.917h-8.636c-0.666,0-1.211-0.544-1.211-1.211v-2.381c0-0.666,0.545-1.211,1.211-1.211h8.636
				c0.666,0,1.211,0.545,1.211,1.211v2.381C257.805,149.373,257.26,149.917,256.594,149.917z"/>
		</g>
		<g>
			<path fill="#773C23" d="M276.344,90.05c0,0-8.31-13.189-26.271-13.189c0,0,7.87,1.643,10.735,6.594
				c0,0-24.59-10.454-45.117,15.081c0,0,8.468-7.307,16.935-6.538C232.626,91.999,272.338,92.719,276.344,90.05z"/>
		</g>
		<g>
			<path fill="#773C23" d="M276.344,90.05c0,0,8.768,1.179,14.084,12.469c0,0-4.433-6.311-8.282-6.234
				c0,0,10.169,14.223,9.832,24.084c0,0-3.742-9.896-7.813-11.949C280.094,106.368,276.344,90.05,276.344,90.05z"/>
		</g>
		<g>
			<path fill="#773C23" d="M269.78,100.677c0,0-9.554,7.126-23.033,10.257c0,0,7.56-4.042,8.458-6.806
				C256.103,101.364,268.704,99.477,269.78,100.677z"/>
		</g>
		<g>
			<path fill="#773C23" d="M245.087,107.591c0,0-10.28,2.753-15.668,2.24c0,0,9.75-2.701,12.829-4.622
				C245.326,103.288,246.003,105.993,245.087,107.591z"/>
		</g>
		<g>
			<path fill="#773C23" d="M269.78,100.677c0,0,9.158,6.075,10.826,14.671c0,0-0.571-8.468-4.263-12.83
				S270.95,99.865,269.78,100.677z"/>
		</g>
		<g>
			<g>
				<rect x="229.772" y="183.422" fill="#F5825C" width="45.321" height="8.209"/>
			</g>
			<g>
				<rect x="229.772" y="218.473" fill="#F5825C" width="45.321" height="3.094"/>
			</g>
			<g>
				<path fill="#F5825C" d="M219.032,174.104h66.938c-2.422-3.19-5.006-5.913-7.717-8.21H227.1
					C224.119,168.332,221.448,171.127,219.032,174.104z"/>
			</g>
			<g>
				<rect x="229.772" y="200.947" fill="#F5825C" width="45.321" height="8.211"/>
			</g>
			<g>
				<path fill="#F5825C" d="M277.626,183.422c1.931,2.119,3.639,5.004,5.127,8.209h12.994c-1.21-2.932-2.498-5.666-3.858-8.209
					H277.626z"/>
			</g>
			<g>
				<path fill="#F5825C" d="M286.313,200.947c0.925,2.9,1.695,5.73,2.307,8.211h12.803c-0.718-2.859-1.484-5.604-2.308-8.211
					H286.313z"/>
			</g>
			<g>
				<path fill="#F5825C" d="M208.25,191.631h13.829c2.039-3.516,3.915-6.293,5.31-8.209h-14.811
					C210.957,186.16,209.521,188.93,208.25,191.631z"/>
			</g>
			<g>
				<path fill="#F5825C" d="M214.01,209.158c1.021-2.932,2.14-5.662,3.289-8.211h-12.928c-1.149,3.121-2.041,5.92-2.706,8.211
					H214.01z"/>
			</g>
		</g>
		<g>
			<g>
				<rect x="229.772" y="183.422" fill="#F9B29B" width="45.321" height="8.209"/>
			</g>
			<g>
				<rect x="229.772" y="218.473" fill="#F9B29B" width="45.321" height="3.094"/>
			</g>
			<g>
				<path fill="#F9B29B" d="M219.032,174.104h66.938c-2.422-3.19-5.006-5.913-7.717-8.21H227.1
					C224.119,168.332,221.448,171.127,219.032,174.104z"/>
			</g>
			<g>
				<rect x="229.772" y="200.947" fill="#F9B29B" width="45.321" height="8.211"/>
			</g>
			<g>
				<path fill="#F9B29B" d="M277.626,183.422c1.931,2.119,3.639,5.004,5.127,8.209h12.994c-1.21-2.932-2.498-5.666-3.858-8.209
					H277.626z"/>
			</g>
			<g>
				<path fill="#F9B29B" d="M286.313,200.947c0.925,2.9,1.695,5.73,2.307,8.211h12.803c-0.718-2.859-1.484-5.604-2.308-8.211
					H286.313z"/>
			</g>
			<g>
				<path fill="#F9B29B" d="M208.25,191.631h13.829c2.039-3.516,3.915-6.293,5.31-8.209h-14.811
					C210.957,186.16,209.521,188.93,208.25,191.631z"/>
			</g>
			<g>
				<path fill="#F9B29B" d="M214.01,209.158c1.021-2.932,2.14-5.662,3.289-8.211h-12.928c-1.149,3.121-2.041,5.92-2.706,8.211
					H214.01z"/>
			</g>
		</g>
		<g>
			<path fill="#773C23" d="M284.413,120.369c0,0,3.375,8.564-2.764,17.302c-6.14,8.737,1.288,5.474,4.321-0.855
				c3.032-6.329,4.685-14.71,4.457-18.987C290.202,113.552,284.413,120.369,284.413,120.369z"/>
		</g>
		<g>
			<path fill="#773C23" d="M219.891,119.453c0,0-2.919,9.48,3.221,18.218c6.14,8.737-1.288,5.474-4.321-0.855
				s-4.685-14.71-4.458-18.987S219.891,119.453,219.891,119.453z"/>
		</g>
		<g>
			<g>
				<path fill="#FECD90" d="M134.925,210.098c0,0-3.975-1.566-6.557,1.889s4.22,6.502,7.903,2.783
					C136.271,214.77,136.199,211.516,134.925,210.098z"/>
			</g>
			<g>
				<path fill="#FECD90" d="M201.219,240.035c0,0,2.605,3.385,0,6.824c-2.604,3.438-7.417-2.254-4.862-6.824
					C196.356,240.035,199.503,239.203,201.219,240.035z"/>
			</g>
			<g>
				<rect x="168.707" y="198.598" fill="#FAAB6B" width="8.256" height="13.102"/>
			</g>
			<g>
				<ellipse fill="#FECD90" cx="172.834" cy="187.393" rx="20.28" ry="17.229"/>
			</g>
			<g>
				<path fill="#773C23" d="M182.886,174.112c0,0-13.102,5.744-24.05,4.128c0,0-5.205,4.666-4.845,9.152
					c0.358,4.486-2.692,2.154-2.871-2.154c-0.18-4.307-1.078-14.716,11.665-20.459c12.742-5.743,22.434,0.18,23.87,3.23
					c0,0,4.666,1.077,6.46,6.641c1.796,5.564,2.515,12.382,0,12.742C190.603,187.752,190.063,176.445,182.886,174.112z"/>
			</g>
			<g>
				<polygon fill="#736759" points="159.913,243.525 162.963,268.65 169.963,268.65 172.387,251.781 175.348,268.65 182.168,268.65 
					185.937,243.525 				"/>
			</g>
			<g>
				<path fill="#594A42" d="M169.963,268.65v4.488H157.58c0.36-4.127,5.743-4.488,5.743-4.488H169.963z"/>
			</g>
			<g>
				<path fill="#594A42" d="M175.348,268.65v4.488h12.384c-0.358-4.127-5.744-4.488-5.744-4.488H175.348z"/>
			</g>
			<g>
				<path fill="#01A79D" d="M172.842,206.137c12.92-0.184,24.049,9.959,29.075,33.961l-7.167,1.143c0,0-2.884-16.98-8.807-20.898
					v23.184h-26.022v-23.674c0,0-9.164-6.063-24.006-4.166l-1.088-5.918C134.827,209.768,149.69,206.463,172.842,206.137z"/>
			</g>
			<g>
				<path fill="#FAAB6B" d="M168.707,205.799c0,0,0.139,4.883,4.118,4.883c3.979,0,4.138-5.021,4.138-5.021
					S172.63,204.418,168.707,205.799z"/>
			</g>
		</g>
		<g>
			<g>
				<g>
					<ellipse fill="#562913" cx="238.503" cy="122.072" rx="3.294" ry="4.653"/>
				</g>
				<circle fill="#FFFFFF" cx="237.215" cy="120.224" r="1.128"/>
				<circle fill="#FFFFFF" cx="239.902" cy="124.576" r="0.645"/>
			</g>
			<g>
				<g>
					<ellipse fill="#562913" cx="266.762" cy="122.072" rx="3.294" ry="4.653"/>
				</g>
				<circle fill="#FFFFFF" cx="265.475" cy="120.224" r="1.128"/>
				<circle fill="#FFFFFF" cx="268.161" cy="124.576" r="0.645"/>
			</g>
			<path fill="#FAAB6B" d="M252.088,127.478c-2.677,0-5.948,9.778,0.092,9.778C258.222,137.255,254.764,127.478,252.088,127.478z"/>
			<path fill="#F16361" d="M248.578,141.35c0.214-0.542,6.719-0.624,7.026,0c0.308,0.623-0.343,3.426-3.386,3.426
				C249.177,144.776,248.127,142.492,248.578,141.35z"/>
			<path fill="#773C23" d="M261.096,113.697c-1.551-2.171,3.385-4.03,6.932-3.385c3.545,0.645,6.445,2.418,6.285,3.708
				c-0.161,1.289-4.298-0.967-7.253-1.128C265.419,112.802,261.901,114.825,261.096,113.697z"/>
			<path fill="#773C23" d="M244.369,113.697c1.551-2.171-3.385-4.03-6.93-3.385c-3.547,0.645-6.447,2.418-6.286,3.708
				c0.16,1.289,4.297-0.967,7.252-1.128C240.048,112.802,243.563,114.825,244.369,113.697z"/>
		</g>
		<g>
			<g>
				<g>
					<ellipse fill="#562913" cx="164.579" cy="186.664" rx="1.973" ry="2.785"/>
				</g>
				<circle fill="#FFFFFF" cx="163.808" cy="185.557" r="0.676"/>
				<circle fill="#FFFFFF" cx="165.416" cy="188.162" r="0.386"/>
			</g>
			<g>
				<g>
					<ellipse fill="#562913" cx="181.496" cy="186.664" rx="1.972" ry="2.785"/>
				</g>
				<circle fill="#FFFFFF" cx="180.726" cy="185.557" r="0.676"/>
				<circle fill="#FFFFFF" cx="182.333" cy="188.162" r="0.386"/>
			</g>
			<path fill="#FAAB6B" d="M172.711,189.898c-1.603,0-3.561,5.854,0.056,5.854S174.313,189.898,172.711,189.898z"/>
			<path fill="#F16361" d="M170.61,198.203c0.128-0.324,4.022-0.371,4.207,0c0.184,0.373-0.206,2.053-2.027,2.053
				C170.968,200.256,170.34,198.887,170.61,198.203z"/>
			<path fill="#773C23" d="M178.104,181.648c-0.929-1.299,2.026-2.41,4.148-2.025c2.122,0.387,3.858,1.449,3.763,2.221
				c-0.097,0.77-2.573-0.58-4.342-0.676C180.691,181.113,178.587,182.326,178.104,181.648z"/>
			<path fill="#773C23" d="M168.09,181.648c0.929-1.299-2.026-2.41-4.149-2.025c-2.123,0.387-3.86,1.449-3.763,2.221
				c0.097,0.77,2.573-0.58,4.341-0.676C165.503,181.113,167.607,182.326,168.09,181.648z"/>
		</g>
		<g>
			<g>
				<g>
					<ellipse fill="#562913" cx="75.827" cy="126.868" rx="3.294" ry="4.652"/>
				</g>
				<circle fill="#FFFFFF" cx="74.539" cy="125.019" r="1.128"/>
				<circle fill="#FFFFFF" cx="77.224" cy="129.371" r="0.645"/>
			</g>
			<g>
				<g>
					<ellipse fill="#562913" cx="104.085" cy="126.868" rx="3.294" ry="4.652"/>
				</g>
				<circle fill="#FFFFFF" cx="102.798" cy="125.019" r="1.128"/>
				<circle fill="#FFFFFF" cx="105.484" cy="129.371" r="0.645"/>
			</g>
			<path fill="#FAAB6B" d="M89.41,132.272c-2.676,0-5.947,9.778,0.093,9.778C95.545,142.05,92.087,132.272,89.41,132.272z"/>
			<path fill="#F16361" d="M85.901,146.145c0.214-0.541,6.718-0.623,7.026,0c0.309,0.624-0.343,3.427-3.386,3.427
				S85.451,147.287,85.901,146.145z"/>
			<path fill="#773C23" d="M99.276,118.711c-1.66-2.088,2.719-3.591,6.229-2.772s4.938,2.139,4.825,2.779
				c-0.088,0.504-2.133-0.65-5.077-0.936C102.722,117.537,99.731,119.286,99.276,118.711z"/>
			<path fill="#562913" d="M105.096,122.634c0,0,1.587-0.369,2.276-1.878c0,0,0.617,1.648-1.129,3.081c0,0,1.372-0.028,2.16-1.303
				c0,0,0.487,2.063-1.297,3.013c0,0,1.318-0.036,2.051-0.984c0,0,0.041,1.869-1.882,2.102
				C107.275,126.665,106.037,123.287,105.096,122.634z"/>
			<path fill="#773C23" d="M80.424,118.711c1.66-2.088-2.718-3.591-6.228-2.772c-3.51,0.818-4.938,2.139-4.826,2.779
				c0.089,0.504,2.132-0.65,5.078-0.936C76.979,117.537,79.969,119.286,80.424,118.711z"/>
			<path fill="#562913" d="M74.604,122.634c0,0-1.587-0.369-2.276-1.878c0,0-0.616,1.648,1.13,3.081c0,0-1.373-0.028-2.16-1.303
				c0,0-0.487,2.063,1.296,3.013c0,0-1.318-0.036-2.051-0.984c0,0-0.04,1.869,1.881,2.102
				C72.424,126.665,73.663,123.287,74.604,122.634z"/>
		</g>
	</g>
</g>
</svg>
