<?xml version="1.0" encoding="utf-8"?>
<!-- Generator: Adobe Illustrator 16.0.0, SVG Export Plug-In . SVG Version: 6.00 Build 0)  -->
<!DOCTYPE svg PUBLIC "-//W3C//DTD SVG 1.1 Tiny//EN" "http://www.w3.org/Graphics/SVG/1.1/DTD/svg11-tiny.dtd">
<svg version="1.1" baseProfile="tiny" id="Layer_1" xmlns="http://www.w3.org/2000/svg" xmlns:xlink="http://www.w3.org/1999/xlink"
	 x="0px" y="0px" width="350px" height="350px" viewBox="0 0 350 350" overflow="scroll" xml:space="preserve">
<g>
	<ellipse fill="#C4E7EB" cx="175" cy="279.641" rx="99.283" ry="2.7"/>
	<g>
		<path fill="none" stroke="#FDDAC5" stroke-width="13" stroke-miterlimit="10" d="M180.055,194.547
			c0,0-14.614,21.624-32.538,11.853"/>
		<path fill="none" stroke="#FDDAC5" stroke-width="13" stroke-miterlimit="10" d="M121.045,187.472c0,0-8.954,21.388-27.851,24.322
			"/>
		<path fill="none" stroke="#FDDAC5" stroke-width="13" stroke-miterlimit="10" d="M168.382,173.196c0,0,37.122,12.795,53.312,7.346
			"/>
		<path fill="#F36F52" d="M139.623,271.908l7.129-46.197l7.396,46.197h5.224c0.566-7.895,2.159-61.638,2.63-63.049l-14.761,1.007
			v-0.043l-0.275,0.022l-0.276-0.022v0.043l-16.129-0.933c0.475,1.416,3.142,54.61,3.819,62.975H139.623z"/>
		<path fill="#BC475A" d="M174.54,168.582c-14.189-4.366-19.649-5.349-19.82-5.315l-8.007,5.422l-7.344-4.884
			c0,0-14.739,0.93-21.725,21.888c0,0,3.616,5.796,7.33,7.189l6.272-9.765c0,0-3.532,20.175-2.604,36.426
			c0,0,9.222,0.34,18.046,0.34s17.9-1.407,17.9-1.407c0.929-16.251-3.562-39.22-3.562-39.22l9.376,0.552
			C174.118,178.153,174.54,168.582,174.54,168.582z"/>
		<path fill="#FDDAC5" d="M155,161.5c0,4.694-3.806,8.5-8.5,8.5l0,0c-4.694,0-8.5-3.806-8.5-8.5v-5c0-4.694,3.806-8.5,8.5-8.5l0,0
			c4.694,0,8.5,3.806,8.5,8.5V161.5z"/>
		<path fill="#FDDAC5" d="M181.307,126.745c0,19.113-17.936,34.609-34.608,34.609c-16.674,0-34.607-15.496-34.607-34.609
			s15.494-34.606,34.607-34.606S181.307,107.632,181.307,126.745z"/>
		<path fill="#453434" d="M146.099,157.142c-8.508,0-16.541-2.367-23.487-6.454c6.629,6.569,15.521,10.666,24.087,10.666
			c9.384,0,19.167-4.908,25.928-12.607C165.034,154.021,155.878,157.142,146.099,157.142z"/>
		<g>
			<circle fill="#453434" cx="134.15" cy="131.034" r="2.424"/>
			<circle fill="#453434" cx="159.248" cy="131.034" r="2.425"/>
		</g>
		<image width="143" height="25" xlink:href="A8CF63CD.png"  transform="matrix(0.24 0 0 0.24 129.6455 136.1875)">
		</image>
		
			<path fill="none" stroke="#F26762" stroke-width="2.0877" stroke-linecap="round" stroke-linejoin="round" stroke-miterlimit="10" d="
			M151.819,147.82c-2.562,3.833-8.371,3.833-10.933,0"/>
		
			<path fill="none" stroke="#784A1E" stroke-width="2.0877" stroke-linecap="round" stroke-linejoin="round" stroke-miterlimit="10" d="
			M155.677,123.555c4.18-1.946,9.145,1.069,9.345,5.676"/>
		
			<path fill="none" stroke="#784A1E" stroke-width="2.0877" stroke-linecap="round" stroke-linejoin="round" stroke-miterlimit="10" d="
			M137.15,123.555c-4.179-1.946-9.145,1.069-9.344,5.676"/>
		<circle fill="#FDDAC5" cx="180.859" cy="131.821" r="5.075"/>
		<circle fill="#FDDAC5" cx="111.794" cy="131.821" r="5.075"/>
		<g>
			<path fill="#784A1E" d="M146.8,141.96c0.059-3.506-4.185-6.137-8.275-3.799c-4.092,2.337-7.014,9.935-11.688,9.059
				C126.836,147.22,146.601,153.941,146.8,141.96z"/>
			<path fill="#784A1E" d="M146.028,141.96c-0.059-3.506,4.185-6.137,8.275-3.799c4.091,2.337,7.013,9.935,11.688,9.059
				C165.992,147.22,146.227,153.941,146.028,141.96z"/>
		</g>
		<path fill="#784A1E" d="M112.094,126.311c0,0,0.954,8.089,2.793,7.905c1.838-0.184,3.492-7.354,3.125-13.419
			c-0.367-6.066,5.699-15.626,13.053-14.523c7.353,1.103,24.265,10.662,40.442,1.287c0,0,0.552,9.877,2.758,15.325
			s-0.919,10.969,1.839,11.334c2.757,0.365,4.756-7.474,4.756-7.474s3.883-7.42-3.286-24.333c0,0,8.042-4.228,3.286-10.479
			s-14.592,0.204-25.897-5.448c-9.516-4.756-27.115-0.802-32.814,10.595C122.147,97.082,105.077,105.902,112.094,126.311z"/>
		<path fill="#FDDAC5" d="M139.521,272h-4.964c0,0-1.011,5.335,2.712,5.332C140.124,277.328,139.521,272,139.521,272z"/>
		<path fill="#BC475A" d="M140,274.113V279h-14.834c0,0,0.722-3.959,9.406-5.338C134.572,273.662,137,276.044,140,274.113z"/>
		<path fill="#FDDAC5" d="M154.41,272h4.964c0,0,1.011,5.335-2.712,5.332C153.807,277.328,154.41,272,154.41,272z"/>
		<path fill="#BC475A" d="M155,274.113V279h13.765c0,0-0.187-3.959-8.872-5.338C159.893,273.662,157,276.044,155,274.113z"/>
		<path fill="#FDDAC5" d="M125.938,205.663c-0.703,3.197,2.297,6.011,4.367,5.264c2.069-0.746,0.401-2.562,0.401-2.562
			s1.733-0.273,2.045-1.789s-1.091-1.946-1.091-1.946s2.081-0.282,1.686-2.244C132.951,200.423,127.402,199.015,125.938,205.663z"/>
	</g>
	<g>
		<path fill="none" stroke="#FDDAC5" stroke-width="13" stroke-miterlimit="10" d="M228.482,194.547c0,0,3.504,16.42,20.692,22.762"
			/>
		<path fill="#784A1E" d="M196.292,272.114h5.049l2.337-45.062l3.703,45.003l4.961-0.004c-0.219-9.414,4.244-59.154,4.244-59.154
			l-25.206,0.735C191.38,213.633,196.431,262.425,196.292,272.114z"/>
		<path fill="#71C9C2" d="M233.683,195.801c-2.897-22.428-22.158-22.625-22.158-22.625l-6.903,3.226l-6.091-3.488
			c0,0-15.993-0.46-22.979,20.498c0,0,3.616,5.797,7.33,7.19l6.273-9.765c0,0-3.533,16.866-2.604,33.117
			c0,0,9.222,1.628,18.046,1.628s17.9-1.628,17.9-1.628c0.929-16.251-3.562-37.05-3.562-37.05l6.693,13.769
			C229.343,199.279,233.683,195.801,233.683,195.801z"/>
		<path fill="#FDDAC5" d="M212,173c0,3.867-3.134,7-7,7l0,0c-3.866,0-7-3.134-7-7V169c0-3.866,3.134-7,7-7l0,0c3.866,0,7,3.134,7,7
			V173z"/>
		<path fill="#FDDAC5" d="M237.863,138.151c0,18.203-17.08,32.959-32.958,32.959c-15.879,0-32.957-14.756-32.957-32.959
			c0-18.202,14.755-32.956,32.957-32.956C223.106,105.195,237.863,119.949,237.863,138.151z"/>
		<path fill="#453434" d="M204.335,167.099c-8.104,0-15.753-2.255-22.368-6.146c6.313,6.255,14.781,10.157,22.938,10.157
			c8.936,0,18.252-4.674,24.691-12.006C222.367,164.127,213.646,167.099,204.335,167.099z"/>
		<g>
			<circle fill="#453434" cx="192.955" cy="142.235" r="2.309"/>
			<circle fill="#453434" cx="216.856" cy="142.235" r="2.309"/>
		</g>
		<image width="136" height="24" xlink:href="A8CF63CF.png"  transform="matrix(0.24 0 0 0.24 188.666 147.1436)">
		</image>
		
			<path fill="none" stroke="#F26762" stroke-width="2.0877" stroke-linecap="round" stroke-linejoin="round" stroke-miterlimit="10" d="
			M212.189,155.382c-3.567,5.338-11.658,5.338-15.227,0"/>
		
			<path fill="none" stroke="#F36F52" stroke-width="2.0877" stroke-linecap="round" stroke-linejoin="round" stroke-miterlimit="10" d="
			M196.864,134.852c-9.127-2.923-11.547,4.118-11.939,4.852"/>
		
			<path fill="none" stroke="#F36F52" stroke-width="2.0877" stroke-linecap="round" stroke-linejoin="round" stroke-miterlimit="10" d="
			M211.16,135.925c9.618-5.377,12.34,3.714,12.34,3.714"/>
		<circle fill="#FDDAC5" cx="237.438" cy="142.985" r="4.833"/>
		<path fill="#F36F52" d="M181.434,122.583c0,0-17.923,12.244-3.585,42.869c0,0-10.202-11.55-8.548-28.103
			c1.654-16.552,9.651-24.208,9.651-24.208s0.827-10.268,20.13-12.474c19.302-2.206,36.335,13.543,39.156,28.563
			c4.032,21.465-2.191,28.419,2.206,34.859c0,0-4.964-3.13-6.066-19.547c-1.167-17.364-17.372-15.75-18.751-15.474
			C214.248,129.345,190.533,134.992,181.434,122.583"/>
		<circle fill="#FDDAC5" cx="171.666" cy="142.985" r="4.833"/>
		<path fill="#FDDAC5" d="M218.287,172.839c-3.78-0.928-7.21,2.556-6.383,5.038c0.827,2.482,3.033,0.552,3.033,0.552
			s0.275,2.068,2.068,2.481c1.792,0.414,2.343-1.24,2.343-1.24s0.276,2.481,2.62,2.068
			C224.313,181.324,226.146,174.77,218.287,172.839z"/>
		<path fill="#FDDAC5" d="M207.354,272h4.964c0,0,1.011,5.335-2.713,5.332C206.751,277.328,207.354,272,207.354,272z"/>
		<path fill="#71C9C2" d="M207,274.113V279h13.054c0,0,0.995-3.959-7.688-5.338C212.365,273.662,210,276.044,207,274.113z"/>
		<path fill="#FDDAC5" d="M201.287,272h-4.963c0,0-1.011,5.335,2.712,5.332C201.891,277.328,201.287,272,201.287,272z"/>
		<path fill="#71C9C2" d="M202,274.113V279h-13.412c0,0-0.816-3.959,7.867-5.338C196.455,273.662,199,276.044,202,274.113z"/>
	</g>
	<g>
		<circle fill="#FDDAC5" cx="125.142" cy="180.823" r="4.206"/>
		<path fill="none" stroke="#FDDAC5" stroke-width="9" stroke-miterlimit="10" d="M114.813,218.964c0,0,6.617,15.993-6.122,19.026"
			/>
		<path fill="none" stroke="#FDDAC5" stroke-width="9" stroke-miterlimit="10" d="M76.766,218.964c0,0-6.617,15.993,6.122,19.026"/>
		
			<line fill="none" stroke="#FDDAC5" stroke-width="9" stroke-miterlimit="10" x1="102.669" y1="252.604" x2="102.872" y2="275.74"/>
		<path fill="#F36F52" d="M100.455,274.946c2.563,1.39,4.729-0.694,4.729-0.694c8.685,1.38,5.857,5.377,5.857,5.377h-10.586V274.946
			z"/>
		<line fill="none" stroke="#FDDAC5" stroke-width="9" stroke-miterlimit="10" x1="88.866" y1="252.604" x2="88.663" y2="275.74"/>
		<path fill="#FDB813" d="M81.431,242.127l1.285,14.561l11.857,0.329l1.229-5.306c0,0,1.043,2.692,1.805,5.306l11.457-0.329
			c0,0-0.484-12.521,0.73-14.561H81.431z"/>
		<path fill="#F36F52" d="M120.385,221.509c-6.539-13.079-18.36-14.793-18.36-14.793l-6.266,2.524l-6.178-2.524
			c0,0-11.08,0.639-17.619,13.718c0,0,3.882,3.439,6.788,4.529l2.555-4.362c0,0-1.625,10.618-1.781,23.258
			c0,0,4.477,1.409,15.477,1.457v0.002c0,0,0.408-0.002,0.5-0.002s0.5,0.002,0.5,0.002v-0.002c11-0.048,15.818-1.457,15.818-1.457
			c-1.381-12.194-1.444-23.258-1.444-23.258l2.547,3.26C115.826,222.77,120.385,221.509,120.385,221.509z"/>
		<path fill="#FDDAC5" d="M103,206.22c0,3.745-3.036,6.78-6.78,6.78H95.78c-3.745,0-6.78-3.035-6.78-6.78v-5.439
			c0-3.745,3.036-6.78,6.78-6.78h0.439c3.745,0,6.78,3.035,6.78,6.78V206.22z"/>
		<path fill="#FDDAC5" d="M124.962,177.167c0,15.84-14.863,28.681-28.681,28.681s-28.68-12.841-28.68-28.681
			s12.841-28.679,28.68-28.679C112.121,148.488,124.962,161.327,124.962,177.167z"/>
		<path fill="#453434" d="M95.785,202.357c-7.051,0-13.708-1.961-19.465-5.349c5.494,5.444,12.862,8.839,19.961,8.839
			c7.776,0,15.884-4.066,21.487-10.447C111.478,199.771,103.889,202.357,95.785,202.357z"/>
		<g>
			<g>
				<circle fill="#453434" cx="85.883" cy="180.722" r="2.009"/>
				<circle fill="#453434" cx="106.682" cy="180.722" r="2.009"/>
			</g>
			<ellipse fill="#F8AEB0" cx="86.116" cy="187.473" rx="3.967" ry="2.479"/>
			<ellipse fill="#F8AEB0" cx="106.446" cy="187.473" rx="3.967" ry="2.479"/>
		</g>
		
			<path fill="none" stroke="#F26762" stroke-width="2.0877" stroke-linecap="round" stroke-linejoin="round" stroke-miterlimit="10" d="
			M105.46,191.507c-4.436,6.637-14.493,6.637-18.929,0"/>
		<circle fill="#FDDAC5" cx="67.356" cy="181.375" r="4.206"/>
		<path fill="#FDDAC5" d="M82.879,206.699c3.833-0.678,7.025,3.026,6.036,5.448s-3.063,0.351-3.063,0.351s-0.412,2.045-2.228,2.339
			c-1.816,0.294-2.258-1.394-2.258-1.394s-0.438,2.458-2.75,1.892C76.306,214.768,74.909,208.105,82.879,206.699z"/>
		<path fill="#F36F52" d="M91.08,274.946c-2.563,1.39-4.729-0.694-4.729-0.694c-8.685,1.38-5.857,5.377-5.857,5.377H91.08V274.946z"
			/>
		<path fill="#D07741" d="M127.971,176.719c0,0-2.457,4.655-6.112,1.286c-2.298-2.117-1.655-7.269-1.655-7.269
			s-5.491-0.795-7.606-3.372c-2.116-2.576-3.535-6.365-3.535-6.365s-3.89,5.699-11.132,7.74c-7.242,2.042-12.013,0.421-12.013,0.421
			s-0.94,2.933-5.683,4.581c-4.175,1.45-6.379,0.892-6.379,0.892s1.86,4.537,0.031,6.213c-1.83,1.678-5.584-0.111-5.584-0.111
			s-6.181-6.379-3.787-13.888c2.394-7.51,7.5-8.016,7.5-8.016s-1.203-5.819,3.255-8.839c4.458-3.019,9.731-0.192,9.731-0.192
			s1.982-5.182,6.957-6.294c4.975-1.111,8.715,2.521,8.715,2.521s4.07-2.993,8.814-1.759c4.744,1.235,6.32,7.343,6.32,7.343
			s6.851,3.469,9.097,7.979c2.246,4.509,1.379,8.911,1.379,8.911S130.911,174.479,127.971,176.719z"/>
	</g>
	<g>
		<path fill="none" stroke="#FDDAC5" stroke-width="9" stroke-miterlimit="10" d="M235.187,227.236c0,0-6.617,15.994,6.123,19.026"
			/>
		<path fill="none" stroke="#FDDAC5" stroke-width="9" stroke-miterlimit="10" d="M273.234,227.236c0,0,6.617,15.994-6.122,19.026"
			/>
		
			<line fill="none" stroke="#FDDAC5" stroke-width="9" stroke-miterlimit="10" x1="248.434" y1="258.118" x2="248.23" y2="275.189"/>
		<path fill="#F36F52" d="M250.648,274.396c-2.563,1.389-4.729-0.695-4.729-0.695c-8.685,1.38-5.858,5.377-5.858,5.377h10.587
			V274.396z"/>
		
			<line fill="none" stroke="#FDDAC5" stroke-width="9" stroke-miterlimit="10" x1="260.031" y1="258.118" x2="260.234" y2="275.189"/>
		<path fill="#71C9C2" d="M267.724,246.263l-1.209,13.692l-11.149,0.31l-1.155-7.582c0,0-0.981,5.124-1.696,7.582l-10.774-0.31
			c0,0,0.455-11.773-0.687-13.692H267.724z"/>
		<path fill="#FDB813" d="M239.685,228.873c0,0-0.006,8.782-0.983,19.32h31.573c-0.368-10.831-1.579-19.32-1.579-19.32l2.556,4.362
			c2.905-1.09,6.788-4.529,6.788-4.529c-6.539-13.079-17.62-13.718-17.62-13.718l-6.178,2.524l-6.265-2.524
			c0,0-13.323-0.868-18.361,14.794c0,0,5.691,1.26,8.597,2.35L239.685,228.873z"/>
		<path fill="#FDDAC5" d="M262,208.78c0-3.745-3.035-6.78-6.78-6.78h-0.439c-3.745,0-6.78,3.035-6.78,6.78v5.439
			c0,3.745,3.035,6.78,6.78,6.78h0.439c3.745,0,6.78-3.035,6.78-6.78V208.78z"/>
		<path fill="#FDDAC5" d="M225.038,185.439c0,15.84,14.864,28.681,28.681,28.681c13.817,0,28.68-12.841,28.68-28.681
			c0-15.839-12.841-28.679-28.68-28.679C237.879,156.761,225.038,169.6,225.038,185.439z"/>
		<path fill="#453434" d="M254.215,210.631c7.051,0,13.708-1.962,19.465-5.35c-5.494,5.445-12.862,8.839-19.961,8.839
			c-7.776,0-15.884-4.066-21.487-10.448C238.523,208.044,246.111,210.631,254.215,210.631z"/>
		<g>
			<g>
				<circle fill="#453434" cx="264.118" cy="188.994" r="2.009"/>
				<circle fill="#453434" cx="243.319" cy="188.994" r="2.009"/>
			</g>
			<ellipse fill="#F8AEB0" cx="263.884" cy="195.745" rx="3.967" ry="2.48"/>
			<ellipse fill="#F8AEB0" cx="243.554" cy="195.745" rx="3.967" ry="2.48"/>
		</g>
		
			<path fill="none" stroke="#F26762" stroke-width="2.0877" stroke-linecap="round" stroke-linejoin="round" stroke-miterlimit="10" d="
			M244.541,199.779c4.435,6.637,14.492,6.637,18.928,0"/>
		<circle fill="#FDDAC5" cx="282.644" cy="189.646" r="4.206"/>
		<path fill="#FDDAC5" d="M266.593,214.406c-3.168-0.56-5.805,2.5-4.988,4.502c0.817,2,2.531,0.288,2.531,0.288
			s0.34,1.689,1.84,1.934c1.501,0.243,1.865-1.151,1.865-1.151s0.362,2.03,2.272,1.563
			C272.022,221.072,273.177,215.567,266.593,214.406z"/>
		<path fill="#F36F52" d="M257.817,274.396c2.562,1.389,4.728-0.695,4.728-0.695c8.686,1.38,5.858,5.377,5.858,5.377h-10.586
			V274.396z"/>
		<path fill="#784A1E" d="M235.408,173.517c0,0-6.996,10.736-2.804,23.754l-3.008-3.126c0,0-2.188-8.62-1.285-13.786
			c0,0-5.026,9.476,1.304,22.887l-5.631-4.684c0,0-5.689-30.337,15.365-39.593l1.491-3.553l2.477,1.604
			c0,0,15.88-5.891,26.495,1.003c10.615,6.894,19.991,18.659,15.854,40.903c0,0-0.964,0.948-2.538,2.032
			c-0.198,0.137-0.485-4.237-0.485-4.237s-1.494,5.479-2.271,5.855c-1.421,0.691-2.808,1.259-4.515,1.447
			c0,0,3.143-16.771-1.857-26.146v4.137c0,0-10.16,0-15.123-3.86l0.914,3.032C259.791,181.186,242.779,184.875,235.408,173.517z"/>
		<path fill="#FDDAC5" d="M227.621,186.978c0.032-0.315,0.072-0.622,0.117-0.922c-0.751-0.719-1.759-1.167-2.881-1.167
			c-2.323,0-4.205,1.884-4.205,4.206c0,2.323,1.882,4.206,4.205,4.206c1.042,0,1.99-0.383,2.725-1.011
			c-0.008-0.347,0.004-0.695,0.029-1.045C227.439,189.852,227.472,188.425,227.621,186.978z"/>
	</g>
	<g>
		<path fill="#F8AEB0" d="M266.202,117.48c-3.519-2.403-6.688,0.667-6.97,3.509c-0.281-2.843-3.452-5.83-6.971-3.426
			c-3.686,2.518-0.896,10.437,6.968,15.437h0.006C267.098,128,269.889,119.998,266.202,117.48z"/>
		<path fill="#F8AEB0" d="M96.149,111.623c-3.519-2.404-6.689,0.737-6.971,3.58c-0.281-2.843-3.452-5.936-6.97-3.533
			c-3.687,2.518-0.896,10.33,6.967,15.33h0.006C97.045,122,99.835,114.141,96.149,111.623z"/>
		<path fill="#F8AEB0" d="M251.564,97.732c-1.659-1.134-3.155,0.343-3.288,1.683c-0.133-1.34-1.629-2.792-3.288-1.657
			c-1.739,1.188-0.423,5.242,3.287,7.242h0.003C251.987,103,253.304,98.921,251.564,97.732z"/>
		<path fill="#F8AEB0" d="M195.349,68.354c-2.618-1.787-4.977,0.446-5.186,2.56c-0.209-2.114-2.568-4.261-5.185-2.473
			C182.235,70.314,184.312,76,190.16,80h0.005C196.014,76,198.091,70.227,195.349,68.354z"/>
	</g>
</g>
</svg>
