<?xml version="1.0" encoding="utf-8"?>
<!-- Generator: Adobe Illustrator 16.0.0, SVG Export Plug-In . SVG Version: 6.00 Build 0)  -->
<!DOCTYPE svg PUBLIC "-//W3C//DTD SVG 1.1 Tiny//EN" "http://www.w3.org/Graphics/SVG/1.1/DTD/svg11-tiny.dtd">
<svg version="1.1" baseProfile="tiny" id="Layer_1" xmlns="http://www.w3.org/2000/svg" xmlns:xlink="http://www.w3.org/1999/xlink"
	 x="0px" y="0px" width="350px" height="350px" viewBox="0 0 350 350" overflow="scroll" xml:space="preserve">
<g>
	<g>
		<path fill="#272361" d="M314.291,232.6c-0.531,2.288-1.272,4.501-2.324,6.606c-0.32,0.641-0.648,1.278-0.961,1.894
			c2.244,3.03,2.375,6.321,1.571,9.756c-0.175,0.747-0.371,1.489-0.557,2.234c-0.398,1.602-1.408,2.836-2.553,3.926
			c-0.617,0.588-0.678,1.156-0.629,1.916c0.126,2.027,0.228,4.061,0.218,6.09c-0.007,1.488-0.08,1.578-1.542,1.953
			c-1.298,0.334-2.647,0.461-4.003,0.686c-0.244-0.434-0.436-0.775-0.641-1.139c-0.917,0-1.847-0.01-2.775,0.002
			c-1.105,0.014-1.366-0.588-1.517-1.242c-0.201-0.877,0.072-1.348,0.961-1.859c0.776-0.445,0.776-0.445,0.982-1.801
			c-2.223,0.578-4.41,1.068-6.75,0.227c-0.049,0.861-0.039,1.533-0.137,2.189c-0.218,1.469-0.449,2.939-0.754,4.395
			c-0.163,0.775-0.855,1.313-1.643,1.262c-0.896-0.059-1.785-0.256-2.67-0.432c-0.591-0.119-0.766-0.588-0.762-1.127
			c0.001-0.352,0.056-0.703,0.087-1.063c-1.048,0.412-2.026,0.816-3.019,1.182c-0.904,0.334-1.824,0.422-2.79,0.211
			c-0.645-0.141-1.118-0.359-1.18-1.074c-0.069-0.797,0.273-1.344,0.995-1.637c0.082-0.035,0.16-0.08,0.351-0.178
			c0-0.387-0.016-0.828,0.003-1.268c0.077-1.852,0.15-3.701,0.258-5.551c0.029-0.504,0.117-0.986-0.295-1.391
			c-0.947-0.938-1.337-2.121-1.423-3.453c-1.5,0.264-2.939,0.615-4.4,0.754c-3.526,0.334-6.657-0.519-9.352-3.004
			c-2.974-2.744-4.225-6.057-4.153-10.046c0.057-3.182,0.82-6.14,2.042-9.053c1.604-3.825,4.137-6.748,7.787-8.708
			c0.195-0.105,0.375-0.243,0.551-0.359c0.033-0.164,0.103-0.305,0.077-0.425c-0.453-2.122,0.09-4.126,0.747-6.105
			c0.882-2.654,2.878-4.05,5.475-4.732c0.08-0.021,0.176,0.014,0.264,0.03c0.041,0.009,0.078,0.041,0.216,0.115
			c-0.22,1.006,0.523,1.625,1.08,2.367c1.286,1.712,1.079,3.663,0.725,5.596c-0.144,0.788-0.456,1.545-0.708,2.371
			c0.974,0.391,1.925,0.771,2.863,1.146c0.595-0.825,1.067-1.659,1.708-2.334c2.404-2.534,5.42-3.851,8.867-4.176
			c1.183-0.11,1.46,0.395,0.969,1.483c-0.239,0.527-0.453,1.077-0.592,1.638c-0.726,2.968-2.502,5.269-4.603,7.372
			c-0.415,0.415-0.815,0.844-1.119,1.159c0.264,2.01,0.52,3.952,0.788,6.011c5.984-1.712,11.803-1.395,17.327,2.171
			c0.377-0.882,0.61-1.712,0.695-2.598c0.093-0.989,0.11-2.003,0.354-2.957c0.217-0.851,0.514-1.81,1.097-2.411
			c1.366-1.413,3.882-0.622,4.47,1.287c0.104,0.336,0.214,0.671,0.321,1.007C314.291,231.875,314.291,232.237,314.291,232.6z
			 M291.646,266.734c0.413-6.445,0.762-8.705,1.488-9.672c0.784,1.006,0.323,2.289,0.746,3.426c1.622,0.348,3.216,0.273,4.816-0.139
			c1.737-0.449,3.489-0.84,5.363-1.287c0.398-1.188-0.61-2.639,0.16-4.114c1.046,1.083,1.448,2.319,1.487,3.642
			c0.059,1.893-0.013,3.787-0.016,5.682c-0.001,0.295,0.061,0.59,0.1,0.939c0.312,0,0.536,0.014,0.757-0.006
			c0.214-0.018,0.423-0.074,0.624-0.111c-0.144-5.301,0.197-9.629,0.878-10.834c0.168,0.588,0.325,1.125,0.526,1.826
			c0.32-0.361,0.54-0.569,0.713-0.812c1.644-2.294,2.137-4.959,2.247-7.677c0.051-1.232-0.072-2.642-0.635-3.693
			c-0.896-1.674-2.041-3.313-3.419-4.607c-1.716-1.608-3.899-2.677-6.23-3.133c-1.753-0.344-3.593-0.227-5.372-0.475
			c-2.169-0.301-4.024,0.769-6.134,1.061c-0.23,6.581-3.013,11.884-7.686,16.142c0.711,2.82,3.749,5.554,6.652,6.067
			c0.192-1.373,0.383-2.746,0.573-4.119c0.092,0.006,0.185,0.011,0.276,0.017c0.884,3.927-0.236,7.919,0.129,11.878
			C290.389,266.734,290.964,266.734,291.646,266.734z M283.711,224.651c-3.641-0.748-7.074-1.152-10.434,0.851
			c-2.402,1.434-4.385,3.275-5.677,5.677c-1.692,3.148-2.876,6.502-2.965,10.176c-0.1,4.176,1.346,7.513,4.947,9.746
			c0.657,0.408,1.484,0.616,2.261,0.746c2.243,0.377,4.133-0.566,5.989-1.685c1.904-1.146,2.62-2.759,2.229-4.902
			c-0.422-0.262-0.825-0.511-1.357-0.841c1.4-0.852,2.677-0.897,4.106-0.147c-0.533,0.347-1.065,0.693-1.459,0.951
			c-0.259,1.345-0.284,2.672-0.789,3.779c-0.513,1.123-1.5,2.028-2.253,2.995c1.201,0.03,2.113-0.687,2.93-1.552
			c0.991-1.052,1.992-2.101,2.914-3.213c1.423-1.716,2.593-3.575,3.029-5.824c0.266-1.367,0.64-2.681,0.515-4.133
			c-0.116-1.366,0.184-2.769,0.285-4.156c0.066-0.92-0.073-1.796-0.655-2.578c-0.431-0.114-1.133,0.25-1.24-0.434
			c-0.057-0.358,0.239-0.84,0.501-1.166c0.449-0.56,0.963-1.081,1.507-1.552c2.471-2.136,4.385-4.672,5.638-7.695
			c0.108-0.26,0.161-0.542,0.329-1.129c-1.604,0.652-2.949,1.15-4.253,1.741c-1.959,0.888-3.47,2.273-4.331,4.279
			c-0.409,0.952-0.737,1.939-1.119,2.904c-0.223,0.563-0.48,1.11-0.724,1.665c-0.112-0.03-0.224-0.062-0.336-0.092
			C282.616,227.631,283.275,226.257,283.711,224.651z M274.4,222.872c1.894-0.152,3.637-0.291,5.371-0.43
			c0.601-3.053,1.504-6.089-0.823-8.941c-1.057,0.489-2.185,1.055-2.901,2.146C274.633,217.804,274.164,220.191,274.4,222.872z
			 M309.629,239.132c0.739-1.432,1.512-2.663,2.026-3.993c0.465-1.198,0.747-2.492,0.929-3.77c0.142-0.999-0.337-1.572-1.102-1.759
			c-0.808-0.197-1.496,0.172-1.841,1.182c-0.273,0.8-0.435,1.658-0.503,2.501c-0.12,1.484-0.142,2.975-1.127,4.396
			C308.513,238.137,308.977,238.551,309.629,239.132z M285.263,264.344c0-1.162-0.007-2.234,0.002-3.309
			c0.011-1.412,0.005-1.426-1.526-2.037c0.077,1.887,0.154,3.773,0.236,5.754C284.437,264.605,284.771,264.5,285.263,264.344z
			 M287.941,265.639c0.192-1.814,0.379-3.574,0.579-5.475c-0.716,0.074-1.261,0.131-1.807,0.188c0.061,1.361,0.122,2.57,0.166,3.783
			C286.905,264.816,287.122,265.354,287.941,265.639z M301.75,261.244c-0.062,0.721-0.108,1.273-0.16,1.867
			c0.632,0.117,1.104,0.205,1.549,0.287c0.252,0.438,0.478,0.83,0.702,1.223c0.068-0.025,0.138-0.049,0.206-0.074
			c0-1.211,0-2.42,0-3.744C303.249,260.957,302.559,261.09,301.75,261.244z"/>
		<path fill="#272361" d="M272.18,247.56c-0.229-0.014-0.592-0.014-0.947-0.062c-3.011-0.407-4.438-2.746-3.328-5.562
			c0.325-0.821,0.754-1.695,1.38-2.285c1.384-1.305,3.137-1.678,4.998-1.339c1.909,0.347,2.877,1.723,3.502,3.407
			c0.566,1.528,0.173,2.838-0.983,3.938C275.545,246.851,274.081,247.565,272.18,247.56z M272.004,242.875
			c1.272-0.054,1.939-0.455,1.897-1.004c-0.048-0.654-0.533-1.186-1.067-1.17c-0.726,0.022-1.425,0.823-1.292,1.588
			C271.586,242.549,271.907,242.759,272.004,242.875z"/>
		<path fill="#272361" d="M277.665,236.005c0.364-0.394,0.624-0.797,0.988-1.041c0.736-0.492,1.498-0.98,2.312-1.318
			c0.714-0.296,1.316-0.026,1.507,0.686c0.228,0.853,0.298,1.761,0.321,2.647c0.006,0.258-0.332,0.659-0.601,0.759
			c-0.43,0.16-0.554-0.251-0.699-0.607c-0.501-1.224-1.21-1.479-2.527-0.966C278.58,236.313,278.58,236.313,277.665,236.005z"/>
		<path fill="#272361" d="M269.166,233.951c-0.373-1.305-0.081-2.579,0.626-3.673c0.732-1.137,2.159-0.893,2.636,0.377
			c0.382,1.02,0.549,2.08,0.194,3.304c-1.3-0.433-1.018-1.822-1.707-2.572c-0.595,0.213-0.666,0.768-0.841,1.271
			c-0.161,0.459-0.395,0.892-0.598,1.335C269.374,233.979,269.269,233.965,269.166,233.951z"/>
	</g>
	<g>
		<path fill="#272361" d="M45.979,201.86c0.382-0.906,0.801-1.756,1.101-2.646c0.381-1.131,1.14-1.852,2.247-2.132
			c0.74-0.187,1.188-0.558,1.447-1.248c0.109-0.293,0.29-0.564,0.468-0.824c0.772-1.136,1.314-2.242,0.86-3.741
			c-0.226-0.743,0.053-1.71,0.302-2.515c1.487-4.788,3.062-9.55,4.548-14.338c1.653-5.325,3.897-10.407,6.169-15.486
			c2.027-4.535,3.925-9.129,5.888-13.694c0.215-0.497,0.44-0.999,0.734-1.45c0.558-0.857,0.92-1.632,0.388-2.721
			c-0.448-0.917,0.034-1.871,0.64-2.643c0.442-0.566,0.961-1.082,1.488-1.573c2.613-2.431,5.18-4.918,8.207-6.797
			c0.142-0.668-0.112-0.961-0.724-1.078c-1.641-0.312-3.271-0.676-4.911-0.997c-3.108-0.609-5.695-2.238-8.119-4.168
			c-1.546-1.23-2.76-2.714-3.422-4.625c-0.295-0.849-0.762-1.638-1.149-2.455c-1.462-3.082-1.553-6.366-1.433-9.683
			c0.029-0.807,0.004-1.616,0.004-2.546c-0.187,1.512-0.358,2.908-0.532,4.314c-0.248-0.052-0.394-0.055-0.4-0.088
			c-0.256-1.141-1.081-1.981-1.563-2.989c-0.791-1.66-0.854-3.499-0.924-5.31c-0.129-3.373,0.319-6.669,1.337-9.888
			c0.531-1.676,1-3.376,1.614-5.021c0.729-1.952,1.954-3.56,3.767-4.656c0.361-0.218,0.774-0.35,1.271-0.396
			c-1.529,1.874-2.858,3.802-3.462,6.199c0.219-0.244,0.433-0.492,0.654-0.732c1.042-1.13,2.074-2.268,3.132-3.382
			c0.453-0.477,0.604-0.915,0.582-1.648c-0.067-2.151-0.272-4.338,0.327-6.454c0.202-0.71,0.592-1.368,1.083-2.02
			c0.347,1.81,0.031,3.65,0.735,5.418c0.749-2.122,0.873-4.542,2.663-6.12c0.146,0.056,0.294,0.113,0.441,0.169
			c-0.625,2.647-1.25,5.294-1.883,7.976c0.324,0.108,0.527,0.175,0.872,0.289c-0.587,2.021-2.149,3.479-3.037,5.331
			c1.302-0.756,2.669-1.386,3.26-2.972c0.449-1.208,1.061-2.358,1.391-3.687c-0.167,0.154-0.311,0.358-0.507,0.451
			c-0.497,0.237-0.899,0.007-0.981-0.534c-0.027-0.176-0.049-0.374,0.002-0.539c0.65-2.116,1.59-4.046,3.582-5.239
			c0.626-0.375,1.309-0.597,2.216-0.257c-0.344,0.502-0.649,0.949-0.979,1.432c7.024-3.229,12.211-2.066,17.553,1.207
			c0.125-0.42,0.289-0.711,0.856-0.658c1.516,0.141,2.849,0.729,3.866,1.784c2.491,2.58,4.036,5.631,4.147,9.296
			c0.004,0.135,0.047,0.294-0.007,0.404c-0.67,1.385,0.064,2.619,0.38,3.908c0.604,2.474,0.944,4.973,0.557,7.525
			c-0.039,0.265-0.065,0.561,0.01,0.811c0.82,2.726,0.575,5.552,0.853,8.328c0.267,2.666-0.019,5.24-0.613,7.794
			c-0.999,4.291-3.234,7.801-6.889,10.343c-0.147,0.103-0.304,0.224-0.473,0.26c-1.628,0.346-2.652,1.678-4.016,2.458
			c-0.233,0.134-0.314,0.535-0.488,0.851c0.628,0.216,1.101,0.339,1.541,0.535c2.617,1.164,5.302,1.126,7.922,0.188
			c1.29-0.462,2.525-1.241,3.603-2.104c3.614-2.9,6.806-6.205,9.131-10.263c1.181-2.062,1.911-4.294,2.369-6.611
			c0.552-2.792,1.08-5.591,1.538-8.399c0.158-0.97,0.251-2.013,0.062-2.959c-0.225-1.117-0.03-1.931,0.916-2.564
			c-0.615-2.035-0.733-4.041-0.31-6.075c0.379-1.82,0.764-2.018,2.465-1.224c0.384-0.43,0.69-1.038,1.164-1.228
			c0.452-0.18,1.079,0.074,1.811,0.158c0.283-0.192,0.734-0.583,1.254-0.831c1.03-0.494,1.915-0.199,2.345,0.847
			c0.285,0.696,0.438,1.475,0.501,2.228c0.102,1.214,0.147,2.44,0.092,3.656c-0.058,1.213-0.27,2.418-0.425,3.719
			c1.112,0.559,1.211,1.56,1.092,2.721c-0.407,3.956-0.631,7.934-1.167,11.872c-0.516,3.79-1.712,7.375-4.091,10.492
			c-1.669,2.186-2.845,4.714-4.722,6.772c-3.322,3.643-6.637,7.283-10.579,10.288c-1.078,0.823-2.117,1.682-3.611,1.786
			c0.286,2.729,0.558,5.319,0.822,7.83c1.325-0.251,2.602-0.517,3.888-0.722c0.384-0.062,0.794,0.046,1.527,0.102
			c-1.811,0.724-3.355,1.238-4.807,1.949c-1.496,0.733-2.971,1.555-4.323,2.522c-1.345,0.961-2.526,2.152-3.773,3.237
			c-0.106-0.096-0.23-0.177-0.219-0.204c0.335-0.841,0.384-1.648,0.189-2.575c-0.146-0.689,0.152-1.507,0.375-2.23
			c0.33-1.078,0.797-2.113,1.146-3.186c0.194-0.597,0.291-1.229,0.387-1.853c0.145-0.938-0.194-1.683-0.984-2.217
			c-0.112-0.076-0.228-0.147-0.337-0.229c-1.146-0.86-1.352-1.442-0.853-2.804c0.403-1.103,0.893-2.174,1.34-3.261
			c0.206-0.501,0.432-0.997,0.597-1.511c0.458-1.434,0.009-2.583-1.29-3.354c-0.232-0.138-0.479-0.254-0.731-0.354
			c-1.414-0.566-2.832-1.125-4.309-1.71c1.069,8.122,2.468,16.255,4.15,23.705c-1.015,1.229-1.73,2.041-2.382,2.902
			c-0.61,0.808-1.35,1.541-1.825,2.61c1.195,0.121,1.495-0.921,2.203-1.253c0.855-0.401,1.276-1.064,1.39-2.273
			c0.481,0.942,0.82,1.604,1.204,2.354c1.342-1.693,2.61-3.293,3.879-4.894c0.098,0.06,0.196,0.119,0.295,0.18
			c-0.229,0.47-0.457,0.94-0.685,1.411c0.043,0.032,0.088,0.064,0.132,0.097c0.992-0.97,2.021-1.906,2.971-2.917
			c1.899-2.02,4.403-2.765,6.975-3.278c2.188-0.437,4.438-0.526,6.516,0.481c1.147,0.555,2.348,0.803,3.553,1.127
			c2.495,0.671,4.23,2.368,5.53,4.518c0.886,1.465,1.771,2.946,2.46,4.507c0.483,1.096,0.749,2.323,0.913,3.52
			c0.333,2.42,0.461,4.854-0.046,7.285c-0.19,0.91-0.427,1.755-1.283,2.242c0.267,1.529,0.586,2.981,0.762,4.451
			c0.326,2.703,0.46,5.433-0.111,8.107c-1.153,5.394-3.912,9.476-9.523,11.066c-0.127,0.036-0.254,0.08-0.375,0.133
			c-0.034,0.014-0.049,0.073-0.104,0.164c1.447,1.653,3.265,2.075,5.355,1.599c1.443-0.328,2.72-1.051,3.819-1.978
			c1.828-1.537,3.665-3.136,4.809-5.271c1.685-3.146,3.134-6.396,3.488-10.027c0.051-0.517,0.451-0.998,0.812-1.75
			c-0.076-1.063-0.272-2.455-0.241-3.841c0.023-1.065,0.294-2.133,0.54-3.18c0.085-0.362,0.381-0.71,0.661-0.981
			c0.673-0.649,1.21-0.569,1.767,0.217c0.102,0.142,0.145,0.327,0.259,0.596c0.26-0.232,0.479-0.421,0.691-0.618
			c0.781-0.726,1.583-0.652,2.133,0.253c0.274,0.45,0.442,0.963,0.66,1.453c1.745-1.014,2.409-0.692,2.437,1.328
			c0.015,1.053-0.227,2.156-0.579,3.156c-0.434,1.229-1.078,2.385-1.685,3.545c-0.299,0.571-0.507,1.101-0.451,1.78
			c0.05,0.616-0.088,1.261-0.215,1.878c-0.428,2.081-0.896,4.152-1.335,6.232c-0.753,3.568-2.598,6.615-4.529,9.634
			c-2.089,3.266-4.915,5.761-8.093,7.897c-0.532,0.357-1.079,0.643-0.93,1.357c-0.785,0.408-0.99-0.39-1.558-0.559
			c-0.607,0.173-1.289,0.366-2.058,0.584c0.234,1.02,0.476,2.017,0.693,3.02c1.007,4.637,1.97,9.282,3.028,13.906
			c0.393,1.712,1.038,3.364,1.506,5.062c0.263,0.955,0.599,1.957,0.542,2.915c-0.078,1.321-0.23,2.592-0.012,3.94
			c0.211,1.304-0.55,2.305-1.895,2.747c1.894,8.4,1.851,16.978,2.819,25.228c1.897,1.184,3.687,2.287,5.46,3.416
			c0.256,0.166,0.487,0.416,0.644,0.68c0.456,0.768,0.052,1.672-0.834,1.688c-3.926,0.076-7.858,0.334-11.611-1.361
			c-1.12-0.504-1.732-1.336-2.524-2.24c0.221-0.188,0.426-0.363,0.621-0.531c-0.027-0.605-0.499-0.582-0.868-0.711
			c-0.96-0.336-1.365-0.945-1.407-1.906c-0.114-2.658-0.193-5.322-0.409-7.973c-0.391-4.781-0.792-9.557-0.461-14.357
			c0.006-0.079-0.058-0.162-0.137-0.368c-1.91,0.265-3.848,0.533-5.806,0.804c0,0.675-0.004,1.166,0,1.659
			c0.027,4.041-0.706,7.999-1.254,11.981c-0.577,4.207-0.98,8.436-1.449,12.656c-0.039,0.354-0.103,0.768,0.034,1.068
			c0.438,0.951-0.002,1.641-0.692,2.1c-2.255,1.498-4.463,3.078-7.047,4.018c-2.201,0.801-4.3,0.225-6.363-0.42
			c-1.184-0.369-1.376-1.482-0.433-2.342c1.23-1.121,2.489-2.277,3.92-3.096c1.488-0.852,1.864-2.033,1.899-3.572
			c-2.88-0.314-5.53-1.334-8.203-2.234c-1.116-0.377-1.977-1.264-2.66-2.244c-0.51-0.73-0.985-1.488-1.434-2.26
			c-0.122-0.211-0.121-0.516-0.117-0.775c0.128-6.504,0.228-13.009,0.418-19.511c0.071-2.438,0.361-4.868,0.544-7.302
			c0.019-0.247-0.019-0.498-0.043-1.054c-0.737,0.845-1.274,1.488-1.842,2.104c-0.639,0.692-1.234,1.465-2.4,0.937
			c-0.261-0.118-0.682,0.143-1.035,0.193c-1.346,0.195-2.045-0.648-1.627-1.956c0.122-0.381,0.258-0.757,0.389-1.134
			c-1.997-0.685-2.306-1.519-1.226-3.349c0.296-0.501,0.687-0.954,1.075-1.391c0.478-0.535,1.087-0.963,0.792-1.858
			c-0.068-0.208,0.204-0.564,0.38-0.809c1.474-2.049,2.969-4.081,4.435-6.136c0.173-0.24,0.362-0.623,0.287-0.858
			c-0.395-1.232,0.071-2.42,0.107-3.624c0.068-2.349,0.239-4.695,0.35-7.043c0.022-0.486-0.038-0.977-0.058-1.417
			c-1.697-0.652-3.167-0.172-4.3,1.377c-0.89,1.218-1.568,2.555-1.782,4.063c-0.578,4.07-1.231,8.136-1.651,12.224
			c-0.577,5.622-0.922,11.267-1.46,16.894c-0.271,2.833-0.816,5.64-1.116,8.472c-0.411,3.862-0.706,7.738-1.05,11.607
			c-0.012,0.137-0.048,0.281-0.015,0.406c0.54,1.988-0.651,3.293-1.952,4.375c-1.126,0.939-2.439,1.752-3.801,2.287
			c-2.896,1.141-5.872,2.09-8.83,3.068c-1.256,0.416-2.565,0.533-3.884,0.277c-0.354-0.066-0.714-0.133-1.052-0.256
			c-1.778-0.65-2.185-1.959-0.88-3.328c1.304-1.369,2.785-2.568,4.19-3.84c0.198-0.18,0.402-0.352,0.428-0.375
			c0.055-0.922,0.086-1.65,0.142-2.377c0.159-2.072,0.313-4.145,0.495-6.215c0.202-2.297,0.443-4.591,0.647-6.888
			c0.07-0.8,0.081-1.604,0.118-2.378c-0.157-0.062-0.284-0.139-0.307-0.114c-0.974,1.001-2.1,1.063-3.358,0.63
			c-1.324-0.453-2.654-0.917-4.015-1.227c-2.465-0.56-4.952-1.025-7.437-1.501c-3.435-0.655-6.702-1.847-9.963-3.065
			c-0.72-0.268-1.44-0.543-2.179-0.749c-1.397-0.394-2.142-1.314-2.238-2.729c-0.093-1.352-0.175-2.71-0.141-4.062
			c0.074-2.983,0.118-5.974,0.373-8.942c0.268-3.104,0.713-6.192,1.181-9.272c0.516-3.396,1.151-6.772,1.719-10.16
			c0.119-0.711,0.168-1.434,0.245-2.15c0.12-1.133,0.547-1.513,1.659-1.4c1.392,0.142,2.778,0.323,4.17,0.473
			C45.368,201.888,45.681,201.86,45.979,201.86z M93.302,158.118c-0.544-0.048-0.544-0.048-0.821,0.659
			c0.341-0.286,0.572-0.48,0.793-0.687c0.169-0.302,0.338-0.604,0.508-0.906c-0.084-0.027-0.167-0.053-0.251-0.08
			C93.454,157.443,93.378,157.78,93.302,158.118z M102.054,273.291c-0.828,0.283-1.44,0.83-1.995,1.447
			c0.06,0.076,0.119,0.15,0.178,0.225c0.635-0.525,1.27-1.051,1.903-1.576c0.341-0.293,0.683-0.59,1.023-0.885
			c0.499-0.158,1.004-0.303,1.496-0.48c0.509-0.186,1.068,0.646,1.561-0.078c-1.432-0.781-1.825-0.703-3.029,0.586
			C102.812,272.783,102.433,273.037,102.054,273.291z M118.649,163.635c-0.95-0.803-1.578-1.989-2.916-2.483
			c-0.303,0.522-0.585,1.01-0.967,1.668c1.405,0.283,2.657,0.534,3.908,0.786c0.123,0.727-0.336,1.037-0.921,1.052
			c-0.94,0.023-1.906,0.032-2.819-0.156c-1.269-0.261-2.498-0.709-3.826-1.101c-0.144,0.288-0.292,0.588-0.442,0.89
			c1.599,0.756,3.465,0.425,4.898,1.488c-0.344,0.719-0.855,0.995-1.471,1.006c-0.942,0.018-1.924,0.117-2.82-0.099
			c-1.573-0.377-3.108-0.931-4.632-1.486c-0.585-0.214-0.935-0.273-1.047,0.514c1.66,0.991,3.596,1.224,5.391,1.965
			c-0.548,0.303-1.083,0.511-1.635,0.582c-2.197,0.281-3.984-0.988-5.932-1.648c-0.181-0.061-0.286-0.331-0.438-0.492
			c-0.589-0.622-1.207-1.217-1.767-1.862c-0.583-0.671-1.112-1.389-1.673-2.096c-0.693,0.288-0.482,0.706-0.247,1.108
			c1.384,2.367,3.252,4.2,5.815,5.271c0.345,0.143,0.66,0.356,0.989,0.537c-0.008,0.114-0.015,0.229-0.022,0.344
			c-0.434,0.143-0.859,0.372-1.303,0.413c-1.756,0.165-3.184-0.636-4.386-1.781c-1.034-0.984-1.915-2.127-2.885-3.224
			c-0.065,0.128-0.188,0.274-0.217,0.438c-0.452,2.548-1.172,5.008-2.335,7.33c-0.118,0.235-0.138,0.52-0.2,0.782
			c-0.356,1.493-0.61,3.019-1.096,4.468c-0.444,1.323-0.516,2.639-0.477,3.999c0.04,1.396,0.177,2.767,0.839,4.014
			c-0.568,0.363-1.037,0.662-1.613,1.03c0.744,1.042,1.429,1.932,2.038,2.87c1.504,2.313,3.541,3.916,6.117,4.914
			c3.716,1.439,7.515,2.215,11.521,1.884c1.82-0.149,3.551-0.569,5.256-1.209c1.26-0.472,2.562-0.85,3.868-1.177
			c0.59-0.147,1.07-0.351,1.525-0.771c3.283-3.021,4.854-6.782,4.917-11.204c0.018-1.265-0.054-2.53-0.051-3.796
			c0.003-1.688-0.666-2.95-2.068-3.582c-0.225-1.676-0.422-3.233-0.644-4.785c-0.482-3.371-0.622-3.806-1.384-4.338
			c-0.098,0.203-0.181,0.399-0.282,0.584c-0.437,0.794-0.761,0.865-1.451,0.293c-0.277-0.229-0.521-0.498-0.784-0.746
			C120.207,165.097,119.428,164.366,118.649,163.635z M77.981,93.629c0.362,1.089,1.045,1.943,1.918,2.638
			c0.888,0.706,1.819,1.356,2.889,2.146c-0.937,0.393-1.634,0.309-2.343,0.177c-0.531-0.098-1.065-0.199-1.603-0.23
			c-1.31-0.076-2.465-0.532-3.502-1.313c-1.596-1.201-2.702-2.77-3.438-4.614c-0.16-0.399-0.327-0.794-0.579-1.403
			c-1.462,4.565-2.945,8.808-6.616,11.822c0.352-1.112,0.82-2.173,1.237-3.253c1.14-2.949,2.266-5.904,3.375-8.864
			c0.159-0.428,0.195-0.903,0.288-1.356c-0.101-0.031-0.202-0.061-0.304-0.092c-1.018,1.903-2.665,3.478-2.788,5.852
			c-0.034,0.666-0.259,1.333-0.474,1.974c-0.789,2.338-1.754,4.554-4.024,5.906c-0.26,0.155-0.42,0.695-0.408,1.05
			c0.063,1.893,0.048,3.796,0.64,5.635c0.193,0.598,0.371,1.237,0.366,1.856c-0.016,1.801,0.722,3.331,1.55,4.848
			c0.454,0.832,0.895,1.671,1.306,2.524c0.587,1.218,1.484,2.149,2.568,2.923c0.479,0.342,0.927,0.739,1.44,1.012
			c1.51,0.803,2.973,1.822,4.589,2.267c2.2,0.606,4.439,1.114,6.741,1.419c3.389,0.449,6.575,0.055,9.694-1.168
			c1.42-0.558,2.963-1.07,4.104-2.02c2.379-1.979,4.333-4.403,5.296-7.412c0.616-1.927,1.082-3.923,1.388-5.924
			c0.647-4.238,1.343-8.491,0.327-12.786c-0.237-1.007-0.306-2.055-0.453-3.084c-0.423-2.964-1.058-5.872-2.305-8.615
			c-0.15-0.333-0.371-0.633-0.665-1.127c-0.576,2.032-0.823,3.664,0.357,5.394c1.048,1.534,1.358,3.426,1.195,5.329
			c-0.049,0.566-0.146,1.119-0.76,1.579c-0.75-1.91-0.972-3.884-1.865-5.693c-0.762,0.871,0.88,1.362,0.095,2.184
			c-1.923-0.549-3.072-2.358-5.031-3.078c-0.165,0.561-0.309,1.046-0.485,1.648c1.227,0.265,2.294,0.495,3.424,0.738
			c-0.27,0.828-0.823,1.103-1.387,1.167c-0.841,0.098-1.785,0.268-2.533-0.008c-1.748-0.644-3.802-0.715-5.063-2.405
			c-0.058-0.077-0.23-0.067-0.417-0.115c-0.144,0.508-0.275,0.973-0.408,1.439c2.303,1.919,5.297,1.673,8.016,2.653
			c-1.069,1.054-2.262,1.022-3.412,1.126c-0.401,0.036-0.844-0.025-1.197,0.125c-1.726,0.733-3.466,0.49-5.189,0.101
			C81.432,96.125,79.64,95.025,77.981,93.629z M77.683,262.475c0.092-0.258,0.165-0.381,0.176-0.508
			c0.214-2.475,0.396-4.951,0.635-7.425c0.244-2.517,0.537-5.029,0.818-7.545c0.355-3.185,0.761-6.366,1.069-9.556
			c0.23-2.383,0.306-4.781,0.516-7.167c0.25-2.835,0.553-5.668,0.868-8.497c0.354-3.187,0.727-6.372,1.135-9.554
			c0.197-1.536,0.721-2.961,1.489-4.329c0.748-1.333,1.809-2.183,3.159-2.831c1.199-0.576,2.314-0.493,3.538-0.135
			c1.35,0.396,1.687,0.755,1.627,2.167c-0.029,0.676,0,1.354,0.003,2.029c0.007,1.533,0.015,3.066,0.02,4.6
			c0.003,0.856,0.001,1.713,0.001,2.73c0.753-0.881,1.368-1.626,2.012-2.346c1.625-1.821,3.229-3.663,4.907-5.436
			c1.491-1.574,3.068-3.068,4.612-4.592c0.327-0.323,0.601-0.617,0.569-1.153c-0.073-1.306-0.064-2.616-0.105-3.925
			c-0.01-0.291-0.086-0.58-0.17-1.112c-0.904,1-1.932,1.088-2.976,1.048c-0.812-0.032-1.618-0.156-2.43-0.201
			c-0.48-0.026-0.978-0.04-1.444,0.054c-0.538,0.106-0.884-0.065-1.117-0.515c-0.158-0.308-0.273-0.638-0.399-0.938
			c-1.021-0.058-1.969-0.076-2.907-0.171c-2.249-0.229-4.485-0.431-6.761-0.229c-1.051,0.095-2.141-0.221-3.209-0.375
			c-0.566-0.081-1.125-0.215-1.657-0.318c-0.591,1.284-0.451,2.495-0.379,3.709c0.051,0.844-0.407,1.672-1.104,1.794
			c-1.63,0.286-3.201,0.92-4.94,0.584c-1.493-0.289-3.035-0.328-4.664-0.488c-0.074,0.568-0.122,0.96-0.178,1.351
			c-0.21,1.462-0.26,2.974-0.684,4.371c-0.347,1.146-0.569,2.269-0.599,3.443c-0.053,2.169-0.078,4.34-0.115,6.51
			c-0.089,5.199-0.121,10.397-0.849,15.567c-0.434,3.088-0.676,6.202-1.037,9.3c-0.065,0.564-0.181,1.177-0.471,1.645
			c-0.293,0.473-0.317,0.89-0.274,1.396c0.085,0.99,0.181,1.987,0.145,2.979c-0.095,2.528-0.263,5.056-0.395,7.584
			c-0.099,1.89-0.188,3.78-0.289,5.862c3.541,0.211,6.988,0.42,10.437,0.619C76.746,262.498,77.229,262.475,77.683,262.475z
			 M62.919,244.192c0.509-0.502,0.798-0.929,1.2-1.152c0.693-0.387,0.865-0.941,0.925-1.671c0.154-1.891,0.381-3.773,0.576-5.66
			c0.345-3.324,0.806-6.641,0.997-9.973c0.216-3.743,0.186-7.5,0.265-11.252c0.045-2.153,0.094-4.308,0.144-6.514
			c-1.492-0.724-3.107-0.935-4.705-1.16c-0.378-0.054-0.869,0.183-1.203,0.428c-0.546,0.401-0.958,0.405-1.415-0.16
			c0.359-1.062,1.369-2.067,0.41-3.411c-0.573,0.675-0.747,1.613-1.711,1.733c-1.016,0.127-1.242-0.871-1.851-1.37
			c-0.748,0.676-1.513,1.154-2.497,0.763c-1.074-0.426-0.997-1.484-1.178-2.393c-0.632,0.214-1.171,0.468-1.738,0.575
			c-1.532,0.289-2.248-0.428-1.998-1.964c0.129-0.794,0.302-1.582,0.49-2.558c-1.49,1.041-2.111,2.339-2.401,3.979
			c0.594,0,1.021,0,1.454,0c-0.167,1.139-1.141,1.697-2.114,1.269c-0.322-0.141-0.633-0.375-0.967-0.415
			c-1.165-0.137-2.336-0.22-3.508-0.293c-0.432-0.026-0.868,0.03-1.258,0.048c-0.313,1.617-0.587,3.082-0.878,4.544
			c-1.001,5.019-1.741,10.082-1.92,15.189c-0.152,4.331,0.043,8.674,0.122,13.011c0.031,1.75,0.077,1.747,1.67,2.284
			c0.299,0.102,0.588,0.233,0.884,0.345c3.169,1.2,6.337,2.41,9.68,3.062c2.526,0.492,5.056,0.965,7.579,1.473
			c0.914,0.184,1.813,0.443,2.901,0.715c0-0.759-0.018-1.386,0.003-2.012c0.1-3.027,0.045-6.069,0.349-9.076
			c0.711-7.063,1.598-14.105,2.405-21.158c0.039-0.335,0.005-0.679,0.005-1.022c-0.46-0.116-0.763-0.21-1.071-0.266
			c-4.174-0.769-8.35-1.528-12.523-2.297c-1.733-0.32-3.466-0.647-5.194-0.993c-1.274-0.255-2.272-1.009-3.254-1.802
			c0.354-0.044,0.663,0,0.948,0.107c1.495,0.558,3.039,0.848,4.629,0.962c0.808,0.059,1.606,0.239,2.41,0.36
			c2.053,0.309,4.104,0.633,6.161,0.919c2.819,0.395,5.644,0.746,8.462,1.146c1.047,0.147,1.478,0.701,1.351,1.635
			c-0.249,1.834-0.566,3.661-0.766,5.501c-0.593,5.481-1.211,10.964-1.682,16.456c-0.25,2.924-0.234,5.87-0.302,8.806
			C62.782,241.941,62.872,242.955,62.919,244.192z M71.012,143.364c-0.116,0.285-0.25,0.606-0.38,0.93
			c-2.511,6.296-4.994,12.603-7.542,18.885c-1.444,3.559-3.03,7.06-4.02,10.788c-1.425,5.372-2.871,10.738-4.296,16.111
			c-0.114,0.433-0.162,0.887-0.2,1.335c-0.05,0.592,0.16,1.052,0.743,1.305c1.6,0.69,3.195,1.392,4.829,2.105
			c0.178-0.379,0.312-0.613,0.401-0.862c0.791-2.209,1.631-4.402,2.341-6.637c0.641-2.019,1.201-4.068,1.681-6.131
			c0.867-3.738,1.568-7.517,2.494-11.24c0.622-2.505,1.695-4.866,3.102-7.048c0.396-0.614,0.722-1.339,1.728-1.685
			c0.027,0.54,0.137,0.975,0.053,1.367c-0.144,0.658-0.374,1.304-0.633,1.928c-0.537,1.292-1.171,2.547-1.664,3.855
			c-0.349,0.921-0.661,1.893-0.755,2.865c-0.136,1.388-0.093,2.797-0.063,4.196c0.145,6.643,0.292,13.287,0.481,19.929
			c0.039,1.334,0.264,2.663,0.415,4.104c1.119,0,2.114-0.043,3.103,0.012c1.037,0.057,2.073,0.169,3.1,0.325
			c1.255,0.191,2.294-0.269,3.349-0.915c-0.88-22.421-0.596-44.794,1.177-67.184c-0.504,0.274-0.878,0.588-1.231,0.923
			c-1.97,1.865-3.938,3.732-5.899,5.606c-0.326,0.311-0.62,0.657-0.928,0.987c-0.594,0.637-0.673,1.302-0.274,2.106
			c0.732,1.474,1.958,2.193,3.502,2.494c1.251,0.244,1.739,0.817,1.504,2.064c-0.137,0.729-0.466,1.462-0.865,2.095
			c-0.87,1.375-1.854,2.676-2.763,4.025c-0.344,0.512-0.612,1.074-0.955,1.685c0.521,0.165,0.894,0.329,1.284,0.399
			c1.865,0.335,2.776,1.62,3.151,3.308c0.192,0.864,0.174,1.8,0.106,2.692c-0.212,2.804-0.147,5.589,0.265,8.374
			c0.266,1.787,0.487,3.583,0.64,5.383c0.084,0.993-0.016,2.002-0.033,3.004c-0.123,0.011-0.246,0.022-0.37,0.035
			c-0.28-1.218-0.626-2.427-0.828-3.658c-0.643-3.925-1.339-7.844-1.468-11.835c-0.029-0.901-0.108-1.807-0.253-2.697
			c-0.196-1.209-0.834-2.063-2.107-2.363c-0.61-0.143-1.213-0.359-1.785-0.616c-1.078-0.487-1.419-1.32-1.037-2.447
			c0.1-0.296,0.254-0.582,0.421-0.848c0.764-1.229,1.525-2.459,2.321-3.667c0.641-0.975,1.331-1.917,1.991-2.862
			C73.537,145.029,72.312,144.221,71.012,143.364z M126.362,207.592c-0.34-2.3-0.688-4.646-1.043-7.041
			c-0.52,0-0.876-0.009-1.231,0.001c-2.015,0.055-3.734-0.563-5.032-2.174c-0.227-0.28-0.473-0.557-0.757-0.773
			c-0.146-0.112-0.396-0.089-0.687-0.144c-0.033,0.34-0.096,0.599-0.078,0.851c0.149,2.053-0.927,3.429-2.511,4.497
			c-0.796,0.536-1.658,0.604-2.573,0.198c-1.37-0.606-2.359-1.609-3.163-3.019c-2.458,4.041-5.847,7.124-8.84,10.465
			c0.916,1.385,1.754,2.654,2.616,3.959c1.158-0.88,1.863-1.975,2.022-3.395c0.068-0.608,0.259-1.153,0.902-1.549
			c-0.085,1.506-0.168,3.013-0.255,4.563c0.655-0.069,1.186-0.142,1.719-0.18c2.704-0.188,5.411-0.34,8.112-0.56
			c1.394-0.113,2.776-0.354,4.168-0.506c0.248-0.027,0.514,0.106,0.771,0.165c-2.361,1.097-4.823,1.379-7.297,1.511
			c-2.515,0.135-5.035,0.153-7.681,0.226c-0.238,2.279-0.464,4.527-0.524,6.927c0.594-0.156,0.98-0.259,1.367-0.36
			c2.01-0.528,4.011-1.092,6.031-1.573c3.003-0.717,6.042-1.141,9.143-0.891c0.596,0.048,1.229,0.008,1.859,0.717
			c-3.186,0.773-6.291,0.617-9.292,1.207c-3.045,0.598-6.108,1.096-9.26,1.655c-0.107,1.78-0.213,3.521-0.323,5.336
			c0.417-0.02,0.654,0.021,0.852-0.048c3.084-1.076,6.273-1.718,9.477-2.285c3.673-0.651,7.354-1.283,11.111-0.21
			c-0.486-3.47-0.921-6.868-1.449-10.252c-0.527-3.375-1.148-6.733-1.729-10.102c0.446,0.627,0.738,1.286,0.987,1.96
			C124.343,208.31,124.818,208.488,126.362,207.592z M103.75,217.575c-0.76,0.683-1.381,1.2-1.954,1.766
			c-3.899,3.842-6.809,8.375-9.205,13.261c-0.093,0.188-0.079,0.438-0.078,0.66c0.016,2.662,0.026,5.325,0.063,7.988
			c0.081,6.098,0.174,12.194,0.272,18.293c0.004,0.299,0.097,0.598,0.184,1.09c1.713-0.207,3.353-0.482,5.002-0.582
			c1.652-0.1,3.313-0.023,4.962-0.023c0.406,1.277,0.393,1.246-0.695,1.73c-1.079,0.48-2.211,0.363-3.334,0.416
			c-0.928,0.041-1.854,0.129-3.025,0.217c1.622,1.117,4.987,1.932,7.284,1.893c1.514-6.551,1.059-13.297,2.164-19.993
			c-0.688-0.052-1.3-0.095-1.911-0.145c-1.115-0.092-1.632-0.636-1.629-1.749c0.002-0.903,0.011-1.806,0.061-2.708
			c0.157-2.797,0.423-5.592,0.484-8.392c0.076-3.49,0.409-6.947,0.928-10.394C103.481,219.837,103.598,218.764,103.75,217.575z
			 M103.799,139.729c0.452-0.208,0.895-0.332,1.242-0.586c1.056-0.772,2.107-1.555,3.101-2.403
			c4.412-3.771,8.417-7.916,11.605-12.798c0.444-0.681,0.844-1.4,1.354-2.028c2.087-2.561,3.295-5.534,3.768-8.738
			c0.601-4.063,0.944-8.164,1.384-12.25c0.052-0.476,0.008-0.962,0.008-1.536c-2.227-0.181-4.313-0.35-6.414-0.521
			c-0.071,1.082-0.072,2.122-0.222,3.141c-0.297,2.011-0.639,4.017-1.029,6.011c-0.707,3.618-1.869,7.103-3.814,10.235
			c-2.504,4.032-5.792,7.391-9.65,10.156c-1.916,1.372-3.947,2.571-6.401,2.734c-0.06,0.003-0.112,0.11-0.229,0.234
			c0.21,0.158,0.409,0.312,0.612,0.46c1.645,1.21,2.249,2.943,1.663,4.895c-0.181,0.603-0.463,1.175-0.69,1.765
			c-0.449,1.166-0.892,2.334-1.323,3.467c0.43,0.39,0.703,0.698,1.032,0.927c1.117,0.776,1.482,1.896,1.471,3.176
			c-0.014,1.378-0.395,2.667-1.038,3.885c-0.422,0.798-0.82,1.609-1.194,2.43c-0.117,0.256-0.12,0.565-0.206,1.008
			c1.64-1.171,3.126-2.234,4.479-3.202c-0.317-4.615-0.627-9.09-0.935-13.566c0.095-0.023,0.19-0.046,0.285-0.068
			C103.014,137.546,103.371,138.54,103.799,139.729z M81.24,141.642c0,0.112,0.001,0.336,0,0.56
			c-0.021,6.145-0.019,12.29-0.066,18.435c-0.035,4.471-0.2,8.941-0.184,13.412c0.011,2.8,0.305,5.597,0.375,8.399
			c0.097,3.749,0.096,7.499,0.148,11.249c0.005,0.342,0.102,0.684,0.178,1.167c2.062,0.083,4.041,0.261,6.015,0.212
			c1.813-0.045,3.604-0.023,5.405,0.208c1.003,0.129,2.035,0.023,2.992,0.023c0.285-0.68,0.17-1.088-0.252-1.483
			c-1.932-1.817-3.309-4.043-4.577-6.348c-1.945,0.004-2.791-1.295-3.336-2.855c-0.504-1.443-0.898-2.925-1.332-4.392
			c-0.102-0.345-0.229-0.702-0.234-1.055c-0.016-1.167-0.488-2.174-0.846-2.91c-0.522-0.281-0.9-0.364-1.063-0.596
			c-0.278-0.399-0.442-0.884-0.616-1.347c-0.281-0.749-0.432-1.515-1.213-2.029c-0.431-0.283-0.694-0.874-0.415-1.568
			c0.229-0.57,0.251-1.233,0.307-1.859c0.184-2.071,0.282-4.152,0.519-6.216c0.505-4.397,0.988-8.794,1.877-13.143
			c0.728-3.566,0.607-3.989-0.562-7.507c-0.25-0.751-0.508-1.5-0.777-2.295C82.792,140.358,82.11,140.922,81.24,141.642z
			 M104.771,234.092c-0.06,0.34-0.127,0.555-0.13,0.772c-0.029,1.896-0.052,3.792-0.065,5.688c-0.01,1.414,0.512,1.903,1.963,1.889
			c1.175-0.011,2.352,0.028,3.523-0.023c1.167-0.051,2.338-0.142,3.494-0.301c1.785-0.245,3.563-0.543,5.338-0.853
			c2.704-0.473,5.463-0.582,8.12-1.396c0.921-0.281,1.366-0.694,1.533-1.582c0.092-0.495,0.291-0.97,0.414-1.363
			c-0.635-2.053-1.257-4.066-1.897-6.141c-0.252,0.04-0.468,0.066-0.681,0.109c-3.404,0.705-6.799,1.464-10.215,2.104
			C112.449,233.691,108.728,234.471,104.771,234.092z M129.558,266.127c0-0.604,0.036-1.143-0.006-1.678
			c-0.133-1.666-0.333-3.328-0.439-4.996c-0.322-5.053-0.67-10.101-1.608-15.086c-0.12-0.64-0.342-1.262-0.491-1.797
			c-2.121,0.343-4.061,0.657-5.912,0.957c0.76,7.644,1.514,15.215,2.265,22.768C126.027,266.908,127.189,266.881,129.558,266.127z
			 M112.709,244.799c-2.273-0.151-4.324-0.287-6.519-0.433c0,2.077,0.007,4.009-0.001,5.94c-0.016,4.117-0.32,8.211-0.866,12.295
			c-0.31,2.311-0.387,4.65-0.558,6.84c1.664,1.213,3.4,0.707,5.086,0.594c0.057-0.152,0.106-0.234,0.117-0.318
			c0.442-3.947,0.871-7.895,1.329-11.838c0.16-1.391,0.438-2.768,0.581-4.158C112.179,250.807,112.425,247.89,112.709,244.799z
			 M104.64,233.561c0.71-0.124,1.281-0.208,1.846-0.325c6.748-1.395,13.45-3.037,20.439-3.765c-0.229-1.185-0.464-2.398-0.731-3.777
			c-1.811,0.1-3.531,0.075-5.214,0.314c-2.948,0.418-5.872,1.005-8.808,1.508c-2.479,0.425-4.96,0.831-7.532,1.261
			C104.64,230.21,104.64,231.773,104.64,233.561z M84.207,171.463c0.652-0.508,0.953-1.139,1.106-1.921
			c0.765-3.9,1.999-7.601,4.771-10.598c0.339-0.366,0.43-0.731,0.396-1.222c-0.146-2.119-0.185-4.245-0.378-6.359
			c-0.188-2.06-0.518-4.106-0.79-6.198c-0.548,0.064-0.946,0.13-1.346,0.154c-0.387,0.023-0.776,0.004-1.132,0.004
			c-1.677,8.609-2.315,17.201-2.91,25.798C83.919,171.211,84.08,171.314,84.207,171.463z M67.064,179.395
			c-0.046-0.004-0.093-0.007-0.14-0.01c-0.059,0.25-0.116,0.501-0.177,0.751c-0.536,2.233-0.978,4.494-1.635,6.691
			c-0.671,2.246-1.543,4.432-2.349,6.636c-0.31,0.849-0.598,1.647-0.389,2.611c0.124,0.57-0.162,1.23-0.275,1.849
			c-0.061,0.33-0.145,0.655-0.229,1.024c0.685,0.035,1.512-0.67,1.716,0.277c0.131,0.609,0.706,0.998,0.504,1.84
			c-0.281,1.173-0.071,2.462-0.071,3.691c1.576,0.379,3,0.721,4.482,1.076c0.097-1.366,0.182-2.561,0.265-3.729
			c-1.757-0.976-1.767-0.999-1.677-3.115c0.014-0.314-0.006-0.631-0.006-0.947c-0.008-3.609-0.015-7.219-0.019-10.827
			C67.063,184.606,67.064,182.001,67.064,179.395z M57.161,200.203c0.808,0.216,1.124,0.61,0.992,1.393
			c-0.081,0.485-0.015,0.997-0.015,1.496c0.113,0.014,0.228,0.029,0.341,0.046c0.711-1.912,1.421-3.822,2.18-5.858
			c-2.507-1.089-4.891-2.126-7.354-3.196c-1.14,2.291-2.389,4.537-2.488,7.3c1.237-0.324,2.073-0.822,2.49-1.91
			c0.144-0.373,0.275-0.983,0.893-0.81c0.705,0.201,0.575,0.764,0.482,1.333c-0.107,0.665-0.124,1.348-0.137,2.024
			c-0.007,0.417-0.081,0.888,0.497,1.288C55.746,202.276,56.42,201.289,57.161,200.203z M132.959,203.925
			c2.003-1.948,3.422-3.996,4.546-6.047c-1.024-1.634-1.951-3.11-2.895-4.614c-1.524,1.612-2.975,3.147-4.471,4.73
			C131.045,199.898,131.951,201.805,132.959,203.925z M91.127,140.032c-0.326,1.379-0.657,2.717-0.949,4.065
			c-0.052,0.242,0.037,0.527,0.102,0.781c0.725,2.841,1.256,5.715,1.521,8.639c0.092,1.013,0.243,2.021,0.392,3.232
			c1.056-0.726,1.922-1.321,2.76-1.896c-0.152-0.968-0.287-1.853-0.432-2.736c-0.466-2.842-0.937-5.683-1.404-8.525
			c-0.044-0.264-0.012-0.576-0.143-0.785C92.383,141.865,91.746,140.952,91.127,140.032z M119.528,90.646
			c-0.126,0.018-0.251,0.036-0.376,0.053c-0.468,2.016-0.367,3.987,0.636,5.862c0.131,0.245,0.438,0.502,0.702,0.552
			c1.549,0.293,3.109,0.466,4.756,0.243c0.636-2.988,1.252-5.913,0.244-9.171c-0.536,0.377-0.978,0.547-1.188,0.868
			c-0.34,0.516-0.541,1.126-0.776,1.707c-0.15,0.371-0.151,0.879-0.41,1.107c-0.278,0.245-0.782,0.234-1.155,0.328
			c-0.107,0.405-0.155,0.823-0.337,1.172c-0.099,0.191-0.429,0.376-0.644,0.363c-0.204-0.012-0.471-0.248-0.57-0.453
			c-0.153-0.318-0.164-0.701-0.279-1.042C119.949,91.699,119.73,91.175,119.528,90.646z M139.325,173.268
			c-0.096,0.008-0.191,0.015-0.287,0.022c-0.082,0.151-0.199,0.294-0.242,0.457c-0.581,2.194-0.135,4.399-0.053,6.601
			c0.006,0.185,0.177,0.459,0.34,0.526c0.981,0.404,1.983,0.762,2.938,1.119c2.067-3.028,2.952-5.263,2.667-6.795
			c-0.177,0.219-0.373,0.362-0.427,0.547c-0.136,0.461-0.283,0.922-0.867,0.826c-0.576-0.095-0.532-0.61-0.601-1.063
			c-0.118-0.785-0.308-1.558-0.468-2.336c-0.105-0.019-0.21-0.038-0.315-0.056c-0.249,0.451-0.531,0.886-0.736,1.355
			c-0.144,0.326-0.132,0.72-0.282,1.04c-0.1,0.21-0.394,0.5-0.548,0.473c-0.257-0.047-0.539-0.28-0.684-0.514
			c-0.129-0.207-0.069-0.525-0.121-0.79C139.546,174.207,139.431,173.739,139.325,173.268z M102.351,215.628
			c-0.926-1.597-1.725-2.976-2.605-4.497c-1.468,1.727-2.831,3.328-4.152,4.882c0.838,1.447,1.61,2.781,2.458,4.245
			C99.531,218.663,100.93,217.158,102.351,215.628z M84.335,138.468c0.561,1.57,1.032,2.875,1.49,4.184
			c0.317,0.904,1.016,1.356,2.066,1.307c0.734-0.033,1.083-0.4,1.318-1.415c0.061-0.262,0.101-0.533,0.107-0.801
			c0.03-1.123,0.063-2.246,0.05-3.37c-0.003-0.289-0.086-0.66-0.276-0.847c-0.633-0.62-1.331-1.174-2.132-1.865
			C86.004,136.683,85.13,137.619,84.335,138.468z M137.089,187.713c-0.703,1.656-1.328,3.13-1.973,4.649
			c1.553,1.046,2.107,2.761,3.012,4.431c1.624-2.466,2.283-4.988,2.729-7.656C139.574,188.651,138.406,188.211,137.089,187.713z
			 M131.676,205.083c-0.97-2.228-1.84-4.227-2.733-6.277c-0.885,0.471-1.819,0.967-2.692,1.43c0.352,1.292,0.692,2.449,0.977,3.62
			c0.294,1.205,0.296,2.483,0.899,3.718C129.571,206.941,130.642,205.939,131.676,205.083z M89.644,128.471
			c-2.704,0.736-5.169,1.12-7.743,0.781c0.035,1.136,0.609,1.788,1.308,2.274c1.075,0.748,2.256,1.318,3.582,1.497
			c1.536,0.207,2.754-0.767,2.847-2.304C89.677,130.056,89.644,129.39,89.644,128.471z M94.708,217.103
			c-1.123,1.523-2.094,2.839-3.017,4.091c0.958,1.341,1.811,2.533,2.716,3.799c0.928-1.282,1.819-2.511,2.7-3.726
			C96.316,219.895,95.584,218.621,94.708,217.103z M91.573,229.746c0.723-1.188,1.353-2.173,1.92-3.192
			c0.125-0.224,0.15-0.664,0.013-0.846c-0.832-1.104-1.726-2.161-2.696-3.354c-0.861,1.337-1.678,2.606-2.481,3.857
			C89.426,227.408,90.45,228.523,91.573,229.746z M90.679,231.919c-1.421-1.174-2.102-2.923-3.855-3.655
			c-0.693,1.1-1.824,1.766-2.017,3.29c0.882-0.238,1.646-0.445,2.436-0.657c0.294,1.049-0.575,1.41-0.794,2.058
			c-0.219,0.646-0.712,1.229-0.523,1.979c1.193,0.031,1.522-2.149,2.993-0.964C89.496,233.295,90.02,232.686,90.679,231.919z
			 M81.434,140.41c0.842-2.428,2.849-4.014,4.313-5.901c-1.448-0.779-2.813-1.513-4.313-2.321
			C81.434,135.009,81.434,137.709,81.434,140.41z M95.855,77.926c-1.696,2-3.427,7.989-3.209,10.624
			c0.438,0.22,0.896,0.451,1.489,0.75c-0.024-1.239,0.898-2.322-0.349-3.358c0.396-0.1,0.671-0.169,1.011-0.255
			c0.355-2.019,0.722-4.008,1.047-6.003C95.92,79.215,95.855,78.725,95.855,77.926z M138.566,182.481
			c-0.395,1.525-0.734,2.84-1.06,4.099c1.266,0.454,2.427,0.871,3.683,1.323c0.265-1.326,0.522-2.623,0.798-4.009
			C140.781,183.396,139.732,182.964,138.566,182.481z M92.395,138.882c-0.134-1.168-0.248-2.225-0.376-3.282
			c-0.13-1.071-0.313-2.138-0.397-3.212c-0.079-1.016-0.059-2.04-0.082-3.061c-0.351,1.134-0.365,2.391-0.934,3.301
			c-0.564,0.903-1.688,1.457-2.273,1.929C89.601,135.907,90.917,137.309,92.395,138.882z M72.858,264.123
			c-0.024-0.109-0.049-0.221-0.073-0.332c-2.023,0-4.047-0.012-6.07,0.014c-0.291,0.004-0.633,0.117-0.86,0.297
			c-1.413,1.113-2.81,2.246-4.188,3.402c-0.314,0.264-0.534,0.641-0.799,0.965C64.715,266.506,68.454,264.451,72.858,264.123z
			 M115.555,198.276c-1.766,0.178-3.53,0.355-5.298,0.534c0.314,1.266,2.049,2.686,3.197,2.626c0.177-0.009,0.361-0.044,0.524-0.11
			C115.124,200.855,115.758,199.619,115.555,198.276z M81.337,79.953c0.781-1.724,1.549-3.419,2.41-5.321
			c-1.433,0.096-2.638,0.16-3.838,0.265c-0.517,0.045-0.724,0.419-0.853,0.907c-0.448,1.696-0.939,3.379-1.409,5.07
			c-0.104,0.373-0.183,0.753-0.272,1.129c0.726-1.101,1.27-2.267,1.843-3.417c0.589-1.182,1.076-2.442,2.313-3.408
			C82.555,76.937,81.246,78.405,81.337,79.953z M60.306,92.719c2.474-2.8,4.617-5.447,6.37-8.397
			c-0.452,0.259-0.829,0.58-1.167,0.937c-1.424,1.505-2.78,3.077-4.271,4.511C60.424,90.552,60.229,91.401,60.306,92.719z
			 M120.56,154.38c1.563,0.424,1.663,0.547,1.53,2.079c-0.054,0.629-0.206,1.25-0.255,1.879c-0.017,0.204,0.154,0.421,0.342,0.887
			c0.753-1.237,1.371-2.251,1.963-3.223c-0.953-1.791-2.19-2.876-3.474-3.056C120.633,153.393,120.6,153.837,120.56,154.38z
			 M60.313,96.553c0.306-0.298,0.506-0.463,0.671-0.66c1.073-1.279,2.1-2.6,3.222-3.835c0.66-0.728,1.014-1.508,0.872-2.604
			c-0.378,0.259-0.595,0.666-0.895,0.996c-1.033,1.134-2.041,2.301-3.167,3.338C60.21,94.528,59.979,95.311,60.313,96.553z
			 M107.248,153.98c-0.099-0.081-0.198-0.163-0.297-0.244c-2.342,2.306-4.448,4.823-6.646,7.445
			c0.287,0.325,0.503,0.569,0.798,0.901C103.26,159.239,105.254,156.609,107.248,153.98z M78.146,75.403
			c-0.23,0.242-0.346,0.322-0.407,0.433c-1.525,2.745-2.229,5.783-3.081,8.764c-0.077,0.27,0.087,0.609,0.166,1.073
			C75.639,84.646,77.948,77.391,78.146,75.403z M77.327,89.486c1.05-3.519,2.055-6.889,3.061-10.26
			c-0.262,0.046-0.375,0.138-0.423,0.257c-1.083,2.724-2.157,5.452-3.238,8.177C76.473,88.3,76.724,88.792,77.327,89.486z
			 M105.988,198.426c0,1.261,0,2.438,0,3.977c1.234-1.277,2.251-2.329,3.473-3.592C108.115,198.661,107.082,198.547,105.988,198.426
			z M80.594,88.042c0.109,0.008,0.22,0.017,0.329,0.025c1.043-3.501,2.128-6.99,3.088-10.807c-0.28,0.304-0.402,0.378-0.438,0.483
			c-1.06,3.158-2.119,6.315-3.145,9.483C80.354,87.455,80.532,87.767,80.594,88.042z M109.399,154.937
			c-0.081-0.054-0.162-0.108-0.242-0.162c-1.696,2.331-3.395,4.662-5.139,7.059c0.375,0.209,0.595,0.333,0.878,0.492
			C106.519,159.868,108.092,157.483,109.399,154.937z M82.512,86.459c0.087,0.021,0.175,0.041,0.262,0.062
			c1.152-3.785,2.305-7.57,3.456-11.355c-0.521-0.345-0.685-0.079-0.819,0.408c-0.913,3.294-1.851,6.582-2.767,9.875
			C82.553,85.772,82.553,86.122,82.512,86.459z M127.437,162.889c-0.785,0.913-0.742,0.908-0.668,1.726
			c0.097,1.065,0.273,2.159,0.131,3.202c-0.164,1.205,0.27,2.029,1.146,2.987C127.726,168.123,127.937,165.608,127.437,162.889z
			 M88.188,75.595c-0.805,3.125-1.57,6.086-2.327,9.05c-0.031,0.122,0.011,0.262,0.032,0.596c1.114-3.206,2.165-6.229,3.237-9.314
			C88.912,75.85,88.627,75.75,88.188,75.595z M133.547,270.098c-1.548-1.357-4.665-1.783-8.549-1.275
			C127.876,269.877,130.636,269.451,133.547,270.098z M59.138,97.365c-0.508,0.708-0.558,3.278-0.104,5.681
			c0.112-0.094,0.27-0.158,0.302-0.262c0.399-1.284,0.78-2.574,1.174-3.891C59.357,99.016,59.357,99.016,59.138,97.365z
			 M61.17,200.531c-0.106,0.52-0.448,1.149-0.281,1.586c0.338,0.887,0.95,1.668,1.468,2.523c0.427-0.977,0.444-1.964,0.204-3.176
			C62.418,200.741,62.026,200.49,61.17,200.531z M117.789,160.024c0.49-1.855,0.94-3.555,1.454-5.496
			c-1.075,1.224-2.742,4.612-2.534,5.102C116.996,159.734,117.327,159.855,117.789,160.024z M90.084,180.775
			c0.611-2.2,1.454-4.368,1.688-6.781C90.538,174.897,90.282,175.898,90.084,180.775z M71.543,81.898
			c0.066,0.024,0.133,0.049,0.199,0.074c0.494-0.89,1.089-1.742,1.455-2.682c0.356-0.915,1.133-1.684,1.137-2.778
			c-0.702,0.014-0.934,0.4-1.127,0.903c-0.467,1.217-0.987,2.413-1.468,3.625C71.633,81.31,71.606,81.611,71.543,81.898z
			 M91.646,80.92c-0.687,2.148-1.361,4.278-1.347,6.545C91.108,85.353,91.381,83.126,91.646,80.92z M100.744,197.02
			c0.022-0.074,0.045-0.148,0.066-0.222c-1.024-0.484-2.05-0.968-3.338-1.575c0.164,0.755,0.271,1.251,0.391,1.797
			C98.869,197.02,99.807,197.02,100.744,197.02z M113.343,159.168c-0.53,1.036-0.966,1.887-1.469,2.87
			c0.483,0.093,0.806,0.155,1.202,0.231C113.221,161.252,114.339,160.453,113.343,159.168z M86.637,89.575
			c0.114-0.042,0.228-0.083,0.342-0.125c0.369-1.888,0.738-3.775,1.108-5.664c-0.671,1.741-1.179,3.528-1.66,5.322
			C86.393,89.236,86.563,89.418,86.637,89.575z M94.105,164.236c0.27-0.729,0.5-1.307,0.692-1.898
			c0.093-0.285,0.114-0.594,0.169-0.891c-0.066-0.041-0.132-0.081-0.198-0.121c-0.633,0.707-1.267,1.413-1.939,2.166
			C93.295,163.763,93.629,163.958,94.105,164.236z M98.574,159.412c1.154,0.022,3.4-2.337,3.939-3.972
			C101.179,156.786,99.934,158.041,98.574,159.412z M79.716,89.726c-1.103,1.937-1.085,2.159,0.2,2.673
			C80.172,91.517,80.657,90.651,79.716,89.726z M125.472,158.196c-0.269,1.004-0.947,1.869-0.558,3.083
			C126.254,159.809,126.785,159.692,125.472,158.196z M115.45,155.427c-0.719,1.054-1.474,2.115-1.852,3.583
			C114.531,158.538,114.911,157.774,115.45,155.427z M94.741,76.638c-0.309-0.275-0.561-0.498-0.841-0.747
			c-0.257,0.829-0.778,1.523-0.293,2.475C93.975,77.806,94.307,77.301,94.741,76.638z M90.037,91.069
			c0.07-0.06,0.141-0.12,0.212-0.181c-0.396-0.67,0.536-1.576-0.524-2.293c-0.21,0.773-0.384,1.409-0.575,2.114
			C89.495,90.85,89.766,90.959,90.037,91.069z M107.171,163.235c0.418,0.121,0.727,0.211,1.133,0.329
			c-0.01-0.669,0.658-1.186-0.055-1.921C107.873,162.198,107.557,162.667,107.171,163.235z M73.739,90.355
			c0.134-0.03,0.27-0.06,0.404-0.09c-0.167-0.772-0.333-1.544-0.499-2.317c-0.118,0.022-0.237,0.045-0.355,0.067
			C73.141,88.844,73.303,89.622,73.739,90.355z M119.094,152.174c-0.437-0.304-0.823-0.501-1.035,0.047
			c-0.187,0.484-0.221,1.027-0.321,1.544c0.06,0.009,0.119,0.018,0.18,0.027C118.299,153.268,118.682,152.742,119.094,152.174z
			 M115.089,151.421c-0.178,0.63-0.346,1.228-0.515,1.824c0.066,0.021,0.134,0.043,0.201,0.064c0.487-0.599,0.977-1.197,1.54-1.888
			C115.824,151.421,115.475,151.421,115.089,151.421z M103.283,162.724c-0.233,0.3-0.418,0.536-0.64,0.82
			c0.336,0.29,0.628,0.542,0.924,0.797C104.2,163.465,104.2,163.465,103.283,162.724z M66.376,89.23
			c0.518-0.752,0.995-1.445,1.472-2.138C66.223,88.015,65.936,88.439,66.376,89.23z M89.148,169.192
			c-1.752,1.101-1.79,1.151-1.792,2.245C87.996,170.636,88.572,169.914,89.148,169.192z M72.452,83.393
			c0.372-0.947,0.743-1.894,1.114-2.84C73.03,81.436,72.001,82.127,72.452,83.393z M82.629,94.18
			c0.091-0.111,0.183-0.222,0.275-0.333c-0.297-0.377-0.594-0.756-1.001-1.274c-0.214,0.48-0.343,0.771-0.52,1.168
			C81.864,93.91,82.246,94.045,82.629,94.18z M108.217,271.637c0.795,1.281,1.045,1.293,1.671,0.232
			C109.373,271.797,108.912,271.734,108.217,271.637z M127.353,174.189c-0.076-0.744-0.135-1.308-0.192-1.873
			C126.611,173.559,126.611,173.559,127.353,174.189z M122.319,162.343c-0.653,0.893-0.653,0.893,0.228,1.435
			C122.75,163.25,122.903,162.748,122.319,162.343z M83.671,89.066c-0.146-0.032-0.293-0.064-0.439-0.096
			c0.001,0.567-0.814,1.029,0.055,1.833C83.432,90.146,83.551,89.606,83.671,89.066z M90.78,78.534
			c0.367-0.798,0.633-1.378,0.917-1.995C91.004,76.595,91.004,76.595,90.78,78.534z M112.016,152.838
			c0.338-0.428,0.676-0.855,1.087-1.376C111.84,151.348,112.221,152.311,112.016,152.838z M108.707,160.994
			c0.704-0.14,0.646-0.672,0.666-1.165C109.151,160.217,108.929,160.605,108.707,160.994z M84.938,83.862
			c-0.046-0.011-0.092-0.022-0.138-0.033c-0.107,0.409-0.215,0.817-0.322,1.225c0.052,0.011,0.104,0.023,0.156,0.035
			C84.735,84.68,84.836,84.271,84.938,83.862z M85.816,80.071c0.056,0.031,0.112,0.062,0.168,0.092
			c0.115-0.397,0.231-0.794,0.347-1.191c-0.054-0.016-0.108-0.032-0.163-0.048C86.051,79.307,85.934,79.689,85.816,80.071z
			 M97.987,160.574c0.155,0.003,0.312,0.005,0.467,0.007c-0.014-0.254-0.019-0.51-0.056-0.761c-0.003-0.017-0.35-0.017-0.354,0.005
			C98.005,160.071,98.001,160.323,97.987,160.574z M98.547,82.36c-0.093,0.045-0.186,0.091-0.277,0.136
			c0.125,0.234,0.251,0.468,0.377,0.701c0.072-0.035,0.145-0.07,0.216-0.106C98.758,82.847,98.652,82.604,98.547,82.36z
			 M81.968,88.345c0.076,0.01,0.153,0.021,0.229,0.032c0.066-0.259,0.133-0.518,0.199-0.777c-0.081-0.016-0.162-0.031-0.243-0.046
			C82.091,87.817,82.029,88.082,81.968,88.345z"/>
		<path fill="#272361" d="M188.005,164.697c0.081,0.989,0.135,2.102,0.271,3.204c0.641,5.159,1.327,10.312,1.952,15.474
			c0.806,6.644,1.667,13.283,3.165,19.81c1.029,4.474,1.078,9.056,1.83,13.552c0.44,2.629,0.827,5.265,1.237,7.897
			c0.049,0.313,0.127,0.625,0.129,0.938c0.009,1.248-0.486,1.694-1.711,1.579c-1.579-0.149-2.968,1.187-2.911,2.806
			c0.29,8.271,0.597,16.541,0.86,24.812c0.058,1.81-0.042,3.62-0.051,5.431c-0.006,1.238,0.087,1.408,1.274,1.705
			c2.277,0.572,4.281,1.668,6.171,3.021c0.788,0.566,1.613,1.076,2.452,1.631c-0.203,0.523-0.261,0.973-0.514,1.238
			c-0.234,0.246-0.729,0.477-1.016,0.393c-0.716-0.207-1.329,0.043-1.979,0.186c-1.857,0.408-3.725,0.822-5.628,0.342
			c-3.201-0.811-5.927-2.43-8.029-4.994c-0.455-0.557-0.995-1.258-0.259-2.051c0.099-0.105,0.139-0.313,0.125-0.465
			c-0.154-1.742-0.36-3.482-0.482-5.228c-0.442-6.315-0.885-12.63-1.263-18.949c-0.09-1.482,0.063-2.981,0.109-4.473
			c0.015-0.487,0.048-0.975,0.08-1.61c-2.792,0.173-5.037-0.558-6.083-3.565c-0.366,0.499-0.602,0.862-0.88,1.19
			c-0.554,0.651-1.059,1.374-1.716,1.903c-1.54,1.241-3.386,0.822-4.347-0.905c-0.193-0.348-0.351-0.717-0.59-1.211
			c-0.487,0.643-0.873,1.232-1.343,1.746c-0.45,0.496-0.985,0.914-1.338,1.235c-0.165,1.892-0.344,3.637-0.466,5.386
			c-0.153,2.208-0.397,4.421-0.358,6.627c0.063,3.497-0.295,6.952-0.605,10.42c-0.352,3.916-0.569,7.84-0.376,11.775
			c0.024,0.516-0.172,1.064-0.366,1.559c-0.226,0.574-0.666,1.049-0.566,1.76c0.03,0.209-0.291,0.545-0.529,0.707
			c-1.722,1.164-3.468,2.291-5.197,3.447c-1.152,0.771-2.483,0.824-3.777,0.865c-1.403,0.045-2.088-1.129-1.313-2.314
			c0.684-1.043,1.584-1.961,2.477-2.846c0.604-0.6,1.316-1.123,2.059-1.541c0.868-0.484,1.178-1.148,1.133-2.1
			c-0.115-2.438-0.177-4.879-0.292-7.316c-0.206-4.387-0.144-8.764,0.261-13.139c0.37-4.007,0.699-8.018,1.022-12.027
			c0.062-0.758,0.009-1.523,0.009-2.365c-0.378,0.053-0.688,0.16-0.977,0.12c-0.655-0.087-1.42-0.072-1.928-0.413
			c-1.661-1.115-2.785-2.604-2.416-4.773c0.456-2.673,0.914-5.346,1.438-8.006c0.716-3.636,1.525-7.254,2.221-10.895
			c0.183-0.958,0.024-1.977,0.134-2.955c0.312-2.785,0.702-5.562,1.016-8.346c0.126-1.121,0.083-2.261,0.204-3.383
			c0.303-2.784,0.612-5.568,0.998-8.342c0.724-5.195,1.729-10.335,3.218-15.373c0.305-1.03,0.68-2.039,1.267-3.036
			c0.013,0.176,0.062,0.356,0.034,0.524c-0.468,2.945-0.933,5.891-1.425,8.833c-1.164,6.956-2.208,13.918-2.357,20.997
			c-0.058,2.697-0.469,5.4-0.899,8.07c-1.059,6.554-2.229,13.089-3.337,19.634c-0.136,0.801-0.119,1.628-0.266,2.426
			c-0.167,0.899,0.177,1.586,0.73,2.217c0.829,0.945,1.515,1.006,2.42,0.169c1.168-1.081,2.177-2.293,2.875-3.742
			c0.168-0.351,0.265-0.894,0.792-0.758c0.584,0.15,0.81,0.601,0.743,1.255c-0.085,0.851-0.063,1.714-0.063,2.573
			c-0.001,0.314,0.05,0.631,0.104,0.942c0.112,0.624,0.433,1.204,1.066,1.244c0.416,0.026,0.949-0.274,1.272-0.59
			c1.115-1.085,1.996-2.346,2.361-3.889c0.133-0.562,0.35-0.938,0.979-0.855c0.59,0.077,0.733,0.45,0.821,1.03
			c0.154,1.021,0.435,2.035,0.771,3.014c0.377,1.094,1.033,1.318,1.802,0.49c1.035-1.114,1.862-2.419,2.796-3.629
			c0.228-0.297,0.504-0.75,0.785-0.771c0.556-0.044,0.711,0.47,0.92,0.964c0.417,0.984,0.878,1.997,1.538,2.824
			c1.157,1.45,3.315,1.271,4.418-0.255c0.803-1.113,1.363-2.342,1.579-3.7c0.078-0.493,0.17-0.915,0.736-0.961
			c0.594-0.048,0.921,0.362,1.088,0.849c0.309,0.895,0.552,1.813,0.829,2.72c0.051,0.167,0.132,0.327,0.256,0.631
			c1.772-0.408,3.113-1.546,4.646-2.324c-0.281-1.979-0.547-3.81-0.8-5.644c-0.309-2.237-0.734-4.468-0.88-6.716
			c-0.241-3.713-0.772-7.376-1.531-11.009c-1.049-5.017-1.399-10.112-1.857-15.201c-0.417-4.638-1.018-9.258-1.495-13.89
			c-0.462-4.496-0.876-8.998-1.294-13.499c-0.057-0.604-0.008-1.216-0.008-1.825c0.112-0.021,0.226-0.04,0.338-0.06
			c0.29,0.872,0.627,1.731,0.858,2.619c0.238,0.913,0.372,1.853,0.567,2.862c3.256,0.603,6.303,0.068,9.121-1.588
			c5.443-3.202,10.159-7.242,13.777-12.461c2.322-3.352,4.532-6.774,5.154-10.943c0.193-1.298,0.072-1.581-1.152-2.014
			c-0.171-0.06-0.349-0.101-0.523-0.147c-0.435-0.118-0.87-0.234-1.396-0.375c-0.107,0.356-0.273,0.681-0.293,1.014
			c-0.103,1.755-0.955,3.188-1.933,4.557c-3.056,4.276-6.854,7.792-11.149,10.79c-1.463,1.022-3.107,1.663-4.836,2.052
			c-2.181,0.491-4.398,0.533-6.61,0.277c-2.789-0.322-4.868-1.805-6.4-4.11c-0.2-0.301-0.385-0.612-0.587-0.912
			c-0.047-0.07-0.136-0.113-0.309-0.249c-0.276,0.633-0.549,1.236-0.804,1.846c-0.756,1.809-2.051,3.059-3.873,3.768
			c-1.321,0.514-2.502,0.251-3.414-0.828c-0.602-0.712-1.128-1.49-1.781-2.363c-0.73,0.98-1.457,1.883-2.105,2.841
			c-2.639,3.891-5.039,7.927-7.381,12.004c-2.317,4.036-4.82,7.964-7.183,11.974c-1.376,2.336-2.625,4.745-3.951,7.11
			c-1.392,2.483-2.788,4.965-4.223,7.424c-0.993,1.699-0.999,3.342,0.15,4.944c0.811,1.132,1.673,2.225,2.679,3.556
			c0.388-0.748,0.665-1.245,0.906-1.758c1.675-3.552,3.353-7.103,5.009-10.663c1.029-2.211,2.007-4.447,3.04-6.657
			c0.946-2.022,2.2-3.839,3.804-5.401c0.12-0.117,0.271-0.204,0.615-0.459c-0.031,0.58,0.018,0.973-0.087,1.323
			c-0.193,0.646-0.435,1.286-0.731,1.891c-1.231,2.515-2.506,5.006-3.736,7.521c-1.489,3.044-2.968,6.095-4.416,9.159
			c-0.83,1.758-1.607,3.54-2.378,5.325c-0.359,0.831-0.764,1.565-1.458,2.221c-0.944,0.89-1.656,2.023-2.5,3.023
			c-0.377,0.447-0.798,0.875-1.265,1.222c-0.874,0.649-1.422,0.414-1.602-0.635c-0.037-0.219-0.024-0.447-0.04-0.787
			c-0.415,0.199-0.743,0.413-1.103,0.517c-0.762,0.22-1.213-0.165-1.152-0.963c0.037-0.488,0.128-0.972,0.215-1.606
			c-0.412,0.067-0.734,0.139-1.062,0.172c-1.175,0.118-1.921-0.63-1.74-1.794c0.09-0.577,0.212-1.181,0.474-1.693
			c0.984-1.922,1.668-4.018,3.187-5.643c0.175-0.186,0.327-0.465,0.349-0.714c0.137-1.543,0.896-2.819,1.652-4.112
			c2.143-3.668,4.181-7.398,6.399-11.017c3.145-5.123,6.415-10.168,9.628-15.249c0.21-0.333,0.388-0.687,0.656-1.166
			c-0.432-0.04-0.725-0.048-1.012-0.095c-0.669-0.109-1.385-0.119-1.992-0.38c-1.2-0.518-2.356-0.844-3.719-0.761
			c-1.288,0.078-2.374-0.785-3.359-1.597c-0.361-0.297-0.678-0.533-1.195-0.483c-1.815,0.174-3.004-0.837-3.854-2.267
			c-1.747-2.941-2.26-6.167-1.979-9.537c0.223-2.676,0.979-5.237,1.744-7.794c0.205-0.683,0.476-1.341,0.254-2.113
			c-0.113-0.399-0.012-0.928,0.156-1.328c0.45-1.069,0.25-2.126,0.108-3.202c-0.607-4.619-1.196-9.239-0.938-13.919
			c0.143-2.587,0.545-5.119,1.368-7.581c0.313-0.94,0.512-1.924,0.886-2.838c0.762-1.863,2.019-3.413,3.335-4.909
			c2.332-2.65,4.677-5.31,7.618-7.301c1.625-1.1,2.925-2.519,4.376-3.792c1.3-1.14,2.681-2.175,4.475-2.382
			c0.53-0.062,1.091-0.049,1.609,0.062c0.271,0.058,0.479,0.405,0.819,0.715c1.227-0.102,2.618-0.29,4.014-0.321
			c5.625-0.124,11.086,0.735,16.278,2.974c2.504,1.08,4.703,2.628,5.943,5.12c1.405,2.823,2.944,5.606,3.76,8.688
			c0.401,1.519,0.74,3.055,1.129,4.578c0.208,0.813,0.22,1.695,0.877,2.362c0.148,0.15,0.194,0.55,0.107,0.757
			c-0.315,0.739,0.004,1.274,0.376,1.879c1.069,1.738,1.402,3.709,1.575,5.695c0.489,5.619,0.244,11.206-0.977,16.723
			c-0.545,2.462-1.219,4.896-1.885,7.539c0.346-0.217,0.59-0.342,0.805-0.508c3.104-2.415,5.584-5.38,7.7-8.674
			c0.675-1.048,0.767-2.194,0.746-3.376c-0.003-0.223-0.18-0.5-0.097-0.657c0.788-1.483-0.062-3.004,0.138-4.496
			c0.042-0.312-0.018-0.642,0.053-0.944c0.186-0.804,0.419-1.618,1.329-1.896c0.849-0.258,1.148,0.519,1.693,1.014
			c0.279-0.581,0.514-1.158,0.822-1.691c0.396-0.684,0.723-1.649,1.716-1.433c0.844,0.184,0.8,1.087,0.79,1.876
			c0.185-0.02,0.306-0.014,0.415-0.046c1.223-0.356,1.742-0.031,2.017,1.208c0.392,1.772,0.001,3.405-0.82,4.971
			c-0.209,0.4-0.396,0.818-0.652,1.186c-0.37,0.53-0.364,1.016-0.189,1.644c0.365,1.315-0.16,2.59-0.449,3.854
			c-1.108,4.852-3.95,8.763-6.905,12.614c-3.53,4.603-8.124,7.938-13.013,10.908c-1.635,0.994-3.447,1.575-5.374,1.731
			C190.701,164.508,189.413,164.594,188.005,164.697z M186.427,114.116c-2.05,1.195-3.534-0.25-5.166-0.601
			c-0.657,0.762-1.501,1.158-2.482,1.236c-1.144,0.092-2.239-0.092-3.312-0.537c-0.739-0.307-1.551-0.43-2.304-0.708
			c-0.921-0.34-1.877-0.653-2.707-1.16c-1.598-0.974-2.558-2.519-3.341-4.175c-0.276-0.585-0.531-1.18-0.808-1.795
			c-0.815,1.903-1.447,3.797-2.409,5.507c-0.947,1.683-2.115,3.29-3.999,4.158c0.846-2.301,1.926-4.476,2.727-6.75
			c0.813-2.308,1.35-4.713,2.006-7.075c-0.098-0.045-0.196-0.09-0.295-0.135c-1.321,1.292-2.793,2.462-3.401,4.372
			c0.572,0.445,0.582,1.05,0.38,1.691c-0.395,1.247-0.802,2.49-1.201,3.736c-1.17,3.655-2.35,7.308-3.497,10.971
			c-0.157,0.502-0.156,1.056-0.223,1.586c-0.04,0.329,0.025,0.709-0.118,0.979c-0.965,1.793-1.347,3.737-1.486,5.73
			c-0.046,0.651,0.022,1.388,0.291,1.968c0.813,1.757,1.663,3.508,2.66,5.166c1.295,2.152,3.26,3.667,5.542,4.59
			c2.55,1.031,5.229,1.752,7.977,2.081c2.479,0.296,4.955,0.208,7.382-0.476c1.868-0.526,3.737-1.051,5.606-1.571
			c2.551-0.709,4.357-2.486,6.152-4.28c0.092-0.091,0.145-0.229,0.196-0.354c1.082-2.628,2.17-5.254,3.234-7.89
			c0.148-0.369,0.337-0.838,0.23-1.174c-0.365-1.153,0.088-2.128,0.478-3.141c0.136-0.354,0.212-0.731,0.324-1.131
			c-0.216,0.017-0.303,0.015-0.386,0.03c-1.218,0.212-1.531-0.111-1.185-1.247c0.119-0.388,0.334-0.752,0.406-1.146
			c0.066-0.369,0.133-0.83-0.025-1.134c-0.897-1.722-1.798-3.447-2.821-5.095c-0.938-1.512-2.202-2.771-3.768-3.64
			c-0.512-0.284-1.263-0.135-1.775-0.417c-0.547-0.3-0.888-0.959-1.419-1.312c-0.662-0.439-1.427-0.723-2.2-1.101
			c-0.23,0.37-0.404,0.652-0.578,0.933C182.85,111.9,184.868,112.361,186.427,114.116z M184.567,230.805
			c0.371,4.755,0.717,9.616,1.14,14.473c0.426,4.892,0.926,9.777,1.384,14.563c1.799,0.793,1.978,0.803,3.532,0.262
			c0.237-1.354-0.395-28.827-0.713-30.336c-1.212-0.015-2.375-0.273-3.122-1.396C186.065,229.162,185.406,229.886,184.567,230.805z
			 M163.085,227.871c-0.69,0.767-1.32,1.116-1.229,2.018c0.364,3.621-0.181,7.208-0.45,10.807
			c-0.252,3.379-0.498,6.762-0.565,10.146c-0.062,3.114,0.103,6.234,0.196,9.348c0.046,1.479,0.161,2.953,0.252,4.555
			c1.078-0.301,2.021-0.566,3.119-0.875c0-0.68-0.023-1.352,0.004-2.021c0.106-2.568,0.182-5.143,0.357-7.708
			c0.217-3.153,0.62-6.29,0.455-9.465c-0.147-2.799-0.019-5.592,0.409-8.374c0.239-1.55,0.327-3.124,0.491-4.762
			C164.331,231.09,163.308,229.953,163.085,227.871z M161.849,161.807c0.089-0.115,0.203-0.249,0.299-0.395
			c1.371-2.071,2.683-4.184,4.123-6.206c1.279-1.794,2.377-3.741,4.09-5.203c0.145-0.124,0.234-0.382,0.243-0.583
			c0.03-0.67,0.012-1.341,0.012-2.128c-1.105-0.22-2.1-0.418-3.091-0.615c-0.66,1.526-1.266,2.924-1.863,4.305
			c0.617,0.797,0.633,0.921,0.315,1.833c-0.615,1.77-1.898,3.139-2.828,4.719c-0.065,0.113-0.191,0.19-0.291,0.282
			c-0.753,0.687-1.374,0.551-1.731-0.377c-0.107-0.279-0.219-0.558-0.368-0.94c-0.54,0.405-1.13,0.532-1.132,1.308
			c-0.001,0.692-0.379,1.275-1.091,1.344c-0.688,0.066-1.161-0.409-1.431-1.044c-0.42-0.997-0.842-1.993-1.26-2.991
			c-0.197-0.47-0.388-0.942-0.582-1.414c-0.028,1.173,0.121,2.298,0.121,3.423c-0.001,0.875,0.32,1.482,1.052,1.89
			c1.021,0.57,2.049,1.129,3.086,1.669C160.238,161.056,160.977,161.388,161.849,161.807z M181.788,98.443
			c0.055,0.018,0.11,0.035,0.165,0.052c0.591-0.852,1.152-1.725,1.781-2.546c0.551-0.718,1.207-0.979,1.598-0.696
			c0.598,0.433,0.452,1.065,0.271,1.611c-0.455,1.37-0.975,2.719-1.48,4.073c-0.182,0.488-0.399,0.964-0.601,1.446
			c0.081,0.039,0.16,0.078,0.241,0.117c0.454-0.713,0.853-1.471,1.375-2.131c0.808-1.021,1.688-1.986,2.562-2.954
			c0.297-0.33,0.745-0.475,1.09-0.148c0.259,0.247,0.444,0.645,0.511,1.003c0.063,0.337-0.033,0.724-0.128,1.069
			c-0.241,0.871-0.522,1.73-0.785,2.595c-0.656,2.16-1.318,4.318-1.959,6.483c-0.11,0.375-0.121,0.781-0.18,1.173
			c0.099,0.019,0.198,0.039,0.297,0.059c1.573-3.918,2.661-8.081,5.674-11.308c-2.534-2.409-5.495-3.66-8.775-4.267
			c-0.315,0.828-0.587,1.536-0.855,2.246C182.319,97.027,182.054,97.735,181.788,98.443z M143.133,196.283
			c-2.773,4.528-3.052,5.192-2.702,6.571c1.492-0.227,2.073-1.562,2.956-2.552c0.65,0.453,0.551,0.926,0.321,1.466
			c-0.396,0.936-0.866,1.857-0.856,3.22c0.677-0.758,1.188-1.314,1.679-1.887c0.23-0.269,0.43-0.728,0.827-0.41
			c0.195,0.157,0.234,0.629,0.193,0.938c-0.099,0.725-0.287,1.436-0.474,2.312c1.428-1.171,2.442-2.486,2.757-3.397
			C146.233,200.411,144.694,198.363,143.133,196.283z M175.586,107.277c0.32-0.199,0.755-0.311,0.89-0.575
			c1.707-3.337,3.377-6.694,5.038-10.054c0.228-0.461,0.354-0.971,0.529-1.458c-2.074,2.129-3.379,4.695-4.756,7.213
			c-1.404,2.568-2.786,5.149-4.205,7.776c1.933,2.28,4.508,2.964,7.328,3.171c-0.008-0.124,0.006-0.195-0.017-0.21
			c-1.191-0.798-2.384-1.591-3.599-2.399c-0.107,0.086-0.196,0.211-0.309,0.238c-0.32,0.078-0.739,0.259-0.951,0.128
			c-0.196-0.122-0.259-0.598-0.239-0.91C175.356,109.228,175.483,108.263,175.586,107.277z M172.153,147.636
			c-0.082,1.543,0.173,2.912,1.209,4.06c0.818,0.909,1.412,1.004,2.496,0.489c2.16-1.026,2.701-3.048,3.302-5.08
			C176.813,147.283,174.546,147.454,172.153,147.636z M192.412,151.652c2.826-0.187,5.034-1.323,7.048-2.912
			c0.186-0.145,0.353-0.459,0.34-0.683c-0.124-2.166,0.549-4.2,0.974-6.275c0.099-0.482,0.084-0.987,0.123-1.481
			c-0.751,0.911-1.207,1.889-1.758,2.81c-1.367,2.284-2.757,4.556-4.188,6.8c-0.288,0.451-0.8,0.759-1.415,1.322
			c0-0.753,0-1.167,0-1.909C193.088,150.254,192.783,150.883,192.412,151.652z M212.359,127.997c-0.127,0.017-0.253,0.033-0.38,0.05
			c-0.488,1.376-0.337,2.795-0.075,4.204c0.032,0.18,0.382,0.351,0.617,0.434c1.136,0.401,2.282,0.772,3.384,1.14
			c1.965-2.667,2.533-4.391,1.973-6.111c-0.553,0.65-1.061,1.248-1.566,1.843c-1.445-0.47-0.141-1.84-0.996-2.571
			c-0.215,0.592-0.4,1.094-0.579,1.6c-0.224,0.638-0.412,1.292-0.679,1.911c-0.087,0.2-0.385,0.439-0.574,0.429
			c-0.212-0.012-0.477-0.248-0.596-0.456c-0.126-0.219-0.097-0.524-0.152-0.787C212.615,129.12,212.485,128.559,212.359,127.997z
			 M160.474,151.994c0.77-0.908,0.924-1.662,0.703-2.593c-0.231-0.982-0.334-2.021,0.246-3.142c0.38,0.608,0.69,1.105,1.068,1.711
			c0.479-0.909,0.868-1.646,1.315-2.497c-2.606-0.741-4.471-2.471-6.595-4.318c0.342,1.782,0.626,3.26,0.928,4.831
			c0.202-0.431,0.36-0.769,0.519-1.107c0.078,0.003,0.157,0.005,0.236,0.008C159.406,147.188,159.917,149.489,160.474,151.994z
			 M157.027,100.142c0.083,0.089,0.166,0.178,0.249,0.267c0.879-0.686,1.768-1.358,2.634-2.06c1.222-0.989,2.415-2.014,3.645-2.994
			c0.585-0.468,1.251-0.736,2.167-0.498c-2.343,1.92-4.547,3.729-6.751,5.536c0.056,0.073,0.113,0.146,0.169,0.22
			c1.241-0.799,2.476-1.607,3.727-2.391c0.494-0.31,1.044-0.826,1.534-0.789c1.129,0.086,1.54-0.672,2.119-1.329
			c0.685-0.776,1.422-1.507,2.139-2.255c0.301-0.314,0.608-0.62,0.913-0.93c-0.036-0.084-0.073-0.168-0.109-0.252
			c-0.908,0.154-1.834,0.237-2.719,0.475c-2.257,0.606-4.001,2.196-5.943,3.366C159.342,97.386,158.271,98.907,157.027,100.142z
			 M147.762,119.487c0.573-0.804,1.147-1.608,1.728-2.42c-1.062-0.662-1.12-0.746-0.681-1.645c0.254-0.52,0.605-1.005,0.976-1.456
			c0.981-1.199,1.997-2.371,3-3.553c-0.342-0.021-0.569,0.098-0.797,0.219c-0.431,0.226-0.861,0.306-1.257-0.056
			c-0.464-0.425-0.184-0.863,0.085-1.204c0.553-0.701,1.125-1.4,1.776-2.008c0.938-0.875,1.954-1.667,2.937-2.496
			c-0.417-0.025-0.7,0.149-0.995,0.304c-0.792,0.417-1.557,0.92-2.395,1.21c-0.703,0.244-1.188,0.613-1.467,1.267
			c-0.691,1.617-1.462,3.208-2.025,4.869C147.896,114.728,147.561,117.03,147.762,119.487z M187.982,99.234
			c-2.932,2.802-4.127,6.559-6.004,10.169c1.045,0.191,1.908,0.349,2.697,0.493C185.806,106.253,186.895,102.744,187.982,99.234z
			 M192.527,100.149c-2.737,3.086-3.501,7.086-5.111,10.753c0.698,0.425,1.29,0.786,2.04,1.243
			C189.583,107.748,191.466,104.08,192.527,100.149z M188.74,143.106c-0.744,0.514-1.416,1.124-2.202,1.484
			c-1.057,0.485-2.2,0.782-3.31,1.153c-0.556,0.186-1.13,0.323-1.669,0.548c-0.564,0.237-0.82,0.833-0.495,1.175
			c0.658,0.691,1.388,1.315,1.952,1.84c0.471-0.702,0.804-1.381,1.307-1.892c0.46-0.466,1.104-0.753,1.669-1.113
			c0.68-0.432,1.369-0.849,2.046-1.287C188.722,144.573,188.931,143.938,188.74,143.106z M174.883,94.638
			c-0.09-0.071-0.18-0.141-0.269-0.211c-0.449,0.554-0.938,1.083-1.341,1.667c-1.664,2.408-3.303,4.834-4.952,7.252
			c-0.776,1.14-0.771,1.298,0.256,2.802c0.173-0.793,0.306-1.406,0.43-1.976c0.222-0.054,0.532-0.035,0.619-0.164
			C171.614,101.015,173.373,97.895,174.883,94.638z M171.478,108.16c0.365-0.855,0.64-1.618,1.005-2.334
			c1.431-2.808,2.903-5.594,4.33-8.405c0.379-0.747,0.926-1.452,0.839-2.391c-0.586,0.693-1.134,1.407-1.571,2.182
			c-1.685,2.979-3.333,5.979-5.002,8.965C170.572,107.083,170.561,107.076,171.478,108.16z M154.184,121.081
			c-0.079-0.056-0.158-0.111-0.238-0.167c-0.165,0.203-0.341,0.397-0.492,0.61c-1.589,2.237-3.156,4.489-4.768,6.709
			c-0.696,0.958-0.755,1.865-0.003,3.051C150.53,127.857,152.356,124.469,154.184,121.081z M179.226,110.014
			c0.779-4.125,2.846-7.458,4.145-11.089c-2.155,3.269-4.015,6.683-5.657,10.301C178.219,109.489,178.635,109.706,179.226,110.014z
			 M153.14,158.517c-0.327-1.074-0.761-2.074-0.916-3.114c-0.204-1.377-0.179-2.788-0.276-4.181
			c-0.038-0.537,0.098-1.148-0.44-1.572c-0.111,0.123-0.206,0.177-0.217,0.245c-0.276,1.784-0.552,3.568-0.808,5.356
			c-0.036,0.256-0.072,0.6,0.061,0.778C151.283,157.026,151.904,158.173,153.14,158.517z M153.773,116.247
			c-0.037-0.037-0.074-0.073-0.111-0.109c-0.17,0.178-0.35,0.348-0.509,0.536c-1.635,1.923-3.251,3.862-4.902,5.771
			c-0.886,1.022-0.99,1.606-0.372,2.975C149.847,122.356,151.811,119.301,153.773,116.247z M199.875,128.769
			c-3.398,3.402-4.62,5.379-4.18,8.044C197.16,134.046,198.876,131.597,199.875,128.769z M191.837,147.468
			c-1.091,1.448-2.148,2.853-3.351,4.448c1.123-0.184,2.275,0.454,2.84-0.633C191.911,150.159,193.119,149.008,191.837,147.468z
			 M201.833,126.876c0-1.563,0-2.974,0-4.385c-0.081-0.027-0.162-0.054-0.244-0.081c-1.235,2.009-2.471,4.019-3.707,6.028
			c0.671-0.444,1.205-0.983,1.771-1.486C200.41,126.28,200.7,126.269,201.833,126.876z M188.405,147.223
			c-1.632,1.03-2.774,2.437-4.539,3.146c0.905,0.434,1.811,0.868,2.784,1.335C187.251,150.171,187.793,148.787,188.405,147.223z
			 M146.593,150.712c0.011,1.348,0.36,2.519,1.021,3.861c0.267-1.868,0.521-3.469,1.388-4.945c0.429-0.73,0.425-1.714,0.616-2.583
			c-0.548,0.686-0.847,1.435-1.16,2.179C148.115,150.037,147.702,150.777,146.593,150.712z M191.365,107.903
			c0.061,0.012,0.121,0.022,0.182,0.034c0.989-1.806,1.959-3.622,2.975-5.413c0.623-1.102,0.603-1.274-0.603-2.077
			C193.065,102.938,192.215,105.421,191.365,107.903z M195.651,103.447c-0.104-0.066-0.211-0.132-0.316-0.199
			c-0.119,0.184-0.266,0.355-0.353,0.552c-0.911,2.053-1.829,4.103-2.709,6.169c-0.481,1.129-0.73,2.367-1.701,3.283
			c0.233,0.182,0.396,0.31,0.629,0.491C192.716,110.238,194.185,106.842,195.651,103.447z M154.835,137.059
			c-0.539,3.161-0.132,5.686,1.113,7.445c0-0.172-0.003-0.301,0.001-0.429c0.038-1.495-0.763-2.991,0.016-4.491
			c0.061-0.118-0.049-0.35-0.125-0.507C155.555,138.478,155.25,137.888,154.835,137.059z M180.051,93.367
			c-0.731,1.759-1.413,3.398-2.094,5.037c0.039,0.022,0.08,0.044,0.119,0.066c1.13-1.583,2.259-3.166,3.451-4.836
			C180.971,93.534,180.54,93.456,180.051,93.367z M195.986,117.346c1.329-1.82,2.621-4.678,2.545-5.78
			c-0.85,1.423-1.629,2.884-2.39,4.355c-0.142,0.275-0.232,0.583-0.306,0.884C195.81,116.916,195.901,117.055,195.986,117.346z
			 M196.931,107.9c-0.091-0.074-0.182-0.147-0.272-0.221c-1.075,1.556-1.869,3.267-2.59,5.013c-0.066,0.158,0.077,0.401,0.124,0.605
			c0.081,0.015,0.162,0.03,0.244,0.046C195.268,111.528,196.1,109.714,196.931,107.9z M163.995,266.707
			c-1.931,0.586-3.497,1.715-4.81,3.219C160.793,268.855,162.698,268.246,163.995,266.707z M153.01,119.718
			c0.089,0.055,0.178,0.109,0.267,0.164c1.093-1.36,2.803-2.334,2.729-4.744C154.909,116.814,153.96,118.266,153.01,119.718z
			 M156.726,149.304c-0.107,0.022-0.216,0.046-0.322,0.069c0.192,1.927,0.501,3.831,1.427,5.6
			C157.462,153.083,157.094,151.194,156.726,149.304z M201.226,135.463c-0.074-0.03-0.15-0.06-0.226-0.09
			c-0.411,0.825-0.823,1.651-1.262,2.529c0.459,0.22,0.764,0.367,1.157,0.556c0.094-0.619,0.188-1.142,0.249-1.669
			C201.193,136.349,201.2,135.905,201.226,135.463z M195.982,113.04c1.898-2.266,2.317-3.245,1.902-4.163
			C197.225,110.32,196.604,111.68,195.982,113.04z M191.143,141.57c1.247-0.391,1.641-1.318,1.423-3.103
			C192.011,139.675,191.577,140.622,191.143,141.57z M190.599,263.984c0.093-0.107,0.187-0.219,0.279-0.326
			c-0.116-0.195-0.184-0.459-0.354-0.572c-0.778-0.518-1.622-0.83-2.888-0.602C188.782,263.064,189.69,263.523,190.599,263.984z
			 M197.874,116.988c0.105,0.048,0.212,0.097,0.317,0.146c0.482-0.906,2.057-1.332,1.129-3.103
			C198.773,115.148,198.324,116.068,197.874,116.988z M201.527,128.523c-0.504,1.158-1.009,2.316-1.515,3.473
			c0.09,0.041,0.181,0.082,0.271,0.122C200.669,130.902,202.206,130.225,201.527,128.523z M174.437,92.642
			c-0.667,0.087-1.245,0.011-1.357,0.204c-0.396,0.684-0.631,1.46-0.927,2.202c0.069,0.034,0.139,0.068,0.208,0.102
			C172.98,94.4,173.601,93.651,174.437,92.642z M193.427,114.781c-0.997,1.052-0.99,1.096,0,1.816
			C193.427,115.978,193.427,115.379,193.427,114.781z M168.897,97.344c-1.873,1.57-1.873,1.57-1.632,2.497
			C167.854,98.942,168.375,98.144,168.897,97.344z M164.136,145.648c-0.226,0.862-0.409,1.568-0.594,2.274
			c0.062,0.029,0.123,0.058,0.184,0.086c0.423-0.645,0.846-1.289,1.335-2.034C164.691,145.845,164.462,145.764,164.136,145.648z
			 M199.257,120.731c0.077,0.067,0.155,0.134,0.234,0.201c0.421-0.628,1.569-0.85,1.038-2.28
			C200.025,119.475,199.641,120.104,199.257,120.731z M152.548,133.402c0.141-0.854,0.244-1.482,0.397-2.411
			C151.898,132.47,151.866,132.634,152.548,133.402z M152.035,127.572c0.08,0.065,0.159,0.131,0.238,0.196
			c0.458-0.75,1.24-1.34,1.084-2.696C152.832,126.066,152.434,126.819,152.035,127.572z M166.984,96.848
			c0.071,0.06,0.144,0.12,0.215,0.179c0.663-0.564,1.194-1.236,1.477-2.116C168.112,95.556,167.549,96.202,166.984,96.848z
			 M196.414,104.542c-0.225,0.597-0.438,1.158-0.731,1.938C196.937,105.414,196.937,105.414,196.414,104.542z M194.216,119.527
			c0.229-0.666,0.172-1.247-0.55-1.632C193.85,118.439,194.032,118.983,194.216,119.527z M171.084,92.892
			c-1.094,0.4-1.517,0.843-1.707,1.542C169.826,94.028,170.386,93.522,171.084,92.892z M148.999,135.554
			c0.076,0.063,0.152,0.126,0.229,0.19c0.274-0.554,0.55-1.108,0.824-1.662c-0.057-0.029-0.113-0.058-0.17-0.086
			C149.587,134.514,149.294,135.034,148.999,135.554z M159.183,108.329c-0.327,0.372-0.654,0.744-0.98,1.115
			C159.112,109.562,159.124,108.924,159.183,108.329z M191.044,146.551c0.1,0.059,0.199,0.118,0.299,0.177
			c0.488-0.347,0.575-0.807,0.259-1.694C191.349,145.722,191.197,146.136,191.044,146.551z M147.165,144.791
			c-0.114-0.055-0.228-0.108-0.342-0.163c-0.093,0.426-0.185,0.853-0.276,1.279c0.09,0.023,0.181,0.047,0.271,0.07
			C146.934,145.582,147.05,145.187,147.165,144.791z M151.834,136.809c0.083,0.024,0.166,0.048,0.249,0.072
			c0.085-0.183,0.211-0.359,0.242-0.551c0.029-0.173-0.046-0.363-0.075-0.545c-0.069-0.001-0.139-0.002-0.208-0.003
			C151.972,136.124,151.903,136.467,151.834,136.809z M161.519,154.72c0.101,0.058,0.201,0.115,0.303,0.172
			c0.194-0.359,0.391-0.718,0.585-1.077c-0.081-0.045-0.162-0.09-0.243-0.135C161.947,154.027,161.732,154.374,161.519,154.72z
			 M151.996,144.939c-0.055,0.002-0.108,0.003-0.163,0.004c0.01,0.2,0.019,0.399,0.027,0.598c0.045-0.014,0.128-0.027,0.129-0.043
			C151.999,145.313,151.996,145.126,151.996,144.939z M176.548,93.55c0.071,0.037,0.142,0.074,0.212,0.111
			c0.103-0.191,0.206-0.382,0.309-0.574c-0.079-0.03-0.218-0.099-0.227-0.085C176.733,93.178,176.643,93.366,176.548,93.55z
			 M169.868,109.176c0.063-0.035,0.125-0.069,0.188-0.103c-0.121-0.234-0.243-0.468-0.364-0.703c-0.07,0.04-0.141,0.078-0.211,0.118
			C169.609,108.718,169.739,108.947,169.868,109.176z"/>
		<path fill="#272361" d="M230.799,245.625c-2.779,2.336-2.779,2.336-5.289,2.137c-0.556,0.992-0.518,2.146-0.644,3.235
			c-0.187,1.614-0.24,3.248-0.297,4.873c-0.063,1.864-0.214,3.698-1.228,5.319c2.018,1.563,1.968,2.598-0.177,3.885
			c-2.599,1.561-5.241,3.051-8.222,3.768c-0.737,0.178-1.523,0.234-2.281,0.201c-0.868-0.041-1.712-0.246-2.017-1.275
			c-0.304-1.023,0.438-1.496,1.048-1.992c0.699-0.568,1.467-1.055,2.216-1.561c1.496-1.012,2.999-2.012,4.465-2.992
			c0.822-4.84,1.652-9.73,2.483-14.618c-0.082-0.052-0.154-0.134-0.231-0.139c-2.56-0.196-3.945-1.857-3.534-4.511
			c0.31-2.004,0.854-3.972,1.31-5.951c1.095-4.758,2.198-9.512,3.297-14.268c0.039-0.171,0.055-0.348,0.069-0.448
			c-0.511-0.097-0.98-0.169-1.441-0.276c-0.652-0.152-1.238-0.683-1.978-0.048c-0.294,0.254-0.799-0.009-0.889-0.519
			c-0.046-0.258-0.009-0.531-0.009-0.876c-0.367,0.188-0.682,0.348-1.105,0.563c-0.395-1.513,0.335-2.732,0.539-4.026
			c0.209-1.336,0.894-2.347,1.944-3.385c-0.517-0.14-0.835-0.259-1.164-0.308c-3.842-0.58-6.933-2.418-9.418-5.4
			c-1.123-1.347-2.432-2.539-3.687-3.77c-0.234-0.229-0.612-0.423-0.931-0.435c-2.44-0.089-4.031-4.022-2.952-5.971
			c0.223-0.401,0.294-0.921,0.318-1.393c0.054-1.025,0.405-1.572,1.38-1.926c0.126-0.046,0.27-0.042,0.395-0.087
			c0.078-0.028,0.139-0.106,0.221-0.173c-0.006-0.122,0.005-0.259-0.021-0.387c-0.245-1.162,0.022-1.917,0.822-2.306
			c0.818-0.398,1.944-0.146,2.537,0.702c0.486,0.698,0.833,1.496,1.235,2.254c0.147,0.279,0.228,0.767,0.425,0.817
			c1.207,0.304,0.974,1.315,1.188,2.142c0.712,2.759,2.598,4.45,5.324,5.663c-0.135-0.416-0.178-0.657-0.284-0.865
			c-0.728-1.415-0.86-2.957-0.827-4.49c0.034-1.52-0.266-2.926-0.722-4.365c-0.831-2.614-0.907-5.337-0.73-8.058
			c0.189-2.901,0.761-5.729,1.729-8.473c1.051-2.978,2.495-5.703,4.813-7.916c0.51-0.487,0.953-1.095,1.269-1.727
			c1.918-3.848,4.755-6.749,8.571-8.757c2.127-1.12,4.233-2.276,6.621-2.679c1.187-0.2,2.43-0.178,3.636-0.096
			c0.62,0.042,1.216,0.435,1.823,0.67c-0.015,0.098-0.029,0.196-0.044,0.294c-0.839,0.167-1.68,0.332-2.52,0.498
			c2.604,0.131,5.085,0.594,7.462,1.595c0.284,0.12,0.613,0.13,0.916,0.206c0.301,0.076,0.649,0.098,0.886,0.268
			c1.423,1.028,2.82,2.091,4.403,3.276c-0.105-0.361-0.159-0.542-0.277-0.945c0.396,0.197,0.7,0.301,0.951,0.479
			c1.654,1.175,2.9,2.729,3.888,4.47c3.508,6.186,4.698,12.883,3.978,19.889c-0.441,4.281-1.639,8.415-3.302,12.405
			c-0.536,1.287-0.898,2.647-1.347,3.973c-0.218,0.641-0.365,1.324-0.69,1.906c-1.139,2.042-0.961,4.277-1.074,6.477
			c-0.027,0.533-0.037,1.082-0.167,1.596c-0.211,0.835-0.854,1.014-1.498,0.441c-0.721-0.641-0.943-1.444-0.881-2.423
			c0.085-1.371,0.021-2.751-0.209-4.171c-0.146,0.683-0.293,1.365-0.434,2.048c-0.027,0.131-0.03,0.27-0.038,0.405
			c-0.168,2.656-0.161,2.651,1.651,5.164c1.592,2.206,3.067,4.48,3.873,7.115c0.304,0.991,0.56,1.997,0.8,2.864
			c0.474,0.322,1.114,0.531,1.204,0.883c0.11,0.428-0.24,0.977-0.4,1.498c2.152,1.777,2.147,4.256,1.969,6.771
			c-0.04,0.571-0.405,1.052-0.987,1.173c-0.573,0.12-0.837,0.437-0.99,0.957c-0.089,0.3-0.238,0.588-0.401,0.858
			c-0.615,1.025-1.535,1.234-2.524,0.579c-0.215-0.144-0.401-0.33-0.622-0.516c-0.276,0.253-0.498,0.473-0.739,0.673
			c-0.463,0.386-0.994,0.452-1.52,0.189c-0.513-0.257-0.861-0.682-0.826-1.297c0.063-1.083,0.156-2.164,0.23-3.246
			c0.016-0.219,0.002-0.439,0.002-0.773c-0.3,0.021-0.552,0.057-0.803,0.057c-0.892-0.002-1.254-0.38-1.497-1.218
			c-0.643-2.203-1.349-4.389-2.116-6.863c-0.293,0.469-0.41,0.726-0.592,0.926c-0.191,0.213-0.454,0.526-0.667,0.513
			c-0.236-0.018-0.568-0.316-0.647-0.561c-0.163-0.502-0.184-1.051-0.481-1.56c0.147,2.292,0.242,4.588,0.457,6.872
			c0.331,3.51,0.799,7.008,1.1,10.521c0.122,1.426-0.021,2.878-0.094,4.316c-0.025,0.48-0.21,0.952-0.353,1.558
			c-0.362-0.228-0.607-0.384-0.929-0.586c-0.801,1.896-2.082,3.039-4.417,2.487c0,0.502-0.045,0.94,0.008,1.367
			c0.524,4.275,0.791,8.554,0.254,12.827c1.248,0.854,2.473,1.682,3.688,2.523c1.036,0.717,1.723,1.713,2.215,2.854
			c0.311,0.723,0.282,1.432-0.281,2.012c-0.519,0.531-1.163,0.572-1.883,0.406c-2.27-0.525-4.388-1.416-6.365-2.621
			c-1.278-0.779-2.143-1.939-2.501-3.418c-0.65-2.691-0.906-5.4-0.475-8.17c0.326-2.098,0.508-4.219,0.743-6.331
			c0.032-0.303,0.004-0.612,0.004-0.919C232.911,247.976,232.477,247.755,230.799,245.625z M240.149,174.983
			c0-0.483,0.007-0.967-0.002-1.451c-0.037-1.946-0.762-3.915,0.259-5.824c0.445-0.833,0.838-1.697,1.202-2.568
			c0.585-1.4,1.127-2.818,1.687-4.229c-0.094-0.049-0.189-0.098-0.283-0.147c-0.342,0.5-0.752,0.965-1.009,1.505
			c-0.969,2.032-1.801,4.133-2.858,6.115c-0.564,1.058-0.622,2.001-0.242,3.061C239.323,172.623,239.733,173.804,240.149,174.983
			c-0.911,0.271-1.787,0.017-2.345-0.95c-0.535-0.924-0.925-1.95-1.241-2.974c-0.271-0.876-0.347-1.813-0.508-2.722
			c-0.095,0.005-0.188,0.011-0.281,0.016c-0.03,2.236-0.663,4.461,0.114,6.704c-0.982,0.15-1.505-0.052-1.832-0.895
			c-0.239-0.618-0.404-1.312-0.395-1.97c0.02-1.351,0.177-2.701,0.281-4.05c0.032-0.422,0.076-0.843,0.122-1.348
			c-1.282,0.66-1.375,0.651-1.46,1.69c-0.105,1.296-0.041,2.605-0.043,3.908c-0.002,0.297,0.025,0.595,0.045,0.966
			c-1.356-0.123-1.482-1.389-2.16-2.105c-1.281,1.294-2.357,2.806-4.636,2.789c0.337-0.447,0.512-0.694,0.7-0.929
			c1.971-2.423,3.952-4.829,4.84-7.924c0.31-1.081,0.771-2.122,1.205-3.163c0.149-0.36,0.384-0.708,0.655-0.99
			c0.335-0.346,0.748-0.617,1.129-0.917c0.3-0.236,0.604-0.465,0.906-0.698c0.069,0.047,0.14,0.093,0.21,0.14
			c-0.143,0.534-0.285,1.067-0.481,1.808c1.535-1.26,2.913-2.392,4.427-3.634c-2.928-0.317-5.663-0.784-8.157,1.005
			c0.614,0,1.229,0,1.871,0c0.016,0.81-0.476,1.243-0.901,1.69c-1.061,1.112-2.08,2.277-3.241,3.275
			c-0.964,0.829-1.204,1.758-0.963,2.981c1.076-0.683,1.572-1.992,2.789-2.536c0.076,0.958-0.186,2.142-0.813,3.269
			c-1.394,2.506-3.138,4.747-5.241,6.7c-0.395,0.366-0.976,0.602-1.229,1.037c-1.245,2.145-2.536,4.28-3.559,6.533
			c-0.647,1.421-0.864,3.029-0.289,4.628c0.73,2.035,1.316,4.129,2.131,6.13c0.452,1.11,1.1,2.216,1.907,3.095
			c3.046,3.313,7.087,4.524,11.392,4.961c2.501,0.254,4.951-0.389,7.369-0.93c1.975-0.442,3.891-1.135,5.836-1.703
			c0.753-0.22,1.011-0.694,1.101-1.476c0.664-5.822,0.716-11.634-0.087-17.448c-0.077-0.564-0.365-0.875-0.726-1.223
			c-1.464-1.407-2.226-3.179-2.483-5.152c-0.176-1.361,0.275-2.631,0.875-4.071c0.157,0.346,0.235,0.488,0.288,0.639
			c0.049,0.14,0.069,0.289,0.104,0.434c0.368-1.655,1.097-3.209,0.916-4.934c-0.342,0.389-0.6,0.805-0.771,1.254
			c-0.527,1.392-1.022,2.797-1.53,4.197c-0.474,1.306-0.692,2.722-1.681,3.739c0.44,1.865,1.379,3.382,2.623,4.772
			c-0.889,0.789-1.638,0.389-2.378-0.066c-0.416-0.258-0.786-0.679-1.232-0.777c-1.285-0.283-2.021-1.091-2.539-2.221
			C240.677,175.305,240.366,175.168,240.149,174.983z M255.471,224.359c-0.671-2.504-1.291-5.012-2.781-7.177
			c-1.716-2.493-3.459-4.968-5.195-7.448c-0.155-0.222-0.324-0.437-0.511-0.634c-1.208-1.27-2.322-2.693-4.333-2.672
			c-0.12,0-0.246-0.094-0.362-0.158c-1.011-0.563-2.021-1.128-2.974-1.66c-0.911,1.019-1.63,1.956-2.486,2.743
			c-1.166,1.066-2.588,1.32-4.039,0.667c-1.373-0.618-1.955-1.818-1.991-3.291c-0.019-0.751-0.003-1.506-0.003-2.354
			c-0.393-0.097-0.82-0.233-1.259-0.304c-0.713-0.112-0.746-0.055-0.703,0.943c0.461,0.041,0.926,0.081,1.56,0.137
			c-0.864,1.286-2.042,1.705-3.256,1.981c-4.552,1.038-8.992,0.511-13.308-1.149c-2.16-0.829-3.958-2.176-5.101-4.248
			c-0.333-0.605-0.551-1.274-0.911-2.125c-0.571,1.102-1.048,2.017-1.521,2.933c-0.526,1.017-0.46,1.868,0.34,2.635
			c1.628,1.566,3.215,3.193,4.975,4.603c2.484,1.988,5.393,2.887,8.601,2.661c1.563-0.11,3.124-0.262,4.783-0.402
			c0.167-0.355,0.354-0.813,0.592-1.244c0.217-0.396,0.314-0.913,0.978-1.155c0,0.492,0.021,0.839-0.003,1.183
			c-0.228,3.077-1.026,6.046-1.725,9.034c-1.729,7.395-3.441,14.793-5.152,22.191c-0.183,0.789-0.356,1.587-0.434,2.392
			c-0.061,0.635,0.022,1.374,0.651,1.677c0.671,0.321,1.202-0.175,1.604-0.689c0.831-1.069,1.672-2.134,2.436-3.249
			c0.31-0.451,0.686-0.682,1.108-0.466c0.292,0.148,0.544,0.588,0.604,0.934c0.091,0.522-0.039,1.079-0.008,1.617
			c0.048,0.808,0.067,1.633,0.258,2.412c0.25,1.017,0.751,1.214,1.721,0.868c1.264-0.452,2.169-1.272,2.631-2.551
			c0.229-0.636,0.417-1.294,0.705-1.903c0.111-0.234,0.46-0.509,0.683-0.496c0.236,0.016,0.512,0.316,0.659,0.559
			c0.131,0.217,0.125,0.521,0.159,0.79c0.086,0.673,0.127,1.354,0.248,2.021c0.212,1.181,1.139,2.025,2.022,1.714
			c1.31-0.465,2.556-1.097,2.937-2.643c0.13-0.526,0.24-1.063,0.44-1.563c0.264-0.661,0.972-0.761,1.359-0.18
			c0.242,0.362,0.362,0.818,0.475,1.25c0.114,0.435,0.063,0.928,0.242,1.325c0.19,0.425,0.487,0.923,0.873,1.112
			c0.796,0.391,3.242-1.445,3.187-2.363c-0.148-2.393-0.237-4.796-0.55-7.17c-0.984-7.507-1.083-15.055-1.177-22.604
			c-0.01-0.83,0.137-1.661,0.212-2.493c0.342,0.262,0.492,0.534,0.543,0.823c0.213,1.246,0.45,2.491,0.573,3.748
			c0.077,0.781,0.412,1.324,0.966,1.841c0.689,0.643,1.345,1.333,1.937,2.066c1.271,1.577,1.896,3.473,2.513,5.367
			c0.431,1.321,0.907,2.631,1.428,4.135C252.364,226.937,253.867,225.69,255.471,224.359z M254.627,196.313
			c0.223-0.721,0.428-1.317,0.593-1.925c0.262-0.957,0.401-1.959,0.759-2.877c1.534-3.953,1.925-8.051,1.683-12.239
			c-0.012-0.221-0.11-0.437-0.168-0.654c-0.263,0.269-0.327,0.522-0.394,0.776c-0.682,2.625-1.449,5.214-2.846,7.576
			c-0.234,0.397-0.258,0.94-0.312,1.423c-0.356,3.138-0.694,6.277-1.037,9.416c-0.036,0.334-0.062,0.668-0.092,1.002
			c0.059,0.012,0.118,0.023,0.177,0.036c0.29-1.017,0.579-2.033,0.889-3.118C254.146,195.938,254.311,196.067,254.627,196.313z
			 M223.618,244.452c-1.109,0.686-1.614,1.548-1.687,2.79c-0.086,1.48-0.41,2.944-0.599,4.42c-0.337,2.635-0.648,5.273-0.973,7.912
			c-0.051,0.416-0.075,0.814,0.416,1.021c0.53,0.223,0.839-0.059,1.145-0.434c0.778-0.961,0.945-2.088,1.035-3.279
			c0.239-3.188,0.498-6.377,0.856-9.553C223.922,246.366,223.986,245.461,223.618,244.452z M238.029,246.324
			c-0.845,0.423-1.374,0.913-1.246,1.974c0.123,1.025,0.127,2.078,0.058,3.11c-0.122,1.846-0.352,3.686-0.511,5.531
			c-0.065,0.764-0.102,1.533-0.083,2.299c0.03,1.213,0.535,1.623,1.716,1.469c0.217-0.029,0.428-0.107,0.612-0.154
			C239.429,258.219,238.488,250.191,238.029,246.324z M258.042,230.948c-0.11-1.739-0.146-3.361-1.985-4.269
			c-0.621,0.477-1.194,0.99-1.835,1.396c-1.426,0.905-2.092,2.087-1.772,3.822c0.156,0.848,0.068,1.739,0.094,2.728
			c1.364-0.797,0.339-2.269,1.181-3.108c1.651,0.253,0.979,2.196,2.075,2.884c0.685-0.541,1.033-1.213,1.047-1.997
			C256.861,231.597,256.987,230.953,258.042,230.948z M201.978,198.483c0.523,1.375,1.109,2.343,2.682,2.532
			c0.91-1.593,1.839-3.181,2.715-4.798c0.117-0.218,0.042-0.616-0.075-0.87c-0.396-0.857-0.825-1.701-1.294-2.521
			c-0.218-0.381-0.498-0.778-0.853-1.012c-0.232-0.153-0.706-0.129-0.96,0.015c-0.159,0.089-0.193,0.562-0.138,0.833
			c0.061,0.293,0.282,0.556,0.445,0.825c0.233,0.386,0.524,0.745,0.696,1.156c0.081,0.194,0.021,0.555-0.118,0.705
			c-0.147,0.157-0.495,0.255-0.708,0.199c-0.339-0.089-0.64-0.324-0.952-0.502s-0.615-0.438-1.051,0.066
			c0.556,0.966,1.138,1.981,1.702,2.964C203.199,198.88,203.199,198.88,201.978,198.483z M238.113,203.233
			c-1.939-0.089-3.788-0.176-5.781-0.268c0.099,0.648,0.131,1.318,0.309,1.948c0.369,1.302,1.387,1.79,2.612,1.226
			C236.554,205.541,237.445,204.506,238.113,203.233z M246.094,160.446c-0.109-0.038-0.219-0.075-0.329-0.114
			c-0.276,0.394-0.614,0.759-0.818,1.188c-0.558,1.175-1.093,2.365-1.569,3.576c-0.229,0.579-0.67,1.219,0.09,1.814
			c0.145,0.114,0.085,0.51,0.091,0.776c0.011,0.6,0.003,1.201,0.003,1.801C244.47,166.462,245.632,163.542,246.094,160.446z
			 M248.705,171.11c0.063,0.011,0.124,0.021,0.186,0.033c0.981-2.297,1.964-4.595,2.965-6.941c-0.582-0.523-1.046-1.242-1.783-1.392
			C249.607,165.633,249.155,168.371,248.705,171.11z M251.525,181.587c0.127,0.018,0.255,0.036,0.382,0.055
			c0.735-3.638,1.963-7.159,2.411-10.882c-0.28,0.292-0.512,0.61-0.612,0.966c-0.779,2.765-1.556,5.53-2.271,8.311
			C251.312,180.515,251.486,181.068,251.525,181.587z M251.22,174.972c0.064,0.021,0.129,0.042,0.193,0.063
			c0.168-0.393,0.33-0.788,0.502-1.178c0.836-1.894,1.688-3.779,2.498-5.684c0.125-0.293,0.179-0.718,0.06-0.994
			c-0.222-0.513-0.594-0.96-1.029-1.629C252.66,168.873,251.939,171.922,251.22,174.972z M214.788,177.251
			c-0.331,1.477-0.647,2.892-1.022,4.569c2.103-1.913,2.639-2.759,2.7-4.082C215.997,177.603,215.53,177.467,214.788,177.251z
			 M237.145,161.833c1.378-1.209,2.66-2.333,4.008-3.514c-0.914-0.345-0.95-0.389-2.469,0.87
			C237.93,159.814,236.789,160.304,237.145,161.833z M238.294,165.305c1.082-1.564,1.919-3.115,2.608-4.748
			C239.319,161.684,237.855,162.879,238.294,165.305z M251.955,190.048c0.8-1.449,1.009-2.961,0.965-4.509
			c-0.751-0.19-0.98,0.104-0.971,0.74C251.969,187.535,251.955,188.792,251.955,190.048z M256.218,171.867
			c-0.11,0.004-0.222,0.009-0.333,0.013c-0.192,0.974-0.384,1.948-0.593,3.01c0.622,0.048,1.092,0.084,1.773,0.136
			C256.756,173.875,256.487,172.872,256.218,171.867z M213.889,190.29c0.117-1.617,0.235-3.235,0.36-4.955
			c-0.339,0.079-0.63,0.09-0.646,0.16C213.243,187.095,213.441,188.683,213.889,190.29z M242.117,202.534
			c-2.297,0.052-2.433,0.126-2.552,1.486c0.657,0.033,1.311,0.067,1.963,0.1C241.591,202.956,241.591,202.956,242.117,202.534z
			 M216.333,201.632c-0.197-2.876-0.461-3.741-1.36-4.239C215.232,198.885,215.009,200.416,216.333,201.632z M216.073,173.958
			c0.097,0.062,0.191,0.122,0.287,0.184c0.609-0.65,1.233-1.287,1.824-1.953c0.381-0.43,0.523-0.903-0.074-1.541
			C217.395,171.812,216.734,172.885,216.073,173.958z M247.535,160.797c-0.279,1.159-0.506,2.097-0.731,3.035
			c0.063,0.015,0.126,0.029,0.188,0.045c0.582-0.704,1.163-1.407,1.805-2.182C248.433,161.436,248.08,161.184,247.535,160.797z
			 M247.551,207.184c0.171,0.001,0.343,0.001,0.515,0.002c0.064-1.003,0.131-2.007,0.196-3.01c-0.089-0.006-0.177-0.014-0.264-0.021
			C247.889,205.169,246.706,206.069,247.551,207.184z M246.978,202.132c0.1,0.036,0.199,0.072,0.299,0.108
			c0.288-0.73,0.576-1.46,0.932-2.362C246.807,200.35,246.856,201.226,246.978,202.132z M219.364,189.874
			c-0.076,0.01-0.154,0.021-0.231,0.032c0,0.806,0,1.61,0,2.416c0.093,0.041,0.185,0.081,0.277,0.122
			c0.149-0.194,0.448-0.408,0.423-0.575C219.731,191.195,219.529,190.537,219.364,189.874z M219.68,198.372
			c0.065-0.011,0.131-0.021,0.196-0.032c-0.14-1.134-0.278-2.268-0.417-3.401c-0.1,0.015-0.199,0.03-0.299,0.046
			C219.334,196.113,219.507,197.243,219.68,198.372z M250.161,173.001c-0.083-0.049-0.166-0.099-0.249-0.148
			c-0.158,0.824-0.817,1.536-0.31,2.516C249.788,174.579,249.976,173.79,250.161,173.001z M216.599,192.318
			c-0.132-0.005-0.265-0.009-0.397-0.014c0,0.441,0,0.883,0,1.324c0.098,0.003,0.194,0.004,0.292,0.006
			C216.527,193.196,216.563,192.757,216.599,192.318z M252.526,200.756c-0.31,0.607-0.835,1.188-0.316,2.138
			C252.338,202.029,252.433,201.393,252.526,200.756z M244.332,220.041c0.116-0.346,0.605-0.8-0.085-1.165
			C244.276,219.264,244.305,219.652,244.332,220.041z M235.203,163.403c-0.081-0.074-0.162-0.147-0.244-0.222
			c-0.262,0.38-0.524,0.76-0.786,1.14c0.078,0.055,0.156,0.109,0.234,0.163C234.672,164.124,234.938,163.764,235.203,163.403z
			 M250.595,170.229c0.072,0.052,0.144,0.104,0.215,0.156c0.126-0.443,0.25-0.886,0.376-1.33c-0.067-0.019-0.136-0.039-0.202-0.057
			C250.854,169.408,250.724,169.818,250.595,170.229z M226.593,200.705c-0.113,0.159-0.25,0.276-0.229,0.336
			c0.053,0.146,0.178,0.265,0.274,0.395c0.109-0.111,0.308-0.226,0.305-0.332C226.938,200.983,226.75,200.872,226.593,200.705z
			 M223.191,164.244c0.073,0.07,0.148,0.141,0.222,0.212c0.166-0.186,0.333-0.371,0.501-0.556c-0.044-0.042-0.089-0.083-0.133-0.124
			C223.586,163.932,223.389,164.087,223.191,164.244z"/>
		<path fill="#272361" d="M174.809,179.083c0.968-1.281,1.927-2.589,2.927-3.866c2.062-2.635,3.658-1.913,5.159,0.453
			c1.354,2.135,1.403,4.544,1.062,6.958c-0.484,3.418-2.168,6.299-4.276,8.938c-0.955,1.196-2.053,2.286-3.147,3.362
			c-0.908,0.893-1.854,0.796-2.702-0.145c-0.876-0.974-1.693-2.011-2.656-2.889c-2.788-2.54-3.881-5.799-4.159-9.425
			c-0.076-0.989-0.11-1.991-0.057-2.98c0.082-1.491,0.724-2.679,2.112-3.387c1.173-0.598,2.32-0.519,3.281,0.332
			C173.221,177.205,173.944,178.139,174.809,179.083z M174.935,181.834c-0.464-0.768-0.826-1.315-1.138-1.892
			c-0.547-1.007-1.219-1.901-2.175-2.547c-1.459-0.984-3.025-0.435-3.508,1.269c-0.17,0.6-0.229,1.252-0.217,1.878
			c0.072,3.707,0.771,7.174,3.703,9.827c1.264,1.143,2.415,2.408,3.647,3.649c0.296-0.246,0.53-0.391,0.7-0.591
			c1.691-1.996,3.512-3.901,5.018-6.03c1.612-2.28,2.501-4.9,2.358-7.771c-0.076-1.532-0.521-2.932-1.586-4.076
			c-0.891-0.958-1.67-0.96-2.488,0.064c-1.35,1.688-2.757,3.343-3.629,5.36C175.521,181.206,175.301,181.384,174.935,181.834z"/>
		<path fill="#272361" d="M102.979,88.351c2.934,3.243,3.618,11.221,1.163,13.735c-0.392-2.34-0.198-4.586-0.407-6.798
			C103.523,93.042,103.249,90.803,102.979,88.351z"/>
		<path fill="#272361" d="M92.011,111.949c0.954,1.137,0.579,2.452,0.497,3.887c-1.514-0.48-2.51,0.334-3.562,1.015
			c-2.636,1.706-5.504,2.287-8.53,1.413c-1.224-0.353-2.331-1.106-3.545-1.704c-0.283,0.303-0.693,0.742-1.138,1.216
			c-0.178-0.242-0.324-0.35-0.322-0.455c0.022-1.277,0.249-2.503,1.121-3.499c0.17-0.193,0.509-0.332,0.763-0.322
			c0.124,0.006,0.28,0.398,0.334,0.637c0.059,0.255,0.014,0.533,0.014,0.802c1.965,2.213,6.277,2.711,9.309,1.082
			c1.19-0.64,2.389-1.267,3.557-1.947c0.274-0.161,0.495-0.484,0.638-0.783c0.203-0.427,0.311-0.899,0.459-1.353
			C91.74,111.941,91.875,111.945,92.011,111.949z"/>
		<path fill="#272361" d="M82.039,107.58c0.956-1.244,1.949-2.161,3.413-2.302c1.511-0.147,2.562,0.662,3.318,1.91
			c0.389,0.641,0.192,1.255-0.188,1.772c-1.12,1.52-2.708,2.383-4.496,2.797c-1.113,0.258-1.882-0.837-1.563-2.156
			c0.161,0.111,0.306,0.19,0.426,0.295c0.8,0.705,1.444,0.802,2.281,0.202c0.506-0.363,0.927-0.849,1.364-1.301
			c0.361-0.374,0.622-0.803,0.302-1.332c-0.324-0.538-0.791-0.905-1.443-0.792c-0.481,0.083-0.942,0.292-1.409,0.455
			c-0.468,0.163-0.929,0.347-1.399,0.5C82.532,107.662,82.393,107.61,82.039,107.58z"/>
		<path fill="#272361" d="M76.349,110.01c-0.37,0.533-0.906,0.479-1.253,0.085c-0.429-0.487-0.737-1.101-1.001-1.702
			c-0.209-0.473-0.272-1.009-0.418-1.586c-1.822,0.487-2.056,2.231-3.024,3.482c-0.696-1.221-0.248-2.177,0.264-2.949
			c0.476-0.719,1.225-1.316,1.969-1.783c0.859-0.539,1.648-0.238,2.171,0.651c0.18,0.307,0.296,0.657,0.407,0.998
			C75.755,108.096,76.028,108.991,76.349,110.01z"/>
		<path fill="#272361" d="M92.102,108.454c-0.476-1.585,0.101-3.437,1.11-4.075c1-0.631,2.411-0.222,2.998,0.92
			c0.43,0.836,0.385,1.745,0.196,2.639c-0.063,0.298-0.1,0.291-0.91,0.469c-0.148-0.595-0.298-1.197-0.449-1.798
			c-0.123-0.489-0.276-1.109-0.854-1.028c-0.392,0.055-0.801,0.51-1.057,0.885C92.753,107.028,92.496,107.676,92.102,108.454z"/>
		<path fill="#272361" d="M105.298,186.646c-0.425,0.19-0.772,0.346-1.124,0.504c-0.492-1.295,0.216-2.668,1.754-3.388
			c0.131,0.362,0.259,0.716,0.387,1.07c2.482,2.38,11.818-0.81,14.992-5.205c0.221,0.19,0.559,0.337,0.623,0.562
			c0.279,0.98,0.639,1.993-0.248,2.895c-0.133,0.135-0.193,0.366-0.229,0.564c-0.03,0.169,0.004,0.357,0.039,0.531
			c0.731,3.637-1.332,5.885-3.926,7.849c-2.49,1.886-5.268,1.84-7.99,0.795c-2.367-0.907-3.501-3.008-4.164-5.359
			C105.342,187.218,105.339,186.954,105.298,186.646z M119.969,182.91c-4.193,3.217-8.567,4.813-13.866,3.169
			c0.368,0.936,0.597,1.705,0.96,2.403c0.83,1.591,0.955,1.621,2.689,1.235c0.132-0.029,0.268-0.044,0.401-0.064
			c3.408-0.535,6.519-2.025,9.815-2.968C119.969,185.461,119.969,184.316,119.969,182.91z"/>
		<path fill="#272361" d="M111.053,180.347c1.17-0.126,2.112-0.518,2.805-1.357c0.222-0.269,0.435-0.593,0.511-0.925
			c0.286-1.252-0.445-1.947-1.658-1.58c-0.8,0.241-1.579,0.553-2.521,0.623c0.111-0.202,0.171-0.486,0.343-0.593
			c0.798-0.492,1.587-1.038,2.454-1.369c1.158-0.442,1.984-0.049,2.594,1.052c0.611,1.104,0.693,2.183-0.074,3.298
			c-0.813,1.179-1.76,2.052-3.287,2.003C111.586,181.479,111.072,181.284,111.053,180.347z"/>
		<path fill="#272361" d="M119.157,177.405c-0.322-0.021-0.39-0.008-0.405-0.03c-1.129-1.541-0.639-3.94,0.975-4.791
			c2.415-1.273,3.906-0.454,4.146,2.285c0.059,0.666,0.085,1.334,0.125,1.988c-0.906,0.353-1.228,0.297-1.532-0.397
			c-0.233-0.532-0.367-1.114-0.492-1.684c-0.098-0.454-0.138-0.915-0.707-1.021c-0.586-0.109-1.123,0.042-1.412,0.562
			c-0.229,0.413-0.325,0.91-0.426,1.381C119.31,176.254,119.247,176.822,119.157,177.405z"/>
		<path fill="#272361" d="M105.186,181.039c-0.921,0.591-1.2,0.609-1.648-0.008c-0.338-0.467-0.578-1.01-0.833-1.533
			c-0.209-0.43-0.486-0.88-0.981-0.735c-0.317,0.093-0.624,0.502-0.771,0.841c-0.294,0.685-0.476,1.418-0.688,2.086
			c-0.249,0-0.383,0.036-0.414-0.006c-0.867-1.129-0.589-3.33,0.512-4.115c1.326-0.944,3.059-0.523,3.872,1.021
			C104.644,179.368,104.88,180.237,105.186,181.039z"/>
		<path fill="#272361" d="M120.796,203.599c-2.079,1.741-10.708,2.736-13.715,1.58c1.092-0.162,1.967-0.288,2.841-0.423
			c2.409-0.369,4.816-0.75,7.227-1.11c0.804-0.119,1.613-0.219,2.423-0.262C119.933,203.364,120.301,203.505,120.796,203.599z"/>
		<path fill="#272361" d="M125.561,235.51c-0.827,0.313-1.648,0.638-2.48,0.936c-3.664,1.31-7.44,2.198-11.255,2.929
			c-2.257,0.431-3.939,0.414-5.338,0.001C107.826,238.138,122.634,234.92,125.561,235.51z"/>
		<path fill="#272361" d="M184.411,127.236c0.998,1.2,0.881,2.563,0.727,3.891c-0.114,0.982-0.387,1.948-0.619,2.914
			c-0.684,2.825-2.906,4.016-5.354,4.864c-1.997,0.692-4.146,0.744-6.173,0.395c-1.692-0.291-3.519-0.896-4.844-1.928
			c-1.328-1.035-2.225-2.697-2.747-4.431c-0.164-0.545-0.45-1.06-0.725-1.564c-0.5-0.917-0.528-1.73,0.176-2.339
			c0.816,0.897,1.936,0.919,3.059,0.958c0.993,0.035,1.99,0.058,2.976,0.175c3.08,0.364,6.014-0.413,8.962-1.088
			c0.483-0.111,0.96-0.259,1.443-0.365c0.929-0.202,1.864-0.361,2.494-1.206C183.897,127.361,184.175,127.334,184.411,127.236z
			 M183.616,129.875c-5.939,1.981-11.667,2.845-17.692,1.107c0.23,0.543,0.352,0.917,0.539,1.255
			c1.868,3.377,1.328,3.148,5.028,3.036c2.371-0.072,4.742-0.506,7.085-0.932c1.491-0.272,2.931-0.828,4.367-1.249
			C183.171,132.003,183.362,131.092,183.616,129.875z"/>
		<path fill="#272361" d="M176.711,120.171c-0.412,0.089-0.825,0.196-1.246,0.263c-0.265,0.042-0.542,0.001-0.81,0.034
			c-0.695,0.087-1.592,0.801-1.725,1.352c-0.122,0.501,0.271,1.092,1.136,1.498c0.517,0.243,1.094,0.4,1.66,0.48
			c0.382,0.055,0.803,0.041,0.815,0.485c0.01,0.301-0.184,0.69-0.414,0.903c-0.728,0.677-1.628,0.752-2.531,0.439
			c-1.348-0.467-2.28-1.418-2.858-2.707c-0.122-0.273-0.172-0.618-0.137-0.916c0.2-1.702,1.363-2.581,2.835-3.118
			c1.242-0.452,2.286,0.024,3.193,0.883C176.681,119.818,176.667,119.937,176.711,120.171z"/>
		<path fill="#272361" d="M166.099,123.633c-0.495-0.672-0.933-1.303-1.408-1.902c-0.646-0.813-1.216-0.838-1.843,0.006
			c-0.367,0.494-0.558,1.118-0.826,1.684c-0.115,0.243-0.229,0.485-0.378,0.802c-0.232-0.113-0.496-0.153-0.592-0.302
			c-0.841-1.3-0.333-3.495,1.036-4.595c1.345-1.082,3.003-0.954,4.191,0.46c0.505,0.601,0.863,1.38,1.104,2.137
			C167.744,123.062,167.495,123.337,166.099,123.633z"/>
		<path fill="#272361" d="M182.444,123.076c0.037-1.713,0.2-3.125,1.23-4.267c1.391-1.542,3.409-1.188,4.052,0.729
			c0.334,0.997,0.243,2.043-0.057,3.057c-0.119,0.404-0.386,0.575-0.807,0.562c-0.41-0.013-0.688-0.172-0.788-0.587
			c-0.186-0.778-0.372-1.557-0.572-2.394C183.912,120.517,183.947,122.377,182.444,123.076z"/>
		<path fill="#272361" d="M232.492,217.862c0.534-0.339,1.038-0.724,1.598-0.999c1.034-0.509,1.968-0.377,2.682,0.5
			c0.677,0.832,1.27,1.755,1.762,2.708c0.228,0.441,0.279,1.094,0.145,1.575c-0.217,0.769-0.146,1.485-0.111,2.254
			c0.059,1.387,0.023,2.798-0.168,4.171c-0.215,1.548-1.263,2.56-2.655,3.186c-1.17,0.525-2.098,0.047-2.896-0.921
			c-1.095,1.184-2.356,1.726-3.925,1.483c-1.072-0.167-2.007-0.587-2.687-1.414c-1.461-1.777-0.664-4.748,1.735-6.64
			c-1.843-2.092-1.679-3.407,0.636-5.102C230.016,217.633,231.014,217.429,232.492,217.862z M233.239,227.462
			c0.313,0.188,0.436,0.217,0.457,0.28c0.138,0.424,0.257,0.854,0.379,1.283c0.254,0.889,0.694,1.103,1.5,0.67
			c0.816-0.438,1.51-1.047,1.743-1.976c0.377-1.502,0.491-3.006-0.192-4.484c-0.155-0.336-0.22-0.826-0.096-1.158
			c0.451-1.193-0.094-2.109-0.736-2.986c-1.04-1.418-2.456-1.233-3.255,0.489c-0.506-0.351-0.993-0.688-1.472-1.019
			c-1.35,0.06-2.415,0.7-3.302,1.656c-0.878,0.947-0.798,1.844,0.201,2.671c0.399,0.33,0.822,0.631,1.415,1.083
			c-0.588,0.336-1.008,0.557-1.408,0.811c-1.417,0.897-1.911,3.327-1.016,4.564c0.774,1.07,3.645,1.435,4.854,0.355
			c0.241-0.214,0.318-0.618,0.449-0.943C232.922,228.361,233.059,227.954,233.239,227.462z"/>
		<path fill="#272361" d="M243.447,189.451c0.328,2.056-1.162,3.611-1.874,5.436c-0.164,0.419-0.624,0.789-1.034,1.036
			c-5.514,3.325-11.468,0.883-13.919-3.159c-1.189-1.963-1.165-3.902-0.326-6.09c0.412,0.159,0.799,0.248,1.121,0.444
			c2.178,1.342,4.598,1.884,7.096,2.029C237.482,189.321,240.462,189.355,243.447,189.451z M227.065,188.103
			c-0.078,3.613,0.524,3.421,2.615,3.821c2.559,0.492,5.169,0.756,7.768,0.975c0.757,0.063,1.565-0.33,2.331-0.571
			c0.762-0.24,1.024-0.774,0.797-1.519c-1.063,0-2.055,0.062-3.038-0.011C233.95,190.533,230.291,190.517,227.065,188.103z"/>
		<path fill="#272361" d="M246.372,185.021c-0.022,0.136-0.064,0.541-0.163,0.932c-0.104,0.416-0.33,0.763-0.826,0.744
			c-0.468-0.019-0.736-0.301-0.811-0.755c-0.09-0.532-0.092-1.093-0.268-1.593c-0.151-0.438-0.411-0.914-0.765-1.192
			c-0.609-0.48-1.311-0.261-1.687,0.455c-0.271,0.517-0.437,1.085-0.702,1.604c-0.126,0.244-0.379,0.423-0.574,0.631
			c-0.218-0.258-0.552-0.483-0.633-0.779c-0.564-2.069,1.228-4.141,3.364-3.934C245.187,181.317,246.43,182.782,246.372,185.021z"/>
		<path fill="#272361" d="M223.674,183.663c-0.3-0.104-0.36-0.106-0.378-0.136c-1.122-1.872,0.15-4.78,2.253-5.085
			c1.212-0.176,2.093,0.501,2.744,1.398c0.818,1.128,0.89,2.439,0.493,3.747c-0.083,0.272-0.439,0.593-0.718,0.648
			c-0.488,0.095-0.533-0.376-0.563-0.732c-0.048-0.582-0.042-1.171-0.102-1.752c-0.037-0.351-0.088-0.73-0.253-1.029
			c-0.263-0.476-0.624-0.894-1.264-0.87c-0.681,0.025-1.078,0.433-1.293,1.016c-0.201,0.55-0.316,1.129-0.494,1.687
			C223.984,182.92,223.825,183.273,223.674,183.663z"/>
		<path fill="#272361" d="M236.699,184.625c-0.051,0.197-0.043,0.367-0.123,0.447c-0.675,0.674-2.134,0.779-3.161,0.247
			c-0.896-0.464-1.311-1.297-1.112-2.384c0.163-0.894,0.444-1.753,1.231-2.325c1.543-1.121,2.612-0.92,4.228,0.991
			c-0.688-0.162-1.133-0.271-1.579-0.37c-1.194-0.265-2.148,0.327-2.434,1.505c-0.222,0.92,0.038,1.329,0.986,1.516
			c0.353,0.07,0.715,0.085,1.068,0.149C236.1,184.456,236.39,184.547,236.699,184.625z"/>
		<path fill="#272361" d="M233.24,226.782c-1.28-0.163-2.24-0.783-2.856-1.743c-0.551-0.86-0.072-1.759,0.461-2.501
			c0.361-0.502,0.821-0.963,1.32-1.332c0.908-0.675,1.758-0.573,2.548,0.196c1.416,1.378,1.215,3.861-0.427,4.958
			C233.962,226.575,233.552,226.661,233.24,226.782z M234.813,223.546c-0.087-0.209-0.204-0.648-0.435-1.015
			c-0.259-0.405-0.572-0.909-1.153-0.759c-0.627,0.162-1.128,0.566-1.283,1.246c-0.08,0.345-0.047,0.717-0.135,1.06
			c-0.153,0.604,0.142,0.934,0.624,1.183C233.515,225.82,234.754,225.046,234.813,223.546z"/>
	</g>
</g>
</svg>
