<?xml version="1.0" encoding="utf-8"?>
<!-- Generator: Adobe Illustrator 16.0.0, SVG Export Plug-In . SVG Version: 6.00 Build 0)  -->
<!DOCTYPE svg PUBLIC "-//W3C//DTD SVG 1.1//EN" "http://www.w3.org/Graphics/SVG/1.1/DTD/svg11.dtd">
<svg version="1.1" id="Layer_1" xmlns="http://www.w3.org/2000/svg" xmlns:xlink="http://www.w3.org/1999/xlink" x="0px" y="0px"
	 width="350px" height="350px" viewBox="0 0 350 350" enable-background="new 0 0 350 350" xml:space="preserve">
<g>
	<path fill="#9C9C9B" d="M302.779,198.583c-0.877-5.909-4.252-11.949-10.85-11.636c-5.83,0.276-12.65,4.286-14.342,10.046
		c-0.431,0.159-0.843,0.322-1.204,0.483c-0.043-0.001-0.083-0.009-0.128-0.002c-5.188,0.791-10.562,2.253-15.612,3.69
		c-2.418,0.688-6.606,1.146-8.088,3.551c-3.884,6.307,6.463,4.871,9.238,4.074c5.001-1.438,10.161-2.184,15.142-3.731
		c0.822-0.255,1.863-0.579,2.946-0.987c2.055,4.699,9.25,5.408,13.784,4.86C299.81,208.189,303.731,204.993,302.779,198.583z"/>
	<path fill="#C5C5C5" d="M298.6,194.022c-0.298-0.936-0.744-1.984-1.476-2.573c-0.038-0.206-0.158-0.409-0.382-0.569
		c-3.978-2.854-11.128,0.806-13.717,4.09c-3.632,4.607-0.302,9.295,4.579,10.676c0.278,0.079,0.554-0.207,0.52-0.461
		c0.089-0.139,0.112-0.313-0.002-0.465c-0.981-1.303-2.386-2.432-2.424-4.175c-0.033-1.489,1.499-2.743,2.563-3.547
		c1.102-0.833,2.362-1.474,3.641-2.008c0.186-0.021,0.368-0.046,0.559-0.06c0.468-0.033,0.776-0.225,0.964-0.482
		c0.191-0.051,0.384-0.1,0.577-0.146c0.165,0.058,0.332,0.107,0.493,0.185c2.25,1.067,1.892,3.667,2.467,5.661
		c0.156,0.541,0.682,0.717,1.114,0.569c0.374,0.489,1.226,0.314,1.386-0.292C299.956,198.554,299.169,195.815,298.6,194.022z"/>
	<path fill="#F29100" d="M257.01,206.421c-0.404-1.844-1.551-3.945-3.354-4.73c-0.108-0.064-0.226-0.116-0.355-0.146
		c-0.03-0.01-0.057-0.026-0.086-0.036c-0.168-0.049-0.313-0.034-0.445,0.004c-4.921,0.056-12.568-0.469-14.538,5.257
		c-1.401,4.071,1.231,8.769,5.855,8.188c3.699-0.464,8.271-1.053,11.618-2.791C257.565,211.2,257.372,208.073,257.01,206.421z"/>
	<path fill="#F29100" d="M170.244,183.99c-4.698-0.097-9.344,0.652-14.033,0.728c-0.663,0.012-0.915,0.943-0.436,1.268
		c-0.027,0.18-0.01,0.379,0.083,0.599c3.307,7.876-4.655,14.257-7.999,20.665c-0.41,0.786,0.087,1.871,1.055,1.837
		c2.9-0.101,5.71-0.595,8.081-2.082c-0.144,6.116-2.018,11.73-5.268,17.048c-0.646,1.058,0.41,2.066,1.459,1.898
		c6.597-1.057,10.47-5.379,12.424-11.574c1.07-3.393,1.207-7.043,1.385-10.563c0.316-6.282,1.68-12.359,4.234-18.104
		C171.576,184.93,171.176,184.01,170.244,183.99z"/>
	<path fill="#F3D1BB" d="M272.44,204.582c-1.194-1.409-2.655-2.313-4.33-3.071c-0.181-0.082-0.358-0.126-0.534-0.154
		c-2.675-12.689-8.251-23.593-18.875-31.484c-7.282-5.41-15.268-9.588-23.573-13.192c-4.44-1.927-9.734-5.051-14.821-4.611
		c2.328-1.138,4.563-2.462,6.652-4c15.374-11.315,22.549-31.248,23.931-49.649c1.574-20.968-6.521-40.517-25.863-50.259
		c-13.825-6.963-30.173-7.119-44.389-1.38c-14.008,5.654-25.202,16.704-26.488,31.72c-1.807,8.306-2.462,17.169-1.735,25.894
		c-4.357-2.456-9.47-3.881-11.985,0.504c-2.389,4.164-0.099,10.122,2.413,13.611c2.977,4.134,8.925,8.234,14.236,6.892
		c0.048-0.012,0.083-0.037,0.126-0.053c3.261,8.198,8.175,15.648,15.02,21.592c4.982,4.325,10.898,7.16,17.152,8.638
		c-22.378,10.425-41.551,30.598-41.58,56.27c-2.637,0.687-4.494,2.35-5.586,5.123c-0.482,1.225,0.947,2.477,2.109,2.109
		c1.031-0.324,1.931-0.762,2.788-1.27c0.031,0.93,0.174,1.867,0.471,2.869c0.383,1.292,2.417,1.777,3.067,0.4
		c0.484-1.025,0.845-2.016,1.087-3.008c0.607,0.752,1.236,1.489,1.91,2.205c1.079,1.144,3.375-0.033,2.757-1.605
		c-0.361-0.922-0.742-1.83-1.137-2.733c1.094,0.41,2.229,0.723,3.476,0.886c1.391,0.184,2.226-1.947,1.162-2.805
		c-1.482-1.197-3.067-2.239-4.65-3.283c2.346-8.201,9.529-14.342,15.686-19.837c2.69-2.402,5.587-4.667,8.574-6.748
		c-3.812,11.089-5.747,22.718-4.171,33.917c0.422,2.999,1.413,5.852,2.836,8.494c-2.13,8.271,3.142,17.451,4.03,25.598
		c1.256,11.508,2.202,23.045,3.855,34.506c0.089,0.613,0.525,0.86,0.991,0.84c0.721,1.121,2.045,1.714,3.421,1.853
		c1.399,0.142,4.369,0.229,5.176-1.204c0.056-0.1,0.091-0.214,0.107-0.332c0.734,0.25,1.694-0.126,1.679-1.133
		c-0.232-14.849,0.768-29.241,2.59-43.965c2.059,0.455,4.144,0.688,6.215,0.695c1.221,10.209,1.768,20.169,1.667,30.468
		c-0.024,2.543-1.56,12.585,1.66,13.716c0.046,0.32,0.253,0.605,0.69,0.697c1.74,0.367,3.489,0.44,5.261,0.464
		c0.481,0.007,0.784-0.259,0.932-0.599c0.197-0.043,0.389-0.133,0.545-0.334c4.771-6.151,4.587-16.598,6.404-23.971
		c2.402-9.752,5.186-21.105,2.173-31.049c4.616-7.338,6.198-17.267,6.499-25.799c0.305-8.635-0.579-17.293-2.068-25.788
		c-0.328-1.871-0.693-3.757-1.105-5.64c9.578,2.176,19.82,4.172,27.953,9.795c4.45,3.077,8.147,7.352,11.237,11.743
		c1.601,2.275,3.596,4.29,1.845,7.155c-0.897,1.467-1.309,2.74-1.432,4.447c-0.113,1.58,1.703,2.265,2.919,1.674
		c0.808-0.392,1.425-0.881,1.93-1.439c0.456,0.52,1.015,0.994,1.734,1.425c1.228,0.732,2.935-0.2,2.892-1.659
		c-0.014-0.48-0.055-0.93-0.115-1.363c1.015,0.34,2.068,0.541,3.245,0.447C272.799,207.675,273.538,205.876,272.44,204.582z
		 M211.862,155.421c-0.178-0.041-0.35-0.052-0.512-0.029c-0.114-0.187-0.219-0.379-0.336-0.564c0.368,0.077,0.732,0.179,1.098,0.273
		C212.019,155.199,211.932,155.304,211.862,155.421z"/>
	<path fill="#F29100" d="M250.217,105.56c0.548,0.683,1.747,0.278,1.934-0.51c2.38-10.089-4.956-19.065-11.616-26.174
		c1.958-0.078,3.796-0.52,5.784-1.425c1.031-0.469,0.619-1.937-0.292-2.232c-5.83-1.895-6.636-7.31-9.034-12.194
		c-2.113-4.303-5.065-8.213-8.311-11.721c-5.694-6.153-12.843-8.73-20.745-10.294c1.819-1.039,3.378-2.373,4.33-4.394
		c0.396-0.838-0.068-1.893-1.085-1.891c-1.159,0.002-2.295,0.112-3.419,0.272c-0.399-0.302-0.937-0.438-1.574-0.276
		c-3.826,0.971-7.956,1.329-12.164,1.577c-5.03-0.417-9.682-0.68-14.804,0.178c-9.782,1.638-17.665,7.176-22.472,15.701
		c-6.26-0.263-10.858,3.107-13.938,8.612c-3.16,5.649-5.911,16.553-13.861,16.62c-1.354,0.011-1.729,2.166-0.328,2.42
		c1.505,0.274,2.936,0.564,4.404,0.711c-3.455,4.917-7.76,9.043-9.756,14.893c-2.563,7.515-0.999,15.876-6.727,22.162
		c-0.711,0.781-0.263,2.211,0.899,2.169c0.708-0.025,4.963-0.94,5.413-0.252c1.646,2.517,2.798,5.367,3.827,8.175
		c2.143,5.847,3.021,12.121,3.295,18.311c0.035,0.793,0.749,1.378,1.54,1.173c1.268-0.329,2.341-0.811,3.389-1.447
		c2.553,10.149,8.986,17.584,19.265,20.792c0.339,0.106,0.63,0.062,0.864-0.068c8.038,0.67,18.024-4.355,24.233-8.965
		c0.438-0.326,0.603-0.763,0.575-1.173c0.473-0.479,0.465-1.474-0.386-1.752c-15.215-4.974-26.231-16.805-33.084-30.957
		c-0.146-0.3-0.538-0.512-0.865-0.496c-6.911,0.319-13.451-4.803-15.884-11.094c-1.6-4.137,0.143-9.412,4.348-10.225
		c3.878,0.767,8.074,1.32,9.527,4.987c0.308,0.776,0.517,1.564,0.673,2.358c0.199,1.335,0.327,2.678,0.453,4.002
		c0.124,1.84,0.242,3.652,0.756,5.361c0.898,3.833,2.903,7.01,8.486,8.535c1.291,0.353,2.075-1.208,1.247-2.143
		c-4.25-4.802-6.559-11.167-5.417-17.382c1.076,1.99,2.811,3.489,5.292,4.371c0.838,0.298,1.568-0.463,1.624-1.237
		c0.527-7.26-4.816-13.094-2.618-20.438c1.511-5.047,4.66-9.092,6.225-13.881c3.641,7.524,11.602,12.89,19.507,14.857
		c6.981,1.737,16.966,2.318,20.115-5.644c0.524-1.328-1.266-2.601-2.394-1.84c-4.915,3.317-11.505-2.198-8.293-6.869
		c8.216,6.974,18.949,9.297,29.603,9.135c1.478-0.023,2.262-1.841,1.203-2.904c-1.228-1.233-2.594-2.291-3.876-3.431
		c5.27,1.345,10.379,4.278,14.379,7.655c6.449,5.445,7.458,14.202,6.776,22.031c-0.588,6.765-2.477,13.357-5.396,19.464
		c-3.027,3.364-5.352,7.489-8.217,10.982c-3.521,4.294-7.517,7.695-12.604,9.983c-0.16,0.072-0.257,0.185-0.326,0.31
		c-0.022,0.006-0.045,0.015-0.067,0.02c-1.313,0.325-0.718,2.141,0.542,1.966c0.311-0.043,0.613-0.114,0.919-0.176
		c3.45,0.85,6.824,1.936,10.222,2.979c2.246,0.689,5.226,1.972,7.629,1.311c3.443-0.947,3.263-3.046,2.51-5.261
		c1.748,1.271,3.594,2.395,5.481,3.499c0.782,0.457,1.479-0.289,1.374-1.056c-0.636-4.629-1.243-8.903-0.096-13.306
		c1.502,2.634,4.058,6.677,5.587,5.073c3.565-3.74,5.461-8.25,6.497-13.266c1.919-9.283,0.407-19.635-3.236-28.467
		C248.839,103.974,249.529,104.703,250.217,105.56z"/>
	<path fill="#D5AD95" d="M142.979,117.431c-5.274-0.713-10.378-5.251-9.347-10.92c0.124-0.679-0.732-1.08-1.124-0.474
		c-3.861,5.966,4.398,13.883,10.471,12.241C143.368,118.173,143.429,117.491,142.979,117.431z"/>
	<path fill="#D5AD95" d="M142.15,113.795c-1.065-0.955-2.34-1.62-3.439-2.521c1.078-1.569,1.339-3.391,0.06-5.044
		c-0.385-0.497-1.023,0.064-0.94,0.547c0.268,1.573,0.227,2.79-0.908,4.014c-0.299,0.323-0.366,0.903,0,1.216
		c1.346,1.151,3.035,1.765,4.525,2.699C142.002,115.055,142.643,114.238,142.15,113.795z"/>
	<path fill="#D5AD95" d="M197.338,88.673c-7.009,4.184-14.556,3.002-22.015,0.664c-0.426-0.133-0.864-0.282-1.308-0.438
		c0.038-0.217-0.033-0.449-0.269-0.574c-2.721-1.45-5.19-2.579-7.527-4.684c-2.085-1.879-3.606-4.101-5.082-6.435
		c-0.033-0.242-0.078-0.48-0.093-0.729c-0.034-0.591-0.739-0.623-0.947-0.176c-0.219,0.082-0.386,0.302-0.317,0.589
		c0.055,0.229,0.132,0.466,0.206,0.702c0.076,4.364,3.94,7.675,7.889,9.919c0.801,0.518,1.623,0.944,2.451,1.264
		c0.574,0.271,1.137,0.522,1.666,0.745c8.048,3.375,18.24,5.442,25.851,0.019C198.36,89.17,197.902,88.336,197.338,88.673z"/>
	<path fill="#D5AD95" d="M196.785,122.377c-1.375-1.702-3.613-1.209-5.189-0.124c-0.794,0.547-0.099,1.786,0.763,1.305
		c1.035-0.578,2.382-1.023,3.127,0.176c0.706,1.138,0.597,2.691,0.313,3.937c-0.254,1.114-0.877,2.605-1.955,3.029
		c-1.837,0.723-3.207-1.291-4.953-1.385c-0.596-0.032-0.983,0.589-0.855,1.124c0.603,2.522,4.689,3.494,6.791,2.592
		c1.93-0.829,2.947-2.95,3.225-4.925C198.326,126.14,198.064,123.961,196.785,122.377z"/>
	<path fill="#D5AD95" d="M188.048,142.428c-3.369,0.251-7.3-0.036-10.438-1.406c-3.373-1.472-5.08-3.168-7.471-5.82
		c-0.116-0.128-0.243-0.212-0.373-0.276c0.738-0.354,1.554-0.447,2.408-0.625c0.435-0.091,0.457-0.826,0-0.898
		c-2.881-0.455-5.403,2.234-5.554,4.94c-0.023,0.425,0.652,0.517,0.742,0.1c0.13-0.601,0.334-1.168,0.617-1.693
		c0.243,3.545,4.718,5.787,7.617,6.819c3.726,1.328,8.916,1.661,12.633,0.206C188.897,143.513,188.878,142.366,188.048,142.428z"/>
	<path fill="#3C3C3B" d="M173.424,109.187c0.115-1.745,0.823-3.742,1.998-4.799c0.723-0.65-0.194-1.61-0.969-1.256
		c-1.98,0.906-3.008,3.453-3.363,5.455c-0.341,1.928,0.135,4.883,2.399,5.483C177.198,115.051,177.592,108.429,173.424,109.187z"/>
	<path fill="#3C3C3B" d="M216.42,104.14c-0.591-0.426-1.16,0.463-0.735,0.953c1.363,1.57,3.094,4.49,2.686,6.819
		c-1.233-0.591-2.86-0.298-3.352,1.173c-0.5,1.499,0.402,2.997,1.963,3.177c2.34,0.27,3.617-3.205,3.546-4.958
		C220.42,108.644,218.543,105.673,216.42,104.14z"/>
	<path fill="#E83842" d="M249.569,170.452c0.004-0.206-0.075-0.413-0.279-0.584c-6.647-5.594-14.51-9.845-22.346-13.504
		c-4.082-1.905-9.573-4.967-14.602-5.498c-0.025-0.017-0.053-0.03-0.079-0.047c-0.563-0.359-1.122-0.301-1.554-0.021
		c-0.574,0.008-1.142,0.044-1.694,0.138c-0.36-0.263-0.862-0.304-1.262,0.124c-3.127,3.347-6.725,6.304-9.768,9.683
		c-0.997,1.106-1.935,2.255-2.962,3.335c-2.312,2.431-4.581-0.822-5.922-2.498c-1.825-2.281-4.215-4.71-6.859-6.013
		c-2.094-1.031-4.432,0.965-6.08,1.988c-3.734,2.318-8.041,3.54-11.79,5.917c-3.962,2.512-7.448,6.031-10.688,9.382
		c-2.775,2.873-5.025,6.123-7.406,9.312c-1.522,2.037-3.729,4.391-4.036,7.023c-0.036,0.31,0.105,0.518,0.311,0.635
		c-0.003,2.99,8.413,7.454,11.263,7.241c0.244,0.234,0.609,0.354,0.948,0.168c5.411-2.978,8.468-8.784,14.033-11.495
		c-0.796,2.723-1.684,5.417-2.237,8.221c-0.079,0.398,0.132,0.693,0.414,0.844c0.147,0.458,0.579,0.84,1.184,0.716
		c0.137-0.028,0.273-0.036,0.409-0.048c0.17,0.053,0.345,0.082,0.521,0.059c0.118-0.016,0.236-0.029,0.354-0.045
		c1.15,0.137,2.282,0.636,3.427,0.718c2.392,0.171,4.666,0.058,7.046-0.22c4.218-0.492,8.468-1.293,12.636-2.102
		c4.891-0.949,9.709-2.217,14.459-3.712c4.355-1.371,8.358-3.54,12.855-4.474c0.433-0.09,0.62-0.493,0.672-0.883
		c0.234-1.764,0.098-3.39-0.222-4.973c-0.058-1.006-0.268-2.014-0.563-3.015c7.683,2.673,15.987,2.748,23.367,6.584
		c0.486,0.253,0.972,0.171,1.381-0.179c4.13-3.514,4.533-6.985,5.231-12.106C249.769,170.86,249.695,170.634,249.569,170.452z"/>
	<path fill="#BD1622" d="M255.069,173.888c-0.405-2.3-3.563-3.6-4.978-5.22c-0.3-0.344-0.732-0.401-1.12-0.285
		c-3.285-3.153-7.314-5.386-11.385-7.354c-1.727-0.835-5.082-2.825-7.404-2.578c-7.703-4.344-17.738-9.271-20.453-8.289
		c-0.209-0.087-0.428-0.167-0.668-0.229c-0.566-0.146-0.956,0.403-0.835,0.857c-0.026,0.023-0.058,0.036-0.081,0.065
		c-2.856,3.464-6.571,5.948-9.993,8.818c-1.661,1.393-4.537,3.649-4.876,6.123c-0.446-0.51-0.9-1.011-1.44-1.389
		c-0.024-0.017-0.048-0.021-0.07-0.02c-2.735-3.774-6.315-7.096-10.726-9.979c-0.127-0.083-0.276-0.06-0.401,0.008
		c-0.313-0.156-0.71-0.163-1.055,0.108c-0.402,0.316-0.718,0.676-0.992,1.056c-0.235-0.206-0.634-0.228-0.814,0.116
		c-0.054,0.102-0.09,0.207-0.14,0.31c-7.617,1.714-15.089,5.811-19.473,12.162c-0.095-0.128-0.33-0.157-0.438,0.005
		c-2.388,3.609-6.265,5.735-8.923,9.115c-1.64,2.087-3.393,4.581-4.388,7.216c-0.402-0.248-1.003-0.155-1.346,0.156
		c-1.641,1.496-2.205,2.93-2.065,4.331c-0.26,0.071-0.499,0.243-0.626,0.562c-1.299,3.271,4.737,7.656,6.858,9.057
		c4.404,2.907,9.322,2.498,11.373-2.759c0.225-0.574-0.242-1.19-0.769-1.354c-5.113-1.602-9.688-3.555-12.359-8.173
		c1.827-3.772,3.474-7.454,6.631-10.47c1.428-1.364,2.796-2.534,3.945-3.9c-0.672,1.546-1.195,3.184-1.499,4.936
		c-0.136,0.787,0.941,1.104,1.204,0.332c1.8-5.286,4.467-9.731,8.682-13.432c3.646-3.202,8.544-3.842,12.572-6.124
		c-1.378,5.165,1.706,10.954,4.175,15.355c2.113,3.768,4.968,5.905,8.01,1.95c0.762-0.991,1.39-2.055,2.195-3.019
		c0.689-0.826,1.448-1.236,2.242-1.378c2.181,4.892,3.113,10.459,3.597,15.633c0.06,0.633,0.992,0.656,1.002,0
		c0.087-5.772-0.913-10.951-2.925-15.583c1.157,0.236,2.338,0.819,3.45,1.377c1.846,0.926,4.281,2.127,6.362,1.194
		c5.061-2.268,6.578-10.093,6.561-15.85c0.531-2.192,0.6-4.171-0.143-5.564c0.559,0.145,1.114,0.291,1.611,0.494
		c2.739,1.118,5.376,2.469,8.009,3.813c5.873,2.997,12.279,5.3,17.667,9.126c0.545,0.387,1.129-0.445,0.692-0.897
		c-0.195-0.202-0.677-0.563-1.363-1.03c3.442,1.848,6.481,4.499,9.938,6.197c0,0.004-0.002,0.008-0.002,0.012
		c0.16,5.041-2.71,8.26-5.134,12.109c-2.286-1.308-4.692-2.519-7.176-3.265c-2.859-0.859-5.54-1.211-8.291-2.477
		c-0.189-0.087-0.37,0.053-0.335,0.258c0.381,2.238,3.875,2.945,5.694,3.43c2.24,0.596,4.273,1.189,6.358,2.279
		c0.937,0.489,1.828,1.012,2.752,1.467c-0.111,0.203-0.224,0.405-0.33,0.613c-0.297,0.586-0.054,1.094,0.357,1.33
		c-0.145,0.556,0.146,1.172,0.625,1.531c4.461,3.354,8.206-3.084,9.986-6.35C253.604,178.585,255.457,176.091,255.069,173.888z
		 M186.488,173.418c-3.456-4.084-9.655-13.71-5.639-17.572c2.063,3.984,7.14,6.085,9.852,9.658c0.271,0.355,0.528,0.72,0.777,1.09
		C189.266,168.48,188.032,171.017,186.488,173.418z M210.183,154.573c-0.025,0.375-0.055,0.822-0.092,1.312
		c-0.649,4.733-4.688,11.329-6.691,14.321c-2.836-1.576-5.708-3.403-8.936-3.757c0.36-2.959,5.335-6.074,7.229-7.567
		c2.429-1.917,6.277-4.076,7.606-7.049c0.605,0.696,0.872,1.633,0.889,2.724C210.187,154.562,210.184,154.566,210.183,154.573z"/>
	<path fill="#BD1622" d="M220.831,177.532c0.223-1.61,0.535-3.233,0.428-4.855c-0.048-0.721-1.034-0.875-1.261-0.17
		c-0.162,0.506-0.269,1.022-0.358,1.541c-0.577-1.245-1.248-2.448-1.91-3.683c-0.636-1.186-2.359-0.144-1.785,1.044
		c2.046,4.233,4.178,8.206,4.414,13.006c0.025,0.498,0.779,0.645,0.898,0.122C221.79,182.197,221.508,179.831,220.831,177.532z"/>
	<path fill="#BD1622" d="M171.121,179.482c-0.798,1.556-1.791,2.987-2.686,4.481c-0.298-0.749-0.684-1.48-1.132-2.205
		c-0.629-1.016-2.188-0.11-1.602,0.937c0.714,1.275,1.308,2.419,1.439,3.909c0.008,0.09,0.035,0.174,0.067,0.256
		c0.044,0.422,0.068,0.861,0.068,1.335c-0.001,0.229,0.088,0.413,0.225,0.548c-0.615,2.146-1.135,4.322-1.613,6.5
		c-0.1,0.453,0.58,0.799,0.787,0.332c2.206-4.979,3.733-10.178,6.35-14.98C173.707,179.343,171.768,178.222,171.121,179.482z"/>
	<path fill="#F8B133" d="M160.632,53.197c-14.029-7.576-19.135,13.748-26.409,21.579c-1.924,1.658-4.586,2.104-6.843,3.239
		c-0.407,0.205-0.372,0.711-0.131,1.016c6.169,7.792,18.847-1.083,21.795-7.955c0.265-0.618-0.489-1.06-0.896-0.523
		c-3.491,4.606-8.836,9.48-14.816,10.083c-1.784,0.18-3.324-0.622-4.581-1.81c0.033,0.032,2.885-1.245,3.455-1.485
		c1.107-0.467,2.085-1.019,2.629-1.933c9.981-6.094,9.777-26.402,25.343-21.134C160.815,54.489,161.215,53.512,160.632,53.197z"/>
	<path fill="#F8B133" d="M211.664,35.022c-4.127-0.404-8.176,0.299-12.25,0.959c-0.506,0.082-0.343,0.817,0.114,0.846
		c1.339,0.086,2.637-0.016,3.93-0.182c0.015,0.196,0.111,0.391,0.31,0.525c1.088,0.737,0.731,2.173,0.264,3.181
		c-0.212,0.458-0.587,1.17-1.063,1.588c-0.216,0.087-0.434,0.171-0.646,0.261c-5.586,2.352-11.342,5.428-17.516,5.714
		c-0.285,0.014-0.28,0.418,0,0.439c6.304,0.478,12.237-2.313,17.925-4.669c4.037-1.672,8.916-3.168,9.513-8.084
		C212.284,35.266,211.947,35.05,211.664,35.022z"/>
	<path fill="#F8B133" d="M250.95,92.823c-1.828-4.146-5.785-10.577-10.014-13.309c2.454,0.206,4.844-0.425,6.525-2.345
		c0.209-0.239,0.23-0.702-0.11-0.854c-6.032-2.702-8.284-7.117-10.807-12.9c-0.218-0.499-1.022-0.141-0.867,0.366
		c1.795,5.881,4.958,10.316,10.363,13.094c-4.14,2.736-10.255,0.445-13.692-2.471c-0.272-0.231-0.6,0.112-0.386,0.386
		c1.565,2.004,4.219,3.668,7.006,4.387c-0.063,0.143-0.064,0.313,0.048,0.487c1.117,1.75,2.866,3.108,4.271,4.633
		c2.553,2.768,4.702,5.905,6.503,9.205c1.121,2.054,1.764,4.198,1.973,6.519c0.032,0.361-0.591,5.229-1.197,4.648
		c-2.993-2.863-5.151-6.462-8.034-9.413c-0.27-0.276-0.668,0.073-0.511,0.395c2.026,4.13,5.086,8.041,8.477,11.137
		c0.371,0.338,0.978,0.297,1.239-0.16C254.378,102.02,252.978,97.42,250.95,92.823z"/>
	<path fill="#F8B133" d="M152.561,164.448c-5.909-2.356-10.595-6.076-14.106-11.414c-3.198-4.86-0.973-8.096-0.025-12.624
		c0.302-0.801,0.532-1.653,0.674-2.568c0.132-0.854-1.008-1.195-1.306-0.36c-0.235,0.662-0.497,1.277-0.771,1.872
		c-0.222,0.356-0.422,0.766-0.6,1.197c-1.283,2.34-2.952,4.179-5.222,5.83c0.125-5.122-1.486-9.862-3.093-14.754
		c-1.465-4.464-1.991-9.076-4.486-13.106c1.906-1.056,3.413-2.671,4.119-5.154c0.203-0.714-0.85-1.174-1.205-0.508
		c-2.072,3.888-4.977,5.29-8.946,5.764c1.629-2.982,2.902-6.05,3.873-9.34c1.356-4.6,1.02-9.341,2.139-13.975
		c0.02-0.084-0.104-0.145-0.146-0.061c-1.564,3.249-1.859,6.896-2.607,10.395c-1.031,4.825-2.863,9.274-5.378,13.512
		c-0.296,0.499,0.077,1.246,0.693,1.207c2.323-0.147,4.677-0.538,6.682-1.449c2.149,4.072,2.84,8.646,4.025,13.057
		c1.457,5.426,3.229,10.307,2.587,16.04c-0.071,0.635,0.756,1.024,1.25,0.717c1.461-0.907,2.821-1.889,4.013-2.994
		c-0.266,1.788-0.072,3.602,0.528,5.364c2.328,6.834,10.166,12.968,16.938,14.692C153.081,166.013,153.374,164.772,152.561,164.448z
		"/>
	<path fill="#F8B133" d="M247.319,138.134c-1.045,1.908-1.859,4.054-3.278,5.724c-1.15,1.353-2.015-0.081-2.696-1.172
		c-0.601-0.961-1.084-1.991-1.629-2.984c0.091-0.676,0.196-1.357,0.32-2.045c0.872-4.839,2.338-9.569,3.456-14.354
		c0.182-0.776-0.935-1.076-1.187-0.327c-3.386,10.095-5.004,19.17-4.625,29.662c-3.396-1.245-7.313-3.76-8.542-7.118
		c-0.171-0.466-0.797-0.275-0.729,0.201c0.644,4.536,5.918,7.574,9.897,8.84c0.498,0.159,1.041-0.269,1.028-0.784
		c-0.098-4.226-0.214-8.164,0.175-12.241c0.794,2.1,1.968,4.74,4.184,4.321c1.268-0.239,2.195-1.884,2.803-2.863
		c0.855-1.376,1.503-2.828,1.996-4.367C248.715,137.932,247.667,137.499,247.319,138.134z"/>
	<path fill="#F8B133" d="M159.758,221.372c-1.193,0.575-2.206,1.463-3.355,2.123c-1.242,0.713-2.566,1.045-3.958,1.127
		c3.745-5.995,6.512-14.026,5.775-21.107c-0.094-0.904-1.511-1.27-1.709-0.231c-0.189,0.995-0.369,1.974-0.546,2.939
		c-0.926,0.55-1.838,1.016-2.951,1.307c-1.277,0.335-2.596,0.297-3.891,0.454c1.003-1.125,1.874-2.43,2.46-3.828
		c0.547-0.855,1.093-1.712,1.646-2.563c0.323-0.498-0.452-1.109-0.828-0.64c-0.271,0.339-0.533,0.684-0.798,1.026
		c-0.032,0.02-0.063,0.041-0.092,0.074c-1.509,1.74-2.472,3.878-3.837,5.73c-0.252,0.342-0.021,0.712,0.305,0.847
		c-0.002,0.278,0.159,0.571,0.448,0.667c1.884,0.619,4.826,0.569,7.037-0.394c-1.002,5.247-2.168,10.161-4.873,15.237
		c-0.321,0.604,0.049,1.137,0.537,1.298c0.063,0.122,0.163,0.228,0.307,0.286c3.233,1.307,7.521-0.434,9.345-3.332
		C161.208,221.714,160.393,221.066,159.758,221.372z"/>
	<path fill="#D5AD95" d="M150.25,213.96c-0.625-1.656-2.202-2.755-3.905-3.636c0.284-1.692,0.695-3.275,1.343-4.886
		c0.186-0.461-0.526-0.865-0.837-0.488c-1.103,1.341-1.594,3.125-1.562,4.855c-0.947-0.443-1.882-0.843-2.664-1.254
		c-0.38-0.199-0.798,0.296-0.469,0.607c1.573,1.49,3.715,2.339,5.416,3.684c0.881,0.695,1.974,1.707,1.373,2.936
		c-0.437,0.893-2.717,0.157-3.412,0.037c-0.009-0.002-0.016,0.001-0.024,0c-0.26-0.346-0.538-0.64-0.804-0.849
		c-0.341-0.269-0.886,0.065-0.635,0.489c0.577,0.977,1.945,2.932,0.836,3.988c-1.305,1.244-2.551-2.34-2.702-2.956
		c-0.173-0.703-1.081-0.457-1.161,0.157c-0.169,1.293-0.54,2.818-1.38,3.844c-0.813,0.99-1.672-0.198-1.694-1.094
		c-0.015-0.571,0.112-1.19,0.269-1.785c0.633-0.492,1.146-1.096,1.361-1.809c0.138-0.458-0.421-0.935-0.839-0.645
		c-0.96,0.664-1.752,1.441-2.853,1.902c-0.698,0.291-2.1,0.779-2.744,0.145c-0.261-0.258,0.079-0.996,0.183-1.233
		c0.412-0.942,1.012-1.653,1.854-2.239c1.431-0.993,3.228-1.442,4.777-2.23c0.206-0.104,0.15-0.426-0.063-0.481
		c-0.396-0.103-0.795-0.14-1.194-0.149c0.129-5.207,0.186-10.279,1.781-15.297c0.019-0.061-0.061-0.102-0.104-0.061
		c-3.696,3.639-2.808,10.634-2.616,15.412c-1.636,0.225-3.212,1.083-4.453,2.126c-1.29,1.083-2.398,3.263-1.633,4.912
		c0.623,1.343,2.57,1.214,3.739,0.954c0.521-0.115,1.092-0.318,1.645-0.588c-0.198,0.592-0.276,1.213-0.115,1.826
		c0.269,1.025,1.149,1.94,2.283,1.806c1.355-0.161,2.117-1.706,2.543-3.188c0.746,1.434,1.969,2.616,3.644,1.822
		c1.49-0.707,1.387-2.277,0.764-3.631c0.971,0.309,2.018,0.59,2.96,0.235C150.414,216.728,150.672,215.081,150.25,213.96z"/>
	<path fill="#D5AD95" d="M268.335,200.727c-0.002-0.004-0.002-0.007-0.004-0.011c-2.564-4.805-1.843-11.33-5.966-15.274
		c-0.194-0.187-0.509,0.051-0.373,0.288c2.604,4.53,2.794,9.869,5.098,14.463c-0.907-0.357-1.746-0.624-2.357-0.793
		c-0.595-0.164-1.001,0.73-0.427,1.012c1.836,0.904,3.725,1.815,5.394,3.006c0.688,0.49,3.072,2.965,0.697,3.281
		c-0.503,0.066-2.116-0.733-2.864-1.322c-0.181-0.342-0.371-0.645-0.556-0.871c-0.313-0.382-1.001-0.07-0.971,0.402
		c0.026,0.433,0.247,0.841,0.555,1.22c0.136,0.327,0.248,0.663,0.354,1.007c0.329,1.066-0.279,2.877-1.57,1.713
		c-0.822-0.74-1.292-2.193-1.417-3.38c0-0.054,0.002-0.109-0.001-0.161c-0.001-0.027-0.012-0.049-0.018-0.073
		c-0.007-0.11-0.017-0.222-0.018-0.325c-0.005-0.547-0.898-0.707-0.983-0.133c-0.021,0.135-0.035,0.277-0.044,0.425
		c-0.377,1.563-0.938,2.954-2.037,4.173c-1.516-0.604-1.923-1.623-1.223-3.056c0.212-0.63,0.447-1.251,0.705-1.863
		c0.758-1.896,0.811-3.677-0.038-5.562c-2.043-4.539-5.758-9.781-10.334-12.02c-0.149-0.072-0.302,0.108-0.181,0.235
		c3.17,3.319,6.223,6.497,8.456,10.56c1.379,2.51,1.4,4.729,0.313,7.326c-0.548,1.308-0.966,2.992-0.506,4.402
		c1.234,3.777,3.969,1.309,5.238-1.412c0.505,1.448,1.491,2.668,3.028,2.65c1.963-0.021,2.302-1.538,2.006-3.111
		c0.403,0.232,0.796,0.425,1.116,0.556c1.745,0.714,3.342-0.807,3.483-2.47C273.072,203.494,270.707,201.831,268.335,200.727z"/>
	<g>
		<path fill="#1D71B7" d="M221.989,202.229c1.652-5.894,0.317-12.288-0.901-18.196c-0.113-0.548-0.466-0.823-0.868-0.893
			c-0.109-0.139-0.242-0.27-0.418-0.379c-3.98-2.483-4.984-7.378-8.283-10.362c0.957-3.145,1.41-6.401,2.081-9.623
			c0.751-3.613,2.243-6.913,3.254-10.429c0.112-0.389-0.002-0.691-0.214-0.891c0.111-0.505-0.043-1.051-0.606-1.327
			c-9.258-4.541-11.894,12.646-12.749,19.509c-4.501-0.111-9.372,1.051-13.466,1.146c-1.676,0.039-3.935,0.033-6.181,0.286
			c-0.013-2.028-0.338-4.137-0.54-6.145c-0.224-2.227-0.478-4.59-1.404-6.652c-2.072-4.611-6.408-2.214-8.605,0.96
			c-0.106,0.154-0.14,0.299-0.145,0.438c-0.193,0.329-0.216,0.755,0.068,1.21c2.651,4.247,2.909,8.568,3.121,13.398
			c-0.064,0.087-0.139,0.166-0.199,0.258c-1.131,1.755-1.23,4.572-1.859,6.534c-1.406,4.386-4.074,7.189-7.535,10.031
			c-0.409,0.335-0.425,0.855-0.231,1.292c-2.18,5.659-2.738,11.72-2.562,17.755c0.142,4.813,0.741,10.679,3.273,15.006
			c-1.789,5.214-0.419,9.717,1.433,14.744c2.59,7.031,3.031,14.234,3.587,21.639c0.529,7.033-2.401,19.954,4.217,25.021
			c2.508,1.92,5.9,2.403,8.51,0.261c3.731-3.065,3.605-7.415,3.357-11.909c-0.348-6.281-0.275-12.664-0.06-18.949
			c0.103-2.975,0.278-6.031,0.803-8.965c0.564-3.161,2.67-3.92,5.411-4.023c1.931,9.096,2.056,18.523,1.472,27.777
			c-0.223,3.525-1.724,12.921,2.457,15.021c7.502,9.624,13.687-7.604,15.138-12.872c1.639-5.945,2.323-11.943,3.198-18.032
			c1.234-8.581,2.898-15.616-0.146-23.842c2.521-2.495,4.379-9.226,4.939-12.673C222.292,212.465,221.88,204.371,221.989,202.229z"
			/>
		<path fill="#926037" d="M186.867,273.306c-0.289,0.029-0.593,0.143-0.893,0.378c-1.123,0.88-2.169,1.56-3.355,2.155
			c-1.973-1.963-4.779-2.459-6.634-0.543c-1.109-1.191-2.395-2.086-3.986-2.85c-1.114-0.534-2.211,0.328-1.992,1.531
			c0.842,4.649,3.789,13.701,0.077,17.9c-2.354,1.211-4.375,3.235-4.435,5.646c-4.01,6.559,8.631,8.368,13.001,7.536
			c4.771-0.908,7.264-4.201,8.392-8.664c1.77-7,1.955-15.025,2.123-22.217C189.193,272.969,187.51,272.527,186.867,273.306z"/>
		<path fill="#926037" d="M209.894,295.112c-0.008-3.78,0.036-7.564,0.997-11.245c0.739-2.829,1.893-5.307,1.682-8.285
			c-0.081-1.149-1.509-1.956-2.399-0.993c-1.381,1.493-2.867,2.649-4.543,3.656c-1.117-2.704-3.962-3.959-6.103-2.111
			c-0.612-0.958-1.274-1.883-1.949-2.812c-0.019-0.108-0.034-0.218-0.052-0.325c-0.265-1.527-2.382-0.988-2.513,0.34
			c-0.573,5.809-0.022,11.577,0.263,17.371c-0.193,2.137-0.42,4.283-0.638,6.458c-0.077,0.777-0.414,4.388,0.527,5.762
			c0.002,0.012-0.005,0.022-0.003,0.034c0.742,3.82,5.555,4.388,8.848,4.54c2.521,0.116,9.603,0.01,10.333-3.239
			c0.024-0.109,0.017-0.22,0.015-0.33c0.34-0.269,0.588-0.652,0.618-1.127C215.222,298.995,212.974,296.303,209.894,295.112z"/>
		<path fill="#7D4E24" d="M188.525,273.007c-4.385-1.133-6.563,1.314-7.703,4.854c-1.3-0.379-2.704-0.541-3.938-0.349
			c-0.186-0.946-0.514-1.815-1.099-2.472c-0.274-0.307-0.665,0.031-0.617,0.359c0.128,0.877,0.235,1.705,0.327,2.521
			c-0.626,0.295-1.152,0.732-1.519,1.342c-0.238,0.396,0.267,0.986,0.673,0.674c0.327-0.252,0.654-0.438,0.981-0.587
			c0.061,0.774,0.104,1.544,0.104,2.323c-0.648,0.176-1.285,0.42-1.895,0.729c-0.559,0.283-0.167,1.213,0.427,1.012
			c0.492-0.166,0.967-0.285,1.436-0.383c-0.044,0.861-0.134,1.748-0.278,2.684c-0.004,0.029-0.01,0.063-0.015,0.092
			c-0.22,0.131-0.407,0.371-0.452,0.597c-0.216,0.146-0.271,0.402-0.157,0.634c0.001,0.002,0.003,0.005,0.004,0.007
			c0.056,0.112,0.188,0.186,0.317,0.21c0.018,0.025,0.033,0.053,0.056,0.076c-0.097,0.812-0.12,1.663,0.14,2.342
			c-3.373-0.021-6.689,1.362-8.486,4.391c-0.104,0.177-0.104,0.354-0.048,0.511c-1.397,1.246-1.782,2.88-0.474,4.526
			c3.088,6.446,16.836,5.529,20.054-0.236c0.302-0.54-0.384-1.028-0.828-0.64c-4.874,4.267-14.18,6.058-18.556,0.203
			c-1.052-2.694,3.148-4.066,5.674-4.549c3.529-0.675,8.234-0.53,11.273,1.581c0.501,0.35,1.099-0.321,0.81-0.81
			c-0.992-1.677-2.507-2.938-4.25-3.778c0.129-0.855,0.218-1.717,0.295-2.58c0.412,0.267,0.77,0.633,1.262,0.709
			c0.392,0.063,0.941-0.094,1.006-0.57c0.185-1.361-0.771-2.108-2.075-2.498c0.059-0.77,0.126-1.538,0.205-2.305
			c0.541,0.242,1.083,0.523,1.631,0.877c0.569,0.366,1.147-0.445,0.703-0.912c-0.64-0.671-1.365-1.182-2.145-1.546
			c0.09-0.612,0.216-1.221,0.363-1.823c0.676,0.302,1.35,0.604,2.02,0.835c0.718,0.249,1.191-0.719,0.71-1.22
			c-0.518-0.537-1.285-1.033-2.175-1.437c0.176-0.464,0.37-0.919,0.6-1.36c1.188-2.281,3.385-2.735,5.641-3.373
			C188.848,273.576,188.857,273.093,188.525,273.007z M170.985,292.618c0.596-0.271,1.213-0.476,1.84-0.627
			c0.011,0.076,0.028,0.149,0.06,0.22C172.235,292.327,171.594,292.459,170.985,292.618z M179.251,290.358
			c-0.869-0.301-1.772-0.515-2.689-0.615c0.215-0.637,0.322-1.366,0.38-2.123c0.655-0.01,1.311,0.003,1.96,0.07
			c0.177,0.018,0.356,0.063,0.535,0.102C179.379,288.733,179.324,289.604,179.251,290.358z M179.575,285.647
			c-0.885-0.107-1.799-0.111-2.574-0.068c-0.007-0.948-0.037-1.86-0.007-2.617c0.002-0.033,0.004-0.073,0.005-0.107
			c0.958-0.066,1.885,0.014,2.799,0.263C179.704,283.97,179.634,284.821,179.575,285.647z M179.996,281.571
			c-0.948-0.229-1.94-0.277-2.93-0.158c0.034-0.781,0.051-1.618,0.001-2.441c1.096-0.09,2.19,0.221,3.281,0.655
			C180.21,280.26,180.094,280.912,179.996,281.571z"/>
		<path fill="#7D4E24" d="M209.753,294.884c-1.463-0.641-3.089-1.109-4.73-1.295c0.055-0.377,0.079-0.76,0.115-1.141
			c0.249,0.078,0.501,0.146,0.765,0.184c0.819,0.115,1.288-0.682,0.778-1.338c-0.357-0.461-0.841-0.793-1.393-1.029
			c0.041-1.086,0.07-2.174,0.116-3.259c0.169,0.077,0.342,0.149,0.521,0.208c0.607,0.199,1.106-0.525,0.805-1.045
			c-0.312-0.537-0.724-0.941-1.198-1.242c0.067-0.693,0.183-1.383,0.324-2.066c0.629,0.216,1.263,0.402,1.942,0.433
			c0.64,0.028,0.874-0.761,0.491-1.186c-0.517-0.573-1.157-0.991-1.871-1.29c0.193-0.541,0.41-1.073,0.676-1.586
			c1.089-2.102,2.873-2.377,4.874-3.057c0.77-0.262,0.954-1.59,0-1.746c-4.209-0.693-6.453,2.1-7.564,5.866
			c-0.848-0.106-1.735-0.099-2.615-0.015c-0.594-4.061-2.172-7.512-5.553-8.318c-0.96-0.229-1.431,1.006-0.65,1.542
			c2.188,1.507,3.374,4.145,4.007,7.146c-0.922,0.222-1.782,0.509-2.506,0.826c-0.688,0.302-0.191,1.381,0.501,1.188
			c0.769-0.212,1.522-0.384,2.277-0.497c0.122,0.834,0.222,1.68,0.28,2.535c-0.822,0.275-1.576,0.65-2.164,1.074
			c-0.562,0.406-0.081,1.275,0.551,0.941c0.556-0.295,1.113-0.518,1.685-0.676c0.054,1.424,0.046,2.836,0.007,4.168
			c-0.672,0.199-1.281,0.459-1.76,0.762c-0.657,0.416-0.242,1.531,0.541,1.285c0.391-0.122,0.771-0.229,1.152-0.323
			c-0.033,0.755-0.071,1.479-0.104,2.14c-0.872,0.305-1.701,0.737-2.456,1.336c-0.75,0.596,0.06,1.822,0.908,1.562
			c5.142-1.585,10.168-0.112,14.271,3.17c0.114,0.334,0.214,0.674,0.298,1.037c0.102,0.436,0.236,0.979,0.551,1.323
			c-0.178,0.406-0.446,0.821-0.831,1.242c-2.032,2.227-7.151,1.316-9.662,0.823c-3.073-0.604-5.93-1.863-8.049-4.198
			c-0.204-0.225-0.491,0.021-0.455,0.265c0.583,3.996,7.5,5.264,10.593,5.708c3.687,0.53,8.415,0.328,10.147-3.56
			C217.012,299.093,212.525,296.097,209.753,294.884z M203.496,282.155c0.15,0.023,0.297,0.057,0.443,0.092
			c-0.126,0.668-0.225,1.354-0.299,2.041c-0.505-0.063-1.029-0.062-1.556-0.008c-0.008-0.756-0.042-1.513-0.102-2.26
			C202.48,282.03,202.982,282.073,203.496,282.155z M203.482,289.847c-0.562-0.043-1.14-0.025-1.711,0.045
			c0.153-1.281,0.264-2.672,0.303-4.096c0.073,0,0.143-0.011,0.217-0.008c0.441,0.014,0.834,0.121,1.208,0.27
			C203.428,287.37,203.431,288.66,203.482,289.847z M201.128,293.765c0.137-0.609,0.27-1.311,0.393-2.073
			c0.237-0.022,0.476-0.04,0.724-0.038c0.494,0.001,0.946,0.109,1.383,0.254c0.058,0.588,0.125,1.131,0.199,1.603
			C202.911,293.488,202.005,293.571,201.128,293.765z"/>
		<path fill="#004F71" d="M209.061,233.062c-7.311,5.672-15.59,10.195-25.117,10.314c-1.009,0.012-0.981,1.468,0,1.547
			c1.229,0.098,2.486,0.109,3.757,0.044c-1.372,2.633-1.677,5.493-1.854,8.495c-0.325,5.466-0.958,9.088-5.286,12.842
			c-0.715,0.619,0.204,1.746,0.99,1.283c2.197-1.291,3.583-3.012,4.486-4.984c0.27,3.391,0.869,6.781,0.853,10.173
			c-0.004,0.91,1.371,0.903,1.406,0c0.173-4.433-0.6-8.769-0.726-13.19c-0.14-4.921,1.273-9.791,1.424-14.715
			c1.646-0.152,3.305-0.445,4.942-0.857c-0.02,0.068-0.025,0.138-0.026,0.207c-0.174,0.822,0.149,1.631,0.311,2.518
			c0.407,2.236,0.829,4.471,1.368,6.68c0.139,0.571,0.308,1.156,0.492,1.741c-0.599,5.384-0.315,10.794-0.377,16.214
			c-0.013,1.131,1.67,1.109,1.74,0c0.282-4.481,0.055-8.969-0.253-13.443c0.938,1.872,2.239,3.525,4.115,4.447
			c0.632,0.311,1.287-0.46,0.767-0.993c-2.886-2.956-4.14-6.246-5.086-10.206c-0.27-1.129-0.396-3.205-0.862-4.924
			c1.53,1.041,3.68,1.869,4.421,2.127c0.955,0.334,1.607-1.203,0.69-1.637c-1.139-0.539-2.273-1.104-3.365-1.736
			c1.063,0.023,2.128,0.084,3.193,0.113c0.929,0.025,1.162-1.021,0.718-1.588c1.452-0.379,2.81-0.947,3.783-1.898
			c0.615-0.602-0.028-1.496-0.787-1.352c-1.313,0.25-2.527,0.906-3.827,1.264c-0.248,0.067-0.501,0.123-0.752,0.18
			c3.896-1.888,7.363-4.547,9.801-7.939C210.432,233.184,209.547,232.685,209.061,233.062z"/>
		<path fill="#004F71" d="M173.489,226.332c-0.199-0.501-1.021-0.48-1,0.136c0.099,2.932-1.137,5.479-3.232,7.485
			c-0.279,0.269-0.162,0.606,0.08,0.775c0.123,0.532,0.698,1.005,1.298,0.637C173.73,233.47,174.795,229.622,173.489,226.332z"/>
		<path fill="#004F71" d="M212.64,226.71c-0.919-0.701-1.867-1.361-2.708-2.158c-0.797-0.756-1.278-1.826-2.138-2.484
			c-0.26-0.199-0.755,0-0.801,0.326c-0.024,0.176-0.025,0.348-0.014,0.519c-0.413-0.279-1.049,0.199-0.781,0.747
			c1.171,2.395,3.416,3.646,5.907,4.32C212.92,228.199,213.232,227.163,212.64,226.71z"/>
		<path fill="#004F71" d="M222.638,203.036c-0.005-0.027-0.054-0.021-0.078-0.033c0.019-0.072,0.025-0.149,0.002-0.234
			c-0.073-0.27-0.158-0.529-0.242-0.791c0.118-0.115,0.201-0.277,0.217-0.488c0.387-5.475-0.66-10.883-0.548-16.354
			c0.411-0.246,0.675-0.758,0.353-1.228c-1.303-1.9-3.022-3.157-4.864-4.51c-3.681-2.702-4.791-6.016-4.579-9.798
			c0.204-1.363,0.348-2.72,0.601-3.912c0.063-0.269,0.126-0.537,0.197-0.81c0.19-0.733-0.897-1.025-1.127-0.311
			c-0.36,1.117-0.592,2.246-0.811,3.38c-0.095,0.436-0.182,0.875-0.259,1.315c-0.079,0.402-0.159,0.804-0.252,1.207
			c-0.538,3.037-2.574,4.23-6.105,3.581c-1.216-1.763-1.075-4.889-0.98-6.985c0.252-5.545,3.053-10.407,4.913-15.492
			c0.056-0.151-0.159-0.265-0.265-0.154c-5.146,5.434-9.009,17.596-4.554,24.4c1.313,2.006,3.583,1.741,5.323,0.621
			c0.828-0.533,1.433-1.239,1.896-2.043c0.137,0.587,0.328,1.163,0.604,1.721c1.753,3.536,5.298,5.383,8.029,8.076
			c-0.069,0.129-0.116,0.276-0.121,0.453c-0.126,4.724,0.356,9.4,0.852,14.084c-0.168-0.192-0.342-0.378-0.522-0.555
			c-0.72-0.848-1.606-1.561-2.734-2.073c-1.126-0.72-2.216,1.145-1.044,1.787c2.097,1.149,3.148,3.052,4.661,4.72
			c-1.271-0.12-2.622,0.363-3.135,1.63c-0.754,1.861,0.217,4.006,1.276,5.651c-1.141,0.525-2.303,0.905-3.546,1.182
			c-0.166,0.036-0.348,0.203-0.376,0.375c-0.497,3.012,2.435,6.472,5.697,6.393c0.605-0.014,0.55-1.559,0.581-2.25
			c0.182-3.959,0.727-9.77,0.823-11.673C222.542,203.527,222.679,203.318,222.638,203.036z"/>
		<path fill="#004F71" d="M207.464,190.333c0.34-0.339,0.635-0.703,0.888-1.09c1.913-1.666,2.631-4.107,0.791-7.692
			c-0.063-0.122-0.15-0.191-0.246-0.236c-0.015-0.524-0.586-1.021-1.233-0.745c-8.154,3.47-16.188,3.251-24.842,2.563
			c-0.348-0.028-0.563,0.221-0.632,0.51c-0.002,0.004-0.003,0.008-0.005,0.012c-0.247-0.103-0.578-0.013-0.68,0.305
			c-1.164,3.607-0.517,5.83,1.101,7.176c0.277,0.444,0.598,0.852,0.957,1.223c-0.343,3.538-0.204,7.406,1.643,10.51
			c2.049,3.444,6.742,3.947,10.32,4.063c9.753,0.316,15.979-7.506,11.956-16.574C207.477,190.345,207.469,190.342,207.464,190.333z
			 M203.125,202.8c-0.401,0.191-0.801,0.389-1.202,0.547c-1.084,0.426-2.225,0.656-3.385,0.721c-0.021,0-0.035,0.01-0.055,0.014
			c-1.169-0.018-2.287,0.174-3.494-0.085c-1.444-0.31-2.803-1.099-3.925-2.036c-2.274-1.899-2.88-4.309-2.467-6.929
			c4.944,1.224,11.262,0.096,14.943-2.333c0.868-0.322,1.675-0.705,2.39-1.156C207.71,196.663,206.332,200.536,203.125,202.8z
			 M197.282,191.067c-1.166,0.117-2.332,0.237-3.499,0.346c-5.213-0.256-9.792-2.211-10.16-6.779
			c7.854,1.365,17.44,1.623,24.493-2.429C209.644,189.646,203.189,190.48,197.282,191.067z"/>
		<path fill="#004F71" d="M172.06,208.552c-5.553-2.648-9.415-11.807-5.02-16.668c0.163-0.18,0.069-0.553-0.218-0.525
			c-4.218,0.415-4.507,4.072-3.179,8.068c-0.036,0.055-0.075,0.104-0.101,0.171c-0.833,2.175-0.743,4.837-0.11,7.376
			c0.261,3.992,1.312,8.014,4.465,10.561c0.848,0.685,2.003-0.398,1.219-1.218c-0.961-1.003-1.687-2.08-2.254-3.208
			c0.021-0.057,0.026-0.123,0.002-0.201c-0.653-2.035-1.178-4.018-1.57-6.122c-0.04-0.216-0.068-0.431-0.098-0.646
			c-0.005-0.098-0.016-0.193-0.02-0.291c1.523,2.048,3.503,3.517,6.172,4.389C172.336,210.56,173.007,209.003,172.06,208.552z"/>
		<path fill="#004F71" d="M183.279,165.797c-0.043-0.208-0.361-0.155-0.362,0.049c-0.009,2.411,0.087,4.823,0.051,7.233
			c-0.029,1.974-1.946,9.787-4.713,5.012c-3.066-5.291-2.254-12.13-5.25-17.465c-0.182-0.323-0.756-0.099-0.61,0.257
			c1.542,3.79,1.662,8.439,2.407,12.445c0.521,2.806,1.182,7.188,4.495,7.924C186.804,182.923,183.994,169.258,183.279,165.797z"/>
		<path fill="#66C5EE" d="M180.804,172.846c-0.153-0.248-0.392-0.319-0.61-0.267c-0.231-0.499-0.874-0.805-1.324-0.301
			c-0.843,0.945-1.086,3.411,0.558,3.765c0.731,0.157,1.301-0.31,1.518-0.979C181.138,174.465,181.13,173.373,180.804,172.846z"/>
		<path fill="#66C5EE" d="M208.189,168.266c-0.05-0.038-0.113-0.049-0.174-0.068c-0.255-0.282-0.702-0.387-0.988-0.036
			c-0.434,0.533-0.899,1.063-1.134,1.721c-0.261,0.727-0.088,1.391,0.219,2.071c0.238,0.529,0.891,0.542,1.339,0.351
			c0.729-0.309,1.376-0.871,1.515-1.687C209.104,169.81,208.853,168.772,208.189,168.266z"/>
	</g>
	<path fill="#D5AD95" d="M235.731,94.511c-1.484-2.923-3.302-6.134-5.979-8.149c-2.739-2.063-5.737-3.575-8.54-5.497
		c-0.072-0.115-0.154-0.223-0.23-0.335c-0.117-0.253-0.294-0.469-0.503-0.662c-0.104-0.125-0.203-0.255-0.317-0.374
		c-0.529-0.552-1.374-1.379-2.144-1.513c-0.307-0.054-0.659,0.125-0.814,0.389c-0.163-0.014-0.326-0.032-0.49-0.028
		c-0.762,0.02-0.73,1.084,0,1.16c0.057,0.006,0.109,0.028,0.164,0.039c0.813,1.448,1.8,2.789,2.526,4.281
		c-10.649,3.234-21.048,0.157-28.979-7.799c-0.417-0.418-1.159,0.128-0.828,0.639c5.468,8.449,22.229,14.469,31.112,8.184
		c0.434-0.307,0.368-0.959,0.003-1.198c0-0.093-0.018-0.189-0.061-0.288c-0.159-0.362-0.34-0.697-0.53-1.021
		c0.972,0.809,2.079,1.461,3.246,2.13c3.584,2.053,6.621,3.825,9.19,7.214c4.554,6.007,4.127,14.707,2.828,21.683
		c-1.356,7.29-4.365,14.245-8.502,20.36c-2.959,4.373-7.83,10.813-13.005,13.799c-0.029,0.004-0.058,0.002-0.088,0.014
		c-6.541,2.52-12.13,5.131-19.227,5.83c-6.4,0.631-12.841-0.422-18.96-2.27c-4.318-1.303-8.41-3.306-12.143-5.832
		c0.052-0.116,0.039-0.253-0.092-0.372c-2.997-2.721-6.016-5.293-8.617-8.413c-3.203-3.842-5.119-8.288-7.664-12.526
		c-0.054-0.09-0.127-0.125-0.203-0.136c-0.023-0.05-0.047-0.1-0.069-0.149c-0.157-0.338-0.619-0.082-0.563,0.237
		c2.358,13.291,14.556,23.667,26.472,28.465c2.482,1,5.051,1.736,7.664,2.247c-0.034,0.198,0.055,0.42,0.29,0.485
		c7.285,2.008,16.435,2.343,23.059-1.875c2.811-1.025,5.521-2.322,8.296-3.775c5.682-0.239,11.149-8.206,14.383-12.048
		c5.363-6.373,8.566-14.144,10.253-22.234C238.039,108.604,238.897,100.749,235.731,94.511z"/>
	<path fill="#B07F4A" d="M148.398,307.125c-0.91-4.066-7.093-4.522-10.662-4.809c2.304-9.037-8.378-13.823-15.837-8.984
		c-0.939-2.757-3.445-3.655-6.132-2.605c-0.241-0.284-0.493-0.55-0.758-0.788c-3.093-6.542-13.632-4.512-16.935,1.95
		c-2.33-1.206-4.723,0.323-6.135,2.739c-3.667-5.554-9.906-7.928-16.848-5.988c-7.389,2.066-12.432,9.608-9.801,17.033
		c-5.143-4.404-15.352,3.001-10.77,7.886c3.047,3.249,9.007,1.019,12.713,0.263c4.744-0.966,9.872-0.875,14.696-1.216
		c5.126-0.362,10.231-0.923,15.36-1.234c10.202-0.621,20.454-0.244,30.626,0.652c5.197,0.458,10.508,1.987,15.743,1.489
		C147.427,313.154,149.209,310.752,148.398,307.125z"/>
	<path fill="#7D4E24" d="M147.078,303.715c-1.345-0.998-2.924-0.541-4.295,0.389c-0.819-1.425-3.171-2.019-5.497-1.665
		c1.092-2.455,1.467-5.061,0.41-7.27c-1.304-2.723-4.406-4.758-7.474-4.865c-3.273-0.116-5.622,1.26-7.726,3.328
		c-0.943-2.873-4.01-4.523-6.39-3.162c-1.672-10.429-15.548-5.092-17.924,1.264c-2.351-1.273-5.879,0.027-7.253,2.856
		c-0.497-0.598-1.033-1.14-1.608-1.628c-5.016-6.109-15.245-7.613-21.095-1.528c-1.759,1.829-4.856,8.296-4.765,12.705
		c-0.552-0.213-1.114-0.357-1.649-0.407c-2.302-0.212-4.571,1.18-6.118,2.756c-1.499,1.526-2.563,3.602-2.258,5.775
		c0.355,2.527,3.071,3.299,5.229,3.035c0.594-0.072,0.81-0.931,0.149-1.104c-1.197-0.316-3.299-0.856-3.499-2.357
		c-0.197-1.477,0.785-2.965,1.728-4c1.111-1.22,2.666-2.195,4.346-2.283c0.814-0.042,1.55,0.213,2.229,0.646
		c0.114,0.071,0.205,0.162,0.304,0.246c0.256,0.561,0.627,1.024,1.133,1.364c0.084,0.118,0.166,0.238,0.254,0.353
		c-0.725,0.699-1.217,1.708-1.315,3.014c-0.052,0.682,1.061,0.831,1.19,0.161c0.666-2.659,2.309-3.362,4.928-2.109
		c0.79,0.47,1.448-0.426,1.144-1.144c-1.788-4.201,5.889-5.902,5.489-0.172c-0.063,0.906,1.281,1.24,1.695,0.46
		c1.353-2.549,3.714-3.086,5.85-0.865c0.486,0.506,1.314-0.015,1.146-0.667c-0.974-3.782-4.773-3.227-7.123-1.184
		c-1.544-5.01-9.507-3.435-8.998,1.509c-0.487-0.106-0.965-0.137-1.427-0.107c-4.438-3.872-1.142-10.715,2.529-14.446
		c3.281-3.336,8.664-3.295,12.556-1.344c3.521,1.766,5.029,5.245,7.317,8.162c0.544,0.693,1.413,0.209,1.642-0.468
		c0.501-0.146,0.924-0.559,0.874-1.137c-0.154-1.779,0.473-3.298,2.212-4.027c1.692-0.71,2.513,0.755,3.115,2.045
		c-1.718,0.831-2.848,2.642-1.467,4.688c0.415,0.615,1.385,0.237,1.205-0.508c-0.439-1.824,0.569-2.85,1.655-2.935
		c0.204,0.163,0.442,0.162,0.637,0.063c0.918,0.254,1.697,1.229,1.454,3.046c-0.104,0.774,0.875,1.122,1.442,0.828
		c1.306-0.679,4.026-1.464,3.315,1.581c-0.204,0.874,0.991,1.782,1.643,0.956c1.738-2.204,4.978-2.72,5.985,0.398
		c0.209,0.648,1.365,0.807,1.475,0c0.595-4.377-4.134-4.819-7.18-3.145c-0.518-1.919-2.546-2.599-4.72-2.024
		c-0.161-2.365-1.616-3.353-3.205-3.426c-0.092-0.739-0.282-1.367-0.546-1.898c0.745-6.211,13.892-10.984,13.997,0.203
		c0.014,1.46,1.89,1.53,2.382,0.322c2.729-2.566,4.147-1.885,4.254,2.043c-0.2,1.028,1.104,2.057,1.914,1.114
		c1.806-2.1,3.553-4.062,6.518-4.452c3.794-0.498,7.169,2.751,6.582,6.411c-0.603,3.758-3.709,6.593-5.92,9.457
		c-0.657,0.851,0.601,1.994,1.443,1.442c1.818-1.188,3.848-3.3,5.312-5.722c2.219-0.203,5.7,0.003,3.599,2.777
		c-0.656,1.037,0.904,2.273,1.713,1.322c0.286-0.337,0.525-0.66,0.723-0.97c1.323-1.563,4.109-3.653,4.534,0.494
		c0.27,2.637-1.894,3.521-3.837,3.997c-2.454,0.601-5.5,0.214-7.933-0.213c-7.151-1.256-15.217-2.497-22.444-1.693
		c-0.751,0.083-0.74,1.065,0,1.16c4.315,0.551,8.705,0.47,13.043,0.963c3.95,0.448,7.848,1.552,11.805,1.865
		c3.584,0.284,7.804,0.379,10.4-2.503C149.902,309.278,149.346,305.4,147.078,303.715z"/>
	<path fill="#3AA935" d="M126.491,229.556c0.024-0.189,0.066-0.363,0.078-0.564c0.037-0.666-0.313-1.074-0.777-1.26
		c-0.419-1.018-0.867-2.006-1.345-2.944c-0.53-1.042-2.011-0.679-2.333,0.305c-2.571,7.845-10.885,9.106-17.78,11.346
		c-5.303,1.722-9.611,5.104-12.872,9.452c-1.816-9.799-11.072-18.83-20.763-10.352c-0.814,0.712-1.546,1.506-2.225,2.346
		c-3.205,2.608-5.472,5.804-7.062,9.619c-2.249,5.399-4.658,11.357-10.628,12.902c-0.239,0.002-0.476,0.016-0.723-0.006
		c-0.31-0.027-0.576,0.1-0.788,0.297c-0.035,0.004-0.066,0.014-0.103,0.018c-1.145,0.129-1.194,1.904,0,1.828
		c0.025-0.002,0.048-0.006,0.072-0.008c12.595,10.213,23.415-9.291,36.333-5.893c-2.326,12.514-1.172,26.082,4.266,37.658
		c0.033,0.07,0.079,0.121,0.127,0.168c0.019,0.055,0.044,0.108,0.082,0.156c0.908,1.145,2.229,2.102,3.76,1.829
		c1.174-0.209,2.254-1.257,2.424-2.448c0.139-0.089,0.237-0.252,0.204-0.441c-2.304-13.156-5.473-24.93-2.401-38.276
		c9.073,6.136,22.076,5.323,29.796-2.791C129.727,246.3,129.206,237.214,126.491,229.556z"/>
	<path fill="#008C36" d="M124.156,222.706c-0.271-0.525-0.712-0.697-1.141-0.641c-0.558-0.191-1.202-0.031-1.314,0.703
		c-0.719,4.691-1.061,7.366-5.623,9.762c-4.083,2.145-8.877,2.938-13.258,4.27c-5.464,1.66-10.218,4.428-11.584,9.003
		c-0.151-0.077-0.337-0.083-0.482-0.005c0.137-9.74-9.406-17.343-19.057-13.112c-11.582,5.077-11.016,23.371-23.506,27.128
		c-0.026-0.032-0.054-0.06-0.08-0.092c-0.375-0.455-1.208,0.031-0.999,0.581c2.688,7.075,9.385,7.372,15.615,4.737
		c7.165-3.031,14.803-10.094,22.912-7.88c0.229,0.062,0.448,0.034,0.652-0.034c-3.111,16.215-1.574,42.887,8.889,38.884
		c1.172-0.448,1.123-2.458-0.318-2.349c-8.47,0.65-7.824-15.911-7.805-21.325c0.021-5.69,0.422-11.96,1.73-17.844
		c0.302-0.378,0.447-0.882,0.303-1.327c0.014-0.054,0.023-0.108,0.037-0.162c0.165-0.199,0.24-0.451,0.175-0.728
		c0.256-0.953,0.537-1.894,0.851-2.813c0.083-0.095,0.153-0.209,0.191-0.365c0.038-0.164,0.064-0.326,0.099-0.488
		c0.064-0.177,0.115-0.361,0.182-0.537c0.02,0.328,0.03,0.656,0.049,0.983c-0.123,0.091-0.214,0.227-0.213,0.409
		c0.004,1.199,0.145,2.275,0.395,3.246c0.292,6.543,0.403,13.111,0.447,19.646c0.039,5.973-0.139,13.449,3.935,18.27
		c0.56,0.662,1.507-0.182,1.146-0.885c-3.418-6.648-2.775-14.107-2.62-21.344c0.079-3.71,0.028-7.488-0.299-11.232
		c5.145,4.754,15.721,3.325,22.209,0.832c6.368-2.447,11.421-7.333,13.137-14.019C130.643,236.834,127.376,228.95,124.156,222.706z
		 M88.221,250.095c-1.499-2.313-3.873-4.24-6.531-5.471c-1.235-1.994-2.989-3.787-4.609-5.269c-0.428-0.392-1.021,0.204-0.634,0.634
		c1.157,1.284,2.272,2.565,3.338,3.889c-1.996-0.639-4.07-0.875-5.999-0.578c-0.53,0.08-1.029,0.202-1.515,0.342
		c-1.601-0.898-3.35-1.398-5.16-1.799c-0.657-0.146-0.903,0.778-0.275,1c1.271,0.448,2.554,0.878,3.793,1.403
		c-3.796,1.743-6.226,5.294-8.77,8.739c-1.219,1.24-2.372,2.502-3.491,3.597c-0.205,0.2-0.126,0.505,0.072,0.646
		c-0.199,0.477,0.334,1.129,0.82,0.755c0.784-0.604,1.506-1.273,2.2-1.971c2.438-1.579,4.552-3.977,6.952-5.425
		c2.183-1.316,4.619-1.59,7.066-1.231c-1.049,1.946-2.291,3.687-3.928,5.278c-0.625,0.607,0.283,1.447,0.932,0.933
		c1.922-1.524,3.631-3.569,4.521-5.904c3.623,0.897,7.161,3.003,9.819,5.004c-0.033,0.134-0.067,0.263-0.1,0.399
		c-4.661-3.849-12.42,0.982-16.663,3.279c-6.923,3.75-14.532,8.717-20.867,2.549c7.91-1.563,11.313-9.139,14.939-15.736
		c2.967-5.398,6.61-10.895,13.414-11.227c7.758-0.379,10.517,8.949,11.122,14.939c0.003,0.035,0.021,0.063,0.027,0.097
		C88.534,249.319,88.376,249.702,88.221,250.095z M117.143,234.809c1.831-0.966,3.577-2.155,4.896-3.585
		c-0.054,0.728-0.114,1.454-0.258,2.152c-0.172,0.84-0.399,1.666-0.631,2.492c-1.619,2.956-3.815,5.279-6.397,7.066
		c-1.026,0.545-2.124,1.041-3.242,1.522C113.909,241.61,115.395,238.089,117.143,234.809z M92.839,250.743
		c0.192-9.756,10.497-11.217,18.53-13.601c1.246-0.37,2.65-0.87,4.063-1.5c-1.787,3.192-3.066,6.691-5.479,9.475
		c-1.461,0.595-2.952,1.172-4.426,1.771c-0.488,0.114-0.979,0.221-1.477,0.313c-1.002,0.188-2.103,0.362-3.229,0.565
		c0.041-0.049,0.083-0.101,0.124-0.148c1.242-1.44,2.547-2.926,3.302-4.695c0.278-0.652-0.57-1.195-0.972-0.567
		c-0.954,1.491-2.249,2.854-3.348,4.245c-0.427,0.541-0.859,1.076-1.29,1.613C96.504,248.714,94.42,249.438,92.839,250.743z
		 M94.57,253.466c0.25-0.199,0.494-0.41,0.735-0.623c0.144-0.086,0.282-0.178,0.416-0.273c0.018-0.007,0.035-0.012,0.053-0.018
		c-0.479,0.471-0.922,0.973-1.322,1.508C94.47,253.853,94.508,253.654,94.57,253.466z M115.385,255.065
		c-5.913,2.852-14.986,4.403-20.172,0.425c2.516-2.563,5.594-4.103,8.83-5.378c3.727,0.588,7.478,1.063,11.144,1.962
		c0.694,0.17,0.979-0.866,0.294-1.068c-3.131-0.921-6.315-1.299-9.527-1.62c0.933-0.34,1.87-0.674,2.808-1.011
		c0.504-0.12,0.996-0.253,1.461-0.413c2.714-0.941,5.538-2.306,7.9-4.158c1.842,0.049,3.671,0.073,5.519-0.035
		c0.691-0.04,0.691-1.031,0-1.072c-1.397-0.082-2.784-0.084-4.174-0.063c1.729-1.642,3.095-3.601,3.793-5.922
		c0.061-0.202,0.046-0.386,0.004-0.557c0.163-0.479,0.294-0.965,0.413-1.453c0.472-1.251,0.807-2.555,0.886-3.816
		C127.363,240.423,126.265,249.817,115.385,255.065z"/>
</g>
</svg>
