<?xml version="1.0" encoding="utf-8"?>
<!-- Generator: Adobe Illustrator 16.0.0, SVG Export Plug-In . SVG Version: 6.00 Build 0)  -->
<!DOCTYPE svg PUBLIC "-//W3C//DTD SVG 1.1//EN" "http://www.w3.org/Graphics/SVG/1.1/DTD/svg11.dtd">
<svg version="1.1" id="Layer_1" xmlns="http://www.w3.org/2000/svg" xmlns:xlink="http://www.w3.org/1999/xlink" x="0px" y="0px"
	 width="350px" height="350px" viewBox="0 0 350 350" enable-background="new 0 0 350 350" xml:space="preserve">
<path fill="#CCD1D9" d="M136.413,195.765l-21.373,21.369c-1.967,1.971-1.967,5.159,0,7.129l10.685,10.685
	c0.944,0.944,2.225,1.476,3.564,1.476c1.335,0,2.616-0.531,3.561-1.476l21.369-21.369
	C147.445,208.546,141.442,202.538,136.413,195.765z"/>
<path fill="#E6E9ED" d="M205.227,235.457L205.227,235.457c-24.222,0-46.99-9.431-64.117-26.558s-26.561-39.898-26.561-64.116
	c0-24.225,9.434-46.997,26.561-64.124c17.127-17.12,39.895-26.558,64.117-26.558c24.218,0,46.988,9.431,64.123,26.557
	c17.119,17.126,26.55,39.898,26.55,64.124c0,24.218-9.431,46.99-26.55,64.117C252.215,226.026,229.444,235.457,205.227,235.457
	L205.227,235.457z M205.227,64.182c-21.533,0-41.77,8.383-56.992,23.606c-15.223,15.223-23.609,35.464-23.609,56.996
	c0,21.524,8.383,41.766,23.609,56.988c15.223,15.23,35.459,23.612,56.992,23.612l0,0c21.531,0,41.766-8.39,56.995-23.612
	c15.223-15.223,23.605-35.464,23.605-56.988c0-21.532-8.383-41.772-23.605-56.996C246.992,72.565,226.758,64.182,205.227,64.182z"/>
<g>
	<path fill="#AC92EB" d="M171.932,199.092c-0.919,0-1.845-0.242-2.675-0.767c-2.358-1.483-3.066-4.59-1.586-6.951
		c4.575-7.275,2.295-17.761-0.118-28.874c-2.28-10.486-4.634-21.325-1.882-31.561c3.225-11.961,12.785-20.433,29.225-25.886
		c11.128-3.697,22.308-1.572,32.32,6.14c8.434,6.485,15.393,16.455,20.145,28.837c4.745,12.39,6.818,26.055,5.992,39.522
		c-0.177,2.774-2.568,4.885-5.343,4.723c-2.774-0.178-4.885-2.561-4.723-5.343c1.476-23.982-7.66-48.554-22.21-59.756
		c-7.351-5.66-15.091-7.194-23.009-4.56c-13.164,4.369-20.362,10.39-22.667,18.942c-2.118,7.866-0.026,17.496,1.996,26.801
		c2.737,12.596,5.567,25.62-1.195,36.378C175.246,198.259,173.607,199.092,171.932,199.092z"/>
	<path fill="#AC92EB" d="M191.649,206.486c-0.576,0-1.151-0.096-1.728-0.302c-2.612-0.953-3.954-3.846-3.01-6.457
		c3.763-10.323,1.934-22.603,0.162-34.483c-1.254-8.479-2.45-16.5-1.417-23.31c1.314-8.67,6.162-14.308,14.404-16.772
		c6.153-1.83,12.116-0.694,17.237,3.299c4.59,3.579,10.965,11.518,15.215,29.036c2.789,11.467,4.089,24.868,3.587,36.769
		c-0.111,2.782-2.466,4.938-5.24,4.826c-2.781-0.117-4.942-2.465-4.825-5.246c0.9-21.333-4.545-49.358-14.927-57.438
		c-2.547-1.985-5.144-2.487-8.169-1.586c-8.884,2.649-8.648,10.449-5.896,28.948c1.859,12.5,3.962,26.674-0.657,39.404
		C195.633,205.217,193.708,206.486,191.649,206.486z"/>
	<path fill="#AC92EB" d="M211.365,206.486c-0.368,0-0.737-0.036-1.114-0.125c-2.708-0.613-4.42-3.306-3.8-6.022
		c4.914-21.79-2.266-43.905-2.34-44.126c-0.87-2.642,0.562-5.49,3.203-6.36c2.642-0.878,5.49,0.561,6.368,3.195
		c0.332,1.011,8.117,25.022,2.59,49.513C215.749,204.9,213.668,206.486,211.365,206.486z"/>
	<path fill="#AC92EB" d="M154.684,181.818c-2.516,0-4.689-1.881-4.996-4.442c-0.42-3.49-1.092-7.356-1.808-11.452
		c-2.398-13.762-5.382-30.881-0.332-46.083c2.823-8.5,7.933-15.695,15.19-21.392c8.017-6.287,18.975-10.972,32.572-13.924
		c15.894-3.454,30.918-0.672,43.447,8.036c7.275,5.055,13.666,12.123,18.469,20.44c4.354,7.527,7.254,15.71,8.405,23.672
		c0.391,2.752-1.521,5.306-4.28,5.697c-2.752,0.398-5.298-1.513-5.696-4.272c-1.579-11.024-8.463-27.406-22.653-37.264
		c-10.315-7.165-22.284-9.342-35.559-6.464c-22.348,4.855-35.542,14.219-40.334,28.645c-4.247,12.795-1.62,27.871,0.698,41.175
		c0.737,4.235,1.435,8.235,1.885,11.991c0.333,2.767-1.642,5.269-4.401,5.6C155.082,181.804,154.883,181.818,154.684,181.818z"/>
</g>
<path fill="#656D78" d="M139.705,231.67l-21.374-21.376c-0.944-0.944-2.224-1.476-3.563-1.476c-1.336,0-2.616,0.531-3.561,1.476
	L60,261.504c-3.804,3.801-5.9,8.862-5.9,14.241c0,5.387,2.096,10.449,5.9,14.249c3.807,3.808,8.866,5.903,14.249,5.903
	c5.383,0,10.445-2.096,14.249-5.903l51.207-51.203c0.944-0.944,1.476-2.228,1.476-3.563S140.649,232.615,139.705,231.67z"/>
</svg>
