<?xml version="1.0" encoding="utf-8"?>
<!-- Generator: Adobe Illustrator 16.0.0, SVG Export Plug-In . SVG Version: 6.00 Build 0)  -->
<!DOCTYPE svg PUBLIC "-//W3C//DTD SVG 1.1//EN" "http://www.w3.org/Graphics/SVG/1.1/DTD/svg11.dtd">
<svg version="1.1" id="Capa_1" xmlns="http://www.w3.org/2000/svg" xmlns:xlink="http://www.w3.org/1999/xlink" x="0px" y="0px"
	 width="350px" height="350px" viewBox="0 0 350 350" enable-background="new 0 0 350 350" xml:space="preserve">
<g>
	<path d="M195.416,175h-40.833v28.584H126v40.832h28.583V273h40.833v-28.584H224v-40.832h-28.584V175z M215.834,211.75v24.5H187.25
		v28.584h-24.5V236.25h-28.583v-24.5h28.583v-28.584h24.5v28.584H215.834z"/>
	<path d="M230.721,97.417C225.021,71.585,201.697,52.5,175,52.5c-26.697,0-50.021,19.085-55.721,44.917H52.5V150.5v8.167V297.5h245
		V158.667V150.5V97.417H230.721z M175,60.667c22.274,0,41.854,15.497,47.379,36.75h-94.758
		C133.146,76.163,152.726,60.667,175,60.667z M289.333,289.334H60.667V158.667h24.5V175H126v-16.333h98V175h40.834v-16.333h24.499
		V289.334z M117.833,150.5h-24.5v-8.167h24.5V150.5z M117.833,158.667v8.167h-24.5v-8.167H117.833z M256.666,150.5h-24.5v-8.167
		h24.5V150.5z M256.666,158.667v8.167h-24.5v-8.167H256.666z M264.834,150.5v-16.333H224V150.5h-98v-16.333H85.167V150.5h-24.5
		v-44.917h57.179h114.309h57.179V150.5H264.834z"/>
</g>
</svg>
