<?xml version="1.0" encoding="utf-8"?>
<!-- Generator: Adobe Illustrator 16.0.0, SVG Export Plug-In . SVG Version: 6.00 Build 0)  -->
<!DOCTYPE svg PUBLIC "-//W3C//DTD SVG 1.1//EN" "http://www.w3.org/Graphics/SVG/1.1/DTD/svg11.dtd">
<svg version="1.1" id="Layer_1" xmlns="http://www.w3.org/2000/svg" xmlns:xlink="http://www.w3.org/1999/xlink" x="0px" y="0px"
	 width="350px" height="350px" viewBox="0 0 350 350" enable-background="new 0 0 350 350" xml:space="preserve">
<g>
	<g>
		<g>
			<polygon fill="none" points="173.56,124.161 152.68,124.161 152.68,145.034 131.797,145.034 131.797,171.131 152.677,171.131 
				152.677,192.019 173.55,192.019 173.55,171.131 194.435,171.131 194.44,171.131 194.44,145.034 173.56,145.034 			"/>
		</g>
		<g>
			<path fill="#DDDDDD" d="M83.774,189.234v4.169c0,10.72,8.759,19.488,19.499,19.488h58.59v-23.657H83.774z"/>
			<path fill="#F2F2F2" d="M161.863,212.892h58.609c10.719,0,19.48-8.769,19.48-19.488v-4.169h-78.09V212.892z"/>
			<path fill="#DDDDDD" d="M161.863,103.277h-26.09v-0.043h-10.451v0.043h-22.05c-10.74,0-19.499,7.418-19.499,18.138v6.915h78.089
				V103.277z"/>
			<path fill="#F3F3F3" d="M220.473,103.277h-22.06h-10.441h-26.108v25.053h78.09v-6.915
				C239.953,110.695,231.191,103.277,220.473,103.277z"/>
			<polygon fill="#C23C2F" points="161.863,178.471 155.591,178.471 155.591,165.923 143.049,165.923 143.049,150.247 
				155.592,150.247 155.592,137.708 161.863,137.708 161.863,128.33 83.774,128.33 83.774,189.234 161.863,189.234 			"/>
			<polygon fill="#EE4540" points="161.863,137.708 168.134,137.708 168.134,150.247 180.678,150.247 180.678,165.923 
				180.676,165.923 168.129,165.923 168.129,178.471 161.863,178.471 161.863,189.234 239.953,189.234 239.953,128.33 
				161.863,128.33 			"/>
			<polygon fill="#ECECEC" points="155.592,150.247 143.049,150.247 143.049,165.923 155.591,165.923 155.591,178.471 
				161.863,178.471 161.863,137.708 155.592,137.708 			"/>
			<polygon fill="#FFFFFF" points="168.129,178.471 168.129,165.923 180.676,165.923 180.678,165.923 180.678,150.247 
				168.134,150.247 168.134,137.708 161.863,137.708 161.863,178.471 			"/>
		</g>
	</g>
	<g>
		<g>
			<g>
				<g>
					<g>
						<g>
							<path fill="#ECECEC" d="M141.816,101.057c0,1.299-1.051,2.349-2.347,2.349h-9.212c-1.294,0-2.348-1.05-2.348-2.349l0,0
								c0-1.294,1.054-2.346,2.348-2.346h9.212C140.765,98.711,141.816,99.763,141.816,101.057L141.816,101.057z"/>
							<path fill="#ECECEC" d="M195.683,101.057c0,1.299-1.054,2.349-2.345,2.349h-9.214c-1.298,0-2.346-1.05-2.346-2.349l0,0
								c0-1.294,1.048-2.346,2.346-2.346h9.214C194.629,98.711,195.683,99.763,195.683,101.057L195.683,101.057z"/>
						</g>
						<rect x="132.459" y="89.732" fill="#ECECEC" width="4.806" height="10.494"/>
						<rect x="186.328" y="89.732" fill="#ECECEC" width="4.801" height="10.494"/>
						<path fill="#2E3E57" d="M130.823,90.728c0,0,2.898-15.296,31.378-15.296c28.475,0,31.948,15.296,31.948,15.296h-10.143
							c0,0-1.424-9.159-21.52-9.159c-20.098,0-21.522,9.159-21.522,9.159H130.823z"/>
					</g>
				</g>
			</g>
		</g>
		<g>
			<path fill="none" d="M179.274,76.987c0.052,0.018,0.102,0.035,0.152,0.053l-0.152-0.084V76.987z"/>
		</g>
	</g>
	<g>
		<path d="M246.72,143.21c-11.075-5.941-24.733-5.073-40.597,2.578c-17.971,8.669-28.322,19.552-30.769,32.348
			c-0.001,0.007-0.003,0.015-0.004,0.022c1.182-1.034,3.464-3.223,5.932-6.604c4.253-8.598,13.089-16.17,26.378-22.581
			c11.589-5.591,21.821-7.345,30.529-5.255c2.734,0.035,6.658-0.205,8.807-0.355C246.904,143.313,246.812,143.26,246.72,143.21z"/>
		<g>
			<path d="M179.335,201.701c3.021,5.963,6.436,9.707,6.58,9.864l2.604-2.393c-0.129-0.141-12.799-14.202-9.688-30.398
				c0.478-2.48,1.298-4.888,2.451-7.22c-2.468,3.381-4.75,5.569-5.932,6.604C173.931,185.609,175.309,193.75,179.335,201.701z"/>
			<polygon points="267.491,184.293 269.242,184.051 267.491,184.292 			"/>
		</g>
		<path d="M246.996,143.363c-2.148,0.15-6.072,0.391-8.807,0.355c2.399,0.575,4.682,1.441,6.846,2.601
			c9.53,5.107,15.116,15.09,18.124,22.565c3.311,8.226,4.319,15.324,4.332,15.407l1.751-0.241l1.752-0.241
			c-0.041-0.303-1.062-7.534-4.519-16.157C261.901,156.243,255.169,147.854,246.996,143.363z"/>
		<g>
			<circle fill="#E5E5E5" cx="269.525" cy="183.905" r="10.774"/>
			<path d="M274.542,194.306c-5.734,2.767-12.651,0.353-15.418-5.384c-2.767-5.734-0.352-12.651,5.383-15.418
				c5.735-2.767,12.652-0.352,15.419,5.384C282.693,184.623,280.276,191.54,274.542,194.306z M265.18,174.897
				c-4.967,2.396-7.058,8.387-4.663,13.353c2.396,4.968,8.387,7.059,13.353,4.662c4.968-2.396,7.06-8.385,4.663-13.353
				C276.137,174.594,270.146,172.501,265.18,174.897z"/>
		</g>
		<circle fill="#B3B2B3" cx="269.525" cy="183.905" r="7.791"/>
		<g>
			<path fill="#B3B2B3" d="M218.275,273.299c-7.935,3.321-11.25-1.206-11.388-1.399l-20.187-28.57l2.17-1.533l20.187,28.57
				c0.08,0.105,2.315,2.942,8.19,0.481L218.275,273.299z"/>
			<path fill="#B3B2B3" d="M234.017,260.15c5.78-6.369,2.62-11.007,2.483-11.2l-20.188-28.572l-2.17,1.534l20.188,28.57
				c0.072,0.11,2.001,3.164-2.281,7.882L234.017,260.15z"/>
			
				<ellipse transform="matrix(-0.2508 -0.968 0.968 -0.2508 11.4374 551.7018)" fill="#292728" cx="219.219" cy="271.425" rx="3.014" ry="4.658"/>
			
				<ellipse transform="matrix(-0.8288 -0.5595 0.5595 -0.8288 278.9327 609.2014)" fill="#292728" cx="232.649" cy="261.936" rx="3.014" ry="4.658"/>
			<path fill="#C23C2F" d="M186.467,244.507c-0.179-0.253-4.407-6.28-6.907-13.684c-3.497-10.359-1.857-18.3,4.743-22.963
				c15.647-11.057,32.972,13.079,33.701,14.111l-3.254,2.301c-0.155-0.22-15.741-21.925-28.148-13.157
				c-5.084,3.592-6.183,9.794-3.267,18.432c2.317,6.86,6.347,12.604,6.387,12.661L186.467,244.507z"/>
		</g>
	</g>
	<g>
		<path fill="#D6D5D3" d="M91.457,177.911v-2.273h-0.375h-0.93h-0.723h-0.93h-0.722h-0.931h-0.722h-0.93h-0.722h-0.224v2.357
			c0.38-0.055,0.766-0.084,1.159-0.084H91.457z"/>
		<path fill="#C9C8C7" d="M97.69,175.638h-0.93h-0.723h-0.931h-0.722h-0.929h-0.723h-0.93h-0.347v2.273h6.049
			c0.393,0,0.779,0.029,1.159,0.084v-2.357h-0.252H97.69z"/>
		<path fill="#C9C8C7" d="M106.604,188.373c0-5.325-3.463-9.723-7.94-10.378c-0.379-0.055-0.766-0.084-1.159-0.084h-6.049v2.199
			v9.771h7.638c2.863,0,5.182,2.667,5.182,5.957v4.037c0,3.29-2.319,5.957-5.182,5.957h-7.638v8.377h14
			c0.419,0,0.779-0.268,0.97-0.66h0.042c0.006-0.039,0.009-0.079,0.015-0.118c0.056-0.154,0.089-0.326,0.089-0.505
			c0-0.054-0.009-0.104-0.014-0.157c0.028-0.314,0.046-0.631,0.046-0.954V188.373z"/>
		<path fill="#E8E4E2" d="M85.408,177.911c-0.393,0-0.778,0.029-1.159,0.084c-4.478,0.655-7.94,5.053-7.94,10.378v23.442
			c0,0.322,0.018,0.639,0.046,0.951c-0.006,0.053-0.014,0.105-0.014,0.16c0,0.181,0.032,0.352,0.091,0.507
			c0.005,0.038,0.008,0.077,0.013,0.116h0.042c0.191,0.393,0.551,0.66,0.971,0.66h14v-8.377h-7.638
			c-2.863,0-5.182-2.667-5.182-5.957v-4.037c0-3.29,2.319-5.957,5.182-5.957h7.638v-9.771v-2.199H85.408z"/>
		<path fill="#2E3E57" d="M78.637,195.839v4.037c0,3.29,2.319,5.957,5.182,5.957h7.638v-2.163h-7.143v-2.409h7.143v-2.003h-9.121
			v-2.409h9.121v-2.004h-9.121v-2.409h9.121v-2.554h-7.638C80.956,189.882,78.637,192.549,78.637,195.839z"/>
		<path fill="#32515E" d="M100.577,192.436v2.409h-9.12v2.004h9.12v2.409h-9.12v2.003H98.6v2.409h-7.143v2.163h7.638
			c2.863,0,5.182-2.667,5.182-5.957v-4.037c0-3.29-2.319-5.957-5.182-5.957h-7.638v2.554H100.577z"/>
		<rect x="82.336" y="192.436" fill="#46A5A4" width="9.121" height="2.409"/>
		<rect x="91.457" y="192.436" fill="#4EBBC0" width="9.12" height="2.409"/>
		<rect x="82.336" y="196.849" fill="#46A5A4" width="9.121" height="2.409"/>
		<rect x="91.457" y="196.849" fill="#4EBBC0" width="9.12" height="2.409"/>
		<rect x="91.457" y="201.261" fill="#4EBBC0" width="7.143" height="2.409"/>
		<rect x="84.314" y="201.261" fill="#46A5A4" width="7.143" height="2.409"/>
		<rect x="94.385" y="169.698" fill="#2E3E57" width="0.722" height="5.938"/>
		<rect x="94.746" y="175.276" fill="#4EBBC0" width="0.001" height="0.722"/>
		<rect x="92.733" y="169.698" fill="#2E3E57" width="0.723" height="5.938"/>
		<rect x="93.094" y="175.276" fill="#4EBBC0" width="0.001" height="0.723"/>
		<rect x="82.82" y="169.698" fill="#2E3E57" width="0.722" height="5.939"/>
		<rect x="84.473" y="169.698" fill="#2E3E57" width="0.722" height="5.938"/>
		<rect x="84.833" y="175.276" fill="#4EBBC0" width="0.001" height="0.722"/>
		<polygon fill="#2E3E57" points="91.457,169.698 91.082,169.698 91.082,175.637 91.457,175.637 91.804,175.637 91.804,169.698 		
			"/>
		<rect x="91.457" y="175.637" fill="#4EBBC0" width="0.347" height="0.001"/>
		<rect x="91.269" y="175.45" fill="#4EBBC0" width="0.001" height="0.375"/>
		<rect x="89.429" y="169.698" fill="#2E3E57" width="0.723" height="5.938"/>
		<rect x="89.79" y="175.276" fill="#4EBBC0" width="0.001" height="0.723"/>
		<rect x="96.038" y="169.698" fill="#2E3E57" width="0.723" height="5.938"/>
		<rect x="96.398" y="175.276" fill="#4EBBC0" width="0.001" height="0.723"/>
		<rect x="86.125" y="169.698" fill="#2E3E57" width="0.722" height="5.938"/>
		<rect x="86.485" y="175.276" fill="#4EBBC0" width="0.001" height="0.722"/>
		<rect x="97.69" y="169.698" fill="#2E3E57" width="0.722" height="5.938"/>
		<rect x="98.051" y="175.276" fill="#4EBBC0" width="0.001" height="0.722"/>
		<rect x="99.342" y="169.698" fill="#2E3E57" width="0.722" height="5.939"/>
		<rect x="87.777" y="169.698" fill="#2E3E57" width="0.722" height="5.938"/>
		<rect x="88.138" y="175.276" fill="#4EBBC0" width="0.001" height="0.722"/>
		<rect x="100.994" y="169.698" fill="#2E3E57" width="0.636" height="5.939"/>
		<rect x="81.284" y="169.698" fill="#2E3E57" width="0.606" height="5.939"/>
		<rect x="81.89" y="169.698" fill="#32515E" width="0.93" height="5.939"/>
		<polygon fill="#32515E" points="84.473,175.637 84.473,169.698 83.542,169.698 83.542,175.638 84.249,175.638 84.249,175.637 		
			"/>
		<rect x="84.249" y="175.637" fill="#75CCD5" width="0.224" height="0.001"/>
		<rect x="85.195" y="169.698" fill="#32515E" width="0.93" height="5.938"/>
		<rect x="85.659" y="175.172" fill="#75CCD5" width="0.001" height="0.93"/>
		<rect x="86.847" y="169.698" fill="#32515E" width="0.931" height="5.938"/>
		<rect x="87.312" y="175.172" fill="#75CCD5" width="0.001" height="0.931"/>
		<rect x="88.499" y="169.698" fill="#32515E" width="0.93" height="5.938"/>
		<rect x="88.964" y="175.172" fill="#75CCD5" width="0.001" height="0.93"/>
		<rect x="90.152" y="169.698" fill="#32515E" width="0.93" height="5.938"/>
		<rect x="90.616" y="175.172" fill="#75CCD5" width="0.001" height="0.93"/>
		<rect x="91.804" y="169.698" fill="#32515E" width="0.93" height="5.938"/>
		<rect x="92.268" y="175.172" fill="#75CCD5" width="0.001" height="0.93"/>
		<rect x="93.456" y="169.698" fill="#32515E" width="0.929" height="5.938"/>
		<rect x="93.92" y="175.173" fill="#75CCD5" width="0.001" height="0.929"/>
		<rect x="95.107" y="169.698" fill="#32515E" width="0.931" height="5.938"/>
		<rect x="95.572" y="175.172" fill="#75CCD5" width="0.001" height="0.931"/>
		<rect x="96.76" y="169.698" fill="#32515E" width="0.93" height="5.938"/>
		<rect x="97.225" y="175.172" fill="#75CCD5" width="0.001" height="0.93"/>
		<polygon fill="#32515E" points="98.664,175.637 98.664,175.638 99.342,175.638 99.342,169.698 98.412,169.698 98.412,175.637 		
			"/>
		<rect x="98.538" y="175.511" fill="#75CCD5" width="0.001" height="0.252"/>
		<rect x="100.064" y="169.698" fill="#32515E" width="0.929" height="5.939"/>
	</g>
	<g>
		<path fill="#EE4540" d="M82.637,212.015l0.721-0.563l-5.897-7.524l-2.876,2.254l4.206,5.367
			C79.724,212.739,81.446,212.948,82.637,212.015z"/>
		<path fill="#C23C2F" d="M83.358,211.451l0.72-0.564c1.191-0.934,1.399-2.656,0.466-3.848l-4.206-5.367l-2.877,2.255
			L83.358,211.451z"/>
		<path fill="#EFEFEF" d="M80.338,201.672l-5.073-6.474c-0.933-1.191-2.655-1.4-3.847-0.467l-0.72,0.564l6.763,8.631L80.338,201.672
			z"/>
		<path fill="#FFFFFF" d="M70.698,195.296l-0.72,0.564c-1.191,0.933-1.4,2.655-0.467,3.847l5.074,6.474l2.876-2.254L70.698,195.296z
			"/>
	</g>
</g>
</svg>
