<?xml version="1.0" encoding="utf-8"?>
<!-- Generator: Adobe Illustrator 16.0.0, SVG Export Plug-In . SVG Version: 6.00 Build 0)  -->
<!DOCTYPE svg PUBLIC "-//W3C//DTD SVG 1.1//EN" "http://www.w3.org/Graphics/SVG/1.1/DTD/svg11.dtd">
<svg version="1.1" id="Layer_1" xmlns="http://www.w3.org/2000/svg" xmlns:xlink="http://www.w3.org/1999/xlink" x="0px" y="0px"
	 width="350px" height="350px" viewBox="0 0 350 350" enable-background="new 0 0 350 350" xml:space="preserve">
<g>
	<g>
		<path fill="#BC240F" d="M276.733,161.49c-0.572-0.207-19.685-7.221-48.938-14.081c-0.736-0.173-1.489-0.346-2.241-0.518
			c-3.265-0.75-6.659-1.5-10.154-2.232c-0.751-0.164-1.511-0.319-2.276-0.473c-3.33-0.689-6.761-1.362-10.276-2.008
			c-0.752-0.147-1.519-0.285-2.284-0.422c-3.395-0.612-6.86-1.207-10.398-1.767c-0.773-0.12-1.547-0.242-2.32-0.371
			c-3.451-0.526-6.96-1.034-10.52-1.508c-0.773-0.104-1.554-0.207-2.334-0.302c-3.502-0.448-7.054-0.862-10.648-1.241
			c-0.781-0.078-1.569-0.165-2.364-0.242c-3.559-0.353-7.153-0.664-10.784-0.938c-0.788-0.061-1.576-0.112-2.363-0.164
			c-3.609-0.25-7.247-0.457-10.914-0.612c-0.787-0.034-1.575-0.06-2.37-0.094c-3.66-0.129-7.348-0.215-11.05-0.241
			c-0.787-0.008-1.583-0.008-2.377-0.008c-3.702-0.01-7.419,0.042-11.15,0.163c-0.795,0.026-1.589,0.053-2.385,0.087
			c-3.738,0.137-7.49,0.336-11.243,0.612c-0.794,0.052-1.583,0.112-2.37,0.172c-1.311,0.112-2.621,0.224-3.932,0.345
			c0,0-6.932-33.324,27.606-41.045c0.494-0.112,1.002-0.215,1.518-0.319c0.809-0.165,1.64-0.301,2.484-0.414
			c3.796-0.551,7.914-0.715,12.296-0.534c1.067,0.052,2.148,0.112,3.244,0.207c3.323,0.259,6.796,0.715,10.383,1.353
			c0.974,0.173,1.948,0.353,2.937,0.551c3.057,0.621,6.208,1.353,9.423,2.224c0.903,0.233,1.805,0.482,2.714,0.75
			c2.908,0.827,5.872,1.75,8.88,2.766c0.845,0.285,1.69,0.578,2.549,0.88c2.793,0.981,5.628,2.042,8.5,3.179
			c0.802,0.311,1.604,0.638,2.406,0.965c2.735,1.112,5.499,2.292,8.285,3.542c0.766,0.336,1.532,0.689,2.306,1.034
			c2.679,1.232,5.385,2.517,8.106,3.86c0.73,0.362,1.461,0.724,2.191,1.095c2.656,1.335,5.335,2.722,8.014,4.171
			c0.701,0.371,1.41,0.75,2.111,1.137c2.643,1.44,5.293,2.938,7.942,4.473c0.673,0.396,1.354,0.784,2.026,1.189
			c2.643,1.551,5.285,3.146,7.927,4.792c0.659,0.413,1.317,0.818,1.97,1.241C250.374,141.256,263.837,150.916,276.733,161.49z"/>
		<g>
			<g>
				<path fill="#6D1209" d="M122.649,93.868c-11.092,11.187-17.852,23.026-21.87,32.273c-1.382,3.171-2.513,6.196-3.437,8.988
					c-0.794,0.052-1.583,0.112-2.37,0.172c0.995-3.111,2.241-6.507,3.795-10.108c3.795-8.799,9.99-19.873,19.879-30.592
					c0.494-0.112,1.002-0.215,1.518-0.319C120.974,94.118,121.805,93.981,122.649,93.868z"/>
			</g>
			<g>
				<path fill="#6D1209" d="M138.189,93.541c-12.961,12.056-20.602,25.232-24.985,35.315c-0.831,1.921-1.576,3.783-2.234,5.575
					c-0.795,0.026-1.589,0.053-2.385,0.087c0.752-2.103,1.618-4.317,2.606-6.611c4.268-9.892,11.572-22.672,23.753-34.572
					C136.012,93.386,137.093,93.447,138.189,93.541z"/>
			</g>
			<g>
				<path fill="#6D1209" d="M151.509,95.445c-13.513,12.263-21.398,25.81-25.88,36.125c-0.401,0.914-0.773,1.818-1.132,2.707
					c-0.787-0.008-1.583-0.008-2.377-0.008c0.465-1.19,0.959-2.404,1.497-3.646c4.412-10.211,12.052-23.509,24.956-35.729
					C149.547,95.067,150.521,95.247,151.509,95.445z"/>
			</g>
			<g>
				<path fill="#6D1209" d="M163.646,98.419c-13.334,12.194-21.146,25.628-25.593,35.866c-0.05,0.112-0.094,0.215-0.137,0.327
					c-0.787-0.034-1.575-0.06-2.37-0.094c0.157-0.388,0.322-0.784,0.494-1.18c4.404-10.195,12.023-23.466,24.892-35.668
					C161.835,97.902,162.737,98.151,163.646,98.419z"/>
			</g>
			<g>
				<path fill="#6D1209" d="M175.076,102.064c-12.059,11.306-19.449,23.577-23.882,33.324c-0.788-0.061-1.576-0.112-2.363-0.164
					c4.347-9.85,11.672-22.388,23.696-34.04C173.371,101.469,174.217,101.762,175.076,102.064z"/>
			</g>
			<g>
				<path fill="#6D1209" d="M185.982,106.208c-10.556,10.325-17.352,21.303-21.641,30.36c-0.781-0.078-1.569-0.165-2.364-0.242
					c4.247-9.194,11.014-20.439,21.598-31.083C184.378,105.554,185.18,105.881,185.982,106.208z"/>
			</g>
			<g>
				<path fill="#6D1209" d="M196.573,110.785c-9.088,9.316-15.203,19.053-19.249,27.327c-0.773-0.104-1.554-0.207-2.334-0.302
					c4.017-8.437,10.125-18.433,19.277-28.059C195.033,110.087,195.8,110.44,196.573,110.785z"/>
			</g>
			<g>
				<path fill="#6D1209" d="M206.871,115.74c-7.641,8.315-12.998,16.829-16.707,24.25c-0.773-0.12-1.547-0.242-2.32-0.371
					c3.71-7.601,9.102-16.382,16.836-24.974C205.41,115.007,206.141,115.369,206.871,115.74z"/>
			</g>
			<g>
				<path fill="#6D1209" d="M216.996,121.048c-6.266,7.282-10.842,14.615-14.149,21.131c-0.752-0.147-1.519-0.285-2.284-0.422
					c3.315-6.713,7.941-14.297,14.322-21.845C215.586,120.282,216.295,120.661,216.996,121.048z"/>
			</g>
			<g>
				<path fill="#6D1209" d="M226.965,126.71c-4.956,6.213-8.723,12.375-11.565,17.95c-0.751-0.164-1.511-0.319-2.276-0.473
					c2.878-5.774,6.724-12.186,11.815-18.666C225.611,125.917,226.292,126.305,226.965,126.71z"/>
			</g>
			<g>
				<path fill="#6D1209" d="M236.861,132.742c-3.745,5.084-6.724,10.074-9.066,14.667c-0.736-0.173-1.489-0.346-2.241-0.518
					c2.392-4.799,5.45-10.04,9.338-15.391C235.551,131.915,236.209,132.32,236.861,132.742z"/>
			</g>
		</g>
	</g>
	<g>
		<path fill="#BC240F" d="M329.433,174.227c-0.029,0.586-0.065,1.172-0.108,1.758c-0.422,6.412-1.303,12.436-2.678,17.416
			c-0.187,0.69-0.387,1.354-0.602,1.999c-5.221,16.107-16.492,18.683-36.02-19.285c-0.853-1.664-1.727-3.405-2.614-5.222
			c-0.215-0.44-0.43-0.888-0.645-1.345c-0.271-0.56-0.545-1.129-0.816-1.706c-0.036-0.061-0.064-0.129-0.093-0.19
			c0,0,0.129-0.405,0.387-1.146c0.243-0.749,0.623-1.836,1.109-3.188c0.036-0.104,0.072-0.215,0.114-0.328
			c0.667-1.853,1.533-4.162,2.564-6.739c6.244-15.65,18.554-41.02,30.162-33.204c1.683,1.138,3.187,3.602,4.469,7.006
			c0.136,0.38,0.279,0.768,0.415,1.165c1.897,5.557,3.266,13.235,3.988,21.568c0.051,0.621,0.101,1.25,0.144,1.879
			C329.683,161.085,329.775,167.816,329.433,174.227z"/>
		<path fill="#6D1209" d="M325.078,131.218c-11.809,10.607-25.214,21.836-37.209,31.668c-0.172,0.147-0.344,0.285-0.516,0.432
			c0.036-0.104,0.072-0.215,0.114-0.328c0.667-1.853,1.533-4.162,2.564-6.739c11.149-8.756,23.259-18.054,34.631-26.198
			C324.799,130.433,324.942,130.821,325.078,131.218z"/>
		<path fill="#6D1209" d="M326.646,193.4c-0.187,0.69-0.387,1.354-0.602,1.999c-11.98-6.144-24.964-13.142-36.02-19.285
			c-0.853-1.664-1.727-3.405-2.614-5.222c-0.215-0.44-0.43-0.888-0.645-1.345c0.945,0.552,1.905,1.104,2.886,1.663
			C301.16,177.855,314.58,185.869,326.646,193.4z"/>
	</g>
	<path fill="#6D1209" d="M329.433,174.227c-0.029,0.586-0.065,1.172-0.108,1.758c-14.057-1.31-28.057-3.145-39.672-4.774
		c-0.759-0.112-1.504-0.215-2.241-0.318c-0.215-0.44-0.43-0.888-0.645-1.345c-0.271-0.56-0.545-1.129-0.816-1.706
		c-0.036-0.061-0.064-0.129-0.093-0.19c0,0,0.129-0.405,0.387-1.146c0.243-0.749,0.623-1.836,1.109-3.188
		c0.036-0.104,0.072-0.215,0.114-0.328c0.13-0.034,0.266-0.068,0.401-0.104c12.812-3.447,27.914-7.179,41.197-10.1
		c0.051,0.621,0.101,1.25,0.144,1.879c-12.825,4.256-27.462,8.721-40.102,12.296C300.129,168.72,314.823,171.185,329.433,174.227z"
		/>
	<path fill="#F24422" d="M291.586,166.85c0,0-37.315,65.174-144.13,67.543c-17.903,0.396-34.96-0.974-50.45-3.731
		c-1.733-0.301-3.452-0.628-5.142-0.974c-28.064-5.678-50.493-15.993-62.781-28.523c30.928-6.92,38.089-27.602,38.089-27.602
		c-21.01,12.063-38.197,7.471-47.206-2.655c5.987-20.836,34.058-39.417,76.144-46.835c1.662-0.293,3.351-0.569,5.063-0.827
		c11.128-1.689,23.172-2.603,35.984-2.603C238.823,120.643,291.586,166.85,291.586,166.85z"/>
	<g>
		<ellipse fill="#FFFFFF" cx="60.488" cy="145.701" rx="17.187" ry="20.682"/>
		<path fill="#B52815" d="M60.488,168.106c-10.267,0-18.619-10.051-18.619-22.405c0-12.355,8.352-22.406,18.619-22.406
			s18.619,10.051,18.619,22.406C79.106,158.055,70.754,168.106,60.488,168.106z M60.488,126.742
			c-8.687,0-15.754,8.504-15.754,18.959c0,10.453,7.067,18.958,15.754,18.958s15.754-8.505,15.754-18.958
			C76.242,135.246,69.175,126.742,60.488,126.742z"/>
	</g>
	<ellipse fill="#160503" cx="62.755" cy="144.695" rx="11.935" ry="14.362"/>
	<ellipse fill="#FFFFFF" cx="65.978" cy="142.971" rx="4.416" ry="5.314"/>
	<g>
		<path fill="#BC240F" d="M97.006,230.662c-1.733-0.301-3.452-0.628-5.142-0.974c12.031-31.669,11.866-61.33,8.972-82.392
			c-1.188-8.677-2.9-16.51-4.726-23.223c1.662-0.293,3.351-0.569,5.063-0.827c1.754,6.652,3.401,14.323,4.576,22.819
			C108.75,167.747,108.994,198.149,97.006,230.662z"/>
	</g>
	<g>
		<ellipse fill="#FEE110" cx="129.711" cy="142.54" rx="10.025" ry="12.065"/>
		<ellipse fill="#BC240F" cx="129.711" cy="142.54" rx="7.281" ry="8.762"/>
	</g>
	<g>
		<ellipse fill="#FEE110" cx="166.949" cy="183.043" rx="10.026" ry="12.063"/>
		<ellipse fill="#BC240F" cx="166.949" cy="183.043" rx="7.281" ry="8.761"/>
	</g>
	<g>
		<ellipse fill="#FEE110" cx="190.222" cy="142.54" rx="10.026" ry="12.065"/>
		<ellipse fill="#BC240F" cx="190.222" cy="142.54" rx="7.281" ry="8.762"/>
	</g>
	<g>
		<ellipse fill="#FEE110" cx="216.598" cy="192.953" rx="10.025" ry="12.063"/>
		<ellipse fill="#BC240F" cx="216.598" cy="192.953" rx="7.28" ry="8.761"/>
	</g>
	<g>
		<ellipse fill="#FEE110" cx="246.674" cy="167.531" rx="10.025" ry="12.063"/>
		<ellipse fill="#BC240F" cx="246.674" cy="167.531" rx="7.281" ry="8.761"/>
	</g>
	<ellipse fill="#BC240F" cx="159.071" cy="151.589" rx="5.371" ry="6.463"/>
	<ellipse fill="#BC240F" cx="135.081" cy="182.181" rx="5.371" ry="6.463"/>
	<ellipse fill="#BC240F" cx="185.567" cy="210.618" rx="4.296" ry="5.171"/>
	<ellipse fill="#BC240F" cx="196.666" cy="173.563" rx="3.938" ry="4.739"/>
	<ellipse fill="#BC240F" cx="221.372" cy="145.987" rx="4.297" ry="5.171"/>
	<ellipse fill="#BC240F" cx="243.213" cy="193.814" rx="5.371" ry="6.463"/>
	<ellipse fill="#BC240F" cx="271.141" cy="170.978" rx="2.865" ry="3.447"/>
	<ellipse fill="#BC240F" cx="115.389" cy="165.807" rx="2.864" ry="3.447"/>
	<ellipse fill="#BC240F" cx="111.45" cy="218.806" rx="3.581" ry="4.309"/>
	<ellipse fill="#BC240F" cx="111.45" cy="131.769" rx="3.939" ry="4.739"/>
	<ellipse fill="#BC240F" cx="157.639" cy="130.907" rx="2.864" ry="3.446"/>
	<g>
		<path fill="#BC240F" d="M114.196,190.51c0,0,27.762,61.658,47.979,46.535C188.67,217.225,114.196,190.51,114.196,190.51z"/>
		<path fill="#6D1209" d="M122.311,198.841c7.244,11.705,19.547,28.317,30.076,35.332
			C140.981,229.175,128.222,212.316,122.311,198.841z"/>
		<path fill="#6D1209" d="M125.652,197.979c4.403,1.234,28.727,10.223,37.238,29.588
			C154.464,213.892,138.777,204.603,125.652,197.979z"/>
		<path fill="#6D1209" d="M130.665,203.438c8.383,7.924,14.759,15.369,27.212,25.853
			C147.276,223.83,135.254,210.196,130.665,203.438z"/>
	</g>
</g>
</svg>
