<?xml version="1.0" encoding="utf-8"?>
<!-- Generator: Adobe Illustrator 16.0.0, SVG Export Plug-In . SVG Version: 6.00 Build 0)  -->
<!DOCTYPE svg PUBLIC "-//W3C//DTD SVG 1.1 Tiny//EN" "http://www.w3.org/Graphics/SVG/1.1/DTD/svg11-tiny.dtd">
<svg version="1.1" baseProfile="tiny" id="Layer_1" xmlns="http://www.w3.org/2000/svg" xmlns:xlink="http://www.w3.org/1999/xlink"
	 x="0px" y="0px" width="350px" height="350px" viewBox="0 0 350 350" overflow="scroll" xml:space="preserve">
<g>
	<path fill="#124A89" d="M307.361,191.289l-3.531-1.411c0,0,3.06-13.424-5.419-21.903l-3.768,11.304c0,0-17.9-39.57-41.688-47.575
		c0,0-2.563-1.985-7.634-4.653c-0.006-0.012-6.018-11.631-29.561-20.127v7.822c0,0,9.606,2.482,14.74,5.962
		c-13.902-4.796-34.193-8.96-60.69-7.139c0,0-13.188-28.029-42.158-31.561c0,0,8.008,13.188-10.363,14.364
		c0,0,4.002,11.778-10.364,13.19c0,0,0.236,13.427-14.602,15.545c0,0,12.483,3.297,16.722,8.477c0,0-13.425,12.015-33.209,9.894
		c0,0-10.362-23.788-28.97-32.266c0,0,2.59,9.656-4.241,15.31c0,0,6.596,8.948,0,15.779c0,0,4.712,4.946,3.063,12.01
		c0,0,4.946,4.476-0.706,8.713c0,0,3.063,6.362-1.177,11.308c0,0,2.59,4.237,0,9.186c0,0,3.532,9.654-1.18,14.835
		c0,0,17.667-2.355,33.21-23.316c0,0,13.896,9.186,20.492,17.902l8.242,12.246c0,0,5.184,8.243,11.307,12.72l-8.01,7.534
		c0,0,10.444,3.928,10.444,14.447c0,0,9.733,0.783,9.421,9.892c0,0,11.307-1.413,6.909,13.188c0,0,21.667-7.694,28.734-21.826
		c0,0,13.974,2.984,26.534,0.628c0,0,6.438,5.339,4.243,12.877c0,0,12.56,2.513,13.347,13.346c0,0,13.188-12.246,16.799-30.304
		c0,0,8.165,1.178,27.949-8.479c0,0,22.374-10.36,40.747-9.186C292.995,220.023,307.832,220.023,307.361,191.289z"/>
	<path fill="#36C6F4" d="M273.288,157.921c0,0-7.851-15.385-22.611-22.924l1.257,5.969c0,0-13.815-12.875-28.89-17.271l2.199,4.396
		c0,0-25.44-14.446-81.965-4.396c0,0-19.157,6.596-27.949,11.621c0,0-18.841,9.732-27.635,11.303c0,0,23.287-5.287,32.658-10.046
		c22.903-11.633,65.322-16.432,102.691-3.456c3.13,1.084,12.56,5.914,12.56,5.914l-4.71-7.483c0,0,20.178,11.459,27.243,20.881
		l-1.884-9.657C256.253,142.771,261.982,145.99,273.288,157.921z"/>
	<path fill="#36C6F4" d="M217.389,153.844c0,0-16.957,12.249-16.327,35.485c0,0,0.94,12.558,6.593,19.47
		c0,0-24.809,5.653-44.908,5.339c0,0,30.462,4.106,49.933,0.012c0,0,16.75,11.844,26.066,14.435l-19.157-3.771l-5.34-5.335
		c0,0-18.528,4.396-28.26,4.396c0,0,3.42,9.473-0.943,14.129c0,0-32.663,0.946-63.751-21.354c0,0-8.934-6.802-14.601-16.013
		c-5.414-8.8-15.544-23.866-28.42-29.521c0,0-2.667-4.24,1.729-6.91l14.442-0.784C94.443,163.42,183.619,170.391,217.389,153.844z"
		/>
	<path fill="#36C6F4" d="M238.745,143.166c0,0-22.197,6.308-31.091,31.835c0,0-5.084,23.54,9.735,37.251
		c0,0,15.762,11.735,29.835,12.56c0,0,27.087-11.537,36.429-8.165l-13.192-3.139c0,0,16.958-0.628,23.239,2.515
		c0,0,10.678-6.91,9.107-21.672c0,0-39.642,7.333-64.063,14.134c0,0-4.081,2.511-7.536-1.569c0,0,11.774-0.158,14.602-3.93
		l11.62-13.814c0,0,2.51,5.337,2.356,10.521l1.882-1.258c0,0,10.05-14.756,9.894-18.684c0,0,3.926,8.792,3.926,13.973
		c0,0,3.913-8.242,8.165-20.882c0,0,7.008,11.339,7.063,17.584l2.043-5.336c0,0-8.195-20.833-14.287-24.809
		c0,0-0.157,10.833-5.969,13.033l-2.982-0.943c0,0-0.472,12.405-9.89,13.189c0,0-11.78,4.241-18.217-8.479
		c0,0,4.866,3.454,7.537,3.454c0,0-5.495-6.909,2.04-14.445c0,0-2.825-2.197-6.75-0.784c0,0,11.619-7.538,23.71,3.298l3.611,1.097
		c0,0,2.512-0.471,2.354-5.183c0,0-1.726,1.729-3.611,1.101c0,0-11.464-15.074-27.949-11.775c0,0-8.164,1.412-10.677,4.71
		C231.68,158.554,231.149,152.144,238.745,143.166z"/>
	<path fill="#124A89" d="M226.34,162.479c0,0-10.077,12.162-7.537,27.946c0.696,4.333,1.887,9.74,7.537,15.862
		c0,0-12.246-6.752-11.46-24.653C214.88,181.635,216.39,169.393,226.34,162.479z"/>
	<path fill="#124A89" d="M226.34,175.001c0,0-1.256,21.551,11.307,24.846c0,0-11.307,1.177-15.545-12.423l3.142,1.432
		C225.243,188.856,222.102,179.88,226.34,175.001z"/>
	<path fill="#36C6F4" d="M284.212,179.88c0,0,4.463,8.19,3.992,13.69c0,0-5.969,1.731-10.049,2.357
		C278.155,195.928,281.701,188.044,284.212,179.88z"/>
	<path fill="#36C6F4" d="M270.858,187.425c0,0,3.137,7.007,2.273,9.833l-9.814,2.59
		C263.317,199.848,269.867,190.143,270.858,187.425z"/>
	<path fill="#36C6F4" d="M256.216,193.635c0,0,1.147,5.509,0.989,7.39l-9.669,3.14C247.536,204.164,255.354,195.66,256.216,193.635z
		"/>
	<path fill="#36C6F4" d="M298.941,173.247c0,0,3.338,5.354,0.982,16.736l-6.696,2.329
		C293.228,192.313,299.546,176.27,298.941,173.247z"/>
	<g>
		<path fill="#36C6F4" d="M159.291,240.671c0,0-7.221,10.051-19.155,16.488c0,0,12.876-11.463,16.172-16.488H159.291z"/>
		<path fill="#36C6F4" d="M149.716,236.748c0,0-11.463,10.599-17.585,11.539c0,0,12.717-9.772,14.247-12.601L149.716,236.748z"/>
		<path fill="#36C6F4" d="M134.132,230.386c0,0-5.653,6.951-13.307,8.245c0,0,9.069-7.263,10.48-9.342L134.132,230.386z"/>
		<path fill="#36C6F4" d="M120.253,221.067c0,0-6.75,3.983-9.086,4.395l7.654-5.908L120.253,221.067z"/>
	</g>
	<g>
		<path fill="#36C6F4" d="M51.226,116.275c0,0,16.314,13.146,22.375,29.44v3.417C73.6,149.132,59,124.637,51.226,116.275z"/>
		<path fill="#36C6F4" d="M46.751,127.815c0,0,18.725,11.422,26.849,25.202v3.297C73.6,156.314,59.823,138.885,46.751,127.815z"/>
		<path fill="#36C6F4" d="M46.161,142.89c0,0,21.671,8.773,27.439,14.23v3.197C73.6,160.317,52.403,144.657,46.161,142.89z"/>
		<path fill="#36C6F4" d="M73.6,161.261c0,0-23.904-6.475-25.906-6.712l25.906,9.185V161.261z"/>
		<path fill="#36C6F4" d="M73.6,164.322c0,0-18.96,9.107-27.439,10.679c0,0,19.552-2.319,27.439-8.324V164.322z"/>
		<path fill="#36C6F4" d="M73.98,170.445c0,0-17.458,13.1-27.229,14.957c0,0,22.432-12.834,27.379-17.076L73.98,170.445z"/>
		<path fill="#36C6F4" d="M74.13,173.859c0,0-11.009,16.104-27.969,22.068c0,0,18.371-11.881,23.672-19.77l4.098-4.999
			L74.13,173.859z"/>
	</g>
	<path fill="#124A89" d="M133.277,216.154c0,0-11.734-5.277-27.017-27.507c0,0-12.193-14.991-17.203-17.527
		c0,0,9.542,2.95,20.471,16.983C109.529,188.104,121.951,205.395,133.277,216.154z"/>
	<g>
		<path fill="#36C6F4" d="M166.516,113.959c0,0-12.407-19.157-34.389-29.519c0,0,22.926,18.684,30.149,30.305L166.516,113.959z"/>
		<path fill="#36C6F4" d="M120.667,98.573c0,0,18.528,8.789,26.534,18.842l-4.394,1.258
			C142.807,118.673,131.347,105.639,120.667,98.573z"/>
		<path fill="#36C6F4" d="M108.891,111.134c0,0,16.787,5.653,21.354,12.718l-3.769,1.256
			C126.477,125.108,115.171,113.803,108.891,111.134z"/>
		<path fill="#36C6F4" d="M98.526,125.108c0,0,9.893,2.042,15.86,6.752l-2.042,0.844
			C112.344,132.704,106.221,127.462,98.526,125.108z"/>
	</g>
	<g>
		<g>
			<path fill="#36C6F4" d="M213.622,223.086c0,0-17.587,4.712-22.61,4.24c0,0,6.437,2.198,24.023-2.514L213.622,223.086z"/>
			<path fill="#36C6F4" d="M216.92,227.876c0,0-20.885,9.354-25.908,10.136c0,0,15.229-2.601,27.636-9.352L216.92,227.876z"/>
			<path fill="#36C6F4" d="M220.608,229.289c0,0-10.911,11.072-22.765,22.769c0,0,18.863-13.391,23.313-21.511L220.608,229.289z"/>
			<path fill="#36C6F4" d="M222.023,233.295c0,0-5.967,20.255-12.521,27.32c0,0,11.028-11.933,13.698-26.222L222.023,233.295z"/>
		</g>
		<path fill="#36C6F4" d="M237.016,231.016c0,0-8.319,4.085-10.676,4.003c0,0-2.196-5.021-3.14-5.729
			C223.2,229.289,232.541,230.939,237.016,231.016z"/>
	</g>
	<path fill="#124A89" d="M194.722,165.648c0,0-48.876,6.456-75.155-1.015l-22.07-1C97.497,163.633,147.201,178.211,194.722,165.648z
		"/>
	<path fill="#36C6F4" d="M256.253,171.736c0,1.654,1.337,2.998,2.99,2.998c1.657,0,2.996-1.343,2.996-2.998
		c0-1.653-1.339-2.993-2.996-2.993C257.59,168.744,256.253,170.083,256.253,171.736z"/>
	<path fill="#36C6F4" d="M255.377,167.811c-2.087,1.208-3.498,3.456-3.498,6.04c0,3.853,3.125,6.977,6.975,6.977
		c1.658,0,3.175-0.578,4.372-1.542c-1.347,1.891-3.55,3.131-6.049,3.131c-4.093,0-7.416-3.319-7.416-7.415
		C249.761,171.527,252.153,168.619,255.377,167.811z"/>
	<path fill="#124A89" d="M188.757,231.125c0,0-27.416,1.444-44.279-8.618c0,0,8.393,9.803,42.257,12.514L188.757,231.125z"/>
	<polygon fill="#124A89" points="303.852,197.287 274.525,204.762 303.852,200.516 	"/>
</g>
</svg>
