<?xml version="1.0" encoding="utf-8"?>
<!-- Generator: Adobe Illustrator 16.0.0, SVG Export Plug-In . SVG Version: 6.00 Build 0)  -->
<!DOCTYPE svg PUBLIC "-//W3C//DTD SVG 1.1 Tiny//EN" "http://www.w3.org/Graphics/SVG/1.1/DTD/svg11-tiny.dtd">
<svg version="1.1" baseProfile="tiny" id="Layer_1" xmlns="http://www.w3.org/2000/svg" xmlns:xlink="http://www.w3.org/1999/xlink"
	 x="0px" y="0px" width="350px" height="350px" viewBox="0 0 350 350" overflow="scroll" xml:space="preserve">
<g>
	<path fill="#161515" d="M96.148,199.639c12.121-7.459,22.843,8.857,13.054,8.393c-9.79-0.467-15.385,0.465-15.385,0.465
		s39.626,76.455,135.66,56.409c0,0,56.816-18.836,66.838-40.511h-11.652l9.148-9.838c0,0-35.582-86.294-60.668-99.32
		c-23.029-11.957-99.7-41.001-154.71-31.677c0,0,52.679,20.512,47.551,32.167s-24.241,19.58-23.775,50.348
		c0,0-8.857,10.256-12.587,3.264c-3.729-6.993-18.182-29.37-27.505-30.769c0,0-19.58,44.753,0.933,82.515
		C63.05,221.084,84.028,207.098,96.148,199.639z M270.676,188.602c4.396,0,7.96,3.563,7.96,7.959c0,4.396-3.564,7.96-7.96,7.96
		c-4.396,0-7.96-3.563-7.96-7.96C262.716,192.165,266.279,188.602,270.676,188.602z M205.645,167.339
		c11.578,0.965,39.56,29.428,39.56,29.428c-0.965,12.543-30.876,25.569-30.876,25.569s-7.236-0.966-8.684-2.412
		c-1.447-1.448,10.613-12.062,10.613-12.062s-9.166-0.965-14.473-4.342S194.066,166.374,205.645,167.339z"/>
	<circle fill="#161515" cx="270.676" cy="196.561" r="3.951"/>
</g>
</svg>
