<?xml version="1.0" encoding="utf-8"?>
<!-- Generator: Adobe Illustrator 16.0.0, SVG Export Plug-In . SVG Version: 6.00 Build 0)  -->
<!DOCTYPE svg PUBLIC "-//W3C//DTD SVG 1.1//EN" "http://www.w3.org/Graphics/SVG/1.1/DTD/svg11.dtd">
<svg version="1.1" id="Layer_1" xmlns="http://www.w3.org/2000/svg" xmlns:xlink="http://www.w3.org/1999/xlink" x="0px" y="0px"
	 width="350px" height="350px" viewBox="0 0 350 350" enable-background="new 0 0 350 350" xml:space="preserve">
<g>
	<path fill="#F27156" d="M216.742,55.537c-6.734-0.097-12.695,5.711-15.63,8.996c-6.124,6.854-8.455,15.333-10.047,24.223
		c-2.021,11.302-1.457,22.304,0.21,33.672c1.525,10.402,1.933,20.354,1.427,30.819c-0.16,3.31-0.741,6.614-1.434,9.864
		c-0.69,3.243-7.298,23.063-8.962,30.116c-2.599,11.005,1.621,22.281,14.025,26.519c11.536,3.94,22.365,1.254,29.718-9.658
		c5.349-7.939,7.605-18.097,9.22-27.294c2.067-11.797,6.139-21.978,10.589-33.026c5.032-12.491,12.716-24.141,14.663-37.758
		c0.928-6.487,1.628-11.999-0.385-19.082c-1.321-4.648-3.311-9.781-5.762-13.959c-4.978-8.486-10.74-14.071-19.182-18.798
		C230.454,57.517,225.763,55.198,216.742,55.537"/>
	<path fill="#286889" d="M214.542,76.553c0.3,1.885,2.445,3.933,3.012,6.027c0.825,3.051-0.003,3.933-2.615,5.426
		c-7.033,4.021-13.127,8.327-18.506,14.373c-5.873,6.604-9.725,13.08-11.195,21.877c-1.396,8.346,2.344,17.039,5.847,24.25
		c1.677,3.449,2.715,6.715,3.122,10.585c0.29,2.765-0.746,5.851-0.055,8.488c4.872,0.122,7.948-6.358,8.078-10.395
		c0.113-3.542-1.05-6.97-2.355-10.236c-1.683-4.217-2.685-8.788-3.333-13.307c-1.531-10.687,3.311-22.173,11.592-29.205
		c3.105-2.635,8.244-7.266,12.396-7.888c5.133-0.769,7.889,4.909,9.788,8.676c3.924,7.785,6.014,13.19,9.206,20.391
		c2.423,5.46,4.329,13.847,3.468,19.845c-0.824,5.737-2.137,8.267-7.008,11.484c-3.869,2.555-5.999,6.182-5.758,10.869
		c0.086,1.719,1.159,6.269,3.193,5.722c1.07-0.287,2.301-4,2.824-4.897c1.593-2.724,3.803-4.612,5.816-6.999
		c3.827-4.541,8.38-9.157,10.377-14.886c2.412-6.92,1.08-15.255-0.624-22.156c-1.983-8.023-6.575-14.097-10.503-21.3
		c-2.363-4.333-6.51-10.56-10.377-13.853c-1.285-1.094-2.863-1.704-4.19-2.706c-1.699-1.282-2.028-2.4-3.171-4.171
		C221.937,80.039,217.986,75.482,214.542,76.553"/>
	<path fill="#F27156" d="M133.258,128.569c6.734-0.097,12.695,5.712,15.63,8.997c6.125,6.853,8.457,15.333,10.046,24.223
		c2.022,11.302,1.459,22.304-0.209,33.673c-1.525,10.402-1.932,20.354-1.427,30.819c0.16,3.31,0.741,6.613,1.434,9.863
		c0.691,3.242,7.297,23.061,8.963,30.114c2.599,11.006-1.622,22.283-14.025,26.521c-11.537,3.939-22.365,1.254-29.718-9.66
		c-5.35-7.938-7.606-18.096-9.219-27.294c-2.068-11.796-6.138-21.977-10.59-33.024c-5.032-12.491-12.715-24.142-14.663-37.758
		c-0.928-6.487-1.628-12,0.384-19.083c1.321-4.648,3.312-9.781,5.762-13.959c4.977-8.486,10.742-14.071,19.181-18.798
		C119.547,130.549,124.239,128.23,133.258,128.569"/>
	<path fill="#286889" d="M135.459,149.586c-0.3,1.885-2.447,3.932-3.012,6.026c-0.826,3.051,0.002,3.933,2.615,5.426
		c7.031,4.021,13.127,8.328,18.504,14.373c5.875,6.604,9.726,13.081,11.196,21.877c1.395,8.347-2.345,17.039-5.848,24.251
		c-1.675,3.449-2.714,6.714-3.122,10.585c-0.291,2.766,0.747,5.851,0.054,8.488c-4.872,0.122-7.946-6.357-8.077-10.396
		c-0.114-3.542,1.049-6.969,2.355-10.236c1.684-4.216,2.686-8.787,3.333-13.307c1.532-10.687-3.31-22.174-11.591-29.205
		c-3.106-2.636-8.245-7.267-12.396-7.889c-5.133-0.769-7.888,4.909-9.788,8.677c-3.922,7.784-6.012,13.191-9.206,20.391
		c-2.423,5.461-4.329,13.847-3.468,19.845c0.825,5.737,2.138,8.268,7.007,11.484c3.869,2.556,5.999,6.182,5.759,10.869
		c-0.088,1.719-1.161,6.269-3.195,5.722c-1.07-0.287-2.299-4.001-2.825-4.898c-1.593-2.724-3.802-4.61-5.816-6.998
		c-3.827-4.542-8.379-9.156-10.376-14.886c-2.413-6.921-1.08-15.255,0.625-22.156c1.982-8.023,6.575-14.097,10.504-21.301
		c2.363-4.333,6.51-10.56,10.375-13.853c1.285-1.095,2.865-1.704,4.19-2.705c1.699-1.282,2.028-2.4,3.171-4.171
		C128.063,153.071,132.014,148.515,135.459,149.586"/>
</g>
</svg>
