<?xml version="1.0" encoding="utf-8"?>
<!-- Generator: Adobe Illustrator 16.0.0, SVG Export Plug-In . SVG Version: 6.00 Build 0)  -->
<!DOCTYPE svg PUBLIC "-//W3C//DTD SVG 1.1//EN" "http://www.w3.org/Graphics/SVG/1.1/DTD/svg11.dtd">
<svg version="1.1" id="Layer_1" xmlns="http://www.w3.org/2000/svg" xmlns:xlink="http://www.w3.org/1999/xlink" x="0px" y="0px"
	 width="350px" height="350px" viewBox="0 0 350 350" enable-background="new 0 0 350 350" xml:space="preserve">
<g>
	<g>
		<path fill="#B20F0F" d="M239.927,263.771c1.888-0.045,5.584-1.215,7.455,2.174c1.87,3.387-1.845,5.634-4.753,7.604
			c-2.914,1.965-11.637,10.628-18.685-1.407C216.897,260.103,235.339,263.877,239.927,263.771z"/>
		<path fill="#E03434" d="M245.572,270.689c0,0,3.896-3.895-1.162-6.699C244.41,263.99,247.876,266.753,245.572,270.689z"/>
	</g>
	<g opacity="0.4">
		<image overflow="visible" width="125" height="87" xlink:href="C46D1EDD.png"  transform="matrix(1 0 0 1 58 213)">
		</image>
	</g>
	<g>
		<path fill="#3F700B" d="M166.504,147.15c0,0-33.494,84.735-43.19,101.142c0,0,0.632,1.64,0.724,2.115
			c0,0,18.597,15.677,20.661,10.384c7.37-18.926,35.353-91.672,45.259-103.265L166.504,147.15z"/>
		<path fill="#79C53C" d="M133.716,229.157c0,0-7.076,17.777-9.678,21.25c0,0,1.502,1.956,2.593,2.09l9.868-21.669L133.716,229.157z
			"/>
		<path fill="#79C53C" d="M135.45,234.312c0,0-5.508,15.1-8.111,18.573c0,0,1.069,1.61,2.162,1.743l7.742-18.933L135.45,234.312z"/>
		<path fill="#5FA020" d="M137.01,235.479c0,0-5.507,15.099-8.111,18.573c0,0,1.069,1.61,2.161,1.743l7.747-18.934L137.01,235.479z"
			/>
		<path fill="#5FA020" d="M143.457,240.506c0,0-5.504,15.1-8.109,18.572c0,0,1.071,1.61,2.162,1.744l7.745-18.934L143.457,240.506z"
			/>
		<path fill="#5FA020" d="M139.143,238.048c0,0-5.223,14.797-7.826,18.273c0,0,2.374,1.445,3.463,1.577l7.557-17.298
			L139.143,238.048z"/>
		<path fill="#528C15" d="M145.013,240.721c0,0-4.635,15.39-7.037,19.005c0,0,1.16,1.547,2.257,1.619l6.65-19.346L145.013,240.721z"
			/>
		<path fill="#79C53C" d="M147.12,241.163c0,0-5.507,15.098-8.11,18.57c0,0,1.069,1.611,2.16,1.746l7.744-18.935L147.12,241.163z"/>
		
			<linearGradient id="SVGID_1_" gradientUnits="userSpaceOnUse" x1="113.5576" y1="278.1875" x2="147.0264" y2="278.1875" gradientTransform="matrix(0.6151 0.3224 -0.3774 0.9216 178.3828 -90.1289)">
			<stop  offset="0" style="stop-color:#D82B2B"/>
			<stop  offset="0.5612" style="stop-color:#D82B2B"/>
			<stop  offset="1" style="stop-color:#A00505"/>
		</linearGradient>
		<path fill="url(#SVGID_1_)" d="M157.582,169.429c-7.464,18.466-18.138,44.459-26.082,62.109
			c3.01,9.356,13.458,13.441,18.721,14.939c6.666-17.109,16.823-42.579,25.616-62.146
			C165.44,184.169,159.896,174.774,157.582,169.429z"/>
	</g>
	<g>
		<g>
			
				<linearGradient id="SVGID_2_" gradientUnits="userSpaceOnUse" x1="101.1914" y1="225.2744" x2="123.9964" y2="302.1085" gradientTransform="matrix(0.9124 0.4092 -0.4092 0.9124 173.5317 -84.7295)">
				<stop  offset="0" style="stop-color:#F05E5F"/>
				<stop  offset="1" style="stop-color:#F97D83"/>
			</linearGradient>
			<path fill="url(#SVGID_2_)" d="M169.563,167.654c0,0-22.951,54.574-8.1,74.207c0,0-5.422,4.437-9.202,3.504
				c0,0,9.356,3.813,6.188,10.025c0,0,9.19-0.075,13.486-5.399c0,0,2.466-8.052-0.381-12.763c0,0-10.274-3.461-1.931-45.891
				C169.625,191.337,172.422,168.935,169.563,167.654z"/>
			
				<linearGradient id="SVGID_3_" gradientUnits="userSpaceOnUse" x1="61.7114" y1="277.0059" x2="102.5122" y2="277.0059" gradientTransform="matrix(0.9124 0.4092 -0.4092 0.9124 173.5317 -84.7295)">
				<stop  offset="0" style="stop-color:#F05E5F"/>
				<stop  offset="1" style="stop-color:#F97D83"/>
			</linearGradient>
			<path fill="url(#SVGID_3_)" d="M169.563,167.654c0,0-2.293,19.575-15.036,35.229c0,0-17.359,31.896-41.459,29.484
				c0,0-4.885,2.388-6.453,5.881c0,0,0.231-5.62-7.865-5.437c1.296-0.027,4.93-3.646,6.11-4.343
				c6.075-3.596,13.368-4.552,19.233-8.526c5.297-3.594,9.918-7.614,14.175-12.427c3.44-3.888,6.38-8.362,8.898-12.896
				C147.166,194.619,161.959,168.441,169.563,167.654z"/>
			
				<linearGradient id="SVGID_4_" gradientUnits="userSpaceOnUse" x1="99.6626" y1="243.1035" x2="118.1147" y2="243.1035" gradientTransform="matrix(0.9124 0.4092 -0.4092 0.9124 173.5317 -84.7295)">
				<stop  offset="0" style="stop-color:#F05E5F"/>
				<stop  offset="1" style="stop-color:#F95A8F"/>
			</linearGradient>
			<path fill="url(#SVGID_4_)" d="M169.563,167.654c0,0-7.103,20.09-3.541,23.211c0,0,9.32,3.037,12.969,0.856
				C178.991,191.722,183.091,170.667,169.563,167.654z"/>
			<path fill="#D1294B" d="M169.082,174.686c0,0-5.304,10.977-3.06,16.18C166.022,190.865,168.278,192.64,169.082,174.686z"/>
			
				<linearGradient id="SVGID_5_" gradientUnits="userSpaceOnUse" x1="83.3066" y1="240.0625" x2="99.6626" y2="240.0625" gradientTransform="matrix(0.9124 0.4092 -0.4092 0.9124 173.5317 -84.7295)">
				<stop  offset="0" style="stop-color:#F05E5F"/>
				<stop  offset="1" style="stop-color:#F95A8F"/>
			</linearGradient>
			<path fill="url(#SVGID_5_)" d="M169.563,167.654c0,0-7.501-4.144-12.962-1.525c0,0-9.838,4.555-6.461,9.187
				c0,0,2.117,4.851,7.758,2.699C157.897,178.015,163.483,170.774,169.563,167.654z"/>
		</g>
		<path fill="#D1294B" d="M161.463,241.86c0,0,7.027-3.461,7.647-5.981C169.11,235.879,169.283,240.025,161.463,241.86z"/>
	</g>
	<g>
		<path fill="#D1294B" d="M145.012,78.428c0,0,0.521-4.945,2.686-4.637c2.159,0.304,1.551,0.237,2.031,0.217
			c0.476-0.03,1.126,0.095,1.106,0.538c0,0,2.642-0.799,3.375-0.067c0,0,0.896-1.019,2.205,1.289
			c1.31,2.311,2.075,6.407-4.261,6.941C145.817,83.241,144.863,80.813,145.012,78.428z"/>
		<path fill="#065B28" d="M133.043,103.637c1.617,0.805,4.346,2.145,5.811,4.322c0,0-2.405,0.335-2.479,0.681
			c-0.066,0.34,3.152-0.112,4.618,1.304c1.461,1.421,7.373,2.523,9.288,1.84c1.911-0.686-7.197-7.364-18.779-8.888
			C131.502,102.896,132.931,103.581,133.043,103.637z"/>
		<path fill="#F73E7C" d="M153.402,111.345c0,0,11.783,0.011,14.898-8.617c3.115-8.63-0.504-17.156-12.254-27.509
			c-0.12-0.11-1.312-0.383-0.333,1.114C156.37,77.334,169.151,109.21,153.402,111.345z"/>
		<path fill="#F6739A" d="M141.578,81.759c0.392-2.364,2.156-7.876,4.465-8.293c0,0,0.864-0.318-0.097,1.594
			c-0.959,1.91,0.838,2.045,3.989-0.042c3.103-2.079,5.282,1.156,5.19,1.815c0,0,1.898-0.038,3.15,2.155
			c0,0,7.38,4.288,7.735,19.252c0.345,14.387-12.916,13.319-15.034,13.188C149.245,111.318,136.878,109.831,141.578,81.759z"/>
		<path fill="#FCC3C7" d="M139.36,83.162c0.065-0.604,0.137-1.135-0.201-2.433c-0.339-1.302-0.137-3.289,1.289-3.559
			c1.431-0.267,0.178,2.916,0.973,2.555c0.789-0.362,1.605-2.965,5.18-2.307c3.577,0.659,11.204,5.367,12.116,13.561
			c0.915,8.189-5.413,11.974-6.896,14.094c-1.484,2.118-2.595,5.055,0.484,6.749c0,0-13.394-0.897-14.759-8.319
			C136.188,96.084,138.699,89.762,139.36,83.162z"/>
		<path fill="#056D2F" d="M155.897,111.254c0,0,2.561-0.269,3.79-0.05c1.227,0.224,8.32-3.333,10.886-12.42
			c0,0-0.931-0.026-2.043,2.34c-1.107,2.37-5.47,9.014-10.421,9.217c0,0-2.196-0.053-3.125,0.142c0,0-8.024-8.047-11.864-11.487
			c0,0,2.34,3.373,1.619,4.761c-0.726,1.383-2.178,3.001,0.561,5.811C146.173,110.463,150.371,113.629,155.897,111.254z"/>
	</g>
	<g>
		<g>
			<path fill="#4B7E23" d="M150.589,96.874c-0.106,0.199-1.321-0.084-2.184-1.279c-0.407-0.602-0.592-1.277-0.576-1.764
				c0.038-0.5,0.15-0.773,0.266-0.782c0.118-0.006,0.357,0.25,0.58,0.583c0.249,0.333,0.567,0.729,0.877,1.195
				C150.196,95.721,150.705,96.667,150.589,96.874z"/>
		</g>
		<g>
			<path fill="#4B7E23" d="M160.52,127.899c-0.049,0.036-0.445-0.373-1.065-1.187c-0.628-0.803-1.457-2.024-2.417-3.581
				c-1.846-3.131-4.155-7.694-5.532-13.139c-1.397-5.438-1.468-10.624-0.897-14.241c0.156-0.903,0.25-1.732,0.43-2.436
				c0.207-0.692,0.385-1.296,0.535-1.789c0.304-0.978,0.501-1.503,0.554-1.486c0.057,0.015-0.001,0.599-0.164,1.622
				c-0.088,0.515-0.191,1.135-0.312,1.847c-0.089,0.725-0.12,1.558-0.201,2.459c-0.259,3.633,0.074,8.655,1.448,13.926
				c1.388,5.273,3.397,9.762,4.959,12.925C159.454,125.977,160.608,127.828,160.52,127.899z"/>
		</g>
		<path fill="#E03434" d="M154.726,87.162c0.603,1.062,0.218,2.423-0.865,3.028c-1.081,0.609-2.443,0.234-3.039-0.829
			c-0.603-1.064-0.211-2.421,0.868-3.028C152.768,85.724,154.128,86.098,154.726,87.162z"/>
		<path fill="#E03434" d="M149.216,91.483c0.181,0.867-0.382,1.726-1.258,1.917c-0.874,0.196-1.732-0.355-1.917-1.231
			c-0.18-0.863,0.38-1.725,1.255-1.918C148.174,90.063,149.031,90.613,149.216,91.483z"/>
		<g>
			<path fill="#4B7E23" d="M151.089,97.007c-0.075-0.222,0.729-0.906,1.584-1.639c0.368-0.323,0.722-0.645,1.095-0.975
				c0.262-0.279,0.522-0.457,0.635-0.419c0.108,0.032,0.18,0.342,0.113,0.852c-0.08,0.492-0.416,1.126-0.964,1.612
				C152.403,97.382,151.134,97.237,151.089,97.007z"/>
		</g>
		<path fill="#E03434" d="M153.632,92.03c-0.507,1.013-0.097,2.239,0.915,2.727c1.014,0.498,2.251,0.079,2.766-0.938
			c0.503-1.012,0.09-2.231-0.925-2.724C155.375,90.596,154.139,91.02,153.632,92.03z"/>
		<g>
			<path fill="#4B7E23" d="M150.14,102.161c-0.046,0.222-1.288,0.313-2.472-0.574c-0.568-0.448-0.947-1.039-1.08-1.511
				c-0.114-0.484-0.091-0.783,0.02-0.823c0.107-0.04,0.412,0.13,0.722,0.386c0.34,0.244,0.767,0.522,1.199,0.873
				C149.417,101.178,150.183,101.928,150.14,102.161z"/>
		</g>
		<g>
			<path fill="#4B7E23" d="M152.019,110.98c-0.01,0.229-1.464,0.45-2.998-0.408c-0.749-0.446-1.299-1.071-1.546-1.589
				c-0.231-0.542-0.28-0.891-0.181-0.944c0.107-0.052,0.466,0.123,0.86,0.409c0.542,0.323,1.068,0.64,1.583,0.945
				C150.957,110.073,152.038,110.748,152.019,110.98z"/>
		</g>
		<path fill="#E03434" d="M147.08,97.103c0.618,1.099,0.248,2.476-0.824,3.082c-1.082,0.607-2.45,0.206-3.069-0.889
			c-0.619-1.099-0.246-2.478,0.832-3.077C145.095,95.608,146.464,96.01,147.08,97.103z"/>
		<g>
			<path fill="#4B7E23" d="M151.418,101.756c-0.023-0.239,0.904-0.736,1.896-1.282c0.422-0.239,0.841-0.481,1.274-0.725
				c0.316-0.216,0.606-0.339,0.708-0.278c0.099,0.056,0.105,0.371-0.066,0.854c-0.187,0.466-0.641,1.021-1.282,1.377
				C152.628,102.393,151.415,101.982,151.418,101.756z"/>
		</g>
		<path fill="#E03434" d="M155.036,97.03c-0.764,0.946-0.613,2.323,0.338,3.068c0.942,0.742,2.325,0.579,3.085-0.367
			c0.759-0.95,0.61-2.324-0.338-3.068C157.173,95.914,155.791,96.082,155.036,97.03z"/>
		<path fill="#E03434" d="M147.807,105.775c0.763,1.033,0.581,2.468-0.407,3.219c-0.992,0.741-2.41,0.513-3.172-0.511
			c-0.766-1.029-0.586-2.462,0.408-3.212C145.622,104.524,147.042,104.747,147.807,105.775z"/>
		<g>
			<path fill="#4B7E23" d="M152.458,110.548c-0.086-0.218,0.899-1.034,1.921-2.006c0.498-0.505,0.935-0.954,1.252-1.328
				c0.279-0.375,0.55-0.624,0.665-0.595c0.109,0.033,0.174,0.388,0.105,0.989c-0.1,0.579-0.469,1.342-1.094,1.957
				C154.003,110.765,152.513,110.77,152.458,110.548z"/>
		</g>
		<path fill="#E03434" d="M155.281,104.277c-0.528,1.164-0.01,2.49,1.166,2.966c1.173,0.475,2.555-0.09,3.078-1.253
			c0.529-1.165,0.009-2.499-1.172-2.973C157.184,102.547,155.802,103.108,155.281,104.277z"/>
	</g>
	<g>
		<g>
			<path fill="#4B7E23" d="M223.033,98.382c-0.206,0.092-1.002-0.864-0.968-2.337c0.037-0.727,0.298-1.377,0.604-1.755
				c0.334-0.378,0.589-0.525,0.688-0.46c0.095,0.065,0.132,0.412,0.106,0.813c-0.005,0.416,0.013,0.922-0.022,1.48
				C223.413,97.227,223.246,98.284,223.033,98.382z"/>
		</g>
		<g>
			<path fill="#4B7E23" d="M212.208,129.105c-0.06,0.002-0.13-0.566-0.132-1.586c-0.018-1.021,0.059-2.494,0.238-4.313
				c0.416-3.612,1.33-8.644,3.524-13.813c2.169-5.179,5.245-9.354,7.887-11.892c0.671-0.627,1.244-1.226,1.815-1.682
				c0.583-0.428,1.088-0.802,1.502-1.104c0.836-0.595,1.31-0.896,1.342-0.844c0.038,0.045-0.364,0.469-1.109,1.19
				c-0.382,0.356-0.839,0.789-1.363,1.285c-0.51,0.522-1.035,1.167-1.648,1.837c-2.4,2.742-5.168,6.943-7.254,11.975
				c-2.081,5.04-3.19,9.832-3.856,13.298C212.52,126.932,212.321,129.105,212.208,129.105z"/>
		</g>
		<path fill="#E03434" d="M232.194,93.142c-0.162,1.211-1.289,2.062-2.518,1.891c-1.229-0.167-2.09-1.288-1.923-2.497
			c0.162-1.211,1.295-2.058,2.521-1.889C231.506,90.812,232.361,91.931,232.194,93.142z"/>
		<path fill="#E03434" d="M225.194,93.256c-0.38,0.798-1.347,1.146-2.161,0.767c-0.814-0.374-1.166-1.33-0.786-2.138
			c0.381-0.798,1.346-1.146,2.162-0.772C225.22,91.493,225.57,92.453,225.194,93.256z"/>
		<g>
			<path fill="#4B7E23" d="M223.35,98.788c0.076-0.217,1.128-0.278,2.254-0.347c0.487-0.036,0.963-0.08,1.459-0.118
				c0.378-0.063,0.691-0.044,0.759,0.05s-0.063,0.382-0.422,0.749c-0.361,0.341-1.01,0.647-1.743,0.703
				C224.171,99.882,223.249,98.998,223.35,98.788z"/>
		</g>
		<path fill="#E03434" d="M228.383,96.359c-1.018,0.503-1.433,1.728-0.918,2.729c0.507,1.007,1.748,1.418,2.77,0.919
			c1.015-0.503,1.42-1.727,0.908-2.73C230.638,96.269,229.396,95.862,228.383,96.359z"/>
		<g>
			<path fill="#4B7E23" d="M219.479,102.324c-0.171,0.15-1.21-0.529-1.621-1.949c-0.184-0.699-0.128-1.399,0.051-1.856
				c0.201-0.457,0.399-0.677,0.512-0.645c0.11,0.034,0.252,0.352,0.346,0.744c0.122,0.4,0.291,0.879,0.426,1.42
				C219.5,101.105,219.654,102.163,219.479,102.324z"/>
		</g>
		<g>
			<path fill="#4B7E23" d="M215.654,110.49c-0.148,0.173-1.44-0.528-2.146-2.139c-0.324-0.806-0.386-1.634-0.271-2.199
				c0.144-0.573,0.313-0.877,0.427-0.861c0.115,0.022,0.298,0.38,0.438,0.848c0.237,0.583,0.467,1.152,0.692,1.706
				C215.352,109.125,215.808,110.314,215.654,110.49z"/>
		</g>
		<path fill="#E03434" d="M220.096,96.447c-0.17,1.245-1.297,2.12-2.517,1.956c-1.23-0.168-2.078-1.316-1.908-2.562
			c0.171-1.246,1.299-2.123,2.521-1.95C219.415,94.057,220.266,95.203,220.096,96.447z"/>
		<g>
			<path fill="#4B7E23" d="M220.744,102.773c0.126-0.205,1.165-0.042,2.284,0.124c0.485,0.066,0.961,0.127,1.455,0.19
				c0.381,0.02,0.687,0.099,0.731,0.208c0.045,0.106-0.142,0.358-0.57,0.64c-0.428,0.258-1.126,0.427-1.854,0.326
				C221.323,104.014,220.604,102.953,220.744,102.773z"/>
		</g>
		<path fill="#E03434" d="M226.484,101.192c-1.183,0.292-1.895,1.48-1.587,2.647c0.304,1.162,1.505,1.868,2.68,1.573
			c1.179-0.299,1.891-1.482,1.585-2.648C228.859,101.597,227.655,100.892,226.484,101.192z"/>
		<path fill="#E03434" d="M215.438,103.795c-0.014,1.282-1.026,2.316-2.267,2.319c-1.242-0.007-2.232-1.049-2.222-2.32
			c0.011-1.284,1.021-2.317,2.266-2.316C214.453,101.477,215.448,102.517,215.438,103.795z"/>
		<g>
			<path fill="#4B7E23" d="M216.262,110.411c0.064-0.229,1.337-0.285,2.744-0.443c0.701-0.097,1.322-0.193,1.796-0.302
				c0.45-0.13,0.819-0.162,0.891-0.07c0.071,0.09-0.093,0.414-0.512,0.852c-0.427,0.404-1.186,0.787-2.053,0.901
				C217.361,111.515,216.172,110.619,216.262,110.411z"/>
		</g>
		<path fill="#E03434" d="M222.301,107.118c-1.126,0.61-1.512,1.977-0.863,3.067c0.65,1.088,2.09,1.472,3.211,0.859
			c1.127-0.61,1.514-1.988,0.863-3.077C224.862,106.888,223.421,106.5,222.301,107.118z"/>
	</g>
	<g>
		<path fill="#779B1E" d="M260.377,174.113c0,0-0.58-0.293-0.641-0.558c-1.251,0.535-2.717,1.078-4.412,1.564
			c-0.251,0.072-0.537,0.14-0.798,0.213c-0.208,0.202-0.409,0.383-0.606,0.551c2.127,0.688,5.105,2.499,9.237,6.513
			c0,0-12.422,3.301-14.033-5.456c-0.167-0.106-0.27-0.295-0.278-0.35c-2.112,0.375-4.389,0.666-6.813,0.847
			c-0.131,0.081-0.267,0.156-0.398,0.234c1.864,1.637,4.085,4.202,6.675,8.17c0,0-13.329,0.44-14.432-8.257
			c-1.215-0.051-2.449-0.136-3.699-0.259c-1.325-0.159-2.641-0.358-3.924-0.606c1.806,1.644,3.937,4.153,6.403,7.926
			c0,0-14.917,0.504-14.506-9.844c0,0,0.061-0.068,0.17-0.169c-0.648-0.2-1.291-0.412-1.913-0.647
			c-1.032-0.355-2.033-0.705-3.013-1.045c-0.977-0.347-1.891-0.77-2.795-1.138c-0.896-0.379-1.761-0.743-2.598-1.096
			c-0.81-0.399-1.595-0.781-2.342-1.147c-1.501-0.706-2.811-1.449-3.962-2.102c-1.161-0.63-2.109-1.273-2.9-1.769
			c-1.558-1.024-2.359-1.685-2.319-1.739c0.035-0.055,0.902,0.446,2.501,1.297c1.603,0.836,3.922,2.044,6.891,3.316
			c0.741,0.318,1.517,0.655,2.325,1.005c0.813,0.339,1.679,0.638,2.564,0.98c0.885,0.335,1.803,0.681,2.751,1.035
			c0.959,0.304,1.952,0.616,2.966,0.94c0.509,0.151,1.023,0.326,1.538,0.495c0.159-1.778,1.795-7.31,16.313-4.607
			c0,0-3.258,4.671-7.321,6.845c0.945,0.173,1.908,0.324,2.89,0.437c1.244,0.142,2.477,0.243,3.691,0.307
			c-0.083-1.84,0.853-7.44,15.44-6.99c0,0-1.971,3.999-4.981,6.839c1.643-0.128,3.2-0.308,4.694-0.516
			c-0.055-7.656,11.381-8.747,11.381-8.747c-1.609,3.422-3.081,5.785-4.399,7.414c1.493-0.372,2.808-0.772,3.935-1.177
			c0.043-1.763,1.676-5.179,12.631-7.396C272.289,165.427,268.362,177.864,260.377,174.113z"/>
		<path fill="#91B22B" d="M218.152,174.803c0,0,0.103,7.926,13.795,9.593C231.947,184.396,224.247,182.761,218.152,174.803z"/>
		<path fill="#91B22B" d="M234.225,177.217c0,0,0.571,7.482,13.614,8.236C247.839,185.453,240.458,184.371,234.225,177.217z"/>
		<path fill="#91B22B" d="M249.488,176.786c0.368,0.408,0.534,1.264,0.814,1.758c0.357,0.652,0.799,1.262,1.336,1.784
			c0.94,0.911,2.104,1.487,3.378,1.771c2.412,0.535,5.001,0.634,7.42,0.083C262.437,182.182,254.071,181.855,249.488,176.786z"/>
		<path fill="#91B22B" d="M260.462,173.981c0.544-0.087,1.35,0.243,1.914,0.283c0.745,0.055,1.496,0.02,2.223-0.144
			c1.276-0.287,2.4-0.944,3.329-1.854c1.771-1.726,3.275-3.838,4.136-6.164C272.063,166.102,267.211,172.922,260.462,173.981z"/>
	</g>
	<g>
		<path fill="#D1294B" d="M247.049,141.535c0,0-0.254-3.705-3.902-3.498c-3.653,0.211-4.896,2.714-4.896,2.714
			s-3.558,1.216-3.315,4.368c0.025,0.313,0.444,0.572-0.026,1.247c-0.466,0.671-4.119,4.114,0.352,8.705
			c0.624,0.643,2.992,1.931,3.646,0.167c0.057-0.152,0.077,1.576-0.095,2.696c-0.174,1.111,2.479,1.139,3.691,0.731
			C243.722,158.258,247.567,144.259,247.049,141.535z"/>
		<path fill="#B20F0F" d="M240.012,155.875c0,0-2.128-5.472,0.212-7.865c0,0,1.555-8.169,6.519-7.828l-4.41,8.741L240.012,155.875z"
			/>
		<path fill="#D1294B" d="M241.387,156.106c0,0-1.285-11.05,4.392-15.502c5.679-4.451,10.136-5.432,12.928-1.865
			c2.794,3.571,2.452,5.718,3.372,6.588c0.918,0.877,4.543,2.508,1.528,4.798c-0.126,0.1-0.612,0.322-0.129,0.62
			c0.484,0.303,0.307,0.496,0.025,0.602c-0.284,0.111-0.282,0.184-0.138,0.424c0.443,0.737,0.921,2.151-1.082,3.26
			c-1.997,1.11-3.951,0.645-3.926,1.27c0.029,0.63,0.265,2.813-5.674,4.716c0,0,0.09,0.948-1.726,1.511
			c-1.812,0.562-2.749-0.59-4.687-0.955c-1.932-0.364-3.217-1.961-3.363-1.841c0,0-0.352,0.804,5.145-0.692
			c5.495-1.494,12.101-3.926,9.387-8.117C254.722,146.735,242.015,152.97,241.387,156.106z"/>
		<path fill="#D1294B" d="M256.106,157.096c1.232-0.222,3.536-1.368,5.106,0.662c1.572,2.028-0.631,3.879-2.338,5.468
			c-1.707,1.587-6.54,8.153-12.385,0.985C240.642,157.043,253.111,157.631,256.106,157.096z"/>
		<path fill="#F6739A" d="M253.563,147.368c0,0,3.435-3.828,3.99-3.191c0.556,0.639,1.212,2.568,0.276,3.731
			C256.895,149.071,252.218,149.519,253.563,147.368z"/>
		<path fill="#C61A1A" d="M259.71,152.411c0.298-0.994-0.41-1.856-1.111-2.067c0.474-0.401,0.636-0.586,0.679-1.152
			c0.061-0.785-0.528-1.422-1.325-1.583c0.701-1.173,0.094-2.911-0.429-3.508c-0.07-0.083-0.202-0.132-0.324-0.042
			c-0.745,0.494-1.232,1.983-1.219,3.03c0.006,0.516,0.063,0.776,0.063,1.224c-0.004,0.107-0.14,0.32-0.218,0.399
			c-0.823,0.808-1.411,2.171-0.066,2.783c0.06,0.027,0.116,0.046,0.175,0.061c-0.886,0.713-1.393,2.402-0.085,2.996
			C257.196,155.165,259.255,153.905,259.71,152.411z"/>
		<path fill="#F6739A" d="M255.198,149.491c0,0,2.398-2.118,2.959-1.364c0.68,0.914-0.419,3.445-2.941,4.348
			C252.7,153.38,254.266,150.312,255.198,149.491z"/>
		<path fill="#D1294B" d="M257.052,150.358c0,0,1.04-1.152,1.173-1.351c0.133-0.202,0-0.229-0.246-0.086c0,0-0.111-0.73-0.438-0.299
			C257.212,149.047,257.057,150.136,257.052,150.358z"/>
		<path fill="#B20F0F" d="M255.102,153.758c1.096-1.094,1.22-2.436,0.414-6.233c-0.806-3.797,0.353-4.662-0.988-5.046
			c-1.091-0.321-1.666,1.265-2.411,2.017c-0.74,0.749-0.979,1.136-2.215,1.588c-1.233,0.455-3.493,1.255-3.933,3.103
			C245.586,150.79,252.295,156.544,255.102,153.758z"/>
		<path fill="#F6739A" d="M244.505,161.397c0,0-5.448-2.89-4.795-8.441c0.651-5.554,4.941-6.557,7.298-5.54
			c2.354,1.022,3.631,0.476,5.963,2.871c2.331,2.402,6.97,3.536,6.408,4.779c-0.556,1.246-0.604-1.645-4.941,3.152
			C250.104,163.018,245.659,162.168,244.505,161.397z"/>
		<path fill="#FCC3C7" d="M252.985,158.995c0,0-5.464,3.648-8.636,1.688c-3.395-2.099-5.895-6.497-3.2-9.891
			c-0.307,3.284,0.879,5.08,3.117,5.513c1.473,0.287,2.902,0.571,4.334,1.04C249.117,157.511,252.647,159.222,252.985,158.995z"/>
		<path fill="#F6739A" d="M260.512,161.052c0,0,2.154-2.951-1.444-4.269C259.067,156.783,261.619,158.236,260.512,161.052z"/>
		<path fill="#F6739A" d="M260.003,141.364c-0.48-1.154-1.255-2.23-2.223-3.031c-0.811-0.67-2.006-1.109-3.043-1.232
			c-0.851-0.099-3.414,0.042-3.986,0.813c-0.904,1.21,3.774,0.314,4.011,0.328C256.912,138.348,258.527,139.95,260.003,141.364z"/>
	</g>
	<g>
		<path fill="#F6739A" d="M168.087,276.567c0,0-5.986-3.177-5.27-9.277c0.717-6.103,5.432-7.205,8.021-6.087
			c2.587,1.122,3.99,0.524,6.552,3.155c2.563,2.638,7.658,3.885,7.044,5.251c-0.611,1.369-0.666-1.808-5.432,3.464
			C174.243,278.349,169.356,277.416,168.087,276.567z"/>
		<path fill="#FCC3C7" d="M177.407,273.927c0,0-6.003,4.008-9.489,1.854c-3.731-2.306-6.479-7.141-3.52-10.867
			c-0.337,3.608,0.968,5.583,3.428,6.058c1.618,0.314,3.188,0.628,4.762,1.142C173.157,272.297,177.035,274.176,177.407,273.927z"/>
	</g>
	<g>
		<path fill="#D1294B" d="M214.851,252.661c1.666-0.014,4.944-0.991,6.542,2.024c1.602,3.015-1.707,4.941-4.302,6.637
			c-2.598,1.694-10.421,9.202-16.455-1.516C194.597,249.088,210.805,252.684,214.851,252.661z"/>
		<path fill="#F6739A" d="M219.729,258.846c0,0,3.49-3.381-0.929-5.924C218.801,252.922,221.817,255.405,219.729,258.846z"/>
	</g>
	<g>
		<path fill="#FFBEB3" d="M205.558,175.248c-1.706,1.969-2.213,7.802-4.272,9.503c-2.061,1.701-4.521,12.184,2.543,16.087
			c7.062,3.91,4.437,4.642,4.527,6.505c0.096,1.865,3.329,4.826,7.401,4.104c4.072-0.725,4.996-0.751,5.576-0.235
			c0.581,0.513,7.646-1.479,7.766-8.043C229.217,196.602,213.275,166.354,205.558,175.248z"/>
		<path fill="#FFAF9F" d="M202.304,182.846c0,0,0.03,8.93,5.243,12.093c0,0-0.016,4.354,7.199,6.002c0,0,7.326,9.104,11.468,2.175
			c0,0-1.885-10.104-11.756-18.52C214.458,184.596,208.125,180.287,202.304,182.846z"/>
		<path fill="#E25952" d="M234.9,187.896c0,0,13.643,9.468,7.296,12.073c-6.351,2.604-7.288,2.164-8.44,3.683
			c-1.155,1.521-7.125,5.404-14.396-1.539c-7.27-6.946-10.401-1.326-8.222-16.333C213.318,170.774,233.437,186.815,234.9,187.896z"
			/>
		<path fill="#FFAF9F" d="M215.346,188.499c0,0,2.082,4.256,5.669,5.387c3.584,1.137,7.014,0.923,8.666,3.117
			c1.658,2.186,10.296,5.747,15.51-0.926c0,0,1.367-1.364,1.005-2.804c-0.223-0.886,0.309-1.247,0.839-1.644
			c0.703-0.531,8.938-8.388,0.718-15.45C239.535,169.112,218.63,185.579,215.346,188.499z"/>
		<path fill="#FFBFB6" d="M232.713,203.025c0,0-5.737,6.403-14.596-3.007C218.117,200.019,225.316,206.018,232.713,203.025z"/>
		<path fill="#F48273" d="M243.669,187.465c0,0-7.162,10.901-17.427,4.291c0,0-3.558,0.245-6.334-0.2c0,0,2.081-0.33,1.08-2.229
			l5.149,0.282C226.138,189.609,234.786,194.729,243.669,187.465z"/>
		<path fill="#FFA18B" d="M213.126,170.035c0,0-0.674-6.212,0.125-9.285c0.797-3.069,9.703-14.518,16.162-13.798
			c6.453,0.712,5.758,3.819,5.758,3.819s12.604-0.944,11.438,12.515c-1.152,13.415-4.215,12.955-4.215,12.955
			S229.756,155.208,213.126,170.035z"/>
		<path fill="#F48273" d="M242.978,169.052c0,0-1.928-7.925-7.876-11.126c0,0-12.086-4.424-18.817,8.048
			c0,0,13.216-8.208,19.497-0.265C235.781,165.709,236.809,171.223,242.978,169.052z"/>
		<path fill="#E03434" d="M229.26,166.99c0.663,0.989-0.965,3.895-4.313,2.033c-3.352-1.859-3.88-3.496-1.799-3.066
			C225.229,166.384,228.398,165.701,229.26,166.99z"/>
		<path fill="#D82B2B" d="M223.097,165.069c0,0-2.708,7.744-0.194,13.987c2.517,6.234,11.417,11.232,3.758,11.149
			c-8.049-0.083-8.419-1.249-15.971-9.01C203.132,173.441,217.312,159.792,223.097,165.069z"/>
		<path fill="#D64B47" d="M222.354,164.281c0,0-6.015-3.915-11.625-0.753c-5.607,3.164-7.884,19.04-0.681,15.723
			C214.796,177.064,217.938,162.851,222.354,164.281z"/>
		<path fill="#E03434" d="M221.131,164.696c0,0-9.558,10.378-13.415,10.492c0,0-4.913-7.989,2.939-12.034
			C216.791,160,221.76,163.103,221.131,164.696z"/>
		<path fill="#E25952" d="M228.365,168.041c0,0-3.672,3.041-3.755,6.676c-0.079,3.63-0.426,6.257-1.456,6.669
			c0,0-3.193-10.426-0.387-15.038C222.768,166.348,224.204,170.056,228.365,168.041z"/>
		<g>
			<path fill="#FFFFFF" d="M228.209,177.016c1.132,0.208,3.65,1.691,3.427,3.061c-0.224,1.372-1.367,3.17-3.806,0.619
				C225.392,178.142,227.335,176.858,228.209,177.016z"/>
			<path fill="#BA3D3A" d="M228.209,177.016c0,0,0.236,0.035,0.626,0.185c0.39,0.147,0.928,0.408,1.516,0.818
				c0.291,0.207,0.599,0.45,0.872,0.763c0.266,0.31,0.522,0.717,0.504,1.206c-0.032,0.459-0.182,0.926-0.441,1.339
				c-0.243,0.42-0.716,0.765-1.245,0.78c-0.524-0.009-0.986-0.25-1.372-0.527c-0.386-0.285-0.722-0.609-1.017-0.954
				c-0.284-0.336-0.562-0.691-0.738-1.065c-0.185-0.368-0.311-0.755-0.29-1.121c0.02-0.75,0.564-1.207,0.945-1.336
				C227.961,176.938,228.214,177.028,228.209,177.016z M228.209,177.016c0.005,0.013-0.249-0.071-0.636,0.099
				c-0.372,0.135-0.911,0.598-0.895,1.325c-0.003,0.353,0.137,0.72,0.333,1.067c0.191,0.356,0.466,0.675,0.771,1.003
				c0.302,0.315,0.646,0.62,1.014,0.887c0.371,0.259,0.803,0.46,1.238,0.46c0.432-0.008,0.83-0.271,1.064-0.652
				c0.239-0.375,0.401-0.804,0.453-1.229c0.039-0.413-0.171-0.812-0.416-1.122c-0.25-0.316-0.54-0.571-0.819-0.79
				c-0.563-0.434-1.104-0.693-1.487-0.851C228.445,177.056,228.209,177.016,228.209,177.016z"/>
		</g>
		<path fill="#F6739A" d="M217.908,151.311c0,0,5.72,2.766,1.608,7.698c-4.105,4.931-11.439,3.621-11.989,10.899
			c-0.552,7.277,1.665,10.666,6.931,14.688c5.269,4.023,9.646,5.213,4.738,7.419c-4.91,2.204-10.827,2.041-15.791-7.363
			c-4.959-9.409-1.232-9.597-1.232-9.597s-5.686-4.278-0.799-13.509c0,0,1.091-1.766,2.396-2.747
			c1.306-0.98,1.643-3.949,1.358-4.431C204.847,153.885,208.14,145.519,217.908,151.311z"/>
		<path fill="#E25952" d="M237.388,166.736c0,0-0.809-6.591-7.369-6.199c-6.561,0.389-14.186,3.503-18.403,11.295
			c0,0-0.914,1.104-0.308,3.195c0.604,2.091,0.473,2.864,0.23,3.184c0,0,2.99-3.162,4.993-6.41c2-3.248,7.93-8.428,14.136-3.2
			C230.667,168.601,237.166,169.481,237.388,166.736z"/>
		<path fill="#E25952" d="M229.226,168.313c0,0,7.219-5.469,14.416,1.688c7.191,7.157,4.117,12.533,1.256,16.262
			c-2.858,3.727-14.592,12.405-20.029,1.203S228.238,168.387,229.226,168.313z"/>
		<path fill="#FFBFB6" d="M236.307,175.351c0,0,3.655-6.849-2.942-9.901c-6.596-3.052-9.89,10.61-9.75,14.88
			C223.754,184.604,235.465,176.776,236.307,175.351z"/>
		<path fill="#FFBFB6" d="M233.769,174.591c1.497,0.314,4.674-0.306,5.276,3.114c0.605,3.419,1.107,11.225-8.843,10.758
			c0,0-5.46-1.285-6.451-5.644S231.336,174.08,233.769,174.591z"/>
		<path fill="#FFBFB6" d="M239.79,167.993c-0.004-0.008-0.01-0.019-0.015-0.026c2.13,1.138,2.751,1.211,6.108,5.966
			c1.28,1.816,1.487,3.381,1.444,5.673c-0.072,3.956-3.866,7.259-6.922,9.239c2.52-2.427,5.67-6.022,5.433-9.763
			C245.582,175.061,241.987,171.055,239.79,167.993z"/>
		<path fill="#E25952" d="M206.12,156.194c0,0-0.325,3.23-2.387,4.521c0,0-5.104,6.948-1.011,13.077c0,0,0.85,0.221-0.22,2.718
			c-1.8,4.198-0.552,12.061,9.784,15.438c2.155,0.703,4.973,0.567,8.685-2.61c-0.936-1.146-3.588-2.506-6.514-4.743
			c-5.266-4.022-7.482-7.411-6.931-14.688c0.55-7.278,7.884-5.968,11.989-10.899c1.294-1.554,1.614-2.887,1.444-3.991
			c-0.316-0.183-0.617-0.405-0.865-0.717C220.096,154.301,208.603,145.849,206.12,156.194z"/>
		<path fill="#FFBFB6" d="M217.908,151.311c-9.769-5.792-13.062,2.574-12.779,3.057c0.284,0.482-0.053,3.451-1.358,4.431
			c-1.306,0.98-2.396,2.747-2.396,2.747c-4.887,9.231,0.799,13.509,0.799,13.509s-4.514,0.651,0.449,10.06
			c4.964,9.405,11.664,9.104,16.574,6.9c2.179-0.979,2.522-1.76,1.775-2.676c-3.712,3.178-6.529,3.313-8.685,2.61
			c-10.336-3.378-9.843-11.885-8.737-15.437c0.808-2.589-0.398-2.15-0.827-2.72c-4.145-5.493,1.011-13.077,1.011-13.077
			c2.062-1.291,2.387-4.521,2.387-4.521c2.482-10.345,13.976-1.893,13.976-1.893c0.248,0.312,0.549,0.534,0.865,0.717
			C220.595,152.613,217.908,151.311,217.908,151.311z"/>
		<path fill="#F48273" d="M235.728,173.452c0,0,0.914-4.595-3.07-5.921c0,0-3.477-1.221-6.393,4.887
			C226.265,172.418,233.159,179.956,235.728,173.452z"/>
		<path fill="#E25952" d="M236.734,178.01c0,0,0.396,10.279-9.353,9.083c0,0-2.746-1.136-2.847-3.306
			C224.535,183.787,230.125,190.932,236.734,178.01z"/>
		<g>
			<path fill="#E03434" d="M225.184,185.203c2.124,2.058,8.424,1.147,11.009-5.359c2.589-6.505-4.093-6.116-6.184-3.973
				C227.911,178.02,220.794,180.938,225.184,185.203z"/>
			<path fill="#E03434" d="M225.364,171.729c1.507,0.762,2.751,1.478,4.41,2.056c1.664,0.581,4.305-0.196,5.254,0.88
				c0,0-4.166-0.572-5.302,1.985c-1.135,2.556-0.771,5.164,0.277,6.073c0,0-5.351-2.153-6.184-2.501
				C222.071,179.494,224.474,173.588,225.364,171.729z"/>
			<path fill="#E25952" d="M230.333,182.716c-1.814-0.649-2.521-2.729-1.692-5.047c0.829-2.311,4.646-3.506,6.46-2.852
				c1.815,0.651,2.83,2.03,0.333,5.266C233.931,182.028,232.148,183.367,230.333,182.716z"/>
			<path fill="#E25952" d="M223.264,178.855c0,0,2.208,1.049,3.497,2.196c1.292,1.15,3.182,1.598,3.685,1.706
				c0,0,0.652,0.233-0.401,0.133c-1.061-0.1-4.775-0.009-5.509,0.896C223.803,184.694,222.668,180.506,223.264,178.855z"/>
			<path fill="#FFBFB6" d="M228.959,181.228c-0.931-0.338-0.714-3.069-0.112-4.005c0.583,0.255,0.908,0.479,1.84,0.814
				c0.934,0.332,1.417,1.358,1.082,2.29C231.434,181.26,229.892,181.561,228.959,181.228z"/>
		</g>
	</g>
	<g>
		<g>
			<path fill="#79C53C" d="M137.754,157.465c0,0-17.909-2.658-20.549,5.568c-1.319,4.095,3.917,5.024,5.502,5.184
				c1.586,0.16-6.607-3.408-3.961,20.238c0,0,9.51-4.635,13.92-9.01c0,0,6.977,9.08,9.083-2.444
				C143.862,165.475,137.754,157.465,137.754,157.465z"/>
		</g>
		<path fill="#9AE05C" d="M118.744,188.45c-0.003,0.014-0.005,0.026-0.007,0.031c0.703-4.664-0.146-9.382,1.545-13.958
			c0.372-1.021,0.891-2.145,1.555-3.021c0.594-0.781,2.021-1.372,2.447-2.061c1.503-2.441-2.307-2.43-3.45-4.167
			c-2.158-3.287,2.683-4.962,5.117-5.739c-1.386,0.826-3.728,1.939-3.986,3.733c-0.389,2.686,3.373,2.87,3.767,5.359
			c0.303,1.911-2.909,4.308-3.746,6.244C120.143,179.153,119.433,183.881,118.744,188.45z"/>
		<g>
			<path fill="#365607" d="M118.641,187.497c0,0,0.355-0.433,0.977-1.19c0.607-0.769,1.475-1.866,2.516-3.183
				c1.036-1.321,2.213-2.885,3.46-4.569c1.249-1.684,2.551-3.502,3.787-5.363c0.644-0.914,1.236-1.86,1.84-2.78
				c0.606-0.918,1.14-1.859,1.691-2.75c0.518-0.91,1.018-1.789,1.493-2.623c0.457-0.843,0.85-1.661,1.233-2.406
				c0.372-0.75,0.655-1.464,0.944-2.081c0.296-0.616,0.489-1.177,0.651-1.638c0.331-0.922,0.52-1.449,0.52-1.449
				s-0.16,0.537-0.44,1.476c-0.138,0.471-0.301,1.046-0.563,1.678c-0.253,0.634-0.5,1.37-0.856,2.133
				c-0.362,0.759-0.733,1.595-1.166,2.457c-0.456,0.85-0.91,1.763-1.441,2.671c-0.544,0.9-1.072,1.853-1.671,2.781
				c-0.597,0.929-1.182,1.888-1.821,2.81c-1.26,1.857-2.585,3.668-3.854,5.344c-1.267,1.678-2.52,3.188-3.589,4.485
				C120.184,185.87,118.641,187.497,118.641,187.497z"/>
		</g>
		<g>
			<path fill="#365607" d="M124.527,164.468c0.778,0.319,1.573,0.59,2.38,0.809c0.808,0.213,1.62,0.411,2.446,0.5
				c0.412,0.045,0.825,0.084,1.236,0.081c0.413,0.008,0.821-0.013,1.229-0.054c0.204-0.015,0.401-0.07,0.602-0.102
				c0.203-0.028,0.396-0.086,0.587-0.153c0.189-0.07,0.393-0.105,0.567-0.208l0.54-0.266l0.308-0.152l0.047,0.328
				c0.313,2.165,0.604,4.34,1.033,6.486c0.196,1.077,0.408,2.152,0.693,3.206c0.141,0.527,0.279,1.057,0.475,1.566
				c0.091,0.258,0.189,0.512,0.324,0.748c0.104,0.258,0.282,0.459,0.455,0.677c-0.189-0.194-0.401-0.386-0.527-0.635
				c-0.156-0.231-0.276-0.48-0.388-0.733c-0.234-0.502-0.428-1.022-0.593-1.548c-0.339-1.052-0.602-2.123-0.851-3.196
				c-0.444-2.158-0.84-4.323-1.092-6.513l0.355,0.176l-0.595,0.282c-0.193,0.107-0.412,0.145-0.618,0.217
				c-0.208,0.069-0.417,0.127-0.633,0.155c-0.214,0.032-0.426,0.085-0.642,0.098c-0.431,0.033-0.861,0.061-1.289,0.025
				c-0.428-0.017-0.853-0.077-1.272-0.144c-0.841-0.137-1.663-0.357-2.46-0.638C126.049,165.194,125.265,164.875,124.527,164.468z"
				/>
		</g>
		<g>
			<path fill="#365607" d="M123.366,173.196c1.084,0.149,2.164,0.3,3.24,0.358c0.537,0.02,1.076,0.048,1.595-0.013
				c0.257-0.03,0.517-0.064,0.744-0.148c0.126-0.026,0.214-0.094,0.315-0.145c0.11-0.046,0.145-0.139,0.23-0.199l0.437-0.301
				l0.017,0.427c0.076,1.944,0.117,3.89,0.024,5.842c-0.273-1.936-0.414-3.876-0.519-5.819l0.453,0.125
				c-0.119,0.117-0.229,0.281-0.373,0.344c-0.141,0.075-0.282,0.162-0.427,0.192c-0.289,0.099-0.575,0.131-0.859,0.16
				c-0.569,0.043-1.124-0.002-1.673-0.068C125.474,173.804,124.402,173.559,123.366,173.196z"/>
		</g>
	</g>
	<g>
		<g>
			<path fill="#79C53C" d="M182.493,168.729c0,0-16.968-6.316-21.256,1.185c-2.139,3.733,2.791,5.73,4.309,6.214
				c1.52,0.485-5.758-4.706-8.074,18.974c0,0,10.265-2.561,15.486-5.925c0,0,4.942,10.328,9.394-0.511
				C186.808,177.829,182.493,168.729,182.493,168.729z"/>
		</g>
		<path fill="#9AE05C" d="M157.474,195.099c-0.006,0.011-0.012,0.023-0.014,0.031c1.657-4.42,1.805-9.207,4.406-13.336
			c0.575-0.922,1.316-1.913,2.146-2.632c0.745-0.644,2.263-0.924,2.82-1.512c1.979-2.073-1.751-2.851-2.508-4.788
			c-1.431-3.666,3.649-4.301,6.196-4.553c-1.526,0.521-4.05,1.125-4.673,2.824c-0.936,2.548,2.704,3.507,2.573,6.024
			c-0.101,1.932-3.741,3.609-4.958,5.332C160.771,186.298,159.094,190.771,157.474,195.099z"/>
		<g>
			<path fill="#365607" d="M157.57,194.146c0,0,0.437-0.35,1.202-0.962c0.753-0.626,1.83-1.52,3.121-2.592
				c1.287-1.077,2.763-2.363,4.333-3.753c1.571-1.388,3.222-2.896,4.816-4.461c0.82-0.76,1.596-1.563,2.376-2.338
				c0.783-0.772,1.5-1.582,2.224-2.34c0.695-0.782,1.367-1.539,2.004-2.256c0.621-0.73,1.175-1.449,1.705-2.098
				c0.519-0.657,0.944-1.296,1.354-1.84c0.418-0.541,0.723-1.05,0.977-1.467c0.516-0.833,0.81-1.31,0.81-1.31
				s-0.268,0.492-0.736,1.353c-0.232,0.433-0.512,0.961-0.899,1.525c-0.379,0.568-0.772,1.236-1.279,1.909
				c-0.512,0.667-1.048,1.408-1.65,2.162c-0.622,0.736-1.255,1.536-1.963,2.314c-0.719,0.769-1.433,1.591-2.211,2.374
				c-0.777,0.785-1.547,1.603-2.364,2.372c-1.618,1.555-3.289,3.052-4.879,4.428c-1.586,1.379-3.125,2.598-4.44,3.644
				C159.416,192.874,157.57,194.146,157.57,194.146z"/>
		</g>
		<g>
			<path fill="#365607" d="M168.103,172.837c0.695,0.474,1.417,0.903,2.161,1.285c0.746,0.375,1.5,0.738,2.289,0.996
				c0.393,0.13,0.79,0.253,1.193,0.335c0.402,0.094,0.806,0.158,1.212,0.203c0.203,0.028,0.407,0.015,0.61,0.025
				c0.204,0.015,0.405-0.001,0.606-0.028c0.199-0.029,0.405-0.022,0.597-0.086l0.584-0.147l0.333-0.084l-0.022,0.331
				c-0.142,2.182-0.309,4.371-0.334,6.559c-0.031,1.094-0.048,2.189,0.013,3.279c0.029,0.545,0.055,1.093,0.141,1.63
				c0.035,0.271,0.079,0.54,0.161,0.8c0.048,0.273,0.181,0.507,0.305,0.756c-0.146-0.229-0.313-0.461-0.385-0.73
				c-0.104-0.259-0.17-0.527-0.227-0.798c-0.125-0.539-0.207-1.088-0.259-1.637c-0.114-1.099-0.149-2.201-0.17-3.303
				c0.013-2.203,0.074-4.402,0.282-6.597l0.311,0.246l-0.641,0.153c-0.212,0.064-0.433,0.057-0.649,0.083
				c-0.217,0.025-0.434,0.038-0.651,0.021c-0.216-0.014-0.435-0.005-0.648-0.037c-0.428-0.057-0.855-0.119-1.267-0.243
				c-0.415-0.105-0.818-0.252-1.215-0.404c-0.794-0.308-1.552-0.694-2.274-1.134C169.441,173.862,168.74,173.389,168.103,172.837z"
				/>
		</g>
		<g>
			<path fill="#365607" d="M165.155,181.136c1.03,0.371,2.055,0.742,3.097,1.022c0.521,0.131,1.042,0.271,1.563,0.318
				c0.257,0.024,0.519,0.045,0.758,0.011c0.128,0,0.229-0.047,0.338-0.076c0.118-0.022,0.17-0.106,0.267-0.146l0.489-0.203
				l-0.072,0.42c-0.329,1.917-0.692,3.829-1.188,5.719c0.133-1.949,0.399-3.877,0.699-5.799l0.417,0.217
				c-0.141,0.09-0.282,0.229-0.437,0.26c-0.153,0.044-0.31,0.1-0.458,0.099c-0.303,0.036-0.589,0.008-0.874-0.023
				c-0.565-0.076-1.099-0.235-1.623-0.414C167.092,182.167,166.093,181.705,165.155,181.136z"/>
		</g>
	</g>
	<g>
		<g>
			<path fill="#79C53C" d="M205.616,168.375c0,0,1.412,11.291,6.836,11.503c2.702,0.108,2.384-3.218,2.212-4.205
				c-0.172-0.989-0.95,4.576,12.92-1.015c0,0-4.409-4.975-7.803-6.907c0,0,4.319-5.756-3.014-5.086
				C209.437,163.33,205.616,168.375,205.616,168.375z"/>
		</g>
		<path fill="#9AE05C" d="M227.583,174.66c0.008,0,0.015,0,0.02-0.002c-2.941,0.361-5.656,1.673-8.712,1.422
			c-0.681-0.058-1.448-0.181-2.089-0.433c-0.572-0.228-1.175-0.994-1.663-1.135c-1.73-0.498-1.08,1.806-1.938,2.791
			c-1.629,1.862-3.459-0.785-4.338-2.131c0.733,0.701,1.8,1.933,2.931,1.786c1.69-0.22,1.17-2.528,2.609-3.184
			c1.105-0.508,3.1,1.035,4.41,1.213C221.717,175.38,224.699,175.013,227.583,174.66z"/>
		<g>
			<path fill="#365607" d="M227.021,174.884c0,0-1.303-0.532-3.258-1.329c-1.96-0.776-4.578-1.8-7.244-2.674
				c-1.325-0.46-2.667-0.867-3.934-1.215c-0.636-0.165-1.251-0.323-1.834-0.474c-0.585-0.14-1.145-0.245-1.658-0.356
				c-0.516-0.103-0.993-0.16-1.415-0.236c-0.421-0.081-0.792-0.107-1.099-0.132c-0.613-0.059-0.964-0.093-0.964-0.093
				s0.353-0.001,0.969-0.004c0.31,0,0.686-0.003,1.114,0.044c0.428,0.041,0.916,0.06,1.439,0.144
				c1.049,0.155,2.271,0.363,3.557,0.688c1.282,0.332,2.643,0.718,3.983,1.162c1.337,0.455,2.656,0.956,3.885,1.446
				c1.229,0.487,2.35,1.007,3.312,1.444C225.791,174.193,227.021,174.884,227.021,174.884z"/>
		</g>
		<g>
			<path fill="#365607" d="M212.088,175.203c0.086-1.054,0.076-2.112-0.086-3.134c-0.091-0.508-0.219-1.008-0.414-1.474
				c-0.109-0.225-0.206-0.46-0.355-0.657c-0.127-0.215-0.3-0.389-0.461-0.573l-0.232-0.265l0.309-0.135
				c1.257-0.549,2.518-1.104,3.753-1.702c0.621-0.291,1.24-0.591,1.833-0.932c0.296-0.17,0.599-0.334,0.877-0.531
				c0.284-0.191,0.551-0.403,0.748-0.69c-0.142,0.317-0.394,0.583-0.657,0.806c-0.261,0.233-0.538,0.447-0.827,0.64
				c-0.576,0.392-1.177,0.741-1.782,1.082c-1.223,0.656-2.473,1.25-3.757,1.777l0.076-0.4c0.186,0.214,0.385,0.42,0.521,0.667
				c0.16,0.232,0.259,0.495,0.368,0.748c0.202,0.516,0.29,1.059,0.346,1.594C212.446,173.099,212.345,174.175,212.088,175.203z"/>
		</g>
		<g>
			<path fill="#365607" d="M217.566,174.435c-0.132-0.68-0.24-1.355-0.4-2.009c-0.086-0.323-0.161-0.651-0.287-0.945
				c-0.06-0.146-0.124-0.292-0.207-0.405c-0.035-0.069-0.085-0.102-0.127-0.148c-0.042-0.054-0.087-0.049-0.126-0.088l-0.354-0.358
				l0.354-0.112c1.165-0.37,2.341-0.706,3.56-0.915c-1.104,0.557-2.248,0.988-3.404,1.385l-0.001-0.47
				c0.103,0.055,0.236,0.104,0.305,0.186c0.075,0.079,0.158,0.158,0.202,0.244c0.114,0.168,0.182,0.341,0.249,0.514
				c0.12,0.347,0.185,0.694,0.229,1.043C217.638,173.051,217.652,173.745,217.566,174.435z"/>
		</g>
	</g>
	<g>
		<g>
			<path fill="#79C53C" d="M124.404,101.539c0,0,5.684-17.21-1.977-21.221c-3.814-2-5.627,3.005-6.057,4.542
				c-0.428,1.538,4.492-5.935-19.28-7.368c0,0,2.943,10.171,6.507,15.269c0,0-10.152,5.33,0.856,9.378
				C115.46,106.193,124.404,101.539,124.404,101.539z"/>
		</g>
		<path fill="#9AE05C" d="M97.093,77.492c-0.014-0.005-0.024-0.01-0.031-0.014c4.483,1.493,9.278,1.462,13.503,3.909
			c0.942,0.544,1.964,1.249,2.713,2.053c0.669,0.72,1.009,2.228,1.616,2.767c2.15,1.899,2.789-1.86,4.697-2.689
			c3.613-1.569,4.437,3.493,4.786,6.027c-0.577-1.507-1.274-4.01-2.999-4.569c-2.583-0.84-3.409,2.834-5.932,2.796
			c-1.938-0.026-3.75-3.607-5.517-4.761C106.021,80.461,101.482,78.952,97.093,77.492z"/>
		<g>
			<path fill="#365607" d="M98.05,77.556c0,0,0.366,0.424,1.007,1.167c0.654,0.73,1.588,1.774,2.709,3.026
				c1.125,1.248,2.466,2.676,3.915,4.194c1.446,1.52,3.018,3.115,4.642,4.652c0.791,0.792,1.624,1.538,2.427,2.29
				c0.802,0.754,1.639,1.442,2.423,2.138c0.809,0.666,1.59,1.31,2.332,1.92c0.753,0.594,1.493,1.122,2.162,1.627
				c0.677,0.495,1.332,0.896,1.891,1.287c0.557,0.397,1.077,0.683,1.504,0.922c0.854,0.484,1.341,0.76,1.341,0.76
				s-0.502-0.25-1.381-0.687c-0.441-0.216-0.98-0.475-1.559-0.842c-0.583-0.358-1.266-0.727-1.957-1.209
				c-0.687-0.487-1.448-0.995-2.224-1.569c-0.76-0.595-1.583-1.199-2.389-1.878c-0.795-0.69-1.644-1.374-2.457-2.124
				c-0.814-0.748-1.661-1.488-2.46-2.276c-1.616-1.56-3.176-3.176-4.611-4.715c-1.439-1.536-2.715-3.03-3.811-4.307
				C99.39,79.355,98.05,77.556,98.05,77.556z"/>
		</g>
		<g>
			<path fill="#365607" d="M119.756,87.298c-0.448,0.713-0.851,1.45-1.205,2.208c-0.348,0.76-0.683,1.527-0.911,2.327
				c-0.115,0.398-0.224,0.799-0.291,1.205c-0.079,0.406-0.127,0.812-0.157,1.221c-0.02,0.204,0,0.407-0.002,0.611
				c-0.006,0.204,0.017,0.405,0.051,0.605c0.037,0.198,0.037,0.405,0.109,0.594l0.169,0.578l0.097,0.33l-0.331-0.009
				c-2.188-0.061-4.384-0.146-6.575-0.09c-1.095,0.009-2.192,0.034-3.28,0.135c-0.544,0.049-1.091,0.095-1.625,0.2
				c-0.27,0.045-0.537,0.099-0.793,0.191c-0.272,0.058-0.501,0.199-0.746,0.333c0.225-0.154,0.45-0.329,0.716-0.411
				c0.255-0.114,0.521-0.189,0.79-0.256c0.535-0.145,1.081-0.248,1.628-0.32c1.095-0.155,2.197-0.231,3.298-0.293
				c2.205-0.069,4.407-0.089,6.611,0.037l-0.234,0.32l-0.177-0.635c-0.073-0.209-0.073-0.431-0.108-0.646
				c-0.033-0.216-0.054-0.433-0.045-0.65c0.005-0.216-0.011-0.435,0.013-0.649c0.041-0.43,0.086-0.859,0.195-1.275
				c0.089-0.419,0.221-0.828,0.358-1.23c0.279-0.806,0.637-1.579,1.05-2.317C118.781,88.675,119.229,87.956,119.756,87.298z"/>
		</g>
		<g>
			<path fill="#365607" d="M111.348,84.655c-0.333,1.044-0.666,2.083-0.908,3.136c-0.111,0.526-0.232,1.054-0.26,1.576
				c-0.015,0.258-0.025,0.521,0.018,0.759c0.004,0.129,0.056,0.228,0.089,0.336c0.027,0.117,0.112,0.166,0.156,0.261l0.223,0.481
				l-0.423-0.056c-1.931-0.257-3.857-0.549-5.767-0.974c1.956,0.061,3.894,0.254,5.829,0.483l-0.201,0.425
				c-0.095-0.137-0.238-0.273-0.276-0.427c-0.05-0.151-0.112-0.306-0.116-0.454c-0.048-0.301-0.03-0.589-0.01-0.875
				c0.055-0.569,0.194-1.108,0.354-1.639C110.388,86.632,110.813,85.616,111.348,84.655z"/>
		</g>
	</g>
	<g>
		<path fill="#779B1E" d="M256.678,118.431c0,0-0.463,0.106-0.621-0.011c-0.444,0.887-1.007,1.88-1.724,2.947
			c-0.108,0.16-0.234,0.331-0.347,0.496c-0.022,0.21-0.048,0.405-0.08,0.592c1.511-0.616,4.026-1.007,8.221-0.711
			c0,0-5.381,7.684-10.398,3.556c-0.145,0.02-0.288-0.039-0.319-0.063c-1.004,1.203-2.137,2.435-3.403,3.674
			c-0.036,0.11-0.076,0.213-0.114,0.321c1.811,0.035,4.256,0.425,7.567,1.419c0,0-7.23,6.516-11.935,2.179
			c-0.704,0.545-1.434,1.078-2.188,1.597c-0.814,0.535-1.641,1.042-2.474,1.505c1.781,0.072,4.148,0.469,7.3,1.413
			c0,0-8.087,7.299-12.727,1.328c0,0,0.002-0.066,0.018-0.172c-0.455,0.194-0.916,0.375-1.372,0.538
			c-0.742,0.287-1.47,0.563-2.176,0.832c-0.705,0.268-1.416,0.46-2.093,0.682c-0.679,0.209-1.332,0.412-1.967,0.608
			c-0.638,0.159-1.256,0.314-1.845,0.463c-1.17,0.313-2.254,0.513-3.199,0.69c-0.944,0.193-1.775,0.28-2.449,0.378
			c-1.351,0.159-2.113,0.168-2.114,0.121c-0.005-0.047,0.714-0.177,2.004-0.454c1.289-0.289,3.152-0.705,5.408-1.39
			c0.563-0.171,1.155-0.348,1.771-0.533c0.612-0.193,1.237-0.432,1.891-0.658c0.653-0.229,1.328-0.469,2.022-0.719
			c0.682-0.281,1.38-0.572,2.099-0.868c0.356-0.154,0.723-0.298,1.09-0.45c-0.746-1.065-2.436-4.919,6.938-10.24
			c0,0,0.38,4.138-0.866,7.263c0.609-0.348,1.218-0.717,1.817-1.118c0.761-0.504,1.497-1.026,2.207-1.564
			c-0.913-0.986-3.023-4.552,5.325-11.162c0,0,0.781,3.157,0.438,6.159c0.857-0.844,1.643-1.68,2.379-2.497
			c-3.632-4.249,2.235-10.234,2.235-10.234c0.713,2.666,1.003,4.677,1.03,6.206c0.661-0.908,1.206-1.751,1.644-2.507
			c-0.806-1.004-1.502-3.679,3.569-10.068C259.239,107.98,262.9,116.767,256.678,118.431z"/>
		<path fill="#91B22B" d="M233.437,138.672c0,0,3.786,4.377,12.213-1.134C245.649,137.539,240.581,140.249,233.437,138.672z"/>
		<path fill="#91B22B" d="M243.544,132.461c0,0,3.837,3.907,11.47-1.805C255.014,130.656,250.387,133.521,243.544,132.461z"/>
		<path fill="#91B22B" d="M251.859,125.042c0.398,0.055,0.892,0.455,1.278,0.6c0.508,0.193,1.043,0.326,1.587,0.364
			c0.956,0.067,1.873-0.157,2.717-0.599c1.599-0.834,3.089-1.998,4.182-3.444C261.623,121.963,256.799,125.716,251.859,125.042z"/>
		<path fill="#91B22B" d="M256.663,118.316c0.264-0.304,0.869-0.5,1.201-0.743c0.441-0.32,0.844-0.692,1.173-1.126
			c0.578-0.761,0.896-1.655,0.985-2.599c0.178-1.797,0.022-3.683-0.591-5.387C259.432,108.46,259.932,114.551,256.663,118.316z"/>
	</g>
	<g>
		<path fill="#779B1E" d="M84.292,165.789c0,0,0.52,0.063,0.639,0.245c0.794-0.75,1.75-1.561,2.893-2.395
			c0.168-0.127,0.363-0.253,0.542-0.381c0.102-0.213,0.201-0.404,0.304-0.584c-1.792,0.069-4.537-0.471-8.757-2.356
			c0,0,8.45-5.916,12.077,0.237c0.155,0.034,0.284,0.147,0.308,0.186c1.488-0.863,3.124-1.714,4.897-2.517
			c0.077-0.1,0.16-0.191,0.236-0.287c-1.856-0.719-4.235-2.041-7.284-4.314c0,0,9.921-4.011,13.156,2.236
			c0.927-0.295,1.88-0.574,2.854-0.826c1.044-0.242,2.089-0.458,3.125-0.626c-1.817-0.74-4.114-2.043-7.013-4.205
			c0,0,11.099-4.494,13.646,3.413c0,0-0.026,0.068-0.082,0.174c0.542-0.03,1.087-0.046,1.62-0.041
			c0.875-0.016,1.73-0.029,2.561-0.043c0.83-0.009,1.636,0.059,2.418,0.087c0.779,0.037,1.532,0.074,2.259,0.111
			c0.72,0.075,1.417,0.146,2.081,0.214c1.326,0.116,2.522,0.317,3.564,0.489c1.05,0.157,1.942,0.381,2.675,0.532
			c1.455,0.343,2.242,0.619,2.227,0.668c-0.01,0.054-0.803-0.083-2.241-0.285c-1.438-0.186-3.523-0.458-6.107-0.596
			c-0.649-0.036-1.326-0.076-2.031-0.116c-0.704-0.034-1.439-0.02-2.201-0.03c-0.761-0.008-1.549-0.015-2.359-0.021
			c-0.81,0.038-1.643,0.071-2.493,0.11c-0.428,0.026-0.862,0.036-1.297,0.054c0.37,1.38,0.665,5.999-11.019,7.971
			c0,0,1.165-4.418,3.628-7.178c-0.764,0.131-1.527,0.285-2.301,0.47c-0.974,0.237-1.931,0.501-2.864,0.789
			c0.57,1.363,1.411,5.841-9.703,9.526c0,0,0.383-3.555,1.864-6.525c-1.203,0.548-2.328,1.116-3.395,1.684
			c2.154,5.755-6.16,9.733-6.16,9.733c0.267-3.022,0.726-5.212,1.269-6.801c-1.023,0.691-1.903,1.358-2.641,1.972
			c0.456,1.341,0.167,4.365-7.473,9.06C77.717,175.623,77.24,165.166,84.292,165.789z"/>
		<path fill="#91B22B" d="M117.211,153.562c0,0-2.264-5.943-13.04-3.42C104.171,150.142,110.426,149.25,117.211,153.562z"/>
		<path fill="#91B22B" d="M104.436,156.182c0,0-2.496-5.48-12.529-2.451C91.907,153.73,97.766,152.513,104.436,156.182z"/>
		<path fill="#91B22B" d="M93.055,160.718c-0.39-0.206-0.752-0.803-1.098-1.099c-0.451-0.393-0.953-0.732-1.5-0.974
			c-0.962-0.429-1.997-0.541-3.031-0.402c-1.967,0.259-3.946,0.903-5.617,1.984C81.81,160.228,88.204,158.164,93.055,160.718z"/>
		<path fill="#91B22B" d="M85.561,165.86c-0.383,0.217-1.084,0.188-1.52,0.315c-0.576,0.165-1.131,0.396-1.635,0.721
			c-0.882,0.571-1.548,1.376-1.996,2.316c-0.858,1.791-1.409,3.799-1.415,5.787C78.996,175,80.771,168.521,85.561,165.86z"/>
	</g>
	<g>
		<path fill="#C61A1A" d="M170.469,89.313c0,0-4.886-3.958-8.838,0.803c-3.953,4.77-2.285,9.193-2.285,9.193
			s-2.595,5.813,1.592,9.15c0.414,0.331,1.222,0.112,1.513,1.472c0.294,1.354,0.349,9.847,11.195,9.602
			c1.515-0.031,5.846-1.482,4.413-4.324c-0.125-0.246,2.043,1.723,3.23,3.228c1.177,1.498,4.271-1.764,5.167-3.733
			C187.351,112.726,174.439,91.808,170.469,89.313z"/>
		<path fill="#B20F0F" d="M180.121,114.567c0,0-9.233-3.666-9.5-9.33c0,0-8.332-11.354-2.183-17.106l5.746,15.546L180.121,114.567z"
			/>
		<path fill="#A00505" d="M181.991,113.138c0,0-15.175-11.156-14.142-23.325c1.035-12.169,4.956-18.826,12.599-18.171
			c7.648,0.656,9.915,3.555,12.059,3.417c2.144-0.124,8.344-2.733,7.706,3.644c-0.023,0.269-0.312,1.126,0.62,0.874
			c0.933-0.252,0.968,0.193,0.776,0.665c-0.193,0.479-0.099,0.561,0.366,0.657c1.422,0.303,3.727,1.341,2.793,5.104
			c-0.932,3.755-3.766,5.641-2.955,6.33c0.813,0.69,3.789,2.915-0.702,12.471c0,0,1.281,0.977-0.118,3.879
			c-1.39,2.895-3.9,2.726-6.586,4.706c-2.681,1.976-6.143,1.728-6.164,2.045c0,0,0.589,1.361,5.078-7.171
			c4.483-8.539,9.089-19.528,0.767-20.999C185.762,85.803,178.83,108.738,181.991,113.138z"/>
		<path fill="#B20F0F" d="M200.199,96.033c1.143-1.782,2.383-5.957,6.711-5.564c4.322,0.392,4.078,5.26,4.079,9.204
			c-0.006,3.946,2.561,17.509-13.064,16.49C182.297,115.139,197.409,100.367,200.199,96.033z"/>
		<path fill="#FFA18B" d="M185.208,87.965c0,0-0.78-8.671,0.646-8.624c1.434,0.045,4.584,1.457,4.943,3.963
			C191.163,85.805,186.325,92.115,185.208,87.965z"/>
		<path fill="#C61A1A" d="M198.546,86.165c-0.883-1.513-2.771-1.63-3.842-1.004c0.05-1.051,0.008-1.466-0.644-2.172
			c-0.903-0.978-2.37-0.987-3.49-0.186c-0.645-2.22-3.498-3.469-4.842-3.512c-0.181-0.007-0.396,0.097-0.431,0.353
			c-0.24,1.496,1.038,3.814,2.354,5.003c0.65,0.588,1.036,0.82,1.59,1.337c0.131,0.126,0.237,0.54,0.242,0.729
			c0.049,1.951,1.063,4.25,3.375,3.292c0.095-0.043,0.187-0.095,0.276-0.148c-0.14,1.923,1.37,4.498,3.615,3.565
			C199.061,92.457,199.875,88.455,198.546,86.165z"/>
		<path fill="#FFA18B" d="M189.728,88.39c0,0,0.14-5.413,1.722-5.241c1.917,0.215,3.786,4.492,1.998,8.662
			C191.665,95.974,189.669,90.491,189.728,88.39z"/>
		<path fill="#E24844" d="M192.938,87.092c0,0-0.228-2.618-0.321-3.015c-0.095-0.396-0.283-0.261-0.39,0.205
			c0,0-1.033-0.7-0.876,0.202C191.496,85.381,192.669,86.828,192.938,87.092z"/>
		<path fill="#C61A1A" d="M194.901,93.43c-0.09-2.617-1.611-4.319-7.248-7.702c-5.635-3.383-5.367-5.813-7.393-4.599
			c-1.655,0.986-0.356,3.527-0.279,5.318c0.068,1.778,0.277,2.522-0.586,4.577c-0.86,2.053-2.475,5.773-0.692,8.449
			C180.248,101.803,195.121,100.121,194.901,93.43z"/>
		<path fill="#E03434" d="M192.145,115.377c0,0-9.86,3.417-15.988-3.792c-6.132-7.22-2.428-13.692,1.554-15.438
			c3.978-1.741,4.776-3.953,10.433-4.08c5.666-0.118,12.42-4.559,13.314-2.429c0.905,2.126-2.734-1.15-1.794,9.756
			C200.611,110.304,194.436,114.836,192.145,115.377z"/>
		<path opacity="0.6" fill="#F48273" d="M198.955,102.093c0,0-1.782,10.98-7.875,12.649c-6.516,1.785-14.852-0.188-15.948-7.441
			c3.715,4.168,7.311,4.77,10.428,2.494c2.057-1.494,4.055-2.936,6.287-4.173C192.651,105.178,198.842,102.773,198.955,102.093z"/>
		<path fill="#E03434" d="M210.184,95.137c0,0-1.171-6.074-6.961-3.133C203.223,92.004,207.973,90.518,210.184,95.137z"/>
		<path fill="#E03434" d="M185.195,73.061c-1.985-0.737-4.208-1.016-6.321-0.743c-1.763,0.231-3.684,1.208-5.034,2.353
			c-1.104,0.939-3.885,4.278-3.591,5.879c0.457,2.515,4.743-4.315,5.033-4.595C177.896,73.413,181.737,73.259,185.195,73.061z"/>
	</g>
	<g>
		<path fill="#FFA18B" d="M141.095,140.662c0.216,3.043-3.396,8.864-2.657,11.902s-4.299,14.586-13.659,13.296
			c-9.359-1.286-7.41,1.242-8.803,2.922c-1.397,1.685-6.504,2.197-9.813-1.339c-3.309-3.533-4.158-4.203-5.063-4.127
			c-0.9,0.073-6.134-6.743-1.64-12.98C103.952,144.096,140.091,126.915,141.095,140.662z"/>
		<path fill="#E24844" d="M138.819,150.066c0,0-6.287,8.348-13.392,7.657c0,0-3.035,4.092-10.952,0.58c0,0-13.25,3.405-12.273-5.995
			c0,0,8.847-8.154,23.995-9.12C126.197,143.189,135.153,143.585,138.819,150.066z"/>
		<path fill="#E03434" d="M104.723,131.954c0,0-19.424-0.686-15.297,6.205c4.126,6.889,5.31,7.133,5.329,9.364
			c0.016,2.236,2.892,10.059,14.573,8.648c11.681-1.414,10.679,6.045,19.155-9.548C136.955,131.028,106.855,131.966,104.723,131.954
			z"/>
		<path fill="#FFAF9F" d="M122.633,146.222c0,0-4.938,2.528-9.091,1.078c-4.157-1.447-7.221-4.052-10.31-3.153
			c-3.082,0.888-13.675-1.826-13.887-11.739c0,0-0.324-2.235,1.023-3.332c0.832-0.675,0.585-1.386,0.368-2.128
			c-0.29-0.991-2.499-14.125,10.152-14.986C113.546,111.097,121.6,141.186,122.633,146.222z"/>
		<path fill="#F48273" d="M96.172,147.669c0,0,0.889,10.021,15.789,7.409C111.961,155.078,101.007,155.659,96.172,147.669z"/>
		<path fill="#F48273" d="M96.807,125.403c0,0-0.924,15.238,13.328,16.236c0,0,3.162,2.721,6.079,4.249c0,0-1.721-1.766,0.549-2.845
			l-5.025-3.345C111.738,139.698,100.042,138.438,96.807,125.403z"/>
		<path fill="#E03434" d="M137.653,130.472c0,0,4.985-5.351,6.388-8.791c1.408-3.435,1.079-20.411-5.474-24.263
			c-6.551-3.854-8.077-0.457-8.077-0.457s-11.152-9.72-19.49,3.717c-8.323,13.382-5.129,15.094-5.129,15.094
			S132.458,104.918,137.653,130.472z"/>
		<path fill="#C61A1A" d="M110.356,108.629c0,0,7.368-6.078,15.188-4.909c0,0,14.425,4.323,11.993,20.731
			c0,0-6.634-16.955-18.087-13.913C119.45,110.538,114.622,114.987,110.356,108.629z"/>
		<path fill="#A00505" d="M124.666,116.311c-1.316,0.461-1.826,4.328,2.616,4.929c4.443,0.605,6.088-0.559,3.835-1.615
			C128.867,118.565,126.375,115.706,124.666,116.311z"/>
		<path fill="#A00505" d="M131.786,118.83c0,0-2.888,9.152-9.621,13.243c-6.726,4.083-18.572,2.529-11.337,7.822
			c7.605,5.562,8.768,4.727,21.286,2.749C144.632,140.668,140.908,117.937,131.786,118.83z"/>
		<path fill="#D64B47" d="M133.035,118.614c0,0,8.385,0.542,11.426,7.438c3.038,6.898-5.956,23.375-10.381,15.215
			C131.158,135.89,138.177,120.367,133.035,118.614z"/>
		<path fill="#A00505" d="M133.891,119.858c0,0,1.684,16.426,5.22,19.236c0,0,10.207-4.046,5.681-13.338
			C141.252,118.498,134.418,117.924,133.891,119.858z"/>
		<path fill="#E03434" d="M124.77,117.923c0,0,1.305,5.423-1.163,8.884c-2.471,3.461-3.986,6.165-3.31,7.272
			c0,0,10.302-7.532,10.902-13.821C131.2,120.259,127.253,122.727,124.77,117.923z"/>
		<g>
			<path fill="#FFFFFF" d="M118.622,126.446c-1.203-0.6-4.606-0.977-5.359,0.466c-0.75,1.439-0.939,3.926,3.136,3.246
				C120.475,129.474,119.553,126.91,118.622,126.446z"/>
			<path fill="#BA3D3A" d="M118.622,126.446c0,0-0.249-0.129-0.72-0.253c-0.469-0.122-1.158-0.258-1.99-0.25
				c-0.415,0.008-0.867,0.042-1.323,0.161c-0.449,0.118-0.929,0.342-1.188,0.761c-0.253,0.436-0.404,0.955-0.444,1.477
				c-0.048,0.523,0.141,1.06,0.547,1.375c0.415,0.309,0.965,0.422,1.496,0.439c0.534,0.008,1.07-0.039,1.575-0.125
				c0.515-0.094,0.998-0.203,1.427-0.405c0.428-0.189,0.816-0.438,1.061-0.772c0.255-0.325,0.353-0.712,0.337-1.046
				c-0.015-0.335-0.12-0.622-0.249-0.826C118.906,126.552,118.609,126.454,118.622,126.446z M118.622,126.446
				c-0.013,0.008,0.286,0.102,0.54,0.53c0.133,0.203,0.244,0.49,0.265,0.831c0.023,0.34-0.075,0.733-0.319,1.08
				c-0.238,0.355-0.626,0.628-1.058,0.841c-0.428,0.225-0.935,0.361-1.438,0.474c-0.518,0.115-1.059,0.181-1.619,0.177
				c-0.554-0.011-1.152-0.111-1.643-0.466c-0.479-0.379-0.68-1.025-0.616-1.585c0.046-0.566,0.23-1.106,0.52-1.557
				c0.321-0.467,0.844-0.67,1.308-0.775c0.475-0.103,0.932-0.118,1.35-0.108c0.837,0.024,1.525,0.158,1.993,0.292
				C118.375,126.313,118.622,126.446,118.622,126.446z"/>
		</g>
		<path fill="#F6739A" d="M146.291,109.572c0,0-7.296-1.418-6.9,6.082c0.393,7.501,8.185,11.415,3.602,18.623
			c-4.586,7.207-9.038,8.83-16.795,8.913c-7.755,0.077-12.693-1.876-9.636,3.632c3.053,5.507,8.713,9.501,19.959,4.162
			c11.245-5.341,7.88-8.129,7.88-8.129s8.328-0.025,10.215-12.101c0,0,0.218-2.422-0.317-4.255
			c-0.536-1.833,1.225-4.854,1.828-5.108C156.729,121.139,159.508,110.986,146.291,109.572z"/>
		<path fill="#E03434" d="M117.223,110.376c0,0,5.376-5.612,11.253-0.647c5.875,4.964,10.84,13.227,9.334,23.484
			c0,0,0.085,1.674-1.952,3.213c-2.032,1.535-2.452,2.354-2.444,2.821c0,0-0.59-5.059-0.189-9.507
			c0.398-4.447-1.527-13.458-11.01-12.906C122.214,116.834,115.507,113.105,117.223,110.376z"/>
		<path fill="#E03434" d="M123.771,117.575c0,0-2.935-10.189-14.695-8.525c-11.76,1.667-12.647,8.863-12.577,14.362
			c0.07,5.5,4.985,21.855,17.932,15.167C127.38,131.89,124.643,118.333,123.771,117.575z"/>
		<path fill="#F48273" d="M112.2,119.207c0,0,1.375-8.977,9.698-7.216c8.319,1.76,1.832,16.874-1.292,20.779
			C117.481,136.676,111.989,121.135,112.2,119.207z"/>
		<path fill="#F48273" d="M115.109,120.274c-1.626-0.755-4.166-3.561-7.126-0.781c-2.962,2.78-8.908,9.747,0.746,16.283
			c0,0,6.021,2.622,10.006-0.77C122.719,131.614,117.747,121.5,115.109,120.274z"/>
		<path fill="#F48273" d="M114.092,109.87c0.007-0.005,0.018-0.01,0.032-0.012c-2.797-0.425-3.431-0.797-9.909,1.31
			c-2.472,0.803-3.763,2.126-5.33,4.304c-2.706,3.754-1.464,9.513,0.014,13.513c-0.659-4.042-1.094-9.62,1.752-12.96
			C103.707,112.434,109.887,111.199,114.092,109.87z"/>
		<path fill="#C61A1A" d="M153.919,122.407c0,0-1.957,3.258-0.93,5.912c0,0-0.088,10.09-8.22,12.965c0,0-0.95-0.389-1.695,2.7
			c-1.26,5.199-7.935,11.694-19.994,7.615c-2.514-0.852-5.057-2.951-6.311-8.533c1.682-0.419,5.117,0.166,9.427,0.123
			c7.758-0.083,12.209-1.707,16.795-8.913c4.583-7.208-3.209-11.122-3.602-18.623c-0.125-2.358,0.512-3.832,1.444-4.751
			c0.425,0.05,0.862,0.052,1.313-0.063C142.148,110.839,158.843,110.974,153.919,122.407z"/>
		<path fill="#F48273" d="M146.291,109.572c13.217,1.414,10.438,11.567,9.836,11.817c-0.604,0.254-2.364,3.274-1.828,5.108
			c0.536,1.833,0.317,4.255,0.317,4.255c-1.887,12.076-10.215,12.101-10.215,12.101s3.774,3.771-7.471,9.113
			c-11.245,5.338-17.316,0.361-20.369-5.146c-1.359-2.448-1.136-3.417,0.208-3.754c1.254,5.582,3.797,7.681,6.311,8.533
			c12.059,4.08,17.554-4.241,19.005-8.344c1.063-2.996,1.885-1.739,2.684-1.971c7.733-2.244,8.22-12.965,8.22-12.965
			c-1.027-2.654,0.93-5.912,0.93-5.912c4.924-11.434-11.771-11.568-11.771-11.568c-0.452,0.116-0.888,0.113-1.313,0.063
			C142.861,108.907,146.291,109.572,146.291,109.572z"/>
		<path fill="#E03434" d="M114.074,117.837c0,0,2.361-4.953,7.026-3.401c0,0,4.115,1.291,2.565,9.063
			C123.666,123.5,111.923,125.731,114.074,117.837z"/>
		<path fill="#E03434" d="M109.935,121.402c0,0-7.575,9.355,2.4,15.067c0,0,3.368,0.859,4.983-1.103
			C117.318,135.366,107.073,138.146,109.935,121.402z"/>
		<g>
			<path fill="#A00505" d="M115.719,136.237c-3.431,0.442-8.697-4.827-6.563-12.738c2.133-7.91,8.124-2.865,8.583,0.612
				C118.196,127.593,122.821,135.316,115.719,136.237z"/>
			<path fill="#A00505" d="M124.993,123.483c-1.945-0.342-3.612-0.545-5.575-1.165c-1.961-0.619-3.898-3.199-5.541-2.855
				c0,0,4.306,2.382,3.581,5.573c-0.729,3.192-2.897,5.381-4.516,5.5c0,0,6.524,1.732,7.546,1.99
				C122.637,133.07,124.529,125.848,124.993,123.483z"/>
			<path fill="#E03434" d="M112.634,130.296c2.158,0.661,4.279-0.79,5.124-3.541c0.843-2.749-1.897-6.543-4.054-7.203
				c-2.156-0.664-4.075-0.083-4.002,4.705C109.745,127.133,110.48,129.635,112.634,130.296z"/>
			<path fill="#E03434" d="M121.967,131.636c0,0-2.801-0.566-4.819-0.395c-2.014,0.172-4.098-0.732-4.646-0.985
				c0,0-0.776-0.238,0.283,0.409c1.063,0.647,4.482,3.338,4.533,4.701C117.37,136.728,121.371,133.601,121.967,131.636z"/>
			<path fill="#FFBFB6" d="M114.966,129.866c1.109,0.335,2.822-2.376,2.916-3.673c-0.725-0.172-1.19-0.191-2.298-0.529
				c-1.105-0.34-2.28,0.282-2.621,1.391C112.624,128.163,113.86,129.524,114.966,129.866z"/>
		</g>
	</g>
	<g>
		<path fill="#D64B47" d="M232.012,112.45c0.016-0.144-0.292-2.284-0.94-3.869c-0.659-1.598-1.244-2.477-1.02-3.179
			c0.227-0.706-0.431-1.984-0.846-1.74c-2.329,1.384-1.813,5.192-7.153,9.544c-5.342,4.344-17.665,11.546-8.473,21.045
			C222.774,143.752,231.902,113.564,232.012,112.45z"/>
		<path fill="#E03434" d="M212.844,135.232c-2.502-3.765-6.208-10.845,7.194-16.583c13.408-5.743,13.56-7.326,14.294-8.125
			c0.74-0.8,2.28-1.15,4.982,4.625c0,0,0.576,1.326,1.631,1.775c1.041,0.447,5.46,5.17,3.795,6.042
			c-1.661,0.875-2.222-0.211-4.75,1.76C237.46,126.693,224.262,152.451,212.844,135.232z"/>
		<path fill="#E03434" d="M237.481,124.536c1.522,0.797,4.433,3.172,4.072,5.541c0,0,0.626,2.219-1.121,1.933
			c-1.752-0.288-1.947-3.075-4.917,0.502c-2.965,3.572-9.416,20.493-21.354,7.97C202.23,127.967,232.997,122.184,237.481,124.536z"
			/>
		<path fill="#E25952" d="M241.597,128.293c0,0-1.126-2.121-4.072,0.286c-2.949,2.399-12.804,22.615-24.007,9.01
			c-11.197-13.608-6.119-17.883-1.981-20.212c4.142-2.324,6.508-3.447,7.632-4.51c1.126-1.063,5.446-6.23,15.596-0.788
			c0,0,2.367,0.867,3.901,4.04c1.534,3.174,1.955,2.145,2.602,2.406C245.047,120.047,243.16,130.908,241.597,128.293z"/>
		<path fill="#065B28" d="M219.313,119.575c0,0-0.717,1.243-0.996,1.319c-0.279,0.081-1.791,0.951-2.343,1.61
			c-0.549,0.659-5.913,7.668-5.32,10.272c0,0,1.14-0.447,1.768-1.204l-0.331,0.708c0,0-0.602,1.557-1.464,2.088
			c-0.858,0.527,1.424,2.932,3.188,3.738c1.518,0.691,2.02-0.126,7.528,2.83c5.513,2.946,8.781,1.069,10.385,1.651
			c1.604,0.586,2.187,1.225,2.187,1.225s-2.066,0.225-3.516-0.167c-1.452-0.393-8.803,2.033-12.351,1.175
			c0,0,3.444,1.254,6.658,1.134c3.211-0.116,7.548,0.229,8.962,2.295c0,0-4.766-1.22-8.523-0.723
			c-3.759,0.486-12.518,0.563-14.742-7.008c-3.388,1.393-2.636,0.975-3.388,1.393c-0.764-0.102-0.698-1.872-2.896-4.363
			c1.475-0.888,2.682-1.782,2.859-2.013c0,0-12.642-15.614,0.596-21.822c0,0-5.768,9.777,0.012,15.972
			C207.585,129.686,210.906,121.501,219.313,119.575z"/>
	</g>
	<g>
		<path fill="#A00505" d="M187.256,202.334c0,0-12.834-10.424-9.891-19.367c3.211-9.768,11.147-10.157,17.1-7.128
			C200.414,178.868,187.256,202.334,187.256,202.334z"/>
		<path fill="#A00505" d="M194.938,203.498c-4.879,1.239-14.952-7.066-14.224-16.449c0.796-10.251,8.407-12.521,14.908-10.998
			C202.125,177.572,199.02,199.384,194.938,203.498z"/>
		<path fill="#C61A1A" d="M191.125,204.192c-2.482,0.414-13.049-9.839-10.109-18.781c3.214-9.768,11.146-10.158,17.099-7.128
			C204.069,181.312,196.51,202.161,191.125,204.192z"/>
		<path fill="#E03434" d="M193.533,175.192c0,0,3.016,1.603-4.688,9.751c-6.741,7.139-4.131,18.806-1.126,19.182
			C193.547,202.773,213.709,186.253,193.533,175.192z"/>
		<path fill="#056D2F" d="M199.505,177.91c-4.51-0.73-7.747-2.854-7.747-2.854c3.899,5.071-0.328,15.199-0.328,15.199
			c-0.528-1.146,1.635-5.218-2.446-9.182c-4.061-3.944-3.307-4.791-3.307-4.791c-6.451,1.092-10.882,11.576-10.882,11.576
			c0.683-10.878,7.617-11.892,8.085-14.114c0.353-1.656,0.439-5.049,2.247-5.347c1.213,0.281,0.835-0.383,3.418-0.237
			c2.266,0.83,3.134,4.248,3.913,4.219c1.935-0.063,2.798,2.393,6.789,3.316c3.801,0.881,8.538,1.036,12.287,2.943
			C208.406,178.798,203.122,178.494,199.505,177.91z"/>
	</g>
	<g>
		<path fill="#FFBEB3" d="M175.951,163.924c2.176,2.422,9.335,3.964,11.125,6.789c1.792,2.824,14.417,7.518,20.368-0.64
			c5.957-8.154,6.453-4.778,8.781-4.604c2.333,0.177,6.514-3.371,6.253-8.542c-0.262-5.167-0.146-6.318,0.582-6.957
			c0.725-0.641-0.637-9.724-8.766-10.897C206.156,137.898,166.118,152.949,175.951,163.924z"/>
		<path fill="#FFAF9F" d="M184.871,169.15c0,0,11.09,1.361,15.83-4.616c0,0,5.403,0.702,8.576-7.996c0,0,12.451-7.668,4.497-13.892
			c0,0-12.839,0.754-24.83,11.691C188.944,154.338,182.605,161.525,184.871,169.15z"/>
		<path fill="#E25952" d="M196.243,129.48c0,0,13.887-15.453,16.127-7.163c2.237,8.284,1.547,9.38,3.251,11.048
			c1.707,1.674,5.59,9.691-4.164,17.63c-9.758,7.934-3.275,12.704-21.563,7.65C171.611,153.588,194.671,131.129,196.243,129.48z"/>
		<path fill="#FFAF9F" d="M193.927,153.845c0,0,5.609-1.92,7.577-6.191c1.971-4.271,2.245-8.562,5.225-10.273
			c2.973-1.712,8.745-11.875,1.28-19.392c0,0-1.481-1.912-3.323-1.688c-1.139,0.137-1.501-0.577-1.912-1.296
			c-0.545-0.959-9.01-12.407-19.063-3.313C173.649,120.787,190.82,149.314,193.927,153.845z"/>
		<path fill="#FFBFB6" d="M214.679,134.563c0,0,7.05,8.127-6.018,17.647C208.661,152.21,217.239,144.213,214.679,134.563z"/>
		<path fill="#F48273" d="M197.079,118.527c0,0,12.41,10.597,2.599,22.305c0,0-0.252,4.45-1.239,7.832c0,0-0.085-2.637-2.598-1.69
			l1.153-6.35C196.994,140.623,204.708,130.69,197.079,118.527z"/>
		<path fill="#FFA18B" d="M170.667,153.713c0,0-7.822-0.137-11.508-1.612c-3.687-1.467-16.5-14.318-14.601-22.218
			c1.896-7.899,5.644-6.551,5.644-6.551s0.8-15.794,17.325-12.238c16.471,3.532,15.418,7.256,15.418,7.256
			S154.86,130.748,170.667,153.713z"/>
		<path fill="#F48273" d="M174.118,116.504c0,0-10.143,1.152-15.048,8.036c0,0-7.38,14.307,7.048,24.616
			c0,0-8.12-17.688,2.723-24.242C168.84,124.914,175.845,124.502,174.118,116.504z"/>
		<path fill="#E03434" d="M169.411,133.208c1.329-0.666,4.684,1.808,1.848,5.673c-2.833,3.867-4.948,4.27-4.088,1.754
			C168.026,138.114,167.673,134.075,169.411,133.208z"/>
		<path fill="#D82B2B" d="M166.061,140.56c0,0,9.187,4.571,17.331,2.428c8.135-2.146,15.728-12.411,14.428-2.918
			c-1.364,9.979-2.869,10.255-13.682,18.416C173.327,166.649,158.606,146.913,166.061,140.56z"/>
		<path fill="#D64B47" d="M164.97,141.356c0,0-5.806,6.855-2.759,14.313c3.051,7.456,22.4,12.766,19.409,3.304
			C179.651,152.739,162.5,146.616,164.97,141.356z"/>
		<path fill="#E03434" d="M165.291,142.942c0,0,11.386,13.485,10.924,18.29c0,0-10.688,4.851-14.479-5.529
			C158.778,147.593,163.411,141.91,165.291,142.942z"/>
		<path fill="#E25952" d="M170.573,134.484c0,0,3.202,5.03,7.698,5.704c4.495,0.67,7.7,1.509,8.05,2.853
			c0,0-13.439,2.331-18.723-1.871C167.597,141.169,172.426,139.962,170.573,134.484z"/>
		<g>
			<path fill="#FFFFFF" d="M181.69,136.082c0.434-1.368,2.669-4.267,4.335-3.774c1.667,0.493,3.72,2.194,0.171,4.818
				C182.644,139.756,181.354,137.144,181.69,136.082z"/>
			<path fill="#BA3D3A" d="M181.69,136.082c0,0,0.081-0.288,0.329-0.748c0.244-0.459,0.652-1.087,1.256-1.749
				c0.303-0.328,0.654-0.668,1.086-0.956c0.425-0.279,0.969-0.528,1.564-0.427c0.56,0.113,1.11,0.374,1.578,0.757
				c0.478,0.366,0.822,0.997,0.759,1.644c-0.091,0.638-0.458,1.17-0.859,1.604c-0.413,0.433-0.865,0.799-1.337,1.112
				c-0.46,0.304-0.939,0.593-1.43,0.756c-0.483,0.173-0.981,0.271-1.431,0.191c-0.447-0.069-0.822-0.286-1.066-0.556
				c-0.247-0.269-0.385-0.567-0.442-0.82C181.556,136.377,181.707,136.078,181.69,136.082z M181.69,136.082
				c0.017-0.004-0.13,0.297,0.019,0.805c0.061,0.251,0.203,0.544,0.45,0.805c0.244,0.261,0.615,0.473,1.055,0.519
				c0.438,0.061,0.919-0.054,1.383-0.241c0.475-0.179,0.917-0.47,1.372-0.796c0.443-0.324,0.877-0.701,1.27-1.117
				c0.382-0.421,0.705-0.929,0.776-1.48c0.06-0.55-0.215-1.097-0.655-1.448c-0.433-0.358-0.944-0.627-1.469-0.756
				c-0.517-0.112-1.046,0.092-1.47,0.351c-0.432,0.264-0.792,0.586-1.105,0.9c-0.624,0.635-1.031,1.266-1.285,1.717
				C181.776,135.794,181.69,136.082,181.69,136.082z"/>
		</g>
		<path fill="#F6739A" d="M148.173,144.845c0,0,4.327-6.668,9.804-0.794c5.478,5.871,2.706,14.771,11.651,16.591
			c8.945,1.822,13.5-0.398,19.317-6.304c5.819-5.909,7.982-11.155,9.952-4.717c1.968,6.437,0.839,13.753-11.613,18.443
			c-12.453,4.687-12.102,0.03-12.102,0.03s-6.2,6.385-16.893-1.124c0,0-2.021-1.63-3.037-3.402
			c-1.013-1.774-4.642-2.661-5.287-2.385C149.323,161.46,139.453,156.063,148.173,144.845z"/>
		<path fill="#E25952" d="M170.367,123.081c0,0-8.31-0.029-8.849,8.177c-0.542,8.206,2.132,18.156,11.141,24.61
			c0,0,1.225,1.306,3.917,0.883c2.689-0.424,3.627-0.14,3.984,0.211c0,0-3.452-4.208-7.171-7.199
			c-3.717-2.995-9.222-11.163-1.761-18.05C171.628,131.713,173.739,123.784,170.367,123.081z"/>
		<path fill="#E25952" d="M171.044,133.46c0,0-5.659-9.821,4.351-17.631c10.009-7.809,16.204-3.152,20.384,0.985
			c4.179,4.133,13.113,20.055-1.643,25.05C179.378,146.861,170.982,134.696,171.044,133.46z"/>
		<path fill="#FFBFB6" d="M180.89,125.77c0,0-7.928-5.606-12.751,2.104c-4.819,7.707,11.623,13.934,16.945,14.431
			C190.408,142.798,182.528,127.04,180.89,125.77z"/>
		<path fill="#FFBFB6" d="M179.55,128.803c0.626-1.811,0.352-5.851,4.692-6.063c4.336-0.217,14.106,0.379,11.97,12.66
			c0,0-2.45,6.578-8.019,7.123C182.627,143.073,178.536,131.74,179.55,128.803z"/>
		<path fill="#FFBFB6" d="M172.301,120.294c-0.011,0.003-0.021,0.011-0.032,0.016c1.749-2.467,1.935-3.228,8.36-6.652
			c2.456-1.302,4.429-1.313,7.268-0.904c4.898,0.706,8.406,5.936,10.386,10.04c-2.621-3.505-6.592-7.981-11.271-8.271
			C181.982,114.209,176.444,118.048,172.301,120.294z"/>
		<path fill="#E25952" d="M152.387,160.243c0,0,3.959,0.909,5.239,3.67c0,0,7.826,7.421,16.072,3.299c0,0,0.407-1.018,3.338,0.701
			c4.933,2.89,14.885,2.576,20.695-9.73c1.21-2.565,1.481-6.08-1.881-11.189c-1.569,0.984-3.672,4.061-6.907,7.344
			c-5.817,5.906-10.372,8.126-19.317,6.304c-8.945-1.82-6.173-10.72-11.651-16.591c-1.724-1.847-3.329-2.451-4.728-2.417
			c-0.276,0.368-0.6,0.705-1.024,0.965C152.225,142.599,139.936,155.542,152.387,160.243z"/>
		<path fill="#FFBFB6" d="M148.173,144.845c-8.72,11.218,1.15,16.615,1.792,16.338c0.645-0.276,4.274,0.611,5.287,2.385
			c1.015,1.772,3.037,3.402,3.037,3.402c10.693,7.508,16.893,1.124,16.893,1.124s0.102,5.704,12.554,1.016
			c12.454-4.688,13.129-13.051,11.161-19.488c-0.876-2.863-1.787-3.412-3.045-2.627c3.362,5.109,3.091,8.624,1.881,11.189
			c-5.811,12.306-16.292,10.357-20.524,8.43c-3.093-1.409-2.736,0.154-3.509,0.599c-7.464,4.285-16.072-3.299-16.072-3.299
			c-1.28-2.761-5.239-3.67-5.239-3.67c-12.451-4.701-0.163-17.644-0.163-17.644c0.424-0.26,0.748-0.597,1.024-0.965
			C150.207,141.714,148.173,144.845,148.173,144.845z"/>
		<path fill="#F48273" d="M178.445,126.192c0,0-5.563-1.856-7.833,2.886c0,0-2.063,4.121,5.067,8.698
			C175.679,137.777,186.113,130.399,178.445,126.192z"/>
		<path fill="#E25952" d="M184.257,125.657c0,0,12.822,1.115,9.812,13.03c0,0-1.839,3.228-4.548,3.017
			C189.521,141.705,199.264,135.882,184.257,125.657z"/>
		<g>
			<path fill="#E03434" d="M191.377,141.118c2.889-2.312,2.741-10.274-4.93-14.505c-7.667-4.228-8.231,4.125-5.896,7.06
				C182.891,136.608,185.397,145.898,191.377,141.118z"/>
			<path fill="#E03434" d="M174.684,138.787c1.181-1.752,2.26-3.183,3.241-5.153c0.98-1.97,0.431-5.374,1.916-6.384
				c0,0-1.362,5.083,1.633,6.89c2.994,1.811,6.288,1.767,7.579,0.61c0,0-3.511,6.304-4.069,7.283
				C183.806,144.089,176.848,140.184,174.684,138.787z"/>
			<path fill="#E25952" d="M189.097,134.336c-1.092,2.151-3.782,2.707-6.527,1.313c-2.74-1.391-3.627-6.319-2.53-8.465
				c1.089-2.149,2.96-3.194,6.591,0.412C188.808,129.766,190.188,132.188,189.097,134.336z"/>
			<path fill="#E25952" d="M183.199,142.51c0,0,1.646-2.577,3.273-4c1.629-1.422,2.48-3.697,2.691-4.305c0,0,0.392-0.775,0.105,0.52
				c-0.293,1.299-0.765,5.926,0.251,6.979C190.529,142.753,185.155,143.508,183.199,142.51z"/>
			<path fill="#FFBFB6" d="M187.033,135.808c-0.563,1.106-3.921,0.408-4.987-0.483c0.406-0.686,0.737-1.056,1.301-2.159
				c0.558-1.104,1.907-1.545,3.011-0.983C187.463,132.744,187.595,134.708,187.033,135.808z"/>
		</g>
	</g>
	<g>
		<path fill="#F1EBE8" d="M203.465,116.378c-2.35-0.793-3.204-3.456-1.898-5.728c0.626-1.085,1.717-2.413,3.091-2.431
			c2.476,0.026,3.271,2.211,3.884,4.042c0.372-2.253,1.889-4.672,4.323-2.665c1.562,1.222,1.362,2.946,0.651,4.588
			c1.509-0.739,3.175-0.332,3.697,1.52c0.483,1.664-1.146,2.73-2.533,3.143c1.33,1.079,1.904,2.723,1.288,4.34
			c-0.392,0.878-1.108,1.635-2.068,1.752c-0.955,0.124-1.713-0.59-2.539-1.194c-0.29,1.741-0.871,3.948-3.021,4.045
			c-2.425,0.162-3.374-1.399-3.682-3.598c-4.876,2.397-7.713-4.294-4.72-6.85C200.828,116.581,202.313,115.989,203.465,116.378z"/>
		<g>
			<g>
				<path fill="#B20F0F" d="M209.286,120.176c2.85-0.652,1.841-5.066-1.007-4.419C205.431,116.408,206.443,120.823,209.286,120.176
					L209.286,120.176z"/>
			</g>
			<g>
				<path fill="#B20F0F" d="M206.089,115.905c0.711-0.164,0.458-1.266-0.254-1.103C205.124,114.961,205.376,116.067,206.089,115.905
					L206.089,115.905z"/>
			</g>
			<g>
				<path fill="#B20F0F" d="M205.232,117.89c0.711-0.162,0.458-1.264-0.25-1.104C204.271,116.948,204.525,118.054,205.232,117.89
					L205.232,117.89z"/>
			</g>
			<g>
				<path fill="#B20F0F" d="M205.563,119.75c0.714-0.164,0.464-1.264-0.253-1.104C204.598,118.81,204.85,119.913,205.563,119.75
					L205.563,119.75z"/>
			</g>
			<g>
				<path fill="#B20F0F" d="M206.458,121.144c0.711-0.163,0.464-1.267-0.248-1.105C205.495,120.202,205.749,121.306,206.458,121.144
					L206.458,121.144z"/>
			</g>
			<g>
				<path fill="#B20F0F" d="M207.901,121.735c0.717-0.162,0.46-1.267-0.252-1.104C206.939,120.791,207.19,121.897,207.901,121.735
					L207.901,121.735z"/>
			</g>
			<g>
				<path fill="#B20F0F" d="M209.85,121.579c0.715-0.16,0.46-1.266-0.25-1.105C208.887,120.633,209.14,121.74,209.85,121.579
					L209.85,121.579z"/>
			</g>
			<g>
				<path fill="#B20F0F" d="M211.48,120.867c0.709-0.165,0.458-1.265-0.254-1.103C210.517,119.926,210.769,121.029,211.48,120.867
					L211.48,120.867z"/>
			</g>
			<g>
				<path fill="#B20F0F" d="M212.292,118.698c0.709-0.164,0.459-1.266-0.254-1.104C211.326,117.757,211.583,118.86,212.292,118.698
					L212.292,118.698z"/>
			</g>
			<g>
				<path fill="#B20F0F" d="M211.892,116.949c0.711-0.162,0.46-1.265-0.251-1.102C210.929,116.009,211.182,117.114,211.892,116.949
					L211.892,116.949z"/>
			</g>
			<g>
				<path fill="#B20F0F" d="M210.642,115.492c0.708-0.161,0.459-1.266-0.252-1.104C209.675,114.552,209.923,115.657,210.642,115.492
					L210.642,115.492z"/>
			</g>
			<g>
				<path fill="#B20F0F" d="M208.531,114.958c0.714-0.162,0.462-1.265-0.249-1.104C207.571,114.018,207.821,115.12,208.531,114.958
					L208.531,114.958z"/>
			</g>
		</g>
	</g>
	<g>
		<path fill="#F1EBE8" d="M215.983,132.381c-1.399-0.473-1.908-2.058-1.13-3.413c0.37-0.644,1.021-1.437,1.84-1.447
			c1.473,0.015,1.945,1.317,2.311,2.41c0.223-1.344,1.127-2.784,2.577-1.587c0.93,0.727,0.813,1.752,0.386,2.729
			c0.9-0.438,1.894-0.195,2.202,0.907c0.287,0.991-0.685,1.625-1.507,1.872c0.79,0.644,1.133,1.62,0.767,2.584
			c-0.234,0.523-0.659,0.974-1.232,1.045c-0.569,0.07-1.018-0.353-1.512-0.712c-0.174,1.038-0.521,2.35-1.799,2.407
			c-1.444,0.098-2.011-0.833-2.192-2.143c-2.903,1.429-4.593-2.556-2.811-4.08C214.413,132.501,215.299,132.151,215.983,132.381z"/>
		<g>
			<g>
				<path fill="#B20F0F" d="M219.449,134.643c1.696-0.389,1.098-3.018-0.6-2.632C217.154,132.4,217.756,135.029,219.449,134.643
					L219.449,134.643z"/>
			</g>
			<g>
				<path fill="#B20F0F" d="M217.544,132.1c0.427-0.097,0.274-0.755-0.149-0.656C216.97,131.538,217.122,132.195,217.544,132.1
					L217.544,132.1z"/>
			</g>
			<g>
				<path fill="#B20F0F" d="M217.035,133.281c0.425-0.096,0.274-0.752-0.148-0.659C216.464,132.719,216.613,133.378,217.035,133.281
					L217.035,133.281z"/>
			</g>
			<g>
				<path fill="#B20F0F" d="M217.232,134.391c0.424-0.097,0.276-0.754-0.15-0.657C216.658,133.831,216.811,134.488,217.232,134.391
					L217.232,134.391z"/>
			</g>
			<g>
				<path fill="#B20F0F" d="M217.765,135.22c0.425-0.097,0.278-0.755-0.148-0.656C217.193,134.658,217.345,135.316,217.765,135.22
					L217.765,135.22z"/>
			</g>
			<g>
				<path fill="#B20F0F" d="M218.625,135.572c0.426-0.097,0.274-0.756-0.148-0.659C218.054,135.008,218.201,135.666,218.625,135.572
					L218.625,135.572z"/>
			</g>
			<g>
				<path fill="#B20F0F" d="M219.786,135.479c0.425-0.096,0.272-0.755-0.149-0.659C219.213,134.915,219.362,135.574,219.786,135.479
					L219.786,135.479z"/>
			</g>
			<g>
				<path fill="#B20F0F" d="M220.757,135.054c0.422-0.097,0.271-0.754-0.149-0.656C220.183,134.494,220.333,135.149,220.757,135.054
					L220.757,135.054z"/>
			</g>
			<g>
				<path fill="#B20F0F" d="M221.239,133.763c0.426-0.097,0.273-0.754-0.148-0.656C220.663,133.202,220.816,133.859,221.239,133.763
					L221.239,133.763z"/>
			</g>
			<g>
				<path fill="#B20F0F" d="M221.003,132.722c0.423-0.096,0.272-0.753-0.151-0.656C220.426,132.161,220.578,132.819,221.003,132.722
					L221.003,132.722z"/>
			</g>
			<g>
				<path fill="#B20F0F" d="M220.258,131.853c0.422-0.095,0.271-0.751-0.15-0.657C219.683,131.294,219.831,131.951,220.258,131.853
					L220.258,131.853z"/>
			</g>
			<g>
				<path fill="#B20F0F" d="M218.999,131.535c0.426-0.095,0.277-0.752-0.148-0.656C218.43,130.975,218.576,131.63,218.999,131.535
					L218.999,131.535z"/>
			</g>
		</g>
	</g>
	<g>
		<path fill="#A00505" d="M198.598,181.56c-1.022,2.572-4.033,3.361-6.485,1.774c-1.17-0.758-2.582-2.054-2.521-3.584
			c0.177-2.747,2.651-3.501,4.731-4.083c-2.489-0.542-5.092-2.38-2.711-4.967c1.451-1.661,3.354-1.341,5.139-0.45
			c-0.733-1.724-0.178-3.556,1.91-4.03c1.881-0.434,2.969,1.439,3.348,3.002c1.277-1.411,3.141-1.948,4.907-1.168
			c0.952,0.486,1.755,1.323,1.828,2.399c0.075,1.073-0.76,1.874-1.477,2.755c1.918,0.432,4.341,1.205,4.318,3.599
			c0.037,2.712-1.754,3.672-4.224,3.888c2.385,5.563-5.229,8.329-7.898,4.844C198.668,184.508,198.097,182.815,198.598,181.56z"/>
		<g>
			<g>
				<path fill="#B20F0F" d="M203.168,175.304c-0.557-3.211-5.527-2.347-4.977,0.86C198.75,179.372,203.72,178.512,203.168,175.304
					L203.168,175.304z"/>
			</g>
			<g>
				<path fill="#B20F0F" d="M198.224,178.615c-0.135-0.807-1.382-0.587-1.237,0.212
					C197.121,179.628,198.363,179.417,198.224,178.615L198.224,178.615z"/>
			</g>
			<g>
				<path fill="#B20F0F" d="M200.387,179.684c-0.138-0.806-1.385-0.589-1.245,0.216
					C199.284,180.694,200.525,180.479,200.387,179.684L200.387,179.684z"/>
			</g>
			<g>
				<path fill="#B20F0F" d="M202.475,179.426c-0.14-0.801-1.381-0.59-1.241,0.218C201.372,180.44,202.613,180.227,202.475,179.426
					L202.475,179.426z"/>
			</g>
			<g>
				<path fill="#B20F0F" d="M204.077,178.512c-0.14-0.803-1.382-0.594-1.243,0.213C202.971,179.522,204.221,179.307,204.077,178.512
					L204.077,178.512z"/>
			</g>
			<g>
				<path fill="#B20F0F" d="M204.82,176.938c-0.142-0.803-1.383-0.588-1.243,0.215C203.713,177.957,204.957,177.739,204.82,176.938
					L204.82,176.938z"/>
			</g>
			<g>
				<path fill="#B20F0F" d="M204.764,174.761c-0.142-0.802-1.384-0.589-1.242,0.213
					C203.657,175.778,204.899,175.562,204.764,174.761L204.764,174.761z"/>
			</g>
			<g>
				<path fill="#B20F0F" d="M204.066,172.906c-0.138-0.798-1.38-0.586-1.242,0.217C202.96,173.921,204.206,173.708,204.066,172.906
					L204.066,172.906z"/>
			</g>
			<g>
				<path fill="#B20F0F" d="M201.701,171.875c-0.137-0.802-1.383-0.586-1.242,0.213
					C200.599,172.895,201.841,172.676,201.701,171.875L201.701,171.875z"/>
			</g>
			<g>
				<path fill="#FFBFB6" d="M199.733,172.216c-0.143-0.8-1.385-0.582-1.242,0.218C198.627,173.236,199.871,173.016,199.733,172.216
					L199.733,172.216z"/>
			</g>
			<g>
				<path fill="#B20F0F" d="M198.037,173.52c-0.139-0.798-1.38-0.58-1.242,0.223C196.933,174.542,198.175,174.329,198.037,173.52
					L198.037,173.52z"/>
			</g>
			<g>
				<path fill="#B20F0F" d="M197.319,175.835c-0.137-0.8-1.383-0.585-1.246,0.217C196.215,176.85,197.457,176.639,197.319,175.835
					L197.319,175.835z"/>
			</g>
			<g>
				<path fill="#FFBFB6" d="M203.257,175.139c-0.559-3.214-5.526-2.353-4.979,0.859C198.838,179.203,203.81,178.338,203.257,175.139
					L203.257,175.139z"/>
			</g>
			<g>
				<path fill="#FFBFB6" d="M198.315,178.446c-0.139-0.808-1.383-0.587-1.241,0.215
					C197.209,179.462,198.452,179.247,198.315,178.446L198.315,178.446z"/>
			</g>
			<g>
				<path fill="#FFBFB6" d="M200.476,179.514c-0.139-0.803-1.384-0.59-1.246,0.214C199.369,180.526,200.613,180.313,200.476,179.514
					L200.476,179.514z"/>
			</g>
			<g>
				<path fill="#FFBFB6" d="M202.564,179.253c-0.14-0.8-1.382-0.585-1.245,0.22C201.461,180.273,202.707,180.06,202.564,179.253
					L202.564,179.253z"/>
			</g>
			<g>
				<path fill="#FFBFB6" d="M204.167,178.337c-0.14-0.796-1.383-0.59-1.246,0.216C203.06,179.356,204.306,179.138,204.167,178.337
					L204.167,178.337z"/>
			</g>
			<g>
				<path fill="#FFBFB6" d="M204.912,176.771c-0.142-0.806-1.385-0.587-1.245,0.213
					C203.804,177.785,205.047,177.572,204.912,176.771L204.912,176.771z"/>
			</g>
			<g>
				<path fill="#FFBFB6" d="M204.852,174.59c-0.14-0.801-1.382-0.585-1.244,0.217C203.744,175.611,204.987,175.396,204.852,174.59
					L204.852,174.59z"/>
			</g>
			<g>
				<path fill="#FFBFB6" d="M204.154,172.736c-0.137-0.797-1.381-0.584-1.242,0.216
					C203.052,173.749,204.291,173.537,204.154,172.736L204.154,172.736z"/>
			</g>
			<g>
				<path fill="#FFBFB6" d="M201.789,171.705c-0.139-0.797-1.384-0.579-1.244,0.216C200.688,172.723,201.93,172.504,201.789,171.705
					L201.789,171.705z"/>
			</g>
			<g>
				<path fill="#FFBFB6" d="M198.128,173.351c-0.141-0.797-1.385-0.578-1.246,0.222C197.021,174.37,198.264,174.157,198.128,173.351
					L198.128,173.351z"/>
			</g>
			<g>
				<path fill="#FFBFB6" d="M197.408,175.668c-0.141-0.802-1.386-0.586-1.246,0.213
					C196.303,176.683,197.544,176.467,197.408,175.668L197.408,175.668z"/>
			</g>
		</g>
	</g>
	<g>
		<path fill="#F9C2C6" d="M135.215,151.295c-3.757,0.238-6.505-3.007-5.985-6.95c0.247-1.891,1.013-4.392,2.933-5.211
			c3.494-1.388,5.872,1.216,7.799,3.433c-0.783-3.384-0.046-7.657,4.53-6.248c2.899,0.814,3.617,3.353,3.568,6.062
			c1.693-1.909,4.271-2.307,6.084-0.01c1.638,2.072-0.038,4.498-1.744,5.892c2.498,0.737,4.25,2.715,4.322,5.352
			c-0.039,1.456-0.605,2.937-1.884,3.662c-1.28,0.716-2.75,0.152-4.263-0.208c0.597,2.614,1.06,6.052-1.903,7.425
			c-3.311,1.635-5.548-0.002-7.255-2.922c-5.461,6.195-13.328-1.565-10.601-6.887C131.625,153.096,133.37,151.406,135.215,151.295z"
			/>
		<g>
			<g>
				<path fill="#F00257" d="M145.599,153.249c3.62-2.565-0.353-8.187-3.976-5.621C138,150.188,141.973,155.807,145.599,153.249
					L145.599,153.249z"/>
			</g>
			<g>
				<path fill="#F00257" d="M138.626,149.104c0.902-0.644-0.09-2.047-0.997-1.401C136.725,148.34,137.723,149.742,138.626,149.104
					L138.626,149.104z"/>
			</g>
			<g>
				<path fill="#F00257" d="M138.576,152.391c0.907-0.644-0.09-2.045-0.993-1.412C136.681,151.62,137.671,153.031,138.576,152.391
					L138.576,152.391z"/>
			</g>
			<g>
				<path fill="#F00257" d="M140.116,154.803c0.907-0.634-0.083-2.038-0.993-1.403C138.217,154.042,139.211,155.453,140.116,154.803
					L140.116,154.803z"/>
			</g>
			<g>
				<path fill="#F00257" d="M142.18,156.25c0.908-0.645-0.09-2.053-0.985-1.408C140.287,155.48,141.282,156.887,142.18,156.25
					L142.18,156.25z"/>
			</g>
			<g>
				<path fill="#F00257" d="M144.551,156.238c0.914-0.639-0.088-2.048-0.995-1.406C142.653,155.477,143.643,156.881,144.551,156.238
					L144.551,156.238z"/>
			</g>
			<g>
				<path fill="#F00257" d="M147.198,154.893c0.908-0.639-0.089-2.05-0.991-1.406C145.299,154.126,146.293,155.533,147.198,154.893
					L147.198,154.893z"/>
			</g>
			<g>
				<path fill="#F00257" d="M149.075,152.949c0.907-0.643-0.086-2.047-0.992-1.405C147.182,152.182,148.169,153.596,149.075,152.949
					L149.075,152.949z"/>
			</g>
			<g>
				<path fill="#F00257" d="M148.961,149.431c0.903-0.647-0.091-2.044-0.991-1.403C147.056,148.672,148.056,150.072,148.961,149.431
					L148.961,149.431z"/>
			</g>
			<g>
				<path fill="#F00257" d="M147.384,147.211c0.909-0.643-0.083-2.052-0.994-1.407C145.487,146.45,146.479,147.85,147.384,147.211
					L147.384,147.211z"/>
			</g>
			<g>
				<path fill="#F00257" d="M144.783,145.885c0.906-0.64-0.092-2.044-0.99-1.402C142.881,145.122,143.875,146.526,144.783,145.885
					L144.783,145.885z"/>
			</g>
			<g>
				<path fill="#F00257" d="M141.514,146.354c0.904-0.645-0.093-2.038-0.997-1.402C139.619,145.586,140.607,146.998,141.514,146.354
					L141.514,146.354z"/>
			</g>
		</g>
	</g>
	<g>
		<path fill="#F9C2C6" d="M157.323,108.697c-2.365,0.151-4.093-1.891-3.766-4.374c0.156-1.188,0.637-2.762,1.845-3.276
			c2.198-0.874,3.694,0.764,4.907,2.159c-0.493-2.128-0.029-4.817,2.85-3.93c1.824,0.513,2.275,2.108,2.245,3.814
			c1.065-1.201,2.687-1.452,3.827-0.006c1.03,1.303-0.023,2.829-1.097,3.707c1.57,0.464,2.673,1.709,2.721,3.367
			c-0.025,0.917-0.382,1.85-1.186,2.304c-0.806,0.45-1.73,0.095-2.684-0.131c0.377,1.646,0.668,3.808-1.197,4.672
			c-2.082,1.028-3.49-0.002-4.564-1.84c-3.436,3.898-8.385-0.982-6.669-4.332C155.064,109.83,156.162,108.767,157.323,108.697z"/>
		<g>
			<g>
				<path fill="#F00257" d="M163.855,109.927c2.277-1.614-0.222-5.15-2.5-3.538C159.074,108.001,161.574,111.536,163.855,109.927
					L163.855,109.927z"/>
			</g>
			<g>
				<path fill="#F00257" d="M159.468,107.319c0.568-0.405-0.056-1.288-0.626-0.881C158.272,106.839,158.899,107.721,159.468,107.319
					L159.468,107.319z"/>
			</g>
			<g>
				<path fill="#F00257" d="M159.437,109.387c0.571-0.404-0.057-1.287-0.625-0.89C158.245,108.903,158.869,109.79,159.437,109.387
					L159.437,109.387z"/>
			</g>
			<g>
				<path fill="#F00257" d="M160.406,110.904c0.571-0.397-0.052-1.281-0.624-0.881C159.211,110.426,159.836,111.314,160.406,110.904
					L160.406,110.904z"/>
			</g>
			<g>
				<path fill="#F00257" d="M161.705,111.814c0.57-0.405-0.057-1.291-0.62-0.885C160.513,111.332,161.14,112.216,161.705,111.814
					L161.705,111.814z"/>
			</g>
			<g>
				<path fill="#F00257" d="M163.197,111.807c0.574-0.401-0.056-1.287-0.626-0.883C162.001,111.329,162.625,112.211,163.197,111.807
					L163.197,111.807z"/>
			</g>
			<g>
				<path fill="#F00257" d="M164.862,110.961c0.569-0.401-0.057-1.288-0.623-0.884C163.667,110.479,164.292,111.365,164.862,110.961
					L164.862,110.961z"/>
			</g>
			<g>
				<path fill="#F00257" d="M166.042,109.739c0.57-0.404-0.055-1.289-0.625-0.884C164.85,109.256,165.471,110.144,166.042,109.739
					L166.042,109.739z"/>
			</g>
			<g>
				<path fill="#F00257" d="M165.972,107.525c0.567-0.407-0.06-1.287-0.625-0.882C164.772,107.047,165.402,107.929,165.972,107.525
					L165.972,107.525z"/>
			</g>
			<g>
				<path fill="#F00257" d="M164.979,106.128c0.571-0.404-0.054-1.29-0.626-0.886C163.785,105.65,164.409,106.53,164.979,106.128
					L164.979,106.128z"/>
			</g>
			<g>
				<path fill="#F00257" d="M163.341,105.295c0.571-0.404-0.058-1.287-0.623-0.882C162.145,104.814,162.771,105.698,163.341,105.295
					L163.341,105.295z"/>
			</g>
			<g>
				<path fill="#F00257" d="M161.286,105.589c0.569-0.407-0.059-1.281-0.627-0.882C160.093,105.106,160.716,105.995,161.286,105.589
					L161.286,105.589z"/>
			</g>
		</g>
	</g>
</g>
</svg>
