<?xml version="1.0" encoding="utf-8"?>
<!-- Generator: Adobe Illustrator 16.0.0, SVG Export Plug-In . SVG Version: 6.00 Build 0)  -->
<!DOCTYPE svg PUBLIC "-//W3C//DTD SVG 1.1//EN" "http://www.w3.org/Graphics/SVG/1.1/DTD/svg11.dtd">
<svg version="1.1" id="Layer_1" xmlns="http://www.w3.org/2000/svg" xmlns:xlink="http://www.w3.org/1999/xlink" x="0px" y="0px"
	 width="350px" height="350px" viewBox="0 0 350 350" enable-background="new 0 0 350 350" xml:space="preserve">
<g>
	<path fill="#FF8343" d="M183.648,135.443c1.303,0.285,2.584,0.631,3.836,1.039c32.949-105.491-57.917-105.491-24.968,0
		c1.253-0.407,2.532-0.754,3.836-1.039C168.063,118.239,181.938,118.239,183.648,135.443z"/>
	<path fill="#FF8343" d="M166.353,214.558c-1.304-0.285-2.583-0.632-3.836-1.039c-32.949,105.491,57.917,105.491,24.968,0
		c-1.252,0.407-2.533,0.754-3.836,1.039C181.938,231.762,168.063,231.762,166.353,214.558z"/>
	<path fill="#FF8343" d="M134.7,178.973c-0.126-1.299-0.195-2.612-0.196-3.943c-110.511,1.264-82.421,87.69,7.736,23.736
		c-0.772-1.061-1.494-2.161-2.161-3.296C123.134,199.198,118.813,185.919,134.7,178.973z"/>
	<path fill="#FF8343" d="M144.745,201.88c-0.872-0.98-1.696-2.005-2.472-3.066c-88.685,65.982-15.166,119.405,20.187,14.686
		c-1.256-0.409-2.486-0.878-3.686-1.406C147.253,225.065,135.954,216.849,144.745,201.88z"/>
	<path fill="#FF8343" d="M215.299,171.028c0.129,1.298,0.197,2.612,0.197,3.942c110.51-1.264,82.422-87.69-7.734-23.735
		c0.771,1.061,1.492,2.16,2.16,3.295C226.865,150.802,231.188,164.081,215.299,171.028z"/>
	<path fill="#FF8343" d="M140.079,154.531c0.667-1.135,1.388-2.234,2.161-3.295c-90.157-63.955-118.247,22.471-7.736,23.735
		c0.001-1.33,0.07-2.645,0.196-3.942C118.813,164.081,123.134,150.802,140.079,154.531z"/>
	<path fill="#FF8343" d="M158.774,137.907c1.2-0.526,2.43-0.996,3.686-1.406c-35.352-104.718-108.871-51.295-20.187,14.686
		c0.776-1.062,1.6-2.085,2.472-3.065C135.954,133.15,147.253,124.933,158.774,137.907z"/>
	<path fill="#FF8343" d="M215.496,175.03c0,1.331-0.068,2.644-0.197,3.943c15.889,6.946,11.566,20.226-5.377,16.497
		c-0.668,1.135-1.389,2.235-2.16,3.296C297.918,262.72,326.006,176.294,215.496,175.03z"/>
	<path fill="#FF8343" d="M191.227,212.093c-1.199,0.528-2.43,0.997-3.686,1.406c35.352,104.72,108.871,51.297,20.186-14.686
		c-0.775,1.062-1.6,2.086-2.473,3.066C214.047,216.849,202.746,225.065,191.227,212.093z"/>
	<path fill="#FF8343" d="M205.254,148.121c0.873,0.98,1.697,2.003,2.473,3.065c88.686-65.981,15.166-119.404-20.186-14.686
		c1.256,0.411,2.486,0.88,3.686,1.406C202.746,124.933,214.047,133.15,205.254,148.121z"/>
	<circle fill="#FF8343" cx="175" cy="175" r="32.998"/>
</g>
</svg>
