<?xml version="1.0" encoding="utf-8"?>
<!-- Generator: Adobe Illustrator 16.0.0, SVG Export Plug-In . SVG Version: 6.00 Build 0)  -->
<!DOCTYPE svg PUBLIC "-//W3C//DTD SVG 1.1//EN" "http://www.w3.org/Graphics/SVG/1.1/DTD/svg11.dtd">
<svg version="1.1" id="Layer_1" xmlns="http://www.w3.org/2000/svg" xmlns:xlink="http://www.w3.org/1999/xlink" x="0px" y="0px"
	 width="350px" height="350px" viewBox="0 0 350 350" enable-background="new 0 0 350 350" xml:space="preserve">
<g>
	<path fill-rule="evenodd" clip-rule="evenodd" fill="#3D64A7" d="M175.975,181.085c0.165,6.746,0.499,13.475,2.166,20.061
		c2.179,0.693,1.888,3.584,3.914,4.455c2.332-0.9,1.768-4.315,4.342-4.947c2.742,1.896,4.361-0.313,6.204-1.706
		c2.698,0.463,7.149-0.524,4.008,4.813c-2.502,2.067-4.73,4.405-6.729,6.973c-0.511,0.433-1.075,0.775-1.682,1.056
		c-2.833,0.755-5.541,2.045-8.548,2.07c-1.896-1.921-4.523-2.158-6.917-2.962c-0.333-2.968,0.154-5.985-0.591-8.921
		c-1.663-6.95-0.673-14.271-2.921-21.142c0.96-2.031,2.397-3.493,4.696-3.925c0.292,0.081,0.585,0.166,0.879,0.248
		C175.188,178.467,175.581,179.776,175.975,181.085z"/>
	<path fill-rule="evenodd" clip-rule="evenodd" fill="#5D9BCA" d="M138.274,120.932c-1.61-1.343-3.223-2.686-4.833-4.028
		c-0.265-0.383-0.531-0.769-0.799-1.15c-2.811-1.902-5.39-4.016-6.67-7.314c-1.544-2.442-1.523-5.656-3.818-7.736
		c-1.334-1.351-2.234-2.873-1.938-4.871c4.987-2.898,6.711,1.758,9.451,4.069c1.466,2.927,3.524,5.183,6.351,7.027
		c3.284,2.143,6.323,4.821,5.481,9.52C140.743,118.167,139.674,119.668,138.274,120.932z"/>
	<path fill-rule="evenodd" clip-rule="evenodd" fill="#5698BE" d="M165.273,252.571c2.848,1.766,5.133,2.556,5.875-2.133
		c0.588-3.726,1.798-7.355,2.73-11.027c4.754,3.832,1.004,9.116,2.322,13.534c-0.058,3.587-0.813,7.142-0.525,10.751
		c-0.762,4.408,0.822,9.18-2.035,13.27c-1.513,0.467-2.498-0.438-3.486-1.34c-0.413-0.542-0.586-1.155-0.521-1.835
		c0.161-2.085,0.321-4.172,0.481-6.257c-0.116-1.73-0.537-3.464,0.069-5.185c-0.101-3.128-3.647-2.993-4.836-5.093
		C164.682,255.707,161.937,254.178,165.273,252.571z"/>
	<path fill-rule="evenodd" clip-rule="evenodd" fill="#6CB9DA" d="M170.375,274.995c1.286,0.01,1.896,0.895,2.436,1.874
		c3.078,6.477-0.348,12.771-0.509,19.158c-1.251,4.286,0.588,9.108-2.25,13.126c-1.22,0.712-2.484,0.752-3.78,0.23
		c-1.248-0.072-1.79-0.892-2.097-1.966c0.248-9.239,1.218-18.352,4.825-26.989c0.075-0.598,0.149-1.195,0.225-1.792
		C168.695,277.133,168.062,275.599,170.375,274.995z"/>
	<path fill-rule="evenodd" clip-rule="evenodd" fill="#BFE5F0" d="M209.875,125.857c2.493-1.258,5.202-1.492,6.937,0.781
		c2.802,3.675-0.271,6.902-1.527,10.215c-1.928,1.702-3.618,3.592-4.651,5.99c-0.356,0.589-0.788,1.119-1.29,1.594
		c-2.559,1.14-4.792,1.688-4.392-2.46c1.449-2.485,3.186-4.792,4.684-7.25c0.335-0.498,0.519-1.109,1.036-1.486
		c-0.87,0.345-0.867,1.356-1.465,1.929c-1.655,0.746-1.593,6.529-5.12,1.747c-0.288-1.667,0.31-3.135,1.025-4.577
		C206.738,130.212,207.459,127.41,209.875,125.857z"/>
	<path fill-rule="evenodd" clip-rule="evenodd" fill="#C3EFF5" d="M202.091,255.802c-5.191,2.203-10.311,4.606-15.609,6.521
		c-2.678,0.971-5.678,1.883-8.529,0.083c0.135-0.277,0.269-0.556,0.401-0.836c2.747-2.455,7.291-1.099,9.548-4.506
		c-0.079,0.938,0.107-1.057,0.572-0.259c0.468,0.796,1.387,0.597,0.648,0.052c-2.176-1.61-5.43-2.136-5.64-5.701
		c0.591-2.388,2.369-3.176,4.563-3.409c5.079,1.742,10.48,2.758,14.753,6.381C202.979,254.859,202.741,255.417,202.091,255.802z"/>
	<path fill-rule="evenodd" clip-rule="evenodd" fill="#27427B" d="M158.239,120.693c1.111-0.694,2.794,5.201,3.451-0.282
		c0.294-2.452,0.354-4.929,0.518-7.394c0.312-0.192,0.618-0.386,0.922-0.586c0.852-0.955,1.693-0.589,2.534,0.013
		c1.417,1.758,1.681,3.933,2.151,6.033c0.89,2.565-2.011,5.029-0.21,7.622c2.593,2.169,1.892,5.626,3.25,8.288
		c-0.106,1.754-0.402,3.352-2.716,3.275c-3.496-1.369-5.044-4.569-6.988-7.402C160.032,127.117,156.352,124.746,158.239,120.693z"/>
	<path fill-rule="evenodd" clip-rule="evenodd" fill="#273065" d="M170.875,296.032c0.646-6.388,1.29-12.773,1.935-19.163
		c0.483-4.361,0.966-8.724,1.449-13.087c1.058-0.17,1.819-1.355,3.061-0.892c0.279,0.839,0.561,1.678,0.84,2.516
		c1.636,4.935,0.476,9.584-1.446,14.154c-0.947,1.557-1.479,3.157-0.546,4.921c1.421,4.36,0.202,8.383-1.572,12.342
		c-0.692,0.913-1.355,1.944-2.745,1.464C170.755,297.912,170.742,296.983,170.875,296.032z"/>
	<path fill-rule="evenodd" clip-rule="evenodd" fill="#619AC9" d="M132.718,155.278c-0.335-4.243-5.859-3.826-6.775-7.547
		c-2.099-1.335-4.613-2.344-4.359-5.532c1.659-2.916,4.127-1.897,6.502-1.354c6.589,2.375,10.554,6.835,11.042,14.031
		c0.044,0.657-0.088,1.271-0.406,1.849c-0.538,0.837-1.221,1.514-2.161,1.895C134.24,158.704,133.007,157.533,132.718,155.278z"/>
	<path fill-rule="evenodd" clip-rule="evenodd" fill="#5594C8" d="M144.225,166.653c-0.3-0.335-0.596-0.671-0.896-1.007
		c-0.937-0.545-1.478-1.318-1.409-2.442c0.297-0.617,0.744-1.099,1.33-1.449c0.634-0.229,1.285-0.308,1.954-0.229
		c6.897,1.685,13.928,3.077,19.245,8.401c1.708,3.668-1.143,3.818-3.404,4.437c-3.731,0.5-7.122-1.002-10.63-1.83
		C147.837,171.119,145.189,169.771,144.225,166.653z"/>
	<path fill-rule="evenodd" clip-rule="evenodd" fill="#1B2F63" d="M165.277,113.351c-0.717-0.308-1.431-0.612-2.147-0.919
		c-0.11-0.408-0.196-0.824-0.257-1.242c-0.098-0.681,0.068-1.286,0.502-1.82l0.533-0.324c0.608-2.899,1.526-5.72,2.164-8.609
		c0.45-1.341,1.009-2.646,1.513-3.972c0.465-1.008,1.091-1.93,1.612-2.912c0.633-1.275,1.08-2.633,1.774-3.88
		c1.195-1.791,2.631-2.445,4.514-0.946c0.966,1.492,0.058,2.755-0.465,4.035c-0.474,2.058,2.048,0.384,2.168,1.689
		c-0.097,1.366-0.399,2.632-1.686,3.407c-2.685,2.551-3.167,6.062-4.077,9.385c-0.483,1.086-0.965,2.169-1.449,3.254
		C169.091,112.568,167.232,113.04,165.277,113.351z"/>
	<path fill-rule="evenodd" clip-rule="evenodd" fill="#BBE8F5" d="M226.857,208.554c0.363-0.344,0.724-0.688,1.086-1.031
		c2.571,0.163,5.018-2.856,7.684-0.301c1.544,0.685,2.102,1.929,2,3.541c-0.663,2.727-3.475,3.363-5.045,5.209
		c-1.222,1.199-2.388,2.461-3.635,3.642c-2.887,2.084-6.012,5.08-6.82-1.621C222.66,214.327,223.887,211.004,226.857,208.554z"/>
	<path fill-rule="evenodd" clip-rule="evenodd" fill="#3D70AA" d="M113.778,217.146c0.757-2.123,2.195-3,4.431-2.411
		c0.973,2.218,2.262,4.278,3.244,6.403c0.422-1.142-0.515-2.816,1.187-3.289c1.246-0.348,2.067,0.642,2.683,1.53
		c1.781,2.579,3.221,5.321,3.466,8.536c-0.369,2.535-2.422,4.254-3.2,6.595c-0.679,1.244-1.826,1.542-3.12,1.542
		c-0.596-0.107-1.19-0.234-1.783-0.38c-0.349-0.699-0.698-1.4-1.049-2.1c-1.26-1.268-2.905-2.643-1.573-4.507
		c0.774-1.082,1.981,0.138,2.887,0.738C117.736,226.051,113.435,222.916,113.778,217.146z"/>
	<path fill-rule="evenodd" clip-rule="evenodd" fill="#B5EBF8" d="M219.774,242.981c-1.431,1.317-2.863,2.633-4.297,3.949
		c-0.184,0.445-0.468,0.738-0.85,0.878c-0.396,0.145-0.611,0.174-0.647,0.096c-4.325,0.613-8.502,0.563-11.947-2.704
		c2.17-3.567-3.616-0.897-2.726-3.468c1.508-2.879,3.647-4.728,7.136-4.389c2.203,0.413,4.221,1.402,6.339,2.084
		C215.056,240.721,218.495,239.738,219.774,242.981z"/>
	<path fill-rule="evenodd" clip-rule="evenodd" fill="#B6E9F5" d="M227.658,235.481c-1.119,1.427-2.235,2.854-3.354,4.28
		c-0.785,0.33-1.57,0.66-2.355,0.988c-3.17,0.712-6.142-0.363-9.163-1.012c-1.772-0.688-3.837-0.759-5.13-2.449
		c0.725-3.545,3.21-5.211,6.455-6.074C218.846,231.93,224.026,231.252,227.658,235.481z"/>
	<path fill-rule="evenodd" clip-rule="evenodd" fill="#659AC5" d="M145.096,105.549c2.87,3.24,5.74,6.481,8.612,9.721
		c-0.871,1.25-2.193,1.797-3.556,2.29c-7.381-1.446-13.016-9.962-12.06-18.214c2.153-0.933,2.169,1.461,3.302,2.121
		C142.628,102.829,143.862,104.188,145.096,105.549z"/>
	<path fill-rule="evenodd" clip-rule="evenodd" fill="#B6EFF8" d="M210.69,169.819c0.279-0.546,0.558-1.092,0.835-1.638
		c1.404-0.438,2.81-0.874,4.213-1.311c0.896,1.341,0.718,2.772,0.358,4.22c-0.724,1.938-0.905,3.973-1.049,6.023
		c-0.893,4.326-3.092,7.754-6.907,10.079c-1.053,0.258-1.961,0.017-2.713-0.777c-0.79-1.202-0.727-2.5-0.448-3.823
		c1.244-3.555,2.287-7.198,4.198-10.491C209.711,171.36,210.474,170.77,210.69,169.819z"/>
	<path fill-rule="evenodd" clip-rule="evenodd" fill="#A7D5E5" d="M192.663,163.495c-2.665,1.994-5.332,3.986-7.995,5.982
		c-1.62-0.591-3.006,1.657-4.681,0.379c-0.461-1.566,0.451-2.582,1.417-3.583c3.995-3.792,7.94-7.635,12.102-11.253
		c2.022-1.118,4.061-1.61,6.144-0.162c1.493,4.631-3.695,4.452-5.064,7.025C193.945,162.418,193.304,162.958,192.663,163.495z"/>
	<path fill-rule="evenodd" clip-rule="evenodd" fill="#6AADD2" d="M121.159,235.162c1.244-0.125,2.487-0.251,3.729-0.375
		c6.481,0.381,10.073,5.098,13.985,9.335c0.12,2.274-1.296,3.17-3.228,3.607c-3.177-0.715-6.251-1.591-7.542-5.098
		c-1.239-1.715-2.623-3.262-4.699-3.993C121.9,237.971,121.872,236.345,121.159,235.162z"/>
	<path fill-rule="evenodd" clip-rule="evenodd" fill="#3563A4" d="M175.178,88.954c-1.607-0.57-2.627,0.149-3.347,1.525
		c-6.192-0.688-8.133-6.588-12.167-9.924c-1.53-2.073,0.438-3.981,0.283-5.991c0.324-0.605,0.842-0.891,1.522-0.909
		c5.383,1.944,6.262,8.946,11.913,10.58c0.92,0.261,1.726,0.71,2.376,1.422c0.541,0.865,0.509,1.757,0.104,2.661
		C175.635,88.53,175.407,88.741,175.178,88.954z"/>
	<path fill-rule="evenodd" clip-rule="evenodd" fill="#79BADD" d="M113.778,217.146c2.86,4.3,5.721,8.6,8.702,13.079
		c-1.659,0.505-6.047-1.005-2.843,3.348c-0.545-0.029-1.091-0.059-1.636-0.087c-0.798-2.443-2.644-4.015-4.587-5.504
		c-0.613-1.247-1.227-2.493-1.841-3.74C112.073,221.802,111.066,218.897,113.778,217.146z"/>
	<path fill-rule="evenodd" clip-rule="evenodd" fill="#B3E5F4" d="M210.786,250.248c-0.767,0.479-1.531,0.956-2.295,1.437
		c-0.524,0.977-1.449,1.289-2.451,1.475c-5.639-0.588-11.179-1.434-15.436-5.746c-0.251-1.081,0.061-2.006,0.789-2.814
		c1.377-1.203,2.943-1.622,4.728-1.162c1.527,0.517,2.954,1.286,4.44,1.913c2.962,1.946,6.662,1.666,9.758,3.218
		C210.817,249.029,210.958,249.597,210.786,250.248z"/>
	<path fill-rule="evenodd" clip-rule="evenodd" fill="#59AED7" d="M173.271,84.89c-0.979,1.608-1.744,1.539-2.986,0.04
		c-3.052-3.691-6.323-7.205-9.506-10.79c-1.728-1.294-1.676-2.813-0.559-4.463c0.083-0.461,0.164-0.922,0.247-1.382
		c4.723-0.178,5.603,4.478,8.431,6.689c1.951,2.452,4.55,4.504,4.99,7.913C173.927,83.635,173.72,84.3,173.271,84.89z"/>
	<path fill-rule="evenodd" clip-rule="evenodd" fill="#4779B6" d="M122.274,141.685l-0.487-0.484l-0.174-0.666
		c0.518-1.26,0.105-2.785,1.094-3.892c0.101-2.655-2.968-3.465-3.417-5.803c-0.175-1.047-0.134-1.961,1.283-1.975
		c0.458,0.042,0.904-0.021,1.334-0.185c1.504,1.06,3.182-1.249,4.664,0.243c1.744,2.935,4.649,5.17,5.305,8.764
		c0.022,2.549-2.103,3.341-3.733,4.539C126.166,142.279,124.331,140.791,122.274,141.685z"/>
	<path fill-rule="evenodd" clip-rule="evenodd" fill="#6F9ECA" d="M123.888,176.353c4.768,0.658,9.123,2.17,12.36,5.99
		c0.17,0.965,0.11,1.901-0.308,2.803c-0.9,1.65-2.236,2.268-4.068,1.731c-4.239-2.108-8.625-4.066-10.22-9.141
		c-0.116-0.209-0.244-0.415-0.388-0.609C122.138,176.869,123.013,176.609,123.888,176.353z"/>
	<path fill-rule="evenodd" clip-rule="evenodd" fill="#5CA9D4" d="M159.664,80.554c6.091,0.813,7.487,7.381,12.167,9.924
		c-0.472,1.325-0.945,2.651-1.417,3.976c-5.83-0.384-8.644-3.617-10.208-11.727C159.292,82.184,159.116,81.459,159.664,80.554z"/>
	<path fill-rule="evenodd" clip-rule="evenodd" fill="#BAECF9" d="M211.112,200.637c-0.376,0.014-0.746,0.069-1.11,0.164
		c-3.552,2.19-7.193,2.949-11.025,0.688c-1.251-1.98-0.059-3.423,1.065-4.887c0.776-0.785,1.686-1.374,2.697-1.812
		c4.083-0.588,8.205-2.836,12.229,0.213C213.684,196.881,212.397,198.759,211.112,200.637z"/>
	<path fill-rule="evenodd" clip-rule="evenodd" fill="#4178AF" d="M167.646,75.702c-2.396-2.469-4.789-4.939-7.18-7.407
		c-1.515-1.754-0.26-3.443,0.117-5.154c0.81-1.811-1.607-5.511,2.992-5.11c2.225,1.563,2.986,3.944,3.599,6.41
		c0.243,2.083,0.833,4.107,1.141,6.181C168.454,72.361,168.768,74.13,167.646,75.702z"/>
	<path fill-rule="evenodd" clip-rule="evenodd" fill="#65AEDB" d="M162.419,54.001c-0.617-1.697,0.787-2.409,1.653-3.385
		c3.102,0.933,3.389,4.666,6.03,6.054c0.489,0.42,0.858,0.934,1.143,1.508c0.217,3.929,3.159,6.671,4.434,10.152
		c-0.081,0.716-0.404,1.279-1.009,1.684c-6.234,1.098-6.343-4.9-9.095-7.837C164.755,59.361,161.983,57.299,162.419,54.001z"/>
	<path fill-rule="evenodd" clip-rule="evenodd" fill="#436DAE" d="M199.504,155.428c-1.887,0.236-3.774,0.476-5.662,0.713
		c-1.002-0.309-1.609-1.016-1.986-1.957c-0.592-2.64,0.28-4.928,1.703-7.08c0.956-1.833,3.03,0.911,3.993-0.981
		c0.737-0.508,1.542-0.747,2.435-0.726c0.932,0.161,1.723,0.57,2.329,1.301c0.268,0.564,0.333,1.155,0.21,1.765
		c-0.308,1.65-2.253,2.841-1.351,4.835l0.501,0.443C201.693,155.258,200.777,155.571,199.504,155.428z"/>
	<path fill-rule="evenodd" clip-rule="evenodd" fill="#1D2960" d="M177.319,262.891c-0.959,0.501-1.598,2.104-3.059,0.893
		c0.087-3.416,0.171-6.833,0.258-10.25c1.507-3.255,4.428-2.987,7.267-2.928c0.69,0.164,1.226,0.555,1.601,1.155
		c0.501,0.964,0.458,1.888-0.237,2.748c-3.29,1.448-2.782,5.28-4.727,7.573l-0.47,0.324
		C177.759,262.589,177.548,262.75,177.319,262.891z"/>
	<path fill-rule="evenodd" clip-rule="evenodd" fill="#3A3971" d="M173.938,296.121c1.216,2.502-0.342,5.024,0.047,7.533
		c-0.12,1.647-0.241,3.294-0.361,4.939c-0.016,0.69-0.309,1.231-0.877,1.624c-0.327-0.091-0.58,0.013-0.752,0.306
		c-1.278,0.572-1.919-0.016-2.229-1.218c0.836-4.385-0.577-8.959,1.109-13.274C171.839,298.101,172.872,297.68,173.938,296.121z"/>
	<path fill-rule="evenodd" clip-rule="evenodd" fill="#7BBDE4" d="M168.967,41.433c0.841-0.403,1.68-0.805,2.52-1.206
		c1.951-1.108,3.83-1.772,5.144,0.879c-0.738,4.375,3.552,9.531-2.034,13.16c-4.226-2.807-4.955-7.349-5.866-11.807
		C168.806,42.118,168.887,41.775,168.967,41.433z"/>
	<path fill-rule="evenodd" clip-rule="evenodd" fill="#3E679A" d="M165.273,252.571c-1.275,2.034,1.194,2.906,1.39,4.485
		c-1.242,1.373,0.095,3.225-0.868,4.647c-0.262,0.313-0.593,0.515-0.992,0.605c-2.742-2.636-6.851-1.999-9.813-4.109
		c-0.646-0.682-1.293-1.361-1.48-2.336c1.483-3.425,4.425,0.938,6.134-1.18c1.021-1.429,0.054-3.371,1.246-4.73
		C162.706,250.231,164.06,251.28,165.273,252.571z"/>
	<path fill-rule="evenodd" clip-rule="evenodd" fill="#66A9D2" d="M187.651,64.79c-0.446,1.675-0.892,3.354-1.339,5.029
		c-1.584,3.274-4.277,4.682-7.821,4.669c-2.492-0.733-2.623-2.521-2.059-4.62c0.422-1.041,1.167-1.811,2.084-2.423
		c2.714-1.164,5.379-2.545,8.457-2.52C187.225,65.005,187.45,64.961,187.651,64.79z"/>
	<path fill-rule="evenodd" clip-rule="evenodd" fill="#5975AB" d="M132.436,91.809c1.493,1.765,2.988,3.53,4.481,5.295
		c0.575,0.568,0.753,1.243,0.535,2.021c-0.287,1.433,0.117,3.459-1.986,3.642c-2.702,0.236-3.589-2.11-4.726-3.973
		c-0.773-1.663-1.552-3.326-2.145-5.068c-0.326-1.06-0.426-2.135-0.161-3.224C130.697,88.079,131.219,91.01,132.436,91.809z"/>
	<path fill-rule="evenodd" clip-rule="evenodd" fill="#71AAD5" d="M214.969,195.003c-4.009,0.398-8.018,0.797-12.026,1.196
		c-0.911-3.446,1.632-4.296,3.97-5.308c3.855,0.791,7.192-3.118,11.172-1.249c0.096,0.336,0.197,0.668,0.31,0.998
		c-0.259,0.482-0.517,0.966-0.775,1.447c0.382,1.457-0.379,2.229-1.622,2.713C215.664,194.921,215.323,194.988,214.969,195.003z"/>
	<path fill-rule="evenodd" clip-rule="evenodd" fill="#4170A3" d="M135.425,247.128c1.084-0.815,2.616-1.229,2.663-2.976
		c2.031-1.838,3.447,0.133,5.08,0.808c0.516,0.378,0.959,0.831,1.335,1.349c0.7,1.712,2.033,3.251,1.493,5.313
		c-0.695,0.788-1.517,1.053-2.513,0.62l-0.373,0.207c-1.56-2.063-4.301-1.854-6.214-3.239
		C136.282,248.604,134.571,248.775,135.425,247.128z"/>
	<path fill-rule="evenodd" clip-rule="evenodd" fill="#305797" d="M160.205,82.728c3.171,4.111,4.514,9.811,10.208,11.727
		c-0.717,0.691-1.437,1.384-2.155,2.077c-5.564,1.37-5.813-3.662-7.863-6.524c-1.291-1.522-0.58-3.237-0.466-4.897
		C160.022,84.315,160.112,83.521,160.205,82.728z"/>
	<path fill-rule="evenodd" clip-rule="evenodd" fill="#567EA9" d="M167.127,100.331c0.584,3.518-0.702,6.345-3.219,8.716
		c-1.747-2.133-0.464-4.767-1.17-7.071c-1.025-1.503-2.555-2.939-0.63-4.829C165.064,96.186,166.138,98.193,167.127,100.331z"/>
	<path fill-rule="evenodd" clip-rule="evenodd" fill="#A5D7E7" d="M207.029,112.021c-1.634,1.851-3.269,3.701-4.901,5.553
		c-1.402,1.754-2.906,2.833-4.892,0.738c-1.192-4.315,1.925-5.716,4.877-7.236c1.551-0.615,3.115-1.004,4.729-0.202
		C206.843,111.267,206.905,111.648,207.029,112.021z"/>
	<path fill-rule="evenodd" clip-rule="evenodd" fill="#315E99" d="M177.713,73.873c2.866-1.351,5.73-2.701,8.599-4.053
		c-0.04,1.01-0.08,2.023-0.122,3.036c0.224,1.301-0.129,2.368-1.268,3.119c-2.378,1.165-4.561,2.958-7.496,2.389
		c-0.6-0.137-1.117-0.424-1.558-0.853C175.33,75.714,176.226,74.643,177.713,73.873z"/>
	<path fill-rule="evenodd" clip-rule="evenodd" fill="#42619A" d="M128.792,90c0.361,1.013,0.723,2.026,1.084,3.04
		c-0.148,1.39,0.822,3.265-1.275,3.865c-2.208,0.633-3.048-1.02-3.758-2.688c-0.339-2.375-1.585-4.71-0.414-7.179
		c2.084-1.163,2.629,1.177,3.957,1.737C128.968,89.035,129.125,89.435,128.792,90z"/>
	<path fill-rule="evenodd" clip-rule="evenodd" fill="#ACE0EE" d="M201.175,153.298c-3.543-1.322-3.53-1.401,1.037-5.472
		c0.882-1.907,2.539-2.438,4.452-2.517c0.855,0.117,1.224,0.603,1.106,1.457c-0.654,0.797-1.309,1.597-1.962,2.394
		c-0.139,1.221-0.781,2.019-1.974,2.36C202.949,152.114,202.061,152.705,201.175,153.298z"/>
	<path fill-rule="evenodd" clip-rule="evenodd" fill="#3A73B1" d="M170.049,57.457c-5.359,0.667-3.687-4.817-5.978-6.837
		c0.001-0.003-0.223-0.426-0.223-0.426l-0.166-0.45c0.402-1.442,0.708-3.017,2.851-2.099c2.425,1.997,3.479,4.715,4.052,7.689
		C170.63,56.096,170.448,56.803,170.049,57.457z"/>
	<path fill-rule="evenodd" clip-rule="evenodd" fill="#BCD9E3" d="M223.121,167.04c0.695,0.284,1.394,0.568,2.089,0.852
		c0.21,0.748,0.415,1.494,0.624,2.241c-0.541,1.459-1.083,2.917-1.623,4.375c-1.104,1.682-2.453,2.732-4.581,1.786
		C217.762,172.067,220.756,169.671,223.121,167.04z"/>
	<path fill-rule="evenodd" clip-rule="evenodd" fill="#98B4D6" d="M206.842,110.874c-1.417,0.508-2.834,1.017-4.253,1.525
		c-0.427-0.494-0.545-1.061-0.41-1.693c1.002-2.251,1.95-4.535,3.444-6.534c1.392-1.258,2.584-2.92,4.841-2.495
		c0.4,2.424-0.479,4.407-2.113,6.129C207.35,108.584,208.512,110.424,206.842,110.874z"/>
	<path fill-rule="evenodd" clip-rule="evenodd" fill="#2D3C6F" d="M170.877,262.189c-0.609-0.178-1.22-0.355-1.831-0.534
		c-1.097-1.007-2.168-0.061-3.25,0.049c-0.224-1.687-3.207-2.108-2.096-4.199c0.279-0.525,1.939-0.32,2.964-0.448
		C167.976,258.844,172.571,257.936,170.877,262.189z"/>
	<path fill-rule="evenodd" clip-rule="evenodd" fill="#74A1CB" d="M213.264,238.853c2.906,0.581,5.993,0.335,8.685,1.898
		c-0.724,0.745-1.449,1.489-2.174,2.233c-2.42-0.744-4.841-1.489-7.263-2.233C212.218,239.902,212.904,239.443,213.264,238.853z"/>
	<path fill-rule="evenodd" clip-rule="evenodd" fill="#B2E0F6" d="M237.465,212.737c0.322,0.731,0.641,1.461,0.962,2.191
		c-0.08,0.594-0.16,1.187-0.238,1.78c-0.378,0.264-0.726,0.56-1.043,0.894c-1.783,1.608-3.563,2.896-5.338-0.007
		c-0.354-1.216,0.461-1.946,1.143-2.729C234.351,213.944,235.758,213.022,237.465,212.737z"/>
	<path fill-rule="evenodd" clip-rule="evenodd" fill="#3563A4" d="M173.773,92.333c0.469-1.127,0.938-2.255,1.406-3.381
		c0.115-0.201,0.228-0.408,0.337-0.617c1.098-1.503,2.402-2.601,4.44-2.243c1.857,1.151,0.894,2.292-0.009,3.436
		c-0.228,0.596-0.454,1.194-0.676,1.79c-0.296,0.113-0.591,0.228-0.886,0.342C176.932,92.456,175.501,93.417,173.773,92.333z"/>
	<path fill-rule="evenodd" clip-rule="evenodd" fill="#74B3E2" d="M124.43,87.038c0.701,1.887,2.104,3.625,1.216,5.841
		c-3.146,0.25-4.011-1.562-3.867-4.283c0.335-0.553,0.672-1.104,1.007-1.656C123.333,86.974,123.882,87.005,124.43,87.038z"/>
	<path fill-rule="evenodd" clip-rule="evenodd" fill="#1B58A0" d="M162.505,57.762c-0.295-0.777-0.589-1.557-0.885-2.332
		c0.267-0.476,0.533-0.954,0.798-1.43c1.36,2.738,2.723,5.476,4.082,8.212c1.024,0.883,1.625,1.852,0.645,3.146
		c-0.304,0.054-0.607,0.11-0.911,0.166C164.991,62.937,163.748,60.348,162.505,57.762z"/>
	<path fill-rule="evenodd" clip-rule="evenodd" fill="#417AB6" d="M123.233,191.55c-0.655-1.221-1.31-2.441-1.965-3.662
		c1.636-2.52,3.433-1.96,5.292-0.279c0.726,2.006,0.058,3.456-1.78,4.433c-0.244,0.18-0.513,0.308-0.805,0.388l-0.219-0.567
		L123.233,191.55z"/>
	<path fill-rule="evenodd" clip-rule="evenodd" fill="#486095" d="M122.788,136.83c0.616,1.554,0.526,2.884-1.174,3.704
		c-0.512-0.763-1.024-1.529-1.537-2.292c-0.295-0.874-0.592-1.744-0.887-2.619c0.189-0.621,0.615-0.944,1.253-1.011
		C121.655,134.894,122.738,135.316,122.788,136.83z"/>
	<path fill-rule="evenodd" clip-rule="evenodd" fill="#649FD5" d="M216.534,165.958c0.57,0.182,1.141,0.366,1.707,0.549
		c1.747,2.102-0.153,3.044-1.333,4.219c-0.585,0.247-1.136,0.196-1.645-0.199c0.156-1.219,0.313-2.437,0.472-3.656
		C215.972,166.537,216.238,166.231,216.534,165.958z"/>
	<path fill-rule="evenodd" clip-rule="evenodd" fill="#5D9DCF" d="M159.913,225.59c-7.317-4.286-11.291-12.429-18.893-16.388
		c5.376-4.276,10.932-4.375,16.657-0.738c1.507,1.283,2.429,3.113,4.02,4.326c1.217,1.006,2.384,2.056,2.663,3.727
		c-0.411,3.719,5.417,2.454,4.979,6.203C167.134,226.75,162.325,222.239,159.913,225.59z"/>
	<path fill-rule="evenodd" clip-rule="evenodd" fill="#2E5896" d="M157.196,209.833c-5.237-4.182-10.743-1.441-16.176-0.63
		c-1.42-0.668-2.795-1.394-3.523-2.903c1.192-2.338,3.434-1.941,5.444-2.028c1.909-0.083,3.78-0.079,4.151-2.582
		c0.197-0.946,0.591-1.777,1.337-2.412c0.597-0.283,1.214-0.347,1.858-0.197c3.422,2.635,9.551,1.4,10.638,7.397
		c0.793,1.299,1.034,2.933,2.437,3.932c0.922-1.046,0.154-3.245,2.309-3.398c1.456,0.902,2.74,2.004,3.896,3.268
		c1.762,2.776,2.353,5.819,2.073,9.063c-3.48,2.437-5.251-1.136-7.737-2.211c-0.988-1.014-1.976-2.031-2.966-3.045
		c-1.709-0.985-1.798-2.998-2.8-4.43c-0.528-0.755-1.143-1.012-0.534-0.319C157.628,209.363,157.34,209.663,157.196,209.833z"/>
	<path fill-rule="evenodd" clip-rule="evenodd" fill="#3663A6" d="M182.453,251.236c-2.644,0.764-5.291,1.531-7.935,2.297
		c-1.496-4.647,1.504-9.502-0.641-14.12c-0.03-3.456-0.059-6.91-0.089-10.363c1.192-1.847,2.757-2.846,5.038-2.207
		c0.193,2.023,0.388,4.046,0.583,6.07c-0.932,2.558-0.719,5.122-0.047,7.688c2.637,2.454,0.031,6.555,2.831,8.956
		C182.544,250.077,182.641,250.636,182.453,251.236z"/>
	<path fill-rule="evenodd" clip-rule="evenodd" fill="#6FB2DF" d="M147.774,201.611c0.87,1.58,4.742,3.7-0.677,4.189
		c-3.189,0.287-6.399,0.342-9.599,0.501c-2.539-1.674-4.29-4.021-5.681-6.671c2.077-3.417,5.581-2.114,8.55-2.605
		C143.828,196.946,146.756,197.741,147.774,201.611z"/>
	<path fill-rule="evenodd" clip-rule="evenodd" fill="#67ADD8" d="M124.78,192.041c0.616-1.189,1.231-2.38,1.845-3.569
		c0.357-0.6,0.893-0.914,1.579-0.994c4.031,0.443,7.817,1.48,10.825,4.438c3.091,3.803,1.891,5.515-2.718,5.621
		c-2.459,0.059-4.869-0.164-7.224-0.896C127.653,195.107,126.217,193.574,124.78,192.041z"/>
	<path fill-rule="evenodd" clip-rule="evenodd" fill="#24448B" d="M178.826,226.843c-1.679,0.737-3.358,1.474-5.038,2.209
		c-3.109-0.419-6.555,1.226-9.279-1.528c1.003-3.033,4.588-1.974,6.247-3.965c0.386-0.407,0.781-0.803,1.153-1.221
		c1.439-1.481,0.98-4.041,2.955-5.218c1.565-0.865,3.111-0.842,4.646,0.077c0.507,0.49,0.725,1.085,0.653,1.785
		C179.718,221.604,179.272,224.223,178.826,226.843z"/>
	<path fill-rule="evenodd" clip-rule="evenodd" fill="#4772B0" d="M129.087,196.641c2.637-0.105,5.28-0.137,7.909-0.334
		c5.631-0.427,1.289-2.358,0.535-3.742c0.152-1.158-0.92-2.438,0.334-3.487c1.834-0.216,4.732,1.694,4.678-2.329
		c1.146,0.673,2.293,1.347,3.44,2.02c1.739,3.41,5.539,6.162,3.447,10.796c-0.345,0.08-0.688,0.174-1.027,0.277
		c-2.557-0.892-4.711-4.476-7.896-1.182c-2.895,0.324-5.792,0.65-8.689,0.973C130.907,198.633,129.997,197.637,129.087,196.641z"/>
	<path fill-rule="evenodd" clip-rule="evenodd" fill="#64B3D9" d="M137.583,230.453c2.918,2.716,5.838,5.431,8.758,8.148
		c2.431,3.677,7.189,6.204,5.815,11.765c-4.57,1.512-6.215-2.046-8.322-4.803c-2.93-2.936-4.121-6.984-6.555-10.259
		C136.217,233.876,135.743,231.957,137.583,230.453z"/>
	<path fill-rule="evenodd" clip-rule="evenodd" fill="#4578B4" d="M137.583,230.453c0.785,5.84,5.978,9.552,7.312,15.129
		c-0.128,0.507-0.359,0.754-0.7,0.741c-0.334-0.013-0.53-0.084-0.589-0.214l0.076,0.041c-2.315-2.224-5.205-3.809-7.201-6.403
		c-2.964-5.989-8.263-11.12-6.891-18.702C132.257,224.181,134.918,227.317,137.583,230.453z"/>
	<path fill-rule="evenodd" clip-rule="evenodd" fill="#6DC0E0" d="M129.591,221.045c2.717,6.158,5.436,12.319,8.151,18.479
		c-3.25,0.813-5.045-1.064-6.536-3.52c-2.454-5.093-3.39-10.775-6.149-15.761c-0.577-1.047-0.59-2.187,0.981-2.562
		C128.03,217.95,128.5,219.827,129.591,221.045z"/>
	<path fill-rule="evenodd" clip-rule="evenodd" fill="#5C9BCA" d="M126.039,217.682c-0.776,4.863,2.609,8.321,4.387,12.257
		c0.909,2.015,1.987,3.912,2.38,6.114c-4.888-0.258-5.116-3.514-4.642-7.219c-1.508-3.311-3.017-6.619-4.789-10.508
		c-1.245,3.404,1.721,5.071,1.442,7.588c-2.238,0.134-2.958-1.604-3.818-3.167c0.401-2.544-3.422-4.964-0.229-7.592
		C122.952,215.108,124.626,216.126,126.039,217.682z"/>
	<path fill-rule="evenodd" clip-rule="evenodd" fill="#5CA1CA" d="M151.28,250.463c-0.396-4.475-3.89-7.658-4.938-11.861
		c3.804,2.921,7.609,5.844,11.413,8.765c-0.214,1.442,0.915,3.276-1.214,4.164C154.631,251.951,152.668,252.62,151.28,250.463z"/>
	<path fill-rule="evenodd" clip-rule="evenodd" fill="#5D9ED0" d="M171.739,224.196c-0.912,4.366-5.266,1.25-7.229,3.327
		c-1.532-0.645-3.063-1.289-4.597-1.934c-0.828-2.681-2.528-6.157,2.886-3.194c2.152,1.179,4.279,1.141,6.398-0.07
		C170.449,222.401,171.247,223.091,171.739,224.196z"/>
	<path fill-rule="evenodd" clip-rule="evenodd" fill="#78CBF4" d="M120.771,215.155c0.076,2.53,0.153,5.063,0.229,7.594
		c-1.371-2.519-4.884-4.291-2.786-8.014C119.062,214.875,119.916,215.016,120.771,215.155z"/>
	<path fill-rule="evenodd" clip-rule="evenodd" fill="#64CEEC" d="M156.479,250.938c0.427-1.189,0.85-2.38,1.276-3.571
		c0.378,0.02,0.601,0.219,0.661,0.595c1.109,1.934,3.329,3.563,1.71,6.246C157.676,254.491,156.291,253.592,156.479,250.938z"/>
	<path fill-rule="evenodd" clip-rule="evenodd" fill="#5CA1CA" d="M159.72,253.942c0.846-2.273-1.017-3.954-1.304-5.979
		c0.824,0.663,1.649,1.327,2.473,1.991c-0.752,1.695,4.725,4.304-0.778,5.303C159.515,254.956,159.36,254.525,159.72,253.942z"/>
	<path fill-rule="evenodd" clip-rule="evenodd" fill="#B4E7F5" d="M173.873,159.431c5.008-7.447,10.582-14.438,16.782-20.928
		c2.623,2.543,0.803,5.169-0.029,7.635c-1.396,4.13-3.123,8.151-3.265,12.6c-0.771,3.196-2.676,5.419-5.726,6.65
		c-4.706-4.345,1.508-7.566,1-10.903c-2.353,3.904-2.323,9.392-5.496,13.609c-5.881,2.313-5.496-1.953-5.795-5.51
		C171.45,160.943,172.907,160.383,173.873,159.431z"/>
	<path fill-rule="evenodd" clip-rule="evenodd" fill="#C6EDF5" d="M194.478,147.128c-0.659,2.106-1.32,4.212-1.981,6.317
		c-0.194,2.234-1.103,3.878-3.524,4.271c-3.702-1.533-1.607-4.09-1.003-6.264c1.336-4.808,4.171-9.143,4.518-14.271
		c2.128-3.168,5.127-5.357,8.299-7.35c0.417,0.481,0.674,1.039,0.798,1.663c-0.264,3.128-2.772,5.467-3.022,8.602
		c-0.141,0.601-0.362,1.167-0.623,1.724C196.964,143.707,195.776,145.452,194.478,147.128z"/>
	<path fill-rule="evenodd" clip-rule="evenodd" fill="#415698" d="M165.888,151.52c-1.4-4.551-2.801-9.099-4.203-13.65
		c0.155-1.261,1.019-1.558,2.106-1.548c2.192,0.663,1.958,3.237,3.483,4.43c1.264,3.284,2.235,6.618,1.697,10.203
		c1.119,1.424,2.568,2.803,0.708,4.68c-1.173,0.231-2.165-0.094-2.99-0.951C166.1,153.711,165.971,152.621,165.888,151.52z"/>
	<path fill-rule="evenodd" clip-rule="evenodd" fill="#C9F0F8" d="M199.872,145.968c-0.808,0.572-1.614,1.145-2.421,1.718
		c-2.329-2.297-0.395-4.499,0.15-6.732l0.006-0.015c0.377-3.457,2.792-6.025,3.976-9.13c0.109-1.613,1.026-2.798,2.074-3.914
		c0.779-0.792,1.42-0.436,2.021,0.245c2.266,1.483,0.648,3.255,0.367,4.928c-0.388,0.986-0.775,1.972-1.163,2.959
		c-0.922,1.967-0.316,4.282-1.402,6.215C202.629,143.822,202.353,145.971,199.872,145.968z"/>
	<path fill-rule="evenodd" clip-rule="evenodd" fill="#518AC6" d="M192.486,137.182c3.406,0.879,1.056,2.609,0.498,3.92
		c-2.208,5.197-4.994,10.21-4.635,16.14c0.269,2.347,0.204,2.38-2.524,1.208c-0.882-7.251,4.713-12.934,4.826-19.946
		C191.263,138.063,191.875,137.621,192.486,137.182z"/>
	<path fill-rule="evenodd" clip-rule="evenodd" fill="#1E294F" d="M167.274,140.75c-2.833,0.069-2.547-2.557-3.53-4.086
		c-2.021-0.716-3.603-2.115-5.288-3.37c-0.697-0.705-1.101-1.545-1.18-2.542c0.089-0.672,0.383-1.238,0.846-1.726
		c1.467-0.784,2.981-1.891,3.981,0.57c2.171,2.601,4.341,5.202,6.512,7.803c0.559,0.091,0.899,0.413,1.024,0.97
		c0.012,0.436-0.123,0.708-0.406,0.815c-0.313,0.12-0.491,0.135-0.534,0.042C168.225,139.735,167.75,140.243,167.274,140.75z"/>
	<path fill-rule="evenodd" clip-rule="evenodd" fill="#85C0ED" d="M186.512,132.557c-3.507,3.351-7.991,4.933-12.303,6.829
		c-0.648-0.097-1.008-0.469-1.084-1.119c0.213-1.477,0.73-2.847,1.447-4.149c0.557-0.687,1.274-1.162,2.065-1.529
		c1.611-0.501,2.445-2.4,4.316-2.46C182.856,130.826,184.927,131.135,186.512,132.557z"/>
	<path fill-rule="evenodd" clip-rule="evenodd" fill="#9FCBE4" d="M197.94,118.28c1.552,0.703,2.844-0.159,4.188-0.707
		c-0.963,2.512-2.782,4.281-4.968,5.732c-3.038,1.761-5.924,2.927-7.257-1.888c0.866-2.034,2.608-2.956,4.571-3.604
		C195.69,117.508,196.85,117.63,197.94,118.28z"/>
	<path fill-rule="evenodd" clip-rule="evenodd" fill="#A0DCF3" d="M186.512,132.557c-2.328,0.589-4.48,0.658-5.738-1.934
		c0.491-2.038,2.144-1.852,3.657-1.936c1.479,0.11,2.791-0.283,3.88-1.333c1.128-0.933,2.182-1.958,3.504-2.623
		c1.39-0.395,2.375-0.142,2.458,1.543C191.911,128.648,189.625,131.113,186.512,132.557z"/>
	<path fill-rule="evenodd" clip-rule="evenodd" fill="#5A95CC" d="M194.272,126.274c-0.783-0.202-1.565-0.404-2.348-0.604
		c-1.075,0.933-2.164,1.418-3.302,0.088c-0.533-1.296-0.387-2.539,0.281-3.745c0.492-0.518,1.046-0.589,1.656-0.214
		c1.686,2.771,4.328,1.32,6.602,1.504C196.195,124.295,195.234,125.284,194.272,126.274z"/>
	<path fill-rule="evenodd" clip-rule="evenodd" fill="#8686AE" d="M169.534,155.506c0.645-1.622-0.185-3.06-0.564-4.554
		c4.294,1.286,0.733,7.121,4.906,8.477c-0.481,0.738-0.965,1.474-1.442,2.211C169.282,160.628,168.385,158.549,169.534,155.506z"/>
	<path fill-rule="evenodd" clip-rule="evenodd" fill="#6496CD" d="M206.046,133.067c-0.123-1.644-0.246-3.286-0.367-4.928
		c1.3-0.95,1.992-3.02,4.202-2.285C208.926,128.435,208.075,131.065,206.046,133.067z"/>
	<path fill-rule="evenodd" clip-rule="evenodd" fill="#B1C7E2" d="M173.501,137.752c0.236,0.544,0.47,1.089,0.707,1.634
		c-1.861,0.852-3.734,2.058-5.509-0.159c0.255-0.125,0.406-0.33,0.449-0.611c0.667-1.224,1.653-1.972,3.077-2.062
		C172.925,136.659,173.353,137.059,173.501,137.752z"/>
	<path fill-rule="evenodd" clip-rule="evenodd" fill="#5D5F94" d="M203.657,127.895c-0.347,1.122-0.691,2.244-1.036,3.366
		c-0.438,0.798-1.058,0.987-1.863,0.567c0.006-0.663,0.011-1.325,0.022-1.991C201.305,128.537,202.448,128.167,203.657,127.895z"/>
	<path fill-rule="evenodd" clip-rule="evenodd" fill="#5E9CCE" d="M149.43,199.563c-0.778-3.717-3.863-6.695-3.447-10.794
		c5.205,2.467,9.088,6.593,13.156,10.487c0.135,2.563,3.679,4.985,0.317,7.694c-1.499-0.845-0.663-6.304-4.836-2.503
		C154.485,204.572,151.231,201.269,149.43,199.563z"/>
	<path fill-rule="evenodd" clip-rule="evenodd" fill="#6EA5D5" d="M159.457,206.951c1.325-2.625-2.376-5.039-0.317-7.694
		c2.952,1.611,5.408,3.775,7.318,6.552c-0.222,0.602-0.624,1.041-1.202,1.316c0.298,2.158,0.596,4.315,0.962,6.962
		C161.735,213.496,160.635,210.185,159.457,206.951z"/>
	<path fill-rule="evenodd" clip-rule="evenodd" fill="#5A8DBD" d="M153.629,174.673c-0.951-1.086-1.9-2.175-2.849-3.262
		c3.284,0.593,6.429,2.019,9.876,1.655c2.225,0.884,4.254-0.086,6.331-0.664c1.069,0.196,1.769,0.72,1.711,1.922
		c-1.305,2.138-1.78,5.157-5.271,4.972C159.32,179.536,156.898,176.208,153.629,174.673z"/>
	<path fill-rule="evenodd" clip-rule="evenodd" fill="#6EB0E0" d="M142.543,186.748c0.39,2.187,2.328,3.952,1.679,7.164
		c-2.34-1.647-4.408-3.106-6.476-4.562c-2.355-0.581-2.604-2.365-2.487-4.356c0.33-0.884,0.659-1.767,0.988-2.651
		C138.658,183.364,140.785,184.794,142.543,186.748z"/>
	<path fill-rule="evenodd" clip-rule="evenodd" fill="#172E5F" d="M168.32,174.109c-0.504-0.373-1.007-0.744-1.511-1.116
		c-0.017-4.747,3.745-2.702,5.559-2.543c3.171,0.282,1.684,2.832,1.26,4.66c0.28,0.769,0.561,1.534,0.841,2.302
		c-1.881,0.946-2.712,3.491-5.247,3.429c-0.212-0.169-0.392-0.364-0.54-0.589C167.582,178.263,167.811,176.193,168.32,174.109z"/>
	<path fill-rule="evenodd" clip-rule="evenodd" fill="#6991BF" d="M168.32,174.109c2.04,1.936,1.383,4.028,0.357,6.142
		c-1.819,0.076-3.672,0.313-5.25-0.955C165.744,178.213,165.259,174.49,168.32,174.109z"/>
	<path fill-rule="evenodd" clip-rule="evenodd" fill="#7D8FB3" d="M172.142,201.977c1.94,2.907,1.307,6.15,1.219,9.321
		c0.651,0.411,0.818,0.949,0.428,1.634c-3.171,0.698-3.941-2.104-5.497-3.763c-0.226-0.667-0.24-1.342-0.073-2.024
		C176.165,210.462,169.406,202.612,172.142,201.977z"/>
	<path fill-rule="evenodd" clip-rule="evenodd" fill="#20509F" d="M168.219,207.145c0.221,0.555,0.441,1.108,0.662,1.663
		c0.144,0.71-0.08,1.297-0.617,1.771c-1.797-0.46-2.179-2.148-3.008-3.454c0.023-0.776,0.329-1.303,1.196-1.322
		C167.045,206.253,167.633,206.7,168.219,207.145z"/>
	<path fill-rule="evenodd" clip-rule="evenodd" fill="#273C71" d="M137.434,98.577c0.482,0.035,0.769,0.277,0.861,0.726
		c1.704,5.586,3.528,11.09,7.779,15.433c1.616,1.654,2.961,2.892,4.776,0.392c2.792,1.812,4.267,4.575,5.445,7.551
		c0.646,1.817,1.216,3.642-0.021,5.452c-3.936,1.123-7.533-0.871-11.309-1.244c-1.118-0.291-1.764-0.974-1.814-2.158
		c3.368-3.871-1.344-5.476-2.277-8.142c-0.628-4.122-2.97-7.454-6.563-8.894c-3.553-1.424-4.474-3.942-5.266-6.985
		c-1.383-0.873-1.822-2.023-0.562-3.238c1.201-1.159,2.472-0.555,3.624,0.29c1.118,1.314,0.896,3.979,3.19,3.896
		C136.046,101.631,136.725,99.659,137.434,98.577z"/>
	<path fill-rule="evenodd" clip-rule="evenodd" fill="#6BADD6" d="M131.419,139.115c-0.543-3.906-6.336-5.317-4.842-10.192
		c5.38,0.859,7.975,5.5,11.688,8.626c0.072,2.436,2.92,4.119,1.86,6.865C135.123,146.099,132.833,143.324,131.419,139.115z"/>
	<path fill-rule="evenodd" clip-rule="evenodd" fill="#72A4CB" d="M141.254,140.769c4.313,4.146,8.626,8.291,12.938,12.438
		c-1.21,2.136,2.669,5.591-1.79,6.894c-4.492-1.041-4.776-5.895-7.647-8.408C141.898,148.594,140.643,144.979,141.254,140.769z"/>
	<path fill-rule="evenodd" clip-rule="evenodd" fill="#6DB2E0" d="M140.875,116.588c3.67-0.149,5.47,3.24,6.408,5.29
		c1.638,3.581-2.89,1.511-4.131,2.852c-1.552-1.36-4.094-1.449-4.877-3.799C137.155,118.296,139.056,117.468,140.875,116.588z"/>
	<path fill-rule="evenodd" clip-rule="evenodd" fill="#5A9ACB" d="M155.477,154.87c4.496,1.275,5.887,6.719,10.509,7.823
		c0.392-0.616,0.941-0.89,1.674-0.77c1.53,1.671,0.417,3.247-0.16,4.851c-0.817,1.375-1.963,2.135-3.626,1.913
		c-3.602-1.111-5.259-4.256-7.337-6.974C155.506,159.536,154.407,157.369,155.477,154.87z"/>
	<path fill-rule="evenodd" clip-rule="evenodd" fill="#5C99CB" d="M144.966,126.888c3.642-1.155,7.246-1.969,10.378,1.221
		c1.241,0.214,2.503,0.402,2.44,2.118l-0.008,0.017c-0.977,1.986-2.6,2.607-4.7,2.211
		C149.925,131.25,147.346,129.21,144.966,126.888z"/>
	<path fill-rule="evenodd" clip-rule="evenodd" fill="#6BB1DB" d="M141.254,140.769c1.829,3.327,2.026,7.421,4.833,10.286
		c-0.138,2.984-2.024,2.643-3.511,1.445c-2.419-1.943-3.691-4.57-2.718-7.832c-0.538-2.372-2.908-4.333-1.592-7.119
		C139.662,138.25,140.81,139.182,141.254,140.769z"/>
	<path fill-rule="evenodd" clip-rule="evenodd" fill="#4277B9" d="M155.477,154.87c0.97,2.375,1.94,4.748,2.907,7.122
		c-3.128,2.434-4.972,1.751-5.444-2.249c1.789-1.918-2.295-4.957,1.25-6.537C154.621,153.761,155.049,154.316,155.477,154.87z"/>
	<path fill-rule="evenodd" clip-rule="evenodd" fill="#73B4D2" d="M167.879,162.17c-0.63,0.177-1.262,0.351-1.892,0.524
		c-0.035-3.725-0.066-7.448-0.1-11.173c0.5,1.047,1,2.095,1.498,3.145C168.055,157.134,171.142,159.446,167.879,162.17z"/>
	<path fill-rule="evenodd" clip-rule="evenodd" fill="#609EC6" d="M158.937,132.533c2.56,0.264,4.34,1.434,4.808,4.131
		c-0.689,0.4-1.376,0.799-2.061,1.202c-1.093-0.8-2.188-1.602-3.283-2.407C157.105,134.215,156.854,133.161,158.937,132.533z"/>
	<path fill-rule="evenodd" clip-rule="evenodd" fill="#395B95" d="M158.937,132.533c-0.174,0.979-0.351,1.955-0.531,2.93
		c-2.12-0.403-3.765-1.641-5.331-3.01c1.568-0.737,3.134-1.475,4.702-2.209C158.164,131.005,158.55,131.77,158.937,132.533z"/>
	<path fill-rule="evenodd" clip-rule="evenodd" fill="#84C0E1" d="M169.914,133.703c-3.562-1.689-1.628-5.043-2.309-7.606
		c2.828-2.905,5.656-5.81,8.485-8.716c2.247,3.959,0.296,8.071,0.444,12.109C175.589,132.869,173.239,134.055,169.914,133.703z"/>
	<path fill-rule="evenodd" clip-rule="evenodd" fill="#BFF1F7" d="M175.745,129.6c-1.2-4.11,0.027-8.153,0.347-12.218
		c1.27-2.248,2.837-4.215,5.143-5.493c2.458,3.532-0.077,7.461,0.902,11.117c0.113,1.699-0.01,3.35-0.946,4.842
		c-0.899,1.108-2.062,1.789-3.444,2.107C177.048,130.021,176.382,129.9,175.745,129.6z"/>
	<path fill-rule="evenodd" clip-rule="evenodd" fill="#B9ECF4" d="M196.325,98.579c1.109-1.674,2.691-2.643,4.619-3.094
		c2.286,4.069,0.482,8.287,0.459,12.447c-0.846,2.389-2.066,4.441-4.684,5.248c-4.474-0.835-3.023-4.238-3.007-6.995
		C193.729,103.364,195.292,101.058,196.325,98.579z"/>
	<path fill-rule="evenodd" clip-rule="evenodd" fill="#B5F1FA" d="M189.913,103.374c1.247-1.313,2.154-3.058,4.229-3.315
		c2.203,4.942-2.078,9.951,0.164,14.896c-0.069,1.053-0.42,2.001-1.025,2.862c-0.468,0.54-1.025,0.959-1.667,1.27
		c-1.028,0.412-2.053,0.479-3.078-0.008C184.575,113.46,187.728,108.459,189.913,103.374z"/>
	<path fill-rule="evenodd" clip-rule="evenodd" fill="#B1E7F2" d="M202.799,94.61c3.604-0.97,7.992-3.574,7.65,3.673
		c-1.068,3.295-3.728,5.139-6.378,6.992c-2.723,0.313-3.076-1.385-2.729-3.417C201.763,99.433,201.376,96.834,202.799,94.61z"/>
	<path fill-rule="evenodd" clip-rule="evenodd" fill="#BFECF5" d="M183.354,109.451c1.207-1.264,2.416-2.527,3.625-3.792
		c2.707,4.611-1.325,9.666,0.942,14.31c0.101,1.523-0.314,2.877-1.312,4.045c-1.979,1.442-3.867,2.095-5.329-0.657
		C181.385,118.637,181.234,113.876,183.354,109.451z"/>
	<path fill-rule="evenodd" clip-rule="evenodd" fill="#5B98CF" d="M193.448,115.361c-2.553-5.227,0.802-10.187,0.694-15.302
		c0.729-0.494,1.457-0.988,2.185-1.48c-0.428,3.301-0.992,6.592-1.226,9.908c-0.104,1.474-1.362,3.83,1.78,4.01
		c0.654,0.509,0.773,1.121,0.361,1.841C196.219,115.574,194.989,116.042,193.448,115.361z"/>
	<path fill-rule="evenodd" clip-rule="evenodd" fill="#5687C8" d="M186.739,120.022c-1.089-4.796,0.435-9.554,0.231-14.35
		c0.441-1.473,1.741-1.82,2.94-2.299c0.9,5.186-3.473,10.127-0.716,15.401C188.734,119.897,187.937,120.353,186.739,120.022z"/>
	<path fill-rule="evenodd" clip-rule="evenodd" fill="#5C94C9" d="M202.799,94.61c1.995,3.212-3.382,7.328,1.25,10.217
		c0.628,0.546,0.695,1.156,0.206,1.828c-1.069,1.162-2.297,1.637-3.808,0.882c-1.166-4.072,0.141-8.043,0.498-12.051
		C201.563,95.194,202.182,94.901,202.799,94.61z"/>
	<path fill-rule="evenodd" clip-rule="evenodd" fill="#72A7D0" d="M183.354,109.451c-0.625,4.351-1.251,8.703-1.874,13.055
		c-0.006,0.438-0.141,0.669-0.41,0.701c-0.287,0.032-0.455-0.004-0.502-0.109c-0.768-3.795,0.296-7.483,0.668-11.21
		C181.428,110.629,182.167,109.847,183.354,109.451z"/>
	<path fill-rule="evenodd" clip-rule="evenodd" fill="#3E508F" d="M165.277,113.351c0.813-2.192,2.644-2.702,4.7-2.85
		c0.122,2.883-1.3,5.352-2.162,7.976C165.81,117.341,165.752,115.243,165.277,113.351z"/>
	<path fill-rule="evenodd" clip-rule="evenodd" fill="#3D66AE" d="M204.198,105.74c-0.045-0.305-0.094-0.61-0.149-0.913
		c1.706-2.6,3.839-4.782,6.401-6.542c0.544,1.126,0.759,2.257,0.014,3.392c-1.415,1.159-2.189,3.088-4.215,3.516
		C205.757,106.097,205.073,106.28,204.198,105.74z"/>
	<path fill-rule="evenodd" clip-rule="evenodd" fill="#64A5D1" d="M173.773,92.333c1.49-0.546,2.933-1.42,4.611-0.669
		c-0.397,0.926-0.795,1.851-1.194,2.782c-1.539,0.876-3.076,1.747-4.721,2.678C171.545,95.09,173.166,93.843,173.773,92.333z"/>
	<path fill-rule="evenodd" clip-rule="evenodd" fill="#67A1C2" d="M171.425,107.242c-1.184-4.232,0.578-7.185,4.076-9.383
		C174.825,101.28,173.347,104.358,171.425,107.242z"/>
	<path fill-rule="evenodd" clip-rule="evenodd" fill="#3158A2" d="M196.426,244.715c-1.657-0.768-3.041,0.505-4.579,0.618
		c-0.229-0.223-0.459-0.443-0.689-0.661c-0.064-0.642,0.038-1.26,0.294-1.85c2.492-3.687,3.197-7.978,4.072-12.205
		c0.526-2.538,1.938-4.576,3.513-6.538c0.853-1.205,1.528-2.609,3.232-2.849c2.713,1.72,1.255,4.011,0.744,6.087
		c-0.629,2.555-2.037,4.914-2.325,7.744c1.647-0.238,2.281-1.289,3.221-1.853c0.985-0.707,2.125-1.124,3.198-1.662
		c1.776-1.106,3.153-2.75,5.01-3.756c2.365-0.652,4.721-2.052,7.126-0.12c0.456,1.399-0.364,2.332-1.189,3.264
		c-0.858,0.846-2.32,0.575-3.065,1.642c-3.017,0.616-5.445,1.968-6.419,5.138c-0.194,0.906-0.742,1.257-1.646,1.052
		c-3.178-0.562-5.098,1.717-7.346,3.258c-0.146,0.494-0.339,0.966-0.579,1.424C198.326,244.248,197.644,245.024,196.426,244.715z"/>
	<path fill-rule="evenodd" clip-rule="evenodd" fill="#B1E8F6" d="M226.857,208.554c-0.966,2.85-1.932,5.696-2.898,8.546
		c-2.49,1.729-1.796,4.665-2.648,7.02c-0.394,0.992-1.031,1.771-1.96,2.309c-4.164,1.618-6.19,0.415-5.292-4.209
		c0.813-4.184,1.072-8.65,4.927-11.557C221.363,209.04,224.193,209.106,226.857,208.554z"/>
	<path fill-rule="evenodd" clip-rule="evenodd" fill="#B9E6F3" d="M180.164,218.982c-0.276-0.422-0.55-0.844-0.825-1.265
		c-0.644-1.368-1.271-2.734-0.217-4.188c2.747-1.897,5.553-3.611,9.127-2.931c2.663,0.718,6.583-1.674,7.613,3.081
		C191.523,218.099,185.928,218.784,180.164,218.982z"/>
	<path fill-rule="evenodd" clip-rule="evenodd" fill="#B3ECF8" d="M205.118,233.483c-1.503,2.299-3.328,4.201-6.389,5.219
		c-1.544-6.54,4.637-11.322,3.538-17.473c1.576-1.139,2.148-3.541,4.563-3.624c1.787,0.984,1.518,2.646,1.421,4.256
		C207.337,225.767,207.77,230.043,205.118,233.483z"/>
	<path fill-rule="evenodd" clip-rule="evenodd" fill="#B6E9F7" d="M189.298,210.075c0.271-3.765,3.709-4.871,5.898-7.023
		c1.255,0.188,2.302-0.61,3.49-0.735c2.853,0.602,6.236-0.964,8.486,2.082c-2.064,1.74-4.129,3.479-6.193,5.219
		C197.21,212.955,193.224,210.736,189.298,210.075z"/>
	<path fill-rule="evenodd" clip-rule="evenodd" fill="#B7E9F4" d="M212.101,228.761c-0.328,2.304-2.596,2.876-3.872,4.332
		c-3.869-3.384-0.385-7.065-0.431-10.604c0.299-2.713,1.122-5.191,3.157-7.134c1.34-1.811,2.992-3.112,5.342-3.282
		C215.875,217.883,214.894,223.549,212.101,228.761z"/>
	<path fill-rule="evenodd" clip-rule="evenodd" fill="#C7ECF4" d="M199.036,224.079c-2.813,6.553-1.317,14.747-7.605,19.977
		c-4.258-5.832,0.217-10.632,1.867-15.764C195.142,226.792,196.48,224.607,199.036,224.079z"/>
	<path fill-rule="evenodd" clip-rule="evenodd" fill="#C3E8F2" d="M185.493,235.094c1.577-1.422,2.674-3.427,4.921-4.031
		c1.881,4.604-1.333,8.752-1.17,13.208c-0.322,0.979-0.83,1.842-1.576,2.563c-3.464,2.151-4.908,0.815-5.102-2.891
		C182.391,240.593,185.023,238.209,185.493,235.094z"/>
	<path fill-rule="evenodd" clip-rule="evenodd" fill="#3867B4" d="M212.101,228.761c0.537-5.777,2.509-11.195,4.193-16.688
		c0.897-0.469,1.794-0.939,2.689-1.411c-1.177,4.174-2.41,8.335-3.52,12.526c-1.47,5.572,1.827,2.852,3.912,2.201
		c0.612,0.228,1.026,0.645,1.214,1.279c-0.068,0.97-0.177,1.907-1.567,1.476C216.714,228.35,214.406,228.556,212.101,228.761z"/>
	<path fill-rule="evenodd" clip-rule="evenodd" fill="#3158A2" d="M188.239,244.047c0.723-4.329,1.449-8.655,2.173-12.982
		c0.962-0.925,1.924-1.85,2.886-2.772c0.636,5.403-3.686,10.22-1.867,15.764l-0.184,0.389
		C190.121,245.237,189.136,244.983,188.239,244.047z"/>
	<path fill-rule="evenodd" clip-rule="evenodd" fill="#34579B" d="M185.493,235.094c1.228,3.302-1.208,6.018-1.486,9.111
		c-0.407,4.503,1.439,3.24,3.634,1.724c-0.293,3.948-2.956,3.806-5.795,3.361c-3.706-4.515,0.03-8.133,1.453-12.031
		C184.03,236.537,184.762,235.815,185.493,235.094z"/>
	<path fill-rule="evenodd" clip-rule="evenodd" fill="#B3D2E3" d="M183.299,237.259c-0.342,3.837-2.505,7.423-1.581,11.434
		c0.511,0.397,0.511,0.794,0,1.189c-1.455,1.088-2.604,1.847-2.887-1.007c-0.252-2.546,1.423-5.23-0.53-7.637
		c-0.055-1.093,0.735-1.434,1.554-1.753C181.003,238.743,182.15,238.002,183.299,237.259z"/>
	<path fill-rule="evenodd" clip-rule="evenodd" fill="#74B9DD" d="M189.298,210.075c3.854-1.26,7.865,1.464,11.687-0.462
		c-1.098,2.133-3.129,3.08-5.124,4.069c-1.945-2.488-5.519-0.961-7.611-3.084C188.548,210.322,188.897,210.148,189.298,210.075z"/>
	<path fill-rule="evenodd" clip-rule="evenodd" fill="#78B7DE" d="M207.173,204.398c-2.921-0.441-5.844-0.881-8.765-1.322
		c-0.172-0.826,0.114-1.486,0.736-2.025c3.617-0.083,7.236-0.166,10.857-0.25C209.624,202.444,208.428,203.443,207.173,204.398z"/>
	<path fill-rule="evenodd" clip-rule="evenodd" fill="#2D4AA8" d="M210.955,215.355c-0.771,2.36-1.542,4.722-2.313,7.083
		c-0.924,0.746-1.629,0.967-1.576-0.65c-0.077-1.394-0.156-2.789-0.234-4.183C208.207,216.856,209.581,216.105,210.955,215.355z"/>
	<path fill-rule="evenodd" clip-rule="evenodd" fill="#6C89B7" d="M179.854,239.485c-0.519,0.584-1.037,1.171-1.555,1.753
		c-0.229-2.856-1.145-5.803,1.109-8.325C179.558,235.104,179.704,237.295,179.854,239.485z"/>
	<path fill-rule="evenodd" clip-rule="evenodd" fill="#ACE1F0" d="M210.69,169.819c-0.19,0.637-0.382,1.276-0.571,1.917
		c-2.121,3.125-2.935,6.812-4.413,10.217c-1.865,5.378-0.92,11.884-6.365,15.819c-1.128,1.092-2.12,2.751-4.008,1.859
		c-1.758-0.831-1.693-2.546-1.384-4.195c0.337-1.812,1.056-3.513,1.583-5.266c0.948-3.932,3.241-7.394,4.017-11.394
		C202.755,175.158,206.138,171.762,210.69,169.819z"/>
	<path fill-rule="evenodd" clip-rule="evenodd" fill="#C1F0F6" d="M192.54,199.604c-0.485,2.535-1.585,4.897-4.454,4.703
		c-1.888-0.13-0.431-2.621-1.341-3.754c-0.066-0.306-0.133-0.611-0.207-0.915c0.569-4.018,1.704-7.848,3.811-11.351
		c2.076-2.357,4.149-4.714,6.226-7.072c3.035,3.519-1.256,6.439-0.795,9.746C195.116,193.998,194.066,196.889,192.54,199.604z"/>
	<path fill-rule="evenodd" clip-rule="evenodd" fill="#B4E3F1" d="M186.745,200.554c-0.329,0.821-0.794,1.616-0.961,2.471
		c-0.538,2.734-1.106,5.947-4.438,5.917c-3.884-0.035-1.423-3.996-2.659-5.852c-0.354-0.533-0.376-1.29-0.548-1.944
		c2.947-3.122,5.896-6.244,8.844-9.368c2.322,3.027-0.136,5.939-0.215,8.91L186.745,200.554z"/>
	<path fill-rule="evenodd" clip-rule="evenodd" fill="#4E89CC" d="M194.63,190.958c-0.48-3.472,3.374-6.079,1.941-9.741
		c0.995-0.814,1.987-1.631,2.979-2.44c2.085,4.465-1.656,7.469-2.791,11.129C196.412,190.987,195.735,191.402,194.63,190.958z"/>
	<path fill-rule="evenodd" clip-rule="evenodd" fill="#547BC4" d="M186.769,200.688c-1.312-3,0.573-5.924,0.209-8.906
		c0.825-1.457,1.727-2.835,3.371-3.493C189.787,192.603,189.393,196.968,186.769,200.688z"/>
	<path fill-rule="evenodd" clip-rule="evenodd" fill="#1C3C78" d="M179.122,213.529c0.19,1.39,1.045,2.746,0.217,4.188
		c-1.499,0.165-2.997,0.332-4.496,0.498c-2.512-1.347-2.467-3.394-1.558-5.68c0.04-0.411,0.068-0.824,0.076-1.238
		C176.868,207.942,179.083,207.93,179.122,213.529z"/>
	<path fill-rule="evenodd" clip-rule="evenodd" fill="#5288C8" d="M194.63,190.958c0.71-0.352,1.421-0.704,2.132-1.055
		c-0.439,1.93-0.919,3.854-1.295,5.795c-0.195,1.01-0.969,2.362,0.276,2.971c1.544,0.752,1.99-1.397,3.228-1.713
		c0.678,0.059,1.46-0.244,1.914,0.567c-0.261,1.333-2.171,1.852-1.74,3.527c-0.247,0.675-0.491,1.35-0.736,2.024
		c-1.071-0.009-2.141-0.017-3.21-0.025c3.114-4.233-2.312-1.881-2.658-3.445C193.237,196.722,193.934,193.841,194.63,190.958z"/>
	<path fill-rule="evenodd" clip-rule="evenodd" fill="#6088B1" d="M143.484,252.242c0.845-0.39,1.688-0.781,2.534-1.171
		c3.503-0.383,6.286,0.635,7.843,4.034c0.377,1.032,0.753,2.063,1.129,3.095C150.74,257.015,146.616,255.584,143.484,252.242z"/>
	<path fill-rule="evenodd" clip-rule="evenodd" fill="#78A7D2" d="M127.896,187.942c-0.429,0.167-0.853,0.344-1.272,0.529
		c-1.681-1.141-3.446-1.515-5.354-0.583c-2.75-2.142-4.093-4.574-1.626-7.801c4.254,0.949,8.071,2.506,9.72,7.052
		c-0.159,0.481-0.43,0.761-0.811,0.839C128.161,188.059,127.943,188.046,127.896,187.942z"/>
	<path fill-rule="evenodd" clip-rule="evenodd" fill="#457DB9" d="M128.872,187.329c-1.646-4.239-6.825-3.971-9.228-7.241
		c0.669-0.783,1.339-1.567,2.008-2.352c3.705,2.686,7.409,5.371,11.116,8.055C131.933,187.478,130.619,187.951,128.872,187.329z"/>
	<path fill-rule="evenodd" clip-rule="evenodd" fill="#94C4E1" d="M236.549,220.475c0.019,2.348-0.868,4.307-2.556,5.918
		c-3.294,3.55-6.962,3.733-10.931,1.218c-0.698-1.579,0.213-2.776,0.943-4.02c1.728-1.673,3.229-3.68,5.8-4.205
		C232.079,219.563,234.52,218.767,236.549,220.475z"/>
	<path fill-rule="evenodd" clip-rule="evenodd" fill="#A2D5EB" d="M222.985,226.609c3.7,1.505,7.365,1.242,11.007-0.217
		c-0.341,2.023-1.567,3.497-3.002,4.843c-4.809,3.442-9.469,2.573-14.054-0.484c0.695-0.869,1.391-1.737,2.086-2.606
		c0.356-0.447,0.712-0.891,1.069-1.339C220.91,224.595,221.896,224.832,222.985,226.609z"/>
	<path fill-rule="evenodd" clip-rule="evenodd" fill="#6299C7" d="M216.937,230.751c4.652,1.144,9.306,2.322,14.057,0.478
		c-1.116,1.424-2.229,2.841-3.339,4.254c-4.222-0.97-8.444-1.938-12.667-2.907C214.974,231.262,216.017,231.074,216.937,230.751z"/>
	<path fill-rule="evenodd" clip-rule="evenodd" fill="#37669B" d="M236.549,220.475c-1.958-0.394-3.995,1.045-5.914-0.253
		c-0.114-0.295-0.229-0.59-0.345-0.887c0.104-1.446-0.356-3.366,2.266-2.713c0.839,3.564,3.06,0.652,4.59,0.98
		C236.946,218.561,236.749,219.517,236.549,220.475z"/>
	<path fill-rule="evenodd" clip-rule="evenodd" fill="#2F467B" d="M132.108,97.76c-2.052-0.088-4.216-0.29-3.062,2.949
		c-2.977-1.585-4.7-4.878-8.07-5.938c-1.254-2.259-1.637-4.401,0.802-6.177c0.586,2.064,1.968,3.41,3.868,4.289
		c0.406,1.211,0.629,2.785,2.131,2.939c1.874,0.195,1.174-2.003,2.1-2.787C130.622,94.613,131.364,96.187,132.108,97.76z"/>
	<path fill-rule="evenodd" clip-rule="evenodd" fill="#6693C6" d="M127.503,107.678c-2.623-1.724-3.207-4.688-4.423-7.27
		C126.061,101.915,126.262,105.113,127.503,107.678z"/>
	<path fill-rule="evenodd" clip-rule="evenodd" fill="#4980C1" d="M202.226,141.645c0.393-2.105,0.98-4.116,2.654-5.616
		c2.598,3.022,2.053-1.649,3.505-1.431c0.696,0.106,1.489-0.128,2.012,0.583c-1.481,2.259-2.961,4.521-4.443,6.781
		c-0.254,0.071-0.509,0.143-0.762,0.214C204.121,142.449,203.093,142.499,202.226,141.645z"/>
	<path fill-rule="evenodd" clip-rule="evenodd" fill="#4980C1" d="M209.298,143.37c-0.529,0.678-1.061,1.354-1.588,2.027
		c-1.831,0.809-3.664,1.62-5.496,2.429c-0.092-0.289-0.181-0.58-0.271-0.87c0.407-2.136,0.021-4.755,3.181-5.212
		c0.275,0.069,0.553,0.141,0.828,0.218C205.204,146.861,207.988,143.364,209.298,143.37z"/>
	<path fill-rule="evenodd" clip-rule="evenodd" fill="#1B3584" d="M210.396,135.181c-0.671-0.196-1.341-0.389-2.012-0.585
		c1.366-1.932,1.83-4.575,4.791-5.884C213.737,131.748,211.847,133.379,210.396,135.181z"/>
	<path fill-rule="evenodd" clip-rule="evenodd" fill="#BDF0F6" d="M178.422,262.082c1.476-2.51-3.345-8.118,3.844-7.815
		c2.569,0.186,5.06,0.524,6.329,3.246C186.813,262.622,182.031,261.046,178.422,262.082z"/>
	<path fill-rule="evenodd" clip-rule="evenodd" fill="#5D97CE" d="M206.032,252.419c-1.212,0.676-2.425,1.351-3.637,2.023
		c-4.527-2.053-9.869-2.186-13.73-5.813c0.413-1.281,1.295-1.728,2.585-1.448C195.729,250.188,200.768,251.622,206.032,252.419z"/>
	<path fill-rule="evenodd" clip-rule="evenodd" fill="#5594CA" d="M188.595,257.513c-2.109-1.081-4.22-2.163-6.328-3.245
		c0.343-0.539,0.686-1.078,1.031-1.617c-0.134-0.538-0.057-0.815,0.234-0.839c0.332-0.025,0.531,0.028,0.594,0.165
		c2.466,2.952,6.657,2.571,9.84,4.935C192.241,259.608,190.215,256.991,188.595,257.513z"/>
	<path fill-rule="evenodd" clip-rule="evenodd" fill="#2A4989" d="M184.126,251.977c-0.271,0.232-0.548,0.459-0.831,0.674
		c-0.28-0.471-0.562-0.942-0.842-1.414c-0.246-0.452-0.49-0.901-0.735-1.354c-0.101-0.396-0.101-0.793,0-1.189
		c2.443,0.086,4.965,0.339,5.923-2.764c0.201-0.628,0.399-1.254,0.599-1.882c1.003,0.131,2.008,0.262,3.01,0.396
		c0.265,0.251,0.466,0.548,0.599,0.889c-0.2,0.617-0.398,1.233-0.598,1.85c-0.862,0.482-1.724,0.964-2.585,1.448
		C187.118,249.697,184.524,249.35,184.126,251.977z"/>
	<path fill-rule="evenodd" clip-rule="evenodd" fill="#395B95" d="M157.784,130.227c-0.814-0.705-1.627-1.412-2.44-2.118
		c1.064-1.606,0.022-3.067-0.317-4.579c1.021-0.356,1.759-0.021,2.411,1.272c-1.215-2.845-4.484-4.737-2.257-8.115
		c1.59,0.899,2.396,2.394,3.058,4.004c0.318,3.391,3.879,5.374,3.865,8.905C160.507,128.731,159.174,129.678,157.784,130.227z"/>
	<path fill-rule="evenodd" clip-rule="evenodd" fill="#5FAAD8" d="M155.18,116.688c1.069,2.87,2.14,5.739,3.465,9.301
		c-1.61-1.092-2.615-1.775-3.618-2.455c-1.391-2.804-2.785-5.605-4.177-8.405c0.952,0.047,1.906,0.094,2.858,0.142
		C154.199,115.742,154.69,116.214,155.18,116.688z"/>
	<path fill-rule="evenodd" clip-rule="evenodd" fill="#274686" d="M175.745,129.6c0.46,0.062,0.896-0.011,1.309-0.222
		c1.367,1.438,1.486,2.989,0.423,4.65c-0.723,0.261-1.445,0.521-2.17,0.781c-1.079,0.44-1.554,1.51-2.341,2.253
		c-1.273,0.518-2.547,1.036-3.818,1.554l-0.3-0.593l-0.233-0.623c0.979-1.039,1.45-2.259,1.298-3.697
		C171.905,132.402,174.622,132.134,175.745,129.6z"/>
	<path fill-rule="evenodd" clip-rule="evenodd" fill="#2A457F" d="M152.94,159.743c1.099,2.486,2.979,3.074,5.444,2.249
		c2.771,1.329,3.251,5.03,6.298,6.07c0.497,0.486,0.654,1.064,0.471,1.735c-0.44,0.55-1.007,0.726-1.686,0.578
		c-5.415-4.37-12.661-4.696-18.406-8.338c0.595-4.523-4.312-4.351-5.95-6.967c-0.668-1.201-3.178,0.033-2.522-3.653
		c0.79-4.457-4.627-6.914-8.445-9.193c-0.073-2.26,1.025-3.291,3.275-3.109c2.622,2.142,4.904,4.798,8.439,5.553
		c0.949,2.04,1.742,4.174,2.9,6.086c0.755,1.242,1.978,3.019,3.327,0.299C149.894,152.75,149.474,157.78,152.94,159.743z"/>
	<path fill-rule="evenodd" clip-rule="evenodd" fill="#65AEDE" d="M139.111,155.07c4.071-0.783,6.493,2.195,8.375,4.671
		c2.46,3.234-1.188,1.899-2.427,2.296c-0.454,0.01-0.901,0.073-1.341,0.195c-2.636-1.435-5.188-2.955-6.211-6.044
		C138.042,155.815,138.577,155.443,139.111,155.07z"/>
	<path fill-rule="evenodd" clip-rule="evenodd" fill="#5597CB" d="M137.506,156.188c2.425,1.652,5.36,2.779,6.208,6.047
		c-0.431,0.265-0.865,0.533-1.3,0.799c-1.194-0.576-2.387-1.151-3.58-1.729c-0.656-1.029-1.31-2.061-1.965-3.091
		C137.081,157.539,137.293,156.864,137.506,156.188z"/>
	<path fill-rule="evenodd" clip-rule="evenodd" fill="#274A89" d="M163.467,170.375c0.552-0.331,1.104-0.663,1.656-0.995
		c1.036-1.032,3.462-1.595,1.258-3.722c0.499-1.162,0.998-2.324,1.498-3.487c-0.162-2.502-0.329-5.004-0.493-7.505
		c0.716,0.28,1.43,0.56,2.147,0.84c0.967,2.043,1.932,4.091,2.899,6.135c2.12,1.254-2.768,9.257,4.941,5.133
		c0.489-0.919,1.251-1.44,2.286-1.563c1.109,0.501,2.621,0.569,2.55,2.353c-0.768,0.782-1.534,1.566-2.301,2.349
		c-0.512,2.496-3.519,2.001-4.585,3.833c-0.566,0.454-1.132,0.907-1.696,1.362c-0.566-6.209-3.963-3.291-6.819-2.113
		c-2.037,1.334-4.081,2.047-6.153,0.071C161.493,172.068,164.94,173.793,163.467,170.375z"/>
	<path fill-rule="evenodd" clip-rule="evenodd" fill="#3668A7" d="M174.702,53.609c2.099-2.482,0.873-5.235,0.555-7.87
		c-0.216-1.781-1.198-3.624,1.199-4.686l0.026-0.088c2.2,1.305,2.713,4.12,5.71,5.172c1.988,0.697,1.862,5.399,1.995,7.378
		c0.293,4.38,3.187-1.566,2.712,1.105c1.417,2.037-0.987,3.874-0.308,5.869c-1.93,2.614-5.576,2.417-7.693,4.729
		c-0.515,0.381-1.072,0.671-1.67,0.898c-0.633,0.15-1.266,0.149-1.894-0.02c-0.489-0.428-0.842-0.951-1.044-1.57
		c-0.217-2.83-0.821-5.62-0.985-8.463C173.446,55.06,173.848,54.206,174.702,53.609z"/>
	<path fill-rule="evenodd" clip-rule="evenodd" fill="#A0C4DC" d="M186.899,54.621c-1.424,1.063-2.847,2.126-5.313,3.969
		c1.104-2.757,1.784-4.456,2.453-6.128c-2.705-1.359-2.931,1.881-4.733,1.961c-0.995-0.894-0.094-1.56,0.341-2.197
		c2.03-2.975,1.576-2.435-0.661-4.423c-1.599-1.417-1.724-4.497-2.504-6.837c3.365,0.063,5.148,2.873,7.661,4.417
		C185.063,48.461,185.98,51.541,186.899,54.621z"/>
	<path fill-rule="evenodd" clip-rule="evenodd" fill="#5FB4E0" d="M177.853,64.74c1.861-3.581,5.328-3.86,8.739-4.248
		c0.167,0.494,0.334,0.988,0.502,1.483c-0.617,1.508-1.865,2.374-3.206,3.141C181.839,65.582,179.678,67.833,177.853,64.74z"/>
	<path fill-rule="evenodd" clip-rule="evenodd" fill="#2C4F92" d="M183.732,63.775c1.119-0.6,2.241-1.199,3.361-1.799
		c-0.04,0.985-0.08,1.971-0.12,2.953c-1.849,2.237-4.578,2.579-7.133,3.298C178.836,64.732,183.143,65.878,183.732,63.775z"/>
	<path fill-rule="evenodd" clip-rule="evenodd" fill="#5394BE" d="M160.444,92.56c0.146-1.09,0.294-2.182,0.439-3.276
		c2.895,1.971,3.028,6.753,7.375,7.248c0.707,1.588,0.441,2.888-1.13,3.8c-1.607-0.948-3.218-1.897-4.824-2.845
		C161.682,95.844,161.064,94.202,160.444,92.56z"/>
	<path fill-rule="evenodd" clip-rule="evenodd" fill="#457EC0" d="M230.635,220.222c-2.309,0.805-4.513,1.759-5.742,4.079
		c-1.657,0.481-3.124-0.104-4.57-0.813c0.089-2.769,0.758-5.205,3.635-6.388c0.072,1.218-1.146,2.91,0.18,3.557
		c1.997,0.978,2.552-1.963,4.257-2.262c1.132-0.063,2.089,0.182,2.505,1.399L230.635,220.222z"/>
	<path fill-rule="evenodd" clip-rule="evenodd" fill="#4075B4" d="M237.465,212.737c-1.029,0.835-2.06,1.67-3.089,2.502
		c-1.108-0.47-2.294,0.985-3.376-0.136c0.98-2.79,4.26-2.46,5.903-4.352C237.093,211.412,237.279,212.073,237.465,212.737z"/>
	<path fill-rule="evenodd" clip-rule="evenodd" fill="#254C8E" d="M231,215.104c1.139-0.266,2.285-0.753,3.376,0.136
		c-0.607,0.461-1.216,0.92-1.82,1.383c-1.476,0.576-0.958,2.195-1.659,3.174c-0.832-0.468-1.668-0.935-2.502-1.401
		C229.263,217.3,230.131,216.202,231,215.104z"/>
	<path fill-rule="evenodd" clip-rule="evenodd" fill="#24437E" d="M128.164,228.834c1.563,2.393,1.897,5.582,4.644,7.219
		c0.924,2.18,3.225,2.403,4.935,3.471c2.222,1.993,5.278,3.238,5.94,6.627c-2.287,0.513-3.54-1.865-5.596-1.999
		c-4.399-3.12-8.801-6.241-13.2-9.364C123.581,231.482,125.55,229.979,128.164,228.834z"/>
	<path fill-rule="evenodd" clip-rule="evenodd" fill="#5696CF" d="M214.008,247.165c-1.156,0.705-2.312,1.412-3.469,2.118
		c-3.56-0.729-7.329-0.749-10.399-3.11c0.144-0.512,0.438-0.923,0.855-1.25c0.48-0.228,0.982-0.286,1.503-0.177
		C206.112,246.607,210.145,246.484,214.008,247.165z"/>
	<path fill-rule="evenodd" clip-rule="evenodd" fill="#4D8BC4" d="M206.922,238.766c0.549-0.351,1.099-0.701,1.646-1.05
		c1.814-0.647,3.123,0.792,4.695,1.137c-0.249,0.633-0.501,1.267-0.752,1.898C210.453,240.641,208.6,239.948,206.922,238.766z"/>
	<path fill-rule="evenodd" clip-rule="evenodd" fill="#B3E5F4" d="M202.498,244.746c-0.36,0.253-0.705,0.525-1.035,0.817
		c-1.773-0.229-3.809-0.195-3.015-3.002c0.326-0.283,0.703-0.462,1.128-0.538c1.522,1.449,3.162-0.888,4.699,0.145
		C203.684,243.028,203.09,243.888,202.498,244.746z"/>
	<path fill-rule="evenodd" clip-rule="evenodd" fill="#3668AF" d="M200.886,197.525c-0.639-0.19-1.277-0.38-1.915-0.569
		c4.654-4.374,3.117-11.068,6.032-16.094c0.884,0.361,1.237,1.013,1.058,1.951c-0.101,0.988-0.202,1.977-0.302,2.964
		c-0.209,1.546,0.705,2.464,1.839,3.257c0.388,0.415,0.595,0.908,0.628,1.474c-0.184,0.562-0.556,0.905-1.147,0.989
		c-1.379,1.568-2.758,3.136-4.136,4.702C202.257,196.641,201.572,197.082,200.886,197.525z"/>
	<path fill-rule="evenodd" clip-rule="evenodd" fill="#3666B0" d="M207.896,186.592c2.394-3.204,4.866-6.364,6.028-10.294
		c1.413-1.47,2.91-1.454,4.472-0.247c0.102,6.067-4.913,9.041-7.971,13.206c-0.912,0.563-1.861,0.8-2.886,0.318l0.098,0.054
		C206.166,188.485,207.126,187.547,207.896,186.592z"/>
	<path fill-rule="evenodd" clip-rule="evenodd" fill="#387BC6" d="M206.061,182.813c-0.352-0.648-0.703-1.296-1.057-1.948
		c1.379-3.228,1.229-7.311,5.114-9.131C208.766,175.428,207.415,179.121,206.061,182.813z"/>
	<path fill-rule="evenodd" clip-rule="evenodd" fill="#649FD5" d="M218.16,175.725c-1.412,0.19-2.825,0.383-4.235,0.573
		c-0.355-2.11-0.308-4.126,1.342-5.769c0.254,0.094,0.511,0.181,0.77,0.264c1.045,0.586,1.212,1.728,1.714,2.662
		c0.279,0.461,0.461,0.96,0.577,1.486C218.271,175.201,218.218,175.463,218.16,175.725z"/>
	<path fill-rule="evenodd" clip-rule="evenodd" fill="#85C1E7" d="M207.896,186.592c-0.086,1.012-0.173,2.025-0.259,3.037
		c-4.697,0.705-2.864-1.78-1.879-3.85C206.47,186.048,207.182,186.321,207.896,186.592z"/>
	<path fill-rule="evenodd" clip-rule="evenodd" fill="#ACEDF2" d="M175.323,173.746c0.509-2.498,2.844-2.81,4.584-3.832
		c1.584-0.185,3.071-1.395,4.761-0.438C182.042,171.972,178.723,172.947,175.323,173.746z"/>
	<path fill-rule="evenodd" clip-rule="evenodd" fill="#9FCBE6" d="M209.911,188.409c2.119-4.637,6.649-7.707,8.248-12.685
		c0.001,0-0.064,0.072-0.064,0.072c0.142-0.48,0.381-0.716,0.72-0.714c0.329,0,0.525,0.059,0.579,0.181
		c1.803,1.01,3.241-0.294,4.814-0.755c-0.252,4.894-2.123,9.158-5.065,13.009C216.177,188.972,213.22,190.505,209.911,188.409z"/>
	<path fill-rule="evenodd" clip-rule="evenodd" fill="#BAEFFD" d="M209.911,188.409c3.077-0.297,6.152-0.595,9.231-0.893
		c-0.352,0.708-0.704,1.416-1.056,2.125c-3.738,0.235-6.598,5.656-11.009,1.855c0.154-0.64,0.306-1.281,0.462-1.922
		C208.329,189.187,209.12,188.798,209.911,188.409z"/>
	<path fill-rule="evenodd" clip-rule="evenodd" fill="#3460A6" d="M182.209,167.564c-0.74-0.52-1.477-1.041-2.215-1.562
		c0.053-0.842,0.499-1.228,1.341-1.158c1.853-1.882,4.236-3.391,4.49-6.395c0.857-0.37,2.414,0.726,2.522-1.208
		c1.385-1.266,2.766-2.531,4.148-3.796c0.45,0.898,0.897,1.797,1.346,2.695C190.592,160.587,186.648,164.327,182.209,167.564z"/>
	<path fill-rule="evenodd" clip-rule="evenodd" fill="#579FC9" d="M181.852,82.875c-0.443,1.214-0.885,2.432-1.328,3.647
		c-1.672,0.609-3.341,1.213-5.01,1.816c0.005-0.882,0.007-1.757,0.008-2.636c0.123-0.355,0.244-0.709,0.361-1.067
		C177.499,82.781,179.357,81.749,181.852,82.875z"/>
	<path fill-rule="evenodd" clip-rule="evenodd" fill="#1A3675" d="M173.271,84.89c-0.035-0.422-0.025-0.844,0.029-1.265
		c-0.109-1.757-1.24-3.897,1.69-4.518c0.661,0.048,1.185,0.341,1.58,0.871c1.647,2.281,0.479,4.025-1.093,5.692l0.043,0.035
		C174.772,85.432,174.021,85.162,173.271,84.89z"/>
	<path fill-rule="evenodd" clip-rule="evenodd" fill="#4D85C5" d="M198.448,242.562c1.003,1.002,2.009,2.002,3.014,3.004
		c-0.44,0.202-0.882,0.404-1.322,0.607c-1.49,0.159-2.881,0.061-3.714-1.457C197.101,243.997,197.773,243.279,198.448,242.562z"/>
	<path fill-rule="evenodd" clip-rule="evenodd" fill="#315E99" d="M175.909,79.357c-2.252,0.578-1.922,2.735-2.61,4.267
		c-1.884-2.643-3.769-5.285-5.652-7.924c-0.261-1.449-1.381-2.775-0.626-4.372c3.311,0.167,4.178,3.876,6.974,4.78
		c0.824,0.273,1.48,0.804,2.129,1.352l0.505,0.308C176.793,78.483,176.554,79.013,175.909,79.357z"/>
	<path fill-rule="evenodd" clip-rule="evenodd" fill="#77BCE3" d="M119.941,135.213c-0.663-1.654-0.96-3.29,0.262-4.845
		c1.664,1.839,3.373,3.643,4.958,5.548c0.416,0.5,1.329,1.644-0.459,1.625c-0.64-0.008-1.276-0.459-1.914-0.711
		C121.838,136.292,120.89,135.752,119.941,135.213z"/>
	<path fill-rule="evenodd" clip-rule="evenodd" fill="#23427D" d="M128.872,187.329c1.299-0.514,2.597-1.027,3.896-1.539
		c1.195,0.864,1.694-0.431,2.492-0.799c0.828,1.454,1.658,2.907,2.487,4.359c0.12,1.083,0.69,2.199-0.215,3.214
		c-2.307-3.426-7.153-1.559-9.635-4.622C128.251,187.784,128.577,187.578,128.872,187.329z"/>
	<path fill-rule="evenodd" clip-rule="evenodd" fill="#66B2E4" d="M174.433,76.898c-4.765,1.198-4.806-3.893-7.411-5.569
		c-0.406-1.914-2.07-3.661-0.787-5.805c-0.001,0-0.007-0.004-0.007-0.004c3.55,2.452,7.268,4.749,8.619,9.25
		C174.879,75.51,174.736,76.221,174.433,76.898z"/>
	<path fill-rule="evenodd" clip-rule="evenodd" fill="#64BAE5" d="M174.017,55.854c1.447,2.822,2.092,5.735,0.979,8.839
		c-3.88-0.036-3.813-2.997-4.18-5.637c-0.255-0.534-0.509-1.065-0.766-1.6c-0.178-0.393-0.286-0.803-0.323-1.232
		c2.637-0.598-0.061-2.979,1.34-3.995c0.597-0.364,1.203-0.388,1.827-0.077C173.557,53.302,174.413,54.388,174.017,55.854z"/>
	<path fill-rule="evenodd" clip-rule="evenodd" fill="#4178AF" d="M174.125,75.677c-1.548-4.227-5.569-6.533-7.897-10.158
		c0.861-1.039,0.485-2.179,0.271-3.306c3.411,1.58,3.155,7.987,8.774,6.662C176.212,71.366,176.551,73.755,174.125,75.677z"/>
	<path fill-rule="evenodd" clip-rule="evenodd" fill="#293A80" d="M174.125,75.677c0.384-2.267,0.765-4.534,1.148-6.802
		c-0.1-0.425-0.244-0.834-0.437-1.229c-0.01-0.692,0.216-1.294,0.71-1.79c0.391-0.187,0.783-0.371,1.18-0.552
		c2.449,1.147,1.197,2.8,0.602,4.368c0.127,1.399,0.257,2.801,0.385,4.202c-0.53,1.197-1.059,2.393-1.59,3.591
		c-0.565-0.19-1.127-0.377-1.69-0.564C174.241,76.515,174.141,76.108,174.125,75.677z"/>
	<path fill-rule="evenodd" clip-rule="evenodd" fill="#3270AD" d="M175.547,65.856c-0.237,0.598-0.473,1.195-0.71,1.79
		c-2.625-2.263-5.74-4.297-4.021-8.593c1.329,1.928,1.372,4.808,4.18,5.639C175.177,65.082,175.36,65.469,175.547,65.856z"/>
	<path fill-rule="evenodd" clip-rule="evenodd" fill="#72A9DC" d="M197.602,140.954c1.516,2.275-0.907,4.465-0.15,6.729
		c-1.368,1.827-1.817-1.252-2.975-0.555C194.614,144.612,194.932,142.187,197.602,140.954z"/>
	<path fill-rule="evenodd" clip-rule="evenodd" fill="#1E3B84" d="M205.124,141.744c-1.062,1.736-2.122,3.472-3.184,5.21
		c-0.688-0.328-1.379-0.657-2.068-0.986c0.785-1.442,1.568-2.883,2.354-4.324C203.201,141.356,204.186,140.877,205.124,141.744z"/>
	<path fill-rule="evenodd" clip-rule="evenodd" fill="#377AB3" d="M174.017,55.854c-0.609-1.21-1.216-2.419-1.825-3.631
		c-3.433-2.008-4.646-5.013-3.969-8.863c0.307-0.419,0.611-0.836,0.915-1.25c1.853,3.836,3.707,7.671,5.564,11.501
		C174.473,54.357,174.244,55.107,174.017,55.854z"/>
	<path fill-rule="evenodd" clip-rule="evenodd" fill="#1D3A70" d="M153.861,255.105c-2.615-1.343-5.229-2.688-7.845-4.034
		c-2.106-1.021-2.748-2.754-2.41-4.962c0.431-0.175,0.858-0.354,1.289-0.527c2.129,1.624,4.258,3.251,6.385,4.881
		c1.733,0.159,3.467,0.317,5.198,0.477c0.33,1.811,2.113,2.052,3.242,3.003c0.131,0.437,0.259,0.876,0.391,1.314
		C157.914,259.928,155.946,255.1,153.861,255.105z"/>
	<path fill-rule="evenodd" clip-rule="evenodd" fill="#B2E2F5" d="M217.393,174.435c-2.178-0.568-0.778-2.479-1.359-3.642
		c0.738-1.428,1.475-2.856,2.21-4.288c1.251-0.871,2.502-1.191,3.746,0.015C221.534,169.783,220.426,172.668,217.393,174.435z"/>
	<path fill-rule="evenodd" clip-rule="evenodd" fill="#4775BC" d="M217.393,174.435c1.53-2.638,3.061-5.278,4.594-7.917
		c0.381,0.175,0.759,0.351,1.136,0.521c0.202,3.397-2.673,5.397-3.729,8.223c-0.434,0.177-0.865,0.356-1.299,0.533
		C217.862,175.343,217.627,174.889,217.393,174.435z"/>
	<path fill-rule="evenodd" clip-rule="evenodd" fill="#3270AD" d="M177.328,69.672c-0.2-1.456-0.4-2.913-0.602-4.368
		c0.375-0.191,0.75-0.379,1.127-0.564c2.247,1.439,3.911-0.682,5.877-0.966c-0.349,2.314-3.648,2.049-3.891,4.455
		C179.003,68.708,178.167,69.189,177.328,69.672z"/>
	<path fill-rule="evenodd" clip-rule="evenodd" fill="#305FA6" d="M193.448,115.361c1.198-0.542,2.397-1.084,3.594-1.624
		c1.468-1.772,3.018-3.351,5.64-2.34c-0.016,0.336-0.046,0.672-0.093,1.003c-2.296,1.366-5.31,2.168-4.65,5.877
		c-0.981,0.262-1.962,0.522-2.944,0.781c-0.711-0.719-1.536-1.298-2.322-1.924C192.931,116.542,193.19,115.952,193.448,115.361z"/>
	<path fill-rule="evenodd" clip-rule="evenodd" fill="#5FC2EB" d="M175.909,79.357c0.237-0.531,0.479-1.06,0.719-1.589
		c2.728-0.87,5.452-1.74,8.18-2.614c0.287,1.712-1.517,2.303-1.953,3.631c-1.426,3.318-3.628,3.938-6.595,1.901
		C176.155,80.239,176.038,79.796,175.909,79.357z"/>
	<path fill-rule="evenodd" clip-rule="evenodd" fill="#315E99" d="M176.26,80.687c2.499,0.411,4.589-0.603,6.595-1.899
		c0.051,1.14,0.101,2.278,0.15,3.421c-0.367,0.249-0.753,0.471-1.152,0.664c-2.126,0.935-4.25,1.866-6.375,2.796
		C175.739,84.008,175.999,82.347,176.26,80.687z"/>
	<path fill-rule="evenodd" clip-rule="evenodd" fill="#8AD7F7" d="M171.113,52.566c0.163,1.47,1.853,2.601,1.004,4.196
		c-0.104,0.19-1.561-0.341-2.39-0.538c-1.43-2.975-2.861-5.949-4.291-8.923c0.265-0.57,0.53-1.14,0.795-1.709
		C170.98,45.734,169.853,49.986,171.113,52.566z"/>
	<path fill-rule="evenodd" clip-rule="evenodd" fill="#244383" d="M202.682,111.397c-1.88,0.779-3.758,1.561-5.636,2.34
		c-0.02-0.418-0.073-0.833-0.164-1.241c1.188-1.652,2.377-3.306,3.565-4.959c1.25-0.599,2.502-1.196,3.751-1.795
		c0.68-0.182,1.363-0.366,2.049-0.548C205.108,107.289,205.439,110.23,202.682,111.397z"/>
	<path fill-rule="evenodd" clip-rule="evenodd" fill="#5BA0D1" d="M171.113,52.566c-1.759-2.23-1.532-5.854-4.882-6.972
		c0.112-1.239,0.95-1.831,1.994-2.237c1.322,2.955,2.646,5.909,3.969,8.863C171.833,52.334,171.472,52.45,171.113,52.566z"/>
	<path fill-rule="evenodd" clip-rule="evenodd" fill="#203D78" d="M171.739,224.196c-0.847-0.624-1.694-1.249-2.542-1.871
		c-1.13-1.339-2.838-1.119-4.272-1.644c-1.746-0.639-3.686-1.514-1.022-3.551c3.527-1.831,4.769,1.94,7.153,2.914
		c1.82,0.597,2.277,1.889,1.845,3.628C172.508,223.833,172.122,224.009,171.739,224.196z"/>
	<path fill-rule="evenodd" clip-rule="evenodd" fill="#242E70" d="M157.196,209.833c-0.045-0.427-0.203-0.882-0.109-1.277
		c0.149-0.616,0.57-1.351,1.106-0.329c1.003,1.905,1.838,3.899,2.745,5.856C158.458,213.753,158.417,211.274,157.196,209.833z"/>
	<path fill-rule="evenodd" clip-rule="evenodd" fill="#55A0CF" d="M172.901,223.673c-0.614-1.21-1.231-2.42-1.847-3.629
		c-0.93-3.154-1.858-6.309-2.789-9.465c0.204-0.591,0.413-1.183,0.618-1.774c1.467,1.247,2.939,2.49,4.406,3.732
		c0.515,1.894,1.034,3.785,1.553,5.677C173.873,219.92,175.742,222.634,172.901,223.673z"/>
	<path fill-rule="evenodd" clip-rule="evenodd" fill="#1E3C85" d="M140.507,198.659c3.37-4.523,5.861-3.19,7.895,1.183
		c-0.208,0.589-0.418,1.179-0.629,1.77C145.641,199.918,143.717,197.706,140.507,198.659z"/>
	<path fill-rule="evenodd" clip-rule="evenodd" fill="#5B99C9" d="M181.335,164.844c-0.448,0.385-0.896,0.769-1.343,1.155
		c-0.873,0.261-1.746,0.519-2.619,0.775c1.966-6.171,3.232-12.63,7.389-18.84C185.25,154.546,179.691,158.926,181.335,164.844z"/>
	<path fill-rule="evenodd" clip-rule="evenodd" fill="#72A9DC" d="M200.758,131.828c0.619-0.19,1.239-0.377,1.861-0.566
		c-1.467,3.331-2.222,7.029-5.012,9.676C196.455,137.139,198.86,134.571,200.758,131.828z"/>
	<path fill-rule="evenodd" clip-rule="evenodd" fill="#27427B" d="M177.477,134.027c-0.142-1.549-0.282-3.101-0.423-4.65
		c1.193-0.712,2.387-1.424,3.582-2.135c2.519-0.594,4.644-0.614,4.334,2.947c-1.38,0.333-2.938-1.079-4.196,0.433
		C179.179,131.277,181.237,135.47,177.477,134.027z"/>
	<path fill-rule="evenodd" clip-rule="evenodd" fill="#27427B" d="M172.966,137.062c-0.555-2.138-0.56-3.704,2.341-2.253
		c0.883,1.891-0.003,2.696-1.802,2.943C173.315,137.527,173.137,137.298,172.966,137.062z"/>
	<path fill-rule="evenodd" clip-rule="evenodd" fill="#1F216C" d="M192.67,117.136c1.754-0.545,2.939-0.4,2.325,1.922
		c-1.479,0.914-2.957,1.827-4.435,2.741c-0.515,0.117-1.03,0.236-1.546,0.354c-0.215-0.197-0.431-0.394-0.646-0.589
		c-0.193-2.411,2.6-2.006,3.335-3.541C191.942,117.635,192.265,117.34,192.67,117.136z"/>
	<path fill-rule="evenodd" clip-rule="evenodd" fill="#274686" d="M184.97,130.19c-0.586-2.242-2.92-1.917-4.334-2.947
		c-0.023-1.381-0.044-2.763-0.067-4.144c0.335-0.149,0.638-0.347,0.91-0.593c0.86,3.197,2.544,1.803,4.165,0.747
		c1.017-0.719,1.964-1.633,3.385-1.288c0,0-0.014,0.186-0.014,0.188c0.445,0.926,0.871,1.849-0.063,2.741
		c-1.353,1.069-1.294,2.287-0.382,3.595C188.226,130.861,186.587,130.504,184.97,130.19z"/>
	<path fill-rule="evenodd" clip-rule="evenodd" fill="#B4ECF5" d="M188.569,128.487c-1.266,0.519-2.77,0.989-2.699-1.075
		c0.055-1.597,0.351-3.785,3.081-2.518c0.772,1.098,1.91,0.799,2.975,0.774C191.45,127.372,189.714,127.578,188.569,128.487z"/>
	<path fill-rule="evenodd" clip-rule="evenodd" fill="#5594C8" d="M166.381,165.658c1.358,0.447,2.417,1.318,2.012,2.804
		c-0.494,1.82-2.104,0.84-3.271,0.919c-0.147-0.44-0.297-0.879-0.443-1.318C165.692,167.575,166.337,166.83,166.381,165.658z"/>
	<path fill-rule="evenodd" clip-rule="evenodd" fill="#33508E" d="M189.028,121.964c-1.126,0.429-2.255,0.857-3.385,1.288
		c0.364-1.077,0.729-2.151,1.094-3.228c0.82-0.417,1.639-0.832,2.457-1.249c0.836-0.251,1.672-0.501,2.51-0.752
		C190.813,119.337,189.923,120.65,189.028,121.964z"/>
	<path fill-rule="evenodd" clip-rule="evenodd" fill="#4170C0" d="M207.065,221.788c0.525,0.216,1.05,0.434,1.576,0.65
		c0.452,3.573-3.042,6.994-0.413,10.655c-1.037,0.13-2.074,0.26-3.111,0.391C205.275,229.503,205.503,225.533,207.065,221.788z"/>
	<path fill-rule="evenodd" clip-rule="evenodd" fill="#1F4086" d="M220.322,223.487c1.739-0.941,3.229-0.49,4.57,0.813
		c0.042,1.329-0.883,1.859-1.907,2.309c-0.964,0.066-1.931,0.132-2.894,0.196c-0.24-0.472-0.478-0.944-0.716-1.416
		C219.69,224.757,220.007,224.122,220.322,223.487z"/>
</g>
</svg>
