<?xml version="1.0" encoding="utf-8"?>
<!-- Generator: Adobe Illustrator 16.0.0, SVG Export Plug-In . SVG Version: 6.00 Build 0)  -->
<!DOCTYPE svg PUBLIC "-//W3C//DTD SVG 1.1//EN" "http://www.w3.org/Graphics/SVG/1.1/DTD/svg11.dtd">
<svg version="1.1" id="Layer_1" xmlns="http://www.w3.org/2000/svg" xmlns:xlink="http://www.w3.org/1999/xlink" x="0px" y="0px"
	 width="350px" height="350px" viewBox="0 0 350 350" enable-background="new 0 0 350 350" xml:space="preserve">
<g>
	<g>
		<path fill="#ABAF59" d="M158.927,213.196c-10.602-3.042-21.054,2.465-30.24,7.304c-6.65,3.503-15.761,8.305-20.288,17.204
			c-8.742,17.193,9.521,30.229-0.474,48.261c-3.475,6.264-8.72,10.178-7.775,10.882c1.343,1.002,10.603-7.857,27.598-17.074
			c17.157-9.297,23.284-8.709,35.104-17.756c7.073-5.414,12.2-9.337,14.187-16.063C180.604,233.882,172.751,217.162,158.927,213.196
			z"/>
		<path fill="#5E5B2F" d="M123.966,278.278c0.651,0.164,0.832-2.905,4.341-5.101c1.833-1.15,3.999-1.598,8.324-2.492
			c4.58-0.946,5.238-0.66,6.456-1.51c2.31-1.615,1.127-3.494,2.956-5.904c2.929-3.86,9.46-3.651,9.265-4.322
			c-0.236-0.812-9.832-1.617-12.691,2.031c-1.117,1.426-0.262,2.33-1.654,3.643c-1.636,1.546-3.666,1.093-8.372,2.306
			c-3.066,0.792-4.63,1.195-6.031,2.228C122.491,272.156,123.08,278.059,123.966,278.278z"/>
		<path fill="#D4D8A0" d="M156.591,214.366c-4.125-1.385-10.461,2.91-23.136,11.496c-9.778,6.627-14.667,9.94-16.478,13.6
			c-4.003,8.085,2.033,11.698,1.104,26.2c-0.668,10.474-4.457,18.563-3.257,18.925c1.362,0.412,3.68-10.812,14.284-14.11
			c4.428-1.378,6.167-0.088,9.76-2.039c5.693-3.091,4.023-7.819,9.328-10.165c4.435-1.955,7.308,0.628,11.071-1.147
			c2.687-1.271,4.923-4.366,4.135-17.38C162.472,224.378,161.977,216.173,156.591,214.366z"/>
		<path fill="#5E5B2F" d="M155.314,213.994c-6.32-0.339-9.637,3.982-17.698,9.13c-8.495,5.429-9.938,3.886-14.771,8.125
			c-6.051,5.305-8.92,12.209-7.316,13.215c1.914,1.202,7.844-7.519,19.397-8.941c2.176-0.271,5.422-0.389,8.372-2.305
			c3.045-1.981,3.474-4.383,4.814-4.199c0.587,0.08,1.576,0.691,3.545,8.227c1.406,5.377,1.563,7.594,2.472,7.717
			c1.451,0.202,3.283-5.155,3.476-5.714c1.908-5.576,1.18-9.59,2.221-9.656c0.771-0.05,1.883,2.104,2.389,3.755
			c0.736,2.405,0.366,4.341,0.289,4.762c-0.866,4.739-0.358,13.076,0.856,13.334c1.961,0.414,11.142-19.213,4.635-29.428
			c-1.047-1.647-3.444-5.413-8.446-7.163C158.657,214.538,157.111,214.092,155.314,213.994z"/>
		<path fill="#615C2F" d="M124.584,266.601l-0.646-0.728c5.236-2.994,9.434-6.657,12.479-10.892
			c2.961-4.124,3.968-7.594,5.128-11.609c0.622-2.146,1.264-4.365,2.264-6.961c2.624-6.812,6.701-13.378,12.116-19.513l0.873,0.546
			c-5.354,6.068-9.381,12.557-11.977,19.286c-0.988,2.567-1.627,4.771-2.243,6.904c-1.182,4.08-2.203,7.604-5.241,11.832
			C134.223,259.798,129.933,263.545,124.584,266.601z"/>
		<path fill="#615C2F" d="M148.324,254.675l-0.526-0.65c1.109-0.543,1.809-1.21,2.079-1.979c0.43-1.208-0.313-2.312-1.34-3.84
			c-0.719-1.069-1.537-2.284-2.105-3.803c-0.748-2.003-0.904-4.172-0.46-6.448l0.925,0.165c-0.42,2.165-0.277,4.222,0.432,6.112
			c0.538,1.439,1.329,2.616,2.026,3.651c1.051,1.563,1.958,2.912,1.427,4.413C150.447,253.239,149.619,254.038,148.324,254.675z"/>
		<path fill="#615C2F" d="M121.984,256.181l-0.418-0.694c1.683-0.58,3.305-1.279,4.824-2.069c4.361-2.273,7.058-4.892,8.276-6.247
			c1.9-2.117,3.362-4.481,4.347-7.027l0.898,0.268c-1.014,2.618-2.518,5.049-4.471,7.224c-1.255,1.4-4.029,4.091-8.504,6.424
			C125.375,254.87,123.71,255.584,121.984,256.181z"/>
	</g>
	<g>
		<path fill="#ABAF59" d="M117.117,208.438c-7.058-4.382-15.767-2.534-23.418-0.912c-5.539,1.173-13.131,2.782-18.237,8.303
			c-9.868,10.668,0.697,23.866-10.252,34.883c-3.804,3.828-8.406,5.59-7.868,6.294c0.769,1.001,9.297-3.52,23.511-6.709
			c14.342-3.221,18.663-1.537,29.085-5.667c6.239-2.471,10.762-4.262,13.583-8.729C128.582,227.883,126.322,214.15,117.117,208.438z
			"/>
		<path fill="#5E5B2F" d="M78.416,248.436c0.438,0.252,1.2-1.934,4.194-2.809c1.564-0.454,3.224-0.336,6.547-0.097
			c3.512,0.253,3.93,0.598,4.985,0.232c2.006-0.696,1.536-2.301,3.356-3.673c2.915-2.198,7.605-0.704,7.603-1.232
			c-0.004-0.636-6.794-3.189-9.616-1.132c-1.104,0.805-0.669,1.634-1.946,2.302c-1.504,0.784-2.882,0.037-6.54-0.048
			c-2.387-0.058-3.603-0.086-4.83,0.376C78.601,243.696,77.819,248.093,78.416,248.436z"/>
		<path fill="#D4D8A0" d="M115.184,208.808c-2.705-1.851-8.18-0.039-19.13,3.585c-8.447,2.794-12.671,4.192-14.734,6.472
			c-4.56,5.04-0.93,8.898-4.578,19.218c-2.638,7.455-7.042,12.542-6.247,13.049c0.904,0.578,4.889-7.081,13.25-7.297
			c3.494-0.089,4.49,1.206,7.493,0.527c4.761-1.071,4.522-4.843,8.85-5.452c3.614-0.51,5.167,1.956,8.259,1.439
			c2.21-0.37,4.462-2.152,6.564-11.75C117.393,217.271,118.716,211.223,115.184,208.808z"/>
		<path fill="#5E5B2F" d="M114.335,208.275c-4.51-1.545-7.802,0.908-14.703,2.985c-7.271,2.19-8,0.775-12.375,2.856
			c-5.476,2.602-8.972,7.018-8.017,8.076c1.141,1.264,7.23-3.839,15.896-2.5c1.633,0.254,4.009,0.832,6.541,0.048
			c2.615-0.81,3.419-2.463,4.352-2.054c0.409,0.179,1,0.823,0.882,6.69c-0.084,4.186-0.428,5.822,0.207,6.1
			c1.011,0.444,3.44-3.063,3.693-3.428c2.528-3.649,2.824-6.708,3.591-6.543c0.57,0.122,0.933,1.911,0.961,3.211
			c0.039,1.895-0.627,3.223-0.768,3.513c-1.6,3.255-2.945,9.403-2.117,9.839c1.339,0.704,12.02-11.639,9.402-20.378
			c-0.421-1.408-1.389-4.63-4.651-6.928C116.646,209.354,115.617,208.713,114.335,208.275z"/>
		<path fill="#615C2F" d="M81.262,240.099l-0.322-0.661c4.411-1.095,8.207-2.89,11.282-5.334c2.994-2.381,4.435-4.69,6.101-7.36
			c0.891-1.428,1.812-2.903,3.07-4.58c3.303-4.399,7.605-8.322,12.788-11.657l0.52,0.575c-5.125,3.299-9.377,7.175-12.638,11.521
			c-1.246,1.657-2.161,3.123-3.045,4.541c-1.694,2.715-3.156,5.061-6.226,7.502C89.646,237.146,85.765,238.979,81.262,240.099z"/>
		<path fill="#615C2F" d="M100.916,236.326l-0.245-0.579c0.912-0.166,1.557-0.505,1.912-1.008c0.558-0.787,0.248-1.74-0.185-3.059
			c-0.303-0.924-0.645-1.971-0.745-3.188c-0.132-1.605,0.203-3.208,0.988-4.768l0.639,0.31c-0.751,1.483-1.068,3.003-0.942,4.519
			c0.095,1.153,0.426,2.168,0.718,3.063c0.442,1.347,0.822,2.513,0.127,3.49C102.75,235.72,101.987,236.131,100.916,236.326z"/>
		<path fill="#615C2F" d="M81.516,232.011l-0.161-0.588c1.338-0.076,2.657-0.249,3.92-0.51c3.627-0.752,6.119-2.098,7.283-2.831
			c1.81-1.143,3.356-2.556,4.593-4.199l0.597,0.377c-1.274,1.689-2.862,3.145-4.725,4.318c-1.196,0.756-3.759,2.14-7.482,2.91
			C84.243,231.757,82.889,231.933,81.516,232.011z"/>
	</g>
	<g>
		<path fill="#ABAF59" d="M148.378,192.577c-2.154,12.347,4.889,23.777,11.075,33.817c4.479,7.27,10.616,17.232,20.686,21.606
			c19.456,8.454,31.57-13.508,52.063-3.699c7.116,3.405,11.89,9.039,12.548,7.899c0.938-1.616-9.591-11.391-21.32-29.948
			c-11.84-18.732-11.854-25.766-22.855-38.44c-6.582-7.585-11.351-13.083-18.81-14.755
			C168.378,166.056,151.189,176.476,148.378,192.577z"/>
		<path fill="#5E5B2F" d="M222.219,226.696c0.105-0.757-3.221-0.694-5.96-4.5c-1.431-1.988-2.144-4.413-3.567-9.267
			c-1.506-5.135-1.262-5.91-2.308-7.224c-1.985-2.489-3.883-0.976-6.676-2.848c-4.472-2.997-4.936-10.46-5.642-10.178
			c-0.849,0.34-0.7,11.345,3.534,14.284c1.657,1.148,2.539,0.093,4.1,1.563c1.84,1.729,1.567,4.084,3.371,9.339
			c1.179,3.426,1.778,5.173,3.039,6.677C215.778,228.917,222.073,227.725,222.219,226.696z"/>
		<path fill="#D4D8A0" d="M149.888,195.137c-1.056,4.822,4.242,11.666,14.839,25.354c8.177,10.559,12.263,15.84,16.398,17.583
			c9.137,3.849,12.393-3.344,28.119-3.564c11.359-0.156,20.476,3.447,20.739,2.051c0.3-1.588-12.041-3.244-16.721-15.036
			c-1.952-4.925-0.744-7.021-3.228-10.945c-3.935-6.215-8.855-3.897-11.941-9.737c-2.578-4.878-0.096-8.38-2.411-12.512
			c-1.654-2.951-5.228-5.229-19.168-3.188C160.053,187.554,151.263,188.839,149.888,195.137z"/>
		<path fill="#5E5B2F" d="M149.619,196.622c0.305,7.23,5.313,10.633,11.716,19.366c6.748,9.204,5.237,10.979,10.318,16.118
			c6.359,6.432,14.103,9.092,15.016,7.177c1.095-2.287-8.933-8.279-11.69-21.318c-0.52-2.456-0.992-6.146-3.369-9.338
			c-2.456-3.294-5.092-3.576-5.035-5.116c0.025-0.676,0.58-1.857,8.49-4.765c5.647-2.075,8.018-2.447,8.056-3.493
			c0.063-1.673-5.904-3.291-6.526-3.459c-6.211-1.686-10.457-0.502-10.642-1.683c-0.135-0.872,2.067-2.33,3.794-3.051
			c2.515-1.05,4.639-0.8,5.103-0.749c5.197,0.57,14.128-0.742,14.276-2.146c0.238-2.275-21.885-11.008-32.204-2.698
			c-1.663,1.339-5.468,4.404-6.824,10.257C149.854,192.766,149.534,194.566,149.619,196.622z"/>
		<path fill="#615C2F" d="M209.567,227.018l-0.717,0.802c-3.78-5.704-8.175-10.166-13.058-13.262
			c-4.759-3.014-8.603-3.854-13.056-4.828c-2.378-0.518-4.836-1.054-7.739-1.966c-7.62-2.394-15.127-6.46-22.313-12.091l0.496-1.043
			c7.106,5.565,14.525,9.588,22.055,11.951c2.87,0.9,5.314,1.435,7.675,1.95c4.522,0.988,8.43,1.84,13.306,4.934
			C201.214,216.63,205.708,221.19,209.567,227.018z"/>
		<path fill="#615C2F" d="M194.199,201.013l-0.644,0.655c-0.701-1.213-1.493-1.952-2.353-2.195c-1.348-0.382-2.46,0.562-3.996,1.867
			c-1.076,0.913-2.299,1.951-3.874,2.733c-2.082,1.03-4.4,1.396-6.902,1.09l0.081-1.068c2.378,0.289,4.579-0.056,6.539-1.029
			c1.496-0.739,2.68-1.745,3.723-2.63c1.573-1.334,2.929-2.487,4.605-2.014C192.429,198.721,193.378,199.592,194.199,201.013z"/>
		<path fill="#615C2F" d="M198.612,230.895l-0.702,0.537c-0.805-1.862-1.726-3.651-2.74-5.312c-2.911-4.77-6.018-7.612-7.611-8.884
			c-2.482-1.979-5.185-3.436-8.031-4.335l0.191-1.047c2.929,0.925,5.707,2.426,8.259,4.461c1.64,1.308,4.836,4.229,7.823,9.126
			C196.842,227.147,197.788,228.981,198.612,230.895z"/>
	</g>
	<g>
		<path fill="#8989C3" d="M95.315,74.459c-1.087-4.044-5.085-9.282-11.384-11.146c-5.296-1.568-12.609-0.866-13.966,2.41
			c-1.033,2.494,2.192,4.525,1.732,8.11c-0.616,4.769-8.412,4.447-9.123,8.38c-0.644,3.579,4.608,8.183,8.907,10.246
			c4.08,1.958,7.376,1.664,7.7,3.263c0.372,1.847-3.94,2.675-5.179,6.537c-1.041,3.249,0.552,7.215,3.084,9.536
			c3.68,3.374,8.622,2.604,9.389,2.473c6.749-1.161,9.166-7.883,11.862-6.916c2.833,1.017,0.577,8.58,4.437,10.964
			c2.876,1.775,7.75-0.19,10.363-2.785c6.229-6.194,3.185-18.448,0.778-18.889c-0.565-0.103-0.792,0.501-5.124,4.453
			c-2.492,2.272-3.23,2.814-4.317,2.875c-1.762,0.099-3.544-1.114-4.452-2.55c-1.418-2.245-0.253-4.33-1.258-4.9
			c-1.542-0.873-4.381,3.945-7.736,3.271c-1.414-0.283-2.804-1.522-3.051-2.86c-0.375-2.029,2.033-3.446,1.442-4.62
			c-0.535-1.066-2.615-0.091-4.271-1.433c-1.093-0.886-1.324-2.333-1.741-5.191c-0.466-3.21-0.702-4.814-0.256-6.056
			c1.393-3.882,6.928-6.33,9.725-4.886c1.603,0.829,2.206,2.886,2.637,2.712C95.911,77.294,95.591,75.488,95.315,74.459z"/>
		<path fill="#8989C3" d="M97.501,73.266c-2.117-0.449-2.146-7.707-2.144-8.26c0.006-3.065,0.01-4.814,1.009-6.646
			c2.224-4.072,7.939-5.923,12.719-5.085c4.869,0.854,9.723,4.665,10.387,9.382c0.502,3.563-2.075,6.761-7.229,13.155
			c-2.699,3.346-5.226,5.778-5.914,5.336c-0.85-0.549,2.302-4.747,0.56-7.981c-0.898-1.668-3.013-2.915-4.863-2.701
			C99.526,70.755,98.851,73.553,97.501,73.266z"/>
		<path fill="#8989C3" d="M109.265,91.097c0.039-1.508,5.511-2.024,5.517-3.609c0.009-1.386-4.178-1.626-4.564-3.526
			c-0.501-2.458,5.778-5.595,6.766-6.078c4.746-2.319,11.098-5.423,15.49-2.093c3.837,2.915,4.092,9.169,2.495,13.415
			c-1.208,3.204-4.105,6.951-8.201,7.777c-0.763,0.153-1.66,0.225-10.084-2.492C110.852,92.609,109.243,91.918,109.265,91.097z"/>
		<path fill="#5E60AB" d="M94.924,81.332c0.603,0.116-0.586,3.984,1.252,5.247c1.693,1.163,5.444-0.24,6.11-2.341
			c0.556-1.757-1.231-3.412-0.876-3.708c0.546-0.458,6.139,2.363,5.806,6.55c-0.301,3.762-5.115,5.22-7.377,5.505
			c-0.917,0.115-4.821,0.607-6.76-1.987C90.412,87.025,94.161,81.185,94.924,81.332z"/>
		<path fill="#5E60AB" d="M70.574,66.018c-0.051,0.211-0.12,0.648,0.378,1.978c0.565,1.514,0.907,1.623,1.248,2.601
			c0.172,0.498,0.564,1.848,0.159,3.368c-0.368,1.372-1.209,2.221-1.675,2.68c-2.012,1.979-4.447,2.155-4.404,2.347
			c0.049,0.203,2.904,0.375,5.315-1.336c1.964-1.393,2.69-3.368,2.958-4.128c0.418-1.185,1.12-3.17,0.232-4.825
			c-0.784-1.465-2.277-1.675-2.193-2.491c0.111-1.053,2.655-1.329,2.586-1.809c-0.056-0.375-1.686-0.721-3.021-0.089
			C71.931,64.42,70.835,64.939,70.574,66.018z"/>
		<path fill="#5E60AB" d="M80.156,96.981c-0.366-0.321-2.284,0.986-3.672,2.743c-0.603,0.767-1.273,1.615-1.588,2.931
			c-0.48,1.993,0.188,3.677,0.628,4.787c0.291,0.734,0.744,1.877,1.772,2.966c2.5,2.647,6.289,2.743,6.373,2.49
			c0.076-0.228-2.743-0.914-2.807-2.291c-0.036-0.768,0.819-1.035,0.753-1.831c-0.092-1.107-1.792-1.236-1.972-2.295
			c-0.208-1.223,1.921-1.854,1.833-3.237c-0.08-1.219-1.775-1.324-2.167-2.846C78.878,98.732,80.512,97.295,80.156,96.981z"/>
		<path fill="#C5C2E1" d="M104.315,105.949c0.01-0.569,1.862-0.423,3.729-1.743c0.54-0.382,0.494-0.47,2.182-2.306
			c2.518-2.734,2.918-2.86,3.167-2.767c0.45,0.169,0.305,1.009,0.589,2.727c0.39,2.37,0.949,2.521,1.273,4.379
			c0.471,2.681-0.195,5.228-0.557,5.234c-0.141,0.001-0.213-0.387-0.829-2.699c-0.717-2.674-0.946-3.38-1.473-3.515
			c-0.642-0.164-1.081,0.688-1.924,0.471c-0.643-0.167-0.654-0.728-1.126-0.76c-0.819-0.056-1.026,1.606-2.348,1.954
			c-0.612,0.161-1.189-0.031-1.421-0.107C105.44,106.771,104.306,106.397,104.315,105.949z"/>
		<path fill="#C5C2E1" d="M111.802,83.22c-0.199-0.746,1.459-1.757,3.996-3.281c4.167-2.501,6.251-3.752,9.393-4.13
			c1.963-0.238,5.101-0.617,7.052,1.332c1.707,1.704,1.854,4.533,1.335,4.781c-0.481,0.229-1.255-1.905-3.874-3.335
			c-0.731-0.4-3.008-1.645-4.881-0.807c-1.012,0.453-0.731,0.992-2.48,2.402c-1.176,0.95-2.12,1.712-3.416,1.769
			c-1.143,0.05-1.601-0.488-2.326-0.113c-0.814,0.418-0.607,1.282-1.372,1.84C114.143,84.471,112.006,83.982,111.802,83.22z"/>
		<path fill="#5E60AB" d="M104.584,105.119c0.013-0.57,1.865-0.423,3.73-1.743c0.539-0.382,0.49-0.47,2.18-2.306
			c2.516-2.734,2.918-2.86,3.168-2.766c0.447,0.169,0.306,1.008,0.586,2.727c0.391,2.37,0.949,2.521,1.273,4.378
			c0.471,2.68-0.195,5.227-0.552,5.234c-0.146,0.002-0.217-0.387-0.833-2.699c-0.717-2.673-0.946-3.379-1.473-3.515
			c-0.642-0.165-1.08,0.688-1.924,0.47c-0.642-0.165-0.654-0.728-1.126-0.76c-0.819-0.055-1.021,1.606-2.348,1.954
			c-0.609,0.16-1.189-0.03-1.422-0.106C105.707,105.94,104.573,105.566,104.584,105.119z"/>
		<path fill="#C5C2E1" d="M102.242,81.298c-0.09,0.088,0.579,0.597,0.773,1.655c0.039,0.21,0.156,0.9-0.132,1.648
			c-0.474,1.23-1.741,1.804-2.014,1.928c-0.903,0.407-1.694,0.387-1.795,0.838c-0.032,0.14,0.007,0.312,0.111,0.419
			c0.438,0.464,1.939-0.324,2.36-0.545c0.712-0.373,1.542-0.81,2.167-1.784c0.315-0.488,0.702-1.093,0.624-1.879
			C104.185,82.042,102.378,81.166,102.242,81.298z"/>
		<path fill="#C5C2E1" d="M65.26,80.615c0.541-0.771,1.856,0.021,3.694-0.354c1.498-0.307,2.641-1.4,4.926-3.588
			c1.819-1.741,2.513-2.769,2.711-2.639c0.273,0.177-0.604,2.404-2.095,4.324c-2.245,2.891-4.843,3.75-5.527,3.955
			c-0.927,0.277-2.778,0.83-3.545-0.06C65.057,81.825,64.94,81.067,65.26,80.615z"/>
		<path fill="#C5C2E1" d="M98.204,69.078c-0.384,0.024-0.789-1.672-0.978-2.458c-0.348-1.451-0.321-2.607-0.301-3.032
			c0.064-1.465,0.416-2.527,0.754-3.525c0.651-1.925,0.978-2.887,1.768-3.742c1.455-1.576,3.511-1.768,5.683-1.97
			c0.749-0.07,5.916-0.499,6.466,1.18c0.252,0.762-0.451,1.94-1.343,2.259c-1.384,0.493-2.477-1.347-3.837-0.867
			c-1.172,0.415-1.004,2.017-2.179,2.305c-1.038,0.254-1.675-0.861-2.593-0.589c-0.857,0.254-1.189,1.493-1.458,2.568
			C98.923,66.242,98.695,69.049,98.204,69.078z"/>
		<path fill="#C5C2E1" d="M97.2,98.084c-0.115-0.11-1.072,1.127-3.209,2.079c-1.014,0.45-1.928,0.843-2.988,0.624
			c-1.327-0.274-2.003-1.328-2.212-1.153c-0.19,0.161,0.171,1.242,0.994,1.851c1.321,0.976,3.229,0.3,3.725,0.125
			C96.074,100.703,97.35,98.229,97.2,98.084z"/>
	</g>
	<g>
		<path fill="#8989C3" d="M244.518,207.897c-1.291-4.803-6.037-11.021-13.518-13.234c-6.289-1.863-14.973-1.029-16.586,2.862
			c-1.227,2.96,2.604,5.372,2.058,9.63c-0.732,5.663-9.99,5.279-10.831,9.949c-0.767,4.249,5.472,9.716,10.573,12.166
			c4.845,2.326,8.761,1.977,9.144,3.874c0.44,2.193-4.679,3.179-6.148,7.763c-1.236,3.856,0.655,8.567,3.661,11.322
			c4.37,4.007,10.239,3.095,11.149,2.938c8.014-1.38,10.884-9.359,14.085-8.211c3.363,1.205,0.686,10.186,5.27,13.016
			c3.417,2.111,9.202-0.226,12.305-3.305c7.401-7.354,3.783-21.903,0.922-22.43c-0.669-0.121-0.937,0.595-6.08,5.289
			c-2.96,2.697-3.837,3.341-5.127,3.412c-2.092,0.117-4.209-1.324-5.285-3.028c-1.685-2.666-0.302-5.143-1.497-5.818
			c-1.829-1.038-5.201,4.685-9.183,3.884c-1.678-0.339-3.33-1.809-3.626-3.398c-0.443-2.408,2.416-4.092,1.714-5.484
			c-0.636-1.265-3.105-0.108-5.071-1.702c-1.297-1.053-1.573-2.771-2.066-6.163c-0.556-3.813-0.833-5.719-0.306-7.19
			c1.655-4.613,8.227-7.518,11.545-5.804c1.905,0.984,2.622,3.426,3.134,3.221C245.224,211.265,244.847,209.118,244.518,207.897z"/>
		<path fill="#8989C3" d="M247.115,206.48c-2.518-0.534-2.55-9.151-2.548-9.807c0.008-3.642,0.012-5.72,1.199-7.894
			c2.641-4.836,9.426-7.036,15.104-6.04c5.78,1.014,11.544,5.539,12.334,11.14c0.595,4.234-2.465,8.029-8.587,15.625
			c-3.203,3.971-6.205,6.858-7.02,6.335c-1.012-0.652,2.732-5.637,0.661-9.479c-1.064-1.979-3.577-3.461-5.772-3.206
			C249.518,203.499,248.717,206.82,247.115,206.48z"/>
		<path fill="#8989C3" d="M261.081,227.651c0.045-1.789,6.544-2.402,6.555-4.282c0.006-1.646-4.964-1.932-5.423-4.188
			c-0.592-2.916,6.862-6.645,8.033-7.217c5.637-2.755,13.181-6.438,18.393-2.484c4.562,3.459,4.86,10.888,2.963,15.927
			c-1.434,3.805-4.873,8.257-9.736,9.235c-0.907,0.182-1.973,0.269-11.975-2.958C262.965,229.451,261.056,228.629,261.081,227.651z"
			/>
		<path fill="#5E60AB" d="M244.053,216.058c0.717,0.138-0.695,4.732,1.487,6.23c2.01,1.381,6.465-0.284,7.255-2.779
			c0.66-2.085-1.459-4.051-1.04-4.403c0.65-0.543,7.29,2.809,6.893,7.777c-0.353,4.469-6.073,6.199-8.756,6.536
			c-1.091,0.139-5.729,0.722-8.028-2.358C238.696,222.818,243.147,215.884,244.053,216.058z"/>
		<path fill="#5E60AB" d="M215.139,197.873c-0.062,0.252-0.143,0.771,0.446,2.352c0.674,1.796,1.078,1.925,1.483,3.087
			c0.204,0.59,0.672,2.192,0.188,3.999c-0.436,1.629-1.434,2.637-1.988,3.183c-2.388,2.35-5.28,2.561-5.228,2.785
			c0.057,0.242,3.446,0.444,6.31-1.586c2.333-1.655,3.195-3.998,3.515-4.902c0.497-1.406,1.329-3.765,0.274-5.729
			c-0.93-1.739-2.703-1.988-2.603-2.958c0.13-1.251,3.151-1.577,3.071-2.148c-0.066-0.445-2.004-0.856-3.589-0.105
			C216.75,195.978,215.447,196.593,215.139,197.873z"/>
		<path fill="#5E60AB" d="M226.515,234.641c-0.433-0.38-2.712,1.171-4.357,3.259c-0.718,0.91-1.513,1.917-1.888,3.479
			c-0.566,2.368,0.224,4.367,0.747,5.684c0.346,0.872,0.883,2.229,2.104,3.523c2.969,3.145,7.468,3.257,7.569,2.956
			c0.089-0.271-3.257-1.086-3.333-2.721c-0.044-0.91,0.97-1.228,0.892-2.174c-0.106-1.313-2.126-1.465-2.341-2.724
			c-0.248-1.452,2.282-2.202,2.175-3.843c-0.093-1.447-2.108-1.573-2.571-3.382C224.999,236.721,226.939,235.014,226.515,234.641z"
			/>
		<path fill="#C5C2E1" d="M255.205,245.291c0.013-0.679,2.213-0.503,4.429-2.072c0.641-0.452,0.584-0.556,2.59-2.736
			c2.99-3.249,3.466-3.397,3.761-3.285c0.531,0.201,0.363,1.199,0.697,3.237c0.467,2.813,1.128,2.993,1.515,5.2
			c0.558,3.182-0.232,6.205-0.658,6.216c-0.171,0.001-0.257-0.461-0.988-3.205c-0.849-3.174-1.123-4.014-1.748-4.174
			c-0.764-0.197-1.282,0.816-2.285,0.558c-0.764-0.196-0.777-0.864-1.338-0.901c-0.972-0.064-1.213,1.906-2.786,2.319
			c-0.726,0.192-1.414-0.037-1.687-0.126C256.541,246.267,255.192,245.82,255.205,245.291z"/>
		<path fill="#C5C2E1" d="M264.094,218.301c-0.237-0.885,1.733-2.089,4.747-3.898c4.95-2.97,7.421-4.455,11.15-4.903
			c2.332-0.281,6.06-0.732,8.379,1.585c2.023,2.02,2.2,5.381,1.582,5.675c-0.574,0.271-1.492-2.263-4.601-3.961
			c-0.866-0.475-3.571-1.951-5.794-0.959c-1.204,0.54-0.869,1.181-2.941,2.853c-1.402,1.129-2.52,2.033-4.061,2.103
			c-1.355,0.059-1.901-0.582-2.763-0.137c-0.966,0.498-0.718,1.521-1.625,2.187C266.875,219.786,264.337,219.206,264.094,218.301z"
			/>
		<path fill="#5E60AB" d="M255.522,244.304c0.016-0.677,2.215-0.503,4.43-2.071c0.641-0.451,0.585-0.558,2.591-2.738
			c2.985-3.246,3.464-3.395,3.76-3.282c0.532,0.199,0.362,1.196,0.698,3.237c0.462,2.813,1.128,2.991,1.515,5.2
			c0.557,3.181-0.233,6.205-0.663,6.214c-0.168,0.002-0.253-0.46-0.988-3.204c-0.849-3.175-1.119-4.013-1.745-4.175
			c-0.763-0.196-1.282,0.817-2.283,0.558c-0.765-0.196-0.778-0.863-1.338-0.9c-0.972-0.064-1.215,1.907-2.786,2.319
			c-0.726,0.192-1.415-0.036-1.691-0.126C256.858,245.279,255.511,244.834,255.522,244.304z"/>
		<path fill="#C5C2E1" d="M252.742,216.02c-0.106,0.105,0.686,0.708,0.918,1.965c0.045,0.25,0.188,1.069-0.154,1.957
			c-0.563,1.462-2.071,2.141-2.394,2.289c-1.07,0.483-2.009,0.461-2.131,0.996c-0.039,0.166,0.011,0.369,0.133,0.498
			c0.52,0.55,2.303-0.386,2.802-0.648c0.843-0.442,1.831-0.962,2.573-2.118c0.37-0.579,0.831-1.301,0.741-2.23
			C255.05,216.901,252.906,215.862,252.742,216.02z"/>
		<path fill="#C5C2E1" d="M208.828,215.207c0.642-0.916,2.203,0.027,4.387-0.42c1.778-0.364,3.135-1.663,5.849-4.263
			c2.16-2.065,2.984-3.287,3.22-3.134c0.324,0.213-0.718,2.857-2.487,5.136c-2.666,3.432-5.751,4.455-6.563,4.697
			c-1.101,0.329-3.299,0.984-4.208-0.071C208.587,216.644,208.449,215.745,208.828,215.207z"/>
		<path fill="#C5C2E1" d="M247.948,201.508c-0.458,0.028-0.938-1.987-1.163-2.92c-0.409-1.723-0.38-3.096-0.355-3.6
			c0.075-1.739,0.492-3.002,0.894-4.187c0.773-2.285,1.159-3.428,2.098-4.443c1.73-1.873,4.169-2.098,6.748-2.339
			c0.891-0.083,7.026-0.593,7.684,1.4c0.297,0.904-0.542,2.305-1.601,2.681c-1.642,0.585-2.94-1.597-4.554-1.027
			c-1.393,0.491-1.193,2.396-2.59,2.738c-1.228,0.302-1.988-1.023-3.076-0.701c-1.019,0.303-1.411,1.772-1.73,3.05
			C248.804,198.14,248.529,201.474,247.948,201.508z"/>
		<path fill="#C5C2E1" d="M246.755,235.951c-0.135-0.131-1.271,1.338-3.81,2.468c-1.203,0.537-2.29,1.004-3.55,0.741
			c-1.574-0.325-2.38-1.576-2.626-1.367c-0.228,0.19,0.201,1.472,1.182,2.196c1.567,1.159,3.832,0.358,4.423,0.148
			C245.418,239.06,246.935,236.122,246.755,235.951z"/>
	</g>
	<g>
		<path fill="#8989C3" d="M84.582,134.727c-0.901-3.352-4.213-7.693-9.435-9.238c-4.389-1.298-10.452-0.717-11.576,1.998
			c-0.858,2.067,1.819,3.752,1.437,6.722c-0.511,3.953-6.973,3.685-7.561,6.944c-0.534,2.967,3.818,6.784,7.38,8.492
			c3.381,1.624,6.115,1.38,6.382,2.705c0.309,1.53-3.266,2.216-4.293,5.418c-0.862,2.692,0.459,5.98,2.558,7.903
			c3.05,2.796,7.146,2.159,7.781,2.05c5.595-0.962,7.597-6.534,9.833-5.731c2.348,0.841,0.478,7.11,3.678,9.085
			c2.382,1.473,6.424-0.155,8.587-2.306c5.164-5.135,2.641-15.291,0.644-15.657c-0.465-0.085-0.654,0.416-4.244,3.691
			c-2.066,1.883-2.678,2.332-3.58,2.384c-1.458,0.08-2.936-0.925-3.688-2.116c-1.176-1.86-0.21-3.587-1.045-4.061
			c-1.276-0.724-3.63,3.269-6.41,2.71c-1.171-0.235-2.323-1.261-2.53-2.372c-0.309-1.681,1.686-2.855,1.197-3.829
			c-0.444-0.882-2.168-0.074-3.541-1.187c-0.906-0.735-1.096-1.934-1.442-4.303c-0.388-2.661-0.58-3.991-0.211-5.019
			c1.155-3.219,5.74-5.246,8.058-4.05c1.329,0.686,1.83,2.392,2.187,2.247C85.077,137.077,84.813,135.579,84.582,134.727z"/>
		<path fill="#8989C3" d="M86.395,133.738c-1.754-0.373-1.777-6.386-1.777-6.845c0.004-2.541,0.009-3.992,0.836-5.511
			c1.845-3.373,6.58-4.909,10.542-4.214c4.035,0.707,8.06,3.867,8.609,7.776c0.415,2.954-1.719,5.604-5.992,10.904
			c-2.236,2.773-4.331,4.789-4.9,4.423c-0.706-0.455,1.909-3.935,0.463-6.615c-0.744-1.382-2.497-2.416-4.031-2.237
			C88.073,131.657,87.515,133.976,86.395,133.738z"/>
		<path fill="#8989C3" d="M96.145,148.516c0.033-1.249,4.566-1.677,4.574-2.989c0.006-1.15-3.462-1.35-3.782-2.924
			c-0.414-2.037,4.786-4.638,5.606-5.037c3.935-1.923,9.199-4.496,12.837-1.735c3.184,2.415,3.394,7.6,2.069,11.118
			c-1,2.655-3.404,5.762-6.8,6.445c-0.631,0.127-1.374,0.188-8.357-2.065C97.459,149.771,96.128,149.198,96.145,148.516z"/>
		<path fill="#5E60AB" d="M84.26,140.422c0.499,0.096-0.487,3.303,1.036,4.349c1.405,0.965,4.513-0.197,5.063-1.939
			c0.46-1.456-1.018-2.827-0.724-3.073c0.455-0.379,5.088,1.959,4.812,5.429c-0.248,3.118-4.241,4.327-6.113,4.563
			c-0.762,0.096-3.998,0.503-5.603-1.646C80.52,145.142,83.627,140.301,84.26,140.422z"/>
		<path fill="#5E60AB" d="M64.077,127.73c-0.042,0.176-0.099,0.538,0.313,1.64c0.468,1.255,0.751,1.346,1.035,2.156
			c0.143,0.412,0.468,1.532,0.129,2.791c-0.303,1.138-1.002,1.841-1.387,2.221c-1.666,1.642-3.686,1.789-3.648,1.946
			c0.038,0.168,2.407,0.31,4.406-1.107c1.628-1.155,2.229-2.791,2.452-3.421c0.346-0.982,0.927-2.628,0.193-4
			c-0.651-1.214-1.889-1.388-1.817-2.065c0.09-0.871,2.198-1.101,2.141-1.498c-0.045-0.312-1.396-0.598-2.505-0.074
			C65.201,126.407,64.294,126.837,64.077,127.73z"/>
		<path fill="#5E60AB" d="M72.018,153.395c-0.301-0.267-1.892,0.816-3.042,2.273c-0.501,0.636-1.056,1.339-1.318,2.428
			c-0.396,1.655,0.158,3.05,0.523,3.969c0.24,0.609,0.616,1.557,1.466,2.459c2.072,2.195,5.214,2.273,5.283,2.063
			c0.063-0.188-2.271-0.758-2.326-1.9c-0.03-0.634,0.678-0.855,0.623-1.518c-0.074-0.916-1.485-1.022-1.633-1.901
			c-0.174-1.014,1.591-1.536,1.518-2.681c-0.066-1.011-1.471-1.098-1.795-2.359C70.96,154.845,72.313,153.654,72.018,153.395z"/>
		<path fill="#C5C2E1" d="M92.042,160.828c0.012-0.472,1.546-0.351,3.092-1.445c0.447-0.318,0.41-0.39,1.809-1.912
			c2.087-2.266,2.42-2.37,2.625-2.292c0.371,0.14,0.253,0.836,0.487,2.261c0.324,1.964,0.788,2.09,1.056,3.628
			c0.389,2.222-0.16,4.333-0.46,4.338c-0.117,0.001-0.177-0.321-0.688-2.236c-0.594-2.216-0.784-2.804-1.221-2.915
			c-0.532-0.135-0.895,0.57-1.595,0.39c-0.534-0.135-0.543-0.603-0.935-0.63c-0.676-0.045-0.847,1.332-1.943,1.62
			c-0.507,0.135-0.986-0.024-1.18-0.087C92.975,161.508,92.035,161.2,92.042,160.828z"/>
		<path fill="#C5C2E1" d="M98.249,141.989c-0.165-0.618,1.208-1.457,3.314-2.722c3.453-2.072,5.181-3.109,7.779-3.423
			c1.628-0.196,4.231-0.51,5.848,1.107c1.414,1.41,1.539,3.756,1.108,3.96c-0.402,0.19-1.042-1.578-3.213-2.765
			c-0.603-0.329-2.492-1.362-4.042-0.669c-0.843,0.376-0.609,0.824-2.056,1.991c-0.976,0.789-1.757,1.419-2.833,1.466
			c-0.946,0.042-1.327-0.404-1.928-0.093c-0.673,0.346-0.502,1.062-1.134,1.525C100.189,143.026,98.417,142.621,98.249,141.989z"/>
		<path fill="#5E60AB" d="M92.266,160.139c0.01-0.472,1.544-0.352,3.09-1.445c0.447-0.316,0.409-0.388,1.81-1.91
			c2.085-2.268,2.417-2.372,2.624-2.294c0.37,0.14,0.252,0.835,0.486,2.261c0.325,1.963,0.789,2.089,1.057,3.629
			c0.388,2.221-0.161,4.332-0.46,4.338c-0.117,0.003-0.177-0.321-0.688-2.237c-0.594-2.215-0.784-2.801-1.22-2.914
			c-0.533-0.136-0.896,0.571-1.596,0.39c-0.532-0.137-0.541-0.602-0.933-0.628c-0.678-0.048-0.849,1.33-1.945,1.62
			c-0.507,0.132-0.987-0.027-1.18-0.09C93.197,160.82,92.256,160.51,92.266,160.139z"/>
		<path fill="#C5C2E1" d="M90.324,140.396c-0.075,0.072,0.479,0.494,0.643,1.371c0.03,0.175,0.129,0.746-0.109,1.365
			c-0.395,1.021-1.445,1.496-1.67,1.598c-0.748,0.338-1.405,0.322-1.487,0.695c-0.027,0.117,0.006,0.258,0.093,0.348
			c0.363,0.385,1.606-0.269,1.954-0.452c0.589-0.309,1.281-0.671,1.796-1.479c0.261-0.404,0.582-0.907,0.519-1.557
			C91.934,141.011,90.439,140.286,90.324,140.396z"/>
		<path fill="#C5C2E1" d="M59.672,139.83c0.449-0.64,1.537,0.018,3.062-0.293c1.242-0.254,2.189-1.161,4.083-2.975
			c1.506-1.443,2.083-2.294,2.248-2.187c0.225,0.146-0.504,1.992-1.738,3.583c-1.859,2.396-4.016,3.108-4.581,3.278
			c-0.77,0.229-2.303,0.688-2.936-0.05C59.504,140.832,59.409,140.205,59.672,139.83z"/>
		<path fill="#C5C2E1" d="M86.978,130.267c-0.319,0.02-0.657-1.387-0.811-2.038c-0.286-1.204-0.266-2.162-0.25-2.513
			c0.054-1.214,0.345-2.095,0.625-2.922c0.541-1.595,0.81-2.394,1.463-3.101c1.208-1.307,2.911-1.465,4.711-1.633
			c0.621-0.057,4.903-0.413,5.362,0.978c0.205,0.631-0.379,1.609-1.117,1.871c-1.146,0.41-2.051-1.115-3.179-0.717
			c-0.972,0.345-0.833,1.671-1.808,1.912c-0.855,0.21-1.386-0.715-2.146-0.489c-0.71,0.211-0.986,1.236-1.21,2.128
			C87.575,127.917,87.385,130.243,86.978,130.267z"/>
		<path fill="#C5C2E1" d="M86.146,154.309c-0.094-0.091-0.888,0.934-2.66,1.724c-0.841,0.373-1.597,0.699-2.477,0.517
			c-1.101-0.228-1.66-1.101-1.833-0.955c-0.159,0.133,0.14,1.029,0.823,1.533c1.093,0.81,2.677,0.249,3.087,0.105
			C85.212,156.479,86.271,154.428,86.146,154.309z"/>
	</g>
	<g>
		<path fill="#8989C3" d="M213.554,106.462c1.592-1.441,3.047-4.491,2.423-7.801c-0.521-2.783-2.554-5.955-4.366-5.809
			c-1.38,0.112-1.553,2.059-3.295,2.687c-2.321,0.835-3.997-2.797-5.957-2.2c-1.785,0.541-2.657,4.016-2.592,6.459
			c0.059,2.319,0.965,3.755,0.313,4.276c-0.756,0.603-2.142-1.172-4.194-0.833c-1.726,0.285-3.164,1.939-3.629,3.638
			c-0.678,2.468,0.828,4.544,1.066,4.861c2.109,2.809,5.743,2.338,5.931,3.797c0.197,1.529-3.777,2.27-3.964,4.588
			c-0.136,1.728,1.9,3.491,3.695,4.076c4.281,1.394,9.162-2.862,8.801-4.063c-0.084-0.282-0.414-0.244-3.23-1.297
			c-1.621-0.605-2.039-0.815-2.322-1.296c-0.458-0.781-0.321-1.878,0.123-2.627c0.694-1.173,1.916-1.129,1.94-1.721
			c0.037-0.908-2.822-1.076-3.303-2.764c-0.199-0.712,0.039-1.636,0.594-2.063c0.837-0.644,2.047,0.122,2.443-0.421
			c0.361-0.494-0.57-1.215-0.342-2.285c0.146-0.706,0.754-1.149,1.958-2.008c1.357-0.964,2.035-1.446,2.703-1.533
			c2.099-0.272,4.508,1.679,4.505,3.293c-0.001,0.926-0.801,1.681-0.619,1.838C212.398,107.398,213.15,106.83,213.554,106.462z"/>
		<path fill="#8989C3" d="M214.61,107.181c-0.291-1.071,3.014-2.782,3.268-2.911c1.399-0.714,2.198-1.123,3.269-1.095
			c2.377,0.063,4.561,2.237,5.297,4.614c0.748,2.42,0.144,5.528-1.853,6.934c-1.508,1.062-3.57,0.634-7.695-0.222
			c-2.157-0.448-3.858-1.032-3.816-1.449c0.052-0.517,2.705-0.061,3.771-1.611c0.554-0.801,0.625-2.057,0.096-2.852
			C216.229,107.518,214.793,107.864,214.61,107.181z"/>
		<path fill="#8989C3" d="M209.228,116.719c0.695-0.335,2.21,2.042,2.938,1.674c0.633-0.321-0.235-2.287,0.54-2.907
			c1.003-0.803,3.904,1.328,4.355,1.665c2.167,1.622,5.07,3.796,4.578,6.577c-0.431,2.435-3.227,4.013-5.538,4.276
			c-1.742,0.2-4.131-0.246-5.465-1.921c-0.248-0.312-0.492-0.705-1.223-5.183C208.908,117.797,208.847,116.902,209.228,116.719z"/>
		<path fill="#5E60AB" d="M210.328,107.892c0.088,0.302-1.955,0.665-2.101,1.799c-0.136,1.044,1.382,2.429,2.496,2.241
			c0.932-0.158,1.269-1.359,1.487-1.267c0.336,0.142,0.357,3.352-1.63,4.18c-1.789,0.745-3.58-1.113-4.239-2.077
			c-0.267-0.392-1.406-2.059-0.673-3.549C206.674,107.165,210.216,107.51,210.328,107.892z"/>
		<path fill="#5E60AB" d="M211.617,93.2c-0.109,0.025-0.322,0.096-0.813,0.635c-0.56,0.612-0.527,0.793-0.896,1.177
			c-0.188,0.195-0.712,0.69-1.499,0.86c-0.711,0.153-1.296-0.032-1.613-0.137c-1.375-0.455-2.027-1.525-2.103-1.46
			c-0.081,0.069,0.507,1.413,1.854,2.112c1.096,0.571,2.165,0.441,2.574,0.386c0.641-0.087,1.708-0.231,2.257-1.023
			c0.486-0.7,0.231-1.431,0.624-1.584c0.505-0.196,1.227,0.901,1.429,0.756c0.159-0.112-0.064-0.938-0.664-1.4
			C212.666,93.445,212.172,93.067,211.617,93.2z"/>
		<path fill="#5E60AB" d="M199.729,104.814c0.063-0.241-0.982-0.811-2.108-1.033c-0.49-0.097-1.033-0.203-1.709-0.04
			c-1.021,0.248-1.633,0.947-2.036,1.407c-0.268,0.304-0.683,0.778-0.938,1.502c-0.625,1.76,0.217,3.511,0.354,3.491
			c0.122-0.02-0.225-1.465,0.389-1.816c0.344-0.196,0.664,0.13,1.012-0.085c0.481-0.3,0.143-1.106,0.585-1.438
			c0.509-0.381,1.296,0.444,1.903,0.08c0.539-0.321,0.19-1.119,0.793-1.654C198.635,104.641,199.671,105.05,199.729,104.814z"/>
		<path fill="#C5C2E1" d="M201.294,117.936c0.259-0.127,0.628,0.751,1.665,1.294c0.302,0.158,0.33,0.115,1.564,0.457
			c1.834,0.508,1.985,0.662,2,0.797c0.028,0.245-0.387,0.376-1.104,0.907c-0.99,0.733-0.93,1.022-1.699,1.606
			c-1.114,0.841-2.433,1.133-2.52,0.971c-0.032-0.064,0.126-0.189,1.038-1.011c1.051-0.951,1.319-1.222,1.26-1.493
			c-0.077-0.333-0.568-0.333-0.666-0.767c-0.073-0.333,0.18-0.47,0.082-0.694c-0.165-0.384-0.972-0.09-1.438-0.612
			c-0.218-0.242-0.266-0.551-0.286-0.675C201.18,118.642,201.087,118.037,201.294,117.936z"/>
		<path fill="#C5C2E1" d="M213.412,116.035c0.294-0.265,1.145,0.254,2.436,1.057c2.115,1.315,3.173,1.973,4.08,3.317
			c0.568,0.84,1.476,2.185,1.042,3.532c-0.379,1.176-1.635,1.905-1.87,1.726c-0.217-0.166,0.576-1.018,0.616-2.547
			c0.011-0.427,0.047-1.758-0.773-2.416c-0.445-0.356-0.624-0.103-1.675-0.57c-0.711-0.314-1.279-0.566-1.607-1.146
			c-0.291-0.509-0.151-0.843-0.493-1.087c-0.38-0.272-0.726,0.024-1.159-0.195C213.389,117.396,213.112,116.306,213.412,116.035z"/>
		<path fill="#5E60AB" d="M201.732,117.863c0.263-0.128,0.629,0.752,1.669,1.295c0.302,0.156,0.33,0.114,1.562,0.455
			c1.837,0.508,1.988,0.662,2.003,0.798c0.028,0.244-0.388,0.376-1.104,0.906c-0.99,0.732-0.929,1.023-1.699,1.607
			c-1.114,0.84-2.433,1.133-2.52,0.969c-0.036-0.063,0.126-0.188,1.036-1.011c1.055-0.951,1.321-1.222,1.262-1.493
			c-0.078-0.332-0.568-0.332-0.666-0.768c-0.073-0.332,0.18-0.468,0.082-0.691c-0.165-0.387-0.972-0.091-1.439-0.613
			c-0.216-0.242-0.267-0.552-0.284-0.674C201.62,118.569,201.527,117.963,201.732,117.863z"/>
		<path fill="#C5C2E1" d="M212.054,111.223c-0.062-0.021-0.138,0.403-0.574,0.739c-0.087,0.067-0.373,0.283-0.782,0.326
			c-0.672,0.071-1.23-0.373-1.35-0.468c-0.397-0.315-0.573-0.682-0.803-0.623c-0.073,0.019-0.143,0.077-0.166,0.149
			c-0.108,0.308,0.603,0.809,0.801,0.949c0.336,0.237,0.729,0.514,1.322,0.571c0.294,0.028,0.661,0.063,1.002-0.154
			C212.171,112.283,212.146,111.254,212.054,111.223z"/>
		<path fill="#C5C2E1" d="M203.717,94.189c0.477,0.067,0.423,0.852,1.022,1.602c0.492,0.613,1.258,0.878,2.792,1.409
			c1.218,0.422,1.851,0.499,1.839,0.62c-0.019,0.165-1.239,0.286-2.464,0.056c-1.845-0.349-2.845-1.333-3.098-1.598
			c-0.343-0.358-1.03-1.072-0.801-1.63C203.117,94.379,203.434,94.15,203.717,94.189z"/>
		<path fill="#C5C2E1" d="M216.685,106.522c-0.1-0.171,0.578-0.751,0.894-1.021c0.582-0.498,1.114-0.757,1.313-0.847
			c0.683-0.313,1.249-0.401,1.786-0.481c1.03-0.153,1.546-0.229,2.118-0.069c1.061,0.296,1.629,1.188,2.229,2.132
			c0.208,0.325,1.61,2.583,0.975,3.227c-0.289,0.292-0.992,0.247-1.345-0.085c-0.548-0.515,0.036-1.445-0.501-1.953
			c-0.465-0.438-1.156,0.013-1.564-0.456c-0.356-0.413,0.002-0.966-0.336-1.32c-0.317-0.332-0.959-0.194-1.514-0.065
			C218.147,106.188,216.812,106.739,216.685,106.522z"/>
		<path fill="#C5C2E1" d="M203.218,112.85c0.021-0.08-0.767-0.227-1.701-0.979c-0.442-0.357-0.835-0.683-0.983-1.218
			c-0.185-0.669,0.137-1.224,0.009-1.278c-0.12-0.05-0.527,0.367-0.611,0.886c-0.138,0.831,0.616,1.544,0.813,1.728
			C201.759,112.948,203.185,112.951,203.218,112.85z"/>
	</g>
	<g>
		<path fill="#8989C3" d="M243.809,108.179c-1.478-1.845-4.728-3.648-8.404-3.188c-3.093,0.389-6.712,2.404-6.675,4.406
			c0.031,1.521,2.158,1.843,2.729,3.799c0.76,2.605-3.341,4.201-2.819,6.394c0.477,1.996,4.233,3.188,6.92,3.281
			c2.553,0.09,4.189-0.808,4.719-0.055c0.61,0.87-1.433,2.274-1.197,4.55c0.196,1.915,1.916,3.604,3.748,4.231
			c2.668,0.912,5.049-0.604,5.413-0.844c3.226-2.127,2.954-6.148,4.567-6.258c1.693-0.115,2.239,4.304,4.773,4.663
			c1.888,0.269,3.962-1.851,4.725-3.782c1.822-4.61-2.523-10.255-3.868-9.939c-0.313,0.074-0.296,0.438-1.643,3.46
			c-0.772,1.739-1.033,2.186-1.579,2.463c-0.889,0.45-2.085,0.224-2.879-0.313c-1.24-0.838-1.109-2.18-1.759-2.247
			c-0.994-0.102-1.373,3.031-3.257,3.439c-0.795,0.173-1.795-0.15-2.227-0.788c-0.652-0.964,0.274-2.241-0.299-2.714
			c-0.517-0.429-1.372,0.544-2.531,0.226c-0.765-0.211-1.211-0.906-2.073-2.29c-0.967-1.553-1.451-2.33-1.503-3.071
			c-0.155-2.324,2.15-4.84,3.922-4.726c1.015,0.066,1.792,0.992,1.976,0.804C244.759,109.509,244.184,108.647,243.809,108.179z"/>
		<path fill="#8989C3" d="M244.668,107.066c-1.196,0.248-2.851-3.498-2.976-3.784c-0.689-1.586-1.082-2.491-0.981-3.664
			c0.229-2.607,2.764-4.856,5.423-5.504c2.71-0.661,6.081,0.212,7.492,2.5c1.064,1.729,0.454,3.965-0.762,8.436
			c-0.638,2.338-1.394,4.168-1.85,4.094c-0.563-0.091,0.114-2.974-1.517-4.25c-0.84-0.66-2.217-0.825-3.124-0.297
			C245.146,105.311,245.431,106.91,244.668,107.066z"/>
		<path fill="#8989C3" d="M254.782,113.623c-0.321-0.788,2.389-2.293,2.036-3.114c-0.311-0.718-2.528,0.104-3.158-0.791
			c-0.814-1.157,1.723-4.198,2.123-4.671c1.929-2.271,4.509-5.313,7.53-4.585c2.645,0.638,4.19,3.813,4.325,6.369
			c0.101,1.929-0.551,4.522-2.479,5.875c-0.36,0.252-0.809,0.493-5.776,0.993C255.944,114.045,254.956,114.051,254.782,113.623z"/>
		<path fill="#5E60AB" d="M245.163,111.818c0.337-0.077,0.598,2.191,1.83,2.428c1.14,0.219,2.764-1.354,2.631-2.591
			c-0.111-1.033-1.407-1.485-1.291-1.719c0.178-0.358,3.708-0.167,4.48,2.073c0.697,2.012-1.463,3.855-2.566,4.513
			c-0.449,0.269-2.355,1.406-3.941,0.502C244.116,115.782,244.733,111.916,245.163,111.818z"/>
		<path fill="#5E60AB" d="M229.112,109.412c0.021,0.12,0.084,0.362,0.642,0.936c0.634,0.655,0.835,0.634,1.232,1.063
			c0.204,0.218,0.709,0.828,0.843,1.705c0.123,0.792-0.121,1.421-0.258,1.764c-0.593,1.478-1.812,2.121-1.744,2.208
			c0.07,0.095,1.584-0.463,2.444-1.894c0.698-1.164,0.628-2.348,0.597-2.802c-0.053-0.708-0.141-1.892-0.972-2.547
			c-0.737-0.579-1.558-0.349-1.697-0.791c-0.182-0.568,1.07-1.287,0.927-1.52c-0.112-0.182-1.035,0.007-1.582,0.638
			C229.452,108.278,229.004,108.794,229.112,109.412z"/>
		<path fill="#5E60AB" d="M241.066,123.248c-0.26-0.083-0.957,1.028-1.276,2.249c-0.138,0.533-0.293,1.123-0.159,1.873
			c0.204,1.14,0.929,1.858,1.408,2.332c0.314,0.314,0.812,0.802,1.587,1.133c1.892,0.804,3.871-0.004,3.857-0.155
			c-0.012-0.135-1.624,0.148-1.97-0.549c-0.19-0.389,0.19-0.72-0.025-1.117c-0.296-0.552-1.204-0.232-1.537-0.74
			c-0.386-0.585,0.574-1.393,0.216-2.086c-0.318-0.612-1.218-0.283-1.766-0.981C240.805,124.442,241.322,123.33,241.066,123.248z"/>
		<path fill="#C5C2E1" d="M255.583,122.419c-0.123-0.296,0.866-0.641,1.533-1.744c0.192-0.319,0.148-0.354,0.607-1.686
			c0.683-1.982,0.859-2.139,1.01-2.146c0.271-0.014,0.387,0.453,0.922,1.277c0.739,1.136,1.062,1.088,1.647,1.974
			c0.851,1.28,1.083,2.747,0.897,2.831c-0.072,0.034-0.198-0.151-1.039-1.206c-0.975-1.221-1.253-1.535-1.557-1.485
			c-0.371,0.06-0.402,0.601-0.89,0.68c-0.367,0.058-0.501-0.229-0.753-0.139c-0.435,0.157-0.166,1.061-0.769,1.54
			c-0.284,0.222-0.624,0.255-0.762,0.268C256.349,122.59,255.679,122.653,255.583,122.419z"/>
		<path fill="#C5C2E1" d="M254.313,108.978c-0.272-0.34,0.354-1.239,1.322-2.601c1.59-2.235,2.383-3.352,3.919-4.258
			c0.961-0.566,2.501-1.474,3.949-0.907c1.267,0.495,1.982,1.923,1.771,2.169c-0.197,0.229-1.078-0.7-2.757-0.847
			c-0.47-0.041-1.926-0.169-2.704,0.686c-0.423,0.464-0.154,0.679-0.737,1.803c-0.396,0.757-0.711,1.365-1.369,1.688
			c-0.577,0.283-0.938,0.108-1.229,0.466c-0.323,0.399-0.021,0.799-0.291,1.261C255.805,109.095,254.59,109.325,254.313,108.978z"/>
		<path fill="#5E60AB" d="M255.533,121.929c-0.122-0.297,0.868-0.64,1.535-1.745c0.193-0.32,0.146-0.354,0.604-1.686
			c0.683-1.982,0.86-2.138,1.012-2.146c0.269-0.013,0.386,0.453,0.921,1.276c0.738,1.136,1.061,1.088,1.648,1.976
			c0.849,1.28,1.081,2.746,0.897,2.832c-0.071,0.032-0.197-0.152-1.042-1.208c-0.973-1.22-1.252-1.533-1.556-1.483
			c-0.368,0.061-0.4,0.6-0.885,0.678c-0.372,0.06-0.504-0.227-0.758-0.137c-0.435,0.155-0.162,1.061-0.77,1.54
			c-0.28,0.221-0.623,0.253-0.76,0.266C256.303,122.099,255.628,122.162,255.533,121.929z"/>
		<path fill="#C5C2E1" d="M248.937,110.147c-0.026,0.066,0.434,0.177,0.772,0.68c0.067,0.1,0.286,0.43,0.306,0.882
			c0.035,0.743-0.491,1.325-0.604,1.451c-0.375,0.415-0.791,0.584-0.738,0.84c0.015,0.079,0.073,0.16,0.15,0.192
			c0.332,0.141,0.931-0.607,1.096-0.816c0.285-0.353,0.615-0.767,0.719-1.413c0.051-0.322,0.113-0.724-0.104-1.111
			C250.108,110.091,248.978,110.047,248.937,110.147z"/>
		<path fill="#C5C2E1" d="M229.667,118.157c0.104-0.521,0.963-0.409,1.828-1.018c0.706-0.498,1.049-1.321,1.736-2.97
			c0.544-1.311,0.672-1.999,0.804-1.977c0.18,0.03,0.23,1.381-0.105,2.709c-0.507,2.001-1.655,3.034-1.963,3.295
			c-0.417,0.352-1.247,1.057-1.846,0.77C229.835,118.83,229.604,118.463,229.667,118.157z"/>
		<path fill="#C5C2E1" d="M244.086,104.744c-0.195,0.099-0.787-0.687-1.063-1.05c-0.505-0.672-0.754-1.275-0.841-1.5
			c-0.299-0.771-0.356-1.399-0.408-1.992c-0.099-1.142-0.146-1.713,0.066-2.334c0.398-1.145,1.417-1.708,2.492-2.303
			c0.373-0.206,2.945-1.596,3.612-0.854c0.301,0.336,0.202,1.106-0.187,1.472c-0.603,0.568-1.586-0.136-2.177,0.419
			c-0.513,0.479-0.064,1.27-0.607,1.685c-0.477,0.365-1.061-0.067-1.473,0.281c-0.385,0.325-0.277,1.041-0.172,1.657
			C243.816,103.114,244.332,104.617,244.086,104.744z"/>
		<path fill="#C5C2E1" d="M250.126,119.962c-0.084-0.03-0.299,0.826-1.188,1.801c-0.423,0.462-0.807,0.873-1.403,1
			c-0.75,0.157-1.337-0.234-1.405-0.097c-0.062,0.126,0.37,0.603,0.933,0.731c0.904,0.206,1.738-0.575,1.954-0.778
			C250.137,121.57,250.237,120.003,250.126,119.962z"/>
	</g>
	<g>
		<path fill="#CA3752" d="M183.687,106.376c0.679-9.202-3.281-16.8-6.692-23.721c-1.825-3.703-3.823-6.056-6.46-6.777
			c-0.938-0.257-0.989-0.042-2.348-0.337c-3.961-0.854-4.527-2.893-7.457-3.671c-2.162-0.573-2.019,0.494-7.087,0.642
			c-3.69,0.109-4.214-0.442-6.53-0.104c0,0-3.134,0.458-6.631,2.808c-5.338,3.586-23.741,27.137-13.486,50.328
			c1.106,2.5,7.43,16.796,19.871,18.902C163.796,147.313,182.241,125.939,183.687,106.376z"/>
		<path fill="#FACBD8" d="M166.411,84.349c-1.091-0.646-1.635-0.97-2.209-1.158c-1.09-0.357-2.013-0.337-4.063-0.128
			c-2.282,0.231-3.091,0.405-4.251,0.536c-4.104,0.462-6.331-0.319-6.471,0.166c-0.149,0.52,2.464,1.255,6.483,3.817
			c2.976,1.895,3.06,2.457,4.558,2.762c3.364,0.686,6.176-1.494,6.857-2.021c0.676-0.525,1.556-1.227,1.457-2.005
			C168.696,85.716,167.935,85.252,166.411,84.349z"/>
		<path fill="#AC1F26" d="M167.273,80.397c-1.233-1.286-2.499-2.604-4.454-3.375c-2.642-1.039-3.518,0.114-8.854,0.025
			c-3.984-0.067-5.648-0.747-6.262,0.203c-0.607,0.945,0.192,2.917,1.516,4.039c1.497,1.271,2.926,0.823,9.591,1.009
			c4.186,0.118,5.146,0.336,5.581,0.444c3.39,0.837,5.183,2.424,5.594,1.948C170.436,84.17,168.644,81.826,167.273,80.397z"/>
		<path fill="#EC7D93" d="M154.687,127.359c-0.984-2.764-4.113-2.03-7.98-5.714c-3.77-3.59-4.892-8.185-5.239-9.605
			c-1.591-6.51,0.591-11.737-0.508-12.098c-0.865-0.282-2.593,2.819-3.174,3.86c-1.827,3.278-4.37,7.838-4.154,14.293
			c0.077,2.346,0.316,9.54,5.724,14.498c1.447,1.325,5.982,5.483,10.504,3.719C153.418,134.923,155.749,130.347,154.687,127.359z"/>
		<path fill="#FACBD8" d="M178.392,86.432c-5.828-1.778-12.948,5.953-15.386,8.598c-2.629,2.854-6.389,7.852-9.791,20.055
			c-3.501,12.549-7.902,28.325-1.578,32.778c5.302,3.734,15.632-2.261,19.976-5.487c14.219-10.564,14.558-28.818,14.625-32.508
			C186.276,107.813,186.459,88.891,178.392,86.432z"/>
		<path fill="#EC7D93" d="M161.453,92.81c-0.235-1.01-1.404-0.985-4.153-2.674c-2.28-1.401-1.96-1.717-3.522-2.414
			c-1.964-0.875-2.789-0.517-4.229-1.594c-0.367-0.273-1.295-0.984-1.844-2.209c-0.924-2.065-0.027-3.926-0.33-4.015
			c-0.348-0.103-2.019,2.201-1.526,4.495c0.194,0.903,0.519,0.842,1.868,3.122c1.33,2.248,1.325,2.832,2.083,3.139
			c1.328,0.537,2.471-0.798,3.271-0.208c0.942,0.7-0.195,2.918,0.706,3.564c0.857,0.612,2.303-1.092,3.765-0.479
			c1.182,0.496,1.101,1.964,1.942,2.044C160.402,95.667,161.738,94.03,161.453,92.81z"/>
		<path fill="#AC1F26" d="M177.69,87.886c-1.494-0.75-4.773,2.463-6.537,4.987c-2.572,3.683-2.09,6.161-3.753,12.467
			c-0.534,2.027-0.459,1.3-5.097,13.477c-3.881,10.195-4.479,12.136-3.817,12.58c1.048,0.706,4.68-2.766,6.775-5.144
			c3.811-4.325,6.087-9.059,8.654-17.222C176.521,100.748,180.173,89.132,177.69,87.886z"/>
		<path fill="#EC7D93" d="M172.236,159.102c6.166,0.704,11.419-5.596,16.42-11.595c3.412-4.093,10.452-12.533,11.487-25.588
			c0.94-11.836-3.617-20.417-6.849-26.507c-4.3-8.103-13.159-20.497-17.676-18.809c-3.529,1.317-0.25,9.67-3.005,23.397
			c-4.104,20.457-15.771,23.802-14.667,38.097C158.689,147.665,164.853,158.257,172.236,159.102z"/>
		<path fill="#CA3752" d="M182.983,150.329c0.246,0.219,5.537-3.978,10.124-11.335c1.856-2.98,4.189-6.796,5.415-12.426
			c1.49-6.85,0.468-12.385,0.018-14.709c-0.613-3.143-1.456-5.312-3.114-9.586c-1.434-3.695-3.327-8.573-4.209-8.362
			c-0.831,0.199-1.143,4.969,0.366,9.354c1.135,3.294,2.499,4.05,2.477,6.853c-0.017,2.226-0.883,2.833-0.523,5.084
			c0.382,2.397,1.515,2.65,1.428,4.438c-0.107,2.195-1.844,2.432-2.104,4.714c-0.277,2.439,1.612,3.036,1.216,4.988
			c-0.466,2.323-3.308,2.287-4.738,5.182c-0.852,1.724-0.375,2.805-0.511,4.869C188.4,145.851,182.727,150.105,182.983,150.329z"/>
		<path fill="#F096AB" d="M175.456,157.703c2.863-5.853,0.678-14.214-3.87-19.359c-7.779-8.803-17.815-2.921-27.315-11.606
			c-6.64-6.068-9.207-15.766-8.814-23.172c0.67-12.636,10.039-20.175,7.388-23.21c-1.837-2.102-7.803-0.174-11.582,1.861
			c-14.462,7.782-16.871,27.836-17.372,32.009c-0.654,5.441-2.411,20.106,7.04,33.811c1.99,2.886,9.175,12.984,22.573,16.603
			C153.572,167.356,170.722,167.38,175.456,157.703z"/>
		<path fill="#CA3752" d="M162.869,157.127c-0.319-3.118-9.115-4.571-11.458-4.958c-9.82-1.621-11.066,1.295-16.442-0.702
			c-5.068-1.882-8.186-6.042-13.182-12.713c-3.832-5.115-5.154-8.359-5.508-8.191c-0.603,0.286,1.732,10.311,9.014,19.021
			c2.119,2.535,6.63,7.806,14.428,10.976c2.486,1.011,12.255,4.981,19.66,0.578C160.262,160.615,163.057,158.953,162.869,157.127z"
			/>
		<path fill="#757238" d="M181.257,164.819c4.006-3.294,5.765-6.849,8.896-13.185c3.027-6.127,5.161-12.3,4.599-12.569
			c-0.476-0.228-2.189,4.111-6.917,9.068c-3.442,3.611-5.976,6.266-9.807,6.917c-4.848,0.822-7.281-2.323-10.199-0.619
			c-2.615,1.528-1.495,4.548-3.528,7.132c-5.478,6.959-25.114-0.322-25.556,1.229c-0.084,0.297,0.55,0.862,5.253,3.097
			c7.187,3.414,10.78,5.12,13.805,5.553c5.723,0.816,10.304-0.565,12.938-1.363C173.358,169.291,177.332,168.047,181.257,164.819z"
			/>
	</g>
	<g>
		<path fill="#CA3752" d="M238.426,182.685c8.626-3.273,13.839-10.074,18.67-16.09c2.582-3.221,3.871-6.023,3.413-8.718
			c-0.165-0.959-0.381-0.915-0.69-2.271c-0.896-3.949,0.71-5.326,0.177-8.309c-0.393-2.202-1.298-1.622-3.577-6.153
			c-1.658-3.297-1.38-4.005-2.665-5.962c0,0-1.739-2.647-5.349-4.824c-5.506-3.321-34.628-10.048-51.311,9.049
			c-1.798,2.058-12.085,13.83-8.733,25.997C192.917,181.96,220.084,189.646,238.426,182.685z"/>
		<path fill="#FACBD8" d="M251.086,157.718c0.126-1.26,0.19-1.891,0.116-2.492c-0.135-1.136-0.545-1.967-1.6-3.736
			c-1.176-1.97-1.675-2.628-2.282-3.627c-2.154-3.524-2.389-5.871-2.887-5.793c-0.533,0.084-0.096,2.763-0.717,7.49
			c-0.46,3.496-0.934,3.81-0.578,5.297c0.801,3.341,3.964,4.966,4.729,5.359c0.763,0.393,1.769,0.894,2.434,0.475
			C250.815,160.366,250.913,159.481,251.086,157.718z"/>
		<path fill="#AC1F26" d="M255.034,156.829c0.643-1.659,1.303-3.363,1.174-5.462c-0.174-2.833-1.59-3.139-3.763-8.014
			c-1.625-3.639-1.712-5.436-2.834-5.588c-1.11-0.153-2.563,1.407-3.019,3.079c-0.52,1.893,0.489,3,3.139,9.12
			c1.661,3.843,1.87,4.805,1.957,5.245c0.673,3.424-0.006,5.721,0.597,5.894C252.951,161.29,254.317,158.674,255.034,156.829z"/>
		<path fill="#EC7D93" d="M207.15,165.269c2.091-2.059,0.104-4.585,1.807-9.647c1.662-4.933,5.352-7.893,6.49-8.807
			c5.23-4.194,10.891-4.426,10.75-5.575c-0.108-0.903-3.65-1.159-4.838-1.246c-3.742-0.27-8.95-0.648-14.711,2.275
			c-2.092,1.062-8.512,4.319-10.72,11.314c-0.59,1.872-2.441,7.739,1.068,11.093C199.761,167.318,204.893,167.495,207.15,165.269z"
			/>
		<path fill="#FACBD8" d="M254.263,169.458c-0.852-6.033-10.866-9.221-14.296-10.313c-3.696-1.175-9.815-2.47-22.311-0.397
			c-12.854,2.131-29.014,4.811-30.377,12.424c-1.143,6.385,8.656,13.212,13.417,15.786c15.583,8.422,32.271,1.012,35.642-0.484
			C238.217,185.641,255.443,177.81,254.263,169.458z"/>
		<path fill="#EC7D93" d="M241.324,156.801c0.817-0.64,0.298-1.688,0.667-4.895c0.306-2.659,0.728-2.5,0.697-4.211
			c-0.036-2.151-0.709-2.746-0.342-4.506c0.093-0.45,0.345-1.59,1.224-2.604c1.481-1.711,3.546-1.683,3.498-1.997
			c-0.053-0.358-2.848-0.898-4.716,0.517c-0.737,0.558-0.544,0.825-2.042,3.012c-1.475,2.155-2.007,2.398-1.965,3.215
			c0.075,1.429,1.769,1.902,1.571,2.874c-0.235,1.152-2.728,1.057-2.931,2.148c-0.19,1.037,1.962,1.624,2.025,3.21
			c0.05,1.28-1.315,1.829-1.031,2.624C238.289,157.058,240.337,157.574,241.324,156.801z"/>
		<path fill="#AC1F26" d="M252.648,169.435c0.049-1.669-4.25-3.284-7.28-3.815c-4.427-0.773-6.469,0.708-12.889,1.869
			c-2.062,0.371-1.37,0.132-14.364,1.076c-10.884,0.789-12.894,1.067-13.018,1.854c-0.195,1.25,4.485,3.075,7.524,3.971
			c5.531,1.625,10.786,1.686,19.267,0.561C240.496,173.81,252.57,172.211,252.648,169.435z"/>
		<path fill="#EC7D93" d="M185.801,194.589c1.966,5.888,9.898,7.985,17.448,9.984c5.15,1.362,15.776,4.174,28.046-0.405
			c11.122-4.15,16.977-11.904,21.128-17.407c5.527-7.322,13.016-20.59,9.577-23.972c-2.686-2.639-8.87,3.86-22.474,7.166
			c-20.278,4.926-28.237-4.235-40.725,2.811C190.44,177.481,183.446,187.543,185.801,194.589z"/>
		<path fill="#CA3752" d="M198.291,200.622c-0.094,0.319,5.947,3.342,14.553,4.387c3.486,0.425,7.933,0.926,13.551-0.343
			c6.838-1.546,11.422-4.81,13.339-6.202c2.589-1.884,4.199-3.563,7.371-6.872c2.742-2.861,6.364-6.64,5.802-7.351
			c-0.531-0.667-4.989,1.064-8.324,4.287c-2.507,2.419-2.613,3.975-5.165,5.141c-2.023,0.926-2.941,0.396-4.829,1.675
			c-2.009,1.358-1.76,2.49-3.417,3.17c-2.036,0.83-2.984-0.646-5.163,0.084c-2.327,0.779-2.07,2.744-4.005,3.213
			c-2.305,0.555-3.473-2.034-6.701-2.106c-1.921-0.044-2.699,0.847-4.629,1.596C204.641,203.642,198.388,200.296,198.291,200.622z"
			/>
		<path fill="#F096AB" d="M188.43,196.918c6.515,0.121,13.17-5.396,15.908-11.688c4.69-10.772-4.88-17.381-1.024-29.663
			c2.693-8.582,10.397-15.006,17.275-17.781c11.735-4.733,22.528,0.572,24.158-3.114c1.128-2.55-3.14-7.144-6.583-9.711
			c-13.164-9.817-32.355-3.523-36.351-2.212c-5.207,1.708-19.242,6.31-27.668,20.666c-1.774,3.023-7.889,13.803-5.507,27.477
			C170.431,181.166,177.657,196.719,188.43,196.918z"/>
		<path fill="#CA3752" d="M183.631,185.267c2.691-1.604,0.289-10.192-0.351-12.481c-2.68-9.583-5.849-9.479-6.312-15.194
			c-0.438-5.392,2.019-9.973,5.95-17.321c3.019-5.634,5.399-8.205,5.095-8.454c-0.513-0.423-8.611,5.927-13.426,16.208
			c-1.404,2.991-4.273,9.31-3.853,17.715c0.137,2.68,0.666,13.211,7.785,18.062C179.368,184.379,182.057,186.21,183.631,185.267z"/>
		<path fill="#757238" d="M184.434,205.183c4.678,2.239,8.638,2.328,15.707,2.491c6.831,0.154,13.329-0.521,13.335-1.146
			c0.006-0.526-4.651-0.248-11.143-2.437c-4.727-1.595-8.204-2.767-10.414-5.966c-2.792-4.045-0.971-7.579-3.749-9.503
			c-2.492-1.724-4.755,0.566-7.955-0.184c-8.623-2.024-10.322-22.898-11.916-22.642c-0.305,0.048-0.548,0.863-0.585,6.069
			c-0.057,7.956-0.086,11.935,0.801,14.859c1.68,5.532,4.869,9.1,6.704,11.149C177.041,199.914,179.845,202.989,184.434,205.183z"/>
	</g>
	<g>
		<path fill="#CA3752" d="M135.209,161.353c-4.953-7.784-12.671-11.511-19.54-15.022c-3.677-1.877-6.683-2.571-9.229-1.575
			c-0.905,0.355-0.818,0.558-2.085,1.135c-3.683,1.679-5.358,0.384-8.172,1.512c-2.075,0.832-1.324,1.601-5.298,4.75
			c-2.894,2.292-3.644,2.163-5.297,3.819c0,0-2.24,2.241-3.641,6.214c-2.137,6.064-2.819,35.945,19.261,48.414
			c2.381,1.343,15.995,9.028,27.229,3.28C143.725,206.062,145.742,177.901,135.209,161.353z"/>
		<path fill="#FACBD8" d="M108.194,154.014c-1.258,0.132-1.891,0.198-2.463,0.391c-1.086,0.364-1.814,0.933-3.335,2.324
			c-1.69,1.549-2.234,2.173-3.087,2.971c-3.016,2.823-5.268,3.527-5.091,4c0.192,0.505,2.726-0.468,7.481-0.816
			c3.516-0.258,3.921,0.143,5.305-0.507c3.11-1.462,4.059-4.89,4.287-5.719c0.231-0.826,0.521-1.914-0.024-2.479
			C110.843,153.743,109.954,153.827,108.194,154.014z"/>
		<path fill="#AC1F26" d="M106.524,150.329c-1.756-0.294-3.558-0.596-5.585-0.044c-2.741,0.745-2.754,2.194-7.085,5.311
			c-3.234,2.328-4.976,2.779-4.9,3.906c0.076,1.119,1.898,2.222,3.629,2.333c1.957,0.123,2.84-1.089,8.292-4.923
			c3.426-2.408,4.328-2.807,4.743-2.98c3.217-1.352,5.603-1.151,5.65-1.779C111.315,151.464,108.477,150.657,106.524,150.329z"/>
		<path fill="#EC7D93" d="M124.496,195.507c-2.443-1.629-4.511,0.829-9.814,0.186c-5.166-0.625-8.813-3.639-9.938-4.57
			c-5.167-4.269-6.542-9.765-7.638-9.397c-0.862,0.291-0.396,3.813-0.239,4.994c0.494,3.719,1.18,8.893,5.209,13.943
			c1.465,1.832,5.955,7.458,13.252,8.202c1.954,0.198,8.073,0.823,10.646-3.294C127.999,202.329,127.132,197.268,124.496,195.507z"
			/>
		<path fill="#FACBD8" d="M119.045,148.523c-5.731,2.058-6.824,12.512-7.199,16.089c-0.403,3.857-0.43,10.113,4.133,21.932
			c4.693,12.155,10.592,27.434,18.324,27.224c6.482-0.174,11.183-11.153,12.738-16.335c5.09-16.969-5.548-31.807-7.698-34.806
			C138.146,160.957,126.985,145.674,119.045,148.523z"/>
		<path fill="#EC7D93" d="M109.277,163.759c-0.792-0.671-1.714,0.051-4.929,0.339c-2.667,0.24-2.599-0.206-4.268,0.169
			c-2.096,0.475-2.544,1.254-4.342,1.251c-0.459-0.002-1.627-0.017-2.798-0.672c-1.974-1.103-2.368-3.131-2.665-3.021
			c-0.339,0.126-0.301,2.971,1.462,4.515c0.696,0.609,0.919,0.366,3.365,1.389c2.41,1.008,2.756,1.479,3.543,1.271
			c1.387-0.362,1.507-2.117,2.5-2.12c1.174-0.006,1.586,2.456,2.694,2.434c1.056-0.022,1.194-2.25,2.735-2.633
			c1.242-0.308,2.054,0.918,2.777,0.479C110.143,166.678,110.232,164.567,109.277,163.759z"/>
		<path fill="#AC1F26" d="M119.351,150.108c-1.643,0.292-2.354,4.828-2.258,7.903c0.138,4.492,2.003,6.191,4.44,12.242
			c0.783,1.943,0.408,1.316,3.967,13.85c2.979,10.496,3.661,12.409,4.455,12.37c1.263-0.062,2.101-5.014,2.359-8.175
			c0.471-5.746-0.532-10.901-3.354-18.98C126.1,161.122,122.089,149.624,119.351,150.108z"/>
		<path fill="#EC7D93" d="M157.534,210.472c5.366-3.119,5.813-11.311,6.239-19.109c0.291-5.323,0.891-16.295-6.081-27.382
			c-6.32-10.051-15.098-14.211-21.33-17.163c-8.289-3.928-22.798-8.57-25.413-4.518c-2.042,3.164,5.575,7.903,11.571,20.556
			c8.936,18.855,1.576,28.508,11.008,39.311C139.838,209.396,151.11,214.205,157.534,210.472z"/>
		<path fill="#CA3752" d="M160.909,197.017c0.33,0.027,2.066-6.502,1.347-15.141c-0.293-3.501-0.703-7.954-3.085-13.2
			c-2.898-6.382-7.023-10.212-8.774-11.804c-2.368-2.153-4.341-3.391-8.227-5.827c-3.356-2.105-7.788-4.885-8.37-4.188
			c-0.546,0.654,2.051,4.667,5.881,7.282c2.879,1.963,4.424,1.754,6.082,4.013c1.318,1.795,0.985,2.801,2.618,4.391
			c1.739,1.693,2.798,1.219,3.798,2.706c1.227,1.823-0.026,3.053,1.13,5.038c1.236,2.12,3.106,1.471,3.957,3.271
			c1.014,2.143-1.285,3.812-0.705,6.99c0.348,1.891,1.378,2.471,2.503,4.206C162.58,190.188,160.572,196.988,160.909,197.017z"/>
		<path fill="#F096AB" d="M159.28,207.427c-1.2-6.404-9.793-18.041-14.669-13.211c-8.978,8.888-9.982,35.413-28.84,7.018
			c-4.975-7.494-16.802-7.141-20.914-13.314c-7.015-10.533-4.006-22.179-7.946-23.028c-2.726-0.585-6.359,4.525-8.175,8.415
			c-6.945,14.881,3.107,32.4,5.201,36.047c2.729,4.753,10.081,17.563,25.847,22.904c3.321,1.123,15.116,4.928,28.021-0.179
			C147.504,228.242,161.268,218.015,159.28,207.427z"/>
		<path fill="#CA3752" d="M148.846,214.484c-2.12-2.308-10.042,1.783-12.15,2.875c-8.841,4.565-8.099,7.646-13.602,9.261
			c-5.191,1.519-10.174,0.046-18.167-2.318c-6.128-1.812-9.126-3.621-9.309-3.275c-0.313,0.588,7.548,7.233,18.592,9.865
			c3.215,0.767,9.982,2.298,18.129,0.179c2.594-0.675,12.803-3.329,16.109-11.284C148.838,218.841,150.086,215.839,148.846,214.484z
			"/>
		<path fill="#757238" d="M168.185,209.665c1.243-5.037,0.529-8.936-0.747-15.887c-1.23-6.723-3.208-12.948-3.823-12.828
			c-0.518,0.104,0.702,4.606-0.128,11.404c-0.603,4.953-1.045,8.596-3.73,11.407c-3.394,3.557-7.226,2.49-8.544,5.599
			c-1.185,2.789,1.518,4.544,1.431,7.829c-0.232,8.852-20.33,14.747-19.757,16.255c0.111,0.291,0.958,0.362,6.065-0.655
			c7.8-1.559,11.704-2.335,14.386-3.797c5.075-2.766,7.923-6.613,9.56-8.823C164.522,217.971,166.967,214.602,168.185,209.665z"/>
	</g>
</g>
</svg>
