<?xml version="1.0" encoding="utf-8"?>
<!-- Generator: Adobe Illustrator 16.0.0, SVG Export Plug-In . SVG Version: 6.00 Build 0)  -->
<!DOCTYPE svg PUBLIC "-//W3C//DTD SVG 1.1//EN" "http://www.w3.org/Graphics/SVG/1.1/DTD/svg11.dtd">
<svg version="1.1" id="Layer_1" xmlns="http://www.w3.org/2000/svg" xmlns:xlink="http://www.w3.org/1999/xlink" x="0px" y="0px"
	 width="350px" height="350px" viewBox="0 0 350 350" enable-background="new 0 0 350 350" xml:space="preserve">
<g>
	<path fill="#474747" d="M239.323,173.239c12.345-2.821,24.237-3.068,35.952-4.727c4.097-0.58,8.116-1.724,12.16-2.654
		c2.33-0.536,3.95-1.966,5.298-3.957c4.128-6.099,10.297-9.276,17.104-11.329c2.566-0.775,5.264-0.605,7.787,0.52
		c3.813,1.7,4.798,5.572,2.323,8.883c-1.294,1.731-3,2.976-4.975,3.632c-3.219,1.07-6.488,2.165-9.824,2.673
		c-4.462,0.681-9.012,0.772-13.516,1.203c-1.487,0.143-3.01,0.378-4.41,0.874c-4.146,1.468-8.428,2.03-12.774,2.465
		c-8.279,0.83-16.534,1.893-24.808,2.785c-6.635,0.717-12.329,3.442-17.247,7.858c-0.964,0.866-1.844,1.876-2.565,2.951
		c-2.001,2.981-3.871,6.051-5.848,9.049c-0.927,1.406-1.915,2.781-2.987,4.078c-3.126,3.778-6.293,7.521-8.986,12.252
		c1.164,0.214,1.997,0.504,2.826,0.495c2.647-0.029,5.294-0.224,7.94-0.253c2.601-0.03,4.769-0.838,6.513-2.858
		c1.232-1.428,2.623-2.729,4.012-4.012c1.564-1.447,2.705-3.111,3.342-5.168c1.267-4.101,4.064-7.22,6.881-10.288
		c1.981-2.159,4.49-3.387,7.423-3.813c2.079-0.302,3.679,0.285,4.988,1.932c1.442,1.816,1.89,3.865,0.759,5.811
		c-0.918,1.579-2.205,3.173-3.728,4.118c-2.708,1.682-5.589,3.358-8.629,4.169c-5.069,1.352-8.688,4.299-11.654,8.288
		c0.429,1.376,1.455,1.151,2.339,1.088c7.438-0.536,14.441-2.872,21.439-5.222c1.254-0.421,2.462-0.999,3.733-1.347
		c3.979-1.085,6.822-3.299,9.344-6.753c2.854-3.908,6.694-7.177,10.444-10.319c1.804-1.511,4.317-2.33,6.642-3.004
		c1.329-0.384,3.064-0.193,4.375,0.336c4.401,1.772,5.249,5.441,2.144,8.998c-1.757,2.011-3.937,3.62-6.514,4.401
		c-5.958,1.809-11.49,4.873-17.77,5.778c-2.203,0.318-4.294,1.411-6.437,2.147c-4.442,1.526-8.886,3.051-13.424,4.609
		c2.756,3.525,8.974,7.532,12.608,8.092c1.089,0.169,2.269,0.079,3.354-0.147c2.032-0.427,4.081-0.894,6.025-1.61
		c3.761-1.387,7.45-0.812,11.161,0.063c0.548,0.129,1.082,0.352,1.595,0.592c2.448,1.157,4.619,4.577,4.169,6.855
		c-0.513,2.591-2.703,3.535-4.879,4.226c-1.228,0.391-2.615,0.46-3.918,0.398c-5.438-0.252-10.541-1.895-14.757-5.245
		c-4.341-3.452-9.532-5.357-13.991-8.542c-2.362-1.687-5.173-2.295-8.09-2.187c-8.304,0.31-16.607,0.635-24.911,0.957
		c-0.756,0.03-1.516,0.049-2.265,0.136c-4.774,0.554-9.188,1.922-13.049,5.002c-2.65,2.114-5.6,3.854-8.423,5.75
		c-3.625,2.435-6.999,5.133-9.476,8.771c0.41,1.367,1.473,0.973,2.313,0.905c4.149-0.33,8.293-0.726,12.438-1.081
		c2.129-0.182,4.074-0.762,5.668-2.282c3.298-3.146,7.485-4.271,11.778-5.201c3.56-0.772,6.754,0.183,9.803,1.867
		c1.646,0.909,2.215,2.53,1.672,4.376c-0.74,2.513-2.23,4.324-4.809,5.162c-3.873,1.258-7.781,1.485-11.752,0.559
		c-2.026-0.472-4.063-0.902-6.08-1.411c-4.485-1.132-8.98-1.015-13.508-0.27c-2.237,0.369-4.496,0.63-6.754,0.85
		c-2.611,0.256-4.666,1.369-6.172,3.546c-1.048,1.515-2.189,2.966-3.792,5.12c-0.014-1.399-0.224-2.121,0.012-2.64
		c0.623-1.371,1.275-2.786,2.208-3.948c3.3-4.111,6.092-8.561,9.917-12.346c3.969-3.928,7.547-8.431,9.034-14.182
		c0.751-2.909,2.066-5.685,3.265-8.46c1.054-2.445,0.821-4.438-0.53-6.897c-3.335-6.067-4.706-12.706-3.987-19.681
		c0.039-0.376,0.095-0.75,0.154-1.124c0.509-3.217,1.878-5.863,5.293-6.641c3.313-0.755,5.907,0.852,7.973,3.264
		c2.493,2.91,3.247,6.332,2.534,10.095c-0.964,5.082-2.796,9.895-5.563,14.189c-4.38,6.799-6.522,14.388-8.875,21.789
		c0.896,1.134,1.555,0.457,2.083,0.052c8.308-6.374,15.589-13.732,21.438-22.462c1.713-2.555,1.894-5.251,1.006-8.129
		c-0.778-2.526-1.649-5.043-2.148-7.628c-0.496-2.579-0.78-5.235-0.782-7.857c-0.001-2.193-0.195-4.139-1.942-5.655
		c-0.284-0.247-0.604-0.521-0.743-0.851c-2.086-4.922-5.518-8.813-8.898-12.908c-4.481-5.432-3.103-11.672,0.896-17.306
		c1.207-1.701,3.068-2.124,5.086-1.413c3.463,1.223,5.87,3.304,6.24,7.256c0.268,2.868,0.18,5.668-0.733,8.412
		c-0.775,2.331-1.566,4.657-2.365,6.98c-1.053,3.066,0.1,5.407,2.49,7.997c2.646-4.457,4.611-8.588,5.103-13.37
		c0.23-2.236,0.742-4.451,1.237-6.652c0.484-2.149,1.937-3.633,3.694-4.852c2.868-1.989,5.713-0.732,6.096,2.815
		c0.402,3.713-0.444,7.196-2.808,10.13c-1.655,2.056-3.341,4.207-5.42,5.778c-3.676,2.779-4.866,6.478-5.357,10.788
		c-0.638,5.586-0.028,10.945,2.059,16.143c0.336,0.836,0.881,1.589,1.287,2.306c0.665-0.177,1.151-0.152,1.33-0.376
		c2.358-2.948,4.553-6.036,7.023-8.886c6.098-7.033,8.675-15.45,9.48-24.444c0.243-2.714-0.668-5.593-1.367-8.317
		c-0.973-3.792-0.758-7.494,0.163-11.219c0.563-2.278,1.791-4.169,3.483-5.745c3.804-3.544,8.831-2.13,10.157,2.902
		c0.693,2.628,0.611,5.323-0.743,7.734c-1.754,3.124-3.441,6.354-5.677,9.12c-2.241,2.774-3.6,5.715-4.035,9.182
		c-0.303,2.405-1.292,4.732-0.927,7.673c1.059-0.27,2.002-0.289,2.687-0.718c6.726-4.218,13.502-8.366,20.07-12.819
		c4.486-3.04,7.115-7.762,9.843-12.313c0.193-0.324,0.314-0.691,0.515-1.009c3.681-5.838,5.959-12.133,6.717-19.037
		c0.285-2.595,1.274-5.121,2.024-7.654c0.266-0.897,0.7-1.766,1.185-2.572c1.462-2.434,4.212-3.489,6.244-2.468
		c2.354,1.184,3.725,4.323,2.744,6.758c-0.921,2.29-2.132,4.502-4.179,5.982c-3.987,2.886-6.234,6.898-8.266,11.265
		c-2.309,4.962-5.088,9.721-7.883,14.436c-2.236,3.772-5.193,6.992-8.919,9.389c-6.2,3.99-12.4,7.982-18.682,11.841
		C243.994,167.663,241.554,169.78,239.323,173.239z M206.235,172.64c-1.578-1.448-3.184-2.428-5.241-1.977
		c-2.152,0.473-2.974,2.206-3.442,4.095c-0.318,1.277-0.573,2.613-0.561,3.92c0.05,4.984,1.482,9.688,3.252,14.285
		c0.576,1.497,2.21,1.682,3.157,0.415c3.131-4.191,4.925-8.932,5.298-14.139C208.882,176.674,207.702,174.481,206.235,172.64z
		 M294.726,164.036c5.827,1.057,16.297-0.45,20.452-2.938c0.8-0.479,1.564-1.078,2.205-1.754c2.369-2.5,1.556-5.516-1.768-6.62
		c-2.052-0.683-4.152-0.541-6.14,0.141c-4.317,1.483-8.356,3.547-11.805,6.582C296.297,160.655,294.836,161.938,294.726,164.036z
		 M271.627,198.264c5.582-0.409,14.333-3.449,17.521-5.92c0.735-0.57,1.457-1.213,2.005-1.955c0.787-1.063,1.678-2.442,0.729-3.589
		c-0.737-0.892-2.212-1.72-3.304-1.653c-2.005,0.124-4.193,0.536-5.902,1.526c-3.747,2.171-7.104,4.945-9.678,8.509
		C272.471,195.91,272.241,196.853,271.627,198.264z M212.546,153.667c0.323-0.176,0.769-0.272,0.954-0.545
		c2.783-4.097,3.185-8.68,2.582-13.423c-0.203-1.601-1.372-2.627-2.648-3.462c-1.549-1.015-3.575-0.833-4.465,0.742
		c-1.084,1.92-2.091,4.016-2.507,6.157C205.504,148.063,207.536,151.314,212.546,153.667z M244.697,147.209
		c3.227-2.896,5.272-6.064,6.661-9.554c0.66-1.66,0.764-3.738,0.492-5.53c-0.473-3.106-3.656-3.998-5.995-1.893
		C241.52,134.135,240.861,141.246,244.697,147.209z M266.669,220.692c4.438,3.195,9.128,4.587,14.318,4.401
		c0.727-0.025,1.571-0.193,2.133-0.606c0.854-0.629,1.822-1.408,2.177-2.34c0.527-1.38-0.463-2.498-1.533-3.326
		c-0.578-0.445-1.271-0.834-1.974-1.016c-3.673-0.949-7.374-1.348-11.083-0.163C269.291,218.094,267.77,218.392,266.669,220.692z
		 M207.657,232.144c3.657,1.888,7.339,2.766,10.795,2.291c1.658-0.228,3.307-0.746,4.872-1.357c1.111-0.433,1.677-1.489,1.653-2.739
		c-0.024-1.301-0.856-2.117-1.923-2.562c-1.026-0.429-2.232-0.952-3.251-0.782c-3.331,0.559-6.648,1.288-9.896,2.22
		C208.713,229.558,207.602,230.552,207.657,232.144z M240.055,197.861c5.266-0.282,9.182-1.815,12.531-4.725
		c0.819-0.712,1.516-1.708,1.932-2.712c0.893-2.163-0.798-4.27-3.093-4.033c-1.926,0.198-3.741,0.78-5.075,2.207
		c-1.922,2.056-3.746,4.21-5.506,6.407C240.429,195.525,240.44,196.386,240.055,197.861z M225.399,153.777
		c5.166-3.442,6.551-5.679,6.646-10.376c0.017-0.795-0.485-1.601-0.726-2.333c-2.345,0.112-3.444,1.365-4.235,2.869
		C225.577,146.801,225.184,149.88,225.399,153.777z M285.542,119.794c3.44-1.692,5.584-4.278,7.027-7.547
		c0.07-0.162,0.064-0.365,0.067-0.549c0.019-1.187-0.275-2.389-1.511-2.634c-0.75-0.147-1.852,0.237-2.444,0.771
		C286.494,111.807,285.552,114.961,285.542,119.794z"/>
	<path fill="#474747" d="M103.104,165.88c-6.282-3.859-12.482-7.851-18.683-11.841c-3.725-2.397-6.683-5.617-8.919-9.389
		c-2.796-4.715-5.574-9.474-7.882-14.436c-2.032-4.367-4.28-8.379-8.266-11.265c-2.046-1.48-3.258-3.692-4.18-5.982
		c-0.979-2.436,0.392-5.575,2.745-6.758c2.032-1.021,4.781,0.034,6.244,2.468c0.484,0.806,0.919,1.674,1.185,2.572
		c0.75,2.533,1.74,5.059,2.025,7.654c0.757,6.903,3.035,13.199,6.716,19.037c0.201,0.318,0.322,0.686,0.516,1.009
		c2.727,4.55,5.355,9.272,9.842,12.313c6.569,4.453,13.345,8.601,20.07,12.819c0.685,0.429,1.628,0.448,2.687,0.718
		c0.364-2.94-0.625-5.268-0.927-7.673c-0.435-3.467-1.793-6.408-4.036-9.182c-2.234-2.766-3.922-5.996-5.677-9.12
		c-1.354-2.411-1.435-5.106-0.743-7.734c1.327-5.033,6.354-6.446,10.159-2.902c1.692,1.576,2.921,3.467,3.483,5.745
		c0.92,3.726,1.134,7.427,0.162,11.219c-0.698,2.724-1.609,5.603-1.367,8.317c0.805,8.994,3.383,17.411,9.48,24.444
		c2.47,2.85,4.665,5.938,7.023,8.886c0.178,0.224,0.666,0.199,1.331,0.376c0.406-0.717,0.951-1.47,1.287-2.306
		c2.087-5.197,2.696-10.556,2.059-16.143c-0.491-4.31-1.681-8.008-5.358-10.788c-2.079-1.571-3.764-3.722-5.419-5.778
		c-2.362-2.934-3.209-6.417-2.808-10.13c0.383-3.547,3.228-4.804,6.097-2.815c1.757,1.219,3.21,2.703,3.694,4.852
		c0.495,2.201,1.007,4.416,1.237,6.652c0.491,4.782,2.458,8.913,5.102,13.37c2.392-2.59,3.544-4.93,2.491-7.997
		c-0.798-2.323-1.589-4.649-2.365-6.98c-0.913-2.744-1-5.543-0.732-8.412c0.369-3.952,2.776-6.033,6.24-7.256
		c2.017-0.711,3.879-0.289,5.086,1.413c3.999,5.634,5.378,11.874,0.896,17.306c-3.38,4.096-6.812,7.986-8.897,12.908
		c-0.141,0.331-0.459,0.604-0.743,0.851c-1.748,1.516-1.941,3.461-1.943,5.655c-0.002,2.623-0.287,5.278-0.783,7.857
		c-0.498,2.585-1.369,5.102-2.147,7.628c-0.887,2.878-0.707,5.574,1.006,8.129c5.848,8.729,13.129,16.088,21.438,22.462
		c0.528,0.405,1.186,1.082,2.083-0.052c-2.354-7.401-4.495-14.99-8.875-21.789c-2.768-4.295-4.6-9.107-5.563-14.189
		c-0.713-3.764,0.042-7.186,2.533-10.095c2.065-2.412,4.66-4.019,7.974-3.264c3.414,0.778,4.784,3.424,5.292,6.641
		c0.059,0.374,0.116,0.748,0.154,1.124c0.719,6.975-0.651,13.613-3.987,19.681c-1.352,2.459-1.584,4.452-0.53,6.897
		c1.197,2.775,2.513,5.551,3.265,8.46c1.487,5.751,5.065,10.254,9.034,14.182c3.825,3.785,6.618,8.234,9.917,12.346
		c0.933,1.162,1.585,2.577,2.208,3.948c0.236,0.519,0.026,1.24,0.012,2.64c-1.602-2.154-2.743-3.605-3.792-5.12
		c-1.505-2.177-3.56-3.29-6.171-3.546c-2.258-0.22-4.517-0.48-6.754-0.85c-4.526-0.745-9.022-0.862-13.508,0.27
		c-2.017,0.509-4.054,0.939-6.079,1.411c-3.971,0.927-7.878,0.699-11.752-0.559c-2.578-0.838-4.068-2.649-4.809-5.162
		c-0.543-1.846,0.025-3.467,1.672-4.376c3.049-1.685,6.243-2.64,9.803-1.867c4.293,0.93,8.48,2.056,11.778,5.201
		c1.594,1.521,3.54,2.101,5.667,2.282c4.147,0.355,8.291,0.751,12.439,1.081c0.84,0.067,1.903,0.462,2.312-0.905
		c-2.475-3.639-5.85-6.337-9.475-8.771c-2.823-1.896-5.773-3.636-8.423-5.75c-3.861-3.08-8.275-4.448-13.048-5.002
		c-0.75-0.087-1.51-0.105-2.266-0.136c-8.303-0.322-16.606-0.647-24.91-0.957c-2.918-0.108-5.728,0.5-8.09,2.187
		c-4.46,3.185-9.65,5.09-13.992,8.542c-4.215,3.351-9.318,4.993-14.756,5.245c-1.303,0.062-2.691-0.008-3.919-0.398
		c-2.175-0.69-4.366-1.635-4.878-4.226c-0.451-2.278,1.721-5.698,4.17-6.855c0.512-0.24,1.045-0.463,1.594-0.592
		c3.711-0.874,7.401-1.449,11.161-0.063c1.944,0.717,3.993,1.184,6.026,1.61c1.084,0.227,2.265,0.316,3.354,0.147
		c3.635-0.56,9.853-4.566,12.608-8.092c-4.538-1.559-8.981-3.083-13.424-4.609c-2.143-0.736-4.233-1.829-6.437-2.147
		c-6.278-0.905-11.811-3.97-17.769-5.778c-2.578-0.781-4.757-2.391-6.514-4.401c-3.106-3.557-2.257-7.226,2.143-8.998
		c1.312-0.529,3.047-0.72,4.375-0.336c2.325,0.674,4.838,1.493,6.641,3.004c3.75,3.143,7.591,6.411,10.445,10.319
		c2.521,3.454,5.365,5.668,9.343,6.753c1.272,0.348,2.479,0.926,3.734,1.347c6.998,2.35,14.001,4.686,21.439,5.222
		c0.884,0.063,1.91,0.288,2.338-1.088c-2.965-3.989-6.585-6.937-11.653-8.288c-3.04-0.811-5.921-2.487-8.629-4.169
		c-1.522-0.945-2.811-2.539-3.728-4.118c-1.13-1.945-0.683-3.994,0.759-5.811c1.31-1.646,2.91-2.233,4.989-1.932
		c2.933,0.426,5.441,1.653,7.422,3.813c2.816,3.068,5.614,6.188,6.882,10.288c0.636,2.057,1.776,3.721,3.341,5.168
		c1.389,1.282,2.778,2.584,4.012,4.012c1.745,2.021,3.912,2.828,6.513,2.858c2.647,0.029,5.292,0.224,7.94,0.253
		c0.83,0.009,1.663-0.281,2.826-0.495c-2.692-4.73-5.86-8.474-8.986-12.252c-1.072-1.297-2.061-2.672-2.987-4.078
		c-1.977-2.998-3.847-6.067-5.848-9.049c-0.722-1.075-1.601-2.085-2.565-2.951c-4.919-4.416-10.614-7.142-17.248-7.858
		c-8.273-0.893-16.529-1.955-24.808-2.785c-4.348-0.435-8.629-0.998-12.774-2.465c-1.399-0.496-2.923-0.731-4.41-0.874
		c-4.504-0.431-9.054-0.522-13.516-1.203c-3.335-0.508-6.604-1.603-9.824-2.673c-1.974-0.656-3.681-1.901-4.975-3.632
		c-2.475-3.311-1.49-7.183,2.324-8.883c2.523-1.125,5.221-1.295,7.788-0.52c6.807,2.053,12.976,5.23,17.104,11.329
		c1.347,1.991,2.968,3.421,5.297,3.957c4.044,0.93,8.064,2.074,12.161,2.654c11.715,1.658,23.607,1.906,35.952,4.727
		C108.445,169.78,106.006,167.663,103.104,165.88z M141.302,179.24c0.374,5.207,2.167,9.947,5.299,14.139
		c0.946,1.267,2.58,1.082,3.156-0.415c1.77-4.598,3.203-9.301,3.252-14.285c0.013-1.308-0.243-2.644-0.56-3.92
		c-0.47-1.889-1.291-3.622-3.443-4.095c-2.058-0.451-3.664,0.529-5.241,1.977C142.298,174.481,141.118,176.674,141.302,179.24z
		 M52.33,159.446c-3.448-3.035-7.488-5.099-11.806-6.582c-1.986-0.681-4.087-0.823-6.14-0.141c-3.322,1.104-4.136,4.12-1.767,6.62
		c0.641,0.676,1.405,1.275,2.205,1.754c4.155,2.488,14.625,3.996,20.452,2.938C55.165,161.938,53.703,160.655,52.33,159.446z
		 M77.002,195.182c-2.574-3.563-5.931-6.338-9.679-8.509c-1.708-0.99-3.897-1.402-5.902-1.526c-1.09-0.066-2.566,0.762-3.303,1.653
		c-0.949,1.146-0.058,2.526,0.729,3.589c0.55,0.742,1.27,1.385,2.006,1.955c3.187,2.471,11.939,5.511,17.521,5.92
		C77.76,196.853,77.529,195.91,77.002,195.182z M143.538,143.136c-0.416-2.141-1.422-4.237-2.507-6.157
		c-0.89-1.575-2.916-1.757-4.464-0.742c-1.276,0.835-2.446,1.862-2.649,3.462c-0.602,4.743-0.2,9.327,2.583,13.423
		c0.186,0.273,0.631,0.369,0.954,0.545C142.463,151.314,144.496,148.063,143.538,143.136z M104.145,130.233
		c-2.338-2.105-5.522-1.213-5.995,1.893c-0.272,1.792-0.168,3.87,0.492,5.53c1.388,3.489,3.434,6.658,6.661,9.554
		C109.139,141.246,108.48,134.135,104.145,130.233z M79.293,217.643c-3.71-1.185-7.41-0.786-11.084,0.163
		c-0.702,0.182-1.396,0.57-1.974,1.016c-1.07,0.828-2.059,1.946-1.532,3.326c0.355,0.932,1.322,1.711,2.177,2.34
		c0.562,0.413,1.406,0.581,2.132,0.606c5.19,0.186,9.88-1.206,14.319-4.401C82.23,218.392,80.708,218.094,79.293,217.643z
		 M140.092,229.214c-3.246-0.932-6.564-1.661-9.896-2.22c-1.018-0.17-2.224,0.354-3.251,0.782c-1.065,0.444-1.897,1.261-1.922,2.562
		c-0.023,1.25,0.542,2.307,1.653,2.739c1.565,0.611,3.214,1.13,4.873,1.357c3.456,0.475,7.138-0.403,10.793-2.291
		C142.398,230.552,141.288,229.558,140.092,229.214z M109.156,195.006c-1.759-2.197-3.583-4.352-5.506-6.407
		c-1.333-1.427-3.148-2.009-5.074-2.207c-2.295-0.236-3.986,1.87-3.093,4.033c0.415,1.004,1.112,2,1.931,2.712
		c3.349,2.909,7.266,4.442,12.531,4.725C109.559,196.386,109.571,195.525,109.156,195.006z M122.916,143.937
		c-0.792-1.504-1.891-2.757-4.235-2.869c-0.24,0.732-0.742,1.538-0.726,2.333c0.095,4.697,1.481,6.934,6.647,10.376
		C124.816,149.88,124.422,146.801,122.916,143.937z M61.318,109.835c-0.592-0.534-1.695-0.918-2.444-0.771
		c-1.236,0.245-1.53,1.447-1.51,2.634c0.003,0.184-0.004,0.388,0.067,0.549c1.443,3.269,3.586,5.855,7.027,7.547
		C64.448,114.961,63.506,111.807,61.318,109.835z"/>
</g>
<g>
	<path fill="#474747" d="M457.054,518.483c10.949-2.502,21.498-2.722,31.889-4.192c3.634-0.515,7.199-1.529,10.786-2.354
		c2.066-0.476,3.504-1.744,4.699-3.51c3.661-5.409,9.133-8.228,15.171-10.049c2.276-0.688,4.669-0.537,6.907,0.461
		c3.383,1.508,4.256,4.942,2.061,7.879c-1.147,1.535-2.661,2.64-4.412,3.222c-2.855,0.949-5.755,1.92-8.714,2.371
		c-3.958,0.604-7.993,0.685-11.988,1.066c-1.319,0.127-2.67,0.336-3.912,0.775c-3.677,1.302-7.475,1.801-11.33,2.187
		c-7.344,0.736-14.666,1.679-22.004,2.471c-5.885,0.636-10.936,3.054-15.298,6.971c-0.855,0.769-1.636,1.664-2.275,2.617
		c-1.775,2.645-3.434,5.367-5.188,8.026c-0.821,1.247-1.698,2.467-2.649,3.617c-2.772,3.352-5.582,6.672-7.971,10.867
		c1.032,0.189,1.771,0.447,2.507,0.439c2.349-0.026,4.695-0.198,7.043-0.225c2.307-0.026,4.229-0.743,5.776-2.535
		c1.094-1.267,2.327-2.421,3.559-3.559c1.388-1.283,2.399-2.76,2.964-4.584c1.124-3.637,3.605-6.403,6.104-9.125
		c1.758-1.915,3.982-3.004,6.584-3.382c1.844-0.268,3.263,0.253,4.425,1.714c1.279,1.61,1.676,3.428,0.673,5.153
		c-0.814,1.4-1.956,2.814-3.307,3.653c-2.401,1.491-4.957,2.979-7.653,3.697c-4.496,1.199-7.706,3.813-10.337,7.352
		c0.38,1.221,1.29,1.021,2.074,0.965c6.597-0.476,12.81-2.548,19.017-4.632c1.112-0.373,2.184-0.886,3.312-1.194
		c3.529-0.962,6.051-2.926,8.287-5.989c2.532-3.467,5.938-6.366,9.265-9.153c1.6-1.34,3.829-2.066,5.891-2.664
		c1.179-0.341,2.718-0.172,3.881,0.298c3.903,1.572,4.655,4.826,1.901,7.98c-1.559,1.784-3.492,3.211-5.778,3.904
		c-5.284,1.604-10.191,4.322-15.761,5.125c-1.954,0.282-3.809,1.252-5.709,1.905c-3.94,1.354-7.882,2.706-11.907,4.088
		c2.444,3.127,7.96,6.682,11.184,7.178c0.966,0.149,2.013,0.07,2.976-0.131c1.803-0.379,3.62-0.793,5.345-1.429
		c3.335-1.229,6.607-0.72,9.899,0.056c0.486,0.114,0.96,0.312,1.414,0.525c2.172,1.026,4.098,4.06,3.698,6.08
		c-0.455,2.298-2.397,3.136-4.327,3.748c-1.089,0.347-2.32,0.408-3.476,0.354c-4.823-0.224-9.35-1.681-13.089-4.652
		c-3.851-3.062-8.455-4.752-12.41-7.576c-2.096-1.496-4.588-2.036-7.176-1.939c-7.365,0.274-14.73,0.563-22.096,0.849
		c-0.67,0.026-1.344,0.043-2.009,0.12c-4.234,0.491-8.149,1.705-11.574,4.437c-2.351,1.876-4.967,3.418-7.471,5.101
		c-3.215,2.159-6.208,4.553-8.404,7.78c0.363,1.213,1.306,0.862,2.051,0.803c3.681-0.293,7.355-0.644,11.033-0.959
		c1.888-0.161,3.613-0.676,5.027-2.024c2.925-2.79,6.639-3.788,10.447-4.613c3.157-0.685,5.99,0.162,8.694,1.656
		c1.461,0.807,1.965,2.244,1.483,3.882c-0.657,2.229-1.979,3.835-4.266,4.578c-3.436,1.116-6.901,1.317-10.424,0.496
		c-1.797-0.419-3.604-0.801-5.393-1.252c-3.979-1.004-7.966-0.9-11.981-0.239c-1.984,0.327-3.988,0.559-5.99,0.754
		c-2.316,0.227-4.139,1.214-5.475,3.145c-0.93,1.344-1.942,2.631-3.363,4.542c-0.012-1.241-0.198-1.882,0.011-2.342
		c0.553-1.216,1.131-2.471,1.958-3.502c2.927-3.646,5.403-7.593,8.796-10.95c3.521-3.483,6.694-7.478,8.014-12.579
		c0.666-2.58,1.833-5.042,2.896-7.504c0.935-2.169,0.729-3.937-0.471-6.117c-2.958-5.382-4.174-11.271-3.536-17.457
		c0.034-0.334,0.084-0.666,0.137-0.997c0.451-2.854,1.666-5.2,4.694-5.891c2.939-0.67,5.24,0.756,7.072,2.895
		c2.211,2.581,2.88,5.616,2.247,8.955c-0.854,4.508-2.479,8.776-4.935,12.586c-3.885,6.03-5.785,12.762-7.872,19.326
		c0.795,1.006,1.379,0.405,1.848,0.046c7.369-5.653,13.827-12.181,19.015-19.923c1.52-2.267,1.68-4.658,0.893-7.211
		c-0.69-2.24-1.463-4.473-1.905-6.766c-0.44-2.287-0.692-4.644-0.694-6.97c-0.001-1.945-0.173-3.671-1.723-5.016
		c-0.252-0.219-0.535-0.462-0.659-0.755c-1.851-4.366-4.895-7.816-7.893-11.449c-3.976-4.818-2.752-10.354,0.795-15.351
		c1.07-1.509,2.722-1.884,4.511-1.253c3.072,1.085,5.207,2.931,5.535,6.437c0.237,2.544,0.159,5.027-0.65,7.461
		c-0.688,2.067-1.39,4.131-2.098,6.191c-0.934,2.72,0.088,4.796,2.209,7.093c2.346-3.953,4.09-7.617,4.525-11.858
		c0.204-1.983,0.658-3.948,1.098-5.9c0.43-1.906,1.718-3.223,3.276-4.304c2.544-1.764,5.067-0.649,5.407,2.497
		c0.356,3.293-0.395,6.383-2.49,8.985c-1.469,1.823-2.964,3.731-4.808,5.125c-3.261,2.465-4.316,5.745-4.752,9.568
		c-0.565,4.955-0.025,9.709,1.826,14.318c0.298,0.741,0.781,1.409,1.142,2.045c0.59-0.156,1.021-0.135,1.18-0.333
		c2.092-2.615,4.038-5.354,6.229-7.882c5.408-6.238,7.694-13.704,8.409-21.682c0.216-2.407-0.593-4.961-1.213-7.377
		c-0.862-3.363-0.672-6.646,0.145-9.951c0.499-2.021,1.589-3.698,3.09-5.096c3.374-3.144,7.833-1.89,9.01,2.574
		c0.614,2.331,0.542,4.722-0.659,6.86c-1.556,2.771-3.053,5.636-5.035,8.089c-1.988,2.461-3.193,5.069-3.579,8.145
		c-0.269,2.133-1.146,4.197-0.822,6.806c0.938-0.239,1.775-0.256,2.383-0.637c5.966-3.741,11.976-7.421,17.802-11.37
		c3.979-2.696,6.312-6.885,8.73-10.921c0.172-0.287,0.279-0.613,0.457-0.896c3.265-5.178,5.285-10.762,5.957-16.885
		c0.253-2.302,1.131-4.542,1.796-6.789c0.235-0.796,0.621-1.566,1.051-2.281c1.297-2.158,3.735-3.095,5.538-2.188
		c2.088,1.05,3.304,3.834,2.435,5.994c-0.817,2.031-1.892,3.993-3.707,5.307c-3.536,2.56-5.529,6.118-7.331,9.991
		c-2.048,4.401-4.513,8.622-6.992,12.805c-1.983,3.346-4.606,6.202-7.911,8.328c-5.499,3.539-10.999,7.08-16.57,10.503
		C461.196,513.537,459.032,515.415,457.054,518.483z M427.705,517.952c-1.399-1.284-2.823-2.153-4.648-1.753
		c-1.909,0.419-2.638,1.956-3.054,3.632c-0.282,1.133-0.509,2.318-0.497,3.478c0.044,4.421,1.314,8.593,2.885,12.671
		c0.511,1.328,1.96,1.491,2.8,0.368c2.777-3.718,4.368-7.922,4.699-12.541C430.053,521.53,429.006,519.585,427.705,517.952z
		 M506.194,510.32c5.169,0.938,14.455-0.399,18.141-2.606c0.71-0.425,1.388-0.956,1.956-1.556c2.102-2.218,1.38-4.893-1.567-5.872
		c-1.82-0.605-3.684-0.479-5.446,0.125c-3.829,1.315-7.412,3.146-10.471,5.838C507.588,507.321,506.292,508.46,506.194,510.32z
		 M485.706,540.681c4.951-0.363,12.714-3.06,15.541-5.251c0.652-0.506,1.292-1.076,1.778-1.734c0.698-0.942,1.488-2.166,0.646-3.184
		c-0.653-0.79-1.962-1.525-2.93-1.466c-1.778,0.109-3.72,0.476-5.235,1.354c-3.324,1.926-6.301,4.387-8.584,7.547
		C486.455,538.593,486.251,539.429,485.706,540.681z M433.303,501.124c0.286-0.156,0.682-0.241,0.846-0.483
		c2.469-3.634,2.825-7.699,2.291-11.906c-0.181-1.42-1.218-2.33-2.35-3.071c-1.374-0.9-3.171-0.738-3.96,0.658
		c-0.962,1.703-1.854,3.563-2.224,5.461C427.057,496.152,428.859,499.036,433.303,501.124z M461.82,495.396
		c2.862-2.568,4.677-5.379,5.908-8.474c0.586-1.473,0.678-3.315,0.437-4.905c-0.419-2.755-3.243-3.546-5.317-1.679
		C459.002,483.799,458.418,490.106,461.82,495.396z M481.309,560.574c3.937,2.834,8.097,4.068,12.7,3.904
		c0.645-0.022,1.394-0.172,1.892-0.538c0.758-0.558,1.616-1.249,1.931-2.075c0.468-1.225-0.41-2.216-1.359-2.95
		c-0.513-0.396-1.128-0.74-1.751-0.901c-3.258-0.842-6.54-1.195-9.83-0.145C483.635,558.27,482.285,558.533,481.309,560.574z
		 M428.967,570.731c3.243,1.674,6.509,2.453,9.574,2.032c1.471-0.202,2.934-0.662,4.321-1.204c0.986-0.384,1.487-1.321,1.467-2.43
		c-0.021-1.154-0.76-1.878-1.705-2.272c-0.911-0.38-1.98-0.845-2.884-0.693c-2.955,0.495-5.897,1.143-8.777,1.969
		C429.902,568.438,428.917,569.319,428.967,570.731z M457.702,540.323c4.671-0.25,8.145-1.61,11.115-4.19
		c0.727-0.632,1.345-1.515,1.713-2.405c0.792-1.919-0.707-3.787-2.743-3.577c-1.708,0.176-3.318,0.691-4.501,1.957
		c-1.705,1.823-3.323,3.734-4.884,5.684C458.034,538.252,458.045,539.015,457.702,540.323z M444.703,501.221
		c4.582-3.053,5.811-5.037,5.896-9.203c0.015-0.705-0.431-1.42-0.644-2.069c-2.08,0.1-3.055,1.211-3.757,2.545
		C444.861,495.033,444.512,497.765,444.703,501.221z M498.049,471.079c3.052-1.501,4.953-3.795,6.233-6.694
		c0.063-0.144,0.057-0.324,0.06-0.487c0.017-1.053-0.244-2.119-1.34-2.336c-0.665-0.131-1.643,0.21-2.168,0.684
		C498.894,463.994,498.058,466.792,498.049,471.079z"/>
	<path fill="#474747" d="M336.229,511.956c-5.571-3.423-11.071-6.964-16.57-10.503c-3.305-2.126-5.928-4.982-7.911-8.328
		c-2.479-4.183-4.944-8.403-6.991-12.805c-1.803-3.873-3.797-7.432-7.332-9.991c-1.814-1.313-2.891-3.275-3.707-5.307
		c-0.869-2.16,0.347-4.944,2.434-5.994c1.803-0.906,4.242,0.03,5.539,2.188c0.43,0.715,0.815,1.485,1.051,2.281
		c0.665,2.247,1.543,4.487,1.796,6.789c0.672,6.123,2.692,11.707,5.957,16.885c0.179,0.282,0.286,0.608,0.458,0.896
		c2.418,4.036,4.75,8.225,8.729,10.921c5.827,3.949,11.838,7.629,17.803,11.37c0.607,0.381,1.443,0.397,2.383,0.637
		c0.324-2.608-0.555-4.673-0.822-6.806c-0.386-3.075-1.59-5.684-3.58-8.145c-1.981-2.453-3.479-5.318-5.035-8.089
		c-1.201-2.139-1.272-4.529-0.658-6.86c1.177-4.464,5.635-5.718,9.01-2.574c1.502,1.397,2.592,3.075,3.09,5.096
		c0.816,3.305,1.006,6.588,0.145,9.951c-0.619,2.416-1.428,4.97-1.213,7.377c0.715,7.978,3.001,15.443,8.409,21.682
		c2.19,2.527,4.138,5.267,6.229,7.882c0.158,0.198,0.59,0.177,1.18,0.333c0.361-0.636,0.844-1.304,1.142-2.045
		c1.852-4.609,2.392-9.363,1.826-14.318c-0.436-3.823-1.491-7.104-4.753-9.568c-1.844-1.394-3.338-3.302-4.807-5.125
		c-2.096-2.603-2.847-5.692-2.49-8.985c0.34-3.146,2.863-4.261,5.407-2.497c1.559,1.081,2.847,2.397,3.276,4.304
		c0.439,1.952,0.894,3.917,1.098,5.9c0.436,4.241,2.18,7.905,4.525,11.858c2.121-2.297,3.143-4.373,2.209-7.093
		c-0.707-2.061-1.41-4.124-2.098-6.191c-0.811-2.434-0.888-4.917-0.65-7.461c0.328-3.506,2.463-5.352,5.535-6.437
		c1.789-0.631,3.44-0.256,4.512,1.253c3.546,4.997,4.77,10.532,0.794,15.351c-2.998,3.633-6.042,7.083-7.892,11.449
		c-0.125,0.293-0.408,0.536-0.66,0.755c-1.55,1.345-1.721,3.07-1.723,5.016c-0.002,2.326-0.254,4.683-0.695,6.97
		c-0.441,2.293-1.213,4.525-1.904,6.766c-0.787,2.553-0.627,4.944,0.893,7.211c5.188,7.742,11.645,14.27,19.015,19.923
		c0.469,0.359,1.052,0.96,1.848-0.046c-2.087-6.564-3.987-13.296-7.872-19.326c-2.455-3.81-4.08-8.078-4.935-12.586
		c-0.632-3.339,0.036-6.374,2.247-8.955c1.832-2.139,4.133-3.564,7.072-2.895c3.027,0.69,4.243,3.037,4.694,5.891
		c0.052,0.331,0.103,0.663,0.137,0.997c0.638,6.187-0.577,12.075-3.536,17.457c-1.199,2.181-1.405,3.948-0.471,6.117
		c1.063,2.462,2.229,4.924,2.896,7.504c1.318,5.102,4.492,9.096,8.012,12.579c3.393,3.357,5.871,7.304,8.797,10.95
		c0.827,1.031,1.405,2.286,1.957,3.502c0.21,0.46,0.023,1.101,0.012,2.342c-1.421-1.911-2.434-3.198-3.363-4.542
		c-1.336-1.931-3.158-2.918-5.475-3.145c-2.002-0.195-4.006-0.427-5.99-0.754c-4.016-0.661-8.002-0.765-11.982,0.239
		c-1.788,0.451-3.595,0.833-5.392,1.252c-3.522,0.821-6.987,0.62-10.424-0.496c-2.287-0.743-3.608-2.35-4.265-4.578
		c-0.482-1.638,0.021-3.075,1.482-3.882c2.704-1.494,5.537-2.341,8.695-1.656c3.808,0.825,7.521,1.823,10.446,4.613
		c1.414,1.349,3.14,1.863,5.026,2.024c3.679,0.315,7.354,0.666,11.033,0.959c0.746,0.06,1.688,0.41,2.051-0.803
		c-2.195-3.228-5.188-5.621-8.403-7.78c-2.504-1.683-5.12-3.225-7.472-5.101c-3.424-2.731-7.34-3.945-11.572-4.437
		c-0.666-0.077-1.34-0.094-2.01-0.12c-7.365-0.286-14.73-0.574-22.096-0.849c-2.588-0.097-5.08,0.443-7.176,1.939
		c-3.955,2.824-8.559,4.515-12.41,7.576c-3.739,2.972-8.266,4.429-13.088,4.652c-1.156,0.055-2.388-0.007-3.477-0.354
		c-1.93-0.612-3.873-1.45-4.327-3.748c-0.399-2.021,1.526-5.054,3.698-6.08c0.454-0.214,0.928-0.411,1.414-0.525
		c3.291-0.775,6.564-1.285,9.899-0.056c1.724,0.636,3.542,1.05,5.345,1.429c0.963,0.201,2.01,0.28,2.976,0.131
		c3.224-0.496,8.739-4.051,11.183-7.178c-4.024-1.382-7.965-2.734-11.906-4.088c-1.9-0.653-3.755-1.623-5.709-1.905
		c-5.568-0.803-10.477-3.521-15.761-5.125c-2.286-0.693-4.22-2.12-5.778-3.904c-2.754-3.154-2.002-6.408,1.901-7.98
		c1.163-0.47,2.702-0.639,3.881-0.298c2.062,0.598,4.291,1.324,5.89,2.664c3.327,2.787,6.733,5.687,9.266,9.153
		c2.236,3.063,4.758,5.027,8.287,5.989c1.129,0.309,2.199,0.821,3.312,1.194c6.207,2.084,12.419,4.156,19.017,4.632
		c0.784,0.057,1.693,0.256,2.074-0.965c-2.631-3.538-5.842-6.152-10.336-7.352c-2.697-0.719-5.252-2.206-7.654-3.697
		c-1.35-0.839-2.492-2.253-3.307-3.653c-1.002-1.726-0.605-3.543,0.674-5.153c1.16-1.461,2.58-1.981,4.424-1.714
		c2.602,0.378,4.826,1.467,6.584,3.382c2.498,2.722,4.979,5.488,6.104,9.125c0.564,1.824,1.576,3.301,2.964,4.584
		c1.231,1.138,2.464,2.292,3.558,3.559c1.549,1.792,3.471,2.509,5.777,2.535c2.348,0.026,4.694,0.198,7.043,0.225
		c0.735,0.008,1.475-0.25,2.506-0.439c-2.388-4.195-5.197-7.516-7.97-10.867c-0.951-1.15-1.828-2.37-2.649-3.617
		c-1.754-2.659-3.412-5.382-5.188-8.026c-0.64-0.953-1.42-1.849-2.275-2.617c-4.362-3.917-9.414-6.335-15.298-6.971
		c-7.338-0.792-14.661-1.734-22.004-2.471c-3.856-0.386-7.653-0.885-11.331-2.187c-1.24-0.439-2.592-0.648-3.911-0.775
		c-3.995-0.382-8.03-0.463-11.989-1.066c-2.958-0.451-5.857-1.422-8.713-2.371c-1.751-0.582-3.265-1.687-4.412-3.222
		c-2.195-2.937-1.322-6.371,2.061-7.879c2.238-0.998,4.631-1.148,6.908-0.461c6.037,1.821,11.51,4.64,15.17,10.049
		c1.195,1.766,2.633,3.034,4.699,3.51c3.587,0.825,7.152,1.84,10.786,2.354c10.391,1.471,20.938,1.69,31.888,4.192
		C340.967,515.415,338.803,513.537,336.229,511.956z M370.11,523.807c0.331,4.619,1.922,8.823,4.7,12.541
		c0.839,1.123,2.287,0.96,2.799-0.368c1.57-4.078,2.841-8.25,2.885-12.671c0.012-1.159-0.215-2.345-0.496-3.478
		c-0.418-1.676-1.146-3.213-3.055-3.632c-1.826-0.4-3.25,0.469-4.648,1.753C370.994,519.585,369.947,521.53,370.11,523.807z
		 M291.193,506.249c-3.059-2.691-6.642-4.522-10.471-5.838c-1.763-0.604-3.626-0.73-5.447-0.125
		c-2.946,0.979-3.668,3.654-1.566,5.872c0.568,0.6,1.246,1.131,1.955,1.556c3.687,2.207,12.973,3.544,18.141,2.606
		C293.708,508.46,292.412,507.321,291.193,506.249z M313.078,537.946c-2.283-3.16-5.262-5.621-8.585-7.547
		c-1.515-0.878-3.457-1.244-5.235-1.354c-0.967-0.06-2.275,0.676-2.93,1.466c-0.842,1.018-0.051,2.241,0.646,3.184
		c0.486,0.658,1.126,1.229,1.778,1.734c2.827,2.191,10.59,4.888,15.541,5.251C313.75,539.429,313.545,538.593,313.078,537.946z
		 M372.094,491.782c-0.369-1.898-1.262-3.758-2.224-5.461c-0.79-1.396-2.586-1.559-3.96-0.658c-1.131,0.741-2.17,1.651-2.35,3.071
		c-0.534,4.207-0.178,8.272,2.291,11.906c0.164,0.242,0.56,0.327,0.846,0.483C371.141,499.036,372.943,496.152,372.094,491.782z
		 M337.152,480.338c-2.074-1.867-4.898-1.076-5.317,1.679c-0.241,1.59-0.149,3.433,0.437,4.905c1.23,3.095,3.046,5.905,5.908,8.474
		C341.582,490.106,340.998,483.799,337.152,480.338z M315.109,557.869c-3.29-1.051-6.572-0.697-9.83,0.145
		c-0.623,0.161-1.238,0.506-1.752,0.901c-0.949,0.734-1.826,1.726-1.358,2.95c0.315,0.826,1.173,1.518,1.931,2.075
		c0.498,0.366,1.247,0.516,1.892,0.538c4.604,0.164,8.764-1.07,12.7-3.904C317.715,558.533,316.365,558.27,315.109,557.869z
		 M369.037,568.133c-2.879-0.826-5.822-1.474-8.777-1.969c-0.903-0.151-1.973,0.313-2.885,0.693
		c-0.944,0.395-1.683,1.118-1.704,2.272c-0.021,1.108,0.481,2.046,1.466,2.43c1.389,0.542,2.852,1.002,4.322,1.204
		c3.065,0.421,6.331-0.358,9.574-2.032C371.083,569.319,370.098,568.438,369.037,568.133z M341.598,537.791
		c-1.561-1.949-3.178-3.86-4.884-5.684c-1.183-1.266-2.793-1.781-4.501-1.957c-2.035-0.21-3.535,1.658-2.743,3.577
		c0.368,0.891,0.986,1.773,1.713,2.405c2.971,2.58,6.444,3.94,11.114,4.19C341.955,539.015,341.965,538.252,341.598,537.791z
		 M353.802,492.493c-0.702-1.334-1.677-2.445-3.757-2.545c-0.213,0.649-0.658,1.364-0.644,2.069c0.085,4.166,1.313,6.15,5.896,9.203
		C355.488,497.765,355.139,495.033,353.802,492.493z M299.166,462.245c-0.525-0.474-1.504-0.814-2.168-0.684
		c-1.096,0.217-1.357,1.283-1.34,2.336c0.003,0.163-0.004,0.344,0.061,0.487c1.279,2.899,3.181,5.193,6.232,6.694
		C301.942,466.792,301.106,463.994,299.166,462.245z"/>
</g>
</svg>
