<?xml version="1.0" encoding="utf-8"?>
<!-- Generator: Adobe Illustrator 16.0.0, SVG Export Plug-In . SVG Version: 6.00 Build 0)  -->
<!DOCTYPE svg PUBLIC "-//W3C//DTD SVG 1.1//EN" "http://www.w3.org/Graphics/SVG/1.1/DTD/svg11.dtd">
<svg version="1.1" id="Layer_1" xmlns="http://www.w3.org/2000/svg" xmlns:xlink="http://www.w3.org/1999/xlink" x="0px" y="0px"
	 width="350px" height="350px" viewBox="0 0 350 350" enable-background="new 0 0 350 350" xml:space="preserve">
<path fill="#71C7F5" d="M249.11,175.93c57.503,0,32.399-77.256-14.12-43.456c46.52-33.8-19.198-81.546-36.968-26.858
	c17.77-54.688-63.462-54.688-45.693,0c-17.77-54.688-83.487-6.942-36.966,26.858c-46.521-33.8-71.624,43.456-14.12,43.456
	c-57.503,0-32.401,77.257,14.12,43.458c-46.521,33.8,19.197,81.547,36.966,26.858c-17.77,54.688,63.462,54.688,45.693,0
	c17.77,54.688,83.487,6.941,36.968-26.858C281.51,253.188,306.613,175.93,249.11,175.93z M198.012,120.939
	c1.108-2.195,3.787-3.077,5.983-1.967c5.53,2.794,10.606,6.361,15.086,10.605c1.785,1.692,1.861,4.509,0.169,6.296
	c-0.875,0.922-2.053,1.389-3.234,1.389c-1.099,0-2.2-0.404-3.062-1.22c-3.851-3.649-8.216-6.718-12.976-9.122
	C197.784,125.813,196.903,123.133,198.012,120.939z M165.029,112.897c6.062-0.979,12.317-1.07,18.442-0.261
	c2.438,0.321,4.155,2.558,3.833,4.996c-0.321,2.441-2.561,4.155-4.996,3.834c-5.271-0.692-10.646-0.618-15.86,0.224
	c-0.241,0.038-0.479,0.057-0.715,0.057c-2.148,0-4.039-1.556-4.392-3.744C160.95,115.574,162.6,113.288,165.029,112.897z
	 M112.109,166.062c0.96-6.104,2.794-12.028,5.451-17.608c1.057-2.222,3.717-3.165,5.935-2.106c2.221,1.058,3.164,3.715,2.106,5.937
	c-2.288,4.805-3.866,9.906-4.693,15.162c-0.345,2.195-2.239,3.761-4.394,3.761c-0.23,0-0.463-0.017-0.697-0.053
	C113.387,170.77,111.727,168.491,112.109,166.062z M124.34,206.884c-0.666,0.346-1.376,0.51-2.075,0.51
	c-1.582,0-3.102-0.845-3.893-2.348c-0.029-0.053-0.099-0.193-0.125-0.247c-2.749-5.391-4.736-11.232-5.853-17.252
	c-0.449-2.417,1.148-4.741,3.566-5.188c2.417-0.457,4.743,1.147,5.191,3.566c0.96,5.176,2.671,10.203,5.086,14.94
	C127.35,203.047,126.514,205.759,124.34,206.884z M129.933,130.882c4.347-4.363,9.315-8.077,14.768-11.039
	c2.161-1.172,4.866-0.371,6.039,1.788c1.174,2.162,0.374,4.865-1.788,6.04c-4.694,2.548-8.97,5.745-12.708,9.496
	c-0.87,0.875-2.013,1.312-3.156,1.312c-1.137,0-2.273-0.432-3.142-1.299C128.203,135.444,128.197,132.624,129.933,130.882z
	 M152.252,230.886c-0.785,1.549-2.351,2.442-3.975,2.442c-0.677,0-1.365-0.156-2.01-0.484c-5.525-2.8-10.596-6.376-15.069-10.629
	c-1.782-1.694-1.854-4.514-0.159-6.296c1.693-1.783,4.513-1.854,6.295-0.159c3.846,3.654,8.207,6.731,12.96,9.141
	C152.488,226.012,153.365,228.691,152.252,230.886z M185.223,238.983c-3.293,0.524-6.654,0.792-9.999,0.792
	c-2.815,0-5.656-0.189-8.444-0.562c-2.438-0.326-4.15-2.566-3.825-5.004c0.326-2.437,2.568-4.14,5.003-3.825
	c5.245,0.699,10.647,0.636,15.861-0.198c2.429-0.388,4.709,1.267,5.099,3.696C189.307,236.312,187.652,238.596,185.223,238.983z
	 M175.176,213.041c-20.496,0-37.11-16.614-37.11-37.111c0-20.495,16.614-37.11,37.11-37.11c20.496,0,37.111,16.615,37.111,37.11
	C212.287,196.427,195.672,213.041,175.176,213.041z M220.348,221.051c-4.354,4.358-9.329,8.064-14.785,11.017
	c-0.674,0.364-1.399,0.538-2.116,0.538c-1.581,0-3.114-0.847-3.921-2.337c-1.169-2.163-0.363-4.865,1.8-6.035
	c4.698-2.54,8.979-5.729,12.723-9.476c1.737-1.742,4.558-1.745,6.297-0.004C222.084,216.493,222.087,219.312,220.348,221.051z
	 M224.032,150.84c-1.121-2.189-0.259-4.874,1.931-5.996c2.187-1.124,4.872-0.258,5.994,1.931l0.085,0.167
	c2.826,5.544,4.82,11.419,5.932,17.474c0.445,2.417-1.155,4.74-3.572,5.183c-0.272,0.052-0.545,0.075-0.812,0.075
	c-2.106,0-3.979-1.503-4.375-3.649c-0.957-5.206-2.674-10.262-5.102-15.027L224.032,150.84z M238.227,185.902
	c-0.971,6.103-2.814,12.023-5.479,17.6c-0.766,1.6-2.36,2.534-4.022,2.534c-0.643,0-1.297-0.14-1.918-0.437
	c-2.218-1.061-3.156-3.72-2.095-5.938c2.295-4.803,3.881-9.901,4.718-15.156c0.386-2.43,2.667-4.086,5.097-3.699
	S238.613,183.474,238.227,185.902z"/>
</svg>
