<?xml version="1.0" encoding="utf-8"?>
<!-- Generator: Adobe Illustrator 16.0.0, SVG Export Plug-In . SVG Version: 6.00 Build 0)  -->
<!DOCTYPE svg PUBLIC "-//W3C//DTD SVG 1.1//EN" "http://www.w3.org/Graphics/SVG/1.1/DTD/svg11.dtd">
<svg version="1.1" id="Layer_1" xmlns="http://www.w3.org/2000/svg" xmlns:xlink="http://www.w3.org/1999/xlink" x="0px" y="0px"
	 width="350px" height="350px" viewBox="0 0 350 350" enable-background="new 0 0 350 350" xml:space="preserve">
<g>
	<g>
		
			<radialGradient id="SVGID_1_" cx="-391.3765" cy="741.2021" r="0.0183" gradientTransform="matrix(688.5707 326.1431 326.1431 -688.5707 27963.5 638299.75)" gradientUnits="userSpaceOnUse">
			<stop  offset="0" style="stop-color:#FFFFFF"/>
			<stop  offset="0.3901" style="stop-color:#FFFFFF"/>
			<stop  offset="0.989" style="stop-color:#ABABAB"/>
		</radialGradient>
		<path fill="url(#SVGID_1_)" d="M212.043,275.53c6.988,3.31,9.977,11.668,6.668,18.662c-3.315,6.994-11.668,9.977-18.669,6.667
			c-6.987-3.314-9.976-11.674-6.667-18.661C196.696,275.203,205.049,272.216,212.043,275.53z"/>
		<g>
			
				<linearGradient id="SVGID_2_" gradientUnits="userSpaceOnUse" x1="264.0752" y1="167.5342" x2="255.139" y2="183.936" gradientTransform="matrix(0.9037 0.4281 -0.4281 0.9037 43.438 17.7412)">
				<stop  offset="0.1868" style="stop-color:#686868"/>
				<stop  offset="0.3482" style="stop-color:#434343"/>
				<stop  offset="0.5104" style="stop-color:#262626"/>
				<stop  offset="0.6712" style="stop-color:#111111"/>
				<stop  offset="0.8285" style="stop-color:#040404"/>
				<stop  offset="0.978" style="stop-color:#000000"/>
			</linearGradient>
			<path fill="url(#SVGID_2_)" d="M202.833,286.42c1.086-0.537,3.099-1.185,5.957-1.926l0.006,0.013l0.025,0.062
				c-2.853,0.741-4.877,1.389-5.964,1.92l0,0L202.833,286.42L202.833,286.42z"/>
		</g>
		<g>
			
				<linearGradient id="SVGID_3_" gradientUnits="userSpaceOnUse" x1="271.7783" y1="171.731" x2="262.8435" y2="188.1303" gradientTransform="matrix(0.9037 0.4281 -0.4281 0.9037 43.438 17.7412)">
				<stop  offset="0.1868" style="stop-color:#686868"/>
				<stop  offset="0.3482" style="stop-color:#434343"/>
				<stop  offset="0.5104" style="stop-color:#262626"/>
				<stop  offset="0.6712" style="stop-color:#111111"/>
				<stop  offset="0.8285" style="stop-color:#040404"/>
				<stop  offset="0.978" style="stop-color:#000000"/>
			</linearGradient>
			<path fill="url(#SVGID_3_)" d="M213.031,288.513l0.013,0.007l0.055,0.012c-0.29,2.408-0.809,4.513-1.5,6.198l0,0l-0.067-0.024
				c0.691-1.68,1.191-3.772,1.481-6.174L213.031,288.513z"/>
		</g>
		<g>
			
				<linearGradient id="SVGID_4_" gradientUnits="userSpaceOnUse" x1="271.7969" y1="171.7642" x2="262.8188" y2="188.2429" gradientTransform="matrix(0.9037 0.4281 -0.4281 0.9037 43.438 17.7412)">
				<stop  offset="0.1868" style="stop-color:#686868"/>
				<stop  offset="0.3482" style="stop-color:#434343"/>
				<stop  offset="0.5104" style="stop-color:#262626"/>
				<stop  offset="0.6712" style="stop-color:#111111"/>
				<stop  offset="0.8285" style="stop-color:#040404"/>
				<stop  offset="0.978" style="stop-color:#000000"/>
			</linearGradient>
			<path fill="url(#SVGID_4_)" d="M216.858,286.063L216.858,286.063l0.05-0.062c1.049,0.827,1.877,1.766,2.481,2.821l0,0
				l-0.068,0.036C218.723,287.815,217.896,286.884,216.858,286.063L216.858,286.063z"/>
		</g>
		<g>
			
				<linearGradient id="SVGID_5_" gradientUnits="userSpaceOnUse" x1="259.9902" y1="165.3125" x2="251.0644" y2="181.6954" gradientTransform="matrix(0.9037 0.4281 -0.4281 0.9037 43.438 17.7412)">
				<stop  offset="0.1868" style="stop-color:#686868"/>
				<stop  offset="0.3482" style="stop-color:#434343"/>
				<stop  offset="0.5104" style="stop-color:#262626"/>
				<stop  offset="0.6712" style="stop-color:#111111"/>
				<stop  offset="0.8285" style="stop-color:#040404"/>
				<stop  offset="0.978" style="stop-color:#000000"/>
			</linearGradient>
			<path fill="url(#SVGID_5_)" d="M206.16,276.352l0.031-0.067c1.901,0.9,3.284,2.024,4.123,3.383l0,0l0,0l-0.062,0.037
				C209.413,278.364,208.056,277.247,206.16,276.352L206.16,276.352z"/>
		</g>
		<g>
			
				<linearGradient id="SVGID_6_" gradientUnits="userSpaceOnUse" x1="257.3682" y1="163.8765" x2="248.4369" y2="180.2692" gradientTransform="matrix(0.9037 0.4281 -0.4281 0.9037 43.438 17.7412)">
				<stop  offset="0.1868" style="stop-color:#686868"/>
				<stop  offset="0.3482" style="stop-color:#434343"/>
				<stop  offset="0.5104" style="stop-color:#262626"/>
				<stop  offset="0.6712" style="stop-color:#111111"/>
				<stop  offset="0.8285" style="stop-color:#040404"/>
				<stop  offset="0.978" style="stop-color:#000000"/>
			</linearGradient>
			<path fill="url(#SVGID_6_)" d="M200.388,277.883l0.074,0.03c-0.895,2.111-1.407,3.877-1.543,5.285l0,0l-0.074-0.007
				C198.98,281.766,199.493,280,200.388,277.883L200.388,277.883z"/>
		</g>
		<g>
			
				<linearGradient id="SVGID_7_" gradientUnits="userSpaceOnUse" x1="258.2021" y1="164.3955" x2="249.3038" y2="180.7279" gradientTransform="matrix(0.9037 0.4281 -0.4281 0.9037 43.438 17.7412)">
				<stop  offset="0.1868" style="stop-color:#686868"/>
				<stop  offset="0.3482" style="stop-color:#434343"/>
				<stop  offset="0.5104" style="stop-color:#262626"/>
				<stop  offset="0.6712" style="stop-color:#111111"/>
				<stop  offset="0.8285" style="stop-color:#040404"/>
				<stop  offset="0.978" style="stop-color:#000000"/>
			</linearGradient>
			<path fill="url(#SVGID_7_)" d="M192.709,285.353l0.043-0.056c0.389,0.284,0.777,0.524,1.179,0.71l0,0
				c0.407,0.191,0.815,0.34,1.234,0.432l0,0l-0.012,0.074c-0.426-0.099-0.84-0.24-1.247-0.438l0,0
				C193.499,285.883,193.098,285.643,192.709,285.353L192.709,285.353z"/>
		</g>
		<g>
			
				<linearGradient id="SVGID_8_" gradientUnits="userSpaceOnUse" x1="265.1592" y1="168.1445" x2="256.24" y2="184.5151" gradientTransform="matrix(0.9037 0.4281 -0.4281 0.9037 43.438 17.7412)">
				<stop  offset="0.1868" style="stop-color:#686868"/>
				<stop  offset="0.3482" style="stop-color:#434343"/>
				<stop  offset="0.5104" style="stop-color:#262626"/>
				<stop  offset="0.6712" style="stop-color:#111111"/>
				<stop  offset="0.8285" style="stop-color:#040404"/>
				<stop  offset="0.978" style="stop-color:#000000"/>
			</linearGradient>
			<path fill="url(#SVGID_8_)" d="M196.486,291.995l0.074,0.03c-0.58,1.427-0.814,2.803-0.716,4.118l0,0l-0.074,0.006
				C195.672,294.822,195.912,293.434,196.486,291.995L196.486,291.995z M196.486,291.995L196.486,291.995L196.486,291.995
				L196.486,291.995L196.486,291.995L196.486,291.995z"/>
		</g>
		<g>
			
				<linearGradient id="SVGID_9_" gradientUnits="userSpaceOnUse" x1="269.2188" y1="170.3354" x2="260.2876" y2="186.7281" gradientTransform="matrix(0.9037 0.4281 -0.4281 0.9037 43.438 17.7412)">
				<stop  offset="0.1868" style="stop-color:#686868"/>
				<stop  offset="0.3482" style="stop-color:#434343"/>
				<stop  offset="0.5104" style="stop-color:#262626"/>
				<stop  offset="0.6712" style="stop-color:#111111"/>
				<stop  offset="0.8285" style="stop-color:#040404"/>
				<stop  offset="0.978" style="stop-color:#000000"/>
			</linearGradient>
			<path fill="url(#SVGID_9_)" d="M201.499,292.1L201.499,292.1l0.063-0.043c1.104,1.487,2.617,2.901,4.531,4.241l0,0l-0.037,0.067
				C204.129,295.02,202.61,293.6,201.499,292.1L201.499,292.1z"/>
		</g>
		<g>
			
				<linearGradient id="SVGID_10_" gradientUnits="userSpaceOnUse" x1="272.8086" y1="172.2983" x2="263.8825" y2="188.6816" gradientTransform="matrix(0.9037 0.4281 -0.4281 0.9037 43.438 17.7412)">
				<stop  offset="0.1868" style="stop-color:#686868"/>
				<stop  offset="0.3482" style="stop-color:#434343"/>
				<stop  offset="0.5104" style="stop-color:#262626"/>
				<stop  offset="0.6712" style="stop-color:#111111"/>
				<stop  offset="0.8285" style="stop-color:#040404"/>
				<stop  offset="0.978" style="stop-color:#000000"/>
			</linearGradient>
			<path fill="url(#SVGID_10_)" d="M199.993,300.076c2.087,0.666,3.864,0.654,5.34-0.031l0,0l0.031,0.068
				c-1.494,0.697-3.297,0.71-5.396,0.036l0,0L199.993,300.076L199.993,300.076z"/>
		</g>
		<g>
			
				<linearGradient id="SVGID_11_" gradientUnits="userSpaceOnUse" x1="276.9785" y1="174.564" x2="268.0401" y2="190.9698" gradientTransform="matrix(0.9037 0.4281 -0.4281 0.9037 43.438 17.7412)">
				<stop  offset="0.1868" style="stop-color:#686868"/>
				<stop  offset="0.3482" style="stop-color:#434343"/>
				<stop  offset="0.5104" style="stop-color:#262626"/>
				<stop  offset="0.6712" style="stop-color:#111111"/>
				<stop  offset="0.8285" style="stop-color:#040404"/>
				<stop  offset="0.978" style="stop-color:#000000"/>
			</linearGradient>
			<path fill="url(#SVGID_11_)" d="M214.007,297.471c1.271-0.444,2.611-1.383,4.031-2.809l0,0l0.055,0.056
				c-1.426,1.432-2.777,2.37-4.062,2.827l0,0L214.007,297.471L214.007,297.471z"/>
		</g>
		<g>
			<path d="M192.752,283.747c-0.346,1.031-0.563,2.074-0.661,3.124c0.198-0.556,0.414-1.074,0.643-1.543
				C192.646,284.853,192.659,284.321,192.752,283.747z"/>
			<path d="M195.845,296.101c-0.68-0.137-1.346-0.476-2-1.019c1.32,2.357,3.346,4.357,5.938,5.648l0.223-0.643
				C198.228,299.039,196.839,297.711,195.845,296.101z"/>
			<path d="M200.406,277.95c2.229-1.216,4.186-1.734,5.859-1.562c0.432-0.92,0.716-1.642,0.852-2.173
				c-3.29-0.253-6.568,0.679-9.223,2.58C198.771,276.913,199.61,277.303,200.406,277.95z"/>
			<path d="M218.068,294.687l0.26,0.253c0.136-0.247,0.259-0.494,0.383-0.747c0.889-1.889,1.32-3.87,1.346-5.827l-0.741,0.407
				C219.167,291.488,218.748,293.464,218.068,294.687z"/>
		</g>
		
			<linearGradient id="SVGID_12_" gradientUnits="userSpaceOnUse" x1="265.2158" y1="168.1602" x2="256.2864" y2="184.5495" gradientTransform="matrix(0.9037 0.4281 -0.4281 0.9037 43.438 17.7412)">
			<stop  offset="0.1868" style="stop-color:#686868"/>
			<stop  offset="0.3482" style="stop-color:#434343"/>
			<stop  offset="0.5104" style="stop-color:#262626"/>
			<stop  offset="0.6712" style="stop-color:#111111"/>
			<stop  offset="0.8285" style="stop-color:#040404"/>
			<stop  offset="0.978" style="stop-color:#000000"/>
		</linearGradient>
		<path fill="url(#SVGID_12_)" d="M215.266,280.87l0.062,0.044c0.297-0.457,0.55-0.901,0.754-1.334
			c0.136-0.277,0.24-0.549,0.333-0.814c-0.019-0.019-0.037-0.043-0.056-0.062c-0.093,0.277-0.203,0.556-0.34,0.846
			C215.81,279.976,215.563,280.42,215.266,280.87z"/>
		
			<linearGradient id="SVGID_13_" gradientUnits="userSpaceOnUse" x1="277.6523" y1="174.9736" x2="268.7539" y2="191.3062" gradientTransform="matrix(0.9037 0.4281 -0.4281 0.9037 43.438 17.7412)">
			<stop  offset="0.1868" style="stop-color:#686868"/>
			<stop  offset="0.3482" style="stop-color:#434343"/>
			<stop  offset="0.5104" style="stop-color:#262626"/>
			<stop  offset="0.6712" style="stop-color:#111111"/>
			<stop  offset="0.8285" style="stop-color:#040404"/>
			<stop  offset="0.978" style="stop-color:#000000"/>
		</linearGradient>
		<path fill="url(#SVGID_13_)" d="M210.617,300.779l0.191,0.587c0.024-0.007,0.05-0.019,0.074-0.024l-0.191-0.587L210.617,300.779z"
			/>
		<g>
			<path d="M214.111,297.471c-0.771,1.186-1.914,2.297-3.438,3.327c-1.537,0.407-3.34,0.18-5.408-0.697
				c0.31-1.303,0.556-2.58,0.735-3.84l0,0c-0.18,1.26-0.426,2.537-0.735,3.84c2.068,0.877,3.871,1.111,5.408,0.704
				C212.197,299.768,213.34,298.656,214.111,297.471L214.111,297.471z"/>
			
				<radialGradient id="SVGID_14_" cx="264.0742" cy="173.2061" r="9.5176" gradientTransform="matrix(0.9037 0.4281 -0.4281 0.9037 43.438 17.7412)" gradientUnits="userSpaceOnUse">
				<stop  offset="0" style="stop-color:#FFFFFF"/>
				<stop  offset="0.5989" style="stop-color:#565656"/>
				<stop  offset="0.989" style="stop-color:#000000"/>
			</radialGradient>
			<path fill="url(#SVGID_14_)" d="M217.007,286.124c-0.346-2.334-0.901-4.099-1.68-5.297c-1.729-0.71-3.407-1.093-5.037-1.142
				c-0.432,1.556-0.938,3.173-1.531,4.858c1.531,1.136,2.957,2.487,4.285,4.043C214.611,287.68,215.933,286.853,217.007,286.124z"/>
			
				<radialGradient id="SVGID_15_" cx="264.0664" cy="173.2085" r="9.517" gradientTransform="matrix(0.9037 0.4281 -0.4281 0.9037 43.438 17.7412)" gradientUnits="userSpaceOnUse">
				<stop  offset="0" style="stop-color:#FFFFFF"/>
				<stop  offset="0.5989" style="stop-color:#565656"/>
				<stop  offset="0.989" style="stop-color:#000000"/>
			</radialGradient>
			<path fill="url(#SVGID_15_)" d="M198.888,283.124c-1.648,0.87-2.901,1.981-3.747,3.34c-0.136,1.796,0.321,3.667,1.371,5.611
				c1.796,0.13,3.494,0.154,5.074,0.08c0.457-2.266,0.895-4.18,1.321-5.735C201.543,285.155,200.203,284.056,198.888,283.124z"/>
			
				<radialGradient id="SVGID_16_" cx="264.0693" cy="173.2114" r="9.5177" gradientTransform="matrix(0.9037 0.4281 -0.4281 0.9037 43.438 17.7412)" gradientUnits="userSpaceOnUse">
				<stop  offset="0" style="stop-color:#FFFFFF"/>
				<stop  offset="0.5989" style="stop-color:#565656"/>
				<stop  offset="0.989" style="stop-color:#000000"/>
			</radialGradient>
			<path fill="url(#SVGID_16_)" d="M211.605,294.575c0.685,0.741,1.519,1.704,2.506,2.896v-0.006
				C213.13,296.273,212.29,295.31,211.605,294.575c-1.858,0.877-3.729,1.438-5.605,1.686l0,0
				C207.876,296.014,209.747,295.452,211.605,294.575z"/>
			<path d="M210.673,300.798c1.524-1.03,2.667-2.142,3.438-3.327c-0.987-1.191-1.821-2.154-2.506-2.896
				c-1.858,0.877-3.729,1.438-5.605,1.686c-0.18,1.26-0.426,2.537-0.735,3.84C207.333,300.978,209.136,301.205,210.673,300.798z"/>
			
				<radialGradient id="SVGID_17_" cx="264.0684" cy="173.2046" r="9.5225" gradientTransform="matrix(0.9037 0.4281 -0.4281 0.9037 43.438 17.7412)" gradientUnits="userSpaceOnUse">
				<stop  offset="0" style="stop-color:#FFFFFF"/>
				<stop  offset="0.5989" style="stop-color:#565656"/>
				<stop  offset="0.989" style="stop-color:#000000"/>
			</radialGradient>
			<path fill="url(#SVGID_17_)" d="M210.673,300.798c1.524-1.03,2.667-2.142,3.438-3.327c-0.987-1.191-1.821-2.154-2.506-2.896
				c-1.858,0.877-3.729,1.438-5.605,1.686c-0.18,1.26-0.426,2.537-0.735,3.84C207.333,300.978,209.136,301.205,210.673,300.798z"/>
		</g>
	</g>
	<g>
		<path d="M227.847,154.935c-0.012-0.753-1.024-1.42-1.073-2.278c-0.025-0.389,0.333-0.568,0.4-0.803
			c0.5-1.679-1.327-1.963-2.142-2.821c-0.093-0.093-0.111-0.414-0.271-0.531c-0.346-0.266-0.901-0.271-1.21-0.537
			c-0.525-0.463-1.39-1.778-1.741-2.284c-0.383-0.543-0.716-1.074-0.938-1.605c-0.686-1.611-0.876-3.581-1.604-5.099
			c-0.284-0.586-0.89-1.062-1.21-1.747c-0.445-0.926-0.828-2.161-1.347-3.216c-0.562-1.155-1.419-2.26-1.604-3.087
			c-0.173-0.734-0.396-3.599-0.271-4.155c0.093-0.414,0.74-0.709,0.803-1.339c0.11-1.043-0.68-1.686-0.803-2.55
			c-0.531-3.84,0.648-7.797,0.803-11.538c0.209-4.853,0.382-10.205-0.938-13.816c-0.519-1.42-1-2.253-1.741-3.353
			c-3.05-4.5-7.581-7.538-11.001-11.402c1.543-1.753,2.605-3.747,3.624-5.766c0.827-1.629,1.87-3.025,2.277-4.691
			c0.167-0.673,0.05-1.383,0.272-2.148c0.16-0.562,0.66-1.086,0.802-1.741c0.148-0.679-0.037-0.988-0.024-1.494
			c0.117-0.148,0.241-0.278,0.389-0.383c-0.179-0.352-0.037-0.679,0.093-0.963c0-0.142,0-0.29,0-0.432
			c0.136-0.389,0.284-0.784,0.383-1.21c0.05-0.099,0.099-0.191,0.148-0.296c-0.031-1.136,0.16-1.957,0-2.994
			c0.024-0.494,0.296-0.716,0.457-1.068c-0.1-0.809,0.259-1.099,0.086-1.741c0,0,0,0,0-0.006c0.148,0.284,0.333,0.537,0.599,0.71
			c-0.266-0.352-0.376-0.747-0.463-1.167c0.024-0.056,0.05-0.124,0.043-0.216c-0.166-0.432-0.352-0.84-0.265-1.543
			c0.147-0.568,0.729-0.667,0.932-1.179c0.451-0.389,0.84-0.858,1.191-1.321c-0.444,0.29-0.876,0.599-1.321,0.858
			c-0.136-0.043-0.32-0.043-0.357-0.198c0-0.105,0.012-0.191,0.049-0.259c0.42-0.228,0.864-0.457,1.272-0.802
			c0.556-0.451,0.895-1.154,0.987-1.828c-0.259,0.519-0.611,0.945-1.037,1.229c0.241-0.314,0.352-0.537,0.333-0.537
			c-0.012-0.019-0.197,0.277-0.556,0.679l0,0c-0.019,0.006-0.03,0.013-0.043,0.019c0.389-0.451,0.574-0.815,0.562-0.809
			c-0.006-0.012-0.24,0.395-0.71,0.889c-0.012,0.006-0.019,0.006-0.03,0.013c0.506-0.543,0.753-1.013,0.729-1.013
			c0-0.012-0.278,0.494-0.853,1.062c0.643-0.661,0.927-1.291,0.908-1.284c-0.013-0.019-0.235,0.414-0.698,0.945
			c0.346-0.414,0.507-0.729,0.488-0.729c-0.007-0.019-0.321,0.524-0.957,1.111c-0.197,0.037-0.407,0.173-0.624,0.253
			c-0.364,0.129-0.642,0.556-0.987,0.29c-0.013-0.043-0.024-0.08-0.031-0.111c0.309-0.228,0.654-0.426,0.976-0.697
			c0.346-0.278,0.63-0.679,0.729-1.118c-0.259,0.438-0.636,0.673-1.037,0.889c0.074-0.093,0.136-0.198,0.16-0.327
			c0.433-0.513,0.741-1.161,0.791-1.821c-0.643,1.463-1.976,1.901-3.284,2.5l0.11-0.093c0.654-0.586,1.247-1.272,1.741-2.019
			c-0.574,0.426-1.123,0.864-1.667,1.309c0-0.025,0-0.056,0-0.08c0.013-0.013,0.025-0.025,0.037-0.037
			c0.643-0.599,1.08-1.426,1.266-2.259c-0.796,1.364-2.019,2.043-3.327,2.519l0.043-0.08l-0.487-0.278
			c-0.89-0.487-1.704-1.074-2.52-1.771c0.284,0.5,0.643,0.969,1.05,1.383c-0.099-0.031-0.186-0.068-0.271-0.111
			c-0.729-0.519-1.487-0.839-2.124-1.469c0.198,0.42,0.494,0.766,0.821,1.068c-0.179,0.08-0.352,0.173-0.549,0.234
			c-0.063-0.019-0.124-0.049-0.186-0.068l0.013-0.025c-0.297-0.148-0.593-0.259-0.896-0.339c-0.401-0.111-0.797-0.179-1.179-0.247
			c-0.531-0.389-1.038-0.809-1.834-0.92c-0.043,0.031-0.08,0.062-0.117,0.105c-0.013-0.013-0.019-0.025-0.024-0.037
			c-0.235-0.296-0.371-0.704-0.451-1.13c-0.056,0.432-0.043,0.889,0.136,1.333c0.025,0.056,0.056,0.117,0.08,0.173
			c-0.024,0.024-0.049,0.056-0.073,0.08c-0.698-0.056-1.433-0.191-1.853-0.907c0.056,0.296,0.21,0.568,0.433,0.784
			c-0.105-0.031-0.21-0.062-0.303-0.099c-0.587-0.204-1.007-0.79-1.117-1.556c-0.05,0.371-0.05,0.778,0.099,1.161
			c0.012,0.037,0.03,0.074,0.049,0.117c-0.037,0.179,0.063,0.5-0.086,0.556l0,0c-0.42-0.105-0.821-0.222-1.136-0.574
			c0.093,0.235,0.247,0.414,0.444,0.556c-0.013,0.006-0.019,0.012-0.024,0.019c-0.364,0.031-0.39,0.42-0.63,0.58
			c-0.778,0-1.463,0.099-2.148,0.198c-0.013,0.006-0.031,0.012-0.043,0.025l-0.037-0.062c-0.217,0.148-0.426,0.303-0.636,0.451
			c-0.581,0.401-1.154,0.772-1.784,1.037c-0.63,0.271-1.315,0.463-2.007,0.667c0.71,0.056,1.433,0.074,2.161-0.08h0.006
			c-0.438,0.278-0.889,0.568-1.327,0.895c-0.396,0.247-0.716,0.568-1.087,0.84c-0.006,0.031-0.012,0.068-0.024,0.099
			c-0.766,0.766-1.37,1.759-1.58,2.828c0.086-0.161,0.185-0.315,0.296-0.457c-0.173,0.395-0.284,0.846-0.481,1.204
			c-0.006,0.043-0.013,0.086-0.013,0.129c-0.099,0.204-0.179,0.414-0.259,0.624c-0.37,0.512-0.667,1.093-0.889,1.698
			c0.197-0.241,0.395-0.482,0.586-0.716c-0.271,0.963-0.469,1.932-0.857,2.846c0.147-0.167,0.283-0.346,0.419-0.531
			c-0.11,0.667-0.123,1.328-0.24,1.988c0.303-0.543,0.457-1.154,0.611-1.741c0.006,0.148,0.012,0.29,0.024,0.426
			c-0.234,0.401-0.433,0.84-0.457,1.315c0.136-0.346,0.334-0.629,0.531-0.907c0.024,0.068,0.062,0.136,0.093,0.191
			c0.067,0.333-0.13,0.37-0.093,0.679c-0.006,0.241,0.099,0.364,0.197,0.494c-0.099,0.401-0.352,0.741-0.814,0.803
			c0.259,0.049,0.58,0.012,0.827-0.21c0.049-0.05,0.099-0.099,0.142-0.154c-0.006,0.537,0.278,0.759,0.278,1.29
			c0.03-0.006,0.062-0.006,0.099-0.012c-0.056,0.673-0.05,1.358,0.006,1.963c0.13,1.333,1.364,3.056,1.34,3.624
			c-0.013,0.488-0.938,1.587-1.204,1.877c-1.067,1.167-1.691,1.5-3.219,2.013c-1.738,0.58-3.8,0.617-5.77,1.074
			c-1.188,0.271-2.373,0.642-3.484,0.938c-1.339,0.358-2.559,0.568-3.756,0.803c-7.3,1.457-12.844,5.013-16.362,10.198
			c-2.278,3.352-4.815,6.426-6.708,10.192c-0.938,1.864-1.766,3.932-3.083,5.364c-0.784,0.852-1.793,1.013-2.148,2.278
			c-0.08,0.29,0.173,0.784,0,1.475c-0.083,0.34-0.775,0.827-1.207,1.346c-0.414,0.487-0.774,1.185-1.071,1.475
			c-1.531,1.494-3.744,2.173-5.099,3.482c-0.469,0.457-0.963,1.247-1.476,1.883c-1.185,1.463-1.59,2.568-2.278,4.426
			c-0.868,2.327-1.55,5-2.013,7.778c-0.312,1.858-0.435,3.815-0.673,5.766c-0.231,1.932-0.229,4.013-0.67,5.901
			c-0.321,1.383-1.164,2.161-1.339,3.889c-0.105,1.019,0.176,2.155,0.133,3.223c-0.09,2.142-0.938,4.716-1.476,6.568
			c-0.198,0.686-0.651,1.284-0.806,1.877c-0.086,0.339,0.077,0.901,0,1.346c-0.083,0.488-0.423,0.864-0.401,1.204
			c0.043,0.642,1.441,2.747,1.88,3.087c0.306,0.234,0.874,0.241,1.34,0.537c0.664,0.414,0.669,0.716,1.207,0.802
			c0.451,0.074,1.272-0.043,1.877-0.136c1.593-0.229,2.219-0.08,2.281-1.876c1.374-0.006,1.71-1.006,1.476-2.278
			c1.046-0.284,1.343-1.592,0.67-2.549c2.086-2.136,3.932-5.556,2.012-8.581c-0.487-0.771-1.691-1.21-2.145-2.012
			c-0.136-0.247-0.253-0.76-0.401-1.21c-0.626-1.889-0.074-3.191,0.938-5.229c0.626-1.266,1.358-2.556,1.876-3.488
			c1.423-2.556,2.401-4.717,3.621-7.112c1.115-2.186,1.858-4.71,3.893-6.704c0.778-0.766,1.793-1.482,2.948-2.414
			c0.654-0.525,2.534-2.049,3.219-2.148c0.231-0.031,0.759,0.241,1.074,0.272c2.401,0.197,2.596-1.167,3.621-2.414
			c1.577-1.926,4.173-3.926,5.633-5.364c0.179,4.043-0.059,7.303-0.401,11.266c-0.389,4.513-0.293,8.729-0.537,13.007
			c-0.191,3.389-1.176,5.161-2.145,7.648c-0.599,1.531-1.034,3.229-1.611,4.426c-0.404,0.84-1.034,1.333-1.34,2.006
			c-0.564,1.247-0.274,2.698-0.401,3.76c-0.148,1.21-0.892,2.562-1.343,3.753c-1.003,2.648-1.763,4.877-2.146,8.05
			c-0.179,1.476-0.642,3.019-0.669,4.426c-0.037,1.661,0.401,3.544,0.534,5.365c0.287,3.89,0.077,7.939,0.673,11.402
			c0.275,1.604,1.034,3.481,1.071,4.957c0.028,1.062-0.408,1.587-0.401,2.55c0.003,0.803,0.151,1.864,0.269,2.686
			c0.5,3.519,2.664,6.099,4.96,7.643c0.379,0.259,2.463,0.852,2.685,1.21c0.414,0.666,0.022,2.197,0,3.08
			c-0.092,3.358,0.775,7.778,1.608,10.6c-0.593,0.179-0.861,0.556-1.074,0.938c-0.926,1.667-0.574,4.217-1.071,6.438
			c-0.123,0.55-0.419,1.044-0.537,1.611c-0.136,0.648-0.126,1.371-0.268,2.007c-0.503,2.29-1.448,4.858-1.608,7.111
			c-0.521,7.267,0.83,12.977,1.741,19.181c0.871,5.901,1.426,11.217,1.744,16.495c0.071,1.186,0.426,2.624,0.269,3.624
			c-0.117,0.753-0.759,1.136-0.803,2.013c-0.037,0.703,0.509,1.413,0.534,2.142c0.019,0.47-0.343,1.241-0.401,1.883
			c-0.108,1.198-0.201,2.871-0.133,4.155c0.041,0.833,0.383,1.685,0.266,2.283c-0.065,0.34-0.481,0.574-0.67,0.938
			c-0.58,1.105-1.059,2.581-0.938,4.02c0.059,0.703,0.787,1.857,0.805,2.284c0.025,0.567-0.506,0.901-0.269,1.339
			c0.293,0.544,1.148,0.315,1.608,0.673c0.586,0.451,0.556,1.13,1.074,1.34c0.309,0.124,0.833,0.18,1.339,0.136
			c0.704,1.124,2.284,0.537,4.025,0.667c1.629,0.13,3.006,0.432,4.562,0.136c0.694-0.13,1.432-0.519,2.145-0.673
			c0.756-0.16,1.556,0.006,2.013-0.266c0.571-0.34,0.654-1.358,1.071-1.877c0.534-0.666,1.444-0.846,1.611-1.475
			c0.17-0.654-0.299-1.167-0.269-1.611c0.053-0.766,0.654-1.5,0.803-2.278c0.407-2.111-0.466-4.784-1.34-6.438
			c-0.432-0.821-1.101-1.457-1.475-2.284c-0.405-0.896-0.941-2.087-0.938-2.951c0-0.636,0.503-1.186,0.401-1.741
			c-0.253-1.352-2.226-1.432-2.815-2.549c-0.583-1.1-0.269-3.143-0.269-4.692c0-6.846,0.17-12.297,1.34-17.977
			c0.839-4.068,2.333-7.76,3.087-11.531c0.913,1.956,1.533,2.857,2.682,4.154c0.821,0.932,0.954,1.043,2.146,1.476
			c0.352,0.13,0.626,0.413,0.938,0.537c4.003,1.636,6.516-1.34,6.973-4.557c0.08-0.549-0.05-1.037,0-1.61
			c0.104-1.137,0.481-2.278,0.537-3.353c0.092-1.654-0.105-3.068-0.401-4.297c-0.198-0.821-0.68-1.567-0.667-2.277
			c0-0.438,0.346-1.254,0.531-2.013c0.203-0.809,0.265-2.019,0.407-2.278c0.117-0.229,0.667-0.383,1.074-0.673
			c2.34-1.686,5.63-2.513,9.655-3.087c1.556-0.216,3.296-0.259,4.963-0.53c1.167-0.191,3.494-1.105,4.42-1.074
			c1.025,0.03,2.161,0.803,3.087,0.938c0.568,0.08,1.21,0.142,1.741,0.136c4.753-0.093,8.1-5.223,7.784-8.853
			c-0.142-1.661-1.154-2.914-1.747-4.025c-0.296-0.562-0.395-1.247-0.667-1.747c-0.419-0.759-1.222-1.364-1.74-2.142
			c-0.5-0.741-1.21-1.698-1.481-2.414c-0.593-1.587-0.383-3.198-0.667-4.563c-0.605-2.827-1.593-5.117-2.686-7.778
			c-0.377-0.907-1.642-2.896-1.611-3.624c0.013-0.222,0.42-0.814,0.543-1.073c1.167-2.538-1.142-4.229-2.284-5.631
			c-2.086-2.562-3.938-6.081-6.438-9.389c-0.969-1.284-2.191-2.865-3.487-4.426c-0.605-0.729-3.68-3.414-3.754-4.161
			c-0.013-0.08,0.679-2.759,0.803-2.951c0.321-0.488,1.29-0.691,1.611-1.068c0.66-0.784,0.747-2,1.074-2.951
			c0.519-1.525,1.327-2.858,1.476-4.296c0.389-3.809-1.321-7.915-0.938-12.069c0.253-2.797,0.987-5.426,1.604-7.643
			c0.21-0.741,0.161-1.735,0.938-2.148c2.099,4.081,3.433,7.278,4.025,11.667c0.271,2.013,0.407,3.062,1.074,4.291
			c0.593,1.099,1.259,2.086,2.284,3.087c1.722,1.697,4.926,3.105,7.105,4.562c1.574,1.049,2.611,1.339,2.277,3.889
			c-0.049,0.389-0.463,0.784-0.53,1.204c-0.063,0.358,0.185,0.809,0.129,1.21c-0.056,0.463-0.339,0.679-0.401,0.938
			c-0.277,1.259,0.655,1.796,2.148,1.747c-0.222,0.58,0.217,0.771,0.667,1.068c1.643,1.093,4.229,0.654,4.964-0.802
			c0.246-0.482,0.333-0.957,0.136-1.611c0.889-0.42,1.944-2,0.938-3.081C227.192,156.25,227.859,155.873,227.847,154.935z
			 M128.861,158.157c-0.688-0.537-1.343-1.765-1.343-2.549C127.938,156.416,129.723,157.324,128.861,158.157z M130.201,154.132
			c-1.229-0.444-0.457-2.031,0.806-1.876C131.565,152.447,130.186,153.379,130.201,154.132z M197.666,202.55
			c0.463,0.352,1.476,1.062,1.476,1.21c0,0.413-3.347,2.147-3.754,2.413c-3.353,2.204-5.76,3.982-9.39,5.902
			c-0.723,0.376-1.617,1.037-1.877,1.074c-0.327,0.043-1.086-0.353-1.611-0.401c-0.809-0.08-1.623,0.074-2.145,0
			c-1.473-0.229-2.803-1.037-4.426-0.809c0.049-2.148-0.126-3.767-0.269-5.902c-0.074-1.111-0.423-2.494-0.132-3.352
			c0.16-0.481,1.12-1.056,1.607-1.611c2.188-2.47,3.861-5.754,3.084-10.729c1.586,2.062,2.453,3.334,3.354,5.766
			c0.433,1.186,1.445,2.964,2.544,3.358c1.271,0.451,2.987,0.42,4.297,0.266c0.691-0.08,1.617-0.605,2.284-0.537
			c0.481,0.056,1.11,0.63,1.74,1.074C195.647,201.123,196.32,201.537,197.666,202.55z"/>
	</g>
</g>
</svg>
