<?xml version="1.0" encoding="utf-8"?>
<!-- Generator: Adobe Illustrator 16.0.0, SVG Export Plug-In . SVG Version: 6.00 Build 0)  -->
<!DOCTYPE svg PUBLIC "-//W3C//DTD SVG 1.1//EN" "http://www.w3.org/Graphics/SVG/1.1/DTD/svg11.dtd">
<svg version="1.1" id="Layer_1" xmlns="http://www.w3.org/2000/svg" xmlns:xlink="http://www.w3.org/1999/xlink" x="0px" y="0px"
	 width="350px" height="350px" viewBox="0 0 350 350" enable-background="new 0 0 350 350" xml:space="preserve">
<g>
	<path fill="#00294F" d="M271.752,108.063c-35.387-2.112-28.521-29.577-28.521-29.577c-34.609-6.056-60.7-5.736-69.013-5.419
		c-8.313-0.316-34.404-0.637-69.013,5.419c0,0,6.866,27.465-28.521,29.577c0,0-26.35,118.074,97.355,168.859l0.002,0.151
		c0.06-0.024,0.117-0.051,0.176-0.074c0.06,0.023,0.116,0.05,0.176,0.074l0.002-0.151
		C298.102,226.138,271.752,108.063,271.752,108.063z"/>
	<path fill="#FF0B12" d="M253.255,197.293c-4.644,9.855-10.458,19.033-17.392,27.445c-15.19,18.43-35.916,33.318-61.646,44.285
		c-25.856-11.025-46.67-26.01-61.883-44.572c-6.698-8.177-12.343-17.067-16.884-26.592
		C146.985,190.014,201.544,189.992,253.255,197.293z"/>
	<path fill="#FFFFFF" d="M266.319,146.097c-0.566,8-1.804,16.877-4.144,26.158c-2.201,8.758-5.189,17.118-8.921,25.038
		c-51.711-7.301-106.27-7.279-157.805,0.566c-3.944-8.265-7.065-17.009-9.332-26.179c-2.149-8.699-3.349-17.009-3.938-24.553
		c-1.125-14.389-0.051-26.018,0.824-32.317c11.099-1.649,19.328-6.043,24.501-13.094c4.261-5.807,5.439-12.203,5.564-17.075
		c22.72-3.569,41.164-4.357,53.021-4.357c3.533,0,6.218,0.074,7.846,0.14l0.28,0.007l0.279-0.007c1.634-0.066,4.32-0.14,7.846-0.14
		c11.864,0,30.309,0.788,53.028,4.357c0.125,4.873,1.296,11.269,5.564,17.075c5.167,7.051,13.388,11.438,24.486,13.094
		C266.268,120.971,267.305,132.217,266.319,146.097z"/>
	<path fill="#00294F" d="M280.929,148.556c-0.015,0.235-0.037,0.479-0.06,0.722c-0.685,8.007-1.994,16.766-4.261,25.944
		c-2.098,8.486-4.857,16.632-8.258,24.426c-4.998-0.853-10.032-1.641-15.096-2.354c-51.711-7.301-106.27-7.279-157.805,0.566
		c-5.041,0.766-10.054,1.604-15.036,2.524c-3.555-8.015-6.417-16.412-8.582-25.163c-2.222-8.987-3.525-17.568-4.217-25.444
		c4.829-0.949,9.686-1.833,14.565-2.649c60.102-10.083,123.831-10.385,184.14-1.031
		C271.214,146.849,276.085,147.673,280.929,148.556z"/>
	<circle fill="#FFFFFF" cx="175.535" cy="192.664" r="43.26"/>
	<path fill="#00294F" d="M213.665,191.831c-0.023-1.107-0.099-2.213-0.22-3.309c-1.037-9.39-5.551-18.144-12.65-24.434
		c-3.614-3.203-7.901-5.769-12.742-7.449c-13.541-4.705-27.968-1.299-37.966,7.636c-3.4,3.038-6.288,6.718-8.456,10.933
		l-0.018-0.005c-0.014,0.04-0.026,0.08-0.041,0.121c-0.783,1.54-1.477,3.148-2.062,4.827c-0.962,2.768-1.585,5.574-1.889,8.372
		c-0.121,1.105-0.192,2.206-0.216,3.307c-0.054,2.474,0.14,4.927,0.559,7.329c0,0.003,0,0.003,0,0.003l0.107,0.589
		c2.477,12.963,11.616,24.306,24.952,28.94c4.012,1.393,8.102,2.075,12.13,2.111c0.129,0.003,0.259,0.003,0.385,0.003
		c15.78-0.016,30.563-9.899,36.024-25.623c0.158-0.448,0.303-0.897,0.439-1.349c0.067-0.217,0.132-0.437,0.193-0.653
		c0.015-0.045,0.027-0.085,0.035-0.128C213.287,199.321,213.751,195.546,213.665,191.831z M182.202,157.684
		c1.681,0.318,3.359,0.767,5.022,1.344c3.317,1.154,6.355,2.752,9.07,4.707c0.038,0.026,0.074,0.053,0.113,0.08
		c-0.095,0.104-0.19,0.21-0.285,0.314c-0.252-0.156-0.508-0.311-0.767-0.46c-3.567-2.073-7.706-3.492-10.764-4.357
		c-2.479-0.7-4.25-1.042-4.426-1.075l-0.004,0.036l-1.822-1.108C179.628,157.266,180.912,157.438,182.202,157.684z M179.889,159.728
		c0.063,0.012,3.572,0.687,7.742,2.144c1.281,0.446,2.624,0.969,3.948,1.568c1.8,0.813,3.564,1.771,5.088,2.882
		c1.684,1.852,4.3,5.016,4.886,7.386c-1.405,1.024-3.081,2.219-4.648,3.308c-1.149,0.796-2.246,1.542-3.14,2.117
		c-2.376-1.437-10.617-4.732-13.697-4.857c-1.757-4.393-4.895-9.211-6.27-11.227c-0.015-0.021-0.03-0.042-0.044-0.063
		C175.195,161.914,179.889,159.728,179.889,159.728z M193.588,190.249c0,0-1.434-8.406-1.923-8.652
		c-3.558-1.782-9.99-4.208-11.121-3.341c-4.562,3.502-4.255,4.109-5.454,4.764c0,0,5.016-7.003,6.148-6.763
		c2.476,0.526,10.694,3.737,11.34,4.764C193.226,182.05,193.588,190.249,193.588,190.249z M172.389,163.682
		c1.263,1.843,4.625,6.941,6.354,11.375c-1.652,2.319-6.973,9.83-8.415,12.204c-4.944,0.305-13.13,0.534-15.231,0.591
		c-1.179-1.675-3.828-5.584-4.709-7.993c2.498-7.392,7.449-13.104,8.945-14.719C162.116,164.438,168.501,163.022,172.389,163.682z
		 M152.645,187.934c-0.373-1.046-4.067-6.397-4.467-6.403c-0.399-0.004-3.545,1.546-3.545,1.546s3.899-3.329,4.252-2.805
		c0.353,0.522,4.823,7.295,4.737,7.934c-0.089,0.638-1.038,4.524-1.038,4.524S152.845,188.498,152.645,187.934z M154.59,163.889
		c0.855-0.624,1.74-1.206,2.646-1.75l0.333,1.529l0.198,0.927c-1.879,2.095-6.111,7.291-8.568,14.066
		c-1.485,0.778-4.351,2.418-6.169,4.343c-0.335-0.809-0.644-1.898-0.679-3.235C144.9,173.192,149.229,167.777,154.59,163.889z
		 M141.975,198.555c-0.232,0.801-0.556,1.985-0.843,3.244c-0.267-0.997-0.49-2.008-0.667-3.027
		c-0.402-2.279-0.583-4.612-0.529-6.965c0.026-1.092,0.104-2.188,0.231-3.284c0.226-1.922,0.609-3.843,1.165-5.754
		c0.237,0.74,0.522,1.347,0.78,1.81c-0.166,0.782-0.437,2.21-0.629,3.944c-0.113,1.01-0.196,2.123-0.22,3.273
		c-0.039,2.162,0.152,4.448,0.813,6.421C142.047,198.322,142.01,198.434,141.975,198.555z M149.784,217.249
		c-3.398-3.572-6.009-7.806-7.69-12.399c0.205-1.492,0.673-3.484,1.144-5.181c1.241,0.646,3.834,1.862,6.385,2.269
		c-0.05-0.085-0.083-0.145-0.098-0.169l0.959,0.273l0.246-1.429c0.006,0.01,0.057,0.099,0.146,0.256
		c0.303-0.892,0.755-2.21,1.262-3.653c0.65-1.843,1.396-3.888,2.052-5.524c0.384-0.957,0.741-1.771,1.025-2.325
		c2.199-0.061,10.098-0.285,15.032-0.582c0.362,0.688,1.052,1.666,1.913,2.764c0.864,1.103,1.9,2.33,2.955,3.512
		c0.012,0.012,0.023,0.026,0.037,0.039c0.127,0.142,0.254,0.285,0.385,0.427c1.785,1.976,3.559,3.758,4.551,4.524
		c-0.704,1.722-2.768,6.756-4.551,11.057c-0.131,0.315-0.26,0.627-0.385,0.931c-0.306,0.733-0.598,1.432-0.869,2.078
		c-1.421,0.469-5.506,1.5-12.72,0.952c-3.971-2.755-9.7-12.49-10.687-14.198c-0.243,0.728-0.392,1.173-0.392,1.173
		c-0.285-0.024-0.573-0.06-0.862-0.104c0.824,1.408,6.223,10.527,10.497,13.937c-0.023,1.049-0.059,2.81-0.059,4.366
		c0,0.79,0.008,1.526,0.031,2.088c-2.554-0.033-5.079-0.998-6.658-1.743C152.133,219.554,150.916,218.437,149.784,217.249z
		 M163.85,226.303c-2.062-0.716-4.019-1.607-5.856-2.646c1.095,0.184,2.242,0.252,3.385,0.134c2.389,0.881,7.823,2.836,10.743,3.397
		c0.244,0.322,0.639,0.687,1.268,1.024C170.209,228.021,167.005,227.398,163.85,226.303z M166.21,216.864
		c0.425,0.061,7.328-0.933,7.893-0.38c0.566,0.555,4.595,4.363,4.595,4.363s-4.065-3.063-5.221-3.332
		C172.322,217.249,166.21,216.864,166.21,216.864z M180.046,227.98c-2.053-0.055-3.495-0.283-4.509-0.564
		c-0.136-0.039-0.264-0.078-0.385-0.117c-0.384-0.127-0.691-0.258-0.942-0.387c0.274-0.121,0.591-0.263,0.942-0.423
		c0.125-0.054,0.252-0.112,0.385-0.172c1.913-0.871,4.571-2.14,6.153-3.14c1.54-0.107,10.756-0.921,17.355-5.607l1.229,0.701
		C194.761,223.581,187.642,227,180.046,227.98z M199.515,215.274c-5.575,4.8-14.449,6.046-17.238,6.325
		c-1.004-0.689-2.893-2.075-4.595-3.833c-0.792-0.817-1.545-1.715-2.145-2.659c-0.005-0.009-0.009-0.015-0.015-0.024
		c0.006-0.012,0.01-0.023,0.015-0.034c2.085-4.97,5.569-13.491,6.137-14.868c2.578-0.646,9.508-2.428,12.257-3.627
		c0.61,0.52,1.36,1.173,2.181,1.897c2.444,2.169,5.491,4.986,7.161,6.908C202.759,209.12,200.801,213.028,199.515,215.274z
		 M209.058,197.418c-0.125,1.087-0.291,2.2-0.507,3.323c0,0-3.294,2.613-4.479,3.24c-2.015-2.243-5.238-5.162-7.425-7.081
		c-0.641-0.561-1.189-1.038-1.597-1.386c-0.003-0.186-0.003-0.438-0.009-0.752c-0.009-0.748-0.023-1.833-0.045-3.084
		c-0.018-0.976-0.034-2.058-0.062-3.156c-0.078-3.201-0.196-6.569-0.378-8.101c0.832-0.534,1.788-1.176,2.76-1.844
		c1.895-1.307,3.84-2.708,5.014-3.561c1.499,1.549,6.13,7.045,6.13,7.045c0.012,0.05,0.576,2.604,0.809,6.46
		c0.062,1.01,0.101,2.105,0.101,3.273C209.37,193.541,209.283,195.439,209.058,197.418z M210.677,198.434
		c-0.128,0.775-0.279,1.547-0.46,2.322c-0.033-0.068-0.063-0.131-0.093-0.19c0.14-0.771,0.259-1.535,0.357-2.286
		c0.299-2.293,0.411-4.481,0.415-6.473c0.003-1.17-0.036-2.268-0.096-3.284c-0.029-0.514-0.065-1.006-0.106-1.474
		c0.077,0.49,0.146,0.98,0.205,1.474c0.128,1.087,0.208,2.184,0.234,3.288C211.191,194.002,211.042,196.219,210.677,198.434z"/>
	<polygon fill="#FFFFFF" points="111.171,168.38 115.526,168.875 112.484,172.031 113.359,176.327 109.417,174.408 105.603,176.567 
		106.208,172.226 102.977,169.266 107.293,168.5 109.109,164.512 	"/>
	<polygon fill="#FFFFFF" points="243.785,168.38 248.141,168.875 245.098,172.031 245.973,176.327 242.031,174.408 238.217,176.567 
		238.822,172.226 235.591,169.266 239.907,168.5 241.724,164.512 	"/>
	<polygon fill="#00294F" points="63.675,164.512 44.048,169.184 60.854,188.008 52.512,211.503 86.736,207.332 86.736,203.652 
		76.8,204.02 	"/>
	<polygon fill="#00294F" points="286.325,164.512 305.952,169.184 289.146,188.008 297.488,211.503 263.264,207.332 
		263.264,203.652 273.2,204.02 	"/>
</g>
</svg>
