<?xml version="1.0" encoding="utf-8"?>
<!-- Generator: Adobe Illustrator 16.0.0, SVG Export Plug-In . SVG Version: 6.00 Build 0)  -->
<!DOCTYPE svg PUBLIC "-//W3C//DTD SVG 1.1//EN" "http://www.w3.org/Graphics/SVG/1.1/DTD/svg11.dtd">
<svg version="1.1" id="Layer_1" xmlns="http://www.w3.org/2000/svg" xmlns:xlink="http://www.w3.org/1999/xlink" x="0px" y="0px"
	 width="350px" height="350px" viewBox="0 0 350 350" enable-background="new 0 0 350 350" xml:space="preserve">
<g>
	<g>
		<defs>
			<circle id="SVGID_1_" cx="175" cy="175" r="103.131"/>
		</defs>
		<clipPath id="SVGID_2_">
			<use xlink:href="#SVGID_1_"  overflow="visible"/>
		</clipPath>
		<g clip-path="url(#SVGID_2_)">
			<path fill="#363636" d="M121.254,101.678c-0.018,0-0.036,0-0.054-0.001c-0.95-0.029-1.695-0.822-1.666-1.771
				c0.017-0.543,0.447-13.385,3.832-19.881c0.438-0.842,1.476-1.172,2.318-0.73c0.842,0.438,1.169,1.477,0.73,2.318
				c-3.021,5.799-3.439,18.274-3.444,18.399C122.943,100.942,122.179,101.678,121.254,101.678z"/>
		</g>
		<g clip-path="url(#SVGID_2_)">
			<path fill="#363636" d="M77.315,137.893c-0.603,0-1.188-0.317-1.502-0.882c-0.463-0.828-0.166-1.875,0.663-2.338
				c5.765-3.219,14.135-4.672,14.489-4.732c0.938-0.16,1.823,0.471,1.982,1.404c0.16,0.937-0.468,1.824-1.404,1.984
				c-0.081,0.014-8.148,1.418-13.392,4.345C77.886,137.822,77.599,137.893,77.315,137.893z"/>
		</g>
		<g clip-path="url(#SVGID_2_)">
			<path fill="#363636" d="M154.5,111.227c-0.56,0-1.108-0.272-1.438-0.776c-0.521-0.793-0.3-1.858,0.495-2.379
				c0.638-0.419,15.99-10.304,46.744-14.231c0.952-0.116,1.805,0.548,1.924,1.488c0.119,0.941-0.546,1.802-1.487,1.923
				c-29.976,3.827-45.146,13.596-45.296,13.693C155.151,111.136,154.824,111.227,154.5,111.227z"/>
		</g>
		<g clip-path="url(#SVGID_2_)">
			<path fill="#363636" d="M231.698,172.782c-0.117,0-0.234-0.012-0.354-0.037c-0.93-0.194-1.523-1.106-1.329-2.035
				c6.285-29.949,5.192-45.006,5.181-45.155c-0.074-0.945,0.631-1.773,1.576-1.85c0.97-0.074,1.773,0.63,1.851,1.574
				c0.051,0.624,1.162,15.621-5.243,46.138C233.209,172.227,232.494,172.782,231.698,172.782z"/>
		</g>
		<g clip-path="url(#SVGID_2_)">
			<path fill="#363636" d="M186.582,186.686c-0.404,0-0.809-0.141-1.135-0.428c-26.745-23.52-41.188-35.451-41.331-35.569
				c-0.733-0.604-0.837-1.688-0.232-2.419c0.605-0.732,1.69-0.835,2.419-0.232c0.144,0.118,14.622,12.078,41.414,35.639
				c0.713,0.626,0.782,1.714,0.156,2.426C187.534,186.487,187.059,186.686,186.582,186.686z"/>
		</g>
		<g clip-path="url(#SVGID_2_)">
			<path fill="#363636" d="M101.069,210.767c-0.897,0-1.654-0.696-1.714-1.604c-1.526-22.995,5.434-44.84,5.731-45.759
				c0.293-0.904,1.261-1.395,2.165-1.107c0.903,0.292,1.398,1.261,1.107,2.165c-0.071,0.219-7.053,22.154-5.572,44.473
				c0.063,0.946-0.654,1.766-1.601,1.829C101.145,210.767,101.107,210.767,101.069,210.767z"/>
		</g>
		<g clip-path="url(#SVGID_2_)">
			<path fill="#363636" d="M135.202,244.791c-0.769,0-1.468-0.518-1.665-1.296c-0.233-0.92,0.323-1.856,1.244-2.088
				c0.27-0.071,27.21-6.946,45.499-15.547c0.857-0.406,1.883-0.034,2.288,0.824c0.402,0.859,0.035,1.883-0.824,2.287
				c-18.59,8.742-45.844,15.698-46.118,15.766C135.483,244.774,135.341,244.791,135.202,244.791z"/>
		</g>
		<g clip-path="url(#SVGID_2_)">
			<path fill="#363636" d="M216.805,272.978c-0.205,0-0.411-0.037-0.614-0.114c-0.887-0.339-1.33-1.333-0.99-2.22
				c4.864-12.723,4.54-25.495,4.535-25.623c-0.028-0.948,0.719-1.74,1.667-1.771c0.017,0,0.035,0,0.054,0
				c0.923,0,1.687,0.735,1.717,1.665c0.017,0.547,0.357,13.564-4.764,26.954C218.149,272.555,217.496,272.978,216.805,272.978z"/>
		</g>
		<g clip-path="url(#SVGID_2_)">
			<path fill="#363636" d="M180.378,281.144c-0.105,0-0.213-0.009-0.32-0.03c-21.318-4.03-42.902-16.854-43.811-17.398
				c-0.815-0.488-1.079-1.544-0.592-2.358c0.488-0.815,1.543-1.079,2.357-0.593c0.218,0.131,21.979,13.058,42.683,16.973
				c0.934,0.176,1.546,1.075,1.37,2.007C181.909,280.567,181.188,281.144,180.378,281.144z"/>
		</g>
		<g clip-path="url(#SVGID_2_)">
			<path fill="#363636" d="M251.133,209.723c-0.658,0-1.036-0.027-1.111-0.032c-0.946-0.074-1.655-0.901-1.581-1.848
				c0.074-0.945,0.91-1.652,1.843-1.58c0.098,0.002,10.035,0.637,25.301-6.44c0.868-0.396,1.886-0.023,2.283,0.838
				c0.399,0.86,0.025,1.883-0.836,2.281C263.68,209.128,254.257,209.723,251.133,209.723z"/>
		</g>
		<g clip-path="url(#SVGID_2_)">
			<path fill="#363636" d="M278.621,165.681c-0.761,0-1.455-0.509-1.66-1.279c-6.442-24.307-22.602-39.453-22.765-39.604
				c-0.696-0.645-0.74-1.731-0.096-2.429c0.646-0.7,1.732-0.74,2.429-0.096c0.693,0.641,17.058,15.984,23.755,41.247
				c0.243,0.918-0.304,1.859-1.222,2.103C278.915,165.661,278.767,165.681,278.621,165.681z"/>
		</g>
		<g clip-path="url(#SVGID_2_)">
			<g>
				<path fill="#363636" d="M236.933,125.803c6.145-0.228,18.892-1.82,18.892-1.82c0.455-5.463,0.91-11.836,0.91-11.836v-0.006
					c-13.247-17.198-31.792-30.087-53.2-36.24c-2.374,11.778-4.611,19.858-4.611,19.858
					C221.683,106.684,236.933,125.803,236.933,125.803z"/>
			</g>
			<g>
				<path fill="#363636" d="M90.811,131.721c0,0,1.902,12.518,15.745,32.774c0,0,13.844-6.828,39.108-14.794
					c0,0,2.504-17.526,9.332-40.514c0,0-11.608-8.194-33.685-10.242C121.311,98.945,105.605,106.456,90.811,131.721z"/>
			</g>
			<g>
				<path fill="#363636" d="M231.917,169.98c0,0-22.477,8.563-46.559,13.914c0,0-2.944,29.166-5.62,44.151
					c0,0,18.465,16.054,41.743,17.927c0,0,21.14-16.856,29.434-37.996C250.915,207.977,248.774,190.316,231.917,169.98z"/>
			</g>
			<g>
				<path fill="#363636" d="M101.07,209.048c0,0-6.689,4.549-18.998,8.295l-0.499,1.338c9.084,19.397,24.028,35.488,42.556,46.018
					c1.262-0.479,2.093-0.797,2.093-0.797s7.957-0.637,11.507-1.308c0,0-1.662-7.05-1.071-19.831
					C136.658,242.763,113.647,227.243,101.07,209.048z"/>
			</g>
		</g>
	</g>
	<g>
		<path fill="#363636" d="M175,279.85c-57.814,0-104.85-47.033-104.85-104.85c0-57.814,47.035-104.85,104.85-104.85
			S279.85,117.186,279.85,175C279.85,232.816,232.814,279.85,175,279.85z M175,73.588c-55.919,0-101.412,45.493-101.412,101.412
			S119.081,276.411,175,276.411c55.918,0,101.412-45.492,101.412-101.411S230.918,73.588,175,73.588z"/>
	</g>
</g>
</svg>
