<?xml version="1.0" encoding="utf-8"?>
<!-- Generator: Adobe Illustrator 16.0.0, SVG Export Plug-In . SVG Version: 6.00 Build 0)  -->
<!DOCTYPE svg PUBLIC "-//W3C//DTD SVG 1.1//EN" "http://www.w3.org/Graphics/SVG/1.1/DTD/svg11.dtd">
<svg version="1.1" id="Layer_1" xmlns="http://www.w3.org/2000/svg" xmlns:xlink="http://www.w3.org/1999/xlink" x="0px" y="0px"
	 width="350px" height="350px" viewBox="0 0 350 350" enable-background="new 0 0 350 350" xml:space="preserve">
<g>
	<g>
		<path fill="#434040" stroke="#000000" stroke-width="0.5547" stroke-linecap="round" stroke-linejoin="round" d="M267.849,202.974
			c-0.851-1.177-1.646-2.394-2.537-3.522c-1.676-2.125-6.847-2.532-9.251-3.123c-2.036-0.501-4.099-0.984-6.107-1.605
			c-2.268-0.708-2.998-1.563-4.76-2.963c-2.231-1.76-8.571-2.484-8.39,1.954l0.267,7.077c0,0-10.037,3.437-10.34,3.541
			c-3.271,1.117-8.011,2.1-9.813,5.451l-23.149-35.955l-11.986-18.246c-0.103-0.155,1.135-2.251,1.135-2.682
			c-0.006-1.643-1.331-3.327-1.825-4.899c-0.764-2.434-1.356-4.944-1.94-7.435c-0.6-2.556-1.206-5.164-1.447-7.784
			c-0.094-0.97-0.35-4.104,0.521-4.726c1.829-1.307,2.831,3.4,4.482,3.995c2.229,0.813,2.411-0.349,4.178,1.214
			c0.963,0.848,4.615,7.543,6.064,7.065l7.353,9.532l5.445,1.906c0,0,2.45,1.637-1.63,3.814c0,0-4.358,4.632,2.177,3.268
			c0,0,7.899-1.091,7.628-3.268c0,0,5.987-5.72-1.908-11.441c-0.667-0.479-2.452-2.177-2.452-2.177
			c-3.268-5.448-11.714-15.253-11.714-15.253l-2.448-5.991c-2.91-5.915-4.98-12.338-8.817-17.767
			c-1.874-2.653-4.196-4.712-6.718-6.729c-2.672-2.132-5.426-4.169-8.458-5.762c-2.29-1.2-5.141-2.063-6.564-4.383
			c-0.897-1.464-2.779-1.338-3.625-2.836c-0.417-0.74-1.338-4.655-0.678-5.283c0,0,6.538-6.267-0.542-11.441
			c0,0,8.713-16.884-14.711-17.428c0,0-21.789,8.168-10.35,20.969c0,0-0.545,9.809,2.722,8.987l3.54,8.989
			c0,0-5.691,1.901-5.718,1.907c0.853-0.282-3.786-5.225-4.252-5.551c-3.032-2.132-6.418-3.675-9.354-5.976
			c-1.374-1.074-4.35-2.834-5.091-4.441c-1.309-2.834,1.73-6.007,2.031-8.723c0.265-2.37-1.198-4.104-2.556-5.857
			c-0.815-1.054-1.438-3.513-2.498-4.198c-0.921-0.599-4.79-0.479-5.55,0.433c-0.916,1.091-0.297,3.3-1.237,4.7
			c-1.29,1.931-1.7,2.249-1.451,4.556c0.148,1.386,0.364,2.772,0.68,4.124c0.17,0.741,0.299,1.921,0.762,2.549
			c0.687,0.906,1.543,1.204,2.185,2.219c0.63,0.995,1.16,2.065,1.804,3.064c1.068,1.65,2.32,3.218,3.313,4.916
			c2.376,4.07,4.698,8.183,7.054,12.271c0.878,1.465,1.761,2.927,2.641,4.397c1.495,2.474,1.988,2.758,4.797,3.105
			c3.565,0.441,3.545,4.153,3.008,6.774c-0.576,2.843-1.401,5.557-1.401,8.48c0.007,4.688,1.304,9.324,1.304,14.009
			c0,0,2.714,23.381,2.721,23.424c0.998,8.989,1.126,18.398-2.291,26.925c-1.76,4.395-4.478,7.404-8.13,10.317
			c-4.925,3.931-7.573,8.779-10.583,14.132c-2.737,4.854-7.644,8.861-8.665,14.549c-0.571,3.189,0.48,6.185,1.099,9.278
			c2.394,11.993,1.995,24.738,1.452,36.905c0,0.098-0.374,4.65-0.924,4.196c-0.072-0.059-3.475,2.236-3.595,2.303
			c-0.072,0.019,0.016-0.125,0.034-0.13c-2.451,1.274-5.208,3.037-7.94,3.598c-4.298,0.885-9.812,1.227-13.536,3.741
			c-5.259,3.554,1.958,6.677,4.973,7.799c10.521,3.904,22.243,2.623,33.399,3.383c0,0,5.99-1.631,2.725-12.524
			c-0.097-4.384-0.09-8.779,0.133-13.158c0.251-4.968,1.642-9.657,3.248-14.323c1.646-4.773,1.688-7.38,1.365-12.324
			c-0.082-1.263-2.299-13.575-2.286-13.582c1.934-1.213,4.679-3.992,7.021-4.021c3.762-0.045,5.087,4.268,8.277,2.063
			c2.356-1.623,3.604-4.813,5.619-6.815c5.423-5.405,11.874-10.074,17.783-14.94c4.83,2.179,9.085,5.43,13.24,8.667
			c1.78,1.388,3.314,3.068,5.122,4.423c0.887,0.658,1.938,1.584,3.037,1.837c1.321,0.305,1.789-0.741,2.963-0.68
			c3.757,0.178,6.446,3.782,8.854,6.24c3.148,3.212,6.829,5.855,10.326,8.671c11.424,9.222,21.434-4.301,29.405-10.866
			c3.391-2.791,9.156-8.085,14.007-6.471c3.15,1.052,4.584,0.397,7.247-1.449l8.708,1.094
			C266.48,213.054,274.651,211.96,267.849,202.974z"/>
	</g>
	<g>
		<g>
			<g>
				<g>
					<defs>
						
							<ellipse id="SVGID_1_" transform="matrix(0.7948 -0.6068 0.6068 0.7948 -134.3404 161.2628)" cx="171.319" cy="279.306" rx="21.83" ry="21.304"/>
					</defs>
					<clipPath id="SVGID_2_">
						<use xlink:href="#SVGID_1_"  overflow="visible"/>
					</clipPath>
				</g>
			</g>
		</g>
		<g>
			<g>
				<path fill="#FFFFFF" d="M178.411,296.163c2.707-0.709,6.448-4.413,7.456-5.621C185.706,291.281,181.417,295.814,178.411,296.163
					z"/>
				<g>
					<defs>
						
							<ellipse id="SVGID_3_" transform="matrix(0.7948 -0.6068 0.6068 0.7948 -134.3404 161.2628)" cx="171.319" cy="279.306" rx="21.83" ry="21.304"/>
					</defs>
					<clipPath id="SVGID_4_">
						<use xlink:href="#SVGID_3_"  overflow="visible"/>
					</clipPath>
					<path clip-path="url(#SVGID_4_)" fill="#D9D9D9" d="M154.728,292.929c7.292,9.554,20.651,11.095,30.205,3.803
						c9.552-7.291,11.034-21.116,3.743-30.666c-7.293-9.554-21.118-11.708-30.673-4.414
						C148.453,268.942,147.435,283.379,154.728,292.929z"/>
					
						<radialGradient id="SVGID_5_" cx="135.4644" cy="62.4497" r="20.8694" gradientTransform="matrix(0.7949 -0.6068 0.6068 0.7949 24.9697 309.2817)" gradientUnits="userSpaceOnUse">
						<stop  offset="0" style="stop-color:#FFFFFF"/>
						<stop  offset="0.0057" style="stop-color:#FFFFFF"/>
						<stop  offset="1" style="stop-color:#D6D6D6"/>
					</radialGradient>
					<path clip-path="url(#SVGID_4_)" fill="url(#SVGID_5_)" d="M179.099,265.179c0,0,5.102,0.326,7.616,2.698
						c0,0,3.908,5.95,2.882,8.844c0,0-3.062,5.573-4.181,5.582l-7.625-2.619c0,0-2.135-7.587-3.298-9.019
						C175.222,270.146,179.099,265.179,179.099,265.179z"/>
					
						<radialGradient id="SVGID_6_" cx="134.4731" cy="77.9819" r="12.7513" gradientTransform="matrix(0.7949 -0.6068 0.4399 0.5763 37.9849 326.3314)" gradientUnits="userSpaceOnUse">
						<stop  offset="0.533" style="stop-color:#FFFFFF"/>
						<stop  offset="0.6114" style="stop-color:#E3E3E3"/>
						<stop  offset="0.7364" style="stop-color:#BDBDBD"/>
						<stop  offset="0.8365" style="stop-color:#A5A5A5"/>
						<stop  offset="0.8984" style="stop-color:#9C9C9C"/>
						<stop  offset="1" style="stop-color:#6E6E6E"/>
					</radialGradient>
					<path clip-path="url(#SVGID_4_)" fill="url(#SVGID_6_)" d="M188.761,292.765c-2.46,3.017-7.67,7.489-12.545,7.801
						c0,0,2.067-3.462,2.195-4.402c0,0,5.616-2.318,7.456-5.621l4.644-1.013C190.511,289.529,190.36,290.804,188.761,292.765z"/>
					
						<radialGradient id="SVGID_7_" cx="143.8989" cy="75.9092" r="12.6007" gradientTransform="matrix(0.7949 -0.6068 0.6068 0.7949 24.9697 309.2817)" gradientUnits="userSpaceOnUse">
						<stop  offset="0" style="stop-color:#262626"/>
						<stop  offset="0.1198" style="stop-color:#202020"/>
						<stop  offset="0.6612" style="stop-color:#090909"/>
						<stop  offset="1" style="stop-color:#000000"/>
					</radialGradient>
					<path clip-path="url(#SVGID_4_)" fill="url(#SVGID_7_)" d="M189.521,276.69c0,0,2.457,0.568,3.249,4.925
						c0.166,3.353-2.26,7.914-2.26,7.914s-3.077,0.942-4.644,1.013c0.077-1.835,0.405-5.015-0.451-8.239
						C185.416,282.303,187.965,280.146,189.521,276.69z"/>
					
						<radialGradient id="SVGID_8_" cx="146.2192" cy="65.6592" r="11.9296" gradientTransform="matrix(0.7949 -0.6068 0.6068 0.7949 24.9697 309.2817)" gradientUnits="userSpaceOnUse">
						<stop  offset="0.533" style="stop-color:#FFFFFF"/>
						<stop  offset="0.6866" style="stop-color:#E7E7E7"/>
						<stop  offset="0.8799" style="stop-color:#D0D0D0"/>
						<stop  offset="1" style="stop-color:#C7C7C7"/>
					</radialGradient>
					<path clip-path="url(#SVGID_4_)" fill="url(#SVGID_8_)" d="M186.327,267.542c0.852-1.654,0.644-2.881,0.502-3.517
						c2.438,1.165,7.56,12.062,5.941,17.59c0,0-0.531-3.463-3.174-4.895C189.239,276.712,189.763,272.868,186.327,267.542z"/>
					
						<radialGradient id="SVGID_9_" cx="136.2837" cy="61.6265" r="20.8901" gradientTransform="matrix(0.7949 -0.6068 0.6068 0.7949 24.9697 309.2817)" gradientUnits="userSpaceOnUse">
						<stop  offset="0.5228" style="stop-color:#FFFFFF"/>
						<stop  offset="0.7509" style="stop-color:#E9E9E9"/>
						<stop  offset="1" style="stop-color:#D6D6D6"/>
					</radialGradient>
					<path clip-path="url(#SVGID_4_)" fill="url(#SVGID_9_)" d="M161.85,259.634c2.452-0.43,3.747,0.025,3.747,0.025
						s7.391-0.007,8.766-0.202c0,0,4.009-0.642,4.342-0.688C176.904,258.114,170.015,255.583,161.85,259.634z"/>
					
						<radialGradient id="SVGID_10_" cx="128.6582" cy="56.8188" r="14.7665" gradientTransform="matrix(0.7949 -0.6068 0.6068 0.7949 24.9697 309.2817)" gradientUnits="userSpaceOnUse">
						<stop  offset="0.599" style="stop-color:#FFFFFF"/>
						<stop  offset="0.6539" style="stop-color:#F2F2F2"/>
						<stop  offset="0.7456" style="stop-color:#E2E2E2"/>
						<stop  offset="0.851" style="stop-color:#D9D9D9"/>
						<stop  offset="1" style="stop-color:#D6D6D6"/>
					</radialGradient>
					<path clip-path="url(#SVGID_4_)" fill="url(#SVGID_10_)" d="M149.849,283.375c0,0,0.667-4.678,1.732-5.771
						c0.001-0.53,0.393-6.191,2.528-9.038c0,0,0.033-2.749,0.354-3.363C149.41,270.468,148.301,279.317,149.849,283.375z"/>
					
						<radialGradient id="SVGID_11_" cx="133.4712" cy="63.7407" r="21.0774" gradientTransform="matrix(0.7949 -0.6068 0.6068 0.7949 24.9697 309.2817)" gradientUnits="userSpaceOnUse">
						<stop  offset="0.7005" style="stop-color:#FFFFFF"/>
						<stop  offset="0.7555" style="stop-color:#F9F9F9"/>
						<stop  offset="0.8306" style="stop-color:#E7E7E7"/>
						<stop  offset="0.9169" style="stop-color:#CBCBCB"/>
						<stop  offset="1" style="stop-color:#A8A8A8"/>
					</radialGradient>
					<path clip-path="url(#SVGID_4_)" fill="url(#SVGID_11_)" d="M163.784,296.355c0,0,0.987,2.605,3.289,3.591
						c-0.167,0.059-1.01,0.544-1.01,0.544c-14.027-5.152-15.056-13.11-15.941-15.723c0,0,2.185,4.662,3.311,5.491
						c1.124,0.828,3.148,0.623,3.148,0.623S162.467,295.918,163.784,296.355z"/>
					<path clip-path="url(#SVGID_4_)" fill="#C1C2C4" d="M176.532,299.989l-0.316,0.576c0,0-4.39,1.575-10.153-0.075l0.863-0.482
						l4.311-2.096L176.532,299.989z"/>
					
						<radialGradient id="SVGID_12_" cx="126.4312" cy="75.1187" r="9.1772" gradientTransform="matrix(0.7949 -0.6068 0.6068 0.7949 24.9697 309.2817)" gradientUnits="userSpaceOnUse">
						<stop  offset="0" style="stop-color:#262626"/>
						<stop  offset="1" style="stop-color:#000000"/>
					</radialGradient>
					<path clip-path="url(#SVGID_4_)" fill="url(#SVGID_12_)" d="M163.784,296.355c0,0,6.241-1.318,7.157-2.791
						c0.488,0.825,7.168,2.757,7.47,2.599c0,0-0.705,2.577-2.062,4.211c-1.225,0.355-7.65,0.39-9.424-0.366
						C164.555,298.792,163.941,296.975,163.784,296.355z"/>
					
						<radialGradient id="SVGID_13_" cx="134.8926" cy="54.7759" r="11.0264" gradientTransform="matrix(0.7949 -0.6068 0.6068 0.7949 24.9697 309.2817)" gradientUnits="userSpaceOnUse">
						<stop  offset="0" style="stop-color:#A1A1A1"/>
						<stop  offset="0.0366" style="stop-color:#949494"/>
						<stop  offset="0.172" style="stop-color:#696969"/>
						<stop  offset="0.241" style="stop-color:#585858"/>
						<stop  offset="0.5179" style="stop-color:#212121"/>
						<stop  offset="0.7088" style="stop-color:#171717"/>
						<stop  offset="1" style="stop-color:#000000"/>
					</radialGradient>
					<path clip-path="url(#SVGID_4_)" fill="url(#SVGID_13_)" d="M165.394,271.279c-0.422,0.412-2.774,8.644-2.688,8.735
						c0.126,0.244,6.736,5.886,7.548,5.476c1.551-0.552,6.987-4.683,7.537-5.807c0.033-1.151-2.14-7.546-3.232-8.93
						C174.361,270.378,165.819,270.868,165.394,271.279z"/>
					
						<linearGradient id="SVGID_14_" gradientUnits="userSpaceOnUse" x1="134.2495" y1="55.2944" x2="135.0311" y2="62.888" gradientTransform="matrix(0.7949 -0.6068 0.6068 0.7949 24.9688 309.2827)">
						<stop  offset="0" style="stop-color:#FFFFFF"/>
						<stop  offset="0.1068" style="stop-color:#F9F9F9"/>
						<stop  offset="0.2437" style="stop-color:#E9E9E9"/>
						<stop  offset="0.3972" style="stop-color:#CFCFCF"/>
						<stop  offset="0.5627" style="stop-color:#AAAAAA"/>
						<stop  offset="0.7379" style="stop-color:#7B7B7B"/>
						<stop  offset="0.9184" style="stop-color:#424242"/>
						<stop  offset="1" style="stop-color:#262626"/>
					</linearGradient>
					<path opacity="0.2" clip-path="url(#SVGID_4_)" fill="url(#SVGID_14_)" d="M174.576,272.517
						c0.23-0.176,0.463-0.345,0.697-0.513c-0.263-0.55-0.508-0.987-0.714-1.25c-0.198-0.376-8.74,0.114-9.166,0.525
						c-0.422,0.412-2.774,8.644-2.688,8.735c0.067,0.132,1.99,1.806,3.889,3.273C167.835,279.447,170.589,275.561,174.576,272.517z"
						/>
					
						<radialGradient id="SVGID_15_" cx="123.1455" cy="59.4014" r="10.3149" gradientTransform="matrix(0.7949 -0.6068 0.6068 0.7949 24.9697 309.2817)" gradientUnits="userSpaceOnUse">
						<stop  offset="0" style="stop-color:#262626"/>
						<stop  offset="0.3119" style="stop-color:#202020"/>
						<stop  offset="0.7368" style="stop-color:#0E0E0E"/>
						<stop  offset="1" style="stop-color:#000000"/>
					</radialGradient>
					<path clip-path="url(#SVGID_4_)" fill="url(#SVGID_15_)" d="M151.393,277.519c0,0,2.299,3.68,4.638,5.271
						c-0.528,0.966-0.319,7.136,0.55,8.093c0,0-1.854,0.429-3.373-0.734C151.688,288.985,147.122,281.694,151.393,277.519z"/>
					
						<radialGradient id="SVGID_16_" cx="127.9585" cy="53.7495" r="8.2353" gradientTransform="matrix(0.7949 -0.6068 0.6068 0.7949 24.9697 309.2817)" gradientUnits="userSpaceOnUse">
						<stop  offset="0.1371" style="stop-color:#F7F7F7"/>
						<stop  offset="1" style="stop-color:#DEDEDE"/>
					</radialGradient>
					<path clip-path="url(#SVGID_4_)" fill="url(#SVGID_16_)" d="M151.256,277.639c0,0,4.22,5.713,4.775,5.15
						c0.554-0.565,6.241-2.515,6.675-2.774c0.552-0.849,1.838-7.454,2.688-8.735c0.277-0.562-3.963-5.487-4.03-5.597
						c0,0-4.479,0.346-7.254,2.884C154.109,268.566,150.229,273.992,151.256,277.639z"/>
					
						<radialGradient id="SVGID_17_" cx="134.8647" cy="48.104" r="5.2731" gradientTransform="matrix(0.7949 -0.6068 0.6068 0.7949 24.9697 309.2817)" gradientUnits="userSpaceOnUse">
						<stop  offset="0.2234" style="stop-color:#262626"/>
						<stop  offset="0.4656" style="stop-color:#202020"/>
						<stop  offset="0.7956" style="stop-color:#0E0E0E"/>
						<stop  offset="1" style="stop-color:#000000"/>
					</radialGradient>
					<path clip-path="url(#SVGID_4_)" fill="url(#SVGID_17_)" d="M165.597,259.659c0,0-2.048-0.718-4.24,0.109
						c-1.387,0.413-6.509,4.259-6.859,5.367c0,0-0.622,0.854-0.41,3.448c2.769-2.471,7.276-2.901,7.276-2.901
						S163.381,262.194,165.597,259.659z"/>
					
						<radialGradient id="SVGID_18_" cx="133.4692" cy="68.3159" r="13.9591" gradientTransform="matrix(0.7949 -0.6068 0.6068 0.7949 24.9697 309.2817)" gradientUnits="userSpaceOnUse">
						<stop  offset="0.3655" style="stop-color:#F7F7F7"/>
						<stop  offset="1" style="stop-color:#D9D9D9"/>
					</radialGradient>
					<path clip-path="url(#SVGID_4_)" fill="url(#SVGID_18_)" d="M170.907,293.565c0.031-0.514-0.671-8.114-0.671-8.114l7.556-5.768
						l7.625,2.619c0,0,1.735,6.099,0.451,8.239c-0.711,1.184-3.563,4.546-7.456,5.621
						C175.422,295.843,170.876,294.08,170.907,293.565z"/>
					
						<radialGradient id="SVGID_19_" cx="119.7397" cy="64.6123" r="12.4431" gradientTransform="matrix(0.7949 -0.6068 0.6068 0.7949 24.9697 309.2817)" gradientUnits="userSpaceOnUse">
						<stop  offset="0.0609" style="stop-color:#F7F7F7"/>
						<stop  offset="1" style="stop-color:#D6D6D6"/>
					</radialGradient>
					<path clip-path="url(#SVGID_4_)" fill="url(#SVGID_19_)" d="M156.479,290.747c1.365,2.615,7.305,5.608,7.305,5.608
						s5.75-1.263,7.143-2.713l-0.692-8.191c0,0-5.419-3.319-7.529-5.437c-5.978,2.031-6.83,2.822-6.83,2.822
						S155.116,288.132,156.479,290.747z"/>
					
						<radialGradient id="SVGID_20_" cx="146.7261" cy="59.2827" r="8.3131" gradientTransform="matrix(0.7949 -0.6068 0.6068 0.7949 24.9697 309.2817)" gradientUnits="userSpaceOnUse">
						<stop  offset="0" style="stop-color:#262626"/>
						<stop  offset="0.3119" style="stop-color:#202020"/>
						<stop  offset="0.7368" style="stop-color:#0E0E0E"/>
						<stop  offset="1" style="stop-color:#000000"/>
					</radialGradient>
					<path clip-path="url(#SVGID_4_)" fill="url(#SVGID_20_)" d="M174.363,259.457c0,0,4.492,3.674,4.845,5.795
						c2.718,0.157,7.229,2.363,7.229,2.363s1.336-1.813,0.503-3.516c-1.919-2.092-6.472-5.247-8.452-5.353
						C177.279,258.545,174.363,259.457,174.363,259.457z"/>
					
						<radialGradient id="SVGID_21_" cx="138.1904" cy="56.937" r="11.213" gradientTransform="matrix(0.7949 -0.6068 0.6068 0.7949 24.9697 309.2817)" gradientUnits="userSpaceOnUse">
						<stop  offset="0.3706" style="stop-color:#F7F7F7"/>
						<stop  offset="1" style="stop-color:#D6D6D6"/>
					</radialGradient>
					<path clip-path="url(#SVGID_4_)" fill="url(#SVGID_21_)" d="M179.099,265.179c0.076,0.385-4.772,5.824-4.54,5.575
						c0.236-0.248-9.166,0.525-9.166,0.525s-3.878-4.988-4.172-5.467c-0.296-0.479,2.872-5.359,4.375-6.153
						c1.726-0.967,8.655-0.277,8.655-0.277S178.282,261.161,179.099,265.179z"/>
				</g>
				<path fill="#FFFFFF" d="M163.784,296.355c0,0,5.783-1.288,7.14-2.48c3.553,1.821,7.487,2.288,7.487,2.288
					s-7.585-2.16-7.112-2.521c-0.075-0.796-1.083-7.949-1.064-8.191c0,0,0.287,7.662,0.333,8.216
					C171.047,293.941,164.374,296.191,163.784,296.355z"/>
				<path fill="#FFFFFF" d="M156.582,290.882c0,0,3.523,4.381,7.203,5.474C162.515,296.127,157.002,291.386,156.582,290.882z"/>
				<polygon fill="#FFFFFF" points="155.876,282.837 162.706,280.015 165.394,271.279 161.17,265.726 165.105,271.32 
					162.496,279.75 				"/>
				<path fill="#FFFFFF" d="M179.099,265.179c0,0-4.271,5.385-4.481,5.517S178.775,265.256,179.099,265.179z"/>
				<path fill="#FFFFFF" d="M186.476,267.733c0,0,3.008,8.328,3.058,8.835c0.634,0.219-2.602-8.613-3.094-8.782"/>
				<path fill="#FFFFFF" d="M177.791,279.684c0,0,7.397,2.718,7.625,2.619C185.646,282.203,178.128,279.439,177.791,279.684z"/>
				<path fill="#EDEBEB" d="M154.031,266.738c0,0-4.064,5.986-2.774,10.9C151.166,270.439,154.031,266.738,154.031,266.738z"/>
				<path fill="#424242" d="M165.79,271.646c0,0-2.411,7.616-2.344,7.975c0.07,0.355,6.191,5.164,6.716,5.316
					c0.526,0.154-5.202-3.759-6.261-5.487L165.79,271.646z"/>
				<path d="M163.297,279.5l2.37-7.79C165.667,271.71,163.012,279.166,163.297,279.5z"/>
				<path fill="#CCC8C8" d="M155.918,282.928l6.702-2.717C162.621,280.211,157.663,282.627,155.918,282.928z"/>
			</g>
			
				<radialGradient id="SVGID_22_" cx="135.0615" cy="66.4849" r="22.1357" gradientTransform="matrix(0.7989 -0.6099 0.6099 0.799 23.1523 308.8999)" gradientUnits="userSpaceOnUse">
				<stop  offset="0.2234" style="stop-color:#FFFFFF"/>
				<stop  offset="0.4872" style="stop-color:#FDFDFD"/>
				<stop  offset="0.5823" style="stop-color:#F6F6F6"/>
				<stop  offset="0.65" style="stop-color:#EBEBEB"/>
				<stop  offset="0.7048" style="stop-color:#DADADA"/>
				<stop  offset="0.7518" style="stop-color:#C4C4C4"/>
				<stop  offset="0.7934" style="stop-color:#A8A8A8"/>
				<stop  offset="0.831" style="stop-color:#888888"/>
				<stop  offset="0.8656" style="stop-color:#626262"/>
				<stop  offset="0.8963" style="stop-color:#393939"/>
				<stop  offset="0.9212" style="stop-color:#121212"/>
				<stop  offset="1" style="stop-color:#FFFFFF"/>
			</radialGradient>
			<path fill="url(#SVGID_22_)" d="M188.788,265.981c7.171,9.395,5.172,22.974-4.464,30.33c-9.637,7.356-23.263,5.706-30.435-3.687
				c-7.17-9.396-5.171-22.976,4.467-30.332C167.992,254.937,181.618,256.589,188.788,265.981z"/>
		</g>
		<g>
			<g>
				<g>
					<defs>
						
							<ellipse id="SVGID_23_" transform="matrix(0.7948 -0.6068 0.6068 0.7948 -134.3404 161.2628)" cx="171.319" cy="279.306" rx="21.83" ry="21.304"/>
					</defs>
					<clipPath id="SVGID_24_">
						<use xlink:href="#SVGID_23_"  overflow="visible"/>
					</clipPath>
				</g>
			</g>
		</g>
	</g>
</g>
</svg>
