<?xml version="1.0" encoding="utf-8"?>
<!-- Generator: Adobe Illustrator 16.0.0, SVG Export Plug-In . SVG Version: 6.00 Build 0)  -->
<!DOCTYPE svg PUBLIC "-//W3C//DTD SVG 1.1//EN" "http://www.w3.org/Graphics/SVG/1.1/DTD/svg11.dtd">
<svg version="1.1" id="Layer_1" xmlns="http://www.w3.org/2000/svg" xmlns:xlink="http://www.w3.org/1999/xlink" x="0px" y="0px"
	 width="350px" height="350px" viewBox="0 0 350 350" enable-background="new 0 0 350 350" xml:space="preserve">
<g>
	<path fill-rule="evenodd" clip-rule="evenodd" fill="#505050" d="M233.781,264.445c-3.003-1.567-6.374-2.39-9.742-2.39
		c-7.951,0-15.163,4.368-18.821,11.396c-4.288,8.245-2.76,18.19,3.806,24.754c1.521,1.521,3.272,2.803,5.209,3.808
		c3.001,1.567,6.37,2.388,9.739,2.388c7.951,0,15.162-4.366,18.823-11.398c4.283-8.245,2.753-18.19-3.809-24.749
		C237.47,266.735,235.719,265.452,233.781,264.445z M240.799,277.795l0.162-0.226c1.386,4.17,1.194,8.706-0.534,12.725l-0.582-0.996
		c-0.251-0.408-0.728-0.612-1.205-0.49l-7.156,1.856c-0.379,0.107-0.669,0.4-0.76,0.758l-1.966,7.114
		c-0.107,0.383-0.002,0.777,0.252,1.026c0.044,0.052,0.099,0.099,0.158,0.143l0.614,0.439c-1.866,0.644-3.811,0.965-5.79,0.965
		c-2.219,0-4.383-0.403-6.445-1.209l0.755-0.443c0.414-0.244,0.62-0.738,0.501-1.209l-1.859-7.144
		c-0.099-0.375-0.394-0.667-0.759-0.766l-7.121-1.971c-0.429-0.113-0.904,0.053-1.163,0.408l-0.591,0.817
		c-1.564-4.092-1.554-8.641,0.029-12.756l0.345,0.593l0.043,0.061c0.029,0.043,0.075,0.107,0.13,0.156
		c0.263,0.261,0.642,0.378,1.039,0.284l7.14-1.863c0.378-0.091,0.679-0.388,0.777-0.76l1.973-7.12
		c0.114-0.439-0.048-0.892-0.414-1.161l-0.715-0.513c2.042-0.778,4.181-1.174,6.372-1.174c2.414,0,4.753,0.478,6.967,1.422
		l-0.6,0.347c-0.414,0.248-0.618,0.744-0.5,1.205l1.861,7.171c0.055,0.184,0.151,0.345,0.273,0.467
		c0.126,0.131,0.292,0.226,0.485,0.282l7.127,1.975C240.069,278.322,240.547,278.147,240.799,277.795z"/>
	<path fill-rule="evenodd" clip-rule="evenodd" fill="#505050" d="M228.308,276.495c-0.195-0.326-0.545-0.521-0.938-0.526
		l-6.732,0.062c-0.212,0-0.422,0.069-0.569,0.168c-0.149,0.093-0.277,0.223-0.37,0.385l-3.316,5.869
		c-0.191,0.337-0.188,0.749,0.011,1.083l3.421,5.811c0.2,0.33,0.547,0.526,0.93,0.526l6.759-0.057
		c0.385-0.009,0.74-0.222,0.924-0.552l3.31-5.862c0.195-0.33,0.195-0.749-0.006-1.092L228.308,276.495z"/>
	<path fill-rule="evenodd" clip-rule="evenodd" fill="#505050" d="M265.784,259.625c-0.33-0.188-0.644-0.387-0.95-0.591
		c1.444-0.879,2.912-1.714,4.533-2.248c1.081-0.354,0.619-2.065-0.469-1.705c-1.617,0.529-3.081,1.335-4.52,2.187
		c0.386-0.465,0.705-0.978,0.89-1.581c0.324-1.045,0.381-4.215-1.396-4.193c-1.411,0.017-1.883,2.04-2.204,3.098
		c-0.142,0.447-0.271,0.908-0.394,1.373c-0.587-0.635-0.91-1.066-0.91-1.066c-0.266-0.681,0.33-0.751-0.614-1.278
		c-1.493-0.999-1.575-0.004-3.176-0.917c-2.309-1.313-3.732-3.413-4.938-5.701c-2.85-5.818-14.643-24.102-15.833-26.129
		c-1.491-2.534-3.533-4.888-5.842-6.939c-1.67-1.493-14.936-14.927-16.992-20.575c-0.172-0.474-0.359-0.944,0.013-1.409
		c0.868-0.74,0.934-1.482,0.24-2.448c-0.644-0.892-1.083-1.926-1.615-2.901c-6.463-15.339-24.243-30.798-28.136-32.529
		c-1.907-0.85,0.223-3.15-0.099-3.545c-2.458-3.022-4.817-4.479-6.675-8.08c-0.574-1.11-0.9-4.254-1.419-5.375
		c-4.792-10.378-7.388-20.966-8.601-24.31c-0.05-0.523-0.231-0.98-0.625-1.339c-0.042-0.276-0.09-0.545-0.387-0.675
		c-0.101-0.504,0.023-0.944,0.374-1.323c1.333-0.896,2.183-2.147,2.713-3.64c0.33-0.568,0.66-1.133,0.99-1.699
		c0.776-0.679,1.548-1.356,2.326-2.04c3.146-2.744,6.264-5.526,9.444-8.237c1.287-1.1,3.708-0.2,3.896-3.262
		c0.033-0.595-0.249-1.683-0.736-3.058l23.433-21.631c0.709-0.191,1.418-0.383,2.126-0.574c3.453,0.574,6.928,1.352,10.093-1.001
		c0.294-0.189,0.586-0.383,0.881-0.579c2.011-0.612,4.046-1.161,6.022-1.874c0.984-0.351,2.027-0.982,1.582-2.322
		c-0.425-1.278-1.569-1.213-2.65-1.083c-1.287,0.151-2.473,1.031-3.848,0.513c0.325-1.478,1.497-2.374,2.395-3.461
		c4.612-4.761,13.379-5.69,12.832-8.033c-0.323-1.392-1.862-0.866-2.792-0.486c-1.256,0.499-1.571,0.027-1.701,0.179
		c0.119-0.137,1.809-2.158,0.761-3.142c-0.799-0.755-1.745,0.065-2.523,0.46c-5.371,2.74-7.388,2.534-7.388,2.534
		c-2.896,0.143-4.711,2.294-6.706,3.893c-6.854,5.486-28.486,17.154-39.893,21.738c-0.818-1.262-1.498-2.122-1.897-2.3
		c-1.922-0.867-25.843,14.247-25.843,14.247c-0.879,0.282-2.488-0.536-3.739,1.344c-0.332,0.494-4.784-1.171-5.594,0.62
		c-0.565,1.249-1.314,0.957-2.128,1.083c-0.303-0.82-0.604-1.643-0.902-2.469c0.196-2.898-1.583-5.224-2.462-7.769
		c-1.108-3.201-3.529-5.692-6.831-7.032c-0.584-0.24-1.695-0.322-2.561-0.583l-1.866-0.635c-0.757-0.473-0.995-1.087-0.995-1.087
		s0.109,1.201-0.688,1.283l-1.14,0.318c-0.713,0.109-1.426,0.208-2.034,0.269c-0.229,1.807-6.702,0.81-6.647,3.585
		c-1.603,1.012-2.067,3.19-3.278,4.09c-1.88,1.396-1.182,2.95-1.369,4.441c-0.324,2.589,0.618,5.106,0.724,7.684
		c0.006,0.118,0.326,0.231,0.498,0.343c0.137,0.635,0.273,1.27,0.41,1.905c-0.341,1.783,1.331,2.963,1.4,4.618
		c-0.092,0.805-0.702,1.257-1.251,1.714c-3.182,2.631-6.538,4.971-10.258,6.841c-2.915,1.466-5.777,3.175-7.354,6.29l-17.387,24.375
		v0.004v-0.004c-1.531,2.235-6.674,9.524-5.32,11.898c0.278,0.488,1.094,1.243,2.233,2.122c-1.331,2.984-2.12,5.179-2.12,5.179
		c-2.221,7.703-1.014,14.146,0.62,24.628c1.506,9.667,1.567,9.304-0.686,18.979c-0.581,2.492-1.737,5.054-0.616,7.729
		c0,0,1.058,1.73,0.907,7.758c-0.023,0.875-0.355,2.08,0.67,2.476c1.34,0.521,2.433-1.874,2.505-2.044
		c-0.078,0.187,0.481,0.269,0.574,1.612c0.057,1.001,0.246,2.618,1.642,2.31c2.351-0.518-0.595-8.828,1.708-15.043
		c0.591-1.278,0.894-2.723,2.088-3.652c1.062,1.018,0.778,2.465,1.197,3.692c0.351,1.03,0.786,2.086,2.122,1.922
		c1.403-0.174,1.519-1.392,1.413-2.431c-0.208-2.088-0.593-4.161-0.908-6.241c0.048-0.348,0.092-0.696,0.141-1.043
		c0.755-3.872-1.447-6.667-3.455-9.537c-0.132-0.724-0.267-1.444-0.401-2.162l3.566-15.934c1.005-4.605,1.604-8.111,1.945-10.794
		c1.484,0.546,2.7,0.803,3.4,0.599c3.201-0.94,5.657-16.557,10.286-20.5c2.073-1.257,3.779-3.398,6.639-2.78
		c0.17-0.095,0.343-0.114,0.521-0.109c-0.174,0.036-0.347,0.067-0.521,0.109c1.554,0.353,3.112,0.704,4.667,1.058
		c2.196,1.148,4.607,1.552,6.997,2.034c0.869,0.509,2.084,0.006,2.805,0.948c0.663,1.266,1.714,2.397,1.893,3.836l4.463,18.688
		c0,0,1.996,3.508-0.234,11.729c0,0-0.107,0.227-0.162,0.343c-0.566,0.61-0.431,1.318-0.273,2.031
		c-0.128,0.708-0.101,1.491-0.412,2.109c-0.957,1.883-1.495,2.94-2.347,5.832c-3.339,11.438-5.762,25.412-5.762,25.412
		c-0.072,0.294,0.688,0.668,1.035,0.892c0,0-1.689,15.886-0.631,23.088c0.343,2.33,1.613,7.136,6.845,8.689
		c2.457,0.726,3.937,2.557,5.537,4.334c2.08,2.31,8.883,8.502,12.866,10.782c4.233,3.025,8.944,5.131,13.705,7.142
		c3.228,1.694,6.456,3.396,9.686,5.091c1.666,0.888,3.611,1.241,4.896,2.875c0.541,0.684,0.682,1.674,1.569,2.088
		c-0.128,1.182,0.886,1.792,1.335,2.688c-0.061,0.204-0.109,0.412-0.151,0.623c-2.813,0.164-5.583,0.986-4.492,3.229
		c0.675,1.388,2.818,1.327,4.237,1.258c-0.694,0.5-1.388,1.001-2.101,1.422c-0.982,0.582-0.09,2.117,0.894,1.53
		c0.565-0.334,1.123-0.733,1.687-1.152c0.265,2.521,0.462,5.001-1.964,6.858c-0.401,0.309-6.073,11.16-0.366,15.485l-0.008,0.011
		c0.05,0.051,0.103,0.104,0.155,0.151c0.24,0.217,0.505,0.404,0.806,0.53c0.446,0.187,0.906,0.162,1.369,0.084
		c0.13-0.027,0.265-0.049,0.393-0.097c0.257-0.097,0.492-0.221,0.738-0.335c0.418-0.195,0.833-0.405,1.249-0.609
		c0.177-0.086,0.364-0.155,0.534-0.257c0.181-0.107,0.315-0.038,0.513,0.049c0.036,0.013,0.538,0.164,0.692,0.212
		c0.101,0.036,0.199,0.069,0.312,0.065c0.317-0.017,0.582-0.313,0.755-0.555c0.122-0.175,0.071-0.468-0.027-0.644
		c-0.536-0.949-0.105-1.771,0.033-2.12c0.153-0.387,0.297-0.786,0.461-1.169c3.646-8.498,10.401-12.363,11.12-12.828
		c0.694-0.454,1.422-0.202,1.725-0.141c0.214,0.044,0.423,0.015,0.595-0.152c0.102-0.094,0.377-0.403,0.406-0.473
		c0.143-0.337,0.027-0.523-0.186-0.766c-0.941-1.102-0.159-1.983,0.011-2.292c0.288-0.525,0.768-0.501,0.816-0.496
		c0.372,0.04,0.737,0.101,1.107,0.151c0.24,0.035,0.448-0.038,0.608-0.233c0.103-0.131,0.197-0.266,0.273-0.41
		c0.117-0.221,0.109-0.439-0.047-0.64c-0.115-0.147-0.241-0.286-0.368-0.429c-0.549-0.618-0.343-1.249-0.3-1.351
		c0.277-0.664,0.691-0.563,0.824-0.538c0.225,0.053,0.45,0.082,0.677,0.113c0.158,0.021,0.305-0.035,0.419-0.146
		c0.172-0.171,0.269-0.394,0.355-0.614c0.05-0.126,0.082-0.297-0.032-0.387c-0.624-0.497-0.773-1.101-0.773-1.188
		c0.004-0.221,0.063-0.429,0.113-0.64c0.071-0.29,0.16-0.591,0.113-0.892c-0.067-0.465-0.17-0.921-0.481-1.3
		c-0.057-0.069-1.007-0.896-1.32-1.173c-0.525-0.602-1.293-1.026-1.958-1.51l0,0l-8.006-6.976c-0.696-0.292-1.373-0.631-2.088-0.852
		c-0.696-0.219-0.273,0.281-0.27,0.509c-4.117-0.027-7.192-5.632-7.192-5.632c-12.246-20.893-31.567-28.461-31.567-28.461
		c-1.262-0.612-1.878-1.435-1.849-2.791c0,0,0.383-5.379,2.982-12.13c0.949-2.361,2.995-4.883,5.386-4.383l10.87,0.526
		c0.589-0.049,1.258,0.065,1.558-0.667l-0.008-26.966c0,0,12.782,7.867,16.965,16.813c0,0,0.808,1.222,1.68,0.546
		c0.339-0.265,0.789-0.391,1.19-0.578l4.332-2.134c0.186-0.109,4.91,3.84,6.04,5.118c2.265,2.565,10.23,12.25,12.426,14.103
		c1.971,2.214,11.384,9.385,11.384,9.385c1.497,2.968,3.346,5.685,5.69,8.055c0.33,0.361,0.662,0.722,0.997,1.087
		c1.791,1.947,3.89,3.519,6.081,4.976c0.554,0.339,1.104,0.678,1.657,1.022c3.02,1.844,5.859,3.926,8.471,6.319
		c0.115,0.321,0.339,0.534,0.654,0.656c0.963,0.93,1.922,1.856,2.885,2.788c0.404,0.521,0.808,1.043,1.214,1.564
		c0.757,1.548,1.663,3.014,2.035,4.749c0.204,0.944,0.425,1.97,1.216,2.691c1.477,0.928,1.522,2.702,2.363,4.002
		c0.764,1.196,1.744,2.157,3.008,2.81l3.875,2.361c0.554,0.461,1.153,0.86,1.731,1.287c1.472,1.132,9.31,5.236,10.893,6.95
		c1.582,1.712,3.746,2.057,6.104,1.657c3.102-0.183,6.197-4.103,6.197-4.103C286.668,266.719,272.091,265.636,265.784,259.625z
		 M172.765,279.605c-0.805,0.025-1.6,0-2.364-0.105c-0.673-0.095-0.852-0.073-0.265-0.423c0.667-0.396,1.604-0.46,2.361-0.521
		c0.046,0.337,0.13,0.675,0.267,1.01C172.765,279.578,172.765,279.593,172.765,279.605z M262.973,256.143
		c0.195-0.736,0.436-1.453,0.721-2.105c0.016,0.114,0.023,0.222,0.034,0.313C263.771,255.028,263.403,255.63,262.973,256.143z"/>
</g>
</svg>
