<?xml version="1.0" encoding="utf-8"?>
<!-- Generator: Adobe Illustrator 16.0.0, SVG Export Plug-In . SVG Version: 6.00 Build 0)  -->
<!DOCTYPE svg PUBLIC "-//W3C//DTD SVG 1.1//EN" "http://www.w3.org/Graphics/SVG/1.1/DTD/svg11.dtd">
<svg version="1.1" id="Layer_1" xmlns="http://www.w3.org/2000/svg" xmlns:xlink="http://www.w3.org/1999/xlink" x="0px" y="0px"
	 width="350px" height="350px" viewBox="0 0 350 350" enable-background="new 0 0 350 350" xml:space="preserve">
<g>
	<g>
		<g>
			<circle fill="#E7E8E2" cx="136.054" cy="304.154" r="27.075"/>
			<g>
				<defs>
					<circle id="SVGID_1_" cx="136.054" cy="304.154" r="27.075"/>
				</defs>
				<use xlink:href="#SVGID_1_"  overflow="visible" fill="#FFBC00"/>
				<clipPath id="SVGID_2_">
					<use xlink:href="#SVGID_1_"  overflow="visible"/>
				</clipPath>
				<polygon clip-path="url(#SVGID_2_)" fill="#454C53" points="161.903,273.042 159.311,285.438 146.406,286.524 141.012,274.818 
					150.627,266.421 				"/>
				<polygon clip-path="url(#SVGID_2_)" fill="#454C53" points="113.963,269.405 125.197,275.978 122.363,288.724 109.381,290.03 
					104.182,278.081 				"/>
				<polygon clip-path="url(#SVGID_2_)" fill="#454C53" points="96.178,314.425 105.9,305.773 117.147,312.405 114.379,325.158 
					101.409,326.41 				"/>
				<polygon clip-path="url(#SVGID_2_)" fill="#454C53" points="133.5,345.253 128.275,333.331 138.061,324.687 149.331,331.259 
					146.515,343.979 				"/>
				<polygon clip-path="url(#SVGID_2_)" fill="#454C53" points="174.352,319.283 161.399,320.568 156.201,308.592 165.935,299.902 
					177.162,306.513 				"/>
				
					<line clip-path="url(#SVGID_2_)" fill="none" stroke="#454C53" stroke-width="0.3924" stroke-miterlimit="10" x1="116.005" y1="313.042" x2="127.224" y2="308.402"/>
				
					<line clip-path="url(#SVGID_2_)" fill="none" stroke="#454C53" stroke-width="0.3924" stroke-miterlimit="10" x1="129.23" y1="297.749" x2="121.05" y2="286.88"/>
				
					<line clip-path="url(#SVGID_2_)" fill="none" stroke="#454C53" stroke-width="0.9709" stroke-miterlimit="10" x1="147.465" y1="284.831" x2="139.599" y2="298.227"/>
				<path clip-path="url(#SVGID_2_)" fill="none" stroke="#454C53" stroke-width="0.3924" stroke-miterlimit="10" d="
					M144.121,306.491c0.769,0.758,14.698,2.867,14.698,2.867"/>
				<path clip-path="url(#SVGID_2_)" fill="none" stroke="#454C53" stroke-width="0.3924" stroke-miterlimit="10" d="
					M136.604,313.607c0.413,0.851,1.616,14.3,1.616,14.3"/>
			</g>
			<polygon fill="#454C53" points="125.063,309.958 128.01,296.963 141.089,295.577 146.222,307.73 136.34,316.579 			"/>
		</g>
	</g>
	<path fill="#EEEBE4" d="M149.296,267c0,0,3.289,3,3.289,15h-40.504c0,0,1.013-15,18.226-15C147.523,267,149.296,267,149.296,267z"
		/>
	<path fill="#34383C" d="M112.78,279.285c-0.604,1.979-0.699,3.398-0.699,3.398h40.504c0-1.228-0.041-2.344-0.101-3.398H112.78z"/>
	<path fill="#FFD9C4" d="M162.172,232.935c-3.672-4.97-10.677-6.021-15.646-2.35l-15.858,11.72l-1.279,0.942
		c-3.264,2.41-4.489,6.862-2.703,10.679l7.231,15.451c1.626,3.48,5.525,5.46,9.405,4.526c4.432-1.064,7.159-5.522,6.093-9.953
		l-2-8.314l11.23-6.294c0.384-0.218,0.815-0.492,1.179-0.761C164.793,244.908,165.844,237.902,162.172,232.935z"/>
	<path fill="#EE3E38" d="M147.415,255.636c0,0-0.423-0.24-1.076-0.622h-19.146l6.723,14.363c1.626,3.48,5.525,5.46,9.405,4.526
		c4.432-1.064,7.159-5.522,6.093-9.953L147.415,255.636z"/>
	<path fill="#EBA701" d="M224,81.278C224,100.365,209.581,115,190.314,115h-23.878C147.17,115,130,100.365,130,81.278V63.303
		C130,44.217,147.17,28,166.437,28h23.878C209.581,28,224,44.217,224,63.303V81.278z"/>
	<path fill="#EEEBE4" d="M186.316,315c0,0-3.292,3-3.292,16h40.506c0,0-1.014-16-18.229-16S186.316,315,186.316,315z"/>
	<path fill="#34383C" d="M183.101,328.316c-0.045,0.916-0.076,1.871-0.076,2.913h40.506c0,0-0.08-1.192-0.557-2.913H183.101z"/>
	<path fill="#FFD9C4" d="M185,315.618c0,0,2.604,4.925,9.293,4.925c6.695,0,8.707-4.925,8.707-4.925V265h-18V315.618z"/>
	<path fill="#EE3E38" d="M186.111,290.451v25.167c0,0,2.827,4.925,9.516,4.925c6.696,0,8.933-4.925,8.933-4.925v-25.167H186.111z"/>
	<path fill="#FFD9C4" d="M204.432,219.929c-0.563,1.228,0.763,2.336,1.895,2.191c0.687-0.086,1.503-0.347,2.391-0.682
		c-0.515,0.684-0.98,1.331-1.388,1.856c-1.999,2.567-3.815,5.507-4.271,8.776c-0.238,1.729,2.128,2.495,3.141,1.258
		c0.878-0.926,1.858-1.751,2.891-2.519c0.145,0.301,0.356,0.556,0.611,0.758c-0.839,1.319-1.702,2.618-2.621,3.876
		c-1.355,1.857,0.938,4.846,3.04,3.562c1.222-0.748,2.297-1.627,3.277-2.595c-0.448,0.838-0.879,1.685-1.268,2.556
		c-0.795,1.771,1.79,3.52,3.155,2.159c0.761-0.757,1.505-1.549,2.227-2.363c-0.155,1.646,2.168,3.033,3.457,1.728
		c5.427-5.499,14.289-22.098,2.953-25.481c-1.396-1.252-3.107-2.162-4.987-2.533C213.628,211.424,206.692,215.01,204.432,219.929z"
		/>
	<path fill="#FFD9C4" d="M241.01,192.544c-0.016-0.781-0.032-1.567-0.05-2.356c-0.071-0.783-0.144-1.57-0.217-2.361
		c-0.06-0.795-0.184-1.575-0.321-2.356c-0.14-0.78-0.25-1.576-0.425-2.35c-0.365-1.539-0.72-3.102-1.225-4.593
		c-0.441-1.527-1.038-2.971-1.599-4.436c-0.637-1.412-1.233-2.855-1.968-4.191c-1.382-2.735-3.004-5.253-4.693-7.605
		c-1.345-1.887-2.804-3.608-4.275-5.222h-24.988l-0.585,8.612c0,0,0.32,0.012,0.92,0.032c0.063,0.003,0.141,0.006,0.209,0.008
		c-0.042-0.01-0.083-0.013-0.125-0.033l-0.052-0.028c-0.004-0.003,0.038,0.012,0.056,0.015l0.145,0.037
		c0.022,0.005,0.049,0.009,0.071,0.014c0.063,0.002,0.116,0.004,0.182,0.006c-0.032,0.007-0.07,0.005-0.107,0.007
		c0.059,0.013,0.114,0.025,0.178,0.033c0.111,0.01,0.285,0.096,0.438,0.139c0.164,0.052,0.334,0.106,0.511,0.162
		c0.196,0.086,0.4,0.174,0.612,0.265c0.417,0.142,0.915,0.453,1.427,0.693c0.518,0.305,1.079,0.614,1.66,1.004
		c1.172,0.755,2.43,1.741,3.727,2.86c1.262,1.167,2.599,2.441,3.815,3.919c1.223,1.464,2.433,3.044,3.451,4.75
		c0.56,0.834,0.98,1.727,1.476,2.6c0.406,0.898,0.881,1.787,1.209,2.709c0.761,1.823,1.278,3.69,1.63,5.534
		c0.082,0.463,0.163,0.922,0.245,1.38c0.042,0.459,0.083,0.915,0.126,1.368l0.069,0.681l0.005,0.672
		c0.01,0.449,0.018,0.895,0.026,1.336c-0.094,1.757-0.259,3.467-0.661,5.064c-0.194,0.799-0.36,1.586-0.65,2.324
		c-0.252,0.746-0.469,1.479-0.804,2.153c-0.323,0.676-0.531,1.359-0.896,1.96c-0.331,0.614-0.644,1.197-0.938,1.745
		c-0.668,1.07-1.276,2.006-1.793,2.771c-1.139,1.492-1.789,2.346-1.789,2.346l12.218,10.971c0,0,0.991-1.115,2.726-3.067
		c0.823-1.028,1.808-2.309,2.893-3.817c0.508-0.792,1.048-1.635,1.617-2.522c0.593-0.872,1.063-1.913,1.63-2.94
		c0.577-1.023,1.053-2.171,1.553-3.355c0.533-1.169,0.944-2.445,1.365-3.761c0.857-2.626,1.416-5.526,1.774-8.549
		c0.049-0.759,0.1-1.524,0.149-2.294l0.065-1.163L241.01,192.544z"/>
	<g>
		<path fill="#FFD9C4" d="M159.022,219.558c0.818,1.074-0.233,2.446-1.37,2.551c-0.688,0.067-1.542-0.009-2.482-0.142
			c0.651,0.554,1.249,1.084,1.76,1.508c2.512,2.068,4.928,4.54,6.085,7.631c0.61,1.636-1.531,2.9-2.79,1.914
			c-1.059-0.711-2.196-1.302-3.372-1.826c-0.075,0.325-0.226,0.621-0.431,0.874c1.108,1.104,2.234,2.184,3.405,3.209
			c1.728,1.516,0.144,4.934-2.188,4.141c-1.356-0.464-2.598-1.088-3.766-1.817c0.621,0.72,1.226,1.453,1.795,2.219
			c1.164,1.554-0.978,3.825-2.607,2.795c-0.907-0.573-1.806-1.181-2.689-1.82c0.511,1.574-1.452,3.436-2.996,2.443
			c-6.497-4.183-18.772-18.443-8.449-24.222c1.089-1.527,2.561-2.789,4.313-3.563C148.19,213.267,155.742,215.251,159.022,219.558z"
			/>
		<path fill="#FFD9C4" d="M156.746,165.476c0,0-0.311,0.081-0.891,0.232c-0.142,0.037-0.298,0.078-0.471,0.123
			c0.06-0.001,0.125-0.009,0.19-0.028c0.065-0.021,0.132-0.054,0.193-0.102l0.045-0.039c0.002-0.004-0.035,0.02-0.052,0.027
			l-0.134,0.067c-0.093,0.045-0.193,0.089-0.302,0.129c-0.105,0.034-0.258,0.156-0.397,0.231c-0.148,0.086-0.302,0.177-0.461,0.27
			c-0.174,0.126-0.355,0.257-0.541,0.392c-0.377,0.23-0.794,0.643-1.241,0.988c-0.438,0.411-0.919,0.835-1.4,1.343
			c-0.979,0.994-1.991,2.23-3.011,3.606c-0.977,1.413-2.004,2.949-2.868,4.657c-0.874,1.695-1.708,3.503-2.329,5.389
			c-0.364,0.936-0.58,1.899-0.872,2.86c-0.2,0.964-0.469,1.936-0.589,2.906c-0.343,1.944-0.44,3.881-0.381,5.756
			c0.021,0.47,0.042,0.937,0.063,1.4c0.059,0.458,0.117,0.911,0.175,1.363l0.08,0.68l0.142,0.656c0.09,0.441,0.179,0.877,0.268,1.31
			c0.476,1.694,1.01,3.326,1.751,4.798c0.364,0.736,0.698,1.47,1.142,2.126c0.41,0.672,0.781,1.341,1.254,1.925
			c0.463,0.589,0.817,1.211,1.304,1.718c0.457,0.526,0.89,1.027,1.297,1.497c0.887,0.899,1.684,1.678,2.354,2.312
			c1.438,1.208,2.259,1.897,2.259,1.897l-9.526,13.377c0,0-1.21-0.872-3.329-2.396c-1.029-0.825-2.269-1.859-3.658-3.094
			c-0.668-0.664-1.38-1.367-2.13-2.109c-0.767-0.723-1.456-1.635-2.232-2.514c-0.787-0.871-1.5-1.888-2.247-2.935
			c-0.777-1.023-1.457-2.181-2.155-3.372c-1.411-2.376-2.588-5.082-3.599-7.954c-0.214-0.729-0.43-1.466-0.648-2.207l-0.316-1.12
			l-0.241-1.142c-0.155-0.766-0.311-1.537-0.467-2.312c-0.101-0.779-0.202-1.563-0.303-2.35c-0.115-0.79-0.165-1.579-0.201-2.372
			c-0.035-0.79-0.102-1.591-0.1-2.385c0.02-1.583,0.024-3.184,0.191-4.749c0.098-1.586,0.364-3.126,0.592-4.677
			c0.313-1.518,0.58-3.058,1.004-4.521c0.75-2.971,1.784-5.782,2.918-8.447c1.125-2.67,2.48-5.135,3.852-7.443
			c1.427-2.286,2.908-4.395,4.483-6.277c0.774-0.945,1.598-1.828,2.384-2.666c0.854-0.827,1.594-1.613,2.466-2.328
			c0.42-0.355,0.828-0.7,1.22-1.033c0.42-0.329,0.857-0.642,1.266-0.939c0.424-0.298,0.78-0.582,1.217-0.849
			c0.432-0.262,0.845-0.51,1.236-0.746c0.198-0.115,0.39-0.229,0.578-0.338l0.29-0.164c0.134-0.064,0.265-0.129,0.394-0.191
			c0.519-0.248,1.014-0.47,1.477-0.666s0.897-0.366,1.295-0.517c0.18-0.062,0.344-0.118,0.491-0.168
			c0.569-0.192,0.874-0.296,0.874-0.296L156.746,165.476z"/>
	</g>
	<g>
		<path fill="#FFD9C4" d="M139.651,66.495v52.105c0,6.447,5.228,11.676,11.675,11.676h53.461c6.447,0,11.676-5.229,11.676-11.676
			V66.495H139.651z"/>
		<g>
			<path fill="#FFD9C4" d="M144,97.547c0,3.564-2.889,6.453-6.452,6.453h-0.096c-3.563,0-6.452-2.889-6.452-6.453v-4.094
				c0-3.564,2.889-6.453,6.452-6.453h0.096c3.563,0,6.452,2.889,6.452,6.453V97.547z"/>
			<path fill="#FFD9C4" d="M223,98.423c0,3.564-2.567,5.577-6.13,5.577h-0.399c-3.563,0-6.471-2.013-6.471-5.577v-4.196
				c0-3.563,2.907-7.227,6.471-7.227h0.399c3.563,0,6.13,3.663,6.13,7.227V98.423z"/>
		</g>
		<g>
			<circle fill="#34383C" cx="160.824" cy="89.343" r="3.01"/>
			<circle fill="#34383C" cx="195.292" cy="89.343" r="3.009"/>
		</g>
		<path fill="none" stroke="#FF7F46" stroke-width="1.9418" stroke-linecap="round" stroke-miterlimit="10" d="M185.444,109.858
			c0,4.08-3.309,7.386-7.388,7.386c-4.076,0-7.384-3.306-7.384-7.386"/>
		<circle opacity="0.3" fill="#FF7F46" cx="160.824" cy="99.464" r="5.471"/>
		<circle opacity="0.3" fill="#FF7F46" cx="196.111" cy="99.464" r="5.471"/>
		<polygon fill="#FFD9C4" points="191,143.779 177.09,171.705 164,143.779 164,119 191,119 		"/>
	</g>
	<path id="XMLID_5_" fill="#EE3E38" d="M211.254,145.89c-13.334-3.372-19.317-2.484-19.317-2.484l-13.928,21.799l-13.622-21.846
		c0,0-9.639-2.648-19.624,2.531c-9.625,4.993-16.378,19.57-16.378,19.57s17.555,9.83,17.784,17.112L146.636,223h31.373h31.373
		l1.783-48.962l7.634,8.63l15.535-15.902C234.334,166.766,222.358,148.698,211.254,145.89z"/>
	<path fill="#34383C" d="M138.861,236.403l20.55,21.702l13.108-13.935l6.482,31.182h30.563c0,0,3.718-28.407-0.184-51.819h-62.589
		C146.792,223.533,142.313,223.782,138.861,236.403z"/>
	<text transform="matrix(1 0 0 1 165.0757 210.5332)" fill="#FFFFFF" font-family="'Quicksand-Bold'" font-size="44.419">8</text>
	<path fill="#EBA701" d="M187.082,28.743c21.397,0,34.49-10.146,34.49-10.146s13.084,15.535-3.641,36.895"/>
</g>
</svg>
