<?xml version="1.0" encoding="utf-8"?>
<!-- Generator: Adobe Illustrator 16.0.0, SVG Export Plug-In . SVG Version: 6.00 Build 0)  -->
<!DOCTYPE svg PUBLIC "-//W3C//DTD SVG 1.1//EN" "http://www.w3.org/Graphics/SVG/1.1/DTD/svg11.dtd">
<svg version="1.1" id="Layer_1" xmlns="http://www.w3.org/2000/svg" xmlns:xlink="http://www.w3.org/1999/xlink" x="0px" y="0px"
	 width="350px" height="350px" viewBox="0 0 350 350" enable-background="new 0 0 350 350" xml:space="preserve">
<g>
	<g>
		<path fill="#FFCD00" d="M168.746,40.363c-13.92,0-25.245,11.324-25.245,25.245v4.207c0,2.326,1.882,4.208,4.208,4.208h42.075
			c2.325,0,4.207-1.881,4.207-4.208v-4.207C193.99,51.687,182.667,40.363,168.746,40.363z"/>
	</g>
	<g>
		<path fill="#FF9100" d="M168.631,40.369c-13.868,0.063-25.13,11.357-25.13,25.239v4.207c0,2.326,1.882,4.208,4.208,4.208h20.922
			L168.631,40.369L168.631,40.369z"/>
	</g>
	<g>
		<path fill="#FFCD00" d="M185.576,221.281h-33.659l-8.415,42.074l16.83,46.281h4.208V270.6c-2.503-1.46-4.208-4.145-4.208-7.244
			c0-4.639,3.776-8.415,8.415-8.415s8.415,3.776,8.415,8.415c0,3.101-1.705,5.784-4.208,7.244v39.037h4.208l16.829-46.281
			L185.576,221.281z"/>
	</g>
	<g>
		<path fill="#FF9100" d="M168.631,254.953v-33.672h-16.714l-8.415,42.074l16.83,46.281h4.208V270.6
			c-2.502-1.46-4.208-4.145-4.208-7.244C160.331,258.756,164.046,255.016,168.631,254.953z"/>
	</g>
	<g>
		<path fill="#FF4F19" d="M143.502,69.814v71.526l3.825,75.733c0.214,4.486,3.914,8.015,8.406,8.015h26.025
			c4.492,0,8.192-3.528,8.405-8.015l3.828-75.733V69.814"/>
	</g>
	<g>
		<path fill="#E3001E" d="M168.631,69.814h-25.129v71.526l3.825,75.733c0.214,4.486,3.914,8.015,8.406,8.015h12.898L168.631,69.814
			L168.631,69.814z"/>
	</g>
	<g>
		<path fill="#C10019" d="M139.18,69.814h29.452v75.734h-28.926c-0.29,0-0.526-0.236-0.526-0.526V69.814z"/>
	</g>
	<g>
		<path fill="#E3001E" d="M168.631,69.814h29.453v75.208c0,0.291-0.236,0.526-0.526,0.526h-28.926V69.814L168.631,69.814z"/>
	</g>
	<g>
		<g>
			<path fill="#FF9100" d="M210.82,158.17c-2.326,0-4.208-1.882-4.208-4.208V78.229c0-2.322-1.886-4.208-4.207-4.208H139.18
				c-2.326,0-4.208-1.881-4.208-4.208c0-2.326,1.882-4.207,4.208-4.207h63.227c6.96,0,12.622,5.662,12.622,12.622v75.733
				C215.027,156.289,213.146,158.17,210.82,158.17z"/>
		</g>
	</g>
</g>
</svg>
