<?xml version="1.0" encoding="utf-8"?>
<!-- Generator: Adobe Illustrator 16.0.0, SVG Export Plug-In . SVG Version: 6.00 Build 0)  -->
<!DOCTYPE svg PUBLIC "-//W3C//DTD SVG 1.1//EN" "http://www.w3.org/Graphics/SVG/1.1/DTD/svg11.dtd">
<svg version="1.1" id="Layer_1" xmlns="http://www.w3.org/2000/svg" xmlns:xlink="http://www.w3.org/1999/xlink" x="0px" y="0px"
	 width="350px" height="350px" viewBox="0 0 350 350" enable-background="new 0 0 350 350" xml:space="preserve">
<g>
	<path fill="#FFD553" d="M219.579,199.802c0,5.862-4.796,10.659-10.658,10.659h-36.239c-5.862,0-10.658-4.798-10.658-10.659V61.242
		c0-5.863,4.796-10.659,10.658-10.659h36.239c5.862,0,10.658,4.796,10.658,10.659V199.802z"/>
	<path fill="#FFD553" d="M266.555,205.251c-0.813,5.806-6.225,9.892-12.03,9.08l-35.891-5.018c-5.807-0.812-9.892-6.226-9.08-12.03
		l19.186-137.225c0.813-5.806,6.226-9.892,12.031-9.08l35.889,5.017c5.806,0.812,9.892,6.227,9.08,12.031L266.555,205.251z"/>
</g>
<g>
	<path fill="#FDBA55" d="M182.497,213.017c0.478,5.843-3.913,11.013-9.755,11.49l-36.118,2.951
		c-5.842,0.479-11.014-3.911-11.491-9.754L113.847,79.605c-0.477-5.843,3.913-11.014,9.755-11.491l36.119-2.951
		c5.842-0.477,11.014,3.912,11.492,9.755L182.497,213.017z"/>
	<path fill="#FDBA55" d="M250.487,227.126c-0.358,5.851-5.438,10.345-11.289,9.988l-36.171-2.214
		c-5.851-0.358-10.346-5.438-9.987-11.289L201.5,85.31c0.358-5.851,5.438-10.346,11.289-9.988l36.172,2.212
		c5.853,0.358,10.347,5.438,9.988,11.29L250.487,227.126z"/>
</g>
<path fill="#FFD553" d="M149.299,196.59c1.209,5.736-2.494,11.419-8.23,12.629l-35.459,7.479c-5.736,1.209-11.418-2.493-12.628-8.23
	L64.389,72.891c-1.21-5.736,2.493-11.419,8.229-12.629l35.459-7.478c5.736-1.21,11.419,2.493,12.628,8.229L149.299,196.59z"/>
<path fill="#FF6376" d="M226.613,134.74c-5.861,0-11.658,4.69-12.881,10.424l-5.264,24.674c-1.223,5.732-7.02,10.423-12.882,10.423
	h-35.553c-5.862,0-11.659-4.69-12.882-10.423l-5.263-24.673c-1.223-5.733-7.02-10.424-12.882-10.424H79.759
	c-5.863,0-9.904,4.737-8.982,10.526l22.872,143.625c0.922,5.789,6.472,10.525,12.334,10.525h143.656
	c5.861,0,11.412-4.736,12.335-10.525l22.871-143.625c0.923-5.789-3.12-10.526-8.982-10.526H226.613L226.613,134.74z"/>
<polygon fill="#FFD553" points="89.424,262.368 92.218,279.915 263.403,279.915 266.197,262.368 "/>
<g>
	<circle fill="#3F4963" cx="121.636" cy="211.089" r="7.279"/>
	<circle fill="#3F4963" cx="233.981" cy="211.089" r="7.279"/>
</g>
<g>
	<path fill="#FF9596" d="M129.425,236.526h-15.573c-2.22,0-4.02-1.801-4.02-4.021s1.8-4.02,4.02-4.02h15.573
		c2.22,0,4.021,1.8,4.021,4.02C133.444,234.726,131.645,236.526,129.425,236.526z"/>
	<path fill="#FF9596" d="M241.77,236.526h-15.574c-2.221,0-4.02-1.801-4.02-4.021s1.799-4.02,4.02-4.02h15.574
		c2.22,0,4.02,1.8,4.02,4.02S243.99,236.526,241.77,236.526z"/>
</g>
<g>
	<path fill="#3F4963" d="M168.696,231.496c-7.242,0-13.133-5.892-13.133-13.133c0-2.221,1.8-4.021,4.02-4.021s4.02,1.8,4.02,4.021
		c0,2.809,2.285,5.093,5.094,5.093c2.809,0,5.095-2.284,5.095-5.093c0-2.221,1.798-4.021,4.02-4.021c2.221,0,4.02,1.8,4.02,4.021
		C181.831,225.604,175.939,231.496,168.696,231.496z"/>
	<path fill="#3F4963" d="M186.925,231.496c-7.242,0-13.134-5.892-13.134-13.133c0-2.221,1.799-4.021,4.02-4.021
		c2.222,0,4.021,1.8,4.021,4.021c0,2.809,2.285,5.093,5.094,5.093c2.808,0,5.094-2.284,5.094-5.093c0-2.221,1.8-4.021,4.02-4.021
		c2.221,0,4.021,1.8,4.021,4.021C200.058,225.604,194.166,231.496,186.925,231.496z"/>
</g>
<path d="M277.217,52.013l-35.891-5.017c-8.012-1.122-15.446,4.489-16.568,12.505l-1.158,8.282v-6.541
	c0-8.094-6.584-14.679-14.678-14.679h-36.239c-8.094,0-14.679,6.585-14.679,14.679v0.027l-32.574,2.661l-0.791-3.748
	c-0.806-3.825-3.063-7.113-6.355-9.258c-3.292-2.146-7.211-2.882-11.036-2.076l-35.459,7.479c-3.825,0.807-7.113,3.064-9.258,6.356
	s-2.882,7.212-2.075,11.036l12.408,58.834c-1.206,0.705-2.288,1.602-3.199,2.669c-2.441,2.861-3.483,6.752-2.859,10.676
	l22.872,143.625c1.242,7.802,8.405,13.913,16.305,13.913h143.656c7.898,0,15.062-6.111,16.305-13.913l22.871-143.625
	c0.625-3.923-0.416-7.814-2.858-10.675c-1.357-1.59-3.096-2.801-5.055-3.566l8.818-63.074
	C290.841,60.567,285.231,53.134,277.217,52.013z M248.717,81.547c1.758,0.108,3.376,0.902,4.557,2.236
	c1.181,1.334,1.771,3.037,1.664,4.796l-2.579,42.141h-25.745c-7.801,0-15.186,5.977-16.813,13.605l-5.263,24.674
	c-0.506,2.371-2.281,4.558-4.489,5.896l5.465-89.34c0.107-1.758,0.901-3.376,2.236-4.557c1.334-1.181,3.038-1.77,4.795-1.664
	L248.717,81.547z M166.044,61.242c0-3.661,2.978-6.639,6.639-6.639h36.238c3.66,0,6.639,2.978,6.639,6.639v10.222l-2.523-0.155
	c-3.905-0.24-7.671,1.064-10.614,3.667c-2.942,2.604-4.696,6.186-4.934,10.088l-5.578,91.177h-8.384L175.219,74.59
	c-0.318-3.896-2.143-7.441-5.138-9.984c-1.227-1.041-2.589-1.857-4.037-2.441V61.242L166.044,61.242z M160.048,69.169
	c1.752-0.145,3.471,0.413,4.829,1.565c1.358,1.153,2.185,2.754,2.329,4.51l8.254,100.997h-15.426c-3.944,0-8.127-3.385-8.95-7.242
	l-5.262-24.674c-0.744-3.489-2.695-6.63-5.336-9.014l-13.383-63.45L160.048,69.169z M68.322,72.061
	c-0.363-1.724-0.028-3.496,0.946-4.988c0.973-1.492,2.457-2.515,4.181-2.878l35.458-7.478c1.724-0.364,3.495-0.028,4.987,0.944
	c1.493,0.972,2.515,2.457,2.878,4.181l14.565,69.056c-0.769-0.116-1.547-0.179-2.329-0.179H80.694L68.322,72.061z M280.875,144.634
	l-22.87,143.625c-0.618,3.869-4.448,7.138-8.366,7.138H105.983c-3.918,0-7.749-3.269-8.365-7.138L74.747,144.634
	c-0.258-1.619,0.11-3.108,1.036-4.193c0.925-1.084,2.337-1.681,3.977-1.681h49.249c3.944,0,8.127,3.384,8.95,7.242l5.262,24.674
	c1.628,7.629,9.013,13.604,16.813,13.604h35.554c7.801,0,15.186-5.976,16.813-13.604l5.264-24.675
	c0.822-3.858,5.004-7.242,8.949-7.242h49.249c1.64,0,3.052,0.597,3.978,1.682C280.766,141.526,281.133,143.015,280.875,144.634z
	 M281.758,67.469l-8.843,63.251h-12.5l2.548-41.65c0.238-3.902-1.063-7.671-3.667-10.614c-2.603-2.943-6.186-4.695-10.088-4.934
	l-18.138-1.11l1.649-11.799c0.507-3.625,3.866-6.164,7.494-5.655l35.889,5.017C279.728,60.482,282.265,63.844,281.758,67.469z
	 M121.638,203.808c-4.02,0-7.278,3.26-7.278,7.28c0,4.02,3.259,7.278,7.278,7.278c4.021,0,7.279-3.259,7.279-7.278
	C128.917,207.067,125.658,203.808,121.638,203.808z M233.983,203.808c-4.021,0-7.279,3.26-7.279,7.28c0,4.02,3.26,7.278,7.279,7.278
	s7.278-3.259,7.278-7.278C241.262,207.067,238.003,203.808,233.983,203.808z M196.038,214.344c-2.22,0-4.021,1.801-4.021,4.021
	c0,2.809-2.285,5.093-5.093,5.093c-2.809,0-5.094-2.284-5.094-5.093c0-2.22-1.8-4.021-4.021-4.021s-4.021,1.801-4.021,4.021
	c0,2.809-2.285,5.093-5.094,5.093c-2.808,0-5.094-2.284-5.094-5.093c0-2.22-1.799-4.021-4.02-4.021c-2.221,0-4.02,1.801-4.02,4.021
	c0,7.242,5.891,13.134,13.133,13.134c3.538,0,6.75-1.409,9.114-3.69c2.363,2.281,5.576,3.69,9.113,3.69
	c7.242,0,13.134-5.892,13.134-13.134C200.058,216.143,198.259,214.344,196.038,214.344z"/>
</svg>
