<?xml version="1.0" encoding="utf-8"?>
<!-- Generator: Adobe Illustrator 16.0.0, SVG Export Plug-In . SVG Version: 6.00 Build 0)  -->
<!DOCTYPE svg PUBLIC "-//W3C//DTD SVG 1.1//EN" "http://www.w3.org/Graphics/SVG/1.1/DTD/svg11.dtd">
<svg version="1.1" id="Capa_1" xmlns="http://www.w3.org/2000/svg" xmlns:xlink="http://www.w3.org/1999/xlink" x="0px" y="0px"
	 width="350px" height="350px" viewBox="0 0 350 350" enable-background="new 0 0 350 350" xml:space="preserve">
<g>
	<path fill="#FAB900" d="M174.98,164.428c3.985,0,8.524-0.596,13.252-1.724V40.5h-26.117v122.298
		C166.702,163.864,171.105,164.428,174.98,164.428z"/>
	<path fill="#FDEB08" d="M214.349,151.14V66.616h-26.116v94.02C197.055,158.536,206.519,156.625,214.349,151.14z"/>
	<path fill="#E09A0A" d="M225.918,140.098c3.604-5.025,8.749-8.608,14.547-10.264V87.51h-26.116v62.679
		C218.919,146.993,222.941,144.256,225.918,140.098z"/>
	<path fill="#FDEB08" d="M247.678,128.784h14.935c1.395,0,2.705,0.261,3.97,0.637V103.18h-26.117v26.654
		C242.79,129.171,245.203,128.784,247.678,128.784z"/>
	<path fill="#FDEB08" d="M162.116,160.636v-94.02h-26.117v84.779C143.871,156.828,153.33,158.594,162.116,160.636z"/>
	<path fill="#F8B700" d="M124.069,140.098c3.061,4.267,7.214,6.837,11.93,10.091V87.51h-26.116v42.434
		C115.529,131.646,120.543,135.172,124.069,140.098z"/>
	<path fill="#FDEB08" d="M87.375,128.784h14.933c2.606,0,5.146,0.428,7.574,1.165V103.18H83.766v26.111
		C84.92,128.988,86.117,128.784,87.375,128.784z"/>
	<path fill="#D32500" d="M247.678,126.172c-8.582,0-16.667,4.105-21.619,11.116c-10.76,15.226-35.252,24.534-51.078,24.534
		c-15.827,0-40.292-9.303-51.053-24.534c-4.951-7.01-13.037-11.116-21.619-11.116H87.375c-8.681,0-13.858,7.59-13.858,16.36v0.914
		c-0.125,51.141,8.389,101.938,25.192,150.238l1.175,3.379c2.382,6.842,10.253,12.437,17.498,12.437h115.231
		c9.256,0,17.153-6.691,18.674-15.815l0,0c17.038-48.285,25.563-99.159,25.197-150.359l-0.006-0.793
		c0-8.77-5.176-16.36-13.857-16.36H247.678z"/>
	<path fill="#F55E30" d="M262.617,154.357h-14.934c-8.581,0-16.668,4.105-21.618,11.115c-10.761,15.226-35.253,24.534-51.08,24.534
		s-40.292-9.303-51.053-24.534c-4.951-7.01-13.037-11.115-21.619-11.115H87.375c-7.093,0-11.789,5.093-13.293,11.727
		c2.063,43.458,10.306,86.436,24.628,127.595c0,0,45.202-10.301,76.469-10.301c31.225,0,75.916,11.429,76.103,10.301
		c14.474-41.023,22.737-83.928,24.696-127.302C274.547,159.596,269.815,154.357,262.617,154.357z"/>
	<ellipse fill="#FAC84D" cx="177.786" cy="236.374" rx="36.563" ry="26.116"/>
</g>
</svg>
