<?xml version="1.0" encoding="utf-8"?>
<!-- Generator: Adobe Illustrator 16.0.0, SVG Export Plug-In . SVG Version: 6.00 Build 0)  -->
<!DOCTYPE svg PUBLIC "-//W3C//DTD SVG 1.1//EN" "http://www.w3.org/Graphics/SVG/1.1/DTD/svg11.dtd">
<svg version="1.1" id="Layer_1" xmlns="http://www.w3.org/2000/svg" xmlns:xlink="http://www.w3.org/1999/xlink" x="0px" y="0px"
	 width="350px" height="350px" viewBox="0 0 350 350" enable-background="new 0 0 350 350" xml:space="preserve">
<g id="XMLID_1314_">
	<path id="XMLID_1315_" fill="#FFF6D2" d="M298.5,175c0,31.239-30.366,52.189-50.838,72.661
		C227.189,268.134,206.239,298.5,175,298.5c-31.239,0-52.189-30.366-72.662-50.839C81.866,227.189,51.5,206.239,51.5,175
		c0-31.239,30.366-52.19,50.838-72.662C122.811,81.865,143.761,51.5,175,51.5c31.239,0,52.189,30.365,72.662,50.838
		C268.134,122.81,298.5,143.761,298.5,175z"/>
	<path id="XMLID_1316_" fill="#FFE98F" d="M175,51.5c-31.239,0-52.189,30.365-72.662,50.838C81.866,122.81,51.5,143.761,51.5,175
		c0,31.239,30.366,52.189,50.838,72.661C122.811,268.134,143.761,298.5,175,298.5C175,231.057,175,146.095,175,51.5z"/>
	<circle id="XMLID_1317_" fill="#FFAD41" cx="175" cy="174.182" r="40.894"/>
	<path id="XMLID_1318_" fill="#FF9811" d="M175,215.076c-22.585,0-40.894-18.31-40.894-40.894c0-22.584,18.309-40.894,40.894-40.894
		"/>
</g>
</svg>
