<?xml version="1.0" encoding="utf-8"?>
<!-- Generator: Adobe Illustrator 16.0.0, SVG Export Plug-In . SVG Version: 6.00 Build 0)  -->
<!DOCTYPE svg PUBLIC "-//W3C//DTD SVG 1.1//EN" "http://www.w3.org/Graphics/SVG/1.1/DTD/svg11.dtd">
<svg version="1.1" id="Layer_1" xmlns="http://www.w3.org/2000/svg" xmlns:xlink="http://www.w3.org/1999/xlink" x="0px" y="0px"
	 width="350px" height="350px" viewBox="0 0 350 350" enable-background="new 0 0 350 350" xml:space="preserve">
<g>
	<g>
		<path fill="#FFC675" d="M264.465,203.772H85.535V122.38c0-32.199,26.195-58.394,58.394-58.394h62.142
			c32.198,0,58.395,26.195,58.395,58.394V203.772z M98.124,191.184h153.751V122.38c0-25.256-20.548-45.804-45.805-45.804h-62.142
			c-25.257,0-45.805,20.548-45.805,45.804V191.184z"/>
	</g>
	<circle fill="#F27979" cx="175" cy="136.883" r="22.519"/>
	<circle fill="#B35959" cx="175" cy="159.402" r="22.519"/>
	<circle fill="#D96C6C" cx="140.489" cy="159.402" r="22.519"/>
	<circle fill="#D96C6C" cx="209.511" cy="159.402" r="22.518"/>
	<circle fill="#804040" cx="175" cy="181.921" r="22.519"/>
	<circle fill="#B35959" cx="140.489" cy="181.921" r="22.519"/>
	<circle fill="#804040" cx="105.977" cy="181.921" r="22.518"/>
	<circle fill="#B35959" cx="209.511" cy="181.921" r="22.518"/>
	<circle fill="#804040" cx="244.022" cy="181.921" r="22.519"/>
	<path fill="#B37D5A" d="M76.591,197.479l9.457,65.249c1.794,13.335,13.174,23.286,26.628,23.286h124.649
		c13.453,0,24.833-9.951,26.627-23.286l9.457-65.249H76.591z"/>
	<rect x="69.915" y="181.921" fill="#FFC675" width="210.17" height="15.558"/>
	<path fill="#996B4D" d="M110.002,197.479H76.591l9.457,65.249c1.794,13.335,13.174,23.286,26.628,23.286h11.143L110.002,197.479z"
		/>
	<path opacity="0.2" d="M239.998,197.479h33.411l-9.457,65.249c-1.794,13.335-13.174,23.286-26.627,23.286h-11.143L239.998,197.479z
		"/>
	<polygon opacity="0.2" points="123.818,286.014 154.493,286.014 146.657,197.479 110.002,197.479 	"/>
	<polygon fill="#996B4D" points="175,286.014 175,197.479 146.657,197.479 154.493,286.014 	"/>
	<polygon fill="#996B4D" points="226.183,286.014 195.507,286.014 203.343,197.479 239.998,197.479 	"/>
	<polygon opacity="0.2" points="175,286.014 175,197.479 203.343,197.479 195.507,286.014 	"/>
	<polygon opacity="0.2" points="265.643,251.067 269.362,225.404 80.639,225.404 84.357,251.067 	"/>
	<polygon opacity="0.2" points="77.503,203.772 272.497,203.772 273.409,197.479 76.591,197.479 	"/>
</g>
</svg>
