<?xml version="1.0" encoding="utf-8"?>
<!-- Generator: Adobe Illustrator 16.0.0, SVG Export Plug-In . SVG Version: 6.00 Build 0)  -->
<!DOCTYPE svg PUBLIC "-//W3C//DTD SVG 1.1//EN" "http://www.w3.org/Graphics/SVG/1.1/DTD/svg11.dtd">
<svg version="1.1" id="Layer_1" xmlns="http://www.w3.org/2000/svg" xmlns:xlink="http://www.w3.org/1999/xlink" x="0px" y="0px"
	 width="350px" height="350px" viewBox="0 0 350 350" enable-background="new 0 0 350 350" xml:space="preserve">
<g id="XMLID_1706_">
	<path id="XMLID_1707_" fill="#DEDDE0" d="M289.706,220.404c0-42.474-38.182-76.422-66.853-105.087
		c-0.019-0.02-0.041-0.041-0.061-0.06c-0.046-0.046-0.084-0.083-0.128-0.128c-18.497-18.499-33.272-33.489-23.768-62.004
		c0,0-23.897,0-23.897,19.118c0-19.118-23.897-19.118-23.897-19.118c9.504,28.516-5.271,43.506-23.768,62.004
		c-0.045,0.045-0.083,0.082-0.129,0.128c-0.019,0.02-0.041,0.041-0.061,0.06c-28.67,28.665-66.852,62.613-66.852,105.087
		c0,0.251,0.01,0.489,0.014,0.735c-0.003,0.246-0.014,0.49-0.014,0.736c0,41.42,33.578,74.999,75.001,74.999
		c14.585,0,28.188-4.177,39.705-11.381c11.518,7.204,25.12,11.381,39.705,11.381c41.424,0,75.001-33.579,75.001-74.999
		c0-0.247-0.011-0.491-0.014-0.736C289.696,220.894,289.706,220.655,289.706,220.404z"/>
	<path id="XMLID_1708_" fill="#CDCDD0" d="M151.103,53.125c9.504,28.516-5.271,43.506-23.768,62.004
		c-0.045,0.045-0.083,0.082-0.129,0.128c-0.019,0.02-0.041,0.041-0.061,0.06c-28.67,28.665-66.852,62.613-66.852,105.087
		c0,0.251,0.01,0.489,0.014,0.735c-0.003,0.246-0.014,0.49-0.014,0.736c0,41.42,33.578,74.999,75.001,74.999
		c14.585,0,28.188-4.177,39.705-11.381c0-12.612,0-29.215,0-47.406c0-23.411,0-72.65,0-111.738c0-26.252,0-47.92,0-54.107
		C175,53.125,151.103,53.125,151.103,53.125z"/>
	<path id="XMLID_1709_" fill="#EEEEEF" d="M198.048,82.574c-0.561-1.736-0.747-2.542-0.959-3.265
		c-1.873-7.52-1.592-15.983,1.809-26.184c0,0-23.897,0-23.897,19.118c0-19.118-23.897-19.118-23.897-19.118
		c3.4,10.2,3.681,18.664,1.809,26.184c-0.212,0.723-0.398,1.529-0.959,3.265c-4.165,18.91-24.747,114.957-24.747,166.507
		c0,21.762,12.327,38.009,29.806,44.583c5.555,2.09,11.623,3.211,17.988,3.211s12.434-1.122,17.987-3.211
		c17.48-6.574,29.807-22.821,29.807-44.583C222.794,197.53,202.213,101.483,198.048,82.574z"/>
	<path id="XMLID_1710_" fill="#DEDDE0" d="M151.953,82.574c0.561-1.736,0.747-2.542,0.959-3.265
		c1.873-7.519,1.591-15.983-1.809-26.184c0,0,23.897,0,23.897,19.118c0,5.291,0,223.279,0,224.632
		c-6.365,0-12.434-1.122-17.988-3.211c-17.479-6.574-29.806-22.821-29.806-44.583C127.206,197.53,147.788,101.483,151.953,82.574z"
		/>
</g>
</svg>
