<?xml version="1.0" encoding="utf-8"?>
<!-- Generator: Adobe Illustrator 16.0.0, SVG Export Plug-In . SVG Version: 6.00 Build 0)  -->
<!DOCTYPE svg PUBLIC "-//W3C//DTD SVG 1.1//EN" "http://www.w3.org/Graphics/SVG/1.1/DTD/svg11.dtd">
<svg version="1.1" id="Layer_1" xmlns="http://www.w3.org/2000/svg" xmlns:xlink="http://www.w3.org/1999/xlink" x="0px" y="0px"
	 width="350px" height="350px" viewBox="0 0 350 350" enable-background="new 0 0 350 350" xml:space="preserve">
<g id="XMLID_14255_">
	<g id="XMLID_12793_">
		<path id="XMLID_72_" fill="#444F5C" d="M165.816,181.928c-24.051,0-45.003-1.182-62.35-2.781
			c-54.537-5.03-86.195-15.172-86.508-15.274c-0.369-0.12-0.571-0.516-0.451-0.885c0.12-0.369,0.517-0.569,0.885-0.451
			c0.313,0.102,31.859,10.204,86.257,15.216c50.205,4.627,130.692,5.739,229.031-15.235c0.377-0.083,0.752,0.161,0.833,0.541
			s-0.16,0.752-0.54,0.833C268.409,177.66,211.521,181.928,165.816,181.928z"/>
	</g>
	<g id="XMLID_13069_">
		<g id="XMLID_13878_">
			<g id="XMLID_13879_">
				<path id="XMLID_70_" fill="#86557A" d="M45.702,170.858c-0.797,4.024-4.771,6.614-8.873,5.748
					c-4.097-0.937-6.628-4.933-5.653-8.921s4.933-6.497,8.84-5.601C43.95,162.913,46.5,166.827,45.702,170.858z"/>
			</g>
		</g>
		<g id="XMLID_13877_">
			<path fill="#F8A039" d="M56.512,172.897c-0.355,2.021-2.295,3.357-4.332,2.984c-2.038-0.375-3.372-2.312-2.98-4.328
				c0.392-2.015,2.331-3.351,4.332-2.983C55.533,168.938,56.867,170.875,56.512,172.897z"/>
		</g>
		<g id="XMLID_13875_">
			<g id="XMLID_13876_">
				<path id="XMLID_69_" fill="#F16D76" d="M75.796,175.918c-0.283,2.032-1.367,3.76-2.904,4.91
					c-1.537,1.155-3.525,1.724-5.58,1.378c-4.122-0.659-6.904-4.476-6.216-8.523c0.689-4.047,4.479-6.813,8.467-6.174
					c1.995,0.336,3.689,1.408,4.821,2.913C75.514,171.932,76.079,173.884,75.796,175.918z"/>
			</g>
		</g>
		<g id="XMLID_13874_">
			<path fill="#7DCBC8" d="M86.704,177.347c-0.242,2.026-2.108,3.535-4.156,3.238c-2.05-0.277-3.49-2.153-3.217-4.188
				c0.273-2.035,2.131-3.462,4.15-3.188C85.497,173.503,86.948,175.296,86.704,177.347z"/>
		</g>
		<g id="XMLID_13872_">
			<g id="XMLID_13873_">
				<path id="XMLID_68_" fill="#86557A" d="M106.121,179.335c-0.352,4.08-4.001,7.146-8.145,6.74
					c-4.14-0.458-7.117-4.137-6.649-8.217c0.468-4.078,4.107-7.023,8.129-6.577C103.485,171.675,106.475,175.234,106.121,179.335z"
					/>
			</g>
		</g>
		<g id="XMLID_13871_">
			<path fill="#F8A039" d="M117.084,180.246c-0.072,1.022-0.554,1.93-1.277,2.554c-0.722,0.613-1.684,0.949-2.713,0.861
				c-2.06-0.176-3.59-1.977-3.419-4.022c0.171-2.046,1.958-3.563,3.989-3.391c1.017,0.087,1.906,0.58,2.525,1.309
				C116.808,178.274,117.157,179.221,117.084,180.246z"/>
		</g>
		<g id="XMLID_13869_">
			<g id="XMLID_13870_">
				<path id="XMLID_67_" fill="#F16D76" d="M136.575,181.326c-0.086,2.051-0.998,3.881-2.414,5.182
					c-1.415,1.29-3.332,1.991-5.405,1.875c-4.152-0.245-7.299-3.766-7.028-7.862s3.77-7.224,7.815-6.985
					c2.026,0.114,3.818,1.072,5.092,2.468C135.909,177.391,136.661,179.274,136.575,181.326z"/>
			</g>
		</g>
		<g id="XMLID_13868_">
			<path fill="#7DCBC8" d="M147.571,181.679c-0.052,2.053-1.769,3.663-3.833,3.597c-2.065-0.067-3.676-1.783-3.598-3.835
				c0.078-2.052,1.794-3.661,3.833-3.597C146.012,177.91,147.623,179.627,147.571,181.679z"/>
		</g>
		<g id="XMLID_13866_">
			<g id="XMLID_13867_">
				<path id="XMLID_66_" fill="#86557A" d="M167.088,181.915c0.012,4.105-3.348,7.42-7.503,7.4
					c-4.156-0.021-7.454-3.352-7.365-7.487c0.087-4.073,3.447-7.401,7.503-7.38C163.779,174.466,167.077,177.81,167.088,181.915z"/>
			</g>
		</g>
		<g id="XMLID_13865_">
			<path fill="#F8A039" d="M178.089,181.826c0.034,2.052-1.611,3.756-3.676,3.807c-2.064,0.055-3.748-1.664-3.758-3.702
				c-0.01-2.067,1.636-3.678,3.676-3.733C176.371,178.148,178.054,179.772,178.089,181.826z"/>
		</g>
		<g id="XMLID_13841_">
			<g id="XMLID_13842_">
				<path id="XMLID_65_" fill="#F16D76" d="M197.601,181.272c0.086,2.051-0.668,3.952-1.968,5.369s-3.149,2.265-5.222,2.324
					c-4.153,0.1-7.588-3.146-7.673-7.252c-0.083-4.104,3.137-7.511,7.193-7.608c2.03-0.058,3.899,0.759,5.287,2.03
					C196.605,177.409,197.513,179.222,197.601,181.272z"/>
			</g>
		</g>
		<g id="XMLID_13840_">
			<path fill="#7DCBC8" d="M208.586,180.688c0.118,2.049-1.458,3.8-3.52,3.91c-2.063,0.109-3.81-1.464-3.904-3.515
				c-0.094-2.051,1.482-3.802,3.52-3.91C206.721,177.064,208.469,178.638,208.586,180.688z"/>
		</g>
		<g id="XMLID_13838_">
			<g id="XMLID_13839_">
				<path id="XMLID_64_" fill="#86557A" d="M228.057,179.328c0.342,4.091-2.734,7.688-6.872,8.032
					c-1.033,0.086-2.031-0.039-2.951-0.34c-0.92-0.305-1.764-0.821-2.484-1.451c-1.44-1.271-2.39-3.081-2.518-5.13
					s0.585-3.948,1.83-5.361c0.623-0.712,1.382-1.281,2.234-1.726c0.854-0.449,1.803-0.737,2.816-0.822
					C224.158,172.193,227.716,175.237,228.057,179.328z"/>
			</g>
		</g>
		<g id="XMLID_13837_">
			<path fill="#F8A039" d="M239.021,178.413c0.198,2.044-1.31,3.839-3.366,4.011c-2.058,0.172-3.867-1.347-4.042-3.393
				s1.332-3.841,3.366-4.01C237.014,174.851,238.822,176.369,239.021,178.413z"/>
		</g>
		<g id="XMLID_13814_">
			<g id="XMLID_13836_">
				<path id="XMLID_63_" fill="#F16D76" d="M258.422,176.259c0.497,4.076-2.442,7.763-6.565,8.234
					c-4.124,0.471-7.799-2.459-8.207-6.544c-0.41-4.085,2.529-7.771,6.564-8.233C254.248,169.254,257.924,172.184,258.422,176.259z"
					/>
			</g>
		</g>
		<g id="XMLID_13813_">
			<path fill="#7DCBC8" d="M269.338,174.903c0.274,2.03-1.156,3.936-3.202,4.215c-2.051,0.234-3.917-1.228-4.171-3.264
				c-0.253-2.037,1.188-3.876,3.215-4.109C267.203,171.469,269.063,172.865,269.338,174.903z"/>
		</g>
		<g id="XMLID_13810_">
			<g id="XMLID_13812_">
				<path id="XMLID_62_" fill="#86557A" d="M288.652,172.078c0.649,4.054-2.152,7.828-6.259,8.428
					c-4.105,0.602-7.891-2.21-8.453-6.276c-0.563-4.067,2.239-7.841,6.259-8.429C284.219,165.213,288.003,168.023,288.652,172.078z"
					/>
			</g>
		</g>
		<g id="XMLID_13809_">
			<path fill="#F8A039" d="M299.498,170.239c0.35,2.023-1.014,3.958-3.045,4.322c-2.031,0.364-3.944-0.984-4.272-3.011
				s1.035-3.961,3.045-4.321C297.235,166.868,299.148,168.216,299.498,170.239z"/>
		</g>
		<g id="XMLID_13807_">
			<g id="XMLID_13808_">
				<path id="XMLID_60_" fill="#F16D76" d="M318.713,166.797c0.796,4.028-1.869,7.887-5.953,8.62
					c-4.084,0.731-7.971-1.954-8.683-5.998c-0.711-4.044,1.954-7.903,5.953-8.619C314.03,160.083,317.917,162.769,318.713,166.797z"
					/>
			</g>
		</g>
	</g>
</g>
</svg>
