<?xml version="1.0" encoding="utf-8"?>
<!-- Generator: Adobe Illustrator 16.0.0, SVG Export Plug-In . SVG Version: 6.00 Build 0)  -->
<!DOCTYPE svg PUBLIC "-//W3C//DTD SVG 1.1//EN" "http://www.w3.org/Graphics/SVG/1.1/DTD/svg11.dtd">
<svg version="1.1" id="Layer_1" xmlns="http://www.w3.org/2000/svg" xmlns:xlink="http://www.w3.org/1999/xlink" x="0px" y="0px"
	 width="350px" height="350px" viewBox="0 0 350 350" enable-background="new 0 0 350 350" xml:space="preserve">
<g id="XMLID_14251_">
	<g id="XMLID_12804_">
		<path id="XMLID_26_" fill="#444F5C" d="M166.261,175.458c-22.887,0-42.824-1.124-59.331-2.646
			c-51.896-4.786-82.02-14.438-82.318-14.534c-0.351-0.114-0.543-0.492-0.429-0.842c0.114-0.351,0.491-0.542,0.842-0.429
			c0.298,0.097,30.316,9.71,82.08,14.479c47.773,4.403,124.362,5.46,217.938-14.497c0.358-0.081,0.716,0.152,0.793,0.514
			c0.076,0.361-0.153,0.716-0.514,0.793C263.885,171.397,209.752,175.458,166.261,175.458z"/>
	</g>
	<g id="XMLID_13909_">
		<g id="XMLID_14183_">
			<path fill="#BFDDD9" d="M44.631,181.224c0,0-0.284-1.351-0.71-3.377c-0.419-2.044-0.961-4.765-1.475-7.479
				c-1.036-5.432-1.937-10.83-1.937-10.83s1.046,0.239,2.613,0.598c1.573,0.347,3.646,0.866,5.76,1.29
				c2.109,0.436,4.218,0.872,5.8,1.199c1.577,0.338,2.645,0.519,2.645,0.519s-0.774,1.144-1.935,2.859
				c-1.162,1.698-2.725,3.959-4.312,6.216C47.915,176.734,44.631,181.224,44.631,181.224z"/>
		</g>
		<g id="XMLID_14182_">
			<path fill="#7DCBC8" d="M68.195,185.596c0,0-1.425-5.354-2.752-10.695c-0.668-2.659-1.308-5.365-1.779-7.379
				c-0.467-2.016-0.777-3.36-0.777-3.36s1.062,0.195,2.654,0.488c1.596,0.281,3.737,0.604,5.872,0.952
				c2.137,0.342,4.273,0.684,5.875,0.94c1.61,0.221,2.683,0.369,2.683,0.369s-0.719,1.179-1.799,2.948
				c-1.085,1.778-2.537,4.111-4.007,6.437C71.229,180.954,68.195,185.596,68.195,185.596z"/>
		</g>
		<g id="XMLID_14181_">
			<path fill="#1D7FAB" d="M91.853,188.859c0,0-1.651-5.268-3.215-10.553c-1.568-5.322-3.046-10.632-3.046-10.632
				s1.074,0.146,2.685,0.365c1.606,0.239,3.765,0.467,5.921,0.706c4.313,0.479,8.624,0.956,8.624,0.956s-2.66,4.798-5.407,9.588
				C94.676,184.078,91.853,188.859,91.853,188.859z"/>
		</g>
		<g id="XMLID_14180_">
			<path fill="#4D4F84" d="M115.583,191.152c0,0-1.854-5.239-3.625-10.472c-1.779-5.233-3.478-10.458-3.478-10.458
				s4.326,0.369,8.653,0.739c2.161,0.207,4.331,0.328,5.959,0.419c1.627,0.096,2.711,0.16,2.711,0.16s-2.482,4.925-5.042,9.845
				c-1.278,2.466-2.571,4.918-3.546,6.73C116.236,189.938,115.583,191.152,115.583,191.152z"/>
		</g>
		<g id="XMLID_14179_">
			<path fill="#BFDDD9" d="M139.355,192.521c0,0-0.507-1.283-1.267-3.207c-0.757-1.931-1.758-4.473-2.741-7.066
				c-1.971-5.188-3.865-10.372-3.865-10.372s1.085,0.064,2.712,0.161c1.625,0.119,3.799,0.186,5.972,0.25
				c4.347,0.14,8.692,0.279,8.692,0.279s-2.305,4.992-4.684,9.98C141.803,187.535,139.355,192.521,139.355,192.521z"/>
		</g>
		<g id="XMLID_14178_">
			<path fill="#7DCBC8" d="M163.145,193.028c0,0-2.218-5.072-4.363-10.145c-2.152-5.072-4.233-10.144-4.233-10.144l17.403,0.077
				c0,0-2.133,5.053-4.338,10.106C165.415,187.976,163.145,193.028,163.145,193.028z"/>
		</g>
		<g id="XMLID_14177_">
			<path fill="#1D7FAB" d="M186.924,192.75c0,0-2.386-5.008-4.701-10.016c-2.322-5.008-4.575-10.019-4.575-10.019
				s4.352-0.104,8.703-0.209c2.176-0.051,4.352-0.104,5.983-0.143c0.815-0.012,1.496-0.043,1.971-0.074
				c0.476-0.025,0.747-0.04,0.747-0.04s-0.493,1.294-1.235,3.234c-0.754,1.919-1.759,4.479-2.765,7.039
				C189.022,187.635,186.924,192.75,186.924,192.75z"/>
		</g>
		<g id="XMLID_14176_">
			<path fill="#4D4F84" d="M210.67,191.695c0,0-2.512-4.936-5.023-9.871c-2.452-4.939-4.902-9.879-4.902-9.879
				s4.349-0.232,8.696-0.463c2.174-0.126,4.351-0.207,5.978-0.341c1.629-0.137,2.714-0.228,2.714-0.228s-0.453,1.308-1.133,3.27
				c-0.684,1.953-1.599,4.602-2.533,7.17C212.567,186.524,210.67,191.695,210.67,191.695z"/>
		</g>
		<g id="XMLID_14174_">
			<path fill="#BFDDD9" d="M234.362,189.88c0,0-2.667-4.857-5.334-9.715c-2.607-4.863-5.214-9.726-5.214-9.726
				s4.341-0.362,8.682-0.724c2.169-0.192,4.344-0.328,5.965-0.543c1.623-0.187,2.705-0.31,2.705-0.31s-1.636,5.286-3.336,10.569
				C236.096,184.655,234.362,189.88,234.362,189.88z"/>
		</g>
		<g id="XMLID_14173_">
			<path fill="#7DCBC8" d="M257.977,187.319c0,0-2.814-4.772-5.63-9.546c-2.757-4.781-5.514-9.561-5.514-9.561
				s4.329-0.495,8.659-0.991c2.162-0.264,4.333-0.457,5.948-0.717c1.617-0.237,2.695-0.395,2.695-0.395s-0.371,1.333-0.93,3.333
				c-0.568,1.998-1.327,4.662-2.084,7.326C259.549,182.045,257.977,187.319,257.977,187.319z"/>
		</g>
		<g id="XMLID_14172_">
			<path fill="#1D7FAB" d="M281.494,184.035c0,0-2.956-4.684-5.913-9.368c-2.899-4.692-5.8-9.384-5.8-9.384s4.313-0.631,8.626-1.262
				c2.156-0.315,4.313-0.63,5.931-0.867c1.61-0.284,2.684-0.474,2.684-0.474s-0.332,1.345-0.829,3.363
				c-0.499,2.031-1.179,4.69-1.872,7.345C282.907,178.712,281.494,184.035,281.494,184.035z"/>
		</g>
		<g id="XMLID_14171_">
			<path fill="#4D4F84" d="M304.896,180.051c0,0-3.091-4.589-6.183-9.179c-3.037-4.599-6.074-9.198-6.074-9.198l17.168-3.075
				c0,0-1.2,5.357-2.4,10.715C306.15,174.682,304.896,180.051,304.896,180.051z"/>
		</g>
	</g>
</g>
</svg>
