<?xml version="1.0" encoding="utf-8"?>
<!-- Generator: Adobe Illustrator 16.0.0, SVG Export Plug-In . SVG Version: 6.00 Build 0)  -->
<!DOCTYPE svg PUBLIC "-//W3C//DTD SVG 1.1//EN" "http://www.w3.org/Graphics/SVG/1.1/DTD/svg11.dtd">
<svg version="1.1" id="Layer_1" xmlns="http://www.w3.org/2000/svg" xmlns:xlink="http://www.w3.org/1999/xlink" x="0px" y="0px"
	 width="350px" height="350px" viewBox="0 0 350 350" enable-background="new 0 0 350 350" xml:space="preserve">
<g id="XMLID_14204_">
	<g id="XMLID_12970_">
		<path id="XMLID_21_" fill="#444F5C" d="M166.326,180.397c-22.714,0-42.503-1.115-58.886-2.626
			c-51.506-4.75-81.405-14.33-81.701-14.426c-0.349-0.113-0.539-0.488-0.426-0.835c0.114-0.348,0.488-0.539,0.836-0.426
			c0.295,0.096,30.089,9.637,81.464,14.371c47.415,4.368,123.431,5.419,216.305-14.389c0.355-0.075,0.71,0.151,0.787,0.51
			c0.076,0.359-0.152,0.711-0.51,0.788C263.219,176.368,209.491,180.397,166.326,180.397z"/>
	</g>
	<g id="XMLID_14175_">
		<g id="XMLID_14232_">
			<g id="XMLID_14233_">
				<path id="XMLID_19_" fill="#86557A" d="M45.979,169.803c-4.37,4.268-6.992,2.586-7.15,0.462c-0.164-2.125,2.014-4.72,6.97-2.34
					c-4.976-2.384-3.923-5.061-1.992-5.909c1.936-0.851,4.779,0.153,3.707,5.155c1.098-5.018,4.11-4.732,5.522-3.156
					c1.409,1.575,1.247,4.446-4.272,4.544c5.501-0.101,6.4,3.164,5.365,5.028c-1.031,1.865-4.103,2.306-6.307-3.394
					c2.213,5.702-0.405,7.783-2.556,7.337C43.114,177.063,41.599,174.063,45.979,169.803z"/>
			</g>
		</g>
		<g id="XMLID_14230_">
			<g id="XMLID_14231_">
				<path id="XMLID_18_" fill="#AAAF36" d="M63.849,171.754c-0.296,1.696-1.916,2.817-3.617,2.505
					c-1.702-0.313-2.818-1.936-2.495-3.627c0.324-1.691,1.943-2.813,3.617-2.505C63.028,168.434,64.145,170.058,63.849,171.754z"/>
			</g>
		</g>
		<g id="XMLID_14229_">
			<path fill="#F8A039" d="M74.126,174.979c-4.087,4.547-6.789,3.048-7.098,0.938c-0.312-2.11,1.682-4.845,6.797-2.799
				c-5.128-2.049-4.27-4.792-2.388-5.765c1.884-0.972,4.816-0.169,4.053,4.91c0.386-2.54,1.342-3.769,2.385-4.178
				c1.047-0.431,2.187-0.042,2.944,0.695c1.512,1.472,1.515,4.35-3.996,4.816c5.498-0.468,6.592,2.717,5.665,4.647
				c-0.922,1.92-3.95,2.599-6.502-2.967c1.27,2.8,1.302,4.722,0.728,5.948c-0.572,1.226-1.74,1.696-2.813,1.52
				C71.742,182.399,70.033,179.525,74.126,174.979z"/>
		</g>
		<g id="XMLID_14227_">
			<g id="XMLID_14228_">
				<path id="XMLID_17_" fill="#AAAF36" d="M92.084,175.887c-0.202,1.7-1.762,2.961-3.475,2.729s-2.918-1.805-2.693-3.511
					c0.226-1.707,1.778-2.904,3.467-2.675C91.074,172.66,92.289,174.168,92.084,175.887z"/>
			</g>
		</g>
		<g id="XMLID_14225_">
			<g id="XMLID_14226_">
				<path id="XMLID_16_" fill="#F16D76" d="M102.521,178.577c-3.842,4.741-6.611,3.374-7.033,1.279
					c-0.425-2.094,1.419-4.923,6.636-3.126c-5.229-1.799-4.521-4.582-2.69-5.645c1.833-1.063,4.809-0.4,4.308,4.712
					c0.51-5.089,3.563-5.176,5.153-3.773c1.587,1.398,1.732,4.265-3.75,5.014c5.47-0.75,6.722,2.384,5.892,4.355
					c-0.827,1.972-3.808,2.774-6.644-2.622c2.842,5.393,0.471,7.783-1.697,7.575C100.529,186.107,98.672,183.317,102.521,178.577z"
					/>
			</g>
		</g>
		<g id="XMLID_14223_">
			<g id="XMLID_14224_">
				<path id="XMLID_15_" fill="#AAAF36" d="M120.504,178.591c-0.061,0.858-0.464,1.616-1.068,2.145
					c-0.604,0.519-1.408,0.797-2.268,0.725c-1.722-0.146-3.003-1.656-2.862-3.372c0.141-1.716,1.634-2.989,3.334-2.843
					c0.851,0.072,1.595,0.488,2.113,1.094C120.273,176.935,120.565,177.732,120.504,178.591z"/>
			</g>
		</g>
		<g id="XMLID_14222_">
			<path fill="#7DCBC8" d="M131.06,180.741c-3.618,4.931-6.443,3.708-6.965,1.64c-0.525-2.07,1.184-4.99,6.483-3.462
				c-5.31-1.529-4.736-4.344-2.955-5.499c1.783-1.154,4.792-0.646,4.529,4.483c0.276-5.136,3.318-5.262,4.971-3.938
				c0.827,0.656,1.308,1.697,0.903,2.704c-0.405,1.009-1.698,1.998-4.416,2.428c2.716-0.425,4.418,0.057,5.354,0.945
				c0.936,0.888,1.103,2.156,0.729,3.162c-0.736,2.005-3.676,3.007-6.754-2.354C139.146,191.508,123.775,190.602,131.06,180.741z"/>
		</g>
		<g id="XMLID_14220_">
			<g id="XMLID_14221_">
				<path id="XMLID_14_" fill="#AAAF36" d="M149.027,179.932c-0.044,1.722-1.479,3.071-3.205,3.017
					c-1.727-0.056-3.075-1.495-3.012-3.216c0.063-1.721,1.499-3.071,3.206-3.016C147.723,176.771,149.071,178.211,149.027,179.932z"
					/>
			</g>
		</g>
		<g id="XMLID_14218_">
			<g id="XMLID_14219_">
				<path id="XMLID_13_" fill="#86557A" d="M159.666,181.646c-3.4,5.122-6.273,4.063-6.886,1.979
					c-0.616-2.059,0.961-4.981,6.325-3.771c-5.373-1.236-4.925-4.079-3.194-5.329c1.733-1.25,4.765-0.907,4.723,4.229
					c0.053-5.136,3.091-5.452,4.801-4.187c1.707,1.265,2.104,4.111-3.291,5.299c5.384-1.188,6.908,1.835,6.255,3.866
					c-0.651,2.032-3.543,3.073-6.85-2.077C168.206,191.957,152.821,191.889,159.666,181.646z"/>
			</g>
		</g>
		<g id="XMLID_14216_">
			<g id="XMLID_14217_">
				<path id="XMLID_12_" fill="#AAAF36" d="M177.584,180.081c0.028,1.721-1.349,3.149-3.075,3.191
					c-1.727,0.059-3.135-1.391-3.145-3.099c-0.01-1.735,1.367-3.078,3.075-3.136C176.147,176.998,177.556,178.359,177.584,180.081z"
					/>
			</g>
		</g>
		<g id="XMLID_14215_">
			<path fill="#F8A039" d="M188.286,181.348c-3.187,5.215-6.102,4.23-6.8,2.212c-0.7-2.019,0.753-5.07,6.164-3.988
				c-5.421-1.082-5.092-3.935-3.413-5.233c1.68-1.299,4.728-1.042,4.896,4.091c-0.159-5.139,2.867-5.523,4.627-4.332
				c0.88,0.583,1.445,1.58,1.126,2.617c-0.159,0.52-0.541,1.05-1.216,1.543c-0.676,0.482-1.646,0.904-2.982,1.241
				c2.672-0.648,4.409-0.304,5.416,0.498c1.006,0.804,1.278,2.054,0.99,3.088c-0.566,2.065-3.408,3.305-6.926-1.782
				C197.245,191.407,181.869,191.777,188.286,181.348z"/>
		</g>
		<g id="XMLID_14213_">
			<g id="XMLID_14214_">
				<path id="XMLID_11_" fill="#AAAF36" d="M206.124,179.027c0.098,1.719-1.221,3.187-2.945,3.278
					c-1.724,0.093-3.187-1.228-3.267-2.947s1.238-3.188,2.945-3.278S206.027,177.309,206.124,179.027z"/>
			</g>
		</g>
		<g id="XMLID_14211_">
			<g id="XMLID_14212_">
				<path id="XMLID_10_" fill="#F16D76" d="M216.873,179.925c-1.481,2.72-2.971,3.809-4.177,3.997
					c-1.209,0.188-2.138-0.535-2.53-1.533c-0.783-2.013,0.552-5.049,6.002-4.202c-5.459-0.847-5.248-3.761-3.62-5.09
					c1.631-1.313,4.682-1.268,5.055,3.86c-0.363-5.123,2.642-5.705,4.447-4.594c1.805,1.112,2.426,3.914-2.854,5.571
					c5.271-1.656,7.03,1.223,6.542,3.306c-0.487,2.082-3.281,3.372-6.99-1.472C226.207,189.455,210.887,190.73,216.873,179.925z"/>
			</g>
		</g>
		<g id="XMLID_14209_">
			<g id="XMLID_14210_">
				<path id="XMLID_9_" fill="#AAAF36" d="M234.609,176.917c0.163,1.713-1.099,3.219-2.818,3.362
					c-1.721,0.144-3.235-1.131-3.383-2.846c-0.146-1.715,1.115-3.221,2.818-3.363C232.931,173.929,234.445,175.203,234.609,176.917z
					"/>
			</g>
		</g>
		<g id="XMLID_14208_">
			<path fill="#7DCBC8" d="M245.373,177.303c-2.765,5.485-5.741,4.765-6.596,2.815c-0.857-1.951,0.351-5.123,5.825-4.53
				c-5.484-0.593-5.381-3.467-3.811-4.913c1.573-1.446,4.63-1.464,5.198,3.641c-0.559-5.106,2.426-5.779,4.274-4.725
				c1.848,1.055,2.575,3.834-2.643,5.652c5.208-1.816,7.078,1.005,6.668,3.1c-0.407,2.095-3.152,3.47-7.046-1.255
				C255.072,186.532,239.802,188.279,245.373,177.303z"/>
		</g>
		<g id="XMLID_14206_">
			<g id="XMLID_14207_">
				<path id="XMLID_8_" fill="#AAAF36" d="M262.99,173.682c0.227,1.695-0.969,3.317-2.684,3.516
					c-1.715,0.196-3.277-1.029-3.489-2.737c-0.213-1.708,0.993-3.251,2.692-3.445C261.208,170.818,262.76,171.964,262.99,173.682z"
					/>
			</g>
		</g>
		<g id="XMLID_14203_">
			<g id="XMLID_14205_">
				<path id="XMLID_7_" fill="#86557A" d="M273.76,173.646c-2.563,5.565-5.565,4.939-6.492,3.019
					c-0.93-1.92,0.159-5.127,5.657-4.707c-5.507-0.42-5.512-3.294-3.993-4.788c1.52-1.493,4.576-1.607,5.335,3.473
					c-0.749-5.081,2.212-5.847,4.101-4.853c1.887,0.995,2.717,3.748-2.435,5.727c5.142-1.978,7.116,0.782,6.783,2.886
					c-0.33,2.104-3.023,3.563-7.093-1.031C283.801,182.558,268.596,184.782,273.76,173.646z"/>
			</g>
		</g>
		<g id="XMLID_14201_">
			<g id="XMLID_14202_">
				<path id="XMLID_5_" fill="#AAAF36" d="M291.226,169.349c0.29,1.697-0.852,3.319-2.551,3.624c-1.699,0.305-3.3-0.826-3.574-2.526
					c-0.274-1.699,0.866-3.322,2.55-3.624C289.334,166.522,290.935,167.653,291.226,169.349z"/>
			</g>
		</g>
		<g id="XMLID_14200_">
			<path fill="#F8A039" d="M301.996,168.968c-2.361,5.641-5.386,5.112-6.384,3.224c-1-1.889-0.026-5.126,5.487-4.882
				c-5.522-0.242-5.632-3.113-4.168-4.653c1.467-1.541,4.521-1.753,5.462,3.296c-0.932-5.051,2.003-5.911,3.928-4.978
				c1.923,0.934,2.852,3.657-2.229,5.798c5.072-2.14,7.146,0.552,6.888,2.665c-0.255,2.113-2.896,3.657-7.13-0.802
				C312.357,177.546,297.235,180.257,301.996,168.968z"/>
		</g>
	</g>
</g>
</svg>
