<?xml version="1.0" encoding="utf-8"?>
<!-- Generator: Adobe Illustrator 16.0.0, SVG Export Plug-In . SVG Version: 6.00 Build 0)  -->
<!DOCTYPE svg PUBLIC "-//W3C//DTD SVG 1.1//EN" "http://www.w3.org/Graphics/SVG/1.1/DTD/svg11.dtd">
<svg version="1.1" id="Layer_1" xmlns="http://www.w3.org/2000/svg" xmlns:xlink="http://www.w3.org/1999/xlink" x="0px" y="0px"
	 width="350px" height="350px" viewBox="0 0 350 350" enable-background="new 0 0 350 350" xml:space="preserve">
<g id="XMLID_14257_">
	<g id="XMLID_12786_">
		<path id="XMLID_79_" fill="#444F5C" d="M165.595,181.964c-24.631,0-46.088-1.21-63.854-2.848
			c-55.851-5.152-88.272-15.539-88.593-15.644c-0.378-0.123-0.584-0.528-0.462-0.906c0.124-0.377,0.529-0.585,0.907-0.462
			c0.32,0.104,32.627,10.45,88.336,15.584c51.415,4.737,133.842,5.876,234.551-15.604c0.386-0.084,0.77,0.165,0.853,0.554
			c0.083,0.388-0.164,0.771-0.552,0.854C270.66,177.594,212.4,181.964,165.595,181.964z"/>
	</g>
	<g id="XMLID_12780_">
		<path id="XMLID_78_" fill="#444F5C" d="M165.595,181.964c-24.631,0-46.088-1.21-63.854-2.848
			c-55.851-5.152-88.272-15.539-88.593-15.644c-0.378-0.123-0.584-0.528-0.462-0.906c0.124-0.377,0.529-0.585,0.907-0.462
			c0.32,0.104,32.627,10.45,88.336,15.584c51.415,4.737,133.842,5.876,234.551-15.604c0.386-0.084,0.77,0.165,0.853,0.554
			c0.083,0.388-0.164,0.771-0.552,0.854C270.66,177.594,212.4,181.964,165.595,181.964z"/>
	</g>
	<g id="XMLID_13058_">
		<g id="XMLID_13760_">
			<path fill="#7DCBC8" d="M39.46,160.131l1.628,6.724c0,0,1.617,0.605,3.233,1.21c0.808,0.31,1.622,0.599,2.234,0.808
				c0.611,0.213,1.019,0.355,1.019,0.355s-1.458,0.95-2.917,1.9c-1.467,0.923-2.934,1.847-2.934,1.847l-0.244,6.951l-5.434-4.48
				c0,0-0.426,0.115-1.064,0.288c-0.639,0.177-1.491,0.396-2.345,0.603c-1.714,0.423-3.429,0.845-3.429,0.845l2.747-6.384
				c0,0-0.932-1.469-1.863-2.937c-0.916-1.465-1.832-2.929-1.832-2.929l6.87,0.611c0,0,1.086-1.346,2.173-2.692
				C38.381,161.49,39.46,160.131,39.46,160.131z"/>
		</g>
		<g id="XMLID_13758_">
			<g id="XMLID_13759_">
				<path id="XMLID_76_" fill="#F16D76" d="M63.707,164.605l1.974,6.652c0,0,1.646,0.529,3.292,1.061
					c1.656,0.492,3.311,0.983,3.311,0.983s-1.412,1.021-2.824,2.041c-0.709,0.514-1.419,1.021-1.951,1.385
					c-0.534,0.371-0.889,0.619-0.889,0.619l0.095,6.957l-5.627-4.229l-6.708,2.146l2.385-6.541c0,0-1.021-1.39-2.021-2.829
					c-0.996-1.427-1.992-2.854-1.992-2.854s1.725,0.079,3.449,0.157c1.728,0.042,3.456,0.084,3.456,0.084L63.707,164.605z"/>
			</g>
		</g>
		<g id="XMLID_13757_">
			<path fill="#F8A039" d="M88.214,167.967l2.264,6.545l6.683,1.808l-5.486,4.225l0.387,6.943l-5.795-3.95
				c0,0-1.646,0.617-3.292,1.233c-1.65,0.632-3.303,1.19-3.303,1.19l2.086-6.613l-4.263-5.517c0,0,1.728-0.002,3.456-0.004
				c1.724,0.014,3.455-0.043,3.455-0.043L88.214,167.967z"/>
		</g>
		<g id="XMLID_13756_">
			<path fill="#7DCBC8" d="M112.876,170.343l2.517,6.482l6.755,1.46l-5.324,4.499l0.654,6.906c0,0-1.49-0.911-2.979-1.823
				c-1.479-0.946-2.959-1.893-2.959-1.893l-6.485,2.637l1.821-6.705l-4.484-5.294l6.909-0.351L112.876,170.343z"/>
		</g>
		<g id="XMLID_13735_">
			<g id="XMLID_13736_">
				<path id="XMLID_75_" fill="#F16D76" d="M137.637,171.756l2.755,6.348l6.802,1.279l-5.157,4.642l0.901,6.889l-6.066-3.484
					c0,0-1.592,0.744-3.184,1.487c-0.798,0.379-1.597,0.737-2.196,0.995c-0.6,0.262-1,0.438-1,0.438l1.57-6.754l-4.676-5.177
					c0,0,1.723-0.133,3.447-0.267c0.861-0.068,1.722-0.136,2.367-0.187c0.646-0.067,1.077-0.111,1.077-0.111L137.637,171.756z"/>
			</g>
		</g>
		<g id="XMLID_13734_">
			<polygon fill="#F8A039" points="162.45,172.28 165.424,178.55 172.268,179.641 167.272,184.422 168.41,191.283 162.23,187.969 
				155.958,191.119 157.291,184.289 152.434,179.374 159.303,178.469 			"/>
		</g>
		<g id="XMLID_13733_">
			<path fill="#7DCBC8" d="M187.279,171.987l3.182,6.182c0,0,1.719,0.224,3.438,0.447c0.859,0.121,1.72,0.215,2.363,0.273
				c0.646,0.066,1.074,0.109,1.074,0.109s-1.203,1.263-2.406,2.525c-1.212,1.229-2.425,2.461-2.425,2.461l1.365,6.824l-6.287-3.135
				l-6.161,3.326l1.102-6.864l-5.02-4.773l6.836-1.103L187.279,171.987z"/>
		</g>
		<g id="XMLID_13689_">
			<g id="XMLID_13728_">
				<path id="XMLID_74_" fill="#F16D76" d="M212.096,170.886l3.382,6.085c0,0,0.431,0.043,1.078,0.109
					c0.646,0.058,1.51,0.167,2.37,0.217c1.723,0.121,3.448,0.242,3.448,0.242s-1.163,1.304-2.325,2.605
					c-0.585,0.65-1.169,1.301-1.607,1.788c-0.441,0.476-0.734,0.791-0.734,0.791l1.583,6.773l-6.384-2.942l-6.049,3.504l0.877-6.892
					l-5.173-4.624l6.799-1.301L212.096,170.886z"/>
			</g>
		</g>
		<g id="XMLID_13688_">
			<path fill="#F8A039" d="M236.873,168.989l3.572,5.979c0,0,0.432,0.03,1.08,0.076c0.65,0.056,1.513,0.093,2.375,0.124
				c1.727,0.068,3.455,0.138,3.455,0.138l-4.502,5.346l1.791,6.7c0,0-0.404-0.161-1.011-0.402c-0.607-0.258-1.418-0.602-2.228-0.946
				c-1.615-0.689-3.23-1.38-3.23-1.38l-5.935,3.684l0.659-6.914l-5.318-4.466l6.756-1.504L236.873,168.989z"/>
		</g>
		<g id="XMLID_13687_">
			<path fill="#7DCBC8" d="M261.586,166.314l3.754,5.867c0,0,0.434,0.018,1.083,0.043c0.649,0.027,1.517,0.066,2.379,0.063
				c1.729,0.015,3.457,0.029,3.457,0.029s-1.081,1.372-2.161,2.744c-0.543,0.686-1.086,1.373-1.493,1.887
				c-0.41,0.505-0.684,0.841-0.684,0.841l1.997,6.655c0,0-0.408-0.138-1.025-0.384c-0.615-0.24-1.435-0.559-2.255-0.878
				c-1.635-0.64-3.27-1.28-3.27-1.28l-5.818,3.864l0.446-6.932l-5.454-4.301l6.707-1.711L261.586,166.314z"/>
		</g>
		<g id="XMLID_13685_">
			<g id="XMLID_13686_">
				<path id="XMLID_71_" fill="#F16D76" d="M286.213,162.882l3.927,5.748c0,0,1.734,0.015,3.468,0.029
					c0.869,0.02,1.729-0.03,2.378-0.036c0.647-0.015,1.08-0.025,1.08-0.025s-1.038,1.406-2.076,2.813
					c-1.052,1.372-2.103,2.744-2.103,2.744l2.196,6.608l-6.622-2.353l-5.698,4.045l0.236-6.942l-5.579-4.129l6.651-1.921
					L286.213,162.882z"/>
			</g>
		</g>
		<g id="XMLID_13684_">
			<polygon fill="#F8A039" points="310.731,158.717 314.823,164.34 321.759,164.174 317.729,169.775 320.116,176.313 
				313.432,174.173 307.86,178.399 307.892,171.448 302.195,167.499 308.785,165.365 			"/>
		</g>
		<g id="XMLID_13677_">
			<g id="XMLID_13683_">
				<path fill="#FAFDFF" d="M40.136,162.962c0,0-1.138,0.513-2.276,1.026c-1.143,0.521-2.284,1.007-2.284,1.007l-0.446,0.548
					l-0.692-0.062l-4.616,1.951l0.617,0.979c0,0,2.504-1.058,5.008-2.116c1.242-0.527,2.49-1.103,3.417-1.514
					c0.927-0.417,1.544-0.695,1.544-0.695L40.136,162.962z"/>
			</g>
			<g id="XMLID_13682_">
				<path fill="#FAFDFF" d="M41.088,166.854l-0.269-1.087c0,0-2.352,1.051-4.705,2.103c-2.373,1.004-4.746,2.008-4.746,2.008
					l0.586,0.919l-0.042,0.098c0,0,0.582-0.244,1.453-0.608c0.872-0.368,2.025-0.843,3.182-1.363
					c2.296-1.024,4.593-2.049,4.593-2.049L41.088,166.854z"/>
			</g>
			<g id="XMLID_13681_">
				<path fill="#FAFDFF" d="M43.411,167.725c0,0-3.094,1.381-6.189,2.764c-1.561,0.697-3.127,1.365-4.306,1.849
					c-1.182,0.49-1.971,0.817-1.971,0.817l-0.65,1.512c0,0,0.928-0.383,2.321-0.957c1.386-0.563,3.229-1.359,5.062-2.174
					c3.628-1.62,7.257-3.241,7.257-3.241L43.411,167.725z"/>
			</g>
			<g id="XMLID_13680_">
				<path fill="#FAFDFF" d="M47.574,169.228l-0.353-0.123c0,0-1.1,0.531-2.753,1.281c-1.666,0.741-3.886,1.729-6.106,2.717
					c-2.237,0.985-4.496,1.974-6.197,2.657c-1.708,0.699-2.847,1.165-2.847,1.165l-0.111,0.256c0,0,1.594-0.392,3.188-0.784
					c1.587-0.382,3.168-0.82,3.168-0.82l6.724-2.956c0,0,1.324-0.835,2.649-1.67C46.255,170.089,47.574,169.228,47.574,169.228z"/>
			</g>
			<g id="XMLID_13679_">
				<polygon fill="#FAFDFF" points="41.656,174.78 37.462,176.62 38.456,177.44 41.61,176.06 				"/>
			</g>
		</g>
		<g id="XMLID_13659_">
			<g id="XMLID_13675_">
				<path fill="#FAFDFF" d="M89.16,170.724l-4.363,2.466l-0.392,0.595l-0.698,0.018c0,0-1.099,0.622-2.198,1.203
					c-1.102,0.591-2.204,1.181-2.204,1.181l0.712,0.921c0,0,0.599-0.319,1.497-0.8c0.895-0.469,2.092-1.144,3.283-1.813
					c2.371-1.338,4.742-2.676,4.742-2.676L89.16,170.724z"/>
			</g>
			<g id="XMLID_13674_">
				<path fill="#FAFDFF" d="M90.478,174.512l-0.37-1.058c0,0-2.247,1.267-4.492,2.532c-1.132,0.632-2.264,1.264-3.112,1.737
					c-0.85,0.456-1.417,0.761-1.417,0.761l0.671,0.863l-0.031,0.1c0,0,0.554-0.292,1.385-0.759c0.828-0.462,1.932-1.078,3.036-1.693
					c2.192-1.234,4.384-2.468,4.384-2.468L90.478,174.512z"/>
			</g>
			<g id="XMLID_13673_">
				<path fill="#FAFDFF" d="M92.876,175.162c0,0-2.955,1.664-5.909,3.327c-1.493,0.831-2.984,1.661-4.103,2.284
					c-1.125,0.631-1.874,1.016-1.874,1.016l-0.494,1.567c0,0,0.22-0.117,0.606-0.32c0.385-0.2,0.936-0.499,1.596-0.867
					c1.315-0.73,3.067-1.704,4.82-2.678c3.464-1.952,6.929-3.904,6.929-3.904L92.876,175.162z"/>
			</g>
			<g id="XMLID_13662_">
				<path fill="#FAFDFF" d="M97.16,176.319l-0.361-0.097c0,0-4.227,2.383-8.452,4.765c-2.143,1.187-4.286,2.375-5.894,3.267
					c-0.809,0.45-1.483,0.806-1.955,1.052c-0.473,0.248-0.743,0.391-0.743,0.391l-0.084,0.265c0,0,0.384-0.134,0.96-0.335
					c0.575-0.194,1.344-0.48,2.11-0.769c1.53-0.573,3.061-1.146,3.061-1.146l6.402-3.571L97.16,176.319z"/>
			</g>
			<g id="XMLID_13661_">
				<polygon fill="#FAFDFF" points="91.772,182.35 87.781,184.573 88.842,185.298 91.843,183.627 				"/>
			</g>
		</g>
		<g id="XMLID_13652_">
			<g id="XMLID_13658_">
				<path fill="#FAFDFF" d="M138.792,174.43l-4.168,2.8l-0.346,0.624l-0.695,0.072c0,0-0.262,0.173-0.656,0.434
					c-0.394,0.252-0.919,0.588-1.444,0.925c-1.054,0.672-2.107,1.344-2.107,1.344l0.781,0.865c0,0,0.572-0.365,1.431-0.912
					c0.856-0.537,1.998-1.283,3.135-2.051c2.266-1.519,4.531-3.039,4.531-3.039L138.792,174.43z"/>
			</g>
			<g id="XMLID_13657_">
				<path fill="#FAFDFF" d="M140.392,178.104l-0.449-1.024c0,0-2.146,1.437-4.291,2.873c-1.081,0.717-2.161,1.434-2.971,1.971
					c-0.813,0.518-1.354,0.862-1.354,0.862l0.736,0.81l-0.024,0.103c0,0,0.529-0.321,1.322-0.854
					c0.791-0.525,1.844-1.227,2.898-1.925c2.094-1.403,4.188-2.803,4.188-2.803L140.392,178.104z"/>
			</g>
			<g id="XMLID_13656_">
				<path fill="#FAFDFF" d="M142.834,178.564c0,0-2.822,1.89-5.644,3.779c-1.424,0.944-2.848,1.889-3.916,2.597
					c-0.536,0.358-0.983,0.637-1.296,0.836c-0.313,0.198-0.492,0.312-0.492,0.312l-0.373,1.601c0,0,0.211-0.133,0.579-0.366
					c0.369-0.235,0.894-0.557,1.524-0.979c1.254-0.83,2.926-1.938,4.599-3.046c3.31-2.216,6.619-4.434,6.619-4.434L142.834,178.564z
					"/>
			</g>
			<g id="XMLID_13655_">
				<path fill="#FAFDFF" d="M147.194,179.383l-0.368-0.068c0,0-4.037,2.705-8.073,5.409c-2.045,1.353-4.09,2.704-5.624,3.717
					c-0.771,0.517-1.414,0.901-1.865,1.192c-0.452,0.283-0.709,0.445-0.709,0.445l-0.063,0.271c0,0,0.372-0.162,0.929-0.407
					c0.558-0.241,1.3-0.567,2.042-0.92c1.48-0.691,2.96-1.382,2.96-1.382l6.111-4.061L147.194,179.383z"/>
			</g>
			<g id="XMLID_13654_">
				<polygon fill="#FAFDFF" points="142.269,185.814 138.459,188.343 139.57,188.982 142.435,187.082 				"/>
			</g>
		</g>
		<g id="XMLID_13419_">
			<g id="XMLID_13651_">
				<polygon fill="#FAFDFF" points="188.614,174.592 184.643,177.619 184.34,178.261 183.65,178.372 179.64,181.401 180.478,182.2 
					189.146,175.625 				"/>
			</g>
			<g id="XMLID_13650_">
				<polygon fill="#FAFDFF" points="190.461,178.169 189.944,177.17 181.734,183.392 182.523,184.137 182.507,184.241 
					190.516,178.177 				"/>
			</g>
			<g id="XMLID_13557_">
				<path fill="#FAFDFF" d="M192.931,178.49c0,0-2.688,2.045-5.376,4.09c-2.718,2.045-5.435,4.09-5.435,4.09l-0.262,1.626
					c0,0,3.192-2.399,6.384-4.798c3.153-2.398,6.307-4.797,6.307-4.797L192.931,178.49z"/>
			</g>
			<g id="XMLID_13424_">
				<path fill="#FAFDFF" d="M197.336,178.999l-0.371-0.037c0,0-0.238,0.189-0.655,0.522c-0.417,0.327-1.014,0.82-1.733,1.359
					c-1.446,1.098-3.373,2.562-5.301,4.025c-3.904,2.928-7.81,5.856-7.81,5.856l-0.044,0.275l5.728-3.092l5.822-4.396
					c0,0,1.095-1.113,2.19-2.226C196.25,180.143,197.336,178.999,197.336,178.999z"/>
			</g>
			<g id="XMLID_13421_">
				<polygon fill="#FAFDFF" points="192.857,185.759 189.228,188.497 190.379,189.072 193.108,187.015 				"/>
			</g>
		</g>
		<g id="XMLID_13177_">
			<g id="XMLID_13418_">
				<polygon fill="#FAFDFF" points="238.373,171.509 234.6,174.766 234.338,175.424 233.657,175.575 229.846,178.836 
					230.734,179.582 238.97,172.509 				"/>
			</g>
			<g id="XMLID_13416_">
				<polygon fill="#FAFDFF" points="240.445,174.969 239.865,174.003 232.064,180.697 232.9,181.394 232.891,181.498 240.5,174.973 
									"/>
			</g>
			<g id="XMLID_13191_">
				<path fill="#FAFDFF" d="M242.93,175.129c0,0-0.158,0.143-0.435,0.392c-0.279,0.241-0.677,0.585-1.154,0.999
					c-0.96,0.824-2.238,1.924-3.519,3.022c-2.581,2.203-5.163,4.403-5.163,4.403l-0.156,1.639c0,0,3.033-2.583,6.066-5.166
					c1.5-1.291,3-2.582,4.126-3.55c1.114-1.004,1.858-1.674,1.858-1.674L242.93,175.129z"/>
			</g>
			<g id="XMLID_13181_">
				<path fill="#FAFDFF" d="M247.355,175.307l-0.373-0.015c0,0-0.906,0.816-2.266,2.042c-1.359,1.246-3.188,2.823-5.03,4.391
					c-3.709,3.153-7.419,6.307-7.419,6.307l-0.026,0.276l5.519-3.423c0,0,1.386-1.183,2.772-2.366
					c0.69-0.592,1.38-1.183,1.897-1.627c0.517-0.438,0.858-0.749,0.858-0.749L247.355,175.307z"/>
			</g>
			<g id="XMLID_13180_">
				<path fill="#FAFDFF" d="M243.317,182.396l-3.447,2.952l1.186,0.506c0,0,0.648-0.554,1.298-1.107
					c0.324-0.277,0.647-0.554,0.891-0.761c0.241-0.215,0.402-0.357,0.402-0.357L243.317,182.396z"/>
			</g>
		</g>
		<g id="XMLID_13145_">
			<g id="XMLID_13164_">
				<polygon fill="#FAFDFF" points="287.861,165.305 284.293,168.79 284.071,169.463 283.401,169.656 279.795,173.147 
					280.728,173.837 288.519,166.267 				"/>
			</g>
			<g id="XMLID_13163_">
				<polygon fill="#FAFDFF" points="290.14,168.63 289.502,167.702 282.124,174.867 282.999,175.513 282.996,175.618 
					290.195,168.631 				"/>
			</g>
			<g id="XMLID_13159_">
				<path fill="#FAFDFF" d="M292.633,168.65l-9.719,9.424l-0.056,1.645c0,0,2.87-2.766,5.738-5.532
					c2.833-2.762,5.668-5.523,5.668-5.523L292.633,168.65z"/>
			</g>
			<g id="XMLID_13158_">
				<path fill="#FAFDFF" d="M297.065,168.598l-0.373,0.009c0,0-0.855,0.872-2.137,2.181c-1.3,1.265-3.032,2.949-4.765,4.635
					c-3.509,3.377-7.018,6.754-7.018,6.754l-0.011,0.279l5.296-3.76l5.232-5.066c0,0,0.238-0.309,0.595-0.772
					c0.356-0.467,0.833-1.072,1.303-1.716C296.127,169.869,297.065,168.598,297.065,168.598z"/>
			</g>
			<g id="XMLID_13157_">
				<polygon fill="#FAFDFF" points="293.455,175.873 290.194,179.028 291.406,179.46 293.859,177.089 				"/>
			</g>
		</g>
		<g id="XMLID_13144_">
			<path fill="#FFFFFF" d="M64.891,174.969c-0.25,1.62-1.772,2.722-3.403,2.46c-1.63-0.261-2.733-1.782-2.463-3.398
				s1.794-2.718,3.403-2.461C64.038,171.827,65.14,173.349,64.891,174.969z"/>
		</g>
		<g id="XMLID_13070_">
			<path fill="#FFFFFF" d="M115.006,180.598c-0.117,1.646-1.543,2.854-3.186,2.714c-1.643-0.14-2.866-1.577-2.732-3.21
				c0.134-1.634,1.56-2.846,3.186-2.706C113.898,177.533,115.122,178.975,115.006,180.598z"/>
		</g>
		<g id="XMLID_13068_">
			<path fill="#FFFFFF" d="M165.304,182.339c0,1.639-1.336,2.961-2.984,2.954c-1.648-0.008-2.971-1.341-2.955-2.981
				c0.017-1.638,1.352-2.96,2.985-2.952C163.982,179.366,165.305,180.7,165.304,182.339z"/>
		</g>
		<g id="XMLID_13067_">
			<path fill="#FFFFFF" d="M215.802,180.748c0.107,1.635-1.14,3.032-2.784,3.119c-1.645,0.089-3.053-1.167-3.146-2.803
				c-0.091-1.637,1.155-3.033,2.785-3.119C214.287,177.857,215.694,179.113,215.802,180.748z"/>
		</g>
		<g id="XMLID_13065_">
			<path fill="#FFFFFF" d="M265.703,175.955c0.207,1.625-0.951,3.095-2.588,3.281c-1.635,0.188-3.119-0.98-3.313-2.606
				c-0.193-1.628,0.966-3.098,2.587-3.282C264.013,173.162,265.495,174.329,265.703,175.955z"/>
		</g>
		<g id="XMLID_13064_">
			<path fill="#FFFFFF" d="M315.408,168.085c0.304,1.61-0.765,3.15-2.386,3.441c-1.62,0.29-3.169-0.782-3.459-2.395
				c-0.29-1.613,0.778-3.154,2.386-3.441C313.557,165.402,315.104,166.474,315.408,168.085z"/>
		</g>
	</g>
</g>
</svg>
