<?xml version="1.0" encoding="utf-8"?>
<!-- Generator: Adobe Illustrator 16.0.0, SVG Export Plug-In . SVG Version: 6.00 Build 0)  -->
<!DOCTYPE svg PUBLIC "-//W3C//DTD SVG 1.1 Tiny//EN" "http://www.w3.org/Graphics/SVG/1.1/DTD/svg11-tiny.dtd">
<svg version="1.1" baseProfile="tiny" id="Layer_1" xmlns="http://www.w3.org/2000/svg" xmlns:xlink="http://www.w3.org/1999/xlink"
	 x="0px" y="0px" width="350px" height="350px" viewBox="0 0 350 350" overflow="scroll" xml:space="preserve">
<g>
	<path fill="#5C4A39" d="M59.77,215.952c0.659,0.562,1.374,0.869,2.005,1.142c0.29,0.125,0.563,0.242,0.794,0.37
		c0.357,0.197,0.718,0.584,1.102,0.995c0.222,0.238,0.474,0.508,0.746,0.761c1.467,1.365,3.535,2.118,5.822,2.118
		c0.294,0,0.594-0.014,0.892-0.038c1.198-0.1,2.409-0.393,3.788-0.919l13.581-0.68c1.699-0.086,3.456-0.175,5.165-0.175
		c0.305,0,0.605,0.003,0.894,0.009c2.031,0.039,4.079,0.292,6.085,0.75c1.903,0.435,3.833,0.994,5.699,1.537l0.338,0.098
		c2.246,0.65,4.073,1.238,5.752,1.848c1.986,0.721,3.759,1.488,5.419,2.349c0.769,0.397,1.55,0.828,2.321,1.254
		c0.484,0.267,0.986,0.543,1.481,0.81c1.896,1.02,4.406,2.335,7.011,3.459c1.013,0.437,2.139,0.907,3.35,1.302
		c-0.222,0.344-0.421,0.685-0.599,1.027c-0.544,1.048-0.905,2.155-1.185,3.102l-0.272,0.922c-0.487,1.653-0.991,3.363-1.565,5.003
		c-0.609,1.739-1.325,3.609-2.253,5.885c-0.882,2.165-1.676,4.054-2.427,5.775c-0.286,0.655-0.68,1.502-1.2,2.233
		c-0.348,0.49-0.838,0.961-1.497,1.438c-0.855,0.619-1.86,1.144-2.836,1.652c-1.091,0.569-2.22,1.158-3.284,1.934
		c-2.647,1.93-4.079,4.3-4.139,6.855c-0.023,0.965,0.615,1.839,1.553,2.127c1.512,0.463,3.121,0.688,4.92,0.688
		c2.771,0,5.477-0.533,8.094-1.049l0.046-0.01c1.15-0.227,2.605-0.575,4.021-1.294c1.265,0.352,2.578,0.53,3.911,0.53
		c0.823,0,1.658-0.069,2.481-0.205c2.504-0.415,4.464-1.456,5.824-3.096c1.285-1.55,1.94-3.383,2.456-5.134
		c0.199-0.678,0.394-1.367,0.583-2.033c0.326-1.153,0.663-2.347,1.033-3.502c1.213-3.785,2.696-7.553,4.406-11.197
		c0.833-1.774,1.753-3.58,2.735-5.367c0.104-0.189,0.209-0.382,0.316-0.579c0.74-1.361,1.504-2.767,2.497-3.807
		c2.892-0.318,5.761-1.892,8.752-4.796c0.873-0.847,1.712-1.723,2.524-2.569c0.559-0.583,1.137-1.186,1.71-1.764
		c1.38-1.39,2.828-2.802,4.425-4.317c4.574-4.34,9.682-8.839,15.574-13.72c0.509,0.551,1.219,1.054,2.184,1.183
		c0.154,0.021,0.31,0.03,0.464,0.03c1.265,0,2.497-0.697,3.295-1.866c0.701-1.026,0.86-2.206,0.99-3.169
		c0.014-0.103,0.027-0.203,0.042-0.305c0.25-1.741,0.441-3.522,0.572-5.303c0.183-0.145,0.362-0.29,0.541-0.437l0.021-0.019
		c0.96-0.791,1.92-1.661,2.854-2.588l0.066-0.066c0.147-0.147,0.295-0.296,0.443-0.447l0.111-0.115
		c0.134-0.137,0.265-0.274,0.397-0.413l0.121-0.128c0.144-0.153,0.287-0.308,0.433-0.466l0.062-0.065
		c0.163-0.179,0.324-0.357,0.484-0.538l0.111-0.126c0.122-0.137,0.243-0.275,0.36-0.411l0.15-0.174
		c0.111-0.129,0.222-0.26,0.334-0.391l0.13-0.154c0.127-0.152,0.254-0.305,0.382-0.46l0.064-0.077
		c2.227-2.714,4.173-5.552,5.619-7.72l0.189-0.286c0.531-0.367,0.903-0.923,1.027-1.559c0.338-0.515,0.673-1.027,1.002-1.532
		c0.509-0.781,1.022-1.566,1.54-2.352c1.717-2.6,3.777-5.628,6.039-8.382l0.075-0.092c0.092-0.112,0.185-0.225,0.276-0.334
		l0.094-0.111c0.388-0.458,0.773-0.9,1.148-1.315l0.304-0.333c0.084-0.091,0.167-0.181,0.257-0.275
		c0.138-0.146,0.275-0.29,0.411-0.43c0,0,0.308-0.313,0.391-0.397c1.922-1.922,4.081-3.679,6.42-5.225
		c1.446-0.955,2.972-1.874,4.455-2.767c1.202-0.723,2.563-1.541,3.889-2.396l0.214-0.136l0.251-0.165
		c0.22-0.145,0.438-0.288,0.654-0.435l0.087-0.059c0.178-0.119,0.352-0.239,0.52-0.356l0.145-0.098l0.292-0.207
		c0.174-0.124,0.347-0.248,0.534-0.385c0.571-0.418,1.121-0.841,1.63-1.255l0.101-0.082c0.127-0.104,0.254-0.208,0.376-0.311
		l0.171-0.146c0.099-0.084,0.197-0.169,0.293-0.252l0.189-0.166c0.094-0.083,0.187-0.166,0.278-0.249l0.175-0.159
		c0.12-0.109,0.237-0.219,0.35-0.325l0.086-0.08c0.146-0.14,0.289-0.279,0.434-0.422l0.077-0.078
		c0.115-0.115,0.229-0.23,0.341-0.346l0.107-0.111c0.101-0.104,0.198-0.209,0.295-0.313l0.13-0.142
		c0.081-0.088,0.16-0.176,0.239-0.265l0.177-0.199c0,0,0.276-0.318,0.332-0.384c0.649-0.77,1.251-1.589,1.788-2.437l0.022-0.035
		c0.427-0.676,0.81-1.361,1.136-2.037c0.065-0.137,0.128-0.275,0.188-0.415c0.266-0.588,0.5-1.188,0.699-1.786
		c0.052-0.155,0.085-0.313,0.102-0.473c0.2-0.601,0.423-1.214,0.719-1.717c0.095-0.159,0.289-0.49,1.4-0.49
		c0.574,0,1.217,0.092,1.784,0.173l0.077,0.012c1.664,0.237,3.377,0.7,5.092,1.378c2.475,0.979,4.58,2.545,6.812,4.204
		c0.609,0.454,1.24,0.923,1.879,1.379c1.668,1.192,3.155,2.002,4.68,2.547c1.176,0.422,2.415,0.626,3.786,0.626
		c0.621,0,1.28-0.044,1.959-0.131c0.643-0.082,1.272-0.193,1.883-0.301c1.071-0.188,2.178-0.382,3.222-0.384
		c0.965,0,1.784,0.417,2.827,0.949c0.377,0.191,0.767,0.391,1.187,0.579c0.856,0.385,1.663,0.58,2.397,0.58
		c1.26,0,2.348-0.574,3.063-1.616c0.759-1.105,0.226-2.517-0.094-3.362c-0.021-0.054-0.039-0.102-0.053-0.143
		c-0.297-0.818-0.74-1.638-1.32-2.435c-1.895-2.6-4.9-4.441-8.935-5.476c-1.509-0.387-3.037-0.644-4.516-0.892
		c-2.34-0.394-4.758-0.8-6.904-1.725c-3.151-1.358-5.484-3.747-7.351-5.906c-0.175-0.201-0.868-1.009-1.019-1.185
		c1.549,0.062,3.146,0.287,4.695,0.506l0.104,0.015c0.299,0.042,0.597,0.084,0.895,0.124c1.36,0.187,2.813,0.368,4.306,0.368
		c0.229,0,0.455-0.004,0.675-0.013c1.689-0.065,3.265-0.438,4.809-1.142c0.513-0.142,0.896-0.396,1.18-0.586l0.117-0.077
		c0.351-0.228,0.709-0.48,1.163-0.818c0.556-0.414,1.095-0.845,1.621-1.267c0,0,0.414-0.332,0.587-0.469
		c0.522-0.414,1.221-0.942,1.987-1.357c0.529-0.287,1.078-0.424,1.779-0.442c0.098-0.003,0.199-0.004,0.303-0.004
		c0.121,0,0.247,0.002,0.374,0.003h0.042c0.161,0.002,0.325,0.003,0.492,0.003c1.203,0,4.021,0,5.125-2.456
		c0.518-1.151,0.218-2.071-0.124-2.642c-0.327-0.543-0.757-0.976-1.135-1.326c-0.385-0.358-0.78-0.646-1.111-0.879l-0.088-0.061
		c-0.289-0.205-0.671-0.475-1.179-0.636c-0.123-0.072-0.282-0.162-0.474-0.242c-0.142-0.061-0.285-0.113-0.438-0.162
		c-0.52-0.299-1.071-0.408-1.498-0.493c-0.068-0.014-0.135-0.026-0.197-0.041c-0.974-0.217-2.021-0.327-3.111-0.327
		c-0.111,0-0.223,0.001-0.334,0.003c-2.432,0.05-4.718,0.68-6.438,1.224c-0.897,0.284-1.779,0.6-2.633,0.904
		c-1.046,0.374-2.128,0.761-3.194,1.07c-1.038,0.303-1.983,0.519-2.891,0.66c-0.731,0.114-1.496,0.129-2.081,0.129
		c-0.252,0-0.505-0.003-0.757-0.007c-0.962-0.015-1.929-0.146-2.83-0.285c-0.789-0.123-1.648-0.412-2.48-0.691l-0.215-0.072
		c-0.866-0.291-1.75-0.623-2.616-0.948c-0.997-0.374-2.028-0.762-3.077-1.102c-1.934-0.628-3.672-0.934-5.313-0.934
		c-0.418,0-0.835,0.021-1.238,0.061c-2.106,0.207-4.121,1.011-5.824,2.322c-1.604,1.235-2.967,2.927-4.05,5.027
		c-0.138,0.266-0.271,0.54-0.4,0.823c-0.281-0.65-0.604-1.299-0.96-1.936c-0.027-0.048-0.055-0.096-0.083-0.144l-0.035-0.058
		l-0.063-0.112c-0.022-0.039-0.115-0.191-0.115-0.191c-0.048-0.079-0.095-0.158-0.142-0.234c-0.107-0.176-0.219-0.35-0.333-0.525
		l-0.014-0.021c-3.433-5.217-9.098-8.907-15.545-10.124c-1.566-0.295-3.19-0.445-4.826-0.445c-0.404,0-0.833,0.011-1.274,0.031
		l-0.402,0.021c-0.857,0.052-1.723,0.145-2.592,0.277c2.407-1.832,5.725-3.201,10.022-4.146c3.219-0.707,6.615-1.022,9.9-1.328
		c4.604-0.428,9.365-0.87,13.948-2.382c1.874-0.618,3.792-1.454,5.864-2.555c2.048-1.088,3.665-2.082,5.087-3.126
		c1.837-1.349,3.179-2.762,4.101-4.321c1.178-1.99,1.478-4.208,1.742-6.166c0.146-1.073,0.3-2.116,0.604-3.081
		c0.205-0.657,0.092-1.351-0.312-1.9c-0.416-0.565-1.089-0.903-1.801-0.903c-0.143,0-0.285,0.013-0.423,0.04
		c-4.374,0.847-7.701,3.977-9.822,6.258c-0.716,0.769-1.405,1.566-2.073,2.339c-1.689,1.953-3.437,3.973-5.524,5.401
		c-2.324,1.59-5.238,2.478-9.447,2.876c-1.511,0.144-3.069,0.224-4.594,0.303c-2.167,0.111-4.408,0.228-6.633,0.529
		c-6.884,0.937-13.482,4.242-18.581,9.309c-2.576,2.562-4.67,5.484-6.226,8.692c-4.678,3.313-8.811,7.936-12.287,13.742
		l-0.026,0.043c-0.303,0.508-0.598,1.016-0.876,1.513c-0.12,0.217-0.238,0.435-0.351,0.645c0,0-0.116,0.211-0.147,0.269
		c-0.625,1.167-1.192,2.382-1.742,3.561c-0.767,1.618-1.635,3.451-2.656,5.101c-0.372,0.294-0.651,0.7-0.793,1.152
		c-1.416,1.856-3.287,3.338-5.557,4.401c-1.516,0.695-3.263,1.265-5.342,1.741c-1.575,0.36-3.208,0.634-4.799,0.871l-1.053-18.644
		c1.108-0.639,2.124-1.363,3.014-2.014c1.578-1.152,3.163-2.44,4.951-4.026c0.259-0.033,0.511-0.114,0.751-0.241
		c6.652-3.54,12.602-8.553,17.208-14.496c0.181-0.233,0.313-0.485,0.395-0.748c1.312-1.028,2.55-2.136,3.688-3.298
		c1.343-1.372,2.843-3.017,3.658-5.187c0.904-2.408,0.615-5.551-2.157-6.763c-1.436-0.627-2.754-0.945-3.919-0.945
		c-1.233,0-2.319,0.344-3.229,1.021c-0.934,0.695-1.554,1.593-2.109,2.452c-0.101,0.155-0.202,0.312-0.303,0.468
		c-0.497-0.578-1.307-1.261-2.53-1.407c-0.079-0.009-0.158-0.014-0.235-0.014c-0.912,0-1.729,0.608-2.032,1.514
		c-0.744,2.217-0.646,4.632,0.252,6.776c-0.933,0.909-2.202,1.559-3.536,2.24c-0.591,0.303-1.204,0.615-1.797,0.959
		c-2.58,1.493-4.984,3.262-7.31,4.973l-0.084,0.063c-2.496-0.144-4.975-0.398-7.379-0.761c-1.337-0.202-2.729-0.45-4.136-0.738
		c-0.63-0.129-1.281-0.271-1.991-0.435c-0.326-0.076-0.651-0.154-0.972-0.232c-0.243-0.246-0.541-0.438-0.869-0.549
		c-0.332-0.113-0.673-0.198-1.021-0.254c0.021-0.065,0.038-0.134,0.051-0.203c0.426-2.154-1.073-3.983-3.73-4.551
		c-1.061-0.227-2.139-0.243-3.004-0.257c-0.105-0.002-0.21-0.002-0.315-0.002c-0.281,0-0.569,0.006-0.861,0.018
		c-0.209-1.233-0.611-2.648-1.454-3.848c-0.659-0.938-1.544-1.615-2.629-2.014c-0.707-0.26-1.484-0.375-2.52-0.375
		c-0.326,0-0.634,0.011-0.944,0.021l-0.114,0.004c-2.07,0.071-4.143,0.462-6.161,1.161c-0.791,0.274-1.611,0.618-2.436,1.022
		c-0.345,0.168-0.708,0.361-1.111,0.591c-0.148,0.084-0.294,0.171-0.424,0.25c-0.407,0.058-0.795,0.23-1.124,0.498
		c-0.385,0.13-0.732,0.363-1,0.683c-0.417,0.494-0.592,1.146-0.481,1.789c0.181,1.054,0.333,2.138,0.451,3.235
		c-3.967,2.133-6.272,4.806-6.856,7.955c-0.274,1.478,0.092,2.9,1.032,4.006c0.88,1.035,2.126,1.531,3.016,1.765
		c0.618,0.161,1.269,0.244,1.937,0.244c1.229,0,2.508-0.271,3.814-0.806c0.083,0.124,0.18,0.245,0.296,0.36
		c0.611,0.612,1.306,0.686,1.712,0.699c0.042,0.114,0.086,0.258,0.126,0.392c0.072,0.239,0.159,0.525,0.285,0.819
		c-0.76,0.765-1.345,1.638-1.719,2.576c-0.065,0.163-0.124,0.331-0.175,0.504c-0.043,0.054-0.083,0.109-0.121,0.167
		c-1.967,2.979-2.392,6.772-1.298,11.597c0.422,1.861,1.007,3.606,1.672,5.531c0.684,1.975,1.423,4.076,2.292,6.141
		c0.826,1.96,1.778,3.871,2.831,5.681c1.115,1.917,2.368,3.673,3.446,5.137c0.876,1.188,1.868,2.535,1.808,3.835
		c-0.005,0.11-0.056,0.297-0.11,0.494c-0.044,0.161-0.089,0.326-0.126,0.495c-0.067,0.305-0.095,0.609-0.083,0.912l-0.02,0.027
		c-0.332,0.467-0.605,0.983-0.862,1.624c-0.497,1.24-0.559,2.591-0.175,3.804c0.047,0.149,0.101,0.295,0.161,0.437
		c-1.437,0.479-2.882,0.937-4.293,1.384c-6.568,2.083-13.358,4.237-19.295,8.25c-0.654,0.442-1.293,0.907-1.911,1.39
		c-0.163-0.209-0.324-0.406-0.477-0.591c-1.297-1.563-2.756-3.16-4.638-4.267c-1.318-0.774-2.831-1.202-4.261-1.202
		c-0.954,0-1.859,0.184-2.691,0.544l-0.101,0.044c-0.628,0.272-1.068,0.818-1.208,1.498c-0.145,0.705,0.067,1.462,0.553,1.978
		c2.239,2.376,4.747,5.035,5.896,8.094c-0.036,0.014-0.072,0.027-0.108,0.041c-0.568,0.206-1.248,0.234-1.897,0.234
		c-0.203,0-0.404-0.003-0.62-0.006l-0.211-0.004c-0.88-0.012-1.877-0.024-2.852-0.024h-0.147c-2.484,0.003-4.39,0.111-6.179,0.351
		c-0.434,0.059-0.863,0.126-1.282,0.202c-0.219-0.164-0.536-0.625-0.651-0.793c-0.437-0.634-0.802-1.328-1.085-2.063
		c-0.212-0.551-0.497-1.367-0.521-2.104c-0.006-0.184,0.091-0.365,0.659-0.898c0.649-0.609,0.862-1.525,0.542-2.332
		c-0.331-0.835-1.16-1.396-2.064-1.396c-0.504,0-0.982,0.169-1.38,0.487c-2.25,1.796-3.783,4.473-4.205,7.343
		c-0.144,0.981-0.305,3.167,0.662,5.133c-0.726,0.564-1.415,1.199-2.06,1.897c-1.004,1.089-1.865,2.264-2.709,3.416
		c-0.409,0.559-0.832,1.136-1.256,1.68c-1.2,1.537-2.59,2.938-4.133,4.167c-1.375,1.095-3.011,2.09-5.003,3.043
		c-1.739,0.833-4.122,1.973-5.343,4.278C57.754,211.113,57.6,214.108,59.77,215.952z M140.74,109.319
		c0.008-0.139,0.008-0.272,0.001-0.399c0.267-0.051,0.534-0.098,0.802-0.141c-0.049,0.031-0.097,0.063-0.143,0.094
		C141.177,109.02,140.957,109.169,140.74,109.319z"/>
	<path fill="#B08E72" d="M283.227,145.854c0.077,0.013,0.153,0.023,0.229,0.038c0.909,0.176,1.7,0.602,2.465,1.013
		c0.629,0.339,1.279,0.688,1.978,0.884l0.024,0.007c0.188,0.053,0.422,0.118,0.629,0.118c0.114,0,0.209-0.021,0.279-0.063
		c0.178-0.104,0.175-0.174,0.076-0.518c-0.011-0.035-0.021-0.07-0.031-0.107c-0.198-0.724-0.494-1.384-0.878-1.962
		c-1.553-2.338-4.256-3.968-8.033-4.847c1.405,1.55,2.515,3.382,3.244,5.378C283.216,145.814,283.222,145.834,283.227,145.854z"/>
	<path fill="#B08E72" d="M283.276,119.171l0.122,0.059c0.512,0.249,1.042,0.506,1.592,0.575c0.165,0.021,0.309,0.08,0.421,0.167
		c0.088,0,0.174-0.001,0.261-0.001l0.503,0.001h0.171c0.431-0.003,0.818-0.009,1.202-0.055c0.352-0.043,0.776-0.094,1.046-0.263
		c0.148-0.093,0.316-0.246,0.394-0.425c-0.002-0.005-0.003-0.009-0.005-0.013c-0.003-0.009-0.006-0.018-0.009-0.025
		c-0.036-0.047-0.074-0.093-0.113-0.139c-0.099-0.114-0.219-0.249-0.35-0.376c-0.496-0.478-0.974-0.839-1.42-1.074
		c-0.185-0.04-0.322-0.116-0.481-0.204l-0.042-0.022c-0.111-0.061-0.231-0.097-0.359-0.136c-0.093-0.028-0.189-0.058-0.289-0.098
		c-0.101-0.03-0.191-0.081-0.271-0.151c-0.077-0.024-0.155-0.048-0.234-0.07c-0.325-0.092-0.592-0.157-0.84-0.207
		c-0.74-0.148-1.516-0.224-2.304-0.224c-0.336,0-0.679,0.014-1.019,0.04c-0.689,0.055-1.373,0.159-2.044,0.295
		c0.744,0.502,1.494,0.968,2.242,1.389C282.092,118.574,282.688,118.887,283.276,119.171z"/>
	<g>
		<path fill="#B08E72" d="M71.957,211.388c0.889,2.135,1.336,4.373,1.31,6.516c1.201-0.398,2.362-0.962,3.501-1.516
			c0.113-0.055,0.222-0.081,0.332-0.081c0.335,0,0.646,0.256,0.725,0.596c0.037,0.161,0.015,0.313-0.055,0.443l7.368-0.369
			c0.696-0.034,1.394-0.074,2.092-0.114c2.021-0.114,4.111-0.232,6.169-0.232c0.696,0,1.344,0.013,1.978,0.04
			c4.322,0.183,8.511,1.415,12.562,2.606c3.536,1.041,7.663,2.377,11.505,4.413c0.84,0.444,1.688,0.905,2.508,1.351
			c1.824,0.989,3.709,2.013,5.612,2.925c1.76,0.845,3.131,1.432,4.446,1.906c1.13,0.407,2.341,0.804,3.584,0.977
			c0.067-0.072,0.134-0.145,0.2-0.216c0.727-0.783,1.478-1.593,2.106-2.47c0.929-1.295,1.717-2.733,2.479-4.124
			c0.252-0.46,0.512-0.935,0.773-1.397l3.274-5.792c0.126-0.225,0.339-0.354,0.583-0.354c0.263,0,0.52,0.148,0.653,0.378
			c0.125,0.213,0.123,0.464-0.004,0.688l-4.256,7.53c-0.14,0.247-0.277,0.495-0.416,0.744c-0.535,0.962-1.088,1.957-1.734,2.874
			c-0.708,1.005-1.533,1.92-2.318,2.771c-1.229,1.333-2.498,2.708-3.23,4.39c-0.398,0.914-0.668,1.877-0.929,2.807
			c-0.332,1.182-0.618,2.143-0.901,3.023c-1.333,4.144-3.002,8.169-4.597,11.938c-0.125,0.295-0.248,0.596-0.372,0.896
			c-0.63,1.538-1.281,3.129-2.356,4.431c-0.679,0.821-1.505,1.49-2.384,2.068c1.328,0.161,2.628,0.554,3.783,0.928
			c1.731,0.562,3.43,1.26,5.06,2.076c0.23-0.305,0.449-0.613,0.661-0.923c0.37-0.539,0.728-1.067,1.076-1.587
			c0.016-0.027,0.034-0.054,0.053-0.08c2.1-3.137,3.81-5.93,5.313-8.674c0.527-0.962,1.053-1.944,1.563-2.896
			c1.258-2.349,2.56-4.777,3.975-7.092c2.232-3.651,4.542-6.603,7.059-9.023c0.554-0.533,1.125-1.057,1.698-1.573
			c0.074-0.118,0.179-0.218,0.311-0.278c0.385-0.345,0.77-0.688,1.15-1.023c1.861-1.648,3.786-3.354,5.444-5.261
			c0.17-0.196,0.36-0.237,0.489-0.237c0.268,0,0.53,0.18,0.651,0.447c0.121,0.265,0.078,0.555-0.114,0.775
			c-1.661,1.911-3.58,3.61-5.434,5.253c-0.056,0.05-0.113,0.101-0.17,0.15c2.347-0.059,4.856-1.36,7.46-3.871
			c0.811-0.782,1.604-1.61,2.372-2.412c0.458-0.478,0.931-0.971,1.403-1.45c1.259-1.278,2.567-2.569,3.888-3.84
			c5.337-5.131,11.394-10.464,18.503-16.295c-0.156-0.432-0.303-0.896-0.444-1.409c-0.104-0.375-0.202-0.761-0.296-1.133
			c-0.344-1.361-0.7-2.769-1.42-3.982c-0.648-1.095-1.759-2.429-3.372-2.593c-0.107,0.205-0.354,0.358-0.583,0.358l0,0
			c-0.02,0-0.04-0.001-0.06-0.003l-19.02-2.324c-0.466-0.058-0.933-0.11-1.401-0.164c-1.518-0.173-3.088-0.353-4.61-0.66
			c-2.172-0.439-3.872-1.142-5.196-2.145c-1.357-1.028-2.566-2.472-3.695-4.413c-0.878-1.511-1.615-3.206-2.191-5.038
			c-1.133-3.606-1.607-7.388-1.997-10.952c-0.057-0.525-0.115-1.053-0.172-1.58c-0.134,0.218-0.289,0.43-0.466,0.632
			c-1.324,1.516-3.223,2.457-4.956,2.457c-0.027,0-0.054,0-0.082-0.001c-0.595-0.01-1.246-0.144-1.856-0.408
			c-0.032,0.241-0.178,0.478-0.478,0.583c-2.135,0.75-4.326,1.444-6.445,2.115c-1.167,0.369-2.373,0.751-3.556,1.138
			c-4.045,1.323-8.338,2.859-12.332,5.121c-2.004,1.136-3.696,2.291-5.172,3.533c-0.222,0.187-0.442,0.38-0.661,0.574
			c0.303,0.853,0.473,1.689,0.59,2.36c0.301,1.721,0.643,3.672,0.119,5.464c-0.275,0.938-0.756,1.755-1.393,2.359
			c-0.598,0.569-1.323,1.055-2.349,1.576c-1.884,0.957-3.833,1.617-5.792,1.962c-0.71,0.125-1.471,0.241-2.219,0.241
			c-1.236,0-2.167-0.317-2.846-0.97c-1.064-1.022-1.3-2.654-0.686-4.723c-0.138-0.172-0.208-0.384-0.19-0.584
			c0.02-0.22,0.143-0.413,0.346-0.545c0.126-0.082,0.272-0.126,0.423-0.126c0.169,0,0.339,0.057,0.478,0.155
			c0.092-0.009,0.187-0.017,0.281-0.022c0.257-0.016,0.466-0.023,0.657-0.024h0.091c0.382,0,0.78,0.012,1.217,0.036
			c0.221,0.013,0.443,0.028,0.665,0.042c0.576,0.039,1.171,0.079,1.754,0.079l0.111-0.001c1.603-0.015,2.749-0.319,3.594-0.96
			c0.02-0.516,0-1.021-0.056-1.518c-0.338,0.203-0.674,0.37-1.013,0.501c-1.058,0.408-2.169,0.464-3.117,0.464l0,0
			c-0.086,0-0.172-0.001-0.257-0.001c-0.319-0.004-0.639-0.007-0.958-0.012c-0.79-0.01-1.606-0.02-2.409-0.02
			c-1.002,0-1.836,0.016-2.626,0.049c-2.672,0.111-5.936,0.437-8.841,1.806l-0.108,0.184c-0.13,0.218-0.36,0.349-0.616,0.349
			c-0.077,0-0.153-0.014-0.226-0.038c-0.38,0.218-0.751,0.455-1.112,0.715c-1.693,1.226-2.99,2.896-4.173,4.5l-0.037,0.05
			c-1.22,1.655-2.481,3.366-3.984,4.846c-1.532,1.508-3.206,2.813-4.975,3.882c-0.01,0.007-0.021,0.014-0.032,0.02
			C69.757,207.328,71.042,209.191,71.957,211.388z M85.178,198.301c0.091-0.714,0.68-1.452,1.508-1.452
			c0.053,0,0.106,0.004,0.159,0.01c0.405,0.048,0.68,0.326,0.688,0.694c0.368,0.059,0.754,0.229,1.087,0.481
			c0.021,0.016,0.042,0.031,0.064,0.048c0.186,0.136,0.467,0.342,0.441,0.702c-0.017,0.232-0.06,0.417-0.139,0.595
			c-0.182,0.41-0.531,0.731-0.933,0.858c-0.14,0.045-0.285,0.067-0.429,0.067c-0.123,0-0.246-0.017-0.365-0.048
			c-0.048,0.003-0.097,0.006-0.146,0.006c-0.23,0-0.453-0.043-0.663-0.128C85.791,199.867,85.061,199.227,85.178,198.301z"/>
		<path fill="#B08E72" d="M137.341,108.63c-0.158-0.021-0.298-0.109-0.399-0.248c-0.714,0.231-1.417,0.489-2.106,0.774
			c0.685,0.109,1.24,0.634,1.344,1.304c0.065,0.424-0.052,0.806-0.175,1.122c-0.013,0.034-0.028,0.069-0.043,0.107l0,0.002
			c0.112-0.065,0.24-0.105,0.371-0.105c0.107,0,0.211,0.025,0.307,0.073c0.014-0.056,0.026-0.107,0.039-0.16
			c0.04-0.167,0.081-0.339,0.145-0.51c0.139-0.369,0.361-0.676,0.575-0.974c0.036-0.049,0.158-0.219,0.158-0.219
			c0.145-0.2,0.364-0.503,0.313-0.708C137.8,108.819,137.628,108.669,137.341,108.63z"/>
		<path fill="#B08E72" d="M180.409,102.332c-0.02,0.035-0.042,0.067-0.066,0.098c1.219,0.8,2.353,1.715,3.388,2.73
			c0.604-0.453,1.183-0.918,1.727-1.387c1.35-1.167,2.89-2.578,4.073-4.202c0.653-0.896,1.034-1.62,1.234-2.347
			c0.274-0.994,0.252-1.757-0.067-2.268c-0.22-0.353-0.588-0.519-0.919-0.635c-0.465-0.163-0.886-0.307-1.32-0.417
			c-0.483-0.122-0.877-0.179-1.238-0.179c-0.504,0-0.923,0.114-1.282,0.349c-0.682,0.445-1.144,1.164-1.59,1.859l-1.763,2.744
			c-0.139,0.216-0.368,0.345-0.612,0.345c-0.063,0-0.125-0.009-0.187-0.025c-0.86-0.232-1.375-0.928-1.789-1.561
			c-0.046-0.068-0.093-0.146-0.143-0.228c-0.131-0.214-0.285-0.465-0.462-0.657c-0.357,1.758-0.01,3.601,0.975,5.106
			C180.508,101.875,180.523,102.12,180.409,102.332z"/>
		<path fill="#B08E72" d="M147.698,123.151c0.825,1.731,1.986,3.02,3.357,3.724c0.878,0.45,1.828,0.688,2.747,0.688
			c0.66,0,1.294-0.122,1.89-0.359c0.032-0.015,0.065-0.028,0.102-0.039c0.33-0.1,0.653-0.219,0.972-0.352
			c0.028-0.082,0.073-0.155,0.133-0.219c0.125-0.133,0.313-0.209,0.514-0.209c0.07,0,0.141,0.01,0.209,0.028
			c1.222-0.625,2.388-1.453,3.564-2.32c1.692-1.247,3.421-2.684,5.444-4.521c0.137-0.125,0.301-0.19,0.476-0.19
			c0.136,0,0.269,0.043,0.385,0.114c5.94-3.242,11.295-7.741,15.521-13.047c-1.105-1.124-2.333-2.12-3.653-2.964
			c-1.21,1.29-2.811,2.115-4.36,2.913c-0.592,0.305-1.203,0.619-1.773,0.952c-2.557,1.49-4.933,3.238-7.23,4.928
			c-0.012,0.009-0.025,0.016-0.038,0.023c-0.063,0.279-0.284,0.524-0.648,0.524c0,0-0.025,0-0.037-0.001
			c-3.085-0.139-6.183-0.451-9.206-0.926c-1.582-0.249-3.133-0.537-4.612-0.856c-0.814-0.177-1.562-0.349-2.286-0.527l-0.046-0.011
			c-0.193-0.048-0.401-0.1-0.601-0.175c-0.44,0.754-0.802,1.521-1.077,2.292C146.165,116.196,146.26,120.132,147.698,123.151z"/>
		<path fill="#B08E72" d="M129.919,131.718c0.732,0.856,1.489,1.742,2.15,2.684c0.584,0.832,1,1.554,1.306,2.271
			c0.189,0.443,0.349,0.902,0.504,1.347c0.174,0.497,0.353,1.011,0.571,1.494c0.457,1.015,1.091,2.024,1.705,3.002
			c1.354,2.158,2.753,4.388,2.554,7.006c0.014,0.003,0.027,0.008,0.04,0.012c-0.05,0.172-0.058,0.358-0.009,0.541
			c0.003,0.012,0.004,0.022,0.007,0.034c0.003,0.066,0.005,0.134,0.005,0.2c0.001,0.204,0.065,0.395,0.172,0.554
			c-0.011,0.008-0.022,0.018-0.034,0.025c0.048,0.205,0.095,0.41,0.142,0.614c0.102,0.442,0.204,0.885,0.308,1.326l0.493,2.1
			c1.358,0.446,2.848,0.672,4.441,0.672c1.176,0,2.396-0.124,3.628-0.368c1.539-0.305,3.138-0.771,4.888-1.426
			c0.747-0.279,1.507-0.582,2.324-0.926c0.375-0.158,0.761-0.323,1.146-0.491c0.053-0.023,0.106-0.046,0.161-0.069
			c0.286-0.121,0.582-0.246,0.795-0.43c0.303-0.261,0.51-0.599,0.631-1.038c-0.142-0.21-0.161-0.449-0.051-0.658
			c0.042-0.082,0.104-0.152,0.176-0.213c0-0.012,0.001-0.024,0.002-0.037c0.025-0.729-0.025-1.477-0.073-2.2
			c-0.016-0.237-0.032-0.475-0.045-0.711l-1.057-18.706c-0.201,0.074-0.402,0.144-0.607,0.206c-0.732,0.306-1.529,0.461-2.368,0.461
			c-0.918,0-1.873-0.191-2.763-0.555c-3.077-1.253-5.244-4.526-5.796-8.756c-0.448-3.424,0.246-6.941,1.954-9.942
			c-0.082-0.006-0.165-0.009-0.248-0.009c-1.527,0-3.037,0.897-4.313,1.775c-1.35,0.929-2.697,1.913-4,2.865
			c-0.45,0.328-0.901,0.656-1.352,0.982c0.312,1.27,0.101,2.718-0.15,4.045c-0.389,2.058-1.117,4.027-2.164,5.854
			c-0.125,0.219-0.349,0.35-0.598,0.35c-0.25,0-0.484-0.126-0.625-0.337c-1.044-1.555-2.32-2.966-3.791-4.196
			c-0.203,0.05-0.405,0.081-0.604,0.094c-1.439,0.736-2.984,2.121-3.083,3.855c-0.106,1.858,1.122,3.65,2.465,5.311
			C129.133,130.798,129.533,131.266,129.919,131.718z"/>
		<path fill="#B08E72" d="M155.659,154.187c-1.722,0.725-3.774,1.54-5.935,2.091c-1.893,0.482-3.729,0.728-5.456,0.728l0,0
			c-0.041,0-0.081-0.001-0.121-0.002l0.892,8.358c0.062,0.575,0.121,1.151,0.181,1.727c0.206,1.99,0.419,4.048,0.705,6.06
			c0.462,3.264,1.163,7.062,2.858,10.489c0.941,1.903,1.955,3.378,3.098,4.506c1.233,1.217,2.79,2.043,4.759,2.523
			c1.572,0.383,3.215,0.576,4.804,0.762c0.327,0.038,0.654,0.077,0.981,0.117l19.37,2.366c1.486-3.053,2.661-6.282,3.495-9.605
			c-1.459-0.196-2.879-0.418-4.227-0.66c-4.238-0.759-8.426-1.79-12.446-3.065c-0.19-0.06-0.389-0.119-0.592-0.181
			c-1.574-0.468-3.532-1.052-3.965-2.924c-0.167-0.721-0.179-1.469-0.19-2.191c-0.003-0.214-0.007-0.427-0.014-0.638
			c-0.036-1.037-0.078-1.952-0.127-2.798c-0.342-5.883-1.23-13.296-4.965-19.561c-0.116,0.178-0.249,0.338-0.4,0.481
			c-0.614,0.581-1.418,0.901-2.195,1.21C155.997,154.048,155.826,154.116,155.659,154.187z"/>
		<path fill="#B08E72" d="M128.163,119.126c0.169,0.409,0.483,0.616,0.935,0.616c0.041,0,0.083-0.002,0.126-0.006
			c1.327-0.106,2.457-1.248,3.191-2.098c0.279-0.322,0.551-0.662,0.816-0.991c-0.001-0.184,0.08-0.358,0.237-0.494
			c0.668-0.575,1.219-1.2,1.639-1.857c0.04-0.063,0.077-0.124,0.114-0.186c-0.047-0.097-0.071-0.202-0.069-0.311
			c0.004-0.165-0.125-0.334-0.262-0.514c-0.08-0.105-0.163-0.214-0.224-0.33c-0.25-0.477-0.302-0.952-0.157-1.412
			c0.023-0.074,0.062-0.161,0.102-0.253c0.086-0.195,0.246-0.56,0.143-0.657c-0.041-0.039-0.088-0.061-0.134-0.061
			c-0.08,0-0.13,0.061-0.134,0.16c-0.008,0.224-0.101,0.394-0.235,0.509c0.038,0.129,0.04,0.271-0.002,0.414
			c-0.093,0.312-0.363,0.53-0.658,0.53c-0.129,0-0.254-0.04-0.374-0.117c-0.59-0.383-0.953-1.008-1.019-1.662
			c-1.355,0.728-2.64,1.55-3.829,2.455c-0.382,0.291-0.767,0.597-1.139,0.893c-0.568,0.452-1.146,0.911-1.747,1.343l0.074,1.01
			c0.004,0.054,0.004,0.114,0.004,0.179v0.006c0.008,0.001,0.016,0.001,0.024,0.002c0.792,0.088,1.447,0.456,1.851,1.038
			c0.258,0.373,0.389,0.787,0.515,1.188C128.017,118.722,128.083,118.931,128.163,119.126z"/>
		<path fill="#B08E72" d="M129.514,110.329c1.618-1.033,3.347-1.918,5.14-2.63c3.326-1.321,6.807-2.041,10.352-2.142
			c-0.076-0.067-0.168-0.133-0.274-0.193c-0.422-0.241-0.913-0.389-1.502-0.45c-0.722-0.076-1.456-0.114-2.181-0.114
			c-0.777,0-1.561,0.047-2.337,0.134c-0.145,0.381-0.379,0.679-0.7,0.881c-0.36,0.228-0.759,0.323-1.145,0.415
			c-0.077,0.019-0.154,0.037-0.231,0.057c-0.502,0.127-0.949,0.253-1.368,0.385c-1.912,0.601-3.724,1.409-5.385,2.404
			c-0.34,0.203-0.688,0.428-1.024,0.646c-1.241,0.801-2.524,1.629-4.005,1.859c-0.259,0.04-0.599,0.086-0.939,0.086
			c-0.834,0-1.408-0.289-1.705-0.861c-0.22-0.422-0.231-0.906-0.241-1.334l0-0.025c-0.013-0.566-0.032-1.075-0.057-1.554
			c-0.01-0.189-0.022-0.378-0.034-0.567c-1.514,0.783-2.654,1.568-3.556,2.449c-0.641,0.626-1.123,1.239-1.473,1.874
			c-0.502,0.911-0.734,1.663-0.71,2.3c0.062,1.634,2.07,2.07,3.247,2.07c0.114,0,0.227-0.004,0.335-0.012
			c1.572-0.109,3.171-0.788,5.031-2.138c0.604-0.438,1.203-0.907,1.782-1.359C127.485,111.765,128.47,110.995,129.514,110.329z"/>
		<path fill="#B08E72" d="M134.347,117.532c-0.403,0.503-0.82,1.023-1.276,1.502c-0.561,0.587-1.114,1.052-1.657,1.397
			c1.051,0.933,2.014,1.978,2.873,3.116c0.654-1.33,1.131-2.723,1.419-4.146c0.148-0.734,0.319-1.701,0.317-2.672
			c0-0.31-0.017-0.659-0.089-1.003C135.351,116.281,134.842,116.914,134.347,117.532z"/>
		<path fill="#B08E72" d="M123.347,108.131c0.011,0.235,0.016,0.476,0.021,0.707c0.007,0.296,0.014,0.603,0.032,0.9
			c0.024,0.403,0.08,0.479,0.224,0.489c0.09,0.006,0.182,0.009,0.272,0.009c1.507,0,2.843-0.855,4.135-1.684
			c0.146-0.094,0.291-0.187,0.435-0.277c1.73-1.092,3.541-1.977,5.381-2.63c0.864-0.307,1.801-0.583,2.866-0.844
			c0.375-0.092,0.625-0.171,0.696-0.432c0.087-0.321,0.063-0.664,0.024-0.987c-0.172-1.427-0.435-3.028-1.375-3.982
			c-0.5-0.509-1.176-0.762-2.126-0.798c-0.236-0.01-0.475-0.014-0.71-0.014c-0.725,0-1.447,0.043-2.146,0.128
			c-1.888,0.229-3.767,0.763-5.436,1.542c-0.608,0.284-1.193,0.629-1.758,0.963c-0.241,0.142-0.482,0.284-0.728,0.423
			c-0.147,0.084-0.305,0.127-0.468,0.128c0.17,1.053,0.309,2.096,0.414,3.103C123.218,105.996,123.301,107.092,123.347,108.131z"/>
		<path fill="#B08E72" d="M165.292,174.968c0.006,0.185,0.004,0.375,0.003,0.577c-0.005,0.682-0.011,1.455,0.3,1.998
			c0.383,0.671,1.163,0.93,1.916,1.181l0.044,0.015c2.049,0.683,4.108,1.296,6.119,1.823c4.145,1.086,8.356,1.905,12.522,2.436
			c0.121,0.015,0.234,0.054,0.332,0.11c0.091-0.116,0.224-0.203,0.388-0.241c0.629-0.146,1.245-0.284,1.876-0.372
			c0.381-0.054,0.763-0.081,1.133-0.081c1.792,0,3.209,0.637,3.989,1.792c0.572,0.847,0.72,1.851,0.793,2.81
			c0.081,1.044,0.138,2.134,0.172,3.24c0.053,1.78,0.043,3.566-0.028,5.35c1.404-1.148,2.78-2.448,4.099-3.881
			c2.898-3.148,5.395-6.711,7.758-10.286c-0.096-0.347,0.013-0.709,0.267-0.961c-0.66-3.669-2.181-7.104-4.064-10.312
			c-3.212-5.466-7.134-10.58-11.203-15.431c-2.083-2.48-4.242-4.898-6.482-7.238c-1.964-2.05-3.95-4.165-6.392-5.646
			c-0.152,0.206-0.308,0.41-0.47,0.61c-0.488,0.61-0.992,1.153-1.52,1.642c-1.441,1.332-3.149,2.433-5.08,3.271
			c-0.561,0.243-1.128,0.463-1.702,0.666c-0.129,0.047-0.259,0.093-0.389,0.137c-0.022,0.008-0.044,0.016-0.066,0.023
			c-3.368,1.145-6.891,1.644-9.848,2.062c-0.046,0.007-0.093,0.01-0.139,0.01c-0.085,0-0.165-0.012-0.239-0.034
			c-0.004,0.047-0.007,0.093-0.013,0.139c-0.006,0.054-0.013,0.106-0.02,0.159c0.569,0.859,1.087,1.743,1.543,2.636
			C164.365,159.982,165.059,167.673,165.292,174.968z"/>
		<path fill="#B08E72" d="M193.275,186.936c-0.077-0.859-0.233-1.733-0.854-2.296c-0.605-0.548-1.39-0.814-2.399-0.814
			c-0.938,0-1.94,0.232-2.745,0.419c-0.059,0.013-0.116,0.021-0.174,0.021c-0.119,0-0.226-0.03-0.317-0.08
			c-0.784,3.259-1.897,6.454-3.319,9.521c1.293,0.288,2.459,1.092,3.401,2.354c1.045,1.397,1.568,3.044,1.979,4.615
			c0.048,0.182,0.095,0.364,0.142,0.547c0.18,0.703,0.366,1.43,0.599,2.126c0.075,0.226,0.157,0.462,0.247,0.699
			c0.023,0.046,0.042,0.096,0.056,0.146c0.199,0.504,0.442,1.007,0.768,1.435c0.086,0.114,0.316,0.38,0.581,0.38
			c0.026,0,0.053-0.002,0.079-0.008c0.331-0.069,0.608-0.236,0.761-0.458c0.419-0.614,0.525-1.392,0.629-2.143
			c0.013-0.087,0.024-0.172,0.036-0.257c0.615-4.295,0.854-8.671,0.707-13.005C193.41,188.944,193.365,187.943,193.275,186.936z"/>
		<path fill="#B08E72" d="M145.837,241.982c-1.793,2.766-3.379,5.723-4.914,8.582c-0.234,0.437-0.469,0.873-0.704,1.31
			c-1.007,1.87-1.868,3.434-2.793,4.987c-0.887,1.491-1.817,2.929-2.722,4.29c2.027,0.093,4.003,0.748,5.668,1.877
			c0.495-1.032,0.827-2.157,1.162-3.379c0.608-2.216,1.144-4.007,1.688-5.639c1.301-3.903,2.851-7.737,4.606-11.393
			c0.901-1.878,1.854-3.712,2.831-5.453l0.185-0.331c0.567-1.014,1.146-2.049,1.85-2.985c-0.071,0.065-0.143,0.131-0.214,0.196
			C149.978,236.375,147.742,239.046,145.837,241.982z"/>
		<path fill="#B08E72" d="M133.756,262.573c-0.081,0.122-0.162,0.243-0.244,0.366c-0.84,1.273-1.708,2.586-2.838,3.633
			c0.885,0.205,1.782,0.311,2.676,0.311c0.753,0,1.499-0.075,2.215-0.224c1.888-0.393,3.228-1.178,4.093-2.396
			c-1.617-1.098-3.547-1.698-5.496-1.698C134.028,262.564,133.892,262.567,133.756,262.573z"/>
		<path fill="#B08E72" d="M120.922,262.383c-0.302,0-0.601,0.019-0.887,0.054c-0.023,0.002-0.046,0.004-0.069,0.004
			c-0.07,0-0.136-0.014-0.198-0.036c-0.083,0.043-0.165,0.087-0.247,0.13c-1.279,0.665-2.601,1.354-3.688,2.319
			c-1.233,1.094-1.951,2.246-2.137,3.427c1.084,0.274,2.238,0.407,3.519,0.407c2.116,0,4.274-0.37,6.483-0.784l0.339-0.063
			c1.536-0.284,3.124-0.579,4.451-1.383c0.589-0.357,1.109-0.805,1.581-1.301c-1.482-0.728-2.998-1.342-4.515-1.827
			C123.996,262.831,122.469,262.383,120.922,262.383z"/>
		<path fill="#B08E72" d="M237.169,128.088c0.289,0.24,0.575,0.356,0.876,0.356c0.725,0,1.439-0.692,2.07-1.303
			c0.191-0.186,0.372-0.36,0.549-0.514c1.56-1.349,3.037-2.313,4.521-2.949c1.578-0.677,3.164-1.021,4.713-1.021
			c1.717,0,3.327,0.425,4.786,1.263c0.805,0.461,1.542,1.007,2.235,1.604c0.062-0.034,0.129-0.061,0.204-0.076
			c1.066-0.213,2.184-0.316,3.417-0.316c2.032,0,4.087,0.288,6.074,0.566l0.577,0.081c1.191,0.165,2.676,0.371,4.097,0.371
			c0.229,0,0.453-0.005,0.671-0.015c0.858-0.041,1.598-0.151,2.261-0.337c0.308-0.087,0.71-0.208,1.084-0.377
			c0.06-0.027,0.117-0.055,0.174-0.083c0.183-0.088,0.371-0.179,0.589-0.225c0.557-0.288,1.085-0.694,1.597-1.087l0.193-0.147
			c0.391-0.298,0.78-0.61,1.158-0.913c0.235-0.189,0.473-0.378,0.71-0.565c0.958-0.753,1.91-1.462,2.946-1.912
			c-0.504-0.242-0.988-0.514-1.448-0.771l-0.271-0.151c-1.233-0.688-2.436-1.459-3.574-2.293c-0.942,0.269-1.845,0.574-2.686,0.869
			c-0.307,0.107-0.612,0.217-0.918,0.325c-1.635,0.581-3.324,1.183-5.061,1.564c-1.224,0.27-2.239,0.409-3.195,0.439
			c-0.418,0.013-0.862,0.025-1.315,0.025c-0.688,0-1.254-0.029-1.778-0.094c-0.991-0.121-2.057-0.273-3.121-0.567
			c-0.88-0.244-1.833-0.553-2.911-0.945c-0.504-0.184-1.015-0.378-1.508-0.565c-1.354-0.515-2.754-1.048-4.171-1.421
			c-1.179-0.31-2.297-0.468-3.324-0.468c-0.841,0-1.642,0.105-2.377,0.314c-1.532,0.435-2.948,1.313-4.096,2.544
			c-0.992,1.063-1.849,2.413-2.548,4.01c-0.306,0.699-0.589,1.465-0.841,2.275c-0.03,0.097-0.059,0.193-0.087,0.288
			c-0.184,0.611-0.359,1.193-0.766,1.7c0.013,0.018,0.025,0.035,0.039,0.052C236.853,127.791,237.003,127.949,237.169,128.088z"/>
		<path fill="#B08E72" d="M203.193,111.557c0.328-0.704,0.703-1.363,1.119-1.963c3.035-4.374,8.442-7.191,16.53-8.614
			c2.707-0.476,5.505-0.736,8.211-0.989c5.316-0.497,10.814-1.01,15.837-3.179c1.74-0.752,3.503-1.672,5.389-2.813
			c1.702-1.029,3.073-1.96,4.23-3.153c1.271-1.312,2.068-2.824,2.437-4.624c0.151-0.736,0.255-1.498,0.356-2.235
			c0.108-0.792,0.22-1.608,0.392-2.409c-3.218,1.025-5.796,3.566-7.697,5.69c-0.479,0.535-0.961,1.092-1.426,1.629
			c-1.981,2.291-4.031,4.659-6.663,6.297c-3.511,2.186-7.659,2.777-10.473,3.032c-1.459,0.132-2.947,0.205-4.386,0.274
			c-2.209,0.108-4.493,0.22-6.714,0.55c-3.316,0.492-6.473,1.522-9.382,3.062c-5.061,2.677-9.261,6.706-12.057,11.51
			c0.664-0.382,1.337-0.738,2.018-1.067C201.667,112.189,202.429,111.857,203.193,111.557z"/>
		<path fill="#B08E72" d="M186.072,146.098c2.199,2.29,4.329,4.646,6.376,7.073c4.099,4.857,8.059,9.963,11.354,15.406
			c1.576,2.604,2.981,5.347,3.898,8.257c0.227,0.719,0.43,1.444,0.592,2.18c0.104-0.159,0.208-0.319,0.312-0.479
			c4.013-6.174,8.163-12.559,14.035-17.344c0.715-0.583,1.457-1.138,2.214-1.672c1.877-1.34,3.843-2.55,5.845-3.756l0.039-0.023
			c3.012-1.813,6.223-3.746,8.975-6.106c0.001,0,0.001-0.001,0.002-0.002c0.064-0.056,0.129-0.111,0.193-0.167
			c0.389-0.345,0.769-0.698,1.137-1.063c1.363-1.35,2.419-2.642,3.227-3.949c0.846-1.37,1.393-2.764,2-4.569
			c0.45-1.336,1.188-2.929,2.909-3.398c0.557-0.151,1.156-0.226,1.836-0.226c1.15,0,2.317,0.216,3.413,0.436
			c3.642,0.733,7.048,2.25,10.125,4.51c0.535,0.393,1.079,0.815,1.606,1.226c2.113,1.644,4.299,3.343,6.875,3.938
			c0.567,0.132,1.159,0.195,1.808,0.195c1.152,0,2.326-0.207,3.462-0.406c1.099-0.194,2.232-0.392,3.364-0.409
			c-0.846-2.089-2.188-3.986-3.906-5.511c-0.097-0.086-0.163-0.188-0.199-0.298c-0.448-0.08-0.897-0.157-1.339-0.231
			c-2.664-0.453-5.419-0.922-7.954-2.085c-2.79-1.281-5.229-3.232-7.906-6.328c-0.271-0.313-0.543-0.634-0.815-0.955
			c-1.689-1.992-3.437-4.053-5.728-5.269c-1.231-0.653-2.567-0.984-3.97-0.984c-1.875,0-3.846,0.599-5.696,1.731
			c-0.865,0.529-1.652,1.1-2.342,1.696c-0.252,0.218-0.5,0.455-0.739,0.684c-0.353,0.335-0.716,0.683-1.109,0.988
			c-0.304,0.236-0.631,0.411-0.971,0.525c-0.058,0.033-0.12,0.061-0.189,0.078c-0.232,0.056-0.465,0.085-0.689,0.085
			c-0.176,0-0.343-0.018-0.504-0.049c-0.475-0.082-0.921-0.289-1.312-0.613c-1.081-0.899-1.66-2.269-2.085-3.489
			c-0.025-0.072-0.05-0.145-0.074-0.217c-0.096-0.27-0.188-0.539-0.277-0.805c-0.036-0.104-0.071-0.209-0.107-0.314
			c-0.295-0.853-0.601-1.674-1.003-2.474c-0.093-0.181-0.188-0.359-0.288-0.536c-0.023-0.043-0.048-0.085-0.072-0.127
			c-0.07-0.123-0.142-0.245-0.214-0.366c-0.076-0.124-0.152-0.248-0.23-0.371c-0.016-0.025-0.031-0.05-0.047-0.075
			c-0.604-0.942-1.293-1.834-2.054-2.665c-0.084-0.09-0.167-0.181-0.253-0.269c-0.032-0.034-0.063-0.067-0.097-0.102
			c-0.944-0.968-1.976-1.84-3.075-2.608c-0.086-0.06-0.172-0.12-0.259-0.179c-3.637-2.422-7.975-3.703-12.546-3.703
			c-1.355,0-2.718,0.112-4.074,0.334c-1.512,0.255-3.025,0.642-4.518,1.152c-0.097,0.033-0.193,0.066-0.289,0.101
			c-0.052,0.019-0.103,0.036-0.153,0.055c-0.143,0.052-0.284,0.105-0.427,0.159c-0.104,0.084-0.236,0.136-0.383,0.149
			c-2.146,0.851-4.22,1.954-6.194,3.297c-0.092,0.159-0.251,0.269-0.445,0.307c-1.646,1.159-3.224,2.484-4.715,3.966
			c-0.056,0.056-0.11,0.111-0.165,0.166c-0.093,0.093-0.184,0.186-0.275,0.28c-1.086,1.118-2.124,2.315-3.11,3.59
			c-0.017,0.021-0.033,0.043-0.05,0.064c-0.128,0.166-0.255,0.333-0.381,0.501c-0.043,0.059-0.087,0.116-0.131,0.175
			c-0.141,0.188-0.28,0.38-0.418,0.572c-0.057,0.079-0.113,0.159-0.17,0.239c-0.095,0.134-0.189,0.268-0.283,0.403
			c-0.046,0.065-0.091,0.132-0.137,0.198c-0.134,0.194-0.267,0.389-0.397,0.587c-1.183,1.779-2.28,3.663-3.265,5.601
			c-0.434,0.852-0.847,1.731-1.247,2.584c-0.015,0.03-0.029,0.062-0.044,0.092c-0.796,1.701-1.612,3.439-2.625,5.055
			C182.13,142.014,184.127,144.072,186.072,146.098z"/>
		<path fill="#B08E72" d="M140.203,156.505l1.438,6.123c0.66,0.054,1.281,0.311,1.753,0.721c-0.088-0.83-0.175-1.655-0.262-2.473
			c-0.139-1.313-0.279-2.627-0.418-3.941C141.846,156.857,141.008,156.714,140.203,156.505z"/>
		<path fill="#B08E72" d="M104.185,189.578c0.001,0.064,0.003,0.132,0.005,0.199c0.016,0.466,0.036,1.044-0.418,1.402
			c-0.401,0.317-0.752,0.539-1.106,0.696c-1.031,0.462-2.158,0.668-3.653,0.668c-0.688,0-1.396-0.044-2.021-0.082
			c-0.459-0.029-0.979-0.062-1.492-0.062c-0.059,0-0.117,0.001-0.175,0.002c-0.192,0.003-0.396,0.008-0.603,0.021
			c-0.324,1.043-0.625,2.464,0.161,3.283c0.448,0.467,1.107,0.694,2.016,0.694c0.497,0,0.989-0.068,1.363-0.127
			c1.619-0.254,3.17-0.69,4.612-1.295c1.356-0.569,2.753-1.211,3.624-2.251c1.118-1.335,1.032-3.26,0.833-4.789
			c-0.242-1.859-0.577-3.811-1.745-5.435c-0.581-0.809-1.265-1.568-1.857-2.204c-0.612-0.658-1.286-1.341-2.063-1.883
			c-1.144-0.797-2.378-1.236-3.478-1.236c-0.183,0-0.362,0.013-0.539,0.036c1.146,1.227,2.333,2.543,3.384,4.001
			c1.331,1.85,2.214,3.609,2.701,5.382C104.021,187.643,104.172,188.645,104.185,189.578z"/>
		<path fill="#B08E72" d="M137.058,160.191c0.188,0.872,0.149,1.71-0.131,2.801c-0.066,0.259-0.057,0.461,0.03,0.599
			c0.087,0.139,0.266,0.236,0.531,0.29c0.179,0.036,0.372,0.055,0.571,0.055c0.371,0,0.78-0.063,1.216-0.188
			c0.069-0.02,0.138-0.03,0.206-0.03c0.086,0,0.167,0.018,0.243,0.048c-0.017-0.04-0.03-0.082-0.04-0.125
			c-0.07-0.306,0.067-0.584,0.358-0.725c0.061-0.029,0.124-0.056,0.187-0.081l-1.608-6.842c-0.239-0.094-0.475-0.193-0.708-0.3
			c-0.227-0.104-0.393-0.392-0.371-0.643c0.124-1.396,0.094-2.764-0.085-4.07c-0.015-0.063-0.029-0.126-0.043-0.189
			c-0.005-0.004-0.011-0.008-0.017-0.012c-0.221-0.181-0.247-0.487-0.202-0.696c0.009-0.041,0.017-0.083,0.024-0.125
			c-0.471-1.987-1.011-3.984-1.816-5.853c-0.036-0.083-0.058-0.165-0.068-0.246c-0.029-0.046-0.058-0.092-0.087-0.138
			c-0.108-0.17-0.217-0.34-0.326-0.51c-0.53-0.826-1.079-1.68-1.517-2.582c-0.289-0.595-0.511-1.22-0.724-1.824
			c-0.183-0.516-0.371-1.049-0.599-1.552c-0.783-1.731-2.034-3.194-3.244-4.609c-1.003-1.173-2.04-2.386-2.824-3.758
			c-0.405-0.708-0.698-1.382-0.886-2.026c-1.132,3.036-0.448,6.454,0.315,9.17c0.518,1.848,1.172,3.69,1.805,5.474l0.024,0.067
			c0.635,1.789,1.412,3.891,2.362,5.906c0.874,1.853,1.857,3.634,2.922,5.292c0.565,0.879,1.142,1.717,1.713,2.491
			c0.094,0.127,0.188,0.253,0.282,0.38c0.468,0.628,0.953,1.278,1.371,1.963C136.337,158.28,136.841,159.188,137.058,160.191z"/>
		<path fill="#B08E72" d="M83.187,190.015c0.667-0.291,1.362-0.544,2.091-0.762c-0.354-0.341-0.655-0.737-0.92-1.122
			c-0.625-0.907-1.129-1.883-1.499-2.899c-0.219-0.601-0.43-1.232-0.55-1.863c-0.371,0.752-0.629,1.544-0.769,2.364
			c-0.261,1.528-0.109,3.496,1.063,4.555C82.796,190.191,82.99,190.1,83.187,190.015z"/>
		<path fill="#B08E72" d="M138.472,169.767c0.582,0,1.181-0.135,1.734-0.39c0.677-0.313,2.887-1.471,2.914-3.297
			c0.011-0.749-0.258-1.384-0.72-1.699c-0.337-0.229-0.716-0.355-1.067-0.355c-0.213,0-0.415,0.046-0.601,0.136
			c-0.104,0.051-0.213,0.076-0.323,0.076c-0.104,0-0.205-0.024-0.298-0.068c0.021,0.056,0.038,0.114,0.046,0.177
			c0.051,0.363-0.149,0.675-0.499,0.774c-0.54,0.154-1.074,0.232-1.587,0.232c-0.236,0-0.469-0.017-0.693-0.051
			c-0.174-0.025-0.458-0.082-0.751-0.207c-0.035,0.008-0.071,0.014-0.109,0.016l-0.178,0.013c-0.761,1.146-1.182,2.706-0.136,3.748
			C136.79,169.457,137.575,169.767,138.472,169.767z"/>
		<path fill="#B08E72" d="M63.038,214.497c0.966,0.413,1.748,0.953,2.459,1.701c0.68,0.714,1.322,1.389,2.225,1.777
			c0.723,0.313,1.577,0.478,2.469,0.478c0.104,0,0.209-0.003,0.313-0.007c0.449-0.019,0.892-0.076,1.329-0.162
			c0.182-4.459-1.731-8.948-4.938-11.593c-0.433,0.229-0.9,0.463-1.417,0.71l-0.124,0.06c-0.859,0.411-1.748,0.836-2.52,1.398
			c-0.827,0.604-1.378,1.267-1.638,1.973c-0.184,0.5-0.44,1.448-0.092,2.195C61.479,213.83,62.236,214.153,63.038,214.497z"/>
		<path fill="#5C4A39" d="M60.719,214.836c0.491,0.418,1.073,0.669,1.635,0.911c0.31,0.134,0.63,0.271,0.924,0.435
			c0.56,0.31,1.019,0.801,1.462,1.276c0.216,0.231,0.439,0.471,0.674,0.689c1.195,1.112,2.908,1.725,4.824,1.725
			c0.253,0,0.513-0.012,0.77-0.033c1.267-0.104,2.472-0.462,3.64-0.926c0.033,0.005,0.066,0.008,0.103,0.008
			c0.014,0,0.027-0.001,0.041-0.001l13.633-0.684c1.717-0.086,3.493-0.176,5.239-0.176c0.314,0,0.625,0.004,0.922,0.009
			c2.131,0.041,4.279,0.306,6.383,0.786c1.942,0.444,3.894,1.011,5.781,1.559l0.338,0.098c2.277,0.661,4.134,1.257,5.844,1.878
			c2.045,0.742,3.875,1.535,5.593,2.425c0.792,0.409,1.586,0.848,2.355,1.271c0.48,0.266,0.977,0.539,1.468,0.803
			c1.869,1.006,4.343,2.303,6.896,3.403c1.568,0.678,3.352,1.404,5.239,1.797c-0.064,0.075-0.128,0.149-0.191,0.226
			c-0.668,0.811-1.184,1.573-1.577,2.329c-0.488,0.938-0.82,1.963-1.081,2.842c-0.09,0.306-0.18,0.61-0.27,0.915
			c-0.493,1.673-1.002,3.401-1.589,5.077c-0.618,1.766-1.342,3.657-2.279,5.955c-0.887,2.175-1.685,4.074-2.44,5.808
			c-0.314,0.72-0.751,1.654-1.349,2.496c-0.442,0.622-1.041,1.203-1.832,1.776c-0.943,0.683-1.997,1.232-3.017,1.764
			c-1.044,0.545-2.124,1.108-3.1,1.819c-1.579,1.151-3.474,3.076-3.537,5.706c-0.007,0.311,0.205,0.594,0.517,0.689
			c1.371,0.421,2.84,0.625,4.491,0.625c2.627,0,5.262-0.52,7.81-1.022l0.047-0.009c1.32-0.26,2.794-0.64,4.151-1.442
			c0.034,0.016,0.069,0.031,0.108,0.043c1.271,0.402,2.602,0.607,3.956,0.607h0c0.743,0,1.498-0.063,2.242-0.186
			c2.146-0.355,3.807-1.226,4.936-2.585c1.116-1.346,1.706-3.012,2.178-4.612c0.198-0.672,0.391-1.356,0.578-2.018
			c0.33-1.169,0.671-2.376,1.048-3.552c1.232-3.844,2.738-7.67,4.475-11.372c0.846-1.803,1.78-3.637,2.777-5.45
			c0.104-0.189,0.208-0.381,0.313-0.573c0.824-1.515,1.675-3.082,2.887-4.285c0.08-0.079,0.164-0.155,0.258-0.239
			c2.711-0.146,5.455-1.599,8.371-4.43c0.85-0.824,1.682-1.692,2.487-2.532c0.563-0.588,1.146-1.195,1.729-1.782
			c1.392-1.401,2.849-2.823,4.456-4.347c4.921-4.668,10.458-9.522,16.899-14.819c0.402,0.811,1,1.75,2.062,1.892
			c0.089,0.012,0.181,0.018,0.27,0.018c0.78,0,1.56-0.459,2.084-1.227c0.506-0.741,0.634-1.688,0.747-2.525
			c0.016-0.111,0.029-0.222,0.045-0.33c0.277-1.936,0.479-3.89,0.606-5.85c0.151-0.115,0.301-0.23,0.449-0.348
			c0.003-0.003,0.007-0.006,0.011-0.008c0.194-0.154,0.388-0.311,0.579-0.469c0.001-0.001,0.004-0.003,0.005-0.004
			c0.96-0.791,1.878-1.628,2.756-2.499c0.022-0.022,0.044-0.044,0.066-0.065c0.143-0.144,0.286-0.287,0.428-0.432
			c0.036-0.038,0.073-0.075,0.109-0.113c0.129-0.133,0.258-0.267,0.385-0.4c0.039-0.042,0.078-0.083,0.117-0.124
			c0.141-0.149,0.281-0.3,0.42-0.451c0.021-0.021,0.041-0.044,0.062-0.065c0.158-0.174,0.315-0.348,0.471-0.522
			c0.037-0.041,0.073-0.083,0.109-0.124c0.118-0.135,0.235-0.269,0.353-0.402c0.048-0.056,0.096-0.111,0.144-0.167
			c0.109-0.126,0.218-0.254,0.325-0.382c0.043-0.05,0.085-0.1,0.127-0.149c0.125-0.148,0.249-0.298,0.372-0.448
			c0.021-0.025,0.043-0.051,0.064-0.077c2.016-2.455,3.828-5.047,5.532-7.603c0.126-0.189,0.252-0.38,0.378-0.57
			c0.304-0.129,0.555-0.396,0.621-0.745c0.015-0.076,0.022-0.155,0.026-0.236c0.399-0.608,0.796-1.216,1.186-1.813
			c0.511-0.783,1.024-1.57,1.544-2.358c1.919-2.904,3.92-5.813,6.13-8.504c0.121-0.147,0.241-0.294,0.362-0.439
			c0.032-0.038,0.063-0.075,0.096-0.113c0.386-0.457,0.779-0.909,1.181-1.353c0.03-0.033,0.06-0.066,0.089-0.101
			c0.056-0.06,0.111-0.12,0.166-0.18c0.107-0.116,0.215-0.231,0.322-0.346c0.002-0.002,0.003-0.004,0.005-0.006
			c0.143-0.15,0.285-0.3,0.428-0.447c0.047-0.047,0.093-0.094,0.139-0.141c0.089-0.091,0.177-0.181,0.266-0.271
			c1.992-1.991,4.221-3.806,6.647-5.41c1.476-0.975,3.017-1.902,4.508-2.8c1.274-0.766,2.576-1.551,3.854-2.374
			c0.068-0.044,0.14-0.088,0.208-0.133c0.065-0.042,0.128-0.084,0.193-0.127c0.017-0.011,0.034-0.021,0.051-0.033
			c0.215-0.141,0.427-0.281,0.635-0.421c0.029-0.02,0.059-0.04,0.088-0.06c0.172-0.116,0.341-0.232,0.508-0.349
			c0.046-0.031,0.093-0.063,0.138-0.094c0.051-0.035,0.102-0.071,0.151-0.107c0.045-0.031,0.089-0.063,0.133-0.094
			c0.168-0.119,0.335-0.239,0.5-0.359c0.005-0.004,0.012-0.008,0.017-0.013c0.548-0.4,1.073-0.804,1.574-1.211
			c0.031-0.026,0.062-0.051,0.093-0.077c0.122-0.1,0.243-0.199,0.362-0.299c0.054-0.046,0.108-0.092,0.162-0.138
			c0.095-0.081,0.189-0.162,0.283-0.243c0.061-0.053,0.12-0.105,0.18-0.158c0.09-0.079,0.178-0.158,0.266-0.237
			c0.057-0.051,0.113-0.102,0.168-0.152c0.114-0.104,0.226-0.209,0.336-0.313c0.025-0.024,0.053-0.049,0.078-0.073
			c0.141-0.133,0.276-0.266,0.411-0.399c0.025-0.025,0.05-0.051,0.075-0.076c0.109-0.108,0.218-0.219,0.324-0.328
			c0.034-0.035,0.067-0.07,0.101-0.105c0.096-0.1,0.189-0.198,0.282-0.298c0.041-0.044,0.081-0.088,0.12-0.131
			c0.077-0.084,0.152-0.167,0.227-0.251c0.058-0.063,0.114-0.128,0.17-0.191c0.033-0.038,0.065-0.076,0.099-0.113
			c0.071-0.083,0.144-0.166,0.214-0.249c0.618-0.731,1.175-1.493,1.672-2.276c0.007-0.012,0.014-0.022,0.021-0.033
			c0.391-0.618,0.744-1.249,1.055-1.892c0.059-0.121,0.114-0.244,0.166-0.368c0.247-0.545,0.464-1.098,0.65-1.657
			c0.031-0.094,0.042-0.186,0.036-0.274c0.247-0.755,0.515-1.521,0.912-2.197c0.488-0.827,1.334-1.212,2.663-1.212
			c0.678,0,1.376,0.1,1.992,0.188l0.076,0.012c1.777,0.253,3.602,0.746,5.423,1.467c2.655,1.049,4.838,2.672,7.148,4.391
			c0.604,0.45,1.229,0.914,1.855,1.362c1.556,1.111,2.929,1.861,4.321,2.359c1.016,0.364,2.093,0.54,3.293,0.54
			c0.559,0,1.154-0.04,1.772-0.119c0.609-0.078,1.223-0.186,1.816-0.29c1.132-0.199,2.302-0.404,3.475-0.406
			c1.317,0,2.371,0.537,3.486,1.106c0.363,0.185,0.738,0.376,1.128,0.551c0.667,0.3,1.271,0.451,1.797,0.451
			c0.784,0,1.408-0.33,1.854-0.979c0.301-0.438,0.026-1.269-0.255-2.013c-0.023-0.062-0.044-0.117-0.062-0.165
			c-0.249-0.688-0.628-1.385-1.127-2.069c-1.688-2.317-4.417-3.972-8.113-4.919c-1.449-0.372-2.946-0.623-4.395-0.866
			c-2.425-0.407-4.933-0.828-7.241-1.823c-3.423-1.477-5.904-4.01-7.88-6.294c-0.193-0.224-0.386-0.448-0.579-0.674
			c-0.808-0.94-1.627-1.895-2.509-2.786c0.752-0.11,1.541-0.165,2.394-0.165c1.893,0,3.821,0.272,5.686,0.536
			c0.331,0.047,0.661,0.093,0.991,0.138c1.311,0.18,2.707,0.355,4.107,0.355c0.209,0,0.417-0.005,0.618-0.012
			c1.54-0.061,2.973-0.409,4.379-1.067c0.331-0.067,0.599-0.246,0.857-0.418c0.041-0.028,0.084-0.056,0.126-0.084
			c0.323-0.21,0.659-0.446,1.088-0.766c0.537-0.399,1.067-0.824,1.579-1.235c0.198-0.157,0.396-0.315,0.594-0.473
			c0.569-0.451,1.333-1.029,2.199-1.498c0.732-0.396,1.508-0.594,2.438-0.618c0.109-0.003,0.224-0.004,0.342-0.004
			c0.14,0,0.283,0.001,0.431,0.002c0.156,0.002,0.316,0.004,0.478,0.004c1.596,0,3.159-0.193,3.788-1.593
			c0.216-0.479,0.202-0.876-0.044-1.284c-0.231-0.386-0.558-0.713-0.876-1.009c-0.318-0.297-0.663-0.547-0.958-0.753l-0.089-0.063
			c-0.273-0.192-0.557-0.393-0.906-0.47c-0.041-0.023-0.081-0.047-0.122-0.071c-0.108-0.063-0.22-0.13-0.347-0.183
			c-0.112-0.048-0.225-0.089-0.351-0.128c0,0-0.118-0.032-0.123-0.033c-0.329-0.238-0.774-0.327-1.169-0.405
			c-0.084-0.017-0.165-0.032-0.24-0.05c-0.87-0.194-1.81-0.292-2.793-0.292c-0.102,0-0.203,0.001-0.305,0.003
			c-2.244,0.045-4.399,0.642-6.026,1.155c-0.868,0.275-1.738,0.586-2.581,0.887c-1.067,0.382-2.173,0.776-3.277,1.099
			c-1.101,0.319-2.106,0.549-3.074,0.7c-0.832,0.13-1.67,0.146-2.308,0.146c-0.259,0-0.519-0.004-0.778-0.007
			c-1.053-0.016-2.08-0.154-3.032-0.303c-0.915-0.142-1.835-0.451-2.724-0.751l-0.214-0.071c-0.893-0.3-1.791-0.637-2.659-0.963
			c-0.983-0.369-2.002-0.752-3.021-1.083c-1.785-0.579-3.375-0.861-4.86-0.861c-0.369,0-0.737,0.018-1.095,0.053
			c-1.833,0.181-3.588,0.881-5.073,2.025c-1.433,1.103-2.657,2.63-3.642,4.538c-0.412,0.798-0.787,1.681-1.146,2.697
			c-0.152,0.432-0.302,0.898-0.456,1.427c-0.034,0.117-0.068,0.229-0.107,0.335c-0.052-0.125-0.102-0.248-0.148-0.367
			c-0.138-0.354-0.258-0.719-0.373-1.08c-0.011-0.036-0.022-0.072-0.033-0.108c-0.014-0.042-0.027-0.083-0.041-0.125
			c-0.001-0.004-0.002-0.007-0.003-0.011c-0.127-0.401-0.259-0.816-0.41-1.22c-0.33-0.876-0.741-1.757-1.225-2.618
			c-0.035-0.063-0.073-0.123-0.109-0.186c-0.02-0.035-0.039-0.071-0.06-0.107c-0.028-0.049-0.059-0.097-0.088-0.146
			c-0.049-0.083-0.099-0.165-0.149-0.247c-0.104-0.169-0.21-0.336-0.318-0.502c-0.001-0.002-0.002-0.004-0.004-0.006
			c-3.181-4.835-8.558-8.351-14.592-9.489c-1.478-0.278-3.01-0.42-4.555-0.42c-0.399,0-0.802,0.011-1.205,0.03
			c-0.047,0.002-0.095,0.004-0.143,0.007c-0.08,0.004-0.16,0.008-0.24,0.013c-2.299,0.139-4.65,0.588-6.979,1.329
			c2.452-3.909,7.056-6.564,14.006-8.092c3.309-0.727,6.751-1.047,10.08-1.355c4.522-0.421,9.199-0.855,13.623-2.314
			c1.795-0.592,3.638-1.396,5.637-2.458c1.985-1.055,3.545-2.012,4.907-3.013c1.674-1.229,2.887-2.5,3.707-3.886
			c1.026-1.734,1.292-3.708,1.551-5.616c0.153-1.139,0.319-2.249,0.656-3.322c0.066-0.211,0.032-0.423-0.095-0.596
			c-0.138-0.188-0.375-0.306-0.618-0.306c-0.049,0-0.098,0.005-0.145,0.015c-3.952,0.765-7.046,3.687-9.028,5.817
			c-0.696,0.747-1.377,1.536-2.037,2.299c-1.75,2.023-3.561,4.116-5.805,5.652c-2.541,1.737-5.667,2.702-10.137,3.125
			c-1.547,0.147-3.126,0.229-4.653,0.307c-2.139,0.11-4.35,0.225-6.516,0.519c-6.569,0.894-12.87,4.053-17.743,8.896
			c-2.555,2.539-4.606,5.442-6.104,8.633c-4.645,3.212-8.734,7.751-12.188,13.521c-0.008,0.013-0.016,0.024-0.023,0.038
			c-0.289,0.483-0.574,0.975-0.854,1.475c-0.117,0.208-0.23,0.419-0.344,0.63c-0.048,0.087-0.096,0.174-0.143,0.261
			c-0.606,1.134-1.166,2.33-1.707,3.488c-0.001,0.002-0.002,0.005-0.003,0.007c-0.844,1.781-1.719,3.615-2.774,5.308
			c-0.046,0.073-0.094,0.146-0.142,0.218c-0.277,0.13-0.474,0.425-0.494,0.724c-1.586,2.177-3.703,3.89-6.309,5.111
			c-1.608,0.737-3.468,1.342-5.626,1.837c-2.136,0.489-4.354,0.818-6.443,1.114c-0.003,0-0.006,0.001-0.009,0.001h0
			c-0.015,0.002-0.028,0.005-0.043,0.009c-0.009-0.179-0.021-0.356-0.032-0.532c-0.009-0.139-0.018-0.276-0.025-0.414l-1.143-20.224
			c1.3-0.66,2.513-1.511,3.666-2.353c1.663-1.215,3.356-2.603,5.29-4.338c0.078,0.03,0.161,0.048,0.246,0.048
			c0.116,0,0.231-0.03,0.341-0.088c6.471-3.443,12.259-8.318,16.738-14.1c0.158-0.204,0.216-0.428,0.172-0.636
			c1.439-1.091,2.79-2.278,4.022-3.538c1.237-1.265,2.617-2.773,3.333-4.677c0.669-1.781,0.525-4.075-1.372-4.904
			c-1.249-0.545-2.37-0.822-3.332-0.822c-0.911,0-1.703,0.246-2.353,0.73c-0.739,0.551-1.252,1.295-1.757,2.073
			c-0.407,0.631-0.813,1.263-1.218,1.896l-0.236,0.368c-0.237-0.213-0.428-0.519-0.613-0.816c-0.063-0.103-0.126-0.202-0.188-0.296
			c-0.429-0.642-1-1.314-1.978-1.431c-0.022-0.003-0.044-0.004-0.065-0.004c-0.323,0-0.56,0.267-0.643,0.514
			c-0.729,2.175-0.49,4.599,0.627,6.592c-0.066,0.036-0.125,0.084-0.171,0.142c-1.144,1.426-2.83,2.288-4.462,3.122
			c-0.576,0.295-1.172,0.6-1.73,0.923c-2.51,1.452-4.882,3.197-7.175,4.885l-0.094,0.068c-0.119,0.088-0.207,0.195-0.263,0.313
			c-2.761-0.136-5.516-0.407-8.194-0.811c-1.361-0.205-2.778-0.458-4.211-0.751c-0.641-0.132-1.304-0.276-2.027-0.443
			c-0.337-0.078-0.673-0.158-1.009-0.241l-0.04-0.01c-0.139-0.033-0.279-0.067-0.417-0.104c-0.014-0.004-0.032-0.012-0.052-0.021
			c-0.081-0.205-0.256-0.374-0.466-0.445c-0.499-0.17-1.024-0.256-1.562-0.256c-1.859,0-3.625,1.022-4.791,1.792
			c-0.745,0.49-1.475,1.025-2.182,1.543c-0.271,0.198-0.542,0.397-0.814,0.594l-2.092,1.509c-0.004-0.051-0.015-0.101-0.029-0.149
			c0.06-0.166,0.107-0.336,0.135-0.507c0.313-0.161,0.571-0.449,0.708-0.814c0.054-0.145,0.09-0.288,0.126-0.429
			c0.049-0.195,0.096-0.379,0.185-0.543c0.1-0.186,0.228-0.357,0.363-0.539c0.055-0.073,0.108-0.146,0.161-0.219
			c0.458-0.644,0.61-1.285,0.455-1.909c-0.072-0.289-0.226-0.558-0.432-0.781c1.745-0.439,3.534-0.722,5.325-0.832
			c0.548-0.033,1.114-0.05,1.729-0.05h0.09c0.327,0,0.629-0.236,0.689-0.538c0.319-1.613-1.201-2.535-2.599-2.833
			c-0.92-0.196-1.918-0.213-2.721-0.225c-0.098-0.002-0.195-0.003-0.292-0.003c-0.691,0-1.409,0.041-2.141,0.117
			c-0.002-0.019-0.002-0.038-0.004-0.058c-0.118-1.269-0.389-3.117-1.369-4.512c-0.484-0.688-1.135-1.188-1.935-1.48
			c-0.538-0.197-1.16-0.285-2.015-0.285c-0.304,0-0.603,0.011-0.893,0.021l-0.115,0.004c-1.924,0.066-3.852,0.431-5.732,1.081
			c-0.736,0.256-1.5,0.576-2.271,0.954c-0.319,0.156-0.656,0.335-1.03,0.549c-0.18,0.102-0.355,0.207-0.502,0.298
			c-0.042,0.025-0.094,0.065-0.16,0.117c-0.01,0.008-0.021,0.016-0.032,0.024c-0.051-0.013-0.104-0.02-0.157-0.02
			c-0.292,0-0.542,0.186-0.692,0.401c-0.003,0-0.006,0-0.009,0c-0.228,0-0.453,0.104-0.601,0.279
			c-0.139,0.165-0.195,0.377-0.157,0.597c0.245,1.423,0.433,2.875,0.564,4.335c-0.017,0.008-0.035,0.014-0.051,0.022
			c-4.057,1.986-6.385,4.459-6.922,7.349c-0.195,1.051,0.05,2.015,0.708,2.789c0.634,0.745,1.585,1.116,2.271,1.296
			c0.497,0.13,1.023,0.196,1.565,0.196c1.3,0,2.688-0.367,4.125-1.092c0.227-0.113,0.449-0.236,0.668-0.364l0.011,0.148
			c0.004,0.063,0.007,0.131,0.01,0.2c0.014,0.353,0.032,0.79,0.333,1.092c0.262,0.262,0.563,0.268,0.828,0.273
			c0.102,0.002,0.198,0.004,0.29,0.02c0.276,0.047,0.523,0.204,0.681,0.431c0.193,0.279,0.296,0.618,0.405,0.979
			c0.082,0.268,0.166,0.544,0.292,0.8c0.134,0.274,0.32,0.508,0.548,0.695c-1.073,0.78-1.876,1.768-2.314,2.868
			c-0.094,0.236-0.166,0.478-0.22,0.723c-0.083,0.054-0.156,0.124-0.215,0.213c-1.735,2.628-2.092,6.051-1.091,10.465
			c0.406,1.791,0.978,3.494,1.628,5.376c0.674,1.949,1.403,4.022,2.258,6.051c0.802,1.903,1.726,3.758,2.747,5.513
			c1.08,1.856,2.304,3.571,3.359,5.005c0.97,1.315,2.176,2.954,2.092,4.772c-0.013,0.272-0.085,0.536-0.162,0.815
			c-0.038,0.136-0.076,0.276-0.107,0.42c-0.077,0.348-0.068,0.692,0.024,1.027c-0.13,0.103-0.224,0.24-0.305,0.36
			c-0.02,0.029-0.04,0.059-0.06,0.087c-0.263,0.369-0.484,0.789-0.697,1.32c-0.371,0.925-0.42,1.926-0.138,2.815
			c0.212,0.673,0.606,1.214,1.095,1.634c-2.042,0.713-4.145,1.381-6.182,2.026c-6.468,2.052-13.156,4.173-18.917,8.067
			c-1.069,0.723-2.086,1.501-3.034,2.318c-0.377-0.649-0.843-1.244-1.303-1.798c-1.212-1.461-2.566-2.948-4.252-3.939
			c-1.097-0.645-2.346-0.999-3.519-0.999c-0.752,0-1.461,0.142-2.107,0.422l-0.102,0.044c-0.186,0.081-0.312,0.24-0.355,0.449
			c-0.049,0.24,0.022,0.505,0.184,0.676c2.542,2.697,5.579,5.919,6.586,9.792c-0.455,0.319-0.905,0.56-1.365,0.727
			c-0.781,0.283-1.613,0.322-2.396,0.322c-0.214,0-0.428-0.003-0.641-0.007l-0.21-0.003c-0.925-0.013-1.883-0.024-2.831-0.024
			h-0.146c-2.418,0.003-4.265,0.107-5.987,0.338c-0.553,0.074-1.087,0.162-1.604,0.266c-0.033-0.013-0.067-0.025-0.104-0.034
			c-0.698-0.164-1.168-0.776-1.627-1.444c-0.502-0.729-0.921-1.525-1.245-2.366c-0.25-0.649-0.587-1.624-0.619-2.584
			c-0.028-0.862,0.49-1.423,1.12-2.014c0.215-0.202,0.284-0.474,0.184-0.726c-0.109-0.276-0.398-0.47-0.702-0.47
			c-0.167,0-0.329,0.059-0.466,0.168c-1.963,1.567-3.3,3.904-3.668,6.411c-0.259,1.759-0.027,3.896,1.21,5.301
			c-1.07,0.681-2.068,1.521-2.981,2.511c-0.949,1.027-1.786,2.17-2.595,3.274c-0.418,0.571-0.851,1.162-1.292,1.728
			c-1.271,1.628-2.743,3.113-4.375,4.412c-1.462,1.164-3.19,2.217-5.283,3.219c-1.642,0.785-3.685,1.764-4.681,3.643
			C59.314,211.299,59.166,213.516,60.719,214.836z M128.488,266.458c-1.327,0.804-2.915,1.099-4.451,1.383l-0.339,0.063
			c-2.209,0.414-4.367,0.784-6.483,0.784c-1.281,0-2.435-0.133-3.519-0.407c0.186-1.181,0.904-2.333,2.137-3.427
			c1.087-0.965,2.409-1.654,3.688-2.319c0.083-0.043,0.165-0.087,0.247-0.13c0.062,0.022,0.128,0.036,0.198,0.036
			c0.023,0,0.045-0.002,0.069-0.004c0.286-0.035,0.584-0.054,0.887-0.054c1.547,0,3.074,0.448,4.632,0.947
			c1.517,0.485,3.033,1.1,4.515,1.827C129.598,265.653,129.078,266.101,128.488,266.458z M135.566,266.659
			c-0.716,0.148-1.462,0.224-2.215,0.224c-0.895,0-1.791-0.105-2.676-0.311c1.13-1.047,1.998-2.359,2.838-3.633
			c0.082-0.123,0.163-0.244,0.244-0.366c0.136-0.006,0.272-0.009,0.407-0.009c1.949,0,3.879,0.601,5.496,1.698
			C138.793,265.481,137.454,266.267,135.566,266.659z M150.847,236.834l-0.185,0.331c-0.978,1.741-1.93,3.575-2.831,5.453
			c-1.756,3.655-3.306,7.489-4.606,11.393c-0.544,1.632-1.08,3.423-1.688,5.639c-0.335,1.222-0.667,2.347-1.162,3.379
			c-1.665-1.129-3.642-1.784-5.668-1.877c0.904-1.361,1.834-2.799,2.722-4.29c0.925-1.554,1.786-3.117,2.793-4.987
			c0.235-0.437,0.469-0.873,0.704-1.31c1.534-2.859,3.12-5.816,4.914-8.582c1.905-2.937,4.141-5.607,6.646-7.938
			c0.071-0.065,0.143-0.131,0.214-0.196C151.993,234.785,151.414,235.82,150.847,236.834z M192.743,203.142
			c-0.012,0.085-0.023,0.17-0.036,0.257c-0.104,0.751-0.21,1.528-0.629,2.143c-0.152,0.222-0.43,0.389-0.761,0.458
			c-0.026,0.006-0.053,0.008-0.079,0.008c-0.265,0-0.495-0.266-0.581-0.38c-0.325-0.428-0.568-0.931-0.768-1.435
			c-0.014-0.05-0.032-0.1-0.056-0.146c-0.09-0.237-0.172-0.474-0.247-0.699c-0.232-0.696-0.419-1.423-0.599-2.126
			c-0.047-0.183-0.094-0.365-0.142-0.547c-0.41-1.571-0.934-3.218-1.979-4.615c-0.942-1.262-2.108-2.065-3.401-2.354
			c1.422-3.067,2.535-6.263,3.319-9.521c0.092,0.05,0.198,0.08,0.317,0.08c0.058,0,0.115-0.008,0.174-0.021
			c0.805-0.187,1.808-0.419,2.745-0.419c1.01,0,1.794,0.267,2.399,0.814c0.62,0.563,0.776,1.437,0.854,2.296
			c0.09,1.008,0.135,2.009,0.175,3.201C193.597,194.471,193.358,198.847,192.743,203.142z M287.998,145.264
			c0.384,0.578,0.68,1.238,0.878,1.962c0.011,0.037,0.021,0.072,0.031,0.107c0.099,0.344,0.102,0.413-0.076,0.518
			c-0.07,0.041-0.165,0.063-0.279,0.063c-0.207,0-0.44-0.065-0.629-0.118l-0.024-0.007c-0.698-0.195-1.349-0.545-1.978-0.884
			c-0.765-0.411-1.556-0.837-2.465-1.013c-0.076-0.015-0.152-0.025-0.229-0.038c-0.005-0.02-0.011-0.039-0.018-0.059
			c-0.729-1.996-1.839-3.828-3.244-5.378C283.742,141.296,286.445,142.926,287.998,145.264z M281.252,116.53
			c0.34-0.026,0.683-0.04,1.019-0.04c0.788,0,1.563,0.075,2.304,0.224c0.248,0.05,0.515,0.115,0.84,0.207
			c0.079,0.022,0.157,0.046,0.234,0.07c0.079,0.07,0.17,0.121,0.271,0.151c0.1,0.04,0.196,0.069,0.289,0.098
			c0.128,0.039,0.248,0.075,0.359,0.136l0.042,0.022c0.159,0.088,0.297,0.164,0.481,0.204c0.446,0.235,0.924,0.597,1.42,1.074
			c0.131,0.127,0.251,0.262,0.35,0.376c0.039,0.046,0.077,0.092,0.113,0.139c0.003,0.008,0.006,0.017,0.009,0.025
			c0.002,0.004,0.003,0.008,0.005,0.013c-0.077,0.179-0.245,0.332-0.394,0.425c-0.27,0.169-0.694,0.22-1.046,0.263
			c-0.384,0.046-0.771,0.052-1.202,0.055h-0.171l-0.503-0.001c-0.087,0-0.173,0.001-0.261,0.001
			c-0.112-0.087-0.256-0.146-0.421-0.167c-0.55-0.069-1.08-0.326-1.592-0.575l-0.122-0.059c-0.588-0.284-1.185-0.597-1.826-0.957
			c-0.748-0.421-1.498-0.887-2.242-1.389C279.879,116.689,280.563,116.585,281.252,116.53z M237.44,125.868
			c0.028-0.095,0.057-0.191,0.087-0.288c0.252-0.811,0.535-1.576,0.841-2.275c0.699-1.597,1.556-2.946,2.548-4.01
			c1.147-1.23,2.563-2.109,4.096-2.544c0.735-0.209,1.536-0.314,2.377-0.314c1.027,0,2.146,0.158,3.324,0.468
			c1.417,0.373,2.816,0.906,4.171,1.421c0.493,0.188,1.004,0.382,1.508,0.565c1.078,0.393,2.031,0.701,2.911,0.945
			c1.064,0.294,2.13,0.446,3.121,0.567c0.524,0.064,1.09,0.094,1.778,0.094c0.453,0,0.897-0.013,1.315-0.025
			c0.956-0.03,1.972-0.17,3.195-0.439c1.736-0.382,3.426-0.983,5.061-1.564c0.306-0.108,0.611-0.218,0.918-0.325
			c0.841-0.295,1.743-0.601,2.686-0.869c1.139,0.834,2.341,1.605,3.574,2.293l0.271,0.151c0.46,0.258,0.944,0.529,1.448,0.771
			c-1.036,0.45-1.988,1.159-2.946,1.912c-0.237,0.188-0.475,0.376-0.71,0.565c-0.378,0.303-0.768,0.615-1.158,0.913l-0.193,0.147
			c-0.512,0.393-1.04,0.799-1.597,1.087c-0.218,0.046-0.406,0.137-0.589,0.225c-0.057,0.028-0.114,0.056-0.174,0.083
			c-0.374,0.169-0.776,0.29-1.084,0.377c-0.663,0.186-1.402,0.296-2.261,0.337c-0.218,0.01-0.442,0.015-0.671,0.015
			c-1.421,0-2.905-0.206-4.097-0.371l-0.577-0.081c-1.987-0.278-4.042-0.566-6.074-0.566c-1.233,0-2.351,0.104-3.417,0.316
			c-0.075,0.016-0.143,0.042-0.204,0.076c-0.693-0.597-1.431-1.143-2.235-1.604c-1.459-0.838-3.069-1.263-4.786-1.263
			c-1.549,0-3.135,0.344-4.713,1.021c-1.483,0.636-2.961,1.601-4.521,2.949c-0.177,0.153-0.357,0.328-0.549,0.514
			c-0.631,0.61-1.346,1.303-2.07,1.303c-0.301,0-0.587-0.116-0.876-0.356c-0.166-0.139-0.316-0.297-0.455-0.468
			c-0.014-0.017-0.026-0.034-0.039-0.052C237.081,127.062,237.257,126.479,237.44,125.868z M210.954,102.11
			c2.909-1.539,6.065-2.569,9.382-3.062c2.221-0.33,4.505-0.441,6.714-0.55c1.438-0.069,2.927-0.143,4.386-0.274
			c2.813-0.255,6.962-0.847,10.473-3.032c2.632-1.638,4.682-4.006,6.663-6.297c0.465-0.537,0.946-1.094,1.426-1.629
			c1.901-2.124,4.479-4.665,7.697-5.69c-0.172,0.801-0.283,1.617-0.392,2.409c-0.102,0.737-0.205,1.499-0.356,2.235
			c-0.368,1.8-1.166,3.313-2.437,4.624c-1.157,1.193-2.528,2.124-4.23,3.153c-1.886,1.142-3.648,2.062-5.389,2.813
			c-5.022,2.169-10.521,2.682-15.837,3.179c-2.706,0.253-5.504,0.514-8.211,0.989c-8.088,1.423-13.495,4.24-16.53,8.614
			c-0.416,0.6-0.791,1.259-1.119,1.963c-0.765,0.301-1.526,0.633-2.278,0.996c-0.681,0.329-1.354,0.686-2.018,1.067
			C201.693,108.816,205.894,104.787,210.954,102.11z M182.347,135.484c0.015-0.03,0.029-0.062,0.044-0.092
			c0.4-0.853,0.813-1.732,1.247-2.584c0.984-1.938,2.082-3.821,3.265-5.601c0.131-0.198,0.264-0.393,0.397-0.587
			c0.046-0.066,0.091-0.133,0.137-0.198c0.094-0.136,0.188-0.27,0.283-0.403c0.057-0.08,0.113-0.16,0.17-0.239
			c0.138-0.192,0.277-0.384,0.418-0.572c0.044-0.059,0.088-0.116,0.131-0.175c0.126-0.168,0.253-0.335,0.381-0.501
			c0.017-0.021,0.033-0.043,0.05-0.064c0.986-1.274,2.024-2.472,3.11-3.59c0.092-0.095,0.183-0.188,0.275-0.28
			c0.055-0.055,0.109-0.11,0.165-0.166c1.491-1.481,3.068-2.807,4.715-3.966c0.194-0.038,0.354-0.147,0.445-0.307
			c1.975-1.343,4.048-2.446,6.194-3.297c0.146-0.014,0.279-0.065,0.383-0.149c0.143-0.054,0.284-0.107,0.427-0.159
			c0.051-0.019,0.102-0.036,0.153-0.055c0.096-0.034,0.192-0.067,0.289-0.101c1.492-0.511,3.006-0.897,4.518-1.152
			c1.356-0.222,2.719-0.334,4.074-0.334c4.571,0,8.909,1.281,12.546,3.703c0.087,0.059,0.173,0.119,0.259,0.179
			c1.1,0.769,2.131,1.641,3.075,2.608c0.033,0.034,0.064,0.067,0.097,0.102c0.086,0.088,0.169,0.179,0.253,0.269
			c0.761,0.831,1.449,1.723,2.054,2.665c0.016,0.025,0.031,0.05,0.047,0.075c0.078,0.123,0.154,0.247,0.23,0.371
			c0.072,0.121,0.144,0.243,0.214,0.366c0.024,0.042,0.049,0.084,0.072,0.127c0.1,0.177,0.195,0.355,0.288,0.536
			c0.402,0.8,0.708,1.621,1.003,2.474c0.036,0.105,0.071,0.21,0.107,0.314c0.09,0.266,0.182,0.535,0.277,0.805
			c0.024,0.072,0.049,0.145,0.074,0.217c0.425,1.221,1.004,2.59,2.085,3.489c0.391,0.324,0.837,0.531,1.312,0.613
			c0.161,0.031,0.328,0.049,0.504,0.049c0.225,0,0.457-0.029,0.689-0.085c0.069-0.018,0.132-0.045,0.189-0.078
			c0.34-0.114,0.667-0.289,0.971-0.525c0.394-0.306,0.757-0.653,1.109-0.988c0.239-0.229,0.487-0.466,0.739-0.684
			c0.689-0.597,1.477-1.167,2.342-1.696c1.851-1.133,3.821-1.731,5.696-1.731c1.402,0,2.738,0.331,3.97,0.984
			c2.291,1.216,4.038,3.276,5.728,5.269c0.272,0.321,0.544,0.642,0.815,0.955c2.678,3.096,5.116,5.047,7.906,6.328
			c2.535,1.163,5.29,1.632,7.954,2.085c0.441,0.074,0.891,0.151,1.339,0.231c0.036,0.109,0.103,0.212,0.199,0.298
			c1.718,1.524,3.061,3.422,3.906,5.511c-1.132,0.018-2.266,0.215-3.364,0.409c-1.136,0.199-2.31,0.406-3.462,0.406
			c-0.648,0-1.24-0.063-1.808-0.195c-2.576-0.596-4.762-2.295-6.875-3.938c-0.527-0.41-1.071-0.833-1.606-1.226
			c-3.077-2.26-6.483-3.776-10.125-4.51c-1.096-0.22-2.263-0.436-3.413-0.436c-0.68,0-1.279,0.074-1.836,0.226
			c-1.722,0.47-2.459,2.063-2.909,3.398c-0.607,1.806-1.154,3.199-2,4.569c-0.808,1.308-1.863,2.6-3.227,3.949
			c-0.368,0.365-0.748,0.719-1.137,1.063c-0.064,0.056-0.129,0.111-0.193,0.167c-0.001,0.001-0.001,0.002-0.002,0.002
			c-2.752,2.36-5.963,4.294-8.975,6.106l-0.039,0.023c-2.002,1.206-3.968,2.416-5.845,3.756c-0.757,0.534-1.499,1.089-2.214,1.672
			c-5.872,4.785-10.022,11.17-14.035,17.344c-0.104,0.16-0.208,0.32-0.312,0.479c-0.162-0.735-0.365-1.461-0.592-2.18
			c-0.917-2.91-2.322-5.653-3.898-8.257c-3.296-5.443-7.256-10.549-11.354-15.406c-2.047-2.427-4.177-4.783-6.376-7.073
			c-1.945-2.025-3.942-4.084-6.351-5.559C180.734,138.924,181.551,137.186,182.347,135.484z M159.368,150.375
			c0.005-0.046,0.008-0.092,0.013-0.139c0.074,0.022,0.154,0.034,0.239,0.034c0.045,0,0.092-0.003,0.139-0.01
			c2.957-0.418,6.479-0.917,9.848-2.062c0.022-0.008,0.044-0.016,0.066-0.023c0.13-0.044,0.26-0.09,0.389-0.137
			c0.574-0.203,1.142-0.423,1.702-0.666c1.93-0.839,3.639-1.939,5.08-3.271c0.527-0.488,1.031-1.031,1.52-1.642
			c0.162-0.2,0.317-0.404,0.47-0.61c2.441,1.481,4.428,3.597,6.392,5.646c2.24,2.34,4.399,4.758,6.482,7.238
			c4.069,4.851,7.991,9.965,11.203,15.431c1.884,3.207,3.404,6.643,4.064,10.312c-0.254,0.252-0.362,0.614-0.267,0.961
			c-2.363,3.575-4.859,7.138-7.758,10.286c-1.318,1.433-2.694,2.732-4.099,3.881c0.071-1.783,0.081-3.569,0.028-5.35
			c-0.034-1.106-0.091-2.196-0.172-3.24c-0.073-0.959-0.221-1.963-0.793-2.81c-0.78-1.155-2.197-1.792-3.989-1.792
			c-0.37,0-0.752,0.027-1.133,0.081c-0.631,0.088-1.247,0.227-1.876,0.372c-0.164,0.038-0.297,0.125-0.388,0.241
			c-0.098-0.057-0.211-0.096-0.332-0.11c-4.166-0.53-8.378-1.35-12.522-2.436c-2.011-0.527-4.07-1.141-6.119-1.823l-0.044-0.015
			c-0.753-0.251-1.533-0.51-1.916-1.181c-0.311-0.543-0.305-1.316-0.3-1.998c0.001-0.202,0.003-0.393-0.003-0.577
			c-0.232-7.295-0.926-14.985-4.401-21.798c-0.456-0.893-0.974-1.776-1.543-2.636C159.354,150.481,159.362,150.429,159.368,150.375z
			 M158.365,152.77c0.151-0.144,0.284-0.304,0.4-0.481c3.734,6.265,4.623,13.678,4.965,19.561c0.049,0.846,0.091,1.761,0.127,2.798
			c0.007,0.211,0.01,0.424,0.014,0.638c0.012,0.723,0.024,1.471,0.19,2.191c0.433,1.872,2.391,2.456,3.965,2.924
			c0.203,0.062,0.402,0.121,0.592,0.181c4.021,1.275,8.208,2.307,12.446,3.065c1.348,0.242,2.768,0.464,4.227,0.66
			c-0.834,3.323-2.009,6.553-3.495,9.605l-19.37-2.366c-0.327-0.04-0.654-0.079-0.981-0.117c-1.589-0.186-3.232-0.379-4.804-0.762
			c-1.969-0.48-3.526-1.307-4.759-2.523c-1.143-1.128-2.157-2.603-3.098-4.506c-1.695-3.428-2.396-7.226-2.858-10.489
			c-0.285-2.012-0.499-4.069-0.705-6.06c-0.06-0.575-0.12-1.151-0.181-1.727l-0.892-8.358c0.041,0.001,0.081,0.002,0.121,0.002l0,0
			c1.727,0,3.563-0.245,5.456-0.728c2.161-0.551,4.213-1.366,5.935-2.091c0.167-0.07,0.338-0.139,0.511-0.207
			C156.947,153.671,157.751,153.351,158.365,152.77z M179.393,96.553c0.177,0.192,0.331,0.443,0.462,0.657
			c0.05,0.082,0.097,0.159,0.143,0.228c0.414,0.633,0.929,1.328,1.789,1.561c0.062,0.017,0.124,0.025,0.187,0.025
			c0.244,0,0.474-0.129,0.612-0.345l1.763-2.744c0.446-0.695,0.908-1.414,1.59-1.859c0.359-0.234,0.778-0.349,1.282-0.349
			c0.361,0,0.755,0.057,1.238,0.179c0.435,0.11,0.855,0.254,1.32,0.417c0.331,0.116,0.699,0.282,0.919,0.635
			c0.319,0.511,0.342,1.273,0.067,2.268c-0.2,0.727-0.581,1.45-1.234,2.347c-1.184,1.624-2.724,3.035-4.073,4.202
			c-0.544,0.469-1.123,0.934-1.727,1.387c-1.035-1.016-2.169-1.931-3.388-2.73c0.024-0.03,0.047-0.063,0.066-0.098
			c0.114-0.212,0.099-0.457-0.042-0.673C179.383,100.153,179.035,98.311,179.393,96.553z M148.52,110.331
			c0.2,0.075,0.408,0.127,0.601,0.175l0.046,0.011c0.724,0.179,1.471,0.351,2.286,0.527c1.479,0.319,3.03,0.607,4.612,0.856
			c3.023,0.475,6.12,0.787,9.206,0.926c0.012,0.001,0.037,0.001,0.037,0.001c0.364,0,0.586-0.245,0.648-0.524
			c0.013-0.008,0.026-0.015,0.038-0.023c2.298-1.689,4.674-3.438,7.23-4.928c0.57-0.333,1.182-0.647,1.773-0.952
			c1.55-0.798,3.15-1.623,4.36-2.913c1.32,0.844,2.548,1.84,3.653,2.964c-4.226,5.306-9.58,9.805-15.521,13.047
			c-0.116-0.071-0.249-0.114-0.385-0.114c-0.174,0-0.339,0.065-0.476,0.19c-2.022,1.837-3.752,3.273-5.444,4.521
			c-1.176,0.867-2.342,1.695-3.564,2.32c-0.068-0.019-0.14-0.028-0.209-0.028c-0.201,0-0.388,0.076-0.514,0.209
			c-0.06,0.063-0.104,0.137-0.133,0.219c-0.319,0.133-0.643,0.252-0.972,0.352c-0.037,0.011-0.07,0.024-0.102,0.039
			c-0.596,0.237-1.23,0.359-1.89,0.359c-0.918,0-1.868-0.238-2.747-0.688c-1.371-0.704-2.532-1.992-3.357-3.724
			c-1.438-3.02-1.534-6.955-0.255-10.528C147.718,111.853,148.08,111.085,148.52,110.331z M137.555,109.797
			c0,0-0.122,0.17-0.158,0.219c-0.214,0.298-0.437,0.604-0.575,0.974c-0.064,0.171-0.105,0.343-0.145,0.51
			c-0.013,0.053-0.025,0.104-0.039,0.16c-0.096-0.048-0.2-0.073-0.307-0.073c-0.131,0-0.259,0.04-0.371,0.105l0-0.002
			c0.016-0.038,0.031-0.073,0.043-0.107c0.123-0.316,0.24-0.698,0.175-1.122c-0.104-0.67-0.659-1.194-1.344-1.304
			c0.689-0.285,1.392-0.543,2.106-0.774c0.102,0.139,0.242,0.228,0.399,0.248c0.287,0.039,0.459,0.189,0.526,0.459
			C137.919,109.294,137.7,109.597,137.555,109.797z M136.023,116.73c0.002,0.971-0.168,1.938-0.317,2.672
			c-0.289,1.423-0.766,2.815-1.419,4.146c-0.859-1.139-1.822-2.184-2.873-3.116c0.542-0.346,1.096-0.811,1.657-1.397
			c0.457-0.479,0.874-0.999,1.276-1.502c0.495-0.618,1.004-1.251,1.587-1.805C136.007,116.071,136.023,116.421,136.023,116.73z
			 M123.155,101.645c0.245-0.139,0.487-0.281,0.728-0.423c0.565-0.334,1.15-0.679,1.758-0.963c1.669-0.779,3.548-1.313,5.436-1.542
			c0.7-0.085,1.422-0.128,2.146-0.128c0.235,0,0.474,0.004,0.71,0.014c0.95,0.036,1.625,0.289,2.126,0.798
			c0.94,0.954,1.202,2.556,1.375,3.982c0.039,0.323,0.063,0.666-0.024,0.987c-0.071,0.261-0.322,0.34-0.696,0.432
			c-1.065,0.261-2.002,0.537-2.866,0.844c-1.84,0.653-3.651,1.538-5.381,2.63c-0.144,0.091-0.289,0.184-0.435,0.277
			c-1.292,0.828-2.628,1.684-4.135,1.684c-0.091,0-0.183-0.003-0.272-0.009c-0.144-0.011-0.2-0.086-0.224-0.489
			c-0.018-0.298-0.025-0.604-0.032-0.9c-0.005-0.231-0.01-0.472-0.021-0.707c-0.046-1.039-0.129-2.135-0.247-3.256
			c-0.105-1.007-0.244-2.05-0.414-3.103C122.85,101.771,123.008,101.729,123.155,101.645z M124.751,113.868
			c-1.86,1.35-3.458,2.028-5.031,2.138c-0.108,0.008-0.221,0.012-0.335,0.012c-1.177,0-3.185-0.437-3.247-2.07
			c-0.024-0.637,0.208-1.389,0.71-2.3c0.35-0.635,0.832-1.248,1.473-1.874c0.902-0.881,2.042-1.666,3.556-2.449
			c0.012,0.189,0.024,0.378,0.034,0.567c0.025,0.479,0.043,0.987,0.057,1.554l0,0.025c0.01,0.428,0.021,0.912,0.241,1.334
			c0.297,0.572,0.871,0.861,1.705,0.861c0.34,0,0.68-0.046,0.939-0.086c1.481-0.23,2.764-1.059,4.005-1.859
			c0.336-0.218,0.685-0.442,1.024-0.646c1.661-0.995,3.473-1.804,5.385-2.404c0.419-0.132,0.866-0.258,1.368-0.385
			c0.077-0.02,0.154-0.038,0.231-0.057c0.385-0.092,0.784-0.188,1.145-0.415c0.321-0.202,0.555-0.5,0.7-0.881
			c0.776-0.087,1.56-0.134,2.337-0.134c0.725,0,1.458,0.038,2.181,0.114c0.589,0.062,1.081,0.209,1.502,0.45
			c0.105,0.061,0.198,0.126,0.274,0.193c-3.545,0.101-7.025,0.82-10.352,2.142c-1.793,0.712-3.522,1.597-5.14,2.63
			c-1.043,0.666-2.028,1.436-2.98,2.18C125.954,112.961,125.355,113.43,124.751,113.868z M127.438,117.332
			c-0.403-0.582-1.059-0.95-1.851-1.038c-0.008-0.001-0.016-0.001-0.024-0.002v-0.006c0-0.064,0-0.125-0.004-0.179l-0.074-1.01
			c0.6-0.432,1.178-0.891,1.747-1.343c0.372-0.296,0.757-0.602,1.139-0.893c1.189-0.905,2.474-1.728,3.829-2.455
			c0.065,0.654,0.429,1.279,1.019,1.662c0.12,0.077,0.245,0.117,0.374,0.117c0.294,0,0.565-0.219,0.658-0.53
			c0.042-0.144,0.04-0.285,0.002-0.414c0.134-0.115,0.227-0.285,0.235-0.509c0.003-0.1,0.054-0.16,0.134-0.16
			c0.046,0,0.093,0.021,0.134,0.061c0.103,0.098-0.057,0.462-0.143,0.657c-0.041,0.092-0.079,0.179-0.102,0.253
			c-0.145,0.46-0.092,0.936,0.157,1.412c0.061,0.116,0.144,0.225,0.224,0.33c0.137,0.18,0.266,0.349,0.262,0.514
			c-0.002,0.108,0.022,0.214,0.069,0.311c-0.037,0.062-0.074,0.122-0.114,0.186c-0.419,0.657-0.971,1.282-1.639,1.857
			c-0.157,0.136-0.238,0.311-0.237,0.494c-0.265,0.329-0.537,0.669-0.816,0.991c-0.734,0.85-1.864,1.991-3.191,2.098
			c-0.043,0.004-0.085,0.006-0.126,0.006c-0.451,0-0.765-0.207-0.935-0.616c-0.08-0.195-0.146-0.404-0.21-0.606
			C127.826,118.119,127.696,117.705,127.438,117.332z M126.29,125.02c0.1-1.734,1.644-3.119,3.083-3.855
			c0.199-0.013,0.401-0.044,0.604-0.094c1.471,1.23,2.747,2.642,3.791,4.196c0.142,0.211,0.375,0.337,0.625,0.337
			c0.25,0,0.473-0.131,0.598-0.35c1.047-1.827,1.775-3.797,2.164-5.854c0.251-1.327,0.462-2.775,0.15-4.045
			c0.451-0.326,0.901-0.654,1.352-0.982c1.303-0.952,2.651-1.937,4-2.865c1.275-0.878,2.785-1.775,4.313-1.775
			c0.083,0,0.166,0.003,0.248,0.009c-1.708,3.001-2.402,6.519-1.954,9.942c0.553,4.229,2.72,7.503,5.796,8.756
			c0.89,0.363,1.845,0.555,2.763,0.555c0.839,0,1.636-0.155,2.368-0.461c0.205-0.063,0.407-0.132,0.607-0.206l1.057,18.706
			c0.013,0.236,0.029,0.474,0.045,0.711c0.048,0.724,0.099,1.472,0.073,2.2c0,0.013-0.001,0.025-0.002,0.037
			c-0.072,0.061-0.133,0.131-0.176,0.213c-0.11,0.209-0.091,0.448,0.051,0.658c-0.121,0.439-0.329,0.777-0.631,1.038
			c-0.213,0.184-0.509,0.309-0.795,0.43c-0.055,0.023-0.108,0.046-0.161,0.069c-0.385,0.168-0.771,0.333-1.146,0.491
			c-0.817,0.344-1.578,0.646-2.324,0.926c-1.75,0.654-3.349,1.121-4.888,1.426c-1.232,0.244-2.452,0.368-3.628,0.368
			c-1.594,0-3.083-0.226-4.441-0.672l-0.493-2.1c-0.104-0.441-0.206-0.884-0.308-1.326c-0.047-0.204-0.094-0.409-0.142-0.614
			c0.012-0.008,0.022-0.018,0.034-0.025c-0.107-0.159-0.171-0.35-0.172-0.554c0-0.066-0.002-0.134-0.005-0.2
			c-0.002-0.012-0.004-0.022-0.007-0.034c-0.049-0.183-0.042-0.369,0.009-0.541c-0.013-0.004-0.026-0.009-0.04-0.012
			c0.199-2.618-1.2-4.848-2.554-7.006c-0.613-0.978-1.248-1.987-1.705-3.002c-0.218-0.483-0.397-0.997-0.571-1.494
			c-0.155-0.444-0.315-0.903-0.504-1.347c-0.306-0.718-0.721-1.439-1.306-2.271c-0.661-0.941-1.418-1.827-2.15-2.684
			c-0.386-0.452-0.786-0.92-1.165-1.388C127.412,128.67,126.183,126.878,126.29,125.02z M143.395,163.349
			c-0.472-0.41-1.093-0.667-1.753-0.721l-1.438-6.123c0.805,0.209,1.643,0.353,2.511,0.43c0.14,1.314,0.279,2.628,0.418,3.941
			C143.219,161.693,143.307,162.519,143.395,163.349z M134.551,155.641c-0.094-0.127-0.188-0.253-0.282-0.38
			c-0.572-0.774-1.148-1.612-1.713-2.491c-1.065-1.658-2.049-3.439-2.922-5.292c-0.951-2.016-1.728-4.117-2.362-5.906l-0.024-0.067
			c-0.632-1.783-1.287-3.626-1.805-5.474c-0.763-2.716-1.447-6.134-0.315-9.17c0.188,0.645,0.481,1.318,0.886,2.026
			c0.784,1.372,1.821,2.585,2.824,3.758c1.21,1.415,2.461,2.878,3.244,4.609c0.228,0.503,0.417,1.036,0.599,1.552
			c0.213,0.604,0.435,1.229,0.724,1.824c0.438,0.902,0.987,1.756,1.517,2.582c0.109,0.17,0.218,0.34,0.326,0.51
			c0.029,0.046,0.058,0.092,0.087,0.138c0.01,0.081,0.032,0.163,0.068,0.246c0.805,1.868,1.345,3.865,1.816,5.853
			c-0.008,0.042-0.015,0.084-0.024,0.125c-0.045,0.209-0.019,0.516,0.202,0.696c0.005,0.004,0.011,0.008,0.017,0.012
			c0.015,0.063,0.029,0.127,0.043,0.189c0.18,1.307,0.209,2.675,0.085,4.07c-0.022,0.251,0.144,0.539,0.371,0.643
			c0.232,0.106,0.468,0.206,0.708,0.3l1.608,6.842c-0.063,0.025-0.125,0.052-0.187,0.081c-0.291,0.141-0.428,0.419-0.358,0.725
			c0.01,0.043,0.023,0.085,0.04,0.125c-0.075-0.03-0.157-0.048-0.243-0.048c-0.067,0-0.136,0.011-0.206,0.03
			c-0.436,0.124-0.845,0.188-1.216,0.188c-0.2,0-0.392-0.019-0.571-0.055c-0.265-0.054-0.444-0.151-0.531-0.29
			c-0.086-0.138-0.096-0.34-0.03-0.599c0.28-1.091,0.319-1.929,0.131-2.801c-0.217-1.004-0.721-1.911-1.136-2.588
			C135.503,156.919,135.019,156.269,134.551,155.641z M136.338,165.123l0.178-0.013c0.038-0.002,0.074-0.008,0.109-0.016
			c0.294,0.125,0.577,0.182,0.751,0.207c0.224,0.034,0.458,0.051,0.693,0.051c0.513,0,1.047-0.078,1.587-0.232
			c0.35-0.1,0.55-0.411,0.499-0.774c-0.008-0.063-0.024-0.121-0.046-0.177c0.093,0.044,0.194,0.068,0.298,0.068
			c0.11,0,0.218-0.025,0.323-0.076c0.186-0.09,0.388-0.136,0.601-0.136c0.352,0,0.73,0.127,1.067,0.355
			c0.462,0.315,0.731,0.95,0.72,1.699c-0.027,1.826-2.237,2.984-2.914,3.297c-0.553,0.255-1.152,0.39-1.734,0.39
			c-0.896,0-1.682-0.31-2.27-0.896C135.156,167.829,135.577,166.269,136.338,165.123z M101.034,181.218
			c-1.05-1.458-2.238-2.774-3.384-4.001c0.176-0.023,0.356-0.036,0.539-0.036c1.099,0,2.334,0.439,3.478,1.236
			c0.777,0.542,1.451,1.225,2.063,1.883c0.593,0.636,1.277,1.396,1.857,2.204c1.168,1.624,1.502,3.575,1.745,5.435
			c0.199,1.529,0.285,3.454-0.833,4.789c-0.87,1.04-2.267,1.682-3.624,2.251c-1.441,0.604-2.993,1.041-4.612,1.295
			c-0.374,0.059-0.867,0.127-1.363,0.127c-0.908,0-1.567-0.228-2.016-0.694c-0.787-0.819-0.485-2.24-0.161-3.283
			c0.206-0.013,0.41-0.018,0.603-0.021c0.059-0.001,0.117-0.002,0.175-0.002c0.513,0,1.033,0.032,1.492,0.062
			c0.625,0.038,1.332,0.082,2.021,0.082c1.496,0,2.622-0.206,3.653-0.668c0.354-0.157,0.705-0.379,1.106-0.696
			c0.454-0.358,0.434-0.937,0.418-1.402c-0.002-0.067-0.004-0.135-0.005-0.199c-0.013-0.934-0.164-1.936-0.45-2.979
			C103.249,184.827,102.365,183.067,101.034,181.218z M81.541,185.732c0.14-0.82,0.397-1.612,0.769-2.364
			c0.12,0.631,0.331,1.263,0.55,1.863c0.37,1.017,0.874,1.992,1.499,2.899c0.265,0.385,0.565,0.781,0.92,1.122
			c-0.729,0.218-1.424,0.471-2.091,0.762c-0.196,0.085-0.391,0.177-0.583,0.272C81.432,189.229,81.28,187.261,81.541,185.732z
			 M68.246,205.931c1.769-1.068,3.442-2.374,4.975-3.882c1.503-1.479,2.765-3.19,3.984-4.846l0.037-0.05
			c1.183-1.604,2.48-3.274,4.173-4.5c0.36-0.26,0.732-0.497,1.112-0.715c0.072,0.024,0.149,0.038,0.226,0.038
			c0.256,0,0.486-0.131,0.616-0.349l0.108-0.184c2.905-1.369,6.169-1.694,8.841-1.806c0.79-0.033,1.624-0.049,2.626-0.049
			c0.802,0,1.619,0.01,2.409,0.02c0.319,0.005,0.639,0.008,0.958,0.012c0.085,0,0.171,0.001,0.257,0.001l0,0
			c0.948,0,2.059-0.056,3.117-0.464c0.339-0.131,0.675-0.298,1.013-0.501c0.056,0.496,0.076,1.002,0.056,1.518
			c-0.846,0.641-1.992,0.945-3.594,0.96l-0.111,0.001c-0.583,0-1.178-0.04-1.754-0.079c-0.222-0.014-0.444-0.029-0.665-0.042
			c-0.437-0.024-0.834-0.036-1.217-0.036h-0.091c-0.19,0.001-0.399,0.009-0.657,0.024c-0.095,0.006-0.189,0.014-0.281,0.022
			c-0.139-0.099-0.309-0.155-0.478-0.155c-0.151,0-0.297,0.044-0.423,0.126c-0.203,0.132-0.326,0.325-0.346,0.545
			c-0.018,0.2,0.052,0.412,0.19,0.584c-0.615,2.068-0.378,3.7,0.686,4.723c0.679,0.652,1.61,0.97,2.846,0.97
			c0.749,0,1.509-0.116,2.219-0.241c1.959-0.345,3.908-1.005,5.792-1.962c1.026-0.521,1.751-1.007,2.349-1.576
			c0.637-0.604,1.118-1.421,1.393-2.359c0.524-1.792,0.183-3.743-0.119-5.464c-0.117-0.671-0.287-1.508-0.59-2.36
			c0.218-0.194,0.438-0.388,0.661-0.574c1.476-1.242,3.168-2.397,5.172-3.533c3.993-2.262,8.287-3.798,12.332-5.121
			c1.183-0.387,2.389-0.769,3.556-1.138c2.119-0.671,4.31-1.365,6.445-2.115c0.3-0.105,0.445-0.342,0.478-0.583
			c0.61,0.265,1.262,0.398,1.856,0.408c0.027,0.001,0.055,0.001,0.082,0.001c1.733,0,3.632-0.941,4.956-2.457
			c0.177-0.202,0.332-0.414,0.466-0.632c0.057,0.527,0.115,1.055,0.172,1.58c0.39,3.564,0.864,7.346,1.997,10.952
			c0.576,1.832,1.313,3.527,2.191,5.038c1.129,1.941,2.337,3.385,3.695,4.413c1.324,1.003,3.024,1.705,5.196,2.145
			c1.522,0.308,3.092,0.487,4.61,0.66c0.468,0.054,0.935,0.106,1.401,0.164l19.02,2.324c0.02,0.002,0.04,0.003,0.06,0.003l0,0
			c0.229,0,0.476-0.153,0.583-0.358c1.613,0.164,2.724,1.498,3.372,2.593c0.72,1.214,1.076,2.621,1.42,3.982
			c0.094,0.372,0.192,0.758,0.296,1.133c0.142,0.513,0.288,0.978,0.444,1.409c-7.109,5.831-13.166,11.164-18.503,16.295
			c-1.321,1.271-2.629,2.562-3.888,3.84c-0.473,0.479-0.946,0.973-1.403,1.45c-0.768,0.802-1.562,1.63-2.372,2.412
			c-2.604,2.511-5.113,3.813-7.46,3.871c0.057-0.05,0.114-0.101,0.17-0.15c1.854-1.643,3.773-3.342,5.434-5.253
			c0.192-0.221,0.234-0.511,0.114-0.775c-0.122-0.268-0.383-0.447-0.651-0.447c-0.129,0-0.319,0.041-0.489,0.237
			c-1.658,1.907-3.583,3.612-5.444,5.261c-0.38,0.336-0.765,0.679-1.15,1.023c-0.132,0.061-0.237,0.16-0.311,0.278
			c-0.573,0.517-1.144,1.04-1.698,1.573c-2.517,2.421-4.826,5.372-7.059,9.023c-1.416,2.314-2.717,4.743-3.975,7.092
			c-0.509,0.951-1.036,1.934-1.563,2.896c-1.503,2.744-3.213,5.537-5.313,8.674c-0.02,0.026-0.037,0.053-0.053,0.08
			c-0.348,0.52-0.706,1.048-1.076,1.587c-0.212,0.31-0.431,0.618-0.661,0.923c-1.629-0.816-3.329-1.515-5.06-2.076
			c-1.155-0.374-2.455-0.767-3.783-0.928c0.879-0.578,1.705-1.247,2.384-2.068c1.075-1.302,1.727-2.893,2.356-4.431
			c0.124-0.301,0.246-0.602,0.372-0.896c1.595-3.769,3.263-7.794,4.597-11.938c0.283-0.881,0.569-1.842,0.901-3.023
			c0.261-0.93,0.53-1.893,0.929-2.807c0.733-1.682,2.001-3.057,3.23-4.39c0.785-0.852,1.61-1.767,2.318-2.771
			c0.646-0.917,1.199-1.912,1.734-2.874c0.138-0.249,0.276-0.497,0.416-0.744l4.256-7.53c0.127-0.225,0.129-0.476,0.004-0.688
			c-0.134-0.229-0.39-0.378-0.653-0.378c-0.244,0-0.457,0.129-0.583,0.354l-3.274,5.792c-0.261,0.463-0.521,0.938-0.773,1.397
			c-0.762,1.391-1.55,2.829-2.479,4.124c-0.628,0.877-1.379,1.687-2.106,2.47c-0.066,0.071-0.133,0.144-0.2,0.216
			c-1.243-0.173-2.454-0.569-3.584-0.977c-1.314-0.475-2.686-1.062-4.446-1.906c-1.902-0.912-3.788-1.936-5.612-2.925
			c-0.82-0.445-1.668-0.906-2.508-1.351c-3.843-2.036-7.969-3.372-11.505-4.413c-4.051-1.191-8.239-2.424-12.562-2.606
			c-0.634-0.027-1.282-0.04-1.978-0.04c-2.058,0-4.147,0.118-6.169,0.232c-0.698,0.04-1.396,0.08-2.092,0.114l-7.368,0.369
			c0.07-0.13,0.092-0.282,0.055-0.443c-0.078-0.34-0.39-0.596-0.725-0.596c-0.11,0-0.219,0.026-0.332,0.081
			c-1.139,0.554-2.3,1.117-3.501,1.516c0.026-2.143-0.421-4.381-1.31-6.516c-0.915-2.196-2.2-4.06-3.743-5.438
			C68.225,205.944,68.236,205.938,68.246,205.931z M61.197,210.832c0.26-0.706,0.811-1.369,1.638-1.973
			c0.771-0.563,1.66-0.987,2.52-1.398l0.124-0.06c0.517-0.247,0.984-0.481,1.417-0.71c3.207,2.645,5.12,7.134,4.938,11.593
			c-0.437,0.086-0.88,0.144-1.329,0.162c-0.104,0.004-0.208,0.007-0.313,0.007c-0.893,0-1.746-0.165-2.469-0.478
			c-0.903-0.389-1.545-1.063-2.225-1.777c-0.712-0.748-1.493-1.288-2.459-1.701c-0.802-0.344-1.559-0.667-1.933-1.47
			C60.757,212.28,61.013,211.332,61.197,210.832z"/>
		<path fill="#5C4A39" d="M86.452,200.135c0.21,0.085,0.433,0.128,0.663,0.128c0.049,0,0.098-0.003,0.146-0.006
			c0.119,0.031,0.242,0.048,0.365,0.048c0.145,0,0.289-0.022,0.429-0.067c0.402-0.127,0.751-0.448,0.933-0.858
			c0.079-0.178,0.122-0.362,0.139-0.595c0.025-0.36-0.255-0.566-0.441-0.702c-0.022-0.017-0.043-0.032-0.064-0.048
			c-0.333-0.253-0.719-0.423-1.087-0.481c-0.008-0.368-0.282-0.646-0.688-0.694c-0.053-0.006-0.106-0.01-0.159-0.01
			c-0.829,0-1.417,0.738-1.508,1.452C85.061,199.227,85.791,199.867,86.452,200.135z"/>
	</g>
</g>
</svg>
