<?xml version="1.0" encoding="utf-8"?>
<!-- Generator: Adobe Illustrator 16.0.0, SVG Export Plug-In . SVG Version: 6.00 Build 0)  -->
<!DOCTYPE svg PUBLIC "-//W3C//DTD SVG 1.1//EN" "http://www.w3.org/Graphics/SVG/1.1/DTD/svg11.dtd">
<svg version="1.1" id="Layer_1" xmlns="http://www.w3.org/2000/svg" xmlns:xlink="http://www.w3.org/1999/xlink" x="0px" y="0px"
	 width="350px" height="350px" viewBox="0 0 350 350" enable-background="new 0 0 350 350" xml:space="preserve">
<path fill="#CCCCCC" d="M264.278,213.863c2.771-14.617,0.646-31.444,0.294-46.167c-0.349-14.604,0.975-31.034-2.784-45.252
	c-1.291-4.883-4.707-6.308-8.488-5.175c-0.111-0.146-0.246-0.275-0.431-0.354c-4.075-1.721-8.907-2.115-13.255-2.95
	c-5.394-1.034-10.866-1.848-16.367-1.659c3.829-8.572,6.098-19.776,1.628-26.584c-4.622-7.039-14.713-1.885-19.759,1.609
	C198.1,92.19,191.244,99.89,189.215,108.5c-3.883-3.01-9.82-3.362-13.961-1.001c-1.606,0.916-3.511,2.992-4.752,5.325
	c-4.494-15.381-13.876-41.292-30.083-37.81c-10.134,2.177-11.362,13.57-11.129,22.291c0.063,2.376,0.276,5.313,0.768,8.345
	c-6.358,0.115-12.561,9.966-15.741,14.153c-6.547,8.619-12.727,18.464-17.219,28.336c-0.185,0.408-0.037,0.754,0.228,0.932
	c0.286,1.171,1.348,2.148,2.872,1.738c16.504-4.437,34.216-3.3,51.211-2.346c-0.766,16.213-1.87,32.176-3.909,48.363
	c-2.872,22.812-8.891,47.481-6.338,70.494c-11.33,0.093-22.667,0.454-33.901-1.13c-10.875-1.535-18.915-6.082-18.561-18.15
	c0.248-8.493,3.556-16.638,4.193-25.088c1.779-23.59,3.736-47.166,5.282-70.771c0.1-1.531-2.445-1.895-2.692-0.365
	c-4.376,27.032-4.047,55.022-9.571,81.767c-3.491,16.91-4.122,31.142,14.997,36.501c18.769,5.262,39.842,1.415,59.103,2.837
	c14.802,1.095,29.458,2.814,44.329,2.282c5.719-0.205,12.771-0.471,16.821-5.087c1.108-1.265,1.776-2.854,2.207-4.561
	c5.611-9.812,14.189-17.526,22.367-25.273c7.38-6.998,16.522-14.354,20.145-24.188C266.372,214.761,265.377,213.927,264.278,213.863
	z M240.622,117.97c2.683,0.615,5.448,1.41,8.214,1.66c-3.413,2.33-6.535,5.139-9.506,8.184c-6.842-2.913-14.568-4.3-21.865-6.088
	c0.455-0.479,0.897-0.99,1.318-1.555c1.129-1.522,2.274-3.408,3.349-5.517c0.166,0.1,0.357,0.175,0.591,0.196
	C228.807,115.414,234.676,116.606,240.622,117.97z M240.63,202.664c-0.979-2.703-1.56-5.495-2.271-8.26
	c0.342,0.171,0.664,0.37,1.016,0.524c0.258,0.134,0.521,0.173,0.779,0.171C240.285,197.621,240.445,200.144,240.63,202.664z
	 M239.623,180.197c0.008,0.361,0.021,0.724,0.03,1.085c-1.103-2.711-2.041-5.475-3.068-8.209c0.128,0.022,0.254,0.058,0.384,0.079
	c1.346,0.288,2.384-0.804,2.13-2.13c-0.526-2.726-0.934-5.324-1.635-7.85c0.173,0.137,0.359,0.252,0.528,0.394
	c0.465,0.379,0.984,0.484,1.468,0.428C239.464,169.395,239.509,174.796,239.623,180.197z M232.377,144.365
	c1.316,1.625,2.319,3.36,3.279,5.128c-0.479-0.028-1.07-0.048-1.904-0.08c-0.483-0.018-0.944,0.208-1.292,0.556
	c-0.071-1.916-0.124-3.832-0.164-5.748C232.328,144.268,232.341,144.32,232.377,144.365z M238.768,153.988
	c0.262,0.079,0.508,0.079,0.745,0.046c-0.016,1.494-0.016,2.987-0.024,4.481c-0.69-1.613-1.328-3.212-2.096-4.767
	C237.852,153.828,238.311,153.908,238.768,153.988z M235.033,157.314c-0.132-0.075-0.25-0.16-0.384-0.234
	c-0.66-0.371-1.345-0.255-1.862,0.103c-0.077-1.458-0.145-2.916-0.207-4.374C233.563,154.232,234.335,155.754,235.033,157.314z
	 M235.248,169.213c-0.347-0.1-0.696-0.188-1.039-0.307c-0.25-0.076-0.476-0.082-0.688-0.06c-0.189-2.6-0.361-5.199-0.521-7.799
	C234.219,163.71,234.736,166.398,235.248,169.213z M236.854,183.566c0.214,0.132,0.435,0.25,0.648,0.392
	c0.702,0.468,1.688,0.159,2.209-0.463c0.057,2.116,0.126,4.232,0.209,6.353C238.77,187.788,237.744,185.739,236.854,183.566z
	 M239.358,136.712c-0.41-0.233-0.892-0.324-1.356-0.249c0.474-0.519,0.948-1.045,1.422-1.559
	C239.377,135.497,239.381,136.11,239.358,136.712z M233.069,134.709c-0.559-1.709-1.182-3.079-2.344-4.585
	c-0.489-0.635-1.271-0.893-1.964-0.792c-0.418-0.637-0.806-1.294-1.186-1.958c3.202,1.008,6.426,1.934,9.622,2.684
	C235.799,131.574,234.43,133.135,233.069,134.709z M239.182,212.074c-1.275,0.059-1.957,1.444-1.383,2.545
	c1.136,2.145,2.084,4.357,2.85,6.643c-0.461,0-0.922,0-1.381,0c-0.987,0.002-1.639,0.79-1.666,1.654
	c-0.262-5.426-0.61-10.852-1.019-16.278C237.484,208.425,238.286,210.272,239.182,212.074z M237.848,228.87
	c-0.066-1.957-0.146-3.911-0.239-5.868c0.004,0.27,0.063,0.544,0.199,0.804c1.063,2.027,1.921,4.121,2.828,6.198
	C239.706,229.628,238.773,229.257,237.848,228.87z M241.938,224.645c0.335,0,0.67,0.002,1.006,0.002
	c0.063,0,0.113-0.036,0.174-0.045c0.254,1.599,0.522,3.194,0.814,4.785C243.254,227.809,242.628,226.214,241.938,224.645z
	 M239.523,205.135c0.525-0.072,1.001-0.341,1.238-0.768c0.104,1.332,0.207,2.66,0.329,3.988
	C240.577,207.275,240.067,206.195,239.523,205.135z M223.68,128.802c-1.087-1.241-2.259-2.415-3.422-3.567
	c-1.149-1.141-3.489-0.002-2.864,1.667c0.387,1.035,0.594,2.086,0.718,3.148c-1.162-0.949-2.325-1.897-3.437-2.909
	c-1.241-1.128-2.888-0.037-2.703,1.489c-0.203-0.172-0.412-0.335-0.629-0.485c-0.752-0.651-1.482-1.323-2.184-2.025
	c2.368-0.415,4.616-1.304,6.616-2.854c2.722,1.03,5.518,2.024,8.334,2.974c-0.258,0.295-0.424,0.676-0.43,1.125
	C223.712,127.848,223.708,128.326,223.68,128.802z M202.606,93.687c3.945-3.576,12.399-10.024,18.057-6.751
	c7.457,4.313-1.056,24.18-3.799,28.959c-5.835,10.163-16.553,5.946-25.135,2.477c1.196-2.244,1.411-4.86-0.12-7.322
	c-0.158-0.257-0.376-0.459-0.557-0.697C193.131,103.777,197.527,98.292,202.606,93.687z M189.229,121.444
	c0.105,0.093,0.188,0.2,0.327,0.272c4.855,2.534,10.738,4.67,16.276,4.681c0.42,0.576,0.886,0.982,1.393,1.297
	c0.636,0.683,1.288,1.352,1.952,2.007c-9.417-2.414-18.748-5.251-18.466-6.887c0.03-0.169-0.222-0.311-0.301-0.127
	c-2.619,6.035,32.462,14.321,36.907,14.661c1.438,0.109,2.039-1.634,1.454-2.664c0.243,0.045,0.493,0.02,0.735-0.043
	c0.394,0.569,0.785,1.141,1.204,1.699c0.156,0.21,0.359,0.343,0.574,0.444c-3.799,4.446-7.561,8.927-11.622,12.866
	c-5.456-4.147-14.194-4.599-20.521-5.125c-7.995-0.667-16.032-0.3-24.056-0.321c2.508-3.202,4.64-6.753,6.876-10.134
	c0.621-0.941,6.602-10.771,6.605-10.77c0.587,0.114,0.995-0.688,0.423-1.002c-0.229-0.125-0.476-0.159-0.731-0.141
	C188.588,121.924,188.925,121.706,189.229,121.444z M172.37,115.888c0.656-2.102,2.264-3.872,4.029-5.113
	c3.71-2.61,9.892-1.391,12.266,2.549c1.755,2.907-2.254,5.684-4.385,6.725c-1.677,0.821-3.61,1.091-5.454,1.101
	c-2.141,0.013-4.086-1.248-6.167-0.864c-0.12,0.022-0.205,0.106-0.311,0.159c0.073-0.326,0.096-0.661,0.006-0.99
	c-0.12-0.444-0.252-0.923-0.388-1.422C172.047,117.315,172.147,116.6,172.37,115.888z M168.896,122.445
	c0.662-0.143,1.338-0.254,1.994-0.412c0.236-0.057,0.435-0.177,0.624-0.308c-0.033,0.333-0.002,0.666,0.177,0.944
	c0.256,0.399,0.597,0.713,0.966,0.994c-1.042,0.24-1.896,1.176-1.486,2.394c0.213,0.637,0.443,1.265,0.662,1.898
	c-0.997-0.599-1.976-1.222-2.861-1.986c-0.345-0.297-0.774-0.448-1.208-0.478C168.289,124.441,168.701,123.407,168.896,122.445z
	 M145.688,79.358c7.644,2.227,12.274,13.036,15.271,19.557c2.861,6.222,5.077,12.846,6.789,19.499
	c-8.417,1.727-20.513,3.77-28.195,0.814c-0.213-0.081-0.417-0.105-0.609-0.1C132.139,108.039,128.345,74.305,145.688,79.358z
	 M159.178,155.167c1.036,1.38,1.854,2.83,2.618,4.306c-1.385-0.587-2.766-1.185-4.11-1.889c-1.096-0.574-2.233-0.185-2.873,0.604
	c0.172-3.246,0.164-6.977-0.949-9.589c0.494,0.026,0.989,0.055,1.482,0.081c1.931,0.102,3.887,0.142,5.843,0.185
	c-0.345,0.821-0.199,1.791,0.816,2.225l0.894,0.383c0.142,0.268,0.286,0.536,0.428,0.804c-0.528-0.147-1.056-0.278-1.58-0.45
	C159.964,151.244,157.966,153.55,159.178,155.167z M153.46,184.052c-0.175-0.075-0.341-0.094-0.506-0.113
	c0.372-3.651,0.701-7.307,0.971-10.969c3.19,5.177,6.895,10.014,9.537,15.453C160.135,186.95,156.814,185.457,153.46,184.052z
	 M157.45,196.891c-1.03-0.664-2.047-1.361-3.022-2.151c-0.777-0.627-1.823-0.591-2.642-0.194c0.002-0.022,0.006-0.047,0.01-0.069
	c0.193-1.639,0.374-3.279,0.557-4.918C153.996,192.057,155.815,194.413,157.45,196.891z M156.756,169.554
	c-0.92-0.477-1.934-0.243-2.612,0.34c0.148-2.322,0.282-4.645,0.372-6.969c0.022-0.613,0.075-1.365,0.132-2.164
	c2.035,3.681,4.37,7.166,6.62,10.707C159.739,170.9,158.218,170.311,156.756,169.554z M158.632,143.482
	c-0.875-0.057-1.727-0.101-2.604-0.158c0.428-0.457,0.845-0.985,1.255-1.536c0.021,0.111,0.057,0.225,0.118,0.339
	C157.669,142.638,158.226,143.068,158.632,143.482z M158.102,140.631c1.241-1.85,2.337-3.858,3.17-5.281
	c0.625,2.731,0.77,5.474,0.906,8.23c-1.034-1.154-2.118-2.246-3.375-2.854C158.563,140.609,158.323,140.588,158.102,140.631z
	 M162.905,132.895c0.877-1.211,1.972-2.685,3.01-4.258c0.857,2.615,1.285,5.294,1.704,7.985c-1.21-0.948-2.378-1.947-3.365-3.175
	C163.865,132.963,163.376,132.832,162.905,132.895z M132.917,117.681c0.425,0.25,0.896,0.22,1.294,0.003
	c0.822,1.256,1.763,2.378,2.869,3.274c-2.053-0.681-4.313-1.094-6.622-1.305c0.116-0.287,0.144-0.619,0.037-0.979
	c-0.13-0.435-0.264-0.868-0.396-1.301c0.237,0.178,0.457,0.378,0.715,0.531C131.521,118.327,132.356,118.166,132.917,117.681z
	 M130.707,108.94c0.236,1.006,0.518,1.999,0.835,2.973c-0.083-0.034-0.152-0.081-0.242-0.109c-0.658-0.21-1.27,0.008-1.704,0.424
	c-0.54-0.521-1.113-1.004-1.718-1.447C128.8,110.139,129.722,109.5,130.707,108.94z M124.897,113.079
	c0.487,1.024,0.934,2.069,1.338,3.132c-1.092-0.467-2.167-0.967-3.245-1.464C123.608,114.167,124.251,113.622,124.897,113.079z
	 M121.063,116.657c1.718,1.011,3.481,1.943,5.26,2.848c-3.093,0.052-6.137,0.44-8.795,1.134
	C118.655,119.249,119.841,117.931,121.063,116.657z M100.625,145.734c5.124-7.319,9.754-15.752,15.338-23.094
	c0.049,0.003,0.089,0.018,0.142,0.011c3.499-0.44,6.872-0.688,10.397-0.46c4.585,0.296,8.682,2.119,13.135,2.819
	c0.664,0.104,1.227-0.241,1.521-0.719c2.735,0.692,6.184,0.308,8.393,0.271c5.18-0.084,10.475-0.513,15.647-1.382
	c-0.014,0.022-0.026,0.042-0.041,0.065c-1.799,2.826-3.702,5.593-5.617,8.339c-1.736,2.491-3.481,4.977-5.268,7.433
	c-0.93,1.28-2.291,2.508-2.638,4.018C134.529,141.938,116.908,141.198,100.625,145.734z M151.358,197.924
	c3.266,4.336,6.772,8.464,9.699,12.999c-2.67-1.292-5.022-3.14-7.558-5.142c-1.079-0.85-2.449-0.594-3.199,0.203
	C150.667,203.3,151.019,200.612,151.358,197.924z M149.991,208.23c0.03,0.068,0.033,0.132,0.071,0.202
	c3.007,5.453,6.862,10.325,10.322,15.469c-3.527-1.866-6.811-4.21-10.138-6.428c-0.496-0.328-1.015-0.367-1.493-0.239
	C149.163,214.233,149.575,211.231,149.991,208.23z M147.599,226.2c0.187-1.548,0.394-3.093,0.593-4.639
	c2.89,4.482,6.257,8.601,9.512,12.805c-3.001-2.096-6.048-4.121-9.362-5.749c-0.337-0.167-0.662-0.216-0.973-0.216
	C147.447,227.668,147.512,226.934,147.599,226.2z M146.874,233.667c2.031,3.82,4.512,7.267,7.173,10.595
	c-2.435-1.653-4.927-3.221-7.593-4.53c-0.006-0.002-0.01-0.002-0.016-0.005C146.563,237.704,146.709,235.684,146.874,233.667z
	 M146.074,245.815c1.572,2.41,3.284,4.703,5.087,6.925c-1.75-1.237-3.507-2.47-5.274-3.688
	C145.95,247.972,146.013,246.896,146.074,245.815z M145.475,255.579c0.957,1.436,1.925,2.863,2.9,4.289
	c-0.995-0.975-1.992-1.962-2.989-2.965C145.418,256.46,145.444,256.02,145.475,255.579z M144.372,267.313
	c0.254-1.998,0.459-4.004,0.644-6.017c0.316,0.286,0.715,0.221,0.993-0.022c2.049,2.16,4.155,4.224,6.446,6.133
	C149.762,267.329,147.067,267.309,144.372,267.313z M168.142,268.511c-2.713-0.248-5.424-0.493-8.131-0.711
	c-0.971-0.077-1.941-0.132-2.914-0.187c-0.028-0.138-0.065-0.272-0.14-0.402c-2.205-3.793-4.652-7.426-7.071-11.079
	c3.385,2.416,6.791,4.796,10.353,6.969c1.818,1.107,3.455-1.328,2.169-2.811c-3.81-4.395-7.694-8.679-11.084-13.35
	c3.893,2.615,7.611,5.497,11.616,7.984c1.984,1.235,3.545-1.396,2.305-2.987c-4.291-5.497-8.984-10.55-12.725-16.333
	c4.11,2.717,8.003,5.762,12.207,8.379c1.712,1.068,3.771-1.04,2.741-2.741c-3.089-5.105-6.87-9.691-10.47-14.408
	c2.585,1.496,5.268,2.805,8.169,3.7c1.86,0.574,3.292-1.556,2.421-3.15c-2.376-4.342-5.286-8.319-8.111-12.359
	c1.746,0.829,3.603,1.463,5.678,1.771c1.915,0.288,3.387-1.381,2.478-3.223c-1.565-3.164-3.493-6.054-5.552-8.853
	c1.558,0.685,3.7-0.784,3.03-2.575c-1.527-4.081-3.93-7.512-6.344-10.978c2.731,1.218,5.461,2.438,8.218,3.599
	c1.578,0.661,3.213-1.256,2.736-2.736c-1.876-5.817-5.122-10.81-8.417-15.829c1.432,0.54,2.853,1.101,4.222,1.812
	c1.99,1.035,4.173-1.048,3.066-3.065c-1.964-3.583-4.22-6.979-6.405-10.419c1.121,0.486,2.236,0.987,3.326,1.561
	c2.033,1.068,4.182-1.066,3.103-3.103c-0.922-1.743-1.712-3.489-2.569-5.197c0.309,0.091,0.617,0.164,0.924,0.265
	c2.118,0.695,3.278-1.68,2.571-3.345c-0.546-1.287-1.135-2.526-1.757-3.75c0.161-0.503,0.152-1.087-0.17-1.713
	c-0.061-0.12-0.12-0.196-0.179-0.301c1.218,0.003,2.431,0.018,3.655,0.015c-0.059,0.135-0.1,0.287-0.104,0.464
	C169.907,189.189,173.67,228.952,168.142,268.511z M171.302,144.158c-1.243-0.027-2.485-0.068-3.726-0.131
	c-0.668-0.034-1.361-0.086-2.031-0.124c0.02-1.46-0.041-2.924-0.152-4.383c1.2,0.961,2.435,1.893,3.608,2.964
	c1.426,1.299,3.538,0.022,3.148-1.833c-0.624-2.96-0.904-5.941-1.432-8.884c1.299,0.757,2.589,1.527,3.729,2.516
	c1.756,1.525,4.049-0.356,3.115-2.404c-0.396-0.868-0.729-1.759-1.062-2.649c0.794-0.292,1.323-1.006,1.342-1.864
	c0.015-0.625-0.057-0.94-0.122-1.103c0.082,0.064,0.21,0.131,0.438,0.164c0.704,0.104,1.112-0.024,1.803-0.242
	c0.557-0.176,0.954-0.673,1.113-1.222c1.722-0.231,3.407-0.762,4.977-1.514c-1.537,1.476-2.991,3.761-3.517,4.458
	c-3.751,4.968-7.271,10.105-10.977,15.106C171.28,143.388,171.227,143.785,171.302,144.158z M221.701,174.955
	c-0.948,10.47-1.631,20.542-1.661,31.086c-0.034,12.136-0.205,24.268-0.591,36.397c-0.233,7.322,0.386,15.797-1.604,22.933
	c-1.781,6.381-17.068,4.744-21.564,4.789c-8.236,0.079-16.483-0.598-24.708-1.341c6.244-39.25,3.068-79.89,1.783-119.396
	c-0.004-0.18-0.046-0.334-0.107-0.471c12.268-0.049,24.658-0.144,36.389,2.353C221.989,153.933,222.647,164.507,221.701,174.955z
	 M223.945,262.045c0.209-2.25,0.207-4.515,0.29-6.449c0.607-13.821,0.981-27.631,1.095-41.467
	c0.109-13.212,0.193-26.046,1.682-39.174c0.967-8.53,0.613-16.776-5.199-23.336c2.803-1.767,5.363-3.938,7.801-6.281
	c-1.129,33.818,4.205,67.738,5.384,101.514c0.002,0.098,0.042,0.171,0.059,0.26C230.878,251.711,226.906,256.606,223.945,262.045z
	 M238.053,243.857c0.03-2.944,0.004-5.889-0.047-8.834c0.585,1.099,1.233,2.169,2.058,3.245c0.764,1.353,2.882,0.122,2.083-1.22
	c-0.621-1.083-1.184-2.189-1.707-3.316c0.012-0.134,0.024-0.272,0.053-0.412c0.853,0.375,1.705,0.749,2.557,1.135
	c0.674,0.307,1.351,0.171,1.819-0.203c0.015,0.069,0.024,0.134,0.038,0.203c0.108,0.508,0.372,0.833,0.693,1.036
	C243.14,238.298,240.643,241.088,238.053,243.857z M248.174,232.512c-3.108-18.575-4.538-37.201-5.127-56.021
	c-0.267-8.524-0.355-17.059-0.455-25.588c-0.071-5.925,0.832-13.077-0.193-19.135c0.057-0.058,0.116-0.121,0.173-0.18
	c3.54-3.573,6.891-7.412,11.202-10.086c5.298-3.286,5.424,15.327,5.484,17.049c0.472,13.106,0.778,26.22,0.95,39.334
	c0.161,12.016-1.366,24.905,0.184,36.793c0.083,0.634,0.471,1.129,0.956,1.45C257.091,221.798,252.715,227.207,248.174,232.512z"/>
</svg>
