<?xml version="1.0" encoding="utf-8"?>
<!-- Generator: Adobe Illustrator 16.0.0, SVG Export Plug-In . SVG Version: 6.00 Build 0)  -->
<!DOCTYPE svg PUBLIC "-//W3C//DTD SVG 1.1//EN" "http://www.w3.org/Graphics/SVG/1.1/DTD/svg11.dtd">
<svg version="1.1" id="Layer_1" xmlns="http://www.w3.org/2000/svg" xmlns:xlink="http://www.w3.org/1999/xlink" x="0px" y="0px"
	 width="350px" height="350px" viewBox="0 0 350 350" enable-background="new 0 0 350 350" xml:space="preserve">
<g>
	<path fill="#353581" d="M289.486,150.925c-0.167-0.887-1.084-1.063-1.744-0.733c-10.212-1.231-20.807-0.527-31.071-0.531
		c-11.313-0.003-22.627-0.361-33.942-0.499c-1.611-0.019-3.227-0.016-4.842-0.028c2.285-0.721,4.513-1.546,6.646-2.422
		c7.594-3.119,13.164-7.386,13.783-16.07c0.936-13.048-16.587-19.909-25.821-13.284c0.332-3.907-0.88-7.662-4.79-10.468
		c-8.13-5.83-18.896-2.359-24.628,5.253c-3.829,5.087-6.521,11.353-8.078,17.911c-1.557-6.558-4.248-12.824-8.078-17.911
		c-5.732-7.612-16.498-11.083-24.627-5.253c-3.91,2.806-5.123,6.561-4.789,10.468c-9.234-6.625-26.757,0.235-25.824,13.284
		c0.621,8.685,6.189,12.952,13.785,16.07c2.134,0.876,4.361,1.701,6.646,2.422c-1.614,0.012-3.229,0.01-4.843,0.028
		c-11.313,0.138-22.627,0.496-33.941,0.499c-10.265,0.004-20.858-0.7-31.071,0.531c-0.659-0.33-1.576-0.154-1.743,0.733
		c-1.744,9.243-1.84,18.842-2.846,28.187c-0.094,0.883,0.776,1.482,1.541,1.543c1.514,0.115,3.03,0.186,4.548,0.216
		c-0.768,4.672-0.289,9.635-0.289,14.337c0,5.217,0.037,10.433,0.063,15.647c0.05,9.985-1.169,21.014,0.867,30.852
		c0.038,0.602,0.059,1.204,0.109,1.809c0.06,0.764,0.591,1.398,1.4,1.4c3.001,0.011,6.028,0.14,9.033,0.039
		c10.059,0.892,20.358,0.152,30.42,0.327c10.561,0.187,21.117,0.423,31.678,0.569c6.801,0.093,13.603,0.126,20.402,0.146
		c1.244,0.063,2.51,0.035,3.785,0.009c3.251,0.007,6.502,0.017,9.754,0.021c1.34,0,2.681-0.009,4.021-0.013
		c1.342,0.004,2.682,0.013,4.022,0.013c3.253-0.005,6.503-0.015,9.755-0.021c1.275,0.026,2.54,0.055,3.784-0.009
		c6.8-0.02,13.601-0.053,20.403-0.146c10.56-0.146,21.115-0.383,31.677-0.569c10.062-0.175,20.36,0.564,30.421-0.327
		c3.003,0.101,6.032-0.028,9.032-0.039c0.809-0.002,1.338-0.637,1.401-1.4c0.048-0.604,0.07-1.207,0.107-1.809
		c2.036-9.838,0.816-20.866,0.867-30.852c0.025-5.215,0.063-10.431,0.063-15.647c-0.002-4.702,0.479-9.665-0.289-14.337
		c1.52-0.03,3.033-0.101,4.547-0.216c0.767-0.061,1.636-0.66,1.543-1.543C291.324,169.767,291.229,160.168,289.486,150.925z
		 M256.47,152.554c0.18,1.131,0.706,2.193,1.548,3.014l1.064,1.039c0.545,0.53,0.729,1.278,0.494,2.002
		c-0.233,0.723-0.823,1.219-1.577,1.329l-1.472,0.214c-1.758,0.255-3.277,1.36-4.065,2.953l-0.658,1.334
		c-0.334,0.681-0.99,1.089-1.751,1.089s-1.413-0.408-1.751-1.089l-0.657-1.334c-0.789-1.593-2.309-2.698-4.066-2.953l-1.472-0.214
		c-0.753-0.11-1.343-0.606-1.577-1.329c-0.234-0.724-0.051-1.472,0.494-2.002l1.065-1.039c0.788-0.769,1.311-1.746,1.522-2.796
		c3.597-0.069,7.197-0.141,10.799-0.204C255.095,152.556,255.782,152.559,256.47,152.554z M222.729,153.136
		c5.722-0.078,11.444-0.184,17.164-0.293c-0.065,0.088-0.127,0.18-0.207,0.258l-1.066,1.039c-1.483,1.445-2.005,3.565-1.365,5.534
		c0.64,1.969,2.308,3.376,4.356,3.674l1.474,0.214c0.635,0.093,1.184,0.493,1.469,1.068l0.66,1.334
		c0.914,1.857,2.77,3.009,4.84,3.009c2.071,0,3.926-1.152,4.842-3.009l0.658-1.333c0.285-0.577,0.834-0.976,1.469-1.069l1.475-0.214
		c2.048-0.297,3.719-1.705,4.358-3.674c0.638-1.969,0.116-4.089-1.368-5.534l-1.065-1.039c-0.162-0.158-0.282-0.349-0.378-0.547
		c9.001,0.066,18.119,0.472,27.021-0.547c0.005,3.797,0.282,7.605,0.646,11.413l-0.381,0.199c-0.56,0.294-1.261,0.294-1.816,0
		l-1.318-0.691c-2.234-1.178-5.044-0.599-6.653,1.311c-1.019,1.209-1.449,2.806-1.18,4.379l0.253,1.466
		c0.107,0.634-0.102,1.28-0.563,1.729l-1.065,1.039c-1.336,1.303-1.886,3.152-1.513,4.946c-5.623-0.005-11.259,0.196-16.803,0.193
		c-6.323-0.002-12.645-0.115-18.969-0.239c-0.247-0.436-0.534-0.854-0.907-1.219l-1.065-1.038c-0.461-0.448-0.67-1.094-0.562-1.729
		l0.252-1.466c0.27-1.575-0.159-3.171-1.18-4.38c-1.609-1.909-4.419-2.488-6.653-1.31l-1.314,0.692c-0.563,0.293-1.264,0.293-1.82,0
		l-1.317-0.692c-2.235-1.178-5.041-0.599-6.654,1.31c-1.018,1.211-1.449,2.806-1.179,4.38l0.252,1.466
		c0.107,0.635-0.102,1.28-0.562,1.729l-1.066,1.038c-0.281,0.276-0.523,0.579-0.732,0.898c-7.383-0.035-14.762-0.04-22.142-0.03
		c-2.018,0.004-4.036,0.021-6.057,0.028c-0.033-1.411-0.056-2.821-0.094-4.232c-0.048-1.688-0.063-3.394-0.072-5.107
		c1.005,1.386,2.6,2.222,4.355,2.222c2.071,0,3.926-1.152,4.843-3.009l0.657-1.334c0.285-0.577,0.834-0.977,1.472-1.068l1.471-0.214
		c2.049-0.297,3.719-1.706,4.359-3.674c0.64-1.968,0.116-4.088-1.368-5.533l-1.063-1.04c-0.319-0.311-0.509-0.718-0.563-1.149
		C206.904,153.273,214.815,153.244,222.729,153.136z M265.238,183.241l1.065,1.038c0.545,0.532,0.729,1.28,0.494,2.003
		s-0.824,1.22-1.577,1.328l-1.472,0.214c-1.759,0.257-3.278,1.36-4.063,2.955l-0.66,1.333c-0.336,0.683-0.99,1.089-1.751,1.089
		s-1.414-0.406-1.752-1.089l-0.657-1.333c-0.788-1.595-2.308-2.698-4.066-2.955l-1.472-0.214c-0.753-0.108-1.343-0.605-1.577-1.328
		s-0.05-1.471,0.494-2.003l1.065-1.038c0.655-0.638,1.101-1.427,1.36-2.275c1.245-0.021,2.492-0.048,3.74-0.07
		c3.126-0.056,6.275-0.021,9.435,0.025C264.102,181.788,264.57,182.591,265.238,183.241z M217.067,182.558
		c0.545,0.529,0.731,1.277,0.494,2.001c-0.234,0.724-0.823,1.219-1.577,1.33l-1.472,0.215c-1.758,0.254-3.277,1.358-4.063,2.952
		l-0.66,1.334c-0.335,0.683-0.99,1.09-1.751,1.09c-0.759,0-1.413-0.407-1.751-1.088l-0.658-1.336
		c-0.786-1.594-2.306-2.698-4.063-2.952l-1.474-0.215c-0.751-0.111-1.34-0.606-1.577-1.33c-0.234-0.724-0.048-1.472,0.496-2.001
		l0.965-0.941c5.342-0.013,10.686-0.048,16.029-0.096L217.067,182.558z M217.85,177.461c0.954-1.196,1.362-2.75,1.101-4.277
		l-0.252-1.467c-0.127-0.742,0.156-1.266,0.418-1.576c0.378-0.447,0.939-0.714,1.507-0.714c0.31,0,0.614,0.078,0.909,0.233
		l1.318,0.692c1.541,0.811,3.479,0.811,5.023,0l1.315-0.693c0.828-0.434,1.831-0.21,2.416,0.483c0.263,0.31,0.547,0.834,0.418,1.576
		l-0.252,1.467c-0.277,1.618,0.206,3.258,1.282,4.478c-3.441-0.066-6.883-0.129-10.325-0.17
		C221.104,177.472,219.477,177.474,217.85,177.461z M184.214,153.299c1.524,0.001,3.048,0.014,4.575,0.013
		c2.248-0.004,4.495-0.011,6.742-0.015c0.063,1.352,0.63,2.646,1.618,3.61l1.065,1.038c0.544,0.53,0.729,1.279,0.493,2.001
		c-0.233,0.724-0.823,1.221-1.576,1.33l-1.472,0.215c-1.759,0.255-3.278,1.359-4.064,2.954l-0.66,1.333
		c-0.335,0.682-0.99,1.088-1.751,1.088s-1.413-0.407-1.751-1.088l-0.657-1.333c-0.454-0.917-1.162-1.652-2.009-2.173
		C184.71,159.259,184.576,156.252,184.214,153.299z M176.65,146.224c0.007-0.062,0.011-0.125,0.015-0.188
		c0.341-3.723,0.759-7.386,1.394-11.017c1.07-3.632,2.479-7.183,4.717-10.742c3-4.771,7.53-9.313,13.657-8.319
		c5.463,0.887,5.46,7.604,3.903,11.271c-0.968,2.279-2.789,4.326-4.268,6.285c-0.232,0.309,0.239,0.582,0.493,0.38
		c4.701-3.732,7.831-8.5,6.946-14.639c-0.793-5.5-7.278-6.796-11.728-6.167c-3.268,0.461-6.045,2.575-8.359,5.246
		c4.434-7.608,12.334-13.899,21.219-9.254c11.63,6.081-0.021,20.479-5.772,26.147c-5.883,5.797-13.304,8.43-20.499,12.067
		c-0.37,0.188-0.198,0.808,0.215,0.786c10.541-0.571,20.309-8.319,26.911-16.061c0.571-0.67,1.141-1.391,1.694-2.152
		c1.817-0.187,2.87-0.993,4.782-1.99c2.779-1.452,5.47-2.188,8.587-1.713c5.881,0.896,5.911,7.357,2.872,11.214
		c-6.15,7.813-16.911,7.877-25.815,8.654c-0.594,0.052-0.772,0.906-0.146,1.075c10.812,2.909,29.97-2.191,31.542-15.031
		c1.186-9.702-11.907-11.14-18.982-6.815c0.481-0.944,0.92-1.909,1.282-2.889c4.646-3.022,8.806-5.334,14.948-3.509
		c8.554,2.538,10.809,13.407,5.2,19.759c-6.591,7.462-17.984,9.118-27.938,10.447c-4.156-0.001-8.312,0.001-12.469,0.008
		c-2.709,0.002-5.42,0.022-8.128,0.034c-2.149-0.167-4.373-0.037-6.522,0.015C176.48,148.151,176.564,147.187,176.65,146.224z
		 M178.678,153.284c0.996,0.021,1.986,0.047,2.964,0.037c-0.481,5.821-0.059,11.798-0.008,17.603
		c0.018,2.147,0.053,4.297,0.08,6.445c-2.241-0.07-4.537,0.105-6.715,0.102c-2.177,0.004-4.471-0.172-6.715-0.102
		c0.029-2.148,0.064-4.297,0.083-6.445c0.049-5.805,0.472-11.781-0.008-17.603c0.978,0.01,1.966-0.016,2.96-0.037
		c1.227-0.001,2.454-0.005,3.68-0.01C176.227,153.279,177.454,153.283,178.678,153.284z M118.541,138.62
		c-5.608-6.352-3.353-17.221,5.201-19.759c6.141-1.825,10.302,0.487,14.946,3.509c0.365,0.98,0.802,1.945,1.284,2.889
		c-7.074-4.325-20.169-2.886-18.982,6.815c1.572,12.84,20.73,17.94,31.542,15.031c0.627-0.169,0.448-1.023-0.146-1.075
		c-8.906-0.777-19.665-0.841-25.816-8.654c-3.038-3.857-3.008-10.318,2.871-11.214c3.119-0.475,5.809,0.262,8.589,1.713
		c1.912,0.998,2.965,1.804,4.782,1.99c0.555,0.761,1.124,1.481,1.696,2.152c6.601,7.742,16.369,15.49,26.911,16.061
		c0.413,0.022,0.584-0.598,0.213-0.786c-7.196-3.637-14.617-6.27-20.498-12.067c-5.753-5.669-17.403-20.067-5.772-26.147
		c8.884-4.645,16.785,1.646,21.218,9.254c-2.316-2.671-5.091-4.785-8.359-5.246c-4.449-0.629-10.935,0.667-11.728,6.167
		c-0.884,6.139,2.245,10.907,6.945,14.639c0.255,0.202,0.727-0.072,0.494-0.38c-1.479-1.958-3.299-4.005-4.268-6.285
		c-1.557-3.667-1.558-10.384,3.903-11.271c6.129-0.994,10.659,3.549,13.658,8.319c2.239,3.559,3.647,7.11,4.718,10.742
		c0.635,3.631,1.053,7.294,1.391,11.017c0.006,0.063,0.01,0.125,0.016,0.188c0.086,0.963,0.171,1.927,0.25,2.9
		c-2.149-0.052-4.373-0.183-6.522-0.015c-2.709-0.012-5.419-0.032-8.129-0.034c-4.156-0.007-8.312-0.009-12.469-0.008
		C136.523,147.738,125.13,146.083,118.541,138.62z M131.215,153.168c0.033,1.397,0.6,2.744,1.62,3.739l1.066,1.038
		c0.543,0.53,0.728,1.279,0.494,2.001c-0.235,0.724-0.825,1.221-1.577,1.33l-1.471,0.215c-1.758,0.255-3.279,1.359-4.065,2.954
		l-0.659,1.333c-0.336,0.682-0.991,1.088-1.751,1.088c-0.761,0-1.415-0.407-1.751-1.088l-0.659-1.333
		c-0.786-1.594-2.306-2.699-4.064-2.954l-1.472-0.215c-0.753-0.109-1.341-0.606-1.578-1.33c-0.234-0.722-0.05-1.471,0.494-2.001
		l1.065-1.038c1.065-1.038,1.634-2.458,1.617-3.92c2.915,0.052,5.83,0.108,8.746,0.149
		C128.585,153.153,129.9,153.153,131.215,153.168z M72.047,152.608c0.144,0.183,0.271,0.375,0.44,0.54l1.066,1.039
		c0.544,0.53,0.729,1.278,0.494,2.001c-0.234,0.723-0.824,1.219-1.576,1.329l-1.473,0.214c-1.759,0.256-3.278,1.359-4.065,2.955
		l-0.658,1.333c-0.336,0.683-0.991,1.09-1.752,1.09c-0.76,0-1.415-0.407-1.751-1.088l-0.296-0.603
		c0.267-3.14,0.455-6.28,0.459-9.411C65.952,152.351,68.994,152.522,72.047,152.608z M60.879,177.544
		c0.317-3.851,0.765-7.722,1.164-11.593c0.75,0.389,1.595,0.602,2.481,0.602c2.07,0,3.925-1.152,4.841-3.01l0.659-1.334
		c0.284-0.577,0.833-0.976,1.47-1.068l1.472-0.215c2.048-0.298,3.718-1.705,4.358-3.674c0.511-1.571,0.269-3.232-0.598-4.577
		c6.304,0.015,12.63-0.217,18.865-0.108c6.495,0.114,12.99,0.24,19.483,0.361c0.033,0.561-0.164,1.113-0.572,1.51l-1.066,1.04
		c-1.482,1.444-2.005,3.565-1.366,5.534c0.64,1.968,2.311,3.376,4.357,3.673l1.473,0.214c0.636,0.092,1.187,0.492,1.47,1.068
		l0.659,1.334c0.916,1.857,2.77,3.009,4.841,3.009c2.07,0,3.924-1.152,4.841-3.009l0.657-1.334c0.285-0.577,0.834-0.977,1.472-1.068
		l1.473-0.214c2.047-0.297,3.717-1.706,4.357-3.674c0.64-1.968,0.116-4.088-1.367-5.533l-1.064-1.04
		c-0.343-0.333-0.546-0.777-0.583-1.244c8.851,0.077,17.702,0.104,26.552,0.116c1.526,0.001,3.051-0.011,4.577-0.013
		c-0.496,4.033-0.572,8.166-0.601,12.275c-1.644-1.331-4-1.63-5.932-0.613l-1.316,0.693c-0.559,0.292-1.261,0.293-1.818-0.001
		l-1.316-0.691c-2.236-1.177-5.044-0.599-6.655,1.312c-1.018,1.209-1.449,2.806-1.178,4.378l0.251,1.468
		c0.11,0.633-0.101,1.279-0.561,1.728l-1.066,1.037c-0.726,0.709-1.213,1.577-1.452,2.509c-5.625,0.007-11.249,0.03-16.872,0.098
		c-5.938,0.07-11.875,0.202-17.814,0.313c-0.19-1.086-0.703-2.11-1.533-2.919l-1.064-1.037c-0.461-0.449-0.671-1.096-0.562-1.728
		l0.25-1.468c0.271-1.573-0.159-3.169-1.179-4.378c-1.61-1.91-4.417-2.488-6.653-1.312l-1.318,0.693
		c-0.559,0.292-1.259,0.293-1.817-0.001l-1.316-0.691c-2.234-1.177-5.044-0.599-6.654,1.312c-1.019,1.209-1.449,2.806-1.179,4.378
		l0.252,1.468c0.108,0.633-0.101,1.279-0.562,1.728l-1.065,1.037c-0.847,0.827-1.37,1.873-1.552,2.983
		c-4.283-0.073-8.583-0.127-12.852,0.027C67.402,177.588,64.139,177.47,60.879,177.544z M149.431,186.572l1.066-1.039
		c1.063-1.035,1.634-2.453,1.621-3.912c3.031,0.005,6.062,0.015,9.091,0.019c1.233,0.002,2.467-0.009,3.7-0.011
		c-0.057,2.842-0.107,5.684-0.159,8.525c-1.679,0.306-3.122,1.378-3.879,2.915l-0.659,1.336c-0.336,0.68-0.992,1.088-1.751,1.088
		c-0.761,0-1.415-0.408-1.751-1.088l-0.659-1.336c-0.787-1.592-2.307-2.697-4.065-2.952l-1.471-0.214
		c-0.753-0.108-1.342-0.607-1.577-1.331C148.703,187.853,148.887,187.101,149.431,186.572z M165.004,177.429
		c-2.02-0.007-4.038-0.024-6.057-0.028c-3.661-0.005-7.322-0.005-10.981-0.005c0.012-0.013,0.019-0.03,0.033-0.042l1.064-1.041
		c1.274-1.24,1.855-3.025,1.553-4.777l-0.25-1.466c-0.127-0.742,0.156-1.268,0.417-1.576c0.377-0.448,0.94-0.715,1.505-0.715
		c0.312,0,0.617,0.078,0.911,0.233l1.316,0.691c1.543,0.813,3.48,0.813,5.024,0l1.317-0.691c0.829-0.435,1.832-0.21,2.415,0.482
		c0.262,0.309,0.545,0.834,0.418,1.576l-0.252,1.468c-0.3,1.75,0.281,3.536,1.553,4.775l0.037,0.035
		C165.021,176.709,165.013,177.068,165.004,177.429z M121.879,181.518l1.065,1.04c0.544,0.529,0.729,1.277,0.495,2.001
		c-0.236,0.724-0.825,1.219-1.577,1.33l-1.473,0.215c-1.759,0.254-3.278,1.358-4.064,2.952l-0.658,1.334
		c-0.337,0.683-0.992,1.09-1.751,1.09c-0.761,0-1.415-0.407-1.751-1.088l-0.659-1.336c-0.788-1.594-2.307-2.698-4.065-2.952
		l-1.472-0.215c-0.753-0.111-1.343-0.606-1.578-1.33c-0.235-0.724-0.05-1.472,0.495-2.001l1.065-1.04
		c0.135-0.131,0.255-0.274,0.373-0.418c5.141,0.098,10.282,0.187,15.422,0.27C121.792,181.417,121.831,181.473,121.879,181.518z
		 M90.077,171.535l-0.251-1.466c-0.127-0.742,0.156-1.268,0.417-1.576c0.377-0.448,0.94-0.715,1.506-0.715
		c0.31,0,0.616,0.078,0.91,0.233l1.317,0.691c1.542,0.813,3.479,0.813,5.024,0l1.317-0.691c0.829-0.435,1.831-0.21,2.416,0.482
		c0.261,0.309,0.546,0.834,0.418,1.576l-0.252,1.468c-0.3,1.75,0.281,3.536,1.553,4.775l1.066,1.041
		c0.156,0.151,0.27,0.327,0.363,0.509c-4.185,0.07-8.369,0.126-12.554,0.128c-2.076,0-4.167-0.027-6.265-0.063
		c0.093-0.209,0.221-0.405,0.396-0.574l1.066-1.041C89.798,175.073,90.378,173.287,90.077,171.535z M74.562,183.241l1.066,1.038
		c0.544,0.532,0.728,1.28,0.494,2.003c-0.235,0.723-0.824,1.22-1.577,1.328l-1.472,0.214c-1.758,0.257-3.279,1.36-4.065,2.955
		l-0.659,1.333c-0.33,0.671-0.969,1.068-1.71,1.083c-0.001-0.076-0.001-0.148-0.001-0.225c-0.045-4.003,0.259-8.129-0.412-12.088
		c0.877-0.008,1.752-0.027,2.629-0.061c1.44,0.076,2.885,0.116,4.331,0.146C73.446,181.818,73.907,182.604,74.562,183.241z
		 M67.316,242.154c0.012-2.146-0.048-4.289-0.137-6.43c1.035,0.099,2.096-0.076,3.018-0.563l1.318-0.689
		c0.829-0.436,1.832-0.212,2.416,0.48c0.261,0.311,0.544,0.835,0.417,1.578l-0.252,1.467c-0.272,1.594,0.191,3.211,1.236,4.426
		C72.66,242.301,69.988,242.228,67.316,242.154z M107.503,237.998l-0.25-1.467c-0.127-0.743,0.156-1.268,0.417-1.578
		c0.378-0.447,0.941-0.715,1.506-0.715c0.311,0,0.616,0.078,0.91,0.234l1.318,0.689c1.542,0.814,3.479,0.814,5.024,0l1.316-0.689
		c0.829-0.436,1.832-0.212,2.416,0.48c0.261,0.311,0.545,0.835,0.417,1.578l-0.251,1.467c-0.253,1.476,0.127,2.975,1.015,4.154
		c-5.001,0.095-10.004,0.171-15.006,0.201C107.334,241.146,107.771,239.559,107.503,237.998z M125.938,242.063
		c-0.18-0.249-0.363-0.496-0.589-0.718l-1.065-1.039c-0.46-0.447-0.67-1.095-0.562-1.727l0.251-1.467
		c0.27-1.574-0.16-3.17-1.179-4.38c-1.61-1.909-4.417-2.489-6.652-1.313l-1.317,0.693c-0.56,0.292-1.26,0.295-1.818,0l-1.317-0.693
		c-2.234-1.177-5.044-0.597-6.654,1.313c-1.019,1.21-1.449,2.806-1.179,4.38l0.252,1.467c0.108,0.634-0.102,1.279-0.562,1.727
		l-1.066,1.039c-0.316,0.31-0.57,0.657-0.795,1.022c-7.207-0.04-14.556-0.354-21.81-0.063c-0.216-0.34-0.457-0.668-0.756-0.96
		l-1.065-1.039c-0.46-0.447-0.67-1.095-0.562-1.727l0.252-1.467c0.27-1.574-0.16-3.17-1.179-4.38
		c-1.61-1.909-4.417-2.489-6.654-1.313l-1.316,0.693c-0.417,0.219-0.911,0.272-1.367,0.166c0.232-7.154-0.412-14.532-0.455-21.426
		c-0.027-4.736-0.064-9.476-0.107-14.213c2.042-0.024,3.867-1.168,4.773-3.006l0.659-1.332c0.284-0.577,0.834-0.978,1.47-1.068
		l1.473-0.214c2.047-0.298,3.717-1.706,4.357-3.677c0.641-1.967,0.116-4.086-1.365-5.532l-0.827-0.803
		c6.145,0,12.308-0.22,18.385-0.114c2.048,0.035,4.097,0.078,6.145,0.116c-0.885,1.35-1.136,3.028-0.621,4.613
		c0.64,1.968,2.31,3.376,4.357,3.673l1.473,0.214c0.636,0.094,1.187,0.492,1.47,1.068l0.659,1.333
		c0.916,1.857,2.77,3.011,4.841,3.011c2.07,0,3.924-1.153,4.841-3.011l0.657-1.333c0.285-0.576,0.834-0.975,1.47-1.068l1.473-0.214
		c2.049-0.297,3.719-1.705,4.359-3.673c0.46-1.419,0.309-2.91-0.36-4.178c0.305,0.005,0.61,0.012,0.915,0.016
		c7.132,0.098,14.264,0.131,21.397,0.15c0.015,0.543-0.18,1.068-0.575,1.452l-1.064,1.04c-1.483,1.443-2.007,3.565-1.367,5.532
		c0.64,1.969,2.311,3.377,4.357,3.674l1.473,0.215c0.636,0.092,1.186,0.49,1.47,1.068l0.659,1.334
		c0.916,1.857,2.772,3.009,4.841,3.009c2.07,0,3.925-1.151,4.841-3.009l0.659-1.334c0.162-0.329,0.418-0.588,0.722-0.771
		c-0.013,0.7-0.026,1.397-0.039,2.099c-0.214,11.807-0.407,23.639-0.381,35.454c-0.035,0.018-0.071,0.028-0.106,0.045l-1.316,0.693
		c-0.559,0.292-1.261,0.295-1.818,0l-1.316-0.693c-2.236-1.177-5.044-0.597-6.654,1.313c-1.019,1.21-1.45,2.806-1.179,4.38
		l0.251,1.467c0.109,0.634-0.101,1.279-0.561,1.727l-1.065,1.039c-0.144,0.141-0.258,0.297-0.383,0.451
		c-4.359,0.007-8.719,0.027-13.077,0.081C133.338,241.922,129.638,241.991,125.938,242.063z M162.057,241.786
		c-1.418-0.048-2.849-0.08-4.254,0c-1.014,0-2.028,0.003-3.041,0.003c0.704-1.116,0.985-2.464,0.757-3.791l-0.25-1.467
		c-0.127-0.743,0.156-1.268,0.417-1.578c0.378-0.447,0.94-0.715,1.507-0.715c0.31,0,0.616,0.078,0.91,0.234l1.316,0.689
		c1.494,0.787,3.354,0.805,4.871,0.071c0.013,2.046,0.014,4.097,0.043,6.143c0.002,0.156,0.041,0.287,0.085,0.41
		C163.631,241.784,162.845,241.786,162.057,241.786z M181.284,241.789c-2.095,0.002-4.191,0.02-6.285,0.025
		c-2.094-0.006-4.189-0.023-6.284-0.025c-0.723-0.003-1.446-0.003-2.169-0.003c0.051-0.123,0.094-0.254,0.102-0.41
		c0.8-15.884,1.087-31.827,1.375-47.727c0.072-4.001,0.144-8.003,0.207-12.006c1.021,0.016,2.052-0.01,3.09-0.03
		c1.227-0.002,2.454-0.008,3.68-0.01c1.228,0.002,2.455,0.008,3.683,0.01c1.037,0.021,2.068,0.046,3.089,0.03
		c0.062,4.003,0.136,8.005,0.205,12.006c0.288,15.899,0.575,31.843,1.376,47.727c0.008,0.156,0.052,0.287,0.102,0.41
		C182.729,241.786,182.007,241.786,181.284,241.789z M196.033,211.145l1.064,1.038c0.545,0.531,0.729,1.279,0.494,2.003
		c-0.233,0.724-0.823,1.22-1.576,1.327l-1.473,0.214c-1.758,0.255-3.277,1.361-4.065,2.956l-0.658,1.333
		c-0.337,0.681-0.992,1.089-1.751,1.089c-0.761,0-1.415-0.408-1.751-1.089l-0.622-1.262c-0.049-5.088-0.123-10.175-0.21-15.259
		l0.071,0.038c1.542,0.812,3.479,0.812,5.023,0l1.318-0.692c0.828-0.434,1.831-0.209,2.416,0.482
		c0.259,0.311,0.544,0.835,0.416,1.575l-0.253,1.47C194.179,208.118,194.761,209.904,196.033,211.145z M198.016,241.794l0.88-0.859
		c1.273-1.239,1.854-3.028,1.554-4.779l-0.252-1.466c-0.129-0.741,0.156-1.265,0.418-1.574c0.376-0.449,0.94-0.717,1.505-0.717
		c0.31,0,0.617,0.078,0.911,0.234l1.316,0.691c1.541,0.811,3.479,0.811,5.022,0l1.318-0.693c0.829-0.434,1.832-0.209,2.416,0.484
		c0.26,0.31,0.545,0.833,0.418,1.574l-0.251,1.469c-0.301,1.751,0.279,3.537,1.552,4.776l1.015,0.987
		c-0.959-0.015-1.917-0.032-2.874-0.044C207.979,241.817,202.996,241.8,198.016,241.794z M250.105,242.358
		c0.008-0.008,0.013-0.018,0.021-0.024l1.066-1.038c1.271-1.242,1.852-3.029,1.551-4.78l-0.251-1.467
		c-0.126-0.743,0.156-1.267,0.418-1.576c0.378-0.446,0.939-0.713,1.507-0.713c0.31,0,0.614,0.078,0.909,0.231l1.314,0.692
		c1.545,0.812,3.483,0.812,5.024,0l1.318-0.692c0.829-0.437,1.831-0.209,2.416,0.481c0.262,0.31,0.544,0.833,0.418,1.576
		l-0.252,1.467c-0.3,1.751,0.282,3.538,1.554,4.78l0.979,0.951C262.105,242.094,256.064,242.293,250.105,242.358z M282.683,242.154
		c-2.993,0.081-5.983,0.153-8.974,0.308c-0.122,0.007-0.245,0.01-0.364,0.016c-0.43-0.028-0.863-0.044-1.297-0.069
		c-0.236-0.946-0.726-1.829-1.459-2.542l-1.065-1.04c-0.461-0.448-0.67-1.094-0.563-1.729l0.253-1.467
		c0.27-1.574-0.161-3.169-1.18-4.378c-1.61-1.91-4.419-2.489-6.653-1.31l-1.318,0.689c-0.56,0.294-1.26,0.294-1.815,0l-1.318-0.689
		c-2.235-1.18-5.044-0.601-6.654,1.31c-1.018,1.209-1.448,2.807-1.179,4.378l0.251,1.467c0.109,0.635-0.101,1.28-0.561,1.729
		l-1.066,1.04c-0.723,0.706-1.212,1.572-1.451,2.505c-8.849-0.013-17.699-0.229-26.551-0.386c-0.241-0.92-0.708-1.781-1.423-2.479
		l-1.066-1.038c-0.46-0.449-0.672-1.097-0.561-1.729l0.251-1.469c0.27-1.572-0.161-3.17-1.179-4.38
		c-1.612-1.909-4.419-2.485-6.654-1.31l-1.317,0.693c-0.56,0.292-1.261,0.292-1.816-0.003l-1.317-0.69
		c-2.235-1.176-5.044-0.6-6.654,1.31c-1.021,1.21-1.449,2.808-1.18,4.38l0.253,1.469c0.107,0.632-0.102,1.279-0.563,1.729
		l-1.065,1.038c-0.665,0.647-1.119,1.436-1.378,2.282c-0.617,0-1.235-0.003-1.853-0.003c-1.402-0.08-2.834-0.048-4.253,0
		c-0.788,0-1.574-0.002-2.361,0c0.046-0.123,0.083-0.254,0.087-0.41c0.08-5.789,0.08-11.587,0.053-17.384
		c0.718,0.35,1.509,0.559,2.348,0.559c2.068,0,3.926-1.153,4.84-3.011l0.66-1.332c0.285-0.578,0.834-0.979,1.469-1.072l1.474-0.214
		c2.049-0.297,3.717-1.702,4.357-3.673c0.64-1.968,0.115-4.09-1.366-5.533l-1.065-1.037c-0.459-0.449-0.67-1.097-0.563-1.729
		l0.252-1.47c0.271-1.571-0.158-3.169-1.179-4.379c-1.609-1.909-4.419-2.486-6.653-1.31l-1.316,0.692
		c-0.559,0.292-1.262,0.292-1.818-0.002l-1.314-0.69c-0.14-0.073-0.283-0.131-0.427-0.189c-0.021-1.228-0.04-2.453-0.063-3.681
		c-0.085-4.765-0.168-9.528-0.264-14.293c1.231,0.002,2.466,0.013,3.698,0.011c2.242-0.004,4.482-0.011,6.724-0.014
		c-0.591,1.228-0.715,2.646-0.274,3.999c0.641,1.968,2.311,3.376,4.359,3.673l1.472,0.214c0.635,0.094,1.187,0.492,1.471,1.068
		l0.658,1.333c0.917,1.857,2.771,3.011,4.84,3.011c2.071,0,3.926-1.153,4.842-3.011l0.658-1.333
		c0.285-0.576,0.834-0.975,1.472-1.068l1.471-0.214c2.049-0.297,3.719-1.705,4.359-3.673c0.456-1.406,0.31-2.885-0.346-4.143
		c0.743-0.01,1.489-0.008,2.234-0.02c7.97-0.108,15.935-0.268,23.9-0.421l-0.788,0.771c-1.484,1.446-2.006,3.565-1.366,5.536
		c0.641,1.967,2.309,3.375,4.355,3.673l1.476,0.214c0.634,0.091,1.186,0.491,1.468,1.068l0.66,1.332
		c0.915,1.857,2.77,3.012,4.841,3.012c2.07,0,3.925-1.154,4.842-3.012l0.658-1.332c0.284-0.577,0.833-0.978,1.469-1.068l1.474-0.214
		c2.048-0.298,3.719-1.706,4.358-3.677c0.641-1.967,0.115-4.086-1.367-5.532l-0.857-0.836c4.439,0.058,8.884,0.075,13.293-0.154
		c0.877,0.033,1.753,0.053,2.63,0.061c-0.672,3.959-0.367,8.085-0.413,12.088c-0.022,2.093-0.03,4.181-0.048,6.27
		c-0.622,0.075-1.239,0.246-1.816,0.552l-1.317,0.692c-0.56,0.292-1.26,0.292-1.816-0.002l-1.318-0.69
		c-2.234-1.177-5.044-0.6-6.653,1.31c-1.018,1.21-1.449,2.808-1.18,4.379l0.252,1.47c0.108,0.632-0.101,1.279-0.562,1.729
		l-1.065,1.037c-1.482,1.443-2.006,3.565-1.366,5.533c0.641,1.971,2.311,3.376,4.359,3.673l1.471,0.214
		c0.638,0.094,1.187,0.494,1.472,1.068l0.657,1.336c0.917,1.857,2.771,3.011,4.843,3.011c1.343,0,2.593-0.493,3.558-1.346
		c-0.129,3.789-0.191,7.597,0.037,11.32C282.744,237.067,282.67,239.607,282.683,242.154z M281.681,218.683l-0.658,1.333
		c-0.338,0.681-0.992,1.089-1.751,1.089c-0.761,0-1.416-0.408-1.754-1.089l-0.657-1.335c-0.786-1.593-2.306-2.699-4.063-2.954
		l-1.475-0.214c-0.75-0.107-1.341-0.604-1.574-1.327c-0.237-0.724-0.051-1.472,0.494-2.003l1.064-1.038
		c1.273-1.24,1.853-3.028,1.553-4.779l-0.252-1.467c-0.126-0.74,0.155-1.265,0.419-1.575c0.377-0.447,0.939-0.715,1.506-0.715
		c0.31,0,0.615,0.078,0.909,0.232l1.315,0.692c1.545,0.812,3.482,0.812,5.024,0l1.317-0.692c0.061-0.03,0.126-0.039,0.188-0.061
		c-0.02,2.69-0.045,5.384-0.063,8.074c-0.01,1.99-0.075,4.023-0.153,6.077C282.498,217.405,282.021,217.995,281.681,218.683z
		 M279.35,177.895c-0.721-0.027-1.444-0.022-2.164-0.037c-0.118-0.161-0.222-0.335-0.287-0.54c-0.236-0.72-0.051-1.471,0.494-2
		l1.065-1.038c1.271-1.242,1.852-3.028,1.552-4.779l-0.252-1.468c-0.126-0.742,0.156-1.266,0.418-1.576
		c0.378-0.447,0.94-0.714,1.507-0.714c0.31,0,0.615,0.078,0.909,0.233l1.316,0.691c1.267,0.667,2.795,0.776,4.159,0.35
		c0.37,3.516,0.766,7.028,1.053,10.527C285.859,177.47,282.598,177.588,279.35,177.895z"/>
	<path fill="#353581" d="M103.104,208.679c-0.461-0.449-0.671-1.097-0.562-1.729l0.25-1.47c0.271-1.571-0.159-3.169-1.179-4.379
		c-1.61-1.909-4.417-2.486-6.653-1.31l-1.318,0.692c-0.559,0.292-1.26,0.292-1.818-0.002l-1.316-0.69
		c-2.235-1.177-5.044-0.6-6.654,1.31c-1.019,1.21-1.449,2.808-1.179,4.379l0.252,1.47c0.108,0.632-0.101,1.279-0.563,1.729
		l-1.065,1.037c-1.483,1.443-2.006,3.565-1.366,5.533c0.64,1.971,2.311,3.376,4.357,3.673l1.473,0.214
		c0.636,0.094,1.187,0.494,1.47,1.068l0.659,1.336c0.916,1.857,2.77,3.011,4.841,3.011c2.07,0,3.924-1.153,4.841-3.011l0.657-1.332
		c0.285-0.578,0.834-0.979,1.471-1.072l1.473-0.214c2.047-0.297,3.718-1.702,4.357-3.673c0.64-1.968,0.116-4.09-1.367-5.533
		L103.104,208.679z M102.259,214.186c-0.235,0.724-0.825,1.22-1.577,1.327l-1.471,0.214c-1.759,0.255-3.279,1.361-4.065,2.956
		l-0.659,1.333c-0.336,0.681-0.991,1.089-1.75,1.089c-0.761,0-1.415-0.408-1.751-1.089l-0.659-1.335
		c-0.786-1.593-2.306-2.699-4.065-2.954l-1.471-0.214c-0.753-0.107-1.342-0.604-1.577-1.327s-0.05-1.472,0.494-2.003l1.066-1.038
		c1.272-1.24,1.853-3.028,1.553-4.779l-0.252-1.467c-0.127-0.74,0.156-1.265,0.417-1.575c0.378-0.447,0.941-0.715,1.507-0.715
		c0.31,0,0.616,0.078,0.909,0.232l1.318,0.692c1.542,0.812,3.479,0.812,5.024,0l1.316-0.692c0.829-0.434,1.832-0.209,2.416,0.482
		c0.261,0.311,0.546,0.835,0.418,1.575l-0.252,1.47c-0.3,1.75,0.281,3.536,1.553,4.776l1.066,1.038
		C102.308,212.714,102.493,213.462,102.259,214.186z"/>
	<path fill="#353581" d="M146.164,210.633c-0.461-0.448-0.671-1.093-0.563-1.728l0.252-1.467c0.27-1.574-0.16-3.17-1.179-4.379
		c-1.61-1.91-4.417-2.487-6.652-1.311l-1.318,0.69c-0.56,0.295-1.26,0.295-1.818,0l-1.316-0.69c-2.234-1.177-5.044-0.6-6.654,1.311
		c-1.019,1.209-1.449,2.807-1.179,4.379l0.252,1.467c0.108,0.635-0.102,1.279-0.562,1.728l-1.065,1.041
		c-1.483,1.443-2.006,3.564-1.366,5.532c0.64,1.969,2.309,3.377,4.357,3.674l1.473,0.214c0.636,0.094,1.186,0.492,1.47,1.068
		l0.659,1.336c0.916,1.856,2.77,3.008,4.841,3.008c2.07,0,3.924-1.151,4.841-3.008l0.657-1.336c0.285-0.576,0.834-0.975,1.47-1.068
		l1.473-0.214c2.049-0.297,3.719-1.705,4.358-3.674c0.64-1.968,0.117-4.089-1.367-5.532L146.164,210.633z M145.318,216.143
		c-0.235,0.722-0.825,1.221-1.577,1.328l-1.473,0.215c-1.759,0.254-3.277,1.36-4.064,2.952l-0.659,1.336
		c-0.336,0.68-0.992,1.088-1.751,1.088c-0.761,0-1.415-0.408-1.751-1.088l-0.659-1.336c-0.787-1.592-2.306-2.698-4.065-2.952
		l-1.471-0.215c-0.753-0.107-1.343-0.606-1.577-1.328c-0.235-0.722-0.05-1.474,0.494-2.003l1.066-1.038
		c1.273-1.242,1.853-3.027,1.552-4.778l-0.251-1.467c-0.127-0.743,0.157-1.267,0.417-1.578c0.378-0.445,0.941-0.713,1.506-0.713
		c0.31,0,0.616,0.079,0.91,0.232l1.316,0.692c1.543,0.813,3.481,0.813,5.025,0l1.317-0.692c0.829-0.436,1.831-0.209,2.416,0.48
		c0.261,0.312,0.545,0.835,0.418,1.578l-0.252,1.467c-0.301,1.751,0.281,3.536,1.553,4.778l1.066,1.038
		C145.367,214.669,145.552,215.417,145.318,216.143z"/>
	<path fill="#353581" d="M241.95,212.122c-0.458-0.448-0.67-1.096-0.563-1.729l0.253-1.466c0.27-1.574-0.159-3.17-1.18-4.38
		c-1.61-1.909-4.419-2.489-6.654-1.313l-1.314,0.693c-0.559,0.292-1.263,0.295-1.818,0l-1.318-0.693
		c-2.234-1.177-5.042-0.597-6.653,1.313c-1.019,1.21-1.449,2.806-1.178,4.38l0.249,1.466c0.109,0.635-0.101,1.28-0.559,1.729
		l-1.065,1.038c-1.484,1.446-2.008,3.564-1.368,5.535c0.64,1.968,2.311,3.376,4.358,3.673l1.474,0.215
		c0.635,0.093,1.185,0.491,1.47,1.067l0.656,1.334c0.918,1.856,2.772,3.011,4.844,3.011c2.068,0,3.926-1.154,4.839-3.011
		l0.661-1.334c0.281-0.576,0.834-0.975,1.469-1.067l1.474-0.215c2.049-0.297,3.717-1.705,4.355-3.673
		c0.641-1.971,0.117-4.089-1.364-5.535L241.95,212.122z M241.106,217.63c-0.234,0.723-0.824,1.22-1.578,1.33l-1.471,0.215
		c-1.758,0.254-3.277,1.357-4.066,2.952l-0.658,1.333c-0.337,0.683-0.992,1.091-1.75,1.091c-0.761,0-1.417-0.408-1.751-1.088
		l-0.66-1.336c-0.787-1.595-2.306-2.698-4.063-2.952l-1.472-0.215c-0.754-0.11-1.344-0.607-1.578-1.33
		c-0.233-0.724-0.05-1.472,0.495-2.001l1.064-1.04c1.272-1.24,1.854-3.026,1.552-4.777l-0.251-1.466
		c-0.126-0.743,0.159-1.268,0.418-1.578c0.378-0.445,0.939-0.715,1.507-0.715c0.31,0,0.617,0.08,0.909,0.234l1.318,0.689
		c1.541,0.814,3.479,0.814,5.023,0l1.317-0.689c0.829-0.436,1.832-0.212,2.414,0.48c0.262,0.311,0.547,0.835,0.418,1.578
		l-0.252,1.466c-0.3,1.751,0.282,3.537,1.554,4.777l1.066,1.04C241.156,216.158,241.34,216.906,241.106,217.63z"/>
</g>
</svg>
