<?xml version="1.0" encoding="utf-8"?>
<!-- Generator: Adobe Illustrator 16.0.0, SVG Export Plug-In . SVG Version: 6.00 Build 0)  -->
<!DOCTYPE svg PUBLIC "-//W3C//DTD SVG 1.1//EN" "http://www.w3.org/Graphics/SVG/1.1/DTD/svg11.dtd">
<svg version="1.1" id="Layer_1" xmlns="http://www.w3.org/2000/svg" xmlns:xlink="http://www.w3.org/1999/xlink" x="0px" y="0px"
	 width="350px" height="350px" viewBox="0 0 350 350" enable-background="new 0 0 350 350" xml:space="preserve">
<g>
	<g opacity="0.7">
		<image overflow="visible" width="288" height="286" xlink:href="4431900C.png"  transform="matrix(1 0 0 1 31 32)">
		</image>
	</g>
	<path fill="#FFFFFF" d="M273.577,269.735l0.201-69.259c4.848-1.545,8.366-6.078,8.384-11.44l0.111-38.403
		c0.01-3.194-1.25-6.261-3.501-8.526c-1.405-1.413-3.124-2.442-4.995-3.018c-1.128-0.348-2.31-0.53-3.511-0.535l-27.583-0.081
		c-0.147-0.128-0.298-0.256-0.447-0.383c7.133-6.688,11.632-14.807,13.442-24.31c3.924-20.597-5.547-38.167-23.569-43.722
		c-7.903-2.436-16.781-2.402-26.384,0.101c-7.148,1.862-13.409,6.069-18.753,12.583c-2.437-3.091-5.377-5.776-8.819-8.047
		c-3.238-2.136-6.619-3.755-10.052-4.813c-8.833-2.723-17.728-1.663-25.045,2.986c-8.284,5.263-13.768,14.697-15.439,26.562
		c-0.043,0.305-0.081,0.609-0.114,0.914l-7.549-4.41c-0.81-0.473-1.658-0.843-2.528-1.111c-3.666-1.13-7.72-0.457-10.855,1.938
		c-3.882,2.964-5.588,7.979-4.322,12.695l2.313,8.617l-11.575,8.29c-3.721,2.665-5.588,7.188-4.886,11.655l-8.181-0.023
		c-3.194-0.01-6.263,1.25-8.527,3.502c-2.265,2.252-3.543,5.312-3.553,8.506l-0.113,38.403c-0.01,3.194,1.25,6.262,3.503,8.526
		c1.36,1.367,3.013,2.376,4.813,2.959l-0.205,69.265c-0.01,3.194,1.25,6.26,3.502,8.525c1.405,1.414,3.125,2.442,4.995,3.02
		c1.127,0.347,2.309,0.53,3.511,0.533l173.653,0.51c3.194,0.011,6.259-1.25,8.525-3.502
		C272.289,275.988,273.566,272.93,273.577,269.735z"/>
	<g>
		<g>
			
				<rect x="79.827" y="150.312" transform="matrix(1 0.003 -0.003 1 0.5017 -0.5164)" fill="#8C86E6" width="190.348" height="38.404"/>
		</g>
		<g>
			
				<rect x="88" y="188.291" transform="matrix(1 0.0029 -0.0029 1 0.6752 -0.5142)" fill="#9EFFC1" width="173.651" height="81.149"/>
		</g>
		<g>
			<g>
				<path fill="none" d="M179.911,136.876c0.026-0.204,0.055-0.404,0.085-0.622c-0.056,0.201-0.11,0.384-0.167,0.576
					C179.854,136.847,179.886,136.861,179.911,136.876z"/>
			</g>
			<g>
				<path fill="none" d="M186.437,148.248l-1.687,0.684c-0.139,0.495-0.282,0.989-0.49,1.451c0.867,1.691,2.774,5.198,5.239,8.448
					c3.398,4.477,10.187,12.388,19.465,10.484c9.279-1.897,12.787-10.24,6.151-19.052
					C208.487,141.451,186.437,148.248,186.437,148.248z"/>
			</g>
			<g>
				<path fill="none" d="M177.772,135.924c0.57-2.013,1.249-4.754,1.639-7.6c0.765-5.565,1.559-15.96-6.346-21.175
					c-7.906-5.221-16.286-1.802-17.826,9.12c-1.148,8.143,9.888,16.205,15.584,19.782c1.163-0.43,2.404-0.695,3.716-0.691
					C175.674,135.362,176.744,135.59,177.772,135.924z"/>
			</g>
			<g>
				<path fill="none" d="M198.583,107.818c-11.597,3.022-15.287,24.651-16.14,31.13c1.318,1.473,2.232,3.296,2.576,5.33
					c2.697-0.272,6.979-0.842,11.229-1.965c6.953-1.84,19.623-6.021,21.893-17.93C220.409,112.473,212.243,104.26,198.583,107.818z"
					/>
			</g>
			<g>
				<path fill="#FD7198" d="M243.848,111.521c4.07-21.36-10.579-36.098-35.088-29.712c-13.964,3.636-21.534,22.319-25.469,37.729
					c1.109-10.39,1.016-26.36-11.772-34.796c-14.181-9.358-29.216-3.226-31.976,16.367c-2.133,15.104,19.102,30.047,28.955,36.111
					c-0.259,0.175-0.483,0.396-0.725,0.595l-53.895-31.487L118.355,123l-18.356,13.147l63.824,9.856
					c0,0.004-0.002,0.006-0.001,0.011c-0.004,1.082,0.201,2.107,0.499,3.094l-52.394,22.575l14.899,5.835l-0.287,20.924
					l43.161-42.901c1.441,0.731,3.048,1.186,4.774,1.191c3.438,0.009,6.465-1.633,8.426-4.145c1.83,3.349,4.663,8.154,8.081,12.662
					c6.096,8.034,18.276,22.229,34.916,18.817c16.644-3.409,22.94-18.375,11.04-34.184c-5.248-6.973-15.867-8.498-26.105-8.027
					C223.496,137.789,240.393,129.659,243.848,111.521z M179.911,136.876c-0.025-0.015-0.057-0.029-0.082-0.046
					c0.057-0.192,0.111-0.375,0.167-0.576C179.966,136.472,179.938,136.672,179.911,136.876z M155.239,116.269
					c1.54-10.921,9.92-14.341,17.826-9.12c7.904,5.215,7.11,15.609,6.346,21.175c-0.39,2.846-1.068,5.587-1.639,7.6
					c-1.028-0.333-2.099-0.562-3.233-0.564c-1.312-0.004-2.553,0.262-3.716,0.691C165.127,132.473,154.091,124.411,155.239,116.269z
					 M215.115,150.262c6.636,8.812,3.128,17.155-6.151,19.052c-9.278,1.903-16.066-6.007-19.465-10.484
					c-2.465-3.25-4.372-6.757-5.239-8.448c0.208-0.462,0.352-0.956,0.49-1.451l1.687-0.684
					C186.437,148.248,208.487,141.451,215.115,150.262z M218.142,124.382c-2.27,11.909-14.939,16.09-21.893,17.93
					c-4.25,1.124-8.532,1.693-11.229,1.965c-0.344-2.034-1.258-3.857-2.576-5.33c0.853-6.479,4.543-28.108,16.14-31.13
					C212.243,104.26,220.409,112.473,218.142,124.382z"/>
			</g>
		</g>
		<g>
			<path fill="#8C86E6" d="M219.728,188.421c-1.305,11.692,6.677,22.578,18.416,24.661c1.063,0.189,2.124,0.285,3.179,0.288
				c3.732,0.011,7.367-1.119,10.487-3.3c4.003-2.797,6.676-6.985,7.528-11.79c0.619-3.469-0.032-6.871-1.607-9.746l-3.173-0.009
				c1.875,2.591,2.753,5.896,2.15,9.286c-0.728,4.104-3.011,7.681-6.43,10.067c-3.416,2.39-7.562,3.304-11.667,2.575
				c-10.444-1.856-17.511-11.611-16.194-22.021L219.728,188.421z"/>
			<path fill="#8C86E6" d="M236.841,188.474l-2.988-0.009c-0.308,0.765-0.544,1.569-0.694,2.413
				c-0.965,5.435,2.673,10.642,8.109,11.605c2.177,0.388,4.37-0.098,6.187-1.362c1.81-1.267,3.021-3.163,3.409-5.342
				c0.321-1.809-0.084-3.638-1.138-5.146c-0.642-0.919-1.494-1.623-2.459-2.128l-5.839-0.019c-0.154,0.09-0.318,0.16-0.461,0.26
				c-1.266,0.887-2.112,2.21-2.38,3.729c-0.23,1.285,0.057,2.585,0.804,3.654c0.745,1.071,1.868,1.784,3.153,2.012
				c1.097,0.189,2.208-0.047,3.123-0.687c0.913-0.639,1.526-1.596,1.724-2.695c0.127-0.726-0.358-1.42-1.085-1.549
				c-0.726-0.121-1.418,0.354-1.548,1.082c-0.072,0.396-0.29,0.742-0.621,0.973c-0.328,0.232-0.728,0.323-1.124,0.248
				c-0.584-0.104-1.093-0.429-1.433-0.915c-0.339-0.482-0.468-1.069-0.363-1.656c0.144-0.816,0.598-1.527,1.277-2.003
				c0.683-0.474,1.506-0.655,2.321-0.512c1.108,0.195,2.076,0.814,2.721,1.736c0.646,0.923,0.893,2.042,0.696,3.15
				c-0.541,3.045-3.449,5.088-6.499,4.538c-3.983-0.707-6.649-4.525-5.944-8.509C235.975,190.304,236.36,189.354,236.841,188.474z"
				/>
			<path fill="#8C86E6" d="M173.51,188.708c1.347,1.429,2.054,3.293,1.994,5.251c-0.056,1.959-0.874,3.778-2.302,5.124
				c-1.09,1.025-2.527,1.576-4.011,1.524c-1.496-0.045-2.887-0.671-3.913-1.761c-1.594-1.692-1.514-4.367,0.178-5.959
				c1.249-1.175,3.218-1.115,4.392,0.13c0.406,0.432,0.619,0.995,0.603,1.587c-0.019,0.592-0.265,1.14-0.696,1.547
				c-0.294,0.273-0.645,0.455-1.079,0.409c-0.401-0.011-0.775-0.178-1.051-0.472c-0.503-0.534-1.351-0.562-1.889-0.056
				c-0.536,0.506-0.562,1.351-0.055,1.891c1.582,1.673,4.231,1.754,5.904,0.174c0.951-0.896,1.496-2.107,1.538-3.413
				c0.037-1.306-0.435-2.548-1.331-3.5c-2.187-2.314-5.849-2.424-8.168-0.242c-2.765,2.604-2.896,6.974-0.289,9.734
				c1.516,1.612,3.566,2.534,5.776,2.601c2.195,0.024,4.313-0.733,5.923-2.253c1.945-1.831,3.063-4.313,3.143-6.985
				c0.063-2.065-0.516-4.049-1.622-5.743l-3.529-0.012C173.185,188.432,173.36,188.548,173.51,188.708z"/>
			<path fill="#8C86E6" d="M186.997,222.41c0.658-0.335,0.92-1.139,0.587-1.796c-0.333-0.655-1.137-0.919-1.795-0.587
				c-11.072,5.62-15.509,19.199-9.891,30.271c2.211,4.354,5.985,7.587,10.627,9.104c1.85,0.604,3.749,0.906,5.64,0.913
				c2.854,0.009,5.691-0.657,8.309-1.991c7.322-3.714,10.258-12.692,6.543-20.017c-3.042-5.989-10.385-8.385-16.376-5.351
				c-2.386,1.213-4.155,3.279-4.986,5.822c-0.828,2.54-0.617,5.255,0.592,7.638c2.062,4.069,7.058,5.695,11.126,3.635
				c1.64-0.833,2.856-2.256,3.43-4.006c0.568-1.747,0.425-3.612-0.406-5.254c-1.44-2.84-4.924-3.979-7.77-2.538
				c-1.163,0.591-2.028,1.6-2.434,2.841c-0.404,1.242-0.304,2.567,0.289,3.729c0.504,0.995,1.364,1.734,2.428,2.082
				c1.063,0.353,2.195,0.263,3.188-0.243c0.659-0.334,0.92-1.137,0.587-1.796c-0.334-0.656-1.134-0.924-1.794-0.586
				c-0.361,0.18-0.771,0.209-1.15,0.088c-0.384-0.126-0.691-0.391-0.874-0.754c-0.271-0.527-0.317-1.128-0.134-1.69
				c0.181-0.562,0.576-1.02,1.104-1.286c1.528-0.775,3.404-0.165,4.177,1.361c0.511,1.005,0.598,2.147,0.248,3.218
				c-0.351,1.071-1.096,1.942-2.1,2.45c-2.759,1.399-6.137,0.292-7.533-2.459c-0.888-1.749-1.043-3.738-0.434-5.603
				c0.607-1.862,1.907-3.376,3.655-4.266c4.676-2.375,10.413-0.497,12.783,4.175c3.049,6.01,0.64,13.379-5.366,16.426
				c-3.717,1.893-7.948,2.221-11.913,0.92c-3.965-1.292-7.186-4.053-9.072-7.771C173.331,239.332,177.238,227.362,186.997,222.41z"
				/>
			<path fill="#8C86E6" d="M160.144,188.248l-3.534-0.01c-4.305,5.687-4.05,13.815,1,19.177c3.349,3.552,7.882,5.591,12.763,5.734
				c0.168,0.007,0.335,0.01,0.503,0.01c4.696,0.013,9.146-1.743,12.577-4.977c4.378-4.123,6.887-9.705,7.067-15.718
				c0.041-1.398-0.058-2.775-0.266-4.128l-2.701-0.007c0.231,1.323,0.337,2.681,0.296,4.055c-0.157,5.3-2.369,10.221-6.228,13.854
				c-3.035,2.86-6.987,4.367-11.171,4.241c-4.166-0.125-8.037-1.864-10.896-4.898c-4.619-4.903-4.39-12.653,0.515-17.275
				C160.093,188.283,160.121,188.271,160.144,188.248z"/>
			<path fill="#8C86E6" d="M260.355,269.69l1.176,0.005l0.008-2.373c-0.206,0.526-0.436,1.045-0.704,1.552
				C260.688,269.156,260.516,269.416,260.355,269.69z"/>
			<path fill="#8C86E6" d="M102.256,212.722c5.765,0.015,11.539-2.163,15.941-6.538c0.524-0.521,0.524-1.367,0.004-1.891
				c-0.519-0.521-1.364-0.525-1.889-0.003c-7.764,7.714-20.354,7.674-28.066-0.084c-0.066-0.068-0.107-0.146-0.173-0.213
				l-0.013,3.65C92.174,211.013,97.212,212.705,102.256,212.722z"/>
			<path fill="#8C86E6" d="M120.98,249.975c-0.402-0.014-0.776-0.183-1.053-0.475c-0.504-0.535-1.349-0.561-1.889-0.053
				c-0.534,0.502-0.558,1.347-0.055,1.886c1.583,1.679,4.23,1.757,5.906,0.174c0.951-0.896,1.495-2.104,1.536-3.414
				c0.04-1.304-0.435-2.545-1.329-3.496c-2.185-2.317-5.85-2.427-8.168-0.24c-2.764,2.599-2.895,6.971-0.292,9.734
				c1.519,1.61,3.571,2.529,5.778,2.597c2.144,0.046,4.313-0.735,5.923-2.25c1.945-1.832,3.062-4.313,3.143-6.984
				c0.079-2.676-0.885-5.22-2.72-7.166c-4.604-4.883-12.33-5.115-17.22-0.514c-5.976,5.632-6.257,15.078-0.625,21.048
				c3.347,3.555,7.878,5.594,12.759,5.742c0.169,0.005,0.337,0.007,0.504,0.011c4.696,0.008,9.146-1.746,12.578-4.981
				c4.378-4.122,6.887-9.701,7.065-15.716c0.181-6.013-1.991-11.734-6.118-16.111c-0.506-0.539-1.35-0.563-1.888-0.057
				c-0.538,0.507-0.562,1.352-0.057,1.888c3.634,3.857,5.551,8.904,5.394,14.199c-0.158,5.299-2.37,10.219-6.229,13.854
				c-3.032,2.855-6.99,4.374-11.169,4.239c-4.17-0.122-8.039-1.862-10.896-4.897c-4.619-4.902-4.392-12.651,0.514-17.274
				c3.818-3.592,9.849-3.411,13.443,0.4c1.344,1.43,2.052,3.293,1.994,5.252c-0.059,1.961-0.876,3.778-2.304,5.122
				c-1.091,1.024-2.512,1.624-4.013,1.523c-1.494-0.045-2.886-0.666-3.911-1.758c-0.771-0.821-1.18-1.89-1.147-3.018
				c0.036-1.122,0.505-2.17,1.324-2.943c1.25-1.175,3.218-1.111,4.392,0.133c0.406,0.428,0.619,0.996,0.602,1.586
				c-0.017,0.591-0.264,1.14-0.696,1.548C121.766,249.84,121.416,250.005,120.98,249.975z"/>
			<path fill="#8C86E6" d="M255.484,245.44c-7.27-3.807-16.29-0.988-20.104,6.287c-3.11,5.95-0.803,13.324,5.148,16.439
				c2.369,1.241,5.078,1.483,7.63,0.687c2.551-0.799,4.639-2.547,5.878-4.915c1.026-1.959,1.228-4.198,0.568-6.308
				c-0.663-2.109-2.103-3.838-4.063-4.861c-1.63-0.854-3.496-1.02-5.251-0.473c-1.754,0.551-3.19,1.751-4.045,3.383
				c-1.477,2.821-0.382,6.32,2.44,7.798c1.16,0.605,2.483,0.726,3.728,0.334c1.245-0.392,2.265-1.241,2.869-2.398
				c0.52-0.989,0.621-2.12,0.287-3.184c-0.333-1.067-1.06-1.939-2.047-2.456c-0.654-0.347-1.462-0.091-1.805,0.563
				c-0.342,0.654-0.091,1.457,0.563,1.802c0.357,0.188,0.62,0.502,0.737,0.885c0.121,0.385,0.085,0.791-0.104,1.15
				c-0.273,0.525-0.735,0.912-1.301,1.088c-0.564,0.179-1.163,0.121-1.688-0.154c-1.518-0.793-2.107-2.674-1.313-4.19
				c0.521-0.995,1.401-1.735,2.478-2.069c1.074-0.337,2.217-0.232,3.212,0.288c1.328,0.694,2.303,1.864,2.75,3.292
				c0.447,1.432,0.312,2.947-0.384,4.27c-1.873,3.588-6.314,4.983-9.906,3.103c-4.645-2.431-6.447-8.19-4.018-12.834
				c3.129-5.968,10.525-8.289,16.5-5.158c3.438,1.799,5.978,4.777,7.326,8.385l0.015-5.56
				C259.979,248.496,257.921,246.715,255.484,245.44z"/>
			<path fill="#8C86E6" d="M105.554,195.629c-2.871,2.854-7.527,2.842-10.38-0.029c-2.06-2.072-2.138-5.351-0.293-7.545l-3.146-0.01
				c-1.49,3.075-0.999,6.878,1.544,9.438c3.892,3.913,10.245,3.932,14.16,0.041c2.589-2.575,3.728-6.033,3.51-9.422l-2.671-0.005
				C108.502,190.796,107.623,193.573,105.554,195.629z"/>
			<path fill="#8C86E6" d="M102.063,189.889c-0.004,0.83-0.329,1.609-0.917,2.193c-0.841,0.835-2.301,0.83-3.136-0.01
				c-0.586-0.589-0.583-1.544,0.007-2.132c0.519-0.517,0.522-1.352,0.014-1.876l-1.907-0.006c-1.623,1.625-1.629,4.267-0.009,5.896
				c1.901,1.914,5.002,1.923,6.915,0.021c1.599-1.588,2.046-3.884,1.393-5.894l-3.006-0.01
				C101.806,188.605,102.065,189.217,102.063,189.889z"/>
		</g>
		<g>
			
				<rect x="167.201" y="149.886" transform="matrix(1 0.0027 -0.0027 1 0.5737 -0.4772)" fill="#FD7198" width="15.363" height="119.551"/>
		</g>
		<g>
			
				<rect x="167.147" y="142.038" transform="matrix(-0.0029 1 -1 -0.0029 404.1902 54.6931)" fill="#FD7198" width="15.359" height="173.653"/>
		</g>
	</g>
</g>
</svg>
