<?xml version="1.0" encoding="utf-8"?>
<!-- Generator: Adobe Illustrator 16.0.0, SVG Export Plug-In . SVG Version: 6.00 Build 0)  -->
<!DOCTYPE svg PUBLIC "-//W3C//DTD SVG 1.1//EN" "http://www.w3.org/Graphics/SVG/1.1/DTD/svg11.dtd">
<svg version="1.1" id="Layer_1" xmlns="http://www.w3.org/2000/svg" xmlns:xlink="http://www.w3.org/1999/xlink" x="0px" y="0px"
	 width="350px" height="350px" viewBox="0 0 350 350" enable-background="new 0 0 350 350" xml:space="preserve">
<g>
	<g>
		
			<circle fill="#5B515A" stroke="#443633" stroke-width="5" stroke-linecap="round" stroke-linejoin="round" stroke-miterlimit="10" cx="128.072" cy="52.217" r="19.824"/>
		<g>
			<path fill="#5B515A" d="M121.491,112.744c-1.191,0-2.156-0.965-2.156-2.156V92.447c0-30.888,24.972-56.016,55.665-56.016
				c14.861,0,28.843,5.827,39.368,16.408c10.51,10.593,16.297,24.659,16.297,39.608v18.141c0,1.19-0.965,2.156-2.155,2.156H121.491z
				"/>
			<g>
				<path fill="#443633" d="M175,38.586c14.768,0,28.15,6.033,37.84,15.772c9.676,9.752,15.67,23.211,15.67,38.088v18.142H121.491
					V92.447C121.491,62.705,145.452,38.586,175,38.586 M175,34.275c-31.882,0-57.82,26.096-57.82,58.172v18.142
					c0,2.381,1.93,4.311,4.312,4.311H228.51c2.38,0,4.311-1.93,4.311-4.311V92.447c0-15.522-6.01-30.127-16.92-41.125
					C204.963,40.328,190.439,34.275,175,34.275L175,34.275z"/>
			</g>
		</g>
		<g>
			<path fill="#5B515A" d="M175,315.451c-8.605,0-84.075-0.541-84.075-19.322v-20.613c0-29.154,14.771-55.804,39.51-71.286
				c13.345-8.358,28.755-12.776,44.565-12.776s31.221,4.418,44.566,12.777c5.372,3.368,10.38,7.353,14.883,11.844
				c15.881,15.869,24.626,36.978,24.626,59.441v20.613C259.075,314.91,183.605,315.451,175,315.451z"/>
			<g>
				<path fill="#443633" d="M175,193.608c15.945,0,30.833,4.563,43.421,12.448c5.262,3.299,10.128,7.177,14.506,11.544
					c14.83,14.818,23.992,35.305,23.992,57.915v20.613c0,11.444-40.96,17.167-81.919,17.167c-40.96,0-81.92-5.723-81.92-17.167
					v-20.613c0-29.289,15.376-54.988,38.498-69.459C144.167,198.172,159.055,193.608,175,193.608 M175,189.297
					c-16.215,0-32.021,4.532-45.711,13.107c-12.158,7.608-22.318,18.226-29.382,30.701c-7.286,12.87-11.138,27.535-11.138,42.41
					v20.613c0,4.548,3.192,8.383,9.488,11.399c4.665,2.234,11.271,4.157,19.633,5.715c15.11,2.814,35.392,4.364,57.109,4.364
					s41.999-1.55,57.109-4.364c8.362-1.558,14.968-3.48,19.633-5.715c6.296-3.017,9.488-6.852,9.488-11.399v-20.613
					c0-23.039-8.969-44.69-25.257-60.965c-4.619-4.606-9.754-8.693-15.262-12.146C207.021,193.829,191.215,189.297,175,189.297
					L175,189.297z"/>
			</g>
		</g>
		<path fill="#E0E0E0" d="M93.08,283.414v12.715c0,22.89,163.839,22.89,163.839,0v-12.715
			C256.919,306.304,93.08,306.304,93.08,283.414z"/>
		<g>
			<path fill="#FFECE8" d="M157.662,234.296c-15.571,0-28.239-12.667-28.239-28.239c0-0.743,0.382-1.433,1.011-1.826
				c7.496-4.695,15.634-8.15,24.213-10.283v-19.641c0-0.715,0.354-1.384,0.947-1.785c0.361-0.245,0.783-0.37,1.208-0.37
				c0.271,0,0.542,0.051,0.801,0.154c5.544,2.217,11.397,3.341,17.397,3.341c6.001,0,11.854-1.124,17.397-3.341
				c0.259-0.103,0.529-0.154,0.801-0.154c0.425,0,0.846,0.125,1.208,0.37c0.592,0.401,0.947,1.07,0.947,1.785v19.641
				c8.578,2.133,16.716,5.588,24.213,10.283c0.628,0.394,1.011,1.083,1.011,1.826c0,15.572-12.667,28.239-28.238,28.239H157.662z"/>
			<path fill="#443633" d="M193.198,174.307v21.343c9.07,2.06,17.572,5.616,25.223,10.407l0,0c0,14.405-11.677,26.084-26.082,26.084
				h-34.677c-14.406,0-26.084-11.679-26.084-26.084l0,0c7.65-4.791,16.153-8.348,25.225-10.407v-21.343
				c5.632,2.253,11.764,3.495,18.197,3.495S187.565,176.56,193.198,174.307 M193.197,169.996c-0.541,0-1.084,0.102-1.601,0.308
				c-5.288,2.115-10.871,3.188-16.597,3.188s-11.31-1.073-16.597-3.188c-0.517-0.207-1.06-0.308-1.601-0.308
				c-0.85,0-1.693,0.251-2.417,0.741c-1.185,0.802-1.895,2.14-1.895,3.57v17.972c-8.2,2.21-15.99,5.608-23.202,10.126
				c-1.258,0.788-2.022,2.168-2.022,3.652c0,16.76,13.636,30.395,30.396,30.395h34.677c16.759,0,30.394-13.635,30.394-30.395
				c0-1.484-0.764-2.864-2.022-3.652c-7.211-4.518-15-7.916-23.201-10.126v-17.972c0-1.431-0.71-2.768-1.894-3.57
				C194.891,170.247,194.047,169.996,193.197,169.996L193.197,169.996z"/>
		</g>
		<g>
			<g>
				<path fill="#FFECE8" d="M223.935,127.687c-1.19,0-2.155-0.965-2.155-2.155v-22.244c0-1.191,0.965-2.156,2.155-2.156h5.005
					c7.322,0,13.277,5.956,13.277,13.277c0,7.321-5.955,13.277-13.277,13.277H223.935z"/>
				<path fill="#443633" d="M228.939,103.288c6.143,0,11.122,4.979,11.122,11.122l0,0c0,6.142-4.979,11.122-11.122,11.122h-5.005
					v-22.244H228.939 M228.939,98.976h-5.005c-2.38,0-4.311,1.931-4.311,4.312v22.244c0,2.38,1.931,4.311,4.311,4.311h5.005
					c8.51,0,15.434-6.923,15.434-15.433C244.373,105.9,237.449,98.976,228.939,98.976L228.939,98.976z"/>
			</g>
		</g>
		<g>
			<g>
				<path fill="#FFECE8" d="M121.061,127.687c-7.321,0-13.278-5.956-13.278-13.277c0-7.321,5.957-13.277,13.278-13.277h5.004
					c1.19,0,2.155,0.965,2.155,2.156v22.244c0,1.19-0.965,2.155-2.155,2.155H121.061z"/>
				<path fill="#443633" d="M126.064,103.288v22.244h-5.004c-6.143,0-11.122-4.98-11.122-11.122l0,0
					c0-6.142,4.979-11.122,11.122-11.122H126.064 M126.064,98.976h-5.004c-8.51,0-15.434,6.924-15.434,15.433
					c0,8.51,6.924,15.433,15.434,15.433h5.004c2.381,0,4.312-1.931,4.312-4.311v-22.244
					C130.376,100.907,128.445,98.976,126.064,98.976L126.064,98.976z"/>
			</g>
		</g>
		<g>
			<path fill="#FFECE8" d="M174.133,179.95c-27.698-0.456-50.232-23.735-50.232-51.891v-24.768c0-0.874,0.521-1.626,1.269-1.965
				c1.334-0.742,15.37-8.889,20.497-25.302c1.146-3.672,4.49-6.14,8.321-6.14c2.467,0,4.739,1.028,6.397,2.894
				c11.483,12.919,31.803,28.316,63.42,28.357c0.046-0.003,0.093-0.005,0.139-0.005c0.271,0,0.542,0.051,0.802,0.155
				c0.814,0.329,1.354,1.114,1.354,1.993v25.584c0,28.173-22.925,51.094-51.104,51.094
				C174.708,179.958,174.421,179.955,174.133,179.95z"/>
			<path fill="#443633" d="M153.987,72.041c1.726,0,3.47,0.688,4.786,2.17c10.864,12.223,31.88,29.081,65.159,29.081l0.011-0.012
				v25.584c0,27.023-21.914,48.938-48.949,48.938c-0.274,0-0.55-0.002-0.826-0.006c-26.837-0.443-48.111-22.896-48.111-49.737
				v-24.768h0.011c0,0,15.949-8.352,21.655-26.624C148.645,73.716,151.295,72.041,153.987,72.041 M153.987,67.73
				c-4.779,0-8.95,3.075-10.38,7.652c-4.924,15.768-18.346,23.435-19.467,24.05c-1.418,0.707-2.396,2.169-2.396,3.859v24.768
				c0,14.152,5.396,27.561,15.194,37.755c9.876,10.274,23.071,16.059,37.157,16.292c0.3,0.005,0.599,0.008,0.897,0.008
				c29.367,0,53.26-23.888,53.26-53.249V103.28c0-1.747-1.054-3.321-2.669-3.986c-0.53-0.219-1.088-0.325-1.64-0.325
				c-0.104,0-0.209,0.004-0.312,0.011c-30.72-0.097-50.469-15.067-61.638-27.633C159.923,69.015,157.078,67.73,153.987,67.73
				L153.987,67.73z"/>
		</g>
		<g>
			<path fill="none" stroke="#DDC6B8" stroke-width="2" stroke-linecap="round" stroke-linejoin="round" stroke-miterlimit="10" d="
				M172.606,119.614c-0.87,6.434-2.768,12.193-6.032,17.054c-1.258,1.873-0.599,4.416,1.442,5.376l5.529,2.603
				c0.921,0.434,1.987,0.434,2.908,0l5.529-2.603c2.042-0.961,2.699-3.503,1.442-5.376c-3.266-4.86-5.161-10.62-6.033-17.054"/>
			<g>
				<g>
					
						<line fill="none" stroke="#443633" stroke-width="5" stroke-linecap="round" stroke-linejoin="round" stroke-miterlimit="10" x1="189.13" y1="113.298" x2="203.452" y2="113.298"/>
					<circle fill="#443633" cx="196.291" cy="123.618" r="4.004"/>
				</g>
				<g>
					
						<line fill="none" stroke="#443633" stroke-width="5" stroke-linecap="round" stroke-linejoin="round" stroke-miterlimit="10" x1="146.548" y1="113.298" x2="160.87" y2="113.298"/>
					<circle fill="#443633" cx="153.709" cy="123.618" r="4.004"/>
				</g>
			</g>
		</g>
		<g>
			<g>
				
					<path fill="none" stroke="#443633" stroke-width="2" stroke-linecap="round" stroke-linejoin="round" stroke-miterlimit="10" d="
					M221.928,275.404c0,8.947-7.253,16.199-16.199,16.199s-16.199-7.252-16.199-16.199"/>
				
					<path fill="none" stroke="#443633" stroke-width="2" stroke-linecap="round" stroke-linejoin="round" stroke-miterlimit="10" d="
					M160.47,275.404c0,8.947-7.252,16.199-16.198,16.199s-16.199-7.252-16.199-16.199"/>
			</g>
			<g>
				
					<line fill="none" stroke="#443633" stroke-width="5" stroke-linecap="round" stroke-linejoin="round" stroke-miterlimit="10" x1="229" y1="265.044" x2="229" y2="312.327"/>
				
					<line fill="none" stroke="#443633" stroke-width="5" stroke-linecap="round" stroke-linejoin="round" stroke-miterlimit="10" x1="121" y1="265.044" x2="121" y2="312.327"/>
			</g>
			<g>
				
					<path fill="none" stroke="#443633" stroke-width="5" stroke-linecap="round" stroke-linejoin="round" stroke-miterlimit="10" d="
					M221.834,262.334c0,0,10.071,0.775,14.332,7.887"/>
				
					<path fill="none" stroke="#443633" stroke-width="5" stroke-linecap="round" stroke-linejoin="round" stroke-miterlimit="10" d="
					M128.166,262.334c0,0-10.07,0.775-14.332,7.887"/>
			</g>
			<g>
				<g>
					<path fill="#FF5252" d="M178.586,151.474c-1.66-0.799-3.586,0.411-3.586,2.253c0-1.842-1.926-3.052-3.586-2.253l-5.057,2.435
						H175h8.644L178.586,151.474z"/>
					<ellipse fill="#FF5252" cx="175" cy="162.268" rx="5.032" ry="4.549"/>
				</g>
				
					<path fill="#FFFFFF" stroke="#443633" stroke-width="2" stroke-linecap="round" stroke-linejoin="round" stroke-miterlimit="10" d="
					M175,164.203L175,164.203c-5.051,0-9.146-4.095-9.146-9.146v-0.146h18.29v0.146C184.145,160.108,180.051,164.203,175,164.203z"
					/>
			</g>
		</g>
	</g>
	<path fill="none" stroke="#443633" stroke-width="2" stroke-linecap="round" stroke-linejoin="round" stroke-miterlimit="10" d="
		M172.863,56.753c5.108,13.625,17.246,24.392,31.382,27.842"/>
	<path fill="none" stroke="#443633" stroke-width="2" stroke-linecap="round" stroke-linejoin="round" stroke-miterlimit="10" d="
		M186.225,47.476c4.026,14.172,15.842,25.86,30.056,29.734"/>
	<path fill="none" stroke="#443633" stroke-width="2" stroke-linecap="round" stroke-linejoin="round" stroke-miterlimit="10" d="
		M142.313,61.793c-3.79,5.014-7.58,10.027-11.37,15.041"/>
	<path fill="none" stroke="#443633" stroke-width="2" stroke-linecap="round" stroke-linejoin="round" stroke-miterlimit="10" d="
		M125.556,40.44c-5.818,4.837-7.666,13.85-4.223,20.587"/>
</g>
</svg>
