<?xml version="1.0" encoding="utf-8"?>
<!-- Generator: Adobe Illustrator 16.0.0, SVG Export Plug-In . SVG Version: 6.00 Build 0)  -->
<!DOCTYPE svg PUBLIC "-//W3C//DTD SVG 1.1//EN" "http://www.w3.org/Graphics/SVG/1.1/DTD/svg11.dtd">
<svg version="1.1" id="Layer_1" xmlns="http://www.w3.org/2000/svg" xmlns:xlink="http://www.w3.org/1999/xlink" x="0px" y="0px"
	 width="350px" height="350px" viewBox="0 0 350 350" enable-background="new 0 0 350 350" xml:space="preserve">
<g>
	<path fill="#525865" d="M177.69,158.124l9.6,108.39c0,0,36.959,9.408,62.097-10.998c0,0-22.279-70.408-13.08-122.041
		L177.69,158.124z"/>
	<path fill="#525865" d="M172.312,158.124l-9.6,108.39c0,0-36.959,9.408-62.099-10.998c0,0,22.279-70.408,13.081-122.041
		L172.312,158.124z"/>
	<path fill="#525865" d="M117.968,150.034c-17.325-49.095,9.631-86.8,59.218-86.8c50.293,0,72.576,34.674,55.252,83.768
		L117.968,150.034z"/>
	<g>
		<ellipse fill="#F5E3D5" cx="226.208" cy="158.214" rx="13.057" ry="18.569"/>
		<g>
			<path fill="#525865" d="M210.776,158.214c0.036,7.416,3.021,16.362,10.237,19.735c3.385,1.58,7.001,1.512,10.389,0
				c3.23-1.443,5.734-4.425,7.354-7.493c3.929-7.441,3.828-17.036,0-24.486c-1.6-3.109-4.149-5.994-7.354-7.49
				c-3.383-1.582-7.002-1.512-10.389,0c-3.231,1.44-5.734,4.424-7.354,7.49C211.68,149.72,210.795,153.995,210.776,158.214
				c-0.015,3.063,4.735,3.062,4.75,0c0.019-3.785,0.833-7.423,2.65-10.603c0.21-0.366,0.438-0.722,0.673-1.072
				c0.115-0.174,0.236-0.342,0.357-0.508c0.397-0.554-0.295,0.359,0.127-0.167c0.531-0.666,1.129-1.277,1.77-1.841
				c0.143-0.125,0.291-0.244,0.439-0.364c-0.448,0.359,0.046-0.023,0.122-0.078c0.302-0.213,0.616-0.404,0.937-0.588
				c0.314-0.181,0.643-0.339,0.975-0.485c-0.561,0.249-0.004,0.013,0.1-0.025c0.225-0.081,0.453-0.148,0.682-0.213
				c0.345-0.098,0.695-0.166,1.047-0.224c-0.641,0.106-0.044,0.012,0.082,0.001c0.179-0.016,0.359-0.021,0.539-0.026
				c0.362-0.01,0.725,0.011,1.084,0.042c0.613,0.054-0.527-0.089,0.078,0.012c0.234,0.039,0.467,0.093,0.697,0.149
				c0.348,0.085,0.688,0.198,1.023,0.321c0.573,0.209-0.464-0.214,0.098,0.035c0.165,0.074,0.325,0.157,0.487,0.238
				c0.327,0.167,0.641,0.358,0.95,0.556c0.156,0.101,0.309,0.209,0.459,0.316c0.213,0.157,0.203,0.148-0.029-0.031
				c0.099,0.079,0.197,0.158,0.293,0.24c0.604,0.5,1.148,1.064,1.659,1.655c0.132,0.151,0.259,0.311,0.385,0.468
				c-0.336-0.419,0.081,0.122,0.12,0.175c0.286,0.397,0.548,0.811,0.801,1.231c0.451,0.748,0.836,1.535,1.185,2.336
				c-0.196-0.451,0.086,0.238,0.098,0.269c0.083,0.213,0.159,0.43,0.233,0.646c0.18,0.512,0.334,1.036,0.477,1.56
				c0.254,0.931,0.438,1.879,0.582,2.833c-0.07-0.458,0.037,0.349,0.038,0.352c0.026,0.25,0.048,0.5,0.067,0.75
				c0.049,0.593,0.068,1.188,0.078,1.781c0.014,1.019-0.043,2.036-0.146,3.049c-0.001,0.003-0.104,0.812-0.038,0.352
				c-0.035,0.242-0.076,0.484-0.117,0.726c-0.094,0.554-0.215,1.103-0.346,1.648c-0.219,0.905-0.503,1.794-0.829,2.664
				c-0.011,0.03-0.29,0.723-0.098,0.27c-0.087,0.205-0.181,0.409-0.273,0.61c-0.212,0.462-0.448,0.912-0.696,1.356
				c-0.207,0.37-0.433,0.729-0.663,1.086c-0.114,0.174-0.233,0.345-0.353,0.515c-0.037,0.053-0.45,0.599-0.12,0.176
				c-0.527,0.675-1.119,1.297-1.754,1.871c-0.142,0.129-0.288,0.251-0.435,0.371c-0.49,0.407,0.391-0.284-0.119,0.088
				c-0.298,0.22-0.611,0.418-0.93,0.607c-0.313,0.187-0.639,0.35-0.967,0.503c-0.557,0.26,0.473-0.183-0.098,0.036
				c-0.224,0.086-0.451,0.158-0.679,0.228c-0.343,0.103-0.692,0.179-1.042,0.243c-0.604,0.111,0.533-0.055-0.078,0.011
				c-0.18,0.019-0.359,0.028-0.539,0.038c-0.361,0.017-0.725,0.003-1.084-0.022c-0.123-0.008-0.729-0.091-0.082,0.002
				c-0.234-0.033-0.469-0.084-0.7-0.135c-0.349-0.079-0.69-0.187-1.028-0.304c-0.102-0.033-0.666-0.265-0.1-0.022
				c-0.167-0.071-0.33-0.15-0.492-0.229c-0.328-0.161-0.645-0.346-0.955-0.538c-0.158-0.098-0.312-0.202-0.464-0.308
				c-0.103-0.072-0.204-0.145-0.304-0.22c0.23,0.182,0.243,0.189,0.033,0.022c-0.606-0.487-1.156-1.042-1.673-1.623
				c-0.134-0.15-0.262-0.307-0.388-0.461c-0.428-0.521,0.277,0.38-0.127-0.167c-0.289-0.393-0.555-0.802-0.813-1.215
				c-0.496-0.805-0.918-1.653-1.293-2.52c0.195,0.451-0.087-0.239-0.099-0.27c-0.083-0.214-0.159-0.429-0.233-0.645
				c-0.181-0.513-0.334-1.035-0.478-1.56c-0.126-0.461-0.23-0.927-0.329-1.393c-0.049-0.238-0.092-0.477-0.135-0.716
				c-0.016-0.083-0.149-0.978-0.098-0.584c-0.142-1.087-0.198-2.187-0.204-3.282C215.513,155.151,210.762,155.15,210.776,158.214z"
				/>
		</g>
	</g>
	<path fill="#EAD2C3" d="M233.238,158.879c0,0,0.822,2.896-0.801,4.329c-5.121,4.512-4.959,11.11-4.959,11.11v-11.757l1.662-1.861
		L233.238,158.879z"/>
	<g>
		<path fill="#525865" d="M226.254,168.466c-0.131-1.483,0.07-2.495,0.531-3.897c0.885-2.695,3.158-4.515,5.969-5.21
			c1.484-0.368,0.855-2.659-0.633-2.291c-3.504,0.868-6.19,3.122-7.492,6.493c-0.58,1.502-0.892,3.289-0.75,4.905
			C224.011,169.979,226.388,169.992,226.254,168.466L226.254,168.466z"/>
	</g>
	<g>
		<path fill="#00B2D8" d="M179.125,284.391c40.881,0,54.711-8.43,54.711-8.43s0.342-23.174-6.842-28.969
			c0,0-26.854-17.209-38.314-20.195h-9.42h-2.246h-10.581c-11.46,2.986-38.315,20.195-38.315,20.195
			c-7.183,5.795-6.842,28.969-6.842,28.969s18.474,8.43,59.354,8.43H179.125z"/>
		<g>
			<path fill="#525865" d="M179.125,286.766c14.508-0.008,29.311-0.844,43.445-4.332c3.125-0.771,6.233-1.688,9.214-2.912
				c1.21-0.498,3.369-1.109,4.103-2.361c0.596-1.018,0.325-2.742,0.299-3.859c-0.058-2.277-0.19-4.555-0.396-6.824
				c-0.526-5.785-1.377-11.861-4.026-17.105c-0.866-1.715-2.093-3.488-3.737-4.537c-1.006-0.641-2.016-1.271-3.028-1.9
				c-4.515-2.801-9.08-5.521-13.706-8.133c-5.441-3.072-10.969-6.02-16.733-8.441c-1.13-0.475-2.274-0.918-3.437-1.309
				c-0.87-0.293-1.779-0.629-2.705-0.629c-2.191,0-4.383,0-6.572,0c-3.191,0-6.382,0-9.572,0c-1.93,0-3.86,0-5.79,0
				c-1.031,0-2.178,0.514-3.139,0.852c-1.336,0.473-2.644,1.02-3.946,1.576c-5.646,2.416-11.063,5.387-16.398,8.418
				c-4.5,2.555-8.941,5.215-13.337,7.949c-0.893,0.555-1.784,1.113-2.671,1.68c-1.814,1.158-3.078,3.24-3.967,5.146
				c-2.492,5.344-3.28,11.414-3.77,17.232c-0.243,2.883-0.395,5.791-0.353,8.686c0.011,0.773,0.43,1.711,1.176,2.051
				c4.746,2.162,9.994,3.391,15.063,4.486c14.9,3.221,30.275,4.26,45.49,4.268c0-1.584,0-3.168,0-4.752c-0.502,0-1.003,0-1.505,0
				C176.062,282.014,176.062,286.766,179.125,286.766c0.502,0,1.003,0,1.505,0c3.063,0,3.063-4.75,0-4.752
				c-8.932-0.004-17.864-0.396-26.747-1.34c-0.885-0.094-1.769-0.195-2.651-0.301c-0.428-0.051-0.855-0.104-1.281-0.158
				c-0.211-0.025-0.421-0.053-0.631-0.08c-0.1-0.014-0.986-0.131-0.402-0.051c-1.625-0.221-3.246-0.463-4.864-0.727
				c-2.76-0.447-5.507-0.969-8.236-1.568c-3.526-0.773-7.03-1.682-10.455-2.824c-0.86-0.289-1.717-0.594-2.562-0.926
				c-0.299-0.115-1.183-0.492-0.103-0.033c-0.075-0.031-0.149-0.063-0.222-0.096c0.393,0.684,0.783,1.367,1.176,2.051
				c-0.047-3.27,0.146-6.557,0.452-9.809c0.063-0.666,0.136-1.33,0.214-1.992c0.039-0.342,0.082-0.682,0.127-1.021
				c-0.088,0.668-0.009,0.07,0.008-0.055c0.032-0.23,0.065-0.459,0.1-0.689c0.215-1.439,0.479-2.871,0.799-4.291
				c0.31-1.369,0.684-2.723,1.141-4.049c0.104-0.303,0.217-0.604,0.331-0.9c0.058-0.146,0.116-0.291,0.175-0.438
				c-0.256,0.629-0.053,0.125,0.003,0c0.258-0.584,0.547-1.156,0.865-1.709c0.14-0.244,0.289-0.479,0.442-0.713
				c0.104-0.158,0.672-0.91,0.179-0.279c0.337-0.43,0.715-0.828,1.126-1.189c0.355-0.313-0.567,0.391-0.19,0.15
				c0.126-0.08,0.252-0.162,0.38-0.242c1.229-0.779,2.466-1.549,3.705-2.313c4.731-2.918,9.519-5.748,14.377-8.451
				c2.766-1.541,5.56-3.033,8.394-4.443c1.321-0.658,2.654-1.295,3.999-1.906c0.602-0.273,1.207-0.537,1.814-0.795
				c-0.662,0.281,0.289-0.119,0.451-0.184c0.327-0.133,0.655-0.262,0.983-0.389c1.05-0.404,2.111-0.771,3.194-1.072
				c0.617-0.176-0.748-0.01,0.003-0.01c0.369,0,0.738,0,1.106,0c2.398,0,4.796,0,7.196,0c3.242,0,6.484,0,9.727,0
				c1.076,0,2.153,0,3.23,0c0.223,0,0.443,0,0.667,0c-0.494,0-0.614-0.092-0.14,0.041c0.283,0.08,0.565,0.166,0.845,0.254
				c1.139,0.359,2.255,0.785,3.36,1.234c0.145,0.059,0.289,0.119,0.434,0.18c0.516,0.213-0.498-0.215,0.021,0.008
				c0.301,0.127,0.601,0.26,0.9,0.391c0.676,0.297,1.348,0.605,2.018,0.918c9.811,4.586,19.176,10.221,28.337,15.979
				c0.384,0.242,0.769,0.484,1.151,0.729c0.069,0.043,0.137,0.086,0.205,0.131c-0.259-0.166-0.533-0.43-0.189-0.129
				c0.219,0.193,0.422,0.402,0.617,0.617c0.129,0.139,0.688,0.855,0.207,0.221c0.164,0.215,0.316,0.439,0.465,0.666
				c0.34,0.52,0.637,1.068,0.913,1.625c0.134,0.27,0.259,0.547,0.38,0.822c0.221,0.5-0.209-0.508,0,0.006
				c0.06,0.145,0.115,0.291,0.173,0.438c0.253,0.66,0.475,1.33,0.681,2.004c0.416,1.365,0.742,2.76,1.024,4.16
				c0.138,0.688,0.26,1.377,0.373,2.068c0.057,0.346,0.108,0.689,0.161,1.035c0.025,0.172,0.05,0.344,0.073,0.516
				c0.017,0.113,0.032,0.23,0.048,0.344c-0.047-0.346-0.052-0.387-0.016-0.119c0.334,2.574,0.539,5.164,0.662,7.756
				c0.076,1.629,0.131,3.266,0.107,4.896c0.392-0.684,0.784-1.367,1.176-2.051c-0.223,0.135-0.455,0.252-0.688,0.369
				c-0.294,0.148-0.59,0.287-0.89,0.424c-0.188,0.084-0.376,0.166-0.565,0.248c-0.519,0.225,0.38-0.158,0.195-0.082
				c-0.135,0.057-0.27,0.111-0.403,0.166c-3.073,1.248-6.28,2.166-9.5,2.945c-2.405,0.584-4.834,1.072-7.272,1.496
				c-1.449,0.254-2.903,0.48-4.36,0.689c-0.192,0.027-0.386,0.055-0.58,0.082c-0.091,0.012-0.75,0.102-0.154,0.02
				c-0.401,0.055-0.804,0.107-1.205,0.156c-0.907,0.117-1.815,0.221-2.723,0.322c-8.419,0.928-16.898,1.264-25.366,1.268
				C176.062,282.016,176.062,286.768,179.125,286.766z"/>
		</g>
	</g>
	<g>
		<path fill="#F5E3D5" d="M166.383,220.012v13.379c0,6.17,5.002,11.172,11.174,11.172l0,0c6.17,0,11.172-5.002,11.172-11.172
			v-13.379H166.383z"/>
		<g>
			<path fill="#525865" d="M164.008,220.012c0,3.941,0,7.881,0,11.822c0,2.482,0.205,4.838,1.223,7.152
				c1.576,3.584,4.773,6.25,8.485,7.4c3.802,1.178,8.168,0.459,11.436-1.783c3.434-2.355,5.458-6.006,5.899-10.111
				c0.176-1.625,0.054-3.32,0.054-4.951c0-2.469,0-4.938,0-7.408c0-0.707,0-1.414,0-2.121c0-1.295-1.081-2.375-2.376-2.375
				c-7.379,0-14.759,0-22.139,0c-0.069,0-0.139,0-0.207,0c-3.063,0-3.063,4.752,0,4.752c7.38,0,14.76,0,22.141,0
				c0.068,0,0.137,0,0.205,0c-0.791-0.793-1.582-1.586-2.374-2.377c0,3.941,0,7.881,0,11.822c0,0.516,0,1.031,0,1.547
				c0,0.299-0.015,0.596-0.034,0.895c-0.005,0.063-0.098,0.777-0.018,0.232c-0.031,0.213-0.074,0.424-0.119,0.635
				c-0.086,0.416-0.207,0.824-0.341,1.229c-0.065,0.199-0.144,0.395-0.222,0.592c0.193-0.49-0.156,0.297-0.199,0.383
				c-0.189,0.371-0.408,0.725-0.637,1.07c-0.114,0.174-0.238,0.34-0.361,0.506c0.313-0.42-0.111,0.115-0.151,0.162
				c-0.271,0.313-0.566,0.604-0.868,0.885c-0.152,0.141-0.311,0.271-0.471,0.406c0.398-0.332-0.271,0.189-0.352,0.244
				c-0.342,0.234-0.705,0.439-1.071,0.637c-0.185,0.098-0.374,0.186-0.563,0.273c0.48-0.223-0.15,0.053-0.211,0.076
				c-0.398,0.148-0.808,0.264-1.22,0.365c-0.208,0.053-0.419,0.092-0.63,0.129c-0.28,0.047-0.285,0.049-0.012,0.012
				c-0.145,0.018-0.289,0.031-0.435,0.041c-0.441,0.041-0.886,0.041-1.329,0.027c-0.219-0.008-0.438-0.025-0.656-0.045
				c-0.716-0.063,0.474,0.084-0.229-0.035c-0.423-0.068-0.836-0.176-1.248-0.295c-0.202-0.059-0.401-0.129-0.601-0.199
				c-0.133-0.047-0.264-0.098-0.394-0.15c0.245,0.104,0.241,0.1-0.008-0.014c-0.379-0.176-0.742-0.383-1.099-0.598
				c-0.178-0.107-0.348-0.225-0.52-0.342c-0.053-0.037-0.589-0.457-0.18-0.127c-0.323-0.26-0.624-0.545-0.917-0.838
				c-0.146-0.145-0.284-0.299-0.421-0.453c-0.091-0.104-0.181-0.209-0.269-0.316c0.158,0.211,0.154,0.207-0.008-0.012
				c-0.247-0.332-0.466-0.686-0.675-1.045c-0.104-0.182-0.199-0.367-0.294-0.553c-0.028-0.055-0.31-0.688-0.104-0.195
				c-0.163-0.391-0.292-0.793-0.408-1.199c-0.061-0.205-0.108-0.414-0.155-0.621c-0.021-0.094-0.161-0.977-0.092-0.434
				c-0.09-0.705-0.077-1.418-0.077-2.127c0-4.139,0-8.277,0-12.418c0-0.051,0-0.102,0-0.152
				C168.759,216.949,164.008,216.949,164.008,220.012z"/>
		</g>
	</g>
	<g>
		<ellipse fill="#F5E3D5" cx="127.6" cy="158.214" rx="13.057" ry="18.569"/>
		<g>
			<path fill="#525865" d="M138.28,158.214c-0.018,3.785-0.833,7.421-2.649,10.6c-0.21,0.368-0.438,0.724-0.674,1.075
				c-0.114,0.171-0.235,0.34-0.356,0.508c-0.398,0.551,0.295-0.36-0.127,0.167c-0.533,0.665-1.13,1.276-1.77,1.84
				c-0.144,0.126-0.292,0.244-0.439,0.364c0.448-0.36-0.047,0.022-0.123,0.077c-0.301,0.213-0.616,0.405-0.937,0.589
				c-0.315,0.181-0.642,0.338-0.974,0.486c0.56-0.25,0.003-0.014-0.101,0.022c-0.224,0.083-0.452,0.15-0.682,0.215
				c-0.344,0.098-0.694,0.166-1.046,0.224c0.641-0.105,0.042-0.013-0.082-0.002c-0.181,0.017-0.36,0.022-0.54,0.026
				c-0.361,0.011-0.724-0.01-1.083-0.042c-0.613-0.053,0.527,0.089-0.078-0.011c-0.234-0.04-0.467-0.093-0.698-0.149
				c-0.347-0.085-0.688-0.199-1.022-0.321c-0.574-0.209,0.463,0.214-0.097-0.036c-0.166-0.073-0.328-0.157-0.489-0.238
				c-0.326-0.167-0.641-0.357-0.949-0.555c-0.156-0.101-0.309-0.208-0.461-0.317c-0.211-0.157-0.201-0.146,0.031,0.032
				c-0.1-0.079-0.197-0.159-0.294-0.24c-0.603-0.5-1.148-1.063-1.658-1.655c-0.133-0.152-0.259-0.31-0.385-0.467
				c0.335,0.417-0.082-0.123-0.12-0.176c-0.286-0.397-0.548-0.812-0.801-1.23c-0.451-0.75-0.837-1.536-1.186-2.337
				c0.196,0.451-0.086-0.239-0.097-0.27c-0.083-0.214-0.159-0.429-0.234-0.645c-0.18-0.513-0.333-1.035-0.477-1.56
				c-0.254-0.932-0.438-1.88-0.581-2.834c0.069,0.459-0.038-0.349-0.039-0.352c-0.026-0.25-0.047-0.5-0.067-0.75
				c-0.049-0.592-0.068-1.187-0.077-1.781c-0.015-1.018,0.043-2.036,0.145-3.049c0.001-0.002,0.104-0.811,0.039-0.352
				c0.034-0.242,0.075-0.483,0.116-0.725c0.094-0.555,0.215-1.104,0.347-1.649c0.219-0.905,0.503-1.792,0.829-2.664
				c0.011-0.03,0.289-0.722,0.097-0.269c0.088-0.205,0.181-0.408,0.273-0.61c0.213-0.462,0.449-0.912,0.697-1.356
				c0.206-0.37,0.432-0.73,0.662-1.086c0.114-0.174,0.234-0.345,0.354-0.515c0.037-0.053,0.45-0.598,0.12-0.175
				c0.526-0.676,1.119-1.298,1.754-1.872c0.141-0.129,0.288-0.25,0.435-0.373c0.49-0.406-0.392,0.286,0.117-0.087
				c0.299-0.219,0.613-0.417,0.931-0.605c0.313-0.187,0.639-0.351,0.969-0.505c0.556-0.259-0.474,0.183,0.097-0.035
				c0.223-0.086,0.45-0.158,0.679-0.228c0.342-0.104,0.691-0.178,1.042-0.243c0.604-0.111-0.534,0.054,0.078-0.012
				c0.179-0.019,0.359-0.028,0.538-0.036c0.362-0.018,0.725-0.003,1.085,0.021c0.122,0.009,0.729,0.093,0.082-0.001
				c0.234,0.034,0.468,0.083,0.699,0.136c0.349,0.077,0.69,0.186,1.028,0.301c0.102,0.036,0.667,0.266,0.101,0.025
				c0.166,0.07,0.33,0.15,0.491,0.229c0.329,0.16,0.646,0.345,0.956,0.538c0.158,0.096,0.312,0.202,0.463,0.306
				c0.104,0.073,0.204,0.146,0.304,0.22c-0.23-0.182-0.242-0.188-0.033-0.023c0.606,0.488,1.157,1.044,1.674,1.626
				c0.134,0.15,0.261,0.306,0.388,0.461c0.428,0.521-0.277-0.38,0.127,0.167c0.29,0.39,0.555,0.801,0.811,1.215
				c0.498,0.803,0.918,1.651,1.296,2.519c-0.197-0.451,0.086,0.238,0.097,0.269c0.083,0.213,0.158,0.43,0.234,0.646
				c0.18,0.512,0.333,1.036,0.478,1.56c0.125,0.461,0.229,0.927,0.327,1.393c0.051,0.238,0.094,0.477,0.137,0.716
				c0.015,0.082,0.149,0.976,0.098,0.584C138.219,156.019,138.275,157.117,138.28,158.214c0.015,3.062,4.766,3.063,4.751,0
				c-0.036-7.418-3.021-16.364-10.237-19.734c-3.385-1.582-7.002-1.512-10.389,0c-3.231,1.44-5.735,4.424-7.354,7.49
				c-3.93,7.441-3.828,17.038,0,24.486c1.598,3.111,4.148,5.995,7.354,7.493c3.384,1.58,7.001,1.512,10.389,0
				c3.231-1.443,5.734-4.425,7.354-7.493c1.979-3.749,2.862-8.023,2.883-12.242C143.046,155.15,138.295,155.151,138.28,158.214z"/>
		</g>
	</g>
	<g>
		<path fill="#F5E3D5" d="M128.832,111.016v65.701c0,26.912,21.814,44.926,48.725,44.926l0,0c26.91,0,48.723-18.014,48.723-44.926
			v-65.701c0,0-5.05,5.233-21.203,8.384c-1.431,0.279-8.652-12.532-8.652-12.532s0.688,13.789-1.165,13.986
			c-2.432,0.259-5.036,0.469-7.826,0.618c-3.065,0.164-11.954-24.423-11.954-24.423s-7.586,24.518-11.693,24.236
			c-2.519-0.172-4.863-0.39-7.044-0.644c-1.105-0.129-1.886-16.492-1.886-16.492s-8.181,14.911-10.891,14.222
			C131.613,115.23,128.832,111.016,128.832,111.016z"/>
		<g>
			<path fill="#525865" d="M126.457,111.016c0,5.322,0,10.645,0,15.967c0,10.169,0,20.339,0,30.508c0,6.322,0,12.644,0,18.966
				c0,5.65,0.874,11.311,2.829,16.621c2.375,6.447,6.217,12.277,11.197,17.01c10.444,9.922,25.072,14.391,39.298,13.889
				c14.059-0.498,28.129-6.047,37.566-16.705c4.591-5.182,7.916-11.391,9.711-18.074c1.172-4.363,1.598-8.869,1.598-13.375
				c0-7.098,0-14.196,0-21.294c0-10.076,0-20.152,0-30.229c0-4.427,0-8.855,0-13.284c0-2.048-2.604-3.176-4.056-1.68
				c-0.122,0.125-0.255,0.238-0.389,0.351c-0.07,0.063-0.144,0.121-0.216,0.18c-0.434,0.35,0.34-0.258,0.162-0.123
				c-0.258,0.195-0.521,0.383-0.79,0.565c-0.739,0.503-1.513,0.958-2.3,1.386c-0.494,0.269-0.996,0.521-1.501,0.767
				c-0.283,0.137-0.569,0.271-0.856,0.399c-0.149,0.07-0.302,0.137-0.453,0.203c-0.111,0.05-0.829,0.355-0.229,0.104
				c-3.536,1.486-7.243,2.549-10.979,3.395c-0.57,0.13-1.143,0.252-1.715,0.369c-0.1,0.021-1.086,0.197-0.291,0.098
				c-0.273,0.035,0.768,0.146,0.488,0.063c0.693,0.206,0.606,0.278,0.398,0.156c-0.162-0.094-0.423-0.323,0.287,0.233
				c-0.141-0.11-0.27-0.239-0.393-0.366c-0.289-0.297-0.549-0.621-0.803-0.945c0.521,0.664-0.044-0.065-0.158-0.223
				c-0.191-0.261-0.377-0.525-0.563-0.792c-2.115-3.042-4.008-6.26-5.828-9.485c-1.133-2.01-4.545-1.189-4.426,1.198
				c0.073,1.48,0.106,2.965,0.121,4.447c0.012,1.295,0,2.59-0.048,3.885c-0.022,0.6-0.056,1.2-0.102,1.798
				c-0.021,0.277-0.048,0.552-0.077,0.828c-0.014,0.131-0.029,0.259-0.045,0.39c0.101-0.817,0.025-0.206-0.004-0.026
				c-0.064,0.4-0.149,0.799-0.275,1.186c-0.16,0.497,0.316-0.602,0.032-0.09c-0.099,0.179-0.327,0.382,0.237-0.29
				c-0.022,0.025-0.047,0.049-0.072,0.071c0.25-0.254,0.549-0.428,0.894-0.521c-0.214,0.085,0.823-0.095,0.005-0.011
				c-0.273,0.03-0.549,0.056-0.825,0.083c-0.563,0.055-1.127,0.104-1.689,0.152c-1.28,0.109-2.562,0.198-3.845,0.275
				c-0.363,0.021-1.689-0.077-0.443,0.126c-0.438-0.072,0.631,0.313,0.279,0.129c-0.202-0.104-0.564-0.436,0.168,0.156
				c-0.12-0.097-0.23-0.207-0.336-0.319c-0.107-0.11-0.207-0.228-0.305-0.347c-0.323-0.392,0.398,0.543,0-0.008
				c-0.264-0.361-0.504-0.738-0.737-1.118c-1.179-1.924-2.146-3.98-3.081-6.031c-0.531-1.162-1.042-2.333-1.543-3.51
				c-0.051-0.118-0.271-0.64-0.012-0.026c-0.063-0.147-0.124-0.296-0.187-0.443c-0.123-0.293-0.245-0.588-0.368-0.883
				c-0.258-0.626-0.513-1.252-0.766-1.88c-1.133-2.806-2.229-5.628-3.256-8.473c-0.789-2.18-3.856-2.342-4.581,0
				c-0.934,3.013-1.971,5.998-3.062,8.959c-0.458,1.244-0.934,2.482-1.424,3.713c-0.238,0.599-0.482,1.192-0.731,1.786
				c0.278-0.664-0.126,0.294-0.196,0.454c-0.145,0.335-0.293,0.669-0.44,1c-0.906,2.02-1.876,4.059-3.166,5.863
				c-0.418,0.587,0.284-0.341-0.054,0.076c-0.113,0.141-0.233,0.274-0.356,0.406c-0.111,0.119-0.229,0.232-0.351,0.341
				c-0.344,0.309,0.59-0.386,0.029-0.033c-0.475,0.298,0.262-0.085,0.185-0.057c-0.504,0.183,0.367-0.02,0.266-0.015
				c-1.124,0.061-2.336-0.168-3.458-0.268c-1.14-0.101-2.278-0.218-3.415-0.348c0.686,0.078,1.38,0.613,1.59,0.967
				c-0.168-0.283,0.268,0.757,0.078,0.167c-0.251-0.777-0.352-1.613-0.464-2.42c0.121,0.871-0.009-0.085-0.033-0.285
				c-0.035-0.282-0.065-0.564-0.097-0.846c-0.072-0.653-0.136-1.307-0.194-1.962c-0.12-1.302-0.22-2.605-0.312-3.91
				c-0.13-1.844-0.241-3.689-0.336-5.536c-0.005-0.108-0.011-0.216-0.017-0.322c-0.107-2.268-3.237-3.365-4.426-1.2
				c-1.861,3.391-3.881,6.729-6.141,9.869c-0.178,0.247-0.36,0.492-0.543,0.735c-0.085,0.112-0.41,0.534,0.013-0.013
				c-0.087,0.114-0.177,0.225-0.267,0.337c-0.354,0.447-0.726,0.88-1.114,1.296c-0.298,0.317-0.611,0.619-0.948,0.896
				c0.674-0.553,0.166-0.13-0.021-0.014c-0.586,0.366,0.407-0.112,0.05-0.001c-0.198,0.063-0.543,0.063,0.397-0.04
				c-0.198,0.022-0.578-0.066,0.416,0.076c-0.501-0.072-1.011-0.262-1.499-0.396c-1.126-0.311-2.241-0.657-3.347-1.035
				c-0.871-0.298-1.733-0.623-2.586-0.973c-0.646-0.266,0.428,0.185-0.193-0.085c-0.181-0.079-0.359-0.16-0.538-0.241
				c-0.39-0.176-0.774-0.362-1.156-0.555c-0.848-0.425-1.674-0.895-2.469-1.411c-0.321-0.211-0.636-0.432-0.943-0.66
				c-0.242-0.18,0.517,0.413,0.021,0.014c-0.111-0.09-0.22-0.182-0.327-0.275c-0.291-0.249-0.568-0.515-0.825-0.801
				c-0.467-0.521,0.287,0.426,0.1,0.145c-0.717-1.075-2.082-1.535-3.25-0.853c-1.066,0.624-1.571,2.17-0.852,3.25
				c0.556,0.835,1.306,1.52,2.094,2.128c2.337,1.809,4.94,3.078,7.681,4.169c2.015,0.802,4.092,1.439,6.187,1.997
				c1.322,0.352,2.494,0.305,3.649-0.488c2.04-1.397,3.523-3.576,4.918-5.572c2.037-2.916,3.886-5.984,5.597-9.101
				c-1.476-0.4-2.95-0.799-4.426-1.198c0.185,3.866,0.433,7.736,0.842,11.585c0.131,1.233,0.281,2.468,0.493,3.691
				c0.133,0.771,0.304,1.59,0.707,2.271c0.506,0.854,1.271,1.21,2.219,1.319c1.229,0.143,2.458,0.269,3.688,0.381
				c1.766,0.16,3.521,0.542,5.185-0.192c1.679-0.741,2.845-2.769,3.719-4.278c1.309-2.258,2.341-4.676,3.344-7.082
				c1.746-4.188,3.258-8.479,4.656-12.796c0.147-0.456,0.294-0.91,0.437-1.367c-1.528,0-3.055,0-4.581,0
				c1.063,2.941,2.198,5.858,3.37,8.758c1.889,4.671,3.773,9.514,6.438,13.812c1.022,1.648,2.25,3.376,4.323,3.593
				c0.907,0.095,1.931-0.101,2.842-0.164c1.245-0.087,2.487-0.193,3.729-0.312c1.606-0.153,3.259-0.251,3.987-1.938
				c0.977-2.258,0.975-4.902,1.027-7.328c0.049-2.178,0.01-4.359-0.074-6.534c-0.01-0.233-0.02-0.467-0.03-0.7
				c-1.476,0.399-2.952,0.8-4.427,1.199c1.955,3.467,3.984,6.938,6.312,10.17c0.612,0.852,1.243,1.743,2.015,2.464
				c0.478,0.448,0.927,0.727,1.53,0.956c0.924,0.351,2.041-0.075,2.951-0.265c3.891-0.817,7.741-1.893,11.437-3.367
				c2.426-0.969,4.822-2.069,7.004-3.518c0.811-0.537,1.658-1.11,2.339-1.812c-1.352-0.56-2.704-1.119-4.056-1.68
				c0,5.322,0,10.645,0,15.967c0,10.169,0,20.339,0,30.508c0,6.322,0,12.644,0,18.966c0,2.055-0.109,4.105-0.358,6.146
				c-0.087,0.705,0.07-0.488-0.028,0.213c-0.029,0.211-0.063,0.42-0.094,0.631c-0.064,0.414-0.139,0.83-0.215,1.244
				c-0.164,0.887-0.359,1.768-0.576,2.645c-0.41,1.648-0.928,3.268-1.529,4.855c-0.143,0.377-0.293,0.748-0.446,1.121
				c0.214-0.52-0.044,0.098-0.075,0.168c-0.079,0.184-0.162,0.365-0.242,0.547c-0.355,0.785-0.739,1.555-1.143,2.316
				c-0.767,1.451-1.629,2.85-2.561,4.201c-0.224,0.32-0.453,0.639-0.685,0.955c-0.116,0.158-0.233,0.314-0.353,0.471
				c-0.395,0.523,0.298-0.377-0.107,0.139c-0.523,0.668-1.07,1.314-1.633,1.949c-1.082,1.223-2.242,2.375-3.456,3.467
				c-0.585,0.527-1.188,1.033-1.799,1.529c-0.153,0.125-0.309,0.246-0.464,0.367c-0.518,0.408,0.381-0.289-0.145,0.111
				c-0.368,0.277-0.742,0.549-1.117,0.816c-1.354,0.965-2.766,1.846-4.214,2.66c-1.469,0.826-2.985,1.564-4.531,2.234
				c-0.625,0.27,0.444-0.184-0.185,0.076c-0.189,0.08-0.38,0.154-0.57,0.232c-0.381,0.15-0.766,0.297-1.15,0.439
				c-0.839,0.313-1.689,0.598-2.545,0.867c-1.669,0.525-3.368,0.955-5.082,1.313c-0.834,0.176-1.675,0.326-2.518,0.463
				c-0.213,0.033-0.424,0.064-0.638,0.098c-0.064,0.01-0.772,0.109-0.222,0.033c-0.501,0.068-1.004,0.127-1.506,0.18
				c-3.658,0.393-7.356,0.418-11.021,0.123c-0.867-0.07-1.732-0.164-2.594-0.273c-0.714-0.09,0.484,0.068-0.225-0.031
				c-0.213-0.029-0.426-0.064-0.638-0.096c-0.494-0.076-0.986-0.162-1.479-0.252c-1.731-0.313-3.444-0.719-5.136-1.199
				c-1.658-0.471-3.292-1.031-4.894-1.664c-0.19-0.078-0.38-0.154-0.569-0.232c-0.631-0.258,0.439,0.191-0.186-0.076
				c-0.374-0.162-0.744-0.328-1.114-0.498c-0.798-0.363-1.582-0.754-2.357-1.162c-1.477-0.773-2.906-1.633-4.293-2.559
				c-0.658-0.439-1.304-0.9-1.939-1.375c-0.061-0.045-0.586-0.447-0.147-0.107c-0.156-0.119-0.311-0.242-0.465-0.365
				c-0.359-0.285-0.713-0.58-1.063-0.877c-1.249-1.055-2.432-2.186-3.553-3.375c-0.539-0.568-1.056-1.156-1.562-1.754
				c-0.253-0.299-0.499-0.604-0.743-0.908c-0.049-0.063-0.451-0.58-0.11-0.137c-0.159-0.207-0.314-0.416-0.47-0.627
				c-0.975-1.316-1.861-2.695-2.675-4.117c-0.393-0.688-0.762-1.389-1.115-2.098c-0.177-0.355-0.348-0.715-0.515-1.076
				c-0.083-0.182-0.165-0.363-0.247-0.545c-0.039-0.09-0.374-0.879-0.154-0.352c-1.32-3.16-2.225-6.486-2.766-9.865
				c-0.034-0.211-0.064-0.42-0.095-0.631c-0.103-0.701,0.061,0.492-0.028-0.213c-0.054-0.426-0.099-0.854-0.141-1.281
				c-0.093-0.939-0.15-1.883-0.187-2.828c-0.024-0.641-0.032-1.279-0.032-1.92c0-0.658,0-1.315,0-1.972c0-7.914,0-15.828,0-23.742
				c0-9.851,0-19.699,0-29.548c0-3.432,0-6.863,0-10.296C131.207,107.953,126.457,107.953,126.457,111.016z"/>
		</g>
	</g>
	<path fill="#EAD2C3" d="M120.568,158.879c0,0-0.822,2.896,0.802,4.329c5.12,4.512,4.958,11.11,4.958,11.11v-11.757l-1.662-1.861
		L120.568,158.879z"/>
	<g>
		<path fill="#525865" d="M129.929,168.466c0.143-1.627-0.188-3.389-0.751-4.905c-1.252-3.375-4.024-5.635-7.492-6.493
			c-1.487-0.368-2.117,1.923-0.631,2.291c2.837,0.703,5.045,2.517,5.967,5.21c0.477,1.389,0.661,2.424,0.532,3.897
			C127.42,169.992,129.797,169.979,129.929,168.466L129.929,168.466z"/>
	</g>
	<g>
		<path fill="#525865" d="M141.56,139.238c0.192-0.108,0.39-0.209,0.588-0.308c0.246-0.124,0.495-0.243,0.745-0.359
			c0.157-0.073,0.316-0.144,0.475-0.215c0.168-0.074,0.841-0.358,0.086-0.041c1.965-0.825,4.01-1.461,6.092-1.91
			c0.584-0.125,1.172-0.229,1.76-0.321c0.136-0.021,0.271-0.04,0.405-0.059c-0.58,0.082,0.11-0.009,0.189-0.017
			c0.35-0.04,0.699-0.068,1.05-0.095c1.46-0.108,2.928-0.076,4.383,0.078c0.285,0.035,0.299,0.035,0.043,0.001
			c0.226,0.03,0.451,0.069,0.676,0.107c0.38,0.064,0.758,0.146,1.133,0.232c0.769,0.174,1.523,0.408,2.265,0.674
			c0.151,0.055,0.302,0.112,0.451,0.171c0.737,0.283-0.396-0.184,0.332,0.142c0.38,0.168,0.751,0.356,1.117,0.55
			c0.765,0.402,1.493,0.869,2.196,1.369c1.058,0.75,2.639,0.19,3.249-0.853c0.698-1.192,0.201-2.502-0.853-3.25
			c-5.585-3.963-12.497-4.678-19.084-3.428c-3.315,0.63-6.743,1.766-9.695,3.428c-1.127,0.634-1.499,2.146-0.853,3.25
			C138.972,139.515,140.431,139.874,141.56,139.238L141.56,139.238z"/>
	</g>
	<g>
		<path fill="#525865" d="M211.366,135.135c-2.905-1.637-6.249-2.729-9.503-3.39c-6.617-1.343-13.663-0.592-19.277,3.39
			c-1.054,0.748-1.551,2.058-0.852,3.25c0.611,1.043,2.191,1.603,3.25,0.853c0.635-0.452,1.292-0.867,1.973-1.248
			c0.363-0.204,0.738-0.39,1.115-0.568c0.148-0.07,0.297-0.137,0.449-0.203c-0.393,0.174,0.338-0.13,0.332-0.128
			c0.738-0.285,1.498-0.51,2.265-0.703c0.374-0.095,0.754-0.174,1.132-0.246c0.15-0.028,0.302-0.055,0.453-0.079
			c0.044-0.008,0.79-0.11,0.27-0.043c1.385-0.177,2.787-0.201,4.18-0.132c0.354,0.019,0.706,0.048,1.059,0.078
			c0.14,0.015,0.279,0.028,0.417,0.043c0.079,0.007,0.771,0.095,0.19,0.017c0.662,0.089,1.32,0.208,1.975,0.34
			c2.109,0.429,4.176,1.083,6.165,1.901c0.23,0.095,0.156,0.064-0.224-0.095c0.108,0.046,0.217,0.092,0.324,0.141
			c0.163,0.07,0.324,0.144,0.486,0.218c0.261,0.119,0.518,0.242,0.774,0.368c0.218,0.109,0.437,0.22,0.649,0.34
			c1.129,0.636,2.588,0.277,3.25-0.853C212.865,137.282,212.492,135.769,211.366,135.135L211.366,135.135z"/>
	</g>
	<g>
		<path fill="#525865" d="M169.955,172.662c0.988,2.485,3.697,3.87,6.213,4.221c2.24,0.311,4.446,0.014,6.297-1.356
			c0.922-0.682,1.797-1.563,2.346-2.582c0.729-1.349-1.324-2.547-2.051-1.198c-0.369,0.682-0.703,1.026-1.354,1.605
			c-1.323,1.178-2.984,1.386-4.688,1.224c-1.361-0.129-2.758-0.704-3.69-1.58c-0.16-0.152-0.309-0.316-0.45-0.485
			c-0.21-0.249,0.136,0.188-0.04-0.054c-0.061-0.084-0.116-0.171-0.172-0.258c-0.093-0.146-0.349-0.746-0.119-0.169
			c-0.239-0.6-0.785-1.015-1.461-0.83C170.212,171.358,169.716,172.059,169.955,172.662L169.955,172.662z"/>
	</g>
	<g>
		<path fill="#009ECC" d="M159.041,265.848c0.7-0.021,1.408,0.027,2.106,0.086c0.335,0.029,0.671,0.064,1.005,0.105
			c0.106,0.014,0.442,0.061-0.055-0.008c0.095,0.014,0.189,0.027,0.283,0.041c0.23,0.035,0.461,0.072,0.69,0.113
			c0.913,0.16,1.815,0.375,2.704,0.637c0.464,0.137,0.923,0.293,1.376,0.461c0.233,0.086,0.465,0.18,0.695,0.273
			c-0.366-0.15,0.026,0.016,0.084,0.041c0.156,0.068,0.31,0.141,0.463,0.215c0.466,0.223,0.921,0.471,1.365,0.736
			c0.227,0.133,0.447,0.275,0.667,0.422c0.11,0.072,0.219,0.15,0.327,0.227c0.051,0.035,0.504,0.373,0.214,0.15
			c0.43,0.33,0.834,0.693,1.222,1.074c0.196,0.193,0.386,0.396,0.569,0.602c0.094,0.105,0.184,0.213,0.273,0.32
			c0.061,0.072,0.119,0.146,0.179,0.219c-0.104-0.133-0.099-0.127,0.012,0.02c0.35,0.467,0.658,0.965,0.94,1.475
			c0.388,0.703,0.472,0.92,0.716,1.611c0.705,1.996,0.858,3.805,0.79,5.922c-0.067,2.043,3.1,2.037,3.167,0
			c0.103-3.113-0.419-6.219-1.866-8.998c-1.161-2.227-2.977-4.049-5.056-5.43c-3.244-2.156-7.222-3.127-11.065-3.42
			c-0.6-0.045-1.206-0.08-1.807-0.061C157.003,262.744,156.997,265.91,159.041,265.848L159.041,265.848z"/>
	</g>
	<g>
		<path fill="#009ECC" d="M197.669,262.682c-2.452-0.076-5.005,0.354-7.352,1.02c-4.551,1.293-8.764,4.066-10.848,8.436
			c-1.257,2.633-1.69,5.553-1.597,8.453c0.068,2.037,3.234,2.043,3.168,0c-0.094-2.873,0.365-5.586,1.725-7.92
			c0.635-1.088,1.072-1.611,2.051-2.533c0.197-0.186,0.402-0.363,0.611-0.537c0.103-0.086,0.209-0.17,0.313-0.252
			c-0.284,0.225,0.068-0.045,0.107-0.074c0.46-0.336,0.944-0.641,1.438-0.922c0.447-0.256,0.908-0.486,1.375-0.701
			c0.115-0.053,0.23-0.104,0.347-0.154c-0.361,0.158,0.026-0.01,0.085-0.033c0.268-0.109,0.538-0.209,0.809-0.305
			c0.914-0.326,1.852-0.582,2.799-0.789c0.409-0.088,0.822-0.166,1.236-0.236c0.191-0.031,0.387-0.061,0.58-0.088
			c0.345-0.051-0.391,0.049-0.051,0.006c0.117-0.016,0.235-0.029,0.354-0.043c0.604-0.07,1.212-0.119,1.821-0.145
			c0.341-0.016,0.684-0.025,1.026-0.016C199.712,265.91,199.705,262.744,197.669,262.682L197.669,262.682z"/>
	</g>
	<g>
		<path fill="#525865" d="M160.05,191.268c3.031,2.141,6.69,3.623,10.229,4.646c7.471,2.164,15.439,1.645,22.352-2.023
			c1.418-0.752,2.756-1.648,4.029-2.623c0.684-0.523,1.044-1.352,0.566-2.166c-0.395-0.676-1.479-1.096-2.166-0.568
			c-3.457,2.645-7.342,4.467-11.639,5.217c-3.4,0.59-6.931,0.357-10.263-0.371c-2.785-0.607-5.381-1.555-7.727-2.693
			c-1.269-0.613-2.52-1.295-3.688-2.086c-0.032-0.021-0.064-0.045-0.097-0.066c-0.706-0.5-1.759-0.129-2.166,0.568
			C159.017,189.893,159.346,190.771,160.05,191.268L160.05,191.268z"/>
	</g>
	<path fill="#EAD2C3" d="M168.802,223.184c0,0,8.755,1.494,17.51,0v4.32c0,0-2.904,1.375-8.437,1.375
		c-5.392,0-9.073-1.375-9.073-1.375V223.184z"/>
	<path fill="#EAD2C3" d="M219.757,129.328v49.424c0,0-2.586,33.783-43.561,40.541c0,0,12.487,0.379,24.618-6.326
		c10.906-6.027,22.508-15.791,23.022-34.215v-46.891L219.757,129.328z"/>
	<path fill="#525865" d="M232.438,142.646"/>
	<path fill="#525865" d="M216.821,111.636c0,0,6.413,17.691-1.188,60.804c0,0,16.626-28.026,10.481-55.584L216.821,111.636z"/>
	<path fill="#525865" d="M139.488,111.636c0,0-6.412,17.691,1.188,60.804c0,0-16.616-29.12-10.472-56.679L139.488,111.636z"/>
	<path fill="#525865" d="M198.256,151.734c0,2.078-1.025,3.761-2.293,3.761c-1.266,0-2.292-1.683-2.292-3.761
		c0-2.074,1.026-3.759,2.292-3.759C197.23,147.975,198.256,149.66,198.256,151.734z"/>
	<path fill="#525865" d="M156.02,151.734c0,2.078-1.027,3.761-2.293,3.761s-2.293-1.683-2.293-3.761
		c0-2.074,1.027-3.759,2.293-3.759S156.02,149.66,156.02,151.734z"/>
	<path fill="#EAD2C3" d="M220.652,164.627c0,0-0.95,9.778-6.176,12.628c0,0,3.819-49.961,1.157-55.463c0,0-4.958,2.099-12.316,2.803
		l-2.144-1.576c0,0-1.742,2.692-4.697,3.141c-2.043,0.312-15.914,2.587-20.28-5.647c0,0-3.885,6.968-17.986,6.063
		c0,0-5.65-1.022-8.817-3.318c0,0-2.287,0.65-6.374,0l-5.602,0.246l0.507-4.451c0,0,6.718,2.859,8.776,0.722
		s6.295-7.919,6.295-7.919s0.22,8.263,2.098,10.57c0.95,1.168,9.167,0.975,11.025,0.396c3.563-1.108,9.36-18.922,9.36-18.922
		s6.373,15.43,10.059,19.279c1.781,1.86,11.48-0.871,11.48-0.871s1.782-4.196,1.82-6.77c0,0,2.534,4.473,5.385,5.978
		c2.852,1.504,14.016-3.471,14.016-3.471s4.076,17.01-2.604,54.5c0,0,4.189-7.725,4.94-10.434
		C221.325,159.401,220.652,164.627,220.652,164.627z"/>
</g>
</svg>
