<?xml version="1.0" encoding="utf-8"?>
<!-- Generator: Adobe Illustrator 16.0.0, SVG Export Plug-In . SVG Version: 6.00 Build 0)  -->
<!DOCTYPE svg PUBLIC "-//W3C//DTD SVG 1.1 Tiny//EN" "http://www.w3.org/Graphics/SVG/1.1/DTD/svg11-tiny.dtd">
<svg version="1.1" baseProfile="tiny" id="Layer_1" xmlns="http://www.w3.org/2000/svg" xmlns:xlink="http://www.w3.org/1999/xlink"
	 x="0px" y="0px" width="350px" height="350px" viewBox="0 0 350 350" overflow="scroll" xml:space="preserve">
<g>
	<path fill="#F9D399" d="M232.263,103.042c3.315,8.531,3.693,17.846-2.042,26.076c-2.778,3.989-7.031,6.95-11.734,8.16
		c2.054-0.985,3.812-2.796,5.305-4.407c2.524-2.726,4.555-5.894,6.047-9.286C232.67,117.142,233.52,109.95,232.263,103.042z"/>
	<path fill="#F9D399" d="M231.448,102.334c1.387,6.49,0.86,13.156-1.586,19.338c-1.228,3.109-2.88,6.036-4.938,8.667
		c-2.301,2.938-5.581,6.802-9.499,7.232c-0.147,0.018-0.218,0.147-0.206,0.26c-0.861,0.064-1.729,0.071-2.596,0.012
		c-1.216-0.083-2.396-0.307-3.527-0.643c8.406-4.029,14.954-11.622,18.011-20.395c2.359-6.749,3.422-16.229,0.184-23.203
		c1.751,2.62,3.297,5.416,4.518,8.313C231.608,101.915,231.396,102.075,231.448,102.334z"/>
	<path fill="#1D1D1B" d="M165.344,223.126c-1.757,3.398-8.136,0.184-6.466-3.115c-1.109,1.376-2.294,2.69-3.569,3.917
		c5.044,2.354,9.958,4.325,15.48,5.333c4.949,0.909,9.982,1.223,15.008,1.317c0.343,0.011,0.685,0.017,1.026,0.022
		c11.451,0.172,23.15-0.926,32.495-8.129c-0.833-0.804-1.628-1.629-2.396-2.478c-0.218,1.15-1.139,2.135-2.183,2.625
		c-1.753,0.831-3.753,0.342-5.464-0.36c0.065,1.557-1.191,2.991-2.625,3.54c-2.076,0.796-4.631,0.229-6.183-1.339
		c-0.896,4.56-7.722,4.713-9.48,0.695c-0.583,1.93-2.371,3.439-4.377,3.746c-0.266,0.042-0.525,0.06-0.779,0.06
		c-2.212,0-4.123-1.428-5.021-3.422c-1.374,3.404-6.496,3.368-8.071,0.094c-0.005-0.017-0.005-0.029-0.011-0.041
		c0,0,0,0.007-0.006,0.012c-0.731,1.434-2.566,1.823-4.018,1.352C167.008,226.412,165.887,224.761,165.344,223.126z M225.219,89.798
		c10.323,11.262,15.196,30.512,3.416,42.629c-4.915,5.05-12.626,7.57-19.517,5.74c-6.152-1.64-11.498-7.227-11.103-13.816
		c-1.091,0.974-2.253,1.906-3.504,2.791c-3.186,2.242-6.455,4.72-10.377,5.392c0.022,0.023,0.041,0.059,0.035,0.101
		c-0.626,3.18-1.729,9.02,4.678,7.521c0.79-0.183,1.316-0.578,2.2-0.555c1.83,0.054,3.464,1.257,4.432,2.738
		c1.351,2.053,1.657,4.667,1.999,7.043c0.508,3.517,0.709,7.08,0.283,10.613c0,0.018-0.011,0.024-0.018,0.042
		c0.201,3.139,0.177,6.307,0.419,9.445c0.33,4.212,1.015,8.348,1.611,12.524c1.327,4.436,2.743,8.843,4.235,13.237
		c3.469,10.213,8.301,19.026,15.888,26.761c0.022,0.023,0.035,0.048,0.047,0.077c0.324-0.024,0.625,0.36,0.319,0.619
		c-6.968,5.971-15.905,8.029-24.866,8.596c0.3,11.546-1.476,23.267-2.703,34.718c-1.25,11.657-2.359,23.316-2.242,35.049
		c0,0.072-0.029,0.125-0.059,0.166c2,1.539,3.594,3.451,4.597,5.787c0.482,1.127,1.345,3.175,0.224,4.253
		c-1.434,1.375-3.912-0.784-4.92-1.739c-1.458-1.381-2.419-3.057-2.956-4.933c-0.448,2.106-1.245,4.118-2.425,5.94
		c-0.743,1.146-2.129,3.546-3.858,3.004c-1.657-0.514-1.168-2.962-0.938-4.207c0.483-2.637,1.812-5.292,3.894-7.02
		c-0.101-0.007-0.201-0.065-0.23-0.201c-2.247-11.664-2.902-23.516-3.77-35.332c-0.432-5.953-0.955-11.887-1.688-17.811
		c-0.72-5.857-2.165-12.023-1.988-17.929c0.006-0.029,0.023-0.041,0.047-0.041c0.019,0,0.036,0.006,0.042,0.029
		c1.569,5.362,1.764,11.356,2.454,16.891c0.714,5.699,1.269,11.415,1.688,17.144c0.896,12.342,1.469,24.714,3.771,36.896
		c0.005,0.046,0,0.094-0.007,0.135c0.136-0.019,0.247,0.129,0.136,0.266c-0.206,0.254-0.407,0.501-0.602,0.755
		c-0.372,0.584-0.673,1.209-0.891,1.889c-0.148,0.453-0.69,2.4-0.153,3.149c0.034-0.006,0.064,0.007,0.095,0.036
		c0.135,0.147,0.276,0.225,0.424,0.253c0.065,0.007,0.136,0.007,0.213,0c1.204-0.183,2.713-3.45,3.451-5.162
		c0.059-0.348,0.112-0.695,0.159-1.049c0-0.013,0.006-0.024,0.012-0.036c-0.035-0.042-0.065-0.101-0.065-0.172
		c-0.473-11.793-0.667-23.598-0.849-35.396c-0.189-11.693-0.632-23.474-0.213-35.167c-3.114-0.047-6.384-0.165-9.664-0.472
		c-7.781-0.727-15.628-2.52-21.692-6.985c-0.106-0.077-0.083-0.2-0.012-0.259c-0.006-0.09,0.023-0.178,0.1-0.26
		c6.932-7.292,11.369-15.953,14.2-25.563c0.572-1.958,1.085-3.929,1.546-5.917c-0.03-0.035-0.053-0.082-0.047-0.136
		c0.183-5.203,0.407-10.259-0.207-15.45c-0.489-4.207-1.28-8.359-1.787-12.56c-0.018-0.023-0.023-0.047-0.036-0.071
		c-0.719-3.309-0.92-6.737-0.837-10.117c0.059-2.72-0.053-6.212,1.209-8.714c0.708-1.397,1.829-2.56,3.41-2.878
		c2.448-0.49,5.268,0.974,6.791-2.082c1.197-2.396,0.23-5.062-0.744-7.375c-2.902-0.307-5.799-1.038-8.489-1.811
		c-3.003-0.867-5.964-1.87-8.778-3.132c0.961,7.173-2.467,14.447-8.678,18.247c-6.737,4.118-15.752,3.587-22.253-0.743
		c-11.38-7.593-14.365-26.082-6.188-36.984c-1.918,0.956-3.971,1.245-6.207,0.359c-5.499-2.183-3.044-10.377,1.387-12.495
		c-0.449-0.213-0.885-0.46-1.311-0.756c-3.032-2.112-4.495-6.289-1.958-9.368c3.191-3.864,9.28-3.162,13.421-1.481
		c2.495,1.015,4.772,2.561,6.589,4.519c-2.802-6.654-3.458-14.229-2.289-21.374c1.551-9.54,6.536-18.294,14.259-24.165
		c3.575-2.726,7.492-4.531,11.598-5.646c0.177-0.095,0.349-0.195,0.531-0.29c0.129-0.071,0.248-0.017,0.318,0.071
		c5.41-1.328,11.132-1.463,16.867-0.832c9.398,1.044,18.159,3.853,23.853,11.864c3.48,4.896,5.251,11.356,4.696,17.492
		c0.076,0.147,0.07,0.354-0.054,0.496c-0.195,1.705-0.554,3.386-1.126,4.991c0.005,0,0.005,0,0.005,0
		c0.33,0.171,0.567,0.383,0.749,0.631c-0.047-2.124,5.434-2.277,7.026-2.289c3.776-0.036,7.559,1.168,10.484,3.587
		C226.239,76.424,232.086,87.556,225.219,89.798z M230.221,129.118c5.735-8.23,5.357-17.545,2.042-26.076
		c1.257,6.908,0.407,14.1-2.425,20.542c-1.492,3.392-3.522,6.56-6.047,9.286c-1.493,1.611-3.251,3.422-5.305,4.407
		C223.189,136.068,227.442,133.106,230.221,129.118z M229.862,121.672c2.446-6.182,2.973-12.849,1.586-19.338
		c-0.053-0.259,0.16-0.419,0.359-0.419c-1.221-2.896-2.767-5.693-4.518-8.313c3.238,6.974,2.176,16.454-0.184,23.203
		c-3.057,8.772-9.604,16.365-18.011,20.395c1.132,0.336,2.312,0.561,3.527,0.643c0.867,0.059,1.734,0.053,2.596-0.012
		c-0.012-0.112,0.059-0.242,0.206-0.26c3.918-0.43,7.198-4.295,9.499-7.232C226.982,127.708,228.635,124.782,229.862,121.672z
		 M226.246,117.083c3.008-8.177,3.764-19.386-1.576-26.813c0.483,2.166,0.46,4.331-0.484,6.207c-0.1,0.201-0.212,0.389-0.33,0.572
		c0.006,0.018,0.013,0.036,0.013,0.059c0.141,14.583-7.635,29.327-19.357,37.886c1.216,0.856,2.561,1.528,3.994,2.018
		c0.018-0.023,0.036-0.041,0.065-0.059C216.593,132.445,223.03,125.814,226.246,117.083z M224.841,89.396
		c4.153-1.386,2.791-7.108,1.528-9.941c-1.068-2.383-2.714-4.389-4.819-5.923c-2.449-1.775-5.352-2.72-8.366-2.885
		c-1.222-0.065-7.422-0.065-7.599,1.611c-0.018,0.142-0.136,0.188-0.235,0.165c0.152,0.271,0.266,0.579,0.358,0.938
		c0.036,0.148,0.077,0.295,0.102,0.448c0.147,0.596,0.254,1.216,0.342,1.841c0.065,0.407,0.118,0.82,0.171,1.227
		c0.042,0,0.083,0.012,0.124,0.024c6.549,0.879,12.112,5.292,14.447,11.503c0.944,2.514,2.018,6.46,0.195,8.867
		c-0.897,1.186-2.271,1.711-3.628,1.599c1.403,0.454,2.961,0.33,4.401-0.614c3.079-2.018,2.955-5.64,1.812-9.062
		c-0.007-0.018-0.013-0.029-0.013-0.047c-0.808-2.389-2.111-4.679-3.162-6.254c-3.333-4.979-8.254-6.896-14.064-7.02
		c-0.136-0.006-0.213-0.124-0.213-0.236c0-0.083,0.048-0.165,0.154-0.183c5.297-0.915,10.689,1.746,13.876,5.929
		c0.896,1.174,1.846,2.625,2.659,4.207c0.09-0.154,0.301-0.242,0.467-0.136c0.384,0.241,0.638,0.542,1.104,0.654
		c0.454,0.106,0.914,0.053,1.327-0.159c0.673-3.611-3.581-7.888-6.33-9.551c-3.971-2.407-8.891-4.042-13.445-2.473
		c-0.101,0.036-0.189-0.035-0.219-0.118s-0.012-0.177,0.077-0.218c5.439-2.395,12.2,0.313,16.406,4.071
		c2.837,2.531,6.041,8.56,2.06,11.433c0.041,0.136,0.082,0.266,0.124,0.396C224.546,89.355,224.705,89.284,224.841,89.396z
		 M225.68,86.453c-0.679,0.424-1.712,0.489-2.343,0.018c0.318,0.678,0.606,1.38,0.849,2.094
		C224.965,87.916,225.438,87.202,225.68,86.453z M218.788,98.063c1.616-0.572,2.602-2.36,2.59-4.661
		c-0.012-1.162-0.349-2.431-0.685-3.528c-0.69-2.253-1.829-4.389-3.327-6.206c-1.6-1.941-3.54-3.422-5.693-4.52
		c4.407,4.637,6.46,11.138,5.559,17.48C217.679,97.161,218.187,97.65,218.788,98.063z M223.348,97.715
		c-1.722,1.977-4.518,2.454-6.837,1.463c-1.539,12.023-7.263,23.492-15.557,32.282c0.873,1.239,1.946,2.331,3.168,3.251
		C215.715,125.401,222.228,112.452,223.348,97.715z M215.762,97.851c0.997,0.419,1.894,0.496,2.672,0.319
		c-2.73-1.175-3.628-4.189-4.342-6.956c-1.339-5.179-2.395-10.949-7.669-13.498c0.019,0.153,0.035,0.307,0.053,0.46
		c0.054,0.46,0.036,1.044-0.088,1.558c0.011,0.012,0.018,0.012,0.029,0.018c2.648,2.69,4.501,5.876,5.457,9.54
		c0.572,2.194,0.843,4.507,1.97,6.519c0.449,0.803,1.045,1.487,1.729,2.036C215.633,97.821,215.696,97.821,215.762,97.851z
		 M216.824,96.116c0.359-6.442-1.641-12.348-5.847-17.297c-0.992-0.46-2.024-0.85-3.086-1.156c2.561,1.628,4.159,4.254,5.168,7.168
		C214.286,88.353,214.564,92.972,216.824,96.116z M216.292,219.279c-0.53-0.601-1.037-1.216-1.533-1.835
		c-1.127,0.762-2.756,0.525-3.958-0.111c-0.125,1.692-1.523,3.114-3.162,3.581c-2.178,0.613-4.219-0.46-5.622-2.048
		c-0.443,4.059-6.743,5.134-8.508,1.109c-1.333,3.321-5.775,3.334-7.835,0.82c-0.808,2.153-2.79,2.974-4.683,2.708
		c-1.612-0.23-3.157-1.245-3.859-2.88c-0.178,1.765-2.283,3.209-3.977,2.809c-1.25-0.295-2.147-1.38-2.295-2.572
		c-1.94,2.106-5.981,1.115-6.666-1.781c-1.115,1.262-3.232,0.956-4.212-0.484c-0.307,0.407-0.614,0.814-0.933,1.21
		c0.095-0.007,0.201,0.1,0.148,0.218c-0.637,1.476,0.542,2.938,1.788,3.593c1.446,0.761,3.062,0.62,4.036-0.785
		c0.058-0.087,0.153-0.111,0.229-0.087c0.036-0.219,0.372-0.324,0.479-0.095c0.566,1.25,1.186,2.596,2.407,3.345
		c1.386,0.843,3.103,0.632,4.112-0.673c0.159-0.212,0.454-0.129,0.507,0.072c0.083-0.125,0.277-0.166,0.396,0
		c2.082,3.021,5.527,2.488,7.304-0.443c0.035-0.06,0.083-0.095,0.136-0.113c0.035-0.104,0.142-0.165,0.247-0.165
		c0.107,0,0.213,0.054,0.26,0.177c0.845,2.207,3.057,3.759,5.464,3.311c2.124-0.395,3.309-2,3.981-3.929
		c0.112-0.319,0.661-0.289,0.62,0.083c-0.007,0.047-0.012,0.088-0.019,0.129c0,0.006,0.007,0.006,0.007,0.012
		c0.967,1.652,2.565,2.996,4.602,2.88c2.165-0.124,3.256-1.646,4.206-3.352c0.105-0.183,0.389-0.183,0.513-0.041
		c0.101-0.054,0.225-0.06,0.337,0.041c2.637,2.46,7.604,1.717,7.704-2.371c0.006-0.366,0.496-0.432,0.626-0.112
		c0.064-0.029,0.141-0.036,0.218-0.012C212.003,222.358,215.585,222.683,216.292,219.279z M216.109,98.983
		c-0.791-0.407-1.51-0.979-2.1-1.74c-1.528-1.977-1.954-4.478-2.521-6.844c-0.919-3.876-2.589-7.145-5.362-10
		c-0.199,0.33-0.489,0.549-0.901,0.542c11.25,14.342,3.904,33.451-5.664,46.47c-0.158,0.213-0.466,0.106-0.52-0.082
		c-0.012-0.06,0-0.124,0.047-0.194c7.122-9.882,12.732-22.413,10.72-34.247c-0.666-3.899-2.159-7.716-4.689-11.345
		c0.885,3.039,1.664,6.124,2.224,9.227c0.249,1.41,0.448,2.814,0.603,4.23c0.938-0.224,1.073-1.493,0.855-2.283
		c-0.225-0.814-0.744-1.31-1.328-1.882c-0.028-0.024-0.041-0.053-0.053-0.077c-0.083-0.183,0.136-0.401,0.342-0.294
		c0.855,0.465,1.476,1.498,1.617,2.495c0.022,0.195,0.035,0.383,0.022,0.566c-0.041,0.849-0.554,1.746-1.421,1.847
		c0.389,3.935,0.348,7.894-0.354,11.846c-1.209,6.826-4.354,12.253-9.133,16.696c0.024,1.197,0.195,2.342,0.503,3.427
		c0.359,1.286,0.901,2.484,1.599,3.581C208.858,121.832,213.892,111.018,216.109,98.983z M212.753,217.15
		c0.555-0.007,1.032-0.154,1.528-0.302c-4.625-5.929-7.988-12.685-10.489-19.881c-1.882-5.435-3.575-10.932-5.269-16.424
		c-1.463-4.737-3.233-9.669-3.563-14.667c-0.248,0.266-0.524,0.525-0.844,0.779c-0.265,0.213-0.643-0.135-0.383-0.383
		c0.489-0.479,0.879-0.956,1.173-1.422c0-0.03,0-0.06,0-0.088c-0.006-0.083,0.065-0.125,0.13-0.13
		c2.236-3.864-1.427-7.51-2.625-11.563c-0.012-0.018-0.034-0.024-0.041-0.047c-1.439-4.076-1.752-8.306-1.134-12.577
		c-0.419-0.018-0.86,0.018-1.332,0.124c-0.077,0.018-0.147,0.035-0.225,0.065c1.298,5.068,0.561,14.353-5.888,15.569
		c-6.861,1.298-8.52-8.377-9.033-13.168c-0.713-0.023-1.398-0.1-2.047-0.059c0.979,3.08,1.463,6.595,1.239,9.882
		c0.136-0.006,0.284,0.082,0.301,0.253c0.525,4.207-5.622,12.1,0.519,14.33c0.283,0.106,0.171,0.508-0.124,0.455
		c-0.319-0.054-0.597-0.13-0.861-0.218c1.486,4.548,0.312,9.474-0.473,14.076c-0.938,5.51-2.023,11.003-3.604,16.371
		c-2.094,7.108-5.126,14.2-9.551,20.229c1.056,1.392,2.838,1.174,3.94,0.023c-0.005-0.041-0.011-0.076-0.011-0.118
		c0-0.153,0.147-0.212,0.266-0.178c0,0,0,0,0-0.005c0.118-0.153,0.425-0.071,0.348,0.147c-0.036,0.1-0.082,0.182-0.124,0.271
		c0.425,1.339,1.386,2.519,2.82,2.808c1.468,0.29,2.66-0.513,3.557-1.563c0.042-0.131,0.089-0.26,0.154-0.39
		c0.106-0.224,0.442-0.095,0.431,0.123c0.053,0.06,0.077,0.136,0.047,0.213c-0.042,0.111-0.101,0.206-0.147,0.308
		c-0.13,1.208,0.643,2.512,1.894,2.778c1.846,0.39,2.797-1.257,3.345-2.679c0.071-0.189,0.277-0.206,0.39-0.095
		c0.106-0.047,0.254-0.018,0.313,0.118c0.678,1.646,2.188,2.861,4.022,2.839c1.782-0.019,2.921-1.104,3.829-2.509
		c0.035-0.046,0.076-0.076,0.124-0.094c-0.053-0.089-0.118-0.171-0.165-0.26c-0.165-0.307,0.271-0.555,0.466-0.271
		c0.845,1.286,2.224,2.16,3.8,2.106c1.651-0.053,2.713-1.133,3.599-2.401c0.177-0.253,0.619-0.118,0.549,0.195
		c0.064-0.024,0.142-0.012,0.2,0.064c1.114,1.604,3.062,2.537,4.973,1.858c1.741-0.62,2.402-2.189,2.667-3.864
		c0.06-0.354,0.531-0.212,0.566,0.076c0.012,0.09,0.012,0.177,0.019,0.267c2.565,2.713,7.291,3.067,8.158-1.175
		c-0.029-0.018-0.065-0.041-0.095-0.065c-0.17-0.135,0.007-0.377,0.188-0.348c0.09-0.194,0.455-0.177,0.49,0.053
		c0.006,0.06,0.006,0.118,0.012,0.172C211.407,217.031,212.063,217.162,212.753,217.15z M206.553,108.824
		c2.631-11.292-0.75-22.613-3.657-33.498c-7.853,6.513-17.712,10.542-27.286,13.77c-10.808,3.64-22.365,7.174-33.751,8.395
		c-0.012,0.065-0.042,0.124-0.083,0.177c0.308,9.646,4.213,18.878,11.894,24.99c4.301,3.434,9.558,5.387,14.761,7.003
		c2.938,0.908,6.247,1.87,9.551,2.259c-0.053-0.194,0.201-0.354,0.318-0.159c0.036,0.064,0.071,0.135,0.106,0.2
		c2.431,0.248,4.844,0.177,7.086-0.472c4.873-1.411,10.359-5.746,13.899-9.263C203.065,118.57,205.384,113.838,206.553,108.824z
		 M204.747,80.264c1.859,0.478,0.879-3.952,0.762-4.767c-0.154-1.091-0.143-2.861-1.157-3.598c-0.329,0.873-0.708,1.728-1.155,2.554
		c0.188,0.094,0.3,0.377,0.111,0.537c-0.065,0.053-0.129,0.106-0.194,0.16C203.673,76.836,204.223,78.542,204.747,80.264z
		 M204.558,66.241c0.208-2,0.225-3.988,0.019-5.941c-13.227,5.799-23.144,15.817-30.023,28.347c2.637-0.885,5.215-1.835,7.747-2.867
		C186.919,77.007,195.556,70.141,204.558,66.241z M204.264,59.575c0.076-0.035,0.147-0.042,0.212-0.029
		c-0.26-1.9-0.726-3.758-1.434-5.552c-16.507,7.363-29.663,19.504-35.568,36.807c2.166-0.602,4.325-1.256,6.472-1.958
		C179.834,75.78,191.302,65.362,204.264,59.575z M203.874,70.33c0.242-1.068,0.448-2.13,0.584-3.192
		c-9.108,4.024-15.733,10.354-21.497,18.365c3.15-1.31,6.218-2.761,9.208-4.36c2.602-4.472,6.997-8.678,11.693-10.813
		C203.867,70.33,203.867,70.33,203.874,70.33z M202.683,74.471c0.377-1.08,0.702-2.171,0.979-3.256
		c-2.105,1.368-4.183,2.672-6.052,4.395c-1.652,1.528-3.067,3.233-4.438,4.997c3.257-1.788,6.431-3.77,9.516-5.988
		C202.671,74.577,202.665,74.53,202.683,74.471z M202.735,53.262c-1.18-2.702-2.903-5.256-5.263-7.563
		c-0.023-0.024-0.041-0.042-0.065-0.059c-0.017,0.071-0.064,0.135-0.152,0.183c-18.666,9.534-31.297,26.672-36.565,46.759
		c2.106-0.524,4.2-1.067,6.295-1.646C171.627,73.362,186.577,60.306,202.735,53.262z M197.526,157.836
		c0.048-3.521-0.059-7.014-0.785-10.495c-0.329-1.575-0.72-3.44-1.74-4.725c-0.938-1.174-1.971-1.912-3.22-2.118
		c-0.521,3.782-0.284,7.445,0.565,11.121c0.035,0.018,0.06,0.047,0.07,0.095c0.997,4.401,6.183,9.498,2.92,13.716
		c0.851,3.646,1.782,7.263,2.785,10.861c-1.032-6.1-1.498-12.619-0.649-18.43C197.479,157.831,197.502,157.831,197.526,157.836z
		 M196.925,45.257c0.018-0.012,0.029-0.012,0.047-0.018c-1.558-1.439-3.268-2.631-5.091-3.616c-1.782-0.968-3.677-1.729-5.629-2.331
		c-0.006,0.006-0.012,0.012-0.018,0.018c-9.964,5.894-18.106,14.129-24.831,23.515c-6.903,9.634-11.333,20.448-11.723,32.359
		c1.823-0.425,3.64-0.844,5.458-1.269c-0.584-11.746,5.368-22.795,12.152-31.969c6.201-8.389,14.072-16.79,24.249-20.153
		c0.094-0.029,0.177-0.024,0.242,0.012c0.224,0.106,0.24,0.513-0.061,0.643c-10.259,4.253-17.928,11.793-24.383,20.678
		c-6.625,9.12-11.599,19.256-11.799,30.695c1.617-0.383,3.227-0.767,4.838-1.162c-0.036-0.042-0.065-0.1-0.047-0.171
		C164.282,72.288,178.783,54.542,196.925,45.257z M194.146,310.521c1.121,0.123,1.475-0.371,1.063-1.48
		c-0.07-0.349-0.172-0.685-0.295-1.015c-0.324-0.921-0.779-1.812-1.299-2.638c-0.3-0.472-0.637-0.908-0.985-1.334
		c0.525,0.838,0.461,2.09-0.129,2.88c-0.531,1.026-1.923-0.006-2.549-0.461c-0.95-0.685-1.799-1.434-2.377-2.412
		c0.448,1.356,1.097,2.602,2,3.74c0.482,0.614,1.003,1.174,1.604,1.681C192.264,310.386,192.76,310.822,194.146,310.521z
		 M192.135,266.015c1.238-11.567,2.04-23.084,2.783-34.688c-2.342,0.136-4.689,0.177-7.002,0.153c-0.473,0-0.955-0.006-1.445-0.012
		c0.431,11.699,0.177,23.451,0.372,35.161c0.2,11.805,0.583,23.598,0.879,35.396c0,0.053-0.012,0.096-0.029,0.137
		c0.005,0.023,0.011,0.047,0.011,0.071c-0.006,0.069-0.018,0.135-0.022,0.205c0,0.012,0.005,0.018,0,0.029
		c0,0.007-0.007,0.024-0.013,0.036c-0.023,0.271-0.07,0.543-0.111,0.814c0.383,0.755,0.926,1.375,1.568,1.935
		c0.525,0.46,2.236,2.041,3.092,1.451c0.572-1.05,0.235-2.194-0.607-3.074c-0.089-0.094-0.054-0.2,0.029-0.259
		c-0.124-0.143-0.23-0.29-0.33-0.448c-0.219-0.254-0.431-0.502-0.632-0.761c-0.018-0.023-0.029-0.048-0.036-0.071
		c-0.206-0.171-0.406-0.354-0.63-0.519c-0.131-0.102-0.131-0.26-0.065-0.366c-0.023-0.041-0.041-0.083-0.041-0.143
		C189.745,289.336,190.883,277.667,192.135,266.015z M183.999,155.382c5.657-1.398,6.383-9.793,5.208-14.56
		c-0.43,0.194-0.89,0.418-1.25,0.489c-5.251,0.974-5.15-5.416-4.023-8.743c0,0,0.006,0,0.006-0.006
		c-0.083,0.012-0.159,0.03-0.242,0.042c-1.609,0.219-3.268,0.212-4.926,0.065c1.67,3.487,2.648,9.144-2.277,10.235
		c-0.507,0.112-1.003,0.142-1.481,0.136C176.412,147.607,177.014,157.111,183.999,155.382z M185.557,307.985
		c0.371-0.785,0.672-1.582,0.914-2.396c-0.814,1.734-1.905,3.485-2.932,3.338c-1.146,0.473-1.576-0.996-1.528-1.923
		c0.029-0.589,0.136-1.15,0.301-1.687c-0.401,0.679-0.755,1.397-1.021,2.188c-0.401,1.162-1.894,5.889,1.445,4.749
		C183.774,311.896,185.12,308.916,185.557,307.985z M185.326,39.021c-1.274-0.354-2.566-0.649-3.877-0.885
		c-11.02,3.74-19.769,13.227-25.774,22.949c-6.472,10.472-10.159,22.506-9.191,34.849c0.908-0.213,1.811-0.425,2.713-0.638
		c-0.377-11.911,4.749-23.333,11.557-32.848C167.185,53.463,175.361,44.189,185.326,39.021z M180.152,37.917
		c-1.51-0.23-3.033-0.395-4.549-0.507c-9.976,5.398-18.389,13.174-24.129,23.008c-6.454,11.05-8.648,23.468-7.911,36.128
		c0,0.041-0.005,0.071-0.023,0.094c0.855-0.206,1.711-0.407,2.56-0.613c-1.87-12.531,2.844-25.627,9.528-36.082
		c3.263-5.109,7.198-9.811,11.675-13.911C170.913,42.732,175.231,39.05,180.152,37.917z M172.223,183.688
		c0.956-5.346,2.046-10.696,1.25-16.118c-4.637-1.911-0.348-9.616,0.201-13.515c-0.265-3.752-0.631-7.339-1.345-11.044
		c-0.961,0.142-1.846,0.614-2.661,2.024c-1.227,2.111-1.309,4.548-1.422,6.949c-0.171,3.729,0.13,7.374,0.532,11.062
		c1.77,7.805,3.339,16.323,2.725,24.424C171.757,186.207,171.993,184.95,172.223,183.688z M174.571,37.333
		c-1.115-0.065-2.23-0.106-3.327-0.124c-0.006,0-0.006,0-0.006,0.006c-11.799,2.129-20.708,12.146-26.023,22.394
		c-6.135,11.829-6.778,24.725-3.008,37.362c0.354-0.089,0.708-0.171,1.062-0.26c-0.059-0.029-0.106-0.083-0.118-0.165
		C140.182,72.684,153.639,48.614,174.571,37.333z M160.306,130.227c0.018-0.909-0.035-1.817-0.171-2.72
		c-0.012-0.083,0.006-0.153,0.029-0.218c-4.519-2.13-8.625-4.961-11.87-9.021c-1.905-2.377-3.486-5.05-4.654-7.894
		c-0.106,0.071-0.218,0.119-0.336,0.16C146.336,119.166,152.123,126.056,160.306,130.227z M168.365,37.239
		c-3.257,0.129-6.442,0.637-9.487,1.534c-8.849,5.758-15.852,13.545-19.415,23.681c-3.858,10.961-3.758,24.365,2.437,34.453
		c-4.844-12.17-2.909-26.583,3.115-37.969C149.657,50.165,158.022,39.623,168.365,37.239z M159.681,134.581
		c0.331-1.209,0.531-2.448,0.596-3.705c-8.306-3.876-14.873-11.386-17.309-20.253c-1.115,0.177-2.431-0.637-2.82-1.652
		c-0.578-1.499,0.524-3.032,1.988-3.256c-0.472-1.994-0.727-4.035-0.756-6.083c-0.041,0.018-0.094,0.029-0.153,0.018
		c-0.183-0.036-0.36-0.088-0.537-0.147C134.607,114.977,147.032,127.732,159.681,134.581z M159.503,135.2c-0.006,0-0.012,0-0.018,0
		c-12.395-6.454-26.601-20.66-19.12-35.827c-0.313-0.136-0.608-0.295-0.891-0.484c-6.868,15.014-2.573,38.347,14.849,43.957
		c0.153,0.047,0.212,0.171,0.212,0.301C156.866,140.994,158.572,138.221,159.503,135.2z M154.2,143.442
		c-0.012-0.006-0.023,0-0.042-0.006c-8.318-2.52-14.023-9.516-16.619-17.61c-2.732-8.524-3.11-19.262,1.604-27.167
		c-0.201-0.147-0.401-0.301-0.596-0.46c-0.195-0.159-0.396-0.324-0.59-0.501c-4.348,8.229-6.177,17.273-4.607,26.524
		c1.504,8.826,6.082,18.648,14.459,22.748c1.121-0.348,2.218-0.791,3.269-1.357C152.211,145.011,153.25,144.274,154.2,143.442z
		 M156.223,39.682c-4.059,1.552-7.817,3.864-11.108,7.002c-12.897,12.318-15.787,35.285-4.236,49.432
		c-3.068-4.33-4.077-10.064-4.448-15.245c-0.443-6.1,0.336-12.3,2.283-18.1C141.799,53.592,148.076,45.103,156.223,39.682z
		 M143.091,109.939c0.118-0.012,0.23-0.03,0.348-0.047c-0.495-1.257-0.902-2.543-1.221-3.853c-1.121,0.377-2,1.699-1.462,2.832
		c0.424,0.897,1.197,1.121,2.028,1.085c-0.047-0.183,0.225-0.253,0.284-0.076C143.079,109.904,143.085,109.921,143.091,109.939z
		 M142.165,147.855c1.651-0.018,3.297-0.236,4.896-0.661c-8.253-3.108-12.801-14.442-14.241-22.371
		c-1.675-9.233-0.294-19.416,4.791-27.416c0.006-0.011,0.012-0.011,0.018-0.023c-0.178-0.183-0.331-0.39-0.472-0.602
		c-6.809,6.861-8.69,16.637-8.271,26.041C129.328,132.829,133.475,142.434,142.165,147.855z M141.38,99.149
		c0.006-0.455,0.012-0.903,0.042-1.357c-0.053-0.017-0.106-0.047-0.159-0.101c-0.909-1.014-1.74-2.082-2.496-3.197
		c-0.773-0.129-1.387,0.36-1.457,1.027c0.183,0.13,0.259,0.407,0.093,0.584c0.024,0.071,0.042,0.136,0.078,0.2
		c0.23,0.431,0.596,0.791,0.961,1.115c0.861,0.761,1.793,1.439,2.926,1.723C141.375,99.143,141.375,99.149,141.38,99.149z
		 M137.781,94.151c0.224-0.076,0.466-0.106,0.726-0.064c-0.538-0.82-1.026-1.676-1.487-2.543c-1.728-2.36-3.835-4.366-6.501-5.758
		c-2.861-1.492-6.791-2.531-10.112-1.71c0.006,0.071-0.018,0.147-0.094,0.201c-1.098,0.743-1.558,1.652-1.594,2.596
		c6.171-4.006,15.103,2.318,18.997,7.097C137.764,94.028,137.775,94.087,137.781,94.151z M132.708,145.69
		c2.554,1.256,5.351,1.994,8.183,2.135c-8.159-5.339-12.124-14.949-12.655-24.477c-0.507-9.062,1.003-20.943,8.737-26.878
		c-0.012-0.024-0.023-0.042-0.035-0.065c-2.065,1.263-4.136,3.665-6.319,6.036c0.136-0.018,0.254,0.154,0.147,0.283
		c-4.813,6.047-6.235,13.581-6.395,21.149c-0.177,8.224,1.954,15.988,8.283,21.545C132.738,145.495,132.744,145.602,132.708,145.69z
		 M136.867,95.048c0.088-0.236,0.23-0.437,0.407-0.602c-5.244-0.655-12.3,0.708-16.695-2.779c-2.177-1.729-3.434-5.292-1.204-7.263
		c-0.661,0.26-1.292,0.59-1.87,1.039c-2.655,2.041-2.855,5.368-0.756,7.893c1.775,2.13,4.372,2.879,7.068,2.985
		c4.354,0.171,8.572-1.357,12.932-1.298C136.796,95.024,136.832,95.037,136.867,95.048z M136.501,95.727
		c-1.015,0.018-2.077,0.124-3.162,0.277c-4.413,2.166-7.959,5.109-11.911,8.059c-1.729,1.286-4.171,2.607-5.935,1.133
		c1.269,4.466,6.814,3.085,9.734,0.991C129.398,103.201,132.112,98.317,136.501,95.727z M129.115,143.448
		c0.608,0.478,1.245,0.903,1.894,1.304c-5.646-5.009-7.451-12.996-7.375-20.335c0.071-7.009,1.109-15.038,5.711-20.619
		c-1.363,1.416-2.773,2.737-4.26,3.711C117.074,117.892,118.844,135.359,129.115,143.448z M128.101,93.155
		c2.985,0.124,5.857,0.195,8.778,0.743c-4.012-4.572-12.07-9.852-17.981-6.72c-0.065,0.036-0.124,0.024-0.171-0.006
		c0.101,1.835,1.711,3.71,3.256,4.596C123.853,92.83,125.988,93.066,128.101,93.155z M125.988,99.656
		c1.699-1.286,3.475-2.514,5.422-3.357c-2.896,0.472-5.888,1.015-8.678,0.737c-1.174,0.802-2.219,1.729-3.109,2.844
		c-1.015,1.28-2.69,3.51-1.817,5.221c0.006,0.006,0.006,0.012,0.006,0.018C120.726,104.789,124.077,101.107,125.988,99.656z
		 M121.847,96.918c-0.785-0.129-1.545-0.331-2.283-0.637c-2.566,1.563-4.643,4.791-4.271,7.888c0.006,0.059,0.018,0.106,0.023,0.166
		c0.643,0.578,1.357,0.814,2.101,0.808c-0.868-1.475,0.112-3.221,0.956-4.53C119.299,99.166,120.479,97.939,121.847,96.918z"/>
	<path fill="#F9D399" d="M224.67,90.27c5.34,7.428,4.584,18.637,1.576,26.813c-3.216,8.731-9.653,15.362-17.676,19.87
		c-0.029,0.018-0.048,0.035-0.065,0.059c-1.434-0.49-2.778-1.162-3.994-2.018c11.723-8.56,19.498-23.303,19.357-37.886
		c0-0.023-0.007-0.042-0.013-0.059c0.118-0.183,0.23-0.372,0.33-0.572C225.13,94.6,225.153,92.435,224.67,90.27z"/>
	<path fill="#9AD7D5" d="M226.369,79.456c1.263,2.833,2.625,8.555-1.528,9.941c-0.136-0.112-0.295-0.041-0.359,0.095
		c-0.042-0.13-0.083-0.26-0.124-0.396c3.981-2.873,0.777-8.902-2.06-11.433c-4.206-3.758-10.967-6.466-16.406-4.071
		c-0.089,0.042-0.106,0.136-0.077,0.218h-0.005c-0.024-0.153-0.065-0.3-0.102-0.448c-0.093-0.36-0.206-0.667-0.358-0.938
		c0.1,0.024,0.218-0.023,0.235-0.165c0.177-1.676,6.377-1.676,7.599-1.611c3.015,0.165,5.917,1.109,8.366,2.885
		C223.655,75.067,225.301,77.073,226.369,79.456z"/>
	<path fill="#66C7C3" d="M223.337,86.471c0.631,0.472,1.664,0.407,2.343-0.018c-0.242,0.749-0.715,1.463-1.494,2.112
		C223.943,87.851,223.655,87.149,223.337,86.471z"/>
	<path fill="#9AD7D5" d="M223.674,89.196c1.144,3.422,1.268,7.044-1.812,9.062c-1.44,0.943-2.998,1.068-4.401,0.614
		c1.356,0.112,2.73-0.413,3.628-1.599c1.822-2.407,0.749-6.354-0.195-8.867c-2.335-6.212-7.898-10.625-14.447-11.503
		c-0.041-0.012-0.082-0.024-0.124-0.024c-0.053-0.407-0.105-0.82-0.171-1.227l0.07-0.012c0,0.112,0.077,0.23,0.213,0.236
		c5.811,0.124,10.731,2.042,14.064,7.02c1.051,1.575,2.354,3.865,3.162,6.254C223.661,89.167,223.667,89.178,223.674,89.196z"/>
	<path fill="#F9D399" d="M221.378,93.402c0.012,2.301-0.974,4.088-2.59,4.661c-0.602-0.413-1.109-0.902-1.557-1.434
		c0.901-6.342-1.151-12.843-5.559-17.48c2.153,1.098,4.094,2.579,5.693,4.52c1.498,1.817,2.637,3.952,3.327,6.206
		C221.029,90.971,221.366,92.24,221.378,93.402z"/>
	<path fill="#F9D399" d="M216.511,99.178c2.319,0.991,5.115,0.513,6.837-1.463c-1.12,14.737-7.633,27.687-19.226,36.996
		c-1.222-0.92-2.295-2.012-3.168-3.251C209.248,122.67,214.972,111.201,216.511,99.178z"/>
	<path fill="#66C7C3" d="M218.434,98.169c-0.778,0.177-1.675,0.1-2.672-0.319c-0.065-0.03-0.129-0.03-0.189-0.006
		c-0.684-0.549-1.279-1.233-1.729-2.036c-1.127-2.012-1.397-4.324-1.97-6.519c-0.956-3.664-2.809-6.85-5.457-9.54
		c-0.012-0.006-0.019-0.006-0.029-0.018c0.124-0.514,0.142-1.097,0.088-1.558c-0.018-0.153-0.034-0.307-0.053-0.46
		c5.274,2.548,6.33,8.318,7.669,13.498C214.806,93.98,215.703,96.995,218.434,98.169z"/>
	<path fill="#9AD7D5" d="M216.924,219.994c0.768,0.849,1.563,1.674,2.396,2.478c-9.345,7.203-21.044,8.301-32.495,8.129
		c-0.342-0.006-0.684-0.012-1.026-0.022l0.035-1.617c0.254,0,0.514-0.018,0.779-0.06c2.006-0.307,3.794-1.816,4.377-3.746
		c1.759,4.018,8.584,3.864,9.48-0.695c1.552,1.567,4.106,2.135,6.183,1.339c1.434-0.549,2.69-1.983,2.625-3.54
		c1.711,0.702,3.711,1.191,5.464,0.36C215.785,222.129,216.706,221.145,216.924,219.994z"/>
	<path fill="#F9D399" d="M210.978,78.819c4.206,4.949,6.206,10.855,5.847,17.297c-2.26-3.145-2.538-7.764-3.765-11.286
		c-1.009-2.914-2.607-5.54-5.168-7.168C208.953,77.969,209.985,78.358,210.978,78.819z"/>
	<path fill="#66C7C3" d="M214.759,217.444c0.496,0.619,1.003,1.234,1.533,1.835c-0.707,3.403-4.289,3.079-6.938,2.207
		c-0.077-0.024-0.153-0.018-0.218,0.012c-0.13-0.319-0.62-0.254-0.626,0.112c-0.1,4.088-5.067,4.831-7.704,2.371
		c-0.112-0.101-0.236-0.095-0.337-0.041c-0.124-0.142-0.407-0.142-0.513,0.041c-0.95,1.705-2.041,3.228-4.206,3.352
		c-2.036,0.116-3.635-1.228-4.602-2.88c0-0.006-0.007-0.006-0.007-0.012c0.007-0.041,0.012-0.082,0.019-0.129
		c0.041-0.372-0.508-0.402-0.62-0.083c-0.673,1.929-1.857,3.534-3.981,3.929c-2.407,0.448-4.619-1.104-5.464-3.311
		c-0.047-0.123-0.152-0.177-0.26-0.177l0.155-1.167c1.893,0.266,3.875-0.555,4.683-2.708c2.06,2.514,6.502,2.501,7.835-0.82
		c1.765,4.024,8.064,2.949,8.508-1.109c1.403,1.588,3.444,2.661,5.622,2.048c1.639-0.467,3.037-1.889,3.162-3.581
		C212.003,217.97,213.632,218.206,214.759,217.444z"/>
	<path fill="#F9D399" d="M214.01,97.243c0.59,0.761,1.309,1.333,2.1,1.74c-2.218,12.035-7.251,22.849-15.515,31.94
		c-0.697-1.097-1.239-2.295-1.599-3.581l0.046-0.012c0.054,0.188,0.361,0.295,0.52,0.082c9.568-13.02,16.914-32.128,5.664-46.47
		c0.412,0.006,0.702-0.212,0.901-0.542c2.773,2.855,4.443,6.124,5.362,10C212.056,92.766,212.481,95.267,214.01,97.243z"/>
	<path fill="#9AD7D5" d="M214.281,216.849c-0.496,0.147-0.974,0.295-1.528,0.302c-0.69,0.012-1.346-0.119-1.971-0.39
		c-0.006-0.054-0.006-0.112-0.012-0.172c-0.035-0.229-0.4-0.247-0.49-0.053c-0.182-0.029-0.358,0.213-0.188,0.348
		c0.029,0.024,0.065,0.048,0.095,0.065c-0.867,4.242-5.593,3.888-8.158,1.175c-0.007-0.09-0.007-0.177-0.019-0.267
		c-0.035-0.288-0.507-0.431-0.566-0.076c-0.265,1.675-0.926,3.244-2.667,3.864c-1.911,0.679-3.858-0.254-4.973-1.858
		c-0.059-0.076-0.136-0.089-0.2-0.064c0.07-0.313-0.372-0.448-0.549-0.195c-0.886,1.269-1.947,2.349-3.599,2.401
		c-1.576,0.054-2.955-0.82-3.8-2.106c-0.194-0.283-0.631-0.035-0.466,0.271c0.047,0.089,0.112,0.171,0.165,0.26
		c-0.048,0.018-0.089,0.048-0.124,0.094c-0.908,1.404-2.047,2.49-3.829,2.509c-1.834,0.022-3.345-1.193-4.022-2.839
		c-0.06-0.136-0.207-0.165-0.313-0.118c-0.112-0.111-0.318-0.095-0.39,0.095c-0.548,1.422-1.499,3.068-3.345,2.679
		c-1.251-0.267-2.023-1.57-1.894-2.778c0.047-0.102,0.105-0.196,0.147-0.308c0.029-0.077,0.005-0.153-0.047-0.213
		c0.012-0.218-0.324-0.347-0.431-0.123c-0.065,0.13-0.112,0.259-0.154,0.39c-0.896,1.05-2.088,1.853-3.557,1.563
		c-1.434-0.289-2.396-1.469-2.82-2.808c0.042-0.09,0.088-0.172,0.124-0.271c0.077-0.219-0.23-0.301-0.348-0.147
		c0,0.005,0,0.005,0,0.005c-0.118-0.034-0.266,0.024-0.266,0.178c0,0.042,0.006,0.077,0.011,0.118
		c-1.102,1.15-2.884,1.368-3.94-0.023c4.425-6.029,7.457-13.121,9.551-20.229c1.581-5.368,2.667-10.861,3.604-16.371
		c0.785-4.602,1.958-9.527,0.473-14.076c0.265,0.088,0.542,0.165,0.861,0.218c0.295,0.053,0.406-0.348,0.124-0.455
		c-6.141-2.23,0.006-10.123-0.519-14.33c-0.018-0.171-0.166-0.259-0.301-0.253c0.224-3.287-0.259-6.802-1.239-9.882
		c0.649-0.042,1.333,0.035,2.047,0.059c0.513,4.791,2.171,14.466,9.033,13.168c6.448-1.216,7.186-10.501,5.888-15.569
		c0.077-0.03,0.147-0.047,0.225-0.065c0.472-0.106,0.913-0.142,1.332-0.124c-0.618,4.271-0.306,8.501,1.134,12.577
		c0.007,0.023,0.029,0.03,0.041,0.047c1.198,4.053,4.861,7.699,2.625,11.563c-0.064,0.006-0.136,0.047-0.13,0.13
		c0,0.029,0,0.058,0,0.088c-0.294,0.466-0.684,0.943-1.173,1.422c-0.26,0.248,0.118,0.596,0.383,0.383
		c0.319-0.253,0.596-0.513,0.844-0.779c0.33,4.997,2.101,9.93,3.563,14.667c1.693,5.492,3.387,10.989,5.269,16.424
		C206.293,204.164,209.656,210.92,214.281,216.849z"/>
	<path fill="#F9D399" d="M209.809,92.889c2.013,11.834-3.598,24.365-10.72,34.247c-0.047,0.07-0.059,0.135-0.047,0.194l-0.046,0.012
		c-0.308-1.085-0.479-2.23-0.503-3.427c4.778-4.443,7.924-9.871,9.133-16.696c0.702-3.952,0.743-7.911,0.354-11.846
		c0.867-0.101,1.38-0.998,1.421-1.847c0.013-0.183,0-0.372-0.022-0.566L209.809,92.889z"/>
	<path fill="#F9D399" d="M209.809,92.889l-0.43,0.071c-0.142-0.997-0.762-2.03-1.617-2.495c-0.206-0.106-0.425,0.111-0.342,0.294
		l-0.077,0.012c-0.56-3.103-1.339-6.188-2.224-9.227C207.649,85.173,209.143,88.99,209.809,92.889z"/>
	<path fill="#F4D9BF" d="M208.801,92.718c0.218,0.79,0.082,2.059-0.855,2.283c-0.154-1.416-0.354-2.82-0.603-4.23l0.077-0.012
		c0.012,0.024,0.024,0.053,0.053,0.077C208.057,91.408,208.576,91.904,208.801,92.718z"/>
	<path fill="#F4D9BF" d="M202.896,75.326c2.907,10.885,6.288,22.206,3.657,33.498c-1.169,5.015-3.487,9.746-7.162,13.403
		c-3.54,3.517-9.026,7.852-13.899,9.263c-2.242,0.649-4.655,0.72-7.086,0.472c-0.035-0.065-0.07-0.136-0.106-0.2
		c-0.117-0.195-0.371-0.036-0.318,0.159c-3.304-0.389-6.613-1.351-9.551-2.259c-5.203-1.617-10.46-3.57-14.761-7.003
		c-7.681-6.112-11.586-15.344-11.894-24.99c0.042-0.053,0.071-0.112,0.083-0.177c11.386-1.221,22.943-4.755,33.751-8.395
		C185.184,85.869,195.043,81.839,202.896,75.326z M203.113,102.264c0.201-0.095,0.224-0.413,0.07-0.555
		c-0.241-0.218-0.537-0.212-0.85-0.242c-0.005,0-0.005,0-0.012,0c0.041-0.318,0.06-0.637,0.054-0.95
		c0.282,0.018,0.561,0.077,0.767-0.159c0.111-0.118,0.106-0.283,0-0.401c-0.13-0.142-0.278-0.177-0.442-0.177
		c-0.118,0-0.242,0.017-0.366,0.023c-0.194-1.545-0.979-2.843-2.524-2.826c-1.145-0.39-2.23,0.678-2.448,2.047
		c-0.266,1.705-0.26,4.72,1.599,5.634c1.062,0.519,1.923,0.095,2.519-0.772c0.042,0.005,0.083,0.023,0.124,0.023
		c0.331,0.042,0.761,0.106,0.991-0.177c0.142-0.177,0.136-0.419-0.07-0.548c-0.213-0.13-0.413-0.088-0.631-0.06
		c0.117-0.277,0.212-0.578,0.289-0.891c0.017,0.006,0.029,0.012,0.047,0.012C202.547,102.316,202.807,102.399,203.113,102.264z
		 M185.443,119.443c0.213-0.183-0.059-0.46-0.276-0.366c-0.278,0.124-0.543,0.242-0.814,0.354c-0.077-0.98-0.997-1.894-1.976-1.905
		c-0.903-0.012-1.652,0.684-1.741,1.527c-0.572-0.684-1.623-0.985-2.466-0.737c-1.038,0.307-1.534,1.186-1.54,2.153
		c-0.555-0.112-1.121-0.271-1.705-0.478c-0.142-0.053-0.248,0.183-0.106,0.248c0.584,0.283,1.204,0.512,1.84,0.695c0,0,0,0,0,0.006
		c0.007,0.041,0.065,0.041,0.089,0.018c0.165,0.047,0.336,0.088,0.508,0.124c1.841,1.965,5.593,2.124,6.809-0.696
		c0.005-0.012,0.011-0.023,0.011-0.036C184.56,120.098,185.019,119.797,185.443,119.443z M179.309,114.357
		c0.861-0.124,1.351-1.221,1.068-1.988c-0.313-0.832-1.316-1.15-2.065-0.731c-0.165,0.088-0.054,0.366,0.13,0.307
		c0.537-0.177,1.251,0.065,1.445,0.631c0.213,0.625-0.254,1.092-0.768,1.327C178.836,114.033,179.056,114.393,179.309,114.357z
		 M154.683,107.313c1.865-0.914,1.871-3.929,1.599-5.634c-0.218-1.369-1.304-2.437-2.448-2.047c-1.545-0.018-2.33,1.28-2.519,2.826
		h-0.006c-0.295-0.018-0.59-0.095-0.809,0.153c-0.106,0.118-0.106,0.283,0,0.401c0.207,0.236,0.484,0.178,0.767,0.16
		c0,0.313,0.012,0.631,0.054,0.95h-0.006c-0.319,0.03-0.607,0.024-0.855,0.242c-0.153,0.142-0.13,0.46,0.071,0.554
		c0.313,0.136,0.566,0.053,0.884-0.018c0.018,0,0.03-0.005,0.048-0.011c0.077,0.313,0.171,0.613,0.289,0.89
		c-0.218-0.029-0.419-0.071-0.631,0.059c-0.207,0.13-0.212,0.372-0.07,0.549c0.23,0.283,0.667,0.218,0.991,0.177
		c0.047,0,0.083-0.017,0.124-0.023C152.76,107.408,153.627,107.833,154.683,107.313z"/>
	<path fill="#9AD7D5" d="M205.509,75.497c0.117,0.815,1.098,5.245-0.762,4.767c-0.524-1.723-1.074-3.428-1.634-5.115
		c0.065-0.053,0.129-0.106,0.194-0.16c0.188-0.159,0.077-0.442-0.111-0.537c0.447-0.826,0.826-1.681,1.155-2.554
		C205.366,72.636,205.354,74.406,205.509,75.497z"/>
	<path fill="#F9D399" d="M204.576,60.3c0.206,1.953,0.189,3.941-0.019,5.941c-9.002,3.899-17.639,10.766-22.258,19.539
		c-2.531,1.032-5.109,1.982-7.747,2.867C181.433,76.117,191.35,66.1,204.576,60.3z"/>
	<path fill="#F9D399" d="M204.476,59.545c-0.064-0.012-0.136-0.006-0.212,0.029c-12.962,5.788-24.43,16.206-30.318,29.268
		c-2.147,0.702-4.306,1.356-6.472,1.958c5.906-17.303,19.062-29.444,35.568-36.807C203.75,55.787,204.216,57.646,204.476,59.545z"/>
	<path fill="#F9D399" d="M204.458,67.138c-0.136,1.062-0.342,2.124-0.584,3.192c-0.007,0-0.007,0-0.012,0
		c-4.696,2.135-9.092,6.342-11.693,10.813c-2.99,1.599-6.058,3.05-9.208,4.36C188.725,77.492,195.35,71.162,204.458,67.138z"/>
	<path fill="#1D1D1B" d="M203.184,101.709c0.153,0.142,0.131,0.46-0.07,0.555c-0.307,0.135-0.566,0.053-0.885-0.018
		c-0.018,0-0.03-0.006-0.047-0.012c-0.077,0.313-0.172,0.614-0.289,0.891c0.218-0.029,0.418-0.07,0.631,0.06
		c0.206,0.129,0.212,0.372,0.07,0.548c-0.23,0.283-0.66,0.218-0.991,0.177c-0.041,0-0.082-0.018-0.124-0.023
		c-0.596,0.867-1.457,1.292-2.519,0.772c-1.858-0.914-1.864-3.929-1.599-5.634c0.218-1.369,1.304-2.437,2.448-2.047
		c1.546-0.018,2.33,1.28,2.524,2.826c0.124-0.006,0.248-0.023,0.366-0.023c0.164,0,0.313,0.035,0.442,0.177
		c0.106,0.118,0.111,0.283,0,0.401c-0.206,0.236-0.484,0.177-0.767,0.159c0.006,0.313-0.013,0.631-0.054,0.95
		c0.007,0,0.007,0,0.012,0C202.646,101.497,202.942,101.491,203.184,101.709z"/>
	<path fill="#F9D399" d="M203.661,71.215c-0.276,1.085-0.602,2.176-0.979,3.256c-0.018,0.059-0.012,0.105,0.005,0.147
		c-3.085,2.218-6.259,4.201-9.516,5.988c1.37-1.764,2.785-3.469,4.438-4.997C199.479,73.887,201.556,72.583,203.661,71.215z"/>
	<path fill="#F9D399" d="M197.473,45.699c2.359,2.307,4.083,4.861,5.263,7.563c-16.158,7.044-31.108,20.1-35.751,37.674
		c-2.095,0.578-4.189,1.121-6.295,1.646c5.268-20.087,17.899-37.225,36.565-46.759c0.088-0.047,0.136-0.112,0.152-0.183
		C197.432,45.658,197.449,45.675,197.473,45.699z"/>
	<path fill="#F4D9BF" d="M196.741,147.341c0.727,3.481,0.833,6.974,0.785,10.495c-0.024-0.006-0.048-0.006-0.054,0.024
		c-0.849,5.811-0.383,12.33,0.649,18.43c-1.003-3.598-1.935-7.214-2.785-10.861c3.263-4.218-1.923-9.315-2.92-13.716
		c-0.011-0.047-0.035-0.077-0.07-0.095c-0.85-3.675-1.086-7.339-0.565-11.121c1.249,0.206,2.281,0.944,3.22,2.118
		C196.021,143.901,196.412,145.766,196.741,147.341z"/>
	<path fill="#F9D399" d="M196.972,45.239c-0.018,0.006-0.029,0.006-0.047,0.018c-18.142,9.285-32.643,27.031-36.595,47.231
		c-0.018,0.071,0.012,0.129,0.047,0.171c-1.611,0.395-3.221,0.779-4.838,1.162c0.2-11.439,5.174-21.575,11.799-30.695
		c6.455-8.885,14.124-16.425,24.383-20.678c0.301-0.13,0.284-0.537,0.061-0.643l0.1-0.183
		C193.704,42.607,195.414,43.799,196.972,45.239z"/>
	<path fill="#9AD7D5" d="M195.208,309.041c0.412,1.109,0.059,1.604-1.063,1.48c-1.386,0.301-1.882-0.136-2.967-1.039
		c-0.602-0.507-1.122-1.066-1.604-1.681c-0.903-1.139-1.552-2.384-2-3.74c0.578,0.979,1.427,1.728,2.377,2.412
		c0.626,0.455,2.018,1.487,2.549,0.461c0.59-0.79,0.654-2.042,0.129-2.88c0.349,0.426,0.686,0.862,0.985,1.334
		c0.52,0.826,0.975,1.717,1.299,2.638C195.036,308.356,195.138,308.692,195.208,309.041z"/>
	<path fill="#F4D9BF" d="M194.918,231.326c-0.743,11.604-1.545,23.121-2.783,34.688c-1.252,11.652-2.39,23.321-2.23,35.049
		c0,0.06,0.018,0.102,0.041,0.143c-0.065,0.106-0.065,0.265,0.065,0.366c0.224,0.164,0.424,0.348,0.63,0.519
		c0.007,0.023,0.019,0.048,0.036,0.071c0.201,0.259,0.413,0.507,0.632,0.761c0.1,0.158,0.206,0.306,0.33,0.448
		c-0.083,0.059-0.118,0.165-0.029,0.259c0.843,0.88,1.18,2.024,0.607,3.074c-0.855,0.59-2.566-0.991-3.092-1.451
		c-0.643-0.56-1.186-1.18-1.568-1.935c0.041-0.271,0.088-0.543,0.111-0.814c0.006-0.012,0.013-0.029,0.013-0.036
		c0.005-0.012,0-0.018,0-0.029c0.005-0.07,0.017-0.136,0.022-0.205c0-0.024-0.006-0.048-0.011-0.071
		c0.018-0.041,0.029-0.084,0.029-0.137c-0.296-11.799-0.679-23.592-0.879-35.396c-0.195-11.71,0.059-23.462-0.372-35.161
		c0.49,0.006,0.973,0.012,1.445,0.012C190.229,231.503,192.576,231.462,194.918,231.326z"/>
	<path fill="#F9D399" d="M191.881,41.623l-0.1,0.183c-0.065-0.036-0.148-0.042-0.242-0.012
		c-10.177,3.363-18.048,11.764-24.249,20.153c-6.784,9.174-12.737,20.223-12.152,31.969c-1.817,0.425-3.634,0.844-5.458,1.269
		c0.39-11.911,4.82-22.725,11.723-32.359c6.725-9.386,14.867-17.622,24.831-23.515c0.006-0.006,0.012-0.012,0.018-0.018
		C188.204,39.894,190.099,40.655,191.881,41.623z"/>
	<path fill="#F4D9BF" d="M189.207,140.823c1.175,4.767,0.449,13.162-5.208,14.56c-6.985,1.729-7.587-7.775-8.986-12.342
		c0.478,0.006,0.974-0.023,1.481-0.136c4.926-1.091,3.947-6.749,2.277-10.235c1.658,0.147,3.316,0.154,4.926-0.065
		c0.083-0.012,0.159-0.03,0.242-0.042c0,0.006-0.006,0.006-0.006,0.006c-1.127,3.327-1.228,9.717,4.023,8.743
		C188.317,141.241,188.777,141.017,189.207,140.823z"/>
	<path fill="#F4D9BF" d="M187.173,302.197c-0.006,0.012-0.012,0.023-0.012,0.036c-0.047,0.354-0.101,0.701-0.159,1.049
		c-0.738,1.712-2.247,4.979-3.451,5.162c-0.077,0.007-0.147,0.007-0.213,0c-0.147-0.028-0.289-0.105-0.424-0.253
		c-0.03-0.029-0.061-0.042-0.095-0.036c-0.537-0.749,0.005-2.696,0.153-3.149c0.218-0.68,0.519-1.305,0.891-1.889
		c0.194-0.254,0.396-0.501,0.602-0.755c0.111-0.137,0-0.284-0.136-0.266c0.007-0.041,0.012-0.089,0.007-0.135
		c-2.302-12.183-2.874-24.555-3.771-36.896c-0.419-5.729-0.974-11.444-1.688-17.144c-0.69-5.534-0.885-11.528-2.454-16.891
		c-0.006-0.023-0.023-0.029-0.042-0.029v-0.012c3.28,0.307,6.55,0.425,9.664,0.472c-0.419,11.693,0.023,23.474,0.213,35.167
		c0.182,11.799,0.376,23.604,0.849,35.396C187.107,302.097,187.138,302.155,187.173,302.197z"/>
	<path fill="#9AD7D5" d="M185.833,228.961l-0.035,1.617c-5.026-0.095-10.059-0.408-15.008-1.317
		c-5.522-1.008-10.437-2.979-15.48-5.333c1.274-1.227,2.46-2.541,3.569-3.917c-1.67,3.299,4.708,6.514,6.466,3.115
		c0.543,1.635,1.664,3.286,3.363,3.829c1.452,0.472,3.287,0.082,4.018-1.352c0.006-0.005,0.006-0.012,0.006-0.012
		c0.006,0.012,0.006,0.024,0.011,0.041c1.575,3.274,6.697,3.311,8.071-0.094C181.71,227.533,183.621,228.961,185.833,228.961z"/>
	<path fill="#9AD7D5" d="M186.471,305.59c-0.242,0.813-0.543,1.61-0.914,2.396c-0.437,0.931-1.782,3.911-2.82,4.27
		c-3.339,1.14-1.847-3.587-1.445-4.749c0.266-0.79,0.619-1.509,1.021-2.188c-0.165,0.536-0.271,1.098-0.301,1.687
		c-0.048,0.927,0.383,2.396,1.528,1.923C184.565,309.075,185.656,307.324,186.471,305.59z"/>
	<path fill="#1D1D1B" d="M185.167,119.077c0.218-0.095,0.489,0.183,0.276,0.366c-0.425,0.354-0.884,0.655-1.368,0.908
		c0,0.012-0.006,0.024-0.011,0.036c-1.216,2.82-4.968,2.661-6.809,0.696c-0.172-0.035-0.343-0.076-0.508-0.124
		c-0.023,0.023-0.082,0.023-0.089-0.018c0-0.006,0-0.006,0-0.006c-0.637-0.183-1.256-0.413-1.84-0.695
		c-0.142-0.065-0.036-0.301,0.106-0.248c0.584,0.206,1.15,0.365,1.705,0.478c0.006-0.967,0.502-1.846,1.54-2.153
		c0.843-0.248,1.894,0.053,2.466,0.737c0.089-0.843,0.838-1.54,1.741-1.527c0.979,0.011,1.898,0.925,1.976,1.905
		C184.624,119.319,184.889,119.201,185.167,119.077z M183.904,119.614c-0.2-0.667-0.489-1.315-1.232-1.522
		c-0.886-0.248-1.771,0.549-1.699,1.434c0,0.029-0.013,0.041-0.024,0.065c0.012,0.023,0.03,0.053,0.035,0.077
		c0.071,0.23-0.224,0.307-0.348,0.147c-0.566-0.737-1.356-1.345-2.348-1.062c-0.737,0.212-1.34,0.974-1.487,1.752
		c0.024,0.006,0.048,0.006,0.076,0.011c0.036-0.071,0.131-0.112,0.195-0.041c0.023,0.03,0.053,0.053,0.076,0.083
		C179.492,120.93,181.633,120.505,183.904,119.614z M180.519,122.056c1.114-0.041,1.911-0.602,2.648-1.304
		c-1.657,0.626-3.522,0.744-5.298,0.449C178.631,121.761,179.539,122.085,180.519,122.056z"/>
	<path fill="#F5AEB3" d="M182.672,118.092c0.743,0.207,1.032,0.855,1.232,1.522c-2.271,0.891-4.412,1.316-6.756,0.944
		c-0.023-0.03-0.053-0.053-0.076-0.083c-0.064-0.071-0.159-0.03-0.195,0.041c-0.028-0.005-0.052-0.005-0.076-0.011
		c0.147-0.779,0.75-1.54,1.487-1.752c0.991-0.283,1.781,0.325,2.348,1.062c0.124,0.159,0.419,0.083,0.348-0.147
		c-0.005-0.023-0.023-0.053-0.035-0.077c0.012-0.024,0.024-0.036,0.024-0.065C180.901,118.641,181.786,117.844,182.672,118.092z"/>
	<path fill="#F9D399" d="M181.449,38.136c1.311,0.235,2.603,0.531,3.877,0.885c-9.965,5.168-18.142,14.442-24.572,23.427
		c-6.808,9.516-11.935,20.938-11.557,32.848c-0.903,0.213-1.805,0.425-2.713,0.638c-0.968-12.342,2.719-24.377,9.191-34.849
		C161.68,51.363,170.43,41.876,181.449,38.136z"/>
	<path fill="#F5AEB3" d="M183.167,120.752c-0.737,0.703-1.534,1.263-2.648,1.304c-0.979,0.029-1.888-0.295-2.649-0.855
		C179.645,121.496,181.51,121.378,183.167,120.752z"/>
	<path fill="#66C7C3" d="M180.991,223.504l-0.155,1.167c-0.105,0-0.212,0.061-0.247,0.165c-0.053,0.019-0.101,0.054-0.136,0.113
		c-1.776,2.932-5.222,3.464-7.304,0.443c-0.118-0.166-0.313-0.125-0.396,0c-0.054-0.201-0.348-0.284-0.507-0.072
		c-1.009,1.305-2.726,1.516-4.112,0.673c-1.222-0.749-1.841-2.095-2.407-3.345c-0.106-0.229-0.442-0.124-0.479,0.095
		c-0.076-0.024-0.171,0-0.229,0.087c-0.974,1.405-2.59,1.546-4.036,0.785c-1.245-0.654-2.425-2.117-1.788-3.593
		c0.053-0.118-0.053-0.225-0.148-0.218c0.319-0.396,0.625-0.803,0.933-1.21c0.979,1.44,3.097,1.746,4.212,0.484
		c0.685,2.896,4.726,3.888,6.666,1.781c0.148,1.192,1.045,2.277,2.295,2.572c1.694,0.4,3.799-1.044,3.977-2.809
		C177.834,222.259,179.379,223.273,180.991,223.504z"/>
	<path fill="#1D1D1B" d="M180.377,112.369c0.282,0.767-0.207,1.864-1.068,1.988c-0.253,0.036-0.473-0.324-0.189-0.455
		c0.514-0.235,0.98-0.702,0.768-1.327c-0.194-0.566-0.908-0.808-1.445-0.631c-0.184,0.06-0.295-0.218-0.13-0.307
		C179.061,111.219,180.063,111.538,180.377,112.369z"/>
	<path fill="#F9D399" d="M175.603,37.41c1.516,0.112,3.04,0.277,4.549,0.507c-4.921,1.133-9.239,4.814-12.85,8.118
		c-4.478,4.1-8.413,8.802-11.675,13.911c-6.684,10.454-11.398,23.551-9.528,36.082c-0.849,0.207-1.705,0.407-2.56,0.613
		c0.018-0.023,0.023-0.053,0.023-0.094c-0.737-12.66,1.457-25.079,7.911-36.128C157.214,50.584,165.627,42.809,175.603,37.41z"/>
	<path fill="#F4D9BF" d="M173.473,167.57c0.796,5.422-0.294,10.772-1.25,16.118c-0.23,1.262-0.466,2.519-0.72,3.781
		c0.614-8.101-0.956-16.619-2.725-24.424c-0.402-3.688-0.703-7.333-0.532-11.062c0.113-2.401,0.195-4.838,1.422-6.949
		c0.814-1.41,1.699-1.882,2.661-2.024c0.714,3.705,1.08,7.292,1.345,11.044C173.125,157.955,168.836,165.66,173.473,167.57z"/>
	<path fill="#F9D399" d="M171.244,37.21c1.097,0.018,2.212,0.059,3.327,0.124c-20.932,11.28-34.389,35.35-31.421,59.213
		c0.012,0.083,0.059,0.136,0.118,0.165c-0.354,0.089-0.708,0.171-1.062,0.26c-3.77-12.637-3.126-25.533,3.008-37.362
		c5.316-10.248,14.224-20.265,26.023-22.394C171.238,37.21,171.238,37.21,171.244,37.21z"/>
	<path fill="#F9D399" d="M160.135,127.507c0.136,0.903,0.189,1.811,0.171,2.72c-8.183-4.171-13.97-11.062-17.002-19.692
		c0.118-0.041,0.23-0.088,0.336-0.16c1.168,2.844,2.749,5.516,4.654,7.894c3.245,4.059,7.352,6.891,11.87,9.021
		C160.141,127.354,160.123,127.425,160.135,127.507z"/>
	<path fill="#F9D399" d="M158.878,38.773c3.044-0.897,6.23-1.404,9.487-1.534c-10.342,2.383-18.708,12.926-23.351,21.698
		c-6.023,11.386-7.958,25.798-3.115,37.969c-6.195-10.088-6.295-23.491-2.437-34.453C143.026,52.318,150.029,44.531,158.878,38.773z
		"/>
	<path fill="#F9D399" d="M160.276,130.876c-0.065,1.257-0.265,2.496-0.596,3.705c-12.649-6.849-25.073-19.604-18.991-35.079
		c0.177,0.059,0.354,0.112,0.537,0.147c0.059,0.012,0.113,0,0.153-0.018c0.029,2.047,0.284,4.088,0.756,6.083
		c-1.464,0.224-2.566,1.758-1.988,3.256c0.389,1.015,1.705,1.829,2.82,1.652C145.403,119.49,151.97,127,160.276,130.876z"/>
	<path fill="#F9D399" d="M159.486,135.2c0.006,0,0.012,0,0.018,0c-0.932,3.021-2.637,5.793-4.967,7.947
		c0-0.13-0.059-0.254-0.212-0.301c-17.421-5.61-21.716-28.943-14.849-43.957c0.283,0.188,0.578,0.348,0.891,0.484
		C132.885,114.541,147.091,128.746,159.486,135.2z"/>
	<path fill="#1D1D1B" d="M156.282,101.68c0.271,1.705,0.266,4.72-1.599,5.634c-1.056,0.519-1.923,0.095-2.519-0.773
		c-0.042,0.006-0.077,0.023-0.124,0.023c-0.324,0.042-0.761,0.106-0.991-0.177c-0.142-0.177-0.136-0.419,0.07-0.549
		c0.212-0.13,0.413-0.088,0.631-0.059c-0.118-0.277-0.212-0.578-0.289-0.89c-0.018,0.006-0.03,0.011-0.048,0.011
		c-0.318,0.071-0.572,0.153-0.884,0.018c-0.201-0.094-0.224-0.413-0.071-0.554c0.248-0.218,0.537-0.212,0.855-0.242h0.006
		c-0.042-0.319-0.054-0.637-0.054-0.95c-0.283,0.018-0.56,0.077-0.767-0.16c-0.106-0.118-0.106-0.283,0-0.401
		c0.219-0.248,0.513-0.171,0.809-0.153h0.006c0.189-1.546,0.974-2.844,2.519-2.826C154.979,99.243,156.064,100.311,156.282,101.68z"
		/>
	<path fill="#F9D399" d="M154.159,143.436c0.018,0.006,0.029,0,0.042,0.006c-0.95,0.832-1.989,1.569-3.121,2.17
		c-1.05,0.566-2.147,1.009-3.269,1.357c-8.377-4.1-12.955-13.922-14.459-22.748c-1.57-9.251,0.259-18.295,4.607-26.524
		c0.195,0.177,0.396,0.342,0.59,0.501c0.194,0.16,0.395,0.313,0.596,0.46c-4.714,7.905-4.336,18.643-1.604,27.167
		C140.136,133.92,145.84,140.917,154.159,143.436z"/>
	<path fill="#F9D399" d="M145.115,46.684c3.292-3.138,7.05-5.451,11.108-7.002c-8.147,5.421-14.424,13.911-17.509,23.09
		c-1.947,5.799-2.726,12-2.283,18.1c0.372,5.18,1.38,10.915,4.448,15.245C129.328,81.969,132.218,59.002,145.115,46.684z"/>
	<path fill="#F4D9BF" d="M143.439,109.892c-0.118,0.018-0.23,0.035-0.348,0.047c-0.006-0.018-0.012-0.035-0.024-0.059
		c-0.059-0.177-0.331-0.106-0.284,0.076c-0.831,0.036-1.604-0.188-2.028-1.085c-0.538-1.133,0.342-2.455,1.462-2.832
		C142.537,107.349,142.944,108.635,143.439,109.892z"/>
	<path fill="#F9D399" d="M147.061,147.194c-1.599,0.425-3.245,0.644-4.896,0.661c-8.69-5.421-12.837-15.026-13.28-25.032
		c-0.419-9.404,1.462-19.179,8.271-26.041c0.142,0.212,0.294,0.419,0.472,0.602c-0.006,0.012-0.012,0.012-0.018,0.023
		c-5.085,8-6.465,18.183-4.791,27.416C134.26,132.752,138.808,144.085,147.061,147.194z"/>
	<path fill="#9AD7D5" d="M141.421,97.792c-0.029,0.454-0.036,0.902-0.042,1.357c-0.005,0-0.005-0.006-0.011-0.006
		c-1.133-0.283-2.065-0.961-2.926-1.723c-0.366-0.325-0.731-0.685-0.961-1.115c-0.036-0.064-0.054-0.129-0.078-0.2
		c0.166-0.177,0.089-0.454-0.093-0.584c0.07-0.667,0.684-1.156,1.457-1.027c0.755,1.115,1.587,2.183,2.496,3.197
		C141.315,97.744,141.369,97.774,141.421,97.792z"/>
	<path fill="#66C7C3" d="M138.507,94.087c-0.26-0.042-0.502-0.012-0.726,0.064c-0.006-0.064-0.018-0.124-0.064-0.183
		c-3.894-4.779-12.826-11.103-18.997-7.097c0.036-0.944,0.496-1.853,1.594-2.596c0.076-0.053,0.1-0.13,0.094-0.201
		c3.321-0.82,7.251,0.218,10.112,1.71c2.667,1.393,4.773,3.398,6.501,5.758C137.481,92.411,137.97,93.267,138.507,94.087z"/>
	<path fill="#F9D399" d="M140.891,147.825c-2.832-0.142-5.628-0.879-8.183-2.135c0.036-0.088,0.03-0.195-0.053-0.271
		c-6.33-5.558-8.46-13.322-8.283-21.545c0.16-7.569,1.582-15.103,6.395-21.149c0.107-0.129-0.012-0.301-0.147-0.283
		c2.183-2.371,4.254-4.772,6.319-6.036c0.012,0.024,0.023,0.042,0.035,0.065c-7.734,5.935-9.244,17.816-8.737,26.878
		C128.767,132.876,132.731,142.486,140.891,147.825z"/>
	<path fill="#9AD7D5" d="M137.274,94.447c-0.177,0.165-0.319,0.366-0.407,0.602c-0.036-0.012-0.071-0.024-0.118-0.024
		c-4.36-0.059-8.579,1.469-12.932,1.298c-2.696-0.106-5.292-0.855-7.068-2.985c-2.1-2.525-1.899-5.853,0.756-7.893
		c0.578-0.449,1.208-0.779,1.87-1.039c-2.23,1.971-0.974,5.534,1.204,7.263C124.974,95.155,132.03,93.792,137.274,94.447z"/>
	<path fill="#9AD7D5" d="M133.339,96.004c1.085-0.153,2.147-0.259,3.162-0.277c-4.389,2.59-7.103,7.475-11.274,10.46
		c-2.92,2.095-8.466,3.475-9.734-0.991c1.764,1.475,4.207,0.153,5.935-1.133C125.38,101.113,128.927,98.169,133.339,96.004z"/>
	<path fill="#F9D399" d="M131.009,144.751c-0.649-0.401-1.286-0.826-1.894-1.304c-10.271-8.088-12.041-25.556-4.029-35.939
		c1.486-0.974,2.896-2.295,4.26-3.711c-4.603,5.581-5.64,13.61-5.711,20.619C123.558,131.755,125.363,139.743,131.009,144.751z"/>
	<path fill="#66C7C3" d="M119.564,96.281c0.738,0.307,1.499,0.508,2.283,0.637c-1.369,1.021-2.548,2.248-3.475,3.693
		c-0.844,1.309-1.823,3.056-0.956,4.53c-0.743,0.006-1.458-0.23-2.101-0.808c-0.005-0.059-0.017-0.106-0.023-0.166
		C114.921,101.072,116.998,97.845,119.564,96.281z"/>
	
		<line fill="none" stroke="#1D1D1B" stroke-width="0" stroke-linecap="round" stroke-linejoin="round" x1="187.084" y1="303.2" x2="187.084" y2="303.194"/>
	<path fill="none" stroke="#1D1D1B" stroke-width="0" stroke-linecap="round" stroke-linejoin="round" d="M187.084,303.2
		c0.006,0,0.006,0,0.006,0"/>
</g>
</svg>
