<?xml version="1.0" encoding="utf-8"?>
<!-- Generator: Adobe Illustrator 16.0.0, SVG Export Plug-In . SVG Version: 6.00 Build 0)  -->
<!DOCTYPE svg PUBLIC "-//W3C//DTD SVG 1.1//EN" "http://www.w3.org/Graphics/SVG/1.1/DTD/svg11.dtd">
<svg version="1.1" id="Layer_1" xmlns="http://www.w3.org/2000/svg" xmlns:xlink="http://www.w3.org/1999/xlink" x="0px" y="0px"
	 width="350px" height="350px" viewBox="0 0 350 350" enable-background="new 0 0 350 350" xml:space="preserve">
<g>
	
		<path fill="#CB8762" stroke="#443633" stroke-width="5" stroke-linecap="round" stroke-linejoin="round" stroke-miterlimit="10" d="
		M255.85,222.998c-0.051-0.271-0.105-0.544-0.163-0.816c-1.135-5.563,2.71-13.598,10.718-20.03
		c7.371-5.826,10.771-13.601,7.869-20.104c-2.564-5.868-5.74-11.827-9.367-17.82c-1.768-2.929-1.414-6.514,0.954-9.29
		c1.084-1.268,2.151-2.535,3.198-3.803c3.239-3.881,1.839-9.121-3.053-11.999c-3.622-2.146-5.563-5.663-5.139-8.998
		c0.354-2.753,0.611-5.491,0.768-8.207c0.168-2.849-1.583-5.816-4.541-7.981c-3.412-2.5-6.824-4.977-10.215-7.423
		c-2.921-2.11-4.613-4.979-4.678-7.589c-0.009-0.348-0.02-0.695-0.032-1.041c-0.25-5.823-7.185-11.686-14.164-13.037
		c-3.508-0.677-6.939-2.454-9.483-4.832c-0.17-0.157-0.338-0.314-0.507-0.471c-3.16-2.917-7.257-4.725-10.956-4.925
		c-1.686-0.09-3.365-0.179-5.041-0.268c-2.979-0.155-6.049-1.705-7.711-4.006c-2.298-3.072-6.104-4.633-9.322-3.858
		c-3.216,0.775-6.559,1.559-10.022,2.353c-3.529-0.809-6.934-1.607-10.205-2.396c-3.16-0.763-6.787,0.861-9.101,3.846
		c-1.725,2.298-4.749,3.905-7.756,4.063c-1.675,0.089-3.355,0.178-5.041,0.268c-3.699,0.199-7.798,2.008-10.961,4.925
		c-0.212,0.197-0.426,0.396-0.639,0.595c-2.51,2.344-5.89,3.983-9.347,4.707c-6.988,1.472-13.925,7.212-14.18,13.038
		c-0.013,0.346-0.023,0.692-0.032,1.04c-0.067,2.61-1.759,5.48-4.682,7.59c-3.392,2.447-6.804,4.923-10.217,7.423
		c-2.959,2.165-4.711,5.132-4.544,7.981c0.154,2.683,0.407,5.386,0.752,8.104c0.415,3.307-1.341,6.915-4.964,9.006
		c-5.008,2.868-6.492,8.169-3.217,12.094c1.048,1.268,2.115,2.535,3.199,3.803c2.369,2.775,2.722,6.362,0.956,9.29
		c-3.53,5.834-6.632,11.635-9.159,17.352c-2.961,6.549,0.033,14.465,7.396,20.354c8.278,6.746,11.915,15.191,10.861,20.956l0,0
		c-1.023,4.938,6.46,11.615,14.548,14.849c4.556,1.845,8.741,2.846,12.128,2.85c18.068,0,36.138,0,54.206,0
		c18.069,0,36.138,0,54.207,0c3.625-0.003,8.175-1.151,13.098-3.256C250.012,234.057,256.814,227.682,255.85,222.998z"/>
	<g>
		<path fill="#FD8843" d="M174.961,296.47c-12.197,0-73.04-0.833-73.04-17.282v-17.75c0-11.457,2.575-22.412,7.654-32.559
			c6.137-12.314,15.599-22.622,27.363-29.806c11.423-6.978,24.571-10.666,38.022-10.666s26.6,3.688,38.023,10.667
			c4.938,3.014,9.521,6.623,13.625,10.726c5.592,5.591,10.214,12.012,13.739,19.081c5.077,10.155,7.652,21.109,7.652,32.557v17.75
			C248.001,295.637,187.158,296.47,174.961,296.47z"/>
		<path fill="#443633" d="M174.961,190.907c13.45,0,26.03,3.771,36.721,10.3c4.8,2.93,9.209,6.41,13.16,10.36
			c5.359,5.36,9.85,11.569,13.27,18.43c4.73,9.46,7.39,20.14,7.39,31.44v17.75c0,9.854-35.271,14.782-70.54,14.782
			s-70.54-4.928-70.54-14.782v-17.75c0-11.301,2.65-21.971,7.39-31.44c5.93-11.899,15.13-21.89,26.43-28.79
			C148.931,194.678,161.511,190.907,174.961,190.907 M174.961,185.907c-13.911,0-27.51,3.815-39.326,11.033
			c-12.165,7.429-21.951,18.088-28.299,30.827c-5.25,10.49-7.915,21.82-7.915,33.67v17.75c0,9.98,14.912,13.912,26.128,16.002
			c13.086,2.438,30.634,3.78,49.412,3.78s36.326-1.343,49.412-3.78c11.217-2.09,26.128-6.021,26.128-16.002v-17.75
			c0-11.838-2.664-23.168-7.917-33.676c-3.644-7.307-8.424-13.947-14.207-19.73c-4.243-4.242-8.984-7.975-14.091-11.092
			C202.471,189.723,188.873,185.907,174.961,185.907L174.961,185.907z"/>
	</g>
	<path fill="#E0E0E0" d="M104.421,268.236v10.949c0,19.71,141.08,19.71,141.08,0v-10.949
		C245.501,287.946,104.421,287.946,104.421,268.236z"/>
	<path fill="#634F4B" d="M238.111,229.997c-25.52,6.41-100.78,6.41-126.3,0c4.17-8.36,9.94-15.771,16.93-21.83
		c2.96-2.58,6.14-4.909,9.5-6.96c0.16-0.1,0.32-0.189,0.48-0.279c10.58-6.36,22.99-10.021,36.24-10.021s25.66,3.66,36.24,10.021
		c0.16,0.09,0.32,0.18,0.48,0.279c3.369,2.061,6.539,4.38,9.5,6.96c1.26,1.091,2.479,2.22,3.66,3.4
		C230.201,216.928,234.691,223.137,238.111,229.997z"/>
	<g>
		<path fill="#FFECE8" d="M174.961,211.577c-10.645,0-20.527-6.185-25.178-15.757c-0.313-0.645-0.335-1.392-0.06-2.053
			s0.82-1.173,1.497-1.405c1.818-0.624,3.685-1.181,5.571-1.663v-21.282c0-1.381,1.119-2.5,2.5-2.5h31.33c1.381,0,2.5,1.119,2.5,2.5
			v21.28c1.871,0.479,3.74,1.035,5.578,1.664c0.678,0.232,1.225,0.743,1.5,1.404c0.275,0.662,0.254,1.41-0.06,2.055
			C195.488,205.393,185.605,211.577,174.961,211.577z"/>
		<path fill="#443633" d="M190.621,169.417v23.25c2.48,0.56,4.9,1.25,7.27,2.06c-4.129,8.5-12.85,14.351-22.93,14.351
			c-10.08,0-18.8-5.851-22.93-14.351c2.36-0.81,4.79-1.5,7.26-2.06v-23.25H190.621 M190.621,164.417h-31.33c-2.761,0-5,2.238-5,5
			v19.366c-1.311,0.371-2.608,0.777-3.883,1.215c-1.354,0.465-2.444,1.488-2.994,2.811c-0.549,1.321-0.506,2.816,0.12,4.104
			c5.067,10.428,15.833,17.165,27.427,17.165c11.596,0,22.361-6.737,27.428-17.165c0.626-1.289,0.669-2.784,0.118-4.107
			c-0.551-1.322-1.643-2.346-2.999-2.809c-1.284-0.439-2.583-0.845-3.887-1.214v-19.365
			C195.621,166.655,193.383,164.417,190.621,164.417L190.621,164.417z"/>
	</g>
	<g>
		<g>
			<g>
				<path fill="#FFECE8" d="M217.389,146.561c-5.908,0-10.715-4.807-10.715-10.714c0-5.908,4.807-10.715,10.715-10.715
					c5.907,0,10.713,4.807,10.713,10.715C228.102,141.754,223.296,146.561,217.389,146.561z"/>
				<path fill="#443633" d="M217.389,127.633c4.536,0,8.213,3.677,8.213,8.214c0,4.536-3.677,8.214-8.213,8.214
					c-4.537,0-8.215-3.678-8.215-8.214C209.174,131.31,212.852,127.633,217.389,127.633 M217.389,122.633
					c-7.287,0-13.215,5.927-13.215,13.214c0,7.286,5.928,13.214,13.215,13.214c7.285,0,13.213-5.928,13.213-13.214
					C230.602,128.56,224.674,122.633,217.389,122.633L217.389,122.633z"/>
			</g>
			<g>
				<path fill="#FFECE8" d="M132.528,146.561c-5.908,0-10.714-4.807-10.714-10.714c0-5.908,4.806-10.715,10.714-10.715
					s10.714,4.807,10.714,10.715C143.242,141.754,138.436,146.561,132.528,146.561z"/>
				<path fill="#443633" d="M132.528,127.633c4.537,0,8.214,3.677,8.214,8.214c0,4.536-3.677,8.214-8.214,8.214
					c-4.536,0-8.214-3.678-8.214-8.214C124.314,131.31,127.992,127.633,132.528,127.633 M132.528,122.633
					c-7.286,0-13.214,5.927-13.214,13.214c0,7.286,5.928,13.214,13.214,13.214s13.214-5.928,13.214-13.214
					C145.742,128.56,139.814,122.633,132.528,122.633L132.528,122.633z"/>
			</g>
		</g>
		<g>
			<path fill="#FFECE8" d="M174.958,191.961c-0.25,0-0.5-0.037-0.741-0.112c-24.137-7.491-40.354-29.504-40.354-54.777v-25.083
				c0-7.619,6.188-13.817,13.792-13.817c0.65,0,1.308,0.047,1.957,0.139l21.815,3.085c1.166,0.165,2.354,0.248,3.532,0.248
				c1.177,0,2.366-0.083,3.532-0.248l21.814-3.085c0.648-0.092,1.307-0.139,1.957-0.139c7.604,0,13.792,6.198,13.792,13.817v25.083
				c0,25.273-16.218,47.286-40.354,54.777C175.458,191.924,175.208,191.961,174.958,191.961z"/>
			<path fill="#443633" d="M202.261,100.671c6.134,0,11.293,4.984,11.293,11.317v25.083c0,24.032-15.644,45.267-38.595,52.39h0
				c-22.952-7.123-38.595-28.357-38.595-52.39v-25.083c0-6.333,5.159-11.317,11.293-11.317c0.529,0,1.065,0.037,1.606,0.114
				l21.815,3.085c1.287,0.182,2.584,0.272,3.881,0.272s2.595-0.091,3.882-0.272l21.814-3.085
				C201.195,100.708,201.732,100.671,202.261,100.671 M202.261,95.671c-0.767,0-1.542,0.055-2.306,0.163l-21.814,3.085
				c-1.051,0.148-2.122,0.224-3.183,0.224s-2.131-0.075-3.182-0.224l-21.814-3.085c-0.763-0.107-1.539-0.163-2.306-0.163
				c-4.314,0-8.387,1.681-11.466,4.731c-3.113,3.085-4.827,7.199-4.827,11.586v25.083c0,12.866,4.034,25.143,11.665,35.501
				c7.631,10.359,18.16,17.851,30.448,21.664c0.483,0.15,0.982,0.225,1.482,0.225c0.5,0,1-0.074,1.482-0.225
				c12.288-3.813,22.817-11.305,30.448-21.664c7.631-10.358,11.665-22.635,11.665-35.501v-25.083
				C218.554,102.991,211.245,95.671,202.261,95.671L202.261,95.671z"/>
		</g>
	</g>
	<g>
		<path fill="none" stroke="#DDC6B8" stroke-width="2" stroke-linecap="round" stroke-linejoin="round" stroke-miterlimit="10" d="
			M172.897,128.951c-0.75,5.541-2.384,10.5-5.194,14.686c-1.083,1.612-0.516,3.802,1.242,4.629l4.761,2.241
			c0.793,0.373,1.711,0.373,2.504,0l4.763-2.241c1.757-0.827,2.324-3.017,1.24-4.629c-2.811-4.186-4.443-9.145-5.193-14.686"/>
		<g>
			<g>
				
					<line fill="none" stroke="#443633" stroke-width="5" stroke-linecap="round" stroke-linejoin="round" stroke-miterlimit="10" x1="187.125" y1="123.513" x2="199.458" y2="123.513"/>
				<circle fill="#443633" cx="193.292" cy="132.398" r="3.448"/>
			</g>
			<g>
				
					<line fill="none" stroke="#443633" stroke-width="5" stroke-linecap="round" stroke-linejoin="round" stroke-miterlimit="10" x1="150.458" y1="123.513" x2="162.792" y2="123.513"/>
				<circle fill="#443633" cx="156.625" cy="132.398" r="3.447"/>
			</g>
		</g>
	</g>
	<polygon fill="#94ED91" points="182.315,222.242 180.61,222.242 180.61,221.385 178.453,221.385 178.453,219.229 177.596,219.229 
		177.596,217.522 172.327,217.522 172.327,219.229 171.469,219.229 171.469,221.385 169.312,221.385 169.312,222.242 
		167.607,222.242 167.607,227.512 169.312,227.512 169.312,228.369 171.469,228.369 171.469,230.525 172.327,230.525 
		172.327,232.231 177.596,232.231 177.596,230.525 178.453,230.525 178.453,228.369 180.61,228.369 180.61,227.512 182.315,227.512 
			"/>
	<g>
		<g>
			<polygon fill="#94ED91" points="205.522,217.576 203.817,217.576 203.817,216.719 201.66,216.719 201.66,214.562 
				200.803,214.562 200.803,212.855 195.533,212.855 195.533,214.562 194.677,214.562 194.677,216.719 192.52,216.719 
				192.52,217.576 190.814,217.576 190.814,222.845 192.52,222.845 192.52,223.702 194.677,223.702 194.677,225.859 
				195.533,225.859 195.533,227.564 200.803,227.564 200.803,225.859 201.66,225.859 201.66,223.702 203.817,223.702 
				203.817,222.845 205.522,222.845 			"/>
			<path fill="#94ED91" d="M221.182,208.167v2.011h-1.7v0.859h-2.16v2.16h-0.86v1.699h-5.26v-1.699h-0.859v-2.16h-2.16v-0.859h-1.7
				v-5.271h1.7v-0.86h2.16v-2.15h0.859v-0.969c0.16,0.09,0.32,0.18,0.48,0.279C215.051,203.268,218.221,205.587,221.182,208.167z"/>
		</g>
		<g>
			<polygon fill="#94ED91" points="144.399,217.576 146.105,217.576 146.105,216.719 148.262,216.719 148.262,214.562 
				149.119,214.562 149.119,212.855 154.389,212.855 154.389,214.562 155.246,214.562 155.246,216.719 157.403,216.719 
				157.403,217.576 159.108,217.576 159.108,222.845 157.403,222.845 157.403,223.702 155.246,223.702 155.246,225.859 
				154.389,225.859 154.389,227.564 149.119,227.564 149.119,225.859 148.262,225.859 148.262,223.702 146.105,223.702 
				146.105,222.845 144.399,222.845 			"/>
			<path fill="#94ED91" d="M143.441,204.907v5.271h-1.7v0.859h-2.16v2.16h-0.86v1.699h-5.26v-1.699h-0.86v-2.16h-2.16v-0.859h-1.7
				v-2.011c2.96-2.58,6.14-4.909,9.5-6.96c0.16-0.1,0.32-0.189,0.48-0.279v0.969h0.86v2.15h2.16v0.86H143.441z"/>
		</g>
	</g>
	<path fill="#E9438B" d="M221.457,279.677c-30.75,4.377-61.966,4.377-92.716,0c0-3.031,0-6.063,0-9.094
		c30.75,4.376,61.966,4.376,92.716,0C221.457,273.614,221.457,276.646,221.457,279.677z"/>
	<polygon fill="#2240B0" points="185.036,253.004 182.7,253.004 182.7,251.83 179.744,251.83 179.744,248.874 178.57,248.874 
		178.57,246.538 171.352,246.538 171.352,248.874 170.178,248.874 170.178,251.83 167.222,251.83 167.222,253.004 164.886,253.004 
		164.886,260.223 167.222,260.223 167.222,261.396 170.178,261.396 170.178,264.352 171.352,264.352 171.352,266.688 
		178.57,266.688 178.57,264.352 179.744,264.352 179.744,261.396 182.7,261.396 182.7,260.223 185.036,260.223 	"/>
	<polygon fill="#E1EDF9" points="216.83,246.611 214.494,246.611 214.494,245.437 211.538,245.437 211.538,242.48 210.363,242.48 
		210.363,240.145 203.145,240.145 203.145,242.48 201.971,242.48 201.971,245.437 199.016,245.437 199.016,246.611 196.68,246.611 
		196.68,253.829 199.016,253.829 199.016,255.004 201.971,255.004 201.971,257.959 203.145,257.959 203.145,260.295 
		210.363,260.295 210.363,257.959 211.538,257.959 211.538,255.004 214.494,255.004 214.494,253.829 216.83,253.829 	"/>
	<polygon fill="#E1EDF9" points="133.092,246.611 135.429,246.611 135.429,245.437 138.384,245.437 138.384,242.48 139.559,242.48 
		139.559,240.145 146.777,240.145 146.777,242.48 147.951,242.48 147.951,245.437 150.907,245.437 150.907,246.611 153.243,246.611 
		153.243,253.829 150.907,253.829 150.907,255.004 147.951,255.004 147.951,257.959 146.777,257.959 146.777,260.295 
		139.559,260.295 139.559,257.959 138.384,257.959 138.384,255.004 135.429,255.004 135.429,253.829 133.092,253.829 	"/>
	<g>
		<g>
			<path fill="none" stroke="#443633" stroke-width="2" stroke-linecap="round" stroke-linejoin="round" stroke-miterlimit="10" d="
				M215.367,263.34c0,7.703-6.245,13.949-13.949,13.949c-7.703,0-13.948-6.246-13.948-13.949"/>
			<path fill="none" stroke="#443633" stroke-width="2" stroke-linecap="round" stroke-linejoin="round" stroke-miterlimit="10" d="
				M162.447,263.34c0,7.703-6.245,13.949-13.949,13.949s-13.948-6.246-13.948-13.949"/>
		</g>
		<g>
			
				<line fill="none" stroke="#443633" stroke-width="5" stroke-linecap="round" stroke-linejoin="round" stroke-miterlimit="10" x1="221.457" y1="254.419" x2="221.457" y2="291.134"/>
			
				<line fill="none" stroke="#443633" stroke-width="5" stroke-linecap="round" stroke-linejoin="round" stroke-miterlimit="10" x1="128.459" y1="254.419" x2="128.459" y2="291.134"/>
		</g>
		<g>
			<path fill="none" stroke="#443633" stroke-width="5" stroke-linecap="round" stroke-linejoin="round" stroke-miterlimit="10" d="
				M215.286,252.086c0,0,8.672,0.666,12.341,6.79"/>
			<path fill="none" stroke="#443633" stroke-width="5" stroke-linecap="round" stroke-linejoin="round" stroke-miterlimit="10" d="
				M134.63,252.086c0,0-8.672,0.666-12.341,6.79"/>
		</g>
		<g>
			<g>
				<path fill="#FF5252" d="M178.047,158.338c-1.431-0.688-3.089,0.354-3.089,1.94c0-1.587-1.658-2.629-3.087-1.94l-4.354,2.097
					h7.442h7.442L178.047,158.338z"/>
				<ellipse fill="#FF5252" cx="174.958" cy="167.632" rx="4.333" ry="3.917"/>
			</g>
			
				<path fill="#FFFFFF" stroke="#443633" stroke-width="2" stroke-linecap="round" stroke-linejoin="round" stroke-miterlimit="10" d="
				M174.958,169.299L174.958,169.299c-4.349,0-7.875-3.525-7.875-7.875v-0.125h15.75v0.125
				C182.833,165.773,179.308,169.299,174.958,169.299z"/>
		</g>
	</g>
	<g>
		
			<line fill="none" stroke="#E9438B" stroke-width="2" stroke-linecap="round" stroke-linejoin="round" stroke-miterlimit="10" x1="235.058" y1="99.417" x2="235.058" y2="227.564"/>
		
			<line fill="none" stroke="#2240B0" stroke-width="2" stroke-linecap="round" stroke-linejoin="round" stroke-miterlimit="10" x1="228.678" y1="99.417" x2="228.678" y2="227.564"/>
		
			<line fill="none" stroke="#94ED91" stroke-width="2" stroke-linecap="round" stroke-linejoin="round" stroke-miterlimit="10" x1="222.297" y1="99.417" x2="222.297" y2="227.564"/>
		
			<line fill="none" stroke="#E9438B" stroke-width="2" stroke-linecap="round" stroke-linejoin="round" stroke-miterlimit="10" x1="215.916" y1="99.417" x2="215.916" y2="227.564"/>
	</g>
	<g>
		
			<line fill="none" stroke="#2240B0" stroke-width="2" stroke-linecap="round" stroke-linejoin="round" stroke-miterlimit="10" x1="134.091" y1="99.417" x2="134.091" y2="227.564"/>
		
			<line fill="none" stroke="#94ED91" stroke-width="2" stroke-linecap="round" stroke-linejoin="round" stroke-miterlimit="10" x1="127.71" y1="99.417" x2="127.71" y2="227.564"/>
		
			<line fill="none" stroke="#E9438B" stroke-width="2" stroke-linecap="round" stroke-linejoin="round" stroke-miterlimit="10" x1="121.33" y1="99.417" x2="121.33" y2="227.564"/>
		
			<line fill="none" stroke="#2240B0" stroke-width="2" stroke-linecap="round" stroke-linejoin="round" stroke-miterlimit="10" x1="114.949" y1="99.417" x2="114.949" y2="227.564"/>
	</g>
	<g>
		<path fill="#FD8843" d="M124.52,106.37c-0.739,0-1.44-0.327-1.915-0.893c-0.475-0.566-0.676-1.313-0.548-2.041l4.875-27.729
			c2.26-12.851,11.958-22.178,23.059-22.178h50.01c11.102,0,20.799,9.327,23.059,22.178l4.876,27.729
			c0.128,0.729-0.073,1.475-0.548,2.041c-0.475,0.565-1.176,0.893-1.914,0.893H124.52z"/>
		<path fill="#443633" d="M200.002,56.03c9.946,0,18.535,8.387,20.597,20.11l4.876,27.729H124.52l4.875-27.729
			c2.062-11.724,10.65-20.11,20.596-20.11H200.002 M200.002,51.03h-50.01c-12.317,0-23.05,10.196-25.521,24.245l-4.875,27.729
			c-0.256,1.455,0.145,2.949,1.095,4.081c0.95,1.131,2.352,1.785,3.83,1.785h100.955c1.477,0,2.879-0.654,3.829-1.785
			c0.95-1.132,1.351-2.626,1.095-4.081l-4.875-27.729C223.053,61.227,212.32,51.03,200.002,51.03L200.002,51.03z"/>
	</g>
	<g>
		<path fill="#FD8843" d="M224.756,108.421c-0.561,0-1.129-0.03-1.688-0.09c-15.85-1.678-32.023-2.528-48.071-2.528
			c-16.048,0-32.222,0.851-48.072,2.529c-0.559,0.059-1.126,0.089-1.686,0.089c0,0,0,0,0,0c-6.084-0.001-11.31-3.421-12.707-8.317
			l-0.048-0.171c-0.763-2.673-0.295-5.462,1.319-7.847c2.05-3.03,5.621-5.016,9.797-5.448c16.952-1.756,34.244-2.646,51.397-2.646
			s34.446,0.89,51.397,2.646c4.176,0.433,7.747,2.418,9.797,5.448c1.613,2.385,2.082,5.173,1.318,7.852l-0.037,0.129
			C236.064,105,230.84,108.421,224.756,108.421z"/>
		<g>
			<path fill="#443633" d="M174.997,86.492c17.097,0,34.194,0.878,51.14,2.632c6.177,0.64,10.34,5.322,8.969,10.128
				c-0.017,0.056-0.032,0.11-0.048,0.165c-1.1,3.855-5.43,6.504-10.303,6.504c-0.47,0-0.945-0.024-1.423-0.075
				c-16.012-1.695-32.174-2.543-48.335-2.543c-16.162,0-32.323,0.848-48.335,2.543c-0.478,0.051-0.953,0.075-1.423,0.075
				c-4.873,0-9.203-2.648-10.303-6.504c-0.016-0.055-0.031-0.109-0.047-0.165c-1.372-4.806,2.791-9.488,8.968-10.128
				C140.803,87.37,157.9,86.492,174.997,86.492 M174.997,81.492c-17.239,0-34.618,0.895-51.655,2.658
				c-4.913,0.51-9.145,2.891-11.61,6.534c-2.035,3.008-2.622,6.538-1.651,9.939l0.021,0.07l0.026,0.092
				c1.703,5.969,7.917,10.135,15.112,10.135c0.648,0,1.304-0.035,1.95-0.104c15.762-1.669,31.847-2.515,47.808-2.515
				s32.046,0.846,47.809,2.515c0.646,0.068,1.302,0.104,1.949,0.104c7.195,0,13.409-4.166,15.11-10.132l0.023-0.082l0.024-0.084
				c0.97-3.4,0.384-6.931-1.651-9.938c-2.465-3.644-6.697-6.025-11.609-6.534C209.615,82.387,192.236,81.492,174.997,81.492
				L174.997,81.492z"/>
		</g>
	</g>
	<g>
		<g>
			<path fill="#94ED91" d="M233.428,110.283h-9.5l0,0c0-2.409,1.952-4.362,4.361-4.362h0.775
				C231.475,105.921,233.428,107.874,233.428,110.283L233.428,110.283z"/>
			<rect x="223.928" y="110.283" fill="#E9438B" width="9.5" height="4.361"/>
			<path fill="#2240B0" d="M229.064,119.007h-0.775c-2.409,0-4.361-1.953-4.361-4.362l0,0h9.5l0,0
				C233.428,117.054,231.475,119.007,229.064,119.007z"/>
		</g>
		<g>
			<path fill="#94ED91" d="M221.498,110.283h-9.5l0,0c0-2.409,1.953-4.362,4.362-4.362h0.776
				C219.545,105.921,221.498,107.874,221.498,110.283L221.498,110.283z"/>
			<rect x="211.998" y="110.283" fill="#E9438B" width="9.5" height="4.361"/>
			<path fill="#2240B0" d="M217.137,119.007h-0.776c-2.409,0-4.362-1.953-4.362-4.362l0,0h9.5l0,0
				C221.498,117.054,219.545,119.007,217.137,119.007z"/>
		</g>
		<g>
			<path fill="#94ED91" d="M209.569,110.283h-9.5l0,0c0-2.409,1.953-4.362,4.362-4.362h0.775
				C207.616,105.921,209.569,107.874,209.569,110.283L209.569,110.283z"/>
			<rect x="200.069" y="110.283" fill="#E9438B" width="9.5" height="4.361"/>
			<path fill="#2240B0" d="M205.207,119.007h-0.775c-2.409,0-4.362-1.953-4.362-4.362l0,0h9.5l0,0
				C209.569,117.054,207.616,119.007,205.207,119.007z"/>
		</g>
		<g>
			<path fill="#94ED91" d="M197.641,110.283h-9.5l0,0c0-2.409,1.953-4.362,4.361-4.362h0.776
				C195.688,105.921,197.641,107.874,197.641,110.283L197.641,110.283z"/>
			<rect x="188.141" y="110.283" fill="#E9438B" width="9.5" height="4.361"/>
			<path fill="#2240B0" d="M193.278,119.007h-0.776c-2.408,0-4.361-1.953-4.361-4.362l0,0h9.5l0,0
				C197.641,117.054,195.688,119.007,193.278,119.007z"/>
		</g>
		<g>
			<path fill="#94ED91" d="M185.711,110.283h-9.5l0,0c0-2.409,1.953-4.362,4.363-4.362h0.775
				C183.759,105.921,185.711,107.874,185.711,110.283L185.711,110.283z"/>
			<rect x="176.211" y="110.283" fill="#E9438B" width="9.5" height="4.361"/>
			<path fill="#2240B0" d="M181.35,119.007h-0.775c-2.41,0-4.363-1.953-4.363-4.362l0,0h9.5l0,0
				C185.711,117.054,183.759,119.007,181.35,119.007z"/>
		</g>
		<g>
			<path fill="#94ED91" d="M173.783,110.283h-9.5l0,0c0-2.409,1.953-4.362,4.362-4.362h0.776
				C171.83,105.921,173.783,107.874,173.783,110.283L173.783,110.283z"/>
			<rect x="164.283" y="110.283" fill="#E9438B" width="9.5" height="4.361"/>
			<path fill="#2240B0" d="M169.42,119.007h-0.776c-2.409,0-4.362-1.953-4.362-4.362l0,0h9.5l0,0
				C173.783,117.054,171.83,119.007,169.42,119.007z"/>
		</g>
		<g>
			<path fill="#94ED91" d="M161.854,110.283h-9.5l0,0c0-2.409,1.953-4.362,4.362-4.362h0.776
				C159.901,105.921,161.854,107.874,161.854,110.283L161.854,110.283z"/>
			<rect x="152.354" y="110.283" fill="#E9438B" width="9.5" height="4.361"/>
			<path fill="#2240B0" d="M157.492,119.007h-0.776c-2.409,0-4.362-1.953-4.362-4.362l0,0h9.5l0,0
				C161.854,117.054,159.901,119.007,157.492,119.007z"/>
		</g>
		<g>
			<path fill="#94ED91" d="M149.925,110.283h-9.5l0,0c0-2.409,1.953-4.362,4.362-4.362h0.776
				C147.972,105.921,149.925,107.874,149.925,110.283L149.925,110.283z"/>
			<rect x="140.425" y="110.283" fill="#E9438B" width="9.5" height="4.361"/>
			<path fill="#2240B0" d="M145.563,119.007h-0.776c-2.409,0-4.362-1.953-4.362-4.362l0,0h9.5l0,0
				C149.925,117.054,147.972,119.007,145.563,119.007z"/>
		</g>
		<g>
			<path fill="#94ED91" d="M137.996,110.283h-9.5l0,0c0-2.409,1.953-4.362,4.362-4.362h0.776
				C136.043,105.921,137.996,107.874,137.996,110.283L137.996,110.283z"/>
			<rect x="128.496" y="110.283" fill="#E9438B" width="9.5" height="4.361"/>
			<path fill="#2240B0" d="M133.634,119.007h-0.776c-2.409,0-4.362-1.953-4.362-4.362l0,0h9.5l0,0
				C137.996,117.054,136.043,119.007,133.634,119.007z"/>
		</g>
		<g>
			<path fill="#94ED91" d="M126.067,110.283h-9.5l0,0c0-2.409,1.953-4.362,4.362-4.362h0.776
				C124.114,105.921,126.067,107.874,126.067,110.283L126.067,110.283z"/>
			<rect x="116.567" y="110.283" fill="#E9438B" width="9.5" height="4.361"/>
			<path fill="#2240B0" d="M121.705,119.007h-0.776c-2.409,0-4.362-1.953-4.362-4.362l0,0h9.5l0,0
				C126.067,117.054,124.114,119.007,121.705,119.007z"/>
		</g>
	</g>
</g>
</svg>
