<?xml version="1.0" encoding="utf-8"?>
<!-- Generator: Adobe Illustrator 16.0.0, SVG Export Plug-In . SVG Version: 6.00 Build 0)  -->
<!DOCTYPE svg PUBLIC "-//W3C//DTD SVG 1.1//EN" "http://www.w3.org/Graphics/SVG/1.1/DTD/svg11.dtd">
<svg version="1.1" id="Layer_1" xmlns="http://www.w3.org/2000/svg" xmlns:xlink="http://www.w3.org/1999/xlink" x="0px" y="0px"
	 width="350px" height="350px" viewBox="0 0 350 350" enable-background="new 0 0 350 350" xml:space="preserve">
<g>
	<g>
		<path fill="#F58675" d="M174.196,62.273c21.567-2.851,29.609,6.438,34.067,3.875c25.076-14.418,43.208,40.335,43.512,82.329
			c0.264,36.63-15.896,58.322-15.896,58.322s-96.996-2.301-131.2,29.357c0,0-11.506-57.463-3.8-95.714
			C110.082,94.756,141.023,66.656,174.196,62.273z"/>
		<g>
			<path fill="#525865" d="M174.196,64.649c4.521-0.588,9.087-0.736,13.624-0.256c0.227,0.023,0.454,0.05,0.68,0.077
				c0.053,0.007,0.79,0.106,0.254,0.032c0.427,0.06,0.854,0.126,1.28,0.197c0.868,0.144,1.73,0.317,2.588,0.508
				c1.454,0.321,2.894,0.721,4.314,1.161c2.144,0.664,4.236,1.502,6.397,2.11c1.951,0.549,3.904,0.726,5.793-0.112
				c0.462-0.204,0.894-0.481,1.345-0.713c0.282-0.144,0.569-0.277,0.857-0.406c0.504-0.229-0.503,0.203,0.002-0.004
				c0.188-0.077,0.378-0.147,0.568-0.219c0.551-0.205,1.114-0.373,1.683-0.517c0.276-0.07,0.556-0.128,0.834-0.182
				c0.137-0.025,0.275-0.049,0.414-0.071c0.432-0.07-0.617,0.069,0.056-0.006c0.54-0.063,1.085-0.084,1.63-0.082
				c0.269,0.001,0.537,0.015,0.806,0.031c0.217,0.015,1.284,0.152,0.432,0.03c1.113,0.16,2.2,0.472,3.243,0.88
				c0.145,0.056,0.606,0.258-0.059-0.028c0.128,0.055,0.254,0.113,0.379,0.171c0.254,0.117,0.504,0.244,0.753,0.372
				c0.551,0.288,1.083,0.611,1.604,0.95c0.246,0.161,0.487,0.33,0.729,0.5c0.12,0.088,0.241,0.178,0.36,0.267
				c0.43,0.32-0.426-0.336-0.002-0.003c0.529,0.416,1.036,0.858,1.531,1.314c1.013,0.933,1.95,1.946,2.837,2.999
				c0.224,0.267,0.442,0.536,0.658,0.808c0.067,0.082,0.437,0.559,0.063,0.076c0.109,0.142,0.217,0.284,0.324,0.427
				c0.477,0.633,0.933,1.283,1.377,1.939c1.868,2.759,3.462,5.698,4.896,8.703c0.371,0.776,0.729,1.562,1.077,2.35
				c0.177,0.4,0.352,0.804,0.523,1.208c-0.197-0.462,0.089,0.214,0.104,0.249c0.116,0.276,0.228,0.552,0.339,0.828
				c0.719,1.77,1.386,3.561,2.016,5.363c2.715,7.773,4.685,15.807,6.146,23.904c0.781,4.328,1.312,8.067,1.767,12.278
				c0.449,4.166,0.751,8.348,0.896,12.536c0.323,9.323-0.294,18.501-2.076,27.465c-0.771,3.885-1.76,7.727-2.944,11.505
				c-0.521,1.659-1.086,3.303-1.688,4.935c-0.269,0.726-0.547,1.448-0.831,2.169c-0.137,0.345-0.276,0.69-0.417,1.035
				c-0.069,0.169-0.14,0.337-0.209,0.505c-0.047,0.111-0.091,0.222-0.138,0.333c0.123-0.294,0.134-0.319,0.031-0.075
				c-1.676,3.939-3.605,7.795-5.887,11.423c-0.423,0.671-0.854,1.347-1.328,1.985c0.684-0.393,1.367-0.785,2.052-1.177
				c-4.373-0.104-8.756-0.031-13.128,0.068c-10.651,0.245-21.298,0.869-31.902,1.902c-13.401,1.305-26.78,3.244-39.896,6.32
				c-12.513,2.933-25.063,6.91-36.268,13.317c-4.173,2.387-8.149,5.182-11.686,8.444c1.323,0.35,2.647,0.699,3.97,1.049
				c-0.407-2.039-0.762-4.091-1.11-6.141c-0.396-2.334-0.77-4.671-1.123-7.011c-0.215-1.432-0.423-2.863-0.624-4.297
				c-0.105-0.742-0.207-1.484-0.307-2.226c0.083,0.617-0.004-0.034-0.017-0.134c-0.025-0.193-0.052-0.387-0.077-0.58
				c-0.061-0.46-0.119-0.918-0.179-1.377c-2.026-15.8-3.251-31.771-2.868-47.709c0.1-4.191,0.33-8.38,0.718-12.554
				c0.384-4.127,0.818-7.376,1.607-11.513c0.86-4.51,1.989-8.972,3.345-13.357c1.277-4.133,2.869-8.398,4.507-12.097
				c1.704-3.852,3.643-7.599,5.79-11.221c1.039-1.753,2.135-3.469,3.277-5.153c0.54-0.797,1.095-1.584,1.658-2.365
				c0.277-0.387,0.563-0.771,0.848-1.154c0.142-0.189,0.285-0.381,0.43-0.57c0.047-0.063,0.576-0.752,0.349-0.46
				c2.374-3.062,4.942-5.967,7.679-8.707c1.333-1.335,2.712-2.621,4.127-3.868c0.672-0.591,1.354-1.169,2.043-1.739
				c0.341-0.283,0.688-0.562,1.033-0.841c0.175-0.138,0.348-0.275,0.522-0.412c0.116-0.091,0.232-0.183,0.349-0.273
				c-0.189,0.146-0.175,0.135,0.043-0.033c5.3-4.067,11.098-7.483,17.237-10.116c0.254-0.108,0.258-0.11,0.015-0.006
				c0.194-0.081,0.39-0.161,0.584-0.242c0.389-0.158,0.779-0.313,1.172-0.466c0.779-0.304,1.566-0.593,2.357-0.871
				c1.57-0.554,3.164-1.047,4.77-1.492c1.527-0.426,3.072-0.793,4.627-1.117c0.808-0.168,1.618-0.318,2.432-0.459
				c0.405-0.07,0.813-0.135,1.219-0.197c0.204-0.032,0.407-0.061,0.611-0.091C174.094,64.664,174.776,64.57,174.196,64.649
				c1.282-0.172,2.376-0.952,2.376-2.376c0-1.166-1.09-2.547-2.376-2.376c-14.556,1.944-28.026,8.065-39.479,17.197
				c-12.565,10.015-22.156,23.531-28.498,38.227c-3.611,8.368-6.27,17.128-7.939,26.088c-1.529,8.203-2.173,16.563-2.372,24.896
				c-0.382,15.918,0.878,31.875,2.899,47.654c0.979,7.633,2.073,15.28,3.581,22.829l0,0c0.368,1.841,2.745,2.178,3.97,1.049
				c0.987-0.91,2.009-1.78,3.061-2.614c0.128-0.103,0.258-0.202,0.386-0.303c-0.507,0.396-0.056,0.045,0.042-0.028
				c0.263-0.201,0.529-0.398,0.796-0.594c0.583-0.429,1.177-0.846,1.776-1.255c2.392-1.63,4.896-3.095,7.457-4.439
				c1.337-0.701,2.695-1.365,4.063-2.002c0.669-0.311,1.344-0.613,2.021-0.911c0.34-0.149,0.682-0.297,1.025-0.443
				c0.582-0.249-0.463,0.194,0.123-0.052c0.23-0.097,0.462-0.193,0.693-0.288c2.96-1.221,5.974-2.314,9.014-3.318
				c12.773-4.217,26.059-6.831,39.358-8.713c0.396-0.056,0.792-0.11,1.188-0.164c0.197-0.027,0.395-0.055,0.594-0.082
				c0.664-0.091-0.508,0.068,0.157-0.021c0.852-0.114,1.702-0.225,2.555-0.331c1.616-0.203,3.235-0.395,4.855-0.575
				c3.132-0.351,6.27-0.661,9.409-0.936c5.656-0.495,11.321-0.871,16.992-1.142c7.255-0.347,14.521-0.536,21.783-0.48
				c0.629,0.004,1.255,0.012,1.883,0.024c1.039,0.018,1.86-0.499,2.465-1.347c1.602-2.246,2.956-4.68,4.221-7.127
				c6.877-13.294,10.552-28.145,11.595-43.032c0.622-8.871,0.195-17.812-0.785-26.641c-0.947-8.541-2.449-17.029-4.59-25.353
				c-1.962-7.63-4.492-15.142-7.854-22.273c-2.694-5.714-6.061-11.365-10.643-15.778c-3.749-3.609-8.565-6.281-13.888-6.2
				c-2.769,0.042-5.425,0.852-7.893,2.062c-0.481,0.236-0.937,0.526-1.421,0.754c0.828-0.39,0.313-0.129,0.077-0.061
				c-0.241,0.069-0.943,0.141,0.036,0.027c-0.323,0.037-0.651,0.027-0.975,0.002c-0.679-0.055,0.562,0.094,0.015,0.006
				c-0.221-0.036-0.439-0.083-0.656-0.133c-1.526-0.348-3.002-0.916-4.478-1.426c-2.097-0.721-4.211-1.38-6.368-1.896
				c-6.635-1.581-13.507-1.734-20.252-0.858c-1.284,0.167-2.376,0.954-2.376,2.376C171.82,63.441,172.908,64.815,174.196,64.649z"/>
		</g>
	</g>
	<g>
		<ellipse fill="#F5E3D5" cx="222.822" cy="148.623" rx="13.057" ry="18.568"/>
		<g>
			<path fill="#525865" d="M207.39,148.623c0.036,7.417,3.021,16.363,10.237,19.735c3.384,1.579,7.002,1.511,10.389,0
				c3.23-1.442,5.734-4.426,7.354-7.493c3.929-7.44,3.828-17.035,0-24.485c-1.599-3.109-4.149-5.994-7.354-7.492
				c-3.385-1.58-7.001-1.512-10.389,0c-3.231,1.442-5.734,4.425-7.354,7.492C208.293,140.128,207.41,144.402,207.39,148.623
				c-0.015,3.063,4.736,3.062,4.751,0c0.018-3.786,0.832-7.422,2.65-10.602c0.209-0.366,0.438-0.724,0.672-1.074
				c0.115-0.172,0.236-0.341,0.357-0.509c0.398-0.551-0.295,0.36,0.126-0.164c0.533-0.668,1.132-1.278,1.771-1.841
				c0.145-0.126,0.291-0.246,0.439-0.364c-0.447,0.359,0.046-0.023,0.122-0.077c0.302-0.214,0.617-0.405,0.938-0.59
				c0.314-0.181,0.644-0.339,0.973-0.486c-0.56,0.25-0.002,0.015,0.101-0.023c0.225-0.082,0.453-0.148,0.683-0.213
				c0.344-0.098,0.694-0.167,1.046-0.225c-0.641,0.105-0.043,0.013,0.082,0.002c0.18-0.016,0.359-0.021,0.539-0.026
				c0.363-0.012,0.725,0.011,1.083,0.041c0.614,0.055-0.526-0.088,0.079,0.013c0.234,0.038,0.466,0.093,0.698,0.149
				c0.347,0.084,0.687,0.198,1.022,0.319c0.574,0.209-0.464-0.213,0.098,0.037c0.165,0.073,0.326,0.156,0.487,0.239
				c0.328,0.166,0.641,0.357,0.949,0.555c0.157,0.101,0.31,0.208,0.462,0.315c0.212,0.157,0.201,0.148-0.031-0.03
				c0.1,0.078,0.197,0.159,0.295,0.239c0.602,0.499,1.146,1.065,1.657,1.655c0.133,0.152,0.258,0.311,0.385,0.468
				c-0.336-0.418,0.081,0.121,0.12,0.175c0.286,0.396,0.548,0.812,0.801,1.23c0.451,0.749,0.836,1.535,1.185,2.337
				c-0.196-0.451,0.087,0.238,0.098,0.27c0.084,0.213,0.158,0.429,0.233,0.644c0.18,0.514,0.334,1.035,0.477,1.562
				c0.254,0.931,0.438,1.879,0.582,2.833c-0.069-0.458,0.037,0.349,0.037,0.352c0.027,0.25,0.05,0.5,0.068,0.749
				c0.05,0.594,0.068,1.188,0.078,1.782c0.015,1.019-0.043,2.036-0.146,3.048c0,0.003-0.102,0.812-0.037,0.352
				c-0.035,0.243-0.076,0.484-0.117,0.726c-0.093,0.555-0.215,1.104-0.346,1.649c-0.219,0.904-0.503,1.792-0.829,2.663
				c-0.011,0.031-0.29,0.725-0.098,0.27c-0.087,0.206-0.179,0.407-0.273,0.61c-0.212,0.461-0.449,0.911-0.696,1.355
				c-0.207,0.371-0.432,0.731-0.662,1.087c-0.114,0.175-0.234,0.345-0.354,0.515c-0.037,0.054-0.45,0.599-0.12,0.175
				c-0.526,0.676-1.118,1.298-1.752,1.871c-0.144,0.129-0.29,0.251-0.437,0.373c-0.49,0.406,0.391-0.285-0.117,0.088
				c-0.299,0.219-0.614,0.417-0.931,0.606c-0.313,0.188-0.64,0.35-0.968,0.503c-0.557,0.259,0.473-0.183-0.098,0.037
				c-0.224,0.086-0.451,0.157-0.679,0.226c-0.342,0.104-0.691,0.18-1.042,0.244c-0.604,0.112,0.533-0.055-0.079,0.011
				c-0.177,0.02-0.357,0.028-0.538,0.036c-0.362,0.02-0.725,0.005-1.084-0.02c-0.123-0.008-0.729-0.092-0.082,0.002
				c-0.235-0.034-0.467-0.085-0.7-0.136c-0.349-0.078-0.69-0.187-1.028-0.303c-0.102-0.034-0.666-0.265-0.101-0.023
				c-0.166-0.071-0.327-0.149-0.491-0.229c-0.328-0.16-0.645-0.347-0.956-0.538c-0.157-0.098-0.311-0.203-0.463-0.308
				c-0.103-0.071-0.203-0.145-0.303-0.219c0.229,0.181,0.242,0.188,0.032,0.022c-0.606-0.488-1.156-1.043-1.673-1.626
				c-0.134-0.149-0.261-0.305-0.389-0.46c-0.427-0.52,0.278,0.382-0.126-0.165c-0.29-0.393-0.556-0.802-0.812-1.216
				c-0.498-0.805-0.917-1.653-1.294-2.52c0.196,0.452-0.088-0.238-0.099-0.27c-0.083-0.213-0.158-0.428-0.233-0.645
				c-0.181-0.513-0.334-1.034-0.478-1.561c-0.126-0.459-0.23-0.927-0.328-1.393c-0.051-0.237-0.093-0.477-0.136-0.715
				c-0.016-0.082-0.148-0.977-0.098-0.583c-0.142-1.089-0.198-2.187-0.203-3.283C212.126,145.559,207.375,145.558,207.39,148.623z"
				/>
		</g>
	</g>
	<path fill="#EAD2C3" d="M229.852,149.288c0,0,0.823,2.896-0.802,4.329c-5.12,4.514-4.956,11.111-4.956,11.111v-11.759l1.661-1.86
		L229.852,149.288z"/>
	<g>
		<path fill="#525865" d="M222.867,158.874c-0.131-1.482,0.07-2.493,0.531-3.896c0.885-2.695,3.158-4.515,5.969-5.21
			c1.484-0.367,0.855-2.659-0.632-2.29c-3.505,0.867-6.19,3.122-7.493,6.491c-0.579,1.504-0.891,3.29-0.752,4.905
			C220.624,160.387,223.001,160.401,222.867,158.874L222.867,158.874z"/>
	</g>
	<g>
		<path fill="#00A9B9" d="M175.739,288.259c40.88,0,54.71-8.429,54.71-8.429s0.342-23.173-6.842-28.97
			c0,0-26.854-17.209-38.313-20.194h-9.421h-2.246h-10.58c-11.461,2.985-38.314,20.194-38.314,20.194
			c-7.185,5.797-6.842,28.97-6.842,28.97s18.474,8.429,59.353,8.429H175.739z"/>
		<g>
			<path fill="#525865" d="M175.739,290.635c14.507-0.007,29.31-0.844,43.446-4.331c3.124-0.772,6.231-1.688,9.211-2.914
				c1.211-0.497,3.37-1.108,4.104-2.36c0.597-1.018,0.326-2.742,0.299-3.858c-0.057-2.279-0.189-4.555-0.396-6.826
				c-0.526-5.784-1.375-11.86-4.025-17.104c-0.867-1.714-2.093-3.489-3.738-4.537c-1.006-0.641-2.016-1.272-3.028-1.9
				c-4.515-2.801-9.081-5.521-13.706-8.134c-5.44-3.072-10.969-6.02-16.733-8.439c-1.13-0.476-2.274-0.919-3.437-1.311
				c-0.868-0.293-1.778-0.629-2.704-0.629c-2.191,0-4.382,0-6.573,0c-3.191,0-6.381,0-9.572,0c-1.93,0-3.859,0-5.79,0
				c-1.031,0-2.177,0.514-3.139,0.854c-1.336,0.471-2.644,1.018-3.946,1.576c-5.646,2.415-11.063,5.386-16.397,8.415
				c-4.5,2.557-8.942,5.217-13.336,7.948c-0.895,0.558-1.786,1.116-2.674,1.682c-1.813,1.158-3.077,3.242-3.964,5.147
				c-2.492,5.344-3.281,11.414-3.772,17.232c-0.242,2.882-0.392,5.792-0.352,8.686c0.011,0.772,0.431,1.711,1.177,2.051
				c4.746,2.161,9.993,3.392,15.062,4.486c14.899,3.219,30.276,4.261,45.49,4.268c0-1.583,0-3.167,0-4.751c-0.502,0-1.003,0-1.504,0
				C172.676,285.884,172.676,290.635,175.739,290.635c0.501,0,1.002,0,1.504,0c3.063,0,3.063-4.75,0-4.751
				c-8.931-0.005-17.864-0.397-26.746-1.341c-0.885-0.095-1.769-0.195-2.651-0.3c-0.428-0.052-0.856-0.105-1.282-0.159
				c-0.21-0.024-0.421-0.053-0.631-0.079c-0.1-0.014-0.986-0.132-0.4-0.054c-1.626-0.219-3.247-0.462-4.866-0.725
				c-2.758-0.449-5.506-0.969-8.236-1.568c-3.525-0.773-7.029-1.683-10.454-2.825c-0.861-0.288-1.718-0.592-2.563-0.925
				c-0.299-0.116-1.183-0.491-0.103-0.033c-0.073-0.03-0.148-0.063-0.222-0.097c0.392,0.685,0.784,1.368,1.177,2.052
				c-0.047-3.27,0.146-6.556,0.453-9.81c0.063-0.665,0.134-1.329,0.213-1.993c0.039-0.341,0.081-0.68,0.125-1.021
				c-0.086,0.669-0.008,0.071,0.01-0.054c0.031-0.229,0.066-0.458,0.1-0.688c0.216-1.44,0.479-2.873,0.799-4.292
				c0.309-1.369,0.682-2.723,1.14-4.05c0.106-0.302,0.218-0.602,0.332-0.9c0.057-0.146,0.115-0.291,0.175-0.436
				c-0.256,0.628-0.053,0.125,0.002,0c0.259-0.586,0.549-1.156,0.866-1.712c0.14-0.241,0.288-0.478,0.441-0.71
				c0.104-0.158,0.672-0.912,0.179-0.28c0.337-0.43,0.716-0.828,1.126-1.189c0.355-0.313-0.566,0.39-0.191,0.149
				c0.127-0.08,0.254-0.16,0.382-0.24c1.229-0.781,2.465-1.55,3.704-2.313c4.731-2.918,9.519-5.749,14.377-8.453
				c2.768-1.538,5.561-3.03,8.394-4.442c1.322-0.658,2.654-1.295,3.999-1.905c0.602-0.272,1.208-0.537,1.815-0.795
				c-0.662,0.279,0.287-0.118,0.45-0.185c0.327-0.132,0.655-0.261,0.983-0.388c1.05-0.403,2.113-0.771,3.193-1.073
				c0.618-0.174-0.747-0.009,0.005-0.009c0.368,0,0.737,0,1.105,0c2.398,0,4.798,0,7.196,0c3.242,0,6.484,0,9.727,0
				c1.077,0,2.154,0,3.23,0c0.223,0,0.445,0,0.668,0c-0.494,0-0.615-0.093-0.14,0.041c0.283,0.08,0.564,0.165,0.846,0.254
				c1.138,0.358,2.253,0.785,3.358,1.234c0.145,0.059,0.289,0.118,0.435,0.18c0.515,0.214-0.499-0.214,0.021,0.008
				c0.3,0.127,0.601,0.258,0.9,0.391c0.676,0.298,1.348,0.605,2.019,0.918c9.81,4.586,19.174,10.222,28.335,15.978
				c0.386,0.242,0.771,0.485,1.152,0.729c0.069,0.044,0.137,0.088,0.205,0.131c-0.258-0.166-0.533-0.429-0.189-0.127
				c0.219,0.192,0.421,0.401,0.617,0.615c0.129,0.14,0.688,0.855,0.207,0.223c0.165,0.215,0.316,0.439,0.465,0.665
				c0.342,0.52,0.637,1.068,0.913,1.624c0.134,0.271,0.258,0.546,0.381,0.822c0.22,0.502-0.21-0.507,0,0.006
				c0.059,0.146,0.115,0.292,0.171,0.439c0.254,0.658,0.476,1.328,0.682,2.002c0.416,1.367,0.743,2.761,1.023,4.161
				c0.139,0.687,0.261,1.377,0.374,2.067c0.057,0.346,0.109,0.689,0.16,1.035c0.026,0.173,0.051,0.344,0.075,0.517
				c0.017,0.114,0.031,0.228,0.047,0.344c-0.045-0.346-0.053-0.387-0.017-0.119c0.336,2.573,0.54,5.163,0.663,7.755
				c0.076,1.63,0.13,3.266,0.108,4.897c0.392-0.684,0.782-1.367,1.175-2.052c-0.221,0.136-0.456,0.254-0.688,0.369
				c-0.293,0.148-0.591,0.289-0.89,0.423c-0.188,0.086-0.377,0.169-0.565,0.25c-0.519,0.224,0.38-0.158,0.195-0.081
				c-0.135,0.056-0.268,0.11-0.403,0.165c-3.073,1.247-6.279,2.165-9.5,2.945c-2.405,0.583-4.834,1.071-7.272,1.497
				c-1.45,0.253-2.903,0.479-4.359,0.688c-0.193,0.028-0.387,0.055-0.581,0.081c-0.091,0.014-0.75,0.103-0.154,0.022
				c-0.4,0.054-0.804,0.105-1.204,0.156c-0.908,0.114-1.814,0.221-2.724,0.32c-8.419,0.929-16.898,1.266-25.365,1.27
				C172.676,285.885,172.676,290.637,175.739,290.635z"/>
		</g>
	</g>
	<g>
		<path fill="#F5E3D5" d="M162.997,223.881v13.379c0,6.17,5.001,11.173,11.173,11.173l0,0c6.172,0,11.173-5.003,11.173-11.173
			v-13.379H162.997z"/>
		<g>
			<path fill="#525865" d="M160.622,223.881c0,3.94,0,7.882,0,11.822c0,2.482,0.204,4.838,1.222,7.153
				c1.576,3.584,4.773,6.249,8.486,7.398c3.802,1.178,8.168,0.459,11.435-1.783c3.435-2.354,5.458-6.006,5.9-10.111
				c0.175-1.624,0.054-3.32,0.054-4.949c0-2.47,0-4.939,0-7.409c0-0.707,0-1.413,0-2.121c0-1.294-1.08-2.374-2.376-2.374
				c-7.379,0-14.759,0-22.14,0c-0.068,0-0.137,0-0.206,0c-3.063,0-3.063,4.75,0,4.75c7.379,0,14.759,0,22.14,0
				c0.068,0,0.138,0,0.206,0c-0.792-0.792-1.584-1.584-2.376-2.376c0,3.94,0,7.882,0,11.822c0,0.516,0,1.032,0,1.547
				c0,0.299-0.014,0.596-0.033,0.894c-0.004,0.064-0.098,0.779-0.018,0.233c-0.03,0.212-0.074,0.423-0.118,0.634
				c-0.087,0.417-0.208,0.825-0.343,1.229c-0.065,0.199-0.143,0.396-0.221,0.592c0.193-0.491-0.156,0.297-0.199,0.382
				c-0.188,0.371-0.409,0.725-0.637,1.071c-0.113,0.175-0.238,0.34-0.361,0.506c0.313-0.421-0.111,0.114-0.152,0.161
				c-0.27,0.313-0.565,0.604-0.867,0.885c-0.152,0.142-0.311,0.273-0.471,0.404c0.398-0.33-0.271,0.192-0.352,0.246
				c-0.342,0.236-0.705,0.441-1.071,0.637c-0.185,0.099-0.374,0.187-0.563,0.275c0.481-0.224-0.15,0.053-0.211,0.075
				c-0.398,0.149-0.808,0.263-1.22,0.366c-0.207,0.052-0.419,0.089-0.63,0.129c-0.279,0.044-0.283,0.048-0.011,0.01
				c-0.146,0.018-0.29,0.032-0.436,0.043c-0.442,0.039-0.886,0.039-1.327,0.026c-0.22-0.007-0.439-0.026-0.658-0.045
				c-0.714-0.063,0.474,0.083-0.229-0.034c-0.422-0.069-0.837-0.176-1.246-0.296c-0.204-0.059-0.403-0.128-0.603-0.199
				c-0.133-0.047-0.264-0.098-0.393-0.151c0.244,0.104,0.241,0.099-0.009-0.013c-0.379-0.176-0.741-0.382-1.098-0.598
				c-0.178-0.107-0.348-0.226-0.521-0.342c-0.052-0.037-0.588-0.456-0.179-0.13c-0.323-0.258-0.625-0.543-0.918-0.834
				c-0.146-0.146-0.283-0.3-0.422-0.455c-0.09-0.104-0.179-0.209-0.268-0.315c0.158,0.21,0.156,0.207-0.007-0.012
				c-0.247-0.333-0.466-0.687-0.675-1.046c-0.104-0.181-0.199-0.365-0.295-0.552c-0.027-0.056-0.31-0.688-0.104-0.195
				c-0.164-0.391-0.293-0.793-0.409-1.199c-0.06-0.205-0.107-0.413-0.155-0.622c-0.021-0.095-0.161-0.975-0.093-0.432
				c-0.089-0.708-0.076-1.418-0.076-2.129c0-4.139,0-8.277,0-12.416c0-0.052,0-0.103,0-0.153
				C165.372,220.818,160.622,220.818,160.622,223.881z"/>
		</g>
	</g>
	<g>
		<ellipse fill="#F5E3D5" cx="124.212" cy="148.623" rx="13.057" ry="18.568"/>
		<g>
			<path fill="#525865" d="M134.894,148.623c-0.018,3.785-0.833,7.421-2.649,10.601c-0.21,0.367-0.438,0.723-0.672,1.075
				c-0.116,0.171-0.237,0.339-0.358,0.508c-0.398,0.551,0.295-0.36-0.126,0.165c-0.532,0.666-1.131,1.277-1.771,1.841
				c-0.143,0.125-0.292,0.245-0.439,0.363c0.447-0.359-0.046,0.024-0.121,0.078c-0.303,0.213-0.618,0.405-0.938,0.59
				c-0.314,0.181-0.643,0.338-0.974,0.485c0.559-0.249,0.002-0.015-0.102,0.023c-0.224,0.082-0.451,0.149-0.682,0.214
				c-0.344,0.098-0.694,0.166-1.046,0.225c0.642-0.105,0.044-0.013-0.081-0.002c-0.18,0.016-0.36,0.02-0.541,0.025
				c-0.361,0.012-0.724-0.01-1.082-0.042c-0.614-0.054,0.525,0.089-0.079-0.011c-0.234-0.04-0.468-0.093-0.697-0.15
				c-0.348-0.083-0.688-0.198-1.023-0.319c-0.573-0.209,0.464,0.213-0.097-0.037c-0.166-0.073-0.326-0.155-0.488-0.238
				c-0.327-0.167-0.641-0.357-0.949-0.555c-0.156-0.102-0.31-0.209-0.461-0.316c-0.212-0.157-0.201-0.147,0.03,0.03
				c-0.099-0.077-0.197-0.158-0.294-0.239c-0.602-0.499-1.146-1.064-1.658-1.655c-0.132-0.152-0.258-0.31-0.385-0.468
				c0.335,0.418-0.082-0.121-0.121-0.175c-0.284-0.397-0.547-0.812-0.801-1.23c-0.451-0.749-0.836-1.535-1.184-2.337
				c0.197,0.452-0.086-0.238-0.1-0.27c-0.081-0.213-0.156-0.428-0.231-0.645c-0.181-0.513-0.334-1.034-0.478-1.561
				c-0.254-0.931-0.438-1.879-0.581-2.833c0.069,0.458-0.037-0.349-0.038-0.352c-0.027-0.25-0.048-0.5-0.068-0.749
				c-0.047-0.593-0.068-1.188-0.077-1.782c-0.014-1.017,0.044-2.035,0.146-3.048c0.001-0.003,0.104-0.811,0.038-0.352
				c0.034-0.243,0.075-0.484,0.117-0.726c0.094-0.555,0.214-1.104,0.346-1.649c0.22-0.904,0.503-1.792,0.827-2.663
				c0.013-0.03,0.291-0.723,0.1-0.27c0.086-0.206,0.18-0.407,0.273-0.61c0.212-0.461,0.449-0.911,0.696-1.355
				c0.207-0.371,0.433-0.731,0.665-1.086c0.113-0.176,0.231-0.346,0.35-0.516c0.038-0.054,0.451-0.598,0.121-0.175
				c0.527-0.676,1.119-1.297,1.754-1.872c0.142-0.127,0.288-0.25,0.436-0.372c0.489-0.406-0.393,0.286,0.117-0.088
				c0.298-0.219,0.613-0.417,0.931-0.606c0.312-0.186,0.639-0.349,0.968-0.503c0.555-0.259-0.474,0.183,0.097-0.037
				c0.224-0.086,0.45-0.157,0.679-0.226c0.342-0.104,0.691-0.179,1.042-0.243c0.604-0.112-0.534,0.054,0.079-0.013
				c0.179-0.019,0.358-0.027,0.538-0.035c0.362-0.018,0.725-0.004,1.085,0.021c0.121,0.008,0.728,0.093,0.081-0.002
				c0.235,0.034,0.468,0.084,0.7,0.137c0.35,0.077,0.69,0.185,1.027,0.301c0.102,0.036,0.667,0.265,0.102,0.023
				c0.166,0.071,0.328,0.15,0.49,0.229c0.329,0.16,0.646,0.347,0.957,0.538c0.157,0.099,0.311,0.204,0.464,0.309
				c0.102,0.07,0.202,0.145,0.302,0.219c-0.23-0.182-0.242-0.19-0.033-0.023c0.607,0.489,1.158,1.043,1.674,1.626
				c0.135,0.15,0.262,0.306,0.389,0.461c0.427,0.521-0.278-0.381,0.126,0.164c0.29,0.393,0.556,0.802,0.812,1.218
				c0.498,0.803,0.919,1.651,1.293,2.518c-0.194-0.451,0.09,0.238,0.1,0.27c0.082,0.213,0.159,0.429,0.233,0.644
				c0.181,0.514,0.334,1.035,0.477,1.562c0.126,0.459,0.231,0.927,0.329,1.394c0.051,0.237,0.093,0.475,0.136,0.714
				c0.015,0.083,0.148,0.977,0.098,0.583C134.833,146.428,134.889,147.526,134.894,148.623c0.015,3.062,4.766,3.063,4.751,0
				c-0.035-7.418-3.021-16.364-10.237-19.735c-3.384-1.58-7.002-1.512-10.389,0c-3.231,1.442-5.734,4.425-7.354,7.492
				c-3.93,7.441-3.828,17.035,0,24.485c1.6,3.11,4.149,5.995,7.354,7.493c3.384,1.579,7.001,1.511,10.389,0
				c3.231-1.442,5.734-4.426,7.354-7.493c1.98-3.748,2.863-8.022,2.883-12.242C139.659,145.558,134.908,145.559,134.894,148.623z"/>
		</g>
	</g>
	<g>
		<path fill="#F5E3D5" d="M125.445,125.086v55.177c0,26.909,21.815,48.725,48.725,48.725l0,0c26.909,0,48.723-21.815,48.723-48.725
			v-75.363c0,0-15.744,15.856-34.203,17.229l4.9-10.24c0,0-27.79,11.718-48.323,7.495c0,0,1.318-3.801,8.075-4.646
			C153.342,114.74,129.432,114.951,125.445,125.086z"/>
		<g>
			<path fill="#525865" d="M123.071,125.086c0,6.012,0,12.023,0,18.034c0,9.808,0,19.615,0,29.422c0,2.47,0,4.941,0,7.41
				c0,5.811,0.913,11.615,2.829,17.104c4.822,13.816,15.463,24.856,28.916,30.495c13.717,5.75,29.716,4.848,42.889-1.923
				c12.798-6.578,22.382-18.73,25.967-32.642c1.138-4.413,1.597-8.961,1.597-13.511c0-2.356,0-4.714,0-7.071
				c0-9.203,0-18.405,0-27.607c0-9.667,0-19.333,0-28.999c0-3.634,0-7.266,0-10.898c0-2.066-2.591-3.15-4.055-1.678
				c-0.665,0.668-1.373,1.298-2.08,1.92c-0.802,0.703-1.62,1.387-2.452,2.055c-0.236,0.19-0.475,0.378-0.713,0.564
				c-0.1,0.08-0.536,0.416-0.021,0.017c-0.13,0.101-0.258,0.199-0.389,0.298c-0.594,0.453-1.197,0.896-1.805,1.331
				c-2.739,1.964-5.612,3.741-8.604,5.294c-0.79,0.411-1.59,0.8-2.397,1.174c-0.41,0.191-0.824,0.375-1.238,0.556
				c-0.687,0.299,0.42-0.173-0.273,0.115c-0.281,0.118-0.565,0.23-0.85,0.344c-1.807,0.716-3.657,1.318-5.536,1.809
				c-1.069,0.278-2.151,0.507-3.239,0.699c-0.234,0.042-0.47,0.077-0.706,0.115c-0.156,0.024-0.313,0.047-0.472,0.069
				c0.237-0.03,0.211-0.028-0.079,0.009c-0.555,0.069-1.112,0.12-1.671,0.164c0.685,1.191,1.369,2.382,2.053,3.574
				c1.632-3.414,3.266-6.827,4.899-10.24c0.374-0.784,0.456-1.619,0-2.397c-0.487-0.83-1.718-1.498-2.684-1.092
				c-2.834,1.193-5.766,2.183-8.692,3.115c-3.031,0.964-6.094,1.819-9.184,2.564c-1.76,0.424-3.53,0.804-5.31,1.146
				c-0.885,0.169-1.771,0.325-2.659,0.472c-0.449,0.074-0.899,0.144-1.352,0.212c-0.226,0.033-0.451,0.066-0.679,0.1
				c-0.151,0.021-0.303,0.042-0.453,0.063c0.252-0.035,0.233-0.033-0.053,0.005c-3.208,0.419-6.441,0.652-9.677,0.65
				c-1.597-0.001-3.192-0.073-4.783-0.213c-0.374-0.032-0.747-0.073-1.12-0.113c-0.148-0.018-0.297-0.036-0.445-0.054
				c-0.735-0.089,0.476,0.069-0.255-0.034c-0.805-0.114-1.604-0.257-2.398-0.419c0.553,0.975,1.104,1.949,1.658,2.923
				c-0.249,0.701-0.209,0.427,0.055-0.01c0.118-0.198,0.621-0.837,0.061-0.132c0.208-0.262,0.441-0.502,0.685-0.73
				c0.127-0.121,0.261-0.233,0.396-0.344c-0.572,0.472-0.032,0.029,0.102-0.063c0.417-0.287,0.862-0.528,1.317-0.748
				c0.113-0.054,0.229-0.106,0.344-0.155c-0.267,0.114-0.272,0.119-0.016,0.018c0.334-0.129,0.678-0.234,1.021-0.334
				c0.301-0.088,0.607-0.159,0.913-0.229c0.162-0.035,0.326-0.067,0.489-0.098c-0.041,0.007,0.793-0.126,0.418-0.077
				c1.283-0.171,2.375-0.951,2.375-2.376c0-1.285-1.081-2.387-2.375-2.375c-3.14,0.03-6.287,0.379-9.393,0.821
				c-5.285,0.753-10.887,2.028-15.418,4.979c-2.409,1.566-4.297,3.613-5.376,6.29c-0.485,1.204,0.518,2.608,1.66,2.922
				c1.355,0.372,2.438-0.459,2.921-1.658c-0.303,0.75,0.059-0.1,0.148-0.274c0.123-0.234,0.261-0.461,0.404-0.684
				c0.073-0.112,0.148-0.221,0.227-0.33c0.286-0.402-0.354,0.443-0.046,0.055c0.197-0.247,0.411-0.482,0.63-0.71
				c0.389-0.405,0.812-0.771,1.249-1.12c-0.597,0.476,0.186-0.121,0.336-0.226c0.283-0.196,0.577-0.38,0.872-0.558
				c0.523-0.315,1.064-0.601,1.613-0.868c0.28-0.139,0.565-0.268,0.852-0.395c0.121-0.054,0.635-0.268,0.016-0.01
				c0.196-0.082,0.396-0.159,0.593-0.238c1.265-0.494,2.563-0.897,3.874-1.251c1.307-0.353,2.631-0.641,3.959-0.891
				c0.616-0.115,1.232-0.22,1.852-0.317c0.299-0.047,0.6-0.092,0.898-0.135c0.146-0.022,0.295-0.042,0.441-0.063
				c-0.77,0.106-0.071,0.011,0.09-0.011c1.929-0.246,3.867-0.417,5.809-0.516c0.595-0.029,1.192-0.057,1.789-0.063
				c0-1.583,0-3.167,0-4.751c-3.99,0.528-8.877,2.194-10.365,6.39c-0.412,1.16,0.454,2.678,1.658,2.922
				c7.767,1.574,15.741,1.085,23.518-0.162c6.518-1.045,12.936-2.729,19.196-4.811c2.313-0.77,4.626-1.577,6.874-2.522
				c-0.895-1.163-1.791-2.327-2.684-3.489c-1.633,3.412-3.267,6.826-4.899,10.24c-0.709,1.481,0.105,3.725,2.05,3.573
				c13.104-1.02,25.382-8.231,34.902-16.99c0.332-0.306,0.663-0.613,0.982-0.935c-1.353-0.559-2.704-1.118-4.056-1.68
				c0,4.81,0,9.619,0,14.428c0,10.01,0,20.02,0,30.029c0,8.584,0,17.171,0,25.755c0,1.689,0,3.376,0,5.065
				c0,0.845-0.021,1.688-0.06,2.531c-0.042,0.88-0.113,1.756-0.201,2.632c-0.044,0.434-0.097,0.867-0.152,1.301
				c0.069-0.546-0.027,0.168-0.037,0.23c-0.04,0.285-0.088,0.57-0.135,0.855c-0.578,3.508-1.566,6.943-2.896,10.238
				c-0.023,0.056-0.293,0.701-0.085,0.21c-0.083,0.194-0.166,0.386-0.252,0.578c-0.168,0.384-0.346,0.766-0.522,1.146
				c-0.388,0.82-0.803,1.627-1.234,2.425c-0.827,1.526-1.745,3.005-2.729,4.433c-0.236,0.343-0.478,0.682-0.722,1.017
				c-0.123,0.168-0.248,0.334-0.372,0.501c-0.035,0.047-0.453,0.595-0.132,0.18c-0.551,0.711-1.124,1.402-1.713,2.082
				c-1.13,1.307-2.338,2.545-3.6,3.725c-0.605,0.565-1.229,1.112-1.863,1.647c-0.317,0.269-0.64,0.529-0.963,0.788
				c-0.162,0.131-0.326,0.258-0.49,0.386c0.41-0.32-0.273,0.204-0.345,0.256c-1.39,1.038-2.84,1.992-4.332,2.877
				c-1.499,0.888-3.052,1.687-4.639,2.408c-0.191,0.088-0.383,0.171-0.576,0.257c-0.055,0.023-0.697,0.295-0.206,0.09
				c-0.389,0.163-0.781,0.318-1.174,0.471c-0.854,0.332-1.72,0.635-2.592,0.919c-1.694,0.549-3.421,0.993-5.164,1.354
				c-0.848,0.175-1.699,0.321-2.555,0.45c-0.062,0.01-0.775,0.108-0.229,0.036c-0.218,0.028-0.434,0.054-0.65,0.079
				c-0.508,0.063-1.016,0.111-1.524,0.155c-1.842,0.162-3.693,0.207-5.541,0.161c-0.884-0.022-1.768-0.074-2.647-0.143
				c-0.438-0.035-0.873-0.078-1.312-0.123c-0.216-0.024-0.433-0.051-0.649-0.076c-0.145-0.018-0.288-0.035-0.433-0.054
				c0.272,0.036,0.268,0.035-0.016-0.005c-3.528-0.501-6.995-1.416-10.327-2.678c-0.395-0.149-0.786-0.307-1.177-0.465
				c-0.646-0.266,0.435,0.187-0.207-0.089c-0.193-0.083-0.386-0.169-0.579-0.254c-0.828-0.369-1.646-0.767-2.453-1.183
				c-1.546-0.794-3.043-1.681-4.496-2.637c-0.693-0.457-1.374-0.937-2.045-1.429c-0.167-0.121-0.333-0.247-0.499-0.371
				c-0.551-0.415,0.367,0.288-0.177-0.137c-0.382-0.297-0.758-0.603-1.129-0.912c-1.331-1.103-2.595-2.283-3.8-3.521
				c-1.206-1.237-2.339-2.546-3.408-3.904c-0.426-0.54,0.282,0.373-0.136-0.176c-0.124-0.165-0.248-0.333-0.372-0.5
				c-0.248-0.333-0.488-0.672-0.728-1.012c-0.517-0.738-1.011-1.494-1.486-2.26c-0.919-1.479-1.75-3.012-2.504-4.581
				c-0.182-0.377-0.357-0.759-0.529-1.142c-0.086-0.192-0.17-0.385-0.254-0.577c-0.278-0.641,0.18,0.438-0.087-0.208
				c-0.351-0.846-0.672-1.703-0.974-2.566c-0.584-1.677-1.065-3.389-1.462-5.118c-0.193-0.84-0.358-1.687-0.507-2.535
				c-0.074-0.427-0.139-0.856-0.203-1.285c-0.104-0.714,0.061,0.487-0.031-0.229c-0.037-0.29-0.07-0.579-0.102-0.868
				c-0.311-2.813-0.283-5.629-0.283-8.452c0-3.794,0-7.589,0-11.383c0-10.003,0-20.008,0-30.01c0-3.543,0-7.085,0-10.627
				C127.822,122.022,123.071,122.022,123.071,125.086z"/>
		</g>
	</g>
	<path fill="#EAD2C3" d="M127.908,125.334v17.008c-1.026-19.648,14.508-22.535,13.135-21.479c-4.117,3.167-4.909,4.355-4.909,4.355
		c18.142,2.533,48.18-5.68,48.18-5.68c-0.675,5.482-4.949,6.434-4.949,6.434c10.978-1.166,27.527-0.438,37.007-10.256
		c3.223-3.338,4.223,24.985,4.223,24.985l0.016-31.098c0,0-17.703,13.619-33.644,12.88c0,0-0.739-0.766-0.159-1.874
		c0.581-1.108,2.402-4.963,2.402-4.963s-33.639,8.733-44.429,5.53c-3.086-0.915-1.283-3.472-1.283-3.472
		S130.886,119.502,127.908,125.334z"/>
	<path fill="#EAD2C3" d="M117.182,149.288c0,0-0.822,2.896,0.803,4.329c5.119,4.514,4.957,11.111,4.957,11.111v-11.759l-1.662-1.86
		L117.182,149.288z"/>
	<g>
		<path fill="#525865" d="M126.541,158.874c0.145-1.626-0.186-3.387-0.75-4.905c-1.252-3.373-4.023-5.633-7.491-6.491
			c-1.487-0.369-2.118,1.923-0.632,2.29c2.837,0.702,5.047,2.517,5.968,5.21c0.476,1.391,0.66,2.424,0.532,3.896
			C124.033,160.401,126.41,160.387,126.541,158.874L126.541,158.874z"/>
	</g>
	<g>
		<path fill="#F48674" d="M138.174,134.071c0.192-0.109,0.39-0.209,0.587-0.309c0.247-0.123,0.495-0.242,0.746-0.357
			c0.157-0.074,0.315-0.146,0.474-0.216c0.168-0.074,0.842-0.357,0.086-0.041c1.966-0.823,4.01-1.46,6.092-1.91
			c0.583-0.125,1.172-0.229,1.76-0.321c0.136-0.021,0.271-0.04,0.405-0.058c-0.579,0.081,0.11-0.008,0.191-0.018
			c0.348-0.04,0.698-0.068,1.048-0.093c1.46-0.108,2.928-0.079,4.383,0.076c0.285,0.035,0.299,0.035,0.043,0
			c0.227,0.032,0.452,0.071,0.678,0.109c0.379,0.064,0.756,0.145,1.131,0.23c0.769,0.177,1.523,0.409,2.266,0.675
			c0.15,0.056,0.302,0.112,0.452,0.171c0.735,0.284-0.396-0.184,0.331,0.142c0.38,0.167,0.751,0.356,1.118,0.55
			c0.763,0.401,1.491,0.871,2.194,1.369c1.059,0.75,2.638,0.19,3.25-0.854c0.699-1.189,0.201-2.502-0.853-3.249
			c-5.586-3.962-12.497-4.678-19.085-3.429c-3.315,0.63-6.742,1.767-9.695,3.429c-1.127,0.634-1.499,2.146-0.853,3.249
			C135.586,134.348,137.045,134.706,138.174,134.071L138.174,134.071z"/>
	</g>
	<g>
		<path fill="#F48674" d="M207.98,129.968c-2.906-1.636-6.25-2.73-9.503-3.39c-6.618-1.343-13.663-0.593-19.278,3.39
			c-1.053,0.747-1.549,2.06-0.852,3.249c0.61,1.044,2.191,1.604,3.25,0.854c0.637-0.451,1.292-0.868,1.973-1.248
			c0.364-0.204,0.738-0.388,1.115-0.568c0.148-0.069,0.298-0.138,0.449-0.203c-0.392,0.174,0.339-0.131,0.332-0.129
			c0.738-0.283,1.499-0.509,2.265-0.703c0.376-0.094,0.753-0.171,1.133-0.244c0.149-0.028,0.301-0.056,0.452-0.079
			c0.044-0.008,0.79-0.112,0.269-0.045c1.387-0.176,2.788-0.199,4.181-0.13c0.354,0.018,0.707,0.046,1.059,0.078
			c0.141,0.013,0.278,0.026,0.418,0.042c0.08,0.009,0.77,0.096,0.19,0.018c0.661,0.089,1.319,0.206,1.974,0.34
			c2.109,0.427,4.175,1.083,6.164,1.9c0.231,0.097,0.158,0.063-0.221-0.095c0.106,0.045,0.214,0.093,0.322,0.14
			c0.163,0.071,0.325,0.145,0.487,0.219c0.261,0.119,0.517,0.242,0.773,0.369c0.219,0.107,0.437,0.219,0.65,0.339
			c1.128,0.635,2.588,0.277,3.249-0.854C209.479,132.115,209.105,130.602,207.98,129.968L207.98,129.968z"/>
	</g>
	<ellipse fill="#525865" cx="150.166" cy="148.477" rx="4.899" ry="8.035"/>
	<ellipse fill="#525865" cx="193.589" cy="148.477" rx="4.9" ry="8.035"/>
	<g>
		<path fill="#525865" d="M166.569,172.73c0.988,2.484,3.696,3.869,6.214,4.22c2.239,0.313,4.444,0.016,6.295-1.356
			c0.923-0.682,1.797-1.563,2.346-2.581c0.727-1.348-1.322-2.547-2.051-1.198c-0.368,0.683-0.702,1.027-1.353,1.604
			c-1.324,1.179-2.986,1.386-4.689,1.225c-1.361-0.129-2.758-0.703-3.69-1.58c-0.161-0.151-0.308-0.316-0.449-0.486
			c-0.21-0.249,0.136,0.188-0.04-0.054c-0.062-0.083-0.117-0.17-0.172-0.257c-0.094-0.147-0.35-0.746-0.12-0.168
			c-0.239-0.602-0.784-1.017-1.461-0.83C166.826,171.426,166.33,172.127,166.569,172.73L166.569,172.73z"/>
	</g>
	<g>
		<path fill="#009DB9" d="M155.654,269.717c0.701-0.021,1.409,0.026,2.107,0.086c0.336,0.028,0.67,0.063,1.005,0.105
			c0.105,0.013,0.441,0.062-0.055-0.008c0.094,0.013,0.188,0.027,0.282,0.042c0.231,0.034,0.462,0.071,0.691,0.112
			c0.913,0.159,1.815,0.374,2.703,0.637c0.464,0.138,0.923,0.293,1.377,0.46c0.233,0.087,0.465,0.181,0.693,0.274
			c-0.364-0.15,0.028,0.015,0.087,0.04c0.154,0.069,0.308,0.142,0.46,0.215c0.469,0.223,0.923,0.472,1.366,0.736
			c0.228,0.134,0.448,0.276,0.667,0.423c0.111,0.073,0.22,0.148,0.327,0.226c0.052,0.035,0.505,0.375,0.215,0.151
			c0.43,0.331,0.835,0.694,1.221,1.073c0.196,0.194,0.386,0.397,0.57,0.604c0.094,0.104,0.185,0.212,0.274,0.318
			c0.059,0.073,0.118,0.146,0.177,0.22c-0.102-0.134-0.099-0.128,0.013,0.019c0.35,0.468,0.658,0.966,0.94,1.477
			c0.387,0.703,0.471,0.918,0.716,1.609c0.705,1.997,0.858,3.805,0.789,5.923c-0.066,2.043,3.101,2.036,3.167,0
			c0.102-3.113-0.419-6.219-1.866-8.998c-1.16-2.228-2.977-4.048-5.055-5.429c-3.244-2.157-7.222-3.128-11.065-3.421
			c-0.601-0.046-1.206-0.081-1.808-0.061C153.617,266.612,153.61,269.779,155.654,269.717L155.654,269.717z"/>
	</g>
	<g>
		<path fill="#009DB9" d="M194.282,266.551c-2.45-0.077-5.005,0.354-7.352,1.02c-4.55,1.293-8.764,4.066-10.848,8.435
			c-1.256,2.634-1.69,5.555-1.595,8.454c0.065,2.036,3.233,2.043,3.166,0c-0.094-2.873,0.367-5.586,1.725-7.919
			c0.636-1.09,1.074-1.612,2.051-2.533c0.196-0.188,0.402-0.364,0.612-0.537c0.103-0.088,0.207-0.171,0.313-0.253
			c-0.284,0.224,0.068-0.046,0.106-0.074c0.461-0.335,0.945-0.64,1.439-0.923c0.447-0.256,0.907-0.485,1.376-0.7
			c0.114-0.054,0.229-0.104,0.346-0.155c-0.362,0.158,0.025-0.01,0.085-0.032c0.268-0.108,0.537-0.208,0.809-0.306
			c0.914-0.325,1.853-0.58,2.799-0.787c0.409-0.09,0.822-0.166,1.237-0.236c0.192-0.031,0.386-0.061,0.578-0.089
			c0.345-0.051-0.39,0.05-0.051,0.007c0.119-0.017,0.237-0.03,0.354-0.044c0.605-0.071,1.214-0.118,1.822-0.145
			c0.341-0.016,0.685-0.026,1.026-0.016C196.325,269.779,196.318,266.612,194.282,266.551L194.282,266.551z"/>
	</g>
	<g>
		<path fill="#525865" d="M156.663,195.137c3.032,2.141,6.69,3.624,10.23,4.647c7.47,2.162,15.438,1.645,22.351-2.025
			c1.419-0.752,2.756-1.648,4.027-2.622c0.686-0.523,1.047-1.353,0.569-2.167c-0.395-0.676-1.479-1.094-2.166-0.568
			c-3.457,2.646-7.343,4.469-11.641,5.217c-3.398,0.592-6.93,0.358-10.262-0.37c-2.785-0.607-5.379-1.554-7.727-2.693
			c-1.269-0.614-2.52-1.296-3.688-2.087c-0.033-0.021-0.065-0.044-0.097-0.066c-0.705-0.498-1.758-0.129-2.167,0.568
			C155.631,193.763,155.959,194.641,156.663,195.137L156.663,195.137z"/>
	</g>
	<path fill="#EAD2C3" d="M165.414,230.46c0,0,8.756,1.496,17.512,0v4.321c0,0-2.905,1.375-8.438,1.375
		c-5.391,0-9.074-1.375-9.074-1.375V230.46z"/>
	<path fill="#EAD2C3" d="M216.371,114.133v68.204c0,0-2.586,37.582-43.562,44.338c0,0,12.487,0.38,24.618-6.323
		c10.906-6.028,22.508-19.592,23.023-38.015V118.15L216.371,114.133z"/>
</g>
</svg>
