<?xml version="1.0" encoding="utf-8"?>
<!-- Generator: Adobe Illustrator 16.0.0, SVG Export Plug-In . SVG Version: 6.00 Build 0)  -->
<!DOCTYPE svg PUBLIC "-//W3C//DTD SVG 1.1//EN" "http://www.w3.org/Graphics/SVG/1.1/DTD/svg11.dtd">
<svg version="1.1" id="Layer_1" xmlns="http://www.w3.org/2000/svg" xmlns:xlink="http://www.w3.org/1999/xlink" x="0px" y="0px"
	 width="350px" height="350px" viewBox="0 0 350 350" enable-background="new 0 0 350 350" xml:space="preserve">
<g>
	<g>
		<path fill="#FFFB8C" d="M135.655,178.172c-6.711,0-12.17-5.46-12.17-12.171c0-6.71,5.459-12.17,12.17-12.17
			s12.17,5.459,12.17,12.17C147.825,172.712,142.366,178.172,135.655,178.172z"/>
		<path fill="#443633" d="M135.655,156.331c5.341,0,9.67,4.33,9.67,9.67c0,5.341-4.329,9.67-9.67,9.67s-9.671-4.33-9.671-9.67
			C125.984,160.661,130.314,156.331,135.655,156.331 M135.655,151.331c-8.09,0-14.671,6.581-14.671,14.67
			c0,8.089,6.581,14.671,14.671,14.671c8.089,0,14.67-6.582,14.67-14.671C150.325,157.912,143.744,151.331,135.655,151.331
			L135.655,151.331z"/>
	</g>
	<g>
		<path fill="#FFFB8C" d="M135.655,197.512c-6.711,0-12.17-5.46-12.17-12.17c0-6.711,5.459-12.17,12.17-12.17
			s12.17,5.459,12.17,12.17C147.825,192.052,142.366,197.512,135.655,197.512z"/>
		<path fill="#443633" d="M135.655,175.671c5.341,0,9.67,4.329,9.67,9.67c0,5.34-4.329,9.67-9.67,9.67s-9.671-4.33-9.671-9.67
			C125.984,180,130.314,175.671,135.655,175.671 M135.655,170.671c-8.09,0-14.671,6.581-14.671,14.67
			c0,8.088,6.581,14.67,14.671,14.67c8.089,0,14.67-6.582,14.67-14.67C150.325,177.252,143.744,170.671,135.655,170.671
			L135.655,170.671z"/>
	</g>
	<g>
		<path fill="#FFFB8C" d="M135.655,216.852c-6.711,0-12.17-5.459-12.17-12.17s5.459-12.17,12.17-12.17s12.17,5.459,12.17,12.17
			S142.366,216.852,135.655,216.852z"/>
		<path fill="#443633" d="M135.655,195.012c5.341,0,9.67,4.329,9.67,9.67c0,5.34-4.329,9.67-9.67,9.67s-9.671-4.33-9.671-9.67
			C125.984,199.341,130.314,195.012,135.655,195.012 M135.655,190.012c-8.09,0-14.671,6.58-14.671,14.67
			c0,8.089,6.581,14.67,14.671,14.67c8.089,0,14.67-6.581,14.67-14.67C150.325,196.592,143.744,190.012,135.655,190.012
			L135.655,190.012z"/>
	</g>
	<g>
		<g>
			<path fill="#FFFB8C" d="M154.207,173.667c-14.681,0-26.624-11.943-26.624-26.624v-32.3c0-1.381,1.119-2.5,2.5-2.5h88.459
				c1.381,0,2.5,1.119,2.5,2.5v32.3c0,14.681-11.943,26.624-26.624,26.624H154.207z"/>
			<path fill="#443633" d="M218.542,114.742v32.3c0,13.323-10.801,24.124-24.124,24.124h-40.211
				c-13.324,0-24.125-10.801-24.125-24.124v-32.3H218.542 M218.542,109.742h-88.46c-2.761,0-5,2.239-5,5v32.3
				c0,16.059,13.065,29.124,29.125,29.124h40.211c16.059,0,29.124-13.064,29.124-29.124v-32.3
				C223.542,111.981,221.304,109.742,218.542,109.742L218.542,109.742z"/>
		</g>
	</g>
	<g>
		<path fill="#EAEEF7" d="M174.313,299.381c-11.698,0-23.231-0.542-33.353-1.566c-4.567-0.461-8.938-1.037-12.988-1.711
			c-0.031-0.002-0.383-0.061-0.383-0.061c-17.731-3.028-26.317-7.586-26.317-13.945v-17.75c0-40.269,32.766-73.029,73.04-73.029
			c19.5,0,37.842,7.596,51.647,21.391c13.795,13.785,21.393,32.123,21.393,51.639v17.75c0,6.359-8.586,10.918-26.249,13.935
			c0,0-0.42,0.069-0.531,0.083c-3.972,0.662-8.341,1.238-12.908,1.699C197.543,298.839,186.01,299.381,174.313,299.381z"/>
		<path fill="#443633" d="M174.312,193.818c19.479,0,37.11,7.899,49.88,20.66c12.771,12.76,20.66,30.399,20.66,49.869v17.75
			c0,5.189-9.771,9.01-24.17,11.471c-0.141,0.02-0.29,0.049-0.44,0.069c-3.97,0.66-8.279,1.229-12.829,1.69
			c-10.23,1.035-21.665,1.553-33.101,1.553c-11.435,0-22.87-0.518-33.1-1.553c-4.55-0.461-8.86-1.03-12.83-1.69
			c-0.15-0.021-0.301-0.05-0.44-0.069c-14.4-2.461-24.17-6.281-24.17-11.471v-17.75
			C103.771,225.398,135.352,193.818,174.312,193.818 M174.312,188.818c-41.653,0-75.54,33.882-75.54,75.529v17.75
			c0,7.887,9.002,13.098,28.328,16.398c0.045,0.008,0.091,0.016,0.137,0.021l0.064,0.012c0.105,0.018,0.213,0.035,0.32,0.051
			c4.09,0.678,8.493,1.258,13.088,1.723c10.202,1.031,21.822,1.578,33.603,1.578s23.4-0.547,33.604-1.578
			c4.594-0.465,8.997-1.045,13.087-1.723c0.107-0.016,0.214-0.033,0.319-0.051l0.076-0.014c0.046-0.006,0.08-0.012,0.126-0.02
			c19.326-3.301,28.328-8.512,28.328-16.398v-17.75c0-20.184-7.857-39.15-22.126-53.406
			C213.448,196.675,194.479,188.818,174.312,188.818L174.312,188.818z"/>
	</g>
	<g>
		<path fill="#EAEEF7" d="M174.3,207.496c-4.763,0-9.11-0.528-12.241-1.488c-3.928-1.215-5.917-3.126-5.917-5.68v-28
			c0-1.381,1.119-2.5,2.5-2.5h31.34c1.381,0,2.5,1.119,2.5,2.5v28c0,2.56-1.987,4.467-5.906,5.67
			C183.441,206.964,179.081,207.496,174.3,207.496z"/>
		<path fill="#443633" d="M189.981,172.328v28c0,1.42-1.63,2.51-4.14,3.279c-3.004,0.927-7.274,1.389-11.543,1.389
			c-4.257,0-8.512-0.459-11.508-1.379c-2.52-0.779-4.149-1.869-4.149-3.289v-28H189.981 M189.981,167.328h-31.34
			c-2.762,0-5,2.239-5,5v28c0,2.596,1.331,6.104,7.672,8.066c3.373,1.034,7.98,1.602,12.985,1.602c5.025,0,9.647-0.572,13.016-1.61
			c6.67-2.046,7.667-5.927,7.667-8.058v-28C194.981,169.566,192.743,167.328,189.981,167.328L189.981,167.328z"/>
	</g>
	
		<line fill="none" stroke="#443633" stroke-width="5" stroke-linecap="round" stroke-linejoin="round" stroke-miterlimit="10" x1="174.313" y1="188.664" x2="174.313" y2="296.883"/>
	
		<line fill="none" stroke="#443633" stroke-width="2" stroke-linecap="round" stroke-linejoin="round" stroke-miterlimit="10" x1="174.393" y1="66.998" x2="174.393" y2="51.331"/>
	<g>
		<path fill="#18CFFB" d="M189.981,185.338v14.99c0,1.42-1.63,2.51-4.14,3.279v-18.27H189.981z"/>
		<path fill="#18CFFB" d="M162.791,185.338v18.279c-2.52-0.779-4.149-1.869-4.149-3.289v-14.99H162.791z"/>
	</g>
	<g>
		<g>
			<path fill="#FFECE8" d="M214.426,149.672c-5.907,0-10.714-4.806-10.714-10.714s4.807-10.714,10.714-10.714
				s10.714,4.807,10.714,10.714S220.333,149.672,214.426,149.672z"/>
			<path fill="#443633" d="M214.426,130.745c4.537,0,8.214,3.677,8.214,8.214c0,4.536-3.677,8.214-8.214,8.214
				c-4.536,0-8.214-3.678-8.214-8.214C206.212,134.422,209.89,130.745,214.426,130.745 M214.426,125.745
				c-7.286,0-13.214,5.927-13.214,13.214c0,7.286,5.928,13.214,13.214,13.214s13.214-5.928,13.214-13.214
				C227.64,131.672,221.712,125.745,214.426,125.745L214.426,125.745z"/>
		</g>
		<g>
			<path fill="#FFECE8" d="M134.199,149.672c-5.907,0-10.714-4.806-10.714-10.714s4.807-10.714,10.714-10.714
				s10.714,4.807,10.714,10.714S140.106,149.672,134.199,149.672z"/>
			<path fill="#443633" d="M134.199,130.745c4.536,0,8.214,3.677,8.214,8.214c0,4.536-3.678,8.214-8.214,8.214
				c-4.537,0-8.215-3.678-8.215-8.214C125.984,134.422,129.662,130.745,134.199,130.745 M134.199,125.745
				c-7.287,0-13.215,5.927-13.215,13.214c0,7.286,5.928,13.214,13.215,13.214c7.286,0,13.214-5.928,13.214-13.214
				C147.413,131.672,141.485,125.745,134.199,125.745L134.199,125.745z"/>
		</g>
	</g>
	<g>
		<path fill="#FFECE8" d="M156.817,186.709c-6.351,0-12.462-2.68-16.767-7.35c-4.304-4.671-6.476-10.98-5.958-17.311l2.988-36.53
			c1.573-19.24,17.928-34.311,37.231-34.311s35.658,15.071,37.231,34.311l2.988,36.53c0.518,6.33-1.654,12.64-5.958,17.311
			c-4.305,4.67-10.416,7.35-16.767,7.35H156.817z"/>
		<path fill="#443633" d="M174.313,93.708c18.148,0,33.261,13.926,34.74,32.014l2.988,36.53
			c0.967,11.825-8.369,21.957-20.233,21.957h-34.99c-11.864,0-21.2-10.132-20.233-21.957l2.988-36.53
			C141.052,107.634,156.164,93.708,174.313,93.708 M174.313,88.708c-10.037,0-19.629,3.746-27.01,10.547
			c-7.381,6.802-11.896,16.057-12.714,26.06l-2.988,36.529c-0.574,7.024,1.835,14.025,6.611,19.208
			c4.776,5.184,11.558,8.156,18.605,8.156h34.99c7.048,0,13.829-2.973,18.605-8.156c4.776-5.183,7.186-12.184,6.611-19.208
			l-2.988-36.529c-0.818-10.003-5.334-19.258-12.714-26.06C193.941,92.454,184.349,88.708,174.313,88.708L174.313,88.708z"/>
	</g>
	<g>
		<g>
			<path fill="#EAEEF7" d="M131.181,117.242c-0.749,0-1.459-0.336-1.934-0.916c-0.476-0.58-0.665-1.342-0.518-2.077l6.389-31.819
				c2.994-17.927,19.518-30.997,39.274-30.997c19.756,0,36.279,13.07,39.288,31.077l6.374,31.739
				c0.147,0.735-0.042,1.497-0.518,2.077c-0.475,0.58-1.185,0.916-1.934,0.916H131.181z"/>
			<path fill="#443633" d="M174.393,53.934c18.395,0,34.036,12.313,36.822,28.989l6.389,31.819h-86.423l6.389-31.819
				C140.355,66.248,155.997,53.934,174.393,53.934L174.393,53.934 M174.393,48.934c-10.014,0-19.73,3.308-27.358,9.313
				c-7.707,6.068-12.813,14.506-14.382,23.769l-6.374,31.743c-0.295,1.469,0.085,2.993,1.034,4.153
				c0.95,1.159,2.369,1.831,3.868,1.831h86.423c1.499,0,2.918-0.672,3.868-1.831c0.949-1.16,1.329-2.684,1.034-4.153l-6.373-31.743
				c-1.57-9.262-6.676-17.701-14.383-23.769C194.122,52.242,184.406,48.934,174.393,48.934L174.393,48.934z"/>
		</g>
	</g>
	<g>
		<path fill="#EAEEF7" d="M216.458,121.568c-0.511,0-1.028-0.035-1.537-0.103c-13.389-1.792-27.052-2.701-40.608-2.701
			s-27.22,0.909-40.609,2.701c-0.509,0.068-1.026,0.103-1.537,0.103c-5.39,0-9.98-3.665-11.165-8.914l-0.04-0.177
			c-0.706-3.128-0.058-6.431,1.777-9.061c1.844-2.641,4.734-4.395,7.933-4.813c14.394-1.884,29.076-2.839,43.642-2.839
			c14.564,0,29.248,0.956,43.641,2.839c3.198,0.418,6.09,2.173,7.934,4.813c1.835,2.63,2.483,5.932,1.777,9.061l-0.034,0.152
			C226.439,117.903,221.849,121.568,216.458,121.568z"/>
		<path fill="#443633" d="M174.313,98.265c14.481,0,28.964,0.939,43.316,2.818c5.232,0.685,8.758,5.698,7.597,10.845
			c-0.014,0.059-0.027,0.118-0.04,0.177c-0.932,4.128-4.6,6.964-8.727,6.964c-0.398,0-0.801-0.026-1.206-0.081
			c-13.562-1.815-27.251-2.723-40.94-2.723s-27.379,0.908-40.941,2.723c-0.404,0.054-0.807,0.081-1.205,0.081
			c-4.127,0-7.795-2.835-8.727-6.964c-0.014-0.059-0.026-0.118-0.04-0.177c-1.161-5.146,2.364-10.16,7.596-10.845
			C145.349,99.204,159.83,98.265,174.313,98.265 M174.313,93.265c-14.673,0-29.466,0.962-43.966,2.86
			c-3.894,0.51-7.414,2.646-9.658,5.862c-2.237,3.205-3.026,7.229-2.166,11.042l0.039,0.177c1.444,6.396,7.038,10.863,13.604,10.863
			c0.621,0,1.25-0.042,1.869-0.125c13.279-1.777,26.83-2.679,40.277-2.679c13.446,0,26.998,0.901,40.277,2.679
			c0.619,0.083,1.247,0.125,1.869,0.125c6.566,0,12.16-4.467,13.604-10.863l0.04-0.175c0.86-3.814,0.07-7.838-2.166-11.043
			c-2.244-3.216-5.765-5.353-9.658-5.862C203.777,94.227,188.985,93.265,174.313,93.265L174.313,93.265z"/>
	</g>
	<g>
		<path fill="none" stroke="#DDC6B8" stroke-width="2" stroke-linecap="round" stroke-linejoin="round" stroke-miterlimit="10" d="
			M172.331,135.216c-0.749,5.541-2.384,10.5-5.194,14.685c-1.083,1.613-0.516,3.802,1.242,4.629l4.761,2.241
			c0.794,0.373,1.712,0.373,2.505,0l4.762-2.241c1.757-0.827,2.324-3.017,1.241-4.629c-2.811-4.185-4.444-9.145-5.194-14.685"/>
		<g>
			<g>
				
					<line fill="none" stroke="#443633" stroke-width="5" stroke-linecap="round" stroke-linejoin="round" stroke-miterlimit="10" x1="186.559" y1="129.777" x2="198.893" y2="129.777"/>
				<circle fill="#443633" cx="192.726" cy="138.664" r="3.447"/>
			</g>
			<g>
				
					<line fill="none" stroke="#443633" stroke-width="5" stroke-linecap="round" stroke-linejoin="round" stroke-miterlimit="10" x1="149.893" y1="129.777" x2="162.226" y2="129.777"/>
				<circle fill="#443633" cx="156.059" cy="138.664" r="3.447"/>
			</g>
		</g>
	</g>
	<g>
		<g>
			<path fill="none" stroke="#443633" stroke-width="2" stroke-linecap="round" stroke-linejoin="round" stroke-miterlimit="10" d="
				M213.334,105.546c0.907,4.814,1.214,9.832,0.903,14.781"/>
			<path fill="none" stroke="#443633" stroke-width="2" stroke-linecap="round" stroke-linejoin="round" stroke-miterlimit="10" d="
				M201.318,104.665c0.279,4.319,0.558,8.639,0.836,12.958"/>
			<path fill="none" stroke="#443633" stroke-width="2" stroke-linecap="round" stroke-linejoin="round" stroke-miterlimit="10" d="
				M187.27,105.119c0.411,3.697,0.516,7.455,0.313,11.183"/>
		</g>
		<g>
			<path fill="none" stroke="#443633" stroke-width="2" stroke-linecap="round" stroke-linejoin="round" stroke-miterlimit="10" d="
				M135.291,105.546c-0.907,4.814-1.214,9.832-0.904,14.781"/>
			<path fill="none" stroke="#443633" stroke-width="2" stroke-linecap="round" stroke-linejoin="round" stroke-miterlimit="10" d="
				M147.306,104.665c-0.278,4.319-0.557,8.639-0.836,12.958"/>
			<path fill="none" stroke="#443633" stroke-width="2" stroke-linecap="round" stroke-linejoin="round" stroke-miterlimit="10" d="
				M161.354,105.119c-0.41,3.697-0.516,7.455-0.313,11.183"/>
		</g>
	</g>
	
		<line fill="none" stroke="#443633" stroke-width="2" stroke-linecap="round" stroke-linejoin="round" stroke-miterlimit="10" x1="174.313" y1="105.998" x2="174.313" y2="116.748"/>
	<g>
		<path fill="none" stroke="#443633" stroke-width="2" stroke-linecap="round" stroke-linejoin="round" stroke-miterlimit="10" d="
			M178.415,52.226c3.503,3.969,5.901,8.903,6.856,14.11"/>
		<path fill="none" stroke="#443633" stroke-width="2" stroke-linecap="round" stroke-linejoin="round" stroke-miterlimit="10" d="
			M170.369,52.226c-3.503,3.969-5.9,8.903-6.856,14.11"/>
	</g>
	<g>
		<path fill="#18CFFB" d="M244.852,266.607v15.49c0,5.24-9.97,9.09-24.61,11.54v-18.95
			C220.241,274.688,236.592,272.787,244.852,266.607z"/>
		<path fill="#18CFFB" d="M128.382,274.688v18.95c-14.641-2.45-24.61-6.3-24.61-11.54v-15.49
			C112.031,272.787,128.382,274.688,128.382,274.688z"/>
	</g>
	<g>
		<path fill="#18CFFB" d="M220.682,256.328v37.24c-0.141,0.02-0.29,0.049-0.44,0.069c-3.97,0.66-8.279,1.229-12.829,1.69v-43.66
			L220.682,256.328z"/>
		<path fill="#18CFFB" d="M141.212,251.668v43.66c-4.55-0.461-8.86-1.03-12.83-1.69c-0.15-0.021-0.3-0.05-0.44-0.069v-37.24
			L141.212,251.668z"/>
	</g>
	<path fill="#E0E0E0" d="M103.772,271.15V282.1c0,19.711,141.08,19.711,141.08,0V271.15
		C244.853,290.861,103.772,290.861,103.772,271.15z"/>
	<g>
		<g>
			<path fill="none" stroke="#443633" stroke-width="2" stroke-linecap="round" stroke-linejoin="round" stroke-miterlimit="10" d="
				M214.801,265.252c0,7.703-6.245,13.949-13.948,13.949c-7.704,0-13.949-6.246-13.949-13.949"/>
			<path fill="none" stroke="#443633" stroke-width="2" stroke-linecap="round" stroke-linejoin="round" stroke-miterlimit="10" d="
				M161.881,265.252c0,7.703-6.245,13.949-13.949,13.949c-7.703,0-13.948-6.246-13.948-13.949"/>
		</g>
		<g>
			
				<line fill="none" stroke="#443633" stroke-width="5" stroke-linecap="round" stroke-linejoin="round" stroke-miterlimit="10" x1="220.891" y1="256.331" x2="220.891" y2="293.046"/>
			
				<line fill="none" stroke="#443633" stroke-width="5" stroke-linecap="round" stroke-linejoin="round" stroke-miterlimit="10" x1="127.894" y1="256.331" x2="127.894" y2="293.046"/>
		</g>
		<g>
			<path fill="none" stroke="#443633" stroke-width="5" stroke-linecap="round" stroke-linejoin="round" stroke-miterlimit="10" d="
				M214.721,253.998c0,0,8.672,0.666,12.341,6.79"/>
			<path fill="none" stroke="#443633" stroke-width="5" stroke-linecap="round" stroke-linejoin="round" stroke-miterlimit="10" d="
				M134.064,253.998c0,0-8.672,0.666-12.342,6.79"/>
		</g>
		<g>
			<g>
				<path fill="#FF5252" d="M177.48,162.714c-1.431-0.688-3.088,0.353-3.088,1.94c0-1.587-1.658-2.628-3.088-1.94l-4.354,2.096
					h7.442h7.441L177.48,162.714z"/>
				<ellipse fill="#FF5252" cx="174.392" cy="172.008" rx="4.333" ry="3.917"/>
			</g>
			
				<path fill="#FFFFFF" stroke="#443633" stroke-width="2" stroke-linecap="round" stroke-linejoin="round" stroke-miterlimit="10" d="
				M174.393,173.675L174.393,173.675c-4.35,0-7.875-3.526-7.875-7.875v-0.125h15.75v0.125
				C182.268,170.149,178.741,173.675,174.393,173.675z"/>
		</g>
	</g>
</g>
</svg>
