<?xml version="1.0" encoding="utf-8"?>
<!-- Generator: Adobe Illustrator 16.0.0, SVG Export Plug-In . SVG Version: 6.00 Build 0)  -->
<!DOCTYPE svg PUBLIC "-//W3C//DTD SVG 1.1 Tiny//EN" "http://www.w3.org/Graphics/SVG/1.1/DTD/svg11-tiny.dtd">
<svg version="1.1" baseProfile="tiny" id="Layer_1" xmlns="http://www.w3.org/2000/svg" xmlns:xlink="http://www.w3.org/1999/xlink"
	 x="0px" y="0px" width="350px" height="350px" viewBox="0 0 350 350" overflow="scroll" xml:space="preserve">
<g>
	<path fill="#263A7E" d="M186.288,110.498c-2.279,1.347-4.559,2.508-6.839,3.395c0.029-2.338-1.211-4.088-4.049-3.271
		c-2.415,0.707-5.114,2.731-6.578,4.973c-2.991-0.287-6.009-1.28-9.085-3.228c-1.228-0.781-2.354,1.166-1.134,1.942
		c3.318,2.104,6.62,3.183,9.909,3.504c0.988,0.069,0.988,0.069,1.53,0.093c5.853,0.148,11.652-2.083,17.375-5.473
		C188.66,111.701,187.531,109.756,186.288,110.498z M177.17,114.671c-1.814,0.544-3.637,0.893-5.462,0.996
		c0.784-0.794,1.692-1.49,2.598-2.053c0.707-0.447,1.538-0.909,2.391-0.983c0.957-0.091,0.577,1.344,0.468,1.902
		C177.157,114.583,177.173,114.626,177.17,114.671z"/>
	<path fill="#263A7E" d="M168.94,106.276c1.817-1.737,4.651-3.092,6.466-0.6c0.851,1.153,2.8,0.032,1.943-1.137
		c-2.729-3.73-6.999-2.72-9.992,0.149C166.31,105.687,167.898,107.275,168.94,106.276z"/>
	<path fill="#263A7E" d="M161.119,93.174c-3.669,1.296-7.396,0.388-10.735-1.381c-1.28-0.68-2.412,1.256-1.132,1.937
		c3.842,2.043,8.244,3.098,12.462,1.612C163.069,94.861,162.487,92.69,161.119,93.174z"/>
	<path fill="#263A7E" d="M181.317,97.212c4.139,0.717,8.021-0.027,11.716-1.985c1.277-0.68,0.141-2.617-1.135-1.937
		c-3.132,1.655-6.474,2.364-9.986,1.753C180.496,94.799,179.894,96.965,181.317,97.212z"/>
	<path fill="#263A7E" d="M177.5,168.706h-0.747c-1.445,0-1.445,2.242,0,2.242h0.747C178.947,170.948,178.947,168.706,177.5,168.706z
		"/>
	<path fill="#263A7E" d="M186.104,172.821c-1.445,0-1.445,2.239,0,2.239C187.558,175.061,187.558,172.821,186.104,172.821z"/>
	<path fill="#263A7E" d="M197.371,169.493c0.356-0.269,0.768-0.46,1.126-0.744c1.13-0.898-0.47-2.479-1.588-1.583
		c-0.349,0.274-0.769,0.465-1.121,0.75C194.648,168.807,196.253,170.385,197.371,169.493z"/>
	<path fill="#263A7E" d="M184.608,165.337c-1.45,0-1.45,2.242,0,2.242C186.054,167.58,186.054,165.337,184.608,165.337z"/>
	<path fill="#263A7E" d="M169.646,167.58c-1.451,0-1.451,2.248,0,2.248C171.091,169.827,171.091,167.58,169.646,167.58z"/>
	<path fill="#263A7E" d="M233.214,224.324c-1.77-4.351-6.121-7.916-8.57-11.941c-3.422-5.703-6.435-11.686-9.781-17.478
		c2.845,0.045,4.888-1.14,6.277-3.021c0.056-0.056,0.117-0.093,0.165-0.165c1.339-2.021,3.166-4.284,3.541-6.779
		c0.088-0.146,0.151-0.313,0.165-0.518c0.956-15.326-1.677-30.105-7.014-44.445c0.114-1.578-0.21-3.369-1.137-5.414
		c-3.783-8.336-12.893-15.43-22.263-15.95c2.112-2.194,3.982-4.734,5.547-7.619c0.965-1.777,1.81-3.719,2.561-5.709
		c5.967,4.909,15.443-0.531,19.733-5.369c0.957-1.079-0.629-2.678-1.586-1.588c-0.021,0.021-0.048,0.048-0.066,0.074
		c-10.549-2.014-5.924-12.561-5.175-20.042c0.752-7.481-3.09-15.788-7.369-21.678c-9.963-13.719-26.165-15.499-41.579-12.122
		c-13.982,3.063-29.972,9.994-35.944,23.986c-2.34,5.489-1.807,10.932-1.158,16.652c0.656,5.786,2.213,17.905-7.133,15.456
		c-0.213-0.056-0.404-0.032-0.577,0.013c-0.893-0.497-2.041,0.869-1.257,1.862c5.247,6.716,13.679,8.379,21.745,7.109
		c1.031,2.054,2.354,4.038,4.102,5.935c1.647,1.783,3.568,3.289,5.635,4.601c-0.367-0.181-0.811-0.165-1.182,0.234
		c-6.937,7.263-18.225,11.562-22.334,21.301c-0.298,0.244-0.489,0.624-0.407,1.113c-0.518,1.469-0.736,2.882-0.736,4.163
		c0,0.924,0.109,1.796,0.327,2.611c0.083,15.804-4.242,35.447,9.033,47.035c-0.165,0.136-0.327,0.327-0.38,0.571
		c-1.525,5.93-4.11,13.249-9.25,16.974c-3.074,2.205-7.672,3.538-9.792,6.886c-4.219,6.583,2.936,10.254,8.323,11.396
		c1.823,0.383,3.645,0.681,5.332,1.496c1.36,0.68,2.476,4.407,3.374,5.768c2.229,3.509,7.534,4.027,11.235,3.535
		c0.871-0.108,4.189-1.849,4.843-1.112c1.496,1.711,3.807,2.664,5.847,3.506c0.6,0.219,1.198,0.409,1.769,0.574
		c-0.815,6.934-1.796,14.17-2.258,21.381c-0.218,0.082-0.462,0.218-0.598,0.515c-3.783,6.886-5.55,14.556-9.006,21.601
		c-0.842,1.74-1.549,3.51-1.714,5.253c-0.053,0.105-0.109,0.218-0.109,0.351c-0.624,9.359,5.17,14.255,14.064,10.095
		c11.618-5.388,17.709-15.642,21.249-27.448c0.053-0.191,0.053-0.382,0.026-0.518c0.951-3.863-0.026-7.346-4.626-9.439
		c0.136-8.569-0.951-17.765,0.952-23.75c4.162,0.191,7.374,2.503,11.917,3.592c1.331,0.298,2.773,0.245,4.216-0.053
		c-1.387,6.636-1.578,13.79-1.66,20.509v1.198c-2.231,1.578-3.427,3.618-3.862,5.874c-0.027,0-0.027,0-0.027,0.029
		c-2.885,6.395-4.843,12.105-0.845,18.471c3.374,5.358,9.769,9.819,15.78,11.589c8.241,2.394,16.729-1.334,14.989-9.793
		c0.026-0.056,0.026-0.108,0.026-0.164c0.218-3.045-1.033-5.712-2.477-8.323c-1.577-2.776-3.344-5.441-5.005-8.161
		c-1.413-2.314-1.713-4.979-3.129-7.264c-0.106-0.162-0.245-0.273-0.38-0.354c0.3-3.4,0.354-6.827,0.488-10.228
		c0.247-6.477,1.09-12.789-1.143-18.88c0.083,0.026,0.139,0.056,0.191,0.082c1.443,0.624,3.4,0.925,4.923,0.598
		c4.517-0.954,7.646-4.299,11.373-6.801C226.277,232.922,236.724,233.086,233.214,224.324z M213.412,192.595
		c-4.033-0.58-8.459-3.757-9.559-7.798c-0.261-0.942-0.114-1.931,0.311-2.803c1.57-3.235,4.352-1.195,6.439-0.433
		c1.251,0.454,4.952,0.698,5.8-0.749c0.313-0.534,0.135-1.193,0.119-1.767c-0.019-1.289,0.9-2.609,0.906-3.996
		c0-0.239-0.021-0.468-0.048-0.699c0.629,0.38,1.246,0.773,1.825,1.235c1.225,0.982,1.892,2.571,2.55,4.269
		c-0.074,0.142,0.194,1.757,0.197,1.956C222.117,187.275,220.497,193.625,213.412,192.595z M202.376,189.805
		c-6.66,3.124-13.399,6.078-20.682,7.367c-0.053,0.013-0.085,0.045-0.127,0.053c-5.705-3.703-16.96-3.663-21.421-5.905
		c0.106-1.868-0.194-3.688-1.145-5.215c-0.17-0.276-0.348-0.502-0.526-0.726c1.437,0.826,2.675,1.658,3.408,2.142
		c4.227,2.8,8.392,2.965,13.31,3.679c3.876,0.561,7.41,3.533,11.397,2.678c1.767-0.374,3.507-1.92,4.943-2.877
		c3.085-2.062,7.182-2.284,10.579-3.634c0.077-0.026,0.125-0.08,0.188-0.117c0.678,1.479,1.777,2.773,3.082,3.879
		c-6.905,3.527-12.933,8.819-20.43,11.078c-0.148-1.232-0.627-2.253-1.331-3.146c6.961-1.438,13.467-4.307,19.885-7.313
		C204.82,191.136,203.678,189.199,202.376,189.805z M182.672,202.524c-8.082-1.408-15.701-4.516-23.673-6.402
		c0.348-0.82,0.622-1.668,0.826-2.529C165.653,195.764,181.435,195.937,182.672,202.524z M143.904,188.88
		c2.611,0.463,4.678-0.382,6.99-1.577c7.672-4.055,7.728,4.431,5.252,9.465c-2.994,6.095-11.017,5.332-15.315,1.278
		c-0.056-0.027-0.082-0.054-0.109-0.08c-0.191-0.191-0.409-0.409-0.571-0.627c-1.198-1.251-1.889-2.38-2.106-4.094
		c-0.136-1.06-0.136-2.521,0-3.555c0.138-0.868,0.202-1.464,0.555-2.227c0.027-0.056,0.053-0.082,0.083-0.108
		c1.469-3.536,3.727-7.372,7.372-8.326c-0.3,2.912-2.394,5.526-2.938,8.462C143.033,188.035,143.277,188.742,143.904,188.88z
		 M148.083,186.144c-0.04-0.281-0.032-0.539,0.024-0.778c0.062-0.085,0.13-0.162,0.17-0.273c1.02-2.736,3.793-2.542,6.633-1.456
		C152.75,183.748,150.389,185.257,148.083,186.144z M151.648,180.714c0.008-0.106,0.024-0.215,0-0.335
		c-0.273-1.291,0.026-2.624,0.558-3.81c10.863,2.484,20.482,8.916,31.359,11.551c0.08,0.011,0.16,0.006,0.245,0.011
		c0.305,0.386,0.817,0.59,1.365,0.245c2.274-1.414,10.53-4.493,17.666-8.334c-1.089,1.442-1.53,3.177-1.182,5.146
		c-0.048,0.011-0.088,0.003-0.139,0.021c-3.076,1.209-6.339,1.697-9.409,2.922c-2.769,1.108-4.91,4.219-8.188,3.555
		c-3.433-0.686-6.438-2.404-9.99-2.922c-3.634-0.526-7.146-0.446-10.252-2.721C160.925,184.035,155.79,180.823,151.648,180.714z
		 M185.268,185.788c0.287-1.626,0.398-3.23,0.438-4.894c0.494-0.034,0.985-0.088,1.49-0.188c8.557-1.734,16.418-8.583,23.354-14.027
		C217.041,172.829,192.111,182.401,185.268,185.788z M211.329,178.987c-0.083,0.106-0.114,0.207-0.151,0.313
		c-0.476-0.125-0.94-0.273-1.376-0.468c-0.88-0.398-2.004-0.925-3.098-1.036c1.816-1.155,3.442-2.354,4.71-3.581
		c0.031,0.048,0.042,0.101,0.09,0.149C212.898,175.868,212.477,177.479,211.329,178.987z M187.595,178.27
		c-5.985,2.02-11.971-2.672-17.415-4.654c-5.355-1.945-11.638-3.116-17.536-3.369c3.247-1.052,6.604-1.626,10.029-2.237
		c4.965-0.882,9.699-2.625,14.611-3.751c10.204-2.33,21.548-0.239,31.845,0.686C202.467,170.077,195.564,175.571,187.595,178.27z
		 M173.69,177.468c3.254,1.466,6.378,3.065,9.779,3.416c-0.034,1.621-0.153,3.148-0.465,4.756
		c-6.577-1.754-12.699-4.719-18.944-7.412c-2.891-1.243-5.823-2.333-8.833-3.263c-2.474-0.754-5.808-0.303-6.44-2.587
		c0.09,0.027,0.17,0.069,0.279,0.069C157.208,172.248,166.249,174.115,173.69,177.468z M216.839,143.458
		c3.822,11.083,5.985,22.432,6.083,34.105c-1.365-2.88-3.177-5.951-6.375-5.951c-0.808,0-1.425,0.686-1.475,1.458
		c-0.043,0.662,0.063,1.315,0.111,1.979c0.088,1.216-0.688,2.248-0.831,3.435c-0.083,0.68-0.154,0.905-0.083,0.959
		c-0.196,0.042-0.401,0.045-0.603,0.063c1.365-2.21,1.299-4.718-0.579-6.737c-0.08-0.08-0.16-0.117-0.245-0.17
		c0.92-1.235,1.419-2.492,1.355-3.746c0.005-0.059,0.026-0.109,0.019-0.178c-0.128-1.195-0.295-2.375-0.843-3.44
		c-0.056-0.566-0.22-1.089-0.561-1.583c-0.039-0.083-0.087-0.151-0.141-0.221c-0.008-0.011-0.013-0.021-0.021-0.032
		c-0.003-0.002-0.009-0.005-0.014-0.008c-0.136-0.165-0.303-0.287-0.5-0.335c-0.956-0.539-2.488-0.454-3.405-0.417
		c-0.016,0-0.029,0.019-0.045,0.019c-0.481-0.042-0.965-0.093-1.445-0.138c-1.146-4.282-1.212-8.589-1.464-12.996
		c-0.014-0.26-0.069-0.515-0.088-0.776C210.309,148.309,214.774,146.622,216.839,143.458z M215.736,139.385
		c-0.114,0.22-0.154,0.497-0.04,0.81c0.019,0.027,0.024,0.059,0.029,0.083c-0.029,0.391-0.08,0.781-0.167,1.167
		c-0.97,4.091-6.254,4.925-10.117,5.125c-0.111-0.667-0.247-1.326-0.39-1.985c4.165-0.802,8.435-2.088,10.685-5.65
		C215.749,139.085,215.729,139.239,215.736,139.385z M212.689,131.774c0.879,1.19,1.673,2.529,2.244,3.951
		c-0.151,0.125-0.284,0.284-0.358,0.507c-1.416,4.322-6.025,5.43-10.047,6.185c-0.388-1.443-0.818-2.869-1.252-4.298
		c-1.886-6.195-4.561-12.125-8.482-17.257C201.954,121.405,208.489,126.131,212.689,131.774z M124.338,103.221
		c9.774,0.582,7.989-13.666,7.146-20.795c-2.269-19.144,14.361-29.462,30.562-34.35c8.573-2.585,17.773-4.173,26.596-2.072
		c9.534,2.271,17.058,9.341,21.386,17.917c4.261,8.442,2.866,15.865,1.742,24.701c-0.762,5.999,1.647,10.063,7.128,11.604
		c-4.022,3.448-10.692,6.896-14.795,3.339c-0.201-0.183-0.433-0.247-0.664-0.263c0.851-2.574,1.472-5.218,1.756-7.784
		c0.827-7.316-0.942-13.958-2.669-21.011c-0.242-0.994-1.377-0.978-1.91-0.396c-0.633,0.061-1.23,0.574-1.002,1.366
		c1.572,5.403-6.469,7.566-10.263,8.586c-5.215,1.408-9.858,1.387-15.114,0.035c-10.987-2.83-22.01-10.284-33.693-6.636
		c-0.008,0.005-0.016,0.008-0.019,0.013c-0.587-0.042-1.198,0.313-1.188,1.068c0.181,9.968-1.435,20.068,2.062,28.981
		C135.211,108.407,128.953,107.317,124.338,103.221z M148.027,113.983c-9.33-9.024-6.413-22.826-6.439-34.464
		c14.505-4.176,27.421,9.187,41.898,7.872c4.883-0.449,15.331-2.409,17.966-7.813c0.938,3.929,1.738,7.858,1.814,11.955
		c0.114,5.723-2.042,11.817-4.386,16.971c-4.67,10.281-12.988,15.849-24.255,15.807C165.04,124.272,154.939,120.675,148.027,113.983
		z M184.88,125.032c-3.674,3.847-8.857,5.345-14.617,5.169c-5.956-0.178-10.597-4.489-14.909-8.198
		c6.426,3.151,13.937,4.532,20.724,4.556C179.277,126.572,182.188,125.999,184.88,125.032z M153.316,120.93
		c-0.011,0.005-0.019,0.005-0.029,0.011c0.008-0.005,0.013-0.011,0.021-0.011C153.311,120.93,153.313,120.93,153.316,120.93z
		 M152.841,121.177c-0.021,0.019-0.048,0.029-0.069,0.045c-0.005-0.199-0.08-0.391-0.183-0.563c0.109,0.167,0.181,0.354,0.183,0.553
		C152.79,121.195,152.819,121.193,152.841,121.177z M152.299,120.361c-0.04-0.037-0.072-0.08-0.117-0.111
		c0.013,0.01,0.026,0.021,0.04,0.026C152.251,120.3,152.27,120.335,152.299,120.361z M153.151,123.374
		c0.029-0.112,0.029-0.191,0.029-0.3c5.768,4.87,10.881,9.194,18.769,9.412c7.184,0.234,13.759-3.371,17.25-9.519
		c0.983-0.598,1.924-1.259,2.824-1.987c4.739,5.682,7.483,12.436,9.619,19.483c0.654,2.136,1.034,4.306,1.308,6.474
		c-0.511,0.502-0.441,1.472,0.212,1.812c0.457,4.535,0.644,9.091,1.722,13.543c-8.74-0.871-17.629-1.835-26.308-0.558
		c-5.617,0.829-10.933,3.039-16.504,4.109c-5.042,0.975-9.901,1.77-14.529,4.065c-0.51,0.063-1.015,0.401-1.095,1.039
		c-0.183,1.477,0,2.582,0.415,4.043c0.149,0.521,0.574,0.759,1.082,0.818c0.688,0.085,1.371,0.191,2.048,0.309
		c-0.603,1.557-0.86,3.188-0.504,4.856v0.011c-0.747,0.241-1.421,0.653-2.003,1.259c0.574-1.439,0.986-2.917,0.826-4.574
		c-0.056-0.542-0.462-1.196-1.116-1.113c-1.06,0.119-2.032,0.393-2.93,0.768c-2.237-6.551-2.473-13.344-1.586-20.164
		c0.38-0.383,0.436-0.954,0.218-1.387C144.637,144.563,149.289,133.411,153.151,123.374z M135.469,135.887
		c4.516-4.625,10.31-7.752,15.1-12.051c-3.076,7.97-6.503,16.62-8.597,25.408c-0.191-0.191-0.436-0.327-0.763-0.382
		c-4.107-0.38-9.657-1.767-10.772-6.31C131.798,139.914,133.947,137.464,135.469,135.887z M129.269,145.625
		c2.394,3.727,7.699,5.087,11.941,5.494c0.109,0.026,0.218-0.027,0.3-0.027c-0.3,1.387-0.571,2.773-0.789,4.163
		c-4.189,0-8.679-1.225-10.746-5.034c0-0.462,0.026-0.898,0-1.36c0-0.568-0.354-0.898-0.816-1.004
		C129.078,147.121,129.13,146.385,129.269,145.625z M135.634,188.986c-0.215,1.147-0.186,2.29,0.016,3.406
		c-8.61-10.175-6.206-25.812-5.73-38.906c2.341,2.505,6.121,3.945,10.475,4.027c-0.885,7.048-0.544,14.093,1.883,20.907
		C137.199,181.88,135.376,188.795,135.634,188.986z M130.411,214.45c4.306-3.664,6.666-10.996,8.06-16.341
		c4.333,5.148,12.388,7.752,17.374,2.821c0.778-0.771,1.49-1.732,2.117-2.784c0.056,0.021,0.096,0.059,0.162,0.074
		c8.565,1.993,16.697,5.462,25.44,6.734c0.465,0.066,0.845-0.077,1.098-0.363c0.082,0,0.156,0.011,0.244-0.017
		c8.345-2.273,14.837-8.277,22.525-11.98c1.464,0.884,3.045,1.562,4.604,1.955c3.409,5.685,6.649,11.396,9.753,17.289
		c1.552,2.938,3.916,5.55,6.012,8.243c-0.327-0.247-0.763-0.327-1.198-0.056c-2.338,1.334-4.869,1.387-7.425,1.878
		c-2.341,0.434-4.517,2.123-6.475,3.345c-5.196,3.238-11.67,5.579-17.847,5.715c-5.223,0.108-9.33-2.45-14.5-0.816
		c-2.42,0.76-4.623,1.958-7.072,2.665c-1.551,0.436-3.129,0.624-4.734,0.624c-5.712,0.218-4.407-1.849-7.128-4.378
		c-7.154-6.665-15.042,4.081-22.387-2.367c-4.569-4.024-7.345-8.785-13.357-9.141C127.717,216.246,129.566,215.13,130.411,214.45z
		 M160.279,246.632c3.81,0.436,7.537-0.598,11.344-1.767c0.709-0.218,1.389-0.382,2.04-0.462c-2.882,9.304-0.026,19.723-1.44,29.244
		c-0.165,0.079-0.327,0.188-0.462,0.351c-2.721,3.564-7.672,4.843-11.862,3.564c-1.089-0.326-1.661-1.033-1.958-1.904
		C158.43,266.001,159.164,256.235,160.279,246.632z M159.302,279.712c3.998,1.631,8.785,0.301,12.132-2.34
		c-0.436,1.524-1.033,3.047-1.852,4.516c-1.958,3.592-8.759,8.405-10.99,2.556c-0.651-1.711-0.789-3.618-0.76-5.521
		C158.239,279.221,158.73,279.494,159.302,279.712z M162.946,300.224c-3.021,2.285-6.583,4.107-10.366,4.543
		c-3.074,0.326-4.623-1.251-5.385-3.4c4.543,3.536,12.106-0.271,15.996-3.156c2.231-1.657,5.93-4.952,9.303-8.814
		C170.127,293.476,167.08,297.121,162.946,300.224z M175.023,270.462c9.304,5.44-6.963,20.838-11.641,24.73
		c-3.892,3.262-12.053,8.703-16.243,2.747c-0.271-0.409-0.462-0.845-0.542-1.308c0-0.436,0.027-0.871,0.053-1.307
		c0-0.188-0.053-0.351-0.109-0.516c0.409-3.235,3.156-7.21,4.136-9.601c1.684-4.245,3.044-8.57,4.896-12.707
		c-0.056,0.736-0.056,1.442,0,2.123c-0.026,2.093,0,4.16,0.109,6.2c0.298,5.579,3.047,10.095,9.086,8.055
		C172.577,286.213,174.59,278.841,175.023,270.462z M201.032,302.971c-4.381-1.278-8.217-4.651-11.317-7.808
		c-4.407-4.461-4.434-9.248-2.855-14.227c1.822,7.861,9.412,16.322,15.07,18.687c2.938,1.228,9.112,1.879,12.46-0.351
		C213.247,303.978,206.525,304.575,201.032,302.971z M205.139,275.522c0.327,1.007,0.598,1.987,1.143,2.991
		c1.525,2.803,3.318,5.441,4.979,8.161c1.169,1.905,2.285,3.945,2.829,6.121c0.298,1.357,0.298,2.378,0.218,3.021
		c-0.924,3.674-7.97,2.585-10.393,2.066c-7.59-1.631-19.831-17.737-13.437-25.271c0,5.467,0.515,12.76,4.542,15.126
		C201.93,291.763,204.433,280.23,205.139,275.522z M194.42,274.489c-0.027-0.029-0.027-0.029-0.027-0.029
		c-1.577-1.36-2.311-3.618-1.687-5.629c0.056-2.014,0.139-4.025,0.247-5.903c0.215-5.141,0.462-10.528,1.631-15.56
		c0.027-0.111,0-0.191,0-0.301c1.661-0.624,3.236-1.521,4.461-2.476c1.469-1.172,2.284-2.229,3.4-2.585
		c3.7,8.215,1.604,19.805,0.98,28.673c-0.136,1.822-0.301,3.674-0.571,5.523C200.787,276.992,196.136,276.447,194.42,274.489z
		 M202.393,278.569c-0.437,1.905-1.034,3.781-1.958,5.468c-2.288,4.298-5.253,1.251-6.26-1.687
		c-0.624-1.958-1.007-4.028-1.222-6.147C195.155,278.27,199.371,279.059,202.393,278.569z M220.292,234.255
		c-6.12,3.563-9.412,9.139-17.167,4.569c-0.406-0.271-1.007-0.191-1.359,0.165c-3.372,3.618-6.854,6.2-11.915,6.774
		c-4.025,0.462-8.079-3.348-12.051-4.081c-3.239-0.573-6.966,1.087-9.958,1.984c-6.067,1.823-12.595,0.571-16.867-4.298
		c-0.327-0.38-0.951-0.436-1.36-0.191c-5.276,3.212-12.295,2.829-14.797-3.51c-0.462-1.142-0.954-2.502-2.014-3.209
		c-3.618-2.423-8.379-1.96-12.215-4.001c-4.705-2.502-1.849-5.873,2.041-8.785c0.191,0.136,0.409,0.218,0.707,0.191
		c9.142-1.06,10.584,8.161,17.792,10.908c3.539,1.36,6.665,0.491,10.092-0.869c7.401-2.938,9.412,5.085,15.642,5.63
		c5.143,0.436,9.413-1.36,14.094-3.239c4.979-1.984,11.317,1.255,16.702,0.763c4.489-0.406,9.168-2.176,13.192-4.106
		c3.076-1.496,5.659-3.78,8.924-4.896c2.776-0.951,5.332-0.601,7.943-2.094c0.571-0.329,0.653-0.897,0.491-1.359
		c1.305,1.684,2.446,3.4,3.209,5.275C233.594,231.264,223.393,232.459,220.292,234.255z"/>
	<path fill="#263A7E" d="M174.441,148.173c3.258-0.438,6.544-3.339,6.076-6.841c-0.46-3.478-3.865-4.426-6.875-4.014
		c-0.239-0.183-0.556-0.279-0.93-0.186c-3.023,0.747-5.377,3.315-5.016,6.559C168.082,147.19,171.272,148.606,174.441,148.173z"/>
	<path fill="#263A7E" d="M177.858,152.084c-2.296-1.432-5.553-0.779-6.937,1.557c-0.072,0.114-0.09,0.22-0.114,0.332
		c-0.188,0.037-0.385,0.111-0.55,0.282c-1.929,1.896-1.65,4.431,0.863,5.595c2.373,1.089,5.513,0.805,7.408-1.079
		C180.581,156.738,180.278,153.595,177.858,152.084z"/>
	<path fill="#263A7E" d="M153.184,71.438c14.938-1.35,26.542,15.626,41.72,7.699c1.192-0.622,0.321-2.274-0.866-2.051
		c-7.707,1.466-12.823-3.884-18.421-8.145c-4.646-3.539-9.758-5.149-15.395-6.44c-1.411-0.324-2.008,1.836-0.6,2.163
		c7.643,1.745,12.637,4.782,18.843,9.455c3,2.25,5.922,4.057,9.146,4.907c-11.62,1.004-22.238-10.929-34.427-9.834
		C151.757,69.323,151.746,71.565,153.184,71.438z"/>
</g>
</svg>
