<?xml version="1.0" encoding="utf-8"?>
<!-- Generator: Adobe Illustrator 16.0.0, SVG Export Plug-In . SVG Version: 6.00 Build 0)  -->
<!DOCTYPE svg PUBLIC "-//W3C//DTD SVG 1.1//EN" "http://www.w3.org/Graphics/SVG/1.1/DTD/svg11.dtd">
<svg version="1.1" id="Layer_1" xmlns="http://www.w3.org/2000/svg" xmlns:xlink="http://www.w3.org/1999/xlink" x="0px" y="0px"
	 width="350px" height="350px" viewBox="0 0 350 350" enable-background="new 0 0 350 350" xml:space="preserve">
<g>
	<path fill="#525865" d="M280.094,208.91c0,0-11.836-151.636-104.614-152.677v-0.006c-0.161,0-0.321,0.002-0.479,0.002
		c-0.16,0-0.32-0.002-0.482-0.002v0.006C81.743,57.274,69.906,208.91,69.906,208.91S116.043,242.416,175,235.887
		C233.957,242.416,280.094,208.91,280.094,208.91z"/>
	<g>
		<ellipse fill="#F5E3D5" cx="221.767" cy="151.76" rx="13.056" ry="18.569"/>
		<g>
			<path fill="#525865" d="M206.334,151.76c0.035,7.417,3.021,16.364,10.238,19.735c3.383,1.581,7,1.511,10.389,0
				c3.23-1.442,5.734-4.425,7.354-7.492c3.93-7.44,3.828-17.036,0-24.485c-1.6-3.11-4.148-5.994-7.354-7.492
				c-3.385-1.58-7.002-1.512-10.389,0c-3.232,1.442-5.734,4.425-7.354,7.492C207.238,143.268,206.354,147.542,206.334,151.76
				c-0.014,3.064,4.736,3.063,4.75,0c0.02-3.785,0.834-7.421,2.65-10.601c0.211-0.366,0.439-0.723,0.672-1.074
				c0.117-0.173,0.238-0.34,0.359-0.509c0.396-0.552-0.295,0.361,0.127-0.166c0.531-0.665,1.129-1.278,1.77-1.839
				c0.143-0.127,0.291-0.246,0.439-0.364c-0.449,0.359,0.045-0.024,0.119-0.078c0.303-0.213,0.619-0.405,0.938-0.59
				c0.316-0.18,0.645-0.337,0.977-0.484c-0.561,0.249-0.004,0.014,0.1-0.025c0.225-0.082,0.453-0.148,0.682-0.213
				c0.344-0.098,0.695-0.166,1.047-0.225c-0.643,0.105-0.043,0.014,0.08,0.002c0.18-0.015,0.361-0.021,0.541-0.025
				c0.361-0.011,0.725,0.011,1.082,0.042c0.613,0.053-0.525-0.089,0.08,0.012c0.234,0.039,0.467,0.093,0.697,0.148
				c0.346,0.086,0.688,0.199,1.021,0.32c0.574,0.209-0.461-0.213,0.098,0.037c0.166,0.073,0.326,0.156,0.488,0.238
				c0.326,0.167,0.643,0.357,0.951,0.555c0.156,0.101,0.307,0.208,0.459,0.316c0.211,0.158,0.201,0.146-0.029-0.03
				c0.098,0.077,0.197,0.158,0.293,0.24c0.602,0.499,1.148,1.063,1.658,1.654c0.133,0.152,0.258,0.31,0.383,0.468
				c-0.334-0.418,0.084,0.122,0.123,0.175c0.287,0.397,0.547,0.812,0.801,1.23c0.451,0.75,0.836,1.535,1.186,2.336
				c-0.199-0.45,0.084,0.239,0.096,0.271c0.082,0.212,0.158,0.429,0.234,0.645c0.18,0.513,0.332,1.035,0.477,1.56
				c0.254,0.932,0.438,1.88,0.582,2.834c-0.07-0.459,0.037,0.349,0.037,0.352c0.027,0.249,0.047,0.5,0.068,0.749
				c0.049,0.594,0.068,1.188,0.076,1.782c0.016,1.018-0.043,2.035-0.145,3.048c0,0.002-0.102,0.813-0.037,0.352
				c-0.035,0.242-0.076,0.484-0.119,0.726c-0.092,0.555-0.213,1.104-0.346,1.649c-0.217,0.904-0.502,1.792-0.828,2.664
				c-0.012,0.029-0.289,0.722-0.096,0.269c-0.088,0.205-0.182,0.407-0.275,0.609c-0.211,0.461-0.449,0.912-0.695,1.357
				c-0.207,0.37-0.434,0.729-0.664,1.085c-0.113,0.176-0.232,0.346-0.352,0.516c-0.039,0.053-0.451,0.598-0.123,0.175
				c-0.525,0.676-1.117,1.298-1.752,1.872c-0.143,0.127-0.289,0.25-0.436,0.372c-0.49,0.406,0.391-0.284-0.117,0.087
				c-0.299,0.22-0.611,0.419-0.93,0.606c-0.313,0.187-0.639,0.35-0.969,0.504c-0.555,0.26,0.473-0.182-0.098,0.036
				c-0.223,0.087-0.449,0.157-0.678,0.228c-0.342,0.104-0.691,0.178-1.041,0.243c-0.604,0.111,0.533-0.054-0.08,0.012
				c-0.178,0.019-0.357,0.027-0.537,0.036c-0.363,0.019-0.725,0.004-1.086-0.021c-0.121-0.009-0.727-0.093-0.08,0.001
				c-0.234-0.035-0.469-0.084-0.701-0.137c-0.348-0.076-0.689-0.185-1.027-0.301c-0.102-0.035-0.668-0.265-0.1-0.024
				c-0.168-0.071-0.33-0.15-0.492-0.229c-0.33-0.161-0.646-0.346-0.957-0.539c-0.156-0.096-0.311-0.202-0.465-0.306
				c-0.102-0.071-0.201-0.145-0.301-0.22c0.23,0.182,0.24,0.19,0.033,0.023c-0.605-0.488-1.158-1.043-1.674-1.625
				c-0.133-0.149-0.262-0.305-0.387-0.461c-0.43-0.52,0.277,0.381-0.127-0.166c-0.291-0.392-0.557-0.801-0.813-1.216
				c-0.498-0.804-0.918-1.651-1.295-2.519c0.197,0.451-0.086-0.239-0.098-0.269c-0.082-0.214-0.158-0.429-0.232-0.646
				c-0.182-0.513-0.334-1.036-0.479-1.561c-0.125-0.46-0.23-0.926-0.328-1.394c-0.051-0.237-0.094-0.475-0.135-0.714
				c-0.016-0.082-0.15-0.977-0.098-0.584c-0.143-1.088-0.199-2.187-0.205-3.283C211.07,148.699,206.32,148.697,206.334,151.76z"/>
		</g>
	</g>
	<path fill="#EAD2C3" d="M228.797,152.427c0,0,0.822,2.896-0.801,4.328c-5.121,4.512-4.959,11.11-4.959,11.11v-11.758l1.664-1.86
		L228.797,152.427z"/>
	<g>
		<path fill="#525865" d="M221.813,162.012c-0.131-1.482,0.07-2.493,0.531-3.896c0.885-2.694,3.158-4.515,5.967-5.21
			c1.486-0.367,0.855-2.658-0.633-2.29c-3.502,0.867-6.189,3.122-7.49,6.492c-0.58,1.501-0.893,3.289-0.752,4.904
			C219.568,163.527,221.945,163.54,221.813,162.012L221.813,162.012z"/>
	</g>
	<g>
		<path fill="#F1F2F2" d="M174.684,291.396c40.878,0,54.71-8.428,54.71-8.428s0.342-23.174-6.842-28.969
			c0,0-26.855-17.211-38.314-20.195h-9.42h-2.247h-10.58C150.531,236.789,123.676,254,123.676,254
			c-7.184,5.795-6.842,28.969-6.842,28.969s18.474,8.428,59.353,8.428H174.684z"/>
		<g>
			<path fill="#525865" d="M174.684,293.773c14.505-0.008,29.31-0.844,43.445-4.332c3.125-0.771,6.232-1.688,9.213-2.914
				c1.211-0.498,3.369-1.109,4.104-2.361c0.596-1.016,0.324-2.742,0.297-3.857c-0.057-2.279-0.189-4.555-0.395-6.826
				c-0.527-5.785-1.377-11.861-4.027-17.104c-0.865-1.715-2.092-3.49-3.736-4.539c-1.006-0.639-2.018-1.271-3.029-1.9
				c-4.514-2.799-9.08-5.52-13.705-8.133c-5.441-3.072-10.971-6.018-16.734-8.439c-1.129-0.475-2.275-0.918-3.436-1.311
				c-0.871-0.293-1.779-0.629-2.705-0.629c-2.191,0-4.383,0-6.574,0c-3.189,0-6.38,0-9.57,0c-1.932,0-3.861,0-5.791,0
				c-1.031,0-2.178,0.514-3.139,0.854c-1.336,0.473-2.644,1.02-3.946,1.576c-5.646,2.414-11.062,5.387-16.397,8.416
				c-4.501,2.555-8.941,5.217-13.337,7.949c-0.894,0.557-1.785,1.115-2.673,1.682c-1.813,1.156-3.077,3.24-3.966,5.146
				c-2.491,5.342-3.28,11.412-3.77,17.23c-0.243,2.883-0.394,5.793-0.352,8.688c0.01,0.771,0.43,1.709,1.176,2.049
				c4.745,2.162,9.993,3.391,15.062,4.486c14.9,3.221,30.274,4.262,45.49,4.27c0-1.584,0-3.168,0-4.752c-0.501,0-1.002,0-1.503,0
				C171.62,289.021,171.62,293.773,174.684,293.773c0.501,0,1.002,0,1.503,0c3.063,0,3.063-4.75,0-4.752
				c-8.931-0.004-17.864-0.398-26.746-1.34c-0.886-0.094-1.769-0.195-2.652-0.303c-0.427-0.051-0.854-0.104-1.281-0.156
				c-0.21-0.027-0.42-0.055-0.631-0.08c-0.1-0.014-0.985-0.131-0.401-0.053c-1.625-0.221-3.246-0.463-4.865-0.727
				c-2.759-0.447-5.507-0.969-8.237-1.566c-3.524-0.773-7.028-1.684-10.454-2.826c-0.86-0.287-1.717-0.592-2.562-0.924
				c-0.299-0.117-1.183-0.492-0.103-0.033c-0.074-0.031-0.148-0.064-0.222-0.096c0.392,0.682,0.784,1.365,1.177,2.051
				c-0.048-3.271,0.146-6.557,0.452-9.811c0.063-0.664,0.135-1.328,0.212-1.994c0.041-0.34,0.084-0.68,0.128-1.02
				c-0.087,0.67-0.01,0.072,0.009-0.053c0.03-0.23,0.064-0.461,0.1-0.689c0.214-1.439,0.478-2.871,0.799-4.293
				c0.308-1.367,0.683-2.723,1.141-4.047c0.104-0.303,0.216-0.604,0.331-0.9c0.056-0.146,0.116-0.293,0.175-0.438
				c-0.256,0.627-0.053,0.125,0.003,0c0.258-0.586,0.547-1.156,0.865-1.711c0.139-0.242,0.288-0.479,0.44-0.711
				c0.105-0.158,0.674-0.912,0.181-0.279c0.335-0.432,0.714-0.828,1.125-1.189c0.356-0.313-0.567,0.389-0.19,0.15
				c0.127-0.082,0.253-0.162,0.38-0.242c1.23-0.781,2.465-1.549,3.706-2.314c4.731-2.916,9.518-5.748,14.377-8.451
				c2.766-1.539,5.56-3.031,8.393-4.443c1.322-0.658,2.654-1.295,4-1.904c0.602-0.273,1.206-0.537,1.813-0.797
				c-0.661,0.281,0.288-0.117,0.45-0.184c0.327-0.133,0.656-0.26,0.985-0.387c1.048-0.404,2.111-0.771,3.193-1.074
				c0.616-0.174-0.748-0.008,0.004-0.008c0.369,0,0.736,0,1.104,0c2.399,0,4.798,0,7.196,0c3.242,0,6.486,0,9.726,0
				c1.078,0,2.154,0,3.232,0c0.221,0,0.443,0,0.666,0c-0.494,0-0.613-0.094-0.139,0.039c0.283,0.08,0.564,0.168,0.844,0.256
				c1.139,0.357,2.256,0.783,3.359,1.234c0.146,0.057,0.291,0.117,0.434,0.178c0.518,0.215-0.496-0.213,0.021,0.008
				c0.303,0.129,0.602,0.26,0.9,0.393c0.678,0.297,1.35,0.605,2.018,0.918c9.813,4.586,19.176,10.221,28.338,15.977
				c0.385,0.242,0.77,0.484,1.152,0.729c0.068,0.045,0.137,0.088,0.205,0.131c-0.26-0.166-0.535-0.43-0.189-0.127
				c0.219,0.193,0.42,0.402,0.617,0.615c0.129,0.141,0.688,0.855,0.205,0.223c0.164,0.215,0.316,0.439,0.467,0.664
				c0.34,0.521,0.635,1.068,0.912,1.625c0.133,0.271,0.258,0.547,0.381,0.824c0.221,0.5-0.209-0.508,0,0.004
				c0.059,0.146,0.115,0.293,0.172,0.439c0.254,0.658,0.475,1.328,0.68,2.004c0.418,1.365,0.744,2.758,1.025,4.158
				c0.137,0.688,0.26,1.377,0.373,2.068c0.057,0.344,0.111,0.691,0.162,1.035c0.023,0.174,0.049,0.346,0.072,0.518
				c0.018,0.113,0.033,0.229,0.049,0.344c-0.047-0.348-0.053-0.387-0.018-0.119c0.334,2.572,0.541,5.162,0.664,7.754
				c0.076,1.629,0.129,3.266,0.105,4.898c0.393-0.686,0.785-1.369,1.178-2.051c-0.223,0.133-0.457,0.252-0.688,0.367
				c-0.295,0.148-0.592,0.289-0.891,0.424c-0.189,0.086-0.375,0.168-0.566,0.25c-0.518,0.223,0.381-0.16,0.197-0.082
				c-0.135,0.055-0.27,0.111-0.404,0.166c-3.072,1.246-6.281,2.164-9.5,2.943c-2.406,0.584-4.834,1.072-7.271,1.498
				c-1.451,0.254-2.904,0.48-4.361,0.688c-0.191,0.029-0.385,0.055-0.58,0.082c-0.09,0.012-0.75,0.102-0.154,0.021
				c-0.402,0.053-0.803,0.105-1.205,0.156c-0.906,0.115-1.814,0.221-2.723,0.32c-8.418,0.93-16.898,1.266-25.365,1.27
				C171.62,289.023,171.62,293.773,174.684,293.773z"/>
		</g>
	</g>
	<g>
		<path fill="#F5E3D5" d="M161.942,227.02v13.377c0,6.172,5.002,11.174,11.172,11.174l0,0c6.171,0,11.173-5.002,11.173-11.174
			V227.02H161.942z"/>
		<g>
			<path fill="#525865" d="M159.566,227.02c0,3.941,0,7.881,0,11.82c0,2.484,0.206,4.84,1.222,7.154
				c1.577,3.584,4.774,6.248,8.486,7.4c3.802,1.176,8.167,0.457,11.435-1.783c3.434-2.355,5.459-6.008,5.9-10.113
				c0.176-1.625,0.053-3.318,0.053-4.949c0-2.471,0-4.939,0-7.41c0-0.705,0-1.412,0-2.119c0-1.297-1.08-2.375-2.375-2.375
				c-7.381,0-14.759,0-22.14,0c-0.068,0-0.137,0-0.205,0c-3.064,0-3.064,4.75,0,4.75c7.379,0,14.759,0,22.138,0
				c0.07,0,0.139,0,0.207,0c-0.791-0.793-1.584-1.584-2.375-2.375c0,3.941,0,7.881,0,11.82c0,0.516,0,1.031,0,1.547
				c0,0.299-0.014,0.596-0.035,0.895c-0.004,0.064-0.096,0.779-0.016,0.232c-0.031,0.213-0.076,0.424-0.119,0.635
				c-0.086,0.418-0.209,0.826-0.342,1.229c-0.066,0.201-0.145,0.396-0.223,0.592c0.195-0.49-0.156,0.299-0.199,0.383
				c-0.188,0.369-0.408,0.725-0.635,1.072c-0.115,0.172-0.238,0.34-0.363,0.506c0.314-0.422-0.109,0.113-0.15,0.16
				c-0.271,0.314-0.566,0.604-0.869,0.885c-0.15,0.141-0.311,0.273-0.471,0.406c0.4-0.332-0.271,0.191-0.35,0.246
				c-0.344,0.232-0.705,0.439-1.072,0.635c-0.184,0.098-0.373,0.186-0.564,0.273c0.482-0.223-0.15,0.055-0.211,0.078
				c-0.397,0.146-0.806,0.264-1.218,0.365c-0.209,0.051-0.419,0.09-0.63,0.129c-0.28,0.045-0.284,0.049-0.013,0.012
				c-0.143,0.016-0.289,0.029-0.434,0.041c-0.441,0.039-0.885,0.039-1.328,0.027c-0.219-0.008-0.438-0.027-0.657-0.045
				c-0.716-0.064,0.473,0.084-0.228-0.035c-0.424-0.07-0.838-0.176-1.248-0.295c-0.203-0.059-0.404-0.129-0.604-0.199
				c-0.131-0.047-0.262-0.1-0.392-0.152c0.245,0.105,0.241,0.1-0.009-0.014c-0.377-0.174-0.741-0.381-1.098-0.596
				c-0.178-0.109-0.349-0.225-0.52-0.344c-0.053-0.035-0.589-0.455-0.18-0.127c-0.324-0.26-0.624-0.543-0.916-0.836
				c-0.146-0.146-0.285-0.301-0.422-0.455c-0.092-0.104-0.18-0.207-0.268-0.316c0.156,0.213,0.154,0.209-0.008-0.01
				c-0.248-0.336-0.467-0.689-0.676-1.047c-0.105-0.18-0.199-0.365-0.293-0.551c-0.029-0.057-0.311-0.688-0.105-0.197
				c-0.163-0.391-0.292-0.793-0.41-1.197c-0.059-0.207-0.105-0.414-0.152-0.623c-0.021-0.094-0.162-0.975-0.094-0.434
				c-0.089-0.705-0.076-1.416-0.076-2.127c0-4.139,0-8.277,0-12.416c0-0.051,0-0.102,0-0.152
				C164.317,223.957,159.566,223.957,159.566,227.02z"/>
		</g>
	</g>
	<g>
		<ellipse fill="#F5E3D5" cx="123.158" cy="151.76" rx="13.057" ry="18.569"/>
		<g>
			<path fill="#525865" d="M133.839,151.76c-0.019,3.785-0.833,7.421-2.651,10.602c-0.209,0.367-0.438,0.723-0.672,1.073
				c-0.115,0.173-0.236,0.342-0.357,0.509c-0.397,0.552,0.295-0.36-0.126,0.166c-0.533,0.666-1.132,1.277-1.771,1.84
				c-0.144,0.126-0.291,0.245-0.439,0.365c0.448-0.359-0.046,0.023-0.122,0.077c-0.301,0.214-0.617,0.405-0.938,0.59
				c-0.314,0.181-0.642,0.337-0.973,0.484c0.559-0.249,0.002-0.013-0.101,0.024c-0.225,0.082-0.454,0.149-0.682,0.214
				c-0.345,0.098-0.695,0.166-1.048,0.224c0.642-0.106,0.044-0.013-0.081-0.001c-0.18,0.015-0.359,0.021-0.54,0.026
				c-0.362,0.01-0.724-0.012-1.084-0.042c-0.612-0.054,0.528,0.089-0.077-0.012c-0.234-0.039-0.466-0.093-0.697-0.149
				c-0.348-0.085-0.688-0.198-1.022-0.321c-0.575-0.208,0.462,0.214-0.098-0.036c-0.166-0.073-0.327-0.156-0.488-0.237
				c-0.328-0.168-0.641-0.358-0.95-0.558c-0.156-0.1-0.309-0.207-0.46-0.315c-0.213-0.156-0.202-0.146,0.03,0.032
				c-0.1-0.079-0.197-0.158-0.295-0.24c-0.601-0.499-1.146-1.064-1.657-1.655c-0.133-0.151-0.258-0.312-0.385-0.468
				c0.334,0.419-0.081-0.122-0.12-0.175c-0.286-0.397-0.548-0.812-0.801-1.231c-0.451-0.748-0.836-1.535-1.185-2.336
				c0.196,0.451-0.087-0.239-0.098-0.269c-0.083-0.214-0.158-0.429-0.233-0.646c-0.18-0.513-0.334-1.036-0.478-1.561
				c-0.254-0.93-0.438-1.879-0.581-2.833c0.07,0.459-0.037-0.35-0.038-0.352c-0.026-0.25-0.049-0.5-0.067-0.75
				c-0.05-0.593-0.069-1.188-0.077-1.782c-0.016-1.018,0.043-2.035,0.145-3.047c0.001-0.003,0.104-0.813,0.038-0.352
				c0.035-0.243,0.075-0.484,0.117-0.727c0.094-0.554,0.215-1.103,0.347-1.649c0.218-0.904,0.502-1.792,0.828-2.662
				c0.011-0.031,0.29-0.725,0.098-0.271c0.087-0.205,0.181-0.407,0.272-0.609c0.213-0.462,0.45-0.912,0.697-1.356
				c0.207-0.372,0.432-0.73,0.663-1.086c0.113-0.174,0.233-0.345,0.353-0.515c0.038-0.053,0.45-0.599,0.12-0.175
				c0.526-0.675,1.119-1.298,1.753-1.872c0.143-0.129,0.289-0.25,0.437-0.372c0.49-0.406-0.392,0.284,0.117-0.088
				c0.299-0.219,0.612-0.417,0.93-0.606c0.313-0.186,0.64-0.349,0.969-0.503c0.556-0.26-0.474,0.183,0.098-0.037
				c0.222-0.085,0.45-0.157,0.677-0.227c0.344-0.103,0.692-0.178,1.043-0.242c0.604-0.111-0.534,0.054,0.077-0.012
				c0.18-0.02,0.359-0.028,0.54-0.038c0.362-0.017,0.725-0.003,1.084,0.021c0.123,0.01,0.729,0.093,0.081-0.002
				c0.235,0.034,0.468,0.085,0.701,0.137c0.349,0.078,0.69,0.186,1.028,0.301c0.102,0.036,0.666,0.266,0.101,0.025
				c0.166,0.07,0.327,0.149,0.491,0.229c0.328,0.16,0.646,0.346,0.956,0.539c0.157,0.097,0.311,0.202,0.463,0.307
				c0.103,0.071,0.203,0.145,0.304,0.22c-0.23-0.182-0.243-0.189-0.034-0.023c0.607,0.488,1.157,1.043,1.674,1.625
				c0.133,0.149,0.261,0.306,0.389,0.46c0.428,0.521-0.278-0.381,0.126,0.166c0.29,0.393,0.556,0.801,0.812,1.217
				c0.497,0.804,0.918,1.652,1.294,2.518c-0.196-0.45,0.087,0.239,0.099,0.271c0.083,0.212,0.158,0.429,0.234,0.645
				c0.18,0.513,0.333,1.035,0.477,1.56c0.126,0.46,0.229,0.926,0.328,1.394c0.05,0.238,0.094,0.476,0.136,0.714
				c0.016,0.083,0.149,0.978,0.098,0.584C133.777,149.565,133.833,150.663,133.839,151.76c0.014,3.063,4.764,3.064,4.75,0
				c-0.035-7.417-3.021-16.363-10.237-19.734c-3.384-1.58-7.002-1.512-10.39,0c-3.23,1.442-5.733,4.425-7.354,7.492
				c-3.929,7.441-3.828,17.036,0,24.485c1.599,3.11,4.149,5.995,7.354,7.492c3.386,1.581,7.002,1.511,10.39,0
				c3.23-1.442,5.734-4.425,7.354-7.492c1.979-3.749,2.862-8.023,2.883-12.243C138.603,148.697,133.853,148.699,133.839,151.76z"/>
		</g>
	</g>
	<g>
		<path fill="#F5E3D5" d="M124.39,104.563v75.363c0,26.908,21.814,48.723,48.724,48.723l0,0c26.91,0,48.724-21.814,48.724-48.723
			v-75.363H124.39z"/>
		<g>
			<path fill="#525865" d="M122.014,104.563c0,4.809,0,9.618,0,14.427c0,10.01,0,20.021,0,30.028c0,8.587,0,17.172,0,25.758
				c0,1.687,0,3.376,0,5.064c0,6.363,1.163,12.734,3.495,18.66c5.354,13.598,16.341,24.297,30.016,29.408
				c13.914,5.199,29.879,3.76,42.778-3.514c12.545-7.074,21.721-19.553,24.754-33.625c1.396-6.48,1.158-13.057,1.158-19.636
				c0-9.366,0-18.731,0-28.098c0-9.532,0-19.062,0-28.595c0-3.292,0-6.584,0-9.878c0-1.295-1.082-2.375-2.377-2.375
				c-3.906,0-7.813,0-11.719,0c-9.086,0-18.172,0-27.256,0c-10.31,0-20.62,0-30.93,0c-7.584,0-15.166,0-22.749,0
				c-1.598,0-3.195,0-4.794,0c-3.063,0-3.063,4.75,0,4.75c3.906,0,7.814,0,11.721,0c9.084,0,18.17,0,27.254,0
				c10.312,0,20.622,0,30.93,0c7.584,0,15.166,0,22.75,0c1.598,0,3.195,0,4.793,0c-0.791-0.791-1.584-1.582-2.375-2.375
				c0,4.809,0,9.618,0,14.427c0,10.01,0,20.021,0,30.028c0,8.587,0,17.172,0,25.758c0,1.687,0,3.376,0,5.064
				c0,0.844-0.02,1.688-0.061,2.529c-0.041,0.879-0.113,1.758-0.201,2.633c-0.043,0.436-0.098,0.869-0.152,1.301
				c0.072-0.547-0.025,0.168-0.035,0.23c-0.041,0.285-0.088,0.57-0.135,0.855c-0.58,3.508-1.566,6.943-2.898,10.238
				c-0.023,0.057-0.291,0.701-0.084,0.211c-0.082,0.191-0.166,0.385-0.252,0.578c-0.168,0.383-0.344,0.764-0.523,1.145
				c-0.387,0.82-0.803,1.627-1.232,2.426c-0.828,1.525-1.746,3.004-2.73,4.434c-0.236,0.34-0.479,0.678-0.723,1.016
				c-0.121,0.168-0.246,0.334-0.371,0.5c-0.035,0.047-0.453,0.596-0.133,0.18c-0.549,0.711-1.123,1.402-1.711,2.084
				c-1.131,1.305-2.338,2.543-3.6,3.723c-0.607,0.566-1.23,1.113-1.865,1.646c-0.316,0.268-0.639,0.529-0.963,0.789
				c-0.162,0.131-0.326,0.258-0.488,0.385c0.41-0.32-0.273,0.203-0.346,0.258c-1.389,1.037-2.842,1.992-4.332,2.875
				c-1.5,0.889-3.053,1.688-4.639,2.408c-0.191,0.088-0.385,0.172-0.576,0.258c-0.055,0.023-0.697,0.295-0.207,0.09
				c-0.387,0.164-0.779,0.318-1.172,0.471c-0.855,0.332-1.721,0.635-2.592,0.918c-1.695,0.549-3.422,0.994-5.166,1.354
				c-0.848,0.176-1.699,0.322-2.553,0.449c-0.063,0.012-0.777,0.111-0.23,0.037c-0.217,0.029-0.434,0.055-0.65,0.08
				c-0.506,0.061-1.016,0.111-1.523,0.156c-1.841,0.16-3.694,0.205-5.541,0.16c-0.885-0.021-1.768-0.074-2.648-0.143
				c-0.438-0.033-0.873-0.078-1.309-0.125c-0.218-0.021-0.436-0.049-0.652-0.074c-0.144-0.018-0.288-0.035-0.432-0.055
				c0.272,0.037,0.268,0.035-0.016-0.004c-3.529-0.502-6.995-1.416-10.328-2.678c-0.395-0.15-0.785-0.307-1.175-0.467
				c-0.648-0.264,0.433,0.189-0.209-0.086c-0.193-0.084-0.386-0.17-0.577-0.254c-0.83-0.369-1.646-0.768-2.454-1.184
				c-1.546-0.795-3.045-1.682-4.496-2.637c-0.694-0.457-1.374-0.936-2.045-1.428c-0.168-0.123-0.333-0.248-0.499-0.373
				c-0.55-0.414,0.365,0.289-0.177-0.135c-0.382-0.299-0.757-0.604-1.13-0.912c-1.329-1.104-2.594-2.285-3.8-3.521
				c-1.206-1.238-2.339-2.545-3.408-3.902c-0.425-0.541,0.282,0.369-0.135-0.18c-0.125-0.164-0.248-0.33-0.372-0.498
				c-0.247-0.332-0.489-0.672-0.727-1.012c-0.519-0.738-1.011-1.494-1.487-2.26c-0.92-1.479-1.749-3.012-2.505-4.58
				c-0.183-0.377-0.356-0.76-0.528-1.143c-0.087-0.191-0.171-0.385-0.254-0.578c-0.279-0.639,0.18,0.438-0.089-0.207
				c-0.35-0.844-0.669-1.703-0.971-2.566c-0.585-1.676-1.066-3.389-1.464-5.119c-0.193-0.84-0.357-1.686-0.506-2.535
				c-0.074-0.428-0.14-0.855-0.202-1.283c-0.105-0.715,0.061,0.484-0.032-0.232c-0.038-0.287-0.069-0.578-0.102-0.867
				c-0.282-2.555-0.284-5.109-0.284-7.674c0-3.034,0-6.066,0-9.099c0-9.736,0-19.472,0-29.206c0-9.105,0-18.213,0-27.318
				c0-2.453,0-4.905,0-7.358C126.766,101.5,122.014,101.5,122.014,104.563z"/>
		</g>
	</g>
	<path fill="#EAD2C3" d="M220.605,108.958l-1.227,25.595c0,0,0.016-22.982-3.672-20.166c-6.131,4.684-16.109,11.063-27.09,12.227
		c0,0,3.24-3.285,3.916-8.768c0,0-30.18,8.768-48.324,6.234c0,0,2.445-0.634,6.562-3.8c1.374-1.058-20.374-0.185-24.077,15.912
		v-26.548C126.694,109.645,206.479,84.452,220.605,108.958z"/>
	<path fill="#EAD2C3" d="M116.127,152.427c0,0-0.823,2.896,0.802,4.328c5.12,4.512,4.957,11.11,4.957,11.11v-11.758l-1.662-1.86
		L116.127,152.427z"/>
	<g>
		<path fill="#525865" d="M125.487,162.012c0.143-1.625-0.188-3.387-0.75-4.904c-1.253-3.374-4.024-5.635-7.493-6.492
			c-1.486-0.368-2.116,1.923-0.631,2.29c2.837,0.702,5.046,2.518,5.968,5.21c0.475,1.39,0.66,2.423,0.531,3.896
			C122.978,163.54,125.355,163.527,125.487,162.012L125.487,162.012z"/>
	</g>
	<g>
		<path fill="#525865" d="M137.118,137.209c0.192-0.109,0.39-0.208,0.587-0.308c0.247-0.125,0.497-0.242,0.746-0.36
			c0.158-0.072,0.316-0.143,0.476-0.214c0.167-0.074,0.84-0.357,0.085-0.042c1.966-0.823,4.009-1.46,6.092-1.909
			c0.583-0.127,1.171-0.229,1.761-0.321c0.135-0.021,0.269-0.04,0.403-0.06c-0.578,0.083,0.112-0.007,0.191-0.016
			c0.35-0.04,0.699-0.068,1.049-0.095c1.46-0.107,2.929-0.076,4.383,0.078c0.284,0.034,0.299,0.034,0.043,0.001
			c0.227,0.03,0.451,0.069,0.677,0.108c0.379,0.063,0.757,0.146,1.132,0.23c0.769,0.177,1.523,0.409,2.266,0.675
			c0.151,0.055,0.301,0.111,0.451,0.17c0.736,0.284-0.396-0.183,0.332,0.142c0.379,0.169,0.75,0.357,1.117,0.55
			c0.765,0.402,1.491,0.87,2.195,1.37c1.058,0.75,2.639,0.19,3.249-0.853c0.698-1.191,0.201-2.503-0.852-3.25
			c-5.586-3.962-12.498-4.679-19.085-3.429c-3.316,0.63-6.742,1.767-9.695,3.429c-1.128,0.634-1.498,2.147-0.852,3.25
			C134.53,137.485,135.99,137.844,137.118,137.209L137.118,137.209z"/>
	</g>
	<g>
		<path fill="#525865" d="M206.924,133.107c-2.904-1.636-6.248-2.729-9.502-3.391c-6.619-1.343-13.664-0.593-19.277,3.391
			c-1.055,0.747-1.551,2.059-0.854,3.25c0.611,1.043,2.193,1.603,3.25,0.853c0.637-0.451,1.293-0.868,1.973-1.248
			c0.365-0.204,0.74-0.389,1.115-0.568c0.15-0.069,0.299-0.137,0.449-0.204c-0.391,0.176,0.34-0.129,0.334-0.127
			c0.738-0.284,1.498-0.511,2.264-0.704c0.375-0.095,0.754-0.172,1.133-0.244c0.15-0.028,0.301-0.055,0.451-0.08
			c0.045-0.008,0.791-0.11,0.27-0.044c1.385-0.177,2.787-0.199,4.182-0.13c0.354,0.018,0.705,0.047,1.059,0.077
			c0.139,0.013,0.277,0.028,0.416,0.043c0.08,0.009,0.771,0.095,0.191,0.016c0.66,0.09,1.32,0.208,1.973,0.341
			c2.111,0.429,4.176,1.084,6.166,1.901c0.23,0.097,0.156,0.064-0.223-0.095c0.107,0.045,0.215,0.092,0.324,0.14
			c0.162,0.071,0.324,0.144,0.486,0.219c0.26,0.118,0.518,0.243,0.773,0.369c0.219,0.107,0.436,0.218,0.65,0.339
			c1.127,0.635,2.588,0.275,3.25-0.853C208.424,135.254,208.051,133.741,206.924,133.107L206.924,133.107z"/>
	</g>
	<g>
		<path fill="#525865" d="M165.514,175.87c0.986,2.484,3.695,3.867,6.213,4.218c2.239,0.313,4.445,0.016,6.296-1.355
			c0.92-0.68,1.795-1.563,2.346-2.58c0.727-1.348-1.324-2.547-2.051-1.199c-0.369,0.682-0.703,1.025-1.354,1.603
			c-1.324,1.18-2.987,1.387-4.691,1.227c-1.359-0.131-2.756-0.705-3.688-1.582c-0.161-0.152-0.309-0.315-0.451-0.484
			c-0.209-0.249,0.136,0.188-0.041-0.054c-0.06-0.084-0.115-0.171-0.171-0.258c-0.093-0.148-0.35-0.746-0.118-0.169
			c-0.24-0.601-0.787-1.016-1.462-0.83C165.77,174.565,165.274,175.266,165.514,175.87L165.514,175.87z"/>
	</g>
	<g>
		<path fill="#D1D3D4" d="M154.598,272.854c0.702-0.021,1.409,0.027,2.107,0.086c0.336,0.029,0.672,0.066,1.006,0.107
			c0.104,0.014,0.441,0.061-0.056-0.008c0.096,0.012,0.189,0.025,0.284,0.039c0.229,0.035,0.46,0.074,0.69,0.115
			c0.912,0.16,1.814,0.373,2.703,0.637c0.464,0.137,0.923,0.291,1.376,0.459c0.234,0.088,0.465,0.18,0.695,0.275
			c-0.365-0.152,0.027,0.014,0.084,0.039c0.155,0.07,0.31,0.143,0.461,0.215c0.469,0.225,0.923,0.473,1.367,0.736
			c0.227,0.135,0.447,0.277,0.666,0.424c0.111,0.072,0.219,0.148,0.328,0.225c0.052,0.037,0.504,0.375,0.215,0.15
			c0.429,0.332,0.834,0.695,1.221,1.076c0.197,0.193,0.385,0.396,0.57,0.604c0.094,0.104,0.184,0.211,0.273,0.316
			c0.061,0.072,0.119,0.146,0.178,0.221c-0.104-0.135-0.099-0.129,0.011,0.018c0.351,0.467,0.659,0.965,0.941,1.477
			c0.388,0.703,0.472,0.918,0.716,1.609c0.705,1.998,0.859,3.805,0.789,5.924c-0.066,2.043,3.101,2.037,3.167,0
			c0.103-3.115-0.418-6.219-1.866-8.998c-1.161-2.229-2.975-4.049-5.055-5.43c-3.244-2.156-7.222-3.127-11.065-3.42
			c-0.6-0.049-1.205-0.08-1.808-0.063C152.561,269.75,152.555,272.918,154.598,272.854L154.598,272.854z"/>
	</g>
	<g>
		<path fill="#D1D3D4" d="M193.227,269.688c-2.451-0.076-5.004,0.355-7.352,1.021c-4.551,1.293-8.764,4.066-10.847,8.434
			c-1.257,2.633-1.691,5.557-1.596,8.455c0.066,2.037,3.234,2.043,3.166,0c-0.094-2.875,0.367-5.586,1.727-7.92
			c0.633-1.09,1.072-1.613,2.049-2.533c0.197-0.188,0.404-0.363,0.611-0.539c0.104-0.086,0.209-0.168,0.314-0.252
			c-0.283,0.225,0.068-0.045,0.105-0.074c0.461-0.336,0.945-0.637,1.441-0.922c0.445-0.256,0.908-0.486,1.373-0.699
			c0.115-0.055,0.232-0.105,0.348-0.154c-0.361,0.156,0.025-0.01,0.084-0.035c0.27-0.107,0.539-0.209,0.811-0.305
			c0.912-0.326,1.852-0.582,2.797-0.787c0.41-0.09,0.822-0.166,1.236-0.236c0.193-0.031,0.387-0.063,0.58-0.09
			c0.346-0.049-0.391,0.053-0.051,0.008c0.119-0.016,0.236-0.029,0.355-0.043c0.605-0.072,1.213-0.119,1.822-0.145
			c0.34-0.016,0.684-0.027,1.025-0.018C195.27,272.918,195.264,269.75,193.227,269.688L193.227,269.688z"/>
	</g>
	<g>
		<path fill="#525865" d="M155.608,198.275c3.031,2.141,6.69,3.623,10.229,4.646c7.471,2.164,15.438,1.645,22.352-2.023
			c1.416-0.754,2.754-1.65,4.027-2.623c0.686-0.525,1.045-1.354,0.568-2.168c-0.396-0.674-1.479-1.094-2.166-0.568
			c-3.457,2.645-7.344,4.469-11.641,5.217c-3.399,0.594-6.929,0.359-10.262-0.369c-2.784-0.609-5.38-1.557-7.728-2.693
			c-1.267-0.615-2.519-1.297-3.687-2.088c-0.033-0.021-0.064-0.043-0.096-0.066c-0.707-0.498-1.76-0.129-2.167,0.568
			C154.575,196.9,154.905,197.777,155.608,198.275L155.608,198.275z"/>
	</g>
	<path fill="#EAD2C3" d="M164.359,230.189c0,0,8.755,1.496,17.51,0v4.322c0,0-2.904,1.375-8.437,1.375
		c-5.391,0-9.073-1.375-9.073-1.375V230.189z"/>
	<path fill="#EAD2C3" d="M215.314,107.85v74.109c0,0-2.586,37.582-43.56,44.34c0,0,12.488,0.379,24.617-6.324
		c10.908-6.027,22.508-19.592,23.023-38.016v-71.576L215.314,107.85z"/>
	<path fill="#525865" d="M221.838,104.563l-2.443,30.595c0,0,0-28.1-3.688-25.282c-6.131,4.683-16.109,11.061-27.09,12.227
		c0,0,3.24-3.287,3.916-8.77c0,0-30.18,8.77-48.324,6.234c0,0,2.445-0.632,6.562-3.8c1.374-1.056-26.547,4.583-26.454,26.129V97.715
		C124.317,97.715,207.711,80.057,221.838,104.563z"/>
	<g>
		<path fill="#00A5DC" d="M187.133,236.459l-15.678,34.811c0,0,19.981-9.275,25.317-30.297L187.133,236.459z"/>
		<g>
			<path fill="#525865" d="M185.764,235.66c-3.023,6.711-6.045,13.422-9.066,20.135c-2.203,4.891-4.406,9.781-6.61,14.674
				c-0.664,1.477,0.677,2.859,2.167,2.166c2.205-1.023,4.285-2.395,6.261-3.797c4.76-3.375,8.977-7.43,12.457-12.115
				c3.395-4.574,5.906-9.813,7.324-15.33c0.166-0.641-0.084-1.488-0.729-1.789c-3.213-1.502-6.424-3.008-9.637-4.512
				C187.148,234.727,186.229,234.865,185.764,235.66c-0.406,0.693-0.215,1.799,0.568,2.166c3.213,1.504,6.426,3.008,9.641,4.514
				c-0.244-0.598-0.486-1.193-0.73-1.789c-1.727,6.73-5.188,12.846-9.805,17.971c-1.904,2.113-3.994,4.057-6.209,5.84
				c-0.586,0.471-0.643,0.514-1.197,0.932c-0.473,0.354-0.953,0.699-1.438,1.039c-0.802,0.563-1.62,1.1-2.451,1.617
				c-1.125,0.701-2.281,1.391-3.487,1.951c0.722,0.723,1.444,1.443,2.167,2.168c3.023-6.713,6.044-13.424,9.068-20.137
				c2.201-4.891,4.404-9.781,6.609-14.674c0.354-0.787,0.234-1.695-0.568-2.166C187.246,234.691,186.117,234.873,185.764,235.66z"/>
		</g>
	</g>
	<g>
		<polygon fill="#E06A4D" points="179.236,267.713 174.36,278.004 185.617,285.395 		"/>
		<g>
			<path fill="#525865" d="M177.869,266.912c-1.625,3.432-3.25,6.863-4.877,10.293c-0.384,0.813-0.2,1.662,0.568,2.168
				c3.752,2.463,7.504,4.926,11.258,7.391c1.123,0.736,2.797-0.488,2.326-1.789c-2.127-5.895-4.254-11.789-6.381-17.682
				c-0.293-0.813-1.066-1.35-1.949-1.107c-0.781,0.215-1.398,1.135-1.105,1.947c2.127,5.895,4.254,11.789,6.381,17.684
				c0.775-0.598,1.551-1.193,2.326-1.789c-3.752-2.463-7.504-4.926-11.257-7.391c0.189,0.723,0.379,1.445,0.568,2.168
				c1.626-3.432,3.251-6.861,4.876-10.293c0.371-0.779,0.223-1.703-0.568-2.166C179.34,265.938,178.238,266.135,177.869,266.912z"/>
		</g>
	</g>
	<g>
		<path fill="#00A5DC" d="M159.656,236.459l15.677,34.811c0,0-19.98-9.275-25.316-30.297L159.656,236.459z"/>
		<g>
			<path fill="#525865" d="M158.288,237.258c3.023,6.713,6.047,13.424,9.068,20.135c2.203,4.893,4.405,9.783,6.607,14.676
				c0.723-0.725,1.445-1.445,2.167-2.168c-2.205-1.025-4.283-2.396-6.261-3.797c-1.993-1.412-3.82-2.918-5.759-4.752
				c-2.22-2.104-4.269-4.416-6.029-6.875c-3.017-4.207-5.25-8.908-6.538-13.926c-0.243,0.596-0.485,1.191-0.728,1.789
				c3.213-1.506,6.426-3.01,9.64-4.514c0.78-0.367,0.974-1.473,0.566-2.166c-0.465-0.795-1.384-0.934-2.166-0.568
				c-3.213,1.504-6.426,3.01-9.639,4.512c-0.642,0.301-0.893,1.148-0.728,1.789c3.123,12.16,11.559,22.258,22.011,28.949
				c1.297,0.83,2.634,1.645,4.031,2.293c1.49,0.693,2.832-0.689,2.167-2.166c-3.022-6.711-6.045-13.424-9.068-20.135
				c-2.203-4.891-4.405-9.783-6.609-14.674c-0.354-0.787-1.48-0.969-2.166-0.568C158.054,235.563,157.934,236.471,158.288,237.258z"
				/>
		</g>
	</g>
	<g>
		<polygon fill="#E06A4D" points="168.322,267.713 173.199,278.004 161.942,285.395 		"/>
		<g>
			<path fill="#525865" d="M166.955,268.512c1.625,3.432,3.251,6.861,4.876,10.293c0.189-0.723,0.379-1.445,0.568-2.168
				c-3.752,2.465-7.505,4.928-11.258,7.391c0.777,0.596,1.552,1.191,2.327,1.789c2.126-5.895,4.253-11.789,6.38-17.684
				c0.295-0.813-0.322-1.732-1.105-1.947c-0.881-0.242-1.655,0.295-1.948,1.107c-2.127,5.893-4.254,11.787-6.379,17.682
				c-0.471,1.301,1.202,2.525,2.324,1.789c3.753-2.465,7.506-4.928,11.258-7.391c0.769-0.506,0.953-1.355,0.568-2.168
				c-1.626-3.43-3.251-6.861-4.877-10.293c-0.37-0.777-1.472-0.975-2.167-0.566C166.731,266.809,166.585,267.732,166.955,268.512z"
				/>
		</g>
	</g>
	<ellipse fill="#525865" cx="191.848" cy="148.987" rx="2.293" ry="3.76"/>
	<ellipse fill="#525865" cx="149.612" cy="148.987" rx="2.293" ry="3.76"/>
</g>
</svg>
