<?xml version="1.0" encoding="utf-8"?>
<!-- Generator: Adobe Illustrator 16.0.0, SVG Export Plug-In . SVG Version: 6.00 Build 0)  -->
<!DOCTYPE svg PUBLIC "-//W3C//DTD SVG 1.1//EN" "http://www.w3.org/Graphics/SVG/1.1/DTD/svg11.dtd">
<svg version="1.1" id="Layer_1" xmlns="http://www.w3.org/2000/svg" xmlns:xlink="http://www.w3.org/1999/xlink" x="0px" y="0px"
	 width="350px" height="350px" viewBox="0 0 350 350" enable-background="new 0 0 350 350" xml:space="preserve">
<g>
	<path fill="#F0857F" d="M186.076,79.199c0,0,16.253-11.042,7.803-25.354c-8.45-14.313-30.518-13.495-40.135-5.725
		c-9.617,7.77-15.915,29.852-7.041,43.755c8.874,13.904,23.597,26.488,34.442,28.829c10.846,2.341,25.537-2.451,31.682-12.062
		c6.146-9.611,2.033-17.419-0.594-20.446C205.134,80.017,196.13,78.381,186.076,79.199z"/>
	<g>
		<path fill="#3C3C3B" d="M261.057,182.47c-2.751-2.725-1.972-6.782-1.746-10.275c0.219-3.393,0.195-6.814-0.363-10.176
			c-0.94-5.659-3.572-11.128-8.257-14.611c-8.432-6.268-21.604-1.874-20.977,9.598c0.001,0.014,0.008,0.024,0.01,0.038
			c-1.03,0.804-1.923,1.75-2.541,2.682c-3.651-3.745-8.111-6.718-12.798-8.463c-5.244-1.953-10.981-2.86-16.664-2.74
			c0.127-1.688,0.104-3.427-0.489-4.991c0.104-0.03,0.207-0.079,0.297-0.17c2.765-2.829,3.632-6.811,1.937-10.466
			c-1.853-3.994-5.771-5.68-9.967-5.879c-4.698-0.223-9.416,0.899-12.987,4.08c-1.791,1.595-3.224,3.571-4.498,5.591
			c-1.896,3.008-3.135,6.569-7.407,6.19c-0.885-0.079-1.231,1.287-0.454,1.676c2.692,1.345,5.285-0.161,7.024-2.361
			c2.465-3.12,3.845-6.824,6.924-9.508c3.701-3.227,9.971-4.398,14.661-2.85c5.448,1.799,6.525,7.903,3.793,12.369
			c-1.04-1.543-2.865-2.716-4.774-2.516c-3.32,0.349-4.491,3.499-4.344,6.532c-0.273-0.21-0.593-0.359-0.972-0.409
			c-1.177-0.152-2.205,0.72-2.503,1.828c-0.042,0.154-0.063,0.303-0.078,0.451c-2.247-2.691-5.275-5.023-7.943-2.665
			c-1.406,1.245-1.748,3.518-1.261,5.555c-4.448-0.903-8.119-2.838-10.928-6.739c-0.329-0.456-1.25-0.197-0.997,0.42
			c2.05,4.996,7.359,8.953,12.937,8.621c0.404,0.583,0.899,1.073,1.482,1.403c-3.658,2.676-6.498,6.284-7.158,10.789
			c-0.737,0.521-1.332,1.231-1.616,2.109c-0.39,1.204-0.075,2.613,0.678,3.615c-0.546,1.195-0.946,2.467-1.192,3.79
			c-0.733-1.409-2.208-2.422-3.872-2.677c-0.154-0.024-0.307-0.031-0.459-0.042c3.222-8.925,2.779-18.691-0.855-27.462
			c-4.022-9.708-11.295-19.85-4.972-30.215c0.768,0.496,1.59,0.91,2.465,1.218c0.559,0.197,1.161-0.226,1.321-0.75
			c0.554-1.806,1.207-3.569,1.957-5.297c1.25,1.764,3.108,3.058,5.04,4.311c3.988,2.587,8.193,4.917,12.634,6.629
			c8.313,3.205,17.146,3.438,25.034-1.036c6.642-3.766,13.359-10.263,15.285-17.873c1.82-7.193-1.574-14.455-7.381-18.771
			c-6.513-4.843-14.813-4.985-22.273-2.656c3.554-6.183,4.858-13.701,2.532-20.552c-2.84-8.362-10.11-13.883-18.95-14.205
			c-9.115-0.332-19.716,3.919-25.448,11.149c-5.586,7.045-6.294,16.75-4.315,25.251c2.271,9.756,8.055,19.358,16.542,24.909
			c0.003,0.014,0.007,0.028,0.01,0.042c-1.248,0.385-2.473,0.831-3.671,1.357c-1.353,0.594-3.005,1.211-3.999,2.33
			c-0.463,0.521-0.186,1.282,0.397,1.444c0.589,0.705,1.25,1.339,1.969,1.896c-5.717,6.976-2.391,16.804,0.918,24.075
			c2.395,5.263,4.899,10.367,5.875,16.12c1.022,6.021,0.522,12.193-0.959,18.091c-1.316,0.126-2.516,0.749-3.293,1.753
			c-0.12-0.538-0.252-1.073-0.402-1.603c2.739-0.141,4.024-4.295,1.996-6.073c-0.239-0.209-0.505-0.362-0.785-0.475
			c-0.565-3.085-1.948-5.808-4.045-8.065c0.751-0.014,1.482,0.128,2.191,0.434c0.703,0.226,1.215-0.59,0.908-1.181
			c-4.19-8.04-13.325-12.201-22.128-11.188c0.308-1.16,0.675-2.293,1.112-3.426c0.268-0.694-0.56-1.53-1.256-1.256
			c-3.931,1.542-7.315,4.163-9.203,7.956c-7.752-2.685-16.436-1.387-23.334,2.923c-0.708,0.442-0.505,1.86,0.468,1.73
			c1.789-0.239,3.476-0.208,5.152,0.097c-12.186,4.39-24.659,14.41-20.711,28.838c0.182,0.665,1.016,0.69,1.376,0.18
			c0.689-0.976,1.381-1.95,2.072-2.925c-0.367,10.915,0.486,23.311,10.886,29.414c0.706,0.415,1.526-0.411,1.117-1.116
			c-0.766-1.316-1.214-2.57-1.409-4.076c3.177,3.412,8.463,4.745,12.966,4.689c0.693-0.01,1.151-0.934,0.593-1.433
			c-0.932-0.833-1.769-1.712-2.549-2.643c2.059,1.027,4.217,1.863,6.429,2.494c-1.206,1.565-1.651,3.729-2.049,5.756
			c-3.792,5.064-8.777,9.061-12.253,14.439c-3.14,4.859-6.395,11.313-6.724,17.276c-2.07-0.099-4.13,1.365-4.807,3.375
			c-0.841,2.498,0.85,4.917,3.245,5.647c2.367,0.724,4.933-0.438,5.604-2.891c0.295-1.075,0.176-2.271-0.287-3.28
			c-0.44-0.961-1.043-1.339-1.848-1.671c0.037-0.216-0.007-0.43-0.158-0.607c1.153-3.068,1.818-6.29,3.126-9.323
			c1.374-3.187,3.073-6.251,5.078-9.084c2.221-3.138,5.528-5.926,7.928-9.151c-0.734,2.942-1.499,5.877-2.327,8.795
			c-1.029,3.628-2.158,7.226-3.383,10.791c-1.3,3.782-3.532,7.832-4.128,11.771c-0.176,1.16,1.181,1.78,1.891,0.797
			c1.963-2.72,2.885-6.47,3.999-9.619c1.257-3.554,2.418-7.142,3.479-10.758c1.006-3.429,1.913-6.882,2.709-10.365
			c0.442-1.938,0.849-3.881,1.188-5.839c0.297-1.706,0.306-4.082,1.03-5.708c1.32,0.327,2.654,0.589,3.994,0.773
			c4.363,0.601,8.725,0.26,12.799-0.892c0.288,6.184,1.579,12.434,2.783,18.474c0.642,3.221,1.328,6.432,2.04,9.637
			c0.622,2.8,1.068,5.814,2.099,8.525c-0.149,0.01-0.302,0.039-0.458,0.104c-12.167,5.16-24.071,8.036-37.323,6.071
			c-0.873-0.13-1.216,1.019-0.368,1.333c1.053,0.392,2.123,0.715,3.204,0.987c-0.273,2.771-0.333,5.568-0.459,8.349
			c-0.089,1.953-0.994,5.492-0.056,7.353c0.487,0.967,1.149,1.042,2.113,1.249c2.544,0.548,5.593,0.341,8.206,0.476
			c-0.586,2.054-0.424,4.283-0.448,6.419c-0.032,2.827-0.005,5.656,0.017,8.484c0.023,2.835,0.066,5.672,0.019,8.508
			c-0.019,1.13-0.344,2.584-0.123,3.8c-1.9,0.645-3.543,2.02-4.544,3.764c-0.892,1.553-1.97,4.439-0.24,5.805
			c1.532,1.208,3.708,0.041,4.813-1.206c1.811-2.045,3.138-4.929,3.609-7.613c0.137-0.776-0.467-1.284-1.059-1.291
			c0.023-0.209-0.007-0.483-0.095-0.829c0.028-0.606,0.051-1.215,0.066-1.821c0.037-1.215,0.055-2.431,0.063-3.646
			c0.019-2.633-0.04-5.266-0.099-7.897c-0.083-3.764,0.471-8.651-0.772-12.381c2.085,0.206,4.458,0.594,6.372,0.263
			c1.166-0.201,1.632-0.6,1.924-1.775c0.595-2.399-0.038-5.614-0.133-8.062c-0.104-2.687-0.248-5.372-0.464-8.053
			c0.295-0.063,0.587-0.139,0.881-0.207c0.707,5.146,1.906,10.24,3.035,15.303c0.131,0.587,0.882,1.05,1.464,0.831
			c1.423-0.535,2.833-1.101,4.232-1.684c-0.195,1.23-0.238,2.5-0.334,3.748c-0.223,2.902-0.375,5.81-0.506,8.718
			c-0.24,5.287-1.163,11.232-0.287,16.454c0.049,0.288,0.228,0.473,0.45,0.579c-0.421,4.315,4.94,9.906,9.218,8.056
			c2.461-1.065,1.979-3.961,0.436-5.612c-1.729-1.85-5.594-4.029-8.216-3.183c1.09-4.943,0.579-10.624,0.761-15.671
			c0.098-2.697,0.198-5.397,0.255-8.096c0.04-1.865,0.245-3.871-0.019-5.754c3.081-1.34,6.112-2.787,9.084-4.373
			c0.436-0.232,0.763-0.91,0.568-1.396c-1.648-4.103-3.085-9.345-5.663-13.036c0.564-0.265,1.125-0.532,1.676-0.807
			c0.273-0.136,0.45-0.317,0.549-0.518c0.546-0.004,1.121-0.416,1.098-1.029c-0.109-2.94-1.099-5.871-1.755-8.733
			c-0.78-3.399-1.523-6.808-2.231-10.222c-0.709-3.421-1.335-6.898-2.05-10.353c6.498-1.812,11.667-6.901,15.127-12.527
			c2.676-4.351,4.863-9.891,5.706-15.37c0.065,0.244,0.145,0.485,0.214,0.729c-2.4,7.372-1.897,15.933,1.804,22.764
			c0.144,0.266,0.591,0.085,0.493-0.208c-2.328-6.94-3.007-13.554-1.674-20.569c1.446,4.235,3.552,8.253,6.199,11.839
			c3.106,4.208,8.372,10.529,14.209,10.225c-4.83,15.615-10.893,30.571-19.69,44.559c-0.353,0.561-0.126,1.38,0.446,1.7
			c5.128,2.867,10.312,5.741,15.648,8.261c0.231,7.069,1.111,14.122,1.455,21.19c0.163,3.35,0.255,6.698,0.358,10.051
			c-1.855-0.494-3.831-0.333-5.632,0.436c-1.733,0.739-4.221,2.438-4.098,4.593c0.117,2.04,2.282,3.096,4.123,2.72
			c2.354-0.481,4.971-2.405,6.881-4.137c0.152,0.069,0.318,0.13,0.511,0.174c0.513,0.121,0.952-0.09,1.246-0.506
			c0.092-0.132,0.186-0.265,0.277-0.396c0.486-0.691-0.313-1.502-1.028-1.338c1.048-0.241-0.278-15.02-0.392-16.655
			c-0.348-5.067-0.737-10.21-1.707-15.21c4.589,2.069,9.298,3.849,14.187,5.106c0.744,0.191,1.502,0.374,2.268,0.547
			c0.463,8.429,1.119,16.699,0.963,25.167c-0.015,0.787,0.557,1.167,1.146,1.158c-0.275,0.165-0.445,0.513-0.227,0.815
			c1.528,2.1,3.985,3.292,6.566,3.43c1.866,0.1,4.253-0.576,4.685-2.676c0.41-2.003-1.396-3.427-3.152-3.848
			c-2.078-0.497-4.854,0.081-6.664,1.395c0.024-0.085,0.042-0.176,0.051-0.274c0.697-8.096,0.369-16.907-1.782-24.83
			c8.217,1.643,17.315,1.764,23.9-3.937c0.286-0.248,0.399-0.534,0.393-0.812c0.402,0.079,0.827-0.429,0.61-0.868
			c-4.933-10.017-11.6-19.118-16.748-29.047c-3.846-7.419-7.105-15.106-9.431-23.1c4.565,2.819,8.477,6.427,11.65,10.845
			c3.644,5.071,5.559,10.825,8.397,16.264c-1.886,0.77-3.274,2.596-3.1,4.759c0.205,2.554,2.588,4.675,5.156,4.483
			c2.488-0.185,4.58-2.551,4.351-5.046c-0.188-2.043-2.168-3.993-4.251-4.052c-1.591-6.78-5.569-13.809-9.797-19.235
			c-3.441-4.419-7.821-8.176-13.035-10.273c-0.525-1.973-0.995-3.963-1.399-5.973c4.425,0.746,8.862,0.802,12.983-0.525
			c8.217,0.609,16.321-4.528,19.943-11.87c0.048-0.096,0.072-0.19,0.089-0.282c1.69-0.031,3.375-0.971,4.105-2.524
			c0.672-1.426,0.352-2.707-0.465-3.718c1.234-2.786,1.845-5.613,1.942-8.409c1.513,0.176,3.472-0.203,5.294-0.991
			c2.52,3.426,7.915,5.234,11.84,5.741c1.033,0.134,6.188,0.372,7.173-1.169C261.165,184.083,261.751,183.157,261.057,182.47z
			 M147.927,81.377c-2.545-10.942,0.16-22.525,10.242-28.571c9.193-5.513,22.799-7.673,30.373,1.622
			c6.858,8.418,4.85,19.122-0.71,27.443c-0.219,0.097-0.438,0.196-0.652,0.297c-0.645,0.303-0.754,0.891-0.551,1.395
			c-0.071,0.094-0.14,0.189-0.212,0.282c-0.817,1.06,0.965,2.42,1.854,1.431c0.405-0.45,0.794-0.917,1.171-1.394
			c8.388-3.542,18.827-3.761,25.518,3.256c7.153,7.503,4.613,17.129-1.998,23.981c-6.693,6.937-15.437,11-25.158,8.966
			c-4.799-1.004-9.305-3.065-13.583-5.411c-3.112-1.706-7.548-3.61-10.039-6.543c0.097-0.337,0.042-0.693-0.133-0.968
			c0.01-0.134-0.029-0.272-0.151-0.389C156.48,99.65,150.3,91.581,147.927,81.377z M156.747,111.573
			c0.782-0.386,1.539-0.865,2.318-1.215c0.721-0.323,1.455-0.609,2.2-0.869c-0.541,1.276-1.027,2.572-1.461,3.89
			C158.685,112.921,157.683,112.345,156.747,111.573z M101.903,250.092c-0.311,1.303-1.486,1.941-2.768,1.664
			c-1.238-0.268-2.346-1.349-2.048-2.691c0.342-1.539,1.893-2.321,3.35-2.106c0.265,0.038,0.523-0.037,0.74-0.177
			C101.88,247.616,102.116,249.194,101.903,250.092z M120.08,301.898c-0.364,0.629-2.053,3.634-3.062,3.016
			c-0.77-0.473,0.709-3.185,1.043-3.723c0.679-1.095,1.595-1.954,2.634-2.682c0.065,0.089,0.138,0.175,0.219,0.256
			c0.118,0.119,0.271,0.208,0.438,0.264C121.009,300.017,120.615,300.976,120.08,301.898z M126.799,267.895
			c-1.679,0.179-3.669-0.216-5.347-0.314c-1.783-0.104-3.564-0.212-5.347-0.312c-2.48-0.14-3.298-0.317-3.282-3.105
			c0.021-3.677,0.15-7.386-0.009-11.062c4.687,0.886,9.567,0.758,14.388-0.049c0.194,3.365,0.385,6.729,0.469,10.102
			c0.026,1.05,0.045,2.1,0.057,3.15c0.006,0.42,0.01,0.841,0.011,1.261C127.944,268.379,127.63,268.489,126.799,267.895z
			 M144.292,298.743c0.752,0.391,1.513,0.885,2.099,1.501c0.743,0.779,1.09,2.153-0.359,2.067c-2.435-0.145-4.831-2.365-5.686-4.765
			C141.632,297.997,143.03,298.09,144.292,298.743z M147.915,260.04c-4.034,2.094-8.15,3.992-12.362,5.699
			c-1.087-4.589-2.122-9.219-3.516-13.722c3.824-0.987,7.551-2.34,11.056-3.884C143.993,252.165,146.284,256.196,147.915,260.04z
			 M206.342,299.979c0.737-0.151,4.795-0.284,3.229,1.548c-0.705,0.826-3.206,0.287-4.022,0.078
			c-0.619-0.158-1.186-0.389-1.734-0.656C204.631,300.562,205.438,300.165,206.342,299.979z M220.742,245.716
			c1.269-0.018,2.708,0.344,2.957,1.839c0.229,1.379-1.128,2.712-2.469,2.688c-1.373-0.025-2.528-1.331-2.651-2.643
			c-0.101-1.078,0.392-2.038,1.146-2.736C219.781,245.324,220.113,245.725,220.742,245.716z M232.13,157.467
			c1.697-0.635,4.285-1.069,5.114,1.038c1.433,3.642-2.894,5.62-5.516,6.965c-1.089-1.728-2.344-3.366-3.735-4.89
			C229.08,159.204,230.462,158.091,232.13,157.467z M192.679,141.554c3.22,0.594,3.396,4.23,3.188,7.042
			c-2.162,0.132-4.31,0.412-6.409,0.844c-0.147-0.269-0.302-0.536-0.454-0.804C188.512,145.697,189.02,140.878,192.679,141.554z
			 M185.429,147.841c0.558-0.888,1.18-0.351,1.526,0.312c0.258,0.491,0.47,1.126,0.761,1.686c-0.688,0.174-1.386,0.372-2.089,0.601
			c-0.012-0.017-0.022-0.035-0.034-0.051C185.288,149.562,184.987,148.542,185.429,147.841z M176.907,152.008
			c-0.012-0.165-0.066-0.318-0.165-0.446c-0.099-0.299-0.179-0.598-0.243-0.887c-0.412-1.866,0.456-5.433,3.015-3.948
			c1.671,0.969,3.071,2.706,4.371,4.335c-1.938,0.754-3.861,1.716-5.638,2.882C177.641,153.457,177.209,152.752,176.907,152.008z
			 M170.593,167.583c0.509-0.616,1.295-0.978,2.07-1.106c0.239-0.04,0.479-0.038,0.718-0.028c-0.732,1.571-1.354,3.191-1.849,4.848
			C170.2,170.68,169.614,168.768,170.593,167.583z M170.068,172.105c0.345,0.204,0.728,0.341,1.14,0.382
			c-1.174,4.515-1.419,9.245-0.486,13.853c-0.473-1.258-0.856-2.549-1.108-3.879C168.938,178.901,169.41,175.57,170.068,172.105z
			 M160.015,169.54c-0.312,0.716-0.829,0.975-1.561,1.095c0,0,0,0,0,0c-0.333-0.945-0.716-1.873-1.145-2.78
			c0.231-0.158,0.462-0.286,0.646-0.357c0.625-0.241,1.428-0.25,1.91,0.274C160.305,168.25,160.26,168.978,160.015,169.54z
			 M104.137,202.989c-0.507-0.307-0.989,0.107-1.021,0.577c-0.282-0.153-0.688-0.034-0.703,0.396
			c-0.034,0.975,0.036,1.859,0.213,2.725c-8.599-6.709-8.575-19.02-8.241-29.125c0.026-0.779-0.97-0.92-1.361-0.368
			c-0.841,1.183-1.692,2.358-2.542,3.535c-2.456-13.8,11.194-22.753,22.925-26.044c0.9-0.252,0.785-1.416,0-1.714
			c-1.511-0.575-3.013-0.928-4.542-1.079c5.845-2.514,12.151-2.732,18.457-0.938c0.518,0.147,0.894-0.114,1.055-0.485
			c2.024-2.655,4.298-4.834,7.16-6.365c-0.271,0.892-0.505,1.792-0.699,2.718c-0.166,0.788,0.468,1.397,1.247,1.247
			c7.985-1.546,15.812,1.929,20.659,8.2c-0.806-0.063-1.608,0.003-2.521,0.187c-0.608,0.122-0.794,0.971-0.364,1.378
			c2.356,2.228,3.831,4.819,4.586,7.896c-0.406,0.077-0.802,0.214-1.161,0.419c-0.217,0.124-0.42,0.276-0.608,0.444
			c-1.061-1.995-2.348-3.873-3.859-5.575c-1.063-1.196-2.746,0.541-1.741,1.741c0.535,0.639,1.022,1.301,1.487,1.971
			c-3.326,0.612-6.379,1.199-9.899,0.318c-4.07-1.018-7.633-3.406-9.904-6.947c-0.5-0.78-1.589-0.591-1.89,0.247
			c-2.429,6.777-6.814,12.782-12.284,17.431c-2.729,2.318-5.774,4.294-8.989,5.87c-2.792,1.369-6.004,1.902-8.769,3.222
			c-0.745-2.733-1.165-5.633-1.315-8.662c-0.031-0.621-0.907-0.762-1.093-0.147c-1.263,4.17-0.713,8.63,0.885,12.73
			c-2.321,0.402-3.815,3.22-2.713,5.425c1.005,2.009,4.853,3.465,6.281,1.097c0.008-0.013,0.008-0.025,0.016-0.037
			c0.652,0.89,1.341,1.736,2.064,2.52c2.065,2.239,4.465,4.143,7.074,5.709c0.658,1.308,1.444,2.511,2.37,3.621
			C110.559,206.719,107.569,205.074,104.137,202.989z M102.122,194.187c-0.038,0.001-0.076-0.003-0.115,0.004
			c-1.277,0.212-2.736,0.636-3.594-0.734c-0.799-1.276,0.164-2.863,1.37-3.52C100.442,191.422,101.231,192.85,102.122,194.187z
			 M112.183,200.658c-5.434-3.535-8.811-8.224-10.711-13.682c3.147-0.145,6.611-1.912,9.334-3.255
			c3.396-1.675,6.558-3.82,9.411-6.31c5.254-4.582,9.169-10.233,11.868-16.591c2.436,3.268,5.909,5.575,9.938,6.545
			c3.524,0.849,8.23,0.832,11.366-1.37c8.65,14.11,2.749,33.732-13.991,39.028C130.406,207.869,119.988,205.735,112.183,200.658z
			 M160.103,190.51c-0.912,3.684-2.262,7.27-4.158,10.564c-3.346,5.813-8.208,9.925-13.907,13.271
			c-0.519-2.421-1.092-4.825-1.784-7.186c9.903-3.268,17.862-11.406,19.552-22.515c0.209-1.375,0.306-2.76,0.311-4.142
			c0.343,0.309,0.734,0.563,1.168,0.746c0.036,0.183,0.125,0.351,0.265,0.485C161.051,184.654,160.818,187.617,160.103,190.51z
			 M163.249,179.886c-0.278-0.503-1.056-0.646-1.304-0.052c-1.781-1.761-1.779-5.573,1.47-5.31c1.355,0.11,2.772,1.082,2.695,2.572
			C166.034,178.545,164.675,179.81,163.249,179.886z M164.103,182.019c1.437-0.29,2.715-1.205,3.495-2.461
			c0.234,4.574,1.978,9.155,4.919,12.36c2.792,6.124,7.834,10.411,14.102,12.988c-0.59,2.087-1.199,4.161-1.827,6.226
			C172.84,207.693,166.158,193.266,164.103,182.019z M182.802,300.601c0.025,0.086,0.055,0.17,0.088,0.251
			c-0.8,0.312-1.58,0.673-2.354,1.051c-1.047,0.51-4.346,2.782-4.938,1.319c-0.534-1.322,2.013-2.417,3.099-2.725
			C180.117,300.096,181.415,300.241,182.802,300.601z M206.593,239.984c4.996,9.67,10.585,19.523,17.447,28.021
			c-0.332-0.063-0.693,0.004-1.017,0.274c-7.793,6.571-19.798,4.17-28.652,1.437c-9.479-2.927-18.242-7.685-26.872-12.503
			c9.789-15.716,17.575-33.407,20.546-51.757c0.575,0.208,1.159,0.403,1.752,0.583c1.76,0.537,3.557,1.027,5.366,1.423
			c-0.042,0.163-0.053,0.34-0.017,0.534C197.194,219.225,201.367,229.872,206.593,239.984z M190.491,203.521
			c-8.554-2.621-15.002-8.225-17.051-17.16c-1.608-7.016,0.038-13.896,2.642-20.394c-0.107,0.94-0.165,1.892-0.166,2.859
			c-0.001,0.401,0.284,0.775,0.672,0.882c8.564,2.368,16.837,5.475,24.729,9.576c1.746,0.907,3.517,2.573,5.278,1.054
			c1.444-1.245,2.585-3.27,3.766-4.771c0.742-0.945,1.472-1.899,2.206-2.851c-0.111,3.214-1.009,6.246-2.594,9.147
			c-0.349,0.639,0.154,1.229,0.701,1.307c-0.038,0.119-0.053,0.248-0.005,0.393c0.743,2.192,3.222,2.896,5.222,1.867
			c2.167-1.114,3.737-3.594,5.057-5.941c-0.235,2.555-0.935,5.04-1.863,7.46c-0.333,0.871,0.806,1.28,1.377,0.751
			c0.121,0.144,0.287,0.247,0.499,0.254c0.965,0.03,1.916,0.165,2.837,0.457c0.646,0.204,1.236,0.522,1.843,0.81
			c-2.484,4.523-6.015,8.618-9.585,11.918C208.816,207.828,199.176,206.182,190.491,203.521z M214.978,205.284
			c0.738-0.475,1.46-1.009,2.162-1.611c3.421-2.933,6.424-6.703,8.962-10.464c0.76,0.716,1.604,1.338,2.561,1.702
			C225.591,200.371,220.691,203.805,214.978,205.284z M232.632,192.054c-1.229,2.2-3.959,1.202-5.812,0.077
			c0.739-1.141,1.428-2.32,2.03-3.537C230.508,188.996,233.957,189.683,232.632,192.054z M232.819,187.825
			c-0.946-0.602-2.078-0.988-3.138-1.082c0.953-2.353,1.548-4.83,1.558-7.421c0.007-1.507-2.141-1.437-2.293,0
			c-0.296,2.783-1.16,5.506-2.393,8.11c-1.613-0.971-3.719-1.149-5.547-0.909c1.205-3.273,1.536-6.616,1.548-10.115
			c0.004-0.817-1.027-1-1.45-0.394c-1.139,1.633-6.798,11.582-9.129,6.998c-0.103-0.201-0.272-0.298-0.454-0.328
			c2.112-3.852,2.899-7.931,2.646-12.307c-0.036-0.638-0.922-1.18-1.405-0.582c-1.219,1.508-2.428,3.022-3.625,4.547
			c-0.993,1.264-2.01,3.113-3.237,4.119c-1.412,1.156-2.721-0.207-4.189-0.979c-1.684-0.883-3.389-1.723-5.115-2.518
			c-6.074-2.798-12.38-5.104-18.84-6.833c0.015-2.58,0.287-5.067,0.78-7.621c0.012-0.06,0.007-0.11,0.004-0.163
			c0.212-0.709-0.692-1.175-1.17-0.542c-1.127,1.492-2.145,3.077-3.036,4.73c-0.876-0.256-1.976-0.08-2.815,0.191
			c3.248-5.816,7.679-9.809,13.698-12.04c0.027,0.032,0.056,0.067,0.083,0.098c0.49,0.56,1.314,0.045,1.313-0.575
			c0.953-0.299,1.944-0.558,2.975-0.775c2.06-0.436,4.168-0.714,6.29-0.846c0.327,0.429,1.116,0.405,1.497-0.068
			c5.275-0.15,10.605,0.625,15.541,2.324C227.779,157.965,236.972,172.511,232.819,187.825z M233.854,169.457
			c-0.354-0.8-0.746-1.586-1.17-2.358c0.695-0.229,1.462-0.481,2.179-0.328c0.45,0.096,1.055,0.514,1.009,1.051
			c-0.041,0.479-0.657,0.607-1.024,0.789C234.434,168.816,234.092,169.075,233.854,169.457z M236.112,178.98
			c-0.097-2.779-0.688-5.512-1.684-8.126c0.041-0.013,0.082-0.025,0.123-0.039c0.09-0.01,0.181-0.036,0.266-0.083
			c1.819-0.567,3.691-1.093,5.607-0.895c1.899,0.196,4.435,1.508,4.351,3.794C244.639,177.403,238.986,177.88,236.112,178.98z
			 M249.944,182.224c-2.497-0.838-4.41-2.395-6.557-3.69c2.145-1.415,3.677-3.441,3.282-5.762c-0.375-2.196-2.348-3.922-4.439-4.463
			c-1.651-0.427-3.312-0.17-4.907,0.353c0.244-0.592,0.174-1.27-0.154-1.848c-0.447-0.785-1.081-1.158-1.786-1.274
			c3.058-1.986,5.539-5.201,3.087-8.707c-1.825-2.611-4.827-2.209-7.395-0.708c1.253-5.426,4.677-9.496,10.807-9.516
			c5.431-0.017,9.986,3.93,12.458,8.497c2.814,5.2,3.098,11.311,2.741,17.088c-0.235,3.789-0.76,8.037,1.86,11.027
			C256.808,184.173,251.315,182.685,249.944,182.224z"/>
		<path fill="#3C3C3B" d="M127.306,187.972c-1.361-2.92-5.496-4.483-8.217-2.496c-2.273,1.66-2.097,5.478,0.817,6.297
			c0.936,0.264,1.37-0.985,0.632-1.5c-1.387-0.967-0.394-2.782,0.97-3.037c1.762-0.329,2.815,1.104,3.935,2.173
			C126.458,190.379,127.862,189.162,127.306,187.972z"/>
		<path fill="#3C3C3B" d="M147.554,172.449c-1.267-1.119-3.099-1.615-4.722-1.041c-3.012,1.066-3.964,5.536-1.509,7.642
			c0.755,0.647,2.154-0.217,1.483-1.145c-0.894-1.235-0.787-3.489,0.883-4.063c0.794-0.274,1.666,0.096,2.25,0.643
			c0.683,0.64,0.669,1.598,1.314,2.256c0.353,0.36,0.982,0.364,1.336,0C149.837,175.456,148.66,173.426,147.554,172.449z"/>
		<path fill="#3C3C3B" d="M140.666,186.447c-0.141-0.897-0.665-1.716-1.481-2.144c-1.717-0.9-4.044,0.481-3.923,2.453
			c0.037,0.601,0.876,0.742,1.06,0.144c0.216-0.706,1.245-1.437,1.951-0.895c0.833,0.64,0.126,1.471,0.047,2.212
			c-0.063,0.598,0.644,1.059,1.174,0.895C140.563,188.781,140.819,187.427,140.666,186.447z"/>
		<path fill="#3C3C3B" d="M145.387,189.532c-1.104,2.107-2.002,4.582-4.29,5.679c-2.941,1.409-6.235-0.436-8.818-1.825
			c-0.858-0.462-1.505,0.726-0.749,1.282c2.956,2.172,6.611,4.436,10.358,2.79c2.835-1.245,4.639-4.237,5.358-7.142
			C147.515,189.23,145.939,188.479,145.387,189.532z"/>
		<path fill="#3C3C3B" d="M186.768,179.794c-0.063-0.747-0.14-1.521-0.539-2.178c-0.645-1.063-1.912-1.644-3.137-1.512
			c-2.788,0.301-3.554,3.831-1.35,5.421c0.658,0.476,1.328-0.526,0.831-1.076c-0.82-0.909-0.075-2.599,1.217-2.126
			c1.593,0.583,0.071,3.331,1.921,3.748c0.271,0.062,0.6,0.013,0.793-0.21C187.05,181.235,186.831,180.554,186.768,179.794z"/>
		<path fill="#3C3C3B" d="M207.466,183.902c-2.409-0.256-4.219,1.972-3.997,4.271c0.076,0.775,1.356,1.116,1.491,0.202
			c0.158-1.076,0.826-2.343,2.093-2.251c0.933,0.067,1.638,0.991,0.886,1.774c-0.348,0.362-0.757,0.462-0.863,1.025
			c-0.085,0.454,0.12,0.872,0.526,1.1c1.055,0.59,2.187-0.578,2.606-1.434C211.262,186.449,209.746,184.144,207.466,183.902z"/>
		<path fill="#3C3C3B" d="M191.434,185.28c-1.888,2.337,1.169,5.936,3.796,4.65c0.452-0.222,0.596-0.832,0.414-1.264
			c-0.212-0.501-0.685-0.658-1.193-0.586c-0.73,0.104-1.99-0.858-1.325-1.622c0.544-0.625,2.046-0.31,2.31,0.44
			c0.208,0.587,1.253,0.553,1.171-0.158C196.321,184.284,193.003,183.337,191.434,185.28z"/>
		<path fill="#3C3C3B" d="M200.759,195.697c-5.981,1.057-11.245-0.425-15.702-4.634c-0.437-0.412-1.199,0.121-0.855,0.661
			c3.484,5.477,10.914,8.202,17.112,5.988C202.59,197.257,202.082,195.463,200.759,195.697z"/>
	</g>
</g>
</svg>
