<?xml version="1.0" encoding="utf-8"?>
<!-- Generator: Adobe Illustrator 16.0.0, SVG Export Plug-In . SVG Version: 6.00 Build 0)  -->
<!DOCTYPE svg PUBLIC "-//W3C//DTD SVG 1.1//EN" "http://www.w3.org/Graphics/SVG/1.1/DTD/svg11.dtd">
<svg version="1.1" id="Capa_1" xmlns="http://www.w3.org/2000/svg" xmlns:xlink="http://www.w3.org/1999/xlink" x="0px" y="0px"
	 width="350px" height="350px" viewBox="0 0 350 350" enable-background="new 0 0 350 350" xml:space="preserve">
<g>
	<g>
		<ellipse fill="#DAE7EF" cx="187.818" cy="291.974" rx="56.179" ry="12.768"/>
		<path fill="#BBD7EA" d="M187.818,307.295c-20.316,0-58.732-3.202-58.732-15.321s38.416-15.321,58.732-15.321
			c20.316,0,58.732,3.202,58.732,15.321S208.135,307.295,187.818,307.295z M187.818,281.76c-34.698,0-53.625,6.746-53.625,10.214
			s18.927,10.214,53.625,10.214c34.698,0,53.625-6.746,53.625-10.214S222.517,281.76,187.818,281.76z"/>
	</g>
	<g>
		<line fill="none" x1="187.818" y1="213.533" x2="187.818" y2="290.141"/>
		<path fill="#BBD7EA" d="M187.818,295.247c-2.819,0-5.106-2.283-5.106-5.106v-76.607c0-2.824,2.287-5.106,5.106-5.106
			s5.107,2.282,5.107,5.106v76.607C192.926,292.96,190.644,295.247,187.818,295.247z"/>
	</g>
	<path fill="#A4E869" d="M90.783,90.242c0,7.426,14.541,13.135,36.996,16.613c2.446-5.02,3.861-10.638,3.861-16.598
		c0-20.98-17.007-37.987-37.987-37.987c-20.98,0-37.982,17.007-37.982,37.987c0,20.98,17.007,37.987,37.982,37.987
		c5.664,0,11.016-1.271,15.842-3.493C98.469,109.005,90.783,95.982,90.783,90.242z"/>
	<g>
		<path fill="#DAE7EF" d="M185.266,64.706c-22.36,0-42.87,2.37-59.049,6.062c3.422,5.705,5.424,12.354,5.424,19.484
			c0,5.96-1.41,11.578-3.861,16.598c-20.939-3.243-34.983-8.426-36.786-15.132c0.041,0.255,0.041,0.47,0.107,0.741
			c0.046,0.209,0.102,0.424,0.164,0.644c0.214,0.792,0.485,1.639,0.843,2.569c0.03,0.077,0.045,0.143,0.082,0.22
			c0.409,1.037,0.919,2.165,1.491,3.355c0.117,0.24,0.24,0.49,0.362,0.735c0.562,1.134,1.175,2.314,1.869,3.565
			c0.052,0.097,0.097,0.184,0.153,0.276c0.782,1.409,1.65,2.891,2.579,4.433c0.097,0.164,0.199,0.327,0.302,0.49
			c0.919,1.512,1.89,3.069,2.931,4.683c0.031,0.046,0.057,0.087,0.087,0.133c2.263,3.514,4.801,7.263,7.548,11.18l0,0
			c19.131,27.298,48.349,62.792,65.167,82.802c6.813,8.105,19.31,7.963,25.924-0.306c25.255-31.578,79.161-100.867,79.161-116.995
			C279.747,77.55,237.45,64.706,185.266,64.706z"/>
		<path fill="#BBD7EA" d="M187.502,216.087c-5.72,0-11.098-2.503-14.79-6.896c-16.067-19.11-45.913-55.305-65.305-82.98
			c-2.768-3.948-5.322-7.722-7.6-11.262c-1.139-1.772-2.13-3.345-3.054-4.877c0-0.005-0.301-0.496-0.306-0.496
			c-0.945-1.573-1.823-3.08-2.625-4.504c-0.863-1.579-1.491-2.789-2.074-3.943l-0.378-0.776c-0.597-1.241-1.134-2.431-1.568-3.514
			c-0.475-1.267-0.771-2.196-1.006-3.064l-0.189-0.75c-0.021-0.097-0.102-0.638-0.112-0.741c-0.143-1.328,0.74-2.681,2.053-2.926
			c1.303-0.25,2.564,0.414,2.911,1.701c0.511,1.89,4.392,8.32,32.803,12.967c1.875-4.397,2.824-9.024,2.824-13.774
			c0-6.369-1.752-12.655-5.061-18.171c-0.424-0.7-0.48-1.563-0.158-2.314c0.322-0.75,0.98-1.307,1.782-1.486
			c17.303-3.953,38.477-6.129,59.616-6.129c46.862,0,97.035,11.287,97.035,28.09c0,16.465-49.947,81.372-79.717,118.593
			c-3.626,4.535-9.035,7.175-14.837,7.252C187.665,216.087,187.584,216.087,187.502,216.087z M101.115,107.417
			c0.909,1.492,1.869,3.039,2.896,4.627c2.334,3.621,4.852,7.344,7.579,11.23c19.28,27.518,49.019,63.574,65.03,82.629
			c2.757,3.273,6.73,4.969,11.062,5.071c4.265-0.057,8.243-2.002,10.909-5.338c49.218-61.53,78.604-104.67,78.604-115.4
			c0-9.147-36.664-22.982-91.928-22.982c-19.443,0-38.881,1.864-55.183,5.281c2.696,5.521,4.111,11.583,4.111,17.711
			c0,6.154-1.384,12.12-4.122,17.722c-0.49,1.006-1.553,1.578-2.687,1.404c-13.304-2.058-23.263-4.765-29.8-8.074
			c0.179,0.332,0.363,0.669,0.552,1.011c0.914,1.649,1.767,3.105,2.681,4.617l-1.89,1.808L101.115,107.417z"/>
	</g>
	<path fill="#F9EA80" d="M247.532,145.889c0,5.935-29.388,10.746-59.709,10.746c-30.32,0-62.813-4.811-62.813-10.746
		c0-5.935,32.492-9.683,62.813-9.683C218.145,136.206,247.532,139.954,247.532,145.889z"/>
	<g>
		<path fill="#F2E69C" d="M187.522,156.634c-26.128,0-53.819-3.575-60.99-8.36c16.731,21.874,35.572,44.687,47.833,59.274
			c6.813,8.104,19.31,7.961,25.924-0.308c11.655-14.575,29.407-37.179,45.152-58.885C238.731,153.1,213.503,156.634,187.522,156.634
			z"/>
	</g>
	<path fill="#FBD490" d="M243.608,106.722c5.185-0.822,9.959-1.757,14.184-2.814l15.127-22.583
		c-2.472-1.625-5.517-3.192-9.162-4.679L243.608,106.722z"/>
	<g>
		<path fill="#B0D9EA" d="M243.608,106.722l-58.874,87.899c-1.568,2.345-0.94,5.516,1.399,7.089
			c0.873,0.582,1.858,0.863,2.839,0.863c1.645,0,3.264-0.792,4.249-2.263l64.569-96.402
			C253.567,104.965,248.793,105.9,243.608,106.722z"/>
	</g>
	<g>
		<g>
			<path fill="#DAE7EF" d="M185.266,64.706c-22.36,0-42.87,2.37-59.049,6.062c3.422,5.705,5.424,12.354,5.424,19.484
				c0,5.96-1.41,11.578-3.861,16.598c15.935,2.467,35.827,3.815,57.487,3.815c52.179,0,94.481-7.737,94.481-20.429
				S237.45,64.706,185.266,64.706z"/>
			<path fill="#BBD7EA" d="M185.266,113.224c-21.594,0-41.604-1.333-57.875-3.846c-0.802-0.123-1.497-0.623-1.875-1.343
				s-0.388-1.573-0.031-2.298c2.39-4.903,3.601-10.112,3.601-15.485c0-6.369-1.752-12.655-5.061-18.171
				c-0.424-0.7-0.48-1.563-0.158-2.314c0.322-0.75,0.98-1.307,1.782-1.486c17.303-3.953,38.477-6.129,59.616-6.129
				c46.862,0,97.035,11.287,97.035,28.09C282.301,107.202,230.029,113.224,185.266,113.224z M131.461,104.812
				c15.398,2.166,33.912,3.299,53.809,3.299c57.542,0,91.928-9.085,91.928-17.875c0-9.147-36.663-22.982-91.928-22.982
				c-19.443,0-38.881,1.864-55.183,5.281c2.697,5.521,4.111,11.583,4.111,17.712C134.194,95.262,133.279,100.144,131.461,104.812z"
				/>
		</g>
	</g>
	<path fill="#FBD490" d="M292.061,43.567c-2.339-1.568-5.521-0.95-7.089,1.399l-21.751,32.477c3.437,0.664,6.69,2.191,9.295,4.479
		l20.944-31.271C295.033,48.312,294.404,45.141,292.061,43.567z"/>
	<g>
		<path fill="#F9D70B" d="M233.854,139.648L233.854,139.648L233.854,139.648z"/>
		<path fill="#F9D70B" d="M215.673,148.269l-30.934,46.352c-1.568,2.345-0.939,5.516,1.399,7.089
			c0.873,0.582,1.858,0.863,2.839,0.863c1.646,0,3.264-0.792,4.25-2.263l35.714-53.487
			C224.846,147.4,220.377,147.891,215.673,148.269z"/>
		<path fill="#F9D70B" d="M222.664,137.998L222.664,137.998L222.664,137.998z"/>
	</g>
	<path fill="#FBD490" d="M259.927,100.722l14.989-22.477c-2.38-1.548-5.435-3.101-9.214-4.602l-20.162,30.203
		C251.024,102.912,255.81,101.86,259.927,100.722z"/>
</g>
</svg>
