<?xml version="1.0" encoding="utf-8"?>
<!-- Generator: Adobe Illustrator 16.0.0, SVG Export Plug-In . SVG Version: 6.00 Build 0)  -->
<!DOCTYPE svg PUBLIC "-//W3C//DTD SVG 1.1//EN" "http://www.w3.org/Graphics/SVG/1.1/DTD/svg11.dtd">
<svg version="1.1" id="Layer_1" xmlns="http://www.w3.org/2000/svg" xmlns:xlink="http://www.w3.org/1999/xlink" x="0px" y="0px"
	 width="350px" height="350px" viewBox="0 0 350 350" enable-background="new 0 0 350 350" xml:space="preserve">
<g>
	<g>
		<path fill="#DDE8E8" d="M250.502,94.356c0-6.657-35.878-12.054-80.134-12.054c-44.245,0-80.123,5.397-80.123,12.054
			c0,0.973,0.789,1.917,2.234,2.823c8.451,5.293,40.112,9.231,77.889,9.231c37.787,0,69.448-3.938,77.902-9.231
			C249.716,96.273,250.502,95.329,250.502,94.356z"/>
		<path opacity="0.9" fill="#E9F4F3" d="M248.271,97.179c-8.454,5.293-40.115,9.231-77.902,9.231
			c-37.776,0-69.438-3.938-77.889-9.231l37.825,47.832l36.293,45.884v94.359h7.555v-94.359l36.286-45.884L248.271,97.179z"/>
		<path opacity="0.9" fill="#E9F4F3" d="M214.936,285.255c0,6.974-19.949,12.631-44.564,12.631
			c-24.607,0-44.556-5.657-44.556-12.631c0-6.977,19.948-12.635,44.556-12.635C194.986,272.62,214.936,278.278,214.936,285.255z"/>
	</g>
	<g>
		<path fill="#555653" d="M259.755,52.114c0,0-1.312,1.724-3.602,4.74c-2.328,2.984-5.583,7.307-9.619,12.389
			c-4.044,5.076-8.679,11.062-13.792,17.359c-5.108,6.299-10.557,13.018-16.008,19.736c-5.528,6.653-11.06,13.306-16.244,19.542
			c-5.175,6.244-10.149,11.953-14.342,16.907c-4.196,4.948-7.808,8.98-10.28,11.845c-2.515,2.834-3.95,4.453-3.95,4.453
			s1.308-1.724,3.598-4.741c2.327-2.984,5.583-7.31,9.619-12.39c4.044-5.076,8.676-11.066,13.792-17.358
			c5.108-6.299,10.561-13.017,16.009-19.736c5.53-6.652,11.062-13.304,16.247-19.541c5.182-6.239,10.148-11.953,14.341-16.906
			c4.2-4.947,7.808-8.981,10.281-11.846C258.319,53.734,259.755,52.114,259.755,52.114z"/>
		<g>
			<g>
				<path fill="#A7BB6C" d="M162.765,151.374c-0.38,6.236,5.984,11.673,14.214,12.142c8.229,0.469,15.206-4.205,15.583-10.444
					c0.377-6.236-5.991-11.671-14.213-12.14C170.115,140.463,163.139,145.138,162.765,151.374z"/>
				<path fill="#B93838" d="M165.106,151.773c-0.117,1.996,1.249,3.701,3.055,3.804s3.369-1.433,3.494-3.432
					c0.117-1.996-1.249-3.701-3.055-3.804C166.791,148.239,165.231,149.774,165.106,151.773z"/>
			</g>
			<g>
				<path fill="#A7BB6C" d="M180.389,124.097c-0.384,6.326,6.074,11.843,14.425,12.319c8.347,0.475,15.428-4.269,15.809-10.594
					c0.384-6.328-6.074-11.845-14.425-12.32C187.851,113.026,180.77,117.768,180.389,124.097z"/>
				<path fill="#B93838" d="M182.772,124.502c-0.125,2.025,1.263,3.754,3.093,3.856c1.833,0.105,3.417-1.453,3.542-3.477
					c0.121-2.029-1.267-3.757-3.097-3.862C184.478,120.917,182.894,122.475,182.772,124.502z"/>
			</g>
		</g>
	</g>
	<g opacity="0.6">
		<path fill="#ECD2D2" d="M126.064,131.778l21.539,27.23l22.768,28.793l22.775-28.793l21.536-27.23
			c-4.708,3.027-22.736,5.288-44.314,5.288C148.801,137.066,130.769,134.805,126.064,131.778z"/>
		<path fill="#E1C2C2" d="M215.918,130.216c0-3.784-20.392-6.85-45.55-6.85c-25.147,0-45.539,3.065-45.539,6.85
			c0,0.539,0.453,1.058,1.235,1.562c4.704,3.027,22.736,5.288,44.304,5.288c21.578,0,39.606-2.261,44.314-5.288
			C215.461,131.273,215.918,130.755,215.918,130.216z"/>
	</g>
</g>
<path fill-rule="evenodd" clip-rule="evenodd" fill="#231F1A" d="M175,175"/>
</svg>
