<?xml version="1.0" encoding="utf-8"?>
<!-- Generator: Adobe Illustrator 16.0.0, SVG Export Plug-In . SVG Version: 6.00 Build 0)  -->
<!DOCTYPE svg PUBLIC "-//W3C//DTD SVG 1.1//EN" "http://www.w3.org/Graphics/SVG/1.1/DTD/svg11.dtd">
<svg version="1.1" id="Capa_1" xmlns="http://www.w3.org/2000/svg" xmlns:xlink="http://www.w3.org/1999/xlink" x="0px" y="0px"
	 width="350px" height="350px" viewBox="0 0 350 350" enable-background="new 0 0 350 350" xml:space="preserve">
<path d="M295.288,56.545c0.026-0.161,0.02-0.335,0.033-0.502c0.067-0.482,0.107-0.97,0.107-1.472c0-7.279-6.416-12.244-39.22-16.104
	C234.472,35.912,205.636,34.5,175,34.5s-59.472,1.412-81.209,3.967c-32.803,3.86-39.22,8.825-39.22,16.104
	c0,0.495,0.04,0.977,0.101,1.452c0.02,0.174,0.013,0.354,0.04,0.522l8.437,101.133c0,0.027-0.007,0.054,0,0.081l8.952,107.402
	c0.007,0.047,0.027,0.087,0.033,0.127l2.509,30.141c0,7.064,6.122,11.963,37.406,16.09c18.854,2.489,42.391,3.981,62.951,3.981
	c20.56,0,44.097-1.492,62.95-3.981c31.285-4.127,37.407-9.032,37.38-15.535l11.555-138.64c0.04-0.334,0.074-0.669,0.087-1.003
	L295.288,56.545z M79.292,190.361l-1.92-23.008c3.111,0.836,6.878,1.619,11.387,2.354c0.274,0.047,0.555,0.094,0.836,0.141
	c0.602,0.094,1.184,0.194,1.806,0.287c-1.947,6.597-0.528,14.01,4.496,19.39l21.443,22.948c3.646,3.906,8.617,6.161,13.983,6.343
	c0.234,0.007,0.468,0.013,0.703,0.013c0.06,0,0.113-0.013,0.174-0.013c0.321,4.576,2.081,8.877,5.245,12.263l21.443,22.949
	c3.948,4.229,9.307,6.362,14.672,6.362c4.911,0,9.828-1.793,13.688-5.399l22.948-21.443c3.908-3.646,6.155-8.617,6.344-13.989
	c0.18-5.366-1.727-10.47-5.381-14.378l-3.211-3.438c3.533-0.743,6.805-2.402,9.501-4.918l22.949-21.443
	c1.083-1.01,2-2.121,2.81-3.292c13.521-1.338,22.928-2.904,29.404-4.637l-7.674,92.08c-17.644,4.717-56.087,8.377-89.94,8.377
	s-72.297-3.66-89.94-8.377L79.292,190.361z M280.91,68.006l-6.376,76.586c-7.821-2.342-20.547-4.382-41.006-5.968l-13.602-14.558
	c-7.561-8.082-20.286-8.524-28.368-0.963l-14.411,13.461l-1.605-0.006c-10.846,0-21.557,0.214-31.927,0.602
	c-6.797-3.981-15.421-3.653-21.924,1.13c-23.725,1.639-37.834,3.941-46.211,6.457l-6.382-76.74
	c15.588,4.469,46.599,6.637,105.903,6.637C234.312,74.643,265.315,72.475,280.91,68.006z M96.682,157.364
	c-0.154-0.02-0.315-0.04-0.469-0.06c-3.8-0.521-6.944-1.044-9.527-1.545c4.637-0.89,10.806-1.813,18.807-2.663l-3.339,3.124
	l-1.752,1.626c-0.021,0-0.041-0.007-0.054-0.007C99.056,157.685,97.845,157.524,96.682,157.364z M128.949,149.496
	c1.292-1.205,2.931-1.8,4.57-1.8c1.793,0,3.573,0.709,4.891,2.114l10.645,11.394c-11.467-0.354-21.817-0.923-30.896-1.632
	l3.667-3.426L128.949,149.496z M184.34,148.151L184.34,148.151l16.352-15.281c1.291-1.205,2.931-1.8,4.569-1.8
	c1.793,0,3.573,0.709,4.885,2.114l21.442,22.955c0.548,0.582,0.91,1.265,1.204,1.96c0.107,0.267,0.194,0.542,0.268,0.816
	c0.061,0.214,0.067,0.435,0.107,0.656c-15.214,1.204-34.314,2.027-57.057,2.041c-0.02-0.047-0.06-0.08-0.08-0.127
	c-0.021-0.054-0.006-0.114-0.026-0.167c-0.803-2.408-0.228-5.165,1.738-7.005L184.34,148.151z M245.256,153.115
	c7.854,0.85,13.904,1.78,18.439,2.656c-4.107,0.803-9.661,1.673-17.114,2.502c-0.006-0.04-0.026-0.073-0.026-0.113
	c-0.207-1.659-0.623-3.285-1.244-4.864C245.283,153.243,245.283,153.175,245.256,153.115z M164.235,150.586
	c-0.194,0.408-0.348,0.823-0.515,1.238c-0.274,0.696-0.516,1.405-0.709,2.121c-0.127,0.462-0.241,0.923-0.334,1.392
	c-0.047,0.228-0.127,0.448-0.161,0.683l-5.506-5.894c2.476-0.054,4.971-0.101,7.466-0.127
	C164.382,150.192,164.329,150.393,164.235,150.586z M105.326,171.869c19.436,1.987,41.467,2.723,55.805,2.983
	c0.99,2.488,0.461,5.427-1.606,7.367l-22.955,21.436c-1.292,1.211-2.984,1.82-4.791,1.786c-1.8-0.06-3.452-0.81-4.663-2.101
	l-21.443-22.948C103.432,177.984,103.419,174.418,105.326,171.869z M147.542,212.486l22.949-21.442
	c1.237-1.158,2.85-1.787,4.556-1.787c0.08,0,0.161,0,0.241,0c1.799,0.067,3.453,0.81,4.663,2.102l21.443,22.948
	c2.516,2.696,2.376,6.938-0.321,9.461l-22.948,21.442c-1.297,1.211-3.023,1.853-4.79,1.779c-1.8-0.06-3.452-0.81-4.663-2.101
	l-21.443-22.948C144.712,219.237,144.853,215.003,147.542,212.486z M198.864,186.722l-11.059-11.835
	c8.998-0.147,21.597-0.482,34.864-1.251l-14.352,13.408C205.622,189.558,201.374,189.411,198.864,186.722z M175,47.881
	c46.935,0,81.597,3.285,98.136,6.69c-16.539,3.406-51.201,6.691-98.136,6.691c-46.934,0-81.597-3.285-98.136-6.691
	C93.403,51.166,128.066,47.881,175,47.881z M175,302.119c-37.902,0-78.366-5.045-87.17-9.333l-1.605-19.235
	c21.911,4.885,59.779,7.728,88.776,7.728c29.003,0,66.885-2.851,88.796-7.733l-1.599,19.234
	C253.439,297.061,212.935,302.119,175,302.119z"/>
</svg>
