<?xml version="1.0" encoding="utf-8"?>
<!-- Generator: Adobe Illustrator 16.0.0, SVG Export Plug-In . SVG Version: 6.00 Build 0)  -->
<!DOCTYPE svg PUBLIC "-//W3C//DTD SVG 1.1//EN" "http://www.w3.org/Graphics/SVG/1.1/DTD/svg11.dtd">
<svg version="1.1" id="Capa_1" xmlns="http://www.w3.org/2000/svg" xmlns:xlink="http://www.w3.org/1999/xlink" x="0px" y="0px"
	 width="350px" height="350px" viewBox="0 0 350 350" enable-background="new 0 0 350 350" xml:space="preserve">
<path d="M295.592,41.207c-2.358-1.581-5.565-0.953-7.146,1.411l-18.453,27.551c-19.252-8.218-50.99-12.8-82.068-12.8
	c-20.431,0-40.033,1.961-57.142,5.561c-7.898-10.941-20.719-18.104-35.213-18.104c-23.953,0-43.441,19.488-43.441,43.446
	c0,23.958,19.488,43.446,43.441,43.446c4.83,0,9.556-0.819,14.107-2.395c4.001,5.612,8.357,11.502,12.909,17.506
	c0.442,0.979,1.143,1.885,2.075,2.724c17.259,22.578,36.706,46.097,48.636,60.289c3.151,3.753,7.389,6.291,12.054,7.337v56.503
	c-16.477,0.365-56.638,2.807-56.638,17.96c0,17.15,51.468,18.021,61.786,18.021s61.786-0.87,61.786-18.021
	c0-15.153-40.161-17.595-56.637-17.96v-56.699c4.587-1.174,8.717-3.769,11.744-7.559c18.191-22.742,33.271-42.385,45.361-59.031
	c1.38-1.138,2.281-2.389,2.734-3.769c20.045-27.907,30.955-46.669,32.582-56.061c0.164-0.747,0.263-1.508,0.263-2.301
	c0-4.953-3.368-9.392-9.175-13.259l17.85-26.65C298.583,45.99,297.949,42.792,295.592,41.207z M135.941,72.306
	c15.596-3.007,33.787-4.639,51.983-4.639c34.915,0,61.276,5.55,76.208,11.256l-13.438,20.065
	c-14.442,2.683-35.018,4.721-62.77,4.721c-18.618,0-36.017-0.988-50.783-2.889c0.108-0.35,0.144-0.71,0.242-1.06
	c0.365-1.318,0.664-2.652,0.901-3.996c0.103-0.582,0.221-1.159,0.299-1.746c0.257-1.9,0.422-3.81,0.422-5.746
	c0-1.411-0.077-2.812-0.211-4.212c-0.077-0.854-0.227-1.689-0.36-2.533c-0.082-0.51-0.133-1.024-0.236-1.534
	c-0.206-1.066-0.479-2.111-0.762-3.151c-0.072-0.263-0.129-0.536-0.206-0.799c-0.334-1.138-0.726-2.245-1.148-3.336
	C136.028,72.579,135.993,72.439,135.941,72.306z M249.772,136.862c-2.363-1.236-5.546-2.395-9.768-3.409l16.862-25.173
	c5.181-1.097,10.015-2.404,14.277-3.959C266.599,112.245,259.647,122.96,249.772,136.862z M233.8,142.716
	c3.321,0.562,6.061,1.153,8.136,1.751c-2.601,0.833-6.374,1.704-10.987,2.513L233.8,142.716z M217.334,148.787
	c-7.708,0.757-16.682,1.261-26.836,1.261c-23.803,0-44.439-2.857-53.847-5.571c8.985-2.348,28.406-4.727,53.847-4.727
	c12.414,0,23.195,0.587,31.902,1.468L217.334,148.787z M228.939,131.461c-9.433-1.246-21.918-2.013-38.441-2.013
	c-36.979,0-54.423,3.599-62.348,7.662c-4.314-5.741-8.418-11.354-12.141-16.651l-0.263-0.376c-0.263-0.375-0.489-0.71-0.747-1.076
	c-0.948-1.364-1.885-2.718-2.78-4.042c-0.35-0.515-0.67-0.994-0.999-1.493c-0.891-1.324-1.755-2.636-2.595-3.934
	c-0.221-0.34-0.453-0.695-0.664-1.025c-0.844-1.313-1.647-2.595-2.41-3.835c3.002,1.03,6.405,1.977,10.174,2.853
	c2.09,0.484,4.273,0.952,6.601,1.39l-0.051,0.103l6.899,1.066l3.753,0.576l0.021-0.046c15.817,2.199,34.693,3.373,54.97,3.373
	c11.055,0,33.849-0.407,54.928-3.311L228.939,131.461z M95.569,121.416c-18.279,0-33.144-14.87-33.144-33.148
	c0-18.278,14.87-33.148,33.144-33.148c12.079,0,22.639,6.518,28.432,16.198c1.504,2.518,2.657,5.205,3.45,7.986
	c0.046,0.159,0.082,0.319,0.124,0.479c0.309,1.154,0.54,2.322,0.726,3.501c0.046,0.293,0.098,0.587,0.134,0.88
	c0.17,1.359,0.284,2.724,0.284,4.099c0,1.673-0.175,3.326-0.422,4.963c-0.062,0.407-0.134,0.813-0.211,1.221
	c-0.314,1.626-0.705,3.238-1.272,4.819c-1.56-0.273-3.017-0.546-4.412-0.829c-0.912-0.186-1.761-0.371-2.61-0.556
	c-0.422-0.093-0.871-0.186-1.277-0.278c-0.983-0.227-1.915-0.453-2.811-0.685c-0.201-0.051-0.412-0.103-0.613-0.154
	c-0.947-0.247-1.838-0.494-2.688-0.741c-0.118-0.036-0.236-0.067-0.35-0.103c-0.85-0.252-1.653-0.5-2.41-0.752
	c-0.108-0.036-0.216-0.072-0.324-0.108c-0.71-0.237-1.379-0.474-2.008-0.71c-0.175-0.067-0.34-0.129-0.504-0.196
	c-0.51-0.195-0.994-0.386-1.447-0.577c-0.366-0.154-0.716-0.309-1.045-0.458c-0.2-0.093-0.406-0.18-0.597-0.272
	c-5.221-2.497-5.844-4.413-5.849-4.449l-0.016,0.01c-0.01-0.052-0.031-0.108-0.031-0.149h-0.041
	c-0.767-2.492-3.259-3.929-5.823-3.419c-1.833,0.345-3.213,1.73-3.815,3.424h-0.618c0,3.64,1.56,9.948,11.935,26.074
	c0.051,0.082,0.093,0.149,0.149,0.237c0.078,0.119,0.165,0.247,0.242,0.366c1.123,1.735,2.312,3.547,3.646,5.515
	C100.903,121.091,98.256,121.416,95.569,121.416z M241.184,291.643c-4.593,3.053-21.903,7.723-50.681,7.723
	c-28.776,0-46.092-4.67-50.68-7.723c4.31-2.869,19.838-7.157,45.531-7.672v5.823c0,2.847,2.307,5.148,5.148,5.148
	s5.149-2.302,5.149-5.148v-5.823C221.345,284.479,236.868,288.773,241.184,291.643z M199.35,203
	c-2.204,2.755-5.494,4.365-9.017,4.407c-0.051,0-0.103,0-0.148,0c-3.481,0-6.756-1.525-9.006-4.197
	c-9.521-11.321-23.854-28.622-37.988-46.582c17.485,3.44,40.496,3.718,47.308,3.718c6.565,0,13.171-0.237,19.535-0.654
	L187.389,193.5c-1.581,2.363-0.948,5.561,1.41,7.146c0.881,0.587,1.874,0.87,2.863,0.87c1.657,0,3.289-0.799,4.284-2.281
	l27.283-40.732c3.43-0.407,6.694-0.875,9.717-1.406c0.859-0.149,1.585-0.314,2.388-0.469
	C225.393,169.934,213.498,185.313,199.35,203z M278.029,88.262c0,1.771-3.985,4.5-12.563,7.172l8.053-12.018
	C276.433,85.245,278.029,86.934,278.029,88.262z"/>
</svg>
