<?xml version="1.0" encoding="utf-8"?>
<!-- Generator: Adobe Illustrator 16.0.0, SVG Export Plug-In . SVG Version: 6.00 Build 0)  -->
<!DOCTYPE svg PUBLIC "-//W3C//DTD SVG 1.1//EN" "http://www.w3.org/Graphics/SVG/1.1/DTD/svg11.dtd">
<svg version="1.1" id="Layer_1" xmlns="http://www.w3.org/2000/svg" xmlns:xlink="http://www.w3.org/1999/xlink" x="0px" y="0px"
	 width="350px" height="350px" viewBox="0 0 350 350" enable-background="new 0 0 350 350" xml:space="preserve">
<g>
	<g>
		<path fill="none" stroke="#B51010" stroke-width="4" stroke-linecap="round" stroke-linejoin="round" stroke-miterlimit="10" d="
			M144.881,200.15c0,0,23.991-93.096,36.595-127.922c0,0,16.272,53.467,28.508,90.705"/>
		<path fill="#E80F0F" d="M174.263,240.245c-2.88-5.967-5.195-12.086-7.003-17.584l0.08-0.04
			c-2.149-5.813-0.391-13.136-0.391-13.136c1.575-4.599-3.781-8.56-10.749-11.659c-4.59-2.46-12.738-5.354-27.201-7.87
			c0,0-11.335-1.39-9.416,5.715c0,0,2.871,12.448-1.292,23.803c0,0-35.312,53.604,1.576,77.968
			c36.89,24.359,38.663-16.936,38.365-30.313c0,0,1.84,15.083,11.382,13.288C179.156,278.62,182.814,257.951,174.263,240.245z"/>
		<g>
			<path fill="none" d="M118.291,219.474c0,0-14.728,22.367-15.219,44.771c4.276,3.741,24.374,20.01,53.387,22.795
				c1.734-7.401,1.875-15.309,1.773-19.912c0,0,1.84,15.083,11.382,13.288c9.542-1.796,13.2-22.465,4.648-40.171
				c-2.88-5.967-5.195-12.086-7.003-17.584l0.08-0.04c-2.149-5.813-0.391-13.136-0.391-13.136c1.575-4.599-3.781-8.56-10.749-11.659
				c-4.59-2.46-12.738-5.354-27.201-7.87c0,0-11.335-1.39-9.416,5.715C119.583,195.671,122.454,208.119,118.291,219.474z"/>
			<path fill="#B51010" d="M103.072,264.245c-0.269,12.277,3.735,24.57,16.795,33.196c24.196,15.978,33.286,3.709,36.591-10.401
				C127.446,284.255,107.348,267.986,103.072,264.245z"/>
		</g>
		<g>
			<path fill="none" d="M159.808,273.184l-0.595-2.909c0,0,8.505,2.143,19.649-5.174c0.762-7.401-0.544-16.459-4.6-24.855
				c-2.88-5.967-5.195-12.086-7.003-17.584l0.08-0.04c-2.149-5.813-0.391-13.136-0.391-13.136c1.575-4.599-3.781-8.56-10.749-11.659
				c-4.59-2.46-12.738-5.354-27.201-7.87c0,0-11.335-1.39-9.416,5.715c0,0,2.871,12.448-1.292,23.803
				c0,0-35.312,53.604,1.576,77.968c36.89,24.359,38.663-16.936,38.365-30.313C158.232,267.128,158.592,270.059,159.808,273.184z"/>
			<path fill="#B51010" d="M159.213,270.274l0.595,2.909c1.544,3.963,4.472,8.238,9.807,7.232c5.018-0.942,8.406-7.108,9.248-15.315
				C167.718,272.417,159.213,270.274,159.213,270.274z"/>
		</g>
		<g>
			<g>
				<path fill="#F2DBCC" d="M122.343,217.658l-0.669-0.265l0.383-0.955l0.661,0.261c0.389,0.152,0.807,0.313,1.252,0.48
					l-0.362,0.963C123.159,217.975,122.737,217.812,122.343,217.658z M125.558,218.853l0.342-0.972
					c0.613,0.215,1.263,0.438,1.943,0.665l-0.323,0.978C126.832,219.294,126.177,219.069,125.558,218.853z M129.495,220.152
					l0.305-0.982c0.634,0.198,1.29,0.395,1.966,0.591l-0.286,0.987C130.798,220.55,130.134,220.353,129.495,220.152z
					 M133.478,221.306l0.266-0.993c0.648,0.174,1.311,0.345,1.989,0.514l-0.249,0.997
					C134.801,221.653,134.131,221.482,133.478,221.306z M137.503,222.303l0.228-1.005c0.658,0.147,1.326,0.292,2.006,0.431
					l-0.206,1.007C138.845,222.597,138.167,222.451,137.503,222.303z M141.568,223.126l0.183-1.012
					c0.667,0.119,1.341,0.233,2.022,0.34l-0.159,1.019C142.924,223.365,142.243,223.249,141.568,223.126z M145.667,223.768
					l0.136-1.019c0.672,0.092,1.351,0.172,2.035,0.243l-0.11,1.024C147.035,223.941,146.349,223.859,145.667,223.768z
					 M149.795,224.207l0.081-1.024c0.678,0.053,1.36,0.099,2.044,0.133l-0.052,1.026
					C151.174,224.308,150.483,224.262,149.795,224.207z M153.942,224.419l0.021-1.029c0.68,0.014,1.36,0.017,2.043,0.01l0.01,1.028
					C155.323,224.436,154.632,224.433,153.942,224.419z M158.093,224.372l-0.044-1.026c0.678-0.03,1.357-0.073,2.037-0.124
					l0.085,1.023C159.478,224.301,158.784,224.342,158.093,224.372z M162.24,224.038l-0.122-1.021
					c0.676-0.08,1.349-0.174,2.021-0.279l0.162,1.016C163.616,223.861,162.928,223.957,162.24,224.038z"/>
			</g>
			<g>
				<path fill="#F2DBCC" d="M166.354,223.383l-0.204-1.009c0.332-0.067,0.665-0.141,0.997-0.215l0.225,1.004
					C167.034,223.238,166.695,223.313,166.354,223.383z"/>
			</g>
		</g>
		<g>
			<path fill="#F2DBCC" d="M125.647,273.067c-0.622-0.321-1.232-0.645-1.831-0.969l0.492-0.905c0.592,0.321,1.197,0.641,1.811,0.958
				L125.647,273.067z M127.5,273.992l0.45-0.925c0.605,0.298,1.221,0.588,1.849,0.872l-0.426,0.937
				C128.737,274.587,128.113,274.29,127.5,273.992z M122.01,271.088c-0.609-0.35-1.203-0.7-1.784-1.051l0.532-0.881
				c0.575,0.348,1.163,0.695,1.765,1.041L122.01,271.088z M131.264,275.717l0.407-0.946c0.62,0.266,1.25,0.529,1.888,0.786
				l-0.384,0.955C132.529,276.25,131.89,275.986,131.264,275.717z M118.466,268.946c-0.595-0.378-1.172-0.753-1.735-1.13
				l0.572-0.855c0.555,0.368,1.125,0.742,1.716,1.116L118.466,268.946z M135.105,277.26l0.362-0.963
				c0.633,0.235,1.276,0.466,1.925,0.695l-0.337,0.972C136.396,277.733,135.746,277.5,135.105,277.26z M115.022,266.647
				c-0.583-0.405-1.143-0.812-1.682-1.206l0.609-0.831c0.532,0.394,1.087,0.791,1.663,1.194L115.022,266.647z M139.02,278.617
				l0.312-0.979c0.644,0.206,1.298,0.404,1.957,0.598l-0.29,0.989C140.331,279.029,139.671,278.827,139.02,278.617z
				 M111.685,264.193c-0.571-0.439-1.114-0.869-1.625-1.283l0.649-0.803c0.504,0.411,1.039,0.836,1.605,1.272L111.685,264.193z
				 M142.995,279.782l0.262-0.995c0.655,0.173,1.316,0.341,1.984,0.501l-0.241,1.005
				C144.325,280.13,143.656,279.959,142.995,279.782z M108.467,261.586c-0.572-0.49-1.092-0.947-1.559-1.369l0.689-0.765
				c0.46,0.417,0.973,0.866,1.537,1.35L108.467,261.586z M147.021,280.748l0.215-1.006c0.662,0.14,1.33,0.274,2.006,0.399
				l-0.189,1.014C148.369,281.025,147.692,280.892,147.021,280.748z M105.389,258.801c-0.96-0.923-1.457-1.463-1.477-1.485
				l0.76-0.696c0.007,0.008,0.493,0.542,1.43,1.441L105.389,258.801z M151.093,281.509l0.164-1.017
				c0.668,0.105,1.343,0.208,2.021,0.298l-0.136,1.021C152.453,281.717,151.771,281.615,151.093,281.509z M155.2,282.06l0.109-1.021
				c0.377,0.041,0.754,0.08,1.134,0.114l-0.097,1.025C155.962,282.143,155.58,282.103,155.2,282.06z"/>
		</g>
		<g>
			<path fill="#F2DBCC" d="M158.289,267.64l-0.111-1.022c0.006-0.003,0.778-0.086,2.023-0.287l0.165,1.016
				C159.082,267.553,158.289,267.64,158.289,267.64z M162.413,266.984l-0.194-1.012c0.621-0.12,1.295-0.258,2.001-0.42l0.228,1.002
				C163.731,266.719,163.045,266.861,162.413,266.984z M166.467,266.057l-0.265-0.993c0.644-0.171,1.302-0.357,1.962-0.564
				l0.307,0.983C167.796,265.692,167.124,265.883,166.467,266.057z M170.449,264.817l-0.355-0.966
				c0.64-0.234,1.271-0.485,1.885-0.755l0.412,0.945C171.756,264.318,171.105,264.576,170.449,264.817z M174.284,263.127
				l-0.489-0.908c0.623-0.332,1.199-0.683,1.713-1.036l0.583,0.848C175.546,262.405,174.938,262.773,174.284,263.127z
				 M177.758,260.689l-0.709-0.743c0.497-0.478,0.919-0.975,1.245-1.477l0.863,0.558
				C178.786,259.599,178.315,260.16,177.758,260.689z"/>
		</g>
		<path fill="#E80F0F" d="M177.245,199.75c3.284-5.757,6.011-11.703,8.191-17.063l-0.077-0.047c2.542-5.652,1.289-13.08,1.289-13.08
			c-1.256-4.692,4.355-8.28,11.521-10.895c4.746-2.141,13.073-4.47,27.673-5.991c0,0,11.405-0.613,9.004,6.345
			c0,0-3.714,12.221-0.34,23.837c0,0,31.566,55.895-6.905,77.674c-38.468,21.782-37.415-19.538-36.2-32.863
			c0,0-2.868,14.922-12.265,12.478C169.74,237.703,167.505,216.829,177.245,199.75z"/>
		<g>
			<path fill="none" d="M234.507,182.857c0,0,13.165,23.319,12.123,45.705c-4.521,3.439-25.686,18.296-54.82,19.089
				c-1.226-7.5-0.825-15.399-0.408-19.983c0,0-2.868,14.922-12.265,12.478c-9.397-2.442-11.632-23.316-1.892-40.396
				c3.284-5.757,6.011-11.703,8.191-17.063l-0.077-0.047c2.542-5.652,1.289-13.08,1.289-13.08
				c-1.256-4.692,4.355-8.28,11.521-10.895c4.746-2.141,13.073-4.47,27.673-5.991c0,0,11.405-0.613,9.004,6.345
				C234.847,159.02,231.133,171.241,234.507,182.857z"/>
			<path fill="#B51010" d="M246.63,228.563c-0.572,12.27-5.406,24.256-19.028,31.969c-25.229,14.286-33.46,1.424-35.792-12.88
				C220.944,246.858,242.108,232.002,246.63,228.563z"/>
		</g>
		<g>
			<path fill="none" d="M189.415,233.597l0.794-2.857c0,0-8.634,1.557-19.251-6.506c-0.254-7.435,1.668-16.385,6.288-24.483
				c3.284-5.757,6.011-11.703,8.191-17.063l-0.077-0.047c2.542-5.652,1.289-13.08,1.289-13.08
				c-1.256-4.692,4.355-8.28,11.521-10.895c4.746-2.141,13.073-4.47,27.673-5.991c0,0,11.405-0.613,9.004,6.345
				c0,0-3.714,12.221-0.34,23.837c0,0,31.566,55.895-6.905,77.674c-38.468,21.782-37.415-19.538-36.2-32.863
				C191.401,227.668,190.844,230.565,189.415,233.597z"/>
			<path fill="#B51010" d="M190.209,230.739l-0.794,2.857c-1.812,3.854-5.024,7.917-10.278,6.549
				c-4.94-1.286-7.897-7.67-8.179-15.912C181.575,232.296,190.209,230.739,190.209,230.739z"/>
		</g>
		<g>
			<g>
				<path fill="#F2DBCC" d="M229.293,181.164l-0.295-0.985c0.455-0.135,0.885-0.268,1.283-0.395l0.678-0.215l0.315,0.979
					l-0.686,0.218C230.188,180.894,229.754,181.025,229.293,181.164z M225.297,182.271l-0.254-0.995
					c0.695-0.179,1.356-0.354,1.984-0.531l0.273,0.992C226.668,181.912,225.999,182.092,225.297,182.271z M221.263,183.227
					l-0.219-1.008c0.689-0.149,1.357-0.298,2.003-0.453l0.237,1.002C222.632,182.923,221.956,183.074,221.263,183.227z
					 M217.193,184.023l-0.18-1.014c0.688-0.12,1.361-0.244,2.021-0.374l0.197,1.01C218.567,183.775,217.889,183.899,217.193,184.023
					z M213.095,184.66l-0.137-1.022c0.686-0.092,1.365-0.188,2.033-0.29l0.157,1.015
					C214.475,184.467,213.789,184.564,213.095,184.66z M208.97,185.112l-0.09-1.025c0.69-0.061,1.369-0.128,2.043-0.2l0.113,1.023
					C210.354,184.984,209.667,185.054,208.97,185.112z M204.828,185.373l-0.038-1.027c0.688-0.026,1.37-0.063,2.045-0.103
					l0.069,1.025C206.217,185.313,205.524,185.348,204.828,185.373z M200.678,185.418l0.018-1.03
					c0.686,0.012,1.367,0.015,2.047,0.007l0.012,1.028C202.063,185.432,201.37,185.429,200.678,185.418z M196.53,185.221
					l0.082-1.027c0.682,0.054,1.36,0.096,2.039,0.129l-0.05,1.029C197.913,185.316,197.222,185.274,196.53,185.221z M192.4,184.75
					l0.154-1.016c0.675,0.101,1.35,0.188,2.024,0.265l-0.114,1.022C193.776,184.944,193.087,184.854,192.4,184.75z M188.313,183.979
					l0.229-1.002c0.664,0.152,1.33,0.291,1.998,0.417l-0.19,1.013C189.669,184.275,188.99,184.134,188.313,183.979z"/>
			</g>
			<g>
				<path fill="#F2DBCC" d="M186.289,183.469l0.273-0.993c-0.327-0.089-0.654-0.183-0.979-0.281l-0.293,0.985
					C185.621,183.28,185.954,183.375,186.289,183.469z"/>
			</g>
		</g>
		<g>
			<path fill="#F2DBCC" d="M223.116,234.819c0.631-0.289,1.25-0.574,1.856-0.867l0.445,0.928c-0.612,0.295-1.239,0.586-1.875,0.875
				L223.116,234.819z M219.729,237.373l-0.378-0.955c0.641-0.256,1.272-0.515,1.891-0.779l0.403,0.949
				C221.021,236.854,220.38,237.118,219.729,237.373z M226.808,233.047c0.618-0.315,1.225-0.632,1.813-0.95l0.487,0.907
				c-0.597,0.322-1.208,0.64-1.834,0.96L226.808,233.047z M215.85,238.815l-0.337-0.975c0.654-0.222,1.294-0.455,1.929-0.689
				l0.357,0.966C217.157,238.354,216.509,238.584,215.85,238.815z M230.414,231.106c0.606-0.342,1.196-0.686,1.771-1.029
				l0.525,0.884c-0.578,0.348-1.176,0.693-1.79,1.041L230.414,231.106z M211.903,240.068l-0.288-0.988
				c0.66-0.192,1.313-0.392,1.956-0.596l0.31,0.982C213.229,239.671,212.57,239.874,211.903,240.068z M233.93,229.012
				c0.597-0.375,1.169-0.745,1.726-1.109l0.564,0.858c-0.561,0.37-1.138,0.744-1.74,1.12L233.93,229.012z M207.899,241.127
				l-0.239-0.999c0.668-0.161,1.329-0.327,1.984-0.501l0.263,0.996C209.244,240.797,208.575,240.966,207.899,241.127z
				 M237.349,226.754c0.588-0.407,1.143-0.806,1.668-1.187l0.605,0.831c-0.531,0.389-1.094,0.79-1.688,1.2L237.349,226.754z
				 M203.849,241.991l-0.19-1.014c0.676-0.125,1.344-0.258,2.007-0.399l0.212,1.007
				C205.209,241.728,204.532,241.862,203.849,241.991z M240.653,224.342c0.587-0.455,1.122-0.878,1.604-1.27l0.648,0.798
				c-0.485,0.397-1.029,0.828-1.625,1.285L240.653,224.342z M199.759,242.649l-0.139-1.021c0.679-0.092,1.354-0.191,2.023-0.301
				l0.164,1.018C201.13,242.453,200.445,242.556,199.759,242.649z M243.82,221.756c0.981-0.85,1.493-1.358,1.5-1.365l0.725,0.73
				c-0.021,0.022-0.542,0.538-1.548,1.41L243.82,221.756z M195.641,243.097l-0.086-1.024c0.685-0.058,1.36-0.121,2.037-0.196
				l0.107,1.024C197.021,242.975,196.33,243.04,195.641,243.097z M192.421,243.304l-0.046-1.03c0.381-0.017,0.761-0.035,1.139-0.058
				l0.06,1.026C193.189,243.265,192.806,243.284,192.421,243.304z"/>
		</g>
		<g>
			<path fill="#F2DBCC" d="M189.258,227.739l0.233-1.003c1.229,0.286,1.992,0.424,1.999,0.424l-0.178,1.013
				C191.313,228.173,190.526,228.032,189.258,227.739z M185.238,226.672l0.301-0.988c0.691,0.21,1.353,0.395,1.965,0.559
				l-0.263,0.995C186.615,227.071,185.944,226.884,185.238,226.672z M181.3,225.324l0.372-0.959c0.645,0.25,1.286,0.481,1.918,0.697
				l-0.334,0.973C182.614,225.817,181.959,225.581,181.3,225.324z M177.323,223.535l0.477-0.914c0.912,0.477,1.289,0.645,1.91,0.921
				l-0.461,0.922C178.611,224.177,178.237,224.012,177.323,223.535z M173.931,221.358l0.641-0.803
				c0.491,0.388,1.039,0.773,1.637,1.149l-0.546,0.872C175.034,222.181,174.452,221.771,173.931,221.358z M171.078,218.157
				l0.901-0.503c0.291,0.527,0.675,1.055,1.141,1.56l-0.76,0.695C171.844,219.341,171.412,218.75,171.078,218.157z"/>
		</g>
		<path fill="#F2DBCC" d="M155.754,240.952l-0.408-0.947c-0.144-0.332-0.415-0.591-0.753-0.72c-0.336-0.127-0.712-0.116-1.042,0.037
			l-1.975,0.917c-0.094-0.151-0.219-0.284-0.369-0.39l-0.842-0.59c-0.606-0.422-1.44-0.277-1.864,0.326l-2.104,2.994l-1.926,0.831
			c-0.408-0.538-0.884-1.016-1.42-1.42l0.733-1.851l2.834-2.02c0.29-0.205,0.486-0.519,0.544-0.869s-0.024-0.711-0.23-1.001
			l-0.598-0.836c-0.108-0.15-0.241-0.273-0.391-0.364l0.818-1.844c0.147-0.334,0.154-0.712,0.016-1.05
			c-0.138-0.338-0.408-0.604-0.746-0.738l-0.957-0.378c-0.666-0.266-1.425,0.044-1.717,0.698l-0.766,1.721
			c-0.229-0.1-0.487-0.132-0.752-0.087l-1.012,0.174c-0.351,0.062-0.663,0.258-0.867,0.549c-0.205,0.291-0.286,0.651-0.224,1.002
			l0.628,3.602l-0.74,1.869c-0.764-0.112-1.544-0.103-2.303,0.028l-1.011-2.165l0.696-3.067c0.079-0.348,0.017-0.711-0.173-1.012
			c-0.189-0.301-0.49-0.514-0.836-0.592l-1.005-0.228c-0.311-0.07-0.633-0.029-0.912,0.118l-0.725-1.555
			c-0.313-0.67-1.11-0.957-1.777-0.649l-0.932,0.436c-0.324,0.148-0.573,0.421-0.695,0.756c-0.122,0.334-0.106,0.701,0.045,1.023
			l0.734,1.576c-0.024,0.009-0.048,0.017-0.072,0.023c-0.334,0.12-0.607,0.371-0.758,0.691l-0.435,0.934
			c-0.313,0.667-0.025,1.465,0.644,1.779l2.844,1.334l0.986,2.113c-0.532,0.424-1,0.918-1.396,1.47l-2.154-0.823l-1.635-2.688
			c-0.184-0.307-0.481-0.524-0.827-0.607c-0.348-0.087-0.71-0.03-1.014,0.156l-0.88,0.535c-0.279,0.17-0.486,0.435-0.583,0.747
			l-2.272-0.844c-0.686-0.255-1.454,0.09-1.717,0.775l-0.369,0.96c-0.127,0.335-0.117,0.706,0.031,1.032
			c0.146,0.325,0.418,0.579,0.753,0.703l2.262,0.842c-0.007,0.014-0.014,0.026-0.021,0.039c-0.156,0.32-0.178,0.688-0.063,1.026
			l0.335,0.969c0.241,0.7,1.001,1.072,1.7,0.834l2.971-1.018l2.142,0.82c-0.082,0.694-0.065,1.393,0.052,2.082l-2.108,0.912
			l-3.05-0.783c-0.344-0.09-0.709-0.035-1.015,0.145c-0.306,0.182-0.527,0.478-0.615,0.819l-0.255,0.999
			c-0.081,0.315-0.042,0.635,0.088,0.905l-1.727,0.741c-0.328,0.143-0.585,0.406-0.716,0.737c-0.131,0.33-0.126,0.699,0.015,1.026
			l0.409,0.944c0.293,0.678,1.082,0.992,1.758,0.699l1.753-0.753c0.007,0.027,0.015,0.054,0.024,0.08
			c0.111,0.336,0.352,0.618,0.668,0.776l0.919,0.463c0.662,0.334,1.466,0.068,1.8-0.591l1.415-2.806l2.139-0.925
			c0.444,0.562,0.965,1.053,1.553,1.462l-0.868,2.195l-2.709,1.603c-0.307,0.181-0.528,0.475-0.616,0.819s-0.036,0.709,0.145,1.016
			l0.524,0.886c0.154,0.26,0.381,0.449,0.64,0.555l-0.459,1.082c-0.142,0.331-0.142,0.708-0.003,1.041
			c0.14,0.332,0.407,0.595,0.742,0.727l0.956,0.38c0.162,0.064,0.33,0.096,0.494,0.096c0.522,0,1.017-0.309,1.233-0.816l0.5-1.176
			c0.328,0.213,0.746,0.282,1.151,0.152l0.976-0.321c0.337-0.112,0.617-0.353,0.778-0.668c0.16-0.316,0.188-0.687,0.077-1.022
			l-0.982-2.985l0.892-2.251c0.754,0.08,1.517,0.042,2.256-0.11l0.831,1.78l-0.479,3.447c-0.048,0.354,0.045,0.709,0.26,0.993
			c0.215,0.285,0.533,0.47,0.885,0.52l1.019,0.138c0.235,0.034,0.461,0.003,0.667-0.077l0.675,1.438
			c0.315,0.671,1.111,0.955,1.78,0.644l0.933-0.435c0.322-0.15,0.572-0.423,0.692-0.758c0.122-0.334,0.104-0.704-0.047-1.025
			l-0.577-1.229c0.179-0.104,0.333-0.247,0.449-0.422l0.566-0.858c0.408-0.617,0.237-1.446-0.379-1.854l-3.05-2.017l-0.889-1.901
			c0.478-0.403,0.9-0.867,1.261-1.377l1.906,0.729l2.053,2.809c0.436,0.596,1.274,0.728,1.87,0.292l0.832-0.604
			c0.174-0.127,0.313-0.292,0.408-0.479l1.602,0.635c0.334,0.131,0.705,0.124,1.033-0.02s0.584-0.414,0.712-0.748l0.368-0.96
			c0.262-0.685-0.075-1.452-0.758-1.724l-1.417-0.563c0.07-0.212,0.085-0.439,0.044-0.663l-0.19-1.012
			c-0.137-0.726-0.835-1.209-1.562-1.069l-3.596,0.672l-1.989-0.762c0.069-0.627,0.057-1.263-0.037-1.888l1.882-0.814l3.433,0.577
			c0.35,0.057,0.708-0.025,0.999-0.232c0.289-0.205,0.484-0.519,0.543-0.869l0.17-1.016c0.044-0.26,0.01-0.515-0.087-0.741
			l2.232-1.036C155.748,242.391,156.042,241.617,155.754,240.952z M138.62,252.308c-2.343,0-4.242-1.898-4.242-4.24
			c0-2.344,1.899-4.242,4.242-4.242c2.342,0,4.241,1.898,4.241,4.242C142.86,250.409,140.962,252.308,138.62,252.308z"/>
		<path fill="#F2DBCC" d="M231.354,203.002l-0.409-0.944c-0.144-0.334-0.415-0.595-0.753-0.723
			c-0.337-0.129-0.712-0.115-1.041,0.037l-1.976,0.917c-0.094-0.151-0.219-0.284-0.367-0.389l-0.844-0.591
			c-0.605-0.422-1.439-0.275-1.864,0.327l-2.103,2.992l-1.927,0.832c-0.407-0.537-0.884-1.015-1.42-1.422l0.732-1.846l2.835-2.021
			c0.289-0.206,0.485-0.521,0.545-0.87c0.06-0.352-0.023-0.712-0.23-1l-0.599-0.838c-0.108-0.151-0.24-0.273-0.39-0.362l0.817-1.846
			c0.148-0.332,0.154-0.711,0.017-1.049c-0.139-0.337-0.409-0.604-0.747-0.739l-0.956-0.38c-0.665-0.264-1.425,0.046-1.717,0.701
			l-0.766,1.718c-0.229-0.097-0.487-0.129-0.753-0.085l-1.013,0.175c-0.351,0.06-0.662,0.258-0.866,0.55
			c-0.204,0.291-0.286,0.651-0.224,1.002l0.629,3.6l-0.739,1.867c-0.765-0.108-1.546-0.099-2.305,0.032l-1.011-2.164l0.696-3.072
			c0.08-0.345,0.017-0.707-0.173-1.009c-0.189-0.301-0.49-0.513-0.836-0.592l-1.005-0.227c-0.311-0.074-0.634-0.03-0.912,0.115
			l-0.725-1.552c-0.313-0.669-1.111-0.959-1.777-0.649l-0.933,0.434c-0.323,0.148-0.573,0.422-0.694,0.756
			c-0.122,0.334-0.106,0.702,0.044,1.024l0.734,1.575c-0.023,0.007-0.047,0.016-0.072,0.025c-0.334,0.121-0.606,0.369-0.757,0.691
			l-0.436,0.932c-0.314,0.669-0.024,1.465,0.644,1.779l2.843,1.334l0.986,2.113c-0.531,0.423-1,0.918-1.396,1.472l-2.154-0.825
			l-1.634-2.689c-0.185-0.304-0.482-0.521-0.828-0.606c-0.348-0.085-0.709-0.027-1.013,0.157l-0.88,0.536
			c-0.279,0.168-0.486,0.436-0.583,0.745l-2.272-0.842c-0.687-0.254-1.453,0.091-1.717,0.775l-0.368,0.96
			c-0.127,0.333-0.118,0.704,0.03,1.031c0.146,0.324,0.419,0.578,0.753,0.704l2.264,0.84c-0.009,0.014-0.014,0.026-0.022,0.04
			c-0.154,0.32-0.178,0.688-0.063,1.024l0.336,0.973c0.24,0.698,1,1.071,1.7,0.831l2.97-1.016l2.142,0.819
			c-0.08,0.693-0.063,1.393,0.053,2.083l-2.107,0.912l-3.05-0.784c-0.344-0.088-0.709-0.036-1.015,0.145s-0.528,0.477-0.615,0.821
			l-0.255,0.996c-0.082,0.317-0.043,0.634,0.087,0.907l-1.727,0.741c-0.327,0.139-0.584,0.405-0.717,0.735
			c-0.131,0.33-0.125,0.699,0.016,1.025l0.408,0.943c0.293,0.68,1.082,0.993,1.759,0.703l1.754-0.754
			c0.005,0.026,0.014,0.054,0.023,0.082c0.111,0.336,0.352,0.615,0.669,0.775l0.919,0.464c0.66,0.332,1.466,0.068,1.8-0.594
			l1.413-2.805l2.139-0.924c0.444,0.56,0.966,1.051,1.554,1.463l-0.869,2.193l-2.709,1.603c-0.307,0.181-0.528,0.477-0.616,0.818
			c-0.089,0.345-0.036,0.709,0.146,1.016l0.524,0.886c0.153,0.26,0.381,0.447,0.641,0.555l-0.46,1.084
			c-0.142,0.332-0.142,0.706-0.004,1.039c0.141,0.332,0.408,0.596,0.742,0.729l0.955,0.381c0.163,0.063,0.33,0.094,0.494,0.094
			c0.523,0,1.019-0.307,1.234-0.817l0.499-1.176c0.328,0.213,0.745,0.282,1.151,0.152l0.977-0.32
			c0.337-0.111,0.615-0.351,0.777-0.668c0.16-0.318,0.188-0.688,0.075-1.023l-0.979-2.984l0.892-2.252
			c0.754,0.079,1.516,0.042,2.256-0.11l0.831,1.78l-0.479,3.45c-0.047,0.351,0.045,0.709,0.26,0.991
			c0.215,0.284,0.533,0.472,0.886,0.519l1.019,0.141c0.235,0.033,0.462,0.003,0.668-0.079l0.675,1.437
			c0.315,0.67,1.11,0.955,1.778,0.645l0.933-0.435c0.323-0.151,0.571-0.425,0.693-0.759c0.121-0.334,0.104-0.704-0.047-1.026
			l-0.577-1.226c0.18-0.103,0.333-0.246,0.448-0.423l0.567-0.858c0.406-0.618,0.237-1.448-0.381-1.857l-3.05-2.013l-0.888-1.902
			c0.477-0.405,0.9-0.867,1.261-1.378l1.907,0.729l2.052,2.809c0.436,0.598,1.273,0.729,1.87,0.294l0.83-0.605
			c0.176-0.127,0.315-0.292,0.409-0.48l1.602,0.636c0.334,0.131,0.705,0.123,1.034-0.021c0.327-0.144,0.582-0.412,0.712-0.745
			l0.367-0.961c0.262-0.686-0.075-1.454-0.758-1.725l-1.417-0.562c0.071-0.211,0.085-0.44,0.044-0.664l-0.189-1.012
			c-0.137-0.726-0.835-1.209-1.563-1.069l-3.594,0.674l-1.989-0.765c0.068-0.628,0.058-1.262-0.036-1.888l1.883-0.814l3.433,0.577
			c0.35,0.058,0.708-0.025,0.999-0.23c0.289-0.206,0.483-0.52,0.544-0.871l0.169-1.015c0.044-0.261,0.01-0.515-0.086-0.741
			l2.231-1.036C231.346,204.442,231.642,203.668,231.354,203.002z M214.219,214.359c-2.342,0-4.241-1.899-4.241-4.242
			c0-2.341,1.899-4.241,4.241-4.241s4.24,1.9,4.24,4.241C218.459,212.46,216.561,214.359,214.219,214.359z"/>
		<path fill="none" stroke="#B51010" stroke-width="4" stroke-linecap="round" stroke-miterlimit="10" d="M180.495,74.143
			c-1.802,6.023-20.468-0.454-25.554-4.149c-6.089-4.427-9.447-8.147-7.644-14.172c1.802-6.024,8.147-9.446,14.17-7.644
			C167.491,49.979,182.298,68.119,180.495,74.143z"/>
		<path fill="none" stroke="#B51010" stroke-width="4" stroke-linecap="round" stroke-miterlimit="10" d="M182.089,73.866
			c1.422,6.126,20.42,0.771,25.767-2.54c6.18-3.83,9.938-7.539,8.516-13.664c-1.421-6.125-7.539-9.938-13.663-8.517
			C196.583,50.566,180.669,67.741,182.089,73.866z"/>
		<path fill="none" stroke="#B51010" stroke-width="4" stroke-linecap="round" stroke-miterlimit="10" d="M151.578,94.999
			c0,0,17.094,4.286,30.422-18.397"/>
		<path fill="none" stroke="#B51010" stroke-width="4" stroke-linecap="round" stroke-miterlimit="10" d="M209.983,101.25
			c0,0-5.354-22.207-27.983-24.648"/>
	</g>
	<g>
		<path fill="#FFFFFF" d="M158.2,45.019c1.362,0,2.72,0.199,4.035,0.593c4.161,1.244,10.038,7.422,13.807,12.335
			c1.671,2.181,3.865,5.314,5.405,8.509c1.749-3.204,4.234-6.331,6.103-8.474c4.068-4.667,10.322-10.465,14.553-11.446
			c1.047-0.243,2.121-0.366,3.188-0.366c6.573,0,12.202,4.477,13.689,10.888c1.877,8.088-3.56,12.732-9.715,16.547
			c-2.528,1.565-7.886,3.602-13.317,4.78c12.953,7.658,16.594,22.051,16.641,22.237c0.345,1.438-0.538,2.886-1.978,3.231
			c-0.211,0.053-0.423,0.076-0.629,0.076c-1.208,0-2.305-0.824-2.602-2.05c-0.194-0.789-4.425-17.123-20.657-21.653
			c4.715,15.363,14.809,48.044,23.505,74.831c4.215-0.895,9.406-1.716,15.805-2.382c0,0,0.256-0.014,0.684-0.014
			c2.425,0,10.36,0.443,8.319,6.358c-8.605,28.326,13.303,36.582,11.785,69.52c-0.002,0.008,0,0.015-0.002,0.023
			c-0.001,0.011-0.001,0.021-0.002,0.034c-0.827,17.57-9.775,28.399-25.507,35.179c-4.677,1.985-8.728,2.9-12.21,2.9
			c-15.082,0-19.458-17.185-17.51-39.003l-0.089,0.5c0,0-0.019-0.003-0.021-0.004c-0.798,4.785-4.62,12.312-10.224,12.312
			c-1.146,0-2.367-0.315-3.651-1.033c-0.097-0.052-0.188-0.117-0.281-0.177c-5.986-3.671-6.664-13.968-5.941-20.936
			c-0.036-0.06-0.081-0.119-0.115-0.178l0.144-0.08c0.712-6.183,2.781-12.642,6.023-18.327c3.284-5.756,6.012-11.702,8.19-17.061
			l0.001-0.002l-0.077-0.047c2.542-5.652,1.289-13.08,1.289-13.08c-1.256-4.692,4.355-8.28,11.521-10.896
			c1.707-0.771,3.889-1.563,6.65-2.336c-8.636-26.611-18.603-58.875-23.333-74.283c-0.446,0.638-0.895,1.256-1.347,1.843
			c-10.788,33.151-26.321,91.896-31.275,110.854c3.117,1.062,5.512,2.107,7.334,3.084c6.968,3.1,12.324,7.061,10.749,11.659
			c0,0-1.758,7.323,0.391,13.136l-0.08,0.04l0.001,0.003c6.245,18.993,11.084,21.884,11.759,36.274c0,0,0.05,0.202,0.012,0.26
			c0.549,14.166-5.119,21.445-10.733,21.445c-4.3,0-8.57-4.274-9.989-12.997c0-0.003-0.001-0.007-0.001-0.01
			c-0.002,0.002-0.019,0.003-0.019,0.003l-0.053-0.483c-0.002-0.012-0.004-0.028-0.004-0.028c0.006,0.261,0.01,0.534,0.014,0.813
			c0.001,0.068,0.001,0.136,0.003,0.205c0.22,20.181-4.811,36.8-18.848,36.8c-3.264,0-7.016-0.898-11.301-2.86
			c-13.701-6.266-22.816-16.011-24.686-30.882c-0.008-0.06-0.014-0.118-0.021-0.177c-2.011-16.576,5.699-36.715,14.265-50.55
			c3.404-5.526,3.424-18.306,1.925-24.807c-1.38-5.106,4.089-5.825,7.274-5.825c1.246,0,2.142,0.11,2.142,0.11
			c5.911,1.028,10.751,2.121,14.739,3.22c4.557-17.432,17.718-67.2,28.193-101.096c-6.704,4.948-13.049,5.933-17.024,5.933
			c-2.418,0-3.957-0.361-4.17-0.415c-1.435-0.36-2.307-1.815-1.947-3.25c0.305-1.217,1.396-2.029,2.597-2.029
			c0.21,0,0.424,0.025,0.637,0.077c0.165,0.039,1.208,0.266,2.869,0.266c4.245,0,12.522-1.483,20.461-11.374
			c0.225-0.689,0.45-1.367,0.67-2.035c-0.288,0.017-0.585,0.027-0.897,0.027c-7.05,0-18.006-4.253-21.951-7.121
			c-5.465-3.973-11.092-8.898-8.636-17.105C146.498,49.146,152.037,45.019,158.2,45.019 M175.317,73.923
			c1.996,0,2.586-0.463,2.612-0.549c0.347-1.159-1.014-5.485-6.139-12.166c-4.453-5.805-9.136-9.88-11.091-10.464
			c-0.817-0.245-1.658-0.368-2.5-0.368c-3.814,0-7.242,2.556-8.336,6.214c-1.206,4.028,0.349,6.653,6.652,11.236
			C159.752,70.178,169.67,73.923,175.317,73.923 M188.16,73.986c5.884,0,15.148-2.994,18.285-4.938
			c6.417-3.978,8.263-6.698,7.316-10.781c-0.92-3.97-4.403-6.74-8.471-6.74c-0.659,0-1.326,0.075-1.978,0.227
			c-1.988,0.462-6.918,4.234-11.726,9.749c-5.534,6.346-7.162,10.579-6.889,11.758C184.725,73.374,185.475,73.986,188.16,73.986
			 M158.2,40.019c-8.355,0-15.863,5.593-18.259,13.602c-3.678,12.288,6.248,19.502,10.486,22.583
			c3.123,2.271,9.773,5.25,16.359,6.881c-4.833,3.876-9.19,4.577-11.703,4.577c-1.022,0-1.656-0.12-1.737-0.136
			c-0.581-0.137-1.175-0.207-1.77-0.207c-3.528,0-6.59,2.391-7.447,5.814c-1.03,4.104,1.473,8.283,5.579,9.314
			c0.525,0.132,2.473,0.565,5.388,0.565c2.417,0,5.471-0.298,8.883-1.304c-8.833,29.683-18.593,66.231-23.631,85.402
			c-3.182-0.745-6.63-1.441-10.303-2.08l-0.124-0.021l-0.125-0.016c-0.123-0.015-1.243-0.147-2.75-0.147
			c-5.054,0-8.679,1.388-10.774,4.124c-1.644,2.146-2.124,4.948-1.355,7.898c1.38,6.089,1.038,17.148-1.327,20.987
			c-8.686,14.027-17.185,35.528-14.972,53.774l0.007,0.058l0.021,0.167c1.961,15.602,11.236,27.312,27.564,34.778
			c4.802,2.198,9.305,3.313,13.38,3.313c5.432,0,10.285-2.004,14.035-5.795c4.915-4.969,7.489-12.505,8.749-20.271
			c2.048,1.225,4.181,1.763,6.113,1.763c3.364,0,6.657-1.497,9.272-4.216c4.489-4.666,6.781-12.499,6.47-22.084
			c0.013-0.306-0.001-0.614-0.04-0.926c-0.272-5.34-1.11-9.33-2.305-12.954c1.664-0.087,3.186-0.521,4.567-1.207
			c0.848,9.295,3.438,16.349,7.751,21.064c3.803,4.157,8.954,6.354,14.897,6.354c4.243,0,9.009-1.109,14.164-3.298
			c18.188-7.838,27.516-20.625,28.524-39.094l0.004-0.017l0.002-0.049l0.024-0.108l0.001-0.432
			c0.738-16.448-3.95-27.16-8.088-36.612c-4.447-10.161-7.962-18.189-3.936-31.517c1.358-4.048-0.022-6.88-0.974-8.214
			c-2.754-3.864-8.104-4.675-12.106-4.675c-0.596,0-0.952,0.021-0.952,0.021l-0.112,0.006l-0.137,0.013
			c-4.299,0.447-8.279,0.988-11.89,1.613c-6.543-20.272-13.706-43.274-18.465-58.677c5.543,5.329,7.266,12.034,7.365,12.437
			c0.833,3.439,3.9,5.854,7.456,5.854c0.624,0,1.243-0.076,1.842-0.226c4.069-0.977,6.614-5.131,5.627-9.248l-0.007-0.026
			l-0.006-0.026c-0.134-0.532-2.733-10.529-10.93-18.979c2.133-0.829,4.008-1.714,5.389-2.569
			c4.46-2.764,14.899-9.233,11.953-21.928c-2.016-8.688-9.647-14.757-18.56-14.757c-1.45,0-2.903,0.167-4.319,0.496
			c-6.782,1.574-14.873,10.372-17.19,13.031c-0.63,0.722-1.342,1.568-2.084,2.504c-0.599-0.851-1.173-1.625-1.687-2.294
			c-2.149-2.802-9.674-12.09-16.343-14.084C161.889,40.289,160.049,40.019,158.2,40.019L158.2,40.019z M170.58,68.193
			c-4.321-1.078-9.332-3.109-11.125-4.412c-2.581-1.877-4.189-3.333-4.778-4.329c-0.187-0.315-0.299-0.505-0.023-1.429
			c0.459-1.534,1.951-2.647,3.546-2.647c0.314,0,0.629,0.041,0.936,0.122c0.953,0.5,4.504,3.3,8.688,8.754
			C168.96,65.733,169.866,67.052,170.58,68.193L170.58,68.193z M204.576,56.596c0.235-0.046,0.475-0.069,0.715-0.069
			c1.729,0,3.208,1.18,3.6,2.869c0.214,0.924,0.457,1.971-5.079,5.402c-1.697,1.051-6.848,2.893-11.444,3.739
			c0.783-1.092,1.766-2.347,2.989-3.749C199.872,59.61,203.592,57.036,204.576,56.596L204.576,56.596z M155.032,191.659
			c4.969-18.914,16.634-62.706,26.215-94.028c4.893,15.819,11.401,36.67,17.468,55.484c-0.792,0.298-1.54,0.604-2.242,0.916
			c-13.973,5.148-15.678,11.767-14.54,16.526c0.265,1.807,0.56,6.69-0.944,10.032l-1.812,4.03l0.166,0.101
			c-1.982,4.535-4.078,8.743-6.251,12.552c-0.895,1.568-1.715,3.206-2.454,4.893c-1.916-2.895-5.588-5.935-12.051-8.833
			C157.51,192.762,156.322,192.203,155.032,191.659L155.032,191.659z"/>
	</g>
</g>
</svg>
