<?xml version="1.0" encoding="utf-8"?>
<!-- Generator: Adobe Illustrator 16.0.0, SVG Export Plug-In . SVG Version: 6.00 Build 0)  -->
<!DOCTYPE svg PUBLIC "-//W3C//DTD SVG 1.1//EN" "http://www.w3.org/Graphics/SVG/1.1/DTD/svg11.dtd">
<svg version="1.1" id="Layer_1" xmlns="http://www.w3.org/2000/svg" xmlns:xlink="http://www.w3.org/1999/xlink" x="0px" y="0px"
	 width="350px" height="350px" viewBox="0 0 350 350" enable-background="new 0 0 350 350" xml:space="preserve">
<g>
	<path fill-rule="evenodd" clip-rule="evenodd" fill="#F7941E" stroke="#F15A29" stroke-miterlimit="10" d="M101.974,93.534
		l106.796-44.378l-1.326-3.167L96.241,92.193l0.022,0.024c-2.316,1.169-3.568,4.616-3.762,9.956
		c-0.251,6.494-2.738,16.002,6.757,15.672c10.37-0.354,6.468-10.578,4.851-16.636C103.052,97.248,102.551,94.911,101.974,93.534z"/>
	<path fill-rule="evenodd" clip-rule="evenodd" fill="#27AAE1" stroke="#1C75BC" stroke-miterlimit="10" d="M184.063,93.549
		c0,9.677-7.848,17.519-17.522,17.519c-9.673,0-17.52-7.841-17.52-17.519c0-9.679,7.847-17.523,17.52-17.523
		C176.216,76.025,184.063,83.87,184.063,93.549z"/>
	<path fill-rule="evenodd" clip-rule="evenodd" fill="#27AAE1" stroke="#1C75BC" stroke-miterlimit="10" d="M233.903,183.072
		L233.903,183.072l-7.82-17.681c-0.05-0.111-0.092-0.226-0.129-0.342l-12.435-39.58c-0.349-1.107-0.083-2.315,0.697-3.173
		l26.563-29.242c1.091-1.202,1.134-3.023,0.1-4.274l-28.653-34.686c-0.921-1.114-2.465-1.491-3.795-0.925l-0.32,0.137
		c-1.742,0.742-2.49,2.806-1.628,4.491l15.433,30.155c0.798,1.56,0.224,3.471-1.303,4.331l-3.695,2.083
		c0.568-1.082,1.139-2.165,1.707-3.246c0.599-1.138,0.473-2.521-0.32-3.533l-21.152-26.989c-0.911-1.162-2.488-1.568-3.847-0.989
		l0,0c-1.676,0.713-2.444,2.66-1.707,4.325l11.094,25.045c0.51,1.147,0.314,2.486-0.501,3.44
		c-4.372,5.125-8.746,10.25-13.119,15.375c-0.3,0.352-0.671,0.635-1.088,0.833l-29.384,13.888c-0.9,0.425-1.557,1.239-1.783,2.208
		l-1.908,8.164c-0.207,0.883-0.037,1.811,0.468,2.563l33.938,50.512c0.389,0.581,0.583,1.271,0.551,1.969l-0.811,17.877
		c-0.006,0.151-0.023,0.301-0.052,0.45l-8.5,45.664c-0.103,0.551-0.348,1.072-0.706,1.503
		c-11.971,14.373-23.131,26.567-34.476,41.039c-1.146,1.46-0.833,3.592,0.679,4.67l4.209,3.002c1.231,0.878,2.905,0.796,4.043-0.2
		l44.786-39.135c0.475-0.414,0.819-0.957,0.991-1.563l12.846-45.146c0.758-2.664,4.282-3.232,5.839-0.943l18.84,27.712
		c0.29,0.425,0.475,0.911,0.539,1.421l7.277,56.878c0.228,1.775,1.843,3.039,3.622,2.827l2.3-0.273
		c1.567-0.187,2.777-1.467,2.873-3.043l3.803-62.287c0.032-0.521-0.062-1.042-0.273-1.52L233.903,183.072z"/>
</g>
</svg>
