<?xml version="1.0" encoding="utf-8"?>
<!-- Generator: Adobe Illustrator 16.0.0, SVG Export Plug-In . SVG Version: 6.00 Build 0)  -->
<!DOCTYPE svg PUBLIC "-//W3C//DTD SVG 1.1//EN" "http://www.w3.org/Graphics/SVG/1.1/DTD/svg11.dtd">
<svg version="1.1" id="Capa_1" xmlns="http://www.w3.org/2000/svg" xmlns:xlink="http://www.w3.org/1999/xlink" x="0px" y="0px"
	 width="350px" height="350px" viewBox="0 0 350 350" enable-background="new 0 0 350 350" xml:space="preserve">
<g>
	<path d="M229.527,214.345c-0.295-0.246-0.616-0.441-0.953-0.594c-15.639-9.498-33.979-14.972-53.574-14.972
		c-19.595,0-37.936,5.474-53.574,14.972c-0.337,0.152-0.659,0.348-0.954,0.594c-29.381,18.283-48.983,50.866-48.983,87.945
		c0,2.318,1.879,4.196,4.197,4.196h27.976c2.317,0,4.196-1.878,4.196-4.196c0-2.317-1.879-4.196-4.196-4.196H79.973
		c1.368-31.361,17.996-58.825,42.623-75.146l49.437,49.438c0.01,0.01,0.021,0.018,0.032,0.027c0.087,0.086,0.177,0.169,0.271,0.247
		c0.03,0.024,0.063,0.045,0.094,0.069c0.078,0.061,0.155,0.12,0.237,0.176c0.027,0.019,0.056,0.033,0.084,0.051
		c0.088,0.056,0.177,0.111,0.269,0.161c0.021,0.011,0.042,0.02,0.063,0.03c0.101,0.052,0.203,0.102,0.309,0.146
		c0.015,0.007,0.03,0.011,0.045,0.017c0.112,0.045,0.225,0.087,0.341,0.122c0.015,0.005,0.03,0.008,0.045,0.012
		c0.116,0.034,0.233,0.064,0.353,0.088c0.033,0.007,0.066,0.01,0.099,0.015c0.102,0.019,0.203,0.035,0.308,0.047
		c0.139,0.014,0.278,0.021,0.419,0.021s0.28-0.008,0.419-0.021c0.104-0.012,0.206-0.028,0.308-0.047
		c0.033-0.005,0.065-0.009,0.1-0.015c0.119-0.023,0.236-0.055,0.353-0.088c0.015-0.004,0.029-0.007,0.044-0.012
		c0.117-0.035,0.23-0.077,0.342-0.122c0.015-0.006,0.029-0.012,0.045-0.017c0.105-0.044,0.207-0.094,0.309-0.146
		c0.021-0.011,0.043-0.02,0.063-0.03c0.091-0.049,0.18-0.105,0.269-0.161c0.027-0.018,0.056-0.033,0.083-0.051
		c0.082-0.056,0.16-0.115,0.237-0.176c0.03-0.024,0.063-0.045,0.093-0.069c0.096-0.078,0.186-0.161,0.272-0.247
		c0.011-0.01,0.022-0.018,0.031-0.027l49.437-49.438c24.628,16.32,41.256,43.784,42.623,75.146H120.447
		c-2.318,0-4.196,1.879-4.196,4.196c0,2.318,1.878,4.196,4.196,4.196h153.867c2.317,0,4.195-1.878,4.195-4.196
		C278.51,265.211,258.909,232.628,229.527,214.345z M179.196,259.288v-22.741c0-2.317-1.879-4.196-4.196-4.196
		s-4.196,1.879-4.196,4.196v22.741l-40.785-40.786c12.242-6.598,26.085-10.592,40.785-11.233v12.492
		c0,2.319,1.879,4.197,4.196,4.197s4.196-1.878,4.196-4.197v-12.492c14.699,0.642,28.543,4.636,40.785,11.233L179.196,259.288z"/>
	<path d="M75.686,57.501h48.398v24.477c-12.733,13.223-19.723,30.54-19.723,48.959v66.443c0,2.318,1.879,4.196,4.197,4.196
		c2.317,0,4.196-1.878,4.196-4.196v-66.443c0-13.023,3.967-25.419,11.33-35.83v18.489c-1.968,5.693-2.938,11.375-2.938,17.34
		c0,29.695,24.159,53.853,53.854,53.853s53.854-24.158,53.854-53.853c0-5.966-0.969-11.647-2.938-17.34V95.108
		c7.363,10.41,11.33,22.806,11.33,35.83v66.443c0,2.318,1.878,4.196,4.196,4.196s4.196-1.878,4.196-4.196v-66.443
		c0-18.42-6.989-35.736-19.723-48.959V70.09c0-2.318-1.879-4.196-4.196-4.196c-2.318,0-4.196,1.878-4.196,4.196v37.675
		c-5.043-1.853-10.452-2.815-15.941-2.815c-9.534,0-18.85,3.005-26.582,8.521c-7.732-5.516-17.048-8.521-26.582-8.521
		c-5.489,0-10.898,0.963-15.941,2.815V57.501h126.451v72.602l-6.104,14.737c-0.887,2.142,0.129,4.596,2.271,5.483
		c2.143,0.889,4.596-0.13,5.483-2.271l2.547-6.148l2.546,6.148c0.669,1.617,2.231,2.592,3.879,2.592
		c0.535,0,1.078-0.104,1.604-0.321c2.141-0.887,3.158-3.341,2.271-5.483l-6.103-14.737V57.501h6.994
		c2.317,0,4.195-1.878,4.195-4.196s-1.878-4.196-4.195-4.196h-6.994V47.71c0-2.318-1.88-4.196-4.196-4.196
		c-2.317,0-4.196,1.878-4.196,4.196v1.399H75.686c-2.318,0-4.197,1.878-4.197,4.196S73.368,57.501,75.686,57.501z M148.418,113.343
		c8.708,0,17.195,3.072,23.898,8.649c0.778,0.647,1.731,0.971,2.684,0.971c0.952,0,1.906-0.323,2.684-0.971
		c6.702-5.577,15.19-8.649,23.898-8.649c5.867,0,11.605,1.34,16.701,3.879c1.459,4.504,2.178,9.007,2.178,13.716
		c0,25.068-20.395,45.46-45.461,45.46c-25.067,0-45.461-20.393-45.461-45.46c0-4.708,0.718-9.212,2.177-13.716
		C136.813,114.683,142.551,113.343,148.418,113.343z"/>
</g>
</svg>
