<?xml version="1.0" encoding="utf-8"?>
<!-- Generator: Adobe Illustrator 16.0.0, SVG Export Plug-In . SVG Version: 6.00 Build 0)  -->
<!DOCTYPE svg PUBLIC "-//W3C//DTD SVG 1.1//EN" "http://www.w3.org/Graphics/SVG/1.1/DTD/svg11.dtd">
<svg version="1.1" id="Capa_1" xmlns="http://www.w3.org/2000/svg" xmlns:xlink="http://www.w3.org/1999/xlink" x="0px" y="0px"
	 width="350px" height="350px" viewBox="0 0 350 350" enable-background="new 0 0 350 350" xml:space="preserve">
<g>
	<g>
		<path fill="#F9D70B" d="M252.334,97.187l-9.008,2.49c-10.566,1.572-18.86,9.871-20.433,20.433l-2.49,9.008l9.009-2.49
			c10.566-1.572,18.86-9.871,20.433-20.433L252.334,97.187z"/>
		<path fill="#EEAF4B" d="M213.797,135.724l4.578-16.588c1.978-12.419,11.563-22.004,23.982-23.978l16.583-4.583l-4.582,16.587
			c-1.974,12.42-11.558,22.004-23.979,23.978L213.797,135.724z M245.723,103.798l-1.725,0.442
			c-8.616,1.277-15.268,7.934-16.55,16.551l-0.442,1.719l1.725-0.442c8.616-1.277,15.268-7.934,16.55-16.551L245.723,103.798z"/>
	</g>
	<g>
		<path fill="#F9D70B" d="M200.304,84.278l-4.61,8.128c-6.357,8.584-6.357,20.313,0,28.897l4.61,8.128l4.609-8.128
			c6.357-8.584,6.357-20.313,0-28.897L200.304,84.278z"/>
		<path fill="#EEAF4B" d="M200.304,138.776l-8.488-14.96c-7.39-10.179-7.39-23.737,0-33.912l8.488-14.97l8.487,14.97
			c7.385,10.175,7.385,23.733,0,33.912L200.304,138.776z M200.304,93.624l-0.908,1.53c-5.187,6.999-5.187,16.408,0,23.411
			l0.903,1.526l0.903-1.526c5.187-7.008,5.187-16.417,0-23.411L200.304,93.624z"/>
	</g>
	<g>
		<path fill="#F9D70B" d="M265.018,148.992l-8.129-4.61c-8.584-6.357-20.313-6.357-28.896,0l-8.128,4.61l8.128,4.61
			c8.584,6.357,20.313,6.357,28.896,0L265.018,148.992z"/>
		<path fill="#EEAF4B" d="M242.44,163.021c-5.933,0-11.867-1.844-16.956-5.542l-14.965-8.487l14.965-8.487
			c10.184-7.395,23.738-7.395,33.912,0l14.97,8.487l-14.97,8.487C254.307,161.177,248.374,163.021,242.44,163.021z M229.204,148.992
			l1.531,0.903c7.003,5.187,16.412,5.187,23.406,0l1.53-0.903l-1.53-0.903c-6.999-5.196-16.403-5.196-23.406,0L229.204,148.992z"/>
	</g>
	<g>
		<path fill="#F9D70B" d="M170.964,113.618l-4.61,8.127c-6.357,8.584-6.357,20.313,0,28.897l4.61,8.128l4.61-8.128
			c6.357-8.584,6.357-20.313,0-28.897L170.964,113.618z"/>
		<path fill="#EEAF4B" d="M170.964,168.12l-8.487-14.97c-7.386-10.179-7.386-23.729,0-33.908l8.487-14.969l8.487,14.969
			c7.391,10.179,7.391,23.729,0,33.908L170.964,168.12z M170.964,122.963l-0.904,1.531c-5.187,6.998-5.187,16.407,0,23.401
			l0.904,1.53l0.908-1.53c5.187-6.999,5.187-16.408,0-23.401L170.964,122.963z"/>
	</g>
	<g>
		<path fill="#F9D70B" d="M235.677,178.331l-8.127-4.61c-8.584-6.357-20.313-6.357-28.897,0l-8.128,4.61l8.128,4.61
			c8.585,6.357,20.313,6.357,28.897,0L235.677,178.331z"/>
		<path fill="#EEAF4B" d="M213.102,192.36c-5.938,0-11.867-1.844-16.962-5.542l-14.964-8.487l14.964-8.487
			c10.18-7.386,23.734-7.386,33.914,0l14.959,8.487l-14.959,8.487C224.968,190.512,219.034,192.36,213.102,192.36z M199.87,178.331
			l1.53,0.904c7.003,5.186,16.408,5.195,23.41,0l1.53-0.904l-1.53-0.903c-7.002-5.187-16.412-5.182-23.41,0L199.87,178.331z"/>
	</g>
	<g>
		<path fill="#F9D70B" d="M141.624,142.958l-4.61,8.127c-6.357,8.584-6.357,20.313,0,28.896l4.61,8.128l4.61-8.128
			c6.357-8.583,6.357-20.312,0-28.896L141.624,142.958z"/>
		<path fill="#EEAF4B" d="M141.624,197.459l-8.487-14.969c-7.39-10.175-7.39-23.733,0-33.913l8.487-14.96l8.488,14.96
			c7.385,10.184,7.385,23.738,0,33.913L141.624,197.459z M141.624,152.298l-0.903,1.526c-5.187,7.007-5.187,16.417,0,23.411
			l0.908,1.53l0.903-1.53c5.187-6.999,5.187-16.408,0-23.411L141.624,152.298z"/>
	</g>
	<g>
		<path fill="#F9D70B" d="M206.338,207.671l-8.128-4.61c-8.584-6.357-20.313-6.357-28.896,0l-8.128,4.61l8.128,4.61
			c8.584,6.357,20.313,6.357,28.896,0L206.338,207.671z"/>
		<path fill="#EEAF4B" d="M183.762,221.699c-5.934,0-11.867-1.848-16.956-5.54l-14.965-8.488l14.965-8.487
			c10.179-7.381,23.729-7.391,33.912,0l14.965,8.487l-14.965,8.488C195.629,219.852,189.695,221.699,183.762,221.699z
			 M170.53,207.671l1.531,0.903c7.007,5.191,16.413,5.188,23.411,0l1.53-0.903l-1.53-0.903c-6.998-5.183-16.407-5.191-23.411,0
			L170.53,207.671z"/>
	</g>
	<g>
		<path fill="#F9D70B" d="M112.285,172.296l-4.61,8.128c-6.357,8.584-6.357,20.313,0,28.897l4.61,8.127l4.61-8.127
			c6.357-8.585,6.357-20.313,0-28.897L112.285,172.296z"/>
		<path fill="#EEAF4B" d="M112.285,226.79l-8.487-14.961c-7.386-10.179-7.386-23.733,0-33.912l8.487-14.961l8.487,14.961
			c7.39,10.179,7.39,23.733,0,33.912L112.285,226.79z M112.285,181.638l-0.904,1.525c-5.187,7.007-5.187,16.412,0,23.415
			l0.904,1.526l0.903-1.526c5.187-7.008,5.187-16.412,0-23.415L112.285,181.638z"/>
	</g>
	<g>
		<path fill="#F9D70B" d="M176.999,237.011l-8.128-4.611c-8.584-6.356-20.313-6.356-28.897,0l-8.127,4.611l8.127,4.61
			c8.584,6.357,20.313,6.357,28.897,0L176.999,237.011z"/>
		<path fill="#EEAF4B" d="M154.422,251.039c-5.933,0-11.867-1.844-16.957-5.541l-14.965-8.487l14.965-8.487
			c10.184-7.395,23.733-7.395,33.917,0l14.964,8.487l-14.964,8.487C166.289,249.195,160.355,251.039,154.422,251.039z
			 M141.191,237.011l1.531,0.902c7.003,5.188,16.412,5.188,23.411,0l1.531-0.902l-1.531-0.904c-7.003-5.195-16.412-5.195-23.411,0
			L141.191,237.011z"/>
	</g>
	<g>
		<path fill="#F9D70B" d="M82.945,201.636l-4.61,8.129c-6.358,8.583-6.358,20.312,0,28.896l4.61,8.129l4.61-8.129
			c6.357-8.584,6.357-20.313,0-28.896L82.945,201.636z"/>
		<path fill="#EEAF4B" d="M82.945,256.139l-8.487-14.97c-7.39-10.18-7.39-23.729,0-33.908l8.487-14.97l8.488,14.97
			c7.39,10.18,7.39,23.729,0,33.908L82.945,256.139z M82.945,210.98l-0.908,1.531c-5.186,6.999-5.186,16.407,0,23.401l0.908,1.53
			l0.908-1.53c5.187-6.999,5.187-16.408,0-23.401L82.945,210.98z"/>
	</g>
	<g>
		<path fill="#F9D70B" d="M147.659,266.35l-8.128-4.609c-8.584-6.358-20.313-6.358-28.896,0l-8.128,4.609l8.128,4.61
			c8.584,6.357,20.313,6.357,28.896,0L147.659,266.35z"/>
		<path fill="#EEAF4B" d="M125.083,280.374c-5.934,0-11.867-1.844-16.957-5.542l-14.965-8.487l14.965-8.486
			c10.184-7.386,23.738-7.381,33.913,0l14.965,8.486l-14.965,8.487C136.95,278.53,131.016,280.374,125.083,280.374z
			 M111.852,266.345l1.531,0.904c6.998,5.19,16.408,5.2,23.411,0l1.53-0.904l-1.53-0.903c-7.003-5.187-16.408-5.182-23.411,0
			L111.852,266.345z"/>
	</g>
	<g>
		<line fill="none" x1="219.62" y1="129.675" x2="54.948" y2="294.348"/>
		<path fill="#EEAF4B" d="M54.948,298.958c-1.18,0-2.36-0.452-3.26-1.352c-1.802-1.802-1.802-4.716,0-6.518L216.36,126.416
			c1.803-1.803,4.716-1.803,6.52,0c1.802,1.802,1.802,4.716,0,6.519L58.207,297.606C57.308,298.506,56.128,298.958,54.948,298.958z"
			/>
	</g>
	<g>
		<line fill="none" x1="216.816" y1="81.733" x2="242.893" y2="55.658"/>
		<path fill="#EEAF4B" d="M216.813,86.348c-1.181,0-2.36-0.451-3.26-1.351c-1.803-1.802-1.803-4.716,0-6.519l26.08-26.08
			c1.803-1.803,4.716-1.803,6.52,0c1.802,1.803,1.802,4.716,0,6.519l-26.08,26.08C219.173,85.897,217.992,86.348,216.813,86.348z"/>
	</g>
	<g>
		<line fill="none" x1="236.373" y1="88.257" x2="268.972" y2="55.658"/>
		<path fill="#EEAF4B" d="M236.373,92.867c-1.181,0-2.36-0.452-3.259-1.351c-1.804-1.803-1.804-4.716,0-6.519l32.599-32.599
			c1.803-1.803,4.717-1.803,6.519,0c1.803,1.803,1.803,4.716,0,6.519l-32.599,32.599C238.733,92.416,237.554,92.867,236.373,92.867z
			"/>
	</g>
	<g>
		<line fill="none" x1="262.453" y1="114.337" x2="295.053" y2="81.733"/>
		<path fill="#EEAF4B" d="M262.453,118.947c-1.18,0-2.359-0.452-3.259-1.351c-1.803-1.802-1.803-4.716,0-6.519l32.599-32.599
			c1.803-1.803,4.716-1.803,6.519,0c1.803,1.802,1.803,4.716,0,6.519l-32.599,32.599
			C264.81,118.496,263.634,118.947,262.453,118.947z"/>
	</g>
	<g>
		<line fill="none" x1="265.713" y1="84.998" x2="295.053" y2="55.658"/>
		<path fill="#EEAF4B" d="M265.713,89.608c-1.18,0-2.36-0.452-3.26-1.351c-1.802-1.803-1.802-4.716,0-6.519l29.34-29.339
			c1.803-1.803,4.716-1.803,6.519,0s1.803,4.716,0,6.519l-29.34,29.34C268.073,89.156,266.893,89.608,265.713,89.608z"/>
	</g>
	<g>
		<line fill="none" x1="268.972" y1="133.894" x2="295.053" y2="107.813"/>
		<path fill="#EEAF4B" d="M268.972,138.504c-1.18,0-2.36-0.452-3.259-1.351c-1.803-1.803-1.803-4.716,0-6.519l26.08-26.075
			c1.803-1.803,4.716-1.803,6.519,0c1.803,1.802,1.803,4.716,0,6.519l-26.08,26.076
			C271.332,138.052,270.152,138.504,268.972,138.504z"/>
	</g>
</g>
</svg>
