<?xml version="1.0" encoding="utf-8"?>
<!-- Generator: Adobe Illustrator 16.0.0, SVG Export Plug-In . SVG Version: 6.00 Build 0)  -->
<!DOCTYPE svg PUBLIC "-//W3C//DTD SVG 1.1//EN" "http://www.w3.org/Graphics/SVG/1.1/DTD/svg11.dtd">
<svg version="1.1" id="Capa_1" xmlns="http://www.w3.org/2000/svg" xmlns:xlink="http://www.w3.org/1999/xlink" x="0px" y="0px"
	 width="350px" height="350px" viewBox="0 0 350 350" enable-background="new 0 0 350 350" xml:space="preserve">
<g>
	<rect x="133.833" y="100.9" fill="#E57E25" width="41.167" height="185.25"/>
	<rect x="187.35" y="228.518" fill="#26B99A" width="41.168" height="57.633"/>
	<rect x="240.867" y="191.467" fill="#26B99A" width="41.166" height="94.684"/>
	<rect x="80.317" y="133.833" fill="#26B99A" width="41.167" height="152.317"/>
	<path fill="#556080" d="M63.85,298.5c-2.276,0-4.117-1.84-4.117-4.117V55.617c0-2.277,1.84-4.117,4.117-4.117
		s4.117,1.84,4.117,4.117v238.766C67.967,296.66,66.126,298.5,63.85,298.5z"/>
	<path fill="#556080" d="M294.384,290.268H55.617c-2.276,0-4.117-1.841-4.117-4.117s1.84-4.117,4.117-4.117h238.767
		c2.276,0,4.116,1.841,4.116,4.117S296.66,290.268,294.384,290.268z"/>
</g>
</svg>
