<?xml version="1.0" encoding="utf-8"?>
<!-- Generator: Adobe Illustrator 16.0.0, SVG Export Plug-In . SVG Version: 6.00 Build 0)  -->
<!DOCTYPE svg PUBLIC "-//W3C//DTD SVG 1.1 Tiny//EN" "http://www.w3.org/Graphics/SVG/1.1/DTD/svg11-tiny.dtd">
<svg version="1.1" baseProfile="tiny" id="Layer_1" xmlns="http://www.w3.org/2000/svg" xmlns:xlink="http://www.w3.org/1999/xlink"
	 x="0px" y="0px" width="350px" height="350px" viewBox="0 0 350 350" overflow="scroll" xml:space="preserve">
<g>
	<g>
		<rect x="118.255" y="81.656" fill="#646D37" width="115.497" height="11.629"/>
		<rect x="204.744" y="81.656" fill="#4F572C" width="11.834" height="11.629"/>
		<rect x="145.994" y="81.656" fill="#4F572C" width="11" height="11.629"/>
		<path fill="#231F20" d="M233.752,94.285H118.255c-0.553,0-1-0.448-1-1V81.656c0-0.552,0.447-1,1-1h115.497c0.553,0,1,0.448,1,1
			v11.629C234.752,93.837,234.305,94.285,233.752,94.285z M119.255,92.285h113.497v-9.629H119.255V92.285z"/>
	</g>
	<g>
		<path fill="#A88453" d="M124.973,86.813c0,7.585-6.146,13.736-13.732,13.736s-13.737-6.15-13.737-13.736
			c0-7.59,6.15-13.735,13.737-13.735S124.973,79.224,124.973,86.813z"/>
		<path fill="#C9A273" d="M103.52,86.813c0-6.555,4.591-12.022,10.729-13.395c-0.97-0.216-1.974-0.34-3.009-0.34
			c-7.587,0-13.737,6.145-13.737,13.735c0,7.585,6.15,13.736,13.737,13.736c1.035,0,2.039-0.124,3.009-0.341
			C108.11,98.835,103.52,93.364,103.52,86.813z"/>
		<path fill="#231F20" d="M111.24,101.549c-8.126,0-14.737-6.61-14.737-14.736c0-8.125,6.611-14.735,14.737-14.735
			c8.123,0,14.732,6.61,14.732,14.735C125.973,94.939,119.363,101.549,111.24,101.549z M111.24,74.079
			c-7.023,0-12.737,5.713-12.737,12.735c0,7.022,5.714,12.736,12.737,12.736c7.021,0,12.732-5.713,12.732-12.736
			C123.973,79.792,118.261,74.079,111.24,74.079z"/>
	</g>
	<g>
		<path fill="#676F3B" d="M224.56,284.889c16.978-19.11,27.938-49.171,27.938-83.007c0-40.817-15.952-76.144-39.182-93.365h-64.095
			c-23.239,17.221-39.187,52.547-39.187,93.365c0,33.836,10.96,63.896,27.937,83.007H224.56z"/>
		<path fill="#808648" d="M137.744,196.703c0,63.442,13.212,85.07,15.834,88.186h9.371c-2-4.975-21.314-55.273-10.434-116.777
			l1,3.367c0,0,2.787-40.246,18.841-62.961h-10.46C161.896,108.517,137.744,127.606,137.744,196.703z"/>
		<path fill="#4F572C" d="M211.289,203.458c0,40.315-6.393,66.074-12.443,81.431h25.714c16.978-19.11,27.938-49.171,27.938-83.007
			c0-40.817-15.952-76.144-39.182-93.365h-23.114C190.201,108.517,211.289,126.912,211.289,203.458z"/>
		<path fill="#231F20" d="M224.561,285.889h-86.59c-0.285,0-0.558-0.122-0.747-0.336c-17.915-20.167-28.189-50.663-28.189-83.671
			c0-39.988,15.17-76.072,39.592-94.168c0.172-0.128,0.381-0.197,0.595-0.197h64.095c0.214,0,0.423,0.069,0.596,0.197
			c24.417,18.102,39.586,54.186,39.586,94.168c0,33.008-10.274,63.504-28.189,83.671
			C225.117,285.767,224.846,285.889,224.561,285.889z M138.422,283.889h85.688c17.411-19.808,27.388-49.665,27.388-82.007
			c0-39.217-14.749-74.568-38.513-92.365h-63.432c-23.769,17.791-38.519,53.142-38.519,92.365
			C111.034,234.224,121.011,264.081,138.422,283.889z"/>
	</g>
	<g>
		<path fill="#A88453" d="M181.266,65.11c-15.325,0-27.75,4.466-27.75,9.987v33.42h55.494v-33.42
			C209.01,69.577,196.591,65.11,181.266,65.11z"/>
		<path fill="#8D7145" d="M190.201,65.642v42.875h18.809v-33.42C209.01,70.704,201.139,66.98,190.201,65.642z"/>
		<path fill="#C9A273" d="M161.896,108.517h9.348V65.784c-3.52,0.491-6.691,1.231-9.348,2.163V108.517z"/>
		<path fill="#231F20" d="M209.01,109.517h-55.494c-0.552,0-1-0.448-1-1v-33.42c0-6.161,12.629-10.987,28.75-10.987
			c16.118,0,28.744,4.826,28.744,10.987v33.42C210.01,109.069,209.563,109.517,209.01,109.517z M154.516,107.517h53.494v-32.42
			c0-4.34-10.746-8.987-26.744-8.987c-16.001,0-26.75,4.647-26.75,8.987V107.517z"/>
	</g>
	<g>
		<path fill="#231F20" d="M199.306,285.89c-0.11,0-0.223-0.02-0.333-0.059c-0.521-0.184-0.794-0.754-0.609-1.275
			c6.445-18.273,12.949-49.117,12.949-76.834c0-45.272-7.811-82.125-20.895-98.582c-0.344-0.433-0.271-1.062,0.16-1.405
			c0.432-0.344,1.061-0.272,1.405,0.16c13.355,16.799,21.329,54.118,21.329,99.827c0,27.953-6.561,59.066-13.064,77.5
			C200.104,285.632,199.718,285.89,199.306,285.89z"/>
		<path fill="#231F20" d="M162.174,285.89c-0.412,0-0.799-0.258-0.943-0.668c-7.188-20.395-12.018-51.539-12.018-77.5
			c0-42.636,9.258-81.82,23.585-99.827c0.345-0.432,0.974-0.504,1.405-0.16c0.433,0.344,0.504,0.973,0.16,1.405
			c-14.063,17.675-23.15,56.371-23.15,98.582c0,25.757,4.784,56.635,11.904,76.834c0.184,0.521-0.09,1.093-0.611,1.276
			C162.396,285.87,162.284,285.89,162.174,285.89z"/>
	</g>
	<path fill="#231F20" d="M231.183,131.562H129.312c-0.553,0-1-0.448-1-1s0.447-1,1-1h101.871c0.552,0,1,0.448,1,1
		S231.734,131.562,231.183,131.562z"/>
	<path fill="#231F20" d="M249.902,174.837H112.629c-0.552,0-1-0.448-1-1s0.448-1,1-1h137.273c0.553,0,1,0.448,1,1
		S250.455,174.837,249.902,174.837z"/>
	<path fill="#231F20" d="M252.166,213.017H110.365c-0.553,0-1-0.447-1-1s0.447-1,1-1h141.801c0.553,0,1,0.447,1,1
		S252.719,213.017,252.166,213.017z"/>
	<path fill="#231F20" d="M242.496,256.29H120.034c-0.552,0-1-0.448-1-1c0-0.553,0.448-1,1-1h122.462c0.553,0,1,0.447,1,1
		C243.496,255.842,243.049,256.29,242.496,256.29z"/>
</g>
</svg>
