<?xml version="1.0" encoding="utf-8"?>
<!-- Generator: Adobe Illustrator 16.0.0, SVG Export Plug-In . SVG Version: 6.00 Build 0)  -->
<!DOCTYPE svg PUBLIC "-//W3C//DTD SVG 1.1 Tiny//EN" "http://www.w3.org/Graphics/SVG/1.1/DTD/svg11-tiny.dtd">
<svg version="1.1" baseProfile="tiny" id="Layer_1" xmlns="http://www.w3.org/2000/svg" xmlns:xlink="http://www.w3.org/1999/xlink"
	 x="0px" y="0px" width="350px" height="350px" viewBox="0 0 350 350" overflow="scroll" xml:space="preserve">
<g>
	<g>
		<path fill="#9A8479" d="M236.921,166.125h12.753c0,0,1.765-10.507-6.177-10.507C235.557,155.618,236.921,166.125,236.921,166.125z
			"/>
	</g>
	<g>
		<path fill="#9A8479" d="M260.773,166.125h12.753c0,0,1.765-10.507-6.176-10.507S260.773,166.125,260.773,166.125z"/>
	</g>
	<g>
		<path fill="#9A8479" d="M284.628,166.125h12.753c0,0,1.764-10.507-6.177-10.507C283.265,155.618,284.628,166.125,284.628,166.125z
			"/>
	</g>
	<path fill="#9A8479" d="M237.201,133.193v12.543c4.262,0.143,7.955,0.289,10.824,0.433
		C246.57,140.422,239.998,134.651,237.201,133.193z"/>
	<path fill="#C1B49A" d="M278.624,165.723c1.197,0.748,8.04,1.552,20.237,1.552c8.563,0,14.664-0.396,15.95-0.69
		c1.555-1.944,1.287-14.964-0.359-16.981c-1.506-0.649-10.228-1.308-22.556-1.308c-6.974,0-11.096,0.212-12.76,0.4
		C277.37,156.963,277.111,164.777,278.624,165.723z"/>
	<path fill="#C1B49A" d="M110.967,178.967c0.352,0.938,1.021,1.396,2.175,2.127c1.956,1.238,4.634,2.932,3.877,8.613
		c-0.499,3.73-3.831,8.414-7.055,12.943c-2.732,3.838-6.86,9.641-5.698,11.135c0.325,0.418,1.84,1.83,7.68,2.461
		c6.734,0.727,14.049-0.225,15.257-1.23c1.451-1.211,3.765-10.168,5.146-15.52c1.094-4.238,2.04-7.898,2.836-9.695
		c1.469-3.303,9.09-4.061,26.754-4.6c5.224-0.158,10.624-0.324,11.985-0.777c2.179-0.727,5.181-4.166,7.354-7.195l-56.497-0.473
		c-0.923-0.006-1.665-0.761-1.657-1.684c0.007-0.918,0.754-1.658,1.671-1.658c0.004,0,0.008,0,0.014,0l59.104,0.493
		c-0.161-0.293-0.233-0.63-0.201-0.969l1.492-15.394c0.081-0.858,0.803-1.51,1.662-1.51c0.009,0,0.017,0,0.024,0
		c23.234,0.337,60.499,0.469,66.912-0.521c0.023-0.217,0.049-0.444,0.077-0.683c0.177-1.501,0.543-4.625-0.506-4.975
		c-4.558-0.936-64.032-2.344-104.051-1.906c-0.235,0.239-0.541,0.413-0.896,0.476c-0.099,0.018-0.198,0.026-0.296,0.026
		c-0.438,0-0.836-0.184-1.141-0.474c-17.865,0.233-31.396,0.857-33.554,2.094C111.548,152.577,109.591,175.299,110.967,178.967z"/>
	<path fill="#9A8479" d="M122.464,137.024c-2.733,0.249-3.127,2.12-2.985,7.999c0.005,0.219,0.006,0.438,0.01,0.657
		c2.995-0.287,7.149-0.556,12.925-0.765C129.74,141.299,125.375,136.775,122.464,137.024z"/>
	<path fill="#9A8479" d="M220.396,159.625c-13.756-0.005-27.499-0.169-32.013-0.228l-1.165,12.031h53.776
		c2.922,0,6.623-7.133,8.33-12.224C244.326,159.462,235.685,159.629,220.396,159.625z"/>
	<path fill="#9A8479" d="M172.861,188.002c-2.246,0.266-5.771,0.387-10.819,0.541c-1.875,0.057-4.279,0.131-6.834,0.242
		c2.268,7.768,7.464,23.797,10.992,27.326c2.104,2.105,6.842,0.596,9.479-0.486c3.826-1.576,7.115-3.789,8.236-4.725
		c-0.181-2.598-5.682-13.52-10.908-22.564C172.943,188.229,172.897,188.115,172.861,188.002z"/>
	<path fill="#9A8479" d="M195.491,201.402c0,1.713,2.958,3.09,5.407,3.09c0.889,0,1.64-0.174,2.116-0.492
		c0.389-0.262,0.555-0.592,0.555-1.107v-28.122h-8.078V201.402z"/>
	<path fill="#9A8479" d="M179.211,144.562c-3.317-3.858-8.862-9.672-12.15-10.569c-4.814-1.313-15.974-1.356-18.686-0.776
		c-0.217,1.65,0.317,6.637,1.076,11.332C157.505,144.463,167.297,144.457,179.211,144.562z"/>
	<path fill="#9A8479" d="M39.21,205.699c1.731-0.182,3.419-0.25,5.051-0.316c7.274-0.295,13.556-0.549,20.029-10.828
		c7.652-12.154,25.213-14.947,36.833-16.797c1.819-0.289,3.538-0.563,4.987-0.838c0.471-0.09,0.934,0.033,1.295,0.297
		c-0.356-5.425,0.159-16.259,1.531-23.325c-30.959-1.633-65.436-2.445-68.652-0.739c-3.015,2.012-5.684,16.909-5.684,31.862
		c0,2.465-0.123,4.869-0.243,7.191c-0.287,5.605-0.558,10.902,1.369,12.729C36.453,205.621,37.592,205.871,39.21,205.699z
		 M49.129,164.469c3.005-3.005,16.773-3.636,27.795-3.636c9.192,0,20.444,0.376,21.843,2.169c0.352,0.45,0.475,1.021,0.338,1.564
		c-0.884,3.539-6.857,5.625-17.336,9.007c-3.473,1.122-7.066,2.282-10.513,3.573c-11.396,4.273-22.562,16.797-22.674,16.922
		c-0.322,0.365-0.781,0.564-1.251,0.564c-0.18,0-0.363-0.029-0.541-0.09c-0.639-0.219-1.083-0.799-1.127-1.473
		C45.407,189.131,44.367,169.231,49.129,164.469z"/>
	<path fill="#9A8479" d="M252.509,160.22c-0.2,0.602-0.62,1.801-1.232,3.262h23.201c-0.343-2.713-0.122-6.032,0.276-9.071h-17.462
		c-0.03,0.281-0.062,0.555-0.091,0.81c-0.07,0.597-0.137,1.162-0.137,1.491c0,0.447-0.22,0.96-0.539,1.274
		c-0.351,0.346-0.724,0.711-4.083,1.009C252.613,159.367,252.648,159.802,252.509,160.22z"/>
	<path fill="#5A4A42" d="M38.311,209.092c0.401,0,0.818-0.021,1.25-0.066c1.623-0.172,3.256-0.238,4.835-0.303
		c7.528-0.305,15.313-0.619,22.723-12.389c6.845-10.871,23.505-13.52,34.53-15.275c1.845-0.293,3.588-0.57,5.086-0.855
		c0.394-0.076,0.723-0.287,0.961-0.572c0.044,0.197,0.09,0.375,0.141,0.51c0.763,2.035,2.29,3.002,3.517,3.777
		c1.762,1.115,2.826,1.789,2.35,5.346c-0.387,2.91-3.615,7.447-6.463,11.447c-4.456,6.262-8.304,11.668-5.613,15.125
		c1.498,1.926,4.848,3.182,9.959,3.734c1.604,0.172,3.494,0.27,5.445,0.27c4.988,0,10.365-0.635,12.31-2.256
		c2.122-1.768,3.849-7.979,6.243-17.252c1.013-3.924,1.971-7.631,2.625-9.119c0.979-1.246,7.246-1.893,13.568-2.256
		c1.476,5.139,7.344,24.803,12.059,29.518c1.348,1.348,3.208,2.023,5.511,2.023c2.163,0,4.715-0.594,7.604-1.783
		c4.275-1.762,8.396-4.49,9.608-5.701c0.86-0.861,2.861-2.879-10.421-25.936c4.555-2.42,9.127-9.732,9.672-10.625
		c0.314-0.513,0.327-1.157,0.035-1.682v0h6.302v26.632c0,3.85,4.525,6.434,8.751,6.434c1.565,0,2.941-0.365,3.975-1.059
		c1.314-0.881,2.039-2.26,2.039-3.885v-28.122h34.082c3.67,0,6.674-4.056,8.714-7.945h25.548c0.041,0,0.08-0.009,0.12-0.013
		c0.373,0.754,0.855,1.356,1.478,1.745c2.726,1.704,13.472,2.061,22.008,2.061c6.958,0,15.291-0.282,17.146-0.899
		c1.823-0.608,2.447-2.992,2.759-4.733c0.866-4.861,0.515-15.813-2.245-18.021c-2.187-1.75-16.367-2.012-24.625-2.012
		c-6.043,0-13.534,0.144-14.905,0.829c-0.447,0.224-0.771,0.635-0.882,1.123c-0.222,0.968-0.536,2.436-0.841,4.163h-17.884
		c-0.174-1.913-0.887-3.694-2.952-4.383c-0.302-0.101-1.351-0.208-2.971-0.319c-1.423-8.069-11.45-16.864-15.248-16.864
		c-0.044,0-0.087,0.001-0.129,0.003c-1.311,0.073-2.226,1.05-2.226,2.378v13.745c-14.187-0.442-33.281-0.84-49.395-1.015
		c-0.296-0.003-0.58-0.006-0.874-0.009c-1.371-1.722-9.979-12.29-15.651-13.836c-5.135-1.4-19.424-1.808-21.725-0.275
		c-0.79,0.526-2.219,1.484-0.152,14.096c-3.623,0.051-6.856,0.12-9.749,0.201c-0.046-0.147-0.106-0.292-0.196-0.426
		c-0.77-1.152-7.72-11.256-13.957-10.668c-6.286,0.571-6.141,6.58-6.023,11.408c0.008,0.321,0.009,0.643,0.016,0.966
		c-3.69,0.529-4.388,1.063-4.792,1.373c-0.615,0.473-1.158,1.607-1.634,3.168c-0.078-0.015-0.156-0.032-0.238-0.036
		c-15.507-0.822-66.455-3.268-71.031-0.218c-5.906,3.938-7.2,26.355-7.2,34.66c0,2.381-0.121,4.738-0.238,7.021
		c-0.342,6.674-0.637,12.438,2.408,15.324C34.644,208.512,36.281,209.092,38.311,209.092z M175.678,215.625
		c-2.638,1.082-7.375,2.592-9.479,0.486c-3.528-3.529-8.724-19.559-10.992-27.326c2.556-0.111,4.959-0.186,6.834-0.242
		c5.048-0.154,8.574-0.275,10.819-0.541c0.036,0.113,0.083,0.227,0.145,0.334c5.227,9.045,10.728,19.967,10.908,22.564
		C182.793,211.836,179.504,214.049,175.678,215.625z M203.569,202.893c0,0.516-0.166,0.846-0.555,1.107
		c-0.477,0.318-1.228,0.492-2.116,0.492c-2.449,0-5.407-1.377-5.407-3.09v-26.632h8.078V202.893z M240.994,171.428h-53.776
		l1.165-12.031c4.514,0.059,18.257,0.222,32.013,0.228c15.289,0.004,23.931-0.163,28.929-0.42
		C247.617,164.295,243.916,171.428,240.994,171.428z M279.137,148.697c1.664-0.188,5.786-0.4,12.76-0.4
		c12.328,0,21.05,0.659,22.556,1.308c1.646,2.017,1.914,15.037,0.359,16.981c-1.286,0.294-7.387,0.69-15.95,0.69
		c-12.197,0-19.04-0.805-20.237-1.552C277.111,164.777,277.37,156.963,279.137,148.697z M256.525,157.986
		c0.319-0.314,0.539-0.827,0.539-1.274c0-0.329,0.066-0.894,0.137-1.491c0.029-0.254,0.061-0.528,0.091-0.81h17.462
		c-0.398,3.04-0.619,6.358-0.276,9.071h-23.201c0.612-1.461,1.032-2.66,1.232-3.262c0.14-0.418,0.104-0.854-0.066-1.225
		C255.802,158.697,256.175,158.332,256.525,157.986z M237.201,133.193c2.797,1.458,9.369,7.229,10.824,12.976
		c-2.869-0.144-6.563-0.29-10.824-0.433V133.193z M148.375,133.216c2.712-0.58,13.872-0.537,18.686,0.776
		c3.288,0.897,8.833,6.711,12.15,10.569c-11.914-0.105-21.706-0.099-29.761-0.014C148.692,139.853,148.158,134.867,148.375,133.216z
		 M119.479,145.023c-0.143-5.879,0.251-7.75,2.985-7.999c2.911-0.249,7.275,4.275,9.951,7.891c-5.776,0.209-9.93,0.478-12.925,0.765
		C119.485,145.46,119.485,145.242,119.479,145.023z M113.437,150.072c2.158-1.237,15.689-1.861,33.554-2.094
		c0.305,0.29,0.704,0.475,1.141,0.474c0.098,0,0.197-0.008,0.296-0.026c0.354-0.063,0.661-0.237,0.896-0.476
		c40.019-0.438,99.494,0.97,104.051,1.906c1.049,0.35,0.683,3.474,0.506,4.975c-0.028,0.238-0.054,0.466-0.077,0.683
		c-6.413,0.989-43.678,0.858-66.912,0.521c-0.008,0-0.016,0-0.024,0c-0.859,0-1.581,0.652-1.662,1.51l-1.492,15.394
		c-0.032,0.339,0.04,0.676,0.201,0.969l-59.104-0.493c-0.005,0-0.01,0-0.014,0c-0.917,0-1.664,0.739-1.671,1.658
		c-0.008,0.923,0.734,1.678,1.657,1.684l56.497,0.473c-2.174,3.029-5.176,6.469-7.354,7.195c-1.361,0.453-6.761,0.619-11.985,0.777
		c-17.664,0.539-25.285,1.297-26.754,4.6c-0.797,1.797-1.743,5.457-2.836,9.695c-1.381,5.352-3.695,14.309-5.146,15.52
		c-1.208,1.006-8.523,1.957-15.257,1.23c-5.84-0.631-7.354-2.043-7.68-2.461c-1.162-1.494,2.966-7.297,5.698-11.135
		c3.224-4.529,6.557-9.213,7.055-12.943c0.757-5.682-1.921-7.375-3.877-8.613c-1.153-0.73-1.823-1.189-2.175-2.127
		C109.591,175.299,111.548,152.577,113.437,150.072z M34.359,192.207c0.12-2.322,0.243-4.727,0.243-7.191
		c0-14.953,2.669-29.85,5.684-31.862c3.216-1.706,37.693-0.895,68.652,0.739c-1.372,7.066-1.887,17.9-1.531,23.325
		c-0.361-0.264-0.824-0.387-1.295-0.297c-1.449,0.275-3.168,0.549-4.987,0.838c-11.62,1.85-29.182,4.643-36.833,16.797
		c-6.473,10.279-12.755,10.533-20.029,10.828c-1.632,0.066-3.32,0.135-5.051,0.316c-1.619,0.172-2.758-0.078-3.483-0.764
		C33.801,203.109,34.072,197.813,34.359,192.207z"/>
	<path fill="#5A4A42" d="M46.791,194.543c0.177,0.061,0.36,0.09,0.541,0.09c0.47,0,0.929-0.199,1.251-0.564
		c0.112-0.125,11.278-12.648,22.674-16.922c3.447-1.292,7.04-2.452,10.513-3.573c10.479-3.382,16.452-5.468,17.336-9.007
		c0.136-0.544,0.013-1.115-0.338-1.564c-1.399-1.792-12.651-2.169-21.843-2.169c-11.022,0-24.79,0.63-27.795,3.636
		c-4.762,4.763-3.722,24.662-3.465,28.602C45.708,193.744,46.152,194.324,46.791,194.543z M51.492,166.832
		c1.321-1.32,10.48-2.656,25.432-2.656c8.319,0,14.71,0.414,17.753,0.828c-2.625,1.739-9.006,3.799-13.935,5.389
		c-3.511,1.133-7.141,2.305-10.66,3.625c-8.763,3.285-17.107,10.811-21.269,14.967C48.546,180.475,49.026,169.299,51.492,166.832z"
		/>
</g>
</svg>
