<?xml version="1.0" encoding="utf-8"?>
<!-- Generator: Adobe Illustrator 16.0.0, SVG Export Plug-In . SVG Version: 6.00 Build 0)  -->
<!DOCTYPE svg PUBLIC "-//W3C//DTD SVG 1.1 Tiny//EN" "http://www.w3.org/Graphics/SVG/1.1/DTD/svg11-tiny.dtd">
<svg version="1.1" baseProfile="tiny" id="Layer_1" xmlns="http://www.w3.org/2000/svg" xmlns:xlink="http://www.w3.org/1999/xlink"
	 x="0px" y="0px" width="350px" height="350px" viewBox="0 0 350 350" overflow="scroll" xml:space="preserve">
<g>
	<path d="M15.828,154.632c-0.063-0.788,0.193-1.507,0.451-2.223c0.199-0.55,0.713-0.886,1.305-0.87
		c0.575,0.017,1.149,0.08,1.724,0.097c0.597,0.019,1.195,0.005,1.793,0.005c0.444,0,0.901-0.067,1.329,0.016
		c0.996,0.194,1.975-0.087,2.961-0.02c0.017,0.001,0.035-0.001,0.051-0.005c0.609-0.169,1.202-0.198,1.714,0.226
		c0.71-0.434,1.698-0.449,2.149,0.047c0.626-0.456,1.344-0.396,2.051-0.331c0.182,0.016,0.37,0.157,0.521,0.282
		c0.175,0.146,0.346,0.269,0.578,0.295c0.285,0.03,0.568,0.099,0.853,0.095c2.129-0.02,29.752,0.003,31.136,0.003
		c0.17,0,0.34,0,0.531,0c0.14,0.171,0.276,0.338,0.419,0.513c0.093,0,0.177,0,0.262,0c2.203,0,4.406-0.002,6.609,0.005
		c0.248,0,0.464-0.053,0.681-0.169c0.455-0.242,10.698-0.346,11.604-0.352c0.129-0.001,0.259-0.03,0.39-0.045
		c0.026-0.103,0.053-0.167,0.055-0.231c0.019-0.868,0.684-15.668,0.716-16.552c0.004-0.103,0.004-0.205,0.006-0.307
		c0.02-0.976,0.535-1.672,1.322-2.153c0.946-0.577,1.951-0.578,2.9-0.003c0.561,0.34,1.11,0.728,1.575,1.185
		c0.48,0.47,0.845,1.055,1.272,1.581c0.156,0.192,0.369,0.34,0.516,0.537c0.594,0.803,1.168,1.621,1.757,2.426
		c0.87,1.189,1.751,2.37,2.616,3.561c1.024,1.411,2.035,2.832,3.055,4.245c0.083,0.114,0.202,0.202,0.312,0.31
		c-0.024-0.502-0.046-0.973-0.066-1.394c0.212-0.348,0.485-0.433,0.815-0.432c1.469,0.007,2.937-0.01,4.406,0.009
		c0.767,0.01,1.271,0.462,1.681,1.117c0.108,0.026,0.267,0.063,0.444,0.105c0.105-0.444-0.031-0.941,0.359-1.175
		c0.945-0.208,1.689,0.025,2.329,0.768c0.019,0.06,0.067,0.216,0.125,0.403c0.205-0.013,0.382-0.024,0.555-0.035
		c0.061-0.383,0.112-0.714,0.157-0.996c0.31-0.275,0.632-0.156,0.928-0.196c0.549-0.076,0.953,0.189,1.308,0.548
		c0.165,0.166,0.284,0.375,0.434,0.577c0.174-0.021,0.356,0.22,0.578-0.015c0.116-0.327-0.092-0.774,0.323-1.105
		c0.355,0,0.764-0.013,1.171,0.007c0.127,0.005,0.28,0.06,0.371,0.146c0.306,0.286,0.667,0.53,0.81,0.943h0.738v-0.854
		c0.088-0.094,0.168-0.179,0.231-0.246c0.345,0,0.635,0.013,0.924-0.003c0.35-0.02,0.64,0.125,0.875,0.346
		c0.227,0.215,0.401,0.485,0.618,0.756h0.708c0.023-0.389-0.055-0.769,0.221-1.099c0.37,0,0.745-0.011,1.119,0.005
		c0.13,0.006,0.294,0.039,0.378,0.123c0.304,0.304,0.757,0.483,0.822,0.976h0.879c-0.104-0.376-0.026-0.708,0.084-1.085
		c0.462-0.029,0.918-0.032,1.373,0.001c0.08,0.005,0.17,0.051,0.229,0.107c0.302,0.286,0.691,0.508,0.72,0.975h0.819
		c0.074-0.369,0.141-0.71,0.213-1.072h1.524c0.412,0.257,0.595,0.711,0.857,1.103c0.307-0.042,0.621,0.088,0.826-0.058
		c0.057-0.385,0.103-0.691,0.156-1.043c0.542-0.055,1.046-0.034,1.527-0.021c0.397,0.358,0.541,0.566,0.761,1.094h0.896
		c0.073-0.365,0.141-0.706,0.206-1.03c0.293-0.121,0.551-0.065,0.802-0.075c0.253-0.009,0.507-0.001,0.723-0.001
		c0.209,0.254,0.381,0.463,0.543,0.661c0.043,0.154,0.081,0.295,0.123,0.443c0.368,0.026,0.7,0.076,1.033-0.033
		c0-0.361,0.008-0.7,0.229-1.048c0.459-0.042,0.948-0.025,1.431-0.012c0.283,0.348,0.599,0.657,0.662,1.113
		c0.367,0,0.703,0.032,1.05-0.023c0.023-0.385,0.001-0.748,0.239-1.075c0.449,0,0.906,0,1.363,0c0.37,0.25,0.584,0.6,0.632,1.071
		h1.118c0.058-0.365,0.114-0.71,0.172-1.074h1.599c0.176,0.349,0.355,0.706,0.546,1.082h1.057c0.066-0.38,0.129-0.738,0.191-1.096
		h1.429c0.388,0.261,0.48,0.675,0.569,1.093c0.433,0.032,0.832,0.071,1.197-0.015c0.065-0.384,0.124-0.729,0.18-1.067h4.264
		c0.255,0.417,0.448,0.835,0.428,1.338c-0.018,0.438,0.002,0.877,0.005,1.326c0.232,0.077,0.419,0.141,0.601,0.2
		c0.241-0.207,0.162-0.598,0.492-0.708c1.595-0.219,3.194-0.438,4.674-0.64c0.466,0.172,0.35,0.509,0.421,0.753
		c0.074,0.243,0.067,0.51,0.098,0.767c0.118-0.101,0.163-0.206,0.156-0.308c-0.039-0.571,0.112-1.139,0.01-1.713
		c-0.041-0.232-0.006-0.478-0.007-0.716c-0.001-0.229,0.049-0.437,0.227-0.584c0.68-0.08,3.219-0.057,3.619,0.041
		c0.091,0.258,0.188,0.539,0.287,0.82h1.478c0.063-0.304,0.121-0.595,0.184-0.899c0.48,0.003,0.935-0.023,1.391,0.021
		c0.073,0.156,0.147,0.273,0.182,0.401c0.038,0.141,0.041,0.292,0.057,0.421c0.543,0.122,1.319,0.103,1.66-0.038
		c0.021-0.253,0.042-0.516,0.066-0.785h1.508c0.057,0.287,0.113,0.56,0.166,0.822c0.487,0.119,1.275,0.104,1.641-0.032
		c0.021-0.252,0.042-0.516,0.064-0.785c0.269-0.024,0.498-0.045,0.767-0.069c0.059-0.855-0.01-1.671,0.043-2.449
		c0.12-0.122,0.227-0.207,0.302-0.313c0.228-0.324,0.577-0.421,0.929-0.464c1.017-0.124,2.041-0.197,3.057-0.327
		c0.485-0.063,0.961-0.218,1.372-0.5c0.822-0.564,1.454-1.272,1.624-2.303c0.03-0.182,0.072-0.363,0.122-0.542
		c0.129-0.467,0.067-0.899-0.187-1.318c-0.298-0.495-0.576-1.002-0.854-1.508c-0.435-0.79-0.854-1.586-1.292-2.375
		c-0.594-1.069-1.206-2.129-1.793-3.202c-0.596-1.086-1.172-2.185-1.751-3.279c-0.166-0.313-0.332-0.627-0.478-0.951
		c-0.494-1.105,0.17-2.186,1.052-2.52c0.745-0.282,1.558-0.303,2.359-0.204c0.15,0.019,0.299,0.041,0.45,0.06
		c0.452,0.059,0.903,0.111,1.354,0.174c0.534,0.075,1.065,0.204,1.601,0.228c1.377,0.063,2.756,0.08,4.135,0.116
		c0.119,0.002,0.244-0.019,0.356,0.011c0.729,0.187,1.483,0.055,2.221,0.183c0.531,0.091,1.079,0.081,1.621,0.116
		c0.033,0.003,0.066,0.009,0.101,0.014c0.38,0.063,0.76,0.137,1.144,0.185c0.617,0.079,1.238,0.137,1.857,0.211
		c0.167,0.02,0.329,0.074,0.495,0.096c0.567,0.077,1.14,0.128,1.704,0.223c0.662,0.111,1.315,0.287,1.979,0.38
		c0.819,0.117,1.62,0.304,2.418,0.517c0.354,0.094,0.701,0.215,1.021,0.315c0.249-0.161,0.159-0.356,0.097-0.521
		c-0.084-0.217-0.128-0.418-0.019-0.637c0.027-0.056,0.044-0.145,0.019-0.194c-0.158-0.312-0.063-0.633-0.077-0.958
		c0.27-0.224,0.522-0.448,0.792-0.649c0.12-0.09,0.268-0.169,0.413-0.195c0.497-0.09,0.998-0.189,1.503-0.217
		c0.646-0.036,1.303-0.06,1.944,0.006c0.686,0.071,1.444,0.012,1.941,0.667c0.028,0.037,0.09,0.05,0.136,0.069
		c0.232,0.097,0.327,0.279,0.337,0.521c0.003,0.116,0.016,0.233,0.025,0.386c0.118,0.029,0.243,0.104,0.333,0.074
		c0.484-0.165,0.979-0.063,1.469-0.086c0.38-0.017,0.732,0.083,0.99,0.253c0.501,0.056,0.945,0.073,1.372,0.161
		c0.53,0.108,1.058,0.254,1.46,0.662c0.246,0.249,0.538,0.431,0.862,0.563c0.33-0.075,0.665-0.229,1.02,0.146
		c0.022,0.399,0.049,0.868,0.079,1.388c0.182,0,0.349,0,0.515,0c0.403,0.001,0.819-0.061,1.207,0.018
		c0.529,0.106,1.051,0.064,1.576,0.079c0.478,0.013,0.955,0.002,1.434,0.003c0.12,0,0.254-0.026,0.355,0.016
		c0.571,0.235,1.169,0.17,1.761,0.191c0.42,0.015,0.815-0.014,1.118-0.311c0.305,0,0.577,0,0.851,0c0.257,0,0.485,0.098,0.61,0.311
		c0.128,0.213,0.225,0.459,0.272,0.704c0.155,0.791,0.21,1.597,0.204,2.398c-0.009,1.395,0.072,2.789-0.069,4.187
		c-0.07,0.689-0.108,1.383-0.235,2.063c-0.076,0.401-0.218,0.812-0.651,0.965c-0.54,0.19-1.094,0.293-1.578-0.174
		c-0.799,0.054-1.601-0.079-2.392,0.119c-0.211,0.053-0.437,0.094-0.65,0.08c-0.387-0.027-0.771,0.008-1.154,0.002
		c-0.527-0.01-1.05,0.004-1.577-0.066c-0.537-0.071-1.092-0.016-1.625-0.016c-0.585,0.257-0.683,0.873-0.984,1.295
		c-0.929,0.091-1.83-0.007-2.732,0.111c-0.687,0.09-1.392,0.045-2.097-0.124c-0.327-0.228-0.365-0.663-0.617-0.962
		c-0.661-0.232-1.34-0.088-1.999-0.121c-0.144,0.33-0.271,0.614-0.289,0.95c-0.023,0.353-0.149,0.692-0.385,0.916
		c-0.437,0.208-0.826,0.396-1.207,0.578c-0.029,0.256-0.06,0.474-0.076,0.692c-0.023,0.303-0.11,0.626-0.04,0.908
		c0.131,0.527,0.053,1.05,0.083,1.574c0.014,0.233-0.063,0.433-0.252,0.612c-0.168,0.012-0.351,0.024-0.557,0.039
		c-0.012,0.311-0.06,0.59,0.038,0.901h0.871c0.057,0.317,0.107,0.607,0.159,0.901h1.305c0.118-0.285,0.234-0.563,0.367-0.886
		c0.18-0.006,0.362-0.021,0.545-0.017c2.335,0.047,4.67-0.061,7.007,0.074c1.497,0.087,3.004,0.002,4.507,0.021
		c1.548,0.019,3.097,0.061,4.646,0.114c0.28,0.009,0.563,0.104,0.833,0.191c0.149,0.049,0.329,0.113,0.406,0.242
		c0.279,0.461,0.071,1.028,0.106,1.518c0.005,0.05,0.016,0.1,0.026,0.149c0.146,0.701,0.161,1.381-0.316,1.983
		c-0.007,0.009,0.002,0.034,0.009,0.088c0.143,0.008,0.293,0.031,0.439,0.021c0.646-0.047,1.242,0.144,1.82,0.388
		c0.215,0.09,0.417,0.122,0.641,0.127c1.185,0.029,2.368,0.067,3.552,0.103c0.05,0.001,0.099,0.023,0.199,0.047
		c0.075,0.172,0.674,0.881,2.234,0.881c0.274-0.203,0.575-0.214,0.888-0.214c9.667,0.002,19.332,0.001,28.999,0
		c0.168,0,0.338,0,0.455,0c0.611-0.619,1.203-1.089,2.102-1.04c0.637,0.035,58.546-0.17,60.295,0.019
		c0.419,0.045,0.84,0.106,1.224,0.302c0.195,0.1,0.356,0.327,0.571,0.327c4.4,0,2.688,35.042,2.52,36.525
		c-0.096,0.845-0.254,1.665-0.531,2.466c-0.258,0.745-0.728,1.359-1.351,1.815c-0.506,0.371-4.276,2.021-6.432-0.137
		c-0.2-0.27-0.388-0.573-0.647-0.773c-1.251-0.96-18.519-13.446-18.914-13.733c-0.041,0.697-0.072,1.32-0.118,1.942
		c-0.074,0.999-0.425,1.636-1.494,1.809c-2.942,0.27-4.231-0.872-4.481-1.046c-0.672-0.461-1.349-0.915-2.013-1.386
		c-1.742-1.237-6.607-4.441-6.948-4.44c-0.335,0-0.669,0.003-1.043,0.006v2.191c-0.476,0.167-3.737,0.216-3.883-0.092
		c-0.238-0.507-0.112-1.158-0.173-1.799c-0.172,0-0.339,0.012-0.506-0.002c-0.674-0.059-5.362,0.256-6.101-1.066
		c-0.135-0.118-0.315-0.223-0.487-0.25c-0.617-0.093-1.244-0.129-1.861-0.226c-0.465-0.074-0.93-0.178-1.377-0.325
		c-0.411-0.136-0.736-0.396-0.907-0.835c-0.187-0.474-0.404-0.939-0.652-1.382c-0.264-0.472-0.576-0.919-0.874-1.372
		c-0.156-0.239-0.324-0.47-0.486-0.702c-0.26,0.048-0.489,0.092-0.703,0.131c-0.27-0.175-0.544-0.297-0.744-0.497
		c-0.277-0.276-4.298-2.825-4.354-3.609c-0.197,0-0.367,0-0.538,0c-3.772-0.002-7.548-0.003-11.322-0.005
		c-1.998,0-3.996-0.009-5.993-0.001c-0.331,0-0.585-0.103-0.819-0.332c-0.49-0.479-0.943-0.978-1.297-1.569
		c-0.171-0.286-0.411-0.53-0.6-0.768c-0.238,0-0.407,0-0.579,0c-1.635,0.003-3.27,0.011-4.904,0.089
		c-1.107,0.053-2.22,0.013-3.331,0.024c-0.262,0.003-0.509-0.016-0.673-0.201h-1.566c-0.231,0.443-0.319,0.527-0.904,0.886
		c-0.792,0.045-1.555,0.088-2.318,0.135c-0.046,0.002-0.089,0.039-0.159,0.071c-0.028,0.538-0.06,1.079-0.085,1.621
		c-0.008,0.187,0.001,0.375-0.006,0.563c-0.032,0.867-0.048,1.736-0.113,2.599c-0.024,0.316-0.014,0.697-0.39,0.866
		c-0.459-0.046-0.904-0.086-1.261,0.219c-0.306,0-0.581-0.019-0.852,0.003c-0.437,0.038-0.879,0.074-1.306,0.164
		c-0.701,0.148-1.328,0.476-1.963,0.807c-0.704,0.366-1.229,0.899-1.698,1.501c-0.523,0.671-0.904,1.426-1.078,2.146
		c0.072,0.292,0.141,0.48,0.157,0.672c0.053,0.602-0.123,1.229,0.195,1.804c0.021,0.04,0.008,0.101,0.008,0.152
		c-0.003,0.805,0.309,1.528,0.655,2.216c0.342,0.679,0.793,1.301,1.207,1.938c0.537,0.821,1.091,1.631,1.632,2.45
		c0.608,0.918,1.204,1.844,1.814,2.76c0.965,1.451,1.935,2.899,2.906,4.348c0.706,1.055,1.42,2.105,2.13,3.158
		c0.55,0.813,1.095,1.628,1.653,2.436c0.827,1.197,1.624,2.415,2.498,3.582c0.516,0.689,0.964,1.431,1.443,2.149
		c0.131,0.197,0.266,0.391,0.391,0.59c0.271,0.43,0.558,0.851,0.798,1.296c0.174,0.321,0.11,0.597-0.147,0.831
		c-0.107,0.101-0.249,0.188-0.392,0.227c-0.435,0.122-0.841,0.319-1.314,0.357c-0.494,0.039-0.973,0.253-1.464,0.377
		c-1.062,0.267-2.127,0.525-3.19,0.784c-1.162,0.283-2.326,0.573-3.49,0.849c-1.032,0.242-2.068,0.478-3.105,0.7
		c-0.593,0.128-1.199,0.202-1.787,0.342c-0.463,0.11-0.931,0.161-1.396,0.241c-1.231,0.212-2.099-0.139-2.697-1.148
		c-0.275-0.465-0.339-0.72,0.178-1.155c0.23-0.193,0.378-0.414,0.403-0.672c0.044-0.462,0.168-0.954-0.188-1.371
		c-0.043-0.048-0.053-0.123-0.079-0.184c-0.179-0.438-0.303-0.913-0.555-1.304c-0.447-0.697-0.813-1.435-1.2-2.16
		c-0.604-1.13-1.248-2.237-1.874-3.354c-0.19-0.339-0.496-0.549-0.689-0.879c-0.225-0.379-0.637-0.644-0.902-1.006
		c-0.358-0.493-0.728-0.97-1.211-1.349c-0.269-0.019-0.538-0.04-0.831-0.062c-0.36,0.345-0.743-0.025-1.106,0.007
		c-0.437-0.504-0.455-0.741-0.133-1.25c0.144-0.229,0.281-0.464,0.419-0.697c0.55-0.916,0.525-1.832-0.017-2.742
		c-0.077-0.132-0.164-0.257-0.238-0.392c-0.587-1.053-1.172-2.107-1.774-3.195c-0.146-0.028-0.309-0.081-0.472-0.088
		c-1.142-0.038-2.281-0.068-3.422-0.098c-0.29-0.008-0.58-0.013-0.87-0.001c-0.264,0.012-0.497-0.053-0.733-0.173
		c-0.159-0.081-0.351-0.135-0.529-0.137c-1.718-0.012-3.437-0.003-5.155-0.017c-0.524-0.003-1.048-0.077-1.573-0.08
		c-1.946-0.011-3.894-0.004-5.786-0.004c-0.184,0.085-0.322,0.149-0.458,0.212c-0.566,0.264-1.151,0.237-1.746,0.132
		c-0.106-0.019-0.22-0.003-0.342-0.003c-1.499,26.54-5.862,40.925-6.284,42.471c-0.087,0.323-0.198,0.654-0.209,0.984
		c-0.015,0.459-0.133,0.867-0.354,1.229c-0.167,0.104-0.306,0.203-0.457,0.28c-0.289,0.147-0.607,0.298-0.919,0.136
		c-0.367-0.19-0.758-0.26-1.146-0.359c-0.506-0.13-1.005-0.285-1.505-0.437c-0.412-0.125-0.799-0.397-1.263-0.183
		c-0.055,0.026-0.137,0.011-0.201-0.008c-0.894-0.241-1.784-0.487-2.651-0.724c-0.03-0.157-0.048-0.254-0.065-0.345
		c-0.898-0.255-1.773-0.506-2.651-0.754c-1.22-0.343-2.441-0.679-3.66-1.026c-0.763-0.22-1.521-0.461-2.283-0.688
		c-0.399-0.121-0.801-0.233-1.202-0.349l0,0c-0.188,0.183-0.399,0.105-0.607,0.053c-0.391-0.097-0.782-0.195-1.153-0.287
		c-0.303-0.573-0.948-0.471-1.426-0.786c0.017-0.121,0.021-0.27,0.059-0.411c0.221-0.813,6.699-22.276,6.008-38.397
		c-0.055-1.259-0.077-2.518-0.114-3.776c-0.002-0.082-0.021-0.165-0.041-0.304c-0.184-0.015-0.362-0.038-0.54-0.042
		c-0.639-0.01-0.964-0.242-1.174-0.843c-0.04-0.112-0.068-0.228-0.114-0.336c-0.174-0.396-0.036-0.718,0.214-1.028
		c0.253-0.314,0.491-0.644,0.744-0.976c-0.102-2.681,0.105-5.36-0.113-8.034c-0.044-0.522-0.159-0.988-0.548-1.361
		c-0.269-0.258-0.495-0.566-0.79-0.786c-0.365-0.269-0.774-0.485-1.179-0.699c-0.367-0.194-0.706-0.409-0.947-0.755
		c-0.084-0.376-0.11-0.774-0.484-1.023c-0.084-0.055-0.115-0.202-0.151-0.314c-0.145-0.445-0.102-0.908-0.115-1.365
		c-0.003-0.102-0.038-0.203-0.065-0.336c-0.065,0.069-0.105,0.09-0.107,0.115c-0.039,0.576-0.069,1.152-0.116,1.728
		c-0.023,0.304-0.054,0.609-0.122,0.905c-0.03,0.131-0.159,0.24-0.248,0.364c-0.442-0.057-0.844-0.102-1.244-0.162
		c-0.55-0.084-1.102-0.172-1.65-0.271c-0.38-0.071-0.759-0.157-1.136-0.247c-0.313-0.074-0.619-0.18-0.932-0.245
		c-0.157-0.031-0.326-0.002-0.477-0.001c-0.058,0.677-0.109,1.3-0.164,1.976c-0.217,0.021-0.412,0.058-0.607,0.06
		c-1.659,0.008-21.186-0.106-24.96-0.101c-0.35,0-0.701,0.075-1.046,0.116c-0.042,0.088-0.076,0.148-0.097,0.21
		c-0.242,0.685-0.438,1.39-0.731,2.054c-0.329,0.743-0.734,1.453-1.125,2.167c-0.248,0.455-0.528,0.894-0.843,1.419
		c-0.171,0.046-0.428,0.12-0.688,0.184c-0.573,0.138-1.146,0.269-1.719,0.409c-0.312,0.076-0.524,0.281-0.712,0.537
		c-0.451,0.614-0.6,1.329-0.627,2.055c-0.026,0.743,0.125,1.475,0.372,2.182c0.13,0.376,0.144,0.796,0.373,1.043
		c0.059,0.293,0.104,0.506,0.146,0.721c0.106,0.528,0.224,1.054,0.313,1.585c0.063,0.365,0.082,0.738,0.124,1.107
		c0.061,0.554,0.15,1.104,0.181,1.658c0.023,0.42-0.604,16.502-0.409,16.802c-0.114,0.166-0.254,0.374-0.395,0.58v0.447
		c0.142,0.162,0.274,0.313,0.439,0.5c-0.204,0.247-0.395,0.48-0.629,0.768c-0.044,0.159-0.107,0.386-0.185,0.667
		c-0.18,0.026-0.374,0.075-0.569,0.081c-0.512,0.013-1.025,0.005-1.537,0.016c-0.063,0.001-0.124,0.054-0.28,0.127
		c0.597,0.115,1.129-0.016,1.605,0.289c0.013,0.231,0.975,8.357,0.868,8.844c-0.102,0.469-0.514,0.722-0.958,0.765
		c-0.573,0.058-2.253,0.179-2.488,0.209c-0.256,0.812,0.054,1.917-0.625,2.364c-1.389,0.915-3.604,0.845-4.991-0.151
		c-0.1-0.07-0.159-0.248-0.186-0.399c-0.059-0.331-0.075-0.672-0.114-1.008c-0.031-0.266-0.069-0.528-0.108-0.823
		c-0.225-0.03-3.869,0.034-3.35-1.464c0.126-0.364,0.125-0.764,0.179-1.146c0.041-0.284,0.108-0.568,0.099-0.853
		c-0.023-0.735,0.166-1.444,0.243-2.168c0.057-0.534,0.186-1.063,0.18-1.608c-0.002-0.163,0.023-0.329,0.037-0.523
		c-0.102-0.03-0.234-0.121-0.318-0.087c-0.407,0.161-0.831-0.021-1.238,0.083c-0.08,0.021-0.171,0.01-0.254-0.003
		c-0.302-0.041-0.377-0.145-0.406-0.497c-0.009-0.113-0.055-0.225-0.083-0.333c0.876-1.212,1.474-2.519,1.645-4.031
		c-0.188-0.083-0.425-0.088-0.562-0.247c-0.218-0.255-0.195-0.725,0.103-0.908c0.156-0.096,0.341-0.066,0.51-0.1
		c0.109-0.607,0.05-1.172-0.104-1.734c-0.198-0.172-0.593-0.105-0.655-0.448c-0.168-0.93-0.158-1.038,0.164-1.305
		c0.16-0.134,0.386-0.135,0.607-0.212c0.101-0.553,0.379-1.071,0.326-1.66c-0.232-0.122-0.587-0.123-0.608-0.49
		c-0.009-0.154-0.041-0.431,0.106-0.602c0.161-0.188,0.422-0.145,0.619-0.213c-0.017-0.484,0.048-0.955-0.083-1.43
		c-0.062-0.223-0.146-0.354-0.355-0.443c-0.145-0.062-0.31-0.137-0.365-0.241c-0.129-0.245-0.064-0.84,0-1.11
		c0.084-0.352,0.477-0.353,0.749-0.467c0.15-0.533,0.358-1.047,0.364-1.591c-0.223-0.101-0.479-0.097-0.59-0.27
		c-0.101-0.156-0.097-0.586,0-0.747c0.125-0.207,0.446-0.234,0.728-0.382c-0.051-0.543-0.104-1.094-0.156-1.654
		c-0.302-0.104-0.655-0.195-0.702-0.536c-0.057-0.403-0.245-0.978,0.159-1.289c0.137-0.106,0.339-0.109,0.537-0.174
		c0.228-0.456,0.306-0.97,0.391-1.487c-0.183-0.105-0.438-0.123-0.547-0.311c-0.112-0.191-0.129-0.706,0-0.886
		c0.134-0.186,0.421-0.145,0.642-0.218c0.017-0.079,0.063-0.166,0.045-0.239c-0.127-0.544,0.234-6.153-0.809-7.882
		c-0.395-0.657-1.002-1.1-1.581-1.485c-0.73-0.046-1.408-0.116-2.086-0.125c-1.793-0.02-3.586-0.012-5.379-0.019
		c-0.152,0-0.304-0.02-0.456-0.032c-0.265-0.021-0.531-0.042-0.839-0.067c0.065,0.138,0.054,0.284,0.138,0.292
		c5.942,0.581-2.215,9.124-2.907,9.228c-0.467,0.069-0.94,0.102-1.457,0.157c-0.386,0.645-0.784,1.465-1.673,1.475
		c-0.21,0.003-0.443-0.053-0.636-0.099c-0.597-0.146-0.706-0.903-1.206-1.103c-0.125-0.051-0.254,0.006-0.372-0.003
		c-0.358-0.027-0.611,0.104-0.796,0.426c-0.133,0.233-0.315,0.449-0.514,0.629c-0.435,0.397-1.848,0.336-2.015,0.209
		c-0.277-0.21-0.363-0.63-0.568-0.985c-0.339,0.327-0.658,0.632-0.988,0.95c-0.098,0-0.199,0-0.301,0
		c-1.485-0.001-17.538-0.311-18.425-0.31c-1.068,0.003-1.761-0.702-1.697-1.75c0.015-0.253,0.091-0.503,0.093-0.754
		c0.005-0.661-0.098-1.313-0.274-1.948c-0.117-0.423-0.272-0.835-0.409-1.252c-0.189-0.579-0.132-1.179-0.117-1.772
		c0.007-0.282,0.076-0.569,0.158-0.839c0.143-0.47,0.343-0.921,0.474-1.394c0.244-0.884-0.025-1.761,0.079-2.7
		c0.041-0.361,0.225-0.741,0.493-0.971c0.31-0.267,0.722-0.35,1.073-0.355c0.421-0.008,7.95,0.149,8.587,0.029
		c-0.216-0.117-0.39-0.213-0.567-0.306c-0.546-0.287-0.847-0.712-0.778-1.354c0.042-0.387,0.045-0.779,0.117-1.159
		c0.035-0.186,0.144-0.422,0.292-0.508c0.482-0.278,0.563-0.728,0.617-1.204c0.027-0.233,0.114-0.462,0.314-0.556
		c0.274-0.128,0.4-0.367,0.541-0.589c0.128-0.201,0.287-0.331,0.498-0.411c0.188-0.072,0.379-0.135,0.537-0.191
		c0.842,0.225,1.594,0.66,2.454,0.588c0.026-0.064,0.048-0.095,0.049-0.125c0.006-0.171,0.014-0.342,0.008-0.513
		c-0.035-1.051,0.087-0.976,0.943-1.381c0.284-0.133,0.582-0.235,0.873-0.352c-0.132-0.108-0.257-0.147-0.381-0.147
		c-2.214,0.002-9.234-0.123-9.655-0.02c-0.382,0.094-0.73-0.069-1.047-0.292c-0.123-0.085-0.262-0.179-0.403-0.201
		c-0.367-0.057-0.739-0.098-1.111-0.104c-0.922-0.014-1.845-0.005-2.767-0.006c-0.974,0-1.947,0.002-2.92-0.002
		c-0.318-0.001-0.605,0.023-0.778,0.36c-0.051,0.099-0.209,0.17-0.332,0.2c-0.138,0.033-0.29,0.007-0.436,0.002
		c-0.315-0.01-0.629-0.036-0.944-0.032c-0.235,0.004-0.47,0.073-0.704,0.068c-0.542-0.013-28.822-0.304-30.264-0.09
		c-0.21,0.03-0.385,0.056-0.511,0.262c-0.125,0.204-0.345,0.258-0.58,0.255c-0.29-0.005-0.581-0.014-0.87,0.001
		c-0.382,0.02-0.744-0.037-1.074-0.207c-0.447,0.208-0.448,0.221-0.994,0.2c-0.33-0.012-0.678,0.105-0.986-0.146
		c-0.076-0.062-0.255-0.02-0.378,0.009c-0.092,0.022-0.17,0.102-0.207,0.125c-0.383,0-0.709,0.021-1.031-0.005
		c-0.538-0.044-1.073-0.166-1.61-0.173c-1.708-0.023-3.416-0.008-5.143-0.008c-0.065,0.057-0.139,0.122-0.223,0.195
		c-0.562-0.034-1.133-0.054-1.699-0.114c-0.152-0.016-0.331-0.126-0.428-0.249c-0.262-0.329-0.536-0.65-0.647-1.081
		c-0.134-0.524-0.275-1.038-0.31-1.587C15.793,155.394,15.859,155.012,15.828,154.632z M322.571,177.538
		c0.046,0.396,0.676,0.519,0.962,0.219c0.305-0.323,0.13-1.77,0.128-1.905c-0.004-0.7,0.007-1.398-0.011-2.096
		c-0.014-0.576-0.055-1.152-0.095-1.728c-0.021-0.315-0.122-0.415-0.529-0.597c-0.307,0.001-0.42,0.242-0.557,0.445
		C322.504,173.752,322.365,175.754,322.571,177.538z M304.817,170.078c0.203,0.017,0.409,0.005,0.613,0.005
		c3.226,0,6.45,0.042,9.673-0.02c1.36-0.026,2.721-0.072,4.082-0.096c0.195-0.003,0.452,0.037,0.634-0.132
		c0.171-0.159,0.208-0.438,0.182-0.625c-0.065-0.496-0.583-0.563-1.017-0.562c-4.658,0.012-9.316,0.014-13.973,0.011
		c-0.405-0.001-0.82,0.076-0.978,0.408C303.749,169.665,304.198,170.029,304.817,170.078z M191.286,177.47
		c0.104,0.926,0.482,1.749,1.077,2.469c0.27,0.326,0.554,0.643,0.85,0.985v0.646c0.311,0.238,0.649,0.295,1.013,0.294
		c2.493-0.002,4.986,0.002,7.478,0.002c0.975,0.002,1.947,0.002,2.92-0.008c0.184-0.002,0.367-0.063,0.55-0.07
		c0.299-0.014,0.508-0.146,0.668-0.394c0.061-0.095,0.167-0.173,0.267-0.233c0.801-0.479,1.427-1.102,1.871-1.942
		c0.455-0.863,0.57-1.731,0.428-2.691c-0.128-0.859-0.517-1.578-1.025-2.232c-0.364-0.468-0.9-0.773-1.425-1.052
		c-0.524-0.279-1.072-0.513-1.614-0.762c-0.055-0.025-0.126-0.018-0.229-0.03c-0.017,0.24,0.12,0.402,0.208,0.571
		c0.123,0.232,0.175,0.468,0.181,0.731c0.021,0.696,0.108,1.392,0.086,2.084c-0.025,0.705-0.154,1.398-0.365,2.088
		c-0.401,1.295-1.28,2.216-2.249,3.111c-0.07,0.007-0.153,0.017-0.237,0.017s-0.167-0.011-0.276-0.021
		c-0.018-0.086-0.041-0.164-0.049-0.244c-0.008-0.084-0.003-0.17-0.003-0.243c0.252-0.362,0.511-0.699,0.728-1.06
		c0.417-0.69,0.677-1.45,0.784-2.241c0.057-0.425,0.003-0.888-0.099-1.309c-0.196-0.802-0.433-1.588-0.939-2.283
		c-0.493-0.677-1.145-1.021-1.925-1.207c-0.706-0.166-1.424-0.078-2.136-0.111c-0.37-0.016-0.738,0.027-1.115-0.062
		c-0.264-0.062-0.566,0.067-0.85,0.063c-1.178-0.017-2.178,0.398-3.054,1.173c-0.491,0.433-0.912,0.902-1.134,1.526
		C191.391,175.82,191.188,176.628,191.286,177.47z M88.733,162.548c0.229,0.175,0.94,0.196,1.373,0.036
		c-0.089-0.107-0.183-0.199-0.25-0.307c-0.062-0.099-0.096-0.215-0.137-0.309c0.049-0.2,0.095-0.379,0.129-0.518
		c0.369-0.569,0.938-0.707,1.504-0.787c0.735-0.105,1.469-0.249,2.22-0.231c0.268,0.006,0.536-0.074,0.805-0.083
		c0.468-0.019,0.908,0.084,1.308,0.434c0.278-0.036,0.579-0.091,0.88-0.107c0.179-0.01,0.362,0.041,0.573,0.067
		c0.201-0.72,0.179-1.41-0.259-2.089c-0.091-0.014-0.205-0.036-0.32-0.045c-1.97-0.146-3.943-0.078-5.915-0.091
		c-0.266-0.002-0.534,0.021-0.795,0.033c-0.326,0.325-0.648,0.644-0.969,0.964c-0.238,0.237-0.29,0.543-0.286,0.878
		c0.007,0.594-0.018,1.188-0.099,1.792C88.577,162.31,88.66,162.437,88.733,162.548z M97.007,151.581
		c-0.178-0.012-0.324-0.03-0.471-0.031c-1.178-0.005-2.356,0-3.534-0.014c-0.491-0.006-0.981-0.066-1.472-0.08
		c-0.526-0.015-1.056-0.034-1.629,0.146c-0.054,0.122-0.127,0.284-0.19,0.425c0.051,0.053,0.062,0.065,0.075,0.077
		c0.013,0.011,0.027,0.026,0.042,0.026c0.136,0.008,0.272,0.02,0.408,0.019c2.186-0.001,4.37-0.004,6.555-0.009
		c0.031,0,0.062-0.026,0.16-0.07C96.968,151.92,96.985,151.772,97.007,151.581z M87.909,148.028c0.16,0.112,0.312,0.218,0.476,0.333
		c1.529,0,3.065-0.011,4.601,0.004c1.173,0.011,2.347,0.061,3.52,0.084c0.619,0.013,0.861-0.058,1.43-0.367
		c0.054-0.097,0.129-0.211,0.186-0.333c0.169-0.368,0.155-0.724-0.081-1.062c-0.301-0.431-0.597-0.865-0.901-1.295
		c-0.744-1.05-1.487-2.102-2.241-3.146c-0.267-0.371-0.573-0.715-0.842-1.085c-0.299-0.411-0.566-0.844-0.862-1.256
		c-0.188-0.261-0.403-0.5-0.614-0.76c-0.465,0-0.908,0-1.35,0c-0.342,0-0.566,0.196-0.748,0.437
		c-0.208,0.767-0.125,1.537-0.142,2.299c-0.007,0.295-0.073,0.563-0.226,0.819c-0.223,0.373-0.548,0.537-0.967,0.545
		c-0.068,0.001-0.136,0-0.206,0.001c-0.573,0.006-0.814,0.145-0.989,0.689c-0.089,0.275-0.187,0.557-0.125,0.885
		c0.061,0.331-0.015,0.686-0.022,1.031C87.793,146.578,87.678,147.309,87.909,148.028z"/>
</g>
</svg>
