<?xml version="1.0" encoding="utf-8"?>
<!-- Generator: Adobe Illustrator 16.0.0, SVG Export Plug-In . SVG Version: 6.00 Build 0)  -->
<!DOCTYPE svg PUBLIC "-//W3C//DTD SVG 1.1 Tiny//EN" "http://www.w3.org/Graphics/SVG/1.1/DTD/svg11-tiny.dtd">
<svg version="1.1" baseProfile="tiny" id="Layer_1" xmlns="http://www.w3.org/2000/svg" xmlns:xlink="http://www.w3.org/1999/xlink"
	 x="0px" y="0px" width="350px" height="350px" viewBox="0 0 350 350" overflow="scroll" xml:space="preserve">
<path d="M307.845,159.892l-1.512,1.627h-32.415l1.038-14.411l-3.256-3.951l-11.614,14.098l-91.351-0.539l0.93-6.664
	c0.155-3.253-3.719-4.648-3.719-4.648l-42.611-1.704c-6.973-0.154-8.213,4.184-8.213,4.184l-6.818,11.466H33.927
	c-5.113,0-5.423,3.873-5.423,3.873c-0.62,23.088,3.718,31.767,3.718,31.767l7.129,0.775l0.774,3.099l2.789-0.62l1.395-4.339
	l45.091-17.2c15.495-6.199,22.777-3.719,22.777-3.719c8.833,1.396,3.565,11.312,3.565,11.312l-12.085,17.82
	c-1.55,3.253,0.464,4.028,0.464,4.028l12.396,0.697c-0.93-3.332,2.479-5.347,2.479-5.347c-0.465-3.563,4.958-6.662,4.958-6.662
	c-0.465-4.184,4.494-7.437,4.494-7.437c6.043,2.789,15.959,0.464,15.959,0.464l2.248,18.981h20.221l2.093-35.562l21.209-0.406
	l2.466,2.645h14.67l2.176-3.014l10.657-0.203l2.999,3.217h14.668l2.604-3.604l19.778-0.379l0.581,6.392h2.905l0.697-7.322
	l1.511-3.603l5.113-0.231l2.44,0.929l32.773-0.233l2.091,1.976l13.249-1.278v-5.578L307.845,159.892z M140.94,185.344h-8.135
	c-2.087,0-3.777-1.691-3.777-3.777c0-1.658,1.074-3.051,2.559-3.559c-0.249,2.363,0.657,4.586,0.657,4.586
	c0.93,1.395,2.169,0,2.169,0c-0.152-1.599,1.023-3.392,2.257-4.804h4.27c2.086,0,3.777,1.689,3.777,3.776
	C144.718,183.652,143.027,185.344,140.94,185.344z M165.017,155.167c0,0-2.015,1.705-3.41,1.705h-35.174
	c0,0-3.873-1.085-3.098-4.649c0,0,0.465-4.183,5.578-4.338l34.399,1.084C163.312,148.968,167.806,149.434,165.017,155.167z
	 M271.585,159.079h-9.529l9.529-9.297V159.079z"/>
</svg>
