<?xml version="1.0" encoding="utf-8"?>
<!-- Generator: Adobe Illustrator 16.0.0, SVG Export Plug-In . SVG Version: 6.00 Build 0)  -->
<!DOCTYPE svg PUBLIC "-//W3C//DTD SVG 1.1//EN" "http://www.w3.org/Graphics/SVG/1.1/DTD/svg11.dtd">
<svg version="1.1" id="Layer_1" xmlns="http://www.w3.org/2000/svg" xmlns:xlink="http://www.w3.org/1999/xlink" x="0px" y="0px"
	 width="350px" height="350px" viewBox="0 0 350 350" enable-background="new 0 0 350 350" xml:space="preserve">
<path id="XMLID_29_" fill-rule="evenodd" clip-rule="evenodd" fill="#404041" d="M72.564,87.287h0.006
	c0.042-0.314,0.314-0.559,0.64-0.559h17.083V73.681c0-1.137,0.979-2.067,2.174-2.067h3.261c1.195,0,2.173,0.93,2.173,2.067v13.047
	h0.091V70.875c0-1.353,1.165-2.46,2.588-2.46h3.882c1.424,0,2.588,1.107,2.588,2.46v15.853h4.438
	c0.093-0.311,0.176-0.552,0.237-0.69c0.345-0.775,1.464-1.206,2.11-1.206s1.163,0.215,1.163,0.215s0.603-1.292,1.507-1.55
	s1.765,0.344,1.765,0.344s0.258-0.603,1.55-0.646c1.292-0.043,1.378,0.603,1.378,0.603s1.119-0.387,1.895,0.086
	c0.775,0.474,1.249,0.947,1.292,1.378c0.043,0.431,0.258,1.12,0.258,1.12s0.688-0.153,1.359,0.345h33.342
	c0.467-0.221,0.827-0.412,0.827-0.412c0.775,0,3.272-2.239,4.478-4.047s1.292-3.961,1.292-4.823s-0.043-3.359-0.258-3.789
	c-0.215-0.431-0.904-3.703-0.904-3.703s-1.572-0.194-2.045-0.84s-0.603-1.076-0.474-2.109c0.129-1.034-0.517-1.68-0.646-2.627
	c-0.129-0.947-0.215-2.239,0.474-2.497c0.412-0.155,0.531-0.186,0.561-0.186c0.029-0.359,0.623-7.648,1.462-9.244
	c0.861-1.636,3.531-4.306,6.373-5.598c1.335-0.606,3.03-0.853,4.453-0.942L175,45.915l0.064-0.004
	c1.423,0.09,3.118,0.336,4.452,0.942c2.842,1.292,5.512,3.961,6.373,5.598c0.84,1.596,1.434,8.884,1.463,9.244
	c0.029,0,0.148,0.031,0.561,0.186c0.689,0.258,0.604,1.55,0.474,2.497c-0.129,0.947-0.774,1.593-0.646,2.627
	c0.129,1.033,0,1.463-0.475,2.109c-0.473,0.646-2.045,0.84-2.045,0.84s-0.689,3.272-0.904,3.703
	c-0.215,0.43-0.258,2.928-0.258,3.789s0.086,3.014,1.291,4.823s3.703,4.047,4.479,4.047c0,0,0.359,0.191,0.826,0.412h33.343
	c0.671-0.499,1.358-0.345,1.358-0.345s0.216-0.689,0.259-1.12c0.043-0.431,0.517-0.904,1.292-1.378
	c0.774-0.474,1.895-0.086,1.895-0.086s0.086-0.646,1.377-0.603c1.292,0.042,1.551,0.646,1.551,0.646s0.861-0.603,1.766-0.344
	s1.507,1.55,1.507,1.55s0.517-0.215,1.163-0.215c0.646,0,1.766,0.431,2.109,1.206c0.061,0.138,0.145,0.379,0.237,0.69h4.438V70.875
	c0-1.353,1.164-2.46,2.588-2.46h3.881c1.424,0,2.589,1.107,2.589,2.46v15.853h0.091V73.681c0-1.137,0.979-2.067,2.174-2.067h3.261
	c1.196,0,2.174,0.93,2.174,2.067v13.047h17.083c0.326,0,0.598,0.245,0.641,0.559h0.006v0.087v2.066v0.086h-0.006
	c-0.043,0.315-0.314,0.559-0.641,0.559h-17.083v13.048c0,1.136-0.978,2.067-2.174,2.067h-3.261c-1.195,0-2.174-0.931-2.174-2.067
	V90.085h-0.091v15.853c0,1.354-1.165,2.46-2.589,2.46h-3.881c-1.424,0-2.588-1.107-2.588-2.46V90.085h-3.692
	c0.124,0.852,0.169,1.623,0.05,2.067c-0.344,1.292-0.904,2.928-2.455,8.267c-1.549,5.339-2.67,17.138-4.65,22.304
	c-1.98,5.167-4.479,10.894-5.984,11.712c-1.508,0.818-3.963,0.043-5.426-0.129c-1.465-0.172-3.229-1.507-6.115-3.358
	c-2.885-1.852-7.492-5.468-9.43-8.095c-1.938-2.626-2.41-6.071-2.41-6.071l-0.732,0.818c0,0,0.172,0.732,0.129,0.947
	s-1.248,1.809-1.335,2.928c-0.086,1.119-0.259,1.55-0.646,2.067c-0.388,0.517-0.474,0.603-0.99,2.325
	c-0.518,1.722-1.163,4.693-1.12,5.167c0.043,0.474-0.13,1.464-0.474,3.144s0,1.464,0.129,2.454c0.129,0.991,0,1.766-0.129,3.488
	s0.172,3.789,0.344,4.736s0.345,0.99,0.172,1.809c-0.172,0.818,0.087,1.378,0.346,2.368c0.258,0.991-0.259,0.991-0.389,2.153
	c-0.129,1.163,0.389,5.124,0.818,6.587c0.432,1.464,2.498,4.22,2.756,4.909c0.259,0.689-0.516,1.981-0.774,2.412
	c-0.259,0.43,0.259,0.861,1.033,3.014c0.774,2.153,2.583,3.79,3.962,6.373c1.377,2.583,0.086,3.272,0.43,6.028
	c0.345,2.756,0.604,5.77,0.861,6.889c0.258,1.12,0.518,5.857,0.431,7.579c-0.086,1.722,0.259,3.272,1.292,5.684
	s2.152,11.927,2.152,11.927s0.086,1.723-1.464,4.048s-3.229,2.282-3.229,2.282s0.043,0.603-0.215,3.143
	c-0.259,2.541-0.26,6.158,0.773,10.723c1.034,4.564,4.135,11.109,4.737,18.601c0.603,7.492-1.356,27.083-1.356,27.083
	s0.258,0,0.365,0.087c0.108,0.086,0.065,0.043,0.13,0.56s0.323,3.531,0.323,3.531s1.334-0.173,2.109,0.904
	c0.775,1.076,0.474,1.377,1.033,1.765s1.248,0.904,1.636,2.153c0.388,1.248,1.938,5.684,2.497,6.459
	c0.561,0.774,2.283,2.023,3.058,3.573s0.731,3.058,0.731,3.058l0.216,0.56c0,0,0.13,1.808-0.431,2.196
	c-0.56,0.387-5.296,0.817-7.363,0.774c-2.066-0.043-5.554-1.163-6.329-1.895c-0.774-0.732-0.904-1.378-1.206-1.809
	c-0.301-0.431-1.248-0.431-2.756-0.861c-1.506-0.431-3.014-1.442-3.078-1.636c-0.064-0.194-0.409-2.52-0.236-3.015
	c0.172-0.495,0.408-0.582,0.408-0.582s0.086-2.885-0.043-3.272c-0.129-0.387-0.517-1.809-0.258-2.54
	c0.258-0.732,0.99-1.938,1.119-2.239c0.129-0.301-0.344-6.093-0.258-6.48c0.086-0.387,0.236-0.302,0.236-0.302
	s-1.637-10.075-2.842-14.296c-1.207-4.219-3.531-6.803-4.479-11.539s0-13.778-0.518-15.501c-0.516-1.722-1.291-2.153-2.842-5.339
	c-1.55-3.187-3.186-10.852-3.186-10.852s-3.531-0.689-4.049-1.205c-0.516-0.518-0.86-1.034-1.377-2.756
	c-0.517-1.723-0.947-3.617-2.239-6.029c-1.292-2.41-3.187-8.094-3.962-10.161c-0.574-1.534-1.34-1.882-1.696-1.96
	c-0.021,0.004-0.042,0.01-0.064,0.016c-0.023-0.006-0.044-0.012-0.064-0.016c-0.356,0.078-1.121,0.426-1.697,1.96
	c-0.775,2.067-2.67,7.751-3.962,10.161c-1.291,2.412-1.722,4.307-2.239,6.029c-0.517,1.722-0.861,2.238-1.378,2.756
	c-0.517,0.516-4.047,1.205-4.047,1.205s-1.636,7.665-3.187,10.852c-1.55,3.186-2.325,3.617-2.842,5.339
	c-0.517,1.723,0.431,10.765-0.517,15.501s-3.272,7.32-4.478,11.539c-1.206,4.221-2.842,14.296-2.842,14.296s0.15-0.085,0.236,0.302
	c0.086,0.388-0.388,6.18-0.258,6.48c0.129,0.302,0.861,1.507,1.119,2.239c0.259,0.731-0.129,2.153-0.258,2.54
	c-0.129,0.388-0.043,3.272-0.043,3.272s0.237,0.087,0.409,0.582s-0.172,2.82-0.237,3.015c-0.064,0.193-1.572,1.205-3.079,1.636
	c-1.507,0.431-2.455,0.431-2.756,0.861c-0.302,0.431-0.431,1.076-1.206,1.809c-0.775,0.731-4.263,1.852-6.33,1.895
	s-6.803-0.388-7.363-0.774c-0.56-0.389-0.431-2.196-0.431-2.196l0.216-0.56c0,0-0.043-1.508,0.732-3.058
	c0.775-1.55,2.498-2.799,3.057-3.573c0.56-0.775,2.11-5.211,2.497-6.459c0.388-1.249,1.076-1.766,1.636-2.153
	c0.56-0.388,0.258-0.688,1.033-1.765c0.775-1.077,2.11-0.904,2.11-0.904s0.258-3.015,0.323-3.531
	c0.064-0.517,0.021-0.474,0.129-0.56c0.107-0.087,0.366-0.087,0.366-0.087s-1.959-19.591-1.356-27.083
	c0.603-7.491,3.703-14.036,4.736-18.601c1.034-4.564,1.033-8.182,0.775-10.723c-0.258-2.54-0.215-3.143-0.215-3.143
	s-1.679,0.043-3.229-2.282s-1.464-4.048-1.464-4.048s1.119-9.516,2.152-11.927c1.034-2.411,1.378-3.962,1.292-5.684
	c-0.086-1.722,0.172-6.459,0.431-7.579c0.258-1.119,0.517-4.133,0.861-6.889c0.344-2.756-0.947-3.445,0.431-6.028
	c1.377-2.583,3.186-4.219,3.961-6.373c0.775-2.153,1.292-2.583,1.034-3.014c-0.258-0.431-1.034-1.723-0.775-2.412
	c0.258-0.689,2.325-3.444,2.755-4.909c0.431-1.464,0.948-5.425,0.818-6.587c-0.129-1.163-0.646-1.163-0.387-2.153
	c0.258-0.99,0.517-1.55,0.344-2.368c-0.172-0.818,0-0.861,0.172-1.809c0.172-0.947,0.473-3.014,0.344-4.736
	s-0.258-2.497-0.129-3.488c0.129-0.99,0.474-0.775,0.129-2.454s-0.517-2.669-0.474-3.144c0.043-0.474-0.603-3.445-1.12-5.167
	c-0.517-1.723-0.603-1.809-0.99-2.325c-0.388-0.517-0.56-0.948-0.646-2.067c-0.086-1.12-1.292-2.713-1.335-2.928
	s0.129-0.947,0.129-0.947l-0.732-0.818c0,0-0.474,3.445-2.412,6.071c-1.938,2.627-6.545,6.244-9.43,8.095
	c-2.885,1.852-4.65,3.186-6.114,3.358c-1.464,0.172-3.918,0.947-5.425,0.129c-1.507-0.818-4.005-6.545-5.986-11.712
	c-1.98-5.167-3.101-16.965-4.65-22.304c-1.55-5.339-2.11-6.976-2.455-8.267c-0.119-0.445-0.074-1.216,0.05-2.067h-3.691v15.853
	c0,1.354-1.165,2.46-2.588,2.46h-3.882c-1.423,0-2.588-1.107-2.588-2.46V90.085h-0.091v13.048c0,1.136-0.978,2.067-2.173,2.067
	h-3.261c-1.195,0-2.174-0.931-2.174-2.067V90.085H73.209c-0.326,0-0.597-0.244-0.64-0.559h-0.006v-0.086v-2.066V87.287
	L72.564,87.287z M204.925,90.085c0.58,0.389,1.139,0.832,1.658,1.335c2.885,2.799,5.641,9.258,6.115,9.904
	c0.473,0.646,4.779,2.798,6.285,5.253c1.508,2.455,2.541,7.104,2.541,7.104s-0.086,0.172,1.551-2.669
	c1.636-2.842,3.014-2.669,4.563-8.612s1.421-6.287,1.163-6.803c-0.259-0.517-2.799-1.507-4.436-2.239s-2.023-2.153-2.368-3.1
	c-0.021-0.059-0.038-0.116-0.049-0.173H204.925L204.925,90.085z M187.353,61.694c-0.02,0,0.001,0.014,0.001,0.014
	S187.353,61.703,187.353,61.694L187.353,61.694z M145.075,90.085h-17.024c-0.012,0.057-0.028,0.114-0.049,0.173
	c-0.345,0.947-0.732,2.368-2.368,3.1s-4.177,1.722-4.435,2.239c-0.258,0.517-0.388,0.861,1.163,6.803s2.928,5.77,4.564,8.612
	s1.55,2.669,1.55,2.669s1.033-4.65,2.541-7.104s5.813-4.607,6.287-5.253s3.229-7.105,6.114-9.904
	C143.937,90.917,144.495,90.474,145.075,90.085L145.075,90.085z M162.648,61.694c-0.001,0.009-0.001,0.014-0.001,0.014
	S162.667,61.694,162.648,61.694z"/>
</svg>
