<?xml version="1.0" encoding="utf-8"?>
<!-- Generator: Adobe Illustrator 16.0.0, SVG Export Plug-In . SVG Version: 6.00 Build 0)  -->
<!DOCTYPE svg PUBLIC "-//W3C//DTD SVG 1.1//EN" "http://www.w3.org/Graphics/SVG/1.1/DTD/svg11.dtd">
<svg version="1.1" id="Layer_1" xmlns="http://www.w3.org/2000/svg" xmlns:xlink="http://www.w3.org/1999/xlink" x="0px" y="0px"
	 width="350px" height="350px" viewBox="0 0 350 350" enable-background="new 0 0 350 350" xml:space="preserve">
<g>
	<path fill-rule="evenodd" clip-rule="evenodd" fill="#F7941E" stroke="#F15A29" stroke-miterlimit="10" d="M273.713,270.668V246.69
		c0-8.947-7.269-16.185-16.19-16.185H82.547c-8.924,0-16.18,7.237-16.18,16.185v23.978H273.713z"/>
	<path fill-rule="evenodd" clip-rule="evenodd" fill="#F7941E" stroke="#F15A29" stroke-miterlimit="10" d="M122.189,228.397V208.63
		c0-1.491-1.672-2.674-3.729-2.674c-2.069,0-3.736,1.183-3.736,2.674v19.768H122.189z"/>
	<path fill-rule="evenodd" clip-rule="evenodd" fill="#F7941E" stroke="#F15A29" stroke-miterlimit="10" d="M220.352,228.387
		v-19.781c0-1.458-1.668-2.659-3.737-2.659c-2.055,0-3.726,1.201-3.726,2.659v19.781H220.352z"/>
	<path fill-rule="evenodd" clip-rule="evenodd" fill="#27AAE1" stroke="#1C75BC" stroke-miterlimit="10" d="M100.926,99.19
		c0,10.963-8.89,19.853-19.857,19.853c-10.971,0-19.859-8.89-19.859-19.853c0-10.971,8.889-19.858,19.859-19.858
		C92.037,79.332,100.926,88.22,100.926,99.19z"/>
	<path fill-rule="evenodd" clip-rule="evenodd" fill="#27AAE1" stroke="#1C75BC" stroke-miterlimit="10" d="M285.206,171.526
		l-114.992-37.543l-45.361-30.202c-8.025-6.73-17.918-3.397-23.622,4.392l-12.453,17.123c-1.421,1.936-2.54,4.096-3.275,6.32
		c-0.566,1.148-0.905,2.429-0.934,3.787l0.073,0.171c-0.545,4.866,27.422,64.413,27.422,64.413c0.504,1.186,1.806,1.815,3.049,1.479
		c1.265-0.342,2.071-1.579,1.875-2.874l-8.271-46.375l6.76,3.264l7.091,43.573c0,0-0.106,3.33,1.828,3.54
		c2.375,0.264,2.923-2.644,2.923-2.644l1.069-38.238l18.023,8.7c4.672,2.513,7.03,9.249,23.63,10.506l106.302,15.106
		c0,0,3.474-0.544,3.413-3.101c-0.058-2.999-3.581-4.245-3.581-4.245l-94.14-27.373c0.112-0.488,0.064-0.283,0.179-0.771
		l103.161,18.344c0,0,3.474-0.421,3.415-2.98C288.729,172.896,285.206,171.526,285.206,171.526z"/>
</g>
</svg>
