<?xml version="1.0" encoding="utf-8"?>
<!-- Generator: Adobe Illustrator 16.0.0, SVG Export Plug-In . SVG Version: 6.00 Build 0)  -->
<!DOCTYPE svg PUBLIC "-//W3C//DTD SVG 1.1//EN" "http://www.w3.org/Graphics/SVG/1.1/DTD/svg11.dtd">
<svg version="1.1" id="Layer_1" xmlns="http://www.w3.org/2000/svg" xmlns:xlink="http://www.w3.org/1999/xlink" x="0px" y="0px"
	 width="350px" height="350px" viewBox="0 0 350 350" enable-background="new 0 0 350 350" xml:space="preserve">
<g>
	<g>
		<path fill="#BCBEC0" d="M106.347,243.927v-8.598c0,0-0.158-2.601,3.677-2.798h124.059
			C234.083,232.531,111.944,239.527,106.347,243.927z"/>
		<path fill="#BCBEC0" d="M128.736,241.525l-26.585,58.069c0,0-1.599,1.615,1.399,1.937c2.998,0.32,13.793,0,13.793,0
			s2.599,0.806,3.597-1.937C121.94,296.854,128.736,241.525,128.736,241.525z"/>
		<path fill="#BCBEC0" d="M221.264,241.525l26.586,58.069c0,0,1.599,1.615-1.401,1.937c-2.997,0.32-13.79,0-13.79,0
			s-2.601,0.806-3.599-1.937C228.059,296.854,221.264,241.525,221.264,241.525z"/>
	</g>
	<g>
		<path fill="#BCBEC0" d="M219.835,110.09c-6.157-1.286-12.533-1.753-18.931-1.573c-7.496,0.435-14.979,1.638-22.235,3.524
			c-12.582,3.27-26.133,7.267-36.063,16.057c0.09,0.059,0.184,0.113,0.27,0.178c3.893,2.438,5.383,7.567,4.992,12.283
			c0.192-0.215,0.382-0.419,0.552-0.591c5.359-5.388,11.901-9.365,18.478-13.078c1.993-1.124,3.999-2.236,6.021-3.316
			c10.875-5.788,22.717-10.435,35.126-11.203c3.599-0.221,7.2,0.004,10.799-0.185c1.522-0.082,3.342-0.178,4.846-0.797
			C222.419,110.912,221.137,110.471,219.835,110.09z"/>
		<path fill="#BCBEC0" d="M158.849,193.292c-0.274-7.9-6.903-14.087-14.805-13.81c-3.088,0.104-5.909,1.187-8.189,2.928
			c0.033,2.331-0.142,4.674-0.417,6.973c-0.539,4.502-1.603,8.994-1.934,13.512c2.733,3.311,6.911,5.363,11.53,5.206
			C152.938,207.825,159.123,201.195,158.849,193.292z"/>
		<path fill="#BCBEC0" d="M132.657,152.382c-2.282,1.101-5.715,2.798-4.29,5.907c0.894,1.958,2.633,3.611,4.623,4.88
			c-0.743-1.931-1.139-3.845-0.656-5.699c0.796-3.052,4.802-5.583,7.529-7.84C137.405,150.398,134.975,151.266,132.657,152.382z"/>
		<path fill="#BCBEC0" d="M145.608,132.973c-0.921-2.218-2.399-3.778-4.216-4.401c2.158,3.695,3.009,8.19,1.496,12.292
			c-0.707,1.912-1.965,4.206-3.881,4.66c-1.504,0.823-3.341,1.03-4.94,0.246c-0.056-0.028-0.112-0.065-0.169-0.093
			c-3.68-1.002-5.067-5.182-6.122-9.118c-0.432,0.604-1.308,1.584-1.448,1.788c-0.56,0.806-1.08,1.643-1.573,2.492
			c-0.959,1.649-1.789,3.366-2.562,5.108c-3.19,7.204-5.983,14.585-4.706,22.596c0.287,1.791,0.812,3.598,1.501,5.294
			c0.106-1.178,0.382-2.316,0.915-3.194c1.221-2.005,3.255-3.715,5.537-3.704c5.066,0.033,8.624,6.165,9.672,10.479
			c0.301,1.248,0.514,2.515,0.655,3.791c0.136-0.283,0.278-0.569,0.403-0.856c0.261-0.797,0.552-1.587,0.852-2.375
			c0.059-0.229,0.112-0.453,0.157-0.685c0.24-1.205,0.271-2.414,0.176-3.622c-0.385-2.596-1.94-5.294-3.255-7.99
			c-3.683-2.04-8.272-5.164-7.065-9.241c0.751-2.544,3.881-4.108,6.064-5.134c2.951-1.384,5.972-2.549,8.992-3.748
			c1.463-1.46,2.815-3.011,3.557-4.993C146.825,139.412,146.911,136.115,145.608,132.973z"/>
		<path fill="#BCBEC0" d="M139.211,126.554c-2.945-7.074-4.308-15.068-4.957-22.691c-0.498-5.853-0.231-11.806-0.796-17.663
			c-0.148-1.047-0.308-2.098-0.48-3.147c-0.656-4.008-1.924-7.877-2.682-11.866c-0.766-4.026-0.733-7.743,0.073-11.751
			c0.477-2.368,0.972-4.869,0.246-7.241c-0.409-1.342-0.99-2.607-1.59-3.867c-0.675,2.876-1.223,5.788-1.777,8.681
			c-1.727,9.011-2.453,17.832-2.204,27c0.213,7.925-0.083,15.846,0.065,23.769c0.13,7.004,0.827,14.015,2.051,20.91
			c0.882,4.966,1.956,11.415,5.7,15.168c1.466,1.473,3.612,1.775,5.503,0.854C144.882,141.526,141.218,131.368,139.211,126.554z"/>
		<path fill="#BCBEC0" d="M131.092,229.459c-0.527-1.78-0.85-3.619-1.114-5.456c-1.161-8.025,1.105-16.095,2.484-23.946
			c1.097-6.246,2.002-12.781,1.133-19.117c-0.398-2.904-1.155-5.806-2.695-8.332c-1.194-1.957-2.935-4.162-5.534-3.873
			c-2.083,0.23-3.627,2.201-4.202,4.08c-0.746,2.436,0.084,5.163,0.559,7.565c0.712,3.628,1.494,7.13,1.915,10.814
			c0.388,3.398,0.012,6.642-0.281,10.016c-0.238,2.733-0.354,5.483-0.323,8.23c0.065,1.445,0.176,2.887,0.37,4.321
			c0.957,7.111,3.436,15.07,9.016,19.871C132.078,232.215,131.506,230.862,131.092,229.459z"/>
	</g>
</g>
</svg>
