<?xml version="1.0" encoding="utf-8"?>
<!-- Generator: Adobe Illustrator 16.0.0, SVG Export Plug-In . SVG Version: 6.00 Build 0)  -->
<!DOCTYPE svg PUBLIC "-//W3C//DTD SVG 1.1//EN" "http://www.w3.org/Graphics/SVG/1.1/DTD/svg11.dtd">
<svg version="1.1" id="Layer_1" xmlns="http://www.w3.org/2000/svg" xmlns:xlink="http://www.w3.org/1999/xlink" x="0px" y="0px"
	 width="350px" height="350px" viewBox="0 0 350 350" enable-background="new 0 0 350 350" xml:space="preserve">
<g>
	<g>
		<path fill="#BCBEC0" d="M206.248,245.346c0.127-3.7,0.588-7.378,1.414-10.987c0.803-3.536,1.939-6.857,4.023-9.502
			c-0.697-1.613-1.447-3.204-2.299-4.747c-2.834,3.215-5.732,6.373-8.889,9.227c-5.289,4.769-12.201,11.14-19.814,12.152
			c-7.453,0.991-15.865,0.099-21.802-4.662c-6.467-5.179-11.948-11.584-17.848-17.408c-1.398,2.938-2.91,5.824-4.19,8.806
			c0.059,0.134,0.102,0.271,0.155,0.404c2.395,3.62,2.851,8.498,3.252,12.683c0.359,3.685,0.793,7.711,0.112,11.453
			c2.937,3.113,6.178,5.939,9.907,8.375c15.271,9.979,38.235,6.488,49.461,0c2.797-1.615,5.244-3.576,7.496-5.73
			C207.023,252.06,206.135,248.743,206.248,245.346z"/>
		<path fill="#BCBEC0" d="M212.479,236.451c-1.029,4.474-0.953,9.007-0.246,13.486c1.752-2.154,3.412-4.394,5.037-6.674
			c-0.854-3.893-1.828-7.767-3.039-11.541C213.422,233.221,212.848,234.847,212.479,236.451z"/>
		<path fill="#BCBEC0" d="M121.895,198.749c-4.399-5.436-8.686-10.992-13.32-16.238c-11.911-13.49-24.668-27.792-40.513-36.882
			c-1.104-0.634-4.527-2.622-5.738-1.776c-2.224,1.536,1.49,4.409,2.583,5.345c2.529,2.164,4.431,4.17,6.462,6.869
			c11.547,15.332,21.175,31.975,32.111,47.728c3.086,4.447,6.205,8.884,9.494,13.191
			C114.709,210.379,117.592,204.152,121.895,198.749z"/>
		<path fill="#BCBEC0" d="M287.68,143.853c-1.217-0.846-4.641,1.143-5.738,1.776c-15.844,9.09-28.602,23.392-40.518,36.882
			c-4.539,5.139-8.74,10.569-13.043,15.903c4.566,5.423,6.848,12.412,8,19.418c0.037-0.054,0.076-0.102,0.123-0.153
			c3.482-4.52,6.768-9.199,10.025-13.885c10.93-15.753,20.559-32.396,32.1-47.728c2.037-2.699,3.939-4.705,6.469-6.869
			C286.186,148.262,289.898,145.389,287.68,143.853z"/>
		<path fill="#BCBEC0" d="M200.68,160.425c0,14.177-11.498,25.677-25.681,25.677c-14.177,0-25.676-11.5-25.676-25.677
			c0-14.183,11.499-25.679,25.676-25.679C189.182,134.746,200.68,146.242,200.68,160.425z"/>
		<g>
			<path fill="#BCBEC0" d="M195.166,180.893c-0.975-0.251-0.922-0.396-1.902-0.605c-3.295,10.262-12.313,19.094-23.066,16.252
				c-10.4-2.738-12.773-13.503-13.224-16.3c-0.991,0.206-1.109,0.236-2.09,0.487c3.869,21.931-1.999,33.296-7.324,35.953
				c0.327,1.42,0.139,1.471,0.6,2.771c1.12,3.183,2.7,6.651,4.769,9.379c10.378,13.677,33.632,15.442,43.835,0.665
				c2.898-4.19,4.506-7.568,5.732-12.641C194.834,212.693,193.645,204.364,195.166,180.893z"/>
			<path fill="#BCBEC0" d="M132.386,236.041c-0.386-0.927-0.868-1.818-1.479-2.642c-2.368-3.158-6.703-6.397-10.716-3.771
				c-2.556,1.683-4.207,4.157-5.417,6.877c1.704,11.244,6.274,21.974,14.017,30.182c1.211-1.377,1.64-3.814,1.532-5.846
				C129.857,252.461,130.36,244.065,132.386,236.041z"/>
			<path fill="#BCBEC0" d="M121.139,202.385c-0.488,0.739-0.959,1.476-1.393,2.239c-3.762,6.58-5.519,13.556-5.712,20.939
				c1.211-1.87,2.722-3.499,4.715-4.49c0.788-0.396,1.586-0.707,2.39-0.948V202.385z"/>
			<path fill="#BCBEC0" d="M154.011,180.936c-9.055,2.331-17.688,6.591-24.76,12.533v26.986c1.023,0.415,2.015,0.975,2.952,1.701
				c1.511,1.168,2.679,2.523,3.59,4.029c0.579-1.303,1.189-2.589,1.875-3.858c2.4-4.472,5.042-9.307,8.294-13.534
				c0.171,2.186,0.53,4.407,1.034,6.556C150.244,212.635,155.543,204.527,154.011,180.936z"/>
			<path fill="#BCBEC0" d="M230.252,204.624c-0.605-1.053-1.266-2.063-1.951-3.064v19.838c0.885,0.479,1.699,1.077,2.4,1.792
				c2.48,2.529,3.992,5.664,5.047,8.98c0.07-0.849,0.135-1.693,0.172-2.542C236.354,220.726,234.703,212.394,230.252,204.624z"/>
			<path fill="#BCBEC0" d="M220.018,192.877c-6.875-5.589-15.148-9.626-23.822-11.885c-1.516,23.466,3.734,31.589,6.986,34.329
				c0.51-2.124,0.842-4.278,0.938-6.427c3.215,4.201,5.83,8.996,8.221,13.433c0.197,0.381,0.391,0.769,0.584,1.157
				c0.943-0.91,2.035-1.717,3.332-2.373c1.152-0.587,2.438-0.968,3.762-1.16V192.877z"/>
			<path fill="#BCBEC0" d="M220.039,226.295c-0.145,0.057-0.289,0.089-0.439,0.147c-1.607,0.693-2.932,1.821-4.008,3.186
				c3.686,9.909,4.672,20.562,4.088,31.213c-0.113,2.031,0.322,4.469,1.527,5.846c5.443-5.76,9.307-12.778,11.723-20.339
				c-0.418-5.283-0.852-11.145-3.938-15.396C226.936,228.136,223.377,226.175,220.039,226.295z"/>
		</g>
	</g>
	<path fill="#BCBEC0" d="M124.113,220.945c-7.721,0-13.979,10.51-13.979,23.471c0,12.967,6.258,23.471,13.979,23.471
		c7.727,0,13.985-10.504,13.985-23.471C138.098,231.455,131.839,220.945,124.113,220.945z M124.113,263.724
		c-6.489,0-11.75-8.83-11.75-19.72c0-10.898,5.262-19.729,11.75-19.729c6.494,0,11.756,8.83,11.756,19.729
		C135.869,254.894,130.607,263.724,124.113,263.724z"/>
	<path fill="#BCBEC0" d="M221.668,220.945c-7.727,0-13.984,10.51-13.984,23.471c0,12.967,6.258,23.471,13.984,23.471
		c7.715,0,13.979-10.504,13.979-23.471C235.646,231.455,229.383,220.945,221.668,220.945z M221.668,263.724
		c-6.494,0-11.756-8.83-11.756-19.72c0-10.898,5.262-19.729,11.756-19.729c6.488,0,11.75,8.83,11.75,19.729
		C233.418,254.894,228.156,263.724,221.668,263.724z"/>
	<rect x="123.615" y="82.113" fill="#BCBEC0" width="3.997" height="141.832"/>
	<rect x="221.496" y="82.113" fill="#BCBEC0" width="3.998" height="141.832"/>
</g>
</svg>
