<?xml version="1.0" encoding="utf-8"?>
<!-- Generator: Adobe Illustrator 16.0.0, SVG Export Plug-In . SVG Version: 6.00 Build 0)  -->
<!DOCTYPE svg PUBLIC "-//W3C//DTD SVG 1.1//EN" "http://www.w3.org/Graphics/SVG/1.1/DTD/svg11.dtd">
<svg version="1.1" id="Layer_1" xmlns="http://www.w3.org/2000/svg" xmlns:xlink="http://www.w3.org/1999/xlink" x="0px" y="0px"
	 width="350px" height="350px" viewBox="0 0 350 350" enable-background="new 0 0 350 350" xml:space="preserve">
<path fill="#FDBA55" d="M273.448,228.949c12.45,0,22.541,10.092,22.541,22.539c0,12.45-10.093,22.543-22.541,22.543H76.552
	c-12.45,0-22.541-10.094-22.542-22.543c0-12.448,10.092-22.539,22.542-22.539H273.448z"/>
<path fill="#FFD553" d="M273.448,228.949H76.552c-9.572,0-17.745,5.968-21.013,14.383h238.923
	C291.192,234.917,283.021,228.949,273.448,228.949z"/>
<path fill="#866539" d="M291.259,202.229c0-3.591-2.938-6.528-6.528-6.528H65.272c-3.591,0-6.527,2.938-6.527,6.528v20.192
	c0,3.591,2.938,6.528,6.527,6.528H284.73c3.591,0,6.528-2.938,6.528-6.528V202.229z"/>
<g>
	<path fill="#FFD553" d="M105.175,195.698l22.335,22.335c2.152,2.152,5.675,2.152,7.827,0l22.335-22.335H105.175z"/>
	<path fill="#FFD553" d="M244.829,195.698l-22.335,22.335c-2.152,2.152-5.676,2.152-7.828,0l-22.335-22.335H244.829z"/>
</g>
<path fill="#46C79C" d="M278.813,180.533c0-3.045-2.49-5.535-5.534-5.535h-94.154c-3.045,0-5.535,2.49-5.535,5.535v9.631
	c0,3.043,2.49,5.532,5.535,5.532h94.154c3.043,0,5.533-2.489,5.533-5.532L278.813,180.533L278.813,180.533z"/>
<path fill="#6CF5C5" d="M187.865,180.533c0-3.045-2.49-5.535-5.534-5.535H76.724c-3.043,0-5.535,2.49-5.535,5.535v9.631
	c0,3.043,2.491,5.532,5.535,5.532h105.608c3.043,0,5.534-2.489,5.534-5.532L187.865,180.533L187.865,180.533z"/>
<path fill="#E2411C" d="M71.189,159.833c0-3.044,2.491-5.535,5.535-5.535h109.112c3.044,0,5.533,2.491,5.533,5.535v9.63
	c0,3.043-2.489,5.535-5.533,5.535H76.724c-3.043,0-5.535-2.49-5.535-5.535V159.833z"/>
<path fill="#FF6376" d="M158.164,159.833c0-3.044,2.49-5.535,5.535-5.535h109.581c3.044,0,5.534,2.491,5.534,5.535v9.63
	c0,3.043-2.49,5.535-5.534,5.535H163.698c-3.044,0-5.534-2.49-5.534-5.535L158.164,159.833L158.164,159.833z"/>
<path fill="#FDBA55" d="M286.961,101.65l-0.002,0.001l0.002-0.005c-14.707-14.706-58.647-25.678-111.959-25.678
	c-53.311,0-97.251,10.971-111.958,25.678v0h0c-5.582,5.582-9.034,13.292-9.034,21.809c0.001,17.034,13.809,30.842,30.843,30.843
	h180.294v-0.001c17.033,0,30.842-13.809,30.842-30.842C295.99,114.94,292.539,107.232,286.961,101.65z"/>
<g>
	<path fill="#FBD151" d="M147.329,104.244c-2.165,0-3.921-1.755-3.921-3.921v-6.642c0-2.165,1.756-3.921,3.921-3.921
		c2.166,0,3.921,1.756,3.921,3.921v6.642C151.25,102.488,149.495,104.244,147.329,104.244z"/>
	<path fill="#FBD151" d="M84.853,113.203c-2.166,0-3.921-1.756-3.921-3.921v-6.641c0-2.166,1.756-3.921,3.921-3.921
		c2.165,0,3.921,1.756,3.921,3.921v6.641C88.774,111.447,87.018,113.203,84.853,113.203z"/>
	<path fill="#FBD151" d="M175.002,97.603c-2.166,0-3.921-1.755-3.921-3.921V87.04c0-2.166,1.755-3.921,3.921-3.921
		c2.166,0,3.921,1.755,3.921,3.921v6.641C178.923,95.847,177.168,97.603,175.002,97.603z"/>
	<path fill="#FBD151" d="M202.121,104.244c-2.166,0-3.922-1.755-3.922-3.921v-6.642c0-2.165,1.756-3.921,3.922-3.921
		c2.165,0,3.92,1.756,3.92,3.921v6.642C206.041,102.488,204.286,104.244,202.121,104.244z"/>
	<path fill="#FBD151" d="M265.146,116.523c-2.165,0-3.921-1.755-3.921-3.921v-6.641c0-2.166,1.756-3.921,3.921-3.921
		c2.166,0,3.922,1.755,3.922,3.921v6.641C269.068,114.768,267.313,116.523,265.146,116.523z"/>
</g>
<g>
	<circle fill="#3F4963" cx="120.212" cy="114.201" r="7.1"/>
	<circle fill="#3F4963" cx="229.787" cy="114.201" r="7.1"/>
</g>
<g>
	<path fill="#FF6376" d="M127.806,139.014h-15.189c-2.166,0-3.921-1.756-3.921-3.921s1.756-3.921,3.921-3.921h15.189
		c2.166,0,3.921,1.755,3.921,3.921S129.971,139.014,127.806,139.014z"/>
	<path fill="#FF6376" d="M237.384,139.014h-15.189c-2.165,0-3.921-1.756-3.921-3.921s1.756-3.921,3.921-3.921h15.189
		c2.166,0,3.921,1.755,3.921,3.921S239.55,139.014,237.384,139.014z"/>
</g>
<g>
	<path fill="#3F4963" d="M166.11,134.107c-7.063,0-12.81-5.747-12.81-12.81c0-2.165,1.755-3.921,3.921-3.921
		s3.921,1.756,3.921,3.921c0,2.74,2.229,4.968,4.968,4.968s4.968-2.229,4.968-4.968c0-2.165,1.755-3.921,3.921-3.921
		s3.92,1.756,3.92,3.921C178.92,128.361,173.174,134.107,166.11,134.107z"/>
	<path fill="#3F4963" d="M183.891,134.107c-7.064,0-12.811-5.747-12.811-12.81c0-2.165,1.755-3.921,3.921-3.921
		s3.921,1.756,3.921,3.921c0,2.74,2.229,4.968,4.969,4.968c2.738,0,4.967-2.229,4.967-4.968c0-2.165,1.757-3.921,3.922-3.921
		s3.921,1.756,3.921,3.921C196.7,128.361,190.953,134.107,183.891,134.107z"/>
</g>
<path d="M229.789,121.3c3.921,0,7.099-3.178,7.099-7.1c0-3.921-3.178-7.1-7.099-7.1s-7.1,3.179-7.1,7.1
	C222.689,118.122,225.868,121.3,229.789,121.3z M166.111,134.107c3.45,0,6.583-1.373,8.889-3.599
	c2.305,2.226,5.44,3.599,8.889,3.599c7.064,0,12.811-5.747,12.811-12.81c0-2.165-1.755-3.921-3.921-3.921s-3.921,1.756-3.921,3.921
	c0,2.739-2.229,4.968-4.969,4.968c-2.738,0-4.969-2.229-4.969-4.968c0-2.165-1.755-3.921-3.92-3.921s-3.921,1.756-3.921,3.921
	c0,2.739-2.229,4.968-4.968,4.968c-2.739,0-4.968-2.229-4.968-4.968c0-2.165-1.756-3.921-3.921-3.921
	c-2.166,0-3.921,1.756-3.921,3.921C153.3,128.361,159.047,134.107,166.111,134.107z M120.21,121.3c3.921,0,7.1-3.178,7.1-7.1
	c0-3.921-3.179-7.1-7.1-7.1c-3.921,0-7.1,3.179-7.1,7.1C113.111,118.122,116.29,121.3,120.21,121.3z M290.398,231.187
	c2.872-1.863,4.781-5.093,4.781-8.765v-20.193c0-5.762-4.688-10.449-10.447-10.449h-2.146c0.09-0.525,0.147-1.063,0.147-1.615
	v-9.631c0-2.067-0.675-3.976-1.805-5.535c1.129-1.558,1.805-3.467,1.805-5.535v-9.63c0-2.03-0.649-3.908-1.742-5.451
	c11.221-5.772,18.919-17.464,18.919-30.927c0-9.23-3.574-17.913-10.066-24.466c-0.037-0.039-0.073-0.078-0.112-0.116
	c-16.046-16.045-62.152-26.827-114.73-26.827c-52.577,0-98.684,10.782-114.731,26.827c-6.566,6.565-10.182,15.295-10.182,24.582
	c0,13.463,7.699,25.155,18.921,30.928c-1.092,1.542-1.742,3.419-1.742,5.45v9.63c0,2.068,0.675,3.977,1.805,5.535
	c-1.13,1.559-1.805,3.467-1.805,5.534v9.632c0,0.551,0.057,1.089,0.148,1.615h-2.145c-5.762,0-10.449,4.688-10.449,10.448v20.193
	c0,3.672,1.908,6.9,4.779,8.765c-5.81,4.857-9.513,12.155-9.513,20.304c0,14.591,11.872,26.462,26.462,26.463h0.001l196.896-0.001
	c14.591,0,26.462-11.872,26.462-26.462C299.911,243.342,296.208,236.045,290.398,231.187z M57.931,123.456
	c0-7.19,2.801-13.951,7.885-19.037C80.259,89.977,125.159,79.89,175.002,79.89c49.71,0,94.503,10.034,109.07,24.414
	c0.056,0.062,0.115,0.122,0.176,0.18c5.043,5.078,7.821,11.813,7.821,18.972c0,14.844-12.078,26.921-26.922,26.922H84.853
	C70.009,150.377,57.932,138.3,57.931,123.456z M191.639,191.779c0.091-0.526,0.147-1.063,0.147-1.615v-9.631
	c0-0.552-0.057-1.089-0.147-1.614h81.641c0.874,0,1.612,0.738,1.612,1.614v9.631c0,0.874-0.738,1.612-1.612,1.612v0.002
	L191.639,191.779L191.639,191.779z M235.361,199.621l-15.64,15.639c-0.619,0.619-1.664,0.619-2.282,0.002l-15.64-15.641H235.361
	L235.361,199.621z M273.278,171.077h-109.58c-0.875,0-1.614-0.739-1.614-1.614v-9.63c0-0.875,0.739-1.613,1.614-1.613h109.581
	c0.875,0,1.613,0.738,1.613,1.613v9.63C274.892,170.338,274.153,171.077,273.278,171.077z M76.724,191.776
	c-0.874,0-1.613-0.738-1.613-1.612v-9.631c0-0.875,0.739-1.613,1.613-1.613h105.608c0.873,0,1.612,0.738,1.612,1.613v9.631
	c0,0.874-0.738,1.612-1.612,1.612H76.724z M148.204,199.621l-15.639,15.64c-0.619,0.618-1.664,0.618-2.282,0.001l-15.64-15.641
	H148.204L148.204,199.621z M154.39,171.077H76.724c-0.874,0-1.613-0.739-1.613-1.614v-9.63c0-0.875,0.739-1.613,1.613-1.613h77.667
	c-0.091,0.525-0.148,1.062-0.148,1.613v9.63C154.242,170.015,154.299,170.551,154.39,171.077z M62.666,202.229
	c0-1.414,1.193-2.607,2.606-2.607h38.281l21.185,21.187c1.843,1.842,4.265,2.764,6.686,2.764c2.421,0,4.843-0.922,6.686-2.764
	l21.185-21.187h31.415l21.186,21.187c1.843,1.843,4.264,2.764,6.685,2.764c2.422,0,4.844-0.922,6.688-2.764l21.185-21.187h38.281
	c1.412,0,2.605,1.194,2.605,2.607v20.193c0,1.413-1.193,2.606-2.605,2.606h-11.243c-0.013,0-0.027-0.001-0.04-0.001l-196.898,0.001
	H65.272c-1.413,0-2.606-1.193-2.606-2.606V202.229z M273.448,270.109L76.552,270.11c-10.267-0.001-18.62-8.354-18.621-18.622
	c0-10.266,8.352-18.618,18.621-18.618h196.936c10.25,0.022,18.581,8.366,18.581,18.618
	C292.069,261.756,283.716,270.109,273.448,270.109z"/>
</svg>
