<?xml version="1.0" encoding="utf-8"?>
<!-- Generator: Adobe Illustrator 16.0.0, SVG Export Plug-In . SVG Version: 6.00 Build 0)  -->
<!DOCTYPE svg PUBLIC "-//W3C//DTD SVG 1.1//EN" "http://www.w3.org/Graphics/SVG/1.1/DTD/svg11.dtd">
<svg version="1.1" id="Layer_1" xmlns="http://www.w3.org/2000/svg" xmlns:xlink="http://www.w3.org/1999/xlink" x="0px" y="0px"
	 width="350px" height="350px" viewBox="0 0 350 350" enable-background="new 0 0 350 350" xml:space="preserve">
<g>
	<path d="M112.668,187.91v86.376c2.037,0.29,4.116,0.444,6.233,0.444h6.233v-87.266h-6.233
		C116.785,187.465,114.705,187.619,112.668,187.91z M224.865,187.465v87.266h6.232c2.117,0,4.197-0.154,6.232-0.445V187.91
		c-2.035-0.291-4.115-0.445-6.232-0.445H224.865z M274.73,174.999c0-55.079-44.65-99.729-99.73-99.729
		c-55.081,0-99.731,44.65-99.731,99.729c0,11.964,2.109,23.435,5.972,34.063c-3.793,6.468-5.972,13.997-5.972,22.036
		c0,17.404,10.193,32.428,24.934,39.432v-78.862c-3.921,1.862-7.515,4.297-10.686,7.188c-1.167-5.692-1.781-11.586-1.781-17.623
		c0-48.193,39.07-87.264,87.265-87.264s87.263,39.07,87.263,87.264c0,6.037-0.613,11.931-1.781,17.623
		c-3.172-2.892-6.764-5.326-10.686-7.188v78.862c14.742-7.004,24.934-22.027,24.934-39.432c0-8.039-2.18-15.568-5.973-22.036
		C272.621,198.434,274.73,186.963,274.73,174.999z"/>
	<path fill="#07807D" d="M144.598,235.714v-17.1c0-2.362-1.915-4.274-4.276-4.274c-2.362,0-4.275,1.912-4.275,4.274v17.1
		c0,2.364,1.914,4.276,4.275,4.276C142.683,239.99,144.598,238.078,144.598,235.714z"/>
	<path fill="#CC2E4F" d="M158.374,253.531V203.65c0-2.361-1.914-4.275-4.275-4.275c-2.361,0-4.275,1.914-4.275,4.275v49.881
		c0,2.36,1.914,4.275,4.275,4.275C156.46,257.807,158.374,255.892,158.374,253.531z"/>
	<path fill="#07807D" d="M172.151,246.166v-27.552c0-2.362-1.914-4.274-4.276-4.274c-2.361,0-4.275,1.912-4.275,4.274v27.552
		c0,2.364,1.914,4.276,4.275,4.276C170.238,250.442,172.151,248.53,172.151,246.166z"/>
	<path fill="#CC2E4F" d="M209.678,222.891c-2.361,0-4.275,1.914-4.275,4.273v23.757c0,2.36,1.914,4.276,4.275,4.276
		c2.363,0,4.275-1.916,4.275-4.276v-23.757C213.953,224.805,212.041,222.891,209.678,222.891z"/>
	<path fill="#07807D" d="M195.902,192.962c-2.361,0-4.275,1.913-4.275,4.274v64.846c0,2.361,1.914,4.275,4.275,4.275
		c2.363,0,4.277-1.914,4.277-4.275v-64.846C200.18,194.875,198.264,192.962,195.902,192.962z"/>
	<path fill="#CC2E4F" d="M182.127,255.197c2.361,0,4.275-1.916,4.275-4.276v-41.214c0-2.36-1.914-4.275-4.275-4.275
		s-4.275,1.915-4.275,4.275v41.214C177.852,253.281,179.766,255.197,182.127,255.197z"/>
</g>
</svg>
