<?xml version="1.0" encoding="utf-8"?>
<!-- Generator: Adobe Illustrator 16.0.0, SVG Export Plug-In . SVG Version: 6.00 Build 0)  -->
<!DOCTYPE svg PUBLIC "-//W3C//DTD SVG 1.1//EN" "http://www.w3.org/Graphics/SVG/1.1/DTD/svg11.dtd">
<svg version="1.1" id="Capa_1" xmlns="http://www.w3.org/2000/svg" xmlns:xlink="http://www.w3.org/1999/xlink" x="0px" y="0px"
	 width="350px" height="350px" viewBox="0 0 350 350" enable-background="new 0 0 350 350" xml:space="preserve">
<path fill="#ECF0F1" d="M175,47.004c-86.766,0-112.095,54.336-112.095,129.341v25.868h25.868v-12.935h-4.312v-38.802
	c0-48.813,40.536-86.228,90.539-86.228s90.538,37.414,90.538,86.228v38.802h-4.311v12.935h25.868v-25.868
	C287.096,101.341,260.956,47.004,175,47.004z"/>
<path fill="#BDC3C7" d="M258.296,206.525v-4.312h3.967V159.1c0-50.766-38.329-90.539-87.263-90.539
	c-48.934,0-87.262,39.772-87.262,90.539v43.114h3.966v4.312H75.839v-21.558c0-85.3,31.507-125.029,99.161-125.029
	c67.653,0,99.161,39.729,99.161,125.029v21.558H258.296z"/>
<path fill="#DF4D60" d="M97.396,236.705c-17.858,0-34.491-14.479-34.491-32.336s16.633-32.335,34.491-32.335V236.705z"/>
<path fill="#DF4D60" d="M252.604,236.705c17.857,0,34.491-14.479,34.491-32.336s-16.634-32.335-34.491-32.335V236.705z"/>
<path fill="#556080" d="M118.952,266.884L118.952,266.884c-11.856,0-21.557-9.7-21.557-21.557V159.1
	c0-11.856,9.701-21.557,21.557-21.557l0,0c11.856,0,21.557,9.701,21.557,21.557v86.227
	C140.509,257.184,130.809,266.884,118.952,266.884z"/>
<path fill="#556080" d="M231.048,266.884L231.048,266.884c-11.856,0-21.558-9.7-21.558-21.557V159.1
	c0-11.856,9.701-21.557,21.558-21.557l0,0c11.855,0,21.557,9.701,21.557,21.557v86.227
	C252.604,257.184,242.903,266.884,231.048,266.884z"/>
<path fill="none" stroke="#556080" stroke-width="2" stroke-linecap="round" stroke-miterlimit="10" d="M175,297.063L175,297.063
	c0-7.144,5.79-12.934,12.935-12.934h45.045c20.362,0,36.87-16.509,36.87-36.871v-36.423"/>
<path fill="none" stroke="#556080" stroke-width="2" stroke-linecap="round" stroke-miterlimit="10" d="M175,297.063L175,297.063
	c0-7.144-5.79-12.934-12.934-12.934h-45.045c-20.363,0-36.871-16.509-36.871-36.871v-36.423"/>
<path fill="#2C3E50" d="M97.396,159.1v86.227c0,11.856,9.701,21.557,21.557,21.557V137.543
	C107.096,137.543,97.396,147.244,97.396,159.1z"/>
<path fill="#2C3E50" d="M252.604,245.327V159.1c0-11.856-9.701-21.557-21.557-21.557v129.341
	C242.903,266.884,252.604,257.184,252.604,245.327z"/>
</svg>
