<?xml version="1.0" encoding="utf-8"?>
<!-- Generator: Adobe Illustrator 16.0.0, SVG Export Plug-In . SVG Version: 6.00 Build 0)  -->
<!DOCTYPE svg PUBLIC "-//W3C//DTD SVG 1.1//EN" "http://www.w3.org/Graphics/SVG/1.1/DTD/svg11.dtd">
<svg version="1.1" id="Layer_1" xmlns="http://www.w3.org/2000/svg" xmlns:xlink="http://www.w3.org/1999/xlink" x="0px" y="0px"
	 width="350px" height="350px" viewBox="0 0 350 350" enable-background="new 0 0 350 350" xml:space="preserve">
<path fill="#EE4F7B" d="M285.532,126.201c-14.491-2.687-30.944,9.822-41.963,18.416c-0.336-5.421-1.542-10.768-3.783-15.769
	c-7.318-16.322-29.676-23.564-44.053-12.738c-14.027,10.561-19.027,29.302-27.486,44.234c-5.914-14.878-17.464-30.293-32.594-35.377
	c-16.671-5.601-32.18,4.065-37.125,20.364c-9.482-9.678-23.375-18.638-36.487-10.806c-14.439,8.624-14.075,33.534-12.056,47.738
	c1.211,8.526,3.352,18.321,9.422,24.879c3.78,4.084,10.273,9.993,16.372,7.729c5.548-2.062,5.059-9.815,3.083-17.259
	c2.391,1.311,5.129,1.47,8.157-0.55c3.432-2.288,4.19-5.838,3.623-9.494c7.534,4.903,16.509,5.678,17.867-5.167
	c2.251,3.192,4.616,6.184,6.88,8.885c13.299,15.855,30.946,28.415,41.592,46.401c1.083,1.83,3.674,1.747,4.776,0
	c15.965-25.312,47.19-32.179,67.259-53.205c2.107-2.206,3.986-4.633,5.675-7.195c3.612,3.216,7.884,2.937,11.461,0.511
	c0.422,3.383,2.318,6.317,6.502,7.47c3.604,0.99,6.665-0.321,9.366-2.543c-2.134,9.598,0.431,19.188,12.833,20.118
	c17.395,1.303,23.079-28.041,25.219-40.046C302.364,149.939,301.634,129.186,285.532,126.201z M197.762,123.236
	c-0.313-0.277-0.655-0.416-1.003-0.499c1.7-1.554,3.488-2.775,5.332-3.699c7.859,10.616,15.905,21.137,22.201,32.675
	C215.977,141.733,207.537,131.889,197.762,123.236z M235.164,165.023c-3.225-8.933-7.698-17.115-12.751-24.963
	c4.177,4.876,8.396,9.719,13.051,14.166c0.884,0.844,1.927,0.774,2.688,0.255c-0.468,3.978-1.46,7.663-2.903,11.094
	C235.239,165.394,235.235,165.211,235.164,165.023z M238.211,144.705c0.188,2.022,0.279,3.995,0.227,5.884
	c-2.923-5.856-6.392-11.345-10.074-16.703c3.269,3.08,6.291,6.379,8.734,9.945C237.403,144.279,237.795,144.559,238.211,144.705z
	 M236.304,135.726c-5.318-5.979-11.776-11.155-18.072-15.833c-1.769-1.312-4.276,1.261-3.026,3.026
	c2.747,3.875,5.538,7.707,8.244,11.589c-5.169-6.03-10.413-11.979-16.407-17.226C218.896,114.719,231.539,122.957,236.304,135.726z
	 M193.437,126.335c0.238-0.304,0.484-0.575,0.727-0.863c0.046,0.143,0.065,0.282,0.147,0.427c4.826,8.653,10.789,16.5,16.805,24.313
	c-6.258-6.833-12.738-13.404-20.802-18.302c-0.207-0.127-0.405-0.182-0.603-0.238C190.874,129.848,192.098,128.059,193.437,126.335z
	 M137.676,206.253c-10.802-10.717-21.854-21.236-29.327-34.656c-0.077-0.14-0.146-0.283-0.221-0.423
	c-0.002-0.004-0.003-0.01-0.005-0.014c17.349,14.639,34.865,29.223,48.628,47.337C150.573,215.08,143.991,210.958,137.676,206.253z
	 M107.1,167.792c10.995,5.941,20.041,14.404,28.763,23.314C126.688,182.868,116.886,175.262,107.1,167.792z M105.458,163.17
	c-0.184-0.086-0.365-0.139-0.543-0.167c-0.689-2.648-1.069-5.344-1.146-8.005c3.229,4.52,6.689,8.838,10.303,13.023
	C111.329,166.244,108.48,164.6,105.458,163.17z M106.105,142.207c6.225,7.903,12.697,15.596,19.356,23.125
	c-6.699-6.088-13.683-11.854-21.203-17.01C104.647,146.188,105.26,144.134,106.105,142.207z M177.475,214.206
	c-22.233-21.327-43.746-43.573-63.208-67.486c11.841,8.73,22.157,19.289,32.485,29.828c1.261,1.289,2.523,2.578,3.788,3.867
	c0.556,0.73,1.123,1.452,1.673,2.187c7.986,10.673,17.27,24.333,30.747,28.277c-1.786,1.198-3.533,2.417-5.251,3.651
	C177.633,214.422,177.584,214.313,177.475,214.206z M166.395,195.285c3.921,3.185,7.961,6.115,11.547,9.584
	C173.728,202.486,169.904,199.117,166.395,195.285z M185.804,208.51c-4.379-6.15-10.177-10.583-16.092-15.191
	c-6.069-4.731-11.511-10.224-16.889-15.736c-0.987-1.386-1.957-2.736-2.902-4.002c-7.746-10.375-16.329-20.078-24.551-30.064
	c22.068,19.054,39.097,43.481,61.585,62.207c1.793,1.493,4.153-0.799,2.576-2.576c-20.063-22.621-41.246-44.382-58.909-68.975
	c13.442,7.972,24.539,19.126,34.932,31.092c-0.178,1.063,0.363,2.006,1.234,2.542c0.41,0.491,0.991,0.706,1.564,0.698
	c9.578,11.261,18.704,22.993,28.697,33.301c-3.7,2.352-7.426,4.689-11.071,7.072C185.932,208.754,185.888,208.631,185.804,208.51z
	 M122.926,129.708c5.191,7.634,10.767,14.953,16.55,22.102c-7.331-7.348-15.049-14.283-23.608-20.329
	c2.003-1.072,4.26-1.888,6.78-2.386C122.696,129.295,122.786,129.501,122.926,129.708z M181.581,146.723
	c4.135,8.227,9.434,15.687,14.999,22.976c-5.07-4.986-10.318-9.765-16.328-13.715c-1.575-1.036-3.726,1.043-2.63,2.629
	c5.329,7.703,11.362,14.876,16.98,22.352c-7.087-6.056-14.131-12.161-21.313-18.105C176.349,157.646,178.941,152.17,181.581,146.723
	z M200.34,199.702c-6.703-8.614-13.557-17.118-19.921-25.976c7.457,6.385,14.854,12.839,22.417,19.102
	c1.573,1.305,4.155-0.35,2.968-2.29c-4.787-7.813-10.511-14.925-16.124-22.127c7.523,6.95,14.303,14.737,22.067,21.481
	c1.59,1.381,4.403-0.436,3.075-2.376c-8.839-12.903-19.544-24.548-27.312-38.119c13.132,9.435,22.48,23.406,33.611,35.035
	C215.002,189.975,207.792,194.909,200.34,199.702z M183.78,142.27c1.221-2.43,2.503-4.824,3.862-7.175
	c0.035,0.053,0.049,0.112,0.089,0.163c7.786,9.784,15.266,19.801,22.115,30.235C202.152,156.605,194.137,148.06,183.78,142.27z
	 M159.68,153.194c-9.391-9.748-19.616-18.423-31.576-24.637C140.802,128.757,152.302,140.979,159.68,153.194z M112.887,133.401
	c0.042,0.088,0.062,0.18,0.125,0.265c5.542,7.381,11.393,14.518,17.275,21.631c-6.854-6.255-14.079-12.062-22.023-17.005
	C109.53,136.448,111.071,134.8,112.887,133.401z M104.516,179.544c-0.064,13.479-12.427,5.233-17.517-0.998
	c-0.592-0.924-1.2-1.773-1.792-2.49c-1.565-1.905-4.504,0.537-3.33,2.569c0.694,1.203,1.562,2.389,2.542,3.523
	c1.556,2.58,2.365,5.321,1.755,8.695c-1.977,10.939-11.084-4.282-12.465-7.136c-0.037-0.077-0.084-0.183-0.118-0.253
	c-1.184-2.508-4.698-0.316-3.658,2.139c0.083,0.195,0.179,0.406,0.268,0.611c1.959,4.63,9.816,26.427,1.565,24.741
	C56.685,207.862,54.282,184.934,53.915,173c-0.353-11.511,0.709-26.577,10.687-34.095c10.689-8.054,24.991,2.832,33.061,10.019
	c-1.663,9.968,2.314,20.052,7.83,28.927C104.939,178.167,104.52,178.713,104.516,179.544z M159.492,231.324
	c-3.307-5.004-7.106-9.612-11.133-14.038c4.539,2.805,8.997,5.318,13.147,7.522c1.411,0.748,3.298-0.827,2.31-2.31
	c-3.217-4.83-6.747-9.388-10.499-13.741c4.897,4.615,10.034,8.936,15.665,12.633C165.434,224.487,162.206,227.761,159.492,231.324z
	 M171.496,219.274c-0.015-0.018-0.019-0.035-0.034-0.051c-20.878-20.813-44.552-39.283-62.294-62.947
	c23.718,18.02,42.421,41.784,65.866,60.223C173.827,217.409,172.648,218.333,171.496,219.274z M224.263,181.432
	c-6.744-12.319-14.518-23.975-22.846-35.248c8.911,8.711,16.469,18.882,26.142,26.901c1.771,1.471,4.676-0.393,3.339-2.577
	c-5.983-9.777-13.231-18.651-20.085-27.793c7.082,7.964,13.759,16.3,20.674,24.449c0.818,0.963,2.156,0.758,3.007,0.032
	C232.01,172.459,228.491,177.145,224.263,181.432z M287.376,187.895c-3.557,7.008-16.669,17.465-21.247,4.384
	c-2.322-6.641,1.94-15.281,5.597-20.613c1.381-2.016-1.728-4.363-3.359-2.591c-1.401,1.521-2.724,3.1-4.056,4.683
	c-1.101,1.315-2.237,2.598-3.414,3.845c-3.322,4.411-6.335,2.109-9.036-6.905c1.112-2.525-2.446-4.76-3.784-2.212
	c-0.4,0.761-0.752,1.567-1.047,2.399c-1.729,2.75-4.951,3.413-9.688,1.961c4.069-7.691,6.313-16.394,6.331-25.048
	c9.445-6.069,18.887-12.174,29.579-15.831c16.123-5.516,22.621,5.298,23.23,20.296C296.957,163.988,292.606,177.591,287.376,187.895
	z"/>
</svg>
