<?xml version="1.0" encoding="utf-8"?>
<!-- Generator: Adobe Illustrator 16.0.0, SVG Export Plug-In . SVG Version: 6.00 Build 0)  -->
<!DOCTYPE svg PUBLIC "-//W3C//DTD SVG 1.1//EN" "http://www.w3.org/Graphics/SVG/1.1/DTD/svg11.dtd">
<svg version="1.1" id="Layer_1" xmlns="http://www.w3.org/2000/svg" xmlns:xlink="http://www.w3.org/1999/xlink" x="0px" y="0px"
	 width="350px" height="350px" viewBox="0 0 350 350" enable-background="new 0 0 350 350" xml:space="preserve">
<path fill="#EE677B" d="M274.563,132.567c-2.85-3.424-5.877-6.647-8.986-9.779c1.295,0.743,2.58,1.502,3.902,2.202
	c3.234,1.711,6.493-2.38,3.911-5.071c-5.157-5.375-10.765-10.235-16.469-14.984c2.219,1.384,4.473,2.718,6.823,3.894
	c2.75,1.376,6.07-1.473,4.354-4.354c-0.664-1.117-1.392-2.167-2.14-3.192c0.376-1.009,0.277-2.19-0.667-3.203
	c-6.439-6.9-14.665-11.52-22.521-16.618c-2.85-1.848-5.396,1.464-4.396,3.993c-2.89-1.631-5.866-3.127-9.021-4.342
	c-3.149-1.212-5.178,3.2-3.114,5.353c2.214,2.312,4.529,4.506,6.88,6.66c-2.493-1.655-5.01-3.279-7.587-4.813
	c-3.104-1.85-6.788,2.672-3.929,5.091c5.349,4.522,10.793,8.916,16.191,13.35c-6.78-4.602-13.568-9.192-20.328-13.827
	c-2.661-1.826-6.183,1.77-4.422,4.422c5.206,7.843,11.391,14.805,17.851,21.521c-7.809-5.694-16.171-10.538-25.712-13.61
	c-2.651-0.854-5.213,2.404-3.659,4.76c1.914,2.906,3.938,5.731,6.043,8.494c-4.592-2.992-9.335-5.787-14.301-8.28
	c-3.176-1.593-6.511,2.351-3.867,5.013c12.486,12.581,24.508,25.604,36.575,38.584c-32.846-27.61-62.982-58.656-101.792-78.156
	c-2.594-1.303-6.458,1.581-4.387,4.387c3.085,4.18,6.658,7.951,10.513,11.482c-5.408-4.244-10.901-8.382-16.517-12.368
	c-2.967-2.104-6.34,2.503-3.819,4.95c4.653,4.516,9.318,9.02,13.991,13.515c-8.045-5.823-16.357-11.298-25.129-16.183
	c-3.092-1.723-6.563,2.486-3.848,4.988c13.664,12.599,27.394,25.125,41.14,37.632c-13.416-10.123-27.538-19.261-43.09-26.428
	c-2.943-1.357-6.715,2.537-3.75,4.861c26.985,21.154,52.946,43.525,78.198,66.683c-3.715-3.091-7.412-6.203-11.061-9.372
	c-21.929-19.042-44.735-37.607-71.49-49.432c-3.181-1.406-5.835,2.003-3.646,4.726c2.189,2.723,4.435,5.389,6.715,8.019
	c-2.882-1.646-5.818-3.216-8.832-4.674c-3.062-1.481-5.973,2.114-3.633,4.709c2.029,2.252,4.124,4.458,6.226,6.657
	c-1.886,0.375-3.458,2.325-2.03,4.216c0.15,0.2,0.312,0.392,0.463,0.59c-0.001,0.001-0.004,0.002-0.004,0.002
	c0.007,0.007,0.015,0.015,0.023,0.023c4.832,6.321,10.224,12.199,15.927,17.825c-3.701-2.93-7.442-5.81-11.289-8.562
	c-2.693-1.927-5.682,2.24-3.454,4.477c6.335,6.358,12.599,12.794,18.836,19.255c-5.551-3.861-11.396-7.267-17.67-9.939
	c-2.385-1.017-5.71,1.254-3.94,3.939c2.82,4.278,5.88,8.321,9.046,12.258c22.71,42.51,66.198,70.899,103.042,100.081
	c2.396,1.9,6.854-0.674,4.656-3.592c-0.153-0.204-0.321-0.393-0.476-0.593l0.01-0.008c-0.013-0.011-0.028-0.021-0.043-0.036
	c-29.707-39.008-74.642-63.005-104.481-101.63c18.6,10.934,33.629,27.742,48.91,42.666c18.241,17.817,37.288,35.757,57.867,50.844
	c2.554,1.873,5.839-2.392,3.386-4.389c-27.5-22.412-52.242-47.722-76.757-73.269c25.871,24.041,50.729,49.267,81.396,67.355
	c3.224,1.901,5.902-2.882,2.893-4.948c-21.158-14.527-39.094-33.019-57.169-51.134c17.733,14.324,35.762,28.287,54.064,41.883
	c0.184,0.606,0.599,1.166,1.339,1.573c3.043,1.674,3.175,1.775,6.454,2.597c3.028,0.759,4.59-2.679,2.835-4.869
	c-17.182-21.44-40.465-36.518-62.279-52.762c-20.285-15.107-40.596-31.569-58.863-49.52c4.352,2.883,8.58,5.946,12.716,9.139
	c13.31,12.936,27.565,24.902,42.201,36.445c5.157,4.402,10.559,8.503,16.072,12.462c16.57,12.657,33.319,25.076,49.423,38.057
	c2.951,2.379,7.009-1.41,4.246-4.246c-20.893-21.438-48.309-35.319-70.751-55.083c-12.182-10.728-24.121-21.872-36.896-31.847
	c-5.591-5.434-11.01-11.044-16.219-16.87c21.986,12.049,41.314,28.306,60.255,44.753c22.758,19.762,47.217,37.568,69.723,57.543
	c2.885,2.56,7.032-1.493,4.259-4.259c-33.665-33.597-68.38-66.234-104.794-96.849c37.115,26.166,67.938,61.113,105.71,86.677
	c2.924,1.974,6.314-2.496,3.745-4.854c-34.448-31.626-69.063-63.077-103.543-94.672c36.436,28.532,67.583,63.93,106.683,89.208
	c2.967,1.918,6.59-2.667,3.809-4.937c-15.112-12.326-29.882-25.052-44.438-38.021c14.475,12.379,29.322,24.298,45.224,34.913
	c3.068,2.046,6.259-2.442,3.832-4.964c-19.649-20.423-39.909-40.225-60.578-59.61c-1.537-1.438-3.063-2.888-4.595-4.334
	c24.287,20.72,47.363,43.108,73.985,60.886c3.089,2.062,6.406-2.501,3.886-5.034c-16.093-16.157-31.351-33.107-46.969-49.715
	c10.113,7.326,19.55,15.561,28.979,23.829c1.135,1.001,2.27,2,3.414,2.989c6.674,5.842,13.388,11.643,20.39,17.083
	c3.216,2.5,7.815-1.887,4.566-4.568c-6.668-5.5-13.443-11.06-20.102-16.798c-1.74-1.519-3.479-3.039-5.216-4.56
	c-10.854-9.646-21.209-19.878-29.991-31.277c18.794,9.366,33.085,25.867,49.557,38.811c2.676,2.102,7.465-0.655,5.145-3.968
	c-10.482-14.96-24.436-26.818-36.647-40.208c13.172,8.927,26.313,17.893,39.084,27.401
	C273.789,140.043,276.75,135.199,274.563,132.567z M110.035,197.724c19.471,18.176,41.197,34.146,60.14,52.885
	C149.037,234.392,127.505,217.538,110.035,197.724z M172.994,205.41c4.403,3.284,8.75,6.633,12.988,10.098
	C181.638,212.165,177.306,208.799,172.994,205.41z M210.896,160.582c-23.024-18.938-44.755-39.492-67.684-58.571
	c10.319,7.615,21.279,14.643,30.416,23.085C186.232,136.737,198.655,148.567,210.896,160.582z"/>
</svg>
