<?xml version="1.0" encoding="utf-8"?>
<!-- Generator: Adobe Illustrator 16.0.0, SVG Export Plug-In . SVG Version: 6.00 Build 0)  -->
<!DOCTYPE svg PUBLIC "-//W3C//DTD SVG 1.1//EN" "http://www.w3.org/Graphics/SVG/1.1/DTD/svg11.dtd">
<svg version="1.1" id="Layer_1" xmlns="http://www.w3.org/2000/svg" xmlns:xlink="http://www.w3.org/1999/xlink" x="0px" y="0px"
	 width="350px" height="350px" viewBox="0 0 350 350" enable-background="new 0 0 350 350" xml:space="preserve">
<path fill="#E6332A" d="M289.396,123.099c-0.619-1.34-1.94-2.54-3.653-3.546c4.168-8.03,4.813-18.984,1.479-26.888
	c-3.25-7.704-10.935-9.501-18.131-7.842c-1.28-3.609-3.063-6.738-4.981-8.499c-5.335-4.894-11.4-4.907-16.52-2.299
	c-4.633-5.43-11.625-9.077-18.456-7.225c-5.001,1.355-8.66,5.553-10.932,10.377c-4.531-2.021-9.639-2.374-13.897,0.718
	c-3.177,2.307-5.001,5.732-5.569,9.306c-6.063,0.173-12.375,2.013-15.733,5.245c-2.883,2.775-3.997,7.04-3.763,11.436
	c-1.479,0.055-3.052,0.238-4.657,0.541c-1.396-1.476-3.083-2.833-5.013-4.07c-2.477-1.586-5.284-2.592-8.183-3.079
	c1.12-5.592,0.396-11.595-2.79-16.284c-4.67-6.875-12.483-4.453-18.237,0.347c-1.298-1.842-3.065-3.38-5.021-4.293
	c-3.76-1.755-7.5,0.596-10.248,3.477c-2.145-3.338-6.253-5.457-10.26-4.483c-5.203,1.264-8.804,7.884-9.03,13.768
	c-2.88-0.843-5.164-2.601-4.445-6.172c0.778-3.856,5.295-6.874,8.403-8.611c1.347-0.753,0.429-2.859-1.038-2.463
	c-6.019,1.627-14.281,8.996-12.51,15.379c-0.058-0.002-0.102-0.023-0.161-0.024c-6.106-0.123-10.788,3.685-11.43,9.001
	c-0.842-0.099-1.68-0.137-2.512-0.123c-0.306-0.77-0.551-1.565-0.651-2.399c-0.637-5.32,3.314-7.566,7.33-9.699
	c1.329-0.706,0.586-2.501-0.708-2.613c-9.029-0.785-12.661,8.193-10.937,15.599c-3.804,1.394-6.463,4.44-5.827,9.427
	c0.135,1.057,1.7,1.477,1.994,0.271c0.875-3.594,2.784-5.553,5.062-6.346c0.125,0.24,0.233,0.489,0.371,0.721
	c2.061,3.428,5.85,5.586,9.896,6.369c0.247,0.297,0.535,0.563,0.799,0.847c-2.973,1.697-4.953,4.451-6.008,7.561
	c-11.003-8.091-26.961,6.772-15.938,13.765c-7.842,3.405-12.914,12.486-3.861,14.665c5.207,1.253,11.818-1.553,16.872-5.993
	c0.453,0.553,0.901,1.134,1.335,1.792c0.96,2.349,0.646,4.952-0.253,7.437c-2.162-0.167-4.462-0.023-6.897,0.574
	c-9.595,2.354-16.662,15.704-1.811,14.867c6.256-0.353,10.411-4.41,12.463-9.629c0.849,0.339,1.653,0.801,2.421,1.35
	c-1.601,2.998-2.458,6.212-2.317,9.354c-0.886-0.339-2.024-0.134-2.71,0.816c-7.723,10.687,4.387,18.354,10.587,11.334
	c1.019,0.709,2.121,1.356,3.253,1.967c0.012,0.467,0.108,0.93,0.164,1.395c-8.328,4.58-5.177,13.785,3.017,18.847
	c2.176,1.344,4.319,2.199,6.401,2.689c-3.143,8.201-2.379,16.514,7.502,19.721c1.703,0.555,4.034,0.74,6.613,0.599
	c0.021,1.689,0.248,3.204,0.772,4.344c2.094,4.555,6.875,7.001,11.915,7.486c0.665,4.483,3.766,9.249,9.211,13.552
	c4.472,3.535,9.682,5.076,14.092,4.616c0.475,3.314,2.163,6.378,5.037,8.419c1.157,2.926,3.143,5.6,5.897,7.872
	c-2.429,1.805-4.535,4.069-6.363,7.027c-0.653,1.057-0.492,2.66,0.453,3.505c13.474,12.064,30.056-0.989,34.537-13.6
	c8.915-2.214,16.811-8.516,20.312-16.829c4.904-2.934,8.011-8.699,8.345-15.213c6.336,0.715,13.029-2.368,16.887-7.386
	c10.051-2.845,18.516-17.328,20.77-29.902c6.166-1.242,12.267-4.129,15.99-7.707c6.864-6.602,7.103-13.315,3.839-18.211
	c9.442-7.473,7.782-18.549,2.186-24.196C290.675,141.126,293.239,131.412,289.396,123.099z M70.694,140.109
	c-1.114-1.387-2.23-2.774-3.344-4.161c3.565-1.813,6.803-1.83,9.718-0.071C75.273,137.713,73.195,139.185,70.694,140.109z
	 M81.787,127.248c-2.029,0.85-4.189,1.246-6.385,0.896c-3.827-10.632-1.63-12.23,6.589-4.795
	C82.087,124.715,81.987,126.001,81.787,127.248z M76.598,156.116c-7.333,2.715-9.268,2.785-5.805,0.208
	c1.566-1.176,3.467-1.823,5.305-2.423c0.91-0.297,1.842-0.468,2.772-0.597C78.128,154.356,77.348,155.321,76.598,156.116z
	 M282.957,137.598c-1.34-3.708-3.978-6.851-8.095-8.761c-0.176-0.302-0.315-0.625-0.513-0.914c2.985,0.08,6.128-1.285,8.465-3.958
	C285.991,127.293,285.78,133.032,282.957,137.598z M276.771,134.093c1.974,1.916,2.974,4.343,3.218,6.974
	c-0.612,0.517-1.238,1.024-1.95,1.439c-0.57-0.111-1.162-0.087-1.748-0.095C277.132,139.867,277.284,136.935,276.771,134.093z
	 M114.119,182.138c-0.289,2.014-0.03,4.153,0.667,6.302c-1.126,1.179-2.23,2.43-3.261,3.8c-2.987-1.676-5.674-4.849-7.613-7.667
	c-0.216-0.997-0.432-1.995-0.646-2.991C107.117,182.71,110.947,182.987,114.119,182.138z M102.169,176.509
	c-0.098-0.453-0.196-0.905-0.293-1.359c11.369-11.157,13.608-10.348,6.716,2.427C106.448,177.816,104.265,177.347,102.169,176.509z
	 M119.192,140.905c-1.363,2.22-2.192,4.603-2.361,6.993c-0.404-1.952-1.605-3.704-3.895-4.697c-0.583-0.252-1.179-0.441-1.779-0.605
	c-0.256-2.549-0.174-5.145,0.167-7.633c0.072-0.849,0.187-1.54,0.32-2.144C113.038,136.412,115.755,139.411,119.192,140.905z
	 M112.131,113.546c1.058-3.478,3.781-6,8.225-7.534c0.587-0.227,1.091-0.322,1.625-0.464
	C119.653,109.514,116.285,112.448,112.131,113.546z M120.773,180.445c0.351,0.823,0.811,1.589,1.249,2.368
	c-1.298,0.646-2.648,1.55-4.009,2.651C118.235,183.523,119.275,181.818,120.773,180.445z M121.675,149.318
	c-0.225-2.532,0.219-5.08,1.508-7.412c1.245,0.07,2.555-0.127,3.891-0.483c0.335,1.465,0.819,2.904,1.63,4.26
	c0.279,0.467,0.597,0.86,0.904,1.27C126.686,146.916,123.983,147.8,121.675,149.318z M129.252,160.982
	c1.944-1.547,3.419-3.79,3.895-6.76c1.507,0.917,2.698,3.245,3.414,5.721c-0.396,1.132-0.721,2.333-0.888,3.678
	c-0.016,0.136-0.006,0.289-0.02,0.427C133.32,163.438,131.198,162.396,129.252,160.982z M132.524,167.882
	c-3.651,1.286-6.573,1.638-8.762,1.057c0.166-1.627,0.536-3.248,1.027-4.861C127.107,165.824,129.755,167.109,132.524,167.882z
	 M126.675,190.438c0.304-0.692,0.19-1.296-0.055-1.829c1.828,0.856,3.835-1.548,2.293-3.339c-1.977-2.296-3.32-4.749-4.182-7.28
	c1.365-0.573,2.804-0.945,4.228-1.103c0.575,0.007,1.14-0.021,1.695-0.094c5.227,0.104,9.307,3.588,5.65,12.194
	c-1.506,1.12-2.813,2.458-3.773,3.949c-1.355,2.1-2.045,4.44-2.238,6.867c-2.55-1.234-4.924-2.869-6.98-4.671
	C124.59,193.947,125.768,192.497,126.675,190.438z M132.535,141.438c-0.323-0.894-0.524-1.778-0.627-2.653
	c0.617-0.682,1.082-1.422,1.361-2.22c0.456-0.51,0.882-1.129,1.29-1.811c3.273,0.716,5.7,4.552,7.267,11.552
	C137.405,148.143,134.307,146.52,132.535,141.438z M158.476,147.188c-2.781-0.078-5.119,1.365-7.012,3.661
	c-1.267-0.442-2.784-0.538-4.392-0.265c0.673-5.045,3.088-10.018,6.183-13.684c1.769-0.843,3.333-2.062,4.66-3.491
	c0.121-0.046,0.236-0.118,0.358-0.16c-0.909,3.607-1.258,7.142-0.963,9.9C157.476,144.712,157.891,146.051,158.476,147.188z
	 M186.353,194.313c-2.141,1.392-4.517,2.236-7.125,2.534c-0.373-0.195-0.744-0.39-1.117-0.582c1.095-4.032,0.566-7.662-1.979-8.993
	c1.294-2.321,3.123-4.321,5.575-5.945c1.723,1.618,3.447,3.238,5.172,4.857C186.089,188.418,185.946,191.284,186.353,194.313z
	 M186.262,168.472c-1.442,2.218-3.775,3.965-5.865,5.357c-0.302,0.2-0.622,0.34-0.933,0.513c-2.246-1.121-4.243-2.659-5.796-4.426
	c0.595-0.482,1.19-0.898,1.779-1.158c1.553-0.688,0.438-3.16-1.138-2.699c-0.945,0.276-1.814,0.629-2.649,1.014
	c-2.067-3.94-1.692-8.313,3.174-11.31c0.535-0.037,1.042-0.109,1.619-0.094c0.721,0.018,1.177-0.569,1.27-1.188
	c4.374,1.062,7.34,2.586,8.957,4.554C185.608,162.296,185.521,165.523,186.262,168.472z M163.382,209.955
	c0.396-0.038,0.724-0.004,1.134-0.06c3.223-0.448,6.018-2.17,8.273-4.453c0.853,1.093,1.954,2.002,3.204,2.779
	c-1.916,1.124-3.643,2.583-4.97,4.028c-1.44,1.568-2.269,3.317-2.663,5.134c-1.258-1.078-2.84-1.812-4.723-2.005
	C163.993,213.578,163.914,211.719,163.382,209.955z M170.55,200.913c-1.07,1.226-2.584,2.354-4.67,3.146
	c-2.072,0.789-3.893,1.156-5.498,1.196c-0.142-0.132-0.284-0.262-0.436-0.388c0.369-3.61,2.461-6.86,5.627-9.425
	c1.263,1.606,2.801,3.004,4.625,4.076C170.292,199.994,170.415,200.454,170.55,200.913z M151.52,186.93
	c-0.071-0.042-0.147-0.07-0.219-0.11c-0.54-0.225-1.063-0.547-1.581-0.885c0.126-1.517,0.33-2.898,0.594-3.998
	c0.004-0.015,0.011-0.027,0.015-0.042c1.903,2.152,4.131,3.832,6.499,4.982C155.023,187.61,153.228,187.588,151.52,186.93z
	 M150.592,196.71c-0.448-1.596-0.742-3.283-0.884-4.97c0.552,0.247,1.102,0.511,1.675,0.673
	C152.564,193.797,151.985,195.305,150.592,196.71z M151.82,177.611c1.185-2.63,2.778-5.085,4.583-7.341
	c0.938-0.082,1.799-0.328,2.667-0.554c0.085,2.947,1.106,5.733,3.369,7.812c-0.548,1.742-0.845,3.563-0.889,5.394
	c-0.243,0.31-0.484,0.637-0.728,0.916c-2.301-0.539-4.68-1.772-7.017-3.925C153.028,179.197,152.376,178.423,151.82,177.611z
	 M155.862,192.703c2.14-0.323,4.355-1.322,6.605-3.156c0.162,0.512,0.396,0.993,0.6,1.488c-4.23,3.073-6.668,7.109-7.431,11.502
	c-0.829-0.278-1.688-0.48-2.574-0.631c-0.177-0.225-0.316-0.49-0.479-0.734C154.985,198.771,156.751,195.773,155.862,192.703z
	 M165.001,172.462c-0.76-1.385-1.209-3-1.286-4.706c0.811-0.525,1.55-1.118,2.219-1.759c0.02,0.08,0.015,0.154,0.035,0.234
	c0.342,1.333,0.811,2.555,1.347,3.71C166.454,170.721,165.667,171.552,165.001,172.462z M161.847,144.222
	c-1.393-3.447-0.94-7.583,0.22-11.398c1.75,0.188,3.502,0.91,5.111,2.291c0.683,0.972,1.365,1.943,2.049,2.915
	C172.288,143.588,169.827,145.653,161.847,144.222z M161.815,160.458c-0.971,1.505-1.703,3.123-2.17,4.792
	c-0.378-1.032-1.702-1.718-2.796-0.745c-0.429,0.382-0.845,0.818-1.26,1.258c-1.74-0.349-3.367-1.228-4.752-2.513
	c0.471-0.517,0.97-0.983,1.392-1.583c2.343-3.325,2.874-5.947,2.302-7.829C157.273,152.426,159.967,157.439,161.815,160.458z
	 M152.895,131.764c-2.576,1.745-5.117,2.076-7.382,1.46c-1.345-1.626-2.986-2.686-4.834-3.203c-1.259-1.411-2.243-3.121-2.851-4.988
	c0.542-0.577,1.093-1.134,1.646-1.656c2.576-2.284,5.515-3.895,8.817-4.834C157.765,121.904,159.299,126.311,152.895,131.764z
	 M141.954,158.767c0.571-0.022,1.004-0.015,1.498-0.02c0.122,1.283,0.374,2.489,0.71,3.639c-0.677,0.302-1.377,0.608-2.226,0.947
	c0.126-1.202,0.223-2.421,0.131-3.726C142.046,159.313,141.986,159.052,141.954,158.767z M140.687,168.522
	c1.778-0.228,3.485-0.782,5.114-1.54c-0.334,3.819-0.056,7.295,0.905,9.395c0.396,0.865,0.849,1.684,1.334,2.47
	c-0.514,1.431-0.981,2.886-1.358,4.364c-3.11-3.581-5.462-8.938-6.262-14.202C140.499,168.837,140.613,168.698,140.687,168.522z
	 M150.126,206.446c1.494,1.413,3.343,2.508,5.661,3.122c0.438,2.247,1.229,4.486,2.388,6.65c-0.393,0.138-0.77,0.233-1.183,0.421
	c-2.184,0.995-4.399,2.321-6.303,3.951c-0.614-0.098-1.22-0.289-1.822-0.518c-0.445-1.119-1.463-1.945-2.806-1.538
	c-0.015,0.006-0.025,0.013-0.042,0.017c-2.312-1.569-4.401-3.738-6.033-5.727c0.359-0.884,0.519-1.824,0.438-2.817
	C142.647,207.851,146.131,206.495,150.126,206.446z M152.384,225.207c3.75-0.184,6.749-2.021,8.761-4.58
	c1.654,2.03,3.637,3.918,5.945,5.592c-1.213,6.67-9.833,4.652-16.538,1.748C150.892,227.119,151.49,226.201,152.384,225.207z
	 M171.132,229.339c0.574,0.91,1.203,1.763,1.871,2.564c-0.597,0.772-1.149,1.566-1.619,2.395c-2.116,0.505-4.157,1.242-6,2.141
	c-0.028-0.132-0.034-0.248-0.064-0.383c-0.149-0.642-0.494-1.047-0.915-1.272C167.907,234.167,170.093,232.003,171.132,229.339z
	 M172.97,223.499c-0.567-5.645,2.827-12.062,9.173-12.897c0.571,2.694,1.143,5.389,1.714,8.083
	C180.72,223.501,177.088,225.076,172.97,223.499z M182.509,248.988c-0.822,0.312-1.531,0.751-2.14,1.287
	c-3.61-0.108-5.179-4.444-5.652-7.841C178.603,242.166,182.16,244.249,182.509,248.988z M180.187,231.918
	c0.579-0.447,1.153-0.982,1.708-1.36c2.294-1.561,4.952-2.537,7.674-3.077c-0.341,1.326-0.47,2.667-0.405,3.954
	c-1.614,0.413-3.253,0.719-4.897,0.83C182.725,232.367,181.398,232.204,180.187,231.918z M201.479,125.631
	c0.578-0.204,0.985-0.474,1.437-0.728c-1.253,2.789-1.678,5.373-1.416,7.66c-1.305-2.807-3.119-5.355-5.338-7.213
	C197.845,126.066,199.645,126.277,201.479,125.631z M196.741,120.072c1.535-1,2.824-2.742,3.377-4.608
	c0.076,0.08,0.16,0.162,0.231,0.24c0.175,0.279,0.397,0.536,0.621,0.791c1.376,2.023,0.493,3.486-2.729,4.37
	C197.699,120.64,197.229,120.348,196.741,120.072z M200.874,155.717c1.392-2.74,4.447-3.899,9.034-0.252
	c4.191,3.333,4.356,7.791,2.521,11.69c-1.458,0.776-3.17,1.145-5.099,1.03C208.498,163.446,205.223,158.539,200.874,155.717z
	 M195.763,182.443c-0.163-0.952-0.461-1.826-0.834-2.647c0.083-0.03,0.166-0.062,0.249-0.095c2.286,1.187,4.834,1.865,7.497,1.852
	c-0.524,1.372-0.831,2.873-0.787,4.507C200.608,184.421,198.599,183.16,195.763,182.443z M204.146,206.172
	c-2.521,0.499-5.063,0.226-7.285-0.962c0.656-0.597,1.27-1.226,1.85-1.885C201.331,203.785,203.074,204.799,204.146,206.172z
	 M192.518,159.937c0.517-0.26,1.146-0.41,1.936-0.408c0.291,3.917,2.172,8.047,5.271,11.089c-1.421,1.231-3.138,2.302-4.721,3.138
	c-1.293-1.215-2.365-3.019-3.088-5.528C192.886,165.666,193.136,162.855,192.518,159.937z M192.7,129.375
	c0.006-0.034,0.008-0.069,0.015-0.104c3.291,2.35,5.366,6.646,5.366,10.764c-1.881-1.667-3.479-3.613-4.461-5.629
	C193.729,132.763,193.414,131.063,192.7,129.375z M208.774,128.082c3.093,1.375,4.777,4.93,5.048,8.445
	c-2.609-0.067-5.21-0.749-6.574-2.613c-0.659-0.901-0.706-2.082-0.555-3.147C206.977,128.762,207.165,127.368,208.774,128.082z
	 M213.208,150.736c1.443,0.062,2.933-0.069,4.453-0.418c0.305,0.857,0.513,1.749,0.653,2.658c-0.723,0.55-1.319,1.256-1.786,2.115
	C215.694,153.403,214.61,151.896,213.208,150.736z M204.775,107.16c0.518-1.762,1.35-3.482,2.361-5.131
	c0.157,0.051,0.27,0.153,0.43,0.198c0.551,0.795,1.658,1.139,2.668,0.947c0.844,3.293,2.909,6.233,5.659,8.331
	c-0.233,0.714-0.609,1.315-1.069,1.824c-1.645,0.253-3.087,0.871-4.228,1.876C206.95,115.375,203.146,112.705,204.775,107.16z
	 M187.695,133.686c-0.676,2.604-2.254,4.828-4.111,5.572c-0.007-3.823,1.173-7.73,3.718-9.817
	C187.207,130.842,187.329,132.265,187.695,133.686z M185.324,143.267c2.378-0.866,4.126-1.947,5.439-3.152
	c1.525,2.165,3.447,4.138,5.585,5.768c-0.585,0.811-1.319,1.539-2.223,2.146c-5.255,3.53-8.72,0.355-10.002-4.431
	C184.521,143.495,184.902,143.421,185.324,143.267z M191.594,208.745c0.309-0.146,0.629-0.263,0.931-0.426
	c1.294,1.324,2.72,2.318,4.273,2.716c2.817,0.721,5.828,0.575,8.8-0.214c0.014,1.864-0.396,3.866-1.089,5.813
	c-2.991-0.023-6.202,0.786-9.188,2.688c-0.049,0.031-0.08,0.082-0.128,0.114c-2.142-2.001-3.615-4.669-3.858-8.023
	C191.272,210.546,191.38,209.635,191.594,208.745z M201.374,199.687c1.348-2.339,2.164-4.804,2.335-7.142
	c1.485,2.815,3.545,4.802,5.942,6.039c0.002,0.072-0.031,0.116-0.027,0.19c0.104,1.498,0.492,2.891,1.043,4.207
	c-0.896,0.743-1.845,1.367-2.826,1.875C206.271,202.054,203.943,200.35,201.374,199.687z M218.735,186.28
	c0.064,1.358-0.196,2.709-0.561,4.047c-1.701,1.072-3.56,2.181-5.688,3.35C204.804,188.628,206.887,186.162,218.735,186.28z
	 M217.912,203.425c1.727,0.745,3.454,1.49,5.181,2.236c0,1.126-0.215,2.204-0.382,3.293c-0.079-0.04-0.146-0.051-0.226-0.092
	c-2.131-1.104-3.99-2.671-5.604-4.448C217.232,204.092,217.577,203.763,217.912,203.425z M215.645,174.378
	c0.202-0.339,0.37-0.701,0.551-1.057c7.218,1.109,11.236,2.926,12.029,5.454c-1.012,0.463-2.036,0.879-3.051,1.235
	c-0.614,0.218-1.269,0.384-1.934,0.519c-0.001-0.004-0.003-0.006-0.004-0.009C221.323,176.899,218.553,175.026,215.645,174.378z
	 M224.792,142.141c-1.067,1.208-2.364,2.045-3.717,2.699c-0.622-0.884-1.377-1.681-2.12-2.484c0.031-0.1,0.082-0.191,0.11-0.293
	c3.531-0.589,6.854-2.077,8.679-5.177C227.006,138.907,226.02,140.749,224.792,142.141z M225.353,128.387
	c-2.076-1.68-4.615-2.969-6.286-3.705c-1.252-0.551-3.031-0.179-3.951,0.82c-0.952-0.948-1.779-2.042-2.321-3.349
	c-0.281-0.681-0.395-1.248-0.431-1.761c1.274-0.166,2.502-0.48,3.551-1.141c0.417-0.263,0.684-0.649,1.045-0.96
	c1.424,4.477,6.18,7.141,11.514,7.05c0.124,0.45,0.284,0.878,0.367,1.345C227.788,127.544,226.591,128.06,225.353,128.387z
	 M224.764,115.421c0.27-0.248,0.54-0.494,0.812-0.741c0.993-0.041,1.99-0.151,2.987-0.425c0.516-0.142,0.975-0.338,1.452-0.518
	c3.176,3.048,3.905,6.058,2.259,9.031c-0.022-0.041-0.052-0.075-0.075-0.116c0.008-0.924-0.446-1.801-1.369-2.129
	C229.17,118.357,227.04,116.664,224.764,115.421z M245.418,121.623c-1.013,0.284-1.925,0.381-2.767,0.381
	c0.007-0.014,0.008-0.025,0.014-0.039c0.901-1.954-1.868-3.667-2.933-1.714c-0.148,0.275-0.247,0.54-0.378,0.812
	c-0.202-0.131-0.326-0.319-0.499-0.473c0.528-2.013,0.55-4.052-0.172-5.971c1.247-0.851,2.303-1.787,3.099-2.821
	c0.18-0.085,0.318-0.19,0.51-0.27c0.607-0.253,1.231-0.422,1.855-0.57c2.526,2.46,5.6,4.406,8.945,5.776
	C250.979,119,248.393,120.79,245.418,121.623z M257.177,118.072c1.752,0.436,3.525,0.763,5.31,0.86
	c0.602,0.989,1.077,2.029,1.331,3.104c-6.429-0.75-14.555,1.055-18.888,4.677c-0.234-0.107-0.446-0.241-0.689-0.34
	c-0.467-0.19-0.877-0.285-1.319-0.433C247.997,125.139,253.752,121.555,257.177,118.072z M238.391,109.419
	c-0.866,0.434-1.646,0.953-2.346,1.532c-0.228-0.206-0.45-0.412-0.705-0.61c2.35-2.403,3.626-5.467,3.803-8.613
	c0.095,0.716,0.249,1.42,0.461,2.113C239.675,105.786,239.297,107.687,238.391,109.419z M237.705,160.658
	c1.21,1.078,1.804,2.263,2.042,3.478C227.212,177.966,229.83,153.637,237.705,160.658z M238.453,170.003
	c-0.355,0.625-0.751,1.215-1.164,1.778c-2.316,0.774-3.764,2.355-4.434,4.28c-0.076,0.055-0.15,0.109-0.227,0.163
	c-0.78-1.224-1.618-2.344-2.54-3.309C232.865,172.457,235.743,171.429,238.453,170.003z M235.383,186.093
	c1.424,1.542,3.303,2.751,5.623,3.252c0.521,0.111,1.056,0.146,1.589,0.188c0.725,1.639,1.742,2.979,3.032,4.009
	c-3.502,1.99-8.485,0.433-11.762-2.649C234.691,189.413,235.188,187.797,235.383,186.093z M243.855,178.422
	c-1.441,0.572-2.172,1.507-2.329,3.06c-0.087,0.858-0.04,1.599-0.032,2.373c-1.867-0.8-3.537-2.87-3.904-4.627
	c1.103-0.864,2.123-1.792,3.044-2.776c1.718,0.013,3.456,0.55,5.077,1.388C245.082,178.047,244.524,178.156,243.855,178.422z
	 M244.067,137.703c0.643,0.842,1.442,1.708,2.435,2.603c1.134,1.022,2.576-0.495,1.645-1.645c-0.27-0.333-0.462-0.642-0.689-0.962
	c0.696,0.173,1.412,0.217,2.124,0.281c0.242,1.24,0.406,2.752,0.413,4.786c-0.751,0.761-1.503,1.521-2.254,2.283
	c-1.444-2.019-3.257-3.812-5.297-5.17C243.024,139.021,243.554,138.334,244.067,137.703z M247.436,128.128
	c2.973-2.663,8.603-3.837,13.321-3.793c1.075,0.011,2.156,0.141,3.229,0.331c-0.044,0.544-0.145,1.084-0.31,1.621
	c-4.516-0.06-8.714,1.357-10.208,6.179c-0.064,0.21-0.026,0.444-0.072,0.659c-0.364,0.044-0.716-0.016-1.082,0.009
	C251.073,131.194,249.44,129.485,247.436,128.128z M256.792,159.949c1.421,1.382,3.02,2.601,4.691,3.507
	c-2.2,0.716-4.16,2.453-4.26,4.52C255.628,166.114,255.753,162.716,256.792,159.949z M259.62,156.143
	c1.589-0.821,3.428-0.057,4.976,3.927c0.028,0.074,0.025,0.153,0.051,0.227C262.599,159.581,260.84,158.003,259.62,156.143z
	 M257.873,150.963c-0.007-1.798,0.785-3.256,2.617-3.809c0.956,0.692,1.925,1.29,2.87,1.633c1.495,0.544,2.846,0.713,4.115,0.708
	c0.489,0.364,1.153,0.436,1.778-0.018c2.198,2.088,3.471,5.175,3.603,8.481c-0.7,0.626-1.417,1.202-2.159,1.653
	c-0.764,0.465-1.519,0.723-2.267,0.896C266.715,155.95,262.321,152.359,257.873,150.963z M270.904,143.969
	c-0.32,0.195-0.646,0.31-0.966,0.545c-2.708-1.613-5.928-2.375-9.376-1.837c-1.534-1.674-2.694-3.718-3.432-5.52
	c1.62-0.482,3.203-1.102,4.7-1.786c3.009-1.376,4.896-3.183,5.986-5.197c2.636,0.507,5.019,1.285,6.205,1.903
	c0.043,0.021,0.073,0.051,0.114,0.073C275.071,135.893,273.753,141.173,270.904,143.969z M283.648,101.646
	c0.484,5.334-0.774,10.923-3.104,15.766c-2.162-0.626-4.422-0.979-6.527-1.075c6.363-4.454,7.672-14.475,2.332-20.511
	c-1.557-1.76-3.465-2.74-5.499-3.132c-0.082-0.841-0.184-1.686-0.335-2.526C278.518,88.29,282.94,93.833,283.648,101.646z
	 M270.801,98.037c2.756,1.512,4.255,5.026,3.342,9.448c-0.918,4.435-4.022,6.312-7.907,6.622c-0.128-0.231-0.292-0.445-0.546-0.605
	c-1.61-1.017-3.136-2.153-4.383-3.363c0.151-0.689,0.274-1.398,0.371-2.128c0.401-0.047,0.769-0.056,1.211-0.15
	C267.899,106.795,270.197,102.842,270.801,98.037z M264.18,86.589c-0.583,0.275-1.188,0.513-1.743,0.832
	c-1.38,0.79-2.703,2.146-3.852,3.791c-1.411-2.148-3.31-3.785-5.714-4.642c-0.055-1.626-0.284-3.26-0.79-4.82
	c-0.303-0.936-0.729-1.856-1.178-2.769C255.941,77.437,261.288,79.229,264.18,86.589z M252.188,91.792
	c1.261,0.718,2.509,1.933,3.67,3.704c0.103,0.154,0.136,0.328,0.229,0.485c-0.655,1.723-1.072,3.478-1.193,5.119
	c-1.108,2.184-1.498,4.565-0.798,6.891c-2.03-0.505-4.344-0.749-6.696-0.679c-1.355-1.111-2.456-2.248-3.101-3.329
	c-0.106-0.178-0.132-0.364-0.218-0.543c-0.102-1.123-0.335-2.252-0.683-3.375C248.111,99.075,250.961,95.785,252.188,91.792z
	 M245.899,81.667c0.767,1.507,1.277,3.109,1.429,4.703c-2.568,1.254-5.018,4.854-6.533,7.707c-0.534-0.661-0.903-1.701-1.149-2.875
	C240.682,87.357,243.012,83.983,245.899,81.667z M242.878,77.377c-1.635,1.569-3.022,3.425-4.124,5.433
	c-1.09-1.255-3.68-1.033-4.262,0.907c-0.347,1.163-0.575,2.521-0.692,3.932c-1.922-1.248-3.995-2.148-6.118-2.616
	c-0.848-1.212-1.724-2.259-2.422-2.962c-0.776-0.78-1.646-1.507-2.555-2.196C226.726,71.042,235.627,69.677,242.878,77.377z
	 M227.228,97.023c2.094-0.646,3.087-1.851,3.402-3.309c5.43,3.668,3.999,9.753-0.584,13.821c-3.255-1.112-6.789-1.353-9.451,0.049
	c-0.42-4.028-2.222-7.993-5.375-10.33c0.4-1.319,1.114-2.541,2-3.645C219.269,96.682,222.973,98.335,227.228,97.023z
	 M204.036,87.456c0.867-2.792,2.701-5.316,5.512-6.289c2.196-0.762,4.633-0.019,6.82,1.166c-0.397,1.562-0.701,3.116-0.813,4.587
	c-0.031,0.406,0.024,0.788,0.035,1.184c-1.455,0.604-2.838,1.385-4.15,2.299c-1.824-1.474-4.451-2.419-7.42-2.874
	C204.027,87.502,204.027,87.482,204.036,87.456z M203.07,99.705c-0.882,1.51-1.667,3.089-2.315,4.728
	c-0.69,1.742-1.33,3.885-1.487,6.004c-1.654-2.271-3.943-3.771-6.535-4.734c1.33-1.958,3.141-3.66,4.831-4.863
	c1.468-1.044,3.012-1.639,4.555-2.025C202.415,99.13,202.737,99.42,203.07,99.705z M185.64,97.599
	c1.736-3.907,7.68-6.146,13.003-6.199c0.194,1.604,0.747,3.105,1.459,4.523c-4.904,1.473-9.425,4.459-11.745,8.619
	c-1.317-0.233-2.647-0.398-3.956-0.502C184.334,101.841,184.741,99.621,185.64,97.599z M178.633,109.147
	c0.497-0.057,1.009-0.038,1.514-0.065c1.654,5.598,5.406,10.451,10.425,11.646c0.764,0.995,1.626,1.909,2.55,2.702
	c-0.361-0.174-0.712-0.384-1.086-0.521c-1.078-0.394-2.216,0.208-2.866,1.059c-2.836-3.213-6.646-5.936-10.43-7.374
	c0.348-2.65,0.06-5.11-0.898-7.337C178.098,109.226,178.389,109.175,178.633,109.147z M179.235,121.012
	c2.391,0.988,4.724,2.547,6.765,4.625c0.243,0.247,0.417,0.528,0.613,0.798c-0.455-0.173-0.963-0.187-1.451,0.111
	c-3.854,2.363-6.011,6.202-6.673,10.281c-0.447-0.709-0.88-1.519-1.276-2.558C175.596,130.04,176.57,124.6,179.235,121.012z
	 M174.615,138.117c0.839,2.336,2.178,4.191,4.077,5.148c0.546,2.549,1.64,4.923,3.268,6.813c-4.214-0.472-8.769,0.924-12.019,3.755
	c-0.279,0.1-0.563,0.187-0.834,0.304c-0.359-0.837-0.807-1.657-1.461-2.415c3.711-0.687,7.066-3.764,7.392-9.132
	C175.138,140.934,174.958,139.462,174.615,138.117z M163.337,129.386c0.294-0.691,0.594-1.351,0.905-1.985
	c0.119,0.043,0.202,0.116,0.33,0.153c3.253,0.935,6.684,0.24,9.315-1.669c-0.62,3.593-0.579,7.593,0.311,10.932
	C172.428,132.193,168.1,129.72,163.337,129.386z M172.101,110.495c1.003,2.319,1.576,4.013,1.794,5.195
	c-1.086,0.017-2.137,0.146-3.125,0.46c-0.902-0.706-1.936-1.602-3.222-2.864C168.67,111.946,170.326,111.104,172.101,110.495z
	 M159.725,102.444c3.267,0.433,6.388,1.852,9.085,3.739c-2.851,1.263-5.328,3.063-6.696,5.6c-0.875,1.621-1.687,3.99-2.004,6.416
	c-1.117-1.441-2.697-2.699-4.956-3.583c-4.758-1.862-10.019-0.874-14.718,1.792c0.093-1.055,0.093-2.133-0.049-3.224
	c0.685-0.64,1.492-1.209,2.424-1.708c0.19,0.149,0.305,0.327,0.531,0.461c4.614,2.702,11.795-1.93,14.309-5.616
	C158.465,105.126,159.131,103.807,159.725,102.444z M142.264,85.898c-0.018-0.142-0.092-0.27-0.117-0.41
	c2.744-2.346,6.392-3.761,9.784-3.208c6.19,1.008,5.76,8.414,3.552,14.764c-1.431,0.121-2.842,0.357-4.217,0.738
	c-0.412-1.203-1.818-2.124-2.993-1.223c-2.212,1.696-4.721,2.852-7.304,3.403c-0.042-0.045-0.058-0.098-0.107-0.139
	c-1.585-1.346-2.489-2.86-2.859-4.421C140.954,92.872,142.716,89.647,142.264,85.898z M138.346,105.895
	c1.073,0.027,2.113-0.111,3.139-0.286c-0.397,1.087-0.528,2.187-0.355,3.212c-0.547,0.349-1.082,0.71-1.576,1.12
	c-0.549-1.506-1.303-2.944-2.36-4.161C137.578,105.815,137.966,105.884,138.346,105.895z M127.637,84.743
	c2.54-4.409,7.73-3.714,9.356-0.049c-1.579,1.88-2.805,3.861-3.432,5.68c-0.285,0.831-0.396,1.636-0.433,2.425
	c-1.486,0.79-3.218,1.416-5.023,1.884c-0.485-1.121-1.258-2.141-2.284-3.06C125.676,89.299,126.42,86.854,127.637,84.743z
	 M125.818,107.905c0.447-0.696,0.839-1.435,1.204-2.188c2.318,1.25,3.363,4.52,3.111,9.842c-2.922-1.855-6.507-2.468-10.088-1.246
	C122.234,112.572,124.199,110.423,125.818,107.905z M120.183,82.733c0.958,1.339,1.188,2.457,0.988,3.408
	c-0.071,0.163-0.105,0.321-0.168,0.481c-0.358,0.886-1.099,1.61-2.096,2.166c-2.703-0.22-5.529,0.273-7.952,1.279
	C111.009,84.781,117.098,78.426,120.183,82.733z M122.184,101.269c-2.904,0.328-5.748,1.186-8.226,2.524
	c-1.677-1.448-3.769-3.37-4.37-5.298C112.703,100.812,117.346,101.608,122.184,101.269z M102.641,103.157
	c1.753-2.679,2.338-5.68,1.896-8.325c0.287,0.093,0.578,0.178,0.873,0.26c-1.267,3.818,1.804,8.108,5.425,10.828
	c-2.354,2.041-3.988,4.704-4.389,7.953c-0.174-0.023-0.336-0.009-0.512-0.039c-2.149-0.358-5.358-2.047-8.447-4.302
	c-0.036-0.71-0.147-1.424-0.252-2.138C99.385,106.557,101.299,105.208,102.641,103.157z M88.604,97.843
	c-0.048-2.254,1.39-4.181,5.301-5.262c7.617-2.105,6.923,6.674,1.321,9.687C93.636,100.228,91.249,98.758,88.604,97.843z
	 M91.067,168.048c-1.699-2.757-1.543-5.462-0.316-8.077c0.535,1.538,0.807,3.164,0.783,4.886
	C91.647,166.151,91.417,167.177,91.067,168.048z M91.465,150.157c-0.381,0.419-0.755,0.838-1.108,1.278
	c-1.15-0.847-2.38-1.6-3.764-2.131c0.699-4.836-0.191-9.975-2.649-13.935c0.85-1.069,1.541-2.191,2.151-3.33
	c1.404,1.625,3.269,2.861,5.497,3.646C89.809,140.617,89.517,145.922,91.465,150.157z M90.754,126.99
	c3.148-3.207,5.437-7.411,6.329-12.031c1.813,1.024,3.658,1.926,5.471,2.548c1.404,0.482,2.771,0.745,4.115,0.896
	c0.032,0.156,0.029,0.299,0.065,0.458c0.167,0.718,0.511,1.574,0.927,2.479c-0.256-0.031-0.521-0.099-0.762-0.081
	c-5.067,0.401-9.724,4.269-12.852,9.343C92.3,129.966,91.18,128.782,90.754,126.99z M106.619,142.139
	c-3.483,0.208-7.017,1.584-10.178,3.71c-0.618-2.643-0.53-5.577,0.223-8.096l0.572-1.19c3.224-0.007,6.509-0.417,9.456-1.545
	C106.353,137.313,106.333,139.723,106.619,142.139z M106.095,153.302c-3.245,0.415-5.658-0.698-7.312-2.603
	c0.49-0.402,0.979-0.805,1.467-1.208C105.061,145.177,107.009,146.447,106.095,153.302z M99.933,130.989
	c1.518-2.852,3.918-3.688,7.318-2.241C104.966,130.008,102.511,130.704,99.933,130.989z M95.602,172.656
	c2.38-6.757,1.51-13.005-1.604-17.511c0.216-0.255,0.446-0.505,0.669-0.757c0.151,0.128,0.263,0.281,0.422,0.404
	c4.326,3.334,12.163,5.646,17.425,2.517c0.661,0.856,1.352,1.616,2.072,2.276c-0.221,1.036-0.355,2.083-0.347,3.138
	c-6.129-0.456-14.34,4.346-16.895,11.179C96.741,173.495,96.159,173.08,95.602,172.656z M108.763,196.42
	c-0.697-0.062-1.381-0.102-2.143-0.269c-6.307-1.373-11.928-6.486-8.604-11.193c2.077,4.854,6.173,9.11,10.767,11.424
	C108.776,196.396,108.77,196.409,108.763,196.42z M120.73,217.262c-4.274-0.338-8.27-2.39-9.907-6.787
	c-0.994-2.667-0.778-5.511,0.186-8.27c3.655-0.229,6.914-1.773,9.544-4.238c1.904,2.083,4.03,3.866,6.161,5.085
	c0.214,0.123,0.466,0.231,0.692,0.352C124.195,206.396,121.718,212.039,120.73,217.262z M125.729,212.966l1.212-2.069
	c4.066-6.022,5.464-4.808,4.191,3.645c-1.889,1.377-4.308,2.231-6.814,2.592C124.55,215.716,124.966,214.32,125.729,212.966z
	 M133.353,228.678c-3.371-0.656-6.618-2.379-8.237-4.64c-0.333-0.831-0.543-1.649-0.714-2.463c2.821-0.491,5.689-1.325,8.218-2.451
	c0.609,2.003,1.743,3.836,3.215,5.507C134.731,225.899,133.829,227.232,133.353,228.678z M145.515,189.836
	c-0.319,3.512-0.131,6.897,0.707,9.874c-2.686,1.38-5.548,2.317-6.786,2.336c-1.175,0.019-2.341-0.13-3.501-0.349
	C136.056,195.323,139.465,189.241,145.515,189.836z M156.318,247.809c-0.17,0.035-0.294,0.109-0.476,0.131
	c-3.866,0.451-7.814-2.083-10.836-4.161c-4.08-2.806-6.772-6.482-7.536-9.974c2.669-0.364,5.182-1.301,7.209-2.746
	c0.378,0.184,0.769,0.346,1.153,0.518c1.196,5.82,9.942,7.297,15.177,7.721C158.386,241.654,156.832,244.689,156.318,247.809z
	 M161.259,236.605c-0.012,0.12-0.018,0.265-0.028,0.388c-2.716-0.659-5.729-1.579-7.928-2.911c3.168,0.74,6.26,1.087,8.91,0.954
	C161.716,235.39,161.329,235.918,161.259,236.605z M164.191,256.415c-0.227-2.405,0.164-4.957,1.377-7.646
	c0.89-1.972,2.329-3.487,3.983-4.558c0.272,1.473,0.76,2.958,1.583,4.444c1.425,2.57,4.058,4.382,6.956,5.285
	c-0.298,1.051-0.396,2.169-0.309,3.296C173.578,259.004,167.67,258.36,164.191,256.415z M167.388,276.22
	c2.777-3.508,6.209-5.621,10.599-7.462c2.868-1.202,1.877-5.664-1.323-4.806c-2.538,0.681-4.728,1.643-6.771,2.769
	c-1.404-1.267-2.577-2.635-3.5-4.091c0.485,0.102,0.953,0.223,1.472,0.281c3.596,0.413,7.541-0.349,10.938-1.946
	c1.369,2.696,4.055,4.838,8.08,5.138c1.185,0.087,2.37,0.07,3.552,0.004C186.309,274.334,175.156,280.517,167.388,276.22z
	 M191.996,260.268c-3.915,1.37-5.034-0.521-3.293-5.755c2.639,0.608,3.316,2.762,3.347,5.077
	C192.053,259.817,192.007,260.042,191.996,260.268z M203.258,255.371c-1.942,1.353-4.072,2.384-6.272,3.236
	c-0.15-3.972-2.053-7.338-6.303-9.091c0.404-1.06,0.626-2.291,0.597-3.714c-0.071-3.572-1.152-6.2-2.838-8.12
	c0.895-0.181,1.779-0.435,2.662-0.746c1.177,1.438,2.89,2.442,5.167,2.723c-1.895,3.717-0.603,7.772,7.439,10.13
	c1.653,0.483,3.234,0.699,4.746,0.72C206.637,252.633,204.649,254.401,203.258,255.371z M212.297,244.416
	c-0.02,0.007-0.035,0.019-0.054,0.027c-2.71,1.107-13.863,0.205-9.909-4.333c1.612-1.849,7.513-5.379,9.595-2.468
	C213.349,239.632,213.217,242.021,212.297,244.416z M218.01,238.502c-0.176-3.248-1.464-5.224-3.326-6.274
	c0.465-1.138,0.766-2.217,0.956-3.254c1.127,1.085,2.313,2.026,3.59,2.688C219.388,233.949,218.966,236.353,218.01,238.502z
	 M215.619,221.228c-0.467-0.011-0.914-0.104-1.397-0.034c-1.216-1.765-3.045-3.036-5.18-3.8c0.646-2.382,0.917-4.763,0.606-7.015
	c-0.049-0.35-0.143-0.647-0.207-0.979c1.331-0.611,2.634-1.319,3.878-2.153c2.202,2.582,5.128,4.688,8.141,6.291
	c-0.25,0.629-0.389,1.284-0.7,1.898C219.646,217.973,217.815,219.876,215.619,221.228z M223.391,226.693
	c-0.543-1.254-1.322-2.245-2.191-3.105c0.949-0.904,1.821-1.89,2.494-3.055c0.334-0.579,0.66-1.276,0.985-1.966
	c1.222,1.858,3.087,3.748,5.948,5.586c0.701,0.451,1.404,0.804,2.104,1.114C230.463,226.594,226.738,227.05,223.391,226.693z
	 M238.75,205.124c-3.445-1.931-7.741-1.392-11,0.618c0.008-2.808-0.589-5.442-1.969-7.589c2.103-1.012,3.989-2.358,5.558-3.962
	c2.833,2.416,6.61,4.065,10.45,4.368C240.964,201.022,239.969,203.261,238.75,205.124z M249.787,209.257
	c-1.398,2.268-3.157,4.463-5.199,6.306c-0.176-2.151-0.827-4.39-2.104-6.657c-0.077-0.135-0.179-0.223-0.259-0.351
	c1.679-3.026,2.78-6.563,3.29-9.981c0.011-0.078-0.011-0.14-0.007-0.212c1.975-0.328,3.875-1.072,5.597-2.312
	c1.515,0.345,3.108,0.56,4.789,0.563C254.395,201.333,251.821,205.959,249.787,209.257z M258.485,175.311
	c-0.65,0.741-1.445,1.319-2.168,1.98c-0.87-0.344-1.85-0.55-2.921-0.642c-2.301-2.478-5.573-4.282-9.388-5.004
	c1.011-2.09,1.486-4.28,1.264-6.479c0.582-0.542,1.121-1.097,1.635-1.669c1.74,5.899,7.121,9.467,12.955,10.18
	C259.385,174.264,258.918,174.817,258.485,175.311z M274.194,182.425c-1.979,3.884-6.797,5.947-11.504,6.996
	c-0.043-3.261-0.723-6.1-2.021-8.321c1.784-1.783,3.376-3.727,4.691-5.748c3.231,0.74,6.675,0.155,9.998-1.289
	C276.052,176.386,275.793,179.285,274.194,182.425z M280.207,163.526c-0.834,1.018-1.641,1.749-2.44,2.368
	c-0.51-0.338-1.109-0.576-1.665-0.865c0.121-0.279,0.284-0.516,0.391-0.809c0.498-1.339,0.772-2.675,0.931-3.997
	c1.979-1.973,3.571-4.358,4.697-6.955C285.028,155.716,284.478,159.112,280.207,163.526z"/>
</svg>
