<?xml version="1.0" encoding="utf-8"?>
<!-- Generator: Adobe Illustrator 16.0.0, SVG Export Plug-In . SVG Version: 6.00 Build 0)  -->
<!DOCTYPE svg PUBLIC "-//W3C//DTD SVG 1.1 Tiny//EN" "http://www.w3.org/Graphics/SVG/1.1/DTD/svg11-tiny.dtd">
<svg version="1.1" baseProfile="tiny" id="Layer_1" xmlns="http://www.w3.org/2000/svg" xmlns:xlink="http://www.w3.org/1999/xlink"
	 x="0px" y="0px" width="350px" height="350px" viewBox="0 0 350 350" overflow="scroll" xml:space="preserve">
<path fill-rule="evenodd" d="M72.126,152.938c-1.16-0.24-2.319-0.479-3.478-0.72c-1.623,0.22-3.547,1.145-5.398,0.867
	c-12.06-0.627-24.12-1.255-36.179-1.876c-2.418-1.181-4.834-2.355-7.25-3.533c-0.05,0-0.098,0-0.147,0
	c17.261,1.034,34.526,2.066,51.787,3.102c-1.085-1.01-2.168-2.021-3.252-3.031c-3.946-0.719-7.896-1.439-11.84-2.16
	c-13.416-6.175-26.833-12.354-40.246-18.53c-0.051-0.021-0.101-0.048-0.15-0.069c1.876-0.193,3.751-0.386,5.623-0.577
	c5.673,2.425,11.345,4.854,17.016,7.277c10.407,4.4,20.816,8.801,31.222,13.196c2.07,0.384,4.143,0.77,6.213,1.155
	c1.58,0.576,3.16,1.152,4.738,1.729c6.754,0.261,13.511,0.525,20.271,0.797c4.708,0.188,9.422,0.381,14.13,0.574
	c4.093,0.166,8.189,0.334,12.281,0.502c2.934,0.124,5.872,0.241,8.807,0.361c2.34,0.097,4.684,0.193,7.025,0.288
	c5.302,0.433,10.606,0.864,15.908,1.3c7.743,0.601,15.489,1.199,23.231,1.803c1.185,0.646,2.367,1.294,3.551,1.947
	c0.049,0,0.1,0,0.148,0c-10.706-0.941-21.407-1.877-32.109-2.814c-24.487-0.77-48.979-1.538-73.465-2.308
	c0.047,0.575,0.099,1.151,0.147,1.729c0.887,0.146,1.776,0.288,2.662,0.436c0,0.625,0,1.247,0,1.871
	c3.431,0.891,6.855,1.782,10.286,2.669c3.438,0.993,7.103,1.423,9.619,3.32c0.961,1.749,1.921,3.504,2.884,5.26
	c-0.493,0.314-0.986,0.623-1.478,0.937c0.542,2.428,1.083,4.854,1.628,7.283c0.887,0.188,1.776,0.385,2.664,0.578
	c0.344,1.438,0.691,2.879,1.033,4.324c0.613,0.528,2.364,0.146,3.332,0.285c2.64,0.149,5.278,0.29,7.917,0.434
	c10.379,0.578,20.765,1.153,31.146,1.729c0.666-1.293,1.33-2.59,1.997-3.893c0.789,0,1.58,0,2.369,0
	c0.051,1.201,0.097,2.407,0.149,3.604c13.56,0.724,27.129,1.447,40.688,2.168c0.198,0,0.396,0,0.593,0
	c0.197-1.635,0.396-3.271,0.59-4.902c1.392-2.671,12.112-4.458,15.979-5.193c0.053-0.29,0.104-0.577,0.15-0.866
	c-11.787,1.058-23.581,2.117-35.362,3.174c-2.174-0.647-4.339-1.298-6.513-1.946c13.491-0.796,26.982-1.586,40.468-2.38
	c0.322-0.576,0.644-1.154,0.967-1.729c-19.805-10.599-39.611-21.196-59.412-31.797c-0.05,0-0.101,0-0.149,0
	c2.398-0.878,5.026,0.53,6.215,1.156c4.643,2.438,9.414,4.653,13.91,7.209c9.123,4.879,18.25,9.759,27.375,14.634
	c4.059,2.315,8.308,4.294,12.43,6.631c1.578,0.818,3.156,1.634,4.732,2.456c3.06,0.672,6.118,1.343,9.176,2.017
	c0.148-0.312,0.296-0.621,0.44-0.938c0.918-0.023,1.826-0.051,2.74-0.068c0.099,0.332,0.197,0.669,0.295,1.006
	c0.72,0.674,5.958,0.626,7.399,0.865c6.829,0.694,13.663,1.396,20.494,2.091c3.994,0.411,7.988,0.816,11.984,1.225
	c7.621,1.012,15.242,2.02,22.859,3.03c12.974,1.78,25.943,3.556,38.916,5.335c0.05,0.576,0.099,1.153,0.149,1.729
	c0,0.145,0,0.288,0,0.434c-11.542-1.442-23.086-2.887-34.626-4.324c-13.883-1.253-27.768-2.501-41.653-3.749
	c-1.972-0.196-3.942-0.387-5.918-0.58c-2.614-0.91-5.228-1.824-7.84-2.74c-1.706-0.308-3.403-0.622-5.106-0.937
	c-1.11-0.216-2.218-0.433-3.332-0.646c-1.896,0.382-3.795,0.764-5.695,1.153c-0.515-0.481-1.035-0.963-1.551-1.444
	c-1.355,0.095-2.716,0.191-4.069,0.291c0.917,1.282,2.126,2.735,3.4,3.675c0.05,3.747,0.101,7.499,0.149,11.247
	c0.688,0.912,1.379,1.828,2.07,2.74c0.445,2.186,0.891,4.371,1.331,6.561c1.926,1.153,3.851,2.305,5.77,3.46
	c0.94,1.465,1.878,2.932,2.816,4.396c-0.396,1.272-0.791,2.545-1.188,3.822c-0.508,0.737-4.511,1.731-5.621,2.159
	c-2.555,0.99-5.263,0.963-8.51,1.52c-6.737,1.15-15.229,0.991-23.007,0.934c-0.344,1.539-0.689,3.076-1.033,4.614
	c-0.456,0.396-2.357,0.03-3.111,0c-0.196-1.538-0.394-3.075-0.593-4.614c-7.668-0.334-15.337-0.67-23.007-1.009
	c-0.615,0.577-1.231,1.153-1.851,1.73c0.397,1.588,0.791,3.173,1.185,4.757c-0.442,0.579-0.886,1.154-1.332,1.73
	c-1.356,0.241-2.71,0.483-4.068,0.722c-1.16-0.77-2.319-1.535-3.48-2.307c-0.144-0.391,0.038-0.833,0.152-1.295
	c0.681-2.781,1.062-2.033,2.44-3.752c-19.974-0.815-39.952-1.635-59.924-2.451c-4.516-0.118-9.029-0.24-13.54-0.359
	c-1.903-0.058-3.259-0.544-3.922,0.794c-0.232,0.461-0.352,0.533-0.15,0.933c-1.492,0.198-3.735,2.071-5.472,1.661
	c-0.419-0.291-0.84-0.577-1.259-0.865c-3.119-1.897-1.154-4.197,0.148-6.484c-4.957-2.191-9.913-4.38-14.872-6.563
	c-0.714-0.721-1.43-1.443-2.145-2.163c0.1-0.793,0.197-1.589,0.296-2.382c-4.018-2.455-6.402-6.496-10.134-9.228
	c-1.457-0.961-2.913-1.922-4.368-2.883c-1.115-1.793,0.239-6.594,0.666-8.509c1.259-7.015,2.516-14.034,3.772-21.052
	c5.167-1.256,9.449-2.664,16.279-2.595C72.126,153.71,72.126,153.324,72.126,152.938z M103.052,197.637
	c3.132,0.582,5.655-2.48,4.737-5.406c-0.572-1.816-1.842-2.215-3.554-2.955C98.144,189.13,97.863,196.674,103.052,197.637z
	 M127.393,197.925c2.792,0.498,5.144-2.137,4.439-4.829c-0.479-1.833-1.711-2.264-3.404-2.956
	C122.784,190.002,122.529,197.057,127.393,197.925z M222.979,192.951c-1.998,1.504-3.262,7.197-0.667,9.011
	c0.619,0.169,1.235,0.337,1.851,0.506c2.371,0.726,4.956,1.284,8.359,1.225c-0.469-0.714-0.96-1.496-1.627-2.019
	c-0.37-0.289-0.739-0.573-1.112-0.863c-0.244-1.997-0.49-3.992-0.736-5.985c-0.863-1.178-1.727-2.354-2.59-3.53
	C225.118,191.782,223.995,192.192,222.979,192.951z M151.51,199.078c2.795,0.498,5.148-2.134,4.438-4.828
	c-0.479-1.834-1.711-2.264-3.401-2.955C146.903,191.156,146.648,198.21,151.51,199.078z M175.183,200.522
	c2.791,0.499,5.149-2.138,4.443-4.834c-0.483-1.83-1.713-2.258-3.403-2.955C170.577,192.596,170.32,199.654,175.183,200.522z
	 M199.896,201.239c2.835,0.533,5.057-2.277,4.216-4.897c-0.504-1.593-1.668-1.947-3.181-2.597
	C195.487,193.609,195.234,200.372,199.896,201.239z"/>
</svg>
