<?xml version="1.0" encoding="utf-8"?>
<!-- Generator: Adobe Illustrator 16.0.0, SVG Export Plug-In . SVG Version: 6.00 Build 0)  -->
<!DOCTYPE svg PUBLIC "-//W3C//DTD SVG 1.1 Tiny//EN" "http://www.w3.org/Graphics/SVG/1.1/DTD/svg11-tiny.dtd">
<svg version="1.1" baseProfile="tiny" id="Layer_1" xmlns="http://www.w3.org/2000/svg" xmlns:xlink="http://www.w3.org/1999/xlink"
	 x="0px" y="0px" width="350px" height="350px" viewBox="0 0 350 350" overflow="scroll" xml:space="preserve">
<path fill-rule="evenodd" fill="#2D2A7A" d="M189.857,132.102c5.699-0.09,11.389-0.201,17.088-0.293
	c3.479-0.055,6.956-0.127,10.438-0.181c5.241-0.111,10.484-0.203,15.735-0.293c30.948-0.584,61.917-1.186,92.885-1.772
	c0.509-0.583,1.021-1.149,1.533-1.735c-28.41,0.366-56.831,0.731-85.242,1.097c-16.198,0.238-32.4,0.457-48.602,0.693
	c-3.133-0.693-6.265-1.369-9.387-2.044c-0.42-1.79-0.841-3.581-1.262-5.371c-0.328-0.072-0.657-0.146-0.985-0.22
	c-0.018,0-0.036,0-0.063,0c-0.175,1.808-0.357,3.634-0.531,5.443c-7.387,1.937-16.549,1.9-24.281,0.987
	c-6.449-0.329-12.886-0.641-19.325-0.969c-16.099-0.786-32.2-1.588-48.301-2.373c-6.894-0.331-13.789-0.677-20.685-1.024
	c-3.452-0.183-6.903-0.365-10.346-0.529c-5.781-0.693-11.543-0.585-17.617-0.201c-0.063,0.09-0.127,0.164-0.182,0.256
	c28.411,1.679,56.83,3.36,85.241,5.022c16.018,0.932,32.037,1.845,48.054,2.776c2.264,0.622,4.529,1.26,6.786,1.88
	c0.092,0.952,0.173,1.9,0.254,2.832c-1.936,0-3.87,0-5.808,0c0.019,0.384,0.026,0.768,0.044,1.149
	c-0.948-0.218-1.908-0.419-2.856-0.639c-0.048,0-0.092,0-0.129,0c-0.018-0.347-0.037-0.675-0.046-1.022
	c-2.539-0.055-5.077-0.129-7.616-0.183c0.009,1.406,0.035,2.832,0.044,4.256c-1.607,0.437-1.607,0.583-2.511,1.588
	c0.203,0.603,0.402,1.223,0.603,1.843c0.33,0.531,1.533,0.934,2.109,1.188c-0.155,3.287-0.317,6.558-0.476,9.826
	c-0.838,0.129-1.667,0.256-2.501,0.365c-0.62,0.513-1.251,1.007-1.871,1.518c-40.967-1.334-81.953-2.651-122.938-3.981
	c-2.366-4.931-4.722-9.864-7.087-14.795c-1.717-0.402-3.433-0.803-5.15-1.186c-0.019,0-0.037,0-0.064,0
	c1.314,5.569,2.64,11.159,3.944,16.729c-2.053,0.129-4.109,0.255-6.173,0.384c0.009,1.133,0.009,2.247,0.019,3.361
	c2.019-0.037,4.037-0.092,6.055-0.129c-2.063,4.989-4.119,9.992-6.193,14.977c1.982-0.037,3.955-0.089,5.937-0.125
	c2.612-4.203,5.224-8.402,7.844-12.604c0.796-0.4,8.393-0.365,9.727-0.218c2.621-0.057,5.241-0.111,7.863-0.147
	c5.699,0.331,11.387,0.659,17.078,1.004c10.045,0.531,20.091,1.059,30.128,1.59c19.551,2.046,39.104,4.072,58.646,6.118
	c-0.055,0.768-0.101,1.554-0.155,2.338c-1.754-0.234-3.497-0.456-5.25-0.674c-1.91,0.748-3.81,1.478-5.708,2.229
	c-0.311,0.402-0.611,0.803-0.913,1.205c-0.009,0.893-0.009,1.806-0.019,2.719c0.639,1.628,2.055,1.153,3.443,1.972
	c2.165,2.34,4.33,4.679,6.493,7.016c-0.164,1.079-0.337,2.156-0.501,3.252c-0.128,1.278,1.688,5.717,2.153,6.738
	c1.232,0.676,3.544,0.292,5.123,0.494c3.801,0.256,7.599,0.528,11.389,0.784c-0.118,1.188-0.236,2.375-0.365,3.563
	c-2.93,1.332-5.863,2.665-8.795,3.999c0.109,1.078,0.229,2.137,0.338,3.215c-6.372,5.206-12.756,10.393-19.13,15.597
	c-2.493-0.272-4.977-0.563-7.452-0.838c-0.028-0.622-0.054-1.243-0.082-1.864c-0.557-0.476-1.114-0.95-1.681-1.425
	c-2.977,0.438-3.16,1.335-4.84,2.738c0.064,0.605,0.127,1.19,0.2,1.79c0.559,0.513,1.125,1.023,1.682,1.534
	c1.178-0.037,2.366-0.088,3.543-0.146c0.229,0.329,0.457,0.678,0.685,1.006c1.652,0.693,4.94,0.037,6.976,0.272
	c5.992,0.203,11.982,0.387,17.963,0.585c15.106,0.823,30.218,1.663,45.334,2.483c4.572,0.568,9.433,0.568,14.593,0.35
	c1.889-0.037,3.779-0.074,5.669-0.11c1.93-1.262,3.847-2.503,5.774-3.746c2.911,0.256,5.833,0.513,8.748,0.788
	c0.923,0.054,2.063-0.84,2.784-1.153c2.806-1.259,5.673-1.988,7.297-4.31c-0.273-0.382-0.546-0.768-0.821-1.133
	c-0.576-0.218-1.808,0.73-2.412,1.007c-2.081,0.985-4.173,1.989-6.255,2.974c-5.471-0.146-10.94-0.291-16.401-0.453
	c-5.051-4.332-10.101-8.678-15.152-13.007c5.755-0.254,11.509-0.511,17.272-0.748c2.61-1.114,5.232-2.21,7.844-3.306
	c2.438-1.698,4.457-4.348,6.09-6.794c0.74-1.059,1.462-2.119,2.192-3.179c-1.297-4.036-2.585-8.073-3.88-12.092
	c-0.741-1.241-1.479-2.484-2.222-3.705c-0.985-1.755-1.962-3.491-2.94-5.246c-1.04-1.278-2.08-2.573-3.131-3.852
	c-2.073-2.666-4.082-5.149-6.758-7.123c-1.28-1.205-2.557-2.395-3.837-3.579c-3.743-2.083-7.486-4.147-11.231-6.23
	c-1.287-0.365-2.564-0.747-3.854-1.112c-2.747-0.934-5.451-1.716-8.556-2.337c-2.23-0.386-4.459-0.768-6.686-1.133
	c-1.744-2.43-3.489-4.843-5.223-7.271c-0.239-0.347,0.52-3.926,0.702-4.603c-1.936-0.146-3.881-0.31-5.826-0.456
	c0.01-0.786,0.028-1.554,0.028-2.339C186.016,133.251,188.134,132.594,189.857,132.102z M227.045,184.941
	c-0.1,0.785-0.191,1.553-0.292,2.339c-0.102,0.985-0.201,1.973-0.31,2.96c-2.129,0.601-6.073,1.294-13.315,1.604
	c-1.765,0.074-3.518,0.019-5.233-0.144c-0.667-2.246-1.352-4.934-1.98-8.055c7.313,1.096,15.643-0.494,20.079-1.571
	C226.433,183.006,226.809,183.956,227.045,184.941z M206.836,191.571c-3.461-0.401-6.777-1.206-9.754-2.136
	c-1.052-2.867-2.027-6.174-2.547-9.59c2.056,0.915,4.418,1.845,7.105,2.775c1.086,0.385,2.219,0.659,3.379,0.877
	C205.419,186.347,206.097,189.126,206.836,191.571z M200.789,197.671c-0.73-1.351-1.954-3.778-3.158-6.812
	c2.812,0.805,6.008,1.443,9.524,1.753c0.813,2.575,1.652,4.73,2.257,6.154c-0.137,0-0.274-0.017-0.411-0.017
	c-1.235-0.037-2.458-0.074-3.69-0.09C203.822,198.384,202.287,198.054,200.789,197.671z M199.357,197.288
	c-1.774-0.492-3.491-1.06-5.014-1.643c-1.289-0.531-2.576-1.06-3.864-1.573c-0.229-0.582-0.438-1.15-0.659-1.715
	c-0.427-0.95-0.856-1.9-1.285-2.849c-0.092-0.786-0.175-1.572-0.266-2.376c2.008,1.059,4.812,2.321,8.254,3.38
	C197.656,193.671,198.708,195.973,199.357,197.288z M193.421,179.771c0.793,3.581,1.708,6.686,2.592,9.317
	c-3.168-1.061-5.889-2.248-7.891-3.197c-0.071-0.694-0.146-1.354-0.218-2.046c-0.319-2.595-0.631-5.223-0.949-7.838
	c1.405,0.842,3.534,2.011,6.373,3.308C193.365,179.461,193.384,179.627,193.421,179.771z M167.12,144.813
	c2.264,0.402,5.123,0.492,6.841,1.592c0.518,0.565,1.041,1.147,1.561,1.732c-0.129,0.531-0.256,1.042-0.384,1.556
	c-2.448,1.13-4.896,2.243-7.343,3.359C166.078,151.482,167.036,147.552,167.12,144.813z M161.519,179.517
	c-0.675-0.146-1.339-0.291-2.016-0.438c-0.649,0.457-1.29,0.915-1.936,1.389c-0.448-1.389-0.895-2.758-1.343-4.146
	c0-0.02,0-0.037-0.008-0.057c1.835-0.511,3.661-1.024,5.479-1.534C162.006,175.078,161.549,178.694,161.519,179.517z
	 M168.981,172.997c-2.191,0.017-4.383,0.017-6.575,0.037c0.202-1.446,0.393-2.87,0.585-4.295c2.402,1.388,4.656,2.871,7.398,3.944
	c1.332,0.459,2.657,0.915,4,1.373c0.712,0.183,1.424,0.365,2.147,0.548c0.317,0.365,0.639,0.71,0.949,1.059
	c-0.422,1.844-0.833,3.69-1.243,5.535c-0.045,0.019-0.09,0.054-0.127,0.072C173.73,178.513,171.356,175.753,168.981,172.997z
	 M202.634,208.319c1.343,4.038,2.677,8.094,4.011,12.147c0,0.018,0,0.036,0,0.055c-12.065-0.551-24.13-1.096-36.192-1.646
	c1.335-3.852,2.675-7.686,4.018-11.541C183.859,207.662,193.246,207.991,202.634,208.319z M167.721,207.883
	c1.436,0,2.878-0.037,4.31-0.056c-1.542,3.525-3.084,7.066-4.638,10.595c-0.76,0.11-4.749-0.859-5.535-1.242
	c-0.548-0.293-0.967-1.569-1.25-2.139C162.973,212.651,165.347,210.274,167.721,207.883z M151.805,221.746
	c-0.074-0.092-0.137-0.166-0.21-0.257c1.104-0.386,2.201-0.787,3.307-1.168c0.409,0.037,0.821,0.09,1.231,0.126
	c1.662,0.24,3.298,0.277,4.556-0.511c15.297,0.876,30.612,1.773,45.918,2.666c0.521,0.913,1.021,1.846,1.535,2.76
	C189.365,224.155,170.581,222.951,151.805,221.746z M231.373,223.975c0.012,0.015,0.012,0.052,0.012,0.072
	c-1.526,0.673-3.043,1.368-4.558,2.063c-5.289-0.293-10.566-0.586-15.847-0.877c-0.163-0.805-0.329-1.608-0.491-2.411
	C217.456,223.207,224.414,223.59,231.373,223.975z M223.758,220.759c0.129,0.146,0.266,0.294,0.401,0.439
	c-4.978-0.22-9.954-0.439-14.932-0.64c-0.985-2.996-1.973-5.993-2.967-8.989c0-0.015,0-0.035,0-0.051
	c1.505-0.329,3.022-0.657,4.538-0.971c0.064,0,0.127-0.017,0.191-0.017C215.247,213.945,219.503,217.343,223.758,220.759z
	 M224.379,194.731c-0.401,0.694-0.804,1.405-1.204,2.118c-0.705,0.22-1.398,0.438-2.102,0.678c-1.461,0.508-2.923,1.021-4.383,1.532
	c-2.083-0.072-4.164-0.164-6.257-0.256c-0.576-1.295-1.38-3.341-2.247-6.118c0.183,0,0.358,0.019,0.548,0.037
	c8.906,0.457,14.558-0.531,17.587-1.353c0,0.074-0.007,0.164-0.017,0.257C225.657,192.648,225.009,193.689,224.379,194.731z
	 M216.261,168.3c1.534,1.609,3.067,3.236,4.601,4.843c1.077,1.827,2.173,3.653,3.262,5.48c0.428,0.729,0.903,1.532,1.343,2.374
	c-2.941,0.984-8.101,2.117-15.862,1.826c-1.324-0.055-2.63-0.202-3.919-0.402c-1.38-8.421,2.969-15.195,5.489-18.301
	c0.885,0.512,1.762,1.023,2.646,1.515C214.633,166.53,215.448,167.425,216.261,168.3z M203.431,159.57
	c0.884,0.55,1.771,1.096,2.647,1.627c1.396,0.804,2.795,1.608,4.183,2.411c-2.284,2.537-5.425,7.233-5.616,14.009
	c-0.046,1.534,0.036,3.106,0.21,4.658c-3.844-0.731-7.425-2.064-10.467-3.488c-0.137-1.099-0.219-2.21-0.237-3.325
	c-0.147-8.602,3.225-14.667,4.911-17.169C200.526,158.714,201.978,159.153,203.431,159.57z M186.051,161.872
	c0.994-1.461,1.981-2.922,2.969-4.383c1.04-0.656,3.121,0.019,4.364-0.513c1.872-0.088,3.031,0.402,4.339,0.879
	c-1.81,3.125-5.918,11.397-4.586,20.33c-2.749-1.389-4.948-2.778-6.373-3.764c-0.158-1.299-0.312-2.612-0.468-3.908
	C186.215,167.626,186.134,164.758,186.051,161.872z"/>
</svg>
