<?xml version="1.0" encoding="utf-8"?>
<!-- Generator: Adobe Illustrator 16.0.0, SVG Export Plug-In . SVG Version: 6.00 Build 0)  -->
<!DOCTYPE svg PUBLIC "-//W3C//DTD SVG 1.1//EN" "http://www.w3.org/Graphics/SVG/1.1/DTD/svg11.dtd">
<svg version="1.1" id="Layer_1" xmlns="http://www.w3.org/2000/svg" xmlns:xlink="http://www.w3.org/1999/xlink" x="0px" y="0px"
	 width="350px" height="350px" viewBox="0 0 350 350" enable-background="new 0 0 350 350" xml:space="preserve">
<g>
	<path fill="#BCBEC0" d="M85.565,286.273V250.47h192.638v20.769c0,0,2.862-13.248-13.25-14.323
		C248.842,255.843,85.565,286.273,85.565,286.273z"/>
	<g>
		<rect x="77.625" y="64.636" fill="#BCBEC0" width="3.822" height="158.98"/>
		<rect x="76.274" y="188.644" fill="#BCBEC0" width="6.526" height="98.229"/>
	</g>
	<g>
		<rect x="190.775" y="64.636" fill="#BCBEC0" width="3.817" height="158.98"/>
		<rect x="189.422" y="188.644" fill="#BCBEC0" width="6.526" height="98.229"/>
	</g>
	<path fill="#BCBEC0" d="M190.536,85.694c3.092,0.374,5.93,0.973,8.725,2.211c0.98,0.319,1.952,0.687,2.915,1.119
		c1.28,0.58,2.541,1.199,3.802,1.827c-1.621-1.981-3.71-3.18-5.958-4.372c-2.782-1.475-5.764-2.489-8.813-3.264
		c-4.075-0.935-8.327-1.504-12.374-2.233c-10.618-1.908-22.811-7.01-26.524-17.855c-0.023,1.129-0.397,2.261-0.284,3.433
		c0.183,1.958,0.692,4.069,1.348,5.926c1.497,4.256,5.033,7.994,8.604,10.613c1.391,1.023,2.93,2.027,4.559,2.985
		C174.465,85.218,182.597,84.736,190.536,85.694z"/>
	<path fill="#BCBEC0" d="M234.407,99.156c-5.409,0-10.274,2.334-13.644,6.047c2.674,2.852,4.16,9.01,4.356,12.754
		c0.268,5.143-1.018,8.607-3.023,13.294c3.263,2.938,7.575,4.724,12.311,4.724c10.168,0,18.41-8.24,18.41-18.408
		C252.817,107.397,244.575,99.156,234.407,99.156z"/>
	<path fill="#BCBEC0" d="M215.043,105.636c1.507,0.161,3.103,0.709,4.504,1.561c-1.539-1.259-3.228-2.334-4.983-3.389
		c-2.259-1.353-4.469-2.933-5.582-5.408c-0.524-1.164-1.159-3.43,0.672-3.884c0.137-0.034,0.269-0.055,0.399-0.073
		c-1.593-1.146-3.316-2.172-5.075-3.005c-4.597-2.185-9.229-3.438-13.935-3.988c2.734,2.004,4.751,4.8,6.395,7.827
		c3.037,0.539,5.599,2.713,7.71,4.852c2.143,2.165,4.036,4.47,5.621,7.04C211.616,105.909,213.315,105.446,215.043,105.636z"/>
	<path fill="#BCBEC0" d="M209.473,96.034c0.007,0.449,0.074,0.862,0.239,1.28c0.791,2.016,2.213,3.531,4.017,4.703
		c2.348,1.523,4.677,2.846,6.703,4.637c-2.346-4.564-5.967-8.921-9.301-11.484C210.315,94.962,209.46,94.991,209.473,96.034z"/>
	<path fill="#BCBEC0" d="M152.641,105.482c-0.429-2.664-1.339-6.019-3.147-8.415c-12.972,0.681-25.225,4.593-34.617,14.612
		c-2.89,3.081-5.756,6.73-7.767,10.458c-3.093,5.715-5.164,11.898-7.365,17.993c-2.552,7.067-6.184,13.646-9.755,20.226
		c-0.986,1.821-2.036,3.447-3.387,4.87c1.995-0.525,3.974-1.966,5.461-3.032c1.965-1.403,3.93-2.912,5.6-4.662
		c5.056-5.293,8.384-11.782,12.005-18.064c3.429-5.951,7.207-11.917,11.931-16.942c1.452-1.546,3.018-2.875,4.713-3.85
		c1.321-0.927,2.729-1.603,4.224-1.874c5.827-1.061,11.782,0.351,17.499,1.426c0.617,0.115,1.236,0.229,1.855,0.346
		C152.374,114.949,153.287,109.497,152.641,105.482z"/>
	<path fill="#BCBEC0" d="M173.857,112.061c-0.05-3.724-0.355-7.417-1.476-10.993c-1.685-5.376-4.797-10.143-9.14-13.626
		c-4.203,0.367-8.717,0.933-13.447,1.768c-0.14,1.211-0.144,2.438,0.183,3.614c0.383,1.374,1.043,2.6,1.596,3.905
		c0.053,0.124,0.096,0.255,0.149,0.383c2.823,4.864,3.176,11.227,1.539,16.798c-0.255,1.063-0.585,2.103-1.021,3.118
		c-0.25,0.578-0.532,1.208-0.877,1.803c1.667,0.286,3.342,0.527,5.025,0.624c4.772,0.275,9.665,0.715,14.259-0.897
		c1.05-0.367,2.061-0.823,3.05-1.323C173.85,115.513,173.878,113.779,173.857,112.061z"/>
	<path fill="#BCBEC0" d="M202.667,113.885c-0.417-4.162-0.63-7.641-2.254-11.503c-2.307-5.479-5.61-11.842-10.846-15.083
		c-3.422-0.291-12.356-0.908-24.095-0.035c4.279,2.972,6.802,8.62,8.331,13.337c1.624,5.008,2.346,10.756,1.142,15.986
		c2.67-1.426,5.267-3.016,8.188-3.857c7.98-2.292,12.835,3.68,19.514,6.471C202.765,117.425,202.846,115.664,202.667,113.885z"/>
	<path fill="#BCBEC0" d="M202.894,105.675c1.417,5.314,1.715,10.68,1.309,16.154c-0.225,3.038-0.609,6.056-0.879,9.092
		c-0.18,2.023-0.037,4.144,0.735,6.043c0.362,0.89,0.843,1.789,1.472,2.555c0.934,0.587,2.149,0.931,3.735,0.931
		c2.526,0.005,4.656-0.763,6.43-2.025c-0.146-2.897-0.48-5.79-0.843-8.678c-0.631-4.997-1.142-10.117-2.689-14.933
		c-1.438-4.456-3.245-8.978-6.235-12.642c-0.831-1.02-1.881-2.29-3.076-3.36c-1.19-0.826-2.492-1.459-3.91-1.839
		C201.052,99.329,202.115,102.756,202.894,105.675z"/>
	<path fill="#BCBEC0" d="M219.675,108.495c-1.226-1.108-2.688-1.91-4.281-1.974c-1.902-0.076-3.028,1.211-3.979,2.692
		c3.155,8.2,5.659,25.837,5.636,28.098c1.88-1.798,3.256-4.199,4.166-6.767c2.768-5.187,4.041-13.06,1.183-18.488
		C221.756,110.833,220.82,109.53,219.675,108.495z"/>
	<path fill="#BCBEC0" d="M104.16,126.46H73.212c-0.892,0-1.612,0.722-1.612,1.61c0,0.89,0.72,1.616,1.612,1.616h29.437
		C103.124,128.598,103.64,127.527,104.16,126.46z"/>
	<path fill="#BCBEC0" d="M198.892,126.46h-79.436c-0.663,1.057-1.294,2.126-1.873,3.226h81.309c0.89,0,1.61-0.726,1.61-1.616
		C200.502,127.182,199.781,126.46,198.892,126.46z"/>
	<path fill="#BCBEC0" d="M148.166,88.814c-7.308-1.042-15.08-0.347-21.948,0.654c-5.359,0.78-10.253,2.635-14.865,5.13
		c-4.327,1.991-8.421,4.582-12.218,7.393c-3.048,2.339-6,4.848-8.602,7.623c-5.107,5.434-9.223,11.948-11.798,18.99
		c0.373-0.282,0.692-0.614,1.032-0.947c5.625-6.735,13.158-11.604,20.739-15.919c4.587-2.616,9.155-5.43,14.067-7.396
		c1.532-0.608,3.151-1.041,4.795-1.264c0.023-0.007,0.046-0.016,0.067-0.021c0.569-0.158,1.181-0.268,1.791-0.39
		c1.014-0.073,2.039-0.062,3.071,0.066c0.333,0.039,0.66,0.101,0.988,0.158c3.371-2.318,7.148-3.963,11.109-5.061
		c2.674-0.739,5.402-1.356,8.15-1.752c1.472-0.211,3.928,0.195,5.382,0.216C149.577,95.354,147.938,90.187,148.166,88.814z"/>
</g>
</svg>
