<?xml version="1.0" encoding="utf-8"?>
<!-- Generator: Adobe Illustrator 16.0.0, SVG Export Plug-In . SVG Version: 6.00 Build 0)  -->
<!DOCTYPE svg PUBLIC "-//W3C//DTD SVG 1.1//EN" "http://www.w3.org/Graphics/SVG/1.1/DTD/svg11.dtd">
<svg version="1.1" id="Layer_1" xmlns="http://www.w3.org/2000/svg" xmlns:xlink="http://www.w3.org/1999/xlink" x="0px" y="0px"
	 width="350px" height="350px" viewBox="0 0 350 350" enable-background="new 0 0 350 350" xml:space="preserve">
<g>
	<g>
		<path d="M283.637,240.183c-5.941,0-16.296,10.354-16.296,16.295c0,0.953,0.313,1.807,0.544,2.688
			c-9.306,9.228-19.376,17.276-41.932,21.442c15.244-11.941,25.092-30.467,25.092-51.29c0-35.943-29.238-65.181-65.182-65.181
			c-10.247,0-20.097,2.463-29.094,7.005c7.623-40.1,26.922-55.278,48.562-72.118l3.077-2.392l-0.01-0.012
			c6.268-3.793,10.057-8.417,10.057-13.96c0-18.661-42.234-27.159-81.478-27.159C97.735,55.5,55.5,63.998,55.5,82.659
			c0,5.543,3.789,10.167,10.056,13.96l-0.009,0.012l3.077,2.392c27.933,21.738,52.058,40.511,52.058,114v16.295
			c0,35.943,29.239,65.183,65.182,65.183c57.917,0,74.986-13.011,89.739-27.687c0.855,0.218,1.68,0.527,2.603,0.527
			c5.94,0,16.295-10.354,16.295-16.296C294.5,245.057,289.625,240.183,283.637,240.183z M66.363,82.659
			c0-4.875,24.024-16.295,70.614-16.295s70.613,11.421,70.613,16.295c0,4.875-24.023,16.296-70.613,16.296
			S66.363,87.534,66.363,82.659z M185.863,283.637c-29.949,0-54.318-24.369-54.318-54.319v-16.295
			c0-61.019-16.404-87.504-37.229-106.816c13.088,2.433,28.078,3.611,42.662,3.611c14.583,0,29.572-1.179,42.661-3.611
			c-20.826,19.313-37.229,45.797-37.229,106.816v16.295c0,23.961,19.494,43.455,43.454,43.455c23.961,0,43.454-19.494,43.454-43.455
			c0-23.96-19.493-43.454-43.454-43.454c-12.891,0-24.362,5.753-32.327,14.7c0.229-5.534,0.648-10.646,1.177-15.516
			c9.207-6.502,19.896-10.047,31.15-10.047c29.949,0,54.319,24.369,54.319,54.318C240.183,259.269,215.813,283.637,185.863,283.637z
			 M207.591,213.022c-3.003,0-5.432,2.43-5.432,5.433v5.432h-10.863v-5.432c0-3.003-2.43-5.433-5.433-5.433
			c-3.002,0-5.431,2.43-5.431,5.433v5.432h-10.864v-5.432c0-3.003-2.43-5.433-5.432-5.433s-5.432,2.43-5.432,5.433v5.432h-4.883
			c2.604-15.382,15.93-27.159,32.042-27.159c16.111,0,29.438,11.777,32.042,27.159h-4.883v-5.432
			C213.022,215.452,210.594,213.022,207.591,213.022z M158.705,234.75v5.433c0,3.002,2.43,5.432,5.432,5.432s5.432-2.43,5.432-5.432
			v-5.433h10.864v5.433c0,3.002,2.43,5.432,5.432,5.432s5.433-2.43,5.433-5.432v-5.433h10.862v5.433
			c0,3.002,2.429,5.432,5.432,5.432s5.433-2.43,5.433-5.432v-5.433h4.883c-2.604,15.382-15.931,27.159-32.042,27.159
			c-16.112,0-29.438-11.777-32.042-27.159H158.705z"/>
	</g>
</g>
</svg>
