<?xml version="1.0" encoding="utf-8"?>
<!-- Generator: Adobe Illustrator 16.0.0, SVG Export Plug-In . SVG Version: 6.00 Build 0)  -->
<!DOCTYPE svg PUBLIC "-//W3C//DTD SVG 1.1//EN" "http://www.w3.org/Graphics/SVG/1.1/DTD/svg11.dtd">
<svg version="1.1" id="Layer_1" xmlns="http://www.w3.org/2000/svg" xmlns:xlink="http://www.w3.org/1999/xlink" x="0px" y="0px"
	 width="350px" height="350px" viewBox="0 0 350 350" enable-background="new 0 0 350 350" xml:space="preserve">
<path fill="#0B0B0B" d="M198.06,125.619c11.321-21.163,45.767-43.552,45.767-43.552l5.661-11.319l3.938,12.059l5.903-12.059
	l1.231,16.734c6.401,5.904,5.418,13.779,5.418,13.779l5.169,8.61c5.164,9.593,4.181,15.748,4.181,15.748
	c-8.609,7.878-14.768-0.98-14.768-0.98c-5.412-2.46-9.106-8.121-9.106-8.121c-10.338-0.494-10.338,14.276-10.338,14.276
	l-1.967,42.075c0,0-0.877-9.26,0.228-0.988c0.079,0.565,0.175,1.221,0.27,1.971c1.464,11.56-10.835,28.296-10.835,28.296
	c-2.458,12.299-8.362,34.937-8.362,34.937c-1.469,8.367,0.497,24.115,0.497,24.115c4.921,3.205,7.379,12.545,7.379,12.545
	c0.497,3.943-5.169,2.461-5.169,2.461c3.948,2.214-0.243,4.424-0.243,4.424h-12.305c-5.412-0.243-1.961-8.121-1.961-8.121
	c-2.706-4.424,0.982-10.822,0.982-10.822l-0.485-17.717c-3.938-4.181-2.955-24.612-2.955-24.612
	c-5.661-9.839-2.458-24.357-2.458-24.357c-16.981,5.912-41.833,0.74-41.833,0.74c-1.966,9.849-14.514,21.411-14.514,21.411
	c-7.875,8.361,7.378,22.141,7.378,22.141c8.121,1.964,9.348,14.281,9.348,14.281c10.579,9.834-2.46,9.345-2.46,9.345
	c-13.779,0-10.085-6.644-10.085-6.644c-0.742-3.203,3.689-5.172,3.689-5.172c-2.709-2.461-1.972-6.149-1.972-6.149
	c-3.938-1.237-20.174-16.494-20.174-16.494c-9.104-6.397,3.94-18.94,3.94-18.94c3.195-12.798-4.435-11.572-4.435-11.572
	c-4.178,11.319-22.883,15.257-22.883,15.257c-3.692,0.74-8.119,10.821-8.119,10.821c-3.687,31.005-1.541,30.365,4.926,37.154
	c9.445,9.958-5.413,10.833-5.413,10.833c-15.256,0-7.384-10.579-7.384-10.579c2.701-3.943,1.721-5.912,1.721-5.912
	c-5.405-5.66-1.969-32.968-1.969-32.968c-2.703-15.753,8.861-19.196,8.861-19.196c13.288-5.907,10.087-16.485,10.087-16.485
	c-8.37-16.737-1.969-28.55-1.969-28.55c-6.401,3.938-4.427,12.056-4.427,12.056c-10.336,38.385-32.971,31-32.971,31
	c14.762-4.916,16.24-32.974,16.24-32.974c7.875-34.445,31.99-26.575,31.99-26.575c16.733-8.361,34.939-0.983,34.939-0.983
	C185.76,144.319,198.06,125.619,198.06,125.619z"/>
</svg>
