<?xml version="1.0" encoding="utf-8"?>
<!-- Generator: Adobe Illustrator 16.0.0, SVG Export Plug-In . SVG Version: 6.00 Build 0)  -->
<!DOCTYPE svg PUBLIC "-//W3C//DTD SVG 1.1//EN" "http://www.w3.org/Graphics/SVG/1.1/DTD/svg11.dtd">
<svg version="1.1" id="Layer_1" xmlns="http://www.w3.org/2000/svg" xmlns:xlink="http://www.w3.org/1999/xlink" x="0px" y="0px"
	 width="350px" height="350px" viewBox="0 0 350 350" enable-background="new 0 0 350 350" xml:space="preserve">
<g>
	<path fill="#FDBA55" d="M175,259.624c0,18.018-14.606,32.623-32.624,32.623s-32.624-14.605-32.624-32.623V90.376
		c0-18.018,14.606-32.624,32.624-32.624S175,72.358,175,90.376V259.624z"/>
	<path fill="#FDBA55" d="M175,259.624c0,18.018,14.607,32.623,32.625,32.623c18.017,0,32.624-14.605,32.624-32.623V90.376
		c0-18.018-14.607-32.624-32.624-32.624C189.607,57.753,175,72.358,175,90.376V259.624L175,259.624z"/>
</g>
<path fill="#FF6376" d="M200.517,274.062c0,14.093-11.425,25.517-25.517,25.517c-14.092,0-25.517-11.424-25.517-25.517V75.938
	c0-14.092,11.424-25.516,25.517-25.516c14.092,0,25.517,11.424,25.517,25.516V274.062z"/>
<g>
	<path fill="#3F4963" d="M167.794,126.138c-6.18,0-11.209-5.028-11.209-11.208c0-2.21,1.792-4.003,4.003-4.003
		c2.21,0,4.003,1.792,4.003,4.003c0,1.766,1.437,3.202,3.203,3.202s3.203-1.437,3.203-3.202c0-2.21,1.792-4.003,4.003-4.003
		s4.003,1.792,4.003,4.003C179.003,121.11,173.976,126.138,167.794,126.138z"/>
	<path fill="#3F4963" d="M182.205,126.138c-6.179,0-11.208-5.028-11.208-11.208c0-2.21,1.792-4.003,4.003-4.003
		s4.003,1.792,4.003,4.003c0,1.766,1.437,3.202,3.202,3.202c1.767,0,3.203-1.437,3.203-3.202c0-2.21,1.791-4.003,4.003-4.003
		c2.211,0,4.004,1.792,4.004,4.003C193.413,121.11,188.386,126.138,182.205,126.138z"/>
</g>
<path fill="#FF6376" d="M137.184,132.304h-15.507c-2.21,0-4.003-1.792-4.003-4.003s1.792-4.003,4.003-4.003h15.507
	c2.21,0,4.003,1.792,4.003,4.003S139.395,132.304,137.184,132.304z"/>
<path fill="#3F4963" d="M136.679,114.737c-2.21,0-4.003-1.792-4.003-4.003c0-1.79-1.456-3.245-3.246-3.245s-3.246,1.456-3.246,3.245
	c0,2.211-1.792,4.003-4.003,4.003s-4.003-1.792-4.003-4.003c0-6.204,5.048-11.251,11.252-11.251s11.252,5.046,11.252,11.251
	C140.682,112.945,138.889,114.737,136.679,114.737z"/>
<path fill="#FF6376" d="M228.324,132.304h-15.508c-2.211,0-4.004-1.792-4.004-4.003s1.793-4.003,4.004-4.003h15.508
	c2.211,0,4.003,1.792,4.003,4.003S230.535,132.304,228.324,132.304z"/>
<path fill="#3F4963" d="M227.818,114.737c-2.212,0-4.003-1.792-4.003-4.003c0-1.79-1.456-3.245-3.245-3.245
	s-3.245,1.456-3.245,3.245c0,2.211-1.792,4.003-4.003,4.003s-4.004-1.792-4.004-4.003c0-6.204,5.047-11.251,11.252-11.251
	c6.204,0,11.251,5.046,11.251,11.251C231.821,112.945,230.029,114.737,227.818,114.737z"/>
<path fill="#FBD151" d="M174.997,273.284c-0.679,0-1.368-0.173-1.998-0.536c-7.116-4.109-11.034-9.829-11.034-16.11
	c0-6.28,3.919-12,11.034-16.108c4.469-2.58,7.031-5.924,7.031-9.176c0-3.251-2.563-6.595-7.031-9.175
	c-7.116-4.108-11.034-9.83-11.034-16.109c0-6.28,3.919-12.001,11.034-16.108c4.469-2.581,7.031-5.925,7.031-9.176
	c0-3.252-2.563-6.596-7.031-9.176c-7.115-4.108-11.034-9.829-11.034-16.109s3.919-12.001,11.034-16.109
	c1.915-1.105,4.363-0.45,5.468,1.465c1.106,1.915,0.449,4.363-1.465,5.468c-4.468,2.58-7.031,5.924-7.031,9.175
	c0,3.252,2.563,6.596,7.031,9.176c7.115,4.108,11.034,9.83,11.034,16.11c0,6.279-3.919,12-11.034,16.108
	c-4.468,2.58-7.031,5.925-7.031,9.176c0,3.252,2.563,6.596,7.031,9.176c7.115,4.108,11.034,9.828,11.034,16.108
	c0,6.279-3.919,12.001-11.034,16.109c-4.468,2.58-7.031,5.925-7.031,9.176c0,3.252,2.563,6.596,7.031,9.176
	c1.914,1.105,2.571,3.554,1.465,5.468C177.726,272.566,176.38,273.284,174.997,273.284z"/>
<path d="M129.43,99.483c-6.204,0-11.252,5.046-11.252,11.251c0,2.21,1.792,4.003,4.003,4.003c2.212,0,4.003-1.792,4.003-4.003
	c0-1.79,1.456-3.245,3.246-3.245s3.245,1.456,3.245,3.245c0,2.21,1.792,4.003,4.003,4.003c2.211,0,4.003-1.792,4.003-4.003
	C140.681,104.53,135.634,99.483,129.43,99.483z M207.624,53.75c-3.882,0-7.674,0.608-11.314,1.792
	c-5.378-5.615-12.938-9.124-21.31-9.124c-8.371,0-15.933,3.508-21.31,9.124c-3.64-1.184-7.432-1.792-11.314-1.792
	c-20.196,0-36.627,16.431-36.627,36.627v169.247c0,20.196,16.431,36.627,36.627,36.627c3.884,0,7.676-0.607,11.315-1.791
	c5.377,5.615,12.938,9.122,21.309,9.122s15.931-3.507,21.309-9.122c3.64,1.184,7.432,1.791,11.315,1.791
	c20.197,0,36.627-16.431,36.627-36.627V90.376C244.252,70.181,227.821,53.75,207.624,53.75z M142.376,288.245
	c-15.781,0-28.622-12.84-28.622-28.621V90.376c0-15.782,12.839-28.621,28.622-28.621c2.166,0,4.293,0.246,6.368,0.717
	c-2.081,4.041-3.264,8.616-3.264,13.465v198.124c0,4.85,1.183,9.425,3.264,13.466C146.669,287.998,144.542,288.245,142.376,288.245z
	 M196.514,274.062c0,11.863-9.651,21.514-21.514,21.514c-11.864,0-21.515-9.65-21.515-21.514V75.938
	c0-11.862,9.651-21.513,21.515-21.513c11.862,0,21.514,9.651,21.514,21.513V274.062L196.514,274.062z M236.245,259.624
	c0,15.781-12.839,28.621-28.621,28.621c-2.166,0-4.294-0.247-6.368-0.718c2.081-4.04,3.264-8.615,3.264-13.465V75.938
	c0-4.849-1.183-9.424-3.264-13.465c2.075-0.471,4.202-0.717,6.368-0.717c15.781,0,28.621,12.839,28.621,28.621V259.624z
	 M185.408,114.93c0,1.766-1.437,3.202-3.203,3.202c-1.766,0-3.202-1.437-3.202-3.202c0-2.21-1.792-4.003-4.003-4.003
	c-2.211,0-4.003,1.792-4.003,4.003c0,1.766-1.437,3.202-3.203,3.202s-3.203-1.437-3.203-3.202c0-2.21-1.792-4.003-4.003-4.003
	s-4.003,1.792-4.003,4.003c0,6.18,5.028,11.208,11.209,11.208c2.743,0,5.256-0.994,7.206-2.635c1.95,1.641,4.463,2.635,7.205,2.635
	c6.181,0,11.21-5.028,11.21-11.208c0-2.21-1.793-4.003-4.004-4.003S185.408,112.719,185.408,114.93z M209.318,110.734
	c0,2.211,1.792,4.003,4.004,4.003c2.211,0,4.003-1.792,4.003-4.003c0-1.79,1.456-3.245,3.245-3.245s3.245,1.456,3.245,3.245
	c0,2.211,1.791,4.003,4.003,4.003s4.003-1.792,4.003-4.003c0-6.204-5.047-11.251-11.251-11.251S209.318,104.53,209.318,110.734z"/>
</svg>
