<?xml version="1.0" encoding="utf-8"?>
<!-- Generator: Adobe Illustrator 16.0.0, SVG Export Plug-In . SVG Version: 6.00 Build 0)  -->
<!DOCTYPE svg PUBLIC "-//W3C//DTD SVG 1.1//EN" "http://www.w3.org/Graphics/SVG/1.1/DTD/svg11.dtd">
<svg version="1.1" id="Capa_1" xmlns="http://www.w3.org/2000/svg" xmlns:xlink="http://www.w3.org/1999/xlink" x="0px" y="0px"
	 width="350px" height="350px" viewBox="0 0 350 350" enable-background="new 0 0 350 350" xml:space="preserve">
<g>
	<g>
		<path fill="#FBD490" d="M181.512,313.924h-15.728c-5.767,0-10.484-4.719-10.484-10.485v-73.394h36.697v73.394
			C191.996,309.205,187.278,313.924,181.512,313.924z"/>
		<path fill="#FBD490" d="M181.512,319.166h-15.728c-8.671,0-15.727-7.057-15.727-15.728v-78.636h47.182v78.636
			C197.238,312.109,190.183,319.166,181.512,319.166z M160.542,235.287v68.151c0,2.894,2.354,5.243,5.242,5.243h15.728
			c2.888,0,5.242-2.35,5.242-5.243v-68.151H160.542z"/>
	</g>
	<path fill="#EEAF4B" d="M191.859,305.09c-0.576,0-1.164-0.095-1.74-0.299c-1.306-0.456-3.094-0.875-5.069-1.347
		c-7.55-1.814-16.943-4.058-20.094-10.806c-1.027-2.201-1.777-5.787,0.498-10.353c0.545-1.107,1.74-3.816,0.928-5.075
		c-1.305-2.023-7.192-3.066-10.899-2.951c-2.972,0.335-5.326-2.155-5.426-5.054c-0.104-2.895,2.16-5.321,5.054-5.421
		c2.464-0.12,15.015-0.126,20.089,7.748c1.882,2.925,3.351,7.974-0.356,15.418c-0.435,0.875-0.393,1.227-0.388,1.231
		c0.419,1.379,4.808,3.083,13.037,5.054c2.386,0.571,4.535,1.101,6.107,1.652c2.731,0.959,4.168,3.952,3.209,6.678
		C196.048,303.748,194.024,305.09,191.859,305.09z"/>
	<path fill="#EEAF4B" d="M191.996,271.983c-12.1,0-21.945-9.284-21.945-20.691s9.845-20.691,21.945-20.691
		c2.894,0,5.242,2.344,5.242,5.242c0,2.899-2.349,5.243-5.242,5.243c-6.322,0-11.46,4.581-11.46,10.206s5.138,10.207,11.46,10.207
		c2.894,0,5.242,2.344,5.242,5.242C197.238,269.641,194.89,271.983,191.996,271.983z"/>
	<path fill="#F9DA49" d="M222.333,230.045h-94.666c-5.474,0-9.699-4.817-8.986-10.243l20.76-157.78
		C141.79,44.176,157.003,30.834,175,30.834l0,0c17.997,0,33.21,13.342,35.559,31.187l20.761,157.78
		C232.032,225.228,227.807,230.045,222.333,230.045z"/>
	<polygon fill="#00D7EC" points="191.886,230.045 227.849,193.416 224.373,167.021 162.497,230.045 	"/>
	<path fill="#00D7EC" d="M127.667,230.045h16.33l78.321-78.651l-3.455-26.243l-99.327,99.741
		C120.988,227.906,124.034,230.045,127.667,230.045z"/>
	<polygon fill="#00D7EC" points="120.532,205.736 216.897,110.22 213.463,84.103 124.998,171.787 	"/>
	<path fill="#00D7EC" d="M210.559,62.021c-0.701-5.353-2.584-10.291-5.336-14.595l-73.535,73.535l-4.493,34.144l84.492-84.492
		L210.559,62.021z"/>
	<path fill="#00D7EC" d="M175,30.834c-0.131,0-0.257,0.016-0.388,0.016l-35.779,35.78l-4.493,34.144l62.494-62.489
		C190.759,33.607,183.173,30.834,175,30.834z"/>
</g>
</svg>
