<?xml version="1.0" encoding="utf-8"?>
<!-- Generator: Adobe Illustrator 16.0.0, SVG Export Plug-In . SVG Version: 6.00 Build 0)  -->
<!DOCTYPE svg PUBLIC "-//W3C//DTD SVG 1.1//EN" "http://www.w3.org/Graphics/SVG/1.1/DTD/svg11.dtd">
<svg version="1.1" id="Capa_1" xmlns="http://www.w3.org/2000/svg" xmlns:xlink="http://www.w3.org/1999/xlink" x="0px" y="0px"
	 width="350px" height="350px" viewBox="0 0 350 350" enable-background="new 0 0 350 350" xml:space="preserve">
<g>
	<g>
		<path fill="#FBD490" d="M178.274,229.992l-1.371,0.776c-0.444,0.244-0.913,0.386-1.366,0.581
			c-6.801,4.208-15.788,2.129-20.064-4.608v74.026c0,5.37,4.394,9.764,9.763,9.764h19.527c5.37,0,9.764-4.394,9.764-9.764v-78.825
			L178.274,229.992z"/>
		<path fill="#FBD490" d="M184.763,315.417h-19.527c-8.074,0-14.645-6.571-14.645-14.645v-90.839l9.007,14.19
			c2.846,4.501,8.851,5.878,13.371,3.076l3.139-1.582l23.301-11.54v86.699C199.408,308.846,192.837,315.417,184.763,315.417z
			 M160.354,236.93v63.843c0,2.694,2.187,4.882,4.881,4.882h19.527c2.695,0,4.882-2.188,4.882-4.882v-70.966l-10.324,5.204
			c-0.538,0.308-1.07,0.522-1.598,0.723C172.446,239.004,165.929,239.263,160.354,236.93z"/>
	</g>
	<path fill="#EEAF4B" d="M194.634,308.959c-0.42,0-0.844-0.054-1.269-0.166c-6.186-1.655-30.404-11.58-26.928-26.498
		c0.903-3.861-6.966-9.959-12.985-12.879c-2.426-1.17-3.442-4.09-2.27-6.516c1.167-2.427,4.096-3.441,6.507-2.28
		c2.192,1.06,21.333,10.691,18.252,23.892c-1.113,4.764,11.647,12.623,19.946,14.85c2.603,0.698,4.15,3.373,3.452,5.98
		C198.759,307.523,196.786,308.959,194.634,308.959z"/>
	<path fill="#EEAF4B" d="M194.629,276.637c-12.317,0-21.968-7.502-21.968-17.086c0-9.583,9.65-17.086,21.968-17.086
		c2.699,0,4.882,2.183,4.882,4.882s-2.183,4.882-4.882,4.882c-7.195,0-12.204,3.856-12.204,7.322s5.009,7.323,12.204,7.323
		c2.699,0,4.882,2.182,4.882,4.882C199.511,274.455,197.323,276.637,194.629,276.637z"/>
	<path fill="#4C312C" d="M118.24,82.32L118.24,82.32c-4.252-6.839-2.133-15.919,4.711-20.171l51.204-25.375
		c6.839-4.252,15.919-2.133,20.17,4.711l0,0c4.253,6.839,2.134,15.919-4.711,20.171l-51.203,25.375
		C131.572,91.283,122.492,89.16,118.24,82.32z"/>
	<path fill="#6A3311" d="M154.618,226.634L154.618,226.634c-4.252-6.84-2.133-15.919,4.711-20.172l51.204-25.375
		c6.839-4.252,15.919-2.133,20.171,4.711l0,0c4.253,6.84,2.134,15.92-4.711,20.171l-51.204,25.376
		C167.945,235.592,158.87,233.473,154.618,226.634z"/>
	<path fill="#6A3311" d="M117.6,114.457L117.6,114.457c-4.027-6.976-1.616-15.978,5.36-20.005l88.31-43.94
		c6.977-4.027,15.978-1.616,20.006,5.36l0,0c4.027,6.977,1.615,15.978-5.36,20.005l-88.311,43.94
		C130.629,123.844,121.628,121.433,117.6,114.457z"/>
	<path fill="#4C312C" d="M117.6,146.983L117.6,146.983c-4.027-6.976-1.616-15.978,5.36-20.005l88.31-43.94
		c6.977-4.027,15.978-1.616,20.006,5.36l0,0c4.027,6.977,1.615,15.978-5.36,20.005l-88.311,43.94
		C130.629,156.371,121.628,153.959,117.6,146.983z"/>
	<path fill="#6A3311" d="M117.6,179.584L117.6,179.584c-4.027-6.976-1.616-15.979,5.36-20.005l88.31-43.94
		c6.977-4.027,15.978-1.616,20.006,5.36l0,0c4.027,6.976,1.615,15.978-5.36,20.005l-88.311,43.935
		C130.629,188.966,121.628,186.555,117.6,179.584z"/>
	<path fill="#4C312C" d="M118.279,211.729L118.279,211.729c-4.027-6.976-1.616-15.978,5.36-20.005l88.75-43.94
		c6.976-4.027,15.978-1.616,20.005,5.36l0,0c4.027,6.976,1.615,15.978-5.359,20.006l-88.75,43.94
		C131.313,221.117,122.306,218.705,118.279,211.729z"/>
	<path fill="#E22F37" d="M135.184,109.79c-1.792,0-3.515-0.986-4.374-2.7c-1.206-2.412-0.229-5.346,2.183-6.551l9.763-4.882
		c2.412-1.196,5.34-0.229,6.551,2.182c1.206,2.412,0.229,5.346-2.183,6.551l-9.763,4.882
		C136.663,109.624,135.917,109.79,135.184,109.79z"/>
	<path fill="#6F58A8" d="M208.41,139.08c-1.792,0-3.516-0.986-4.374-2.7c-1.205-2.411-0.229-5.345,2.182-6.551l9.764-4.882
		c2.406-1.201,5.34-0.234,6.552,2.183c1.205,2.411,0.229,5.345-2.183,6.551l-9.764,4.882
		C209.889,138.914,209.142,139.08,208.41,139.08z"/>
	<path fill="#79E09B" d="M208.41,202.543c-1.792,0-3.516-0.987-4.374-2.7c-1.205-2.411-0.229-5.346,2.182-6.551l9.764-4.882
		c2.406-1.201,5.34-0.229,6.552,2.182c1.205,2.411,0.229,5.345-2.183,6.552l-9.764,4.882
		C209.889,202.377,209.142,202.543,208.41,202.543z"/>
	<path fill="#F9D70B" d="M169.356,60.973c-1.792,0-3.515-0.986-4.374-2.7c-1.206-2.412-0.229-5.345,2.183-6.551l9.763-4.881
		c2.411-1.196,5.34-0.229,6.552,2.182c1.205,2.412,0.229,5.345-2.184,6.551l-9.763,4.881
		C170.835,60.807,170.088,60.973,169.356,60.973z"/>
</g>
</svg>
