<?xml version="1.0" encoding="utf-8"?>
<!-- Generator: Adobe Illustrator 16.0.0, SVG Export Plug-In . SVG Version: 6.00 Build 0)  -->
<!DOCTYPE svg PUBLIC "-//W3C//DTD SVG 1.1//EN" "http://www.w3.org/Graphics/SVG/1.1/DTD/svg11.dtd">
<svg version="1.1" id="Capa_1" xmlns="http://www.w3.org/2000/svg" xmlns:xlink="http://www.w3.org/1999/xlink" x="0px" y="0px"
	 width="350px" height="350px" viewBox="0 0 350 350" enable-background="new 0 0 350 350" xml:space="preserve">
<path d="M232.37,218.587L213.009,71.433c-1.897-14.389-11.729-26.083-24.715-30.924c-0.117-0.049-0.235-0.078-0.357-0.118
	c-4.058-1.467-8.414-2.288-12.936-2.288c-19.166,0-35.51,14.331-38.008,33.33l-19.361,147.154
	c-0.499,3.809,0.665,7.646,3.198,10.536c2.532,2.889,6.185,4.547,10.028,4.547h20.881v63.559c0,8.087,6.581,14.668,14.667,14.668
	h14.668c8.086,0,14.667-6.581,14.667-14.668V233.67h23.409c3.843,0,7.495-1.658,10.027-4.547
	C231.71,226.233,232.873,222.396,232.37,218.587z M129.971,223.773c-0.89-0.225-1.486-0.747-1.794-1.095
	c-0.396-0.454-1.036-1.423-0.855-2.811l3.442-26.172l78.182-78.183l3.403,25.874L129.971,223.773z M137.3,144.047l66.635-66.629
	l3.403,25.878l-74.477,74.477L137.3,144.047z M201.485,66.04l-62.093,62.087l4.439-33.72L187.39,50.85
	C193.771,53.959,198.835,59.333,201.485,66.04z M175,47.882c0.474,0,0.929,0.108,1.398,0.132l-30.474,30.474l0.758-5.77
	C148.55,58.56,160.724,47.882,175,47.882z M143.68,223.892l70.282-70.282l3.403,25.859l-45.01,44.423h-20.617H143.68z
	 M174.277,233.67c0.024,0,0.049,0.015,0.073,0.015s0.049-0.015,0.073-0.015h3.613c-4.63,3.54-7.651,8.878-7.651,14.927
	c0,9.045,6.659,16.599,15.577,18.682v20.28c-7.217-1.766-11.094-3.296-11.47-4.543c0-0.004-0.044-0.332,0.362-1.148
	c3.457-6.947,2.088-11.655,0.333-14.379c-3.109-4.826-9.187-6.435-13.67-6.973V233.67H174.277z M185.962,240.177v16.834
	c-3.428-1.589-5.799-4.748-5.799-8.414C180.163,244.93,182.534,241.766,185.962,240.177z M181.073,302.118h-14.668
	c-2.694,0-4.889-2.19-4.889-4.89v-26.797c2.445,0.435,4.723,1.217,5.452,2.347c0.758,1.174-0.357,3.7-0.866,4.732
	c-2.122,4.259-1.423,7.603-0.464,9.656c2.938,6.287,11.699,8.385,18.74,10.076c0.537,0.128,1.012,0.245,1.511,0.367
	C185.684,300.118,183.634,302.118,181.073,302.118z M221.824,222.679c-0.396,0.455-1.271,1.213-2.675,1.213H195.74h-9.461
	l32.685-32.259l3.716,28.235C222.86,221.256,222.22,222.225,221.824,222.679z"/>
</svg>
