<?xml version="1.0" encoding="utf-8"?>
<!-- Generator: Adobe Illustrator 16.0.0, SVG Export Plug-In . SVG Version: 6.00 Build 0)  -->
<!DOCTYPE svg PUBLIC "-//W3C//DTD SVG 1.1//EN" "http://www.w3.org/Graphics/SVG/1.1/DTD/svg11.dtd">
<svg version="1.1" id="Capa_1" xmlns="http://www.w3.org/2000/svg" xmlns:xlink="http://www.w3.org/1999/xlink" x="0px" y="0px"
	 width="350px" height="350px" viewBox="0 0 350 350" enable-background="new 0 0 350 350" xml:space="preserve">
<path d="M177.492,40.99h-4.991c-35.564,0-64.502,29.317-64.502,65.348v133.685c0,12.55,10.096,22.757,22.502,22.757h28.208v32.375
	c0,7.643,6.219,13.861,13.861,13.861h4.621c7.642,0,13.861-6.219,13.861-13.861v-32.381h28.434
	c12.411,0,22.503-10.207,22.503-22.755V106.338C241.993,70.307,213.06,40.99,177.492,40.99z M181.815,295.149
	c0,2.551-2.069,4.621-4.62,4.621h-4.62c-2.55,0-4.621-2.07-4.621-4.621v-32.344h13.861V295.149z M232.753,112.913L117.24,228.426
	v-44.69L224.311,76.67c5.318,8.617,8.446,18.768,8.446,29.668v6.575H232.753z M218.762,69.152L117.24,170.669v-44.689l73.941-73.932
	C202.013,54.861,211.554,60.914,218.762,69.152z M172.501,50.231h4.991c0.78,0,1.542,0.088,2.314,0.121l-62.566,62.566v-6.58
	C117.24,75.399,142.034,50.231,172.501,50.231z M117.374,241.363l115.379-115.379v42.643l-84.777,84.782
	c-0.037,0.036-0.046,0.087-0.083,0.125h-17.387C123.639,253.533,118.048,248.173,117.374,241.363z M219.491,253.533h-58.573
	l71.839-71.84v58.325C232.753,247.471,226.806,253.533,219.491,253.533z"/>
</svg>
