<?xml version="1.0" encoding="utf-8"?>
<!-- Generator: Adobe Illustrator 16.0.0, SVG Export Plug-In . SVG Version: 6.00 Build 0)  -->
<!DOCTYPE svg PUBLIC "-//W3C//DTD SVG 1.1//EN" "http://www.w3.org/Graphics/SVG/1.1/DTD/svg11.dtd">
<svg version="1.1" id="Capa_1" xmlns="http://www.w3.org/2000/svg" xmlns:xlink="http://www.w3.org/1999/xlink" x="0px" y="0px"
	 width="350px" height="350px" viewBox="0 0 350 350" enable-background="new 0 0 350 350" xml:space="preserve">
<g>
	<path d="M190.724,194.62l-10.37-10.37c-1.911-1.912-5.001-1.912-6.913,0c-1.912,1.912-1.912,5.002,0,6.913l17.283,17.283
		l17.288-17.283c1.912-1.911,1.912-5.001,0-6.913s-5.001-1.912-6.913,0L190.724,194.62z"/>
	<path d="M183.347,83.436c1.911-1.912,1.911-5.002,0-6.914c-1.912-1.911-5.002-1.911-6.914,0l-10.37,10.375l-10.375-10.375
		c-1.912-1.911-5.001-1.911-6.913,0c-1.912,1.912-1.912,5.002,0,6.914l17.288,17.288L183.347,83.436z"/>
	<path d="M177.616,152.559c-1.911-1.912-5.001-1.912-6.914,0l-17.112,17.112c-1.912,1.912-1.912,5.001,0,6.913
		c0.953,0.954,2.205,1.433,3.457,1.433s2.503-0.479,3.457-1.433l17.112-17.112C179.522,157.565,179.522,154.471,177.616,152.559z"/>
	<path d="M169.392,122.613c-0.606,2.63,1.032,5.256,3.667,5.862l23.581,5.442c0.372,0.088,0.738,0.123,1.105,0.123
		c2.225,0,4.238-1.531,4.762-3.79c0.606-2.63-1.032-5.255-3.667-5.862l-23.581-5.441
		C172.639,118.34,170.003,119.982,169.392,122.613z"/>
	<path d="M232.37,218.587L213.009,71.433c-2.499-18.999-18.843-33.33-38.008-33.33s-35.51,14.331-38.008,33.33l-19.361,147.154
		c-0.499,3.809,0.665,7.646,3.198,10.536c2.532,2.889,6.185,4.547,10.028,4.547h20.881v63.559c0,8.087,6.581,14.668,14.667,14.668
		h14.668c8.086,0,14.667-6.581,14.667-14.668V233.67h23.409c3.843,0,7.495-1.658,10.027-4.547
		C231.71,226.233,232.873,222.396,232.37,218.587z M185.962,240.177v16.834c-3.428-1.589-5.799-4.748-5.799-8.414
		C180.163,244.93,182.534,241.766,185.962,240.177z M185.962,267.278v20.28c-7.217-1.766-11.094-3.296-11.47-4.543
		c0-0.004-0.044-0.332,0.362-1.148c3.457-6.947,2.088-11.655,0.333-14.379c-3.109-4.826-9.187-6.439-13.67-6.973V233.67h16.52
		c-4.63,3.54-7.651,8.878-7.651,14.927C170.385,257.642,177.044,265.195,185.962,267.278z M181.073,302.118h-14.668
		c-2.694,0-4.889-2.19-4.889-4.89v-26.797c2.445,0.435,4.723,1.217,5.452,2.347c0.758,1.174-0.357,3.7-0.866,4.732
		c-2.122,4.259-1.423,7.603-0.464,9.656c2.938,6.287,11.699,8.385,18.74,10.076c0.537,0.128,1.012,0.245,1.511,0.367
		C185.684,300.118,183.634,302.118,181.073,302.118z M221.824,222.679c-0.396,0.455-1.271,1.213-2.675,1.213H195.74h-44.002h-20.881
		c-1.403,0-2.279-0.758-2.68-1.213c-0.396-0.454-1.036-1.423-0.855-2.811l19.361-147.154C148.55,58.56,160.724,47.882,175,47.882
		c14.276,0,26.45,10.678,28.318,24.832l19.355,147.154C222.86,221.256,222.22,222.225,221.824,222.679z"/>
</g>
</svg>
