<?xml version="1.0" encoding="utf-8"?>
<!-- Generator: Adobe Illustrator 16.0.0, SVG Export Plug-In . SVG Version: 6.00 Build 0)  -->
<!DOCTYPE svg PUBLIC "-//W3C//DTD SVG 1.1//EN" "http://www.w3.org/Graphics/SVG/1.1/DTD/svg11.dtd">
<svg version="1.1" id="Capa_1" xmlns="http://www.w3.org/2000/svg" xmlns:xlink="http://www.w3.org/1999/xlink" x="0px" y="0px"
	 width="350px" height="350px" viewBox="0 0 350 350" enable-background="new 0 0 350 350" xml:space="preserve">
<g>
	<path d="M236.565,113.366c7.64-6.132,12.104-15.306,12.104-25.261c0-17.924-14.578-32.502-32.502-32.502
		c-3.09,0-6.153,0.468-9.152,1.356c-8.334-6.262-18.644-10.023-29.846-10.023c-27.479,0-49.836,22.357-49.836,49.836
		c0,1.404,0.087,2.855,0.234,4.355c-15.246,5.304-26.236,19.783-26.236,36.814c0,19.614,14.57,35.847,33.447,38.561l-0.265,0.264
		l1.006,1.006l38.248,122.255c0.559,1.794,2.219,3.021,4.095,3.038c0.014,0,0.026,0,0.039,0c1.868,0,3.523-1.192,4.112-2.969
		l48.202-145.076c6.072-6.877,9.786-15.878,9.786-25.75C240.002,123.684,238.784,118.297,236.565,113.366z M240.002,88.105
		c0,6.869-2.899,13.239-7.913,17.716l0,0c-0.611-0.806-1.261-1.582-1.941-2.34c-0.334-0.381-0.676-0.758-1.023-1.126
		c-0.485-0.502-0.979-0.997-1.495-1.478c-0.256-0.238-0.485-0.502-0.745-0.737c0.082-1.135,0.117-2.262,0.117-3.367
		c0-1.617-0.091-3.216-0.243-4.806c-0.052-0.529-0.143-1.044-0.212-1.568c-0.135-1.054-0.281-2.103-0.481-3.142
		c-0.112-0.585-0.26-1.153-0.395-1.729c-0.225-0.971-0.464-1.938-0.745-2.891c-0.164-0.55-0.347-1.092-0.528-1.633
		c-0.325-0.975-0.677-1.937-1.058-2.886c-0.19-0.472-0.39-0.945-0.598-1.409c-0.446-1.01-0.928-2.002-1.439-2.981
		c-0.198-0.377-0.394-0.758-0.602-1.131c-0.586-1.053-1.218-2.08-1.881-3.094c-0.182-0.273-0.352-0.555-0.538-0.823
		c-0.745-1.088-1.542-2.145-2.374-3.177c-0.139-0.178-0.27-0.364-0.412-0.537c-0.183-0.217-0.338-0.451-0.524-0.667
		C228.544,63.629,240.002,74.567,240.002,88.105z M136,96.772c0-22.7,18.47-41.169,41.169-41.169
		c10.63,0,20.299,4.087,27.614,10.722c0.559,0.507,1.131,1.005,1.654,1.538c0.529,0.533,1.015,1.105,1.514,1.664
		c0.437,0.49,0.874,0.979,1.286,1.491c0.478,0.594,0.923,1.209,1.37,1.829c0.381,0.529,0.754,1.062,1.108,1.608
		c0.403,0.624,0.789,1.256,1.157,1.902c0.343,0.598,0.668,1.205,0.979,1.815c0.321,0.628,0.629,1.257,0.919,1.903
		c0.308,0.689,0.581,1.395,0.85,2.097c0.229,0.602,0.464,1.201,0.667,1.82c0.264,0.806,0.478,1.629,0.693,2.453
		c0.135,0.555,0.295,1.096,0.416,1.66c0.208,0.958,0.347,1.937,0.485,2.913c0.065,0.455,0.16,0.901,0.209,1.36
		c0.155,1.452,0.242,2.917,0.242,4.395c0,1.469-0.096,2.994-0.269,4.524c-0.022,0.204-0.065,0.403-0.091,0.607
		c-0.026,0.217-0.074,0.425-0.104,0.641c0,0.004-0.005,0.009-0.005,0.013c-0.013,0.091-0.029,0.187-0.042,0.277
		c-0.079,0.528-0.157,1.058-0.256,1.577c-0.07,0.403-0.139,0.806-0.227,1.209c-0.021,0.1-0.051,0.199-0.073,0.303
		c-0.061,0.26-0.135,0.511-0.199,0.767c-0.005,0.009-0.013,0.017-0.013,0.03c-0.151,0.589-0.308,1.174-0.473,1.76
		c-0.139,0.477-0.286,0.949-0.446,1.417c-0.005,0.013,0,0.022-0.005,0.035c-0.064,0.187-0.13,0.369-0.194,0.555
		c-0.017,0.043-0.03,0.086-0.048,0.13c-0.009,0.021-0.026,0.035-0.03,0.052c-0.416,1.153-0.875,2.275-1.383,3.372
		c-0.008,0.013-0.004,0.031-0.008,0.043c-2.995,6.422-7.559,11.974-13.253,16.086c-0.009,0.008-0.021,0.013-0.034,0.021
		c-0.992,0.715-2.02,1.383-3.077,2.011c-0.178,0.104-0.368,0.199-0.546,0.303c-0.893,0.512-1.807,1.001-2.738,1.443
		c-0.317,0.151-0.646,0.282-0.967,0.424c-0.814,0.364-1.634,0.711-2.475,1.019c-0.438,0.161-0.884,0.299-1.326,0.447
		c-0.75,0.247-1.504,0.485-2.271,0.689c-0.524,0.139-1.058,0.255-1.591,0.377c-0.711,0.16-1.425,0.312-2.149,0.433
		c-0.585,0.1-1.179,0.173-1.772,0.247c-0.697,0.087-1.396,0.161-2.102,0.212c-0.277,0.021-0.56,0.026-0.841,0.039
		c0-0.693-0.069-1.374-0.108-2.058c-0.034-0.615-0.034-1.239-0.096-1.846c-0.073-0.71-0.212-1.404-0.32-2.102
		c-0.091-0.589-0.151-1.188-0.273-1.764c-0.129-0.633-0.32-1.244-0.48-1.864c-0.16-0.624-0.295-1.261-0.485-1.872
		c-0.165-0.529-0.381-1.031-0.568-1.547c-0.246-0.681-0.467-1.374-0.749-2.033c-0.195-0.459-0.438-0.893-0.65-1.343
		c-0.325-0.693-0.632-1.396-0.997-2.063c-0.204-0.373-0.446-0.724-0.663-1.087c-0.42-0.715-0.832-1.439-1.296-2.124
		c-0.182-0.273-0.398-0.52-0.589-0.785c-0.537-0.754-1.075-1.503-1.66-2.214c-0.156-0.186-0.333-0.355-0.494-0.542
		c-0.654-0.763-1.317-1.517-2.023-2.223c-0.173-0.173-0.364-0.321-0.538-0.49c-0.724-0.698-1.456-1.387-2.236-2.028
		c-0.065-0.052-0.139-0.1-0.204-0.151c-0.902-0.737-1.833-1.439-2.8-2.093c-0.065-0.043-0.134-0.078-0.195-0.121
		c-0.979-0.654-1.98-1.27-3.021-1.833c-0.004,0-0.009-0.004-0.013-0.004c-1.101-0.598-2.231-1.145-3.393-1.634
		c-0.195-0.083-0.407-0.144-0.602-0.221c-0.976-0.395-1.959-0.776-2.973-1.088c-0.399-0.125-0.815-0.204-1.222-0.316
		c-0.832-0.23-1.66-0.473-2.509-0.646c-0.945-0.195-1.916-0.316-2.887-0.442c-0.329-0.043-0.646-0.117-0.979-0.147
		c-1.305-0.147-2.63-0.217-3.97-0.217c-1.438,0-2.852,0.091-4.247,0.243C136.03,98.358,136,97.552,136,96.772z M109.998,137.941
		c0-14.322,9.993-26.331,23.363-29.494c2.375-0.56,4.715-0.819,6.994-0.841c11.38,0.008,21.308,6.327,26.491,15.631
		c0.083,0.152,0.169,0.299,0.251,0.451c0.351,0.658,0.671,1.334,0.975,2.023c0.143,0.329,0.282,0.659,0.416,0.993
		c0.234,0.581,0.451,1.17,0.65,1.768c0.156,0.481,0.291,0.966,0.425,1.456c0.139,0.507,0.282,1.018,0.395,1.534
		c0.139,0.642,0.238,1.296,0.338,1.955c0.061,0.403,0.143,0.802,0.187,1.213c0.117,1.088,0.19,2.188,0.19,3.307
		c0,1.248-0.095,2.461-0.243,3.667c0,0.004,0,0.008,0,0.013s-0.004,0.009-0.004,0.013c-0.13,1.079-0.325,2.154-0.576,3.224
		c-0.013,0.052-0.026,0.104-0.039,0.151c-0.247,1.027-0.551,2.05-0.91,3.055c-0.095,0.269-0.19,0.538-0.294,0.802
		c-0.083,0.152-0.2,0.282-0.265,0.446c-2.882,7.09-8.165,12.62-14.665,15.835c-0.199,0.096-0.394,0.195-0.598,0.286
		c-2.422,1.131-5.01,1.933-7.701,2.388c-0.321,0.052-0.642,0.104-0.966,0.147c-1.344,0.187-2.7,0.312-4.078,0.312
		c-0.416,0-0.819-0.043-1.231-0.061l-0.425-0.026c-0.008,0-0.013,0.004-0.021,0.004
		C122.713,167.314,109.998,154.102,109.998,137.941z M178.027,284.616l-9.781-31.267l3.038-3.038l-5.807-5.807l-5.993-19.164
		l5.672-5.673l-6.128-6.127l-2.465,2.465l-7.827-25.013l4.16,4.164l6.128-6.127l-6.128-6.128l-5.101,5.101l-2.921-9.335l1.894-1.894
		l-0.346-0.347c0.728-0.113,1.456-0.221,2.167-0.373c0.412-0.091,0.811-0.211,1.218-0.312c0.997-0.251,1.985-0.524,2.947-0.854
		c0.455-0.156,0.906-0.325,1.352-0.499c0.611-0.23,1.222-0.455,1.82-0.719l3.099,3.099l6.127-6.128l-1.503-1.504
		c4.225-3.168,7.783-7.154,10.439-11.744c0.117,0.112,0.243,0.204,0.36,0.316c0.628,0.59,1.261,1.17,1.923,1.716l-5.091,5.092
		l6.127,6.128l6.128-6.128l-0.867-0.867c0.191,0.104,0.373,0.212,0.563,0.312c0.152,0.078,0.313,0.139,0.469,0.217
		c1.126,0.563,2.283,1.07,3.462,1.526c0.317,0.121,0.637,0.225,0.957,0.338c1.032,0.364,2.081,0.689,3.143,0.966
		c0.382,0.1,0.758,0.195,1.14,0.281c1.049,0.238,2.106,0.429,3.177,0.577c0.372,0.052,0.745,0.121,1.123,0.165
		c1.416,0.156,2.847,0.26,4.294,0.26c1.166,0,2.318-0.074,3.458-0.178l-2.535,2.535l6.128,6.127l6.128-6.127l-3.598-3.597
		c1.058-0.269,2.103-0.572,3.125-0.927c0.191-0.069,0.381-0.139,0.576-0.212c1.166-0.425,2.306-0.901,3.415-1.43
		c0.091-0.043,0.19-0.074,0.286-0.121L178.027,284.616z M223.035,150.058c-0.576,0.615-1.183,1.192-1.798,1.75
		c-0.164,0.147-0.321,0.299-0.486,0.442c-0.55,0.477-1.126,0.918-1.702,1.352c-0.269,0.199-0.528,0.412-0.806,0.603
		c-0.451,0.316-0.924,0.598-1.392,0.884c-0.42,0.26-0.832,0.529-1.266,0.767c-0.312,0.173-0.637,0.316-0.953,0.477
		c-0.589,0.299-1.179,0.602-1.794,0.862c-0.151,0.065-0.313,0.113-0.468,0.178c-2.601,1.058-5.369,1.777-8.265,2.072
		c-1.022,0.108-2.063,0.165-3.107,0.165c-1.127,0-2.24-0.065-3.345-0.191c-0.828-0.091-1.638-0.251-2.448-0.412
		c-0.269-0.052-0.551-0.078-0.819-0.139c-0.768-0.173-1.517-0.412-2.271-0.646c-0.308-0.095-0.624-0.164-0.927-0.268
		c-0.546-0.187-1.066-0.429-1.6-0.65c-0.511-0.212-1.031-0.398-1.525-0.632c-0.272-0.13-0.533-0.295-0.802-0.434
		c-0.75-0.39-1.504-0.78-2.223-1.23c-0.014-0.005-0.021-0.013-0.03-0.022c-2.683-1.69-5.104-3.835-7.203-6.349
		c0.021-0.078,0.039-0.156,0.062-0.234c0.169-0.602,0.333-1.205,0.468-1.807c1.196-0.026,2.375-0.117,3.549-0.226
		c0.139-0.013,0.286-0.013,0.425-0.026c1.552-0.161,3.081-0.403,4.589-0.702c0.377-0.074,0.746-0.173,1.118-0.256
		c1.14-0.255,2.271-0.542,3.381-0.871c0.411-0.122,0.814-0.251,1.222-0.386c1.136-0.368,2.249-0.78,3.35-1.226
		c0.291-0.117,0.585-0.23,0.872-0.351c4.312-1.855,8.311-4.303,11.899-7.25c0.086-0.069,0.169-0.139,0.251-0.212
		c1.145-0.949,2.24-1.95,3.299-2.995c0.056-0.056,0.111-0.108,0.164-0.16c3.271-3.285,6.093-7.021,8.352-11.133
		c0.16-0.29,0.307-0.585,0.458-0.879c0.521-0.993,1.01-1.998,1.461-3.029c0.213-0.477,0.416-0.953,0.61-1.434
		c0.348-0.854,0.659-1.725,0.959-2.604c0.207-0.603,0.42-1.201,0.606-1.812c0.009-0.035,0.025-0.069,0.034-0.104
		c0.802,1.058,1.634,2.089,2.313,3.263c0.005,0.009,0.018,0.018,0.027,0.026c2.608,4.524,4.064,9.664,4.064,15.055
		C231.335,137.317,228.162,144.624,223.035,150.058z"/>
	<path d="M189.672,170.634l6.127,6.128l-6.127,6.128l-6.128-6.128L189.672,170.634z M201.939,195.153l-6.128-6.128l6.128-6.127
		l6.129,6.127L201.939,195.153z M171.288,176.762l6.127,6.128l-6.127,6.127l-6.127-6.127L171.288,176.762z M189.667,195.157
		l-6.128,6.128l-6.128-6.128l6.128-6.127L189.667,195.157z M195.786,213.536l-6.127-6.127l6.127-6.128l6.127,6.128L195.786,213.536z
		 M165.147,195.145l6.128,6.128l-6.128,6.128l-6.127-6.128L165.147,195.145z M177.411,219.664l-6.127-6.128l6.127-6.127l6.128,6.127
		L177.411,219.664z M189.676,231.924l-6.128-6.128l6.128-6.128l6.128,6.128L189.676,231.924z M171.292,225.792l6.127,6.128
		l-6.123,6.127l-6.127-6.127L171.292,225.792z M183.548,250.312l-6.128-6.128l6.128-6.128l6.128,6.128L183.548,250.312z
		 M177.411,268.698l-6.127-6.127l6.127-6.128l6.128,6.128L177.411,268.698z"/>
</g>
</svg>
