<?xml version="1.0" encoding="utf-8"?>
<!-- Generator: Adobe Illustrator 16.0.0, SVG Export Plug-In . SVG Version: 6.00 Build 0)  -->
<!DOCTYPE svg PUBLIC "-//W3C//DTD SVG 1.1//EN" "http://www.w3.org/Graphics/SVG/1.1/DTD/svg11.dtd">
<svg version="1.1" id="Layer_1" xmlns="http://www.w3.org/2000/svg" xmlns:xlink="http://www.w3.org/1999/xlink" x="0px" y="0px"
	 width="350px" height="350px" viewBox="0 0 350 350" enable-background="new 0 0 350 350" xml:space="preserve">
<g>
	<path fill="#F6F6F6" d="M282.283,187.746c1.141,10.319,1.141,24.002-6.353,32.206c-10.103,11.078-25.36-1.305-36.55-3.039
		c6.3-13.141,11.789-28.892,14.229-44.207c9.127,4.616,16.567,11.73,13.306,22.75c-2.01,6.9-10.644,12.93-17.867,9.563
		c-2.715-1.305-4.667,2.169-2.333,3.961c4.778,3.639,8.416,5.325,14.822,3.75c6.247-1.575,11.243-6.677,14.229-12.166
		c8.311-15.533-4.072-30.464-17.648-37.035c3.913-5.104,8.909-9.342,13.088-5.375C278.646,165.213,281.144,178.083,282.283,187.746z
		"/>
	<path fill="#F6F6F6" d="M232.269,144.305c1.305,0.979,2.498,2.172,3.691,3.368c-5.865,4.017-12.16,7.276-18.843,9.774
		c3.314-5.81,4.726-12.545,4.672-19.442C225.428,139.853,228.954,141.916,232.269,144.305z"/>
	<path fill="#F6F6F6" d="M87.056,136.05c0.705,4.561,1.957,9.177,3.967,13.958c-6.953-2.283-13.47-4.725-19.712-7.17
		c1.792-2.715,5.59-4.182,8.522-5.266C82.06,136.755,84.558,136.485,87.056,136.05z"/>
	<path fill="#F6F6F6" d="M237.158,164.017c-2.228,12.436-3.696,25.198-7.77,37.306c-7.223,21.615-20.199,41.439-40.453,52.57
		c-26.829,14.77-63.484,0.652-84.936-17.05c-24.925-20.476-39.154-54.578-41.869-86.185
		C106.55,174.987,190.018,195.08,237.158,164.017z"/>
	<path fill="#1D1D1B" d="M207.614,133.335c0.164-9.612-1.522-18.681-10.532-27.314c-1.088-1.031-2.286-2.01-3.426-2.933
		c-0.054,0.597-0.159,1.14-0.218,1.684c-0.594,3.53-5.267,6.136-8.575,4.887c-8.204-3.042-17.761-7.658-20.693-16.618
		c-0.106-0.435-0.165-0.923-0.165-1.411c-0.217-0.056-0.435-0.056-0.652-0.109c-1.898-0.435-3.203-1.466-4.073-2.715
		c-2.927-0.326-5.918-0.599-8.851-0.599c-18.354-0.053-32.636,5.213-41.922,14.499c5.918,6.788-5.431,20.041-11.89,26.882
		c-0.599,7.005,0.159,14.663,2.439,22.918c30.356,9.177,65.113,15.257,95.904,10.588c-0.106-0.271-0.271-0.488-0.324-0.814
		c-0.816-4.942-3.149-9.556-3.42-14.607c-0.329-6.136,2.28-11.079,6.188-15.64C200.227,128.718,205.498,130.023,207.614,133.335z
		 M294.72,184.871c2.01,14.658,1.575,34.158-10.103,45.072c-12.489,11.673-39.096,9.827-49.798-3.749
		c-0.053-0.053-0.105-0.159-0.159-0.212c-0.217,0.323-0.382,0.699-0.599,1.081c-13.471,23.355-32.419,41.058-59.736,45.454
		c-69.838,11.244-120.612-61.47-119.959-123.652c0-2.986,2.604-4.126,4.778-3.474c0.271-2.554,2.063-4.887,4.508-5.052
		c0.053-0.162,0.053-0.271,0.053-0.435c1.686-5.266,5.971-8.581,10.861-10.752c1.846-0.867,4.073-1.737,6.465-2.442
		c-1.851-6.465-1.575-13.306,3.039-18.736c2.986-3.421,6.788-5.378,10.755-7.167c10.75-15.478,30.897-25.254,55.604-24.438
		c4.291,0.162,8.692,0.597,13.142,1.302c1.087-0.271,2.286-0.379,3.585-0.053c6.247,1.52,14.282,1.14,19.712,5.049
		c1.416,1.031,2.556,2.227,3.531,3.476c6.518,3.42,12.489,7.82,17.215,13.468c6.57,7.928,11.837,19.224,13.576,30.682h0.053
		c5.919,1.684,11.678,4.129,16.997,7.279c1.904,1.193,4.02,2.333,5.865,3.747c3.262-2.553,8.745-2.119,9.721,2.824
		c0.652,3.312,1.034,6.788,1.141,10.37c4.565-7.438,11.407-12.544,20.857-7.114C288.096,154.513,292.927,171.836,294.72,184.871z
		 M275.931,219.952c7.493-8.204,7.493-21.887,6.353-32.206c-1.14-9.663-3.638-22.533-11.078-29.592
		c-4.179-3.967-9.175,0.271-13.088,5.375c13.576,6.571,25.959,21.501,17.648,37.035c-2.985,5.489-7.981,10.591-14.229,12.166
		c-6.406,1.575-10.044-0.111-14.822-3.75c-2.334-1.792-0.382-5.266,2.333-3.961c7.224,3.367,15.857-2.662,17.867-9.563
		c3.262-11.02-4.179-18.134-13.306-22.75c-2.439,15.315-7.929,31.066-14.229,44.207C250.57,218.647,265.828,231.03,275.931,219.952z
		 M235.96,147.672c-1.193-1.196-2.387-2.389-3.691-3.368c-3.314-2.389-6.841-4.452-10.479-6.3
		c0.054,6.897-1.357,13.632-4.672,19.442C223.8,154.948,230.095,151.689,235.96,147.672z M229.389,201.322
		c4.073-12.107,5.542-24.87,7.77-37.306c-47.141,31.063-130.608,10.97-175.028-13.359c2.715,31.607,16.944,65.709,41.869,86.185
		c21.452,17.702,58.107,31.819,84.936,17.05C209.189,242.762,222.166,222.938,229.389,201.322z M91.022,150.008
		c-2.01-4.781-3.262-9.397-3.967-13.958c-2.498,0.435-4.996,0.705-7.223,1.522c-2.933,1.084-6.73,2.551-8.522,5.266
		C77.552,145.283,84.07,147.725,91.022,150.008z"/>
	<path fill="#683C11" d="M197.082,106.021c9.01,8.634,10.696,17.702,10.532,27.314c-2.116-3.312-7.388-4.617-10.209-1.302
		c-3.908,4.561-6.518,9.504-6.188,15.64c0.271,5.051,2.604,9.665,3.42,14.607c0.054,0.326,0.218,0.544,0.324,0.814
		c-30.791,4.669-65.548-1.411-95.904-10.588c-2.28-8.255-3.039-15.913-2.439-22.918c6.459-6.841,17.809-20.094,11.89-26.882
		c9.286-9.286,23.567-14.552,41.922-14.499c2.933,0,5.924,0.273,8.851,0.599c0.87,1.249,2.174,2.28,4.073,2.715
		c0.218,0.053,0.435,0.053,0.652,0.109c0,0.488,0.059,0.976,0.165,1.411c2.933,8.959,12.489,13.576,20.693,16.618
		c3.309,1.249,7.981-1.357,8.575-4.887c0.059-0.543,0.164-1.087,0.218-1.684C194.796,104.011,195.994,104.989,197.082,106.021z
		 M172.151,141.698c2.773-3.529,5.759-7.006,5.106-11.784c-0.328-1.955-1.627-3.312-3.256-4.073
		c1.082-2.606-1.305-6.191-4.184-4.182c-2.28,1.575-4.831,1.846-7.17,3.638c-4.778,3.694-6.242,8.525-6.947,14.39
		c-0.435,3.694,3.309,6.192,6.512,6.462c0.981,0.108,2.068,0.056,3.044,0.056C168.46,146.206,170.359,143.925,172.151,141.698z
		 M143.858,151.689c4.073,0.109,6.354-3.855,5.648-7.494c-1.029-5.43-1.898-10.861-4.073-15.965
		c-2.063-4.834-5.372-8.959-8.416-13.141c-2.498-3.421-8.634-4.67-10.808,0c-1.029,2.118-1.846,4.29-2.333,6.462
		c-1.034,0.597-1.792,1.575-1.681,2.824c0.376,6.354-0.217,12.272,2.333,18.302C127.731,150.114,136.8,151.472,143.858,151.689z"/>
	<path fill="#1D1D1B" d="M177.258,129.915c0.652,4.778-2.333,8.254-5.106,11.784c-1.792,2.227-3.691,4.508-6.895,4.508
		c-0.976,0-2.063,0.053-3.044-0.056c-3.203-0.271-6.947-2.769-6.512-6.462c0.705-5.865,2.169-10.696,6.947-14.39
		c2.339-1.792,4.89-2.063,7.17-3.638c2.879-2.01,5.266,1.575,4.184,4.182C175.63,126.603,176.93,127.96,177.258,129.915z"/>
	<path fill="#1D1D1B" d="M149.506,144.196c0.706,3.638-1.575,7.603-5.648,7.494c-7.059-0.217-16.127-1.575-19.33-9.013
		c-2.551-6.03-1.957-11.948-2.333-18.302c-0.111-1.249,0.647-2.227,1.681-2.824c0.488-2.172,1.305-4.344,2.333-6.462
		c2.174-4.67,8.31-3.421,10.808,0c3.044,4.182,6.353,8.307,8.416,13.141C147.608,133.335,148.478,138.766,149.506,144.196z"/>
</g>
</svg>
