<?xml version="1.0" encoding="utf-8"?>
<!-- Generator: Adobe Illustrator 16.0.0, SVG Export Plug-In . SVG Version: 6.00 Build 0)  -->
<!DOCTYPE svg PUBLIC "-//W3C//DTD SVG 1.1//EN" "http://www.w3.org/Graphics/SVG/1.1/DTD/svg11.dtd">
<svg version="1.1" id="Layer_1" xmlns="http://www.w3.org/2000/svg" xmlns:xlink="http://www.w3.org/1999/xlink" x="0px" y="0px"
	 width="350px" height="350px" viewBox="0 0 350 350" enable-background="new 0 0 350 350" xml:space="preserve">
<g>
	<path d="M142.178,222.503l-1.899-0.583l-8.929,3.828c-1.397,0.6-2.981,0.6-4.378,0l-8.929-3.828l-1.899,0.583
		c-2.186,0.754-3.651,2.805-3.651,5.121v13.878h33.338v-13.878C145.83,225.308,144.364,223.257,142.178,222.503z"/>
	<path d="M97.41,241.502h3.969v-13.878c0-7.126,4.543-13.428,11.303-15.682c0.043-0.014,0.085-0.028,0.128-0.041l3.921-1.203
		c1.256-0.384,2.611-0.313,3.819,0.206l8.611,3.691l8.612-3.693c1.209-0.518,2.561-0.59,3.817-0.204l3.922,1.203
		c0.042,0.013,0.084,0.027,0.128,0.041c6.76,2.254,11.303,8.556,11.303,15.682v13.878h3.969v-67.865
		c0-2.741-2.222-4.962-4.963-4.962h-53.577c-2.741,0-4.963,2.222-4.963,4.962V241.502L97.41,241.502z M129.16,175.396
		c9.19,0,16.669,7.478,16.669,16.669c0,9.19-7.479,16.669-16.669,16.669c-9.191,0-16.669-7.479-16.669-16.669
		C112.491,182.874,119.969,175.396,129.16,175.396z"/>
	<path d="M129.16,197.622c3.063,0,5.556-2.492,5.556-5.556c0-3.064-2.493-5.557-5.556-5.557c-3.064,0-5.557,2.492-5.557,5.557
		C123.604,195.129,126.097,197.622,129.16,197.622z"/>
	<path d="M214.291,96.417h-13.098c-3.762,0-6.729-3.079-6.747-6.84c-0.051-10.681-8.755-19.354-19.446-19.354
		c-10.692,0-19.396,8.673-19.447,19.354c-0.018,3.762-2.985,6.84-6.748,6.84h-13.097c-3.507,0-6.35,2.843-6.35,6.35v26.195
		c0,3.507,2.843,6.35,6.35,6.35h78.583c3.507,0,6.35-2.843,6.35-6.35v-26.195C220.641,99.26,217.798,96.417,214.291,96.417z
		 M175,98.005c-4.158,0-7.542-3.383-7.542-7.541s3.383-7.541,7.542-7.541c4.158,0,7.541,3.383,7.541,7.541
		S179.157,98.005,175,98.005z"/>
	<path d="M265.621,109.118h-31.486v32.941c0,3.726-3.021,6.747-6.747,6.747H122.612c-3.727,0-6.748-3.021-6.748-6.747v-32.941
		H84.378c-12.108,0-21.96,9.851-21.96,21.96v126.737c0,12.109,9.852,21.96,21.96,21.96h181.243c12.107,0,21.959-9.852,21.959-21.96
		V131.078C287.581,118.969,277.729,109.118,265.621,109.118L265.621,109.118z M195.439,174.604h26.193
		c3.726,0,6.748,3.021,6.748,6.747c0,3.727-3.022,6.747-6.748,6.747h-26.193c-3.728,0-6.748-3.021-6.748-6.747
		C188.692,177.623,191.712,174.604,195.439,174.604z M172.023,247.059c0,3.069-2.487,5.557-5.557,5.557H91.854
		c-3.069,0-5.556-2.487-5.556-5.557v-83.94c0-3.069,2.487-5.556,5.556-5.556h74.613c3.069,0,5.557,2.487,5.557,5.556V247.059z
		 M260.924,240.485h-65.484c-3.728,0-6.748-3.021-6.748-6.747c0-3.727,3.021-6.747,6.748-6.747h65.484
		c3.727,0,6.748,3.021,6.748,6.747C267.672,237.464,264.65,240.485,260.924,240.485z M260.924,214.292h-65.484
		c-3.728,0-6.748-3.022-6.748-6.748c0-3.727,3.021-6.747,6.748-6.747h65.484c3.727,0,6.748,3.021,6.748,6.747
		C267.672,211.27,264.65,214.292,260.924,214.292z"/>
</g>
</svg>
