<?xml version="1.0" encoding="utf-8"?>
<!-- Generator: Adobe Illustrator 16.0.0, SVG Export Plug-In . SVG Version: 6.00 Build 0)  -->
<!DOCTYPE svg PUBLIC "-//W3C//DTD SVG 1.1//EN" "http://www.w3.org/Graphics/SVG/1.1/DTD/svg11.dtd">
<svg version="1.1" id="Layer_1" xmlns="http://www.w3.org/2000/svg" xmlns:xlink="http://www.w3.org/1999/xlink" x="0px" y="0px"
	 width="350px" height="350px" viewBox="0 0 350 350" enable-background="new 0 0 350 350" xml:space="preserve">
<g>
	<path d="M137.044,261.211h75.913c0.125-2.186,0.282-4.749,0.478-7.551h-76.869C136.762,256.462,136.919,259.025,137.044,261.211
		L137.044,261.211z"/>
	<path d="M183.977,243.688v-47.771c0-1.136,0.332-2.245,0.955-3.194l8.766-13.338v-24.686c0-2.691-1.703-5.072-4.245-5.946
		l-1.42-0.436l-9.546,7.147c-2.066,1.547-4.906,1.547-6.973,0l-9.546-7.147l-1.42,0.436c-2.542,0.874-4.245,3.255-4.245,5.946
		v24.686l8.765,13.338c0.625,0.949,0.956,2.059,0.956,3.194v47.772L183.977,243.688L183.977,243.688z"/>
	<path d="M137.656,271.182c2.591,27.402,24.275,27.422,37.344,27.422s34.753-0.02,37.344-27.422H137.656z"/>
	<path d="M175,108.524c-3.551,0-6.44,2.889-6.44,6.44s2.889,6.44,6.44,6.44c3.55,0,6.439-2.889,6.439-6.44
		S178.551,108.524,175,108.524z"/>
	<path d="M175,51.396c-46.506,0-84.341,37.836-84.341,84.341c0,24.462,13.049,40.699,25.668,56.401
		c3.957,4.925,8.048,10.016,11.731,15.345c4.083,5.908,6.388,21.994,7.703,36.205h18.63v-46.031l-8.765-13.339
		c-0.624-0.949-0.956-2.059-0.956-3.194v-26.425c0-7.726,4.924-14.558,12.254-17.001c0.044-0.015,4.457-1.37,4.457-1.37
		c1.777-0.545,3.706-0.211,5.192,0.904l8.427,6.309l8.427-6.309c1.487-1.113,3.414-1.448,5.193-0.904c0,0,4.413,1.355,4.456,1.37
		c7.329,2.443,12.255,9.274,12.255,17.001v26.425c0,1.136-0.333,2.246-0.956,3.194l-8.765,13.339v46.031h18.629
		c1.316-14.211,3.62-30.297,7.703-36.205c3.683-5.328,7.775-10.42,11.731-15.345c12.62-15.702,25.668-31.939,25.668-56.401
		C259.341,89.232,221.506,51.396,175,51.396L175,51.396z M175,133.037c-9.965,0-18.073-8.107-18.073-18.073
		c0-9.965,8.107-18.072,18.073-18.072s18.073,8.107,18.073,18.072C193.073,124.93,184.966,133.037,175,133.037z"/>
</g>
</svg>
