<?xml version="1.0" encoding="utf-8"?>
<!-- Generator: Adobe Illustrator 16.0.0, SVG Export Plug-In . SVG Version: 6.00 Build 0)  -->
<!DOCTYPE svg PUBLIC "-//W3C//DTD SVG 1.1//EN" "http://www.w3.org/Graphics/SVG/1.1/DTD/svg11.dtd">
<svg version="1.1" id="Capa_1" xmlns="http://www.w3.org/2000/svg" xmlns:xlink="http://www.w3.org/1999/xlink" x="0px" y="0px"
	 width="350px" height="350px" viewBox="0 0 350 350" enable-background="new 0 0 350 350" xml:space="preserve">
<path fill="#ECF0F1" d="M159.295,83.704c-2.344,0-4.247-1.898-4.247-4.247c0-14.051,11.427-25.478,25.478-25.478
	c2.344,0,4.246,1.898,4.246,4.246c0,2.349-1.902,4.247-4.246,4.247c-9.367,0-16.985,7.618-16.985,16.985
	C163.541,81.805,161.639,83.704,159.295,83.704z"/>
<path fill="#ECF0F1" d="M201.759,83.704c-2.344,0-4.247-1.898-4.247-4.247c0-9.367-7.618-16.985-16.985-16.985
	c-2.345,0-4.246-1.898-4.246-4.247c0-2.348,1.901-4.246,4.246-4.246c14.051,0,25.479,11.427,25.479,25.478
	C206.005,81.805,204.103,83.704,201.759,83.704z"/>
<path fill="#ECF0F1" d="M201.759,274.789c-2.344,0-4.247-1.898-4.247-4.246V79.457c0-2.348,1.903-4.246,4.247-4.246
	s4.246,1.898,4.246,4.246v191.086C206.005,272.891,204.103,274.789,201.759,274.789z"/>
<path fill="#ECF0F1" d="M244.222,274.789c-2.344,0-4.246-1.898-4.246-4.246v-93.419c0-2.349,1.902-4.247,4.246-4.247
	c2.349,0,4.246,1.898,4.246,4.247v93.419C248.468,272.891,246.57,274.789,244.222,274.789z"/>
<path fill="#ECF0F1" d="M222.99,296.021c-2.345,0-4.246-1.898-4.246-4.247c0-2.348,1.901-4.246,4.246-4.246
	c9.367,0,16.985-7.618,16.985-16.985c0-2.349,1.902-4.246,4.246-4.246c2.349,0,4.246,1.897,4.246,4.246
	C248.468,284.594,237.041,296.021,222.99,296.021z"/>
<path fill="#ECF0F1" d="M222.99,296.021c-14.051,0-25.479-11.428-25.479-25.479c0-2.349,1.903-4.246,4.247-4.246
	s4.246,1.897,4.246,4.246c0,9.367,7.617,16.985,16.985,16.985c2.344,0,4.246,1.898,4.246,4.246
	C227.236,294.123,225.334,296.021,222.99,296.021z"/>
<path fill="#ECF0F1" d="M244.222,181.37c-2.344,0-4.246-1.899-4.246-4.246c0-11.708,9.524-21.232,21.231-21.232
	c2.349,0,4.247,1.898,4.247,4.246c0,2.348-1.898,4.247-4.247,4.247c-7.022,0-12.739,5.715-12.739,12.74
	C248.468,179.471,246.57,181.37,244.222,181.37z"/>
<path fill="#ECF0F1" d="M244.222,181.37c-2.344,0-4.246-1.899-4.246-4.246v-72.189c0-2.348,1.902-4.246,4.246-4.246
	c2.349,0,4.246,1.898,4.246,4.246v72.189C248.468,179.471,246.57,181.37,244.222,181.37z"/>
<path fill="#ECF0F1" d="M278.192,164.384h-16.985c-2.348,0-4.246-1.898-4.246-4.247c0-2.348,1.898-4.246,4.246-4.246h16.985
	c2.349,0,4.247,1.898,4.247,4.246C282.439,162.486,280.541,164.384,278.192,164.384z"/>
<path fill="#ECF0F1" d="M256.961,109.182h-12.739c-2.344,0-4.246-1.898-4.246-4.247c0-2.348,1.902-4.246,4.246-4.246h12.739
	c2.349,0,4.246,1.898,4.246,4.246C261.207,107.284,259.31,109.182,256.961,109.182z"/>
<path fill="#ECF0F1" d="M278.192,177.124c-2.348,0-4.246-1.899-4.246-4.247v-12.739c0-2.348,1.898-4.246,4.246-4.246
	c2.349,0,4.247,1.898,4.247,4.246v12.739C282.439,175.225,280.541,177.124,278.192,177.124z"/>
<rect x="48.89" y="79.457" fill="#ECF0F1" width="135.883" height="216.564"/>
<rect x="61.628" y="92.196" fill="#95D3F4" width="110.405" height="76.434"/>
<circle fill="#FFFFFF" cx="116.831" cy="232.325" r="46.71"/>
<circle fill="#BDC3C7" cx="116.831" cy="232.326" r="21.232"/>
<path fill="#86A0C0" d="M78.614,130.414c-1.087,0-2.174-0.417-3.002-1.245c-1.661-1.66-1.661-4.344,0-6.004l16.985-16.985
	c1.661-1.661,4.344-1.661,6.004,0c1.66,1.66,1.66,4.344,0,6.004l-16.985,16.985C80.788,129.997,79.701,130.414,78.614,130.414z"/>
<path fill="#86A0C0" d="M78.614,151.646c-1.087,0-2.174-0.417-3.002-1.245c-1.661-1.66-1.661-4.344,0-6.004l8.492-8.493
	c1.66-1.66,4.344-1.66,6.004,0c1.66,1.661,1.66,4.344,0,6.004l-8.493,8.493C80.788,151.229,79.701,151.646,78.614,151.646z"/>
<path fill="#86A0C0" d="M95.6,134.66c-1.104,0-2.208-0.467-3.015-1.274c-0.764-0.765-1.231-1.826-1.231-2.972
	c0-1.104,0.467-2.212,1.231-3.015c1.571-1.571,4.417-1.571,6.03,0c0.764,0.803,1.231,1.911,1.231,3.015
	c0,1.104-0.467,2.208-1.231,3.015C97.808,134.193,96.746,134.66,95.6,134.66z"/>
<path fill="#86A0C0" d="M104.092,126.167c-1.087,0-2.174-0.416-3.002-1.244c-1.661-1.66-1.661-4.344,0-6.004l12.739-12.739
	c1.66-1.661,4.344-1.661,6.004,0c1.66,1.66,1.66,4.344,0,6.004l-12.739,12.739C106.266,125.751,105.179,126.167,104.092,126.167z"/>
<path fill="#E6E7E8" stroke="#ECF0F1" stroke-width="2" stroke-linecap="round" stroke-miterlimit="10" d="M265.454,121.921
	L265.454,121.921c-4.671,0-8.493-3.822-8.493-8.493V96.443c0-4.671,3.822-8.493,8.493-8.493l0,0c4.67,0,8.492,3.822,8.492,8.493
	v16.985C273.946,118.099,270.124,121.921,265.454,121.921z"/>
<path fill="#E6E7E8" stroke="#ECF0F1" stroke-width="2" stroke-linecap="round" stroke-miterlimit="10" d="M261.207,181.37
	L261.207,181.37c0-4.671,3.822-8.493,8.493-8.493h16.985c4.671,0,8.492,3.822,8.492,8.493l0,0c0,4.671-3.821,8.492-8.492,8.492
	H269.7C265.029,189.862,261.207,186.041,261.207,181.37z"/>
</svg>
