<?xml version="1.0" encoding="utf-8"?>
<!-- Generator: Adobe Illustrator 16.0.0, SVG Export Plug-In . SVG Version: 6.00 Build 0)  -->
<!DOCTYPE svg PUBLIC "-//W3C//DTD SVG 1.1 Tiny//EN" "http://www.w3.org/Graphics/SVG/1.1/DTD/svg11-tiny.dtd">
<svg version="1.1" baseProfile="tiny" id="Layer_1" xmlns="http://www.w3.org/2000/svg" xmlns:xlink="http://www.w3.org/1999/xlink"
	 x="0px" y="0px" width="350px" height="350px" viewBox="0 0 350 350" xml:space="preserve">
<g>
	<g>
		<g>
			<g>
				<path fill="#00374B" d="M164.337,68.163c-0.015-0.037-1.457-3.828-1.298-8.329c-0.266-0.492-2.498-4.924-0.086-11.632
					c-0.025-0.596-0.238-8.307,5.791-9.563c0.109-0.029,2.936-0.774,3.974-0.774l4.62-0.011c1.039,0,3.864,0.745,3.984,0.776
					c6.019,1.255,5.807,8.964,5.779,9.562c2.414,6.708,0.183,11.14-0.087,11.632c0.16,4.501-1.281,8.292-1.296,8.33l-0.325-0.066
					c0.001-0.018,0.055-1.797-0.634-3.65c-0.916-2.462-2.642-3.885-5.131-4.23l-9.225,0.011c-2.465,0.344-4.19,1.768-5.107,4.229
					c-0.69,1.854-0.636,3.633-0.635,3.65L164.337,68.163z M177.338,38.191l-4.62,0.01c-0.995,0-3.869,0.757-3.898,0.765
					c-5.963,1.242-5.534,9.17-5.529,9.25l0.002,0.035l-0.011,0.033c-1.314,3.63-1.225,6.542-0.918,8.345
					c0.333,1.955,0.981,3.066,0.989,3.077l0.025,0.042l-0.002,0.05c-0.119,3.19,0.578,6.02,0.989,7.383
					c0.179-2.005,1.124-6.62,6.014-7.299l9.272-0.012c4.911,0.68,5.859,5.295,6.037,7.299c0.411-1.363,1.11-4.194,0.988-7.382
					l-0.002-0.05l0.025-0.043c0.008-0.011,0.658-1.122,0.99-3.077c0.306-1.803,0.396-4.715-0.916-8.346l-0.012-0.032l0.002-0.035
					c0.006-0.08,0.434-8.008-5.519-9.249C181.209,38.948,178.334,38.191,177.338,38.191z"/>
			</g>
		</g>
	</g>
	<g>
		<g>
			<g>
				<path fill="#00374B" d="M163.293,59.796l-0.168-0.005c0.003-0.083,0.255-8.342-0.085-11.554l0.167-0.019
					C163.547,51.442,163.295,59.712,163.293,59.796z"/>
			</g>
		</g>
	</g>
	<g>
		<g>
			<g>
				<path fill="#00374B" d="M163.345,45.509l-0.143-0.089c0.021-0.034,0.537-0.844,1.767-1.687c1.13-0.775,3.102-1.721,6.077-1.822
					h3.086l1.792-0.01h3.084c2.979,0.101,4.948,1.045,6.079,1.822c1.229,0.843,1.745,1.652,1.767,1.687l-0.144,0.089
					c-0.004-0.008-0.522-0.82-1.726-1.643c-1.11-0.762-3.051-1.688-5.979-1.787h-3.083l-1.79,0.01h-3.085
					c-2.933,0.099-4.873,1.029-5.984,1.792C163.864,44.695,163.349,45.501,163.345,45.509z"/>
			</g>
		</g>
	</g>
	<g>
		<g>
			<g>
				<path fill="#00374B" d="M163.334,51.243l-0.12-0.118c0.026-0.025,2.514-2.468,6.865-2.788l9.893-0.01
					c4.356,0.32,6.846,2.763,6.868,2.788l-0.118,0.119c-0.022-0.023-2.472-2.423-6.756-2.739l-9.881,0.01
					C165.806,48.819,163.357,51.218,163.334,51.243z"/>
			</g>
		</g>
	</g>
	<g>
		<g>
			<g>
				<path fill="#00374B" d="M163.355,57.242l-0.165-0.038c0.011-0.046,1.107-4.541,7.102-4.754l1.094-1.736l7.282-0.01l1.093,1.736
					c5.998,0.213,7.093,4.708,7.103,4.754l-0.164,0.038c-0.01-0.045-1.087-4.437-6.987-4.625l-0.047-0.001l-1.089-1.733l-7.098,0.01
					l-1.09,1.733l-0.045,0.001C164.442,52.805,163.365,57.198,163.355,57.242z"/>
			</g>
		</g>
	</g>
	<image width="60" height="150" xlink:href="F76B8BF8.png"  transform="matrix(0.24 0 0 0.24 156.0259 38.3306)">
	</image>
	<g>
		<g>
			<g>
				<path fill="#00374B" d="M186.764,59.786c-0.003-0.083-0.255-8.354,0.086-11.578l0.167,0.018
					c-0.341,3.212-0.088,11.471-0.086,11.554L186.764,59.786z"/>
			</g>
		</g>
	</g>
	<image width="60" height="150" xlink:href="F76B8BF9.png"  transform="matrix(0.24 0 0 0.24 179.665 38.3193)">
	</image>
	<g>
		<g>
			<g>
				<path fill="#00374B" d="M185.293,67.271c-0.002-0.013-0.25-1.236-1.223-2.411c-0.892-1.074-2.584-2.32-5.628-2.216l-0.127,0.71
					h-2.453l-0.129-0.643l-1.597-0.007l-0.128,0.642h-2.453l-0.129-0.709c-3.046-0.106-4.741,1.145-5.632,2.221
					c-0.97,1.175-1.217,2.392-1.218,2.404l-0.165-0.032c0.008-0.05,0.997-4.769,6.641-4.769c0.146,0,0.295,0.004,0.448,0.01
					l0.068,0.003l0.127,0.704h2.174l0.13-0.643l1.87,0.009l0.13,0.642h2.173l0.128-0.704l0.066-0.003
					c0.153-0.006,0.303-0.01,0.449-0.01c5.646,0,6.631,4.719,6.641,4.768L185.293,67.271z"/>
			</g>
		</g>
	</g>
	<g>
		<g>
			<g>
				<path fill="#00374B" d="M185.339,68.186c-0.038-0.019-3.747-1.844-6.514-1.562l-0.197,0.714h-2.7l-0.16-0.708l-1.665-0.006
					l-0.163,0.707h-2.7l-0.195-0.714c-2.766-0.286-6.477,1.542-6.514,1.561l-0.074-0.15c0.037-0.019,3.843-1.892,6.665-1.572
					l0.055,0.006l0.192,0.7h2.438l0.161-0.707l1.933,0.009l0.16,0.706h2.44l0.189-0.7l0.059-0.006
					c2.82-0.319,6.626,1.553,6.664,1.572L185.339,68.186z"/>
			</g>
		</g>
	</g>
	<image width="6" height="46" xlink:href="F76B8BFF.png"  transform="matrix(0.24 0 0 0.24 170.665 60.0835)">
	</image>
	<image width="3" height="46" xlink:href="F76B8BFA.png"  transform="matrix(0.24 0 0 0.24 173.3628 60.0029)">
	</image>
	<image width="6" height="46" xlink:href="F76B8BFB.png"  transform="matrix(0.24 0 0 0.24 177.7334 60.2549)">
	</image>
	<image width="3" height="46" xlink:href="F76B8BF6.png"  transform="matrix(0.24 0 0 0.24 175.7622 60.1743)">
	</image>
	<g>
		<g>
			<g>
				<path fill="#00374B" d="M173.105,118.944h-1.8c-0.69,0-1.104-0.723-1.169-0.847l-3.267-4.1l-14.709-16.764
					c-0.928-1.604-2.143-1.872-2.156-1.874l-4.619-1.431l-0.031-0.033c-1.855-1.988,0.265-6.547,0.356-6.74
					c2.152-4.43,3.063-8.533,3.072-8.574l0.023-0.106l4.574-0.966l1.141-3.422l1.64-1.443c2.303-2.303,7.474-4.437,7.694-4.527
					l0.063-0.012h1.863c1.025,0.063,4.086,2.412,4.621,2.826h1.739l7.375-0.021c0.533-0.414,3.596-2.764,4.61-2.827h1.907
					l0.029,0.013c0.22,0.089,5.392,2.224,7.701,4.534l1.633,1.437l1.14,3.421l4.576,0.966l0.021,0.106
					c0.01,0.041,0.921,4.146,3.071,8.572c0.093,0.195,2.213,4.753,0.357,6.742l-0.031,0.033l-4.604,1.427
					c-0.029,0.006-1.244,0.274-2.152,1.851l-14.733,16.796l-3.262,4.093c-0.064,0.125-0.479,0.848-1.169,0.848h-1.799
					L173.105,118.944z M145.568,93.636l4.519,1.4c0.038,0.007,1.355,0.288,2.345,2.004l14.694,16.743l3.301,4.148
					c0.004,0.006,0.35,0.678,0.878,0.678h1.798l5.505-0.021c0.532,0,0.876-0.671,0.877-0.679l0.02-0.029l3.276-4.112l14.72-16.776
					c0.971-1.689,2.287-1.97,2.343-1.981l4.501-1.396c1.647-1.843-0.423-6.289-0.445-6.335c-1.974-4.064-2.911-7.863-3.071-8.539
					l-4.551-0.962l-1.174-3.518l-1.571-1.383c-2.181-2.181-7.133-4.274-7.57-4.456h-1.828c-0.791,0.049-3.487,2.032-4.458,2.792
					l-0.047,0.035h-1.855l-7.49,0.021l-0.044-0.036c-0.972-0.759-3.669-2.742-4.469-2.792l-1.819,0.001
					c-0.435,0.181-5.388,2.275-7.561,4.449l-1.582,1.39l-1.172,3.519l-4.55,0.961c-0.16,0.677-1.099,4.475-3.072,8.541
					C145.992,87.345,143.922,91.793,145.568,93.636z"/>
			</g>
		</g>
	</g>
	<g>
		<g>
			<g>
				<polygon fill="#00374B" points="169.824,82.225 160.613,75.554 156.122,75.554 156.122,73.029 156.289,73.029 156.289,75.387 
					160.667,75.387 169.79,81.994 170.451,81.138 170.451,71.229 170.618,71.229 170.618,81.195 				"/>
			</g>
		</g>
	</g>
	<g>
		<g>
			<g>
				
					<rect x="169.026" y="81.888" transform="matrix(0.8151 0.5793 -0.5793 0.8151 79.4048 -82.6035)" fill="#00374B" width="0.168" height="2.413"/>
			</g>
		</g>
	</g>
	<g>
		<g>
			<g>
				<polygon fill="#00374B" points="167.729,83.798 166.313,81.094 163.01,78.553 160.705,78.574 160.703,78.407 163.067,78.385 
					166.454,81 167.878,83.72 				"/>
			</g>
		</g>
	</g>
	<g>
		<g>
			<g>
				
					<rect x="166.145" y="83.753" transform="matrix(0.8289 0.5594 -0.5594 0.8289 77.8894 -77.8677)" fill="#00374B" width="0.167" height="9.265"/>
			</g>
		</g>
	</g>
	<g>
		<g>
			<g>
				<path fill="#00374B" d="M166.992,95.323l-0.112-0.125l3.02-2.698c0.033-0.021,1.687-0.86,3.063,0.188l-0.101,0.134
					c-1.292-0.984-2.852-0.193-2.866-0.186L166.992,95.323z"/>
			</g>
		</g>
	</g>
	<image width="61" height="29" xlink:href="F76B8BF7.png"  transform="matrix(0.24 0 0 0.24 156.144 74.4868)">
	</image>
	<g>
		<g>
			<g>
				
					<rect x="159.996" y="82.744" transform="matrix(0.787 0.617 -0.617 0.787 86.1448 -83.8627)" fill="#00374B" width="9.06" height="0.167"/>
			</g>
		</g>
	</g>
	<g>
		<g>
			<g>
				
					<rect x="156.67" y="87.98" transform="matrix(0.7724 0.6352 -0.6352 0.7724 92.6165 -82.2952)" fill="#00374B" width="8.9" height="0.168"/>
			</g>
		</g>
	</g>
	<image width="40" height="20" xlink:href="F76B8C08.png"  transform="matrix(0.24 0 0 0.24 158.1943 85.3193)">
	</image>
	<image width="1" height="4" xlink:href="F76B8C0B.png"  transform="matrix(0.24 0 0 0.24 164.5376 89.9009)">
	</image>
	<image width="8" height="260" xlink:href="C28B3B27.png"  transform="matrix(0.24 0 0 0.24 171.2637 71.1812)">
	</image>
	<image width="86" height="108" xlink:href="C28B3B25.png"  transform="matrix(0.24 0 0 0.24 148.6011 83.6226)">
	</image>
	<image width="20" height="41" xlink:href="C28B3B23.png"  transform="matrix(0.24 0 0 0.24 156.7915 76.1816)">
	</image>
	<image width="73" height="64" xlink:href="C28B3B3D.png"  transform="matrix(0.24 0 0 0.24 150.9038 84.9165)">
	</image>
	<g>
		<g>
			<g>
				<path fill="#00374B" d="M158.979,104.424l-0.148-0.08l1.853-3.451v-7.142c-3.083-3.199-9.451-8.385-9.903-8.751l-4.017,0.19
					l-0.006-0.167l4.079-0.194l0.025,0.021c0.067,0.055,6.788,5.503,9.966,8.81l0.023,0.024l-0.008,7.27L158.979,104.424z"/>
			</g>
		</g>
	</g>
	<g>
		<g>
			<g>
				<polygon fill="#00374B" points="144.736,91.12 142.283,90.629 144.761,84.938 147.749,82.599 147.958,82.863 145.035,85.15 
					142.756,90.382 144.801,90.791 				"/>
			</g>
		</g>
	</g>
	<g>
		<g>
			<g>
				<path fill="#00374B" d="M169.852,121.364l-3.618-3.952c-0.108-0.166-0.224-0.25-0.368-0.282
					c-0.319-0.069-0.679,0.13-0.754,0.173l-0.922,0.913c-0.324,0.184-0.607,0.211-0.842,0.081c-0.397-0.221-0.479-0.812-0.496-1.002
					l-6.359-8.689c-0.243,0.166-0.487,0.221-0.725,0.166c-0.525-0.125-0.799-0.761-0.81-0.788l-0.029-0.07l1.388-2.841
					c-0.514-0.451-1.224-1.433-1.911-2.386c-0.472-0.65-0.913-1.265-1.216-1.594c-0.051-0.054-0.111-0.112-0.178-0.17
					c-0.903-0.795-3.09-1.838-3.113-1.848l-1.739-1.088l-2.504-3.855l0.281-0.183l2.484,3.824l1.64,1.009
					c0.075,0.034,2.234,1.064,3.173,1.889c0.077,0.067,0.144,0.133,0.203,0.195c0.315,0.343,0.766,0.966,1.242,1.625
					c0.689,0.954,1.469,2.035,1.949,2.404l0.11,0.083l-1.438,2.942c0.074,0.14,0.266,0.459,0.547,0.525
					c0.174,0.041,0.366-0.028,0.571-0.204l0.137-0.118l6.625,9.054l0.003,0.051c0.009,0.169,0.084,0.642,0.328,0.776
					c0.121,0.067,0.289,0.044,0.496-0.069l0.911-0.904c0.022-0.014,0.53-0.337,1.02-0.228c0.234,0.051,0.421,0.189,0.561,0.407
					l3.304,3.606l1.362-2.129l0.281,0.181L169.852,121.364z"/>
			</g>
		</g>
	</g>
	<g>
		<g>
			<g>
				
					<rect x="165.953" y="113.834" transform="matrix(0.8239 0.5668 -0.5668 0.8239 94.7975 -73.7343)" fill="#00374B" width="0.167" height="3.653"/>
			</g>
		</g>
	</g>
	<g>
		<g>
			<g>
				
					<rect x="164.314" y="111.927" transform="matrix(0.8744 0.4851 -0.4851 0.8744 76.3194 -65.3472)" fill="#00374B" width="0.168" height="5.667"/>
			</g>
		</g>
	</g>
	<g>
		<g>
			<g>
				
					<rect x="157.696" y="104.318" transform="matrix(0.8303 0.5573 -0.5573 0.8303 86.1571 -69.8572)" fill="#00374B" width="0.17" height="4.438"/>
			</g>
		</g>
	</g>
	<g>
		<g>
			<g>
				
					<rect x="156.957" y="103.167" transform="matrix(0.8879 0.46 -0.46 0.8879 65.5694 -60.5476)" fill="#00374B" width="0.168" height="2.242"/>
			</g>
		</g>
	</g>
	<image width="5" height="9" xlink:href="C28B3B3F.png"  transform="matrix(0.24 0 0 0.24 153.2368 98.9546)">
	</image>
	<image width="9" height="3" xlink:href="C28B3B22.png"  transform="matrix(0.24 0 0 0.24 143.0825 88.4956)">
	</image>
	<image width="9" height="19" xlink:href="C28B3B21.png"  transform="matrix(0.24 0 0 0.24 148.311 94.6274)">
	</image>
	<g>
		<g>
			<g>
				<polygon fill="#00374B" points="180.09,82.205 179.297,81.175 179.297,71.208 179.464,71.208 179.464,81.117 180.125,81.973 
					189.248,75.366 193.623,75.366 193.623,73.008 193.792,73.008 193.792,75.534 189.301,75.534 				"/>
			</g>
		</g>
	</g>
	<g>
		<g>
			<g>
				<path fill="#00374B" d="M166.532,113.171l-0.134-0.099l2.85-3.873l-1.322-12.829l-11.517-10.665h-2.867l-2.51-2.027l0.019-0.057
					l2.122-5.837h6.725l13.164,9.765v12.421c0,0.003,0.042,0.688,0.429,0.688l2.933-0.021c0.388,0,0.43-0.685,0.43-0.691V87.528
					l13.164-9.765h6.726l0.021,0.056l2.119,5.839l-2.511,2.026h-2.866l-11.518,10.665l-1.321,12.83l2.85,3.872l-0.135,0.1
					l-2.89-3.924l0.005-0.032l1.33-12.924l0.024-0.022l11.589-10.731h2.873l2.372-1.913l-2.059-5.672h-6.554l-13.051,9.682V99.95
					c-0.001,0.039-0.054,0.854-0.599,0.854l-2.933,0.021c-0.543,0-0.596-0.816-0.597-0.851V87.634l-13.051-9.682h-6.553l-2.06,5.671
					l2.372,1.915h2.874l0.024,0.023l11.588,10.729l1.335,12.958L166.532,113.171z"/>
			</g>
		</g>
	</g>
	<g>
		<g>
			<g>
				
					<rect x="179.596" y="82.991" transform="matrix(0.577 0.8167 -0.8167 0.577 144.3299 -112.5295)" fill="#00374B" width="2.413" height="0.166"/>
			</g>
		</g>
	</g>
	<g>
		<g>
			<g>
				<polygon fill="#00374B" points="182.185,83.777 182.036,83.699 183.483,80.952 186.847,78.364 189.211,78.385 189.21,78.553 
					186.904,78.533 183.601,81.074 				"/>
			</g>
		</g>
	</g>
	<g>
		<g>
			<g>
				
					<rect x="179.051" y="88.28" transform="matrix(0.5549 0.8319 -0.8319 0.5549 155.2708 -113.4797)" fill="#00374B" width="9.268" height="0.169"/>
			</g>
		</g>
	</g>
	<g>
		<g>
			<g>
				<path fill="#00374B" d="M182.923,95.302l-3.021-2.699l0,0c-0.005,0-1.563-0.783-2.85,0.197l-0.101-0.133
					c1.376-1.049,3.028-0.209,3.045-0.201l3.038,2.71L182.923,95.302z"/>
			</g>
		</g>
	</g>
	<image width="61" height="29" xlink:href="C28B3B26.png"  transform="matrix(0.24 0 0 0.24 179.3301 74.4663)">
	</image>
	<g>
		<g>
			<g>
				
					<rect x="185.304" y="78.275" transform="matrix(0.6176 0.7865 -0.7865 0.6176 136.0278 -114.1431)" fill="#00374B" width="0.168" height="9.062"/>
			</g>
		</g>
	</g>
	<g>
		<g>
			<g>
				
					<rect x="188.708" y="83.592" transform="matrix(0.6388 0.7694 -0.7694 0.6388 135.9412 -113.4538)" fill="#00374B" width="0.168" height="8.902"/>
			</g>
		</g>
	</g>
	<image width="40" height="20" xlink:href="C28B3B20.png"  transform="matrix(0.24 0 0 0.24 182.2646 85.2983)">
	</image>
	<image width="1" height="4" xlink:href="C28B3B2E.png"  transform="matrix(0.24 0 0 0.24 185.166 89.8804)">
	</image>
	<image width="8" height="260" xlink:href="C28B3B46.png"  transform="matrix(0.24 0 0 0.24 176.8271 71.1602)">
	</image>
	<image width="86" height="108" xlink:href="C28B3B45.png"  transform="matrix(0.24 0 0 0.24 180.7344 83.6016)">
	</image>
	<image width="20" height="41" xlink:href="C28B3B42.png"  transform="matrix(0.24 0 0 0.24 188.3584 76.1597)">
	</image>
	<image width="73" height="64" xlink:href="C28B3B4D.png"  transform="matrix(0.24 0 0 0.24 181.5088 84.896)">
	</image>
	<g>
		<g>
			<g>
				<path fill="#00374B" d="M190.936,104.402l-1.874-3.508v-7.23l0.023-0.025c3.179-3.306,9.899-8.754,9.968-8.809l0.024-0.02
					l0.033,0.001l4.046,0.193l-0.007,0.167l-4.017-0.191c-0.452,0.367-6.821,5.551-9.902,8.751v7.141l1.853,3.452L190.936,104.402z"
					/>
			</g>
		</g>
	</g>
	<g>
		<g>
			<g>
				<polygon fill="#00374B" points="205.178,91.099 205.111,90.77 207.156,90.36 204.879,85.13 201.957,82.842 202.164,82.578 
					205.152,84.917 205.17,84.956 207.631,90.608 				"/>
			</g>
		</g>
	</g>
	<g>
		<g>
			<g>
				<path fill="#00374B" d="M180.062,121.343l-1.595-2.497l0.283-0.181l1.358,2.128l3.322-3.629
					c0.122-0.196,0.313-0.333,0.545-0.383c0.493-0.108,0.999,0.213,1.021,0.227l0.028,0.022l0.881,0.883
					c0.21,0.113,0.376,0.136,0.497,0.068c0.243-0.135,0.319-0.618,0.327-0.776l0.002-0.05l0.03-0.041l6.597-9.013l0.137,0.118
					c0.205,0.176,0.397,0.245,0.572,0.203c0.278-0.066,0.474-0.385,0.547-0.525l-1.438-2.941l0.107-0.083
					c0.479-0.37,1.259-1.449,1.945-2.401c0.479-0.661,0.929-1.284,1.246-1.628c0.059-0.063,0.127-0.129,0.203-0.196
					c0.939-0.824,3.097-1.854,3.189-1.898l1.622-0.999l2.485-3.823l0.282,0.182l-2.559,3.907l-1.671,1.028
					c-0.037,0.019-2.224,1.063-3.129,1.856c-0.066,0.06-0.127,0.116-0.178,0.171c-0.304,0.328-0.748,0.944-1.22,1.596
					c-0.685,0.95-1.395,1.932-1.906,2.382l1.389,2.841l-0.03,0.07c-0.011,0.027-0.286,0.663-0.81,0.787
					c-0.238,0.057-0.481,0-0.724-0.165l-6.36,8.689c-0.016,0.19-0.099,0.783-0.496,1.003c-0.232,0.13-0.516,0.102-0.841-0.081
					l-0.037-0.028l-0.886-0.886c-0.11-0.065-0.773-0.433-1.104,0.086L180.062,121.343z"/>
			</g>
		</g>
	</g>
	<g>
		<g>
			<g>
				
					<rect x="182.05" y="115.555" transform="matrix(0.5629 0.8265 -0.8265 0.5629 175.957 -101.433)" fill="#00374B" width="3.654" height="0.169"/>
			</g>
		</g>
	</g>
	<g>
		<g>
			<g>
				
					<rect x="182.682" y="114.656" transform="matrix(0.4876 0.8731 -0.8731 0.4876 195.2442 -103.1744)" fill="#00374B" width="5.666" height="0.169"/>
			</g>
		</g>
	</g>
	<g>
		<g>
			<g>
				
					<rect x="189.915" y="106.431" transform="matrix(0.5648 0.8252 -0.8252 0.5648 171.5107 -112.1975)" fill="#00374B" width="4.437" height="0.168"/>
			</g>
		</g>
	</g>
	<g>
		<g>
			<g>
				
					<rect x="191.752" y="104.183" transform="matrix(0.4589 0.8885 -0.8885 0.4589 197.0141 -114.9456)" fill="#00374B" width="2.241" height="0.168"/>
			</g>
		</g>
	</g>
	<image width="5" height="9" xlink:href="C28B3B4E.png"  transform="matrix(0.24 0 0 0.24 195.6865 98.9336)">
	</image>
	<image width="9" height="3" xlink:href="C28B3B4C.png"  transform="matrix(0.24 0 0 0.24 204.6787 88.4741)">
	</image>
	<image width="9" height="19" xlink:href="C28B3B43.png"  transform="matrix(0.24 0 0 0.24 199.4785 94.6055)">
	</image>
	<g>
		<g>
			<g>
				
					<rect x="152.933" y="75.362" transform="matrix(0.0757 0.9971 -0.9971 0.0757 217.4714 -82.2494)" fill="#00374B" width="0.335" height="1.633"/>
			</g>
		</g>
	</g>
	<g>
		<g>
			<g>
				<polygon fill="#00374B" points="145.986,79.546 145.864,79.233 151.861,76.882 152.901,74.543 146.836,75.765 146.771,75.436 
					153.471,74.086 152.112,77.144 				"/>
			</g>
		</g>
	</g>
	<g>
		<g>
			<g>
				<path fill="#00374B" d="M131.703,99.742L131.703,99.742c-1.816,0-2.006-2.069-2.008-2.091l-0.065-5.345
					c0.129-7.761,2.646-10.177,2.753-10.277l6.655-5.751l0.043-0.008l7.111-1.456l1.879,2.681l-0.158,0.092
					c-3.072,1.785-5.295,10.644-5.317,10.732l-0.03,0.121l-0.125,0.006c-2.607,0.136-4.17,1.271-4.408,1.456
					c-0.89,2.219-6.094,7.561-6.314,7.789c-0.29,0.288-0.607,0.699-0.499,1.027c0.133,0.396,0.844,0.58,1.107,0.617l0.014,0.33
					C132.118,99.716,131.902,99.742,131.703,99.742z M139.191,76.59l-6.584,5.69c-0.02,0.02-2.516,2.437-2.641,10.028l0.064,5.328
					c0.005,0.057,0.146,1.553,1.393,1.749c-0.23-0.128-0.437-0.308-0.522-0.56c-0.13-0.394,0.062-0.855,0.579-1.37
					c0.052-0.054,5.444-5.588,6.258-7.715l0.014-0.041l0.034-0.029c0.068-0.056,1.657-1.368,4.515-1.551
					c0.284-1.103,2.342-8.79,5.291-10.726l-1.548-2.207L139.191,76.59z"/>
			</g>
		</g>
	</g>
	<g>
		<g>
			<g>
				<polygon fill="#00374B" points="145.164,80.738 140.556,76.771 139.1,76.517 139.127,76.351 140.63,76.613 140.647,76.628 
					145.274,80.611 				"/>
			</g>
		</g>
	</g>
	<g>
		<g>
			<g>
				<path fill="#00374B" d="M129.591,94.106l-0.1-0.135c0.946-0.693,6.992-7.818,7.053-7.89c1.624-1.25,1.27-3.25,1.266-3.271
					c-0.384-1.41-0.014-3.171,0.001-3.245c0.132-0.922,2.938-2.617,3.058-2.689l0.087,0.144c-0.795,0.476-2.88,1.869-2.981,2.574
					c-0.005,0.024-0.376,1.802-0.001,3.179c0.005,0.027,0.375,2.128-1.317,3.43C136.423,86.484,130.551,93.403,129.591,94.106z"/>
			</g>
		</g>
	</g>
	<image width="68" height="74" xlink:href="C28B3B44.png"  transform="matrix(0.24 0 0 0.24 129.6284 79.2969)">
	</image>
	<image width="61" height="34" xlink:href="C28B3B47.png"  transform="matrix(0.24 0 0 0.24 131.7061 75.1309)">
	</image>
	<image width="12" height="66" xlink:href="C28B3B7B.png"  transform="matrix(0.24 0 0 0.24 132.3008 82.1343)">
	</image>
	<g>
		<g>
			<g>
				<path fill="#00374B" d="M132.937,100.219l-1.475-2.28l0.141-0.091l1.353,2.09c0.612-0.708,4.608-5.271,6.554-5.969l3.776-5.631
					l1.525-3.308c-0.042-0.365-0.42-4.478,3.857-5.594l0.043,0.162c-4.312,1.125-3.737,5.39-3.73,5.433l0.003,0.024l-1.552,3.364
					l-3.813,5.689l-0.028,0.009c-2.01,0.691-6.535,5.961-6.582,6.015L132.937,100.219z"/>
			</g>
		</g>
	</g>
	<g>
		<g>
			<g>
				<rect x="145.668" y="81.619" fill="#00374B" width="2.505" height="0.168"/>
			</g>
		</g>
	</g>
	<g>
		<g>
			<g>
				<rect x="145.026" y="83.482" fill="#00374B" width="1.541" height="0.168"/>
			</g>
		</g>
	</g>
	<g>
		<g>
			<g>
				<path fill="#00374B" d="M146.984,96.698c-4.09,0-7.437-2.566-7.47-2.592l0.102-0.132c0.034,0.026,3.338,2.557,7.368,2.557
					c0.095,0,0.192-0.001,0.287-0.004l0.006,0.168C147.179,96.696,147.081,96.698,146.984,96.698z"/>
			</g>
		</g>
	</g>
	<g>
		<g>
			<g>
				<path fill="#00374B" d="M142.307,95.525l-0.086-0.144c0.01-0.005,0.994-0.606,1.192-1.441c0.081-0.343,0.016-0.685-0.193-1.012
					c-0.012-0.029-0.822-1.796-1.956-1.379l-0.057-0.158c1.279-0.472,2.126,1.379,2.162,1.458c0.229,0.356,0.3,0.74,0.208,1.13
					C143.362,94.882,142.349,95.5,142.307,95.525z"/>
			</g>
		</g>
	</g>
	<g>
		<g>
			<g>
				<path fill="#00374B" d="M143.947,96.178l-0.027-0.165c0.072-0.013,1.776-0.333,1.472-2.218l0.167-0.026
					C145.889,95.819,143.967,96.175,143.947,96.178z"/>
			</g>
		</g>
	</g>
	<g>
		<g>
			<g>
				<path fill="#00374B" d="M146.209,96.689l-0.053-0.16c0.028-0.009,0.696-0.245,0.522-0.993l0.163-0.038
					C147.05,96.398,146.217,96.687,146.209,96.689z"/>
			</g>
		</g>
	</g>
	<image width="43" height="135" xlink:href="C28B3B69.png"  transform="matrix(0.24 0 0 0.24 129.0874 91.2261)">
	</image>
	<g>
		<g>
			<g>
				<path fill="#00374B" d="M133.596,142.18c-0.8,0-1.709-0.184-2.709-0.554c-1.767-0.653-3.227-1.669-3.241-1.679
					c-1.604-0.844-1.767-8.333-1.784-9.559c-1.185-0.881-0.704-3.519-0.683-3.632l0.022-0.057c0.92-1.508,3.216-8.546,3.238-8.617
					c0.844-3.123,3.8-15.54,3.83-15.664c0.646-2.356-0.035-2.763-0.041-2.768l0.146-0.302c0.098,0.046,0.944,0.521,0.221,3.152
					c-0.028,0.119-2.988,12.542-3.834,15.677c-0.096,0.297-2.307,7.075-3.257,8.669c-0.049,0.289-0.413,2.65,0.617,3.312
					l0.075,0.048l0.002,0.091c0.023,2.379,0.36,8.698,1.622,9.363c0.075,0.05,5.67,3.922,8.196,1.232
					c0.038-0.031,1.588-1.252,1.753-5.803c0.019-0.13,0.44-2.696,1.224-3.598c0.162-0.359,2.176-4.83,3.153-7.841l0.021-0.044
					c0.036-0.051,3.588-5.225,4.088-7.312l0.015-0.041c0.039-0.072,3.89-7.274,2.555-11.695c-0.049-0.248-1.12-5.709-1.034-7.339
					l0.334,0.018c-0.083,1.588,1.014,7.184,1.026,7.241c1.349,4.466-2.306,11.413-2.576,11.916c-0.521,2.113-3.84,6.975-4.117,7.382
					c-1.023,3.143-3.15,7.83-3.17,7.876l-0.028,0.043c-0.73,0.81-1.154,3.401-1.159,3.426c-0.169,4.718-1.794,5.969-1.864,6.021
					C135.594,141.833,134.699,142.18,133.596,142.18z"/>
			</g>
		</g>
	</g>
	<g>
		<g>
			<g>
				<path fill="#00374B" d="M146.925,115.24l-0.163-0.041c0.714-2.877,0.421-5.205-0.87-6.916c-2.128-2.822-6.291-3.001-6.332-3.003
					c-5.285-0.922-9.138,5.885-9.177,5.954l-0.146-0.081c0.037-0.07,3.945-6.981,9.34-6.04c0.031,0.001,4.272,0.183,6.449,3.068
					C147.35,109.936,147.652,112.311,146.925,115.24z"/>
			</g>
		</g>
	</g>
	<g>
		<g>
			<g>
				<path fill="#00374B" d="M132.623,137.627c-0.204,0-0.4-0.022-0.587-0.069c-0.261-0.009-4.701-0.273-4.764-7.665l-0.257-3.882
					l0.02-0.025l6.444-8.113c0.042-0.029,1.08-0.722,2.953-0.399c0.105,0.024,2.45,0.589,3.617,1.606
					c0.072,0.007,0.228,0.043,0.376,0.221c0.423,0.505,0.698,1.987-0.392,6.18c-0.469,2.221-1.078,5.672-0.825,6.059l-0.139,0.092
					c-0.372-0.57,0.68-5.615,0.802-6.189c1.13-4.346,0.75-5.645,0.426-6.033c-0.14-0.168-0.268-0.162-0.274-0.163l-0.035,0.003
					l-0.027-0.023c-1.128-1.002-3.537-1.582-3.563-1.588c-1.708-0.294-2.707,0.299-2.814,0.367l-6.396,8.06l0.255,3.824
					c0.062,7.408,4.561,7.502,4.607,7.503l0.021,0.002c2.179,0.563,5.796-2.647,5.833-2.68l0.114,0.125
					C137.875,134.962,134.868,137.627,132.623,137.627z"/>
			</g>
		</g>
	</g>
	<image width="69" height="170" xlink:href="C28B3B67.png"  transform="matrix(0.24 0 0 0.24 132.0571 101.2842)">
	</image>
	<image width="32" height="79" xlink:href="C28B3B59.png"  transform="matrix(0.24 0 0 0.24 126.4575 117.7773)">
	</image>
	<image width="20" height="9" xlink:href="C28B3B5B.png"  transform="matrix(0.24 0 0 0.24 133.2793 123.1108)">
	</image>
	<g>
		<g>
			<g>
				<path fill="#00374B" d="M122.563,163.708c-0.858,0-1.754-0.19-2.669-0.57c-1.348-0.561-2.245-1.323-2.283-1.355l-0.058-0.05
					v-0.078c0-3.649-2.072-5.771-2.093-5.792l-0.06-0.061l0.44-3.081c0.679-3.306,1.958-14.13,1.971-14.238
					c1.088-4.297,4.736-11.17,4.772-11.239c0.463-0.903,1.034-1.433,1.694-1.573c0.832-0.175,1.487,0.342,1.515,0.364l-0.21,0.261
					c-0.006-0.004-0.561-0.441-1.239-0.295c-0.554,0.119-1.047,0.589-1.461,1.398c-0.038,0.071-3.666,6.909-4.742,11.145
					c-0.009,0.087-1.289,10.925-1.967,14.235l-0.416,2.908c0.355,0.383,2.105,2.447,2.132,5.888
					c0.472,0.376,3.708,2.805,6.827,1.322c0.469-0.764,5.762-9.318,7.703-10.868c0.36-0.518,7.331-10.627,5.798-13.774l-0.601-1.287
					l0.304-0.141l0.6,1.285c1.65,3.388-5.534,13.694-5.841,14.13l-0.034,0.037c-1.924,1.505-7.614,10.743-7.672,10.835l-0.024,0.042
					l-0.045,0.021C124.177,163.53,123.388,163.708,122.563,163.708z"/>
			</g>
		</g>
	</g>
	<image width="8" height="19" xlink:href="C28B3B58.png"  transform="matrix(0.24 0 0 0.24 124.1719 125.9658)">
	</image>
	<g>
		<g>
			<g>
				<path fill="#00374B" d="M117.61,142.374l-0.04-0.162c0.019-0.006,1.958-0.512,2.715-1.191l3.261-6.845
					c0.019-0.338,0.312-5.655,0.131-6.384c-0.011-0.072-0.262-1.624,0.443-1.835l0.047,0.16c-0.468,0.141-0.394,1.233-0.327,1.641
					c0.192,0.768-0.114,6.212-0.127,6.443l-0.009,0.032l-3.296,6.9C119.633,141.847,117.691,142.353,117.61,142.374z"/>
			</g>
		</g>
	</g>
	<g>
		<g>
			<g>
				<path fill="#00374B" d="M116.381,150.683l-0.15-0.074c2.834-5.859,1.31-7.859,1.293-7.879l0.131-0.104
					C117.723,142.709,119.262,144.728,116.381,150.683z"/>
			</g>
		</g>
	</g>
	<g>
		<g>
			<g>
				<path fill="#00374B" d="M129.77,154.178c-1.898,0.001-2.924-1.864-2.938-1.887l-4.579-9.74l3.806-8.773l0.154,0.067
					l-3.774,8.704l4.544,9.667c0.003,0.002,0.355,0.649,1.017,1.161c0.88,0.682,1.865,0.817,2.924,0.402l0.062,0.157
					C130.546,154.107,130.143,154.178,129.77,154.178z"/>
			</g>
		</g>
	</g>
	<g>
		<g>
			<g>
				<path fill="#00374B" d="M125.393,160.099c-4.312,0.001-5.178-4.441-5.186-4.49c-0.819-3.901-1.75-4.5-1.759-4.506
					c-0.09-0.085-0.18-0.117-0.291-0.106c-0.784,0.067-2.155,1.992-2.168,2.011l-0.139-0.097c0.059-0.082,1.431-2.008,2.293-2.082
					c0.16-0.015,0.297,0.035,0.407,0.143c0.023,0.011,0.986,0.63,1.821,4.604c0.04,0.213,1.009,5.178,6.265,4.24l0.029,0.166
					C126.211,160.062,125.787,160.099,125.393,160.099z"/>
			</g>
		</g>
	</g>
	<g>
		<g>
			<g>
				<polygon fill="#00374B" points="118.888,151.255 118.733,151.193 120.035,147.871 124.452,147.158 124.479,147.323 
					120.157,148.022 				"/>
			</g>
		</g>
	</g>
	<g>
		<g>
			<g>
				<polygon fill="#00374B" points="120.808,151.005 120.015,147.968 120.178,147.925 120.926,150.8 122.49,150.396 121.495,147.85 
					121.652,147.788 122.714,150.511 				"/>
			</g>
		</g>
	</g>
	<image width="42" height="147" xlink:href="C28B3B5F.png"  transform="matrix(0.24 0 0 0.24 112.5371 142.5156)">
	</image>
	<image width="50" height="87" xlink:href="C28B3B5A.png"  transform="matrix(0.24 0 0 0.24 119.3081 141.6265)">
	</image>
	<g>
		<g>
			<g>
				<path fill="#00374B" d="M111.703,178.501c-0.014,0-0.03,0-0.045-0.001c-0.452-0.018-0.68-0.303-0.691-0.314l-0.028-0.037
					l-0.005-0.047c-0.639-5.622,1.97-15.639,1.997-15.74c0.123-1.595,2.669-6.264,2.777-6.462l0.295,0.161
					c-0.027,0.047-2.619,4.805-2.744,6.357c-0.031,0.129-2.606,10.021-1.998,15.59c0.056,0.05,0.195,0.15,0.418,0.156
					c0.298,0.002,0.784-0.143,1.482-0.903l2.118-2.375c0.02-0.02,1.027-1.025,0.541-3.583l-0.459-3.92l1.887-3.579
					c0.016-0.024,0.546-0.831,0.306-2.468l0.331-0.049c0.264,1.781-0.324,2.654-0.349,2.689l-1.829,3.472l0.445,3.804
					c0.522,2.744-0.584,3.823-0.631,3.868l-2.11,2.366C112.791,178.16,112.217,178.501,111.703,178.501z"/>
			</g>
		</g>
	</g>
	<g>
		<g>
			<g>
				<path fill="#00374B" d="M115.453,167.436c-0.012-0.047-1.226-4.717-2.519-5.211l0.059-0.156c1.374,0.524,2.571,5.13,2.623,5.326
					L115.453,167.436z"/>
			</g>
		</g>
	</g>
	<g>
		<g>
			<g>
				<path fill="#00374B" d="M116.43,189.264c-0.479,0-0.856-0.307-0.875-0.322c-2.358-1.835-1.08-12.545-1.024-13.001l0.333-0.007
					c0.121,0.694,0.757,0.882,1.098,0.934l-0.283-1.246l0.025-0.052c0.215-0.46,0.557-0.746,1.014-0.848
					c1.396-0.314,3.451,1.239,3.863,1.567c1.207-0.422,1.34-2.689,1.34-2.712l0.003-0.057l0.037-0.043
					c1.053-1.24,2.075-5.415,2.085-5.456c0.134-0.872-0.036-1.567-0.513-2.054c-1.108-1.133-3.518-0.829-3.542-0.825
					c-0.018,0-0.037-0.002-0.055-0.002c-2.594,0-3.905,4.148-3.918,4.19l-0.322-0.099c0.056-0.184,1.417-4.483,4.277-4.424
					c0.079-0.012,2.574-0.329,3.799,0.924c0.556,0.567,0.758,1.358,0.604,2.353c-0.044,0.187-1.031,4.22-2.121,5.565
					c-0.03,0.394-0.255,2.603-1.664,2.989l-0.083,0.022l-0.066-0.056c-0.023-0.02-2.284-1.863-3.65-1.556
					c-0.337,0.076-0.586,0.277-0.758,0.613l0.354,1.56h-0.209c-0.369,0-1.008-0.145-1.379-0.622
					c-0.24,2.341-0.936,10.599,0.967,12.08c0.008,0.006,0.449,0.362,0.903,0.209c0.412-0.139,0.741-0.668,0.952-1.531
					c0.043-0.926-0.054-2.571-0.513-2.906l-0.085-0.063l0.276-1.581l0.329,0.057l-0.24,1.386c0.668,0.66,0.576,2.895,0.563,3.156
					c-0.248,1.027-0.642,1.623-1.179,1.8C116.654,189.247,116.54,189.264,116.43,189.264z"/>
			</g>
		</g>
	</g>
	<g>
		<g>
			<g>
				<path fill="#00374B" d="M126.771,176.147c-1.075,0-2.545-1.287-2.61-1.345l-0.026-0.028c-0.772-1.069-2.024-1.024-2.039-1.023
					l-0.095,0.004l-0.054-0.079c-0.08-0.12-1.976-2.901-5.66-1.795l-0.094-0.322c3.579-1.072,5.626,1.386,5.98,1.856
					c0.332,0.007,1.463,0.109,2.224,1.146c0.46,0.405,1.77,1.378,2.542,1.234c0.019-0.002,0.7-0.083,0.973-0.644
					c0.283-0.575,0.063-1.488-0.636-2.638l-2.409-3.317l0.006-0.065c0.006-0.048,0.522-4.881-0.189-6.018l0.285-0.178
					c0.734,1.172,0.308,5.556,0.246,6.169l2.339,3.223c0.782,1.286,1,2.284,0.658,2.975c-0.361,0.725-1.19,0.821-1.226,0.826
					C126.918,176.142,126.846,176.147,126.771,176.147z"/>
			</g>
		</g>
	</g>
	<g>
		<g>
			<g>
				<path fill="#00374B" d="M119.58,185.949c-0.276,0-0.538-0.171-0.776-0.511c-0.255-0.397-1.505-2.373-1.572-2.835
					c-0.027-0.144-0.745-3.681-0.773-5.51l-0.292-0.147l0.15-0.3l0.477,0.24v0.104c0,1.761,0.761,5.519,0.768,5.556
					c0.046,0.312,0.957,1.824,1.518,2.706c0.178,0.251,0.354,0.375,0.527,0.361c0.277-0.021,0.53-0.406,0.595-0.538l0.022-0.03
					c0.756-0.933-0.33-3.009-0.34-3.029l-0.018-0.054c-0.451-3.095,0.485-5.451,0.524-5.549l0.311,0.126
					c-0.008,0.024-0.935,2.36-0.507,5.346c0.14,0.269,1.134,2.303,0.3,3.356c-0.056,0.109-0.378,0.671-0.862,0.707
					C119.613,185.949,119.598,185.949,119.58,185.949z"/>
			</g>
		</g>
	</g>
	<g>
		<g>
			<g>
				<path fill="#00374B" d="M114.743,191.146c-0.008,0-0.02,0-0.03-0.003c-0.497-0.021-0.751-0.626-0.806-0.771
					c-1.669-2.142-0.579-12.878-0.532-13.335l0.335,0.034c-0.012,0.111-1.131,11.133,0.475,13.112l0.031,0.052
					c0.053,0.156,0.247,0.561,0.514,0.573c0.195-0.006,0.642-0.197,1.293-1.679l0.308,0.135
					C115.773,190.529,115.253,191.146,114.743,191.146z"/>
			</g>
		</g>
	</g>
	<g>
		<g>
			<g>
				<path fill="#00374B" d="M120.127,178.158c-2.294-0.991-3.31-0.212-3.32-0.203l-0.106-0.131c0.045-0.036,1.096-0.856,3.492,0.18
					L120.127,178.158z"/>
			</g>
		</g>
	</g>
	<g>
		<g>
			<g>
				<path fill="#00374B" d="M117.517,182.899l-0.11-0.126c0.058-0.05,1.396-1.184,2.642-0.918l-0.034,0.163
					C118.85,181.776,117.53,182.889,117.517,182.899z"/>
			</g>
		</g>
	</g>
	<g>
		<g>
			<g>
				<path fill="#00374B" d="M113.239,186.45l-0.163-0.031c0.122-0.617,1.172-0.945,1.422-1.017c0.264-1.158,2.605-1.171,2.707-1.171
					v0.167c-0.023,0-2.373,0.014-2.552,1.087l-0.01,0.054l-0.052,0.014C114.579,185.556,113.357,185.867,113.239,186.45z"/>
			</g>
		</g>
	</g>
	<g>
		<g>
			<g>
				<path fill="#00374B" d="M116.968,180.403c-0.012-0.009-1.381-0.801-2.354-0.193l-0.088-0.143c1.06-0.663,2.469,0.156,2.527,0.19
					L116.968,180.403z"/>
			</g>
		</g>
	</g>
	<g>
		<g>
			<g>
				<path fill="#00374B" d="M113.301,180.996l-0.16-0.047c0.208-0.694,1.132-0.703,1.172-0.703v0.169
					C114.306,180.415,113.474,180.423,113.301,180.996z"/>
			</g>
		</g>
	</g>
	<g>
		<g>
			<g>
				<path fill="#00374B" d="M124.082,174.31l-0.005-0.167c2.026-0.062,2.485-2.477,2.49-2.501l0.166,0.029
					C126.728,171.697,126.247,174.244,124.082,174.31z"/>
			</g>
		</g>
	</g>
	<g>
		<g>
			<g>
				<path fill="#00374B" d="M122.918,172.487l-0.119-0.119c1.449-1.449,2.159-3.231,2.167-3.248l0.155,0.06
					C125.115,169.2,124.392,171.015,122.918,172.487z"/>
			</g>
		</g>
	</g>
	<g>
		<g>
			<g>
				<path fill="#00374B" d="M177.825,133.635h-5.836l-3.166-1.797c-4.153,0.139-9.727-2.666-10.496-3.063l-4.793,2.654l-0.077-0.037
					c-2.354-1.122-4.269-3.97-5.689-8.464c-1.052-3.33-1.427-6.373-1.431-6.403l0.333-0.04c0.016,0.119,1.496,11.906,6.854,14.566
					l4.8-2.657l0.081,0.042c0.061,0.032,6.172,3.232,10.452,3.065l0.047-0.003l3.174,1.801h5.657l3.172-1.801l0.05,0.003
					c4.276,0.167,10.391-3.033,10.452-3.065l0.08-0.042l4.801,2.657c5.358-2.661,6.837-14.447,6.852-14.566l0.336,0.04
					c-0.006,0.03-0.379,3.074-1.434,6.403c-1.42,4.494-3.335,7.341-5.688,8.463l-0.079,0.037l-4.793-2.653
					c-0.769,0.397-6.351,3.197-10.493,3.063L177.825,133.635z"/>
			</g>
		</g>
	</g>
	<g>
		<g>
			<g>
				<path fill="#00374B" d="M157.906,128.528l-0.247-0.657c-0.271-0.151-2.509-1.418-4.885-3.116
					c-3.397-2.426-5.447-4.529-6.092-6.25l0.156-0.059c1.514,4.036,10.834,9.242,10.93,9.294l0.026,0.015l0.269,0.714
					L157.906,128.528z"/>
			</g>
		</g>
	</g>
	<g>
		<g>
			<g>
				<path fill="#00374B" d="M156.529,127.132c-0.004-0.08-0.434-8.044-1.018-9.043l-0.009-0.02
					c-0.025-0.093-2.614-9.309-6.839-15.31l0.136-0.096c4.181,5.936,6.763,14.994,6.862,15.351c0.602,1.071,1.018,8.781,1.035,9.109
					L156.529,127.132z"/>
			</g>
		</g>
	</g>
	<g>
		<g>
			<g>
				<path fill="#00374B" d="M168.004,131.596l-0.167-0.026c0.061-0.375,1.474-9.207,2.752-11.506l0.055-0.102l2.11,2.285
					l4.304-0.001l2.11-2.284l0.057,0.102c1.275,2.299,2.69,11.131,2.751,11.506l-0.166,0.026c-0.015-0.09-1.427-8.916-2.677-11.348
					l-2.002,2.167l-4.45,0.001l-2.002-2.167C169.43,122.679,168.017,131.505,168.004,131.596z"/>
			</g>
		</g>
	</g>
	<image width="27" height="113" xlink:href="C28B3B56.png"  transform="matrix(0.24 0 0 0.24 148.7339 103.8223)">
	</image>
	<g>
		<g>
			<g>
				
					<rect x="195.896" y="76.009" transform="matrix(0.9969 0.078 -0.078 0.9969 6.5453 -15.1202)" fill="#00374B" width="1.633" height="0.336"/>
			</g>
		</g>
	</g>
	<g>
		<g>
			<g>
				<polygon fill="#00374B" points="203.826,79.546 197.701,77.144 196.343,74.086 203.042,75.435 202.977,75.764 196.911,74.543 
					197.951,76.882 203.948,79.233 				"/>
			</g>
		</g>
	</g>
	<g>
		<g>
			<g>
				<path fill="#00374B" d="M218.111,99.742c-0.202,0-0.417-0.026-0.64-0.078l0.015-0.33c0.263-0.037,0.974-0.22,1.107-0.617
					c0.109-0.329-0.208-0.739-0.497-1.025c-0.223-0.23-5.428-5.571-6.318-7.791c-0.238-0.185-1.807-1.321-4.406-1.456l-0.126-0.006
					l-0.028-0.121c-0.021-0.089-2.247-8.947-5.319-10.732l-0.156-0.091l1.88-2.681l7.153,1.464l6.65,5.748
					c0.111,0.103,2.629,2.519,2.757,10.275l-0.064,5.339C220.115,97.671,219.927,99.742,218.111,99.742z M207.513,88.119
					c2.858,0.182,4.446,1.495,4.514,1.551l0.033,0.029l0.016,0.041c0.814,2.127,6.207,7.662,6.261,7.717
					c0.514,0.513,0.708,0.975,0.575,1.369c-0.083,0.252-0.292,0.432-0.521,0.56c1.247-0.196,1.388-1.692,1.392-1.761l0.064-5.321
					c-0.125-7.61-2.62-10.003-2.645-10.027l-6.58-5.686l-6.852-1.403l-1.547,2.206C205.171,79.329,207.23,87.015,207.513,88.119z"/>
			</g>
		</g>
	</g>
	<g>
		<g>
			<g>
				<polygon fill="#00374B" points="204.648,80.738 204.539,80.611 209.184,76.613 210.685,76.351 210.713,76.517 209.257,76.771 
									"/>
			</g>
		</g>
	</g>
	<g>
		<g>
			<g>
				<path fill="#00374B" d="M220.223,94.106c-0.962-0.704-6.832-7.622-7.082-7.916c-1.68-1.29-1.308-3.39-1.304-3.411
					c0.377-1.384,0.003-3.162,0-3.18c-0.103-0.71-2.187-2.103-2.979-2.579l0.086-0.144c0.118,0.072,2.927,1.767,3.059,2.694
					c0.015,0.069,0.384,1.83-0.001,3.247c-0.003,0.013-0.354,2.016,1.254,3.252c0.074,0.084,6.121,7.209,7.065,7.902L220.223,94.106
					z"/>
			</g>
		</g>
	</g>
	<image width="68" height="74" xlink:href="C28B3B57.png"  transform="matrix(0.24 0 0 0.24 203.8799 79.2974)">
	</image>
	<image width="61" height="34" xlink:href="C28B3BA7.png"  transform="matrix(0.24 0 0 0.24 203.6143 75.1309)">
	</image>
	<image width="12" height="66" xlink:href="C28B3BB4.png"  transform="matrix(0.24 0 0 0.24 214.7295 82.1343)">
	</image>
	<g>
		<g>
			<g>
				<path fill="#00374B" d="M216.876,100.219l-0.073-0.085c-0.045-0.053-4.571-5.324-6.582-6.015l-0.025-0.009l-3.809-5.678
					l-1.558-3.376l0.004-0.024c0.024-0.176,0.577-4.309-3.729-5.433l0.042-0.162c4.277,1.116,3.898,5.229,3.856,5.594l1.532,3.319
					l3.768,5.62c1.947,0.698,5.943,5.262,6.555,5.969l1.352-2.09l0.142,0.091L216.876,100.219z"/>
			</g>
		</g>
	</g>
	<g>
		<g>
			<g>
				<rect x="201.639" y="81.619" fill="#00374B" width="2.507" height="0.168"/>
			</g>
		</g>
	</g>
	<g>
		<g>
			<g>
				<rect x="203.244" y="83.482" fill="#00374B" width="1.543" height="0.168"/>
			</g>
		</g>
	</g>
	<g>
		<g>
			<g>
				<path fill="#00374B" d="M202.829,96.698c-0.098,0-0.195-0.001-0.294-0.004l0.007-0.168c4.153,0.125,7.621-2.525,7.654-2.552
					l0.104,0.132C210.266,94.132,206.919,96.698,202.829,96.698z"/>
			</g>
		</g>
	</g>
	<g>
		<g>
			<g>
				<path fill="#00374B" d="M207.505,95.525c-0.041-0.025-1.055-0.643-1.268-1.545c-0.092-0.391-0.02-0.774,0.213-1.142
					c0.031-0.068,0.879-1.92,2.156-1.447l-0.057,0.158c-1.14-0.417-1.943,1.351-1.952,1.369c-0.213,0.338-0.277,0.679-0.196,1.022
					c0.195,0.835,1.182,1.436,1.19,1.441L207.505,95.525z"/>
			</g>
		</g>
	</g>
	<g>
		<g>
			<g>
				<path fill="#00374B" d="M205.864,96.178c-0.02-0.003-1.939-0.359-1.61-2.409l0.165,0.026c-0.305,1.888,1.401,2.205,1.475,2.218
					L205.864,96.178z"/>
			</g>
		</g>
	</g>
	<g>
		<g>
			<g>
				<path fill="#00374B" d="M203.604,96.689c-0.009-0.003-0.84-0.292-0.632-1.19l0.164,0.038c-0.175,0.752,0.492,0.984,0.523,0.993
					L203.604,96.689z"/>
			</g>
		</g>
	</g>
	<image width="43" height="135" xlink:href="C28B3BB7.png"  transform="matrix(0.24 0 0 0.24 210.4219 91.2261)">
	</image>
	<g>
		<g>
			<g>
				<path fill="#00374B" d="M216.224,142.178c-1.108,0-2.01-0.353-2.673-1.055c-0.046-0.031-1.67-1.282-1.845-6.021
					c0-0.005-0.425-2.596-1.154-3.406l-0.028-0.042c-0.021-0.047-2.146-4.734-3.169-7.876c-0.279-0.407-3.596-5.269-4.116-7.382
					c-0.272-0.503-3.926-7.45-2.573-11.934c0.007-0.04,1.106-5.636,1.022-7.223l0.336-0.018c0.085,1.629-0.987,7.091-1.033,7.322
					c-1.337,4.438,2.512,11.64,2.552,11.712l0.016,0.041c0.501,2.087,4.051,7.26,4.088,7.311l0.021,0.043
					c0.978,3.013,2.99,7.483,3.152,7.842c0.785,0.902,1.207,3.469,1.222,3.579c0.168,4.57,1.72,5.791,1.734,5.803
					c2.549,2.71,8.145-1.163,8.201-1.203c1.279-0.675,1.617-6.995,1.642-9.374l0.001-0.09l0.074-0.049
					c1.029-0.661,0.666-3.022,0.616-3.312c-0.95-1.594-3.159-8.371-3.254-8.66c-0.85-3.145-3.808-15.566-3.839-15.691
					c-0.721-2.625,0.125-3.101,0.223-3.146l0.146,0.302c-0.009,0.004-0.688,0.411-0.042,2.762c0.03,0.13,2.987,12.545,3.834,15.678
					c0.02,0.063,2.314,7.101,3.235,8.608l0.023,0.057c0.02,0.114,0.498,2.751-0.686,3.632c-0.015,1.227-0.178,8.715-1.8,9.569l0,0
					c0,0-1.458,1.016-3.224,1.669C217.93,141.995,217.023,142.178,216.224,142.178z"/>
			</g>
		</g>
	</g>
	<g>
		<g>
			<g>
				<path fill="#00374B" d="M202.888,115.24c-0.729-2.929-0.425-5.305,0.899-7.058c2.176-2.885,6.416-3.067,6.459-3.07
					c5.381-0.94,9.291,5.97,9.33,6.04l-0.148,0.082c-0.038-0.069-3.887-6.876-9.164-5.956c-0.053,0.003-4.215,0.184-6.344,3.005
					c-1.29,1.711-1.583,4.039-0.871,6.916L202.888,115.24z"/>
			</g>
		</g>
	</g>
	<g>
		<g>
			<g>
				<path fill="#00374B" d="M217.188,137.627c-2.244,0-5.251-2.665-5.388-2.79l0.11-0.125c0.036,0.032,3.655,3.24,5.833,2.68
					l0.024-0.002c0.045-0.001,4.542-0.095,4.604-7.499l0.256-3.828l-6.397-8.06c-0.107-0.068-1.107-0.661-2.818-0.365
					c-0.02,0.005-2.429,0.584-3.557,1.586l-0.028,0.023l-0.034-0.003c-0.003,0-0.139-0.004-0.282,0.173
					c-0.318,0.396-0.688,1.704,0.434,6.02c0.122,0.577,1.176,5.623,0.804,6.192l-0.14-0.092c0.251-0.386-0.355-3.837-0.827-6.063
					c-1.089-4.189-0.813-5.67-0.391-6.176c0.149-0.177,0.306-0.213,0.376-0.221c1.168-1.017,3.513-1.582,3.611-1.605
					c1.88-0.324,2.916,0.369,2.96,0.398l0.017,0.017l6.446,8.122l-0.003,0.032l-0.258,3.855c-0.063,7.387-4.501,7.651-4.762,7.66
					C217.591,137.605,217.394,137.627,217.188,137.627z"/>
			</g>
		</g>
	</g>
	<image width="69" height="170" xlink:href="C28B3BB5.png"  transform="matrix(0.24 0 0 0.24 201.4287 101.2842)">
	</image>
	<image width="32" height="79" xlink:href="C28B3BB3.png"  transform="matrix(0.24 0 0 0.24 215.7344 117.7759)">
	</image>
	<image width="20" height="9" xlink:href="C28B3B8C.png"  transform="matrix(0.24 0 0 0.24 211.8027 123.1108)">
	</image>
	<g>
		<g>
			<g>
				<path fill="#00374B" d="M227.251,163.708c-0.827,0-1.614-0.177-2.343-0.531l-0.043-0.022l-0.025-0.042
					c-0.057-0.094-5.747-9.33-7.672-10.835l-0.032-0.036c-0.307-0.437-7.49-10.742-5.839-14.134l0.599-1.282l0.303,0.141
					l-0.598,1.285c-1.535,3.15,5.437,13.258,5.795,13.777c1.942,1.549,7.233,10.103,7.704,10.866
					c3.118,1.484,6.354-0.945,6.825-1.32c0.028-3.44,1.779-5.505,2.134-5.888l-0.418-2.918c-0.677-3.3-1.957-14.138-1.971-14.247
					c-1.07-4.214-4.7-11.052-4.737-11.12c-0.414-0.813-0.906-1.284-1.465-1.401c-0.681-0.145-1.229,0.292-1.236,0.296l-0.212-0.261
					c0.028-0.021,0.684-0.539,1.519-0.364c0.66,0.141,1.23,0.67,1.694,1.575c0.036,0.067,3.684,6.939,4.768,11.215
					c0.018,0.13,1.296,10.954,1.972,14.25l0.441,3.091l-0.059,0.061c-0.021,0.02-2.095,2.142-2.095,5.792v0.078l-0.058,0.05
					c-0.037,0.032-0.935,0.794-2.282,1.355C229.005,163.517,228.107,163.708,227.251,163.708z"/>
			</g>
		</g>
	</g>
	<image width="8" height="19" xlink:href="C28B3B8F.png"  transform="matrix(0.24 0 0 0.24 223.7402 125.9658)">
	</image>
	<g>
		<g>
			<g>
				<path fill="#00374B" d="M232.202,142.374c-0.083-0.021-2.021-0.527-2.799-1.241l-0.02-0.025l-3.284-6.907
					c-0.014-0.23-0.321-5.675-0.127-6.45c0.067-0.401,0.141-1.493-0.327-1.634l0.048-0.16c0.706,0.211,0.454,1.763,0.443,1.829
					c-0.183,0.735,0.109,6.052,0.13,6.39l3.261,6.845c0.758,0.679,2.697,1.185,2.716,1.191L232.202,142.374z"/>
			</g>
		</g>
	</g>
	<g>
		<g>
			<g>
				<path fill="#00374B" d="M233.434,150.683c-2.883-5.955-1.343-7.974-1.276-8.057l0.131,0.104c-0.016,0.02-1.53,2.038,1.294,7.879
					L233.434,150.683z"/>
			</g>
		</g>
	</g>
	<g>
		<g>
			<g>
				<path fill="#00374B" d="M220.042,154.178c-0.372,0-0.777-0.071-1.214-0.241l0.062-0.157c2.533,0.991,3.93-1.542,3.943-1.567
					l4.543-9.663l-3.776-8.704l0.155-0.067l3.805,8.773l-0.016,0.034l-4.563,9.703C222.969,152.314,221.942,154.178,220.042,154.178
					z"/>
			</g>
		</g>
	</g>
	<g>
		<g>
			<g>
				<path fill="#00374B" d="M224.42,160.099c-0.395,0-0.817-0.037-1.271-0.117l0.028-0.166c2.206,0.394,3.928-0.199,5.124-1.76
					c0.892-1.167,1.138-2.465,1.139-2.479c0.835-3.976,1.799-4.594,1.84-4.619c0.093-0.095,0.229-0.144,0.39-0.129
					c0.864,0.073,2.233,2,2.292,2.082l-0.137,0.097c-0.015-0.019-1.384-1.944-2.17-2.011c-0.111-0.01-0.2,0.021-0.272,0.095
					c-0.025,0.017-0.963,0.649-1.776,4.519C229.599,155.657,228.729,160.099,224.42,160.099z"/>
			</g>
		</g>
	</g>
	<g>
		<g>
			<g>
				<polygon fill="#00374B" points="230.925,151.255 229.657,148.022 225.333,147.323 225.361,147.158 229.776,147.871 
					231.08,151.193 				"/>
			</g>
		</g>
	</g>
	<g>
		<g>
			<g>
				<polygon fill="#00374B" points="229.006,151.005 227.098,150.511 228.161,147.788 228.317,147.85 227.324,150.396 
					228.886,150.8 229.637,147.925 229.8,147.968 				"/>
			</g>
		</g>
	</g>
	<image width="42" height="147" xlink:href="C28B3B8D.png"  transform="matrix(0.24 0 0 0.24 227.3916 142.5156)">
	</image>
	<image width="50" height="87" xlink:href="C28B3B93.png"  transform="matrix(0.24 0 0 0.24 218.6504 141.6265)">
	</image>
	<g>
		<g>
			<g>
				<path fill="#00374B" d="M238.11,178.501c-0.516,0-1.087-0.34-1.707-1.011l-2.121-2.381c-0.037-0.034-1.143-1.112-0.617-3.87
					l0.44-3.792l-1.839-3.488c-0.014-0.019-0.603-0.892-0.339-2.673l0.332,0.049c-0.242,1.637,0.288,2.444,0.295,2.451l1.896,3.596
					l-0.456,3.908c-0.492,2.589,0.518,3.574,0.526,3.584l2.132,2.389c0.697,0.758,1.178,0.911,1.479,0.902
					c0.226-0.007,0.364-0.106,0.42-0.158c0.607-5.569-1.966-15.461-1.992-15.562c-0.131-1.581-2.724-6.339-2.75-6.386l0.295-0.161
					c0.108,0.198,2.653,4.868,2.783,6.491c0.02,0.072,2.63,10.091,1.991,15.711l-0.005,0.047l-0.03,0.037
					c-0.01,0.012-0.238,0.297-0.688,0.315C238.14,178.501,238.126,178.501,238.11,178.501z"/>
			</g>
		</g>
	</g>
	<g>
		<g>
			<g>
				<path fill="#00374B" d="M234.361,167.436l-0.163-0.041c0.049-0.196,1.247-4.802,2.621-5.326l0.06,0.156
					C235.585,162.719,234.372,167.389,234.361,167.436z"/>
			</g>
		</g>
	</g>
	<g>
		<g>
			<g>
				<path fill="#00374B" d="M233.382,189.264c-0.108,0-0.223-0.017-0.341-0.058c-0.536-0.177-0.931-0.772-1.174-1.771
					c-0.019-0.29-0.108-2.525,0.56-3.186l-0.241-1.386l0.331-0.057l0.274,1.581l-0.084,0.063c-0.462,0.335-0.558,1.98-0.51,2.939
					c0.207,0.831,0.537,1.36,0.95,1.498c0.455,0.152,0.893-0.203,0.896-0.206c1.908-1.484,1.212-9.741,0.971-12.083
					c-0.37,0.478-1.01,0.622-1.376,0.622h-0.211l0.354-1.56c-0.171-0.336-0.419-0.537-0.758-0.613
					c-1.363-0.305-3.627,1.538-3.648,1.556l-0.068,0.056l-0.083-0.022c-1.405-0.385-1.632-2.595-1.662-2.989
					c-1.092-1.345-2.077-5.378-2.118-5.551c-0.158-1.009,0.046-1.8,0.599-2.367c1.229-1.253,3.722-0.937,3.827-0.922
					c2.824-0.068,4.193,4.237,4.249,4.421l-0.32,0.099c-0.013-0.042-1.325-4.188-3.891-4.188c-0.02,0-0.038,0-0.056,0.001
					c-0.05-0.004-2.46-0.31-3.57,0.823c-0.475,0.487-0.647,1.182-0.511,2.066c0.009,0.028,1.029,4.204,2.084,5.444l0.036,0.042
					l0.002,0.057c0.003,0.023,0.135,2.291,1.34,2.712c0.415-0.328,2.467-1.881,3.864-1.566c0.456,0.101,0.798,0.387,1.013,0.847
					l0.025,0.052l-0.283,1.246c0.341-0.052,0.977-0.24,1.099-0.934l0.332,0.007c0.055,0.456,1.333,11.166-1.027,13.004
					C234.237,188.959,233.863,189.264,233.382,189.264z"/>
			</g>
		</g>
	</g>
	<g>
		<g>
			<g>
				<path fill="#00374B" d="M223.033,176.146c-0.075,0-0.15-0.007-0.222-0.02c-0.021-0.003-0.853-0.098-1.212-0.824
					c-0.344-0.691-0.125-1.689,0.649-2.963l2.346-3.235c-0.062-0.612-0.486-4.997,0.245-6.169l0.287,0.179
					c-0.714,1.135-0.195,5.97-0.19,6.018l0.006,0.065l-2.415,3.33c-0.69,1.138-0.911,2.05-0.627,2.625
					c0.273,0.56,0.954,0.642,0.959,0.642c0.788,0.148,2.096-0.828,2.557-1.232c0.759-1.036,1.891-1.14,2.224-1.146
					c0.354-0.471,2.404-2.929,5.98-1.856l-0.096,0.322c-3.693-1.108-5.64,1.766-5.66,1.795l-0.052,0.079l-0.095-0.004
					c-0.012,0-1.271-0.042-2.042,1.023l-0.024,0.028C225.586,174.861,224.119,176.146,223.033,176.146z"/>
			</g>
		</g>
	</g>
	<g>
		<g>
			<g>
				<path fill="#00374B" d="M230.232,185.949c-0.016,0-0.033,0-0.051-0.001c-0.484-0.036-0.805-0.598-0.863-0.707
					c-0.833-1.054,0.162-3.088,0.3-3.356c0.429-2.991-0.498-5.321-0.507-5.346l0.311-0.126c0.04,0.098,0.977,2.454,0.526,5.549
					l-0.019,0.054c-0.01,0.021-1.095,2.098-0.339,3.029l0.02,0.029c0.071,0.143,0.319,0.52,0.598,0.539
					c0.172,0.017,0.347-0.11,0.529-0.368c0.559-0.875,1.47-2.388,1.512-2.689c0.01-0.047,0.769-3.804,0.769-5.565v-0.104l0.479-0.24
					l0.151,0.3l-0.294,0.147c-0.025,1.829-0.743,5.366-0.772,5.519c-0.064,0.453-1.314,2.429-1.566,2.819
					C230.772,185.778,230.51,185.949,230.232,185.949z"/>
			</g>
		</g>
	</g>
	<g>
		<g>
			<g>
				<path fill="#00374B" d="M235.069,191.146c-0.511,0-1.029-0.616-1.586-1.881l0.308-0.135c0.676,1.536,1.133,1.679,1.291,1.679
					c0.269-0.013,0.468-0.428,0.516-0.57l0.029-0.055c1.606-1.979,0.489-13.001,0.477-13.112l0.334-0.034
					c0.048,0.457,1.137,11.193-0.532,13.335c-0.055,0.145-0.31,0.749-0.807,0.771C235.089,191.146,235.08,191.146,235.069,191.146z"
					/>
			</g>
		</g>
	</g>
	<g>
		<g>
			<g>
				<path fill="#00374B" d="M229.686,178.159l-0.067-0.154c2.399-1.037,3.45-0.217,3.492-0.181l-0.105,0.131
					C232.996,177.947,231.979,177.168,229.686,178.159z"/>
			</g>
		</g>
	</g>
	<g>
		<g>
			<g>
				<path fill="#00374B" d="M232.296,182.899c-0.012-0.011-1.328-1.125-2.496-0.881l-0.036-0.163
					c1.248-0.265,2.585,0.868,2.643,0.918L232.296,182.899z"/>
			</g>
		</g>
	</g>
	<g>
		<g>
			<g>
				<path fill="#00374B" d="M236.574,186.45c-0.117-0.583-1.34-0.895-1.351-0.897l-0.055-0.014l-0.01-0.054
					c-0.18-1.074-2.527-1.087-2.551-1.087v-0.167c0.1,0,2.443,0.012,2.707,1.171c0.249,0.071,1.299,0.399,1.423,1.017
					L236.574,186.45z"/>
			</g>
		</g>
	</g>
	<g>
		<g>
			<g>
				<path fill="#00374B" d="M232.844,180.403l-0.085-0.146c0.06-0.033,1.469-0.854,2.529-0.19l-0.091,0.143
					C234.224,179.601,232.856,180.395,232.844,180.403z"/>
			</g>
		</g>
	</g>
	<g>
		<g>
			<g>
				<path fill="#00374B" d="M236.513,180.996c-0.173-0.575-1.005-0.581-1.015-0.581v-0.169c0.04,0,0.965,0.009,1.174,0.702
					L236.513,180.996z"/>
			</g>
		</g>
	</g>
	<g>
		<g>
			<g>
				<path fill="#00374B" d="M225.731,174.311c-2.165-0.064-2.646-2.613-2.651-2.64l0.166-0.03c0.003,0.025,0.464,2.44,2.489,2.501
					L225.731,174.311z"/>
			</g>
		</g>
	</g>
	<g>
		<g>
			<g>
				<path fill="#00374B" d="M226.895,172.487c-1.472-1.473-2.197-3.288-2.202-3.307l0.155-0.06c0.008,0.017,0.719,1.799,2.165,3.248
					L226.895,172.487z"/>
			</g>
		</g>
	</g>
	<g>
		<g>
			<g>
				<path fill="#00374B" d="M191.908,128.528l-0.158-0.059l0.269-0.714l0.027-0.015c0.094-0.053,9.413-5.258,10.928-9.295
					l0.158,0.059c-0.646,1.722-2.697,3.825-6.092,6.251c-2.377,1.698-4.616,2.965-4.888,3.116L191.908,128.528z"/>
			</g>
		</g>
	</g>
	<g>
		<g>
			<g>
				<path fill="#00374B" d="M193.284,127.132l-0.169-0.009c0.019-0.328,0.435-8.038,1.035-9.109c0.1-0.356,2.683-9.415,6.862-15.351
					l0.138,0.097c-4.227,6.002-6.814,15.217-6.842,15.31l-0.009,0.02C193.718,119.088,193.289,127.051,193.284,127.132z"/>
			</g>
		</g>
	</g>
	<image width="27" height="113" xlink:href="C28B3B94.png"  transform="matrix(0.24 0 0 0.24 194.7139 103.8218)">
	</image>
	<g>
		<g>
			<g>
				<path fill="#00374B" d="M176.47,136.479c-0.033,0-0.067-0.002-0.1-0.005h-0.583l-2.212-0.01
					c-0.844,0.085-1.44-0.966-1.578-1.236l-3.042-1.233c-0.75,0.327-1.931-0.402-2.311-0.659l-3.317,2.721l-7.324-2.585
					l-3.641,0.866l-0.066-0.065c-0.535-0.535-0.635-3.615-0.649-4.228l0.335-0.008c0.031,1.293,0.194,3.419,0.499,3.929l3.541-0.844
					l7.241,2.556l3.367-2.763l0.105,0.075c0.406,0.292,1.577,0.982,2.132,0.675l0.07-0.04l3.306,1.34l0.028,0.06
					c0.004,0.012,0.555,1.176,1.29,1.104l0.614,0l2.212,0.01c0.742,0.079,1.299-1.09,1.304-1.101l0.027-0.061l3.308-1.34l0.07,0.039
					c0.554,0.31,1.728-0.381,2.131-0.674l0.106-0.076l3.367,2.763l7.239-2.555l3.542,0.843c0.306-0.509,0.468-2.634,0.498-3.927
					l0.336,0.008c-0.016,0.612-0.116,3.692-0.649,4.227l-0.066,0.067l-3.642-0.868l-7.323,2.585l-3.316-2.721
					c-0.38,0.258-1.562,0.985-2.313,0.659l-3.041,1.233C177.83,135.498,177.274,136.479,176.47,136.479z"/>
			</g>
		</g>
	</g>
	<g>
		<g>
			<g>
				<path fill="#00374B" d="M176.473,144.142l-2.983-0.01c-0.935,0-1.469-1.028-1.602-1.318l-3.337-1.113
					c-0.768,0.303-1.664-0.238-1.948-0.432l-4.288,2.303l-2.453-1.127c-3.888-1.881-6.548-1.281-6.572-1.274l-0.062,0.015
					l-0.055-0.03c-1.282-0.674-0.966-6.366-0.925-7.012l0.335,0.021c-0.144,2.313-0.078,6.11,0.698,6.665
					c0.458-0.09,3.036-0.473,6.725,1.312l2.298,1.056l4.327-2.324l0.085,0.065c0.012,0.008,1.026,0.768,1.756,0.431l0.06-0.028
					l3.605,1.202l0.029,0.073c0.005,0.011,0.484,1.179,1.322,1.179l2.983,0.01c0.841,0,1.316-1.167,1.32-1.18l0.03-0.072
					l3.607-1.203l0.059,0.028c0.734,0.34,1.745-0.423,1.755-0.43l0.088-0.066l4.326,2.326l2.302-1.058
					c3.687-1.784,6.262-1.4,6.722-1.311c0.774-0.556,0.842-4.352,0.698-6.664l0.334-0.021c0.04,0.646,0.356,6.337-0.924,7.011
					l-0.057,0.03l-0.059-0.016c-0.028-0.005-2.697-0.602-6.571,1.273l-2.456,1.129l-4.287-2.304
					c-0.284,0.193-1.183,0.736-1.948,0.432l-3.338,1.113C177.941,143.114,177.408,144.142,176.473,144.142z"/>
			</g>
		</g>
	</g>
	<g>
		<g>
			<g>
				<path fill="#00374B" d="M176.601,152.109l-3.241-0.01c-1.017,0-1.769-1.298-1.922-1.582l-2.557-1.218
					c-0.643,0.392-2.165-0.099-2.606-0.257l-2.706,2.768l-2.482-1.073c-5.319-3.377-8.405-0.887-8.436-0.862l-0.234,0.198
					l-0.04-0.305c-0.384-3.012,0.664-8.556,0.708-8.791l0.33,0.063c-0.012,0.054-1.018,5.384-0.737,8.405
					c0.346-0.22,1.055-0.589,2.098-0.749c1.368-0.21,3.603-0.077,6.468,1.743l2.249,0.97l2.693-2.76l0.103,0.04
					c0.758,0.283,2.097,0.613,2.465,0.289l0.081-0.074l2.852,1.358l0.026,0.051c0.008,0.015,0.737,1.45,1.648,1.45l3.241,0.01
					c0.914,0,1.642-1.434,1.649-1.449l0.025-0.051l2.851-1.359l0.084,0.075c0.365,0.325,1.706-0.005,2.465-0.289l0.103-0.038
					l2.692,2.759l2.272-0.982c2.841-1.809,5.076-1.942,6.444-1.731c1.043,0.159,1.751,0.528,2.096,0.747
					c0.282-3.021-0.726-8.349-0.736-8.405l0.33-0.063c0.047,0.235,1.094,5.78,0.709,8.792l-0.037,0.303l-0.236-0.195
					c-0.007-0.007-0.782-0.638-2.196-0.849c-1.312-0.196-3.452-0.059-6.217,1.697l-2.506,1.086l-2.705-2.768
					c-0.443,0.157-1.963,0.647-2.607,0.256l-2.558,1.218C178.372,150.811,177.62,152.109,176.601,152.109z"/>
			</g>
		</g>
	</g>
	<g>
		<g>
			<g>
				<path fill="#00374B" d="M187.4,141.693l-2.86-1.462l0.323-2.127l-1.013-0.655l-2.934,0.998l-0.129,0.898l-2.962,1.095
					c-0.215,0.58-1.876,0.426-2.068,0.405l-1.561-0.011c-0.186,0.021-1.847,0.174-2.062-0.404l-2.962-1.096l-0.129-0.898
					l-2.932-0.998l-1.012,0.655l0.321,2.127l-2.858,1.462l-1.622-1.012l0-0.045c0-0.017-0.071-1.66-0.949-1.718
					c-0.027-0.005-0.633-0.193-1.013,0.083c-0.208,0.152-0.311,0.419-0.311,0.796v0.129l-1.24-0.55
					c-0.151,0.075-0.76,0.404-0.809,0.804c-0.021,0.175,0.074,0.348,0.281,0.515l0.896,0.641l-0.099,0.136l-0.899-0.643
					c-0.261-0.209-0.377-0.433-0.348-0.67c0.068-0.547,0.904-0.936,0.939-0.953l0.035-0.016l1.078,0.479
					c0.022-0.369,0.149-0.638,0.376-0.806c0.448-0.326,1.114-0.12,1.141-0.111c0.932,0.06,1.067,1.545,1.085,1.832l1.465,0.915
					l2.666-1.365l-0.32-2.114l1.172-0.758l3.107,1.058l0.128,0.9l2.952,1.091l0.011,0.044c0.082,0.369,1.209,0.393,1.9,0.32
					l1.578,0.01c0.7,0.072,1.83,0.049,1.91-0.32l0.01-0.044l2.95-1.09l0.131-0.901l0.046-0.017l3.06-1.041l1.172,0.758l-0.318,2.113
					l2.666,1.366l1.465-0.915c0.019-0.286,0.154-1.772,1.104-1.834c0.009-0.006,0.673-0.212,1.122,0.115
					c0.228,0.167,0.354,0.436,0.376,0.804l1.077-0.478l0.035,0.017c0.035,0.016,0.872,0.405,0.938,0.952
					c0.031,0.236-0.085,0.461-0.343,0.667l-0.903,0.645l-0.097-0.137l0.897-0.642c0.206-0.165,0.301-0.338,0.28-0.512
					c-0.05-0.401-0.658-0.73-0.81-0.805l-1.239,0.551v-0.129c0-0.377-0.105-0.644-0.312-0.796c-0.379-0.277-0.986-0.089-0.993-0.088
					c-0.896,0.063-0.97,1.707-0.97,1.724l-0.001,0.043L187.4,141.693z"/>
			</g>
		</g>
	</g>
	<g>
		<g>
			<g>
				<path fill="#00374B" d="M162.833,133.842l-2.608-1.004l0.01-0.067c0.002-0.009,0.143-0.923-0.201-1.326
					c-0.105-0.124-0.244-0.184-0.422-0.184c-0.061-0.005-1.289-0.109-1.525,0.836l-0.018,0.076l-1.149-0.203
					c-0.108,0.037-0.647,0.238-0.748,0.614c-0.058,0.214,0.04,0.456,0.288,0.72l-0.122,0.115c-0.29-0.31-0.4-0.605-0.327-0.879
					c0.135-0.506,0.847-0.728,0.879-0.737l0.018-0.005l1.038,0.183c0.315-1.003,1.662-0.887,1.672-0.887c0.003,0,0.003,0,0.004,0
					c0.218,0,0.403,0.082,0.542,0.242c0.336,0.396,0.275,1.161,0.247,1.393l2.404,0.924l2.5-1.625l0.061-0.666l0.167,0.015
					l-0.067,0.748L162.833,133.842z"/>
			</g>
		</g>
	</g>
	<g>
		<g>
			<g>
				<path fill="#00374B" d="M187.208,149.275l-2.861-1.463l0.323-2.126l-1.013-0.656l-2.933,0.998l-0.128,0.899l-2.963,1.095
					c-0.215,0.579-1.875,0.425-2.068,0.404l-1.177-0.01c-0.183,0.02-1.847,0.174-2.059-0.406l-2.964-1.095l-0.129-0.897l-2.932-1
					l-1.012,0.655l0.323,2.127l-2.86,1.463l-1.62-1.013l-0.002-0.044c-0.001-0.017-0.073-1.66-0.95-1.718
					c-0.025-0.005-0.634-0.193-1.012,0.084c-0.207,0.151-0.313,0.419-0.313,0.796v0.129l-1.239-0.551
					c-0.15,0.076-0.76,0.405-0.811,0.806c-0.022,0.174,0.074,0.348,0.285,0.514l0.895,0.641l-0.097,0.136l-0.899-0.642
					c-0.261-0.209-0.377-0.434-0.347-0.67c0.066-0.547,0.903-0.937,0.938-0.953l0.036-0.017l1.076,0.479
					c0.023-0.368,0.152-0.638,0.378-0.804c0.447-0.327,1.113-0.121,1.142-0.112c0.93,0.061,1.066,1.545,1.084,1.831l1.464,0.915
					l2.667-1.364l-0.321-2.114l1.171-0.758l3.108,1.058l0.128,0.901l2.954,1.091l0.008,0.044c0.082,0.369,1.211,0.392,1.901,0.32
					l1.194,0.01c0.698,0.072,1.826,0.047,1.909-0.32l0.01-0.044l2.951-1.091l0.129-0.901l3.106-1.059l1.173,0.759l-0.321,2.114
					l2.668,1.364l1.464-0.914c0.02-0.287,0.154-1.771,1.104-1.836c0.008-0.005,0.674-0.211,1.123,0.116
					c0.228,0.166,0.353,0.437,0.377,0.804l1.076-0.478l0.033,0.016c0.037,0.016,0.874,0.405,0.94,0.952
					c0.031,0.236-0.087,0.46-0.344,0.667l-0.904,0.645l-0.096-0.136l0.899-0.643c0.205-0.164,0.3-0.337,0.278-0.512
					c-0.049-0.399-0.659-0.729-0.812-0.805l-1.238,0.55v-0.129c0-0.377-0.105-0.644-0.312-0.796
					c-0.378-0.277-0.985-0.089-0.991-0.087c-0.899,0.063-0.97,1.705-0.971,1.722l-0.002,0.044L187.208,149.275z"/>
			</g>
		</g>
	</g>
	<g>
		<g>
			<g>
				
					<rect x="162.065" y="130.366" transform="matrix(0.9326 0.3609 -0.3609 0.9326 58.5159 -49.6351)" fill="#00374B" width="0.169" height="2.971"/>
			</g>
		</g>
	</g>
	<g>
		<g>
			<g>
				
					<rect x="162.396" y="135.741" transform="matrix(0.9526 0.3042 -0.3042 0.9526 49.7941 -42.8617)" fill="#00374B" width="0.17" height="5.329"/>
			</g>
		</g>
	</g>
	<g>
		<g>
			<g>
				<path fill="#00374B" d="M161.999,148.563l-0.15-0.075l1.966-3.868c-0.568-0.608-1.537-1.156-1.547-1.161l0.084-0.146
					c0.041,0.023,1.046,0.592,1.626,1.237l0.039,0.044L161.999,148.563z"/>
			</g>
		</g>
	</g>
	<image width="3" height="84" xlink:href="C28B3B97.png"  transform="matrix(0.24 0 0 0.24 171.542 133.4658)">
	</image>
	<image width="2" height="84" xlink:href="C28B3BF3.png"  transform="matrix(0.24 0 0 0.24 173.2139 133.6816)">
	</image>
	<image width="5" height="76" xlink:href="C28B3BF1.png"  transform="matrix(0.24 0 0 0.24 154.7729 130.5313)">
	</image>
	<image width="7" height="10" xlink:href="C28B3BF7.png"  transform="matrix(0.24 0 0 0.24 159.0054 139.2231)">
	</image>
	<image width="7" height="10" xlink:href="C28B3BF2.png"  transform="matrix(0.24 0 0 0.24 158.4277 131.6411)">
	</image>
	<image width="7" height="10" xlink:href="C28B3BFD.png"  transform="matrix(0.24 0 0 0.24 159.0703 146.9976)">
	</image>
	<g>
		<g>
			<g>
				<polygon fill="#00374B" points="182.425,153.844 167.537,153.833 163.455,151.759 163.606,151.46 167.618,153.498 
					182.343,153.508 186.355,151.471 186.509,151.769 				"/>
			</g>
		</g>
	</g>
	<g>
		<g>
			<g>
				<path fill="#00374B" d="M147.443,174.619l-0.336-0.013l0.127-3.195c-0.505-3.019,0.475-8.79,0.519-9.035l0.022-0.062
					l1.578-2.462l-0.063-1.811c0.386-4.895,3.091-8.614,3.118-8.651l0.27,0.199c-0.025,0.037-2.675,3.683-3.052,8.46l0.066,1.896
					l-1.616,2.521c-0.081,0.484-0.992,6.064-0.507,8.906l0.002,0.016L147.443,174.619z"/>
			</g>
		</g>
	</g>
	<g>
		<g>
			<g>
				<path fill="#00374B" d="M149.605,158.95l-0.164-0.032c0.01-0.056,1.175-5.675,7.81-10.013l0.092,0.141
					C150.768,153.346,149.615,158.894,149.605,158.95z"/>
			</g>
		</g>
	</g>
	<g>
		<g>
			<g>
				<polygon fill="#00374B" points="185.14,174.45 177.371,174.45 172.591,174.438 164.822,174.438 162.436,168.183 
					157.894,165.912 160.235,161.033 160.552,156.794 157.589,154.992 157.994,153.037 158.022,153.018 160.579,151.292 
					161.084,150.536 161.224,150.628 160.686,151.422 158.145,153.138 157.778,154.91 160.726,156.705 160.394,161.091 
					158.116,165.835 162.57,168.063 162.58,168.093 164.938,174.271 172.591,174.271 177.371,174.282 185.024,174.282 
					187.393,168.072 187.423,168.058 191.846,165.846 189.561,161.072 189.234,156.715 192.185,154.92 191.817,153.148 
					189.253,151.41 188.739,150.639 188.879,150.545 189.383,151.303 191.969,153.047 192.373,155.001 189.41,156.806 
					189.726,161.044 192.068,165.922 187.526,168.193 				"/>
			</g>
		</g>
	</g>
	<g>
		<g>
			<g>
				<path fill="#00374B" d="M157.958,165.943c-0.049-0.033-5.018-3.321-7.717-2.942l-0.471,0l-0.33-3.096l0.166-0.017l0.314,2.945
					h0.31c2.755-0.384,7.615,2.833,7.821,2.968L157.958,165.943z"/>
			</g>
		</g>
	</g>
	<g>
		<g>
			<g>
				
					<rect x="153.615" y="153.046" transform="matrix(0.6293 0.7772 -0.7772 0.6293 179.9002 -60.8172)" fill="#00374B" width="0.168" height="10.235"/>
			</g>
		</g>
	</g>
	<g>
		<g>
			<g>
				<polygon fill="#00374B" points="184.24,173.036 177.371,173.036 172.591,173.025 165.722,173.025 163.576,167.552 
					163.129,162.522 160.28,161.13 160.354,160.979 163.289,162.414 163.742,167.525 165.836,172.857 172.591,172.857 
					177.371,172.868 184.125,172.868 186.22,167.536 186.672,162.424 189.608,160.99 189.68,161.14 186.832,162.533 
					186.381,167.585 				"/>
			</g>
		</g>
	</g>
	<g>
		<g>
			<g>
				<path fill="#00374B" d="M186.705,162.547l-0.818-0.566c-0.352-0.033-4.831-0.446-9.606-0.446l-2.599-0.011
					c-4.775,0-9.257,0.415-9.607,0.447l-0.816,0.566l-0.096-0.138l0.854-0.59l0.021-0.003c0.046-0.005,4.689-0.451,9.646-0.451
					l2.599,0.011c4.957,0,9.6,0.447,9.645,0.451l0.022,0.002l0.853,0.59L186.705,162.547z"/>
			</g>
		</g>
	</g>
	<g>
		<g>
			<g>
				<path fill="#00374B" d="M152.396,174.937c-0.191-5.164,2.231-10.776,2.255-10.833l0.154,0.068
					c-0.025,0.056-2.431,5.633-2.241,10.757L152.396,174.937z"/>
			</g>
		</g>
	</g>
	<g>
		<g>
			<g>
				<path fill="#00374B" d="M149.761,173.59c-0.254-3.189,1.526-10.491,1.545-10.563l0.162,0.039
					c-0.018,0.073-1.793,7.349-1.54,10.511L149.761,173.59z"/>
			</g>
		</g>
	</g>
	<image width="7" height="50" xlink:href="C28B3BFE.png"  transform="matrix(0.24 0 0 0.24 148.1543 161.9507)">
	</image>
	<g>
		<g>
			<g>
				<rect x="150.854" y="155.593" fill="#00374B" width="0.167" height="4.69"/>
			</g>
		</g>
	</g>
	<image width="10" height="50" xlink:href="C28B3BFF.png"  transform="matrix(0.24 0 0 0.24 151.2422 151.458)">
	</image>
	<image width="163" height="24" xlink:href="C28B3BF4.png"  transform="matrix(0.24 0 0 0.24 155.5269 148.8354)">
	</image>
	<image width="18" height="59" xlink:href="C28B3BF5.png"  transform="matrix(0.24 0 0 0.24 162.4185 154.0762)">
	</image>
	<g>
		<g>
			<g>
				
					<rect x="162.649" y="177.302" transform="matrix(0.2966 0.955 -0.955 0.2966 286.0506 -33.5822)" fill="#00374B" width="6.346" height="0.166"/>
			</g>
		</g>
	</g>
	<g>
		<g>
			<g>
				<polygon fill="#00374B" points="184.096,177.428 177.243,177.428 172.718,177.417 165.866,177.417 165.866,177.248 
					172.719,177.248 177.244,177.26 184.096,177.26 				"/>
			</g>
		</g>
	</g>
	<image width="7" height="48" xlink:href="C28B3BF6.png"  transform="matrix(0.24 0 0 0.24 155.7197 165.4858)">
	</image>
	<g>
		<g>
			<g>
				<path fill="#00374B" d="M187.129,133.852l-2.642-1.716l-0.067-0.748l0.167-0.015l0.062,0.666l2.5,1.625l2.403-0.924
					c-0.026-0.233-0.089-0.998,0.247-1.394c0.139-0.161,0.323-0.243,0.552-0.243c0.006-0.001,1.353-0.116,1.667,0.888l1.036-0.184
					l0.021,0.006c0.029,0.009,0.743,0.232,0.878,0.736c0.072,0.273-0.038,0.569-0.327,0.879l-0.123-0.115
					c0.247-0.265,0.344-0.507,0.287-0.721c-0.1-0.375-0.641-0.578-0.748-0.614l-1.148,0.203l-0.018-0.075
					c-0.236-0.945-1.465-0.842-1.518-0.837c-0.188,0.001-0.324,0.062-0.431,0.184c-0.343,0.402-0.203,1.316-0.202,1.326l0.01,0.068
					L187.129,133.852z"/>
			</g>
		</g>
	</g>
	<g>
		<g>
			<g>
				
					<rect x="186.328" y="131.779" transform="matrix(0.368 0.9298 -0.9298 0.368 241.2971 -91.2995)" fill="#00374B" width="2.972" height="0.169"/>
			</g>
		</g>
	</g>
	<g>
		<g>
			<g>
				
					<rect x="184.816" y="138.333" transform="matrix(0.3053 0.9523 -0.9523 0.3053 262.0583 -82.3696)" fill="#00374B" width="5.33" height="0.167"/>
			</g>
		</g>
	</g>
	<g>
		<g>
			<g>
				<path fill="#00374B" d="M187.963,148.574l-2.02-3.97l0.041-0.043c0.58-0.646,1.586-1.214,1.626-1.238l0.084,0.147
					c-0.012,0.005-0.977,0.552-1.548,1.161l1.966,3.868L187.963,148.574z"/>
			</g>
		</g>
	</g>
	<image width="3" height="84" xlink:href="C28B3BDA.png"  transform="matrix(0.24 0 0 0.24 177.8447 133.4761)">
	</image>
	<image width="2" height="84" xlink:href="C28B3BD9.png"  transform="matrix(0.24 0 0 0.24 176.3242 133.6924)">
	</image>
	<image width="5" height="76" xlink:href="C28B3BD6.png"  transform="matrix(0.24 0 0 0.24 194.1855 130.5415)">
	</image>
	<image width="7" height="10" xlink:href="C28B3BA9.png"  transform="matrix(0.24 0 0 0.24 189.4248 139.2344)">
	</image>
	<image width="7" height="10" xlink:href="C28B3BAA.png"  transform="matrix(0.24 0 0 0.24 190.002 131.6514)">
	</image>
	<image width="7" height="10" xlink:href="C28B3BA8.png"  transform="matrix(0.24 0 0 0.24 189.3604 147.0083)">
	</image>
	<g>
		<g>
			<g>
				<path fill="#00374B" d="M202.492,174.21l-0.103-2.812l0.004-0.016c0.483-2.842-0.427-8.422-0.51-8.906l-1.613-2.521l0.065-1.915
					c-0.379-4.757-3.026-8.404-3.054-8.441l0.271-0.199c0.027,0.038,2.73,3.757,3.117,8.631l-0.063,1.831l1.602,2.523
					c0.042,0.245,1.023,6.017,0.518,9.035l0.102,2.778L202.492,174.21z"/>
			</g>
		</g>
	</g>
	<g>
		<g>
			<g>
				<path fill="#00374B" d="M200.356,158.961c-0.011-0.056-1.166-5.608-7.739-9.905l0.092-0.14c3.467,2.266,5.405,4.865,6.421,6.646
					c1.103,1.935,1.39,3.354,1.392,3.368L200.356,158.961z"/>
			</g>
		</g>
	</g>
	<g>
		<g>
			<g>
				<path fill="#00374B" d="M192.003,165.954l-0.094-0.14c0.207-0.138,5.071-3.356,7.834-2.969l0.298-0.001l0.314-2.944l0.167,0.019
					l-0.331,3.094h-0.459C197.024,162.635,192.053,165.92,192.003,165.954z"/>
			</g>
		</g>
	</g>
	<g>
		<g>
			<g>
				
					<rect x="191.144" y="158.091" transform="matrix(0.7784 0.6278 -0.6278 0.7784 142.8065 -88.1588)" fill="#00374B" width="10.234" height="0.167"/>
			</g>
		</g>
	</g>
	<g>
		<g>
			<g>
				<path fill="#00374B" d="M197.647,175.064l-0.168-0.006c0.189-5.125-2.297-10.818-2.322-10.875l0.154-0.068
					C195.335,164.172,197.837,169.9,197.647,175.064z"/>
			</g>
		</g>
	</g>
	<g>
		<g>
			<g>
				<path fill="#00374B" d="M200.261,173.525l-0.169-0.012c0.254-3.163-1.579-10.363-1.598-10.435l0.163-0.041
					C198.677,163.108,200.514,170.336,200.261,173.525z"/>
			</g>
		</g>
	</g>
	<image width="7" height="50" xlink:href="C28B3BAE.png"  transform="matrix(0.24 0 0 0.24 200.1621 161.9624)">
	</image>
	<g>
		<g>
			<g>
				<rect x="198.94" y="155.604" fill="#00374B" width="0.167" height="4.69"/>
			</g>
		</g>
	</g>
	<image width="10" height="50" xlink:href="C28B3BAB.png"  transform="matrix(0.24 0 0 0.24 196.4697 151.4692)">
	</image>
	<image width="18" height="59" xlink:href="C28B3BA6.png"  transform="matrix(0.24 0 0 0.24 183.3369 154.0859)">
	</image>
	<g>
		<g>
			<g>
				
					<rect x="184.085" y="174.232" transform="matrix(0.9565 0.2916 -0.2916 0.9565 59.7435 -45.9967)" fill="#00374B" width="0.167" height="6.361"/>
			</g>
		</g>
	</g>
	<image width="7" height="48" xlink:href="C28B3BA5.png"  transform="matrix(0.24 0 0 0.24 192.667 165.4956)">
	</image>
	<g>
		<g>
			<g>
				<path fill="#00374B" d="M145.821,238.357l-0.316-0.102c0.013-0.074,1.402-7.328,0.896-14.737
					c-0.015-0.185-1.35-18.565-1.285-23.272c0.037-0.953,0.925-23.262,1.402-24.517c0.018-0.079,0.605-2.454,2.466-2.454
					c0.477,0,0.998,0.164,1.546,0.485c0.118,0.065,12.56,6.751,20.566,7.173c-0.004-0.001,0.174-0.026,0.424-0.026
					c1.302,0,2.051,0.602,2.051,1.65c-0.014,0.201-1.404,18.973-4.12,26.783c-0.005,0.028-1.002,4.896-1.127,6.917
					c-0.006,0.094-0.687,9.328-4.446,14.327c-0.101,0.406-1.083,4.408-1.144,5.845l-0.006,0.149l-0.751,0.062
					c0.006,0.236-0.027,0.663-0.311,1.014c-0.272,0.338-0.702,0.521-1.277,0.544l-6.954-0.387c-0.038-0.005-2.183-0.357-2.761-2.707
					l-1.922-0.116C148.384,235.351,146.217,237.507,145.821,238.357z M148.625,234.645l2.32,0.142l0.028,0.124
					c0.483,2.237,2.475,2.563,2.495,2.568l6.922,0.384c0.456-0.02,0.802-0.159,1.012-0.415c0.313-0.388,0.227-0.926,0.227-0.932
					l-0.03-0.18l0.807-0.068c0.119-1.646,1.109-5.622,1.152-5.797l0.031-0.06c3.717-4.915,4.393-14.083,4.398-14.175
					c0.129-2.042,1.129-6.935,1.139-6.982c2.709-7.794,4.096-26.52,4.11-26.708c0-1.075-0.935-1.304-1.717-1.304
					c-0.237,0-0.402,0.025-0.406,0.025c-8.116-0.425-20.625-7.147-20.75-7.214c-0.501-0.294-0.963-0.442-1.38-0.442
					c-1.595,0-2.142,2.195-2.147,2.218c-0.371,0.984-1.068,16.406-1.386,24.426c-0.064,4.688,1.27,23.057,1.284,23.241
					c0.412,6.012-0.418,11.924-0.762,14.021c0.869-1.131,2.514-2.738,2.598-2.822L148.625,234.645z"/>
			</g>
		</g>
	</g>
	<g>
		<g>
			<g>
				<polygon fill="#00374B" points="145.426,199.38 145.269,199.319 146.101,197.145 147.384,183.535 146.421,177.195 
					146.587,177.17 147.551,183.53 146.262,197.195 				"/>
			</g>
		</g>
	</g>
	<g>
		<g>
			<g>
				<path fill="#00374B" d="M150.635,234.946l-0.168-0.004c0.124-5.156,0.07-18.998,0.065-20.046
					c-1.813-0.572-3.228-2.779-4.206-6.563c-0.733-2.834-0.933-5.547-0.935-5.572l0.167-0.013c0.008,0.107,0.816,10.751,5.08,12.005
					l0.061,0.018l0,0.064C150.7,214.98,150.763,229.61,150.635,234.946z"/>
			</g>
		</g>
	</g>
	<g>
		<g>
			<g>
				<path fill="#00374B" d="M161.879,236.493l-0.167-0.012l0.515-7.99l0.013-0.019c0.683-0.994,0.438-5.429,0.435-5.474
					c-0.245-2.211-5.71-2.425-5.765-2.428c-2.302-0.359-3.851,0.276-4.747,0.872c-0.97,0.647-1.406,1.394-1.411,1.399l-0.146-0.084
					c0.018-0.03,1.814-3.061,6.318-2.353c0.222,0.006,5.655,0.22,5.918,2.58c0.011,0.187,0.248,4.488-0.45,5.563L161.879,236.493z"
					/>
			</g>
		</g>
	</g>
	<g>
		<g>
			<g>
				<path fill="#00374B" d="M156.829,220.49l-0.065-3.188l0.032-0.026l3.283-2.715l-3.376-4.971v-3.023l0.034-0.025l7.051-4.936
					c1.228-2.557,1.753-10.807,1.779-11.238l-2.351-6.611c-3.509-0.033-12.037-3.022-12.88-3.322l-2.333,4.161l-0.771,20.927
					c-0.061,4.158,3.008,6.227,3.281,6.402h2.849l1.773,2.692v0.024l0.065,5.846l-0.169,0.002l-0.064-5.821l-1.695-2.576h-2.805
					l-0.021-0.012c-0.034-0.021-3.447-2.133-3.383-6.562l0.773-20.97l0.01-0.018l2.412-4.302l0.067,0.024
					c0.093,0.032,9.346,3.335,12.951,3.335h0.061l0.019,0.057l2.382,6.696v0.019c-0.022,0.354-0.531,8.72-1.808,11.34l-0.009,0.02
					l-0.018,0.013l-7.032,4.922v2.887l3.433,5.054l-0.059,0.048l-3.31,2.737l0.065,3.106L156.829,220.49z"/>
			</g>
		</g>
	</g>
	<g>
		<g>
			<g>
				
					<rect x="162.194" y="210.022" transform="matrix(0.6539 0.7566 -0.7566 0.6539 217.1396 -49.1354)" fill="#00374B" width="0.167" height="5.513"/>
			</g>
		</g>
	</g>
	<g>
		<g>
			<g>
				<path fill="#00374B" d="M167.379,215.04c-0.098,0-0.196-0.02-0.289-0.066l-0.019-0.012l-0.013-0.017l-3.678-5.55l0.002-0.026
					l0.129-3.254l0.035-0.023c0.047-0.032,4.667-3.273,4.977-4.642l1.03-8.305l0.017-0.021c0.083-0.095,2.035-2.347,2.903-2.213
					l-0.025,0.169c-0.636-0.104-2.174,1.489-2.734,2.135l-1.026,8.264c-0.315,1.389-4.551,4.402-5.01,4.727l-0.126,3.144
					l3.634,5.481c0.455,0.2,1.163-0.437,1.17-0.444l0.115,0.123C168.443,214.537,167.888,215.04,167.379,215.04z"/>
			</g>
		</g>
	</g>
	<g>
		<g>
			<g>
				<path fill="#00374B" d="M167.293,193.332l0.269-2.63l0.021-0.022c0.055-0.053,5.381-5.402,5.694-7.533l0.168,0.022
					c-0.314,2.14-5.298,7.186-5.72,7.609l-0.246,2.382l2.153-0.063l0.005,0.168L167.293,193.332z"/>
			</g>
		</g>
	</g>
	<g>
		<g>
			<g>
				<polygon fill="#00374B" points="168.928,197.991 167.302,196.104 167.302,193.246 167.471,193.246 167.471,196.039 
					169.056,197.88 				"/>
			</g>
		</g>
	</g>
	<g>
		<g>
			<g>
				
					<rect x="147.13" y="183.974" transform="matrix(0.4007 0.9162 -0.9162 0.4007 257.1508 -25.0081)" fill="#00374B" width="1.122" height="0.167"/>
			</g>
		</g>
	</g>
	<g>
		<g>
			<g>
				<path fill="#00374B" d="M157.549,216.681l-3.652-5.449c-0.112-0.078-1.008-0.684-1.997-0.684h-0.962
					c-0.046-0.007-3.232-0.653-3.747-6.179l0.167-0.017c0.263,2.821,1.228,4.312,1.991,5.063c0.824,0.814,1.597,0.966,1.604,0.966
					h0.948c1.109,0,2.067,0.692,2.105,0.723l0.021,0.02l3.662,5.463L157.549,216.681z"/>
			</g>
		</g>
	</g>
	<g>
		<g>
			<g>
				<path fill="#00374B" d="M152.401,205.915c-1.239,0-2.006-0.445-2.02-0.454c-2.129-0.902-3.085-6.193-3.125-6.418l0.166-0.03
					c0.008,0.055,0.979,5.427,3.034,6.298c0.039,0.023,2.895,1.667,6.529-1.59l0.022-0.023h1.742l3.622-2.541l0.643-1.352
					l1.628-0.978l0.087,0.146l-1.584,0.949l-0.642,1.348l-0.017,0.013l-3.685,2.585h-1.729
					C155.245,205.498,153.603,205.915,152.401,205.915z"/>
			</g>
		</g>
	</g>
	<g>
		<g>
			<g>
				<path fill="#00374B" d="M165.315,193.464l-1.734-5.204c0,0-0.443-0.923-1.356-1.165c-0.381-0.091-9.411-2.2-11.074-3.224l0,0
					c-0.006,0-1.162-0.411-1.693,0.178l-1.608,1.673l-0.121-0.116l1.606-1.671c0.608-0.676,1.836-0.231,1.888-0.212
					c1.655,1.015,10.949,3.187,11.042,3.209c0.993,0.263,1.451,1.226,1.469,1.268l1.738,5.212L165.315,193.464z"/>
			</g>
		</g>
	</g>
	<image width="28" height="172" xlink:href="C28B3C4D.png"  transform="matrix(0.24 0 0 0.24 162.3584 181)">
	</image>
	<image width="62" height="271" xlink:href="C28B3C4B.png"  transform="matrix(0.24 0 0 0.24 148.1992 174.2817)">
	</image>
	<g>
		<g>
			<g>
				<path fill="#00374B" d="M162.227,228.534c-0.005-0.023-0.434-2.292-4.589-2.458c-0.057-0.001-5.635-0.238-7.05,1.175
					l-0.118-0.118c1.465-1.465,6.942-1.233,7.174-1.224c4.302,0.172,4.732,2.499,4.749,2.597L162.227,228.534z"/>
			</g>
		</g>
	</g>
	<image width="51" height="13" xlink:href="C28B3C45.png"  transform="matrix(0.24 0 0 0.24 150.5908 224.7861)">
	</image>
	<image width="4" height="70" xlink:href="C28B3C47.png"  transform="matrix(0.24 0 0 0.24 152.6431 221.0059)">
	</image>
	<image width="6" height="69" xlink:href="C28B3C44.png"  transform="matrix(0.24 0 0 0.24 160.2988 221.708)">
	</image>
	<g>
		<g>
			<g>
				<path fill="#00374B" d="M162.033,232.124c-0.001-0.024-0.244-2.478-4.395-2.643c-0.057-0.003-5.635-0.238-7.05,1.176
					l-0.118-0.119c1.465-1.466,6.942-1.234,7.174-1.225c2.243,0.091,3.36,0.84,3.904,1.453c0.595,0.671,0.651,1.317,0.653,1.346
					L162.033,232.124z"/>
			</g>
		</g>
	</g>
	<g>
		<g>
			<g>
				<path fill="#00374B" d="M161.842,234.765c0-0.006-0.078-0.49-0.659-0.987c-0.544-0.467-1.647-1.038-3.823-1.126
					c-0.058-0.004-5.23-0.514-6.642,0.897l-0.118-0.119c1.466-1.468,6.556-0.967,6.771-0.946c4.299,0.173,4.625,2.173,4.637,2.259
					L161.842,234.765z"/>
			</g>
		</g>
	</g>
	<g>
		<g>
			<g>
				<path fill="#00374B" d="M158.182,301.721H151.2l-3.191-5.951l-3.345-1.593l-0.226,1.529l-2.024,2.851l-0.57-0.569l0.057-0.11
					c2.019-3.867,2.548-8.546,2.552-8.593c0.506-10.81-1.435-21.092-1.455-21.194c-1.084-3.168-0.405-7.796-0.347-8.18l-0.426-6.406
					c-1.024-7.752,3.574-15.863,3.62-15.943l0.29,0.168c-0.046,0.078-4.585,8.094-3.577,15.741l0.431,6.455l-0.002,0.02
					c-0.008,0.048-0.751,4.88,0.335,8.059c0.025,0.126,1.974,10.447,1.466,21.308c-0.006,0.058-0.532,4.712-2.533,8.611l0.115,0.117
					l1.747-2.462l0.283-1.897l3.853,1.835l3.147,5.871h6.552l1.916-4.911c-0.092-0.839-1.178-10.96-0.594-13.89
					c0.007-0.063,0.987-7.657,4.72-17.245c0.018-0.048,1.814-5.4,1.464-7.618l-0.646-0.275l0.032-0.138
					c0.323-1.363,0.734-3.67,0.455-4.062l-0.075-0.104l0.08-0.099c0.001-0.001,0.301-0.419,0.221-1.684
					c-0.01-0.103-1.131-11.013-3.108-14.86l0.3-0.154c2.004,3.905,3.097,14.536,3.142,14.987c0.069,1.097-0.124,1.622-0.23,1.823
					c0.309,0.759-0.241,3.293-0.426,4.093l0.552,0.236l0.016,0.088c0.434,2.244-1.384,7.652-1.459,7.881
					c-3.723,9.557-4.697,17.111-4.707,17.187c-0.588,2.951,0.589,13.73,0.601,13.839l0.004,0.04L158.182,301.721z"/>
			</g>
		</g>
	</g>
	<g>
		<g>
			<g>
				<path fill="#00374B" d="M142.646,254.875l-0.166-0.025c0.038-0.235,0.944-5.751,1.032-6.012l0.07-0.211l0.086,0.204
					c0.01,0.027,1.148,2.618,5.242,3.035l12.679,1.028c0.028,0.003,2.561,0.327,4.06-0.673l0.091,0.141
					c-1.55,1.033-4.063,0.712-4.169,0.699l-12.675-1.029c-3.502-0.356-4.896-2.278-5.27-2.924
					C143.448,250.022,142.877,253.465,142.646,254.875z"/>
			</g>
		</g>
	</g>
	<g>
		<g>
			<g>
				
					<rect x="140.583" y="253.879" transform="matrix(0.0766 0.9971 -0.9971 0.0766 385.6143 91.5611)" fill="#00374B" width="5.586" height="0.168"/>
			</g>
		</g>
	</g>
	<g>
		<g>
			<g>
				<path fill="#00374B" d="M157.365,269.598c-0.045,0-0.071-0.003-0.073-0.003l-4.966-0.169c-1.088,0-1.279-1.517-1.28-1.531
					l-0.599-8.83c0-0.155-0.042-0.268-0.125-0.338c-0.146-0.127-0.376-0.099-0.38-0.097c0,0,0,0-0.001,0
					c-2.785,0-5.171-2.217-5.643-2.684l-1.404,2.809l-0.149-0.075l1.51-3.02l0.083,0.087c0.024,0.027,2.579,2.716,5.591,2.716
					c0.002-0.002,0.298-0.041,0.501,0.137c0.122,0.104,0.184,0.259,0.184,0.461l0.599,8.818c0.001,0.009,0.174,1.377,1.114,1.377
					l4.973,0.173c0.043,0.002,0.96,0.066,1.114-0.703l1.712-8.142c0.012-0.05,0.282-1.264,1.027-1.264l0.021,0.001
					c0.029,0.01,2.86,0.726,4.015-1.583l0.149,0.075c-1.178,2.354-3.992,1.724-4.197,1.674c-0.602,0.012-0.849,1.123-0.852,1.133
					l-1.712,8.139C158.423,269.537,157.614,269.598,157.365,269.598z"/>
			</g>
		</g>
	</g>
	<g>
		<g>
			<g>
				<path fill="#00374B" d="M162.222,256.577c-0.084,0-0.132-0.001-0.132-0.001l-11.227-1.029c-3.156-0.171-4.607-1.173-4.667-1.215
					c-1.525-0.847-1.654-1.369-1.661-1.426c-0.039-0.225-0.002-0.401,0.105-0.529c0.119-0.139,0.321-0.211,0.598-0.211
					c0.374,0,0.761,0.128,0.777,0.133l0.021,0.008l0.014,0.017c1.165,1.332,3.352,1.598,3.374,1.601l5.998,0.771
					c1.916,0.227,3.625,0.342,5.082,0.342c2.46,0,3.35-0.333,3.358-0.337c0.664-0.333,1.6-1.011,1.609-1.02l0.169-0.121l-0.385,2.12
					l-0.023,0.019C164.268,256.514,162.684,256.577,162.222,256.577z M162.101,256.406c0.002,0,0.046,0.002,0.121,0.002
					c0.444,0,1.955-0.06,2.878-0.819l0.3-1.651c-0.304,0.212-0.961,0.659-1.471,0.915c-0.043,0.018-0.926,0.352-3.426,0.352
					c-1.462,0-3.18-0.117-5.104-0.343l-5.996-0.771c-0.092-0.01-2.253-0.273-3.465-1.638c-0.083-0.027-0.403-0.118-0.702-0.118
					c-0.226,0-0.383,0.051-0.471,0.153c-0.072,0.086-0.096,0.218-0.066,0.393c0,0.002,0.121,0.498,1.585,1.31
					c0.022,0.017,1.485,1.021,4.59,1.19L162.101,256.406L162.101,256.406z"/>
			</g>
		</g>
	</g>
	<g>
		<g>
			<g>
				<path fill="#00374B" d="M159.463,258.15c-1.171,0-2.076-0.05-2.169-0.054c-8.681,0-11.262-2.112-11.688-2.532l-0.646,0.705
					l-0.123-0.114l0.771-0.84l0.062,0.072c0.022,0.025,2.287,2.541,11.63,2.541c0.063,0.003,5.782,0.309,7.411-0.633l0.083,0.146
					C163.772,258.031,161.294,258.15,159.463,258.15z"/>
			</g>
		</g>
	</g>
	<g>
		<g>
			<g>
				<path fill="#00374B" d="M154.31,292.239c-0.092,0-0.164-0.02-0.196-0.027c-0.522-0.009-0.722-0.499-0.755-0.76v-7.722h-2.744
					c-3.612-0.857-6.387-5.904-6.412-5.956l0.146-0.078c0.028,0.05,2.765,5.03,6.286,5.868l2.891-0.003v7.879
					c0.003,0.016,0.086,0.603,0.603,0.603l0.029,0.007c0.002,0,0.203,0.069,0.377-0.04c0.159-0.102,0.253-0.323,0.281-0.66v-7.537
					l0.091,0.007c0.034,0.002,3.475,0.238,4.463-1.246l0.139,0.093c-0.962,1.446-3.953,1.357-4.525,1.327v7.363
					c-0.033,0.4-0.155,0.665-0.362,0.796C154.514,292.22,154.402,292.239,154.31,292.239z"/>
			</g>
		</g>
	</g>
	<g>
		<g>
			<g>
				<rect x="153.442" y="284.247" fill="#00374B" width="1.371" height="0.167"/>
			</g>
		</g>
	</g>
	<g>
		<g>
			<g>
				<path fill="#00374B" d="M144.612,293.952l-0.16-0.048c1.226-4.169,1.757-9.585,1.795-9.984l-1.702-3.492l0.15-0.074l1.725,3.533
					l-0.003,0.023C146.411,283.968,145.885,289.625,144.612,293.952z"/>
			</g>
		</g>
	</g>
	<g>
		<g>
			<g>
				
					<rect x="146.292" y="280.819" transform="matrix(0.9994 0.0348 -0.0348 0.9994 9.9038 -4.9176)" fill="#00374B" width="0.169" height="3.085"/>
			</g>
		</g>
	</g>
	<g>
		<g>
			<g>
				<polygon fill="#00374B" points="156.737,268.245 156.574,268.211 158.095,261.176 153.006,260.927 152.499,268.04 
					152.331,268.028 152.851,260.75 158.299,261.018 				"/>
			</g>
		</g>
	</g>
	<g>
		<g>
			<g>
				<polygon fill="#00374B" points="157.185,261.564 153.058,261.564 153.058,261.398 157.155,261.398 158.167,261.018 
					158.227,261.174 				"/>
			</g>
		</g>
	</g>
	<image width="3" height="27" xlink:href="C28B3C5B.png"  transform="matrix(0.24 0 0 0.24 156.6367 261.4756)">
	</image>
	<image width="4" height="25" xlink:href="C28B3C5D.png"  transform="matrix(0.24 0 0 0.24 152.4604 260.9561)">
	</image>
	<image width="23" height="283" xlink:href="C28B3C5F.png"  transform="matrix(0.24 0 0 0.24 146.2393 238.0361)">
	</image>
	<image width="25" height="278" xlink:href="C28B3C5C.png"  transform="matrix(0.24 0 0 0.24 157.0488 239.2393)">
	</image>
	<g>
		<g>
			<g>
				<path fill="#00374B" d="M159.327,306.027l-8.168-0.006l-6.061-2.837l-0.011-0.021c-1.224-1.737-0.906-7.291-0.895-7.527
					l0.17,0.011c-0.004,0.057-0.325,5.69,0.85,7.402l6.002,2.812h8.039l1.132-1.259l0.125,0.112L159.327,306.027z"/>
			</g>
		</g>
	</g>
	<g>
		<g>
			<g>
				<path fill="#00374B" d="M159.066,313.181h-19.18c-1.372-0.216-0.929-3.598-0.874-3.984l1.742-5.232l1.351-3.604l0.767-2.812
					l0.324,0.088l-0.77,2.827l-1.355,3.613l-1.733,5.198c-0.182,1.296-0.194,3.45,0.574,3.572l18.96-0.003l1.532-2.699l-0.256-5.205
					l0.448-0.769l-0.702-7.463l0.334-0.032l0.711,7.57l-0.452,0.777l0.257,5.201L159.066,313.181z"/>
			</g>
		</g>
	</g>
	<g>
		<g>
			<g>
				<polygon fill="#00374B" points="139.121,311.195 138.98,311.103 140.703,308.484 141.216,303.173 141.384,303.189 
					140.856,308.561 				"/>
			</g>
		</g>
	</g>
	<image width="47" height="16" xlink:href="C28B3C46.png"  transform="matrix(0.24 0 0 0.24 147.9219 309.2646)">
	</image>
	<image width="2" height="15" xlink:href="C28B3C60.png"  transform="matrix(0.24 0 0 0.24 158.7563 305.916)">
	</image>
	<image width="35" height="52" xlink:href="C28B3C63.png"  transform="matrix(0.24 0 0 0.24 143.3408 297.0059)">
	</image>
	<image width="5" height="19" xlink:href="C28B3C61.png"  transform="matrix(0.24 0 0 0.24 140.5649 308.499)">
	</image>
	<g>
		<g>
			<g>
				<g>
					<path fill="#00374B" d="M204.243,238.314c-0.397-0.849-2.564-3.005-2.934-3.368l-1.92,0.116
						c-0.579,2.351-2.722,2.702-2.743,2.705l-6.956,0.388c-0.591-0.021-1.021-0.205-1.293-0.543
						c-0.285-0.351-0.317-0.778-0.31-1.015l-0.752-0.063l-0.007-0.148c-0.061-1.437-1.045-5.438-1.144-5.844
						c-3.76-5-4.44-14.233-4.446-14.325c-0.127-2.021-1.123-6.891-1.133-6.939c-2.712-7.79-4.102-26.563-4.115-26.751
						c0-1.061,0.748-1.661,2.05-1.661c0.265,0,0.448,0.026,0.456,0.027c7.975-0.424,20.417-7.111,20.542-7.179
						c0.542-0.32,1.062-0.482,1.54-0.482c1.86,0,2.448,2.375,2.473,2.476c0.469,1.233,1.358,23.542,1.395,24.491
						c0.065,4.711-1.271,23.093-1.285,23.278c-0.505,7.408,0.884,14.66,0.897,14.733L204.243,238.314z M187.656,236.226l0.807,0.067
						l-0.03,0.181c0,0.005-0.086,0.545,0.227,0.932c0.21,0.257,0.556,0.396,1.028,0.415l6.923-0.386
						c0.067-0.012,1.997-0.335,2.479-2.568l0.026-0.123l2.323-0.142l0.052,0.053c0.087,0.084,1.729,1.69,2.6,2.821
						c-0.345-2.099-1.175-8.008-0.764-14.021c0.014-0.186,1.349-18.553,1.285-23.245c-0.317-8.018-1.017-23.439-1.381-24.402
						c-0.012-0.042-0.558-2.239-2.152-2.239c-0.417,0-0.879,0.149-1.375,0.439c-0.132,0.071-12.641,6.794-20.724,7.22
						c-0.034-0.002-0.201-0.025-0.439-0.025c-0.781,0-1.714,0.228-1.714,1.314c0.013,0.176,1.398,18.903,4.104,26.673
						c0.015,0.07,1.015,4.961,1.144,7.006c0.006,0.091,0.684,9.26,4.399,14.173l0.029,0.061
						C186.546,230.603,187.537,234.578,187.656,236.226z"/>
				</g>
			</g>
		</g>
		<g>
			<g>
				<g>
					<polygon fill="#00374B" points="204.639,199.337 203.797,197.13 202.511,183.51 203.478,177.125 203.642,177.152 
						202.678,183.513 203.963,197.103 204.792,199.277 					"/>
				</g>
			</g>
		</g>
		<g>
			<g>
				<g>
					<path fill="#00374B" d="M199.428,234.905c-0.127-5.337-0.065-19.967-0.065-20.113l0.001-0.063l0.059-0.018
						c4.266-1.255,5.075-11.898,5.081-12.005l0.167,0.012c-0.001,0.027-0.2,2.739-0.933,5.573c-0.979,3.784-2.393,5.99-4.206,6.563
						c-0.004,1.048-0.058,14.891,0.065,20.047L199.428,234.905z"/>
				</g>
			</g>
		</g>
		<g>
			<g>
				<g>
					<path fill="#00374B" d="M188.184,236.449l-0.513-7.943c-0.699-1.074-0.462-5.376-0.452-5.559
						c0.263-2.363,5.696-2.577,5.93-2.585c4.493-0.707,6.289,2.325,6.307,2.355l-0.145,0.083c-0.005-0.007-0.439-0.749-1.412-1.397
						c-0.896-0.598-2.444-1.234-4.735-0.874c-0.065,0.003-5.532,0.218-5.776,2.432c-0.002,0.041-0.246,4.477,0.436,5.469
						l0.015,0.019v0.024l0.514,7.967L188.184,236.449z"/>
				</g>
			</g>
		</g>
		<g>
			<g>
				<g>
					<path fill="#00374B" d="M193.234,220.447l-0.169-0.002l0.065-3.107l-3.369-2.787l3.434-5.055v-2.885l-7.051-4.936l-0.009-0.02
						c-1.277-2.617-1.787-10.983-1.808-11.34V190.3l0.006-0.015l2.396-6.739h0.061c3.604,0,12.856-3.302,12.951-3.336l0.066-0.025
						l2.421,4.343L203,205.473c0.065,4.432-3.347,6.543-3.382,6.563l-0.021,0.012h-2.803l-1.697,2.576l-0.065,5.823l-0.167-0.002
						l0.065-5.873l0.013-0.02l1.76-2.672h2.849c0.273-0.176,3.342-2.244,3.28-6.404l-0.771-20.923l-2.332-4.162
						c-0.845,0.299-9.371,3.287-12.881,3.322l-2.353,6.61c0.028,0.433,0.552,8.684,1.781,11.239l7.086,4.96v3.026l-0.014,0.021
						l-3.364,4.949l3.313,2.739v0.042L193.234,220.447z"/>
				</g>
			</g>
		</g>
		<g>
			<g>
				<g>
					
						<rect x="185.029" y="212.652" transform="matrix(0.7576 0.6527 -0.6527 0.7576 184.3741 -71.0039)" fill="#00374B" width="5.512" height="0.168"/>
				</g>
			</g>
		</g>
		<g>
			<g>
				<g>
					<path fill="#00374B" d="M182.685,214.996c-0.51,0-1.064-0.502-1.093-0.527l0.114-0.124c0.008,0.008,0.711,0.648,1.171,0.445
						l3.635-5.481l-0.126-3.146c-0.461-0.324-4.699-3.338-5.011-4.717l-1.026-8.272c-0.562-0.646-2.104-2.235-2.734-2.137
						l-0.026-0.166c0.876-0.138,2.822,2.117,2.903,2.214l0.018,0.02l0.004,0.023l1.026,8.288c0.309,1.359,4.931,4.6,4.978,4.633
						l0.034,0.024l0.131,3.282l-0.016,0.021l-3.675,5.545l-0.02,0.009C182.88,214.977,182.783,214.996,182.685,214.996z"/>
				</g>
			</g>
		</g>
		<g>
			<g>
				<g>
					<path fill="#00374B" d="M182.771,193.29l-2.347-0.067l0.005-0.167l2.154,0.061l-0.244-2.381
						c-0.423-0.423-5.408-5.468-5.721-7.607l0.164-0.024c0.316,2.133,5.643,7.48,5.695,7.534l0.022,0.021l0.004,0.029
						L182.771,193.29z"/>
				</g>
			</g>
		</g>
		<g>
			<g>
				<g>
					<polygon fill="#00374B" points="181.135,197.947 181.008,197.838 182.594,195.999 182.594,193.202 182.762,193.202 
						182.762,196.062 					"/>
				</g>
			</g>
		</g>
		<g>
			<g>
				<g>
					
						<rect x="202.287" y="183.454" transform="matrix(0.9124 0.4094 -0.4094 0.9124 93.0703 -66.7213)" fill="#00374B" width="0.167" height="1.122"/>
				</g>
			</g>
		</g>
		<g>
			<g>
				<g>
					<path fill="#00374B" d="M192.513,216.638l-0.139-0.094l3.683-5.481c0.039-0.029,0.998-0.725,2.105-0.725h0.963
						c-0.007,0,0.766-0.15,1.59-0.963c0.763-0.755,1.729-2.243,1.989-5.065l0.169,0.018c-0.515,5.523-3.699,6.172-3.731,6.179
						l-0.979,0.001c-0.988,0-1.885,0.605-1.995,0.684L192.513,216.638z"/>
				</g>
			</g>
		</g>
		<g>
			<g>
				<g>
					<path fill="#00374B" d="M197.662,205.873c-1.198,0-2.841-0.417-4.673-2.05h-1.729l-0.021-0.013l-3.684-2.584l-0.641-1.347
						l-1.582-0.95l0.086-0.144l1.626,0.977l0.646,1.353l3.622,2.542h1.74l0.024,0.021c3.638,3.263,6.491,1.614,6.519,1.598
						c2.065-0.878,3.034-6.251,3.044-6.304l0.166,0.028c-0.04,0.226-0.997,5.518-3.136,6.425
						C199.663,205.43,198.898,205.873,197.662,205.873z"/>
				</g>
			</g>
		</g>
		<g>
			<g>
				<g>
					<path fill="#00374B" d="M184.749,193.422l-0.161-0.054l1.737-5.203c0.022-0.05,0.48-1.011,1.471-1.275
						c0.097-0.022,9.39-2.194,11.029-3.203c0.066-0.026,1.296-0.468,1.904,0.209l1.604,1.667l-0.121,0.117l-1.605-1.67
						c-0.535-0.595-1.698-0.178-1.709-0.174c-1.648,1.018-10.679,3.126-11.062,3.216c-0.914,0.244-1.353,1.166-1.356,1.175
						L184.749,193.422z"/>
				</g>
			</g>
		</g>
		<image width="28" height="172" xlink:href="C28B3C67.png"  transform="matrix(0.24 0 0 0.24 181.1279 180.957)">
		</image>
		<image width="62" height="271" xlink:href="C28B3C62.png"  transform="matrix(0.24 0 0 0.24 187.1152 174.2393)">
		</image>
		<g>
			<g>
				<g>
					<path fill="#00374B" d="M187.837,228.491l-0.166-0.026c0.017-0.1,0.446-2.427,4.748-2.6c0.232-0.009,5.709-0.241,7.172,1.226
						l-0.117,0.118c-1.414-1.412-6.992-1.179-7.048-1.175C188.258,226.201,187.841,228.468,187.837,228.491z"/>
				</g>
			</g>
		</g>
		<image width="51" height="13" xlink:href="C28B3C6D.png"  transform="matrix(0.24 0 0 0.24 187.2852 224.7432)">
		</image>
		<image width="4" height="70" xlink:href="C28B3C6E.png"  transform="matrix(0.24 0 0 0.24 196.5352 220.9639)">
		</image>
		<image width="6" height="69" xlink:href="C28B3C6F.png"  transform="matrix(0.24 0 0 0.24 188.3975 221.665)">
		</image>
		<g>
			<g>
				<g>
					<path fill="#00374B" d="M188.028,232.083l-0.166-0.013c0.002-0.026,0.248-2.627,4.557-2.799
						c0.232-0.01,5.709-0.241,7.172,1.225l-0.117,0.118c-1.414-1.414-6.992-1.178-7.048-1.175
						C188.264,229.606,188.032,232.058,188.028,232.083z"/>
				</g>
			</g>
		</g>
		<g>
			<g>
				<g>
					<path fill="#00374B" d="M188.222,234.722l-0.166-0.023c0.011-0.085,0.337-2.085,4.643-2.257c0.211-0.021,5.3-0.521,6.767,0.946
						l-0.12,0.117c-1.411-1.41-6.584-0.902-6.636-0.896c-2.181,0.086-3.284,0.659-3.829,1.125
						C188.3,234.232,188.223,234.718,188.222,234.722z"/>
				</g>
			</g>
		</g>
		<g>
			<g>
				<g>
					<path fill="#00374B" d="M198.863,301.678h-6.982l-2.028-5.199l0.005-0.042c0.013-0.108,1.189-10.889,0.603-13.827
						c-0.011-0.087-0.987-7.643-4.705-17.191c-0.078-0.236-1.897-5.642-1.464-7.889l0.016-0.087l0.554-0.237
						c-0.185-0.799-0.735-3.334-0.425-4.093c-0.107-0.2-0.302-0.726-0.233-1.815c0.048-0.457,1.141-11.091,3.146-14.994l0.297,0.154
						c-1.977,3.849-3.098,14.759-3.107,14.866c-0.08,1.258,0.221,1.676,0.222,1.682l0.074,0.098l-0.069,0.102
						c-0.282,0.392,0.13,2.698,0.454,4.062l0.032,0.138l-0.646,0.277c-0.352,2.216,1.448,7.568,1.468,7.622
						c3.728,9.583,4.709,17.178,4.718,17.254c0.585,2.914-0.503,13.036-0.596,13.876l1.916,4.91h6.552l3.147-5.871l3.853-1.836
						l0.284,1.899l1.748,2.46l0.114-0.114c-2.001-3.902-2.527-8.556-2.531-8.603c-0.51-10.87,1.439-21.192,1.459-21.295
						c1.092-3.202,0.35-8.032,0.341-8.081l-0.003-0.02l0.001-0.02l0.428-6.425c1.011-7.659-3.53-15.673-3.575-15.754l0.289-0.167
						c0.047,0.081,4.644,8.192,3.62,15.954l-0.426,6.396c0.06,0.382,0.737,5.011-0.353,8.201
						c-0.014,0.079-1.955,10.364-1.447,21.183c0.004,0.036,0.534,4.717,2.552,8.583l0.057,0.11l-0.57,0.568l-2.024-2.849
						l-0.227-1.53l-3.344,1.592L198.863,301.678z"/>
				</g>
			</g>
		</g>
		<g>
			<g>
				<g>
					<path fill="#00374B" d="M207.419,254.835c-0.232-1.413-0.804-4.855-0.98-5.769c-0.373,0.645-1.769,2.568-5.269,2.924
						l-12.683,1.028c-0.1,0.015-2.613,0.334-4.163-0.699l0.092-0.139c1.498,0.998,4.029,0.674,4.056,0.672l12.683-1.029
						c4.094-0.417,5.23-3.007,5.241-3.033l0.086-0.205l0.069,0.213c0.089,0.259,0.993,5.775,1.032,6.009L207.419,254.835z"/>
				</g>
			</g>
		</g>
		<g>
			<g>
				<g>
					
						<rect x="206.604" y="251.128" transform="matrix(0.9961 0.0879 -0.0879 0.9961 23.118 -17.1838)" fill="#00374B" width="0.167" height="5.586"/>
				</g>
			</g>
		</g>
		<g>
			<g>
				<g>
					<path fill="#00374B" d="M192.698,269.556c-0.247,0-1.059-0.061-1.215-0.842l-1.713-8.137c-0.003-0.012-0.247-1.121-0.85-1.133
						c-0.207,0.052-3.021,0.681-4.198-1.674l0.15-0.076c1.157,2.313,3.987,1.593,4.016,1.587l0.021-0.004
						c0.745,0,1.013,1.214,1.024,1.266l1.714,8.138c0.153,0.772,1.069,0.707,1.111,0.704l4.972-0.17
						c0.945,0,1.117-1.369,1.119-1.383l0.598-8.82c0-0.196,0.063-0.35,0.185-0.455c0.203-0.178,0.5-0.139,0.512-0.137
						c3.002,0,5.556-2.687,5.582-2.714l0.083-0.087l1.508,3.019l-0.148,0.074l-1.404-2.807c-0.47,0.467-2.857,2.683-5.631,2.683
						c-0.015-0.002-0.247-0.031-0.393,0.096c-0.082,0.072-0.123,0.185-0.123,0.334l-0.601,8.831
						c-0.002,0.02-0.192,1.534-1.283,1.534l-4.965,0.172C192.767,269.555,192.741,269.556,192.698,269.556z"/>
				</g>
			</g>
		</g>
		<g>
			<g>
				<g>
					<path fill="#00374B" d="M187.842,256.534c-0.462,0-2.045-0.063-3.009-0.878l-0.025-0.021l-0.003-0.029l-0.382-2.091l0.17,0.123
						c0.01,0.008,0.946,0.687,1.615,1.021c0.002,0,0.893,0.332,3.351,0.332c0.002,0,0.002,0,0.002,0
						c1.456,0,3.166-0.112,5.083-0.341l5.995-0.771c0.023-0.003,2.211-0.27,3.373-1.598l0.015-0.018l0.022-0.008
						c0.017-0.005,0.403-0.132,0.776-0.132c0.278,0,0.479,0.069,0.598,0.211c0.107,0.126,0.144,0.305,0.106,0.527
						c-0.009,0.057-0.136,0.579-1.669,1.431c-0.054,0.038-1.504,1.039-4.662,1.21l-11.222,1.029
						C187.973,256.533,187.927,256.534,187.842,256.534z M184.965,255.547c1.085,0.896,2.994,0.818,3.002,0.818l11.219-1.028
						c3.106-0.168,4.571-1.175,4.585-1.185c1.472-0.818,1.593-1.313,1.593-1.318c0.03-0.17,0.007-0.301-0.067-0.389
						c-0.087-0.103-0.245-0.153-0.471-0.153c-0.299,0-0.618,0.093-0.703,0.116c-1.209,1.366-3.372,1.629-3.462,1.64l-5.997,0.771
						c-1.924,0.228-3.642,0.343-5.103,0.343c0,0,0,0-0.002,0c-2.498,0-3.381-0.334-3.418-0.348
						c-0.516-0.257-1.174-0.705-1.479-0.918L184.965,255.547z"/>
				</g>
			</g>
		</g>
		<g>
			<g>
				<g>
					<path fill="#00374B" d="M190.596,258.106c-1.829,0-4.306-0.118-5.325-0.705l0.083-0.147c1.63,0.94,7.349,0.635,7.406,0.632
						c9.367,0,11.612-2.515,11.634-2.541l0.063-0.072l0.771,0.841l-0.123,0.113l-0.646-0.704c-0.429,0.419-3.007,2.531-11.692,2.531
						C192.676,258.059,191.769,258.106,190.596,258.106z"/>
				</g>
			</g>
		</g>
		<g>
			<g>
				<g>
					<path fill="#00374B" d="M195.754,292.197c-0.093,0-0.203-0.019-0.313-0.087c-0.208-0.132-0.329-0.396-0.362-0.789v-7.371
						c-0.57,0.031-3.562,0.119-4.524-1.326l0.14-0.094c0.989,1.484,4.428,1.25,4.463,1.247l0.091-0.007v7.545
						c0.028,0.329,0.123,0.552,0.283,0.653c0.175,0.111,0.373,0.039,0.373,0.038l0.031-0.005c0.519,0,0.598-0.588,0.602-0.611
						l-0.002-7.869h2.912c3.5-0.836,6.239-5.819,6.267-5.868l0.147,0.08c-0.027,0.051-2.801,5.097-6.395,5.953l-2.762,0.002v7.712
						c-0.035,0.271-0.233,0.761-0.756,0.77C195.917,292.179,195.847,292.197,195.754,292.197z"/>
				</g>
			</g>
		</g>
		<g>
			<g>
				<g>
					<rect x="195.249" y="284.206" fill="#00374B" width="1.372" height="0.166"/>
				</g>
			</g>
		</g>
		<g>
			<g>
				<g>
					<path fill="#00374B" d="M205.449,293.91c-1.271-4.327-1.798-9.986-1.803-10.041l-0.001-0.024l0.01-0.021l1.712-3.512
						l0.152,0.072l-1.704,3.491c0.039,0.402,0.57,5.817,1.796,9.985L205.449,293.91z"/>
				</g>
			</g>
		</g>
		<g>
			<g>
				<g>
					
						<rect x="202.144" y="282.234" transform="matrix(0.0275 0.9996 -0.9996 0.0275 480.2909 70.9354)" fill="#00374B" width="3.086" height="0.167"/>
				</g>
			</g>
		</g>
		<g>
			<g>
				<g>
					<polygon fill="#00374B" points="193.325,268.203 191.762,260.975 197.212,260.709 197.217,260.791 197.731,267.988 
						197.564,268 197.057,260.883 191.969,261.133 193.489,268.168 					"/>
				</g>
			</g>
		</g>
		<g>
			<g>
				<g>
					<polygon fill="#00374B" points="197.006,261.522 192.864,261.518 191.835,261.133 191.895,260.975 192.909,261.355 
						197.006,261.355 					"/>
				</g>
			</g>
		</g>
		<image width="3" height="27" xlink:href="C28B3C64.png"  transform="matrix(0.24 0 0 0.24 192.8096 261.4336)">
		</image>
		<image width="4" height="25" xlink:href="C28B3C65.png"  transform="matrix(0.24 0 0 0.24 196.665 260.9141)">
		</image>
		<image width="23" height="283" xlink:href="C28B3C0F.png"  transform="matrix(0.24 0 0 0.24 198.3291 237.9941)">
		</image>
		<image width="25" height="278" xlink:href="C28B3C0D.png"  transform="matrix(0.24 0 0 0.24 187.0547 239.1973)">
		</image>
		<g>
			<g>
				<g>
					<path fill="#00374B" d="M198.888,305.985h-8.152l-1.18-1.313l0.124-0.111l1.131,1.258h8.04l6.003-2.811
						c1.174-1.714,0.854-7.345,0.85-7.403l0.168-0.01c0.013,0.236,0.329,5.79-0.894,7.528l-0.013,0.018l-0.02,0.01L198.888,305.985z
						"/>
				</g>
			</g>
		</g>
		<g>
			<g>
				<g>
					<path fill="#00374B" d="M191.094,313.137h-0.098l-1.679-2.954l0.003-0.049l0.255-5.153l-0.453-0.775l0.005-0.055l0.708-7.516
						l0.334,0.03l-0.701,7.464l0.447,0.767l-0.002,0.052l-0.254,5.155l1.534,2.699h18.984c0.836-0.134,0.668-2.707,0.539-3.6
						l-1.727-5.175l-1.348-3.592l-0.776-2.842l0.324-0.089l0.771,2.827l1.345,3.583l1.737,5.211
						c0.061,0.414,0.505,3.797-0.841,4.009L191.094,313.137z"/>
				</g>
			</g>
		</g>
		<g>
			<g>
				<g>
					<polygon fill="#00374B" points="210.942,311.152 209.193,308.479 208.68,303.147 208.847,303.131 209.36,308.442 
						211.082,311.061 					"/>
				</g>
			</g>
		</g>
		<image width="47" height="16" xlink:href="C28B3C0B.png"  transform="matrix(0.24 0 0 0.24 190.8799 309.2236)">
		</image>
		<image width="2" height="15" xlink:href="C28B3C05.png"  transform="matrix(0.24 0 0 0.24 190.8818 305.875)">
		</image>
		<image width="35" height="52" xlink:href="C28B3C07.png"  transform="matrix(0.24 0 0 0.24 198.3994 296.9639)">
		</image>
		<image width="5" height="19" xlink:href="C28B3C3A.png"  transform="matrix(0.24 0 0 0.24 208.3506 308.458)">
		</image>
	</g>
	<g>
		<g>
			<g>
				<rect x="173.274" y="181.704" fill="#00374B" width="3.385" height="0.335"/>
			</g>
		</g>
	</g>
</g>
</svg>
