<?xml version="1.0" encoding="utf-8"?>
<!-- Generator: Adobe Illustrator 16.0.0, SVG Export Plug-In . SVG Version: 6.00 Build 0)  -->
<!DOCTYPE svg PUBLIC "-//W3C//DTD SVG 1.1 Tiny//EN" "http://www.w3.org/Graphics/SVG/1.1/DTD/svg11-tiny.dtd">
<svg version="1.1" baseProfile="tiny" id="Layer_1" xmlns="http://www.w3.org/2000/svg" xmlns:xlink="http://www.w3.org/1999/xlink"
	 x="0px" y="0px" width="350px" height="350px" viewBox="0 0 350 350" overflow="scroll" xml:space="preserve">
<g>
	<path fill="#AEC4BE" d="M187.362,295.494c-4.833,0-8.837-3.916-8.837-8.75v-12.857c0-0.418,0.029-0.828,0.085-1.229v-5.313h-1.303
		v19.398c0,4.834-3.918,8.75-8.751,8.75h-30.381c-4,0-7.49-2.711-8.479-6.584l-0.42-1.648c-0.237-0.93-0.462-1.877-0.682-2.832
		c-0.074-0.318-0.149-0.66-0.226-1.002c-0.138-0.625-0.272-1.258-0.403-1.895l-0.219-1.064c-0.162-0.826-0.318-1.65-0.466-2.479
		l-0.456-2.574c-0.06-0.336-0.099-0.672-0.12-1.008c-0.893-6-1.406-12.227-1.534-18.621c-0.288,0.01-0.576,0.016-0.862,0.016
		c-6.828,0-13.333-2.938-17.849-8.061c-4.513-5.117-6.609-11.959-5.751-18.768c0.525-4.164,2.199-8.141,4.798-11.49
		c0.9-7.264,3.308-14.182,6.911-20.117c-12.362-6.57-20.604-19.553-20.609-34.377v-1.047c-0.007-0.141-0.01-0.281-0.01-0.422V148.08
		c0-0.107,0.001-0.214,0.006-0.321l-0.016-50.184c-0.006-19.823,15.086-36.541,34.634-38.708c0.682-0.171,1.396-0.261,2.131-0.261
		h28.675c0.107,0,0.215,0.002,0.323,0.006l66.085-0.021c0.223,0,0.44,0.006,0.658,0.013l3.076,0.002
		c1.143,0,2.233,0.219,3.234,0.617c18.377,3.321,31.98,19.415,31.986,38.298l0.021,65.417c0.005,14.296-7.886,27.089-19.738,33.86
		c3.768,6.012,6.292,13.074,7.238,20.518c3.918,4.984,5.695,11.375,4.894,17.736c-1.333,10.582-9.98,19.229-20.562,20.561
		c-1.009,0.129-2.029,0.191-3.037,0.191c-0.219,0-0.438-0.002-0.656-0.008c-0.219,11.084-1.592,21.625-4.104,31.467l-0.421,1.648
		c-0.989,3.873-4.479,6.584-8.479,6.584H187.362z"/>
	<path fill="#FFFFFF" d="M182.968,291.412c-4.833,0-8.837-3.918-8.837-8.752v-12.857c0-0.416,0.029-0.826,0.085-1.229v-5.313h-1.303
		v19.398c0,4.834-3.918,8.752-8.751,8.752h-30.381c-4,0-7.49-2.711-8.48-6.586l-0.42-1.648c-0.237-0.93-0.462-1.877-0.682-2.832
		c-0.075-0.318-0.15-0.66-0.226-1.002c-0.138-0.625-0.272-1.258-0.403-1.893l-0.219-1.066c-0.162-0.826-0.318-1.65-0.466-2.479
		l-0.456-2.574c-0.06-0.336-0.099-0.672-0.12-1.008c-0.893-6-1.406-12.227-1.534-18.621c-0.288,0.012-0.576,0.016-0.862,0.016
		c-6.828,0-13.333-2.938-17.849-8.061c-4.513-5.117-6.609-11.957-5.751-18.768c0.526-4.166,2.199-8.141,4.798-11.488
		c0.9-7.266,3.308-14.184,6.911-20.119c-12.362-6.57-20.604-19.553-20.609-34.376v-1.047c-0.007-0.141-0.01-0.282-0.01-0.423
		v-13.441c0-0.107,0.001-0.214,0.006-0.321l-0.016-50.184c-0.006-19.824,15.087-36.542,34.634-38.708
		c0.682-0.171,1.396-0.262,2.131-0.262h28.675c0.107,0,0.215,0.002,0.323,0.006l66.085-0.021c0.223,0,0.44,0.006,0.658,0.013
		l3.076,0.002c1.143,0,2.234,0.219,3.234,0.618c18.377,3.321,31.98,19.415,31.986,38.298l0.021,65.416
		c0.005,14.295-7.886,27.089-19.738,33.86c3.768,6.012,6.292,13.074,7.238,20.518c3.918,4.986,5.695,11.375,4.894,17.736
		c-1.333,10.582-9.98,19.229-20.562,20.561c-1.009,0.129-2.029,0.191-3.037,0.191c-0.219,0-0.438-0.002-0.656-0.008
		c-0.219,11.084-1.592,21.625-4.104,31.467l-0.421,1.648c-0.989,3.875-4.479,6.586-8.479,6.586H182.968z"/>
	<g>
		<g>
			<path fill="#BE1E2D" d="M219.586,188.707c-5.328-3.285-11.104-4.947-16.612-5.736c-2.021-5.393-3.467-8.475-3.467-8.475h-25.942
				h-25.942c0,0-1.439,3.069-3.452,8.434c-5.598,0.771-11.486,2.434-16.91,5.777c-17.676,10.895-20.406,42.533-7.81,46.543
				c12.512,3.98,9.754-10.799,17.604-29.186c-4.951,20.219-8.418,47.607-1.575,74.408h26.494v-28.15h11.591h11.591v28.15h26.494
				c6.66-26.086,3.553-52.727-1.183-72.775c7.024,17.617,4.788,31.414,16.928,27.553
				C239.991,231.24,237.262,199.602,219.586,188.707z"/>
			<path d="M213.349,282.66h-30.381v-28.15h-18.806v28.15h-30.381l-0.421-1.646c-4.114-16.113-4.509-32.42-3.213-46.982
				c-1.559,2.525-3.701,4.059-7.055,4.059c-1.297,0-2.705-0.248-4.304-0.758c-4.887-1.555-8.196-6.568-9.078-13.754
				c-1.473-12,3.776-28.951,16.403-36.734c4.713-2.906,10.249-4.885,16.467-5.887c1.777-4.639,3.007-7.272,3.063-7.391l0.59-1.259
				h54.665l0.591,1.259c0.056,0.119,1.294,2.77,3.079,7.438c6.092,1.018,11.525,2.979,16.166,5.84
				c12.627,7.783,17.876,24.734,16.403,36.734c-0.883,7.188-4.191,12.199-9.078,13.754c-1.599,0.51-3.007,0.758-4.303,0.758h-0.001
				c-3.128,0-5.201-1.334-6.731-3.564c1.236,14.375,0.822,30.523-3.254,46.488L213.349,282.66z M187.344,278.285h22.594
				c6.204-25.963,2.589-52.355-1.6-70.084l4.161-1.314c2.194,5.504,3.528,10.729,4.601,14.926c2.206,8.637,3.352,11.9,6.656,11.902
				l0,0c0.828,0,1.828-0.186,2.977-0.551c3.187-1.016,5.396-4.703,6.061-10.119c1.325-10.799-3.682-25.898-14.354-32.477
				c-4.451-2.742-9.759-4.572-15.776-5.434l-1.283-0.182l-0.455-1.215c-1.226-3.273-2.243-5.695-2.835-7.055h-49.047
				c-0.59,1.355-1.602,3.762-2.822,7.014l-0.458,1.223l-1.292,0.178c-6.14,0.846-11.543,2.686-16.061,5.471
				c-10.673,6.578-15.681,21.678-14.355,32.477c0.665,5.416,2.874,9.104,6.061,10.119c5.729,1.824,6.875-0.549,9.633-11.35
				c1.19-4.664,2.672-10.467,5.295-16.609l4.137,1.379c-4.444,18.146-8.331,45.16-1.988,71.701h22.594v-28.15h27.558V278.285z"/>
		</g>
		<g>
			<path fill="#AED7D7" d="M187.564,212.717c0,7.73-6.268,13.998-14,13.998c-7.731,0-14-6.268-14-13.998
				c0-7.734,6.268-14.002,14-14.002C181.297,198.715,187.564,204.982,187.564,212.717z"/>
			<path d="M173.565,228.902c-8.926,0-16.188-7.262-16.188-16.188c0-8.924,7.262-16.188,16.188-16.188s16.188,7.264,16.188,16.188
				C189.753,221.641,182.491,228.902,173.565,228.902z M173.565,200.904c-6.513,0-11.813,5.297-11.813,11.811
				s5.299,11.813,11.813,11.813s11.812-5.299,11.812-11.813S180.078,200.904,173.565,200.904z"/>
		</g>
		<g>
			<path fill="#E9C226" d="M107.166,226.258c-1.06,8.406,6.009,15.477,14.417,14.416c5.728-0.721,10.353-5.346,11.075-11.074
				c1.06-8.406-6.01-15.477-14.417-14.416C112.513,215.906,107.888,220.531,107.166,226.258z"/>
			<path d="M119.913,242.969L119.913,242.969c-4.316,0-8.429-1.859-11.285-5.098c-2.854-3.236-4.177-7.568-3.633-11.887
				c0.842-6.676,6.297-12.131,12.972-12.973c4.97-0.625,9.944,1.252,13.226,4.975c2.854,3.234,4.179,7.568,3.635,11.887
				c-0.842,6.676-6.297,12.131-12.972,12.973C121.21,242.928,120.556,242.969,119.913,242.969z M119.912,217.266
				c-0.462,0-0.932,0.029-1.397,0.088c-4.723,0.596-8.582,4.455-9.178,9.178c-0.393,3.119,0.521,6.117,2.573,8.445
				c2.025,2.299,4.942,3.615,8.002,3.615c0.001,0,0.001,0,0.001,0c0.461,0,0.932-0.029,1.396-0.088
				c4.723-0.594,8.582-4.455,9.178-9.178c0.393-3.119-0.521-6.119-2.575-8.447C125.886,218.582,122.97,217.266,119.912,217.266z"/>
		</g>
		<g>
			<path fill="#E9C226" d="M214.264,226.258c-1.06,8.406,6.01,15.477,14.417,14.416c5.728-0.721,10.353-5.346,11.075-11.074
				c1.059-8.406-6.011-15.477-14.417-14.416C219.611,215.906,214.986,220.531,214.264,226.258z"/>
			<path d="M227.01,242.969C227.01,242.969,227.01,242.969,227.01,242.969c-4.315,0-8.428-1.859-11.283-5.098
				c-2.854-3.236-4.178-7.568-3.633-11.887c0.841-6.676,6.296-12.131,12.972-12.973c4.971-0.625,9.944,1.252,13.227,4.975
				c2.854,3.234,4.178,7.568,3.634,11.887c-0.841,6.676-6.296,12.131-12.973,12.973C228.308,242.928,227.653,242.969,227.01,242.969
				z M227.01,217.266c-0.462,0-0.933,0.029-1.397,0.088c-4.724,0.596-8.583,4.455-9.178,9.178c-0.393,3.119,0.521,6.119,2.573,8.445
				c2.025,2.299,4.942,3.615,8.002,3.615c0,0,0,0,0.001,0c0.461,0,0.931-0.029,1.396-0.088c4.724-0.594,8.583-4.455,9.178-9.178
				c0.394-3.119-0.521-6.119-2.574-8.447C232.984,218.582,230.068,217.266,227.01,217.266z"/>
		</g>
		<g>
			<path fill="#E9C226" d="M135.479,280.473h26.494v-8.482h-28.318C134.158,274.818,134.758,277.648,135.479,280.473z"/>
			<path d="M164.162,282.66h-30.381l-0.421-1.646c-0.703-2.754-1.329-5.66-1.858-8.641l-0.457-2.572h33.117V282.66z
				 M137.193,278.285h22.593v-4.107h-23.491C136.573,275.574,136.875,276.945,137.193,278.285z"/>
		</g>
		<g>
			<path fill="#E9C226" d="M211.564,280.473H185.07v-8.482h28.317C212.886,274.818,212.285,277.648,211.564,280.473z"/>
			<path d="M213.264,282.66h-30.382v-12.859h33.115l-0.455,2.572c-0.526,2.965-1.151,5.873-1.857,8.641L213.264,282.66z
				 M187.258,278.285h22.593c0.319-1.344,0.62-2.715,0.897-4.107h-23.49V278.285z"/>
		</g>
		<path fill="#8B0E1A" d="M221.398,192.729c-0.934-0.793-1.919-1.518-2.96-2.16c-4.451-2.742-9.759-4.572-15.776-5.434l-1.283-0.182
			l-0.455-1.215c-1.226-3.273-2.243-5.695-2.835-7.055h-49.047c-0.59,1.355-1.602,3.762-2.822,7.014l-0.458,1.223l-1.292,0.178
			c-6.14,0.846-11.543,2.686-16.061,5.471c-1.078,0.664-2.097,1.422-3.06,2.246c0.338,0.012,0.674,0.025,1.016,0.025l92.918-0.029
			C219.994,192.811,220.698,192.777,221.398,192.729z"/>
		<g>
			<path fill="#BE1E2D" d="M219.243,65.445l-92.918,0.029c-15.466,0.005-28,12.547-27.995,28.013l0.021,65.416
				c0.005,15.466,12.546,28,28.013,27.996l92.918-0.029c15.467-0.006,28-12.547,27.995-28.013l-0.021-65.416
				C247.251,77.974,234.709,65.44,219.243,65.445z"/>
			<path d="M219.282,189.057l-92.918,0.029c-16.648,0.004-30.196-13.535-30.202-30.182l-0.021-65.416
				c-0.005-16.648,13.535-30.196,30.182-30.201l92.918-0.03c16.647-0.005,30.195,13.535,30.201,30.183l0.021,65.416
				C249.47,175.503,235.929,189.051,219.282,189.057z M126.325,67.662c-14.234,0.004-25.812,11.589-25.807,25.824l0.021,65.416
				c0.005,14.235,11.59,25.813,25.824,25.807l92.918-0.027c14.235-0.006,25.813-11.59,25.808-25.825l-0.021-65.416
				c-0.004-14.235-11.59-25.813-25.824-25.808L126.325,67.662z"/>
		</g>
		<g>
			<polygon fill="#E9C226" points="220.786,102.651 220.786,65.459 196.205,65.459 190.743,105.059 173.565,105.059 
				156.386,105.059 150.924,65.459 126.344,65.459 126.344,102.651 98.34,144.657 98.34,156.312 141.071,186.883 173.565,186.883 
				206.058,186.883 246.929,156.312 246.929,144.657 			"/>
			<path d="M206.786,189.07H140.37l-44.217-31.634v-13.441l28.003-42.007V63.272h28.675l5.462,39.599h30.543l5.462-39.599h28.676
				v38.754l26.143,42.006v13.375L206.786,189.07z M141.773,184.695h63.557l39.411-29.479v-9.933l-26.144-42.007V67.647h-20.486
				l-5.462,39.599h-38.17l-5.462-39.599h-20.486v35.666l-28.003,42.007v9.868L141.773,184.695z"/>
		</g>
		<polygon points="204.456,188.373 188.378,171.101 158.751,171.101 142.673,188.373 139.47,185.393 156.847,166.725 
			190.282,166.725 207.659,185.393 		"/>
		<g>
			
				<rect x="127.168" y="132.668" transform="matrix(0.9283 0.3719 -0.3719 0.9283 61.0366 -43.0249)" fill="#AED7D7" width="29.754" height="8.07"/>
			<path d="M155.571,148.827l-31.681-12.695l4.627-11.552l31.683,12.695L155.571,148.827z M129.578,133.698l23.559,9.439
				l1.374-3.429l-23.559-9.439L129.578,133.698z"/>
		</g>
		<g>
			
				<rect x="187.999" y="132.668" transform="matrix(-0.9283 0.3719 -0.3719 -0.9283 442.0418 188.1391)" fill="#AED7D7" width="29.754" height="8.069"/>
			<path d="M189.35,148.827l-4.63-11.552l31.682-12.695l4.63,11.552L189.35,148.827z M190.41,139.708l1.373,3.429l23.558-9.439
				l-1.373-3.429L190.41,139.708z"/>
		</g>
	</g>
</g>
</svg>
