<?xml version="1.0" encoding="utf-8"?>
<!-- Generator: Adobe Illustrator 16.0.0, SVG Export Plug-In . SVG Version: 6.00 Build 0)  -->
<!DOCTYPE svg PUBLIC "-//W3C//DTD SVG 1.1//EN" "http://www.w3.org/Graphics/SVG/1.1/DTD/svg11.dtd">
<svg version="1.1" id="Layer_1" xmlns="http://www.w3.org/2000/svg" xmlns:xlink="http://www.w3.org/1999/xlink" x="0px" y="0px"
	 width="350px" height="350px" viewBox="0 0 350 350" enable-background="new 0 0 350 350" xml:space="preserve">
<g>
	<g>
		<path fill="#363636" d="M175,279.851c-57.815,0-104.851-47.035-104.851-104.851S117.185,70.149,175,70.149
			S279.851,117.185,279.851,175S232.815,279.851,175,279.851z M175,73.587c-55.919,0-101.413,45.495-101.413,101.413
			c0,55.918,45.494,101.413,101.413,101.413c55.92,0,101.413-45.495,101.413-101.413C276.413,119.082,230.92,73.587,175,73.587z"/>
	</g>
	<g>
		<path fill="#363636" d="M71.868,175c0,24.873,8.807,47.687,23.47,65.5h159.324c14.662-17.813,23.47-40.627,23.47-65.5
			c0-24.872-8.808-47.687-23.47-65.5H95.338C80.675,127.313,71.868,150.128,71.868,175z"/>
	</g>
	<g>
		<circle fill="#EDE0B4" cx="174.999" cy="175" r="43.634"/>
	</g>
	<g>
		<g>
			<path fill="#363636" d="M165.663,156.893v35.618h-9.558v-23.339c-1.546,1.21-3.041,2.19-4.488,2.939
				c-1.447,0.749-3.26,1.463-5.439,2.148v-7.979c3.217-1.067,5.714-2.35,7.491-3.847c1.779-1.496,3.172-3.342,4.175-5.541H165.663z"
				/>
		</g>
		<g>
			<path fill="#363636" d="M179.768,157.491h22.429v7.762h-15.192l-0.812,5.257c1.051-0.51,2.09-0.891,3.119-1.146
				c1.027-0.253,2.045-0.381,3.05-0.381c3.402,0,6.164,1.059,8.282,3.174c2.12,2.12,3.178,4.786,3.178,8.004
				c0,2.263-0.546,4.437-1.635,6.521c-1.092,2.088-2.638,3.679-4.64,4.778c-2.005,1.1-4.566,1.646-7.689,1.646
				c-2.244,0-4.165-0.218-5.767-0.656c-1.601-0.438-2.961-1.089-4.082-1.959c-1.121-0.867-2.027-1.85-2.725-2.949
				c-0.695-1.099-1.276-2.469-1.739-4.108l9.555-1.074c0.233,1.576,0.774,2.774,1.627,3.594c0.85,0.82,1.863,1.23,3.038,1.23
				c1.313,0,2.4-0.514,3.26-1.541c0.856-1.027,1.286-2.561,1.286-4.6c0-2.085-0.434-3.614-1.3-4.584
				c-0.866-0.972-2.018-1.459-3.454-1.459c-0.915,0-1.796,0.231-2.646,0.695c-0.635,0.332-1.331,0.937-2.088,1.814l-8.05-1.193
				L179.768,157.491z"/>
		</g>
	</g>
</g>
</svg>
