<?xml version="1.0" encoding="utf-8"?>
<!-- Generator: Adobe Illustrator 16.0.0, SVG Export Plug-In . SVG Version: 6.00 Build 0)  -->
<!DOCTYPE svg PUBLIC "-//W3C//DTD SVG 1.1//EN" "http://www.w3.org/Graphics/SVG/1.1/DTD/svg11.dtd">
<svg version="1.1" id="Layer_1" xmlns="http://www.w3.org/2000/svg" xmlns:xlink="http://www.w3.org/1999/xlink" x="0px" y="0px"
	 width="350px" height="350px" viewBox="0 0 350 350" enable-background="new 0 0 350 350" xml:space="preserve">
<g>
	<g>
		<path fill="#262626" d="M232.91,203.932c0.11,1.095-0.695,2.08-1.79,2.19l-46.712,4.706c-1.095,0.11-2.08-0.695-2.19-1.79
			l-7.986-79.299c-0.11-1.094,0.695-2.08,1.79-2.19l46.711-4.704c1.095-0.11,2.08,0.695,2.19,1.79L232.91,203.932z"/>
	</g>
	<circle fill="#262626" cx="197.326" cy="102.101" r="19.998"/>
	
		<polyline fill="none" stroke="#262626" stroke-width="8" stroke-linecap="round" stroke-linejoin="round" stroke-miterlimit="10" points="
		193.846,197.982 202.336,241.106 192.108,288.247 	"/>
	
		<polyline fill="none" stroke="#262626" stroke-width="8" stroke-linecap="round" stroke-linejoin="round" stroke-miterlimit="10" points="
		219.626,199.088 228.116,242.212 217.889,289.353 	"/>
	
		<polyline fill="none" stroke="#262626" stroke-width="8" stroke-linecap="round" stroke-linejoin="round" stroke-miterlimit="10" points="
		196.457,169.03 216.947,136.163 266.636,134.597 	"/>
	
		<polyline fill="none" stroke="#262626" stroke-width="8" stroke-linecap="round" stroke-linejoin="round" stroke-miterlimit="10" points="
		199.642,139.081 162.685,150.671 123.967,119.491 	"/>
	
		<line fill="none" stroke="#262626" stroke-width="5" stroke-linecap="round" stroke-linejoin="round" stroke-miterlimit="10" x1="153" y1="296.5" x2="280" y2="296.5"/>
	
		<line fill="none" stroke="#FE5D37" stroke-width="6" stroke-linecap="round" stroke-linejoin="round" stroke-miterlimit="10" x1="69.385" y1="162.507" x2="177.99" y2="53.902"/>
</g>
</svg>
