<?xml version="1.0" encoding="utf-8"?>
<!-- Generator: Adobe Illustrator 16.0.0, SVG Export Plug-In . SVG Version: 6.00 Build 0)  -->
<!DOCTYPE svg PUBLIC "-//W3C//DTD SVG 1.1 Tiny//EN" "http://www.w3.org/Graphics/SVG/1.1/DTD/svg11-tiny.dtd">
<svg version="1.1" baseProfile="tiny" id="Layer_1" xmlns="http://www.w3.org/2000/svg" xmlns:xlink="http://www.w3.org/1999/xlink"
	 x="0px" y="0px" width="350px" height="350px" viewBox="0 0 350 350" overflow="scroll" xml:space="preserve">
<path fill-rule="evenodd" d="M154.231,173.872c11.922,0,29.614-16.153,48.458-31.536c18.846-15.385,33.846-12.691,33.846-12.691
	l-1.154,28.458l50.381-41.152l0.77,33.075l22.691-1.153l-14.998,18.076l8.844-1.153l1.154,19.614l-11.154,0.77l1.156,10.383
	l12.691-0.769l19.998,16.152c0,0-6.924,2.692-18.846,1.155c-11.922-1.539-23.459-11.924-30.768-11.538
	c-7.307,0.384-25.383,2.307-25.383,2.307s7.693,10.769,13.461,15.769c5.77,5.001,9.229,11.922,3.078,11.922
	c-6.154,0-20,3.077-26.539,0.386c-6.537-2.694-44.227-20.384-44.227-20.384s-24.999,0.77-37.307,0.77
	c-12.306,0-18.459-8.462-23.459-11.924c-5-3.461-13.845-1.153-34.998,1.155c-21.153,2.307-78.841-3.464-78.841-3.464
	s45.382-18.459,71.918-26.919C121.542,162.717,142.31,173.872,154.231,173.872z"/>
</svg>
