<?xml version="1.0" encoding="utf-8"?>
<!-- Generator: Adobe Illustrator 16.0.0, SVG Export Plug-In . SVG Version: 6.00 Build 0)  -->
<!DOCTYPE svg PUBLIC "-//W3C//DTD SVG 1.1 Tiny//EN" "http://www.w3.org/Graphics/SVG/1.1/DTD/svg11-tiny.dtd">
<svg version="1.1" baseProfile="tiny" id="Layer_1" xmlns="http://www.w3.org/2000/svg" xmlns:xlink="http://www.w3.org/1999/xlink"
	 x="0px" y="0px" width="350px" height="350px" viewBox="0 0 350 350" overflow="scroll" xml:space="preserve">
<path fill-rule="evenodd" fill="#0056A1" d="M208.407,193.369c20.427,0.746,40.852,1.488,61.27,2.23
	c6.384-1.293,12.756-2.605,19.14-3.902c8.292-1.674,16.58-3.34,24.885-5.02c2.502-0.57,7.002-2.309,9.656-1.102
	c0,0.063,0,0.125,0,0.184c0,0.25,0,0.492,0,0.744c-5.619,3.555-14.708,3.926-21.552,5.943c-13.784,4.066-26.114,8.311-43.267,8.541
	c0,2.781,0,5.561,0,8.361c11.699,1.09,8.559,21.785-4.079,17.82c-5.033-1.58-8.809-8.875-4.824-14.291
	c1.764-2.418,4.508-2.176,5.937-3.529c0-2.801,0-5.58,0-8.361c-8.481,0.061-16.96,0.123-25.441,0.191c0,2.473,0,4.938,0,7.412
	c0.334,0.852,1.33,0.742,1.12,2.42c-0.126,0.934-0.863,0.963-1.12,1.48c0,2.918,0,5.83,0,8.74c0.818,0.139,0.685,0.109,1.12,0.549
	c-0.267,1.48-0.099,3.066-0.933,4.65c0.834,0.244,0.666,0.09,0.933,0.922c0.242,0,0.496,0,0.737,0
	c0.06-2.408,0.125-4.822,0.185-7.234c0.652-0.871,1.314-1.229,2.423-1.678c1.647,0.006,2.636,0.52,3.148,1.678
	c0.813,1.438,0.635,16.428-0.188,17.447c-0.475,0.943-1.214,1.105-2.223,1.488c-1.513-0.129-2.077-0.635-2.979-1.301
	c-0.446-1.67-0.384-4.277-0.366-6.504c-1.632,0.207-2.773,1.125-4.832,0.551c-0.07-4.652-1.099-5.205-0.369-8.896
	c-0.745-0.684-1.482-1.361-2.228-2.045c-3.251,2.119-3.82-0.334-5.938,0c-1.548,1.551-3.096,3.088-4.646,4.639
	c-0.06,0-0.122,0-0.186,0c1.548-1.605,3.091-3.223,4.641-4.834c0-0.061,0-0.113,0-0.178c-0.589-1.684-1.283-4.289,0.377-5.566
	c-1.546-1.496-3.093-2.98-4.651-4.459c0-0.072,0-0.125,0-0.193c0.063-0.059,0.129-0.125,0.195-0.184
	c1.479,1.496,2.967,2.979,4.456,4.451c0.053,0,0.122,0,0.181,0c0.495-0.188,0.999-0.377,1.492-0.553c0-4.205,0-8.42,0-12.631
	c-2.175,0-4.337,0-6.505,0c0,0.799,0,1.617,0,2.418c-3.09,0-6.193,0-9.284,0c-0.408,1.793-1.684,2.246-3.341,2.779
	c-0.063,2.174-0.126,4.348-0.184,6.514c-0.064,0-0.127,0-0.19,0c-0.063-2.229-0.125-4.471-0.186-6.695
	c-2.228-0.188-2.398-1.393-3.524-2.598c-0.439,0-0.868,0-1.301,0c0,0.736,0,1.494,0,2.236c-1.301,0-2.598,0-3.904,0
	c0-0.557,0-1.117,0-1.678c-0.932,0-1.854,0-2.784,0c-0.162,1.352-0.641,1.6-1.672,2.039c0.066,1.297,0.174,3.188-0.371,3.9
	c-0.064-1.357-0.12-2.719-0.183-4.078c-0.251,0-0.494,0-0.746,0c-0.272,1.256-0.786,1.426-1.855,1.852
	c-0.063,1.496-0.121,2.971-0.181,4.451c-0.063,0-0.128,0-0.188,0c0.088-1.441,0.344-4.088-0.562-4.635
	c0.782,4.699-0.689,7.152-2.785,9.844c0.87,1.049,1.733,2.092,2.604,3.158c-0.063,0-0.126,0-0.186,0
	c-0.927-0.996-1.861-1.984-2.788-2.98c-1.095,0.688-2.071,1.297-3.526,1.682c0,3.891-0.924,5.424-0.932,9.65
	c0.876-0.248,1.562-0.793,2.6-0.367c0.313,0.184,0.617,0.367,0.934,0.561c0.349,3.332,0.903,10.053-0.559,12.436
	c-0.062,0-0.124,0-0.187,0c-2.661,0.156-2.803-0.928-2.601-3.535c-1.219,0.23-1.626,0.303-2.788,0
	c0.073,1.729-0.14,2.617-0.735,3.535c-0.066,0-0.128,0-0.189,0c-1.029,0.021-1.649-0.084-2.231-0.373
	c-0.364-1.652-0.467-12.072,0.375-12.623c0.987-0.66,2.2,0.156,2.971,0.367c0.01-3.834-0.541-6.035-0.56-9.65
	c-1.241-0.5-2.478-1.01-3.713-1.494c-0.87,0.938-1.736,1.863-2.599,2.793c0.411-1.336,1.637-2.127,2.411-3.158
	c-0.061-0.066-0.124-0.125-0.189-0.193c-1.096-1.311-2.17-2.631-2.782-4.445c-0.511-1.518,0.434-4.834-0.366-5.205
	c-0.065,1.604-0.128,3.219-0.19,4.834c-0.12-0.135-0.25-0.258-0.37-0.375c0-1.482,0-2.967,0-4.459
	c-1.294-0.307-1.314-0.875-2.045-1.668c-0.122,0-0.244,0-0.37,0c-0.063,0.061-0.125,0.123-0.188,0.178
	c-0.06,1.301-0.124,2.598-0.181,3.9c-0.062,0-0.127,0-0.188,0c0-1.303,0-2.6,0-3.9c-1.199-0.352-1.55-0.797-1.856-2.039
	c-0.866,0-1.738,0-2.605,0c0,0.561,0,1.121,0,1.678c-1.294,0-2.593,0-3.898,0c0-0.742,0-1.5,0-2.236c-0.555,0-1.114,0-1.671,0
	c-0.4,1.793-1.683,2.246-3.336,2.779c-0.061,2.174-0.129,4.348-0.191,6.514c-0.062,0-0.125,0-0.182,0
	c-0.064-2.229-0.121-4.471-0.182-6.695c-2.22-0.188-2.4-1.41-3.532-2.598c-2.977,0-5.949,0-8.914,0c0-0.801,0-1.619,0-2.418
	c-2.229,0-4.456,0-6.688,0c0,4.211,0,8.426,0,12.631c0.62,0.176,1.242,0.365,1.862,0.553c1.542-1.473,3.093-2.955,4.639-4.451
	c0,0.059,0,0.125,0,0.184c-1.545,1.543-3.097,3.09-4.639,4.652c1.334,1.734,1.505,3.492,0.37,5.566
	c1.544,1.664,3.089,3.344,4.637,5.012c-0.059,0-0.121,0-0.182,0c-1.612-1.551-3.222-3.088-4.826-4.639
	c-2.323,1.465-3.767,0.76-6.132,0c-0.677,0.684-1.358,1.361-2.042,2.045c0.737,1.52,0.463,6.406-0.372,9.094
	c-2.318,0.012-2.862-0.59-4.644-0.748c0.078,1.986,0.355,5.215-0.552,6.316c-0.503,1.023-1.515,1.443-2.977,1.488
	c-0.915-0.545-2.076-0.943-2.411-2.045c0.061-5.688,0.119-11.389,0.186-17.08c1.09-1.965,4.446-1.822,5.381,0.189
	c0.728,1.457-0.406,6.348,0.932,7.234c0.301-0.807,0.153-0.734,1.112-0.922c-0.755-1.172-0.857-2.207-0.184-3.527
	c-0.311-0.256-0.623-0.494-0.928-0.754c0.058-0.125,0.124-0.238,0.187-0.369c1.429-1.9,1.188-5.801,1.113-9.289
	c-0.628-0.318-1.192-0.893-1.299-1.658c-0.162-1.238,1.018-1.564,1.299-2.242c0-2.475,0-4.939,0-7.412
	c-8.418-0.068-16.84-0.131-25.253-0.191c0,2.781,0,5.561,0,8.361c11.069,2.297,8.439,19.961-2.414,18.186
	c-10.539-1.715-11.169-17.553-0.558-18.186c0-2.801,0-5.58,0-8.361c-10.63,0.258-17.909-1.906-25.816-4.096
	c-7.859-1.98-15.726-3.953-23.578-5.943c-2.188-0.598-17.862-3.096-15.042-5.563c2.894-1.139,8.306,1.063,10.951,1.676
	c9.163,1.857,18.328,3.709,27.486,5.561c21.782,5.305,50.847,1.484,75.949,0.746c-0.261-3.551-0.719-8.691,0.187-12.063
	c-9.53,3.834-19.062,7.67-28.598,11.5c0-0.424,0-0.854,0-1.279c0-0.07,0-0.137,0-0.191c9.657-4.955,19.314-9.914,28.973-14.859
	c0.26-11.116,6.191-11.017,17.64-10.77c0.607-5.9,4.742-9.868,8.911-12.259c1.299-0.432,2.603-0.865,3.902-1.29
	c0.062-3.912,0.123-7.818,0.189-11.703c-0.007-8.756-1.655-26.76,1.663-32.31c0.838,0.031,1.004,0.125,1.487,0.356
	c3.084,10.317,1.67,30.695,1.677,43.657c6.567,1.444,11.843,6.488,12.809,13.549c8.319-0.092,14.19-0.776,16.527,5.194
	c0.491,2.048,0.988,4.095,1.485,6.13c9.534,4.824,19.072,9.646,28.59,14.496c0,0.426,0,0.855,0,1.279
	c-9.518-3.83-19.056-7.666-28.59-11.5C209.172,184.883,208.453,189.604,208.407,193.369z M122.243,201.18
	c0.005,4.156,0.968,8.313,0.556,10.949c0.868,0.797,1.737,1.615,2.602,2.406c0.496-0.188,0.991-0.377,1.485-0.553
	c0-4.205,0-8.42,0-12.631C125.335,201.295,123.787,201.232,122.243,201.18z M222.886,201.352c0,4.211,0,8.426,0,12.631
	c0.562,0.176,1.121,0.365,1.674,0.553c0.802-0.73,1.608-1.473,2.413-2.219c-0.343-2.096,0.184-2.281,0.745-3.725
	c0-2.475,0-4.939,0-7.412C226.109,201.232,224.5,201.295,222.886,201.352z M122.243,212.316c0,2.963,0,5.936,0,8.916
	c1.725,0.344,1.275,0.281,2.599-0.746c-1.216-1.943-0.856-3.746,0.188-5.566C124.096,214.043,123.173,213.18,122.243,212.316z
	 M227.342,212.316c-0.865,0.863-1.735,1.727-2.591,2.604c1.15,1.684,1.443,3.75,0.185,5.566c0.426,0.498,0.861,0.994,1.299,1.484
	c2.076-1.525,1.581-5.674,1.483-9.279C227.593,212.557,227.474,212.434,227.342,212.316z M173.307,230.879c0,0.188,0,0.371,0,0.559
	c0.067-0.188,0.128-0.371,0.191-0.559C173.435,230.879,173.374,230.879,173.307,230.879z M173.307,234.043c0,0.125,0,0.242,0,0.375
	C173.307,234.285,173.307,234.168,173.307,234.043z"/>
</svg>
