<?xml version="1.0" encoding="utf-8"?>
<!-- Generator: Adobe Illustrator 16.0.0, SVG Export Plug-In . SVG Version: 6.00 Build 0)  -->
<!DOCTYPE svg PUBLIC "-//W3C//DTD SVG 1.1//EN" "http://www.w3.org/Graphics/SVG/1.1/DTD/svg11.dtd">
<svg version="1.1" id="Layer_1" xmlns="http://www.w3.org/2000/svg" xmlns:xlink="http://www.w3.org/1999/xlink" x="0px" y="0px"
	 width="350px" height="350px" viewBox="0 0 350 350" enable-background="new 0 0 350 350" xml:space="preserve">
<g>
	<g>
		<path d="M275.349,239.058l-0.891-0.253c-13.006-3.502-17.413-6.851-23.203-9.062c-20.53-7.823-25.874-13.46-27.241-16.124
			c-0.053-0.093-0.093-0.2-0.138-0.3l-0.146-20.752c15.401-6.066,17.574-16.649,14.856-25.292c2.533-7.682,3.992-15.72,4-23.882
			h0.009c0,0,1.55-6.618,1.534-16.642c0-11.897-2.211-28.624-11.855-44.801l-0.015-0.134c-0.016,0-0.03,0.004-0.061,0.008
			c-3.847-6.423-8.86-12.753-15.388-18.662c-6.817-6.181-23.662-13.958-43.967-13.958c-13.909,0-29.437,3.646-44.494,13.958
			c-24.22,16.589-26.327,54.103-26.342,66.438c-0.004,2.599,0.084,4.107,0.084,4.107s2.038,0.519,5.712,1.002
			c-0.261,2.795-0.399,5.659-0.399,8.591c0,8.192,1.463,16.266,4,23.975c-2.717,8.641-0.542,19.225,14.861,25.292l-0.15,20.752
			c-0.042,0.1-0.081,0.207-0.131,0.3c-1.366,2.664-6.71,8.3-27.249,16.124c-5.789,2.211-10.188,5.559-23.199,9.06l-0.89,0.255
			c-11.839,3.907-19.805,14.895-19.805,27.287v34.45h120.156h120.16v-34.45C295.158,253.952,287.188,242.965,275.349,239.058z
			 M224.421,180.551c-3.217,2.065-9.62,4.769-21.798,5.889c-0.668,0.062-1.359,0.093-2.05,0.093c-9.213,0-17.39-5.152-19.686-9.923
			c-0.853-1.771-1.329-4.07,1.597-7.732c0.545-0.679,0.952-1.071,1.205-1.286c0.354,0.123,0.937,0.383,1.835,0.914
			c1.573,0.932,3.371,2.268,5.274,3.681c5.759,4.266,12.914,9.57,21.943,9.57c3.816,0,7.524-0.96,11.033-2.849
			c2.027-1.099,3.756-2.356,5.151-3.762C228.713,176.125,227.984,178.267,224.421,180.551z M174.999,227.494
			c-1.148-0.354-3.635-1.337-7.482-3.524c-4.38-2.479-9.164-5.743-13.467-9.198c-4.688-3.747-8.607-7.531-11.341-10.948
			c-2.882-3.608-3.612-5.805-3.65-6.357c0-0.315,0.034-0.807,0.161-1.505c2.238,0.368,4.634,0.676,7.198,0.913
			c0.998,0.093,2,0.131,3.006,0.131c9.816-0.001,19.736-4.262,25.575-10.672c5.843,6.41,15.762,10.672,25.575,10.672
			c1.006,0,2.004-0.038,3.01-0.131c2.557-0.237,4.953-0.545,7.195-0.913c0.122,0.691,0.161,1.183,0.161,1.505
			c-0.039,0.552-0.76,2.749-3.647,6.357c-2.732,3.417-6.657,7.201-11.348,10.948c-4.3,3.455-9.084,6.72-13.46,9.198
			C178.634,226.157,176.146,227.141,174.999,227.494z M180.239,236.746v6.388h-10.481v-6.388c2.142,0.845,3.946,1.336,5.24,1.351
			C176.293,238.082,178.098,237.591,180.239,236.746z M159.274,240.516v7.862h0c0,2.203,1.359,4.077,3.279,4.86l-2.269,6.626
			l-9.394-13.291L159.274,240.516z M144.836,238.021l-11.624-16.439c0.825-1.021,1.535-2.081,2.096-3.163
			c0.188-0.377,0.326-0.684,0.403-0.868l0.875-1.936l0.015-2.219l0.004-0.576c5.447,6.082,12.91,12.086,19.955,16.724
			L144.836,238.021z M190.723,248.378v-8.124l8.522,6.312l-8.892,12.869l-2.233-6.534
			C189.679,251.995,190.723,250.305,190.723,248.378z M193.671,229.391c6.972-4.607,14.335-10.549,19.717-16.569l0.008,0.575
			l0.016,2.22l0.875,1.935c0.07,0.17,0.207,0.492,0.399,0.853c0.529,1.029,1.189,2.02,1.957,2.995l-11.432,16.538L193.671,229.391z
			 M227.231,95.092c2.887,6.568,4.821,13.697,5.766,21.206c0.139,1.133,0.254,2.242,0.346,3.328
			c-1.682-3.152-3.532-5.839-5.604-8.188c-2.296-2.591-4.86-4.714-7.64-6.353C222.203,99.99,224.867,96.927,227.231,95.092z
			 M112.619,124.598c0.215-4.579,0.752-10.606,2.027-17.068c1.524-7.728,3.789-14.549,6.729-20.281
			c3.417-6.661,7.754-11.82,12.899-15.344c11.747-8.047,24.723-12.124,38.57-12.124c17.863,0,32.128,6.899,36.934,11.249
			c4.867,4.399,9.021,9.317,12.438,14.676c-4.146,2.791-8.738,7.578-12.016,15.771c-1.728-0.292-3.493-0.445-5.306-0.445
			c-7.832,0-16.263,2.646-25.783,8.089c-22.933,13.103-44.144,15.855-57.902,15.855C117.921,124.975,115.03,124.813,112.619,124.598
			z M117.889,143.302c0-2.649,0.126-5.249,0.376-7.793c0.949,0.026,1.928,0.039,2.946,0.039c15.34,0,38.332-3.079,63.108-17.233
			c8.339-4.765,15.079-6.707,20.577-6.707c13.19,0,19.179,11.202,22.773,21.337c1.228,3.474,2.764,5.866,4.392,7.498
			c0.03,0.948,0.046,1.9,0.046,2.86c0,4.058-0.43,8.204-1.274,12.377c-1.851-1.455-3.724-2.299-5.313-2.299
			c-0.046,0-0.092,0-0.139,0c-8.139,0.249-12.054,8.695-12.054,8.695c1.213-0.373,2.403-0.542,3.508-0.542
			c5.622,0,9.046,4.323,1.959,8.15c-2.073,1.117-4.085,1.593-6.051,1.593c-10.765,0-19.971-14.277-29.345-14.277
			c-2.768,0-5.556,1.256-8.4,4.495c-2.845-3.24-5.632-4.495-8.404-4.495c-9.371,0-18.577,14.277-29.345,14.277
			c-1.961,0-3.973-0.476-6.046-1.593c-7.087-3.827-3.663-8.15,1.958-8.15c1.105,0,2.299,0.168,3.512,0.542
			c0,0-3.916-8.446-12.062-8.695c-0.042,0-0.088,0-0.134,0c-1.589,0-3.463,0.844-5.31,2.299
			C118.323,151.51,117.889,147.359,117.889,143.302z M125.576,180.55c-3.563-2.287-4.289-4.425-4.507-5.404
			c1.397,1.406,3.125,2.664,5.155,3.761c3.505,1.89,7.214,2.849,11.026,2.849c9.034,0,16.189-5.304,21.943-9.57
			c1.904-1.413,3.705-2.749,5.279-3.681c0.898-0.529,1.489-0.79,1.831-0.913c0.261,0.215,0.668,0.606,1.209,1.286
			c2.925,3.662,2.449,5.962,1.597,7.732c-2.292,4.771-10.473,9.923-19.687,9.923c-0.69,0-1.382-0.031-2.046-0.093
			C135.196,185.318,128.796,182.616,125.576,180.55z M65.327,290.308v-23.963c0-7.816,4.991-14.733,12.442-17.283l0.587-0.17
			c9.8-2.633,15.214-5.221,19.563-7.309c1.682-0.808,3.137-1.505,4.549-2.041c2.272-0.861,4.71-1.828,7.202-2.889l37.945,53.654
			H65.327z M159.27,290.308c0-1.045-0.307-2.104-0.96-3.025l-39.022-55.188c2.088-1.121,4.111-2.312,5.993-3.579l43.695,61.793
			H159.27z M167.75,270.422l5.75-16.8h3.785l5.666,16.538l-7.608,11.003L167.75,270.422z M190.723,290.308h-8.957l42.771-61.908
			c1.72,1.16,3.555,2.265,5.451,3.31l-38.343,55.626C191.022,288.249,190.723,289.278,190.723,290.308z M202.332,290.308
			l37.207-53.991c2.765,1.198,5.482,2.273,8.001,3.232c1.396,0.529,2.855,1.229,4.537,2.034c4.353,2.089,9.758,4.677,19.563,7.311
			l0.584,0.168c7.455,2.55,12.445,9.467,12.445,17.284v23.962H202.332z"/>
	</g>
</g>
</svg>
