<?xml version="1.0" encoding="utf-8"?>
<!-- Generator: Adobe Illustrator 16.0.0, SVG Export Plug-In . SVG Version: 6.00 Build 0)  -->
<!DOCTYPE svg PUBLIC "-//W3C//DTD SVG 1.1//EN" "http://www.w3.org/Graphics/SVG/1.1/DTD/svg11.dtd">
<svg version="1.1" id="Layer_1" xmlns="http://www.w3.org/2000/svg" xmlns:xlink="http://www.w3.org/1999/xlink" x="0px" y="0px"
	 width="350px" height="350px" viewBox="0 0 350 350" enable-background="new 0 0 350 350" xml:space="preserve">
<path fill="#474747" d="M152.995,171.406c-5.81,0.683-11.213,0.39-16.638-1.286c-7.932-2.448-13.603-7.623-17.174-14.684
	c-5.655-11.18-6.41-22.906-1.083-34.524c2.058-4.487,5.431-8.234,9.947-10.299c3.113-1.423,4.87-3.473,6.146-6.455
	c1.482-3.464,3.288-6.777,6.689-8.86c0.526-0.321,1.193-0.959,1.215-1.475c0.185-4.287,3.657-5.717,6.648-7.569
	c0.21-0.944,0.453-1.784,0.579-2.641c0.463-3.138,2.07-5.397,5.182-6.207c1.877-0.489,3.158-1.379,3.896-3.179
	c0.63-1.536,1.938-2.251,3.479-2.805c3.075-1.104,6.111-2.133,8.611-4.602c1.227-1.211,3.666-1.266,5.591-1.675
	c1.75-0.372,3.332-0.764,4.634-2.231c2.934-3.309,6.575-4.363,10.879-2.427c0.96-0.765,1.858-1.369,2.625-2.11
	c1.941-1.874,4.32-2.354,6.765-1.743c2.305,0.574,4.029,0.081,6.146-1.01c3.904-2.017,8.497,0.08,9.8,3.892
	c1.337,3.909-0.846,7.286-4.948,7.419c-1.743,0.057-3.501-0.323-5.469-0.526c-3.33,3.102-7.214,3.767-11.569,1.353
	c-2.525,3.752-5.498,6.227-10.258,4.623c-3.038,3.524-6.519,6.115-11.547,5.451c-2.257,3.984-5.359,6.624-10.078,6.871
	c-1.576,3.284-2.763,6.845-6.842,7.216c-0.971,2.651-1.796,4.903-2.765,7.545c1.19,0.43,2.165,1.122,3.091,1.063
	c12.5-0.79,22.781,12.86,24.848,22.211c2.001,9.045,2.014,17.99-1.637,26.682c-0.852,2.026-1.83,4.025-2.989,5.888
	c-1.039,1.671-2.41,3.136-3.763,4.854c-0.373,3.052,0.927,5.924,2.005,8.773c5.393,14.258,10.952,28.455,16.326,42.72
	c2.798,7.432,5.329,14.963,8,22.442c0.29,0.813,0.702,1.583,0.985,2.209c2.922,1.765,5.283-0.658,8.294-0.498
	c0.563,0.848,1.486,1.823,1.923,2.981c1.089,2.892,2.013,5.849,2.895,8.811c0.663,2.22,0.234,3.205-1.702,4.433
	c-0.555,0.352-1.235,0.5-1.796,0.848c-1.493,0.926-1.905,2.097-1.217,3.246c0.646,1.076,2.042,1.381,3.504,0.761
	c0.406-0.172,0.896-0.262,1.2-0.546c4.624-4.336,10.62-3.487,16.204-4.685c3.663,4.221,3.95,9.381,5.881,13.95
	c-4.971,4.099-10.9,4.909-16.125,7.819c0.14,3.829,1.197,7.365,2.362,10.896c1.351,4.095,1.104,4.903-2.092,7.352
	c-0.873,0.667-1.826,1.243-2.784,1.785c-6.882,3.886-12.98,0.622-15.374-5.078c-1.368-3.262-2.855-6.476-4.129-9.772
	c-11.556-29.884-23.067-59.783-34.616-89.67c-1.274-3.296-2.684-6.541-4.053-9.8C157.483,176.256,155.813,173.691,152.995,171.406z
	 M141.157,99.404c-0.144,0.119-0.287,0.238-0.43,0.356c0.117-0.139,0.235-0.277,0.354-0.416c0.186-0.09,0.396-0.148,0.552-0.276
	c0.111-0.091,0.149-0.272,0.22-0.413C141.621,98.905,141.389,99.155,141.157,99.404z M221.041,261.299
	c-0.146-0.663-0.295-1.325-0.442-1.986c-0.236,0.11-0.473,0.222-0.708,0.332c0.406,0.526,0.813,1.051,1.221,1.577
	c0.311,1.338,0.619,2.677,1.097,4.731C222.973,263.495,222.174,262.338,221.041,261.299z M200.421,249.805
	c-0.654-1.188-1.373-2.264-3.01-1.958c-1.873,0.352-3.478,1.166-5.564,2.696c3.441-0.33,6.037-0.579,8.637-0.827
	c-0.723,2.181-2.838,2.451-4.524,3.322c-1.068,0.552-2.102,1.169-3.299,1.839c2.931,2.554,3.768,2.428,9.535-1.241
	C201.622,252.397,201.022,251.101,200.421,249.805z M125.582,119.346c1.229-0.104,2.458-0.208,5.166-0.438
	c-3.183,2.185-5.128,3.52-7.074,4.854c-0.157,0.121-0.313,0.242-0.469,0.363c0.132-0.141,0.265-0.283,0.396-0.424
	c2.723-0.264,5.465-1.871,8.154,0.115c-2.605,1.041-5.221,2.059-7.802,3.158c-0.287,0.122-0.375,0.712-0.554,1.086
	c4.448,0.015,5.241-0.398,8.278-4.313c2.429-2.927,1.334-5.863,0.262-9.6c-2.438,2.046-4.358,3.657-6.28,5.267
	c-0.161,0.04-0.333,0.056-0.479,0.128c-0.112,0.056-0.19,0.183-0.283,0.277C125.125,119.663,125.354,119.505,125.582,119.346z
	 M152.89,163.354c1.506-0.35,2.997-0.811,4.522-1.014c1.347-0.179,2.716-1.285,4.734,0.043c-2.158,1.026-3.871,1.84-5.49,2.61
	c0.425,3.341,0.912,4.031,2.66,3.684c1.507-0.301,2.959-0.871,4.457-1.231c0.836-0.201,1.781-0.33,1.833,1.247
	c-1.379,0.873-2.871,1.778-4.319,2.75c-0.701,0.471-1.454,1.015-0.712,2.049c1.875,0.942,4.191-1.333,6.08,0.634
	c-1.044,1.025-1.93,1.895-3.085,3.027c2.197-0.109,3.899-0.193,5.671-0.283c-0.285,2.752-4.182,2.052-3.915,4.864
	c1.564,1.35,3.822-0.98,5.32,0.888c-1.082,1.594-3.508,1.294-4.1,3.602c2.524-0.253,4.827-0.484,8.062-0.809
	c-1.872,2.316-3.902,2.787-5.383,3.967c-0.911,0.727-1.516,1.587-0.681,2.747c2.216,1.286,4.628-0.917,7.575,0.438
	c-1.341,0.945-2.231,1.465-2.987,2.136c-0.839,0.743-2.859,0.468-2.229,2.812c2.748-0.215,5.504-0.433,9.11-0.714
	c-2.297,2.917-5.705,2.845-7.71,5.346c2.304,1.347,4.187,0.187,6.031,0.162c0.811-0.011,1.836-0.279,1.982,1.472
	c-1.372,0.722-2.924,1.448-4.38,2.331c-0.946,0.571-1.765,1.366-0.808,2.595c2.187,1.024,4.7-1.004,6.791,0.445
	c-0.077,3.227-4.03,1.837-4.465,4.352c3.903,0.559,4.648,0.422,10.221-1.976c-2.329-8.886-6.183-17.31-9.278-25.979
	c-3.106-8.701-6.578-17.274-9.988-26.161c1.306-1.45,2.507-3.031,3.953-4.343c3.98-3.611,5.772-8.27,6.594-13.385
	c0.386-2.391,0.679-4.827,0.672-7.242c-0.024-7.487-2.141-14.389-6.474-20.515c-4.601-6.501-10.968-9.414-18.891-8.594
	c-3.284,0.341-6.554,0.973-9.778,1.702c-3.166,0.717-4.081,1.975-3.84,5.146c0.109,1.442,0.725,2.846,1.165,4.468
	c8.146-1.073,15.346-5.198,24.886-4.4c-1.618,1.247-2.442,1.883-3.239,2.495c1.793,1.586,3.999-0.933,5.542,1.147
	c-1.051,0.677-2.028,1.306-3.024,1.947c1.415,1.912,4.024-0.358,5.22,1.872c-0.968,0.52-1.726,0.926-2.923,1.568
	c1.369,0.139,2.346,0.168,3.287,0.367c0.302,0.064,0.509,0.574,0.753,0.873c-0.008,1.664-3.029,1.254-2.339,3.404
	c1.067,0.512,2.121,1.017,2.92,1.4c-0.04,1.783-2.258,2.166-1.361,3.844c0.999,1.142,3.321-0.08,3.73,2.254
	c-0.486,0.344-0.98,0.756-1.532,1.069c-0.742,0.421-1.526,0.765-2.419,1.203c0.864,2.299,0.658,4.285-1.012,5.896
	c0.778,0.897,1.434,1.653,1.935,2.229c-1.204,1.739-2.286,3.332-3.405,4.898c-0.375,0.525-0.752,1.147-1.284,1.442
	c-4.798,2.659-9.087,6.274-14.688,7.433c-2.985,0.617-5.966,1.25-8.583,3.231c-2.36,1.788-5.2,2.941-8.613,4.804
	c3.343,0.812,4.905-1.162,6.856-1.73c1.906-0.555,3.805-1.138,5.72-1.658c2-0.543,3.879-1.898,6.68-1.242
	c-0.892,1.113-1.423,1.775-1.957,2.437c-0.919,0.258-1.839,0.515-2.759,0.772c0.079,0.193,0.158,0.387,0.237,0.58
	C151.252,164.293,152.071,163.824,152.89,163.354z M157.127,118.376c-1.327,2.85-2.214,5.089-3.372,7.178
	c-3.415,6.163-9.96,7.657-15.76,3.697c-1.195-0.816-2.396-1.624-3.596-2.438c-4.347,6.557-4.409,12.563-0.574,18.844
	c2.44,3.996,5.779,6.642,10.457,7.39c4.48,0.717,9.001,0.302,12.907-1.814c3.806-2.063,7.581-4.682,7.622-9.943
	c0.006-0.751,0.724-1.486,1.07-2.248c0.447-0.984,1.134-1.964,1.228-2.99c0.576-6.352-1.607-11.711-6.286-16
	C160.079,119.367,158.901,119.156,157.127,118.376z M189.558,246c3.19,0.893,5.623-0.58,8.392-1.68
	c-1.297-8.954-4.965-17.03-7.249-25.485c-0.381-1.408-1.441-2.632-2.271-4.091c-3.858,0.882-7.349,1.899-10.082,4.356
	c0.05,1.981,1.025,2.695,2.563,2.624c2.092-0.097,4.177-0.314,6.554-0.505c-0.665,2.602-2.79,2.581-4.095,3.585
	c-0.585,0.449-0.947,1.188-1.422,1.813c2.642,2.338,5.498-0.422,8.244,1.393c-2.14,1.263-4.122,2.433-6.205,3.661
	c0.745,2.726,2.015,4.118,4.728,3.985c1.402-0.066,3.042-1.099,4.479,1c-1.611,1.047-3.192,2.035-4.71,3.114
	c-0.179,0.126-0.003,0.752,0.011,1.147c1.516,1.465,3.893-0.975,5.397,1.148C193.009,243.931,190.148,243.51,189.558,246z
	 M207.984,271.42c-2.124,1.785-1.272,4.499-3.754,4.998c-1.035,0.209-2.177,0.451-2.307,1.88c-0.09,0.993,1.344,1.729,3.178,1.35
	c2.281-0.474,4.866-0.286,6.78-2.733c-1.036-3.159-1.081-6.801-4.677-9.273c-2.419,0.839-5.309,0.829-7.302,3.125
	c0.315,0.46,0.433,0.773,0.546,0.773C202.597,271.528,204.744,271.479,207.984,271.42z M225.996,265.811
	c4.733-1.381,4.95-1.631,4.269-4.757c-0.274-1.263-0.584-2.542-1.086-3.727c-0.549-1.298-1.607-2.046-3.108-1.651
	c-1.445,0.38-2.304,1.489-2.044,2.879C224.458,260.854,225.237,263.088,225.996,265.811z M169.384,75.457
	c-0.258-1.564-1.802-2.751-3.303-2.538c-2.877,0.408-4.869,2.548-4.388,4.717c0.446,2.009,1.847,3.057,3.78,2.828
	C168.207,80.14,169.816,78.081,169.384,75.457z M187.38,62.394c-1.896,0.165-3.543,2.275-3.266,4.181
	c0.265,1.827,2.235,3.311,4.331,3.264c1.817-0.042,3.271-2.007,3.146-4.256C191.487,63.663,189.561,62.206,187.38,62.394z
	 M175.526,67.604c-1.623,0.258-2.7,1.657-2.488,3.23c0.333,2.462,2.238,3.935,4.526,3.498c1.803-0.344,3.043-1.95,2.878-3.729
	C180.246,68.517,178.086,67.198,175.526,67.604z M121.135,148.171c1.385-0.225,2.23-0.294,3.041-0.503
	c5.533-1.425,5.773-2.258,2.002-7.928c-1.446,0.66-2.954,1.349-4.562,2.084c0.915,1.018,1.583,1.762,2.296,2.555
	c-0.726,0.727-1.242,1.145-1.632,1.661C121.925,146.511,121.708,147.085,121.135,148.171z M145.313,127.848
	c-7.05-6.113-7.039-6.114-8.039-15.118c-0.054-0.485-0.539-0.923-0.984-1.643c-0.843,5.478-0.037,10.102,2.22,13.394
	C140.056,126.735,142.014,128.131,145.313,127.848z M203.535,63.216c-0.657-2.874-2.781-4.283-4.953-3.757
	c-1.354,0.328-2.392,1.665-2.186,2.815c0.423,2.364,3.329,4.446,5.268,3.471C202.601,65.273,203.071,63.878,203.535,63.216z
	 M125.036,155.51c3.336-0.806,5.854-1.221,7.621-3.352c-2.211-4.534-2.634-4.608-7.922-1.426c1.165,0.338,2.244,0.651,3.533,1.025
	C127.194,153.005,126.401,153.925,125.036,155.51z M194.979,261.589c3.602,1.104,6.298,0.121,8.88-0.946
	c0.559-1.613,0.48-3.321-1.044-3.328C199.844,257.299,197.137,258.418,194.979,261.589z M158.799,84.3
	c-0.197-1.855-1.392-3.207-2.709-3.063c-1.578,0.17-3.308,2.016-3.285,3.5c0.023,1.47,1.979,2.996,3.734,2.914
	C157.943,87.585,158.984,86.042,158.799,84.3z M125.602,133.732c-1.936,1.564-3.382,2.732-5.321,4.301
	c6.702-0.471,7.259-1.184,6.556-7.865c-1.37,0.687-2.619,1.312-4.112,2.059C123.694,132.734,124.249,133.024,125.602,133.732z
	 M210.672,57.889c-1.399,0.108-2.766,1.887-2.473,3.218c0.304,1.38,1.712,2.356,3.409,2.368c1.392,0.008,2.555-1.128,2.438-2.384
	C213.875,59.263,212.294,57.763,210.672,57.889z M205.39,283.928c2.885-0.096,6.181,1.143,7.941-2.279
	c0.069-0.136-0.062-0.53-0.19-0.585C209.792,279.667,207.679,282.107,205.39,283.928z M198.147,266.07
	c0.171,0.433,0.341,0.865,0.512,1.296c2.481-0.545,4.976-1.041,7.424-1.701c0.271-0.072,0.41-1.082,0.373-1.64
	c-0.021-0.281-0.627-0.793-0.881-0.743C202.93,263.793,200.2,264.164,198.147,266.07z M148.358,90.26
	c-0.178,0.116-0.405,0.194-0.527,0.355c-1.261,1.637-0.922,3.903,0.832,4.934c0.474,0.277,1.434,0.42,1.736,0.146
	c0.547-0.498,1.2-1.484,1.035-2.033c-0.349-1.153-1.15-2.188-1.878-3.191C149.385,90.234,148.769,90.319,148.358,90.26z
	 M140.315,159.163c-5.699,0.313-7.269,1.026-8.864,4.387c3.049-1.185,5.793-2.229,8.507-3.345
	C140.184,160.113,140.203,159.522,140.315,159.163z M134.912,156.133c-5.159,0.458-5.162,0.462-7.579,3.398
	C129.57,158.782,132.146,158.976,134.912,156.133z M144.413,121.51c1.626,0.556,2.207,0.913,2.791,0.92
	c1.093,0.015,2.212-0.15,2.604-1.454c0.05-0.168-0.078-0.561-0.17-0.576c-0.826-0.141-1.675-0.358-2.488-0.273
	C146.56,120.188,146.013,120.672,144.413,121.51z M208.587,288.179c4.19-0.575,4.19-0.575,5.462-2.311
	C211.903,285.684,210.292,286.487,208.587,288.179z M144.925,166.656c-0.394-0.042-0.856-0.214-1.215-0.091
	c-0.292,0.102-0.461,0.558-0.684,0.856c0.4,0.076,0.867,0.312,1.184,0.182C144.527,167.475,144.696,166.98,144.925,166.656z
	 M208.281,243.792c-0.003-0.361,0.021-0.729-0.028-1.084c-0.012-0.082-0.263-0.132-0.403-0.196c0.005,0.358-0.013,0.721,0.038,1.073
	C207.9,243.671,208.143,243.725,208.281,243.792z M216.359,267.288c-0.104-0.153-0.209-0.308-0.314-0.46
	c-0.063,0.335-0.167,0.67-0.173,1.006c-0.003,0.15,0.19,0.305,0.296,0.456C216.233,267.956,216.296,267.622,216.359,267.288z
	 M137.451,105.753l0.174-0.396l-0.372,0.011L137.451,105.753z"/>
</svg>
