<?xml version="1.0" encoding="utf-8"?>
<!-- Generator: Adobe Illustrator 16.0.0, SVG Export Plug-In . SVG Version: 6.00 Build 0)  -->
<!DOCTYPE svg PUBLIC "-//W3C//DTD SVG 1.1//EN" "http://www.w3.org/Graphics/SVG/1.1/DTD/svg11.dtd">
<svg version="1.1" id="Capa_1" xmlns="http://www.w3.org/2000/svg" xmlns:xlink="http://www.w3.org/1999/xlink" x="0px" y="0px"
	 width="350px" height="350px" viewBox="0 0 350 350" enable-background="new 0 0 350 350" xml:space="preserve">
<g>
	<path d="M267.085,109.172c-21.862-36.547-55.192-55.59-91.638-52.2c-26.297,2.449-43.761,11.495-51.9,26.892
		c-13.806,26.096,4.709,60.19,5.505,61.627l1.106,2.012l2.296,0.024c0.059,0,0.961,0.035,2.438,0.307
		c-3.256,5.73-5.139,12.333-5.139,19.382v39.378c0,34.74-28.266,63.006-63.006,63.006c-2.178,0-3.938,1.761-3.938,3.938
		c0,2.179,1.76,3.938,3.938,3.938c38.465,0,69.81-30.82,70.791-69.057c9.836-9.215,22.761-12.791,35.2-10.794
		c1.658,8.19,2.772,17.677,3.079,28.766c0.775,28.021,7.817,47.703,20.93,58.505c8.931,7.359,18.308,8.514,23.316,8.514
		c1.563,0,2.701-0.11,3.269-0.186c0.121,0.004,0.248,0.004,0.378,0.004c18.461-0.004,32.68-5.82,42.253-17.295
		c17.314-20.748,13.598-53.059,12.432-60.627C293.508,190.65,288.778,145.443,267.085,109.172z M160.172,165.786
		c-7.415,4.209-15.361,11.424-22.548,23.644v-22.214c0-6.206,1.827-11.983,4.938-16.866
		C147.8,152.788,154.301,157.344,160.172,165.786z M143.827,194.45c6.611-11.602,13.814-18.213,20.421-21.91
		c2.457,4.682,4.686,10.237,6.529,16.842C161.57,188.504,152.246,190.189,143.827,194.45z M259.914,270.891
		c-8.01,9.602-20.193,14.464-36.216,14.464c-0.201,0-0.402-0.003-0.599-0.003l-0.658,0.051c-0.44,0.067-10.896,1.583-20.827-6.694
		c-11.034-9.194-17.231-27.356-17.925-52.531c-0.271-9.849-1.154-18.547-2.48-26.28c5.576,2.118,10.856,5.414,15.483,9.927v14.318
		c0,2.178,1.76,3.938,3.938,3.938s3.938-1.76,3.938-3.938v-11.813h11.813c2.177,0,3.938-1.761,3.938-3.938s-1.761-3.938-3.938-3.938
		H202.48c-6.757-6.683-14.727-11.145-23.083-13.451c-2.056-8.542-4.714-15.666-7.722-21.604c0.85-0.248,1.689-0.465,2.492-0.63
		c8.735-1.8,15.637,0.712,17.39,2.461l11.14,11.145c0.768,0.768,1.775,1.153,2.784,1.153c1.008,0,2.017-0.386,2.784-1.153
		c1.54-1.54,1.54-4.029,0-5.568l-8.353-8.356l8.353-8.352c1.54-1.54,1.54-4.028,0-5.568c-1.539-1.54-4.028-1.54-5.568,0
		l-8.837,8.836c-4.887-2.638-12.703-4.079-21.284-2.307c-1.575,0.327-3.233,0.768-4.954,1.354
		c-6.316-9.608-13.519-15.168-19.76-18.37c5.612-5.151,13.062-8.325,21.26-8.325h15.752c2.177,0,3.938-1.76,3.938-3.938
		s-1.761-3.938-3.938-3.938h-11.814v-11.813c0-2.178-1.76-3.938-3.938-3.938s-3.938,1.76-3.938,3.938v12.014
		c-10.002,0.996-18.878,5.781-25.265,12.857c-1.973-0.555-3.646-0.862-4.907-1.031c-3.43-7.064-14.688-33.122-4.505-52.342
		c6.836-12.884,22.201-20.528,45.671-22.709c33.279-3.095,63.903,14.551,84.148,48.396c20.638,34.511,25.218,77.104,10.651,99.08
		l-0.89,1.335l0.299,1.575C270.456,215.557,276.858,250.592,259.914,270.891z"/>
	<path d="M263.982,182.908c-0.312-0.401-0.693-0.736-1.126-0.992c-0.013-0.004-0.017-0.016-0.024-0.023l0,0l0,0
		c-8.203-4.737-14.042-12.283-16.444-21.245s-1.114-18.421,3.623-26.624c0.047-0.079,0.043-0.169,0.083-0.248
		c0.185-0.378,0.346-0.776,0.405-1.202c0.138-1.035-0.143-2.083-0.779-2.914c-0.635-0.826-1.571-1.37-2.604-1.504
		c-0.52-0.067-1.044-0.036-1.544,0.099c-9.163,2.449-18.696,1.193-26.892-3.536c-8.19-4.729-14.054-12.377-16.503-21.528
		c-0.56-2.099-2.718-3.352-4.824-2.784c-2.099,0.563-3.348,2.721-2.784,4.824c2.997,11.184,10.16,20.528,20.174,26.313
		c6.667,3.851,14.074,5.816,21.575,5.816c1.205,0,2.414-0.138,3.623-0.237c-2.989,8.215-3.438,17.063-1.162,25.568
		c2.276,8.49,7.077,15.917,13.755,21.537c-18.543,8.773-28.809,29.825-23.315,50.333c0.469,1.761,2.06,2.918,3.8,2.918
		c0.339,0,0.682-0.043,1.023-0.134c2.1-0.563,3.348-2.721,2.784-4.823c-5.057-18.879,6.183-38.352,25.058-43.407
		c0.012-0.004,0.016-0.012,0.027-0.012c0.437-0.123,0.838-0.339,1.217-0.603c0.09-0.063,0.177-0.126,0.26-0.197
		c0.343-0.288,0.653-0.614,0.89-1.023c0.047-0.079,0.043-0.17,0.083-0.248c0.185-0.379,0.346-0.775,0.405-1.201
		C264.903,184.786,264.62,183.739,263.982,182.908z"/>
</g>
</svg>
