<?xml version="1.0" encoding="utf-8"?>
<!-- Generator: Adobe Illustrator 16.0.0, SVG Export Plug-In . SVG Version: 6.00 Build 0)  -->
<!DOCTYPE svg PUBLIC "-//W3C//DTD SVG 1.1//EN" "http://www.w3.org/Graphics/SVG/1.1/DTD/svg11.dtd">
<svg version="1.1" id="Layer_1" xmlns="http://www.w3.org/2000/svg" xmlns:xlink="http://www.w3.org/1999/xlink" x="0px" y="0px"
	 width="350px" height="350px" viewBox="0 0 350 350" enable-background="new 0 0 350 350" xml:space="preserve">
<g>
	<g>
		<g>
			<path d="M141.642,144.119c0.003-0.007,0.005-0.014,0.008-0.021C141.648,144.098,141.645,144.105,141.642,144.119z"/>
			<path d="M305.42,161.682c-1.41-0.705-34.818-17.274-58.112-17.274H141.755c0.009,0,0.017-0.004,0.024-0.004
				c-0.024,0-0.049,0.004-0.065,0.004h-0.09c0-0.159,0.009-0.251,0.017-0.289c-0.005,0.014-0.011,0.027-0.017,0.045v-10.882
				c-5.394,0-11.13,3.899-11.13,11.126H52.623c0-3.072-2.494-5.565-5.565-5.565c-3.072,0-5.557,2.493-5.557,5.565v50.066
				c0,9.191,7.48,16.688,16.688,16.688c2.974,0,5.761-0.79,8.181-2.159c2.974,4.637,8.164,7.717,14.063,7.717
				c4.27,0,8.173-1.613,11.13-4.262c2.95,2.648,6.853,4.262,11.123,4.262c5.899,0,11.09-3.08,14.056-7.717
				c2.428,1.369,5.215,2.159,8.197,2.159c9.2,0,16.688-7.496,16.688-16.688c0-1.222-0.139-2.411-0.391-3.552
				c0.245-0.62,0.391-1.304,0.391-2.021h105.683c23.295,0,56.702-16.566,58.112-17.271c1.882-0.941,3.08-2.868,3.08-4.975
				C308.499,164.551,307.302,162.624,305.42,161.682z M52.623,155.53h11.122v23.205c-1.744-0.615-3.609-0.954-5.557-0.954
				c-1.956,0-3.83,0.339-5.565,0.954V155.53z M58.188,200.031c-3.072,0-5.565-2.493-5.565-5.558c0-3.07,2.493-5.572,5.565-5.572
				c3.064,0,5.557,2.502,5.557,5.572C63.745,197.538,61.251,200.031,58.188,200.031z M80.432,205.589
				c-3.064,0-5.557-2.494-5.557-5.558c0-3.064,2.493-5.558,5.557-5.558c3.072,0,5.565,2.493,5.565,5.558
				C85.997,203.095,83.504,205.589,80.432,205.589z M85.998,184.306c-1.744-0.62-3.618-0.962-5.565-0.962s-3.821,0.342-5.557,0.962
				V155.53h11.123V184.306z M102.685,205.589c-3.071,0-5.565-2.494-5.565-5.558c0-3.064,2.494-5.558,5.565-5.558
				c3.064,0,5.565,2.493,5.565,5.558C108.25,203.095,105.749,205.589,102.685,205.589z M108.25,184.306
				c-1.744-0.62-3.618-0.962-5.565-0.962s-3.821,0.342-5.565,0.962V155.53h11.13V184.306z M119.372,155.53h11.122v23.205
				c-1.744-0.615-3.609-0.954-5.557-0.954c-1.956,0-3.83,0.339-5.565,0.954V155.53z M124.938,200.031
				c-3.072,0-5.565-2.493-5.565-5.558c0-3.07,2.493-5.572,5.565-5.572c3.063,0,5.557,2.502,5.557,5.572
				C130.495,197.538,128.001,200.031,124.938,200.031z M247.308,177.781H141.625v-5.563h94.56c3.072,0,5.565-2.489,5.565-5.562
				c0-3.072-2.493-5.561-5.565-5.561h-94.56v-5.565h105.683c13.086,0,30.783,6.396,42.084,11.126
				C278.091,171.387,260.393,177.781,247.308,177.781z"/>
		</g>
	</g>
</g>
</svg>
