<?xml version="1.0" encoding="utf-8"?>
<!-- Generator: Adobe Illustrator 16.0.0, SVG Export Plug-In . SVG Version: 6.00 Build 0)  -->
<!DOCTYPE svg PUBLIC "-//W3C//DTD SVG 1.1//EN" "http://www.w3.org/Graphics/SVG/1.1/DTD/svg11.dtd">
<svg version="1.1" id="Capa_1" xmlns="http://www.w3.org/2000/svg" xmlns:xlink="http://www.w3.org/1999/xlink" x="0px" y="0px"
	 width="350px" height="350px" viewBox="0 0 350 350" enable-background="new 0 0 350 350" xml:space="preserve">
<g>
	<path d="M253.327,80.721c-0.316-0.357-0.691-0.662-1.107-0.903c-12.267-9.952-26.485-17.583-41.986-22.222
		c-0.262-0.107-0.538-0.189-0.824-0.246c-10.877-3.172-22.371-4.881-34.259-4.881c-11.887,0-23.382,1.708-34.258,4.881
		c-0.287,0.057-0.562,0.139-0.824,0.246c-16.602,4.97-31.735,13.368-44.573,24.376c-0.425,0.262-0.806,0.59-1.122,0.975
		c-7.81,6.861-14.745,14.696-20.608,23.316c-0.304,0.333-0.557,0.71-0.75,1.123C60.136,126.778,52.619,150.026,52.619,175
		c0,22.253,5.965,43.139,16.377,61.146c0.167,0.41,0.393,0.789,0.667,1.129c15.128,25.528,39.254,45.12,67.979,54.379
		c0.244,0.105,0.5,0.187,0.763,0.248c11.605,3.655,23.948,5.631,36.744,5.631c17.692,0,34.515-3.775,49.719-10.551
		c0.376-0.114,0.738-0.274,1.074-0.482c14.683-6.716,27.814-16.251,38.708-27.906c0.388-0.301,0.725-0.661,0.996-1.07
		c11.748-12.871,20.788-28.251,26.225-45.228c0.116-0.266,0.208-0.545,0.271-0.834c3.599-11.521,5.538-23.769,5.538-36.46
		C297.683,137.126,280.408,103.214,253.327,80.721z M203.282,64.962c-3.521,12.342-14.991,21.234-28.132,21.234
		s-24.609-8.892-28.131-21.234c9-2.302,18.425-3.528,28.131-3.528C184.857,61.434,194.282,62.661,203.282,64.962z M99.625,90.268
		h27.559c5.093,0,9.238,4.144,9.238,9.237c0,3.85-2.425,7.333-6.035,8.667c-1.76,0.65-2.928,2.328-2.928,4.205v45.952
		c-12.617,0.214-25.34,0.275-27.382,0.016c-1.285-0.273-2.631,0.033-3.676,0.842c-1.096,0.849-1.736,2.157-1.736,3.543v8.649
		c0,3.614-2.939,6.553-6.553,6.553s-6.553-2.939-6.553-6.553v-60.626C86.746,103.219,92.818,96.341,99.625,90.268z M72.593,126.253
		v45.125c0,6.999,4.658,12.928,11.036,14.855v11.72c-6.943,4.048-12.124,10.793-14.093,18.795
		c-5.129-12.93-7.951-27.016-7.951-41.749C61.585,157.562,65.54,141.033,72.593,126.253z M77.629,233.132v-9.208
		c0-11.623,9.456-21.079,21.08-21.079c11.623,0,21.079,9.456,21.079,21.079v3.286c0,2.476,2.007,4.483,4.483,4.483h11.578
		c7.087,0,12.854,5.766,12.854,12.854c0,6.049-4.29,11.34-10.201,12.578c-2.076,0.436-3.563,2.267-3.563,4.388v19.691
		C110.87,272.061,90.69,254.962,77.629,233.132z M143.904,284.192v-19.366c8.155-3.253,13.764-11.271,13.764-20.279
		c0-12.032-9.788-21.82-21.82-21.82h-7.118c-0.631-16.013-13.855-28.847-30.021-28.847c-2.094,0-4.139,0.217-6.114,0.627v-8.271
		c6.377-1.928,11.036-7.857,11.036-14.856v-3.946c4.913,0.104,12.875,0.059,23.829-0.136v1.409c0,2.476,2.007,4.483,4.482,4.483
		s4.483-2.007,4.483-4.483v-53.52c5.465-3.233,8.962-9.193,8.962-15.682c0-10.037-8.166-18.203-18.204-18.203h-16.127
		c8.387-5.755,17.578-10.417,27.373-13.772c4.643,16.069,19.597,27.632,36.722,27.632c17.125,0,32.08-11.563,36.722-27.632
		c12.297,4.213,23.647,10.481,33.642,18.392l0.173,14.602h-19.373c-2.476,0-4.482,2.007-4.482,4.483s2.007,4.483,4.482,4.483h7.472
		v7.822h-14.301c-0.25,0-0.501,0.021-0.748,0.063c-7.845,1.329-13.988,8.602-13.988,16.558v8.333h-28.86
		c-2.475,0-4.482,2.007-4.482,4.483v12.791c0,11.665,9.489,21.154,21.154,21.154c8.465,0,15.978-5.008,19.325-12.533
		c7.769,0,27.666,0,34.958,0c4.139,7.095,11.243,11.964,19.294,13.297v8.332h-75.919c-10.374,0-18.813,8.438-18.813,18.812
		s8.439,18.813,18.813,18.813h11.406v27.953c0,10.36,4.552,19.868,12.28,26.389c-12.099,4.404-25.15,6.812-38.754,6.812
		C164.317,288.565,153.835,287.04,143.904,284.192z M266.392,242.54v-27.562h15.053C277.701,224.897,272.611,234.16,266.392,242.54z
		 M284.412,206.013h-22.503c-2.477,0-4.482,2.007-4.482,4.482v42.706c-9.604,10.099-21.042,18.433-33.772,24.47
		c-8.106-4.657-13.063-13.026-13.063-22.307v-32.436c0-2.476-2.008-4.482-4.483-4.482h-15.89c-5.43,0-9.847-4.418-9.847-9.847
		c0-5.431,4.417-9.847,9.847-9.847h80.402c2.476,0,4.481-2.008,4.481-4.483v-16.929c0-2.477-2.006-4.484-4.481-4.484
		c-7.314,0-13.968-4.32-16.951-11.008c-0.722-1.616-2.325-2.656-4.094-2.656l-40.404,0c-3.324,0-4.412,2.055-4.768,3.382
		l-0.034-0.008c-1.378,5.393-6.233,9.16-11.81,9.16c-6.721,0-12.188-5.468-12.188-12.188v-8.307h28.859
		c2.476,0,4.483-2.008,4.483-4.483v-12.815c0-3.414,2.861-6.907,6.2-7.654h18.354c2.477,0,4.483-2.007,4.483-4.483V109.49h7.471
		c1.198,0,2.347-0.479,3.189-1.332c0.842-0.853,1.307-2.006,1.293-3.204l-0.13-11.042c21.054,20.627,34.142,49.355,34.142,81.087
		C288.717,185.748,287.215,196.151,284.412,206.013z"/>
	<path d="M194.64,132.88c2.477,0,4.483-2.007,4.483-4.483v-4.669c0-2.476-2.007-4.483-4.483-4.483c-2.476,0-4.481,2.008-4.481,4.483
		v4.669C190.158,130.873,192.164,132.88,194.64,132.88z"/>
	<path d="M311.121,179.493c-2.469-0.161-4.604,1.712-4.766,4.182c-4.484,68.872-62.116,122.822-131.205,122.822
		c-26.593,0-52.214-7.903-74.093-22.853c-1.158-0.792-2.618-0.996-3.947-0.553l-45.077,15.025l15.026-45.076
		c0.443-1.329,0.239-2.79-0.552-3.946C51.556,227.214,43.653,201.593,43.653,175c0-72.508,58.989-131.497,131.497-131.497
		c69.089,0,126.721,53.95,131.205,122.823c0.162,2.471,2.297,4.349,4.766,4.182c2.47-0.161,4.343-2.294,4.182-4.765
		c-2.314-35.542-17.92-68.598-43.939-93.076c-26.14-24.589-60.309-38.131-96.213-38.131c-37.519,0-72.792,14.61-99.322,41.141
		c-26.53,26.53-41.141,61.803-41.141,99.322c0,27.657,8.004,54.331,23.169,77.294l-17.165,51.493
		c-0.537,1.61-0.118,3.386,1.083,4.587c1.2,1.201,2.977,1.619,4.587,1.083l51.493-17.164c22.962,15.166,49.637,23.17,77.294,23.17
		c35.904,0,70.073-13.541,96.211-38.13c26.021-24.478,41.626-57.532,43.941-93.076C315.464,181.786,313.591,179.653,311.121,179.493
		z"/>
</g>
</svg>
