<?xml version="1.0" encoding="utf-8"?>
<!-- Generator: Adobe Illustrator 16.0.0, SVG Export Plug-In . SVG Version: 6.00 Build 0)  -->
<!DOCTYPE svg PUBLIC "-//W3C//DTD SVG 1.1//EN" "http://www.w3.org/Graphics/SVG/1.1/DTD/svg11.dtd">
<svg version="1.1" id="Layer_1" xmlns="http://www.w3.org/2000/svg" xmlns:xlink="http://www.w3.org/1999/xlink" x="0px" y="0px"
	 width="350px" height="350px" viewBox="0 0 350 350" enable-background="new 0 0 350 350" xml:space="preserve">
<path fill="#E4AD40" d="M141.843,188.582l0.122-0.125l-10.874-30.816c-3.651,1.795-7.072,4.2-10.057,7.292
	c-2.965,3.069-5.284,6.581-6.98,10.359L141.843,188.582z"/>
<rect x="162.848" y="230.559" transform="matrix(0.9976 -0.0697 0.0697 0.9976 -16.4869 12.7829)" fill="#D8D8D8" width="24.154" height="24.154"/>
<g>
	<path fill="#E4AD40" d="M140.243,154.547l9.223,26.14l19.099-19.775c-6.369-4.689-13.922-7.025-21.465-7.025
		C144.801,153.888,142.506,154.115,140.243,154.547z"/>
	<path fill="#E4AD40" d="M111.297,184.686c-0.296,1.985-0.466,4.001-0.43,6.048c0.137,8.049,2.877,15.648,7.798,21.847l16.1-16.67
		L111.297,184.686z"/>
</g>
<rect x="201.503" y="172.595" transform="matrix(0.5001 -0.866 0.866 0.5001 -54.0316 280.577)" fill="#D8D8D8" width="28.984" height="28.982"/>
<path fill="#DBCF56" d="M218.279,127.616c-1.419-0.877-2.283-2.435-2.283-4.104v-18.56h-86.956v18.56
	c0,1.67-0.864,3.227-2.283,4.104c-25.796,15.993-41.195,43.638-41.195,73.954c0,47.945,39.01,86.956,86.956,86.956
	c47.945,0,86.956-39.011,86.956-86.956C259.475,171.254,244.076,143.609,218.279,127.616z M118.567,224.47
	c-1.208,0-2.42-0.448-3.354-1.354c-8.822-8.515-13.794-19.955-14.007-32.212s4.359-23.862,12.875-32.68
	c17.582-18.215,46.691-18.71,64.891-1.137c0.926,0.892,1.454,2.113,1.478,3.392c0.023,1.284-0.467,2.519-1.354,3.439l-57.051,59.074
	C121.096,223.974,119.831,224.47,118.567,224.47z M193.313,263.141l-33.731,2.358c-0.113,0.006-0.227,0.01-0.34,0.01
	c-2.514,0-4.637-1.948-4.817-4.496l-2.359-33.73c-0.184-2.66,1.821-4.969,4.486-5.157l33.731-2.358
	c2.619-0.104,4.969,1.825,5.157,4.486l2.358,33.731C197.984,260.645,195.979,262.951,193.313,263.141z M246.577,182.422
	l-19.324,33.467c-0.896,1.552-2.52,2.415-4.188,2.415c-0.822,0-1.651-0.207-2.412-0.646l-33.467-19.324
	c-2.312-1.336-3.104-4.288-1.769-6.601l19.323-33.467c1.336-2.316,4.293-3.104,6.601-1.769l33.467,19.324
	C247.119,177.156,247.912,180.109,246.577,182.422z"/>
<g>
	<path fill="#314E55" d="M204.74,158.266l-19.324,33.467c-1.335,2.312-0.542,5.265,1.77,6.601l33.467,19.323
		c0.759,0.439,1.59,0.646,2.41,0.646c1.671,0,3.294-0.863,4.19-2.416l19.323-33.468c1.336-2.311,0.543-5.264-1.769-6.6
		l-33.467-19.324C209.033,155.162,206.075,155.95,204.74,158.266z M221.299,206.872L196.2,192.38l14.493-25.099l25.099,14.493
		L221.299,206.872z"/>
	<path fill="#314E55" d="M190.285,219.766l-33.731,2.359c-2.666,0.188-4.67,2.495-4.486,5.156l2.359,33.731
		c0.179,2.548,2.302,4.496,4.817,4.496c0.113,0,0.227-0.006,0.339-0.01l33.732-2.359c2.665-0.188,4.671-2.495,4.486-5.156
		l-2.359-33.731C195.253,221.592,192.903,219.662,190.285,219.766z M163.729,255.521l-1.685-24.094l24.094-1.684l1.685,24.093
		L163.729,255.521z"/>
	<path fill="#314E55" d="M180.448,160.479c-0.022-1.279-0.552-2.5-1.477-3.392c-18.201-17.574-47.309-17.078-64.892,1.137
		c-8.515,8.818-13.086,20.423-12.875,32.679c0.212,12.257,5.185,23.697,14.007,32.213c0.934,0.905,2.146,1.354,3.354,1.354
		c1.264,0,2.528-0.497,3.477-1.478l57.051-59.075C179.981,162.999,180.472,161.762,180.448,160.479z M121.034,164.933
		c2.984-3.092,6.406-5.497,10.057-7.292l10.874,30.816l-0.122,0.126l-27.789-13.292C115.751,171.513,118.07,168.001,121.034,164.933
		z M118.666,212.58c-4.92-6.198-7.662-13.799-7.798-21.847c-0.036-2.047,0.134-4.063,0.43-6.048l23.468,11.225L118.666,212.58z
		 M149.466,180.688l-9.223-26.14c2.263-0.433,4.559-0.659,6.856-0.659c7.543,0,15.097,2.335,21.465,7.024L149.466,180.688z"/>
	<path fill="#314E55" d="M272.571,94.568c-7.256-20.836-36.517-16.363-46.913-14.053V56.644c0-2.671-2.16-4.832-4.831-4.832h-111.11
		c-1.765,0-3.382,0.958-4.231,2.505c-0.85,1.543-0.793,3.43,0.156,4.917l13.738,21.64v19.249v20.743
		c-27.278,17.96-43.478,47.927-43.478,80.706c-0.001,53.276,43.341,96.617,96.618,96.617c53.277,0,96.618-43.341,96.618-96.617
		c0-19.251-5.626-37.509-15.763-52.958C257.334,144.03,280.143,116.35,272.571,94.568z M263.446,97.743
		c4.739,13.642-8.52,33.792-15.935,42.828c-6.143-7.522-13.47-14.186-21.854-19.706v-20.744v-9.669
		C231.105,89.117,258.396,83.233,263.446,97.743z M118.505,61.474h97.491V95.29h-86.956V79.467c0-0.916-0.26-1.816-0.755-2.59
		L118.505,61.474z M172.519,288.526c-47.946,0-86.956-39.011-86.956-86.956c0-30.316,15.398-57.961,41.195-73.955
		c1.419-0.877,2.283-2.434,2.283-4.104v-18.56h86.956v18.559c0,1.67,0.864,3.227,2.283,4.104
		c25.797,15.993,41.195,43.638,41.195,73.954C259.475,249.516,220.464,288.526,172.519,288.526z"/>
</g>
</svg>
