<?xml version="1.0" encoding="utf-8"?>
<!-- Generator: Adobe Illustrator 16.0.0, SVG Export Plug-In . SVG Version: 6.00 Build 0)  -->
<!DOCTYPE svg PUBLIC "-//W3C//DTD SVG 1.1//EN" "http://www.w3.org/Graphics/SVG/1.1/DTD/svg11.dtd">
<svg version="1.1" id="Layer_1" xmlns="http://www.w3.org/2000/svg" xmlns:xlink="http://www.w3.org/1999/xlink" x="0px" y="0px"
	 width="350px" height="350px" viewBox="0 0 350 350" enable-background="new 0 0 350 350" xml:space="preserve">
<g>
	<circle fill="#D8D8D8" cx="196.667" cy="204.123" r="4.854"/>
	<path fill="#D8D8D8" d="M82.21,91.811c2.626,5.53,10.329,10.379,16.477,10.379h123.153c6.147,0,13.846-4.849,16.478-10.379
		l5.963-12.538c0.915-1.924,1.076-3.612,0.437-4.624c-0.636-1.005-2.219-1.583-4.338-1.583H80.148c-2.124,0-3.703,0.578-4.342,1.586
		c-0.635,1.009-0.479,2.694,0.441,4.622L82.21,91.811z"/>
	<circle fill="#D8D8D8" cx="138.416" cy="233.251" r="4.854"/>
</g>
<path fill="#E4AD40" d="M217.91,165.543H102.618l-17.359,78.663c-0.796,3.603-0.166,6.913,1.768,9.324
	c1.939,2.41,5.039,3.738,8.727,3.738h129.021c3.692,0,6.788-1.328,8.723-3.736c1.938-2.407,2.569-5.722,1.772-9.326L217.91,165.543z
	 M138.421,247.811c-8.03,0-14.562-6.531-14.562-14.562s6.532-14.563,14.562-14.563s14.563,6.532,14.563,14.563
	S146.451,247.811,138.421,247.811z M196.67,218.687c-8.03,0-14.563-6.532-14.563-14.562c0-8.03,6.532-14.563,14.563-14.563
	c8.029,0,14.562,6.532,14.562,14.563C211.231,212.154,204.699,218.687,196.67,218.687z"/>
<path fill="#EAEAEA" d="M231.691,126.46H88.842L67.81,249.127c-1.285,7.501,0.431,14.5,4.826,19.712
	c4.399,5.222,11.031,8.096,18.662,8.096H229.23c7.637,0,14.264-2.874,18.667-8.094c4.396-5.209,6.106-12.213,4.821-19.715
	L231.691,126.46z M241.067,259.614c-3.816,4.747-9.6,7.361-16.293,7.361H95.753c-6.688,0-12.477-2.616-16.292-7.365
	c-3.816-4.75-5.125-10.962-3.684-17.494l18.198-82.472c0.493-2.226,2.46-3.809,4.74-3.809h123.097c2.279,0,4.247,1.583,4.739,3.809
	l18.199,82.472C246.191,248.65,244.883,254.865,241.067,259.614z"/>
<g>
	<path fill="#314E55" d="M226.552,159.644c-0.492-2.226-2.459-3.809-4.739-3.809H98.716c-2.28,0-4.247,1.583-4.74,3.809
		l-18.198,82.472c-1.441,6.532-0.133,12.744,3.683,17.494c3.816,4.749,9.604,7.365,16.293,7.365h129.021
		c6.693,0,12.477-2.614,16.293-7.361c3.815-4.75,5.124-10.964,3.684-17.498L226.552,159.644z M233.497,253.532
		c-1.934,2.408-5.029,3.736-8.723,3.736H95.753c-3.688,0-6.788-1.328-8.727-3.738c-1.934-2.411-2.564-5.722-1.768-9.324
		l17.359-78.662H217.91l17.359,78.663C236.066,247.811,235.436,251.125,233.497,253.532z"/>
	<path fill="#314E55" d="M196.67,189.563c-8.03,0-14.563,6.532-14.563,14.563c0,8.029,6.532,14.562,14.563,14.562
		c8.029,0,14.562-6.532,14.562-14.562C211.231,196.095,204.699,189.563,196.67,189.563z M196.67,208.979
		c-2.679,0-4.854-2.179-4.854-4.854s2.176-4.854,4.854-4.854c2.678,0,4.854,2.179,4.854,4.854S199.348,208.979,196.67,208.979z"/>
	<path fill="#314E55" d="M138.421,218.687c-8.03,0-14.562,6.532-14.562,14.563s6.532,14.562,14.562,14.562
		s14.563-6.531,14.563-14.562S146.451,218.687,138.421,218.687z M138.421,238.104c-2.678,0-4.854-2.179-4.854-4.854
		s2.176-4.854,4.854-4.854s4.854,2.179,4.854,4.854S141.099,238.104,138.421,238.104z"/>
	<path fill="#314E55" d="M73.441,95.979c4.242,8.926,15.334,15.918,25.247,15.918h123.153c9.907,0,20.999-6.992,25.246-15.916
		l5.964-12.541c2.375-4.996,2.327-10.092-0.128-13.979c-2.451-3.88-7.025-6.105-12.543-6.105H80.148
		c-5.522,0-10.097,2.225-12.547,6.11c-2.456,3.885-2.498,8.98-0.124,13.977L73.441,95.979z M75.806,74.651
		c0.641-1.008,2.219-1.586,4.342-1.586H240.38c2.119,0,3.702,0.578,4.337,1.583c0.641,1.012,0.479,2.7-0.436,4.624l-5.964,12.538
		c-2.631,5.53-10.329,10.379-16.478,10.379H98.688c-6.148,0-13.851-4.849-16.477-10.379l-5.963-12.538
		C75.328,77.346,75.171,75.661,75.806,74.651z"/>
	<path fill="#314E55" d="M286.123,109.162c-3.407-3.275-7.636-4.721-12.268-4.154c-12.549,1.511-25.684,18.079-31.487,26.297
		l-1.804-10.519c-0.397-2.33-2.417-4.034-4.782-4.034H84.751c-2.365,0-4.385,1.704-4.783,4.034L58.243,247.486
		c-1.777,10.37,0.697,20.175,6.968,27.612c6.276,7.444,15.543,11.545,26.086,11.545H229.23c10.542,0,19.81-4.101,26.086-11.543
		c6.271-7.435,8.745-17.242,6.968-27.614l-2.313-13.497c1.299-0.483,2.396-1.489,2.896-2.897c1.664-4.693,3.352-9.391,5.034-14.066
		C285.858,167.016,301.368,123.824,286.123,109.162z M247.897,268.842c-4.403,5.219-11.03,8.094-18.667,8.094H91.297
		c-7.632,0-14.263-2.875-18.662-8.097c-4.395-5.212-6.11-12.211-4.826-19.712L88.842,126.46H231.69l21.028,122.667
		C254.004,256.628,252.291,263.632,247.897,268.842z M258.763,213.745c-0.51,1.421-1.019,2.85-1.529,4.274l-12.867-75.061
		c1.307-0.222,2.524-0.934,3.29-2.143c6.077-9.578,18.886-25.152,27.366-26.171c1.735-0.21,3.072,0.263,4.37,1.515
		C290.105,126.462,273.453,172.834,258.763,213.745z"/>
</g>
</svg>
