<?xml version="1.0" encoding="utf-8"?>
<!-- Generator: Adobe Illustrator 16.0.0, SVG Export Plug-In . SVG Version: 6.00 Build 0)  -->
<!DOCTYPE svg PUBLIC "-//W3C//DTD SVG 1.1//EN" "http://www.w3.org/Graphics/SVG/1.1/DTD/svg11.dtd">
<svg version="1.1" id="Layer_1" xmlns="http://www.w3.org/2000/svg" xmlns:xlink="http://www.w3.org/1999/xlink" x="0px" y="0px"
	 width="350px" height="350px" viewBox="0 0 350 350" enable-background="new 0 0 350 350" xml:space="preserve">
<path fill="#FFD782" d="M274.853,101.459H75.147c-14.333,0-25.952,11.619-25.952,25.952v95.178
	c0,14.334,11.619,25.953,25.952,25.953h199.705c14.333,0,25.951-11.619,25.951-25.953v-95.178
	C300.804,113.078,289.185,101.459,274.853,101.459z"/>
<path fill="#FFFFFF" d="M75.147,229.974c-4.071,0-7.384-3.313-7.384-7.385v-95.178c0-4.072,3.313-7.385,7.384-7.385h199.706
	c4.071,0,7.384,3.313,7.384,7.385v95.178c0,4.072-3.313,7.385-7.384,7.385H75.147L75.147,229.974z"/>
<g>
	<path fill="#249ED9" d="M274.853,120.026H75.147c-4.071,0-7.384,3.313-7.384,7.385v19.14l0,0h214.473v-19.14
		C282.236,123.339,278.924,120.026,274.853,120.026z"/>
	<path fill="#249ED9" d="M67.763,203.449v19.14c0,4.073,3.313,7.385,7.384,7.385h199.706c4.071,0,7.384-3.312,7.384-7.385v-19.14
		H67.763L67.763,203.449z"/>
</g>
<path opacity="0.1" enable-background="new    " d="M91.104,222.589v-95.178c0-14.333,11.619-25.952,25.952-25.952H75.147
	c-14.333,0-25.952,11.619-25.952,25.952v95.178c0,14.334,11.619,25.953,25.952,25.953h41.909
	C102.723,248.54,91.104,236.922,91.104,222.589z"/>
<path d="M75.147,252.52H236.17c2.197,0,3.979-1.781,3.979-3.979c0-2.197-1.782-3.979-3.979-3.979H75.147
	c-12.116,0-21.973-9.855-21.973-21.973v-95.178c0-12.116,9.857-21.973,21.973-21.973h24.55c2.197,0,3.979-1.781,3.979-3.979
	s-1.781-3.979-3.979-3.979h-24.55c-16.503,0-29.93,13.427-29.93,29.931v95.178C45.217,239.093,58.644,252.52,75.147,252.52z"/>
<path d="M274.853,97.48H115.612c-2.197,0-3.979,1.781-3.979,3.979s1.781,3.979,3.979,3.979h159.241
	c12.116,0,21.973,9.857,21.973,21.973v95.178c0,12.117-9.856,21.973-21.973,21.973h-22.768c-2.196,0-3.978,1.781-3.978,3.979
	c0,2.198,1.781,3.979,3.978,3.979h22.768c16.504,0,29.931-13.427,29.931-29.931v-95.178
	C304.783,110.907,291.356,97.48,274.853,97.48z"/>
<path d="M63.785,127.411v95.178c0,6.266,5.097,11.363,11.363,11.363h199.706c6.265,0,11.362-5.098,11.362-11.363v-95.178
	c0-6.266-5.098-11.363-11.362-11.363H75.147C68.882,116.048,63.785,121.146,63.785,127.411z M278.258,222.589
	c0,1.878-1.527,3.406-3.405,3.406H75.147c-1.878,0-3.406-1.528-3.406-3.406v-15.16h206.516V222.589L278.258,222.589z
	 M278.258,199.471H71.742v-48.941h206.516V199.471L278.258,199.471z M278.258,127.411v15.161H71.742v-15.161
	c0-1.878,1.528-3.406,3.406-3.406h199.706C276.73,124.005,278.258,125.533,278.258,127.411z"/>
<path d="M87.148,188.822h7.878l1.109,7.411h6.478l-6.536-40.848h-9.396l-6.536,40.848h5.894L87.148,188.822z M91.059,162.621
	l3.093,20.657h-6.186L91.059,162.621z"/>
<path d="M127.646,186.546v-3.327c0-4.318-1.342-7.41-4.785-8.753c2.859-1.341,4.143-4.026,4.143-8.228v-1.459
	c0-6.302-2.859-9.395-9.511-9.395h-9.687v40.848h10.095C124.32,196.233,127.646,192.848,127.646,186.546z M114.225,161.22h3.093
	c2.276,0,3.268,1.283,3.268,4.201v2.275c0,3.268-1.459,4.318-3.851,4.318h-2.509L114.225,161.22L114.225,161.22z M114.225,177.852
	h2.859c2.917,0,4.143,1.166,4.143,4.96v3.56c0,3.034-1.167,4.026-3.326,4.026h-3.677L114.225,177.852L114.225,177.852z"/>
<path d="M142.759,196.699c6.302,0,9.57-3.734,9.57-10.27v-5.428h-6.069v5.836c0,2.918-1.284,3.968-3.326,3.968
	s-3.326-1.05-3.326-3.968V164.78c0-2.917,1.284-4.026,3.326-4.026s3.326,1.108,3.326,4.026v4.377h6.069v-3.968
	c0-6.536-3.268-10.27-9.57-10.27c-6.302,0-9.57,3.734-9.57,10.27v21.241C133.189,192.965,136.457,196.699,142.759,196.699z"/>
<rect x="169.426" y="172.89" width="11.671" height="5.836"/>
<path d="M207.88,196.233h6.419v-40.848h-4.318c-0.992,2.743-2.101,5.135-7.062,5.135v4.551h4.961V196.233L207.88,196.233z"/>
<path d="M242.833,190.397h-12.138c-0.059-0.293-0.059-0.584-0.059-0.876c0-6.711,12.78-11.496,12.78-24.333
	c0-6.536-3.268-10.27-9.57-10.27c-6.302,0-9.569,3.735-9.569,10.27v3.968h6.068v-4.377c0-2.917,1.283-4.026,3.326-4.026
	c2.044,0,3.327,0.992,3.327,4.668c0,11.788-12.721,13.772-12.721,25.792v5.018h18.556L242.833,190.397L242.833,190.397z"/>
<path d="M258.823,196.699c6.301,0,9.569-3.734,9.569-10.27v-3.21c0-4.143-1.284-7.178-4.493-8.578
	c3.092-1.284,4.493-4.026,4.493-8.403v-1.05c0-6.536-3.269-10.27-9.569-10.27c-6.303,0-9.57,3.734-9.57,10.27v2.217h6.067v-2.626
	c0-2.917,1.285-4.026,3.327-4.026s3.326,0.992,3.326,4.668v2.275c0,3.268-1.459,4.319-3.852,4.319h-2.509v5.835h2.159
	c2.917,0,4.202,1.401,4.202,5.193v3.21c0,3.616-1.284,4.608-3.327,4.608c-2.042,0-3.326-1.107-3.326-4.025v-3.793h-6.068v3.384
	C249.253,192.965,252.521,196.699,258.823,196.699z"/>
<circle cx="110.584" cy="133.358" r="4.359"/>
<circle cx="110.584" cy="216.729" r="4.359"/>
<circle cx="239.418" cy="133.358" r="4.359"/>
<circle cx="239.418" cy="216.729" r="4.359"/>
</svg>
