<?xml version="1.0" encoding="utf-8"?>
<!-- Generator: Adobe Illustrator 16.0.0, SVG Export Plug-In . SVG Version: 6.00 Build 0)  -->
<!DOCTYPE svg PUBLIC "-//W3C//DTD SVG 1.1 Tiny//EN" "http://www.w3.org/Graphics/SVG/1.1/DTD/svg11-tiny.dtd">
<svg version="1.1" baseProfile="tiny" id="Layer_1" xmlns="http://www.w3.org/2000/svg" xmlns:xlink="http://www.w3.org/1999/xlink"
	 x="0px" y="0px" width="350px" height="350px" viewBox="0 0 350 350" overflow="scroll" xml:space="preserve">
<g>
	<g>
		<path fill="#EDE2CE" d="M307.057,206.733c0-72.933-59.123-132.057-132.057-132.057c-72.932,0-132.056,59.124-132.056,132.057
			c0,25.118,7.014,48.598,19.189,68.59h225.734C300.041,255.331,307.057,231.852,307.057,206.733z"/>
	</g>
	<g>
		<g>
			<g>
				<path fill="#03464E" d="M238.227,194.539l-21.893,28.51l37.742,15.956c2.605,1.102,4.807,2.985,6.299,5.39l6.021,9.71h-14.332
					c-4.604,0-8.387-3.632-8.574-8.231l-0.004-0.084l-35.299-13.236l-15.611-9.164L238.227,194.539z"/>
				<path fill="#FAEADC" d="M268.461,255.254h-16.396c-5.006,0-9.129-3.747-9.67-8.647l-34.787-13.063l-17.238-10.117l52.695-33.302
					L218.15,222.57l36.371,15.377c2.842,1.201,5.203,3.221,6.828,5.843L268.461,255.254z M208.684,231.512l35.922,13.471
					l0.031,0.847c0.164,3.995,3.426,7.128,7.428,7.128h12.27L259.398,245c-1.373-2.216-3.369-3.923-5.77-4.938l-39.109-16.534
					l18.869-24.573l-38.607,24.397L208.684,231.512z"/>
			</g>
			<g>
				<path fill="#03464E" d="M113.55,204.382c0.139,0.208,3.862,5.665,6.715,9.845c1.787,2.618,1.097,6.189-1.536,7.956l-0.082,0.056
					c-2.12,1.423-4.817,1.677-7.165,0.676l-0.085-0.037c-2.719-1.16-5.879-0.309-7.647,2.062l-0.053,0.071
					c-1.39,1.863-1.661,4.332-0.71,6.452l3.172,7.07c2.113,4.709,3.206,9.813,3.206,14.976v9.932h29.529l-6.089-7.84
					c-1.88-2.42-4.725-3.896-7.786-4.039l-2.417-0.114l-0.565-15.387l20.591-11.652l-4.299-18.894L113.55,204.382z"/>
				<path fill="#FAEADC" d="M141.237,264.587h-33.021v-11.079c0-5.034-1.045-9.914-3.105-14.506l-3.172-7.069
					c-1.121-2.498-0.8-5.414,0.837-7.609l0.053-0.07c1.419-1.902,3.683-3.038,6.057-3.038c1.022,0,2.019,0.204,2.961,0.606
					l0.086,0.036c1.969,0.841,4.297,0.621,6.073-0.572l0.084-0.057c1.017-0.682,1.705-1.721,1.937-2.924
					c0.231-1.201-0.021-2.42-0.711-3.431c-3.325-4.875-6.584-9.651-6.721-9.855l-1.256-1.887l27.914,1.274l4.683,20.579
					l-20.727,11.73l0.501,13.633l1.361,0.064c3.401,0.159,6.55,1.793,8.639,4.482L141.237,264.587z M110.512,262.29h26.035
					l-4.65-5.986c-1.676-2.158-4.204-3.469-6.934-3.597l-3.471-0.164l-0.63-17.138l20.454-11.576l-3.916-17.209l-21.609-0.986
					c1.477,2.166,3.89,5.701,5.421,7.945c1.038,1.521,1.417,3.354,1.069,5.16c-0.348,1.809-1.383,3.37-2.913,4.396l-0.084,0.057
					c-2.413,1.62-5.576,1.92-8.253,0.777l-0.086-0.037c-0.656-0.279-1.349-0.422-2.06-0.422c-1.653,0-3.229,0.79-4.216,2.114
					l-0.052,0.07c-1.141,1.528-1.364,3.558-0.584,5.296l3.172,7.07c2.194,4.889,3.307,10.086,3.307,15.446V262.29z"/>
			</g>
			<g>
				<path fill="#03464E" d="M237.717,158.9c0,0-5.939,10.521,0.85,23.59c6.787,13.067,5.26,37.165-13.746,41.831l-16.801,3.14
					c0,0-15.539-42.901-15.146-49.68c0.395-6.777,6.248-26.916,21.465-29.971c15.219-3.055,24.301,5.67,24.301,5.67l1.625,5.251
					L237.717,158.9z"/>
				<path fill="#FAEADC" d="M207.271,228.769l-0.332-0.916c-0.639-1.761-15.615-43.203-15.213-50.138
					c0.418-7.169,6.496-27.84,22.387-31.03c2.219-0.445,4.441-0.671,6.607-0.671c11.67,0,18.432,6.368,18.715,6.64l0.213,0.205
					l2.141,6.922l-3.336,0.223c-1.025,2.244-4.43,11.254,1.131,21.958c4.662,8.975,5.082,21.503,1.018,30.468
					c-3.068,6.772-8.432,11.271-15.508,13.009L207.271,228.769z M220.721,148.311c-2.014,0-4.086,0.21-6.156,0.625
					c-14.389,2.89-20.172,22.484-20.545,28.912c-0.305,5.235,10.236,35.786,14.748,48.306l15.842-2.96
					c6.305-1.55,11.133-5.604,13.902-11.713c3.791-8.365,3.395-20.069-0.965-28.461c-6.994-13.465-1.084-24.231-0.83-24.683
					l0.305-0.541l1.715-0.113l-1.1-3.558C236.461,153.116,230.352,148.311,220.721,148.311z"/>
			</g>
			<g>
				<path fill="#03464E" d="M142.626,224.407c1.584-0.17,18.045,0.848,18.045,0.848l35.13,4.073l31.904-32.243l-58.04-9.334h-28.51
					L142.626,224.407z"/>
				<path fill="#FAEADC" d="M196.223,230.533l-35.684-4.138c-0.078-0.003-13.968-0.859-17.297-0.859
					c-0.227,0-0.396,0.002-0.493,0.013l-1.221,0.13l-1.568-39.076l29.888,0.015l60.242,9.688L196.223,230.533z M143.729,223.244
					c4.04,0.065,16.464,0.831,17.014,0.865l34.635,4.014l29.941-30.259l-55.745-8.965H142.35L143.729,223.244z"/>
			</g>
			<g>
				<path fill="#03464E" d="M212.6,195.896l-17.152,26.873c-2.059,3.226-2.771,7.129-1.986,10.874l6.242,29.796h20.873l-0.303-0.804
					c-1.686-4.463-4.613-8.348-8.438-11.2l-0.738-0.55L207,228.649l20.873-12.389l0.125-0.021c6.424-1.145,10.289-7.777,8.113-13.93
					l-1.613-4.567c-1.262-3.57-4.992-5.635-8.688-4.807L212.6,195.896z"/>
				<path fill="#FAEADC" d="M222.238,264.587H198.77l-6.434-30.709c-0.85-4.062-0.09-8.227,2.145-11.726l17.408-27.272l13.67-3.064
					c0.621-0.139,1.258-0.209,1.891-0.209c3.646,0,6.916,2.312,8.131,5.754l1.615,4.566c1.148,3.251,0.813,6.824-0.924,9.804
					c-1.721,2.955-4.631,5.001-7.99,5.624l-20.008,11.874l3.873,21.006l0.377,0.281c4.006,2.988,7.059,7.039,8.824,11.714
					L222.238,264.587z M200.635,262.29H218.9c-1.645-3.947-4.311-7.369-7.75-9.934l-1.1-0.82l-4.324-23.466l21.74-12.902
					l0.328-0.059c2.73-0.486,5.098-2.14,6.492-4.535c1.396-2.396,1.666-5.269,0.742-7.883l-1.615-4.566
					c-0.891-2.525-3.289-4.224-5.965-4.224c-0.463,0-0.932,0.053-1.389,0.154l-12.746,2.857l-16.898,26.475
					c-1.91,2.99-2.561,6.549-1.832,10.02L200.635,262.29z"/>
			</g>
			<g>
				<g>
					<g>
						<path fill="#03464E" d="M82.727,232.886c-0.537,0-1.071-0.041-1.588-0.123c-1.025-0.128-2.112-0.476-3.385-1.088
							c-1.102-0.586-2.047-1.271-2.849-2.054c-1.5-1.438-2.651-3.297-3.41-5.517c-0.624-1.843-0.916-3.844-0.874-5.953
							c0.043-1.735,0.186-3.32,0.324-4.854l0.02-0.219c0.451-4.523,1.086-8.817,1.646-12.606c0.249-1.679,0.487-3.286,0.695-4.815
							c0.785-5.655,1.062-9.382,0.869-11.729c-0.091-1.264-0.315-2.116-0.494-2.496c-0.12-0.244-0.204-0.351-0.245-0.4L73,180.485
							l0.249-0.69l0.094-0.213l3.038-2.848l1.056,1.278c0.251,0.28,0.493,0.689,0.771,1.207c0.542,1.084,0.91,2.54,1.082,4.24
							c0.372,3.505-0.043,8.257-0.548,12.869c-0.169,1.559-0.365,3.193-0.568,4.891c-0.471,3.938-0.958,8.012-1.269,12.348
							c-0.108,1.687-0.197,3.205-0.191,4.625c0.01,1.399,0.229,2.69,0.656,3.837c0.46,1.229,1.119,2.253,1.905,2.957
							c0.387,0.357,0.825,0.656,1.355,0.926c0.376,0.156,0.893,0.362,1.356,0.397c0.222,0.022,0.414,0.035,0.606,0.035
							c0.312,0,0.586-0.032,0.84-0.098c0.479-0.096,0.932-0.277,1.452-0.574c0.889-0.531,1.74-1.387,2.438-2.459
							c1.261-1.934,2.123-4.563,2.564-7.819c0.059-0.45,0.1-0.898,0.142-1.351c0.026-0.276,0.051-0.554,0.082-0.835
							c0.029-0.279,0.054-0.558,0.08-0.834c0.051-0.562,0.102-1.118,0.184-1.671l0.093-0.618c0.089-0.612,0.182-1.246,0.329-1.882
							l0.242-1.157l0.327-1.223c0.864-3.189,2.292-6.176,4.131-8.638c1.702-2.286,3.867-4.236,6.26-5.638
							c1.839-1.097,3.799-1.901,5.984-2.455c2.339-0.575,4.109-0.695,5.184-0.695c0.225,0,0.392,0.005,0.499,0.009l1.285-0.06
							l-0.057,1.286l-0.318,4.721l-0.05,0.987l-0.07,1.072h-1.113l-0.054-0.003c-0.045-0.004-0.185-0.012-0.412-0.012
							c-0.516,0-1.6,0.047-3.064,0.366c-2.28,0.5-5.536,1.776-8.086,5.014c-0.744,0.959-1.297,1.825-1.734,2.718
							c-0.196,0.349-0.339,0.683-0.49,1.037c-0.083,0.193-0.167,0.389-0.255,0.582c-0.074,0.213-0.154,0.423-0.233,0.635
							c-0.141,0.371-0.274,0.722-0.367,1.078l-0.3,1.004l-0.221,0.938c-0.121,0.459-0.202,0.92-0.287,1.409
							c-0.036,0.204-0.071,0.408-0.11,0.612c-0.073,0.412-0.123,0.846-0.175,1.283c-0.033,0.274-0.065,0.552-0.103,0.827
							c-0.035,0.263-0.068,0.539-0.101,0.818c-0.067,0.563-0.137,1.135-0.228,1.703c-0.465,2.771-1.377,6.876-3.925,10.591
							c-1.339,1.928-2.953,3.426-4.803,4.455C86.515,232.382,84.59,232.886,82.727,232.886z"/>
					</g>
					<g>
						<path fill="#FAEADC" d="M76.274,178.408c0,0,0.094,0.113,0.277,0.335c0.198,0.223,0.401,0.565,0.645,1.02
							c0.454,0.91,0.791,2.223,0.951,3.813c0.338,3.19,0.012,7.519-0.547,12.629c-0.553,5.104-1.392,11.004-1.841,17.28
							c-0.1,1.549-0.2,3.201-0.193,4.714c0.01,1.459,0.236,2.908,0.727,4.23c0.493,1.315,1.229,2.528,2.216,3.412
							c0.486,0.451,1.033,0.807,1.6,1.095c0.581,0.246,1.172,0.471,1.788,0.519c0.23,0.023,0.461,0.038,0.692,0.038
							c0.38,0,0.759-0.038,1.13-0.135c0.603-0.116,1.18-0.372,1.732-0.688c1.098-0.656,2.063-1.649,2.832-2.831
							c1.552-2.379,2.343-5.364,2.739-8.291c0.098-0.74,0.148-1.469,0.227-2.219c0.087-0.827,0.139-1.646,0.258-2.458
							c0.127-0.812,0.221-1.617,0.404-2.409c0.083-0.396,0.166-0.789,0.248-1.181c0.104-0.39,0.209-0.776,0.312-1.16
							c0.831-3.072,2.2-5.916,3.941-8.248c1.741-2.34,3.859-4.126,5.919-5.333c2.06-1.229,4.042-1.916,5.687-2.333
							c2.368-0.582,4.064-0.661,4.901-0.661c0.307,0,0.499,0.012,0.566,0.012c0.006,0,0.011-0.001,0.016-0.001l-0.385,5.707
							c0.014,0.002,0.018,0.003,0.016,0.003c-0.012,0-0.187-0.016-0.504-0.016c-0.616,0-1.768,0.058-3.308,0.393
							c-2.471,0.542-6.006,1.951-8.744,5.426c-0.672,0.867-1.326,1.826-1.863,2.922c-0.3,0.527-0.515,1.122-0.783,1.697
							c-0.206,0.608-0.473,1.199-0.644,1.849c-0.096,0.319-0.192,0.642-0.29,0.966c-0.079,0.332-0.158,0.667-0.238,1.004
							c-0.178,0.666-0.276,1.372-0.408,2.074c-0.125,0.705-0.188,1.437-0.288,2.165c-0.106,0.808-0.19,1.658-0.325,2.497
							c-0.563,3.354-1.533,6.908-3.739,10.123c-1.103,1.589-2.562,3.07-4.415,4.101c-1.44,0.808-3.151,1.271-4.86,1.271
							c-0.471,0-0.942-0.035-1.408-0.108c-1.085-0.137-2.107-0.527-3.065-0.988c-0.939-0.501-1.804-1.117-2.544-1.841
							c-1.499-1.437-2.5-3.236-3.127-5.066c-0.623-1.842-0.849-3.737-0.812-5.558c0.043-1.773,0.192-3.36,0.339-4.994
							c0.644-6.449,1.65-12.336,2.335-17.369c0.697-5.019,1.102-9.219,0.876-11.979c-0.1-1.377-0.352-2.365-0.601-2.893
							c-0.254-0.521-0.43-0.66-0.421-0.681L76.274,178.408 M76.489,175.059l-1.786,1.674l-1.977,1.854l-0.357,0.334l-0.189,0.45
							c-0.125,0.298-0.468,1.347,0.36,2.379c0.029,0.036,0.067,0.103,0.113,0.198c0.085,0.181,0.29,0.878,0.375,2.053
							c0.245,2.993-0.374,7.993-0.86,11.496c-0.208,1.525-0.444,3.118-0.693,4.806c-0.563,3.803-1.2,8.111-1.653,12.652
							l-0.018,0.203c-0.142,1.563-0.288,3.179-0.332,4.961c-0.046,2.252,0.267,4.385,0.931,6.351
							c0.822,2.402,2.071,4.415,3.714,5.989c0.862,0.843,1.895,1.591,3.052,2.208l0.042,0.023l0.042,0.021
							c1.374,0.66,2.563,1.04,3.739,1.192c0.565,0.087,1.146,0.131,1.73,0.131c2.058,0,4.183-0.556,5.982-1.563
							c1.999-1.111,3.743-2.726,5.179-4.795c2.684-3.911,3.635-8.181,4.117-11.053c0.099-0.615,0.169-1.203,0.238-1.77
							c0.032-0.273,0.065-0.543,0.1-0.808c0.037-0.268,0.07-0.551,0.104-0.833c0.052-0.437,0.102-0.849,0.168-1.229
							c0.036-0.188,0.072-0.397,0.108-0.608c0.081-0.461,0.157-0.897,0.258-1.276l0.008-0.031l0.007-0.03l0.199-0.84l0.024-0.098
							l0.271-0.902l0.011-0.037l0.01-0.038c0.078-0.299,0.201-0.621,0.331-0.964c0.077-0.205,0.153-0.408,0.226-0.613
							c0.084-0.185,0.165-0.372,0.244-0.558c0.138-0.323,0.269-0.628,0.399-0.858l0.036-0.062l0.032-0.064
							c0.402-0.82,0.915-1.624,1.615-2.525c2.329-2.957,5.322-4.13,7.421-4.591c1.355-0.295,2.346-0.338,2.816-0.338
							c0.185,0,0.301,0.006,0.338,0.009l0.074,0.005l0.092,0.001h2.148l0.143-2.144l0.143-2.144l-0.015-0.002l0.24-3.563
							l0.172-2.564l-2.5,0.113h-0.009c-0.115-0.004-0.294-0.009-0.536-0.009c-1.137,0-3.007,0.126-5.449,0.726
							c-2.311,0.586-4.371,1.432-6.314,2.592c-2.509,1.468-4.792,3.524-6.586,5.935c-1.922,2.574-3.417,5.693-4.316,9.019
							l-0.164,0.608l-0.149,0.557l-0.017,0.062l-0.013,0.062l-0.083,0.396l-0.16,0.763c-0.154,0.672-0.248,1.318-0.34,1.944
							c-0.029,0.2-0.059,0.401-0.09,0.604c-0.091,0.618-0.144,1.199-0.194,1.762c-0.025,0.269-0.049,0.539-0.079,0.811
							c-0.03,0.288-0.057,0.573-0.083,0.857c-0.04,0.436-0.079,0.866-0.137,1.303c-0.417,3.076-1.22,5.548-2.386,7.336
							c-0.6,0.92-1.313,1.646-2.066,2.103c-0.401,0.226-0.732,0.362-1.011,0.417l-0.07,0.013l-0.069,0.018
							c-0.159,0.041-0.34,0.061-0.555,0.061c-0.139,0-0.289-0.008-0.456-0.024l-0.03-0.004l-0.029-0.002
							c-0.258-0.02-0.625-0.158-0.993-0.312c-0.402-0.211-0.734-0.438-1.011-0.695c-0.677-0.607-1.23-1.475-1.627-2.535
							c-0.377-1.015-0.573-2.174-0.581-3.439c-0.007-1.382,0.081-2.88,0.188-4.553c0.308-4.291,0.794-8.351,1.264-12.276
							c0.205-1.716,0.399-3.335,0.569-4.904c0.511-4.671,0.932-9.495,0.548-13.116c-0.185-1.828-0.594-3.422-1.18-4.597
							l-0.015-0.029l-0.016-0.029c-0.305-0.57-0.581-1.033-0.919-1.423l-0.254-0.309L76.489,175.059L76.489,175.059z"/>
					</g>
				</g>
			</g>
			<g>
				<path fill="#03464E" d="M110.609,188.09l-1.124,5.897c-0.944,4.956,1.486,9.943,5.973,12.251l11.857,6.104
					c2.263,1.164,3.731,3.448,3.85,5.991l0.101,2.151c0.131,2.799-1.394,5.414-3.894,6.68l-2.452,1.241
					c-3.654,1.849-4.354,6.769-1.362,9.563l27.27,25.47h26.134l-4.127-7.196c-1.586-2.765-4.272-4.726-7.388-5.394l-4.607-0.987
					l-15.094-10.677c-1.202-0.85-1.349-2.577-0.308-3.618l2.636-2.637c2.524-2.523,3.942-5.947,3.942-9.517V200.88
					c0-3.141-0.915-6.214-2.634-8.843l-0.058-0.089c-1.914-2.927-5.204-4.656-8.701-4.572L110.609,188.09z"/>
				<path fill="#FAEADC" d="M178.945,264.587h-28.57l-27.6-25.779c-1.679-1.567-2.488-3.861-2.164-6.137
					c0.324-2.274,1.741-4.252,3.791-5.289l2.452-1.241c2.094-1.059,3.375-3.258,3.266-5.602l-0.101-2.151
					c-0.1-2.126-1.337-4.051-3.229-5.025l-11.857-6.103c-4.904-2.523-7.607-8.07-6.575-13.487l1.296-6.808l31.211-0.74
					c3.812,0,7.334,1.905,9.42,5.096l0.057,0.088c1.846,2.824,2.822,6.099,2.822,9.472v22.534c0,3.901-1.52,7.569-4.278,10.329
					l-2.636,2.636c-0.26,0.26-0.386,0.604-0.355,0.972c0.032,0.366,0.214,0.686,0.514,0.898l14.902,10.54l4.377,0.938
					c3.43,0.734,6.398,2.901,8.144,5.944L178.945,264.587z M151.281,262.29h23.699l-3.14-5.476c-1.421-2.479-3.84-4.243-6.633-4.842
					l-4.837-1.037l-15.287-10.813c-0.85-0.601-1.388-1.541-1.476-2.578c-0.088-1.036,0.283-2.054,1.02-2.789l2.636-2.637
					c2.326-2.325,3.605-5.416,3.605-8.705V200.88c0-2.925-0.846-5.766-2.447-8.215l-0.057-0.088
					c-1.661-2.54-4.464-4.057-7.499-4.057l-0.213,0.003l-29.089,0.692l-0.95,4.986c-0.843,4.425,1.366,8.955,5.37,11.016
					l11.858,6.104c2.621,1.349,4.334,4.015,4.472,6.959l0.1,2.151c0.153,3.245-1.622,6.291-4.521,7.758l-2.452,1.241
					c-1.402,0.709-2.333,2.008-2.555,3.563c-0.221,1.557,0.311,3.063,1.459,4.136L151.281,262.29z"/>
			</g>
			<g>
				<g>
					<path fill="#03464E" d="M233.756,190.885c-2.469-1.179-3.785-3.962-3.135-6.618l0.936-3.811l-3.059-6.673
						c-1.209-2.638-0.746-5.744,1.178-7.913l2.031-2.29l-0.699-5.188h8.115l9.945,4.837v4.232l12.02,3.746l-2.533,4.284
						l-0.486,6.844l-3.355,0.671l0.693-0.081l1.492,3.002l-3.689,3.603l-7.42-1.103l-4.918,5.86L233.756,190.885z"/>
				</g>
				<g>
					<g>
						<path fill="#FAEADC" d="M238.857,159.541l9.064,4.407v4.358l11.439,3.566l-1.932,3.269l-0.445,6.24l-5.789,1.158l-1.621,2.228
							l5.164-0.607l0.76,1.53l-2.684,2.621l-7.492-1.114l-4.758,5.671l-6.314-3.019c-1.988-0.951-3.039-3.168-2.514-5.31
							l1.029-4.198l-3.225-7.037c-1.02-2.226-0.631-4.843,0.994-6.673l2.381-2.684l-0.596-4.407H238.857 M239.387,157.244h-0.529
							h-6.537h-2.627l0.352,2.604l0.453,3.364l-1.68,1.896c-2.229,2.511-2.762,6.104-1.365,9.154l2.893,6.31l-0.84,3.421
							c-0.779,3.182,0.799,6.516,3.754,7.929l6.313,3.019l1.605,0.769l1.145-1.364l3.934-4.686l6.221,0.925l1.127,0.167l0.816-0.796
							l2.682-2.621l1.197-1.168l-0.744-1.496l-0.479-0.964l0.359-0.071l1.715-0.344l0.125-1.745l0.406-5.701l1.656-2.804
							l1.477-2.496l-2.77-0.864l-9.828-3.063v-2.669v-1.437l-1.291-0.628l-9.064-4.408L239.387,157.244L239.387,157.244z"/>
					</g>
				</g>
			</g>
			<g>
				<path fill="#03464E" d="M208.357,188.6c0,0-23.928-9.334-21.213-27.322c2.715-17.989,11.371-31.735,3.395-35.469
					c0,0-95.034,1.357-93.677,0c1.358-1.357,37.165,73.143,97.071,74.161c0,0,13.746-1.019,13.576,4.073
					C207.51,204.043,218.879,194.539,208.357,188.6z"/>
				<path fill="#FAEADC" d="M206.277,206.569l0.086-2.565c0.012-0.403-0.117-0.725-0.422-1.039c-1.188-1.228-4.57-1.931-9.287-1.931
					c-1.531,0-2.625,0.079-2.637,0.08l-0.051,0.004l-0.053-0.001c-21.672-0.368-42.739-10.229-62.616-29.308
					c-15.977-15.335-26.847-32.467-32.072-40.699c-1.225-1.932-2.225-3.506-2.724-4.145c-0.287-0.116-0.614-0.339-0.75-0.782
					l-0.01-0.03l-1.926-1.993l2.634,0.498l0.457-0.017c0.305,0,0.55,0.108,0.733,0.231c1.507,0.188,6.84,0.391,22.905,0.391
					c27.431,0,69.554-0.598,69.978-0.603l0.264-0.004l0.238,0.111c6.133,2.871,3.953,10.464,1.193,20.077
					c-1.416,4.931-3.02,10.519-3.939,16.603c-2.547,16.886,20.266,25.991,20.496,26.082l0.146,0.069
					c3.088,1.743,4.777,3.976,5.02,6.635c0.498,5.444-5.441,10.478-5.695,10.688L206.277,206.569z M196.654,198.738
					c5.57,0,9.25,0.885,10.938,2.63c0.172,0.178,0.324,0.366,0.455,0.564c1.535-1.62,3.875-4.601,3.609-7.494
					c-0.172-1.844-1.447-3.459-3.795-4.801c-1.805-0.719-24.619-10.197-21.852-28.532c0.941-6.23,2.566-11.896,4.002-16.894
					c2.838-9.882,4.156-15.214,0.268-17.252c-3.711,0.053-43.457,0.6-69.733,0.6c-11.746,0-17.538-0.109-20.472-0.229l0.411,0.427
					l-0.766-0.145c0.398,0.616,0.873,1.363,1.446,2.267c10.685,16.838,43.188,68.068,92.737,68.941
					C194.152,198.804,195.211,198.738,196.654,198.738z"/>
			</g>
		</g>
		<g>
			<path fill="#03464E" d="M71.571,155.745c-3.353,5.344-4.799,11.856-4.021,18.117c0.777,6.261,3.774,12.222,8.333,16.582
				c0.437,0.418,0.915,0.837,1.505,0.972c0.967,0.222,1.93-0.379,2.653-1.059c3.119-2.935,4.002-7.678,3.22-11.887
				c-0.782-4.211-2.995-8.006-5.328-11.598C75.601,163.283,73.085,159.751,71.571,155.745z"/>
			<path fill="#FAEADC" d="M77.805,192.61L77.805,192.61c-0.228,0-0.455-0.025-0.674-0.075c-0.877-0.2-1.514-0.757-2.042-1.262
				c-4.781-4.571-7.863-10.704-8.679-17.27c-0.814-6.564,0.672-13.266,4.189-18.868l1.229-1.959l0.817,2.163
				c1.25,3.308,3.272,6.379,5.228,9.349c0.342,0.52,0.684,1.04,1.022,1.561c2.21,3.401,4.64,7.415,5.494,12.012
				c0.935,5.029-0.431,9.985-3.562,12.933C79.828,192.134,78.811,192.61,77.805,192.61z M71.425,158.321
				c-2.425,4.721-3.394,10.108-2.736,15.399c0.75,6.041,3.587,11.687,7.987,15.894c0.306,0.294,0.659,0.612,0.967,0.683
				c0.419,0.099,0.997-0.198,1.611-0.776c2.569-2.417,3.671-6.571,2.878-10.841c-0.777-4.182-3.072-7.963-5.162-11.181
				c-0.336-0.517-0.675-1.032-1.015-1.548C74.353,163.518,72.707,161.018,71.425,158.321z"/>
		</g>
		<g>
			<rect x="106.066" y="136.875" fill="#FAEADC" width="69.932" height="2.297"/>
		</g>
		<g>
			
				<rect x="142.854" y="119.647" transform="matrix(0.101 0.9949 -0.9949 0.101 277.7852 -9.2341)" fill="#FAEADC" width="2.296" height="58.891"/>
		</g>
		<g>
			
				<rect x="147.58" y="137.287" transform="matrix(0.2006 0.9797 -0.9797 0.2006 275.8053 -17.6665)" fill="#FAEADC" width="2.296" height="45.751"/>
		</g>
		<g>
			
				<rect x="153.249" y="153.71" transform="matrix(0.344 0.939 -0.939 0.344 261.8086 -32.8253)" fill="#FAEADC" width="2.296" height="34.51"/>
		</g>
		<g>
			
				<rect x="161.079" y="168.341" transform="matrix(0.5418 0.8405 -0.8405 0.5418 226.077 -53.6284)" fill="#FAEADC" width="2.297" height="24.416"/>
		</g>
		<g>
			
				<rect x="170.664" y="180.07" transform="matrix(0.7557 0.6549 -0.6549 0.7557 165.1688 -66.5679)" fill="#FAEADC" width="2.296" height="16.079"/>
		</g>
		<g>
			
				<rect x="182.274" y="188.553" transform="matrix(0.9087 0.4174 -0.4174 0.9087 97.7347 -58.8472)" fill="#FAEADC" width="2.298" height="10.993"/>
		</g>
		<g>
			
				<rect x="193.683" y="193.14" transform="matrix(0.9909 0.1348 -0.1348 0.9909 28.2886 -24.47)" fill="#FAEADC" width="2.296" height="7.016"/>
		</g>
		<g>
			<path fill="#EDE2CE" d="M198.07,173.385c3.033-7.328,6.572-15.06,13.33-19.213c-7.188,8.014-11.328,18.696-11.42,29.46
				c-1.965-0.381-3.227-2.466-3.338-4.466C196.533,177.167,197.305,175.235,198.07,173.385z"/>
		</g>
		<g>
			<path fill="#EDE2CE" d="M208.695,186.72c-0.27-1.127-0.166-2.311,0.029-3.453c1.215-7.042,6.191-13.321,12.77-16.111
				c-4.182,2.637-6.637,7.42-7.561,12.278c-0.926,4.857-0.508,9.858-0.084,14.786C212.439,191.505,209.408,189.695,208.695,186.72z"
				/>
		</g>
		<g>
			<path fill="#EDE2CE" d="M243.242,169.517c-0.15,0.04-0.307-0.041-0.443-0.119c-1.623-0.932-3.246-1.862-4.871-2.794
				c2.24,0.096,4.479,0.19,6.717,0.286c-0.354,0.75-0.709,1.499-1.064,2.249C243.504,169.297,243.412,169.472,243.242,169.517z"/>
		</g>
		<g>
			<path fill="#FAEADC" d="M170.712,223.235c-6.738,0-13.477-2.04-18.97-6.037l1.351-1.856c9.059,6.592,21.772,7.452,31.639,2.141
				l1.088,2.021C181.176,222.005,175.944,223.235,170.712,223.235z"/>
		</g>
		<g>
			<path fill="#FAEADC" d="M167.511,218.314c-6.198,0-12.437-3.028-16.128-8.005l1.844-1.368c3.729,5.026,10.397,7.803,16.589,6.914
				l0.327,2.272C169.271,218.253,168.391,218.314,167.511,218.314z"/>
		</g>
		<g>
			<path fill="#FAEADC" d="M163.049,210.911c-4.553,0-9.11-2.491-11.517-6.357l1.949-1.213c2.104,3.38,6.191,5.503,10.162,5.257
				l0.136,2.292C163.535,210.904,163.292,210.911,163.049,210.911z"/>
		</g>
		<g>
			<path fill="#FAEADC" d="M197.85,211.712l-1.813-1.409c2.396-3.086,4.375-6.48,5.879-10.089l2.119,0.882
				C202.453,204.894,200.373,208.465,197.85,211.712z"/>
		</g>
		<g>
			<path fill="#FAEADC" d="M181.697,213.175l-1.006-2.064c5.867-2.859,10.533-8.011,12.799-14.132l2.154,0.797
				C193.174,204.445,188.092,210.059,181.697,213.175z"/>
		</g>
		<g>
			<path fill="#FAEADC" d="M188.09,214.782l-1.033-2.05c3.055-1.54,5.521-4.102,6.945-7.213l2.088,0.956
				C194.449,210.059,191.609,213.009,188.09,214.782z"/>
		</g>
		<g>
			<path fill="#FAEADC" d="M217.043,194.468c-1.781-7.186-1.01-14.824,2.174-21.51l2.072,0.987
				c-2.912,6.117-3.646,13.396-2.018,19.971L217.043,194.468z"/>
		</g>
		<g>
			<path fill="#FAEADC" d="M221.717,193.52c-1.359-4.407-1.496-9.104-0.396-13.583l2.23,0.548
				c-1.002,4.075-0.877,8.349,0.361,12.358L221.717,193.52z"/>
		</g>
		<g>
			<path fill="#FAEADC" d="M210.518,165.006l-1.998-1.135c2.211-3.89,5.947-6.82,10.252-8.039s9.023-0.683,12.945,1.472
				l-1.105,2.013c-3.396-1.866-7.484-2.331-11.215-1.274C215.668,159.098,212.432,161.636,210.518,165.006z"/>
		</g>
		<g>
			<path fill="#FAEADC" d="M235.424,158.967c-2.752-2.605-6.107-4.614-9.703-5.81l0.725-2.18c3.912,1.302,7.564,3.487,10.559,6.322
				L235.424,158.967z"/>
		</g>
		<g>
			<path fill="#FAEADC" d="M204.375,185.484l-2.297-0.015c0.037-5.457,1.156-11.007,3.24-16.05l2.123,0.877
				C205.469,175.069,204.408,180.321,204.375,185.484z"/>
		</g>
		<g>
			<path fill="#FAEADC" d="M211.072,207.732l-1.16-1.981c4.166-2.441,6.855-7.141,6.848-11.97l2.295-0.004
				C219.064,199.408,215.932,204.886,211.072,207.732z"/>
		</g>
		<g>
			<path fill="#FAEADC" d="M210.883,211.86l-0.4-2.261c3.52-0.623,6.746-2.809,8.629-5.847l1.951,1.211
				C218.842,208.547,215.035,211.126,210.883,211.86z"/>
		</g>
		<g>
			
				<rect x="207.108" y="228.98" transform="matrix(0.9487 0.3162 -0.3162 0.9487 83.733 -55.8042)" fill="#FAEADC" width="13.448" height="2.297"/>
		</g>
		<g>
			
				<rect x="223.581" y="233.031" transform="matrix(0.9594 0.2822 -0.2822 0.9594 75.2311 -54.0754)" fill="#FAEADC" width="3.589" height="2.297"/>
		</g>
		<g>
			
				<rect x="253.946" y="248.597" transform="matrix(0.5609 0.8279 -0.8279 0.5609 320.2628 -104.3677)" fill="#FAEADC" width="9.157" height="2.296"/>
		</g>
		<g>
			<path fill="#FAEADC" d="M213.039,262.949c-0.676-2.329-2.117-4.41-4.057-5.863l1.375-1.839c2.338,1.75,4.072,4.258,4.887,7.063
				L213.039,262.949z"/>
		</g>
		<g>
			<path fill="#FAEADC" d="M196.635,233.529c-0.645-2.711-0.246-5.667,1.094-8.109l2.014,1.104c-1.07,1.95-1.389,4.31-0.873,6.474
				L196.635,233.529z"/>
		</g>
		<g>
			<path fill="#FAEADC" d="M146.25,200.01c-0.835-2.482-2.434-4.735-4.5-6.345l1.411-1.812c2.418,1.883,4.288,4.519,5.266,7.423
				L146.25,200.01z"/>
		</g>
		<g>
			
				<rect x="136.171" y="212.983" transform="matrix(0.0097 1 -1 0.0097 359.2977 65.4566)" fill="#FAEADC" width="20.859" height="2.296"/>
		</g>
		<g>
			<path fill="#FAEADC" d="M128.718,237.929c-1.14-1.082-1.67-2.774-1.351-4.314c0.319-1.538,1.479-2.881,2.955-3.42l0.788,2.156
				c-0.734,0.269-1.335,0.964-1.494,1.73c-0.159,0.766,0.116,1.644,0.684,2.182L128.718,237.929z"/>
		</g>
		<g>
			<path fill="#FAEADC" d="M75.928,189.392l-2.042-1.049c2.442-4.757,2.262-10.806-0.458-15.41l1.977-1.167
				C78.516,177.031,78.721,183.95,75.928,189.392z"/>
		</g>
	</g>
</g>
</svg>
