<?xml version="1.0" encoding="utf-8"?>
<!-- Generator: Adobe Illustrator 16.0.0, SVG Export Plug-In . SVG Version: 6.00 Build 0)  -->
<!DOCTYPE svg PUBLIC "-//W3C//DTD SVG 1.1//EN" "http://www.w3.org/Graphics/SVG/1.1/DTD/svg11.dtd">
<svg version="1.1" id="Layer_1" xmlns="http://www.w3.org/2000/svg" xmlns:xlink="http://www.w3.org/1999/xlink" x="0px" y="0px"
	 width="350px" height="350px" viewBox="0 0 350 350" enable-background="new 0 0 350 350" xml:space="preserve">
<g>
	<path fill="#CECECE" d="M287.654,175.083c0.521-1.433,0.781-2.477,0.781-2.477s2.084-0.13,3.91,0.261
		c1.824,0.391,4.3,2.606,4.3,2.606s-0.782-4.43-3.779-5.994c-2.997-1.564-5.863-1.564-5.863-1.564s0.129-1.824-1.044-2.866
		c-1.172-1.042-2.346-1.303-2.346-1.303s1.564-1.956,3.649-2.867c2.087-0.912,3.779-0.651,3.779-0.651s-3.519-2.476-6.255-2.346
		c-2.736,0.131-3.127,1.304-3.127,1.304s-0.261-1.955-5.732-2.476c-5.475-0.522-12.121,11.337-16.161,11.988
		c-4.038,0.651-5.993-1.173-9.902-4.039c-1.488-1.091-2.521-1.802-3.231-2.268c-8.178,2.947-16.492,5.561-24.898,7.768
		c-0.263,0.069-0.447-0.328-0.189-0.448c7.034-3.258,14.498-5.334,21.782-7.935c1.286-0.46,2.545-0.953,3.79-1.461
		c2.322-1.584,6.475-4.83,11.086-10.382c7.037-8.471,8.21-14.074,7.689-22.805c-0.521-8.73,1.563-15.897,5.211-20.588
		s12.901-8.861,14.204-11.468c1.302-2.606-0.521-5.212-0.521-5.212s1.563-1.303,3.648-2.085c2.084-0.781,5.604-0.521,5.604-0.521
		s-2.216-2.084-4.561-2.736c-2.347-0.652-6.777,0.652-6.777,0.652s0.392-1.564,0-3.91c-0.391-2.346-1.695-3.519-1.695-3.519
		s1.826-0.912,3.781-1.694c1.953-0.781,5.211-0.912,5.211-0.912s-2.736-1.564-5.603-1.564s-5.733,1.304-5.733,1.304
		s-1.303-2.085-2.867-2.997c-1.563-0.912-3.779-1.564-3.779-1.564s1.043-1.043,1.954-1.954c0.912-0.912,2.478-1.694,2.478-1.694
		s-4.432-0.522-6.517,0.651c-2.085,1.173-1.954,2.737-1.954,2.737s-4.562-0.521-8.471,1.564c-3.91,2.085-4.168,8.338-3.258,14.594
		c0.911,6.254-3.127,18.113-5.732,24.499c-2.605,6.385-8.34,12.64-8.34,12.64s-2.217-2.737-6.777-6.125
		c-4.559-3.388-6.516-3.78-6.516-3.78s3.128-2.345,4.563-4.69c1.434-2.346,1.043-4.561,1.043-4.561s-2.606,2.737-5.605,4.691
		c-2.998,1.955-6.646-0.13-9.772-2.345c-3.128-2.215-2.867-7.038-2.867-7.038s8.079-5.864,8.47-8.34s-1.694-5.212-4.039-5.602
		c-2.346-0.391-5.082,1.433-5.082,1.433s0.391-1.304,0-2.867c-0.392-1.564-2.867-3.257-2.867-3.257s0.392,1.563,0.651,2.866
		c0.261,1.302-0.651,3.78-0.651,3.78s-2.215,1.173-6.775,2.997c-4.563,1.824-7.56,0.521-12.38-0.782
		c-4.821-1.303-1.173-7.688,1.954-10.816c3.129-3.127,5.604-1.694,10.034-2.085s8.079-1.954,8.079-1.954s0.912,1.563,1.826,2.605
		c0.912,1.043,1.432,3.258,1.432,3.258s0.39-2.345,0.521-4.169c0.131-1.824-0.521-3.518-0.521-3.518s2.803-2.476,3.584-4.041
		c0.783-1.564,0.392-5.473-0.586-8.796c-0.977-3.323-3.322-5.082-3.322-5.082s0.977-3.519-2.346-4.691
		c-3.322-1.173-21.892,5.863-21.892,5.863s-2.542-6.45-8.015-7.623c-5.473-1.173-15.247,0.782-15.247,0.782s1.955-4.105,3.714-5.278
		c1.759-1.172,5.473-2.736,5.473-2.736s-10.946-0.195-18.373,2.736c-7.428,2.933-10.556,13.878-10.556,13.878
		s-7.232-3.323-10.359-2.542c-3.127,0.782-4.496,1.955-3.518,5.473c0.59,2.125,1.961,4.671,2.957,6.359
		c2.753,2.029,5.632,3.369,8.942,4.595c0.471,0.174,0.407,0.866-0.12,0.886c-2.946,0.111-5.646-1.303-8.008-3.102
		c-1.037,1.697-4.194,7.37-4.357,13.74c-0.196,7.624,3.127,10.751,3.127,10.751s-5.669,11.141-3.127,19.351
		c2.541,8.209,6.841,12.705,6.841,12.705s-3.518,12.706,1.955,18.569c5.473,5.864,15.246,10.75,15.246,10.75
		s-0.978,2.933-4.104,5.474c-3.127,2.541-8.796,3.714-8.796,3.714s4.3,3.518,9.382,4.3c1.438,0.221,2.808-0.003,4.04-0.428
		c3.033-3.517,7.563-4.46,10.755-7.893c3.358-3.615,5.176-8.259,8.409-11.919c0.266-0.301,0.694,0.022,0.626,0.363
		c-0.907,4.412-3.468,9.026-6.575,12.281c-1.774,1.859-3.706,3.435-6.079,4.465c-1.077,0.468-2.195,0.893-3.272,1.388
		c-1.479,1.821-4.214,4.517-8.88,7.021c-8.014,4.301-23.847,9.773-34.402,18.374c-4.233,3.45-6.374,7.573-7.421,11.277
		c-3.919,0.445-10.054,0.727-13.105-1.307c-4.691-3.128-4.95-7.56-2.084-13.555c2.866-5.992,21.631-22.41,23.456-37.006
		c1.825-14.597,3.389-21.894-4.691-34.925c-8.08-13.03-17.202-19.286-10.164-29.19c7.037-9.903,17.462-15.896,17.462-15.896
		s-3.91-3.39-11.989-2.868c-8.081,0.522-11.99,8.864-13.553,13.814c-1.564,4.951-1.042,9.383-1.042,9.383s-4.954-3.128-5.995-11.208
		c-1.042-8.08,3.908-23.196-9.122-27.626c-13.031-4.43-19.026-3.909-19.026-3.909s9.383,2.866,10.165,10.165
		c0.782,7.298-4.691,10.686,1.043,19.808c5.733,9.121,11.207,15.637,11.207,15.637s-1.565-1.564-7.56,3.91
		c-5.992,5.472-3.648,15.376-10.425,21.11c-6.775,5.733-13.812,9.121-13.812,9.121s9.122,3.129,16.418-4.169
		c7.298-7.298,9.903-13.03,20.85-11.728c10.947,1.303,18.767,7.035,22.415,15.897c3.648,8.862,1.041,26.321-8.862,37.789
		c-9.902,11.469-18.764,22.414-16.419,33.621c2.346,11.208,8.603,11.728,17.723,11.728c2.49,0,4.54-0.099,6.222-0.239
		c0.072,1.112,0.196,1.771,0.196,1.771s-0.097,3.812,0.49,10.36c0.586,6.548-0.881,6.842-7.623,9.479
		c-6.744,2.639-14.661-1.76-19.352,1.173c-4.69,2.932,3.812,20.329,3.909,27.268c0.098,6.939-7.134,20.23-5.278,23.456
		c1.857,3.226,6.744,2.052,9.969,2.834s2.542,7.818,4.985,9.383c2.443,1.563,4.203,1.173,4.203,1.173s1.564,2.15,2.541,3.812
		c0.978,1.661-0.489,4.985-0.489,4.985s3.52-2.054,4.398-4.496c0.88-2.444-0.489-4.398-0.489-4.398s2.345,0.781,4.3,0.88
		c1.955,0.097,3.324-0.489,3.324-0.489s1.27,1.076,2.345,2.932c1.076,1.857,0.88,6.06,0.88,6.06s2.736-4.3,2.834-6.938
		s-0.586-4.496-0.586-4.496s1.76-0.488,2.542-0.979c0.781-0.486,0.977-0.585,0.977-0.585s1.466,0.977,2.64,3.812
		c1.172,2.834,1.368,5.669,1.368,5.669s2.541-4.302,2.249-7.136c-0.294-2.834-1.173-3.518-1.173-3.518s2.932-1.759,3.029-5.474
		c0.098-3.712-2.346-6.45-9.87-9.479c-7.526-3.029-18.472-0.781-20.916-5.864c-2.444-5.083-0.978-10.849,5.474-14.757
		c6.45-3.91,9.577-1.76,24.53-2.543c9.776-0.51,15.707-7.285,18.643-11.918c-0.021-4.572,2.258-8.332,6.195-11.642
		c6.712-5.644,11.274-11.784,15.859-19.186c0.259-0.419,0.938-0.149,0.802,0.337c-1.583,5.625-5.176,10.668-9.385,14.669
		c-4.317,4.104-8.976,7.083-11.102,11.71c0.503,0.988,3.034,5.726,6.354,7.82c3.712,2.346,14.756-1.27,20.718-1.367
		s5.669,1.367,4.496,5.766c-1.172,4.397-4.887,16.518-1.271,20.525c3.615,4.006,14.367,2.834,19.938,3.321
		c5.569,0.489,6.45,8.991,9.968,10.653c3.519,1.662,10.75,1.075,12.705,0.88c1.956-0.195,3.91,4.202,7.624,5.473
		s8.405-0.782,8.405-0.782s2.247,1.075,3.225,3.129c0.978,2.051,1.369,4.984,1.369,4.984s1.953-3.616,1.758-6.744
		s-2.149-4.008-2.149-4.008s4.202-0.195,5.473-1.369c1.271-1.172,1.563-2.051,1.563-2.051s1.76,0.684,3.813,2.247
		c2.051,1.563,2.834,4.789,2.834,4.789s1.563-5.863-0.293-8.601c-1.857-2.736-3.91-2.932-3.91-2.932s0.88-2.541,1.075-4.203
		c0.196-1.662,0.196-2.541,0.196-2.541s2.736-0.977,5.082,0c2.345,0.979,3.909,4.301,3.909,4.301s0.39-4.887-2.149-7.819
		c-2.542-2.931-6.451-2.345-6.451-2.345s1.954-2.541-5.865-4.888c-7.818-2.345-13.291,1.369-19.154,3.52
		c-5.865,2.149-8.537-4.302-18.963-8.21c-10.425-3.91-5.732-8.6-2.084-18.243c3.648-9.643,4.691-14.073-0.52-22.935
		c-5.213-8.861-19.288-10.164-19.288-10.164s23.456-7.299,30.755-12.771c5.274-3.956,7.139-7.9,7.77-9.789
		c-2.377,0.035-4.369,0.635-6.346,2.13c-0.553,0.419-1.061-0.432-0.688-0.891c1.561-1.914,3.784-3.135,6.291-3.267
		c0.782-0.041,1.736-0.095,2.709-0.066c1.01-0.399,2.479-0.751,4.465-0.626c4.172,0.26,11.86,5.472,16.552,6.124
		s6.515-1.563,8.86-2.867c2.346-1.303,10.555,1.564,15.508,1.043c4.952-0.521,4.821-4.43,4.821-4.43s2.216,0.13,4.171,0.391
		c1.953,0.261,4.039,2.215,4.039,2.215s-0.522-3.779-2.477-5.733c-1.954-1.955-4.039-1.825-4.039-1.825
		S287.132,176.517,287.654,175.083z M176.55,62.095c1.874-1.608,4.512-3.103,5.556-2.992c-0.418,1.038-1.015,1.858-0.292,2.732
		c0.724,0.874,3.089,1.036,3.437,2.241c-3.098-0.421-4.664-0.56-7.139,0.218c-2.474,0.779-5.287,2.331-5.287,2.331
		S174.678,63.704,176.55,62.095z M189.089,119.455c-0.315,1.225-1.925,1.058-2.312,0c-2.277-6.208-6.156-12.011-6.613-18.655
		c-2.299,2.277-3.773,4.984-4.714,8.235c-0.286,0.989-1.931,1.42-2.403,0.314c-2.132-4.99-2.276-9.917-1.634-15.057
		c-3.485,3.303-6.882,6.623-8.958,11.083c-0.55,1.182-2.143,0.282-1.955-0.824c1.071-6.323,2.608-12.243,6.091-17.469
		c-4.111,1.968-7.449,4.921-10.588,8.375c-0.507,0.558-1.428-0.026-1.234-0.719c1.836-6.58,4.827-12.714,8.079-18.7
		c0.207-0.379,0.867-0.116,0.707,0.297c-2.051,5.324-4.626,10.398-6.44,15.794c3.417-3.448,7.164-6.262,11.88-7.958
		c0.928-0.335,1.378,0.872,0.87,1.496c-3.322,4.076-5.081,8.708-6.212,13.616c2.504-3.282,5.621-6.072,8.603-9.026
		c0.895-0.886,2.136,0.039,1.955,1.138c-0.764,4.652-1.158,9.142,0.025,13.573c1.478-3.07,3.578-5.627,6.504-7.748
		c0.692-0.5,1.853,0.163,1.768,1.014c-0.631,6.333,2.663,11.728,5.216,17.314c1.099-3.507,2.464-6.904,4.279-10.128
		c0.46-0.816,1.582-0.554,1.864,0.243c3.139,8.861,10.409,15.316,17.728,20.766c1.121,0.833,0.162,2.625-1.119,1.915
		c-7.777-4.311-14-11.824-17.645-19.935C191.221,111.972,190.072,115.642,189.089,119.455z M215.341,173.031
		c-0.377,0.563-1.239,0.071-0.913-0.534c1.68-3.104,4.047-5.277,6.543-7.712c1.392-1.357,2.514-2.739,3.496-4.225
		c-4.344,4.809-12.258,7.695-18.107,8.14c-0.381,0.029-0.454-0.572-0.09-0.658c7.653-1.817,13.564-5.918,19.662-10.63
		c0.122-0.094,0.261-0.086,0.371-0.034c0.215-0.423,0.427-0.856,0.635-1.303c0.166-0.354,0.687-0.158,0.696,0.189
		C227.852,163.93,219.08,167.46,215.341,173.031z"/>
</g>
</svg>
