<?xml version="1.0" encoding="utf-8"?>
<!-- Generator: Adobe Illustrator 16.0.0, SVG Export Plug-In . SVG Version: 6.00 Build 0)  -->
<!DOCTYPE svg PUBLIC "-//W3C//DTD SVG 1.1//EN" "http://www.w3.org/Graphics/SVG/1.1/DTD/svg11.dtd">
<svg version="1.1" id="Layer_1" xmlns="http://www.w3.org/2000/svg" xmlns:xlink="http://www.w3.org/1999/xlink" x="0px" y="0px"
	 width="350px" height="350px" viewBox="0 0 350 350" enable-background="new 0 0 350 350" xml:space="preserve">
<path fill="#EA86A5" d="M218.224,139.6c0-42.69-34.732-77.422-77.422-77.422S63.38,96.91,63.38,139.6
	c0,42.689,34.732,77.421,77.421,77.421S218.224,182.289,218.224,139.6z M146.312,194.381c-1.384,0.085-2.76,0.123-4.111,0.123
	c-14.56,0-27.422-4.711-37.397-13.756c-11.11-10.064-17.588-24.804-18.24-41.494c-1.271-32.327,29.983-58.236,31.311-59.323
	c2.061-1.682,5.113-1.389,6.805,0.686c1.691,2.064,1.389,5.113-0.681,6.804c-0.288,0.241-28.844,23.982-27.767,51.456
	c0.553,14.072,5.902,26.396,15.069,34.704c8.94,8.095,20.868,11.96,34.435,11.144c14.97-0.889,30.706-11.648,40.091-27.418
	c8.071-13.567,9.583-27.998,4.153-39.599c-6.232-13.302-17.494-21.553-29.406-21.553c-0.033,0-0.066,0.005-0.094,0.005
	c-10.816,0.038-20.026,6.602-25.262,18.009c-7.055,15.362-2.812,29.478,4.763,34.963c4.81,3.488,10.197,2.863,15.159-1.734
	c4.985-4.622,7.509-9.111,7.301-12.981c-0.241-4.475-4.054-7.362-4.092-7.391c-2.126-1.588-2.604-4.603-1.04-6.748
	c1.563-2.146,4.531-2.656,6.7-1.101c0.308,0.217,7.504,5.453,8.081,14.535c0.449,6.994-3.043,13.988-10.373,20.783
	c-8.341,7.74-18.845,8.686-27.412,2.477c-10.694-7.745-17.092-26.793-7.887-46.839c6.781-14.757,19.498-23.599,34.024-23.65
	c0.042,0,0.09-0.005,0.132-0.005c15.712,0,30.328,10.382,38.167,27.129c6.819,14.55,5.141,32.284-4.598,48.648
	C183.166,180.701,164.391,193.308,146.312,194.381z"/>
<path fill="#81A4E3" d="M205.488,203.284l-3.421,3.421l80.437,80.438c0.6,0.595,1.3,0.689,1.673,0.689c0,0,0,0,0.005,0
	c0.373-0.005,1.097-0.1,1.715-0.719c0.469-0.468,0.724-1.076,0.724-1.72c0.005-0.628-0.245-1.224-0.69-1.668L205.488,203.284z"/>
<g>
	<path fill="#314E55" d="M198.74,113.604c-7.839-16.747-22.455-27.129-38.167-27.129c-0.042,0-0.09,0.005-0.132,0.005
		c-14.526,0.052-27.243,8.893-34.023,23.65c-9.206,20.045-2.807,39.094,7.887,46.839c8.567,6.209,19.072,5.264,27.412-2.477
		c7.329-6.795,10.821-13.789,10.372-20.782c-0.577-9.082-7.773-14.318-8.08-14.536c-2.169-1.554-5.137-1.044-6.701,1.101
		c-1.564,2.146-1.086,5.16,1.04,6.748c0.038,0.028,3.851,2.916,4.092,7.391c0.208,3.871-2.315,8.359-7.301,12.981
		c-4.962,4.598-10.349,5.221-15.159,1.734c-7.575-5.486-11.819-19.601-4.763-34.963c5.236-11.408,14.446-17.971,25.262-18.009
		c0.028,0,0.061-0.005,0.094-0.005c11.913,0,23.173,8.25,29.406,21.553c5.43,11.601,3.918,26.032-4.153,39.599
		c-9.384,15.77-25.121,26.528-40.09,27.417c-13.567,0.818-25.494-3.047-34.435-11.143c-9.167-8.307-14.517-20.631-15.069-34.704
		c-1.078-27.474,27.478-51.214,27.766-51.456c2.07-1.691,2.372-4.74,0.681-6.804c-1.691-2.075-4.745-2.367-6.804-0.685
		c-1.328,1.086-32.583,26.996-31.311,59.323c0.652,16.69,7.131,31.429,18.24,41.495c9.976,9.044,22.838,13.755,37.397,13.755
		c1.351,0,2.727-0.037,4.111-0.123c18.08-1.072,36.854-13.68,47.831-32.128C203.882,145.889,205.56,128.154,198.74,113.604z"/>
	<path fill="#314E55" d="M292.768,276.879l-83.551-83.552c11.662-14.819,18.685-33.453,18.685-53.728
		c0-48.025-39.075-87.1-87.1-87.1c-48.025,0-87.099,39.075-87.099,87.1c0,48.025,39.074,87.1,87.099,87.1
		c19.041,0,36.619-6.214,50.97-16.621c0.014,0.014,0.018,0.034,0.032,0.049l83.857,83.856c2.344,2.345,5.425,3.517,8.511,3.517
		c3.101,0,6.204-1.182,8.567-3.545c2.292-2.291,3.554-5.324,3.559-8.542C296.303,282.185,295.05,279.156,292.768,276.879z
		 M63.38,139.6c0-42.69,34.732-77.422,77.421-77.422s77.422,34.732,77.422,77.422c0,42.689-34.732,77.421-77.422,77.421
		S63.38,182.289,63.38,139.6z M285.896,287.113c-0.619,0.619-1.343,0.714-1.716,0.718c-0.005,0-0.005,0-0.005,0
		c-0.373,0-1.072-0.094-1.673-0.689l-80.436-80.437l3.421-3.421l80.441,80.441c0.444,0.444,0.694,1.04,0.689,1.668
		C286.619,286.036,286.364,286.646,285.896,287.113z"/>
</g>
</svg>
