<?xml version="1.0" encoding="utf-8"?>
<!-- Generator: Adobe Illustrator 16.0.0, SVG Export Plug-In . SVG Version: 6.00 Build 0)  -->
<!DOCTYPE svg PUBLIC "-//W3C//DTD SVG 1.1//EN" "http://www.w3.org/Graphics/SVG/1.1/DTD/svg11.dtd">
<svg version="1.1" id="Layer_1" xmlns="http://www.w3.org/2000/svg" xmlns:xlink="http://www.w3.org/1999/xlink" x="0px" y="0px"
	 width="350px" height="350px" viewBox="0 0 350 350" enable-background="new 0 0 350 350" xml:space="preserve">
<g>
	<g>
		<path d="M278.941,71.077c-18.654-18.655-43.456-28.928-69.836-28.928c-26.381,0-51.183,10.273-69.837,28.928
			c-31.907,31.908-37.375,80.395-16.406,117.986l-72.808,72.806c-10.502,10.503-10.502,27.591,0,38.093
			c5.087,5.088,11.853,7.89,19.047,7.89c7.195,0,13.959-2.803,19.046-7.89l51.857-51.857c0.002-0.002,0.004-0.002,0.005-0.004
			c0.001-0.001,0.002-0.003,0.004-0.005l20.94-20.939c14.908,8.315,31.529,12.474,48.15,12.474c25.291,0,50.582-9.626,69.837-28.88
			C317.448,172.241,317.448,109.585,278.941,71.077z M78.254,290.068c-2.444,2.444-5.695,3.79-9.152,3.79
			c-3.457,0-6.708-1.346-9.153-3.791c-5.046-5.046-5.046-13.257,0-18.304l46.915-46.915l18.304,18.305L78.254,290.068z
			 M135.063,233.259l-18.304-18.305l13.958-13.958c2.602,3.39,5.45,6.651,8.552,9.752c3.102,3.102,6.362,5.95,9.752,8.553
			L135.063,233.259z M269.047,200.855c-33.053,33.053-86.832,33.053-119.884,0c-33.053-33.052-33.053-86.832,0-119.884
			c16.011-16.012,37.298-24.831,59.943-24.831c22.643,0,43.93,8.818,59.941,24.83C302.099,114.023,302.099,167.803,269.047,200.855z
			"/>
	</g>
</g>
<g>
	<g>
		<path d="M256.316,93.703c-12.611-12.611-29.377-19.556-47.211-19.556c-17.835,0-34.601,6.945-47.211,19.556
			c-26.033,26.032-26.033,68.39,0,94.422c12.61,12.61,29.377,19.556,47.211,19.556s34.601-6.945,47.211-19.556
			s19.555-29.377,19.555-47.211C275.871,123.08,268.926,106.313,256.316,93.703z M246.422,178.23
			c-9.968,9.967-23.221,15.457-37.318,15.457c-14.096,0-27.349-5.49-37.316-15.457c-9.967-9.968-15.457-23.22-15.457-37.317
			c0-14.097,5.489-27.349,15.457-37.317c9.967-9.968,23.22-15.458,37.316-15.458c14.098,0,27.351,5.49,37.318,15.458
			s15.457,23.22,15.457,37.317C261.879,155.01,256.389,168.263,246.422,178.23z"/>
	</g>
</g>
<g>
	<g>
		<path d="M239.001,111.017c-16.486-16.485-43.309-16.484-59.793,0c-2.732,2.732-2.732,7.162,0,9.895
			c1.367,1.366,3.156,2.049,4.947,2.049c1.79,0,3.581-0.684,4.947-2.049c11.028-11.03,28.975-11.031,40.005-0.001
			c2.732,2.731,7.162,2.731,9.894,0C241.733,118.179,241.733,113.75,239.001,111.017z"/>
	</g>
</g>
</svg>
