<?xml version="1.0" encoding="utf-8"?>
<!-- Generator: Adobe Illustrator 16.0.0, SVG Export Plug-In . SVG Version: 6.00 Build 0)  -->
<!DOCTYPE svg PUBLIC "-//W3C//DTD SVG 1.1//EN" "http://www.w3.org/Graphics/SVG/1.1/DTD/svg11.dtd">
<svg version="1.1" id="Layer_1" xmlns="http://www.w3.org/2000/svg" xmlns:xlink="http://www.w3.org/1999/xlink" x="0px" y="0px"
	 width="350px" height="350px" viewBox="0 0 350 350" enable-background="new 0 0 350 350" xml:space="preserve">
<g>
	
		<path fill="#554B49" stroke="#443633" stroke-width="5" stroke-linecap="round" stroke-linejoin="round" stroke-miterlimit="10" d="
		M175,47.007L175,47.007c-28.313,0-51.267,22.953-51.267,51.266v12.1h102.533v-12.1C226.267,69.96,203.313,47.007,175,47.007z"/>
	<g>
		<g>
			
				<path fill="#AAB7D7" stroke="#443633" stroke-width="5" stroke-linecap="round" stroke-linejoin="round" stroke-miterlimit="10" d="
				M86.773,284.496c0,24.662,176.453,24.662,176.453,0v-22.19c0-48.726-39.501-88.226-88.227-88.226l0,0
				c-48.726,0-88.227,39.5-88.227,88.226V284.496z"/>
			
				<path fill="#FFECE8" stroke="#443633" stroke-width="5" stroke-linecap="round" stroke-linejoin="round" stroke-miterlimit="10" d="
				M155.405,182.232c0,7.783,39.189,7.783,39.189,0v-35.021h-39.189V182.232z"/>
			
				<circle fill="#FFECE8" stroke="#443633" stroke-width="5" stroke-linecap="round" stroke-linejoin="round" stroke-miterlimit="10" cx="124.829" cy="112.636" r="10.273"/>
			
				<circle fill="#FFECE8" stroke="#443633" stroke-width="5" stroke-linecap="round" stroke-linejoin="round" stroke-miterlimit="10" cx="225.171" cy="112.636" r="10.273"/>
			
				<path fill="#FFECE8" stroke="#443633" stroke-width="5" stroke-linecap="round" stroke-linejoin="round" stroke-miterlimit="10" d="
				M227.714,138.714l-4.179-38.905c-1.431-16.471-11.968-30.321-26.723-37.306c-6.585-3.118-14.009,3.686-21.839,3.682
				c-6.688,0.003-13.079-7.273-18.905-4.958c-16.276,6.468-28.132,21.039-29.655,38.582l-4.18,38.905
				c-1.353,15.58,11.705,28.926,28.3,28.926h24.44h24.441C216.009,167.64,229.067,154.293,227.714,138.714z"/>
			<g>
				<g>
					
						<line fill="none" stroke="#443633" stroke-width="5" stroke-linecap="round" stroke-linejoin="round" stroke-miterlimit="10" x1="233.157" y1="252.181" x2="233.157" y2="298.102"/>
					
						<line fill="none" stroke="#443633" stroke-width="5" stroke-linecap="round" stroke-linejoin="round" stroke-miterlimit="10" x1="116.843" y1="252.181" x2="116.843" y2="298.102"/>
				</g>
				<g>
					
						<path fill="none" stroke="#443633" stroke-width="5" stroke-linecap="round" stroke-linejoin="round" stroke-miterlimit="10" d="
						M225.439,249.262c0,0,10.846,0.835,15.436,8.494"/>
					
						<path fill="none" stroke="#443633" stroke-width="5" stroke-linecap="round" stroke-linejoin="round" stroke-miterlimit="10" d="
						M124.561,249.262c0,0-10.846,0.835-15.436,8.494"/>
				</g>
			</g>
			<path fill="#E0E0E0" d="M263.227,270.81v13.693c0,24.652-176.453,24.652-176.453,0V270.81
				C86.773,295.461,263.227,295.461,263.227,270.81z"/>
			<g>
				<g>
					
						<path fill="none" stroke="#DDC6B8" stroke-width="2" stroke-linecap="round" stroke-linejoin="round" stroke-miterlimit="10" d="
						M177.577,107.579c0.938,6.929,2.981,13.132,6.497,18.367c1.354,2.017,0.646,4.755-1.553,5.79l-5.955,2.803
						c-0.992,0.467-2.141,0.467-3.133,0l-5.955-2.803c-2.198-1.035-2.907-3.773-1.553-5.79c3.516-5.235,5.56-11.438,6.497-18.367"/>
					<g>
						<g>
							
								<line fill="none" stroke="#443633" stroke-width="5" stroke-linecap="round" stroke-linejoin="round" stroke-miterlimit="10" x1="159.782" y1="100.777" x2="144.357" y2="100.777"/>
							<circle fill="#443633" cx="152.07" cy="111.891" r="4.312"/>
						</g>
						<g>
							
								<line fill="none" stroke="#443633" stroke-width="5" stroke-linecap="round" stroke-linejoin="round" stroke-miterlimit="10" x1="205.643" y1="100.777" x2="190.217" y2="100.777"/>
							<circle fill="#443633" cx="197.93" cy="111.891" r="4.312"/>
						</g>
					</g>
				</g>
				
					<path fill="#FFFFFF" stroke="#443633" stroke-width="2" stroke-linecap="round" stroke-linejoin="round" stroke-miterlimit="10" d="
					M174.9,154.841L174.9,154.841c5.439,0,9.849-4.41,9.849-9.85v-0.156h-19.698v0.156
					C165.051,150.431,169.46,154.841,174.9,154.841z"/>
			</g>
		</g>
	</g>
</g>
</svg>
