<?xml version="1.0" encoding="utf-8"?>
<!-- Generator: Adobe Illustrator 16.0.0, SVG Export Plug-In . SVG Version: 6.00 Build 0)  -->
<!DOCTYPE svg PUBLIC "-//W3C//DTD SVG 1.1//EN" "http://www.w3.org/Graphics/SVG/1.1/DTD/svg11.dtd">
<svg version="1.1" id="Layer_1" xmlns="http://www.w3.org/2000/svg" xmlns:xlink="http://www.w3.org/1999/xlink" x="0px" y="0px"
	 width="350px" height="350px" viewBox="0 0 350 350" enable-background="new 0 0 350 350" xml:space="preserve">
<g>
	<g>
		
			<path fill="#754F3A" stroke="#443633" stroke-width="5" stroke-linecap="round" stroke-linejoin="round" stroke-miterlimit="10" d="
			M175,37.114c-36.003,0.909-64.916,30.358-64.916,66.58c0,59.688,28.912,51.165,64.916,52.074
			c36.004-0.909,64.917,7.615,64.917-52.074C239.916,67.472,211.004,38.023,175,37.114z"/>
		<g>
			<g>
				<g>
					<path fill="#519CD3" d="M175.006,310.612c-2.876,0-5.782-0.027-8.637-0.083c-18.778-0.35-80.052-2.848-80.052-20.306v-21.73
						c0-23.689,9.225-45.96,25.974-62.709c3.739-3.738,7.829-7.156,12.157-10.158c0.049-0.034,0.099-0.065,0.15-0.096
						c4.065-2.819,8.351-5.287,12.741-7.336c11.813-5.563,24.487-8.384,37.662-8.384c13.17,0,25.846,2.821,37.68,8.387
						c4.461,2.088,8.795,4.588,12.875,7.431c23.873,16.58,38.129,43.82,38.129,72.865v21.73c0,17.458-61.266,19.956-80.043,20.306
						C180.787,310.585,177.881,310.612,175.006,310.612z"/>
					<g>
						<path fill="#443633" d="M175,182.084c13.131,0,25.565,2.928,36.713,8.171c4.396,2.058,8.586,4.483,12.543,7.239
							c22.453,15.594,37.154,41.575,37.154,70.999v21.73c0,11.27-37.656,17.284-77.813,18.032c-2.854,0.055-5.723,0.083-8.592,0.083
							s-5.739-0.028-8.593-0.083c-40.167-0.748-77.822-6.75-77.822-18.032v-21.73c0-23.862,9.677-45.471,25.308-61.102
							c3.638-3.638,7.607-6.958,11.845-9.897h0.013c3.957-2.756,8.133-5.182,12.543-7.239
							C149.435,185.012,161.88,182.084,175,182.084 M175,177.536c-13.512,0-26.512,2.896-38.637,8.604
							c-4.472,2.088-8.851,4.606-13.003,7.482c-0.07,0.043-0.139,0.088-0.207,0.135c-4.441,3.081-8.637,6.586-12.469,10.419
							c-17.179,17.179-26.64,40.02-26.64,64.316v21.73c0,4.545,3.015,8.417,8.961,11.507c4.386,2.28,10.612,4.269,18.508,5.912
							c14.086,2.932,33.554,4.764,54.815,5.16c2.867,0.055,5.788,0.083,8.678,0.083c2.891,0,5.811-0.028,8.682-0.083
							c21.244-0.396,40.709-2.23,54.801-5.165c7.895-1.644,14.121-3.634,18.506-5.911c5.945-3.09,8.963-6.961,8.963-11.503v-21.73
							c0-29.79-14.621-57.728-39.107-74.733c-4.182-2.913-8.627-5.479-13.211-7.624C201.512,180.431,188.508,177.536,175,177.536
							L175,177.536z"/>
					</g>
				</g>
				
					<path fill="#FFECE8" stroke="#443633" stroke-width="5" stroke-linecap="round" stroke-linejoin="round" stroke-miterlimit="10" d="
					M155.813,190.067c0,3.812,9.595,22.313,19.191,22.313s19.191-18.502,19.191-22.313v-34.299h-38.382V190.067z"/>
				<g>
					<g>
						
							<circle fill="#FFECE8" stroke="#443633" stroke-width="5" stroke-linecap="round" stroke-linejoin="round" stroke-miterlimit="10" cx="125.322" cy="115.031" r="9.618"/>
						
							<circle fill="#FFECE8" stroke="#443633" stroke-width="5" stroke-linecap="round" stroke-linejoin="round" stroke-miterlimit="10" cx="224.687" cy="115.031" r="9.618"/>
					</g>
					
						<path fill="#FFECE8" stroke="#443633" stroke-width="5" stroke-linecap="round" stroke-linejoin="round" stroke-miterlimit="10" d="
						M125.387,93.364l3.579,58.114l46.039,24.298l46.039-24.298l3.578-58.114c0.641-10.407-7.627-19.199-18.053-19.199h-63.127
						C133.014,74.165,124.747,82.957,125.387,93.364z"/>
				</g>
				<g>
					<g>
						
							<path fill="none" stroke="#DDC6B8" stroke-width="2" stroke-linecap="round" stroke-linejoin="round" stroke-miterlimit="10" d="
							M177.529,109.479c0.918,6.787,2.92,12.862,6.363,17.989c1.326,1.976,0.631,4.657-1.521,5.671l-5.834,2.745
							c-0.971,0.458-2.095,0.458-3.067,0l-5.833-2.745c-2.153-1.014-2.847-3.695-1.521-5.671c3.443-5.126,5.444-11.202,6.363-17.989
							"/>
						<g>
							<g>
								
									<line fill="none" stroke="#443633" stroke-width="5" stroke-linecap="round" stroke-linejoin="round" stroke-miterlimit="10" x1="160.101" y1="102.817" x2="144.993" y2="102.817"/>
								<circle fill="#443633" cx="152.547" cy="113.703" r="4.223"/>
							</g>
							<g>
								
									<line fill="none" stroke="#443633" stroke-width="5" stroke-linecap="round" stroke-linejoin="round" stroke-miterlimit="10" x1="205.016" y1="102.817" x2="189.908" y2="102.817"/>
								<circle fill="#443633" cx="197.462" cy="113.703" r="4.224"/>
							</g>
						</g>
					</g>
					
						<path fill="#FFFFFF" stroke="#443633" stroke-width="2" stroke-linecap="round" stroke-linejoin="round" stroke-miterlimit="10" d="
						M174.906,159.443L174.906,159.443c5.328,0,9.646-4.319,9.646-9.647v-0.152H165.26v0.152
						C165.26,155.124,169.578,159.443,174.906,159.443z"/>
				</g>
				<path fill="#E0E0E0" d="M261.41,276.735v13.412c0,24.145-172.819,24.145-172.819,0v-13.412
					C88.591,300.879,261.41,300.879,261.41,276.735z"/>
			</g>
		</g>
		<g>
			<path fill="none" stroke="#443633" stroke-width="5" stroke-linecap="round" stroke-linejoin="round" stroke-miterlimit="10" d="
				M175,212.381c0,0,25.186-3.674,34.987,8.575c0,0,3.525-26.94-12.529-38.719"/>
			<path fill="none" stroke="#443633" stroke-width="5" stroke-linecap="round" stroke-linejoin="round" stroke-miterlimit="10" d="
				M175,212.381c0,0-25.186-3.674-34.986,8.575c0,0-3.525-26.94,12.529-38.719"/>
			
				<polyline fill="none" stroke="#443633" stroke-width="5" stroke-linecap="round" stroke-linejoin="round" stroke-miterlimit="10" points="
				165.255,211.876 165.255,252.396 174.902,252.396 174.902,228.307 			"/>
		</g>
		<path fill="#754F3A" d="M122.292,82.143c0,0,0.8,11.453,15.995,14.229c0,0-3.199-9.023,0-14.229c0,0,10.397,8.676,34.39,7.115
			c23.994-1.562,41.988,0.335,49.186,20.73c0,0,19.195-31.891-13.195-49.016c-15.596-7.983-37.589-8.676-46.387-1.735h-19.347
			l-13.196,6.247C129.738,65.483,121.645,72.771,122.292,82.143z"/>
		<path fill="none" stroke="#443633" stroke-width="5" stroke-linecap="round" stroke-linejoin="round" stroke-miterlimit="10" d="
			M122.292,82.143c0,0,0.8,11.453,15.995,14.229c0,0-3.199-9.023,0-14.229c0,0,10.397,8.676,34.39,7.115
			c23.994-1.562,41.988,0.335,49.186,20.73c0,0,19.195-31.891-13.195-49.016c-15.596-7.983-37.589-8.676-46.387-1.735"/>
		<g>
			<g>
				
					<line fill="none" stroke="#443633" stroke-width="5" stroke-linecap="round" stroke-linejoin="round" stroke-miterlimit="10" x1="126.324" y1="259.483" x2="126.324" y2="304.458"/>
				
					<path fill="none" stroke="#443633" stroke-width="5" stroke-linecap="round" stroke-linejoin="round" stroke-miterlimit="10" d="
					M133.882,256.625c0,0-10.623,0.817-15.118,8.317"/>
			</g>
			<g>
				
					<line fill="none" stroke="#443633" stroke-width="5" stroke-linecap="round" stroke-linejoin="round" stroke-miterlimit="10" x1="223.676" y1="259.483" x2="223.676" y2="304.458"/>
				
					<path fill="none" stroke="#443633" stroke-width="5" stroke-linecap="round" stroke-linejoin="round" stroke-miterlimit="10" d="
					M216.117,256.625c0,0,10.623,0.817,15.117,8.317"/>
			</g>
		</g>
	</g>
	<path fill="none" stroke="#443633" stroke-width="2" stroke-linecap="round" stroke-linejoin="round" stroke-miterlimit="10" d="
		M179.574,62.994c8.637-0.888,17.58,1.688,24.426,7.03c6.844,5.343,11.512,13.395,12.746,21.99"/>
</g>
</svg>
