<?xml version="1.0" encoding="utf-8"?>
<!-- Generator: Adobe Illustrator 16.0.0, SVG Export Plug-In . SVG Version: 6.00 Build 0)  -->
<!DOCTYPE svg PUBLIC "-//W3C//DTD SVG 1.1//EN" "http://www.w3.org/Graphics/SVG/1.1/DTD/svg11.dtd">
<svg version="1.1" id="Layer_1" xmlns="http://www.w3.org/2000/svg" xmlns:xlink="http://www.w3.org/1999/xlink" x="0px" y="0px"
	 width="350px" height="350px" viewBox="0 0 350 350" enable-background="new 0 0 350 350" xml:space="preserve">
<g>
	<g>
		<path fill="#40B1E5" d="M178.02,289.789c40.88,0,54.711-8.429,54.711-8.429s0.341-23.173-6.844-28.969
			c0,0-26.852-17.21-38.313-20.196h-9.421h-2.246h-10.58c-11.461,2.986-38.314,20.196-38.314,20.196
			c-7.185,5.796-6.842,28.969-6.842,28.969s18.473,8.429,59.352,8.429H178.02z"/>
		<g>
			<path fill="#525865" d="M178.02,292.165c14.508-0.007,29.31-0.844,43.447-4.331c3.123-0.771,6.231-1.689,9.21-2.914
				c1.211-0.498,3.37-1.108,4.104-2.361c0.596-1.016,0.327-2.741,0.299-3.857c-0.058-2.279-0.188-4.555-0.396-6.825
				c-0.525-5.786-1.374-11.861-4.026-17.104c-0.866-1.715-2.092-3.49-3.737-4.537c-1.006-0.641-2.016-1.272-3.028-1.9
				c-4.514-2.801-9.08-5.521-13.706-8.135c-5.44-3.072-10.969-6.019-16.733-8.439c-1.13-0.475-2.273-0.918-3.436-1.31
				c-0.869-0.294-1.779-0.63-2.706-0.63c-2.19,0-4.382,0-6.572,0c-3.19,0-6.381,0-9.571,0c-1.93,0-3.86,0-5.791,0
				c-1.03,0-2.176,0.514-3.139,0.854c-1.336,0.473-2.644,1.019-3.946,1.576c-5.646,2.415-11.062,5.385-16.398,8.416
				c-4.5,2.556-8.942,5.215-13.336,7.949c-0.894,0.556-1.786,1.115-2.673,1.681c-1.813,1.157-3.077,3.24-3.966,5.146
				c-2.491,5.344-3.279,11.414-3.77,17.233c-0.242,2.881-0.394,5.79-0.352,8.685c0.011,0.773,0.429,1.71,1.176,2.051
				c4.746,2.161,9.994,3.391,15.062,4.485c14.9,3.221,30.275,4.261,45.49,4.269c0-1.583,0-3.167,0-4.751c-0.502,0-1.002,0-1.504,0
				C174.958,287.414,174.958,292.165,178.02,292.165c0.502,0,1.002,0,1.504,0c3.064,0,3.064-4.749,0-4.751
				c-8.929-0.004-17.864-0.397-26.746-1.341c-0.885-0.095-1.768-0.195-2.651-0.3c-0.428-0.051-0.854-0.104-1.282-0.158
				c-0.21-0.026-0.42-0.053-0.63-0.081c-0.1-0.013-0.986-0.131-0.401-0.052c-1.625-0.219-3.247-0.462-4.866-0.725
				c-2.759-0.449-5.508-0.97-8.237-1.568c-3.526-0.774-7.029-1.683-10.454-2.826c-0.861-0.288-1.718-0.592-2.563-0.925
				c-0.298-0.116-1.183-0.491-0.102-0.032c-0.074-0.032-0.149-0.063-0.223-0.098c0.393,0.684,0.785,1.367,1.176,2.052
				c-0.046-3.27,0.146-6.556,0.454-9.81c0.063-0.664,0.134-1.329,0.212-1.993c0.04-0.34,0.083-0.68,0.127-1.021
				c-0.087,0.669-0.009,0.072,0.008-0.054c0.032-0.229,0.067-0.459,0.101-0.688c0.214-1.439,0.478-2.873,0.797-4.293
				c0.309-1.367,0.683-2.722,1.141-4.049c0.105-0.302,0.217-0.602,0.332-0.899c0.057-0.147,0.116-0.292,0.174-0.438
				c-0.256,0.63-0.052,0.126,0.003,0.001c0.257-0.586,0.548-1.156,0.865-1.711c0.14-0.242,0.289-0.478,0.442-0.711
				c0.104-0.158,0.672-0.912,0.179-0.279c0.337-0.432,0.715-0.828,1.125-1.189c0.356-0.313-0.566,0.39-0.19,0.149
				c0.126-0.081,0.254-0.161,0.38-0.241c1.229-0.78,2.466-1.549,3.705-2.313c4.732-2.918,9.519-5.749,14.377-8.452
				c2.767-1.539,5.56-3.031,8.393-4.443c1.322-0.658,2.655-1.295,4-1.904c0.601-0.273,1.205-0.538,1.815-0.797
				c-0.663,0.281,0.287-0.117,0.449-0.183c0.328-0.133,0.655-0.261,0.984-0.388c1.049-0.404,2.111-0.771,3.193-1.074
				c0.618-0.174-0.748-0.009,0.004-0.009c0.369,0,0.737,0,1.105,0c2.398,0,4.797,0,7.196,0c3.241,0,6.484,0,9.725,0
				c1.078,0,2.154,0,3.23,0c0.223,0,0.446,0,0.668,0c-0.494,0-0.614-0.092-0.139,0.041c0.283,0.079,0.564,0.165,0.846,0.254
				c1.137,0.359,2.253,0.786,3.358,1.233c0.145,0.06,0.29,0.119,0.435,0.18c0.516,0.214-0.5-0.213,0.02,0.008
				c0.302,0.129,0.602,0.26,0.9,0.392c0.678,0.298,1.35,0.605,2.02,0.919c9.811,4.586,19.174,10.221,28.336,15.978
				c0.386,0.242,0.77,0.483,1.152,0.728c0.068,0.044,0.136,0.088,0.205,0.132c-0.26-0.167-0.533-0.43-0.189-0.128
				c0.218,0.192,0.421,0.402,0.617,0.615c0.129,0.141,0.688,0.855,0.206,0.222c0.163,0.216,0.315,0.44,0.464,0.667
				c0.342,0.52,0.639,1.066,0.915,1.623c0.133,0.271,0.258,0.547,0.38,0.823c0.22,0.501-0.209-0.507,0,0.005
				c0.059,0.145,0.116,0.292,0.172,0.439c0.254,0.658,0.474,1.328,0.682,2.003c0.416,1.366,0.741,2.76,1.023,4.161
				c0.138,0.686,0.259,1.376,0.373,2.066c0.058,0.346,0.109,0.69,0.161,1.035c0.025,0.172,0.05,0.345,0.073,0.517
				c0.018,0.114,0.032,0.229,0.048,0.343c-0.046-0.346-0.052-0.385-0.016-0.118c0.335,2.573,0.54,5.164,0.661,7.755
				c0.078,1.63,0.132,3.266,0.107,4.897c0.393-0.685,0.785-1.368,1.178-2.052c-0.221,0.136-0.456,0.253-0.688,0.369
				c-0.294,0.148-0.591,0.288-0.892,0.424c-0.186,0.085-0.374,0.168-0.563,0.25c-0.519,0.223,0.38-0.16,0.195-0.082
				c-0.134,0.056-0.267,0.111-0.402,0.165c-3.074,1.247-6.28,2.166-9.501,2.946c-2.404,0.582-4.835,1.07-7.272,1.496
				c-1.449,0.253-2.903,0.479-4.358,0.688c-0.194,0.026-0.388,0.054-0.582,0.081c-0.091,0.012-0.75,0.102-0.154,0.021
				c-0.4,0.055-0.803,0.105-1.204,0.156c-0.907,0.115-1.814,0.221-2.724,0.32c-8.419,0.93-16.898,1.266-25.365,1.27
				C174.958,287.416,174.956,292.166,178.02,292.165z"/>
		</g>
	</g>
	<g>
		<ellipse fill="#EFD4C2" cx="224.304" cy="150.153" rx="13.057" ry="18.57"/>
		<g>
			<path fill="#525865" d="M208.872,150.153c0.035,7.417,3.021,16.364,10.237,19.735c3.383,1.581,7.001,1.511,10.39,0
				c3.229-1.442,5.733-4.424,7.354-7.492c3.929-7.441,3.829-17.036,0-24.485c-1.6-3.11-4.147-5.994-7.354-7.492
				c-3.385-1.581-7.003-1.511-10.39,0c-3.231,1.442-5.734,4.425-7.354,7.492C209.776,141.659,208.893,145.933,208.872,150.153
				c-0.016,3.065,4.735,3.063,4.751,0c0.017-3.785,0.832-7.421,2.649-10.601c0.211-0.367,0.438-0.722,0.673-1.074
				c0.115-0.172,0.236-0.34,0.357-0.508c0.398-0.552-0.295,0.36,0.126-0.167c0.532-0.666,1.129-1.277,1.771-1.84
				c0.144-0.125,0.292-0.245,0.44-0.365c-0.448,0.361,0.044-0.022,0.12-0.076c0.303-0.214,0.618-0.406,0.938-0.589
				c0.315-0.181,0.644-0.338,0.975-0.486c-0.56,0.25-0.004,0.014,0.101-0.024c0.223-0.081,0.453-0.149,0.683-0.213
				c0.342-0.098,0.693-0.166,1.045-0.224c-0.641,0.106-0.043,0.013,0.08,0.002c0.182-0.016,0.363-0.021,0.542-0.026
				c0.361-0.011,0.724,0.01,1.084,0.042c0.611,0.054-0.528-0.088,0.075,0.012c0.237,0.039,0.469,0.093,0.699,0.149
				c0.348,0.084,0.687,0.199,1.023,0.321c0.574,0.209-0.463-0.213,0.097,0.036c0.165,0.074,0.327,0.156,0.488,0.239
				c0.327,0.167,0.642,0.357,0.95,0.555c0.157,0.101,0.309,0.208,0.46,0.316c0.212,0.158,0.203,0.147-0.032-0.032
				c0.102,0.08,0.197,0.16,0.295,0.241c0.604,0.499,1.15,1.063,1.66,1.655c0.131,0.153,0.258,0.31,0.383,0.468
				c-0.334-0.418,0.081,0.122,0.121,0.174c0.287,0.397,0.548,0.812,0.801,1.231c0.45,0.749,0.837,1.536,1.184,2.336
				c-0.195-0.451,0.088,0.239,0.1,0.27c0.082,0.213,0.157,0.429,0.232,0.645c0.181,0.513,0.334,1.035,0.477,1.559
				c0.255,0.932,0.438,1.88,0.582,2.833c-0.07-0.458,0.037,0.349,0.037,0.353c0.028,0.249,0.049,0.499,0.069,0.749
				c0.049,0.593,0.068,1.188,0.076,1.782c0.015,1.018-0.042,2.035-0.146,3.047c0,0.003-0.102,0.812-0.037,0.353
				c-0.035,0.242-0.076,0.484-0.117,0.725c-0.094,0.554-0.214,1.103-0.346,1.649c-0.219,0.904-0.504,1.792-0.828,2.664
				c-0.012,0.03-0.29,0.723-0.1,0.27c-0.086,0.205-0.179,0.407-0.271,0.609c-0.213,0.462-0.45,0.913-0.697,1.357
				c-0.207,0.371-0.432,0.73-0.663,1.086c-0.113,0.174-0.233,0.344-0.353,0.514c-0.037,0.053-0.45,0.598-0.121,0.175
				c-0.526,0.676-1.118,1.298-1.752,1.873c-0.141,0.128-0.291,0.25-0.436,0.372c-0.49,0.406,0.391-0.286-0.118,0.087
				c-0.299,0.219-0.611,0.417-0.931,0.606c-0.313,0.187-0.637,0.35-0.968,0.503c-0.556,0.26,0.474-0.183-0.097,0.036
				c-0.223,0.086-0.45,0.157-0.678,0.227c-0.344,0.104-0.691,0.179-1.045,0.244c-0.602,0.112,0.534-0.053-0.075,0.012
				c-0.18,0.019-0.36,0.028-0.54,0.037c-0.361,0.017-0.723,0.003-1.086-0.021c-0.12-0.008-0.727-0.092-0.08,0.002
				c-0.234-0.034-0.468-0.084-0.701-0.136c-0.348-0.078-0.689-0.186-1.026-0.302c-0.103-0.035-0.667-0.265-0.101-0.024
				c-0.168-0.071-0.329-0.15-0.491-0.23c-0.33-0.16-0.646-0.345-0.956-0.538c-0.158-0.097-0.311-0.202-0.465-0.308
				c-0.102-0.071-0.202-0.144-0.304-0.218c0.232,0.181,0.243,0.189,0.035,0.023c-0.606-0.489-1.158-1.043-1.675-1.625
				c-0.133-0.15-0.261-0.306-0.388-0.461c-0.427-0.521,0.278,0.38-0.126-0.166c-0.291-0.392-0.556-0.801-0.813-1.216
				c-0.496-0.804-0.917-1.652-1.294-2.518c0.196,0.451-0.085-0.239-0.099-0.27c-0.081-0.213-0.157-0.429-0.233-0.645
				c-0.181-0.513-0.332-1.036-0.476-1.56c-0.127-0.461-0.231-0.927-0.33-1.394c-0.05-0.237-0.093-0.477-0.136-0.715
				c-0.015-0.083-0.147-0.977-0.097-0.584c-0.143-1.088-0.199-2.186-0.203-3.283C213.607,147.09,208.856,147.088,208.872,150.153z"
				/>
		</g>
	</g>
	<path fill="#E2BDA8" d="M231.335,150.819c0,0,0.821,2.897-0.802,4.328c-5.12,4.513-4.959,11.111-4.959,11.111V154.5l1.664-1.861
		L231.335,150.819z"/>
	<g>
		<path fill="#525865" d="M224.35,160.405c-0.131-1.482,0.071-2.494,0.531-3.897c0.885-2.694,3.158-4.514,5.967-5.209
			c1.487-0.368,0.857-2.658-0.631-2.291c-3.503,0.868-6.19,3.123-7.493,6.492c-0.58,1.502-0.891,3.29-0.749,4.905
			C222.107,161.918,224.482,161.932,224.35,160.405L224.35,160.405z"/>
	</g>
	<g>
		<path fill="#EFD4C2" d="M164.48,225.412v13.378c0,6.171,5.002,11.173,11.173,11.173l0,0c6.169,0,11.172-5.002,11.172-11.173
			v-13.378H164.48z"/>
		<g>
			<path fill="#525865" d="M162.104,225.412c0,3.939,0,7.881,0,11.821c0,2.482,0.205,4.839,1.224,7.153
				c1.575,3.584,4.772,6.249,8.485,7.399c3.801,1.177,8.167,0.458,11.435-1.784c3.434-2.354,5.457-6.006,5.899-10.109
				c0.174-1.627,0.054-3.32,0.054-4.951c0-2.47,0-4.939,0-7.41c0-0.706,0-1.413,0-2.119c0-1.295-1.081-2.375-2.376-2.375
				c-7.38,0-14.758,0-22.138,0c-0.069,0-0.138,0-0.207,0c-3.063,0-3.063,4.75,0,4.75c7.38,0,14.758,0,22.138,0
				c0.069,0,0.139,0,0.207,0c-0.792-0.791-1.583-1.584-2.374-2.375c0,3.939,0,7.881,0,11.821c0,0.516,0,1.031,0,1.546
				c0,0.299-0.016,0.597-0.035,0.895c-0.006,0.064-0.098,0.779-0.018,0.233c-0.031,0.212-0.074,0.424-0.118,0.634
				c-0.086,0.417-0.208,0.825-0.343,1.229c-0.065,0.2-0.144,0.396-0.221,0.591c0.194-0.489-0.156,0.299-0.199,0.383
				c-0.188,0.371-0.408,0.725-0.637,1.072c-0.115,0.173-0.238,0.34-0.361,0.506c0.313-0.421-0.109,0.113-0.15,0.16
				c-0.271,0.314-0.566,0.604-0.869,0.885c-0.152,0.141-0.311,0.273-0.471,0.406c0.398-0.332-0.271,0.19-0.35,0.244
				c-0.344,0.236-0.706,0.442-1.072,0.638c-0.185,0.099-0.375,0.186-0.564,0.273c0.481-0.222-0.15,0.054-0.211,0.077
				c-0.398,0.148-0.808,0.263-1.219,0.365c-0.208,0.051-0.42,0.09-0.631,0.13c-0.281,0.044-0.283,0.048-0.012,0.01
				c-0.145,0.017-0.289,0.031-0.434,0.042c-0.441,0.039-0.886,0.039-1.328,0.026c-0.221-0.007-0.439-0.026-0.658-0.046
				c-0.715-0.063,0.475,0.085-0.228-0.032c-0.423-0.07-0.838-0.178-1.248-0.296c-0.203-0.059-0.402-0.129-0.603-0.199
				c-0.132-0.049-0.263-0.099-0.393-0.15c0.246,0.102,0.242,0.098-0.008-0.015c-0.379-0.175-0.741-0.382-1.098-0.598
				c-0.178-0.108-0.35-0.226-0.521-0.343c-0.051-0.035-0.588-0.455-0.178-0.127c-0.323-0.26-0.625-0.543-0.917-0.836
				c-0.146-0.146-0.284-0.301-0.423-0.455c-0.09-0.104-0.18-0.208-0.267-0.314c0.157,0.209,0.155,0.206-0.008-0.012
				c-0.247-0.334-0.466-0.688-0.675-1.047c-0.105-0.18-0.199-0.365-0.294-0.551c-0.028-0.057-0.312-0.688-0.104-0.197
				c-0.163-0.39-0.293-0.793-0.41-1.199c-0.059-0.205-0.106-0.412-0.153-0.621c-0.021-0.095-0.161-0.975-0.093-0.433
				c-0.09-0.706-0.077-1.417-0.077-2.127c0-4.14,0-8.278,0-12.417c0-0.051,0-0.102,0-0.152
				C166.855,222.348,162.104,222.348,162.104,225.412z"/>
		</g>
	</g>
	<path fill="#525865" d="M124.425,129.839l103.164-1.017c0,0,12.575-31.283-11.009-54.867c-23.546-23.545-72.491-19.409-88.509,0.23
		C119.052,85.245,111.668,106.589,124.425,129.839z"/>
	<g>
		<ellipse fill="#EFD4C2" cx="125.696" cy="150.153" rx="13.056" ry="18.57"/>
		<g>
			<path fill="#525865" d="M136.376,150.153c-0.017,3.785-0.832,7.421-2.65,10.602c-0.208,0.366-0.438,0.722-0.672,1.073
				c-0.115,0.172-0.237,0.34-0.357,0.508c-0.399,0.551,0.294-0.36-0.126,0.166c-0.533,0.666-1.13,1.277-1.771,1.84
				c-0.142,0.126-0.29,0.245-0.439,0.364c0.448-0.36-0.045,0.023-0.122,0.077c-0.301,0.214-0.616,0.406-0.937,0.59
				c-0.315,0.181-0.642,0.338-0.974,0.486c0.56-0.25,0.003-0.014-0.1,0.024c-0.224,0.082-0.453,0.149-0.683,0.213
				c-0.343,0.098-0.694,0.167-1.046,0.224c0.642-0.106,0.043-0.013-0.081-0.002c-0.18,0.016-0.36,0.021-0.541,0.026
				c-0.36,0.011-0.722-0.01-1.083-0.042c-0.613-0.054,0.527,0.088-0.077-0.012c-0.234-0.038-0.467-0.093-0.698-0.149
				c-0.349-0.084-0.688-0.198-1.022-0.321c-0.575-0.208,0.462,0.214-0.098-0.036c-0.166-0.073-0.327-0.156-0.489-0.239
				c-0.326-0.166-0.641-0.357-0.95-0.555c-0.156-0.1-0.308-0.208-0.459-0.316c-0.213-0.157-0.202-0.147,0.031,0.031
				c-0.1-0.079-0.197-0.159-0.295-0.24c-0.601-0.499-1.147-1.064-1.659-1.655c-0.131-0.152-0.257-0.311-0.383-0.468
				c0.334,0.419-0.082-0.122-0.12-0.175c-0.286-0.397-0.549-0.812-0.801-1.23c-0.451-0.749-0.836-1.535-1.185-2.336
				c0.196,0.451-0.086-0.239-0.099-0.27c-0.081-0.213-0.157-0.429-0.233-0.645c-0.18-0.513-0.332-1.036-0.476-1.56
				c-0.254-0.932-0.438-1.88-0.581-2.833c0.068,0.458-0.039-0.349-0.039-0.353c-0.028-0.249-0.048-0.5-0.069-0.75
				c-0.048-0.592-0.067-1.187-0.076-1.782c-0.015-1.018,0.043-2.035,0.145-3.047c0-0.003,0.103-0.812,0.039-0.353
				c0.034-0.242,0.074-0.483,0.115-0.725c0.095-0.553,0.216-1.103,0.348-1.648c0.219-0.905,0.501-1.793,0.827-2.664
				c0.012-0.031,0.29-0.723,0.099-0.27c0.087-0.205,0.181-0.407,0.272-0.609c0.213-0.462,0.45-0.913,0.698-1.357
				c0.207-0.371,0.432-0.73,0.663-1.086c0.114-0.174,0.232-0.344,0.353-0.515c0.038-0.053,0.45-0.598,0.12-0.174
				c0.526-0.676,1.119-1.298,1.753-1.873c0.142-0.128,0.289-0.25,0.436-0.372c0.49-0.405-0.393,0.286,0.117-0.087
				c0.299-0.219,0.612-0.417,0.93-0.606c0.313-0.187,0.639-0.35,0.968-0.503c0.555-0.259-0.473,0.183,0.098-0.036
				c0.222-0.085,0.45-0.157,0.678-0.226c0.341-0.104,0.69-0.18,1.042-0.244c0.603-0.112-0.534,0.054,0.077-0.012
				c0.179-0.019,0.359-0.028,0.54-0.036c0.361-0.018,0.724-0.003,1.084,0.021c0.123,0.008,0.729,0.092,0.081-0.002
				c0.235,0.034,0.468,0.084,0.701,0.136c0.349,0.078,0.69,0.186,1.028,0.302c0.102,0.035,0.666,0.265,0.1,0.024
				c0.167,0.071,0.33,0.15,0.492,0.229c0.329,0.161,0.644,0.346,0.955,0.539c0.159,0.098,0.312,0.203,0.464,0.308
				c0.102,0.071,0.204,0.144,0.304,0.219c-0.231-0.182-0.243-0.189-0.034-0.023c0.606,0.489,1.158,1.043,1.674,1.625
				c0.133,0.151,0.261,0.306,0.388,0.461c0.427,0.521-0.279-0.38,0.126,0.167c0.289,0.391,0.555,0.801,0.812,1.215
				c0.496,0.804,0.917,1.652,1.294,2.519c-0.196-0.451,0.087,0.239,0.099,0.27c0.082,0.213,0.158,0.429,0.234,0.645
				c0.18,0.513,0.333,1.035,0.476,1.559c0.126,0.461,0.231,0.927,0.329,1.394c0.05,0.237,0.093,0.476,0.137,0.714
				c0.015,0.083,0.147,0.977,0.097,0.583C136.315,147.958,136.373,149.056,136.376,150.153c0.015,3.063,4.766,3.065,4.751,0
				c-0.036-7.417-3.021-16.363-10.237-19.734c-3.384-1.581-7.001-1.511-10.389,0c-3.231,1.442-5.735,4.424-7.354,7.492
				c-3.929,7.441-3.829,17.037,0,24.485c1.598,3.11,4.149,5.995,7.354,7.492c3.383,1.581,7.001,1.511,10.389,0
				c3.23-1.442,5.735-4.424,7.354-7.492c1.979-3.749,2.863-8.022,2.884-12.243C141.143,147.088,136.392,147.09,136.376,150.153z"/>
		</g>
	</g>
	<g>
		<path fill="#EFD4C2" d="M126.929,102.956v75.361c0,26.91,21.815,48.724,48.724,48.724l0,0c26.909,0,48.724-21.813,48.724-48.724
			v-75.361H126.929z"/>
		<g>
			<path fill="#525865" d="M124.554,102.956c0,4.809,0,9.618,0,14.426c0,10.01,0,20.02,0,30.029c0,8.585,0,17.17,0,25.756
				c0,1.688,0,3.375,0,5.064c0,6.363,1.162,12.736,3.494,18.659c5.354,13.599,16.34,24.297,30.016,29.409
				c13.915,5.199,29.878,3.76,42.777-3.514c12.544-7.074,21.72-19.554,24.754-33.623c1.396-6.481,1.156-13.06,1.156-19.639
				c0-9.365,0-18.731,0-28.097c0-9.531,0-19.063,0-28.594c0-3.292,0-6.585,0-9.878c0-1.295-1.081-2.375-2.374-2.375
				c-3.908,0-7.815,0-11.721,0c-9.085,0-18.17,0-27.255,0c-10.309,0-20.62,0-30.93,0c-7.583,0-15.166,0-22.748,0
				c-1.599,0-3.196,0-4.794,0c-3.064,0-3.064,4.75,0,4.75c3.906,0,7.814,0,11.72,0c9.084,0,18.169,0,27.254,0
				c10.31,0,20.621,0,30.931,0c7.582,0,15.166,0,22.748,0c1.599,0,3.195,0,4.795,0c-0.793-0.792-1.584-1.583-2.377-2.375
				c0,4.809,0,9.618,0,14.426c0,10.01,0,20.02,0,30.029c0,8.585,0,17.17,0,25.756c0,1.688,0,3.375,0,5.064
				c0,0.844-0.02,1.688-0.06,2.53c-0.042,0.879-0.112,1.757-0.201,2.632c-0.044,0.435-0.097,0.868-0.152,1.301
				c0.07-0.546-0.026,0.168-0.035,0.23c-0.041,0.285-0.088,0.57-0.135,0.855c-0.58,3.508-1.568,6.943-2.899,10.238
				c-0.021,0.056-0.291,0.7-0.083,0.209c-0.082,0.194-0.167,0.387-0.251,0.579c-0.17,0.384-0.345,0.766-0.524,1.146
				c-0.388,0.82-0.801,1.627-1.233,2.425c-0.827,1.526-1.745,3.004-2.729,4.434c-0.236,0.343-0.479,0.68-0.723,1.016
				c-0.123,0.168-0.247,0.335-0.371,0.501c-0.035,0.047-0.454,0.595-0.133,0.18c-0.55,0.711-1.124,1.403-1.711,2.082
				c-1.132,1.307-2.339,2.545-3.601,3.725c-0.606,0.565-1.23,1.113-1.864,1.647c-0.316,0.268-0.639,0.528-0.963,0.788
				c-0.161,0.131-0.325,0.258-0.488,0.385c0.41-0.32-0.275,0.204-0.347,0.257c-1.389,1.038-2.838,1.992-4.331,2.876
				c-1.499,0.889-3.053,1.688-4.64,2.409c-0.191,0.087-0.383,0.171-0.575,0.256c-0.056,0.024-0.696,0.298-0.206,0.091
				c-0.389,0.164-0.781,0.318-1.174,0.471c-0.854,0.333-1.72,0.635-2.592,0.918c-1.694,0.551-3.42,0.994-5.164,1.354
				c-0.848,0.176-1.699,0.322-2.555,0.451c-0.062,0.01-0.775,0.107-0.229,0.035c-0.216,0.029-0.433,0.055-0.649,0.081
				c-0.507,0.061-1.016,0.11-1.525,0.154c-1.842,0.161-3.691,0.206-5.541,0.161c-0.883-0.022-1.766-0.074-2.646-0.143
				c-0.438-0.035-0.874-0.078-1.311-0.124c-0.217-0.022-0.434-0.049-0.65-0.075c-0.145-0.018-0.289-0.035-0.432-0.055
				c0.271,0.037,0.267,0.036-0.016-0.004c-3.529-0.501-6.996-1.416-10.329-2.678c-0.394-0.148-0.786-0.307-1.176-0.466
				c-0.646-0.265,0.434,0.188-0.208-0.089c-0.193-0.082-0.385-0.168-0.577-0.253c-0.83-0.369-1.646-0.767-2.455-1.182
				c-1.546-0.795-3.044-1.683-4.495-2.638c-0.695-0.457-1.375-0.936-2.044-1.428c-0.168-0.123-0.335-0.248-0.5-0.373
				c-0.551-0.414,0.367,0.289-0.177-0.135c-0.383-0.299-0.758-0.604-1.13-0.913c-1.33-1.103-2.593-2.284-3.799-3.521
				c-1.207-1.236-2.34-2.546-3.408-3.903c-0.427-0.542,0.282,0.372-0.135-0.177c-0.125-0.166-0.249-0.332-0.373-0.499
				c-0.247-0.335-0.488-0.673-0.727-1.013c-0.518-0.738-1.01-1.494-1.486-2.26c-0.92-1.479-1.75-3.012-2.505-4.58
				c-0.182-0.379-0.357-0.76-0.528-1.143c-0.087-0.191-0.171-0.385-0.254-0.577c-0.278-0.641,0.179,0.438-0.087-0.208
				c-0.35-0.846-0.67-1.703-0.973-2.566c-0.584-1.677-1.065-3.389-1.463-5.119c-0.192-0.84-0.357-1.686-0.505-2.534
				c-0.075-0.427-0.14-0.856-0.204-1.285c-0.104-0.714,0.062,0.487-0.031-0.23c-0.038-0.289-0.069-0.578-0.102-0.868
				c-0.282-2.555-0.284-5.109-0.284-7.674c0-3.033,0-6.066,0-9.1c0-9.736,0-19.471,0-29.207c0-9.106,0-18.212,0-27.318
				c0-2.453,0-4.905,0-7.357C129.304,99.892,124.554,99.892,124.554,102.956z"/>
		</g>
	</g>
	<path fill="#E2BDA8" d="M118.664,150.819c0,0-0.822,2.897,0.802,4.328c5.122,4.513,4.958,11.111,4.958,11.111V154.5l-1.663-1.861
		L118.664,150.819z"/>
	<g>
		<path fill="#525865" d="M128.025,160.405c0.143-1.626-0.188-3.388-0.75-4.905c-1.252-3.373-4.024-5.633-7.492-6.492
			c-1.487-0.367-2.118,1.923-0.632,2.291c2.836,0.703,5.046,2.517,5.967,5.209c0.476,1.391,0.661,2.424,0.532,3.897
			C125.517,161.932,127.893,161.918,128.025,160.405L128.025,160.405z"/>
	</g>
	<path fill="#E2BDA8" d="M221.933,133.079c0,0-15.322-10.561-16.783-20.623c0,0-47.754,11.202-67.789,1.646
		c0,0-4.421-1.094-4.118-6.332c0.754-13.119,88.229-4.185,88.229-4.185S221.933,113.468,221.933,133.079z"/>
	<path fill="#525865" d="M226.625,131.583c0,0-18.354-14.508-18.742-23.985c0,0-51.839,11.799-72.73,1.741
		c0,0-1.319,15.8-11.694,20.301c0,0-4.125-15.079,3.398-26.685c7.523-11.606,97.447-5.222,97.447-5.222
		S232.215,118.624,226.625,131.583z"/>
	<g>
		<path fill="#525865" d="M139.656,135.602c0.193-0.109,0.39-0.209,0.588-0.308c0.246-0.124,0.496-0.242,0.745-0.358
			c0.158-0.073,0.316-0.145,0.475-0.215c0.167-0.074,0.84-0.357,0.086-0.041c1.964-0.825,4.009-1.46,6.091-1.91
			c0.583-0.125,1.171-0.23,1.761-0.321c0.135-0.021,0.27-0.04,0.404-0.059c-0.579,0.083,0.111-0.007,0.191-0.016
			c0.349-0.04,0.699-0.068,1.05-0.094c1.46-0.108,2.927-0.077,4.382,0.077c0.285,0.035,0.299,0.036,0.043,0.001
			c0.226,0.031,0.451,0.07,0.676,0.108c0.38,0.064,0.756,0.146,1.132,0.232c0.769,0.175,1.523,0.408,2.265,0.673
			c0.151,0.055,0.301,0.112,0.451,0.171c0.736,0.284-0.396-0.184,0.332,0.141c0.381,0.169,0.75,0.358,1.117,0.551
			c0.765,0.401,1.491,0.87,2.194,1.369c1.059,0.75,2.64,0.19,3.251-0.852c0.697-1.192,0.201-2.502-0.852-3.25
			c-5.588-3.962-12.499-4.678-19.086-3.427c-3.315,0.629-6.742,1.765-9.695,3.427c-1.126,0.635-1.498,2.147-0.851,3.25
			C137.068,135.879,138.527,136.236,139.656,135.602L139.656,135.602z"/>
	</g>
	<g>
		<path fill="#525865" d="M209.463,131.388c-2.907-1.636-6.25-2.73-9.503-3.39c-6.618-1.342-13.663-0.593-19.278,3.39
			c-1.053,0.748-1.549,2.059-0.852,3.25c0.611,1.043,2.191,1.603,3.25,0.852c0.636-0.451,1.291-0.867,1.973-1.248
			c0.363-0.204,0.738-0.389,1.115-0.568c0.148-0.07,0.298-0.137,0.448-0.203c-0.391,0.174,0.339-0.13,0.334-0.128
			c0.737-0.285,1.497-0.51,2.265-0.703c0.373-0.095,0.752-0.172,1.132-0.245c0.15-0.028,0.302-0.055,0.452-0.081
			c0.045-0.007,0.789-0.109,0.27-0.043c1.385-0.176,2.787-0.199,4.18-0.129c0.354,0.017,0.707,0.045,1.059,0.078
			c0.141,0.013,0.278,0.027,0.418,0.042c0.078,0.009,0.771,0.095,0.189,0.017c0.662,0.089,1.32,0.208,1.975,0.341
			c2.109,0.427,4.175,1.083,6.164,1.9c0.231,0.096,0.158,0.064-0.222-0.095c0.108,0.046,0.216,0.093,0.322,0.14
			c0.163,0.071,0.326,0.145,0.488,0.219c0.259,0.119,0.518,0.242,0.772,0.37c0.219,0.107,0.438,0.218,0.65,0.338
			c1.129,0.635,2.589,0.277,3.25-0.852C210.961,133.535,210.589,132.023,209.463,131.388L209.463,131.388z"/>
	</g>
	<ellipse fill="#525865" cx="151.649" cy="150.008" rx="4.899" ry="8.036"/>
	<ellipse fill="#525865" cx="195.073" cy="150.008" rx="4.899" ry="8.036"/>
	<g>
		<path fill="#525865" d="M168.052,174.26c0.987,2.486,3.697,3.869,6.213,4.221c2.239,0.313,4.446,0.016,6.296-1.355
			c0.921-0.682,1.796-1.563,2.345-2.58c0.728-1.348-1.323-2.547-2.052-1.199c-0.367,0.683-0.702,1.026-1.352,1.604
			c-1.323,1.179-2.985,1.388-4.69,1.225c-1.361-0.13-2.757-0.704-3.688-1.581c-0.161-0.15-0.309-0.315-0.45-0.484
			c-0.21-0.25,0.135,0.188-0.041-0.054c-0.061-0.083-0.115-0.171-0.172-0.257c-0.093-0.148-0.348-0.746-0.118-0.17
			c-0.239-0.601-0.786-1.016-1.462-0.828C168.309,172.957,167.813,173.658,168.052,174.26L168.052,174.26z"/>
	</g>
	<g>
		<path fill="#525865" d="M161.93,201.796c2.719,1.919,6.062,3.206,9.271,3.985c6.911,1.68,14.087,0.352,19.77-3.985
			c0.685-0.522,1.046-1.353,0.568-2.167c-0.396-0.676-1.479-1.092-2.167-0.567c-2.762,2.107-5.84,3.53-9.275,4.093
			c-2.744,0.449-5.575,0.176-8.241-0.472c-2.258-0.548-4.052-1.253-5.97-2.237c-0.807-0.414-1.616-0.859-2.359-1.384
			c-0.706-0.499-1.76-0.128-2.166,0.567C160.896,200.423,161.225,201.3,161.93,201.796L161.93,201.796z"/>
	</g>
	<path fill="#E2BDA8" d="M166.897,228.914c0,0,8.756,1.494,17.511,0v3.979c0,0-2.904,2.422-8.437,2.422
		c-5.391,0-9.074-2.422-9.074-2.422V228.914z"/>
	<path fill="#E2BDA8" d="M217.813,127.778v52.574c0,0-2.586,37.583-43.561,44.34c0,0,12.487,0.379,24.618-6.324
		c10.907-6.027,22.508-19.593,23.021-38.016v-50.512L217.813,127.778z"/>
	<path fill="#525865" d="M174.999,183.617c0,0-11.236-5.457-19.904,1.605c0,0,2.408,6.1,19.904,3.05c0,0-0.407-0.804-0.407-2.308
		C174.591,184.248,174.999,183.617,174.999,183.617z"/>
	<path fill="#525865" d="M176.308,183.617c0,0,11.235-5.457,19.903,1.605c0,0-2.408,6.1-19.903,3.05c0,0,0.407-0.804,0.407-2.308
		C176.715,184.248,176.308,183.617,176.308,183.617z"/>
</g>
</svg>
