<?xml version="1.0" encoding="utf-8"?>
<!-- Generator: Adobe Illustrator 16.0.0, SVG Export Plug-In . SVG Version: 6.00 Build 0)  -->
<!DOCTYPE svg PUBLIC "-//W3C//DTD SVG 1.1//EN" "http://www.w3.org/Graphics/SVG/1.1/DTD/svg11.dtd">
<svg version="1.1" id="Layer_1" xmlns="http://www.w3.org/2000/svg" xmlns:xlink="http://www.w3.org/1999/xlink" x="0px" y="0px"
	 width="350px" height="350px" viewBox="0 0 350 350" enable-background="new 0 0 350 350" xml:space="preserve">
<g>
	<g>
		
			<path fill="#9D432B" stroke="#443633" stroke-width="5" stroke-linecap="round" stroke-linejoin="round" stroke-miterlimit="10" d="
			M234.88,90.971c-4.785-21.71,14.575-57.451-20.549-52.973c-3.862,0.492-7.742,0.817-11.632,0.817H175h-27.699
			c-3.889,0-7.769-0.325-11.631-0.817c-35.125-4.478-15.765,31.263-20.549,52.973c-1.47,6.664-2.073,13.921-2.195,20.845
			c-0.303,17.219,12.505,31.311,28.288,31.311H175h33.785c15.785,0,28.593-14.092,28.29-31.311
			C236.953,104.893,236.349,97.635,234.88,90.971z"/>
		<g>
			
				<circle fill="#FFECE8" stroke="#443633" stroke-width="5" stroke-linecap="round" stroke-linejoin="round" stroke-miterlimit="10" cx="222.135" cy="96.273" r="10.627"/>
			
				<circle fill="#FFECE8" stroke="#443633" stroke-width="5" stroke-linecap="round" stroke-linejoin="round" stroke-miterlimit="10" cx="127.87" cy="96.273" r="10.627"/>
		</g>
		<g>
			<g>
				<path fill="#0065B3" d="M175,309.984c-15.97,0-31.592-0.776-45.179-2.246c-32.173-3.48-48.486-9.968-48.486-19.284v-22.951
					c0-33.687,18.225-64.932,47.562-81.541c13.992-7.931,29.935-12.124,46.104-12.124s32.111,4.193,46.104,12.125
					c7.357,4.159,14.131,9.311,20.129,15.308c17.69,17.676,27.433,41.198,27.433,66.232v22.951c0,9.316-16.313,15.804-48.487,19.284
					C206.593,309.208,190.97,309.984,175,309.984z"/>
				<g>
					<path fill="#443633" d="M175,174.239c16.327,0,31.659,4.295,44.92,11.813c7.207,4.075,13.806,9.108,19.614,14.917
						c16.522,16.509,26.729,39.331,26.729,64.534v22.951c0,8.397-19.795,14.025-46.344,16.897
						c-13.759,1.487-29.339,2.231-44.92,2.231c-15.58,0-31.161-0.744-44.92-2.231c-26.549-2.872-46.344-8.5-46.344-16.897v-22.951
						c0-34.078,18.669-63.784,46.344-79.451C143.341,178.534,158.673,174.239,175,174.239 M175,169.437
						c-16.582,0-32.935,4.301-47.288,12.437c-30.087,17.034-48.778,49.079-48.778,83.63v22.951c0,9.458,12.397,13.68,16.471,15.067
						c8.308,2.829,19.801,5.052,34.159,6.605c13.671,1.478,29.383,2.259,45.437,2.259c16.055,0,31.767-0.781,45.437-2.259
						c14.358-1.555,25.851-3.776,34.159-6.605c4.074-1.388,16.471-5.609,16.471-15.067v-22.951c0-25.676-9.992-49.801-28.137-67.932
						c-6.147-6.147-13.095-11.43-20.645-15.7C207.935,173.737,191.583,169.437,175,169.437L175,169.437z"/>
				</g>
			</g>
			
				<path fill="#FFECE8" stroke="#443633" stroke-width="5" stroke-linecap="round" stroke-linejoin="round" stroke-miterlimit="10" d="
				M195.273,182.667c0,8.05-40.539,8.05-40.539,0V146.44h40.539V182.667z"/>
			<path fill="#E0E0E0" d="M83.74,274.292v14.166c0,25.5,182.527,25.5,182.527,0v-14.166
				C266.268,299.793,83.74,299.793,83.74,274.292z"/>
			<g>
				<g>
					
						<line fill="none" stroke="#443633" stroke-width="5" stroke-linecap="round" stroke-linejoin="round" stroke-miterlimit="10" x1="114.841" y1="255.022" x2="114.841" y2="302.524"/>
					
						<line fill="none" stroke="#443633" stroke-width="5" stroke-linecap="round" stroke-linejoin="round" stroke-miterlimit="10" x1="235.159" y1="255.022" x2="235.159" y2="302.524"/>
				</g>
				<g>
					
						<path fill="none" stroke="#443633" stroke-width="5" stroke-linecap="round" stroke-linejoin="round" stroke-miterlimit="10" d="
						M122.824,252.004c0,0-11.22,0.862-15.967,8.785"/>
					
						<path fill="none" stroke="#443633" stroke-width="5" stroke-linecap="round" stroke-linejoin="round" stroke-miterlimit="10" d="
						M227.176,252.004c0,0,11.22,0.862,15.968,8.785"/>
				</g>
			</g>
			
				<path fill="#FFECE8" stroke="#443633" stroke-width="5" stroke-linecap="round" stroke-linejoin="round" stroke-miterlimit="10" d="
				M199.22,161.807h-48.426c-15.862,0-28.102-13.857-26.238-29.55c0.013-0.09,0.025-0.194,0.038-0.284l8.391-64.357
				c0.731-5.606,6.162-9.261,11.668-7.973c15.465,3.621,45.245,3.621,60.709,0c5.505-1.289,10.936,2.366,11.667,7.973l8.391,64.357
				c0.013,0.09,0.026,0.194,0.039,0.284C227.321,147.95,215.082,161.807,199.22,161.807z"/>
			<g>
				<g>
					
						<path fill="none" stroke="#DDC6B8" stroke-width="2" stroke-linecap="round" stroke-linejoin="round" stroke-miterlimit="10" d="
						M172.338,99.414c-0.97,7.167-3.085,13.583-6.721,18.999c-1.401,2.086-0.668,4.919,1.606,5.989l6.16,2.899
						c1.026,0.483,2.214,0.483,3.24,0l6.161-2.899c2.273-1.07,3.007-3.903,1.605-5.989c-3.637-5.416-5.75-11.832-6.721-18.999"/>
					<g>
						<g>
							
								<line fill="none" stroke="#443633" stroke-width="5" stroke-linecap="round" stroke-linejoin="round" stroke-miterlimit="10" x1="190.745" y1="92.377" x2="206.701" y2="92.377"/>
							<circle fill="#443633" cx="198.723" cy="103.874" r="4.46"/>
						</g>
						<g>
							
								<line fill="none" stroke="#443633" stroke-width="5" stroke-linecap="round" stroke-linejoin="round" stroke-miterlimit="10" x1="143.306" y1="92.377" x2="159.263" y2="92.377"/>
							<circle fill="#443633" cx="151.284" cy="103.874" r="4.46"/>
						</g>
					</g>
				</g>
				
					<path fill="#FFFFFF" stroke="#443633" stroke-width="2" stroke-linecap="round" stroke-linejoin="round" stroke-miterlimit="10" d="
					M175.107,148.302L175.107,148.302c-5.627,0-10.188-4.562-10.188-10.189v-0.161h20.377v0.161
					C185.296,143.741,180.734,148.302,175.107,148.302z"/>
			</g>
		</g>
		
			<path fill="#9D432B" stroke="#443633" stroke-width="5" stroke-linecap="round" stroke-linejoin="round" stroke-miterlimit="10" d="
			M169.181,43.208c-6.711,0-12.79,1.742-17.261,4.559c-2.91-2.817-6.869-4.559-11.239-4.559c-8.933,0-16.176,7.242-16.176,16.175
			s7.243,16.175,16.176,16.175c4.37,0,8.329-1.741,11.239-4.558c4.471,2.817,10.55,4.558,17.261,4.558
			c13.719,0,24.84-7.242,24.84-16.175S182.899,43.208,169.181,43.208z"/>
	</g>
	<path fill="none" stroke="#443633" stroke-width="2" stroke-linecap="round" stroke-linejoin="round" stroke-miterlimit="10" d="
		M132.62,61.456c0.442-3.295,4.146-5.316,7.468-5.161c3.32,0.154,6.335,1.869,9.277,3.417c2.941,1.547,6.164,3.01,9.463,2.6
		c3.681-0.457,6.633-3.116,9.78-5.08c3.147-1.964,7.467-3.211,10.391-0.929"/>
</g>
</svg>
