<?xml version="1.0" encoding="utf-8"?>
<!-- Generator: Adobe Illustrator 16.0.0, SVG Export Plug-In . SVG Version: 6.00 Build 0)  -->
<!DOCTYPE svg PUBLIC "-//W3C//DTD SVG 1.1//EN" "http://www.w3.org/Graphics/SVG/1.1/DTD/svg11.dtd">
<svg version="1.1" id="Layer_1" xmlns="http://www.w3.org/2000/svg" xmlns:xlink="http://www.w3.org/1999/xlink" x="0px" y="0px"
	 width="350px" height="350px" viewBox="0 0 350 350" enable-background="new 0 0 350 350" xml:space="preserve">
<g>
	<g>
		<ellipse fill="#C8ADA0" cx="223.893" cy="147.022" rx="13.057" ry="18.569"/>
		<g>
			<path fill="#525865" d="M208.46,147.022c0.036,7.417,3.021,16.362,10.237,19.734c3.385,1.58,7.002,1.512,10.39,0
				c3.23-1.441,5.733-4.425,7.354-7.491c3.928-7.441,3.828-17.037,0-24.486c-1.6-3.11-4.149-5.994-7.354-7.492
				c-3.384-1.58-7.002-1.511-10.39,0c-3.23,1.442-5.734,4.425-7.354,7.492C209.363,138.528,208.48,142.802,208.46,147.022
				c-0.015,3.063,4.735,3.063,4.751,0c0.018-3.785,0.832-7.422,2.65-10.602c0.209-0.367,0.438-0.723,0.672-1.074
				c0.115-0.173,0.236-0.34,0.358-0.508c0.398-0.552-0.294,0.359,0.125-0.166c0.532-0.666,1.131-1.278,1.771-1.841
				c0.145-0.125,0.292-0.244,0.44-0.363c-0.447,0.359,0.046-0.023,0.121-0.077c0.302-0.214,0.616-0.406,0.938-0.59
				c0.313-0.181,0.643-0.338,0.974-0.485c-0.56,0.249-0.004,0.014,0.1-0.025c0.225-0.081,0.455-0.148,0.684-0.213
				c0.343-0.098,0.693-0.166,1.046-0.224c-0.642,0.105-0.045,0.013,0.081,0.002c0.18-0.017,0.36-0.021,0.54-0.026
				c0.361-0.011,0.724,0.01,1.085,0.042c0.611,0.053-0.528-0.089,0.076,0.011c0.235,0.039,0.467,0.094,0.698,0.149
				c0.347,0.085,0.688,0.199,1.022,0.321c0.573,0.208-0.464-0.214,0.098,0.036c0.165,0.073,0.326,0.156,0.488,0.238
				c0.326,0.167,0.641,0.357,0.949,0.556c0.157,0.1,0.31,0.208,0.46,0.315c0.212,0.157,0.203,0.147-0.03-0.03
				c0.099,0.078,0.197,0.158,0.294,0.239c0.603,0.499,1.148,1.064,1.659,1.655c0.131,0.152,0.258,0.311,0.384,0.468
				c-0.334-0.419,0.082,0.122,0.12,0.175c0.286,0.397,0.549,0.812,0.801,1.23c0.452,0.749,0.836,1.536,1.186,2.337
				c-0.197-0.451,0.085,0.239,0.097,0.269c0.083,0.213,0.159,0.43,0.234,0.646c0.18,0.513,0.333,1.035,0.476,1.56
				c0.256,0.932,0.439,1.88,0.582,2.833c-0.068-0.458,0.037,0.35,0.038,0.353c0.026,0.249,0.048,0.5,0.067,0.75
				c0.049,0.592,0.069,1.187,0.078,1.781c0.014,1.018-0.043,2.035-0.146,3.048c-0.001,0.003-0.103,0.812-0.038,0.352
				c-0.035,0.243-0.075,0.484-0.117,0.726c-0.093,0.554-0.214,1.103-0.346,1.649c-0.219,0.904-0.503,1.792-0.829,2.664
				c-0.011,0.03-0.29,0.723-0.097,0.27c-0.087,0.204-0.181,0.406-0.272,0.608c-0.214,0.462-0.45,0.912-0.698,1.357
				c-0.207,0.37-0.433,0.73-0.664,1.086c-0.112,0.174-0.232,0.345-0.352,0.515c-0.037,0.053-0.449,0.599-0.12,0.175
				c-0.526,0.676-1.118,1.297-1.754,1.872c-0.142,0.128-0.288,0.251-0.435,0.372c-0.49,0.406,0.391-0.286-0.118,0.087
				c-0.298,0.22-0.612,0.418-0.931,0.607c-0.312,0.187-0.638,0.35-0.967,0.503c-0.555,0.259,0.473-0.183-0.098,0.036
				c-0.222,0.086-0.451,0.158-0.679,0.228c-0.341,0.103-0.691,0.178-1.042,0.243c-0.604,0.111,0.534-0.055-0.076,0.011
				c-0.181,0.02-0.361,0.028-0.54,0.037c-0.36,0.018-0.725,0.004-1.085-0.021c-0.123-0.008-0.729-0.092-0.081,0.002
				c-0.235-0.033-0.469-0.084-0.701-0.136c-0.348-0.078-0.69-0.186-1.028-0.302c-0.102-0.036-0.665-0.266-0.1-0.023
				c-0.167-0.071-0.329-0.15-0.492-0.229c-0.328-0.161-0.643-0.347-0.955-0.538c-0.158-0.098-0.311-0.203-0.464-0.308
				c-0.103-0.072-0.203-0.146-0.303-0.219c0.229,0.181,0.242,0.188,0.034,0.022c-0.607-0.488-1.158-1.043-1.675-1.625
				c-0.133-0.15-0.26-0.307-0.389-0.461c-0.427-0.521,0.279,0.381-0.125-0.166c-0.29-0.393-0.556-0.802-0.813-1.216
				c-0.496-0.804-0.918-1.652-1.293-2.518c0.195,0.45-0.086-0.239-0.098-0.27c-0.083-0.214-0.159-0.43-0.234-0.646
				c-0.181-0.513-0.333-1.035-0.478-1.56c-0.126-0.461-0.229-0.927-0.329-1.394c-0.049-0.237-0.092-0.476-0.135-0.715
				c-0.016-0.082-0.148-0.977-0.098-0.583c-0.143-1.089-0.198-2.187-0.203-3.283C213.195,143.959,208.445,143.958,208.46,147.022z"
				/>
		</g>
	</g>
	<g>
		<path fill="#B89787" d="M230.924,147.688c0,0,0.821,2.897-0.803,4.329c-5.12,4.513-4.958,11.11-4.958,11.11v-11.758l1.662-1.86
			L230.924,147.688z"/>
		<path fill="none" stroke="#525865" stroke-miterlimit="10" d="M230.924,147.688c0,0,0.821,2.897-0.803,4.329
			c-5.12,4.513-4.958,11.11-4.958,11.11v-11.758l1.662-1.86L230.924,147.688z"/>
	</g>
	<g>
		<path fill="#525865" d="M223.938,157.273c-0.13-1.482,0.072-2.494,0.531-3.896c0.885-2.694,3.158-4.514,5.969-5.21
			c1.485-0.367,0.855-2.658-0.633-2.29c-3.503,0.867-6.189,3.121-7.491,6.492c-0.58,1.502-0.892,3.289-0.751,4.904
			C221.694,158.787,224.071,158.8,223.938,157.273L223.938,157.273z"/>
	</g>
	<g>
		<path fill="#AFCBE6" d="M176.81,286.659c40.88,0,54.711-8.431,54.711-8.431s0.341-23.173-6.843-28.968
			c0,0-26.854-17.211-38.314-20.196h-9.419h-2.246h-10.582c-11.46,2.985-38.314,20.196-38.314,20.196
			c-7.183,5.795-6.842,28.968-6.842,28.968s18.474,8.431,59.354,8.431H176.81z"/>
		<g>
			<path fill="#525865" d="M176.81,289.033c14.507-0.007,29.31-0.844,43.445-4.331c3.126-0.771,6.233-1.688,9.214-2.914
				c1.21-0.497,3.368-1.108,4.102-2.36c0.597-1.017,0.326-2.742,0.299-3.858c-0.057-2.278-0.19-4.555-0.396-6.825
				c-0.527-5.785-1.377-11.861-4.027-17.104c-0.866-1.715-2.092-3.49-3.736-4.538c-1.006-0.64-2.017-1.271-3.029-1.899
				c-4.515-2.801-9.079-5.521-13.706-8.134c-5.439-3.072-10.969-6.019-16.733-8.44c-1.129-0.475-2.273-0.917-3.436-1.31
				c-0.87-0.293-1.78-0.63-2.706-0.63c-2.191,0-4.382,0-6.572,0c-3.19,0-6.38,0-9.57,0c-1.931,0-3.861,0-5.791,0
				c-1.031,0-2.178,0.516-3.139,0.854c-1.337,0.473-2.644,1.02-3.946,1.576c-5.647,2.415-11.063,5.387-16.398,8.416
				c-4.5,2.557-8.942,5.216-13.337,7.949c-0.894,0.556-1.785,1.115-2.672,1.682c-1.813,1.156-3.077,3.24-3.966,5.146
				c-2.491,5.345-3.281,11.414-3.77,17.233c-0.244,2.881-0.395,5.791-0.354,8.685c0.011,0.774,0.431,1.711,1.177,2.052
				c4.746,2.161,9.994,3.391,15.062,4.485c14.901,3.22,30.276,4.261,45.491,4.268c0-1.583,0-3.167,0-4.75c-0.502,0-1.004,0-1.505,0
				C173.747,284.283,173.747,289.033,176.81,289.033c0.501,0,1.003,0,1.505,0c3.062,0,3.062-4.749,0-4.75
				c-8.931-0.005-17.865-0.397-26.747-1.341c-0.885-0.095-1.769-0.195-2.652-0.301c-0.427-0.051-0.853-0.104-1.281-0.158
				c-0.21-0.025-0.421-0.054-0.631-0.08c-0.1-0.014-0.985-0.131-0.401-0.053c-1.625-0.219-3.246-0.461-4.865-0.725
				c-2.759-0.449-5.506-0.97-8.236-1.568c-3.525-0.774-7.029-1.683-10.454-2.826c-0.86-0.287-1.718-0.592-2.563-0.924
				c-0.299-0.117-1.183-0.491-0.102-0.033c-0.075-0.031-0.149-0.063-0.222-0.097c0.392,0.684,0.783,1.367,1.176,2.051
				c-0.047-3.269,0.146-6.556,0.453-9.808c0.063-0.666,0.134-1.331,0.213-1.995c0.04-0.339,0.082-0.679,0.127-1.019
				c-0.087,0.667-0.01,0.07,0.008-0.055c0.032-0.23,0.065-0.459,0.1-0.688c0.215-1.44,0.479-2.874,0.799-4.293
				c0.309-1.368,0.683-2.723,1.141-4.049c0.104-0.302,0.217-0.602,0.331-0.901c0.057-0.145,0.116-0.291,0.175-0.436
				c-0.256,0.629-0.052,0.125,0.003,0c0.258-0.586,0.547-1.156,0.865-1.71c0.14-0.242,0.289-0.478,0.441-0.712
				c0.104-0.158,0.673-0.911,0.18-0.279c0.337-0.432,0.715-0.828,1.125-1.189c0.356-0.312-0.566,0.391-0.19,0.15
				c0.126-0.082,0.254-0.162,0.379-0.242c1.231-0.779,2.468-1.549,3.707-2.313c4.732-2.917,9.519-5.748,14.377-8.452
				c2.766-1.539,5.56-3.031,8.393-4.442c1.322-0.659,2.656-1.296,4-1.906c0.602-0.272,1.207-0.537,1.813-0.796
				c-0.659,0.281,0.29-0.117,0.452-0.182c0.326-0.133,0.654-0.262,0.984-0.389c1.048-0.403,2.111-0.771,3.193-1.074
				c0.617-0.173-0.749-0.008,0.004-0.008c0.367,0,0.736,0,1.105,0c2.398,0,4.798,0,7.195,0c3.242,0,6.484,0,9.726,0
				c1.077,0,2.154,0,3.23,0c0.223,0,0.444,0,0.668,0c-0.494,0-0.614-0.092-0.14,0.041c0.282,0.078,0.564,0.164,0.845,0.254
				c1.139,0.359,2.254,0.785,3.359,1.234c0.145,0.059,0.289,0.118,0.435,0.178c0.515,0.214-0.499-0.212,0.021,0.009
				c0.301,0.128,0.602,0.259,0.9,0.391c0.676,0.298,1.349,0.605,2.018,0.919c9.811,4.586,19.176,10.221,28.338,15.979
				c0.384,0.241,0.768,0.483,1.151,0.728c0.068,0.043,0.136,0.087,0.205,0.13c-0.259-0.165-0.534-0.429-0.189-0.127
				c0.218,0.192,0.421,0.402,0.618,0.615c0.128,0.141,0.687,0.856,0.205,0.223c0.165,0.215,0.316,0.439,0.465,0.666
				c0.341,0.52,0.639,1.067,0.913,1.623c0.135,0.271,0.259,0.547,0.38,0.824c0.221,0.501-0.208-0.508,0,0.004
				c0.06,0.146,0.116,0.293,0.172,0.439c0.256,0.658,0.476,1.328,0.682,2.003c0.416,1.367,0.743,2.761,1.025,4.161
				c0.136,0.687,0.259,1.376,0.372,2.067c0.057,0.345,0.109,0.689,0.161,1.036c0.025,0.171,0.05,0.344,0.075,0.516
				c0.015,0.114,0.03,0.228,0.047,0.342c-0.047-0.345-0.052-0.384-0.017-0.117c0.334,2.572,0.539,5.163,0.662,7.755
				c0.077,1.629,0.131,3.265,0.107,4.896c0.393-0.684,0.785-1.367,1.176-2.051c-0.222,0.135-0.455,0.253-0.687,0.37
				c-0.294,0.146-0.592,0.287-0.891,0.422c-0.188,0.086-0.377,0.168-0.565,0.25c-0.519,0.224,0.38-0.158,0.195-0.082
				c-0.134,0.056-0.269,0.11-0.404,0.166c-3.072,1.246-6.278,2.165-9.498,2.945c-2.406,0.583-4.835,1.07-7.273,1.496
				c-1.449,0.254-2.903,0.479-4.359,0.688c-0.193,0.028-0.387,0.055-0.579,0.082c-0.093,0.013-0.752,0.103-0.154,0.021
				c-0.402,0.055-0.805,0.105-1.206,0.157c-0.908,0.114-1.815,0.22-2.724,0.32c-8.418,0.929-16.897,1.265-25.365,1.27
				C173.747,284.284,173.747,289.035,176.81,289.033z"/>
		</g>
	</g>
	<g>
		<path fill="#C8ADA0" d="M164.068,222.28v13.379c0,6.169,5.002,11.172,11.174,11.172l0,0c6.169,0,11.172-5.003,11.172-11.172
			V222.28H164.068z"/>
		<g>
			<path fill="#525865" d="M161.692,222.28c0,3.94,0,7.881,0,11.822c0,2.481,0.205,4.838,1.224,7.152
				c1.577,3.584,4.773,6.25,8.485,7.4c3.801,1.178,8.168,0.457,11.435-1.784c3.433-2.354,5.457-6.007,5.899-10.112
				c0.175-1.625,0.053-3.318,0.053-4.949c0-2.47,0-4.939,0-7.409c0-0.707,0-1.413,0-2.12c0-1.295-1.081-2.375-2.374-2.375
				c-7.381,0-14.761,0-22.14,0c-0.069,0-0.139,0-0.206,0c-3.063,0-3.063,4.75,0,4.75c7.38,0,14.759,0,22.139,0
				c0.068,0,0.138,0,0.207,0c-0.793-0.791-1.584-1.584-2.375-2.375c0,3.94,0,7.881,0,11.822c0,0.516,0,1.031,0,1.547
				c0,0.298-0.015,0.595-0.035,0.893c-0.004,0.065-0.098,0.779-0.018,0.234c-0.03,0.211-0.074,0.423-0.118,0.634
				c-0.087,0.416-0.208,0.824-0.342,1.229c-0.066,0.199-0.144,0.395-0.222,0.591c0.194-0.489-0.155,0.298-0.199,0.382
				c-0.188,0.371-0.408,0.726-0.637,1.073c-0.113,0.173-0.237,0.339-0.361,0.506c0.313-0.421-0.109,0.112-0.15,0.16
				c-0.271,0.313-0.567,0.603-0.869,0.884c-0.151,0.142-0.311,0.273-0.471,0.406c0.399-0.331-0.271,0.191-0.349,0.245
				c-0.345,0.235-0.708,0.441-1.074,0.638c-0.185,0.098-0.373,0.186-0.563,0.273c0.48-0.223-0.149,0.053-0.211,0.076
				c-0.398,0.148-0.807,0.264-1.22,0.365c-0.207,0.052-0.418,0.091-0.63,0.13c-0.279,0.045-0.284,0.048-0.012,0.011
				c-0.144,0.018-0.289,0.031-0.434,0.041c-0.443,0.041-0.885,0.041-1.329,0.026c-0.218-0.007-0.438-0.026-0.657-0.046
				c-0.715-0.062,0.474,0.086-0.228-0.032c-0.423-0.069-0.837-0.177-1.248-0.296c-0.203-0.059-0.402-0.129-0.602-0.199
				c-0.132-0.047-0.263-0.098-0.394-0.15c0.245,0.104,0.242,0.099-0.008-0.014c-0.378-0.175-0.741-0.382-1.098-0.598
				c-0.178-0.107-0.348-0.226-0.521-0.343c-0.052-0.036-0.589-0.456-0.179-0.128c-0.323-0.258-0.625-0.543-0.917-0.836
				c-0.146-0.146-0.284-0.3-0.421-0.454c-0.092-0.103-0.181-0.21-0.268-0.315c0.156,0.21,0.152,0.207-0.008-0.012
				c-0.249-0.334-0.467-0.688-0.675-1.045c-0.104-0.182-0.2-0.367-0.295-0.553c-0.029-0.056-0.31-0.688-0.104-0.196
				c-0.164-0.39-0.292-0.793-0.408-1.2c-0.062-0.204-0.108-0.412-0.155-0.62c-0.021-0.095-0.162-0.976-0.093-0.433
				c-0.089-0.707-0.077-1.418-0.077-2.127c0-4.14,0-8.278,0-12.418c0-0.051,0-0.102,0-0.152
				C166.443,219.217,161.692,219.217,161.692,222.28z"/>
		</g>
	</g>
	<path fill="#525865" d="M231.522,73.333c19.146,24.785,0.538,57.086,0.538,57.086l-113.005-1.966
		c-6.203-12.217-10.057-31.256-6.828-43.377c4.238-15.913,29.844-33.953,63.43-17.761C175.657,67.315,214.62,51.451,231.522,73.333z
		"/>
	<g>
		<ellipse fill="#C8ADA0" cx="125.284" cy="147.022" rx="13.057" ry="18.569"/>
		<g>
			<path fill="#525865" d="M135.965,147.022c-0.019,3.785-0.832,7.421-2.65,10.601c-0.21,0.366-0.438,0.723-0.673,1.074
				c-0.115,0.172-0.236,0.34-0.356,0.508c-0.398,0.551,0.295-0.359-0.126,0.166c-0.533,0.666-1.131,1.277-1.771,1.84
				c-0.145,0.127-0.293,0.246-0.439,0.364c0.447-0.359-0.047,0.023-0.123,0.078c-0.301,0.213-0.616,0.405-0.938,0.589
				c-0.314,0.181-0.641,0.338-0.973,0.486c0.56-0.25,0.003-0.015-0.101,0.023c-0.225,0.081-0.452,0.148-0.682,0.214
				c-0.344,0.098-0.695,0.166-1.048,0.224c0.643-0.105,0.044-0.012-0.081-0.002c-0.18,0.017-0.359,0.021-0.54,0.026
				c-0.362,0.011-0.724-0.01-1.082-0.042c-0.613-0.053,0.526,0.089-0.079-0.011c-0.233-0.039-0.466-0.094-0.697-0.15
				c-0.348-0.084-0.688-0.198-1.022-0.32c-0.575-0.209,0.463,0.214-0.098-0.036c-0.166-0.074-0.327-0.155-0.488-0.238
				c-0.327-0.166-0.641-0.357-0.949-0.556c-0.156-0.101-0.309-0.207-0.461-0.316c-0.212-0.157-0.201-0.146,0.03,0.031
				c-0.1-0.078-0.197-0.158-0.295-0.239c-0.601-0.5-1.146-1.063-1.656-1.656c-0.134-0.151-0.259-0.31-0.385-0.467
				c0.335,0.418-0.083-0.122-0.12-0.175c-0.287-0.397-0.548-0.812-0.801-1.23c-0.451-0.748-0.837-1.535-1.185-2.336
				c0.195,0.45-0.087-0.239-0.098-0.27c-0.083-0.214-0.159-0.43-0.234-0.646c-0.181-0.513-0.335-1.035-0.478-1.56
				c-0.254-0.931-0.437-1.88-0.58-2.834c0.069,0.459-0.038-0.349-0.038-0.352c-0.028-0.25-0.049-0.499-0.068-0.749
				c-0.049-0.593-0.069-1.188-0.077-1.782c-0.015-1.018,0.043-2.035,0.146-3.048c0-0.003,0.103-0.812,0.038-0.353
				c0.033-0.241,0.074-0.483,0.116-0.726c0.095-0.553,0.214-1.102,0.347-1.648c0.219-0.904,0.502-1.792,0.829-2.664
				c0.01-0.029,0.289-0.723,0.098-0.269c0.087-0.205,0.179-0.407,0.272-0.609c0.213-0.463,0.45-0.913,0.696-1.357
				c0.206-0.371,0.432-0.73,0.663-1.086c0.114-0.174,0.233-0.345,0.354-0.515c0.037-0.053,0.45-0.598,0.12-0.175
				c0.526-0.676,1.118-1.298,1.753-1.872c0.142-0.128,0.288-0.25,0.436-0.372c0.49-0.406-0.392,0.285,0.117-0.088
				c0.299-0.219,0.613-0.417,0.93-0.605c0.313-0.188,0.64-0.351,0.969-0.504c0.557-0.26-0.473,0.183,0.098-0.036
				c0.223-0.086,0.449-0.157,0.678-0.227c0.343-0.104,0.691-0.179,1.042-0.244c0.604-0.111-0.534,0.054,0.079-0.011
				c0.179-0.02,0.357-0.028,0.537-0.037c0.363-0.018,0.726-0.003,1.085,0.021c0.123,0.008,0.729,0.093,0.081-0.002
				c0.236,0.034,0.468,0.084,0.701,0.136c0.349,0.078,0.69,0.186,1.028,0.301c0.102,0.036,0.666,0.266,0.101,0.025
				c0.166,0.07,0.327,0.149,0.49,0.229c0.329,0.16,0.646,0.346,0.957,0.538c0.157,0.098,0.311,0.202,0.463,0.308
				c0.103,0.07,0.204,0.144,0.305,0.219c-0.232-0.182-0.244-0.189-0.035-0.023c0.607,0.488,1.158,1.043,1.674,1.625
				c0.135,0.15,0.262,0.306,0.39,0.461c0.427,0.521-0.278-0.381,0.126,0.166c0.289,0.393,0.555,0.802,0.812,1.216
				c0.497,0.804,0.917,1.652,1.295,2.519c-0.197-0.451,0.085,0.239,0.098,0.269c0.081,0.213,0.157,0.43,0.233,0.646
				c0.18,0.513,0.333,1.035,0.477,1.56c0.125,0.461,0.23,0.927,0.328,1.394c0.051,0.237,0.094,0.476,0.137,0.714
				c0.015,0.083,0.148,0.978,0.097,0.585C135.903,144.827,135.959,145.925,135.965,147.022c0.015,3.063,4.765,3.063,4.75,0
				c-0.035-7.418-3.021-16.364-10.237-19.735c-3.384-1.58-7.001-1.511-10.388,0c-3.232,1.442-5.735,4.425-7.354,7.492
				c-3.93,7.44-3.828,17.036,0,24.486c1.598,3.11,4.148,5.994,7.354,7.491c3.383,1.58,7,1.512,10.388,0
				c3.231-1.441,5.735-4.425,7.354-7.491c1.979-3.75,2.863-8.024,2.883-12.243C140.73,143.958,135.98,143.959,135.965,147.022z"/>
		</g>
	</g>
	<g>
		<path fill="#C8ADA0" d="M126.516,99.824v75.362c0,26.91,21.815,48.724,48.725,48.724l0,0c26.91,0,48.723-21.813,48.723-48.724
			V99.824H126.516z"/>
		<g>
			<path fill="#525865" d="M124.142,99.824c0,4.81,0,9.618,0,14.428c0,10.009,0,20.019,0,30.028c0,8.585,0,17.171,0,25.756
				c0,1.688,0,3.377,0,5.064c0,6.363,1.161,12.736,3.494,18.66c5.355,13.599,16.341,24.297,30.015,29.408
				c13.915,5.199,29.879,3.76,42.778-3.513c12.544-7.074,21.719-19.554,24.753-33.624c1.398-6.48,1.158-13.059,1.158-19.638
				c0-9.365,0-18.732,0-28.098c0-9.531,0-19.063,0-28.594c0-3.293,0-6.586,0-9.879c0-1.294-1.08-2.375-2.376-2.375
				c-3.906,0-7.813,0-11.72,0c-9.085,0-18.17,0-27.256,0c-10.308,0-20.619,0-30.929,0c-7.582,0-15.165,0-22.749,0
				c-1.597,0-3.195,0-4.794,0c-3.063,0-3.063,4.751,0,4.751c3.907,0,7.814,0,11.721,0c9.086,0,18.17,0,27.255,0
				c10.311,0,20.62,0,30.929,0c7.584,0,15.167,0,22.749,0c1.598,0,3.197,0,4.794,0c-0.791-0.792-1.583-1.584-2.375-2.376
				c0,4.81,0,9.618,0,14.428c0,10.009,0,20.019,0,30.028c0,8.585,0,17.171,0,25.756c0,1.688,0,3.377,0,5.064
				c0,0.844-0.02,1.688-0.061,2.531c-0.041,0.879-0.111,1.757-0.201,2.631c-0.043,0.435-0.097,0.869-0.151,1.303
				c0.069-0.547-0.027,0.166-0.035,0.229c-0.043,0.287-0.09,0.571-0.137,0.857c-0.577,3.507-1.565,6.941-2.897,10.237
				c-0.021,0.055-0.292,0.7-0.083,0.209c-0.083,0.194-0.168,0.386-0.253,0.579c-0.168,0.383-0.345,0.766-0.523,1.145
				c-0.387,0.822-0.802,1.627-1.233,2.426c-0.826,1.526-1.745,3.004-2.729,4.434c-0.235,0.342-0.478,0.68-0.722,1.016
				c-0.123,0.168-0.247,0.334-0.372,0.5c-0.034,0.047-0.454,0.596-0.132,0.18c-0.551,0.711-1.124,1.404-1.713,2.084
				c-1.131,1.305-2.338,2.543-3.6,3.723c-0.605,0.566-1.229,1.113-1.863,1.647c-0.317,0.269-0.641,0.529-0.964,0.789
				c-0.161,0.13-0.325,0.257-0.489,0.385c0.412-0.32-0.273,0.204-0.345,0.257c-1.39,1.037-2.841,1.992-4.332,2.876
				c-1.5,0.889-3.052,1.687-4.639,2.409c-0.191,0.086-0.384,0.172-0.575,0.256c-0.056,0.023-0.697,0.296-0.208,0.09
				c-0.388,0.164-0.78,0.32-1.172,0.472c-0.856,0.333-1.721,0.635-2.593,0.918c-1.693,0.55-3.421,0.993-5.164,1.354
				c-0.848,0.174-1.699,0.32-2.555,0.449c-0.062,0.01-0.775,0.109-0.229,0.036c-0.217,0.028-0.434,0.054-0.65,0.08
				c-0.507,0.062-1.016,0.11-1.524,0.154c-1.842,0.162-3.693,0.207-5.541,0.161c-0.885-0.021-1.768-0.073-2.647-0.143
				c-0.437-0.034-0.874-0.077-1.31-0.123c-0.218-0.023-0.435-0.05-0.652-0.076c-0.144-0.017-0.286-0.035-0.431-0.054
				c0.271,0.036,0.267,0.035-0.017-0.005c-3.528-0.5-6.994-1.414-10.327-2.678c-0.395-0.148-0.786-0.305-1.176-0.465
				c-0.647-0.266,0.433,0.188-0.208-0.088c-0.193-0.083-0.387-0.168-0.577-0.255c-0.829-0.368-1.647-0.767-2.455-1.183
				c-1.546-0.794-3.043-1.681-4.496-2.636c-0.694-0.458-1.374-0.937-2.045-1.428c-0.167-0.123-0.333-0.247-0.498-0.373
				c-0.551-0.415,0.366,0.288-0.178-0.136c-0.382-0.297-0.757-0.604-1.13-0.913c-1.329-1.103-2.594-2.283-3.799-3.521
				c-1.206-1.236-2.34-2.545-3.407-3.903c-0.427-0.542,0.28,0.372-0.135-0.177c-0.127-0.165-0.25-0.332-0.374-0.498
				c-0.247-0.335-0.489-0.674-0.726-1.014c-0.519-0.738-1.011-1.494-1.486-2.26c-0.921-1.479-1.75-3.012-2.506-4.58
				c-0.183-0.378-0.357-0.76-0.529-1.143c-0.086-0.191-0.171-0.385-0.254-0.576c-0.278-0.642,0.18,0.438-0.087-0.208
				c-0.351-0.847-0.671-1.704-0.972-2.566c-0.586-1.677-1.067-3.389-1.464-5.119c-0.193-0.84-0.358-1.686-0.506-2.534
				c-0.075-0.428-0.14-0.855-0.203-1.285c-0.104-0.715,0.06,0.486-0.032-0.23c-0.037-0.289-0.069-0.578-0.101-0.868
				c-0.283-2.554-0.286-5.11-0.286-7.675c0-3.032,0-6.066,0-9.099c0-9.736,0-19.471,0-29.207c0-9.105,0-18.212,0-27.318
				c0-2.452,0-4.904,0-7.357C128.891,96.762,124.142,96.762,124.142,99.824z"/>
		</g>
	</g>
	<g>
		<path fill="#B89787" d="M118.252,147.688c0,0-0.821,2.897,0.803,4.329c5.119,4.513,4.957,11.11,4.957,11.11v-11.758l-1.662-1.86
			L118.252,147.688z"/>
		<path fill="none" stroke="#525865" stroke-miterlimit="10" d="M118.252,147.688c0,0-0.821,2.897,0.803,4.329
			c5.119,4.513,4.957,11.11,4.957,11.11v-11.758l-1.662-1.86L118.252,147.688z"/>
	</g>
	<g>
		<path fill="#525865" d="M127.615,157.273c0.142-1.626-0.189-3.388-0.753-4.904c-1.252-3.374-4.023-5.634-7.491-6.492
			c-1.486-0.368-2.118,1.923-0.631,2.29c2.836,0.702,5.045,2.517,5.967,5.21c0.477,1.39,0.661,2.424,0.532,3.896
			C125.104,158.8,127.481,158.787,127.615,157.273L127.615,157.273z"/>
	</g>
	<g>
		<path fill="#B89787" d="M221.521,129.948c0,0-15.323-10.562-16.783-20.622c0,0-47.754,11.201-67.791,1.646
			c0,0-4.42-1.095-4.117-6.332c0.755-13.118,88.228-4.185,88.228-4.185S221.521,110.337,221.521,129.948z"/>
		<path fill="none" stroke="#525865" stroke-miterlimit="10" d="M221.521,129.948c0,0-15.323-10.562-16.783-20.622
			c0,0-47.754,11.201-67.791,1.646c0,0-4.42-1.095-4.117-6.332c0.755-13.118,88.228-4.185,88.228-4.185
			S221.521,110.337,221.521,129.948z"/>
	</g>
	<path fill="#525865" d="M226.213,128.453c0,0-18.355-14.509-18.742-23.986c0,0-51.838,11.801-72.73,1.741
		c0,0-1.934,17.021-8.296,23.985c0,0-7.524-18.763,0-30.369c7.522-11.605,97.446-5.222,97.446-5.222
		S231.802,115.492,226.213,128.453z"/>
	<g>
		<path fill="#525865" d="M139.243,132.471c0.193-0.109,0.391-0.209,0.589-0.309c0.247-0.124,0.496-0.241,0.745-0.358
			c0.158-0.073,0.316-0.144,0.476-0.215c0.167-0.074,0.841-0.357,0.085-0.041c1.966-0.824,4.01-1.461,6.093-1.91
			c0.583-0.126,1.171-0.229,1.761-0.321c0.134-0.021,0.27-0.04,0.402-0.059c-0.578,0.082,0.111-0.008,0.191-0.017
			c0.35-0.039,0.699-0.068,1.05-0.095c1.46-0.107,2.928-0.077,4.382,0.078c0.285,0.035,0.299,0.035,0.043,0.001
			c0.227,0.031,0.451,0.069,0.677,0.108c0.38,0.064,0.757,0.146,1.132,0.231c0.769,0.175,1.523,0.408,2.266,0.674
			c0.151,0.055,0.301,0.112,0.451,0.171c0.736,0.284-0.395-0.183,0.332,0.142c0.381,0.168,0.751,0.356,1.117,0.55
			c0.764,0.401,1.492,0.87,2.195,1.369c1.059,0.75,2.639,0.19,3.25-0.853c0.698-1.191,0.201-2.502-0.854-3.25
			c-5.585-3.962-12.497-4.678-19.083-3.428c-3.315,0.629-6.743,1.766-9.696,3.428c-1.127,0.635-1.498,2.146-0.853,3.25
			C136.655,132.747,138.116,133.105,139.243,132.471L139.243,132.471z"/>
	</g>
	<g>
		<path fill="#525865" d="M209.05,128.368c-2.904-1.636-6.247-2.73-9.503-3.39c-6.616-1.343-13.662-0.593-19.276,3.39
			c-1.054,0.748-1.55,2.059-0.853,3.25c0.611,1.043,2.192,1.603,3.25,0.853c0.636-0.451,1.292-0.867,1.973-1.249
			c0.364-0.204,0.738-0.388,1.115-0.567c0.148-0.069,0.298-0.138,0.449-0.203c-0.392,0.174,0.339-0.131,0.333-0.128
			c0.737-0.285,1.498-0.51,2.264-0.703c0.375-0.096,0.755-0.173,1.133-0.245c0.151-0.028,0.301-0.055,0.451-0.08
			c0.045-0.008,0.791-0.109,0.271-0.044c1.385-0.177,2.787-0.199,4.182-0.13c0.354,0.018,0.705,0.046,1.058,0.078
			c0.14,0.013,0.278,0.026,0.416,0.042c0.08,0.008,0.771,0.095,0.191,0.017c0.662,0.089,1.319,0.208,1.974,0.34
			c2.109,0.429,4.176,1.083,6.166,1.901c0.23,0.096,0.156,0.064-0.224-0.095c0.108,0.046,0.216,0.093,0.323,0.139
			c0.163,0.072,0.326,0.146,0.486,0.22c0.262,0.118,0.519,0.242,0.774,0.369c0.219,0.107,0.438,0.219,0.65,0.339
			c1.129,0.635,2.588,0.276,3.25-0.853C210.549,130.515,210.178,129.003,209.05,128.368L209.05,128.368z"/>
	</g>
	<ellipse fill="#525865" cx="151.237" cy="145.541" rx="4.9" ry="6.698"/>
	<ellipse fill="#525865" cx="194.661" cy="145.541" rx="4.899" ry="6.698"/>
	<g>
		<path fill="#525865" d="M167.64,171.13c0.988,2.484,3.695,3.867,6.213,4.219c2.24,0.313,4.445,0.017,6.296-1.354
			c0.921-0.683,1.796-1.563,2.345-2.581c0.729-1.348-1.322-2.548-2.051-1.199c-0.368,0.683-0.703,1.027-1.353,1.605
			c-1.323,1.178-2.985,1.386-4.689,1.224c-1.36-0.129-2.757-0.703-3.689-1.58c-0.161-0.151-0.31-0.316-0.45-0.484
			c-0.211-0.25,0.135,0.188-0.041-0.056c-0.06-0.082-0.115-0.169-0.172-0.256c-0.092-0.147-0.348-0.746-0.118-0.169
			c-0.239-0.602-0.786-1.016-1.461-0.829C167.897,169.826,167.401,170.527,167.64,171.13L167.64,171.13z"/>
	</g>
	<g>
		<path fill="#525865" d="M157.734,193.535c3.032,2.142,6.69,3.624,10.229,4.648c7.471,2.162,15.439,1.645,22.352-2.024
			c1.417-0.752,2.755-1.65,4.028-2.624c0.684-0.523,1.045-1.352,0.568-2.165c-0.396-0.676-1.479-1.096-2.168-0.568
			c-3.456,2.645-7.342,4.467-11.639,5.217c-3.4,0.592-6.93,0.357-10.262-0.371c-2.784-0.608-5.38-1.555-7.727-2.693
			c-1.269-0.615-2.519-1.295-3.688-2.088c-0.033-0.021-0.064-0.043-0.097-0.064c-0.706-0.5-1.759-0.129-2.166,0.568
			C156.702,192.161,157.031,193.038,157.734,193.535L157.734,193.535z"/>
	</g>
	<g>
		<path fill="#B89787" d="M166.487,225.452c0,0,8.754,1.494,17.509,0v4.32c0,0-2.905,1.375-8.437,1.375
			c-5.391,0-9.072-1.375-9.072-1.375V225.452z"/>
		<path fill="none" stroke="#525865" stroke-miterlimit="10" d="M166.487,225.452c0,0,8.754,1.494,17.509,0v4.32
			c0,0-2.905,1.375-8.437,1.375c-5.391,0-9.072-1.375-9.072-1.375V225.452z"/>
	</g>
	<g>
		<path fill="#B89787" d="M217.441,124.646v52.574c0,0-2.586,37.583-43.56,44.339c0,0,12.486,0.381,24.617-6.324
			c10.906-6.027,22.507-19.592,23.023-38.015v-50.513L217.441,124.646z"/>
		<path fill="none" stroke="#525865" stroke-miterlimit="10" d="M217.441,124.646v52.574c0,0-2.586,37.583-43.56,44.339
			c0,0,12.486,0.381,24.617-6.324c10.906-6.027,22.507-19.592,23.023-38.015v-50.513L217.441,124.646z"/>
	</g>
	<path fill="#525865" d="M168.785,108.013c0,0-8.096,4.081-4.921,14.284c0,0-7.256-5.555-3.401-12.811L168.785,108.013z"/>
	<path fill="#525865" d="M218.076,117.53c0,0,0.691,52.254-10.225,66.742c0,0,8.61-0.554,14.88-13.459v-52.096L218.076,117.53z"/>
	<path fill="#525865" d="M130.031,117.53c0,0-0.692,52.254,10.225,66.742c0,0-8.61-0.554-14.881-13.459v-52.096L130.031,117.53z"/>
</g>
</svg>
