<?xml version="1.0" encoding="utf-8"?>
<!-- Generator: Adobe Illustrator 16.0.0, SVG Export Plug-In . SVG Version: 6.00 Build 0)  -->
<!DOCTYPE svg PUBLIC "-//W3C//DTD SVG 1.1//EN" "http://www.w3.org/Graphics/SVG/1.1/DTD/svg11.dtd">
<svg version="1.1" id="Layer_1" xmlns="http://www.w3.org/2000/svg" xmlns:xlink="http://www.w3.org/1999/xlink" x="0px" y="0px"
	 width="350px" height="350px" viewBox="0 0 350 350" enable-background="new 0 0 350 350" xml:space="preserve">
<g>
	<linearGradient id="SVGID_1_" gradientUnits="userSpaceOnUse" x1="146.915" y1="273.1816" x2="152.3105" y2="273.1816">
		<stop  offset="0" style="stop-color:#C8C8C8"/>
		<stop  offset="1" style="stop-color:#FFFFFF"/>
	</linearGradient>
	<path fill="url(#SVGID_1_)" d="M146.915,274.385l3.88-2.24c0.506-0.079,1.011-0.161,1.516-0.248
		c-1.059,0.813-2.291,1.663-3.84,2.489c-0.049,0.025-0.09,0.051-0.138,0.076c-0.054,0-0.104-0.002-0.158-0.002l-0.101-0.025
		l-0.105,0.033L146.915,274.385z"/>
	<rect x="158.671" y="82.132" fill="#32303A" width="21.993" height="9.329"/>
	<g>
		<polygon fill="#F7CDB9" points="181.479,84.932 178.674,83.639 178.674,74.723 160.674,74.723 160.674,83.639 157.857,84.854 
			158.607,110.139 160.674,110.139 160.674,114.016 178.674,114.016 178.674,110.139 180.729,110.139 		"/>
		<polygon fill="#E3B9A5" points="160.674,74.723 160.674,80.405 178.674,83.048 178.674,74.723 		"/>
	</g>
	<g>
		<path fill="#2A2932" d="M166.4,174.554c0.006,0,6.736,0,6.736,0c0.006,0,24.447,0,24.447,0l-1.904,150.77h-19.745l-3.601-129.135
			c-0.006,0-5.117,0-5.117,0c-0.006,0-7.357,129.135-7.357,129.135h-19.744l1.845-150.77H166.4z"/>
		<path fill="#3C2415" d="M174.99,328.843c0,5.895,23.25,5.895,23.25,0s-4.376-8.416-11.625-8.416
			C179.367,320.427,174.99,322.948,174.99,328.843z"/>
		<path fill="#3C2415" d="M137.559,328.843c0,5.895,23.25,5.895,23.25,0s-4.377-8.416-11.625-8.416
			C141.935,320.427,137.559,322.948,137.559,328.843z"/>
	</g>
	<g>
		<g>
			<path fill="#FFFFFF" d="M157.607,84.991l0.67,2.512c1.156,3.315,4.124,8.738,11.17,8.738c7.948,0,10.98-6.903,11.921-9.895
				l0.361-1.355c14.64,5.5,10.147,51.349,10.147,51.349l0.093,38.081l-22.337,0.004l-23.537-0.004l0.613-38.081
				C146.709,136.34,142.967,90.491,157.607,84.991z"/>
			<polygon fill="#96281B" points="165.338,95.002 167.065,98.312 172.323,98.312 174.002,95.002 169.67,91.461 			"/>
			<path fill="#E6E7E8" d="M169.669,91.461l5.535,5.828l9.466-11.292c-0.016-0.009-5.907-2.942-5.907-2.942l-2.222,2.057
				L169.669,91.461z"/>
			<polygon fill="#E6E7E8" points="160.571,83.058 169.669,91.46 164.133,97.292 154.67,85.993 			"/>
			<polygon fill="#96281B" points="167.065,99.103 164.925,168.012 169.67,173.256 174.414,168.012 172.323,99.103 			"/>
		</g>
		<path fill="#32303A" d="M132.216,98.262c1.437-8.405,10.751-8.408,25.391-13.908c0,0,12.063,48.823,12.063,48.825
			c0-0.002,12.063-48.825,12.063-48.825c14.641,5.5,23.955,5.503,25.392,13.908c2.321,13.585-5.434,19.517-5.493,19.44
			c0,0-0.633,60.295,0.317,74.83l-30.028,0.004l-2.25-10.499l-2.25,10.499l-30.029-0.004c0.951-14.535,0.317-74.83,0.317-74.83
			C137.648,117.778,129.895,111.847,132.216,98.262z"/>
		<g>
			<g>
				<polygon fill="#4F4C4D" points="188.24,86.027 187.947,94.628 183.652,98.161 186.995,102.73 169.783,133.179 180.666,82.132 
									"/>
			</g>
			<g>
				<polygon fill="#4F4C4D" points="151.099,86.027 151.393,94.628 155.688,98.161 152.345,102.73 169.557,133.179 158.673,82.132 
									"/>
			</g>
		</g>
	</g>
	<g>
		<path fill="#686671" d="M195.17,143.26v-21.662c0-2.762-2.238-5-5-5h-8c-2.762,0-5,2.238-5,5v21.662c0,2.762,2.238,5,5,5h8
			C192.932,148.26,195.17,146.021,195.17,143.26z"/>
		<path fill="#C8C8C8" d="M178.67,146.01v-24.162c0-2.071,1.68-3.75,3.75-3.75h10.5c0.648,0,1.249,0.18,1.781,0.469
			c-0.636-1.167-1.858-1.969-3.281-1.969h-10.5c-2.07,0-3.75,1.679-3.75,3.75v24.162c0,1.423,0.802,2.646,1.969,3.281
			C178.85,147.259,178.67,146.658,178.67,146.01z"/>
		<path fill="#383643" d="M187.61,120.592L187.61,120.592c0-0.792-0.648-1.44-1.44-1.44l0,0c-0.792,0-1.439,0.648-1.439,1.44l0,0
			c0,0.792,0.647,1.439,1.439,1.439l0,0C186.962,122.031,187.61,121.384,187.61,120.592z"/>
	</g>
	<g>
		<g>
			<path fill="#F7CDB9" d="M135.839,203.835l-2.8-15.873l-8.863,1.563l2.8,15.874c0.554,3.138,2.985,5.331,5.433,4.899
				C134.856,209.866,136.393,206.974,135.839,203.835z"/>
			<path fill="#F7CDB9" d="M137.955,200.224c-0.489-5.602-5.711-9.098-5.933-9.244c-0.874-0.576-2.032-0.317-2.589,0.575
				c-0.557,0.892-0.303,2.077,0.568,2.654c0.07,0.048,3.896,2.655,4.219,6.341c0.092,1.059,1.003,1.843,2.035,1.752
				C137.287,202.212,138.049,201.282,137.955,200.224z"/>
		</g>
		<path fill="#32303A" d="M149.146,87.16c-11.396,3.555-19.589,4.581-20.813,11.739c-2.321,13.584-4.97,28.979-6.461,45.488
			c-0.508,21.521,1.438,48.35,1.438,48.35h11.79c0.066-0.111,0.294-17.188,0.734-36.273c2.16-13.904,3.182-20.048,3.24-20.124
			l12.656-40.244C151.539,95.689,150.174,89.628,149.146,87.16z"/>
	</g>
	<g>
		<g>
			<path fill="#F7CDB9" d="M191.354,129.759c0,0,3.53,0.394,6.271,0.597c0.682,0.041,1.364,0.082,2.003,0.121
				c0.633,0.019,1.223,0.037,1.729,0.053c0.994-0.004,1.658-0.007,1.658-0.007l0.263,11.247c0,0-0.831,0.003-2.079,0.009
				c-0.608-0.019-1.318-0.04-2.079-0.063c-0.745-0.045-1.54-0.093-2.335-0.141c-3.15-0.235-6.922-0.664-6.922-0.664
				c-2.423-0.317-3.913-3.14-3.4-6.19C186.982,131.644,189.178,129.476,191.354,129.759z"/>
			<path fill="#F7CDB9" d="M195.098,126.852c1.859,0.209,3.304,1.527,4.391,2.841c1.069,1.29,1.768,2.583,1.822,2.69
				c0.436,0.816,0.334,2.007-0.289,2.622c-0.619,0.609-1.508,0.444-1.932-0.403c-0.008-0.018-0.136-0.262-0.359-0.621
				c-0.223-0.359-0.541-0.834-0.93-1.311c-0.782-0.966-1.836-1.945-3.108-2.091c-0.734-0.083-1.226-0.983-1.099-2.011
				C193.723,127.541,194.395,126.771,195.098,126.852z"/>
		</g>
		<path fill="#32303A" d="M201.602,144.279c4.617,0,17.633,0.692,21.525-2.476c2.734-2.227,8.444-9.475,2.432-21.716
			c-4.996-10.17-13.143-19.385-20.771-26.584l-13.425,14.999c7.078,6.682,13.175,10.135,19.828,17.537
			c2.014,2.24,1.213,3.004,1.162,3.044c-1.064,0.867-7.494,0.386-11.711,0.047l-1.081,14.956
			C200.955,144.199,200.146,144.279,201.602,144.279z"/>
	</g>
	<g>
		<g>
			<path fill="#F7CDB9" d="M189.443,48.171l0.609-7.92c0-10.357-9.9-18.75-20.25-18.75c-10.357,0-20.25,8.393-20.25,18.75
				l0.608,7.912c-0.579,0.14-1.103,0.406-1.539,0.78c-0.81,0.689-1.319,1.71-1.319,2.857V55.7c0,2.063,1.66,3.735,3.727,3.748
				c0,9.781,11.752,19.053,18.773,19.053c7.021,0,18.772-9.271,18.772-19.052c2.059-0.015,3.724-1.685,3.724-3.747v-3.9
				C192.299,50.041,191.08,48.573,189.443,48.171z"/>
			<path opacity="0.8" fill="#F7CDB9" d="M189.443,48.171l0.609-7.92c0-10.357-9.9-18.75-20.25-18.75c-0.002,0-0.002,0-0.004,0
				v26.625c-2.735,5.817-4.5,14.25-4.5,14.25h4.5V78.5c0.001,0,0.002,0.001,0.002,0.001c0.002,0,0.003,0,0.004,0
				c7.021-0.003,18.771-9.271,18.771-19.052c2.059-0.015,3.724-1.685,3.724-3.747v-3.9C192.299,50.041,191.08,48.573,189.443,48.171
				z"/>
		</g>
		<path fill="#4F3C30" d="M169.801,16.736c-28.682,0-24.029,30.342-22.012,36.799c0.367,1.181,1.946,3.001,1.953,3.001
			c0.615,1.151-1.627,23.2,20.059,23.2c21.687,0,19.443-22.049,20.059-23.2c0.008,0,1.586-1.82,1.953-3.001
			C193.83,47.078,198.482,16.736,169.801,16.736z M187.414,55.89c0,2.46-1.513,6.103-3.658,7.717
			c-0.922,0.693-2.156,0.808-3.217,0.354c-1.79-0.766-5.788-1.451-10.738-1.451c-4.949,0-8.947,0.686-10.737,1.451
			c-1.062,0.453-2.294,0.339-3.217-0.354c-2.146-1.614-3.659-5.257-3.659-7.717V43.958c0,0,1.946,0.662,3.92,0.528
			c15.988-1.089,23.904-12.455,24.055-12.648c3.473-0.031,6.115,2.05,7.056,5.363L187.414,55.89z"/>
		<g>
			<g>
				<circle opacity="0.8" fill="#F7CDB9" cx="161.233" cy="51.808" r="2.962"/>
				<circle fill="#3C2417" cx="161.233" cy="51.058" r="2.962"/>
				<circle fill="#FFFFFF" cx="162.239" cy="51.633" r="0.74"/>
			</g>
			<g>
				<circle opacity="0.8" fill="#F7CDB9" cx="178.483" cy="51.808" r="2.962"/>
				<circle fill="#3C2417" cx="178.483" cy="51.058" r="2.962"/>
				<circle fill="#FFFFFF" cx="179.489" cy="51.633" r="0.74"/>
			</g>
		</g>
		<path fill="#F7CDB9" d="M164.783,68.285h9.809c0.31,0,0.466,0.384,0.236,0.592c-0.703,0.636-2.225,1.557-5.141,1.557
			s-4.438-0.921-5.141-1.557C164.317,68.669,164.474,68.285,164.783,68.285z"/>
	</g>
</g>
</svg>
