<?xml version="1.0" encoding="utf-8"?>
<!-- Generator: Adobe Illustrator 16.0.0, SVG Export Plug-In . SVG Version: 6.00 Build 0)  -->
<!DOCTYPE svg PUBLIC "-//W3C//DTD SVG 1.1//EN" "http://www.w3.org/Graphics/SVG/1.1/DTD/svg11.dtd">
<svg version="1.1" id="Layer_1" xmlns="http://www.w3.org/2000/svg" xmlns:xlink="http://www.w3.org/1999/xlink" x="0px" y="0px"
	 width="350px" height="350px" viewBox="0 0 350 350" enable-background="new 0 0 350 350" xml:space="preserve">
<g>
	<path d="M175.292,99.602c12.895,0,23.385-10.49,23.385-23.385c0-12.895-10.492-23.385-23.385-23.385
		c-12.895,0-23.386,10.491-23.386,23.385C151.907,89.112,162.397,99.602,175.292,99.602z"/>
	<path d="M138.423,171.338h73.731c4.801,0,8.693-3.893,8.693-8.695v-32.147c0-8.899-5.719-16.79-14.176-19.561l-0.039-0.013
		l-12.369-2.048c-1.053-0.324-2.178,0.233-2.557,1.272l-14.033,38.509c-0.811,2.221-3.953,2.221-4.762,0l-14.035-38.509
		c-0.306-0.839-1.097-1.364-1.945-1.364c-0.201,0-12.979,2.138-12.979,2.138c-8.526,2.841-14.223,10.746-14.223,19.683v32.042
		C129.729,167.446,133.621,171.338,138.423,171.338L138.423,171.338z"/>
	<path d="M281.924,230.669c-0.045-0.015-0.092-0.029-0.137-0.044l-6.695-2.053c-2.012-0.617-4.199-0.129-5.758,1.279l-14.432,13.047
		l-14.43-13.047c-1.559-1.409-3.746-1.898-5.76-1.279l-6.693,2.053c-0.045,0.015-0.092,0.029-0.139,0.044
		c-10.105,3.368-16.893,12.789-16.893,23.44v37.085c0,3.3,2.674,5.975,5.975,5.975h75.879c3.301,0,5.977-2.675,5.977-5.975v-37.085
		C298.818,243.458,292.029,234.037,281.924,230.669L281.924,230.669z"/>
	<path d="M254.902,224.45c13.756,0,24.945-11.189,24.945-24.944c0-13.754-11.189-24.945-24.945-24.945
		c-13.754,0-24.943,11.191-24.943,24.945C229.959,213.261,241.148,224.45,254.902,224.45L254.902,224.45z"/>
	<path d="M122.118,230.669c-0.046-0.015-0.091-0.029-0.137-0.044l-6.694-2.053c-2.013-0.619-4.2-0.13-5.759,1.279l-14.431,13.047
		l-14.431-13.047c-1.56-1.409-3.747-1.898-5.759-1.279c0,0-6.785,2.082-6.831,2.097c-10.104,3.368-16.894,12.789-16.894,23.44
		v37.085c0,3.3,2.675,5.975,5.975,5.975h75.88c3.3,0,5.975-2.675,5.975-5.975v-37.085
		C139.012,243.458,132.223,234.037,122.118,230.669z"/>
	<path d="M70.152,199.505c0,13.755,11.19,24.945,24.945,24.945c13.755,0,24.945-11.19,24.945-24.945
		c0-13.754-11.19-24.944-24.945-24.944C81.342,174.561,70.152,185.751,70.152,199.505z"/>
	<path d="M261.721,133.724c-2.045-0.612-4.348-0.196-6.066,1.316c-2.656,2.334-2.916,6.379-0.584,9.035l8.752,9.958
		c1.215,1.383,2.969,2.175,4.809,2.175c1.842,0,3.594-0.792,4.809-2.175l8.752-9.958c2.334-2.656,2.072-6.701-0.584-9.035
		c-1.98-1.742-4.736-2.036-6.977-0.971c-1.303-13.983-6.75-27.104-15.777-37.376c-2.334-2.655-6.379-2.917-9.035-0.583
		c-2.656,2.333-2.916,6.379-0.584,9.035C256.141,113.002,260.43,122.992,261.721,133.724z"/>
	<path d="M77.136,154.034c1.216,1.383,2.968,2.175,4.809,2.175c1.841,0,3.594-0.792,4.809-2.175l8.751-9.958
		c2.333-2.656,2.073-6.701-0.583-9.035c-1.721-1.512-4.022-1.928-6.066-1.316c1.291-10.732,5.579-20.721,12.484-28.578
		c2.333-2.655,2.073-6.701-0.583-9.035c-2.656-2.333-6.701-2.072-9.035,0.583c-9.026,10.272-14.475,23.393-15.778,37.375
		c-2.241-1.065-4.995-0.771-6.977,0.971c-2.656,2.334-2.917,6.379-0.583,9.035L77.136,154.034z"/>
	<path d="M180.104,109.241c-0.539-0.587-1.328-0.884-2.127-0.884h-5.953c-0.798,0-1.588,0.296-2.127,0.884
		c-0.835,0.911-0.956,2.226-0.363,3.253l3.183,4.798l-1.49,12.568l2.934,7.804c0.286,0.785,1.396,0.785,1.681,0l2.934-7.804
		l-1.488-12.568l3.182-4.798C181.061,111.467,180.939,110.152,180.104,109.241L180.104,109.241z"/>
</g>
</svg>
