<?xml version="1.0" encoding="utf-8"?>
<!-- Generator: Adobe Illustrator 16.0.0, SVG Export Plug-In . SVG Version: 6.00 Build 0)  -->
<!DOCTYPE svg PUBLIC "-//W3C//DTD SVG 1.1//EN" "http://www.w3.org/Graphics/SVG/1.1/DTD/svg11.dtd">
<svg version="1.1" id="Layer_1" xmlns="http://www.w3.org/2000/svg" xmlns:xlink="http://www.w3.org/1999/xlink" x="0px" y="0px"
	 width="350px" height="350px" viewBox="0 0 350 350" enable-background="new 0 0 350 350" xml:space="preserve">
<g>
	<path d="M125.55,135.169c21.366,0,38.749-17.382,38.749-38.749c0-21.366-17.383-38.749-38.749-38.749
		c-21.367,0-38.749,17.383-38.749,38.749C86.801,117.787,104.184,135.169,125.55,135.169z"/>
	<path d="M299.77,229.806c-0.203-0.625-0.887-2.102-2.842-2.34l-23.459-2.866c-5.813-0.711-10.758-4.303-13.229-9.61l-9.974-21.427
		l0,0c-0.832-1.786-2.448-1.979-3.106-1.979c-0.655,0.001-2.271,0.193-3.104,1.979l-9.976,21.426
		c-2.469,5.307-7.413,8.9-13.226,9.611l-23.462,2.866c-1.956,0.238-2.638,1.715-2.842,2.34c-0.202,0.624-0.519,2.22,0.924,3.563
		l17.294,16.109c4.286,3.991,6.175,9.805,5.053,15.552l-4.523,23.197c-0.377,1.935,0.816,3.04,1.348,3.426
		c0.532,0.385,1.953,1.178,3.675,0.223l20.665-11.471c2.56-1.422,5.367-2.131,8.174-2.131c2.809,0,5.617,0.709,8.177,2.131
		l20.665,11.471c1.725,0.957,3.143,0.163,3.675-0.223c0.53-0.386,1.726-1.491,1.348-3.426l-4.524-23.198
		c-1.121-5.748,0.768-11.563,5.053-15.551l17.297-16.107C300.289,232.027,299.973,230.43,299.77,229.806L299.77,229.806z"/>
	<path d="M181.787,225.659c2.047-6.301,7.403-10.713,13.978-11.515l5.27-0.644v-27.142c0-14.746-9.476-27.822-23.489-32.412
		l-0.064-0.021l-20.496-3.393c-1.744-0.537-3.608,0.387-4.236,2.107l-23.254,63.807c-1.342,3.681-6.548,3.681-7.889,0L98.35,152.641
		c-0.506-1.39-1.818-2.261-3.223-2.261c-0.333,0-21.507,3.542-21.507,3.542c-14.128,4.707-23.567,17.803-23.567,32.613v53.094
		c0,7.955,6.45,14.405,14.406,14.405h122.169c3.146,0,6.053-1.01,8.42-2.724l-8.719-8.12
		C181.48,238.676,179.74,231.957,181.787,225.659L181.787,225.659z"/>
	<path d="M133.956,148.971c-0.89-0.968-2.189-1.456-3.503-1.456h-9.805c-1.315,0-2.614,0.487-3.503,1.456
		c-1.376,1.5-1.576,3.665-0.599,5.358l5.241,7.902l-2.454,20.7l4.832,12.854c0.471,1.292,2.3,1.292,2.771,0l4.832-12.854
		l-2.454-20.7l5.241-7.902C135.532,152.637,135.332,150.472,133.956,148.971z"/>
</g>
</svg>
