<?xml version="1.0" encoding="utf-8"?>
<!-- Generator: Adobe Illustrator 16.0.0, SVG Export Plug-In . SVG Version: 6.00 Build 0)  -->
<!DOCTYPE svg PUBLIC "-//W3C//DTD SVG 1.1//EN" "http://www.w3.org/Graphics/SVG/1.1/DTD/svg11.dtd">
<svg version="1.1" id="Layer_1" xmlns="http://www.w3.org/2000/svg" xmlns:xlink="http://www.w3.org/1999/xlink" x="0px" y="0px"
	 width="350px" height="350px" viewBox="0 0 350 350" enable-background="new 0 0 350 350" xml:space="preserve">
<g>
	<path d="M196.556,134.964c0-11.886-9.67-21.556-21.556-21.556c-11.886,0-21.556,9.67-21.556,21.556
		c0,11.886,9.67,21.556,21.556,21.556C186.886,156.521,196.556,146.851,196.556,134.964z"/>
	<path d="M265.295,124.115h-15.1c-1.184-3.551-2.622-7.017-4.303-10.373l10.682-10.682c2.737-2.737,2.737-7.175,0-9.913
		l-25.539-25.54c-2.737-2.736-7.175-2.736-9.913,0L210.44,78.292c-3.356-1.682-6.822-3.12-10.371-4.303v-15.1
		c0-3.871-3.139-7.009-7.01-7.009h-36.119c-3.871,0-7.009,3.138-7.009,7.009v15.1c-3.549,1.184-7.015,2.622-10.371,4.303
		l-10.684-10.681c-2.736-2.736-7.174-2.735-9.912,0l-25.54,25.539c-1.314,1.315-2.053,3.098-2.053,4.957s0.739,3.641,2.053,4.956
		l10.683,10.682c-1.682,3.356-3.12,6.822-4.303,10.373H84.705c-3.871,0-7.009,3.138-7.009,7.009v36.118
		c0,3.871,3.138,7.009,7.009,7.009h15.1c1.184,3.55,2.622,7.016,4.303,10.372l-10.682,10.682c-1.314,1.315-2.053,3.098-2.053,4.957
		s0.739,3.641,2.053,4.955l25.54,25.54c2.737,2.735,7.175,2.735,9.913,0l0.91-0.91l-0.175-0.267
		c-1.359-2.069-2.074-4.467-2.074-6.937v-37.549c0-6.334,1.996-12.305,5.478-17.224c-2.554-5.714-3.986-12.037-3.986-18.689
		c0-25.348,20.622-45.971,45.97-45.971c25.349,0,45.97,20.623,45.97,45.971c0,6.634-1.424,12.94-3.965,18.641
		c3.47,4.897,5.457,10.849,5.457,17.172v37.647c0,2.471-0.716,4.867-2.071,6.932l-0.18,0.271l0.911,0.911
		c2.736,2.734,7.173,2.735,9.912,0l25.54-25.54c1.314-1.314,2.053-3.097,2.053-4.955c0-1.859-0.738-3.642-2.053-4.957
		l-10.684-10.682c1.682-3.356,3.121-6.823,4.304-10.373h15.099c3.872,0,7.01-3.138,7.01-7.009v-36.118
		C272.304,127.253,269.166,124.115,265.295,124.115L265.295,124.115z"/>
	<path d="M198.676,166.967l-0.037-0.011l-6.151-1.888c-0.971-0.299-1.896,0.263-2.356,1.172
		c-2.777,5.483-9.189,15.704-12.937,20.905c-1.273,1.769-3.106,1.763-4.388,0c-3.782-5.201-10.16-15.422-12.937-20.905
		c-0.372-0.734-1.012-1.258-1.793-1.258c-0.186,0-6.708,1.971-6.708,1.971c-7.859,2.619-13.11,9.904-13.11,18.143v37.55
		c0,0.372,0.109,0.736,0.313,1.048l13.499,20.543v51.976c0,1.055,0.855,1.91,1.911,1.91h42.038c1.056,0,1.91-0.855,1.91-1.91
		v-51.976l13.499-20.543c0.205-0.312,0.313-0.675,0.313-1.048v-37.647C211.742,176.795,206.471,169.52,198.676,166.967
		L198.676,166.967z"/>
</g>
</svg>
