<?xml version="1.0" encoding="utf-8"?>
<!-- Generator: Adobe Illustrator 16.0.0, SVG Export Plug-In . SVG Version: 6.00 Build 0)  -->
<!DOCTYPE svg PUBLIC "-//W3C//DTD SVG 1.1//EN" "http://www.w3.org/Graphics/SVG/1.1/DTD/svg11.dtd">
<svg version="1.1" id="Capa_1" xmlns="http://www.w3.org/2000/svg" xmlns:xlink="http://www.w3.org/1999/xlink" x="0px" y="0px"
	 width="350px" height="350px" viewBox="0 0 350 350" enable-background="new 0 0 350 350" xml:space="preserve">
<path d="M299.651,73.581l-9.206-24.689c-0.489-1.311-1.61-2.283-2.978-2.58c-1.37-0.297-2.791,0.121-3.78,1.109l-16.446,16.447
	l-0.964-0.964c-1.605-1.604-4.208-1.604-5.813,0c-15.664,15.665-38.702,21.842-60.134,16.118c-0.024-0.006-0.05-0.009-0.075-0.015
	c-0.123-0.031-0.249-0.055-0.375-0.074c-0.047-0.007-0.093-0.015-0.14-0.021c-0.156-0.018-0.313-0.03-0.471-0.03
	c-0.022,0-0.045,0.002-0.066,0.003c-0.138,0.002-0.276,0.012-0.413,0.028c-0.051,0.006-0.102,0.014-0.151,0.022
	c-0.117,0.018-0.233,0.042-0.35,0.07c-0.04,0.01-0.082,0.019-0.123,0.03c-0.156,0.043-0.31,0.094-0.461,0.156
	c-0.162,0.069-0.3,0.138-0.436,0.213c-0.037,0.021-0.073,0.043-0.11,0.066c-0.107,0.064-0.211,0.133-0.313,0.208
	c-0.037,0.026-0.072,0.051-0.108,0.08c-0.13,0.101-0.256,0.208-0.375,0.328l-4.844,4.844l-0.965-0.964
	c-0.784-0.784-1.865-1.225-2.961-1.203c-1.109,0.015-2.166,0.477-2.929,1.282l-128.881,136c-7.746,8.173-7.569,21.301,0.393,29.264
	l48.383,48.383c4.054,4.054,9.445,6.09,14.841,6.09c5.203-0.001,10.411-1.895,14.423-5.697l135.999-128.882
	c0.805-0.763,1.268-1.818,1.282-2.928c0.015-1.109-0.419-2.178-1.203-2.961l-0.965-0.964l4.845-4.844
	c1.037-1.037,1.442-2.548,1.063-3.966c-5.721-21.429,0.455-44.47,16.118-60.133c0.771-0.771,1.204-1.816,1.204-2.907
	c0-1.09-0.434-2.135-1.204-2.907l-0.963-0.964l8.705-8.705C299.845,76.786,300.214,75.089,299.651,73.581z M61.752,225.699
	l114.664-120.998l9.69,9.691l-56.022,59.117c-1.562,1.648-1.491,4.25,0.156,5.811c0.795,0.753,1.812,1.127,2.827,1.127
	c1.088,0,2.175-0.43,2.984-1.283l55.871-58.957l41.741,41.741L103.651,285.155L68.714,250.22l56.026-59.121
	c1.562-1.648,1.491-4.25-0.156-5.812c-1.647-1.561-4.248-1.491-5.811,0.156l-55.875,58.961l-0.908-0.908
	C57.148,238.653,57.041,230.669,61.752,225.699z M128.171,292.119c-4.97,4.71-12.955,4.604-17.797-0.24l-0.908-0.908
	l130.011-123.208l9.69,9.691L128.171,292.119z M266.328,153.336l-3.201,3.201l-57.075-57.076c-1.605-1.605-4.208-1.605-5.813,0
	c-1.605,1.605-1.605,4.208,0,5.813l60.866,60.866l-5.969,5.656l-73.063-73.064l5.655-5.969l0.886,0.886
	c0.1,0.101,0.204,0.194,0.312,0.282c0.754,0.614,1.675,0.922,2.595,0.922s1.841-0.308,2.594-0.922
	c0.108-0.088,0.212-0.182,0.313-0.282l6.108-6.108c22.243,5.136,45.747-0.895,62.749-16.005l1.051,1.05
	c0,0,16.938,16.938,16.938,16.938c0.021,0.021,1.061,1.061,1.061,1.061C267.223,107.587,261.194,131.09,266.328,153.336z
	 M284.189,80.816l-11.136-11.136l11.924-11.924l6.049,16.222L284.189,80.816z"/>
</svg>
