<?xml version="1.0" encoding="utf-8"?>
<!-- Generator: Adobe Illustrator 16.0.0, SVG Export Plug-In . SVG Version: 6.00 Build 0)  -->
<!DOCTYPE svg PUBLIC "-//W3C//DTD SVG 1.1//EN" "http://www.w3.org/Graphics/SVG/1.1/DTD/svg11.dtd">
<svg version="1.1" id="Layer_1" xmlns="http://www.w3.org/2000/svg" xmlns:xlink="http://www.w3.org/1999/xlink" x="0px" y="0px"
	 width="350px" height="350px" viewBox="0 0 350 350" enable-background="new 0 0 350 350" xml:space="preserve">
<g>
	<path fill="#EDB47B" d="M175.016,158.976c3.297-0.305,7.217-1.984,6.659-6.737c-0.306-2.578-2.404-5.76-9.151-5.301
		c-11.477,0.761-18.702,2.398-35.591,3.728c-10.104,0.797-40.893,3.063-49.353,2.377c-1.971,2.678-0.759,8.7-2.723,11.384
		c9.271,0.292,33.753-1.681,46.377-1.978C144.907,162.125,165.758,159.825,175.016,158.976z"/>
	<path fill="#D9D9D9" d="M178.811,238.1c-12.188,2.652-24.793,11.986-31.959,24.693c-4.846,8.593-3.876,22.387-3.177,29.479
		c-4.064,0.019-6.228-0.286-10.294-0.748c-1.272-10.875-2.024-25.677,6.082-37.979c8.556-12.99,20.031-22.758,32.79-26.002
		c0,0,8.146-2.229,9.705,3.35C183.634,236.895,178.811,238.1,178.811,238.1z"/>
	<path fill="#2D3742" d="M118.209,296.857c-0.018,3.848,3.089,6.984,6.938,7.002l14.864,0.382c3.849,0.02,6.985-3.088,7.002-6.938
		l0,0c0.019-3.851-3.086-6.985-6.937-7.002l-14.865-0.383C121.362,289.901,118.228,293.008,118.209,296.857L118.209,296.857z"/>
	<path fill="#E6E6E6" d="M173.709,224.788c0,9.41,5.66,17.04,12.647,17.04h16.389c6.984,0,12.647-7.63,12.647-17.04l7.236-68.698
		c0-9.41-7.629-13.961-17.04-13.961h-22.077c-9.411,0-17.04,7.629-17.04,17.04L173.709,224.788z"/>
	<path fill="#D9D9D9" d="M172.732,215.937l0.977,8.852c0,9.41,5.66,17.04,12.647,17.04h16.389c6.984,0,12.647-7.63,12.647-17.04
		l0.933-8.852H172.732z"/>
	<path fill="#EDB47B" d="M187.181,143.81c0,4.071,3.298,7.371,7.369,7.371l0,0c4.072,0,7.373-3.3,7.373-7.371v-21.191
		c0-4.071-3.301-7.372-7.373-7.372l0,0c-4.071,0-7.369,3.301-7.369,7.372V143.81z"/>
	<g>
		<path fill="#FFC489" d="M147.015,106.769c0,17.486,14.174,31.66,31.656,31.66l0,0c17.487,0,31.66-14.174,31.66-31.66V82.492
			c0-17.484-14.173-31.659-31.66-31.659l0,0c-17.482,0-31.656,14.174-31.656,31.659V106.769z"/>
		<path fill="#523416" d="M180.471,93.959c0,1.755,1.422,3.176,3.176,3.176l0,0c1.755,0,3.18-1.421,3.18-3.176v-4.077
			c0-1.754-1.425-3.177-3.18-3.177l0,0c-1.754,0-3.176,1.422-3.176,3.177V93.959z"/>
		<path fill="#523416" d="M153.001,93.959c0,1.755,1.422,3.176,3.178,3.176l0,0c1.755,0,3.176-1.421,3.176-3.176v-4.077
			c0-1.754-1.421-3.177-3.176-3.177l0,0c-1.756,0-3.178,1.422-3.178,3.177V93.959z"/>
		<path fill="#ED997B" d="M162.688,110.727c0,1.747,1.416,3.163,3.162,3.163l0,0c1.747,0,3.163-1.416,3.163-3.163v-4.515
			c0-1.746-1.416-3.163-3.163-3.163l0,0c-1.746,0-3.162,1.417-3.162,3.163V110.727z"/>
		<path fill="none" stroke="#523416" stroke-linecap="round" stroke-linejoin="round" stroke-miterlimit="10" d="M175.071,129.932
			c1.1,0.154,2.249,0.075,3.377-0.292c2.851-0.93,4.759-3.4,5.127-6.186c-0.205,0.063-0.409,0.119-0.611,0.184"/>
		<path fill="#523416" d="M201.923,96.984c0,1.282,1.037,2.32,2.318,2.32l0,0c1.282,0,2.318-1.038,2.318-2.32V76.173
			c0-1.281-1.036-2.32-2.318-2.32l0,0c-1.281,0-2.318,1.039-2.318,2.32V96.984z"/>
		<path fill="#523416" d="M213.73,96.2c0,0-9.076,0.995-9.703-8.915c-0.629-9.911-19.396-21.086-38.375-13.074
			s-31.84-1.053-29.731-18.766c0,0,4.427,5.904,13.495-0.633c6.864-4.948,26.487-17.657,47.232-6.148
			C217.237,60.085,217.313,77.491,213.73,96.2z"/>
		<path fill="#FFC489" d="M206.56,99.775c0,2.949,2.39,5.338,5.34,5.338l0,0c2.95,0,5.338-2.389,5.338-5.338v-7.151
			c0-2.948-2.388-5.338-5.338-5.338l0,0c-2.95,0-5.34,2.391-5.34,5.338V99.775z"/>
	</g>
	<path fill="#D9D9D9" d="M268.898,297.486c3.085-1.686,5.563-3.644,4.242-6.148l-56.332-63.286
		c-2.024-3.84-6.841-5.275-10.736-3.145l0,0c-3.894,2.127-5.289,6.964-3.146,10.734l62.038,60.373L268.898,297.486z"/>
	<path fill="#2D3742" d="M277.977,297.441c0.167,4.07-3.001,7.508-7.069,7.673l-15.606,0.899c-4.075,0.163-7.509-3.001-7.677-7.073
		l0,0c-0.162-4.07,3.004-7.504,7.074-7.671l15.606-0.898C274.378,290.206,277.811,293.373,277.977,297.441L277.977,297.441z"/>
	<g>
		<g>
			<path fill="#EDB47B" d="M86.101,168.296c5.089-0.734,8.62-5.453,7.887-10.54l0,0c-0.731-5.09-5.452-8.622-10.54-7.889
				l-2.633,0.381c-5.086,0.731-3.355,4.692-2.621,9.781l-0.879,0.126c0.733,5.087,1.066,9.25,6.153,8.519L86.101,168.296z"/>
		</g>
		<path fill="#EDB47B" d="M73.987,161.478c-0.796,1.517-0.206,3.398,1.319,4.195l4.795,2.606c1.524,0.792,3.4,0.202,4.196-1.317l0,0
			c0.797-1.524,0.211-3.403-1.313-4.199l-4.8-2.605C76.663,159.359,74.781,159.952,73.987,161.478L73.987,161.478z"/>
		<path fill="#EDB47B" d="M78.336,161.344c0.95,0.901,2.454,0.857,3.356-0.098l2.91-2.981c0.899-0.955,0.854-2.455-0.096-3.354l0,0
			c-0.954-0.902-2.455-0.862-3.356,0.092l-2.911,2.983C77.339,158.938,77.381,160.445,78.336,161.344L78.336,161.344z"/>
		<path fill="#EDB47B" d="M73.742,156.993c-1.284,0.388-2.01,1.749-1.619,3.036l1.174,4.105c0.394,1.286,1.751,2.01,3.036,1.622l0,0
			c1.287-0.392,2.014-1.749,1.622-3.035l-1.176-4.107C76.391,157.327,75.028,156.6,73.742,156.993L73.742,156.993z"/>
		<path fill="#EDB47B" d="M73.672,151.869c0.035,1.31,1.128,2.342,2.44,2.305l8.967-0.25c1.312-0.037,2.342-1.129,2.307-2.438l0,0
			c-0.036-1.313-1.126-2.346-2.438-2.309l-8.969,0.25C74.668,149.462,73.632,150.557,73.672,151.869L73.672,151.869z"/>
		<path fill="#EDB47B" d="M79.862,162.577c1.232-0.443,1.873-1.805,1.426-3.04l-3.043-8.438c-0.446-1.234-1.805-1.871-3.038-1.428
			l0,0c-1.235,0.445-1.875,1.803-1.429,3.038l3.044,8.441C77.264,162.384,78.629,163.025,79.862,162.577L79.862,162.577z"/>
	</g>
	<g>
		<path fill="#FFC489" d="M216.579,147.622c23.895-4.487,45.798,12.197,47.213,37.957c0.672,12.189-3.198,24.154-10.068,33.892
			c-3.002-1.659-5.951-3.402-8.867-5.199c5.603-7.553,8.795-16.992,8.265-26.615c-1.078-19.604-17.163-32.538-35.929-28.887
			c-2.938,0.572-5.457-1.49-5.625-4.559C211.398,151.144,213.639,148.175,216.579,147.622z"/>
		<path fill="#FFC489" d="M247.959,219.145c0.557-0.814,0.348-1.924-0.47-2.48l-5.574-3.802c-0.813-0.557-1.923-0.345-2.478,0.468
			l0,0c-0.557,0.815-0.349,1.928,0.47,2.48l5.571,3.804C246.294,220.169,247.403,219.958,247.959,219.145L247.959,219.145z"/>
		<path fill="#FFC489" d="M239.033,217.634l1.565-2.302c-1.224-0.375-1.968-0.82-1.161-2.002c2.51-3.682,6.706-6.124,10.657-4.848
			c0.243,0.077,0.463,0.188,0.668,0.313c1.168,0.184,2.313,0.612,3.354,1.322c3.493,2.382,4.569,6.979,2.643,10.632
			c-0.057,0.141-0.126,0.279-0.214,0.411l-0.258,0.375c-0.003,0.005-0.005,0.011-0.01,0.016l-1.323,1.943
			c-0.004,0.005-0.009,0.009-0.013,0.015l-2.314,3.397c-0.643,0.937-1.921,1.18-2.859,0.538c-0.919-0.626-1.164-1.862-0.575-2.796
			c-0.005,0-0.007-0.003-0.012-0.004c-0.653,0.885-1.894,1.109-2.813,0.482c-0.888-0.604-1.142-1.78-0.627-2.699
			c-0.004-0.003-0.009-0.007-0.016-0.01l0.102-0.147c0,0,0.002-0.001,0-0.001c-0.639,0.939-1.919,1.181-2.855,0.539
			c-0.939-0.641-1.182-1.92-0.542-2.856c-0.64,0.937-1.921,1.181-2.857,0.54S238.391,218.571,239.033,217.634z"/>
	</g>
	<polygon fill="#2D3742" points="218.412,218.605 170.72,218.605 168.562,212.661 220.571,212.661 	"/>
	<polygon fill="#2D3742" points="172.873,254.862 165.851,258.875 180.115,213.501 185.358,215.15 	"/>
	<polygon fill="#2D3742" points="196.3,256.213 203.322,260.226 189.057,214.853 183.815,216.5 	"/>
	<circle fill="#2D3742" cx="183.814" cy="215.15" r="4.878"/>
</g>
</svg>
