<?xml version="1.0" encoding="utf-8"?>
<!-- Generator: Adobe Illustrator 16.0.0, SVG Export Plug-In . SVG Version: 6.00 Build 0)  -->
<!DOCTYPE svg PUBLIC "-//W3C//DTD SVG 1.1//EN" "http://www.w3.org/Graphics/SVG/1.1/DTD/svg11.dtd">
<svg version="1.1" id="Capa_1" xmlns="http://www.w3.org/2000/svg" xmlns:xlink="http://www.w3.org/1999/xlink" x="0px" y="0px"
	 width="350px" height="350px" viewBox="0 0 350 350" enable-background="new 0 0 350 350" xml:space="preserve">
<g>
	<path d="M94.974,179.102c-8.097,0-14.687,6.59-14.687,14.687c0,8.098,6.59,14.688,14.687,14.688
		c8.098,0,14.688-6.591,14.688-14.688C109.661,185.687,103.071,179.102,94.974,179.102z M94.974,198.685
		c-2.703,0-4.896-2.193-4.896-4.896c0-2.702,2.193-4.895,4.896-4.895s4.896,2.192,4.896,4.895
		C99.87,196.491,97.676,198.685,94.974,198.685z"/>
	<path d="M304.766,71.861c-3.056-4.592-7.422-7.931-12.627-9.64c-0.959-0.313-1.64-0.994-1.952-1.963
		c-1.709-5.199-5.044-9.561-9.646-12.621c-8.748-5.801-20.567-5.277-28.753,1.273c-6.197,4.969-9.531,12.342-9.155,20.234
		c0.279,5.831-1.487,10.962-4.969,14.442l-30.123,30.124l-5.405,0.083c-8.366,0.122-16.181,3.393-22.001,9.213
		c-18.902,18.907-43.979,30.574-72.52,33.737c-16.974,1.885-32.943,9.615-44.982,21.766c-27.666,27.94-28.654,74.293-2.193,103.32
		c13.987,15.348,33.09,24.062,53.789,24.541c0.602,0.016,1.199,0.025,1.802,0.025c20.038,0,38.813-7.771,53.03-21.986
		c10.894-10.894,18.08-24.636,20.788-39.754c4.793-26.73,18.343-51.885,39.194-72.731c1.356-1.356,2.58-2.874,3.857-4.778
		l5.107-7.623H223.05c1.489-0.901,2.919-1.919,4.182-3.183l41.594-41.589c3.477-3.48,8.519-5.208,14.447-4.969
		c7.951,0.309,15.261-2.957,20.229-9.16C310.057,92.433,310.571,80.609,304.766,71.861z M180.204,242.918
		c-2.351,13.145-8.603,25.09-18.071,34.563c-12.739,12.733-29.531,19.479-47.685,19.099c-17.997-0.417-34.608-8.001-46.779-21.352
		c-23.005-25.237-22.148-65.533,1.915-89.831c10.614-10.717,24.136-17.262,39.097-18.922c30.775-3.412,57.873-16.048,78.365-36.546
		c2.331-2.326,5.132-4.059,8.206-5.126l-9.767,32.547l17.193-5.728v9.498v8.186h15.27
		C198.034,190.71,185.025,216.04,180.204,242.918z M295.854,94.494c-2.98,3.726-7.421,5.763-12.121,5.498
		c-8.676-0.401-16.392,2.37-21.84,7.829l-41.589,41.589c-2.105,2.11-4.882,3.305-7.834,3.461v-14.834l-12.18,4.064l3.128-10.423
		l41.168-41.168c5.454-5.449,8.24-13.204,7.828-21.835c-0.23-4.725,1.772-9.141,5.493-12.127c4.817-3.863,12.059-4.186,17.213-0.754
		c2.448,1.625,4.245,3.883,5.342,6.521c-4.945,1.189-9.488,3.838-12.93,7.676c-1.807,2.012-1.641,5.111,0.372,6.913
		c0.936,0.842,2.105,1.253,3.271,1.253c1.336,0,2.678-0.548,3.643-1.625c2.854-3.183,6.932-5.058,11.191-5.141
		c0.67-0.015,1.308-0.162,1.885-0.421c0.406,0.181,0.773,0.412,1.199,0.553c3.095,1.014,5.694,3.006,7.521,5.757
		C300.036,82.436,299.713,89.676,295.854,94.494z"/>
	<path d="M171.195,224.274c-2.717-0.509-5.209,1.302-5.679,3.961c-0.916,5.13-2.521,10.134-4.778,14.888
		c-1.16,2.442-0.117,5.361,2.326,6.521c0.68,0.317,1.391,0.475,2.095,0.475c1.831,0,3.589-1.032,4.426-2.796
		c2.629-5.537,4.504-11.377,5.571-17.365C175.63,227.291,173.854,224.749,171.195,224.274z"/>
	<path d="M152.405,256.204c-10.433,12.65-25.717,21.459-41.932,24.166c-2.668,0.444-4.47,2.967-4.024,5.63
		c0.397,2.395,2.472,4.093,4.823,4.093c0.269,0,0.533-0.021,0.808-0.068c18.515-3.089,35.974-13.15,47.88-27.598
		c1.724-2.086,1.425-5.17-0.666-6.889C157.213,253.815,154.119,254.118,152.405,256.204z"/>
</g>
</svg>
