<?xml version="1.0" encoding="utf-8"?>
<!-- Generator: Adobe Illustrator 16.0.0, SVG Export Plug-In . SVG Version: 6.00 Build 0)  -->
<!DOCTYPE svg PUBLIC "-//W3C//DTD SVG 1.1//EN" "http://www.w3.org/Graphics/SVG/1.1/DTD/svg11.dtd">
<svg version="1.1" id="Capa_1" xmlns="http://www.w3.org/2000/svg" xmlns:xlink="http://www.w3.org/1999/xlink" x="0px" y="0px"
	 width="350px" height="350px" viewBox="0 0 350 350" enable-background="new 0 0 350 350" xml:space="preserve">
<g>
	<path fill="#E6E6E6" d="M293.498,79.859c-2.399-3.608-5.705-5.936-9.313-7.117c-2.26-0.738-3.967-2.445-4.705-4.704
		c-1.182-3.613-3.508-6.918-7.117-9.318c-6.429-4.274-15.229-3.894-21.252,0.938c-4.794,3.844-7.041,9.444-6.773,14.959
		c0.3,6.226-1.503,12.37-5.913,16.774l-38.172,38.172c-0.28,0.28-0.507,0.593-0.765,0.892l-3.971,13.238
		c0.235,1.476,0.665,2.93,1.367,4.311c0.05,0.1,0.127,0.167,0.182,0.267l10.336-3.446v11.509c5.207,1.268,10.925-0.022,14.973-4.07
		l38.466-38.466c4.41-4.41,10.55-6.211,16.779-5.913c5.515,0.262,11.119-1.979,14.959-6.778
		C297.392,95.085,297.772,86.289,293.498,79.859z"/>
	<path fill="#BFBFBF" d="M267.882,80.158l-3.369-3.024c3.89-4.342,9.458-6.891,15.271-7.008l0.091,4.527
		C275.311,74.744,270.941,76.749,267.882,80.158z"/>
	<g>
		<path fill="#EEAF4B" d="M207.389,162.94v-18.11l-13.583,4.527l8.611-28.705c-6.248,0.095-12.469,2.454-17.214,7.199
			c-18.708,18.708-43.478,29.583-69.774,32.499c-14.216,1.576-28.012,7.842-38.874,18.812c-23.996,24.232-24.874,64.11-1.901,89.311
			c25.114,27.555,67.841,28.298,93.906,2.232c9.73-9.729,15.715-21.773,17.97-34.359c4.749-26.518,18.45-50.614,37.502-69.666
			c1.159-1.159,2.128-2.427,3.007-3.736h-19.65V162.94z"/>
		<path fill="#EEAF4B" d="M122.728,294.239c-0.557,0-1.109-0.004-1.667-0.018c-19.147-0.444-36.813-8.508-49.749-22.701
			c-24.467-26.844-23.557-69.707,2.028-95.55c11.129-11.237,25.902-18.391,41.599-20.129c26.396-2.925,49.586-13.71,67.066-31.2
			c5.384-5.379,12.609-8.403,20.348-8.521l6.18-0.095l-7.883,26.273l11.265-3.758v19.867h23.611l-4.722,7.049
			c-1.182,1.761-2.313,3.16-3.568,4.419c-19.283,19.283-31.814,42.541-36.247,67.261c-2.504,13.98-9.15,26.695-19.224,36.764
			C158.618,287.055,141.259,294.239,122.728,294.239z M195.992,126.308c-2.843,0.987-5.433,2.59-7.587,4.74
			c-18.953,18.957-44.013,30.643-72.474,33.799c-13.841,1.534-26.341,7.588-36.157,17.499c-22.253,22.47-23.045,59.74-1.771,83.076
			c11.251,12.351,26.623,19.359,43.266,19.744c16.784,0.412,32.318-5.886,44.094-17.662c8.761-8.76,14.539-19.808,16.711-31.964
			c4.455-24.853,16.489-48.282,34.907-68.072h-14.121v-16.354l-15.901,5.297L195.992,126.308z"/>
	</g>
	<path fill="#FBD490" d="M168.162,242.204c-0.652,0-1.309-0.14-1.938-0.439c-2.259-1.068-3.224-3.771-2.151-6.03
		c2.087-4.401,3.573-9.032,4.419-13.772c0.434-2.463,2.739-4.12,5.252-3.663c2.458,0.439,4.097,2.789,3.663,5.252
		c-0.987,5.532-2.721,10.935-5.152,16.064C171.48,241.249,169.859,242.204,168.162,242.204z"/>
	<path fill="#FBD490" d="M118.327,279.168c-2.173,0-4.093-1.571-4.459-3.786c-0.412-2.462,1.254-4.799,3.722-5.206
		c15-2.504,29.135-10.649,38.779-22.349c1.584-1.929,4.441-2.204,6.37-0.615c1.933,1.594,2.205,4.441,0.616,6.37
		c-11.016,13.36-27.156,22.665-44.279,25.521C118.821,279.149,118.576,279.168,118.327,279.168z"/>
	<circle fill="#FBD490" cx="103.255" cy="190.105" r="9.055"/>
</g>
</svg>
