<?xml version="1.0" encoding="utf-8"?>
<!-- Generator: Adobe Illustrator 16.0.0, SVG Export Plug-In . SVG Version: 6.00 Build 0)  -->
<!DOCTYPE svg PUBLIC "-//W3C//DTD SVG 1.1 Tiny//EN" "http://www.w3.org/Graphics/SVG/1.1/DTD/svg11-tiny.dtd">
<svg version="1.1" baseProfile="tiny" id="Layer_1" xmlns="http://www.w3.org/2000/svg" xmlns:xlink="http://www.w3.org/1999/xlink"
	 x="0px" y="0px" width="350px" height="350px" viewBox="0 0 350 350" overflow="scroll" xml:space="preserve">
<g>
	<g>
		<g>
			<polygon fill-rule="evenodd" fill="#47A4AD" points="210.084,150.912 210.084,281.517 175.001,247.333 139.918,281.517 
				139.918,150.912 175.001,150.912 			"/>
			<polygon fill-rule="evenodd" fill="#56C4CF" points="175.001,150.912 175.001,247.333 139.918,281.517 139.918,150.912 			"/>
			<polygon fill-rule="evenodd" fill="#47A4AD" points="157.459,150.912 157.459,264.423 139.918,281.517 139.918,150.912 			"/>
			<polygon fill-rule="evenodd" fill="#56C4CF" points="192.543,150.912 192.543,264.423 210.084,281.517 210.084,150.912 			"/>
		</g>
		<g>
			<polygon fill-rule="evenodd" fill="#EEB527" points="175.001,68.483 198.52,118.54 253.391,125.446 213.049,163.279 
				223.449,217.598 175.001,190.924 126.554,217.598 136.949,163.274 96.609,125.442 151.485,118.54 			"/>
			<path fill-rule="evenodd" fill="#FFD343" d="M253.391,125.446l-78.389,25.466l38.053,12.363L253.391,125.446L253.391,125.446z
				 M175.001,150.912l48.448,66.686l-48.448-26.674V150.912L175.001,150.912z M136.951,163.279l38.051-12.367l-48.447,66.686
				L136.951,163.279L136.951,163.279z M96.609,125.442l54.874-6.902l23.519,32.372L96.609,125.442L96.609,125.442z M175.001,68.483
				l23.514,50.057l-23.514,32.372V68.483z"/>
		</g>
	</g>
	<path fill-rule="evenodd" fill="#FFFFFF" d="M138.413,146.823c0,0,3.161-6.775-3.616-9.935c6.777,3.16,9.937-3.615,9.937-3.615
		c-3.16,6.775,3.616,9.938,3.616,9.938S141.574,140.048,138.413,146.823z"/>
	<path fill-rule="evenodd" fill="#FFFFFF" d="M196.982,169.26c0,0,4.541-9.731-5.195-14.268c9.736,4.537,14.271-5.195,14.271-5.195
		c-4.535,9.732,5.195,14.272,5.195,14.272S201.523,159.528,196.982,169.26z"/>
</g>
</svg>
