<?xml version="1.0" encoding="utf-8"?>
<!-- Generator: Adobe Illustrator 16.0.0, SVG Export Plug-In . SVG Version: 6.00 Build 0)  -->
<!DOCTYPE svg PUBLIC "-//W3C//DTD SVG 1.1 Tiny//EN" "http://www.w3.org/Graphics/SVG/1.1/DTD/svg11-tiny.dtd">
<svg version="1.1" baseProfile="tiny" id="Layer_1" xmlns="http://www.w3.org/2000/svg" xmlns:xlink="http://www.w3.org/1999/xlink"
	 x="0px" y="0px" width="350px" height="350px" viewBox="0 0 350 350" overflow="scroll" xml:space="preserve">
<g id="XMLID_359_">
	<g id="XMLID_353_">
		<rect id="XMLID_345_" x="130.84" y="55.925" fill="#BF2826" width="88.386" height="51.491"/>
		<polygon id="XMLID_224_" fill="#DB4026" points="130.84,55.925 177.464,162.107 134.488,184.45 95.16,96.875 		"/>
		<polygon id="XMLID_352_" fill="#DB4026" points="219.161,55.925 172.535,162.107 215.512,184.45 254.84,96.875 		"/>
	</g>
	<path id="XMLID_402_" fill="#FFC827" d="M249.918,226.705l-7.426,13.584c-0.739,1.353-1.22,2.83-1.416,4.358l-1.974,15.348
		c-0.539,4.188-3.174,7.812-6.99,9.615l-13.984,6.607c-1.399,0.662-2.664,1.581-3.726,2.709l-10.589,11.252
		c-2.898,3.08-7.171,4.469-11.325,3.679l-15.18-2.882c-1.525-0.289-3.092-0.289-4.618,0l-15.179,2.881
		c-4.156,0.79-8.427-0.598-11.325-3.678l-10.59-11.252c-1.062-1.129-2.326-2.048-3.726-2.71l-13.983-6.607
		c-3.817-1.804-6.452-5.428-6.99-9.614l-1.974-15.348c-0.196-1.528-0.676-3.006-1.415-4.359l-7.426-13.583
		c-2.021-3.7-2.021-8.176,0-11.876l7.426-13.584c0.739-1.352,1.219-2.83,1.416-4.357l1.974-15.349
		c0.538-4.188,3.173-7.811,6.99-9.615l13.984-6.607c1.401-0.662,2.665-1.581,3.726-2.709l10.589-11.252
		c2.898-3.081,7.17-4.468,11.325-3.678l15.179,2.882c1.526,0.289,3.093,0.289,4.618,0l15.18-2.882
		c4.155-0.789,8.427,0.598,11.326,3.678l10.588,11.253c1.063,1.128,2.326,2.047,3.727,2.709l13.983,6.607
		c3.817,1.804,6.451,5.428,6.99,9.615l1.974,15.348c0.196,1.527,0.677,3.006,1.416,4.358l7.426,13.583
		C251.939,218.529,251.939,223.005,249.918,226.705z"/>
	<g id="XMLID_360_">
		<path id="XMLID_1_" fill="#EB8923" d="M175,279.948c-32.633,0-59.181-26.548-59.181-59.181s26.548-59.181,59.181-59.181
			s59.181,26.548,59.181,59.181S207.633,279.948,175,279.948z M175,171.758c-27.023,0-49.01,21.986-49.01,49.01
			c0,27.022,21.987,49.01,49.01,49.01c27.022,0,49.01-21.987,49.01-49.01C224.01,193.744,202.022,171.758,175,171.758z"/>
	</g>
	<path id="XMLID_392_" fill="#CD6828" d="M130.359,225.137c0-27.023,21.986-49.01,49.01-49.01c12.401,0,23.735,4.64,32.376,12.264
		c-8.986-10.188-22.124-16.633-36.745-16.633c-27.023,0-49.009,21.986-49.009,49.01c0,14.621,6.444,27.759,16.631,36.745
		C134.999,248.871,130.359,237.538,130.359,225.137z"/>
</g>
</svg>
