<?xml version="1.0" encoding="utf-8"?>
<!-- Generator: Adobe Illustrator 16.0.0, SVG Export Plug-In . SVG Version: 6.00 Build 0)  -->
<!DOCTYPE svg PUBLIC "-//W3C//DTD SVG 1.1 Tiny//EN" "http://www.w3.org/Graphics/SVG/1.1/DTD/svg11-tiny.dtd">
<svg version="1.1" baseProfile="tiny" id="Layer_1" xmlns="http://www.w3.org/2000/svg" xmlns:xlink="http://www.w3.org/1999/xlink"
	 x="0px" y="0px" width="350px" height="350px" viewBox="0 0 350 350" overflow="scroll" xml:space="preserve">
<g>
	<rect x="114.682" y="153.639" fill="#8A724A" width="120.638" height="1.852"/>
	<rect x="119.227" y="55.83" fill="#0071BB" width="111.549" height="101.049"/>
	<rect x="133.121" y="55.83" fill="#D71921" width="83.759" height="101.049"/>
	<rect x="147.016" y="55.83" fill="#FFFFFF" width="55.97" height="101.049"/>
	<rect x="160.91" y="55.83" fill="#0071BB" width="28.18" height="101.049"/>
	<polygon fill="#B99664" points="233.245,152.426 233.245,162.133 116.756,162.133 116.756,152.426 110.578,152.426 
		110.578,167.473 239.422,167.473 239.422,152.426 	"/>
	<circle fill="#B99664" cx="175" cy="175.42" r="9.336"/>
	<circle fill="#C5A87D" cx="175" cy="237.434" r="56.736"/>
	<circle fill="#A9895B" cx="175" cy="237.434" r="44.37"/>
	<path fill="#C5A87D" d="M147.789,243.315c0.02,0.004,0.04,0.005,0.061,0.005c0.15,0,0.289-0.098,0.333-0.248
		c0.021-0.074,0.51-1.821-0.316-3.152c-0.821-1.33-2.604-1.676-2.677-1.688c-0.178-0.031-0.345,0.073-0.395,0.243
		c-0.022,0.076-0.507,1.821,0.314,3.151C145.934,242.959,147.714,243.302,147.789,243.315z M145.389,238.995
		c0.492,0.151,1.416,0.524,1.892,1.288c0.473,0.767,0.394,1.761,0.309,2.27c-0.493-0.152-1.419-0.522-1.894-1.288
		C145.223,240.498,145.301,239.503,145.389,238.995z M146.033,246.967c1.341,0,2.501-0.89,2.545-0.928
		c0.142-0.107,0.177-0.305,0.084-0.454c-0.044-0.064-1.029-1.589-2.569-1.854c-0.159-0.027-0.325-0.041-0.492-0.041
		c-1.347,0-2.501,0.887-2.549,0.923c-0.142,0.111-0.175,0.309-0.08,0.459c0.041,0.063,1.026,1.588,2.567,1.853
		C145.699,246.952,145.865,246.967,146.033,246.967z M143.755,244.973c0.376-0.23,1.09-0.594,1.846-0.594
		c0.128,0,0.255,0.011,0.375,0.034c0.886,0.15,1.582,0.872,1.903,1.271c-0.376,0.229-1.086,0.593-1.846,0.593
		c-0.131,0-0.258-0.01-0.376-0.031C144.771,246.092,144.078,245.375,143.755,244.973z M150.274,247.958
		c-0.022-0.011-0.611-0.188-1.359-0.188c-0.693,0-1.298,0.151-1.796,0.446c-1.345,0.802-1.721,2.573-1.735,2.651
		c-0.037,0.174,0.066,0.344,0.237,0.395c0.025,0.011,0.611,0.188,1.357,0.188c0.698,0,1.302-0.152,1.802-0.447
		c1.344-0.801,1.715-2.575,1.731-2.648C150.547,248.179,150.445,248.007,150.274,247.958z M148.426,250.408
		c-0.388,0.233-0.873,0.35-1.447,0.35c-0.325,0-0.617-0.039-0.829-0.078c0.162-0.489,0.548-1.409,1.321-1.871
		c0.39-0.233,0.876-0.347,1.444-0.347c0.326,0,0.622,0.038,0.831,0.078C149.586,249.03,149.2,249.949,148.426,250.408z
		 M176.517,227.146c0,0-0.243-0.315-0.854-0.307s-1.408,0.307-1.408,0.307s0.522,0.455,1.132,0.491
		C175.993,227.67,176.517,227.146,176.517,227.146z M151.361,236.757c-0.073,0.023-1.785,0.615-2.415,2.051
		c-0.626,1.435,0.104,3.095,0.134,3.163c0.059,0.129,0.185,0.203,0.316,0.203c0.037,0,0.074-0.005,0.112-0.017
		c0.071-0.024,1.784-0.616,2.412-2.05c0.627-1.435-0.102-3.095-0.133-3.165C151.714,236.78,151.529,236.699,151.361,236.757z
		 M151.288,239.83c-0.361,0.825-1.227,1.324-1.69,1.542c-0.157-0.487-0.379-1.459-0.018-2.289c0.362-0.823,1.229-1.324,1.692-1.542
		C151.429,238.03,151.65,239,151.288,239.83z M152.077,250.124c-0.071,0.028-1.729,0.764-2.231,2.247
		c-0.506,1.482,0.364,3.072,0.399,3.14c0.064,0.113,0.181,0.179,0.302,0.179c0.046,0,0.095-0.009,0.139-0.03
		c0.067-0.029,1.726-0.764,2.23-2.246c0.504-1.482-0.361-3.073-0.398-3.142C152.428,250.117,152.24,250.051,152.077,250.124z
		 M152.263,253.192c-0.288,0.852-1.108,1.425-1.555,1.68c-0.198-0.474-0.498-1.423-0.208-2.28c0.289-0.852,1.108-1.423,1.553-1.681
		C152.253,251.384,152.555,252.336,152.263,253.192z M154.445,246.594c-0.625,1.436,0.104,3.094,0.135,3.165
		c0.056,0.126,0.179,0.204,0.314,0.204c0.037,0,0.074-0.007,0.109-0.019c0.073-0.024,1.786-0.617,2.414-2.053
		c0.625-1.435-0.104-3.092-0.135-3.161c-0.069-0.163-0.254-0.244-0.422-0.187C156.786,244.569,155.072,245.159,154.445,246.594z
		 M156.773,245.327c0.155,0.488,0.376,1.46,0.013,2.288c-0.361,0.827-1.225,1.326-1.691,1.544c-0.157-0.49-0.38-1.461-0.018-2.291
		C155.44,246.043,156.305,245.544,156.773,245.327z M210.515,215.541c-3.678,5.522-22.356,9.958-22.356,9.958l-4.818,10.952
		c-0.081-0.037-0.178-0.059-0.274-0.059h-2.177c-0.692-1.306-0.688-2.791-0.68-4.492c0.007-1.435,0.016-2.919-0.396-4.488
		c-0.519-1.962-2.277-3.136-4.699-3.136c-0.944,0-2.127,0.212-2.778,0.665c-2.019,0.052-2.89,1.037-3.23,1.631
		c-0.496,0.853-0.51,1.936-0.035,2.753c0.378,0.663,1.007,1.038,1.724,1.038c0.041,0,0.085-0.001,0.124-0.005
		c0.295-0.017,0.548-0.222,0.624-0.507c0.065-0.241-0.008-0.495-0.178-0.667c0.035-0.088,0.121-0.203,0.186-0.232l0.028,0.004
		c1.089,0.1,1.824,0.368,1.854,1.354c0.02,0.555-1.013,1.51-1.925,2.351c-1.179,1.089-2.492,2.307-2.979,3.732h-1.59
		c-0.099,0-0.194,0.021-0.276,0.059l-4.816-10.952c0,0-18.678-4.436-22.358-9.958c-0.546,1.59-0.702,3.149-0.562,4.655
		c2.519,2.798,6.009,5.008,9.262,5.383c-2.556,0.189-5.41-0.129-8.084-1.186c0.586,1.25,1.359,2.449,2.264,3.58
		c2.517,0.842,5.35,1.215,9.249,0.536c-2.168,1.228-4.582,1.835-6.911,2.003c1.025,0.974,2.128,1.88,3.263,2.709
		c1.699,0.11,3.479-0.206,5.18-1.409c-0.598,1.092-1.514,2.255-2.83,2.986c0.773,0.479,1.546,0.921,2.305,1.324
		c0.357,0.188,0.713,0.381,1.068,0.57c1.719-0.339,2.603-1.206,3.2-2.065c0.178,1.063-0.396,2.259-1.426,3.037
		c4.121,2.302,7.846,4.676,10.785,6.97v2.986c-1.492,0.358-3.169,1.479-4.21,5.091h-1.964c0,0-2.11-2.5-4.287-1.478
		c-0.624-0.571-1.304-1.131-1.971-1.677c-2.599-2.127-5.05-4.135-4.294-6.754c0.054-0.182-0.054-0.374-0.235-0.425
		c-0.184-0.054-0.375,0.051-0.43,0.233c-0.882,3.056,1.866,5.302,4.519,7.478c0.614,0.502,1.235,1.01,1.81,1.53
		c-0.888,0.804-0.941,2.999,0.346,3.76c0.629,0.373,1.593,0.493,2.545,0.313c1.033,2.588,1.062,5.029,1.062,5.06
		c0.002,0.191,0.154,0.344,0.345,0.344h0.002c0.188,0,0.342-0.154,0.342-0.347c0-0.128-0.023-2.578-1.074-5.24
		c0.542-0.194,1.055-0.496,1.471-0.919c0,0,2.955,0.693,5.264,0.18c1.25-0.274,2.067-0.794,2.597-1.324l-0.003-0.002
		c0.509,0.392,1.081,0.706,1.675,0.97c-1.852,1.733-3.534,4.281-3.934,5.896c-0.152,0.625-0.107,1.104,0.14,1.452
		c0.354,0.503,0.971,0.755,1.828,0.755c0.478,0,0.978-0.077,1.413-0.171c-0.223,1.176-0.285,2.624,0.621,3.117
		c0.178,0.096,0.377,0.145,0.587,0.145c0.741,0,1.617-0.686,2.294-1.352c0.298,1.098,0.944,2.392,2.317,2.392
		c1.379,0,2.023-1.294,2.32-2.392c0.676,0.666,1.552,1.352,2.294,1.352h0.001c0.212,0,0.409-0.049,0.586-0.145
		c0.908-0.493,0.846-1.941,0.624-3.117c0.434,0.094,0.935,0.171,1.411,0.171c0.859,0,1.476-0.252,1.828-0.755
		c0.248-0.349,0.294-0.827,0.141-1.452c-0.398-1.617-2.091-4.177-3.949-5.91c0.597-0.269,1.174-0.587,1.682-0.991
		c-0.002,0-0.002,0.004-0.002,0.004c0.528,0.543,1.353,1.077,2.628,1.358c2.31,0.514,5.268-0.18,5.268-0.18
		c0.041,0.04,0.077,0.08,0.121,0.119l-5.593,3.861c-0.154,0.111-0.196,0.323-0.086,0.482c0.069,0.097,0.176,0.149,0.285,0.149
		c0.069,0,0.136-0.021,0.195-0.064l5.778-3.99c0.224,0.133,0.454,0.244,0.691,0.333l-4.267,5.909
		c-0.113,0.154-0.077,0.371,0.076,0.483c0.061,0.043,0.134,0.063,0.2,0.063c0.108,0,0.213-0.051,0.281-0.142l4.413-6.11
		c0.209,0.04,0.416,0.069,0.624,0.082l-2.107,7.446c-0.052,0.183,0.051,0.374,0.237,0.425c0.033,0.009,0.064,0.013,0.095,0.013
		c0.151,0,0.288-0.099,0.328-0.251l2.167-7.645c0.477-0.05,0.912-0.174,1.25-0.374c1.131-0.671,1.227-2.457,0.623-3.421l6.407-4.427
		l-0.77,1.008c-0.116,0.152-0.087,0.367,0.064,0.483c0.06,0.049,0.134,0.071,0.211,0.071c0.1,0,0.206-0.046,0.271-0.136l2.098-2.741
		c0.004-0.006,0.004-0.01,0.009-0.015c0.004-0.008,0.01-0.015,0.014-0.021c0.004-0.012,0.012-0.021,0.014-0.037
		c0.007-0.007,0.009-0.014,0.01-0.017c0.007-0.019,0.016-0.038,0.02-0.057c0-0.001,0-0.001,0.001-0.001
		c0-0.021,0.002-0.044,0.002-0.063c0-0.006,0-0.011,0-0.02c-0.002-0.011-0.002-0.025-0.003-0.041c0-0.006-0.004-0.012-0.008-0.021
		c-0.002-0.014-0.006-0.027-0.012-0.041c-0.003-0.006-0.003-0.013-0.01-0.019c-0.005-0.021-0.014-0.037-0.025-0.056
		c-0.013-0.016-0.03-0.031-0.044-0.048c-0.007-0.005-0.011-0.01-0.018-0.015c-0.01-0.009-0.02-0.016-0.028-0.024
		c-0.007-0.004-0.015-0.01-0.021-0.014c-0.016-0.006-0.022-0.013-0.037-0.017c-0.007-0.003-0.012-0.007-0.021-0.009
		c-0.017-0.006-0.035-0.013-0.055-0.017c-0.003,0-0.003,0-0.005,0c-0.017-0.003-0.039-0.005-0.054-0.005c-0.008,0-0.018,0-0.022,0
		c-0.016,0.002-0.027,0.003-0.04,0.005c-0.01,0.004-0.018,0.004-0.024,0.005c-0.007,0.002-0.01,0.004-0.016,0.006l-3.306,0.988
		c-0.003,0.002-0.006,0.002-0.006,0.004c0-0.004,0-0.006,0-0.006l1.062-3.285c0.003-0.008,0.003-0.013,0.005-0.019
		c0-0.009,0-0.016,0.005-0.022c0-0.015,0.003-0.028,0.004-0.04c0-0.007,0-0.016,0-0.021c0-0.019,0-0.037-0.004-0.056
		c0,0,0-0.004,0-0.007c-0.003-0.018-0.005-0.038-0.015-0.056c-0.001-0.007-0.003-0.013-0.008-0.02
		c-0.004-0.012-0.008-0.023-0.017-0.035c-0.003-0.009-0.01-0.013-0.012-0.022c-0.009-0.01-0.017-0.021-0.024-0.032
		c-0.007-0.005-0.009-0.011-0.017-0.016c-0.014-0.013-0.027-0.029-0.047-0.042c-0.016-0.012-0.034-0.022-0.053-0.03
		c-0.009-0.004-0.013-0.005-0.021-0.009c-0.012-0.006-0.025-0.011-0.039-0.014c-0.007-0.002-0.015-0.003-0.023-0.005
		c-0.011,0-0.024-0.005-0.039-0.005c-0.006,0-0.014-0.002-0.019-0.002c-0.021,0-0.041,0-0.062,0.007h-0.002
		c-0.021,0.002-0.04,0.005-0.056,0.011c-0.009,0.002-0.014,0.006-0.019,0.01c-0.014,0.007-0.025,0.01-0.037,0.018
		c-0.007,0.004-0.016,0.008-0.021,0.013c-0.005,0.002-0.01,0.004-0.012,0.007l-2.788,2.04c-0.154,0.11-0.188,0.327-0.075,0.481
		c0.112,0.153,0.329,0.188,0.481,0.075l1.024-0.75l-4.197,5.81l1.953-6.896l0.046,1.268c0.01,0.186,0.164,0.332,0.346,0.332
		c0.003,0,0.011,0,0.013,0c0.192-0.007,0.338-0.167,0.333-0.357l-0.129-3.449c-0.002-0.006-0.002-0.012-0.007-0.017
		c0-0.01,0-0.017,0-0.025c-0.003-0.013-0.005-0.027-0.01-0.039c-0.002-0.007-0.002-0.012-0.004-0.019
		c-0.008-0.021-0.014-0.035-0.021-0.055v-0.001c-0.012-0.019-0.024-0.034-0.036-0.051c-0.005-0.004-0.008-0.009-0.015-0.014
		c-0.011-0.011-0.021-0.019-0.031-0.027c-0.003-0.007-0.012-0.011-0.016-0.017c-0.011-0.006-0.021-0.016-0.033-0.021
		c-0.009-0.006-0.014-0.008-0.019-0.011c-0.022-0.01-0.037-0.019-0.062-0.023c-0.021-0.006-0.04-0.01-0.061-0.012
		c-0.008,0-0.012,0-0.021,0c-0.013,0-0.03,0-0.043,0c-0.009,0.002-0.013,0.002-0.02,0.004c-0.014,0.002-0.032,0.004-0.045,0.009
		c-0.006,0.002-0.01,0.004-0.015,0.004c-0.039,0.014-0.075,0.034-0.107,0.06c-0.004,0.005-0.008,0.01-0.015,0.016
		c-0.011,0.008-0.021,0.017-0.03,0.028c-0.002,0.005-0.012,0.011-0.013,0.017c-0.007,0.007-0.008,0.011-0.013,0.014l-1.921,2.87
		c-0.104,0.158-0.062,0.374,0.097,0.48c0.16,0.105,0.372,0.063,0.479-0.097l0.708-1.057l-2.134,7.527
		c-2.028-0.591-3.897,1.621-3.897,1.621h-1.964c-1.057-3.674-2.776-4.768-4.281-5.108v-2.969c2.934-2.294,6.662-4.668,10.783-6.97
		c-1.031-0.778-1.608-1.974-1.429-3.037c0.6,0.859,1.482,1.727,3.204,2.065c0.353-0.189,0.707-0.383,1.064-0.57
		c0.762-0.403,1.535-0.845,2.307-1.324c-1.319-0.731-2.231-1.895-2.832-2.986c1.703,1.203,3.479,1.52,5.178,1.409
		c1.14-0.829,2.239-1.735,3.264-2.709c-2.329-0.168-4.739-0.775-6.908-2.003c3.899,0.679,6.732,0.306,9.25-0.536
		c0.903-1.131,1.675-2.33,2.262-3.58c-2.677,1.057-5.526,1.375-8.083,1.186c3.253-0.375,6.741-2.585,9.261-5.383
		C211.217,218.69,211.058,217.131,210.515,215.541z M174.813,230.262c-0.036-1.021-0.511-1.8-1.377-2.246
		c-0.648-0.335-1.353-0.399-1.73-0.437l-0.049-0.004c-0.038-0.001-0.077-0.007-0.118-0.007c-0.599,0-1.091,0.41-1.353,0.894
		c-0.121-0.33-0.128-0.785,0.113-1.2c0.359-0.623,1.165-0.959,2.282-0.941c0.206,0.003,0.396-0.083,0.531-0.239
		c0.139-0.126,0.905-0.423,2.002-0.423c1.051,0,2.88,0.273,3.364,2.106c0.366,1.393,0.357,2.782,0.352,4.128
		c0,0.565-0.004,1.123,0.021,1.67c-0.302-0.063-0.572-0.098-0.748-0.124c0.368,0.584-0.094,1.42-0.916,1.99
		c0-0.488-0.533-1.929-1.901-2.082c0.165,0.676-0.364,1.775-2.083,1.775c0.32-0.538,0.205-1.26-0.266-1.905
		C174.004,232.209,174.847,231.293,174.813,230.262z M181.396,257.798c1.185,1.675,1.577,2.873,1.543,3.193
		c-0.08,0.071-0.298,0.146-0.679,0.146c-0.941,0-2.12-0.417-2.131-0.422c-0.244-0.088-0.519-0.032-0.707,0.149
		c-0.19,0.182-0.262,0.449-0.188,0.697c0.321,1.055,0.463,2.274,0.323,2.652c-0.406-0.115-1.362-0.975-2.108-1.904
		c-0.181-0.223-0.473-0.312-0.743-0.227c-0.271,0.084-0.462,0.328-0.483,0.612c-0.057,0.803-0.437,2.572-1.198,2.572
		c-0.758,0-1.136-1.77-1.193-2.571c-0.017-0.285-0.21-0.529-0.481-0.613c-0.067-0.021-0.136-0.033-0.207-0.033
		c-0.205,0-0.404,0.093-0.538,0.26c-0.731,0.914-1.709,1.785-2.112,1.904c-0.135-0.38,0.008-1.598,0.323-2.652
		c0.077-0.248,0.004-0.516-0.186-0.697c-0.188-0.182-0.463-0.237-0.706-0.149c-0.326,0.117-1.347,0.422-2.132,0.422
		c-0.38,0-0.599-0.074-0.679-0.146c-0.036-0.32,0.361-1.519,1.544-3.193c0.802-1.14,1.7-2.128,2.549-2.823
		c0.226,0.076,0.445,0.149,0.663,0.221c0.863,0.288,1.681,0.563,2.279,0.919c0.149,0.089,0.287,0.188,0.407,0.287
		c0.131,0.11,0.288,0.164,0.446,0.164c0.159,0,0.317-0.054,0.446-0.164c0.119-0.1,0.258-0.198,0.408-0.287
		c0.598-0.357,1.412-0.631,2.28-0.919c0.228-0.076,0.46-0.152,0.696-0.234c0,0.002-0.002,0.002-0.002,0.002
		C179.685,255.657,180.591,256.65,181.396,257.798z M182.375,249.521c0,1.64-0.745,2.569-1.862,3.225v-10.038
		c0-0.382-0.309-0.688-0.688-0.688c-0.382,0-0.69,0.307-0.69,0.688v10.678c-0.454,0.175-0.936,0.336-1.434,0.502
		c-0.137,0.044-0.271,0.088-0.402,0.134v-11.313c0-0.382-0.307-0.688-0.689-0.688c-0.384,0-0.688,0.307-0.688,0.688v11.833
		c-0.272,0.115-0.528,0.243-0.771,0.385c-0.047,0.032-0.099,0.063-0.148,0.094c-0.048-0.03-0.099-0.062-0.15-0.094
		c-0.238-0.142-0.495-0.27-0.767-0.385v-11.833c0-0.382-0.31-0.688-0.689-0.688c-0.382,0-0.691,0.307-0.691,0.688v11.313
		c-0.133-0.046-0.263-0.092-0.401-0.138c-0.496-0.162-0.977-0.323-1.432-0.498v-10.678c0-0.382-0.312-0.688-0.689-0.688
		c-0.384,0-0.693,0.307-0.693,0.688v10.038c-1.118-0.655-1.858-1.585-1.858-3.225v-11.749h14.746V249.521z M199.499,245.242
		l-0.388,1.209c-0.063,0.181,0.039,0.377,0.22,0.435c0.035,0.013,0.071,0.018,0.107,0.018c0.035,0,0.069-0.005,0.105-0.018
		c-0.025,0.064-0.027,0.14-0.004,0.212c0.051,0.182,0.243,0.286,0.428,0.23l1.213-0.364l-5.846,4.042L199.499,245.242z
		 M154.939,241.793c-0.015-0.004-0.419-0.09-0.971-0.09c-0.593,0-1.45,0.104-2.15,0.604c-1.282,0.903-1.513,2.703-1.521,2.779
		c-0.021,0.175,0.096,0.34,0.269,0.379c0.015,0.001,0.42,0.09,0.971,0.09c0.596,0,1.45-0.104,2.154-0.603
		c1.278-0.907,1.512-2.703,1.517-2.778C155.229,241.996,155.116,241.833,154.939,241.793z M153.289,244.39
		c-0.554,0.392-1.259,0.477-1.753,0.477c-0.188,0-0.356-0.013-0.489-0.029c0.12-0.499,0.434-1.447,1.167-1.968
		c0.556-0.394,1.262-0.479,1.755-0.479c0.188,0,0.357,0.015,0.494,0.027C154.344,242.919,154.028,243.865,153.289,244.39z"/>
	<image width="65" height="240" xlink:href="CC5F85BD.png"  transform="matrix(1 0 0 1 175 55)">
	</image>
</g>
</svg>
