<?xml version="1.0" encoding="utf-8"?>
<!-- Generator: Adobe Illustrator 16.0.0, SVG Export Plug-In . SVG Version: 6.00 Build 0)  -->
<!DOCTYPE svg PUBLIC "-//W3C//DTD SVG 1.1//EN" "http://www.w3.org/Graphics/SVG/1.1/DTD/svg11.dtd">
<svg version="1.1" id="Layer_1" xmlns="http://www.w3.org/2000/svg" xmlns:xlink="http://www.w3.org/1999/xlink" x="0px" y="0px"
	 width="350px" height="350px" viewBox="0 0 350 350" enable-background="new 0 0 350 350" xml:space="preserve">
<path fill="#4BB9EC" d="M241.428,89.024v171.947c0,15.175-12.343,27.522-27.517,27.522H136.09
	c-15.175,0-27.518-12.348-27.518-27.522V89.024c0-15.169,12.342-27.517,27.518-27.517h77.821
	C229.085,61.507,241.428,73.854,241.428,89.024z"/>
<path fill="#0088FF" d="M241.428,89.024v171.947c0,15.175-12.343,27.522-27.517,27.522h-38.909V61.507h38.909
	C229.085,61.507,241.428,73.854,241.428,89.024z"/>
<g>
	<path fill="#656D78" d="M241.428,232.858v28.112c0,15.175-12.343,27.522-27.517,27.522H136.09
		c-15.175,0-27.518-12.348-27.518-27.522v-28.112H241.428z"/>
	<path fill="#656D78" d="M241.428,89.024v26.978H108.572V89.024c0-15.169,12.342-27.517,27.518-27.517h77.821
		C229.085,61.507,241.428,73.854,241.428,89.024z"/>
</g>
<g>
	<path fill="#434A54" d="M241.428,89.024v26.978h-66.43V61.507h38.914C229.085,61.507,241.428,73.854,241.428,89.024z"/>
	<path fill="#434A54" d="M241.428,232.858v28.112c0,15.175-12.343,27.522-27.517,27.522h-38.909v-55.635H241.428L241.428,232.858z"
		/>
</g>
<path fill="#4BB9EC" d="M183.461,260.492c0,4.641-3.762,8.425-8.397,8.458h-0.062c-4.668,0-8.458-3.795-8.458-8.458
	c0-4.669,3.79-8.459,8.458-8.459h0.033C179.683,252.05,183.461,255.835,183.461,260.492z"/>
<path fill="#0088FF" d="M183.461,260.492c0,4.641-3.762,8.425-8.397,8.458c-0.039-0.289-0.062-0.578-0.062-0.88v-15.363
	c0-0.229,0.011-0.45,0.033-0.674C179.683,252.05,183.461,255.835,183.461,260.492z"/>
<path fill="#FF576F" d="M241.428,192.682v16.699l-16.693,0.021l-6.65,0.012l-2.894,9.693c-0.033,0.105-0.072,0.212-0.11,0.317
	c-0.034,0.105-0.067,0.205-0.106,0.306c-0.089,0.233-0.184,0.457-0.289,0.673c-0.022,0.045-0.056,0.096-0.078,0.145
	c-0.094,0.179-0.189,0.351-0.289,0.523c-0.044,0.067-0.095,0.134-0.14,0.206c-0.095,0.15-0.195,0.295-0.301,0.439
	c-0.05,0.062-0.1,0.128-0.15,0.189c-0.122,0.155-0.25,0.301-0.378,0.439c-0.045,0.051-0.084,0.101-0.128,0.146
	c-0.352,0.366-0.729,0.695-1.136,0.99c-0.078,0.056-0.155,0.101-0.229,0.149c-0.117,0.084-0.233,0.162-0.356,0.234
	c-0.1,0.061-0.2,0.117-0.305,0.173c-0.096,0.056-0.195,0.104-0.296,0.155c-0.117,0.056-0.228,0.111-0.345,0.161
	c-0.095,0.039-0.194,0.083-0.295,0.123c-0.117,0.044-0.229,0.088-0.345,0.128c-0.111,0.039-0.223,0.072-0.334,0.104
	c-0.104,0.034-0.211,0.067-0.323,0.096c-0.133,0.032-0.277,0.061-0.416,0.088c-0.084,0.017-0.162,0.04-0.245,0.051
	c-0.206,0.039-0.412,0.062-0.618,0.083c-0.021,0-0.044,0.006-0.066,0.006c-0.233,0.022-0.473,0.033-0.718,0.033
	c-0.268,0-0.534-0.017-0.802-0.045c-0.05-0.005-0.104-0.011-0.155-0.016c-0.239-0.028-0.473-0.062-0.712-0.112
	c-0.028-0.005-0.062-0.011-0.095-0.016c-0.205-0.045-0.417-0.101-0.623-0.162c-0.033-0.006-0.062-0.022-0.089-0.033
	c-0.151-0.045-0.29-0.101-0.435-0.15c-0.128-0.05-0.261-0.095-0.384-0.15c-0.128-0.056-0.256-0.117-0.384-0.178
	c-0.14-0.067-0.272-0.134-0.401-0.206c-0.11-0.066-0.222-0.134-0.333-0.2c-0.14-0.09-0.279-0.178-0.417-0.278
	c-0.09-0.067-0.184-0.134-0.279-0.206c-0.144-0.111-0.283-0.229-0.423-0.351c-0.078-0.072-0.155-0.14-0.228-0.212
	c-0.151-0.144-0.29-0.289-0.429-0.439c-0.044-0.05-0.09-0.094-0.134-0.139l-19.648-22.776l-6.221,8.041l-12.393,16.015
	c-0.033,0.045-0.067,0.078-0.1,0.117c-0.145,0.179-0.295,0.355-0.456,0.522c-0.067,0.072-0.139,0.145-0.211,0.218
	c-0.14,0.134-0.284,0.262-0.434,0.39c-0.095,0.078-0.184,0.162-0.278,0.234c-0.133,0.104-0.273,0.2-0.412,0.294
	c-0.117,0.078-0.228,0.162-0.345,0.233c-0.022,0.012-0.033,0.022-0.056,0.033c-0.2,0.123-0.406,0.234-0.617,0.335
	c-0.061,0.032-0.123,0.061-0.184,0.088c-0.523,0.245-1.069,0.429-1.614,0.558c-0.028,0.005-0.05,0.011-0.078,0.017
	c-0.284,0.066-0.573,0.116-0.863,0.15c-0.022,0-0.044,0-0.067,0.006c-0.295,0.027-0.589,0.05-0.879,0.05
	c-0.206,0-0.412-0.011-0.618-0.028c-0.067-0.006-0.139-0.011-0.206-0.017c-0.128-0.011-0.256-0.028-0.384-0.051
	c-0.089-0.011-0.179-0.021-0.262-0.038c-0.111-0.022-0.223-0.044-0.334-0.067c-0.095-0.021-0.184-0.039-0.273-0.061
	c-0.178-0.044-0.356-0.095-0.528-0.156c-0.084-0.027-0.173-0.062-0.256-0.089c-0.112-0.044-0.223-0.083-0.329-0.129
	c-0.083-0.032-0.161-0.066-0.239-0.104c-0.128-0.056-0.255-0.117-0.378-0.179c-0.056-0.028-0.111-0.056-0.167-0.089
	c-0.39-0.206-0.763-0.451-1.113-0.718c-0.011-0.006-0.017-0.017-0.028-0.022c-0.011-0.006-0.022-0.017-0.034-0.027
	c-0.406-0.317-0.785-0.674-1.129-1.069c-0.044-0.049-0.083-0.094-0.123-0.145c-0.139-0.16-0.267-0.322-0.39-0.495
	c-0.044-0.061-0.083-0.116-0.122-0.178c-0.083-0.122-0.167-0.245-0.245-0.379l-8.369-13.878l-15.225,0.033l-16.693,0.034v-16.694
	l16.693-0.033l19.917-0.039c0.066,0,0.128,0.006,0.194,0.006c0.145,0.006,0.289,0.011,0.428,0.022
	c0.161,0.011,0.323,0.027,0.484,0.05c0.083,0.011,0.167,0.021,0.25,0.032c0.206,0.034,0.406,0.072,0.607,0.123
	c0.039,0.011,0.083,0.017,0.122,0.028c0.229,0.061,0.457,0.128,0.679,0.205c0.017,0.006,0.033,0.012,0.05,0.017
	c0.239,0.084,0.473,0.179,0.695,0.284c0.017,0.006,0.033,0.018,0.044,0.022c0.229,0.105,0.445,0.217,0.657,0.339
	c0.028,0.018,0.056,0.034,0.083,0.051c0.194,0.122,0.389,0.245,0.573,0.379c0.044,0.033,0.089,0.066,0.133,0.094
	c0.167,0.129,0.329,0.256,0.49,0.396c0.05,0.05,0.105,0.094,0.156,0.145c0.15,0.133,0.29,0.272,0.429,0.417
	c0.05,0.056,0.1,0.111,0.15,0.167c0.134,0.15,0.267,0.306,0.39,0.468c0.044,0.056,0.089,0.117,0.128,0.172
	c0.123,0.173,0.245,0.346,0.351,0.523c0.022,0.033,0.044,0.062,0.067,0.095l4.519,7.489l17.373-22.458
	c0.178-0.234,0.367-0.462,0.579-0.679c0.061-0.067,0.128-0.128,0.189-0.184c0.54-0.546,1.146-1.002,1.792-1.358
	c0.078-0.051,0.161-0.083,0.244-0.128c0.156-0.078,0.312-0.162,0.474-0.234c0.161-0.066,0.322-0.128,0.484-0.183
	c0.089-0.033,0.179-0.073,0.268-0.101c0.177-0.061,0.355-0.105,0.527-0.15c0.083-0.022,0.168-0.044,0.251-0.066
	c0.161-0.033,0.328-0.062,0.495-0.084c0.101-0.016,0.2-0.039,0.301-0.056c0.139-0.017,0.278-0.021,0.417-0.027
	c0.133-0.012,0.262-0.028,0.395-0.028c0.105-0.006,0.212,0,0.316,0.005c0.168,0,0.33,0,0.49,0.012
	c0.079,0.006,0.156,0.018,0.234,0.022c0.189,0.022,0.379,0.039,0.573,0.072c0.056,0.011,0.111,0.028,0.172,0.039
	c0.201,0.039,0.406,0.078,0.612,0.134c0.067,0.017,0.129,0.044,0.194,0.061c0.19,0.056,0.379,0.111,0.567,0.184
	c0.134,0.05,0.268,0.117,0.401,0.173c0.111,0.05,0.229,0.095,0.34,0.15c0.74,0.361,1.436,0.84,2.059,1.43
	c0.217,0.205,0.417,0.423,0.612,0.646l16.332,18.926l0.111-0.379c0.262-0.874,0.657-1.67,1.152-2.382
	c1.431-2.521,4.135-4.229,7.244-4.234l12.671-0.017L241.428,192.682z"/>
<path fill="#F23652" d="M241.428,192.682v16.699l-16.693,0.021l-6.65,0.012l-2.894,9.693c-0.033,0.105-0.072,0.212-0.11,0.317
	c-0.034,0.105-0.067,0.205-0.106,0.306c-0.089,0.233-0.184,0.457-0.289,0.673c-0.022,0.045-0.056,0.096-0.078,0.145
	c-0.094,0.179-0.189,0.351-0.289,0.523c-0.044,0.067-0.095,0.134-0.14,0.206c-0.095,0.15-0.195,0.295-0.301,0.439
	c-0.05,0.062-0.1,0.128-0.15,0.189c-0.122,0.155-0.25,0.301-0.378,0.439c-0.045,0.051-0.084,0.101-0.128,0.146
	c-0.352,0.366-0.729,0.695-1.136,0.99c-0.078,0.056-0.155,0.101-0.229,0.149c-0.117,0.084-0.233,0.162-0.356,0.234
	c-0.1,0.061-0.2,0.117-0.305,0.173c-0.096,0.056-0.195,0.104-0.296,0.155c-0.117,0.056-0.228,0.111-0.345,0.161
	c-0.095,0.039-0.194,0.083-0.295,0.123c-0.117,0.044-0.229,0.088-0.345,0.128c-0.111,0.039-0.223,0.072-0.334,0.104
	c-0.104,0.034-0.211,0.067-0.323,0.096c-0.133,0.032-0.277,0.061-0.416,0.088c-0.084,0.017-0.162,0.04-0.245,0.051
	c-0.206,0.039-0.412,0.062-0.618,0.083c-0.021,0-0.044,0.006-0.066,0.006c-0.233,0.022-0.473,0.033-0.718,0.033
	c-0.268,0-0.534-0.017-0.802-0.045c-0.05-0.005-0.104-0.011-0.155-0.016c-0.239-0.028-0.473-0.062-0.712-0.112
	c-0.028-0.005-0.062-0.011-0.095-0.016c-0.205-0.045-0.417-0.101-0.623-0.162c-0.033-0.006-0.062-0.022-0.089-0.033
	c-0.151-0.045-0.29-0.101-0.435-0.15c-0.128-0.05-0.261-0.095-0.384-0.15c-0.128-0.056-0.256-0.117-0.384-0.178
	c-0.14-0.067-0.272-0.134-0.401-0.206c-0.11-0.066-0.222-0.134-0.333-0.2c-0.14-0.09-0.279-0.178-0.417-0.278
	c-0.09-0.067-0.184-0.134-0.279-0.206c-0.144-0.111-0.283-0.229-0.423-0.351c-0.078-0.072-0.155-0.14-0.228-0.212
	c-0.151-0.144-0.29-0.289-0.429-0.439c-0.044-0.05-0.09-0.094-0.134-0.139l-19.648-22.776l-6.221,8.041v-27.155
	c0.54-0.546,1.147-1.002,1.792-1.358c0.077-0.051,0.161-0.083,0.245-0.128c0.154-0.078,0.312-0.162,0.472-0.234
	c0.162-0.066,0.323-0.128,0.484-0.183c0.09-0.033,0.179-0.073,0.268-0.101c0.178-0.061,0.356-0.105,0.528-0.15
	c0.083-0.022,0.167-0.044,0.25-0.066c0.162-0.033,0.329-0.062,0.495-0.084c0.101-0.016,0.201-0.039,0.301-0.056
	c0.14-0.017,0.278-0.021,0.418-0.027c0.133-0.012,0.262-0.028,0.396-0.028c0.104-0.006,0.211,0,0.316,0.005
	c0.167,0,0.328,0,0.49,0.012c0.077,0.006,0.155,0.018,0.232,0.022c0.19,0.022,0.379,0.039,0.574,0.072
	c0.056,0.011,0.11,0.028,0.172,0.039c0.2,0.039,0.406,0.078,0.612,0.134c0.067,0.017,0.128,0.044,0.195,0.061
	c0.188,0.056,0.378,0.111,0.567,0.184c0.133,0.05,0.267,0.117,0.4,0.173c0.111,0.05,0.229,0.095,0.34,0.15
	c0.739,0.361,1.436,0.84,2.059,1.43c0.217,0.205,0.417,0.423,0.612,0.646l16.332,18.926l0.111-0.379
	c0.261-0.874,0.656-1.67,1.151-2.382c1.431-2.521,4.135-4.229,7.245-4.234l12.671-0.017L241.428,192.682z"/>
<path fill="#FF576F" d="M199.393,146.49c0,4.607-3.733,8.347-8.347,8.347h-7.702v7.701c0,4.608-3.729,8.341-8.341,8.348h-0.005
	c-4.608,0-8.347-3.74-8.347-8.348v-7.701h-7.696c-4.613,0-8.347-3.74-8.347-8.347c0-4.608,3.734-8.347,8.347-8.347h7.696v-7.702
	c0-4.607,3.739-8.347,8.347-8.347h0.005c4.613,0.006,8.341,3.74,8.341,8.347v7.702h7.702
	C195.659,138.143,199.393,141.882,199.393,146.49z"/>
<path fill="#F23652" d="M199.393,146.49c0,4.607-3.733,8.347-8.347,8.347h-7.702v7.701c0,4.608-3.729,8.341-8.341,8.348v-48.791
	c4.613,0.005,8.341,3.739,8.341,8.347v7.702h7.702C195.659,138.143,199.393,141.882,199.393,146.49z"/>
</svg>
