<?xml version="1.0" encoding="utf-8"?>
<!-- Generator: Adobe Illustrator 16.0.0, SVG Export Plug-In . SVG Version: 6.00 Build 0)  -->
<!DOCTYPE svg PUBLIC "-//W3C//DTD SVG 1.1//EN" "http://www.w3.org/Graphics/SVG/1.1/DTD/svg11.dtd">
<svg version="1.1" id="Layer_1" xmlns="http://www.w3.org/2000/svg" xmlns:xlink="http://www.w3.org/1999/xlink" x="0px" y="0px"
	 width="350px" height="350px" viewBox="0 0 350 350" enable-background="new 0 0 350 350" xml:space="preserve">
<path fill="#656D78" d="M241.559,277.897c0,4.578-3.715,8.293-8.293,8.293H143.25c-4.583,0-8.293-3.715-8.293-8.293
	c0-4.584,3.71-8.294,8.293-8.294h36.712V168.2c0-4.578,3.715-8.293,8.293-8.293c4.583,0,8.293,3.715,8.293,8.293v101.404h36.718
	C237.844,269.604,241.559,273.313,241.559,277.897z"/>
<path fill="#434A54" d="M241.559,277.897c0,4.578-3.715,8.293-8.293,8.293h-45.011V159.906c4.583,0,8.293,3.715,8.293,8.293v101.404
	h36.718C237.844,269.604,241.559,273.313,241.559,277.897z"/>
<path fill="#FF576F" d="M275.678,137.337c-11.335,23.42-46.46,39.156-87.417,39.156h-0.006c-40.952,0-76.088-15.735-87.422-39.156
	c-2.538-5.247-2.195-11.339,0.912-16.304c3.146-5.015,8.553-8.011,14.47-8.011h144.087c5.91,0,11.317,2.996,14.464,8.011
	C277.878,125.998,278.22,132.09,275.678,137.337z"/>
<path fill="#F23652" d="M275.678,137.337c-11.335,23.42-46.46,39.156-87.417,39.156v-63.471h72.04
	c5.911,0,11.318,2.996,14.464,8.011C277.878,125.998,278.22,132.09,275.678,137.337z"/>
<path fill="#81E26F" d="M235.946,227.159c0,11.583-8.691,21.192-20.219,22.354l-64.56,6.49c-0.282,0.033-0.564,0.045-0.84,0.045
	c-4.208,0-7.813-3.19-8.244-7.465c0-0.005,0-0.005,0-0.011c-0.454-4.55,2.87-8.614,7.42-9.066l64.566-6.497
	c3.013-0.304,5.291-2.819,5.291-5.85c0-3.068-2.305-5.59-5.363-5.854l-40.04-3.533c-1.852-0.16-3.699-0.32-5.534-0.476
	c-19.224-1.653-37.375-3.212-53.276-9.062c-18.749-6.899-31.432-18.97-38.774-36.888c-7.453-18.201-3.776-53.183,11.085-68.437
	c9.996-11.859,31.304-23.68,45.851-25.388c3.544-0.42,6.823,1.465,8.354,4.467c0.437,0.851,0.73,1.797,0.846,2.803
	c0.536,4.55-2.72,8.669-7.271,9.205c-10.361,1.216-28.147,11.196-35.241,19.777l-0.249,0.304l-0.282,0.277
	c-4.351,4.351-7.878,13.219-9.449,23.724c-1.537,10.322-0.885,20.662,1.703,26.98c2.952,7.204,6.867,12.954,11.976,17.587
	c4.623,4.191,10.245,7.464,17.178,10.019c13.811,5.081,30.884,6.551,48.969,8.104c1.847,0.155,3.705,0.315,5.574,0.481l40.034,3.527
	C227.134,205.807,235.946,215.427,235.946,227.159z"/>
<path fill="#00BA63" d="M235.946,227.159c0,11.583-8.691,21.192-20.219,22.354l-64.56,6.49c-0.282,0.033-0.564,0.045-0.84,0.045
	c-4.208,0-7.813-3.19-8.244-7.465c0-0.005,0-0.005,0-0.011l73.472-7.828c3.02-0.299,13.209-6.413,11.6-15.261
	c-0.132-0.757,0.333-0.065-0.082-1.266c-2.04-5.921-4.512-9.681-14.63-10.416l-13.125-1.753c-1.852-0.16-3.699-0.32-5.534-0.475
	c-19.224-1.653-48.5-2.914-66.8-7.885c-19.279-5.236-34.909-15.746-42.251-33.665c-7.453-18.201-3.566-49.594,11.295-64.849
	c8.238-9.774,30.071-19.212,45.635-23.188c0.437,0.851,0.73,1.796,0.846,2.803c0.537,4.55-2.72,8.669-7.271,9.205
	c-10.361,1.216-28.147,11.196-35.241,19.777l-0.249,0.304l-0.282,0.276c-4.351,4.352-7.878,13.22-9.449,23.725
	c-1.537,10.323-0.885,20.662,1.703,26.981c2.952,7.204,6.867,12.954,11.976,17.587c4.622,4.19,10.245,7.464,17.178,10.018
	c13.811,5.082,30.884,6.552,48.969,8.105c1.847,0.155,3.705,0.315,5.573,0.48l40.035,3.528
	C227.134,205.807,235.946,215.427,235.946,227.159z"/>
<path fill="#81E26F" d="M183.351,85.311c0,0.558-0.027,1.111-0.083,1.653c-1.084,11.257-13.169,19.849-28.401,19.849
	c-15.232,0-27.324-8.592-28.408-19.849c-0.055-0.542-0.083-1.095-0.083-1.653c0-12.058,12.518-21.501,28.49-21.501
	S183.351,73.253,183.351,85.311z"/>
<path fill="#00BA63" d="M183.268,86.964c-1.084,11.257-13.169,19.849-28.401,19.849c-15.232,0-27.324-8.592-28.408-19.849H183.268z"
	/>
</svg>
