<?xml version="1.0" encoding="utf-8"?>
<!-- Generator: Adobe Illustrator 16.0.0, SVG Export Plug-In . SVG Version: 6.00 Build 0)  -->
<!DOCTYPE svg PUBLIC "-//W3C//DTD SVG 1.1//EN" "http://www.w3.org/Graphics/SVG/1.1/DTD/svg11.dtd">
<svg version="1.1" id="Capa_1" xmlns="http://www.w3.org/2000/svg" xmlns:xlink="http://www.w3.org/1999/xlink" x="0px" y="0px"
	 width="350px" height="350px" viewBox="0 0 350 350" enable-background="new 0 0 350 350" xml:space="preserve">
<path d="M257.319,195.979c-0.009-1.709-0.089-3.392-0.209-5.066c-0.013-0.146-0.018-0.286-0.025-0.432
	c-0.214-2.798-0.538-5.562-1.061-8.257l-0.123-0.816h-0.068c-4.814-23.409-21.094-42.674-46.643-54.071v-10.004h6.301
	c3.593,0,6.514-2.922,6.514-6.514V98.216c0-3.592-2.921-6.514-6.514-6.514h-6.301V74.671V55.384c0-3.528-2.87-6.398-6.399-6.398
	h-10.688h-42.717h-2.144c-3.528,0-6.399,2.87-6.399,6.398v36.318h-6.301c-3.592,0-6.514,2.922-6.514,6.514v12.602
	c0,3.592,2.922,6.514,6.514,6.514h6.301v10.004c-34.587,15.429-52.255,45.254-47.36,80.325l11.688,79.228
	c1.187,8.052,8.223,14.126,16.364,14.126h106.963c8.143,0,15.178-6.074,16.365-14.126l11.691-79.262
	c0.277-1.994,0.47-3.985,0.598-5.971c0.091-1.334,0.104-2.649,0.124-3.965C257.289,197.119,257.323,196.546,257.319,195.979z
	 M242.335,245.482h-80.133v-55.531h86.253c0.138,1.38,0.235,2.772,0.287,4.182c0.025,0.705,0.013,1.413,0.018,2.123
	c0.004,1.052-0.009,2.106-0.052,3.169c-0.026,0.629-0.056,1.257-0.099,1.89c-0.115,1.687-0.265,3.382-0.504,5.104L242.335,245.482z
	 M192.104,85.294c0-3.533,2.875-6.407,6.407-6.407c0.804,0,1.521,0.158,2.137,0.384v12.046c-0.615,0.227-1.329,0.385-2.137,0.385
	C194.979,91.702,192.104,88.827,192.104,85.294z M182.829,57.528c-1.764,4.973-6.514,8.544-12.084,8.544s-10.32-3.571-12.084-8.544
	H182.829z M149.818,57.528c1.986,9.735,10.611,17.087,20.927,17.087c10.316,0,18.94-7.352,20.927-17.087h8.976v12.991
	c-0.705-0.103-1.414-0.175-2.137-0.175c-8.244,0-14.95,6.707-14.95,14.951c0,2.302,0.568,4.46,1.499,6.408h-5.989
	c-1.076-9.585-9.137-17.087-19.004-17.087c-3.952,0-7.621,1.205-10.68,3.255V57.528H149.818z M170.532,91.702h-20.927
	c0.991-4.87,5.306-8.543,10.466-8.543S169.536,86.833,170.532,91.702z M136.572,108.789v-8.543h4.271h0.782h33.178h34.387h4.272
	v8.543h-4.272h-68.347H136.572z M236.414,285.642c-0.577,3.896-3.977,6.83-7.916,6.83H121.535c-3.934,0-7.338-2.938-7.915-6.83
	l-11.683-79.193c-4.442-31.824,12.311-58.873,44.814-72.354l2.635-1.093v-15.669h51.261v15.669l2.636,1.093
	c23.541,9.765,38.761,26.668,43.712,47.313h-93.336v72.619h87.416L236.414,285.642z"/>
</svg>
