<?xml version="1.0" encoding="utf-8"?>
<!-- Generator: Adobe Illustrator 16.0.0, SVG Export Plug-In . SVG Version: 6.00 Build 0)  -->
<!DOCTYPE svg PUBLIC "-//W3C//DTD SVG 1.1//EN" "http://www.w3.org/Graphics/SVG/1.1/DTD/svg11.dtd">
<svg version="1.1" id="Capa_1" xmlns="http://www.w3.org/2000/svg" xmlns:xlink="http://www.w3.org/1999/xlink" x="0px" y="0px"
	 width="350px" height="350px" viewBox="0 0 350 350" enable-background="new 0 0 350 350" xml:space="preserve">
<g>
	<g>
		<path d="M175.163,112.221h-13.336V98.884c0-1.952-1.301-3.252-3.253-3.252s-3.253,1.301-3.253,3.252v13.337h-13.336
			c-1.952,0-3.253,1.301-3.253,3.253c0,1.952,1.301,3.252,3.253,3.252h13.336v13.337c0,1.952,1.301,3.252,3.253,3.252
			s3.253-1.301,3.253-3.252v-13.337h13.336c1.952,0,3.252-1.301,3.252-3.252C178.415,113.521,177.114,112.221,175.163,112.221z"/>
	</g>
</g>
<g>
	<g>
		<path d="M258.109,52.043c0-0.976-0.65-1.626-1.301-2.277c-0.65-0.651-1.626-0.651-2.276-0.651L134.177,64.729h-0.325H68.145
			c-1.952,0-3.253,1.301-3.253,3.253v229.649c0,1.951,1.301,3.252,3.253,3.252h175.977c1.952,0,3.253-1.301,3.253-3.252v-20.168
			l34.806-4.229c0.976,0,1.626-0.651,2.276-1.302s0.65-1.626,0.65-2.276L258.109,52.043z M240.87,294.704H71.398V71.235H240.87
			V294.704z M247.375,270.959V67.982c0-1.952-1.301-3.253-3.253-3.253h-60.827l68.634-8.783l26.349,211.433L247.375,270.959z"/>
	</g>
</g>
<g>
	<g>
		<path d="M217.449,164.917H94.818c-1.952,0-3.252,1.301-3.252,3.252s1.301,3.253,3.252,3.253h122.631
			c1.951,0,3.253-1.301,3.253-3.253S219.4,164.917,217.449,164.917z"/>
	</g>
</g>
<g>
	<g>
		<path d="M217.449,192.891H94.818c-1.952,0-3.252,1.301-3.252,3.253c0,1.627,1.301,3.252,3.252,3.252h122.631
			c1.951,0,3.253-1.301,3.253-3.252C220.702,194.191,219.4,192.891,217.449,192.891z"/>
	</g>
</g>
<g>
	<g>
		<path d="M217.449,220.539H94.818c-1.952,0-3.252,1.302-3.252,3.254c0,1.625,1.301,3.252,3.252,3.252h122.631
			c1.951,0,3.253-1.301,3.253-3.252C220.702,221.841,219.4,220.539,217.449,220.539z"/>
	</g>
</g>
<g>
	<g>
		<path d="M217.449,248.188H94.818c-1.952,0-3.252,1.301-3.252,3.252c0,1.952,1.301,3.254,3.252,3.254h122.631
			c1.951,0,3.253-1.302,3.253-3.254C220.702,249.489,219.4,248.188,217.449,248.188z"/>
	</g>
</g>
</svg>
