<?xml version="1.0" encoding="utf-8"?>
<!-- Generator: Adobe Illustrator 16.0.0, SVG Export Plug-In . SVG Version: 6.00 Build 0)  -->
<!DOCTYPE svg PUBLIC "-//W3C//DTD SVG 1.1//EN" "http://www.w3.org/Graphics/SVG/1.1/DTD/svg11.dtd">
<svg version="1.1" id="Layer_1" xmlns="http://www.w3.org/2000/svg" xmlns:xlink="http://www.w3.org/1999/xlink" x="0px" y="0px"
	 width="350px" height="350px" viewBox="0 0 350 350" enable-background="new 0 0 350 350" xml:space="preserve">
<g>
	<path d="M175,122.381c13.299,0,24.119-10.82,24.119-24.119c0-13.298-10.82-24.119-24.119-24.119
		c-13.299,0-24.119,10.82-24.119,24.119C150.881,111.561,161.701,122.381,175,122.381z"/>
	<path d="M180.071,130.183c-0.536-0.584-1.32-0.878-2.113-0.878h-5.916c-0.793,0-1.577,0.294-2.113,0.878
		c-0.831,0.905-0.951,2.212-0.362,3.233l3.162,4.768l-1.48,12.489l2.915,7.755c0.285,0.78,1.387,0.78,1.671,0l2.915-7.755
		l-1.48-12.489l3.162-4.768C181.022,132.395,180.901,131.087,180.071,130.183L180.071,130.183z"/>
	<path d="M137.858,185.896h74.282c1.895,0,3.436-1.541,3.436-3.436v-30.947c0-9.017-5.846-17.023-14.546-19.923l-6.782-2.083
		c-1.241-0.383-2.563,0.276-3.009,1.497L175,175.562l-16.239-44.557c-0.36-0.987-1.292-1.605-2.29-1.605
		c-0.238,0-0.479,0.035-0.716,0.108l-6.731,2.065c-8.755,2.918-14.601,10.924-14.601,19.941v30.947
		C134.423,184.355,135.964,185.896,137.858,185.896L137.858,185.896z"/>
	<path d="M97.787,134.709c13.3,0,24.119-10.82,24.119-24.118c0-13.299-10.82-24.119-24.119-24.119
		c-13.298,0-24.118,10.82-24.118,24.119C73.668,123.89,84.488,134.709,97.787,134.709z"/>
	<path d="M138.842,201.012h-19.21v-37.944c0-12.064-9.781-21.845-21.845-21.845c-12.064,0-21.844,9.781-21.844,21.845v51.542
		c0,11.584,9.39,20.974,20.973,20.974h24.925v34.346c0,3.274,2.654,5.928,5.928,5.928h23.013c3.274,0,5.928-2.653,5.928-5.928
		v-51.051C156.709,209.011,148.71,201.012,138.842,201.012z"/>
	<path d="M252.213,134.709c13.3,0,24.119-10.82,24.119-24.118c0-13.299-10.82-24.119-24.119-24.119
		c-13.298,0-24.118,10.82-24.118,24.119C228.094,123.89,238.913,134.709,252.213,134.709z"/>
	<path d="M252.213,141.223c-12.065,0-21.845,9.781-21.845,21.845v37.943h-19.209c-9.868,0-17.867,7.999-17.867,17.867v51.05
		c0,3.274,2.653,5.929,5.927,5.929h23.014c3.273,0,5.927-2.654,5.927-5.929v-34.345h24.926c11.583,0,20.973-9.391,20.973-20.974
		v-51.542C274.058,151.003,264.277,141.223,252.213,141.223L252.213,141.223z"/>
</g>
</svg>
