<?xml version="1.0" encoding="utf-8"?>
<!-- Generator: Adobe Illustrator 16.0.0, SVG Export Plug-In . SVG Version: 6.00 Build 0)  -->
<!DOCTYPE svg PUBLIC "-//W3C//DTD SVG 1.1//EN" "http://www.w3.org/Graphics/SVG/1.1/DTD/svg11.dtd">
<svg version="1.1" id="Capa_1" xmlns="http://www.w3.org/2000/svg" xmlns:xlink="http://www.w3.org/1999/xlink" x="0px" y="0px"
	 width="350px" height="350px" viewBox="0 0 350 350" enable-background="new 0 0 350 350" xml:space="preserve">
<rect x="118.256" y="109.526" fill="#DBC27D" width="113.488" height="17.459"/>
<g>
	<rect x="166.271" y="288.488" fill="#D75A4A" width="17.459" height="13.095"/>
	<path fill="#D75A4A" d="M131.351,126.985v103.327c0,6.395,3.012,12.418,8.128,16.26l16.316,12.234
		c5.413,4.06,8.953,10.026,10.065,16.587h18.281c1.112-6.561,4.652-12.527,10.065-16.587l16.315-12.234
		c5.116-3.842,8.128-9.865,8.128-16.26V126.985H131.351z"/>
</g>
<path fill="#E3D5A6" d="M218.649,109.526h-87.299V88.587c0-6.381,1.113-12.728,3.304-18.86l5.435-15.216
	c1.288-3.61,5.404-6.094,10.092-6.094h49.638c4.688,0,8.804,2.484,10.092,6.089l5.435,15.221c2.191,6.133,3.304,12.479,3.304,18.86
	V109.526z"/>
<path fill="#556080" d="M253.478,139.626c-0.031-0.292-0.083-0.567-0.17-0.855c-0.092-0.292-0.215-0.554-0.367-0.816
	c-0.074-0.135-0.092-0.284-0.184-0.41c-0.069-0.096-0.175-0.144-0.248-0.236c-0.201-0.235-0.419-0.432-0.669-0.62
	c-0.213-0.166-0.418-0.319-0.654-0.441c-0.244-0.126-0.502-0.209-0.772-0.288c-0.288-0.083-0.563-0.148-0.864-0.175
	c-0.117-0.009-0.222-0.07-0.345-0.07c-0.161,0-0.297,0.074-0.449,0.092c-0.297,0.03-0.576,0.083-0.865,0.174
	c-0.288,0.092-0.545,0.214-0.802,0.358c-0.136,0.078-0.288,0.096-0.42,0.188l-28.612,20.437l-41.354-16.543l0,0l-0.079-0.031
	c-0.239-0.096-0.488-0.083-0.733-0.135c-0.283-0.061-0.553-0.166-0.846-0.17c-0.018,0.005-0.031-0.004-0.044-0.004
	s-0.026,0.009-0.039,0.009c-0.306,0.004-0.589,0.109-0.882,0.174c-0.231,0.052-0.471,0.035-0.698,0.126l-41.437,16.574
	l-28.612-20.437c-0.131-0.091-0.284-0.109-0.419-0.188c-0.258-0.148-0.515-0.267-0.803-0.358c-0.288-0.091-0.563-0.144-0.86-0.174
	c-0.157-0.018-0.292-0.092-0.454-0.092c-0.122,0-0.227,0.061-0.349,0.07c-0.297,0.026-0.567,0.087-0.855,0.17
	c-0.275,0.079-0.532,0.162-0.781,0.292c-0.236,0.122-0.437,0.275-0.65,0.437c-0.245,0.192-0.467,0.384-0.668,0.624
	c-0.074,0.087-0.179,0.135-0.249,0.231c-0.092,0.127-0.109,0.279-0.184,0.41c-0.148,0.262-0.271,0.524-0.367,0.816
	c-0.091,0.284-0.144,0.563-0.174,0.855c-0.013,0.162-0.087,0.297-0.087,0.458v48.014v52.38c0,0.213,0.091,0.393,0.122,0.598
	c0.043,0.31,0.074,0.606,0.184,0.904c0.109,0.301,0.284,0.549,0.458,0.815c0.109,0.17,0.157,0.366,0.292,0.523
	c0.035,0.04,0.087,0.053,0.123,0.092c0.318,0.345,0.698,0.606,1.113,0.834c0.118,0.065,0.209,0.171,0.332,0.223
	c0.533,0.235,1.118,0.375,1.742,0.375c0.542,0,1.078-0.118,1.593-0.322c0.21-0.084,0.38-0.224,0.572-0.337
	c0.227-0.131,0.467-0.218,0.677-0.393l28.546-24.471l41.197,16.479c0.048,0.021,0.1,0.013,0.153,0.03
	c0.467,0.171,0.96,0.284,1.466,0.284c0.507,0,1-0.113,1.467-0.284c0.048-0.018,0.1-0.009,0.152-0.03l0.079-0.03l0,0l41.117-16.448
	l28.548,24.471c0.204,0.175,0.449,0.262,0.676,0.397c0.192,0.113,0.362,0.253,0.572,0.336c0.515,0.2,1.052,0.318,1.593,0.318
	c0.624,0,1.209-0.14,1.746-0.375c0.122-0.052,0.214-0.157,0.332-0.223c0.414-0.228,0.798-0.489,1.113-0.838
	c0.034-0.04,0.087-0.053,0.121-0.092c0.136-0.157,0.184-0.354,0.293-0.524c0.171-0.266,0.345-0.515,0.458-0.815
	c0.109-0.297,0.14-0.594,0.184-0.904c0.026-0.2,0.118-0.38,0.118-0.593v-52.38v-48.014
	C253.569,139.919,253.494,139.784,253.478,139.626z M223.014,183.729v-19.576l21.825-15.587v35.164H223.014z M214.285,183.729
	h-34.92v-32.837l34.92,13.968V183.729z M170.635,183.729h-34.919V164.86l34.919-13.968V183.729z M126.986,183.729h-21.825v-35.168
	l21.825,15.587V183.729z M105.161,192.46h21.825v19.817l-21.825,18.708V192.46z M135.715,192.46h34.919v32.837l-34.919-13.968
	V192.46z M179.365,192.46h34.92v18.869l-34.92,13.968V192.46z M223.014,192.46h21.825v38.525l-21.825-18.708V192.46z"/>
<rect x="135.715" y="275.394" fill="#AA453D" width="78.57" height="13.095"/>
<g>
	<circle fill="#FCE092" cx="166.271" cy="52.781" r="4.365"/>
	<circle fill="#FCE092" cx="192.46" cy="52.781" r="4.365"/>
	<circle fill="#FCE092" cx="140.081" cy="78.971" r="4.365"/>
	<circle fill="#FCE092" cx="153.175" cy="65.876" r="4.365"/>
	<circle fill="#FCE092" cx="153.175" cy="92.066" r="4.365"/>
	<circle fill="#FCE092" cx="166.271" cy="78.971" r="4.365"/>
	<circle fill="#FCE092" cx="179.365" cy="65.876" r="4.365"/>
	<circle fill="#FCE092" cx="179.365" cy="92.066" r="4.365"/>
	<circle fill="#FCE092" cx="192.46" cy="78.971" r="4.365"/>
	<circle fill="#FCE092" cx="205.555" cy="65.876" r="4.365"/>
	<circle fill="#FCE092" cx="205.555" cy="92.066" r="4.365"/>
	<circle fill="#FCE092" cx="140.081" cy="105.161" r="4.365"/>
	<circle fill="#FCE092" cx="166.271" cy="105.161" r="4.365"/>
	<circle fill="#FCE092" cx="192.46" cy="105.161" r="4.365"/>
</g>
</svg>
