<?xml version="1.0" encoding="utf-8"?>
<!-- Generator: Adobe Illustrator 16.0.0, SVG Export Plug-In . SVG Version: 6.00 Build 0)  -->
<!DOCTYPE svg PUBLIC "-//W3C//DTD SVG 1.1//EN" "http://www.w3.org/Graphics/SVG/1.1/DTD/svg11.dtd">
<svg version="1.1" id="Layer_1" xmlns="http://www.w3.org/2000/svg" xmlns:xlink="http://www.w3.org/1999/xlink" x="0px" y="0px"
	 width="350px" height="350px" viewBox="0 0 350 350" enable-background="new 0 0 350 350" xml:space="preserve">
<path fill="#C3DDF7" d="M243.825,86.505V52.912c0-3.38-2.767-6.146-6.146-6.146H112.323c-3.38,0-6.146,2.766-6.146,6.146v33.593
	H243.825z"/>
<g opacity="0.2">
	<rect x="170.863" y="46.766" fill="#2F3953" width="8.275" height="39.738"/>
	<rect x="146.322" y="46.766" fill="#2F3953" width="8.274" height="39.738"/>
	<rect x="121.78" y="46.766" fill="#2F3953" width="8.274" height="39.738"/>
	<rect x="195.403" y="46.766" fill="#2F3953" width="8.275" height="39.738"/>
	<rect x="219.945" y="46.766" fill="#2F3953" width="8.274" height="39.738"/>
</g>
<path fill="#C3DDF7" d="M82.749,144.66v152.426c0,3.382,2.766,6.147,6.146,6.147h172.212c3.38,0,6.145-2.766,6.145-6.147V144.66
	H82.749z"/>
<polygon fill="#89AAED" points="243.825,86.505 106.176,86.505 82.749,144.66 267.252,144.66 "/>
<path fill="#FFFFFF" d="M225.41,263.548c0-3.101-2.536-5.639-5.638-5.639h-89.544c-3.101,0-5.638,2.537-5.638,5.639v17.008
	c0,3.1,2.537,5.638,5.638,5.638h89.544c3.102,0,5.638-2.537,5.638-5.638V263.548L225.41,263.548z"/>
<path fill="#FDBA55" d="M209.183,247.938h-68.365c-2.285,0-4.138-1.852-4.138-4.137c0-2.286,1.853-4.139,4.138-4.139h68.365
	c2.285,0,4.137,1.853,4.137,4.139C213.319,246.086,211.468,247.938,209.183,247.938z"/>
<g>
	<path fill="#3F4963" d="M203.988,276.188h-57.977c-2.285,0-4.137-1.852-4.137-4.138c0-2.285,1.852-4.137,4.137-4.137h57.977
		c2.286,0,4.138,1.852,4.138,4.137C208.126,274.337,206.274,276.188,203.988,276.188z"/>
	<path fill="#3F4963" d="M249.771,101.269c-5.857,3.568-8.828,9.465-21.63,9.465c-16.912,0-19.919,21.139,2.255,21.139
		c11.488,0,20.968-3.767,29.995-4.243L249.771,101.269z"/>
	<path fill="#3F4963" d="M132.156,104.897c-4.965-8.158-14.606-13.278-27.497-14.626l-12.257,30.427
		c6.311-2.533,13.101-3.871,18.333-0.297C122.291,128.292,140.049,117.864,132.156,104.897z"/>
	<path fill="#3F4963" d="M154.378,107.225c-8.713,2.8-12.777,9.771-11.274,14.657c1.503,4.886,2.63,12.589,15.972,12.214
		c13.342-0.375,16.687-10.532,15.785-14.916C173.548,112.79,164.902,103.842,154.378,107.225z"/>
	<path fill="#3F4963" d="M195.989,95.849c-10.273,2.737-12.939,12.909-5.904,17.416c7.035,4.508,15.577-5.543,20.604-7.553
		C215.715,103.702,213.201,91.262,195.989,95.849z"/>
	<path fill="#3F4963" d="M92.203,222.289c-3.4-0.785-6.583-0.895-9.455-0.489v27.821c8.205,0.48,17.816-2.285,23.219-1.708
		C114.813,248.859,120.727,228.86,92.203,222.289z"/>
	<path fill="#3F4963" d="M254.357,242.593c-12.241,3.935-17.954,13.729-15.842,20.594c2.113,6.863,3.696,17.688,22.443,17.161
		c2.306-0.065,4.397-0.34,6.293-0.78v-36.979C263.371,241.315,258.994,241.103,254.357,242.593z"/>
	<circle fill="#3F4963" cx="114.929" cy="183.169" r="7.783"/>
	<circle fill="#3F4963" cx="235.07" cy="183.169" r="7.783"/>
</g>
<g>
	<path fill="#FF9596" d="M123.259,210.213h-16.654c-2.285,0-4.137-1.852-4.137-4.138c0-2.285,1.852-4.137,4.137-4.137h16.654
		c2.285,0,4.137,1.852,4.137,4.137S125.544,210.213,123.259,210.213z"/>
	<path fill="#FF9596" d="M243.4,210.213h-16.654c-2.286,0-4.137-1.852-4.137-4.138c0-2.285,1.851-4.137,4.137-4.137H243.4
		c2.284,0,4.137,1.852,4.137,4.137S245.685,210.213,243.4,210.213z"/>
</g>
<g>
	<path fill="#3F4963" d="M165.256,204.834c-7.655,0-13.883-6.229-13.883-13.884c0-2.285,1.852-4.138,4.137-4.138
		c2.285,0,4.137,1.853,4.137,4.138c0,3.093,2.517,5.608,5.609,5.608c3.093,0,5.609-2.516,5.609-5.608
		c0-2.285,1.852-4.138,4.137-4.138s4.137,1.853,4.137,4.138C179.14,198.605,172.912,204.834,165.256,204.834z"/>
	<path fill="#3F4963" d="M184.749,204.834c-7.655,0-13.883-6.229-13.883-13.884c0-2.285,1.852-4.138,4.137-4.138
		s4.137,1.853,4.137,4.138c0,3.093,2.518,5.608,5.609,5.608c3.093,0,5.608-2.516,5.608-5.608c0-2.285,1.853-4.138,4.138-4.138
		s4.137,1.853,4.137,4.138C198.632,198.605,192.404,204.834,184.749,204.834z"/>
</g>
<path d="M165.256,204.834c3.795,0,7.238-1.532,9.747-4.009c2.509,2.477,5.951,4.009,9.746,4.009c7.655,0,13.883-6.228,13.883-13.884
	c0-2.285-1.852-4.138-4.137-4.138s-4.138,1.853-4.138,4.138c0,3.093-2.516,5.608-5.608,5.608c-3.094,0-5.609-2.516-5.609-5.608
	c0-2.285-1.852-4.138-4.137-4.138c-2.286,0-4.137,1.853-4.137,4.138c0,3.093-2.516,5.608-5.609,5.608s-5.609-2.516-5.609-5.608
	c0-2.285-1.852-4.138-4.137-4.138c-2.285,0-4.137,1.853-4.137,4.138C151.373,198.606,157.601,204.834,165.256,204.834z
	 M235.074,190.954c4.299,0,7.783-3.485,7.783-7.786c0-4.299-3.484-7.784-7.783-7.784c-4.301,0-7.784,3.485-7.784,7.784
	C227.29,187.468,230.773,190.954,235.074,190.954z M114.932,190.954c4.299,0,7.784-3.485,7.784-7.786
	c0-4.299-3.485-7.784-7.784-7.784s-7.785,3.485-7.785,7.784C107.147,187.468,110.633,190.954,114.932,190.954z M146.012,276.188
	h57.977c2.286,0,4.138-1.852,4.138-4.138c0-2.285-1.852-4.137-4.138-4.137h-57.977c-2.286,0-4.137,1.852-4.137,4.137
	C141.875,274.337,143.726,276.188,146.012,276.188z M271.087,143.114h0.002l-0.02-0.048c-0.003-0.008-0.006-0.016-0.009-0.024
	l-23.099-57.338V52.912c0-5.67-4.613-10.283-10.283-10.283H112.323c-5.67,0-10.283,4.613-10.283,10.283v32.791l-23.099,57.338
	c-0.004,0.008-0.007,0.016-0.01,0.024l-0.019,0.048h0.001c-0.193,0.479-0.302,0.999-0.302,1.546v152.426
	c0,5.672,4.613,10.285,10.283,10.285h172.212c5.669,0,10.282-4.613,10.282-10.285V144.66
	C271.39,144.113,271.281,143.592,271.087,143.114z M110.313,52.912c0-1.089,0.92-2.009,2.009-2.009h125.356
	c1.089,0,2.009,0.919,2.009,2.009v29.457H110.313V52.912z M108.97,90.643h132.062l20.093,49.88H88.875L108.97,90.643z
	 M263.115,297.087c0,1.091-0.92,2.01-2.009,2.01H88.895c-1.089,0-2.009-0.919-2.009-2.01v-148.29h176.229V297.087L263.115,297.087z
	 M120.453,280.556c0,5.39,4.385,9.775,9.775,9.775h89.544c5.39,0,9.776-4.386,9.776-9.775v-17.008c0-5.391-4.385-9.775-9.776-9.775
	h-89.544c-5.39,0-9.775,4.385-9.775,9.775V280.556z M128.728,263.548c0-0.814,0.687-1.501,1.5-1.501h89.544
	c0.813,0,1.501,0.687,1.501,1.501v17.008c0,0.813-0.687,1.501-1.501,1.501h-89.544c-0.813,0-1.5-0.688-1.5-1.501V263.548z"/>
</svg>
