<?xml version="1.0" encoding="utf-8"?>
<!-- Generator: Adobe Illustrator 16.0.0, SVG Export Plug-In . SVG Version: 6.00 Build 0)  -->
<!DOCTYPE svg PUBLIC "-//W3C//DTD SVG 1.1//EN" "http://www.w3.org/Graphics/SVG/1.1/DTD/svg11.dtd">
<svg version="1.1" id="Capa_1" xmlns="http://www.w3.org/2000/svg" xmlns:xlink="http://www.w3.org/1999/xlink" x="0px" y="0px"
	 width="350px" height="350px" viewBox="0 0 350 350" enable-background="new 0 0 350 350" xml:space="preserve">
<g>
	<circle cx="205.533" cy="106.3" r="3.817"/>
	<circle cx="190.268" cy="106.3" r="3.817"/>
	<circle cx="182.633" cy="113.933" r="3.817"/>
	<circle cx="197.9" cy="113.933" r="3.817"/>
	<circle cx="213.167" cy="113.933" r="3.817"/>
	<circle cx="136.833" cy="113.933" r="3.817"/>
	<circle cx="129.2" cy="121.567" r="3.817"/>
	<circle cx="144.467" cy="121.567" r="3.817"/>
	<circle cx="136.833" cy="129.2" r="3.817"/>
	<circle cx="205.533" cy="121.567" r="3.817"/>
	<circle cx="213.167" cy="129.2" r="3.817"/>
	<circle cx="220.8" cy="136.833" r="3.817"/>
	<circle cx="152.1" cy="113.933" r="3.817"/>
	<circle cx="167.367" cy="113.933" r="3.817"/>
	<path d="M286.76,199.823c0.054-0.24,0.114-0.477,0.164-0.717c0.538-2.496,0.996-5.02,1.366-7.573
		c0.042-0.298,0.072-0.592,0.115-0.889c0.294-2.137,0.522-4.294,0.694-6.466c0.049-0.595,0.099-1.19,0.137-1.79
		c0.157-2.445,0.264-4.904,0.264-7.389c0-1.847-0.05-3.687-0.142-5.523c-0.034-0.755-0.103-1.5-0.152-2.251
		c-0.072-1.054-0.142-2.107-0.24-3.153c-0.092-0.95-0.21-1.893-0.324-2.836c-0.1-0.824-0.199-1.648-0.313-2.469
		c-0.148-1.053-0.324-2.103-0.504-3.145c-0.118-0.688-0.236-1.374-0.37-2.057c-0.214-1.123-0.442-2.237-0.69-3.348
		c-0.134-0.591-0.271-1.183-0.412-1.775c-0.279-1.16-0.565-2.316-0.878-3.465c-0.146-0.53-0.298-1.057-0.451-1.583
		c-0.339-1.18-0.687-2.355-1.061-3.519c-0.16-0.497-0.336-0.989-0.504-1.481c-0.396-1.172-0.797-2.344-1.229-3.5
		c-0.191-0.504-0.396-1.004-0.596-1.508c-0.442-1.126-0.878-2.251-1.355-3.362c-0.286-0.664-0.599-1.317-0.896-1.977
		c-0.419-0.931-0.824-1.866-1.271-2.782c-0.775-1.6-1.588-3.184-2.435-4.748c-0.077-0.141-0.161-0.279-0.237-0.416
		c-0.802-1.465-1.637-2.916-2.504-4.351c-0.084-0.137-0.176-0.274-0.259-0.412c-0.874-1.427-1.775-2.836-2.714-4.229
		c-0.073-0.111-0.152-0.217-0.229-0.328c-0.954-1.404-1.938-2.79-2.954-4.153c-0.076-0.099-0.152-0.198-0.229-0.297
		c-1.019-1.359-2.071-2.699-3.156-4.015c-0.08-0.099-0.163-0.195-0.248-0.294c-0.702-0.847-1.396-1.702-2.125-2.534l-1.47-1.672
		l-0.05,0.008C238.548,74.904,208.426,60.5,175,60.5c-30.384,0-58.021,11.919-78.539,31.297l-0.1-0.084l-2.496,2.5
		c-18.645,18.72-30.014,42.766-32.72,68.688c-0.015,0.152-0.038,0.301-0.057,0.454c-0.161,1.606-0.275,3.225-0.37,4.847
		c-0.02,0.328-0.054,0.649-0.073,0.977c-0.096,1.931-0.145,3.87-0.145,5.82c0,2.004,0.053,4,0.157,5.977
		c0.045,0.897,0.137,1.791,0.206,2.684c0.08,1.072,0.145,2.148,0.255,3.214c0.111,1.057,0.264,2.106,0.401,3.156
		c0.118,0.89,0.218,1.786,0.355,2.671c0.164,1.065,0.374,2.119,0.569,3.176c0.16,0.874,0.309,1.748,0.492,2.614
		c0.21,1,0.454,1.989,0.691,2.981c0.221,0.927,0.435,1.854,0.675,2.771c0.241,0.909,0.508,1.81,0.771,2.714
		c0.29,1,0.584,2,0.901,2.992c0.263,0.82,0.55,1.637,0.832,2.45c0.366,1.062,0.744,2.118,1.141,3.164
		c0.294,0.771,0.6,1.534,0.908,2.298c0.424,1.046,0.863,2.088,1.317,3.118c0.179,0.412,0.336,0.828,0.523,1.24l1.095,2.412
		l0.035-0.004C90.346,262.982,129.635,289.5,175,289.5c51.037,0,94.367-33.571,109.107-79.787l0.037-0.004l0.718-2.439
		c0.069-0.229,0.111-0.461,0.176-0.69C285.676,204.354,286.252,202.102,286.76,199.823z M281.657,181.416
		c-0.035,0.558-0.085,1.111-0.126,1.668c-0.126,1.66-0.286,3.32-0.489,4.973c-0.061,0.512-0.126,1.023-0.194,1.53
		c-0.279,2.008-0.599,4.008-0.988,6c-0.02,0.092-0.03,0.184-0.05,0.271c-0.438,2.215-0.954,4.417-1.534,6.604
		c-0.012,0.05-0.03,0.1-0.042,0.148c-12.66,0.547-25.263-5.053-31.411-14.171c-8.6-12.756-8.05-34.338-4.676-50.285l0.084-0.405
		c1.649-7.797,5.996-28.361,14.515-31.472c0.146,0.172,0.298,0.336,0.439,0.508c1.618,1.947,3.145,3.954,4.61,5.996
		c0.394,0.55,0.79,1.095,1.171,1.648c1.455,2.111,2.833,4.268,4.131,6.47c0.286,0.484,0.564,0.973,0.839,1.462
		c1.332,2.347,2.592,4.732,3.737,7.167c0.134,0.279,0.255,0.565,0.385,0.847c2.474,5.366,4.504,10.927,6.058,16.633
		c0.034,0.13,0.076,0.256,0.11,0.386c0.744,2.782,1.362,5.599,1.882,8.438c0.061,0.332,0.122,0.668,0.179,1.004
		c0.478,2.763,0.852,5.553,1.107,8.358c0.034,0.382,0.057,0.771,0.088,1.153c0.236,2.862,0.385,5.751,0.385,8.652
		C281.866,177.142,281.786,179.278,281.657,181.416z M251.467,100.453c-9.305,5.759-13.61,21.64-15.907,32.014
		c-0.668-2.53-1.302-4.671-1.782-6.19c-2.249-7.072-4.97-14.431-9.646-20.339c-5.374-6.782-15.236-14.328-24.189-14.854
		c-6.786-0.424-13.348,1.828-19.664,3.992c-5.404,1.847-10.511,3.595-15.442,3.633c-3.149-0.038-6.599-0.282-10.321-0.607
		c-8.038-0.706-16.358-1.427-23.403,0.783c-9.794,3.087-14.889,16.629-17.782,27.716c-0.745-3.633-1.577-7.061-2.519-10.263
		c-2.702-9.175-5.401-15.11-8.817-19.278C121.116,79.141,146.791,68.133,175,68.133C204.949,68.133,232.044,80.534,251.467,100.453z
		 M175.897,198.105c-3.123-1.533-25.145-12.969-25.145-30.697c0-2.11-1.706-3.817-3.817-3.817c-2.11,0-3.816,1.707-3.816,3.817
		c0,16,12.942,27.285,21.831,33.16c-0.233,0.095-0.454,0.198-0.706,0.282c-14.354,4.98-33.167-0.718-41.06-12.42
		c-4.741-7.029-6.637-16.751-6.878-26.724c0.027-2.702,0.141-5.477,0.443-8.4l0.035-0.336l-0.027-0.339
		c-0.046-0.596-0.1-1.157-0.145-1.745c0.393-4.446,1.057-8.771,1.896-12.74l0.084-0.405c0.294-1.393,0.68-3.209,1.157-5.244
		c0.553,0.302,1.149,0.519,1.817,0.519c2.106,0,3.816-1.709,3.816-3.816c0-2.092-1.687-3.782-3.771-3.809
		c1.661-5.66,3.931-11.587,6.92-15.412c0.221,0.042,0.431,0.137,0.668,0.137c2.091,0,3.778-1.683,3.805-3.767
		c0.137-0.053,0.263-0.138,0.4-0.183c2.218-0.698,4.786-0.958,7.481-1.046c-0.123,0.374-0.237,0.76-0.237,1.179
		c0,2.107,1.71,3.817,3.817,3.817c2.106,0,3.816-1.71,3.816-3.817c0-0.378-0.11-0.717-0.214-1.061
		c1.92,0.125,3.859,0.293,5.783,0.465c0.74,0.065,1.431,0.107,2.152,0.164c-0.019,0.149-0.087,0.279-0.087,0.431
		c0,2.107,1.709,3.817,3.816,3.817s3.816-1.71,3.816-3.817c0-0.003,0-0.007,0-0.011c0.443,0.011,0.905,0.046,1.348,0.05
		c2.175-0.015,4.313-0.336,6.431-0.756c-0.049,0.241-0.145,0.462-0.145,0.717c0,2.107,1.71,3.817,3.817,3.817
		c2.107,0,3.817-1.71,3.817-3.817c0-0.923-0.371-1.74-0.92-2.4c1.629-0.515,3.251-1.054,4.851-1.599
		c3.95-1.351,7.744-2.576,11.423-3.187c0.229,1.885,1.779,3.37,3.729,3.37c1.973,0,3.538-1.516,3.74-3.435
		c5.843,1.385,12.614,6.71,16.507,11.625c1.778,2.245,3.218,4.855,4.48,7.607c-0.55-0.31-1.152-0.531-1.828-0.531
		c-2.107,0-3.817,1.71-3.817,3.817c0,2.106,1.71,3.816,3.817,3.816c1.748,0,3.16-1.202,3.614-2.805
		c0.485,1.29,0.943,2.58,1.378,3.885c-0.722,0.695-1.175,1.66-1.175,2.737c0,1.874,1.378,3.362,3.159,3.683
		c3.39,12.198,8.683,37.938-1.167,54.235c-4.32,7.152-10.942,11.435-20.244,13.095c-6.675,1.188-12.832,1.309-19.373,0.367
		c-1.462-0.211-3.348-0.699-5.172-1.172C179.824,198.893,177.794,198.396,175.897,198.105z M110.105,177.378l0.011,0.756
		c0.065,7.984-6.793,25.285-16.042,31.911c-4.916,3.519-10.797,5.713-17.515,6.538c-1.385-3.271-2.599-6.588-3.645-9.946
		c-0.305-0.978-0.569-1.974-0.843-2.966c-0.191-0.688-0.405-1.37-0.584-2.065c-0.37-1.438-0.699-2.893-1.007-4.354
		c-0.058-0.26-0.126-0.515-0.18-0.778c-0.32-1.564-0.596-3.145-0.847-4.736c-0.027-0.172-0.065-0.34-0.092-0.516
		c-0.24-1.584-0.439-3.179-0.61-4.782c-0.02-0.187-0.05-0.37-0.069-0.558c-0.157-1.53-0.264-3.071-0.351-4.618
		c-0.016-0.267-0.046-0.534-0.062-0.801c-0.091-1.81-0.137-3.63-0.137-5.462c0-1.786,0.05-3.561,0.133-5.324
		c0.023-0.439,0.065-0.87,0.092-1.309c0.084-1.347,0.176-2.695,0.309-4.027c0.038-0.4,0.096-0.801,0.142-1.202
		c0.152-1.389,0.32-2.778,0.53-4.152c0.042-0.279,0.092-0.557,0.138-0.836c0.244-1.523,0.507-3.042,0.813-4.545
		c0.023-0.111,0.046-0.218,0.069-0.325c4.011-19.354,13.282-36.796,26.232-50.792c2.512,3.328,4.633,8.301,6.904,16.003
		c2.623,8.904,4.412,19.583,5.477,32.537c-0.29,3.691-0.401,7.466-0.29,11.225C108.667,167.687,109.102,172.775,110.105,177.378z
		 M175,281.867c-41.376,0-77.307-23.652-95.058-58.128c6.981-1.191,13.232-3.66,18.576-7.492
		c7.366-5.275,13.694-16.061,16.931-25.874c0.45,0.79,0.908,1.573,1.412,2.32c7.401,10.981,21.9,17.6,36.156,17.6
		c4.691,0,9.358-0.718,13.736-2.233c1.268-0.438,2.34-0.953,3.347-1.446c1.833-0.893,2.623-1.248,4.142-1.069
		c1.576,0.188,3.657,0.727,5.664,1.249c2.031,0.526,4.126,1.068,6.008,1.343c7.369,1.046,14.297,0.92,21.801-0.407
		c11.427-2.034,19.984-7.642,25.435-16.66c1.271-2.107,2.274-4.359,3.145-6.668c1.13,2.978,2.503,5.778,4.202,8.297
		c7.252,10.756,20.98,17.404,35.373,17.558C261.264,251.905,221.574,281.867,175,281.867z"/>
</g>
</svg>
