<?xml version="1.0" encoding="utf-8"?>
<!-- Generator: Adobe Illustrator 16.0.0, SVG Export Plug-In . SVG Version: 6.00 Build 0)  -->
<!DOCTYPE svg PUBLIC "-//W3C//DTD SVG 1.1//EN" "http://www.w3.org/Graphics/SVG/1.1/DTD/svg11.dtd">
<svg version="1.1" id="Layer_1" xmlns="http://www.w3.org/2000/svg" xmlns:xlink="http://www.w3.org/1999/xlink" x="0px" y="0px"
	 width="350px" height="350px" viewBox="0 0 350 350" enable-background="new 0 0 350 350" xml:space="preserve">
<g>
	<g>
		<g>
			<path fill="#5C546A" d="M92.848,216.799c-1.448,0-2.837-0.823-3.484-2.227c-0.887-1.921-0.049-4.199,1.875-5.086l50.95-23.516
				c1.927-0.887,4.2-0.045,5.086,1.875s0.049,4.199-1.875,5.086l-50.95,23.516C93.929,216.687,93.383,216.799,92.848,216.799z"/>
		</g>
	</g>
	<g>
		<g>
			<path fill="#5C546A" d="M150.714,154.441c-0.981,0-1.961-0.374-2.71-1.123l-33.755-33.755c-1.497-1.497-1.497-3.923,0-5.42
				s3.922-1.497,5.419,0l33.756,33.755c1.497,1.497,1.497,3.922,0,5.419C152.675,154.067,151.694,154.441,150.714,154.441z"/>
		</g>
	</g>
	<g>
		<g>
			<path fill="#5C546A" d="M199.497,154.441c-0.981,0-1.962-0.374-2.711-1.123c-1.496-1.497-1.496-3.922,0-5.419l48.622-48.618
				c1.497-1.497,3.922-1.497,5.42,0c1.497,1.497,1.497,3.922,0,5.419l-48.623,48.618
				C201.457,154.067,200.477,154.441,199.497,154.441z"/>
		</g>
	</g>
	<g>
		<g>
			<path fill="#5C546A" d="M267.744,271.472c-0.979,0-1.961-0.374-2.709-1.123l-68.253-68.251c-1.496-1.498-1.496-3.923,0-5.419
				c1.498-1.498,3.923-1.498,5.42,0l68.252,68.251c1.497,1.498,1.497,3.923,0,5.42C269.706,271.098,268.725,271.472,267.744,271.472
				z"/>
		</g>
	</g>
	<g>
		<g>
			<path fill="#5C546A" d="M181.374,247.818c-1.961,0-3.63-1.497-3.813-3.484l-3.151-34.639c-0.191-2.107,1.362-3.975,3.47-4.165
				c2.145-0.185,3.971,1.366,4.165,3.469l3.151,34.639c0.19,2.107-1.362,3.975-3.469,4.166
				C181.605,247.814,181.49,247.818,181.374,247.818z"/>
		</g>
	</g>
	<g>
		<circle fill="#FF4F19" cx="175.105" cy="175" r="38.325"/>
	</g>
	<g>
		<circle fill="#FF8C62" cx="184.581" cy="165.419" r="13.413"/>
	</g>
	<g>
		<circle fill="#FF9100" cx="75.302" cy="220.938" r="22.942"/>
	</g>
	<g>
		<circle fill="#FFCD00" cx="80.975" cy="215.203" r="8.03"/>
	</g>
	<g>
		<circle fill="#FFCD00" cx="267.033" cy="82.967" r="30.607"/>
	</g>
	<g>
		<circle fill="#FFE671" cx="274.602" cy="75.315" r="10.713"/>
	</g>
	<g>
		<circle fill="#00C37A" cx="105.962" cy="106.067" r="19.11"/>
	</g>
	<g>
		<circle fill="#60DC4D" cx="110.688" cy="101.29" r="6.689"/>
	</g>
	<g>
		<circle fill="#4CD7FF" cx="278.426" cy="278.531" r="19.11"/>
	</g>
	<g>
		<circle fill="#AEEFFF" cx="283.151" cy="273.753" r="6.689"/>
	</g>
	<g>
		<circle fill="#868491" cx="182.717" cy="259.368" r="19.11"/>
	</g>
	<g>
		<circle fill="#B4B6BC" cx="187.443" cy="254.591" r="6.688"/>
	</g>
</g>
</svg>
