<?xml version="1.0" encoding="utf-8"?>
<!-- Generator: Adobe Illustrator 16.0.0, SVG Export Plug-In . SVG Version: 6.00 Build 0)  -->
<!DOCTYPE svg PUBLIC "-//W3C//DTD SVG 1.1//EN" "http://www.w3.org/Graphics/SVG/1.1/DTD/svg11.dtd">
<svg version="1.1" id="Layer_1" xmlns="http://www.w3.org/2000/svg" xmlns:xlink="http://www.w3.org/1999/xlink" x="0px" y="0px"
	 width="350px" height="350px" viewBox="0 0 350 350" enable-background="new 0 0 350 350" xml:space="preserve">
<g>
	<g>
		<path d="M277.725,245.956c-6.507,0-12.563,1.969-17.604,5.339l-34.178-34.183c1.027-1.379,1.991-2.819,2.863-4.331
			c12.07-20.909,4.881-47.74-16.026-59.811c-1.512-0.874-3.065-1.638-4.646-2.32l12.509-46.688c0.691,0.046,1.386,0.07,2.082,0.07
			c5.386,0,10.842-1.369,15.832-4.251c15.172-8.76,20.388-28.229,11.629-43.401c-8.76-15.172-28.229-20.387-43.401-11.629
			c-15.172,8.76-20.388,28.229-11.629,43.401c3.254,5.635,7.988,9.889,13.427,12.572l-12.505,46.675
			c-5.463-0.651-11.052-0.27-16.524,1.197c-11.297,3.027-20.739,10.271-26.586,20.4c-4.912,8.508-6.634,17.996-5.541,27.073
			l-46.674,12.506c-2.75-5.586-7.085-10.236-12.598-13.418c-7.35-4.242-15.911-5.37-24.109-3.174
			c-8.197,2.196-15.049,7.453-19.292,14.803c-8.759,15.171-3.542,34.641,11.628,43.4c4.991,2.882,10.445,4.251,15.833,4.251
			c10.987,0,21.691-5.699,27.568-15.879c3.183-5.515,4.613-11.711,4.202-17.922l46.672-12.506
			c3.592,8.407,9.827,15.765,18.336,20.677c6.747,3.895,14.232,5.886,21.82,5.886c3.803,0,7.634-0.501,11.405-1.512
			c5.472-1.467,10.503-3.931,14.907-7.226l34.163,34.169c-3.369,5.042-5.338,11.096-5.338,17.602
			c0,17.52,14.253,31.772,31.771,31.772c17.52,0,31.771-14.253,31.771-31.772C309.496,260.209,295.242,245.956,277.725,245.956z
			 M205.971,81.909c-5.317-9.208-2.15-21.026,7.058-26.342c9.21-5.317,21.027-2.148,26.343,7.059
			c5.317,9.208,2.15,21.026-7.058,26.343C223.104,94.284,211.286,91.116,205.971,81.909z M88.971,232.313
			c-5.316,9.209-17.134,12.375-26.343,7.06c-9.209-5.316-12.375-17.134-7.059-26.343c2.576-4.461,6.734-7.652,11.709-8.985
			c4.975-1.332,10.172-0.648,14.633,1.928c4.449,2.568,7.634,6.711,8.974,11.671c0.003,0.014,0.005,0.025,0.008,0.038
			c0.004,0.015,0.009,0.027,0.013,0.043C92.226,222.686,91.539,227.866,88.971,232.313z M217.99,206.539
			c-4.179,7.239-10.929,12.418-19.004,14.582c-8.076,2.163-16.51,1.054-23.749-3.127c-7.241-4.18-12.418-10.929-14.583-19.004
			c-2.164-8.075-1.053-16.509,3.126-23.749c4.18-7.241,10.929-12.419,19.005-14.582c2.695-0.722,5.432-1.081,8.15-1.081
			c2.689,0,5.362,0.352,7.961,1.045c0.032,0.009,0.062,0.022,0.093,0.03c0.02,0.005,0.04,0.007,0.061,0.012
			c2.588,0.703,5.102,1.744,7.484,3.121c7.239,4.18,12.418,10.929,14.581,19.005C223.28,190.865,222.171,199.299,217.99,206.539z
			 M277.725,297.011c-10.634,0-19.284-8.65-19.284-19.284s8.649-19.285,19.284-19.285c10.633,0,19.285,8.65,19.285,19.285
			C297.008,288.36,288.357,297.011,277.725,297.011z"/>
	</g>
</g>
<g>
	<g>
		<path d="M190.922,168.951c-7.83,0-15.12,4.204-19.029,10.972c-1.724,2.985-0.702,6.804,2.285,8.528
			c0.983,0.567,2.057,0.838,3.115,0.838c2.157,0,4.256-1.12,5.413-3.122c1.684-2.917,4.832-4.729,8.215-4.729
			c3.447,0,6.242-2.797,6.242-6.244C197.165,171.747,194.37,168.951,190.922,168.951z"/>
	</g>
</g>
</svg>
