<?xml version="1.0" encoding="utf-8"?>
<!-- Generator: Adobe Illustrator 16.0.0, SVG Export Plug-In . SVG Version: 6.00 Build 0)  -->
<!DOCTYPE svg PUBLIC "-//W3C//DTD SVG 1.1//EN" "http://www.w3.org/Graphics/SVG/1.1/DTD/svg11.dtd">
<svg version="1.1" id="Layer_1" xmlns="http://www.w3.org/2000/svg" xmlns:xlink="http://www.w3.org/1999/xlink" x="0px" y="0px"
	 width="350px" height="350px" viewBox="0 0 350 350" enable-background="new 0 0 350 350" xml:space="preserve">
<g>
	<path fill="#1D1D1B" d="M276.793,208.972c-0.133-0.979-1.422-1.776-2.361-0.874c-27.625,26.542-69.787,20.501-102.607,8.816
		c-17.972-6.399-32.864-15.178-43.448-31.477c-9.318-14.349-15.394-30.699-18.184-47.556c-3.21-19.396-1.533-39.235,3.077-58.269
		c0.228-0.939-0.597-1.455-1.304-1.293c-0.35-0.051-0.734,0.032-1.089,0.322C90.893,95,78.027,121.738,73.855,146.869
		c-4.67,28.131,2.219,55.617,19.32,78.402c29.788,39.688,84.36,58.257,130.924,38.438c23.845-10.149,43.352-28.971,53.361-52.95
		C277.771,210.013,277.389,209.35,276.793,208.972z M262.49,222.167c0.445,0.433,1.383,0.43,1.67-0.215
		c0.262-0.592,0.369-1.818,1.25-1.847c0.855-0.027,1.26,1.144,1.102,1.813c-0.611,2.609-3.963,1.859-5.697,1.184
		c-0.385-0.395-0.861-0.696-1.377-0.938c0.811-0.419,1.617-0.847,2.414-1.296C261.893,221.325,262.086,221.772,262.49,222.167z
		 M260.477,231.909c-0.17-0.076-0.357-0.111-0.541-0.078c-1.902,0.347-3.752,0.457-5.593-0.261c-1.673-0.651-3.38-2.011-2.313-3.963
		c0.785-1.438,2.922-2.944,4.619-2.908c0.551,0.013,2.523,0.683,1.863,1.662c-0.346,0.516-1.02,0.128-1.459,0.048
		c-1.014-0.187-2.191,0.656-1.801,1.801c1.244,3.651,6.479,1.351,6.686-1.817c0.023-0.36,0.002-0.693-0.039-1.012
		c0.99,0.475,2.098,0.681,3.178,0.541C263.619,227.983,262.086,229.981,260.477,231.909z M248.833,237.589
		c-0.302,4.148-3.28,8.317-7.271,9.636c-3.52,1.163-7.936-0.229-9.707-3.623c-1.695-3.252-0.848-11.153,2.525-13.427
		c0.051-0.034,0.082-0.081,0.123-0.121c1.908-0.278,3.803-0.614,5.68-1.021c-0.946,0.584-1.864,1.405-2.716,2.497
		c-2.334,2.995-2.644,7.904,1.084,10.015c3.31,1.874,7.224-0.759,6.978-4.409c-0.152-2.288-3.373-2.278-3.549,0
		c-2.885,0.689-3.575-0.283-2.07-2.918c0.797-1.249,1.9-2.145,3.312-2.686C247.191,230.469,249.066,234.393,248.833,237.589z
		 M173.28,261.555c1.488,1.712,4.041-0.816,2.5-2.499c2.186-1.253,3.171-0.747,2.957,1.516c-0.053,0.997-0.363,1.906-0.932,2.728
		c-0.809,1.193-2.118,2.14-3.514,2.496c-3.283,0.837-6.499-1.604-7.361-4.711c-0.97-3.496,0.722-7.178,3.704-9.099
		c2.388-1.537,5.147-1.654,7.779-1.001c1.961,1.346,4.243,1.977,6.539,1.978c-1.582,1.064-2.863,2.487-3.629,4.196
		c-0.188-0.341-0.402-0.677-0.66-1.006C176.729,251.143,168.935,256.56,173.28,261.555z M158.876,244.69
		c-2.781-1.812-6.175-0.232-6.643,3.074c-0.323,2.279,0.888,4.204,2.597,5.557c-1.121,0.565-2.077,1.494-2.629,2.597
		c0.068-1.223-0.251-2.46-1.093-3.538c-0.425-0.544-1.003-0.93-1.641-1.179c-3.182-5.159-0.135-12.325,6.88-12.614
		c4.105-0.17,8.554,2.714,8.864,7.074c0.128,1.803-0.479,3.851-1.891,5.059c-1.646,1.309-3.363,1.409-5.15,0.304
		c-1.318-0.491-1.678-1.585-1.079-3.28C159.062,248.912,160.772,245.926,158.876,244.69z M131.228,253.459
		c-3.516-2.474-6.274-5.238-6.949-9.806c-0.821-5.563,2.186-11.522,7.893-13.062c4.458-1.201,8.585,1.377,10.583,5.344
		c0.857,1.701,1.372,3.734,1.324,5.655c0.185,3.046-1.559,4.859-5.233,5.44c-3.769,0.187-4.596-1.553-2.482-5.218
		c1.556,1.011,3.49-1.404,2.013-2.608c-6.97-5.684-12.33,6.685-4,10.546c2.163,1.003,4.103,1.296,5.785,1.063
		c-0.849,1.931-1.151,4.206-0.86,5.831c0.073,0.406,0.192,0.792,0.335,1.165C136.773,256.476,133.967,255.023,131.228,253.459z
		 M90.4,195.323c-4.248,2.179-1.996,7.291,1.714,8.305c-1.354,1.398-2.357,3.13-2.813,5.087c-0.167,0.717-0.262,1.64-0.252,2.621
		c-1.514-2.693-2.907-5.451-4.172-8.269c0.248-0.145,0.411-0.415,0.283-0.722c-1.913-4.598-0.107-10.719,5.729-10.646
		c2.737,0.034,5.716,2.07,5.736,5.05c0.009,1.291-0.724,2.714-1.898,3.321c-1.643,0.849-4.348-0.599-2.406-2.258
		C93.749,196.594,91.93,194.539,90.4,195.323z M96.585,190.675c0.946-0.085,1.882-0.292,2.792-0.6
		c-0.409,1.002-0.614,2.061-0.626,3.13c-0.102-0.187-0.201-0.374-0.32-0.553C97.911,191.875,97.284,191.219,96.585,190.675z
		 M99.642,197.361c0.423,0.927,1,1.789,1.691,2.567c-0.769-0.024-1.559,0.015-2.374,0.144c-0.005,0.001-0.01,0.002-0.015,0.003
		C99.332,199.229,99.581,198.31,99.642,197.361z M99.769,186.158c-3.157,1.878-7.39,1.54-10.166-0.885
		c-1.521-1.329-2.59-3.356-2.766-5.361c-0.329-1.113-0.125-2.161,0.611-3.143c0.59-3.404,2.454-3.088,5.592,0.947
		c-1.195,1.974,1.844,3.724,3.078,1.8c5.628-8.768-10.855-13.713-12.785-2.215c-0.899,5.354,1.767,9.524,5.645,11.72
		c-1.288,0.278-2.532,0.818-3.628,1.642c-1.818,1.365-2.934,3.37-3.278,5.483c-2.27-6.271-3.906-12.787-4.834-19.48
		c0.313-5.483,3.015-11.187,7.62-13.901c6.18-3.642,15.852-1.046,19.051,5.483C106.553,173.646,105.285,182.877,99.769,186.158z
		 M76.667,156.151c0.008-0.095,0.019-0.189,0.027-0.285c1.304,2.512,3.562,4.477,6.531,5.083c-2.984,1.856-5.355,4.636-6.741,7.853
		C76.262,164.635,76.313,160.414,76.667,156.151z M83.604,125.402c0.8-1.452,1.484-2.599,1.738-2.891
		c4.063-4.669,11.064-5.317,15.779-1.124c4.162,3.702,4.899,10.475,2.002,15.151c-1.881,3.037-5.477,5.399-9.167,4.376
		c-2.371-0.605-3.779-2.136-4.225-4.595c-0.192-3.05,1.739-3.748,5.795-2.094c-0.124,1.882,3.073,2.36,3.337,0.452
		c1.395-10.053-14.375-7.248-12.628,2.822c0.137,0.791,0.393,1.53,0.74,2.216c-3.095-0.216-6.228,1.11-8.45,3.416
		C79.748,137.103,81.455,131.167,83.604,125.402z M103.185,99.361c1.007,0.019,2.069-0.139,2.843-0.702
		c-0.104,0.631-0.208,1.263-0.301,1.896c-0.729,0.939-1.67,1.758-2.812,2.076c-1.672,0.465-3.177-0.342-3.494-2.099
		c-0.278-1.546,0.63-3.055,1.779-4.011c0.573-0.477,1.375-1.016,2.148-0.993c1.6,0.047,1.01,1.185-0.164,1.178
		C101.475,96.696,101.477,99.329,103.185,99.361z M116.064,171.018c-1.832-0.931-3.924-1.276-5.896-0.435
		c-0.816,0.349-1.499,0.879-2.011,1.521c-0.101-0.498-0.216-0.992-0.36-1.478c0.762,0.187,1.59,0.163,2.433-0.16
		c2.746-1.053,2.975-4.813,0.604-6.366c-1.572-1.03-2.983,1.454-1.463,2.502c0.485,0.334,0.074,0.98-0.313,1.133
		c-0.377,0.148-0.963-0.115-1.242-0.343c-0.919-0.754-0.754-2.371-0.318-3.318c1.016-2.209,4.489-2.864,5.174-0.013
		c0.105,0.437,0.418,0.663,0.768,0.716C114.261,166.883,115.137,168.964,116.064,171.018z M102.042,159.7
		c-1.426,0.016-2.583-0.583-3.47-1.799c-0.937-2.312,0.085-3.131,3.067-2.458c1.043,1.667,3.657,0.159,2.646-1.547
		c-3.202-5.403-10.851-1.25-9.026,4.503c0.063,0.2,0.152,0.367,0.227,0.552c-0.425-0.1-0.856-0.189-1.297-0.259
		c-0.961-0.153-1.908-0.206-2.839-0.186c1.848-1.693,2.938-4.008,2.313-6.362c0.534-1.759,1.292-3.428,2.677-4.717
		c2.863-2.664,6.777-2.225,9.314,0.619c2.425,2.716,3.01,7.178,0.284,9.921C104.921,158.992,103.503,159.703,102.042,159.7z
		 M105.288,161.989c-0.462,0.701-0.783,1.489-0.962,2.307c-0.473-0.546-0.97-1.074-1.515-1.559
		C103.655,162.604,104.49,162.342,105.288,161.989z M83.521,155.555c0.718,1.208,2.714,0.723,2.686-0.728
		c-0.033-1.705,1.375-5.832,3.691-2.686c1.65,2.241-1.155,4.816-3.05,5.388c-3.417,1.03-6.703-1.157-7.759-4.417
		c-1.064-3.289,0.314-6.976,3.136-8.93c2.242-1.552,5.029-1.679,7.638-1.21c1.444,1.004,3.172,1.636,4.936,1.797
		c0.307,0.028,0.612,0.039,0.915,0.04c-1.534,1.214-2.688,2.943-3.383,4.874c-0.033-0.04-0.061-0.08-0.096-0.119
		C88.223,144.977,80.39,150.29,83.521,155.555z M108.942,159.338c-0.065,0.016-0.123,0.048-0.187,0.065
		c0.276-0.337,0.535-0.688,0.749-1.065c0.408-0.719,0.7-1.478,0.892-2.255c0.352,1.13,0.719,2.254,1.101,3.374
		C110.695,159.193,109.814,159.134,108.942,159.338z M101.993,143.129c-0.166-0.024-0.322-0.021-0.484-0.035
		c1.91-1.191,3.512-2.917,4.654-4.896c0.448,2.739,0.986,5.463,1.607,8.167C106.271,144.681,104.286,143.459,101.993,143.129z
		 M105.056,106.003c-0.286-0.398-0.601-0.777-0.945-1.126c0.413-0.208,0.799-0.474,1.153-0.783
		C105.19,104.73,105.119,105.367,105.056,106.003z M97.325,102.519c-1.065,0.185-2.036,0.61-2.888,1.209
		c0.762-1.181,1.544-2.346,2.344-3.497C96.818,101.029,96.993,101.813,97.325,102.519z M95.292,106.151
		c1.241-1.214,3.049-1.524,4.69-1.121c0.037,0.015,0.07,0.034,0.108,0.047c0.232,0.085,0.462,0.152,0.689,0.204
		c0.582,0.239,1.125,0.569,1.587,0.993c1.926,1.768,2.021,4.052,2.219,6.384c-0.114,2.704-0.129,5.414-0.063,8.125
		c-1.445-1.709-3.265-3.098-5.404-3.96c0.275-0.213,0.545-0.453,0.805-0.741c1.473-1.631,1.809-4.407,0.488-6.24
		c-1.186-1.645-3.334-1.756-4.41,0.024c-0.865,1.433,1.38,2.74,2.24,1.31c-0.096,0.16,0.429,1.733,0.32,2.144
		c-0.229,0.855-1.049,1.644-1.913,1.837c-1.686,0.377-2.912-0.918-3.28-2.403C92.821,110.547,93.677,107.731,95.292,106.151z
		 M102.425,188.496c0.892-0.649,1.722-1.438,2.451-2.4c2.231-2.946,3.371-6.226,3.585-9.466c0.151-0.084,0.27-0.223,0.307-0.436
		c0.688-3.892,4.787-3.862,7.305-1.712c1.976,1.688,3.16,4.242,3.133,6.856c-0.022,2.165-0.957,4.6-2.862,5.787
		c-1.215,0.758-3.182,1.049-4.443,0.182l-1.201-1.634c-0.538-1.53,0.082-2.268,1.86-2.211c-0.198,1.758,2.634,2.084,3.055,0.413
		c1.491-5.932-7.546-5.438-8.296,0.174c-0.323,2.414,0.593,4.289,2.096,5.499c-2.313,0.605-4.315,2.48-4.347,4.987
		c-0.027,2.1,1.493,4.564,3.794,4.306c1.112-0.126,1.972-1.494,0.992-2.396c-1.047-0.964-2.083-2.181-0.481-3.364
		c1.454-1.073,3.767-0.363,4.621,1.041c1.911,3.146-1.694,6.053-4.646,6.153C102.71,200.503,100.812,193.725,102.425,188.496z
		 M117.204,198.515c0.921,1.24,2.325,2.104,3.805,2.396c-3.755,1.859-6.725,4.831-7.684,8.67c-0.865-2.368-2.227-4.53-3.991-6.206
		C112.646,203.351,115.86,201.837,117.204,198.515z M128.824,192.754c1.761,2.253,3.625,4.36,5.573,6.357
		c-2.719-0.579-5.695-0.519-8.546,0.109c2.15-2.782-0.539-7.019-4.021-5.283c-1.522,0.759-0.459,3.351,1.169,2.773
		c0.35,0.688,0.179,1.077-0.51,1.167c-0.458,0.104-0.908,0.075-1.349-0.089c-0.659-0.213-1.306-0.743-1.644-1.34
		c-0.863-1.528-0.185-3.424,1.095-4.485c2.294-1.901,5.417-0.697,7.496,0.896C128.336,193.052,128.632,192.956,128.824,192.754z
		 M145.982,208.818c2.819,1.921,5.793,3.675,8.921,5.28c-1.818,0.207-3.602,0.673-5.236,1.427c-1.161,0.537-2.157,1.175-3.017,1.891
		C147.348,214.539,147.063,211.545,145.982,208.818z M113.791,219.763c0.242-0.826,0.399-1.673,0.495-2.529
		c0.49,0.161,1.104-0.227,1.003-0.913c-2.151-14.633,20.377-20.27,27.138-8.2c3.507,6.261,0.037,14.053-6.581,16.325
		c-3.217,1.104-7.391,0.871-9.974-1.642c-2.453-2.416-2.699-5.176-0.74-8.281c5.492-1.186,7.573,0.053,6.242,3.713
		c-0.884,2.049,2.083,3.868,3.052,1.784c4.44-9.548-10.094-14.587-13.686-4.989c-0.936,2.502-0.591,5.08,0.555,7.293
		c-3.046-0.958-6.362-0.955-9.088,0.431C112.898,221.931,113.447,220.938,113.791,219.763z M142.492,230.469
		c-1.617-1.385-3.501-2.324-5.485-2.764c1.904-0.665,3.685-1.696,5.185-3.033c0.154-0.137,0.293-0.28,0.439-0.421
		C142.213,226.229,142.198,228.34,142.492,230.469z M116.132,224.752c2.998-0.583,5.902,0.453,8.654,1.565
		c0.613,0.439,1.263,0.826,1.946,1.131c0.975,0.436,1.989,0.735,3.021,0.914c-1.859,0.786-3.612,2.05-5.095,3.874
		c-0.092,0.112-0.175,0.231-0.263,0.347c-0.224-0.593-0.543-1.185-0.983-1.768c-1.548-2.056-4.537-3.132-6.897-1.801
		c-2.363,1.332-3.062,4.172-1.416,6.267c0.752,0.956,2.352,0.133,2.331-0.966c-0.077-3.971,4.448-2.118,3.825,1.139
		c-0.403,2.104-2.374,3.321-4.402,3.337c-3.645,0.029-6.294-3.51-6.548-6.895C110.029,228.197,112.62,225.436,116.132,224.752z
		 M115.062,241.875c2.286,0.477,4.663-0.184,6.496-1.498c-0.19,2.737,0.332,5.518,1.494,7.944c-3.017-2.079-5.927-4.304-8.724-6.654
		C114.571,241.74,114.81,241.822,115.062,241.875z M144.043,254.492c0.178,1.464,2.147,1.891,2.652,0.358
		c0.635-1.925,2.565-0.198,2.591,1.055c0.014,0.667-0.438,1.505-0.86,2.003c-1.269,1.497-3.51,1.695-4.999,0.416
		c-2.111-1.813-1.592-6.671,0.332-9.073c0.323-0.262,0.626-0.549,0.909-0.861c0.029-0.021,0.057-0.048,0.087-0.067
		c0.177-0.114,0.276-0.26,0.315-0.412c0.114-0.146,0.213-0.305,0.317-0.461c0.155,1.266,0.568,2.477,1.225,3.556
		C145.051,251.381,143.808,252.562,144.043,254.492z M151.59,258.259c-0.104,1.899,0.692,3.74,2.115,4.974
		c-1.77-0.548-3.526-1.136-5.263-1.771C149.822,260.796,150.938,259.623,151.59,258.259z M163.014,237.089
		c1.118-0.341,2.173-0.878,3.14-1.553c-0.273,1.214-0.374,2.463-0.34,3.739C164.991,238.397,164.049,237.661,163.014,237.089z
		 M164.173,232.488c-1.282,0.861-2.694,1.278-4.238,1.249c-3.901-0.154-4.594-2.279-2.078-6.378
		c2.094-0.285,1.618-4.007-0.504-3.725c-6.844,0.909-7.368,8.568-2.738,12.106c-2.134,0.378-4.181,1.289-5.864,2.783
		c-0.578,0.513-1.073,1.09-1.508,1.701c-0.073-1.579-0.419-3.189-1.08-4.726c-0.394-0.915-0.877-1.743-1.411-2.511
		c-0.531-3.282-0.872-6.601,0.465-9.74c2.044-4.797,7.362-6.872,12.353-6.523c4.922,0.343,10.367,3.843,10.342,9.306
		C167.902,228.639,166.329,231.096,164.173,232.488z M183.35,249.081c-2.479-0.536-4.625-2.297-5.146-4.748
		c-0.523-2.457,1.812-8.901,5.999-6.211c-0.442,0.027-0.881,0.202-1.22,0.514c-0.113,0.104-0.227,0.208-0.34,0.313
		c-0.73,0.671-0.686,1.927,0,2.604c2.786,2.759,6.204-0.447,4.698-3.777c-2.174-4.808-8.847-3.556-11.441,0.018
		c-2.21,3.045-2.199,7.056-0.37,10.141c-2.824-0.153-5.678,0.828-7.884,2.714c1.098-2.319,1.346-5.154,0.414-7.754
		c-0.312-5.219,0.311-9.76,5.063-13.386c5.262-4.016,12.674-4.693,17.844-0.112c4.996,4.426,5.908,11.794,1.073,16.808
		C189.856,248.467,186.48,249.758,183.35,249.081z M193.23,250.023c1.733-1.405,3.009-3.041,3.881-4.794
		c-0.066,2.265,0.194,4.68,0.768,7.027c-0.472-0.293-0.964-0.562-1.496-0.771c-1.305-0.511-2.725-0.739-4.16-0.733
		C192.568,250.524,192.906,250.285,193.23,250.023z M193.578,227.599c4.529,1.031,9.096,1.867,13.686,2.443
		c-3.697,1.768-6.889,4.762-8.713,8.635C198.457,234.589,196.66,230.536,193.578,227.599z M248.375,229.309
		c-1.117-0.783-2.395-1.268-3.729-1.381c1.438-0.397,2.865-0.823,4.273-1.3C248.532,227.49,248.311,228.397,248.375,229.309z
		 M230.795,230.512c-1.4,1.595-2.164,3.784-2.57,5.967c-0.355-0.796-0.785-1.553-1.309-2.245c-1.008-1.329-2.144-2.416-3.367-3.284
		C225.977,230.903,228.394,230.755,230.795,230.512z M179.143,223.639c-2.934,0.637-5.721,2.015-7.997,3.957
		c0.155-1.112,0.141-2.257-0.094-3.404c-0.298-1.452-0.837-2.729-1.53-3.871C172.692,221.496,175.902,222.605,179.143,223.639z
		 M125.897,188.736c-1.584-0.709-3.488-0.815-5.155-0.264c-1.851,0.613-3.323,2.083-4.093,3.838
		c-0.323-0.498-0.702-0.958-1.145-1.353c1.236-0.231,2.434-0.748,3.442-1.613c1.966-1.686,3-3.993,3.264-6.424
		c0.281,0.479,0.556,0.962,0.843,1.438C123.967,185.871,124.922,187.319,125.897,188.736z M109.4,84.273
		c-1.075,3.472-1.957,7.001-2.673,10.567c-0.176-0.354-0.399-0.682-0.67-0.954c-1.144-1.146-2.566-1.272-3.941-0.848
		C104.455,90.068,106.885,87.156,109.4,84.273z M90.807,109.74c-0.118,0.701-0.17,1.417-0.133,2.136
		c0.08,1.547,0.739,2.976,1.708,4.051c-2.106,0.257-4.055,1.031-5.78,2.185c0.536-1.19,1.084-2.375,1.658-3.545
		C89.066,112.92,89.924,111.319,90.807,109.74z M93.028,217.851c0.571-0.176,0.56-1.11,0.09-1.459
		c-3.772-2.805-0.497-9.95,2.43-11.883c3.896-2.574,8.969-1.762,12.166,1.51c2.795,2.862,3.963,7.888,2.973,11.783
		c-0.917,3.61-4.13,5.14-7.635,4.404c-1.489-0.295-2.754-0.991-3.793-2.088c-2.897-3.857-1.538-5.003,4.08-3.438
		c-0.982,1.929,1.843,3.617,2.921,1.708c1.975-3.498,0.421-7.917-3.698-8.81c-4.507-0.977-8.318,2.816-8.267,7.24
		c0.087,7.543,9.394,10.891,15.25,8.006c-0.416,0.462-0.81,0.958-1.154,1.533c-1.775,2.967-1.656,6.671-0.224,9.74
		C102.474,230.557,97.383,224.436,93.028,217.851z M158.538,264.606c2.465-0.349,4.82-1.987,4.289-4.734
		c-0.288-1.487-1.465-2.715-2.991-2.904c-1.491-0.185-3.387,0.629-3.614,2.249c-0.106,0.752,0.657,1.663,1.449,1.113
		c0.697-0.483,1.267-1.22,2.135-0.749c1.383,0.751,0.115,2.211-0.948,2.572c-1.633,0.556-3.625-0.084-4.517-1.584
		c-0.855-1.439-0.685-3.422,0.467-4.643c0.653-0.691,1.464-1.055,2.332-1.236c0.166,0.071,0.332,0.139,0.497,0.199
		c2.893,1.065,5.445,0.521,7.362-0.924c-0.167,0.313-0.331,0.626-0.469,0.959c-1.632,3.916-0.644,8.557,2.133,11.437
		c-1.62-0.279-3.238-0.588-4.85-0.953C160.715,265.16,159.625,264.889,158.538,264.606z M177.725,267.624
		c2.559-1.666,4.412-4.519,4.381-7.418c1.285-2.049,2.611-4.011,4.822-5.228c3.178-1.751,8.021-1.827,10.615,1.03
		c2.726,3.002,2.732,8.562-0.921,10.853c-1.46,0.197-2.925,0.364-4.395,0.498c-0.041-0.016-0.083-0.025-0.124-0.043
		c-0.9-0.283-1.612-0.85-2.137-1.699c-1.209-1.571-0.807-2.564,1.206-2.978c-0.183,2.252,3.225,2.18,3.474,0
		c0.309-2.7-2.084-5.027-4.857-4.483c-2.945,0.577-4.271,3.879-3.834,6.574c0.188,1.149,0.6,2.133,1.155,2.972
		C183.99,267.824,180.858,267.8,177.725,267.624z M201.732,266.04c0.627-1.274,0.965-2.668,1.026-4.083
		c1.253,1.343,2.698,2.367,4.311,2.943C205.303,265.331,203.521,265.704,201.732,266.04z M215.195,262.555
		c-16.18,1.401-20.412-22.007-7.245-29.228c6.042-3.313,14.22-1.094,17.11,5.277c1.414,3.114,1.345,7.228-0.68,10.113
		c-1.212,1.729-3.426,3.419-5.589,3.462c-1.238,0.398-2.318,0.029-3.239-1.108c-3.332-1.03-3.099-2.892,0.701-5.585
		c0.745,2.356,4.467,1.35,3.715-1.024c-1.46-4.613-6.881-5.402-9.771-1.504c-3.088,4.163-0.654,10.194,3.754,12.311
		c8.165,3.92,13.996-2.493,15.243-9.851c0.865,1.613,2.144,3.014,3.915,4.039c1.922,1.112,3.916,1.591,5.864,1.568
		C231.593,255.873,223.586,259.757,215.195,262.555z M251.664,241.143c0.189-0.566,0.349-1.145,0.467-1.734
		c0.391-1.966,0.227-3.829-0.332-5.463c1.916,1.038,4.227,1.287,6.309,0.704C256.061,236.92,253.906,239.082,251.664,241.143z
		 M268.963,219.968c-0.377-0.993-1.117-1.804-2.041-2.241c1.916-1.302,3.779-2.697,5.574-4.196
		C271.404,215.736,270.215,217.876,268.963,219.968z"/>
	<path fill="#1D1D1B" d="M80.8,134.757c0.156,0,0.156-0.243,0-0.243S80.643,134.757,80.8,134.757z"/>
</g>
</svg>
