<?xml version="1.0" encoding="utf-8"?>
<!-- Generator: Adobe Illustrator 16.0.0, SVG Export Plug-In . SVG Version: 6.00 Build 0)  -->
<!DOCTYPE svg PUBLIC "-//W3C//DTD SVG 1.1//EN" "http://www.w3.org/Graphics/SVG/1.1/DTD/svg11.dtd">
<svg version="1.1" id="Layer_1" xmlns="http://www.w3.org/2000/svg" xmlns:xlink="http://www.w3.org/1999/xlink" x="0px" y="0px"
	 width="350px" height="350px" viewBox="0 0 350 350" enable-background="new 0 0 350 350" xml:space="preserve">
<path fill="#1D1D1B" d="M276.793,208.971c-0.133-0.979-1.423-1.776-2.361-0.874c-27.626,26.542-69.787,20.501-102.608,8.816
	c-17.972-6.398-32.864-15.178-43.448-31.477c-9.317-14.348-15.394-30.698-18.184-47.555c-3.21-19.396-1.532-39.235,3.077-58.269
	c0.227-0.939-0.598-1.455-1.305-1.293c-0.35-0.051-0.734,0.031-1.089,0.322C90.893,95,78.027,121.737,73.855,146.869
	c-4.67,28.131,2.219,55.617,19.32,78.401c29.788,39.688,84.359,58.258,130.924,38.438c23.845-10.149,43.351-28.971,53.361-52.95
	C277.772,210.012,277.39,209.349,276.793,208.971z M265.242,225.687c-0.947-0.854-2.005-1.547-3.142-2.059
	c1.104-2.265,3.604-2.939,5.523-1.501C266.856,223.334,266.062,224.521,265.242,225.687z M261.239,221.214
	c-0.294,0.543-0.497,1.16-0.553,1.869c-0.699-0.217-1.422-0.351-2.151-0.446C259.446,222.183,260.348,221.707,261.239,221.214z
	 M222.771,230.971c11.137-0.113,22.099-2.3,32.12-6.646c3.361,0.1,6.349,1.308,8.908,3.396c-2.547,3.427-5.318,6.658-8.278,9.694
	c-5.286-5.08-12.804-7.519-20.089-6.708c-5.571,0.619-13.065,3.329-14.43,9.358c-3.079-1.317-6.384-2.136-9.695-2.392
	c0.383-1.685,1.133-3.396,2.321-4.666c0.585-0.624,1.255-1.16,2.009-1.566c0.451-0.243,0.896-0.39,1.321-0.586
	C218.895,230.939,220.833,230.99,222.771,230.971z M244.436,247.176c-2.855-5.285-11.569-6.712-14.408-1.053
	c-2.165-2.196-4.746-4.002-7.553-5.386c6.91-10.377,22.467-8.371,31.034-1.324C250.642,242.186,247.609,244.775,244.436,247.176z
	 M234.967,253.522c-0.916-2.197-2.153-4.211-3.669-6.001c3.485-3.151,8.484-3.827,11.009,1.21c0.001,0.002,0.002,0.003,0.003,0.005
	C239.933,250.438,237.482,252.034,234.967,253.522z M224.314,259.011c-2.329-4.229-5.189-7.699-10.229-8.597
	c-4.885-0.87-10.965-0.199-14.978,2.914c-2.976,2.308-5.097,6.094-5.398,9.863c-0.07,0.891-0.147,2.684,0.26,4.001
	c-3.219,0.349-6.46,0.535-9.711,0.568c-1.835-12.482,7.554-23.835,19.569-26.62c12.36-2.864,22.152,4.082,28.644,13.819
	C229.814,256.432,227.092,257.779,224.314,259.011z M205.713,265.209c-1.145-1.639-0.795-3.911,1.453-4.535
	c2.284-0.635,3.962,0.972,4.729,2.911C209.853,264.189,207.792,264.731,205.713,265.209z M205.691,258.9
	c-2.452,1.16-3.616,4.619-2.197,6.797c-2.565,0.529-5.154,0.956-7.759,1.285c-0.429-1.537,1.131-6.925,1.379-7.424
	c1.562-3.143,4.337-5.431,7.769-6.252c3.173-0.759,6.372-0.682,9.504,0.101c3.817,0.955,5.632,3.53,7.537,6.64
	c-2.595,1.071-5.235,2.034-7.912,2.891C212.876,259.562,209.182,257.249,205.691,258.9z M163.814,258.484
	c-2.295-0.285-4.544,0.636-5.863,2.565c-0.53,0.776-1.124,2.017-1.12,3.102c-2.936-0.813-5.833-1.745-8.683-2.796
	c1.325-10.028,12.616-14.606,21.727-12.029c9.063,2.563,10.448,10.316,10.686,18.404c-3.435-0.094-6.874-0.35-10.305-0.81
	C170.705,263.076,167.717,258.969,163.814,258.484z M124.851,249.533c2.434-3.837,2.033-9.328-2.483-11.477
	c-3.285-1.563-7.256,0.445-7.861,3.759c-2.457-2.057-4.825-4.214-7.096-6.464c5.298-6.259,15.416-6.654,21.423-1.025
	c5.727,5.365,4.902,12.529,2.247,19.049C128.961,252.161,126.884,250.878,124.851,249.533z M116.14,243.158
	c0.479-2.896,3.898-4.198,6.165-2.094c2.035,1.891,1.728,4.816,0.291,6.935C120.386,246.461,118.233,244.846,116.14,243.158z
	 M99.529,226.676c5.478-7.209,15.251-9.268,23.937-7.813c9.001,1.507,15.104,6.309,20.579,13.237
	c0.325,1.397,0.813,2.763,1.528,4.06c-3.733,2.464-7.06,5.59-9.215,9.169c-0.063-5.705-2.914-11.541-7.494-14.695
	c-7.051-4.856-18.266-4.404-22.921,3.235C103.701,231.561,101.559,229.161,99.529,226.676z M93.831,219.049
	c1.97-4.267,7.551-4.811,9.496,0.025c0.015,0.034,0.038,0.053,0.054,0.085c-2.113,1.475-3.908,3.383-5.249,5.771
	C96.632,223.016,95.197,221.055,93.831,219.049z M81.908,195.7c1.462-1.545,6.89-2.838,8.252-3.185
	c3.555-0.902,7.181-1.32,10.836-0.957c6.332,0.629,11.672,3.674,15.248,8.966c0.007,0.011,0.016,0.018,0.022,0.027
	c-1.87,2.926-3.081,6.271-3.425,9.747c-2.471-4.252-6.887-7.302-11.868-7.955c-5.129-0.674-11.116,1.091-13.727,5.646
	C85.201,204.017,83.411,199.914,81.908,195.7z M84.845,122.199c6.606,0.875,11.49,5.38,11.558,12.362
	c-2.689,0.531-5.343,1.438-7.813,2.697c-0.078-1.979-2.067-4.09-3.68-4.977c-1.026-0.566-2.261-0.847-3.417-0.709
	C82.48,128.402,83.598,125.272,84.845,122.199z M97.8,98.753c0.685-0.521,1.45-0.927,2.277-1.152c2.31-0.628,3.999,0.3,5.9,1.358
	c-0.359,2.218-0.655,4.448-0.884,6.687c-0.319-0.218-0.685-0.385-1.047-0.484c-1.297-0.354-2.711-0.002-3.828,0.695
	c-1.736,1.083-2.756,2.885-2.921,4.83c-0.201-0.096-0.398-0.207-0.602-0.293c-0.828-0.351-3.681-1.266-5.62-1.122
	C93.144,105.621,95.39,102.125,97.8,98.753z M100.941,108.197c0.594-0.426,1.345-0.771,2.095-0.689
	c0.691,0.077,0.999,0.662,1.675,0.78c0.05,0.009,0.098,0,0.147,0.003c-0.253,3.199-0.376,6.412-0.372,9.63
	c-1.136-2.606-3.192-4.831-5.613-6.36C99.092,110.225,99.821,109.001,100.941,108.197z M107.844,146.688
	c-7.952-2.472-15.821,3.034-18.779,10.338c-0.281-0.003-0.563-0.014-0.842-0.005c-2.765,0.086-8.168,1.099-11.369,3.396
	c1.417-15.079,13.114-25.112,28.349-23.494c0.29,0.031,0.534-0.045,0.73-0.185C106.441,140.078,107.081,143.398,107.844,146.688z
	 M80.904,133.532c1.322-0.14,2.559,0.185,3.622,1.203c1.037,0.993,1.385,2.502,2.424,3.433c-3.782,2.235-7.015,5.291-9.148,8.925
	C78.561,142.518,79.601,137.987,80.904,133.532z M76.349,163.731c1.61-1.946,6.109-3.127,7.82-3.514
	c2.563-0.578,5.362-0.695,7.943-0.217c4.603,0.852,7.861,3.482,11.354,6.349c-3.255,1.551-6.163,3.812-8.438,6.711
	c-0.304,0.387-0.651,0.888-1.011,1.44c-3.693-3.446-9.815-3.643-13.96-0.879c-0.751,0.501-1.886,1.543-2.859,2.768
	C76.636,172.231,76.343,168.007,76.349,163.731z M112.435,162.114c0.225,0.614,0.445,1.229,0.679,1.838
	c-0.338,0.016-0.672,0.054-1.009,0.082C112.35,163.415,112.451,162.766,112.435,162.114z M113.14,166.741
	c0.389-0.036,0.689-0.2,0.91-0.426c1.479,3.653,3.121,7.228,4.915,10.708c-7.636-1.371-16.128,3.562-16.439,11.907
	c-1.665-0.259-3.36-0.371-5.058-0.307c-0.98,0.037-2.969,0.228-5.259,0.618c-0.118-0.341-0.593-0.423-0.784-0.096
	c1.188-2.023,1.232-4.061,1.855-6.355c0.812-2.985,2.165-5.732,4.109-8.135C101.356,169.753,106.954,167.306,113.14,166.741z
	 M109.628,164.358c-1.374,0.255-2.724,0.614-4.028,1.091c-0.017-0.032-0.019-0.062-0.039-0.094c-1.044-1.65-2.431-3.064-4.024-4.242
	c1.166-1.779,3.027-3.253,5.313-2.606c2.613,0.741,2.904,3.458,2.763,5.71C109.609,164.269,109.625,164.31,109.628,164.358z
	 M83.599,174.75c3.419-1.068,6.272,0.134,9.181,1.824c-1.131,2.06-2.232,4.545-2.773,6.91c-1.181-0.792-2.854-0.992-4.173-0.791
	c-2.073,0.315-3.763,1.652-4.519,3.611c-0.684,1.771-0.599,4.075,0.717,5.555c0.159,0.18,0.345,0.32,0.538,0.44
	c-0.566,0.352-1.045,0.735-1.434,1.147c-1.531-4.648-2.713-9.426-3.522-14.302C79.136,177.131,82.657,175.044,83.599,174.75z
	 M90.55,189.552c-1.998,0.406-4.089,0.96-5.87,1.688c-0.071-0.091-0.196-0.128-0.322-0.126c-1.176-1.217-1.288-3.241-0.223-4.639
	c0.662-0.868,1.726-1.306,2.803-1.282c1.055,0.024,1.806,0.595,2.734,0.972C89.662,187.455,89.906,188.63,90.55,189.552z
	 M113.234,193.34c0.803-1.832,2.185-3.563,4.413-3.441c2.439,0.131,3.442,2.35,3.604,4.463c0.015,0.198,0.089,0.365,0.186,0.517
	c-1.294,1.003-2.477,2.145-3.519,3.402C116.627,196.341,115.033,194.699,113.234,193.34z M112.125,215.68
	c-2.37,0.432-4.627,1.148-6.661,2.213c-1.801-6.094-10.906-6.085-12.798-0.593c-1.603-2.455-3.102-4.975-4.492-7.553
	C95.88,201.025,108.373,205.417,112.125,215.68z M150.425,211.641c-1.403,1.493-2.658,3.222-3.702,5.094
	c-1.445-2.225-4.702-3.314-7.148-2.421c-2.451,0.897-3.866,3.368-3.673,5.807c-2.389-1.381-5.01-2.499-7.729-3.322
	c0.207-0.821,0.175-1.652,0.307-2.579c0.259-1.804,0.816-3.541,1.843-5.063c2.228-3.304,5.919-4.642,9.751-4.779
	C143.293,207.058,146.743,209.468,150.425,211.641z M145.283,219.783c-0.874,2.187-1.465,4.485-1.644,6.793
	c-1.558-1.935-3.499-3.658-5.687-5.153c-0.274-1.913,0.758-4.225,2.754-4.702c2.126-0.51,3.534,1.061,4.365,2.773
	C145.13,219.616,145.208,219.696,145.283,219.783z M133.464,254.549c0.138-0.181,0.246-0.374,0.374-0.56
	c0.002,0.31,0.021,0.62,0.039,0.932c-0.169-0.091-0.34-0.179-0.508-0.271C133.401,254.616,133.435,254.586,133.464,254.549z
	 M160.014,233.5c11.384-1.869,21.995,3.774,27.65,13.61c0.092,0.161,0.202,0.284,0.318,0.392c-2.684,2.88-4.833,6.202-5.894,9.696
	c-2.065-6.015-6.369-10.51-14.365-11.583c-9.28-1.246-22.141,4.36-21.613,14.965c-3.517-1.376-6.957-2.932-10.31-4.648
	C137.882,244.183,148.313,235.422,160.014,233.5z M191.854,227.202c-4.337,4.25-4.744,13.062,1.104,15.899
	c-0.93,0.677-1.839,1.406-2.712,2.185c-2.151-3.743-5.005-6.897-8.314-9.36c-0.502-1.792-0.688-3.771-0.477-5.566
	c0.252-2.152,1.287-3.628,2.229-5.334C186.39,225.815,189.113,226.547,191.854,227.202z M204.654,229.678
	c-0.507,0.176-1.001,0.392-1.456,0.701c-2.681,1.819-3.576,5.501-1.993,8.321c0.016,0.027,0.038,0.041,0.055,0.065
	c-2.298,0.729-4.707,1.916-7.025,3.449c-1.596-2.203-3.186-4.211-3.205-7.132c-0.021-3.165,1.709-5.295,3.934-7.175
	C198.177,228.608,201.409,229.203,204.654,229.678z M209.661,237.528c0.003,0.032,0.019,0.059,0.025,0.09
	c-2.325-0.049-4.633,0.188-6.854,0.722c0.011-0.101,0.009-0.206-0.02-0.317c-0.504-1.993,0.036-4.39,1.91-5.519
	c1.854-1.116,4.089-0.385,5.43,1.128c0.044,0.049,0.09,0.085,0.136,0.125C209.774,234.919,209.537,236.176,209.661,237.528z
	 M179.647,226.796c-0.308,0.941-0.513,1.9-0.614,2.771c-0.207,1.763-0.019,3.307,0.513,4.753c-2.43-1.47-5.057-2.584-7.806-3.308
	c0-0.003,0.001-0.005,0-0.008c-0.381-1.803,0.398-4.039,1.897-5.11c1.815-1.3,3.987-0.747,5.55,0.625
	C179.337,226.651,179.492,226.741,179.647,226.796z M179.886,223.874c0.335,0.105,0.668,0.216,1.004,0.319
	c-0.076,0.112-0.157,0.22-0.229,0.336C180.425,224.284,180.16,224.072,179.886,223.874z M210.626,230.413
	c0.662,0.064,1.324,0.118,1.986,0.172c-0.283,0.264-0.549,0.528-0.771,0.779C211.479,230.993,211.062,230.688,210.626,230.413z
	 M176.209,222.68c-1.41-0.039-2.828,0.328-3.954,1.165c-2.235,1.66-2.871,4.355-2.019,6.815c-3.231-0.671-6.61-0.8-10.025-0.314
	c-0.063-2.281,0.412-4.582,1.572-6.569c1.232-2.112,3.044-3.121,4.799-4.564C169.75,220.434,172.964,221.592,176.209,222.68z
	 M163.09,217.836c-3.913,2.504-5.744,8.494-4.802,12.847c-3.499,0.737-7.42,2.28-11.082,4.45
	c-1.033-7.974-0.509-15.218,5.349-21.489c0.179-0.19,0.287-0.396,0.348-0.602c3.196,1.745,6.554,3.332,10.098,4.759
	C163.03,217.813,163.06,217.824,163.09,217.836z M137.311,201.949c-3.415,0.417-6.637,2.251-8.734,5.006
	c-1.56,2.049-3.505,6.336-2.586,9.254c-3.646-0.874-7.407-1.208-10.99-0.924c0.239-10.181,5.092-17.641,14.699-21.458
	C132.073,196.756,134.605,199.461,137.311,201.949z M127.863,191.471c-1.514,0.491-2.946,1.154-4.288,1.957
	c-0.084-2.963-2.786-5.731-5.771-5.868c-2.755-0.127-5.672,2.06-5.956,4.813c-2.308-1.476-4.898-2.506-7.607-3.116
	c2.399-7.2,8.392-11.792,16.21-9.354c0.019,0.006,0.035,0.006,0.053,0.011c0.824,1.5,1.668,2.986,2.55,4.445
	C124.568,186.865,126.177,189.224,127.863,191.471z M111.172,158.505c-0.894-1.267-2.18-2.263-3.592-2.653
	c-3.051-0.841-6.851,1.115-7.626,4.208c-2.711-1.613-5.851-2.605-8.938-2.928c4.21-5.238,9.25-9.956,16.558-7.745
	c0.355,0.107,0.661,0.071,0.912-0.05C109.273,152.428,110.167,155.487,111.172,158.505z M109.4,84.273
	c-1.22,3.941-2.199,7.954-2.959,12.012c-1.759-1.34-3.943-1.63-5.985-1.125C103.287,91.443,106.287,87.84,109.4,84.273z
	 M89.843,111.518c0.211-0.012,0.411-0.133,0.49-0.404c0.372-1.273,7.225,2.396,7.785,2.82c2.313,1.749,3.62,3.967,4.772,6.57
	c0.32,0.723,1.088,0.723,1.635,0.364c0.114,4.505,0.474,9.011,1.069,13.49c-0.015-0.003-0.027-0.01-0.043-0.012
	c-2.175-0.37-4.438-0.407-6.705-0.164c0.088-7.351-5.983-13.927-13.339-13.568c0.863-2.042,1.776-4.061,2.751-6.048
	C88.766,113.531,89.306,112.525,89.843,111.518z M158.602,264.623c0.143-1.196,1.528-2.669,2.394-3.178
	c1.281-0.753,2.862-0.604,4.116,0.122c2.027,1.174,2.308,2.982,2.33,4.917c-1.881-0.309-3.76-0.653-5.631-1.077
	C160.736,265.164,159.667,264.898,158.602,264.623z M269.07,219.782c-1.102-0.783-2.434-1.12-3.713-1.038
	c2.469-1.585,4.859-3.312,7.139-5.214C271.436,215.671,270.281,217.748,269.07,219.782z"/>
</svg>
