<?xml version="1.0" encoding="utf-8"?>
<!-- Generator: Adobe Illustrator 16.0.0, SVG Export Plug-In . SVG Version: 6.00 Build 0)  -->
<!DOCTYPE svg PUBLIC "-//W3C//DTD SVG 1.1//EN" "http://www.w3.org/Graphics/SVG/1.1/DTD/svg11.dtd">
<svg version="1.1" id="Layer_1" xmlns="http://www.w3.org/2000/svg" xmlns:xlink="http://www.w3.org/1999/xlink" x="0px" y="0px"
	 width="350px" height="350px" viewBox="0 0 350 350" enable-background="new 0 0 350 350" xml:space="preserve">
<g id="Moon_Crestcent">
	<rect id="Background_13_" x="55" y="55" fill="#273554" width="240" height="240"/>
	<polygon id="Shadow_11_" opacity="0.1" points="295,189.194 223.307,117.444 232.561,146.399 207.654,183.088 165.78,200.904 
		145.636,197.318 126.162,218.006 97.336,229.407 162.874,295 295,295 	"/>
	<g id="Moon_Crestcent_1_">
		<g id="Star_11_">
			<g>
				<path fill="#FFFFFF" d="M255.813,132.688c-3.559,1.787-7.891,0.351-9.678-3.208c1.787,3.559,0.351,7.891-3.207,9.678
					c3.558-1.787,7.891-0.351,9.677,3.208C250.818,138.808,252.254,134.476,255.813,132.688z"/>
			</g>
			<g>
				<path fill="#FFFFFF" d="M148.92,262.638c-4.384-2.296-6.077-7.71-3.781-12.094c-2.296,4.384-7.71,6.076-12.094,3.78
					c4.384,2.296,6.077,7.711,3.781,12.095C139.122,262.035,144.537,260.342,148.92,262.638z"/>
			</g>
			<g>
				<path fill="#FFFFFF" d="M160.132,98.794c-2.13,1.32-4.927,0.665-6.248-1.465c1.321,2.13,0.665,4.927-1.465,6.248
					c2.13-1.32,4.927-0.665,6.248,1.465C157.346,102.912,158.002,100.114,160.132,98.794z"/>
			</g>
			<g>
				<path fill="#FFFFFF" d="M126.162,155.079c-1.575,0.977-3.644,0.491-4.62-1.083c0.977,1.575,0.492,3.644-1.083,4.62
					c1.575-0.977,3.644-0.492,4.62,1.083C124.102,158.124,124.587,156.056,126.162,155.079z"/>
			</g>
			<g>
				<path fill="#FFFFFF" d="M258.664,184.172c-1.575,0.977-3.644,0.491-4.62-1.084c0.977,1.575,0.491,3.644-1.083,4.621
					c1.574-0.978,3.643-0.492,4.619,1.083C256.604,187.217,257.089,185.148,258.664,184.172z"/>
			</g>
			<g>
				<path fill="#FFFFFF" d="M109.068,187.405c-2.13,1.32-4.927,0.665-6.248-1.465c1.32,2.13,0.665,4.927-1.465,6.247
					c2.13-1.32,4.927-0.664,6.248,1.466C106.282,191.523,106.938,188.726,109.068,187.405z"/>
			</g>
			<g>
				<path fill="#FFFFFF" d="M253.227,205.355c-2.131,1.32-4.928,0.664-6.248-1.466c1.32,2.13,0.664,4.927-1.465,6.248
					c2.129-1.321,4.927-0.665,6.247,1.465C250.44,209.473,251.096,206.676,253.227,205.355z"/>
			</g>
		</g>
		<g id="Moon_Crestcent_2_">
			<path fill="#D1F4FF" d="M223.307,117.444c1.085,10.538-0.447,21.492-4.986,31.895c-14.05,32.208-51.549,46.928-83.757,32.878
				c-6.62-2.888-12.499-6.767-17.542-11.386c2.273,22.09,16.059,42.35,37.865,51.863c32.208,14.05,69.708-0.671,83.757-32.879
				C249.805,164.227,242.806,135.299,223.307,117.444z"/>
			<circle fill="#A6CDDD" cx="177.256" cy="202.243" r="8.236"/>
			<g opacity="0.1">
				<path d="M181.563,197.465c1.659,0.725,2.958,1.93,3.81,3.381c-0.457-2.638-2.188-5.002-4.824-6.152
					c-4.169-1.818-9.023,0.087-10.842,4.256c-1.095,2.511-0.838,5.268,0.448,7.463c-0.266-1.533-0.102-3.158,0.567-4.69
					C172.54,197.552,177.395,195.646,181.563,197.465z"/>
			</g>
			<circle fill="#A6CDDD" cx="230.934" cy="168.326" r="4.714"/>
			<g opacity="0.1">
				<path d="M233.4,165.591c0.949,0.415,1.692,1.104,2.18,1.935c-0.262-1.509-1.252-2.863-2.761-3.521
					c-2.387-1.041-5.165,0.05-6.206,2.436c-0.626,1.437-0.479,3.015,0.256,4.271c-0.15-0.877-0.058-1.808,0.325-2.685
					C228.235,165.641,231.014,164.55,233.4,165.591z"/>
			</g>
			
				<ellipse transform="matrix(0.7462 0.6657 -0.6657 0.7462 192.5385 -97.4869)" fill="#A6CDDD" cx="224.128" cy="203.78" rx="1.826" ry="3.363"/>
			<g opacity="0.1">
				<path d="M226.123,202.222c0.299,0.268,0.416,0.692,0.372,1.195c0.364-0.898,0.347-1.722-0.129-2.146
					c-0.753-0.672-2.364-0.093-3.601,1.293c-0.744,0.834-1.183,1.771-1.25,2.529c0.212-0.521,0.552-1.068,1.006-1.578
					C223.758,202.13,225.371,201.551,226.123,202.222z"/>
			</g>
			<circle fill="#A6CDDD" cx="232.561" cy="141.791" r="2.476"/>
			<g opacity="0.1">
				<path d="M233.855,140.355c0.499,0.218,0.89,0.58,1.145,1.016c-0.137-0.792-0.656-1.503-1.449-1.849
					c-1.254-0.547-2.713,0.026-3.26,1.279c-0.328,0.754-0.252,1.583,0.135,2.243c-0.08-0.46-0.03-0.949,0.17-1.41
					C231.143,140.381,232.602,139.809,233.855,140.355z"/>
			</g>
			<circle fill="#A6CDDD" cx="144.857" cy="201.516" r="2.476"/>
			<g opacity="0.1">
				<path d="M146.152,200.079c0.499,0.219,0.889,0.58,1.145,1.017c-0.137-0.793-0.657-1.504-1.45-1.85
					c-1.253-0.546-2.712,0.026-3.259,1.279c-0.329,0.755-0.252,1.584,0.135,2.243c-0.08-0.46-0.031-0.948,0.17-1.409
					C143.44,200.105,144.899,199.533,146.152,200.079z"/>
			</g>
			
				<ellipse transform="matrix(0.3788 0.9255 -0.9255 0.3788 324.815 -42.5597)" fill="#A6CDDD" cx="194.112" cy="220.687" rx="2.61" ry="3.067"/>
			<g opacity="0.1">
				<path d="M196.459,220.424c0.218,0.531,0.217,1.104,0.039,1.643c0.593-0.747,0.797-1.697,0.452-2.541
					c-0.546-1.335-2.26-1.896-3.827-1.254c-0.943,0.386-1.619,1.12-1.889,1.935c0.346-0.435,0.82-0.8,1.397-1.036
					C194.199,218.528,195.913,219.09,196.459,220.424z"/>
			</g>
			<path opacity="0.1" d="M199.984,224.884c16.697-5.433,31.086-17.708,38.658-35.068c11.162-25.589,4.163-54.516-15.336-72.371
				C223.307,117.444,247.736,175,199.984,224.884z"/>
		</g>
		<path id="Cloud" fill="#FFFFFF" d="M185.031,207.754c-4.141,0-7.904,1.605-10.71,4.225c-2.347-1.416-5.097-2.232-8.038-2.232
			c-1.093,0-2.159,0.114-3.188,0.328c-4.366-7.894-12.773-13.242-22.433-13.242c-10.706,0-19.874,6.568-23.705,15.894
			c-1.316-0.361-2.702-0.559-4.133-0.559c-8.603,0-15.577,6.974-15.577,15.576c0,0.563,0.032,1.117,0.09,1.664h18.667h12.309h18.708
			h4.232h14.069h0.524h4.66h10.812h18.242c0.754-1.836,1.172-3.847,1.172-5.954C200.73,214.782,193.702,207.754,185.031,207.754z"/>
	</g>
</g>
</svg>
