<?xml version="1.0" encoding="utf-8"?>
<!-- Generator: Adobe Illustrator 16.0.0, SVG Export Plug-In . SVG Version: 6.00 Build 0)  -->
<!DOCTYPE svg PUBLIC "-//W3C//DTD SVG 1.1//EN" "http://www.w3.org/Graphics/SVG/1.1/DTD/svg11.dtd">
<svg version="1.1" id="Layer_1" xmlns="http://www.w3.org/2000/svg" xmlns:xlink="http://www.w3.org/1999/xlink" x="0px" y="0px"
	 width="350px" height="350px" viewBox="0 0 350 350" enable-background="new 0 0 350 350" xml:space="preserve">
<path fill="#1D1D1B" d="M276.793,208.971c-0.133-0.979-1.424-1.776-2.361-0.874c-27.626,26.542-69.787,20.501-102.607,8.816
	c-17.972-6.398-32.864-15.178-43.448-31.477c-9.318-14.348-15.394-30.698-18.184-47.555c-3.21-19.396-1.532-39.235,3.077-58.269
	c0.228-0.939-0.597-1.455-1.304-1.293c-0.35-0.051-0.734,0.031-1.089,0.322C90.893,95,78.027,121.737,73.855,146.869
	c-4.67,28.131,2.219,55.617,19.32,78.401c29.788,39.688,84.359,58.258,130.924,38.438c23.845-10.149,43.35-28.971,53.361-52.95
	C277.771,210.012,277.389,209.349,276.793,208.971z M263.979,221.704c0.176,0.758,0.363,1.513,0.547,2.269
	c-2.25-0.044-4.549,0.446-6.781,0.676c-1.557,0.161-3.113,0.295-4.671,0.435c3.614-1.458,7.114-3.192,10.464-5.205
	C263.627,220.489,263.836,221.102,263.979,221.704z M259.533,233.021c-1.092-1.46-2.561-2.686-3.896-3.896
	c-0.793-0.72-1.598-1.426-2.412-2.119c3.88,0.226,8.175,0.205,11.688-0.856C263.221,228.528,261.426,230.82,259.533,233.021z
	 M257.252,235.572c-1.066-0.24-2.178-0.228-3.302-0.265c-1.468-0.047-2.936-0.033-4.401,0.048c0.4-2.829,0.689-5.71,0.755-8.563
	c0.018,0.003,0.029,0.012,0.047,0.013c0.014,0.001,0.028,0.002,0.041,0.003c1.203,1.161,2.395,2.333,3.542,3.549
	c1.345,1.426,2.568,3.133,4.076,4.396C257.76,235.029,257.504,235.3,257.252,235.572z M245.197,246.588
	c-3.058-1.719-6.016-3.549-8.983-5.4c3.579-0.745,7.037-1.885,10.448-3.223c-0.151,1.546-0.115,3.122-0.37,4.666
	c-0.211,1.276-0.518,2.536-0.868,3.782C245.349,246.472,245.273,246.53,245.197,246.588z M228.126,257.228
	c-1.479-1.728-3.405-3.186-5.061-4.706c-1.654-1.519-3.3-3.079-5.012-4.545c4.688-1.775,9.305-3.803,13.868-5.878
	c-0.781,4.505-1.078,9.173-1.554,13.726c-0.142,0.109-0.243,0.267-0.311,0.44C229.419,256.596,228.771,256.909,228.126,257.228z
	 M187.737,267.667c-1.236-1.398-2.722-2.634-4.076-3.88c-1.249-1.148-2.522-2.271-3.813-3.373c3.729,0.145,7.563,0.431,11.229,0.038
	c0.34-0.036,0.616-0.233,0.817-0.489c0.02,0.014,0.042,0.02,0.063,0.031c-0.371,2.457-0.57,4.975-0.62,7.449
	C190.14,267.542,188.939,267.612,187.737,267.667z M174.019,267.353c-1.78-0.168-3.557-0.402-5.333-0.671
	c1.233-0.785,2.411-1.68,3.522-2.485c1.756-1.273,3.44-2.632,5.003-4.127c-0.596,1.594-1.225,3.185-1.907,4.738
	C174.936,265.648,174.432,266.49,174.019,267.353z M132.947,254.421c-0.568-1.401-0.958-3.237-1.369-4.314
	c-0.378-0.988-0.752-1.977-1.128-2.966c3.334,1.436,6.724,2.771,10.167,3.9c-2.09,1.155-4.139,2.707-5.842,4.359
	C134.164,255.078,133.553,254.754,132.947,254.421z M110.449,238.258c2.89,1.052,5.689,2.328,8.461,3.727
	c1.714,0.865,3.358,1.911,5.128,2.413c-0.453,0.042-0.907,0.1-1.365,0.19c-1.092,0.218-2.33,0.487-3.313,1.078
	C116.263,243.346,113.289,240.871,110.449,238.258z M101.304,228.793c0.059-0.093,0.107-0.2,0.14-0.327
	c0.003-0.012,0.004-0.026,0.008-0.038c3.905-3.684,7.954-7.38,11.5-11.417c-2.442,5.666-4.435,11.878-6.123,17.767
	C104.912,232.849,103.072,230.851,101.304,228.793z M84.58,122.873c0.601,0.226,1.212,0.42,1.771,0.625
	c1.033,0.379,2.077,0.763,3.145,1.039c-1.639,1.122-3.319,2.18-5.072,3.115c-0.631,0.336-1.292,0.64-1.956,0.939
	C83.123,126.666,83.827,124.759,84.58,122.873z M88.038,115.03c0.286,0.793,0.58,1.577,0.828,2.334
	c0.599,1.828,1.207,3.647,1.907,5.436c-1.196-0.647-2.491-1.148-3.705-1.746c-0.482-0.237-0.953-0.504-1.427-0.755
	C86.399,118.522,87.197,116.765,88.038,115.03z M95.239,102.466c0.31,0.775,0.563,1.575,0.877,2.347
	c-1.225,0.706-2.454,1.405-3.68,2.112C93.342,105.415,94.271,103.925,95.239,102.466z M129.137,203.968
	c-0.063-0.021-0.129-0.033-0.195-0.046c-2.582-2.618-5.641-4.845-8.705-6.961c2.915-0.279,5.819-0.352,8.768-0.386
	c-0.041,1.028,0.05,2.093,0.057,3.085C129.07,201.011,128.975,202.532,129.137,203.968z M162.631,217.645
	c-0.181,4.407,0.737,9.311,1.967,13.666c-2.135-1.876-4.693-3.322-7.037-4.891c-2.499-1.671-4.953-3.403-7.384-5.17
	c3.445-1.842,7.034-3.228,10.8-4.304C161.527,217.182,162.074,217.418,162.631,217.645z M213.9,230.855
	c1.477,1.393,2.817,2.822,4.022,4.405c-2.451,0.065-4.9,0.151-7.35,0.279c-2.01,0.104-4.131,0.064-6.144,0.4
	c1.462-1.835,2.837-3.797,4.094-5.753c0-0.001,0.001-0.002,0.001-0.002c1.736,0.199,3.475,0.361,5.215,0.486
	C213.786,230.733,213.837,230.796,213.9,230.855z M203.729,247.051c0.264-2.61-0.366-5.771-0.77-8.524
	c2.596,2.88,5.615,5.468,8.624,7.955C208.963,246.59,206.285,246.653,203.729,247.051z M214.434,248.675
	c0.34,4.065,0.402,8.146,0.165,12.219c-1.865-2.143-3.713-4.301-5.607-6.419c-1.455-1.627-2.862-3.604-4.671-4.895
	C207.672,249.54,211.137,248.928,214.434,248.675z M203.198,234.915c-0.008-0.01-0.014-0.021-0.022-0.03
	c-2.211-2.229-4.42-4.495-6.72-6.654c3.211,0.666,6.441,1.218,9.682,1.654C205.101,231.512,204.091,233.199,203.198,234.915z
	 M185.19,241.515c2.258-4.694,4.642-9.353,6.758-14.112c2.724,2.653,5.523,5.221,8.193,7.932
	C195.174,237.432,190.136,239.367,185.19,241.515z M200.457,237.95c0.12,2.056,0.283,4.108,0.438,6.161
	c0.034,0.451,0.348,1.727,0.348,2.545c-0.056-0.008-0.107-0.017-0.174-0.022c-0.642-0.214-1.288-0.411-1.939-0.594
	c-3.793-1.146-7.61-2.224-11.439-3.249C192.059,241.509,196.298,239.808,200.457,237.95z M194.607,247.178
	c1.293,0.457,3.577,1.697,5.487,2.174c-2.398,2.466-4.797,4.932-7.195,7.397c-2.49-4.422-5.046-8.839-7.833-13.074
	C188.229,244.889,191.416,246.046,194.607,247.178z M201.832,251.387c-0.149,4.27-0.252,8.877,0.297,13.171
	c-2.489-2-5.323-3.669-8.052-5.298L201.832,251.387z M184.176,237.623c-0.844-4.357-1.531-8.739-2.258-13.12
	c2.478,0.749,4.971,1.447,7.479,2.088C187.568,230.22,185.883,233.931,184.176,237.623z M182.457,242.012
	c0.007,0.031,0.026,0.054,0.036,0.083c-4.396-3.098-9.113-5.707-13.945-8.064c3.911-3.115,8.082-6.129,11.585-9.638
	C180.238,230.34,181.178,236.204,182.457,242.012z M180.689,243.296c-5.672,1.103-11.23,3.72-16.417,6.331
	c-0.096-4.659,0.975-9.126,2.117-13.654C171.195,238.34,175.917,240.864,180.689,243.296z M101.22,211.556
	c1.806,0.519,3.853,0.557,5.647,0.981c1.964,0.465,3.899,1.334,5.877,1.769c-3.737,2.89-7.199,6.221-10.593,9.563
	C102.452,219.778,102.021,215.354,101.22,211.556z M92.722,178.37c-2.383-3.316-5.131-6.373-7.916-9.368
	c2.874,0.199,5.822,0.521,8.636,0.409C92.721,172.182,92.686,175.438,92.722,178.37z M88.363,193.227
	c3.441,1.348,6.987,2.951,10.543,3.83c-3.684,1.524-7.212,3.481-10.397,5.879C88.708,199.701,88.633,196.456,88.363,193.227z
	 M77.478,178.304c2.004,0.621,4.135,0.965,6.146,1.389c2.598,0.547,5.217,1.044,7.851,1.396c-0.855,1.479-1.436,3.206-2.22,4.703
	c-0.738,1.41-1.571,2.766-2.448,4.092c-1.509-1.97-3.049-3.92-4.646-5.817c-1.485-1.766-2.973-3.732-4.63-5.435
	C77.513,178.522,77.495,178.413,77.478,178.304z M90.798,152.518c-0.039,0.007-0.078,0.011-0.116,0.018
	c-0.029-0.031-0.073-0.045-0.105-0.074c0.159-0.205,0.254-0.46,0.201-0.74c-0.536-2.788-1.419-5.493-2.256-8.203
	c-0.357-1.157-0.666-2.363-1.089-3.509c1.827-0.484,3.65-0.974,5.508-1.356c1.654-0.34,3.466-0.505,5.111-1.02
	c-2.558,4.612-4.846,9.435-7.179,14.15C90.743,152.046,90.738,152.295,90.798,152.518z M100.729,138.839
	c2.494,4.078,5.06,8.255,7.918,12.048c-5.25,0.026-10.462,0.505-15.643,1.293C95.627,147.785,98.334,143.366,100.729,138.839z
	 M100.473,133.69c-1.11-1.498-2.757-2.807-4.031-4.018c-1.343-1.276-2.69-2.548-4.027-3.83c1.815,0.423,3.641,0.802,5.455,1.228
	c2.016,0.474,4.021,1.21,6.095,1.279c0.414,0.014,0.74-0.221,0.931-0.541c0.028,0.35,0.052,0.7,0.083,1.049
	c-0.278-0.069-0.583-0.054-0.88,0.104c-1.282,0.682-2.003,2.256-2.776,3.443C101.042,132.836,100.756,133.263,100.473,133.69z
	 M104.486,117.044c-0.018,3.134,0.082,6.272,0.302,9.406c-0.073-0.072-0.152-0.142-0.256-0.192c-2.894-1.41-6.726-1.977-10.223-2.31
	c1.711-0.821,3.371-1.75,4.953-2.798C100.989,120.007,103.064,118.692,104.486,117.044z M104.618,112.055
	c-0.692-1.103-1.61-2.132-2.343-3.117c-0.77-1.033-1.573-2.04-2.39-3.036c1.276-0.507,2.48-1.212,3.583-2.021
	c0.627-0.459,1.414-1.012,2.03-1.663C105.066,105.479,104.773,108.761,104.618,112.055z M100.654,110.691
	c0.854,1.299,1.612,2.781,2.752,3.846c-2.058,1.289-3.761,3.351-5.702,4.818c-1.494,1.13-3.064,2.122-4.667,3.07
	c1.993-5.073,3.682-10.281,5.3-15.482C99.083,108.209,99.848,109.463,100.654,110.691z M91.886,119.622
	c-0.266-1.138-0.549-2.273-0.839-3.408c-0.381-1.492-0.651-3.144-1.169-4.655c1.711-0.938,3.402-1.917,5.087-2.905
	C93.86,112.285,92.803,115.938,91.886,119.622z M91.57,127.675c1.065,1.224,2.126,2.453,3.192,3.678
	c0.926,1.064,1.903,2.37,3.001,3.451c-1.698,0.111-3.375,0.668-5.025,1.136c-1.917,0.543-3.841,1.128-5.729,1.793
	C89.054,134.668,90.579,131.221,91.57,127.675z M85.231,136.553c-0.737-1.038-1.449-2.09-2.069-3.207
	c-0.246-0.443-0.452-0.95-0.685-1.429c2.078-0.891,4.128-2.194,6.024-3.504C87.551,131.188,86.44,133.87,85.231,136.553z
	 M86.368,145.215c0.823,2.148,1.568,4.323,2.448,6.447c-1.704-0.716-3.672-0.782-5.505-1.024c-1.669-0.221-3.342-0.452-5.016-0.66
	c2.588-2.172,5.065-4.929,6.727-7.893C85.471,143.148,85.977,144.193,86.368,145.215z M82.961,153.226
	c1.465,0.351,2.924,0.802,4.399,0.931c-1.339,1.989-2.526,4.102-3.581,6.24c-0.516,1.045-1.292,2.358-1.72,3.67
	c-1.415-4.009-2.725-8.061-4.184-12.047C79.567,152.439,81.27,152.822,82.961,153.226z M82.108,169.941
	c2.937,3.196,5.932,6.374,9.239,9.182c-2.536-0.813-5.114-1.519-7.68-2.214c-1.447-0.391-2.912-0.869-4.391-1.238
	C80.223,173.761,81.092,171.823,82.108,169.941z M82.989,166.873c0.006-0.05-0.005-0.105-0.014-0.162
	c1.607-1.128,2.464-3.717,3.388-5.352c0.968-1.713,2.008-3.379,3.046-5.046c1.072,2.862,2.243,5.682,3.613,8.418
	c0.4,0.798,0.777,1.647,1.281,2.313C90.774,166.238,86.626,166.536,82.989,166.873z M93.939,160.442
	c-0.684-1.742-1.331-3.497-1.961-5.258c5.006-0.8,10.018-1.231,15.081-1.383c-1.531,1.977-2.933,4.063-4.548,5.977
	c-1.926,2.282-3.949,4.451-6.025,6.592C95.333,165.189,94.417,161.662,93.939,160.442z M109.088,180.468
	c-0.103,0.05-0.178,0.128-0.257,0.201c-0.194-0.092-0.41-0.12-0.621-0.11c-3.304-3.9-6.785-7.723-10.302-11.436
	c3.34-0.125,6.671-0.424,9.999-0.737c1.192-0.112,2.874-0.015,4.39-0.207C110.757,172.004,109.943,176.46,109.088,180.468z
	 M109.229,183.728c1.5,3.524,3.007,7.058,4.7,10.493c-3.532-0.264-7.397,0.57-10.811,1.683c1.086-1.576,1.753-3.61,2.5-5.238
	c1.046-2.277,2.123-4.559,3.073-6.885c0.114-0.005,0.231,0.001,0.345-0.006C109.106,183.771,109.164,183.743,109.229,183.728z
	 M105.891,181.071c-3.655-0.537-7.427-0.759-11.1-1.087c0.173-1.864,0.332-3.729,0.544-5.59c0.144-1.253,0.416-2.58,0.544-3.89
	C98.825,174.315,102.207,177.939,105.891,181.071z M106.035,183.764c-0.985,2.108-1.881,4.27-2.79,6.399
	c-0.708,1.663-1.733,3.467-2.083,5.296c-0.895-2.257-1.991-4.444-3.043-6.626c-1.098-2.279-2.138-4.706-3.445-6.911
	C98.344,182.785,102.266,183.585,106.035,183.764z M100.878,198.913c0.075-0.031,0.148-0.065,0.223-0.097
	c2.9,4.438,6.28,8.72,10.143,12.399c-1.243-0.401-2.535-0.689-3.744-0.976c-1.978-0.468-4.526-1.207-6.67-0.915
	C101.08,205.953,101.413,202.207,100.878,198.913z M103.522,197.951c1.617-0.339,3.237-0.654,4.874-0.891
	c1.706-0.248,3.449-0.295,5.158-0.517c-0.198,4.803-0.108,9.595,0.285,14.385C110.247,206.702,106.752,202.472,103.522,197.951z
	 M115.083,219.384c1.084,4.57,3.262,9.288,5.498,12.981c-3.96,0.686-7.971,1.767-11.765,3.168c-0.097-0.028-0.199-0.052-0.297-0.079
	C111.193,230.559,113.608,224.902,115.083,219.384z M138.473,227.271c-1.61,1.954-3.141,3.997-4.546,6.112
	c-1.211-5.129-3.099-10.065-5.198-14.896c4.756,1.371,9.7,2.287,14.584,3.102C141.521,223.294,139.987,225.434,138.473,227.271z
	 M144.95,224.147c0.04,4.735,0.742,9.419,2.441,13.88c-0.044,0.046-0.089,0.093-0.13,0.145c-1.688-0.803-3.623-1.011-5.451-1.418
	c-2.279-0.507-4.563-0.995-6.847-1.484c2.005-2.099,3.938-4.277,5.817-6.484C142.082,227.257,143.637,225.762,144.95,224.147z
	 M132.428,234.65c-2.602-1.396-5.476-2.205-8.413-2.471c1.399-3.389,2.528-6.861,3.426-10.406
	C129.167,226.041,130.74,230.366,132.428,234.65z M121.931,230.782c-0.994-2.773-2.077-5.51-2.947-8.33
	c-0.667-2.166-1.095-4.433-1.736-6.612c0.666,0.313,1.359,0.577,1.971,0.854c2.04,0.923,4.191,1.731,6.383,2.214
	C124.681,222.971,123.416,226.895,121.931,230.782z M126.16,216.388c-1.994-0.66-4.012-1.239-5.998-1.932
	c-1.074-0.376-2.278-1.061-3.467-1.343c3.555-1.988,7.171-4.081,10.393-6.601C126.507,209.739,126.187,213.122,126.16,216.388z
	 M120.905,234.015c1.033,2.787,2.195,5.504,3.669,8.063c-3.703-1.815-7.292-3.536-11.067-4.967
	C116.041,236.221,118.532,235.183,120.905,234.015z M123.421,234.432c2.751,0.268,5.294,1.027,7.8,2.214
	c-0.427,0.786-0.769,1.669-1.157,2.246c-0.937,1.395-2.728,2.682-3.217,4.303c-0.005-0.003-0.011-0.006-0.017-0.009
	C125.656,240.281,124.459,237.389,123.421,234.432z M130.984,241.964c0.587-0.699,1.141-1.432,1.643-2.194
	c0.364-0.553,0.896-1.271,1.257-2.021c1.717,3.624,3.603,7.426,6.046,10.683c-3.479-1.763-7.071-3.329-10.673-4.803
	C129.738,243.032,130.577,242.449,130.984,241.964z M136.519,237.926c1.562,0.341,3.124,0.684,4.689,1.014
	c1.683,0.354,3.449,0.92,5.188,0.983c-1.445,3.052-2.71,6.25-3.551,9.513C140.927,245.513,138.541,241.814,136.519,237.926z
	 M148.749,240.959c1.434,2.063,3.524,3.857,5.203,5.569c1.662,1.696,3.375,3.396,5.195,4.954c-4.65-1.071-9.557-1.515-14.277-1.828
	C146.154,246.751,147.406,243.839,148.749,240.959z M147.642,222.688c4.733,3.513,10.106,7.886,15.771,9.87
	c-4.892,1.353-9.839,2.693-14.555,4.572C148.113,232.32,147.593,227.551,147.642,222.688z M147.052,219.958
	c-0.085,0.051-0.152,0.111-0.219,0.172c-0.079-0.025-0.164-0.024-0.248-0.029c-0.028-0.09-0.069-0.175-0.121-0.256
	c0.324-3.23,0.721-7.195,0.181-10.586c3.313,2.209,6.827,4.202,10.563,5.989C153.67,216.451,150.283,218.041,147.052,219.958z
	 M143.586,208.523c-0.012,1.564,0.249,3.17,0.371,4.702c0.151,1.892,0.303,3.785,0.463,5.678
	c-3.313-4.069-7.087-7.833-10.788-11.581c3.337,0.154,6.627,0.567,9.94,1.199C143.578,208.522,143.582,208.522,143.586,208.523z
	 M141.161,218.474c-4.315-0.808-8.69-1.489-13.039-1.782c0.673-3.194,1.218-6.484,1.622-9.732
	C133.489,210.797,137.185,214.828,141.161,218.474z M126.509,204.424c-3.388,1.624-6.656,3.584-9.919,5.47
	c-0.323-4.047-0.458-8.093-0.396-12.152C119.507,200.085,122.889,202.543,126.509,204.424z M115.367,192.69
	c-1.209-3.343-2.571-6.635-3.938-9.915c1.674,0.005,3.347,0.041,5.019,0.155c1.372,0.094,2.798,0.36,4.208,0.485
	C118.513,186.226,116.626,189.368,115.367,192.69z M111.269,180.286c1.578-3.604,3.206-7.515,3.879-11.349
	c1.733,4.026,3.664,7.951,5.783,11.747C117.866,180.062,114.333,180.182,111.269,180.286z M112.791,165.246l-0.096,0.147
	c-0.052,0.079-0.069,0.176-0.095,0.27c-0.42-0.516-1.056-0.59-1.91-0.216c-0.927,0.11-1.854,0.221-2.782,0.331
	c-1.391,0.166-2.783,0.324-4.172,0.507c-1.743,0.23-3.48,0.494-5.213,0.786c4.281-3.489,8.649-7.8,11.387-12.564
	c1.03,3.457,2.203,6.865,3.508,10.214C113.179,164.82,112.96,164.988,112.791,165.246z M101.31,136.122
	c0.652-0.738,1.301-1.48,1.959-2.213c0.636-0.708,1.432-1.43,1.994-2.253c0.432,3.871,1.042,7.725,1.82,11.544
	C105.291,140.693,103.298,138.306,101.31,136.122z M105.917,99.322c-0.187-0.1-0.408-0.132-0.659-0.033
	c-1.278,0.501-2.019,1.762-3.017,2.664c-0.687,0.621-1.432,1.123-2.205,1.589c1.111-2.531,2.057-5.5,2.36-8.367
	c0.222,0.324,0.436,0.654,0.668,0.971c0.785,1.074,1.641,2.541,2.861,3.127C105.923,99.29,105.92,99.306,105.917,99.322z
	 M99.321,97.731c-0.32,2.151-0.826,4.274-1.133,6.423c-0.231-0.019-0.465,0.074-0.634,0.251c-0.019-0.005-0.04,0-0.059-0.004
	c-0.103-0.918-0.34-1.835-0.558-2.722c-0.098-0.397-0.199-0.813-0.309-1.227c0.933-1.348,1.888-2.681,2.867-3.994
	C99.438,96.886,99.383,97.313,99.321,97.731z M80.673,134.32c0.933,1.37,2,2.653,3.191,3.803c-1.256,1.771-2.302,3.672-3.551,5.46
	c-0.786,1.125-1.616,2.195-2.467,3.247C78.556,142.614,79.5,138.435,80.673,134.32z M81.311,166.542
	c-1.163-0.559-2.36-1.043-3.491-1.671c-0.468-0.26-0.959-0.623-1.468-0.925c-0.002-2.276,0.082-4.568,0.25-6.872
	C77.835,160.392,79.475,163.59,81.311,166.542z M76.88,167.099c1.068,0.373,2.158,0.717,3.27,0.94
	c-1.214,2.029-2.409,4.209-3.188,6.459c-0.287-2.497-0.474-5.016-0.558-7.556C76.57,166.995,76.73,167.046,76.88,167.099z
	 M78.527,183.896c0.372,0.389,0.74,0.776,1.096,1.162c1.671,1.813,3.399,3.575,5.153,5.311c-1.251,0.034-2.5,0.115-3.759,0.063
	c-0.28-0.012-0.559-0.042-0.836-0.073C79.557,188.229,79.004,186.074,78.527,183.896z M81.017,192.589
	c1.617-0.104,3.322-0.293,4.872-0.795c0.42,4.232,0.416,8.417,0.187,12.654c-0.083,0.158-0.136,0.34-0.147,0.547
	c-0.005,0.103-0.009,0.208-0.014,0.312c-1.967-4.111-3.659-8.354-5.049-12.707C80.917,192.597,80.967,192.592,81.017,192.589z
	 M88.687,210.696c-0.05-1.271-0.222-2.52-0.311-3.785c3.042,1.457,6.172,2.988,9.363,4.084c-1.319,0.604-2.588,1.406-3.826,2.062
	c-0.93,0.493-2.001,0.931-3.019,1.439C90.132,213.245,89.396,211.978,88.687,210.696z M89.156,204.609
	c3.102-1.677,6.209-3.264,9.417-4.702c-0.246,3.158,0.188,6.61,0.512,9.722C95.981,207.672,92.491,206.142,89.156,204.609z
	 M88.45,190.736c1.683-2.06,3.481-4.466,4.532-6.958c0.833,1.727,1.819,3.399,2.719,5.067c1.251,2.316,2.471,4.693,3.878,6.931
	C96.275,193.556,92.193,192.086,88.45,190.736z M123.362,247.084c1.227-0.424,2.489-0.763,3.754-1.064
	c0.872,2.186,1.741,4.373,2.609,6.561c-2.616-1.548-5.167-3.199-7.648-4.946C122.508,247.432,122.936,247.231,123.362,247.084z
	 M139.392,254.883c1.027-0.929,2.093-1.823,3.104-2.771c2.408,3.326,4.948,6.554,7.382,9.86c-4.269-1.494-8.438-3.244-12.482-5.236
	C138.062,256.117,138.721,255.489,139.392,254.883z M144.609,252.136c5.501,0.58,11.073,1.432,16.598,1.607
	c-0.007,0.041-0.021,0.079-0.027,0.12c-1.413,1.62-3.511,2.926-5.029,4.19c-1.208,1.007-2.734,2.017-4.02,3.168
	C149.787,258.057,147.34,254.973,144.609,252.136z M155.776,244.704c-1.728-1.833-3.354-4.242-5.333-5.934
	c4.633-0.94,9.188-2.351,13.71-3.718c-1.497,5.146-2.647,10.31-2.492,15.679C159.749,248.68,157.697,246.744,155.776,244.704z
	 M176.412,258.761c-1.947,1.191-3.863,2.434-5.789,3.659c-1.691,1.074-3.607,2.01-5.256,3.205c-0.646-1.845-1.253-3.688-1.618-5.624
	c-0.381-2.018-0.299-4.035-0.457-6.041C167.476,255.954,172.001,257.342,176.412,258.761z M164.314,252.651
	c5.69-2.794,11.78-4.87,17.373-7.819c-1.812,3.687-3.055,7.765-4.297,11.675C173.106,255.081,168.75,253.544,164.314,252.651z
	 M183.681,244.514c0.006-0.003,0.01-0.007,0.016-0.01c2.142,4.617,4.559,9.135,7.015,13.599c-3.562-0.463-7.26-0.38-10.875-0.404
	C181.271,253.4,182.911,248.978,183.681,244.514z M193.693,260.696c2.098,1.938,4.26,3.938,6.591,5.602
	c-2.192,0.379-4.399,0.689-6.617,0.923C193.796,265.063,193.812,262.863,193.693,260.696z M203.348,251.241
	c1.105,1.768,2.773,3.328,4.068,4.809c2.059,2.356,4.175,4.658,6.258,6.991c-3.068,0.97-6.184,1.793-9.336,2.471
	C204.608,260.864,203.975,255.848,203.348,251.241z M215.068,245.488c-0.234,0.037-0.442,0.135-0.592,0.304
	c-3.035-2.636-6.156-5.343-9.5-7.608c1.859,0.129,3.779-0.02,5.597-0.049c2.55-0.041,5.098-0.126,7.645-0.234
	c-0.723,1.249-1.185,2.758-1.704,4.021C216.081,242.97,215.363,244.246,215.068,245.488z M218.851,242.905
	c0.618-1.308,1.446-2.712,1.855-4.155c0.053,0.014,0.093,0.043,0.15,0.051c2.954,0.375,5.844,0.938,8.686,1.743
	c-4.183,1.835-8.351,3.745-12.402,5.843C217.875,245.321,218.366,243.927,218.851,242.905z M248.115,234.604
	c-2.326-1.905-4.625-3.957-7.044-5.775c2.39-0.546,4.749-1.195,7.07-1.953C247.98,229.436,247.996,232.035,248.115,234.604z
	 M245.774,235.766c-3.59,1.351-7.241,2.515-10.896,3.675c1.428-2.894,3.003-5.994,4.042-9.071
	C241.089,232.274,243.487,234.002,245.774,235.766z M233.069,238.623c-1.371-2.684-2.879-5.35-4.454-7.916
	c2.571-0.196,5.129-0.492,7.657-0.915C234.984,232.604,234.005,235.705,233.069,238.623z M230.858,238.481
	c-2.764-0.813-5.558-1.429-8.417-1.82c0.701-0.862,1.388-1.735,2.166-2.537c0.733-0.754,1.544-1.404,2.343-2.072
	C228.068,234.27,229.393,236.453,230.858,238.481z M233.658,241.658c0.062-0.01,0.121-0.022,0.182-0.032
	c2.764,2.5,5.911,4.716,9.119,6.65c-3.186,2.319-6.503,4.454-9.938,6.386C233.628,250.377,234.044,245.912,233.658,241.658z
	 M248.843,237.516c1.584,0.054,3.167,0.085,4.748,0.204c0.487,0.037,0.976,0.1,1.464,0.158c-2.23,2.256-4.568,4.396-7.001,6.422
	C248.788,242.06,249.181,239.672,248.843,237.516z M222.771,230.971c0.693-0.007,1.385-0.037,2.077-0.061
	c-1.402,1.31-2.688,2.924-3.609,4.55c-1.144-1.63-2.363-3.16-3.727-4.58C219.265,230.947,221.018,230.988,222.771,230.971z
	 M177.849,223.227c-3.868,2.582-7.448,5.771-11.04,8.761c-0.464-2.755-0.928-5.508-1.241-8.289
	c-0.188-1.671-0.254-3.359-0.386-5.038C169.336,220.29,173.562,221.828,177.849,223.227z M141.601,205.597
	c-3.341-0.556-6.717-0.829-10.108-0.85c0.35-1.501,0.333-3.181,0.433-4.617c0.07-1.011,0.264-2.195,0.293-3.348
	C135.118,200.014,138.242,202.943,141.601,205.597z M129.645,193.76c-4.089-0.315-8.245,0.022-12.306,0.607
	c1.927-3.29,3.774-6.613,5.82-9.843C125.169,187.836,127.334,190.902,129.645,193.76z M109.399,84.273
	c-1.263,4.082-2.273,8.239-3.043,12.445c-0.548-0.618-1.187-1.177-1.74-1.769c-0.729-0.779-1.429-1.583-2.121-2.395
	C104.718,89.752,107.021,86.999,109.399,84.273z M92.413,216.913c0.823-0.476,1.62-1.007,2.4-1.477
	c1.413-0.852,3.022-1.714,4.34-2.812c0.103,2.254,0.281,4.504,0.323,6.762c0.043,2.331-0.18,4.698-0.156,7.035
	C96.846,223.374,94.538,220.201,92.413,216.913z M153.976,263.315c1.758-1.339,3.384-3.097,4.903-4.392
	c0.694-0.592,1.458-1.17,2.16-1.792c0.174,2.929,1.063,6.021,2.26,8.578c-0.496-0.104-0.993-0.19-1.487-0.303
	C159.169,264.81,156.557,264.106,153.976,263.315z M176.52,267.537c0.321-0.769,0.583-1.562,0.82-2.264
	c0.478-1.412,0.777-2.825,0.966-4.272c1.221,1.486,2.487,2.937,3.814,4.326c0.754,0.789,1.519,1.631,2.319,2.432
	C181.804,267.791,179.162,267.718,176.52,267.537z M216.634,262.05c0.369-4.409,0.394-8.777,0.056-13.18
	c1.416,1.7,2.966,3.304,4.528,4.859c1.488,1.48,3.057,3.212,4.792,4.532C222.953,259.683,219.819,260.936,216.634,262.05z
	 M266.496,223.877c-0.105-0.904-0.211-1.808-0.326-2.711c-0.121-0.946-0.125-1.811-0.541-2.599c2.371-1.538,4.672-3.205,6.867-5.037
	C270.711,217.134,268.697,220.582,266.496,223.877z"/>
</svg>
