<?xml version="1.0" encoding="utf-8"?>
<!-- Generator: Adobe Illustrator 16.0.0, SVG Export Plug-In . SVG Version: 6.00 Build 0)  -->
<!DOCTYPE svg PUBLIC "-//W3C//DTD SVG 1.1//EN" "http://www.w3.org/Graphics/SVG/1.1/DTD/svg11.dtd">
<svg version="1.1" id="Layer_1" xmlns="http://www.w3.org/2000/svg" xmlns:xlink="http://www.w3.org/1999/xlink" x="0px" y="0px"
	 width="350px" height="350px" viewBox="0 0 350 350" enable-background="new 0 0 350 350" xml:space="preserve">
<g id="XMLID_21_">
	<polygon id="XMLID_43_" fill-rule="evenodd" clip-rule="evenodd" fill="#577483" points="312.292,224.291 307.002,214.794 
		250.749,150.018 237.743,171.633 219.724,148.19 206.593,163.529 181.55,116.645 142.538,166.713 129.448,152.822 51.578,223.063 
		107.824,227.055 129.419,156.203 166.857,190.735 181.595,118.67 217.957,194.207 220.006,150.65 251.329,201.877 251.886,154.616 
		312.107,224.291 	"/>
	<path id="XMLID_42_" fill-rule="evenodd" clip-rule="evenodd" fill="#BC9F77" d="M302.226,209.297
		c149.633,38.103-222.272,22.637-289.633,9.784c28.823,0.781,313.08,27.822,294.02-3.816h0.033l-0.496-0.672
		c-0.188-0.261-0.359-0.52-0.583-0.787L302.226,209.297z"/>
</g>
</svg>
