<?xml version="1.0" encoding="utf-8"?>
<!-- Generator: Adobe Illustrator 16.0.0, SVG Export Plug-In . SVG Version: 6.00 Build 0)  -->
<!DOCTYPE svg PUBLIC "-//W3C//DTD SVG 1.1//EN" "http://www.w3.org/Graphics/SVG/1.1/DTD/svg11.dtd">
<svg version="1.1" id="Layer_1" xmlns="http://www.w3.org/2000/svg" xmlns:xlink="http://www.w3.org/1999/xlink" x="0px" y="0px"
	 width="350px" height="350px" viewBox="0 0 350 350" enable-background="new 0 0 350 350" xml:space="preserve">
<g>
	<polygon fill="#FEAA00" points="34.863,224.106 223.863,224.106 226.363,181.106 204.363,156.606 172.363,150.606 154.363,131.606 
			"/>
	<path fill="#40434A" d="M31.384,224.106l124.274-98.129l38.631,23.222l19.315-19.536l57.582,59.346l11.662-9.952l36.08,45.05
		H174.974l41.911-29.2L200.12,183.48l2.916-16.588l-9.111-3.686l-63.777,60.899H112.29l24.781-28.463l9.111-10.32
		c0,0-7.653-0.369-8.746-0.737c-1.094-0.369-9.476,4.055-9.476,4.055l17.857-14.744c0,0,5.467-4.424,5.467-6.635
		c0-2.212,0.729-9.216,0-10.321c-0.729-1.106-7.653,1.105-7.653,1.105l7.653-5.528c0,0,1.458-7.373,1.458-8.479s0-8.478,0-8.478
		L61.997,210.02l-1.822,7.004l3.645,7.083H31.384z"/>
</g>
</svg>
