<?xml version="1.0" encoding="utf-8"?>
<!-- Generator: Adobe Illustrator 16.0.0, SVG Export Plug-In . SVG Version: 6.00 Build 0)  -->
<!DOCTYPE svg PUBLIC "-//W3C//DTD SVG 1.1//EN" "http://www.w3.org/Graphics/SVG/1.1/DTD/svg11.dtd">
<svg version="1.1" id="Layer_1" xmlns="http://www.w3.org/2000/svg" xmlns:xlink="http://www.w3.org/1999/xlink" x="0px" y="0px"
	 width="350px" height="350px" viewBox="0 0 350 350" enable-background="new 0 0 350 350" xml:space="preserve">
<g>
	<path fill="#40434A" d="M328.824,228.486c-2.219-2.293-4.479-4.818-5.958-6.746c-3.802-4.961-4.723-12.568-8.901-17.4
		c-2.024-2.342-4.7-4.277-6.973-6.525c-0.972,0.59-1.996,1.424-3.182,2.807c-1.679,1.957-3.478,3.883-5.272,5.82
		c-0.949-1.41-1.88-2.838-2.784-4.242c-3.118-4.844-7.991-6.492-11.371-10.619c-2.138-2.611-1.104-4.512-2.186-7.418
		c-1.219-3.279-4.407-5.715-6.522-8.433c-1.147-1.473-2.508-3.043-3.9-4.663c-3.421,3.486-6.566,7.456-8.362,11.067
		c-2.799,5.629-2.512,11.551-5.409,17.041c-1.643-3.045-3.145-6.189-5.069-9.01c-4.988-7.32-10.299-14.432-16.299-20.97
		c-2.718-2.961-6.092-7.967-9.766-11.812c-1,2.013-1.982,3.975-3.208,5.122c-2.683,2.511-5.781,3.614-8.888,4.88
		c-2.449-3.275-4.511-6.989-6.593-11.37c-4.596-9.668-10.939-14.55-18.436-21.633c-4.13-3.904-7.462-8.386-10.817-12.866
		c-0.915,2.431-1.682,5.103-3.167,7.149c-3.537,4.874-8.282,8.261-12.68,12.269c-4.744,4.324-6.961,9.252-11.002,14.025
		c-2.342,2.766-7.351,6.025-11.336,9.535c-1.833-3.374-3.433-7.354-5.34-10.702c-1.942,2.917-3.637,6.047-5.01,9.322
		c-4.186,9.983-12.009,12.838-18.11,21.154c-1.398,1.904-3.368,4.223-5.385,6.707c-0.09-0.098-0.18-0.195-0.27-0.291
		c-4.598-4.941-8.181-11.977-12.879-17.38c-3.636,3.483-6.625,6.187-8.522,12.077c-2.724,8.459-5.478,16.035-12.274,22.246
		c-1.847,1.688-4.016,3.299-6.227,4.943c-0.868-0.982-1.804-1.916-2.897-2.736c-2.84-2.133-6.342-1.855-9.01-4.779
		c-1.157-1.268-1.953-2.729-2.535-4.289c-2.382,1.281-4.546,2.793-6.338,4.709c-1.972,2.109-2.63,5.092-4.795,7.295
		c-3.301,3.355-7.662,6.203-11.086,9.664c-2.433,2.459-5.757,4.215-8.888,6.053H328.824z"/>
	<path fill="#FEAA00" d="M51.562,207.553c2.381,2.262,4.861,4.426,7.387,6.541c-5.685,0.559-10.813,2.889-15.644,6.727
		c-2.792,2.221-4.508,0.605-7.898,2.221c4.986-2.826,6.445-6.1,10.534-10.236c1.301-1.314,2.564-3.061,4.146-4.289
		C50.333,208.322,50.974,207.938,51.562,207.553z"/>
	<path fill="#FEAA00" d="M76.85,210.719c0.002,0.094,0.003,0.193,0.003,0.297c0,2.549-0.675,4.824-1.471,7.059
		c9.153-3.848,4.182-4.047,18.82-15.887c-0.204-5.365,0.128-12.236-0.767-18.73c-6.838,5.773-9.464,15.617-13.434,23.646
		C79.271,208.586,78.134,209.713,76.85,210.719z"/>
	<path fill="#FEAA00" d="M115.55,194.732c0.625,1.693,1.204,3.904,1.204,6.285c0,0.377-0.007,0.756-0.022,1.135
		c4.46-3.383,9.229-7.158,13.042-10.656c0.012-0.402,0.019-0.811,0.019-1.225c0-0.451-0.001-0.902-0.001-1.352
		c0-5.217-0.245-3.832,3.836-21.225c-2.186,1.747-4.352,3.583-6.356,5.922c-1.388,1.62-3.193,4.528-4.988,5.94
		c-3.902,3.945-7.212,8.895-13.477,15.303c-0.196,1.531-0.324,3.063-0.478,4.594C110.729,197.867,113.161,196.342,115.55,194.732z"
		/>
	<path fill="#FEAA00" d="M213.944,179.557c-5.385-2.422-15.753-16.314-19.459-21.271c-1.776-2.376-4.738-4.915-7.233-6.353
		c-0.701,1.081-1.311,3.817-2.183,5.087c-3.608-3.249-7.302-6.394-11.131-9.358c-3.966,1.505-12.615,10.105-16.4,11.911
		c-0.855-0.47,6.521-8.512,5.666-8.989c2.768-4.185,5.06-2.517,7.743-5.783c0.199-0.14,2.441-3.292,5.099-5.349
		c4.281-3.311,1.359-2.127,5.1-4.966c5.83,7.197,16.524,13.634,17.69,17.955c3.991,14.801,6.908,13.689,8.55,16.138"/>
	<path fill="#FEAA00" d="M241.896,183.457c-4.756-5.848-11.463-11.066-15.345-17.609c-3.438,2.37-5.519,3.819-8.499,5.893
		c3.877,3.07,5.841,7.682,9.566,11.16c1.699,1.586,2.933,2.803,3.851,3.773c0.965-1.381,1.934-2.76,2.8-4.197
		c5.905,4.934,11.35,10.318,17.455,14.939C249.162,192.914,244.324,188.699,241.896,183.457z"/>
	<path fill="#FEAA00" d="M279.04,185.01c-2.833-3.32-4.438-4.447-6.431-5.453c0.308,2.453,0.421,4.896,0.421,7.334
		c0,3.963-0.299,7.92-0.548,11.904c7.806,2.332,15.898,5.953,19.959,7.898c-2.153-5.031-7.252-8.928-10.998-13.105
		C279.433,191.346,279.436,188.111,279.04,185.01z"/>
	<path fill="#FEAA00" d="M315.53,220.434c-8.304-3.02-9.36-8.18-14.327-10.396c1.469-3.02,4.312-5.311,7.091-7.439
		C315.883,210.521,314.807,215.152,315.53,220.434z"/>
	<path fill="none" d="M310.563,200.85c-0.036,0.029-0.073,0.059-0.11,0.088"/>
</g>
</svg>
