<?xml version="1.0" encoding="utf-8"?>
<!-- Generator: Adobe Illustrator 16.0.0, SVG Export Plug-In . SVG Version: 6.00 Build 0)  -->
<!DOCTYPE svg PUBLIC "-//W3C//DTD SVG 1.1//EN" "http://www.w3.org/Graphics/SVG/1.1/DTD/svg11.dtd">
<svg version="1.1" id="Layer_1" xmlns="http://www.w3.org/2000/svg" xmlns:xlink="http://www.w3.org/1999/xlink" x="0px" y="0px"
	 width="350px" height="350px" viewBox="0 0 350 350" enable-background="new 0 0 350 350" xml:space="preserve">
<g>
	<g>
		<path fill="#434343" d="M287.516,253.241l-9.719-23.14l9.552-25.979c0.279-0.761,0.17-1.611-0.296-2.273
			c-0.465-0.664-1.226-1.059-2.037-1.054l-20.845,0.084l-0.028-6.951c-0.007-1.367-1.119-2.47-2.485-2.465l-11.301,0.046
			l-0.361-88.143l-151.017,0.618l0.36,88.143l-11.301,0.046c-1.367,0.005-2.47,1.117-2.464,2.484l0.028,6.951l-20.845,0.087
			c-0.812,0.002-1.568,0.401-2.028,1.071c-0.46,0.667-0.563,1.517-0.277,2.274l9.764,25.901l-9.529,23.218
			c-0.315,0.766-0.225,1.638,0.236,2.326c0.462,0.684,1.236,1.093,2.063,1.091l43.409-0.179c1.366-0.005,2.47-1.117,2.465-2.484
			l-0.029-6.96l20.106-0.082l44.244,24.854l44.038-25.215l20.105-0.082l0.028,6.961c0.006,1.367,1.118,2.47,2.485,2.463
			l43.408-0.176c0.827-0.005,1.598-0.422,2.054-1.11S287.836,254.004,287.516,253.241z M146.685,163.336l2.615-0.011l-0.447,3.692
			l3.469-3.04l1.387,1.535l-8.981,7.84l-0.011-2.628l-3.695,2.643l-1.68-1.083l-1.684,1.853l-2.622-1.835l-3.221,1.859l2.137-4.133
			l-10.071,6.669l19.807-22.267l3.627,4.011l-1.407,2.592L146.685,163.336z M178.513,144.486l2.28,3.057l-2.476,5.708l2.985-3.125
			l2.374,3.373l-3.954,4.811l3.99,3.953l-2.12,2.314l-3.862-4.397l-6.728,8.899l0.292-3.668l4.03-12.646l-6.043,9.404l-5.889,3.274
			l2.041-4.489l-1.389-1.379l-4.759,5.398l-4.563-5.048l17.194-25.137l5.386,7.74l-5.316,9.402L178.513,144.486z M212.287,169.372
			l1.9-1.843l5.743,5.477l-5.987,6.737l2.74-6.814l-2.533,1.049l-2.195-1.029l-4.95,2.163l2.297-2.382l-0.58-1.036l-4.2,3.428
			l-2.167-3.111l8.198-7.947l2.554,2.437l-1.36,2.376L212.287,169.372z M108.153,113.085l132.741-0.543l0.308,74.893l-30.674-29.25
			l-10.627,10.3l-28.013-40.245l-19.732,28.85l-8.496-9.395l-35.204,39.574L108.153,113.085z M105.897,252.458l-37.226,0.154
			l8.491-20.692c0.238-0.581,0.247-1.229,0.026-1.813l-8.851-23.476l17.283-0.072l0.16,39.021c0.004,1.37,1.118,2.47,2.484,2.465
			l17.614-0.072L105.897,252.458z M90.72,243.086l-0.188-45.973l168.671-0.69l0.188,45.975L90.72,243.086z M244.291,251.893
			l-0.02-4.485l17.615-0.072c1.366-0.005,2.47-1.117,2.464-2.484l-0.159-39.021l17.283-0.07l-8.659,23.549
			c-0.217,0.585-0.202,1.232,0.041,1.813l8.66,20.621L244.291,251.893z"/>
		<polygon fill="#434343" points="167.486,98.787 174.452,95.088 181.447,98.729 180.082,90.962 185.706,85.434 177.897,84.331 
			174.379,77.274 170.917,84.36 163.118,85.526 168.788,91.009 		"/>
		<polygon fill="#434343" points="146.423,98.873 151.424,96.217 156.448,98.832 155.468,93.255 159.506,89.286 153.899,88.495 
			151.373,83.427 148.887,88.516 143.287,89.352 147.358,93.288 		"/>
		<polygon fill="#434343" points="131.381,98.936 134.972,97.028 138.579,98.905 137.875,94.9 140.776,92.051 136.749,91.482 
			134.935,87.844 133.151,91.497 129.129,92.098 132.052,94.924 		"/>
		<polygon fill="#434343" points="192.484,98.685 197.487,96.029 202.51,98.644 201.53,93.065 205.568,89.097 199.962,88.306 
			197.435,83.238 194.949,88.326 189.349,89.163 193.42,93.1 		"/>
		<polygon fill="#434343" points="210.354,98.611 213.945,96.705 217.551,98.583 216.848,94.577 219.748,91.729 215.723,91.16 
			213.908,87.521 212.123,91.175 208.102,91.775 211.025,94.602 		"/>
	</g>
	<polyline fill="none" points="249.059,233.391 100.979,233.994 100.866,206.117 248.943,205.513 	"/>
</g>
</svg>
