<?xml version="1.0" encoding="utf-8"?>
<!-- Generator: Adobe Illustrator 16.0.0, SVG Export Plug-In . SVG Version: 6.00 Build 0)  -->
<!DOCTYPE svg PUBLIC "-//W3C//DTD SVG 1.1//EN" "http://www.w3.org/Graphics/SVG/1.1/DTD/svg11.dtd">
<svg version="1.1" id="Layer_1" xmlns="http://www.w3.org/2000/svg" xmlns:xlink="http://www.w3.org/1999/xlink" x="0px" y="0px"
	 width="350px" height="350px" viewBox="0 0 350 350" enable-background="new 0 0 350 350" xml:space="preserve">
<path fill="#40434A" d="M325.398,227.481H206.996c8.74-10.554,17.301-21.291,26.307-31.576c2.375,1.992,4.686,4.05,6.943,6.157
	c5.463-6.157,5.463-6.157,12.561-15.021c-9.695-7.979-17.373-12.97-26.502-21.876c-19.014,20.587-37.379,41.783-56.52,62.315
	h-45.587c4.779-4.91,9.65-9.7,14.562-14.429c-9.274-7.408-18.901-14.44-28.656-21.209c-28.593,12.387-56.275,24.866-85.501,35.638
	c18.535-21.736,37.418-36.272,66.318-66.902c16.476,6.055,20.688,8.438,28.495,10.752c41.261-35.343,47.407-39.884,57.307-48.813
	c13.643,11.155,26.072,23.657,38.943,35.833c3.232-3.029,6.658-5.845,10.281-8.423c11.332,8.46,22.754,19.063,33.238,28.4
	c1.904-2.307,4.154-5.515,7.453-8.688C294.301,193.88,306.729,211.152,325.398,227.481z"/>
</svg>
