<?xml version="1.0" encoding="utf-8"?>
<!-- Generator: Adobe Illustrator 16.0.0, SVG Export Plug-In . SVG Version: 6.00 Build 0)  -->
<!DOCTYPE svg PUBLIC "-//W3C//DTD SVG 1.1//EN" "http://www.w3.org/Graphics/SVG/1.1/DTD/svg11.dtd">
<svg version="1.1" id="Layer_1" xmlns="http://www.w3.org/2000/svg" xmlns:xlink="http://www.w3.org/1999/xlink" x="0px" y="0px"
	 width="350px" height="350px" viewBox="0 0 350 350" enable-background="new 0 0 350 350" xml:space="preserve">
<path d="M304.285,179.068c-25.749,38.311-72.514,0.979-110.891,5.344c0.542-10.383-3.054-23.697-19.734-36.54
	c-50.646-39.583-107.69,27.294-107.444,22.376c0.247-4.917-1.859-11.979-12.782-10.57c-9.942,1.277-7.622,14.257-5.164,21.395
	c2.459,7.126-8.111,19.33-8.111,19.33c-12.047,14.991,2.704,18.1,2.704,18.1s94.901,0,117.277,0
	c22.375,0,28.274-12.205,28.274-12.205c0.462-1.071,1.433-4.983,2.399-7.62c43.91-11.33,90.14,37.197,123.664-12.688
	C318.734,179.648,308.506,172.791,304.285,179.068z"/>
</svg>
