<?xml version="1.0" encoding="utf-8"?>
<!-- Generator: Adobe Illustrator 16.0.0, SVG Export Plug-In . SVG Version: 6.00 Build 0)  -->
<!DOCTYPE svg PUBLIC "-//W3C//DTD SVG 1.1//EN" "http://www.w3.org/Graphics/SVG/1.1/DTD/svg11.dtd">
<svg version="1.1" id="Layer_1" xmlns="http://www.w3.org/2000/svg" xmlns:xlink="http://www.w3.org/1999/xlink" x="0px" y="0px"
	 width="350px" height="350px" viewBox="0 0 350 350" enable-background="new 0 0 350 350" xml:space="preserve">
<g>
	<ellipse opacity="0.2" fill="#79521E" cx="160.387" cy="259.5" rx="79.713" ry="28.26"/>
	<g>
		<g>
			<path fill="#F0EAE1" d="M235.182,102.191c0,9.387-6.666,148.986-6.666,148.986s-10.002,26.665-68.331,26.665
				c-58.326,0-67.325-25.999-67.325-25.999s-7.667-141.507-7.667-149.652c0-41.048,1.604,4.687,74.993,4.687
				C233.578,106.878,235.182,61.143,235.182,102.191z"/>
			<path fill="#F0EAE1" d="M234.493,88.803c0,14.671-33.287,26.564-74.355,26.564c-41.064,0-74.354-11.894-74.354-26.564
				s33.291-26.565,74.354-26.565C201.206,62.238,234.493,74.132,234.493,88.803z"/>
			<g>
				<defs>
					<path id="XMLID_4_" d="M227.481,88.13c0,12.389-30.151,22.433-67.344,22.433c-37.188,0-67.338-10.043-67.338-22.433
						c0-12.388,30.149-22.432,67.338-22.432C197.33,65.698,227.481,75.742,227.481,88.13z"/>
				</defs>
				<use xlink:href="#XMLID_4_"  overflow="visible" fill="#D5B894"/>
				<clipPath id="XMLID_2_">
					<use xlink:href="#XMLID_4_"  overflow="visible"/>
				</clipPath>
				<ellipse clip-path="url(#XMLID_2_)" fill="#B89D61" cx="158.847" cy="101.826" rx="67.293" ry="20.422"/>
			</g>
			<path fill="#F0EAE1" d="M228.516,251.178c0,0-4.003,26.665-68.331,26.665c-64.326,0-67.325-25.999-67.325-25.999"/>
		</g>
		<g>
			<path fill="#F0EAE1" d="M227.073,228.742c-5.205,0-8.797-0.569-9.409-0.674l3.7-21.778c0.94,0.148,24.364,3.673,33.111-13.364
				c7.145-13.911,9.658-41.152-2.661-52.176c-12.395-11.092-23.163-7.319-23.27-7.279l-8.056-20.568
				c8.613-3.372,28.002-4.768,46.056,11.386c15.82,14.157,23.218,48.283,7.582,78.729c-6.814,13.269-18.925,21.804-35.024,24.682
				C234.652,228.494,230.512,228.742,227.073,228.742z"/>
		</g>
		<g>
			<g>
				<path fill="#D5B894" d="M115.066,168.809c-5.487-0.799-8.223-1.287-13.685-2.669c-0.022-1.564-0.029-2.337-0.029-3.857
					c11.229,2.283,22.06,3.687,33.47,4.708c-0.002,1.52-0.003,2.303-0.002,3.897c-5.562-0.461-8.333-0.677-13.86-1.315
					c0.145,11.002,0.324,22.004,0.422,33.007c-2.287-0.374-3.429-0.571-5.717-1.001
					C115.581,190.654,115.271,179.732,115.066,168.809z"/>
				<path fill="#D5B894" d="M168.573,188.168c-7.229,0.302-10.512,0.357-17.417,0.089c0.003,5.681,0.006,8.567-0.016,13.841
					c7.561,0.302,10.959,0.166,19.339-0.24c-0.035,1.577-0.053,2.351-0.102,3.85c-10.936,0.534-14.778,0.729-24.958-0.087
					c-0.016-12.605-0.097-25.211-0.116-37.816c9.85,0.615,14.788,0.664,24.642,0.24c-0.05,1.499-0.071,2.273-0.108,3.85
					c-7.53,0.328-11.22,0.351-18.669,0.072c-0.018,4.622-0.017,7.116-0.015,12.084c6.937,0.267,10.272,0.222,17.468-0.074
					C168.601,185.649,168.592,186.49,168.573,188.168z"/>
				<path fill="#D5B894" d="M191.698,192.364c-1.767,5.116-2.632,7.647-4.458,12.231c-2.369,0.262-3.567,0.369-5.997,0.523
					c5.335-13.014,9.479-26.46,14.767-39.493c2.826-0.395,4.237-0.611,7.055-1.093c5.243,11.182,9.575,22.753,14.896,33.899
					c-2.475,0.634-3.691,0.943-6.113,1.536c-1.862-3.893-2.761-6.033-4.6-10.419C201.028,190.914,197.962,191.498,191.698,192.364z
					 M206.101,185.927c-1.697-4.084-2.56-6.195-4.313-10.287c-0.996-2.32-1.668-4.439-2.342-6.444
					c-0.054,0.008-0.081,0.013-0.135,0.021c-0.665,2.269-1.392,4.674-2.24,7.139c-1.728,4.707-2.572,7.146-4.246,11.917
					C198.161,187.515,200.795,187.038,206.101,185.927z"/>
			</g>
		</g>
	</g>
	<g>
		<path fill="#7D7972" d="M94.977,89.438c-3.293-1.642-4.368-3.234-11.714,1.335c-8.587,5.343-7.179,20.418-2.089,42.554
			c5.063,22.023,3.036,63.888-1.019,75.62c0,0-2.652-1.503-2.75-1.108c4.977-19.858,4.959-58.807-0.175-78.329
			c-3.119-11.859-8.758-39.297,8.323-44.271c10.298-2.998,14.273,1.958,16.432,6.021c2.514,4.731,1.287,8.891,1.287,8.891
			c-3.244-1.457-4.2-2.554-4.2-2.554S98.937,91.412,94.977,89.438z"/>
		<g>
			<path fill="#B89D61" d="M75.842,203.521l9.35,2.218c0,0,3.584,7.936,3.904,9.962c0,0-0.65,8.663-1.732,22.523
				c0,0-13.423-5.42-20.141-7.363c0,0,1.482-16.343,2.382-20.573L75.842,203.521z"/>
			<circle fill="#7D7972" cx="78.611" cy="211.528" r="2.29"/>
		</g>
	</g>
</g>
</svg>
