<?xml version="1.0" encoding="utf-8"?>
<!-- Generator: Adobe Illustrator 16.0.0, SVG Export Plug-In . SVG Version: 6.00 Build 0)  -->
<!DOCTYPE svg PUBLIC "-//W3C//DTD SVG 1.1//EN" "http://www.w3.org/Graphics/SVG/1.1/DTD/svg11.dtd">
<svg version="1.1" id="Layer_1" xmlns="http://www.w3.org/2000/svg" xmlns:xlink="http://www.w3.org/1999/xlink" x="0px" y="0px"
	 width="350px" height="350px" viewBox="0 0 350 350" enable-background="new 0 0 350 350" xml:space="preserve">
<g>
	<g>
		<path d="M130.201,253.917c-4.006,0-7.886-0.039-11.699-0.077c-4.884-0.048-9.502-0.092-14.032-0.055
			c-16.026,0.141-29.062-0.028-43.586-0.553c-0.077-0.003-0.154-0.011-0.23-0.026c-2.577-0.516-5.406-1.364-6.843-3.752
			c-1.277-2.118-1.276-4.615-1.274-6.62c0.004-6.887-0.034-13.776-0.073-20.667c-0.052-9.401-0.106-19.123-0.045-28.686
			l0.558-85.495c0.02-3.122,0.067-10.435,5.119-10.547c59.842-1.321,84.598-1.682,127.382-0.545l5.224,0.141
			c33.184,0.896,64.521,1.738,97.345-0.912c3.02-0.236,5.351,0.596,7.111,2.57c1.768,1.981,2.459,4.82,1.843,7.392
			c0.084,0.181,0.132,0.382,0.133,0.594c0.025,2.951,0.121,6.146,0.223,9.529c0.198,6.688,0.403,13.601,0.099,19.5
			c-1.609,30.944-1.604,51.817-1.593,93.403l0.002,11.217c0,7.024-1.924,10.9-6.054,12.197c-4.28,1.346-15.843,1.252-23.488,1.19
			c-1.385-0.012-2.629-0.021-3.662-0.021c-0.787,0-3.295-0.042-6.783-0.101c-9.582-0.162-27.42-0.463-36.162-0.313
			c-14.123,0.243-30.885,0.27-45.673,0.292c-13.538,0.021-25.23,0.039-32.27,0.214C137.774,253.883,133.932,253.917,130.201,253.917
			z M108.082,250.892c3.391,0,6.846,0.035,10.449,0.07c7.341,0.074,14.928,0.15,23.17-0.055c7.073-0.175,18.779-0.192,32.335-0.214
			c14.777-0.022,31.527-0.049,45.627-0.292c8.805-0.146,26.665,0.153,36.26,0.313c3.464,0.059,5.954,0.101,6.735,0.101
			c1.04,0,2.292,0.01,3.685,0.021c7.018,0.059,18.752,0.153,22.603-1.059c1.209-0.379,4.039-1.268,4.039-9.451l-0.002-11.215
			c-0.011-41.637-0.017-62.535,1.595-93.554c0.301-5.781,0.098-12.637-0.101-19.265c-0.097-3.265-0.188-6.354-0.22-9.235
			c-0.235-0.355-0.313-0.813-0.168-1.25c0.574-1.741,0.141-3.831-1.079-5.198c-1.152-1.29-2.607-1.794-4.734-1.618
			c-32.977,2.659-64.392,1.817-97.653,0.919l-5.222-0.139c-42.721-1.14-67.453-0.775-127.242,0.545
			c-2.257,0.049-2.293,5.799-2.306,7.689l-0.558,85.495c-0.062,9.544-0.007,19.257,0.045,28.649
			c0.04,6.897,0.078,13.792,0.073,20.687c-0.001,1.733-0.003,3.7,0.861,5.132c0.676,1.121,2.124,1.839,4.831,2.393
			c14.433,0.521,27.405,0.685,43.338,0.546C105.65,250.897,106.862,250.892,108.082,250.892z"/>
	</g>
	<g>
		<path d="M86.233,212.438c-6.991,0.002-13.059-0.032-17.387-0.116c-2.013-0.041-2.091-0.044-2.472-33.454
			c-0.106-9.411-0.218-19.141-0.433-25.936l-0.85-26.84c-0.038-1.167-0.084-2.618,0.472-3.984c0.563-1.39,1.634-2.404,2.494-3.221
			l8.059-7.655c0.264-0.253,0.615-0.394,0.982-0.396c12.237-0.077,24.504-0.205,36.772-0.333c12.186-0.126,24.374-0.253,36.531-0.33
			l123.677-0.78c0.003,0,0.006,0,0.009,0c0.397,0,0.777,0.165,1.05,0.456l0.797,0.85c3.097,3.309,6.022,6.433,9.467,9.543
			c0.385,0.347,0.554,0.875,0.439,1.381c-0.106,0.482-0.368,0.905-0.727,1.22c-0.032,19.85,0.188,40.418,0.397,60.317
			c0.098,9.127,0.191,18.063,0.259,26.641c0.003,0.382-0.146,0.75-0.414,1.021c-0.269,0.272-0.636,0.427-1.018,0.429
			c-0.436,0.003-43.812,0.214-68.611,0.214c-8.083,0-24.177,0.16-37.108,0.288c-8.508,0.084-15.229,0.145-16.711,0.142
			c-0.823,0.009-5.147,0.038-11.674,0.104C134.661,212.154,106.56,212.438,86.233,212.438z M69.985,209.463
			c17.578,0.287,59.738-0.138,80.219-0.345c6.543-0.065,10.881-0.103,11.724-0.104c1.456,0.007,8.161-0.058,16.663-0.142
			c12.938-0.128,29.039-0.288,37.137-0.288c22.229,0,59.393-0.17,67.154-0.207c-0.066-8.132-0.156-16.576-0.248-25.189
			c-0.215-20.196-0.436-41.082-0.396-61.217c0-0.215,0.048-0.42,0.135-0.604c-3.063-2.852-5.732-5.703-8.54-8.703l-0.365-0.391
			l-123.048,0.776c-12.154,0.077-24.335,0.204-36.519,0.33c-12.081,0.126-24.161,0.251-36.214,0.329l-7.647,7.265
			c-0.728,0.691-1.48,1.405-1.81,2.217c-0.326,0.801-0.293,1.823-0.263,2.809l0.85,26.841c0.216,6.824,0.328,16.569,0.436,25.992
			C69.39,190.898,69.558,205.652,69.985,209.463z"/>
	</g>
	<g>
		<path d="M135.701,189.755c-5.953,0-11.102-0.198-14.239-0.773c-3.042-0.555-6.69-2.258-8.792-3.605
			c-4.47-2.869-6.912-5.135-8.707-10.248c-0.712-2.025-1.72-5.847-1.58-8.07v-0.001c0.485-7.677,4.578-14.01,12.167-18.826
			c2.029-1.286,5.576-1.86,7.467-1.86c0.442,0.028,0.878,0.001,1.318,0.001c8.23,0,16.93-0.235,25.359-0.462
			c8.862-0.239,18.04-0.501,26.652-0.461c3.069-0.328,11.624-0.093,20.673,0.156c8.635,0.236,17.563,0.481,20.354,0.165
			c6.055-0.694,13.592-1.551,20.135,1.221c7.196,3.054,12.66,11.024,12.71,18.539c0.045,6.878-0.695,11.02-5.023,15.951
			c-2.892,3.295-7.457,5.407-13.203,6.107c-2.754,0.335-5.534,0.354-8.222,0.37c-1.869,0.013-3.802,0.025-5.676,0.146
			c-2.108,0.137-4.177,0.229-6.251,0.322c-1.563,0.07-3.132,0.141-4.723,0.229c-0.685,0.054-10.827-0.326-14.192-0.448
			c-3.301,0.579-12.567,0.756-15.277,0.638c-3.385-0.146-10.025,0.089-17.715,0.355C151.46,189.46,142.98,189.755,135.701,189.755z
			 M105.256,167.239c-0.105,1.669,0.787,5.126,1.422,6.937c1.526,4.346,3.561,6.22,7.546,8.778c2.215,1.42,5.549,2.795,7.755,3.198
			c6.672,1.222,23.408,0.639,36.856,0.172c7.754-0.269,14.45-0.502,17.936-0.354c2.98,0.13,12.133-0.11,14.782-0.619
			c0.106-0.02,0.216-0.034,0.323-0.024c5.11,0.186,13.457,0.509,14.097,0.456c1.587-0.091,3.166-0.161,4.741-0.23
			c2.056-0.093,4.106-0.185,6.194-0.319c1.957-0.127,3.932-0.14,5.843-0.152c2.606-0.017,5.303-0.033,7.892-0.35
			c3.511-0.427,8.334-1.668,11.388-5.147c3.738-4.259,4.351-7.772,4.31-14.034c-0.043-6.437-4.753-13.276-10.956-15.908
			c-5.847-2.483-12.669-1.701-18.686-1.013c-2.991,0.343-11.619,0.105-20.758-0.146c-8.636-0.237-17.567-0.48-20.354-0.164
			c-0.055,0.007-0.114-0.003-0.167,0.01c-8.611-0.038-17.779,0.222-26.648,0.461c-8.89,0.24-18.054,0.498-26.736,0.461
			c-0.007,0-0.015,0-0.022,0c-1.748,0-4.641,0.602-5.921,1.414C109.229,155.015,105.686,160.438,105.256,167.239L105.256,167.239z"
			/>
	</g>
	<g>
		<path d="M122.649,182.747c-0.834,0-1.686-0.09-2.534-0.313c-1.196-0.316-2.362-0.887-3.569-1.742
			c-4.155-2.948-6.686-7.944-6.602-13.04c0.084-5.033,2.716-9.883,6.88-12.706c1.559-1.341,3.944-2.074,6.902-2.074
			c0.019,0,0.035,0,0.054,0c3.781,0.011,6.697,0.795,8.915,2.398c1.689,1.224,3.093,3.031,4.172,5.371
			c1.494,3.24,2.025,6.787,1.498,9.988c-0.59,3.596-2.512,6.801-5.273,8.794c-1.918,1.384-4.095,2.102-5.776,2.574
			C125.974,182.373,124.35,182.747,122.649,182.747z M116.376,159.1c-2.163,2.313-3.502,5.459-3.554,8.6
			c-0.067,4.096,2.047,8.274,5.389,10.645c0.908,0.644,1.796,1.083,2.639,1.307c1.898,0.503,4.04,0.036,5.688-0.425
			c2.157-0.605,3.659-1.265,4.869-2.137c2.148-1.551,3.649-4.076,4.119-6.927c0.434-2.64-0.019-5.594-1.273-8.316
			c-0.87-1.887-1.962-3.315-3.246-4.245c-1.71-1.237-4.078-1.842-7.236-1.852c-0.945,0.015-3.45,0.101-4.943,1.273
			c-0.072,0.076-0.152,0.146-0.242,0.208c-0.29,0.274-0.524,0.599-0.68,0.982C117.654,158.837,117.013,159.177,116.376,159.1z"/>
	</g>
	<g>
		<path d="M226.6,183.058c-4.547,0-9.057-2.27-11.778-6.095c-3.109-4.372-3.644-10.438-1.363-15.457
			c1.946-4.282,5.371-7.324,9.751-8.715c0.204-0.165,0.455-0.275,0.735-0.308c0.23-0.027,0.461-0.054,0.689-0.079
			c0.122-0.027,0.244-0.054,0.368-0.079c0.176-0.034,0.35-0.036,0.515-0.013c3.531-0.335,6.9-0.295,9.786,1.533
			c1.758,1.114,3.248,2.891,4.556,5.43c2.492,4.838,3.858,12.349-0.493,17.592c-0.978,1.178-2.243,2.234-3.982,3.323
			c-2.185,1.366-4.212,2.222-6.197,2.615C228.331,182.976,227.464,183.058,226.6,183.058z M225.113,155.247
			c-4.143,0.981-7.261,3.548-9.036,7.451c-1.863,4.102-1.438,9.047,1.088,12.598c2.557,3.591,7.282,5.525,11.461,4.688
			c1.638-0.323,3.348-1.054,5.23-2.231c1.471-0.922,2.518-1.786,3.294-2.722c3.455-4.162,2.239-10.377,0.15-14.436
			c-1.082-2.101-2.206-3.474-3.538-4.317C231.442,154.807,228.367,154.9,225.113,155.247z"/>
	</g>
	<g>
		<path d="M227.128,182.273c-0.123,0-0.253-0.004-0.386-0.013c-2.577-0.172-5.146-0.893-7.43-2.084
			c-0.412-0.215-0.694-0.615-0.759-1.075c-0.064-0.458,0.096-0.922,0.432-1.242c0.325-0.312,0.623-0.649,0.888-1.01
			c-0.439-0.393-0.855-0.81-1.245-1.252l-1.08,1.013c-0.329,0.307-0.783,0.448-1.226,0.368c-0.444-0.074-0.826-0.354-1.034-0.753
			c-1.584-3.041-3.047-6.289-2.043-9.627c0.165-0.551,0.645-0.95,1.217-1.015l0.331-0.041c0.243-0.03,0.489-0.059,0.746-0.079
			c0.112-0.384,0.243-0.762,0.393-1.134l-0.831-0.163c-0.449-0.09-0.83-0.388-1.025-0.802c-0.194-0.416-0.179-0.899,0.042-1.301
			c1.257-2.295,3.33-5.591,6.81-7.706c0.435-0.264,0.977-0.281,1.427-0.04c0.449,0.24,0.737,0.701,0.759,1.21
			c0.014,0.352,0.059,0.698,0.131,1.04c0.197-0.037,0.397-0.075,0.594-0.117c-0.121-0.617-0.118-1.258,0.019-1.873
			c0.128-0.574,0.592-1.013,1.172-1.107c3.679-0.607,7.606,0.157,10.776,2.091c0.679,0.413,0.894,1.298,0.479,1.977
			c-0.044,0.072-0.093,0.139-0.146,0.2c-0.074,0.163-0.181,0.313-0.318,0.444l-1.008,0.95l0.51,0.517l1.536-0.896
			c0.63-0.371,1.434-0.207,1.873,0.374c1.028,1.356,2.086,2.822,2.733,4.515c0.785,2.05,0.822,4.128,0.103,5.853
			c-0.174,0.42-0.538,0.732-0.98,0.843c-0.435,0.107-0.908,0.004-1.261-0.285c-0.102-0.083-0.207-0.16-0.316-0.232
			c-0.131,0.523-0.31,1.033-0.529,1.526l0.884,0.302c0.403,0.138,0.724,0.447,0.877,0.843c0.152,0.396,0.123,0.84-0.082,1.212
			c-1.627,2.952-3.986,5.474-6.825,7.29c-0.33,0.214-0.734,0.278-1.114,0.188c-0.382-0.093-0.71-0.336-0.906-0.676
			c-0.313-0.541-0.583-1.106-0.808-1.689l-0.55,0.087c0.16,0.565,0.246,1.287-0.151,2.023
			C229.464,181.556,228.726,182.273,227.128,182.273z M222.318,178.377c1.476,0.562,3.044,0.907,4.614,1.012
			c0.057,0.004,0.108,0.006,0.154,0.007c-0.007-0.017-0.012-0.034-0.018-0.049c-0.165-0.448-0.39-1.062-0.316-1.769
			c0.067-0.647,0.563-1.169,1.206-1.271l3.311-0.524c0.731-0.116,1.429,0.344,1.617,1.058c0.069,0.263,0.149,0.521,0.24,0.775
			c1.384-1.086,2.602-2.379,3.599-3.828l-0.266-0.09c-0.871-0.296-1.185-0.863-1.294-1.284c-0.182-0.741,0.16-1.293,0.288-1.501
			c0.583-0.936,0.91-2.005,0.948-3.099c0.015-0.413,0.204-0.799,0.523-1.062c0.318-0.263,0.734-0.377,1.142-0.309
			c0.389,0.062,0.768,0.159,1.135,0.288c-0.018-0.831-0.243-1.583-0.426-2.06c-0.373-0.971-0.94-1.882-1.583-2.783l-1.037,0.606
			c-0.18,0.105-0.667,0.388-1.302,0.287c-0.595-0.105-0.942-0.461-1.074-0.593l-2.053-2.081c-0.272-0.275-0.422-0.649-0.415-1.037
			c0.008-0.386,0.171-0.754,0.451-1.02l0.917-0.864c-1.862-0.79-3.924-1.143-5.944-1.016c0.053,0.145,0.126,0.281,0.216,0.403
			c0.278,0.375,0.357,0.861,0.211,1.306c-0.146,0.444-0.499,0.79-0.945,0.926c-1.248,0.382-2.534,0.649-3.822,0.794
			c-0.649,0.066-1.251-0.292-1.492-0.888c-0.083-0.201-0.157-0.405-0.225-0.611c-1.082,0.95-2.069,2.137-3.028,3.638l0.248,0.049
			c0.157,0.032,0.492,0.101,0.816,0.37c0.496,0.394,0.899,1.252,0.322,2.317c-0.454,0.847-0.775,1.764-0.953,2.715
			c-0.142,0.752-0.829,1.256-1.607,1.162c-0.229-0.031-0.433-0.035-0.654-0.02c-0.158,1.542,0.386,3.177,1.167,4.859l0.813-0.763
			c0.306-0.287,0.724-0.43,1.135-0.382c0.416,0.042,0.792,0.266,1.031,0.608c0.73,1.048,1.621,1.963,2.647,2.718
			c0.571,0.421,0.752,1.196,0.423,1.826C222.824,177.605,222.584,178,222.318,178.377z"/>
	</g>
	<g>
		<path d="M191.698,180.411c-0.734,0-1.464-0.02-2.187-0.038c-1.764-0.047-3.535-0.104-5.312-0.16
			c-6.105-0.193-12.417-0.393-18.544-0.235l-7.75,0.196c-1.803,0.047-4.053,0.104-6.01-1.018c-0.222-0.126-0.468-0.257-0.724-0.394
			c-1.161-0.618-2.477-1.319-3.274-2.398c-1.069-1.446-1.806-2.914-2.462-4.908c-1.414-4.301-0.281-9.463,2.752-12.553
			c3.164-3.222,7.286-5.08,11.312-5.094c1.042,0.001,2.257,0.003,3.519,0.01c2.119,0.011,4.367,0.021,6.107-0.01l21.897,0.162
			c7.841,0.001,10.553,2.781,12.658,5.628c2.334,3.155,2.739,7.614,1.209,13.251c-0.24,0.894-0.551,1.926-1.177,2.848
			c-0.696,1.024-1.661,1.72-2.326,2.155c-1.652,1.074-3.542,1.839-5.471,2.212C194.503,180.341,193.09,180.411,191.698,180.411z
			 M170.314,177.043c4.675,0,9.384,0.149,13.978,0.294c1.771,0.056,3.538,0.112,5.299,0.159c1.931,0.055,3.926,0.104,5.778-0.255
			c1.568-0.305,3.106-0.926,4.448-1.799c0.726-0.475,1.209-0.906,1.517-1.36c0.375-0.554,0.592-1.283,0.78-1.984
			c1.29-4.748,1.038-8.376-0.745-10.788c-1.806-2.441-3.831-4.462-10.35-4.462c-0.004,0-0.007,0-0.011,0l-21.866-0.162
			c-1.722,0.031-3.995,0.02-6.137,0.01c-1.255-0.007-2.466-0.011-3.495-0.01c-3.262,0.011-6.64,1.554-9.268,4.233
			c-2.275,2.317-3.147,6.37-2.073,9.637c0.562,1.709,1.154,2.896,2.042,4.096c0.41,0.557,1.465,1.119,2.313,1.571
			c0.284,0.15,0.555,0.295,0.801,0.436c1.165,0.668,2.667,0.685,4.506,0.637l7.75-0.196
			C167.153,177.06,168.732,177.043,170.314,177.043z"/>
	</g>
	<g>
		<path d="M179.295,179.217c-0.272,0-0.533-0.156-0.653-0.42c-1.148-2.506-1.088-5.126-1.03-7.66
			c0.16-6.825,1.125-12.019,2.951-15.875c0.171-0.361,0.601-0.509,0.958-0.343c0.359,0.17,0.513,0.6,0.343,0.958
			c-1.738,3.67-2.658,8.673-2.813,15.293c-0.058,2.48-0.11,4.822,0.898,7.027c0.166,0.361,0.007,0.788-0.354,0.953
			C179.497,179.196,179.396,179.217,179.295,179.217z"/>
	</g>
	<g>
		<path d="M171.379,179.121c-0.031,0-0.063-0.001-0.094-0.005c-0.395-0.053-0.671-0.413-0.621-0.807
			c1.074-8.222,0.547-16.031-1.524-22.583c-0.12-0.378,0.09-0.783,0.469-0.902c0.379-0.117,0.783,0.09,0.902,0.469
			c2.134,6.751,2.681,14.775,1.581,23.202C172.044,178.857,171.735,179.121,171.379,179.121z"/>
	</g>
	<g>
		<path d="M189.684,179.466c-0.287,0-0.557-0.172-0.669-0.454c-1.741-4.397-1.412-9.283-1.123-13.594
			c0.202-3.02,0.733-7.377,2.986-10.337c0.24-0.316,0.691-0.378,1.008-0.136c0.315,0.24,0.378,0.691,0.136,1.007
			c-2.018,2.652-2.504,6.727-2.693,9.561c-0.28,4.16-0.598,8.874,1.024,12.967c0.146,0.37-0.035,0.788-0.403,0.935
			C189.862,179.45,189.771,179.466,189.684,179.466z"/>
	</g>
	<g>
		<path d="M192.699,179.428c-0.248,0-0.488-0.128-0.621-0.356c-1.601-2.737-1.793-6.764-1.934-9.704
			c-0.114-2.397-0.007-4.122,0.215-6.313c0.221-2.201,1.249-4.699,2.075-6.707l0.384-0.939c0.147-0.369,0.566-0.546,0.936-0.399
			c0.368,0.149,0.549,0.568,0.399,0.936l-0.388,0.95c-0.791,1.921-1.774,4.312-1.976,6.304c-0.215,2.125-0.317,3.793-0.213,6.03
			c0.128,2.653,0.294,6.131,1.45,8.563c0.033,0.039,0.06,0.083,0.083,0.129l0.233,0.47c0.172,0.347,0.038,0.769-0.304,0.952
			C192.933,179.399,192.815,179.428,192.699,179.428z"/>
	</g>
	<g>
		<path d="M187.803,179.443c-0.337,0-0.638-0.239-0.705-0.583c-1.87-9.701-1.401-17.657,1.396-23.648
			c0.169-0.36,0.6-0.518,0.957-0.347c0.359,0.168,0.516,0.596,0.347,0.957c-2.665,5.71-3.099,13.371-1.285,22.766
			c0.074,0.391-0.181,0.767-0.571,0.843C187.895,179.439,187.85,179.443,187.803,179.443z"/>
	</g>
	<g>
		<path d="M185.891,179.494c-0.254,0-0.5-0.135-0.631-0.374c-0.125-0.228-0.114-0.493,0.006-0.703
			c-0.173-0.749-0.354-1.458-0.536-2.166c-0.356-1.389-0.724-2.822-0.968-4.273c-0.905-5.405,0.18-11.547,2.978-16.85
			c0.188-0.353,0.624-0.485,0.973-0.301c0.352,0.186,0.486,0.621,0.301,0.972c-2.615,4.957-3.674,10.916-2.832,15.939
			c0.233,1.391,0.595,2.796,0.941,4.154c0.194,0.753,0.387,1.508,0.563,2.265c0.192,0.825-0.295,1.164-0.448,1.248
			C186.127,179.466,186.009,179.494,185.891,179.494z"/>
	</g>
	<g>
		<path d="M183.989,179.185c-0.281,0-0.548-0.166-0.663-0.441c-2.689-6.416-3.069-16.878,1.526-23.631
			c0.225-0.33,0.674-0.41,0.999-0.189c0.328,0.223,0.413,0.67,0.189,0.999c-4.309,6.333-3.932,16.199-1.389,22.265
			c0.155,0.367-0.018,0.789-0.385,0.942C184.177,179.166,184.082,179.185,183.989,179.185z"/>
	</g>
	<g>
		<path d="M181.373,179.421c-0.333,0-0.633-0.233-0.703-0.573c-1.095-5.285-2.283-15.387,2.048-23.664
			c0.187-0.352,0.624-0.485,0.971-0.305c0.353,0.184,0.489,0.62,0.305,0.971c-4.124,7.88-2.969,17.609-1.915,22.705
			c0.082,0.39-0.168,0.771-0.558,0.851C181.472,179.417,181.422,179.421,181.373,179.421z"/>
	</g>
	<g>
		<path d="M194.275,179.242c-0.302,0-0.583-0.191-0.683-0.494c-2.571-7.795-2.131-15.767,1.277-23.054
			c0.169-0.361,0.6-0.517,0.957-0.347c0.359,0.168,0.516,0.597,0.347,0.957c-3.25,6.947-3.67,14.554-1.215,21.994
			c0.125,0.377-0.08,0.784-0.459,0.908C194.426,179.231,194.351,179.242,194.275,179.242z"/>
	</g>
	<g>
		<path d="M196.343,178.635c-0.31,0-0.596-0.2-0.688-0.511c-1.306-4.339-1.574-8.946-0.846-14.5
			c0.202-1.541,0.933-5.333,3.336-7.296c0.308-0.249,0.759-0.207,1.013,0.103c0.25,0.308,0.205,0.761-0.103,1.013
			c-1.392,1.134-2.445,3.516-2.818,6.368c-0.703,5.344-0.45,9.761,0.795,13.896c0.115,0.381-0.102,0.782-0.48,0.896
			C196.48,178.625,196.411,178.635,196.343,178.635z"/>
	</g>
	<g>
		<path d="M198.683,178.006c-0.315,0-0.604-0.208-0.693-0.527c-1.127-4.047-1.393-8.382-0.767-12.536
			c0.434-2.888,1.371-5.222,2.782-6.935c0.253-0.308,0.707-0.352,1.012-0.099c0.308,0.251,0.352,0.706,0.099,1.012
			c-1.244,1.511-2.074,3.609-2.471,6.235c-0.595,3.956-0.343,8.083,0.73,11.938c0.106,0.382-0.116,0.778-0.5,0.885
			C198.811,177.997,198.745,178.006,198.683,178.006z"/>
	</g>
	<g>
		<path d="M150.61,177.461c-0.043,0-0.087-0.005-0.131-0.012c-0.391-0.071-0.65-0.447-0.579-0.838l0.139-0.747
			c0.451-2.43,1.013-5.452,0.888-7.691c-0.137-2.451-1.089-5.372-2.424-7.442c-0.216-0.334-0.119-0.78,0.214-0.995
			c0.334-0.215,0.778-0.119,0.995,0.214c1.461,2.265,2.503,5.46,2.652,8.142c0.135,2.413-0.444,5.53-0.909,8.035l-0.138,0.743
			C151.252,177.218,150.951,177.461,150.61,177.461z"/>
	</g>
	<g>
		<path d="M201.456,176.716c-0.281,0-0.549-0.166-0.664-0.442c-2.146-5.156-1.84-11.166,0.821-16.078
			c0.191-0.351,0.626-0.478,0.976-0.289c0.35,0.189,0.479,0.625,0.289,0.975c-2.418,4.466-2.709,10.151-0.757,14.838
			c0.151,0.366-0.021,0.788-0.388,0.941C201.642,176.697,201.549,176.716,201.456,176.716z"/>
	</g>
	<g>
		<path d="M153.023,178.808c-0.059,0-0.119-0.007-0.178-0.022c-0.385-0.098-0.617-0.49-0.519-0.875
			c1.62-6.315,0.938-13.31-1.873-19.192c-0.171-0.358-0.02-0.789,0.338-0.96c0.357-0.173,0.787-0.021,0.96,0.339
			c2.954,6.183,3.672,13.535,1.969,20.17C153.637,178.592,153.345,178.808,153.023,178.808z"/>
	</g>
	<g>
		<path d="M155.146,179.236c-0.059,0-0.12-0.007-0.179-0.022c-0.385-0.098-0.617-0.49-0.519-0.875
			c1.778-6.931,0.982-14.585-2.182-21.004c-0.176-0.355-0.029-0.787,0.328-0.962c0.354-0.173,0.788-0.03,0.962,0.327
			c3.315,6.721,4.148,14.738,2.286,21.996C155.761,179.021,155.468,179.236,155.146,179.236z"/>
	</g>
	<g>
		<path d="M157.229,179.283c-0.082,0-0.163-0.015-0.243-0.042c-0.374-0.135-0.568-0.547-0.434-0.921
			c1.145-3.187,1.31-6.367,0.548-10.636c-0.676-3.79-2.028-7.483-3.336-11.054c-0.136-0.374,0.055-0.787,0.429-0.923
			c0.376-0.135,0.787,0.058,0.923,0.429c1.328,3.63,2.702,7.382,3.4,11.295c0.798,4.473,0.61,7.981-0.61,11.375
			C157.801,179.101,157.524,179.283,157.229,179.283z"/>
	</g>
	<g>
		<path d="M159.078,179.175c-0.052,0-0.105-0.006-0.16-0.019c-0.386-0.088-0.629-0.474-0.541-0.861
			c1.61-7.064,0.698-14.766-2.638-22.271c-0.162-0.363,0.003-0.789,0.366-0.95c0.364-0.161,0.787,0.001,0.95,0.365
			c3.462,7.792,4.405,15.806,2.725,23.176C159.704,178.948,159.407,179.175,159.078,179.175z"/>
	</g>
	<g>
		<path d="M160.847,179.175c-0.049,0-0.098-0.004-0.147-0.016c-0.388-0.08-0.639-0.461-0.558-0.85
			c1.478-7.161,0.688-14.966-2.282-22.571c-0.145-0.37,0.038-0.787,0.409-0.932c0.369-0.145,0.787,0.038,0.932,0.409
			c3.072,7.865,3.885,15.951,2.349,23.386C161.48,178.941,161.181,179.175,160.847,179.175z"/>
	</g>
	<g>
		<path d="M162.668,179.309c-0.049,0-0.098-0.005-0.147-0.016c-0.389-0.08-0.639-0.461-0.558-0.851
			c1.644-7.905,0.79-16.24-2.348-22.865c-0.17-0.358-0.017-0.789,0.343-0.958c0.357-0.168,0.787-0.018,0.958,0.343
			c3.267,6.902,4.162,15.568,2.455,23.774C163.301,179.075,163.001,179.309,162.668,179.309z"/>
	</g>
	<g>
		<path d="M164.573,179.203c-0.035,0-0.07-0.003-0.107-0.007c-0.394-0.06-0.665-0.425-0.605-0.818
			c0.978-6.621,1.647-15.176-1.883-22.631c-0.17-0.358-0.017-0.788,0.343-0.958c0.357-0.167,0.787-0.018,0.958,0.343
			c3.696,7.803,3.013,16.635,2.005,23.457C165.23,178.945,164.922,179.203,164.573,179.203z"/>
	</g>
	<g>
		<path d="M166.423,178.995c-0.043,0-0.087-0.004-0.131-0.012c-0.391-0.071-0.649-0.446-0.579-0.837
			c0.694-3.803,1.411-7.734,1.031-11.609c-0.224-2.302-0.84-4.592-1.436-6.807l-1.148-4.272c-0.104-0.384,0.124-0.778,0.507-0.881
			c0.388-0.102,0.78,0.125,0.881,0.507l1.149,4.271c0.611,2.272,1.244,4.621,1.479,7.041c0.398,4.075-0.337,8.108-1.048,12.007
			C167.067,178.752,166.763,178.995,166.423,178.995z"/>
	</g>
	<g>
		<path d="M168.623,178.951c-0.042,0-0.086-0.004-0.128-0.011c-0.391-0.07-0.652-0.444-0.582-0.835
			c1.331-7.456,0.734-15.182-1.727-22.344c-0.129-0.375,0.07-0.784,0.447-0.914c0.378-0.13,0.784,0.07,0.913,0.447
			c2.54,7.392,3.156,15.368,1.783,23.064C169.268,178.707,168.964,178.951,168.623,178.951z"/>
	</g>
	<g>
		<path d="M93.625,253.601c-0.063,0-0.128-0.004-0.194-0.013c-0.787-0.106-1.339-0.832-1.234-1.618
			c1.938-14.352,3.935-25.991,6.286-36.633c0.173-0.776,0.933-1.261,1.716-1.095c0.776,0.171,1.266,0.939,1.095,1.716
			c-2.334,10.562-4.317,22.126-6.244,36.396C94.951,253.076,94.334,253.601,93.625,253.601z"/>
	</g>
	<g>
		<path d="M259.389,253.11c-0.684,0-1.289-0.489-1.415-1.185l-1.916-10.693c-1.402-7.824-2.985-16.65-5.372-24.701
			c-8.738,0.231-15.228,0.196-24.854,0.141c-5.184-0.028-11.272-0.063-19.106-0.063c-1.823,0-4.412,0.017-7.497,0.036
			c-7.354,0.05-17.423,0.114-26.712,0.018c-8.813-0.096-19.649,0.007-28.359,0.088c-6.433,0.061-11.986,0.111-15.057,0.072
			c-7.473-0.098-13.113,0-18.57,0.096c-3.53,0.06-6.919,0.119-10.568,0.119c-0.795,0-1.439-0.644-1.439-1.439
			c0-0.795,0.644-1.438,1.439-1.438c3.632,0,7.005-0.06,10.519-0.119c5.477-0.096,11.144-0.192,18.656-0.096
			c3.047,0.04,8.583-0.012,14.994-0.072c8.722-0.08,19.579-0.181,28.417-0.088c9.267,0.097,19.322,0.03,26.663-0.016
			c3.093-0.021,5.688-0.038,7.516-0.038c7.841,0,13.936,0.035,19.123,0.063c9.997,0.059,16.603,0.094,25.856-0.17
			c0.645-0.007,1.226,0.396,1.416,1.016c2.615,8.493,4.292,17.839,5.771,26.085l1.916,10.692c0.141,0.783-0.381,1.53-1.162,1.671
			C259.56,253.104,259.474,253.11,259.389,253.11z"/>
	</g>
	<g>
		<g>
			<path d="M117.684,249.129c-0.801,0-1.616-0.129-2.405-0.389c-1.87-0.618-3.413-1.911-4.234-3.55
				c-0.822-1.639-0.934-3.647-0.309-5.516c0.624-1.869,1.924-3.407,3.566-4.221c0.654-0.326,1.438-0.105,1.835,0.487
				c0.957-0.186,1.925-0.183,2.855-0.145c0.974,0.041,2.098,0.135,3.115,0.747c0.759,0.457,1.386,1.165,1.866,2.103
				c0.833,1.63,0.962,3.64,0.354,5.511c-0.61,1.874-1.897,3.424-3.533,4.253C119.85,248.888,118.779,249.129,117.684,249.129z
				 M114.52,238.817c-0.461,0.479-0.828,1.087-1.055,1.77c-0.384,1.146-0.329,2.355,0.152,3.313c0.482,0.96,1.417,1.728,2.564,2.106
				c1.146,0.377,2.356,0.319,3.315-0.166c0.957-0.484,1.721-1.423,2.095-2.574c0.374-1.149,0.309-2.354-0.18-3.311
				c-0.228-0.445-0.5-0.774-0.789-0.947c-0.434-0.261-1.103-0.311-1.751-0.337c-1.193-0.051-2.146-0.016-2.949,0.317
				C115.44,239.184,114.912,239.104,114.52,238.817z"/>
		</g>
		<g>
			<path d="M122.2,240.298c-0.531,0-1.041-0.296-1.292-0.803c-0.551-1.117-1.756-1.912-3-1.981
				c-1.265-0.046-2.529,0.593-3.198,1.642c-0.429,0.672-1.317,0.867-1.987,0.441c-0.67-0.428-0.867-1.317-0.441-1.987
				c1.229-1.928,3.482-3.099,5.782-2.968c2.284,0.124,4.414,1.529,5.424,3.58c0.353,0.714,0.059,1.575-0.653,1.927
				C122.63,240.25,122.414,240.298,122.2,240.298z"/>
		</g>
		<g>
			<path d="M142.495,244.951c-0.327,0-0.665-0.012-1.02-0.03c-3.042-0.162-4.122-1.149-5.218-2.424
				c-1.363-1.59-1.116-3.8-0.983-4.989c0.154-1.378,0.394-2.815,1.466-3.91c0.804-0.819,1.95-1.283,3.346-1.363
				c0.822-0.279,1.713-0.399,2.635-0.361c2.645,0.143,5.074,1.786,6.045,4.092c1.036,2.461,0.033,6.019-2.15,7.615
				C145.067,244.71,143.878,244.951,142.495,244.951z M138.239,237.043c-0.042,0.25-0.074,0.516-0.104,0.785
				c-0.117,1.043-0.199,2.205,0.307,2.794c0.704,0.82,1.129,1.315,3.184,1.424c1.533,0.08,2.122,0.064,3.292-0.79
				c1.117-0.817,1.721-2.924,1.194-4.175c-0.544-1.291-2.001-2.251-3.545-2.333c-0.317-0.021-0.642,0.003-0.951,0.058
				c-0.254,0.195-0.576,0.326-0.922,0.297c-0.013,0-0.024,0-0.037,0c-0.611,0.278-1.117,0.707-1.423,1.239
				C139.015,236.727,138.644,236.972,138.239,237.043z"/>
		</g>
		<g>
			<path d="M210.48,245.008c-1.496,0-3.009-0.563-4.243-1.602c-1.448-1.215-2.32-2.913-2.396-4.661
				c-0.074-1.75,0.649-3.518,1.985-4.853c1.338-1.334,3.079-2.061,4.855-1.976c0.18,0.008,0.35,0.049,0.506,0.115
				c1.556-0.153,3.41-0.104,4.779,1.162c0.951,0.881,1.476,2.203,1.518,3.825c0.108,3.909-2.692,7.471-6.242,7.939
				C210.989,244.992,210.735,245.008,210.48,245.008z M208.265,235.573c-0.14,0.108-0.275,0.228-0.405,0.356
				c-0.767,0.767-1.185,1.747-1.144,2.691c0.041,0.943,0.541,1.885,1.372,2.581c0.83,0.699,1.845,1.021,2.779,0.904
				c2.059-0.273,3.807-2.612,3.739-5.01c-0.012-0.476-0.105-1.337-0.595-1.79c-0.619-0.574-1.922-0.489-2.851-0.376
				c-0.649,0.082-1.324,0.186-1.791,0.473C209.024,235.615,208.629,235.664,208.265,235.573z"/>
		</g>
		<g>
			<path d="M234.974,248.683c-0.593,0-1.189-0.074-1.773-0.229c-1.037-0.273-2.073-0.792-3.165-1.588
				c-0.753-0.549-1.806-1.432-2.241-2.753c-0.233-0.701-0.282-1.492-0.15-2.415c0.103-0.708,0.31-1.406,0.608-2.071
				c0.009-0.275,0.096-0.553,0.269-0.794c0.328-0.457,0.688-0.891,1.078-1.299c0.311-0.355,0.652-0.688,1.021-0.99
				c0.347-0.284,0.711-0.537,1.088-0.756c0.317-0.205,0.645-0.396,0.979-0.571c0.936-0.485,1.79-0.757,2.613-0.83
				c1.466-0.131,3.063,0.39,4.334,1.427c2.548,2.072,3.377,5.99,1.887,8.916C240.281,247.166,237.657,248.683,234.974,248.683z
				 M231.714,239.486c-0.654,0.768-1.085,1.684-1.221,2.62c-0.068,0.471-0.057,0.831,0.033,1.103
				c0.177,0.534,0.771,1.015,1.204,1.329c0.798,0.582,1.519,0.952,2.204,1.133c1.878,0.495,4.138-0.51,5.021-2.247
				c0.884-1.736,0.374-4.149-1.139-5.38c-0.296-0.24-0.615-0.432-0.939-0.566c-0.277,0.17-0.613,0.248-0.96,0.199
				c-0.889-0.129-1.833,0.074-2.699,0.561C232.673,238.599,232.167,239.018,231.714,239.486z"/>
		</g>
	</g>
	<g>
		<g>
			<path d="M76.681,122.536c-0.392,0-0.712-0.315-0.72-0.707c-0.007-0.398,0.311-0.725,0.707-0.732l94.875-1.591
				c16.896-0.282,33.905-0.064,50.354,0.146c16.437,0.209,33.438,0.43,50.31,0.146c0.004,0,0.009,0,0.013,0
				c0.392,0,0.713,0.315,0.72,0.707c0.007,0.397-0.311,0.725-0.707,0.732c-16.897,0.284-33.905,0.064-50.354-0.146
				c-16.438-0.211-33.44-0.432-50.309-0.146l-94.875,1.591C76.689,122.536,76.685,122.536,76.681,122.536z"/>
		</g>
		<g>
			<path d="M97.857,131.291c-8.229,0-21.342-0.732-21.495-0.74c-0.396-0.022-0.7-0.361-0.678-0.759
				c0.022-0.395,0.322-0.707,0.759-0.677c0.176,0.01,17.786,0.985,24.898,0.676c3.949-0.177,7.958-0.468,11.836-0.749
				c7.211-0.523,14.659-1.065,22.07-0.896c14.441,0.326,30.308-0.111,45.297-0.628c10.567-0.361,18.356-0.236,26.604-0.104
				c6.367,0.104,12.952,0.211,21.328,0.104c4.06-0.055,8.81,0.02,13.401,0.09c3.416,0.052,6.78,0.103,9.786,0.103
				c1.982,0,4.027,0.093,6.193,0.191c5.19,0.237,10.557,0.479,15.16-0.607c0.39-0.099,0.776,0.147,0.866,0.534
				c0.091,0.387-0.147,0.774-0.534,0.866c-4.799,1.134-10.271,0.884-15.558,0.645c-2.148-0.097-4.178-0.189-6.128-0.189
				c-3.013,0-6.384-0.051-9.807-0.103c-4.585-0.07-9.324-0.145-13.364-0.09c-8.398,0.104-14.993,0-21.369-0.104
				c-8.228-0.132-15.998-0.258-26.528,0.104c-15.013,0.517-30.902,0.95-45.38,0.628c-7.335-0.163-14.755,0.374-21.934,0.892
				c-3.887,0.283-7.909,0.573-11.875,0.75C100.403,131.271,99.193,131.291,97.857,131.291z"/>
		</g>
		<g>
			<path d="M100.051,139.499c-7.687,0-15.473-0.097-23.373-0.337c-0.396-0.013-0.708-0.344-0.697-0.742
				c0.014-0.396,0.285-0.665,0.742-0.697c24.756,0.753,48.434,0.096,71.329-0.542c8.777-0.245,17.852-0.498,26.718-0.659
				c13.48-0.248,25.591-0.138,38.411-0.024c18.276,0.165,37.173,0.336,60.295-0.62c0.361,0.013,0.731,0.293,0.749,0.69
				c0.016,0.396-0.292,0.732-0.689,0.749c-23.161,0.954-42.074,0.784-60.367,0.62c-12.81-0.114-24.911-0.222-38.373,0.024
				c-8.857,0.162-17.929,0.415-26.702,0.659C132.475,139.055,116.493,139.499,100.051,139.499z"/>
		</g>
	</g>
	<g>
		<path d="M106.471,221.626c-0.146,0-0.294-0.043-0.42-0.136c-0.323-0.232-0.396-0.682-0.163-1.004l3.583-4.976
			c0.23-0.324,0.682-0.398,1.003-0.163c0.323,0.232,0.396,0.682,0.163,1.004l-3.583,4.976
			C106.914,221.522,106.694,221.626,106.471,221.626z"/>
	</g>
	<g>
		<path d="M111.09,219.833c-0.145,0-0.29-0.043-0.416-0.132c-0.325-0.229-0.401-0.679-0.171-1.003l2.226-3.146
			c0.232-0.324,0.682-0.396,1.003-0.172c0.325,0.229,0.4,0.679,0.171,1.004l-2.226,3.146
			C111.537,219.728,111.315,219.833,111.09,219.833z"/>
	</g>
	<g>
		<path d="M113.962,224.478c-0.104,0-0.208-0.022-0.308-0.068c-0.36-0.171-0.513-0.601-0.343-0.959
			c1.479-3.119,3.506-5.897,6.026-8.254c0.292-0.27,0.745-0.257,1.017,0.033c0.271,0.291,0.256,0.747-0.034,1.018
			c-2.354,2.201-4.328,4.906-5.708,7.818C114.489,224.326,114.231,224.478,113.962,224.478z"/>
	</g>
	<g>
		<path d="M122.472,220.185c-0.06,0-0.121-0.007-0.183-0.023c-0.383-0.101-0.614-0.493-0.513-0.879
			c0.376-1.436,1.242-2.712,2.439-3.59c0.317-0.233,0.769-0.169,1.006,0.154c0.235,0.32,0.166,0.771-0.154,1.006
			c-0.917,0.674-1.61,1.692-1.9,2.795C123.083,219.971,122.792,220.185,122.472,220.185z"/>
	</g>
	<g>
		<path d="M129.299,220.925c-0.152,0-0.305-0.048-0.434-0.146c-0.316-0.239-0.379-0.69-0.139-1.008l3.527-4.662
			c0.239-0.316,0.694-0.38,1.008-0.14c0.316,0.239,0.379,0.69,0.139,1.008l-3.527,4.662
			C129.732,220.827,129.517,220.925,129.299,220.925z"/>
	</g>
	<g>
		<path d="M137.435,219.807c-0.163,0-0.326-0.055-0.461-0.167c-0.305-0.255-0.346-0.708-0.091-1.014
			c0.298-0.356,0.923-1.09,1.55-1.822c0.621-0.728,1.242-1.456,1.539-1.812c0.255-0.305,0.709-0.344,1.013-0.091
			c0.305,0.254,0.346,0.708,0.091,1.013c-0.298,0.357-0.923,1.091-1.55,1.822c-0.621,0.729-1.242,1.456-1.539,1.812
			C137.845,219.718,137.64,219.807,137.435,219.807z"/>
	</g>
	<g>
		<path d="M143.899,224.475c-0.1,0-0.201-0.021-0.296-0.064c-0.362-0.163-0.522-0.589-0.358-0.951
			c1.346-2.977,2.902-5.893,4.625-8.669c0.211-0.337,0.658-0.437,0.991-0.231c0.337,0.209,0.441,0.653,0.232,0.99
			c-1.689,2.724-3.216,5.584-4.538,8.503C144.435,224.317,144.173,224.475,143.899,224.475z"/>
	</g>
	<g>
		<path d="M151.757,220.206c-0.101,0-0.202-0.021-0.299-0.066c-0.361-0.164-0.52-0.592-0.354-0.953l1.33-2.896
			c0.164-0.362,0.593-0.521,0.953-0.354c0.361,0.165,0.52,0.592,0.354,0.953l-1.329,2.896
			C152.29,220.05,152.03,220.206,151.757,220.206z"/>
	</g>
	<g>
		<path d="M157.043,224.454c-0.112,0-0.225-0.025-0.33-0.08c-0.353-0.183-0.492-0.617-0.309-0.97
			c1.529-2.954,3.261-5.833,5.151-8.563c0.226-0.326,0.674-0.404,1.002-0.181c0.326,0.226,0.407,0.674,0.181,1.002
			c-1.855,2.677-3.557,5.504-5.056,8.401C157.555,224.312,157.303,224.454,157.043,224.454z"/>
	</g>
	<g>
		<path d="M166.763,219.519c-0.128,0-0.258-0.033-0.375-0.105c-0.339-0.206-0.445-0.65-0.239-0.989l1.756-2.869
			c0.207-0.34,0.649-0.447,0.989-0.236c0.339,0.207,0.444,0.65,0.236,0.989l-1.754,2.867
			C167.241,219.396,167.005,219.519,166.763,219.519z"/>
	</g>
	<g>
		<path d="M190.09,223.332c-0.108,0-0.218-0.023-0.322-0.075c-0.355-0.178-0.499-0.608-0.321-0.966l3.486-6.989
			c0.177-0.354,0.606-0.5,0.965-0.322c0.355,0.178,0.499,0.608,0.322,0.966l-3.486,6.989
			C190.608,223.187,190.354,223.332,190.09,223.332z"/>
	</g>
	<g>
		<path d="M198.075,220.91c-0.115,0-0.233-0.028-0.342-0.086c-0.35-0.189-0.48-0.625-0.292-0.976l2.877-5.333
			c0.189-0.35,0.626-0.478,0.975-0.292c0.351,0.189,0.48,0.625,0.293,0.976l-2.877,5.333
			C198.578,220.773,198.331,220.91,198.075,220.91z"/>
	</g>
	<g>
		<path d="M199.119,224.106c-0.077,0-0.155-0.013-0.231-0.038c-0.377-0.129-0.578-0.538-0.45-0.913
			c0.998-2.922,2.454-5.646,4.328-8.099c0.243-0.317,0.693-0.375,1.009-0.135c0.316,0.242,0.376,0.693,0.136,1.009
			c-1.781,2.329-3.162,4.914-4.109,7.688C199.698,223.918,199.419,224.106,199.119,224.106z"/>
	</g>
	<g>
		<path d="M210.48,221.223c-0.131,0-0.263-0.034-0.382-0.109c-0.336-0.211-0.438-0.654-0.228-0.992l2.888-4.61
			c0.212-0.337,0.656-0.436,0.992-0.228c0.335,0.211,0.438,0.655,0.228,0.992l-2.888,4.61
			C210.954,221.104,210.72,221.223,210.48,221.223z"/>
	</g>
	<g>
		<path d="M213.416,224.128c-0.131,0-0.262-0.035-0.379-0.108c-0.338-0.209-0.441-0.653-0.232-0.99l5.058-8.158
			c0.211-0.337,0.656-0.439,0.99-0.231c0.338,0.209,0.441,0.653,0.232,0.991l-5.058,8.157
			C213.891,224.007,213.656,224.128,213.416,224.128z"/>
	</g>
	<g>
		<path d="M228.743,220.194c-0.033,0-0.065-0.001-0.098-0.007c-0.394-0.052-0.67-0.414-0.616-0.808
			c0.225-1.688,1.042-3.254,2.299-4.405c0.292-0.268,0.747-0.251,1.016,0.043c0.269,0.292,0.249,0.748-0.044,1.016
			c-0.993,0.912-1.666,2.202-1.846,3.537C229.406,219.932,229.097,220.194,228.743,220.194z"/>
	</g>
	<g>
		<path d="M234,223.728c-0.093,0-0.188-0.019-0.278-0.057c-0.367-0.154-0.54-0.576-0.385-0.941l3.413-8.112
			c0.154-0.364,0.574-0.538,0.942-0.384c0.365,0.154,0.538,0.576,0.384,0.943l-3.413,8.109
			C234.548,223.562,234.28,223.728,234,223.728z"/>
	</g>
	<g>
		<path d="M238.666,220.889c-0.107,0-0.218-0.023-0.32-0.074c-0.355-0.178-0.5-0.608-0.324-0.966l2.129-4.284
			c0.176-0.355,0.611-0.502,0.964-0.323c0.355,0.176,0.5,0.608,0.323,0.964l-2.126,4.284
			C239.185,220.742,238.931,220.889,238.666,220.889z"/>
	</g>
	<g>
		<path d="M206.179,221.291c-0.101,0-0.203-0.021-0.3-0.066c-0.361-0.166-0.519-0.593-0.354-0.954l2.163-4.702
			c0.166-0.362,0.597-0.517,0.954-0.353c0.361,0.166,0.519,0.593,0.353,0.954l-2.162,4.702
			C206.712,221.136,206.45,221.291,206.179,221.291z"/>
	</g>
	<g>
		<path d="M244.779,221.996c-0.104,0-0.211-0.022-0.311-0.07c-0.358-0.172-0.511-0.602-0.339-0.96l2.978-6.221
			c0.172-0.358,0.602-0.512,0.96-0.339c0.358,0.172,0.51,0.602,0.339,0.96l-2.978,6.221
			C245.305,221.846,245.048,221.996,244.779,221.996z"/>
	</g>
	<g>
		<path d="M174.15,224.839c-0.095,0-0.192-0.019-0.285-0.06c-0.365-0.158-0.533-0.581-0.375-0.945l3.437-7.933
			c0.159-0.363,0.576-0.534,0.947-0.374c0.364,0.159,0.531,0.582,0.374,0.947l-3.437,7.93
			C174.693,224.677,174.429,224.839,174.15,224.839z"/>
	</g>
	<g>
		<path d="M119.605,245.014c-0.487,0-1.006-0.067-1.563-0.202c-1.092-0.268-3.058-1.012-3.95-3.012
			c-0.46-1.028-0.462-2.326-0.01-3.387c0.344-0.804,0.922-1.386,1.63-1.64c0.375-0.132,0.787,0.062,0.92,0.434
			c0.133,0.374-0.061,0.786-0.434,0.921c-0.441,0.157-0.686,0.6-0.793,0.851c-0.291,0.683-0.292,1.58,0,2.235
			c0.643,1.438,2.14,1.995,2.977,2.199c0.84,0.203,1.54,0.214,2.136,0.033c0.677-0.202,1.238-0.686,1.5-1.291
			c0.159-0.364,0.583-0.535,0.946-0.375c0.365,0.157,0.532,0.581,0.375,0.945c-0.429,0.992-1.328,1.776-2.406,2.1
			C120.516,244.95,120.075,245.014,119.605,245.014z"/>
	</g>
	<g>
		<path d="M143.572,240.562c-1.883,0-3.471-0.609-4.472-1.717c-1.183-1.307-1.543-3.662-0.192-5.084
			c0.272-0.288,0.731-0.297,1.018-0.025c0.288,0.273,0.299,0.729,0.025,1.018c-0.753,0.792-0.501,2.332,0.218,3.126
			c0.977,1.081,2.549,1.244,3.403,1.244c0.001,0,0.004,0,0.007,0c0.703-0.002,1.216-0.102,1.61-0.313
			c0.479-0.259,0.967-0.858,1-1.234c0.056-0.612-0.173-1.908-0.562-2.347c-0.264-0.296-0.236-0.751,0.061-1.016
			c0.293-0.263,0.752-0.239,1.016,0.061c0.791,0.891,0.989,2.677,0.919,3.435c-0.09,0.972-0.97,1.946-1.752,2.367
			c-0.804,0.434-1.692,0.485-2.291,0.486C143.577,240.562,143.575,240.562,143.572,240.562z"/>
	</g>
	<g>
		<path d="M208.661,240.819c-1.084,0-2.172-0.338-3.05-0.969c-0.215-0.156-0.417-0.326-0.618-0.497
			c-0.302-0.259-0.337-0.713-0.079-1.015c0.259-0.301,0.713-0.338,1.015-0.079c0.17,0.146,0.342,0.291,0.524,0.423
			c0.836,0.602,1.938,0.835,2.948,0.621c1.011-0.212,1.925-0.869,2.449-1.759c0.337-0.57,0.483-1.185,0.412-1.731
			c-0.063-0.472-0.307-0.909-0.644-1.168c-0.063,0.015-0.127,0.025-0.204,0.018c-0.396-0.022-0.7-0.363-0.678-0.759
			c0.015-0.245,0.2-0.543,0.412-0.664c0.332-0.188,0.715-0.113,0.945,0.009c0.848,0.441,1.459,1.352,1.596,2.378
			c0.112,0.864-0.102,1.806-0.601,2.648c-0.725,1.231-1.992,2.142-3.391,2.437C209.357,240.784,209.01,240.819,208.661,240.819z"/>
	</g>
	<g>
		<path d="M232.003,244.89c-0.614,0-1.193-0.108-2.018-0.311c-0.387-0.094-0.623-0.483-0.527-0.87
			c0.094-0.385,0.48-0.618,0.87-0.526c1.408,0.343,1.854,0.353,3.176,0.058c1.396-0.313,2.598-1.113,3.296-2.192
			c0.744-1.146,0.904-2.655,0.412-3.796c-0.173-0.017-0.34-0.095-0.467-0.232c-0.266-0.296-0.243-0.751,0.051-1.018
			c0.218-0.195,0.503-0.274,0.793-0.221c0.42,0.083,0.727,0.438,0.872,0.743c0.771,1.613,0.592,3.694-0.452,5.307
			c-0.902,1.393-2.43,2.418-4.19,2.814C233.073,244.812,232.525,244.89,232.003,244.89z"/>
	</g>
	<g>
		<path d="M123.275,182.202c-0.12,0-0.24-0.016-0.358-0.046c-3.212-0.827-6.498-1.881-8.267-4.835
			c-0.288-0.479-0.271-1.082,0.042-1.546l0.178-0.267c0.138-0.207,0.275-0.416,0.432-0.625c-0.196-0.32-0.377-0.648-0.542-0.985
			l-0.572,0.451c-0.365,0.288-0.846,0.377-1.294,0.25c-0.445-0.131-0.801-0.47-0.954-0.908c-0.852-2.444-1.903-6.149-1.208-10.118
			c0.088-0.506,0.441-0.926,0.924-1.103c0.482-0.177,1.024-0.082,1.418,0.249c0.239,0.201,0.491,0.381,0.753,0.54
			c0.094-0.159,0.184-0.319,0.272-0.48c-0.524-0.319-0.986-0.745-1.345-1.252c-0.33-0.469-0.352-1.089-0.052-1.578
			c1.913-3.139,4.976-5.565,8.402-6.655c0.756-0.242,1.565,0.177,1.807,0.936c0.028,0.087,0.046,0.177,0.058,0.266
			c0.069,0.16,0.108,0.336,0.114,0.52l0.042,1.36l0.59-0.032l0.332-1.72c0.138-0.72,0.807-1.221,1.524-1.162
			c1.637,0.128,3.374,0.306,5.02,0.944c1.987,0.767,3.516,2.113,4.304,3.788c0.191,0.408,0.181,0.881-0.028,1.28
			s-0.593,0.677-1.037,0.752c-0.114,0.02-0.226,0.043-0.337,0.074c0.284,0.429,0.532,0.881,0.743,1.354l0.704-0.413
			c0.373-0.221,0.823-0.259,1.227-0.108c0.405,0.149,0.721,0.472,0.861,0.88c1.086,3.145,1.398,6.552,0.901,9.853
			c-0.059,0.391-0.277,0.739-0.6,0.965c-0.323,0.227-0.725,0.311-1.114,0.229c-0.572-0.118-1.134-0.281-1.681-0.489l-0.271,0.438
			c0.513,0.256,1.09,0.672,1.369,1.452c0.251,0.707,0.285,1.826-0.989,3.132c-1.775,1.812-3.939,3.25-6.259,4.166
			c-0.436,0.166-0.925,0.122-1.315-0.135c-0.391-0.256-0.634-0.685-0.65-1.15c-0.017-0.443-0.069-0.88-0.158-1.308
			c-0.527,0.063-1.057,0.096-1.588,0.096l0.042,1.459c0.012,0.452-0.187,0.884-0.541,1.166
			C123.916,182.094,123.598,182.202,123.275,182.202z M117.643,176.557c0.986,1.11,2.469,1.776,4.138,2.297l-0.031-1.077
			c-0.011-0.419,0.16-0.821,0.469-1.104c0.311-0.282,0.729-0.416,1.143-0.365c1.204,0.146,2.421,0.087,3.61-0.179
			c0.691-0.148,1.411,0.23,1.661,0.905c0.153,0.41,0.28,0.829,0.379,1.257c1.307-0.719,2.521-1.636,3.572-2.71
			c0.042-0.043,0.079-0.083,0.111-0.119c-0.013-0.006-0.025-0.01-0.037-0.016c-0.433-0.174-1.026-0.415-1.495-0.941
			c-0.423-0.477-0.483-1.172-0.149-1.713l1.732-2.805c0.396-0.644,1.227-0.87,1.893-0.517c0.201,0.105,0.406,0.202,0.614,0.289
			c0.094-1.711-0.059-3.436-0.453-5.101l-0.146,0.085c-0.81,0.471-1.446,0.323-1.837,0.12c-0.666-0.353-0.846-0.981-0.913-1.217
			c-0.301-1.046-0.863-1.991-1.625-2.738c-0.29-0.284-0.447-0.676-0.432-1.081c0.014-0.404,0.198-0.784,0.507-1.045
			c0.294-0.25,0.608-0.469,0.939-0.659c-0.606-0.532-1.288-0.857-1.744-1.034c-0.911-0.353-1.9-0.528-2.927-0.642l-0.22,1.146
			c-0.035,0.195-0.136,0.748-0.635,1.165c-0.458,0.381-0.962,0.406-1.152,0.417l-2.803,0.158c-0.384,0.028-0.768-0.113-1.053-0.375
			c-0.287-0.261-0.455-0.628-0.468-1.016l-0.037-1.201c-1.711,0.863-3.243,2.144-4.417,3.704c0.126,0.049,0.258,0.082,0.389,0.093
			c0.462,0.042,0.875,0.303,1.11,0.703c0.236,0.399,0.264,0.887,0.078,1.311c-0.517,1.175-1.146,2.307-1.866,3.364
			c-0.371,0.543-1.063,0.767-1.681,0.541c-0.166-0.06-0.33-0.125-0.493-0.195c-0.001,1.398,0.219,2.879,0.671,4.538l0.105-0.084
			c0.096-0.076,0.371-0.296,0.789-0.374c0.653-0.12,1.561,0.147,1.976,1.284c0.326,0.912,0.78,1.754,1.352,2.51
			c0.452,0.599,0.37,1.443-0.191,1.942C117.91,176.227,117.775,176.38,117.643,176.557z"/>
	</g>
	<g>
		<path d="M68.727,106.056c-0.16,0-0.322-0.053-0.455-0.162c-0.308-0.251-0.353-0.705-0.103-1.013l5.382-6.597
			c0.253-0.308,0.707-0.352,1.013-0.103c0.308,0.251,0.353,0.705,0.103,1.013l-5.382,6.597
			C69.142,105.966,68.935,106.056,68.727,106.056z"/>
	</g>
	<g>
		<path d="M76.649,103.633c-0.142,0-0.285-0.042-0.412-0.129c-0.326-0.226-0.406-0.676-0.178-1.002l0.85-1.223
			c0.228-0.323,0.676-0.403,1.002-0.178c0.326,0.226,0.406,0.676,0.178,1.002l-0.85,1.223
			C77.101,103.525,76.876,103.633,76.649,103.633z"/>
	</g>
	<g>
		<path d="M83.209,105.918c-0.132,0-0.265-0.037-0.385-0.112c-0.336-0.212-0.436-0.658-0.222-0.992l4.481-7.06
			c0.212-0.336,0.66-0.435,0.992-0.222c0.335,0.212,0.436,0.658,0.222,0.992l-4.481,7.06C83.68,105.8,83.447,105.918,83.209,105.918
			z"/>
	</g>
	<g>
		<path d="M94.455,102.092c-0.142,0-0.285-0.042-0.41-0.128c-0.326-0.226-0.408-0.674-0.181-1.002l1.565-2.254
			c0.228-0.328,0.674-0.406,1.001-0.181c0.326,0.226,0.408,0.674,0.182,1.002l-1.565,2.254
			C94.906,101.983,94.683,102.092,94.455,102.092z"/>
	</g>
	<g>
		<path d="M103.465,104.593c-0.129,0-0.261-0.035-0.379-0.108c-0.337-0.209-0.441-0.652-0.232-0.991
			c1.428-2.305,3.102-4.469,4.976-6.432c0.274-0.285,0.728-0.298,1.017-0.022c0.287,0.274,0.298,0.729,0.022,1.017
			c-1.806,1.89-3.417,3.976-4.793,6.196C103.94,104.472,103.706,104.593,103.465,104.593z"/>
	</g>
	<g>
		<path d="M117.848,100.927c-0.166,0-0.332-0.056-0.468-0.173c-0.302-0.257-0.337-0.712-0.079-1.015l2.481-2.899
			c0.259-0.302,0.712-0.336,1.015-0.079c0.302,0.259,0.337,0.712,0.079,1.015l-2.481,2.899
			C118.252,100.841,118.05,100.927,117.848,100.927z"/>
	</g>
	<g>
		<path d="M122.843,106.029c-0.186,0-0.371-0.072-0.511-0.214c-0.28-0.284-0.277-0.739,0.005-1.017
			c0.613-0.604,1.107-1.356,1.633-2.153c0.411-0.623,0.833-1.266,1.352-1.903c0.25-0.308,0.704-0.353,1.012-0.104
			c0.308,0.25,0.355,0.703,0.104,1.012c-0.472,0.581-0.875,1.193-1.266,1.786c-0.568,0.861-1.104,1.675-1.823,2.385
			C123.208,105.96,123.026,106.029,122.843,106.029z"/>
	</g>
	<g>
		<path d="M136.04,102.75c-0.175,0-0.35-0.063-0.489-0.191c-0.291-0.27-0.309-0.725-0.04-1.017l3.378-3.648
			c0.271-0.292,0.725-0.309,1.017-0.04c0.291,0.27,0.309,0.725,0.04,1.018l-3.378,3.648
			C136.426,102.672,136.233,102.75,136.04,102.75z"/>
	</g>
	<g>
		<path d="M142.234,101.082c-0.173,0-0.347-0.062-0.485-0.188c-0.293-0.269-0.314-0.724-0.046-1.016
			c0.32-0.351,0.566-0.653,0.797-0.936c0.492-0.604,0.957-1.173,1.877-1.897c0.308-0.243,0.762-0.194,1.01,0.123
			c0.245,0.312,0.191,0.764-0.122,1.01c-0.794,0.624-1.172,1.088-1.65,1.674c-0.246,0.3-0.509,0.622-0.85,0.996
			C142.623,101.002,142.429,101.082,142.234,101.082z"/>
	</g>
	<g>
		<path d="M156.946,102.124c-0.153,0-0.306-0.048-0.437-0.147c-0.316-0.242-0.375-0.694-0.135-1.009l2.677-3.493
			c0.243-0.315,0.694-0.376,1.009-0.132c0.315,0.242,0.374,0.692,0.132,1.009l-2.674,3.491
			C157.376,102.027,157.163,102.124,156.946,102.124z"/>
	</g>
	<g>
		<path d="M171.798,100.851c-0.184,0-0.368-0.07-0.509-0.211c-0.281-0.281-0.281-0.736,0-1.018l1.652-1.652
			c0.281-0.281,0.736-0.281,1.018,0s0.281,0.736,0,1.018l-1.652,1.652C172.167,100.781,171.982,100.851,171.798,100.851z"/>
	</g>
	<g>
		<path d="M181.984,104.2c-0.172,0-0.343-0.061-0.48-0.184c-0.296-0.266-0.32-0.721-0.055-1.016l4.697-5.229
			c0.267-0.296,0.721-0.319,1.016-0.055c0.297,0.266,0.32,0.721,0.055,1.016l-4.697,5.229
			C182.378,104.12,182.181,104.2,181.984,104.2z"/>
	</g>
	<g>
		<path d="M193.279,102.854c-0.147,0-0.297-0.045-0.425-0.139c-0.192-0.141-0.295-0.36-0.295-0.582c0-0.147,0.045-0.295,0.14-0.423
			l2.129-2.913c0.235-0.32,0.686-0.389,1.005-0.156c0.192,0.141,0.295,0.359,0.295,0.582c0,0.147-0.045,0.295-0.14,0.423
			l-2.129,2.913C193.719,102.751,193.5,102.854,193.279,102.854z"/>
	</g>
	<g>
		<path d="M212.849,105.352c-0.166,0-0.332-0.056-0.468-0.173c-0.303-0.258-0.338-0.712-0.079-1.014l4.931-5.764
			c0.26-0.302,0.713-0.337,1.015-0.079c0.303,0.259,0.337,0.713,0.079,1.015l-4.932,5.764
			C213.253,105.266,213.051,105.352,212.849,105.352z"/>
	</g>
	<g>
		<path d="M218.995,105.988c-0.147,0-0.296-0.045-0.423-0.138c-0.322-0.233-0.393-0.684-0.159-1.005
			c0.55-0.756,0.846-1.127,1.415-1.704c0.278-0.284,0.736-0.287,1.018-0.009c0.283,0.28,0.286,0.735,0.008,1.018
			c-0.513,0.521-0.757,0.828-1.277,1.542C219.436,105.886,219.217,105.988,218.995,105.988z"/>
	</g>
	<g>
		<path d="M205.902,102.146c-0.147,0-0.295-0.045-0.423-0.138c-0.322-0.233-0.393-0.685-0.159-1.005
			c0.656-0.902,1.011-1.346,1.696-2.043c0.279-0.285,0.735-0.285,1.018-0.008c0.284,0.278,0.286,0.733,0.009,1.017
			c-0.632,0.642-0.93,1.015-1.559,1.88C206.344,102.044,206.124,102.146,205.902,102.146z"/>
	</g>
	<g>
		<path d="M163.632,104.975c-0.147,0-0.295-0.045-0.423-0.138c-0.322-0.233-0.392-0.683-0.159-1.004
			c0.771-1.061,1.162-1.552,1.956-2.358c0.278-0.284,0.733-0.287,1.018-0.008c0.284,0.278,0.287,0.733,0.008,1.018
			c-0.735,0.748-1.082,1.183-1.818,2.195C164.074,104.873,163.854,104.975,163.632,104.975z"/>
	</g>
	<g>
		<path d="M228.69,106.167c-0.147,0-0.295-0.045-0.423-0.138c-0.321-0.233-0.392-0.683-0.158-1.005l4.322-5.943
			c0.234-0.323,0.685-0.391,1.005-0.159c0.321,0.233,0.392,0.683,0.158,1.005l-4.322,5.942
			C229.132,106.064,228.913,106.167,228.69,106.167z"/>
	</g>
	<g>
		<path d="M245.511,105.672c-0.145,0-0.29-0.044-0.417-0.134c-0.323-0.23-0.399-0.679-0.169-1.003l3.255-4.577
			c0.231-0.322,0.682-0.397,1.003-0.168c0.323,0.23,0.399,0.679,0.169,1.003l-3.254,4.577
			C245.957,105.567,245.736,105.672,245.511,105.672z"/>
	</g>
	<g>
		<path d="M256.605,102.523c-0.131,0-0.263-0.035-0.382-0.109c-0.336-0.211-0.438-0.655-0.229-0.992
			c0.953-1.523,1.529-2.284,2.461-3.251c0.278-0.286,0.733-0.292,1.018-0.02c0.286,0.275,0.295,0.731,0.02,1.018
			c-0.863,0.896-1.374,1.574-2.278,3.019C257.079,102.404,256.845,102.523,256.605,102.523z"/>
	</g>
	<g>
		<path d="M269.747,103.618c-0.163,0-0.327-0.055-0.461-0.167c-0.305-0.254-0.346-0.708-0.092-1.013l3.495-4.181
			c0.256-0.305,0.713-0.344,1.014-0.091c0.305,0.254,0.345,0.708,0.091,1.013l-3.495,4.181
			C270.157,103.529,269.952,103.618,269.747,103.618z"/>
	</g>
	<g>
		<path d="M278.654,101.634c-0.16,0-0.321-0.054-0.455-0.163c-0.308-0.251-0.353-0.706-0.101-1.012l2.613-3.191
			c0.25-0.308,0.705-0.354,1.012-0.101c0.308,0.251,0.353,0.706,0.102,1.012l-2.614,3.191
			C279.069,101.543,278.862,101.634,278.654,101.634z"/>
	</g>
</g>
</svg>
