<?xml version="1.0" encoding="utf-8"?>
<!-- Generator: Adobe Illustrator 16.0.0, SVG Export Plug-In . SVG Version: 6.00 Build 0)  -->
<!DOCTYPE svg PUBLIC "-//W3C//DTD SVG 1.1//EN" "http://www.w3.org/Graphics/SVG/1.1/DTD/svg11.dtd">
<svg version="1.1" id="Layer_1" xmlns="http://www.w3.org/2000/svg" xmlns:xlink="http://www.w3.org/1999/xlink" x="0px" y="0px"
	 width="350px" height="350px" viewBox="0 0 350 350" enable-background="new 0 0 350 350" xml:space="preserve">
<polygon fill="#314E55" points="99.563,89.804 99.563,91.979 108.527,91.552 "/>
<path fill="#E4AD40" d="M281.785,233.826c-0.005,0-0.01,0.003-0.01,0.003c-0.011,0-0.019-0.003-0.026-0.003H60.623
	c-0.345,0-0.621,0.026-0.834,0.062c0.083,0.202,0.209,0.453,0.393,0.748c0.002,0,0.002,0,0.002,0l14.012,22.423
	c1.954,3.123,7.098,5.97,10.793,5.97H265.02c3.696,0,8.841-2.847,10.796-5.972l14.01-22.418c0.186-0.298,0.312-0.549,0.394-0.751
	c-0.213-0.036-0.487-0.062-0.832-0.062H281.785L281.785,233.826z"/>
<path fill="#314E55" d="M298.996,229.021c-1.737-3.132-5.24-4.929-9.61-4.929h-2.671c-0.628-5.764-3.748-13.022-12.868-17.43
	c-3.63-1.754-7.509-2.277-11.561-2.132c-4.037-3.947-9.642-7.058-17.357-8.156c-6.537-0.93-14.107-3.191-21.425-5.383
	c-17.951-5.366-38.297-11.449-44.716,4.416c-1.085,2.684-2.814,5.279-4.9,7.739c-3.689,0.124-7.809,0.472-12.52,1.138
	c-28.029,3.953-35.552,13.773-37.492,19.808h-4.844V112.148c0-2.688-2.179-4.867-4.867-4.867s-4.867,2.179-4.867,4.867v111.943
	h-9.734V101.724l49.107-2.339l144.556,28.206l1.863-9.553L189.525,97.44l104.948-4.998l-0.463-9.722l-144.628,6.887l-63.398-12.37
	l-1.863,9.554l5.708,1.113v4.539l-9.959,0.474l0.463,9.722l9.497-0.452v121.904H60.623c-4.38,0-7.888,1.794-9.623,4.927
	c-1.735,3.132-1.397,7.06,0.93,10.779l14.01,22.418c3.757,6.012,11.947,10.547,19.05,10.547h180.031
	c7.101,0,15.29-4.534,19.05-10.547l14.012-22.42C300.401,236.084,300.734,232.157,298.996,229.021z M99.563,89.804l8.963,1.748
	l-8.963,0.427V89.804z M276.905,224.092h-5.53c-0.253-2.652-0.906-5.688-2.098-8.783c0.106,0.047,0.229,0.067,0.334,0.118
	C274.687,217.88,276.377,221.397,276.905,224.092z M178.093,212.839c9.614,0.191,15.085,2.398,20.422,4.562
	c5.628,2.278,11.445,4.634,20.895,4.634c9.92,0,19.101-2.45,27.201-4.61c4.158-1.108,8.041-2.124,11.581-2.709
	c2.188,3.361,3.048,6.926,3.378,9.378h-97.448C168.652,221.083,173.685,217.256,178.093,212.839z M220.714,200.319
	c7.662,2.291,15.583,4.66,22.844,5.695c1.579,0.225,2.977,0.592,4.294,1.016c-1.241,0.321-2.49,0.653-3.75,0.989
	c-7.89,2.104-16.049,4.28-24.692,4.28c-7.552,0-12.042-1.817-17.238-3.923c-4.591-1.855-9.527-3.841-16.706-4.763
	c0.896-1.484,1.718-2.995,2.35-4.556C190.693,191.936,202.712,194.935,220.714,200.319z M161.442,214.127
	c-7.416,5.234-14.256,8.559-14.388,8.622c-0.675,0.322-1.209,0.798-1.65,1.343h-10.348
	C138.255,220.751,145.751,216.512,161.442,214.127z M289.825,234.639l-14.01,22.418c-1.956,3.125-7.101,5.973-10.796,5.973H84.988
	c-3.695,0-8.841-2.847-10.793-5.97l-14.012-22.421c0,0,0-0.002-0.002-0.002c-0.184-0.294-0.309-0.547-0.393-0.749
	c0.214-0.035,0.49-0.062,0.834-0.062H281.75c0.008,0,0.015,0.003,0.021,0.003c0,0,0.009-0.003,0.014-0.003h7.602
	c0.345,0,0.619,0.026,0.831,0.062C290.137,234.09,290.011,234.343,289.825,234.639z"/>
</svg>
