<?xml version="1.0" encoding="utf-8"?>
<!-- Generator: Adobe Illustrator 16.0.0, SVG Export Plug-In . SVG Version: 6.00 Build 0)  -->
<!DOCTYPE svg PUBLIC "-//W3C//DTD SVG 1.1//EN" "http://www.w3.org/Graphics/SVG/1.1/DTD/svg11.dtd">
<svg version="1.1" id="Capa_1" xmlns="http://www.w3.org/2000/svg" xmlns:xlink="http://www.w3.org/1999/xlink" x="0px" y="0px"
	 width="350px" height="350px" viewBox="0 0 350 350" enable-background="new 0 0 350 350" xml:space="preserve">
<g id="XMLID_15_">
	<g id="XMLID_113_">
		<rect id="XMLID_119_" x="65.206" y="82.852" fill="#EAEAD7" width="219.588" height="125.479"/>
		<rect id="XMLID_118_" x="65.206" y="208.33" fill="#D0CFB8" width="219.588" height="11.764"/>
		<rect id="XMLID_117_" x="65.206" y="220.094" fill="#BFBDA4" width="219.588" height="11.764"/>
		<rect id="XMLID_116_" x="65.206" y="231.857" fill="#D0CFB8" width="219.588" height="11.764"/>
		<rect id="XMLID_115_" x="65.206" y="243.621" fill="#BFBDA4" width="219.588" height="11.764"/>
		<rect id="XMLID_114_" x="65.206" y="255.385" fill="#D0CFB8" width="219.588" height="11.764"/>
	</g>
	<path id="XMLID_112_" fill="#EAEAD7" d="M225.976,145.591c0,28.154-22.821,50.976-50.976,50.976s-50.976-22.821-50.976-50.976
		S146.846,94.615,175,94.615S225.976,117.437,225.976,145.591"/>
	<path id="XMLID_111_" fill="#6E8C61" d="M147.92,188.725c-14.336-9.022-23.896-24.943-23.896-43.134s9.56-34.11,23.896-43.133
		h-39.679c0.059,0.647,0.098,1.298,0.098,1.96c0,11.913-9.658,21.567-21.566,21.567c-0.663,0-1.314-0.039-1.961-0.098v39.408
		c0.647-0.059,1.298-0.098,1.961-0.098c11.909,0,21.566,9.654,21.566,21.567c0,0.663-0.039,1.313-0.098,1.961H147.92z"/>
	<path id="XMLID_110_" fill="#6E8C61" d="M263.228,125.985c-11.913,0-21.567-9.654-21.567-21.567c0-0.663,0.04-1.313,0.099-1.96
		H202.08c14.332,9.023,23.896,24.943,23.896,43.133s-9.563,34.111-23.896,43.134h39.679c-0.059-0.647-0.099-1.298-0.099-1.961
		c0-11.913,9.654-21.567,21.567-21.567c0.663,0,1.313,0.04,1.96,0.098v-39.408C264.541,125.946,263.891,125.985,263.228,125.985"/>
	<path id="XMLID_109_" fill="#6E8C61" d="M86.773,114.221c-5.408,0-9.803-4.396-9.803-9.803c0-5.407,4.396-9.803,9.803-9.803
		c5.407,0,9.803,4.396,9.803,9.803C96.576,109.826,92.18,114.221,86.773,114.221"/>
	<path id="XMLID_108_" fill="#6E8C61" d="M263.228,114.221c-5.408,0-9.804-4.396-9.804-9.803c0-5.407,4.396-9.803,9.804-9.803
		c5.407,0,9.803,4.396,9.803,9.803C273.03,109.826,268.635,114.221,263.228,114.221"/>
	<path id="XMLID_107_" fill="#6E8C61" d="M86.773,196.566c-5.408,0-9.803-4.396-9.803-9.803s4.396-9.803,9.803-9.803
		c5.407,0,9.803,4.396,9.803,9.803S92.18,196.566,86.773,196.566"/>
	<path id="XMLID_106_" fill="#6E8C61" d="M263.228,196.566c-5.408,0-9.804-4.396-9.804-9.803s4.396-9.803,9.804-9.803
		c5.407,0,9.803,4.396,9.803,9.803S268.635,196.566,263.228,196.566"/>
	<path id="XMLID_105_" fill="#6E8C61" d="M194.438,151.586c15.512-6.576-3.753-25.602-3.753-25.602
		c-16.01-13.889-35.291-3.921-35.291-3.921c-0.977,3.341,1.945,13.14,5.121,14.266c-3.172,3.486-5.121,8.101-5.121,13.183
		c0,6.372,6.666,9.069,7.336,11.007c0.326,0.949,0.49,1.933,0.506,2.921c0.047,2.921-1.462,5.658-3.623,7.63l-16.034,14.607
		c8.662,6.799,19.555,10.889,31.42,10.889c11.865,0,22.759-4.09,31.421-10.889l-15.912-14.481c-2.616-2.376-4.2-5.886-3.588-9.364
		c0.082-0.494,0.207-0.984,0.372-1.467C187.717,159.107,194.284,152.947,194.438,151.586"/>
</g>
</svg>
