<?xml version="1.0" encoding="utf-8"?>
<!-- Generator: Adobe Illustrator 16.0.0, SVG Export Plug-In . SVG Version: 6.00 Build 0)  -->
<!DOCTYPE svg PUBLIC "-//W3C//DTD SVG 1.1//EN" "http://www.w3.org/Graphics/SVG/1.1/DTD/svg11.dtd">
<svg version="1.1" id="Layer_1" xmlns="http://www.w3.org/2000/svg" xmlns:xlink="http://www.w3.org/1999/xlink" x="0px" y="0px"
	 width="350px" height="350px" viewBox="0 0 350 350" enable-background="new 0 0 350 350" xml:space="preserve">
<g>
	<path fill="#502911" d="M154.82,130.523c0,0,1.58,21.054,23.728,19.642c22.148-1.413,17.16-21.443,17.16-21.443L154.82,130.523z"/>
	<polygon fill="#021530" points="157.583,222.86 172.856,307.035 181.158,307.035 197.605,222.86 	"/>
	<g>
		<image overflow="visible" width="80" height="80" xlink:href="7B886350.png"  transform="matrix(1 0 0 1 111 78)">
		</image>
	</g>
	<g>
		<image overflow="visible" width="80" height="80" xlink:href="7B886351.png"  transform="matrix(1 0 0 1 160 78)">
		</image>
	</g>
	<polygon fill="#F5AF98" points="171.703,141.677 183.865,141.923 183.865,150.232 171.703,150.232 	"/>
	<path fill="#F5AF98" d="M217.484,219.737c-8.377-1.645-21.258-33.939-22.18-41.449c-0.143-1.149-0.218-1.819-0.218-1.819
		l-33.784-0.274c0,0-0.011,0.27-0.034,0.763c-0.214,4.872-12.735,42.467-19.62,40.992c-7.389-1.582,7.328-7.456,9.838-41.967
		c0.82-11.276,2.889-21.111,2.889-21.111l17.201-5.054l12.271-0.016l17.901,4.75c0,0,2.537,10.767,3.36,22.625
		C206.142,192.04,223.574,215.956,217.484,219.737L217.484,219.737z"/>
	<g opacity="0.46">
		<g>
			<g>
				<defs>
					<rect id="SVGID_1_" x="171.703" y="142.128" width="12.162" height="3.432"/>
				</defs>
				<clipPath id="SVGID_2_">
					<use xlink:href="#SVGID_1_"  overflow="visible"/>
				</clipPath>
				<g clip-path="url(#SVGID_2_)">
					<defs>
						<rect id="SVGID_3_" x="171.703" y="142.128" width="12.162" height="3.432"/>
					</defs>
					<clipPath id="SVGID_4_">
						<use xlink:href="#SVGID_3_"  overflow="visible"/>
					</clipPath>
				</g>
			</g>
		</g>
		<g>
			<g>
				<defs>
					<rect id="SVGID_5_" x="171.703" y="142.128" width="12.162" height="3.432"/>
				</defs>
				<use xlink:href="#SVGID_5_"  overflow="visible" fill="#EF8066"/>
				<clipPath id="SVGID_6_">
					<use xlink:href="#SVGID_5_"  overflow="visible"/>
				</clipPath>
				<g clip-path="url(#SVGID_6_)">
					<defs>
						<rect id="SVGID_7_" x="171.703" y="142.128" width="12.162" height="3.432"/>
					</defs>
					<use xlink:href="#SVGID_7_"  overflow="visible" fill="#EF8066"/>
					<clipPath id="SVGID_8_">
						<use xlink:href="#SVGID_7_"  overflow="visible"/>
					</clipPath>
					<path clip-path="url(#SVGID_8_)" fill="#EF8066" d="M171.703,142.128c0,0,6.749,0.17,12.162,0.247v3.185
						c0,0-12.033-2.543-12.162-2.593V142.128z"/>
				</g>
			</g>
		</g>
		<g>
			<g>
				<defs>
					<rect id="SVGID_9_" x="171.703" y="142.128" width="12.162" height="3.432"/>
				</defs>
				<clipPath id="SVGID_10_">
					<use xlink:href="#SVGID_9_"  overflow="visible"/>
				</clipPath>
				<g clip-path="url(#SVGID_10_)">
					<defs>
						<rect id="SVGID_11_" x="171.703" y="142.128" width="12.162" height="3.432"/>
					</defs>
					<clipPath id="SVGID_12_">
						<use xlink:href="#SVGID_11_"  overflow="visible"/>
					</clipPath>
				</g>
			</g>
		</g>
	</g>
	<path fill="#EB6D54" d="M180.891,155.434c0,0,0.076-0.12,0.233-0.305c0.159-0.184,0.403-0.44,0.746-0.691
		c0.168-0.128,0.367-0.247,0.585-0.362c0.221-0.103,0.463-0.199,0.729-0.257c0.13-0.032,0.266-0.061,0.403-0.073
		c0.141-0.021,0.281-0.024,0.425-0.022c0.278-0.002,0.551,0.009,0.83,0.012c0.554,0.012,1.108,0.009,1.625,0.029
		c0.52,0.026,1.002,0.083,1.412,0.124c0.824,0.086,1.375,0.206,1.375,0.206c0.013,0.005,0.021,0.016,0.019,0.028
		c-0.001,0.011-0.011,0.019-0.02,0.021c0,0-0.557,0.088-1.394,0.124c-0.418,0.021-0.902,0.014-1.419-0.009
		c-0.519-0.034-1.069-0.096-1.622-0.142c-0.273-0.024-0.556-0.052-0.82-0.066c-0.13-0.009-0.257-0.017-0.384-0.003
		c-0.128,0-0.253,0.018-0.376,0.04c-0.246,0.037-0.477,0.116-0.692,0.195c-0.214,0.089-0.413,0.187-0.584,0.294
		c-0.348,0.214-0.609,0.441-0.778,0.608c-0.173,0.17-0.255,0.279-0.255,0.279c-0.008,0.009-0.023,0.011-0.033,0.005
		C180.884,155.458,180.883,155.444,180.891,155.434L180.891,155.434z"/>
	<g opacity="0.46">
		<g>
			<defs>
				<rect id="SVGID_13_" x="181.187" y="153.984" width="5.939" height="1.135"/>
			</defs>
			<clipPath id="SVGID_14_">
				<use xlink:href="#SVGID_13_"  overflow="visible"/>
			</clipPath>
			<g clip-path="url(#SVGID_14_)">
				<defs>
					<rect id="SVGID_15_" x="181.187" y="153.984" width="5.937" height="1.135"/>
				</defs>
				<clipPath id="SVGID_16_">
					<use xlink:href="#SVGID_15_"  overflow="visible"/>
				</clipPath>
				<path clip-path="url(#SVGID_16_)" fill="#DCA15F" d="M181.192,155.079c0,0,0.243-0.313,0.743-0.632
					c0.126-0.079,0.269-0.159,0.426-0.228c0.158-0.063,0.332-0.127,0.521-0.16c0.185-0.043,0.386-0.057,0.589-0.057h0.57
					c0.19,0,0.384-0.001,0.573-0.004c0.19-0.011,0.375-0.014,0.551-0.014c0.358,0.008,0.69,0.039,0.979,0.065
					c0.575,0.06,0.961,0.155,0.961,0.155c0.013,0.004,0.021,0.017,0.019,0.03c-0.003,0.01-0.009,0.016-0.019,0.019
					c0,0-0.382,0.109-0.961,0.171c-0.287,0.034-0.627,0.055-0.992,0.051c-0.182-0.003-0.37-0.011-0.561-0.025
					c-0.188-0.021-0.379-0.04-0.571-0.058c-0.193-0.019-0.386-0.037-0.576-0.055c-0.174-0.017-0.35-0.024-0.52,0
					c-0.17,0.015-0.331,0.057-0.484,0.101c-0.152,0.044-0.294,0.101-0.42,0.162c-0.255,0.12-0.452,0.252-0.588,0.349
					c-0.137,0.098-0.206,0.164-0.206,0.164c-0.009,0.007-0.024,0.007-0.032-0.001C181.186,155.101,181.186,155.086,181.192,155.079"
					/>
			</g>
		</g>
	</g>
	<path fill="#EB6D54" d="M175.276,155.462c0,0-0.083-0.109-0.253-0.281c-0.171-0.165-0.43-0.393-0.779-0.606
		c-0.172-0.107-0.37-0.205-0.582-0.294c-0.217-0.079-0.448-0.158-0.694-0.195c-0.123-0.021-0.249-0.04-0.376-0.04
		c-0.128-0.014-0.254-0.006-0.385,0.003c-0.265,0.015-0.546,0.042-0.821,0.065c-0.551,0.047-1.101,0.109-1.618,0.143
		c-0.52,0.023-1.003,0.031-1.422,0.009c-0.835-0.036-1.392-0.124-1.392-0.124c-0.013-0.002-0.023-0.015-0.02-0.028
		c0-0.01,0.01-0.018,0.019-0.021c0,0,0.551-0.12,1.375-0.206c0.41-0.041,0.893-0.097,1.411-0.124
		c0.519-0.02,1.072-0.017,1.626-0.029c0.279-0.003,0.551-0.014,0.831-0.012c0.143-0.002,0.283,0.001,0.421,0.022
		c0.141,0.012,0.275,0.041,0.407,0.073c0.263,0.059,0.506,0.155,0.727,0.26c0.219,0.111,0.415,0.231,0.586,0.359
		c0.339,0.251,0.585,0.507,0.744,0.691c0.158,0.185,0.235,0.305,0.235,0.305c0.006,0.01,0.002,0.024-0.007,0.033
		C175.299,155.473,175.286,155.47,175.276,155.462L175.276,155.462z"/>
	<g opacity="0.46">
		<g>
			<defs>
				<rect id="SVGID_17_" x="169.149" y="153.984" width="5.963" height="1.232"/>
			</defs>
			<clipPath id="SVGID_18_">
				<use xlink:href="#SVGID_17_"  overflow="visible"/>
			</clipPath>
			<g clip-path="url(#SVGID_18_)">
				<defs>
					<rect id="SVGID_19_" x="169.149" y="153.984" width="5.963" height="1.232"/>
				</defs>
				<clipPath id="SVGID_20_">
					<use xlink:href="#SVGID_19_"  overflow="visible"/>
				</clipPath>
				<path clip-path="url(#SVGID_20_)" fill="#DCA15F" d="M175.071,155.209c0,0-0.068-0.066-0.198-0.172
					c-0.136-0.104-0.329-0.247-0.581-0.381c-0.126-0.068-0.267-0.129-0.417-0.185c-0.154-0.051-0.315-0.102-0.485-0.123
					c-0.169-0.029-0.348-0.029-0.522-0.013c-0.189,0.016-0.386,0.034-0.578,0.051c-0.196,0.02-0.389,0.041-0.579,0.061
					c-0.192,0.016-0.382,0.023-0.567,0.028c-0.368,0.006-0.712-0.016-1.004-0.051c-0.583-0.058-0.97-0.171-0.97-0.171
					c-0.015-0.004-0.022-0.018-0.019-0.03c0.004-0.009,0.009-0.017,0.019-0.017c0,0,0.39-0.098,0.97-0.158
					c0.295-0.028,0.629-0.059,0.991-0.065c0.36,0.003,0.75,0.025,1.139,0.02h0.581c0.207,0,0.409,0.021,0.596,0.07
					c0.377,0.09,0.692,0.265,0.938,0.436c0.245,0.171,0.427,0.34,0.545,0.465c0.12,0.125,0.179,0.203,0.179,0.203
					c0.008,0.012,0.006,0.024-0.001,0.034C175.094,155.22,175.079,155.219,175.071,155.209"/>
			</g>
		</g>
	</g>
	<path fill="#F5AF98" d="M216.169,106.365c0,0,2.14,13.675-6.248,24.2c-7.156,8.98-23.506,12.084-32.208,11.875
		c-6.925-0.166-12.791-1.103-17.755-2.597c-6.793-2.037-11.912-5.1-15.76-8.63c-13.177-12.076-11.519-29.534-11.519-29.534
		s-8.996-46.283,35.348-47.479C229.992,52.536,216.169,106.365,216.169,106.365z"/>
	<path fill="#F5AF98" d="M133.143,102.691c0,0-4.185-0.78-3.984,4.309c0.2,5.088,2.327,8.38,5.549,8.67L133.143,102.691z"/>
	<path fill="#F5AF98" d="M216.316,102.776c0,0,4.089-1.597,4.289,3.49c0.201,5.088-1.659,8.537-4.851,9.08L216.316,102.776z"/>
	<g>
		<path fill="#502911" d="M205.921,85.531c0,0-1.165-0.794-2.99-1.788c-0.462-0.238-0.961-0.492-1.495-0.74
			c-0.546-0.227-1.087-0.52-1.686-0.733c-0.293-0.115-0.592-0.233-0.894-0.352c-0.304-0.102-0.612-0.205-0.923-0.309
			c-0.609-0.235-1.254-0.361-1.878-0.531c-0.63-0.144-1.273-0.185-1.888-0.24c-0.618,0.038-1.21-0.024-1.762-0.02
			c-0.276-0.002-0.547-0.016-0.813-0.052c-0.269-0.047-0.528-0.075-0.779-0.074c-0.253-0.006-0.504-0.038-0.751-0.059
			c-0.25-0.042-0.493-0.064-0.721-0.054c-0.462,0.002-0.912-0.025-1.336-0.07c-0.409-0.004-0.771,0.029-1.097,0.016
			c-0.643-0.005-1.079-0.054-1.079-0.054l-0.203-0.345c0,0,0.194-0.354,0.657-0.892c0.232-0.267,0.524-0.6,0.907-0.917
			c0.396-0.281,0.873-0.577,1.422-0.866c0.543-0.318,1.19-0.438,1.877-0.629c0.174-0.041,0.349-0.082,0.527-0.123
			c0.177-0.012,0.357-0.032,0.54-0.037c0.366-0.02,0.742-0.018,1.123-0.003c0.762,0.033,1.502,0.301,2.251,0.51
			c0.719,0.293,1.448,0.565,2.143,0.875c0.685,0.332,1.384,0.625,2.008,1.014c0.318,0.185,0.636,0.36,0.939,0.55
			c0.293,0.204,0.582,0.406,0.866,0.604c1.138,0.782,2.089,1.638,2.88,2.377c1.574,1.488,2.429,2.652,2.429,2.652L205.921,85.531z"
			/>
	</g>
	<g>
		<path fill="#502911" d="M145.885,84.674c0,0,0.892-1.135,2.515-2.571c0.814-0.714,1.793-1.538,2.956-2.283
			c0.291-0.189,0.586-0.381,0.885-0.575c0.31-0.18,0.632-0.346,0.956-0.52c0.637-0.367,1.345-0.638,2.04-0.948
			c0.705-0.288,1.442-0.535,2.17-0.805c0.755-0.184,1.504-0.428,2.267-0.436c0.381-0.002,0.757,0.008,1.122,0.04
			c0.183,0.011,0.362,0.036,0.539,0.054c0.177,0.047,0.351,0.094,0.522,0.14c0.68,0.213,1.323,0.354,1.856,0.69
			c0.539,0.308,1.005,0.618,1.393,0.912c0.372,0.33,0.653,0.672,0.877,0.946c0.444,0.553,0.628,0.913,0.628,0.913l-0.215,0.338
			c0,0-0.438,0.035-1.08,0.019c-0.325,0.002-0.687-0.042-1.096-0.052c-0.425,0.031-0.875,0.043-1.337,0.026
			c-0.228-0.019-0.471-0.003-0.723,0.03c-0.247,0.013-0.5,0.037-0.752,0.035c-0.25-0.01-0.511,0.01-0.781,0.048
			c-0.268,0.026-0.538,0.032-0.814,0.025c-0.552-0.022-1.146,0.02-1.762-0.038c-0.616,0.035-1.26,0.056-1.894,0.179
			c-0.629,0.149-1.277,0.254-1.895,0.469c-0.314,0.094-0.625,0.187-0.933,0.279c-0.306,0.109-0.607,0.216-0.904,0.322
			c-0.605,0.194-1.155,0.469-1.708,0.678c-0.542,0.23-1.049,0.469-1.518,0.691c-1.857,0.934-3.047,1.69-3.047,1.69L145.885,84.674z"
			/>
	</g>
	<path fill="#EA5E5F" d="M166.159,118.492c0,0,0.292,0.221,0.801,0.604c0.128,0.096,0.271,0.201,0.423,0.317
		c0.154,0.118,0.333,0.207,0.515,0.322c0.183,0.109,0.376,0.225,0.581,0.348c0.103,0.06,0.2,0.127,0.314,0.183
		c0.115,0.053,0.231,0.107,0.351,0.162c0.236,0.112,0.484,0.228,0.739,0.346c0.125,0.063,0.258,0.111,0.398,0.155
		c0.136,0.044,0.277,0.091,0.418,0.136c0.14,0.048,0.281,0.095,0.423,0.145c0.142,0.052,0.287,0.1,0.441,0.128
		c0.299,0.065,0.607,0.133,0.917,0.202c0.153,0.043,0.315,0.059,0.475,0.074c0.162,0.015,0.323,0.034,0.485,0.05
		c0.161,0.02,0.324,0.038,0.485,0.057c0.165,0.014,0.332,0.008,0.498,0.014c0.331-0.003,0.661,0.025,0.994,0.001
		c0.332-0.029,0.665-0.055,0.999-0.085c0.331-0.037,0.66-0.114,0.986-0.182c0.159-0.038,0.323-0.063,0.481-0.11l0.471-0.155
		c0.312-0.108,0.623-0.184,0.921-0.31c0.297-0.121,0.593-0.224,0.891-0.317c0.292-0.092,0.572-0.214,0.859-0.298
		c0.288-0.089,0.572-0.166,0.843-0.272c0.269-0.099,0.541-0.18,0.804-0.27c0.265-0.08,0.504-0.194,0.752-0.273
		c0.248-0.083,0.486-0.167,0.711-0.244c0.223-0.087,0.435-0.173,0.641-0.246c0.411-0.147,0.786-0.266,1.083-0.39
		c0.302-0.114,0.554-0.198,0.728-0.252c0.177-0.052,0.274-0.077,0.274-0.077l0.191,0.219c0,0-0.042,0.089-0.131,0.252
		c-0.089,0.161-0.226,0.391-0.414,0.678c-0.097,0.139-0.196,0.306-0.323,0.469c-0.13,0.158-0.271,0.326-0.433,0.502
		c-0.154,0.181-0.331,0.363-0.513,0.557c-0.194,0.183-0.407,0.367-0.632,0.552c-0.226,0.187-0.461,0.387-0.72,0.567
		c-0.268,0.168-0.537,0.352-0.83,0.524c-0.147,0.083-0.289,0.181-0.444,0.26c-0.157,0.072-0.314,0.151-0.479,0.223
		c-0.325,0.141-0.657,0.292-1.011,0.402c-0.715,0.205-1.464,0.373-2.246,0.423c-0.191,0.021-0.387,0.042-0.582,0.061
		c-0.193,0.016-0.395,0.009-0.589,0.016c-0.394-0.003-0.782,0.042-1.178,0.021c-0.391-0.021-0.782-0.041-1.173-0.061
		c-0.388-0.028-0.772-0.108-1.151-0.161c-0.191-0.032-0.38-0.053-0.566-0.095c-0.186-0.05-0.367-0.1-0.548-0.149
		c-0.181-0.052-0.36-0.102-0.539-0.151c-0.178-0.049-0.355-0.097-0.522-0.173c-0.337-0.136-0.666-0.268-0.99-0.4
		c-0.163-0.061-0.317-0.139-0.466-0.223c-0.146-0.082-0.292-0.163-0.438-0.243c-0.144-0.079-0.286-0.158-0.425-0.236
		c-0.141-0.073-0.277-0.152-0.399-0.247c-0.25-0.179-0.491-0.352-0.722-0.517c-0.117-0.083-0.228-0.166-0.337-0.244
		c-0.108-0.081-0.204-0.181-0.302-0.267c-0.191-0.174-0.373-0.341-0.542-0.498c-0.165-0.159-0.335-0.296-0.461-0.441
		c-0.124-0.147-0.237-0.283-0.341-0.405c-0.414-0.486-0.648-0.765-0.648-0.765L166.159,118.492z"/>
	<circle fill="#502911" cx="156.167" cy="102.997" r="5.769"/>
	<circle fill="#502911" cx="196.03" cy="103.388" r="5.769"/>
	<g>
		<image overflow="visible" width="82" height="82" xlink:href="7B886357.png"  transform="matrix(1 0 0 1 111 78)">
		</image>
	</g>
	<g>
		<image overflow="visible" width="82" height="82" xlink:href="7B886352.png"  transform="matrix(1 0 0 1 161 78)">
		</image>
	</g>
	<g>
		<path fill="#080E14" d="M178.422,222.863c0,0,0.298,1.32,0.589,3.628c0.146,1.153,0.308,2.554,0.418,4.158
			c0.13,1.605,0.229,3.416,0.281,5.391c0.039,1.974,0.086,4.112-0.046,6.371c-0.119,2.26-0.476,4.639-0.807,7.1
			c-0.33,2.462-0.587,5.006-0.577,7.597c-0.04,2.589,0.119,5.223,0.359,7.858c0.227,2.635,0.49,5.27,0.548,7.86
			c0.081,2.592,0.151,5.142,0.188,7.609c0.052,2.467,0.014,4.851-0.092,7.11c-0.1,2.26-0.271,4.395-0.42,6.365
			c-0.184,1.971-0.353,3.777-0.559,5.377c-0.186,1.601-0.395,2.995-0.575,4.144c-0.357,2.296-0.661,3.606-0.661,3.606l-0.4-0.006
			c0,0-0.262-1.32-0.545-3.627c-0.144-1.153-0.308-2.554-0.442-4.159c-0.154-1.605-0.265-3.417-0.385-5.392
			c-0.085-1.975-0.188-4.114-0.215-6.376c-0.032-2.262,0.006-4.646,0.138-7.11c0.115-2.465,0.268-5.011,0.432-7.599
			c0.141-2.588,0.489-5.213,0.8-7.84c0.325-2.625,0.568-5.253,0.611-7.842c0.094-2.589-0.081-5.141-0.332-7.611
			c-0.252-2.471-0.531-4.859-0.578-7.121c-0.059-2.263,0.057-4.398,0.158-6.37c0.116-1.972,0.273-3.778,0.455-5.378
			c0.162-1.602,0.369-2.996,0.552-4.144c0.365-2.297,0.705-3.606,0.705-3.606L178.422,222.863z"/>
	</g>
	<path fill="#001C4C" d="M164.734,151.583l-10.415,3.392c0,0,8.31,54.67,0.54,77.261c0,0,28.861,12.396,45.715,0
		c0,0-11.734-27.824,1.175-77.685l-10.075-2.674l-13.452,12.831L164.734,151.583z"/>
	
		<line fill="none" stroke="#1B4E90" stroke-width="3" stroke-linecap="round" stroke-linejoin="round" stroke-miterlimit="10" x1="164.448" y1="151.676" x2="196.443" y2="182.579"/>
	
		<line fill="none" stroke="#1B4E90" stroke-width="3" stroke-linecap="round" stroke-linejoin="round" stroke-miterlimit="10" x1="162.394" y1="152.345" x2="196.101" y2="185.549"/>
	
		<line fill="none" stroke="#1B4E90" stroke-width="3" stroke-linecap="round" stroke-linejoin="round" stroke-miterlimit="10" x1="178.372" y1="164.896" x2="191.674" y2="151.878"/>
	
		<line fill="none" stroke="#1B4E90" stroke-width="3" stroke-linecap="round" stroke-linejoin="round" stroke-miterlimit="10" x1="180.18" y1="166.512" x2="194.115" y2="152.526"/>
	<polygon fill="#001C4C" points="154.319,154.975 148.679,168.947 157.583,178.88 	"/>
	<path fill="#001C4C" d="M201.749,154.552c-0.02,0.094-4.124,10.25-4.144,10.344c-0.031,0.152-0.839,13.832-0.871,13.984
		c3.345-3.311,6.689-6.622,10.034-9.933L201.749,154.552z"/>
	<path fill="#080E14" d="M172.328,305.566c0,0-0.018,1.361-0.796,1.313c-0.778-0.049-3.405-0.341-3.551,1.653
		s1.216,1.896,2.529,1.849c1.313-0.049,5.885-0.778,6.226-1.508c0.34-0.729,0-1.702,0-1.702S173.349,307.025,172.328,305.566z"/>
	<path fill="#080E14" d="M181.447,305.566c0,0,0.018,1.361,0.796,1.313c0.778-0.049,3.405-0.341,3.551,1.653
		s-1.216,1.896-2.529,1.849c-1.313-0.049-5.886-0.778-6.227-1.508c-0.34-0.729,0-1.702,0-1.702S180.426,307.025,181.447,305.566z"/>
	<path fill="none" stroke="#0A1835" stroke-width="4" stroke-linecap="round" stroke-linejoin="round" stroke-miterlimit="10" d="
		M166.534,178.904c0,0,0.022-9.38-0.63-19.108c-0.735-10.956,5.168-9.965,5.168-9.965"/>
	<path fill="none" stroke="#CCCCCC" stroke-width="3" stroke-miterlimit="10" d="M161.973,190.655c0,0-0.147,7.507,4.182,7.232"/>
	<path fill="none" stroke="#CCCCCC" stroke-width="3" stroke-miterlimit="10" d="M172.904,190.655c0,0,0.147,7.507-4.182,7.232"/>
	<path fill="#0A1835" d="M166.463,198.737h-0.493c-0.396,0-0.719-0.324-0.719-0.719l0,0c0-0.396,0.323-0.72,0.719-0.72h0.493
		c0.396,0,0.719,0.323,0.719,0.72l0,0C167.182,198.413,166.858,198.737,166.463,198.737z"/>
	<path fill="#0A1835" d="M168.622,198.737h-0.493c-0.396,0-0.719-0.324-0.719-0.719l0,0c0-0.396,0.324-0.72,0.719-0.72h0.493
		c0.396,0,0.719,0.323,0.719,0.72l0,0C169.341,198.413,169.018,198.737,168.622,198.737z"/>
	<path fill="none" stroke="#0A1835" stroke-width="4" stroke-linecap="round" stroke-linejoin="round" stroke-miterlimit="10" d="
		M162.045,191.586c0,0-1.397-13.019,4.974-12.675c6.37,0.344,5.877,12.675,5.877,12.675"/>
	<path fill="none" stroke="#0A1835" stroke-width="4" stroke-linecap="round" stroke-linejoin="round" stroke-miterlimit="10" d="
		M184.759,149.808c0,0,6.021-0.499,6.045,6.94c0.022,7.439-0.695,27.111-0.695,27.111"/>
	<circle fill="#CCCCCC" stroke="#0A1835" stroke-width="2" stroke-miterlimit="10" cx="190.108" cy="184.798" r="3.13"/>
	<path fill="#502911" d="M175.319,61.318c0,0-13.527,14.525-27.552,17.273c-14.025,2.749-14.624,24.099-14.624,24.099
		s-5.482-19.891,1.565-32.604C141.755,57.373,175.319,61.318,175.319,61.318z"/>
	<path fill="#502911" d="M174.631,61.642c0,0,13.528,14.525,27.553,17.273s14.624,24.099,14.624,24.099s5.481-19.891-1.565-32.604
		S174.631,61.642,174.631,61.642z"/>
	<path fill="#001C4C" d="M218.836,85.387c0,0-9.403-16.789-40.463-17.729c-31.065-0.947-46.44,15.335-46.44,15.335
		s-0.408-2.387-0.835-5.859c-0.901-7.352-1.875-19.558,0.835-24.233c3.985-6.885,21.438-12.843,42.777-13.283
		c16.105-0.335,28.468,4.333,36.432,8.963c0,0,0,0,0.006,0.007c2.578,1.499,4.702,2.992,6.333,4.313
		C224.163,58.287,218.836,85.387,218.836,85.387z"/>
	<path fill="#030921" d="M218.836,85.387c0,0-9.403-16.789-40.463-17.729c-31.065-0.947-46.44,15.335-46.44,15.335
		s-0.408-2.387-0.835-5.859c34.163-21.339,49.216-13.218,70.983-13.764c21.464-0.54,9.278-14.349,9.067-14.783
		c2.578,1.499,4.702,2.992,6.333,4.313C224.163,58.287,218.836,85.387,218.836,85.387z"/>
</g>
</svg>
