<?xml version="1.0" encoding="utf-8"?>
<!-- Generator: Adobe Illustrator 16.0.0, SVG Export Plug-In . SVG Version: 6.00 Build 0)  -->
<!DOCTYPE svg PUBLIC "-//W3C//DTD SVG 1.1//EN" "http://www.w3.org/Graphics/SVG/1.1/DTD/svg11.dtd">
<svg version="1.1" id="Layer_1" xmlns="http://www.w3.org/2000/svg" xmlns:xlink="http://www.w3.org/1999/xlink" x="0px" y="0px"
	 width="350px" height="350px" viewBox="0 0 350 350" enable-background="new 0 0 350 350" xml:space="preserve">
<g>
	<g>
		<path fill="#FFFFFF" d="M270.432,272.135c0,7.467-42.73,13.522-95.433,13.522c-52.703,0-95.431-6.056-95.431-13.522
			c0-7.469,42.728-13.525,95.431-13.525C227.701,258.609,270.432,264.666,270.432,272.135z"/>
		<path fill="#FEFEFE" d="M269.849,272.135c0,7.403-42.47,13.407-94.85,13.407c-52.381,0-94.848-6.004-94.848-13.407
			c0-7.405,42.467-13.411,94.848-13.411C227.379,258.724,269.849,264.729,269.849,272.135z"/>
		<path fill="#FEFEFE" d="M269.266,272.135c0,7.34-42.209,13.293-94.267,13.293c-52.059,0-94.265-5.953-94.265-13.293
			c0-7.342,42.206-13.296,94.265-13.296C227.057,258.839,269.266,264.793,269.266,272.135z"/>
		<path fill="#FDFDFD" d="M268.683,272.135c0,7.277-41.947,13.178-93.684,13.178c-51.737,0-93.682-5.9-93.682-13.178
			c0-7.279,41.944-13.182,93.682-13.182C226.735,258.953,268.683,264.855,268.683,272.135z"/>
		<path fill="#FDFDFD" d="M268.1,272.135c0,7.214-41.687,13.063-93.101,13.063c-51.415,0-93.099-5.85-93.099-13.063
			c0-7.216,41.684-13.066,93.099-13.066C226.413,259.068,268.1,264.919,268.1,272.135z"/>
		<path fill="#FCFCFC" d="M267.517,272.135c0,7.15-41.426,12.949-92.518,12.949c-51.093,0-92.515-5.799-92.515-12.949
			c0-7.152,41.422-12.952,92.515-12.952C226.091,259.183,267.517,264.982,267.517,272.135z"/>
		<path fill="#FBFBFB" d="M266.934,272.135c0,7.087-41.164,12.835-91.935,12.835c-50.771,0-91.933-5.748-91.933-12.835
			c0-7.089,41.162-12.838,91.933-12.838C225.77,259.297,266.934,265.046,266.934,272.135z"/>
		<path fill="#FBFBFB" d="M266.351,272.135c0,7.023-40.903,12.72-91.352,12.72c-50.449,0-91.35-5.696-91.35-12.72
			c0-7.025,40.9-12.723,91.35-12.723C225.447,259.412,266.351,265.109,266.351,272.135z"/>
		<path fill="#FAFAFA" d="M265.768,272.135c0,6.96-40.643,12.605-90.769,12.605c-50.127,0-90.767-5.646-90.767-12.605
			c0-6.962,40.64-12.608,90.767-12.608C225.125,259.526,265.768,265.173,265.768,272.135z"/>
		<path fill="#FAFAFA" d="M265.185,272.135c0,6.896-40.381,12.49-90.186,12.49c-49.805,0-90.184-5.594-90.184-12.49
			c0-6.898,40.379-12.493,90.184-12.493C224.804,259.642,265.185,265.236,265.185,272.135z"/>
		<path fill="#F9F9F9" d="M264.602,272.135c0,6.834-40.12,12.375-89.603,12.375c-49.483,0-89.601-5.541-89.601-12.375
			c0-6.835,40.118-12.379,89.601-12.379C224.481,259.756,264.602,265.3,264.602,272.135z"/>
		<path fill="#F9F9F9" d="M264.019,272.135c0,6.771-39.859,12.261-89.02,12.261c-49.161,0-89.018-5.49-89.018-12.261
			c0-6.772,39.856-12.264,89.018-12.264C224.159,259.871,264.019,265.362,264.019,272.135z"/>
		<path fill="#F8F8F8" d="M263.436,272.135c0,6.707-39.598,12.146-88.437,12.146s-88.435-5.439-88.435-12.146
			c0-6.709,39.596-12.149,88.435-12.149S263.436,265.426,263.436,272.135z"/>
		<path fill="#F7F7F7" d="M262.853,272.135c0,6.644-39.338,12.031-87.854,12.031c-48.517,0-87.852-5.388-87.852-12.031
			c0-6.646,39.334-12.034,87.852-12.034C223.515,260.101,262.853,265.489,262.853,272.135z"/>
		<path fill="#F7F7F7" d="M262.27,272.135c0,6.58-39.076,11.917-87.271,11.917c-48.195,0-87.269-5.337-87.269-11.917
			c0-6.582,39.074-11.92,87.269-11.92C223.193,260.215,262.27,265.553,262.27,272.135z"/>
		<path fill="#F6F6F6" d="M261.687,272.135c0,6.518-38.815,11.803-86.688,11.803c-47.873,0-86.686-5.285-86.686-11.803
			c0-6.519,38.813-11.805,86.686-11.805C222.871,260.33,261.687,265.616,261.687,272.135z"/>
		<path fill="#F6F6F6" d="M261.104,272.135c0,6.454-38.555,11.688-86.104,11.688c-47.551,0-86.103-5.233-86.103-11.688
			c0-6.455,38.552-11.69,86.103-11.69C222.549,260.444,261.104,265.68,261.104,272.135z"/>
		<path fill="#F5F5F5" d="M260.521,272.135c0,6.391-38.293,11.573-85.521,11.573c-47.229,0-85.52-5.183-85.52-11.573
			c0-6.392,38.291-11.576,85.52-11.576C222.228,260.559,260.521,265.743,260.521,272.135z"/>
		<path fill="#F4F4F4" d="M259.938,272.135c0,6.327-38.032,11.458-84.938,11.458c-46.907,0-84.937-5.131-84.937-11.458
			c0-6.328,38.029-11.461,84.937-11.461C221.905,260.674,259.938,265.807,259.938,272.135z"/>
		<path fill="#F4F4F4" d="M259.354,272.135c0,6.264-37.771,11.344-84.355,11.344c-46.585,0-84.354-5.08-84.354-11.344
			c0-6.266,37.769-11.347,84.354-11.347C221.583,260.788,259.354,265.869,259.354,272.135z"/>
		<path fill="#F3F3F3" d="M258.771,272.135c0,6.2-37.51,11.229-83.772,11.229c-46.264,0-83.771-5.028-83.771-11.229
			c0-6.202,37.507-11.231,83.771-11.231C221.262,260.903,258.771,265.933,258.771,272.135z"/>
		<path fill="#F3F3F3" d="M258.188,272.135c0,6.137-37.249,11.114-83.189,11.114c-45.941,0-83.188-4.978-83.188-11.114
			c0-6.139,37.246-11.117,83.188-11.117C220.939,261.018,258.188,265.996,258.188,272.135z"/>
		<path fill="#F2F2F2" d="M257.605,272.135c0,6.074-36.988,10.999-82.606,10.999c-45.619,0-82.605-4.925-82.605-10.999
			c0-6.075,36.986-11.002,82.605-11.002C220.617,261.133,257.605,266.06,257.605,272.135z"/>
		<path fill="#F2F2F2" d="M257.022,272.135c0,6.011-36.728,10.885-82.023,10.885c-45.297,0-82.022-4.874-82.022-10.885
			c0-6.012,36.725-10.888,82.022-10.888C220.295,261.247,257.022,266.123,257.022,272.135z"/>
		<path fill="#F1F1F1" d="M256.439,272.135c0,5.947-36.467,10.771-81.44,10.771c-44.976,0-81.439-4.823-81.439-10.771
			c0-5.949,36.463-10.772,81.439-10.772C219.973,261.362,256.439,266.186,256.439,272.135z"/>
		<path fill="#F0F0F0" d="M255.856,272.135c0,5.884-36.205,10.655-80.857,10.655c-44.653,0-80.856-4.771-80.856-10.655
			c0-5.886,36.203-10.658,80.856-10.658C219.651,261.477,255.856,266.249,255.856,272.135z"/>
		<path fill="#F0F0F0" d="M255.273,272.135c0,5.82-35.944,10.541-80.274,10.541c-44.331,0-80.272-4.721-80.272-10.541
			c0-5.821,35.941-10.543,80.272-10.543C219.329,261.592,255.273,266.313,255.273,272.135z"/>
		<path fill="#EFEFEF" d="M254.69,272.135c0,5.758-35.684,10.426-79.691,10.426c-44.009,0-79.69-4.668-79.69-10.426
			s35.681-10.429,79.69-10.429C219.007,261.706,254.69,266.377,254.69,272.135z"/>
		<path fill="#EFEFEF" d="M254.107,272.135c0,5.694-35.422,10.312-79.108,10.312c-43.688,0-79.107-4.617-79.107-10.312
			c0-5.695,35.42-10.314,79.107-10.314C218.686,261.82,254.107,266.439,254.107,272.135z"/>
		<path fill="#EEEEEE" d="M253.523,272.135c0,5.631-35.16,10.196-78.524,10.196c-43.365,0-78.524-4.565-78.524-10.196
			c0-5.632,35.159-10.199,78.524-10.199C218.363,261.936,253.523,266.503,253.523,272.135z"/>
		<path fill="#EDEDED" d="M252.941,272.135c0,5.567-34.9,10.082-77.942,10.082c-43.043,0-77.941-4.515-77.941-10.082
			c0-5.568,34.897-10.085,77.941-10.085C218.041,262.05,252.941,266.566,252.941,272.135z"/>
		<path fill="#EDEDED" d="M252.358,272.135c0,5.504-34.64,9.967-77.359,9.967c-42.722,0-77.358-4.463-77.358-9.967
			c0-5.505,34.637-9.97,77.358-9.97C217.719,262.165,252.358,266.63,252.358,272.135z"/>
		<path fill="#ECECEC" d="M251.775,272.135c0,5.441-34.378,9.853-76.776,9.853c-42.399,0-76.775-4.411-76.775-9.853
			s34.375-9.855,76.775-9.855C217.397,262.279,251.775,266.693,251.775,272.135z"/>
		<path fill="#ECECEC" d="M251.191,272.135c0,5.377-34.116,9.738-76.192,9.738c-42.077,0-76.192-4.361-76.192-9.738
			c0-5.379,34.115-9.74,76.192-9.74C217.075,262.395,251.191,266.756,251.191,272.135z"/>
		<path fill="#EBEBEB" d="M250.609,272.135c0,5.314-33.855,9.623-75.61,9.623c-41.755,0-75.609-4.309-75.609-9.623
			c0-5.315,33.854-9.626,75.609-9.626C216.754,262.509,250.609,266.819,250.609,272.135z"/>
		<path fill="#EBEBEB" d="M250.026,272.135c0,5.251-33.595,9.509-75.027,9.509c-41.434,0-75.026-4.258-75.026-9.509
			c0-5.252,33.592-9.511,75.026-9.511C216.432,262.624,250.026,266.883,250.026,272.135z"/>
		<path fill="#EAEAEA" d="M249.443,272.135c0,5.188-33.334,9.394-74.444,9.394c-41.111,0-74.443-4.206-74.443-9.394
			c0-5.188,33.332-9.396,74.443-9.396C216.109,262.738,249.443,266.946,249.443,272.135z"/>
		<path fill="#E9E9E9" d="M248.86,272.135c0,5.124-33.073,9.279-73.861,9.279c-40.789,0-73.86-4.155-73.86-9.279
			c0-5.125,33.071-9.281,73.86-9.281C215.787,262.854,248.86,267.01,248.86,272.135z"/>
		<path fill="#E9E9E9" d="M248.277,272.135c0,5.061-32.813,9.164-73.278,9.164c-40.467,0-73.277-4.104-73.277-9.164
			c0-5.062,32.81-9.167,73.277-9.167C215.465,262.968,248.277,267.073,248.277,272.135z"/>
		<path fill="#E8E8E8" d="M247.693,272.135c0,4.998-32.55,9.05-72.694,9.05c-40.146,0-72.694-4.052-72.694-9.05
			s32.549-9.053,72.694-9.053C215.144,263.082,247.693,267.137,247.693,272.135z"/>
		<path fill="#E8E8E8" d="M247.11,272.135c0,4.935-32.289,8.936-72.111,8.936c-39.823,0-72.111-4.001-72.111-8.936
			c0-4.936,32.288-8.938,72.111-8.938C214.821,263.197,247.11,267.199,247.11,272.135z"/>
		<path fill="#E7E7E7" d="M246.528,272.135c0,4.871-32.029,8.82-71.529,8.82c-39.501,0-71.528-3.949-71.528-8.82
			c0-4.872,32.027-8.823,71.528-8.823C214.499,263.312,246.528,267.263,246.528,272.135z"/>
		<path fill="#E6E6E6" d="M245.945,272.135c0,4.808-31.768,8.706-70.946,8.706c-39.179,0-70.945-3.898-70.945-8.706
			c0-4.809,31.766-8.709,70.945-8.709C214.178,263.426,245.945,267.326,245.945,272.135z"/>
		<path fill="#E6E6E6" d="M245.361,272.135c0,4.744-31.506,8.592-70.362,8.592c-38.857,0-70.362-3.848-70.362-8.592
			c0-4.745,31.505-8.594,70.362-8.594C213.855,263.541,245.361,267.39,245.361,272.135z"/>
		<path fill="#E5E5E5" d="M244.779,272.135c0,4.682-31.246,8.477-69.78,8.477c-38.535,0-69.779-3.795-69.779-8.477
			s31.244-8.479,69.779-8.479C213.533,263.656,244.779,267.453,244.779,272.135z"/>
		<path fill="#E5E5E5" d="M244.195,272.135c0,4.617-30.984,8.361-69.196,8.361c-38.213,0-69.196-3.744-69.196-8.361
			c0-4.619,30.983-8.364,69.196-8.364C213.211,263.771,244.195,267.516,244.195,272.135z"/>
		<path fill="#E4E4E4" d="M243.613,272.135c0,4.555-30.724,8.247-68.614,8.247c-37.891,0-68.613-3.692-68.613-8.247
			s30.722-8.25,68.613-8.25C212.89,263.885,243.613,267.58,243.613,272.135z"/>
		<path fill="#E4E4E4" d="M243.029,272.135c0,4.491-30.462,8.132-68.03,8.132c-37.569,0-68.03-3.641-68.03-8.132
			S137.43,264,174.999,264C212.567,264,243.029,267.644,243.029,272.135z"/>
		<path fill="#E3E3E3" d="M242.447,272.135c0,4.428-30.202,8.018-67.448,8.018c-37.247,0-67.447-3.59-67.447-8.018
			s30.2-8.02,67.447-8.02C212.245,264.115,242.447,267.707,242.447,272.135z"/>
		<path fill="#E2E2E2" d="M241.863,272.135c0,4.364-29.939,7.902-66.864,7.902s-66.864-3.538-66.864-7.902
			c0-4.365,29.939-7.905,66.864-7.905S241.863,267.77,241.863,272.135z"/>
		<path fill="#E2E2E2" d="M241.28,272.135c0,4.301-29.679,7.789-66.281,7.789c-36.603,0-66.281-3.488-66.281-7.789
			c0-4.302,29.678-7.791,66.281-7.791C211.602,264.344,241.28,267.833,241.28,272.135z"/>
		<path fill="#E1E1E1" d="M240.697,272.135c0,4.238-29.418,7.674-65.698,7.674c-36.281,0-65.698-3.436-65.698-7.674
			s29.417-7.676,65.698-7.676C211.279,264.459,240.697,267.896,240.697,272.135z"/>
		<path fill="#E1E1E1" d="M240.115,272.135c0,4.175-29.158,7.559-65.116,7.559c-35.959,0-65.115-3.384-65.115-7.559
			c0-4.176,29.156-7.562,65.115-7.562C210.957,264.573,240.115,267.959,240.115,272.135z"/>
		<path fill="#E0E0E0" d="M239.531,272.135c0,4.111-28.896,7.444-64.532,7.444c-35.638,0-64.532-3.333-64.532-7.444
			s28.895-7.446,64.532-7.446C210.635,264.688,239.531,268.023,239.531,272.135z"/>
		<path fill="#DFDFDF" d="M238.949,272.135c0,4.048-28.636,7.329-63.95,7.329c-35.315,0-63.949-3.281-63.949-7.329
			s28.634-7.332,63.949-7.332C210.313,264.803,238.949,268.087,238.949,272.135z"/>
		<path fill="#DFDFDF" d="M238.366,272.135c0,3.984-28.375,7.215-63.367,7.215c-34.993,0-63.366-3.23-63.366-7.215
			c0-3.985,28.373-7.217,63.366-7.217C209.991,264.918,238.366,268.149,238.366,272.135z"/>
		<path fill="#DEDEDE" d="M237.782,272.135c0,3.922-28.112,7.101-62.783,7.101s-62.783-3.179-62.783-7.101
			s28.112-7.103,62.783-7.103S237.782,268.213,237.782,272.135z"/>
		<path fill="#DEDEDE" d="M237.199,272.135c0,3.857-27.852,6.985-62.2,6.985c-34.35,0-62.2-3.128-62.2-6.985
			c0-3.858,27.851-6.988,62.2-6.988C209.348,265.146,237.199,268.276,237.199,272.135z"/>
		<path fill="#DDDDDD" d="M236.617,272.135c0,3.795-27.592,6.871-61.618,6.871c-34.027,0-61.617-3.076-61.617-6.871
			s27.59-6.873,61.617-6.873C209.025,265.262,236.617,268.34,236.617,272.135z"/>
		<path fill="#DDDDDD" d="M236.033,272.135c0,3.731-27.33,6.756-61.034,6.756c-33.705,0-61.034-3.024-61.034-6.756
			s27.329-6.759,61.034-6.759C208.703,265.376,236.033,268.403,236.033,272.135z"/>
		<path fill="#DCDCDC" d="M235.451,272.135c0,3.668-27.069,6.642-60.452,6.642c-33.383,0-60.451-2.974-60.451-6.642
			s27.068-6.644,60.451-6.644C208.382,265.491,235.451,268.467,235.451,272.135z"/>
		<path fill="#DBDBDB" d="M234.867,272.135c0,3.604-26.808,6.527-59.868,6.527c-33.062,0-59.868-2.923-59.868-6.527
			c0-3.605,26.807-6.529,59.868-6.529C208.06,265.605,234.867,268.529,234.867,272.135z"/>
		<path fill="#DBDBDB" d="M234.284,272.135c0,3.542-26.547,6.412-59.285,6.412c-32.74,0-59.285-2.87-59.285-6.412
			c0-3.541,26.545-6.414,59.285-6.414C207.737,265.721,234.284,268.594,234.284,272.135z"/>
		<path fill="#DADADA" d="M233.701,272.135c0,3.479-26.286,6.297-58.702,6.297c-32.417,0-58.703-2.818-58.703-6.297
			s26.285-6.3,58.703-6.3C207.415,265.835,233.701,268.656,233.701,272.135z"/>
		<path fill="#DADADA" d="M233.119,272.135c0,3.415-26.025,6.183-58.12,6.183c-32.096,0-58.119-2.768-58.119-6.183
			s26.023-6.185,58.119-6.185C207.094,265.95,233.119,268.72,233.119,272.135z"/>
		<path fill="#D9D9D9" d="M232.535,272.135c0,3.352-25.764,6.068-57.536,6.068c-31.773,0-57.536-2.717-57.536-6.068
			s25.763-6.07,57.536-6.07C206.771,266.064,232.535,268.783,232.535,272.135z"/>
		<path fill="#D8D8D8" d="M231.952,272.135c0,3.288-25.503,5.953-56.953,5.953c-31.452,0-56.954-2.665-56.954-5.953
			s25.502-5.955,56.954-5.955C206.449,266.18,231.952,268.847,231.952,272.135z"/>
		<path fill="#D8D8D8" d="M231.369,272.135c0,3.225-25.242,5.839-56.37,5.839c-31.129,0-56.37-2.614-56.37-5.839
			s25.241-5.841,56.37-5.841C206.127,266.294,231.369,268.91,231.369,272.135z"/>
		<path fill="#D7D7D7" d="M230.787,272.135c0,3.162-24.981,5.725-55.788,5.725c-30.808,0-55.788-2.563-55.788-5.725
			s24.98-5.727,55.788-5.727C205.806,266.408,230.787,268.973,230.787,272.135z"/>
		<path fill="#D7D7D7" d="M230.203,272.135c0,3.098-24.72,5.609-55.204,5.609c-30.485,0-55.204-2.512-55.204-5.609
			s24.719-5.611,55.204-5.611C205.483,266.523,230.203,269.037,230.203,272.135z"/>
		<path fill="#D6D6D6" d="M229.62,272.135c0,3.035-24.458,5.494-54.621,5.494c-30.164,0-54.621-2.459-54.621-5.494
			s24.458-5.497,54.621-5.497C205.162,266.638,229.62,269.1,229.62,272.135z"/>
		<path fill="#D6D6D6" d="M229.037,272.135c0,2.972-24.197,5.38-54.038,5.38c-29.841,0-54.039-2.408-54.039-5.38
			s24.197-5.382,54.039-5.382C204.84,266.753,229.037,269.163,229.037,272.135z"/>
		<path fill="#D5D5D5" d="M228.454,272.135c0,2.908-23.937,5.266-53.455,5.266c-29.52,0-53.455-2.357-53.455-5.266
			s23.936-5.268,53.455-5.268C204.518,266.867,228.454,269.227,228.454,272.135z"/>
		<path fill="#D4D4D4" d="M227.871,272.135c0,2.846-23.676,5.15-52.872,5.15c-29.197,0-52.873-2.305-52.873-5.15
			c0-2.845,23.675-5.152,52.873-5.152C204.195,266.982,227.871,269.29,227.871,272.135z"/>
		<path fill="#D4D4D4" d="M227.289,272.135c0,2.782-23.416,5.036-52.29,5.036c-28.875,0-52.29-2.254-52.29-5.036
			c0-2.781,23.414-5.038,52.29-5.038C203.873,267.097,227.289,269.354,227.289,272.135z"/>
		<path fill="#D3D3D3" d="M226.705,272.135c0,2.719-23.153,4.922-51.706,4.922c-28.553,0-51.706-2.203-51.706-4.922
			c0-2.718,23.153-4.923,51.706-4.923C203.552,267.212,226.705,269.417,226.705,272.135z"/>
		<path fill="#D3D3D3" d="M226.122,272.135c0,2.655-22.893,4.807-51.123,4.807c-28.231,0-51.124-2.151-51.124-4.807
			s22.892-4.809,51.124-4.809C203.229,267.326,226.122,269.479,226.122,272.135z"/>
		<path fill="#D2D2D2" d="M225.539,272.135c0,2.592-22.632,4.691-50.54,4.691c-27.909,0-50.541-2.1-50.541-4.691
			s22.631-4.694,50.541-4.694C202.907,267.44,225.539,269.543,225.539,272.135z"/>
		<path fill="#D1D1D1" d="M224.956,272.135c0,2.528-22.37,4.577-49.957,4.577c-27.587,0-49.958-2.049-49.958-4.577
			s22.371-4.58,49.958-4.58C202.586,267.555,224.956,269.606,224.956,272.135z"/>
		<path fill="#D1D1D1" d="M224.373,272.135c0,2.465-22.109,4.463-49.374,4.463c-27.265,0-49.375-1.998-49.375-4.463
			s22.109-4.465,49.375-4.465C202.264,267.67,224.373,269.67,224.373,272.135z"/>
		<path fill="#D0D0D0" d="M223.79,272.135c0,2.401-21.849,4.348-48.791,4.348c-26.943,0-48.792-1.946-48.792-4.348
			s21.848-4.351,48.792-4.351C201.941,267.784,223.79,269.733,223.79,272.135z"/>
		<path fill="#D0D0D0" d="M223.207,272.135c0,2.338-21.588,4.233-48.208,4.233c-26.622,0-48.208-1.896-48.208-4.233
			s21.586-4.235,48.208-4.235C201.619,267.899,223.207,269.797,223.207,272.135z"/>
		<path fill="#CFCFCF" d="M222.624,272.135c0,2.275-21.326,4.118-47.625,4.118c-26.3,0-47.625-1.843-47.625-4.118
			s21.326-4.121,47.625-4.121C201.298,268.014,222.624,269.859,222.624,272.135z"/>
		<path fill="#CFCFCF" d="M222.041,272.135c0,2.212-21.065,4.004-47.042,4.004c-25.978,0-47.043-1.792-47.043-4.004
			c0-2.211,21.065-4.006,47.043-4.006C200.976,268.129,222.041,269.924,222.041,272.135z"/>
		<path fill="#CECECE" d="M221.458,272.135c0,2.148-20.804,3.89-46.459,3.89s-46.459-1.741-46.459-3.89s20.804-3.892,46.459-3.892
			S221.458,269.986,221.458,272.135z"/>
		<path fill="#CDCDCD" d="M220.875,272.135c0,2.086-20.544,3.774-45.876,3.774c-25.334,0-45.877-1.688-45.877-3.774
			c0-2.085,20.543-3.776,45.877-3.776C200.331,268.358,220.875,270.05,220.875,272.135z"/>
		<path fill="#CDCDCD" d="M220.292,272.135c0,2.022-20.282,3.66-45.293,3.66c-25.012,0-45.294-1.638-45.294-3.66
			c0-2.021,20.282-3.662,45.294-3.662C200.01,268.473,220.292,270.113,220.292,272.135z"/>
		<path fill="#CCCCCC" d="M219.709,272.135c0,1.959-20.021,3.545-44.71,3.545c-24.689,0-44.71-1.586-44.71-3.545
			c0-1.958,20.021-3.547,44.71-3.547C199.688,268.588,219.709,270.177,219.709,272.135z"/>
		<path fill="#CCCCCC" d="M219.126,272.135c0,1.896-19.761,3.43-44.127,3.43c-24.367,0-44.128-1.534-44.128-3.43
			c0-1.895,19.761-3.433,44.128-3.433C199.365,268.702,219.126,270.24,219.126,272.135z"/>
		<path fill="#CBCBCB" d="M218.543,272.135c0,1.832-19.499,3.315-43.544,3.315c-24.046,0-43.544-1.483-43.544-3.315
			c0-1.831,19.499-3.317,43.544-3.317C199.044,268.817,218.543,270.304,218.543,272.135z"/>
		<path fill="#CACACA" d="M217.96,272.135c0,1.769-19.238,3.201-42.961,3.201c-23.724,0-42.962-1.433-42.962-3.201
			s19.238-3.203,42.962-3.203C198.722,268.932,217.96,270.366,217.96,272.135z"/>
		<path fill="#CACACA" d="M217.377,272.135c0,1.705-18.978,3.086-42.378,3.086c-23.402,0-42.379-1.381-42.379-3.086
			s18.977-3.089,42.379-3.089C198.399,269.046,217.377,270.43,217.377,272.135z"/>
		<path fill="#C9C9C9" d="M216.794,272.135c0,1.642-18.716,2.972-41.795,2.972c-23.08,0-41.795-1.33-41.795-2.972
			s18.716-2.974,41.795-2.974C198.078,269.161,216.794,270.493,216.794,272.135z"/>
		<path fill="#C9C9C9" d="M216.211,272.135c0,1.578-18.455,2.857-41.212,2.857c-22.758,0-41.213-1.279-41.213-2.857
			s18.455-2.859,41.213-2.859C197.756,269.275,216.211,270.557,216.211,272.135z"/>
		<path fill="#C8C8C8" d="M215.628,272.135c0,1.516-18.194,2.742-40.629,2.742c-22.436,0-40.63-1.227-40.63-2.742
			c0-1.515,18.194-2.744,40.63-2.744C197.434,269.391,215.628,270.62,215.628,272.135z"/>
		<path fill="#C8C8C8" d="M215.045,272.135c0,1.452-17.933,2.628-40.046,2.628c-22.114,0-40.047-1.176-40.047-2.628
			c0-1.451,17.933-2.63,40.047-2.63C197.112,269.505,215.045,270.684,215.045,272.135z"/>
		<path fill="#C7C7C7" d="M214.462,272.135c0,1.389-17.673,2.513-39.463,2.513c-21.792,0-39.464-1.124-39.464-2.513
			c0-1.388,17.672-2.515,39.464-2.515C196.789,269.62,214.462,270.747,214.462,272.135z"/>
		<path fill="#C6C6C6" d="M213.879,272.135c0,1.326-17.411,2.398-38.88,2.398c-21.47,0-38.88-1.072-38.88-2.398
			c0-1.324,17.411-2.4,38.88-2.4C196.468,269.734,213.879,270.811,213.879,272.135z"/>
		<path fill="#C6C6C6" d="M213.296,272.135c0,1.263-17.15,2.283-38.297,2.283c-21.147,0-38.298-1.021-38.298-2.283
			c0-1.262,17.15-2.285,38.298-2.285C196.146,269.85,213.296,270.873,213.296,272.135z"/>
		<path fill="#C5C5C5" d="M212.713,272.135c0,1.199-16.89,2.169-37.714,2.169c-20.826,0-37.715-0.97-37.715-2.169
			c0-1.198,16.889-2.171,37.715-2.171C195.823,269.964,212.713,270.937,212.713,272.135z"/>
		<path fill="#C5C5C5" d="M212.13,272.135c0,1.136-16.628,2.054-37.131,2.054c-20.503,0-37.132-0.918-37.132-2.054
			c0-1.135,16.628-2.056,37.132-2.056C195.502,270.079,212.13,271,212.13,272.135z"/>
		<path fill="#C4C4C4" d="M211.547,272.135c0,1.072-16.367,1.939-36.548,1.939c-20.182,0-36.549-0.867-36.549-1.939
			c0-1.071,16.367-1.941,36.549-1.941C195.18,270.193,211.547,271.063,211.547,272.135z"/>
	</g>
	<g>
		<g>
			<polygon fill="#00ABA3" points="237.07,126.527 237.07,112.745 233.031,112.745 228.992,112.745 228.992,126.527 
				215.214,126.527 215.214,134.598 228.992,134.598 228.992,148.381 233.031,148.381 237.07,148.381 237.07,134.598 
				250.849,134.598 250.849,126.527 			"/>
		</g>
		<g>
			<g>
				<g>
					<path fill="#EBC09B" d="M211.476,111.641c0,3.867-2.1,7.003-4.674,7.003c-2.577,0-4.668-3.136-4.668-7.003
						c0-3.864,2.091-7.004,4.668-7.004C209.376,104.637,211.476,107.777,211.476,111.641z"/>
					<g>
						<path fill="#EBC09B" d="M188.157,134.265H175.95h-6.97h-12.206c0,11.081-4.465,18.991-9.432,24.379
							c11.405,5.861,17.834,68.562,50.921,0.7C193.044,153.951,188.157,145.858,188.157,134.265z"/>
						<g>
							<g>
								<path fill="#00ABA3" d="M193.682,153.986c0,0-1.158,11.985-2.738,15.25c-1.824,3.756-5.354,9.057-8.854,13.297
									c-3.241,3.931-6.464,6.949-8.263,6.949c-0.121,0-1.56,2.565-1.689,2.543v72.138c34.756-0.058,67.01-5.933,72.442-12.232
									C247.462,248.58,249.091,153.986,193.682,153.986z"/>
							</g>
							<g>
								<path fill="#00BFB6" d="M151.184,153.986c0,0,1.154,11.985,2.737,15.25c1.824,3.756,5.358,9.057,8.854,13.297
									c3.237,3.931,6.467,6.949,8.266,6.949c0.12,0,1.56,2.565,1.688,2.543v72.138c-34.756-0.058-67.012-5.933-72.441-12.232
									C97.4,248.58,95.771,153.986,151.184,153.986z"/>
							</g>
						</g>
						<g>
							<path fill="#EBC09B" d="M172.095,76.127v75.137c18.872-0.9,35.768-23.339,35.768-43.16
								C207.862,86.448,189.162,76.534,172.095,76.127z"/>
							<path fill="#F2D6BF" d="M171,151.35c0.368,0,0.73-0.066,1.095-0.086V74.757c-0.364-0.012-0.732-0.039-1.095-0.039
								c-17.36,0-35.287,11.266-35.287,33.386C135.713,128.314,151.681,151.35,171,151.35z"/>
							<path fill="#EBC09B" d="M135.892,106.73c0-22.114,19.15-32.012,36.508-32.012c0.365,0,0.732,0.027,1.092,0.039v-1.59
								c-0.365-0.007-0.725-0.042-1.092-0.042C152.238,73.125,135.892,85.077,135.892,106.73z"/>
						</g>
						<g>
							<path fill="#2B2B2B" d="M161.778,106.071c0,2.417-1.965,4.384-4.384,4.384c-2.431,0-4.393-1.966-4.393-4.384
								c0-2.423,1.962-4.388,4.393-4.388C159.813,101.683,161.778,103.647,161.778,106.071z"/>
							<path fill="#2B2B2B" d="M192.047,106.071c0,2.417-1.965,4.384-4.384,4.384s-4.381-1.966-4.381-4.384
								c0-2.423,1.962-4.388,4.381-4.388S192.047,103.647,192.047,106.071z"/>
						</g>
						<path fill="#FFFFFF" d="M191.739,175.813l8.748-0.974l-6.936-21.141c0,0-4.424,14.898-7.17,19.889
							c-1.859,3.393-10.553,13.451-14.028,17.426c-3.479-3.976-12.175-14.033-14.034-17.426c-2.737-4.99-7.167-19.889-7.167-19.889
							l-6.933,21.141l8.748,0.974l-1.049,7.455l17.812,11.343v69.339h5.588v-69.558l17.47-11.124L191.739,175.813z"/>
						<path fill="#F2D6BF" d="M141.643,111.641c0,3.867-2.097,7.003-4.668,7.003c-2.583,0-4.672-3.136-4.672-7.003
							c0-3.864,2.089-7.004,4.672-7.004C139.546,104.637,141.643,107.777,141.643,111.641z"/>
						<g>
							<g>
								<g>
									<path fill="#2B2B2B" d="M167.585,115.248h-22.822c-1.549,0-2.818-1.468-2.818-3.271v-10.324
										c0-1.807,1.27-3.273,2.818-3.273h22.822c1.548,0,2.818,1.466,2.818,3.273v10.324
										C170.403,113.78,169.133,115.248,167.585,115.248z M145.053,111.641H167.3v-9.654h-22.247V111.641z"/>
								</g>
								<g>
									<path fill="#2B2B2B" d="M200.168,115.248h-22.805c-1.554,0-2.823-1.468-2.823-3.271v-10.324
										c0-1.807,1.27-3.273,2.823-3.273h22.805c1.558,0,2.818,1.466,2.818,3.273v10.324
										C202.986,113.78,201.726,115.248,200.168,115.248z M177.643,111.641h22.241v-9.654h-22.241V111.641z"/>
								</g>
								<g>
									<rect x="169.205" y="104.466" fill="#2B2B2B" width="6.208" height="3.607"/>
								</g>
							</g>
							<g>
								<polygon fill="#2B2B2B" points="135.544,105.13 135.489,102.612 142.628,102.908 143.292,107.831 								"/>
							</g>
							<g>
								<polygon fill="#2B2B2B" points="208.114,105.13 208.114,103.09 200.82,102.908 200.168,107.831 								"/>
							</g>
						</g>
						<path fill="#2B2B2B" d="M171.932,64.377v-0.026c0.101-0.003,0.152-0.004,0-0.007c-5.114-0.04-39.275,1.058-36.388,38.541
							c0,0,9.026-20.274,21.652-16.618c0,0,8.013,3.459,14.735,6.404c2.042,0.896,2.855,1.742,4.688,2.43
							c12.972,4.864,18.206,7.439,30.884,6.355C207.503,101.456,212.045,64.717,171.932,64.377z"/>
						<g>
							<path fill="#474747" d="M135.544,102.885c0,0,9.026-20.274,21.652-16.618c0,0,8.013,3.459,14.735,6.404V64.344
								C166.817,64.304,132.656,65.401,135.544,102.885z"/>
							<path fill="#2B2B2B" d="M171.383,64.36c0,0,0.971-0.012,0.549-0.016V92.67c2.042,0.896,2.855,1.742,4.688,2.43
								c12.972,4.864,18.206,7.439,30.884,6.355C207.503,101.456,212.108,64.36,171.383,64.36z"/>
						</g>
					</g>
				</g>
				<g>
					<path fill="#FFFFFF" d="M164.801,222.013c0,1.746-1.413,3.16-3.169,3.16c-1.746,0-3.157-1.414-3.157-3.16
						c0-1.753,1.411-3.166,3.157-3.166C163.388,218.847,164.801,220.26,164.801,222.013z"/>
					<path fill="#FFFFFF" d="M164.801,232.134c0,1.755-1.413,3.165-3.169,3.165c-1.746,0-3.157-1.41-3.157-3.165
						c0-1.747,1.411-3.169,3.157-3.169C163.388,228.965,164.801,230.387,164.801,232.134z"/>
					<path fill="#FFFFFF" d="M164.801,242.255c0,1.746-1.413,3.165-3.169,3.165c-1.746,0-3.157-1.419-3.157-3.165
						c0-1.744,1.411-3.16,3.157-3.16C163.388,239.095,164.801,240.511,164.801,242.255z"/>
				</g>
			</g>
			<g>
				<g>
					<path fill="#FFFFFF" d="M109.326,151.858l5.723,25.812c-3.732,2.376-5.838,6.226-4.89,10.491l12.79,57.725
						c1.267,5.734,7.751,10.894,14.218,9.831l-22.486-105.043L109.326,151.858z"/>
					<path fill="#B6CCD4" d="M147.029,240.539l-12.796-57.713c-0.937-4.274-4.473-6.866-8.865-7.432l-5.723-25.824l-4.965,1.103
						l22.486,105.043c0.192-0.029,0.382-0.04,0.583-0.089C144.395,254.159,148.328,246.449,147.029,240.539z"/>
					<path fill="#FF3B5E" d="M119.646,149.57l-1.521-6.876c-0.813-3.664-3.625-6.164-6.386-5.761l2.941,13.741L119.646,149.57z"/>
					<path fill="#FF3B5E" d="M111.739,136.933c-0.101,0.014-0.201,0.004-0.305,0.03c-2.844,0.625-4.473,4.213-3.626,8.015
						l1.518,6.88l5.354-1.185L111.739,136.933z"/>
				</g>
				<g>
					<path fill="#474747" d="M137.265,247.345c0.244,1.098-0.138,2.104-0.854,2.268l0,0c-0.718,0.151-1.494-0.592-1.732-1.692
						l-13.987-63.131c-0.245-1.084,0.138-2.089,0.847-2.25l0,0c0.716-0.158,1.488,0.592,1.727,1.687L137.265,247.345z"/>
					<path fill="#474747" d="M130.771,196.731c0.213,0.939-0.195,1.85-0.907,1.993l-9.029,2.009
						c-0.713,0.157-1.457-0.486-1.67-1.439l0,0c-0.201-0.948,0.195-1.845,0.905-2l9.035-2.008
						C129.818,195.128,130.567,195.777,130.771,196.731L130.771,196.731z"/>
					<path fill="#474747" d="M132.686,205.329c0.209,0.945-0.198,1.845-0.911,2.009l-9.035,1.999
						c-0.713,0.155-1.456-0.485-1.66-1.437l0,0c-0.225-0.956,0.189-1.844,0.901-2.011l9.029-1.988
						C131.723,203.735,132.473,204.379,132.686,205.329L132.686,205.329z"/>
					<path fill="#474747" d="M134.59,213.922c0.213,0.96-0.198,1.845-0.908,2.018l-9.026,1.99c-0.715,0.161-1.468-0.482-1.669-1.428
						l0,0c-0.213-0.956,0.189-1.85,0.902-2.014l9.023-1.997C133.633,212.337,134.38,212.969,134.59,213.922L134.59,213.922z"/>
					<path fill="#474747" d="M136.491,222.529c0.21,0.948-0.192,1.845-0.904,2.005l-9.023,1.994
						c-0.719,0.161-1.466-0.477-1.673-1.428l0,0c-0.221-0.951,0.193-1.853,0.902-2.011l9.038-1.997
						C135.535,220.932,136.285,221.57,136.491,222.529L136.491,222.529z"/>
					<path fill="#474747" d="M138.405,231.125c0.215,0.957-0.189,1.842-0.908,2.002l-9.032,2.009
						c-0.713,0.158-1.462-0.488-1.672-1.434l0,0c-0.213-0.951,0.189-1.845,0.908-2.003l9.023-2.011
						C137.445,229.539,138.189,230.171,138.405,231.125L138.405,231.125z"/>
				</g>
			</g>
		</g>
	</g>
</g>
</svg>
