<?xml version="1.0" encoding="utf-8"?>
<!-- Generator: Adobe Illustrator 16.0.0, SVG Export Plug-In . SVG Version: 6.00 Build 0)  -->
<!DOCTYPE svg PUBLIC "-//W3C//DTD SVG 1.1//EN" "http://www.w3.org/Graphics/SVG/1.1/DTD/svg11.dtd">
<svg version="1.1" id="Layer_1" xmlns="http://www.w3.org/2000/svg" xmlns:xlink="http://www.w3.org/1999/xlink" x="0px" y="0px"
	 width="350px" height="350px" viewBox="0 0 350 350" enable-background="new 0 0 350 350" xml:space="preserve">
<g>
	<g>
		<path fill="#FFFFFF" d="M255.82,264.2c0,6.836-39.123,12.381-87.376,12.381c-48.252,0-87.373-5.545-87.373-12.381
			c0-6.839,39.121-12.384,87.373-12.384C216.697,251.816,255.82,257.361,255.82,264.2z"/>
		<path fill="#FEFEFE" d="M255.286,264.2c0,6.777-38.884,12.275-86.843,12.275c-47.957,0-86.839-5.498-86.839-12.275
			c0-6.781,38.882-12.278,86.839-12.278C216.402,251.922,255.286,257.419,255.286,264.2z"/>
		<path fill="#FEFEFE" d="M254.753,264.2c0,6.72-38.646,12.171-86.31,12.171c-47.663,0-86.305-5.451-86.305-12.171
			c0-6.724,38.643-12.174,86.305-12.174C216.107,252.026,254.753,257.477,254.753,264.2z"/>
		<path fill="#FDFDFD" d="M254.219,264.2c0,6.662-38.406,12.065-85.775,12.065c-47.368,0-85.772-5.403-85.772-12.065
			c0-6.665,38.404-12.069,85.772-12.069C215.813,252.131,254.219,257.535,254.219,264.2z"/>
		<path fill="#FDFDFD" d="M253.686,264.2c0,6.604-38.168,11.961-85.242,11.961c-47.073,0-85.238-5.356-85.238-11.961
			c0-6.606,38.165-11.964,85.238-11.964C215.518,252.236,253.686,257.594,253.686,264.2z"/>
		<path fill="#FCFCFC" d="M253.151,264.2c0,6.546-37.928,11.855-84.708,11.855c-46.779,0-84.704-5.31-84.704-11.855
			c0-6.549,37.925-11.859,84.704-11.859C215.224,252.341,253.151,257.651,253.151,264.2z"/>
		<path fill="#FBFBFB" d="M252.617,264.2c0,6.488-37.688,11.751-84.173,11.751c-46.483,0-84.171-5.263-84.171-11.751
			c0-6.491,37.688-11.754,84.171-11.754C214.929,252.446,252.617,257.709,252.617,264.2z"/>
		<path fill="#FBFBFB" d="M252.084,264.2c0,6.43-37.45,11.646-83.64,11.646c-46.189,0-83.637-5.216-83.637-11.646
			c0-6.434,37.448-11.648,83.637-11.648C214.634,252.552,252.084,257.767,252.084,264.2z"/>
		<path fill="#FAFAFA" d="M251.55,264.2c0,6.372-37.211,11.541-83.106,11.541c-45.894,0-83.103-5.169-83.103-11.541
			c0-6.375,37.209-11.544,83.103-11.544C214.339,252.656,251.55,257.825,251.55,264.2z"/>
		<path fill="#FAFAFA" d="M251.016,264.2c0,6.314-36.972,11.436-82.572,11.436c-45.599,0-82.569-5.121-82.569-11.436
			c0-6.317,36.97-11.438,82.569-11.438C214.044,252.762,251.016,257.883,251.016,264.2z"/>
		<path fill="#F9F9F9" d="M250.482,264.2c0,6.256-36.733,11.331-82.039,11.331c-45.305,0-82.036-5.075-82.036-11.331
			c0-6.259,36.731-11.334,82.036-11.334C213.749,252.866,250.482,257.941,250.482,264.2z"/>
		<path fill="#F9F9F9" d="M249.948,264.2c0,6.198-36.494,11.226-81.504,11.226c-45.01,0-81.501-5.027-81.501-11.226
			c0-6.201,36.492-11.229,81.501-11.229C213.454,252.972,249.948,257.999,249.948,264.2z"/>
		<path fill="#F8F8F8" d="M249.415,264.2c0,6.141-36.256,11.121-80.971,11.121c-44.715,0-80.968-4.98-80.968-11.121
			c0-6.143,36.253-11.124,80.968-11.124C213.159,253.076,249.415,258.058,249.415,264.2z"/>
		<path fill="#F7F7F7" d="M248.881,264.2c0,6.082-36.016,11.016-80.437,11.016c-44.42,0-80.434-4.934-80.434-11.016
			c0-6.085,36.014-11.019,80.434-11.019C212.865,253.182,248.881,258.115,248.881,264.2z"/>
		<path fill="#F7F7F7" d="M248.347,264.2c0,6.024-35.776,10.911-79.903,10.911c-44.125,0-79.9-4.887-79.9-10.911
			c0-6.027,35.774-10.914,79.9-10.914C212.57,253.286,248.347,258.173,248.347,264.2z"/>
		<path fill="#F6F6F6" d="M247.813,264.2c0,5.966-35.538,10.806-79.37,10.806c-43.831,0-79.366-4.84-79.366-10.806
			c0-5.969,35.536-10.809,79.366-10.809C212.275,253.392,247.813,258.231,247.813,264.2z"/>
		<path fill="#F6F6F6" d="M247.279,264.2c0,5.908-35.299,10.701-78.836,10.701c-43.535,0-78.833-4.793-78.833-10.701
			c0-5.911,35.297-10.704,78.833-10.704C211.98,253.496,247.279,258.289,247.279,264.2z"/>
		<path fill="#F5F5F5" d="M246.746,264.2c0,5.851-35.061,10.596-78.302,10.596c-43.241,0-78.299-4.745-78.299-10.596
			c0-5.853,35.059-10.599,78.299-10.599C211.686,253.602,246.746,258.348,246.746,264.2z"/>
		<path fill="#F4F4F4" d="M246.212,264.2c0,5.792-34.821,10.491-77.768,10.491c-42.946,0-77.765-4.699-77.765-10.491
			c0-5.795,34.819-10.493,77.765-10.493C211.391,253.707,246.212,258.405,246.212,264.2z"/>
		<path fill="#F4F4F4" d="M245.678,264.2c0,5.734-34.582,10.386-77.234,10.386c-42.651,0-77.231-4.651-77.231-10.386
			c0-5.737,34.58-10.389,77.231-10.389C211.096,253.812,245.678,258.463,245.678,264.2z"/>
		<path fill="#F3F3F3" d="M245.145,264.2c0,5.677-34.344,10.281-76.701,10.281c-42.356,0-76.698-4.604-76.698-10.281
			c0-5.679,34.341-10.284,76.698-10.284C210.801,253.916,245.145,258.521,245.145,264.2z"/>
		<path fill="#F3F3F3" d="M244.61,264.2c0,5.618-34.104,10.176-76.166,10.176c-42.062,0-76.164-4.558-76.164-10.176
			c0-5.621,34.102-10.179,76.164-10.179C210.506,254.021,244.61,258.579,244.61,264.2z"/>
		<path fill="#F2F2F2" d="M244.076,264.2c0,5.561-33.864,10.071-75.632,10.071c-41.767,0-75.63-4.511-75.63-10.071
			c0-5.563,33.863-10.074,75.63-10.074C210.212,254.126,244.076,258.638,244.076,264.2z"/>
		<path fill="#F2F2F2" d="M243.543,264.2c0,5.502-33.626,9.966-75.099,9.966c-41.472,0-75.096-4.464-75.096-9.966
			c0-5.505,33.624-9.969,75.096-9.969C209.917,254.231,243.543,258.695,243.543,264.2z"/>
		<path fill="#F1F1F1" d="M243.009,264.2c0,5.444-33.387,9.86-74.565,9.86c-41.177,0-74.563-4.416-74.563-9.86
			c0-5.447,33.385-9.863,74.563-9.863C209.622,254.337,243.009,258.753,243.009,264.2z"/>
		<path fill="#F0F0F0" d="M242.476,264.2c0,5.387-33.148,9.756-74.032,9.756c-40.882,0-74.028-4.369-74.028-9.756
			c0-5.39,33.146-9.759,74.028-9.759C209.327,254.441,242.476,258.811,242.476,264.2z"/>
		<path fill="#F0F0F0" d="M241.941,264.2c0,5.329-32.909,9.651-73.497,9.651s-73.496-4.322-73.496-9.651
			c0-5.331,32.908-9.653,73.496-9.653S241.941,258.869,241.941,264.2z"/>
		<path fill="#EFEFEF" d="M241.408,264.2c0,5.271-32.671,9.546-72.964,9.546c-40.293,0-72.961-4.275-72.961-9.546
			c0-5.272,32.668-9.549,72.961-9.549C208.737,254.651,241.408,258.928,241.408,264.2z"/>
		<path fill="#EFEFEF" d="M240.874,264.2c0,5.213-32.431,9.44-72.43,9.44c-39.998,0-72.428-4.228-72.428-9.44
			c0-5.215,32.43-9.444,72.428-9.444C208.443,254.756,240.874,258.985,240.874,264.2z"/>
		<path fill="#EEEEEE" d="M240.34,264.2c0,5.155-32.192,9.335-71.896,9.335c-39.703,0-71.894-4.18-71.894-9.335
			c0-5.157,32.191-9.339,71.894-9.339C208.147,254.861,240.34,259.043,240.34,264.2z"/>
		<ellipse fill="#EDEDED" cx="168.445" cy="264.2" rx="71.361" ry="9.23"/>
		<path fill="#EDEDED" d="M239.272,264.2c0,5.039-31.714,9.126-70.829,9.126c-39.114,0-70.826-4.087-70.826-9.126
			c0-5.041,31.712-9.129,70.826-9.129C207.559,255.071,239.272,259.159,239.272,264.2z"/>
		<path fill="#ECECEC" d="M238.738,264.2c0,4.981-31.475,9.021-70.294,9.021c-38.819,0-70.292-4.039-70.292-9.021
			c0-4.983,31.474-9.023,70.292-9.023C207.264,255.177,238.738,259.217,238.738,264.2z"/>
		<path fill="#ECECEC" d="M238.205,264.2c0,4.923-31.236,8.915-69.761,8.915c-38.524,0-69.758-3.992-69.758-8.915
			c0-4.925,31.234-8.919,69.758-8.919C206.969,255.281,238.205,259.275,238.205,264.2z"/>
		<path fill="#EBEBEB" d="M237.671,264.2c0,4.865-30.997,8.811-69.228,8.811c-38.229,0-69.225-3.945-69.225-8.811
			c0-4.867,30.996-8.813,69.225-8.813C206.674,255.387,237.671,259.333,237.671,264.2z"/>
		<path fill="#EBEBEB" d="M237.137,264.2c0,4.808-30.758,8.706-68.692,8.706s-68.691-3.898-68.691-8.706
			c0-4.809,30.757-8.708,68.691-8.708S237.137,259.392,237.137,264.2z"/>
		<path fill="#EAEAEA" d="M236.604,264.2c0,4.749-30.52,8.601-68.16,8.601c-37.64,0-68.158-3.852-68.158-8.601
			c0-4.751,30.518-8.604,68.158-8.604C206.084,255.597,236.604,259.449,236.604,264.2z"/>
		<path fill="#E9E9E9" d="M236.069,264.2c0,4.69-30.28,8.495-67.625,8.495c-37.345,0-67.624-3.805-67.624-8.495
			c0-4.693,30.279-8.499,67.624-8.499C205.789,255.701,236.069,259.507,236.069,264.2z"/>
		<path fill="#E9E9E9" d="M235.536,264.2c0,4.633-30.042,8.391-67.093,8.391c-37.05,0-67.089-3.758-67.089-8.391
			c0-4.636,30.04-8.394,67.089-8.394C205.494,255.807,235.536,259.564,235.536,264.2z"/>
		<path fill="#E8E8E8" d="M235.002,264.2c0,4.575-29.803,8.286-66.559,8.286c-36.755,0-66.556-3.711-66.556-8.286
			c0-4.577,29.801-8.289,66.556-8.289C205.199,255.911,235.002,259.623,235.002,264.2z"/>
		<path fill="#E8E8E8" d="M234.469,264.2c0,4.517-29.563,8.181-66.024,8.181s-66.022-3.664-66.022-8.181
			c0-4.519,29.562-8.184,66.022-8.184S234.469,259.682,234.469,264.2z"/>
		<path fill="#E7E7E7" d="M233.935,264.2c0,4.459-29.324,8.075-65.491,8.075c-36.166,0-65.489-3.616-65.489-8.075
			c0-4.461,29.323-8.078,65.489-8.078C204.61,256.122,233.935,259.739,233.935,264.2z"/>
		<path fill="#E6E6E6" d="M233.4,264.2c0,4.401-29.085,7.971-64.957,7.971c-35.871,0-64.955-3.569-64.955-7.971
			c0-4.403,29.084-7.974,64.955-7.974C204.315,256.227,233.4,259.797,233.4,264.2z"/>
		<path fill="#E6E6E6" d="M232.867,264.2c0,4.343-28.847,7.865-64.424,7.865c-35.575,0-64.42-3.522-64.42-7.865
			c0-4.345,28.845-7.868,64.42-7.868C204.021,256.332,232.867,259.855,232.867,264.2z"/>
		<path fill="#E5E5E5" d="M232.333,264.2c0,4.285-28.607,7.761-63.889,7.761c-35.282,0-63.888-3.476-63.888-7.761
			c0-4.287,28.606-7.764,63.888-7.764C203.726,256.437,232.333,259.913,232.333,264.2z"/>
		<path fill="#E5E5E5" d="M231.799,264.2c0,4.228-28.367,7.655-63.355,7.655c-34.986,0-63.353-3.428-63.353-7.655
			c0-4.229,28.367-7.659,63.353-7.659C203.432,256.541,231.799,259.971,231.799,264.2z"/>
		<path fill="#E4E4E4" d="M231.266,264.2c0,4.169-28.129,7.551-62.822,7.551c-34.691,0-62.82-3.382-62.82-7.551
			c0-4.171,28.128-7.554,62.82-7.554C203.137,256.646,231.266,260.029,231.266,264.2z"/>
		<path fill="#E4E4E4" d="M230.731,264.2c0,4.111-27.89,7.445-62.288,7.445c-34.397,0-62.286-3.334-62.286-7.445
			c0-4.113,27.889-7.448,62.286-7.448C202.842,256.752,230.731,260.087,230.731,264.2z"/>
		<path fill="#E3E3E3" d="M230.197,264.2c0,4.054-27.65,7.341-61.754,7.341c-34.102,0-61.752-3.287-61.752-7.341
			c0-4.056,27.65-7.344,61.752-7.344C202.547,256.856,230.197,260.145,230.197,264.2z"/>
		<path fill="#E2E2E2" d="M229.664,264.2c0,3.995-27.412,7.235-61.22,7.235s-61.219-3.24-61.219-7.235
			c0-3.997,27.411-7.238,61.219-7.238S229.664,260.203,229.664,264.2z"/>
		<path fill="#E2E2E2" d="M229.13,264.2c0,3.938-27.173,7.131-60.686,7.131c-33.512,0-60.685-3.193-60.685-7.131
			c0-3.938,27.172-7.134,60.685-7.134C201.957,257.066,229.13,260.262,229.13,264.2z"/>
		<path fill="#E1E1E1" d="M228.597,264.2c0,3.879-26.935,7.025-60.153,7.025c-33.217,0-60.151-3.146-60.151-7.025
			c0-3.882,26.934-7.028,60.151-7.028C201.662,257.172,228.597,260.318,228.597,264.2z"/>
		<path fill="#E1E1E1" d="M228.063,264.2c0,3.821-26.695,6.921-59.618,6.921s-59.618-3.1-59.618-6.921
			c0-3.823,26.695-6.923,59.618-6.923S228.063,260.377,228.063,264.2z"/>
		<path fill="#E0E0E0" d="M227.528,264.2c0,3.764-26.456,6.815-59.085,6.815c-32.627,0-59.083-3.052-59.083-6.815
			c0-3.766,26.455-6.818,59.083-6.818C201.072,257.382,227.528,260.435,227.528,264.2z"/>
		<path fill="#DFDFDF" d="M226.995,264.2c0,3.705-26.218,6.711-58.551,6.711c-32.333,0-58.549-3.006-58.549-6.711
			c0-3.707,26.216-6.714,58.549-6.714C200.777,257.486,226.995,260.493,226.995,264.2z"/>
		<path fill="#DFDFDF" d="M226.461,264.2c0,3.647-25.978,6.605-58.017,6.605c-32.039,0-58.016-2.958-58.016-6.605
			c0-3.649,25.978-6.608,58.016-6.608C200.483,257.592,226.461,260.551,226.461,264.2z"/>
		<path fill="#DEDEDE" d="M225.928,264.2c0,3.589-25.74,6.501-57.484,6.501s-57.482-2.912-57.482-6.501
			c0-3.591,25.738-6.504,57.482-6.504S225.928,260.609,225.928,264.2z"/>
		<ellipse fill="#DEDEDE" cx="168.445" cy="264.2" rx="56.949" ry="6.396"/>
		<path fill="#DDDDDD" d="M224.859,264.2c0,3.474-25.261,6.29-56.416,6.29c-31.153,0-56.414-2.816-56.414-6.29
			c0-3.476,25.261-6.294,56.414-6.294C199.599,257.906,224.859,260.725,224.859,264.2z"/>
		<path fill="#DDDDDD" d="M224.326,264.2c0,3.415-25.022,6.186-55.882,6.186c-30.859,0-55.881-2.771-55.881-6.186
			c0-3.417,25.021-6.188,55.881-6.188C199.304,258.012,224.326,260.783,224.326,264.2z"/>
		<path fill="#DCDCDC" d="M223.792,264.2c0,3.357-24.783,6.08-55.348,6.08c-30.564,0-55.347-2.723-55.347-6.08
			c0-3.359,24.783-6.083,55.347-6.083C199.009,258.117,223.792,260.841,223.792,264.2z"/>
		<path fill="#DBDBDB" d="M223.259,264.2c0,3.3-24.545,5.976-54.814,5.976s-54.813-2.676-54.813-5.976
			c0-3.301,24.544-5.979,54.813-5.979S223.259,260.899,223.259,264.2z"/>
		<path fill="#DBDBDB" d="M222.725,264.2c0,3.241-24.305,5.87-54.281,5.87c-29.974,0-54.279-2.629-54.279-5.87
			c0-3.243,24.305-5.873,54.279-5.873C198.42,258.327,222.725,260.957,222.725,264.2z"/>
		<path fill="#DADADA" d="M222.19,264.2c0,3.184-24.066,5.766-53.747,5.766c-29.68,0-53.745-2.582-53.745-5.766
			c0-3.186,24.065-5.769,53.745-5.769C198.124,258.432,222.19,261.015,222.19,264.2z"/>
		<path fill="#DADADA" d="M221.657,264.2c0,3.126-23.827,5.66-53.213,5.66c-29.385,0-53.212-2.534-53.212-5.66
			c0-3.127,23.827-5.663,53.212-5.663C197.83,258.537,221.657,261.073,221.657,264.2z"/>
		<path fill="#D9D9D9" d="M221.123,264.2c0,3.067-23.588,5.556-52.679,5.556c-29.09,0-52.678-2.488-52.678-5.556
			c0-3.069,23.588-5.559,52.678-5.559C197.535,258.642,221.123,261.131,221.123,264.2z"/>
		<ellipse fill="#D8D8D8" cx="168.444" cy="264.2" rx="52.145" ry="5.45"/>
		<path fill="#D8D8D8" d="M220.056,264.2c0,2.952-23.11,5.346-51.612,5.346c-28.5,0-51.61-2.394-51.61-5.346
			c0-2.953,23.11-5.349,51.61-5.349C196.945,258.852,220.056,261.247,220.056,264.2z"/>
		<path fill="#D7D7D7" d="M219.521,264.2c0,2.894-22.871,5.24-51.078,5.24c-28.206,0-51.077-2.347-51.077-5.24
			c0-2.896,22.871-5.243,51.077-5.243C196.65,258.957,219.521,261.305,219.521,264.2z"/>
		<path fill="#D7D7D7" d="M218.988,264.2c0,2.835-22.633,5.136-50.544,5.136c-27.911,0-50.543-2.301-50.543-5.136
			c0-2.837,22.632-5.139,50.543-5.139C196.355,259.062,218.988,261.363,218.988,264.2z"/>
		<path fill="#D6D6D6" d="M218.454,264.2c0,2.778-22.394,5.03-50.01,5.03c-27.616,0-50.009-2.252-50.009-5.03
			c0-2.779,22.393-5.033,50.009-5.033C196.061,259.167,218.454,261.421,218.454,264.2z"/>
		<path fill="#D6D6D6" d="M217.92,264.2c0,2.72-22.154,4.925-49.476,4.925c-27.322,0-49.476-2.205-49.476-4.925
			c0-2.722,22.154-4.929,49.476-4.929C195.766,259.271,217.92,261.479,217.92,264.2z"/>
		<path fill="#D5D5D5" d="M217.387,264.2c0,2.661-21.915,4.82-48.943,4.82c-27.026,0-48.941-2.159-48.941-4.82
			c0-2.663,21.915-4.823,48.941-4.823C195.472,259.377,217.387,261.537,217.387,264.2z"/>
		<path fill="#D4D4D4" d="M216.853,264.2c0,2.604-21.676,4.716-48.409,4.716c-26.732,0-48.408-2.111-48.408-4.716
			c0-2.605,21.676-4.719,48.408-4.719C195.177,259.481,216.853,261.595,216.853,264.2z"/>
		<path fill="#D4D4D4" d="M216.319,264.2c0,2.546-21.438,4.61-47.875,4.61s-47.875-2.064-47.875-4.61
			c0-2.548,21.438-4.613,47.875-4.613S216.319,261.652,216.319,264.2z"/>
		<path fill="#D3D3D3" d="M215.785,264.2c0,2.487-21.198,4.505-47.341,4.505s-47.341-2.018-47.341-4.505
			c0-2.489,21.198-4.509,47.341-4.509S215.785,261.711,215.785,264.2z"/>
		<path fill="#D3D3D3" d="M215.251,264.2c0,2.43-20.959,4.4-46.808,4.4c-25.847,0-46.806-1.971-46.806-4.4
			c0-2.432,20.958-4.403,46.806-4.403C194.292,259.797,215.251,261.769,215.251,264.2z"/>
		<path fill="#D2D2D2" d="M214.718,264.2c0,2.372-20.721,4.296-46.274,4.296s-46.273-1.924-46.273-4.296
			c0-2.373,20.72-4.298,46.273-4.298S214.718,261.827,214.718,264.2z"/>
		<path fill="#D1D1D1" d="M214.184,264.2c0,2.313-20.481,4.19-45.74,4.19s-45.739-1.877-45.739-4.19
			c0-2.315,20.481-4.193,45.739-4.193S214.184,261.885,214.184,264.2z"/>
		<path fill="#D1D1D1" d="M213.649,264.2c0,2.256-20.241,4.085-45.206,4.085c-24.963,0-45.206-1.829-45.206-4.085
			c0-2.257,20.243-4.089,45.206-4.089C193.408,260.111,213.649,261.943,213.649,264.2z"/>
		<path fill="#D0D0D0" d="M213.116,264.2c0,2.198-20.004,3.98-44.672,3.98c-24.669,0-44.672-1.782-44.672-3.98
			c0-2.199,20.003-3.983,44.672-3.983C193.112,260.217,213.116,262.001,213.116,264.2z"/>
		<path fill="#D0D0D0" d="M212.582,264.2c0,2.14-19.764,3.876-44.138,3.876c-24.374,0-44.138-1.736-44.138-3.876
			c0-2.142,19.764-3.878,44.138-3.878C192.818,260.322,212.582,262.059,212.582,264.2z"/>
		<path fill="#CFCFCF" d="M212.049,264.2c0,2.082-19.525,3.771-43.605,3.771c-24.079,0-43.604-1.688-43.604-3.771
			c0-2.084,19.525-3.773,43.604-3.773C192.523,260.427,212.049,262.116,212.049,264.2z"/>
		<path fill="#CFCFCF" d="M211.515,264.2c0,2.024-19.286,3.665-43.071,3.665c-23.784,0-43.07-1.641-43.07-3.665
			c0-2.025,19.287-3.668,43.07-3.668C192.229,260.532,211.515,262.175,211.515,264.2z"/>
		<path fill="#CECECE" d="M210.98,264.2c0,1.966-19.047,3.561-42.537,3.561c-23.489,0-42.536-1.595-42.536-3.561
			c0-1.967,19.047-3.563,42.536-3.563C191.934,260.637,210.98,262.233,210.98,264.2z"/>
		<path fill="#CDCDCD" d="M210.447,264.2c0,1.908-18.809,3.456-42.004,3.456c-23.194,0-42.002-1.548-42.002-3.456
			c0-1.909,18.808-3.458,42.002-3.458C191.639,260.742,210.447,262.291,210.447,264.2z"/>
		<path fill="#CDCDCD" d="M209.913,264.2c0,1.851-18.569,3.351-41.469,3.351s-41.469-1.5-41.469-3.351
			c0-1.852,18.569-3.354,41.469-3.354S209.913,262.349,209.913,264.2z"/>
		<path fill="#CCCCCC" d="M209.38,264.2c0,1.792-18.331,3.245-40.936,3.245s-40.935-1.453-40.935-3.245
			c0-1.794,18.33-3.249,40.935-3.249S209.38,262.406,209.38,264.2z"/>
		<path fill="#CCCCCC" d="M208.846,264.2c0,1.734-18.092,3.141-40.402,3.141c-22.31,0-40.401-1.406-40.401-3.141
			c0-1.735,18.092-3.144,40.401-3.144C190.754,261.057,208.846,262.465,208.846,264.2z"/>
		<path fill="#CBCBCB" d="M208.312,264.2c0,1.676-17.853,3.036-39.868,3.036s-39.868-1.36-39.868-3.036
			c0-1.678,17.853-3.038,39.868-3.038S208.312,262.522,208.312,264.2z"/>
		<path fill="#CACACA" d="M207.778,264.2c0,1.618-17.613,2.931-39.334,2.931c-21.72,0-39.334-1.313-39.334-2.931
			c0-1.619,17.614-2.934,39.334-2.934C190.165,261.267,207.778,262.581,207.778,264.2z"/>
		<path fill="#CACACA" d="M207.244,264.2c0,1.561-17.374,2.825-38.8,2.825c-21.425,0-38.8-1.265-38.8-2.825
			c0-1.562,17.375-2.828,38.8-2.828C189.87,261.372,207.244,262.639,207.244,264.2z"/>
		<path fill="#C9C9C9" d="M206.71,264.2c0,1.502-17.135,2.721-38.266,2.721c-21.131,0-38.266-1.219-38.266-2.721
			c0-1.503,17.135-2.724,38.266-2.724C189.575,261.477,206.71,262.697,206.71,264.2z"/>
		<path fill="#C9C9C9" d="M206.177,264.2c0,1.444-16.896,2.615-37.733,2.615c-20.836,0-37.732-1.171-37.732-2.615
			c0-1.445,16.896-2.618,37.732-2.618C189.28,261.582,206.177,262.755,206.177,264.2z"/>
		<path fill="#C8C8C8" d="M205.643,264.2c0,1.387-16.657,2.511-37.198,2.511c-20.542,0-37.199-1.124-37.199-2.511
			c0-1.388,16.657-2.514,37.199-2.514C188.985,261.687,205.643,262.813,205.643,264.2z"/>
		<path fill="#C8C8C8" d="M205.109,264.2c0,1.328-16.419,2.405-36.666,2.405s-36.665-1.077-36.665-2.405
			c0-1.329,16.418-2.408,36.665-2.408S205.109,262.871,205.109,264.2z"/>
		<path fill="#C7C7C7" d="M204.575,264.2c0,1.271-16.179,2.301-36.131,2.301c-19.952,0-36.131-1.03-36.131-2.301
			c0-1.271,16.18-2.304,36.131-2.304C188.396,261.896,204.575,262.929,204.575,264.2z"/>
		<path fill="#C6C6C6" d="M204.042,264.2c0,1.213-15.941,2.195-35.598,2.195s-35.598-0.982-35.598-2.195s15.941-2.198,35.598-2.198
			S204.042,262.987,204.042,264.2z"/>
		<path fill="#C6C6C6" d="M203.508,264.2c0,1.154-15.701,2.091-35.064,2.091c-19.362,0-35.064-0.937-35.064-2.091
			c0-1.155,15.702-2.093,35.064-2.093C187.807,262.107,203.508,263.045,203.508,264.2z"/>
		<path fill="#C5C5C5" d="M202.974,264.2c0,1.097-15.462,1.985-34.53,1.985c-19.067,0-34.53-0.889-34.53-1.985
			c0-1.098,15.463-1.988,34.53-1.988C187.512,262.212,202.974,263.103,202.974,264.2z"/>
		<path fill="#C5C5C5" d="M202.44,264.2c0,1.038-15.224,1.88-33.997,1.88c-18.772,0-33.996-0.842-33.996-1.88
			c0-1.04,15.224-1.884,33.996-1.884C187.217,262.316,202.44,263.16,202.44,264.2z"/>
		<path fill="#C4C4C4" d="M201.906,264.2c0,0.98-14.984,1.775-33.462,1.775c-18.478,0-33.462-0.795-33.462-1.775
			c0-0.981,14.985-1.778,33.462-1.778C186.922,262.422,201.906,263.219,201.906,264.2z"/>
	</g>
	<g>
		<g>
			<g>
				<g>
					<path fill="#474747" d="M252.172,139.18c-1.15,0-2.189-0.464-3.051-0.851c-0.637-0.291-1.242-0.563-1.707-0.563
						c-1.523,0-2.689,0.98-2.699,0.993c-0.373,0.315-0.887,0.389-1.32,0.188c-0.438-0.205-0.713-0.647-0.705-1.125
						c0.008-0.342,0.182-3.418,4.346-6.659c2.141-1.669,4.674-4.389,5.512-6.721c0.406-1.139,0.326-2.265-0.193-3.016
						c-0.383-0.538-0.934-0.823-1.613-0.823c-1.93,0-3.174,0.54-3.43,1.476c-0.152,0.593,0.129,1.119,0.281,1.208
						c0.605,0.298,0.848,1.028,0.539,1.632c-0.297,0.599-1.033,0.84-1.627,0.538c-1.248-0.621-1.934-2.331-1.563-3.901
						c0.242-1.018,1.289-3.382,5.799-3.382c1.463,0,2.775,0.677,3.607,1.859c0.99,1.414,1.168,3.324,0.486,5.23
						c-1.07,2.981-4.07,6.073-6.309,7.818c-1.092,0.853-1.838,1.67-2.344,2.381c0.391-0.079,0.797-0.124,1.232-0.124
						c0.979,0,1.867,0.392,2.709,0.771c1.426,0.644,2.217,0.944,3.213,0.205c0.529-0.4,1.293-0.288,1.695,0.249
						c0.398,0.542,0.297,1.305-0.248,1.706C253.865,138.939,252.998,139.18,252.172,139.18z"/>
				</g>
				<g>
					<path fill="#474747" d="M267.717,132.044h-11.258c-0.463,0-0.879-0.255-1.094-0.668c-0.201-0.412-0.156-0.905,0.113-1.271
						c5.266-7.063,4.166-8.967,4.063-9.106c-0.531-0.308-0.766-0.976-0.508-1.548c0.27-0.618,0.994-0.893,1.607-0.62
						c0.168,0.076,1.039,0.521,1.379,1.813c0.523,2.012-0.553,5.026-3.203,8.975h8.9c0.674,0,1.213,0.541,1.213,1.214
						C268.93,131.502,268.391,132.044,267.717,132.044z"/>
				</g>
				<g>
					<path fill="#474747" d="M262.363,139.611c-0.084,0-0.162-0.008-0.246-0.022c-0.658-0.133-1.082-0.777-0.939-1.435l3.686-18.087
						c0.131-0.655,0.775-1.08,1.43-0.944c0.658,0.132,1.088,0.773,0.955,1.433l-3.693,18.086
						C263.43,139.22,262.93,139.611,262.363,139.611z"/>
				</g>
			</g>
		</g>
		<g>
			<path fill="#D92E4D" d="M260.955,163.548l-8.457-12.688c-0.652-0.976-1.578-1.469-2.758-1.469c-0.512,0-1.059,0.092-1.643,0.276
				c-0.879,0.283-1.867,0.78-2.914,1.473c-1.813,1.202-3,2.488-3.439,3.702l-0.453,1.25l-0.609,1.688l-2.951-1.019
				c-2.74-0.944-5.17-3.426-7.416-7.577c-0.303-0.542-0.635-1.075-1-1.681c-1.135-1.844-2.688-4.365-4.098-9.243
				c-1.275-4.402-1.326-5.21-1.326-7.932c0-1.222,0.381-2.547,0.703-3.442l0.814-2.303l0.115-0.33l2.727,0.595
				c0.316,0.075,0.639,0.126,0.959,0.141l0.381,0.006c0.854,0,1.832-0.143,2.889-0.429c1.77-0.456,3.117-1.115,4.02-1.959
				c1.051-0.975,1.457-2.27,1.139-3.639l-3.633-15.879c-0.508-2.213-2.297-2.751-3.74-2.816l-0.328-0.012
				c-0.85,0-1.828,0.15-2.898,0.425c-2.936,0.774-4.65,2.016-5.111,3.693l-0.24,0.871l-0.654,0.609
				c-0.109,0.104-0.199,0.231-0.307,0.335c-5.803,5.634-8.424,14.548-6.986,23.995c0.129,0.844,0.186,1.5,0.262,2.218
				c0.164,1.723,0.326,3.347,1.84,8.605c2.719,9.405,4.184,11.666,6.209,14.804c6.242,9.654,13.623,14.551,21.918,14.551
				c1.273,0,2.652-0.129,4.111-0.388l1.695-0.294l0.6,0.642l0.572,0.62c0.619,0.669,1.408,1.005,2.352,1.005
				c0.512,0,1.066-0.096,1.658-0.287c0.902-0.28,1.891-0.774,2.93-1.469c1.516-1.01,2.58-2.053,3.158-3.092
				C261.711,165.883,261.68,164.648,260.955,163.548z"/>
			<g>
				<path fill="#D92E4D" d="M225.523,124.254l2.727,0.595c0.316,0.075,0.639,0.126,0.959,0.141l0.381,0.006
					c0.854,0,1.832-0.143,2.889-0.429c1.77-0.456,3.117-1.115,4.02-1.959c1.051-0.975,1.457-2.27,1.139-3.639l-3.633-15.879
					c-0.508-2.213-2.297-2.751-3.74-2.816l-0.328-0.012c-0.85,0-1.828,0.15-2.898,0.425c-2.936,0.774-4.65,2.016-5.111,3.693
					l-0.24,0.871l-0.654,0.609c-0.109,0.104-0.199,0.231-0.307,0.335l4.684,18.39L225.523,124.254z"/>
				<path fill="#FF3B5E" d="M240.682,157.78l-2.951-1.019c-2.74-0.944-5.17-3.426-7.416-7.577c-0.303-0.542-0.635-1.075-1-1.681
					c-1.135-1.844-2.688-4.365-4.098-9.243c-1.275-4.402-1.326-5.21-1.326-7.932c0-1.222,0.381-2.547,0.703-3.442l0.814-2.303
					l-4.684-18.39c-5.803,5.634-8.424,14.548-6.986,23.995c0.129,0.844,0.186,1.5,0.262,2.218c0.164,1.723,0.326,3.347,1.84,8.605
					c2.719,9.405,4.184,11.666,6.209,14.804c6.242,9.654,13.623,14.551,21.918,14.551c1.273,0,2.652-0.129,4.111-0.388l1.695-0.294
					l0.6,0.642l-9.082-14.235L240.682,157.78z"/>
				<path fill="#D92E4D" d="M260.955,163.548l-8.457-12.688c-0.652-0.976-1.578-1.469-2.758-1.469c-0.512,0-1.059,0.092-1.643,0.276
					c-0.879,0.283-1.867,0.78-2.914,1.473c-1.813,1.202-3,2.488-3.439,3.702l-0.453,1.25l9.082,14.235l0.572,0.62
					c0.619,0.669,1.408,1.005,2.352,1.005c0.512,0,1.066-0.096,1.658-0.287c0.902-0.28,1.891-0.774,2.93-1.469
					c1.516-1.01,2.58-2.053,3.158-3.092C261.711,165.883,261.68,164.648,260.955,163.548z"/>
			</g>
		</g>
		<g>
			<path fill="#EBC09B" d="M204.316,116.723c0,3.539-1.924,6.411-4.279,6.411c-2.359,0-4.275-2.872-4.275-6.411
				s1.916-6.412,4.275-6.412C202.393,110.311,204.316,113.184,204.316,116.723z"/>
			<g>
				<path fill="#EBC09B" d="M182.967,137.436h-11.18h-6.381h-11.173c0,10.145-4.09,17.388-8.638,22.318
					c10.442,5.368,16.329,62.774,46.624,0.642C187.439,155.46,182.967,148.051,182.967,137.436z"/>
				<g>
					<g>
						<path fill="#00ABA3" d="M188.023,155.491c0,0-1.059,10.975-2.506,13.964c-1.674,3.437-4.906,8.292-8.107,12.175
							c-2.966,3.596-5.92,6.362-7.564,6.362c-0.113,0-1.431,2.347-1.547,2.33v66.047c31.822-0.055,61.351-5.434,66.324-11.205
							C237.26,242.098,238.754,155.491,188.023,155.491z"/>
					</g>
					<g>
						<path fill="#00BFB6" d="M149.114,155.491c0,0,1.058,10.975,2.507,13.964c1.67,3.437,4.905,8.292,8.106,12.175
							c2.964,3.596,5.921,6.362,7.565,6.362c0.113,0,1.431,2.347,1.549,2.33v66.047c-31.821-0.055-61.354-5.434-66.326-11.205
							C99.872,242.098,98.381,155.491,149.114,155.491z"/>
					</g>
				</g>
				<g>
					<path fill="#EBC09B" d="M168.26,84.207v68.792c17.279-0.823,32.744-21.369,32.744-39.518
						C201.004,93.655,183.885,84.579,168.26,84.207z"/>
					<path fill="#F2D6BF" d="M167.258,153.077c0.334,0,0.668-0.062,1.002-0.079V82.952c-0.334-0.009-0.67-0.037-1.002-0.037
						c-15.895,0-32.311,10.316-32.311,30.565C134.947,131.985,149.569,153.077,167.258,153.077z"/>
					<path fill="#EBC09B" d="M135.113,112.228c0-20.25,17.531-29.312,33.426-29.312c0.332,0,0.668,0.027,1,0.037v-1.457
						c-0.334-0.007-0.663-0.038-1-0.038C150.077,81.457,135.113,92.4,135.113,112.228z"/>
				</g>
				<g>
					<path fill="#2B2B2B" d="M158.814,111.621c0,2.213-1.799,4.014-4.017,4.014c-2.223,0-4.019-1.801-4.019-4.014
						c0-2.217,1.796-4.017,4.019-4.017C157.015,107.604,158.814,109.404,158.814,111.621z"/>
					<path fill="#2B2B2B" d="M186.529,111.621c0,2.213-1.799,4.014-4.016,4.014c-2.215,0-4.012-1.801-4.012-4.014
						c0-2.217,1.797-4.017,4.012-4.017C184.73,107.604,186.529,109.404,186.529,111.621z"/>
				</g>
				<path fill="#FFFFFF" d="M186.244,175.476l8.012-0.892l-6.35-19.358c0,0-4.051,13.641-6.566,18.212
					c-1.703,3.105-9.661,12.315-12.846,15.953c-3.183-3.638-11.145-12.848-12.847-15.953c-2.509-4.572-6.563-18.212-6.563-18.212
					l-6.347,19.358l8.009,0.892l-0.96,6.827l16.308,10.385v63.482h5.116v-63.683l15.994-10.185L186.244,175.476z"/>
				<path fill="#F2D6BF" d="M140.379,116.723c0,3.539-1.92,6.411-4.274,6.411c-2.365,0-4.277-2.872-4.277-6.411
					s1.912-6.412,4.277-6.412C138.458,110.311,140.379,113.184,140.379,116.723z"/>
				<g>
					<g>
						<g>
							<path fill="#2B2B2B" d="M164.127,120.025h-20.895c-1.417,0-2.578-1.344-2.578-2.997v-9.451c0-1.653,1.16-3,2.578-3h20.895
								c1.42,0,2.578,1.347,2.578,3v9.451C166.706,118.681,165.548,120.025,164.127,120.025z M143.496,116.721h20.369v-8.838
								h-20.369V116.721z"/>
						</g>
						<g>
							<path fill="#2B2B2B" d="M193.961,120.025h-20.877c-1.423,0-2.586-1.344-2.586-2.997v-9.451c0-1.653,1.163-3,2.586-3h20.877
								c1.428,0,2.582,1.347,2.582,3v9.451C196.543,118.681,195.389,120.025,193.961,120.025z M173.339,116.721h20.364v-8.838
								h-20.364V116.721z"/>
						</g>
						<g>
							<rect x="165.611" y="110.152" fill="#2B2B2B" width="5.687" height="3.303"/>
						</g>
					</g>
					<g>
						<polygon fill="#2B2B2B" points="134.792,110.758 134.745,108.456 141.281,108.725 141.889,113.233 						"/>
					</g>
					<g>
						<polygon fill="#2B2B2B" points="201.238,110.758 201.238,108.892 194.561,108.725 193.961,113.233 						"/>
					</g>
				</g>
				<path fill="#2B2B2B" d="M168.11,73.448v-0.022c0.092-0.002,0.14-0.004,0-0.005c-4.682-0.038-35.958,0.965-33.318,35.284
					c0,0,8.264-18.562,19.827-15.216c0,0,7.336,3.168,13.491,5.866c1.868,0.819,2.609,1.597,4.293,2.225
					c11.876,4.451,16.666,6.811,28.275,5.818C200.678,107.397,204.836,73.759,168.11,73.448z"/>
				<g>
					<path fill="#474747" d="M134.792,108.704c0,0,8.264-18.562,19.827-15.216c0,0,7.336,3.168,13.491,5.866V73.42
						C163.428,73.382,132.151,74.385,134.792,108.704z"/>
					<path fill="#2B2B2B" d="M167.605,73.433c0,0,0.889-0.01,0.505-0.013v25.934c1.868,0.819,2.609,1.597,4.293,2.225
						c11.876,4.451,16.666,6.811,28.275,5.818C200.678,107.397,204.893,73.433,167.605,73.433z"/>
				</g>
			</g>
		</g>
		<path fill="#FFFFFF" d="M208.848,185.693c-1.701-18.114-16.779-29.92-17.504-30.534l-3.209,0.154
			c0.16,0.14,15.26,13.133,17.41,29.812c-6.924-0.368-15.17,3.896-16.15,8.78l-5.596,28.021c-0.367,1.847,0.295,3.977,1.5,5.952
			c-0.084,0.25-0.18,0.489-0.23,0.753c-0.664,3.274,1.467,6.454,4.744,7.112c3.27,0.652,6.455-1.474,7.109-4.745
			c0.664-3.272-1.465-6.46-4.744-7.12c-1.281-0.256-2.541-0.071-3.652,0.431c-0.289-0.581-0.436-1.107-0.357-1.507l5.596-28.023
			c0.541-2.672,8.416-5.818,12.861-4.935c4.443,0.895,10.508,6.818,9.977,9.496l-5.598,28.018c-0.068,0.357-0.352,0.726-0.729,1.094
			c-0.859-1.099-2.082-1.928-3.563-2.223c-3.27-0.654-6.459,1.468-7.111,4.743c-0.654,3.271,1.475,6.46,4.744,7.112
			c3.273,0.652,6.457-1.468,7.113-4.743c0.004-0.01,0-0.023,0.006-0.039c1.992-1.384,3.527-3.151,3.908-5.065l5.598-28.023
			C221.973,195.179,215.613,187.776,208.848,185.693z"/>
		<path fill="#474747" d="M137.964,128.697c0,0,2.054,2.8,3.548,3.919c2.218,1.667,7.271,3.873,15.935,4.07
			c0.166,1.188,0.894,2.102,1.82,2.102h10.353c1.042,0,1.886-1.146,1.886-2.555v-2.558c0-1.406-0.845-2.551-1.886-2.551h-10.353
			c-1.044,0-1.889-0.423-1.889,0.982v1.656c-7.47-0.183-11.771-1.544-14.562-3.572c-2.052-1.493-6.449-6.791-6.449-6.791
			L137.964,128.697z"/>
		<g>
			<path fill="#FFFFFF" d="M161.582,217.777c0,1.595-1.294,2.892-2.901,2.892c-1.599,0-2.893-1.297-2.893-2.892
				c0-1.606,1.294-2.9,2.893-2.9C160.288,214.877,161.582,216.171,161.582,217.777z"/>
			<path fill="#FFFFFF" d="M161.582,227.042c0,1.604-1.294,2.898-2.901,2.898c-1.599,0-2.893-1.294-2.893-2.898
				c0-1.6,1.294-2.898,2.893-2.898C160.288,224.144,161.582,225.442,161.582,227.042z"/>
			<path fill="#FFFFFF" d="M161.582,236.306c0,1.602-1.294,2.898-2.901,2.898c-1.599,0-2.893-1.297-2.893-2.898
				c0-1.594,1.294-2.888,2.893-2.888C160.288,233.418,161.582,234.712,161.582,236.306z"/>
		</g>
		<path fill="#FFFFFF" d="M138.38,214.38c0,3.795-3.078,6.87-6.868,6.87c-3.796,0-6.873-3.075-6.873-6.87
			c0-3.793,3.077-6.871,6.873-6.871C135.302,207.509,138.38,210.587,138.38,214.38z"/>
		<g>
			<g>
				<path fill="#FFFFFF" d="M129.434,211.042c-1.949-38.069,15.492-54.815,16.292-55.606l3.412-0.025
					c-0.184,0.186-18.373,18.905-16.5,55.466L129.434,211.042z"/>
			</g>
			<path fill="#474747" d="M134.826,214.39c0,1.902-1.536,3.44-3.43,3.44c-1.899,0-3.44-1.538-3.44-3.44
				c0-1.894,1.541-3.433,3.44-3.433C133.29,210.957,134.826,212.496,134.826,214.39z"/>
		</g>
	</g>
</g>
</svg>
