<?xml version="1.0" encoding="utf-8"?>
<!-- Generator: Adobe Illustrator 16.0.0, SVG Export Plug-In . SVG Version: 6.00 Build 0)  -->
<!DOCTYPE svg PUBLIC "-//W3C//DTD SVG 1.1//EN" "http://www.w3.org/Graphics/SVG/1.1/DTD/svg11.dtd">
<svg version="1.1" id="Capa_1" xmlns="http://www.w3.org/2000/svg" xmlns:xlink="http://www.w3.org/1999/xlink" x="0px" y="0px"
	 width="350px" height="350px" viewBox="0 0 350 350" enable-background="new 0 0 350 350" xml:space="preserve">
<g>
	<path fill="#A5A5A5" d="M156.833,304.626c-1.257,0-2.514-0.481-3.471-1.438c-1.92-1.921-1.92-5.023,0-6.943l20.622-20.622
		c1.92-1.92,5.023-1.92,6.942,0c1.921,1.92,1.921,5.023,0,6.943l-20.622,20.622C159.347,304.145,158.09,304.626,156.833,304.626z"/>
	<path fill="#A5A5A5" d="M177.455,311.5c-2.715,0-4.91-2.2-4.91-4.91v-27.496c0-2.711,2.195-4.91,4.91-4.91
		c2.715,0,4.91,2.199,4.91,4.91v27.496C182.365,309.3,180.17,311.5,177.455,311.5z"/>
	<path fill="#A5A5A5" d="M198.077,304.626c-1.257,0-2.514-0.481-3.472-1.438l-20.622-20.622c-1.919-1.92-1.919-5.023,0-6.943
		c1.92-1.92,5.023-1.92,6.942,0l20.623,20.622c1.92,1.92,1.92,5.022,0,6.943C200.591,304.145,199.334,304.626,198.077,304.626z"/>
	<path fill="#A5A5A5" d="M211.83,290.877c-0.318,0-0.643-0.028-0.967-0.098l-34.37-6.874c-2.657-0.53-4.385-3.118-3.85-5.779
		c0.525-2.656,3.083-4.389,5.779-3.85l34.371,6.874c2.655,0.53,4.385,3.118,3.85,5.779
		C216.175,289.263,214.123,290.877,211.83,290.877z"/>
	<path fill="#A5A5A5" d="M143.08,289.733c-2.357,0-4.439-1.703-4.836-4.1c-0.447-2.676,1.36-5.204,4.036-5.651l34.371-5.73
		c2.687-0.451,5.21,1.36,5.646,4.036c0.447,2.676-1.359,5.205-4.036,5.651l-34.37,5.73
		C143.62,289.709,143.35,289.733,143.08,289.733z"/>
	<path fill="#E9D3EA" d="M182.365,68.333V38.5l-19.641,9.82v20.411c-53.672,6.226-95.093,52.646-93.232,108.409
		c1.797,53.8,45.006,98.388,98.732,101.742c61.375,3.829,112.342-44.81,112.342-105.356
		C280.566,117.709,237.216,72.129,182.365,68.333z"/>
	<path fill="#9777A8" d="M177.455,285c-0.506,0-1.018-0.078-1.527-0.245c-29.985-9.785-57.826-36.84-70.911-68.938
		c-12.354-30.28-10.949-62.672,3.942-91.209c1.257-2.401,4.203-3.339,6.629-2.082c2.401,1.257,3.334,4.223,2.082,6.624
		c-17.348,33.246-11.509,63.462-3.56,82.96c12.045,29.534,37.508,54.384,64.873,63.311c2.572,0.84,3.986,3.614,3.147,6.191
		C181.451,283.685,179.522,285,177.455,285z"/>
	<path fill="#9777A8" d="M177.455,285c-2.067,0-3.992-1.315-4.669-3.388c-0.84-2.577,0.569-5.347,3.147-6.191
		c27.363-8.927,52.828-33.776,64.872-63.311c7.949-19.498,13.792-49.714-3.561-82.96c-1.251-2.401-0.318-5.367,2.083-6.624
		c2.415-1.257,5.376-0.319,6.628,2.082c14.892,28.537,16.292,60.929,3.943,91.209c-13.086,32.093-40.926,59.152-70.912,68.938
		C178.472,284.922,177.961,285,177.455,285z"/>
	<path fill="#9777A8" d="M179.9,285c-0.83,0-1.669-0.206-2.44-0.652c-31.955-18.358-56.354-105.115-37.518-168.681
		c0.766-2.597,3.501-4.075,6.103-3.314c2.598,0.771,4.081,3.501,3.314,6.103c-18.668,63,7.355,142.648,32.991,157.374
		c2.352,1.35,3.167,4.349,1.812,6.701C183.259,284.116,181.604,285,179.9,285z"/>
	<path fill="#9777A8" d="M175.01,285c-1.704,0-3.358-0.884-4.262-2.465c-1.35-2.352-0.535-5.353,1.812-6.702
		c25.636-14.726,51.659-94.371,32.991-157.373c-0.767-2.602,0.716-5.332,3.313-6.103c2.603-0.766,5.337,0.717,6.104,3.314
		c18.835,63.565-5.563,150.321-37.519,168.681C176.679,284.79,175.839,285,175.01,285z"/>
	<path fill="#9777A8" d="M177.455,284.004c-2.715,0-4.91-2.2-4.91-4.91V97.421c0-2.71,2.195-4.91,4.91-4.91
		c2.715,0,4.91,2.2,4.91,4.91v181.673C182.365,281.804,180.17,284.004,177.455,284.004z"/>
</g>
</svg>
