<?xml version="1.0" encoding="utf-8"?>
<!-- Generator: Adobe Illustrator 16.0.0, SVG Export Plug-In . SVG Version: 6.00 Build 0)  -->
<!DOCTYPE svg PUBLIC "-//W3C//DTD SVG 1.1//EN" "http://www.w3.org/Graphics/SVG/1.1/DTD/svg11.dtd">
<svg version="1.1" id="Layer_1" xmlns="http://www.w3.org/2000/svg" xmlns:xlink="http://www.w3.org/1999/xlink" x="0px" y="0px"
	 width="350px" height="350px" viewBox="0 0 350 350" enable-background="new 0 0 350 350" xml:space="preserve">
<path fill="#5ECC66" d="M202.991,108.248l15.813-20.103c-4.421-4.483-15.075-13.365-25.98-8.126
	c-5.081,2.435-8.134,5.185-8.838,7.954c-0.604,2.374,0.735,4.263,0.796,4.343c1.279,1.771,0.968,4.267-0.736,5.631
	c-1.712,1.366-4.16,1.182-5.609-0.456L156.493,72.61l1.72,21.849c0.132,1.706-0.808,3.316-2.361,4.038
	c-1.544,0.72-3.393,0.402-4.609-0.806c-7.362-7.292-21.92-18.8-29.794-18.8c-0.036,0-0.072,0-0.108,0
	c-1.74,0.024-2.545,0.636-3.053,1.167c-0.452,0.474-0.732,0.998-0.62,2.024c0.737,6.78,15.425,19.569,26.195,26.973
	c9.672-2.67,20.107-4.106,31.137-4.106C184.847,104.948,194.211,106.105,202.991,108.248z"/>
<path fill="#E65F58" d="M203.718,116.95c-0.241-0.046-0.464-0.128-0.696-0.219c-8.721-2.336-18.108-3.589-28.021-3.589
	c-52.227,0-90.13,34.459-90.13,81.937c0,49.698,40.432,90.131,90.13,90.131c49.698,0,90.13-40.433,90.13-90.131
	C265.13,156.858,240.543,127.112,203.718,116.95z M130.439,147.053c-16.396,12.525-25.797,31.522-25.797,52.123
	c0,2.263-1.833,4.097-4.097,4.097s-4.097-1.834-4.097-4.097c0-23.176,10.575-44.547,29.014-58.632
	c1.804-1.371,4.369-1.03,5.745,0.769C132.58,143.11,132.235,145.681,130.439,147.053z M175,272.918
	c-2.264,0-4.097-1.834-4.097-4.097s1.833-4.098,4.097-4.098c38.404,0,69.646-30.825,69.646-68.715c0-2.263,1.832-4.097,4.096-4.097
	c2.266,0,4.099,1.834,4.099,4.097C252.841,238.417,217.921,272.918,175,272.918z"/>
<g>
	<path fill="#314E55" d="M211.492,110.694l15.891-20.199c1.169-1.484,1.169-3.575,0.004-5.062
		c-0.725-0.922-17.959-22.462-38.107-12.804c-6.225,2.986-10.354,6.607-12.326,10.792l-22.436-25.439
		c-1.168-1.324-3.053-1.744-4.669-1.063c-1.624,0.688-2.625,2.337-2.488,4.095l1.881,23.861
		c-7.49-6.207-18.852-14.179-27.806-14.179c-0.068,0-0.136,0-0.204,0.002c-3.533,0.048-6.598,1.326-8.862,3.697
		c-2.216,2.319-3.201,5.283-2.845,8.573c1.108,10.185,15.747,22.563,24.708,29.258c-34.882,13.4-57.556,44.192-57.556,82.851
		c0,54.215,44.109,98.324,98.324,98.324c54.216,0,98.324-44.109,98.324-98.324C273.324,154.861,248.786,123.157,211.492,110.694z
		 M117.668,82.082c-0.112-1.026,0.168-1.55,0.62-2.024c0.508-0.53,1.312-1.143,3.053-1.167c0.036,0,0.072,0,0.108,0
		c7.874,0,22.433,11.508,29.794,18.8c1.216,1.208,3.064,1.526,4.609,0.806c1.552-0.722,2.493-2.332,2.361-4.039l-1.72-21.848
		l21.945,24.881c1.448,1.639,3.896,1.822,5.609,0.456c1.704-1.364,2.017-3.86,0.736-5.631c-0.062-0.08-1.401-1.969-0.797-4.343
		c0.704-2.769,3.757-5.519,8.838-7.954c10.905-5.239,21.561,3.643,25.981,8.126l-15.814,20.103
		c-8.78-2.143-18.145-3.299-27.991-3.299c-11.029,0-21.465,1.436-31.137,4.106C133.094,101.651,118.406,88.862,117.668,82.082z
		 M175,285.209c-49.698,0-90.13-40.433-90.13-90.131c0-47.477,37.903-81.937,90.13-81.937c9.913,0,19.301,1.254,28.021,3.589
		c0.232,0.091,0.455,0.173,0.696,0.219c36.825,10.161,61.413,39.908,61.413,78.128C265.13,244.776,224.698,285.209,175,285.209z"/>
	<path fill="#314E55" d="M248.742,191.912c-2.264,0-4.096,1.834-4.096,4.097c0,37.89-31.243,68.715-69.646,68.715
		c-2.264,0-4.097,1.835-4.097,4.098s1.833,4.097,4.097,4.097c42.921,0,77.841-34.501,77.841-76.909
		C252.841,193.746,251.008,191.912,248.742,191.912z"/>
	<path fill="#314E55" d="M125.462,140.543c-18.439,14.085-29.013,35.458-29.013,58.632c0,2.263,1.833,4.097,4.097,4.097
		s4.097-1.834,4.097-4.097c0-20.601,9.402-39.599,25.797-52.123c1.797-1.372,2.141-3.943,0.768-5.741
		C129.831,139.513,127.267,139.173,125.462,140.543z"/>
</g>
</svg>
