<?xml version="1.0" encoding="utf-8"?>
<!-- Generator: Adobe Illustrator 16.0.0, SVG Export Plug-In . SVG Version: 6.00 Build 0)  -->
<!DOCTYPE svg PUBLIC "-//W3C//DTD SVG 1.1//EN" "http://www.w3.org/Graphics/SVG/1.1/DTD/svg11.dtd">
<svg version="1.1" id="Layer_1" xmlns="http://www.w3.org/2000/svg" xmlns:xlink="http://www.w3.org/1999/xlink" x="0px" y="0px"
	 width="350px" height="350px" viewBox="0 0 350 350" enable-background="new 0 0 350 350" xml:space="preserve">
<g>
	<g>
		<path fill="#B4B6BC" d="M187.761,238.698c-9.59,0-32.917,0-42.508,0c-2.346,0-4.225,1.901-4.225,4.246l0,0
			c0,26.01,25.479,55.205,25.479,55.205s25.479-29.195,25.479-55.205l0,0C191.986,240.6,190.107,238.698,187.761,238.698z"/>
	</g>
	<g>
		<path fill="#B4B6BC" d="M145.274,187.739h42.465c2.345,0,4.247-1.901,4.247-4.246V68.837c0-2.345-1.902-4.247-4.247-4.247h-21.232
			h-21.232c-2.345,0-4.247,1.901-4.247,4.247v114.656C141.028,185.838,142.929,187.739,145.274,187.739z"/>
	</g>
	<g>
		<path fill="#009BCA" d="M183.493,64.59V47.604c0-4.691-3.803-8.493-8.493-8.493h-16.986c-4.69,0-8.493,3.802-8.493,8.493V64.59
			H183.493z"/>
	</g>
	<g>
		<path fill="#009BCA" d="M183.493,221.712c4.69,0,8.493,3.802,8.493,8.493c0,4.69-3.803,8.493-8.493,8.493h-33.972
			c-4.691,0-8.493-3.803-8.493-8.493c0-4.691,3.802-8.493,8.493-8.493H183.493z"/>
	</g>
	<g>
		<path fill="#4BB9EC" d="M183.493,221.712h-17.103v16.986h17.103c4.69,0,8.493-3.804,8.493-8.493
			C191.986,225.514,188.184,221.712,183.493,221.712z"/>
	</g>
	<g>
		<path fill="#009BCA" d="M183.493,204.726c4.69,0,8.493,3.803,8.493,8.493s-3.803,8.493-8.493,8.493h-33.972
			c-4.691,0-8.493-3.803-8.493-8.493s3.802-8.493,8.493-8.493H183.493z"/>
	</g>
	<g>
		<path fill="#4BB9EC" d="M183.493,204.726h-17.103v16.986h17.103c4.69,0,8.493-3.803,8.493-8.493S188.184,204.726,183.493,204.726z
			"/>
	</g>
	<g>
		<path fill="#009BCA" d="M183.493,187.739c4.69,0,8.493,3.803,8.493,8.493c0,4.691-3.803,8.493-8.493,8.493h-33.972
			c-4.691,0-8.493-3.802-8.493-8.493c0-4.69,3.802-8.493,8.493-8.493H183.493z"/>
	</g>
	<g>
		<path fill="#4BB9EC" d="M183.493,187.739h-17.103v16.986h17.103c4.69,0,8.493-3.803,8.493-8.493S188.184,187.739,183.493,187.739z
			"/>
	</g>
	<g>
		<path fill="#868491" d="M166.391,238.698c-8.19,0-16.365,0-21.138,0c-2.346,0-4.225,1.901-4.225,4.246l0,0
			c0,25.349,24.132,53.643,25.363,55.069V238.698z"/>
	</g>
	<g>
		<path fill="#868491" d="M166.391,64.59h-21.116c-2.345,0-4.247,1.901-4.247,4.247v114.656c0,2.345,1.901,4.246,4.247,4.246h21.116
			V64.59z"/>
	</g>
	<g>
		<g>
			<path fill="#5C546A" d="M208.973,170.753c-2.349,0-4.247-1.901-4.247-4.247V90.069c0-2.341-1.903-4.247-4.246-4.247h-59.452
				c-2.347,0-4.247-1.901-4.247-4.247c0-2.345,1.899-4.246,4.247-4.246h59.452c7.024,0,12.739,5.714,12.739,12.739v76.438
				C213.219,168.852,211.32,170.753,208.973,170.753z"/>
		</g>
	</g>
	<g>
		<path fill="#4BB9EC" d="M175,39.111h-8.609V64.59h17.103V47.604C183.493,42.913,179.69,39.111,175,39.111z"/>
	</g>
	<g>
		<path fill="#5C546A" d="M162.26,306.643c0,2.345,1.899,4.246,4.247,4.246c2.348,0,4.247-1.901,4.247-4.246v-13.756h-8.493V306.643
			z"/>
	</g>
</g>
</svg>
