<?xml version="1.0" encoding="utf-8"?>
<!-- Generator: Adobe Illustrator 16.0.0, SVG Export Plug-In . SVG Version: 6.00 Build 0)  -->
<!DOCTYPE svg PUBLIC "-//W3C//DTD SVG 1.1//EN" "http://www.w3.org/Graphics/SVG/1.1/DTD/svg11.dtd">
<svg version="1.1" id="Layer_1" xmlns="http://www.w3.org/2000/svg" xmlns:xlink="http://www.w3.org/1999/xlink" x="0px" y="0px"
	 width="350px" height="350px" viewBox="0 0 350 350" enable-background="new 0 0 350 350" xml:space="preserve">
<g>
	<g>
		<path d="M265.48,200.056c-0.004-0.114-0.008-0.228-0.017-0.342c-0.01-0.099-0.022-0.196-0.036-0.294
			c-0.014-0.102-0.027-0.202-0.046-0.302c-0.02-0.104-0.044-0.207-0.067-0.311c-0.022-0.092-0.045-0.184-0.071-0.273
			c-0.03-0.106-0.064-0.209-0.101-0.312c-0.03-0.088-0.061-0.173-0.095-0.26c-0.041-0.103-0.086-0.203-0.131-0.303
			c-0.038-0.083-0.077-0.165-0.118-0.248c-0.053-0.1-0.107-0.196-0.165-0.294c-0.045-0.076-0.09-0.152-0.138-0.228
			c-0.065-0.101-0.137-0.198-0.207-0.296c-0.049-0.064-0.095-0.131-0.145-0.193c-0.085-0.105-0.173-0.207-0.265-0.307
			c-0.034-0.038-0.063-0.078-0.099-0.115c-21.655-22.743-44.526-59.752-62.75-101.537c-7.867-18.038-14.548-36.147-19.875-53.84
			c-0.477-2.754-2.766-4.883-5.597-5.112c-0.054-0.005-0.108-0.005-0.162-0.008c-0.051-0.003-0.103-0.006-0.154-0.008
			c-0.083-0.004-0.165-0.009-0.249-0.009c-0.104,0-0.206,0.007-0.309,0.012c-0.098,0.005-0.196,0.008-0.294,0.018
			c-0.119,0.012-0.235,0.031-0.352,0.049c-0.083,0.013-0.167,0.023-0.25,0.04c-0.135,0.027-0.267,0.063-0.4,0.098
			c-0.056,0.015-0.113,0.024-0.17,0.041c-0.009,0.003-0.018,0.007-0.027,0.01c-0.131,0.041-0.259,0.089-0.386,0.137
			c-0.067,0.025-0.137,0.047-0.203,0.074c-0.077,0.033-0.15,0.071-0.225,0.107c-0.472,0.22-0.91,0.49-1.302,0.809
			c-0.003,0.003-0.007,0.005-0.01,0.008c-0.1,0.082-0.192,0.171-0.286,0.259c-0.055,0.05-0.113,0.099-0.166,0.15
			c-0.053,0.053-0.099,0.11-0.15,0.165c-0.088,0.095-0.178,0.188-0.261,0.288c-0.001,0.001-0.002,0.003-0.003,0.005
			c-0.321,0.392-0.592,0.832-0.813,1.306c-0.036,0.076-0.074,0.149-0.107,0.226c-0.027,0.066-0.048,0.135-0.073,0.202
			c-0.049,0.128-0.098,0.257-0.138,0.389c-0.003,0.009-0.007,0.018-0.01,0.027c-5.362,17.922-12.124,36.278-20.095,54.556
			c-18.228,41.793-41.098,78.802-62.746,101.536c-0.037,0.04-0.068,0.081-0.104,0.122c-0.089,0.098-0.176,0.195-0.259,0.299
			c-0.051,0.065-0.099,0.131-0.148,0.198c-0.069,0.096-0.139,0.192-0.204,0.292c-0.049,0.076-0.095,0.153-0.14,0.23
			c-0.056,0.097-0.111,0.192-0.162,0.291c-0.042,0.083-0.082,0.166-0.121,0.249c-0.046,0.1-0.09,0.2-0.131,0.301
			c-0.034,0.086-0.065,0.173-0.096,0.26c-0.035,0.104-0.069,0.207-0.1,0.312c-0.026,0.092-0.049,0.185-0.071,0.275
			c-0.024,0.104-0.048,0.205-0.067,0.311c-0.019,0.1-0.032,0.2-0.046,0.302c-0.013,0.098-0.027,0.195-0.035,0.294
			c-0.01,0.113-0.014,0.227-0.018,0.34c-0.001,0.067-0.01,0.131-0.01,0.198c0,0.024,0.003,0.048,0.003,0.072
			c0.001,0.117,0.01,0.235,0.019,0.353c0.006,0.089,0.009,0.178,0.019,0.265c0.012,0.109,0.031,0.217,0.049,0.326
			c0.015,0.093,0.028,0.187,0.047,0.278c0.022,0.104,0.052,0.206,0.08,0.309c0.024,0.091,0.045,0.184,0.074,0.273
			c0.035,0.109,0.078,0.219,0.119,0.327c0.03,0.077,0.055,0.156,0.088,0.231c0.052,0.122,0.113,0.239,0.172,0.357
			c0.031,0.06,0.057,0.122,0.089,0.179c0.065,0.119,0.14,0.235,0.213,0.351c0.035,0.054,0.066,0.109,0.102,0.162
			c0.071,0.104,0.15,0.204,0.228,0.305c0.047,0.061,0.091,0.122,0.141,0.182c0.073,0.087,0.153,0.171,0.231,0.255
			c0.063,0.066,0.123,0.134,0.188,0.198c0.021,0.021,0.04,0.045,0.063,0.065c0.064,0.061,0.132,0.113,0.198,0.172
			c0.062,0.054,0.122,0.108,0.186,0.159c0.099,0.081,0.2,0.154,0.303,0.228c0.058,0.041,0.115,0.083,0.175,0.122
			c0.111,0.074,0.226,0.142,0.342,0.208c0.056,0.032,0.111,0.065,0.167,0.096c0.122,0.064,0.246,0.122,0.37,0.177
			c0.057,0.026,0.112,0.054,0.17,0.077c0.129,0.054,0.259,0.1,0.391,0.143c0.058,0.02,0.114,0.042,0.172,0.06
			c0.141,0.042,0.284,0.077,0.427,0.109c0.051,0.012,0.102,0.026,0.154,0.036c0.174,0.035,0.349,0.06,0.525,0.08
			c0.023,0.003,0.045,0.008,0.068,0.01c0.208,0.021,0.416,0.033,0.624,0.033c0.008,0,0.017-0.001,0.024-0.001
			c21.323,0.013,38.666,17.363,38.666,38.689v1.684h-10.527c-3.422,0-6.198,2.775-6.198,6.198v55.317
			c0,3.424,2.775,6.198,6.198,6.198h112.26c3.423,0,6.198-2.774,6.198-6.198v-55.316c0-3.423-2.775-6.198-6.198-6.198h-10.526
			v-1.685c0-21.325,17.343-38.677,38.665-38.689c0.009,0,0.018,0.002,0.025,0.002c0.209,0,0.416-0.013,0.624-0.034
			c0.023-0.002,0.047-0.007,0.07-0.01c0.175-0.02,0.349-0.045,0.521-0.079c0.054-0.011,0.107-0.026,0.161-0.037
			c0.141-0.033,0.28-0.065,0.419-0.109c0.062-0.018,0.121-0.041,0.181-0.061c0.129-0.044,0.257-0.088,0.383-0.141
			c0.061-0.024,0.12-0.054,0.179-0.081c0.122-0.055,0.242-0.111,0.361-0.173c0.06-0.031,0.118-0.066,0.176-0.101
			c0.113-0.064,0.226-0.131,0.335-0.203c0.062-0.041,0.12-0.085,0.181-0.127c0.1-0.072,0.199-0.145,0.298-0.224
			c0.063-0.052,0.125-0.107,0.187-0.161c0.065-0.058,0.134-0.109,0.198-0.171c0.021-0.021,0.04-0.044,0.063-0.065
			c0.065-0.063,0.126-0.132,0.188-0.198c0.079-0.084,0.158-0.167,0.231-0.254c0.05-0.057,0.095-0.118,0.141-0.18
			c0.078-0.1,0.157-0.2,0.229-0.305c0.036-0.053,0.067-0.109,0.102-0.163c0.073-0.116,0.147-0.231,0.213-0.35
			c0.031-0.058,0.058-0.118,0.087-0.178c0.061-0.118,0.122-0.236,0.174-0.357c0.031-0.076,0.057-0.154,0.086-0.23
			c0.041-0.109,0.086-0.219,0.121-0.329c0.027-0.09,0.05-0.182,0.073-0.273c0.027-0.104,0.058-0.204,0.079-0.309
			c0.02-0.092,0.032-0.186,0.047-0.278c0.019-0.108,0.038-0.217,0.05-0.324c0.01-0.088,0.014-0.177,0.02-0.266
			c0.008-0.118,0.016-0.235,0.018-0.354c0.001-0.024,0.004-0.048,0.004-0.072C265.49,200.185,265.482,200.121,265.48,200.056z
			 M175.056,172.706c3.593,0,6.515,2.922,6.515,6.514c0,3.593-2.923,6.515-6.515,6.515c-3.593,0-6.515-2.922-6.515-6.515
			C168.541,175.629,171.463,172.706,175.056,172.706z M224.934,259.219v15.263H175c-3.422,0-6.198,2.774-6.198,6.197
			s2.775,6.198,6.198,6.198h49.933v15.263h-99.865v-42.921H224.934z M208.208,245.138v1.685h-66.414v-1.685
			c0-23.869-16.458-43.961-38.62-49.54c20.122-23.858,40.569-58.174,57.154-96.201c3.016-6.916,5.861-13.844,8.53-20.758v82.721
			c-7.391,2.572-12.712,9.605-12.712,17.862c0,10.428,8.484,18.91,18.911,18.91c10.427,0,18.911-8.482,18.911-18.91
			c0-8.257-5.32-15.29-12.712-17.862V78.93c2.637,6.817,5.441,13.648,8.415,20.467c16.583,38.021,37.032,72.337,57.159,96.2
			C224.665,201.175,208.208,221.269,208.208,245.138z"/>
	</g>
</g>
</svg>
