<?xml version="1.0" encoding="utf-8"?>
<!-- Generator: Adobe Illustrator 16.0.0, SVG Export Plug-In . SVG Version: 6.00 Build 0)  -->
<!DOCTYPE svg PUBLIC "-//W3C//DTD SVG 1.1//EN" "http://www.w3.org/Graphics/SVG/1.1/DTD/svg11.dtd">
<svg version="1.1" id="Capa_1" xmlns="http://www.w3.org/2000/svg" xmlns:xlink="http://www.w3.org/1999/xlink" x="0px" y="0px"
	 width="350px" height="350px" viewBox="0 0 350 350" enable-background="new 0 0 350 350" xml:space="preserve">
<g>
	<g>
		<path d="M175,54.012c-66.718,0-120.822,54.104-120.822,120.822C53.846,241.552,108.283,295.988,175,295.988
			c66.386,0,120.823-54.437,120.823-121.154S241.387,54.012,175,54.012z M175,289.35c-63.066,0-114.184-51.117-114.184-114.184
			c0-63.067,51.117-114.184,114.184-114.184c63.067,0,114.183,51.117,114.183,114.184C289.184,237.9,237.735,289.35,175,289.35z"/>
	</g>
</g>
<g>
	<g>
		<path d="M175,74.923c-55.1,0-100.243,44.81-100.243,100.243c0,55.432,44.811,100.243,100.243,100.243
			c55.1,0,100.243-44.812,100.243-100.243C275.243,119.733,230.101,74.923,175,74.923z M175,268.438
			c-51.449,0-93.604-41.822-93.604-93.604c0-51.781,41.823-93.272,93.604-93.272c51.782,0,93.273,41.823,93.273,93.272
			S226.449,268.438,175,268.438z"/>
	</g>
</g>
<g>
	<g>
		<path d="M113.262,185.455c-5.975,0-10.954,4.979-10.954,10.954c0,5.976,4.979,10.954,10.954,10.954s10.954-4.979,10.954-10.954
			C124.215,190.435,119.236,185.455,113.262,185.455z M113.262,200.725c-2.323,0-4.315-1.991-4.315-4.315
			c0-2.323,1.992-4.314,4.315-4.314c2.324,0,4.315,1.991,4.315,4.314C117.577,198.733,115.585,200.725,113.262,200.725z"/>
	</g>
</g>
<g>
	<g>
		<path d="M214.169,225.287c2.654-2.987,4.314-6.971,4.314-11.285c0-9.626-7.966-17.593-17.593-17.593
			c-8.962,0-16.265,6.639-17.26,15.27c-1.328-0.664-2.988-0.997-4.647-0.997c-5.975,0-10.954,4.979-10.954,10.954
			c0,5.976,4.979,10.954,10.954,10.954c4.315,0,7.967-2.323,9.626-5.975c2.987,2.987,7.303,4.979,11.949,4.979
			c-0.663,1.327-0.995,2.654-0.995,4.313c0,5.976,4.979,10.954,10.954,10.954c5.975,0,10.953-4.979,10.953-10.954
			C221.803,230.93,218.815,226.946,214.169,225.287z M179.315,225.951c-2.323,0-4.315-1.991-4.315-4.315
			c0-2.323,1.992-4.314,4.315-4.314c2.324,0,4.315,1.991,4.315,4.314C183.631,223.96,181.64,225.951,179.315,225.951z
			 M201.223,224.955c-5.975,0-10.953-4.979-10.953-10.953s4.979-10.954,10.953-10.954c5.976,0,10.954,4.979,10.954,10.954
			C211.845,219.977,207.198,224.955,201.223,224.955z M211.181,240.225c-2.323,0-4.314-1.992-4.314-4.316
			c0-2.322,1.991-4.313,4.314-4.313s4.315,1.991,4.315,4.313C215.496,238.232,213.504,240.225,211.181,240.225z"/>
	</g>
</g>
<g>
	<g>
		<path d="M225.454,119.733c-5.975,0-10.954,4.979-10.954,10.954c0,5.975,4.979,10.954,10.954,10.954s10.953-4.979,10.953-10.954
			C236.407,124.712,231.429,119.733,225.454,119.733z M225.454,135.002c-2.323,0-4.315-1.992-4.315-4.315
			c0-2.324,1.992-4.315,4.315-4.315s4.314,1.991,4.314,4.315C229.769,133.011,227.777,135.002,225.454,135.002z"/>
	</g>
</g>
<g>
	<g>
		<path d="M179.315,90.192c-5.974,0-10.953,4.979-10.953,10.954c0,6.307,4.979,10.953,10.953,10.953
			c5.976,0,10.954-4.979,10.954-10.953C190.27,95.171,185.291,90.192,179.315,90.192z M179.315,105.792
			c-2.323,0-4.315-1.991-4.315-4.315c0-2.655,1.992-4.315,4.315-4.315c2.324,0,4.315,1.992,4.315,4.315
			C183.631,103.801,181.64,105.792,179.315,105.792z"/>
	</g>
</g>
<g>
	<g>
		<path d="M138.488,218.316c-5.975,0-10.954,4.979-10.954,10.954s4.979,10.954,10.954,10.954c5.975,0,10.954-4.979,10.954-10.954
			S144.463,218.316,138.488,218.316z M138.488,233.586c-2.323,0-4.315-1.991-4.315-4.315s1.992-4.315,4.315-4.315
			c2.324,0,4.315,1.991,4.315,4.315S140.812,233.586,138.488,233.586z"/>
	</g>
</g>
<g>
	<g>
		<path d="M233.088,152.595c-5.974,0-10.953,4.979-10.953,10.954s4.979,10.954,10.953,10.954c5.975,0,10.954-4.979,10.954-10.954
			C243.71,157.574,239.063,152.595,233.088,152.595z M233.088,167.864c-2.323,0-4.314-1.992-4.314-4.315s1.991-4.315,4.314-4.315
			c2.324,0,4.315,1.991,4.315,4.315C237.071,165.872,235.412,167.864,233.088,167.864z"/>
	</g>
</g>
<g>
	<g>
		<path d="M128.531,127.036c-5.975,0-10.954,4.979-10.954,10.954c0,6.307,4.979,10.954,10.954,10.954
			c5.975,0,10.954-4.979,10.954-10.954C139.484,132.015,134.505,127.036,128.531,127.036z M128.531,142.637
			c-2.324,0-4.315-1.992-4.315-4.315c0-2.655,1.992-4.315,4.315-4.315c2.323,0,4.315,1.991,4.315,4.315
			S130.854,142.637,128.531,142.637z"/>
	</g>
</g>
<g>
	<g>
		<path d="M185.954,142.969c0-5.975-4.979-10.954-10.954-10.954c-5.975,0-10.954,4.979-10.954,10.954c0,0.664,0,1.328,0.332,1.992
			c-0.664,0-1.328-0.332-1.992-0.332c-7.302,0-13.277,5.975-13.277,13.277c0,7.302,5.975,13.277,13.277,13.277
			c6.97,0.332,12.945-5.643,12.945-12.945c0-1.659-0.332-2.987-0.664-4.315H175C180.976,153.922,185.954,148.944,185.954,142.969z
			 M162.056,164.876c-3.651,0-6.639-2.987-6.639-6.639c0-3.651,2.988-6.638,6.639-6.638c3.651,0,6.638,2.987,6.638,6.638
			C168.694,161.889,165.707,164.876,162.056,164.876z M170.686,143.301c0-2.655,1.66-4.315,4.315-4.315
			c2.324,0,4.315,1.991,4.315,4.315c0,2.323-1.991,4.315-4.315,4.315C172.677,147.616,170.686,145.624,170.686,143.301z"/>
	</g>
</g>
</svg>
