<?xml version="1.0" encoding="utf-8"?>
<!-- Generator: Adobe Illustrator 16.0.0, SVG Export Plug-In . SVG Version: 6.00 Build 0)  -->
<!DOCTYPE svg PUBLIC "-//W3C//DTD SVG 1.1//EN" "http://www.w3.org/Graphics/SVG/1.1/DTD/svg11.dtd">
<svg version="1.1" id="Capa_1" xmlns="http://www.w3.org/2000/svg" xmlns:xlink="http://www.w3.org/1999/xlink" x="0px" y="0px"
	 width="350px" height="350px" viewBox="0 0 350 350" enable-background="new 0 0 350 350" xml:space="preserve">
<rect x="78.393" y="236.996" transform="matrix(-0.7071 -0.7071 0.7071 -0.7071 -16.455 501.7836)" fill="#556080" width="34.608" height="34.608"/>
<g>
	
		<rect x="55.295" y="265.226" transform="matrix(-0.7071 0.7071 -0.7071 -0.7071 319.2747 424.1623)" fill="#35495E" width="32.994" height="25.956"/>
	<path fill="#35495E" d="M159.103,203.874v-8.652l4.326-4.326h8.652l2.687,2.687l8.651-8.651l-2.686-2.688v-8.651l4.326-4.326h8.651
		l2.687,2.686l8.652-8.652l-2.687-2.687v-8.652l4.326-4.326h8.652l2.686,2.687l8.652-8.652l-2.687-2.687v-8.652l4.327-4.326h8.651
		l2.687,2.686l8.651-8.652l-2.686-2.687v-8.652l4.326-4.326h8.651l2.687,2.687l35.764-35.764c2.656-2.656,2.656-6.96,0-9.617
		l-8.734-8.738c-2.656-2.657-6.961-2.657-9.616,0L98.755,232.889l18.355,18.355l44.679-44.684L159.103,203.874z"/>
</g>
<path fill="#556080" d="M139.636,244.971c-1.107,0-2.215-0.423-3.059-1.268l-30.282-30.282c-1.692-1.691-1.692-4.425,0-6.116
	c1.691-1.692,4.425-1.692,6.117,0l30.282,30.282c1.691,1.691,1.691,4.425,0,6.116C141.851,244.548,140.743,244.971,139.636,244.971z
	"/>
<path fill="#556080" d="M152.614,231.993c-1.107,0-2.215-0.424-3.058-1.268l-30.283-30.282c-1.691-1.692-1.691-4.426,0-6.117
	s4.426-1.691,6.117,0l30.282,30.282c1.691,1.691,1.691,4.426,0,6.117C154.829,231.569,153.721,231.993,152.614,231.993z"/>
<path fill="#556080" d="M284.566,104.379c-3.322,0-6.645-1.263-9.175-3.79l-12.234-12.242c-1.691-1.691-1.691-4.426,0-6.117
	s4.426-1.691,6.117,0l12.234,12.238c1.695,1.687,4.434,1.683,6.121-0.004c1.687-1.683,1.687-4.43-0.005-6.117l-12.233-12.234
	c-1.692-1.691-1.692-4.426,0-6.117c1.691-1.691,4.425-1.691,6.117,0l12.237,12.234c5.058,5.062,5.058,13.293,0.005,18.355
	C291.216,103.111,287.894,104.379,284.566,104.379z"/>
<path fill="#8697CB" d="M235.704,109.968L218.4,92.664c-1.692-1.691-4.426-1.691-6.117,0l-64.891,64.891
	c-1.692,1.691-1.692,4.425,0,6.117l17.304,17.305c0.843,0.843,1.951,1.267,3.059,1.267c1.107,0,2.215-0.424,3.058-1.267
	c1.691-1.692,1.691-4.427,0-6.118l-14.246-14.246l58.774-58.773l14.245,14.246c0.844,0.844,1.951,1.268,3.059,1.268
	s2.215-0.424,3.059-1.268C237.396,114.394,237.396,111.656,235.704,109.968z"/>
<polygon fill="#E4C05C" points="258.602,121.679 262.929,117.353 262.929,108.701 258.602,104.375 249.95,104.375 245.624,108.701 
	245.624,117.353 249.95,121.679 "/>
<polygon fill="#E4C05C" points="236.972,143.309 241.298,138.983 241.298,130.331 236.972,126.005 228.32,126.005 223.993,130.331 
	223.993,138.983 228.32,143.309 "/>
<polygon fill="#E4C05C" points="215.342,164.939 219.668,160.613 219.668,151.961 215.342,147.635 206.689,147.635 202.363,151.961 
	202.363,160.613 206.689,164.939 "/>
<polygon fill="#E4C05C" points="193.711,186.569 198.038,182.243 198.038,173.592 193.711,169.266 185.06,169.266 180.733,173.592 
	180.733,182.243 185.06,186.569 "/>
<polygon fill="#E4C05C" points="172.081,208.2 176.407,203.874 176.407,195.222 172.081,190.896 163.429,190.896 159.103,195.222 
	159.103,203.874 163.429,208.2 "/>
</svg>
