<?xml version="1.0" encoding="utf-8"?>
<!-- Generator: Adobe Illustrator 16.0.0, SVG Export Plug-In . SVG Version: 6.00 Build 0)  -->
<!DOCTYPE svg PUBLIC "-//W3C//DTD SVG 1.1//EN" "http://www.w3.org/Graphics/SVG/1.1/DTD/svg11.dtd">
<svg version="1.1" id="Capa_1" xmlns="http://www.w3.org/2000/svg" xmlns:xlink="http://www.w3.org/1999/xlink" x="0px" y="0px"
	 width="350px" height="350px" viewBox="0 0 350 350" enable-background="new 0 0 350 350" xml:space="preserve">
<g>
	<path fill="#F0785A" d="M183.788,166.044h118.315c-4.324-63.371-54.943-113.991-118.315-118.314V166.044z"/>
	<path fill="#F0C419" d="M268.979,261.196c19.085-20.698,31.425-47.715,33.459-77.574H191.404L268.979,261.196z"/>
	<path fill="#556080" d="M166.211,171.195V47.729C99.935,52.251,47.563,107.41,47.563,174.833c0,32.026,11.843,61.271,31.35,83.661
		L166.211,171.195z"/>
	<path fill="#71C285" d="M172.425,189.836l-81.085,81.085c22.39,19.507,51.634,31.35,83.661,31.35
		c30.718,0,58.867-10.895,80.861-28.998L172.425,189.836z"/>
</g>
</svg>
