<?xml version="1.0" encoding="utf-8"?>
<!-- Generator: Adobe Illustrator 16.0.0, SVG Export Plug-In . SVG Version: 6.00 Build 0)  -->
<!DOCTYPE svg PUBLIC "-//W3C//DTD SVG 1.1//EN" "http://www.w3.org/Graphics/SVG/1.1/DTD/svg11.dtd">
<svg version="1.1" id="Layer_1" xmlns="http://www.w3.org/2000/svg" xmlns:xlink="http://www.w3.org/1999/xlink" x="0px" y="0px"
	 width="350px" height="350px" viewBox="0 0 350 350" enable-background="new 0 0 350 350" xml:space="preserve">
<g id="XMLID_1253_">
	<rect id="XMLID_1254_" x="50.192" y="114.544" fill="#FFAD41" width="225.702" height="145.095"/>
	<path id="XMLID_1255_" fill="#FF9811" d="M114.679,114.544c-22.336,0-51.447,10.098-64.755,25.974v119.121h121.181V114.544H114.679
		z"/>
	<rect id="XMLID_1256_" x="49.923" y="114.544" fill="#804C09" width="225.971" height="56.829"/>
	<rect id="XMLID_1257_" x="49.923" y="114.544" fill="#402604" width="121.181" height="56.829"/>
	<rect id="XMLID_1258_" x="49.923" y="170.97" fill="#FF5023" width="225.971" height="32.243"/>
	<rect id="XMLID_1259_" x="49.923" y="170.97" fill="#BD3C1A" width="121.181" height="32.243"/>
	<path id="XMLID_1260_" fill="#804C09" d="M211.662,154.58H50.192v16.39h12.101c6.677,0,12.091,5.414,12.091,12.091v36.273
		c0,6.678,5.414,12.092,12.091,12.092c6.678,0,12.091-5.414,12.091-12.092v-32.243c0-6.678,5.414-12.091,12.091-12.091
		c6.677,0,12.091,5.413,12.091,12.091v24.183c0,6.678,5.414,12.091,12.091,12.091c6.678,0,12.091-5.413,12.091-12.091v-24.183
		c0-6.678,5.414-12.091,12.091-12.091c6.678,0,12.092,5.413,12.092,12.091v32.243c0,6.678,5.413,12.092,12.091,12.092
		c6.677,0,12.091-5.414,12.091-12.092v-36.273c0-6.677,5.414-12.091,12.092-12.091h7.66
		C214.485,165.313,213.333,159.831,211.662,154.58z"/>
	<path id="XMLID_1261_" fill="#402604" d="M171.104,114.544H49.923v56.426h12.37c6.677,0,12.091,5.414,12.091,12.091v36.273
		c0,6.678,5.414,12.092,12.091,12.092c6.678,0,12.091-5.414,12.091-12.092v-32.243c0-6.678,5.414-12.091,12.091-12.091
		c6.677,0,12.091,5.413,12.091,12.091v24.183c0,6.678,5.414,12.091,12.091,12.091c6.678,0,12.091-5.413,12.091-12.091v-24.183
		c0-6.678,5.414-12.091,12.091-12.091c6.678,0,12.092,5.413,12.092,12.091L171.104,114.544z"/>
	<rect id="XMLID_1262_" x="50.192" y="243.517" fill="#BD720D" width="249.885" height="24.183"/>
	<rect id="XMLID_17_" x="235.591" y="114.544" fill="#BD720D" width="64.486" height="153.155"/>
	<rect id="XMLID_1263_" x="50.192" y="243.517" fill="#804C09" width="120.912" height="24.183"/>
	<circle id="XMLID_1264_" fill="#BD720D" cx="267.833" cy="114.544" r="32.243"/>
</g>
</svg>
