<?xml version="1.0" encoding="utf-8"?>
<!-- Generator: Adobe Illustrator 16.0.0, SVG Export Plug-In . SVG Version: 6.00 Build 0)  -->
<!DOCTYPE svg PUBLIC "-//W3C//DTD SVG 1.1//EN" "http://www.w3.org/Graphics/SVG/1.1/DTD/svg11.dtd">
<svg version="1.1" id="Layer_1" xmlns="http://www.w3.org/2000/svg" xmlns:xlink="http://www.w3.org/1999/xlink" x="0px" y="0px"
	 width="350px" height="350px" viewBox="0 0 350 350" enable-background="new 0 0 350 350" xml:space="preserve">
<g id="XMLID_1664_">
	<path id="XMLID_1665_" fill="#FFDA44" d="M267.964,204.567c0.033-0.839,0.057-1.68,0.057-2.525
		c0-42.272-41.647-76.542-93.021-76.542s-93.02,34.27-93.02,76.542c0,0.846,0.022,1.687,0.056,2.525H267.964z"/>
	<path id="XMLID_1666_" fill="#FFAD41" d="M175,204.567V125.5c-51.373,0-93.02,34.27-93.02,76.542c0,0.846,0.022,1.687,0.056,2.525
		H175z"/>
	<path id="XMLID_1667_" fill="#FF9811" d="M274.664,197.923v-26.577c0-7.339-5.949-13.289-13.288-13.289
		c-14.396,0-14.396,10.47-28.794,10.47c-14.396,0-14.396-10.47-28.793-10.47c-14.395,0-14.395,10.47-28.789,10.47
		c-14.395,0-14.395-10.47-28.79-10.47c-14.396,0-14.396,10.47-28.793,10.47c-14.397,0-14.397-10.47-28.794-10.47
		c-7.339,0-13.289,5.949-13.289,13.289v26.577H274.664z"/>
	<path id="XMLID_1668_" fill="#BD720D" d="M175,168.527c-14.395,0-14.395-10.47-28.79-10.47c-14.396,0-14.396,10.47-28.793,10.47
		c-14.397,0-14.397-10.47-28.794-10.47c-7.339,0-13.289,5.949-13.289,13.289v26.577H175C175,197.923,175,178.211,175,168.527z"/>
	<path id="XMLID_1669_" fill="#CDCDD0" d="M281.309,177.99H68.691c-5.504,0-9.967,4.462-9.967,9.966
		c0,5.505,4.462,9.967,9.967,9.967h6.644c0,14.679,11.899,26.577,26.577,26.577h146.174c14.679,0,26.577-11.898,26.577-26.577h6.645
		c5.504,0,9.967-4.462,9.967-9.967C291.275,182.452,286.813,177.99,281.309,177.99z"/>
	<path id="XMLID_1670_" fill="#ACABB1" d="M175,177.99H68.691c-5.504,0-9.967,4.462-9.967,9.966c0,5.505,4.462,9.967,9.967,9.967
		h6.644c0,14.679,11.899,26.577,26.577,26.577H175V177.99z"/>
	<path id="XMLID_1671_" fill="#BD720D" d="M138.457,145.433c5.504,0,9.966-4.462,9.966-9.967v-6.791
		c-7.022,1.721-13.699,4.101-19.919,7.061C128.647,141.115,133.043,145.433,138.457,145.433z"/>
	<path id="XMLID_1672_" fill="#FFAD41" d="M211.544,145.433c5.412,0,9.808-4.318,9.953-9.697c-6.22-2.96-12.896-5.34-19.92-7.061
		v6.791C201.577,140.971,206.039,145.433,211.544,145.433z"/>
	<path id="XMLID_1673_" fill="#FFAD41" d="M175,145.433c5.504,0,9.967-4.462,9.967-9.967v-9.528c-3.275-0.287-6.6-0.438-9.967-0.438
		s-6.691,0.151-9.966,0.438v9.528C165.034,140.971,169.496,145.433,175,145.433z"/>
	<path id="XMLID_1674_" fill="#BD720D" d="M175,145.433c0-4.651,0-8.97,0-19.933c-3.367,0-6.691,0.151-9.966,0.438v9.528
		C165.034,140.971,169.496,145.433,175,145.433z"/>
</g>
</svg>
