<?xml version="1.0" encoding="utf-8"?>
<!-- Generator: Adobe Illustrator 16.0.0, SVG Export Plug-In . SVG Version: 6.00 Build 0)  -->
<!DOCTYPE svg PUBLIC "-//W3C//DTD SVG 1.1//EN" "http://www.w3.org/Graphics/SVG/1.1/DTD/svg11.dtd">
<svg version="1.1" id="Layer_1" xmlns="http://www.w3.org/2000/svg" xmlns:xlink="http://www.w3.org/1999/xlink" x="0px" y="0px"
	 width="350px" height="350px" viewBox="0 0 350 350" enable-background="new 0 0 350 350" xml:space="preserve">
<g>
	<g>
		<g>
			<g>
				<path fill="#211915" d="M50.846,147.965c-11.002,2.137-11.914,15.356-10.019,24.329c1.033,4.891,4.207,8.222,8.547,10.406
					c2.807,1.411,5.732,2.364,8.381,4.101c3.97,2.604,6.311,6.764,7.94,11.08c1.648,4.365,3.712,8.428,8.282,10.307
					c6.583,2.706,13.331,1.55,20.226,1.043c8.107-0.597,15.587,2.003,21.878,7.053c4.924,3.953,8.937,8.181,14.965,10.467
					c5.16,1.956,11.152,1.681,16.328,0.028c2.514-0.803,4.834-2.122,7.346-2.944c4.658-1.524,9.508,0.902,13.61,2.877
					c11.635,5.601,22.98,9.116,35.095,2.834c5.493-2.849,10.269-6.815,16.149-8.926c7.009-2.516,13.734,1.634,20.752,0.479
					c5.8-0.955,10.673-3.871,15.262-7.44c6.308-4.906,12.011-9.155,19.759-11.472c11.949-3.572,24.635-4.555,31.732-16.218
					c5.835-9.589,3.639-23.117-5.805-29.305c-0.874-0.573-1.927,0.772-1.121,1.454c12.567,10.648,8.281,29.139-5.898,36.008
					c-5.63,2.728-12.146,3.621-18.157,5.168c-6.301,1.621-11.698,4.306-16.889,8.224c-5.703,4.304-10.861,9.004-17.963,10.809
					c-6.881,1.748-13.929-2.155-21.018-0.587c-5.211,1.153-9.868,4.593-14.304,7.37c-7.567,4.737-14.671,6.575-23.552,4.519
					c-6.722-1.557-12.562-5.409-18.988-7.758c-5.172-1.89-9.627-0.53-14.427,1.608c-7.569,3.374-15.803,2.574-22.739-1.876
					c-5.986-3.841-10.191-9.281-16.822-12.257c-5.417-2.43-11.224-2.743-17.052-2.281c-8.648,0.685-18.638,2.291-23.389-6.927
					c-2.781-5.396-3.947-10.066-8.748-14.192c-5.776-4.966-13.93-4.813-16.938-12.857c-3.011-8.05-1.672-21.201,7.943-23.79
					C52.083,149.064,51.711,147.797,50.846,147.965L50.846,147.965z"/>
			</g>
		</g>
		<g>
			<g>
				<path fill="#211915" d="M70.211,205.46c2.9,10.254,7.768,19.949,15.751,27.174c9.014,8.157,22.334,10.119,33.841,12.279
					c28.973,5.441,59.863,7.668,89.241,5.047c16.376-1.461,32.987-6.346,48.354-12.013c5.836-2.152,9.776-4.515,14.149-8.777
					c8.868-8.646,17.732-19.985,21.382-31.96c0.234-0.769-0.857-1.186-1.264-0.532c-6.805,10.927-12.675,21.502-21.858,30.753
					c-4.481,4.514-8.843,6.664-14.915,8.873c-14.021,5.103-29.115,9.536-43.983,11.2c-27.462,3.072-56.068,0.685-83.333-3.241
					c-12.242-1.762-26.716-3.511-37.272-10.365c-9.826-6.38-15.758-17.837-19.1-28.711C71.011,204.553,70.029,204.818,70.211,205.46
					L70.211,205.46z"/>
			</g>
		</g>
		<g>
			<g>
				<path fill="#211915" d="M52.227,157.948c-1.457,5.379,1.437,9.746,5.841,12.59c4.288,2.769,5.95,5.418,7.83,10.069
					c0.798,1.974,1.897,4.313,3.732,5.556c2.511,1.699,5.037,1.877,8.014,1.752c2.137-0.091,4.12-0.314,6.256,0.078
					c2.995,0.549,4.381,4.463,5.742,6.716c3.866,6.401,9.757,6.75,16.504,5.924c4.961-0.606,7.854,1.407,10.858,5.095
					c2.142,2.63,4.476,4.083,7.803,4.68c9.608,1.725,17.172-7.516,26.744-1.926c7.008,4.093,13.117,5.57,20.909,2.322
					c4.627-1.93,8.114-3.163,13.134-3.45c2.632-0.15,4.913-0.792,6.577-2.889c0.496-0.627-0.12-1.607-0.896-1.16
					c-3.154,1.82-6.401,1.831-9.922,2.054c-2.959,0.188-5.637,1.281-8.311,2.472c-5.559,2.476-10.668,3.146-16.354,0.579
					c-2.79-1.259-5.115-3.215-8.018-4.291c-6.183-2.293-13.265,2.125-19.149,3.451c-9.415,2.12-10.93-7.878-18.733-9.559
					c-2.442-0.526-5.162,0.092-7.593,0.397c-5.583,0.704-9.235-1.486-12.128-6.243c-3.244-5.334-5.615-7.22-12.06-6.834
					c-3.983,0.238-7.486,0.254-9.838-3.511c-1.494-2.391-2.148-5.271-3.542-7.737c-1.206-2.133-3.217-3.47-5.281-4.663
					c-4.702-2.715-7.083-5.861-7.474-11.384C52.846,157.676,52.328,157.576,52.227,157.948L52.227,157.948z"/>
			</g>
		</g>
		<g>
			<g>
				<path fill="#211915" d="M166.641,152.68c0.064,0,0.064-0.1,0-0.1S166.576,152.68,166.641,152.68L166.641,152.68z"/>
			</g>
		</g>
		<g>
			<g>
				<path fill="#211915" d="M163.324,149.478c3.777,9.005,8.697,17.565,13.426,26.096c2.512,4.532,5.071,9.04,7.617,13.553
					c2.192,3.886,4.049,8.518,7.245,11.661c0.339,0.334,0.896-0.002,0.783-0.456c-0.945-3.793-3.44-7.129-5.336-10.527
					c-2.526-4.527-5.021-9.071-7.471-13.64c-4.883-9.104-9.489-18.485-15.044-27.202
					C164.156,148.354,163.02,148.752,163.324,149.478L163.324,149.478z"/>
			</g>
		</g>
		<g>
			<g>
				<path fill="#211915" d="M163.845,149.411c13.338,7.595,27.179,13.625,41.544,19.012c7.771,2.914,15.622,5.615,23.477,8.294
					c8.084,2.757,16.37,6.217,24.724,7.991c1.149,0.244,2.011-1.438,0.84-1.992c-6.759-3.201-14.303-5.117-21.389-7.497
					c-7.904-2.654-15.81-5.293-23.663-8.095c-15.269-5.449-30.44-11.524-45.106-18.441
					C163.786,148.454,163.365,149.138,163.845,149.411L163.845,149.411z"/>
			</g>
		</g>
		<g>
			<g>
				<path fill="#211915" d="M174.545,169.051c10.598,5.818,21.709,10.757,32.729,15.71c10.536,4.735,21.083,9.701,31.928,13.698
					c1.416,0.521,2.413-1.835,1.029-2.441c-10.515-4.613-21.289-8.621-31.827-13.19c-11.13-4.826-22.063-10.112-33.221-14.869
					C174.456,167.647,173.811,168.647,174.545,169.051L174.545,169.051z"/>
			</g>
		</g>
		<g>
			<g>
				<path fill="#211915" d="M178.422,178.632c7.765,5.393,17.753,8.66,26.422,12.359c4.063,1.733,8.148,3.411,12.254,5.038
					c4.336,1.718,8.975,4.089,13.599,4.75c0.956,0.138,1.604-1.062,0.686-1.627c-3.602-2.222-7.978-3.322-11.92-4.842
					c-4.592-1.769-9.157-3.607-13.709-5.475c-8.815-3.616-17.671-8.794-26.853-11.339
					C178.191,177.3,177.861,178.243,178.422,178.632L178.422,178.632z"/>
			</g>
		</g>
		<g>
			<g>
				<path fill="#211915" d="M190.635,206.237c11.109,1.456,23.334-0.586,34.136-3.206c5.823-1.413,11.525-3.305,17.141-5.384
					c4.979-1.845,10.707-3.751,14.896-7.042c0.404-0.316-0.035-0.946-0.479-0.822c-5.102,1.422-9.912,4.302-14.878,6.195
					c-5.041,1.923-10.236,3.397-15.476,4.665c-11.728,2.836-23.449,3.243-35.341,4.633
					C190.013,205.349,190.021,206.157,190.635,206.237L190.635,206.237z"/>
			</g>
		</g>
		<g>
			<g>
				<path fill="#211915" d="M298.035,152.177c-4.836,2.548-8.698,5.987-11.747,10.523c-2.034,3.028-2.891,6.572-5.297,9.385
					c-3.197,3.737-9.106,4.434-13.625,5.008c-3.944,0.502-10.162,0.609-12.743,4.308c-1.858,2.664-1.683,6.319,0.666,8.734
					c1.85,1.902,4.934,3.604,7.567,1.982c2.839-1.746,5.077-3.75,8.389-4.734c3.388-1.007,7.02-1.115,10.463-1.904
					c3.593-0.824,8.034-2.959,9.435-6.655c1.091-2.879,1.223-5.937,2.154-8.861c1.049-3.293,3.544-6.225,5.447-9.055
					c6.09-9.058,3.006-17.775-6.828-22.241c-2.676-1.215-5.515-1.681-8.119-3.116c-2.938-1.62-5.365-5.266-7.736-7.627
					c-3.588-3.572-8.268-7.191-13.464-7.801c-4.145-0.486-8.293,0.078-12.432-0.49c-3.585-0.492-6.448-3.221-9.037-5.506
					c-4.055-3.581-7.83-5.75-13.32-6.115c-7.484-0.499-14.349,2.259-20.763-3.111c-4.499-3.766-9.012-4.814-14.813-3.938
					c-6.804,1.028-10.654,4.975-17.824,2.714c-5.42-1.709-10.09-4.761-15.954-4.698c-4.744,0.051-9.098,3.293-12.921,5.699
					c-3.027,1.905-6.048,3.352-9.669,3.605c-3.712,0.259-7.364-1.306-11.032-1.618c-5.499-0.468-9.168,1.361-13.239,4.885
					c-6.26,5.42-12.189,6.303-20.201,6.928c-4.836,0.377-9.519,1.133-13.644,3.828c-4.931,3.221-6.658,9.561-10.219,13.965
					c-3.57,4.416-10.12,4.669-14.167,8.607c-3.041,2.959-3.322,7.813-2.388,11.665c0.903,3.722,4.066,6.331,7.476,7.687
					c2.606,1.037,5.317,1.781,7.862,2.97c3.834,1.792,4.078,5.513,5.201,9.044c1.266,3.982,5.015,4.082,8.499,3.441
					c10.057-1.85,9.835,9.059,16.224,12.864c1.776,1.058,4.382,0.803,6.315,0.69c4.115-0.24,7.988-0.626,11.875,1.164
					c5.281,2.432,7.042,7.365,13.441,7.666c5.59,0.263,10.664-3.485,16.396-3.382c5.736,0.104,9.919,4.654,15.423,5.561
					c3.564,0.588,7.039-1.506,9.911-3.312c2.381-1.497,4.588-3.001,7.269-3.945c2.534-0.893,5.458-0.449,7.983,0.092
					c1.985,0.426,9.073,2.616,6.278,6.601c-0.533,0.76,0.701,1.716,1.288,0.994c1.707-2.101,1.652-5.135-0.741-6.844
					c-4.853-3.465-11.129-4.768-16.8-2.771c-6.537,2.301-10.728,9-18.399,5.645c-5.314-2.324-9.632-5.398-15.806-4.383
					c-3.402,0.56-6.567,1.828-9.868,2.78c-5.099,1.471-8.229-1.104-11.665-4.267c-4.369-4.021-9.245-4.566-14.984-4.225
					c-4.577,0.273-8.087-0.416-10.287-5.009c-1.148-2.398-2.878-4.379-4.882-6.093c-4.812-4.116-14.352-0.393-15.98-7.5
					c-2.669-11.649-22.496-7.013-19.758-21.59c1.302-6.93,9.55-6.707,14.011-10.446c4.859-4.072,6.488-10.435,10.954-14.83
					c4.663-4.589,12.876-4.054,18.894-4.625c5.26-0.499,9.784-1.916,13.955-5.194c3.44-2.704,6.027-5.765,10.678-6.297
					c3.458-0.396,7.237,0.929,10.639,1.477c5.426,0.875,9.857-0.917,14.408-3.688c5.43-3.307,10.003-6.409,16.644-4.751
					c4.92,1.229,9.328,4.542,14.469,4.968c5.351,0.444,9.9-2.521,14.987-3.712c5.403-1.266,9.619,0.948,13.643,4.312
					c1.753,1.466,3.675,2.244,5.854,2.813c4.922,1.284,10.425-0.109,15.426-0.084c6.971,0.035,11.005,5.231,16.176,9
					c4.966,3.619,11.059,2.538,16.805,2.713c7.556,0.23,13.272,6.605,18.056,11.708c3.986,4.253,8.281,4.894,13.417,7.195
					c3.779,1.693,6.755,4.723,7.919,8.711c1.059,3.625-1.182,7.354-3.033,10.281c-2.918,4.616-5.684,8.35-6.544,13.864
					c-1.431,9.164-9.097,10.084-16.747,11.325c-2.647,0.429-5.094,1.202-7.468,2.428c-3.896,2.012-6.821,5.771-10.537,0.738
					c-6.694-9.068,13.971-9.876,18.575-11.058c4.641-1.192,8.001-3.995,10.152-8.205c3.488-6.827,7.049-12.181,13.99-15.978
					C299.166,152.76,298.636,151.861,298.035,152.177L298.035,152.177z"/>
			</g>
		</g>
		<g>
			<g>
				<path fill="#211915" d="M59.596,162.802c4.241-10.415,13.2-17.968,22.203-24.3c8.921-6.274,18.97-10.686,29.32-14
					c23.789-7.617,49.979-9.645,74.833-8.755c36.298,1.3,79.256,13.875,101.699,44.404c0.894,1.215,2.934,0.095,2.064-1.207
					c-10.143-15.188-26.898-26.095-43.688-32.732c-19.654-7.771-40.817-12.139-61.926-12.871
					c-25.939-0.898-53.532,1.852-78.104,10.512c-10.443,3.681-20.236,8.981-29.03,15.701c-7.621,5.823-16.224,13.222-18.615,22.905
					C58.148,163.287,59.29,163.552,59.596,162.802L59.596,162.802z"/>
			</g>
		</g>
		<g>
			<g>
				<path fill="#211915" d="M173.38,154.342c-0.04,4.705,1.119,9.56,1.627,14.245c0.061,0.559,0.946,0.56,0.879,0
					c-0.56-4.664-0.659-9.796-1.965-14.318C173.834,153.97,173.382,154.029,173.38,154.342L173.38,154.342z"/>
			</g>
		</g>
		<g>
			<g>
				<path fill="#211915" d="M170.016,152.466c-0.108,1.656,0.05,3.288,0.187,4.938c0.119,1.43,0.123,2.934,0.561,4.305
					c0.106,0.332,0.539,0.242,0.576-0.078c0.184-1.609-0.148-3.32-0.287-4.933c-0.124-1.449-0.23-2.877-0.53-4.301
					C170.459,152.098,170.034,152.189,170.016,152.466L170.016,152.466z"/>
			</g>
		</g>
		<g>
			<g>
				<path fill="#211915" d="M167.527,150.909c-0.294,0.937-0.34,1.91-0.313,2.886c0.024,0.858,0.044,1.836,0.611,2.516
					c0.077,0.093,0.209,0.028,0.245-0.064c0.294-0.768,0.088-1.647,0.032-2.452c-0.067-0.943-0.048-1.892-0.171-2.831
					C167.901,150.743,167.601,150.673,167.527,150.909L167.527,150.909z"/>
			</g>
		</g>
		<g>
			<g>
				<path fill="#211915" d="M177.76,155.878c-1.088,4.259-0.483,9.726,0.352,14.004c0.089,0.455,0.832,0.351,0.806-0.109
					c-0.14-2.486-0.444-4.956-0.555-7.445c-0.097-2.151,0.087-4.323-0.274-6.45C178.059,155.708,177.8,155.724,177.76,155.878
					L177.76,155.878z"/>
			</g>
		</g>
		<g>
			<g>
				<path fill="#211915" d="M180.997,157.629c-0.486,4.714,0.029,10.215,1.019,14.849c0.084,0.393,0.697,0.299,0.69-0.093
					c-0.08-4.81-0.378-10.083-1.214-14.822C181.438,157.261,181.024,157.369,180.997,157.629L180.997,157.629z"/>
			</g>
		</g>
		<g>
			<g>
				<path fill="#211915" d="M185.591,159.585c-0.949,4.509-0.413,9.477,0.294,13.992c0.074,0.47,0.867,0.359,0.829-0.112
					c-0.373-4.584-0.214-9.28-0.777-13.833C185.914,159.451,185.636,159.375,185.591,159.585L185.591,159.585z"/>
			</g>
		</g>
		<g>
			<g>
				<path fill="#211915" d="M189.779,161.421c-0.449,4.742,0.188,9.624,0.756,14.334c0.072,0.596,1.011,0.614,0.949,0
					c-0.478-4.784-0.506-9.647-1.21-14.401C190.229,161.053,189.804,161.161,189.779,161.421L189.779,161.421z"/>
			</g>
		</g>
		<g>
			<g>
				<path fill="#211915" d="M194.072,162.707c-0.734,4.855,0.009,10.407,1.155,15.165c0.124,0.512,1.001,0.411,0.933-0.126
					c-0.635-4.979-0.89-10.103-1.738-15.039C194.393,162.535,194.099,162.531,194.072,162.707L194.072,162.707z"/>
			</g>
		</g>
		<g>
			<g>
				<path fill="#211915" d="M198.358,164.937c-0.526,4.693,0.571,10.012,1.046,14.704c0.056,0.547,0.906,0.563,0.867,0
					c-0.176-2.531-0.398-5.06-0.607-7.589c-0.192-2.328-0.107-4.97-0.995-7.157C198.601,164.726,198.379,164.755,198.358,164.937
					L198.358,164.937z"/>
			</g>
		</g>
		<g>
			<g>
				<path fill="#211915" d="M203.242,166.328c-0.902,4.84,0.083,10.582,0.836,15.414c0.069,0.445,0.81,0.339,0.782-0.105
					c-0.305-4.939-0.069-10.505-1.233-15.308C203.582,166.143,203.279,166.131,203.242,166.328L203.242,166.328z"/>
			</g>
		</g>
		<g>
			<g>
				<path fill="#211915" d="M207.733,168.623c-0.751,4.975-0.085,10.3,0.576,15.255c0.064,0.481,0.823,0.503,0.773,0
					c-0.496-5.054-0.234-10.122-0.659-15.162C208.393,168.349,207.796,168.205,207.733,168.623L207.733,168.623z"/>
			</g>
		</g>
		<g>
			<g>
				<path fill="#211915" d="M211.808,170.424c-0.122,5.026,0.52,10.017,1.14,14.997c0.076,0.611,1.043,0.625,0.973,0
					c-0.565-5.019-0.848-10.071-1.617-15.063C212.258,170.067,211.814,170.151,211.808,170.424L211.808,170.424z"/>
			</g>
		</g>
		<g>
			<g>
				<path fill="#211915" d="M216.325,171.255c-0.712,5.511,0.224,11.257,1.248,16.677c0.099,0.522,0.877,0.296,0.791-0.219
					c-0.914-5.483-0.877-10.952-1.418-16.458C216.906,170.851,216.376,170.861,216.325,171.255L216.325,171.255z"/>
			</g>
		</g>
		<g>
			<g>
				<path fill="#211915" d="M220.991,173.122c-0.465,5.238,0.569,10.77,0.932,16.008c0.038,0.554,0.902,0.56,0.867,0
					c-0.332-5.261-0.102-10.934-1.385-16.064C221.345,172.822,221.012,172.896,220.991,173.122L220.991,173.122z"/>
			</g>
		</g>
		<g>
			<g>
				<path fill="#211915" d="M226.541,174.738c-0.8,5.66-0.416,11.408,0.265,17.062c0.073,0.607,1.035,0.614,0.961,0
					c-0.688-5.671-0.657-11.31-0.823-17.007C226.937,174.571,226.574,174.501,226.541,174.738L226.541,174.738z"/>
			</g>
		</g>
		<g>
			<g>
				<path fill="#211915" d="M231.406,176.901c-0.18,5.934,0.924,12.112,1.457,18.027c0.055,0.609,1.007,0.621,0.961,0
					c-0.438-5.93-0.536-12.308-2.004-18.083C231.761,176.609,231.413,176.667,231.406,176.901L231.406,176.901z"/>
			</g>
		</g>
		<g>
			<g>
				<path fill="#211915" d="M237.736,178.992c-1.139,5.426-0.925,11.801,0.563,17.156c0.101,0.359,0.704,0.3,0.668-0.091
					c-0.535-5.751-0.786-11.235-0.816-17.01C238.149,178.814,237.786,178.754,237.736,178.992L237.736,178.992z"/>
			</g>
		</g>
		<g>
			<g>
				<path fill="#211915" d="M242.934,180.433c-0.328,5.105,0.545,10.414,0.952,15.506c0.052,0.65,1.072,0.656,1.02,0
					c-0.41-5.13-0.39-10.539-1.534-15.565C243.313,180.117,242.949,180.192,242.934,180.433L242.934,180.433z"/>
			</g>
		</g>
		<g>
			<g>
				<path fill="#211915" d="M248.137,182.55c-0.335,3.695,0.191,7.453,0.71,11.109c0.093,0.654,1.093,0.379,0.994-0.273
					c-0.546-3.617-0.702-7.285-1.29-10.892C248.51,182.242,248.156,182.33,248.137,182.55L248.137,182.55z"/>
			</g>
		</g>
		<g>
			<g>
				<path fill="#211915" d="M252.337,183.735c-0.243,1.322-0.241,2.643-0.256,3.984c-0.017,1.49-0.312,3.237,0.233,4.644
					c0.093,0.238,0.394,0.238,0.486,0c0.479-1.235,0.255-2.681,0.241-3.99c-0.018-1.556,0.019-3.104-0.264-4.638
					C252.737,183.517,252.378,183.517,252.337,183.735L252.337,183.735z"/>
			</g>
		</g>
	</g>
	<g>
		<g>
			<path fill="#211915" d="M71.43,205.765c4.735,7.904,15.876,8.86,24.108,10.303c0.191,0.034,0.271-0.233,0.081-0.293
				c-8.444-2.665-17.751-3.172-23.812-10.301C71.627,205.263,71.292,205.535,71.43,205.765L71.43,205.765z"/>
		</g>
	</g>
	<g>
		<g>
			<path fill="#211915" d="M72.495,211.532c4.288,7.771,13.195,10.598,21.61,10.957c0.144,0.006,0.178-0.225,0.034-0.253
				c-8.199-1.632-16.492-3.283-21.209-10.958C72.76,211.001,72.337,211.247,72.495,211.532L72.495,211.532z"/>
		</g>
	</g>
	<g>
		<g>
			<path fill="#211915" d="M77.297,221.556c4.887,5.384,12.404,8.947,19.758,8.521c0.181-0.011,0.244-0.303,0.045-0.334
				c-7.49-1.152-13.655-3.513-19.463-8.527C77.403,221.015,77.087,221.324,77.297,221.556L77.297,221.556z"/>
		</g>
	</g>
	<g>
		<g>
			<path fill="#211915" d="M290.317,199.825c-6.022,6.649-13.899,8.76-21.753,12.602c-0.197,0.097-0.056,0.391,0.145,0.343
				c7.692-1.833,17.563-5.802,22.004-12.64C290.868,199.89,290.509,199.612,290.317,199.825L290.317,199.825z"/>
		</g>
	</g>
	<g>
		<g>
			<path fill="#211915" d="M284.979,209.499c-2.972,2.419-6.03,4.568-9.395,6.4c-3.808,2.072-7.943,2.988-11.937,4.539
				c-0.207,0.08-0.199,0.43,0.056,0.414c7.914-0.499,16.087-5.595,21.623-11.006C285.558,209.62,285.22,209.303,284.979,209.499
				L284.979,209.499z"/>
		</g>
	</g>
	<g>
		<g>
			<path fill="#211915" d="M277.545,220.585c-5.953,4.423-12.806,6.3-19.868,8.005c-0.188,0.046-0.205,0.364,0,0.396
				c3.352,0.523,6.774-0.663,9.831-2.001c3.541-1.55,7.729-3.058,10.278-6.088C277.922,220.736,277.738,220.441,277.545,220.585
				L277.545,220.585z"/>
		</g>
	</g>
</g>
</svg>
