<?xml version="1.0" encoding="utf-8"?>
<!-- Generator: Adobe Illustrator 16.0.0, SVG Export Plug-In . SVG Version: 6.00 Build 0)  -->
<!DOCTYPE svg PUBLIC "-//W3C//DTD SVG 1.1//EN" "http://www.w3.org/Graphics/SVG/1.1/DTD/svg11.dtd">
<svg version="1.1" id="Layer_1" xmlns="http://www.w3.org/2000/svg" xmlns:xlink="http://www.w3.org/1999/xlink" x="0px" y="0px"
	 width="350px" height="350px" viewBox="0 0 350 350" enable-background="new 0 0 350 350" xml:space="preserve">
<g>
	<g>
		<g>
			<path fill="#FF8095" d="M261.415,160.716c8.135,11.985,28.686-3.543,20.293-15.27c-2.685-3.75-7.674-3.571-10.349-0.059
				c-3.916,5.142,0.149,13.742,4.932,16.635c5.272,3.19,12.289,1.212,16.59-2.609c4.186-3.718,5.806-12.256,1.242-16.352
				c-1.995-1.791-4.289,0.096-5.575,1.673c-2.16,2.649-1.139,6.462,0.148,9.202c4.104,8.732,14.685,6.265,18.793-0.807
				c0.988-1.702-1.645-3.234-2.631-1.537c-3.918,6.746-11.928,6.289-14.338-1.271c-0.764-3.435-0.044-4.878,2.159-4.329
				c0.369,0.711,0.632,1.458,0.788,2.241c0.565,2.162,0.261,4.23-0.661,6.236c-2.823,6.146-11.917,7.991-16.865,3.53
				c-2.593-2.337-3.333-6.855-2.453-10.079c1.058-3.875,5.104-1.983,6.428,0.389c4.56,8.17-10.421,18.897-15.87,10.87
				C262.949,157.563,260.309,159.086,261.415,160.716L261.415,160.716z"/>
		</g>
	</g>
	<g>
		
			<path fill-rule="evenodd" clip-rule="evenodd" fill="#FFA0B0" stroke="#FFA0B0" stroke-width="4.8735" stroke-linecap="round" stroke-linejoin="round" stroke-miterlimit="10" d="
			M114.558,268.232c2.159-2.471,3.877-4.598,5.768-6.556c2.674-2.767,3.798-6.065,3.396-9.79c-0.539-4.987-1.31-9.954-2.036-14.922
			c-0.086-0.608-0.352-1.338-0.792-1.71c-0.546-0.454-1.479-0.944-2.02-0.763c-0.551,0.185-1.154,1.169-1.161,1.804
			c-0.003,1.015,5.986,2.034,6.238,2.967c-0.486,0.244-2.504,0.39-2.614,0.36c-7.956-2.204-19.798-3.847-26.953-8.195
			c-4.159-2.522-8.468-5.067-11.898-8.426c-3.895-3.816-6.899-8.546-10.262-12.9c-4.129-5.349-6.742-11.4-8.566-17.892
			c-2.271-8.095-4.818-16.111-7.26-24.206c12.352-7.243,16.804-18.075,15.754-31.8c8.972-9.358,19.163-17.092,32.38-20.323
			c1.53,3.417-0.598,7.917,3.844,10.912c0.188-1.642,0.548-2.698,0.381-3.665c-2.758-16.124,2.502-29.392,14.398-40.216
			c4.261-3.875,6.572-3.703,10.673,0.628c7.45,7.861,12.494,16.948,13.439,27.952c0.179,1.999,0.026,4.025,0.026,6.165
			c4.165-1.108,4.202-1.24,3.283-10.259c3.24-1.918,7.064-2.084,10.637-2.106c9.884-0.055,13.048-0.025,22.923,0.446
			c2.686,0.126,12.062,1.568,14.713,2.278c8.324,2.224,16.664,4.52,24.244,8.695c8.776,4.832,18.221,8.788,25.121,16.449
			c7.088,7.863,13.973,15.892,14.871,27.204c0.167,2.083,0.79,4.14,1.301,6.185c3.696,14.769,1.173,29.041-3.732,43.012
			c-2.923,8.311-7.074,15.952-13.504,22.292c-4.005,3.95-5.535,9.469-7.316,14.688c-1.203,3.523-2.49,11.184-3.286,14.805
			c-0.782,3.542-2.9,4.798-6.192,4.875c-3.544,0.081-7.085,0.224-10.631,0.267c-3.866,0.049-7.74,0.012-11.878,0.012
			c0.336-0.594,0.603-1.711,1.317-2.263c6.327-4.917,5.423-15.769,4.642-22.44c-0.147-1.272-0.547-2.545-1.026-3.74
			c-0.774-1.957-2.148-2.927-4.43-3.165c-3.029-0.317-6.049-1.08-8.985-1.942c-9.889-2.908-14.835-10.082-16.274-19.848
			c-0.685-4.64-0.647-9.383-0.941-14.078c-0.059-0.924-0.163-1.845-0.247-2.738c-2.085-0.328-2.396,0.951-2.617,2.279
			c-1.127,6.87-0.278,13.594,1.683,20.194c0.647,2.166,1.427,4.341,2.497,6.321c2.767,5.134,6.387,9.388,12.402,10.914
			c1.182,0.301,11.932,0.943,13.299,1.524c-6.177,3.003-55.023,4.958-62.663,3.114c4.638-4.909,25.166-9.985,22.983-16.933
			c-0.401-0.119-0.802-0.238-1.204-0.356c-0.331,1.14-0.796,2.261-0.966,3.424c-0.632,4.231-2.604,7.732-5.971,10.262
			c-4.011,3.014-2.613,0.382-6.864,3.03c-2.887,1.798-8.804-0.487-8.108,3.293c0.61,3.333-0.905,16.452-0.65,19.854
			c0.183,2.419-0.882,3.685-3.283,3.85c-8.742,0.605-17.483,1.211-26.229,1.795C115.937,268.865,115.646,268.647,114.558,268.232z"
			/>
		<path fill-rule="evenodd" clip-rule="evenodd" fill="#FFB3C0" d="M119.214,112.158c5.475-1.471,11.143-1.204,16.781-0.64
			c-1.023-8.134-3.58-16.929-8.513-23.525C122.013,94.536,120.524,103.841,119.214,112.158z"/>
		<path fill-rule="evenodd" clip-rule="evenodd" fill="#FF8095" stroke="#FF8095" stroke-width="6.498" stroke-miterlimit="10" d="
			M68.837,142.559c0.053,5.755-2.255,10.736-5.416,15.312c-2.511,3.633-6.135,5.561-10.639,5.949
			c-5.219,0.446-9.363-2.932-8.924-8.148c0.633-7.687,3.867-14.301,9.639-19.545c0.708-0.644,1.587-1.134,2.446-1.579
			C62.459,131.167,68.89,135.177,68.837,142.559z"/>
		<path fill-rule="evenodd" clip-rule="evenodd" fill="#634E42" d="M93.423,157.824c-3.695,0.063-6.196-2.214-6.357-5.793
			c-0.174-3.835,2.504-6.273,6.898-6.273c3.789,0,5.976,2.21,5.916,5.978C99.834,154.683,96.554,157.772,93.423,157.824z"/>
	</g>
	<g>
		<g>
			<g>
				<path fill="#FF607B" d="M51.72,137.111c-1.12,5.408-4.618,9.88-6.667,14.939c-0.984,2.429,2.946,3.475,3.916,1.08
					c2.061-5.089,5.536-9.475,6.667-14.939C56.165,135.635,52.25,134.547,51.72,137.111L51.72,137.111z"/>
			</g>
		</g>
		<g>
			<g>
				<path fill="#FF607B" d="M61.605,140.56c-1.483,5.579-3.925,10.792-6.232,16.063c-1.039,2.375,2.459,4.444,3.507,2.05
					c2.444-5.587,5.069-11.12,6.641-17.033C66.195,139.105,62.278,138.031,61.605,140.56L61.605,140.56z"/>
			</g>
		</g>
	</g>
	<g>
		<g>
			<g>
				<g>
					<path fill="#706F6F" d="M110.681,271.275c12.514,1.254,25.042,0.066,37.579,0c2.618-0.014,2.62-4.074,0-4.061
						c-12.537,0.065-25.064,1.253-37.579,0C108.076,266.953,108.101,271.018,110.681,271.275L110.681,271.275z"/>
				</g>
			</g>
			<g>
				<g>
					<path fill="#706F6F" d="M112.019,268.556c0.319-3.717,11.005,1.124,13.141,1.341c7.67,0.782,15.387,1.331,23.1,1.379
						c2.62,0.017,2.618-4.045,0-4.061c-8.918-0.056-18.532,0.032-27.076-2.678c-4.942-1.568-12.61-3.148-13.227,4.019
						C107.733,271.166,111.796,271.145,112.019,268.556L112.019,268.556z"/>
				</g>
			</g>
		</g>
		<g>
			<g>
				<g>
					<path fill="#706F6F" d="M203.774,271.275c11.502,1.191,22.963-0.253,34.478-0.345c2.618-0.021,2.62-4.082,0-4.061
						c-11.515,0.092-22.976,1.535-34.478,0.345C201.17,266.945,201.196,271.009,203.774,271.275L203.774,271.275z"/>
				</g>
			</g>
			<g>
				<g>
					<path fill="#706F6F" d="M205.04,269.096c0.599-4.449,3.477-3.05,6.493-1.745c2.246,0.972,4.307,1.806,6.731,2.24
						c6.562,1.176,13.353,0.988,19.987,1.34c2.618,0.14,2.604-3.923,0-4.061c-8.66-0.46-17.481,0.083-25.567-3.414
						c-5.304-2.295-10.652-2.197-11.561,4.56C200.779,270.575,204.692,271.681,205.04,269.096L205.04,269.096z"/>
				</g>
			</g>
		</g>
	</g>
</g>
</svg>
