<?xml version="1.0" encoding="utf-8"?>
<!-- Generator: Adobe Illustrator 16.0.0, SVG Export Plug-In . SVG Version: 6.00 Build 0)  -->
<!DOCTYPE svg PUBLIC "-//W3C//DTD SVG 1.1//EN" "http://www.w3.org/Graphics/SVG/1.1/DTD/svg11.dtd">
<svg version="1.1" id="Capa_1" xmlns="http://www.w3.org/2000/svg" xmlns:xlink="http://www.w3.org/1999/xlink" x="0px" y="0px"
	 width="350px" height="350px" viewBox="0 0 350 350" enable-background="new 0 0 350 350" xml:space="preserve">
<g>
	<circle cx="233.575" cy="83.477" r="3.661"/>
	<circle cx="185.983" cy="153.034" r="3.661"/>
	<path d="M273.846,185.982V134.73c0-16.148-13.14-29.288-29.287-29.288c-16.149,0-29.288,13.139-29.288,29.288v51.252
		c0,16.148,13.139,29.287,29.288,29.287C260.706,215.27,273.846,202.131,273.846,185.982z M244.559,112.764
		c12.113,0,21.965,9.852,21.965,21.966v21.965h-43.931V134.73C222.593,122.616,232.444,112.764,244.559,112.764z M244.559,207.948
		c-12.114,0-21.966-9.852-21.966-21.966v-21.965h43.931v21.965C266.523,198.097,256.672,207.948,244.559,207.948z"/>
	<path d="M146.569,198.62l-36.239,36.239c-5.514,5.514-8.548,12.868-8.548,20.71c0,7.846,3.035,15.196,8.548,20.71
		c5.51,5.514,12.865,8.549,20.709,8.549c7.842,0,15.197-3.035,20.71-8.549l36.239-36.239c11.418-11.418,11.418-29.997,0-41.416
		C176.566,187.202,157.988,187.202,146.569,198.62z M146.569,271.103c-4.129,4.13-9.643,6.404-15.53,6.404
		c-5.887,0-11.403-2.274-15.533-6.404c-4.13-4.129-6.403-9.643-6.403-15.533c0-5.887,2.273-11.403,6.403-15.533l15.533-15.533
		l31.063,31.063L146.569,271.103z M182.813,234.863l-15.533,15.533l-31.063-31.063l15.534-15.533
		c4.283-4.279,9.906-6.422,15.533-6.422c5.624,0,11.25,2.143,15.534,6.422C191.375,212.363,191.375,226.297,182.813,234.863z"/>
	<path d="M113.621,151.38c5.711,5.711,13.209,8.563,20.71,8.563c7.498,0,14.999-2.855,20.71-8.563
		c11.418-11.422,11.418-30.001,0-41.416l-36.24-36.24c-5.513-5.517-12.868-8.552-20.71-8.552c-7.845,0-15.2,3.035-20.709,8.548
		c-5.514,5.509-8.548,12.864-8.548,20.709c0,7.842,3.035,15.197,8.548,20.71L113.621,151.38z M149.864,146.203
		c-8.566,8.563-22.5,8.563-31.063,0l-15.533-15.533l31.063-31.063l15.533,15.533C158.427,123.703,158.427,137.637,149.864,146.203z
		 M82.558,78.897c4.13-4.129,9.643-6.403,15.533-6.403c5.887,0,11.404,2.273,15.534,6.403l15.533,15.533l-31.063,31.063
		L82.562,109.96c-4.133-4.129-6.407-9.643-6.407-15.53C76.155,88.54,78.429,83.026,82.558,78.897z"/>
	<path d="M106.069,196.966c2.021,0,3.661-1.641,3.661-3.661s-1.64-3.66-3.661-3.66H95.086v-10.983c0-2.021-1.64-3.661-3.661-3.661
		c-2.021,0-3.661,1.64-3.661,3.661v10.983H76.781c-2.021,0-3.661,1.64-3.661,3.66s1.64,3.661,3.661,3.661h10.983v10.982
		c0,2.021,1.64,3.661,3.661,3.661c2.021,0,3.661-1.64,3.661-3.661v-10.982H106.069z"/>
	<path d="M272.33,262.232l7.764-7.765c1.432-1.432,1.432-3.745,0-5.177c-1.431-1.431-3.744-1.431-5.176,0l-7.765,7.765l-7.766-7.765
		c-1.431-1.431-3.745-1.431-5.176,0c-1.432,1.432-1.432,3.745,0,5.177l7.765,7.765l-7.765,7.765c-1.432,1.432-1.432,3.745,0,5.177
		c0.714,0.714,1.651,1.072,2.588,1.072c0.938,0,1.874-0.358,2.588-1.072l7.766-7.765l7.765,7.765
		c0.714,0.714,1.651,1.072,2.588,1.072c0.938,0,1.875-0.358,2.588-1.072c1.432-1.432,1.432-3.745,0-5.177L272.33,262.232z"/>
</g>
</svg>
