<?xml version="1.0" encoding="utf-8"?>
<!-- Generator: Adobe Illustrator 16.0.0, SVG Export Plug-In . SVG Version: 6.00 Build 0)  -->
<!DOCTYPE svg PUBLIC "-//W3C//DTD SVG 1.1//EN" "http://www.w3.org/Graphics/SVG/1.1/DTD/svg11.dtd">
<svg version="1.1" id="Capa_1" xmlns="http://www.w3.org/2000/svg" xmlns:xlink="http://www.w3.org/1999/xlink" x="0px" y="0px"
	 width="350px" height="350px" viewBox="0 0 350 350" enable-background="new 0 0 350 350" xml:space="preserve">
<g>
	<path d="M245.385,109.856l5.339-1.281l-2.306-4.979c-3.356-7.249-15.279-19.898-36.354-16.011
		c-1.523,0.283-2.992,0.697-4.431,1.195c8.201-13.481,25.435-23.92,37.828-27.12l8.502-2.193l-6.749-5.613
		c-0.67-0.557-16.601-13.634-36.794-11.274c-16.395,1.896-28.771,8.902-36.931,20.766c-5.977-3.622-13.521-6.242-23.04-7.267
		c-18.986-2.031-34.054,9.415-34.688,9.9l-7.419,5.738l9.123,2.189c13.669,3.275,32.422,14.573,38.093,28.4
		c-1.501-0.485-3.064-0.926-4.768-1.241c-26.954-4.988-31.91,11.486-32.108,12.188l-1.268,4.498l4.548,1.092
		c12.385,2.97,18.231,7.877,20.995,11.796c-17.89,3.811-30.018,11.742-37.338,24.217c-9.576,16.313-9.572,38.498-9.572,61.982v0.988
		c0,49.558,34.162,89.876,76.147,89.876h2.049c41.985,0,76.143-40.318,76.143-89.876v-0.988c0-14.865-0.015-29.196-2.44-41.859
		l0.14-0.09l-0.243-0.364c-1.411-7.167-3.581-13.81-7.023-19.669c-6.646-11.324-17.261-18.905-32.539-23.057
		C214.796,124.6,228.331,113.945,245.385,109.856z M211.452,51.509c8.956-1.025,17.095,1.833,22.631,4.646
		c-16.011,6.925-35.119,21.674-39.307,40.422c-0.068,0.058-0.126,0.121-0.189,0.18c-0.018-0.094-0.04-0.189-0.058-0.283
		c-0.108-0.602-0.243-1.218-0.369-1.833c-0.126-0.606-0.242-1.209-0.387-1.82c-0.179-0.755-0.391-1.515-0.602-2.278
		c-0.125-0.454-0.247-0.903-0.386-1.362c-0.279-0.912-0.594-1.824-0.921-2.737c-0.104-0.278-0.199-0.557-0.307-0.835
		c-0.404-1.065-0.854-2.117-1.335-3.168c-0.044-0.099-0.09-0.193-0.135-0.292c-2.216-4.763-5.275-9.352-9.49-13.346
		C187.268,58.924,197.625,53.104,211.452,51.509z M129.478,68.459c5.123-2.242,12.214-4.273,20.01-3.447
		c10.188,1.097,17.647,4.377,23.13,8.884c1.002,0.827,1.946,1.685,2.813,2.588c0.183,0.189,0.391,0.368,0.57,0.562
		c1.074,1.173,2.04,2.405,2.916,3.672c0.117,0.166,0.221,0.337,0.334,0.503c0.844,1.272,1.612,2.575,2.282,3.91
		c0.013,0.022,0.021,0.045,0.036,0.067c1.447,2.898,2.503,5.914,3.267,8.907c0.013,0.045,0.022,0.09,0.036,0.135
		c0.741,2.939,1.195,5.847,1.46,8.601c0.023,0.243,0.036,0.485,0.059,0.728c0.059,0.688,0.091,1.339,0.126,2.004
		c-0.193,0.251-0.404,0.503-0.593,0.754c-0.508,0.535-0.903,1.115-1.178,1.614c-0.216,0.306-0.396,0.606-0.603,0.912
		c-0.665,0.966-1.299,1.923-1.905,2.88c-0.206,0.333-0.408,0.656-0.61,0.984c-0.701,1.137-1.357,2.251-1.978,3.353
		c-0.086,0.148-0.171,0.296-0.252,0.444c-1.438,2.584-2.65,5.001-3.627,7.1c-1.433-5.253-4.345-11.005-9.58-15.485
		C164.7,90.488,146.455,75.573,129.478,68.459z M152.454,129.08c-2.593-5.491-8.511-12.537-21.957-17.125
		c2.966-2.103,8.52-3.932,18.649-2.054c4.575,0.85,7.963,2.575,10.583,4.66c0.62,0.495,1.2,1.006,1.73,1.542
		c0.288,0.292,0.571,0.58,0.836,0.88c0.58,0.67,1.119,1.353,1.586,2.049c0.112,0.167,0.229,0.328,0.332,0.495
		c1.878,2.988,2.804,6.071,3.263,8.479c-0.167,0.004-0.319,0.018-0.485,0.022c-5.154,0.135-9.976,0.485-14.501,1.038
		C152.477,129.076,152.463,129.08,152.454,129.08z M233.059,159.404c0.054,0.094,0.09,0.198,0.144,0.292l-14.51,14.51l6.354,6.355
		l9.607-9.604l4.763,7.15c1.138,6.521,1.617,13.656,1.82,21.282l-5.887-5.887l-16.658,16.659l6.354,6.354l10.304-10.304l5.81,5.81
		l0.226-0.225c0.004,1.677,0.009,3.334,0.009,5.042v0.988c0,5.249-0.449,10.372-1.249,15.347l-5.681-2.84l-15.772,15.773
		l6.354,6.354l11.188-11.189l2.004,1.003c-8.623,32.687-34.049,56.441-64.004,56.441h-2.049c-29.663,0-54.855-23.31-63.722-55.503
		l1.057-1.056l10.304,10.304l6.354-6.354l-16.658-16.659l-3.299,3.299c-0.755-4.845-1.195-9.818-1.195-14.92v-0.988
		c0-2.085,0.004-4.116,0.009-6.147l4.485-4.484l10.304,10.304l6.354-6.354l-16.658-16.659l-4.274,4.273
		c0.314-9.737,1.119-18.681,3.258-26.499l1.016-1.016l10.304,10.305l6.354-6.355l-13.473-13.472c0.234-0.432,0.405-0.908,0.656-1.33
		c5.289-9.015,13.967-15.171,26.522-18.735l-15.563,15.563l6.354,6.354l10.304-10.305l10.304,10.305l6.354-6.354l-16.038-16.039
		c2.404-0.62,4.957-1.137,7.635-1.577l0.958-0.148c6.552-1.011,13.948-1.523,22.244-1.523h1.798c0.97,0,1.896,0.027,2.844,0.041
		l0.095,0.009c8.408,0.13,15.984,0.831,22.522,2.081l1.632,0.314c0.759,0.162,1.519,0.319,2.256,0.494l-16.353,16.353l6.354,6.354
		l10.304-10.304l10.304,10.304l6.354-6.354l-16.159-16.16C218.13,143.523,227.468,149.882,233.059,159.404z M183.574,128.204
		c-0.006,0-0.01,0-0.015,0c0.513-1.128,1.119-2.391,1.793-3.73c0.081-0.162,0.162-0.319,0.243-0.485
		c0.27-0.53,0.562-1.083,0.854-1.635c0.328-0.611,0.665-1.231,1.02-1.865c0.149-0.27,0.293-0.53,0.446-0.8
		c0.614-1.07,1.266-2.162,1.968-3.267c0.014-0.022,0.027-0.041,0.04-0.063c0.724-1.141,1.491-2.296,2.306-3.442l2.674-3.487
		c2.125-2.616,4.412-4.961,6.816-6.947l1.28-1.056l0.009-0.049c3.245-2.427,6.813-4.224,10.683-4.943
		c12.281-2.283,19.579,2.535,23.327,6.494c-18.492,6.215-32.885,18.955-38.624,26.778
		C193.819,128.955,188.862,128.469,183.574,128.204z"/>
	<polygon points="140.981,247.424 124.323,264.082 130.677,270.437 140.981,260.132 151.286,270.437 157.64,264.082 	"/>
	<polygon points="155.779,286.55 162.134,292.904 172.438,282.601 182.741,292.904 189.096,286.55 172.438,269.893 	"/>
	<polygon points="187.235,264.082 193.59,270.437 203.894,260.132 214.198,270.437 220.553,264.082 203.894,247.424 	"/>
	<polygon points="140.981,224.182 151.286,234.485 157.64,228.131 140.981,211.474 124.323,228.131 130.677,234.485 	"/>
	<polygon points="155.779,246.107 162.134,252.461 172.438,242.157 182.741,252.461 189.096,246.107 172.438,229.448 	"/>
	<polygon points="187.235,228.131 193.59,234.485 203.894,224.182 214.198,234.485 220.553,228.131 203.894,211.474 	"/>
	<polygon points="140.981,188.231 151.286,198.536 157.64,192.182 140.981,175.523 124.323,192.182 130.677,198.536 	"/>
	<polygon points="172.438,193.498 155.779,210.157 162.134,216.511 172.438,206.207 182.741,216.511 189.096,210.157 	"/>
	<polygon points="187.235,192.182 193.59,198.536 203.894,188.231 214.198,198.536 220.553,192.182 203.894,175.523 	"/>
	<polygon points="172.438,170.257 182.741,180.562 189.096,174.207 172.438,157.548 155.779,174.207 162.134,180.562 	"/>
</g>
</svg>
