<?xml version="1.0" encoding="utf-8"?>
<!-- Generator: Adobe Illustrator 16.0.0, SVG Export Plug-In . SVG Version: 6.00 Build 0)  -->
<!DOCTYPE svg PUBLIC "-//W3C//DTD SVG 1.1 Tiny//EN" "http://www.w3.org/Graphics/SVG/1.1/DTD/svg11-tiny.dtd">
<svg version="1.1" baseProfile="tiny" id="Layer_1" xmlns="http://www.w3.org/2000/svg" xmlns:xlink="http://www.w3.org/1999/xlink"
	 x="0px" y="0px" width="350px" height="350px" viewBox="0 0 350 350" overflow="scroll" xml:space="preserve">
<g>
	<g>
		<g>
			<path fill="#231F20" d="M166.85,145.113l-0.146-0.026c-0.005-0.002-0.538-0.1-1.924-0.1c-1.478,0-2.605-0.356-3.887-1.23
				c-1.287-0.846-6.424-2.492-8.454-2.807c-0.455-0.072-5.583-0.108-15.676-0.108c-11.449,0-27.264,0.046-42.558,0.089
				c-13.197,0.038-25.663,0.073-33.457,0.073c-7.119,0-8.167-0.028-8.286-0.055c-0.516-0.114-1.706-1.583-3.464-3.813
				c-1.064-1.348-2.386-3.025-2.667-3.057c-0.739,0-0.99-0.543-1.301-1.839c-0.151-0.573-0.21-1.22-0.292-2.113
				c-0.107-1.155-0.251-2.739-0.686-5.085c-0.599-3.253,0.059-7.838,0.373-10.041c0.088-0.617,0.153-1.063,0.153-1.222
				c0-0.836,0.803-1.193,0.837-1.208l0.051-0.011c0.426,0.007,42.556,0.547,43.623,0.547c1.074,0,4.894-0.313,7.063-0.647
				c2.185-0.33,5.897-0.878,5.897-0.878l65.039,0.662l-0.001,0.123L166.85,145.113z M136.763,140.596
				c10.106,0,15.247,0.037,15.714,0.112c2.098,0.323,7.214,1.966,8.552,2.843c1.241,0.846,2.327,1.19,3.751,1.19
				c1.021,0,1.583,0.051,1.825,0.081l0.234-32.334l-64.772-0.661c0.008,0-3.695,0.547-5.878,0.877c-2.179,0.335-6.018,0.65-7.1,0.65
				c-1.057,0-42.295-0.529-43.598-0.548c-0.121,0.061-0.666,0.362-0.666,0.973c0,0.177-0.063,0.606-0.155,1.256
				c-0.313,2.19-0.966,6.748-0.374,9.961c0.435,2.358,0.582,3.947,0.688,5.107c0.081,0.884,0.138,1.521,0.283,2.077
				c0.316,1.313,0.535,1.651,1.065,1.651c0.337,0,1.129,0.962,2.857,3.152c1.273,1.613,2.855,3.62,3.324,3.724
				c0.182,0.033,2.952,0.049,8.233,0.049c7.793,0,20.258-0.035,33.457-0.072C109.498,140.641,125.314,140.596,136.763,140.596z"/>
		</g>
	</g>
	<g>
		<polyline fill="#231F20" points="234.678,107.322 234.6,104.526 233.572,104.526 233.124,106.185 233.099,106.356 233.545,108 
			234.678,107.322 		"/>
	</g>
	<g>
		<g>
			<path fill="#231F20" d="M233.545,108.001L233.545,108.001l-0.446-1.645l0.025-0.172l0.448-1.658h1.027l0.078,2.796
				L233.545,108.001z M234.6,104.526h-1.027l-0.448,1.658l-0.025,0.172l0.446,1.642l1.133-0.676L234.6,104.526z"/>
		</g>
	</g>
	<g>
		<g>
			<path fill="#231F20" d="M230.423,112.069L230.423,112.069c-0.246,0-0.457-0.049-0.623-0.144
				c-0.364-0.199-1.655-0.319-3.451-0.319c-0.933,0-1.905,0.035-2.479,0.089c-0.134,0.013-0.579,0.019-1.366,0.019
				c-7.182,0-40.202-0.517-40.534-0.521l-0.149-0.001l0.029-0.147c0.026-0.119,0.278-0.718,2.755-0.718
				c2.473,0,25.281,0.129,25.511,0.129c3.225-0.012,6.561-0.023,8.926-0.515c2.231-0.463,3.877-1.848,3.895-1.86l0.039-0.035
				l0.052,0.006c0.006,0,0.607,0.058,1.199,0.058c0.317,0,0.987-0.155,1.577-0.292c0.469-0.107,0.873-0.2,1.075-0.213
				c0.42-0.029,4.519-0.043,4.692-0.043h0.106l0.581,3.951l-0.076,0.041C232.143,111.573,231.213,112.069,230.423,112.069z
				 M226.349,111.36c1.094,0,3.013,0.046,3.57,0.351c0.133,0.075,0.302,0.113,0.504,0.113c0.604,0,1.331-0.334,1.565-0.449
				l-0.524-3.568c-0.663,0.003-4.196,0.017-4.569,0.043c-0.185,0.012-0.597,0.107-1.035,0.208c-0.604,0.139-1.29,0.297-1.634,0.297
				c-0.504,0-1.011-0.04-1.171-0.055c-0.271,0.219-1.865,1.446-3.964,1.881c-2.388,0.496-5.735,0.509-8.977,0.521
				c-0.23-0.002-23.04-0.129-25.51-0.129c-1.492,0-2.105,0.222-2.354,0.378c3.234,0.05,33.426,0.517,40.253,0.517
				c0.77,0,1.219-0.006,1.342-0.017C224.427,111.396,225.408,111.36,226.349,111.36z"/>
		</g>
	</g>
	<g>
		<g>
			<path fill="#231F20" d="M60.733,108.455l-14.635-0.218l0.009-0.131c0-0.016,0.107-1.549,0.344-2.641
				c0.216-1.125,1.765-2.273,3.069-2.273c1.17,0,11.007-0.213,11.107-0.216l0.088-0.002l0.355,0.97l0,0.022l-0.106,4.151
				l-0.247-0.006l0.104-4.128l-0.277-0.76c-0.987,0.021-9.913,0.215-11.024,0.215c-1.18,0-2.633,1.067-2.828,2.075
				c-0.194,0.895-0.298,2.089-0.331,2.479l14.376,0.214L60.733,108.455z"/>
		</g>
	</g>
	<g>
		<g>
			<path fill="#231F20" d="M60.733,108.455l-14.635-0.218l0.009-0.131c0-0.016,0.107-1.549,0.344-2.641
				c0.216-1.125,1.765-2.273,3.069-2.273c1.17,0,11.007-0.213,11.107-0.216l0.088-0.002l0.355,0.97l0,0.022l-0.106,4.151
				l-0.247-0.006l0.104-4.128l-0.277-0.76c-0.987,0.021-9.913,0.215-11.024,0.215c-1.18,0-2.633,1.067-2.828,2.075
				c-0.194,0.895-0.298,2.089-0.331,2.479l14.376,0.214L60.733,108.455z"/>
		</g>
	</g>
	<g>
		<g>
			<path fill="#231F20" d="M45.595,131.047l-0.202-0.149c-0.081-0.059-1.998-1.554-1.998-9.481c0-6.21,0.935-7.137,1.492-7.137
				c0.127,0,0.21,0.049,0.226,0.06l0.054,0.034l0.002,0.065L45.595,131.047z M44.886,114.526c-0.208,0-1.245,0.331-1.245,6.89
				c0,6.205,1.201,8.414,1.691,9.058l-0.41-15.945C44.913,114.527,44.9,114.526,44.886,114.526z"/>
		</g>
	</g>
	<g>
		<g>
			<path fill="#231F20" d="M45.466,130.8L45.466,130.8c-0.005-0.004-0.493-0.373-0.975-1.708c-0.443-1.233-0.973-3.564-0.973-7.676
				c0-6.332,0.957-7.015,1.369-7.015c0.097,0,0.159,0.04,0.159,0.04L45.466,130.8z M44.886,114.401
				c-0.412,0-1.369,0.685-1.369,7.015c0,4.109,0.53,6.442,0.975,7.676c0.473,1.311,0.951,1.689,0.974,1.706l-0.421-16.356
				C45.045,114.441,44.981,114.401,44.886,114.401z"/>
		</g>
	</g>
	<g>
		<g>
			<path fill="#231F20" d="M164.077,112.49h-0.062l-59.797-0.55l0.24-1.62l2.625-1.13l10.136-1.197l47.41,0.647l0.028,0.08
				c0.011,0.027,0.246,0.679,0.246,1.455c0,0.778-0.336,1.65-0.352,1.688l-0.017,0.029L164.077,112.49z M104.502,111.696
				l59.453,0.546l0.374-0.484c0.045-0.121,0.329-0.905,0.329-1.582c0-0.582-0.144-1.099-0.205-1.29l-47.221-0.647l-10.101,1.193
				l-2.449,1.061L104.502,111.696z"/>
		</g>
	</g>
	<g>
		<g>
			<path fill="#231F20" d="M164.016,112.367l-59.657-0.548l0.21-1.413l2.528-1.095l10.137-1.196l47.309,0.648
				c0.003,0.007,0.238,0.657,0.238,1.412c0,0.756-0.339,1.634-0.343,1.644L164.016,112.367z M117.234,108.115l-10.137,1.196
				l-2.528,1.095l-0.21,1.413l59.657,0.548l0.421-0.548c0.004-0.01,0.343-0.888,0.343-1.644c0-0.755-0.236-1.405-0.238-1.412
				L117.234,108.115z"/>
		</g>
	</g>
	<g>
		<g>
			<polygon fill="#231F20" points="105.246,111.604 104.999,111.604 104.999,110.882 107.053,109.188 107.1,109.188 163.926,110.28 
				164.424,108.726 164.659,108.801 164.105,110.532 164.014,110.53 107.14,109.437 105.246,110.998 			"/>
		</g>
	</g>
	<g>
		<g>
			<path fill="#231F20" d="M164.016,112.367v-1.961V112.367z"/>
		</g>
	</g>
	<g>
		<g>
			<path fill="#231F20" d="M166.728,144.967v-0.002c-0.006-0.001-0.542-0.101-1.947-0.101c-1.451,0-2.557-0.351-3.818-1.211
				c-1.298-0.851-6.465-2.509-8.503-2.825c-0.462-0.073-5.607-0.108-15.729-0.108c-11.474,0-27.324,0.046-42.652,0.089
				c-13.226,0.038-25.721,0.073-33.531,0.073c-5.407,0-8.114-0.017-8.276-0.054c-0.513-0.112-1.923-1.977-3.286-3.778
				c-1.203-1.592-2.339-3.094-2.651-3.094c-0.601,0-0.855-0.375-1.184-1.744c-0.149-0.566-0.208-1.208-0.289-2.097
				c-0.106-1.158-0.252-2.743-0.686-5.096c-0.596-3.232,0.059-7.806,0.374-10.002c0.089-0.621,0.153-1.07,0.153-1.238
				c0-0.756,0.756-1.093,0.764-1.096c0.425,0.005,42.557,0.548,43.624,0.548c1.077,0,4.907-0.315,7.082-0.649
				c2.159-0.327,5.859-0.874,5.897-0.878l64.896,0.663L166.728,144.967z M136.73,140.72c10.122,0,15.267,0.035,15.729,0.108
				c2.039,0.315,7.205,1.973,8.503,2.825c1.262,0.859,2.368,1.211,3.818,1.211c1.385,0,1.927,0.098,1.947,0.1l0.237-32.597
				l-64.896-0.663c-0.037,0.006-3.738,0.552-5.897,0.878c-2.175,0.335-6.005,0.649-7.082,0.649c-1.067,0-43.199-0.541-43.624-0.548
				c-0.008,0.004-0.764,0.34-0.764,1.096c0,0.169-0.063,0.617-0.153,1.238c-0.314,2.196-0.968,6.77-0.374,10.002
				c0.435,2.353,0.58,3.938,0.687,5.096c0.082,0.887,0.139,1.53,0.288,2.097c0.33,1.369,0.583,1.744,1.184,1.744
				c0.313,0,1.449,1.502,2.651,3.094c1.363,1.802,2.772,3.665,3.286,3.778c0.162,0.035,2.869,0.053,8.276,0.053
				c7.811,0,20.305-0.035,33.531-0.073C109.406,140.765,125.256,140.72,136.73,140.72z"/>
		</g>
	</g>
	<g>
		<g>
			<path fill="#231F20" d="M81.559,113.038l-36.21-0.231l-0.007-0.115c0-0.02-0.104-1.869,0-3.288
				c0.091-1.217,0.288-1.413,0.72-1.413l0.168,0.002c2.101,0,20.547,0.006,21.407,0.22c0.862,0.214,13.426,4.407,13.962,4.586
				L81.559,113.038z M45.583,112.561l35.203,0.226c-2.774-0.924-12.475-4.151-13.209-4.336c-0.675-0.167-14.259-0.212-21.347-0.212
				l-0.168-0.001c-0.214,0-0.385,0-0.474,1.185C45.5,110.621,45.562,112.136,45.583,112.561z"/>
		</g>
	</g>
	<g>
		<g>
			<path fill="#231F20" d="M81.559,112.914l-36.093-0.23c-0.003-0.018-0.104-1.86,0-3.271c0.092-1.237,0.287-1.3,0.596-1.3
				c0.052,0,0.106,0.003,0.168,0.003c0.837,0,20.518,0.002,21.377,0.215C68.465,108.545,81.428,112.87,81.559,112.914
				L81.559,112.914z M46.062,108.114c-0.308,0-0.503,0.062-0.596,1.298c-0.104,1.411-0.001,3.254,0,3.271l36.091,0.23
				c-0.25-0.083-13.096-4.369-13.95-4.584c-0.86-0.212-20.54-0.215-21.377-0.215C46.169,108.115,46.114,108.114,46.062,108.114z"/>
		</g>
	</g>
	<g>
		<g>
			<path fill="#231F20" d="M166.726,138.444l-28.458-0.217c-0.104,0-2.614-0.019-4.132-1.614c-0.796-0.835-1.165-1.949-1.097-3.313
				c0.045-1.035,0.403-1.864,1.064-2.464c1.249-1.133,3.121-1.04,3.198-1.04l29.428,0.331l-0.002,0.247l-29.434-0.332
				c-0.027-0.002-1.853-0.088-3.026,0.978c-0.61,0.555-0.94,1.324-0.982,2.292c-0.064,1.293,0.283,2.346,1.029,3.131
				c1.448,1.521,3.93,1.538,3.955,1.538l28.46,0.217L166.726,138.444z"/>
		</g>
	</g>
	<g>
		<g>
			<path fill="#231F20" d="M164.831,143.388c-0.604,0-1.243-0.094-1.746-0.391c-0.16-0.091-0.366-0.216-0.611-0.366
				c-1.804-1.096-5.559-3.377-9.921-3.754c-4.429-0.381-17.639-0.346-22.619-0.333c-0.687,0.001-1.231,0.003-1.592,0.003
				c-3.031,0-5.241-0.432-5.263-0.436h0c-0.071,0-4.712-0.118-7.074-0.432c-2.367-0.327-70.285-5.938-70.972-5.994l0.021-0.246
				c0.685,0.056,68.611,5.668,70.983,5.996c2.36,0.313,7.022,0.431,7.067,0.432c0.043,0.006,2.232,0.433,5.237,0.433
				c0.361,0,0.905-0.001,1.592-0.002c4.974-0.015,18.2-0.049,22.639,0.332c4.42,0.384,8.207,2.686,10.028,3.791
				c0.244,0.148,0.447,0.271,0.607,0.363c1.229,0.725,3.461,0.108,3.485,0.103l0.068,0.236
				C166.702,143.142,165.812,143.388,164.831,143.388z"/>
		</g>
	</g>
	<g>
		<g>
			<path fill="#231F20" d="M166.957,137.9l-29.601-0.667l-0.032-0.025c-0.042-0.031-1.021-0.803-1.021-2.273
				c0-2.166,1.52-2.298,1.535-2.299l29.119,0.333V137.9z M137.445,136.989l29.265,0.659v-4.437l-28.865-0.329
				c-0.044,0.003-1.296,0.123-1.296,2.052C136.549,136.143,137.287,136.852,137.445,136.989z"/>
		</g>
	</g>
	<g>
		<g>
			<path fill="#231F20" d="M142.657,137.235l-0.247-0.017c0.001-0.016,0.105-1.419,0.105-2.284c0-0.843-0.207-2.043-0.208-2.055
				l0.243-0.042c0.008,0.051,0.212,1.231,0.212,2.097C142.761,135.809,142.658,137.222,142.657,137.235z"/>
		</g>
	</g>
	<g>
		<g>
			<path fill="#231F20" d="M216.798,196.049c-1.714,0-3.576-0.119-5.698-0.363c-7.841-0.888-14.131-5.539-16.885-9.753
				c-1.682-2.582-2.251-5.809-2.752-8.652c-0.354-1.999-0.658-3.727-1.281-4.875c-0.887-1.676-4.587-3.97-6-3.97
				c-0.203,0-0.606,0.005-1.153,0.01c-1.158,0.013-2.907,0.031-4.749,0.031c-6.407,0-7.464-0.227-7.701-0.396
				c-0.543-0.39-0.541-4.504-0.479-10.275c0.021-1.853,0.039-3.604,0.008-4.649c-0.083-2.721-1.772-4.067-2.781-4.872
				c-0.261-0.207-0.466-0.37-0.586-0.515c-0.549-0.676-0.081-2.999-0.026-3.261l0.043-0.207l0.157,0.14l17.993,15.796
				c0.499,0.212,7.357,3.205,8.007,7.944c0.224,1.628,0.32,3.336,0.415,4.989c0.184,3.244,0.355,6.311,1.44,8.387
				c1.602,3.096,6.826,10.398,20.726,11.376c0.691,0.049,1.375,0.072,2.033,0.072c11.949,0,14.481-8.074,14.504-8.154l0.034-0.112
				l1.55,0.373l-0.028,0.119c-0.027,0.118-0.712,2.917-4.614,6.832C226.251,194.781,222.381,196.049,216.798,196.049z
				 M184.182,168.189c1.504,0,5.282,2.33,6.217,4.1c0.641,1.184,0.948,2.929,1.306,4.947c0.5,2.822,1.063,6.021,2.718,8.561
				c2.723,4.166,8.943,8.765,16.706,9.644c2.113,0.242,3.966,0.36,5.67,0.36c5.515,0,9.328-1.242,12.002-3.914
				c3.403-3.413,4.339-6.021,4.514-6.595l-1.082-0.261c-0.355,0.99-3.346,8.222-14.704,8.222c-0.663,0-1.354-0.025-2.052-0.074
				c-14.021-0.984-19.304-8.377-20.925-11.51c-1.108-2.12-1.285-5.213-1.469-8.486c-0.095-1.647-0.19-3.351-0.412-4.97
				c-0.641-4.674-7.805-7.727-7.876-7.757l-0.035-0.021l-17.846-15.669c-0.147,0.797-0.351,2.395,0.016,2.845
				c0.104,0.124,0.301,0.282,0.55,0.479c0.974,0.777,2.789,2.222,2.875,5.056c0.031,1.052,0.013,2.725-0.008,4.661
				c-0.042,3.874-0.104,9.728,0.377,10.072c0.182,0.131,1.406,0.351,7.557,0.351c1.842,0,3.588-0.019,4.744-0.031
				C183.574,168.193,183.979,168.189,184.182,168.189z"/>
		</g>
	</g>
	<g>
		<g>
			<path fill="#231F20" d="M270.373,163.813l-0.06-0.158l-4.674-12.62l-22.431-18.614l-14.459-17.094l6.438-0.791
				c0.003,0,0.003,0,0.005,0c0.094,0,1.22,0.042,1.788,1.711c0.023,0.117,2.014,10.165,8.011,14.553
				c6.384,4.671,12.217,7.28,15.546,8.166c0.998,0.265,2.204,0.446,3.481,0.641c3.384,0.513,7.218,1.092,7.95,3.478
				c0.622,2.014,0.596,4.319,0.573,6.354c-0.013,1.164-0.024,2.265,0.091,3.147c0.842,6.563,2.22,7.543,2.232,7.551l0.145,0.096
				l-0.136,0.106L270.373,163.813z M229.233,115.516l14.147,16.73l22.466,18.641l0.012,0.031l4.631,12.495l4.117-3.178
				c-0.379-0.388-1.493-1.971-2.22-7.617c-0.117-0.899-0.104-2.008-0.092-3.184c0.023-2.016,0.047-4.302-0.561-6.277
				c-0.688-2.237-4.442-2.807-7.754-3.308c-1.281-0.194-2.495-0.378-3.508-0.645c-4.34-1.156-10.183-4.224-15.627-8.207
				c-6.076-4.444-8.083-14.587-8.104-14.688c-0.511-1.5-1.498-1.527-1.539-1.527L229.233,115.516z"/>
		</g>
	</g>
	<g>
		<g>
			<path fill="#231F20" d="M258.711,138.667l-0.309-0.13c-0.473-0.2-11.605-4.935-14.224-7.213
				c-5.976-5.208-5.913-10.834-5.913-10.891l0.003-0.12h0.122c0.102,0,0.523-0.053,1.011-0.114c0.821-0.103,1.843-0.232,2.286-0.232
				c0.101,0,0.169,0.007,0.215,0.021c0.123,0.042,0.239,0.241,0.583,0.865c0.765,1.383,2.357,4.262,4.328,4.262l0.075-0.003
				c2.532-0.107,3.394-2.142,3.68-2.81l0.03-0.07c0.225-0.569,2.096-1.578,5.545-2.033c0.433-0.055,0.862-0.082,1.283-0.082
				c2.603,0,4.086,1.04,4.148,1.084l0.049,0.034l0.005,0.061c0.003,0.094,0.095,2.289-0.955,2.631
				c-0.441,0.146-1.478,0.369-2.678,0.629c-1.536,0.33-3.277,0.705-4.192,1.013c-1.646,0.546-4.206,3.272-4.395,4.049
				c-0.166,0.694-0.352,1.321-0.421,1.555c0.593,0.331,4.065,2.284,6.241,3.776c2.42,1.627,3.296,3.348,3.333,3.42L258.711,138.667z
				 M238.515,120.553c0.025,0.813,0.408,5.863,5.827,10.586c2.332,2.03,11.866,6.187,13.812,7.022
				c-0.367-0.571-1.305-1.826-3.063-3.01c-2.365-1.621-6.269-3.79-6.311-3.813l-0.086-0.05l0.03-0.095
				c0.001-0.007,0.236-0.77,0.444-1.635c0.226-0.928,2.909-3.68,4.556-4.226c0.929-0.311,2.677-0.688,4.219-1.02
				c1.194-0.258,2.225-0.479,2.653-0.622c0.7-0.228,0.807-1.698,0.787-2.323c-0.274-0.176-1.694-1.006-3.957-1.006
				c-0.41,0-0.83,0.026-1.251,0.081c-3.636,0.478-5.196,1.493-5.351,1.883l-0.031,0.071c-0.801,1.889-2.112,2.885-3.896,2.96
				c-0.028,0.002-0.057,0.003-0.084,0.003c-2.116,0-3.754-2.964-4.545-4.389c-0.188-0.344-0.385-0.7-0.453-0.754
				c0.003,0.001-0.039-0.005-0.128-0.005c-0.427,0-1.484,0.132-2.255,0.23C238.988,120.5,238.686,120.537,238.515,120.553z"/>
		</g>
	</g>
	<g>
		<g>
			<path fill="#231F20" d="M249.409,129.617l-0.24-0.058c0.005-0.019,0.111-0.45,0.427-1.311c0.276-0.715,0.605-1.078,0.952-1.463
				c0.092-0.102,0.186-0.206,0.278-0.318c0.222-0.287,0.629-0.691,1.062-1.121c0.397-0.397,0.813-0.809,1.126-1.173
				c0.704-0.816,2.166-1.289,3.641-1.68c2.546-0.652,4.486,0.399,4.568,0.444l-0.12,0.216c-0.02-0.011-1.94-1.049-4.384-0.422
				c-1.438,0.379-2.858,0.836-3.519,1.604c-0.32,0.37-0.737,0.785-1.139,1.186c-0.426,0.422-0.829,0.823-1.042,1.101
				c-0.102,0.119-0.196,0.226-0.289,0.329c-0.332,0.367-0.646,0.714-0.906,1.384C249.516,129.18,249.409,129.613,249.409,129.617z"
				/>
		</g>
	</g>
	<g>
		<g>
			<path fill="#231F20" d="M253.109,123.991c-0.516-0.811-1.206-1.688-1.425-1.688c-0.43,0-0.947,0.098-0.95,0.099l-0.047-0.241
				c0.021-0.005,0.542-0.104,0.997-0.104c0.454,0,1.364,1.378,1.633,1.8L253.109,123.991z"/>
		</g>
	</g>
	<g>
		<g>
			<path fill="#231F20" d="M219.322,193.508c-9.688,0-21.662-3.579-24.772-10.214c-2.094-4.421-2.277-7.955-2.426-10.794
				c-0.106-2.017-0.189-3.61-0.962-4.784c-1.766-2.722-3.023-3.646-6.983-3.763c-3.877-0.101-11.922,0.326-11.994,0.332
				l-0.162,0.008l0.035-0.158c0.01-0.046,0.993-4.585,0.761-6.616c-0.025-0.246-0.049-0.509-0.074-0.785
				c-0.182-2.033-0.434-4.817-1.855-7.003c-0.818-1.259-1.872-2.443-2.717-3.397c-0.876-0.987-1.509-1.698-1.566-2.114
				c-0.105-0.766,0.222-30.584,0.236-31.853l0.012-0.053c0.014-0.029,0.358-0.732,0.98-0.732c0.167,0,0.789,0.032,1.577,0.072
				c1.442,0.075,3.417,0.177,4.366,0.177c0.288,0,0.41-0.01,0.463-0.018c0.63-0.111,1.925-0.747,1.938-0.753l0.056-0.013
				c0.493,0.005,49.198,0.433,50.917,0.433c0.844,0,3.598,0.057,3.598,0.772c0,0.047-0.001,0.103-0.004,0.167
				c-0.009,0.447-0.029,1.38,0.45,1.453c0.176,0.03,0.54,0.045,0.963,0.063c1.634,0.066,2.999,0.162,3.165,0.687
				c0.023,0.063,0.065,0.221,0.134,0.479c2.576,9.806,6.666,14.547,9.643,16.797c9.241,6.977,16.875,8.591,16.935,8.592
				c0.09,0,9.158,0.226,9.52,3.815c0.123,1.305,0.069,2.736,0.014,4.253c-0.089,2.353-0.19,5.021,0.406,7.622
				c0.928,4.054,1.788,4.478,1.794,4.48l0.249,0.111l-0.242,0.115l-4.265,1.974l-36.487,20.894
				c-0.202,0.735-2.618,8.908-10.995,9.641C221.181,193.468,220.272,193.508,219.322,193.508z M182.828,163.691
				c0.489,0,0.946,0.005,1.358,0.016c4.069,0.12,5.362,1.072,7.182,3.874c0.808,1.229,0.893,2.853,1.001,4.905
				c0.147,2.818,0.332,6.324,2.402,10.702c1.839,3.922,6.542,6.294,10.162,7.596c4.383,1.574,9.627,2.476,14.389,2.476
				c0.941,0,1.845-0.037,2.683-0.111c8.555-0.748,10.768-9.417,10.79-9.503l0.012-0.052l0.045-0.027l36.543-20.925l4.086-1.892
				c-0.332-0.319-1.02-1.332-1.749-4.516c-0.604-2.633-0.501-5.318-0.414-7.687c0.058-1.507,0.111-2.929-0.01-4.219
				c-0.335-3.325-9.187-3.594-9.275-3.594c-0.058,0-7.753-1.597-17.083-8.641c-3.007-2.274-7.137-7.058-9.734-16.932
				c-0.061-0.235-0.104-0.405-0.126-0.462c-0.129-0.407-2.03-0.484-2.941-0.521c-0.452-0.019-0.806-0.032-0.992-0.065
				c-0.692-0.105-0.669-1.145-0.658-1.702c0.003-0.062,0.003-0.116,0.003-0.161c0-0.215-1.193-0.525-3.351-0.525
				c-1.702,0-49.456-0.421-50.89-0.434c-0.195,0.096-1.358,0.652-1.981,0.763c-0.093,0.014-0.256,0.021-0.503,0.021
				c-0.956,0-2.935-0.103-4.38-0.178c-0.783-0.04-1.402-0.072-1.563-0.072c-0.414,0-0.688,0.461-0.746,0.57
				c-0.013,1.108-0.339,31.051-0.237,31.788c0.047,0.341,0.723,1.103,1.505,1.983c0.852,0.959,1.912,2.153,2.74,3.427
				c1.456,2.236,1.709,5.057,1.895,7.116c0.024,0.274,0.047,0.536,0.073,0.779c0.215,1.877-0.555,5.702-0.731,6.539
				C173.358,163.977,179.065,163.691,182.828,163.691z M217.257,192.896C217.256,192.896,217.257,192.896,217.257,192.896
				c-0.44,0-0.896-0.013-1.356-0.035c-6.303-0.332-12.888-2.893-17.188-6.688c-0.792-0.705-1.396-1.629-1.931-2.444
				c-0.095-0.145-0.187-0.285-0.275-0.42c-3.49-5.296-1.029-12.321,1.328-14.766c2.352-2.433,7.562-2.796,10.458-2.796
				c0.854,0,1.401,0.033,1.407,0.033c3.452,0.108,13.173,1.809,16.319,4.616c3.471,3.096,4.655,6.91,3.963,12.758
				C229.235,189.438,224.715,192.896,217.257,192.896z M208.293,165.993c-2.301,0-7.908,0.266-10.28,2.721
				c-2.309,2.394-4.718,9.272-1.302,14.46c0.091,0.134,0.183,0.274,0.277,0.42c0.526,0.802,1.121,1.711,1.888,2.396
				c4.26,3.757,10.787,6.298,17.038,6.624c0.455,0.024,0.907,0.037,1.343,0.037c7.426,0,11.739-3.293,12.481-9.522
				c0.856-7.241-1.481-10.406-3.882-12.547c-3.104-2.769-12.738-4.446-16.166-4.554
				C209.678,166.027,209.139,165.993,208.293,165.993z M222.212,155.566l-0.095-0.002l-37.058-0.548l-0.325-1.342
				c-0.151-0.059-0.554-0.215-0.804-0.31c-0.323-0.093-1.179-0.206-1.186-0.207l-0.109-0.014l0.003-0.11l0.449-33.384l41.238,0.333
				l-0.003,0.126l-0.979,33.779l-0.08,0.027c-0.003,0.002-0.307,0.114-0.59,0.608c-0.306,0.514-0.436,0.948-0.436,0.952
				L222.212,155.566z M185.254,154.772l36.777,0.545c0.055-0.159,0.189-0.513,0.43-0.918c0.246-0.425,0.512-0.609,0.643-0.679
				l0.968-33.493l-40.742-0.329l-0.444,33.03c0.246,0.034,0.845,0.122,1.122,0.203c0.324,0.119,0.879,0.337,0.879,0.337l0.06,0.023
				L185.254,154.772z"/>
		</g>
	</g>
	<g>
		<g>
			<path fill="#231F20" d="M225.59,149.132l-1.228-0.126l0.066-0.154c0.04-0.097,4.129-9.729,4.44-12.619
				c0.209-1.792-0.418-4.255-1.079-6.863c-0.412-1.617-0.837-3.289-1.08-4.879c-0.625-3.944-0.856-4.186-1.42-4.771l-0.074-0.078
				c-0.63-0.618-1.067-0.835-1.07-0.837l-0.069-0.034v-0.647h0.123c0.056,0,1.386,0.009,1.97,0.814
				c0.509,0.739,3.708,8.708,3.708,16.431c0,3.746-1.025,6.441-2.167,9.098c-1.069,2.439-2.073,4.565-2.082,4.587L225.59,149.132z
				 M224.721,148.794l0.721,0.074c0.191-0.406,1.091-2.33,2.041-4.5c1.132-2.632,2.148-5.301,2.148-9
				c0-7.67-3.161-15.56-3.663-16.289c-0.414-0.57-1.316-0.683-1.645-0.704v0.245c0.151,0.087,0.546,0.334,1.067,0.85l0.077,0.08
				c0.603,0.623,0.849,0.881,1.485,4.904c0.243,1.576,0.665,3.243,1.075,4.854c0.669,2.63,1.301,5.115,1.084,6.953
				C228.818,139.017,225.268,147.498,224.721,148.794z"/>
		</g>
	</g>
	<g>
		<g>
			<path fill="#231F20" d="M223.112,160.935l-0.011-0.151c-0.035-0.516-0.338-5.05-0.204-5.492c0.101-0.413,0.785-0.57,1.07-0.617
				l-0.392-11.477l0.246-0.008l0.398,11.698l-0.111,0.014c-0.345,0.042-0.913,0.201-0.975,0.455
				c-0.093,0.301,0.067,3.251,0.203,5.259l0.618-0.176c1.228-0.346,1.895-1.081,1.989-2.184c0.105-1.514,2.406-15.649,2.504-16.251
				l0.242,0.041c-0.024,0.146-2.396,14.725-2.5,16.229c-0.103,1.2-0.854,2.029-2.168,2.401L223.112,160.935z"/>
		</g>
	</g>
	<g>
		<g>
			<path fill="#231F20" d="M231.182,115.996l-0.684-3.743l0.003-0.02l0.463-3.036l0.097-0.009c0.029-0.002,2.988-0.243,4.944-0.243
				c1.708,0,1.851,0.182,1.851,0.366c0,0.559-1.47,5.599-1.532,5.813l-0.023,0.076l-0.077,0.011L231.182,115.996z M230.749,112.25
				l0.633,3.465l4.726-0.733c0.432-1.481,1.469-5.127,1.5-5.647c-0.057-0.037-0.326-0.143-1.603-0.143
				c-1.746,0-4.3,0.193-4.826,0.236L230.749,112.25z"/>
		</g>
	</g>
	<g>
		<g>
			<path fill="#231F20" d="M234.941,112.878c-0.236,0-1.314-0.031-2.179-0.055c-0.594-0.017-1.092-0.03-1.166-0.03
				c-0.323,0-0.521-0.248-0.596-0.74c-0.078-0.551-0.054-3.275-0.054-3.391v-0.038l0.022-0.031l1.564-2.244h1.268v0.938h1.016
				v-0.928l0.098-0.021c0.006-0.002,0.061-0.014,0.155-0.014c0.328,0,1.004,0.125,1.853,0.968c1.165,1.128,1.296,2.736,0.329,4.094
				C236.259,112.733,235.304,112.878,234.941,112.878z M231.193,108.702c-0.003,0.339-0.021,2.817,0.053,3.316
				c0.078,0.527,0.276,0.527,0.351,0.527c0.077,0,0.577,0.015,1.172,0.031c0.864,0.023,1.939,0.055,2.173,0.055
				c0.326,0,1.184-0.136,2.111-1.391c0.89-1.252,0.772-2.733-0.302-3.773c-0.817-0.81-1.447-0.896-1.681-0.896
				c-0.001,0-0.004,0-0.007,0v0.961h-1.508v-0.937h-0.895L231.193,108.702z"/>
		</g>
	</g>
	<g>
		<g>
			<rect x="233.556" y="104.526" fill="#231F20" width="0.246" height="1.945"/>
		</g>
	</g>
	<g>
		<g>
			<path fill="#231F20" d="M234.414,111.582c-1.055,0-1.913-0.863-1.913-1.924c0-1.055,0.858-1.911,1.913-1.911
				c1.056,0,1.912,0.856,1.912,1.911C236.326,110.719,235.47,111.582,234.414,111.582z M234.414,107.993
				c-0.919,0-1.666,0.747-1.666,1.665c0,0.924,0.747,1.678,1.666,1.678s1.666-0.754,1.666-1.678
				C236.08,108.74,235.333,107.993,234.414,107.993z"/>
		</g>
	</g>
	<g>
		<g>
			<path fill="#231F20" d="M234.362,110.977c-0.704,0-1.256-0.554-1.256-1.262c0-0.704,0.563-1.276,1.256-1.276
				c0.707,0,1.281,0.572,1.281,1.276C235.644,110.411,235.069,110.977,234.362,110.977z M234.362,108.686
				c-0.557,0-1.01,0.462-1.01,1.029c0,0.57,0.444,1.017,1.01,1.017c0.57,0,1.033-0.456,1.033-1.017
				C235.396,109.147,234.933,108.686,234.362,108.686z"/>
		</g>
	</g>
	<g>
		<polyline fill="#231F20" points="233.702,108.087 235.757,110.854 235.256,111.214 233.046,108.505 233.702,108.087 		"/>
	</g>
	<g>
		<g>
			<path fill="#231F20" d="M235.256,111.215L235.256,111.215l-2.21-2.71l0.656-0.418l2.055,2.767L235.256,111.215z M233.702,108.087
				l-0.656,0.418l2.21,2.708l0.501-0.359L233.702,108.087z"/>
		</g>
	</g>
	<g>
		<path fill="#231F20" d="M230.992,109.888c0,0-4.922,0-5.344,0.058c-0.422,0.073-1.159,0.548-1.159,0.548l6.319,0.086
			L230.992,109.888"/>
	</g>
	<g>
		<g>
			<path fill="#231F20" d="M230.809,110.579l-6.319-0.086c0.006-0.005,0.741-0.475,1.159-0.548c0.415-0.058,5.295-0.058,5.344-0.058
				L230.809,110.579z M230.992,109.888c-0.049,0-4.929,0.001-5.344,0.058c-0.418,0.073-1.153,0.543-1.159,0.548l6.319,0.086
				L230.992,109.888z"/>
		</g>
	</g>
	<g>
		<g>
			<path fill="#231F20" d="M242.924,136.96l-0.012-0.246c0.011,0,1.139-0.06,2.301-0.257l0.042,0.241
				C244.078,136.899,242.936,136.96,242.924,136.96z"/>
		</g>
	</g>
	<g>
		<g>
			<path fill="#231F20" d="M249.851,147.329c-0.145,0-0.293-0.002-0.438-0.003c-0.146-0.002-0.294-0.005-0.438-0.005
				c-1.813,0-11.882-1.217-13.32-1.515c-0.907-0.188-1.803-0.855-2.283-1.702c-0.433-0.768-0.504-1.624-0.204-2.479
				c0.791-2.168,1.557-2.759,2.612-3.047c0.474-0.135,1.758-0.625,5.165-2.199c0.525-0.254,1.543-0.683,2.48-0.683
				c0.432,0,0.805,0.091,1.109,0.271c0.476,0.279,1.371,0.973,2.318,1.706c1.204,0.934,2.569,1.989,3.228,2.311
				c0.162,0.082,0.34,0.16,0.528,0.241c1.193,0.52,2.825,1.231,2.567,4.074C252.902,147.096,251.383,147.329,249.851,147.329z
				 M243.424,135.942c-0.888,0-1.868,0.413-2.374,0.66c-2.71,1.251-4.511,2.017-5.207,2.213c-1,0.273-1.687,0.815-2.446,2.893
				c-0.272,0.784-0.207,1.571,0.19,2.276c0.505,0.894,1.428,1.438,2.117,1.581c1.432,0.296,11.463,1.51,13.27,1.51
				c0.146,0,0.293,0.002,0.441,0.004c0.146,0.002,0.291,0.004,0.436,0.004c1.533,0,2.826-0.212,3.081-2.808
				c0.24-2.664-1.236-3.308-2.423-3.825c-0.192-0.084-0.376-0.163-0.539-0.247c-0.68-0.329-1.996-1.35-3.271-2.336
				c-0.94-0.729-1.83-1.416-2.291-1.688C244.143,136.022,243.811,135.942,243.424,135.942z"/>
		</g>
	</g>
	<g>
		<g>
			<path fill="#231F20" d="M244.499,145.275L244.499,145.275c-0.154,0-0.306-0.015-0.448-0.045
				c-0.191-0.041-0.592-0.103-1.097-0.181c-1.674-0.259-4.475-0.692-5.516-1.228c-1.388-0.73-0.986-3.012-0.475-4.015
				c0.383-0.707,2.895-2.298,4.747-3.433c0.185-0.112,0.314-0.192,0.379-0.232c0.117-0.08,0.224-0.119,0.326-0.119
				c0.321,0,0.434,0.385,0.49,0.675c0.128,0.501,2.838,8.063,2.864,8.14l0.037,0.1l-0.093,0.05
				C245.69,144.998,245.16,145.275,244.499,145.275z M242.416,136.271c-0.034,0-0.096,0.014-0.193,0.078
				c-0.063,0.042-0.197,0.123-0.381,0.236c-1.056,0.646-4.267,2.609-4.66,3.337c-0.41,0.807-0.891,3.017,0.371,3.682
				c1.004,0.517,3.779,0.946,5.438,1.203c0.511,0.078,0.913,0.141,1.11,0.183c0.127,0.026,0.26,0.039,0.397,0.039
				c0.441,0,0.83-0.141,1.002-0.215c-0.344-0.96-2.71-7.569-2.835-8.061C242.622,136.528,242.545,136.271,242.416,136.271z"/>
		</g>
	</g>
	<g>
		<g>
			<path fill="#231F20" d="M240.233,144.18c-1.49,0-2.703-1.205-2.703-2.688s1.213-2.689,2.703-2.689
				c1.475,0,2.676,1.207,2.676,2.689S241.708,144.18,240.233,144.18z M240.233,139.05c-1.354,0-2.457,1.095-2.457,2.442
				c0,1.345,1.104,2.441,2.457,2.441c1.339,0,2.43-1.097,2.43-2.441C242.663,140.145,241.572,139.05,240.233,139.05z"/>
		</g>
	</g>
	<g>
		<g>
			<path fill="#231F20" d="M240.233,144.009c-1.287,0-2.335-1.052-2.335-2.344c0-1.305,1.025-2.329,2.335-2.329
				c1.287,0,2.333,1.046,2.333,2.329C242.566,142.957,241.521,144.009,240.233,144.009z M240.233,139.583
				c-1.172,0-2.089,0.915-2.089,2.082c0,1.156,0.937,2.098,2.089,2.098c1.148,0,2.087-0.941,2.087-2.098
				C242.32,140.517,241.382,139.583,240.233,139.583z"/>
		</g>
	</g>
	<g>
		<g>
			<path fill="#231F20" d="M242.05,142.858l-0.113-0.111c-0.006-0.005-0.582-0.558-2.1-0.903c-1.423-0.317-1.764-0.291-1.795-0.287
				l-0.223,0.031l0.526-1.16l0.098,0.021c0,0,0.764,0.173,1.867,0.403c1.124,0.233,2.118,1.043,2.16,1.077l0.08,0.066
				L242.05,142.858z M238.213,141.313c0.241,0.015,0.728,0.078,1.678,0.29c1.218,0.277,1.856,0.682,2.1,0.868l0.24-0.415
				c-0.257-0.194-1.085-0.777-1.971-0.962c-0.873-0.183-1.534-0.328-1.773-0.382L238.213,141.313z"/>
		</g>
	</g>
	<g>
		<g>
			<path fill="#231F20" d="M249.558,146.656c-0.98,0-1.91-0.265-2.944-0.561c-0.268-0.076-0.545-0.156-0.831-0.232
				c-1.714-0.457-5.588-1.216-5.628-1.223l0,0c-0.012,0-2.271-0.167-3.297,0c-1.088,0.197-2.126,0.285-2.861-0.803
				c-0.721-1.109-0.641-2.517-0.409-3.191l0.232,0.079c-0.215,0.63-0.289,1.942,0.383,2.977c0.652,0.964,1.53,0.892,2.612,0.695
				c1.057-0.174,3.281-0.008,3.376-0.002c0.052,0.01,3.934,0.771,5.654,1.229c0.289,0.077,0.566,0.156,0.833,0.233
				c1.388,0.395,2.479,0.707,3.773,0.47c1.505-0.274,2.408-1.799,2.417-1.814l0.214,0.124c-0.041,0.067-0.969,1.639-2.586,1.934
				C250.174,146.63,249.863,146.656,249.558,146.656z"/>
		</g>
	</g>
	<g>
		<g>
			<path fill="#231F20" d="M250.506,146.266c-0.219,0-0.464-0.012-0.729-0.04c-1.11-0.13-4.118-1.354-4.246-1.406l0.065-0.236
				c0.012,0.002,1.533,0.219,3.873-0.415c2.324-0.622,3.569-1.266,3.582-1.271l0.112,0.218c-0.012,0.007-1.275,0.663-3.633,1.292
				c-1.412,0.383-2.521,0.464-3.202,0.464c0.981,0.38,2.719,1.022,3.476,1.111c1.067,0.111,1.791-0.068,1.798-0.069l0.062,0.239
				C251.639,146.157,251.204,146.266,250.506,146.266z"/>
		</g>
	</g>
	<g>
		<g>
			<path fill="#231F20" d="M245.424,144.065l-0.012-0.246c0.023-0.002,2.32-0.12,3.816-0.572c1.477-0.467,3.392-1.213,3.41-1.221
				l0.092,0.229c-0.02,0.007-1.942,0.756-3.431,1.228C247.773,143.944,245.447,144.064,245.424,144.065z"/>
		</g>
	</g>
	<g>
		<g>
			<path fill="#231F20" d="M245.135,143.129l-0.012-0.247c0.023-0.001,2.32-0.118,3.814-0.57c1.121-0.349,2.526-0.874,3.149-1.122
				l0.092,0.229c-0.627,0.249-2.042,0.777-3.17,1.128C247.484,143.008,245.158,143.127,245.135,143.129z"/>
		</g>
	</g>
	<g>
		<g>
			<path fill="#231F20" d="M244.766,142.322l-0.012-0.247c0.023-0.001,2.346-0.12,3.813-0.586c0.788-0.228,1.641-0.541,2.324-0.794
				l0.383-0.141l0.083,0.231l-0.38,0.141c-0.688,0.254-1.545,0.568-2.34,0.8C247.144,142.199,244.863,142.317,244.766,142.322z"/>
		</g>
	</g>
	<g>
		<g>
			<path fill="#231F20" d="M244.241,141.442l-0.013-0.247c0.022-0.001,2.345-0.119,3.813-0.57c0.622-0.198,1.336-0.431,1.914-0.659
				l0.09,0.229c-0.584,0.233-1.303,0.466-1.929,0.665C246.616,141.322,244.336,141.438,244.241,141.442z"/>
		</g>
	</g>
	<g>
		<g>
			<path fill="#231F20" d="M243.95,140.563l-0.012-0.247c0.023-0.001,2.346-0.12,3.813-0.57c0.406-0.119,0.8-0.249,1.179-0.387
				l0.084,0.23c-0.383,0.141-0.782,0.271-1.192,0.392C246.325,140.441,244.045,140.559,243.95,140.563z"/>
		</g>
	</g>
	<g>
		<g>
			<path fill="#231F20" d="M243.793,139.641l-0.012-0.247c0.023,0,2.318-0.12,3.813-0.584c0.16-0.045,0.342-0.102,0.524-0.16
				l0.074,0.236c-0.186,0.06-0.371,0.115-0.531,0.16C246.143,139.519,243.816,139.64,243.793,139.641z"/>
		</g>
	</g>
	<g>
		<g>
			<path fill="#231F20" d="M243.556,138.762l-0.012-0.246c0.021-0.002,2.161-0.105,3.657-0.529l0.067,0.237
				C245.745,138.655,243.576,138.76,243.556,138.762z"/>
		</g>
	</g>
	<g>
		<g>
			<path fill="#231F20" d="M243.266,137.883l-0.011-0.246c0.017-0.001,1.611-0.076,3.005-0.372l0.054,0.24
				C244.899,137.806,243.283,137.883,243.266,137.883z"/>
		</g>
	</g>
	<g>
		<g>
			<path fill="#231F20" d="M247.891,145.692l-0.047-0.243c0.019-0.004,2.032-0.405,3.019-0.688c0.951-0.297,2.001-0.754,2.012-0.758
				l0.097,0.226c-0.009,0.004-1.07,0.467-2.039,0.768C249.934,145.283,247.912,145.687,247.891,145.692z"/>
		</g>
	</g>
	<g>
		<g>
			
				<rect x="240.138" y="140.381" transform="matrix(0.3554 0.9347 -0.9347 0.3554 289.2874 -138.4974)" fill="#231F20" width="9.852" height="0.247"/>
		</g>
	</g>
	<g>
		<g>
			
				<rect x="241.221" y="140.728" transform="matrix(0.3568 0.9342 -0.9342 0.3568 289.9889 -139.4682)" fill="#231F20" width="10.105" height="0.246"/>
		</g>
	</g>
	<g>
		<g>
			
				<rect x="242.639" y="141.376" transform="matrix(0.3554 0.9347 -0.9347 0.3554 291.829 -140.1939)" fill="#231F20" width="9.852" height="0.247"/>
		</g>
	</g>
	<g>
		<g>
			
				<rect x="244.651" y="142.147" transform="matrix(0.3557 0.9346 -0.9346 0.3557 293.3339 -140.9638)" fill="#231F20" width="8.511" height="0.248"/>
		</g>
	</g>
	<g>
		<g>
			
				<rect x="246.59" y="142.565" transform="matrix(0.3566 0.9343 -0.9343 0.3566 294.2747 -141.9156)" fill="#231F20" width="7.159" height="0.247"/>
		</g>
	</g>
	<g>
		<g>
			
				<rect x="248.519" y="142.739" transform="matrix(0.3515 0.9362 -0.9362 0.3515 296.6986 -142.6107)" fill="#231F20" width="5.542" height="0.246"/>
		</g>
	</g>
	<g>
		<g>
			
				<rect x="250.201" y="142.535" transform="matrix(0.3536 0.9354 -0.9354 0.3536 296.5043 -143.7386)" fill="#231F20" width="4.099" height="0.247"/>
		</g>
	</g>
	<g>
		<g>
			<path fill="#231F20" d="M263.979,247.025c-1.715,0-2.95-0.042-3.672-0.122c-4.406-0.492-4.543-0.698-4.434-2.437l0.006-0.1
				c0.03-0.457,0.134-1.636,0.276-3.265c0.392-4.383,1.04-11.719,1.04-14.511c0-3.78-1.094-28.265-3.798-32.563
				c-2.55-4.065-8.538-5.545-11.674-5.778c-1.938-0.144-4.518-0.241-6.42-0.241c-0.712,0-1.281,0.015-1.697,0.04
				c-0.133,0.009-0.271,0.016-0.411,0.016c-0.469,0-1.113-0.07-1.319-0.69c-0.298-0.992,0.187-2.725,0.207-2.798l0.019-0.034
				c0.056-0.098,0.069-0.747,0.083-1.432c0.077-3.642,0.258-12.171,5.767-16.067c4.866-3.447,6.755-3.689,8.757-3.947
				c1.008-0.129,2.052-0.264,3.54-0.795c0.074-0.014,5.281-0.97,6.847-6.546l2.729-16.067l0.112,0.011
				c0.32,0.029,7.896,0.739,9.723,3.16c1.385,1.834,1.329,3.727,1.259,6.121c-0.024,0.816-0.049,1.661-0.021,2.597
				c0.106,3.743,1.108,6.488,1.784,7.241c0.632,0.744,1.364,0.473,1.366,0.473l0.095-0.034l0.054,0.087
				c0.037,0.06,3.622,6.04,4.917,7.831c1.301,1.814,7.487,11.975,12.361,22.312c1.979,4.181,4.078,11.988,6.109,19.538
				c0.44,1.638,0.881,3.276,1.319,4.881c2.814,10.146,5.384,18.558,5.738,19.682c0.166,0.539,0.36,1.122,0.559,1.724
				c0.891,2.684,1.899,5.726,1.14,6.927c-1.288,1.954-4.741,3.058-10.862,3.473C289.603,246.096,272.2,247.025,263.979,247.025z
				 M235.304,187.763c1.906,0,4.495,0.096,6.438,0.241c0.701,0.052,3.196,0.306,5.921,1.381c2.746,1.083,4.745,2.602,5.942,4.513
				c2.731,4.341,3.837,28.903,3.837,32.694c0,2.803-0.65,10.145-1.04,14.533c-0.138,1.566-0.248,2.805-0.276,3.257l-0.006,0.1
				c-0.098,1.536-0.106,1.696,4.214,2.179c0.713,0.077,1.939,0.119,3.646,0.119c8.214,0,25.609-0.928,31.48-1.316
				c5.957-0.403,9.447-1.504,10.672-3.359c0.697-1.101-0.294-4.084-1.165-6.717c-0.2-0.602-0.395-1.188-0.561-1.726
				c-0.356-1.127-2.924-9.539-5.739-19.69c-0.44-1.605-0.881-3.244-1.321-4.883c-2.029-7.54-4.126-15.336-6.097-19.496
				c-4.865-10.324-11.041-20.466-12.335-22.274c-1.222-1.685-4.448-7.045-4.884-7.768c-0.249,0.059-0.936,0.138-1.536-0.569
				c-0.699-0.779-1.737-3.592-1.844-7.397c-0.027-0.942-0.003-1.79,0.021-2.609c0.07-2.348,0.123-4.202-1.21-5.967
				c-1.644-2.18-8.467-2.953-9.434-3.053l-2.692,15.855c-1.611,5.742-6.971,6.722-7.024,6.729c-1.491,0.534-2.55,0.67-3.571,0.801
				c-2.057,0.266-3.83,0.493-8.646,3.905c-5.408,3.823-5.586,12.265-5.662,15.871c-0.02,0.964-0.034,1.385-0.114,1.542
				c-0.046,0.166-0.469,1.766-0.206,2.642c0.117,0.358,0.452,0.519,1.084,0.519c0.134,0,0.267-0.007,0.395-0.016
				C234.011,187.777,234.589,187.763,235.304,187.763z"/>
		</g>
	</g>
	<g>
		<g>
			<path fill="#231F20" d="M232.704,187.881L232.704,187.881c-0.216,0-0.533-0.083-0.812-0.475c-0.426-0.655,0.17-2.265,0.193-2.333
				l0.043-0.113l2.223,0.783l-0.213,0.815c-0.223,0.75-1.127,1.251-1.166,1.272C232.949,187.843,232.852,187.881,232.704,187.881z
				 M232.276,185.271c-0.171,0.504-0.454,1.578-0.182,1.997c0.216,0.301,0.451,0.366,0.609,0.366l0,0c0.1,0,0.165-0.026,0.165-0.026
				l0,0c-0.003,0,0.839-0.469,1.032-1.115l0.155-0.593L232.276,185.271z"/>
		</g>
	</g>
	<g>
		<g>
			<path fill="#231F20" d="M252.476,192.922c-0.019-0.032-2.024-3.096-5.652-4.478c-3.65-1.376-12.718-1.789-12.81-1.794
				l0.012-0.246c0.092,0.005,9.198,0.421,12.884,1.809c3.707,1.412,5.756,4.543,5.775,4.575L252.476,192.922z"/>
		</g>
	</g>
	<g>
		<g>
			<path fill="#231F20" d="M256.398,245.78l-0.16-0.186c0,0,0.578-0.507,1.29-1.112c0.707-0.604,3.457-1.927,8.804-2.638
				c5.615-0.745,27.062-2.707,33.578-1.611c3.983,0.678,6.292,1.227,6.502,1.551l0.027,0.046l-0.006,0.068l-0.239-0.063l0.12,0.03
				l-0.106,0.056c-0.042-0.044-0.569-0.465-6.338-1.446c-6.493-1.089-27.898,0.868-33.506,1.614
				c-5.29,0.701-7.988,1.995-8.676,2.581C256.979,245.274,256.398,245.78,256.398,245.78z"/>
		</g>
	</g>
	<g>
		<g>
			
				<rect x="280.89" y="219.579" transform="matrix(0.0555 0.9985 -0.9985 0.0555 509.1716 -49.9999)" fill="#231F20" width="0.246" height="49.085"/>
		</g>
	</g>
	<g>
		<g>
			<path fill="#231F20" d="M261.415,188.473c-0.798-2.162-1.402-3.079-1.408-3.087l0.204-0.138c0.027,0.038,0.625,0.945,1.436,3.14
				L261.415,188.473z"/>
		</g>
	</g>
	<g>
		<g>
			<path fill="#231F20" d="M259.378,232.514c-0.33,0-0.472-0.146-0.472-0.489c0-0.448,0.508-3.158,1.519-4.792
				c1.053-1.682,2.313-7.771,2.694-19.827c0.413-12.986-1.07-17.153-1.704-18.935l-1.477-3.231l0.137-0.04
				c0.081-0.023,8.254-2.448,12.212-6.695c3.963-4.239,5.773-9.444,5.793-9.497l0.09-0.264l0.134,0.244
				c0.108,0.197,10.923,20.012,16.992,38.485c5.942,18.111,6.79,21.388,6.325,22.031c-0.074,0.104-0.185,0.151-0.323,0.134
				c-0.523-0.057-3.937-0.14-8.096-0.14c-2.944,0-7.256,0.043-11.076,0.243c-8.165,0.409-21.443,2.586-21.576,2.606l-0.312,0.053
				C259.836,232.469,259.571,232.514,259.378,232.514z M260.279,185.394l1.364,2.985c0.641,1.803,2.135,6.002,1.723,19.034
				c-0.384,12.104-1.662,18.242-2.73,19.95c-0.984,1.586-1.483,4.277-1.483,4.661c0,0.22,0.047,0.243,0.226,0.243
				c0.172,0,0.442-0.045,0.818-0.109l0.314-0.054c0.131-0.022,13.425-2.199,21.602-2.609c3.828-0.2,8.143-0.243,11.09-0.243
				c4.166,0,7.595,0.083,8.122,0.143c0.063-0.005,0.08-0.013,0.095-0.034c0.427-0.589-0.999-5.481-6.358-21.813
				c-5.701-17.354-15.596-35.894-16.843-38.203c-0.421,1.111-2.258,5.591-5.75,9.326
				C268.747,182.665,261.374,185.056,260.279,185.394z"/>
		</g>
	</g>
	<g>
		<g>
			<path fill="#231F20" d="M295.064,229.364c0,0-1.816-4.02-4.712-10.446c-1.788-3.932-4.106-8.061-6.151-11.704
				c-1.325-2.36-2.575-4.59-3.588-6.579c-2.604-5.059-9.983-20.228-10.058-20.38l0.221-0.108
				c0.074,0.152,7.455,15.319,10.057,20.375c1.01,1.987,2.261,4.214,3.583,6.571c2.048,3.648,4.368,7.78,6.162,11.722
				c2.895,6.429,4.712,10.449,4.712,10.449L295.064,229.364z"/>
		</g>
	</g>
	<g>
		<g>
			<path fill="#231F20" d="M293.484,229.35c-0.644-1.454-2.145-4.765-4.217-9.348l-0.126-0.277
				c-1.789-3.935-4.108-8.065-6.154-11.71c-1.324-2.357-2.575-4.586-3.585-6.573c-2.577-5.058-9.984-20.227-10.058-20.379
				l0.222-0.108c0.074,0.151,7.48,15.32,10.056,20.374c1.008,1.987,2.256,4.211,3.579,6.565c2.049,3.648,4.37,7.785,6.164,11.728
				l0.128,0.278c2.072,4.584,3.57,7.895,4.217,9.351L293.484,229.35z"/>
		</g>
	</g>
	<g>
		<g>
			<path fill="#231F20" d="M291.826,229.364c-0.235-0.519-0.521-1.156-0.856-1.9c-0.781-1.737-1.851-4.113-3.145-6.947
				c-1.79-3.971-4.137-8.137-6.208-11.813c-1.305-2.313-2.535-4.502-3.531-6.456c-2.577-5.056-9.957-20.24-10.031-20.393
				l0.222-0.108c0.073,0.154,7.453,15.335,10.028,20.391c0.994,1.948,2.225,4.133,3.529,6.444c2.072,3.682,4.421,7.853,6.215,11.834
				c1.294,2.832,2.363,5.21,3.145,6.946c0.337,0.746,0.621,1.384,0.858,1.902L291.826,229.364z"/>
		</g>
	</g>
	<g>
		<g>
			<path fill="#231F20" d="M290.3,229.335c-0.857-1.907-2.166-4.787-3.687-8.111c-1.824-4.051-4.213-8.294-6.321-12.037
				c-1.258-2.233-2.445-4.342-3.416-6.23c-2.58-5.075-9.959-20.243-10.031-20.395l0.22-0.108
				c0.073,0.152,7.454,15.318,10.031,20.391c0.97,1.884,2.155,3.991,3.41,6.221c2.11,3.748,4.504,7.997,6.333,12.057
				c1.519,3.324,2.827,6.206,3.686,8.114L290.3,229.335z"/>
		</g>
	</g>
	<g>
		<g>
			<path fill="#231F20" d="M288.589,229.379c-0.265-0.578-0.558-1.233-0.884-1.958c-0.691-1.533-1.521-3.379-2.485-5.49
				c-1.798-3.952-4.127-8.098-6.183-11.756c-1.313-2.335-2.554-4.544-3.558-6.515c-2.577-5.071-9.957-20.239-10.031-20.393
				l0.222-0.107c0.074,0.153,7.453,15.318,10.029,20.389c1.002,1.967,2.241,4.171,3.552,6.506c2.058,3.662,4.392,7.813,6.191,11.772
				c0.967,2.111,1.797,3.958,2.486,5.491c0.326,0.727,0.621,1.382,0.884,1.96L288.589,229.379z"/>
		</g>
	</g>
	<g>
		<g>
			<path fill="#231F20" d="M287.297,229.438l-0.794-1.754c-0.655-1.441-1.427-3.138-2.285-5.047
				c-1.788-3.936-4.109-8.068-6.157-11.716c-1.322-2.354-2.572-4.581-3.58-6.568c-2.577-5.059-9.984-20.226-10.059-20.378
				l0.221-0.108c0.074,0.151,7.48,15.318,10.057,20.374c1.009,1.983,2.257,4.206,3.578,6.562c2.049,3.65,4.372,7.787,6.166,11.732
				c0.859,1.911,1.629,3.605,2.283,5.047l0.796,1.754L287.297,229.438z"/>
		</g>
	</g>
	<g>
		<g>
			<path fill="#231F20" d="M285.481,229.524c-0.668-1.503-1.705-3.819-2.975-6.586c-1.788-3.935-4.108-8.065-6.154-11.709
				c-1.324-2.357-2.574-4.585-3.586-6.574c-2.576-5.059-9.955-20.228-10.028-20.38l0.221-0.106
				c0.072,0.152,7.453,15.318,10.026,20.374c1.01,1.986,2.26,4.21,3.582,6.564c2.049,3.65,4.371,7.787,6.165,11.729
				c1.269,2.767,2.304,5.083,2.974,6.587L285.481,229.524z"/>
		</g>
	</g>
	<g>
		<g>
			<path fill="#231F20" d="M283.64,229.555c-0.43-0.935-0.904-1.99-1.43-3.155c-0.376-0.835-0.776-1.726-1.203-2.669
				c-1.797-3.952-4.13-8.101-6.186-11.763c-1.313-2.334-2.552-4.538-3.554-6.506c-2.578-5.059-9.982-20.24-10.057-20.394
				l0.219-0.108c0.074,0.154,7.481,15.333,10.057,20.391c1.001,1.962,2.239,4.165,3.548,6.498c2.062,3.664,4.395,7.816,6.197,11.779
				c0.428,0.944,0.828,1.834,1.203,2.671c0.524,1.165,0.999,2.218,1.428,3.15L283.64,229.555z"/>
		</g>
	</g>
	<g>
		<g>
			<path fill="#231F20" d="M282.16,229.676c-0.104-0.272-0.236-0.547-0.363-0.813c-1.784-3.959-4.12-8.109-6.182-11.773
				c-1.314-2.334-2.556-4.541-3.558-6.513c-2.578-5.059-9.957-20.226-10.031-20.377l0.222-0.11
				c0.074,0.154,7.452,15.32,10.029,20.377c0.999,1.966,2.238,4.17,3.552,6.503c2.067,3.668,4.403,7.825,6.191,11.79
				c0.122,0.253,0.263,0.544,0.372,0.827L282.16,229.676z"/>
		</g>
	</g>
	<g>
		<g>
			<path fill="#231F20" d="M280.772,229.788c-1.428-2.802-2.976-5.558-4.475-8.222c-1.301-2.316-2.529-4.505-3.531-6.462
				c-2.576-5.059-9.955-20.242-10.028-20.395l0.221-0.106c0.072,0.152,7.453,15.33,10.026,20.389
				c0.999,1.954,2.228,4.14,3.529,6.452c1.497,2.667,3.048,5.424,4.477,8.231L280.772,229.788z"/>
		</g>
	</g>
	<g>
		<g>
			<path fill="#231F20" d="M279.194,229.776c-0.791-1.44-1.589-2.861-2.36-4.237c-1.313-2.336-2.553-4.545-3.566-6.516
				c-2.577-5.072-9.957-20.241-10.031-20.394l0.222-0.109c0.074,0.154,7.455,15.319,10.028,20.392
				c1.012,1.966,2.249,4.172,3.562,6.507c0.772,1.375,1.571,2.798,2.362,4.239L279.194,229.776z"/>
		</g>
	</g>
	<g>
		<g>
			<path fill="#231F20" d="M277.352,229.836l-0.372-0.654c-1.414-2.493-2.748-4.848-3.816-6.945
				c-2.579-5.07-9.957-20.241-10.031-20.394l0.222-0.108c0.072,0.154,7.453,15.32,10.029,20.389
				c1.064,2.096,2.399,4.448,3.812,6.938l0.369,0.654L277.352,229.836z"/>
		</g>
	</g>
	<g>
		<g>
			<path fill="#231F20" d="M275.85,230.127c-0.89-1.588-1.758-3.194-2.582-4.776c-2.577-5.073-9.957-20.241-10.031-20.395
				l0.222-0.108c0.074,0.154,7.455,15.321,10.028,20.39c0.821,1.58,1.69,3.185,2.58,4.768L275.85,230.127z"/>
		</g>
	</g>
	<g>
		<g>
			<path fill="#231F20" d="M274.323,230.251c-0.11-0.204-0.22-0.409-0.329-0.61c-0.26-0.48-0.505-0.935-0.727-1.381
				c-2.577-5.057-9.957-20.24-10.031-20.394l0.222-0.107c0.074,0.152,7.455,15.333,10.028,20.39
				c0.223,0.445,0.466,0.896,0.724,1.376c0.11,0.2,0.22,0.405,0.329,0.611L274.323,230.251z"/>
		</g>
	</g>
	<g>
		<g>
			<path fill="#231F20" d="M272.873,230.465c-2.812-5.542-9.673-19.646-9.741-19.787l0.222-0.108
				c0.069,0.141,6.931,14.243,9.739,19.784L272.873,230.465z"/>
		</g>
	</g>
	<g>
		<g>
			<path fill="#231F20" d="M271.662,230.711c-3.149-6.326-8.686-17.699-8.74-17.815l0.221-0.106
				c0.055,0.114,5.591,11.487,8.74,17.812L271.662,230.711z"/>
		</g>
	</g>
	<g>
		<g>
			<path fill="#231F20" d="M270.265,230.868c-3.174-6.411-7.485-15.274-7.526-15.363l0.221-0.108
				c0.043,0.088,4.354,8.952,7.527,15.361L270.265,230.868z"/>
		</g>
	</g>
	<g>
		<g>
			<path fill="#231F20" d="M268.634,231.084c-2.942-5.927-6.181-12.602-6.213-12.669l0.222-0.107
				c0.033,0.066,3.271,6.739,6.213,12.667L268.634,231.084z"/>
		</g>
	</g>
	<g>
		<g>
			
				<rect x="259.11" y="225.798" transform="matrix(0.4404 0.8978 -0.8978 0.4404 351.0309 -111.3594)" fill="#231F20" width="11.479" height="0.247"/>
		</g>
	</g>
	<g>
		<g>
			<path fill="#231F20" d="M265.766,231.315c-2.133-4.383-3.95-8.071-3.95-8.071l0.223-0.109c0,0,1.814,3.691,3.948,8.071
				L265.766,231.315z"/>
		</g>
	</g>
	<g>
		<g>
			
				<rect x="259.459" y="228.357" transform="matrix(0.4396 0.8982 -0.8982 0.4396 352.4761 -107.9894)" fill="#231F20" width="6.644" height="0.244"/>
		</g>
	</g>
	<g>
		<g>
			<path fill="#231F20" d="M261.077,231.991c-0.894-1.829-1.474-3.025-1.474-3.025l0.221-0.108c0,0,0.58,1.198,1.476,3.026
				L261.077,231.991z"/>
		</g>
	</g>
	<g>
		<g>
			<path fill="#231F20" d="M296.881,229.364c-0.022-0.053-2.35-5.305-5.238-11.657c-1.788-3.97-4.132-8.13-6.2-11.802
				c-1.308-2.32-2.541-4.512-3.537-6.469c-2.58-5.07-9.959-20.239-10.033-20.392l0.221-0.107c0.074,0.151,7.455,15.318,10.03,20.39
				c0.995,1.951,2.229,4.139,3.533,6.458c2.072,3.676,4.418,7.843,6.212,11.819c2.888,6.354,5.216,11.607,5.236,11.659
				L296.881,229.364z"/>
		</g>
	</g>
	<g>
		<g>
			<path fill="#231F20" d="M298.486,229.467l-5.845-12.854c-1.778-3.954-4.115-8.103-6.175-11.762
				c-1.318-2.339-2.561-4.548-3.563-6.521c-2.578-5.059-9.957-20.242-10.031-20.394l0.221-0.109
				c0.072,0.154,7.453,15.334,10.03,20.392c0.999,1.969,2.241,4.175,3.558,6.512c2.064,3.665,4.4,7.819,6.186,11.78l5.845,12.854
				L298.486,229.467z"/>
		</g>
	</g>
	<g>
		<g>
			<path fill="#231F20" d="M300.277,229.467c-0.035-0.078-3.64-7.913-6.529-14.268c-1.788-3.973-4.137-8.139-6.208-11.816
				c-1.303-2.313-2.535-4.499-3.531-6.452c-2.575-5.073-9.957-20.24-10.031-20.395l0.221-0.106
				c0.074,0.152,7.455,15.318,10.03,20.389c0.991,1.948,2.224,4.134,3.526,6.446c2.073,3.68,4.425,7.852,6.219,11.831
				c2.89,6.354,6.492,14.19,6.526,14.269L300.277,229.467z"/>
		</g>
	</g>
	<g>
		<g>
			<path fill="#231F20" d="M301.384,228.457c0,0-3.713-8.143-6.637-14.569c-1.823-4.049-4.21-8.291-6.317-12.033
				c-1.259-2.234-2.447-4.344-3.42-6.234c-2.577-5.06-9.957-20.243-10.031-20.396l0.222-0.107
				c0.074,0.153,7.453,15.333,10.028,20.391c0.973,1.886,2.159,3.994,3.416,6.226c2.108,3.746,4.5,7.994,6.328,12.052
				c2.924,6.429,6.635,14.571,6.635,14.571L301.384,228.457z"/>
		</g>
	</g>
	<g>
		<g>
			<path fill="#231F20" d="M299.33,220.501c-0.546-1.211-1.288-2.859-2.192-4.862l-1.468-3.25c-1.797-3.953-4.13-8.104-6.186-11.765
				c-1.311-2.332-2.551-4.538-3.553-6.504c-2.577-5.072-9.983-20.24-10.058-20.394l0.222-0.107
				c0.074,0.152,7.48,15.319,10.056,20.39c0.999,1.961,2.237,4.163,3.546,6.495c2.062,3.665,4.395,7.819,6.197,11.784l1.468,3.25
				c0.903,2.003,1.647,3.649,2.191,4.864L299.33,220.501z"/>
		</g>
	</g>
	<g>
		<g>
			<path fill="#231F20" d="M295.278,207.969c-1.501-2.987-3.155-5.932-4.755-8.778c-1.327-2.36-2.58-4.593-3.593-6.583
				c-2.576-5.059-9.982-20.241-10.057-20.396l0.222-0.107c0.074,0.153,7.48,15.335,10.055,20.391
				c1.011,1.986,2.263,4.217,3.588,6.573c1.602,2.853,3.258,5.798,4.759,8.791L295.278,207.969z"/>
		</g>
	</g>
	<g>
		<g>
			<path fill="#231F20" d="M291.542,198.146c-1.57-2.78-2.853-5.071-3.899-7.138c-2.602-5.072-9.983-20.241-10.058-20.394
				l0.222-0.108c0.074,0.153,7.455,15.32,10.056,20.391c1.044,2.061,2.326,4.352,3.894,7.129L291.542,198.146z"/>
		</g>
	</g>
	<g>
		<g>
			<path fill="#231F20" d="M262.685,231.79c-1.275-2.58-2.151-4.421-2.16-4.44l-0.073-0.152l0.17-0.022l39.253-4.814l0.031,0.245
				l-39.083,4.793c0.234,0.495,1.02,2.132,2.083,4.282L262.685,231.79z"/>
		</g>
	</g>
	<g>
		<g>
			
				<rect x="279.929" y="206.375" transform="matrix(0.1235 0.9923 -0.9923 0.1235 470.5652 -79.0822)" fill="#231F20" width="0.245" height="40.95"/>
		</g>
	</g>
	<g>
		<g>
			
				<rect x="280.64" y="208.184" transform="matrix(0.1187 0.9929 -0.9929 0.1187 474.4857 -77.2569)" fill="#231F20" width="0.247" height="40.949"/>
		</g>
	</g>
	<g>
		<g>
			
				<rect x="280.338" y="203.618" transform="matrix(0.1196 0.9928 -0.9928 0.1196 468.1995 -82.2216)" fill="#231F20" width="0.245" height="38.538"/>
		</g>
	</g>
	<g>
		<g>
			
				<rect x="280.336" y="202.356" transform="matrix(0.1226 0.9925 -0.9925 0.1226 465.4293 -84.4216)" fill="#231F20" width="0.247" height="37.316"/>
		</g>
	</g>
	<g>
		<g>
			
				<rect x="280.033" y="201.008" transform="matrix(0.1104 0.9939 -0.9939 0.1104 467.1339 -83.4006)" fill="#231F20" width="0.248" height="36.495"/>
		</g>
	</g>
	<g>
		<g>
			
				<rect x="279.876" y="199.618" transform="matrix(0.1148 0.9934 -0.9934 0.1148 464.0516 -85.4993)" fill="#231F20" width="0.247" height="36.018"/>
		</g>
	</g>
	<g>
		<g>
			
				<rect x="279.784" y="198.269" transform="matrix(0.1182 0.993 -0.993 0.1182 461.174 -87.5958)" fill="#231F20" width="0.248" height="35.198"/>
		</g>
	</g>
	<g>
		<g>
			
				<rect x="279.521" y="196.963" transform="matrix(0.1152 0.9933 -0.9933 0.1152 460.1056 -88.3424)" fill="#231F20" width="0.246" height="34.294"/>
		</g>
	</g>
	<g>
		<g>
			
				<rect x="279.376" y="195.671" transform="matrix(0.1226 0.9925 -0.9925 0.1226 456.0988 -90.9724)" fill="#231F20" width="0.247" height="33.581"/>
		</g>
	</g>
	<g>
		<g>
			
				<rect x="279.232" y="194.485" transform="matrix(0.1191 0.9929 -0.9929 0.1191 455.4872 -91.5766)" fill="#231F20" width="0.246" height="32.867"/>
		</g>
	</g>
	<g>
		<g>
			
				<rect x="279.035" y="193.249" transform="matrix(0.1191 0.9929 -0.9929 0.1191 453.8891 -92.6443)" fill="#231F20" width="0.246" height="32.47"/>
		</g>
	</g>
	<g>
		<g>
			
				<rect x="278.798" y="191.981" transform="matrix(0.1231 0.9924 -0.9924 0.1231 450.9668 -94.441)" fill="#231F20" width="0.246" height="31.938"/>
		</g>
	</g>
	<g>
		<g>
			
				<rect x="294.329" y="221.629" transform="matrix(0.1143 0.9934 -0.9934 0.1143 488.0085 -89.9524)" fill="#231F20" width="0.248" height="14.179"/>
		</g>
	</g>
	<g>
		<g>
			
				<rect x="278.533" y="191.011" transform="matrix(0.1547 0.988 -0.988 0.1547 439.5584 -100.7463)" fill="#231F20" width="0.246" height="30.996"/>
		</g>
	</g>
	<g>
		<g>
			
				<rect x="278.126" y="189.291" transform="matrix(0.1547 0.988 -0.988 0.1547 437.5273 -101.7873)" fill="#231F20" width="0.246" height="31.021"/>
		</g>
	</g>
	<g>
		<g>
			
				<rect x="277.994" y="188.291" transform="matrix(0.1509 0.9886 -0.9886 0.1509 437.1555 -102.284)" fill="#231F20" width="0.246" height="30.066"/>
		</g>
	</g>
	<g>
		<g>
			
				<rect x="277.678" y="187.137" transform="matrix(0.1515 0.9885 -0.9885 0.1515 435.2717 -103.2966)" fill="#231F20" width="0.245" height="29.476"/>
		</g>
	</g>
	<g>
		<g>
			
				<rect x="277.429" y="185.941" transform="matrix(0.1515 0.9885 -0.9885 0.1515 433.6284 -104.2788)" fill="#231F20" width="0.245" height="28.972"/>
		</g>
	</g>
	<g>
		<g>
			
				<rect x="277.006" y="184.585" transform="matrix(0.1547 0.988 -0.988 0.1547 430.6285 -105.7737)" fill="#231F20" width="0.246" height="28.384"/>
		</g>
	</g>
	<g>
		<g>
			
				<rect x="276.69" y="183.288" transform="matrix(0.1586 0.9873 -0.9873 0.1586 427.5192 -107.4662)" fill="#231F20" width="0.246" height="27.636"/>
		</g>
	</g>
	<g>
		<g>
			
				<rect x="276.322" y="181.688" transform="matrix(0.1586 0.9873 -0.9873 0.1586 425.3939 -108.65)" fill="#231F20" width="0.246" height="27.158"/>
		</g>
	</g>
	<g>
		<g>
			
				<rect x="275.915" y="180.322" transform="matrix(0.1592 0.9872 -0.9872 0.1592 423.103 -109.837)" fill="#231F20" width="0.245" height="26.333"/>
		</g>
	</g>
	<g>
		<g>
			
				<rect x="275.429" y="178.979" transform="matrix(0.1599 0.9871 -0.9871 0.1599 420.8718 -110.8365)" fill="#231F20" width="0.244" height="25.718"/>
		</g>
	</g>
	<g>
		<g>
			
				<rect x="274.915" y="177.435" transform="matrix(0.156 0.9878 -0.9878 0.156 419.9088 -111.2247)" fill="#231F20" width="0.244" height="25.317"/>
		</g>
	</g>
	<g>
		<g>
			
				<rect x="274.465" y="176.176" transform="matrix(0.1586 0.9873 -0.9873 0.1586 417.3236 -112.3624)" fill="#231F20" width="0.246" height="24.999"/>
		</g>
	</g>
	<g>
		<g>
			
				<rect x="273.716" y="174.292" transform="matrix(0.1586 0.9873 -0.9873 0.1586 414.7934 -113.242)" fill="#231F20" width="0.246" height="24.918"/>
		</g>
	</g>
	<g>
		<g>
			
				<rect x="273.111" y="173.081" transform="matrix(0.1592 0.9872 -0.9872 0.1592 412.7925 -113.8415)" fill="#231F20" width="0.245" height="24.704"/>
		</g>
	</g>
	<g>
		<g>
			
				<rect x="272.307" y="171.349" transform="matrix(0.1547 0.988 -0.988 0.1547 411.6722 -113.9511)" fill="#231F20" width="0.246" height="24.52"/>
		</g>
	</g>
	<g>
		<g>
			
				<rect x="274.703" y="172.498" transform="matrix(0.1547 0.988 -0.988 0.1547 411.7244 -118.0063)" fill="#231F20" width="0.246" height="18.229"/>
		</g>
	</g>
	<g>
		<g>
			
				<rect x="276.414" y="172.852" transform="matrix(0.1592 0.9872 -0.9872 0.1592 409.6222 -122.1677)" fill="#231F20" width="0.245" height="13.113"/>
		</g>
	</g>
	<g>
		<g>
			
				<rect x="277.415" y="172.465" transform="matrix(0.1547 0.988 -0.988 0.1547 409.5616 -124.498)" fill="#231F20" width="0.246" height="9.275"/>
		</g>
	</g>
	<g>
		<g>
			
				<rect x="277.574" y="171.844" transform="matrix(0.156 0.9878 -0.9878 0.156 407.5485 -126.331)" fill="#231F20" width="0.244" height="6.929"/>
		</g>
	</g>
	<g>
		<g>
			
				<rect x="278.034" y="170.887" transform="matrix(0.1586 0.9873 -0.9873 0.1586 404.7242 -129.1819)" fill="#231F20" width="0.246" height="3.972"/>
		</g>
	</g>
	<g>
		<g>
			<path fill="#231F20" d="M264.531,169.978c-2.449,0-4.439-1.995-4.439-4.446c0-2.444,1.99-4.434,4.439-4.434
				c2.45,0,4.442,1.989,4.442,4.434C268.974,167.982,266.981,169.978,264.531,169.978z M264.531,161.344
				c-2.313,0-4.193,1.88-4.193,4.188c0,2.315,1.881,4.2,4.193,4.2c2.313,0,4.194-1.885,4.194-4.2
				C268.726,163.224,266.845,161.344,264.531,161.344z"/>
		</g>
	</g>
	<g>
		<path fill="#231F20" d="M281.408,195.708c0,1.585-1.265,2.867-2.845,2.867c-1.578,0-2.868-1.282-2.868-2.867
			c0-1.572,1.29-2.854,2.868-2.854C280.144,192.854,281.408,194.136,281.408,195.708"/>
	</g>
	<g>
		<g>
			<path fill="#231F20" d="M278.563,198.698c-1.649,0-2.992-1.342-2.992-2.99c0-1.642,1.343-2.976,2.992-2.976
				c1.637,0,2.968,1.334,2.968,2.976C281.531,197.356,280.2,198.698,278.563,198.698z M278.563,192.979
				c-1.513,0-2.746,1.225-2.746,2.729c0,1.514,1.233,2.744,2.746,2.744c1.502,0,2.722-1.23,2.722-2.744
				C281.285,194.203,280.065,192.979,278.563,192.979z"/>
		</g>
	</g>
	<g>
		<g>
			<path fill="#231F20" d="M278.144,198.194c-1.316,0-2.389-1.07-2.389-2.384c0-1.31,1.072-2.373,2.389-2.373
				c1.315,0,2.387,1.063,2.387,2.373C280.53,197.124,279.459,198.194,278.144,198.194z M278.144,193.684
				c-1.182,0-2.143,0.952-2.143,2.127c0,1.178,0.961,2.138,2.143,2.138c1.201,0,2.14-0.94,2.14-2.138
				C280.283,194.636,279.325,193.684,278.144,193.684z"/>
		</g>
	</g>
	<g>
		<path d="M279.512,196.01c0,0.923-0.736,1.656-1.657,1.656c-0.922,0-1.659-0.733-1.659-1.656c0-0.907,0.737-1.655,1.659-1.655
			C278.775,194.354,279.512,195.103,279.512,196.01"/>
	</g>
	<g>
		<g>
			<path fill="#231F20" d="M277.854,197.791c-0.983,0-1.782-0.798-1.782-1.781c0-0.979,0.799-1.78,1.782-1.78
				c0.981,0,1.78,0.801,1.78,1.78C279.635,196.993,278.836,197.791,277.854,197.791z M277.854,194.476
				c-0.847,0-1.536,0.688-1.536,1.534c0,0.86,0.675,1.535,1.536,1.535c0.86,0,1.534-0.675,1.534-1.535
				C279.389,195.164,278.699,194.476,277.854,194.476z"/>
		</g>
	</g>
	<g>
		<g>
			<path fill="#231F20" d="M194.833,182.084c-0.021-0.068-2.122-6.816-0.079-13.405c0.022-0.059,2.028-5.145,8.964-6.626
				c6.8-1.469,18.402,0.593,22.782,3.242c4.312,2.624,6.015,6.904,6.272,8.195c0.236,1.327,0.162,3.081,0.159,3.1l-0.246-0.012
				c0.001-0.019,0.077-1.744-0.156-3.043c-0.25-1.262-1.923-5.451-6.157-8.029c-4.344-2.63-15.857-4.671-22.603-3.212
				c-6.807,1.452-8.764,6.416-8.782,6.466c-2.016,6.506,0.061,13.182,0.08,13.249L194.833,182.084z"/>
		</g>
	</g>
	<g>
		<g>
			<path fill="#231F20" d="M219.573,192.848l-0.012-0.246c0.075-0.003,7.567-0.389,10.083-5.308c2.54-5.033,2.741-14.037-0.82-17.67
				c-3.3-3.379-11.116-6.775-17.912-6.775c-0.319,0-0.635,0.009-0.949,0.023c-7.544,0.367-10.886,1.811-12.356,2.958
				c-1.776,1.379-2.619,2.928-2.627,2.943l-0.217-0.115c0.034-0.065,0.875-1.61,2.692-3.022c1.501-1.169,4.887-2.638,12.496-3.01
				c0.315-0.015,0.635-0.023,0.956-0.023c6.863,0,14.757,3.434,18.093,6.849c1.717,1.75,2.707,4.766,2.787,8.492
				c0.074,3.396-0.646,6.931-1.922,9.462C227.281,192.455,219.648,192.845,219.573,192.848z"/>
		</g>
	</g>
	<g>
		<g>
			<path fill="#231F20" d="M185.405,141.176h-1.286l-0.502-1.286l0.424-8.288l0.169-0.057c0.169-0.057,0.45-0.084,0.864-0.084
				c0.294,0,0.544,0.014,0.544,0.014l0.194,0.012l0.034,0.193c0.006,0.024,0.109,0.669,0.109,4.566c0,3.874-0.433,4.724-0.48,4.809
				L185.405,141.176z M184.456,140.684h0.641c0.109-0.34,0.367-1.452,0.367-4.438c0-2.801-0.053-3.896-0.084-4.288
				c-0.086-0.003-0.193-0.005-0.306-0.005c-0.26,0-0.43,0.013-0.541,0.026v0.116l-0.418,7.714L184.456,140.684z"/>
		</g>
	</g>
	<g>
		<g>
			<path fill="#231F20" d="M184.533,141.091h-1.622l-0.057-9.873l1.679-0.021V141.091z M183.4,140.598h0.641v-8.902l-0.691,0.01
				L183.4,140.598z"/>
		</g>
	</g>
	<g>
		<g>
			<path fill="#231F20" d="M185.479,154.768l-0.169-0.179c0.003-0.003,0.499-0.53,0.726-2.763c0.215-2.3,0.299-6.111,0.404-10.938
				c0.036-1.624,0.074-3.362,0.122-5.192c0.071-2.701,0.163-5.285,0.243-7.563c0.13-3.733,0.235-6.683,0.203-8.575
				c-0.048-1.977-0.394-2.291-0.396-2.295l0.137-0.204c0.077,0.048,0.454,0.389,0.507,2.495c0.031,1.899-0.074,4.851-0.204,8.587
				c-0.082,2.279-0.172,4.861-0.243,7.56c-0.048,1.831-0.086,3.569-0.12,5.193c-0.108,4.83-0.191,8.646-0.408,10.956
				C186.041,154.205,185.501,154.746,185.479,154.768z"/>
		</g>
	</g>
	<g>
		<g>
			<path fill="#EC1C24" d="M218.435,174.192c-0.006-0.015-0.448-1.421-0.448-2.176c0-0.756,0.442-0.979,0.448-0.98
				c0.021-0.006,2.178-0.552,3.816-0.88c1.612-0.313,3.248-2.057,3.265-2.074c-0.017,0.019-1.648,1.762-3.265,2.074
				c-1.639,0.328-3.796,0.874-3.816,0.88c-0.005,0.002-0.448,0.225-0.448,0.98C217.986,172.771,218.43,174.178,218.435,174.192
				L218.435,174.192z"/>
		</g>
	</g>
	<g>
		<g>
			<path fill="#231F20" d="M206.604,189.809c0,0-0.003,0-0.006,0l-0.38-0.002c-0.325,0-0.598-0.114-0.813-0.341
				c-0.578-0.607-0.524-1.813-0.521-1.863l0.005-0.073l0.064-0.032l5.555-2.724l0,0c-0.003,0,0.759-0.561,2.144-2.258
				c1.331-1.633,1.771-4.609,0.981-6.637c-0.377-0.972-1.385-2.797-2.36-4.563c-1.023-1.854-1.906-3.454-2.017-3.974
				c-0.221-1.028,0.549-1.915,0.581-1.953l0.06-0.066l0.083,0.036l5.169,2.319l0.012,0.066l1.735,11.443
				c0,0.065-0.032,1.122-0.602,2.664c-0.523,1.419-1.623,3.527-3.889,5.517C209.631,189.803,207.663,189.809,206.604,189.809z
				 M205.13,187.686c-0.003,0.259,0.023,1.158,0.453,1.611c0.169,0.177,0.378,0.263,0.635,0.263l0.38,0.003
				c1.42,0,3.143-0.186,5.648-2.378c4.252-3.739,4.404-7.938,4.406-7.979l-1.726-11.356l-4.96-2.225
				c-0.164,0.218-0.63,0.914-0.47,1.667c0.104,0.484,1.021,2.146,1.993,3.905c0.979,1.772,1.991,3.606,2.372,4.593
				c0.819,2.101,0.361,5.189-1.021,6.882c-1.414,1.738-2.176,2.291-2.207,2.313L205.13,187.686z"/>
		</g>
	</g>
	<g>
		<g>
			<path fill="#231F20" d="M219.021,177.924l-1.104-0.129l-0.519-0.752l0.954-2.211h1.049l0.021,0.095
				c0.006,0.018,0.109,0.456,0.109,1.34c0,0.893-0.45,1.568-0.468,1.597L219.021,177.924z M218.055,177.563l0.843,0.1
				c0.104-0.181,0.388-0.729,0.388-1.396c0-0.623-0.055-1.019-0.083-1.188h-0.688l-0.836,1.938L218.055,177.563z"/>
		</g>
	</g>
	<g>
		<g>
			<path fill="#231F20" d="M218.959,177.793l-0.973-0.113l-0.447-0.648l0.896-2.076h0.869c0.003,0.005,0.104,0.442,0.104,1.312
				C219.407,177.123,218.965,177.787,218.959,177.793L218.959,177.793z M219.304,174.955h-0.869l-0.896,2.076l0.447,0.648
				l0.973,0.113c0.012-0.015,0.448-0.677,0.448-1.526C219.407,175.397,219.305,174.96,219.304,174.955z"/>
		</g>
	</g>
	<g>
		<g>
			<path fill="#231F20" d="M205.88,188.498l-0.021-0.103c0-0.005-0.096-0.473-0.437-0.567l-0.693-0.156l0.201-0.161
				c0.046-0.036,1.13-0.895,1.774-1.114l0.134-0.043c3.919-1.248,5.677-3.003,6.463-4.258c1.711-2.742,1.911-5.232,0.649-8.07
				c-0.68-1.528-1.519-2.598-2.258-3.54c-0.568-0.723-1.058-1.348-1.35-2.024c-0.663-1.538-0.541-2.941-0.535-3l0.006-0.079
				l2.62-0.91c0.052,0.001,5.176,0.134,9.413,1.75c2.71,1.045,4.126,1.693,4.204,1.928l0.021,0.053l-0.03,0.059l-0.993,1.775
				l-0.038,0.018c0,0-2.29,0.979-4.027,1.743c-1.328,0.583-1.975,0.728-2.221,0.763c-0.045,0.987-0.509,8.411-4.3,11.968
				c-4.015,3.808-8.436,3.968-8.48,3.968L205.88,188.498z M205.291,187.546l0.191,0.043c0.373,0.103,0.533,0.47,0.593,0.654
				c0.661-0.045,4.603-0.466,8.22-3.896c3.971-3.726,4.224-11.821,4.226-11.902l0.003-0.121h0.121c0.005,0,0.566-0.017,2.242-0.752
				c1.605-0.707,3.683-1.598,3.989-1.729l0.912-1.633c-0.158-0.119-0.872-0.543-4.028-1.759c-4.055-1.548-8.938-1.724-9.31-1.733
				l-2.401,0.843c-0.015,0.313-0.029,1.523,0.521,2.801c0.279,0.648,0.76,1.262,1.317,1.972c0.748,0.953,1.597,2.035,2.289,3.592
				c1.299,2.92,1.093,5.48-0.666,8.301c-0.808,1.29-2.608,3.091-6.597,4.361l-0.13,0.042
				C206.339,186.782,205.637,187.285,205.291,187.546z"/>
		</g>
	</g>
	<g>
		<path fill="#231F20" d="M267.034,163.455c0.025,0.015,0.025,0.029,0.025,0.029s0.132,0.014,0.186,0.014
			c0.13,0.043,0.289,0.132,0.341,0.289c0.054,0.101,0,0.216-0.052,0.302c-0.052,0.044-0.105,0.058-0.186,0.044
			c-0.104-0.044-0.131-0.159-0.157-0.273c0-0.044-0.026-0.087-0.08-0.072c-0.077,0-0.21,0.058-0.237,0.187
			c-0.05,0.145-0.104,0.333-0.13,0.462c-0.291,1.124-0.554,2.247-0.843,3.371l-0.026,0.029c-0.106-0.014-0.211,0.016-0.314,0
			c-0.026-0.043,0-0.114-0.026-0.158c-0.054-0.361-0.16-0.706-0.344-1.023c0.026-0.043,0.104-0.043,0.158-0.072
			c0.079-0.014,0.186-0.029,0.289-0.029c0.08,0.059,0.054,0.16,0.131,0.203c0.026,0,0.026-0.029,0.053-0.043
			c0.237-0.938,0.475-1.889,0.712-2.825c0-0.058,0-0.072,0-0.072c-0.026-0.057-0.08,0-0.132,0.015c-0.054,0-0.105,0-0.159-0.03
			c-0.024-0.027-0.024-0.07-0.024-0.129c0-0.028,0-0.058,0.024-0.072c0-0.028-0.024-0.043-0.024-0.058
			c-0.027-0.028-0.079-0.013-0.105-0.013c-0.026,0.013-0.054,0.027-0.026,0.085c0.08,0.159,0.026,0.317-0.027,0.447
			c-0.053,0.086-0.13,0.188-0.237,0.174c-0.053,0-0.104-0.029-0.13-0.073c-0.027-0.058-0.027-0.13,0.026-0.174
			c0.025-0.087,0.184-0.041,0.184-0.172c-0.026-0.217-0.158-0.389-0.289-0.562c-0.29-0.289-0.659-0.403-1.054-0.362
			c-0.027-0.069-0.052-0.143-0.027-0.214c0.027-0.059,0.186-0.016,0.157-0.131c-0.024-0.028-0.05-0.072-0.104-0.086
			c-0.026-0.029-0.078,0-0.105,0.043c-0.08,0.129-0.052,0.318,0,0.448c0.027,0.057,0.052,0.057,0.052,0.086
			c-0.024,0.042-0.078,0.129-0.132,0.158c-0.078-0.116-0.13-0.244-0.158-0.39c0-0.215,0.054-0.446,0.238-0.562
			c0.079-0.044,0.185-0.044,0.237,0c0.079,0.043,0.131,0.101,0.156,0.173c0.026,0.071,0.08,0.129,0.08,0.201
			c0.08,0.043,0.158,0.043,0.21,0.072c0.344,0.115,0.658,0.317,0.976,0.461c0.052,0.015,0.104,0.015,0.157-0.014
			c0.105-0.073,0-0.216,0.132-0.26c0.052-0.016,0.186-0.057,0.263,0.086c0.054,0.073,0.026,0.158-0.026,0.231
			c-0.079,0.115-0.211,0.115-0.316,0.144c-0.025,0.015-0.025,0.043-0.025,0.072s0.025,0.043,0.053,0.058
			c0.078-0.028,0.185-0.058,0.289-0.043c0.053-0.072,0.106-0.102,0.185-0.102C266.928,163.325,267.008,163.383,267.034,163.455"/>
	</g>
	<g>
		<path fill="#231F20" d="M261.769,164.334c-0.105-0.072-0.131-0.157-0.159-0.26c-0.025-0.128,0.028-0.259,0.132-0.345
			c0.159-0.087,0.344-0.029,0.448,0c0.078-0.087,0.184-0.159,0.315-0.144c0.105,0,0.186,0.057,0.239,0.144
			c0.104-0.044,0.207-0.087,0.341-0.059c0.053,0.015,0.104,0.029,0.13,0.072c0.027,0.016,0.054-0.028,0.054-0.043
			c0.131-0.402,0.501-0.809,0.896-0.967c0.026-0.014,0.026,0,0.026,0.016c0,0.073,0,0.157,0.027,0.216
			c-0.185,0.087-0.317,0.26-0.448,0.418c-0.264,0.347-0.29,0.908-0.053,1.283c0.078,0.144,0.21,0.288,0.367,0.389
			c-0.026,0.115-0.131,0.461-0.157,0.52c-0.054-0.029-0.105-0.087-0.157-0.131c-0.475-0.389-0.658-0.937-0.555-1.543
			c-0.026-0.041-0.077-0.041-0.104-0.041c-0.08,0.014-0.134,0.041-0.186,0.114c-0.132,0.203,0,0.447,0.052,0.649
			c0.134,0.331,0.291,0.662,0.555,0.966c0,0.027-0.026,0.1-0.053,0.144c-0.08,0.389-0.054,0.836,0.132,1.167
			c0,0,0.026,0.029,0.052,0.015v-0.028c0.054-0.146,0.08-0.288,0.132-0.434c0.078,0.072,0.158,0.146,0.263,0.202
			c-0.051,0.231-0.131,0.461-0.185,0.677c-0.052,0.159-0.078,0.317-0.13,0.476c-0.105,0-0.211,0-0.317,0.016l0,0
			c-0.104-0.75-0.264-1.471-0.869-2.003c-0.025-0.044-0.052-0.059-0.078-0.073c0.026-0.044,0.186-0.316,0.132-0.792
			c-0.054-0.404-0.211-0.647-0.395-0.894c-0.026-0.029-0.078-0.043-0.105-0.029c-0.025,0.029-0.053,0.043-0.053,0.115
			c0,0.073-0.025,0.145-0.079,0.173C261.926,164.363,261.846,164.377,261.769,164.334"/>
	</g>
	<g>
		<path fill="#231F20" d="M264.769,163.268c0.395,0.331,0.686,0.735,0.896,1.168c0.054,0.158,0.104,0.302,0.131,0.46
			c-0.077,0.073-0.183,0.117-0.288,0.159c-0.053-0.476-0.236-0.878-0.501-1.268c-0.078-0.13-0.21-0.259-0.342-0.332
			c-0.133-0.028-0.185,0.131-0.265,0.202c-0.235,0.346-0.419,0.706-0.499,1.109c-0.054-0.014-0.054-0.044-0.079-0.072
			c-0.052-0.058-0.078-0.129-0.104-0.202c0.13-0.519,0.474-0.922,0.814-1.34c0.054-0.072,0.08-0.129,0.107-0.2
			c0.05,0,0.104-0.015,0.157,0c0.026,0,0.077,0.013,0.104,0.028c-0.026,0.085-0.104,0.172-0.131,0.259
			C264.742,163.254,264.742,163.254,264.769,163.268"/>
	</g>
	<g>
		<path fill="#231F20" d="M264.164,166.193c-0.106-0.087-0.184-0.187-0.211-0.302c0.054-0.146,0.08-0.275,0.131-0.419
			c0.054-0.303,0.157-0.605,0.237-0.907c0.078-0.346,0.186-0.678,0.29-1.024c0.027-0.013,0.027,0.045,0.027,0.058l0.05,0.174
			l0.317,0.894c0.054,0.158,0.105,0.303,0.157,0.475c0,0.014-0.025,0.014-0.025,0.014c-0.132,0.016-0.265,0.029-0.396,0.029
			c0-0.029-0.054-0.129-0.078-0.157c0-0.029-0.053-0.202-0.105-0.26c-0.105,0.447-0.237,0.979-0.368,1.427
			C264.19,166.208,264.164,166.208,264.164,166.193"/>
	</g>
	<g>
		<path fill="#231F20" d="M264.979,166.668c0.237-0.158,0.501-0.216,0.789-0.2c0.08-0.289,0.16-0.576,0.237-0.865v-0.058
			c-0.104-0.159-0.185-0.331-0.185-0.519v-0.014c-0.184,0.071-0.341,0.171-0.526,0.215c-0.235,0.044-0.499,0.073-0.736,0.016
			c-0.052,0.2-0.131,0.432-0.184,0.633C264.559,165.991,264.899,166.367,264.979,166.668"/>
	</g>
	<g>
		<path fill="#231F20" d="M267.429,165.041c0.054,0.244,0.264,0.46,0.5,0.519v0.015c-0.212,0.057-0.42,0.273-0.474,0.489h-0.026
			c-0.054-0.203-0.211-0.389-0.395-0.461c-0.053-0.014-0.106-0.028-0.16-0.043c0-0.015,0.027-0.015,0.027-0.015
			c0.236-0.044,0.421-0.217,0.501-0.432C267.402,165.084,267.429,165.055,267.429,165.041"/>
	</g>
	<g>
		<path fill="#231F20" d="M261.795,165.055c0.025,0.188,0.184,0.404,0.395,0.461c0.026,0.016,0.053,0.029,0.078,0.029
			c0.025,0.015,0,0.029-0.025,0.029c-0.21,0.042-0.422,0.259-0.474,0.46c0,0,0,0.016-0.027,0c-0.026-0.101-0.078-0.215-0.157-0.302
			c-0.106-0.071-0.185-0.13-0.29-0.158v-0.015c0.237-0.059,0.447-0.288,0.475-0.505H261.795"/>
	</g>
	<g>
		<path fill="#231F20" d="M264.507,166.15c-0.027,0.071-0.079,0.158-0.159,0.188c-0.053,0.029-0.13,0-0.184-0.029
			c-0.211-0.158-0.317-0.39-0.343-0.62c-0.026-0.058,0-0.114-0.052-0.157c-0.053-0.03-0.106-0.088-0.158-0.131
			c-0.052,0.504,0.158,0.967,0.553,1.254c0.184,0.115,0.367,0.26,0.421,0.461c0,0,0-0.015,0.026-0.015
			c0.027-0.113,0.027-0.244,0-0.36c0.027-0.027,0.053-0.043,0.105-0.072c0.025-0.014,0.052-0.028,0.025-0.057
			c0-0.029-0.054-0.072-0.078-0.102c0-0.07,0.024-0.244-0.105-0.359C264.531,166.136,264.507,166.136,264.507,166.15"/>
	</g>
	<g>
		<path fill="#231F20" d="M262.899,168.241c0,0.014,0,0.041,0,0.057c0,0.027-0.026,0.057-0.079,0.071c-0.026,0-0.076,0-0.13-0.028
			c-0.106-0.072-0.134-0.202-0.134-0.317c-0.105-0.116-0.184-0.23-0.157-0.375c0.027-0.072,0.079-0.113,0.132-0.173
			c0.025,0,0.025-0.014,0.025-0.014c0-0.028-0.105-0.174-0.105-0.26c-0.024-0.173,0.027-0.346,0.159-0.446
			c0.08-0.059,0.21-0.059,0.289-0.016c0.132,0.103,0.186,0.247,0.158,0.404c-0.026,0.086-0.08,0.159-0.106,0.23
			c0,0.101,0.08,0.16,0.106,0.246c0.395,0.575,1,0.776,1.606,0.85c0.579,0.029,1.079-0.173,1.448-0.591
			c0.235-0.259,0.289-0.678,0.13-0.994c0-0.188,0.08-0.361,0.133-0.548c0.026-0.116,0.053-0.246,0.078-0.376h0.026
			c0.395,0.446,0.555,1.153,0.291,1.716c-0.237,0.563-0.815,0.995-1.396,1.096c-0.236,0.057-0.501,0.057-0.763,0.043
			c-0.604-0.043-1.159-0.26-1.66-0.62C262.926,168.196,262.899,168.196,262.899,168.241"/>
	</g>
	<g>
		<path fill="#231F20" d="M264.321,167.763c-0.052-0.057-0.08-0.114-0.052-0.187c0-0.057,0.052-0.143,0.078-0.157
			c-0.078-0.115-0.13-0.261-0.078-0.39c0.025-0.029,0.052-0.042,0.078-0.029c0.105,0.029,0.08,0.145,0.159,0.202
			c0.182,0.144,0.341-0.073,0.499-0.173c0.079-0.042,0.132-0.115,0.185-0.158c0.026,0,0.026,0.028,0.026,0.043
			c0.026,0.073,0.054,0.129,0.078,0.201c-0.235,0.246-0.422,0.49-0.553,0.778c0.054,0.059,0.157,0.059,0.211,0.144
			c0.026,0.03,0.026,0.073,0,0.115c-0.025,0.073-0.105,0.103-0.185,0.103c-0.13-0.014-0.262-0.072-0.315-0.203
			c-0.025-0.057-0.025-0.129,0-0.172c0-0.016,0-0.028,0.026-0.028C264.428,167.836,264.348,167.793,264.321,167.763"/>
	</g>
	<g>
		<g>
			<path fill="#231F20" d="M186.793,132.94l0.326-8.521h0.117l36.372-0.058l0.217,8.477h-0.126L186.793,132.94z M187.355,124.667
				l-0.307,8.026l36.524-0.101l-0.205-7.983L187.355,124.667z"/>
		</g>
	</g>
	<g>
		<g>
			<path fill="#231F20" d="M223.104,147.509h-36.653l0.19-8.547h36.926l-0.008,0.131L223.104,147.509z M186.703,147.263h36.167
				l0.437-8.054h-36.425L186.703,147.263z"/>
		</g>
	</g>
	<g>
		<g>
			<path fill="#231F20" d="M129.394,130.183c-12.531,0-81.901-1.107-82.599-1.119l-0.103-0.002l-0.017-0.1L45.78,123.9l0.148,0.002
				l119.729,1.371l-0.113,3.403l-0.123-0.004c-0.183-0.003-18.367-0.407-27.218-0.407c-3.769,0-4.603,0.075-4.75,0.121
				c-0.061,0.086-0.069,0.219-0.08,0.37c-0.041,0.645-0.229,1.236-2.073,1.401C131.103,130.175,130.479,130.183,129.394,130.183z
				 M46.901,128.819c3.044,0.048,70.187,1.117,82.493,1.117c1.063,0,1.698-0.008,1.886-0.023c1.785-0.16,1.819-0.698,1.848-1.173
				c0.012-0.188,0.025-0.382,0.151-0.529c0.07-0.081,0.167-0.191,4.924-0.191c8.473,0,25.491,0.369,27.101,0.404l0.099-2.907
				l-119.329-1.367L46.901,128.819z"/>
		</g>
	</g>
	<g>
		<g>
			<path fill="#231F20" d="M182.699,149.847l-0.123-0.002l-11.402-0.117l-1.566-1.715h13.092V149.847z M171.284,149.482
				l11.169,0.115v-1.338h-12.287L171.284,149.482z"/>
		</g>
	</g>
	<g>
		<g>
			<path fill="#231F20" d="M182.885,153.159h-0.125l-10.463-0.028l-0.417-1.371h11.005V153.159z M172.479,152.884l10.159,0.028
				v-0.906h-10.426L172.479,152.884z"/>
		</g>
	</g>
	<g>
		<g>
			<path fill="#231F20" d="M224.323,120.23l-1.128-0.011l0.001-0.246l0.88,0.009v-3.912c0-0.378-0.116-0.672-0.343-0.872
				c-0.463-0.41-1.248-0.316-1.255-0.317c-1.389-0.012-33.631-0.316-34.938-0.431c-1.3-0.119-3.886,0.127-3.998,0.988
				c-0.185,1.406-0.208,3.666-0.211,4.213l2.079,0.018l-0.003,0.246l-2.322-0.019v-0.123c0-0.027,0.003-2.75,0.212-4.367
				c0.156-1.181,3.224-1.3,4.266-1.201c1.296,0.112,34.564,0.427,34.9,0.43c0.021-0.001,0.887-0.104,1.433,0.379
				c0.281,0.249,0.427,0.604,0.427,1.057V120.23z"/>
		</g>
	</g>
	<g>
		<g>
			<path fill="#231F20" d="M222.927,122.952h-8.538v-1.989h8.538V122.952z M214.636,122.706h8.045v-1.497h-8.045V122.706z"/>
		</g>
	</g>
	<g>
		<g>
			<path fill="#231F20" d="M219.513,126.887c-1.825,0-2.288-3.879-2.306-4.044l0.243-0.027c0.006,0.039,0.455,3.825,2.063,3.825
				c1.604,0,1.85-3.666,1.853-3.703l0.246,0.015C221.602,123.113,221.347,126.887,219.513,126.887z"/>
		</g>
	</g>
	<g>
		<g>
			<path fill="#231F20" d="M222.455,142.48h-8.198v-2.539h8.198V142.48z M214.503,142.233h7.705v-2.045h-7.705V142.233z"/>
		</g>
	</g>
	<g>
		<g>
			<path fill="#231F20" d="M219.199,146.533c-0.084,0-0.169-0.007-0.256-0.019c-0.535-0.078-0.952-0.332-1.238-0.754
				c-0.795-1.174-0.307-3.244-0.285-3.332l0.237,0.058c-0.004,0.021-0.481,2.053,0.252,3.137c0.246,0.362,0.605,0.581,1.067,0.646
				c0.422,0.059,0.771-0.041,1.066-0.307c1.03-0.92,0.98-3.477,0.98-3.503l0.246-0.005c0.003,0.109,0.053,2.695-1.062,3.69
				C219.92,146.402,219.582,146.533,219.199,146.533z"/>
		</g>
	</g>
	<g>
		<g>
			<path fill="#231F20" d="M221.889,155.452l-0.086-0.002l-36.514-0.65l-0.017-0.101c-0.012-0.066-1.103-6.708-0.661-19.869
				l0.027-0.858c0.41-13.005,0.535-16.93,2.044-16.93h36.301l0.021,0.098c0.012,0.059,1.21,5.958,0.767,20.091
				c-0.418,14.139-1.837,18.102-1.852,18.141L221.889,155.452z M185.5,154.558l36.216,0.644c0.198-0.628,1.425-4.989,1.809-17.979
				c0.41-13.112-0.592-19.114-0.743-19.934h-36.099c-1.271,0-1.414,4.544-1.798,16.69l-0.025,0.858
				C184.445,147.094,185.366,153.679,185.5,154.558z"/>
		</g>
	</g>
	<g>
		<g>
			<path fill="#231F20" d="M185.045,131.239h-1.96l0.106-14.413h2.626l0.015,0.107c0.003,0.021,0.314,2.347,0.212,6.331
				c-0.105,4.002-0.968,7.841-0.978,7.878L185.045,131.239z M183.332,130.993h1.516c0.132-0.618,0.854-4.108,0.948-7.734
				c0.093-3.486-0.136-5.69-0.195-6.187h-2.165L183.332,130.993z"/>
		</g>
	</g>
	<g>
		<g>
			<path fill="#231F20" d="M185.334,141.053h-1.13l-0.463-1.183l0.003-0.027l0.421-7.754v-0.398l0.083-0.028
				c0.154-0.052,0.434-0.078,0.826-0.078c0.291,0,0.538,0.015,0.538,0.015l0.097,0.005l0.016,0.097
				c0.007,0.025,0.108,0.659,0.108,4.546c0,3.908-0.446,4.714-0.465,4.746L185.334,141.053z M184.373,140.807h0.808
				c0.094-0.25,0.405-1.32,0.405-4.561c0-3.111-0.065-4.124-0.092-4.406c-0.099-0.005-0.251-0.01-0.42-0.01
				c-0.291,0-0.521,0.016-0.663,0.045v0.221l-0.421,7.733L184.373,140.807z"/>
		</g>
	</g>
	<g>
		<g>
			<path fill="#231F20" d="M184.411,140.968h-1.379v-0.122l-0.053-9.506l1.432-0.019V140.968z M183.278,140.721h0.887v-9.149
				l-0.938,0.011L183.278,140.721z"/>
		</g>
	</g>
	<g>
		<g>
			<rect x="166.728" y="129.473" fill="#231F20" width="16.216" height="0.247"/>
		</g>
	</g>
</g>
</svg>
