<?xml version="1.0" encoding="utf-8"?>
<!-- Generator: Adobe Illustrator 16.0.0, SVG Export Plug-In . SVG Version: 6.00 Build 0)  -->
<!DOCTYPE svg PUBLIC "-//W3C//DTD SVG 1.1//EN" "http://www.w3.org/Graphics/SVG/1.1/DTD/svg11.dtd">
<svg version="1.1" id="Layer_1" xmlns="http://www.w3.org/2000/svg" xmlns:xlink="http://www.w3.org/1999/xlink" x="0px" y="0px"
	 width="350px" height="350px" viewBox="0 0 350 350" enable-background="new 0 0 350 350" xml:space="preserve">
<g>
	<path fill="#333333" d="M53.994,228.863c8.926,9.13,15.517,19.572,27.4,25.199c2.58,1.222,5.178,2.4,7.773,3.583
		c0.205,0.335,0.548,0.455,0.893,0.407c3.438,1.569,6.869,3.152,10.241,4.865c5.162,2.622,10.702,5.299,16.549,5.699
		c0.716,0.049,1.241-0.302,1.551-0.807c0.142,0.039,0.272,0.083,0.421,0.119c3.653,0.896,7.428,1.179,11.118,1.879
		c8.258,1.568,16.903,1.214,24.934,3.438c6.154,1.702,14.584,3.071,20.76,0.723c1.212-0.46,2.191-1.163,2.981-2.026
		c9.913,9.973,30.021,1.809,40.905-1.818c17.292-5.762,34.719-10.801,51.587-17.748c6.245-2.573,16.315-5.701,18.98-12.694
		c0.325-0.853,0.519-1.738,0.624-2.639c7.016-4.327,14.097-10.529,18.766-17.159c5.433-7.716,7.723-17.303,9.72-26.371
		c1.851-8.406,4.396-18.74,3.101-27.384c-0.533-3.563-1.777-10.03-4.966-13.172c1.024-1.853-0.108-4.539-1.388-6.931
		c-3.756-7.018-8.796-14.427-13.542-20.84c-4.521-6.107-10.099-9.057-16.235-13.16c-3.86-2.582-6.342-6.489-9.989-9.304
		c-3.187-2.459-6.767-4.173-10.615-5.309c-3.202-0.946-8.925-2.696-13.329-2.167c0.774-2.321,0.746-4.675-0.987-6.436
		c-2.008-2.038-5.797-2.033-8.353-2.736c-4.765-1.31-9.308-1.832-14.176-2.764c-4.701-0.9-8.759-3.473-13.505-4.256
		c-4.599-0.758-9.299-0.895-13.917-1.554c-9.645-1.375-19.348-3.695-29.124-4.024c-5.278-0.178-15.704-1.199-19.167,4.012
		c-0.293-0.417-0.591-0.829-0.911-1.198c-0.454-0.525-1.069-0.638-1.644-0.499c-3.947-2.434-10.636-1.832-14.42-1.041
		c-12.042,2.518-21.705,10.008-32.964,14.396c-10.052,3.917-20.691,5.699-30.294,10.844c-7.5,4.016-15.667,9.368-18.962,17.394
		c-0.305,0.55-0.482,1.063-0.559,1.547c-0.048,0.15-0.107,0.293-0.152,0.445c-0.035,0.118-0.049,0.23-0.05,0.339
		c-1.224,0.14-2.421,0.453-3.244,0.707c-6.347,1.954-10.842,7.355-13.503,13.2c-6.542,14.364-10.679,31.484-8.251,47.296
		c0.861,5.61,3.004,12.979,8.509,15.74c0.277,0.139,0.555,0.25,0.832,0.368c-0.967,1.733-1.674,3.578-1.818,4.334
		C33.45,212.488,47.332,222.048,53.994,228.863 M314.299,154.878c0.631,0.507,1.164,1.278,1.62,2.176
		c-0.561-0.778-1.192-1.49-1.901-2.118C314.111,154.914,314.206,154.901,314.299,154.878 M101.554,94.286
		c8.085-2.797,15.102-7.589,22.816-11.176c5.372-2.499,17.512-7.945,24.544-5.012c0.053,0.159,0.117,0.318,0.232,0.473
		c1.721,2.309,2.987,5.371,3.776,8.552c-1.639,2.649-3.22,5.333-5.583,7.423c-0.43,0.38,0.205,1.016,0.631,0.631
		c2.175-1.96,3.706-4.421,5.218-6.895c0.587,2.791,0.808,5.613,0.646,8.043c-0.407,6.163,1.703,11.577,2.942,17.562
		c1.385,6.693,2.175,13.355,3.311,20.088c1.292,7.659,3.215,15.197,4.564,22.848c0.049,0.275,0.531,0.215,0.494-0.067
		c-1.039-8.037-2.506-16.019-3.152-24.104c-0.592-7.396-0.877-14.434-2.118-21.771c-0.614-3.629-2.17-7.279-2.32-10.954
		c-0.121-2.983,0.677-5.874,0.285-8.866c-0.015-0.114-0.038-0.238-0.055-0.355c0.056-0.075,0.113-0.144,0.168-0.218
		c1.53-2.06,2.873-4.24,4.212-6.427c0.297-0.486-0.464-0.929-0.763-0.445c-1.04,1.687-2.074,3.379-3.207,5.005
		c-0.2,0.288-0.4,0.579-0.603,0.869c-0.616-3.434-1.837-7.364-3.644-10.508c0.092-0.039,0.183-0.091,0.267-0.168
		c2.624-2.421,7.992-2.038,11.259-2.024c4.764,0.02,9.591,0.49,14.289,1.207c3.891,0.594,7.534,1.731,11.359,2.545
		c3.837,0.816,7.86,0.901,11.741,1.411c4.354,0.573,8.87,0.332,13.186,1.092c3.779,0.665,7.229,2.453,11.001,3.214
		c3.704,0.749,7.589,0.763,11.261,1.627c2.592,0.609,10.129,1.744,10.917,4.718c0.979,3.697-3.675,6.972-6.388,9.024
		c-1.59-0.585-3.266-0.98-4.998-1.232c1.556-1.497,2.994-3.132,4.503-4.672c0.379-0.386-0.214-0.979-0.593-0.593
		c-1.667,1.7-3.242,3.514-5.004,5.106c-1.212-0.155-2.383-0.413-3.527-0.733c0.416-0.4,0.833-0.799,1.258-1.189
		c0.462-0.425-0.228-1.11-0.687-0.688c-0.559,0.512-1.106,1.036-1.654,1.56c-2.767-0.888-5.377-2.155-7.983-3.446
		c0.127-0.103,0.257-0.198,0.382-0.303c0.41-0.344-0.18-0.928-0.587-0.586c-0.201,0.169-0.425,0.312-0.633,0.475
		c-3.103-1.539-6.22-3.062-9.605-3.978c-3.297-0.891-6.625-0.362-9.976-0.331c-2.417,0.022-4.722-0.292-7.006-0.712
		c0.345-0.601,0.678-1.194,1.026-1.732c0.294-0.455-0.431-0.874-0.724-0.423c-0.417,0.638-0.803,1.316-1.203,1.987
		c-1.712-0.334-3.429-0.698-5.165-1.031c1.326-1.972,2.765-3.859,4.485-5.533c0.393-0.38-0.203-0.973-0.599-0.599
		c-1.892,1.78-3.462,3.814-4.92,5.937c-0.289-0.051-0.57-0.114-0.863-0.163c-2.029-0.332-4.009-0.354-6-0.295
		c0.655-0.766,1.311-1.532,1.95-2.31c0.371-0.451-0.265-1.103-0.649-0.65c-0.86,1.013-1.742,2.007-2.618,3.006
		c-1.006,0.043-2.017,0.092-3.043,0.123c-0.542,0.017-1.085,0.02-1.628,0.018c1.195-2.142,2.327-4.327,3.984-6.169
		c0.397-0.441-0.25-1.097-0.655-0.656c-1.856,2.028-3.278,4.415-4.688,6.8c-1.074-0.029-2.146-0.086-3.219-0.164
		c1.085-2.356,2.358-4.612,3.299-7.036c0.211-0.542-0.658-0.773-0.869-0.24c-0.899,2.287-2.104,4.407-3.173,6.613
		c-0.096,0.197-0.188,0.392-0.281,0.585c-1.741-0.143-3.48-0.329-5.216-0.512c0.87-1.51,1.648-3.077,2.395-4.665
		c0.223-0.475-0.483-0.893-0.709-0.414c-0.805,1.704-1.651,3.375-2.602,4.981c-0.427-0.045-0.856-0.09-1.283-0.134
		c-0.941-0.095-0.912,1.343,0,1.458c0.136,0.017,0.274,0.033,0.411,0.05c-0.65,0.995-1.333,1.969-2.112,2.891
		c-0.333,0.396,0.229,0.971,0.575,0.574c0.924-1.057,1.741-2.181,2.486-3.35c1.781,0.22,3.563,0.42,5.348,0.567
		c-0.573,1.103-1.233,2.126-2.253,2.994c-0.422,0.359,0.147,1.114,0.599,0.776c1.323-0.985,2.059-2.283,2.724-3.697
		c1.013,0.069,2.027,0.111,3.043,0.131c-0.531,0.884-1.07,1.76-1.643,2.605c-0.315,0.467,0.409,1.032,0.784,0.605
		c0.864-0.983,1.577-2.068,2.243-3.187c0.112-0.001,0.224,0.007,0.335,0.005c1.351-0.02,2.659-0.101,3.952-0.175
		c-0.771,0.896-1.532,1.8-2.255,2.736c-0.413,0.537,0.509,1.079,0.915,0.536c0.859-1.147,1.771-2.25,2.696-3.341
		c2.36-0.11,4.69-0.115,7.13,0.424c-0.765,1.162-1.511,2.341-2.263,3.513c-0.367,0.575,0.557,1.115,0.915,0.534
		c0.785-1.269,1.563-2.544,2.366-3.799c1.602,0.445,3.155,1.06,4.709,1.666c-0.58,0.708-1.253,1.327-2.104,1.763
		c-0.52,0.266-0.063,0.997,0.45,0.771c1.043-0.462,1.843-1.269,2.529-2.197c1.361,0.518,2.731,0.995,4.152,1.298
		c3.288,0.702,6.649,0.256,9.965,0.607c3.469,0.368,6.905,1.755,10.288,3.312c-0.303,0.261,0.043,0.79,0.444,0.592
		c0.133-0.065,0.259-0.14,0.391-0.208c2.754,1.29,5.471,2.646,8.137,3.606c-0.098,0.117-0.133,0.278-0.028,0.441
		c0.087,0.139,0.178,0.276,0.271,0.409c0.13,0.189,0.418,0.321,0.631,0.165c0.231-0.168,0.447-0.355,0.67-0.533
		c1.001,0.272,2.009,0.475,3.014,0.627c-0.076,0.043-0.147,0.096-0.226,0.138c-0.521,0.287-0.053,1.096,0.469,0.8
		c0.41-0.232,0.805-0.483,1.19-0.747c1.888,0.222,3.773,0.342,5.63,0.574c-2.896,2.285-5.835,4.492-8.874,6.597
		c-6.381,4.417-12.931,8.379-18.856,13.425c-6.785,5.776-12.874,12.275-20.397,17.127c-6.772,4.367-13.224,8.815-18.999,14.471
		c-0.942,0.922,0.483,2.335,1.443,1.443c0.235-0.218,0.476-0.425,0.713-0.637c-0.651,1.564-0.736,3.057,0.633,3.921
		c0.424,0.269,0.783-0.38,0.387-0.663c-1.251-0.897-0.121-3.385,0.42-4.378c0.049-0.087,0.104-0.167,0.155-0.251
		c7.396-6.112,15.926-9.998,23.52-15.853c8.349-6.439,15.625-14.073,24.523-19.821c6.884-4.448,13.769-9.074,20.032-14.399
		c1.713,0.559,3.382,1.389,4.987,2.682c0.054,0.043,0.108,0.046,0.162,0.055c-0.746,0.745-1.495,1.492-2.242,2.238
		c-0.411,0.41,0.227,1.049,0.637,0.637c2.446-2.452,4.892-4.905,7.338-7.357c0.397-0.399-0.219-1.017-0.618-0.619
		c-1.595,1.592-3.189,3.183-4.785,4.774c-0.012-0.053-0.015-0.106-0.06-0.159c-1.219-1.397-2.588-2.519-4.06-3.434
		c0.291-0.256,0.59-0.504,0.878-0.764c1.268-1.145,2.813-3,3.936-5.064c3.567-0.397,9.24,1.604,11.672,2.363
		c4.738,1.48,8.904,3.665,12.506,7.104c3.022,2.887,5.231,6.125,8.722,8.529c3.437,2.367,7.16,4.165,10.271,6.997
		c6.459,5.877,10.295,14.357,15.203,21.474c0.696,1.009,3.354,3.549,3.26,4.964c-0.197,3.046-3.88,2.233-5.901,2.393
		c-2.056,0.162-4.11,0.321-6.163,0.481c-0.645-1.291-1.342-2.561-1.961-3.718c-0.114-0.211-0.233-0.427-0.349-0.64
		c1.114-1.569,2.157-3.188,3.105-4.873c0.336-0.6-0.585-1.139-0.924-0.539c-0.85,1.499-1.788,2.929-2.771,4.328
		c-2.649-4.832-5.715-9.845-9.644-13.625c-1.925-1.853-4.043-3.448-6.458-4.606c-3.042-1.457-5.268-2.419-7.523-4.435
		c0.979-1.164,1.942-2.338,2.857-3.541c0.24-0.316-0.302-0.739-0.555-0.429c-0.934,1.14-1.982,2.215-3.003,3.313
		c-0.265-0.264-0.532-0.529-0.803-0.829c-0.59-0.655-1.214-1.304-1.853-1.948c0.938-0.843,1.883-1.681,2.821-2.522
		c0.417-0.374-0.195-0.977-0.612-0.613c-0.953,0.833-1.911,1.659-2.862,2.492c-0.868-0.848-1.769-1.678-2.705-2.482
		c0.438-0.385,0.876-0.771,1.313-1.156c0.336-0.295-0.151-0.771-0.487-0.487c-0.461,0.39-0.924,0.781-1.387,1.172
		c-0.975-0.816-1.975-1.603-2.998-2.343c1.104-1.011,2.156-2.087,3.218-3.106c0.373-0.358-0.195-0.926-0.569-0.567
		c-1.126,1.081-2.237,2.145-3.397,3.148c-1.322-0.921-2.672-1.765-4.036-2.51c1.035-0.998,2.063-2,3.113-2.981
		c0.267-0.25-0.129-0.641-0.4-0.4c-1.119,1.003-2.214,2.032-3.319,3.051c-0.854-0.407-1.577,0.5-1.282,1.198
		c-0.972,0.928-1.973,1.876-3.213,2.364c-0.451,0.178-0.27,0.907,0.203,0.741c1.394-0.486,2.364-1.545,3.407-2.544
		c0.021-0.02,0.043-0.041,0.065-0.062c1.301,0.797,2.506,1.677,3.676,2.591c-0.582,0.441-1.182,0.864-1.809,1.261
		c-0.456,0.289-0.055,0.983,0.424,0.725c0.75-0.406,1.456-0.885,2.135-1.404c0.983,0.795,1.946,1.618,2.903,2.46
		c-0.531,0.463-1.065,0.921-1.585,1.4c-0.388,0.358,0.2,0.948,0.581,0.581c0.52-0.5,1.056-0.98,1.589-1.464
		c0.438,0.387,0.87,0.771,1.313,1.162c0.489,0.434,0.935,0.886,1.361,1.346c-0.216,0.197-0.439,0.387-0.653,0.586
		c-0.454,0.422,0.23,1.109,0.68,0.681c0.2-0.19,0.407-0.372,0.607-0.559c0.914,1.061,1.743,2.162,2.628,3.257
		c-0.395,0.502-0.771,1.017-1.107,1.556c-0.244,0.393,0.344,0.869,0.652,0.503c0.362-0.429,0.729-0.857,1.093-1.287
		c0.22,0.258,0.442,0.516,0.676,0.771c1.246,1.367,2.53,2.156,4.038,2.956c-0.58,1.386-1.053,2.785-1.092,4.332
		c-0.014,0.474,0.678,0.455,0.723,0c0.142-1.401,0.551-2.695,1.044-3.978c0.185,0.096,0.367,0.19,0.559,0.289
		c3.469,1.792,6.475,4.132,9.019,7.107c3.098,3.625,5.757,7.811,8.373,11.931c-0.542,0.697-1.089,1.39-1.646,2.08
		c-0.233,0.288-0.115,0.639,0.11,0.817c-0.276,0.023-0.551,0.044-0.827,0.067c-8.563,0.74-16.751,3.613-25.298,4.133
		c-8.885,0.54-17.78,0.439-26.67,1.099c-8.962,0.665-17.875,1.784-26.853,2.267c-8.24,0.442-16.369,0.005-24.587-0.118
		c0.006-0.58,0.295-1.245,0.475-1.697c0.246-0.619,0.563-1.202,0.831-1.809c0.144-0.328-0.335-0.618-0.488-0.286
		c-0.424,0.92-1.473,2.509-1.479,3.783c-0.462-0.006-0.923-0.015-1.385-0.019c-1.17-0.008-1.147,1.725,0,1.802
		c8.937,0.602,17.662,1.449,26.634,1.087c8.632-0.348,17.219-1.238,25.841-1.741c8.553-0.499,17.053,0.014,25.599-0.184
		c8.679-0.201,16.787-3.223,25.372-4.092c2.805-0.284,5.619-0.508,8.434-0.725c0.73,1.397,1.145,2.585,1.923,4.194
		c0.595,1.229,0.973,1.852,2.268,2.291c0.302,0.103,0.584-0.347,0.322-0.554c-1.787-1.41-1.15-4.151-1.743-6.146
		c0.449-0.034,0.899-0.069,1.349-0.104c2.95-0.231,6.313-0.012,9.319-0.518c2.6,2.143,4.078,5.358,4.885,8.724
		c0.072,0.36,0.138,0.689,0.194,0.97c0.572,2.867,0.503,5.619,0.205,8.407c-0.546-2.922-1.419-5.815-2.185-8.662
		c-0.135-0.499-0.907-0.288-0.774,0.212c1.059,4.018,2.219,7.979,2.488,12.044c-0.021,0.139-0.04,0.276-0.062,0.416
		c-1.111,7.401-2.457,14.725-4.319,21.977c-1.973,7.677-4.487,15.074-9.392,21.409c-3.822,4.938-8.658,9.194-13.442,13.286
		c-0.458-3.995-2.454-8.032-4.705-10.982c-1.659-2.177-3.454-4.153-5.34-6c4.061-3.667,9.034-6.136,12.131-11.188
		c3.491-5.692,5.899-12.323,8.886-18.313c3.328-6.677,3.004-12.409,2.907-19.645c-0.011-0.832-1.194-0.802-1.272,0
		c-0.385,4.001-0.28,7.743-1.835,11.544c-1.316,3.215-3.206,6.192-4.924,9.209c-2.909,5.103-4.603,10.918-7.721,15.859
		c-2.784,4.412-7.446,6.5-10.798,10.104c-9.605-8.366-21.388-13.604-32.827-19.542c-9.033-4.688-18.076-9.702-27.521-13.478
		c-8.955-3.578-17.419-8.7-26.799-11.092c-0.041-0.051-0.096-0.093-0.18-0.111c-5.553-1.218-9.61-5.791-15.223-6.637
		c-0.604-0.09-0.881,0.812-0.259,0.937c4.856,0.978,8.607,4.367,13.26,5.857c-0.265,0.443-0.172,1.102,0.481,1.313
		c18.476,6.023,36.016,15.837,53.064,25.042c7.676,4.145,15.604,7.919,23.039,12.491c3.476,2.138,7.363,4.873,10.894,8.009
		c-0.743,1.292-1.309,2.561-2.581,3.633c-1.151,0.971-2.518,1.623-3.803,2.391c-1.927,1.149-3.513,2.396-5.207,3.813
		c-0.356,0.3,0.11,0.899,0.497,0.646c4.302-2.814,9.84-3.8,13.072-7.957c0.102-0.131,0.21-0.253,0.315-0.38
		c3.054,3.032,5.662,6.371,7.214,9.874c1.352,3.051,2.666,6.649,0.813,9.879c-1.504,2.626-4.958,3.96-7.511,5.233
		c-4.797,2.396-9.729,4.44-14.828,6.095c-1.223,0.396-2.434,0.821-3.64,1.256c0.166-3.521,0.606-7.001,0.97-10.506
		c0.038-0.371-0.527-0.358-0.574,0c-0.461,3.571-1.086,7.138-1.275,10.739c-0.002,0.031,0.008,0.055,0.012,0.081
		c-2.014,0.739-4.011,1.511-6.004,2.29c-0.394-2.133-0.034-4.409,0.088-6.553c0.161-2.844,0.329-5.688,0.388-8.536
		c0.007-0.348-0.531-0.348-0.538,0c-0.075,3.211-0.357,6.405-0.613,9.605c-0.155,1.938-0.474,3.899-0.15,5.807
		c-3.732,1.462-7.464,2.919-11.289,4.145c-1.294-3.719-1.325-7.744-1.411-11.643c-0.013-0.512-0.8-0.514-0.796,0
		c0.023,3.81-0.264,8.341,1.35,11.902c-0.656,0.204-1.311,0.415-1.971,0.602c-9.536,2.699-18.733,6.415-28.164,9.444
		c-8.415,2.701-22.673,7.724-30.367,0.872c1.23-2.327,1.671-5.217,1.765-7.884c0.139-3.968-0.928-7.857-2.054-11.763
		c2.238,0.584,4.416,1.623,6.646,1.977c3.325,0.528,6.871,0.329,10.194-0.116c5.861-0.786,10.725-3.558,15.93-6.172
		c6.2-3.116,12.611-4.027,19.339-5.397c7.052-1.434,12.936-3.908,19.273-7.27c1.194-0.634,0.146-2.322-1.043-1.785
		c-7.019,3.174-13.578,5.081-21.167,6.269c-5.732,0.896-11.379,1.437-16.647,4.039c-6.009,2.967-11.315,6.487-18.091,7.442
		c-4.343,0.611-8.059,0.187-12.367-0.44c-0.767-0.112-1.418-0.182-2.033-0.206c-0.137-0.199-0.347-0.354-0.619-0.383
		c-0.929-3.272-1.76-6.569-1.815-9.944c-0.138-8.136,1.377-16.24,0.554-24.412c-0.805-7.983-3.499-16.039-4.819-24.008
		c-0.688-4.154-1.762-8.178-2.642-12.286c-0.758-3.545-0.832-6.898-2.423-10.18c0.06-2.241,0.242-4.471,0.415-6.784
		c0.034-0.449-0.661-0.444-0.698,0c-0.181,2.13-0.372,4.188-0.465,6.249c-0.514,0.011-1.048,0.454-0.839,1.038
		c0.31,0.864,0.571,1.775,0.81,2.708c0.026,0.805,0.069,1.616,0.15,2.441c0.026,0.269,0.259,0.397,0.47,0.389
		c0.884,4.689,1.241,9.799,1.949,14.172c1.188,7.335,2.582,14.45,4.268,21.677c1.701,7.282,1.305,15.336,0.682,22.774
		c-0.489,5.841,0.008,10.979,1.077,16.552c-0.93,0.058-1.863,0.079-2.837,0.12c-0.911,0.037-1.857,0.065-2.522,0.758
		c-0.165,0.17,0.046,0.46,0.256,0.332c1.258-0.762,3.357,0.182,4.65,0.394c0.267,0.043,0.53,0.058,0.792,0.069
		c0.047,0.224,0.087,0.441,0.135,0.666c1.329,6.236,4.424,16.824-3.919,18.942c-4.766,1.209-9.476,0.25-14.14-0.821
		c-1.233-3.266-2.175-6.552-3.064-9.93c-0.132-0.502-0.899-0.289-0.775,0.213c0.785,3.169,1.464,6.45,2.754,9.469
		c-2.032-0.47-4.055-0.93-6.07-1.21c-1.584-3.01-2.058-6.643-3.03-9.869c-0.127-0.424-0.783-0.247-0.664,0.183
		c0.587,2.121,1.01,4.284,1.596,6.405c0.299,1.084,0.542,2.18,1.057,3.158c-3.221-0.33-6.478-0.116-9.708-0.317
		c-0.182-0.013-0.36-0.041-0.542-0.055c0.211-0.011,0.403-0.179,0.486-0.375c0.327-0.789,0.356-1.402,0.209-2.234
		c-0.081-0.452-0.844-0.353-0.807,0.109c0.075,0.395,0.043,0.777-0.076,1.15c-0.818-0.937-1.016-2.506-1.312-3.635
		c-0.407-1.563-0.746-3.141-1.189-4.693c-0.148-0.519-0.958-0.298-0.81,0.223c0.592,2.072,0.973,4.194,1.503,6.281
		c0.318,1.249,0.634,2.344,1.732,3.104c0.061,0.041,0.121,0.052,0.181,0.063c-3.705-0.298-7.308-1.118-10.99-1.581
		c-4.968-0.623-9.994-1.194-14.944-1.758c-8.129-2.493-15.68-6.909-23.381-10.468c-0.219-1.525-0.24-3.034,0.348-4.762
		c1.1-3.231,3.497-5.886,5.884-8.229c0.986-0.968,2.012-1.889,3.048-2.801c3.792,2.122,7.913,3.634,11.537,6.262
		c4.492,3.259,8.872,5.334,14.51,5.49c3.807,0.104,7.544-0.659,11.351-0.253c2.725,0.294,5.381,0.872,8.12,1.068
		c5.98,0.43,11.826,1.441,17.728,0.069c1.045-0.244,0.587-1.754-0.437-1.583c-6.084,1.011-13.652-0.548-19.676-1.793
		c-5.632-1.164-10.243-1.141-15.987-1.017c-6.538,0.143-10.91-2.612-16.359-5.689c-3.12-1.762-6.401-2.616-9.761-3.453
		c1.813-1.575,3.638-3.141,5.352-4.828c6.578-6.479,11.644-14.3,17.728-21.22c6.367-7.244,12.823-14.491,19.305-21.635
		c6.447-7.104,12.776-13.429,17.931-21.6c0.691-1.095-0.995-2.039-1.716-1.002c-12.632,18.151-29.289,33.383-43.513,50.281
		c-6.484,7.702-13.469,13.962-20.817,20.777c-2.829,2.623-5.439,5.715-6.628,9.446c-0.792-3.525-0.741-7.102-0.743-10.76
		c-0.001-0.462-0.712-0.462-0.716,0c-0.032,4.188-0.231,8.374,1.065,12.376c-0.22,1.293-0.201,2.501-0.034,3.702
		c-8.063-3.775-14.689-7.726-20.804-14.592c-2.608-2.929-5.294-5.729-8.013-8.491c0.237,0.203,0.562,0.342,1.012,0.389
		c0.525,0.057,0.581-0.736,0.12-0.884c-1.625-0.522-0.682-6.713-0.517-7.851c0.296-2.052,0.732-4.056,0.861-6.13
		c0.037-0.598-0.885-0.592-0.927,0c-0.277,3.896-1.404,7.573-1.22,11.513c0.053,1.122-0.042,2.317,0.647,2.938
		c-3.532-3.588-7.125-7.104-10.733-10.685c-3.141-3.117-6.773-6.704-8.738-10.711c-1.61-3.28-1.487-6.215-0.012-9.374
		c0.028-0.057,0.137-0.261,0.288-0.53c1.602,0.394,3.214,0.524,4.831,0.49c-0.968,3.046-1.462,6.225-0.869,9.415
		c0.108,0.589,0.969,0.328,0.885-0.243c-0.467-3.191-0.103-6.229,0.796-9.204c1.554-0.082,3.112-0.306,4.672-0.576
		c-0.966,2.308-1.771,4.66-2.331,7.11c-0.509,2.227-1.356,4.934-0.29,7.063c0.127,0.252,0.552,0.322,0.738,0.095
		c0.178-0.219,0.355-0.436,0.533-0.653c0.363-0.447-0.253-1.09-0.644-0.645c-0.016,0.019-0.033,0.039-0.05,0.059
		c-0.587-2.144,0.41-5.301,0.861-7.129c0.513-2.078,1.225-4.083,2.046-6.056c2.606-0.479,5.215-1.058,7.816-1.343
		c0.33-0.037,0.662-0.048,0.993-0.075c-0.456,8.063,5.152,13.719,10.518,19.695c6.762,7.534,12.929,14.874,22.835,18.085
		c1.116,0.36,1.551-1.341,0.479-1.738c-8.618-3.187-13.092-9.864-18.996-16.444c-5.462-6.091-12.263-11.329-12.862-19.729
		c2.386-0.099,4.78-0.099,7.144-0.432c4.589-0.648,9.145-2.049,13.67-3.063c8.404-1.883,16.591-4.796,24.438-8.348
		c4.401-1.992,8.4-4.645,12.703-6.795c4.679-2.339,9.502-3.746,14.545-4.984c3.415-0.84,6.568-2.146,9.759-3.597
		c4.553-2.069,9.314-3.527,13.511-6.284c1.19-0.781,0.1-2.687-1.123-1.921c-2.699,1.685-5.527,3.025-8.428,4.169
		c1.815-2.601,3.597-5.226,5.384-7.848c2.054,0.34,4.08,0.672,6.146,1.655c1.292,0.614,2.403-1.197,1.137-1.944
		c-4.292-2.535-9.065-2.323-13.463-4.526c-4.16-2.083-8.088-4.652-12.242-6.718c-8.015-3.988-16.899-6.525-25.265-9.655
		c-4.227-1.58-8.268-3.63-12.606-4.91c-0.706-0.208-1.419-0.398-2.136-0.579c1.719-0.329,2.636-2.245,3.577-3.538
		c0.291-0.399-0.365-0.763-0.656-0.383c-0.877,1.144-1.685,2.776-3.164,3.221c-0.255,0.078-0.315,0.399-0.203,0.592
		c-4.107-1.005-8.328-1.621-12.479-2.361c-1.951-0.348-3.884-0.752-5.811-1.18c1.228-1.27,2.227-2.773,3.27-4.191
		c0.197-0.268-0.246-0.514-0.443-0.259c-1.071,1.389-2.174,2.743-3.281,4.102c-0.075,0.07-0.089,0.151-0.075,0.229
		c-0.676-0.152-1.354-0.295-2.028-0.456c1.508-2.255,2.933-4.563,4.47-6.799c1.27-0.956,2.651-1.821,4.11-2.674
		c2.576-1.504,5.439-2.766,7.609-4.874c2.9-2.816,4.582-6.274,8.253-8.33c3.592-2.01,7.729-2.528,11.674-3.408
		c3.535-0.789,6.832-2.084,10.181-3.438c3.567-1.442,7.496-2.522,11.47-3.427c-1.37,2.168-2.8,4.294-4.407,6.303
		c-0.328,0.409,0.252,0.994,0.581,0.581c1.806-2.267,3.399-4.675,4.929-7.129c1.971-0.432,3.941-0.828,5.882-1.199
		c-0.839,1.351-1.773,2.638-2.916,3.787c-0.378,0.379,0.211,0.968,0.586,0.587c1.356-1.376,2.424-2.939,3.382-4.577
		c0.844-0.161,1.682-0.318,2.506-0.475c1.182-0.224,0.667-1.973-0.493-1.789c-0.277,0.044-0.558,0.096-0.836,0.141
		c0.38-0.717,0.753-1.439,1.132-2.162c0.229-0.437-0.431-0.825-0.665-0.388c-0.481,0.907-0.956,1.816-1.446,2.715
		c-2.04,0.349-4.084,0.74-6.124,1.18c-0.168-0.168-0.479-0.21-0.64,0.054c-0.02,0.033-0.04,0.064-0.06,0.096
		c-5.201,1.152-10.35,2.628-15.227,4.562c-7.162,2.839-15.768,2.821-22.314,7.062c-2.513,1.626-4.077,4.047-6.164,6.12
		c-3.48,3.455-8.295,5.105-12.202,8.026c-1.917,1.434-3.953,3.054-5.092,5.223c-0.608,1.156-0.773,2.365-0.916,3.565
		c-0.642-0.167-1.281-0.342-1.92-0.518c0.039-0.029,0.074-0.068,0.1-0.126c0.901-2.081,1.754-4.183,2.502-6.322
		c0.113-0.325-0.393-0.455-0.512-0.141c-0.787,2.071-1.705,4.082-2.584,6.115c-0.058,0.131-0.028,0.254,0.037,0.351
		c-0.817-0.229-1.635-0.467-2.449-0.719c-2.348-0.725-4.354-1.307-6.606-2.29c-0.498-0.217-0.704-0.423-0.704-0.629v-0.003
		c-2.868-0.64-1.589-1.016-2.309-1.224C65.434,103.314,85.276,99.917,101.554,94.286 M297.282,152.128
		c-0.86,0.069-1.721,0.141-2.58,0.212c0.004-0.005,0.009-0.006,0.014-0.01c0.513-0.612,1.013-1.234,1.508-1.86
		C296.577,151.025,296.93,151.579,297.282,152.128 M73.027,125.876c-0.137-0.033-0.275-0.06-0.412-0.093
		c1.167-2.515,2.818-4.38,4.771-5.972C75.898,121.808,74.457,123.839,73.027,125.876 M36.531,192.185
		c-6.708-6.568-5.639-18.623-4.923-27.201c0.439-5.254,1.505-10.526,2.938-15.692c0.146-0.031,0.292-0.063,0.44-0.095
		c0.467-0.101,0.262-0.783-0.195-0.707c-0.01,0.002-0.014-0.002-0.022-0.001c0.154-0.541,0.31-1.082,0.472-1.62
		c0.305-0.498,0.604-0.925,0.626-0.954c0.621-0.823,1.25-1.637,1.896-2.438c1.197-1.483,2.499-2.872,3.716-4.334
		c1.956-2.353,3.572-4.903,6.003-6.815c0.2-0.157-0.064-0.502-0.273-0.353c-3.152,2.24-5.298,5.758-7.855,8.614
		c-0.985,1.099-2.211,2.281-3.268,3.567c0.738-2.258,1.537-4.486,2.375-6.673c2.498-3.571,5.129-7.181,8.169-10.245
		c0.201-0.203-0.108-0.512-0.312-0.313c-2.47,2.409-4.729,5.191-6.821,8.042c1.432-3.251,3.208-6.246,5.918-8.708
		c0.791-0.717,5.366-4.06,8.516-4.747c1.415,1.885,4.645,3.139,7.448,4.216c2.929,1.126,5.9,2.029,8.893,2.813
		c-0.004,0.011-0.007,0.021-0.01,0.032c-1.325,1.277-2.593,2.61-4.209,3.613c-2.729,1.694-5.553,2.489-7.778,4.906
		c-4.053,4.401-6.622,10.794-8.924,16.225c-3.479,8.206-3.219,21.337,2.592,28.497c0.058,0.071,0.13,0.108,0.197,0.154
		c-1.878,3.576-4.011,7.409-4.71,11.321c-0.062,0.351,0.313,0.767,0.671,0.515c0.098-0.069,0.195-0.138,0.293-0.206
		c0.269-0.189,0.236-0.519,0.063-0.7c0.834-3.762,2.896-7.468,4.682-10.914c0.481-0.256,0.805-0.805,0.532-1.318
		c-0.006-0.019-0.017-0.036-0.025-0.056c-0.017-0.026-0.017-0.055-0.038-0.081c-3.297-4.298-3.615-9.673-3.629-14.919
		c-0.017-6.083,2.18-10.444,4.697-15.749c2.621-5.523,4.391-10.651,9.612-14.3c2.648-1.852,4.522-4.005,6.534-6.243
		c0.13-0.002,0.257-0.045,0.354-0.146c0.101-0.106,0.19-0.218,0.269-0.335c8.465,2.129,17.086,3.415,25.417,6.168
		c10.513,3.475,20.745,8.073,31.243,11.688c4.98,1.715,9.583,4.095,14.373,6.265c2.346,1.062,4.532,2.455,7.023,3.166
		c1.021,0.292,2.022,0.483,3.016,0.655c-1.966,2.856-3.934,5.71-5.943,8.536c-11.06,4.084-23.104,5.524-33.524,11.223
		c-10.163,5.558-21.547,10.132-33.142,13.202c-0.032-0.163-0.15-0.307-0.365-0.307c-0.298,0-0.417,0.273-0.362,0.498
		c-5.992,1.552-12.033,2.709-17.988,3.376c-0.289-0.107-0.621-0.079-0.855,0.106c-4.3,0.547-9.254,2.011-13.893,2.128
		c0.034-0.082,0.063-0.166,0.098-0.248c0.156-0.376-0.501-0.657-0.663-0.28c-0.075,0.18-0.144,0.362-0.218,0.542
		c-1.109-0.01-2.196-0.105-3.248-0.318c0.295-0.24,0.459-0.658,0.214-1c-0.978-1.361-2.124-1.048-3.208-0.01
		C38.4,193.718,37.428,193.063,36.531,192.185"/>
	<path fill="#333333" d="M70.422,179.849c8.283-2.369,19.67-7.71,18.588-17.917c-0.445-4.191-2.938-7.868-6.546-10.014
		c-4.745-2.824-8.966-2.186-13.924-0.358c-1.188,0.438-0.68,2.354,0.528,1.916c3.788-1.373,7.858-2.202,11.636-0.222
		c4.627,2.425,7.067,7.552,5.486,12.519c-1.842,5.784-11.161,9.393-16.622,10.984c-3.201,0.932-8.735,1.818-11.617-0.562
		c-3.407-2.816-3.343-7.823-2.134-11.652c2.149-6.8,8.518-13.018,15.31-14.903c0.298-0.083,0.172-0.521-0.127-0.459
		c-8.767,1.789-17.124,10.3-17.933,19.41C52.149,178.942,61.503,182.402,70.422,179.849"/>
	<path fill="#333333" d="M100.103,171.484c4.394,3.046,10.286,2.055,14.914,0.132c5.861-2.435,8.409-6.561,7.364-12.876
		c-0.221-1.334-2.216-0.757-2.018,0.556c0.958,6.372-3.077,8.708-8.246,9.979c-3.101,0.762-7.018,1.559-10.028-0.023
		c-5.327-2.799-3.305-9.768,0.225-13.234c3.14-3.083,7.821-4.421,12.049-4.992c0.24-0.033,0.178-0.419-0.056-0.416
		c-6.329,0.074-12.768,1.988-16.173,7.733C95.471,162.832,95.509,168.299,100.103,171.484"/>
	<path fill="#333333" d="M95.935,197.653c-0.571,0.063-0.972,0.38-1.202,0.786c-0.05-0.229-0.217-0.422-0.493-0.385
		c-7.336,0.955-15.529,6.75-15.671,14.949c-0.138,7.915,10.473,8,16.023,7.283c6.79-0.878,14.874-3.589,15.74-11.511
		C111.358,199.389,103.545,196.815,95.935,197.653 M105.676,211.445c-2.144,3.266-6.395,4.438-9.994,5.145
		c-4.313,0.851-14.583,2.578-14.131-5.434c0.349-6.192,7.625-10.874,12.83-12.061c0.057-0.014,0.102-0.041,0.146-0.067
		c-0.132,0.831,0.327,1.71,1.409,1.618c3.406-0.286,7.366-1.074,9.818,2.557C107.339,205.554,107.191,209.139,105.676,211.445"/>
	<path fill="#333333" d="M120.806,185.04c-1.543-0.117-1.927,2.502-0.37,2.733c2.458,0.362,7.29,1.043,4.618,4.518
		c-1.606,2.088-4.82,3.709-7.469,3.925c-1.713,0.142-4.681-0.332-5.709-1.872c-2.501-3.753,4.289-7.545,6.391-9.115
		c0.574-0.43,0.044-1.402-0.575-0.984c-2.958,2.001-8.95,4.95-8.1,9.432c0.655,3.455,5.247,4.991,8.316,4.882
		c4.231-0.149,9.568-2.968,10.991-7.176C130.53,186.566,124.203,185.299,120.806,185.04"/>
	<path fill="#333333" d="M134.404,116.656c0.424-7.032-5.616-10.659-11.672-10.624c0.263-0.364,0.087-1.037-0.512-1.093
		c-6.921-0.655-15.547,3.399-17.215,10.776c-1.718,7.601,6.204,11.571,12.643,11.384c4.316-0.126,8.083-1.752,11.626-4.1
		C132.045,121.165,134.188,120.231,134.404,116.656 M108.946,112.624c2.567-3.938,6.957-6.063,11.502-6.339
		c-0.894,0.501-0.55,2.34,0.64,2.191c3.013-0.376,6.124-0.212,8.384,2.151c1.98,2.07,3.088,5.548,0.963,7.891
		c-2.674,2.948-9.075,5.185-12.788,5.434C111.138,124.388,104.337,119.695,108.946,112.624"/>
	<path fill="#333333" d="M142.642,125.117c-5.073-0.86-11.059,2.171-13.171,7.003c-2.417,5.528,1.542,9.877,6.967,10.475
		c5.518,0.607,13.029-1.375,15.275-7.011c2.768-6.943-3.139-9.737-8.921-10.366C142.759,125.169,142.714,125.128,142.642,125.117
		 M147.303,136.392c-2.224,2.299-6.343,3.313-9.39,3.388c-5.036,0.125-9.191-3.587-5.777-8.689c1.508-2.254,3.914-4.005,6.533-4.859
		c-0.108,0.767,0.338,1.643,1.354,1.728c2.216,0.188,5.65,0.384,7.501,1.833C149.934,131.679,149.159,134.473,147.303,136.392"/>
	<path fill="#333333" d="M183.776,115.002c5.524,0.317,13.888-0.304,16.445-6.264c3.105-7.239-4.816-11.884-10.647-12.97
		c-0.684-0.128-1.214,0.188-1.505,0.647c-6.093,1.283-13.675,3.081-15.942,9.552C169.868,112.414,179.2,114.74,183.776,115.002
		 M176.879,101.952c3.025-2.783,7.055-3.899,10.962-4.939c-0.097,0.613,0.18,1.257,0.986,1.464c2.544,0.651,5.323,1.31,7.152,3.374
		c3.49,3.941,0.566,8.209-3.542,9.623c-3.104,1.067-6.695,1.256-9.946,1.027C176.055,112.048,170.516,107.81,176.879,101.952"/>
	<path fill="#333333" d="M182.701,120.403c-1.766-0.173-2.196,2.847-0.424,3.124c2.326,0.361,5.393,0.848,4.014,4.44
		c-0.456,1.188-2.129,2.086-3.188,2.721c-2.198,1.315-4.703,2.103-7.253,2.272c-3.485,0.231-7.8-0.726-5.462-5.359
		c1.521-3.012,5.272-4.833,8.2-6.239c0.254-0.122,0.071-0.568-0.194-0.46c-3.731,1.514-10.58,4.535-10.503,9.548
		c0.061,3.982,5.336,4.892,8.351,4.843c4.457-0.071,9.872-1.888,12.563-5.634C192.444,124.594,187.688,120.896,182.701,120.403"/>
	<path fill="#333333" d="M209.617,152.341c4.381,1.477,10.343,0.485,13.73-2.786c3.508-3.391,0.786-6.975-3.219-7.834
		c-1.906-0.409-2.725,2.465-0.81,2.938c1.832,0.453,3.27,1.122,1.145,3.276c-0.671,0.68-2.382,1.311-3.156,1.576
		c-2.158,0.741-4.812,1.112-7.022,0.404c-3.741-1.196-3.657-5.234-1.387-7.908c2.278-2.684,5.278-3.012,8.564-2.859
		c0.22,0.01,0.276-0.359,0.053-0.39c-4.543-0.612-9.187,0.273-11.447,4.786C204.281,147.112,205.887,151.083,209.617,152.341"/>
	<path fill="#333333" d="M233.22,137.402c6.519,1.017,16.483-0.235,20.205-6.54c3.726-6.311-0.439-11.718-6.526-12.99
		c-0.016-0.006-0.024-0.02-0.043-0.021c-0.017-0.001-0.035-0.001-0.053-0.003c-0.444-0.089-0.897-0.161-1.36-0.205
		c-0.265-0.025-0.495,0.031-0.694,0.133c-7.077-0.078-15.357,1.826-19.01,8.395C222.567,131.876,227.667,136.535,233.22,137.402
		 M230.801,122.862c3.836-3.22,8.577-4.356,13.422-4.59c-0.511,0.823-0.324,2.178,0.816,2.365c6.482,1.062,8.2,7.804,2.563,11.436
		c-3.675,2.369-9.021,3.272-13.29,2.876c-2.182-0.203-6.267-1.065-7.147-3.72C226.087,127.986,228.571,124.734,230.801,122.862"/>
	<path fill="#333333" d="M254.497,147.012c1.801,1.99,5.346,1.816,7.641,0.971c2.889-1.062,4.651-3.453,4.842-6.489
		c0.119-1.901-2.779-1.866-2.941,0c-0.192,2.237-1.607,3.767-3.749,4.386c-2.029,0.587-4.754,0.549-5.069-1.979
		c-0.433-3.443,4.637-5.919,7.104-7.424c0.455-0.276,0.056-0.947-0.414-0.708C258.252,137.631,249.976,142.014,254.497,147.012"/>
	<path fill="#333333" d="M264.705,194.342c6.365,1.107,15.974,0.103,20.124-5.57c4.556-6.227-0.916-11.7-6.77-13.675
		c-1.581-0.533-2.723,2.065-1.152,2.736c4.585,1.96,8.305,5.424,4.022,9.9c-3.196,3.338-9.559,4.178-13.958,3.941
		c-6.54-0.352-13.507-4.303-9.758-11.695c2.775-5.472,7.859-8.237,13.718-9.182c0.221-0.035,0.17-0.405-0.052-0.391
		c-7.27,0.484-13.949,4.132-16.498,11.408C251.802,189.187,258.156,193.201,264.705,194.342"/>
	<path fill="#333333" d="M282.975,169.208c1.977,0.241,3.802-0.171,5.489-1.202c1.377-0.839,0.167-2.881-1.256-2.151
		c-2.139,1.095-4.104,1.409-6.453,0.833c-1.241-0.305-1.716-0.853-1.055-2.072c0.562-1.036,1.429-1.784,2.422-2.396
		c0.48-0.297,0.058-1.013-0.441-0.755c-2.033,1.051-5.268,3.886-3.012,6.218C279.646,168.693,281.657,169.048,282.975,169.208"/>
	<path fill="#333333" d="M238.5,180.24c4.291-0.404,12.551-2.506,13.454-7.804c1.03-6.035-8.438-5.667-11.881-5.439
		c-2.072,0.136-2.117,3.297,0,3.259c1.959-0.035,7.753-0.765,8.413,1.636c0.661,2.411-6.981,4.845-7.936,5.087
		c-3.087,0.782-13.885,2.309-12.103-4.59c1.009-3.9,7.009-5.68,10.281-6.899c0.314-0.117,0.193-0.606-0.14-0.512
		c-4.378,1.248-12.497,3.508-12.521,9.369C226.045,180.313,234.396,180.628,238.5,180.24"/>
	<path fill="#333333" d="M195.63,195.552c-1.924,6.485,5.685,10.573,10.974,11.665c6.427,1.328,18.762,0.282,21.629-7.018
		c2.848-7.246-4.679-13.412-11.052-13.944c-0.61-0.05-1.029,0.188-1.271,0.554C208.938,187.044,198.004,187.553,195.63,195.552
		 M200.611,191.426c3.797-3.207,10.261-3.7,15.097-4.134c-0.197,0.875,0.307,2.002,1.473,2.143c2.98,0.357,7.376,2.641,7.663,6.26
		c-0.76,1.94-1.52,3.881-2.279,5.82c-1.347,0.811-2.771,1.432-4.274,1.866c-4.354,1.396-9.103,1.716-13.514,0.418
		C198.816,202.045,194.802,196.334,200.611,191.426"/>
	<path fill="#333333" d="M188.481,234.427c6.386,0.187,13.282-3.006,15.818-9.171c3.405-8.277-4.101-12.977-11.425-12.973
		c-2.023,0.001-2,3.022,0,3.126c5.814,0.303,11.451,4.225,7.123,10.507c-2.373,3.445-6.81,5.273-10.897,5.406
		c-7.032,0.226-10.408-4.993-7.109-11.256c2.442-4.637,7.148-7.366,12.099-8.458c0.342-0.075,0.276-0.663-0.084-0.624
		c-7.313,0.806-14.113,5.511-15.86,13.018C176.68,230.289,182.854,234.263,188.481,234.427"/>
	<path fill="#333333" d="M223.249,214.507c-3.766,4.257-0.136,7.963,4.269,9.519c6.669,2.353,17.085,2.165,22.457-3.174
		c4.655-4.625,0.798-9.834-3.569-12.743c0.15-0.006,0.301-0.02,0.45-0.024c0.222-0.01,0.222-0.338,0-0.346
		c-0.343-0.012-0.7-0.018-1.057-0.024c-0.29-0.178-0.579-0.346-0.866-0.498c-0.945-0.508-1.817-0.139-2.291,0.522
		C235.756,207.976,227.676,209.504,223.249,214.507 M230.514,211.9c3.72-1.923,7.715-2.948,11.807-3.453
		c-0.147,0.656,0.055,1.384,0.807,1.855c5.272,3.313,7.062,7.165,0.487,10.039c-4.5,1.97-10.575,2.51-15.308,0.821
		C220.886,218.518,225.777,214.348,230.514,211.9"/>
	<path fill="#333333" d="M180.46,185.65c2.028,1.266,4.965,0.59,6.911-0.521c0.986-0.565,2.042-1.404,2.195-2.604
		c0.166-1.29-0.8-2.192-1.652-3.002c-1.286-1.224-3.178,0.664-1.948,1.947c0.195,0.204,0.481,0.426,0.626,0.666
		c0.343,0.57,0.153,0.095-0.196,0.398c-0.481,0.419-1.101,0.715-1.696,0.929c-1.206,0.431-3.445,0.846-3.941-0.8
		c-0.626-2.082,3.456-3.608,4.867-4.342c0.877-0.454,0.107-1.692-0.762-1.303c-1.909,0.854-4.134,1.644-5.46,3.356
		C178.058,182.114,178.615,184.498,180.46,185.65"/>
	<path fill="#333333" d="M141.905,193.945c-3.65,4.126-0.838,7.917,3.968,8.707c5.842,0.96,14.041-0.252,18.365-4.695
		c3.481-3.574,2.439-7.986-2.06-9.835c-1.537-0.631-2.616,1.947-1.134,2.688c6.809,3.405-4.892,8.281-7.773,8.787
		c-2.52,0.44-9.251,1.436-10.358-1.529c-2.271-6.082,15.305-9.772,18.796-10.612c0.967-0.233,0.554-1.679-0.409-1.483
		C154.639,187.327,146.636,188.6,141.905,193.945"/>
	<path fill="#333333" d="M152.102,217.723c-2.315-0.418-3.313,3.121-0.979,3.552c1.73,0.319,5.465,0.611,6.321,2.462
		c1.327,2.869-3.907,5.653-5.737,6.335c-3.937,1.466-9.808,1.863-13.588-0.11c-5.674-2.963-0.399-8.296,3.09-10.369
		c3.35-1.99,7.303-2.861,11.061-3.718c0.44-0.1,0.246-0.732-0.183-0.664c-6.414,1.023-13.332,2.374-17.389,7.938
		c-3.789,5.192,0.283,9.123,5.535,10.422c6.346,1.569,15.051,0.472,19.334-4.96C164.558,222.279,157.773,218.749,152.102,217.723"/>
	<path fill="#333333" d="M190.778,188.621c2.013,0.562,3.462-1.046,4.756-2.352c1.536-1.55,2.797-3.065,2.117-5.356
		c-0.204-0.685-1.271-0.396-1.074,0.297c0.54,1.892-0.549,3.061-1.765,4.341c-0.907,0.958-1.992,2.34-3.413,2.241
		c0.221-1.548,1.206-2.901,2.142-4.111c0.625-0.809,1.597-2.612,2.726-2.575c0.425,0.015,0.412-0.616,0-0.653
		c-1.438-0.129-2.394,1.577-3.181,2.539c-1.245,1.52-2.491,3.171-2.641,5.193C190.431,188.382,190.597,188.57,190.778,188.621"/>
	<path fill="#333333" d="M184.038,197.355c-0.317,1.398-0.749,2.681,0,4.013c0.063,0.112,0.212,0.211,0.344,0.197
		c1.686-0.181,3.114-1.269,2.983-3.11c-0.128-1.784-1.896-2.666-3.249-3.468c-0.628-0.371-1.189,0.596-0.571,0.976
		c0.848,0.522,1.968,1.03,2.489,1.917c0.773,1.316-0.237,2.419-1.438,2.808c-0.438-1.019-0.066-2.074,0.157-3.136
		C184.853,197.088,184.145,196.889,184.038,197.355"/>
	<path fill="#333333" d="M164.085,206.745c-1.586-2.147-5.561-1.865-7.706-0.837c-2.164,1.038-4.98,4.183-1.411,5.396
		c2.132,0.725,4.528,0.749,6.71,1.36c1.432,0.4,3.365,1.571,4.495,0.002c0.858-1.193,0.335-3.652-0.441-4.746
		C165.302,207.313,164.724,206.946,164.085,206.745 M163.807,212.132c-0.278,0.07-1.142-0.374-1.426-0.454
		c-1.875-0.527-3.788-0.786-5.707-1.082c-1.252-0.194-1.622-0.009-1.721-1.471c-0.087-1.29-0.093-1.205,0.818-1.866
		c0.501-0.363,0.981-0.626,1.549-0.87c1.719-0.747,4.304-0.932,5.938,0.193c-0.725-0.072-1.484,0.012-2.191,0.202
		c-0.725,0.194-0.419,1.298,0.31,1.124c1.599-0.383,3.72,0.124,3.803,2.116C165.208,210.701,164.588,211.934,163.807,212.132"/>
	<path fill="#333333" d="M138.869,212.218c1.722-0.833,4.719-1.093,5.528-3.165c0.502-1.29,0.017-2.762-1.255-3.344
		c-1.621-0.741-3.724,0.313-5.24,0.826c-0.662,0.225-0.388,1.269,0.291,1.056c0.482-0.149,2.527-1.126,2.99-0.89
		c0.227,1.088,0.452,2.178,0.678,3.268c-0.289,0.102-0.578,0.205-0.867,0.309c-0.353,0.251-0.966,0.376-1.375,0.555
		c-1.614,0.697-2.936,1.632-4.399,2.571c-1.413,0.906-5.338,3.188-4.641-0.432c0.59-3.063,4.27-6.257,7.207-6.681
		c0.087-0.011,0.067-0.162-0.021-0.155c-3.353,0.249-7.622,3.87-7.915,7.383c-0.269,3.21,2.809,2.323,4.66,1.326
		C136.006,214.037,137.335,212.958,138.869,212.218"/>
	<path fill="#333333" d="M122.838,223.031c0.07,0.365,0.147,0.731,0.223,1.099c-0.126-0.166-0.414-0.225-0.563,0.006
		c-0.752,1.163-5.048,9.139-1.022,9.136c1.534-0.001,2.673-1.753,3.058-3.04c0.743-2.478-0.127-5.058-0.674-7.481
		C123.709,222.079,122.711,222.367,122.838,223.031 M122.508,231.669c-0.577,0-1.153,0.002-1.729,0.004
		c-0.056-0.37-0.078-0.741-0.066-1.113c0-0.736,0.085-1.462,0.292-2.167c0.416-1.415,1.28-2.696,2.065-3.922
		c0.022-0.036,0.032-0.069,0.04-0.104c0.201,0.959,0.396,1.923,0.481,2.896C123.692,228.422,123.792,231.02,122.508,231.669"/>
	<path fill="#333333" d="M122.627,198.399c-1.306-0.262-2.686,0.833-3.765,1.46c-1.099,0.638-2.441,1.309-3.235,2.337
		c-1.581,2.051,0.577,2.944,2.354,2.879c0.714-0.025,0.718-1.097,0-1.112c-0.82-0.018-2.006,0.272-1.183-1.333
		c0.238-0.463,1-0.784,1.432-1.064c0.745-0.484,2.556-1.949,3.698-2.151c-0.192,1.973-1.334,4.445-2.651,5.794
		c-1.876,1.923-4.65,0.557-5.903-1.37c-0.16-0.246-0.552-0.021-0.396,0.232c1.134,1.861,3.661,3.558,5.874,2.509
		c2.415-1.146,4.135-5.163,4.158-7.676C123.011,198.688,122.848,198.443,122.627,198.399"/>
	<path fill="#333333" d="M132.796,156.842c0.126,0.833,0.387,3.274-0.707,3.507c-0.094,0.02-0.072,0.166,0.022,0.165
		c1.494-0.006,1.328-3.445,1.179-4.357c-0.125-0.765-0.504-1.51-0.857-2.192c-0.226-0.435-0.631-0.904-0.77-1.376
		c-0.424-0.426-0.411-0.875,0.038-1.352c0.036-0.826,0.401-1.058,1.101-0.696c1.853,0.162,3.295,2.625,3.223,4.289
		c-0.075,1.767-1.245,3.345-2.349,4.624c-0.484,0.563,0.315,1.384,0.825,0.825c1.643-1.805,3.156-4.286,2.476-6.829
		c-0.603-2.255-2.832-4.067-5.19-3.992c-2.244,0.072-1.848,1.843-0.962,3.265C131.637,154.025,132.562,155.288,132.796,156.842"/>
	<path fill="#333333" d="M79.45,146.255c2.982-0.009,5.8,0,8.701,0.842c1.525,0.443,3.264,1.201,4.69,0.057
		c2.243-1.802,0.363-7.008-1.283-8.631c-0.566-0.557-1.338,0.264-0.855,0.855c0.822,1.006,1.442,2.535,1.482,3.865
		c0.028,0.924-1.061,3.01-2.104,3.216c-0.404,0.082-1.241-0.366-1.626-0.47c-2.411-0.654-4.743-0.831-7.237-0.77
		c-0.59,0.015-1.179,0.061-1.768,0.074c-1.284,0.031-1.179,0.26-1.694-1.238c-0.481-1.404-0.466-1.296,0.461-2.15
		c0.604-0.558,1.263-1.063,1.952-1.511c2.51-1.627,5.462-2.274,8.418-1.975c0.409,0.042,0.401-0.589,0-0.636
		c-4.229-0.497-8.614,1.007-11.56,4.132c-0.715,0.759-1.796,2.019-1.336,3.178C76.227,146.449,78.293,146.257,79.45,146.255"/>
	<path fill="#333333" d="M98.532,148.707c1.945,0.607,3.807-2.195,4.674-3.536c0.396-0.611-0.587-1.185-0.976-0.57
		c-0.58,0.919-2.283,3.732-3.65,3.156c0.24-2.057,2.059-3.347,3.516-4.625c0.308-0.27-0.144-0.718-0.45-0.449
		c-1.141,1-2.417,1.944-3.222,3.257C97.889,146.809,97.182,148.287,98.532,148.707"/>
	<path fill="#333333" d="M102.132,111.048c-1.014-1.101-2.93-0.007-3.947,0.55c-0.661,0.361-0.077,1.351,0.588,1.006
		c1.521-0.789,3.232-1.12,2.216,1.314c-0.412,0.987-1.291,1.887-1.914,2.753c-1.25,1.741-1.852,3.406-2.674,5.3
		c-0.428,0.988-1.346,1.807-2.412,2.114c-0.127-0.186-0.451-0.255-0.624-0.013c-0.031,0.042-0.057,0.087-0.086,0.129
		c-0.39,0.023-0.79-0.016-1.185-0.153c-2.014-0.702-2.417-2.352-1.833-4.14c0.999-3.057,3.608-7.232,7.087-7.666
		c0.175-0.022,0.184-0.3,0-0.283c-4.006,0.368-7.228,5.286-8.084,8.899c-0.583,2.46,1.282,3.897,3.433,4.22
		c-0.239,0.375-0.477,0.749-0.733,1.113c-0.517,0.731-1.158,1.669-2.074,1.906c-0.526,0.136-0.288,0.863,0.218,0.792
		c0.933-0.129,1.632-1.066,2.151-1.77c0.465-0.632,0.862-1.307,1.274-1.972c0.401,0.007,0.803-0.02,1.191-0.091
		c1.704-0.306,2.2-1.25,2.69-2.806c0.891-2.824,2.619-4.683,4.172-7.124C102.238,114.104,103.15,112.153,102.132,111.048"/>
	<path fill="#333333" d="M138.32,112.743c3.037,1.424,5.924-2.474,6.373-5.003c0.717-4.035-1.97-6.676-5.799-6.753
		c-0.852-0.017-0.839,1.265,0,1.316c3.405,0.207,5.417,2.723,4.185,6.231c-0.393,1.118-1.069,2.063-2.103,2.689
		c-2.057,1.25-3.265-0.874-3.87-2.575c-0.512-1.44-0.991-2.615-1.92-3.832c-0.313-0.41-0.866-0.922-1.031-1.427
		c-0.516-1.57,0.586-2.397,1.588-3.044c0.797-0.515,4.652-2.296,4.864-0.889c0.052,0.349,0.577,0.197,0.528-0.146
		c-0.025-0.188-0.052-0.377-0.078-0.564c-0.012-0.088-0.11-0.176-0.193-0.194c-2.317-0.5-8.018,0.877-7.915,4.143
		c0.056,1.784,2.137,3.427,2.73,5.073C136.272,109.408,136.524,111.9,138.32,112.743"/>
	<path fill="#333333" d="M145.292,117.208c-0.434-0.144-0.847-0.702-1.13-1.049c-0.183-0.223-0.567,0.071-0.402,0.311
		c0.54,0.786,1.555,2.118,2.644,1.451c0.809-0.494,1.05-1.663,0.341-2.321c-1.262-1.17-3.761-0.746-5.309-0.594
		c-0.609,0.061-0.633,1.002,0,0.972c1.067-0.052,2.135-0.078,3.2,0.037c0.361,0.038,1.342,0.097,1.529,0.5
		C146.393,117.005,145.709,117.346,145.292,117.208"/>
	<path fill="#333333" d="M171.681,100.579c1.173-2.042-0.621-3.491-2.385-4.04c-0.754-0.234-1.041,0.899-0.323,1.167
		c1.659,0.617,2.16,2.123,0.545,3.277c-0.747,0.535-1.554,0.977-2.294,1.522c-1.034,0.761-1.855,1.725-2.79,2.583
		c-0.487-1.666,0.91-4.512,1.488-5.681c0.77-1.556,2.146-4.215,4.28-3.75c0.298,0.064,0.426-0.385,0.127-0.46
		c-2.271-0.57-3.831,1.783-4.799,3.505c-1.024,1.821-2.879,5.328-1.674,7.422c0.121,0.209,0.45,0.327,0.662,0.173
		c1.363-0.996,2.403-2.288,3.829-3.232C169.417,102.356,171.007,101.752,171.681,100.579"/>
	<path fill="#333333" d="M208.393,114.644c4.285-1.062,8.695-4.133,7.376-9.194c-0.883-3.392-4.699-2.224-7.254-1.294
		c0.58-0.779,1.258-1.452,2.227-1.725c0.285-0.08,0.165-0.512-0.122-0.442c-1.387,0.333-2.261,1.407-3.052,2.546
		c-0.144,0.095-0.228,0.227-0.259,0.375c-0.312,0.459-0.617,0.917-0.944,1.33c-1.332,1.687-3.643,3.734-3.879,6.002
		C202.171,115.231,206.479,115.12,208.393,114.644 M204.298,109.92c0.822-1.278,1.853-2.399,2.758-3.615
		c0.17-0.229,0.334-0.475,0.498-0.725c0.12,0.076,0.277,0.1,0.46,0.036c1.684-0.588,5.43-2.419,6.505-0.106
		c0.786,1.69-0.285,4.814-1.671,5.848c-1.228,0.917-3.321,1.838-4.746,2.228c-0.937,0.257-1.957,0.386-2.924,0.255
		C202.805,113.524,203.246,111.557,204.298,109.92"/>
	<path fill="#333333" d="M199.626,121.428c-0.027,0.708-0.044,1.529-0.594,2.051c-0.736,0.701-1.213,0.162-1.602-0.54
		c-0.231-0.417-0.837-0.049-0.633,0.37c0.466,0.959,1.217,1.734,2.339,1.235c1.273-0.566,1.603-1.84,1.683-3.116
		C200.866,120.665,199.657,120.66,199.626,121.428"/>
	<path fill="#333333" d="M248.305,114.502c0.037,0.081,0.076,0.162,0.142,0.231c0.312,0.334,0.854,0.36,1.238,0.152
		c0.741-0.401,1.17-1.366,1.469-2.15c0.087,0.206,0.332,0.338,0.599,0.213c0.137-0.064,0.273-0.127,0.41-0.191
		c0.22-0.102,0.252-0.304,0.185-0.479c2.354-2.837,4.851-5.535,7.465-8.135c0.307-0.306-0.166-0.778-0.475-0.475
		c-2.813,2.763-5.548,5.603-8.103,8.607c-0.023-0.094-0.069-0.182-0.135-0.233c-1.324-1.039-2.68,0.796-3.494,1.658
		C247.148,114.183,247.813,114.878,248.305,114.502 M249.348,113.466c0.139-0.125,0.444-0.435,0.733-0.579
		c-0.09,0.278-0.198,0.549-0.347,0.804c-0.11,0.188-0.265,0.479-0.481,0.554c-0.283,0.099-0.373-0.075-0.396-0.292
		C249.016,113.786,249.176,113.621,249.348,113.466"/>
	<path fill="#333333" d="M268.618,133.355c0.253,0.01,0.492,0.048,0.731,0.087c0.068,0.272,0.157,0.539,0.295,0.792
		c0.72,1.321,2.461,1.713,3.141,0.162c0.096-0.22,0.114-0.512-0.089-0.687c-0.836-0.727-1.768-1.175-2.791-1.41
		c-0.051-0.798,0.057-1.599,0.134-2.393c0.033-0.324-0.525-0.403-0.572-0.078c-0.105,0.747-0.247,1.559-0.257,2.356
		c-0.195-0.026-0.388-0.064-0.592-0.076C267.819,132.067,267.817,133.321,268.618,133.355 M271.544,134.297
		c-0.369,0.344-1.002-0.1-1.274-0.554c-0.018-0.027-0.024-0.056-0.04-0.083C270.688,133.813,271.124,134.03,271.544,134.297"/>
	<path fill="#333333" d="M234.318,145.36c-0.805-0.333-1.166,0.986-0.361,1.312c1.077,0.437,0.342,1.66-0.295,2.157
		c-0.93,0.726-1.566,0.336-1.878-0.682c-0.184-0.601-1.117-0.35-0.945,0.261c0.205,0.729,0.561,1.483,1.31,1.778
		c0.793,0.312,1.697-0.052,2.333-0.539c0.697-0.531,1.406-1.458,1.361-2.378C235.796,146.303,235.163,145.71,234.318,145.36"/>
	<path fill="#333333" d="M196.55,154.765c0.603,0.012,0.773-0.997,0.146-1.084c-1.092-0.153-3.39,0.125-3.729-1.194
		c-0.242-0.949,0.878-1.893,1.649-2.331c0.765-0.436,1.635-0.554,2.496-0.633c0.506-0.046,0.512-0.84,0-0.795
		c-1.216,0.107-2.37,0.324-3.387,1.044c-0.784,0.557-1.729,1.433-1.816,2.458C191.719,154.475,195.004,154.732,196.55,154.765"/>
	<path fill="#333333" d="M199.94,168.335c0.713-0.08,1.935-0.704,1.383-1.588c-0.153-0.248-0.498-0.362-0.757-0.199
		c-0.109,0.069-0.22,0.139-0.327,0.208c-0.189,0.119-0.254,0.286-0.251,0.448c-0.016,0.004-0.033,0.017-0.048,0.019
		C199.236,167.3,199.229,168.414,199.94,168.335"/>
	<path fill="#333333" d="M145.159,173.995c0.004-0.062,0.006-0.125,0.015-0.187c0.063-0.448-0.621-0.646-0.69-0.19
		c-0.01,0.063-0.009,0.121-0.015,0.181c-0.531-0.085-1.087-0.052-1.619-0.058c-0.694-0.007-0.692,1.057,0,1.077
		c0.356,0.011,0.711-0.003,1.067,0.021c0.207,0.014,0.417,0.03,0.62,0.075c0.003,0.001,0.007,0.002,0.011,0.003
		c0.041,0.17,0.09,0.343,0.154,0.521c0.084,0.24,0.282,0.333,0.525,0.3C146.308,175.585,145.876,174.329,145.159,173.995"/>
	<path fill="#333333" d="M133.976,177.946c-0.448-0.19-0.721,0.467-0.259,0.613c0.262,0.082,0.483,0.195,0.601,0.452
		c0.109,0.239-0.031,0.57-0.316,0.645c-0.166,0.045-0.421-0.178-0.517-0.272c-0.329-0.323-0.534-0.779-0.767-1.172
		c-0.032-0.055-0.116-0.006-0.084,0.048c0.297,0.504,0.954,1.947,1.764,1.665c0.396-0.14,0.504-0.608,0.464-0.976
		C134.807,178.445,134.417,178.132,133.976,177.946"/>
	<path fill="#333333" d="M99.875,192.105c0.292,0.58,0.7,1.224,1.428,1.211c0.767-0.013,1.265-0.772,1.29-1.475
		c0.008-0.198-0.113-0.395-0.281-0.491c-0.82-0.473-1.657-0.565-2.583-0.424C99.021,191.037,99.235,192.038,99.875,192.105"/>
	<path fill="#333333" d="M74.551,199.054c-0.52-0.438-1.274,0.296-0.755,0.757c1.153,1.024-0.588,2.799-1.311,3.586
		c-0.337,0.368,0.206,0.916,0.55,0.55C74.139,202.773,76.374,200.589,74.551,199.054"/>
	<path fill="#333333" d="M34.874,156.547c2.233-5.521,5.921-9.889,9.686-14.426c0.073-0.086-0.051-0.212-0.125-0.124
		c-3.729,4.452-8.15,8.8-10.097,14.402C34.218,156.743,34.743,156.872,34.874,156.547"/>
	<path fill="#333333" d="M35.366,164.285c-0.086,0.484,0.653,0.691,0.741,0.205c0.536-2.984,2.431-5.54,3.918-8.127
		c1.652-2.876,3.448-5.647,5.446-8.293c0.099-0.13-0.126-0.307-0.229-0.176c-2.181,2.751-4.124,5.651-5.942,8.653
		C37.81,159.006,35.883,161.395,35.366,164.285"/>
	<path fill="#333333" d="M43.398,157.457c-3.017,4.603-6.429,9.257-8.793,14.233c-0.124,0.261-0.021,0.536,0.257,0.631
		c0.069,0.023,0.138,0.048,0.207,0.072c0.357,0.122,0.675-0.402,0.377-0.65c-0.448-0.375,7.69-12.785,8.456-13.991
		C44.104,157.433,43.603,157.144,43.398,157.457"/>
	<path fill="#333333" d="M43.097,163.946c-3.095,5.653-6.563,11.143-8.656,17.275c-0.193,0.565,0.703,0.808,0.895,0.245
		c2.072-6.071,5.332-11.55,8.301-17.204C43.825,163.906,43.291,163.59,43.097,163.946"/>
	<path fill="#333333" d="M36.666,187.501c-0.022,0.011-0.044,0.02-0.065,0.028c0.358-2.909,2.092-5.69,3.296-8.314
		c1.161-2.531,2.354-5.045,3.469-7.598c0.166-0.381-0.395-0.714-0.564-0.33c-1.402,3.185-2.906,6.32-4.41,9.458
		c-1.159,2.419-2.65,4.729-2.736,7.475c-0.012,0.341,0.373,0.524,0.653,0.375c0.252-0.137,0.504-0.271,0.758-0.407
		C37.53,187.94,37.123,187.305,36.666,187.501"/>
	<path fill="#333333" d="M43.326,180.124c-1.564,4.079-3.291,8.103-3.461,12.526c-0.02,0.51,0.749,0.498,0.786,0
		c0.326-4.354,1.802-8.298,3.322-12.348C44.125,179.897,43.479,179.726,43.326,180.124"/>
	<path fill="#333333" d="M53.804,200.197c-2.161,6.142-4.336,13.391-2.78,19.917c0.048,0.205,0.264,0.364,0.472,0.359
		c1.204-0.026,1.62-0.559,1.868-1.716c0.108-0.504-0.626-0.712-0.775-0.215c-0.283,0.123-0.565,0.249-0.849,0.372
		c-0.085-0.597-0.17-1.192-0.255-1.788c-0.07-0.812-0.068-1.627-0.038-2.439c0.063-1.75,0.307-3.495,0.598-5.221
		c0.523-3.102,1.377-6.119,2.365-9.104C54.537,199.979,53.938,199.819,53.804,200.197"/>
	<path fill="#333333" d="M55.983,215.692c0.15-2.037,0.421-4.056,0.64-6.085c0.036-0.329-0.474-0.323-0.512,0
		c-0.21,1.788-2.607,14.396,0.256,14.231c0.358-0.02,0.552-0.528,0.194-0.716C55.008,222.308,55.881,217.083,55.983,215.692"/>
	<path fill="#333333" d="M65.01,218.086c0.029,5.186-0.62,10.358-0.379,15.544c0.029,0.64,1.024,0.644,0.998,0
		c-0.207-5.189,0.262-10.357,0.186-15.544C65.806,217.568,65.007,217.566,65.01,218.086"/>
	<path fill="#333333" d="M69.779,222.324c0.019-0.528-0.802-0.526-0.821,0c-0.214,5.966-1.358,12.305,1.68,17.773
		c0.308,0.556,1.17,0.054,0.853-0.499C68.469,234.332,69.573,228.1,69.779,222.324"/>
	<path fill="#333333" d="M75.494,228.543c0.319,5.161-0.221,10.227,0.515,15.378c0.069,0.487,0.925,0.379,0.867-0.116
		c-0.596-5.124-0.27-10.14-0.632-15.262C76.21,228.064,75.464,228.059,75.494,228.543"/>
	<path fill="#333333" d="M80.621,233.348c-0.039,4.37-0.21,8.773,0.552,13.096c0.082,0.465,0.761,0.26,0.699-0.192
		c-0.593-4.298-0.581-8.573-0.579-12.903C81.292,232.914,80.625,232.914,80.621,233.348"/>
	<path fill="#333333" d="M99.626,256.822c0.94-0.927-0.115-3.697-0.291-4.884c-0.307-2.072-0.585-4.15-0.893-6.224
		c-0.048-0.327-0.539-0.186-0.495,0.135c0.373,2.719,0.651,5.443,0.973,8.165c0.121,1.012-0.108,2.797,0.563,3.544
		c0.226,0.251,0.61,0.098,0.706-0.186c0.021-0.063,0.042-0.124,0.063-0.186C100.378,256.822,99.883,256.569,99.626,256.822"/>
	<path fill="#333333" d="M102.198,248.801c-0.114-0.423-0.762-0.244-0.655,0.181c0.56,2.253,0.978,4.535,1.58,6.778
		c0.406,1.51,0.752,3.002,1.827,4.185c0.39,0.428,0.972-0.191,0.624-0.626C103.399,256.606,103.085,252.063,102.198,248.801"/>
	<path fill="#333333" d="M108.741,248.507c-0.145-0.472-0.885-0.271-0.741,0.204c1.228,4.053,1.808,8.194,3.328,12.171
		c0.204,0.532,1.063,0.314,0.869-0.24C110.798,256.635,109.978,252.555,108.741,248.507"/>
	<path fill="#333333" d="M118.404,261.609c-0.12,0.179-0.238,0.357-0.358,0.537c-1.986-3.13-2.712-7.306-3.656-10.813
		c-0.127-0.472-0.854-0.272-0.732,0.202c0.983,3.844,1.636,8.354,3.944,11.667c0.15,0.215,0.403,0.295,0.644,0.168
		c0.776-0.411,0.989-0.897,1.007-1.762C119.262,261.059,118.443,261.07,118.404,261.609"/>
	<path fill="#333333" d="M120.907,251.612c-0.123-0.497-0.881-0.287-0.767,0.211c0.903,3.898,0.932,9.273,3.721,12.384
		c0.411,0.46,1.076-0.214,0.674-0.674C121.974,260.608,121.806,255.261,120.907,251.612"/>
	<path fill="#333333" d="M130.31,262.174c0.044,1.137,0.226,2.974-0.713,1.244c-0.419-0.771-0.668-1.669-0.991-2.487
		c-0.943-2.403-1.784-4.81-2.401-7.321c-0.1-0.403-0.716-0.231-0.622,0.172c0.666,2.873,1.678,5.605,2.634,8.388
		c0.412,1.198,0.792,2.752,2.123,3.2c0.216,0.072,0.492-0.086,0.542-0.309c0.214-0.979,0.283-1.884,0.205-2.887
		C131.048,261.683,130.29,261.67,130.31,262.174"/>
	<path fill="#333333" d="M135.981,264.101c-1.145-0.67-1.455-2.793-1.84-3.989c-0.393-1.223-0.773-2.448-1.146-3.677
		c-0.123-0.407-0.76-0.234-0.639,0.176c0.532,1.799,1.083,3.592,1.661,5.377c0.38,1.175,0.477,2.093,1.572,2.784
		C136.012,265.038,136.415,264.354,135.981,264.101"/>
	<path fill="#333333" d="M142.131,260.161c-0.061-0.156-0.315-0.091-0.255,0.071c0.792,2.154,1.381,4.418,2.77,6.288
		c0.182,0.245,0.535-0.022,0.334-0.257C143.498,264.536,142.929,262.245,142.131,260.161"/>
	<path fill="#333333" d="M162.865,264.112c-0.389-1.703-0.737-3.413-1.059-5.129c-0.075-0.399-0.671-0.228-0.604,0.166
		c0.384,2.254,0.816,4.498,1.317,6.728c0.337,1.501,0.481,2.748,1.552,3.906c0.328,0.353,0.808-0.161,0.519-0.52
		C163.457,267.853,163.258,265.832,162.865,264.112"/>
	<path fill="#333333" d="M168.642,267.62c-0.887-2.023-1.036-4.113-1.127-6.294c-0.019-0.457-0.727-0.461-0.716,0
		c0.059,2.287,0.196,4.476,1.093,6.61C168.119,268.479,168.882,268.17,168.642,267.62"/>
	<path fill="#333333" d="M174.605,268.341c0.168,0.122,0.417,0.057,0.557-0.072c0.259-0.233,0.513-0.473,0.763-0.716
		c0.327-0.313-0.12-0.933-0.497-0.646c-1.324,1.007-1.637-1.652-1.791-2.606c-0.294-1.828-0.233-3.682-0.449-5.518
		c-0.055-0.477-0.808-0.49-0.759,0C172.712,261.651,171.899,266.38,174.605,268.341"/>
	<path fill="#333333" d="M186.775,260.369c-0.122-0.521-0.923-0.301-0.802,0.22c0.882,3.785,2.133,7.448,3.594,11.045
		c0.27,0.662,1.199,0.285,0.912-0.385C188.961,267.714,187.646,264.121,186.775,260.369"/>
	<path fill="#333333" d="M194.863,264.467c-0.758-2.208-1.564-4.38-2.162-6.64c-0.134-0.506-0.913-0.291-0.784,0.216
		c0.676,2.625,1.685,5.136,2.418,7.74c0.405,1.435,0.549,2.942,1.597,4.074c0.358,0.385,1.067-0.137,0.743-0.573
		C195.638,267.896,195.418,266.08,194.863,264.467"/>
	<path fill="#333333" d="M199.172,261.792c-0.168-0.445-0.885-0.26-0.724,0.2c0.449,1.288,0.921,2.57,1.423,3.838
		c0.471,1.185,1.222,2.408,1.288,3.693c0.032,0.612,1.001,0.61,0.954,0c-0.09-1.151-0.571-1.976-1.029-3.02
		C200.402,264.951,199.771,263.379,199.172,261.792"/>
	<path fill="#333333" d="M203.964,258.122c-0.144-0.441-0.836-0.256-0.698,0.192c1.116,3.667,1.892,7.479,3.307,11.046
		c0.207,0.525,1.057,0.319,0.868-0.24C206.214,265.474,205.159,261.778,203.964,258.122"/>
	<path fill="#333333" d="M209.852,257.57c-0.1-0.393-0.703-0.227-0.604,0.166c0.795,3.154,1.466,6.344,2.725,9.354
		c0.23,0.554,1.02,0.234,0.766-0.323C211.397,263.817,210.655,260.694,209.852,257.57"/>
	<path fill="#333333" d="M214.682,257.279c-0.13-0.415-0.775-0.242-0.656,0.182c0.395,1.392,0.769,2.791,1.191,4.174
		c0.391,1.275,1.115,2.602,1.222,3.931c0.046,0.583,0.944,0.597,0.918,0c-0.052-1.249-0.75-2.395-1.159-3.558
		C215.65,260.445,215.18,258.858,214.682,257.279"/>
	<path fill="#333333" d="M221.959,259.98c-0.526-1.472-1.075-2.934-1.624-4.396c-0.151-0.404-0.8-0.238-0.655,0.181
		c0.604,1.77,1.21,3.54,1.782,5.322c0.366,1.14,0.561,2.427,1.379,3.341c0.289,0.323,0.879-0.115,0.61-0.472
		C222.662,262.914,222.399,261.208,221.959,259.98"/>
	<path fill="#333333" d="M226.835,254.735c-0.142-0.408-0.791-0.238-0.656,0.182l1.646,5.101c0.154,0.48,0.923,0.27,0.758-0.208
		L226.835,254.735z"/>
	<path fill="#333333" d="M231.289,252.566c0.188,2.258,0.409,4.515,0.45,6.782c0.011,0.542,0.876,0.535,0.84,0
		c-0.15-2.269-0.423-4.524-0.682-6.782C231.854,252.184,231.256,252.17,231.289,252.566"/>
	<path fill="#333333" d="M236.253,248.326c-0.001-0.54-0.83-0.54-0.839,0c-0.063,3.737-0.45,7.445,0.246,11.148
		c0.113,0.6,1.014,0.342,0.911-0.251C235.951,255.615,236.258,251.965,236.253,248.326"/>
	<path fill="#333333" d="M245.734,245.5c0.046,3.263,0.173,6.496,0.73,9.718c0.088,0.51,0.887,0.298,0.782-0.217
		c-0.632-3.139-0.833-6.309-0.965-9.501C246.268,245.149,245.729,245.146,245.734,245.5"/>
	<path fill="#333333" d="M264.794,249.174c-0.001-3.595,0.274-7.152,0.481-10.739c0.023-0.429-0.63-0.421-0.662,0
		c-0.279,3.565-0.817,7.157-0.649,10.739C263.989,249.705,264.794,249.711,264.794,249.174"/>
	<path fill="#333333" d="M270.463,246.064c0.108-3.581,0.419-7.157,0.473-10.738c0.008-0.44-0.66-0.437-0.68,0
		c-0.153,3.568-0.87,7.165-0.657,10.738C269.631,246.619,270.446,246.627,270.463,246.064"/>
	<path fill="#333333" d="M276.722,241.543c0.227-2.067,0.393-4.14,0.499-6.218c0.026-0.524-0.775-0.518-0.813,0
		c-0.151,2.08-0.362,4.151-0.633,6.218C275.698,242.14,276.655,242.146,276.722,241.543"/>
	<path fill="#333333" d="M315.432,190.105c0.072-6.025-0.688-11.995-1.784-17.908c-0.092-0.493-0.835-0.282-0.75,0.207
		c1.027,5.873,1.619,11.739,1.607,17.702C314.503,190.702,315.426,190.702,315.432,190.105"/>
	<path fill="#333333" d="M310.05,197.889c-0.479,0.09-0.362,0.848,0.114,0.841c0.174-0.002,0.349-0.004,0.522-0.006
		c0.225-0.004,0.381-0.148,0.456-0.349c1.118-3.001,0.735-6.272,0.522-9.402c-0.242-3.547-0.907-7.038-1.451-10.547
		c-0.069-0.438-0.726-0.248-0.665,0.184C309.802,180.42,312.869,197.36,310.05,197.889"/>
	<path fill="#333333" d="M304.869,209.113c0.182,0.078,0.364,0.157,0.546,0.235c0.242,0.105,0.474,0.061,0.63-0.165
		c1.86-2.684,1.565-6.207,1.656-9.326c0.127-4.446-0.198-8.843-0.879-13.234c-0.069-0.44-0.725-0.249-0.665,0.183
		c0.551,3.96,0.821,7.944,0.711,11.945c-0.03,1.091-0.119,9.998-1.682,9.611C304.755,208.256,304.426,208.922,304.869,209.113"/>
	<path fill="#333333" d="M303.002,198.123c0.535,3.568,0.44,7.207,0.172,10.797c-0.179,2.39,0.056,5.718-1.111,7.911
		c-0.434-0.438-0.71-0.999-0.829-1.681c-0.135-0.517-0.893-0.296-0.793,0.218c0.217,1.112,0.586,1.796,1.422,2.549
		c0.245,0.219,0.581,0.169,0.764-0.099c1.545-2.261,1.152-5.333,1.365-7.937c0.326-3.976,0.399-8.022-0.231-11.968
		C303.68,197.415,302.927,197.63,303.002,198.123"/>
	<path fill="#333333" d="M298.312,212.644c-0.396,2.576-0.668,5.175-1.236,7.72c-0.139-0.341-0.3-0.67-0.522-1.009
		c-0.097-0.146-0.347-0.18-0.436,0c-1.521,3.097-1.274,7.525-4.229,9.716c-0.375,0.278-0.024,0.915,0.374,0.641
		c1.206-0.831,1.958-1.757,2.435-3.159c0.359-1.061,0.526-2.231,0.771-3.322c0.134-0.592,0.724-3.609,1.377-1.661
		c0.094,0.279,0.542,0.325,0.612,0c0.643-2.902,0.949-5.842,1.382-8.78C298.891,212.443,298.365,212.294,298.312,212.644"/>
	<path fill="#333333" d="M179.68,159.967c0.735-2.044,1.77-3.931,2.783-5.846c0.229-0.431-0.423-0.814-0.655-0.383
		c-1.056,1.961-2.174,3.899-2.869,6.024C178.784,160.237,179.514,160.428,179.68,159.967"/>
	<path fill="#333333" d="M183.046,159.611c0.146-0.074,0.293-0.147,0.438-0.221c0.317-0.159,0.235-0.611-0.015-0.765
		c0.295-0.817,0.747-1.579,1.129-2.359c0.494-1.007,1.01-2.004,1.543-2.99c0.234-0.435-0.421-0.82-0.663-0.388
		c-0.622,1.109-1.204,2.237-1.798,3.36c-0.493,0.93-1.081,1.808-1.301,2.85C182.295,159.495,182.686,159.793,183.046,159.611"/>
	<path fill="#333333" d="M187.229,158.339c0.562-1.133,1.123-2.266,1.685-3.399c0.184-0.37-0.369-0.697-0.557-0.325
		c-0.569,1.128-1.138,2.256-1.708,3.385C186.456,158.385,187.037,158.726,187.229,158.339"/>
	<path fill="#333333" d="M142.529,165.196c0.576-0.649,1.151-1.298,1.726-1.947c0.334-0.376-0.232-0.932-0.548-0.55
		c-0.556,0.67-1.11,1.341-1.666,2.01C141.763,165.044,142.232,165.531,142.529,165.196"/>
	<path fill="#333333" d="M63.513,121.245c0.804-3.326,3.379-6.563,5.057-9.515c0.245-0.431-0.419-0.818-0.664-0.388
		c-1.028,1.806-2.077,3.601-3.119,5.399c-0.8,1.382-1.687,2.718-1.998,4.304C62.698,121.515,63.398,121.719,63.513,121.245"/>
	<path fill="#333333" d="M68,119.823c0.284-1.363,0.735-2.643,1.355-3.889c0.18-0.36-0.361-0.678-0.541-0.316
		c-0.639,1.284-1.127,2.63-1.47,4.024C67.24,120.068,67.912,120.249,68,119.823"/>
	<path fill="#333333" d="M82.545,123.344c-0.467,0.661-0.934,1.323-1.401,1.985c-0.083,0.117,0.107,0.225,0.19,0.111
		c0.475-0.657,0.95-1.314,1.424-1.972C82.852,123.34,82.637,123.215,82.545,123.344"/>
	<path fill="#333333" d="M87.769,123.153c-1.291,1.35-2.521,2.759-3.976,3.938c-0.382,0.311,0.165,0.857,0.544,0.544
		c1.443-1.193,2.66-2.613,3.938-3.976C88.589,123.324,88.088,122.82,87.769,123.153"/>
	<path fill="#333333" d="M102.432,128.327c-0.458,1.043-0.917,2.088-1.375,3.13c-0.146,0.333,0.336,0.627,0.495,0.291l1.451-3.087
		C103.186,128.274,102.602,127.94,102.432,128.327"/>
	<path fill="#333333" d="M52.14,193.919c0.076-0.061,0.15-0.123,0.226-0.186c0.166-0.133,0.13-0.314,0.016-0.434
		c0.689-2.352,1.792-4.496,2.859-6.701c0.185-0.381-0.379-0.717-0.571-0.334c-1.182,2.358-2.571,4.693-3.149,7.294
		C51.436,193.938,51.857,194.149,52.14,193.919"/>
	<path fill="#333333" d="M60.122,187.444c-0.56,0.851-1.12,1.701-1.68,2.553c-0.154,0.233,0.219,0.448,0.374,0.218
		c0.57-0.845,1.14-1.689,1.711-2.535C60.695,187.431,60.288,187.192,60.122,187.444"/>
	<path fill="#333333" d="M64.893,186.293c-0.832,1.517-1.696,3.015-2.593,4.493c-0.221,0.365,0.359,0.704,0.573,0.335
		c0.864-1.5,1.695-3.016,2.494-4.552C65.528,186.258,65.063,185.982,64.893,186.293"/>
	<path fill="#333333" d="M69.546,187.173c-0.184,0.454-0.421,0.886-0.726,1.271c-0.266,0.334-0.621,0.584-0.861,0.935
		c-0.152,0.222,0.104,0.572,0.364,0.474c0.923-0.354,1.589-1.504,1.957-2.37C70.507,186.951,69.765,186.63,69.546,187.173"/>
	<path fill="#333333" d="M302.696,151.082c1.201-1.65,1.932-3.555,2.785-5.395c0.25-0.541-0.545-1.018-0.809-0.472
		c-0.881,1.825-1.642,3.716-2.868,5.345C301.405,151.088,302.307,151.617,302.696,151.082"/>
	<path fill="#333333" d="M289.844,150.851c0.583-0.737,1.163-1.474,1.746-2.211c0.456-0.578-0.373-1.228-0.804-0.621
		c-0.545,0.766-1.09,1.53-1.635,2.296C288.864,150.719,289.532,151.246,289.844,150.851"/>
	<path fill="#333333" d="M229.902,96.667v-0.786C228.946,95.882,228.946,96.667,229.902,96.667"/>
	<path fill="#333333" d="M218.431,90.141v0.963C219.386,91.104,219.386,90.141,218.431,90.141"/>
	<path fill="#333333" d="M213.65,89.032v0.919C214.606,89.951,214.606,89.032,213.65,89.032"/>
	<path fill="#333333" d="M207.915,87.685v0.786C209.826,88.471,209.826,87.685,207.915,87.685"/>
	<path fill="#333333" d="M201.223,88.771v0.875C203.135,89.646,203.135,88.771,201.223,88.771"/>
	<path fill="#333333" d="M142.346,94.64c2.384-2.817,4.025-6.057,5.17-9.553c0.177-0.542-0.672-0.771-0.852-0.234
		c-1.12,3.34-2.694,6.424-5.005,9.1C141.251,94.425,141.943,95.117,142.346,94.64"/>
	<path fill="#333333" d="M121.443,102.134c0.928-1.61,1.875-3.208,2.841-4.796c0.288-0.472-0.456-0.906-0.739-0.432
		c-0.957,1.593-1.894,3.198-2.812,4.813C120.473,102.18,121.18,102.593,121.443,102.134"/>
</g>
</svg>
