<?xml version="1.0" encoding="utf-8"?>
<!-- Generator: Adobe Illustrator 16.0.0, SVG Export Plug-In . SVG Version: 6.00 Build 0)  -->
<!DOCTYPE svg PUBLIC "-//W3C//DTD SVG 1.1//EN" "http://www.w3.org/Graphics/SVG/1.1/DTD/svg11.dtd">
<svg version="1.1" id="Layer_1" xmlns="http://www.w3.org/2000/svg" xmlns:xlink="http://www.w3.org/1999/xlink" x="0px" y="0px"
	 width="350px" height="350px" viewBox="0 0 350 350" enable-background="new 0 0 350 350" xml:space="preserve">
<path fill="#FFDC64" d="M176.543,35.604c50.682,0.735,94.215,39.156,101.384,89.333c11.963,83.723-83.131,152.436-100.299,164.096
	c-1.601,1.088-3.654,1.089-5.255,0.001c-16.154-10.972-101.337-72.48-101.337-149.477C71.036,81.626,118.418,34.762,176.543,35.604z
	"/>
<circle fill="#FFC850" cx="175" cy="139.558" r="75.61"/>
<path fill="#FFFFFF" d="M198.832,87.576c-13.551,0-20.019,3.019-22.515,4.639c-0.803,0.522-1.786,0.522-2.59,0
	c-2.496-1.62-8.963-4.639-22.513-4.639c-14.616,0-31.346,3.228-38.624,4.8c-2.172,0.469-3.703,2.393-3.703,4.614v82.135
	c0,1.508,1.371,2.637,2.844,2.313c6.739-1.484,24.259-4.986,39.483-4.986c6.849,0,11.88,0.771,15.508,1.743
	c2.092,0.561,3.553,1.717,3.553,3.883v0.013c0,2.612,2.113,4.726,4.726,4.726s4.726-2.113,4.726-4.726l0,0
	c0-2.163,1.457-3.318,3.547-3.882c3.632-0.979,8.678-1.757,15.56-1.757c15.226,0,32.744,3.503,39.482,4.986
	c1.473,0.324,2.845-0.805,2.845-2.313V96.989c0-2.222-1.532-4.146-3.703-4.615C230.179,90.804,213.448,87.576,198.832,87.576z"/>
<path fill="#707487" d="M222.262,117.941c-0.236,0-0.472-0.019-0.711-0.051c-15.377-2.321-27.542-2.635-36.011-0.632
	c-2.532,0.614-5.09-0.969-5.686-3.507c-0.604-2.538,0.969-5.086,3.508-5.686c9.732-2.303,22.912-2.04,39.6,0.475
	c2.58,0.392,4.356,2.801,3.97,5.381C226.576,116.262,224.56,117.941,222.262,117.941z"/>
<path fill="#7F8499" d="M222.262,155.747c-0.236,0-0.472-0.019-0.711-0.051c-15.377-2.321-27.542-2.635-36.011-0.632
	c-2.532,0.6-5.09-0.97-5.686-3.507c-0.604-2.539,0.969-5.086,3.508-5.686c9.732-2.308,22.912-2.04,39.6,0.475
	c2.58,0.392,4.356,2.801,3.97,5.381C226.576,154.067,224.56,155.747,222.262,155.747z"/>
<path fill="#707487" d="M184.446,136.29c-2.142,0-4.079-1.463-4.596-3.641c-0.596-2.539,0.973-5.086,3.517-5.686
	c1.521-0.355,3.239-0.683,5.173-0.946c2.606-0.333,4.971,1.468,5.32,4.047c0.352,2.589-1.463,4.971-4.047,5.321
	c-1.603,0.217-3.023,0.48-4.278,0.779C185.171,136.248,184.807,136.29,184.446,136.29z"/>
<g>
	<path fill="#7F8499" d="M222.262,136.844c-0.236,0-0.472-0.019-0.711-0.051c-4.93-0.748-9.577-1.283-13.821-1.602
		c-2.603-0.194-4.556-2.46-4.362-5.063c0.194-2.603,2.482-4.559,5.063-4.361c4.48,0.333,9.368,0.9,14.532,1.675
		c2.58,0.392,4.356,2.801,3.97,5.381C226.576,135.165,224.56,136.844,222.262,136.844z"/>
	<path fill="#7F8499" d="M127.739,117.941c-2.299,0-4.315-1.68-4.67-4.02c-0.388-2.58,1.389-4.989,3.969-5.381
		c16.688-2.51,29.872-2.778,39.6-0.475c2.538,0.6,4.112,3.147,3.508,5.686c-0.601,2.538-3.157,4.121-5.686,3.507
		c-8.468-2.003-20.628-1.688-36.01,0.632C128.209,117.922,127.974,117.941,127.739,117.941z"/>
</g>
<g>
	<path fill="#707487" d="M127.739,155.747c-2.299,0-4.315-1.68-4.67-4.02c-0.388-2.58,1.389-4.989,3.969-5.381
		c16.688-2.51,29.872-2.778,39.6-0.475c2.538,0.6,4.112,3.147,3.508,5.686c-0.601,2.538-3.157,4.106-5.686,3.507
		c-8.468-2.003-20.628-1.689-36.01,0.632C128.209,155.728,127.974,155.747,127.739,155.747z"/>
	<path fill="#707487" d="M165.554,136.29c-0.36,0-0.725-0.041-1.089-0.125c-1.255-0.3-2.676-0.563-4.278-0.779
		c-2.585-0.351-4.398-2.732-4.048-5.321c0.355-2.58,2.723-4.379,5.321-4.047c1.933,0.263,3.651,0.591,5.173,0.946
		c2.543,0.6,4.112,3.147,3.516,5.686C169.633,134.823,167.695,136.29,165.554,136.29z"/>
</g>
<path fill="#7F8499" d="M127.739,136.844c-2.299,0-4.315-1.68-4.67-4.02c-0.388-2.58,1.389-4.989,3.969-5.381
	c5.164-0.775,10.051-1.343,14.532-1.675c2.672-0.244,4.869,1.759,5.063,4.361s-1.758,4.869-4.361,5.063
	c-4.246,0.318-8.893,0.853-13.821,1.602C128.209,136.825,127.974,136.844,127.739,136.844z"/>
<path fill="#E4EAF8" d="M203.354,314.406h-56.708c-2.612,0-4.726-2.112-4.726-4.725s2.113-4.727,4.726-4.727h56.708
	c2.612,0,4.725,2.114,4.725,4.727S205.966,314.406,203.354,314.406z"/>
</svg>
