<?xml version="1.0" encoding="utf-8"?>
<!-- Generator: Adobe Illustrator 16.0.0, SVG Export Plug-In . SVG Version: 6.00 Build 0)  -->
<!DOCTYPE svg PUBLIC "-//W3C//DTD SVG 1.1//EN" "http://www.w3.org/Graphics/SVG/1.1/DTD/svg11.dtd">
<svg version="1.1" id="Layer_1" xmlns="http://www.w3.org/2000/svg" xmlns:xlink="http://www.w3.org/1999/xlink" x="0px" y="0px"
	 width="350px" height="350px" viewBox="0 0 350 350" enable-background="new 0 0 350 350" xml:space="preserve">
<g>
	
		<linearGradient id="SVGID_1_" gradientUnits="userSpaceOnUse" x1="606.5166" y1="249.9453" x2="632.7964" y2="231.0238" gradientTransform="matrix(0.9653 -0.2612 0.2612 0.9653 -373.251 84.0684)">
		<stop  offset="0.0047" style="stop-color:#343F45"/>
		<stop  offset="0.2399" style="stop-color:#374147"/>
		<stop  offset="0.392" style="stop-color:#3F4A4F"/>
		<stop  offset="0.5205" style="stop-color:#4E585D"/>
		<stop  offset="0.6359" style="stop-color:#636B70"/>
		<stop  offset="0.7426" style="stop-color:#7E8588"/>
		<stop  offset="0.8428" style="stop-color:#A0A4A7"/>
		<stop  offset="0.9361" style="stop-color:#C7C9CA"/>
		<stop  offset="1" style="stop-color:#E6E6E6"/>
	</linearGradient>
	<path fill="url(#SVGID_1_)" d="M292.396,143.511l-8.127,2.201l3.109,11.489l8.127-2.199c3.972-1.075,6.495-4.517,5.638-7.691
		C300.285,144.138,296.369,142.437,292.396,143.511z"/>
	
		<linearGradient id="SVGID_2_" gradientUnits="userSpaceOnUse" x1="493.3125" y1="224.4473" x2="493.3125" y2="205.9863" gradientTransform="matrix(0.9653 -0.2612 0.2612 0.9653 -373.251 84.0684)">
		<stop  offset="0" style="stop-color:#6E6E6E"/>
		<stop  offset="0.2278" style="stop-color:#555A5C"/>
		<stop  offset="0.468" style="stop-color:#434B4F"/>
		<stop  offset="0.7188" style="stop-color:#384248"/>
		<stop  offset="0.9953" style="stop-color:#343F45"/>
	</linearGradient>
	<polygon fill="url(#SVGID_2_)" points="149.862,155.916 166.164,170.63 168.062,168.565 155.132,154.491 	"/>
	
		<linearGradient id="SVGID_3_" gradientUnits="userSpaceOnUse" x1="543.998" y1="215.2188" x2="543.998" y2="205.9883" gradientTransform="matrix(0.9653 -0.2612 0.2612 0.9653 -373.251 84.0684)">
		<stop  offset="0" style="stop-color:#6E6E6E"/>
		<stop  offset="0.2278" style="stop-color:#555A5C"/>
		<stop  offset="0.468" style="stop-color:#434B4F"/>
		<stop  offset="0.7188" style="stop-color:#384248"/>
		<stop  offset="0.9953" style="stop-color:#343F45"/>
	</linearGradient>
	<polygon fill="url(#SVGID_3_)" points="207.146,140.417 203.575,141.384 203.812,142.047 206.668,150.109 210.186,149.158 	"/>
	
		<linearGradient id="SVGID_4_" gradientUnits="userSpaceOnUse" x1="477.9551" y1="255.3076" x2="477.9551" y2="183.527" gradientTransform="matrix(0.9653 -0.2612 0.2612 0.9653 -373.251 84.0684)">
		<stop  offset="0.0082" style="stop-color:#00449C"/>
		<stop  offset="0.0346" style="stop-color:#0048A2"/>
		<stop  offset="0.2066" style="stop-color:#0061C1"/>
		<stop  offset="0.3852" style="stop-color:#0074DA"/>
		<stop  offset="0.5712" style="stop-color:#0081EC"/>
		<stop  offset="0.7691" style="stop-color:#0089F7"/>
		<stop  offset="0.9996" style="stop-color:#008CFA"/>
	</linearGradient>
	<path fill="url(#SVGID_4_)" d="M246.889,155.826c-6.365-19.946-10.607-20.815-22.744-15.442
		c-9.628,4.262-115.244,51.723-115.244,51.723c-20.864,8.795-24.708-37.822-43.419-32.758
		c-14.494,3.923-18.942,26.731-15.871,46.717c0.159,1.032,0.338,2.024,0.536,2.99L246.889,155.826z"/>
	
		<linearGradient id="SVGID_5_" gradientUnits="userSpaceOnUse" x1="606.5928" y1="271.9863" x2="606.5928" y2="231.2402" gradientTransform="matrix(0.9653 -0.2612 0.2612 0.9653 -373.251 84.0684)">
		<stop  offset="0.0082" style="stop-color:#00449C"/>
		<stop  offset="0.0346" style="stop-color:#0048A2"/>
		<stop  offset="0.2066" style="stop-color:#0061C1"/>
		<stop  offset="0.3852" style="stop-color:#0074DA"/>
		<stop  offset="0.5712" style="stop-color:#0081EC"/>
		<stop  offset="0.7691" style="stop-color:#0089F7"/>
		<stop  offset="0.9996" style="stop-color:#008CFA"/>
	</linearGradient>
	<path fill="url(#SVGID_5_)" d="M285.82,145.292l-26.355,7.131l4.745,17.537l5.897,21.796
		C297.6,176.105,285.82,145.292,285.82,145.292z"/>
	
		<linearGradient id="SVGID_6_" gradientUnits="userSpaceOnUse" x1="546.4658" y1="300.9863" x2="546.4658" y2="263.7671" gradientTransform="matrix(0.9653 -0.2612 0.2612 0.9653 -373.251 84.0684)">
		<stop  offset="0" style="stop-color:#E6E6E6"/>
		<stop  offset="0.1185" style="stop-color:#E0E1E1"/>
		<stop  offset="0.2732" style="stop-color:#D0D1D2"/>
		<stop  offset="0.4479" style="stop-color:#B5B8BA"/>
		<stop  offset="0.6374" style="stop-color:#8F9598"/>
		<stop  offset="0.8364" style="stop-color:#60686C"/>
		<stop  offset="0.9953" style="stop-color:#343F45"/>
	</linearGradient>
	<polygon fill="url(#SVGID_6_)" points="208.547,201.225 235.107,225.198 238.458,224.291 239.477,197.051 	"/>
	
		<linearGradient id="SVGID_7_" gradientUnits="userSpaceOnUse" x1="568.0898" y1="233.9668" x2="554.8931" y2="210.087" gradientTransform="matrix(0.9653 -0.2612 0.2612 0.9653 -373.251 84.0684)">
		<stop  offset="0.0086" style="stop-color:#FFFFFF"/>
		<stop  offset="0.0686" style="stop-color:#F1FDFF"/>
		<stop  offset="0.2334" style="stop-color:#D2F8FF"/>
		<stop  offset="0.4047" style="stop-color:#B9F5FF"/>
		<stop  offset="0.583" style="stop-color:#A7F2FF"/>
		<stop  offset="0.7727" style="stop-color:#9CF0FF"/>
		<stop  offset="0.9935" style="stop-color:#99F0FF"/>
	</linearGradient>
	<path fill="url(#SVGID_7_)" d="M221.915,162.583l18.554-5.021c-4.03-14.899-6.444-16.38-14.137-13.054
		c-0.848,0.366-4.172,1.915-8.27,3.837L221.915,162.583z"/>
	
		<linearGradient id="SVGID_8_" gradientUnits="userSpaceOnUse" x1="539.625" y1="231.2402" x2="539.625" y2="217.6582" gradientTransform="matrix(0.9653 -0.2612 0.2612 0.9653 -373.251 84.0684)">
		<stop  offset="0.0086" style="stop-color:#FFFFFF"/>
		<stop  offset="0.0686" style="stop-color:#F1FDFF"/>
		<stop  offset="0.2334" style="stop-color:#D2F8FF"/>
		<stop  offset="0.4047" style="stop-color:#B9F5FF"/>
		<stop  offset="0.583" style="stop-color:#A7F2FF"/>
		<stop  offset="0.7727" style="stop-color:#9CF0FF"/>
		<stop  offset="0.9935" style="stop-color:#99F0FF"/>
	</linearGradient>
	<path fill="url(#SVGID_8_)" d="M211.993,151.197c-7.153,3.368-14.261,6.728-14.261,6.728l2.824,10.435l14.983-4.054
		L211.993,151.197z"/>
	
		<radialGradient id="SVGID_9_" cx="551.6543" cy="295.4355" r="13.0156" gradientTransform="matrix(0.9653 -0.2612 0.2612 0.9653 -373.251 84.0684)" gradientUnits="userSpaceOnUse">
		<stop  offset="0" style="stop-color:#9C9C9C"/>
		<stop  offset="1" style="stop-color:#000000"/>
	</radialGradient>
	<circle fill="url(#SVGID_9_)" cx="236.428" cy="225.161" r="13.016"/>
	
		<radialGradient id="SVGID_10_" cx="551.6543" cy="295.4355" r="5.4824" gradientTransform="matrix(0.9653 -0.2612 0.2612 0.9653 -373.251 84.0684)" gradientUnits="userSpaceOnUse">
		<stop  offset="0" style="stop-color:#E6E6E6"/>
		<stop  offset="0.2138" style="stop-color:#E2E3E4"/>
		<stop  offset="0.4288" style="stop-color:#D6DCDF"/>
		<stop  offset="0.6444" style="stop-color:#C2CFD6"/>
		<stop  offset="0.8592" style="stop-color:#A6BDC9"/>
		<stop  offset="1" style="stop-color:#8FAFBF"/>
	</radialGradient>
	<circle fill="url(#SVGID_10_)" cx="236.428" cy="225.161" r="5.483"/>
	
		<linearGradient id="SVGID_11_" gradientUnits="userSpaceOnUse" x1="518.3125" y1="208.1016" x2="518.3125" y2="194.1113" gradientTransform="matrix(0.9653 -0.2612 0.2612 0.9653 -373.251 84.0684)">
		<stop  offset="0" style="stop-color:#A60004"/>
		<stop  offset="0.3613" style="stop-color:#C02902"/>
		<stop  offset="0.7834" style="stop-color:#DB5301"/>
		<stop  offset="1" style="stop-color:#E56300"/>
	</linearGradient>
	<path fill="url(#SVGID_11_)" d="M141.406,160.394l80.06-21.661c0,0-3.55-15.823-21.434-8.429
		c-17.885,7.392-53.902,22.985-57.41,24.471C139.846,155.95,141.406,160.394,141.406,160.394z"/>
	
		<linearGradient id="SVGID_12_" gradientUnits="userSpaceOnUse" x1="487.5215" y1="273.6885" x2="487.5215" y2="249.4023" gradientTransform="matrix(0.9653 -0.2612 0.2612 0.9653 -373.251 84.0684)">
		<stop  offset="0" style="stop-color:#708A96"/>
		<stop  offset="0.2658" style="stop-color:#98A9B1"/>
		<stop  offset="0.5921" style="stop-color:#C2CACE"/>
		<stop  offset="0.8481" style="stop-color:#DCDEDF"/>
		<stop  offset="1" style="stop-color:#E6E6E6"/>
	</linearGradient>
	<path fill="url(#SVGID_12_)" d="M96.022,223.128c34.929-9.147,96.911-14.97,151.921-24.075c9.333-1.544,16.544-4.136,22.15-7.348
		l-5.884-21.746L60.785,224.998C67.664,228.086,78.553,227.701,96.022,223.128z"/>
	
		<linearGradient id="SVGID_13_" gradientUnits="userSpaceOnUse" x1="484.4238" y1="249.4082" x2="484.4238" y2="231.2344" gradientTransform="matrix(0.9653 -0.2612 0.2612 0.9653 -373.251 84.0684)">
		<stop  offset="0" style="stop-color:#A60004"/>
		<stop  offset="0.1616" style="stop-color:#B31503"/>
		<stop  offset="0.5343" style="stop-color:#CE3F01"/>
		<stop  offset="0.8265" style="stop-color:#DF5900"/>
		<stop  offset="1" style="stop-color:#E56300"/>
	</linearGradient>
	<path fill="url(#SVGID_13_)" d="M60.785,224.998l203.425-55.039l-4.745-17.537L50.147,209.056
		C51.729,216.769,54.673,222.257,60.785,224.998z"/>
	
		<radialGradient id="SVGID_14_" cx="621.7754" cy="236.9365" r="28.2244" gradientTransform="matrix(0.9653 -0.2612 0.2612 0.9653 -373.251 84.0684)" gradientUnits="userSpaceOnUse">
		<stop  offset="0" style="stop-color:#575757"/>
		<stop  offset="1" style="stop-color:#000000"/>
	</radialGradient>
	<path fill="url(#SVGID_14_)" d="M300.37,186.932c0.229,0.846-0.271,1.715-1.117,1.944l0,0c-0.844,0.229-1.715-0.271-1.944-1.115
		l-20.005-73.941c-0.228-0.844,0.271-1.715,1.117-1.944l0,0c0.844-0.227,1.715,0.272,1.944,1.117L300.37,186.932z"/>
	
		<linearGradient id="SVGID_15_" gradientUnits="userSpaceOnUse" x1="405.0527" y1="244.7637" x2="405.0527" y2="235.0371" gradientTransform="matrix(0.9653 -0.2612 0.2612 0.9653 -373.251 84.0684)">
		<stop  offset="0" style="stop-color:#8FAFBF"/>
		<stop  offset="0.0758" style="stop-color:#98B4C3"/>
		<stop  offset="0.4868" style="stop-color:#C2CFD6"/>
		<stop  offset="0.8088" style="stop-color:#DCE0E2"/>
		<stop  offset="1" style="stop-color:#E6E6E6"/>
	</linearGradient>
	<path fill="url(#SVGID_15_)" d="M54.104,211.924l50.068-13.546c0,0-1.016,10.35-26.246,17.177
		C61.671,219.952,54.104,211.924,54.104,211.924z"/>
</g>
</svg>
