<?xml version="1.0" encoding="utf-8"?>
<!-- Generator: Adobe Illustrator 16.0.0, SVG Export Plug-In . SVG Version: 6.00 Build 0)  -->
<!DOCTYPE svg PUBLIC "-//W3C//DTD SVG 1.1//EN" "http://www.w3.org/Graphics/SVG/1.1/DTD/svg11.dtd">
<svg version="1.1" id="Capa_1" xmlns="http://www.w3.org/2000/svg" xmlns:xlink="http://www.w3.org/1999/xlink" x="0px" y="0px"
	 width="350px" height="350px" viewBox="0 0 350 350" enable-background="new 0 0 350 350" xml:space="preserve">
<g>
	<path d="M293.256,226.252c-7.984-17.221-8.1-40.446-8.1-40.681V102.8h-8.493V51.839h-80.69V102.8h-8.494v77.267
		c0,6.595-4.161,12.537-10.357,14.792l-83.073,30.208v9.386l-24.444,0.004c-1.1-0.056-10.745-0.161-15.552,6.252
		c-1.902,2.544-3.682,7.053-1.363,14.137c3.253,9.921,18.737,24.483,41.356,32.879v7.067l2.888,0.973
		c5.041,1.703,10.299,2.391,15.743,2.391c10.893,0,22.521-2.752,34.595-5.614l3.856-0.913c36.497-8.565,62.407-6.773,85.272-5.193
		c6.545,0.45,12.728,0.878,18.907,1.058c28.382,0.765,35.163-10.512,37.385-14.231l0.233-0.387
		C295.506,269.052,303.673,248.718,293.256,226.252z M204.467,83.647c2.345,0,4.246-1.903,4.246-4.247s-1.901-4.247-4.246-4.247
		V60.332h63.702v42.469h-63.702V83.647z M60.762,252.2c-0.947-2.892-0.921-5.041,0.081-6.383c1.763-2.37,6.485-2.875,8.405-2.875
		c0.081,0,0.153,0.005,0.225,0.005h24.581v35.689C74.691,270.742,62.851,258.575,60.762,252.2z M285.879,268.135
		c-0.136,0.199-0.293,0.459-0.48,0.772c-4.268,7.144-14.27,10.604-29.851,10.095c-6.01-0.169-12.107-0.595-18.563-1.036
		c-23.46-1.626-50.054-3.461-87.8,5.398l-3.877,0.917c-15.641,3.703-30.476,7.22-42.77,4.272v-54.101v-3.44l77.479-28.173
		c9.542-3.47,15.951-12.626,15.951-22.772v-68.773h80.689v74.277c0,1.023,0.103,25.308,8.889,44.256
		C295.171,250.578,285.968,267.994,285.879,268.135z"/>
	<circle cx="204.467" cy="185.571" r="4.247"/>
	<circle cx="221.454" cy="185.571" r="4.247"/>
	<circle cx="212.96" cy="66.66" r="4.247"/>
	<circle cx="225.7" cy="75.154" r="4.247"/>
	<circle cx="217.208" cy="87.894" r="4.247"/>
	<circle cx="204.467" cy="202.559" r="4.247"/>
	<circle cx="212.96" cy="194.065" r="4.247"/>
	<circle cx="221.454" cy="202.559" r="4.247"/>
	<circle cx="229.948" cy="211.052" r="4.247"/>
</g>
</svg>
