<?xml version="1.0" encoding="utf-8"?>
<!-- Generator: Adobe Illustrator 16.0.0, SVG Export Plug-In . SVG Version: 6.00 Build 0)  -->
<!DOCTYPE svg PUBLIC "-//W3C//DTD SVG 1.1//EN" "http://www.w3.org/Graphics/SVG/1.1/DTD/svg11.dtd">
<svg version="1.1" id="Layer_1" xmlns="http://www.w3.org/2000/svg" xmlns:xlink="http://www.w3.org/1999/xlink" x="0px" y="0px"
	 width="350px" height="350px" viewBox="0 0 350 350" enable-background="new 0 0 350 350" xml:space="preserve">
<path fill="#332C26" d="M174.26,170.574c-0.825,0.101-1.582,0.804-1.302,1.858c0.071,0.271,0.144,0.536,0.216,0.801
	c0.285,1.052,0.539,2.077,0.624,3.136c1.061-0.319,2.433,0.241,2.459,1.687c0.009,0.467-0.001,0.927-0.021,1.383
	c0.49-0.3,0.768-0.736,0.827-1.383c0.216-2.317-0.506-4.236-1.183-6.428C175.624,170.8,174.919,170.495,174.26,170.574z"/>
<g>
	<path fill="#FFFFFF" d="M171.87,218.405c-10.364,0.307-20.948-0.686-31.011-3.256c-4.192-1.071-8.513-2.088-12.233-4.392
		c-2.339-1.449-4.583-3.043-6.929-4.469c0.428,1.913,0.836,3.83,1.21,5.754c3.182,16.402,5.431,32.953,7.938,49.467
		c2.815,0.836,5.034,2.735,7.518,4.328c3.139,2.017,6.843,3.199,10.428,4.175c7.519,2.047,15.306,2.927,23.069,3.435
		c7.891,0.516,15.97,0.405,23.678-1.556c7.533-1.916,14.79-4.928,21.876-8.093c1.854-8.306,3.789-16.595,5.449-24.942
		c2.219-11.16,3.607-22.4,5.054-33.664c-8.166,4.514-16.694,7.083-25.914,9.055C192.104,216.365,182.009,218.104,171.87,218.405z
		 M196.177,250.191c-1.139,9.67-11.08,16.104-20.149,16.912c-11.154,0.994-21.163-6.308-22.152-17.791
		c-0.487-5.658,0.734-12.312,4.988-16.433c4.793-4.642,10.465-4.33,16.405-4.049c6.213-0.369,11.892,1.55,16.004,6.394
		C194.717,239.281,196.805,244.865,196.177,250.191z"/>
	<path fill="#8F5D3D" d="M153.482,176.604c-11.126-0.475-23.079-0.47-33.813-3.714c-1.832-0.554-3.697-1.266-5.484-2.136
		c0.12,1.984,0.951,5.437,1.097,6.247c0.808,4.5,1.715,8.979,2.714,13.438c0.864,3.862,1.809,7.713,2.717,11.572
		c3.222,1.114,6.03,2.932,9.028,4.603c3.893,2.171,7.948,3.333,12.284,4.306c9.799,2.2,19.784,3.502,29.845,3.086
		c10.253-0.426,20.336-2.106,30.349-4.287c9.362-2.039,17.822-4.594,26.182-9.393c0.053-0.03,0.104-0.046,0.157-0.071
		c0.021-0.166,0.043-0.332,0.064-0.499c0.701-5.311,1.714-10.451,3.053-15.64c1.097-4.251,1.751-8.786,3.036-13.005
		c-5.293,1.216-10.983,1.49-16.212,2.013C196.92,175.275,175.198,177.529,153.482,176.604z"/>
	<path fill="#E3C061" d="M174.787,231.977c-0.417,0.022-0.741-0.094-0.983-0.29c-4.471,0.31-9.119,0.535-12.141,3.993
		c-3.233,3.701-4.463,9.221-3.522,14.029c1.71,8.737,9.06,13.99,17.887,13.25c7.092-0.594,15.208-4.903,16.575-12.531
		c0.845-4.708-0.902-10.224-4.201-13.683C184.69,232.855,180.038,231.693,174.787,231.977z M166.501,245.104
		c-3.396,0-3.396-5.268,0-5.268S169.897,245.104,166.501,245.104z M175.823,249.62c-2.479-0.054-4.608-2.027-4.806-4.514
		c-0.074-0.939,1.326-1.566,1.935-0.801c0.634,0.798,1.413,2.413,2.635,2.409c1.295-0.005,1.667-1.341,2.081-2.333
		c0.541-1.295,2.553-1.235,2.572,0.348C180.269,247.117,178.385,249.678,175.823,249.62z M183.45,243.827
		c-3.207,0-3.207-4.975,0-4.975S186.657,243.827,183.45,243.827z"/>
	<path fill="#FF4F4F" d="M181.202,105.905c-0.211-3.187,0.058-6.372,0.499-9.552c-2.886-0.129-5.782-0.101-8.664,0.087
		c-0.977,0.063-1.953,0.146-2.93,0.24c-0.336,4.248-0.669,8.497-0.995,12.751c1.496,0.02,2.994-0.119,4.496-0.552
		C176.245,108.119,178.729,106.955,181.202,105.905z"/>
	<path fill="#FF4F4F" d="M182.402,91.888c0.504-2.985,1.031-5.963,1.326-8.931c0.791-7.957,0.594-15.975,0.999-23.956
		c0.385-7.611,0.481-15.288,1.8-22.813c0.257-1.466,0.89-3.295,0.726-4.803c-0.015-0.135-1.979-0.536-2.118-0.567
		c-2.786-0.636-5.607-0.758-8.444-0.785c-2.658,20.673-4.545,41.34-6.218,62.073c1.201-0.104,2.406-0.19,3.616-0.243
		C176.843,91.743,179.623,91.75,182.402,91.888z"/>
	<path fill="#916B51" d="M201.135,111.341c-3.033-2.56-6.998-4.923-11.115-4.956c-0.049,0.218-0.171,0.438-0.391,0.642
		c-4.529,4.193-3.897,10.627-11.146,11.727c-7.703,1.167-16.132-3.546-22.737,2.835c-0.234,0.226-0.453,0.465-0.671,0.704
		c10.446-1.233,18.058,19.591,28.409,10.409c6.367-5.648,11.035-18.761,21.043-16.978
		C203.729,114.116,202.678,112.642,201.135,111.341z"/>
	<path fill="#FFFFFF" d="M116.728,142.28c0.059-1.469,0.259-2.806,0.783-4.189c0.84-2.215,2.776-4.136,4.827-5.271
		c2.899-1.609,6.242-2.4,8.947-4.348c2.581-1.859,4.726-4.206,6.76-6.636c3.896-4.654,7.611-9.643,13.233-12.299
		c5.013-2.366,9.967-0.9,14.933-0.312c0.012-4.034,0.108-8.071,0.27-12.111c-12.065,1.669-23.835,5.871-33.279,13.779
		c-5.433,4.55-10.16,9.941-13.531,16.205c-3.14,5.834-4.771,11.915-6.304,18.253c1.419,0.372,2.832,0.806,4.26,1.191
		C117.247,145.148,116.665,143.845,116.728,142.28z"/>
	<path fill="#543E2F" d="M145.798,135.25c0.403,3.647,1.298,6.931,5.384,7.622c3.413,0.575,6.977,0.056,10.37-0.416
		c3.083-0.428,6.279-1.056,9.403-0.879c4.704,0.266,8.881,3.363,13.553,3.456c9.534,0.189,13.971-12.563,24.125-8.727
		c5.051,1.909,14.912,12.155,18.176,3.441c-0.208-0.26-0.423-0.513-0.655-0.747c-2.379-2.393-5.321-3.579-8.364-4.894
		c-5.867-2.534-9.456-6.004-11.169-12.307c-0.261-0.958-0.52-1.892-0.807-2.797c-10.813-3.692-14.683,14.052-22.795,17.962
		c-4.948,2.385-9.953,0.869-14.038-2.518c-4.39-3.639-9.376-10.965-15.823-9.67C150.758,128.372,149.123,132.529,145.798,135.25z"/>
	<path fill="#8F5D3D" d="M171.859,277.606c-8.109-0.617-16.33-1.306-24.149-3.677c-3.366-1.021-7.323-2.009-10.23-4.072
		c-2.104-1.495-4.055-3.201-6.09-4.786c1.295,8.362,2.734,16.7,4.072,25.055c0.41,2.563,0.737,5.11,1.028,7.688
		c0.186,1.641,0.068,5.565,1.356,6.833c0.604,0.595,0.678,1.296,0.451,1.897c4.034,3.035,7.941,6.332,12.445,8.596
		c6.779,3.405,14.622,4.698,22.169,4.62c7.963-0.085,16.889-0.905,24.422-3.684c5.386-1.984,9.275-5.637,12.355-10.267
		c-0.087-0.362-0.062-0.766,0.146-1.183c2.081-4.18,2.283-9.418,2.768-13.975c0.496-4.664,1.104-9.233,2.024-13.836
		c0.549-2.737,1.129-5.466,1.722-8.193c-6.374,2.874-12.955,5.667-19.717,7.241C188.522,277.755,180.156,278.235,171.859,277.606z"
		/>
	<path fill="#FFFFFF" d="M195.334,104.408c7.55,2.771,12.148,7.694,14.471,15.294c1.47,4.81,3.238,8.288,7.98,10.453
		c3.095,1.413,6.245,2.577,8.98,4.647c4.362,3.301,6.289,9.035,6.023,14.406c1.023-0.085,2.047-0.184,3.07-0.296
		c-2.467-16.027-8.65-33.081-22.467-42.592c-8.251-5.679-17.817-8.692-27.656-9.677c-0.339,2.589-0.574,5.178-0.58,7.766
		C188.346,103.414,191.641,103.053,195.334,104.408z"/>
	<path fill="#916B51" d="M228.598,143.001c-3.869,6.152-12.031,1.875-17.479-1.803c-2.305-1.557-5.126-3.651-8.078-2.76
		c-2.729,0.822-4.816,2.704-6.97,4.491c-3.728,3.092-7.91,5.765-12.988,4.902c-5.299-0.9-9.838-3.589-15.344-3.015
		c-3.895,0.406-7.749,1.26-11.662,1.491c-6.774,0.398-12.923-2.309-12.902-9.417c-2.973,1.403-6.26,2.327-8.973,4.223
		c-3.095,2.163-2.109,4.795-1.659,7.863c1.669,0.137,3.344,0.235,5.027,0.289c12.075,0.384,24.009,0.815,36.067,1.657
		c12.115,0.846,24.021-0.092,36.115-0.717c6.631-0.342,13.19-0.362,19.731-0.76C229.623,147.352,229.346,145.061,228.598,143.001z"
		/>
	<path fill="#543E2F" d="M129.517,142.114c1.341-3.064,4.845-4.56,7.726-5.827c3.525-1.554,7.364-2.727,9.432-6.281
		c1.705-2.929,3.066-6.086,5.26-8.71c4.642-5.55,11.508-6.901,18.424-5.964c4.788,0.649,10.325,1.823,12.906-3.315
		c0.888-1.768,1.657-3.525,2.822-5.033c-0.439,0.125-0.875,0.263-1.306,0.415c-0.393,0.465-1.013,0.671-1.634,0.624
		c-4.164,1.733-8.107,4.19-12.765,4.104c-7.263-0.137-14.243-3.136-20.758,1.623c-4.324,3.157-7.122,7.667-10.521,11.703
		c-3.708,4.4-7.521,6.725-12.619,9.174c-2.62,1.259-5.722,2.9-6.229,6.093c-0.343,2.155,0.046,4.29-0.154,6.414
		c3.243,0.702,6.501,1.228,9.781,1.587C129.212,146.586,128.633,144.134,129.517,142.114z"/>
	<path fill="#8F5D3D" d="M175.084,154.865c-6.27-0.44-12.525-1.109-18.803-1.418c-6.234-0.308-12.476-0.094-18.711-0.351
		c-5.903-0.242-11.975-0.653-17.726-2.106c-4.474-1.13-8.834-2.637-13.311-3.766c-3.957,6.625,7.953,8.893,12.581,9.868
		c7.375,1.553,14.876,2.217,22.382,2.762c8.24,0.598,16.376,1.394,24.657,1.36c9.367-0.04,18.721-0.528,28.064-1.173
		c9.137-0.631,18.265-1.35,27.412-1.799c7.701-0.379,15.34-1.06,22.72-3.293c0.219-0.403,0.584-0.669,1.003-0.796
		c-0.085-1.059-0.338-2.084-0.623-3.136c-11.131,2.751-22.176,2.383-33.533,2.966C199.137,154.601,187.166,155.711,175.084,154.865z
		"/>
	<path fill="#8F5D3D" d="M188.31,164.321c-16.814,1-33.216,0.481-49.979-0.831c-4.772-0.373-23.459-1.894-31.932-7.11
		c0.562,3.431,1.936,6.493,5.045,8.657c3.876,2.699,8.443,4.08,13.032,5.013c9.924,2.02,20.378,2.377,30.483,2.674
		c18.77,0.553,37.487-0.989,56.15-2.835c7.62-0.755,15.451-1.083,22.965-2.646c5.559-1.157,9.007-3.549,9.851-8.597
		c-7.597,2.368-15.646,3.013-23.564,3.508C209.675,162.824,198.999,163.685,188.31,164.321z"/>
	<path fill="#332C26" d="M245.354,154.152c-0.419,0.127-0.784,0.393-1.003,0.796c-7.38,2.233-15.019,2.914-22.72,3.293
		c-9.147,0.449-18.275,1.167-27.412,1.799c-9.344,0.645-18.697,1.134-28.064,1.173c-8.281,0.034-16.417-0.762-24.657-1.36
		c-7.506-0.545-15.007-1.209-22.382-2.762c-4.628-0.975-16.538-3.243-12.581-9.868c4.477,1.129,8.837,2.636,13.311,3.766
		c5.751,1.453,11.822,1.864,17.726,2.106c6.235,0.256,12.477,0.043,18.711,0.351c6.277,0.309,12.533,0.978,18.803,1.418
		c12.082,0.846,24.053-0.264,36.113-0.883c11.357-0.583,22.402-0.215,33.533-2.966c-0.072-0.265-0.146-0.53-0.217-0.801
		c-0.279-1.054,0.478-1.757,1.303-1.858c-0.365-0.527-0.999-0.873-1.806-0.707c-1.473,0.303-2.942,0.56-4.413,0.779
		c-2.021-16.933-8.047-33.715-21.83-44.54c-9.013-7.078-20.077-10.59-31.371-11.704c0.644-4.003,1.362-8.002,1.694-11.987
		c0.778-9.344,0.666-18.818,1.103-28.188c0.229-4.928,0.554-9.857,1.251-14.745c0.324-2.276,1.276-4.989,0.534-7.274
		c-1.554-4.783-12.292-3.463-15.814-3.46c-1.043,0-1.625,0.801-1.745,1.745c-2.715,21.237-5.607,42.757-6.729,64.245
		c-12.984,1.724-25.29,6.529-35.656,14.813c-11.026,8.812-19.928,22.941-21.113,37.299c-1.197-0.163-2.41-0.216-3.65-0.101
		c-0.459-0.172-0.985-0.124-1.368,0.304c-3.312,3.698-3.354,6.675-1.438,9.07c-1.33,6.907,2.566,11.947,7.918,15.3
		c-0.285,1.209-0.201,2.626-0.19,3.629c0.045,4.383,1.046,8.845,1.858,13.133c1.678,8.848,3.894,17.568,5.739,26.379
		c3.687,17.585,5.806,35.515,8.553,53.261c1.466,9.472,3.079,18.921,4.717,28.363c0.554,3.202,0.222,8.362,1.872,11.67
		c0.02,0.224,0.104,0.444,0.276,0.634c0.092,0.101,0.187,0.197,0.279,0.298c0.198,0.277,0.411,0.543,0.654,0.776
		c0.091,0.086,0.185,0.154,0.278,0.219c4.246,4.487,8.809,8.525,14.373,11.369c7.469,3.816,16.268,4.798,24.541,4.688
		c8.191-0.107,17.888-1.206,25.457-4.452c6.271-2.688,10.701-7.45,14.087-13.275c0.399-0.688,0.294-1.345-0.056-1.839
		c2.793-7.267,2.363-15.974,3.83-23.466c0.94-4.808,1.994-9.591,3.089-14.365c0.104-0.212,0.153-0.441,0.154-0.674
		c1.855-8.07,3.82-16.116,5.556-24.212c2.746-12.809,4.252-25.732,5.834-38.72c0.775-6.363,2.05-12.453,3.449-18.696
		c0.966-4.307,2.477-9.162,2.008-13.646c0.663-0.211,1.318-0.437,1.961-0.69c5.499-2.171,7.853-6.845,8.09-12.371
		c0.021-0.456,0.03-0.916,0.021-1.382C247.787,154.394,246.415,153.833,245.354,154.152z M120.1,147.133
		c0.2-2.124-0.188-4.259,0.154-6.414c0.508-3.193,3.609-4.834,6.229-6.093c5.098-2.449,8.911-4.774,12.619-9.174
		c3.399-4.036,6.197-8.546,10.521-11.703c6.515-4.759,13.495-1.76,20.758-1.623c4.657,0.086,8.601-2.371,12.765-4.104
		c0.621,0.047,1.241-0.158,1.634-0.624c0.431-0.151,0.866-0.29,1.306-0.415c-1.165,1.508-1.935,3.266-2.822,5.033
		c-2.581,5.138-8.118,3.964-12.906,3.315c-6.916-0.937-13.782,0.415-18.424,5.964c-2.193,2.624-3.555,5.781-5.26,8.71
		c-2.067,3.554-5.906,4.728-9.432,6.281c-2.881,1.268-6.385,2.763-7.726,5.827c-0.884,2.021-0.305,4.472,0.364,6.606
		C126.601,148.361,123.343,147.835,120.1,147.133z M153.157,124.775c6.447-1.295,11.434,6.031,15.823,9.67
		c4.085,3.387,9.09,4.903,14.038,2.518c8.112-3.91,11.982-21.654,22.795-17.962c0.287,0.905,0.546,1.839,0.807,2.797
		c1.713,6.303,5.302,9.773,11.169,12.307c3.043,1.315,5.985,2.501,8.364,4.894c0.232,0.234,0.447,0.486,0.655,0.747
		c-3.264,8.714-13.125-1.533-18.176-3.441c-10.154-3.836-14.591,8.916-24.125,8.727c-4.672-0.093-8.849-3.189-13.553-3.456
		c-3.124-0.177-6.32,0.451-9.403,0.879c-3.394,0.472-6.957,0.991-10.37,0.416c-4.086-0.69-4.98-3.974-5.384-7.622
		C149.123,132.529,150.758,128.372,153.157,124.775z M183.483,132.701c-10.352,9.182-17.963-11.642-28.409-10.409
		c0.218-0.239,0.437-0.478,0.671-0.704c6.605-6.381,15.034-1.667,22.737-2.835c7.249-1.1,6.617-7.534,11.146-11.727
		c0.22-0.204,0.342-0.423,0.391-0.642c4.117,0.032,8.082,2.396,11.115,4.956c1.543,1.301,2.595,2.775,3.392,4.382
		C194.519,113.94,189.851,127.053,183.483,132.701z M209.753,150.207c-12.095,0.625-24,1.563-36.115,0.717
		c-12.059-0.842-23.992-1.273-36.067-1.657c-1.684-0.054-3.358-0.152-5.027-0.289c-0.45-3.068-1.436-5.7,1.659-7.863
		c2.713-1.896,6-2.819,8.973-4.223c-0.021,7.107,6.128,9.814,12.902,9.417c3.913-0.231,7.768-1.085,11.662-1.491
		c5.506-0.575,10.045,2.114,15.344,3.015c5.078,0.862,9.261-1.811,12.988-4.902c2.153-1.787,4.24-3.668,6.97-4.491
		c2.952-0.891,5.773,1.203,8.078,2.76c5.447,3.679,13.609,7.955,17.479,1.803c0.748,2.059,1.025,4.35,0.887,6.445
		C222.943,149.845,216.384,149.865,209.753,150.207z M213.393,106.319c13.816,9.511,20,26.565,22.467,42.592
		c-1.023,0.113-2.047,0.211-3.07,0.296c0.266-5.371-1.661-11.104-6.023-14.406c-2.735-2.07-5.886-3.234-8.98-4.647
		c-4.742-2.165-6.511-5.643-7.98-10.453c-2.322-7.601-6.921-12.523-14.471-15.294c-3.693-1.355-6.988-0.994-10.178,0.001
		c0.006-2.588,0.241-5.177,0.58-7.766C195.575,97.627,205.142,100.641,213.393,106.319z M176.69,30.032
		c2.837,0.027,5.658,0.149,8.444,0.785c0.139,0.032,2.104,0.432,2.118,0.567c0.164,1.507-0.469,3.336-0.726,4.803
		c-1.318,7.526-1.415,15.203-1.8,22.813c-0.405,7.98-0.208,15.999-0.999,23.956c-0.295,2.968-0.822,5.946-1.326,8.931
		c-2.779-0.138-5.56-0.145-8.313-0.025c-1.21,0.052-2.415,0.139-3.616,0.243C172.146,71.373,174.032,50.706,176.69,30.032z
		 M170.107,96.681c0.977-0.095,1.953-0.177,2.93-0.24c2.882-0.188,5.778-0.216,8.664-0.087c-0.441,3.181-0.71,6.366-0.499,9.552
		c-2.473,1.049-4.957,2.214-7.594,2.974c-1.502,0.433-3,0.572-4.496,0.552C169.438,105.177,169.771,100.928,170.107,96.681z
		 M119.67,127.098c3.371-6.264,8.099-11.655,13.531-16.205c9.444-7.909,21.214-12.11,33.279-13.779
		c-0.161,4.04-0.258,8.077-0.27,12.111c-4.966-0.588-9.92-2.054-14.933,0.312c-5.622,2.656-9.338,7.645-13.233,12.299
		c-2.034,2.43-4.179,4.776-6.76,6.636c-2.705,1.948-6.048,2.739-8.947,4.348c-2.051,1.136-3.987,3.057-4.827,5.271
		c-0.524,1.384-0.725,2.721-0.783,4.189c-0.063,1.565,0.52,2.868,0.898,4.262c-1.428-0.385-2.841-0.819-4.26-1.191
		C114.899,139.013,116.53,132.933,119.67,127.098z M214.628,276.817c-0.921,4.603-1.528,9.172-2.024,13.836
		c-0.484,4.557-0.687,9.795-2.768,13.975c-0.208,0.417-0.233,0.82-0.146,1.183c-3.08,4.63-6.97,8.282-12.355,10.267
		c-7.533,2.778-16.459,3.599-24.422,3.684c-7.547,0.078-15.39-1.215-22.169-4.62c-4.504-2.264-8.411-5.561-12.445-8.596
		c0.227-0.602,0.152-1.303-0.451-1.897c-1.288-1.268-1.171-5.192-1.356-6.833c-0.291-2.578-0.618-5.126-1.028-7.688
		c-1.338-8.354-2.777-16.692-4.072-25.055c2.035,1.585,3.985,3.291,6.09,4.786c2.907,2.063,6.864,3.051,10.23,4.072
		c7.819,2.371,16.04,3.06,24.149,3.677c8.297,0.629,16.663,0.148,24.773-1.741c6.762-1.574,13.343-4.367,19.717-7.241
		C215.757,271.352,215.177,274.08,214.628,276.817z M222.862,238.856c-1.66,8.348-3.595,16.637-5.449,24.942
		c-7.086,3.165-14.343,6.177-21.876,8.093c-7.708,1.961-15.787,2.071-23.678,1.556c-7.764-0.508-15.551-1.388-23.069-3.435
		c-3.585-0.976-7.289-2.158-10.428-4.175c-2.483-1.593-4.702-3.492-7.518-4.328c-2.507-16.514-4.756-33.064-7.938-49.467
		c-0.374-1.924-0.782-3.841-1.21-5.754c2.346,1.426,4.59,3.02,6.929,4.469c3.721,2.304,8.041,3.32,12.233,4.392
		c10.063,2.57,20.646,3.563,31.011,3.256c10.139-0.302,20.233-2.04,30.132-4.158c9.22-1.972,17.748-4.541,25.914-9.055
		C226.47,216.456,225.081,227.696,222.862,238.856z M231.675,184.116c-1.339,5.188-2.352,10.329-3.053,15.64
		c-0.021,0.167-0.043,0.333-0.064,0.499c-0.053,0.025-0.104,0.041-0.157,0.071c-8.359,4.799-16.819,7.354-26.182,9.393
		c-10.013,2.181-20.096,3.861-30.349,4.287c-10.061,0.416-20.046-0.886-29.845-3.086c-4.336-0.973-8.392-2.135-12.284-4.306
		c-2.998-1.671-5.807-3.488-9.028-4.603c-0.908-3.859-1.853-7.71-2.717-11.572c-0.999-4.46-1.906-8.938-2.714-13.438
		c-0.146-0.81-0.977-4.262-1.097-6.247c1.787,0.87,3.652,1.582,5.484,2.136c10.733,3.245,22.687,3.24,33.813,3.714
		c21.716,0.925,43.438-1.33,65.017-3.48c5.229-0.522,10.919-0.797,16.212-2.013C233.426,175.33,232.771,179.865,231.675,184.116z
		 M234.075,167.242c-7.514,1.564-15.345,1.892-22.965,2.646c-18.663,1.846-37.381,3.388-56.15,2.835
		c-10.105-0.297-20.56-0.654-30.483-2.674c-4.589-0.934-9.156-2.314-13.032-5.013c-3.109-2.165-4.483-5.227-5.045-8.657
		c8.473,5.217,27.159,6.737,31.932,7.11c16.763,1.313,33.164,1.832,49.979,0.831c10.689-0.636,21.365-1.497,32.052-2.167
		c7.918-0.495,15.968-1.141,23.564-3.508C243.082,163.693,239.634,166.085,234.075,167.242z"/>
	<path fill="#332C26" d="M175.269,228.831c-5.94-0.281-11.612-0.593-16.405,4.049c-4.254,4.121-5.476,10.774-4.988,16.433
		c0.989,11.483,10.998,18.785,22.152,17.791c9.069-0.808,19.011-7.242,20.149-16.912c0.628-5.326-1.46-10.91-4.904-14.967
		C187.16,230.381,181.481,228.462,175.269,228.831z M192.603,250.428c-1.367,7.628-9.483,11.938-16.575,12.531
		c-8.827,0.74-16.177-4.513-17.887-13.25c-0.94-4.809,0.289-10.328,3.522-14.029c3.021-3.458,7.67-3.684,12.141-3.993
		c0.242,0.196,0.566,0.313,0.983,0.29c5.251-0.283,9.903,0.879,13.614,4.769C191.7,240.204,193.447,245.72,192.603,250.428z"/>
	<path fill="#332C26" d="M166.501,239.836c-3.396,0-3.396,5.268,0,5.268S169.897,239.836,166.501,239.836z"/>
	<path fill="#332C26" d="M183.45,238.853c-3.207,0-3.207,4.975,0,4.975S186.657,238.853,183.45,238.853z"/>
	<path fill="#332C26" d="M177.668,244.382c-0.414,0.992-0.786,2.328-2.081,2.333c-1.222,0.004-2.001-1.611-2.635-2.409
		c-0.608-0.766-2.009-0.139-1.935,0.801c0.197,2.486,2.326,4.46,4.806,4.514c2.562,0.058,4.445-2.503,4.417-4.891
		C180.221,243.146,178.209,243.087,177.668,244.382z"/>
</g>
</svg>
