<?xml version="1.0" encoding="utf-8"?>
<!-- Generator: Adobe Illustrator 16.0.0, SVG Export Plug-In . SVG Version: 6.00 Build 0)  -->
<!DOCTYPE svg PUBLIC "-//W3C//DTD SVG 1.1//EN" "http://www.w3.org/Graphics/SVG/1.1/DTD/svg11.dtd">
<svg version="1.1" id="Layer_1" xmlns="http://www.w3.org/2000/svg" xmlns:xlink="http://www.w3.org/1999/xlink" x="0px" y="0px"
	 width="350px" height="350px" viewBox="0 0 350 350" enable-background="new 0 0 350 350" xml:space="preserve">
<g>
	<path fill="#E6EDF2" d="M220.758,315.795l17.311-135.258c0,0,3.204-3.251,3.91-7.844c0.707-4.593,0.707-22.789,0.707-22.789
		h-66.244h-3.181h-66.243c0,0,0,18.196,0.707,22.789s3.91,7.844,3.91,7.844l17.31,135.258c0,0,10.935,9.234,43.79,9.234
		C205.588,325.029,220.758,315.795,220.758,315.795z"/>
	<g>
		<path fill="#A1D9AD" d="M107.094,158.914c0.084,5.286,0.26,11.383,0.629,13.779c0.707,4.593,3.91,7.844,3.91,7.844l17.31,135.258
			c0,0,10.935,9.234,43.79,9.234c32.855,0,48.025-9.234,48.025-9.234l17.311-135.258c0,0,3.204-3.251,3.91-7.844
			c0.369-2.396,0.545-8.493,0.629-13.779H107.094z"/>
	</g>
	<g>
		<circle fill="#8F8884" cx="143.465" cy="299.75" r="3.842"/>
		<circle fill="#8F8884" cx="136.311" cy="310.878" r="3.842"/>
		<circle fill="#8F8884" cx="164.134" cy="282.79" r="3.842"/>
		<circle fill="#8F8884" cx="146.513" cy="271.794" r="3.842"/>
		<circle fill="#8F8884" cx="160.292" cy="303.326" r="4.372"/>
		<circle fill="#8F8884" cx="153.27" cy="317.237" r="2.65"/>
		<circle fill="#8F8884" cx="153.535" cy="291.27" r="2.65"/>
		<circle fill="#8F8884" cx="138.298" cy="282.128" r="2.65"/>
		<circle fill="#8F8884" cx="171.156" cy="294.583" r="2.65"/>
		<circle fill="#8F8884" cx="198.979" cy="299.617" r="2.65"/>
		<circle fill="#8F8884" cx="213.552" cy="289.283" r="2.65"/>
		<circle fill="#8F8884" cx="217.526" cy="267.025" r="2.649"/>
		<circle fill="#8F8884" cx="134.324" cy="294.316" r="2.65"/>
		<circle fill="#8F8884" cx="130.614" cy="272.854" r="2.649"/>
		<circle fill="#8F8884" cx="170.096" cy="274.179" r="2.65"/>
		<circle fill="#8F8884" cx="190.499" cy="316.841" r="2.649"/>
		<circle fill="#8F8884" cx="213.817" cy="302.002" r="2.65"/>
		<circle fill="#8F8884" cx="197.654" cy="270.204" r="2.65"/>
		<circle fill="#8F8884" cx="175.395" cy="313.927" r="4.637"/>
		<circle fill="#8F8884" cx="185.067" cy="297.896" r="3.842"/>
		<circle fill="#8F8884" cx="204.542" cy="311.54" r="3.842"/>
		<circle fill="#8F8884" cx="184.935" cy="278.684" r="3.842"/>
		<circle fill="#8F8884" cx="194.871" cy="288.355" r="4.372"/>
		<circle fill="#8F8884" cx="206.795" cy="275.901" r="3.842"/>
	</g>
	<g opacity="0.17">
		<path fill="#FFFFFF" d="M222.027,171.603c0.229-2.256,0.353-7.596,0.419-12.688h-95.191c0.066,5.093,0.189,10.433,0.419,12.688
			c0.497,4.876,2.748,8.328,2.748,8.328l11.889,141.631c6.872,1.867,16.747,3.468,30.421,3.468c15.338,0,26.819-2.014,34.704-4.159
			l11.843-140.939C219.279,179.931,221.53,176.479,222.027,171.603z"/>
	</g>
	<path opacity="0.26" fill="#FFFFFF" d="M138.511,191.904c2.078-5.687,21.422-6.213,22.153-2.537
		c0.732,3.675,5.292,100.915-1.256,103.298c-1.784,0.649-7.891,5.431-10.12-0.641C142.139,272.549,136.928,196.239,138.511,191.904z
		"/>
	<path fill="#91A3B3" d="M220.053,315.341l8.17-67.327l4.21-33.829c1.388-11.279,2.887-22.543,4.326-33.815
		c0.037-0.288,0.164-0.541,0.35-0.738l0.02-0.021c0.354-0.374,0.766-0.892,1.107-1.377c0.351-0.497,0.682-1.013,0.97-1.548
		c0.289-0.534,0.556-1.08,0.77-1.642c0.229-0.557,0.394-1.131,0.539-1.706c0.064-0.274,0.119-0.61,0.166-0.839l0.121-0.982
		c0.052-0.624,0.11-1.232,0.146-1.894c0.086-1.296,0.138-2.608,0.188-3.919c0.175-5.251,0.255-10.533,0.282-15.8l1.268,1.269
		l-67.835-0.216l-67.833-0.09l0.961-0.963c0.022,5.271,0.081,10.553,0.265,15.811c0.051,1.313,0.103,2.628,0.19,3.929
		c0.036,0.655,0.098,1.296,0.152,1.938l0.116,0.934c0.048,0.248,0.115,0.643,0.183,0.925c0.142,0.553,0.311,1.149,0.547,1.72
		c0.219,0.575,0.492,1.133,0.786,1.679c0.295,0.545,0.633,1.069,0.99,1.578c0.353,0.497,0.764,1.015,1.141,1.414l0.012,0.013
		c0.153,0.161,0.243,0.36,0.27,0.564l8.911,67.597l4.359,33.811l4.254,33.824l-0.423-0.778c0.275,0.221,0.7,0.503,1.074,0.747
		c0.406,0.235,0.795,0.491,1.217,0.71c0.826,0.461,1.692,0.864,2.558,1.271c1.762,0.758,3.559,1.464,5.411,2.03
		c0.921,0.295,1.845,0.586,2.788,0.819c0.94,0.242,1.869,0.521,2.824,0.711c0.951,0.206,1.898,0.427,2.852,0.619l2.877,0.516
		c0.956,0.189,1.929,0.293,2.894,0.434c0.969,0.123,1.931,0.286,2.904,0.378l2.918,0.284l1.46,0.142l1.465,0.087
		c1.954,0.106,3.906,0.262,5.867,0.272l2.939,0.067l0.735,0.017l0.184,0.003h0.166l0.37-0.005l1.479-0.019
		c1.97-0.032,3.955-0.02,5.895-0.145c1.951-0.091,3.902-0.172,5.854-0.363l2.928-0.248l2.918-0.34
		c1.95-0.195,3.875-0.552,5.813-0.831c1.921-0.371,3.854-0.689,5.755-1.15c1.912-0.414,3.802-0.921,5.679-1.462
		c1.872-0.556,3.734-1.15,5.551-1.856C216.799,316.906,218.501,316.174,220.053,315.341z M221.134,316.41
		c-1.801,1.037-3.604,1.824-5.466,2.571c-1.852,0.751-3.74,1.388-5.641,1.984c-1.903,0.581-3.819,1.125-5.756,1.578
		c-1.927,0.499-3.882,0.855-5.829,1.261c-1.961,0.314-3.913,0.707-5.887,0.936l-2.955,0.393l-2.964,0.282
		c-1.974,0.213-3.963,0.316-5.952,0.427c-1.996,0.146-3.96,0.15-5.934,0.202l-1.479,0.033l-0.37,0.007l-0.204,0.004l-0.186-0.002
		l-0.745-0.011l-2.978-0.038c-1.986,0.007-3.97-0.13-5.955-0.221l-1.489-0.074l-1.487-0.129l-2.973-0.26
		c-0.991-0.085-1.978-0.241-2.967-0.358c-0.987-0.134-1.979-0.229-2.961-0.416l-2.952-0.5c-0.98-0.193-1.956-0.416-2.934-0.624
		c-0.98-0.191-1.945-0.474-2.916-0.72c-0.973-0.237-1.932-0.535-2.891-0.838c-1.923-0.579-3.808-1.308-5.672-2.101
		c-0.921-0.429-1.844-0.854-2.744-1.352c-0.455-0.233-0.895-0.517-1.342-0.775c-0.451-0.295-0.857-0.549-1.353-0.943
		c-0.24-0.189-0.381-0.457-0.419-0.737l-0.004-0.04l-4.401-33.805l-4.297-33.819l-8.398-67.661l0.281,0.578
		c-0.528-0.563-0.933-1.089-1.345-1.666c-0.401-0.573-0.776-1.163-1.108-1.778c-0.331-0.617-0.639-1.25-0.889-1.908
		c-0.265-0.655-0.462-1.328-0.64-2.056c-0.081-0.361-0.123-0.619-0.196-1.02l-0.126-1.033c-0.055-0.672-0.119-1.347-0.153-2.011
		c-0.085-1.335-0.135-2.66-0.182-3.986c-0.171-5.302-0.216-10.585-0.224-15.88c-0.001-0.53,0.429-0.96,0.96-0.961h0.002l67.833-0.09
		l67.835-0.216c0.697-0.002,1.266,0.562,1.267,1.26v0.004v0.003c-0.001,5.3-0.024,10.583-0.205,15.892
		c-0.048,1.328-0.098,2.654-0.185,3.995c-0.034,0.658-0.1,1.364-0.158,2.057l-0.12,0.982c-0.074,0.421-0.13,0.737-0.213,1.105
		c-0.175,0.705-0.378,1.403-0.648,2.069c-0.256,0.673-0.57,1.317-0.907,1.945c-0.338,0.626-0.721,1.227-1.129,1.809
		c-0.422,0.59-0.826,1.116-1.379,1.704l0.369-0.76c-1.444,11.271-2.831,22.552-4.328,33.815l-4.445,33.8l-9.098,67.573
		c-0.029,0.215-0.156,0.394-0.331,0.495L221.134,316.41z"/>
	<path fill="#91A3B3" d="M115.167,180.316c0,0,1.867,0.027,5.134,0.074c1.633,0.027,3.616,0.062,5.891,0.102
		c2.275,0.03,4.841,0.072,7.639,0.141c5.597,0.1,12.126,0.217,19.121,0.342c3.497,0.055,7.109,0.108,10.78,0.165
		c3.671,0.054,7.399,0.085,11.125,0.094c3.712,0.031,7.466,0.015,11.123-0.02c3.669-0.042,7.281-0.083,10.775-0.123
		c3.498-0.057,6.877-0.108,10.082-0.159c3.206-0.069,6.237-0.136,9.035-0.195c11.193-0.252,18.657-0.42,18.657-0.42
		c0.277-0.006,0.508,0.215,0.514,0.492c0.007,0.264-0.197,0.486-0.456,0.512c0,0-1.861,0.181-5.121,0.437
		c-1.632,0.119-3.611,0.264-5.882,0.43c-2.272,0.159-4.835,0.343-7.634,0.489c-2.8,0.145-5.832,0.302-9.04,0.468
		c-3.207,0.148-6.592,0.32-10.095,0.422c-3.504,0.105-7.122,0.219-10.807,0.273c-3.693,0.053-7.407,0.089-11.162,0.079
		c-3.742-0.007-7.48-0.074-11.16-0.145c-3.68-0.06-7.298-0.185-10.8-0.3c-3.502-0.109-6.886-0.263-10.093-0.422
		c-3.208-0.163-6.239-0.316-9.038-0.458c-2.799-0.138-5.362-0.304-7.634-0.463c-2.271-0.155-4.252-0.293-5.883-0.405
		c-3.261-0.235-5.124-0.405-5.124-0.405c-0.277-0.023-0.482-0.266-0.458-0.543C114.681,180.514,114.908,180.314,115.167,180.316z"/>
	<g opacity="0.48">
		<path fill="#FFFFFF" d="M113.047,176.077c0,0,1.932,0.027,5.315,0.072c1.691,0.029,3.744,0.063,6.1,0.104
			c2.355,0.03,5.013,0.07,7.911,0.141c5.794,0.1,12.557,0.218,19.8,0.343c3.62,0.052,7.362,0.108,11.164,0.162
			c3.8,0.057,7.662,0.085,11.52,0.096c3.845,0.029,7.732,0.013,11.519-0.021c3.801-0.041,7.54-0.083,11.159-0.123
			c3.621-0.054,7.121-0.108,10.44-0.159c3.319-0.068,6.458-0.134,9.355-0.193c11.592-0.252,19.319-0.42,19.319-0.42
			c0.278-0.005,0.509,0.214,0.514,0.492c0.006,0.265-0.196,0.486-0.457,0.512c0,0-1.928,0.182-5.305,0.435
			c-1.688,0.119-3.739,0.264-6.091,0.431c-2.353,0.161-5.007,0.344-7.905,0.49c-2.898,0.145-6.039,0.302-9.359,0.469
			c-3.323,0.148-6.826,0.318-10.454,0.42c-3.627,0.106-7.374,0.221-11.188,0.274c-3.823,0.053-7.669,0.089-11.556,0.078
			c-3.874-0.008-7.744-0.074-11.555-0.143c-3.81-0.062-7.557-0.187-11.182-0.303c-3.627-0.106-7.13-0.261-10.451-0.42
			c-3.321-0.162-6.46-0.316-9.359-0.457c-2.897-0.14-5.552-0.305-7.905-0.464c-2.352-0.155-4.402-0.293-6.091-0.405
			c-3.377-0.234-5.306-0.405-5.306-0.405c-0.276-0.023-0.483-0.266-0.46-0.542C112.561,176.274,112.787,176.075,113.047,176.077z"/>
	</g>
	<path fill="#E6EDF2" d="M241.448,139.93c-3.684-14.083-10.57-27.195-20.715-37.692c-6.587-6.817-16.267-15.549-25.543-18.125
		c-3.344-0.928-6.838-1.353-10.287-1.649c-4.451-0.384-8.944-0.475-13.409-0.299h6.359c-4.464-0.176-8.957-0.085-13.408,0.299
		c-3.449,0.297-6.944,0.722-10.287,1.649c-9.277,2.576-18.956,11.308-25.544,18.125c-10.143,10.497-17.031,23.609-20.714,37.692
		H241.448z"/>
	<path fill="#F3FAFF" d="M246.294,150.422c1.554,0.008,2.803-1.28,2.749-2.833l-0.168-4.844c-0.049-1.438-1.204-2.594-2.643-2.643
		H103.92c-1.439,0.049-2.594,1.204-2.644,2.643l-0.167,4.844c-0.053,1.553,1.196,2.841,2.75,2.833H246.294z"/>
	<path fill="#FFFFFF" d="M217.281,123.729c2.278-5.922-14.12-28.697-38.718-27.786c-24.598,0.91-47.263,19.247-45.096,27.33
		S215.004,129.65,217.281,123.729z"/>
	<path opacity="0.38" fill="#42DEFB" d="M180.15,26.426c0,0,9.539-4.239,18.019-0.53l-4.239,133.549l-16.959-0.53L180.15,26.426z"/>
	<path fill="#FFA57D" d="M196.313,84.368l1.856-58.473c-8.479-3.709-18.019,0.53-18.019,0.53l-1.327,55.291
		C186.069,81.481,192.094,82.895,196.313,84.368z"/>
	<path opacity="0.57" fill="#FFA57D" d="M180.15,26.426c0,0,9.539-4.239,18.019-0.53l-4.239,133.549l-16.959-0.53L180.15,26.426z"/>
	<path fill="#A3B8C9" d="M180.002,26.079c1.454-0.616,2.943-1.069,4.465-1.429c0.38-0.094,0.765-0.161,1.146-0.242
		c0.382-0.087,0.771-0.13,1.156-0.196c0.386-0.067,0.774-0.109,1.165-0.147c0.389-0.038,0.778-0.091,1.171-0.1l1.176-0.053
		l1.179,0.02c0.394-0.006,0.785,0.052,1.178,0.08c0.392,0.039,0.786,0.057,1.174,0.137l1.168,0.198
		c0.387,0.086,0.768,0.196,1.15,0.294l0.576,0.151l0.559,0.204l1.117,0.413c0.201,0.074,0.323,0.266,0.318,0.469l-0.001,0.034
		l-0.391,16.698l-0.441,16.696l-0.907,33.393l-2.029,66.776c-0.016,0.553-0.478,0.987-1.03,0.97h-0.003l-16.957-0.555
		c-0.536-0.016-0.958-0.464-0.946-1l0.844-33.121l0.909-33.119l0.966-33.118l1.061-33.115v-0.006
		C179.778,26.262,179.871,26.135,180.002,26.079z M180.523,26.693l-0.525,32.869l-0.623,33.127l-0.682,33.125l-0.746,33.123
		l-0.945-1l16.958,0.505l-1.033,0.971l2.211-66.771l1.213-33.383l0.618-16.69l0.67-16.689l0.317,0.504l-1.044-0.405l-0.523-0.201
		l-0.54-0.152c-0.36-0.097-0.718-0.21-1.082-0.296l-1.106-0.207c-0.366-0.083-0.744-0.105-1.117-0.148
		c-0.375-0.033-0.747-0.096-1.126-0.096l-1.13-0.038l-1.134,0.032c-0.378,0.002-0.755,0.047-1.132,0.078
		c-0.378,0.03-0.755,0.064-1.13,0.124c-0.374,0.059-0.753,0.093-1.124,0.171c-0.373,0.072-0.748,0.133-1.118,0.217
		C183.245,25.767,181.851,26.174,180.523,26.693z"/>
	<path opacity="0.38" fill="#FFFFFF" d="M184.391,28.016c0,0,4.239-2.12,8.479-0.53l-3.71,129.839h-7.949L184.391,28.016z"/>
	<path fill="#A3B8C9" d="M240.701,139.382c-0.216-0.76-0.427-1.521-0.657-2.27c-0.318-0.971-0.598-1.951-0.949-2.915
		c-0.34-0.966-0.667-1.937-1.046-2.889c-0.358-0.959-0.737-1.909-1.143-2.85c-0.782-1.892-1.658-3.742-2.573-5.571
		c-0.454-0.915-0.955-1.808-1.43-2.713c-0.508-0.886-1.01-1.777-1.534-2.653c-1.066-1.743-2.161-3.469-3.35-5.129l-0.888-1.247
		l-0.928-1.219c-0.608-0.819-1.257-1.606-1.906-2.394c-1.295-1.576-2.674-3.08-4.084-4.552c-1.435-1.474-2.894-2.9-4.388-4.3
		c-1.489-1.403-3.023-2.754-4.588-4.063c-1.563-1.313-3.188-2.542-4.844-3.718c-1.656-1.177-3.385-2.236-5.153-3.198
		c-1.768-0.968-3.615-1.762-5.504-2.358c-1.902-0.628-3.867-1-5.876-1.313c-2.004-0.3-4.036-0.5-6.08-0.66
		c-4.066-0.314-8.165-0.38-12.248-0.227l-0.039-1.959l6.359,0.02l-0.037,1.92c-4.085-0.177-8.181-0.133-12.259,0.159
		c-2.042,0.149-4.079,0.338-6.088,0.628c-2.003,0.3-4.007,0.674-5.903,1.291c-1.014,0.293-1.882,0.665-2.812,1.044l-1.374,0.628
		l-1.344,0.697c-1.775,0.965-3.509,2.027-5.168,3.207c-1.66,1.178-3.288,2.411-4.853,3.727c-1.566,1.312-3.104,2.663-4.594,4.07
		c-1.486,1.401-2.961,2.853-4.37,4.309c-1.432,1.504-2.795,3.002-4.084,4.581c-0.647,0.79-1.295,1.58-1.902,2.402l-0.923,1.223
		l-0.886,1.252c-1.188,1.663-2.269,3.4-3.317,5.155c-0.516,0.883-1.009,1.778-1.508,2.67c-0.466,0.91-0.957,1.808-1.402,2.728
		c-0.896,1.838-1.753,3.696-2.515,5.594c-0.396,0.942-0.764,1.896-1.112,2.858c-0.369,0.954-0.687,1.927-1.015,2.895
		c-0.644,1.941-1.2,3.911-1.724,5.888l-0.763-0.987l33.387-0.159l16.694-0.019l16.693,0.026l16.694,0.045l16.693,0.081l16.693,0.111
		L240.701,139.382z M241.448,140.471l-16.693,0.161l-16.693,0.111l-16.693,0.081l-16.694,0.044l-16.693,0.027l-16.694-0.019
		l-33.387-0.159h-0.014c-0.431-0.002-0.778-0.354-0.776-0.783c0-0.07,0.011-0.141,0.028-0.205c0.552-2.004,1.139-4,1.813-5.967
		c0.34-0.982,0.665-1.97,1.045-2.938c0.358-0.977,0.735-1.944,1.142-2.902c0.782-1.927,1.661-3.813,2.579-5.679
		c0.457-0.934,0.959-1.845,1.437-2.769c0.511-0.905,1.016-1.815,1.543-2.711c1.073-1.782,2.188-3.539,3.378-5.246l0.893-1.279
		l0.933-1.251c0.613-0.842,1.268-1.652,1.922-2.461c1.309-1.624,2.715-3.187,4.118-4.68c1.448-1.517,2.906-2.968,4.411-4.405
		c1.5-1.436,3.052-2.818,4.639-4.163c1.583-1.349,3.238-2.62,4.934-3.84c1.695-1.22,3.476-2.33,5.316-3.346l1.399-0.734l1.436-0.669
		c0.973-0.408,2.008-0.843,2.975-1.126c2.025-0.672,4.092-1.065,6.161-1.394c2.07-0.316,4.142-0.526,6.211-0.695
		c4.148-0.333,8.314-0.413,12.471-0.27c0.53,0.019,0.944,0.463,0.927,0.992c-0.019,0.518-0.441,0.925-0.954,0.928h-0.011
		l-6.359,0.02c-0.542,0.002-0.982-0.435-0.983-0.977c-0.001-0.529,0.416-0.962,0.939-0.982l0.005-0.001
		c4.159-0.166,8.323-0.108,12.482,0.203c2.067,0.157,4.143,0.356,6.22,0.661c2.063,0.317,4.169,0.712,6.187,1.373
		c2.041,0.652,3.993,1.516,5.837,2.539c1.846,1.02,3.633,2.134,5.331,3.356c1.699,1.222,3.356,2.496,4.943,3.847
		c1.588,1.349,3.144,2.732,4.644,4.171c1.498,1.438,2.971,2.916,4.395,4.415c1.424,1.524,2.814,3.08,4.118,4.708
		c0.652,0.813,1.305,1.625,1.916,2.469l0.931,1.255l0.89,1.285c1.189,1.71,2.29,3.479,3.346,5.272
		c0.519,0.902,1.015,1.816,1.517,2.728c0.469,0.929,0.963,1.845,1.41,2.782c0.899,1.876,1.759,3.77,2.521,5.703
		c0.396,0.96,0.764,1.932,1.111,2.91c0.369,0.971,0.685,1.96,1.014,2.945c0.338,0.979,0.608,1.99,0.915,2.983
		c0.29,0.995,0.541,1.991,0.813,2.987c0.079,0.292-0.093,0.594-0.385,0.673c-0.045,0.012-0.091,0.019-0.136,0.02H241.448z"/>
	<g>
		<path fill="#86C293" d="M242.607,159.543c0,0-0.529,0.02-1.521,0.058c-0.992,0.034-2.449,0.104-4.302,0.149
			c-3.705,0.091-8.998,0.289-15.351,0.403c-3.176,0.07-6.617,0.136-10.256,0.182c-3.64,0.058-7.478,0.113-11.447,0.141
			c-3.97,0.031-8.072,0.085-12.241,0.086c-4.169,0.01-8.403,0.02-12.639,0.03c-4.234-0.012-8.47-0.024-12.638-0.036
			c-4.168-0.032-8.271-0.063-12.241-0.095c-3.97-0.05-7.809-0.098-11.448-0.143c-3.639-0.064-7.08-0.125-10.256-0.181
			c-6.352-0.121-11.646-0.305-15.351-0.394c-1.853-0.044-3.308-0.114-4.3-0.146c-0.994-0.037-1.522-0.056-1.522-0.056
			c-0.347-0.014-0.618-0.305-0.605-0.652c0.012-0.33,0.281-0.593,0.605-0.605c0,0,0.529-0.019,1.522-0.056
			c0.992-0.03,2.448-0.102,4.3-0.145c3.705-0.09,8.999-0.273,15.351-0.395c3.176-0.056,6.617-0.117,10.256-0.18
			c3.639-0.047,7.478-0.095,11.448-0.144c3.97-0.03,8.073-0.063,12.241-0.094c4.168-0.013,8.403-0.024,12.638-0.036
			c4.235,0.01,8.47,0.02,12.639,0.029c4.169,0.001,8.271,0.056,12.241,0.086c3.97,0.027,7.808,0.084,11.447,0.141
			c3.639,0.046,7.08,0.111,10.256,0.182c6.353,0.115,11.646,0.313,15.351,0.403c1.853,0.046,3.31,0.116,4.302,0.149
			c0.992,0.038,1.521,0.058,1.521,0.058c0.348,0.014,0.618,0.307,0.604,0.652C243.199,159.268,242.933,159.529,242.607,159.543z"/>
	</g>
	<path fill="#A3B8C9" d="M246.258,149.668c0,0,0.075-0.004,0.225-0.013c0.094-0.001,0.112-0.021,0.187-0.029
		c0.062-0.01,0.164-0.041,0.261-0.071c0.386-0.126,0.996-0.513,1.231-1.302c0.054-0.193,0.084-0.406,0.075-0.634
		c-0.014-0.316-0.029-0.65-0.046-1c-0.032-0.7-0.067-1.465-0.105-2.291c-0.021-0.413-0.039-0.842-0.06-1.285l-0.009-0.167
		l-0.003-0.084c-0.001-0.023,0.002,0.051-0.001,0l-0.004-0.043c-0.01-0.118-0.022-0.234-0.038-0.271
		c-0.021-0.115-0.081-0.293-0.148-0.43c-0.264-0.581-0.939-1.033-1.606-1.033c-4.259,0.048-9.43,0.104-15.361,0.17
		c-5.931,0.051-12.623,0.107-19.924,0.169c-7.301,0.023-15.209,0.101-23.575,0.087c-8.364-0.021-17.185-0.044-26.311-0.067
		c-9.125-0.059-18.555-0.119-28.137-0.181c-9.556-0.039-19.263-0.079-28.97-0.119c-0.84,0.028-1.534,0.657-1.673,1.444
		c-0.024,0.105-0.024,0.179-0.035,0.313l-0.017,0.456l-0.034,0.912l-0.062,1.823l-0.029,0.91l-0.015,0.455l-0.007,0.229
		c0.001-0.062,0.001,0.049,0.001,0.063l0.003,0.114c0.017,0.341,0.17,0.762,0.433,1.046c0.255,0.304,0.619,0.501,0.999,0.579
		c0.097,0.015,0.193,0.028,0.293,0.028c0.098,0.008,0.288,0.001,0.428,0.003l0.909-0.003c4.848-0.017,9.676-0.033,14.467-0.05
		c9.582-0.068,19.012-0.135,28.137-0.2c9.125-0.068,17.947-0.049,26.312-0.069c8.365,0.033,16.274,0.063,23.574,0.091
		c7.301,0.05,13.992,0.096,19.924,0.136c5.932,0.062,11.103,0.115,15.361,0.159c8.517,0.118,13.385,0.187,13.385,0.187
		L246.258,149.668z M246.294,151.144c0,0-4.868,0.067-13.385,0.187c-4.259,0.044-9.43,0.098-15.361,0.159
		c-5.932,0.04-12.623,0.086-19.924,0.136c-7.3,0.028-15.209,0.058-23.574,0.091c-8.365-0.021-17.187-0.001-26.312-0.069
		c-9.125-0.064-18.555-0.132-28.137-0.2c-4.791-0.017-9.62-0.033-14.467-0.05l-0.909-0.003c-0.164-0.002-0.277,0.004-0.481-0.006
		c-0.206-0.003-0.409-0.03-0.611-0.066c-0.807-0.163-1.56-0.594-2.088-1.221c-0.539-0.629-0.857-1.399-0.892-2.273l-0.003-0.277
		l0.009-0.227l0.016-0.456l0.034-0.911l0.064-1.823l0.029-0.91l0.015-0.456c0.01-0.168,0.02-0.399,0.062-0.593
		c0.142-0.81,0.567-1.567,1.186-2.108c0.599-0.542,1.447-0.888,2.214-0.924c9.76-0.043,19.521-0.087,29.129-0.13
		c9.582-0.062,19.012-0.121,28.137-0.181c9.125-0.023,17.946-0.046,26.311-0.066c8.366-0.014,16.274,0.063,23.575,0.086
		c7.301,0.063,13.993,0.119,19.924,0.17c5.932,0.065,11.103,0.122,15.361,0.168c1.487,0.044,2.679,0.97,3.193,2.112
		c0.131,0.294,0.223,0.563,0.277,0.899c0.034,0.188,0.039,0.299,0.046,0.406l0.008,0.126l0.002,0.084l0.003,0.167
		c0.011,0.444,0.021,0.873,0.029,1.286c0.02,0.827,0.036,1.593,0.053,2.293c0.007,0.352,0.016,0.687,0.021,1.005
		c0.007,0.41-0.056,0.8-0.165,1.152c-0.224,0.707-0.637,1.237-1.056,1.601c-0.421,0.367-0.856,0.573-1.215,0.686
		c-0.185,0.056-0.332,0.096-0.491,0.12c-0.147,0.02-0.311,0.044-0.368,0.041c-0.148,0.006-0.225,0.009-0.225,0.009L246.294,151.144z
		"/>
	<circle fill="#4F4F4F" cx="201.628" cy="205.373" r="7.95"/>
	<path fill="#4F4F4F" d="M131.817,205.909c0,0,0.389-0.326,1.083-0.778c0.697-0.461,1.723-1.057,3.017-1.639
		c1.292-0.581,2.853-1.144,4.585-1.572c0.868-0.205,1.774-0.396,2.711-0.52c0.934-0.145,1.899-0.21,2.868-0.248
		c0.483-0.018,0.973-0.003,1.457-0.007c0.487,0.021,0.971,0.051,1.453,0.091c0.962,0.096,1.912,0.226,2.819,0.444
		c0.454,0.107,0.899,0.206,1.328,0.354c0.43,0.134,0.851,0.258,1.249,0.43c0.804,0.301,1.54,0.664,2.193,1.033
		c0.323,0.197,0.637,0.367,0.919,0.563c0.28,0.203,0.545,0.388,0.787,0.572c0.485,0.365,0.861,0.751,1.18,1.035
		c0.306,0.311,0.521,0.58,0.675,0.75c0.147,0.178,0.226,0.271,0.226,0.271c0.363,0.438,0.302,1.088-0.136,1.449
		c-0.271,0.227-0.623,0.288-0.938,0.199l-0.133-0.04c0,0-0.437-0.126-1.129-0.38c-0.363-0.102-0.786-0.238-1.273-0.372
		c-0.243-0.063-0.5-0.133-0.773-0.205c-0.273-0.06-0.56-0.123-0.858-0.189c-0.597-0.123-1.239-0.244-1.928-0.333
		c-0.681-0.104-1.408-0.172-2.161-0.229c-1.506-0.112-3.13-0.131-4.777-0.065c-1.647,0.06-3.313,0.189-4.893,0.344
		c-0.79,0.081-1.561,0.151-2.293,0.237c-0.739,0.081-1.438,0.157-2.083,0.228c-1.298,0.146-2.4,0.263-3.18,0.331
		c-0.383,0.047-0.698,0.06-0.903,0.081c-0.207,0.015-0.316,0.022-0.316,0.022l-0.028,0.001c-0.581,0.04-1.083-0.399-1.122-0.979
		C131.418,206.44,131.57,206.119,131.817,205.909z"/>
	<path fill="#D46E6E" d="M175.66,247.417c0,0,4.778-3.429,7.42-7.774c2.277-3.746,2.212-8.512,5.035-8.391
		c3.239,0.142,3.796,5.014,2.683,8.623c-0.98,3.179-3.479,5.156-3.479,5.156"/>
	<path fill="#4F4F4F" d="M159.574,240.499c0,0,0.122,0.087,0.332,0.221c0.226,0.139,0.557,0.344,0.978,0.604
		c0.425,0.255,0.951,0.546,1.55,0.879c0.607,0.322,1.299,0.666,2.055,1.027c0.765,0.346,1.6,0.691,2.486,1.037
		c0.449,0.153,0.91,0.311,1.381,0.472c0.475,0.142,0.958,0.286,1.453,0.433c0.496,0.13,1.007,0.235,1.518,0.356
		c0.516,0.092,1.039,0.187,1.565,0.282c0.527,0.087,1.065,0.121,1.601,0.187c0.536,0.066,1.079,0.034,1.618,0.076l0.405,0.021
		l0.025,0.002l0.013,0.002c-0.137,0.001-0.029,0-0.057,0l0.055-0.002l0.108-0.004l0.218-0.006l0.871-0.028
		c0.608,0.002,1.088-0.08,1.596-0.136c0.497-0.044,1.018-0.132,1.531-0.227c0.517-0.074,1.015-0.204,1.505-0.333
		c0.495-0.11,0.966-0.274,1.436-0.418c0.474-0.132,0.918-0.314,1.356-0.482c0.871-0.348,1.686-0.719,2.42-1.101
		c0.731-0.387,1.395-0.769,1.971-1.13c0.568-0.371,1.063-0.702,1.46-0.992c0.39-0.296,0.703-0.522,0.904-0.689
		c0.191-0.16,0.294-0.245,0.294-0.245l0.051-0.044c0.267-0.223,0.663-0.187,0.886,0.08c0.186,0.222,0.191,0.533,0.035,0.762
		c0,0-0.092,0.132-0.263,0.378c-0.171,0.231-0.418,0.577-0.77,0.979c-0.697,0.807-1.775,1.899-3.272,2.978
		c-0.748,0.538-1.587,1.095-2.537,1.574c-0.474,0.241-0.958,0.499-1.479,0.708c-0.514,0.226-1.045,0.444-1.606,0.609
		c-0.555,0.183-1.122,0.367-1.713,0.492c-0.584,0.141-1.174,0.297-1.819,0.359c-0.629,0.085-1.292,0.185-1.845,0.194l-0.87,0.045
		l-0.218,0.011l-0.108,0.006l-0.054,0.003l-0.1,0.002l-0.029-0.002l-0.467-0.013c-1.248-0.018-2.486-0.17-3.691-0.367
		c-0.597-0.126-1.196-0.229-1.771-0.389c-0.572-0.174-1.14-0.331-1.688-0.514c-0.541-0.205-1.079-0.386-1.59-0.601
		c-0.503-0.235-0.998-0.454-1.47-0.686c-0.464-0.25-0.919-0.479-1.348-0.723c-0.417-0.262-0.821-0.514-1.208-0.756
		c-0.375-0.261-0.74-0.499-1.074-0.745c-0.326-0.255-0.636-0.498-0.927-0.726c-0.572-0.465-1.044-0.903-1.424-1.272
		c-0.381-0.367-0.657-0.684-0.849-0.896c-0.199-0.227-0.289-0.339-0.289-0.339l-0.003-0.004c-0.218-0.274-0.173-0.673,0.102-0.892
		C159.038,240.34,159.35,240.34,159.574,240.499z"/>
	<path fill="#FFBDBD" d="M188.567,233.618c0,0,0.176,0.67,0.211,1.688c0.018,0.508,0,1.107-0.087,1.742
		c-0.036,0.32-0.103,0.646-0.169,0.977c-0.094,0.326-0.161,0.664-0.279,0.99c-0.229,0.649-0.5,1.293-0.854,1.842
		c-0.16,0.283-0.343,0.54-0.534,0.771c-0.182,0.235-0.357,0.454-0.552,0.629c-0.185,0.184-0.358,0.344-0.515,0.483
		c-0.169,0.123-0.317,0.231-0.438,0.32c-0.244,0.174-0.388,0.265-0.388,0.265l-0.233-0.297c0,0,0.104-0.129,0.291-0.341
		c0.094-0.104,0.208-0.231,0.338-0.376c0.115-0.157,0.244-0.335,0.385-0.528c0.152-0.183,0.276-0.41,0.421-0.639
		c0.153-0.223,0.282-0.478,0.416-0.741c0.146-0.256,0.26-0.539,0.38-0.825c0.134-0.279,0.223-0.585,0.329-0.881
		c0.205-0.598,0.355-1.216,0.479-1.803c0.12-0.586,0.204-1.142,0.269-1.622c0.055-0.481,0.11-0.887,0.123-1.169
		c0.021-0.284,0.032-0.447,0.032-0.447L188.567,233.618z"/>
	<g opacity="0.47">
		<path fill="#FFFFFF" d="M131.868,303.961c0,0,1.339,0.248,3.682,0.683c1.174,0.208,2.598,0.461,4.232,0.751
			c1.635,0.284,3.481,0.593,5.496,0.919c1.008,0.163,2.056,0.331,3.145,0.486c1.087,0.167,2.209,0.348,3.366,0.505
			c2.312,0.331,4.754,0.647,7.278,0.95c2.526,0.302,5.14,0.555,7.794,0.772c1.328,0.106,2.666,0.213,4.009,0.266l2.017,0.1
			l2.019,0.04c0.663,0.011,1.367,0.043,1.997,0.036l2.043-0.033c1.371,0,2.682-0.098,4.002-0.159c2.64-0.148,5.26-0.372,7.781-0.646
			c1.26-0.152,2.5-0.3,3.713-0.445c1.213-0.166,2.398-0.331,3.554-0.49c1.151-0.179,2.272-0.354,3.356-0.522
			c1.084-0.183,2.13-0.358,3.135-0.526c2.005-0.371,3.844-0.71,5.473-1.01c1.626-0.318,3.042-0.611,4.205-0.865
			c1.163-0.253,2.077-0.452,2.7-0.588c0.62-0.141,0.949-0.217,0.949-0.217l0.011-0.004c0.271-0.062,0.541,0.107,0.603,0.378
			c0.059,0.256-0.09,0.511-0.333,0.59c0,0-0.327,0.109-0.94,0.31c-0.613,0.194-1.509,0.488-2.662,0.819
			c-1.152,0.332-2.555,0.725-4.169,1.156c-1.615,0.428-3.441,0.896-5.449,1.348c-1.005,0.221-2.053,0.451-3.136,0.688
			c-1.09,0.214-2.216,0.435-3.373,0.661c-1.164,0.202-2.358,0.41-3.58,0.622c-1.226,0.188-2.479,0.386-3.758,0.554
			c-2.562,0.325-5.204,0.635-7.929,0.811c-1.363,0.074-2.754,0.183-4.103,0.191l-2.042,0.047c-0.733,0.013-1.394-0.014-2.095-0.021
			l-2.072-0.045c-0.688-0.038-1.376-0.078-2.062-0.116c-1.374-0.063-2.735-0.183-4.085-0.302c-2.701-0.221-5.343-0.564-7.893-0.919
			c-2.551-0.35-5.004-0.76-7.322-1.186c-2.32-0.41-4.504-0.85-6.512-1.286c-8.039-1.713-13.285-3.325-13.285-3.325
			c-0.266-0.081-0.415-0.361-0.333-0.628C131.37,304.061,131.62,303.914,131.868,303.961z"/>
	</g>
</g>
</svg>
