<?xml version="1.0" encoding="utf-8"?>
<!-- Generator: Adobe Illustrator 16.0.0, SVG Export Plug-In . SVG Version: 6.00 Build 0)  -->
<!DOCTYPE svg PUBLIC "-//W3C//DTD SVG 1.1//EN" "http://www.w3.org/Graphics/SVG/1.1/DTD/svg11.dtd">
<svg version="1.1" id="Layer_1" xmlns="http://www.w3.org/2000/svg" xmlns:xlink="http://www.w3.org/1999/xlink" x="0px" y="0px"
	 width="350px" height="350px" viewBox="0 0 350 350" enable-background="new 0 0 350 350" xml:space="preserve">
<g>
	<g>
		<path fill-rule="evenodd" clip-rule="evenodd" fill="#231F20" d="M238.053,271.641c0,0-0.802,4.011,0.321,5.775
			s6.257,1.284,8.985,0.962c2.727-0.32,6.176,1.605,12.755,1.605c6.578,0,9.707-3.21,9.546-5.776
			c-0.16-2.566-3.369-2.888-3.369-2.888l-19.414,0.642"/>
		<g>
			<linearGradient id="SVGID_1_" gradientUnits="userSpaceOnUse" x1="139.521" y1="223.6641" x2="139.521" y2="261.0127">
				<stop  offset="0" style="stop-color:#A33D96"/>
				<stop  offset="1" style="stop-color:#3F073C"/>
			</linearGradient>
			<path fill-rule="evenodd" clip-rule="evenodd" fill="url(#SVGID_1_)" d="M148.046,227.198c0,0-5.615-2.969-8.182-3.449
				c-2.567-0.481-5.455,1.204-6.257,2.166c-0.802,0.961-1.605,3.932-1.765,5.214c-0.16,1.283,0.963,4.172,0.963,4.172
				s-3.69,10.508-3.209,15.161c0.481,4.653,4.973,11.552,10.108,10.429c5.134-1.123,4.652-9.947,6.097-14.6
				c1.444-4.653,3.69-7.861,3.69-10.269"/>
			<path d="M138.59,261.826c-1.421,0-2.857-0.503-4.215-1.484c-3.248-2.35-5.271-6.707-5.591-9.796
				c-0.455-4.401,2.555-13.481,3.153-15.233c-0.3-0.819-1.059-3.049-0.905-4.285c0.138-1.104,0.921-4.403,1.948-5.635
				c0.974-1.168,4.16-2.981,7.033-2.444c2.658,0.497,8.179,3.406,8.413,3.529l-0.762,1.44c-0.055-0.028-5.535-2.916-7.951-3.368
				c-2.231-0.417-4.853,1.133-5.482,1.887c-0.627,0.752-1.418,3.479-1.583,4.793c-0.098,0.786,0.509,2.733,0.914,3.775l0.109,0.281
				l-0.1,0.284c-0.036,0.104-3.625,10.39-3.167,14.808c0.275,2.663,2.095,6.597,4.925,8.644c1.404,1.015,2.816,1.377,4.199,1.073
				c3.181-0.696,3.88-5.122,4.557-9.402c0.269-1.702,0.522-3.31,0.937-4.643c0.64-2.063,1.424-3.824,2.115-5.378
				c0.86-1.933,1.539-3.459,1.539-4.649h1.629c0,1.536-0.741,3.202-1.68,5.311c-0.673,1.514-1.436,3.229-2.047,5.199
				c-0.379,1.221-0.624,2.772-0.884,4.415c-0.726,4.596-1.548,9.806-5.817,10.739C139.452,261.779,139.021,261.826,138.59,261.826z"
				/>
		</g>
		<g>
			<linearGradient id="SVGID_2_" gradientUnits="userSpaceOnUse" x1="252.3809" y1="257.5215" x2="252.3809" y2="278.0059">
				<stop  offset="0" style="stop-color:#A33D96"/>
				<stop  offset="1" style="stop-color:#3F073C"/>
			</linearGradient>
			<path fill-rule="evenodd" clip-rule="evenodd" fill="url(#SVGID_2_)" d="M238.134,259.607c0,0-2.95,2.867-2.064,5.52
				c0.884,2.653,1.704,4.335,1.97,7.43c0.265,3.096,3.41,4.427,7.921,3.63c4.511-0.795,5.7,1.323,10.918,1.766
				s11.183-1.945,11.89-4.246c0.708-2.299-2.844-5.217-7.089-6.103c-4.245-0.884-6.811-1.856-6.811-1.856s-5.041-6.987-7.252-8.226"
				/>
			<path d="M258.172,278.82c-0.459,0-0.914-0.019-1.362-0.057c-2.334-0.197-3.887-0.714-5.258-1.17
				c-1.719-0.571-3.078-1.024-5.45-0.604c-3.009,0.531-5.532,0.157-7.106-1.054c-1.039-0.798-1.65-1.942-1.767-3.31
				c-0.201-2.337-0.722-3.801-1.381-5.653c-0.178-0.501-0.363-1.022-0.551-1.588c-1.036-3.102,2.134-6.229,2.27-6.361l1.135,1.169
				l-0.567-0.585l0.568,0.584c-0.025,0.024-2.571,2.548-1.86,4.678c0.185,0.555,0.367,1.066,0.542,1.558
				c0.67,1.886,1.249,3.514,1.467,6.061c0.078,0.911,0.461,1.637,1.138,2.157c1.207,0.928,3.279,1.191,5.83,0.74
				c2.78-0.491,4.464,0.069,6.248,0.663c1.284,0.427,2.74,0.911,4.881,1.092c5.149,0.442,10.521-1.98,11.042-3.673
				c0.126-0.409,0.032-0.884-0.278-1.41c-0.936-1.586-3.485-3.09-6.199-3.655c-4.258-0.887-6.825-1.852-6.933-1.893l-0.229-0.087
				l-0.144-0.198c-1.373-1.903-5.305-7.048-6.989-7.991l0.796-1.422c2.157,1.208,6.405,6.936,7.367,8.256
				c0.705,0.248,3.039,1.026,6.464,1.74c3.178,0.662,6.099,2.439,7.27,4.422c0.546,0.925,0.695,1.864,0.433,2.718
				C268.743,276.558,263.267,278.82,258.172,278.82z"/>
		</g>
		<g>
			<path fill-rule="evenodd" clip-rule="evenodd" fill="#F9AD87" d="M211.901,102.055c0,0,6.069,3.445,8.063,5.896
				c3.488,4.292,9.746,20.817,10.95,22.201c1.203,1.384,1.805,1.625,1.985,2.407c0.18,0.782,0.842,1.986,2.046,3.068
				c1.203,1.083,4.572,2.708,5.233,3.73c0.662,1.023,2.527,5.114,2.768,6.317c0.241,1.204-0.481,3.189-0.481,3.189
				s1.304,8.684-0.36,8.665c-1.409-0.017-2.647-2.768-2.708-4.633c0,0-2.607,3.45-2.947,1.384c-0.295-1.785,1.443-3.971,1.443-4.994
				s-2.947-3.67-3.851-3.55c-0.902,0.12,1.51,2.98,2.146,3.99c1.022,1.625-3.179,1.244-5.336-1.704
				c-2.156-2.948-2.586-9.146-3.228-10.589c-0.643-1.444-15.001-17.167-17.167-20.135c-2.166-2.969-2.969-6.658-2.969-6.658"/>
			<path fill="#231F20" d="M242.109,158.342c-0.004,0-0.01,0-0.015,0c-1.521-0.018-2.688-1.805-3.212-3.623
				c-0.715,0.686-1.503,1.171-2.207,0.996c-0.318-0.078-0.874-0.352-1.031-1.304c-0.169-1.03,0.176-2.09,0.577-3.03
				c-1.488,0.48-4.408-0.667-6.026-2.878c-1.566-2.142-2.25-5.697-2.748-8.293c-0.204-1.062-0.397-2.065-0.566-2.447
				c-0.377-0.759-5.101-6.13-8.896-10.445c-3.688-4.193-7.173-8.154-8.185-9.541c-2.241-3.072-3.071-6.808-3.106-6.965
				c-0.096-0.439,0.184-0.873,0.623-0.969c0.44-0.096,0.873,0.183,0.97,0.622c0.007,0.036,0.796,3.565,2.83,6.352
				c0.968,1.327,4.589,5.444,8.092,9.425c5.956,6.772,8.802,10.05,9.161,10.86c0.246,0.553,0.427,1.496,0.678,2.801
				c0.47,2.444,1.112,5.792,2.464,7.639c1.177,1.608,2.938,2.232,3.784,2.317c-0.135-0.191-0.301-0.419-0.474-0.655
				c-1.438-1.964-2.033-2.904-1.708-3.667c0.145-0.336,0.443-0.558,0.822-0.607c0.815-0.112,1.948,0.698,2.745,1.396
				c0.609,0.533,2.027,1.89,2.027,2.961c0,0.582-0.303,1.238-0.654,1.997c-0.391,0.844-0.87,1.882-0.82,2.695
				c0.399-0.285,1.023-0.924,1.514-1.573c0.208-0.276,0.566-0.39,0.896-0.285c0.328,0.104,0.556,0.405,0.567,0.75
				c0.051,1.592,1.032,3.491,1.724,3.801c0.346-0.885,0.232-4.306-0.275-7.685c-0.02-0.134-0.006-0.271,0.04-0.399
				c0.249-0.687,0.591-2.041,0.449-2.751c-0.209-1.042-1.987-5.005-2.653-6.035c-0.28-0.433-1.641-1.273-2.634-1.887
				c-0.974-0.602-1.894-1.169-2.462-1.681c-1.387-1.248-2.094-2.622-2.294-3.491c-0.058-0.251-0.208-0.408-0.673-0.864
				c-0.299-0.293-0.672-0.659-1.134-1.19c-0.513-0.59-1.466-2.739-3.247-6.805c-2.373-5.417-5.622-12.836-7.72-15.417
				c-1.874-2.303-7.773-5.668-7.833-5.702c-0.392-0.222-0.528-0.719-0.307-1.111c0.223-0.391,0.722-0.527,1.11-0.306
				c0.254,0.144,6.227,3.551,8.293,6.091c2.238,2.753,5.404,9.982,7.948,15.792c1.284,2.929,2.61,5.958,2.984,6.389
				c0.42,0.483,0.767,0.824,1.046,1.097c0.531,0.521,0.951,0.934,1.119,1.661c0.138,0.6,0.69,1.651,1.796,2.646
				c0.46,0.413,1.358,0.968,2.228,1.505c1.659,1.025,2.699,1.697,3.146,2.388c0.709,1.097,2.615,5.267,2.882,6.6
				c0.238,1.188-0.248,2.836-0.445,3.427c0.351,2.394,0.951,7.605-0.213,8.942C242.828,158.179,242.482,158.342,242.109,158.342z
				 M235.679,147.608c0.171,0.239,0.332,0.46,0.457,0.631c0.307,0.419,0.571,0.781,0.742,1.051c0.056,0.089,0.103,0.177,0.142,0.264
				c0.037-0.113,0.059-0.207,0.059-0.271C237.016,148.953,236.372,148.229,235.679,147.608z"/>
		</g>
		<path fill-rule="evenodd" clip-rule="evenodd" fill="#231F20" d="M171.471,222.866c0,0-7.541-5.295-15.082-2.887
			c-7.541,2.406-9.305,5.775-11.392,6.577c-2.085,0.804-3.048,4.332-2.246,8.183c0.803,3.852,6.256,5.295,6.899,5.295
			c0.642,0,8.182,0.16,17.648-0.321c9.466-0.48,17.808,0.16,17.808-15.563"/>
		<g>
			<linearGradient id="SVGID_3_" gradientUnits="userSpaceOnUse" x1="167.8877" y1="219.4043" x2="167.8877" y2="239.6201">
				<stop  offset="0" style="stop-color:#A33D96"/>
				<stop  offset="1" style="stop-color:#3F073C"/>
			</linearGradient>
			<path fill="url(#SVGID_3_)" d="M174.472,239.236c-1.091-0.34-2.081-0.729-2.964-1.168c-3.104-1.544-5.002-3.613-6.184-5.948
				c-1.177-2.334-1.614-4.965-1.613-7.549c-0.001-1.663,0.183-3.297,0.451-4.806c-0.761-0.168-1.558-0.295-2.38-0.361
				c-0.283,1.604-0.477,3.354-0.478,5.167c0,1.9,0.212,3.868,0.766,5.795c0.827,2.886,2.451,5.684,5.222,7.879
				c0.619,0.49,1.296,0.949,2.027,1.375C171.117,239.541,172.851,239.453,174.472,239.236z"/>
			<path d="M169.116,240.444l-0.207-0.12c-0.762-0.443-1.476-0.928-2.125-1.441c-2.68-2.122-4.531-4.913-5.499-8.293
				c-0.528-1.837-0.796-3.862-0.797-6.019c0.001-1.685,0.166-3.47,0.49-5.308l0.128-0.73l0.739,0.06
				c0.812,0.064,1.65,0.192,2.491,0.378l0.763,0.168l-0.137,0.77c-0.292,1.643-0.439,3.211-0.438,4.663
				c-0.001,2.756,0.512,5.173,1.526,7.182c1.225,2.421,3.128,4.248,5.819,5.587c0.837,0.416,1.794,0.792,2.843,1.118l-0.133,1.585
				c-1.646,0.222-3.411,0.311-5.225,0.391L169.116,240.444z M162.46,220.295c-0.226,1.479-0.341,2.916-0.342,4.277
				c0,2.003,0.248,3.876,0.734,5.568c0.873,3.047,2.537,5.559,4.945,7.466c0.53,0.419,1.11,0.818,1.728,1.188
				c0.495-0.021,0.986-0.045,1.471-0.072c-2.938-1.493-5.032-3.534-6.398-6.234c-1.13-2.24-1.702-4.904-1.701-7.917
				c-0.001-1.311,0.111-2.707,0.333-4.16C162.971,220.366,162.715,220.327,162.46,220.295z"/>
		</g>
		<path fill-rule="evenodd" clip-rule="evenodd" fill="#231F20" d="M219.603,213.723c0,0-1.203,11.872,3.771,21.337
			c4.974,9.467,10.349,15.724,13.878,27.918c0,0,7.06,1.443,11.873-3.852c0,0-3.852-5.775-5.615-22.622
			c-1.765-16.846-8.343-25.028-10.107-25.51"/>
		<path fill-rule="evenodd" clip-rule="evenodd" fill="#231F20" d="M219.603,213.723c0,0-1.203,11.872,3.771,21.337
			c4.974,9.467,10.349,15.724,13.878,27.918c0,0,7.06,1.443,11.873-3.852c0,0-3.852-5.775-5.615-22.622
			c-1.765-16.846-8.343-25.028-10.107-25.51"/>
		<g>
			<path fill-rule="evenodd" clip-rule="evenodd" fill="#F9AD87" d="M160.882,214.043c0,0,1.443,4.492,2.245,9.626
				c0.803,5.134,3.53,8.984,5.295,10.268c1.765,1.284,10.589,2.247,13.958-0.479c3.37-2.729,4.813-18.132,4.333-29.041"/>
			<path fill="#231F20" d="M175.317,236.024c-3.226,0-6.315-0.658-7.374-1.429c-1.783-1.297-4.751-5.242-5.621-10.802
				c-0.784-5.012-2.202-9.458-2.216-9.502c-0.138-0.429,0.098-0.888,0.527-1.024c0.428-0.14,0.887,0.098,1.024,0.525
				c0.06,0.187,1.472,4.613,2.274,9.75c0.787,5.032,3.466,8.642,4.969,9.735c1.592,1.156,9.951,1.985,12.967-0.455
				c2.918-2.362,4.534-16.927,4.03-28.371c-0.02-0.449,0.329-0.83,0.778-0.85c0.448-0.017,0.829,0.328,0.85,0.777
				c0.445,10.108-0.72,26.541-4.634,29.71C181.143,235.506,178.177,236.024,175.317,236.024z"/>
		</g>
		<g>
			<path fill-rule="evenodd" clip-rule="evenodd" fill="#F9AD87" d="M207.088,170.883l8.022,4.653c0,0,13.958,18.451,15.563,23.745
				c1.604,5.295,4.172,12.836,4.172,12.836s-1.443,7.702-14.761,4.653c0,0-3.529-5.135-4.652-6.098s-29.041-12.033-32.41-24.708"/>
			<path fill="#231F20" d="M225.778,218.302c-1.765,0.001-3.725-0.245-5.876-0.737c-0.199-0.046-0.374-0.165-0.489-0.333
				c-1.396-2.028-3.748-5.285-4.512-5.94c-0.171-0.12-1.215-0.615-2.32-1.141c-7.503-3.562-27.435-13.022-30.347-23.977
				c-0.115-0.435,0.144-0.881,0.578-0.996c0.435-0.119,0.881,0.143,0.996,0.577c2.718,10.226,22.854,19.783,29.472,22.924
				c1.834,0.871,2.426,1.156,2.681,1.376c1.058,0.906,3.819,4.846,4.612,5.99c4.776,1.047,8.574,0.761,10.998-0.828
				c1.712-1.122,2.273-2.562,2.425-3.065c-0.441-1.304-2.668-7.901-4.104-12.634c-1.474-4.867-14.086-21.701-15.334-23.359
				l-7.879-4.571c-0.389-0.225-0.521-0.724-0.296-1.113c0.226-0.39,0.725-0.522,1.113-0.296l8.022,4.653
				c0.094,0.055,0.176,0.127,0.241,0.213c0.573,0.759,14.064,18.629,15.691,24.001c1.583,5.22,4.138,12.733,4.164,12.809
				c0.045,0.133,0.055,0.275,0.029,0.413c-0.02,0.104-0.507,2.56-3.181,4.313C230.713,217.728,228.476,218.302,225.778,218.302z"/>
		</g>
		<g>
			<path fill-rule="evenodd" clip-rule="evenodd" fill="#F9AD87" d="M134.088,116.333c0,0-9.747,6.016-15.282,14.921
				s-15.764,19.494-15.764,19.494s-3.851,2.005-8.022,3.53c-4.171,1.523-7.059,2.166-7.621,2.647
				c-0.562,0.481-0.882,1.765-0.882,1.765s-1.284,0.802-1.524,1.524c-0.241,0.722-0.562,2.326-0.562,2.326s-3.369,3.851-3.289,4.974
				s4.894,5.696,4.813,6.257c-0.081,0.561,1.523-0.481,1.444-2.166c-0.052-1.09-2.247-4.011-2.247-4.011s4.091-3.208,5.455-3.45
				c1.364-0.241,1.846,0.082,1.846,0.082s-3.129,2.325-2.969,4.25c0.16,1.926,3.449,1.124,4.974-0.801
				c1.524-1.926,4.011-2.728,6.579-3.37c2.567-0.643,4.894-4.493,6.097-7.14c1.203-2.647,13.798-11.071,22.622-18.612
				c8.824-7.541,12.755-15.242,12.996-16.686"/>
			<path fill="#231F20" d="M86.061,174.74c-0.241,0-0.421-0.088-0.529-0.163c-0.227-0.156-0.364-0.398-0.39-0.674
				c-0.223-0.358-1.086-1.325-1.729-2.045c-2.053-2.299-3.026-3.472-3.084-4.287c-0.087-1.228,1.995-3.845,3.346-5.405
				c0.098-0.472,0.342-1.604,0.544-2.21c0.252-0.757,1.122-1.447,1.596-1.778c0.155-0.498,0.494-1.393,1.053-1.872
				c0.415-0.355,1.193-0.607,3.071-1.193c1.293-0.404,2.901-0.907,4.801-1.6c3.67-1.341,7.134-3.083,7.808-3.427
				c1.034-1.081,10.418-10.981,15.565-19.262c5.572-8.964,15.142-14.934,15.546-15.184c0.384-0.235,0.885-0.117,1.121,0.265
				c0.236,0.383,0.118,0.885-0.265,1.121c-0.096,0.06-9.653,6.026-15.019,14.658c-5.517,8.875-15.767,19.523-15.869,19.629
				c-0.061,0.063-0.132,0.116-0.21,0.157c-0.159,0.083-3.946,2.048-8.119,3.572c-1.935,0.708-3.564,1.216-4.874,1.625
				c-1.117,0.349-2.272,0.709-2.503,0.881c-0.229,0.196-0.506,0.905-0.615,1.34c-0.052,0.203-0.181,0.381-0.358,0.492
				c-0.49,0.308-1.101,0.839-1.185,1.091c-0.184,0.553-0.449,1.796-0.536,2.228c-0.028,0.139-0.092,0.27-0.186,0.376
				c-1.594,1.823-2.984,3.796-3.084,4.372c0.197,0.556,1.8,2.351,2.669,3.325c0.812,0.91,1.335,1.506,1.661,1.936
				c0.169-0.261,0.316-0.627,0.295-1.066c-0.023-0.502-1.097-2.246-2.084-3.56c-0.266-0.354-0.2-0.857,0.148-1.13
				c0.71-0.557,4.327-3.348,5.816-3.611c1.564-0.277,2.263,0.087,2.439,0.206c0.22,0.147,0.355,0.392,0.362,0.656
				s-0.115,0.516-0.328,0.675c-0.902,0.672-2.735,2.421-2.643,3.53c0.018,0.214,0.088,0.27,0.238,0.315
				c0.75,0.226,2.383-0.416,3.284-1.555c1.729-2.185,4.53-3.032,7.02-3.654c2.093-0.523,4.299-3.929,5.553-6.687
				c0.761-1.676,4.58-4.642,11.263-9.74c3.751-2.861,8.003-6.104,11.571-9.154c8.635-7.379,12.511-14.935,12.722-16.2
				c0.074-0.444,0.495-0.744,0.938-0.67c0.444,0.074,0.744,0.494,0.669,0.938c-0.25,1.499-4.04,9.283-13.27,17.171
				c-3.603,3.079-7.874,6.336-11.642,9.211c-4.984,3.801-10.138,7.733-10.768,9.118c-0.714,1.57-3.303,6.758-6.641,7.593
				c-2.229,0.557-4.726,1.301-6.137,3.085c-1.255,1.585-3.563,2.548-5.033,2.104c-0.812-0.246-1.319-0.88-1.391-1.741
				c-0.103-1.226,0.731-2.477,1.59-3.42c-0.948,0.448-2.648,1.623-3.985,2.633c0.745,1.054,1.888,2.824,1.935,3.811
				c0.073,1.531-0.878,2.63-1.535,2.996C86.442,174.694,86.236,174.74,86.061,174.74z"/>
		</g>
		<g>
			<linearGradient id="SVGID_4_" gradientUnits="userSpaceOnUse" x1="128.0713" y1="151.4063" x2="215.1904" y2="151.4063">
				<stop  offset="0" style="stop-color:#DB4E9B"/>
				<stop  offset="1" style="stop-color:#883B95"/>
			</linearGradient>
			<path fill-rule="evenodd" clip-rule="evenodd" fill="url(#SVGID_4_)" d="M173.316,84.807c0,0-19.013,8.183-24.789,11.552
				c-5.775,3.37-20.456,19.975-20.456,19.975s3.128,6.979,6.738,8.904c3.61,1.925,12.273,1.203,12.515,5.054
				c0.241,3.85,0,17.086,0.481,19.253c0.481,2.166,4.091,4.332,2.888,8.664c-1.203,4.332-0.722,4.813-0.481,6.018
				c0.241,1.202-0.962,9.866-0.241,10.588c0.722,0.722-3.369,11.311-0.722,19.494c2.647,8.183,10.83,22.622,12.755,23.585
				c1.925,0.963,11.312-0.24,17.327-3.609s8.904-10.108,8.663-11.071c-0.24-0.962-1.926-5.053-1.926-6.017
				c0-0.962,0.723-2.165,1.686-1.684c0.963,0.48,2.166,1.684,2.166,1.684s6.017-14.68,13.236-19.012s12.033-3.61,12.033-3.61
				s-8.423-8.664-11.552-12.273c-3.129-3.61-5.535-1.926-6.498-4.332c-0.963-2.407-2.889-6.739-2.647-16.125
				c0,0,0.722-5.294-0.241-6.498c-0.962-1.204,0.241-4.332,0.241-5.054c0-0.722,4.813-9.868,6.258-17.569l4.091,3.37
				c0,0,9.146-5.054,10.107-13.477c0,0-4.813-6.257-9.145-11.312C201.473,86.251,189.68,83.844,173.316,84.807z"/>
			<path d="M164.275,219.028c-1.225,0-2.087-0.133-2.634-0.407c-2.4-1.2-10.645-16.268-13.166-24.063
				c-1.893-5.852-0.503-12.68,0.327-16.76c0.211-1.035,0.448-2.2,0.444-2.599c-0.452-0.73-0.398-2.44-0.03-7.047
				c0.121-1.513,0.271-3.395,0.198-3.768c-0.031-0.152-0.065-0.292-0.1-0.43c-0.258-1.04-0.501-2.021,0.595-5.965
				c0.702-2.529-0.445-4.167-1.554-5.751c-0.591-0.846-1.15-1.644-1.345-2.518c-0.305-1.373-0.335-6.508-0.365-11.475
				c-0.02-3.274-0.038-6.366-0.134-7.904c-0.112-1.789-3.341-2.349-6.463-2.891c-2.053-0.356-4.176-0.724-5.622-1.495
				c-3.812-2.033-6.966-8.995-7.098-9.29l-0.215-0.479l0.348-0.394c0.603-0.682,14.834-16.743,20.656-20.139
				c5.752-3.355,24.099-11.262,24.877-11.596l0.131-0.057l0.143-0.008c2.367-0.139,4.679-0.209,6.873-0.209
				c13.083,0,22.417,2.482,26.281,6.99c4.297,5.013,9.124,11.282,9.172,11.345l0.202,0.261l-0.038,0.328
				c-0.999,8.74-10.135,13.883-10.523,14.098l-0.484,0.268l-3.479-2.865c-1.198,5.221-3.659,10.812-5.032,13.93
				c-0.422,0.959-0.858,1.95-0.934,2.223c-0.014,0.282-0.101,0.65-0.218,1.145c-0.212,0.896-0.654,2.762-0.2,3.33
				c1.084,1.354,0.604,5.696,0.418,7.072c-0.22,8.787,1.458,12.949,2.461,15.437l0.129,0.321c0.291,0.727,0.669,0.87,1.716,1.178
				c1.193,0.35,2.828,0.83,4.642,2.923c3.078,3.551,11.437,12.152,11.521,12.239l1.684,1.732l-2.389-0.358l0,0
				c0,0-0.262-0.036-0.743-0.036c-1.459,0-5.426,0.345-10.75,3.539c-6.907,4.145-12.842,18.478-12.901,18.622l-0.464,1.132
				l-0.865-0.864c-0.311-0.309-1.265-1.187-1.955-1.531c-0.046-0.023-0.066-0.023-0.069-0.023c-0.107,0-0.438,0.44-0.438,0.979
				c0,0.474,0.784,2.626,1.205,3.782c0.335,0.922,0.601,1.65,0.696,2.037c0.367,1.464-2.871,8.516-9.056,11.979
				C175.051,217.614,168.275,219.028,164.275,219.028z M150.629,174.329c0.432,0.54,0.252,1.425-0.23,3.795
				c-0.798,3.923-2.135,10.488-0.374,15.933c2.731,8.443,10.815,22.304,12.345,23.108c0.109,0.054,0.573,0.234,1.905,0.234
				c3.25,0,9.946-1.188,14.659-3.827c5.54-3.103,8.243-9.197,8.261-10.202c-0.088-0.327-0.355-1.061-0.637-1.835
				c-0.787-2.162-1.303-3.632-1.303-4.34c0-1.26,0.831-2.607,2.066-2.607c0.27,0,0.538,0.064,0.798,0.194
				c0.509,0.255,1.06,0.671,1.503,1.043c1.552-3.508,6.817-14.561,13.116-18.34c4.631-2.779,8.308-3.556,10.527-3.729
				c-2.513-2.604-7.891-8.209-10.243-10.923c-1.5-1.731-2.759-2.101-3.869-2.427c-1.066-0.313-2.169-0.636-2.769-2.136l-0.128-0.316
				c-0.983-2.438-2.813-6.977-2.577-16.132l0.007-0.089c0.325-2.391,0.374-5.323-0.07-5.879c-0.95-1.188-0.466-3.231-0.112-4.723
				c0.076-0.322,0.172-0.724,0.175-0.842c0-0.348,0.162-0.744,1.07-2.807c1.465-3.326,4.189-9.517,5.201-14.909l0.254-1.355
				l4.711,3.88c1.803-1.132,8.236-5.602,9.184-12.252c-0.964-1.245-5.146-6.618-8.913-11.012
				c-3.549-4.141-12.443-6.421-25.044-6.421c-2.118,0-4.349,0.066-6.635,0.198c-1.695,0.732-19.152,8.291-24.569,11.451
				c-5.104,2.977-17.625,16.864-19.9,19.41c0.761,1.564,3.354,6.553,6.155,8.047c1.215,0.648,3.208,0.994,5.134,1.328
				c3.746,0.649,7.618,1.321,7.811,4.395c0.099,1.584,0.117,4.698,0.137,7.995c0.026,4.424,0.059,9.929,0.326,11.132
				c0.124,0.558,0.572,1.197,1.089,1.937c1.138,1.625,2.697,3.852,1.789,7.122c-0.981,3.531-0.788,4.311-0.583,5.137
				c0.04,0.161,0.08,0.325,0.116,0.503c0.112,0.561,0.014,1.899-0.171,4.217C150.68,170.287,150.414,173.613,150.629,174.329z"/>
		</g>
		<path fill-rule="evenodd" clip-rule="evenodd" fill="#231F20" d="M169.706,81.678c0,0-1.925,9.626-1.685,12.514
			c0.24,2.889,3.128,10.108,6.738,10.831c3.609,0.722,12.032-4.091,12.754-6.979c0.723-2.888,0.241-11.07,0.241-11.07"/>
		<g>
			<path fill-rule="evenodd" clip-rule="evenodd" fill="#F9AD87" d="M172.353,86.251c0,0-2.166,7.701-1.925,9.867
				c0.24,2.166,3.85,4.332,7.941,4.091s5.535-3.37,6.257-8.664"/>
			<path fill="#231F20" d="M177.765,101.041c-4.06,0-7.854-2.202-8.146-4.833c-0.251-2.259,1.724-9.374,1.95-10.178
				c0.122-0.434,0.573-0.684,1.005-0.564c0.433,0.122,0.686,0.572,0.563,1.005c-0.59,2.1-2.083,7.91-1.899,9.557
				c0.168,1.515,3.214,3.598,7.083,3.368c3.242-0.19,4.732-2.348,5.498-7.96c0.06-0.446,0.474-0.759,0.917-0.698
				c0.445,0.061,0.758,0.472,0.697,0.917c-0.64,4.688-1.932,9.067-7.017,9.367C178.199,101.035,177.981,101.041,177.765,101.041z"/>
		</g>
		<g>
			<path fill-rule="evenodd" clip-rule="evenodd" fill="#F9AD87" d="M189.279,81.438c0,0,1.604,0.401,2.326-0.642
				c0.723-1.043,1.524-4.332,1.444-5.615c-0.08-1.284-0.722-2.888-1.524-2.969c-0.802-0.08-2.165,1.846-2.486,3.37"/>
			<path fill="#231F20" d="M189.967,82.331c-0.337,0-0.646-0.043-0.886-0.104c-0.437-0.109-0.701-0.551-0.592-0.988
				c0.108-0.435,0.547-0.699,0.983-0.594c0.021,0.004,1.082,0.236,1.463-0.314c0.584-0.842,1.374-3.94,1.301-5.1
				c-0.064-1.042-0.515-1.976-0.775-2.185c-0.425,0.229-1.375,1.516-1.625,2.702c-0.092,0.44-0.524,0.722-0.965,0.629
				s-0.722-0.525-0.629-0.965c0.316-1.501,1.83-4.17,3.365-4.011c1.405,0.141,2.164,2.265,2.255,3.728
				c0.089,1.421-0.731,4.895-1.587,6.13C191.698,82.092,190.755,82.331,189.967,82.331z"/>
		</g>
		<g>
			<g>
				<path fill-rule="evenodd" clip-rule="evenodd" fill="#F9AD87" d="M167.219,68.041c0,0-1.925,4.733-1.123,11.552
					c0.433,3.679,2.888,10.669,6.017,13.958c1.565,1.647,6.016,4.733,10.026,3.851c1.959-0.431,5.855-4.733,7.46-12.515
					c1.036-5.024,0.307-16.027-1.363-18.451C184.146,60.5,169.626,61.382,167.219,68.041z"/>
				<path fill="#231F20" d="M180.669,98.372L180.669,98.372c-3.74,0-7.519-2.547-9.146-4.26c-3.335-3.505-5.804-10.754-6.235-14.424
					c-0.818-6.947,1.095-11.753,1.177-11.954c1.514-4.19,7.093-6.079,11.946-6.079c4.709,0,8.633,1.615,10.497,4.319
					c1.896,2.75,2.526,14.055,1.49,19.078c-0.932,4.517-2.537,7.554-3.72,9.305c-1.431,2.118-3.062,3.554-4.363,3.84
					C181.788,98.313,181.234,98.372,180.669,98.372z M178.41,63.284c-4.145,0-9.175,1.575-10.425,5.034
					c-0.03,0.075-1.846,4.673-1.08,11.18c0.415,3.525,2.821,10.363,5.798,13.492c1.379,1.451,4.761,3.753,7.965,3.753l0,0
					c0.448,0,0.884-0.046,1.296-0.137c1.553-0.341,5.272-4.294,6.837-11.883c0.999-4.843,0.248-15.67-1.236-17.824
					C186.029,64.669,182.521,63.284,178.41,63.284z"/>
			</g>
		</g>
		<path fill-rule="evenodd" clip-rule="evenodd" fill="#231F20" d="M189.841,77.266c0,0-0.722-1.123-1.364-4.251
			c-0.642-3.129-1.284-6.579-2.566-6.017c-1.283,0.562-2.006,2.166-4.332,1.204s-3.369-0.802-4.412,0.962
			c-1.042,1.765-3.85-2.407-6.818-1.685c-2.969,0.722-4.492,7.22-4.492,9.306s-3.851-5.615-1.364-12.435
			c2.487-6.818,8.263-9.787,13.156-10.027c4.894-0.24,12.033,1.845,13.958,6.899c1.926,5.054,0.883,11.713,0.883,11.713
			s-1.766-0.321-2.167,0.4C189.921,74.057,190.563,77.106,189.841,77.266z"/>
		<g>
			<path fill="#231F20" d="M160.154,130.155v-1.058h1.194v-10.006l-2.29,1.989v-1.271l2.766-2.377h0.708v11.666h1.185v1.058H160.154
				z"/>
			<path fill="#231F20" d="M172.81,119.645v8.297c0,0.375-0.037,0.678-0.111,0.908c-0.075,0.229-0.206,0.442-0.394,0.636
				c-0.42,0.44-1.025,0.664-1.814,0.669h-2.669c-0.75,0-1.324-0.189-1.723-0.567c-0.397-0.379-0.597-0.927-0.597-1.646v-8.297
				c0-0.375,0.038-0.678,0.111-0.908c0.075-0.229,0.207-0.442,0.394-0.636c0.42-0.439,1.026-0.663,1.815-0.669h2.669
				c0.75,0,1.325,0.189,1.723,0.567C172.611,118.378,172.81,118.927,172.81,119.645z M170.19,118.49h-2.067
				c-0.479,0-0.825,0.118-1.039,0.354c-0.213,0.236-0.319,0.623-0.319,1.16v7.58c0,0.537,0.106,0.923,0.319,1.16
				c0.214,0.236,0.561,0.354,1.039,0.354h2.067c0.478,0,0.825-0.118,1.039-0.354c0.213-0.236,0.319-0.623,0.319-1.16v-7.58
				c0-0.537-0.106-0.923-0.319-1.16C171.015,118.608,170.667,118.49,170.19,118.49z"/>
		</g>
		<g>
			<path fill-rule="evenodd" clip-rule="evenodd" fill="#231F20" d="M169.947,136.308c-13.237-0.481-21.419-8.904-21.419-8.904
				s2.407-2.166,4.332-5.054c1.925-2.888,5.054-6.979,5.054-6.979s-7.22,3.129-10.349,3.37c-3.129,0.24-8.664,1.444-8.664,1.444
				s7.942,0,9.145-0.241c1.204-0.241,5.535-0.963,5.535-0.963s-5.775,6.017-8.664,8.183l2.407,3.129
				C162.727,137.752,169.947,136.308,169.947,136.308z"/>
			<path fill-rule="evenodd" clip-rule="evenodd" fill="#231F20" d="M185.107,168.316c-6.257,6.498-22.862,11.552-35.136,6.498
				v2.167c0,0,12.514,3.369,25.511-1.926c12.995-5.293,18.049-13.958,24.065-15.643l-2.406-1.444
				C197.141,157.968,191.365,161.819,185.107,168.316z"/>
			<path fill-rule="evenodd" clip-rule="evenodd" fill="#231F20" d="M162.245,143.047c17.77,2.318,27.317-4.662,30.396-7.509
				c-1.613,3.329-5.639,9.749-13.791,13.044c0,0,9.386-1.204,15.401-13.236l-0.442-1.181l0.684-3.873
				C184.867,144.491,162.245,143.047,162.245,143.047z"/>
			<path fill-rule="evenodd" clip-rule="evenodd" fill="#231F20" d="M168.262,200.083c0,0-9.626,1.686-14.681-0.48
				c-0.998-0.428-2.014-1.035-3.003-1.732c0.453,1.1,0.958,2.246,1.499,3.412c0.167,0.07,0.347,0.152,0.542,0.245
				C159.117,204.656,168.262,200.083,168.262,200.083z"/>
			<path fill-rule="evenodd" clip-rule="evenodd" fill="#231F20" d="M191.365,185.403c-6.979-0.722,0.963-17.809,0.963-17.809
				c-2.166,2.167-3.852,5.535-7.221,15.883c-3.369,10.35-10.588,16.605-10.588,16.605c6.256-3.368,9.385-8.423,9.144-6.016
				c-0.24,2.406-5.535,7.701-5.535,7.701c2.166-0.964,6.017-4.813,6.017-4.813c-0.722,7.701-4.813,17.328-4.813,17.328
				c6.016-3.369,8.904-10.108,8.663-11.071c-0.24-0.962-1.926-5.053-1.926-6.017c0-0.962,0.723-2.165,1.686-1.684
				c0.963,0.48,2.166,1.684,2.166,1.684s2.946-7.184,7.188-12.983C195.33,185.071,193.389,185.612,191.365,185.403z"/>
			<path fill-rule="evenodd" clip-rule="evenodd" fill="#231F20" d="M162.967,209.71c-3.068-0.383-6.362-2.257-8.808-4.174
				c1.165,2.268,2.375,4.46,3.501,6.357c1.333-0.282,3.55-0.612,6.991-0.739c6.498-0.24,13.717-7.22,13.717-7.22
				S170.668,210.673,162.967,209.71z"/>
			<path fill-rule="evenodd" clip-rule="evenodd" fill="#231F20" d="M199.547,100.69c0,0,1.204,10.349-0.48,17.086l2.286-4.692
				C201.353,113.084,201.473,106.466,199.547,100.69z"/>
		</g>
		<path fill-rule="evenodd" clip-rule="evenodd" fill="#231F20" d="M147.726,150.187c0,0,13.477,2.888,25.51,2.727
			c12.033-0.16,19.574-9.787,19.574-9.787s-5.456,10.429-20.055,11.552c-14.6,1.123-22.462-1.124-22.462-1.124"/>
		<path fill-rule="evenodd" clip-rule="evenodd" fill="#231F20" d="M184.38,152.566c0.292-0.39-9.139,8.049-25.624,13.404
			C150.854,168.537,172.824,167.957,184.38,152.566z"/>
		<g>
			<linearGradient id="SVGID_5_" gradientUnits="userSpaceOnUse" x1="102.8018" y1="149.1836" x2="116.1582" y2="149.1836">
				<stop  offset="0" style="stop-color:#DB4E9B"/>
				<stop  offset="1" style="stop-color:#883B95"/>
			</linearGradient>
			<path fill-rule="evenodd" clip-rule="evenodd" fill="url(#SVGID_5_)" d="M110.276,142.205l-7.475,8.497
				c0,0,1.96,3.884,4.901,5.462l8.455-6.676C116.158,149.487,110.399,146.696,110.276,142.205z"/>
			<path fill="#231F20" d="M107.789,157.133l-0.471-0.252c-3.131-1.68-5.159-5.645-5.243-5.813l-0.249-0.492l9.208-10.467
				l0.056,2.072c0.108,3.951,5.37,6.546,5.423,6.572l1.169,0.567L107.789,157.133z M103.792,150.809
				c0.561,0.964,1.975,3.159,3.845,4.369l7.065-5.579c-1.487-0.927-4.044-2.855-4.929-5.589L103.792,150.809z"/>
		</g>
		<path fill-rule="evenodd" clip-rule="evenodd" fill="#231F20" d="M92.212,164.948c0,0,3.449-1.605,4.252-2.167
			c0,0-4.653,0.803-5.455,1.204"/>
		<path fill-rule="evenodd" clip-rule="evenodd" fill="#231F20" d="M190.883,117.537c0,0-2.165,3.851-5.294,5.054
			C182.46,123.793,188.718,126.441,190.883,117.537z"/>
		<path fill-rule="evenodd" clip-rule="evenodd" fill="#231F20" d="M139.421,126.762c0,0-4.373,2.724-8.381,1.917
			c0,0,5.167,1.83,8.568-0.39L139.421,126.762z"/>
		<path fill-rule="evenodd" clip-rule="evenodd" fill="#231F20" d="M114.906,148.828c0,0,4.705-7.318,7.319-10.847
			c0,0-4.553,8.31-6.066,11.506"/>
		<path fill-rule="evenodd" clip-rule="evenodd" fill="#231F20" d="M184.064,180.941c0,0-4.14,9.222-12.797,10.915
			C163.785,193.321,178.983,187.529,184.064,180.941z"/>
		<path fill-rule="evenodd" clip-rule="evenodd" fill="#231F20" d="M215.913,210.512c0,0-7.221-6.097-11.392-18.13
			c0,0-0.481,6.579,6.738,16.526"/>
		<g>
			<g>
				<g>
					<linearGradient id="SVGID_6_" gradientUnits="userSpaceOnUse" x1="229.8477" y1="218.3174" x2="229.8477" y2="226.0195">
						<stop  offset="0" style="stop-color:#A33D96"/>
						<stop  offset="1" style="stop-color:#3F073C"/>
					</linearGradient>
					<path fill="url(#SVGID_6_)" d="M225.668,223.612c-1.73,0-3.666-0.16-5.816-0.519c0.102,0.807,0.228,1.642,0.384,2.495
						c1.965,0.292,3.773,0.431,5.433,0.431c3.804,0,6.847-0.703,9.254-1.791c2.106-0.949,3.711-2.188,4.922-3.465
						c-0.345-0.875-0.696-1.692-1.051-2.446c-0.119,0.146-0.243,0.296-0.374,0.444c-1.063,1.207-2.529,2.407-4.585,3.318
						C231.778,222.989,229.124,223.612,225.668,223.612z"/>
					<path d="M225.673,226.834h-0.005c-1.727,0-3.595-0.147-5.553-0.439l-0.576-0.085l-0.105-0.573
						c-0.151-0.831-0.283-1.686-0.39-2.542l-0.136-1.084l1.078,0.18c5.499,0.917,10.047,0.579,13.519-0.955
						c1.699-0.753,3.147-1.801,4.304-3.112c0.121-0.139,0.238-0.278,0.35-0.416l0.816-1.016l0.555,1.179
						c0.367,0.779,0.728,1.619,1.072,2.496l0.19,0.482l-0.357,0.377c-1.445,1.522-3.188,2.749-5.179,3.646
						C232.521,226.207,229.297,226.834,225.673,226.834z M220.935,224.865c1.668,0.226,3.258,0.34,4.733,0.34h0.005
						c3.391,0,6.391-0.578,8.913-1.72c1.634-0.735,3.078-1.714,4.304-2.913c-0.106-0.262-0.214-0.52-0.323-0.772
						c-1.229,1.257-2.706,2.272-4.402,3.024c-3.532,1.563-7.999,1.994-13.356,1.24C220.848,224.333,220.891,224.601,220.935,224.865
						z"/>
				</g>
				<g>
					<linearGradient id="SVGID_7_" gradientUnits="userSpaceOnUse" x1="231.7695" y1="225.3145" x2="231.7695" y2="233.0332">
						<stop  offset="0" style="stop-color:#A33D96"/>
						<stop  offset="1" style="stop-color:#3F073C"/>
					</linearGradient>
					<path fill="url(#SVGID_7_)" d="M237.994,230.448c1.437-0.673,2.809-1.511,4.072-2.535c-0.216-0.903-0.444-1.769-0.682-2.599
						c-2.081,1.946-4.611,3.244-7.354,4.071c-3.037,0.913-6.314,1.242-9.403,1.24c-1.084,0-2.138-0.043-3.156-0.111
						c0.27,0.826,0.577,1.65,0.923,2.466c0.729,0.033,1.474,0.053,2.233,0.053C228.969,233.03,233.747,232.434,237.994,230.448z"/>
					<path d="M224.629,233.848L224.629,233.848c-0.739,0-1.503-0.019-2.271-0.054l-0.512-0.023l-0.201-0.472
						c-0.352-0.829-0.67-1.681-0.947-2.531l-0.374-1.146l1.203,0.081c1.097,0.073,2.111,0.109,3.102,0.109
						c3.431,0,6.508-0.405,9.169-1.206c2.815-0.849,5.182-2.156,7.031-3.886l0.973-0.909l0.367,1.28
						c0.249,0.872,0.482,1.758,0.69,2.634l0.119,0.499l-0.398,0.322c-1.27,1.028-2.695,1.917-4.239,2.641
						C234.569,232.948,229.956,233.845,224.629,233.848z M222.948,232.188c0.569,0.021,1.132,0.031,1.68,0.031
						c5.087-0.004,9.469-0.848,13.021-2.509c1.262-0.591,2.438-1.301,3.502-2.113c-0.068-0.274-0.139-0.55-0.211-0.824
						c-1.858,1.478-4.097,2.616-6.674,3.393c-3.336,1.004-7.26,1.42-11.625,1.231C222.74,231.661,222.843,231.926,222.948,232.188z"
						/>
				</g>
			</g>
		</g>
		<polyline fill-rule="evenodd" clip-rule="evenodd" fill="#231F20" points="240.024,152.488 238.17,148.054 238.978,152.616 		"/>
		<path fill-rule="evenodd" clip-rule="evenodd" fill="#231F20" d="M242.114,149.666c0,0-2.888-6.107-3.249-7.19
			c0,0,3.249,5.715,3.881,6.197"/>
		<path fill-rule="evenodd" clip-rule="evenodd" fill="#231F20" d="M227.705,137.03c0,0-2.888-7.22-5.135-12.033
			c0,0,3.128,8.503,3.53,10.428"/>
		<path fill-rule="evenodd" clip-rule="evenodd" fill="#231F20" d="M209.735,112.563c0,0,2.246,2.888,7.06,3.61
			c0,0-4.652,0.481-8.103-2.888"/>
		<path fill-rule="evenodd" clip-rule="evenodd" fill="#231F20" d="M262.641,267.925c2.198-0.232-6.394,1.09-7.581,6.283
			c0,0-0.803-3.69,4.974-6.739"/>
		<path fill-rule="evenodd" clip-rule="evenodd" fill="#231F20" d="M144.516,251.746c0,0-5.776-5.295-12.193-1.926
			c0,0,3.851-4.492,12.514,0.161"/>
		<path fill-rule="evenodd" clip-rule="evenodd" fill="#231F20" d="M132.804,237.146c0,0,2.728-7.381,4.011-10.27l-4.172,7.221"/>
	</g>
	<g>
		<path fill="#00907C" d="M154.786,291.922c0.116-0.195,0.252-0.391,0.406-0.584C155.077,291.461,154.916,291.689,154.786,291.922z
			 M153.653,264.167c0.267-0.266,0.455-0.43,0.647-0.572C154.078,263.753,153.86,263.943,153.653,264.167z M133.333,270.865
			c0.29-0.231,0.483-0.365,0.678-0.481C133.78,270.513,133.553,270.673,133.333,270.865z"/>
		<g>
			<path fill-rule="evenodd" clip-rule="evenodd" fill="#231F20" d="M127.579,273.582c0-10.93,8.859-19.79,19.789-19.79
				c10.931,0,19.791,8.86,19.791,19.79c0,10.931-8.86,19.792-19.791,19.792C136.438,293.374,127.579,284.513,127.579,273.582z
				 M126.118,274.016c0-11.977,9.707-21.683,21.681-21.683s21.681,9.706,21.681,21.683c0,11.973-9.707,21.68-21.681,21.68
				S126.118,285.988,126.118,274.016z"/>
			<circle fill-rule="evenodd" clip-rule="evenodd" fill="#FFFFFF" cx="147.369" cy="273.582" r="19.79"/>
		</g>
		<g>
			<circle fill-rule="evenodd" clip-rule="evenodd" fill="#FFFFFF" cx="147.473" cy="273.969" r="20.47"/>
			<path fill="#010101" d="M161.127,287.016c-0.07,0.512-0.248,1.005-0.408,1.493c-0.274,0.744-0.655,1.461-1.202,2.04
				c-0.324,0.356-0.762,0.571-1.16,0.828c-0.547,0.303-1.083,0.627-1.654,0.885c-0.479,0.233-0.953,0.483-1.458,0.657
				c-0.443,0.17-0.876,0.365-1.331,0.503c-0.787,0.248-1.569,0.577-2.408,0.585c-0.518-0.046-1.012-0.227-1.491-0.42
				c-0.592-0.256-1.156-0.581-1.658-0.985c-0.262,0.008-0.574,0.014-0.919,0.012c-2.687-0.015-4.634-0.45-7.123-1.443
				c-0.549-0.22-0.986-0.415-1.253-0.539c-0.487,0.101-0.986,0.139-1.482,0.164c-0.627,0.052-1.257-0.048-1.864-0.203
				c-0.351-0.099-0.665-0.3-0.94-0.534c-1.42-1.186-2.721-2.519-3.817-4.012c-0.341-0.483-0.712-0.946-1.01-1.459
				c-0.392-0.604-0.37-1.361-0.412-2.051c0.035-0.746,0.124-1.502,0.346-2.218c-0.103-0.289-0.236-0.682-0.374-1.145
				c-0.771-2.573-0.925-4.563-0.702-7.233c0.037-0.446,0.08-0.827,0.116-1.111c-0.518-0.846-0.83-1.825-0.886-2.815
				c-0.035-0.354,0.066-0.703,0.18-1.032c0.723-1.823,1.654-3.565,2.799-5.158c0.402-0.514,0.739-1.09,1.248-1.51
				c0.809-0.7,1.84-1.092,2.879-1.291c0.209-0.045,0.421-0.074,0.634-0.093c0.248-0.193,0.63-0.482,1.1-0.808
				c0.851-0.588,1.999-1.304,3.174-1.798c1.778-0.749,3.687-1.168,4.598-1.341c0.61-0.568,1.329-1.022,2.114-1.307
				c0.787-0.233,1.622-0.198,2.428-0.104c1.558,0.141,3.098,0.459,4.592,0.924c0.876,0.289,1.796,0.542,2.536,1.121
				c0.683,0.49,1.172,1.197,1.569,1.929c0.055,0.099,0.104,0.2,0.15,0.305c0.248,0.137,0.684,0.39,1.211,0.762
				c0.829,0.581,1.888,1.454,2.81,2.619c1.079,1.364,1.944,2.891,2.413,3.784c0.557,0.302,1.048,0.72,1.499,1.162
				c0.558,0.544,0.949,1.238,1.204,1.969c0.556,2.029,0.854,4.136,0.823,6.241c0.008,0.698,0.022,1.419-0.231,2.082
				c-0.223,0.582-0.609,1.085-1.018,1.549c-0.239,0.261-0.492,0.511-0.774,0.724c-0.083,0.281-0.248,0.813-0.489,1.463
				c-0.933,2.521-2.008,4.2-3.792,6.2C161.483,286.638,161.293,286.843,161.127,287.016z M135.882,283.732l5.959-5.391l0.026,0.165
				c0.001,0.132,0.132,0.183,0.239,0.21l-5.864,5.312c0.148,0.603,0.404,1.175,0.628,1.753c0.189,0.502,0.427,0.982,0.646,1.473
				c0.212,0.487,0.496,0.938,0.737,1.411c0.319,0.567,0.68,1.108,1.041,1.649c0.266,0.122,0.668,0.299,1.165,0.498
				c2.711,1.083,5.213,1.558,8.071,1.405c1.447-0.853,2.805-1.86,4.031-3.01c0.453-0.427,0.93-0.832,1.328-1.313l-3.069-7.303
				c-1.432-0.215-2.851-0.512-4.269-0.802c-1.487-0.321-2.968-0.68-4.438-1.07c-0.114-0.03-0.245-0.081-0.246-0.213l-0.026-0.165
				c-0.401-2.538-0.674-5.095-0.839-7.656c-0.024-0.368-0.052-0.736-0.058-1.104l-6.773-3.738l-0.02,0.015
				c-1.026,0.779-1.964,1.669-2.874,2.58c-0.7,0.766-1.372,1.561-1.968,2.41c-0.036,0.284-0.079,0.67-0.118,1.125
				c-0.244,2.93,0.039,5.475,1.035,8.183c1.291,1.107,2.699,2.081,4.211,2.862C134.915,283.263,135.387,283.522,135.882,283.732z
				 M163.314,272.064l-7.595,0.695c-1.324,2.652-2.83,5.212-4.458,7.688l3.062,7.287c0.012-0.001,0.024-0.002,0.037-0.005
				c2.177-0.011,4.364-0.286,6.446-0.935c0.172-0.18,0.375-0.397,0.598-0.648c2.039-2.282,3.37-4.575,4.199-7.499
				c-0.258-1.336-0.58-2.663-1.087-3.928C164.167,273.814,163.792,272.91,163.314,272.064z M149.228,265.558l1.545-7.38l0.159,0.107
				c-0.021,0.205-0.048,0.409-0.065,0.615c0.064-0.172,0.118-0.35,0.193-0.519c0.023-0.057,0.09-0.065,0.143-0.082l0.018-0.004
				l-1.526,7.281c2.042,1.965,3.943,4.074,5.716,6.284c0.114,0.14,0.221,0.285,0.327,0.433l7.578-0.694
				c0.13-0.352,0.191-0.729,0.287-1.091c0.408-1.71,0.607-3.468,0.575-5.226c-0.118-0.227-0.265-0.503-0.439-0.81
				c-1.263-2.245-2.574-4.046-4.71-5.547c-0.528-0.372-0.959-0.621-1.194-0.749c-0.729-0.069-1.456-0.185-2.19-0.192
				c-1.189-0.066-2.38,0.035-3.562,0.172c-0.289,0.039-0.578,0.072-0.862,0.139l-0.018,0.004c-0.053,0.017-0.12,0.025-0.143,0.082
				c-0.075,0.169-0.129,0.347-0.193,0.519c0.017-0.206,0.043-0.41,0.065-0.615l-0.159-0.107c-0.988-0.661-2.046-1.213-3.118-1.725
				c-0.976-0.436-1.99-0.776-3.014-1.076c-0.27,0.052-0.616,0.124-1.012,0.216c-2.888,0.681-5.239,1.749-7.526,3.564
				c-0.481,1.088-0.905,2.204-1.181,3.362c-0.251,0.955-0.43,1.929-0.548,2.908l6.766,3.734c1.9-1.025,3.874-1.907,5.863-2.739
				C147.742,266.126,148.481,265.832,149.228,265.558z"/>
			<path fill="#231F20" d="M127.003,273.969c0-11.305,9.166-20.469,20.471-20.469c0.749,0,1.489,0.041,2.217,0.118
				c-0.406-0.023-0.813-0.036-1.226-0.036c-10.887,0-19.713,8.825-19.713,19.712c0,10.89,8.826,19.714,19.713,19.714
				c8.749,0,16.166-5.697,18.743-13.586c-2.388,8.658-10.319,15.017-19.735,15.017C136.169,294.438,127.003,285.274,127.003,273.969
				z"/>
		</g>
		<g>
			<path fill="#00907C" d="M142.554,269.67l-0.487,0.864l-8.611-4.853l0.486-0.863L142.554,269.67z M142.067,270.534l-8.611-4.853
				l0.486-0.863l8.611,4.852L142.067,270.534z"/>
			<polygon fill="#231F20" points="142.28,271.297 133.182,266.169 133.456,265.682 132.969,265.408 133.73,264.057 
				142.828,269.183 142.554,269.67 143.041,269.944 			"/>
		</g>
		<g>
			<path fill="#00907C" d="M150.965,257.045l0.963,0.237l-2.317,9.441l-0.962-0.236L150.965,257.045z M151.928,257.282l-2.317,9.441
				l-0.962-0.236l2.317-9.442L151.928,257.282z"/>
			<polygon fill="#231F20" points="150.021,267.4 148.515,267.03 148.648,266.487 148.105,266.354 150.556,256.368 152.062,256.738 
				151.928,257.282 152.471,257.415 			"/>
		</g>
		<g>
			<path fill="#00907C" d="M164.294,271.182l0.095,0.987l-9.485,0.918l-0.095-0.986L164.294,271.182z M164.389,272.169l-9.485,0.918
				l-0.095-0.986l9.486-0.919L164.389,272.169z"/>
			<polygon fill="#231F20" points="154.401,273.697 154.252,272.154 154.808,272.101 154.754,271.544 164.797,270.571 
				164.945,272.115 164.389,272.169 164.442,272.726 			"/>
		</g>
		<g>
			<path fill="#00907C" d="M155.267,289.137l-0.909,0.397l-4.108-9.398l0.908-0.397L155.267,289.137z M154.358,289.534l-4.108-9.398
				l0.908-0.397l4.109,9.398L154.358,289.534z"/>
			<polygon fill="#231F20" points="154.07,290.271 149.737,280.359 150.25,280.136 150.025,279.623 151.446,279.002 
				155.779,288.913 155.267,289.137 155.491,289.649 			"/>
		</g>
		<g>
			<path fill="#00907C" d="M135.081,285.333l-0.664-0.737l7.519-6.774l0.664,0.736L135.081,285.333z M134.417,284.596l7.519-6.774
				l0.664,0.736l-7.518,6.775L134.417,284.596z"/>
			<polygon fill="#231F20" points="135.04,286.122 134.001,284.971 134.417,284.596 134.042,284.181 141.976,277.031 
				143.014,278.184 142.599,278.558 142.973,278.973 			"/>
		</g>
	</g>
	<path fill-rule="evenodd" clip-rule="evenodd" fill="#231F20" d="M155.831,133.535c0,0-3.625-1.128-4.35-0.403
		c-0.725,0.725-3.866,13.694-3.866,13.694l-0.483-17.721l0.08-0.483"/>
	<path fill-rule="evenodd" clip-rule="evenodd" fill="#231F20" d="M163.156,154.322l3.308,0.486c0,0-11.574,1.557-13.325,2.334
		c-1.751,0.777-2.14,1.167-2.14,1.167s0.875-3.696-1.848-5.252"/>
</g>
</svg>
