<?xml version="1.0" encoding="utf-8"?>
<!-- Generator: Adobe Illustrator 16.0.0, SVG Export Plug-In . SVG Version: 6.00 Build 0)  -->
<!DOCTYPE svg PUBLIC "-//W3C//DTD SVG 1.1//EN" "http://www.w3.org/Graphics/SVG/1.1/DTD/svg11.dtd">
<svg version="1.1" id="Layer_1" xmlns="http://www.w3.org/2000/svg" xmlns:xlink="http://www.w3.org/1999/xlink" x="0px" y="0px"
	 width="350px" height="350px" viewBox="0 0 350 350" enable-background="new 0 0 350 350" xml:space="preserve">
<g>
	<g>
		<defs>
			<rect id="SVGID_1_" x="64.61" y="54.637" width="220.779" height="240.727"/>
		</defs>
		<clipPath id="SVGID_2_">
			<use xlink:href="#SVGID_1_"  overflow="visible"/>
		</clipPath>
		<path clip-path="url(#SVGID_2_)" fill="#CCCCCC" d="M244.157,283.024c-5.269,0.001-8.328,0-14.667,1.325
			c-2.396,0.13-4.068,0.65-6.042,1.063c-5.147,1.074-11.687,1.681-16.884,1.416c-8.922-0.453-16.876,0.761-25.963,0.761
			c-11.505,0-24.306,1.671-34.842,1.671c-6.326,0-12.039,0.581-18.524,0.581"/>
		<path clip-path="url(#SVGID_2_)" fill="#CCCCCC" d="M127.575,290.18c-1.146-0.092-4.127,0.392-4.448,1.676
			c-0.827,3.323,7.993,1.326,9.406,1.321c8.285-0.024,14.475-2.858,22.759-2.938c14.046-0.136,25.302-0.979,39.434-0.979
			c3.578,0,6.519-0.272,10.059,0c3.994,0.308,6.972,1.358,10.659-0.532c3.058-1.567,6.538-2.298,10.02-1.945
			c3.735,0.379,8.152,0.244,11.859,0.968c-3.022,0.688,4.405-0.85,3.775-1.277c2.259-0.139-1.93,1.061-0.018,1.933
			c1.412,0.645,11.862,0.923,12.934,0.854c0.105-1.677,6.487-1.186,6.967-2.787c0.589-1.967,26.426-2.339,25.492-4.769
			c-1.197-3.11-18.488-1.392-21.413-0.95"/>
		<path clip-path="url(#SVGID_2_)" fill="#333333" d="M98.472,91.6c-0.138,0.084-0.212,0.242-0.348,0.332
			c-0.123,0.081-0.323,0.041-0.427,0.167c-0.245,0.3,0.062,0.685,0.192,0.943c0.368,0.724,0.892,1.188,1.209,1.928
			c0.174,0.405,0.347,0.913,0.607,1.261c0.32,0.426,0.883,0.78,1.283,1.104c0.518,0.421,0.834,0.51,1.501,0.51
			c0.357,0,0.944,0.112,1.285,0c0.225-0.074,0.565-0.528,0.34-0.841c-0.118-0.165-0.675-0.256-0.881-0.356
			c-0.78-0.384-1.426-0.683-2.009-1.343c-0.472-0.533-0.815-1.143-1.254-1.71c-0.42-0.542-1.028-1.145-1.359-1.75
			c-0.042-0.078-0.072-0.167-0.096-0.245"/>
		<path clip-path="url(#SVGID_2_)" fill="#333333" d="M78.249,130.735c-0.03-0.228,0.373-0.036,0.509-0.176
			c0.168-0.171,0.366-0.383,0.479-0.598c0.156-0.299,0.112-0.727,0.183-1.065c0.069-0.332,0.037-0.642,0.072-0.98
			c0.041-0.396,0.222-0.79,0.255-1.187c0.077-0.897-0.064-1.609-0.706-2.214c-0.624-0.588-0.684-1.127-0.441-1.946
			c0.17-0.577,0.935-1.041,1.378-1.413c0.391-0.327,0.346-0.729,0.7-1.098c0.161-0.167,0.329-0.36,0.435-0.576
			c0.086-0.177,0.436-0.328,0.525-0.491c0.202-0.369,0.65-0.355,1.04-0.335c0.053,0.29-0.377,0.846-0.511,1.091
			c-0.208,0.384-0.366,0.751-0.642,1.098c-0.415,0.52-0.763,1.157-1.298,1.532c-0.208,0.146-0.457,0.167-0.567,0.446
			c-0.119,0.302,0.039,0.502,0.183,0.754c0.141,0.249,0.232,0.59,0.428,0.831c0.262,0.324,0.491,0.507,0.654,0.909
			c0.274,0.675,0.539,1.021,0.161,1.735c-0.312,0.588-0.521,1.429-0.621,2.087c-0.034,0.222-0.171,0.449-0.296,0.621
			c-0.153,0.211-0.483,0.274-0.654,0.508c-0.341,0.469-0.611,0.467-1.267,0.528"/>
		<path clip-path="url(#SVGID_2_)" fill="#333333" d="M89.593,72.757c1.282-0.485,2.039-1.479,3.558-1.392
			c0.047,0.05,0.078,0.081,0.127,0.128c-0.013,0.339,0.083,0.662,0.084,0.999c0.439,0.107,0.666-0.638,0.998-0.884
			c0.662-0.49,0.933-0.045,1.6,0.015c-0.072,0.619,0.689,0.838,0.592,1.511c1.064-0.974,1.399-1.755,2.935-1.829
			c1.283-0.061,2.313-0.273,3.424,0.291c0.868,0.439,1.362,1.054,2.157,1.689c0.458,0.367,1.055,1.024,1.604,1.193
			c0.604,0.186,1.365-0.124,1.988,0.01c0.687,0.146,1.062,0.734,1.519,1.201c0.285,0.291,0.523,0.465,0.7,0.841
			c0.132,0.283,0.129,0.855,0.498,0.936c-0.021-0.581,0.389-1.887,1.087-1.724c0.257-0.749,0.489-1.379,1.119-1.902
			c0.651-0.542,1.132-1.266,1.87-1.672c0.89-0.489,1.934-0.367,2.824,0.097c0.836,0.434,1.153,1.377,1.068,2.331
			c-0.485,0.04-0.723-0.549-1.121-0.707c-0.35-0.138-1.047-0.093-1.433-0.034c-1.027,0.158-1.417,1.149-1.912,2.019
			c-1.404-0.011-1.075,2.106-1.133,2.926c-0.048,0.679-0.211,1.246-0.956,1.354c-0.76,0.111-0.995-0.272-1.523-0.699
			c-0.702-0.567-1.357-0.808-1.793-1.679c-0.261-0.52-0.187-1.067-0.757-1.257c-0.607-0.202-1.399,0.134-2.03,0
			c-0.608-0.13-1.495-0.722-1.992-1.145c-0.615-0.521-0.905-1.261-1.571-1.725c-0.65-0.453-1.225-0.957-2.058-1.003
			c-1.193-0.067-4.049,1.169-2.939,2.525c-0.75,0.038-2.033,0.022-2.416-0.75c-0.191-0.385,0.125-0.983-0.075-1.332
			c-0.293-0.507-0.645-0.172-0.876-0.025c-0.633,0.403-0.806,1.828-1.469,1.862c-0.271,0.014-0.869-0.385-0.978-0.637
			c-0.167-0.386,0.139-0.746,0.076-1.138c-0.371-0.025-1.322,0.158-1.633,0.323c-0.333,0.178-0.48,0.604-0.855,0.674
			c-0.992,0.186-0.895-1.416-0.115-1.644"/>
		<path clip-path="url(#SVGID_2_)" fill="#333333" d="M131.973,197.815c-2.358,1.509-10.458,4.601-11.252,8.089l-1.338-1.158
			c0,0,7.555-8.227,12.59-8.991C133.234,195.626,131.973,197.815,131.973,197.815"/>
		<path clip-path="url(#SVGID_2_)" fill="#333333" d="M159.599,155.796c-0.243,0.06-0.45,1.042-0.651,2.026
			c0.195,0.419,0.273,0.898,0.199,1.384c-0.199,1.311-1.255,2.254-2.462,2.776c-0.22,0.177-0.453,0.335-0.699,0.467
			c-0.014,0.007-0.028,0.014-0.041,0.021c-0.037,0.029-0.069,0.058-0.107,0.086c-1.199,0.857-2.439,1.656-3.685,2.443
			c-0.499,0.627-1.051,1.203-1.754,1.635c-0.208,0.127-0.427,0.215-0.652,0.282c-0.891,0.582-1.772,1.168-2.708,1.638
			c-0.014,0.011-0.025,0.024-0.039,0.034c-0.581,0.406-1.22,0.767-1.891,1.02c-0.126,0.147-0.272,0.279-0.446,0.382
			c-1.369,0.817-2.804,1.511-4.265,2.147c-0.371,0.161-0.765,0.184-1.144,0.117c-1.736,0.667-3.705,0.839-5.509,0.584
			c-0.15-0.021-0.291-0.054-0.421-0.096c-1.073-0.036-2.036-0.344-3.105-0.541c-0.393-0.072-0.739-0.253-1.029-0.496
			c-3.71-0.767-7.347-2.374-10.952-3.328c-0.178-0.048-0.341-0.109-0.491-0.184c-2.353-0.133-4.788-0.607-7.043-1.104
			c-0.275-0.06-0.468-0.267-0.642-0.431c-0.886,0.264-1.701,0.476-2.297,1.467c0.249,0.086,0.494,0.203,0.722,0.358
			c0.022,0.016,0.048,0.027,0.072,0.043c6.164-0.768,12.748,3.313,18.127,5.716c0.292,0.13,0.526,0.297,0.714,0.485
			c5.287,0.599,9.989,0.384,14.155-0.333c0.253-0.293,0.571-0.545,0.939-0.738c1.753-0.915,3.646-1.708,5.632-1.901
			c0.023-0.005,0.044-0.014,0.067-0.019c0.679-0.138,2.442-2.23,3.102-2.719c1.26-0.933,2.461-1.889,3.809-2.695
			c2.249-1.346,4.99-3.142,6.358-5.502C160.558,159.079,160.499,156.4,159.599,155.796"/>
		<path clip-path="url(#SVGID_2_)" fill="#333333" d="M178.728,207.222c-0.764-1.387-0.829-3.025-0.918-4.638l-30.942,1.455
			c0.689,0.616,1.242,1.332,1.721,2.102c0.145,0.078,0.283,0.169,0.408,0.284c0.242,0.22,0.47,0.452,0.694,0.687
			c0.269,0.066,0.538,0.199,0.8,0.4c0.555-0.193,1.187-0.178,1.772,0.062c0.664,0.271,1.322,0.549,1.888,1.002
			c0.547,0.438,0.968,1.021,1.362,1.594c0.054,0.08,0.093,0.165,0.136,0.247c0.244,0.261,0.474,0.53,0.677,0.82
			c0.931,0.998,1.863,1.998,2.808,2.984c8.398,1.57,17.325-3.71,19.935-5.425C178.894,208.293,178.789,207.767,178.728,207.222"/>
		<path clip-path="url(#SVGID_2_)" fill="#333333" d="M122.74,263.636c0-0.07,0.008-0.137,0.01-0.205
			c-10.869-3.719-11.674,3.106-11.679,6.598c0.278,0.366,0.496,0.783,0.686,1.201c0.04,0.088,0.232,0.874-0.02,0.457
			c0.177,0.294,0.393,1.291,0.558,1.596c1.717-10.721,8.76-7.33,10.678-8.114C122.817,264.678,122.742,264.164,122.74,263.636"/>
		<path clip-path="url(#SVGID_2_)" fill="#333333" d="M119.221,212.389c-8.253,9.104-13.946,3.89-16.214,0.687
			c-0.104,0.168-0.216,0.33-0.338,0.48c-0.098,0.12-0.201,0.223-0.305,0.327c-0.141,0.329-0.302,0.642-0.5,0.959
			c8.049,8.42,15.758,1.159,17.977-1.321C119.593,213.171,119.392,212.791,119.221,212.389"/>
		<path clip-path="url(#SVGID_2_)" fill="#2B231B" d="M209.404,265.217c-3.58,8.565-10.553,3.284-13.529-0.967
			c0.002,0.051-0.447-0.764-0.471-0.718c-0.612,1.198,0.153,2.445-0.446,2.907c-0.054,0.116-0.105,0.234-0.155,0.352
			c0.007,0.274,0.005,0.555-0.011,0.847c0.039,0.146,0.071,0.294,0.095,0.44c0.089,0.138,0.167,0.283,0.227,0.44l0.134,0.602
			c0.021,0.097,0.04,0.195,0.054,0.296c11.568,9.166,14.366,1.322,15.206-1.992C209.959,266.918,209.755,265.906,209.404,265.217"/>
		<path clip-path="url(#SVGID_2_)" fill="#2B231B" d="M185.362,221.985c-0.702-0.978-0.966-0.664-1.375-0.887
			c3.356,6.08-1.542,11.588-11.676,10.104c0.384,0.326,0.515,0.62,0.978,0.971c4.577-0.299,14.687-0.84,13.053-7.93
			C186.302,223.827,185.535,222.225,185.362,221.985"/>
	</g>
	<g>
		<defs>
			<path id="SVGID_3_" d="M160.205,161.277c-0.766,1.911-4.461,3.569-6.119,4.843l0,0c-2.039,1.658-4.333,2.932-6.627,4.334l0,0
				c-3.824,2.294-8.922,3.823-13.383,3.95l0,0c-4.844,0.127-9.177-2.932-13.765-4.079l0,0c-3.569-0.892-7.903-2.677-11.599-2.548
				l0,0l-1.02,0.212c-3.059,0.169-5.608,1.359-5.948,4.758l0,0c-0.17,2.888,1.87,5.098,1.36,7.987l0,0
				c-0.51,2.889-2.97,7.076-3.017,9.985l0,0c-0.028,1.741,1.532,2.556,2.626,2.99l0,0c-0.757-3.649-0.565-5.965,1.305-8.004l0,0
				c1.955-2.124,5.162-4.26,7.849-4.26l0,0c3.488,0,5.598,0.988,8.231,3.197l0,0c2.805,2.549,5.779,4.758,8.583,7.308l0,0
				c2.124,1.784,2.804,4.163,2.294,6.883l0,0c-0.255,1.359-1.019,2.804-1.869,3.824l0,0c-0.765,1.019-0.916,2.243-2.719,3.144l0,0
				c-1.508,0.754-5.05,0.563-6.579-0.521l0,0c-0.733,1.498,4.818,2.778,6.749,2.135l0,0c6.288-2.039,5.098-10.196,9.177-13.425l0,0
				c1.36,2.718,3.505,5.777,6.797,7.477l0,0c3.702,1.911,6.52,7.591,9.518,6.841l0,0c0.638-0.16-3.856-3.283-1.275-3.441l0,0
				c2.12-0.131,5.354,3.738,7.479,4.503l0,0c2.803,1.02,6.373,1.147,9.432,1.488l0,0c4.248,0.509,9.747-1.168,11.407-4.568l0,0
				c-0.435-1.03-1.211-5.161-1.721-6.691l0,0c-0.85-3.059-2.89-5.269-3.909-8.157l0,0c-2.888-8.666-1.359-24.982-10.196-29.741l0,0
				c0,0-2.167-0.17-2.804-4.121l0,0c-0.029-0.172-0.044-0.248-0.05-0.248l0,0C160.367,157.333,160.644,160.289,160.205,161.277"/>
		</defs>
		<clipPath id="SVGID_4_">
			<use xlink:href="#SVGID_3_"  overflow="visible"/>
		</clipPath>
		<g clip-path="url(#SVGID_4_)">
			<g>
				<defs>
					
						<rect id="SVGID_5_" x="108.946" y="142.218" transform="matrix(-0.0917 -0.9958 0.9958 -0.0917 -31.0461 339.7816)" width="60.991" height="83.665"/>
				</defs>
				<clipPath id="SVGID_6_">
					<use xlink:href="#SVGID_5_"  overflow="visible"/>
				</clipPath>
				
					<linearGradient id="SVGID_7_" gradientUnits="userSpaceOnUse" x1="0" y1="0" x2="1" y2="0" gradientTransform="matrix(7.2444 78.6706 78.6706 -7.2444 138 182.5)">
					<stop  offset="0" style="stop-color:#CCCCCC"/>
					<stop  offset="0.6003" style="stop-color:#838383"/>
					<stop  offset="1" style="stop-color:#4D4D4D"/>
				</linearGradient>
				<polygon clip-path="url(#SVGID_6_)" fill="url(#SVGID_7_)" points="178.271,149.869 183.861,210.584 100.582,218.253 
					94.991,157.538 				"/>
			</g>
		</g>
	</g>
	<g>
		<defs>
			<rect id="SVGID_8_" x="64.61" y="54.637" width="220.779" height="240.727"/>
		</defs>
		<clipPath id="SVGID_9_">
			<use xlink:href="#SVGID_8_"  overflow="visible"/>
		</clipPath>
		<path clip-path="url(#SVGID_9_)" fill="#F0D0B4" d="M102.954,213.205c0.085,3.06,4.27,4.748,6.819,4.748
			c3.059,0,6.649-1.709,8.851-4.503c0.51-1.02,0.255-2.38,0.34-3.484c0.17-3.399,1.53-6.543,4.334-8.497
			c1.359-1.02,2.888-1.87,4.418-2.55c1.02-0.596,3.088-1.251,3.768-2.186c-0.275-1.482-1.035-2.799-2.337-3.892
			c-2.804-2.55-5.777-4.759-8.582-7.309c-2.634-2.208-4.929-3.908-8.413-4.079c-3.059-0.169-6.288,2.381-8.243,4.505
			c-1.869,2.039-1.261,4.804-1.261,7.185c0.85,1.698,0.829,1.146,0.829,3.014c0,3.569-0.078,7.288,0.092,11.025
			c0.17,2.55-0.127,3.767-0.616,6.097"/>
		<path clip-path="url(#SVGID_9_)" fill="#CF9E76" d="M102.733,213.333c0.189,2.649,2.894,4.023,5.197,4.56
			c2.375,0.554,4.922-0.168,6.994-1.35c0.566-0.322,1.115-0.66,1.648-1.039c0.645-0.458,1.22-1.005,1.762-1.578
			c0.708-0.751,0.824-1.51,0.843-2.516c0.061-3.29,0.585-6.299,2.883-8.816c2.212-2.424,5.455-3.334,8.218-4.92
			c0.527-0.302,1.029-0.599,1.427-1.068c0.242-0.285-0.632-1.817-0.783-2.091c-0.47-0.845-1.197-1.48-1.905-2.118
			c-2.864-2.583-5.882-5.056-8.857-7.511c-2.45-2.02-5.231-3.703-8.522-3.549c-1.949,0.093-3.869,1.307-5.409,2.438
			c-1.298,0.953-2.676,2.148-3.388,3.613c-0.756,1.559-0.498,3.492-0.428,5.157c0.047,1.117,0.817,1.896,0.842,3.033
			c0.049,2.13-0.017,4.266-0.015,6.397c0.002,2.08,0.076,4.155,0.151,6.233c0.064,1.769-0.297,3.479-0.658,5.198
			c0.023-0.107,0.417-0.143,0.442-0.256c0.307-1.458,0.607-2.9,0.66-4.394c0.071-2.014-0.132-4.057-0.149-6.072
			c-0.016-1.908,0.005-3.813,0.012-5.719c0.005-1.239,0.1-2.22-0.494-3.31c-0.642-1.183-0.467-3.023-0.404-4.361
			c0.085-1.765,0.865-3.028,2.089-4.243c1.38-1.368,2.979-2.539,4.833-3.165c1.593-0.54,3.317-0.301,4.892,0.176
			c3.23,0.975,5.715,3.651,8.22,5.759c1.434,1.205,2.894,2.381,4.322,3.592c1.405,1.192,2.858,2.329,3.669,4.022
			c0.308,0.642,0.628,1.291,0.069,1.809c-0.656,0.607-1.659,0.907-2.462,1.288c-1.044,0.495-2.076,1.012-3.08,1.585
			c-2.139,1.222-4.04,2.668-5.259,4.853c-1.236,2.215-1.32,4.634-1.365,7.098c-0.051,2.773-3.657,4.606-5.925,5.324
			c-3.276,1.037-9.322-0.031-9.627-4.314C103.18,213.149,102.729,213.255,102.733,213.333"/>
	</g>
	<g>
		<defs>
			<path id="SVGID_10_" d="M112.451,271.231c0.01-0.023,0.02-0.045,0.03-0.067l0,0c-0.001-0.001-0.001-0.001-0.001-0.001l0,0
				C112.47,271.187,112.46,271.208,112.451,271.231 M120.437,264.434c-0.764,0-1.444,0.34-2.209,0.425l0,0
				c-0.478,0.05-0.95,0.019-1.417-0.013l0,0c-0.542-0.034-1.079-0.069-1.61,0.021l0,0c-0.267,0.045-0.531,0.122-0.796,0.248l0,0
				c-1.784,0.935-1.444,0.679-1.36,2.548l0,0c0.083,1.079-0.158,2.562-0.564,3.502l0,0c0.043,0.251-0.394,1.057-0.37,1.385l0,0
				c0,0.723,0.091,1.444,0.363,2.118l0,0c0.371,0.925,1.005,1.696,1.783,3.141l0,0c1.19,2.209,1.932,4.556,3.462,6.764l0,0
				c0.188,0.283,0.371,0.565,0.557,0.847l0,0c0.8,1.214,2.025,2.859,4.425,2.775l0,0c0.858-0.029,1.265,0.785,2.135,1.066l0,0
				c0.495-0.077,1.12-0.559,1.544-0.929l0,0c0.083-0.428-0.2-0.94-0.035-1.231l0,0c0.615-1.08,2.134-2.12,3.186-2.017l0,0
				c1.019,0.743,1.922,0.743,2.464-0.342l0,0c-0.17,0.341-0.51-3.229-0.51-3.568l0,0c0-0.177-0.006-0.351-0.018-0.521l0,0
				c-0.076-1.146-0.835-2.139-1.427-3.174l0,0c-0.2-0.376-0.418-0.681-0.649-0.939l0,0c-1.337-1.503-3.082-1.462-4.024-4.542l0,0
				c-0.561-1.831-1.412-4.056-1.812-5.839l0,0c-0.229-1.022-0.535-1.776-1.163-1.894l0,0
				C121.712,265.029,121.202,264.434,120.437,264.434"/>
		</defs>
		<clipPath id="SVGID_11_">
			<use xlink:href="#SVGID_10_"  overflow="visible"/>
		</clipPath>
		<g clip-path="url(#SVGID_11_)">
			<g>
				<defs>
					<rect id="SVGID_12_" x="112.17" y="264.176" width="19.907" height="24.996"/>
				</defs>
				<clipPath id="SVGID_13_">
					<use xlink:href="#SVGID_12_"  overflow="visible"/>
				</clipPath>
				<g clip-path="url(#SVGID_13_)">
					<defs>
						<rect id="SVGID_14_" x="112.17" y="264.176" width="19.907" height="24.996"/>
					</defs>
					<clipPath id="SVGID_15_">
						<use xlink:href="#SVGID_14_"  overflow="visible"/>
					</clipPath>
					<g clip-path="url(#SVGID_15_)">
						
							<image overflow="visible" width="42" height="53" xlink:href="1816F904.jpg"  transform="matrix(0.48 0 0 0.48 112.1699 264.1758)">
						</image>
					</g>
				</g>
			</g>
		</g>
	</g>
	<g>
		<defs>
			<rect id="SVGID_16_" x="64.61" y="54.637" width="220.779" height="240.727"/>
		</defs>
		<clipPath id="SVGID_17_">
			<use xlink:href="#SVGID_16_"  overflow="visible"/>
		</clipPath>
		<path clip-path="url(#SVGID_17_)" fill="#E6E6E6" d="M122.646,264.009c1.02-1.869-2.549-7.817-2.719-10.537
			c0-2.208-0.116-7.365-0.34-10.026c-0.747-3.016,1.36-8.667,1.7-11.896c0.68-4.928-0.339-9.855-0.68-14.785
			c0-1.358-0.488-3.228-1.179-4.438c-0.085,1.104-0.294,0.869-0.804,1.889c-2.202,2.793-5.792,4.503-8.851,4.503
			c-2.549,0-7.556-2.207-7.64-5.267c-0.51,1.19-1.069,3.229-0.05,4.802c-0.999,9.475,3.909,20.096,5.098,29.103
			c0.68,4.248,2.719,8.497,3.059,12.745c0.169,2.04-0.442,6.123,0.238,7.992c0.586,1.759,1.248,2.029,1.528,3.595
			c0.425-0.934,0.451-3.878,0.367-4.983c-0.085-1.868-0.425-1.613,1.359-2.549c1.444-0.679,2.209-0.084,3.824-0.255
			c0.765-0.085,1.444-0.424,2.209-0.424C120.53,263.476,121.967,264.773,122.646,264.009"/>
		<path clip-path="url(#SVGID_17_)" fill="#B3B3B3" d="M122.868,263.882c0.583-1.263-0.206-3.008-0.635-4.202
			c-0.65-1.814-1.485-3.576-1.945-5.454c-0.426-1.734-0.17-3.767-0.22-5.541c-0.058-2.068-0.161-4.12-0.389-6.173
			c-0.227-2.033,0.367-4.194,0.818-6.157c0.527-2.299,1.046-4.543,1.198-6.905c0.2-3.122-0.214-6.264-0.548-9.362
			c-0.289-2.688-0.194-5.443-1.498-7.89c0.011,0.02-0.436,0.207-0.442,0.255c-0.183,1.724-1.775,3.083-3.076,4.07
			c-1.808,1.371-4.315,2.2-6.597,2.045c-2.729-0.186-6.952-2.139-7.18-5.245c0.005,0.071-0.409,0.173-0.442,0.256
			c-0.397,0.971-0.631,1.944-0.612,2.997c0.01,0.513,0.171,0.994,0.368,1.46c0.269,0.636,0.11,1.299,0.079,2.002
			c-0.12,2.713,0.239,5.435,0.729,8.097c0.98,5.318,2.709,10.465,3.852,15.748c0.556,2.575,0.877,5.156,1.609,7.697
			c0.823,2.858,1.804,5.669,2.083,8.648c0.187,1.983-0.14,4.005-0.074,5.994c0.032,0.982,0.231,1.86,0.61,2.767
			c0.409,0.98,1.005,1.765,1.23,2.826c-0.011-0.052,0.415-0.185,0.441-0.254c0.558-1.442,0.451-3.264,0.38-4.783
			c-0.026-0.559-0.153-1.154-0.072-1.712c0.133-0.907,1.94-1.125,2.669-1.11c1.059,0.019,1.966,0.149,3.02-0.115
			c1.184-0.295,1.722-0.162,2.793,0.316C121.763,264.488,122.287,264.352,122.868,263.882c-0.129,0.104-0.311,0.147-0.442,0.254
			c-0.062,0.05-0.123,0.101-0.185,0.151c0.147-0.086,0.294-0.171,0.441-0.256c-0.774,0.278-1.565-0.312-2.265-0.591
			c-0.989-0.396-2.395,0.36-3.447,0.361c-1.097,0-1.959-0.209-3.018,0.226c-0.349,0.144-0.689,0.357-1.017,0.547
			c-0.893,0.516-0.879,0.903-0.802,1.931c0.124,1.669,0.265,3.724-0.348,5.31c0.147-0.085,0.294-0.17,0.441-0.254
			c-0.397-1.876-1.663-3.286-1.823-5.266c-0.169-2.104,0.196-4.217,0.057-6.322c-0.185-2.802-1.152-5.523-1.95-8.194
			c-0.803-2.689-1.17-5.415-1.743-8.151c-1.107-5.293-2.831-10.435-3.851-15.748c-0.486-2.531-0.773-5.1-0.742-7.679
			c0.007-0.556,0.044-1.109,0.088-1.664c0.05-0.63-0.362-1.201-0.486-1.843c-0.216-1.122,0.155-2.343,0.576-3.371
			c-0.148,0.086-0.295,0.171-0.442,0.256c0.149,2.011,1.938,3.306,3.59,4.156c1.955,1.009,4,1.313,6.147,0.863
			c2.882-0.605,7.659-3.208,8-6.4c-0.147,0.085-0.294,0.17-0.442,0.255c1.233,2.313,1.184,4.854,1.446,7.396
			c0.322,3.118,0.71,6.224,0.623,9.364c-0.126,4.573-2.349,8.981-2.039,13.553c0.131,1.936,0.316,3.859,0.378,5.807
			c0.059,1.847-0.146,3.854,0.181,5.673c0.333,1.856,1.228,3.638,1.886,5.391c0.47,1.252,1.36,3.167,0.744,4.5
			C122.483,264.012,122.808,264.009,122.868,263.882"/>
	</g>
	<g>
		<defs>
			<path id="SVGID_18_" d="M150.178,205.375c0.71,0.634,1.398,1.275,2.066,1.927l0,0c2.194,2.143,4.228,4.443,6.1,6.873l0,0
				c1.326,1.722,2.541,3.515,3.751,5.319l0,0c0.588,0.878,1.187,1.75,1.799,2.61l0,0c1.686,2.37,3.469,4.708,5.543,6.754l0,0
				c1.146,1.131,2.317,2.083,3.44,2.667l0,0c0.267,0.139,0.532,0.258,0.792,0.353l0,0c0.167-0.004,0.346-0.008,0.538-0.015l0,0
				c3.083-0.119,9.057-0.918,10.681-4.47l0,0c0.732-1.599,0.584-3.755-1.104-6.657l0,0c-0.282-0.447-0.652-1.065-1.049-1.769l0,0
				c-0.724-1.278-1.418-2.582-2.015-3.927l0,0c-0.782-1.763-1.304-3.637-1.597-5.543l0,0c-0.089-0.588-0.157-1.177-0.202-1.762l0,0
				c-1.247,1.414-2.964,2.441-4.893,3.061l0,0c-1.984,0.636-4.193,0.841-6.347,0.58l0,0c-1.806-0.2-3.618-0.317-5.417-0.566l0,0
				c-1.817-0.26-3.692-0.583-5.274-1.572l0,0c-0.222-0.139-0.451-0.292-0.687-0.452l0,0c-2.011-1.378-4.45-3.414-6.022-3.414l0,0
				C150.246,205.372,150.212,205.373,150.178,205.375"/>
		</defs>
		<clipPath id="SVGID_19_">
			<use xlink:href="#SVGID_18_"  overflow="visible"/>
		</clipPath>
		<g clip-path="url(#SVGID_19_)">
			<g>
				<defs>
					<rect id="SVGID_20_" x="150.261" y="205.283" width="35.224" height="26.506"/>
				</defs>
				<clipPath id="SVGID_21_">
					<use xlink:href="#SVGID_20_"  overflow="visible"/>
				</clipPath>
				<g clip-path="url(#SVGID_21_)">
					<defs>
						<rect id="SVGID_22_" x="150.261" y="205.283" width="35.224" height="26.506"/>
					</defs>
					<clipPath id="SVGID_23_">
						<use xlink:href="#SVGID_22_"  overflow="visible"/>
					</clipPath>
					<g clip-path="url(#SVGID_23_)">
						
							<image overflow="visible" width="74" height="56" xlink:href="1816F905.jpg"  transform="matrix(0.48 0 0 0.48 150.2612 205.2832)">
						</image>
					</g>
				</g>
			</g>
		</g>
	</g>
	<g>
		<defs>
			<path id="SVGID_24_" d="M182.723,230.495c-3.082,1.396-7.282,1.639-9.284,1.67l0,0c0.04-0.002,0.078-0.004,0.117-0.004l0,0
				c-0.329,0.014-0.66,0.028-0.988,0.044l0,0c1.699,2.21,3.612,4.779,4.802,7.329l0,0c1.358,3.229,3.058,4.588,5.776,6.798l0,0
				c2.864,2.266,7.064,6.288,9.727,10.366l0,0c1.132,1.732,1.985,3.477,2.34,5.098l0,0c0.232,0.87,0.306,0.861,0.152,1.645l0,0
				c0.666,1.538,1.093,2.979,1.928,4.139l0,0c0.546,0.759,1.265,1.397,2.339,1.867l0,0c0.765,0.342,1.699,0.706,2.549,0.876l0,0
				c0.595,0.17,1.742,0.952,2.337,1.036l0,0c1.274,0.086,1.147-0.977,1.911-1.656l0,0c0.596-0.51,1.063-0.809,1.657-1.231l0,0
				c1.02-0.766,0.808-2.233,1.318-3.254l0,0c0.229,0.078-0.451-1.012-0.468-1.171l0,0c-0.002-0.018,0.004-0.024,0.021-0.017l0,0
				c-1.53-2.208-2.868-3.759-3.889-6.138l0,0c-1.02-2.55-1.529-5.269-2.719-7.818l0,0c-1.36-2.719-2.379-5.098-3.229-7.987l0,0
				c-1.19-3.229-3.398-5.269-4.929-8.157l0,0c-1.529-2.89-3.06-5.607-5.099-8.157l0,0c-1.529-1.87-2.538-2.028-4.068-4.366l0,0
				C187.913,226.368,185.917,229.05,182.723,230.495"/>
		</defs>
		<clipPath id="SVGID_25_">
			<use xlink:href="#SVGID_24_"  overflow="visible"/>
		</clipPath>
		<g clip-path="url(#SVGID_25_)">
			<g>
				<defs>
					<rect id="SVGID_26_" x="172.652" y="221.318" width="37.066" height="50.039"/>
				</defs>
				<clipPath id="SVGID_27_">
					<use xlink:href="#SVGID_26_"  overflow="visible"/>
				</clipPath>
				<g clip-path="url(#SVGID_27_)">
					<defs>
						<rect id="SVGID_28_" x="172.652" y="221.318" width="37.066" height="50.039"/>
					</defs>
					<clipPath id="SVGID_29_">
						<use xlink:href="#SVGID_28_"  overflow="visible"/>
					</clipPath>
					<g clip-path="url(#SVGID_29_)">
						
							<image overflow="visible" width="78" height="105" xlink:href="1816F903.jpg"  transform="matrix(0.48 0 0 0.48 172.6519 221.3184)">
						</image>
					</g>
				</g>
			</g>
		</g>
	</g>
	<g>
		<defs>
			<path id="SVGID_30_" d="M104.463,55.486c-0.51-1.699-3.739-0.339-4.929,0.34l0,0c-0.654,0.328-1.583,1.52-2.467,2.385l0,0
				c-0.952,0.934-1.851,1.486-2.292,0.164l0,0c0.169,1.359-0.68,2.209-1.87,2.04l0,0c0,0,0-0.34-0.169-0.34l0,0
				c-2.89,0.85-2.21,5.269-4.929,6.968l0,0c0.051-0.005,0.099-0.006,0.145-0.003l0,0c1.614,0.082-0.343,4.459-1.335,5.782l0,0
				c0.68-0.68,1.02-0.34,1.7-0.51l0,0c-0.031,0.125-0.045,0.244-0.047,0.359l0,0c-0.01,0.519,0.218,0.986,0.218,1.679l0,0
				c0.169-0.849,0.849-0.849,1.359-1.359l0,0c0.074-0.042,0.147-0.085,0.222-0.128l0,0c0.594-0.595,2.073-1.231,2.752-0.637l0,0
				v0.085c-0.34,0.51-0.17,1.275,0.085,1.87l0,0c0.509-0.765,1.7-2.889,2.804-1.785l0,0c0.34,0.425-0.085,1.275,0.594,1.785l0,0
				c0.209,0.209,0.48,0.294,0.762,0.338l0,0c0.291,0.045,0.594,0.043,0.853,0.087l0,0c-2.038-1.02,0.085-2.464,1.36-2.719l0,0
				c1.785-0.34,2.633-0.765,4.079,0.595l0,0c0.68,0.679,1.275,1.529,2.039,2.208l0,0c0.85,0.85,0.765,0.766,1.869,0.68l0,0
				c0.596,0,1.445-0.34,1.955,0.17l0,0c0.51,0.425,0.17,1.359,0.765,1.869l0,0c0.935,0.85,1.7,0.68,2.379,1.955l0,0
				c0.086-0.084,0.256-0.17,0.34-0.17l0,0c0-0.85-0.764-1.954-0.34-2.719l0,0c0.256-0.425,1.02-0.425,1.36-0.85l0,0
				c0.085-0.169,0.254-1.02,0.51-1.359l0,0c0.762-1.198,2.718-2.383,3.986-1.151l0,0c0.278,0.269,0.473,0.638,0.687,1.065l0,0
				c0.085-0.398,0.162-0.914,0.221-1.469l0,0c0.074-0.691,0.12-1.441,0.12-2.1l0,0c0-2.533-1.296-4.829-2.371-7.046l0,0
				c-1.29-2.66-3.167-6.175-4.937-7.399l0,0c0-0.17,0.34,0,0.51-0.34l0,0c-0.253-0.063-0.5-0.108-0.742-0.141l0,0
				c-1.065-0.142-2.06-0.029-3.167-0.029l0,0c0.34-0.34,0.68-0.68,1.02-1.02l0,0C107.691,54.637,106.162,55.146,104.463,55.486"/>
		</defs>
		<clipPath id="SVGID_31_">
			<use xlink:href="#SVGID_30_"  overflow="visible"/>
		</clipPath>
		<g clip-path="url(#SVGID_31_)">
			<g>
				<defs>
					<rect id="SVGID_32_" x="86.701" y="54.173" width="32.63" height="25.1"/>
				</defs>
				<clipPath id="SVGID_33_">
					<use xlink:href="#SVGID_32_"  overflow="visible"/>
				</clipPath>
				<g clip-path="url(#SVGID_33_)">
					<defs>
						<rect id="SVGID_34_" x="86.701" y="54.173" width="32.63" height="25.1"/>
					</defs>
					<clipPath id="SVGID_35_">
						<use xlink:href="#SVGID_34_"  overflow="visible"/>
					</clipPath>
					<g clip-path="url(#SVGID_35_)">
						
							<image overflow="visible" width="68" height="53" xlink:href="1816F90C.jpg"  transform="matrix(0.48 0 0 0.48 86.7012 54.1733)">
						</image>
					</g>
				</g>
			</g>
		</g>
	</g>
	<g>
		<defs>
			<rect id="SVGID_36_" x="64.61" y="54.637" width="220.779" height="240.727"/>
		</defs>
		<clipPath id="SVGID_37_">
			<use xlink:href="#SVGID_36_"  overflow="visible"/>
		</clipPath>
		<path clip-path="url(#SVGID_37_)" d="M114.37,75.158c0.47-0.739,0.819-1.499,1.591-1.975c-0.145,0.084-0.289,0.167-0.434,0.25
			c2.394-1.001,2.741,1.077,2.741,2.95c0.001,1.725-0.39,3.768-1.892,4.815c0.137-0.08,0.274-0.159,0.411-0.239
			c-0.434,0.242-0.826,0.348-1.312,0.401c-0.11,0.012-0.529-0.973-0.595-1.105c0.002,0.005-0.447,0.243-0.441,0.255
			c0.187,0.374,0.378,0.746,0.595,1.104c0.083,0.138,1.003-0.231,1.118-0.291c0.215-0.114,0.428-0.237,0.638-0.362
			c1.5-0.902,1.834-2.958,1.915-4.551c0.096-1.915-0.241-4.276-2.735-3.233c-1.002,0.419-1.484,1.361-2.041,2.234
			C114.008,75.287,114.288,75.287,114.37,75.158"/>
		<path clip-path="url(#SVGID_37_)" d="M120.511,82.22c-0.222-0.008-0.443-0.026-0.662-0.053c0.878,4.601,1.31,18.239-15.79,14.71
			l-0.321,0.582c0.054,0.003,0.105,0.011,0.159,0.012c2.125,2.124,7.171,2.095,9.975,0.905c3.087-1.309,5.035-3.377,6.479-6.181
			C121.286,90.412,123.957,85.238,120.511,82.22"/>
		<path clip-path="url(#SVGID_37_)" fill="#C1272D" d="M150.125,116.078c0.85-0.68,2.155-0.088,3.281-0.602
			c2.184-0.994,5.311-2.125,8.837-2.167c1.572-2.591,5.883-4.764,4.399-7.549c-1.21-2.273-1.681-7.279-3.04-9.148
			c-1.02-1.19-2.72-1.87-3.909-3.059c-1.19-1.359-2.14-3.388-3.399-4.842c-6.204-7.159-10.367-3.315-17.334-4.166
			c-3.229-0.509-5.778-1.529-9.177-1.529c-1.772,0-5.676,0.146-6.799-1.432c-0.352,0.296-0.797,0.499-1.286,0.574
			c-0.391,0.059-0.791,0.074-1.188,0.06c3.446,3.019,0.775,8.193-0.159,9.976c-1.445,2.803-3.393,4.872-6.479,6.181
			c-2.804,1.189-7.851,1.219-9.975-0.905c-0.055-0.001-0.106-0.009-0.16-0.012c-1.74-0.085-3.24-0.722-3.78-2.206
			c-0.41-1.127-1.672-1.875-2.087-3.184c-1.19,0.85-2.756,0.804-4.455,0.635c-2.889-0.34-4.78-0.5-7.988,1.87
			c-5.534,4.09-9.602,5.906-12.746,14.105c-1.143,2.981-1.699,5.269-3.399,7.988c-1.529,2.719-4.164,5.438-3.144,8.667
			c0.339,1.359,0.956,2.889,1.466,4.079c0.679,1.87,0.828,1.53,2.867,1.87c2.549,0.509,2.74,0.445,5.991,0.552
			c0.24,0.008,2.336-1.062,2.336-1.062l1.041-1.583c-0.756-0.988,0.659-2.411,0.659-3.261c-0.085-0.935-1.359-1.615-1.529-2.549
			c-0.085-1.19,1.614-2.719,2.294-3.739c0.85-1.36,2.039-2.465,3.144-3.654c1.785-1.785,3.304-1.742,5.439-1.36
			c3.569,1.36,7.307,7.647,8.327,11.557c0.68,2.888,1.019,5.777,1.699,8.667c0.51,3.229,1.87,5.948,2.719,9.007
			c1.19,4.419,1.7,9.347,1.7,13.936c0,1.02-0.339,2.549,0,3.569c0.68,1.7,1.7,1.359,3.059,2.379c1.87,1.7,1.222,2.39,0.881,3.75
			l0.207-0.016c3.696-0.127,8.301,1.195,11.87,2.087c4.588,1.147,8.922,4.206,13.765,4.079c4.461-0.127,9.56-1.657,13.384-3.951
			c2.294-1.402,4.588-2.677,6.627-4.333c1.657-1.274,5.353-2.932,6.119-4.844c0.51-1.146-0.637-2.804,0.255-3.696
			c1.359,0,3.833,0.68,4.27-0.319c-0.85-2.718-2.911-5.586-4.27-7.966C154.681,139.014,151.132,126.907,150.125,116.078"/>
		<path clip-path="url(#SVGID_37_)" fill="#F0D0B4" d="M104.33,97.149c2.124,2.125,6.245,1.912,9.049,0.723
			c3.086-1.31,4.971-3.144,6.416-5.948c0.935-1.785,3.686-6.821,0.223-9.838l0.067,0.06c-1.642-0.466-1.629-5.075-1.225-7.641
			c-0.417-0.834-0.765-1.355-1.785-1.44c-1.189-0.17-2.294,0.68-2.889,1.614c-0.255,0.339-0.424,1.19-0.51,1.359
			c-0.339,0.425-1.104,0.425-1.359,0.85c-0.426,0.765,0.339,1.869,0.339,2.719c-0.084,0-0.254,0.085-0.339,0.17
			c-0.68-1.274-1.445-1.104-2.38-1.954c-0.594-0.51-0.255-1.444-0.765-1.87c-0.51-0.51-1.359-0.17-1.954-0.17
			c-1.105,0.085-1.02,0.17-1.869-0.68c-0.765-0.68-1.36-1.529-2.04-2.209c-1.445-1.36-2.294-0.935-4.079-0.595
			c-1.274,0.255-3.399,1.699-1.36,2.718c-0.51-0.084-1.189,0-1.614-0.424c-0.681-0.51-0.255-1.36-0.595-1.784
			c-1.104-1.105-2.294,1.02-2.804,1.784c-0.255-0.595-0.425-1.36-0.085-1.87v-0.085c-0.68-0.594-2.158,0.042-2.753,0.638
			c0.51,2.549-0.39,5.307,2.669,6.667c0,0.34-0.34,0.51-0.34,0.68c1.189,1.02,1.359,4.079,2.379,5.608
			c1.02,1.36,2.836,2.913,2.704,4.447c0.408,0.658,0.525,0.312,0.865,0.312c0.159,1.699,1.741,2.494,2.209,3.781
			c1.02,2.804,5.459,2.602,8.497,1.317c2.433-0.914,5.099-4.249,5.864-6.203c0.339-1.02,0.594-2.125,0.68-3.144
			c0.085-0.85-0.17-1.955,0.255-2.634"/>
		<path clip-path="url(#SVGID_37_)" fill="#CF9E76" d="M104.109,97.277c3.531,3.285,9.33,1.206,12.667-1.384
			c2.015-1.564,3.285-3.915,4.267-6.223c1.108-2.604,1.438-5.621-0.804-7.711c-0.146,0.085-0.293,0.17-0.441,0.255
			c0.022,0.021,0.045,0.04,0.066,0.06c0.148-0.084,0.295-0.17,0.442-0.255c-1.247-0.477-1.336-2.406-1.419-3.516
			c-0.066-0.88-0.033-1.768,0.027-2.647c0.063-0.941,0.265-1.47-0.312-2.278c-0.71-0.995-2.185-0.709-3.084-0.185
			c-0.404,0.234-0.746,0.487-1.084,0.814c-0.632,0.609-0.588,1.609-1.179,2.14c0.146-0.083,0.29-0.167,0.434-0.25
			c-0.39,0.212-0.792,0.36-1.172,0.586c-1.101,0.656-0.175,2.078-0.08,3.052c0.147-0.085,0.294-0.17,0.442-0.255
			c-0.286,0.09-0.537,0.256-0.782,0.425c0.147-0.085,0.294-0.17,0.442-0.255c-0.598-0.987-1.529-1.254-2.38-1.955
			c-0.91-0.75-0.056-2.119-1.71-2.145c-0.823-0.014-1.72,0.439-2.427-0.135c-1.049-0.853-1.781-2.024-2.792-2.913
			c-1.266-1.113-3.526-0.669-4.88,0.095c-1.093,0.616-2.293,1.617-0.699,2.549c0.147-0.085,0.294-0.17,0.441-0.255
			c-1.063-0.119-1.959-0.239-2.046-1.489c-0.049-0.701-0.537-1.324-1.299-0.902c-0.956,0.531-1.515,1.309-2.11,2.221
			c0.147-0.085,0.295-0.17,0.441-0.255c-0.147-0.396-0.236-0.742-0.275-1.162c-0.031-0.333,0.191-0.493,0.191-0.792
			c0-0.506-1.553-0.076-1.724-0.015c-0.35,0.124-0.677,0.348-0.992,0.536c-0.515,0.31-0.458,0.431-0.382,0.986
			c0.086,0.609,0.099,1.23,0.135,1.844c0.069,1.183,0.256,2.302,1.033,3.237c0.356,0.429,1.461,0.776,1.314,1.26
			c-0.103,0.337-0.406,0.24-0.081,0.559c0.188,0.183,0.313,0.435,0.436,0.66c0.621,1.131,0.814,2.5,1.249,3.708
			c0.479,1.331,1.585,2.273,2.419,3.381c0.415,0.551,0.708,1.148,0.81,1.832c0.097,0.649,0.287,0.717,0.864,0.619
			c-0.427,0.072,1.804,3.043,1.947,3.255c0.703,1.037,0.899,1.827,2.154,2.365c2.135,0.916,5.202,0.268,7.178-0.778
			c1.53-0.811,2.792-1.938,3.901-3.268c0.835-1,1.574-2.129,1.971-3.375c0.278-0.879,0.443-1.787,0.539-2.703
			c0.095-0.905-0.135-1.775,0.255-2.634c-0.056,0.124-0.384,0.127-0.441,0.255c-0.481,1.058-0.2,2.385-0.367,3.525
			c-0.166,1.132-0.498,2.237-1.048,3.24c-1.138,2.076-3.024,4.184-5.24,5.083c-1.863,0.755-4.085,1.063-6.037,0.497
			c-0.805-0.233-1.465-0.736-1.923-1.43c-0.266-0.402-0.393-0.874-0.668-1.279c-0.292-0.429-0.667-0.808-0.991-1.211
			c-0.275-0.343-0.475-0.715-0.641-1.119c-0.26-0.633,0.005-0.606-0.63-0.595c-0.464,0.008-0.435-1.032-0.516-1.315
			c-0.16-0.56-0.559-1.062-0.901-1.518c-0.638-0.848-1.459-1.561-1.952-2.509c-0.502-0.968-0.714-2.098-1.039-3.133
			c-0.132-0.423-1.085-1.918-0.97-2.15c0.145-0.137,0.229-0.305,0.252-0.503c-0.012,0.039-0.875-0.502-0.939-0.547
			c-0.414-0.29-0.712-0.703-0.957-1.135c-0.425-0.749-0.482-1.688-0.54-2.525c-0.035-0.512-0.056-1.024-0.1-1.535
			c-0.057-0.652-0.259-0.87,0.317-1.275c-0.093,0.055-0.186,0.108-0.278,0.163c0.595-0.342,1.244-0.53,1.915-0.336
			c0.382,0.11,0.196,0.296,0.08,0.561c-0.201,0.458,0.073,1.113,0.231,1.536c-0.01-0.024,0.41-0.207,0.441-0.255
			c0.469-0.718,0.917-1.507,1.67-1.964c-0.138,0.079-0.275,0.158-0.413,0.237c0.772-0.297,1.225,0.158,1.267,0.918
			c0.071,1.251,0.997,1.372,2.047,1.489c0.096,0.011,0.372-0.295,0.441-0.255c-0.71-0.416-1.093-0.905-0.563-1.646
			c0.548-0.765,1.673-0.856,2.515-1.03c2.332-0.482,3.313,1.195,4.766,2.715c0.461,0.481,0.897,1.041,1.604,1.027
			c0.857-0.017,1.777-0.391,2.538,0.123c0.31,0.209,0.324,0.729,0.375,1.053c0.076,0.484,0.299,0.741,0.667,1.044
			c0.779,0.642,1.545,0.804,2.103,1.727c0.002,0.005,0.401-0.227,0.442-0.255c0.057-0.039,0.113-0.078,0.17-0.117
			c-0.147,0.085-0.294,0.169-0.442,0.255c0.057-0.018,0.114-0.036,0.17-0.053c0.052-0.016,0.445-0.221,0.442-0.255
			c-0.088-0.898-1.022-2.395,0.02-3.015c-0.137,0.079-0.274,0.158-0.412,0.236c0.41-0.175,0.799-0.361,1.18-0.59
			c0.306-0.184,0.329-0.5,0.422-0.816c0.269-0.909,0.904-1.565,1.701-2.057c-0.145,0.083-0.29,0.166-0.434,0.249
			c1.08-0.49,2.25-0.431,2.971,0.581c0.557,0.779,0.127,2.099,0.092,3.024c-0.05,1.389-0.209,4.549,1.444,5.181
			c0.071,0.027,0.398-0.294,0.442-0.255c-0.022-0.02-0.045-0.04-0.067-0.06c-0.041-0.038-0.407,0.287-0.441,0.255
			c3.442,3.212,0.875,8.51-1.349,11.696c-2.708,3.876-9.885,6.846-13.897,3.113C104.511,96.986,104.143,97.309,104.109,97.277"/>
		<path clip-path="url(#SVGID_37_)" fill="#ECC19C" d="M79.102,130.625c1.36,0,5.137-1.213,5.137-1.213
			c-0.34-2.209,6.118-5.268,0.339-5.098c2.889-4.079-3.229-1.359-4.758-1.189c0.68-1.699,6.676-2.442,4.467-4.312
			c0,0-0.27-0.235-1.713-0.15c-0.223,0.286-0.541,0.694-0.733,1.001c-0.68,1.021-2.379,2.55-2.295,3.739
			c0.17,0.935,1.445,1.614,1.53,2.549c0,0.85-1.415,2.273-0.659,3.26L79.102,130.625z"/>
		<path clip-path="url(#SVGID_37_)" fill="#611417" d="M127.32,106.385c0.531-1.336,4.801,2.825,5.056,5.629
			c0.085,1.274-2.921,5.465-4.602,3.927c1.36,0.51,3.869-2.717,3.784-3.991C131.303,109.146,128.85,108.339,127.32,106.385"/>
		<path clip-path="url(#SVGID_37_)" fill="#78685A" d="M118.143,75.705c-0.096-0.844-0.605-1.243-0.988-1.147
			c-0.764,0.425-1.4,1.434-1.731,1.917c0.085-0.936,1.02-1.87,1.785-2.294C117.601,74.181,118.366,74.446,118.143,75.705"/>
		<path clip-path="url(#SVGID_37_)" fill="#78685A" d="M116.019,78.684c-0.51-0.297,0.17-1.61-1.02-1.444
			c0.935,0.255,0.34,0.934,0,1.529C115.339,78.854,115.679,78.854,116.019,78.684"/>
		<path clip-path="url(#SVGID_37_)" fill="#CF9E76" d="M116.813,75.577c-0.032,0.174-0.274,0.372-0.104,0.542
			c0,0.28,0.031,0.53,0,0.86c-0.044,0.471-0.123,0.917-0.351,1.195c0.399-0.249,0.536-0.705,0.579-1.175
			c0.031-0.331,0.122-0.679,0.122-0.96C117.06,75.816,116.982,75.577,116.813,75.577"/>
	</g>
	<g>
		<defs>
			<path id="SVGID_38_" d="M194.735,267.465c0.031,0.604,0.166,1.285,0.478,2.106l0,0c0.052,1.005,0.547,2.167,0.377,2.847l0,0
				c0.482,0.839,0.994,0.747,1.604,0.656l0,0c0.441-0.066,0.933-0.135,1.503,0.151l0,0c2.04,0.68,4.832,3.826,6.204,5.566l0,0
				c1.598,2.025,2.504,4.29,3.205,6.021l0,0c0.623,1.536,1.084,2.653,1.723,2.814l0,0c0.964,0.864,2.475,1.468,4.08,1.874l0,0
				c2.539,0.644,5.311,0.797,6.52,0.719l0,0c1.977-0.128,2.486-2.93,2.486-2.93l0,0c-0.339-2.55-1.529-6.967-3.398-9.517l0,0
				c-1.284-2.055-3.245-3.525-4.861-5.294l0,0c-0.522-0.573-1.011-1.179-1.427-1.844l0,0c-1.189-2.21-1.87-2.06-3.399-4.1l0,0
				c-0.169-0.085,0.106,0.786-0.084,1.381l0,0c-0.511,1.02-0.426,1.868-1.446,2.633l0,0c-0.595,0.426-1.613,0.51-2.208,1.021l0,0
				c-0.766,0.679-0.34,1.529-1.615,1.444l0,0c-0.437-0.063-1.054-0.398-1.588-0.64l0,0c-0.925-0.42-1.98-0.389-2.915-0.805l0,0
				c-2.719-1.189-3.601-4.439-4.831-7l0,0C194.949,265.542,194.678,266.381,194.735,267.465"/>
		</defs>
		<clipPath id="SVGID_39_">
			<use xlink:href="#SVGID_38_"  overflow="visible"/>
		</clipPath>
		<g clip-path="url(#SVGID_39_)">
			<g>
				<defs>
					<rect id="SVGID_40_" x="194.805" y="264.483" width="28.194" height="25.677"/>
				</defs>
				<clipPath id="SVGID_41_">
					<use xlink:href="#SVGID_40_"  overflow="visible"/>
				</clipPath>
				<g clip-path="url(#SVGID_41_)">
					<defs>
						<rect id="SVGID_42_" x="194.805" y="264.483" width="28.194" height="25.677"/>
					</defs>
					<clipPath id="SVGID_43_">
						<use xlink:href="#SVGID_42_"  overflow="visible"/>
					</clipPath>
					<g clip-path="url(#SVGID_43_)">
						
							<image overflow="visible" width="59" height="54" xlink:href="1816F90F.jpg"  transform="matrix(0.48 0 0 0.48 194.8047 264.4834)">
						</image>
					</g>
				</g>
			</g>
		</g>
	</g>
	<g>
		<defs>
			<rect id="SVGID_44_" x="64.61" y="54.637" width="220.779" height="240.727"/>
		</defs>
		<clipPath id="SVGID_45_">
			<use xlink:href="#SVGID_44_"  overflow="visible"/>
		</clipPath>
		<g opacity="0.15" clip-path="url(#SVGID_45_)">
			<g>
				<defs>
					<rect id="SVGID_46_" x="69.122" y="263.371" width="34.101" height="31.695"/>
				</defs>
				<clipPath id="SVGID_47_">
					<use xlink:href="#SVGID_46_"  overflow="visible"/>
				</clipPath>
				<path clip-path="url(#SVGID_47_)" fill="#CCCCFF" d="M102.968,279.22c0,8.609-7.52,15.591-16.796,15.591
					s-16.796-6.981-16.796-15.591c0-8.611,7.52-15.593,16.796-15.593S102.968,270.608,102.968,279.22"/>
				<ellipse clip-path="url(#SVGID_47_)" fill="none" stroke="#333340" cx="86.172" cy="279.22" rx="16.796" ry="15.591"/>
			</g>
		</g>
		<path clip-path="url(#SVGID_45_)" fill="#7A7A7A" d="M120.479,205.569c2.316,1.339,9.347,2.485,10.792-7.754
			C121.648,201.395,120.479,205.569,120.479,205.569"/>
		<path clip-path="url(#SVGID_45_)" fill="#F0D0B4" d="M131.016,112.62c0.17,0.34-0.408,1.963-1.673,2.549
			c-1.07,0.496-2.702-0.202-3.467,0.308c-0.85,0.51-0.68,2.04-1.274,2.549c-0.425,0.34-1.445,0-1.7,0.34
			c-0.255,0.425,0.34,1.19,0.254,1.444c-0.424,0.935-3.398,0.085-4.078-0.254c-1.444-0.85-1.444-2.464-1.444-3.909
			c0-1.614-0.595-2.379-1.53-3.569c-1.104-1.274-1.529-1.359-1.274-3.229c1.615,0.255,2.125,0.34,3.229-0.935
			c0.85-1.019,1.105-2.294,2.379-2.549c1.275-0.255,2.719,0.255,3.994,0.085C124.431,105.45,132.354,109.561,131.016,112.62"/>
		<path clip-path="url(#SVGID_45_)" d="M130.961,112.651c0.27,1.041-1.029,2.298-1.868,2.593c-1.018,0.359-2.206-0.34-3.179,0.209
			c-0.273,0.154-0.446,0.383-0.598,0.658c-0.263,0.476-0.313,1.073-0.512,1.578c-0.311,0.791-1.16,0.251-1.698,0.537
			c-0.093,0.049-0.173,0.108-0.261,0.17c-0.311,0.221,0.243,1.158,0.255,1.444c0.022,0.52-1.445,0.337-1.694,0.308
			c-1-0.117-2.083-0.388-2.843-1.069c-1.146-1.026-0.782-2.923-0.933-4.27c-0.154-1.376-1.243-2.519-2.128-3.493
			c-0.329-0.362-0.557-0.714-0.661-1.194c-0.063-0.292-0.024-0.613-0.004-0.904c0.031-0.476,0.908-0.202,1.163-0.186
			c1.385,0.093,2.265-1.281,2.882-2.303c1.028-1.702,2.573-1.404,4.31-1.24c0.916,0.086,1.163-0.033,1.915,0.395
			c1.687,0.964,3.337,2.081,4.686,3.487C130.617,110.232,131.425,111.428,130.961,112.651c0.011-0.03,0.099-0.032,0.111-0.063
			c0.654-1.728-1.111-3.325-2.284-4.323c-1.25-1.064-2.666-1.955-4.104-2.74c-0.254-0.14-0.192-0.106-0.584-0.074
			c-0.797,0.066-1.629-0.119-2.422-0.179c-0.644-0.048-1.294,0.007-1.858,0.335c-0.663,0.385-1.012,1.141-1.401,1.767
			c-0.915,1.473-1.932,1.695-3.533,1.444c-0.01-0.001-0.109,0.056-0.11,0.064c-0.09,0.769-0.139,1.451,0.301,2.117
			c0.539,0.816,1.301,1.477,1.846,2.302c1.13,1.714,0.203,3.871,1.314,5.588c0.74,1.144,2.859,1.441,4.088,1.363
			c0.355-0.022,0.693-0.177,0.887-0.473c0.348-0.528-1.077-1.485,0.277-1.55c0.405-0.02,0.74,0.012,1.098-0.193
			c0.709-0.407,0.626-1.796,1.136-2.428c0.522-0.644,2.227-0.195,2.934-0.24c0.359-0.022,0.664-0.175,0.966-0.35
			c0.682-0.394,1.674-1.558,1.449-2.429C131.074,112.598,130.958,112.64,130.961,112.651"/>
		<path clip-path="url(#SVGID_45_)" fill="#A3A3A3" d="M142.53,173.088c2.974,0.935,8.076,1.085,3.57-1.285
			C144.995,171.748,142.53,173.088,142.53,173.088"/>
		<path clip-path="url(#SVGID_45_)" fill="#DFB28B" d="M97.367,88.243c-0.378,0.7,0.763,1.179,0.415,2.04
			c1.277,0.676,3.104-1.847,3.269-3.034C100.136,87.119,98.896,88.126,97.367,88.243"/>
		<path clip-path="url(#SVGID_45_)" fill="#CF9E76" d="M101.701,77.975c0.882,0,2.06-0.004,2.906,0.224
			c0.407,0.11,1.779,1.552,1.812,0.227C106.451,77.169,102.146,77.218,101.701,77.975"/>
		<path clip-path="url(#SVGID_45_)" fill="#AF927A" d="M97.24,79.066c-1.542,1.107,2.649,3.464,3.954,3.19
			c1.425-0.3,4.665-1.325,5.617-2.424c-0.857-0.862-3.867-0.357-5.114-0.889c-1.874-0.8-2.852-0.311-4.713,0.124"/>
		<path clip-path="url(#SVGID_45_)" fill="#9B7759" d="M94.776,79.688c0.813,0.447,0.828,0.611,0.983,1.771
			c0.149,1.116-0.443,1.69-1.485,1.211c-0.983-0.452-0.937-1.229-1.638-2.075c0,0,0.666-0.86-0.96-1.697
			C90.051,78.061,94.776,79.688,94.776,79.688"/>
		<path clip-path="url(#SVGID_45_)" fill="#ECC19C" d="M104.76,86.204c1.331-0.585,2.389-0.867,3.345-2.135
			c0.641-0.849,1.337-2.869,2.365-3.202c0.394,1.017,0.286,7.706,2.556,5.35c-0.43,1.524-0.442,3.131-1.797,4.295
			c-1.356,1.163-2.701,0.719-3.677,2.574c0.75,0.982,0.649,1.483-0.336,2.33c-0.801,0.691-1.634,1.176-2.612,1.141
			c-2.233-0.083-4.054-1.218-4.286-3.451c1.29,0.063,1.749-0.224,2.912-0.657c0.867-0.321,2.264-0.499,3.102,0.016
			c-0.74,0.687-2.516,0.935-2.726,2.145c-0.11,0.634,0.333,1.334,0.998,1.255c0.74-0.089,1.703-0.985,1.898-1.419
			c0.507-1.124,0.285-2.281,1.275-3.08c1.05-0.848,1.41-1.724,2.221-2.868c-0.64-0.573-2.018,0.12-2.976-0.479
			C106.3,87.568,105.281,86.769,104.76,86.204"/>
		<path clip-path="url(#SVGID_45_)" fill="#CF9E76" d="M113.346,92.671c0.703,1.335,0.509,3.274,0.737,4.737
			c1.687-0.523,1.228-3.325,1.504-4.709c0.194-0.977,0.128-1.671,0.131-2.673c0.002-0.737-0.243-1.77-0.118-2.501
			c-0.278,1.188-0.467,1.904-0.832,2.924C114.463,91.3,113.547,92.189,113.346,92.671"/>
		<path clip-path="url(#SVGID_45_)" fill="#CF9E76" d="M109.922,95.912c0.72,0.462,1.324,1.536,1.962,2.316
			c-1.283,0.226-2.675,0.508-3.938,0.382c-1.003-0.101-2.712-0.41-3.313-1.41C107.033,97.102,108.68,96.465,109.922,95.912"/>
		<path clip-path="url(#SVGID_45_)" fill="#9B7759" d="M115.211,81.553c0.072,0.355,0.181,1.042,0.147,1.445
			c1.023,0.299,0.969-0.955,0.916-1.68C115.973,81.468,115.35,81.539,115.211,81.553"/>
		<path clip-path="url(#SVGID_45_)" fill="#CF9E76" d="M110.958,78.939c0,0,1.307,1.354,1.833,0.637
			c0.548-0.749,0.354,2.472-1.146,1.911c-1.066-0.397-0.459-1.582-0.765-2.548"/>
		<path clip-path="url(#SVGID_45_)" fill="#CF9E76" d="M118.491,79.31c0.162,0.978,1.039,3.281,1.683,3.241
			c0.644-0.041,2.838,3.866,0,7.605c-0.288-2.761-1.605-7.903-2.031-10.112L118.491,79.31z"/>
		<path clip-path="url(#SVGID_45_)" fill="#CF9E76" d="M126.078,115.042c0.605-1.08,2.337-3.519,3.728-4.219
			c1.39-0.701,1.752,2.275,0.159,3.518C128.372,115.583,127.83,114.404,126.078,115.042"/>
		<path clip-path="url(#SVGID_45_)" fill="#A3A3A3" d="M167.002,191.613c-10.112,3.016-21.541,0.084-26.937-5.947
			C146.438,191.019,156.55,192.038,167.002,191.613"/>
		<path clip-path="url(#SVGID_45_)" fill="#A3A3A3" d="M130.94,176.286c-3.401-0.684-7.249-2.498-10.46-4.483
			C123.878,173.258,127.677,175.106,130.94,176.286"/>
	</g>
	<g>
		<defs>
			<path id="SVGID_48_" d="M83.226,264.258c-0.171,2.641,2.297,6.587,5.732,10.216l0,0c0.449,0.472,0.912,0.938,1.39,1.397l0,0
				c3.453,3.318,7.575,6.164,10.958,7.172l0,0c0.354,0.105,0.7,0.191,1.037,0.255l0,0l0.367-1.694
				c0.089-0.409,0.178-0.817,0.266-1.226l0,0c-2.652-0.694-6.452-3.432-9.697-6.705l0,0c-0.394-0.398-0.779-0.803-1.154-1.213l0,0
				c-2.568-2.815-4.609-5.876-5.14-8.316l0,0c-0.015-0.066-0.271-0.091-0.642-0.091l0,0
				C85.27,264.053,83.226,264.258,83.226,264.258"/>
		</defs>
		<clipPath id="SVGID_49_">
			<use xlink:href="#SVGID_48_"  overflow="visible"/>
		</clipPath>
		<g clip-path="url(#SVGID_49_)">
			<g>
				<defs>
					<rect id="SVGID_50_" x="83.231" y="263.965" width="19.828" height="19.246"/>
				</defs>
				<clipPath id="SVGID_51_">
					<use xlink:href="#SVGID_50_"  overflow="visible"/>
				</clipPath>
				<g clip-path="url(#SVGID_51_)">
					<defs>
						<rect id="SVGID_52_" x="83.231" y="263.965" width="19.828" height="19.246"/>
					</defs>
					<clipPath id="SVGID_53_">
						<use xlink:href="#SVGID_52_"  overflow="visible"/>
					</clipPath>
					<g clip-path="url(#SVGID_53_)">
						
							<image overflow="visible" width="42" height="41" xlink:href="1816F90D.jpg"  transform="matrix(0.48 0 0 0.48 83.231 263.9648)">
						</image>
					</g>
				</g>
			</g>
		</g>
	</g>
	<g>
		<defs>
			<rect id="SVGID_54_" x="64.61" y="54.637" width="220.779" height="240.727"/>
		</defs>
		<clipPath id="SVGID_55_">
			<use xlink:href="#SVGID_54_"  overflow="visible"/>
		</clipPath>
		<path clip-path="url(#SVGID_55_)" fill="#9999FF" d="M88.084,263.809c2.026,4.918,8.712,11.568,14.533,14.676l-0.059,0.935
			c-6.21-3.074-13.661-10.498-15.394-15.635L88.084,263.809z"/>
		<path clip-path="url(#SVGID_55_)" fill="#9999FF" d="M71.512,284.426c0.942,2.685,4.326,6.429,7.348,8.254l-0.059,0.497
			c-3.23-1.818-7-5.997-7.78-8.791L71.512,284.426z"/>
	</g>
	<g>
		<defs>
			<path id="SVGID_56_" d="M73.749,268.911c-0.315,0.262-0.532,0.593-0.455,0.939l0,0c0.479,2.153,3.862,7.361,8.025,12.202l0,0
				c0.44,0.514,0.89,1.021,1.345,1.521l0,0c3.994,4.385,8.465,8.143,11.714,8.54l0,0c0,0,0.656-0.252,1.26-0.684l0,0
				c0.447-0.319,0.866-0.737,0.964-1.223l0,0c-0.337-0.043-0.685-0.12-1.042-0.229l0,0c-3.648-1.107-8.345-5.482-12.328-10.104l0,0
				c-0.339-0.394-0.672-0.789-1-1.184l0,0c-3.444-4.153-6.196-8.295-6.989-10.256l0,0c-0.025-0.061-0.102-0.09-0.211-0.09l0,0
				C74.723,268.346,74.155,268.571,73.749,268.911"/>
		</defs>
		<clipPath id="SVGID_57_">
			<use xlink:href="#SVGID_56_"  overflow="visible"/>
		</clipPath>
		<g clip-path="url(#SVGID_57_)">
			<g>
				<defs>
					<rect id="SVGID_58_" x="73.299" y="268.259" width="23.386" height="23.768"/>
				</defs>
				<clipPath id="SVGID_59_">
					<use xlink:href="#SVGID_58_"  overflow="visible"/>
				</clipPath>
				<g clip-path="url(#SVGID_59_)">
					<defs>
						<rect id="SVGID_60_" x="73.299" y="268.259" width="23.386" height="23.768"/>
					</defs>
					<clipPath id="SVGID_61_">
						<use xlink:href="#SVGID_60_"  overflow="visible"/>
					</clipPath>
					<g clip-path="url(#SVGID_61_)">
						
							<image overflow="visible" width="49" height="50" xlink:href="1816F902.jpg"  transform="matrix(0.48 0 0 0.48 73.2993 268.2588)">
						</image>
					</g>
				</g>
			</g>
		</g>
	</g>
	<g>
		<defs>
			<path id="SVGID_62_" d="M70.686,284.487c1.099,1.199,2.198,2.396,3.296,3.594l0,0l1.003,1.095
				c1.074,1.17,2.147,2.341,3.221,3.512l0,0c1.372,0.894,2.704,1.248,3.707,1.378l0,0c1.045,0.135,1.731,0.024,1.731,0.024l0,0
				c-0.266-0.141-0.548-0.314-0.842-0.515l0,0c-2.333-1.598-5.482-5.029-8.102-8.29l0,0c-0.725-0.902-1.41-1.792-2.026-2.627l0,0
				c-1.545-2.093-2.656-3.836-2.881-4.558l0,0C68.987,279.658,70.686,284.487,70.686,284.487"/>
		</defs>
		<clipPath id="SVGID_63_">
			<use xlink:href="#SVGID_62_"  overflow="visible"/>
		</clipPath>
		<g clip-path="url(#SVGID_63_)">
			<g>
				<defs>
					<rect id="SVGID_64_" x="69.473" y="278.014" width="14.254" height="16.035"/>
				</defs>
				<clipPath id="SVGID_65_">
					<use xlink:href="#SVGID_64_"  overflow="visible"/>
				</clipPath>
				<g clip-path="url(#SVGID_65_)">
					<defs>
						<rect id="SVGID_66_" x="69.473" y="278.014" width="14.254" height="16.035"/>
					</defs>
					<clipPath id="SVGID_67_">
						<use xlink:href="#SVGID_66_"  overflow="visible"/>
					</clipPath>
					<g clip-path="url(#SVGID_67_)">
						
							<image overflow="visible" width="30" height="34" xlink:href="1816F906.jpg"  transform="matrix(0.48 0 0 0.48 69.4727 278.0137)">
						</image>
					</g>
				</g>
			</g>
		</g>
	</g>
	<g>
		<defs>
			<rect id="SVGID_68_" x="64.61" y="54.637" width="220.779" height="240.727"/>
		</defs>
		<clipPath id="SVGID_69_">
			<use xlink:href="#SVGID_68_"  overflow="visible"/>
		</clipPath>
		<path clip-path="url(#SVGID_69_)" fill="#CF9E76" d="M80.097,122.02c0.622-1.411,2.984-1.959,4.317-2.603
			c0.983,0.437-1.344,1.594-1.828,1.775C82.129,121.361,80.129,122.582,80.097,122.02"/>
		<path clip-path="url(#SVGID_69_)" fill="#CF9E76" d="M81.18,126.035c1.209-0.096,0.373-2.433,1.967-2.411
			c-0.153,0.324-0.34,0.596-0.423,0.959c-0.094,0.406,0.059,0.935-0.079,1.324C82.39,126.629,80.761,126.527,81.18,126.035"/>
		<path clip-path="url(#SVGID_69_)" fill="#CF9E76" d="M80.224,124.187c0.729-0.349,4.121-2.377,4.525-1.147
			c0.328,0.999-1.357,1.094-1.914,1.146c-0.652,0.062-2.017,0.659-2.601,0.304C80.248,124.406,80.184,124.236,80.224,124.187"/>
		<path clip-path="url(#SVGID_69_)" fill="#CF9E76" d="M80.407,129.532c0.804-0.156,1.63-0.625,2.3-1.124
			c0.173-0.128,0.675-0.777,0.827-0.783c0.402-0.017,0.401,0.702,0.261,0.96c-0.296,0.544-1.27,0.92-1.786,1.125
			c-0.673,0.265-1.374,0.431-2.028,0.714C79.986,130.115,80.168,129.71,80.407,129.532"/>
		<path clip-path="url(#SVGID_69_)" fill="#CF9E76" d="M84.239,126.736c0.699-0.329,1.487-1.371,2.221-1.456
			c-0.011,0.569-1.679,2.311-2.21,2.018C84.192,127.121,84.184,126.854,84.239,126.736"/>
		<path clip-path="url(#SVGID_69_)" fill="#321908" d="M94.521,79.449c0.106,1.037-2.082-0.578-2.762-0.833l-0.084,0.085
			c0,0.17,0.084,0.17,0.17,0.255c-0.332-0.041-0.332-0.333-0.332-0.502l0.205-0.194C92.396,78.514,93.926,79.619,94.521,79.449"/>
		<path clip-path="url(#SVGID_69_)" fill="#321908" d="M104.038,77.579c-1.529-0.85-5.991,2.767-6.458,1.275
			C99.024,78.429,102.508,76.729,104.038,77.579"/>
		<path clip-path="url(#SVGID_69_)" fill="#F3D4D5" d="M98.896,93.915c-2.613,1.785-7.732,3.463-10.452,4.861
			c1.944,1.862,9.159-1.674,17.471,1.062C98.939,97.25,98.896,93.915,98.896,93.915"/>
		<path clip-path="url(#SVGID_69_)" fill="#F3D4D5" d="M121.138,82.278c1.402,1.632,2.677,4.327,0,9.926c0,0,3.59-7.019,6.862-8.421
			C129.678,83.4,121.138,82.278,121.138,82.278"/>
		<path clip-path="url(#SVGID_69_)" fill="#816850" d="M130.142,194.173c0.363,0.584,1.458,1.405,0.798,3.16l0.169,0.483
			c0,0,1.656-1.41-0.444-3.736C128.668,191.867,130.142,194.173,130.142,194.173"/>
		<path clip-path="url(#SVGID_69_)" fill="#7E5629" d="M94.726,69.076c0,0-0.823-1.462-0.663-2.683
			C93.75,67.48,94.179,68.947,94.726,69.076"/>
		<path clip-path="url(#SVGID_69_)" fill="#7E5629" d="M93.076,68.342c0,0-0.823-1.463-0.663-2.683
			C92.101,66.746,92.529,68.213,93.076,68.342"/>
		<path clip-path="url(#SVGID_69_)" fill="#7E5629" d="M94.769,66.883c0,0-0.557-1.227-0.223-1.977
			C94.088,65.52,94.273,66.622,94.769,66.883"/>
		<path clip-path="url(#SVGID_69_)" fill="#7E5629" d="M96.024,69.331c0,0-0.557-1.227-0.224-1.977
			C95.345,67.968,95.528,69.069,96.024,69.331"/>
		<path clip-path="url(#SVGID_69_)" fill="#7E5629" d="M98.918,68.342c0,0-0.557-1.227-0.224-1.977
			C98.238,66.979,98.422,68.081,98.918,68.342"/>
		<path clip-path="url(#SVGID_69_)" fill="#7E5629" d="M96.904,66.393c0,0-0.556-1.227-0.224-1.977
			C96.224,65.031,96.408,66.132,96.904,66.393"/>
		<path clip-path="url(#SVGID_69_)" fill="#7E5629" d="M99.161,65.02c0,0-0.557-1.226-0.223-1.977
			C98.481,63.657,98.665,64.759,99.161,65.02"/>
		<path clip-path="url(#SVGID_69_)" fill="#7E5629" d="M91.336,70.318c0,0-0.557-1.227-0.224-1.977
			C90.656,68.956,90.84,70.058,91.336,70.318"/>
		<path clip-path="url(#SVGID_69_)" fill="#7E5629" d="M91.093,66.647c0,0-0.557-1.227-0.224-1.976
			C90.414,65.285,90.597,66.386,91.093,66.647"/>
		<path clip-path="url(#SVGID_69_)" fill="#7E5629" d="M93.801,64.417c0,0-0.557-1.227-0.223-1.977
			C93.122,63.054,93.306,64.156,93.801,64.417"/>
		<path clip-path="url(#SVGID_69_)" fill="#7E5629" d="M96.904,63.043c0,0-0.556-1.227-0.224-1.977
			C96.224,61.68,96.408,62.782,96.904,63.043"/>
		<path clip-path="url(#SVGID_69_)" fill="#7E5629" d="M93.593,71.573c0,0-0.557-1.226-0.224-1.977
			C92.914,70.21,93.097,71.313,93.593,71.573"/>
		<path clip-path="url(#SVGID_69_)" fill="#7E5629" d="M89.798,71.903c0,0,0.129-1.341,0.792-1.825
			C89.889,70.383,89.499,71.43,89.798,71.903"/>
		<path clip-path="url(#SVGID_69_)" fill="#7E5629" d="M89.352,69.254c0,0,0.129-1.341,0.792-1.825
			C89.441,67.734,89.052,68.781,89.352,69.254"/>
		<path clip-path="url(#SVGID_69_)" fill="#7E5629" d="M94.604,70.763c0,0,1.749,0.877,2.412,0.393
			C96.585,71.831,95.205,71.521,94.604,70.763"/>
		<path clip-path="url(#SVGID_69_)" fill="#7E5629" d="M98.851,69.214c0,0,1.749,0.876,2.411,0.393
			C100.831,70.281,99.451,69.972,98.851,69.214"/>
		<path clip-path="url(#SVGID_69_)" fill="#7E5629" d="M96.374,69.214c0,0,1.75,0.876,2.412,0.393
			C98.354,70.281,96.974,69.972,96.374,69.214"/>
		<path clip-path="url(#SVGID_69_)" fill="#7E5629" d="M99.369,67.734c0,0,1.749,0.876,2.412,0.393
			C101.35,68.801,99.969,68.493,99.369,67.734"/>
		<path clip-path="url(#SVGID_69_)" fill="#7E5629" d="M100.432,63.649c0,0,1.749,0.876,2.411,0.392
			C102.412,64.716,101.031,64.407,100.432,63.649"/>
		<path clip-path="url(#SVGID_69_)" fill="#7E5629" d="M100.254,64.442c0,0,0.52,1.885,1.322,2.054
			C100.786,66.626,100.092,65.395,100.254,64.442"/>
		<path clip-path="url(#SVGID_69_)" fill="#7E5629" d="M102.194,64.862c0,0,0.52,1.886,1.322,2.054
			C102.726,67.047,102.032,65.815,102.194,64.862"/>
		<path clip-path="url(#SVGID_69_)" fill="#7E5629" d="M98.969,60.376c0,0,0.52,1.886,1.323,2.053
			C99.501,62.561,98.808,61.329,98.969,60.376"/>
		<path clip-path="url(#SVGID_69_)" fill="#7E5629" d="M102.481,69.046c0,0,0.52,1.886,1.323,2.054
			C103.014,71.231,102.32,70,102.481,69.046"/>
		<path clip-path="url(#SVGID_69_)" fill="#7E5629" d="M101.202,57.941c0,0-1.197,1.547-0.85,2.291
			C99.774,59.679,100.342,58.384,101.202,57.941"/>
		<path clip-path="url(#SVGID_69_)" fill="#7E5629" d="M103.476,56.796c0,0-1.197,1.547-0.85,2.291
			C102.047,58.533,102.616,57.239,103.476,56.796"/>
		<path clip-path="url(#SVGID_69_)" fill="#7E5629" d="M106.458,56.796c0,0-1.197,1.547-0.85,2.291
			C105.029,58.533,105.598,57.239,106.458,56.796"/>
		<path clip-path="url(#SVGID_69_)" fill="#7E5629" d="M104.81,58.775c0,0-1.197,1.548-0.85,2.291
			C103.381,60.513,103.949,59.218,104.81,58.775"/>
		<path clip-path="url(#SVGID_69_)" fill="#7E5629" d="M109.343,57.152c0,0-1.197,1.547-0.85,2.291
			C107.915,58.89,108.482,57.595,109.343,57.152"/>
		<path clip-path="url(#SVGID_69_)" fill="#7E5629" d="M106.766,58.737c0,0-0.039,1.956,0.685,2.345
			C106.655,60.983,106.34,59.605,106.766,58.737"/>
		<path clip-path="url(#SVGID_69_)" fill="#7E5629" d="M101.611,60.235c0,0-0.039,1.956,0.684,2.345
			C101.5,62.48,101.185,61.103,101.611,60.235"/>
		<path clip-path="url(#SVGID_69_)" fill="#7E5629" d="M104.386,61.87c0,0-0.039,1.956,0.684,2.346
			C104.275,64.117,103.959,62.739,104.386,61.87"/>
		<path clip-path="url(#SVGID_69_)" fill="#CCCCCC" d="M120.437,226.026c-0.05,0.121-0.384,0.396-0.53,0.574
			c-0.334,0.4-0.899,0.862-1.428,0.79c-0.809-0.111-2.234-1.214-2.864-1.724c-0.992-0.801-1.734-1.449-2.89-1.956
			c-2.197-0.965-4.519-1.157-6.689-2.21c0.129-0.313,3.982-0.436,4.684-0.509c1.275-0.135,2.659-0.551,4.111-1.529
			c1.047-0.708,3.467-1.717,4.007-2.5c0.732-1.061-1.904-0.233-1.066-1.438c0.596-0.858,1.251-0.835,1.472-1.925
			c0.82-0.095,0.538,0.525,0.733,1.179c0.353,1.18,0.232,2.595,0.292,3.855c0.061,1.27,0.085,2.595,0.085,3.908
			C120.352,223.314,121.122,225.588,120.437,226.026"/>
		<path clip-path="url(#SVGID_69_)" fill="#A3A3A3" d="M130.188,186.706c-6.186-0.659-10.218-8.859-16.124-9.561
			C121.584,177.146,127.192,186.388,130.188,186.706"/>
		<path clip-path="url(#SVGID_69_)" fill="#A3A3A3" d="M138.111,191.613c-3.074-5.83-20.396-17.684-18.779-16.911
			C121.287,175.637,133.183,182.265,138.111,191.613"/>
		<path clip-path="url(#SVGID_69_)" fill="#A3A3A3" d="M163.688,184.141c-10.281,1.099-14.09-4.075-27.191-5.021
			C144.739,179.716,149.413,186.859,163.688,184.141"/>
		<path clip-path="url(#SVGID_69_)" fill="#A3A3A3" d="M168.107,175.128c-1.569,2.463-13.688,0.625-14.786-2.04
			C157.571,174.108,166.263,173.816,168.107,175.128"/>
		<path clip-path="url(#SVGID_69_)" fill="#A3A3A3" d="M150.092,169.179c3.229,1.756,16.823,3.909,17.25,1.657
			C163.646,171.346,152.875,169.753,150.092,169.179"/>
		<path clip-path="url(#SVGID_69_)" fill="#7A7A7A" d="M150.963,204.167c-5.226-2.307-9.685-3.443-12.555-10.579
			C140.448,197.815,149.599,202.256,150.963,204.167"/>
		<path clip-path="url(#SVGID_69_)" fill="#A3A3A3" d="M135.414,193.588c-0.542-1.975-7.871-5.607-9.495-7.583
			C128.669,188.299,134.84,188.936,135.414,193.588"/>
		<path clip-path="url(#SVGID_69_)" fill="#A3A3A3" d="M135.414,185.666c13.822,8.146,16.378,17.927,33.944,15.582
			C155.251,200.567,142.36,188.044,135.414,185.666"/>
		<path clip-path="url(#SVGID_69_)" fill="#911D22" d="M108.371,163.996c-2.082,0.383,17.129,5.553,18.524,6.495
			C119.757,165.346,111.6,164.591,108.371,163.996"/>
		<path clip-path="url(#SVGID_69_)" fill="#C1272D" d="M121.217,227.944c-5.672,5.034-15.996,3.887-17.526,2.613l-0.27-1.918
			c1.53,1.274,11.854,2.422,17.525-2.613L121.217,227.944z"/>
		<path clip-path="url(#SVGID_69_)" fill="#C1272D" d="M119.322,238.915c-4.344,2.683-11.534,2.396-12.851,2.27l-0.437-1.987
			c1.317,0.128,9.177,0.509,13.468-2.507L119.322,238.915z"/>
		<path clip-path="url(#SVGID_69_)" fill="#C1272D" d="M185.17,247.694c2.231,0.8,9.878,2.201,12.555-7.294l-0.939-1.311
			c-2.677,9.496-10.324,8.095-12.555,7.294L185.17,247.694z"/>
		<path clip-path="url(#SVGID_69_)" fill="#611417" d="M190.667,252.793c2.209,0.041,8.046-1.17,9.575-5.544l0.398,0.748
			c0,0-0.754,5.475-8.699,5.942C191.383,253.97,190.667,252.793,190.667,252.793"/>
		<path clip-path="url(#SVGID_69_)" fill="#A3A3A3" d="M153.321,166.948c-1.325-0.057,9.914,2.139,10.367,2.549
			C161.329,167.359,154.787,167.012,153.321,166.948"/>
		<path clip-path="url(#SVGID_69_)" fill="#A3A3A3" d="M136.497,174.667c-2.793-0.817,7.226,0.562,6.585,0.757
			C139.896,176.401,137.347,174.915,136.497,174.667"/>
		<path clip-path="url(#SVGID_69_)" fill="#A3A3A3" d="M155.743,165.44c-1.928,0.585,2.708,1.19,6.798,0.256
			C159.397,166.036,156.848,165.526,155.743,165.44"/>
		<path clip-path="url(#SVGID_69_)" fill="#911D22" d="M132.503,107.319c-1.997-0.18,3.037,5.444,9.432,8.327
			C139.726,114.373,134.288,108.934,132.503,107.319"/>
		<path clip-path="url(#SVGID_69_)" fill="#911D22" d="M128,84.887c-13.553,19.331-1.105,22.857-37.451,23.452
			C129.02,105.292,112.535,103.582,128,84.887"/>
		<path clip-path="url(#SVGID_69_)" fill="#911D22" d="M114.757,99.332c-8.298,6.118-14.629,7.053-19.046,6.118
			C98.324,105.195,109.778,102.519,114.757,99.332"/>
		<path clip-path="url(#SVGID_69_)" fill="#911D22" d="M111.451,102.837c2.486-1.02,5.757-2.167,7.881-5.544
			C119.333,97.293,118.844,102.901,111.451,102.837"/>
		<path clip-path="url(#SVGID_69_)" fill="#911D22" d="M138.622,86.332c-5.216,0.765-5.093,4.56-5.312,7.265
			C132.864,90.92,132.524,86.077,138.622,86.332"/>
		<path clip-path="url(#SVGID_69_)" fill="#911D22" d="M142.87,112.014c-1.516,0.596,8.222,4.801,21.795-5.629
			C164.665,106.385,149.307,112.588,142.87,112.014"/>
		<path clip-path="url(#SVGID_69_)" fill="#611417" d="M150.432,115.222c16.995-2.719,13.933-5.641,15.423-7.308
			C165.855,107.915,159.397,112.673,150.432,115.222"/>
		<path clip-path="url(#SVGID_69_)" fill="#911D22" d="M148.223,96.613c-4.015,1.859-5.14,7.839-8.348,4.949
			C145.292,101.881,144.272,97.081,148.223,96.613"/>
		<path clip-path="url(#SVGID_69_)" fill="#911D22" d="M132.376,117.771c1.958-0.39-1.402-9.857,7.011-0.355
			C139.387,117.416,135.103,118.366,132.376,117.771"/>
		<path clip-path="url(#SVGID_69_)" fill="#911D22" d="M147.649,114.627c-3.855,0.192-6.882-0.542-9.027-3.696
			C140.958,112.333,143.934,114.308,147.649,114.627"/>
		<path clip-path="url(#SVGID_69_)" fill="#911D22" d="M92.842,116.041c0.213-0.288,2.805-0.203,6.5,2.155
			C97.529,117.717,94.351,117.006,92.842,116.041"/>
		<path clip-path="url(#SVGID_69_)" fill="#911D22" d="M82.066,110.041c-0.231,0.135-1.989-0.694-3.832-3.417
			C79.34,107.493,81.316,108.928,82.066,110.041"/>
		<path clip-path="url(#SVGID_69_)" fill="#911D22" d="M94.226,118.428c0.199-0.216,2.308,0.083,5.117,2.337
			C97.905,120.213,95.372,119.351,94.226,118.428"/>
		<path clip-path="url(#SVGID_69_)" fill="#911D22" d="M111.09,161.362c20.395,10.111,28.041-5.353,29.57-9.432
			C136.922,153.969,125.917,168.84,111.09,161.362"/>
		<path clip-path="url(#SVGID_69_)" fill="#611417" d="M143.379,117.771c4.036,0.424,6.204,7.265,9.262,14.53
			C152.642,132.302,145.674,119.811,143.379,117.771"/>
		<path clip-path="url(#SVGID_69_)" fill="#911D22" d="M150.092,143.093c0.511,2.889,2.041,11.164,2.041,16.824
			c0,2.549,6.318-4.673,5.693-6.542C157.122,151.273,150.178,143.263,150.092,143.093"/>
		<path clip-path="url(#SVGID_69_)" fill="#911D22" d="M145.674,125.037c2.336,13.043,14.306,27.313,14.445,30.632
			c0.51,0.467,2.889,1.742,3.909,0.425C163.775,154.198,147.971,127.942,145.674,125.037"/>
		<path clip-path="url(#SVGID_69_)" fill="#911D22" d="M143.112,163.316c-1.901,1.417-3.103,9.408-10.778,7.902
			C138.111,171.219,140.295,164.167,143.112,163.316"/>
		<path clip-path="url(#SVGID_69_)" fill="#911D22" d="M145.674,135.658c0,7.435,1.147,40.096-18.779,30.522
			C146.438,166.948,142.105,135.704,145.674,135.658"/>
		<path clip-path="url(#SVGID_69_)" fill="#911D22" d="M148.01,140.459c-0.093,3.811,6.331,23.537-5.48,28.72
			C150.603,160.937,146.354,144.41,148.01,140.459"/>
		<path clip-path="url(#SVGID_69_)" fill="#911D22" d="M164.347,99.778c-0.381,1.403-0.064,3.123-7.202,4.716
			c0,0,6.205,0.544,7.903-1.083C165.934,102.561,164.347,99.778,164.347,99.778"/>
		<path clip-path="url(#SVGID_69_)" fill="#911D22" d="M96.785,121.829c-2.48-2.361,5.681,3.633,7.976,12.044
			c0,0-2.741-4.843-5.098-5.353C99.662,128.52,97.604,122.61,96.785,121.829"/>
		<path clip-path="url(#SVGID_69_)" fill="#911D22" d="M114.757,141.202c-4.419-3.229-7.438-5.898-9.997-9.687
			C107.628,133.746,110.989,137.124,114.757,141.202"/>
		<path clip-path="url(#SVGID_69_)" fill="#911D22" d="M107.309,138.972c3.378,8.922,13.95,11.037,15.869,12.803
			C121.839,148.914,112.662,147.639,107.309,138.972"/>
		<path clip-path="url(#SVGID_69_)" fill="#911D22" d="M101.828,113.905c-17.982,2.677-12.731-3.098-17.674-6.589
			C91.037,110.61,86.023,113.198,101.828,113.905"/>
		<path clip-path="url(#SVGID_69_)" d="M102.848,217.953c0.573,1.7,5.693,8.073,16.314-1.274
			C107.777,224.624,104.08,219.187,102.848,217.953"/>
		<path clip-path="url(#SVGID_69_)" d="M103.068,219.227c0.574,1.701,5.693,8.072,16.314-1.273
			C107.486,226.628,104.3,220.46,103.068,219.227"/>
		<path clip-path="url(#SVGID_69_)" fill="#611417" d="M119.63,285.678c2.571,0,9.007,0.807,10.706-5.736
			c0,0,0.723,3.823,0.978,4.29c0,0-0.255,0.724-0.935,0.809c0,0-3.696-1.188-4.503,2.676c0,0-0.977,0.723-1.316,0.723
			C124.559,288.438,118.015,285.678,119.63,285.678"/>
		<path clip-path="url(#SVGID_69_)" fill="#611417" d="M120.947,281.151c1.083-1.656,3.377-3.695,4.397-3.823l-0.51-0.577
			c0,0-3.76,2.362-3.888,3.7C120.82,281.789,120.947,281.151,120.947,281.151"/>
		<path clip-path="url(#SVGID_69_)" fill="#611417" d="M214.81,284.392c1.084-1.657,3.377-3.697,4.396-3.824l-0.51-0.577
			c0,0-3.76,2.361-3.887,3.7S214.81,284.392,214.81,284.392"/>
		<path clip-path="url(#SVGID_69_)" fill="#611417" d="M213.159,282.851c1.249-1.91,3.893-4.263,5.068-4.409l-0.588-0.666
			c0,0-4.334,2.724-4.48,4.266C213.013,283.585,213.159,282.851,213.159,282.851"/>
		<path clip-path="url(#SVGID_69_)" fill="#611417" d="M211.685,281.216c1.248-1.91,3.893-4.262,5.068-4.408l-0.588-0.666
			c0,0-4.335,2.724-4.48,4.267C211.537,281.951,211.685,281.216,211.685,281.216"/>
		<path clip-path="url(#SVGID_69_)" fill="#611417" d="M209.684,279.063c1.248-1.91,3.894-4.263,5.068-4.409l-0.587-0.665
			c0,0-4.335,2.723-4.481,4.265C209.536,279.798,209.684,279.063,209.684,279.063"/>
		<path clip-path="url(#SVGID_69_)" fill="#611417" d="M119.736,279.503c1.156-1.768,3.602-3.942,4.69-4.079l-0.543-0.616
			c0,0-4.01,2.52-4.146,3.947C119.601,280.184,119.736,279.503,119.736,279.503"/>
		<path clip-path="url(#SVGID_69_)" fill="#611417" d="M118.348,277.922c1.27-1.941,3.957-4.331,5.152-4.48l-0.596-0.677
			c0,0-4.407,2.768-4.556,4.336C118.198,278.668,118.348,277.922,118.348,277.922"/>
		<path clip-path="url(#SVGID_69_)" fill="#611417" d="M117.678,275.255c1.27-1.942,3.956-4.331,5.151-4.48l-0.597-0.677
			c0,0-4.406,2.769-4.555,4.335C117.529,276.001,117.678,275.255,117.678,275.255"/>
		<path clip-path="url(#SVGID_69_)" fill="#B3B3B3" d="M174.862,233.228c1.148,0.063,8.795-0.446,10.77-3.187
			C185.271,234.014,191.029,242.362,174.862,233.228"/>
		<path clip-path="url(#SVGID_69_)" fill="#611417" d="M119.374,268.343c-1.591,15.848-4.97,4.422-1.093-0.765v0.808
			c-2.507,3.354-1.03,12.745,0.797,0L119.374,268.343z"/>
		<path clip-path="url(#SVGID_69_)" fill="#611417" d="M209.451,273.3c-1.592,15.847-4.97,4.423-1.094-0.766v0.809
			c-2.506,3.354-1.03,12.745,0.798,0L209.451,273.3z"/>
		<path clip-path="url(#SVGID_69_)" fill="#611417" d="M120.132,268.69c8.06,3.176,3.376-1.303-0.098-0.719l0.391,0.2
			c2.246-0.377,6.42,2.676-0.198,0.386L120.132,268.69z"/>
		<path clip-path="url(#SVGID_69_)" fill="#611417" d="M210.918,272.346c8.06,3.178,3.377-1.302-0.098-0.719l0.391,0.202
			c2.247-0.378,6.421,2.675-0.198,0.385L210.918,272.346z"/>
		<path clip-path="url(#SVGID_69_)" fill="#911D22" d="M118.366,119.854c-4.947,0.751-12.204,7.738-17.111,3.951
			c3.187,0.831,11.057-5.035,16.028-5.608C117.282,118.196,117.792,119.375,118.366,119.854"/>
		<path clip-path="url(#SVGID_69_)" fill="#911D22" d="M76.507,125.418c-0.169,3.749-5.459,6.448-7.562,1.444
			C73.437,129.891,75.147,127.543,76.507,125.418"/>
		<path clip-path="url(#SVGID_69_)" fill="#911D22" d="M102.024,116.026c2.906,0.542,5.252,0.831,7.086,1.049
			C107.474,116.357,104.658,115.97,102.024,116.026"/>
		<path clip-path="url(#SVGID_69_)" fill="#911D22" d="M117.793,106.856c2.051-2.827,3.575-5.177,4.76-7.019
			C121.033,101.238,119.167,104.042,117.793,106.856"/>
		<path clip-path="url(#SVGID_69_)" fill="#911D22" d="M122.064,105.049c1.003-4.072,1.664-7.381,2.174-9.967
			C123.264,97.32,122.431,101.286,122.064,105.049"/>
		<path clip-path="url(#SVGID_69_)" fill="#911D22" d="M95.116,93.596c-3.314,1.317-4.758,1.487-5.948,4.631
			C91.026,96.465,91.887,95.317,95.116,93.596"/>
		<path clip-path="url(#SVGID_69_)" fill="#911D22" d="M81.244,110.421c-1.912,0-4.499-0.398-6.373-1.402
			c0,0,1.083,1.447,2.485,1.934c-2.74,1.444-1.466,5.522-2.868,7.691c0,0-2.103,0.507-2.995,0.571
			c-0.893,0.064,2.549,0.255,2.676,1.02c0.127,0.765-5.139,5.353-2.825,6.883c2.314,1.529,5.603-1.952,10.721-8.922
			c4.212-5.735,6.124-4.142,6.124-4.27c0,0-3.059-2.835-3.792-4.748c0,0,0.446,3.569,0.956,4.207
			C85.864,114.022,81.021,117.432,81.244,110.421"/>
		<path clip-path="url(#SVGID_69_)" fill="#911D22" d="M83.047,106.767c-0.848,0.691-2.917-2.52-2.896-2.463
			c0.503,1.354,1.459,3.36,2.516,3.78C83.219,108.424,83.047,106.767,83.047,106.767"/>
		<path clip-path="url(#SVGID_69_)" fill="#611417" d="M69.199,130.272c3.441,0.648,8.409-0.798,10.069-2.799
			C79.268,127.474,80.84,134.213,69.199,130.272"/>
		<path clip-path="url(#SVGID_69_)" fill="#DFB28B" d="M119.502,185.197c0.425,10.451-4.745,18.97-8.277,30.378
			c0,0,2.172,2.634,6.329-2.466c-2.725-12.914,11.902-12.95,3.713-27.443"/>
		<path clip-path="url(#SVGID_69_)" fill="#FFFFFF" d="M100.14,80.75c0.318,0.197,0.105-1.195,3.665,0
			C101.63,80.535,99.693,81.488,100.14,80.75"/>
		<path clip-path="url(#SVGID_69_)" fill="#FFFFFF" d="M93.388,81.091c0.114,0.12,0.007-0.994,1.392,0.092
			C94.155,81.403,93.278,81.743,93.388,81.091"/>
		<path clip-path="url(#SVGID_69_)" fill="#CF9E76" d="M118.059,116.582c0.104-1.604-0.203-3.547,0.307-5.077
			c0.425-1.19,2.156-1.976,2.242-3.165c-0.085,1.189-1.615,2.125-2.04,3.314C118.059,113.183,118.398,115.052,118.059,116.582"/>
		<path clip-path="url(#SVGID_69_)" fill="#CF9E76" d="M120.267,118.196c-0.427-0.584-0.372-3.462,0.008-4.333
			c0.728-1.675,1.789-3.314,2.876-4.366c-0.764,1.53-1.97,2.624-2.395,4.238c-0.17,0.935-0.043,3.499-0.149,4.635"/>
		<path clip-path="url(#SVGID_69_)" fill="#CF9E76" d="M126.603,109.954c-0.748,0-2.875,2.413-3.3,3.603
			c-0.17,0.595,0.086,1.529,0,2.208c-0.084,0.426-0.339,0.85-0.339,1.275c0-0.425,0.496-0.825,0.581-1.25
			c0.085-0.68-0.085-1.502,0.085-2.098C124.054,112.503,125.753,110.719,126.603,109.954"/>
		<path clip-path="url(#SVGID_69_)" fill="#CF9E76" d="M115.891,111.481c0.807,0.427,1.189,0.683,2.167,0.385
			c0,0-0.123,0.882-0.043,0.988C118.016,112.854,116.478,113.233,115.891,111.481"/>
		<path clip-path="url(#SVGID_69_)" fill="#806042" d="M99.407,91.832c2.278,1.139,3.441-0.71,4.971-0.625
			c-1.328-0.531-4.292,0.224-5.481-0.457C98.896,90.75,99.26,91.758,99.407,91.832"/>
		<path clip-path="url(#SVGID_69_)" fill="#A67C52" d="M100.749,87.215c-0.41,0.319-1.765-0.494-2.131,0.683
			c-1.203,0.345-2.558,0.152-2.836-0.404c-0.425-0.68,0.155-3.01,0.07-3.945c-0.085-0.935,0.17-2.592-0.34-3.356
			c0.429,0.769,0.113,2.527,0.199,3.461c0.084,0.935-0.453,3.192-0.029,3.872c0.278,0.556,1.75,0.781,2.952,0.436
			C99.146,87.443,100.55,87.591,100.749,87.215"/>
		<path clip-path="url(#SVGID_69_)" fill="#DFB28B" d="M103.868,199.005c0.628,1.314,1.464,2.604,1.545,4.031
			c0.139,2.426,1.264,3.089,1.155,4.715c-1.004-1.102-1.1-3.218-1.615-4.564C104.354,201.619,102.886,200.884,103.868,199.005"/>
		<path clip-path="url(#SVGID_69_)" fill="#DFB28B" d="M116.188,201.215c-0.592,0.255-1.186,0.99-1.721,1.423
			c-0.619,0.5-1.333,0.791-1.954,1.276c-0.774,0.604-0.701,1.139-0.825,2.059c-0.109,0.82-0.766,1.511-0.84,2.282
			c1.476,0.299,2.133-2.419,2.644-3.278C114.127,203.91,116.157,202.458,116.188,201.215"/>
		<path clip-path="url(#SVGID_69_)" fill="#DFB28B" d="M103.613,205.548c0.123,1.228,0.803,2.198,1.124,3.38
			c0.331,1.22,0.046,2.651-0.292,3.832c-0.479-0.386-0.146-1.17-0.151-1.688c-0.007-0.654-0.191-1.271-0.337-1.873
			C103.726,208.261,103.655,207.183,103.613,205.548"/>
	</g>
	<g>
		<defs>
			<path id="SVGID_70_" d="M123.392,191.934c0.455,1.151-0.338,2.424-0.595,3.653l0,0c-0.477,2.28-1.501,4.297-3.146,6.116l0,0
				c-0.832,0.92-1.194,1.711-1.613,2.807l0,0c-0.403,1.057-1.101,2.039-1.343,3.159l0,0c-0.257,1.191-0.442,2.728-0.085,3.915l0,0
				c0.415,1.375,1.266,2.108,1.362,0.168l0,0c0.108-2.186,0.568-5.088,1.848-6.886l0,0c1.381-1.938,3.106-3.483,5.117-4.777l0,0
				c1.022-0.659,2.072-1.31,3.146-1.849l0,0c1.001-0.503,2.577-0.615,2.823-1.85l0,0c0.362-1.817-2.466-3.973-3.762-5.101l0,0
				c-0.774-0.671-2.367-2.052-3.055-2.907l0,0c-0.417-0.417-1.865-2.52-2.365-2.52l0,0
				C121.322,185.863,121.534,187.228,123.392,191.934"/>
		</defs>
		<clipPath id="SVGID_71_">
			<use xlink:href="#SVGID_70_"  overflow="visible"/>
		</clipPath>
		<g clip-path="url(#SVGID_71_)">
			<g>
				<defs>
					<rect id="SVGID_72_" x="116.74" y="185.34" width="15.006" height="27.819"/>
				</defs>
				<clipPath id="SVGID_73_">
					<use xlink:href="#SVGID_72_"  overflow="visible"/>
				</clipPath>
				
					<linearGradient id="SVGID_74_" gradientUnits="userSpaceOnUse" x1="0" y1="0" x2="1" y2="0" gradientTransform="matrix(14.5271 0 0 -14.5271 116.8906 198.875)">
					<stop  offset="0" style="stop-color:#DFB28B"/>
					<stop  offset="0.3983" style="stop-color:#C19B79"/>
					<stop  offset="0.755" style="stop-color:#AE8B6C"/>
					<stop  offset="1" style="stop-color:#A78668"/>
				</linearGradient>
				<rect x="116.74" y="185.34" clip-path="url(#SVGID_73_)" fill="url(#SVGID_74_)" width="15.002" height="27.818"/>
			</g>
		</g>
	</g>
	<g>
		<defs>
			<rect id="SVGID_75_" x="64.61" y="54.637" width="220.779" height="240.727"/>
		</defs>
		<clipPath id="SVGID_76_">
			<use xlink:href="#SVGID_75_"  overflow="visible"/>
		</clipPath>
		<path clip-path="url(#SVGID_76_)" fill="#816850" d="M112.96,181.31c1.933,0.315,3.898,0.951,5.438,2.357
			c1.687,1.542,4.249,3.569,5.778,5.015c0.032,0.03,6.772,6.414,6.764,5.959c-0.455-1.775-8.208-8.296-10.189-9.966
			c-0.874-0.738-3.386-2.732-4.371-3.277c-0.691-0.383-2.897-0.888-3.42-0.236"/>
		<path clip-path="url(#SVGID_76_)" fill="#CCCCCC" d="M116.274,241.747c0.59,1.234,0.426,3.032,0.575,4.353
			c0.082,0.722,0.297,1.47,0.34,2.189c0.052,0.849-0.201,0.989-0.909,1.426c0.829,0.142,1.804-0.604,2.085,0.561
			c0.199,0.82-0.475,1.229-1.098,1.721c-1.262,0.995-3.467,1.537-4.861,2.326c0.677,0.133,1.9-0.05,2.454-0.287
			c0.483-0.207,0.809-0.513,1.328-0.563c0.609-0.057,1.36,0.085,0.958,0.873c-0.274,0.536-1.146,0.537-1.458,1.083
			c0.802,0.327,2.598-1.168,3.38,0.137c0.661,1.103-1.718,1.765-2.018,2.48c0.657,0.098,1.204-0.45,1.837-0.134
			c0.508,0.253,0.572,0.898,0.85,1.357c0.327,0.538,0.824,0.803,1.23,1.252c0.441,0.49,0.589,1.045,0.845,1.604
			c0.899-0.056-0.383-2.592-0.524-3.13c-0.309-1.177-0.752-2.263-1.189-3.394c-0.98-2.536-0.614-5.523-1.11-8.157
			c-0.314-1.665-0.363-3.594-0.25-5.358c0.038-0.59,0.706-2.443-0.466-1.911C117.59,240.48,116.072,240.938,116.274,241.747"/>
		<path clip-path="url(#SVGID_76_)" fill="#CCCCCC" d="M120.374,229.595c-0.751-0.06-2.808,2.421-3.105,2.933
			c-0.455,0.779-1.338,1.24-2.185,1.529c-1.759,0.6-3.755,1.051-5.451,1.571c0.723,0.612,3.408-0.332,4.254-0.513
			c0.964-0.207,2.37-0.613,3.381-0.262c0.785,0.271,0.924,2.794,1.915,1.306c0.692-1.038,1.076-2.592,1.19-3.728
			C120.415,232.021,120.947,230.169,120.374,229.595"/>
		<path clip-path="url(#SVGID_76_)" fill="#611417" d="M113.554,271.687c1.939-1.32,4.419-5.596,7.69-6.232
			c3.271-0.638-6.585-0.681-7.095,0C113.64,266.133,112.45,272.441,113.554,271.687"/>
		<path clip-path="url(#SVGID_76_)" fill="#911D22" d="M124.941,105.195c0.17,0.085,0.34,0.361,0.424,0.616
			c1.53-0.425,2.125-1.189,3.824-1.104c1.359,0.084,2.719,0.594,4.078,0.424c1.615-0.169,4.461-1.424,5.354-2.655
			c-1.19,1.104-3.739,2.124-5.354,2.294c-1.359,0.169-2.719-0.34-4.078-0.426c-1.699-0.084-2.294,0.68-3.824,1.105
			C125.281,105.195,125.111,105.281,124.941,105.195"/>
		<path clip-path="url(#SVGID_76_)" fill="#611417" d="M149.657,116.221c-0.935-0.34-3.474,0.802-4.408,1.142
			c-1.274,0.509-2.209,0.765-3.569,0.765c-3.314,0.085-6.458,0.765-9.687,0.765c-1.36,0-3.314,0.424-4.589,0.085
			c-0.68-0.17-1.699-1.333-1.699-1.716c0.339,0.34,1.02,1.189,1.699,1.359c1.275,0.34,3.229-0.084,4.589-0.084
			c3.229,0,6.373-0.681,9.687-0.765c1.36,0,2.294-0.255,3.569-0.765C146.184,116.667,149.211,115.647,149.657,116.221"/>
		<path clip-path="url(#SVGID_76_)" fill="#611417" d="M135.88,103.878c0,0,3.123-1.296,2.358-1.402
			c-1.672-0.233-3.441-3.356-3.526-4.546c-0.212,1.545,0.489,4.698,1.168,5.842"/>
		<path clip-path="url(#SVGID_76_)" fill="#611417" d="M134.33,97.676c-0.935-0.269-0.977-2.89,0-5.21
			C134.203,93.894,133.939,95.904,134.33,97.676"/>
		<path clip-path="url(#SVGID_76_)" fill="#611417" d="M135.414,97.407c1.103-0.528,2.518-5.436,6.883-6.359
			C137.453,91.749,135.859,95.445,135.414,97.407"/>
		<path clip-path="url(#SVGID_76_)" fill="#603813" d="M101.609,80.636c0,0.215-0.218,0.389-0.487,0.389
			c-0.27,0-0.488-0.174-0.488-0.389s0.218-0.389,0.488-0.389C101.391,80.247,101.609,80.421,101.609,80.636"/>
		<path clip-path="url(#SVGID_76_)" d="M101.396,80.636c0,0.121-0.123,0.219-0.275,0.219c-0.15,0-0.274-0.099-0.274-0.219
			c0-0.121,0.124-0.219,0.274-0.219C101.273,80.417,101.396,80.515,101.396,80.636"/>
		<path clip-path="url(#SVGID_76_)" fill="#816850" d="M102.083,189.063c-0.446,0.892-2.167,2.899,0.67,4.748
			C101.924,191.771,102.115,191.262,102.083,189.063"/>
		<g opacity="0.15" clip-path="url(#SVGID_76_)">
			<g>
				<defs>
					<rect id="SVGID_77_" x="103.714" y="89.705" width="19.255" height="20.482"/>
				</defs>
				<clipPath id="SVGID_78_">
					<use xlink:href="#SVGID_77_"  overflow="visible"/>
				</clipPath>
				<path clip-path="url(#SVGID_78_)" d="M103.739,97.459c-0.219,1.256,1.092,2.9,1.828,3.827c1.15,1.449,1.891,3.931,2.692,5.57
					c0.581,1.188,0.965,2.739,2.321,3.183c1.778,0.581,2.979-0.644,4.211-1.791c1.128-1.05,1.055-2.4,2.184-3.478
					c1.349-1.288,0.18-2.298,0.361-4.121c0.164-1.639,1.7-2.984,1.7-4.737c0-1.398,4.122-4.413,3.928-5.757
					c-0.284-1.967-1.933,3.112-4.098,3.76c-1.076,0.322-4.303-3.55-4.887-2.657c-0.862,1.315-1.61,2.75-2.765,3.829
					c-1.543,1.441-3.322,1.738-5.468,2.025C104.939,97.219,104.114,97.004,103.739,97.459"/>
			</g>
		</g>
		<path clip-path="url(#SVGID_76_)" fill="#FFFFFF" d="M117.931,277.688c0,0.423-0.144,0.766-0.32,0.766
			c-0.177,0-0.319-0.343-0.319-0.766c0-0.421,0.143-0.764,0.319-0.764C117.788,276.925,117.931,277.268,117.931,277.688"/>
		<path clip-path="url(#SVGID_76_)" fill="#FFFFFF" d="M119.185,279.664c0,0.422-0.144,0.766-0.32,0.766
			c-0.177,0-0.319-0.344-0.319-0.766c0-0.423,0.143-0.765,0.319-0.765C119.042,278.899,119.185,279.241,119.185,279.664"/>
		<path clip-path="url(#SVGID_76_)" fill="#FFFFFF" d="M120.354,281.304c0,0.422-0.144,0.765-0.32,0.765
			c-0.176,0-0.318-0.343-0.318-0.765c0-0.423,0.143-0.766,0.318-0.766C120.21,280.538,120.354,280.881,120.354,281.304"/>
		<path clip-path="url(#SVGID_76_)" fill="#FFFFFF" d="M125.983,276.751c0,0.422-0.144,0.765-0.32,0.765
			c-0.177,0-0.319-0.343-0.319-0.765s0.142-0.766,0.319-0.766C125.839,275.985,125.983,276.329,125.983,276.751"/>
		<path clip-path="url(#SVGID_76_)" fill="#CCCCCC" d="M214.505,284.19c0,0.422-0.143,0.765-0.319,0.765s-0.319-0.343-0.319-0.765
			s0.143-0.765,0.319-0.765S214.505,283.769,214.505,284.19"/>
		<path clip-path="url(#SVGID_76_)" fill="#CCCCCC" d="M219.525,279.99c0,0.422-0.142,0.764-0.319,0.764
			c-0.176,0-0.318-0.342-0.318-0.764c0-0.423,0.143-0.765,0.318-0.765C219.384,279.226,219.525,279.567,219.525,279.99"/>
		<path clip-path="url(#SVGID_76_)" fill="#CCCCCC" d="M218.357,277.775c0,0.423-0.142,0.766-0.319,0.766
			c-0.176,0-0.318-0.343-0.318-0.766s0.143-0.765,0.318-0.765C218.216,277.011,218.357,277.353,218.357,277.775"/>
		<path clip-path="url(#SVGID_76_)" fill="#CCCCCC" d="M217.072,276.246c0,0.422-0.143,0.765-0.32,0.765
			c-0.176,0-0.318-0.343-0.318-0.765s0.143-0.765,0.318-0.765C216.93,275.481,217.072,275.824,217.072,276.246"/>
		<path clip-path="url(#SVGID_76_)" fill="#CCCCCC" d="M215.072,273.989c0,0.421-0.143,0.765-0.32,0.765
			c-0.176,0-0.318-0.344-0.318-0.765c0-0.423,0.143-0.766,0.318-0.766C214.93,273.224,215.072,273.566,215.072,273.989"/>
		<path clip-path="url(#SVGID_76_)" fill="#CCCCCC" d="M213.093,282.47c0,0.422-0.143,0.765-0.318,0.765
			c-0.178,0-0.319-0.343-0.319-0.765s0.142-0.766,0.319-0.766C212.95,281.704,213.093,282.048,213.093,282.47"/>
		<path clip-path="url(#SVGID_76_)" fill="#CCCCCC" d="M211.619,280.625c0,0.422-0.144,0.766-0.319,0.766
			c-0.177,0-0.319-0.344-0.319-0.766s0.143-0.765,0.319-0.765C211.476,279.86,211.619,280.203,211.619,280.625"/>
		<path clip-path="url(#SVGID_76_)" fill="#CCCCCC" d="M209.619,278.541c0,0.421-0.144,0.764-0.321,0.764
			c-0.176,0-0.318-0.343-0.318-0.764c0-0.423,0.143-0.766,0.318-0.766C209.476,277.775,209.619,278.118,209.619,278.541"/>
		<path clip-path="url(#SVGID_76_)" fill="#FFFFFF" d="M125.065,274.808c0,0.423-0.144,0.766-0.32,0.766s-0.319-0.343-0.319-0.766
			c0-0.421,0.143-0.764,0.319-0.764S125.065,274.387,125.065,274.808"/>
		<path clip-path="url(#SVGID_76_)" fill="#FFFFFF" d="M123.819,272.909c0,0.424-0.143,0.766-0.32,0.766s-0.319-0.342-0.319-0.766
			c0-0.421,0.143-0.764,0.319-0.764S123.819,272.488,123.819,272.909"/>
		<path clip-path="url(#SVGID_76_)" fill="#FFFFFF" d="M101.446,80.461c0,0.068-0.074,0.124-0.166,0.124s-0.166-0.055-0.166-0.124
			c0-0.069,0.074-0.125,0.166-0.125S101.446,80.393,101.446,80.461"/>
		<path clip-path="url(#SVGID_76_)" fill="#603813" d="M94.414,81.062c0,0.215-0.218,0.389-0.488,0.389
			c-0.269,0-0.487-0.174-0.487-0.389c0-0.214,0.218-0.389,0.487-0.389C94.195,80.672,94.414,80.848,94.414,81.062"/>
		<path clip-path="url(#SVGID_76_)" d="M94.201,81.062c0,0.122-0.124,0.22-0.275,0.22s-0.274-0.098-0.274-0.22
			c0-0.12,0.124-0.218,0.274-0.218S94.201,80.941,94.201,81.062"/>
		<path clip-path="url(#SVGID_76_)" fill="#FFFFFF" d="M94.25,80.887c0,0.068-0.075,0.125-0.166,0.125
			c-0.092,0-0.166-0.056-0.166-0.125s0.074-0.124,0.166-0.124C94.175,80.764,94.25,80.819,94.25,80.887"/>
		<path clip-path="url(#SVGID_76_)" fill="#806042" d="M99.874,80.897c0.66-0.561,0.35-1.002,1.707-1.179
			c1.172-0.153,2.065,0.826,2.929,1.264l-0.122-0.066C104.383,80.915,101.382,79.816,99.874,80.897"/>
		<path clip-path="url(#SVGID_76_)" fill="#806042" d="M93.076,79.789c0.157,0.266,0.196,0.702,0.196,0.871
			c1.083-0.467,1.594,0.36,1.888,0.319c-0.294,0.042-1.126-0.456-1.992,0.033C93.169,80.842,93.161,80.129,93.076,79.789"/>
	</g>
</g>
</svg>
