<?xml version="1.0" encoding="utf-8"?>
<!-- Generator: Adobe Illustrator 16.0.0, SVG Export Plug-In . SVG Version: 6.00 Build 0)  -->
<!DOCTYPE svg PUBLIC "-//W3C//DTD SVG 1.1//EN" "http://www.w3.org/Graphics/SVG/1.1/DTD/svg11.dtd">
<svg version="1.1" id="Capa_1" xmlns="http://www.w3.org/2000/svg" xmlns:xlink="http://www.w3.org/1999/xlink" x="0px" y="0px"
	 width="350px" height="350px" viewBox="0 0 350 350" enable-background="new 0 0 350 350" xml:space="preserve">
<g>
	<path fill="#D2D5D7" d="M174.997,176.683c-3.165,0-6.265-0.279-9.309-0.717v118.368c0,5.12,4.189,9.31,9.309,9.31
		s9.309-4.189,9.309-9.31V175.966C181.262,176.403,178.166,176.683,174.997,176.683z"/>
	<path fill="#FBD490" d="M239.447,102.374c-4.458-31.646-31.57-56.017-64.45-56.017c-32.879,0-59.988,24.371-64.446,56.017
		c-8.201,0.829-14.681,7.717-14.681,16.128c0,8.959,7.331,16.291,16.291,16.291h2.029c9.379,24.478,33.028,41.891,60.807,41.891
		s51.433-17.413,60.807-41.891h2.029c8.96,0,16.291-7.331,16.291-16.291C254.124,110.095,247.645,103.202,239.447,102.374z"/>
	<path fill="#EEAF4B" d="M128.452,139.446h-16.291c-11.548,0-20.945-9.397-20.945-20.945c0-11.548,9.397-20.945,20.945-20.945
		h11.636c2.574,0,4.654,2.081,4.654,4.654c0,2.574-2.081,4.654-4.654,4.654h-11.636c-6.419,0-11.636,5.218-11.636,11.637
		s5.217,11.636,11.636,11.636h16.291c2.574,0,4.655,2.081,4.655,4.654C133.106,137.366,131.026,139.446,128.452,139.446z"/>
	<path fill="#EEAF4B" d="M237.833,139.446h-20.945c-2.574,0-4.655-2.08-4.655-4.654c0-2.574,2.081-4.654,4.655-4.654h20.945
		c6.418,0,11.636-5.218,11.636-11.636s-5.218-11.637-11.636-11.637h-6.981c-2.574,0-4.655-2.08-4.655-4.654
		c0-2.574,2.081-4.654,4.655-4.654h6.981c11.548,0,20.945,9.397,20.945,20.945C258.778,130.049,249.386,139.446,237.833,139.446z"/>
	<polygon fill="#ED3F32" points="184.306,269.772 165.688,279.082 165.688,269.772 184.306,260.463 	"/>
	<polygon fill="#FFFFFF" points="184.306,260.463 165.688,269.772 165.688,260.463 184.306,251.154 	"/>
	<polygon fill="#ED3F32" points="184.306,251.154 165.688,260.463 165.688,251.154 184.306,241.846 	"/>
	<polygon fill="#FFFFFF" points="184.306,241.846 165.688,251.154 165.688,241.846 184.306,232.536 	"/>
	<polygon fill="#ED3F32" points="184.306,232.536 165.688,241.846 165.688,232.536 184.306,223.228 	"/>
	<polygon fill="#FFFFFF" points="184.306,223.228 165.688,232.536 165.688,223.228 184.306,213.919 	"/>
	<polygon fill="#ED3F32" points="184.306,213.919 165.688,223.228 165.688,213.919 184.306,204.609 	"/>
	<polygon fill="#FFFFFF" points="184.306,204.609 165.688,213.919 165.688,204.609 184.306,195.3 	"/>
</g>
</svg>
