<?xml version="1.0" encoding="utf-8"?>
<!-- Generator: Adobe Illustrator 16.0.0, SVG Export Plug-In . SVG Version: 6.00 Build 0)  -->
<!DOCTYPE svg PUBLIC "-//W3C//DTD SVG 1.1//EN" "http://www.w3.org/Graphics/SVG/1.1/DTD/svg11.dtd">
<svg version="1.1" id="Capa_1" xmlns="http://www.w3.org/2000/svg" xmlns:xlink="http://www.w3.org/1999/xlink" x="0px" y="0px"
	 width="350px" height="350px" viewBox="0 0 350 350" enable-background="new 0 0 350 350" xml:space="preserve">
<g>
	<path d="M148.811,130.75l-5.07,1.611c-2.047,0.649-3.179,2.836-2.529,4.887c0.525,1.658,2.059,2.712,3.708,2.712
		c0.393,0,0.79-0.058,1.179-0.183l2.712-0.86V154.1l-5.07,1.611c-2.047,0.65-3.179,2.836-2.529,4.887
		c0.525,1.658,2.059,2.712,3.708,2.712c0.393,0,0.79-0.058,1.179-0.183l2.712-0.86v15.183l-5.07,1.61
		c-2.047,0.65-3.179,2.837-2.529,4.888c0.525,1.657,2.059,2.712,3.708,2.712c0.393,0,0.79-0.058,1.179-0.183l2.712-0.86v8.825h7.782
		v12.969l13.619,18.159h11.673l13.618-18.159v-12.977h7.783v-25.731l5.12-1.708c2.039-0.677,3.14-2.879,2.459-4.922
		c-0.677-2.036-2.876-3.145-4.922-2.459l-2.661,0.887v-15.144l5.12-1.708c2.039-0.677,3.14-2.879,2.459-4.922
		c-0.677-2.035-2.876-3.145-4.922-2.459l-2.661,0.887v-15.144l5.12-1.708c1.63-0.541,2.61-2.063,2.61-3.689h64.098l-0.413-4.268
		c-0.385-3.973-0.988-5.767-1.692-7.856c-0.338-1.011-0.731-2.175-1.183-3.871c-3.184-12.043-12.502-23.537-26.233-32.366
		c-17.557-11.292-42.062-13.156-62.42-4.731l-0.739,0.315c-0.369,0.16-0.731,0.319-1.113,0.452c-1.81,0.626-3.197,1.167-4.33,1.607
		c-3.588,1.389-3.584,1.393-9.498-0.351c-12.626-3.728-36.537-9.003-54.81-2.525c-22.35,7.918-34.676,24.537-36.642,49.396
		l-0.331,4.198h73.109V130.75z M84.243,108.832c2.665-19.428,12.848-32.035,31.031-38.482c16.809-5.949,40.576-0.121,50.011,2.658
		c7.747,2.292,8.969,2.299,14.517,0.14c1.063-0.413,2.366-0.918,4.056-1.51c0.556-0.191,1.104-0.42,1.66-0.662l0.623-0.265
		c18.074-7.479,39.763-5.871,55.249,4.085c12.093,7.778,20.232,17.654,22.922,27.813c0.506,1.91,0.945,3.222,1.331,4.362
		c0.229,0.677,0.42,1.253,0.591,1.86h-70.731v7.576l-9.011,3.004c-2.039,0.677-3.141,2.879-2.46,4.922
		c0.545,1.631,2.063,2.662,3.693,2.662c0.405,0,0.82-0.066,1.229-0.202l6.552-2.183v15.147l-9.011,3.004
		c-2.039,0.677-3.141,2.879-2.46,4.922c0.545,1.631,2.063,2.662,3.693,2.662c0.405,0,0.82-0.066,1.229-0.202l6.552-2.183v15.148
		l-9.011,3.004c-2.039,0.677-3.141,2.879-2.46,4.922c0.545,1.631,2.063,2.662,3.693,2.662c0.405,0,0.82-0.066,1.229-0.202
		l6.552-2.183v15.354h-7.781v18.159l-9.728,12.97h-3.891l-9.728-12.97v-18.171h-7.782v-3.514l16.743-5.314
		c2.047-0.65,3.179-2.837,2.529-4.888c-0.649-2.051-2.848-3.187-4.887-2.529l-14.385,4.568v-15.179l16.743-5.315
		c2.047-0.65,3.179-2.836,2.529-4.887c-0.649-2.05-2.848-3.187-4.887-2.529l-14.385,4.568v-15.179l16.743-5.315
		c2.047-0.65,3.179-2.836,2.529-4.887c-0.649-2.05-2.848-3.187-4.887-2.529l-14.385,4.568v-19.459H84.243z"/>
	<path d="M273.494,132.178h-50.755v7.782h43.639c1.588,24.082-4.386,47.467-10.172,70.116c-1.785,6.984-3.634,14.207-5.232,21.354
		l-1.129,5.097c-3.035,13.817-6.175,28.104-13.206,40.429c-2.366,4.144-4.794,6.579-6.408,6.35c-1.782-0.184-6.709-3-13.888-25.12
		c-2.463-7.584-5.49-17.265-9-28.774c-0.055-0.176-0.108-0.342-0.167-0.506l-0.148-0.518l-0.046,0.016
		c-1.265-2.996-3.273-3.148-4.799-2.692l-3.691,1.104l0.72,2.519c-1.782,4.897-4.646,10.642-6.778,14.917l-1.806,3.654
		c-2.72,5.603-6.109,12.575-11.587,14.198c-9.786,2.93-18.783-13.261-24.152-22.923c-0.825-1.486-1.58-2.839-2.26-3.999
		l-1.296-2.145l-2.432,0.195c-1.984,0.155-4.451,0.351-18.564,36.571c-2.49,6.389-4.821,11.518-9.774,14.035
		c-4.412-1.102-9.124-12.572-10.953-17.027l-0.471-1.144c-13.19-31.856-18.4-67.638-23.436-102.245
		c-0.712-4.888-1.417-9.748-2.144-14.564l-0.249-1.649c-0.525-3.44-0.72-4.697-0.615-7.253h46.669v-7.782H75.445l-0.284,3.583
		c-0.49,6.214-0.354,7.393,0.447,12.63l0.25,1.626c0.724,4.809,1.428,9.653,2.136,14.529c5.105,35.082,10.381,71.354,23.945,104.104
		l0.463,1.12c3.37,8.202,9.008,21.938,18.821,21.938h0.79l0.728-0.307c9.004-3.813,12.374-12.456,14.836-18.767
		c3.705-9.507,8.603-20.891,11.696-27.525c6.611,11.778,17.128,28.844,31.969,24.459c8.767-2.6,13.163-11.653,16.373-18.261
		l1.767-3.584c1.012-2.026,2.183-4.373,3.339-6.828c2.347,7.587,4.424,14.187,6.214,19.688
		c4.708,14.506,10.824,29.467,20.494,30.463c5.104,0.521,9.785-2.922,13.961-10.237c7.618-13.354,10.887-28.226,14.046-42.61
		l1.121-5.066c1.575-7.039,3.408-14.198,5.18-21.132c6.236-24.401,12.68-49.627,10.093-76.307L273.494,132.178z"/>
</g>
</svg>
