<?xml version="1.0" encoding="utf-8"?>
<!-- Generator: Adobe Illustrator 16.0.0, SVG Export Plug-In . SVG Version: 6.00 Build 0)  -->
<!DOCTYPE svg PUBLIC "-//W3C//DTD SVG 1.1//EN" "http://www.w3.org/Graphics/SVG/1.1/DTD/svg11.dtd">
<svg version="1.1" id="Layer_1" xmlns="http://www.w3.org/2000/svg" xmlns:xlink="http://www.w3.org/1999/xlink" x="0px" y="0px"
	 width="350px" height="350px" viewBox="0 0 350 350" enable-background="new 0 0 350 350" xml:space="preserve">
<g>
	<path d="M277.131,63.333H72.869c-1.559,0-2.827,1.269-2.827,2.828v10.916c0,1.559,1.268,2.828,2.827,2.828h204.263
		c1.56,0,2.828-1.269,2.828-2.828V66.161C279.96,64.602,278.691,63.333,277.131,63.333z"/>
	<path d="M77.144,240.896c0,3.704,3.003,6.707,6.708,6.707h87.216c-9.001,1.829-15.796,9.803-15.796,19.335
		c0,10.879,8.851,19.729,19.729,19.729c10.878,0,19.729-8.851,19.729-19.729c0-9.532-6.795-17.506-15.797-19.335h87.217
		c3.705,0,6.708-3.003,6.708-6.707V90.953H77.144V240.896z M181.314,266.938c0,3.48-2.833,6.313-6.314,6.313
		c-3.482,0-6.313-2.831-6.313-6.313s2.832-6.313,6.313-6.313C178.481,260.625,181.314,263.457,181.314,266.938z M175,119.73
		c12.216,0,22.154,9.938,22.154,22.154s-9.938,22.153-22.154,22.153c-12.216,0-22.154-9.938-22.154-22.153
		S162.785,119.73,175,119.73z M136.333,189.417c0-9.462,6.032-17.829,15.008-20.82c0.043-0.014,0.085-0.028,0.128-0.041l5.827-1.789
		c1.946-0.598,4.064-0.099,5.539,1.303L175,179.628l12.165-11.558c1.476-1.403,3.593-1.899,5.54-1.303l5.826,1.789
		c0.044,0.013,0.086,0.027,0.129,0.041c8.977,2.992,15.008,11.358,15.008,20.82v28.571c0,3.115-2.524,5.64-5.64,5.64h-66.056
		c-3.115,0-5.64-2.524-5.64-5.64V189.417z"/>
	<path d="M175,152.758c5.996,0,10.874-4.878,10.874-10.874c0-5.997-4.878-10.875-10.874-10.875c-5.997,0-10.875,4.878-10.875,10.875
		C164.126,147.88,169.004,152.758,175,152.758z"/>
	<path d="M202.389,189.417c0-4.579-2.905-8.63-7.237-10.101l-2.605-0.799l-13.661,12.979c-2.177,2.067-5.593,2.067-7.769,0
		l-13.661-12.979l-2.605,0.799c-4.332,1.471-7.237,5.521-7.237,10.101v22.932h54.776V189.417z"/>
</g>
</svg>
