<?xml version="1.0" encoding="utf-8"?>
<!-- Generator: Adobe Illustrator 16.0.0, SVG Export Plug-In . SVG Version: 6.00 Build 0)  -->
<!DOCTYPE svg PUBLIC "-//W3C//DTD SVG 1.1//EN" "http://www.w3.org/Graphics/SVG/1.1/DTD/svg11.dtd">
<svg version="1.1" id="Capa_1" xmlns="http://www.w3.org/2000/svg" xmlns:xlink="http://www.w3.org/1999/xlink" x="0px" y="0px"
	 width="350px" height="350px" viewBox="0 0 350 350" enable-background="new 0 0 350 350" xml:space="preserve">
<g>
	<rect x="59.926" y="57.942" fill="#556080" width="230.148" height="23.808"/>
	<rect x="67.862" y="81.75" fill="#ECF0F1" width="214.275" height="166.659"/>
	<rect x="163.096" y="109.527" fill="#556080" width="23.809" height="23.808"/>
	<rect x="171.032" y="133.335" fill="#D1D4D1" width="7.937" height="46.526"/>
	<polygon fill="#D1D4D1" points="238.489,179.861 230.553,179.861 230.553,165.08 119.447,165.08 119.447,179.861 111.511,179.861 
		111.511,157.144 238.489,157.144 	"/>
	<circle fill="#71C285" cx="115.479" cy="192.856" r="15.873"/>
	<circle fill="#71C285" cx="175" cy="192.856" r="15.873"/>
	<circle fill="#71C285" cx="234.521" cy="192.856" r="15.873"/>
	<path fill="#556080" d="M290.074,252.377H59.926c-2.194,0-3.968-1.773-3.968-3.968s1.774-3.968,3.968-3.968h230.148
		c2.193,0,3.968,1.773,3.968,3.968S292.268,252.377,290.074,252.377z"/>
	<path fill="#556080" d="M175,264.281c-2.194,0-3.968-1.773-3.968-3.969v-11.903c0-2.194,1.774-3.968,3.968-3.968
		s3.969,1.773,3.969,3.968v11.903C178.969,262.508,177.194,264.281,175,264.281z"/>
	<path fill="#556080" d="M175,292.059c-8.753,0-15.873-7.119-15.873-15.873c0-8.753,7.119-15.873,15.873-15.873
		c8.754,0,15.873,7.12,15.873,15.873C190.873,284.939,183.754,292.059,175,292.059z M175,268.25c-4.377,0-7.936,3.56-7.936,7.936
		s3.559,7.936,7.936,7.936c4.376,0,7.936-3.56,7.936-7.936S179.376,268.25,175,268.25z"/>
</g>
</svg>
