<?xml version="1.0" encoding="utf-8"?>
<!-- Generator: Adobe Illustrator 16.0.0, SVG Export Plug-In . SVG Version: 6.00 Build 0)  -->
<!DOCTYPE svg PUBLIC "-//W3C//DTD SVG 1.1//EN" "http://www.w3.org/Graphics/SVG/1.1/DTD/svg11.dtd">
<svg version="1.1" id="Capa_1" xmlns="http://www.w3.org/2000/svg" xmlns:xlink="http://www.w3.org/1999/xlink" x="0px" y="0px"
	 width="350px" height="350px" viewBox="0 0 350 350" enable-background="new 0 0 350 350" xml:space="preserve">
<g>
	<g>
		<path fill="#E8D5B2" d="M237.266,252.009l-20.321-21.036l-21.037,20.321l-20.322-21.037l-21.037,20.321l-20.322-21.037
			l-21.033,20.317l-12.194-12.624l-0.894,51.448c-0.062,3.565,2.775,6.503,6.341,6.564l135.978,2.357
			c3.564,0.062,6.502-2.775,6.564-6.341l0.894-51.448L237.266,252.009z"/>
	</g>
	<path fill="#E8D5B2" d="M243.028,73.072H107.03c-3.565,0-6.453,2.891-6.453,6.453v117.638l12.409,12.408l20.682-20.682
		l20.682,20.682l20.682-20.682l20.682,20.682l20.682-20.682l20.682,20.682l12.409-12.408V79.524
		C249.485,75.963,246.594,73.072,243.028,73.072z M175.031,122.708c-9.137,0-16.545-7.408-16.545-16.545
		c0-9.137,7.408-16.545,16.545-16.545c9.138,0,16.545,7.408,16.545,16.545C191.576,115.299,184.169,122.708,175.031,122.708z"/>
	<path fill="#CBB292" d="M175.031,73.072c-18.274,0-33.091,14.816-33.091,33.09s14.816,33.091,33.091,33.091
		s33.091-14.816,33.091-33.091S193.306,73.072,175.031,73.072z M175.031,122.708c-9.137,0-16.545-7.408-16.545-16.545
		c0-9.137,7.408-16.545,16.545-16.545c9.138,0,16.545,7.408,16.545,16.545C191.576,115.299,184.169,122.708,175.031,122.708z"/>
	<path fill="#D75A4A" d="M175.031,110.299c-2.288,0-4.136-1.849-4.136-4.137V56.526c0-2.287,1.849-4.136,4.136-4.136
		c2.288,0,4.137,1.849,4.137,4.136v49.636C179.168,108.45,177.314,110.299,175.031,110.299z"/>
</g>
</svg>
