<?xml version="1.0" encoding="utf-8"?>
<!-- Generator: Adobe Illustrator 16.0.0, SVG Export Plug-In . SVG Version: 6.00 Build 0)  -->
<!DOCTYPE svg PUBLIC "-//W3C//DTD SVG 1.1//EN" "http://www.w3.org/Graphics/SVG/1.1/DTD/svg11.dtd">
<svg version="1.1" id="Layer_1" xmlns="http://www.w3.org/2000/svg" xmlns:xlink="http://www.w3.org/1999/xlink" x="0px" y="0px"
	 width="350px" height="350px" viewBox="0 0 350 350" enable-background="new 0 0 350 350" xml:space="preserve">
<g>
	<g>
		<path d="M298.497,231.596c0-2.842-2.307-5.148-5.148-5.148h-49.173c-15.459-6.496-19.815-11.192-21.021-13.537
			c-0.045-0.098-0.083-0.195-0.129-0.293l-0.044-6.745h70.366c2.842,0,5.148-2.307,5.148-5.148c0-2.843-2.307-5.148-5.148-5.148
			h-70.441l-0.008-0.791c4.515-6.037,8.494-12.708,11.585-19.789h58.864c2.843,0,5.148-2.303,5.148-5.145
			c0-2.841-2.306-5.147-5.148-5.147h-55.104c1.968-6.663,3.098-13.575,3.144-20.58h51.961c2.842,0,5.148-2.306,5.148-5.148
			c0-2.841-2.307-5.144-5.148-5.144h-52.346c-0.362-7.884-0.731-14.652-1.312-20.584h53.656v0c2.843,0,5.148-2.303,5.148-5.145
			c0-2.841-2.306-5.144-5.148-5.144h-55.035c-1.485-8.186-3.837-14.623-7.84-20.584h62.875c2.843,0,5.148-2.303,5.148-5.145
			c0-2.841-2.306-5.144-5.148-5.144h-71.844c-2.058-1.926-4.342-3.874-6.889-5.901c-13.938-11.083-30.533-14.675-46.188-14.675
			c-28.807,0-54.434,12.157-54.434,12.157l11.02,7.726c0,0-0.347,0.226-0.958,0.693H56.651c-2.841,0-5.147,2.303-5.147,5.144
			c0,2.842,2.306,5.145,5.147,5.145h56.913c-4.13,5-8.698,11.803-12.459,20.584H56.651c-2.841,0-5.147,2.302-5.147,5.144
			c0,2.842,2.306,5.145,5.147,5.145h40.746c-1.801,6.12-3.165,12.964-3.813,20.584H56.651c-2.841,0-5.147,2.303-5.147,5.144
			c0,2.842,2.306,5.148,5.147,5.148h36.518c0.015,6.388,0.52,13.243,1.636,20.58H56.651c-2.841,0-5.147,2.307-5.147,5.147
			c0,2.842,2.306,5.145,5.147,5.145h58.956c3.091,7.077,7.063,13.751,11.578,19.781l-0.008,0.799H56.651
			c-2.841,0-5.147,2.308-5.147,5.148c0,2.842,2.306,5.148,5.147,5.148h70.45l-0.045,6.745c-0.045,0.098-0.083,0.195-0.128,0.293
			c-1.206,2.345-5.555,7.041-21.014,13.537H56.651c-2.841,0-5.147,2.307-5.147,5.148c0,2.841,2.306,5.148,5.147,5.148h23.878
			c-0.987,0.294-2.02,0.588-3.128,0.882l-0.874,0.256c-9.21,3.045-16.031,10.446-18.466,19.438h-1.409
			c-2.842,0.001-5.148,2.308-5.148,5.148c0,2.842,2.306,5.148,5.147,5.148h0.43v20.576h-0.43c-2.841,0-5.147,2.306-5.147,5.155
			c0,2.835,2.306,5.141,5.147,5.141h0.43h51.185h133.551h51.184h0.348c2.842,0,5.148-2.306,5.148-5.141
			c0-2.85-2.307-5.155-5.148-5.155h-0.348v-20.576h0.348c2.842,0,5.148-2.307,5.148-5.148s-2.307-5.148-5.148-5.148h-1.326
			c-2.436-8.991-9.257-16.393-18.466-19.438l-0.874-0.256c-1.108-0.294-2.142-0.588-3.128-0.882h23.794
			C296.19,236.744,298.497,234.438,298.497,231.596z M103.119,241.884v46.309H67.376v-23.523c0-7.674,4.899-14.463,12.218-16.966
			l0.573-0.166c9.625-2.594,14.938-5.134,19.205-7.177c1.65-0.791,3.083-1.477,4.47-2.004c0.377-0.143,0.761-0.286,1.153-0.437
			C103.85,238.861,103.119,240.286,103.119,241.884z M230.503,133.835c0.4,3.188,0.604,6.467,0.604,9.825
			c0,3.531-0.339,7.134-0.995,10.755h-13.002c3.204-2.709,5.125-6.301,5.125-10.288c0-3.991-1.921-7.579-5.125-10.292H230.503z
			 M160.581,123.543c14.185-6.508,29.719-11.128,45.607-11.132c1.567,0,3.136,0.045,4.711,0.139l10.959,10.993H160.581z
			 M211.947,144.128c0,2.095-4.01,5.144-10.296,5.144c-6.278,0-10.288-3.049-10.288-5.144c0-2.099,4.01-5.148,10.288-5.148
			C207.938,138.98,211.947,142.029,211.947,144.128z M186.2,154.416h-20.546c3.204-2.709,5.125-6.301,5.125-10.288
			c0-3.991-1.922-7.579-5.125-10.292H186.2c-3.203,2.713-5.125,6.301-5.125,10.292C181.074,148.115,182.997,151.706,186.2,154.416z
			 M97.676,164.704c2.54-1.368,6.678-4.556,12.112-8.721c0.513,2.944,1.206,5.856,2.05,8.721H97.676z M103.533,147.809
			c-0.271-8.069,0.278-15.779,1.658-23.042c1.764-9.274,4.869-17.874,9.241-25.554c7.25-12.753,15.708-18.843,16.288-19.254
			l12.79-8.174l-7.348-5.148c8.932-2.521,20.366-4.834,32.267-4.834c16.023,0,29.409,4.184,39.781,12.437
			c5.6,4.454,9.541,8.275,12.398,12.021c2.705,3.554,4.605,7.288,5.969,11.75c1.554,5.069,2.465,11.2,3.105,18.809l-11.493-11.535
			l-2.767-2.778l-3.919-0.23c-1.749-0.106-3.535-0.154-5.314-0.154c-10.272,0-21.074,1.745-32.108,5.186
			c-9.203,2.871-18.828,7.005-28.603,12.29C128.209,128.936,113.421,140.227,103.533,147.809z M160.491,144.127
			c0,2.095-4.01,5.144-10.296,5.144c-6.278,0-10.289-3.049-10.289-5.144c0-2.1,4.01-5.148,10.289-5.148
			C156.481,138.979,160.491,142.028,160.491,144.127z M119.217,148.845c3.325-2.461,6.919-5.05,10.764-7.672
			c-0.233,0.954-0.362,1.94-0.362,2.955c0,3.987,1.921,7.579,5.125,10.288h-14.773C119.632,152.55,119.383,150.692,119.217,148.845z
			 M122.639,164.708h104.804c-3.527,10.371-9.489,20.617-17.486,29.73c-5.909,6.73-12.526,12.369-19.145,16.287
			c-5.901,3.505-11.501,5.435-15.768,5.435c-4.266,0-9.866-1.93-15.775-5.435c-6.61-3.918-13.235-9.557-19.137-16.295
			C132.136,185.326,126.167,175.079,122.639,164.708z M221.473,225.845c-4.243,3.377-10.635,7.644-19.009,10.899H149.72
			c-3.806-1.538-7.47-3.414-10.989-5.654c-3.618-2.29-6.475-4.612-8.562-6.497c2.547-2.147,4.62-4.469,5.901-6.972
			c0.188-0.369,0.324-0.67,0.399-0.852l0.859-1.899l0.015-2.186l0.045-6.165c12.391,12.256,26.553,19.928,37.656,19.928
			c11.095,0,25.256-7.665,37.647-19.92l0.046,6.157l0.015,2.186l0.859,1.9c0.068,0.166,0.204,0.482,0.392,0.836
			C215.542,220.6,218.195,223.35,221.473,225.845z M108.265,236.744c-0.113,0-0.226,0.008-0.339,0.015
			c4.387-1.771,9.105-3.858,13.461-6.271c1.771,1.733,4.221,3.934,7.356,6.256H108.265z M236.677,288.192H113.414v-41.16h123.263
			V288.192z M241.817,236.744h-17.698c2.646-1.869,4.847-3.664,6.573-5.193c3.774,1.968,7.74,3.7,11.472,5.208
			C242.044,236.752,241.938,236.744,241.817,236.744z M269.915,247.537l0.573,0.166c7.318,2.503,12.217,9.292,12.217,16.966v23.523
			h-35.74v-46.309c0-1.598-0.731-3.022-1.878-3.964c0.393,0.15,0.784,0.302,1.161,0.437c1.386,0.527,2.812,1.213,4.462,2.004
			C254.983,242.403,260.29,244.943,269.915,247.537z"/>
	</g>
</g>
<g>
	<g>
		<path d="M141.157,267.526l6.693-6.693c2.006-2.013,2.006-5.276,0.001-7.28c-2.012-2.006-5.268-2.006-7.281,0l-6.693,6.692
			l-6.693-6.692c-2.012-2.006-5.269-2.006-7.281,0c-2.005,2.004-2.005,5.268,0,7.28l6.701,6.693l-6.618,6.61
			c-2.005,2.012-2.005,5.269,0,7.272c1.01,1.011,2.321,1.509,3.641,1.509c1.318,0,2.638-0.498,3.64-1.509l6.61-6.61l6.61,6.61
			c1.01,1.011,2.321,1.509,3.64,1.509s2.63-0.498,3.641-1.509c2.004-2.004,2.004-5.261,0-7.272L141.157,267.526z"/>
	</g>
</g>
<g>
	<g>
		<path d="M223.486,267.526l6.693-6.693c2.004-2.013,2.004-5.276,0-7.28c-2.013-2.006-5.269-2.006-7.281,0l-6.693,6.692
			l-6.692-6.692c-2.012-2.006-5.27-2.006-7.281,0c-2.006,2.004-2.006,5.268,0,7.28l6.701,6.693l-6.61,6.61
			c-2.013,2.012-2.013,5.269,0,7.272c1.002,1.011,2.321,1.509,3.633,1.509c1.318,0,2.639-0.498,3.641-1.509l6.609-6.61l6.61,6.61
			c1.003,1.011,2.321,1.509,3.641,1.509c1.318,0,2.63-0.498,3.641-1.509c2.004-2.004,2.004-5.261,0-7.272L223.486,267.526z"/>
	</g>
</g>
<g>
	<g>
		<path d="M182.317,267.526l6.693-6.693c2.014-2.013,2.014-5.276,0.001-7.28c-2.005-2.006-5.261-2.006-7.273,0l-6.693,6.692
			l-6.7-6.692c-2.005-2.006-5.269-2.006-7.273,0c-2.013,2.004-2.013,5.268,0,7.28l6.693,6.693l-6.61,6.61
			c-2.013,2.012-2.013,5.269,0,7.272c1.002,1.011,2.321,1.509,3.64,1.509c1.312,0,2.631-0.498,3.64-1.509l6.61-6.61l6.609,6.61
			c1.003,1.011,2.321,1.509,3.633,1.509c1.319,0,2.639-0.498,3.641-1.509c2.013-2.004,2.013-5.261,0-7.272L182.317,267.526z"/>
	</g>
</g>
</svg>
