<?xml version="1.0" encoding="utf-8"?>
<!-- Generator: Adobe Illustrator 16.0.0, SVG Export Plug-In . SVG Version: 6.00 Build 0)  -->
<!DOCTYPE svg PUBLIC "-//W3C//DTD SVG 1.1//EN" "http://www.w3.org/Graphics/SVG/1.1/DTD/svg11.dtd">
<svg version="1.1" id="Layer_1" xmlns="http://www.w3.org/2000/svg" xmlns:xlink="http://www.w3.org/1999/xlink" x="0px" y="0px"
	 width="350px" height="350px" viewBox="0 0 350 350" enable-background="new 0 0 350 350" xml:space="preserve">
<path fill="#FF6376" d="M154.796,105.201c0-11.158,9.045-34.002,20.204-34.002s20.204,22.844,20.204,34.002
	s-9.047,20.204-20.204,20.204C163.842,125.404,154.796,116.359,154.796,105.201z"/>
<path fill="#C3DDF7" d="M197.03,143.216c12.403,0,22.457-10.055,22.457-22.457c0-12.404-10.054-22.457-22.457-22.457h-44.061
	c-12.402,0-22.457,10.054-22.457,22.457c0,12.402,10.055,22.457,22.457,22.457H197.03z"/>
<path fill="#FFD553" d="M257.303,141.26c-1.174-4.126-5.645-7.501-9.935-7.501H102.632c-4.29,0-8.761,3.376-9.935,7.501
	L55.683,271.3c-1.175,4.126,1.375,7.502,5.665,7.502h227.306c4.29,0,6.839-3.376,5.665-7.502L257.303,141.26z"/>
<path fill="#FDBA55" d="M294.318,271.3l-3.486-12.244H59.168L55.683,271.3c-1.175,4.126,1.375,7.502,5.665,7.502h227.306
	C292.943,278.802,295.492,275.426,294.318,271.3z"/>
<path fill="#866539" d="M282.417,182.015l-12.613-44.314c-2.749-9.659-12.396-16.942-22.438-16.942H102.632
	c-10.043,0-19.689,7.284-22.438,16.942l-12.613,44.314c-1.965,6.905,2.039,14.096,8.944,16.062c1.19,0.338,2.387,0.5,3.565,0.499
	c5.662,0,10.87-3.729,12.496-9.443l5.317-18.682l0.005,0.007c1.106-3.824,4.633-6.619,8.813-6.619c5.066,0,9.173,4.107,9.173,9.173
	v12.561c0,7.18,5.82,13,13,13c7.18,0,13-5.82,13-13v-12.561c0-5.551,4.5-10.052,10.052-10.052c5.552,0,10.052,4.5,10.052,10.052
	v12.561c0,7.18,5.82,13,13,13c7.18,0,13-5.82,13-13v-12.561c0-5.551,4.5-10.052,10.053-10.052c5.552,0,10.052,4.5,10.052,10.052
	v12.561c0,7.18,5.82,13,12.999,13c7.181,0,13.001-5.82,13.001-13v-12.561c0-5.066,4.106-9.173,9.173-9.173
	c4.18,0,7.706,2.796,8.813,6.619l0.005-0.007l5.316,18.682c1.627,5.715,6.835,9.443,12.496,9.443c1.18,0,2.376-0.161,3.566-0.499
	C280.377,196.11,284.382,188.92,282.417,182.015z"/>
<g>
	<circle fill="#3F4963" cx="120.508" cy="220.918" r="7.062"/>
	<circle fill="#3F4963" cx="229.498" cy="220.918" r="7.062"/>
</g>
<g>
	<path fill="#FF6376" d="M128.062,245.601h-15.108c-2.154,0-3.9-1.747-3.9-3.9s1.746-3.9,3.9-3.9h15.108c2.154,0,3.9,1.747,3.9,3.9
		S130.216,245.601,128.062,245.601z"/>
	<path fill="#FF6376" d="M237.051,245.601h-15.108c-2.154,0-3.9-1.747-3.9-3.9s1.747-3.9,3.9-3.9h15.108
		c2.154,0,3.899,1.747,3.899,3.9S239.204,245.601,237.051,245.601z"/>
</g>
<g>
	<path fill="#3F4963" d="M166.16,240.72c-7.025,0-12.741-5.715-12.741-12.74c0-2.154,1.747-3.9,3.9-3.9c2.154,0,3.9,1.746,3.9,3.9
		c0,2.725,2.217,4.941,4.941,4.941s4.942-2.217,4.942-4.941c0-2.154,1.746-3.9,3.899-3.9c2.153,0,3.9,1.746,3.9,3.9
		C178.902,235.005,173.187,240.72,166.16,240.72z"/>
	<path fill="#3F4963" d="M183.844,240.72c-7.025,0-12.741-5.715-12.741-12.74c0-2.154,1.746-3.9,3.899-3.9s3.9,1.746,3.9,3.9
		c0,2.725,2.216,4.941,4.941,4.941c2.725,0,4.941-2.217,4.941-4.941c0-2.154,1.746-3.9,3.899-3.9c2.154,0,3.9,1.746,3.9,3.9
		C196.585,235.005,190.869,240.72,183.844,240.72z"/>
</g>
<path d="M120.508,213.858c-3.9,0-7.062,3.162-7.062,7.062c0,3.9,3.162,7.063,7.062,7.063c3.9,0,7.062-3.161,7.062-7.063
	C127.57,217.021,124.408,213.858,120.508,213.858z M192.685,224.079c-2.155,0-3.899,1.746-3.899,3.9
	c0,2.725-2.218,4.941-4.941,4.941c-2.725,0-4.941-2.217-4.941-4.941c0-2.154-1.745-3.9-3.9-3.9c-2.154,0-3.899,1.747-3.899,3.9
	c0,2.725-2.218,4.941-4.942,4.941s-4.941-2.217-4.941-4.941c0-2.154-1.746-3.9-3.9-3.9c-2.153,0-3.9,1.747-3.9,3.9
	c0,7.025,5.716,12.74,12.741,12.74c3.432,0,6.549-1.365,8.842-3.579c2.293,2.214,5.41,3.579,8.842,3.579
	c7.025,0,12.741-5.715,12.741-12.74C196.585,225.825,194.839,224.079,192.685,224.079z M298.069,270.232l-19.9-69.916
	c6.674-3.737,10.182-11.7,7.999-19.37l-12.613-44.313c-3.21-11.273-14.468-19.774-26.188-19.774h-24.269
	c-1.871-12.557-12.629-22.244-25.652-22.447c-1.56-5.754-4.066-11.61-6.958-16.143c-4.578-7.177-9.933-10.971-15.486-10.971
	c-5.555,0-10.91,3.793-15.487,10.971c-2.892,4.533-5.398,10.389-6.958,16.143c-13.022,0.203-23.781,9.89-25.652,22.447h-24.271
	c-11.723,0-22.981,8.501-26.189,19.774l-12.613,44.313c-2.184,7.672,1.327,15.636,8.002,19.371l-19.901,69.915
	c-0.898,3.153-0.379,6.33,1.421,8.716c1.801,2.385,4.714,3.753,7.994,3.753h227.307c3.278,0,6.192-1.368,7.993-3.753
	C298.447,276.563,298.966,273.387,298.069,270.232z M175,75.098c5.176,0,11.216,9.436,14.318,19.304h-28.636
	C163.783,84.533,169.823,75.098,175,75.098z M152.97,102.201h44.062c8.894,0,16.345,6.292,18.142,14.657h-80.345
	C136.625,108.493,144.075,102.201,152.97,102.201z M71.332,183.082l12.613-44.313c2.29-8.044,10.324-14.11,18.688-14.11h144.732
	c8.364,0,16.397,6.066,18.688,14.11l12.613,44.313c1.375,4.826-1.435,9.869-6.261,11.243c-0.818,0.233-1.656,0.352-2.495,0.352
	v3.899l-0.003-3.899c-4.041,0-7.638-2.719-8.745-6.611l-5.317-18.681c-0.025-0.091-0.054-0.18-0.086-0.268
	c-1.69-5.417-6.785-9.177-12.482-9.177c-7.209,0-13.073,5.864-13.073,13.073v12.562c0,5.017-4.083,9.1-9.1,9.1
	c-5.019,0-9.101-4.082-9.101-9.1v-12.563c0-7.693-6.259-13.952-13.952-13.952s-13.953,6.259-13.953,13.952v12.562
	c0,5.018-4.081,9.1-9.1,9.1c-5.017,0-9.1-4.082-9.1-9.1v-12.562c0-7.693-6.258-13.952-13.952-13.952s-13.952,6.259-13.952,13.952
	v12.562c0,5.018-4.083,9.1-9.1,9.1s-9.1-4.082-9.1-9.1v-12.562c0-7.208-5.865-13.073-13.074-13.073
	c-5.697,0-10.791,3.759-12.481,9.177c-0.033,0.087-0.061,0.177-0.087,0.268l-5.317,18.681c-1.108,3.894-4.705,6.611-8.748,6.611
	c-0.837,0-1.678-0.118-2.495-0.351C72.767,192.951,69.958,187.908,71.332,183.082z M290.423,274.248
	c-0.319,0.422-0.946,0.653-1.77,0.653H61.347c-0.822,0-1.451-0.232-1.769-0.653c-0.318-0.422-0.369-1.09-0.145-1.881l19.901-69.918
	c0.251,0.012,0.503,0.026,0.755,0.026c7.51,0,14.19-5.049,16.248-12.276l5.255-18.466c0.022-0.063,0.042-0.128,0.061-0.193
	c0.647-2.239,2.731-3.803,5.067-3.803c2.908,0,5.274,2.365,5.274,5.273v12.562c0,9.318,7.581,16.899,16.899,16.899
	c9.318,0,16.9-7.581,16.9-16.899v-12.562c0-3.393,2.759-6.152,6.152-6.152s6.152,2.76,6.152,6.152v12.562
	c0,9.318,7.581,16.899,16.899,16.899c9.319,0,16.9-7.581,16.9-16.899v-12.562c0-3.393,2.76-6.152,6.152-6.152
	c3.391,0,6.151,2.76,6.151,6.152v12.562c0,9.318,7.581,16.899,16.9,16.899c9.318,0,16.899-7.581,16.899-16.899v-12.562
	c0-2.908,2.366-5.273,5.273-5.273c2.336,0,4.419,1.563,5.066,3.803c0.019,0.065,0.04,0.129,0.061,0.193l5.257,18.466
	c2.057,7.228,8.738,12.276,16.246,12.277h0.004c0.252,0,0.504-0.016,0.756-0.027l19.9,69.919
	C290.792,273.158,290.74,273.826,290.423,274.248z M229.496,213.858c-3.899,0-7.062,3.162-7.062,7.062
	c0,3.9,3.162,7.063,7.062,7.063c3.9,0,7.063-3.161,7.063-7.063C236.559,217.021,233.396,213.858,229.496,213.858z"/>
</svg>
