<?xml version="1.0" encoding="utf-8"?>
<!-- Generator: Adobe Illustrator 16.0.0, SVG Export Plug-In . SVG Version: 6.00 Build 0)  -->
<!DOCTYPE svg PUBLIC "-//W3C//DTD SVG 1.1//EN" "http://www.w3.org/Graphics/SVG/1.1/DTD/svg11.dtd">
<svg version="1.1" id="Layer_1" xmlns="http://www.w3.org/2000/svg" xmlns:xlink="http://www.w3.org/1999/xlink" x="0px" y="0px"
	 width="350px" height="350px" viewBox="0 0 350 350" enable-background="new 0 0 350 350" xml:space="preserve">
<g>
	<path fill="#3D3C3C" d="M241.983,194.105c-0.144-0.076-0.302-0.144-0.482-0.189c-3.124-0.784-5.739,1.053-6.85,3.919
		c-0.956,2.467,0.386,5.938,2.855,6.993c2.174,0.933,4.196-0.118,5.46-1.868c0.191-0.196,0.37-0.404,0.53-0.624
		c1.409-1.923,1.455-4.551,0.327-6.619C243.386,194.914,242.73,194.377,241.983,194.105z"/>
	<path fill="#3D3C3C" d="M74.727,189.266c-1.322-0.575-2.844-0.746-4.193-0.377c-0.276,0.022-0.564,0.106-0.858,0.277
		c-1.904,1.106-3.656,2.892-3.512,5.26c0.122,2.03,1.491,3.626,3.134,4.688c1.572,1.014,3.615,1.437,5.436,0.976
		c2.262-0.573,3.298-2.658,3.533-4.8C78.546,192.719,77.083,190.291,74.727,189.266z"/>
	<path fill="#3D3C3C" d="M308.035,203.851c-1.077-3.052-4.568-4.854-7.351-6.025c-0.358-0.15-0.725-0.291-1.096-0.426
		c0.186-0.144,0.366-0.308,0.543-0.504c0.738-0.825,0.761-1.976,0-2.801c-4.913-5.304-13.52-5.586-20.124-7.077
		c-4.206-0.949-8.29-2.63-12.454-3.782c-4.69-1.3-9.418-2.593-13.7-4.962c-0.029-0.016-0.057-0.021-0.087-0.036
		c-4.125-3.53-9.385-5.715-14.853-5.752c-3.353-0.023-6.312,0.856-8.9,2.349c-0.228-0.322-0.57-0.584-1.054-0.719
		c-7.754-2.198-15.616-3.993-23.435-5.941c-0.044-0.011-0.083-0.011-0.127-0.02c-0.2-0.404-0.454-0.801-0.771-1.187
		c-2.291-2.793-6.353-4.079-9.859-4.145c-0.92-0.018-1.504,0.484-1.759,1.134c-0.024,0.035-0.052,0.062-0.067,0.104
		c-0.439,1.074-0.461,2.132-0.242,3.172c-0.008,0.352-0.008,0.701,0.009,1.056c-0.086,0.025-0.173,0.045-0.261,0.083
		c-0.679,0.301-1.411,0.528-2.17,0.714c-0.328-0.36-0.654-0.721-0.967-1.092c-0.075-0.089-0.158-0.127-0.242-0.147
		c-2.243-2.305-4.269-4.665-7.306-5.943c-1.079-0.453-2.071,0.49-2.436,1.382c-1.009,2.462-1.613,5.064-2.617,7.529
		c-2.232,0.282-4.466,0.559-6.701,0.827c-7.709,0.923-15.432,1.733-23.163,2.463c-0.443,0.042-0.884,0.071-1.326,0.106
		c-0.285-7.741-0.394-15.528-1.98-23.135c-0.222-1.063-1.444-1.648-2.436-1.384c-9.833,2.625-19.896,5.146-29.206,9.098
		c-0.145-0.24-0.347-0.46-0.622-0.648c-1.99-1.354-4.223-2.369-6.495-3.259c3.834-2.362,8.208-5.382,7.365-10.432
		c-0.683-4.086-6.27-3.794-9.263-3.743c-5.991,0.098-18.051-2.542-18.152-2.567c-6.476-1.601-11.893-5.55-17.897-8.274
		c-3.718-1.686-9.389-4.015-12.97-0.871c-2.685,2.356-1.517,7.028-0.57,9.884c1.42,4.29,3.784,8.139,6.577,11.664
		c3.82,4.827,8.333,9.279,13.752,12.276c5.366,2.966,10.894,2.629,16.466,0.398c0.569-0.228,1.13-0.475,1.686-0.73
		c0.417,2.148,0.625,4.505,0.091,6.409c-0.009,0.035-0.014,0.067-0.021,0.102c-0.401,0.971-0.531,1.996-0.565,3.052
		c-0.605,0.592-1.204,1.194-1.788,1.823c-8.309-6.479-19.062-10.2-29.289-5.921c-9.55,3.995-17.034,14.022-18.327,24.251
		c-2.257,17.873,16.405,31.199,32.744,30.194c7.38-0.453,14.136-3.751,19.566-8.669c0.036-0.034,0.058-0.069,0.091-0.102
		c2.731,0.373,5.481,0.639,8.189-0.031c0.049,0.044,0.091,0.089,0.14,0.133c0.007,0.006,0.016,0.009,0.023,0.017
		c0.319,0.337,0.774,0.561,1.377,0.563c16.333,0.015,32.648,0.775,48.968,1.333c8.158,0.278,16.32,0.489,24.483,0.533
		c5.178,0.027,10.444,0.155,15.658-0.12c0.079,0.073,0.187,0.12,0.33,0.111c2.356-0.173,4.73-0.048,7.03-0.514
		c2.374,0.137,4.333-0.537,5.87-1.737c0.057-0.003,0.109,0.002,0.168-0.007c3.701-0.55,7.458-0.425,11.174-0.859
		c1.617,2.975,4.248,5.392,8.235,6.799c0.168,0.06,0.326,0.091,0.48,0.109c9.064,4.255,19.312,3.364,27.154-3.205
		c2.146-1.795,3.911-3.982,5.282-6.403c6.597,0.015,13.364,0.31,19.758-1.568c0.023,0.147,0.04,0.295,0.067,0.444
		c0.076,0.412,0.249,0.72,0.473,0.947c0.233,0.733,0.823,1.375,1.767,1.496c4.672,0.602,9.362,0.882,14.071,0.747
		c3.554-0.102,7.163-0.51,10.302-2.307C307.517,208.829,308.934,206.393,308.035,203.851z M258,193.27
		c-0.771,0.359-1.868,0.448-2.557,0.676c-0.949,0.315-1.889,0.642-2.817,1.007c-0.091-0.475-0.203-0.946-0.337-1.414
		c1.659-0.947,3.487-1.545,5.181-2.419C257.685,191.828,257.865,192.545,258,193.27z M257.16,190.169
		c-1.683,0.895-3.511,1.482-5.179,2.402c-0.107-0.31-0.229-0.612-0.356-0.913c1.573-1.132,3.153-2.245,4.869-3.141
		C256.737,189.061,256.962,189.61,257.16,190.169z M256.065,187.624c-1.713,0.889-3.293,1.995-4.861,3.122
		c-0.053-0.105-0.114-0.209-0.169-0.314c1.403-1.388,2.76-2.859,4.413-3.934C255.663,186.87,255.873,187.243,256.065,187.624z
		 M254.159,184.521c0.27,0.37,0.524,0.749,0.772,1.131c-1.649,1.067-3.016,2.51-4.41,3.896c-0.065-0.104-0.127-0.21-0.196-0.312
		C251.718,187.762,252.881,186.094,254.159,184.521z M253.544,183.722c-1.28,1.563-2.439,3.225-3.816,4.703
		c-0.139-0.173-0.278-0.343-0.422-0.506c1.247-1.573,2.563-3.092,3.912-4.583C253.325,183.463,253.438,183.591,253.544,183.722z
		 M252.561,182.589c-1.358,1.502-2.68,3.032-3.94,4.612c-0.386-0.377-0.793-0.725-1.216-1.049c0.872-1.921,1.955-3.711,3.254-5.371
		C251.326,181.344,251.964,181.946,252.561,182.589z M249.892,180.166c-1.31,1.677-2.403,3.479-3.3,5.409
		c-0.473-0.312-0.968-0.579-1.475-0.826c0.814-2.02,1.944-3.879,3.056-5.752C248.765,179.355,249.338,179.743,249.892,180.166z
		 M247.317,178.503c-1.126,1.906-2.27,3.799-3.104,5.847c-0.023-0.011-0.047-0.017-0.072-0.027c0.59-2.161,1.127-4.33,2.054-6.373
		C246.574,178.123,246.951,178.303,247.317,178.503z M245.285,177.565c-0.925,2.066-1.482,4.248-2.08,6.43
		c-0.367-0.113-0.74-0.206-1.116-0.29c0.389-2.258,0.846-4.492,1.598-6.669C244.229,177.187,244.764,177.363,245.285,177.565z
		 M242.725,176.799c-0.757,2.196-1.216,4.452-1.605,6.729c-0.488-0.07-0.979-0.112-1.472-0.131c0.339-2.307,0.8-4.592,1.278-6.875
		C241.534,176.584,242.135,176.672,242.725,176.799z M238.34,176.46c0.538-0.03,1.067-0.027,1.594-0.007
		c-0.482,2.309-0.941,4.619-1.28,6.952c-0.415,0.016-0.826,0.058-1.238,0.116c-0.152-2.3-0.43-4.585-0.741-6.868
		C237.215,176.561,237.769,176.495,238.34,176.46z M235.711,176.847c0.31,2.275,0.579,4.554,0.725,6.846
		c-0.601,0.13-1.187,0.31-1.766,0.53c-0.776-2.072-1.189-4.263-1.716-6.411C233.824,177.405,234.742,177.079,235.711,176.847z
		 M232.048,178.271c0.519,2.134,0.954,4.286,1.723,6.34c-0.361,0.171-0.711,0.366-1.057,0.575c-0.965-1.803-1.992-3.572-2.946-5.379
		C230.485,179.233,231.243,178.715,232.048,178.271z M228.992,180.453c0.941,1.773,1.944,3.511,2.894,5.278
		c-0.104,0.075-0.206,0.16-0.308,0.24c-1.282-1.438-2.484-2.942-3.671-4.459C228.259,181.147,228.617,180.79,228.992,180.453z
		 M230.816,186.605c-0.116,0.104-0.236,0.204-0.35,0.315c-0.255,0.249-0.491,0.516-0.725,0.781c-1.336-1.162-2.68-2.313-4.093-3.382
		c0.499-0.719,1.02-1.418,1.588-2.07C228.396,183.729,229.567,185.198,230.816,186.605z M225.778,199.318
		c-1.896-0.468-3.825-0.773-5.723-1.236c0.139-0.712,0.299-1.414,0.474-2.096c1.704,0.741,3.507,1.202,5.259,1.825
		C225.762,198.313,225.764,198.816,225.778,199.318z M225.824,200.346c0.005,0.002,0.009-0.002,0.013,0
		c0.042,0.501,0.109,0.998,0.193,1.493c-2.149-0.28-4.307-0.246-6.47-0.238c0.071-0.853,0.179-1.705,0.316-2.544
		C221.851,199.533,223.859,199.84,225.824,200.346z M225.869,196.791c-1.696-0.586-3.442-1.024-5.081-1.768
		c0.034-0.12,0.067-0.246,0.102-0.366c0.146-0.493,0.306-0.988,0.474-1.487c1.561,0.777,3.132,1.529,4.701,2.292
		C225.98,195.903,225.919,196.346,225.869,196.791z M221.751,192.262c-0.023-0.012-0.046-0.01-0.067-0.017
		c0.202-0.558,0.411-1.112,0.638-1.666c1.483,0.792,2.905,1.688,4.333,2.578c-0.144,0.432-0.266,0.87-0.375,1.313
		C224.77,193.736,223.255,193.01,221.751,192.262z M222.707,189.663c0.314-0.72,0.645-1.434,1.007-2.129
		c1.356,0.987,2.831,1.803,4.198,2.771c-0.346,0.613-0.649,1.249-0.912,1.901C225.589,191.325,224.18,190.442,222.707,189.663z
		 M224.188,186.66c0.29-0.517,0.589-1.03,0.907-1.525c1.392,1.049,2.711,2.187,4.024,3.332c-0.248,0.322-0.482,0.655-0.703,0.996
		C227.033,188.492,225.555,187.66,224.188,186.66z M197.521,171.988c-0.143-0.455-0.259-0.952-0.357-1.46
		c1.424,0.561,2.714,1.398,4.061,2.129c-0.198,0.258-0.422,0.513-0.674,0.763C199.566,172.888,198.563,172.398,197.521,171.988z
		 M199.703,174.088c-0.684,0.318-1.224-0.059-1.65-0.807C198.614,173.531,199.16,173.802,199.703,174.088z M196.974,169.414
		c-0.061-0.415-0.107-0.825-0.145-1.212c1.73,0.979,3.439,1.99,5.092,3.099c-0.044,0.173-0.099,0.344-0.179,0.515
		C200.169,170.972,198.672,169.989,196.974,169.414z M200.795,168.718c0.564,0.439,0.899,0.89,1.065,1.346
		c-1.662-1.085-3.385-2.074-5.118-3.05c0-0.005,0-0.011,0-0.016C198.206,167.278,199.655,167.837,200.795,168.718z M185.135,169.412
		c0.118,0.131,0.236,0.262,0.353,0.391c-0.316,0.029-0.632,0.057-0.944,0.084C184.735,169.725,184.933,169.565,185.135,169.412z
		 M184.463,168.678c-0.552,0.422-1.071,0.881-1.573,1.362c-0.326,0.033-0.648,0.067-0.966,0.105
		c0.714-0.632,1.413-1.276,2.124-1.912C184.189,168.379,184.324,168.529,184.463,168.678z M181.793,168.23
		c0.372-0.364,0.75-0.717,1.137-1.063c0.138,0.122,0.276,0.244,0.411,0.371c-0.626,0.561-1.245,1.131-1.872,1.69
		C181.578,168.895,181.688,168.562,181.793,168.23z M107.807,160.654c-4.134,2.012-8.082,4.37-11.75,7.221
		c0.225-2.358-0.116-4.947-0.63-7.252c1.744-0.976,3.448-2.034,5.142-3.101C103.033,158.418,105.527,159.355,107.807,160.654z
		 M91.931,157.996c-0.145,0.076-0.291,0.146-0.435,0.22c-0.416-0.25-0.788-0.563-1.136-0.909c-0.455-0.448-1.154,0.253-0.7,0.701
		c0.257,0.253,0.531,0.499,0.82,0.717c-0.4,0.195-0.803,0.388-1.208,0.57c-0.024,0.013-0.047,0.022-0.071,0.031
		c-0.485-0.364-0.969-0.728-1.454-1.09c-0.217-0.162-0.554-0.035-0.678,0.177c-0.148,0.255-0.038,0.517,0.178,0.677
		c0.3,0.228,0.602,0.452,0.902,0.679c-0.367,0.144-0.738,0.273-1.113,0.397c-0.015-0.015-0.027-0.031-0.043-0.046
		c-0.462-0.351-0.872-0.768-1.282-1.18c-0.453-0.452-1.153,0.25-0.7,0.703c0.296,0.295,0.599,0.577,0.911,0.853
		c-0.398,0.107-0.798,0.198-1.201,0.278c-0.441-0.31-0.811-0.739-1.02-1.236c-0.104-0.25-0.323-0.424-0.608-0.346
		c-0.236,0.063-0.45,0.358-0.346,0.608c0.183,0.437,0.432,0.83,0.736,1.176c-0.635,0.082-1.273,0.124-1.915,0.129
		c-0.366-0.468-0.726-0.941-1.058-1.435c-0.355-0.526-1.212-0.033-0.854,0.499c0.206,0.308,0.424,0.604,0.646,0.899h-0.001
		c-0.569-0.045-1.137-0.155-1.7-0.315c-0.3-0.35-0.595-0.703-0.855-1.083c-0.34-0.5-1.133-0.075-0.896,0.424
		c-0.306-0.14-0.608-0.295-0.908-0.453c-0.177-0.539-0.339-1.08-0.533-1.612c-0.217-0.597-1.174-0.338-0.955,0.262
		c0.074,0.202,0.141,0.406,0.208,0.61c-0.369-0.231-0.729-0.468-1.082-0.705c-0.123-0.344-0.231-0.69-0.308-1.047
		c-0.126-0.59-0.973-0.382-0.956,0.166c-0.118-0.084-0.236-0.167-0.35-0.25c-0.28-0.202-0.556-0.41-0.83-0.619
		c-0.093-0.432-0.176-0.865-0.235-1.302c-0.083-0.625-1.074-0.632-0.99,0c0.017,0.122,0.039,0.244,0.058,0.368
		c-0.375-0.313-0.74-0.639-1.105-0.967c-0.088-0.386-0.165-0.776-0.241-1.167c-0.109-0.548-0.854-0.412-0.955,0.049
		c-0.376-0.364-0.746-0.735-1.109-1.112c-0.081-0.561-0.12-1.127-0.18-1.693c-0.066-0.628-1.057-0.636-0.99,0
		c0.016,0.16,0.032,0.322,0.046,0.486c-0.318-0.355-0.62-0.721-0.928-1.082c-0.146-0.513-0.279-1.028-0.408-1.547
		c-0.122-0.486-0.732-0.424-0.914-0.073c-0.266-0.341-0.527-0.683-0.786-1.027c-0.018-0.178-0.036-0.355-0.06-0.533
		c-0.044-0.328-0.322-0.408-0.568-0.326c-0.676-0.938-1.325-1.888-1.93-2.851c-1.829-2.904-3.524-6.65-3.633-10.12
		c-0.148-4.716,8.137-0.51,10.02,0.382c5.28,2.502,10.124,5.772,15.705,7.529c2.193,0.732,15.026,3.318,22.04,3.187
		c1.582-0.029,4.751-0.493,4.32,1.89c-0.064,0.353-0.22,0.699-0.437,1.03c-0.559-0.142-1.098-0.35-1.634-0.564
		c-0.593-0.236-0.849,0.721-0.263,0.956c0.398,0.159,0.797,0.313,1.204,0.442c-0.277,0.277-0.584,0.546-0.912,0.799
		c-0.805-0.229-1.611-0.46-2.416-0.688c-0.615-0.177-0.876,0.779-0.263,0.954c0.549,0.157,1.098,0.313,1.647,0.47
		c-0.246,0.164-0.492,0.322-0.733,0.472c-0.867-0.279-1.685-0.688-2.535-1.018c-0.597-0.229-0.853,0.729-0.263,0.956
		c0.582,0.224,1.147,0.486,1.723,0.721c-0.129,0.08-0.254,0.156-0.366,0.229c-0.248,0.158-0.498,0.318-0.747,0.477
		c-0.707-0.313-1.406-0.643-2.114-0.951c-0.58-0.251-1.084,0.603-0.5,0.856c0.544,0.235,1.083,0.482,1.623,0.73
		c-0.274,0.173-0.546,0.35-0.82,0.524c-0.475-0.292-0.938-0.599-1.434-0.854c-0.567-0.292-1.068,0.563-0.5,0.854
		c0.238,0.124,0.468,0.26,0.695,0.399c-0.403,0.178-0.708,0.526-0.888,0.945c-0.045,0.027-0.089,0.055-0.134,0.082
		c-0.365-0.14-0.721-0.306-1.058-0.521c-0.54-0.344-1.036,0.512-0.5,0.856c0.173,0.109,0.354,0.206,0.536,0.297
		c-0.353,0.215-0.709,0.42-1.064,0.632c-0.201-0.133-0.403-0.268-0.604-0.402c-0.533-0.355-1.029,0.502-0.5,0.854
		c0.054,0.039,0.109,0.075,0.164,0.109c-0.415,0.244-0.832,0.482-1.251,0.717c-0.5-0.302-0.995-0.612-1.455-0.974
		c-0.495-0.391-1.201,0.304-0.7,0.699c0.375,0.297,0.767,0.563,1.166,0.821c-0.186,0.1-0.369,0.204-0.555,0.302
		C92.239,157.813,92.078,157.894,91.931,157.996z M92.525,181.22c0.262,0.428,0.497,0.88,0.699,1.353
		c-1.955,1.221-3.812,2.584-5.697,3.91c-0.229-0.49-0.486-0.968-0.755-1.438C88.652,183.716,90.617,182.511,92.525,181.22z
		 M89.04,191.093c-0.06-0.319-0.13-0.636-0.208-0.951c1.854-0.917,3.789-1.679,5.522-2.808c0.073,0.743,0.112,1.497,0.12,2.249
		C92.677,190.137,90.858,190.609,89.04,191.093z M94.468,190.619c-0.022,0.943-0.082,1.877-0.171,2.774
		c-0.029-0.003-0.053-0.013-0.085-0.011c-1.625,0.147-3.25,0.299-4.875,0.45c-0.016-0.587-0.065-1.175-0.142-1.758
		C90.958,191.607,92.722,191.146,94.468,190.619z M88.571,189.185c-0.181-0.604-0.402-1.195-0.643-1.779
		c1.874-1.314,3.719-2.668,5.655-3.888c0.287,0.861,0.496,1.771,0.636,2.711C92.487,187.473,90.493,188.263,88.571,189.185z
		 M90.049,178.647c0.75,0.482,1.385,1.077,1.917,1.759c-1.893,1.281-3.837,2.483-5.704,3.798c-0.266-0.415-0.548-0.821-0.844-1.218
		C87.02,181.605,88.456,180.031,90.049,178.647z M87.963,177.7c0.151,0.128,0.305,0.253,0.454,0.384
		c0.152,0.13,0.309,0.225,0.469,0.301c-1.37,1.264-2.656,2.626-4.076,3.835c-0.338-0.412-0.693-0.809-1.062-1.194
		c1.319-1.198,2.776-2.23,4.176-3.338C87.937,177.691,87.95,177.694,87.963,177.7z M82.704,201.658
		c-4.117,4.995-11.633,7.062-17.542,4.636c-1.381-0.746-2.645-1.7-3.92-2.816c-0.096-0.162-0.222-0.322-0.388-0.472
		c-5.596-5.031-4.035-13.303,0.323-18.636c4.856-5.941,12.812-6.446,18.672-1.601C85.426,187.378,87.557,195.773,82.704,201.658z
		 M86.312,176.373c0.098,0.335,0.291,0.639,0.586,0.872c-1.303,1.016-2.644,1.98-3.865,3.094c-0.13-0.122-0.25-0.253-0.383-0.37
		c-0.206-0.182-0.415-0.354-0.625-0.526c1.197-1.194,2.348-2.438,3.579-3.592C85.841,176.021,86.079,176.196,86.312,176.373z
		 M84.792,175.278c-1.215,1.154-2.362,2.38-3.557,3.559c-0.506-0.366-1.023-0.698-1.55-1.004c0.817-1.405,1.752-2.744,2.526-4.177
		C83.098,174.164,83.958,174.707,84.792,175.278z M81.347,173.177c-0.776,1.435-1.715,2.775-2.533,4.186
		c-0.413-0.207-0.83-0.396-1.252-0.569c0.63-1.521,1.308-3.032,1.727-4.618C79.986,172.485,80.674,172.817,81.347,173.177z
		 M78.37,171.788c-0.41,1.603-1.091,3.13-1.727,4.661c-0.617-0.211-1.242-0.373-1.869-0.51c0.718-1.548,1.526-3.161,1.753-4.818
		C77.148,171.32,77.763,171.542,78.37,171.788z M73.645,170.392c0.644,0.12,1.284,0.266,1.917,0.442
		c-0.18,1.689-1.033,3.341-1.773,4.92c-0.517-0.08-1.037-0.13-1.556-0.16c0.185-1.178,0.458-2.336,0.781-3.493
		C73.15,171.617,73.444,171,73.645,170.392z M70.566,170.064c0.256,0.009,0.51,0.014,0.767,0.031
		c0.425,0.027,0.849,0.077,1.27,0.133c-0.095,0.222-0.186,0.426-0.221,0.539c-0.227,0.714-0.427,1.437-0.618,2.16
		c-0.229,0.87-0.398,1.751-0.527,2.638c-0.341,0-0.681,0.011-1.021,0.033C70.315,173.751,70.389,171.903,70.566,170.064z
		 M69.585,170.055c-0.179,1.874-0.261,3.754-0.364,5.637c-0.628,0.077-1.251,0.193-1.868,0.345c-0.2-1.932-0.089-3.876-0.168-5.814
		C67.975,170.124,68.775,170.064,69.585,170.055z M66.202,170.364c0.078,1.979-0.016,3.958,0.195,5.931
		c-0.28,0.085-0.557,0.186-0.835,0.287c-0.288-1.981-0.404-3.982-0.529-5.979C65.42,170.514,65.81,170.432,66.202,170.364z
		 M64.06,170.851c0.129,2.042,0.26,4.084,0.565,6.108c-0.109,0.048-0.218,0.103-0.327,0.153c-0.616-1.912-1.267-3.81-1.855-5.729
		C62.975,171.186,63.513,171.003,64.06,170.851z M61.518,171.743c0.6,1.946,1.259,3.875,1.884,5.814
		c-0.3,0.16-0.596,0.333-0.889,0.512c-0.958-1.725-2.01-3.396-2.847-5.186c-0.037-0.075-0.083-0.131-0.135-0.171
		C60.18,172.354,60.841,172.03,61.518,171.743z M58.763,173.154c-0.002,0.075,0.011,0.151,0.048,0.229
		c0.844,1.804,1.904,3.489,2.87,5.225c-0.308,0.214-0.609,0.439-0.907,0.674c-1.268-1.646-2.351-3.425-3.298-5.276
		C57.897,173.707,58.324,173.419,58.763,173.154z M56.671,174.6c0.96,1.868,2.064,3.658,3.346,5.316
		c-0.316,0.28-0.623,0.577-0.924,0.883c-1.453-1.506-3.038-2.893-4.267-4.59C55.419,175.638,56.032,175.095,56.671,174.6z
		 M54.114,176.912c1.264,1.688,2.851,3.09,4.306,4.612c-0.014,0.014-0.029,0.03-0.042,0.045c-0.173,0.2-0.343,0.404-0.51,0.61
		c-1.616-1.36-3.143-2.824-4.672-4.284C53.497,177.563,53.801,177.234,54.114,176.912z M52.541,178.638
		c1.547,1.479,3.093,2.955,4.731,4.328c-0.254,0.35-0.495,0.71-0.728,1.076c-1.771-1.264-3.626-2.405-5.291-3.809
		C51.667,179.692,52.095,179.159,52.541,178.638z M50.665,181.026c1.696,1.415,3.573,2.58,5.367,3.862
		c-0.12,0.21-0.236,0.425-0.349,0.64c-1.943-1.107-3.937-2.127-5.757-3.424C50.165,181.742,50.411,181.384,50.665,181.026z
		 M49.403,182.932c1.856,1.304,3.871,2.353,5.841,3.483c-0.222,0.471-0.42,0.954-0.606,1.441c-2.064-1.087-4.215-2.024-6.101-3.402
		C48.812,183.94,49.096,183.431,49.403,182.932z M48.084,185.339c1.944,1.373,4.123,2.33,6.217,3.454
		c-0.173,0.524-0.317,1.056-0.445,1.591c-2.193-1.079-4.428-2.068-6.551-3.277C47.542,186.51,47.801,185.919,48.084,185.339z
		 M46.954,188.046c2.171,1.226,4.456,2.226,6.688,3.334c-0.047,0.251-0.086,0.503-0.122,0.754c-2.463-0.455-4.845-1.218-7.118-2.274
		C46.561,189.25,46.743,188.646,46.954,188.046z M46.173,190.836c2.313,1.05,4.724,1.831,7.226,2.279
		c-0.009,0.101-0.009,0.2-0.016,0.301c-2.499-0.326-4.979-0.798-7.49-0.832C45.964,191.999,46.051,191.413,46.173,190.836z
		 M45.795,193.572c2.524,0.021,5.023,0.497,7.536,0.826c-0.006,0.368-0.003,0.736,0.012,1.103c-2.505,0.438-5.043,0.428-7.58,0.4
		C45.725,195.12,45.741,194.345,45.795,193.572z M45.84,196.89c2.537,0.021,5.069,0.019,7.577-0.402
		c0.021,0.206,0.038,0.411,0.067,0.615c-2.478,0.434-4.942,0.939-7.401,1.472C45.974,198.01,45.896,197.449,45.84,196.89z
		 M47.009,201.818c-0.29-0.761-0.524-1.521-0.713-2.279c2.446-0.53,4.897-1.032,7.36-1.466c0.097,0.466,0.21,0.929,0.352,1.382
		c-2.224,1.049-4.56,1.837-6.878,2.66C47.09,202.016,47.047,201.919,47.009,201.818z M47.519,203.024
		c2.296-0.814,4.605-1.603,6.812-2.632c0.114,0.299,0.237,0.594,0.371,0.886c-2.172,1.02-4.182,2.354-6.28,3.524
		C48.096,204.224,47.795,203.631,47.519,203.024z M48.917,205.655c2.079-1.167,4.07-2.506,6.233-3.507
		c0.163,0.295,0.334,0.586,0.521,0.872c-0.923,0.577-1.751,1.283-2.635,1.939c-1.021,0.761-2.186,1.319-3.344,1.873
		C49.422,206.449,49.163,206.056,48.917,205.655z M50.274,207.627c0.949-0.468,1.896-0.943,2.801-1.498
		c1.124-0.688,2.074-1.59,3.176-2.289c0.125,0.16,0.248,0.322,0.379,0.48c-0.528,0.533-1.01,1.125-1.582,1.619
		c-1.204,1.041-2.409,2.155-3.864,2.818C50.869,208.39,50.569,208.012,50.274,207.627z M51.871,209.519
		c1.01-0.513,1.908-1.209,2.791-1.94c0.869-0.72,1.675-1.733,2.564-2.538c0.112,0.167,0.223,0.337,0.344,0.5
		c-1.415,1.8-3.096,3.378-4.536,5.16C52.632,210.32,52.247,209.923,51.871,209.519z M53.762,211.367
		c1.395-1.759,3.03-3.311,4.442-5.051c0.181,0.2,0.37,0.395,0.568,0.579c-1.088,1.938-2.63,3.577-3.896,5.405
		C54.496,212.001,54.125,211.688,53.762,211.367z M55.662,212.902c1.25-1.828,2.792-3.456,3.896-5.377
		c0.071,0.051,0.139,0.102,0.212,0.147c0.256,0.198,0.515,0.384,0.778,0.564c-0.943,2.014-2.016,3.966-2.918,5.997
		C56.954,213.819,56.298,213.374,55.662,212.902z M58.476,214.739c0.885-2.03,1.952-3.972,2.901-5.971
		c0.325,0.197,0.656,0.373,0.992,0.547c-1.019,1.962-1.917,3.985-2.782,6.021C59.213,215.146,58.841,214.948,58.476,214.739z
		 M60.468,215.771c0.869-2.041,1.77-4.065,2.794-6.032c0.249,0.111,0.5,0.213,0.753,0.31c-0.711,2.112-1.691,4.122-2.402,6.232
		C61.229,216.119,60.847,215.95,60.468,215.771z M62.532,216.646c0.707-2.129,1.697-4.147,2.417-6.271
		c0.247,0.078,0.5,0.138,0.75,0.205c-0.427,2.23-0.867,4.456-1.462,6.645C63.666,217.048,63.096,216.858,62.532,216.646z
		 M66.999,217.918c-0.582-0.114-1.163-0.242-1.745-0.395c-0.022-0.004-0.044-0.013-0.065-0.019c0.601-2.205,1.042-4.444,1.471-6.689
		c0.247,0.051,0.496,0.087,0.745,0.129C67.092,213.267,66.877,215.578,66.999,217.918z M69.658,218.308
		c-0.552-0.055-1.104-0.122-1.657-0.209c-0.141-2.354,0.06-4.68,0.376-7.018c0.44,0.049,0.881,0.078,1.325,0.097
		C70.117,213.512,69.592,215.928,69.658,218.308z M70.626,218.387c-0.129-2.4,0.432-4.816,0.081-7.192
		c0.431-0.004,0.864-0.029,1.295-0.064c0.056,1.335,0.103,2.674,0.21,4.006c0.083,1.034,0.422,2.192,0.539,3.302
		C72.046,218.448,71.337,218.432,70.626,218.387z M73.698,218.408c-0.07-0.512-0.181-1.023-0.284-1.546
		c-0.375-1.901-0.363-3.895-0.429-5.834c0.238-0.033,0.476-0.071,0.713-0.109c0.643,2.44,1.36,4.86,1.922,7.32
		C74.983,218.315,74.343,218.377,73.698,218.408z M76.606,218.109c-0.559-2.481-1.282-4.918-1.933-7.376
		c0.524-0.113,1.043-0.249,1.558-0.404c0.726,2.485,1.527,4.945,2.373,7.393C77.944,217.875,77.277,218.004,76.606,218.109z
		 M79.566,217.478c-0.855-2.469-1.663-4.952-2.394-7.46c0.468-0.165,0.929-0.354,1.386-0.555c1.128,2.401,1.645,5.081,2.733,7.478
		C80.721,217.136,80.147,217.321,79.566,217.478z M84.409,215.662c-0.726,0.352-1.465,0.669-2.214,0.954
		c-1.133-2.397-1.634-5.142-2.744-7.565c0.407-0.202,0.806-0.422,1.201-0.651c1.862,1.979,3.054,4.477,4.419,6.822
		C84.854,215.38,84.635,215.531,84.409,215.662z M85.844,214.584c-1.34-2.309-2.532-4.741-4.333-6.713
		c0.571-0.371,1.12-0.781,1.654-1.211c1.676,1.653,3.38,3.275,5.12,4.863C87.586,212.635,86.779,213.72,85.844,214.584z
		 M89.824,208.774c-0.302,0.595-0.644,1.236-1.018,1.885c-1.656-1.518-3.282-3.063-4.88-4.64c0.412-0.364,0.807-0.752,1.189-1.152
		c1.721,1.022,3.267,2.313,4.967,3.375C89.996,208.419,89.915,208.6,89.824,208.774z M90.517,207.347
		c-1.617-1.016-3.098-2.236-4.726-3.229c0.293-0.346,0.56-0.702,0.814-1.063c1.69,0.503,3.397,0.962,5.021,1.646
		C91.287,205.597,90.917,206.479,90.517,207.347z M91.965,203.774c-1.557-0.646-3.177-1.1-4.792-1.581
		c0.335-0.552,0.626-1.119,0.882-1.694c1.544,0.396,3.124,0.633,4.717,0.731C92.525,202.086,92.262,202.935,91.965,203.774z
		 M93.05,200.257c-1.561-0.082-3.106-0.305-4.621-0.684c0.288-0.788,0.502-1.591,0.654-2.405c1.554,0.17,3.124,0.069,4.684-0.122
		C93.565,198.122,93.331,199.195,93.05,200.257z M89.233,196.194c0.054-0.457,0.082-0.914,0.097-1.371
		c1.619-0.151,3.238-0.301,4.857-0.448c-0.072,0.577-0.152,1.133-0.238,1.661C92.384,196.241,90.797,196.363,89.233,196.194z
		 M173.321,212.168c-0.466-0.007-0.931-0.007-1.398-0.017c0.247-0.245,0.494-0.493,0.74-0.737c0.069-0.07,0.104-0.146,0.125-0.222
		c0.399,0.085,0.807,0.154,1.217,0.209C173.754,211.637,173.523,211.892,173.321,212.168z M176.818,212.206
		c-0.735-0.007-1.471-0.015-2.205-0.023c0.18-0.177,0.37-0.344,0.584-0.489c0.065-0.046,0.116-0.099,0.151-0.157
		c0.708,0.05,1.415,0.065,2.111,0.075C177.233,211.799,177.019,211.997,176.818,212.206z M201.384,211.09
		c0.416-0.44,0.843-0.87,1.272-1.298c0.451-0.451-0.25-1.152-0.701-0.699c-0.773,0.772-1.54,1.555-2.252,2.387
		c-0.696,0.106-1.396,0.201-2.098,0.279c0.601-0.798,1.274-1.519,2.111-2.093c0.524-0.358,0.029-1.216-0.498-0.854
		c-1.2,0.821-2.108,1.89-2.921,3.081c-0.575,0.053-1.15,0.104-1.729,0.142c0.507-0.636,1.029-1.26,1.601-1.837
		c0.45-0.455-0.251-1.156-0.699-0.701c-0.808,0.817-1.531,1.712-2.223,2.626c-0.617,0.034-1.232,0.063-1.852,0.085
		c0.645-0.81,1.271-1.633,1.812-2.518c0.333-0.545-0.522-1.042-0.854-0.499c-0.637,1.039-1.393,1.99-2.151,2.94
		c-0.029,0.036-0.052,0.076-0.069,0.114c-0.617,0.013-1.234,0.026-1.853,0.031c0.441-0.581,0.895-1.154,1.406-1.675
		c0.446-0.455-0.253-1.156-0.701-0.701c-0.703,0.718-1.3,1.529-1.9,2.33c-0.015,0.019-0.022,0.035-0.033,0.055
		c-0.79,0.002-1.577,0.002-2.367-0.003c0.375-0.434,0.723-0.885,1.027-1.377c0.335-0.544-0.521-1.041-0.856-0.499
		c-0.422,0.685-0.942,1.286-1.496,1.865c-0.575-0.006-1.151-0.014-1.727-0.019c0.313-0.354,0.628-0.707,0.96-1.044
		c0.449-0.455-0.25-1.155-0.699-0.7c-0.548,0.555-1.051,1.148-1.571,1.728c-0.682-0.007-1.362-0.013-2.04-0.019
		c0.054-0.04,0.103-0.083,0.157-0.122c0.207-0.14,0.253-0.358,0.204-0.548c0.957-0.247,1.409-1.15,1.361-2.03
		c0-0.005,0.004-0.009,0.004-0.013c1.005-4.196,0.444-8.476,0.4-12.738c-0.007-0.845-0.594-1.723-1.453-1.91
		c-4.104-0.894-9.292-1.473-11.911,1.297c-0.154-0.031-0.317-0.05-0.497-0.046c-9.251,0.231-18.37-1.673-27.47-3.077
		c-9.308-1.437-18.991-0.595-28.109-3.124c-2.465-0.683-3.511,3.139-1.053,3.819c9.41,2.609,19.368,1.775,28.965,3.256
		c8.792,1.356,17.614,3.161,26.544,3.1c-0.018,0.182-0.035,0.367-0.044,0.563c-0.15,3.12,1.022,6.79,3.509,8.785
		c0.867,0.695,1.84,1.165,2.869,1.487l-1.211,1.211c-0.608-0.011-1.216-0.018-1.824-0.031c0.275-0.382,0.566-0.75,0.9-1.088
		c0.447-0.457-0.252-1.156-0.7-0.701c-0.528,0.539-0.969,1.144-1.39,1.766c-0.364-0.007-0.729-0.013-1.093-0.021
		c0.375-0.606,0.804-1.18,1.233-1.752c0.384-0.512-0.476-1.005-0.855-0.5c-0.538,0.719-1.073,1.441-1.506,2.229
		c-0.594-0.015-1.187-0.022-1.78-0.039c0.294-0.495,0.624-0.972,1.024-1.387c0.444-0.459-0.256-1.16-0.7-0.701
		c-0.584,0.604-1.045,1.32-1.447,2.06c-0.597-0.015-1.194-0.031-1.791-0.048c0.317-0.475,0.634-0.952,0.975-1.411
		c0.381-0.515-0.479-1.007-0.854-0.499c-0.453,0.61-0.863,1.249-1.291,1.876c-0.539-0.015-1.077-0.029-1.616-0.046
		c0.315-0.371,0.629-0.741,0.924-1.129c0.387-0.508-0.475-0.999-0.855-0.499c-0.416,0.547-0.871,1.062-1.31,1.59
		c-0.963-0.031-1.925-0.061-2.887-0.091c0.51-0.638,1.019-1.274,1.53-1.912c0.394-0.493-0.301-1.198-0.7-0.699
		c-0.686,0.855-1.372,1.714-2.058,2.571c-0.434-0.017-0.869-0.031-1.305-0.046c0.315-0.428,0.619-0.865,0.897-1.318
		c0.334-0.546-0.522-1.043-0.854-0.5c-0.379,0.618-0.802,1.205-1.242,1.778c-0.815-0.029-1.63-0.057-2.446-0.084
		c0.511-0.531,1.05-1.034,1.628-1.5c0.496-0.4-0.209-1.096-0.7-0.699c-0.811,0.653-1.548,1.373-2.227,2.156
		c-0.561-0.021-1.122-0.039-1.682-0.059c0.45-0.484,0.924-0.943,1.469-1.32c0.521-0.362,0.025-1.222-0.5-0.855
		c-0.861,0.597-1.558,1.362-2.25,2.132c-0.748-0.025-1.494-0.049-2.241-0.076c0.742-0.772,1.437-1.594,2.254-2.291
		c0.486-0.415-0.217-1.112-0.7-0.701c-1.056,0.903-1.912,2.003-2.928,2.946c-0.554-0.02-1.107-0.038-1.662-0.058
		c0.61-0.667,1.208-1.343,1.845-1.985c0.449-0.453-0.251-1.154-0.7-0.699c-0.847,0.854-1.628,1.769-2.457,2.641
		c-0.544-0.019-1.087-0.036-1.631-0.057c0.412-0.763,0.945-1.471,1.546-2.087c0.446-0.457-0.254-1.158-0.699-0.701
		c-0.786,0.807-1.428,1.741-1.915,2.754c-0.494-0.017-0.988-0.035-1.483-0.052c0.535-0.742,1.151-1.414,1.868-2.001
		c0.494-0.405-0.21-1.102-0.7-0.701c-0.922,0.756-1.685,1.665-2.329,2.664c-0.604-0.02-1.207-0.042-1.811-0.06
		c0.48-0.676,1.013-1.312,1.597-1.903c0.448-0.455-0.25-1.156-0.7-0.701c-0.773,0.783-1.463,1.643-2.062,2.564
		c-0.408-0.011-0.815-0.027-1.222-0.038c0.444-0.549,0.855-1.12,1.224-1.723c0.334-0.547-0.522-1.044-0.854-0.499
		c-0.476,0.779-1.025,1.504-1.634,2.183c-0.591-0.018-1.183-0.038-1.774-0.055c0.002-0.003,0.005-0.003,0.007-0.009
		c0.506-0.834,1.069-1.651,1.849-2.254c0.498-0.385,0.006-1.245-0.499-0.854c-0.924,0.712-1.603,1.617-2.204,2.609
		c-0.109,0.179-0.084,0.35,0.003,0.482c-0.634-0.016-1.269-0.038-1.902-0.055c0.485-0.803,0.979-1.604,1.538-2.359
		c0.379-0.516-0.481-1.009-0.855-0.499c-0.668,0.903-1.243,1.868-1.821,2.83c-0.647-0.017-1.294-0.037-1.943-0.052
		c0.503-0.908,1.009-1.816,1.579-2.686c0.352-0.535-0.506-1.03-0.854-0.499c-0.671,1.021-1.251,2.095-1.844,3.159
		c-0.651-0.013-1.303-0.029-1.954-0.042l1.207-2.01c0.33-0.548-0.527-1.047-0.855-0.499l-1.494,2.489
		c-0.589-0.011-1.177-0.021-1.766-0.031c0.396-0.563,0.763-1.14,1.075-1.757c0.288-0.568-0.566-1.069-0.854-0.499
		c-0.401,0.79-0.889,1.519-1.418,2.229c-0.003,0.004-0.004,0.008-0.006,0.011c-0.695-0.009-1.39-0.021-2.085-0.03
		c0.408-0.752,0.78-1.526,1.123-2.318c0.25-0.579-0.602-1.083-0.856-0.499c-0.416,0.964-0.871,1.901-1.391,2.808
		c-0.774-0.005-1.549-0.016-2.324-0.02c0.514-0.891,1.01-1.79,1.656-2.593c0.396-0.493-0.299-1.198-0.7-0.701
		c-0.755,0.938-1.323,1.982-1.93,3.012c-3.285-3.81-2.408-10.194-2.159-14.867c0.203-3.789,0.92-8.397,5.031-9.73
		c2.462-0.796,5.256-0.39,7.75-0.02c4.006,0.594,7.998,1.285,11.983,2.003c3.565,0.641,7.103,1.387,10.705,1.795
		c4.056,0.457,8.149,0.556,12.222,0.761c7.852,0.399,15.598,1.855,23.436,2.504c7.915,0.655,15.853,1.084,23.683,2.485
		c4.725,0.847,8.145,2.039,9.264,7.102c0.106,0.48,0.175,0.988,0.208,1.506C206.01,206.871,204.685,209.916,201.384,211.09z
		 M216.225,209.278c-0.783,0.084-1.565,0.143-2.353,0.193c0.208-0.461,0.436-0.938,0.842-1.224c0.519-0.364,0.025-1.224-0.499-0.854
		c-0.714,0.501-1.02,1.244-1.394,2.002c-0.023,0.047-0.028,0.093-0.038,0.138c-0.484,0.025-0.969,0.05-1.453,0.073
		c0.442-0.648,0.867-1.31,1.333-1.941c0.379-0.515-0.48-1.007-0.855-0.5c-0.604,0.817-1.137,1.686-1.733,2.507
		c-0.208,0.011-0.417,0.021-0.627,0.033c1.224-2.919,1.446-6.451,0.656-9.509c-0.973-3.76-3.654-6.689-7.28-8.006
		c-3.122-1.133-6.773-1.419-10.047-1.863c-3.893-0.524-7.804-0.868-11.719-1.182c-7.857-0.626-15.611-1.473-23.423-2.479
		c-7.936-1.023-16.01-0.514-23.891-2.005c-7.191-1.36-14.568-3.077-21.884-3.541c-4.211-0.267-8.187,0.894-10.781,4.333
		c-2.66,3.527-2.613,8.738-2.709,12.919c-0.09,3.909-0.182,8.153,1.453,11.66c-0.334,0.027-0.67,0.038-1.007,0.04
		c0.122-0.26,0.236-0.524,0.363-0.786c0.279-0.57-0.575-1.072-0.854-0.499c-0.206,0.421-0.379,0.849-0.598,1.258
		c-0.212-0.013-0.423-0.027-0.634-0.045c0.285-0.596,0.546-1.204,0.717-1.847c0.165-0.615-0.789-0.878-0.954-0.261
		c-0.188,0.701-0.491,1.355-0.81,2.001c-0.232-0.027-0.465-0.053-0.695-0.083c0.249-0.518,0.521-1.023,0.914-1.437
		c0.439-0.465-0.26-1.166-0.701-0.701c-0.569,0.601-0.924,1.342-1.277,2.079c-0.104,0.011-0.209,0.017-0.31,0.038
		c2.02-4.31,3.206-9.147,3.856-13.069c1.136-6.849,0.924-16.322-4.793-20.827c12.576-12.966,30.095-17.343,47.049-21.833
		c1.17,6.721,1.235,13.587,1.484,20.395c-0.186,0.007-0.371,0.009-0.557,0.015c-0.384-0.634-0.758-1.275-1.127-1.921
		c-0.317-0.554-1.172-0.055-0.855,0.502c0.278,0.484,0.556,0.97,0.84,1.451c-0.43,0.013-0.861,0.031-1.29,0.036
		c-0.477-0.665-0.84-1.404-1.105-2.177c-0.206-0.601-1.163-0.342-0.955,0.264c0.234,0.679,0.533,1.316,0.896,1.921
		c-0.515,0.004-1.032,0.013-1.547,0.011c-0.243-0.57-0.479-1.142-0.751-1.701c-0.279-0.572-1.134-0.071-0.854,0.5
		c0.19,0.39,0.362,0.791,0.532,1.191c-0.362-0.003-0.726-0.007-1.089-0.013c-0.33-0.541-0.637-1.094-0.895-1.679
		c-0.256-0.583-1.109-0.077-0.854,0.5c0.175,0.397,0.377,0.778,0.589,1.153c-0.359-0.009-0.718-0.015-1.077-0.024
		c-0.193-0.404-0.394-0.803-0.655-1.167c-0.368-0.515-1.228-0.022-0.855,0.501c0.145,0.2,0.268,0.413,0.384,0.63
		c-0.384-0.015-0.77-0.022-1.154-0.039c-0.33-0.619-0.644-1.249-0.988-1.862c-0.313-0.554-1.169-0.055-0.855,0.502
		c0.243,0.43,0.469,0.872,0.697,1.313c-0.278-0.013-0.559-0.023-0.838-0.036c-0.541-0.789-0.933-1.67-1.31-2.547
		c-0.251-0.584-1.104-0.08-0.855,0.5c0.295,0.687,0.605,1.351,0.972,1.987c-0.344-0.018-0.688-0.035-1.032-0.051
		c-0.555-0.592-0.975-1.28-1.391-1.974c-0.328-0.546-1.185-0.049-0.855,0.501c0.287,0.477,0.582,0.948,0.909,1.396
		c-0.31-0.017-0.619-0.033-0.929-0.053c-0.312-0.57-0.634-1.135-0.97-1.692c-0.328-0.546-1.184-0.049-0.854,0.501
		c0.223,0.372,0.442,0.745,0.658,1.122c-0.354-0.02-0.705-0.042-1.057-0.063c-0.265-0.639-0.547-1.268-0.898-1.867
		c-0.323-0.548-1.179-0.051-0.855,0.501c0.246,0.42,0.456,0.855,0.652,1.296c-0.599-0.037-1.198-0.075-1.798-0.111
		c-0.226-0.395-0.412-0.817-0.563-1.258c-0.206-0.601-1.162-0.343-0.955,0.262c0.109,0.319,0.239,0.625,0.38,0.925
		c-0.372-0.022-0.744-0.047-1.115-0.069c-0.356-0.705-0.662-1.435-0.972-2.159c-0.251-0.584-1.104-0.081-0.855,0.5
		c0.228,0.532,0.455,1.065,0.699,1.591c-0.429-0.025-0.856-0.051-1.285-0.076c-0.381-0.626-0.768-1.25-1.173-1.863
		c-0.352-0.528-1.209-0.033-0.855,0.499c0.283,0.43,0.559,0.861,0.829,1.298c-0.29-0.015-0.579-0.033-0.87-0.049
		c-0.242-0.49-0.512-0.967-0.795-1.44c-0.327-0.548-1.184-0.049-0.855,0.501c0.175,0.291,0.346,0.586,0.51,0.885
		c-0.263-0.013-0.524-0.027-0.789-0.04c-0.258-0.566-0.525-1.127-0.866-1.653c-0.345-0.534-1.202-0.038-0.855,0.499
		c0.23,0.356,0.423,0.73,0.606,1.107c-0.334-0.013-0.668-0.029-1.003-0.042c-0.093-0.322-0.175-0.65-0.236-0.985
		c-0.112-0.626-1.065-0.361-0.954,0.264c0.042,0.231,0.094,0.461,0.151,0.687c-0.34-0.011-0.68-0.025-1.02-0.033
		c-0.175-0.559-0.323-1.125-0.482-1.686c-0.174-0.612-1.13-0.352-0.955,0.264c0.132,0.466,0.262,0.93,0.402,1.395
		c-0.184-0.003-0.368-0.011-0.551-0.015c-0.282-0.584-0.502-1.192-0.74-1.797c-0.232-0.586-1.19-0.332-0.955,0.262
		c0.201,0.508,0.392,1.021,0.608,1.522c-0.458-0.005-0.915-0.015-1.373-0.018c-2.555-0.009-2.554,3.951,0,3.96
		c8.023,0.035,16.009,0.804,24.009,1.314c8.083,0.518,16.007,0.324,24.065-0.444c8.046-0.768,16.082-1.651,24.105-2.629
		c3.677-0.448,7.354-0.923,11.025-1.42c3.157-0.428,6.45-0.564,9.468-1.623c0.337,1.127,0.79,2.208,1.375,3.181
		c1.812,3.021,5.238,3.618,7.958,1.393c1.465-1.196,2.59-2.782,3.052-4.474c6.887,1.703,13.797,3.315,20.634,5.204
		c-3.11,2.856-5.514,6.639-7.272,10.579C216.345,194.335,214.506,202.58,216.225,209.278z M219.499,202.591
		c2.214-0.008,4.424-0.048,6.624,0.247c0.038,0.006,0.068-0.003,0.102-0.007c0.076,0.33,0.16,0.655,0.253,0.978
		c-0.813,0.048-1.641,0.204-2.443,0.217c-1.521,0.022-3.041-0.044-4.558-0.14C219.473,203.456,219.48,203.024,219.499,202.591z
		 M219.847,207.57c-0.181-0.876-0.29-1.78-0.341-2.702c1.283,0.079,2.565,0.135,3.851,0.147c1.025,0.01,2.308-0.262,3.427-0.251
		c0.106,0.295,0.221,0.586,0.341,0.876C224.753,206.479,222.237,206.791,219.847,207.57z M220.081,208.534
		c2.447-0.807,5.017-1.146,7.447-2.001c0.019,0.038,0.033,0.078,0.053,0.116c-0.049,0.021-0.099,0.045-0.144,0.087
		c-1.901,1.765-4.017,3.256-6.097,4.798C220.784,210.609,220.376,209.599,220.081,208.534z M221.891,212.353
		c2.098-1.556,4.232-3.063,6.155-4.835c0.136,0.239,0.276,0.472,0.426,0.703c-0.907,1.133-2.142,2.05-3.119,3.113
		c-0.707,0.769-1.491,1.624-2.085,2.537C222.747,213.406,222.292,212.895,221.891,212.353z M225.915,215.59
		c-0.691-0.317-1.311-0.688-1.875-1.099c1.3-2.11,3.452-3.55,5.02-5.43c0.093,0.126,0.186,0.252,0.282,0.375
		c0.139,0.174,0.286,0.305,0.438,0.408c-0.008,0.011-0.017,0.015-0.022,0.025c-0.855,1.377-1.622,2.795-2.618,4.077
		C226.755,214.438,226.218,214.985,225.915,215.59z M227.12,215.897c-0.062-0.033-0.123-0.059-0.188-0.084
		c0.111-0.139,0.231-0.268,0.315-0.383c0.39-0.529,0.794-1.045,1.194-1.567c0.826-1.081,1.449-2.336,2.167-3.492l0.002-0.002
		c0.016,0.019,0.032,0.04,0.051,0.057c0.251,0.251,0.508,0.495,0.771,0.735c-0.918,1.847-2.164,3.503-3.11,5.331
		C227.916,216.304,227.514,216.106,227.12,215.897z M229.226,216.896c0.91-1.732,2.081-3.316,2.972-5.061
		c0.176,0.147,0.353,0.289,0.535,0.43c-0.903,1.641-1.704,3.328-2.389,5.073C229.968,217.197,229.593,217.052,229.226,216.896z
		 M231.275,217.66c0.648-1.65,1.407-3.249,2.262-4.806c0.255,0.179,0.517,0.346,0.783,0.506c-0.608,1.554-1.249,3.096-1.836,4.658
		C232.078,217.907,231.676,217.789,231.275,217.66z M235.018,218.53c-0.526-0.078-1.047-0.168-1.568-0.282
		c0.558-1.477,1.158-2.936,1.737-4.403c0.238,0.122,0.48,0.233,0.725,0.339C235.58,215.626,235.405,217.101,235.018,218.53z
		 M237.295,218.735c-0.43-0.014-0.859-0.041-1.285-0.083c0.354-1.356,0.528-2.748,0.838-4.115c0.152,0.051,0.313,0.091,0.47,0.135
		C237.357,216.026,237.308,217.379,237.295,218.735z M238.286,218.743c0.011-1.28,0.058-2.561,0.028-3.842
		c0.39,0.071,0.787,0.122,1.189,0.147c0.202,1.19,0.43,2.378,0.44,3.589C239.393,218.697,238.837,218.734,238.286,218.743z
		 M239.932,210.925c-0.566-0.111-1.125-0.268-1.679-0.51c-1.714-0.754-3.193-2.018-4.581-3.245
		c-2.875-2.544-3.827-5.906-3.915-9.621c0.328-2.908,1.539-5.73,3.511-7.827c4.399-4.68,11.708-2.196,14.493,2.945
		c2.495,4.602,1.151,10.762-1.682,14.861C244.338,210.045,242.16,211.041,239.932,210.925z M241.732,218.343
		c-0.266,0.058-0.533,0.109-0.799,0.156c-0.026-1.161-0.244-2.3-0.438-3.443c0.095-0.003,0.188-0.003,0.284-0.011
		c0.229-0.017,0.459-0.042,0.685-0.076c0.262,1.083,0.521,2.167,0.907,3.216C242.16,218.237,241.949,218.293,241.732,218.343z
		 M243.325,217.916c-0.378-1.024-0.633-2.084-0.888-3.145c0.435-0.11,0.855-0.262,1.271-0.428c0.331,1.031,0.779,2.016,1.257,2.992
		C244.429,217.549,243.883,217.745,243.325,217.916z M245.873,216.948c-0.482-0.985-0.931-1.979-1.255-3.023
		c0.415-0.215,0.819-0.455,1.207-0.719c0.596,0.952,1.213,1.897,1.621,2.937C246.937,216.433,246.412,216.7,245.873,216.948z
		 M248.304,215.628c-0.442-1.06-1.076-2.03-1.683-3.014c0.204-0.162,0.402-0.331,0.598-0.504c0.79,0.879,1.622,1.722,2.389,2.621
		C249.185,215.045,248.752,215.348,248.304,215.628z M250.376,214.126c-0.787-0.927-1.635-1.8-2.445-2.702
		c0.188-0.195,0.367-0.394,0.544-0.596c0.907,0.861,1.821,1.717,2.739,2.565C250.94,213.643,250.662,213.891,250.376,214.126z
		 M251.927,212.707c-0.948-0.879-1.892-1.763-2.829-2.651c0.262-0.348,0.514-0.706,0.75-1.072c1.034,0.872,2.085,1.727,3.096,2.626
		C252.615,211.984,252.28,212.354,251.927,212.707z M253.577,210.848c-1.053-0.93-2.146-1.813-3.216-2.724
		c0.2-0.346,0.386-0.699,0.564-1.058c1.169,0.868,2.378,1.685,3.565,2.527C254.199,210.021,253.897,210.444,253.577,210.848z
		 M255.028,208.767c-1.229-0.87-2.482-1.706-3.686-2.614c0.104-0.242,0.198-0.488,0.293-0.734c1.388,0.684,2.839,1.208,4.263,1.803
		C255.627,207.749,255.34,208.265,255.028,208.767z M256.324,206.334c-1.458-0.606-2.944-1.14-4.357-1.852
		c0.088-0.268,0.17-0.539,0.246-0.811c1.51,0.621,3.081,0.991,4.669,1.324C256.709,205.449,256.524,205.896,256.324,206.334z
		 M257.208,204.057c-1.613-0.339-3.212-0.712-4.749-1.344c0.124-0.532,0.222-1.069,0.301-1.608c1.654,0.446,3.328,0.847,5.045,0.772
		C257.643,202.616,257.442,203.343,257.208,204.057z M258.005,200.876c-1.755,0.112-3.444-0.309-5.131-0.766
		c0.044-0.471,0.069-0.944,0.076-1.416c1.779-0.44,3.599-0.694,5.372-1.165C258.296,198.661,258.196,199.781,258.005,200.876z
		 M252.938,197.678c-0.02-0.582-0.074-1.163-0.151-1.738c1.299-0.545,2.651-1.025,4.005-1.354c0.426-0.105,0.912-0.193,1.365-0.343
		c0.046,0.333,0.082,0.667,0.111,1.002c0.032,0.422,0.049,0.843,0.06,1.262C256.552,197.001,254.726,197.254,252.938,197.678z
		 M278.533,204.716c-0.149,0.013-0.303,0.042-0.463,0.091c-0.112,0.036-0.229,0.067-0.344,0.102c0.231-0.271,0.472-0.537,0.719-0.79
		c0.448-0.455-0.251-1.156-0.699-0.701c-0.592,0.602-1.127,1.259-1.643,1.927c-0.553,0.129-1.106,0.248-1.664,0.35
		c0.255-0.257,0.51-0.512,0.765-0.765c0.452-0.451-0.249-1.152-0.701-0.701l-1.726,1.727c-0.537,0.072-1.08,0.136-1.62,0.188
		c0.344-0.396,0.679-0.804,1.007-1.213c0.396-0.493-0.301-1.2-0.699-0.701c-0.564,0.703-1.133,1.398-1.767,2.036
		c-0.568,0.036-1.14,0.068-1.712,0.093c0.303-0.35,0.61-0.694,0.937-1.021c0.447-0.455-0.252-1.156-0.701-0.701
		c-0.552,0.559-1.062,1.154-1.561,1.761c-0.641,0.015-1.285,0.023-1.927,0.025c0.284-0.316,0.56-0.643,0.819-0.985
		c0.387-0.508-0.473-0.999-0.855-0.497c-0.398,0.524-0.849,1.009-1.308,1.482c-0.542-0.004-1.081-0.007-1.622-0.013
		c0.56-0.559,1.12-1.12,1.681-1.681c0.451-0.453-0.247-1.152-0.699-0.701l-1.944,1.944c1.921-5.584,2.028-11.837,0.124-17.35
		c-0.448-1.299-1.021-2.55-1.693-3.744c1.614,0.55,3.25,1.045,4.891,1.513c4.442,1.276,8.823,2.748,13.252,4.048
		c3.335,0.979,6.837,1.411,10.23,2.152c2.668,0.581,5.61,1.272,7.94,2.815c-0.163,0.262-0.258,0.555-0.298,0.854
		c-3.351-0.571-6.861-0.479-9.979,0.488C281.177,198.019,279.035,201.058,278.533,204.716z M282.407,205.218
		c0.747-1.361,1.676-2.6,2.561-3.869c0.659-0.404,1.407-0.71,2.222-0.925c-1.599,2.132-3.456,4.073-4.858,6.339
		C282.306,206.207,282.337,205.695,282.407,205.218z M282.803,207.926c1.586-2.833,3.949-5.126,5.803-7.788
		c0.153-0.021,0.313-0.028,0.47-0.047c-0.268,0.459-0.51,0.908-0.731,1.262c-1.419,2.238-2.862,4.461-4.279,6.702
		C283.642,208.013,283.224,207.973,282.803,207.926z M285.157,208.162c1.125-1.812,2.218-3.64,3.441-5.39
		c0.484-0.693,0.997-1.862,1.624-2.768c0.619-0.023,1.249-0.015,1.879,0.019c-1.91,2.684-3.688,5.455-5.408,8.267
		C286.181,208.252,285.669,208.21,285.157,208.162z M287.812,208.361c1.727-2.809,3.515-5.574,5.439-8.251
		c0.308,0.031,0.617,0.071,0.919,0.113c-1.904,2.607-3.596,5.348-5.109,8.199C288.644,208.404,288.227,208.387,287.812,208.361z
		 M291.396,208.488c-0.41-0.002-0.819-0.017-1.229-0.027c1.513-2.804,3.199-5.501,5.101-8.063c0.431,0.078,0.85,0.169,1.26,0.266
		c-1.628,2.633-3.387,5.185-5.004,7.826C291.482,208.49,291.438,208.49,291.396,208.488z M292.679,208.501
		c1.58-2.551,3.283-5.023,4.853-7.58c0.286,0.08,0.564,0.164,0.832,0.25c0.036,0.013,0.075,0.025,0.111,0.038
		c-1.573,2.452-3.38,4.752-4.804,7.3C293.34,208.507,293.009,208.505,292.679,208.501z M294.813,208.499
		c1.408-2.399,3.125-4.598,4.616-6.944c0.242,0.097,0.484,0.198,0.729,0.306c-1.451,2.148-2.822,4.349-4.113,6.599
		C295.634,208.479,295.223,208.492,294.813,208.499z M297.236,208.379c1.203-2.07,2.475-4.097,3.816-6.078
		c0.31,0.164,0.613,0.341,0.906,0.53c-1.11,1.832-2.334,3.593-3.486,5.398C298.063,208.29,297.651,208.341,297.236,208.379z
		 M300.688,207.757c-0.289,0.085-0.583,0.161-0.881,0.229c0.992-1.521,2.014-3.022,2.957-4.573c0.152,0.124,0.298,0.249,0.437,0.38
		c-0.773,1.288-1.548,2.577-2.274,3.894C300.834,207.713,300.752,207.736,300.688,207.757z M302.329,207.199
		c0.516-0.893,1.043-1.773,1.575-2.655c0.109,0.139,0.211,0.279,0.308,0.427C304.836,205.929,303.551,206.702,302.329,207.199z"/>
	<path fill="#3D3C3C" d="M127.112,164.802h6.6c2.555,0,2.555-3.96,0-3.96h-6.6C124.557,160.841,124.557,164.802,127.112,164.802z"/>
	<path fill="#3D3C3C" d="M133.711,166.783c-2.095-0.024-4.175-0.306-6.271-0.33c-2.554-0.029-2.551,3.931,0,3.96
		c2.096,0.024,4.176,0.306,6.271,0.33C136.267,170.772,136.264,166.812,133.711,166.783z"/>
</g>
</svg>
