<?xml version="1.0" encoding="utf-8"?>
<!-- Generator: Adobe Illustrator 16.0.0, SVG Export Plug-In . SVG Version: 6.00 Build 0)  -->
<!DOCTYPE svg PUBLIC "-//W3C//DTD SVG 1.1//EN" "http://www.w3.org/Graphics/SVG/1.1/DTD/svg11.dtd">
<svg version="1.1" id="Capa_1" xmlns="http://www.w3.org/2000/svg" xmlns:xlink="http://www.w3.org/1999/xlink" x="0px" y="0px"
	 width="350px" height="350px" viewBox="0 0 350 350" enable-background="new 0 0 350 350" xml:space="preserve">
<g>
	<path d="M132.546,176.223c8.364-4.921,14.949-15.48,10.815-27.974c-0.82-2.484-3.5-3.836-5.988-3.011
		c-2.485,0.82-3.836,3.504-3.011,5.988c2.641,7.989-1.916,14.054-6.619,16.822c-4.732,2.779-12.28,3.827-17.999-2.38
		c-1.778-1.925-4.774-2.053-6.699-0.28c-1.925,1.773-2.053,4.774-0.28,6.7c5.017,5.448,11.143,7.633,17.036,7.633
		C124.405,179.728,128.867,178.39,132.546,176.223z"/>
	<path d="M236.501,203.69c-2.485,0.82-3.836,3.504-3.012,5.988c2.642,7.989-1.915,14.058-6.618,16.827
		c-4.732,2.783-12.285,3.825-17.999-2.385c-1.777-1.926-4.77-2.054-6.699-0.28c-1.925,1.773-2.053,4.775-0.28,6.699
		c5.017,5.448,11.143,7.64,17.037,7.64c4.608,0,9.069-1.338,12.749-3.505c8.363-4.922,14.949-15.479,10.814-27.974
		C241.674,204.217,238.985,202.856,236.501,203.69z"/>
	<path d="M159.984,219.617c-2.465-0.878-5.177,0.427-6.045,2.891c-2.798,7.933-10.118,9.957-15.533,9.256
		c-5.443-0.692-12.057-4.485-12.783-12.901c-0.223-2.607-2.522-4.604-5.13-4.318c-2.608,0.222-4.542,2.517-4.319,5.13
		c1.128,13.143,11.375,20.265,21.028,21.496c1.039,0.134,2.101,0.2,3.172,0.2c8.885,0,18.596-4.638,22.498-15.708
		C163.749,223.195,162.454,220.488,159.984,219.617z"/>
	<path d="M179.879,196.9c1.038,0.133,2.096,0.199,3.172,0.199c8.885,0,18.596-4.633,22.498-15.708
		c0.872-2.471-0.422-5.178-2.893-6.045c-2.466-0.877-5.178,0.426-6.045,2.892c-2.797,7.932-10.104,9.924-15.533,9.255
		c-5.442-0.692-12.057-4.49-12.782-12.901c-0.223-2.608-2.527-4.599-5.13-4.32c-2.608,0.223-4.542,2.518-4.319,5.13
		C159.975,188.546,170.221,195.673,179.879,196.9z"/>
	<path d="M195.155,246.305c-2.518,0.727-3.964,3.358-3.242,5.87c2.332,8.084-2.457,13.969-7.265,16.558
		c-4.831,2.598-12.417,3.353-17.894-3.073c-1.697-1.995-4.694-2.232-6.685-0.535s-2.233,4.689-0.536,6.686
		c5.049,5.932,11.469,8.302,17.647,8.302c4.281,0,8.449-1.143,11.953-3.024c8.549-4.595,15.538-14.893,11.887-27.538
		C200.3,247.031,197.674,245.58,195.155,246.305z"/>
	<path d="M244.982,156.134c-5.661,6.226-13.181,5.235-17.902,2.494c-4.747-2.755-9.37-8.819-6.767-16.855
		c0.806-2.489-0.56-5.164-3.049-5.97c-2.48-0.806-5.168,0.56-5.97,3.049c-4.067,12.546,2.607,23.096,11.029,27.979
		c3.642,2.11,8.041,3.409,12.579,3.409c5.927,0,12.085-2.214,17.097-7.729c1.764-1.939,1.622-4.936-0.317-6.7
		C249.742,154.053,246.747,154.2,244.982,156.134z"/>
	<path d="M281.681,172.629c0-10.649-5.414-20.369-14.309-26.002c-0.906-12.261-9.015-22.772-20.611-26.789
		c-0.342-0.991-0.806-1.911-1.242-2.845c10.559-8.644,17.875-18.909,21.701-30.601c0.811-2.47-0.517-5.13-2.978-5.964
		c-32.265-10.972-50.595-5.424-59.693,0.118c-5.245-27.263-22.996-38.234-30.065-41.591c-0.868-0.882-2.03-1.456-3.338-1.456h-1
		c-1.233,0-2.286,0.522-3.087,1.333c-6.88,3.205-25.006,14.101-30.316,41.71c-9.104-5.538-27.443-11.081-59.694-0.119
		c-2.461,0.834-3.788,3.494-2.978,5.965c4.201,12.834,12.844,24.252,25.134,33.313c-12.603,4.03-21.402,15.656-21.402,29.221
		c0,1.925,0.185,3.85,0.545,5.742c-6.33,5.808-10.028,14.082-10.028,22.707c0,8.278,3.381,16.196,9.222,21.947
		c-2.912,4.794-4.48,10.327-4.48,15.983c0,13.247,8.254,24.641,20.307,28.955c-0.887,2.907-1.342,5.937-1.342,8.976
		c0,13.233,8.383,24.822,20.696,29.088c4.267,12.313,15.855,20.697,29.088,20.697c4.608,0,9.089-1.015,13.195-2.969
		c5.76,7.781,14.859,12.451,24.736,12.451c9.212,0,17.779-4.059,23.602-11.028c3.097,1.029,6.306,1.546,9.587,1.546
		c14.571,0,27.14-10.45,30.127-24.4c13.95-2.986,24.398-15.556,24.398-30.125c0-2.267-0.255-4.52-0.763-6.743
		c9.222-5.51,14.987-15.485,14.987-26.447c0-8.008-3.143-15.646-8.605-21.337C278.538,188.275,281.681,180.638,281.681,172.629z
		 M84.781,87.901c38.884-11.688,51.544,4.372,51.634,4.49c1.157,1.631,3.205,2.366,5.125,1.835c1.925-0.526,3.314-2.2,3.476-4.187
		c2.323-28.519,19.7-39.477,25.632-42.407c5.932,2.93,23.313,13.888,25.632,42.407c0.161,1.963,1.536,3.594,3.428,4.14
		c1.896,0.55,3.945-0.161,5.13-1.731c0.134-0.17,12.802-16.23,51.682-4.542c-3.418,7.866-8.856,14.95-16.22,21.151
		c-0.195-0.208-0.408-0.389-0.607-0.592c-0.352-0.36-0.706-0.711-1.076-1.057c-0.854-0.797-1.74-1.546-2.67-2.238
		c-0.204-0.151-0.402-0.308-0.611-0.451c-1.043-0.734-2.139-1.379-3.267-1.977c-0.347-0.185-0.697-0.356-1.049-0.526
		c-1.171-0.564-2.37-1.077-3.607-1.489c-0.085-0.028-0.166-0.066-0.252-0.095c-1.327-0.432-2.702-0.735-4.091-0.981
		c-0.352-0.062-0.701-0.118-1.063-0.166c-1.427-0.208-2.868-0.346-4.333-0.346c-10.517,0-20.056,5.301-25.666,13.755
		c-5.708-5.685-13.513-9.013-21.749-9.013c-8.008,0-15.646,3.143-21.336,8.605c-5.69-5.462-13.328-8.605-21.336-8.605
		c-1.233,0-2.447,0.095-3.651,0.237c-0.389,0.047-0.773,0.113-1.157,0.17c-0.811,0.128-1.612,0.284-2.404,0.479
		c-0.441,0.104-0.877,0.208-1.313,0.332c-0.744,0.213-1.475,0.475-2.195,0.745c-0.938,0.346-1.849,0.749-2.745,1.186
		c-0.375,0.185-0.759,0.351-1.128,0.555c-0.726,0.393-1.422,0.825-2.115,1.275c-0.18,0.119-0.36,0.237-0.541,0.36
		c-1.588,1.077-3.101,2.262-4.471,3.632C96.123,105.899,88.93,97.393,84.781,87.901z M263.1,197.844
		c5.699,4.003,9.099,10.53,9.099,17.458c0,8.591-5.111,16.306-13.024,19.658l-4.187,1.772l1.603,4.259
		c0.919,2.445,1.385,4.969,1.385,7.501c0,10.971-8.559,20.302-19.483,21.24l-3.978,0.342l-0.341,3.978
		c-0.939,10.925-10.27,19.482-21.242,19.482c-3.177,0-6.263-0.706-9.179-2.105l-3.784-1.812l-2.262,3.533
		c-3.948,6.178-10.667,9.867-17.964,9.867c-7.99,0-15.244-4.42-18.938-11.536l-2.475-4.77l-4.424,3.053
		c-3.575,2.467-7.756,3.77-12.095,3.77c-9.801,0-18.302-6.646-20.677-16.173l-0.688-2.765l-2.764-0.688
		c-9.521-2.37-16.173-10.871-16.173-20.677c0-3.518,0.834-6.875,2.485-9.98l3.12-5.874l-6.572-1.034
		c-10.426-1.641-17.998-10.487-17.998-21.042c0-5.012,1.778-9.886,5.012-13.727l3.291-3.911l-4.149-2.987
		c-5.566-4.012-8.895-10.483-8.895-17.306c0-6.809,3.162-13.053,8.672-17.136l2.674-1.982l-0.958-3.187
		c-0.602-2.01-0.905-4.073-0.905-6.145c0-10.407,7.444-19.241,17.699-21l2.385-0.408l1.066-2.172
		c0.574-1.171,1.271-2.243,2.02-3.267c0.028-0.033,0.066-0.047,0.09-0.085c1.967-2.637,4.433-4.718,7.202-6.183
		c0.161-0.085,0.317-0.175,0.483-0.256c0.507-0.251,1.029-0.465,1.55-0.673c0.365-0.142,0.73-0.28,1.1-0.403
		c0.431-0.142,0.863-0.28,1.304-0.394c0.526-0.137,1.063-0.246,1.598-0.341c0.341-0.062,0.678-0.138,1.024-0.181
		c0.92-0.123,1.84-0.199,2.779-0.199c6.927,0,13.451,3.399,17.458,9.099l3.878,5.519l3.878-5.519
		c4.006-5.699,10.53-9.099,17.458-9.099c7.634,0,14.732,4.139,18.535,10.796l5.287,9.27l3.333-10.137
		c2.887-8.772,11.027-14.67,20.26-14.67c1.1,0,2.171,0.109,3.229,0.275c0.322,0.048,0.64,0.119,0.958,0.181
		c0.759,0.151,1.503,0.346,2.232,0.573c0.313,0.1,0.631,0.19,0.939,0.304c0.962,0.355,1.896,0.759,2.793,1.242
		c0.175,0.095,0.331,0.218,0.507,0.317c0.716,0.413,1.403,0.868,2.067,1.361c0.337,0.251,0.659,0.526,0.977,0.796
		c0.47,0.394,0.915,0.812,1.347,1.243c0.322,0.322,0.646,0.64,0.948,0.986c0.45,0.512,0.863,1.062,1.261,1.621
		c0.195,0.271,0.413,0.517,0.593,0.797c0.005,0.009,0.02,0.014,0.024,0.023c1.257,1.939,2.219,4.106,2.802,6.454l0.688,2.764
		l2.764,0.688c9.521,2.371,16.174,10.872,16.149,21.028l-0.085,2.992l2.669,1.366c7.193,3.674,11.664,10.952,11.664,18.999
		c0,6.927-3.399,13.451-9.099,17.458l-5.52,3.878L263.1,197.844z"/>
</g>
</svg>
