<?xml version="1.0" encoding="utf-8"?>
<!-- Generator: Adobe Illustrator 16.0.0, SVG Export Plug-In . SVG Version: 6.00 Build 0)  -->
<!DOCTYPE svg PUBLIC "-//W3C//DTD SVG 1.1//EN" "http://www.w3.org/Graphics/SVG/1.1/DTD/svg11.dtd">
<svg version="1.1" id="Layer_1" xmlns="http://www.w3.org/2000/svg" xmlns:xlink="http://www.w3.org/1999/xlink" x="0px" y="0px"
	 width="350px" height="350px" viewBox="0 0 350 350" enable-background="new 0 0 350 350" xml:space="preserve">
<g>
	<g>
		<path fill="#D6DE23" d="M40.537,134.719c0.576-16.123,2.835-26.699,2.998-27.44l1.431-6.504l5.734-3.389
			C68.509,86.863,97.606,82.341,99.777,82.23l6.487-0.333c2.539-1.809,4.972-3.33,7.31-4.572
			c0.359-13.446,4.496-24.234,4.681-24.709l2.926-7.514l7.352,3.31c0.753,0.339,18.615,8.448,33.068,20.733
			c0.404,0.343,0.797,0.699,1.181,1.064c5.931-0.57,10.865-0.672,10.971-0.672c7.589,0,17.512,3.547,26.331,7.569
			c0.979-8.682,3.308-15.921,3.449-16.354l3.035-9.307l8.302,5.188c0.66,0.413,16.238,10.25,23.125,23.334
			c6.775,12.873,6.41,29.387,1.818,36.734c-0.94,1.504-2.105,2.821-3.439,3.931c1.924,3.287,3.389,6.397,4.495,9.206
			c5.549-5.153,11.813-11.346,14.775-14.333l8.671-8.743l4.005,11.644c0.554,1.608,2.7,7.965,4.021,13.51
			c9.897-18.672,20.374-55.53,20.374-55.53l8.478,18.339c0.327,0.708,8.022,17.615,8.657,41.649
			c0.56,21.173-4.472,51.955-30.698,80.87l-2.601,6.176c-0.03,0.18-0.054,0.361-0.086,0.539
			c0.079,17.602-4.888,38.713-16.644,49.001c-5.129,4.487-11.336,8.321-18.978,11.72c-1.136,0.504-2.394,0.761-3.737,0.76
			c-1.654,0-3.766-0.476-5.967-1.171c-0.947,2.39-2.598,4.831-5.867,5.938c-5.262,1.781-6.988,2.479-10.092,3.766
			c-1.831,0.76-3.754,1.183-5.724,1.259c-0.122,0.041-0.246,0.086-0.37,0.129c-0.594,0.201-1.305,0.444-2.115,0.629
			c-2.323,1.914-4.561,3.453-6.186,4.498l-6.721,4.32l-7.389-3.041c-9.598-3.951-30.834-16.72-35.216-30.966
			c-0.343-1.116-1.51-2.156-2.935-3.124c-0.672,3.119-1.23,7.015-1.333,11.571l-0.58,25.649c0,0-35.893-18.238-50.25-31.096
			c-2.796,4.062-5.86,11.581-5.86,11.581c-0.649-0.753-21.75-19.919-33.036-46.802C47.448,214.716,37.969,178.699,40.537,134.719z"
			/>
		<g>
			<path fill="#140317" d="M196.645,294.047c1.658-1.065,4.559-3.058,7.282-5.55c1.142,0.54,3.359-0.909,4.872-0.909h0.002
				c1.186,0,2.346-0.23,3.444-0.687c3.356-1.391,5.2-2.129,10.571-3.946c2.161-0.731,1.748-7.665,4.051-8.554
				c0,0,9.1,4.068,10.865,3.283c5.949-2.646,11.924-6.004,17.045-10.485c9.563-8.368,14.742-28.251,13.955-46.366
				c-0.654-15.027-5.613-29.891-14.748-39.117c5.164-10.421,12.791-29.158,11.747-43.413c-0.36-4.932-4.651-17.406-4.651-17.406
				s-17.857,18.006-24.459,22.658c-0.45-4.352-2.852-15.005-12.021-26.603c3.006-2.504,4.687-2.935,4.518-8.21
				c-0.12-3.806-4.65-9.371-12.675-14.274c-10.992-6.718-31.451-17.274-42.691-17.274c-2.544,0-22.392,1.329-25.258,3.719
				c-3.895,3.245,0,0,0.91,18.04l-6.426,1.495l-8.961-15.534l-2.759-0.919c-0.953-0.317-2.043-3.18-3.238-3.18
				c-5.041,0-11.416,2.864-18.949,8.514l-0.13,0.098l-8.772,0.45c-1.176,0.061-28.97,4.29-45.574,14.102l-2.867,1.694l-0.716,3.252
				c-0.266,1.209-6.437,30.014-0.17,66.187c5.83,33.655,23.966,80.136,77.256,110.448l11.149,6.343l0.291-12.826
				c0.335-14.855,4.95-23.58,4.95-23.58c1.812,3.46,11.928,5.375,14.29,13.055c3.349,10.887,21.93,22.479,30.812,26.137l3.694,1.521
				L196.645,294.047z"/>
			<path fill="#838A94" d="M128.838,91.258c0,0-4.138-1.379-15.173,6.897c0,0-13.794,21.38-11.035,37.933
				c0,0-6.897-22.07-2.069-35.864c0,0-20.595,1.379-35.768,10.345c0,0-31.045,112.514,67.09,168.334c0,0,0.9-40.515,10.135-55.185
				c0,0-2.032-18.342-8.634-36.349c0,0,16.22,16.348,29.324,51.521c0,0,2.694,19.3,5.188,27.407
				c2.02,6.565,12.904,13.505,23.107,17.706c0,0,10.805-3.602,12.605-7.803c0.807-1.883,3.318,4.615,5.703,3.627
				c5.221-2.164,7.801-17.8,14.854-15.33c9.004,3.15,25.209-0.9,28.36-13.506c2.603-10.411,12.869-13.521,12.179-29.385
				c-0.689-15.863-15.832-32.607-24.107-38.814c0,0,19.582-19.807,15.53-43.441c0,0-18.156,23.108-31.962,27.61
				c0.149-1.656,3.752-8.853,4.652-12.154c0,0-3.425-31.136-29.633-46.309c0,0,13.88,0.184,17.328,2.943
				c0,0,3.901-4.201-5.102-9.903c-12.291-7.785-37.745-19.248-41.882-15.799c-4.138,3.448-15.518,20.001-15.518,20.001
				l-14.828,3.448L128.838,91.258z"/>
			<path fill="#4D525A" d="M99.286,105.591c-1.969,13.487,3.344,30.497,3.344,30.497c-1.835-11.009,3.65-24.146,7.532-31.716
				c6.764-0.701,15.911-0.979,22.622,1.37c0,0-2.05-6.088-3.439-13.605l9.839,17.054l12.367-2.876
				c3.038,10.233,4.358,36.006,4.358,36.006s15.289-2.966,20.691,5.437c5.401,8.403,20.407,18.607,20.407,18.607l0.6,3.602
				c0,0-18.307,14.405-31.511,12.605c0,0,2.101,2.101,10.804,2.7c10.015,0.69,27.909,2.101,37.813,13.505c0,0-5.102-2.4-15.906,0
				c0,0,11.029,7.803,17.406,13.805c6.378,6.002,0.602,16.807,10.204,39.015c1.827,4.224,2.911,8.947,3.381,13.905
				c-2.039-0.08-3.96-0.416-5.632-1c-7.053-2.47-9.633,13.166-14.854,15.33c-2.385,0.988-4.896-5.51-5.703-3.627
				c-1.801,4.201-12.605,7.803-12.605,7.803c-10.203-4.201-21.088-11.141-23.107-17.706c-2.494-8.107-5.188-27.407-5.188-27.407
				c-13.104-35.174-29.324-51.521-29.324-51.521c6.602,18.006,8.634,36.349,8.634,36.349c-9.234,14.67-10.135,55.185-10.135,55.185
				c-98.135-55.82-67.09-168.334-67.09-168.334c0.395-0.233,0.795-0.458,1.197-0.681c0.486,0.033,0.77,0.055,0.77,0.055
				S82.497,104.323,99.286,105.591z"/>
			<path fill="#140317" d="M196.598,154.392c0,0,0.895,5.813-4.919,4.918c-5.813-0.894-8.049-19.673-19.673-21.015
				c-11.625-1.341-16.097,4.024-16.097,4.024s11.625-2.683,17.885,8.048c0,0-5.813-1.789-9.39-2.236c0,0,1.788,18.333,13.413,20.568
				c0,0-8.048,3.13-12.072,2.235c0,0,10.731,6.708,28.168,1.342C197.813,171.078,204.646,162.44,196.598,154.392z"/>
			<path fill="#D6DE23" d="M184.748,164.229c0,0-4.918-2.236-8.271-8.272l-2.459,6.483c0,0,1.568,1.775,5.813,2.459
				C183.295,165.458,184.748,164.229,184.748,164.229z"/>
			<path fill="#140317" d="M189.555,163.782c-5.254,2.012-11.849-2.459-11.849-2.459l1.081-3.95L189.555,163.782z"/>
			<path fill="#140317" d="M157.393,117.146c8.403-8.403,11.971-31.353-0.75-42.166c-13.794-11.725-31.253-19.586-31.253-19.586
				s-16.915,43.444,17.242,61.382C142.632,116.776,153.301,121.237,157.393,117.146z"/>
			<path fill="#838A94" d="M155.909,142.319c0,0,5.235-47.082-7.414-61.407c-6.143-6.955-17.587-12.759-17.587-12.759
				s-1.38,18.966,5.517,34.14c4.431,9.747,5.007,15.083,5.007,15.083L155.909,142.319z"/>
			<path fill="#4D525A" d="M140.287,123.747c0,0,0.569-11.707-3.862-21.454c-6.897-15.173-5.517-34.14-5.517-34.14
				s20.183,12.979,16.582,35.187c-1.237,7.629-3.301,18.907,8.419,38.979L140.287,123.747z"/>
			<path fill="#140317" d="M139.761,115.27c0,0,19.25-23.322-2.302-35.909c0,0,3.448,8.793,3.104,15.345
				c0,0-1.552-3.793-5.345-6.207C135.218,88.499,134.934,109.062,139.761,115.27z"/>
			<path fill="#FFFFFF" d="M252.977,230.736l4.159,11.343c-1.937,2.652-3.72,5.357-4.609,8.914
				c-2.327,9.307-11.771,13.946-20.177,14.471c-8.561-4.418-5.332-7.568-5.332-7.568
				C253.727,258.497,252.977,230.736,252.977,230.736z"/>
			<path fill="#140317" d="M250.275,183.919l-5.852-0.449l-9.453,4.051c0,0-8.554,29.261,18.006,43.216
				c0,0,4.652,19.057-5.514,30.185c0,0,21.27-20.432,22.17-44.74L250.275,183.919z"/>
			<path fill="#140317" d="M258.229,165.162c0,0,21.607-19.207,36.014-67.224c0,0,29.41,63.623-24.609,118.243
				c0,0-7.803,1.801-15.605-18.606S258.229,165.162,258.229,165.162z"/>
			<path fill="#FFFFFF" d="M241.256,192.642c0,0,38.58-22.677,51.785-67.694c0,0,10.977,56.659-40.75,93.211
				C252.291,218.159,238.498,211.953,241.256,192.642z"/>
			<g>
				<path fill="#140317" d="M240.822,267.199c-7.203,0-24.609,3.001-27.434-25.729c-1.846-18.774-11.785-38.502-24.618-34.573
					c-3.215,0.984-19.222,7.145-23.217,8.896c0,0,22.275,13.334,33.893,29.793c10.495,14.867,17.968,27.614,26.37,28.215
					L240.822,267.199z"/>
				<path fill="#140317" d="M177.887,218.127l-12.333-2.333c0,0,12.288,17.712,13.098,25.81
					C178.651,241.604,183.809,231.366,177.887,218.127z"/>
				<path fill="#FFFFFF" d="M206.463,242.036c0,0-1.386-13.621-7.071-20.685c-5.685-7.063-7.366-6.415-7.366-6.415l-3.352,1.111
					c0,0,5.152,4.931,6.428,8.657c0,0-8.531-5.392-11.754-6.837l-1.964,1.107C181.384,218.976,199.924,229.527,206.463,242.036z"/>
			</g>
			<path fill="#140317" d="M242.924,247.392c-6.378-4.501-5.928-11.028-5.252-16.205c0.674-5.178,2.25-9.229-2.927-11.479
				s-10.354-1.575-12.154-1.126c-1.978,0.494-2.927,11.48-0.675,15.307c0,0,2.701-3.151,4.051-4.052
				c1.351-0.9,4.502-0.45,4.502-0.45s-0.185,3.805,2.25,8.553C237.221,246.717,242.924,247.392,242.924,247.392z"/>
			<path fill="#140317" d="M266.031,216.781c0,0-15.305-5.627-20.707-17.557c0,0,0,13.055,6.967,18.935L266.031,216.781z"/>
			<path fill="#140317" d="M250.126,181.969l-15.155,5.552c0,0-6.152-6.452-4.727-13.955
				C230.244,173.565,245.624,183.77,250.126,181.969z"/>
			<path fill="#140317" d="M214.713,198.774c-11.704-9.003-37.813-13.505-37.813-13.505s14.405-6.302,25.209,0.9
				S214.713,198.774,214.713,198.774z"/>
			<path fill="#140317" d="M218.014,279.478c0,0-13.582-15.091-30.182-21.881c0,0,14.336,14.336,20.373,26.408L218.014,279.478z"/>
			<path fill="#140317" d="M215.613,99.139c0,0-7.23-2.512-8.104-10.804c-1.2-11.405,3.302-25.209,3.302-25.209
				s14.405,9.003,20.407,20.407c5.702,10.833,5.102,24.309,2.101,29.111s-8.719,4.309-8.719,4.309S218.014,103.94,215.613,99.139z"
				/>
			<path fill="#140317" d="M293.041,124.948c0,0,4.201,42.015-31.211,70.225c0,0,30.611-10.804,36.613-53.419
				C298.443,141.754,296.643,129.75,293.041,124.948z"/>
			<path fill="#140317" d="M142.018,223.719c0,0-23.64-24.044-30.842-61.857c0,0-8.103,56.72-1.8,89.132
				c0,0-31.512-41.414-20.708-98.135c0,0-10.804,10.804-14.405,20.708c0,0-13.537-32.359-9.469-62.997l-9.438,6.276
				c0,0-23.409,113.441,78.328,165.66L142.018,223.719z"/>
			<path fill="#140317" d="M139.248,291.901c0,0-29.422-11.197-43.377-31.004c0,0-6.319,6.904-8.211,11.4
				c0,0-55.765-58.056-35.932-166.626C51.728,105.672,78.188,235.573,139.248,291.901z"/>
			<path fill="#FFFFFF" d="M256.128,139.353c0.854,4.987,0.649,9.801-0.194,14.297c-3.194,6.878-8.333,14.366-16.611,21.115
				c0,0,8.248-12.273,10.574-28.13C253.676,142.471,256.128,139.353,256.128,139.353z"/>
			<path fill="#140317" d="M260.93,144.155c-2.4,20.107-21.607,30.611-21.607,30.611c17.105-19.807,16.806-35.413,16.806-35.413
				l3.302-3.901L260.93,144.155z"/>
			<path fill="#140317" d="M250.727,255.945c-8.104,10.804-23.709,5.252-24.31-4.352c0,0-8.243,13.786,0,17.406
				C244.874,277.103,250.727,255.945,250.727,255.945z"/>
		</g>
		<g>
			<path fill="#FFFFFF" d="M228.818,154.809c-0.9,3.301-4.503,10.498-4.652,12.154c0,0-0.293-34.396-24.98-58.463
				C225.394,123.673,228.818,154.809,228.818,154.809z"/>
			<path fill="#FFFFFF" d="M170.982,85.19c6.808-1.022,29.152,9.207,40.43,16.35c9.003,5.702,5.102,9.903,5.102,9.903
				c-1.561-1.249-5.256-1.968-8.835-2.384C199.707,97.938,179,86.234,170.982,85.19z"/>
		</g>
		<g>
			<path fill="#FFFFFF" d="M131.86,68.657c2.865,1.548,11.558,6.507,16.635,12.256c5.95,6.738,7.942,20.723,8.384,33.647
				C155.015,105.843,147.853,77.573,131.86,68.657z"/>
			<path fill="#FFFFFF" d="M131.708,68.575c-0.265-0.145-0.531-0.287-0.8-0.421C130.908,68.153,131.198,68.301,131.708,68.575z"/>
		</g>
	</g>
</g>
</svg>
