<?xml version="1.0" encoding="utf-8"?>
<!-- Generator: Adobe Illustrator 16.0.0, SVG Export Plug-In . SVG Version: 6.00 Build 0)  -->
<!DOCTYPE svg PUBLIC "-//W3C//DTD SVG 1.1//EN" "http://www.w3.org/Graphics/SVG/1.1/DTD/svg11.dtd">
<svg version="1.1" id="Layer_1" xmlns="http://www.w3.org/2000/svg" xmlns:xlink="http://www.w3.org/1999/xlink" x="0px" y="0px"
	 width="350px" height="350px" viewBox="0 0 350 350" enable-background="new 0 0 350 350" xml:space="preserve">
<g>
	<path fill="#FFEE90" d="M63.379,138.537c0,0,19.022,21.369,40.625,25.595c21.599,4.226,104.489,22.54,147.461,13.146
		c42.968-9.389,34.75-25.122,32.638-31.227c-2.113-6.105-14.323-11.272-13.386-17.846c0.941-6.574,0-12.444,0-12.444l-19.018,7.276
		c0,0,1.64-11.268-9.862-19.49c-11.507-8.218-17.846-9.624-21.838-1.406c-3.991,8.218-4.46,14.323-4.46,14.323l1.171,4.46
		l-21.13,1.176l-22.311-11.975c0,0-5.163-20.193-13.85-20.432c-8.691-0.234-17.377,12.448-17.377,12.448s-9.628-7.983-16.202-9.394
		c-6.578-1.41-17.611,3.757-17.611,8.218s0.937,10.331,0.937,10.331l0.708,3.055l-4.934,3.05c0,0-6.808-9.862-14.088-9.628
		c-7.281,0.239-11.507,8.457-11.507,8.457l-2.113,5.636c0,0-8.687,0.234-11.741,4.929C62.442,131.49,58.216,136.424,63.379,138.537z
		"/>
	<path fill="#1D1D1B" d="M294.988,174.837c1.572,68.329-71.51,99.19-129.499,88.306c-60.714-11.398-118.154-57.764-109.666-124.705
		c0.369-3.045,4.893-3.275,4.893,0c0,0.37,0.045,0.784,0.045,1.153c0.274-0.369,0.599-0.739,1.014-1.014
		c-2.352-2.586-3.83-5.677-2.906-9.182c1.847-6.736,9.087-8.443,15.363-9.272c2.537-7.339,7.2-16.796,16.147-16.242
		c7.844,0.464,16.932,8.074,16.792,16.332c-0.045,1.937-2.212,2.631-3.55,1.478c-4.199-3.46-6.412-12.183-13.242-11.763
		c-6.69,0.369-9.687,8.164-11.024,13.701c-0.23,0.969-1.108,1.892-2.077,2.077c-2.167,0.459-12.043,1.982-11.764,5.533
		c0.275,4.108,4.474,8.213,7.056,11.074c0.554,0.644,0.604,1.383,0.324,2.032c28.42,19.977,69.018,26.158,102.142,29.064
		c33.448,2.951,68.284,3.32,100.764-6.276c7.29-13.057,8.993-21.405-6.461-30.217c-0.645-0.37-1.153-0.879-1.567-1.523
		c-1.848-3.181-1.434-9.272-1.063-14.395c-4.614,1.063-9.457,2.122-12.962,4.893c-2.767,2.212-7.43,1.059-7.38-3.045
		c0.364-24.406-29.943-32.665-25.56-3.69c0.32,1.982-0.464,4.659-2.815,5.028c-4.474,0.644-13.196,0.689-16.472,4.06
		c-2.307,2.352-5.628,0.923-6.69-1.753c-7.84-1.847-15.639-3.69-23.482-5.537c-0.924,1.293-3.275,0.554-2.676-1.108
		c0.37-1.014,0.739-1.843,1.153-2.721c-0.459-0.599-0.829-1.293-0.874-2.077c-0.464-7.519-1.063-17.715-9.227-21.22
		c-9.412-4.06-13.102,7.475-14.58,14.395c-0.644,3.136-5.537,3.875-6.965,0.924c-3.37-6.97-10.105-16.611-19.288-12.827
		c-7.655,3.181-9.502,10.935-6.781,18.225c0.829,2.072-2.396,3.275-3.505,1.473c-5.952-9.781-2.771-20.761,7.794-25.604
		c9.461-4.334,17.95,0.878,23.807,8.074c3.645-8.628,10.66-16.886,20.855-12.593c9.227,3.875,14.58,12.593,15.454,22.099
		c7.659-5.353,17.07,0.644,23.576,11.669c2.722-1.153,5.857-1.613,8.533-2.122c8.119-1.523,3.415,0.739,3.275-7.01
		c-0.185-6.92,3.925-15.089,10.565-17.81c17.256-7.06,29.114,7.799,31.88,23.068c4.938-2.077,9.921-2.676,15.963-5.028
		c2.722-1.014,5.627,1.613,5.582,4.289c-0.045,12.597,1.568,12.642,8.259,21.27c2.217,2.816,5.307,6.091,5.861,9.826
		c1.474,9.228-0.419,16.607-5.582,23.762c0.365,0.919,0.504,1.938,0.414,2.906C286.779,167.687,294.854,169.165,294.988,174.837z
		 M284.148,175.116c-0.645,1.198-1.708,2.212-3.32,2.766c-36.863,12.782-80.647,10.565-118.659,5.213
		c-34.926-4.934-75.294-13.61-100.948-39.814c-0.135-0.185-0.23-0.415-0.37-0.599c2.492,56.426,50.384,98.313,104.084,108.278
		c26.158,4.844,55.961,3.875,79.304-10.331C269.848,225.031,277.273,202.428,284.148,175.116z"/>
	<path fill="#F6F6F6" d="M280.828,177.882c1.612-0.554,2.676-1.567,3.32-2.766c-6.875,27.312-14.301,49.915-39.909,65.513
		c-23.343,14.206-53.146,15.175-79.304,10.331c-53.7-9.966-101.592-51.853-104.084-108.278c0.14,0.185,0.234,0.415,0.37,0.599
		c25.654,26.204,66.022,34.88,100.948,39.814C200.181,188.447,243.965,190.664,280.828,177.882z"/>
	<path fill="#1D1D1B" d="M244.01,152.463c-0.924,0.739-1.568,0.459-2.307-0.229c-0.784,0.414-1.658,0.784-2.812,1.014
		c-2.172,0.369-3.879-0.325-5.123-2.122c-1.293-1.753-4.523-7.844-6.506-7.245c-3.965,1.248-7.889,2.586-11.903,3.74
		c-2.905,0.829-8.813-5.952-10.425-3.875c-2.632,3.411-4.06,8.074-6.137,11.898c-1.707,3.046-7.104,0.924-5.767-2.442
		c1.847-4.663,3.275-13.795,8.303-16.472c1.848-0.923,3.556-1.478,5.632-1.198c2.213,0.32,7.24,3.83,9.043,3.275
		c4.519-1.523,9.826-4.614,14.76-3.37c3.275,0.833,5.816,4.339,7.983,7.384c2.446-1.478,4.843-2.491,7.704-0.14
		c3.186,2.631,6.596,5.258,7.749,9.412c1.388,5.028-5.487,11.164-9.132,13.471c-2.217,1.428-5.907,0.14-6.366-2.582
		c-0.649-3.51,0.09-6.231,2.951-8.627C242.396,153.707,243.271,153.152,244.01,152.463z"/>
	<path fill="#1D1D1B" d="M168.256,137.514c0.969,3.785-4.474,6.231-6.411,2.676c-1.014-1.893-2.122-11.12-4.015-11.12
		c-3.969,0.045-7.195,0.649-10.29,3.415c-3.091,2.721-4.334,4.659-8.533,3.969c-2.582-0.464-4.474-0.739-6.69-0.554
		c1.153,3.46,4.199,5.717,5.861,9.227c1.244,2.582-2.122,4.474-3.785,2.212c-4.059-5.537-8.348-6.596-9.272-14.115
		c-0.185-1.478,1.153-2.861,2.446-3.23c2.627-0.829,5.073-1.428,7.84-1.244c1.802,0.135,3.829,1.568,5.397,0.135
		c3.415-3.091,6.83-5.722,11.443-6.641c3.46-0.739,9.087-1.478,11.624,1.708C167.058,127.962,167.012,132.625,168.256,137.514z"/>
</g>
</svg>
