<?xml version="1.0" encoding="utf-8"?>
<!-- Generator: Adobe Illustrator 16.0.0, SVG Export Plug-In . SVG Version: 6.00 Build 0)  -->
<!DOCTYPE svg PUBLIC "-//W3C//DTD SVG 1.1//EN" "http://www.w3.org/Graphics/SVG/1.1/DTD/svg11.dtd">
<svg version="1.1" id="Capa_1" xmlns="http://www.w3.org/2000/svg" xmlns:xlink="http://www.w3.org/1999/xlink" x="0px" y="0px"
	 width="350px" height="350px" viewBox="0 0 350 350" enable-background="new 0 0 350 350" xml:space="preserve">
<g id="XMLID_11_">
	<path id="XMLID_121_" fill="#4C4031" d="M191.077,129.59c-5.371,0-10.737-2.046-14.824-6.129c-1.636-1.639-1.636-4.293,0-5.928
		c1.639-1.639,4.292-1.639,5.928,0c4.901,4.901,12.879,4.901,17.789,0c1.639-1.639,4.293-1.639,5.928,0
		c1.64,1.635,1.64,4.289,0,5.928C201.814,127.544,196.448,129.59,191.077,129.59"/>
	<path id="XMLID_120_" fill="#C7B6A1" d="M217.066,219.812L217.066,219.812v-0.008v-16.766c0-3.551,10.972-9.798,26.127-12.095
		c-5.282-11.37-13.248-21.659-23.713-29.683L189.094,140.6c-1.589-1.216-3.287-2.335-5.057-3.333
		c-2.326-7.102-3.928-14.426-4.725-21.851l-2.171-20.179c-0.192-1.786-0.192-3.584,0.021-5.366c0.269-2.26,0.565-5.5,0.691-5.87
		c0.265-0.763,0.625-1.626,0.978-2.473c1.728-3.413,3.814-6.985,5.962-9.635c0.759-0.847,1.5-1.706,2.389-2.457
		c4.873-4.125,3.619-11.877-2.44-13.881c-3.298-1.094-6.879-1.895-10.535-2.092c-0.348-0.021-0.7,0.008-1.048,0
		c-0.834-0.017-1.673-0.05-2.511,0.004c-4.905,0.293-9.84,1.845-14.33,5.434c-1.505,1.207-3.299,1.807-5.098,1.824
		c-1.824-0.004-3.652-0.612-5.178-1.833c-5.576-4.452-11.835-5.772-17.881-5.429c-3.656,0.197-7.232,0.998-10.531,2.092
		c-6.059,2.004-7.312,9.756-2.44,13.881c0.511,0.432,1.056,0.989,1.605,1.564c0.172,0.172,0.339,0.344,0.503,0.516
		c0.717,0.784,1.447,1.665,2.185,2.604c2.453,3.367,4.121,6.989,5.119,9.881c0.281,0.813,0.565,5.304,1.006,7.761
		c0.281,1.564,0.465,3.132,0.465,4.721v14.624c0,8.54-1.069,17.034-3.089,25.314c-1.992,0.981-3.92,2.092-5.689,3.48l-29.549,21.528
		c-29.066,22.85-38.852,63.16-22.128,96.134c6.972,13.756,16.636,25.562,27.985,26.329c1.048,0.075,2.101,0.113,3.169,0.113h82.567
		c-1.044-1.74-1.896-3.786-2.569-5.962c0.436-0.018,0.871-0.013,1.304-0.046c27.348-1.846,45.014-18.854,38.999-43.037v-15.147
		H217.066z"/>
	<path id="XMLID_119_" fill="#D19D18" d="M254.799,227.791c-20.841,0-37.732-3.572-37.732-7.983v16.774
		c0.013,4.406,16.899,7.979,37.732,7.979c20.832,0,37.72-3.572,37.732-7.979v-16.774
		C292.531,224.219,275.645,227.791,254.799,227.791"/>
	<path id="XMLID_118_" fill="#D19D18" d="M217.066,219.804L217.066,219.804L217.066,219.804z"/>
	<path id="XMLID_117_" fill="#D19D18" d="M292.531,219.804L292.531,219.804L292.531,219.804z"/>
	<path id="XMLID_116_" fill="#FCC62D" d="M292.531,203.038c0,4.411-16.892,7.982-37.732,7.982s-37.732-3.571-37.732-7.982
		c0-4.406,16.892-12.979,37.732-12.979C275.645,190.059,292.531,198.632,292.531,203.038"/>
	<path id="XMLID_115_" fill="#E4AF18" d="M254.799,211.021c-20.841,0-37.732-3.571-37.732-7.982v16.773
		c0.013,4.407,16.899,7.979,37.732,7.979c20.832,0,37.72-3.572,37.732-7.979v-16.773
		C292.531,207.449,275.645,211.021,254.799,211.021"/>
	<path id="XMLID_114_" fill="#E4AF18" d="M217.066,203.034L217.066,203.034L217.066,203.034z"/>
	<path id="XMLID_113_" fill="#E4AF18" d="M292.531,203.034L292.531,203.034L292.531,203.034z"/>
	<path id="XMLID_112_" fill="#6B5B46" d="M179.334,124.689h-54.502c-2.314,0-4.193-1.878-4.193-4.192
		c0-2.314,1.878-4.193,4.193-4.193h54.502c2.313,0,4.191,1.878,4.191,4.193C183.525,122.807,181.647,124.689,179.334,124.689"/>
	<path id="XMLID_111_" fill="#6B5B46" d="M179.334,112.111h-54.502c-2.314,0-4.193-1.878-4.193-4.192s1.878-4.193,4.193-4.193
		h54.502c2.313,0,4.191,1.878,4.191,4.193S181.647,112.111,179.334,112.111"/>
	<path id="XMLID_110_" fill="#6B5B46" d="M179.334,99.534h-54.502c-2.314,0-4.193-1.878-4.193-4.193
		c0-2.314,1.878-4.192,4.193-4.192h54.502c2.313,0,4.191,1.878,4.191,4.192C183.525,97.656,181.647,99.534,179.334,99.534"/>
	<path id="XMLID_109_" fill="#E4AF18" d="M254.799,278.101c-8.439,0-16.204-0.592-22.489-1.581
		c-1.924,5.773-5.597,10.729-10.384,14.279c6.469,2.428,18.757,4.071,32.873,4.071c20.832,0,37.72-3.571,37.732-7.978v-16.774
		C292.531,274.528,275.645,278.101,254.799,278.101"/>
	<path id="XMLID_108_" fill="#E4AF18" d="M254.799,244.561c-20.841,0-37.732-3.572-37.732-7.982v4.167
		c7.739,3.686,13.592,10.637,15.793,19.089c6.184,0.938,13.747,1.496,21.939,1.496c20.832,0,37.72-3.571,37.732-7.978v-16.774
		C292.531,240.988,275.645,244.561,254.799,244.561"/>
	<path id="XMLID_107_" fill="#D19D18" d="M254.799,261.33c-8.192,0-15.756-0.558-21.939-1.496c0.616,2.369,0.977,4.839,0.977,7.395
		c0,3.25-0.549,6.369-1.526,9.291c6.285,0.989,14.05,1.581,22.489,1.581c20.832,0,37.72-3.572,37.732-7.979v-16.774
		C292.531,257.759,275.645,261.33,254.799,261.33"/>
	<path id="XMLID_106_" fill="#FCC62D" d="M233.836,267.233c0,16.208-13.14,29.348-29.347,29.348
		c-16.209,0-29.348-13.14-29.348-29.348s13.139-29.347,29.348-29.347C220.701,237.887,233.836,251.021,233.836,267.233"/>
	<path id="XMLID_105_" fill="#DBCCBA" d="M87.099,225.309c-2.314,0-4.192-1.878-4.192-4.192c0-28.798,31.816-62.887,58.695-62.887
		c2.314,0,4.192,1.878,4.192,4.192c0,2.314-1.878,4.192-4.192,4.192c-22.099,0-50.31,30.563-50.31,54.502
		C91.292,223.426,89.413,225.309,87.099,225.309"/>
</g>
</svg>
