<?xml version="1.0" encoding="utf-8"?>
<!-- Generator: Adobe Illustrator 16.0.0, SVG Export Plug-In . SVG Version: 6.00 Build 0)  -->
<!DOCTYPE svg PUBLIC "-//W3C//DTD SVG 1.1 Tiny//EN" "http://www.w3.org/Graphics/SVG/1.1/DTD/svg11-tiny.dtd">
<svg version="1.1" baseProfile="tiny" id="Layer_1" xmlns="http://www.w3.org/2000/svg" xmlns:xlink="http://www.w3.org/1999/xlink"
	 x="0px" y="0px" width="350px" height="350px" viewBox="0 0 350 350" overflow="scroll" xml:space="preserve">
<g>
	<path fill="#676F37" d="M188.782,98.307c-5.357,1.443-17.219,3.828-27.584,0.291c-0.132,1.917-0.141,3.131-0.141,3.35l0,0.096v93.2
		h27.884v-93.296C188.942,101.718,188.935,100.398,188.782,98.307 M175.345,132.591c2.739,0,4.966,2.155,4.966,4.806v21.313
		c0,2.651-2.228,4.807-4.966,4.807h-6.666c-2.739,0-4.966-2.155-4.966-4.807v-21.313c0-2.65,2.228-4.806,4.966-4.806H175.345z"/>
	<polygon fill="#676F37" points="196.77,189.571 202.47,195.087 202.47,168.62 195.582,148.668 195.582,190.609 	"/>
	<polygon fill="#676F37" points="208.112,282.909 208.112,245.815 197.923,235.952 195.581,229.547 195.581,270.78 	"/>
	<rect x="161.058" y="199.741" fill="#676F37" width="27.884" height="35.021"/>
	<path fill="#D7A32E" d="M175,59.935c-9.06,11.042-12.233,25.27-13.344,34.021c9.819,3.89,22.153,1.068,26.661-0.206
		C187.183,84.982,183.99,70.892,175,59.935"/>
	<path fill="#676F37" d="M168.361,137.396v21.313c0,0.17,0.143,0.308,0.318,0.308h6.667c0.175,0,0.318-0.138,0.318-0.308v-21.313
		c0-0.17-0.144-0.308-0.318-0.308h-6.667C168.504,137.089,168.361,137.227,168.361,137.396"/>
	<polygon fill="#676F37" points="154.419,190.609 154.419,148.667 147.531,168.62 147.531,195.087 153.23,189.571 	"/>
	<polygon fill="#676F37" points="154.419,229.547 152.077,235.952 141.888,245.815 141.888,282.909 154.419,270.78 	"/>
	<polygon fill="#D7A32E" points="166.689,273.317 169.242,292.435 180.758,292.435 183.311,273.317 	"/>
	<rect x="161.058" y="239.261" fill="#D7A32E" width="27.884" height="8.032"/>
	<polygon fill="#676F37" points="166.088,268.819 183.911,268.819 185.954,268.819 188.942,268.819 188.942,251.791 
		161.058,251.791 161.058,268.819 164.046,268.819 	"/>
	<path d="M153.394,195.775l3.017,2.637v12.203l-8.363,22.877l-10.807,10.46v49.816l21.129-20.451h3.633l3.154,23.615h19.687
		l3.153-23.615h3.634l21.129,20.451v-49.816l-10.807-10.46l-8.364-22.877v-12.203l3.017-2.637l10.511,10.172v-38.059l-13.527-39.184
		v-26.611l0.001-0.146c0-2.941-0.473-29.241-16.856-47.002L175,53.067l-1.734,1.878c-16.383,17.761-16.856,44.061-16.856,47.002
		v26.759l-13.526,39.183v38.059L153.394,195.775z M141.888,282.909v-37.094l10.189-9.863l2.342-6.405v41.233L141.888,282.909z
		 M161.058,239.261h27.883v8.032h-27.883V239.261z M161.058,251.791h27.883v17.028h-2.987h-2.043h-17.823h-2.042h-2.987V251.791z
		 M180.758,292.435h-11.516l-2.553-19.117h16.622L180.758,292.435z M197.923,235.952l10.189,9.863v37.094l-12.531-12.129v-41.233
		L197.923,235.952z M188.942,199.741l-0.001,35.021h-27.883v-35.021H188.942z M202.469,168.62v26.467l-5.7-5.516l-1.188,1.038
		v-41.941L202.469,168.62z M161.656,93.955c1.111-8.751,4.285-22.978,13.345-34.021c8.99,10.957,12.182,25.048,13.317,33.814
		C183.81,95.024,171.476,97.845,161.656,93.955 M147.53,168.62l6.889-19.952v41.941l-1.188-1.038l-5.7,5.516V168.62z
		 M161.058,195.243v-93.2l0-0.096c0-0.219,0.009-1.433,0.141-3.35c10.365,3.537,22.226,1.152,27.583-0.291
		c0.152,2.092,0.16,3.411,0.16,3.641v93.296H161.058z"/>
	<path d="M163.713,137.396v21.313c0,2.651,2.228,4.807,4.966,4.807h6.666c2.739,0,4.966-2.155,4.966-4.807v-21.313
		c0-2.65-2.228-4.806-4.966-4.806h-6.666C165.941,132.591,163.713,134.746,163.713,137.396 M175.345,137.089
		c0.175,0,0.319,0.138,0.319,0.308v21.313c0,0.171-0.144,0.309-0.319,0.309h-6.666c-0.177,0-0.319-0.138-0.319-0.309v-21.313
		c0-0.17,0.142-0.308,0.319-0.308H175.345z"/>
	<path fill="#494B26" d="M161.058,101.947l0,0.095v93.201h6.141v-31.945c-2.018-0.611-3.485-2.437-3.485-4.588v-21.313
		c0-2.151,1.468-3.977,3.485-4.588v-32.792c-2.018-0.292-4.036-0.748-6-1.419C161.066,100.515,161.058,101.729,161.058,101.947"/>
	<rect x="161.058" y="199.741" fill="#494B26" width="6.141" height="35.021"/>
	<polygon fill="#494B26" points="154.419,148.667 147.531,168.62 147.531,195.087 153.23,189.571 154.419,190.61 	"/>
	<polygon fill="#494B26" points="154.419,229.547 152.077,235.952 141.888,245.815 141.888,282.909 154.419,270.78 	"/>
	<polygon fill="#494B26" points="161.058,268.819 164.045,268.819 166.088,268.819 167.199,268.819 167.199,251.791 
		161.058,251.791 	"/>
	<path fill="#B67B2B" d="M167.236,95.465c0.554-23.326,7.764-35.53,7.764-35.53c-9.06,11.042-12.233,25.27-13.344,34.021
		C163.453,94.667,165.334,95.151,167.236,95.465"/>
	<polygon fill="#B67B2B" points="169.242,292.435 172.109,292.435 170.349,273.317 166.689,273.317 	"/>
	<rect x="161.058" y="239.261" fill="#B67B2B" width="6.141" height="8.032"/>
	<path fill="#9FA46B" d="M188.942,195.243v-93.296c0-0.229-0.008-1.549-0.16-3.641c-1.527,0.411-3.584,0.898-5.98,1.304v95.633
		H188.942z"/>
	<polygon fill="#9FA46B" points="198.559,191.303 202.47,195.087 202.47,168.621 198.559,157.292 	"/>
	<polygon fill="#9FA46B" points="198.559,273.661 208.112,282.909 208.112,245.815 198.559,236.567 	"/>
	<rect x="182.801" y="199.741" fill="#9FA46B" width="6.142" height="35.021"/>
	<polygon fill="#9FA46B" points="183.911,268.819 185.954,268.819 188.941,268.819 188.942,251.791 182.802,251.791 
		182.802,268.819 	"/>
	<path fill="#E2BC72" d="M188.317,93.749c-1.135-8.767-4.327-22.856-13.317-33.814c0,0,7.119,12.055,7.751,35.098
		C185.087,94.606,187.024,94.114,188.317,93.749"/>
	<polygon fill="#E2BC72" points="180.758,292.435 183.311,273.317 179.651,273.317 177.891,292.435 	"/>
	<rect x="182.801" y="239.261" fill="#E2BC72" width="6.142" height="8.032"/>
</g>
</svg>
