<?xml version="1.0" encoding="utf-8"?>
<!-- Generator: Adobe Illustrator 16.0.0, SVG Export Plug-In . SVG Version: 6.00 Build 0)  -->
<!DOCTYPE svg PUBLIC "-//W3C//DTD SVG 1.1 Tiny//EN" "http://www.w3.org/Graphics/SVG/1.1/DTD/svg11-tiny.dtd">
<svg version="1.1" baseProfile="tiny" id="Layer_1" xmlns="http://www.w3.org/2000/svg" xmlns:xlink="http://www.w3.org/1999/xlink"
	 x="0px" y="0px" width="350px" height="350px" viewBox="0 0 350 350" overflow="scroll" xml:space="preserve">
<g>
	<g>
		<polygon fill="#447069" points="132.312,182.856 103.474,221.834 103.474,304.177 132.312,252.65 		"/>
		<polygon fill="#39625C" points="123.623,268.175 132.312,252.65 132.312,182.856 123.623,194.601 		"/>
		<path fill="#231F20" d="M103.474,304.75c-0.047,0-0.096-0.007-0.145-0.019c-0.252-0.066-0.428-0.294-0.428-0.555v-82.343
			c0-0.123,0.04-0.242,0.112-0.341l28.838-38.978c0.146-0.199,0.405-0.281,0.64-0.203c0.235,0.078,0.394,0.297,0.394,0.544v69.794
			c0,0.098-0.025,0.193-0.073,0.279l-28.838,51.527C103.871,304.641,103.678,304.75,103.474,304.75z M104.047,222.022v79.957
			l27.691-49.479v-67.906L104.047,222.022z"/>
	</g>
	<g>
		<polygon fill="#447069" points="217.688,182.856 246.525,221.834 246.525,304.177 217.688,252.65 		"/>
		<polygon fill="#39625C" points="226.377,268.175 217.688,252.65 217.688,182.856 226.377,194.601 		"/>
		<path fill="#231F20" d="M246.525,304.75c-0.203,0-0.396-0.109-0.5-0.293l-28.836-51.527c-0.049-0.086-0.074-0.182-0.074-0.279
			v-69.794c0-0.247,0.158-0.466,0.395-0.544c0.234-0.078,0.492,0.004,0.639,0.203l28.838,38.978
			c0.074,0.099,0.113,0.218,0.113,0.341v82.343c0,0.261-0.176,0.488-0.43,0.555C246.623,304.743,246.574,304.75,246.525,304.75z
			 M218.262,252.501l27.691,49.479v-79.957l-27.691-37.428V252.501z"/>
	</g>
	<g>
		<path fill="#5B968E" d="M132.312,96.158c0-27.797,36.194-50.334,42.691-50.334c7.438,0,42.685,22.537,42.685,50.334H132.312z"/>
		<path fill="#4F857F" d="M175.003,45.823c-1.808,0-0.481,0.037-0.481,0.037c13.016,8.086,20.953,30.234,20.953,50.297h22.213
			C217.688,68.359,182.441,45.823,175.003,45.823z"/>
		<path fill="#6BAEA2" d="M147.056,96.158h11.46v-1.036c0,0-1.752-26.68,16.006-49.262c-0.148,0.019-0.306,0.045-0.473,0.081
			c-4.897,3.665-26.993,21.762-26.993,49.945C147.056,95.972,147.056,96.069,147.056,96.158z"/>
		<path fill="#231F20" d="M217.699,96.73c-0.004,0-0.006,0-0.012,0h-85.376c-0.316,0-0.573-0.256-0.573-0.573
			c0-15.187,10.383-27.966,19.094-36.012c9.99-9.229,20.811-14.896,24.171-14.896c4.149,0,14.993,5.986,24.522,14.898
			c6.98,6.527,18.68,19.856,18.736,35.894c0.008,0.037,0.012,0.076,0.012,0.116C218.273,96.474,218.016,96.73,217.699,96.73z
			 M132.89,95.584h84.222c-0.275-15.403-11.59-28.262-18.367-34.6c-10.047-9.394-20.414-14.589-23.741-14.589
			C168.717,46.396,133.385,68.587,132.89,95.584z"/>
	</g>
	<g>
		<rect x="132.312" y="96.158" fill="#5B968E" width="85.376" height="158.008"/>
		<rect x="195.475" y="96.158" fill="#4F857F" width="22.213" height="158.008"/>
		<path fill="#6BAEA2" d="M147.056,96.158c0,25.326,0,119.059,0,158.008h11.46V96.158H147.056z"/>
		<path fill="#231F20" d="M217.688,254.739h-85.376c-0.316,0-0.573-0.256-0.573-0.573V96.158c0-0.317,0.257-0.573,0.573-0.573
			h85.376c0.318,0,0.574,0.256,0.574,0.573v158.008C218.262,254.483,218.006,254.739,217.688,254.739z M132.884,253.594h84.231
			V96.73h-84.231V253.594z"/>
	</g>
	<g>
		<rect x="168.442" y="177.728" fill="#447069" width="13.116" height="116.612"/>
		<rect x="169.015" y="178.301" fill="#51827C" width="3.825" height="116.127"/>
		<path fill="#231F20" d="M181.559,294.913h-13.116c-0.316,0-0.573-0.257-0.573-0.573V177.728c0-0.316,0.257-0.572,0.573-0.572
			h13.116c0.314,0,0.572,0.256,0.572,0.572V294.34C182.131,294.656,181.873,294.913,181.559,294.913z M169.015,293.767h11.969
			V178.301h-11.969V293.767z"/>
	</g>
	<g>
		<rect x="132.312" y="111.98" fill="#F26F41" width="85.376" height="9.836"/>
		<rect x="195.475" y="111.98" fill="#E0593B" width="22.213" height="9.836"/>
		<path fill="#F4866A" d="M147.056,121.816h11.46v-9.836h-11.46C147.056,115.026,147.056,118.318,147.056,121.816z"/>
		<path fill="#231F20" d="M217.688,122.389h-85.376c-0.316,0-0.573-0.256-0.573-0.573v-9.836c0-0.317,0.257-0.573,0.573-0.573
			h85.376c0.318,0,0.574,0.256,0.574,0.573v9.836C218.262,122.133,218.006,122.389,217.688,122.389z M132.884,121.243h84.231v-8.69
			h-84.231V121.243z"/>
	</g>
	<g>
		<rect x="132.312" y="127.008" fill="#F26F41" width="85.376" height="9.837"/>
		<rect x="195.475" y="127.008" fill="#E0593B" width="22.213" height="9.837"/>
		<path fill="#F4866A" d="M147.056,136.845h11.46v-9.837h-11.46C147.056,130.055,147.056,133.347,147.056,136.845z"/>
		<path fill="#231F20" d="M217.688,137.417h-85.376c-0.316,0-0.573-0.256-0.573-0.573v-9.837c0-0.316,0.257-0.573,0.573-0.573
			h85.376c0.318,0,0.574,0.256,0.574,0.573v9.837C218.262,137.161,218.006,137.417,217.688,137.417z M132.884,136.271h84.231v-8.69
			h-84.231V136.271z"/>
	</g>
</g>
</svg>
