<?xml version="1.0" encoding="utf-8"?>
<!-- Generator: Adobe Illustrator 16.0.0, SVG Export Plug-In . SVG Version: 6.00 Build 0)  -->
<!DOCTYPE svg PUBLIC "-//W3C//DTD SVG 1.1 Tiny//EN" "http://www.w3.org/Graphics/SVG/1.1/DTD/svg11-tiny.dtd">
<svg version="1.1" baseProfile="tiny" id="Layer_1" xmlns="http://www.w3.org/2000/svg" xmlns:xlink="http://www.w3.org/1999/xlink"
	 x="0px" y="0px" width="350px" height="350px" viewBox="0 0 350 350" overflow="scroll" xml:space="preserve">
<g>
	<path fill="#676F37" d="M195.427,116.856c0-10.309-0.806-19.771-2.407-28.365c-2.083,0.999-5.721,2.498-10.38,3.423
		c-6.362,1.264-15.821,1.625-25.665-3.389c-1.597,8.585-2.4,18.035-2.4,28.331c0,13.962,1.525,27.483,3.35,38.662
		c15.104,4.217,30.289,0.95,34.155-0.022C193.901,144.321,195.427,130.808,195.427,116.856 M159.373,131.435
		c-1.84,0-3.338-1.449-3.338-3.23V113.88c0-1.782,1.498-3.23,3.338-3.23h4.48c1.84,0,3.338,1.448,3.338,3.23v14.324
		c0,1.781-1.498,3.23-3.338,3.23H159.373z"/>
	<path fill="#676F37" d="M158.479,158.801c2.091,11.939,4.398,20.715,5.217,23.678h22.606c0.82-2.966,3.134-11.762,5.226-23.725
		C186.147,159.993,172.59,162.35,158.479,158.801"/>
	<polygon fill="#676F37" points="153.804,240.26 141.311,252.352 141.311,298.465 153.804,286.371 	"/>
	<rect x="159.159" y="237.978" fill="#676F37" width="31.682" height="35.487"/>
	<rect x="164.067" y="185.502" fill="#676F37" width="21.864" height="36.495"/>
	<rect x="159.159" y="276.487" fill="#D7A32E" width="31.682" height="8.998"/>
	<polygon fill="#D7A32E" points="163.597,225.021 159.833,234.954 190.166,234.954 186.403,225.021 	"/>
	<polygon fill="#676F37" points="208.69,252.352 196.195,240.26 196.195,286.371 208.69,298.465 	"/>
	<path fill="#676F37" d="M164.068,128.204V113.88c0-0.114-0.097-0.208-0.214-0.208h-4.481c-0.118,0-0.214,0.094-0.214,0.208v14.324
		c0,0.114,0.096,0.207,0.214,0.207h4.481C163.971,128.411,164.068,128.318,164.068,128.204"/>
	<path fill="#D7A32E" d="M192.396,85.398c-3.232-15.094-9.042-27.363-17.396-36.661c-8.356,9.3-14.168,21.574-17.399,36.676
		C173.396,93.974,188.585,87.346,192.396,85.398"/>
	<path d="M211.813,251.1l-18.74-18.14v0.882l-4.018-10.601v-39.043c0.817-2.841,9.494-33.842,9.494-67.342
		c0-31.748-7.537-55.774-22.4-71.41L175,44.237l-1.149,1.209c-14.864,15.636-22.4,39.662-22.4,71.41
		c0,33.504,8.677,64.501,9.493,67.342v39.043l-4.016,10.601v-0.882l-18.741,18.14v54.663l17.85-17.275v0.021h37.929v-0.021
		l17.849,17.275V251.1z M175,48.737c8.354,9.298,14.164,21.566,17.396,36.661c-3.812,1.947-19,8.575-34.796,0.015
		C160.833,70.313,166.645,58.038,175,48.737 M157.924,155.519c-1.825-11.179-3.35-24.7-3.35-38.662
		c0-10.296,0.804-19.746,2.4-28.331c9.844,5.014,19.303,4.652,25.665,3.389c4.659-0.925,8.297-2.424,10.38-3.423
		c1.602,8.594,2.407,18.057,2.407,28.365c0,13.951-1.523,27.464-3.348,38.64C188.213,156.469,173.028,159.734,157.924,155.519
		 M163.697,182.479c-0.82-2.963-3.127-11.739-5.218-23.679c14.111,3.55,27.668,1.192,33.049-0.046
		c-2.092,11.962-4.405,20.759-5.226,23.725H163.697z M164.068,221.997v-36.495h21.865v36.495H164.068z M159.833,234.954l3.764-9.934
		h22.807l3.763,9.934H159.833z M190.841,237.978v35.487h-31.682v-35.487H190.841z M141.311,298.465v-46.113l12.494-12.092v46.111
		L141.311,298.465z M190.841,276.487v8.998h-31.682v-8.998H190.841z M196.195,286.371V240.26l12.495,12.092v46.113L196.195,286.371z
		"/>
	<path d="M167.191,128.204V113.88c0-1.782-1.498-3.23-3.338-3.23h-4.48c-1.84,0-3.338,1.448-3.338,3.23v14.324
		c0,1.781,1.498,3.23,3.338,3.23h4.48C165.694,131.435,167.191,129.985,167.191,128.204 M159.373,128.411
		c-0.118,0-0.214-0.093-0.214-0.207V113.88c0-0.114,0.096-0.208,0.214-0.208h4.48c0.119,0,0.214,0.094,0.214,0.208v14.324
		c0,0.114-0.095,0.207-0.214,0.207H159.373z"/>
	<path fill="#494B26" d="M159.373,131.435c-1.84,0-3.338-1.449-3.338-3.23V113.88c0-1.782,1.498-3.23,3.338-3.23h0.65
		c0.334-7.221,1.062-13.896,2.025-19.98c-1.67-0.569-3.366-1.273-5.074-2.144c-1.597,8.585-2.4,18.035-2.4,28.331
		c0,13.962,1.525,27.483,3.35,38.662c1.815,0.507,3.632,0.903,5.431,1.211c-1.66-8.88-2.668-17.329-3.16-25.295H159.373z"/>
	<path fill="#494B26" d="M158.479,158.801c2.091,11.939,4.398,20.715,5.217,23.678h6.076c-2.425-7.79-4.333-15.321-5.8-22.575
		C162.162,159.626,160.326,159.265,158.479,158.801"/>
	<polygon fill="#494B26" points="153.804,240.26 141.311,252.352 141.311,298.465 153.804,286.371 	"/>
	<rect x="159.159" y="237.978" fill="#494B26" width="6.322" height="35.487"/>
	<rect x="164.067" y="185.502" fill="#494B26" width="6.172" height="36.495"/>
	<path fill="#494B26" d="M159.907,113.672h-0.534c-0.118,0-0.214,0.094-0.214,0.208v14.323c0,0.115,0.096,0.208,0.214,0.208h0.659
		C159.794,123.287,159.766,118.37,159.907,113.672"/>
	<rect x="159.159" y="276.487" fill="#B67B2B" width="6.322" height="8.998"/>
	<polygon fill="#B67B2B" points="163.597,225.021 159.833,234.954 166.012,234.954 169.682,225.021 	"/>
	<path fill="#B67B2B" d="M157.601,85.413c1.663,0.902,3.319,1.627,4.957,2.214C166.929,62.874,175,48.737,175,48.737
		C166.644,58.038,160.832,70.312,157.601,85.413"/>
	<path fill="#9FA46B" d="M195.427,116.856c0-10.309-0.806-19.771-2.407-28.365c-1.207,0.58-2.94,1.326-5.09,2.033
		c2.783,17.488,3.615,39.89-1.26,66.071c2.48-0.405,4.363-0.836,5.409-1.1C193.901,144.321,195.427,130.808,195.427,116.856"/>
	<path fill="#9FA46B" d="M191.528,158.754c-1.351,0.311-3.217,0.692-5.477,1.032c-1.471,7.29-3.387,14.86-5.824,22.692h6.075
		C187.123,179.512,189.437,170.716,191.528,158.754"/>
	<rect x="184.52" y="237.978" fill="#9FA46B" width="6.321" height="35.487"/>
	<rect x="179.76" y="185.502" fill="#9FA46B" width="6.173" height="36.495"/>
	<polygon fill="#9FA46B" points="200.651,290.684 208.69,298.465 208.69,252.352 200.651,244.571 	"/>
	<rect x="184.52" y="276.487" fill="#E2BC72" width="6.321" height="8.998"/>
	<polygon fill="#E2BC72" points="186.403,225.021 180.318,225.021 183.988,234.954 190.166,234.954 	"/>
	<path fill="#E2BC72" d="M175,48.737c0,0,8.039,14.081,12.415,38.741c2.283-0.777,4.006-1.581,4.981-2.08
		C189.164,70.304,183.354,58.035,175,48.737"/>
</g>
</svg>
