<?xml version="1.0" encoding="utf-8"?>
<!-- Generator: Adobe Illustrator 16.0.0, SVG Export Plug-In . SVG Version: 6.00 Build 0)  -->
<!DOCTYPE svg PUBLIC "-//W3C//DTD SVG 1.1//EN" "http://www.w3.org/Graphics/SVG/1.1/DTD/svg11.dtd">
<svg version="1.1" id="Layer_1" xmlns="http://www.w3.org/2000/svg" xmlns:xlink="http://www.w3.org/1999/xlink" x="0px" y="0px"
	 width="350px" height="350px" viewBox="0 0 350 350" enable-background="new 0 0 350 350" xml:space="preserve">
<g>
	<g>
		<linearGradient id="SVGID_1_" gradientUnits="userSpaceOnUse" x1="181.7725" y1="145.251" x2="254.1802" y2="145.251">
			<stop  offset="0" style="stop-color:#000000"/>
			<stop  offset="0.0368" style="stop-color:#380A0A"/>
			<stop  offset="0.0737" style="stop-color:#681212"/>
			<stop  offset="0.1059" style="stop-color:#8B1818"/>
			<stop  offset="0.1323" style="stop-color:#A01C1C"/>
			<stop  offset="0.1496" style="stop-color:#A81D1D"/>
			<stop  offset="0.1504" style="stop-color:#A81D1D"/>
			<stop  offset="0.2849" style="stop-color:#C4393C"/>
			<stop  offset="0.3991" style="stop-color:#D64B4F"/>
			<stop  offset="0.4785" style="stop-color:#DC5156"/>
			<stop  offset="0.6002" style="stop-color:#DB4D52"/>
			<stop  offset="0.7271" style="stop-color:#D74245"/>
			<stop  offset="0.8559" style="stop-color:#D13031"/>
			<stop  offset="0.9029" style="stop-color:#CE2727"/>
			<stop  offset="1" style="stop-color:#000000"/>
		</linearGradient>
		<path fill="url(#SVGID_1_)" d="M229.679,127.521c-0.313-1.232-3.25-1.767-4.188-2.138s-3.063-0.379-3.448-1.2
			c-0.261-0.552-0.663-1.48-0.901-2.035c-0.894-0.186-1.837-1.507-2.232-1.792c-0.571-0.411-3.807-0.933-6.282-0.535
			c-2.475,0.398-2.938,3.287-2.916,4.283s-0.953-0.058-1.31-0.129c-0.355-0.071-3.116-0.296-3.973-0.856
			c-0.855-0.56-5.342-0.239-7.11,1.326s-1.195,5.893-1.195,5.893c-7.313,2.151-8.365,8.888-8.365,8.888s-2.995,1.339-4.94,3.385
			c-1.944,2.046-0.939,4.649,1.081,6.208c2.02,1.559,7.257,1.489,7.257,1.489c0.815,1.758,6.147,8.724,6.147,8.724
			c-7.95,3.12-6.485,6.25-6.238,8.008c0.246,1.758,4.524,1.595,6.162,1.072c1.639-0.522,5.499-3.165,5.499-3.165
			c8.943,2.868,11.467-1.117,11.467-1.117c-1.434,4.667,4.351,8.431,3.328,6.447c-0.033-0.066-0.064-0.138-0.091-0.214
			c-0.783-2.233,1.338-8.877,1.396-9.774c0.061-0.928-0.767-1.597-0.767-1.597l0.104-2.213l2.451-0.854
			c3.362,1.863,6.134,0.17,6.475-0.341c0.34-0.511,6.511-2.861,7.945-3.672c1.434-0.811,3.877,1.913,3.877,1.913
			s0.808-1.771-0.865-3.352c-1.674-1.581-5.354-1.144-6.454-1.239s-2.232-1.424-2.232-1.424c1.39-1.238,2.084-6.937,2.21-8.071
			c-0.733-2.814-1.697-7.155-1.697-7.155S229.991,128.754,229.679,127.521z"/>
		<linearGradient id="SVGID_2_" gradientUnits="userSpaceOnUse" x1="181.7725" y1="125.7061" x2="254.1797" y2="125.7061">
			<stop  offset="0" style="stop-color:#000000"/>
			<stop  offset="0.2097" style="stop-color:#96A536"/>
			<stop  offset="0.4561" style="stop-color:#8DA038"/>
			<stop  offset="0.7891" style="stop-color:#859C39"/>
			<stop  offset="0.833" style="stop-color:#5F7029"/>
			<stop  offset="0.8873" style="stop-color:#364017"/>
			<stop  offset="0.9352" style="stop-color:#191D0B"/>
			<stop  offset="0.9744" style="stop-color:#070803"/>
			<stop  offset="1" style="stop-color:#000000"/>
		</linearGradient>
		<path fill="url(#SVGID_2_)" d="M243.878,111.983c-12.667-0.334-20.577,7.765-21.633,9.561c-0.323,0.551-0.709,0.688-1.104,0.606
			c0.238,0.554,0.641,1.482,0.901,2.035c0.386,0.82,2.511,0.829,3.448,1.2s3.875,0.905,4.188,2.138
			c0.313,1.233,0.194,4.763,0.194,4.763s0.964,4.341,1.697,7.155c0.014-0.126,0.022-0.212,0.022-0.212
			c1.912-0.194,6.103-4.435,7.284-6.297c1.181-1.863,5.957-12.027,7.439-14.958c1.482-2.931,7.863-1.687,7.863-1.687
			C251.718,112.796,243.878,111.983,243.878,111.983z"/>
	</g>
	<linearGradient id="SVGID_3_" gradientUnits="userSpaceOnUse" x1="90.7861" y1="282.3398" x2="206.4307" y2="282.3398">
		<stop  offset="0" style="stop-color:#000000"/>
		<stop  offset="0.2097" style="stop-color:#96A536"/>
		<stop  offset="0.4561" style="stop-color:#8DA038"/>
		<stop  offset="0.7891" style="stop-color:#859C39"/>
		<stop  offset="0.833" style="stop-color:#5F7029"/>
		<stop  offset="0.8873" style="stop-color:#364017"/>
		<stop  offset="0.9352" style="stop-color:#191D0B"/>
		<stop  offset="0.9744" style="stop-color:#070803"/>
		<stop  offset="1" style="stop-color:#000000"/>
	</linearGradient>
	<path fill="url(#SVGID_3_)" d="M173.079,265.959l-1.081,3.246l-5.819,0.916l-11.756,6.9l0.396,2.812l-4.613,1.533l-3.259,6.443
		c0,0,11.447-10.921,18.79-11.302s19.488-2.262,24.913,0.258c5.426,2.52,12.218,5.63,13.446,8.046
		c1.229,2.417,2.335,2.489,2.335,2.489s-3.977,26.092-19.679,34.7c0,0,4.339-26.137-6.9-39.74c0,0-15.982-7.13-34.118,8.42
		l-1.278,9.47l2.172,1.917l-3.067,1.661c0,0-0.933,3.294-0.896,4.079c0.038,0.784,1.414,4.495,1.002,5.385s-3.138,2.716-3.928,1.037
		s-1.587-4.09-0.268-10.885l-3.578-1.022l4.856-3.961c0,0,2.619-8.778,3.194-11.39c0.576-2.611,3.706-7.395,3.706-7.395
		l-1.406-2.556l2.172-1.15c0,0,1.768-11.157,11.591-14.6c0,0-0.172-1.548-3.413-2.012c-3.241-0.464-10.458,0.936-13.417,3.804
		c-2.96,2.869-15.297,8.835-26.983,8.003c-11.686-0.831-18.839-5.076-25.409-2.99c0,0,14.165-10.885,19.931-13.828
		c5.767-2.943,18.949-14.611,30.033-10.82c11.084,3.79,11.959,8.958,13.673,10.39s3.477,2.905,5.111,4.295
		c1.635,1.391,2.612,2.592,2.612,2.592L173.079,265.959z"/>
	<linearGradient id="SVGID_4_" gradientUnits="userSpaceOnUse" x1="149.4106" y1="263.5225" x2="178.1338" y2="263.5225">
		<stop  offset="0" style="stop-color:#000000"/>
		<stop  offset="0.2097" style="stop-color:#96A536"/>
		<stop  offset="0.4561" style="stop-color:#8DA038"/>
		<stop  offset="0.7891" style="stop-color:#859C39"/>
		<stop  offset="0.833" style="stop-color:#5F7029"/>
		<stop  offset="0.8873" style="stop-color:#364017"/>
		<stop  offset="0.9352" style="stop-color:#191D0B"/>
		<stop  offset="0.9744" style="stop-color:#070803"/>
		<stop  offset="1" style="stop-color:#000000"/>
	</linearGradient>
	<path fill="url(#SVGID_4_)" d="M168.254,251.735c0,0-5.263-4.583-10.268,2.513c0,0,6.148-3.153,8.704,0.929
		c2.556,4.083,2.856,4.856,2.856,4.856s-9.629-0.017-12.708,2.725c-3.078,2.74-6.697,4.726-7.428,11.372
		c0,0,7.141-6.961,11.018-7.451c3.877-0.491,11.946-0.497,11.946-0.497s-0.036,10.519,1.471,10.584c0,0,4.129-3.589,4.288-8.358
		C178.134,268.407,170.262,258.261,168.254,251.735z"/>
	<linearGradient id="SVGID_5_" gradientUnits="userSpaceOnUse" x1="157.5127" y1="239.3555" x2="227.4307" y2="239.3555">
		<stop  offset="0" style="stop-color:#000000"/>
		<stop  offset="0.0368" style="stop-color:#380A0A"/>
		<stop  offset="0.0737" style="stop-color:#681212"/>
		<stop  offset="0.1059" style="stop-color:#8B1818"/>
		<stop  offset="0.1323" style="stop-color:#A01C1C"/>
		<stop  offset="0.1496" style="stop-color:#A81D1D"/>
		<stop  offset="0.1504" style="stop-color:#A81D1D"/>
		<stop  offset="0.2849" style="stop-color:#C4393C"/>
		<stop  offset="0.3991" style="stop-color:#D64B4F"/>
		<stop  offset="0.4785" style="stop-color:#DC5156"/>
		<stop  offset="0.6002" style="stop-color:#DB4D52"/>
		<stop  offset="0.7271" style="stop-color:#D74245"/>
		<stop  offset="0.8559" style="stop-color:#D13031"/>
		<stop  offset="0.9029" style="stop-color:#CE2727"/>
		<stop  offset="1" style="stop-color:#000000"/>
	</linearGradient>
	<path fill="url(#SVGID_5_)" d="M188.024,213.189c0,0,2.748-3.32,3.178-4.149c0.43-0.828,0.661-1.405,0.661-1.405l3.578,3.516
		l0.639-2.493c0,0,2.471,0.639,2.896,1.916c0.426,1.278,0.044,2.844,0.938,3.067c0.894,0.223,2.428,2.293,2.428,2.293
		s2.637-0.909,2.846-0.516c0.21,0.394,1.371,2.196,1.371,2.196s0.166-1.677,4.02-0.449s8.006,5.028,8.376,6.462
		c0.369,1.434,2.411,6.226,0.128,8.67c0,0,0.544,3.133-0.128,5.239c0,0,6.686-0.761,7.821,2.812
		c1.137,3.571,1.176,5.533-3.038,11.293c-4.215,5.759-7.754,5.891-9.639,6.21c0,0,1.375,5.931-2.301,10.52
		c-3.676,4.59-9.322,3.227-18.632,1.751c-0.465-0.073-16.381,0.617-20.087-4.994c-3.706-5.612-4.105-7.11-4.68-10.879
		c-0.575-3.768-0.425-5.075-2.892-7.317s-6.982-6.485-7.89-12.17c-0.907-5.685,4.148-12.882,13.236-5.088
		c0,0-3.903-9.059,0.764-16.91c4.667-7.851,9.496-5.934,11.348-3.128C184.818,212.441,188.024,213.189,188.024,213.189z"/>
	<linearGradient id="SVGID_6_" gradientUnits="userSpaceOnUse" x1="123.8975" y1="63.4219" x2="205.0371" y2="63.4219">
		<stop  offset="0" style="stop-color:#000000"/>
		<stop  offset="0.0368" style="stop-color:#380A0A"/>
		<stop  offset="0.0737" style="stop-color:#681212"/>
		<stop  offset="0.1059" style="stop-color:#8B1818"/>
		<stop  offset="0.1323" style="stop-color:#A01C1C"/>
		<stop  offset="0.1496" style="stop-color:#A81D1D"/>
		<stop  offset="0.1504" style="stop-color:#A81D1D"/>
		<stop  offset="0.2849" style="stop-color:#C4393C"/>
		<stop  offset="0.3991" style="stop-color:#D64B4F"/>
		<stop  offset="0.4785" style="stop-color:#DC5156"/>
		<stop  offset="0.6002" style="stop-color:#DB4D52"/>
		<stop  offset="0.7271" style="stop-color:#D74245"/>
		<stop  offset="0.8559" style="stop-color:#D13031"/>
		<stop  offset="0.9029" style="stop-color:#CE2727"/>
		<stop  offset="1" style="stop-color:#000000"/>
	</linearGradient>
	<path fill="url(#SVGID_6_)" d="M129.974,69.925c0,0-5.891,0.541-6.069-1.682c-0.178-2.223,3.048-4.308,7.279-4.986
		c0,0,0.912,0.715,0.665-0.488c-0.247-1.203,1.37-7.13,6.985-7.497c0,0,0.029-1.016-2.556-1.874c0,0-0.368-4.526,4.941-6.815
		c0,0,1.347-6.217,8.349-5.623c0,0,1.995-2.69,3.974-2.852s4.987,1.027,5.583,1.741c0.597,0.715,1.395-1.824,2.291-2.808
		s3.494-6.02,13.197-4.941c0,0-1.458,2.708-0.681,4.941l2.529,1.006c0,0,1.606-5.503,5.556-8.054
		c3.948-2.551,9.402-2.29,11.364-0.549c1.963,1.74,3.458,2.925,3.722,6.234c0.264,3.309-2.689,8.123-6.985,12.779
		c0,0-1.046,2.584-0.376,3.943s1.206,4.667,1.206,4.667s5.839-2.647,8.929-1.963c3.089,0.684,4.874,1.506,5.126,3.916
		c0.252,2.411-0.935,5.894-1.417,7.63s-5.525,6.19-10.23,8.977c-4.704,2.787-7.071,2.798-7.071,2.798s-5.453,1.205-6.108,1.789
		c-0.656,0.584-4.064,8.906-7.849,11.159c-3.785,2.254-5.464,5.303-12.153,4.352c-6.689-0.951-12.103,1.734-14.527,2.483
		s-9.74,1.053-9.946-1.584c-0.207-2.637-0.542-5.067,7.222-9.661c0,0-10.417,0.693-12.057-0.091
		c-1.639-0.784-5.777-3.516-3.77-7.595c2.007-4.079,6.257-4.184,6.257-4.184L129.974,69.925z"/>
	<linearGradient id="SVGID_7_" gradientUnits="userSpaceOnUse" x1="170.8535" y1="187.9805" x2="258.584" y2="187.9805">
		<stop  offset="0" style="stop-color:#000000"/>
		<stop  offset="0.2097" style="stop-color:#96A536"/>
		<stop  offset="0.4561" style="stop-color:#8DA038"/>
		<stop  offset="0.7891" style="stop-color:#859C39"/>
		<stop  offset="0.833" style="stop-color:#5F7029"/>
		<stop  offset="0.8873" style="stop-color:#364017"/>
		<stop  offset="0.9352" style="stop-color:#191D0B"/>
		<stop  offset="0.9744" style="stop-color:#070803"/>
		<stop  offset="1" style="stop-color:#000000"/>
	</linearGradient>
	<path fill="url(#SVGID_7_)" d="M203.422,165.161c0,0-0.813,2.005-0.532,2.722c0.281,0.717,1.241,2.055,1.241,2.055l-2.556,1.917
		l-1.083,4.681c0,0,7.981-3.868,10.781-1.656c0,0,6.385-2.248,11.727,0.341c0,0,0.896-4.099,0-5.56
		c-0.896-1.461-2.205-1.437-1.874-2.321c0.332-0.884,0.975-1.708-0.1-3.507c-1.073-1.799-2.379-1.889-2.379-1.889
		s-0.115-3.046-0.588-3.809c-0.473-0.762,0.511-1.997,0.511-1.997l2.354-0.354c0,0,2.906,1.03,5.313-0.157
		c0,0,0.926,1.485,1.192,4.089c0,0,5.677-3.989,9.712-3.919c0,0,9.84-3.664,15.147-0.363c5.309,3.301,7.024,6.02,6.023,10.504
		c-1.002,4.484-10.437,12.52-10.437,12.52s4.135-18.978-8.179-18.401c0,0-9.415,8.587-12.607,9.978l2.044,2.63l-2.215,1.874
		l-1.192,4.43l-2.896,10.357c0,0,16.218-0.678,19.74,1.552c3.523,2.229,7.729,6.099,8.025,9.347
		c0.296,3.247-0.747,9.721-1.388,9.967s-5.733,5.202-10.811,7.58c-5.078,2.378-5.322,4.136-5.322,4.136s3.744-10.9,2.874-16.062
		c-0.87-5.162-5.111-14.949-10.734-13.8c-5.622,1.15-5.839,5.447-5.622,7.795l-3.939,1.067l-7.05,4.555l-0.256,2.556l-3.578,0.256
		l-4.849,3.578l-2.411-2.207l5.471-3.671l-0.255-2.016l0.767-3.352l4.089,1.533l10.223-11.711l-0.767-3.879l4.089-3.578
		l-1.533-2.811c0,0-17.221,6.701-15.959,24.188c0,0-7.17-2.592-7.937-12.304c0,0-1.618,5.737-2.556,6.9l2.3,0.64l-2.612,2.3
		l-1.477,1.809l-1.661,7.448l-1.533,2.371l-4.613-3.194l4.996-10.095l-1.533-4.473c0,0,4.659-2.232,4.855-3.706
		c0,0-1.386-6.901-7.155-10.067c0,0-7.61,0.033-12.14,11.09c0,0-2.127-3.06-1.643-8.908c0.484-5.85,4.587-7.389,6.76-8.579
		s15.044-7.604,18.796,1.148c0,0,0.875-1.794,0.347-2.884s-1.131-2.118-1.131-2.118l2.3-1.405l-0.383-1.917
		C197.614,168.404,201.663,165.565,203.422,165.161z"/>
	<linearGradient id="SVGID_8_" gradientUnits="userSpaceOnUse" x1="156.584" y1="109.6025" x2="225.7266" y2="109.6025">
		<stop  offset="0" style="stop-color:#000000"/>
		<stop  offset="0.2097" style="stop-color:#96A536"/>
		<stop  offset="0.4561" style="stop-color:#8DA038"/>
		<stop  offset="0.7891" style="stop-color:#859C39"/>
		<stop  offset="0.833" style="stop-color:#5F7029"/>
		<stop  offset="0.8873" style="stop-color:#364017"/>
		<stop  offset="0.9352" style="stop-color:#191D0B"/>
		<stop  offset="0.9744" style="stop-color:#070803"/>
		<stop  offset="1" style="stop-color:#000000"/>
	</linearGradient>
	<path fill="url(#SVGID_8_)" d="M171.375,92.927c0,0-0.291,3.501,1.664,4.85l1.427-4.85c0,0,2.015,7.636,5.334,9.546l1.012-8.894
		l4.363,9.911l-0.681,2.385l1.788,1.247l0.938,7.443c0,0-6.331-2.872-8.705-3.086s-13.073-0.624-17.618,3.597
		c-4.546,4.221-5.155,10.506-3.417,16.016c1.739,5.51,7.943,10.052,7.943,10.052s-1.246-8.987,3.111-12.453
		s7.741-10.322,8.463-10.718s7.404-1.068,8.689-0.605c1.284,0.463,4.544,2.642,4.956,3.672c0.413,1.03-0.512,5.46-0.051,6.524
		c0.462,1.064,2.25,2.38,2.25,3.209s3.044-0.034,3.044-0.034s-0.419-3.376,0.96-4.589c0,0-2.196-0.656-2.129-2.129
		c0.067-1.474-0.874-6.188-0.687-7.241c0.187-1.053,3.161-5.849,4.094-5.963s11.344-3.758,13.029-5.674
		c1.686-1.915,4.035-10.853,5.927-10.683c1.892,0.171,4.978,0.626,8.646,2.215c0,0-3.154-14.533-18.53-9.675
		c0,0-10.99,0.452-15.716,14.94l-0.341-2.71l-2.896-0.34l-3.408-6.869l-0.852-3.015l1.192-3.917l-1.695-1.363l-0.179-2.044
		c0,0,2.455,0.026,3.834,1.66c1.378,1.633,3.339,3.941,3.151,7.71c0,0,6.02-8.24-2.198-12.991c0,0-5.874,1.497-6.951,1.576
		c-1.076,0.079-1.806,0.951-2.397,2.044C178.149,82.775,173.302,89.979,171.375,92.927z"/>
	<path opacity="0.5" fill="#510707" d="M183.826,237.979c0,0,6.563,1.996,8.646,4.698s6.005,6.077,9.512,6.015
		c3.508-0.063,9.559-0.527,9.559-0.527l2.564-4.031c0,0-14.397,2.136-21.194-4.777c-6.796-6.914-8.071-3.855-8.59-3.479
		S183.826,237.979,183.826,237.979z"/>
	<path opacity="0.5" fill="#510707" d="M180.363,249.853c0,0,9.128,1.118,11.628,4.947c2.5,3.83,11.057,6.871,12.778,6.632
		c0,0,4.806-2.519,4.92-2.816s-7.955-2.937-9.265-4.367c-1.309-1.431-9.233-8.692-11.884-9.554s-8.317-0.749-8.434,0.468
		C179.991,246.38,180.363,249.853,180.363,249.853z"/>
	<path opacity="0.5" fill="#510707" d="M214.481,243.67c0,0-3.592,8.279-10.479,9.119c0,0,3.113,2.619,6.926,2.011
		c3.813-0.607,10.365-4.605,10.964-7.169s2.091-9.551-2.968-9.651C218.925,237.979,217.659,242.335,214.481,243.67z"/>
	<path opacity="0.5" fill="#510707" d="M203.125,215.686c0,0-2.725,0.802-3.116,2.811c-0.393,2.009-0.472,3.571-0.088,3.821
		c0.383,0.25,3.935-3.881,4.721-3.565c0.787,0.315,2.953,1.94,3.026,2.44s-0.512,4.758-0.75,5.473c-0.239,0.715,0,3.715,0,3.715
		s2.228-1.3,2.963-2.743c0.735-1.444,0.765-5.293,0-6.713c-0.765-1.419-5.465-5.619-6.247-5.382
		C202.852,215.78,203.125,215.686,203.125,215.686z"/>
	<path opacity="0.5" fill="#510707" d="M213.663,225.768c0,0,1.285,3.51,1.713,5.124c0.428,1.613,2.553,7.676-3.322,10.113
		c0,0,3.306-1.365,2.309-4.683c-0.996-3.317-1.871-1.947-2.309-0.758c-0.438,1.19-2.071,2.6-3.067,2.396
		c-0.995-0.205,0.704-5.151,0.704-5.151s2.343-1.216,2.697-3.322C212.741,227.38,213.023,224.718,213.663,225.768z"/>
	<path opacity="0.5" fill="#510707" d="M186.49,235.564c0,0,5.987-3.563,10.713,0.313c0,0-5.573-7.144-7.768-7.414
		c-2.194-0.271-0.128,0.092-0.128,0.092s-4.217,3.258-4.985,7.322C184.322,235.878,186.052,235.188,186.49,235.564z"/>
	<path opacity="0.5" fill="#510707" d="M195.431,211.468c0,0-3.877,2.379-4.377,2.458s-3.646,2.206-3.646,2.206
		s0.617,3.061-0.399,5.061s-5.44,10.758-2.885,14.941c0,0,4.309-7.461,5.057-7.701c0,0-1.063-3.339,1.062-7.509
		C192.366,216.755,195.706,212.582,195.431,211.468z"/>
	<path opacity="0.5" fill="#510707" d="M178.19,213.189c0,0,7.255-0.435,8.434,3.878c0,0-6.196,5.161-7.82,11.269
		C178.804,228.336,177.39,216.998,178.19,213.189z"/>
	<path opacity="0.5" fill="#510707" d="M169.509,228.109c0,0-0.705,2.646-1.08,3.208s-1.624,4.561-1.624,4.561
		s2.874-1.748,4.437,1.814s7.148,16.238,7.824,17.057s0.786-3.949,0.786-3.949s-1.99-7.545-2.987-9.795
		C175.866,238.755,169.277,226.401,169.509,228.109z"/>
	<path opacity="0.5" fill="#510707" d="M209.881,258.458c0,0-6.534,5.453-14.993,5.406c0,0,6.032,2.798,14.099,1.656
		c0,0,0.108-1.578,1.15-2.891s1.771-0.203,2.251-4.477L209.881,258.458z"/>
	<path opacity="0.5" fill="#510707" d="M167.491,248.693c0,0,0.82,3.499,0.785,4.718s1.138,6.214,1.27,6.622
		c0.132,0.409,2.342-2.77,4.299-0.773c1.958,1.995,14.778,6.341,15.462,7.23c0,0-3.286-4.183-3.77-4.803
		c-0.484-0.62-5.639-1.223-7.593-3.671C175.991,255.567,170.116,249.757,167.491,248.693z"/>
	<path opacity="0.5" fill="#510707" d="M187.949,140.858c0,0-1.472,1.974-1.069,2.841c0.403,0.867,3.715,2.784,4.601,3.367
		s3.407,1.23,3.407,1.23l-0.341-4.271c0,0-1.958-1.305-1.965-2.882C192.574,139.567,188.991,143.608,187.949,140.858z"/>
	<path opacity="0.5" fill="#510707" d="M200.897,135.521l-3.113,4.701c0,0,4.165,1.075,4.707,0.543s2.583-2.657,2.833-3.699
		s0.209-2.333-0.666-3.542c-0.875-1.208-5.341-2.333-6.191-2.083s-3.101,2.958-3.101,2.958s-0.317,3.708-0.138,3.958
		s3.121-4.343,4.18-4.875C200.315,133.028,201.22,133.434,200.897,135.521z"/>
	<path opacity="0.5" fill="#510707" d="M198.47,130.773c0,0,0.028-0.026,0.084-0.073c0.455-0.387,2.684-2.167,4.729-1.758
		c2.291,0.458,6.541,2.25,8.875,5.083c0,0-0.792-6.378-3.209-7.96c-2.416-1.582-7.418-3.293-10.479,0
		c-3.062,3.293-1.146,5.341-1.146,5.341"/>
	<path opacity="0.5" fill="#510707" d="M210.741,124.788c0,0,1.958-4.001,4.917-2.215c2.958,1.786,4.729,10.358,4.729,10.358
		S216.408,125.883,210.741,124.788z"/>
	<path opacity="0.5" fill="#510707" d="M219.908,133.608c0,0-0.029,4.693-1.744,7.305s-7.339,12-8.11,17.098l0.313,1.704h3.75
		c0,0-0.75-6.315,3.042-11.586C220.949,142.858,221.949,136.692,219.908,133.608z"/>
	<path opacity="0.5" fill="#510707" d="M210.054,159.375c0,0-7.859-5.808-16.273-5.558c0,0,1.089,1.977,1.685,2.775
		s1.254,2.438,1.127,2.612c-0.128,0.174-4.016,1.851-4.684,2.821c-0.669,0.97,5.5-1.583,5.708-0.667
		c0.208,0.917-0.5,1.083-0.5,1.083s10.563-2.941,12.553-2.262L210.054,159.375z"/>
	<path opacity="0.5" fill="#510707" d="M195.174,148.129l-0.183-0.938c0,0,6.357,0.375,8.074,1.917
		c1.718,1.542,5.468-1.125,5.426-3.875s0,9.91,0,9.91S199.355,148.483,195.174,148.129z"/>
	<path opacity="0.5" fill="#510707" d="M229.449,132.733c0,0-1.122,2.585-2.02,3.522c-0.896,0.937-1.51,3.429-1.703,5.141
		s-2.9,7.629-5.339,9.879s-2.654,4.01-2.654,4.01l0.693,1.053c0,0,3.474-0.837,5.165-2.284s6.235-7.033,6.813-8.559
		C231.783,141.863,231.241,131.091,229.449,132.733z"/>
	<linearGradient id="SVGID_9_" gradientUnits="userSpaceOnUse" x1="140.8535" y1="62.2754" x2="152.6869" y2="39.2752">
		<stop  offset="0" style="stop-color:#000000"/>
		<stop  offset="0.0368" style="stop-color:#380A0A"/>
		<stop  offset="0.0737" style="stop-color:#681212"/>
		<stop  offset="0.1059" style="stop-color:#8B1818"/>
		<stop  offset="0.1323" style="stop-color:#A01C1C"/>
		<stop  offset="0.1496" style="stop-color:#A81D1D"/>
		<stop  offset="0.1504" style="stop-color:#A81D1D"/>
		<stop  offset="0.2849" style="stop-color:#C4393C"/>
		<stop  offset="0.3991" style="stop-color:#D64B4F"/>
		<stop  offset="0.4785" style="stop-color:#DC5156"/>
		<stop  offset="0.6002" style="stop-color:#DB4D52"/>
		<stop  offset="0.7271" style="stop-color:#D74245"/>
		<stop  offset="0.8559" style="stop-color:#D13031"/>
		<stop  offset="0.9029" style="stop-color:#CE2727"/>
		<stop  offset="1" style="stop-color:#000000"/>
	</linearGradient>
	<path fill="url(#SVGID_9_)" d="M140.116,58.379c0,0,2.673,2.102,4.68-0.293s0-8.181,0-8.181l-0.17-1.576
		c0,0,5.477-2.865,5.452-6.501c0,0,5.139-2.947,5.963-1.823s0.374,3.381,0.255,4.534s-7.681,11.028-8.056,13.153
		s-1.347,4.319-0.548,6.441c0,0-12.202-1.598-14.514-1.363S139.616,61.942,140.116,58.379z"/>
	<path fill="#510707" d="M141.218,47.004c0,0,0.084,2.812,1.022,3.375c0,0-5.963,2.679-5.963,2.85S136.821,47.692,141.218,47.004z"
		/>
	<path opacity="0.5" fill="#510707" d="M149.835,65.14c0,0,3.406-10.136,9.094-12.511s10.74-8.396,8.464-11.073
		c0,0-2.651-0.485-5.026-0.425c-2.375,0.061,2.428-4.321,5.026-3.224c2.599,1.097,5.911,2.034,6.099,4.534s0.44-5.399,0.44-5.399
		l2.935,1.837c0,0-1.5,3.327-0.75,6.007c0.75,2.681,3.125,7.806,2.563,9.118s-2.218,2.631-2.218,2.631s0.436-3.758-2.204-4.695
		c-2.641-0.937-10.733,3.876-11.312,5.313c-0.579,1.438-8.303,10.974-8.303,10.974L149.835,65.14z"/>
	<path opacity="0.5" fill="#510707" d="M130.304,70.045c0,0,5.49-0.873,7.839-2.457c2.349-1.584,10.363-3.959,12.106-2.709
		s-4.891,2.5-5.793,4.125s-10.714,4.75-10.402,6.688S130.304,70.045,130.304,70.045z"/>
	<path opacity="0.5" fill="#510707" d="M133.116,75.375c0,0-3.063,0.942-3.5,1.504s4.5,2.558,4.375,4.654
		c-0.125,2.096-1.695,5.946-0.75,5.935s7.994-0.255,8.217,0c0.223,0.254-2.343,8.947,0.782,6.992s5.789-6.835,6.301-7.833
		c0.512-0.998,2.324-2.436,2.324-2.436l-0.788-0.466C150.078,83.726,143.304,88.121,133.116,75.375z"/>
	<path opacity="0.5" fill="#510707" d="M151.653,82.448c0,0,0.463-6.194,1.775-7.381s6.75-5.563,7.813-6.438
		s11.798-7.625,11.798-7.625s-1.877,4.875-1.775,6.938c0.102,2.063-8.523,3.125-9.648,5.75s7.875,4.891,8.5,5.945
		s7.125,0.992,7.125,0.992s-7.188,2.693-9.375,3.097s-20.633,5.079-22.098,7.647C144.304,93.942,151.315,84.392,151.653,82.448z"/>
	<path opacity="0.5" fill="#510707" d="M177.783,39.233c0,0,4-8.5,8.208-6.542s3.375,8.764,1.125,12.194
		c-2.25,3.431-8.417,9.639-9.667,11.139s6.319-7.458,5.764-10.375C182.658,42.733,178.199,39.15,177.783,39.233z"/>
	<path opacity="0.5" fill="#510707" d="M190.053,48.628c0,0-7.851,5.629-9.519,7.565s-8.58,6.999-8.812,15.811
		c0,0,12.229-14.875,14.561-12c2.333,2.875,4.004,6.646,4.004,6.646s6.728-5.521,7.497-5.896s0.327-5.825-2.608-5.194
		c-2.935,0.631-4.036,1.424-4.036,1.424S188.615,52.752,190.053,48.628z"/>
	<g>
		<g>
			<g>
				<path fill="#231F20" d="M197.286,131.079c-2.358-2.53-6.938,1.457-8.282,3.509c-1.213,1.851-2.553,4.086-1.533,6.298
					c0.883,1.914,3.435,1.504,4.704,0.441c0.495-0.415-0.216-1.118-0.707-0.707c-1.403,1.175-3.31,0.549-3.401-1.396
					c-0.045-0.967,0.55-2.008,0.986-2.82c0.479-0.893,1.08-1.612,1.794-2.318c1.144-1.131,4.126-4.025,5.732-2.301
					C197.02,132.258,197.726,131.55,197.286,131.079L197.286,131.079z"/>
			</g>
		</g>
		<g>
			<g>
				<path fill="#231F20" d="M198.214,130.66c-3.503,2.134-8.482,8.517-5.206,12.624c2.434,3.051,8.327-0.537,10.411-2.297
					c0.338-0.285,0.062-0.866-0.354-0.854c-1.729,0.05-3.448,0.425-5.179,0.188c-2.742-0.377-3.118-3.72-2.057-5.739
					c0.3-0.57-0.563-1.076-0.863-0.505c-0.84,1.598-1.087,4.23,0.146,5.727c1.974,2.396,5.285,1.408,7.953,1.33
					c-0.118-0.285-0.235-0.569-0.354-0.854c-1.971,1.665-5.692,3.913-8.347,2.784c-2.335-0.994-1.175-4.561-0.401-6.181
					c1.02-2.139,2.729-4.125,4.754-5.359C199.268,131.188,198.766,130.323,198.214,130.66L198.214,130.66z"/>
			</g>
		</g>
		<g>
			<g>
				<path fill="#231F20" d="M196.069,138.588c0.063-1.34,2.938-6.756,4.521-4.688c0.667,0.871-0.947,2.929-1.408,3.609
					c-0.63,0.928-1.363,1.779-1.999,2.701c-0.367,0.532,0.5,1.032,0.863,0.505c1.186-1.718,5.7-6.256,2.586-8.092
					c-2.603-1.534-5.473,4.059-5.563,5.965C195.039,139.233,196.039,139.23,196.069,138.588L196.069,138.588z"/>
			</g>
		</g>
		<g>
			<g>
				<path fill="#231F20" d="M200.59,135.774c0.938,1.25,2.252,1.977,3.587,2.735c0.562,0.319,1.064-0.545,0.504-0.863
					c-1.161-0.66-2.407-1.284-3.228-2.376C201.071,134.76,200.202,135.258,200.59,135.774L200.59,135.774z"/>
			</g>
		</g>
		<g>
			<g>
				<path fill="#231F20" d="M202.908,140.986c2.201-1.727,3.99-4.038,2.717-6.863c-1.202-2.665-4.946-3.349-7.5-3.362
					c0.144,0.251,0.288,0.501,0.432,0.752c3.715-5.266,10.929-0.498,13.38,3.614c2.171,3.642-0.472,7.413-1.846,10.781
					c-1.221,2.996-1.867,6.156-2.072,9.375c0.327-0.044,0.654-0.088,0.982-0.133c-1.194-6.845,2.898-16.264-3.025-21.688
					c-0.475-0.435-1.184,0.271-0.707,0.707c5.612,5.14,1.623,14.687,2.768,21.247c0.103,0.585,0.948,0.399,0.982-0.133
					c0.328-5.15,2.35-9.183,4.148-13.901c1.209-3.17,0.381-6.106-1.693-8.621c-3.307-4.01-10.189-6.844-13.78-1.754
					c-0.226,0.319,0.078,0.75,0.432,0.752c2.27,0.011,4.47,0.48,6.124,2.133c2.251,2.248-0.248,4.974-2.048,6.385
					C201.694,140.677,202.407,141.379,202.908,140.986L202.908,140.986z"/>
			</g>
		</g>
		<g>
			<g>
				<path fill="#231F20" d="M194.047,143.7c0.018,1.505,0.172,3.142,0.699,4.563c0.223,0.599,1.189,0.34,0.965-0.266
					c-0.501-1.348-0.647-2.87-0.664-4.297C195.039,143.055,194.039,143.055,194.047,143.7L194.047,143.7z"/>
			</g>
		</g>
		<g>
			<g>
				<path fill="#231F20" d="M186.448,143.952c2.063,3.402,7.71,4.627,11.203,5.852c4.027,1.412,11.785,4.246,11.9,9.4
					c0.015,0.644,1.015,0.645,1,0c-0.104-4.686-5.446-7.278-9.119-8.938c-1.952-0.882-3.972-1.575-5.985-2.295
					c-2.557-0.916-6.626-2.034-8.136-4.523C186.978,142.897,186.113,143.399,186.448,143.952L186.448,143.952z"/>
			</g>
		</g>
		<g>
			<g>
				<path fill="#231F20" d="M187.562,138.94c-3.271,0.409-7.518,4.402-5.922,8.001c1.571,3.545,6.57,4.228,9.974,3.715
					c0.636-0.096,0.365-1.059-0.266-0.964c-2.479,0.373-5.214-0.052-7.344-1.399c-3.99-2.524,0.1-7.921,3.558-8.353
					C188.192,139.861,188.2,138.86,187.562,138.94L187.562,138.94z"/>
			</g>
		</g>
		<g>
			<g>
				<path fill="#231F20" d="M190.274,150.527c2.64,2.431,3.659,6.098,6.305,8.519c0.475,0.435,1.184-0.271,0.707-0.707
					c-2.64-2.416-3.662-6.085-6.305-8.519C190.508,149.384,189.799,150.09,190.274,150.527L190.274,150.527z"/>
			</g>
		</g>
		<g>
			<g>
				<path fill="#231F20" d="M196.563,129.766c-1.06-5.153,4.74-7.529,8.786-5.493c3.723,1.874,6.909,7.106,6.759,11.248
					c-0.023,0.645,0.977,0.643,1,0c0.187-5.144-4.019-11.215-8.918-12.803c-4.743-1.537-9.593,2.444-8.592,7.313
					C195.728,130.663,196.691,130.396,196.563,129.766L196.563,129.766z"/>
			</g>
		</g>
		<g>
			<g>
				<path fill="#231F20" d="M205.792,124.095c3.642,0.426,7.164,1.331,10.009,3.763c3.302,2.823,5.213,7.804,4.565,12.077
					c-0.983,6.492-7.956,11.931-6.708,18.891c0.114,0.634,1.078,0.365,0.965-0.266c-0.794-4.427,2.657-9.171,4.626-12.874
					c1.639-3.082,2.604-6.211,2.079-9.715c-1.209-8.083-8.122-12.01-15.536-12.876C205.152,123.02,205.159,124.021,205.792,124.095
					L205.792,124.095z"/>
			</g>
		</g>
		<g>
			<g>
				<path fill="#231F20" d="M214.452,159.167c1.686-6.036,6.934-10.193,8.842-16.157c1.562-4.88,1.543-10.883,0.37-15.822
					c-0.956-4.021-3.362-7.7-7.679-8.227c-3.337-0.407-7.072,1.39-6.774,5.146c0.051,0.638,1.051,0.643,1,0
					c-0.354-4.459,5.546-4.962,8.497-3.288c4.119,2.337,4.689,9.059,4.705,13.182c0.018,4.63-0.758,9.184-3.144,13.192
					c-2.331,3.916-5.529,7.224-6.782,11.709C213.313,159.523,214.278,159.787,214.452,159.167L214.452,159.167z"/>
			</g>
		</g>
		<g>
			<g>
				<path fill="#231F20" d="M221.285,135.692c-0.463-4.662-1.8-10.363-5.599-13.473c-0.494-0.405-1.206,0.298-0.707,0.707
					c3.588,2.937,4.867,8.345,5.306,12.766C220.349,136.327,221.349,136.333,221.285,135.692L221.285,135.692z"/>
			</g>
		</g>
		<g>
			<g>
				<path fill="#231F20" d="M222.306,124.8c1.799,2.129,5.125,0.646,6.737,3.136c2.128,3.287-2.721,7.827-3.558,11.013
					c-0.413,1.571-0.529,3.213-0.872,4.801c-0.448,2.072-1.676,3.689-2.899,5.359c-1.146,1.564-2.523,2.984-3.598,4.593
					c-0.486,0.729-3.506,4.79-3.203,5.249c-0.354-0.535-1.22-0.035-0.863,0.505c0.014,0.021,0.028,0.042,0.042,0.064
					c0.13,0.197,0.334,0.279,0.564,0.229c1.258-0.269,2.127-2.002,2.77-2.999c1.296-2.007,2.667-3.846,4.11-5.75
					c1.366-1.802,2.781-3.553,3.645-5.659c0.784-1.916,0.832-4.119,1.269-6.126c0.717-3.299,5.075-6.752,4.012-10.38
					c-0.408-1.393-1.07-2.414-2.376-3.077c-1.614-0.821-3.807-0.167-5.072-1.665C222.596,123.6,221.893,124.311,222.306,124.8
					L222.306,124.8z"/>
			</g>
		</g>
		<g>
			<g>
				<path fill="#231F20" d="M214.689,158.893c-5.85,0.974-13.916-2.247-18.188,3.296c-0.394,0.511,0.476,1.008,0.863,0.505
					c3.875-5.028,12.227-1.944,17.591-2.837C215.59,159.751,215.32,158.788,214.689,158.893L214.689,158.893z"/>
			</g>
		</g>
		<g>
			<g>
				<path fill="#231F20" d="M203.577,158.534c-2.557,0.103-5.076-0.459-7.57,0.332c-1.889,0.599-3.613,1.922-4.868,3.425
					c-2.084,2.496-1.063,5.751,1.946,6.798c3.089,1.076,6.792-1.705,9.126-3.325c3.116-2.165,6.549-5.719,10.566-5.719
					c0.645,0,0.645-1,0-1c-5.417,0-9.866,5.422-14.325,7.923c-1.258,0.705-2.62,1.25-4.073,1.301
					c-2.665,0.094-4.049-2.696-2.78-4.913c2.581-4.509,7.697-3.651,11.979-3.823C204.22,159.508,204.223,158.508,203.577,158.534
					L203.577,158.534z"/>
			</g>
		</g>
		<g>
			<g>
				<path fill="#231F20" d="M202.177,165.819c2.399-0.439,4.711,0.447,7.095,0.614c1.888,0.132,3.611-0.733,5.123-1.762
					c2.954-2.01,4.583-5.523,4.165-9.045c-0.075-0.632-1.076-0.64-1,0c0.517,4.355-2.234,7.961-6.188,9.532
					c-2.917,1.159-6.379-0.867-9.461-0.303C201.277,164.971,201.547,165.935,202.177,165.819L202.177,165.819z"/>
			</g>
		</g>
		<g>
			<g>
				<path fill="#231F20" d="M218.57,156.637c4.524-0.594,8.16-4.716,10.727-8.166c3.712-4.987,2.496-10.649,1.342-16.32
					c-0.129-0.632-1.093-0.364-0.965,0.266c1.057,5.188,2.267,10.356-0.892,15.059c-2.226,3.312-6.031,7.613-10.212,8.162
					C217.94,155.72,217.933,156.721,218.57,156.637L218.57,156.637z"/>
			</g>
		</g>
		<g>
			<g>
				<path fill="#231F20" d="M221.729,122.484c3.237-5.206,10.138-7.957,15.902-9.096c4.953-0.979,13.129-1.606,16.117,3.473
					c0.188-0.245,0.376-0.49,0.564-0.734c-13.576-4.328-11.625,20.967-22.964,22.472c-0.63,0.083-0.638,1.084,0,1
					c5.735-0.761,8.322-6.763,10.442-11.425c2.3-5.053,5.181-13.338,12.256-11.083c0.425,0.136,0.781-0.367,0.564-0.734
					c-3.129-5.319-10.966-4.894-16.221-4.11c-6.35,0.947-14.005,4.073-17.525,9.733C220.523,122.529,221.389,123.03,221.729,122.484
					L221.729,122.484z"/>
			</g>
		</g>
		<g>
			<g>
				<path fill="#231F20" d="M228.373,126.403c3.27-5.31,8.573-11.103,15.243-11.338c0.643-0.022,0.646-1.023,0-1
					c-7.056,0.249-12.638,6.198-16.106,11.833C227.171,126.449,228.036,126.951,228.373,126.403L228.373,126.403z"/>
			</g>
		</g>
		<g>
			<g>
				<path fill="#231F20" d="M214.169,164.012c-0.679,2.803,0.503,5.605,3.127,6.869c0.423,0.204,0.796-0.125,0.734-0.564
					c-0.403-2.87,0.33-5.242,1.048-7.979c0.408-1.553,0.352-3.167-0.417-4.579c-0.309-0.566-1.172-0.062-0.863,0.505
					c1.301,2.391-0.144,5.167-0.695,7.563c-0.363,1.58-0.26,3.167-0.037,4.756c0.245-0.188,0.49-0.376,0.734-0.564
					c-2.229-1.074-3.243-3.358-2.666-5.74C215.285,163.651,214.321,163.386,214.169,164.012L214.169,164.012z"/>
			</g>
		</g>
		<g>
			<g>
				<path fill="#231F20" d="M220.363,156.058c2.663,1.387,5.246,0.559,7.759-0.757c3.231-1.693,7.28-5.245,10.292-1.296
					c0.251,0.329,0.785,0.334,0.914-0.12c0.647-2.285,0.033-3.999-2.226-4.887c-2.205-0.867-5.48-0.023-7.376-1.471
					c-0.513-0.392-1.01,0.478-0.504,0.863c2.688,2.055,10.764-0.5,9.141,5.229c0.305-0.04,0.609-0.08,0.914-0.12
					c-5.471-7.175-12.054,5.003-18.41,1.695C220.297,154.897,219.791,155.76,220.363,156.058L220.363,156.058z"/>
			</g>
		</g>
		<g>
			<g>
				<path fill="#231F20" d="M230.875,157.018c-3.937,1.373-7.304,7.452-6.668,11.482c0.801,5.073,6.36-0.139,8.02-1.54
					c5.371-4.534,9.781-9.393,17.503-9.123c6.046,0.211,10.069,5.755,6.91,11.254c-2.128,3.705-6.116,6.091-9.117,9.012
					c0.278,0.162,0.557,0.324,0.836,0.486c1.325-6.375,1.122-20.883-8.794-19.016c-0.634,0.119-0.364,1.083,0.266,0.964
					c8.886-1.673,8.718,12.232,7.563,17.786c-0.1,0.48,0.463,0.85,0.836,0.486c4.443-4.325,12.386-8.818,10.226-16.179
					c-2.008-6.84-11.416-6.627-16.608-4.274c-4.909,2.225-8.376,6.522-12.611,9.741c-0.829,0.629-1.729,1.288-2.726,1.616
					c-1.772,0.584-1.331-3.292-1.16-4.007c0.65-2.722,2.989-6.749,5.791-7.726C231.745,157.771,231.485,156.805,230.875,157.018
					L230.875,157.018z"/>
			</g>
		</g>
		<g>
			<g>
				<path fill="#231F20" d="M246.683,158.341c4.494-0.241,5.559,7.361,4.97,10.612c-0.114,0.63,0.85,0.899,0.965,0.266
					c0.699-3.863-0.625-12.163-5.935-11.878C246.041,157.375,246.038,158.375,246.683,158.341L246.683,158.341z"/>
			</g>
		</g>
		<g>
			<g>
				<path fill="#231F20" d="M231.439,161.671c3.76-5.723,11.353-7.667,17.837-6.756c4.611,0.648,12.388,6.932,8.128,11.772
					c-0.424,0.482,0.28,1.192,0.707,0.707c4.724-5.369-2.438-11.366-7.306-13.125c-6.808-2.46-16.346,0.985-20.229,6.897
					C230.221,161.708,231.087,162.208,231.439,161.671L231.439,161.671z"/>
			</g>
		</g>
		<g>
			<g>
				<path fill="#231F20" d="M229.045,159.295c2.453-1.61,5.079-3.067,8.097-2.999c0.646,0.015,0.644-0.985,0-1
					c-3.193-0.073-5.999,1.427-8.601,3.135C228.004,158.784,228.505,159.65,229.045,159.295L229.045,159.295z"/>
			</g>
		</g>
		<g>
			<g>
				<path fill="#231F20" d="M219,162.703c0.503,0.312,0.993,0.645,1.472,0.994c0.981,0.716,0.808,1.448,0.527,2.534
					c-0.424,1.64-0.087,2.79,1.698,3.167c0.629,0.133,0.896-0.831,0.266-0.964c-1.393-0.295-1.226-1.063-0.935-2.19
					c0.174-0.673,0.276-1.313,0.163-2.004c-0.18-1.086-1.856-1.885-2.688-2.399C218.954,161.499,218.453,162.364,219,162.703
					L219,162.703z"/>
			</g>
		</g>
		<g>
			<g>
				<path fill="#231F20" d="M222.306,169.439c0.615,0.72,0.534,2.039,0.534,2.921c0,0.889-0.026,1.878-0.322,2.726
					c-0.213,0.61,0.754,0.871,0.965,0.266c0.354-1.018,0.357-2.217,0.357-3.28c0-1.112-0.072-2.456-0.827-3.34
					C222.594,168.241,221.89,168.952,222.306,169.439L222.306,169.439z"/>
			</g>
		</g>
		<g>
			<g>
				<path fill="#231F20" d="M226.267,155.929c0.342,1.228,0.64,2.507,0.663,3.786c0.012,0.644,1.012,0.645,1,0
					c-0.025-1.366-0.333-2.741-0.698-4.052C227.059,155.043,226.094,155.307,226.267,155.929L226.267,155.929z"/>
			</g>
		</g>
		<g>
			<g>
				<path fill="#231F20" d="M226.828,170.531c0.559,0.901,1.212,1.728,1.952,2.486c0-0.236,0-0.471,0-0.707
					c-0.701,0.669-1.514,1.205-2.215,1.874c-0.468,0.446,0.241,1.152,0.707,0.707c0.701-0.669,1.514-1.205,2.215-1.874
					c0.199-0.19,0.187-0.516,0-0.707c-0.683-0.699-1.281-1.453-1.796-2.284C227.353,169.479,226.487,169.981,226.828,170.531
					L226.828,170.531z"/>
			</g>
		</g>
		<g>
			<g>
				<path fill="#231F20" d="M226.078,174.879c-0.011,0.872-0.18,1.711-0.613,2.475c-0.319,0.561,0.545,1.064,0.863,0.504
					c0.52-0.914,0.737-1.933,0.75-2.979C227.086,174.234,226.086,174.234,226.078,174.879L226.078,174.879z"/>
			</g>
		</g>
		<g>
			<g>
				<path fill="#231F20" d="M225.727,178.468c-12.266-0.1-24.522,13.684-22.803,25.85c0.205-0.205,0.41-0.41,0.615-0.615
					c-6.832-2.15-7.991-12.111-7.517-18.143c0.316-4.017,3.043-8.232,6.971-9.583c0.777-0.268,7.955-2.159,7.769-0.89
					c-0.093,0.63,0.871,0.902,0.965,0.266c0.427-2.907-4.773-1.468-6.146-1.149c-4.264,0.989-7.729,3.256-9.595,7.37
					c-1.846,4.069-1.16,9.396-0.122,13.586c1,4.035,3.217,8.188,7.409,9.508c0.402,0.126,0.665-0.265,0.615-0.615
					c-1.63-11.528,10.294-24.678,21.838-24.584C226.372,179.473,226.371,178.473,225.727,178.468L225.727,178.468z"/>
			</g>
		</g>
		<g>
			<g>
				<path fill="#231F20" d="M201.011,194.473c-0.111-3.786,1.214-7.397,2.923-10.721c1.543-2.999,3.741-6.362,6.781-8.004
					c4.144-2.238,13.329-2.544,14.529,3.353c0.129,0.632,1.093,0.363,0.965-0.266c-1.306-6.417-10.28-6.203-15.027-4.389
					c-3.34,1.276-5.577,4.536-7.364,7.469c-2.261,3.71-3.936,8.167-3.807,12.558C200.029,195.116,201.029,195.118,201.011,194.473
					L201.011,194.473z"/>
			</g>
		</g>
		<g>
			<g>
				<path fill="#231F20" d="M219.161,180.413c0.478,0.955,0.948,1.917,1.533,2.811c0.352,0.538,1.218,0.037,0.863-0.504
					c-0.585-0.895-1.056-1.856-1.533-2.811C219.736,179.332,218.873,179.839,219.161,180.413L219.161,180.413z"/>
			</g>
		</g>
		<g>
			<g>
				<path fill="#231F20" d="M221.13,182.796c-1.562,1.068-2.919,2.437-4.601,3.322c-0.571,0.301-0.065,1.163,0.504,0.863
					c1.683-0.886,3.041-2.254,4.601-3.322C222.163,183.298,221.663,182.431,221.13,182.796L221.13,182.796z"/>
			</g>
		</g>
		<g>
			<g>
				<path fill="#231F20" d="M216.537,186.55c0.02,1.156,0.28,2.329,0.528,3.455c0.14,0.63,1.104,0.362,0.965-0.266
					c-0.23-1.041-0.475-2.12-0.493-3.189C217.526,185.905,216.526,185.904,216.537,186.55L216.537,186.55z"/>
			</g>
		</g>
		<g>
			<g>
				<path fill="#231F20" d="M217.372,189.876c-2.486,4.51-6.154,8.17-9.889,11.655c-0.473,0.44,0.236,1.146,0.707,0.707
					c3.795-3.542,7.52-7.275,10.045-11.858C218.547,189.815,217.684,189.311,217.372,189.876L217.372,189.876z"/>
			</g>
		</g>
		<g>
			<g>
				<path fill="#231F20" d="M207.714,201.657c-1.347-0.547-2.662-1.217-4.089-1.533c-0.628-0.139-0.896,0.825-0.266,0.965
					c1.428,0.316,2.741,0.985,4.089,1.533C208.046,202.864,208.303,201.896,207.714,201.657L207.714,201.657z"/>
			</g>
		</g>
		<g>
			<g>
				<path fill="#231F20" d="M224.732,179.517c-0.556,3.236-1.224,6.661-2.76,9.593c-0.299,0.57,0.564,1.075,0.863,0.504
					c1.582-3.018,2.288-6.499,2.861-9.831C225.806,179.151,224.842,178.882,224.732,179.517L224.732,179.517z"/>
			</g>
		</g>
		<g>
			<g>
				<path fill="#231F20" d="M222.659,190.117c9.654,0.181,22.454-2.624,27.031,8.788c2.39,5.957-1.024,12.182-6.002,15.441
					c-3.69,2.417-7.913,3.77-11.16,6.863c0.278,0.162,0.557,0.324,0.836,0.486c1.424-4.686,3.38-9.237,3.544-14.195
					c0.128-3.889-1.286-7.519-3.486-10.645c-3.129-4.444-9.661-9.813-14.183-4.015c-0.392,0.502,0.311,1.215,0.707,0.707
					c4.66-5.977,11.164,1.276,13.769,5.579c4.397,7.261,0.902,15.007-1.315,22.303c-0.149,0.493,0.483,0.822,0.836,0.486
					c4.015-3.825,9.652-5.144,13.761-8.853c4.189-3.782,5.44-9.982,3.371-15.143c-4.562-11.373-18.196-8.627-27.708-8.805
					C222.014,189.105,222.015,190.105,222.659,190.117L222.659,190.117z"/>
			</g>
		</g>
		<g>
			<g>
				<path fill="#231F20" d="M235.697,190.049c6.977,5.021,10.658,15.943,3.987,22.728c-0.452,0.46,0.255,1.167,0.707,0.707
					c7.147-7.269,3.311-18.899-4.19-24.298C235.677,188.808,235.179,189.676,235.697,190.049L235.697,190.049z"/>
			</g>
		</g>
		<g>
			<g>
				<path fill="#231F20" d="M226.626,191.69c-4.855-1.121-8.179,3.861-7.516,8.282c0.116-0.205,0.233-0.41,0.35-0.615
					c-1.499,0.539-3.118,0.708-4.601,1.278c-0.596,0.229-0.337,1.196,0.266,0.965c1.482-0.571,3.102-0.739,4.601-1.278
					c0.28-0.102,0.393-0.329,0.35-0.615c-0.548-3.653,2.222-7.99,6.285-7.052C226.988,192.8,227.254,191.836,226.626,191.69
					L226.626,191.69z"/>
			</g>
		</g>
		<g>
			<g>
				<path fill="#231F20" d="M214.485,200.941c-2.241,1.151-4.34,2.632-6.39,4.089c-0.521,0.37-0.022,1.237,0.504,0.863
					c2.051-1.457,4.149-2.937,6.39-4.089C215.563,201.51,215.058,200.647,214.485,200.941L214.485,200.941z"/>
			</g>
		</g>
		<g>
			<g>
				<path fill="#231F20" d="M209.104,205.462c0-0.007-0.001-0.013-0.001-0.02c-0.034-0.463-0.685-0.723-0.933-0.252
					c-0.173,0.329-0.146,0.823-0.186,1.184c-0.06,0.545-0.127,1.095-0.137,1.644c0.122-0.161,0.245-0.321,0.367-0.482
					c-1.063,0.258-2.225,0.488-3.313,0.256c-0.629-0.134-0.896,0.83-0.266,0.965c1.271,0.271,2.599,0.046,3.844-0.256
					c0.219-0.053,0.363-0.265,0.367-0.482c0.008-0.442,0.06-0.884,0.104-1.324c0.024-0.251,0.053-0.502,0.081-0.753
					c0.008-0.071,0.096-0.425,0.002-0.245c-0.311-0.084-0.621-0.168-0.932-0.253c0,0.007,0.001,0.013,0.001,0.02
					C208.15,206.101,209.151,206.105,209.104,205.462L209.104,205.462z"/>
			</g>
		</g>
		<g>
			<g>
				<path fill="#231F20" d="M204.382,208.047c-1.899,0.729-3.506,2.317-5.231,3.373c-0.55,0.336-0.048,1.2,0.504,0.863
					c0.906-0.554,1.769-1.178,2.643-1.78c0.731-0.504,1.513-1.17,2.351-1.491C205.243,208.783,204.985,207.816,204.382,208.047
					L204.382,208.047z"/>
			</g>
		</g>
		<g>
			<g>
				<path fill="#231F20" d="M199.654,208.705c1.261-0.646,2.443-1.456,3.578-2.3c0.629-0.467-0.126-1.449-0.076-2.05
					c-0.122,0.16-0.244,0.321-0.366,0.481c0.004-0.001,0.008-0.003,0.012-0.004c-0.162-0.043-0.324-0.086-0.486-0.129
					c-0.007-0.004-0.015-0.008-0.021-0.012c0.311,0.565,1.174,0.062,0.863-0.504c-0.038-0.07-0.084-0.13-0.135-0.191
					c-0.105-0.127-0.333-0.182-0.486-0.128c-0.004,0.001-0.009,0.002-0.013,0.004c-0.226,0.078-0.347,0.246-0.367,0.482
					c-0.044,0.534,0.285,1.109,0.324,1.618c0.083-0.144,0.165-0.288,0.248-0.432c-1.136,0.844-2.318,1.654-3.578,2.3
					C198.576,208.136,199.082,208.998,199.654,208.705L199.654,208.705z"/>
			</g>
		</g>
		<g>
			<g>
				<path fill="#231F20" d="M154.861,67.527c-3.892-3.939-10.658-4.417-15.868-4.699c-3.988-0.216-11.972-1.217-14.697,2.558
					c-0.934,1.293-1.349,3.063-0.055,4.254c1.286,1.184,3.694,0.951,5.263,0.821c2.359-0.194,4.665-0.718,6.868-1.578
					c3.634-1.419,7.276-3.84,11.32-3.57c0.644,0.043,0.64-0.958,0-1c-5.286-0.353-9.8,3.507-14.785,4.619
					c-1.579,0.352-3.202,0.56-4.817,0.61c-1.006,0.031-2.054-0.05-2.966-0.503c-1.853-0.921,0.04-3.296,1.034-3.966
					c1.928-1.3,4.724-1.264,6.955-1.292c2.17-0.027,4.338-0.037,6.506,0.081c4.714,0.255,11.021,0.815,14.536,4.373
					C154.608,68.694,155.315,67.986,154.861,67.527L154.861,67.527z"/>
			</g>
		</g>
		<g>
			<g>
				<path fill="#231F20" d="M129.542,70.178c4.137,7.072,11.219,16.777,20.669,14.371c0.625-0.159,0.359-1.123-0.266-0.964
					c-8.93,2.273-15.659-7.278-19.54-13.912C130.08,69.117,129.216,69.62,129.542,70.178L129.542,70.178z"/>
			</g>
		</g>
		<g>
			<g>
				<path fill="#231F20" d="M151.021,83.133c-3.214-7.567,4.669-15.433,8.953-20.977c2.489-3.222,10.979-14.702,15.61-8.557
					c2.86,3.796-7.366,10.363-9.762,11.951c-3.28,2.175-6.741,3.998-9.754,6.562c-1.445,1.229-3.01,2.791-3.625,4.637
					c-0.74,2.221-0.736,4.598-1.775,6.725c-0.282,0.577,0.581,1.084,0.863,0.505c0.975-1.997,1.102-4.15,1.646-6.275
					c0.882-3.443,4.693-5.922,7.469-7.761c3.122-2.068,6.359-3.851,9.33-6.144c3.192-2.463,10.9-9.119,4.377-12.365
					c-5.924-2.948-12.558,6.742-15.43,10.458c-4.527,5.858-12.17,13.733-8.767,21.746C150.409,84.229,151.27,83.719,151.021,83.133
					L151.021,83.133z"/>
			</g>
		</g>
		<g>
			<g>
				<path fill="#231F20" d="M147.682,64.133c-0.687-6.498,4.052-10.699,7.291-15.661c2.155-3.301,3.304-7.461,0.059-10.42
					c-0.475-0.434-1.185,0.271-0.707,0.707c4.445,4.054-0.484,9.728-3.207,13.194c-2.746,3.497-4.918,7.62-4.437,12.18
					C146.749,64.767,147.75,64.774,147.682,64.133L147.682,64.133z"/>
			</g>
		</g>
		<g>
			<g>
				<path fill="#231F20" d="M152.596,50.702c-4.892-1.903-12.068-1.953-15.991,2.003c-0.455,0.458,0.252,1.166,0.707,0.707
					c3.67-3.701,10.466-3.517,15.018-1.746C152.932,51.9,153.19,50.933,152.596,50.702L152.596,50.702z"/>
			</g>
		</g>
		<g>
			<g>
				<path fill="#231F20" d="M141.085,46.102c-2.806,1.046-5.351,4.066-5.479,7.127c-0.027,0.645,0.973,0.643,1,0
					c0.107-2.583,2.376-5.28,4.744-6.163C141.95,46.842,141.691,45.875,141.085,46.102L141.085,46.102z"/>
			</g>
		</g>
		<g>
			<g>
				<path fill="#231F20" d="M136.145,53.881c3.091,0.78,3.556,3.535,3.424,6.228c-0.029,0.598-0.513,2.969,0.495,3.143
					c0.63,0.109,0.9-0.854,0.266-0.964c0.23,0.04,0.343-4.396,0.227-5.019c-0.394-2.1-2.108-3.838-4.146-4.352
					C135.785,52.759,135.52,53.724,136.145,53.881L136.145,53.881z"/>
			</g>
		</g>
		<g>
			<g>
				<path fill="#231F20" d="M132.279,62.517c-1.335-2.923,4.114-6.64,6.554-6.744c0.643-0.027,0.645-1.027,0-1
					c-3.282,0.14-9.128,4.503-7.417,8.249C131.684,63.608,132.545,63.099,132.279,62.517L132.279,62.517z"/>
			</g>
		</g>
		<g>
			<g>
				<path fill="#231F20" d="M142.382,49.858c-1.799-4.379,3.069-9.627,7.563-8.075c0.611,0.211,0.872-0.755,0.266-0.964
					c-5.162-1.784-10.878,4.23-8.793,9.304C141.659,50.712,142.627,50.455,142.382,49.858L142.382,49.858z"/>
			</g>
		</g>
		<g>
			<g>
				<path fill="#231F20" d="M149.999,41.213c0.814-1.643,2.664-2.77,4.509-2.649c0.644,0.042,0.64-0.958,0-1
					c-2.169-0.142-4.415,1.211-5.373,3.144C148.85,41.284,149.712,41.791,149.999,41.213L149.999,41.213z"/>
			</g>
		</g>
		<g>
			<g>
				<path fill="#231F20" d="M149.767,40.999c-0.605,2.82-2.612,6.129-5.444,7.147c0.211,0.161,0.422,0.321,0.633,0.482
					c-0.202-2.466,1.401-5.887,4.359-4.509c0.581,0.271,1.089-0.591,0.505-0.863c-3.626-1.69-6.139,2.008-5.864,5.373
					c0.024,0.3,0.305,0.6,0.633,0.482c3.173-1.14,5.458-4.655,6.142-7.846C150.866,40.635,149.902,40.368,149.767,40.999
					L149.767,40.999z"/>
			</g>
		</g>
		<g>
			<g>
				<path fill="#231F20" d="M149.749,40.961c-0.241,3.443,3.949,3.129,6.16,4.06c0.594,0.25,0.851-0.718,0.266-0.964
					c-1.72-0.725-5.611-0.443-5.426-3.096C150.793,40.317,149.793,40.321,149.749,40.961L149.749,40.961z"/>
			</g>
		</g>
		<g>
			<g>
				<path fill="#231F20" d="M144.314,48.325c-0.182,0.547-0.338,1.086-0.359,1.666c-0.023,0.645,0.977,0.643,1,0
					c0.018-0.487,0.17-0.941,0.323-1.4C145.482,47.977,144.517,47.716,144.314,48.325L144.314,48.325z"/>
			</g>
		</g>
		<g>
			<g>
				<path fill="#231F20" d="M154.3,38.546c2.125-0.458,3.881,1.489,5.692,2.213c2.06,0.824,4.513,0.552,6.651,1.024
					c4.302,0.951,5.432,6.339,3.79,9.829c-0.273,0.58,0.589,1.088,0.863,0.505c1.564-3.324,1.145-7.987-2.128-10.209
					c-2.438-1.654-5.294-1.349-8.074-1.877c-2.644-0.502-4.201-3.066-7.06-2.449C153.404,37.718,153.671,38.682,154.3,38.546
					L154.3,38.546z"/>
			</g>
		</g>
		<g>
			<g>
				<path fill="#231F20" d="M160.783,39.806c-0.645-2.047,3.705-5.204,5.026-6.022c2.576-1.594,5.774-1.81,8.67-1.201
					c-0.074-0.278-0.147-0.557-0.221-0.835c-1.465,1.853-1.317,19.156-1.861,19.106c-0.643-0.059-0.637,0.942,0,1
					c2.929,0.268,0.844-17.219,2.568-19.399c0.213-0.27,0.185-0.75-0.221-0.835c-3.792-0.798-7.479-0.145-10.659,2.109
					c-1.604,1.137-4.992,4.045-4.268,6.343C160.012,40.685,160.978,40.423,160.783,39.806L160.783,39.806z"/>
			</g>
		</g>
		<g>
			<g>
				<path fill="#231F20" d="M173.679,37.474c2.222,1.486,4.637,2.687,6.598,4.533c1.441,1.356,2.879,6.001,1.309,7.631
					c-0.447,0.464,0.259,1.172,0.707,0.707c1.708-1.772,0.685-5.089-0.071-7.07c-1.256-3.294-5.311-4.84-8.038-6.664
					C173.646,36.251,173.146,37.118,173.679,37.474L173.679,37.474z"/>
			</g>
		</g>
		<g>
			<g>
				<path fill="#231F20" d="M171.705,69.755c-0.758-7.011,5.429-12.439,9.269-17.538c4.057-5.384,6.445-11.422,4.004-18.033
					c-0.222-0.6-1.188-0.34-0.965,0.266c2.835,7.676-1.259,14.372-6.173,20.092c-3.568,4.152-7.765,9.39-7.135,15.214
					C170.773,70.389,171.774,70.396,171.705,69.755L171.705,69.755z"/>
			</g>
		</g>
		<g>
			<g>
				<path fill="#231F20" d="M176.799,38.027c1.993-6.88,9.656-12.218,16.388-8.114c6.326,3.855,2.776,11.725-1.052,15.801
					c-3.615,3.849-8.171,6.684-12.065,10.226c-4.214,3.832-8.132,9.703-9.005,15.386c0.321,0,0.643,0,0.964,0
					c-0.159-0.629-0.323-1.253-0.511-1.875c-0.157-0.518-1.053-0.446-0.982,0.133c0.396,3.208,0.568,9.278,4.286,10.535
					c0.612,0.208,0.873-0.759,0.266-0.964c-3.048-1.031-3.229-6.961-3.551-9.571c-0.327,0.044-0.655,0.088-0.982,0.133
					c0.188,0.621,0.352,1.245,0.511,1.875c0.114,0.453,0.887,0.503,0.964,0c1.172-7.622,7.056-13.784,12.846-18.374
					c4.614-3.658,9.934-7.352,12.104-13.07c2.148-5.661-1.087-11.187-6.834-12.546c-6.45-1.526-12.62,4.33-14.309,10.16
					C175.654,38.382,176.619,38.646,176.799,38.027L176.799,38.027z"/>
			</g>
		</g>
		<g>
			<g>
				<path fill="#231F20" d="M189.635,48.325c-2.218,5.39,3.768,11.021,1.073,16.236c-0.296,0.572,0.567,1.078,0.863,0.505
					c2.82-5.459-3.205-11.05-0.972-16.476C190.845,47.995,189.877,47.737,189.635,48.325L189.635,48.325z"/>
			</g>
		</g>
		<g>
			<g>
				<path fill="#231F20" d="M179.475,79.89c1.87-3.635,5.112-6.426,7.843-9.409c3.27-3.571,6.684-6.958,10.719-9.665
					c0.533-0.357,0.033-1.224-0.504-0.863c-3.865,2.592-7.166,5.782-10.329,9.178c-2.989,3.21-6.563,6.31-8.592,10.254
					C178.316,79.957,179.18,80.463,179.475,79.89L179.475,79.89z"/>
			</g>
		</g>
		<g>
			<g>
				<path fill="#231F20" d="M191.562,57.408c3.728-1.938,12.47-3.899,12.932,2.293c0.308,4.122-1.614,8.105-4.466,10.944
					c-5.033,5.012-13.937,8.129-20.984,8.15c-0.645,0.002-0.645,1.002,0,1c4.565-0.014,9.181-1.46,13.362-3.203
					c4.383-1.827,8.534-4.563,11.067-8.665c1.683-2.725,3.365-8.649,1.021-11.466c-2.961-3.555-9.999-1.704-13.436,0.083
					C190.484,56.842,190.99,57.705,191.562,57.408L191.562,57.408z"/>
			</g>
		</g>
		<g>
			<g>
				<path fill="#231F20" d="M179.421,79.155c-4.185,1.56-8.459,0.606-12.733-0.013c-3.654-0.53-7.059-0.438-10.534,0.87
					c-2.842,1.07-5.479,3.044-7.356,5.42c-2.267,2.867-3.687,6.494-6.809,8.596c-0.532,0.358-0.032,1.225,0.505,0.863
					c2.425-1.633,3.933-4.118,5.49-6.53c2.285-3.54,5.161-6.151,9.144-7.651c7.416-2.792,15.151,2.171,22.559-0.591
					C180.285,79.896,180.026,78.929,179.421,79.155L179.421,79.155z"/>
			</g>
		</g>
		<g>
			<g>
				<path fill="#231F20" d="M133.722,74.877c-4.33,0.058-9.225,4.57-6.947,9.179c1.292,2.613,4.037,3.583,6.785,3.87
					c2.251,0.235,4.578-0.191,6.808-0.463c2.429-0.296,4.881,0.439,7.326,0.17c0.634-0.07,0.641-1.07,0-1
					c-2.915,0.321-5.799-0.364-8.728,0.003c-3.102,0.389-6.271,0.681-9.155-0.774c-2.272-1.146-2.898-3.61-2.177-5.885
					c0.826-2.609,3.496-4.065,6.089-4.1C134.366,75.869,134.367,74.869,133.722,74.877L133.722,74.877z"/>
			</g>
		</g>
		<g>
			<g>
				<path fill="#231F20" d="M142.79,86.481c-3.713,1.507-9.626,5.741-7.487,10.465c1.969,4.348,9.004,2.443,12.078,1.038
					c1.787-0.817,3.502-1.604,5.434-2.01c2.211-0.465,4.616-0.052,6.829,0.195c3.9,0.436,7.349,0.257,10.606-2.102
					c2.579-1.868,4.273-4.776,5.935-7.419c1.647-2.623,3.286-6.938,6.948-6.851c0.646,0.015,0.644-0.985,0-1
					c-4.145-0.099-5.935,4.377-7.812,7.346c-1.75,2.769-3.462,5.53-6.158,7.483c-3.343,2.421-7.463,1.762-11.283,1.35
					c-3.169-0.342-5.949-0.066-8.892,1.175c-2.549,1.076-4.81,2.412-7.643,2.455c-2.942,0.045-6.079-1.322-5.308-4.752
					c0.674-3,4.382-5.338,7.019-6.408C143.645,87.207,143.387,86.239,142.79,86.481L142.79,86.481z"/>
			</g>
		</g>
		<g>
			<g>
				<path fill="#231F20" d="M170.894,92.794c-0.402,2.125,0.7,3.995,2.002,5.598c0.246,0.302,0.742,0.113,0.835-0.221
					c0.938-3.337,1.963-6.656,1.363-10.148c-0.109-0.635-1.072-0.365-0.964,0.266c0.565,3.289-0.482,6.482-1.363,9.617
					c0.278-0.074,0.557-0.147,0.835-0.221c-1.045-1.285-2.075-2.882-1.746-4.625C171.977,92.43,171.013,92.161,170.894,92.794
					L170.894,92.794z"/>
			</g>
		</g>
		<g>
			<g>
				<path fill="#231F20" d="M174.521,87.903c-2.054,4.795,1.542,12.41,5.462,15.337c0.332,0.249,0.724-0.098,0.752-0.432
					c0.563-6.739,1.728-14.4-2.283-20.357c-0.237-0.352-0.79-0.316-0.914,0.12c-1.192,4.202-0.599,8.314,0.17,12.533
					c0.116,0.634,1.079,0.365,0.965-0.266c-0.738-4.05-1.316-7.965-0.17-12.001c-0.305,0.04-0.609,0.08-0.914,0.12
					c3.9,5.793,2.694,13.299,2.146,19.852c0.251-0.144,0.502-0.288,0.752-0.432c-3.428-2.561-6.904-9.763-5.103-13.969
					C175.636,87.822,174.774,87.312,174.521,87.903L174.521,87.903z"/>
			</g>
		</g>
		<g>
			<g>
				<path fill="#231F20" d="M180.052,80.672c2.241,1.938,6.665,1.64,9.347,0.98c0.626-0.154,0.36-1.118-0.266-0.964
					c-2.275,0.559-6.471,0.921-8.374-0.724C180.273,79.545,179.563,80.25,180.052,80.672L180.052,80.672z"/>
			</g>
		</g>
		<g>
			<g>
				<path fill="#231F20" d="M185.334,82.376c2.606,2.184,5.085,5.267,4.471,8.884c-0.095,0.562,0.58,0.862,0.914,0.385
					c3.708-5.3,2.607-11.428-3.246-14.485c-0.57-0.298-1.076,0.565-0.504,0.863c5.396,2.819,6.286,8.257,2.887,13.117
					c0.305,0.128,0.609,0.257,0.914,0.385c0.677-3.989-1.801-7.404-4.729-9.857C185.551,81.258,184.839,81.961,185.334,82.376
					L185.334,82.376z"/>
			</g>
		</g>
		<g>
			<g>
				<path fill="#231F20" d="M182.819,81.549c-0.162,0.545-0.187,1.1-0.188,1.666c-0.001,0.645,0.999,0.645,1,0
					c0.001-0.48,0.015-0.937,0.152-1.4C183.968,81.195,183.003,80.932,182.819,81.549L182.819,81.549z"/>
			</g>
		</g>
		<g>
			<g>
				<path fill="#231F20" d="M182.778,83.739c0.649,0.649,1.338,1.332,2.146,1.782c-0.077-0.188-0.153-0.376-0.23-0.564
					c-0.347,1.006-0.744,2.041-1.312,2.947c-0.344,0.548,0.522,1.05,0.863,0.505c0.61-0.974,1.039-2.103,1.413-3.186
					c0.071-0.207-0.044-0.461-0.23-0.564c-0.734-0.41-1.351-1.035-1.942-1.626C183.029,82.576,182.321,83.283,182.778,83.739
					L182.778,83.739z"/>
			</g>
		</g>
		<g>
			<g>
				<path fill="#231F20" d="M183.501,88.459c0.167,0.902,0.175,1.824,0.341,2.726c0.117,0.634,1.081,0.365,0.965-0.266
					c-0.167-0.902-0.174-1.824-0.341-2.726C184.348,87.56,183.385,87.829,183.501,88.459L183.501,88.459z"/>
			</g>
		</g>
		<g>
			<g>
				<path fill="#231F20" d="M183.893,91.135c0.721,1.49,1.258,3.062,1.913,4.581c0.523,1.211,1.055,2.645,2.084,3.528
					c0.486,0.417,1.197-0.287,0.707-0.707c-1.11-0.953-1.662-2.68-2.202-3.987c-0.54-1.309-1.022-2.645-1.639-3.92
					C184.476,90.049,183.613,90.557,183.893,91.135L183.893,91.135z"/>
			</g>
		</g>
		<g>
			<g>
				<path fill="#231F20" d="M188.11,99.202c0.931,0.343,1.932,0.333,2.896,0.511c0.63,0.117,0.899-0.847,0.266-0.964
					c-0.965-0.178-1.968-0.168-2.896-0.511C187.77,98.014,187.511,98.981,188.11,99.202L188.11,99.202z"/>
			</g>
		</g>
		<g>
			<g>
				<path fill="#231F20" d="M190.827,99.438c-0.173,1.139-0.469,2.249-0.972,3.288c-0.279,0.578,0.582,1.085,0.863,0.505
					c0.542-1.12,0.886-2.298,1.073-3.527C191.888,99.074,190.924,98.803,190.827,99.438L190.827,99.438z"/>
			</g>
		</g>
		<g>
			<g>
				<path fill="#231F20" d="M180.604,93.06c1.392,3.56,2.406,7.263,4.14,10.683c0.292,0.575,1.154,0.069,0.863-0.505
					c-1.694-3.342-2.679-6.965-4.038-10.444C181.337,92.2,180.37,92.458,180.604,93.06L180.604,93.06z"/>
			</g>
		</g>
		<g>
			<g>
				<path fill="#231F20" d="M184.915,103.408c-0.399,0.616-0.711,1.284-0.902,1.994c-0.168,0.624,0.797,0.888,0.965,0.266
					c0.17-0.631,0.445-1.207,0.801-1.754C186.131,103.37,185.265,102.87,184.915,103.408L184.915,103.408z"/>
			</g>
		</g>
		<g>
			<g>
				<path fill="#231F20" d="M184.142,106.229c0.656,0.638,1.615,1.443,2.568,1.509c0.644,0.045,0.64-0.955,0-1
					c-0.297-0.021-0.615-0.269-0.855-0.421c-0.361-0.229-0.699-0.497-1.006-0.795C184.387,105.072,183.679,105.779,184.142,106.229
					L184.142,106.229z"/>
			</g>
		</g>
		<g>
			<g>
				<path fill="#231F20" d="M186.38,107.75c0.001,2.101,0.016,4.218,0.529,6.267c0.157,0.625,1.121,0.36,0.965-0.266
					c-0.493-1.962-0.493-3.99-0.494-6.001C187.38,107.104,186.38,107.104,186.38,107.75L186.38,107.75z"/>
			</g>
		</g>
		<g>
			<g>
				<path fill="#231F20" d="M186.738,113.846c0.188,0.832,0.877,1.547,1.425,2.164c0.614,0.69,1.286,1.325,1.941,1.976
					c0.458,0.455,1.165-0.252,0.707-0.707c-0.563-0.559-1.134-1.11-1.678-1.688c-0.52-0.552-1.258-1.241-1.431-2.009
					C187.561,112.951,186.597,113.218,186.738,113.846L186.738,113.846z"/>
			</g>
		</g>
		<g>
			<g>
				<path fill="#231F20" d="M190.299,118.313c0.087,3.321-2.358,10.558,2.241,11.897c0.62,0.181,0.884-0.784,0.266-0.964
					c-3.649-1.063-1.436-8.215-1.507-10.934C191.282,117.669,190.282,117.668,190.299,118.313L190.299,118.313z"/>
			</g>
		</g>
		<g>
			<g>
				<path fill="#231F20" d="M192.173,129.899c0.007,0.402,0.055,0.805,0.095,1.204c0.034,0.341,0.008,0.759,0.32,0.975
					c0.247,0.171,0.686,0.009,0.734-0.299c0.009-0.059,0.02-0.117,0.021-0.177c0.016-0.645-0.984-0.644-1,0
					c0.005-0.03,0.01-0.06,0.015-0.089c0.245-0.1,0.49-0.199,0.734-0.299c-0.001-0.001-0.002-0.001-0.003-0.002
					c0.076,0.1,0.153,0.199,0.229,0.299c-0.118-0.443-0.138-1.104-0.146-1.612C193.162,129.255,192.162,129.254,192.173,129.899
					L192.173,129.899z"/>
			</g>
		</g>
		<g>
			<g>
				<path fill="#231F20" d="M199.339,89.336c-8.004,6.195-13.32,20.505-5.656,28.99c0.284,0.314,0.883,0.078,0.854-0.354
					c-0.545-7.97,12.207-8.976,17.083-12.551c3.814-2.796,4.194-17.341,10.226-15.761c0.624,0.164,0.889-0.801,0.266-0.964
					c-7.218-1.892-7.218,12.46-10.806,15.704c-4.954,4.479-18.393,4.437-17.769,13.572c0.284-0.118,0.569-0.236,0.854-0.354
					c-7.309-8.092-1.872-21.749,5.656-27.576C200.556,89.649,199.842,88.946,199.339,89.336L199.339,89.336z"/>
			</g>
		</g>
		<g>
			<g>
				<path fill="#231F20" d="M198.819,91.065c3.238-3.343,9.735-4.053,14.129-4.454c6.62-0.604,10.943,4.149,12.296,10.196
					c0.245-0.188,0.49-0.376,0.734-0.564c-2.846-1.357-7.306-4.148-10.146-1.455c-0.469,0.444,0.239,1.15,0.707,0.707
					c2.357-2.235,6.612,0.504,8.936,1.611c0.397,0.19,0.834-0.117,0.734-0.564c-1.303-5.824-5.012-10.312-11.176-10.934
					c-3.071-0.31-6.489,0.529-9.446,1.255c-2.59,0.636-5.565,1.524-7.475,3.495C197.664,90.821,198.37,91.529,198.819,91.065
					L198.819,91.065z"/>
			</g>
		</g>
		<g>
			<g>
				<path fill="#231F20" d="M193.684,116.78c-0.694-6.756,1.202-13.227,4.602-19.028c2.808-4.79,7.217-10.742,13.3-10.97
					c0.643-0.024,0.646-1.024,0-1c-5.901,0.222-10.097,5.251-13.127,9.804c-4.156,6.247-6.549,13.656-5.774,21.194
					C192.749,117.415,193.749,117.421,193.684,116.78L193.684,116.78z"/>
			</g>
		</g>
		<g>
			<g>
				<path fill="#231F20" d="M193.365,117.631c0.179,2.322,0.359,4.643,0.699,6.948c0.095,0.636,1.058,0.365,0.965-0.266
					c-0.328-2.216-0.492-4.45-0.664-6.683C194.316,116.993,193.315,116.988,193.365,117.631L193.365,117.631z"/>
			</g>
		</g>
		<g>
			<g>
				<path fill="#231F20" d="M194.466,125.219c0.569,0.387,1.096,0.865,1.703,1.192c0.567,0.306,1.072-0.557,0.504-0.863
					c-0.606-0.328-1.133-0.806-1.703-1.192C194.435,123.992,193.936,124.859,194.466,125.219L194.466,125.219z"/>
			</g>
		</g>
		<g>
			<g>
				<path fill="#231F20" d="M185.258,113.281c-7.631-4.852-21.063-3.219-26.591,4.142c-2.654,3.535-2.926,8.298-2.029,12.47
					c0.492,2.286,1.507,4.454,2.746,6.423c1.672,2.657,4.196,4.351,6.526,6.374c0.427,0.371,1.059-0.091,0.785-0.606
					c-3.694-6.952,2.607-13.286,6.794-18.267c1.646-1.958,2.791-4.046,4.013-6.286c0.828-1.517,1.816-3.139,3.565-3.656
					c1.544-0.456,4.649-0.068,5.329,1.673c0.232,0.594,1.199,0.336,0.965-0.266c-1.006-2.577-4.701-2.921-7.023-2.235
					c-3.394,1.003-4.48,6.181-6.421,8.659c-4.595,5.868-12.396,12.771-8.085,20.881c0.262-0.202,0.523-0.404,0.785-0.606
					c-1.8-1.563-3.812-2.896-5.342-4.743c-1.547-1.867-2.621-4.118-3.353-6.413c-1.315-4.122-0.995-8.686,1.27-12.401
					c4.622-7.583,18.555-8.735,25.561-4.281C185.3,114.492,185.801,113.626,185.258,113.281L185.258,113.281z"/>
			</g>
		</g>
		<g>
			<g>
				<path fill="#231F20" d="M177.25,118.404c3.962-2.272,9.738-1.073,12.854,2.137c0.45,0.463,1.156-0.245,0.707-0.707
					c-3.429-3.531-9.72-4.786-14.065-2.293C176.187,117.861,176.69,118.725,177.25,118.404L177.25,118.404z"/>
			</g>
		</g>
		<g>
			<g>
				<path fill="#231F20" d="M186.38,115.076c0.035,0.634,0.361,1.263,0.622,1.829c0.23,0.5,0.505,1.188,0.989,1.5
					c0.543,0.351,1.044-0.515,0.504-0.863c-0.18-0.116-0.488-0.842-0.63-1.141c-0.181-0.382-0.465-0.958-0.485-1.324
					C187.344,114.435,186.344,114.431,186.38,115.076L186.38,115.076z"/>
			</g>
		</g>
		<g>
			<g>
				<path fill="#231F20" d="M174.872,110.385c-9.968,5.484-18.653,21.459-9.643,31.283c0.437,0.476,1.142-0.233,0.707-0.707
					c-8.556-9.328,0.079-24.563,9.44-29.712C175.941,110.938,175.437,110.074,174.872,110.385L174.872,110.385z"/>
			</g>
		</g>
		<g>
			<g>
				<path fill="#231F20" d="M196.308,180.55c2.506-6.564-3.689-9.466-9.38-8.847c-3.739,0.406-6.968,1.974-10.166,3.835
					c-2.278,1.326-4.58,2.803-5.442,5.385c-0.135,0.402,0.376,0.814,0.734,0.564c8.102-5.646,18.099,3.04,19.327,11.33
					c0.063,0.418,0.743,0.498,0.914,0.119c2.142-4.743,4.721-9.439,1.257-14.225c-2.605-3.6-7.355-5.906-11.783-5.44
					c-0.635,0.067-0.641,1.067,0,1c4.089-0.43,7.846,1.54,10.555,4.503c3.929,4.298,1.097,9.252-0.892,13.658
					c0.305,0.039,0.609,0.079,0.914,0.119c-1.323-8.928-12.193-17.922-20.797-11.928c0.245,0.188,0.49,0.376,0.734,0.564
					c1.303-3.897,7.764-6.687,11.392-7.813c5.123-1.591,14.599-0.765,11.668,6.909C195.112,180.888,196.08,181.146,196.308,180.55
					L196.308,180.55z"/>
			</g>
		</g>
		<g>
			<g>
				<path fill="#231F20" d="M195.413,182.466c0.321-0.77,0.752-1.465,0.895-2.3c0.107-0.631-0.856-0.9-0.965-0.266
					c-0.141,0.829-0.574,1.534-0.895,2.3C194.2,182.795,195.168,183.052,195.413,182.466L195.413,182.466z"/>
			</g>
		</g>
		<g>
			<g>
				<path fill="#231F20" d="M171.625,180.421c-2.117,3.971-1.615,9.215,0.639,13.026c0.239,0.405,0.758,0.265,0.914-0.119
					c2.109-5.215,5.943-10.538,12.041-10.878c0.642-0.036,0.645-1.036,0-1c-6.587,0.367-10.714,5.948-13.005,11.612
					c0.304-0.04,0.609-0.08,0.914-0.119c-2.066-3.496-2.586-8.365-0.639-12.019C172.792,180.356,171.929,179.852,171.625,180.421
					L171.625,180.421z"/>
			</g>
		</g>
		<g>
			<g>
				<path fill="#231F20" d="M178.45,178.707c-4.614,2.241-6.571,9.652-6.382,14.36c0.026,0.643,1.026,0.646,1,0
					c-0.175-4.368,1.615-11.422,5.886-13.497C179.534,179.289,179.027,178.427,178.45,178.707L178.45,178.707z"/>
			</g>
		</g>
		<g>
			<g>
				<path fill="#231F20" d="M197.132,168.537c0.104,0.669,0.158,1.279,0.383,1.917c0.077-0.188,0.153-0.376,0.23-0.564
					c-0.76,0.48-1.54,0.925-2.3,1.405c-0.232,0.146-0.318,0.441-0.18,0.684c0.389,0.68,0.845,1.33,1.107,2.073
					c0.352,0.994-0.184,2.157-0.597,3.045c-0.271,0.58,0.592,1.089,0.863,0.504c1.151-2.472,0.794-3.847-0.511-6.127
					c-0.06,0.228-0.119,0.456-0.18,0.684c0.761-0.48,1.54-0.925,2.3-1.405c0.181-0.114,0.306-0.35,0.23-0.564
					c-0.22-0.622-0.282-1.269-0.383-1.917C197.997,167.636,197.034,167.907,197.132,168.537L197.132,168.537z"/>
			</g>
		</g>
		<g>
			<g>
				<path fill="#231F20" d="M202.754,165.46c-0.543,2.125-0.343,3.083,1.023,4.831c0.033-0.262,0.067-0.523,0.102-0.785
					c-1.329,0.952-2.613,1.528-3.026,3.133c-0.373,1.45-0.812,2.956-0.928,4.454c-0.05,0.644,0.95,0.639,1,0
					c0.08-1.034,0.381-2.066,0.617-3.072c0.127-0.539,0.264-1.075,0.402-1.61c0.17-0.662,1.846-1.618,2.438-2.042
					c0.284-0.203,0.312-0.517,0.102-0.785c-1.11-1.419-1.194-2.181-0.766-3.858C203.878,165.101,202.914,164.836,202.754,165.46
					L202.754,165.46z"/>
			</g>
		</g>
		<g>
			<g>
				<path fill="#231F20" d="M191.894,191.691c-1.198,1.416-3.038,3.124-4.891,3.577c-0.626,0.153-0.36,1.118,0.266,0.965
					c2.008-0.492,4.03-2.298,5.332-3.835C193.015,191.909,192.311,191.198,191.894,191.691L191.894,191.691z"/>
			</g>
		</g>
		<g>
			<g>
				<path fill="#231F20" d="M186.525,195.884c0.441,1.507,1.322,2.903,1.533,4.473c0.086,0.637,1.05,0.364,0.965-0.266
					c-0.212-1.569-1.092-2.966-1.533-4.473C187.309,195.001,186.344,195.264,186.525,195.884L186.525,195.884z"/>
			</g>
		</g>
		<g>
			<g>
				<path fill="#231F20" d="M188.059,199.962c-0.968,3.11-2.614,5.936-3.833,8.945c-0.242,0.598,0.726,0.855,0.965,0.266
					c1.22-3.012,2.864-5.832,3.833-8.945C189.215,199.61,188.25,199.348,188.059,199.962L188.059,199.962z"/>
			</g>
		</g>
		<g>
			<g>
				<path fill="#231F20" d="M194.959,192.552c-0.569,2.086-1.241,4.222-2.249,6.142c-0.3,0.57,0.563,1.075,0.863,0.504
					c1.049-1.997,1.758-4.21,2.351-6.38C196.094,192.194,195.129,191.931,194.959,192.552L194.959,192.552z"/>
			</g>
		</g>
		<g>
			<g>
				<path fill="#231F20" d="M192.345,199.938c0.634-0.814,2.021-0.663,2.743,0c0.474,0.436,1.183-0.271,0.707-0.707
					c-1.085-0.996-3.179-1.259-4.157,0C191.247,199.734,191.949,200.447,192.345,199.938L192.345,199.938z"/>
			</g>
		</g>
		<g>
			<g>
				<path fill="#231F20" d="M195.088,199.231c-1.142,1.122-2.437,2.072-3.578,3.194c-0.46,0.452,0.247,1.159,0.707,0.707
					c1.142-1.122,2.437-2.072,3.578-3.194C196.256,199.486,195.548,198.779,195.088,199.231L195.088,199.231z"/>
			</g>
		</g>
		<g>
			<g>
				<path fill="#231F20" d="M191.56,202.527c-2.003,2.597-1.859,5.941-2.862,8.936c-0.205,0.613,0.761,0.874,0.965,0.266
					c0.973-2.906,0.817-6.177,2.761-8.697C192.816,202.521,191.947,202.024,191.56,202.527L191.56,202.527z"/>
			</g>
		</g>
		<g>
			<g>
				<path fill="#231F20" d="M201.291,233.963c0.508-1.925-0.269-3.07-1.479-4.532c-3.053-3.686-2.384-8.069,0.76-11.488
					c1.352-1.471,2.901-2.448,4.611-0.882c1.078,0.987,2.223,1.896,3.341,2.838c3.422,2.878,5.775,6.938,2.372,10.962
					c-1.182,1.398-2.72,2.606-4.223,3.629c-0.991,0.675-3.15,1.273-1.96-0.836c0.566-1.003,1.643-1.803,2.5-2.541
					c1.355-1.167,2.351-2.078,3.05-3.747c1-2.389,0.236-5.447-0.666-7.724c-0.235-0.592-1.202-0.334-0.965,0.266
					c0.92,2.319,1.381,4.751,0.667,7.192c-0.475,1.621-2.003,2.626-3.212,3.667c-1.423,1.225-3.526,3.069-2.388,5.104
					c1.676,2.997,8.928-5.289,9.469-6.906c1.186-3.541-0.288-6.29-2.817-8.773c-1.398-1.373-3.012-2.519-4.461-3.838
					c-0.913-0.831-1.568-1.553-2.841-1.343c-1.303,0.214-2.856,1.867-3.696,2.781c-1.268,1.378-2.02,3.209-2.469,4.998
					c-0.382,1.524-0.135,3.088,0.399,4.535c0.804,2.173,3.724,3.793,3.043,6.372C200.162,234.321,201.126,234.586,201.291,233.963
					L201.291,233.963z"/>
			</g>
		</g>
		<g>
			<g>
				<path fill="#231F20" d="M200.966,216.226c-2.08,2.443-2.521,5.22-1.371,8.211c1.057,2.752,5.216,7.379,1.09,9.474
					c-0.575,0.292-0.069,1.154,0.504,0.863c2.319-1.177,2.59-3.196,1.867-5.532c-1.353-4.373-5.231-7.789-1.383-12.309
					C202.088,216.444,201.385,215.733,200.966,216.226L200.966,216.226z"/>
			</g>
		</g>
		<g>
			<g>
				<path fill="#231F20" d="M204.288,218.654c-2.469,2.642-0.595,7.143,2.146,8.835c0.235,0.146,0.544,0.048,0.684-0.18
					c1.683-2.729,1.671-8.255-2.216-9.04c-0.63-0.127-0.897,0.837-0.266,0.965c3.213,0.648,2.967,5.382,1.618,7.571
					c0.228-0.061,0.456-0.12,0.684-0.18c-2.162-1.336-3.95-5.116-1.943-7.265C205.435,218.891,204.729,218.183,204.288,218.654
					L204.288,218.654z"/>
			</g>
		</g>
		<g>
			<g>
				<path fill="#231F20" d="M204.39,218.192c-1.845,1.272-4.133,2.627-4.83,4.899c-0.189,0.618,0.776,0.881,0.965,0.266
					c0.607-1.982,2.765-3.195,4.369-4.302C205.421,218.692,204.922,217.825,204.39,218.192L204.39,218.192z"/>
			</g>
		</g>
		<g>
			<g>
				<path fill="#231F20" d="M206.204,227.19c0.188,0.968,0.543,2.588-0.077,3.449c-0.378,0.524,0.49,1.022,0.863,0.504
					c0.794-1.103,0.418-2.984,0.179-4.219C207.046,226.292,206.082,226.561,206.204,227.19L206.204,227.19z"/>
			</g>
		</g>
		<g>
			<g>
				<path fill="#231F20" d="M189.739,228.716c1.929-2.594,9.566,5.192,11.162,6.385c3.211,2.4,7.573,4.908,11.25,2.022
					c0.507-0.397-0.206-1.101-0.707-0.707c-7.022,5.511-18.281-13.971-22.568-8.204C188.49,228.729,189.359,229.228,189.739,228.716
					L189.739,228.716z"/>
			</g>
		</g>
		<g>
			<g>
				<path fill="#231F20" d="M209.881,233.691c0.645,0,0.645-1,0-1S209.236,233.691,209.881,233.691L209.881,233.691z"/>
			</g>
		</g>
		<g>
			<g>
				<path fill="#231F20" d="M209.748,232.581c-0.716,0.206-0.788,1.534-0.894,2.113c-0.162,0.884-0.341,1.813-0.368,2.714
					c-0.02,0.646,0.98,0.644,1,0c0.02-0.64,0.143-1.285,0.242-1.916c0.071-0.454,0.155-0.906,0.255-1.355
					c0.04-0.178,0.087-0.352,0.14-0.525c0.083-0.275,0.17-0.146-0.109-0.065C210.633,233.367,210.369,232.402,209.748,232.581
					L209.748,232.581z"/>
			</g>
		</g>
		<g>
			<g>
				<path fill="#231F20" d="M209.852,235.078c2.043-2.147,3.859,0.919,4.011,2.368c0.167,1.604-1.36,2.824-2.534,3.546
					c-1.665,1.024-3.975,1.124-5.869,1.056c-4.298-0.156-6.802-5.428-9.28-8.315c-0.757-0.882-5.826-6.471-6.995-5.573
					c-0.504,0.387-0.007,1.256,0.504,0.863c-0.124,0.096,2.43,2.214,2.932,2.668c1.174,1.061,2.328,2.138,3.358,3.339
					c3.252,3.789,5.347,8.197,10.947,8.021c3.468-0.108,7.616-1.671,7.938-5.604c0.237-2.91-3.57-5.334-5.718-3.075
					C208.7,234.838,209.406,235.546,209.852,235.078L209.852,235.078z"/>
			</g>
		</g>
		<g>
			<g>
				<path fill="#231F20" d="M189.184,228.032c-4.983,2.634-7.451,11.144-5.598,16.281c0.218,0.602,1.184,0.343,0.965-0.266
					c-1.707-4.73,0.548-12.727,5.137-15.152C190.258,228.594,189.753,227.731,189.184,228.032L189.184,228.032z"/>
			</g>
		</g>
		<g>
			<g>
				<path fill="#231F20" d="M189.918,228.469c0.951-5.168,7.138-7.577,9.784-11.763c1.893-2.993,0.104-7.988-3.489-8.531
					c-0.631-0.095-0.901,0.868-0.266,0.965c3.23,0.487,4.122,4.483,2.891,7.062c-0.811,1.699-2.72,3.106-4.104,4.332
					c-2.357,2.089-5.18,4.405-5.781,7.67C188.838,228.833,189.801,229.103,189.918,228.469L189.918,228.469z"/>
			</g>
		</g>
		<g>
			<g>
				<path fill="#231F20" d="M195.47,208.534c0.592,4.297-3.31,6.171-5.467,9.203c-2.394,3.363-2.579,7.327-1.688,11.242
					c0.144,0.629,1.107,0.362,0.965-0.266c-1.217-5.347,0.251-9.323,4.039-13.109c2.121-2.121,3.542-4.243,3.116-7.336
					C196.347,207.632,195.383,207.904,195.47,208.534L195.47,208.534z"/>
			</g>
		</g>
		<g>
			<g>
				<path fill="#231F20" d="M195.189,211.036c-4.561,2.209-8.432,4.539-11.742,8.428c-2.188,2.568-5.044,6.036-4.461,9.644
					c0.104,0.636,1.066,0.365,0.965-0.266c-0.561-3.466,2.835-7.105,4.916-9.501c2.993-3.444,6.78-5.48,10.826-7.441
					C196.274,211.618,195.767,210.756,195.189,211.036L195.189,211.036z"/>
			</g>
		</g>
		<g>
			<g>
				<path fill="#231F20" d="M190.071,213.848c-2.73-1.707-5.483-3.16-7.685-5.563c-1.345-1.469-2.647-2.299-4.671-1.887
					c-4.366,0.889-7.032,6.425-8.179,10.189c-1.479,4.854-1.011,9.644,1.188,14.162c1.684,3.461,4.063,6.508,5.54,10.082
					c1.557,3.764,2.85,7.73,3.342,11.783c0.077,0.632,1.077,0.64,1,0c-0.667-5.495-2.566-11.089-5.265-15.922
					c-2.766-4.955-5.896-9.179-5.659-15.095c0.195-4.873,2.27-10.306,6.312-13.237c3.103-2.251,4.778-0.209,6.902,1.912
					c1.876,1.872,4.445,3.049,6.669,4.438C190.115,215.054,190.617,214.188,190.071,213.848L190.071,213.848z"/>
			</g>
		</g>
		<g>
			<g>
				<path fill="#231F20" d="M179.202,256.704c0.279-2.297,1.33-4.373,1.64-6.666c0.292-2.172,0.025-4.406-0.188-6.573
					c-0.457-4.632-0.347-9.267-1.128-13.868c-0.612-3.608-0.841-7.116-0.887-10.759c-0.019-1.374-0.526-7.537,1.218-8.037
					c0.619-0.178,0.355-1.143-0.266-0.965c-1.739,0.499-1.735,3.382-1.852,4.799c-0.241,2.923-0.12,5.927-0.037,8.857
					c0.069,2.438,0.604,4.873,1.012,7.268c0.508,2.994,0.537,6.017,0.658,9.042c0.11,2.763,0.539,5.497,0.582,8.264
					c0.046,3.06-1.391,5.667-1.752,8.639C178.124,257.344,179.125,257.336,179.202,256.704L179.202,256.704z"/>
			</g>
		</g>
		<g>
			<g>
				<path fill="#231F20" d="M178.323,213.995c1.974-0.79,4.121,0.173,5.877,1.1c0.569,0.301,1.074-0.563,0.504-0.863
					c-1.979-1.046-4.424-2.09-6.646-1.201C177.467,213.267,177.725,214.234,178.323,213.995L178.323,213.995z"/>
			</g>
		</g>
		<g>
			<g>
				<path fill="#231F20" d="M188.59,213.765c1.031-2.156,2.907-3.729,3.756-5.997c-0.245,0.1-0.49,0.199-0.734,0.299
					c1.412,0.731,2.394,1.991,3.604,2.988c0.493,0.406,1.205-0.297,0.707-0.707c-1.278-1.054-2.315-2.373-3.808-3.145
					c-0.305-0.158-0.618-0.012-0.734,0.299c-0.813,2.172-2.663,3.686-3.654,5.759C187.45,213.839,188.312,214.347,188.59,213.765
					L188.59,213.765z"/>
			</g>
		</g>
		<g>
			<g>
				<path fill="#231F20" d="M200.907,213.901c-0.239,0.661-0.73,0.081-0.45,0.316c0.086,0.073,0.165,0.154,0.245,0.234
					c0.199,0.199,0.388,0.409,0.581,0.615c0.354,0.38,0.728,0.799,1.19,1.05c0.566,0.309,1.071-0.555,0.504-0.863
					c-0.621-0.338-1.081-1.01-1.568-1.509c-0.397-0.407-1.169-0.934-1.467-0.109C199.723,214.243,200.689,214.503,200.907,213.901
					L200.907,213.901z"/>
			</g>
		</g>
		<g>
			<g>
				<path fill="#231F20" d="M206.181,217.445c3.557-0.632,6.931,0.863,9.473,3.297c1.298,1.242,2.274,2.935,3.183,4.472
					c1.457,2.465,1.434,4.361,0.069,6.831c0.228-0.061,0.456-0.12,0.684-0.18c-2.482-1.319-4.062-4.191-5.57-6.465
					c-0.354-0.535-1.221-0.035-0.863,0.504c1.595,2.405,3.301,5.428,5.93,6.824c0.235,0.126,0.548,0.066,0.684-0.18
					c1.018-1.842,1.597-3.4,1.073-5.496c-0.521-2.082-2.256-4.328-3.579-5.971c-2.723-3.381-7.006-5.372-11.348-4.602
					C205.28,216.594,205.551,217.557,206.181,217.445L206.181,217.445z"/>
			</g>
		</g>
		<g>
			<g>
				<path fill="#231F20" d="M185.19,236.253c-0.085-0.296,1.866,0.209,2.076,0.31c1.211,0.582,2.361,1.161,3.496,1.89
					c2.009,1.291,3.837,2.846,5.836,4.153c3.546,2.32,7.934,3.264,12.122,2.989c3.348-0.219,7.302-1.592,9.261-4.494
					c1.92-2.845,2.116-6.138,1.583-9.447c-0.103-0.636-1.066-0.365-0.965,0.266c0.761,4.724-0.425,9.13-4.94,11.402
					c-4.717,2.374-10.669,1.432-15.214-0.813c-3.882-1.918-6.988-5.038-10.926-6.93c-0.987-0.474-3.846-0.986-3.294,0.94
					C184.403,237.138,185.368,236.874,185.19,236.253L185.19,236.253z"/>
			</g>
		</g>
		<g>
			<g>
				<path fill="#231F20" d="M214.05,243.418c-1.836,4-5.359,7.868-9.796,8.842c-0.63,0.139-0.362,1.103,0.266,0.965
					c4.67-1.025,8.457-5.083,10.394-9.303C215.18,243.341,214.318,242.832,214.05,243.418L214.05,243.418z"/>
			</g>
		</g>
		<g>
			<g>
				<path fill="#231F20" d="M180.359,245.124c3.964-2.507,8.612,0.148,12.2,2.145c3.756,2.088,7.31,4.563,11.219,6.361
					c7.379,3.396,14.141,0.822,18.546-5.747c0.36-0.537-0.506-1.037-0.863-0.504c-2.468,3.68-5.995,6.653-10.583,6.919
					c-4.686,0.271-9.199-2.746-13.012-5.089c-4.798-2.949-12.303-8.56-18.011-4.948C179.312,244.604,179.813,245.47,180.359,245.124
					L180.359,245.124z"/>
			</g>
		</g>
		<g>
			<g>
				<path fill="#231F20" d="M218.522,238.811c0.59,0.837,1.546,2.125,1.099,3.193c-0.249,0.595,0.72,0.852,0.965,0.266
					c0.561-1.34-0.455-2.906-1.2-3.963C219.018,237.783,218.149,238.282,218.522,238.811L218.522,238.811z"/>
			</g>
		</g>
		<g>
			<g>
				<path fill="#231F20" d="M219.087,238.019c2.329-0.514,4.646-0.012,6.459,1.572c2.45,2.141,1.371,5.741,0.187,8.221
					c-2.15,4.504-6.701,8.125-11.447,9.48c-4.873,1.391-10.347-0.275-14.12-3.477c-3.031-2.571-5.21-5.92-8.561-8.149
					c-0.538-0.358-1.038,0.508-0.504,0.863c4.683,3.116,7.38,8.644,12.77,10.784c5.541,2.2,11.145,1.726,16.112-1.606
					c4.174-2.799,8.274-7.91,8.011-13.189c-0.224-4.474-5.434-6.288-9.172-5.464C218.191,237.193,218.459,238.157,219.087,238.019
					L219.087,238.019z"/>
			</g>
		</g>
		<g>
			<g>
				<path fill="#231F20" d="M203.87,253.608c4.035,0.757,8.634,0.133,11.859-2.557c0.496-0.413-0.216-1.117-0.707-0.707
					c-2.928,2.44-7.235,2.984-10.887,2.299C203.506,252.525,203.236,253.489,203.87,253.608L203.87,253.608z"/>
			</g>
		</g>
		<g>
			<g>
				<path fill="#231F20" d="M169.129,226.93c-0.138,2.181-1.273,3.972-2.105,5.934c-0.68,1.603-0.8,3.338-0.786,5.057
					c0.029,3.456,1.195,6.97,2.674,10.056c3.294,6.872,9.17,11.343,16.046,14.194c0.596,0.247,0.853-0.721,0.266-0.965
					c-6.776-2.811-12.044-7.137-15.448-13.734c-1.752-3.396-2.684-7.42-2.506-11.23c0.157-3.364,2.647-5.957,2.859-9.311
					C170.169,226.285,169.169,226.289,169.129,226.93L169.129,226.93z"/>
			</g>
		</g>
		<g>
			<g>
				<path fill="#231F20" d="M169.599,227.854c-4.771-4.689-11.86-2.277-12.586,4.417c-0.439,4.052,1.69,8.019,4.126,11.065
					c1.41,1.763,3.145,3.315,4.934,4.684c1.958,1.497,4.934,2.788,6.318,4.846c0.358,0.532,1.225,0.032,0.863-0.504
					c-1.417-2.106-4.095-3.285-6.096-4.761c-3.105-2.291-5.847-5.115-7.665-8.538c-1.791-3.375-2.376-8.081,0.374-11.089
					c2.566-2.807,6.629-1.767,9.023,0.587C169.352,229.014,170.06,228.307,169.599,227.854L169.599,227.854z"/>
			</g>
		</g>
		<g>
			<g>
				<path fill="#231F20" d="M184.609,262.041c2.932,3.226,5.654,6.718,9.493,8.917c4.006,2.296,9.124,1.966,13.483,1.179
					c7.235-1.308,7.025-8.813,7.012-14.666c-0.002-0.645-1.002-0.645-1,0c0.006,2.655,0.094,5.323-0.423,7.941
					c-0.735,3.733-3.226,5.285-6.769,5.925c-4.463,0.807-9.208,0.474-13.085-2.024c-3.156-2.033-5.511-5.234-8.005-7.979
					C184.882,260.855,184.177,261.565,184.609,262.041L184.609,262.041z"/>
			</g>
		</g>
		<g>
			<g>
				<path fill="#231F20" d="M184.575,261.914c8.014,2.467,15.919,4.97,24.411,4.106c0.635-0.064,0.642-1.065,0-1
					c-8.402,0.854-16.222-1.631-24.146-4.071C184.223,260.759,183.961,261.725,184.575,261.914L184.575,261.914z"/>
			</g>
		</g>
		<g>
			<g>
				<path fill="#231F20" d="M194.291,264.359c5.604,0.025,11.913-2.132,16.199-5.769c0.492-0.418-0.219-1.122-0.707-0.707
					c-4.079,3.462-10.164,5.499-15.492,5.476C193.646,263.356,193.646,264.356,194.291,264.359L194.291,264.359z"/>
			</g>
		</g>
		<g>
			<g>
				<path fill="#231F20" d="M166.258,248.139c2.084,3.422,1.483,7.761,2.624,11.52c0.955,3.147,3.265,5.615,5.915,7.453
					c2.658,1.842,5.979,2.356,9.125,2.634c3.391,0.299,6.737,0.592,10.115,1.004c0.64,0.078,0.632-0.923,0-1
					c-2.65-0.323-5.231-0.702-7.906-0.857c-3.55-0.206-7.01-0.532-10.189-2.252c-3.628-1.961-5.819-5.482-6.648-9.418
					c-0.692-3.282-0.362-6.619-2.17-9.587C166.787,247.085,165.922,247.587,166.258,248.139L166.258,248.139z"/>
			</g>
		</g>
		<g>
			<g>
				<path fill="#231F20" d="M169.241,259.032c-5.235,1.106-10.223,1.026-14.444,4.738c-3.576,3.144-6.567,7.757-6.751,12.612
					c-0.021,0.538,0.662,0.627,0.932,0.252c3.305-4.592,7.867-9.499,13.907-9.94c3.391-0.247,8.229,1.433,11.214-0.742
					c0.516-0.376,0.018-1.244-0.505-0.863c-1.892,1.378-5.031,0.819-7.221,0.694c-2.394-0.137-4.44-0.113-6.739,0.623
					c-4.978,1.595-8.563,5.616-11.52,9.725c0.311,0.084,0.621,0.168,0.932,0.252c0.187-4.922,3.418-9.232,6.99-12.372
					c3.732-3.281,8.886-3.045,13.472-4.014C170.137,259.863,169.87,258.899,169.241,259.032L169.241,259.032z"/>
			</g>
		</g>
		<g>
			<g>
				<path fill="#231F20" d="M170.519,261.716c-5.196,0.932-9.876,0.994-14.34,4.147c-3.559,2.514-6.107,5.983-8.193,9.756
					c-0.313,0.564,0.551,1.068,0.863,0.504c2.17-3.925,4.793-7.249,8.478-9.851c4.027-2.845,8.798-2.757,13.458-3.592
					C171.418,262.566,171.149,261.604,170.519,261.716L170.519,261.716z"/>
			</g>
		</g>
		<g>
			<g>
				<path fill="#231F20" d="M173.287,265.524c-2.538,3.34-1.229,8.265-0.05,11.886c0.14,0.43,0.666,0.477,0.914,0.119
					c1.875-2.695,5.321-5.842,4.012-9.458c-0.218-0.602-1.185-0.342-0.965,0.266c1.171,3.235-2.228,6.27-3.911,8.688
					c0.305,0.039,0.609,0.079,0.914,0.119c-1.104-3.392-2.423-7.993-0.05-11.116C174.541,265.515,173.671,265.018,173.287,265.524
					L173.287,265.524z"/>
			</g>
		</g>
		<g>
			<g>
				<path fill="#231F20" d="M175.263,267.31c-0.169,2.826-0.413,6.437-2.104,8.821c-0.374,0.527,0.494,1.025,0.863,0.504
					c1.801-2.539,2.06-6.309,2.241-9.325C176.302,266.665,175.301,266.669,175.263,267.31L175.263,267.31z"/>
			</g>
		</g>
		<g>
			<g>
				<path fill="#231F20" d="M169.728,259.127c-1.5-5.858-7.815-9.143-12.464-4.311c0.278,0.162,0.557,0.324,0.835,0.486
					c1.354-3.742,6.142-6.266,9.388-3.102c0.462,0.45,1.169-0.256,0.707-0.707c-3.803-3.708-9.448-0.907-11.059,3.543
					c-0.174,0.48,0.501,0.833,0.835,0.486c4.144-4.307,9.483-1.242,10.793,3.869C168.923,260.017,169.888,259.752,169.728,259.127
					L169.728,259.127z"/>
			</g>
		</g>
		<g>
			<g>
				<path fill="#231F20" d="M172.18,268.616c-1.981,0.708-4.125,0.429-6.134,1.022c-0.617,0.183-0.354,1.147,0.266,0.965
					c2.008-0.594,4.149-0.313,6.134-1.022C173.048,269.365,172.789,268.399,172.18,268.616L172.18,268.616z"/>
			</g>
		</g>
		<g>
			<g>
				<path fill="#231F20" d="M166.302,269.383c-4.38,1.827-8.088,4.78-12.131,7.207c-0.552,0.331-0.05,1.196,0.505,0.863
					c3.961-2.377,7.601-5.315,11.892-7.105C167.154,270.103,166.896,269.135,166.302,269.383L166.302,269.383z"/>
			</g>
		</g>
		<g>
			<g>
				<path fill="#231F20" d="M153.795,277.021c0.06,1.005,0.603,1.957,0.785,2.944c0.117,0.634,1.081,0.364,0.964-0.266
					c-0.088-0.479-0.241-0.944-0.387-1.409c-0.122-0.39-0.34-0.899-0.362-1.27C154.757,276.381,153.756,276.377,153.795,277.021
					L153.795,277.021z"/>
			</g>
		</g>
		<g>
			<g>
				<path fill="#231F20" d="M154.809,279.273c-1.34,0.718-2.729,1.313-4.225,1.61c-0.632,0.126-0.364,1.09,0.266,0.965
					c1.577-0.313,3.053-0.955,4.464-1.712C155.882,279.832,155.377,278.969,154.809,279.273L154.809,279.273z"/>
			</g>
		</g>
		<g>
			<g>
				<path fill="#231F20" d="M149.774,281.114c-1.628,2.474-3.047,5.073-4.473,7.667c-0.311,0.565,0.553,1.069,0.863,0.504
					c1.426-2.593,2.845-5.192,4.473-7.667C150.993,281.078,150.127,280.578,149.774,281.114L149.774,281.114z"/>
			</g>
		</g>
		<g>
			<g>
				<path fill="#231F20" d="M145.32,290.025c3.834-3.62,7.697-7.211,12.255-9.915c2.459-1.459,5.139-2.381,7.908-3.038
					c2.59-0.615,5.195,0.226,7.729-0.463c0.622-0.169,0.357-1.134-0.266-0.965c-2.487,0.676-5.158-0.073-7.729,0.464
					c-2.602,0.543-5.072,1.5-7.418,2.731c-4.979,2.612-9.135,6.654-13.186,10.479C144.144,289.762,144.852,290.468,145.32,290.025
					L145.32,290.025z"/>
			</g>
		</g>
		<g>
			<g>
				<path fill="#231F20" d="M175.129,276.609c5.389-1.859,12.421-0.303,17.603,1.665c2.918,1.108,5.854,2.774,8.479,4.455
					c1.9,1.216,2.841,3.714,4.84,4.69c0.576,0.282,1.084-0.58,0.504-0.863c-1.014-0.495-1.723-1.635-2.421-2.48
					c-0.892-1.078-1.91-1.885-3.084-2.637c-2.73-1.747-5.788-3.269-8.817-4.42c-5.042-1.915-12.158-3.173-17.369-1.375
					C174.257,275.854,174.518,276.82,175.129,276.609L175.129,276.609z"/>
			</g>
		</g>
		<g>
			<g>
				<path fill="#231F20" d="M144.956,293.25c-0.086-2.27,3.56-4.397,5.133-5.482c2.034-1.402,4.198-2.618,6.42-3.693
					c3.925-1.898,7.914-2.446,12.211-2.746c1.75-0.122,3.5-0.157,5.253-0.101c1.974,0.063,3.855,1.039,5.745,1.516
					c0.625,0.157,0.891-0.807,0.266-0.965c-1.733-0.438-3.42-1.271-5.208-1.464c-2.306-0.249-4.643-0.085-6.951,0.076
					c-4.514,0.315-8.498,1.213-12.589,3.191c-2.654,1.284-5.193,2.9-7.536,4.684c-1.484,1.129-3.826,2.871-3.746,4.984
					C143.98,293.893,144.98,293.896,144.956,293.25L144.956,293.25z"/>
			</g>
		</g>
		<g>
			<g>
				<path fill="#231F20" d="M177.198,279.675c2.261,1.87,3.609,4.605,4.905,7.183c1.817,3.614,3.084,7.294,3.911,11.253
					c1.612,7.715,1.867,16.159,0.255,23.886c0.328,0.044,0.655,0.089,0.982,0.133c0-0.114,3.126-2.156,3.521-2.474
					c1.511-1.212,2.905-2.56,4.234-3.966c2.426-2.566,4.444-5.502,6.137-8.595c3.381-6.178,5.019-13.154,5.786-20.106
					c0.07-0.641-0.93-0.634-1,0c-0.806,7.297-2.677,14.397-6.324,20.811c-1.833,3.223-4.175,6.119-6.809,8.719
					c-1.371,1.354-2.868,2.578-4.41,3.732c-0.606,0.454-2.136,0.98-2.136,1.879c0,0.554,0.865,0.695,0.982,0.133
					c1.622-7.773,1.213-15.816-0.108-23.604c-0.68-4.007-1.946-7.92-3.758-11.557c-1.437-2.882-2.935-6.043-5.463-8.134
					C177.412,278.561,176.701,279.264,177.198,279.675L177.198,279.675z"/>
			</g>
		</g>
		<g>
			<g>
				<path fill="#231F20" d="M187.259,276.481c3.438,0.896,5.248,4.897,6.435,7.907c1.344,3.41,1.861,6.834,1.754,10.482
					c-0.137,4.668-1.028,9.318-2.253,13.814c-0.616,2.265-1.381,4.496-2.368,6.627c-0.472,1.018-1.08,1.946-1.728,2.859
					c-0.458,0.646-1.188,2.224-1.89,2.662c0.244,0.1,0.489,0.199,0.734,0.299c-0.023-0.096-0.047-0.19-0.069-0.286
					c-0.152-0.627-1.116-0.36-0.965,0.266c0.023,0.096,0.047,0.19,0.069,0.286c0.075,0.309,0.466,0.468,0.735,0.299
					c1.301-0.814,2.421-3.197,3.215-4.46c1.288-2.049,2.06-4.462,2.781-6.753c1.666-5.292,2.598-10.873,2.761-16.416
					c0.114-3.87-0.762-7.698-2.338-11.23c-1.32-2.96-3.227-6.44-6.608-7.321C186.899,275.354,186.635,276.318,187.259,276.481
					L187.259,276.481z"/>
			</g>
		</g>
		<g>
			<g>
				<path fill="#231F20" d="M148.165,275.312c-0.694,0.404-1.45,0.675-2.172,1.022c-0.581,0.279-0.073,1.142,0.505,0.863
					c0.722-0.348,1.478-0.617,2.172-1.022C149.226,275.851,148.723,274.986,148.165,275.312L148.165,275.312z"/>
			</g>
		</g>
		<g>
			<g>
				<path fill="#231F20" d="M145.745,276.766c0.07,1.242,0.983,2.346,1.474,3.447c0.262,0.589,1.124,0.079,0.863-0.504
					c-0.405-0.91-1.28-1.927-1.337-2.943C146.708,276.125,145.708,276.121,145.745,276.766L145.745,276.766z"/>
			</g>
		</g>
		<g>
			<g>
				<path fill="#231F20" d="M147.219,279.325c-1.263,2.906-2.968,5.603-4.191,8.525c-1.386,3.313-1.921,6.905-2.76,10.378
					c-0.151,0.627,0.813,0.893,0.964,0.266c0.775-3.209,1.359-6.452,2.428-9.584c1.08-3.163,3.091-6.017,4.422-9.081
					C148.336,279.244,147.475,278.734,147.219,279.325L147.219,279.325z"/>
			</g>
		</g>
		<g>
			<g>
				<path fill="#231F20" d="M140.625,297.802c-1.578,1.197-3.056,2.513-4.574,3.784c-0.495,0.414,0.216,1.118,0.707,0.707
					c1.452-1.216,2.862-2.483,4.372-3.628C141.637,298.281,141.14,297.412,140.625,297.802L140.625,297.802z"/>
			</g>
		</g>
		<g>
			<g>
				<path fill="#231F20" d="M135.761,302.805c1.434,0.278,2.812,0.759,4.217,1.15c0.622,0.173,0.886-0.792,0.266-0.965
					c-1.404-0.391-2.783-0.871-4.217-1.15C135.397,301.718,135.128,302.682,135.761,302.805L135.761,302.805z"/>
			</g>
		</g>
		<g>
			<g>
				<path fill="#231F20" d="M138.99,303.212c-0.598,3.154-2.112,9.011,0.586,11.556c1.123,1.06,3.623,0.527,4.368-0.744
					c0.539-0.921,0.022-2.127-0.259-3.035c-0.765-2.474-0.562-4.743,0.357-7.127c0.233-0.603-0.734-0.86-0.964-0.266
					c-0.934,2.42-1.063,4.579-0.513,7.106c0.312,1.431,1.334,2.849-0.796,3.526c-1.033,0.329-1.755-0.212-2.14-1.138
					c-1.168-2.811-0.22-6.746,0.323-9.613C140.074,302.848,139.11,302.579,138.99,303.212L138.99,303.212z"/>
			</g>
		</g>
		<g>
			<g>
				<path fill="#231F20" d="M146.196,289.932c-1.803,3.014-2.065,6.787-2.241,10.219c-0.033,0.645,0.967,0.642,1,0
					c0.166-3.252,0.394-6.855,2.104-9.715C147.392,289.881,146.527,289.379,146.196,289.932L146.196,289.932z"/>
			</g>
		</g>
		<g>
			<g>
				<path fill="#231F20" d="M144.102,300.504c0.716,0.715,1.44,1.416,2.273,1.995c-0.034-0.262-0.067-0.523-0.101-0.785
					c-0.678,0.752-1.674,1.071-2.583,1.455c-0.592,0.25-0.082,1.111,0.505,0.863c0.995-0.42,2.042-0.788,2.785-1.611
					c0.228-0.252,0.171-0.596-0.101-0.785c-0.762-0.529-1.417-1.186-2.071-1.839C144.353,299.341,143.646,300.048,144.102,300.504
					L144.102,300.504z"/>
			</g>
		</g>
		<g>
			<g>
				<path fill="#231F20" d="M160.426,260.105c-4.605-2.823-9.496-1.919-14.096,0.429c-2.675,1.365-4.958,3.345-7.495,4.929
					c-2.996,1.87-6.327,3.124-9.734,4c-6.984,1.795-14.314,1.368-21.298-0.128c-3.421-0.732-6.788-1.705-10.196-2.494
					c-1.228-0.284-2.308-0.188-3.466,0.28c-1.166,0.471-2.338,0.79-3.488,1.239c0.188,0.245,0.376,0.49,0.564,0.734
					c2.148-3.002,5.086-5.086,8.195-7.001c3.344-2.061,6.666-4.13,9.932-6.316c6.207-4.156,11.841-8.728,19.164-10.727
					c6.986-1.906,14.989-1.742,20.793,3.036c2.611,2.149,3.955,5.334,6.193,7.815c0.893,0.989,1.957,1.698,3.133,2.301
					c1.2,0.615,1.908,1.405,2.755,2.405c0.329,0.388,0.977-0.024,0.835-0.486c-0.01-0.034-0.021-0.067-0.031-0.101
					c-0.188-0.615-1.153-0.353-0.964,0.266c0.01,0.033,0.021,0.067,0.03,0.101c0.279-0.162,0.557-0.324,0.836-0.486
					c-0.604-0.713-0.965-1.316-1.719-1.876c-1.624-1.207-3.271-1.835-4.689-3.406c-2.509-2.78-3.851-5.912-6.935-8.23
					c-5.375-4.041-12.72-3.955-18.998-2.662c-7.774,1.601-13.702,6.313-20.129,10.661c-3.737,2.528-7.556,4.897-11.396,7.263
					c-3.026,1.864-5.79,4.031-7.871,6.94c-0.247,0.345,0.165,0.891,0.564,0.734c0.756-0.296,1.557-0.279,2.297-0.642
					c2.066-1.014,3.709-1.008,5.908-0.443c3.422,0.88,6.855,1.759,10.32,2.455c5.519,1.11,11.159,1.209,16.721,0.377
					c5.51-0.823,10.733-2.969,15.295-6.146c5.468-3.808,11.894-7.983,18.46-3.958C160.472,261.307,160.974,260.441,160.426,260.105
					L160.426,260.105z"/>
			</g>
		</g>
		<g>
			<g>
				<path fill="#231F20" d="M156.848,255.505c-4.209-2.173-8.888-3.679-13.67-3.391c-0.641,0.038-0.645,1.039,0,1
					c4.608-0.277,9.109,1.161,13.165,3.254C156.915,256.663,157.421,255.801,156.848,255.505L156.848,255.505z"/>
			</g>
		</g>
		<g>
			<g>
				<path fill="#231F20" d="M91.779,268.209c0.88-2.311,3.907-3.489,5.997-4.438c2.631-1.194,5.35-2.095,8.135-2.857
					c3.218-0.882,6.502-1.506,9.741-2.305c3.369-0.83,7.692-2.813,11.165-2.189c0.63,0.112,0.9-0.851,0.266-0.965
					c-3.307-0.593-6.717,0.939-9.888,1.737c-4.125,1.038-8.302,1.868-12.405,2.992c-2.983,0.816-5.836,1.921-8.63,3.238
					c-2.074,0.978-4.483,2.26-5.344,4.521C90.585,268.547,91.552,268.806,91.779,268.209L91.779,268.209z"/>
			</g>
		</g>
	</g>
</g>
</svg>
