<?xml version="1.0" encoding="utf-8"?>
<!-- Generator: Adobe Illustrator 16.0.0, SVG Export Plug-In . SVG Version: 6.00 Build 0)  -->
<!DOCTYPE svg PUBLIC "-//W3C//DTD SVG 1.1//EN" "http://www.w3.org/Graphics/SVG/1.1/DTD/svg11.dtd">
<svg version="1.1" id="Layer_1" xmlns="http://www.w3.org/2000/svg" xmlns:xlink="http://www.w3.org/1999/xlink" x="0px" y="0px"
	 width="350px" height="350px" viewBox="0 0 350 350" enable-background="new 0 0 350 350" xml:space="preserve">
<g>
	<g>
		<path fill="#231F20" d="M214.193,248.841c0.449-0.1,0.899-0.2,1.35-0.302c5.206-1.17,11.43-1.444,14.985-5.972
			c3.022-3.849,3.147-9.151,3.14-14.045c-0.004-2.297-0.049-4.737-1.294-6.667c-1.269-1.965-3.551-3.02-5.789-3.696
			c-9.832-2.972-20.393-0.517-30.35,2.006c-27.347,6.927-54.64,14.314-82.513,18.671c-10.578,1.654-21.272,2.864-31.641,5.628
			c-4.45,1.186-8.317,1.523-10.28,5.778c-1.924,4.171-2.716,10.209-0.146,14.242c1.742,2.733,4.771,4.343,7.749,5.621
			c21.335,9.158,45.752,7.131,68.531,2.645c12.152-2.394,23.046-8.495,33.947-14.091
			C192.102,253.413,202.991,251.328,214.193,248.841z"/>
		<path fill="#373A3C" d="M232.228,140.12c-3.78,16.563-6.756,33.659-3.805,49.826c2.374,12.857,10.197,29.282,0.789,41.453
			c-3.591,4.644-9.316,7.003-14.771,9.166c-9.951,3.942-19.901,7.888-29.853,11.83c-17.816,7.062-35.857,14.183-54.854,16.722
			c-14.805,1.979-30.206,0.912-44.114-4.793c-10.64-4.366-17.668-8.288-15.386-21.052c0.729-4.087,2.269-8.047,4.51-11.547
			c1.882-2.94,4.259-5.554,7.064-7.646c10.737-8.005,25.573-8.151,37.046-15.06c9.187-5.533,15.468-15.07,18.829-25.252
			c3.364-10.184,4.063-21.049,4.102-31.773c0.087-25.694-6.152-51.277-3.793-76.909c0.503-5.448,1.64-6.99,6.43-7.931
			c6.152-1.208,12.212-2.853,18.388-3.994c12.418-2.292,25.001-3.68,37.62-4.143c4.801-0.178,10.112-0.016,15.286,0.866
			c7.169,1.229,24.322,5.02,28.775,10.46c3.539,4.326,0.093,15.485-1.029,20.444c-2.015,8.907-4.019,17.816-5.957,26.74
			C235.914,124.845,233.983,132.425,232.228,140.12z"/>
		<path fill="#373A3C" d="M218.763,76.807c-0.948,6.874-3.772,13.319-6.16,19.834c-8.945,24.417-11.963,50.709-11.528,76.709
			c0.167,10.127,0.83,20.43-1.707,30.237c-3.949,15.272-15.493,27.832-29.216,35.618c-13.721,7.787-29.492,11.249-45.179,12.938
			c-8.586,0.925-17.272,1.347-25.848,0.344c-7.468-0.873-15.252-3.092-20.274-8.686c-2.894-3.223-4.42-7.82-4.106-12.076
			c1.882-2.94,4.259-5.554,7.064-7.646c10.737-8.005,25.573-8.151,37.046-15.06c9.187-5.533,15.468-15.07,18.829-25.252
			c3.364-10.184,4.063-21.049,4.102-31.773c0.087-25.694-6.152-51.277-3.793-76.909c0.503-5.448,1.64-6.99,6.43-7.931
			c6.152-1.208,12.212-2.853,18.388-3.994c12.418-2.292,25.001-3.68,37.62-4.143c4.801-0.178,10.112-0.016,15.286,0.866
			C218.824,64.731,219.562,71.017,218.763,76.807z"/>
		<path fill="#4E5153" d="M80.215,236.719c0.175,2.297,2.158,3.981,3.997,5.369c1.059,0.798,2.164,1.609,3.457,1.901
			s2.832-0.077,3.52-1.211c1.32-2.18-0.867-5.832-0.748-8.274c0.124-2.562,2.319-5.266,0.312-7.52
			C86.486,222.194,79.935,233.031,80.215,236.719z"/>
		<path fill="#4E5153" d="M156.072,82.443c-2.214,17.638-3.284,35.418-3.203,53.193c0.064,13.912-4.378,37.982-12.067,49.576
			c3.376-11.512,7.381-36.678,5.781-48.569c-3.039-22.592-6.62-41.034-2.313-63.602c1.07,2.36,1.785,5.619,3.833,7.206
			C150.689,82.25,152.825,82.053,156.072,82.443z"/>
		<path fill="#2B2E31" d="M103.613,242.829c4.359-7.035,12.757-11.677,20.055-14.65c9.753-3.975,20.33-6.516,28.722-12.88
			c12.81-9.713,17.332-28.214,18.324-43.506c0.512-7.885,0.256-15.818-0.764-23.655c-1.922-14.768-2.071-24.383-2.938-39.247
			c-0.232-3.992-3.045-20.187-1.541-23.898c1.503-3.713,3.122,0.322,7.127-0.259c6.027-0.874,11.039,4.131,15.71,7.994
			c12.37,10.228,28.917,14.532,41.207,24.853c7.64,6.416,13.251,14.847,18.233,23.442c5.051,8.716,9.645,17.971,10.797,27.948
			c1.608,13.929-3.602,27.612-7.739,41.022c-3.888,12.602-7.326,26.209-17.096,35.174c-5.995,5.501-13.763,8.632-21.261,11.865
			c-12.78,5.513-25.42,11.689-39.044,14.624c-19.019,4.097-38.78,1.645-58.086-0.824c-5.565-0.712-17.69-2.359-17.69-2.359
			c0.955-7.162,1.692-15.285,4.204-22.03C102.306,245.172,102.907,243.97,103.613,242.829z"/>
		<path fill="#4E5153" d="M145.54,79.974c27.148,11.188,59.412,12.199,86.671,2.164c2.508-0.923,5.021-1.923,7.32-3.538
			c15.842-11.131-11.775-19.141-17.949-20.004c-17.254-2.412-34.707-2.278-51.94,0.361c-8.422,1.29-18.053,2.218-26.086,5.97
			C135.235,68.813,138.742,77.172,145.54,79.974z"/>
		<path fill="#231F20" d="M150.613,78.127c24.154,8.24,52.858,8.985,77.111,1.595c2.231-0.68,4.467-1.416,6.513-2.606
			c14.094-8.197-10.477-14.097-15.97-14.732c-15.35-1.776-30.878-1.678-46.209,0.267c-7.493,0.949-16.062,1.633-23.209,4.396
			C141.445,69.908,144.565,76.065,150.613,78.127z"/>
	</g>
	<g>
		<path fill="#231F20" d="M248.511,265.563c0.447-0.1,0.895-0.199,1.343-0.301c5.178-1.164,11.369-1.438,14.906-5.94
			c3.006-3.828,3.131-9.104,3.123-13.972c-0.004-2.284-0.049-4.712-1.287-6.631c-1.263-1.955-3.532-3.004-5.759-3.677
			c-9.78-2.957-20.285-0.515-30.189,1.994c-27.204,6.891-54.354,14.239-82.08,18.573c-10.522,1.645-21.16,2.85-31.474,5.598
			c-4.427,1.181-8.273,1.516-10.226,5.748c-1.914,4.149-2.702,10.155-0.145,14.168c1.732,2.719,4.745,4.319,7.708,5.591
			c21.223,9.11,45.51,7.094,68.169,2.631c12.089-2.381,22.925-8.45,33.769-14.017C226.535,270.109,237.367,268.035,248.511,265.563z
			"/>
		<path fill="#373A3C" d="M266.449,157.414c-3.76,16.475-6.72,33.481-3.784,49.563c2.362,12.789,10.144,29.127,0.785,41.234
			c-3.571,4.619-9.268,6.966-14.694,9.118c-9.898,3.922-19.797,7.846-29.694,11.767c-17.724,7.025-35.669,14.109-54.565,16.635
			c-14.728,1.969-30.048,0.907-43.883-4.768c-10.583-4.344-17.575-8.244-15.305-20.941c0.726-4.064,2.257-8.004,4.486-11.486
			c1.871-2.924,4.235-5.524,7.027-7.604c10.681-7.964,25.438-8.109,36.85-14.98c9.139-5.504,15.387-14.991,18.73-25.119
			c3.347-10.131,4.042-20.939,4.08-31.606c0.087-25.559-6.12-51.008-3.773-76.505c0.501-5.419,1.631-6.953,6.396-7.889
			c6.12-1.201,12.147-2.838,18.291-3.973c12.352-2.28,24.87-3.66,37.422-4.121c4.775-0.176,10.06-0.015,15.205,0.862
			c7.132,1.222,24.195,4.993,28.625,10.404c3.52,4.304,0.092,15.404-1.024,20.337c-2.004,8.86-3.997,17.723-5.927,26.6
			C270.116,142.219,268.196,149.758,266.449,157.414z"/>
		<path fill="#414546" d="M253.056,94.433c-0.943,6.839-3.753,13.25-6.128,19.73c-8.898,24.288-11.899,50.442-11.468,76.304
			c0.166,10.074,0.826,20.323-1.697,30.078c-3.929,15.192-15.412,27.686-29.063,35.431c-13.648,7.746-29.335,11.189-44.94,12.869
			c-8.541,0.92-17.182,1.34-25.712,0.343c-7.429-0.869-15.172-3.075-20.167-8.641c-2.879-3.206-4.397-7.779-4.085-12.013
			c1.871-2.924,4.235-5.524,7.027-7.604c10.681-7.964,25.438-8.109,36.85-14.98c9.139-5.504,15.387-14.991,18.73-25.119
			c3.347-10.131,4.042-20.939,4.08-31.606c0.087-25.559-6.12-51.008-3.773-76.505c0.501-5.419,1.631-6.953,6.396-7.889
			c6.12-1.201,12.147-2.838,18.291-3.973c12.352-2.28,24.87-3.66,37.422-4.121c4.775-0.176,10.06-0.015,15.205,0.862
			C253.117,82.42,253.851,88.674,253.056,94.433z"/>
		<path fill="#4E5153" d="M115.238,253.504c0.174,2.285,2.146,3.96,3.977,5.34c1.053,0.794,2.151,1.602,3.438,1.893
			c1.286,0.29,2.817-0.077,3.5-1.205c1.314-2.169-0.861-5.802-0.744-8.23c0.124-2.549,2.309-5.238,0.311-7.481
			C121.475,239.056,114.958,249.835,115.238,253.504z"/>
		<path fill="#4E5153" d="M190.694,100.04c-2.202,17.545-3.267,35.231-3.186,52.914c0.063,13.838-4.356,37.781-12.004,49.314
			c3.358-11.452,7.342-36.486,5.751-48.313c-3.023-22.473-6.585-40.818-2.301-63.267c1.064,2.348,1.775,5.589,3.813,7.168
			C185.34,99.848,187.464,99.652,190.694,100.04z"/>
		<path fill="#4E5153" d="M180.218,97.583c27.006,11.13,59.099,12.135,86.216,2.153c2.494-0.918,4.994-1.912,7.281-3.52
			c15.758-11.072-11.713-19.04-17.855-19.898c-17.162-2.399-34.523-2.267-51.666,0.359c-8.377,1.282-17.957,2.206-25.949,5.938
			C169.967,86.481,173.456,94.796,180.218,97.583z"/>
		<path fill="#231F20" d="M185.264,95.748c24.027,8.196,52.581,8.938,76.706,1.586c2.22-0.677,4.443-1.409,6.479-2.593
			c14.02-8.154-10.421-14.022-15.886-14.654c-15.27-1.768-30.715-1.67-45.967,0.264c-7.454,0.945-15.977,1.625-23.087,4.374
			C176.145,87.571,179.248,93.695,185.264,95.748z"/>
	</g>
</g>
</svg>
