<?xml version="1.0" encoding="utf-8"?>
<!-- Generator: Adobe Illustrator 16.0.0, SVG Export Plug-In . SVG Version: 6.00 Build 0)  -->
<!DOCTYPE svg PUBLIC "-//W3C//DTD SVG 1.1//EN" "http://www.w3.org/Graphics/SVG/1.1/DTD/svg11.dtd">
<svg version="1.1" id="Layer_1" xmlns="http://www.w3.org/2000/svg" xmlns:xlink="http://www.w3.org/1999/xlink" x="0px" y="0px"
	 width="350px" height="350px" viewBox="0 0 350 350" enable-background="new 0 0 350 350" xml:space="preserve">
<g>
	<path fill="#3A71B4" d="M311.764,272.323c0,0-1.986-0.883-2.869-2.575c-0.884-1.692-3.386-8.167-8.536-7.211
		c0,0-12.287-4.782-18.983-10.375c-6.695-5.592-11.92-8.094-17.07-14.274s-23.841-13.244-33.111-15.599
		c0,0-0.441-14.643,0.81-17.953c0,0,2.133-4.674-1.618-26.747c0,0-1.325-7.284,0-10.816c1.324-3.532,5.187-9.787,0-22.037
		c-5.188-12.251-15.784-14.054-22.186-21.89c-6.4-7.836-24.502-22.625-31.235-29.358c-6.731-6.732-10.484-7.837-10.484-7.837
		s9.271-5.077,13.355-9.381c0,0,0.662-2.98,23.84,10.265c0,0,18.211,13.907,21.08,14.569c0,0,5.52,4.856,7.615,5.959
		c2.097,1.104,5.961,0.994,8.94,3.311c0,0,1.435,0,1.986-0.11s2.98-1.324,4.305-1.104s1.877-2.649,1.435-3.201
		c0,0,1.987-0.552,2.429-0.772s1.545-1.436,0.11-4.304c0,0,1.876-0.331,0.993-2.98c-0.883-2.649-0.883-2.649-0.883-2.649
		s1.104-1.655-0.993-3.863c-2.098-2.208-2.76-0.331-5.298-1.214c-2.539-0.884-8.388-1.876-12.362-0.663c0,0-1.213-0.993-3.531-0.883
		c0,0-3.532-2.759-8.167-9.602c-4.636-6.843-20.75-18.543-25.165-19.205c0,0-2.1-1.524-4.338-3.414
		c-2.73-2.306-6.529-2.892-9.804-1.459c-1.638,0.716-3.252,1.506-4.291,2.224c0,0-17.327,5.629-24.059,11.038
		c-6.733,5.408-7.504,5.021-7.504,5.021s-8.39-2.594-13.577-2.484c0,0-5.188-2.096-8.278-1.986c0,0-1.545,2.758-4.966,3.201
		c-3.421,0.441-5.077,0.662-5.077,0.662s0.221-1.767-0.994-2.318c0,0,1.545-11.368-9.602-18.321c0,0-10.228-6.07-20.75,1.435
		S72.334,66.741,72.886,66.557c0,0-0.552,5.298,0,6.512c0.552,1.214,2.428,2.097,2.097,3.421s-1.751,8.167-1.151,8.939
		c0.6,0.773,2.586-0.331,3.8,1.104c1.214,1.435,0.552,2.317,1.214,2.648c0.662,0.331,2.87,0.663,3.091,1.104
		s-0.883,0.993-0.663,1.986c0.221,0.994,1.545,0.441,2.208,0.994c0.662,0.552,0.552,2.869,0.662,3.311
		c0.11,0.442,1.104,1.876,2.428,2.097c1.325,0.221,3.752-2.318,19.205,0.662c0,0-5.96,13.134-0.883,20.529
		c0,0-4.415,11.588-2.208,23.289c0,0-9.602,8.719-35.208,4.966c0,0-7.947-6.402-9.823-7.174s-4.856-1.435-7.615-3.09
		c0,0-3.323-0.332-4.768-1.435c-0.296-0.225-0.719-0.177-0.959,0.106c-0.584,0.686-1.049,2.151,1.753,4.603
		c0,0-2.438-0.585-3.974-1.453c-0.39-0.22-1.03-0.902-2.207-0.681c-1.178,0.221-1.876,1.398-1.619,2.576
		c0.159,0.724,1.104,1.619,1.913,1.619c0,0-1.103,1.766-0.073,2.722c0,0-1.472,2.796-0.074,3.679c0,0-1.177,2.428,0.294,3.311
		c0,0-1.913,2.943,1.545,4.71c3.458,1.765,5.151,1.03,8.683,2.722c3.532,1.693,7.432,2.061,11.626,1.104
		c0,0,3.164,0.441,4.488-0.221c0,0,28.549,9.05,41.72,3.237c0,0,4.194,0.515,5.077,0.294c0.883-0.221,4.635-3.311,4.929-4.783
		c0.294-1.471,7.726-28.549,6.99-37.967c0,0,7.874,1.25,11.847,5.518c3.973,4.267,18.983,8.977,20.455,9.86s4.856,3.532,8.388,4.415
		c3.532,0.883,5.445,0.294,6.917,1.619c0,0,6.328,2.942,6.474,9.712c0,0-1.323,4.416-5.591,4.857c0,0-1.766-0.147-2.648,1.471
		c0,0-8.83,2.424-13.539,6.952c-4.709,4.527-21.598,19.873-23.693,23.363c-0.441,0.735-9.86,8.241-10.595,15.305
		c-0.736,7.063,2.354,12.066,12.656,15.746c10.301,3.679,15.893,6.181,17.512,7.799c1.619,1.619,28.254,9.271,34.583,13.245
		c6.328,3.973,9.858,6.622,9.858,7.357c0,0-1.471,2.539,0,4.305c1.473,1.767,3.901,2.429,4.012,5.85
		c0.11,3.422,2.427,14.018,0,19.426c0,0-1.877,2.759-4.195,3.753c-2.317,0.993-2.759,6.843,0.883,7.284
		c3.644,0.441,11.479-4.084,12.031-4.526c0.552-0.441,4.967-5.518,6.181-10.375c1.032-4.13,5.889-15.728,7.409-18.237
		c0.425-0.703,1.876-2.661,3.063-4.204c1.271-1.654,2.301-3.485,3.021-5.443c0.048-0.128,0.087-0.241,0.118-0.332
		c0.295-0.884,17.659,9.491,26.636,11.847c8.978,2.354,19.131,9.417,20.897,11.404c0,0-1.987,0.956-1.546,2.649
		c0.441,1.691,2.208,0.883,4.048,3.899c0,0-2.392,5.415-2.429,8.094c-0.05,3.517-0.878,6.695-5.003,7.873
		c-4.568,1.304-8.35,0.84-8.644,2.237c-0.295,1.397-0.236,3.557,2.192,4.882c2.428,1.324,14.766,0.533,16.457,0.018
		c1.692-0.515,3.975-2.795,5.077-5.003c1.104-2.208,7.947-9.565,11.92-11.11C304.111,281.962,312.278,277.842,311.764,272.323z
		 M190.356,221.995c-5.445-6.328-18.836-16.482-28.99-18.984c0,0-1.619-1.177,0-2.06c1.619-0.883,10.154-2.355,12.656-3.385
		c2.501-1.031,14.274-5.445,14.274-5.445h1.472c0,0,1.618-1.178,2.943-1.472c0,0,3.091,18.101,15.157,42.677
		C207.868,233.326,195.802,228.322,190.356,221.995z"/>
</g>
</svg>
