<?xml version="1.0" encoding="utf-8"?>
<!-- Generator: Adobe Illustrator 16.0.0, SVG Export Plug-In . SVG Version: 6.00 Build 0)  -->
<!DOCTYPE svg PUBLIC "-//W3C//DTD SVG 1.1//EN" "http://www.w3.org/Graphics/SVG/1.1/DTD/svg11.dtd">
<svg version="1.1" id="Layer_1" xmlns="http://www.w3.org/2000/svg" xmlns:xlink="http://www.w3.org/1999/xlink" x="0px" y="0px"
	 width="350px" height="350px" viewBox="0 0 350 350" enable-background="new 0 0 350 350" xml:space="preserve">
<g>
	<path fill-rule="evenodd" clip-rule="evenodd" fill="#27AAE1" stroke="#1C75BC" stroke-miterlimit="10" d="M203.024,97.112
		c11.763,0,21.356-9.595,21.356-21.358c0-11.763-9.594-21.357-21.356-21.357s-21.358,9.595-21.358,21.357
		C181.666,87.518,191.262,97.112,203.024,97.112z"/>
	<path fill-rule="evenodd" clip-rule="evenodd" fill="#27AAE1" stroke="#1C75BC" stroke-miterlimit="10" d="M164.946,115.432
		l-16.959-4.569c-0.556-0.15-1.147-0.071-1.645,0.219L111.6,131.32c-0.77,0.449-1.738,0.376-2.432-0.183l0,0
		c-0.933-0.751-1.075-2.117-0.316-3.043l30.341-37.014c0.513-0.628,1.335-0.913,2.128-0.738l44.902,9.882
		c0.079,0.018,0.156,0.039,0.232,0.064l33.2,11.303c0.277,0.095,0.533,0.244,0.751,0.44l27.565,24.932
		c0.771,0.696,1.926,0.744,2.749,0.115l27.353-20.851c0.951-0.725,2.311-0.536,3.029,0.421l0.014,0.02
		c0.578,0.771,0.575,1.83-0.01,2.597l-30.727,40.376c-0.726,0.954-2.09,1.131-3.037,0.396l-31.449-24.462
		c-1.108-0.861-2.729-0.451-3.294,0.834l-21.025,47.874c-0.432,0.98-0.074,2.131,0.838,2.695l42.282,26.213
		c0.626,0.389,1.009,1.068,1.019,1.805l0.981,78.42c0.015,1.199-0.953,2.18-2.151,2.182l-6.49,0.006
		c-1.034,0.002-1.925-0.734-2.117-1.752l-12.675-66.744c-0.123-0.65-0.537-1.207-1.124-1.512l-42.46-22.018
		c-0.6-0.311-1.312-0.322-1.921-0.031l-47.86,22.92l-7.673,3.949c-0.717,0.369-1.577,0.307-2.233-0.158l-40.63-28.867
		c-0.854-0.609-1.147-1.74-0.696-2.686l0.844-1.766c0.453-0.947,1.522-1.428,2.53-1.143l37.282,10.596
		c0.583,0.166,1.209,0.076,1.724-0.242l41.156-25.543c0.496-0.309,0.845-0.801,0.969-1.371l13.321-61.268
		C166.734,116.846,166.054,115.73,164.946,115.432z"/>
</g>
</svg>
