<?xml version="1.0" encoding="utf-8"?>
<!-- Generator: Adobe Illustrator 16.0.0, SVG Export Plug-In . SVG Version: 6.00 Build 0)  -->
<!DOCTYPE svg PUBLIC "-//W3C//DTD SVG 1.1//EN" "http://www.w3.org/Graphics/SVG/1.1/DTD/svg11.dtd">
<svg version="1.1" id="Capa_1" xmlns="http://www.w3.org/2000/svg" xmlns:xlink="http://www.w3.org/1999/xlink" x="0px" y="0px"
	 width="350px" height="350px" viewBox="0 0 350 350" enable-background="new 0 0 350 350" xml:space="preserve">
<g>
	<path fill="#88C057" d="M237.25,171.986c6.806,1.615,14.243,1.579,22.176-1.769c13.639-5.753,23.336-18.833,23.639-33.634
		c0.343-16.578-10.176-30.716-24.91-35.884c-1.036-15.051-13.542-26.942-28.851-26.942c-0.044,0-0.089,0.004-0.132,0.004
		c0.271-2.277,0.118-4.686-0.619-7.201c-2.071-7.064-8.28-12.483-15.59-13.352c-5.994-0.711-11.497,1.435-15.354,5.248
		c-3.659-3.305-8.469-5.375-13.8-5.375c-11.422,0-20.681,9.259-20.681,20.68c0,0.036,0.009,0.07,0.009,0.105
		c-13.884,1.053-24.827,12.628-24.827,26.78c0,2.163,0.281,4.256,0.763,6.27c-16.525,0.689-29.719,14.261-29.719,30.953
		c0,5.656,1.536,10.939,4.182,15.507c-5.077,4.173-8.315,10.5-8.315,17.582c0,9.904,6.341,18.307,15.178,21.431
		c-1.141,40.444,13.291,64.305,41.211,96.446c0.5,0.575,1.005,1.154,1.514,1.729c0.11,0.123,0.22,0.245,0.33,0.368
		c11.61,13.028,37.797,3.05,32.164-13.467c-30.08-88.241,62.638-75.485,62.638-75.485s2.65-26.692-21.269-27.942
		c0.031-0.667,0.062-1.338,0.092-2.005C237.14,172.021,237.188,171.999,237.25,171.986z"/>
	<path fill="#659C35" d="M163.458,290.934c-0.109-0.123-0.219-0.245-0.329-0.368c-0.509-0.575-1.014-1.149-1.514-1.729
		c-27.925-32.142-42.357-56.002-41.211-96.446c-8.837-3.124-15.178-11.527-15.178-21.431c0-7.086,3.239-13.409,8.315-17.582
		c-2.642-4.568-4.182-9.851-4.182-15.507c0-16.691,13.194-30.268,29.719-30.953c-0.482-2.014-0.763-4.107-0.763-6.27
		c0-11.242,6.916-20.834,16.713-24.845c-0.649-2.128-1.474-4.273-2.558-6.419c-5.406-10.711-14.919-17.438-23.603-16.025
		c-7.157,1.163-12.164,7.003-14.318,14.858c-6.003-4.042-12.664-5.613-18.68-3.493c-12.896,4.542-16.964,23.085-9.579,40.26
		c0.022,0.052,0.053,0.096,0.075,0.149c-13.98,6.678-17.697,26.534-8.833,44.445c1.294,2.611,2.799,5.011,4.44,7.227
		c-15.441,6.385-19.518,25.771-9.794,42.712c3.106,5.414,7.258,9.873,11.874,13.238c-2.186,5.227-1.711,11.654,1.764,17.587
		c4.665,7.968,13.418,12.699,21.615,12.642c14.406,28.289,32.081,39.264,58.843,50.619c0.281,0.118,0.562,0.237,0.842,0.351
		C165.801,293.119,164.55,292.162,163.458,290.934z"/>
	<path fill="#659C35" d="M173.949,160.23c0.255-0.562,0.373-1.15,0.382-1.729c3.146-7.916,6.933-14.56,10.873-20.101
		c19.676-4.089,34.521,2.058,34.85,2.198c0.574,0.254,1.172,0.369,1.751,0.369c1.688,0,3.299-0.983,4.023-2.624
		c0.974-2.22-0.039-4.81-2.256-5.783c-0.609-0.263-12.716-5.433-30.123-4.165c8.504-8.868,15.968-12.892,17.082-13.453
		c6.377-3.054,15.691,0.895,18.75,2.677c0.698,0.412,1.461,0.605,2.221,0.605c1.5,0,2.966-0.772,3.782-2.159
		c1.229-2.088,0.54-4.774-1.554-6.007c-0.5-0.298-10.364-5.999-20.47-4.854c0.864-3.559,2.781-6.796,3.761-8.096
		c1.47-1.921,1.102-4.673-0.825-6.143c-1.917-1.47-4.678-1.11-6.147,0.821c-0.276,0.355-6.033,7.99-6.02,16.779
		c-6.385,3.91-22.88,15.762-34.42,39.58c-0.623,1.281-1.224,2.659-1.821,4.041c-11.97-8.184-10-22.743-9.89-23.449
		c0.373-2.387-1.255-4.629-3.646-5.011c-2.387-0.381-4.643,1.251-5.024,3.643c-1.272,7.964,0.553,24.375,15.336,33.19
		c-3.265,9.601-5.739,21.063-6.503,34.59c-0.088,0.426-0.105,0.838-0.07,1.26c-0.457,9.481-0.018,20,1.509,31.519
		c-5.563-3.063-8.109-7.543-8.271-7.846c-1.146-2.129-3.787-2.939-5.919-1.817c-2.141,1.128-2.971,3.783-1.838,5.929
		c0.232,0.443,5.485,10.153,17.626,13.905c3.164,17.359,8.802,36.85,17.919,58.724c3.006-0.197,5.933-0.991,8.522-2.282
		c-0.014-0.034-0.009-0.074-0.021-0.113c-9.57-22.769-15.346-42.827-18.417-60.55c-0.018-0.104-0.026-0.205-0.048-0.307
		c-2.282-13.296-3.023-25.244-2.593-35.945c6.143-10.475,24.2-10.896,24.384-10.9c2.422-0.04,4.357-2.027,4.322-4.45
		c-0.035-2.404-1.987-4.325-4.384-4.325c-0.018,0-0.035,0-0.053,0c-0.715,0.008-13.225,0.28-23.15,6.503
		c1.211-8.688,3.225-16.385,5.722-23.222C173.559,160.928,173.782,160.599,173.949,160.23z"/>
</g>
</svg>
