<?xml version="1.0" encoding="utf-8"?>
<!-- Generator: Adobe Illustrator 16.0.0, SVG Export Plug-In . SVG Version: 6.00 Build 0)  -->
<!DOCTYPE svg PUBLIC "-//W3C//DTD SVG 1.1//EN" "http://www.w3.org/Graphics/SVG/1.1/DTD/svg11.dtd">
<svg version="1.1" id="Layer_1" xmlns="http://www.w3.org/2000/svg" xmlns:xlink="http://www.w3.org/1999/xlink" x="0px" y="0px"
	 width="350px" height="350px" viewBox="0 0 350 350" enable-background="new 0 0 350 350" xml:space="preserve">
<g>
	<g>
		<g>
			<polyline fill="none" stroke="#CECECE" stroke-width="4" stroke-miterlimit="10" points="138,236 138,172 167,172 			"/>
			<line fill="none" stroke="#CECECE" stroke-width="4" stroke-miterlimit="10" x1="121" y1="236" x2="155" y2="236"/>
			<line fill="none" stroke="#CECECE" stroke-width="4" stroke-miterlimit="10" x1="121" y1="224" x2="155" y2="224"/>
		</g>
		<g>
			<polyline fill="none" stroke="#CECECE" stroke-width="4" stroke-miterlimit="10" points="214,236 214,172 186,172 			"/>
			<line fill="none" stroke="#CECECE" stroke-width="4" stroke-miterlimit="10" x1="197" y1="236" x2="231" y2="236"/>
			<line fill="none" stroke="#CECECE" stroke-width="4" stroke-miterlimit="10" x1="197" y1="224" x2="231" y2="224"/>
		</g>
	</g>
	
		<line fill="none" stroke="#CECECE" stroke-width="4" stroke-linecap="round" stroke-miterlimit="10" x1="146" y1="139" x2="203" y2="139"/>
	
		<rect x="203" y="131" fill="none" stroke="#CECECE" stroke-width="4" stroke-linecap="round" stroke-miterlimit="10" width="93" height="19"/>
	
		<rect x="53" y="129" fill="none" stroke="#CECECE" stroke-width="4" stroke-linecap="round" stroke-miterlimit="10" width="93" height="19"/>
	
		<line fill="none" stroke="#CECECE" stroke-width="4" stroke-linecap="round" stroke-miterlimit="10" x1="77" y1="129" x2="77" y2="146"/>
	
		<line fill="none" stroke="#CECECE" stroke-width="4" stroke-linecap="round" stroke-miterlimit="10" x1="114" y1="129" x2="114" y2="146"/>
	
		<line fill="none" stroke="#CECECE" stroke-width="4" stroke-linecap="round" stroke-miterlimit="10" x1="272" y1="133" x2="272" y2="150"/>
	
		<line fill="none" stroke="#CECECE" stroke-width="4" stroke-linecap="round" stroke-miterlimit="10" x1="235" y1="133" x2="235" y2="150"/>
	
		<rect x="165" y="114" fill="none" stroke="#CECECE" stroke-width="4" stroke-linecap="round" stroke-miterlimit="10" width="22" height="81"/>
</g>
</svg>
