<?xml version="1.0" encoding="utf-8"?>
<!-- Generator: Adobe Illustrator 16.0.0, SVG Export Plug-In . SVG Version: 6.00 Build 0)  -->
<!DOCTYPE svg PUBLIC "-//W3C//DTD SVG 1.1//EN" "http://www.w3.org/Graphics/SVG/1.1/DTD/svg11.dtd">
<svg version="1.1" id="Capa_1" xmlns="http://www.w3.org/2000/svg" xmlns:xlink="http://www.w3.org/1999/xlink" x="0px" y="0px"
	 width="350px" height="350px" viewBox="0 0 350 350" enable-background="new 0 0 350 350" xml:space="preserve">
<g>
	<path fill="#F9C73D" d="M289.792,222.317c1.002-1.001,1.755-2.197,2.272-3.566C291.547,220.116,290.794,221.316,289.792,222.317
		L289.792,222.317z"/>
	<path fill="#F9C73D" d="M243.427,204.907c-9.351-9.35-15.896-19.577-18.816-28.319c0.033,0.091,0.049,0.178,0.083,0.272
		c3.69,10.758,6.144,21.899,6.144,33.268v30.355c0,8.644-6.318,16.363-14.924,17.183c-9.871,0.939-18.174-6.798-18.174-16.471
		v-8.274h-4.138l-4.138-4.138v-8.274l4.138-4.137h4.138V203.96h-4.138l-4.138-4.137v-8.275l4.138-4.137h4.138v-12.412h-4.138
		l-4.138-4.137v-8.274l4.138-4.137h4.138v-12.412h-4.138l-4.138-4.137v-8.275l4.138-4.137h4.138v-12.412h-4.138l-4.138-4.137v-8.274
		l4.138-4.137h4.138c0-12.826-4.866-24.518-12.847-33.326c-13.637-15.047-36.938-16.21-52.535-3.207
		c-5.879,4.894-13.28,7.571-20.922,7.571h-4.72v24.824h6.094c6.802,0,13.43-2.123,18.965-6.069l11.833-8.436
		c11.188-7.977,27.587-1.601,29.164,12.047c0.091,0.791,0.136,1.589,0.136,2.404v143.078c0,29.59,23.135,54.98,52.721,55.552
		c31.194,0.604,56.481-25.362,54.765-56.797c-0.331-6.062,3.189-11.336,8.154-14.819c0.442-0.311,0.856-0.658,1.241-1.039
		C281.796,230.314,261.034,222.521,243.427,204.907z"/>
</g>
<path fill="#C78829" d="M243.244,245.332h-16.549c-6.843,0-12.412-5.568-12.412-12.411s5.569-12.412,12.412-12.412h16.549
	c2.288,0,4.138,1.85,4.138,4.138s-1.85,4.137-4.138,4.137h-16.549c-2.283,0-4.138,1.854-4.138,4.138
	c0,2.284,1.854,4.138,4.138,4.138h16.549c2.288,0,4.138,1.849,4.138,4.137S245.532,245.332,243.244,245.332z"/>
<path fill="#C78829" d="M181.186,191.548h-16.549c-2.288,0-4.137-1.849-4.137-4.137s1.849-4.138,4.137-4.138h16.549
	c2.287,0,4.138,1.85,4.138,4.138S183.473,191.548,181.186,191.548z"/>
<path fill="#C78829" d="M181.186,208.097h-16.549c-2.288,0-4.137-1.849-4.137-4.137s1.849-4.137,4.137-4.137h16.549
	c2.287,0,4.138,1.849,4.138,4.137S183.473,208.097,181.186,208.097z"/>
<path fill="#C78829" d="M181.186,133.626h-16.549c-2.288,0-4.137-1.849-4.137-4.137c0-2.288,1.849-4.137,4.137-4.137h16.549
	c2.287,0,4.138,1.85,4.138,4.137C185.323,131.777,183.473,133.626,181.186,133.626z"/>
<path fill="#C78829" d="M181.186,150.176h-16.549c-2.288,0-4.137-1.85-4.137-4.137c0-2.288,1.849-4.137,4.137-4.137h16.549
	c2.287,0,4.138,1.849,4.138,4.137C185.323,148.326,183.473,150.176,181.186,150.176z"/>
<ellipse transform="matrix(-0.7071 -0.7071 0.7071 -0.7071 305.6143 507.4442)" fill="#DDB245" cx="257.903" cy="190.427" rx="45.095" ry="20.479"/>
<rect x="94.303" y="67.431" fill="#C78829" width="12.412" height="33.098"/>
<rect x="77.754" y="71.567" fill="#AF8066" width="16.549" height="24.824"/>
<polygon fill="#F9C73D" points="77.754,96.391 57.068,96.391 57.068,83.979 77.754,71.567 "/>
<polygon fill="#DDB245" points="201.871,117.078 206.009,112.94 206.009,104.666 201.871,100.529 193.597,100.529 189.459,104.666 
	189.459,112.94 193.597,117.078 "/>
<polygon fill="#DDB245" points="201.871,146.039 206.009,141.901 206.009,133.626 201.871,129.489 193.597,129.489 189.459,133.626 
	189.459,141.901 193.597,146.039 "/>
<polygon fill="#DDB245" points="201.871,174.999 206.009,170.862 206.009,162.587 201.871,158.45 193.597,158.45 189.459,162.587 
	189.459,170.862 193.597,174.999 "/>
<polygon fill="#DDB245" points="201.871,203.96 206.009,199.823 206.009,191.548 201.871,187.411 193.597,187.411 189.459,191.548 
	189.459,199.823 193.597,203.96 "/>
<polygon fill="#DDB245" points="201.871,232.921 206.009,228.783 206.009,220.509 201.871,216.372 193.597,216.372 189.459,220.509 
	189.459,228.783 193.597,232.921 "/>
</svg>
