<?xml version="1.0" encoding="utf-8"?>
<!-- Generator: Adobe Illustrator 16.0.0, SVG Export Plug-In . SVG Version: 6.00 Build 0)  -->
<!DOCTYPE svg PUBLIC "-//W3C//DTD SVG 1.1//EN" "http://www.w3.org/Graphics/SVG/1.1/DTD/svg11.dtd">
<svg version="1.1" id="Capa_1" xmlns="http://www.w3.org/2000/svg" xmlns:xlink="http://www.w3.org/1999/xlink" x="0px" y="0px"
	 width="350px" height="350px" viewBox="0 0 350 350" enable-background="new 0 0 350 350" xml:space="preserve">
<g>
	<path d="M290.5,83.719c0-4.845-1.886-9.397-5.311-12.819c-7.069-7.072-18.57-7.064-25.643,0L129.979,200.474
		c-1.979,1.979-2.815,4.754-2.45,7.479l-66.89,66.891c-0.929,0.93-1.33,2.267-1.054,3.558c0.276,1.29,1.182,2.349,2.407,2.822
		c0.638,0.245,8.507,3.181,19.145,3.181c10.533,0,23.775-2.885,35.362-14.133l27.694-27.698c0.918-0.918,1.318-2.236,1.062-3.512
		l-2.107-10.548l8.962-8.966l1.376,0.318c0.953,0.222,1.913,0.327,2.862,0.327c3.301,0,6.481-1.295,8.884-3.698l104.961-104.957
		c0-0.004,0.004-0.004,0.004-0.004l14.993-14.992C288.614,93.116,290.5,88.564,290.5,83.719z M253.447,117.289l-9.152-20.136
		l9.233-9.238l9.153,20.136L253.447,117.289z M238.338,132.397l-9.152-20.136l9.233-9.234l9.153,20.136L238.338,132.397z
		 M143.178,217.487l-7.002,6.998c-0.917,0.918-1.318,2.236-1.062,3.511l2.107,10.549l-26.178,26.187
		c-14.079,13.666-31.221,12.682-40.175,10.882l61.073-61.073c0.023,0.012,0.05,0.016,0.074,0.027c0.7,0.381,1.458,0.677,2.255,0.863
		L143.178,217.487z M159.737,210.998c-1.182,1.186-2.854,1.672-4.502,1.291l-19.214-4.437c-0.202-0.047-0.323-0.147-0.443-0.249
		c-0.085-0.073-0.175-0.151-0.252-0.287c-0.043-0.082-0.109-0.168-0.132-0.245c-0.082-0.287-0.101-0.716,0.284-1.104l87.834-87.834
		l9.152,20.136L159.737,210.998z M279.691,91.044l-11.14,11.139l-9.152-20.136l5.649-5.649c2.021-2.018,4.67-3.025,7.325-3.025
		c2.651,0,5.299,1.007,7.321,3.025c1.955,1.956,3.032,4.557,3.032,7.321C282.728,86.483,281.646,89.088,279.691,91.044z"/>
	<path d="M109.107,245.578l-7.776,7.776c-1.52,1.521-1.52,3.978,0,5.497c0.758,0.759,1.754,1.14,2.749,1.14s1.991-0.381,2.749-1.14
		l7.776-7.775c1.52-1.52,1.52-3.978,0-5.498C113.085,244.059,110.627,244.059,109.107,245.578z"/>
	<path d="M93.532,261.119c-0.7,0.738-1.127,1.749-1.127,2.76c0,1.012,0.428,2.022,1.127,2.761c0.739,0.7,1.75,1.128,2.761,1.128
		c1.05,0,2.022-0.428,2.76-1.128c0.739-0.738,1.128-1.749,1.128-2.761c0-1.011-0.389-2.021-1.128-2.76
		C97.614,259.681,95.009,259.681,93.532,261.119z"/>
</g>
</svg>
