<?xml version="1.0" encoding="utf-8"?>
<!-- Generator: Adobe Illustrator 16.0.0, SVG Export Plug-In . SVG Version: 6.00 Build 0)  -->
<!DOCTYPE svg PUBLIC "-//W3C//DTD SVG 1.1//EN" "http://www.w3.org/Graphics/SVG/1.1/DTD/svg11.dtd">
<svg version="1.1" id="Layer_1" xmlns="http://www.w3.org/2000/svg" xmlns:xlink="http://www.w3.org/1999/xlink" x="0px" y="0px"
	 width="350px" height="350px" viewBox="0 0 350 350" enable-background="new 0 0 350 350" xml:space="preserve">
<path fill="#E6E9ED" d="M245.243,185.215c-1.817-4.889-7.245-7.388-12.139-5.575l-18.758,6.941l-25.567-25.557l-25.562-25.563
	l6.946-18.763c1.813-4.894-0.69-10.326-5.575-12.138c-4.898-1.808-10.33,0.686-12.143,5.579l-43.671,117.94l-46.183,46.182
	c-3.625,3.626-3.687,9.449-0.2,13.149c0.063,0.071,0.133,0.143,0.2,0.209c1.848,1.848,4.265,2.77,6.679,2.77
	c2.423,0,4.835-0.926,6.679-2.77l47.082-47.081l90.767-33.604c1.024-0.195,2.021-0.561,2.947-1.095l22.918-8.481
	C244.559,195.545,247.056,190.107,245.243,185.215z M133.153,216.65l22.842-61.696l19.427,19.427l19.432,19.422L133.153,216.65z"/>
<path fill="#CCD1D9" d="M239.663,197.356l-22.917,8.483c-0.927,0.533-1.924,0.898-2.947,1.095l-90.767,33.604L75.95,287.619
	c-1.843,1.843-4.257,2.769-6.679,2.769c-2.414,0-4.831-0.921-6.679-2.769c-0.067-0.066-0.138-0.138-0.2-0.209l70.761-70.761
	l61.701-22.847l-19.432-19.422l13.357-13.357l25.567,25.558l18.758-6.942c4.894-1.812,10.321,0.686,12.139,5.575
	C247.056,190.107,244.559,195.545,239.663,197.356z"/>
<g>
	<path fill="#656D78" d="M195.854,69.286c-6.241-6.242-14.538-9.675-23.363-9.675c-8.825,0-17.12,3.434-23.359,9.671
		c-12.882,12.882-12.882,33.845,0,46.726c6.238,6.238,14.538,9.675,23.363,9.675c8.821-0.004,17.116-3.437,23.359-9.68
		C208.732,103.126,208.736,82.167,195.854,69.286z M172.492,106.791c-3.776,0-7.329-1.469-10.001-4.141
		c-5.517-5.517-5.517-14.493,0-20.01c2.672-2.672,6.225-4.141,10.001-4.141c3.78,0.004,7.333,1.474,10.004,4.146
		c5.514,5.512,5.514,14.488,0,20.001C179.82,105.321,176.272,106.795,172.492,106.791z"/>
	<path fill="#656D78" d="M280.517,153.948c-12.882-12.882-33.845-12.882-46.717,0c-12.882,12.882-12.886,33.84-0.005,46.722
		c6.438,6.438,14.903,9.657,23.359,9.662c8.459,0,16.919-3.224,23.358-9.662C293.394,187.788,293.397,166.83,280.517,153.948z
		 M247.153,187.312c-5.518-5.517-5.518-14.493,0-20.01c2.761-2.752,6.376-4.132,10.001-4.132c3.624,0,7.249,1.38,10.005,4.136
		c5.517,5.517,5.513,14.489,0,20.001C261.642,192.823,252.67,192.828,247.153,187.312z"/>
</g>
<g>
	<path fill="#434A54" d="M195.854,116.003c-6.243,6.243-14.538,9.676-23.359,9.68c-8.825,0-17.125-3.437-23.363-9.675l13.358-13.357
		c2.672,2.672,6.225,4.141,10.001,4.141c3.78,0.004,7.329-1.469,10.004-4.146c5.514-5.513,5.514-14.489,0-20.001l13.358-13.358
		C208.736,82.167,208.732,103.126,195.854,116.003z"/>
	<path fill="#434A54" d="M280.512,200.669c-6.438,6.439-14.898,9.663-23.358,9.663c-8.455-0.006-16.92-3.224-23.358-9.663
		l13.357-13.357c5.517,5.517,14.488,5.513,20.005-0.005c5.513-5.512,5.517-14.484,0-20.001l13.357-13.357
		C293.397,166.83,293.394,187.788,280.512,200.669z"/>
</g>
</svg>
