<?xml version="1.0" encoding="utf-8"?>
<!-- Generator: Adobe Illustrator 16.0.0, SVG Export Plug-In . SVG Version: 6.00 Build 0)  -->
<!DOCTYPE svg PUBLIC "-//W3C//DTD SVG 1.1//EN" "http://www.w3.org/Graphics/SVG/1.1/DTD/svg11.dtd">
<svg version="1.1" id="Layer_1" xmlns="http://www.w3.org/2000/svg" xmlns:xlink="http://www.w3.org/1999/xlink" x="0px" y="0px"
	 width="350px" height="350px" viewBox="0 0 350 350" enable-background="new 0 0 350 350" xml:space="preserve">
<g>
	<path fill="#1E120D" d="M155.381,240.14c0.674,6.396-0.338,6.055-1.214,10.384c-1.792,8.855-4.046,18.077-4.046,18.077h12.255
		c0,0,3.403-13.608,4.72-19.139c2.178-9.134,1.773-9.322,1.957-16.911h-14.574C154.492,232.624,154.854,235.149,155.381,240.14z"/>
	<path fill="#1E120D" d="M254.784,240.14c0.673,6.396-0.34,6.055-1.216,10.384c-1.792,8.855-4.048,18.077-4.048,18.077h12.258
		c0,0,3.401-13.608,4.721-19.139c2.177-9.134,1.771-9.322,1.957-16.911h-14.574C253.894,232.624,254.256,235.149,254.784,240.14z"/>
	<path fill="#1E120D" d="M236.844,111.676c0,0-58.822,0.565-79.862,0.565c-16.749,0-24.678-7.563-31.353-17.672
		c-2.215-3.333-6.677-10.627-17.398-11.664c-8.142-0.786-22.417,1.997-28.082,9.851c-3.333,4.619-2.182,9.064-0.671,11.944
		c-3.592,5.537-5.532,9.826-7.017,12.451c-4.587,8.11-5.663,12.579-3.39,18.155c2.945,7.222,13.757,5.891,13.757,5.891
		c9.46-0.233,22.749,10.607,31.263,40.236c7.437,25.877,30.905,31.583,30.905,31.583l6.878,16.424h19.221l3.439-16.11
		c31.762-0.313,47.327-1.438,59.48,1.757c9.726,2.563,12.772,10.149,16.342,14.354h21.502c1.11-20.486,3.731-27.604,7.473-51.44
		c3.39-21.593,3.12-31.407-1.468-43.184C267.589,108.43,236.844,111.676,236.844,111.676z"/>
</g>
</svg>
