<?xml version="1.0" encoding="utf-8"?>
<!-- Generator: Adobe Illustrator 16.0.0, SVG Export Plug-In . SVG Version: 6.00 Build 0)  -->
<!DOCTYPE svg PUBLIC "-//W3C//DTD SVG 1.1//EN" "http://www.w3.org/Graphics/SVG/1.1/DTD/svg11.dtd">
<svg version="1.1" id="Layer_1" xmlns="http://www.w3.org/2000/svg" xmlns:xlink="http://www.w3.org/1999/xlink" x="0px" y="0px"
	 width="350px" height="350px" viewBox="0 0 350 350" enable-background="new 0 0 350 350" xml:space="preserve">
<g>
	<linearGradient id="SVGID_1_" gradientUnits="userSpaceOnUse" x1="195.6445" y1="122.0508" x2="189.116" y2="100.8325">
		<stop  offset="0" style="stop-color:#636363"/>
		<stop  offset="1" style="stop-color:#CFCFCF"/>
	</linearGradient>
	<path fill="url(#SVGID_1_)" d="M191.005,110.319c0,0,0.653,0,3.59,3.591c2.939,3.591,4.245,4.571,4.245,4.571l-8.487,0.328
		L191.005,110.319z"/>
	<linearGradient id="SVGID_2_" gradientUnits="userSpaceOnUse" x1="184.6387" y1="124.3579" x2="184.6387" y2="113.584">
		<stop  offset="0" style="stop-color:#EDEDED"/>
		<stop  offset="1" style="stop-color:#CFCFCF"/>
	</linearGradient>
	<path fill="url(#SVGID_2_)" d="M175.335,119.135c0,0,4.57-8.162,10.12-8.489c5.55-0.326,5.55-0.326,5.55-0.326l2.938,9.142
		L175.335,119.135z"/>
	<linearGradient id="SVGID_3_" gradientUnits="userSpaceOnUse" x1="190.3398" y1="223.2734" x2="190.3398" y2="253.3759">
		<stop  offset="0" style="stop-color:#0089BD"/>
		<stop  offset="0.4062" style="stop-color:#4DACCB"/>
		<stop  offset="0.8123" style="stop-color:#95CCD9"/>
		<stop  offset="1" style="stop-color:#B1D8DE"/>
	</linearGradient>
	<path fill="url(#SVGID_3_)" d="M129.305,214.68c-10.422-0.246-3.045,7.803-20.302,7.383c-1.384,0-11.073-11.073-28.144-6.92
		c-17.072,4.151-2.769,8.766,6.92,9.688c9.688,0.924,1.384,4.154-5.537,4.154c-6.921,0,16.345-2.558,24.322,5.18
		c7.976,7.738,11.666,5.893,21.356,3.125c9.688-2.769,18.455-5.076,23.069-3.691c4.614,1.385-4.612,5.997,5.998,5.075
		c10.612-0.922,15.227-3.69,26.301-2.769c11.071,0.923,29.066-0.461,37.371-0.461c8.306,0,1.384-1.385,12.458,0
		c11.072,1.384,16.148,2.308,20.301,0.461c4.152-1.846,5.998-1.846,11.074-1.846c5.074,0,5.998-0.461,11.994-0.461
		c5.999,0,5.539-1.847,11.537-2.308c5.997-0.462,29.989-4.614,14.764-5.075c-15.227-0.461-35.988-1.383-38.757-0.923
		C261.912,225.646,171.273,215.675,129.305,214.68z"/>
	<linearGradient id="SVGID_4_" gradientUnits="userSpaceOnUse" x1="188.7734" y1="135.0522" x2="188.7734" y2="213.6936">
		<stop  offset="0" style="stop-color:#EDEDED"/>
		<stop  offset="1" style="stop-color:#CFCFCF"/>
	</linearGradient>
	<path fill="url(#SVGID_4_)" d="M118.949,154.066c0,0-0.864-2.769,1.558-3.806c-0.518-3.288-0.518-3.288-0.518-3.288l-1.212-0.864
		l-11.072,2.249c0,0-1.731-2.249,2.768-3.115c4.499-0.864,7.267-1.729,7.267-1.729s3.114-4.845,12.458-6.402
		c1.211-2.25,4.672-4.152,6.228-4.672c1.557-0.52-0.172-5.19,6.056-7.267c6.229-2.077,43.255-11.765,68.516-6.747
		c0,0,12.977,3.113,17.995,11.592c3.114,5.709-1.211,11.592-1.211,11.592l3.459,3.806c0,0,8.652-0.345,10.728,2.768
		c0.174,3.98,0.174,3.98,0.174,3.98l22.666,30.798v2.941l3.979,6.92c0,0,0.174,11.074,0.693,13.843
		c0.518,2.768,0.691,4.325,0.691,4.325s-1.558,7.267-2.249,7.439c-0.692,0.174-41.698-15.571-41.698-15.571l-29.24-22.319
		l-78.207-24.744L118.949,154.066z"/>
	<linearGradient id="SVGID_5_" gradientUnits="userSpaceOnUse" x1="107.9707" y1="159.0166" x2="202.638" y2="159.0166">
		<stop  offset="0" style="stop-color:#324853"/>
		<stop  offset="1" style="stop-color:#9FABB2"/>
	</linearGradient>
	<path fill="url(#SVGID_5_)" d="M140.058,158.22c0.52,0,24.224-3.981,51.213-0.347c3.808,0.865,4.672,3.461-1.902,3.288
		c-6.575-0.173-24.914-1.211-37.892-0.346c-4.325,1.038-5.19,0.865-5.19,0.865l-7.267-2.249L140.058,158.22z"/>
	<linearGradient id="SVGID_6_" gradientUnits="userSpaceOnUse" x1="107.9702" y1="150.4697" x2="202.6382" y2="150.4697">
		<stop  offset="0" style="stop-color:#324853"/>
		<stop  offset="1" style="stop-color:#9FABB2"/>
	</linearGradient>
	<path fill="url(#SVGID_6_)" d="M114.797,155.451c0.693,0,48.792-10.381,82.877-5.538c2.595,0.693,4.499-2.249,1.384-3.115
		c-3.114-0.864-40.659-5.882-85.991,7.267C110.991,156.835,114.797,155.451,114.797,155.451z"/>
	<linearGradient id="SVGID_7_" gradientUnits="userSpaceOnUse" x1="107.9702" y1="144.3374" x2="202.6377" y2="144.3374">
		<stop  offset="0" style="stop-color:#324853"/>
		<stop  offset="1" style="stop-color:#9FABB2"/>
	</linearGradient>
	<path fill="url(#SVGID_7_)" d="M109.607,153.548c0.518-0.173,28.548-11.419,61.941-11.766c17.127,0,30.105,1.73,30.105,1.73
		l11.938-1.384l2.076-7.095l-16.956,1.384c0,0-15.226-5.189-47.235-1.557c-32.008,3.634-32.701,9.17-32.701,9.17v2.768
		l-11.072,1.558v6.749L109.607,153.548z"/>
	<linearGradient id="SVGID_8_" gradientUnits="userSpaceOnUse" x1="137.29" y1="130.1221" x2="228.9824" y2="130.1221">
		<stop  offset="0" style="stop-color:#324853"/>
		<stop  offset="1" style="stop-color:#9FABB2"/>
	</linearGradient>
	<path fill="url(#SVGID_8_)" d="M137.29,131.919c0.691-0.172,32.528-11.072,62.461-6.401c11.245,1.73,13.149,5.19,14.707,5.19
		c1.557,0,1.557,0,1.557,0l9.861,11.766c0,0,4.326-5.363,2.769-10.381c-1.558-5.017-10.381-10.726-18.168-12.803
		c-7.784-2.077-23.185-1.73-31.488-0.692c-8.306,1.039-31.663,4.671-39.968,8.824C138.155,129.67,137.29,131.919,137.29,131.919z"/>
	<linearGradient id="SVGID_9_" gradientUnits="userSpaceOnUse" x1="166.7036" y1="131.6719" x2="202.6924" y2="131.6719">
		<stop  offset="0" style="stop-color:#324853"/>
		<stop  offset="1" style="stop-color:#9FABB2"/>
	</linearGradient>
	<path fill="url(#SVGID_9_)" d="M166.704,132.265c0,0,20.069-3.979,34.257-0.864c1.731,0.518,1.731,0.518,1.731,0.518
		s-7.787,0.866-10.382,1.212C191.768,133.204,180.025,131.574,166.704,132.265z"/>
	<linearGradient id="SVGID_10_" gradientUnits="userSpaceOnUse" x1="217.917" y1="165.0537" x2="266.5371" y2="165.0537">
		<stop  offset="0" style="stop-color:#324853"/>
		<stop  offset="1" style="stop-color:#9FABB2"/>
	</linearGradient>
	<path fill="url(#SVGID_10_)" d="M218.956,139.878l-1.039,3.461l18.515,19.379l6.229,0.345l23.877,27.166l-1.73-4.325l-0.346-1.038
		l-21.283-26.301c0,0-8.131-0.518-7.611-0.345C236.084,158.393,218.956,139.878,218.956,139.878z"/>
	<linearGradient id="SVGID_11_" gradientUnits="userSpaceOnUse" x1="214.6104" y1="158.3921" x2="236.6035" y2="158.3921">
		<stop  offset="0" style="stop-color:#324853"/>
		<stop  offset="1" style="stop-color:#9FABB2"/>
	</linearGradient>
	<path fill="url(#SVGID_11_)" d="M217.917,147.319c-0.518,0.346-2.769,1.557-2.769,1.557c-1.211,0,0,1.21,0,1.21l21.455,19.379
		l-0.172-3.979L217.917,147.319z"/>
	<linearGradient id="SVGID_12_" gradientUnits="userSpaceOnUse" x1="243.5244" y1="178.377" x2="262.7295" y2="178.377">
		<stop  offset="0" style="stop-color:#324853"/>
		<stop  offset="1" style="stop-color:#9FABB2"/>
	</linearGradient>
	<path fill="url(#SVGID_12_)" d="M243.697,167.217c0,0.518-0.173,4.325-0.173,4.325l18.859,17.995l0.346-1.903L243.697,167.217z"/>
	<linearGradient id="SVGID_13_" gradientUnits="userSpaceOnUse" x1="213.2461" y1="163.8418" x2="236.6035" y2="163.8418">
		<stop  offset="0" style="stop-color:#324853"/>
		<stop  offset="1" style="stop-color:#9FABB2"/>
	</linearGradient>
	<polygon fill="url(#SVGID_13_)" points="236.604,171.715 236.604,176.386 213.246,157.354 213.765,151.297 	"/>
	<linearGradient id="SVGID_14_" gradientUnits="userSpaceOnUse" x1="211.8477" y1="171.1958" x2="236.7773" y2="171.1958">
		<stop  offset="0" style="stop-color:#324853"/>
		<stop  offset="1" style="stop-color:#9FABB2"/>
	</linearGradient>
	<path fill="url(#SVGID_14_)" d="M212.034,159.084c0,0-0.519,5.363,0.173,6.056c0.693,0.692,24.57,18.167,24.57,18.167v-4.845
		L212.034,159.084z"/>
	<linearGradient id="SVGID_15_" gradientUnits="userSpaceOnUse" x1="211.6895" y1="188.4111" x2="269.8232" y2="188.4111">
		<stop  offset="0" style="stop-color:#324853"/>
		<stop  offset="1" style="stop-color:#9FABB2"/>
	</linearGradient>
	<path fill="url(#SVGID_15_)" d="M211.689,167.389c0,0.52,0,6.922,0,6.922l58.134,35.123l-0.345-2.768L211.689,167.389z"/>
	<linearGradient id="SVGID_16_" gradientUnits="userSpaceOnUse" x1="210.9961" y1="183.6543" x2="226.0498" y2="183.6543">
		<stop  offset="0" style="stop-color:#324853"/>
		<stop  offset="1" style="stop-color:#9FABB2"/>
	</linearGradient>
	<polygon fill="url(#SVGID_16_)" points="210.996,181.404 211.17,177.252 226.05,186.076 225.703,190.056 	"/>
	<linearGradient id="SVGID_17_" gradientUnits="userSpaceOnUse" x1="247.4443" y1="165.833" x2="257.0479" y2="165.833">
		<stop  offset="0" style="stop-color:#EDEDED"/>
		<stop  offset="1" style="stop-color:#CFCFCF"/>
	</linearGradient>
	<path fill="url(#SVGID_17_)" d="M256.124,171.034c0,0,5.104-7.603-8.68-10.403C252.04,167.833,256.124,171.034,256.124,171.034z"/>
	<linearGradient id="SVGID_18_" gradientUnits="userSpaceOnUse" x1="267.5176" y1="185.4268" x2="220.4542" y2="134.2107">
		<stop  offset="0" style="stop-color:#324853"/>
		<stop  offset="1" style="stop-color:#9FABB2"/>
	</linearGradient>
	<path fill="url(#SVGID_18_)" d="M225.876,142.474l9.862,12.978c0,0,5.711-2.077,9.344,2.941
		c3.634,5.017,19.725,24.569,19.725,24.569l-22.666-29.761c0,0-2.077-2.077-6.574-0.346c-4.498-5.883-8.997-10.899-8.997-10.899
		L225.876,142.474z"/>
	<linearGradient id="SVGID_19_" gradientUnits="userSpaceOnUse" x1="241.9668" y1="189.3633" x2="261.8652" y2="189.3633">
		<stop  offset="0" style="stop-color:#324853"/>
		<stop  offset="1" style="stop-color:#9FABB2"/>
	</linearGradient>
	<polygon fill="url(#SVGID_19_)" points="242.313,179.848 241.967,184.692 261.692,198.88 261.865,196.631 	"/>
	<linearGradient id="SVGID_20_" gradientUnits="userSpaceOnUse" x1="242.833" y1="183.8262" x2="262.2119" y2="183.8262">
		<stop  offset="0" style="stop-color:#324853"/>
		<stop  offset="1" style="stop-color:#9FABB2"/>
	</linearGradient>
	<polygon fill="url(#SVGID_20_)" points="242.833,177.599 262.039,194.381 262.212,191.785 243.005,173.272 	"/>
	<linearGradient id="SVGID_21_" gradientUnits="userSpaceOnUse" x1="228.6445" y1="202.7725" x2="265.1533" y2="202.7725">
		<stop  offset="0" style="stop-color:#324853"/>
		<stop  offset="1" style="stop-color:#9FABB2"/>
	</linearGradient>
	<polygon fill="url(#SVGID_21_)" points="228.645,202.34 229.164,188.151 264.461,208.223 265.153,208.914 265.153,217.394 	"/>
	<radialGradient id="SVGID_22_" cx="84.1147" cy="178.6582" r="218.926" gradientUnits="userSpaceOnUse">
		<stop  offset="0" style="stop-color:#B3B3B3"/>
		<stop  offset="0.3901" style="stop-color:#EDEDED"/>
		<stop  offset="0.7473" style="stop-color:#F7F7F7"/>
		<stop  offset="1" style="stop-color:#CFCFCF"/>
	</radialGradient>
	<path fill="url(#SVGID_22_)" d="M266.834,208.141c5.396,2.856,4.444,7.299,4.444,7.299l0.635,13.33
		c-4.443-1.587-24.438,2.538-30.151,3.173c-5.712,0.636-28.563,0.636-32.37,0.318c-3.809-0.316-14.6,2.855-23.486,0.952
		c-8.886-1.905-23.166-0.317-23.166-0.317s6.029-8.886-15.551-4.444c-21.583,4.444,0.951-6.982-5.714-8.568
		c-21.898-6.03-34.91,14.281-34.91,14.281c0.634-4.126-2.857-11.425-6.984-18.09c-13.328-22.533-50.644-58.704-51.413-59.349
		c-9.839-8.251-6.665-13.011,3.809-12.695c10.79,0.326,24.755,2.54,76.486,12.379c51.73,9.839,64.107,16.82,74.581,21.263
		c0,0,24.217,12.729,24.39,13.939s1.211,10.728,1.211,10.728l39.276,14.534l-0.347-7.094L266.834,208.141z"/>
	<g>
		<linearGradient id="SVGID_23_" gradientUnits="userSpaceOnUse" x1="187.918" y1="213.8594" x2="244.6846" y2="218.7053">
			<stop  offset="0" style="stop-color:#324853"/>
			<stop  offset="1" style="stop-color:#9FABB2"/>
		</linearGradient>
		<path fill="url(#SVGID_23_)" d="M179.174,213.01c0.363-0.735,0.117-1.332-0.544-1.332c-0.662,0-1.492,0.597-1.853,1.332
			c-0.362,0.736-0.118,1.333,0.544,1.333C177.984,214.343,178.813,213.746,179.174,213.01z"/>
		<linearGradient id="SVGID_24_" gradientUnits="userSpaceOnUse" x1="187.9219" y1="213.7861" x2="244.6674" y2="218.6303">
			<stop  offset="0" style="stop-color:#324853"/>
			<stop  offset="1" style="stop-color:#9FABB2"/>
		</linearGradient>
		<path fill="url(#SVGID_24_)" d="M185.397,213.468c0.362-0.736,0.117-1.332-0.545-1.332c-0.663,0-1.491,0.596-1.852,1.332
			c-0.362,0.736-0.119,1.332,0.544,1.332C184.207,214.8,185.035,214.204,185.397,213.468z"/>
		<linearGradient id="SVGID_25_" gradientUnits="userSpaceOnUse" x1="187.9375" y1="213.5752" x2="244.7086" y2="218.4215">
			<stop  offset="0" style="stop-color:#324853"/>
			<stop  offset="1" style="stop-color:#9FABB2"/>
		</linearGradient>
		<path fill="url(#SVGID_25_)" d="M190.851,213.73c0.325-0.665,0.106-1.204-0.493-1.204c-0.601,0-1.349,0.539-1.677,1.204
			c-0.326,0.665-0.105,1.205,0.494,1.205C189.773,214.936,190.523,214.396,190.851,213.73z"/>
		<linearGradient id="SVGID_26_" gradientUnits="userSpaceOnUse" x1="187.9316" y1="213.5957" x2="244.7262" y2="218.444">
			<stop  offset="0" style="stop-color:#324853"/>
			<stop  offset="1" style="stop-color:#9FABB2"/>
		</linearGradient>
		<path fill="url(#SVGID_26_)" d="M195.959,214.189c0.328-0.667,0.107-1.206-0.492-1.206c-0.601,0-1.35,0.539-1.676,1.206
			c-0.327,0.665-0.106,1.203,0.493,1.203S195.633,214.854,195.959,214.189z"/>
		<linearGradient id="SVGID_27_" gradientUnits="userSpaceOnUse" x1="187.9531" y1="213.4854" x2="244.6702" y2="218.327">
			<stop  offset="0" style="stop-color:#324853"/>
			<stop  offset="1" style="stop-color:#9FABB2"/>
		</linearGradient>
		<path fill="url(#SVGID_27_)" d="M201.133,214.517c0.328-0.666,0.107-1.204-0.492-1.204c-0.599,0-1.348,0.538-1.675,1.204
			c-0.326,0.666-0.105,1.204,0.493,1.204S200.809,215.183,201.133,214.517z"/>
		<linearGradient id="SVGID_28_" gradientUnits="userSpaceOnUse" x1="187.957" y1="213.3613" x2="244.7092" y2="218.206">
			<stop  offset="0" style="stop-color:#324853"/>
			<stop  offset="1" style="stop-color:#9FABB2"/>
		</linearGradient>
		<path fill="url(#SVGID_28_)" d="M205.595,214.778c0.311-0.63,0.1-1.139-0.467-1.139c-0.565,0-1.274,0.509-1.583,1.139
			s-0.101,1.139,0.465,1.139C204.577,215.917,205.287,215.408,205.595,214.778z"/>
		<linearGradient id="SVGID_29_" gradientUnits="userSpaceOnUse" x1="187.9561" y1="213.3809" x2="244.7082" y2="218.2256">
			<stop  offset="0" style="stop-color:#324853"/>
			<stop  offset="1" style="stop-color:#9FABB2"/>
		</linearGradient>
		<path fill="url(#SVGID_29_)" d="M209.197,215.105c0.31-0.629,0.099-1.139-0.467-1.139s-1.274,0.51-1.583,1.139
			c-0.309,0.63-0.102,1.139,0.465,1.139S208.89,215.735,209.197,215.105z"/>
		<linearGradient id="SVGID_30_" gradientUnits="userSpaceOnUse" x1="187.9639" y1="213.3418" x2="244.7029" y2="218.1854">
			<stop  offset="0" style="stop-color:#324853"/>
			<stop  offset="1" style="stop-color:#9FABB2"/>
		</linearGradient>
		<path fill="url(#SVGID_30_)" d="M212.675,215.368c0.292-0.593,0.094-1.073-0.438-1.073c-0.534,0-1.202,0.48-1.494,1.073
			c-0.291,0.592-0.094,1.073,0.438,1.073C211.717,216.441,212.385,215.96,212.675,215.368z"/>
		<linearGradient id="SVGID_31_" gradientUnits="userSpaceOnUse" x1="187.957" y1="213.2354" x2="244.7305" y2="218.0819">
			<stop  offset="0" style="stop-color:#324853"/>
			<stop  offset="1" style="stop-color:#9FABB2"/>
		</linearGradient>
		<path fill="url(#SVGID_31_)" d="M216.208,215.471c0.232-0.619-0.01-1.078-0.541-1.025c-0.531,0.052-1.15,0.595-1.383,1.212
			c-0.232,0.619,0.011,1.078,0.541,1.026C215.356,216.631,215.976,216.089,216.208,215.471z"/>
		<linearGradient id="SVGID_32_" gradientUnits="userSpaceOnUse" x1="187.9746" y1="213.3232" x2="244.6961" y2="218.1653">
			<stop  offset="0" style="stop-color:#324853"/>
			<stop  offset="1" style="stop-color:#9FABB2"/>
		</linearGradient>
		<path fill="url(#SVGID_32_)" d="M218.848,215.778c0.167-0.517-0.048-0.885-0.481-0.821c-0.435,0.062-0.923,0.531-1.089,1.046
			c-0.167,0.519,0.049,0.886,0.482,0.823C218.194,216.763,218.682,216.295,218.848,215.778z"/>
		<linearGradient id="SVGID_33_" gradientUnits="userSpaceOnUse" x1="187.9365" y1="213.3643" x2="244.7242" y2="218.212">
			<stop  offset="0" style="stop-color:#324853"/>
			<stop  offset="1" style="stop-color:#9FABB2"/>
		</linearGradient>
		<path fill="url(#SVGID_33_)" d="M221.403,216.05c0.176-0.514-0.037-0.885-0.472-0.827c-0.436,0.057-0.928,0.52-1.102,1.035
			c-0.174,0.514,0.038,0.885,0.473,0.826C220.739,217.026,221.231,216.564,221.403,216.05z"/>
		<g>
			<linearGradient id="SVGID_34_" gradientUnits="userSpaceOnUse" x1="189.3467" y1="197.0713" x2="246.1064" y2="201.9166">
				<stop  offset="0" style="stop-color:#324853"/>
				<stop  offset="1" style="stop-color:#9FABB2"/>
			</linearGradient>
			<path fill="url(#SVGID_34_)" d="M198.678,198.038c0.271-0.843,0.026-1.642-0.546-1.784c-0.573-0.143-1.258,0.425-1.53,1.267
				c-0.271,0.842-0.027,1.642,0.546,1.784C197.72,199.446,198.404,198.881,198.678,198.038z"/>
			<linearGradient id="SVGID_35_" gradientUnits="userSpaceOnUse" x1="189.3145" y1="197.4209" x2="246.0837" y2="202.267">
				<stop  offset="0" style="stop-color:#324853"/>
				<stop  offset="1" style="stop-color:#9FABB2"/>
			</linearGradient>
			<path fill="url(#SVGID_35_)" d="M202.721,198.718c0.258-0.846,0-1.64-0.577-1.773c-0.575-0.135-1.251,0.442-1.509,1.29
				c-0.258,0.846,0,1.64,0.576,1.772C201.787,200.141,202.463,199.563,202.721,198.718z"/>
			<linearGradient id="SVGID_36_" gradientUnits="userSpaceOnUse" x1="189.2578" y1="198.0732" x2="246.0226" y2="202.919">
				<stop  offset="0" style="stop-color:#324853"/>
				<stop  offset="1" style="stop-color:#9FABB2"/>
			</linearGradient>
			<path fill="url(#SVGID_36_)" d="M206.271,199.616c0.216-0.854-0.021-1.622-0.531-1.717c-0.508-0.094-1.096,0.522-1.313,1.377
				c-0.215,0.855,0.021,1.624,0.531,1.717C205.466,201.089,206.055,200.472,206.271,199.616z"/>
			<linearGradient id="SVGID_37_" gradientUnits="userSpaceOnUse" x1="189.2246" y1="198.4512" x2="245.9894" y2="203.2969">
				<stop  offset="0" style="stop-color:#324853"/>
				<stop  offset="1" style="stop-color:#9FABB2"/>
			</linearGradient>
			<path fill="url(#SVGID_37_)" d="M209.437,200.27c0.216-0.856-0.021-1.624-0.529-1.719c-0.511-0.095-1.098,0.521-1.315,1.378
				c-0.215,0.854,0.021,1.622,0.531,1.716C208.632,201.74,209.22,201.123,209.437,200.27z"/>
			<linearGradient id="SVGID_38_" gradientUnits="userSpaceOnUse" x1="189.2031" y1="198.957" x2="245.9077" y2="203.7977">
				<stop  offset="0" style="stop-color:#324853"/>
				<stop  offset="1" style="stop-color:#9FABB2"/>
			</linearGradient>
			<path fill="url(#SVGID_38_)" d="M211.689,200.946c0.216-0.854,0.077-1.604-0.311-1.677c-0.388-0.072-0.877,0.563-1.094,1.417
				c-0.217,0.855-0.078,1.606,0.311,1.677C210.983,202.436,211.473,201.801,211.689,200.946z"/>
			<linearGradient id="SVGID_39_" gradientUnits="userSpaceOnUse" x1="189.1572" y1="199.3633" x2="245.8972" y2="204.2069">
				<stop  offset="0" style="stop-color:#324853"/>
				<stop  offset="1" style="stop-color:#9FABB2"/>
			</linearGradient>
			<path fill="url(#SVGID_39_)" d="M214.199,201.506c0.133-0.865-0.081-1.598-0.475-1.636c-0.397-0.037-0.823,0.638-0.956,1.503
				c-0.131,0.868,0.081,1.598,0.477,1.636C213.641,203.044,214.067,202.372,214.199,201.506z"/>
			<linearGradient id="SVGID_40_" gradientUnits="userSpaceOnUse" x1="189.123" y1="199.7695" x2="245.863" y2="204.6132">
				<stop  offset="0" style="stop-color:#324853"/>
				<stop  offset="1" style="stop-color:#9FABB2"/>
			</linearGradient>
			<path fill="url(#SVGID_40_)" d="M216.844,202.142c0.133-0.866-0.082-1.599-0.477-1.636c-0.396-0.036-0.823,0.637-0.954,1.502
				c-0.132,0.868,0.08,1.599,0.476,1.636C216.283,203.68,216.712,203.007,216.844,202.142z"/>
			<linearGradient id="SVGID_41_" gradientUnits="userSpaceOnUse" x1="189.0635" y1="200.2363" x2="245.8416" y2="205.0832">
				<stop  offset="0" style="stop-color:#324853"/>
				<stop  offset="1" style="stop-color:#9FABB2"/>
			</linearGradient>
			<path fill="url(#SVGID_41_)" d="M219.225,202.816c0.133-0.865-0.081-1.598-0.477-1.636c-0.394-0.035-0.821,0.637-0.954,1.503
				c-0.133,0.867,0.081,1.598,0.476,1.636C218.665,204.355,219.093,203.683,219.225,202.816z"/>
			<linearGradient id="SVGID_42_" gradientUnits="userSpaceOnUse" x1="188.9912" y1="200.8154" x2="245.8074" y2="205.6656">
				<stop  offset="0" style="stop-color:#324853"/>
				<stop  offset="1" style="stop-color:#9FABB2"/>
			</linearGradient>
			<path fill="url(#SVGID_42_)" d="M221.504,203.596c0.132-0.866-0.081-1.598-0.477-1.635c-0.396-0.038-0.823,0.637-0.956,1.502
				c-0.131,0.867,0.081,1.598,0.477,1.636C220.943,205.135,221.371,204.462,221.504,203.596z"/>
			<linearGradient id="SVGID_43_" gradientUnits="userSpaceOnUse" x1="188.9854" y1="201.1895" x2="245.7546" y2="206.0356">
				<stop  offset="0" style="stop-color:#324853"/>
				<stop  offset="1" style="stop-color:#9FABB2"/>
			</linearGradient>
			<path fill="url(#SVGID_43_)" d="M223.891,204.115c0.057-0.87-0.221-1.579-0.621-1.584c-0.397-0.005-0.766,0.695-0.822,1.566
				c-0.055,0.87,0.222,1.579,0.619,1.584C223.466,205.687,223.834,204.984,223.891,204.115z"/>
		</g>
	</g>
	<g>
		<linearGradient id="SVGID_44_" gradientUnits="userSpaceOnUse" x1="144.7959" y1="206.3428" x2="140.9534" y2="223.3134">
			<stop  offset="0" style="stop-color:#DEDEDE"/>
			<stop  offset="1" style="stop-color:#828282"/>
		</linearGradient>
		<path fill="url(#SVGID_44_)" d="M143.344,194.433c-0.247,0.371-8.174,15.31-8.174,15.31s-0.892,1.04,0.595,1.04
			c1.486,0,10.404,1.041,10.404,1.041s1.189,0.446,2.378-1.635s7.433-13.973,7.433-13.973s1.04-1.19-1.487-1.339
			c-3.565-0.209-9.81-1.188-9.81-1.188S143.642,193.986,143.344,194.433z"/>
		<linearGradient id="SVGID_45_" gradientUnits="userSpaceOnUse" x1="146.1304" y1="196.1113" x2="143.8891" y2="210.5195">
			<stop  offset="0" style="stop-color:#454545"/>
			<stop  offset="1" style="stop-color:#CFCFCF"/>
		</linearGradient>
		<path fill="url(#SVGID_45_)" d="M136.21,207.364c0.446-0.148,6.392-2.973,8.325-1.636c1.931,1.338,1.931,1.041,2.228,2.379
			c0.298,1.338,0,2.972,0,2.972s2.825-6.539,4.757-9.959c1.933-3.419,2.973-6.243,2.973-6.243l-9.215-0.891
			c0,0-1.636-0.595-2.676,1.636C141.562,197.851,136.21,207.364,136.21,207.364z"/>
	</g>
	<linearGradient id="SVGID_46_" gradientUnits="userSpaceOnUse" x1="270.8154" y1="212.3799" x2="253.6702" y2="212.7523">
		<stop  offset="0" style="stop-color:#454545"/>
		<stop  offset="1" style="stop-color:#CFCFCF"/>
	</linearGradient>
	<path fill="url(#SVGID_46_)" d="M266.834,208.141c0.99,0.263,0.74,1.64,0.74,1.64l0.347,7.094l-2.768-1.038c0,0,0-4.152,0-5.536
		c0-1.386,1.037-2.25,1.037-2.25L266.834,208.141"/>
	<g>
		<path fill="none" stroke="#8E9093" stroke-width="1.9644" d="M45.935,144.377c0,0,0.345-3.115,14.36-2.077
			c14.014,1.039,54.501,8.133,60.384,9.69c0.056,1.463,0.146,2.986,0.146,2.986"/>
		<line fill="none" stroke="#8E9093" stroke-width="1.9644" x1="56.661" y1="141.956" x2="56.661" y2="144.204"/>
		<line fill="none" stroke="#8E9093" stroke-width="1.9644" x1="65.312" y1="143.167" x2="65.312" y2="145.07"/>
		<line fill="none" stroke="#8E9093" stroke-width="1.9644" x1="73.271" y1="144.031" x2="73.271" y2="146.627"/>
		<line fill="none" stroke="#8E9093" stroke-width="1.9644" x1="81.749" y1="145.415" x2="81.749" y2="147.838"/>
		<line fill="none" stroke="#8E9093" stroke-width="1.9644" x1="87.287" y1="146.281" x2="87.287" y2="148.703"/>
		<line fill="none" stroke="#8E9093" stroke-width="1.9644" x1="94.208" y1="147.492" x2="94.208" y2="150.086"/>
		<line fill="none" stroke="#8E9093" stroke-width="1.9644" x1="100.61" y1="148.53" x2="100.61" y2="150.953"/>
		<line fill="none" stroke="#8E9093" stroke-width="1.9644" x1="107.357" y1="149.569" x2="107.357" y2="152.51"/>
		<line fill="none" stroke="#8E9093" stroke-width="1.9644" x1="114.797" y1="151.125" x2="114.797" y2="153.548"/>
		<line fill="none" stroke="#8E9093" stroke-width="1.9644" x1="50.779" y1="142.474" x2="50.779" y2="143.857"/>
	</g>
</g>
</svg>
