<?xml version="1.0" encoding="utf-8"?>
<!-- Generator: Adobe Illustrator 16.0.0, SVG Export Plug-In . SVG Version: 6.00 Build 0)  -->
<!DOCTYPE svg PUBLIC "-//W3C//DTD SVG 1.1//EN" "http://www.w3.org/Graphics/SVG/1.1/DTD/svg11.dtd">
<svg version="1.1" id="Layer_1" xmlns="http://www.w3.org/2000/svg" xmlns:xlink="http://www.w3.org/1999/xlink" x="0px" y="0px"
	 width="350px" height="350px" viewBox="0 0 350 350" enable-background="new 0 0 350 350" xml:space="preserve">
<g>
	<g>
		<path d="M279.572,52.095c-2.021-2.024-5.309-2.024-7.328,0l-36.657,36.657h-0.008l-43.985,43.994l-14.665,14.664l-33.175,33.174
			l-0.004,0.004l-7.328,7.329c-9.049,9.044-13.582,22.562-15.276,28.713l-4.071,1.003c-1.014,0.258-1.929,0.805-2.624,1.579
			l-44.229,49.576c-1.029,1.154-1.488,2.702-1.257,4.236c0.232,1.52,1.131,2.871,2.457,3.66l36.661,21.994
			c0.816,0.494,1.739,0.744,2.666,0.744c0.565,0,1.131-0.092,1.678-0.273c1.447-0.501,2.598-1.609,3.152-3.022l18.01-46.188
			l12.428-6.029c1.549-0.76,2.624-2.233,2.867-3.935l2.805-19.638l5.37,1.672c0.512,0.166,1.033,0.242,1.541,0.242
			c2.21,0,4.257-1.428,4.948-3.646c0.851-2.733-0.672-5.643-3.406-6.492l-2.992-0.935l100.43-100.429
			c2.021-2.024,2.021-5.308,0-7.332L246.583,92.42l32.988-32.993C281.6,57.403,281.6,54.119,279.572,52.095z M139.008,235.784
			l-11.775,5.717c-1.177,0.569-2.092,1.564-2.567,2.78l-16.514,42.352L82.131,271.02l38.989-43.704l5.547-1.374
			c1.937-0.471,3.425-2.021,3.832-3.979c0.034-0.152,3.262-15.302,11.733-25.077l0.004,16.328L139.008,235.784z M152.601,201.063
			v-14.656l27.993-28l7.332,7.333L152.601,201.063z M195.254,158.406l-7.328-7.332l7.328-7.332l7.336,7.332L195.254,158.406z
			 M209.919,143.742l-7.329-7.332l7.329-7.329l7.335,7.329L209.919,143.742z M224.583,129.081l-7.329-7.332l7.329-7.332l7.336,7.332
			L224.583,129.081z M239.247,114.417l-7.329-7.333l7.329-7.332l7.336,7.332L239.247,114.417z"/>
	</g>
</g>
</svg>
