<?xml version="1.0" encoding="utf-8"?>
<!-- Generator: Adobe Illustrator 16.0.0, SVG Export Plug-In . SVG Version: 6.00 Build 0)  -->
<!DOCTYPE svg PUBLIC "-//W3C//DTD SVG 1.1//EN" "http://www.w3.org/Graphics/SVG/1.1/DTD/svg11.dtd">
<svg version="1.1" id="Layer_1" xmlns="http://www.w3.org/2000/svg" xmlns:xlink="http://www.w3.org/1999/xlink" x="0px" y="0px"
	 width="350px" height="350px" viewBox="0 0 350 350" enable-background="new 0 0 350 350" xml:space="preserve">
<path fill="#E4EAF8" d="M291.67,114.421c7.435,0,13.462,6.027,13.462,13.462v152.569c0,7.435-6.027,13.462-13.462,13.462H58.33
	c-7.435,0-13.462-6.027-13.462-13.462V127.883c0-7.435,6.027-13.462,13.462-13.462H291.67z"/>
<rect x="116.665" y="114.421" fill="#D5DCED" width="116.669" height="8.975"/>
<path fill="#FFFFFF" d="M264.746,284.939H85.253c-2.478,0-4.487-2.01-4.487-4.487V127.883c0-2.478,2.009-4.487,4.487-4.487h179.493
	c2.478,0,4.488,2.009,4.488,4.487v152.569C269.234,282.931,267.225,284.939,264.746,284.939z"/>
<path fill="#FFDC64" d="M130.127,60.574H175c2.478,0,4.488,2.009,4.488,4.487v219.878H125.64V65.061
	C125.64,62.583,127.649,60.574,130.127,60.574z"/>
<path fill="#D5DCED" d="M287.183,217.63c-4.956,0-8.975-4.019-8.975-8.975v-8.976c0-4.955,4.019-8.974,8.975-8.974
	c4.957,0,8.976,4.019,8.976,8.974v8.976C296.158,213.611,292.14,217.63,287.183,217.63z"/>
<path fill="#AFB9D2" d="M62.817,217.63c-2.48,0-4.487-2.01-4.487-4.488v-17.948c0-2.479,2.007-4.488,4.487-4.488
	s4.487,2.01,4.487,4.488v17.948C67.304,215.62,65.297,217.63,62.817,217.63z"/>
<path fill="#7F8499" d="M62.86,181.731c-2.48,0-4.509-2.01-4.509-4.487c0-2.479,1.985-4.488,4.466-4.488h0.043
	c2.48,0,4.488,2.01,4.488,4.488C67.348,179.722,65.341,181.731,62.86,181.731z"/>
<g>
	<path fill="#FFC850" d="M139.102,168.27c0-2.479-2.007-4.488-4.488-4.488h-8.975v8.974h8.975
		C137.094,172.756,139.102,170.748,139.102,168.27z"/>
	<path fill="#FFC850" d="M139.102,114.421c0-2.478-2.007-4.487-4.488-4.487h-8.975v8.975h8.975
		C137.094,118.909,139.102,116.899,139.102,114.421z"/>
	<path fill="#FFC850" d="M139.102,96.472c0-2.478-2.007-4.487-4.488-4.487h-8.975v8.975h8.975
		C137.094,100.959,139.102,98.95,139.102,96.472z"/>
	<path fill="#FFC850" d="M139.102,204.168c0-2.478-2.007-4.488-4.488-4.488h-8.975v8.976h8.975
		C137.094,208.655,139.102,206.646,139.102,204.168z"/>
</g>
<path fill="#E1A546" d="M125.64,83.01h13.462c2.48,0,4.487-2.009,4.487-4.487s-2.007-4.488-4.487-4.488H125.64V83.01z"/>
<g>
	<path fill="#FFC850" d="M139.102,150.32c0-2.478-2.007-4.488-4.488-4.488h-8.975v8.975h8.975
		C137.094,154.807,139.102,152.798,139.102,150.32z"/>
	<path fill="#FFC850" d="M139.102,222.117c0-2.479-2.007-4.487-4.488-4.487h-8.975v8.975h8.975
		C137.094,226.604,139.102,224.596,139.102,222.117z"/>
</g>
<g>
	<path fill="#E1A546" d="M139.102,181.731h-13.462v8.975h13.462c2.48,0,4.487-2.01,4.487-4.488
		C143.589,183.74,141.582,181.731,139.102,181.731z"/>
	<path fill="#E1A546" d="M139.102,127.883h-13.462v8.975h13.462c2.48,0,4.487-2.009,4.487-4.487S141.582,127.883,139.102,127.883z"
		/>
	<path fill="#E1A546" d="M143.589,240.066c0-2.479-2.007-4.488-4.487-4.488h-13.462v8.975h13.462
		C141.582,244.554,143.589,242.544,143.589,240.066z"/>
</g>
<path fill="#FFC850" d="M139.102,258.016c0-2.479-2.007-4.487-4.488-4.487h-8.975v8.974h8.975
	C137.094,262.502,139.102,260.493,139.102,258.016z"/>
<path fill="#FAEBC8" d="M212.446,57.268c-0.43-1.577-2.665-1.577-3.096,0l-11.914,43.686v4.493h26.925v-4.493L212.446,57.268z"/>
<rect x="197.437" y="100.959" fill="#FFDC64" width="26.925" height="183.98"/>
<path fill="#F5DCB4" d="M224.36,100.954L224.36,100.954l-11.914-43.686c-0.216-0.788-0.882-1.182-1.548-1.182v44.868H224.36z"/>
<path fill="#5B5D6E" d="M218.241,78.518l-5.795-21.25c-0.43-1.577-2.665-1.577-3.096,0l-5.796,21.25H218.241z"/>
<path fill="#464655" d="M218.241,78.518l-5.795-21.25c-0.216-0.788-0.882-1.182-1.548-1.182v22.431H218.241z"/>
<g>
	<path fill="#FFC850" d="M142.365,275.964c-1.535,0-3.062-0.728-3.777-2.087c-0.75-1.426-2.248-2.399-3.974-2.399h-8.975v13.462
		h53.848v-8.976H142.365z"/>
	<path fill="#FFC850" d="M210.898,100.954v170.523c0,2.479-2.009,4.486-4.487,4.486h-8.975v8.976h26.925V100.954H210.898z"/>
</g>
</svg>
