<?xml version="1.0" encoding="utf-8"?>
<!-- Generator: Adobe Illustrator 16.0.0, SVG Export Plug-In . SVG Version: 6.00 Build 0)  -->
<!DOCTYPE svg PUBLIC "-//W3C//DTD SVG 1.1//EN" "http://www.w3.org/Graphics/SVG/1.1/DTD/svg11.dtd">
<svg version="1.1" id="Layer_1" xmlns="http://www.w3.org/2000/svg" xmlns:xlink="http://www.w3.org/1999/xlink" x="0px" y="0px"
	 width="350px" height="350px" viewBox="0 0 350 350" enable-background="new 0 0 350 350" xml:space="preserve">
<g id="snowflake_18_">
	<path fill="#00AEEF" d="M291.959,206.963c-0.76-1.48-2.267-2.402-3.931-2.402c-0.693,0-1.388,0.17-2.007,0.488l-26.574,13.61
		l-12.233-7.063l40.641-20.813c2.165-1.111,3.023-3.775,1.915-5.941c-0.76-1.48-2.267-2.399-3.934-2.399
		c-0.692,0-1.386,0.167-2.006,0.484l-45.717,23.416l-11.28-6.512l21.499-11.011c2.164-1.111,3.023-3.774,1.915-5.939
		c-0.76-1.48-2.267-2.399-3.934-2.399c-0.692,0-1.387,0.167-2.006,0.482l-26.575,13.612l-12.23-7.062l40.641-20.814
		c2.166-1.111,3.023-3.774,1.916-5.94c-0.76-1.48-2.268-2.4-3.934-2.4c-0.693,0-1.387,0.168-2.006,0.484l-45.717,23.416
		l-6.383-3.686c0.272-1.149,0.435-2.343,0.435-3.575c0-6.987-4.667-12.899-11.042-14.803v-7.36l43.139-27.885
		c2.041-1.321,2.629-4.058,1.311-6.102c-0.816-1.262-2.203-2.018-3.709-2.018c-0.85,0-1.676,0.244-2.393,0.708l-38.348,24.788
		v-14.125l25.076-16.21c2.042-1.321,2.63-4.058,1.31-6.102c-0.815-1.262-2.202-2.018-3.706-2.018c-0.849,0-1.677,0.244-2.394,0.708
		l-20.286,13.114v-13.025l43.139-27.885c2.041-1.321,2.629-4.058,1.311-6.101c-0.816-1.263-2.203-2.018-3.709-2.018
		c-0.85,0-1.676,0.244-2.393,0.708l-38.348,24.788V80.039l25.076-16.21c2.042-1.321,2.63-4.058,1.31-6.101
		c-0.815-1.264-2.202-2.017-3.706-2.017c-0.849,0-1.677,0.244-2.394,0.706l-20.286,13.114V46.647c0-2.434-1.979-4.412-4.412-4.412
		c-2.433,0-4.412,1.979-4.412,4.412v22.884l-20.285-13.114c-0.716-0.462-1.543-0.706-2.393-0.706c-1.506,0-2.892,0.753-3.709,2.017
		c-1.319,2.042-0.732,4.78,1.31,6.101l25.077,16.21v14.124l-38.347-24.788c-0.716-0.462-1.542-0.707-2.392-0.707
		c-1.505,0-2.892,0.753-3.71,2.017c-1.319,2.043-0.732,4.78,1.31,6.101l43.139,27.885v13.025l-20.285-13.114
		c-0.716-0.462-1.543-0.707-2.393-0.707c-1.506,0-2.892,0.754-3.709,2.017c-1.319,2.043-0.732,4.781,1.31,6.102l25.077,16.21v14.125
		l-38.347-24.788c-0.716-0.462-1.542-0.707-2.392-0.707c-1.505,0-2.892,0.754-3.71,2.017c-1.319,2.043-0.732,4.781,1.31,6.102
		l43.139,27.885v7.36c-6.376,1.904-11.041,7.816-11.041,14.803c0,1.232,0.161,2.426,0.434,3.575l-6.383,3.686l-45.719-23.416
		c-0.629-0.321-1.305-0.484-2.007-0.484c-1.664,0-3.171,0.92-3.932,2.4c-1.107,2.166-0.249,4.829,1.917,5.94l40.64,20.814
		l-12.231,7.063l-26.576-13.613c-0.63-0.32-1.306-0.482-2.007-0.482c-1.664,0-3.171,0.919-3.931,2.399
		c-1.108,2.165-0.25,4.828,1.916,5.939l21.498,11.011l-11.28,6.512l-45.719-23.416c-0.629-0.321-1.304-0.484-2.006-0.484
		c-1.667,0-3.174,0.919-3.933,2.399c-1.108,2.166-0.249,4.83,1.916,5.941l40.641,20.813l-12.233,7.063l-26.574-13.61
		c-0.63-0.324-1.307-0.488-2.01-0.488c-1.666,0-3.17,0.922-3.928,2.402c-0.537,1.049-0.634,2.243-0.273,3.366
		c0.362,1.121,1.14,2.034,2.188,2.572l21.499,11.012l-19.817,11.441c-1.021,0.589-1.75,1.542-2.056,2.68
		c-0.305,1.14-0.149,2.328,0.44,3.349c0.787,1.359,2.252,2.205,3.825,2.205c0.772,0,1.534-0.205,2.203-0.59l19.818-11.441
		l-1.214,24.121c-0.122,2.431,1.755,4.508,4.187,4.63c0.075,0.004,0.15,0.005,0.224,0.005c2.35,0,4.285-1.841,4.404-4.189l1.5-29.82
		l12.231-7.063l-2.293,45.603c-0.122,2.43,1.757,4.509,4.187,4.63c0.075,0.004,0.15,0.006,0.224,0.006
		c2.35,0,4.285-1.842,4.404-4.19l2.579-51.303l11.279-6.511l-1.212,24.125c-0.058,1.176,0.345,2.306,1.135,3.181
		c0.791,0.873,1.875,1.388,3.053,1.446c0.074,0.004,0.149,0.005,0.223,0.005c2.35,0,4.285-1.841,4.404-4.19l1.498-29.82
		l12.231-7.063l-2.293,45.603c-0.122,2.431,1.756,4.509,4.187,4.63c0.075,0.004,0.15,0.006,0.224,0.006
		c2.35,0,4.285-1.841,4.404-4.19l2.58-51.302l6.389-3.688c2.77,2.62,6.496,4.239,10.6,4.239c4.105,0,7.83-1.619,10.6-4.239
		l6.39,3.688l2.579,51.302c0.118,2.35,2.054,4.19,4.403,4.19c0.073,0,0.149-0.002,0.227-0.006c2.429-0.121,4.308-2.199,4.185-4.63
		l-2.293-45.603l12.231,7.063l1.498,29.82c0.118,2.35,2.054,4.19,4.403,4.19c0.073,0,0.149-0.001,0.225-0.005
		c1.177-0.059,2.261-0.573,3.052-1.446c0.79-0.875,1.192-2.005,1.135-3.181l-1.212-24.125l11.278,6.511l2.579,51.303
		c0.118,2.349,2.054,4.19,4.404,4.19c0.074,0,0.148-0.002,0.226-0.006c2.429-0.121,4.308-2.2,4.185-4.63l-2.293-45.603l12.231,7.063
		l1.499,29.82c0.12,2.349,2.056,4.189,4.405,4.189c0.073,0,0.149-0.001,0.225-0.005c2.432-0.122,4.308-2.199,4.187-4.63
		l-1.215-24.121l19.817,11.441c0.67,0.385,1.432,0.59,2.204,0.59c1.572,0,3.037-0.846,3.824-2.205
		c0.589-1.021,0.746-2.209,0.44-3.349c-0.306-1.138-1.035-2.091-2.056-2.68l-19.817-11.441l21.498-11.012
		c1.049-0.538,1.825-1.451,2.188-2.572C292.594,209.206,292.496,208.012,291.959,206.963z"/>
	<path fill="#00AEEF" d="M61.637,114.646l23.293,13.449l-21.499,11.012c-1.048,0.538-1.825,1.451-2.187,2.573
		c-0.362,1.122-0.265,2.317,0.272,3.365c0.758,1.48,2.264,2.402,3.93,2.402c0.694,0,1.388-0.169,2.008-0.488l26.574-13.611
		l13.972,8.066L67.36,162.227c-2.164,1.111-3.024,3.775-1.916,5.94c0.76,1.482,2.267,2.402,3.931,2.402
		c0.701,0,1.377-0.164,2.009-0.486l45.717-23.416l28.003,16.167c0.668,0.387,1.43,0.591,2.203,0.591
		c1.573,0,3.039-0.846,3.824-2.206c1.216-2.106,0.492-4.81-1.615-6.027l-28.002-16.167l-2.581-51.303
		c-0.119-2.35-2.044-4.191-4.385-4.191c-0.082,0-0.165,0.003-0.245,0.006c-2.43,0.122-4.307,2.2-4.185,4.63l2.294,45.604
		l-13.969-8.065l-1.5-29.823c-0.124-2.421-2.139-4.293-4.63-4.186c-2.428,0.122-4.307,2.2-4.185,4.63l1.213,24.125l-23.294-13.45
		c-0.669-0.387-1.43-0.592-2.201-0.592c-1.573,0-3.04,0.846-3.827,2.208c-0.589,1.02-0.745,2.209-0.44,3.348
		C59.887,113.104,60.617,114.056,61.637,114.646z"/>
	<path fill="#00AEEF" d="M222.551,267.193l-43.139-27.884v-32.336c0-2.433-1.979-4.412-4.412-4.412
		c-2.433,0-4.412,1.979-4.412,4.412v32.336l-43.139,27.884c-2.042,1.321-2.629,4.059-1.31,6.102c0.816,1.266,2.203,2.02,3.708,2.019
		c0.85,0,1.677-0.244,2.393-0.709l38.347-24.787v16.131l-25.077,16.208c-2.042,1.321-2.629,4.059-1.31,6.102
		c0.818,1.266,2.205,2.019,3.709,2.019c0.849,0,1.676-0.244,2.393-0.709l20.285-13.111v26.896c0,2.434,1.979,4.412,4.412,4.412
		c2.434,0,4.412-1.979,4.412-4.412v-26.896l20.286,13.111c0.714,0.462,1.541,0.708,2.392,0.708c1.504,0,2.891-0.755,3.708-2.018
		c1.32-2.043,0.732-4.78-1.31-6.102l-25.076-16.208v-16.131l38.348,24.787c0.714,0.462,1.542,0.708,2.393,0.708
		c1.505,0,2.892-0.755,3.709-2.018C225.18,271.252,224.592,268.515,222.551,267.193z"/>
	<path fill="#00AEEF" d="M200.484,155.192c-2.107,1.217-2.831,3.921-1.615,6.027c0.786,1.36,2.251,2.206,3.824,2.206
		c0.772,0,1.534-0.204,2.202-0.591l28.003-16.167l45.72,23.416c0.629,0.322,1.305,0.486,2.007,0.486
		c1.665-0.002,3.172-0.923,3.932-2.402c1.106-2.166,0.248-4.829-1.917-5.94l-40.641-20.813l13.971-8.066l26.574,13.611
		c0.63,0.323,1.308,0.488,2.009,0.488c1.666-0.002,3.171-0.923,3.93-2.402c0.537-1.048,0.635-2.243,0.273-3.365
		c-0.363-1.122-1.141-2.035-2.188-2.573l-21.498-11.012l23.294-13.449c1.021-0.59,1.75-1.542,2.056-2.68
		c0.306-1.139,0.148-2.329-0.44-3.348c-0.787-1.362-2.252-2.208-3.826-2.208c-0.771,0-1.532,0.206-2.202,0.592l-23.293,13.45
		l1.213-24.125c0.122-2.43-1.756-4.508-4.188-4.63l-0.206-0.004c-2.359,0-4.301,1.841-4.42,4.19l-1.5,29.823l-13.97,8.065
		l2.296-45.604c0.057-1.176-0.345-2.306-1.135-3.182c-0.79-0.875-1.874-1.389-3.051-1.448c-2.411-0.094-4.506,1.756-4.63,4.185
		l-2.581,51.303L200.484,155.192z"/>
</g>
</svg>
