<?xml version="1.0" encoding="utf-8"?>
<!-- Generator: Adobe Illustrator 16.0.0, SVG Export Plug-In . SVG Version: 6.00 Build 0)  -->
<!DOCTYPE svg PUBLIC "-//W3C//DTD SVG 1.1//EN" "http://www.w3.org/Graphics/SVG/1.1/DTD/svg11.dtd">
<svg version="1.1" id="Layer_1" xmlns="http://www.w3.org/2000/svg" xmlns:xlink="http://www.w3.org/1999/xlink" x="0px" y="0px"
	 width="350px" height="350px" viewBox="0 0 350 350" enable-background="new 0 0 350 350" xml:space="preserve">
<g id="snowflake_10_">
	<polygon fill="#00AEEF" points="102.392,112.376 102.023,112.278 99.854,120.372 145.72,132.662 163.894,164.141 171.149,159.951 
		152.975,128.473 165.167,82.977 165.265,82.608 157.171,80.438 147.05,118.209 135.835,98.786 143.463,70.317 135.368,68.147 
		129.91,88.522 115.592,63.723 108.335,67.912 122.653,92.711 102.28,87.251 100.111,95.346 128.579,102.974 139.793,122.398 	"/>
	<polygon fill="#00AEEF" points="160.043,179.19 160.043,170.811 123.693,170.811 90.118,137.233 84.193,143.159 111.843,170.811 
		89.413,170.811 68.573,149.97 62.648,155.895 77.562,170.811 48.928,170.811 48.928,179.19 77.561,179.19 62.648,194.103 
		68.573,200.027 89.412,179.19 111.843,179.19 84.193,206.841 90.118,212.765 123.693,179.19 	"/>
	<polygon fill="#00AEEF" points="170.959,190.378 171.149,190.047 163.894,185.857 145.718,217.337 99.854,229.628 102.023,237.722 
		139.793,227.601 128.579,247.025 100.111,254.653 102.28,262.747 122.653,257.289 108.526,281.757 108.335,282.088 
		115.592,286.277 129.909,261.478 135.368,281.852 143.463,279.683 135.835,251.214 147.05,231.79 157.171,269.562 165.265,267.392 
		152.975,221.526 	"/>
	<polygon fill="#00AEEF" points="247.608,237.621 247.977,237.722 250.146,229.628 204.281,217.339 186.298,186.188 
		186.106,185.857 178.851,190.047 197.024,221.525 184.735,267.392 192.829,269.562 202.95,231.789 214.165,251.214 
		206.537,279.683 214.632,281.852 220.091,261.478 234.218,285.946 234.407,286.277 241.665,282.088 227.347,257.288 
		247.354,262.646 247.72,262.747 249.889,254.653 221.423,247.027 210.207,227.601 	"/>
	<polygon fill="#00AEEF" points="301.072,170.811 272.438,170.811 287.352,155.895 281.427,149.97 260.587,170.811 238.157,170.811 
		265.807,143.159 259.882,137.233 226.307,170.811 189.956,170.811 189.956,179.19 226.307,179.19 259.882,212.765 265.807,206.841 
		238.157,179.19 260.589,179.19 281.427,200.027 287.352,194.103 272.439,179.19 301.072,179.19 	"/>
	<polygon fill="#00AEEF" points="178.851,159.951 186.106,164.141 204.281,132.662 249.779,120.471 250.146,120.372 
		247.977,112.278 210.207,122.398 221.422,102.974 249.889,95.346 247.72,87.251 227.347,92.711 241.665,67.912 234.407,63.723 
		220.09,88.522 214.632,68.147 206.537,70.317 214.165,98.786 202.95,118.209 192.929,80.807 192.829,80.438 184.735,82.608 
		197.024,128.473 	"/>
	<path fill="#00AEEF" d="M174.991,162.105c-2.251,0-4.478,0.598-6.437,1.729c-2.982,1.721-5.116,4.501-6.008,7.828
		c-0.891,3.327-0.433,6.801,1.289,9.783c2.295,3.978,6.576,6.448,11.172,6.448c2.252,0,4.48-0.598,6.437-1.729
		c2.983-1.721,5.117-4.502,6.01-7.828c0.891-3.327,0.433-6.802-1.289-9.784C183.869,164.576,179.588,162.105,174.991,162.105z
		 M170.641,173.832c0.311-1.166,1.059-2.138,2.103-2.741c0.687-0.396,1.464-0.605,2.248-0.605c1.612,0,3.113,0.864,3.917,2.258
		c0.603,1.043,0.763,2.259,0.451,3.426c-0.313,1.164-1.059,2.138-2.103,2.739c-0.688,0.396-1.466,0.606-2.25,0.606
		c-1.612,0-3.111-0.866-3.916-2.258C170.489,176.214,170.33,174.996,170.641,173.832z"/>
	<path fill="#00AEEF" d="M175,158.628l17.94-29.9L175,98.825l-17.941,29.902L175,158.628z M175,142.341l-8.168-13.613L175,115.113
		l8.168,13.614L175,142.341z"/>
	<path fill="#00AEEF" d="M125.956,167.399l34.866-0.585l-16.925-30.488l-34.865,0.587L125.956,167.399z M130.843,158.938
		l-7.706-13.882l15.874-0.267l7.707,13.881L130.843,158.938z"/>
	<path fill="#00AEEF" d="M125.956,182.599l-16.924,30.487l34.635,0.581l0.229,0.005l16.925-30.486l-34.637-0.581L125.956,182.599z
		 M123.137,204.941l7.706-13.879l15.875,0.268l-7.707,13.879L123.137,204.941z"/>
	<path fill="#00AEEF" d="M175,191.371l-17.941,29.901L175,251.174l17.94-29.901L175,191.371z M175,207.66l8.168,13.612L175,234.887
		l-8.168-13.614L175,207.66z"/>
	<path fill="#00AEEF" d="M206.104,213.672l34.864-0.586L224.154,182.8l-0.11-0.201l-34.866,0.587l16.814,30.286L206.104,213.672z
		 M219.157,191.063l7.706,13.879l-15.874,0.268l-7.707-13.879L219.157,191.063z"/>
	<path fill="#00AEEF" d="M224.044,167.399l16.924-30.486l-34.864-0.587l-16.926,30.488L224.044,167.399z M226.863,145.056
		l-7.706,13.882l-15.875-0.268l7.707-13.881L226.863,145.056z"/>
</g>
</svg>
