<?xml version="1.0" encoding="utf-8"?>
<!-- Generator: Adobe Illustrator 16.0.0, SVG Export Plug-In . SVG Version: 6.00 Build 0)  -->
<!DOCTYPE svg PUBLIC "-//W3C//DTD SVG 1.1//EN" "http://www.w3.org/Graphics/SVG/1.1/DTD/svg11.dtd">
<svg version="1.1" id="Layer_1" xmlns="http://www.w3.org/2000/svg" xmlns:xlink="http://www.w3.org/1999/xlink" x="0px" y="0px"
	 width="350px" height="350px" viewBox="0 0 350 350" enable-background="new 0 0 350 350" xml:space="preserve">
<g>
	<g>
		<g>
			<g>
				<g>
					<path fill="#E4E4E4" d="M174.029,174.685c0.88-17.353,0.937-34.72,0.794-52.091c-0.062-7.563-4.654-12.221-8.733-18.331
						c-4.767-7.139-9.253-14.461-13.552-21.89c-0.807-1.395-2.967-0.136-2.158,1.262c3.685,6.37,7.527,12.641,11.529,18.816
						c2,3.087,4.064,6.133,6.149,9.163c0.97,1.411,1.96,2.806,2.929,4.217c1.769,2.579,1.328,5.754,1.352,8.709
						c0.137,16.72,0.037,33.441-0.81,50.144C171.447,176.297,173.947,176.289,174.029,174.685L174.029,174.685z"/>
				</g>
			</g>
			<g>
				<g>
					<path fill="#E4E4E4" d="M173.362,117.354c9.534-10.631,18.039-22.067,25.469-34.263c0.842-1.381-1.321-2.636-2.158-1.262
						c-7.319,12.015-15.685,23.282-25.078,33.757C170.522,116.783,172.284,118.557,173.362,117.354L173.362,117.354z"/>
				</g>
			</g>
			<g>
				<g>
					<path fill="#E4E4E4" d="M169.316,72.165c-4.462,2.296-6.196,10.037-3.499,14.318c2.983,4.733,9.618,6.433,14.548,3.801
						c10.741-5.736-5.186-27.61-12.163-17.688c-0.93,1.322,1.239,2.569,2.158,1.262c2.961-4.21,7.468,1.928,8.954,4.087
						c2.368,3.438,3.262,9.078-1.681,10.835c-3.525,1.253-8.522-0.826-9.934-4.23c-1.345-3.246-0.255-8.614,2.877-10.227
						C172.012,73.585,170.747,71.428,169.316,72.165L169.316,72.165z"/>
				</g>
			</g>
			<g>
				<g>
					<path fill="#E4E4E4" d="M172.815,60.667c-0.711-0.227-1.508-0.021-2.005,0.541c-0.511,0.578-0.497,1.567,0.253,1.963
						c1.102,0.582,2.381,0.62,3.462-0.037c1.134-0.688,1.553-2.081,1.274-3.324c-0.279-1.242-1.565-2-2.772-1.969
						c-1.425,0.038-2.296,1.19-2.575,2.483c-0.272,1.263,0.091,2.695,1.324,3.301c1.201,0.59,2.708,0.017,2.99-1.349
						c0.271-1.312-0.619-2.497-1.957-2.558c-1.384-0.063-2.335,1.477-2.005,2.709c0.417,1.556,2.828,0.895,2.411-0.665
						c0.144,0.539-0.614,0.547-0.842,0.202c-0.187-0.282,0.227-0.714,0.52-0.57c-0.22-0.108,0.148-1.038,0.166-1.043
						c0.235-0.084,0.403,0.075,0.31,0.437c-0.114,0.441-0.747,0.379-1.043,0.223c0.084,0.654,0.168,1.309,0.253,1.963
						c-0.135,0.066-0.277,0.1-0.428,0.103C173.69,63.569,174.345,61.155,172.815,60.667L172.815,60.667z"/>
				</g>
			</g>
			<g>
				<g>
					<path fill="#E4E4E4" d="M173.647,48.76c-0.588-0.456-1.231-0.767-1.997-0.666c-0.859,0.113-1.35,0.708-1.206,1.583
						c0.251,1.523,1.777,2.825,3.343,2.42c1.821-0.471,2.066-3.004,1.077-4.311c-1.013-1.336-2.977-1.564-4.173-0.314
						c-1.227,1.282-0.522,3.611,1.209,3.994c0.665,0.146,1.351-0.191,1.538-0.873c0.173-0.631-0.208-1.391-0.873-1.538
						c-0.232-0.051-0.028-0.016,0.024,0.111c-0.08-0.194-0.031-0.122-0.049-0.001c-0.022,0.147,0.113-0.127,0.01-0.021
						c0.018-0.019,0.103-0.012,0.239-0.007c-0.101-0.003-0.208-0.082,0.023,0.054c-0.034-0.021-0.082-0.126,0.068,0.112
						c0.077,0.123,0.076,0.271,0.073,0.419c0.002-0.125-0.092,0.187-0.041,0.088c0.057-0.107,0.137-0.105,0.292-0.122
						c0.207-0.022-0.118-0.069,0.01-0.002c-0.207-0.109-0.019,0.005-0.186-0.17c-0.109-0.114-0.14-0.294-0.174-0.503
						c-0.402,0.528-0.804,1.055-1.206,1.583c0.165-0.021,0.402,0.068,0.229-0.066c0.538,0.417,1.241,0.527,1.768,0
						C174.084,50.091,174.187,49.178,173.647,48.76L173.647,48.76z"/>
				</g>
			</g>
			<g>
				<g>
					<path fill="#E4E4E4" d="M131.453,79.027c6.216,2.781,13.29,4.083,19.921,5.508c0.708,0.152,1.69-0.35,1.583-1.206
						c-0.665-5.262-0.446-10.37,0.729-15.552c0.355-1.57-2.055-2.237-2.411-0.665c-1.219,5.382-1.511,10.735-0.818,16.217
						c0.527-0.402,1.055-0.804,1.583-1.206c-6.386-1.371-13.338-2.577-19.325-5.255C131.256,76.216,129.984,78.37,131.453,79.027
						L131.453,79.027z"/>
				</g>
			</g>
			<g>
				<g>
					<path fill="#E4E4E4" d="M197.322,63.437c-0.129,2.883-0.258,5.767-0.387,8.65c-0.118,2.639-0.733,5.706-0.093,8.284
						c0.103,0.413,0.461,0.769,0.873,0.873c2.524,0.635,5.588-0.234,8.063-0.782c3.947-0.874,7.726-2.106,11.789-2.386
						c1.6-0.11,1.61-2.611,0-2.5c-5.183,0.357-10.066,2.065-15.144,3.028c-2.575,0.488-3.296,0.345-3.183-2.191
						c0.064-1.441,0.129-2.883,0.193-4.325c0.129-2.883,0.258-5.767,0.387-8.65C199.895,61.825,197.394,61.832,197.322,63.437
						L197.322,63.437z"/>
				</g>
			</g>
			<g>
				<g>
					<path fill="#E4E4E4" d="M145.192,93.903c3.71-0.266,7.384-0.125,11.056,0.482c1.577,0.26,2.252-2.148,0.665-2.411
						c-3.894-0.643-7.782-0.853-11.721-0.571C143.594,91.517,143.583,94.018,145.192,93.903L145.192,93.903z"/>
				</g>
			</g>
			<g>
				<g>
					<path fill="#E4E4E4" d="M149.972,104.002c4.268-0.472,8.442,0.067,12.4,1.761c1.465,0.627,2.74-1.526,1.262-2.158
						c-4.377-1.873-8.918-2.627-13.662-2.103C148.388,101.678,148.371,104.18,149.972,104.002L149.972,104.002z"/>
				</g>
			</g>
			<g>
				<g>
					<path fill="#E4E4E4" d="M156.538,115.42c4.737,0.646,9.407,1.585,14.024,2.821c1.56,0.417,2.221-1.995,0.665-2.411
						c-4.618-1.235-9.288-2.175-14.024-2.821C155.627,112.795,154.947,115.203,156.538,115.42L156.538,115.42z"/>
				</g>
			</g>
			<g>
				<g>
					<path fill="#E4E4E4" d="M208.342,91.759c-4.85-0.782-9.718-1.218-14.631-1.28c-1.613-0.02-1.611,2.48,0,2.5
						c4.688,0.059,9.336,0.444,13.967,1.191C209.254,94.424,209.931,92.016,208.342,91.759L208.342,91.759z"/>
				</g>
			</g>
			<g>
				<g>
					<path fill="#E4E4E4" d="M201.928,101.69c-5.376-0.661-10.756-0.915-16.17-0.77c-1.609,0.043-1.613,2.543,0,2.5
						c5.414-0.146,10.794,0.109,16.17,0.77C203.525,104.387,203.507,101.884,201.928,101.69L201.928,101.69z"/>
				</g>
			</g>
			<g>
				<g>
					<path fill="#E4E4E4" d="M191.752,112.892c-4.727-2.629-10.14-3.052-15.181-1.054c-1.48,0.587-0.836,3.006,0.664,2.411
						c4.436-1.759,9.071-1.526,13.255,0.801C191.9,115.834,193.161,113.675,191.752,112.892L191.752,112.892z"/>
				</g>
			</g>
			<g>
				<g>
					<path fill="#E4E4E4" d="M159.985,93.468c0.634-1.41,1.351-2.762,2.162-4.078c0.589-0.955,1.853-3.547,3.182-3.484
						c1.612,0.077,1.605-2.424,0-2.5c-1.914-0.091-2.995,1.432-4.038,2.815c-1.391,1.846-2.519,3.879-3.464,5.984
						C157.172,93.664,159.326,94.937,159.985,93.468L159.985,93.468z"/>
				</g>
			</g>
			<g>
				<g>
					<path fill="#E4E4E4" d="M166.931,103.592c0.749-4.56,1.576-9.108,4.394-12.9c0.962-1.296-1.209-2.54-2.159-1.262
						c-2.938,3.954-3.863,8.734-4.646,13.497C164.261,104.504,166.67,105.18,166.931,103.592L166.931,103.592z"/>
				</g>
			</g>
			<g>
				<g>
					<path fill="#E4E4E4" d="M178.415,90c1.874,4.022,3.034,8.257,3.472,12.673c0.157,1.589,2.659,1.604,2.5,0
						c-0.483-4.876-1.743-9.493-3.813-13.935C179.894,87.277,177.738,88.548,178.415,90L178.415,90z"/>
				</g>
			</g>
			<g>
				<g>
					<path fill="#E4E4E4" d="M181.747,83.276c2.965,2.728,4.269,6.722,6.729,9.857c0.994,1.268,2.751-0.515,1.768-1.768
						c-2.479-3.158-3.721-7.091-6.729-9.857C182.331,80.419,180.559,82.183,181.747,83.276L181.747,83.276z"/>
				</g>
			</g>
			<g>
				<g>
					<path fill="#E4E4E4" d="M142.13,69.721c-0.01-0.045-0.02-0.091-0.029-0.137c0,0.222,0,0.443,0,0.665
						c0.013-0.042,0.025-0.085,0.038-0.127c-0.107,0.184-0.214,0.368-0.321,0.552c-0.667-0.365-0.983-0.373-0.948-0.022
						c0.01,0.031,0.08,0.299,0.085,0.339c0.027,0.23,0.025,0.452-0.029,0.671c0.069-0.276,0.624-0.254,0.699-0.143
						c-0.142-0.211-0.193-0.496-0.213-0.741c-0.021-0.249,0.001-0.464,0.067-0.696c-0.057,0.2-0.476,0.135-0.556,0.061
						c-0.107-0.101-0.033-0.224,0.017-0.256c-0.126,0.082-0.332-0.087-0.426-0.151c0,0.719,0,1.439,0,2.158
						c0.076-0.104,0.105-0.124,0.087-0.056c1.56,0.418,2.22-1.993,0.665-2.411c-0.704-0.189-1.409-0.111-2.014,0.309
						c-0.794,0.551-0.81,1.61,0,2.158c0.992,0.672,2.43,0.675,3.347-0.138c0.973-0.863,0.968-2.27,0.191-3.254
						c-0.805-1.02-2.17-0.941-3.096-0.159c-0.898,0.759-0.861,2.244-0.67,3.28c0.228,1.24,1.052,2.176,2.32,2.313
						c1.269,0.137,2-1.204,2.104-2.258c0.105-1.063-0.156-2.417-1.075-3.069c-1.297-0.919-2.97,0.281-2.652,1.779
						C140.054,71.963,142.464,71.294,142.13,69.721L142.13,69.721z"/>
				</g>
			</g>
			<g>
				<g>
					<path fill="#E4E4E4" d="M208.466,67.604c0.099,0.434-0.231,0.597-0.614,0.542c-0.291-0.291-0.582-0.582-0.873-0.873
						c0.049,0.167,0.095,0.333,0.135,0.503c0.023,0.1-0.03,0.243,0.024,0.142c0.123-0.228,0.194-0.201,0.381-0.223
						c0.321,0.034,0.537,0.216,0.647,0.545c0-0.113,0.001-0.226,0.005-0.339c0.002-0.062,0.102-0.579-0.016-0.492
						c-0.193,0.144-0.563-0.241-0.607-0.361c0.056,0.146,0.029,0.203,0.019,0.406c-0.005,0.107-0.104,0.285-0.209,0.393
						c0.09-0.092-0.238,0.066-0.034,0.005c0.077-0.022,0.013-0.015-0.09-0.046c0.077,0.023,0.21,0.162,0.032-0.013
						c0.153,0.15,0.132,0.359,0.042,0.546c-0.035,0.059-0.085,0.101-0.147,0.127c0.127-0.071,0.127-0.079,0.002-0.022
						c0.146-0.036,0.142-0.037-0.013-0.001c-0.229,0.006-0.412-0.104-0.552-0.332c0.413,0.54,1.067,0.825,1.71,0.448
						c0.533-0.312,0.864-1.167,0.448-1.71c-0.712-0.93-1.966-1.229-2.947-0.474c-1.091,0.841-1.162,2.137-0.311,3.185
						c0.74,0.913,2.202,0.953,3.151,0.42c1.008-0.566,1.497-1.854,1.412-2.961c-0.106-1.386-1.317-2.548-2.748-1.965
						c-1.344,0.548-1.641,1.857-1.647,3.184c-0.007,1.486,1.509,2.432,2.821,1.696c1.251-0.701,1.263-2.104,0.901-3.329
						c-0.111-0.379-0.452-0.812-0.873-0.873c-0.766-0.111-1.372,0.038-1.946,0.572c-0.538,0.501-0.669,1.277-0.514,1.963
						c0.149,0.665,0.904,1.047,1.537,0.873C208.272,68.956,208.616,68.269,208.466,67.604L208.466,67.604z"/>
				</g>
			</g>
			<g>
				<g>
					<path fill="#E4E4E4" d="M159.108,125.077c4.055,3.363,8.544,7.138,13.59,8.818c1.718,0.572,4.448-2.122,5.666-2.944
						c3.229-2.179,6.458-4.357,9.686-6.537c1.328-0.896,0.078-3.063-1.262-2.158c-3.767,2.542-7.533,5.084-11.3,7.626
						c-4.4,2.969-11.279-3.809-14.612-6.573C159.645,122.288,157.866,124.046,159.108,125.077L159.108,125.077z"/>
				</g>
			</g>
			<g>
				<g>
					<path fill="#E4E4E4" d="M156.254,124.432c0.258,3.689,0.517,7.379,0.775,11.068c0.189,2.71-0.355,6.781,1.077,9.226
						c0.18,0.307,0.431,0.444,0.747,0.575c2.912,1.201,4.392,3.14,6.137,5.605c2.53,3.576,5.06,7.153,7.589,10.729
						c0.53,0.75,1.651,0.86,2.158,0c1.912-3.24,3.999-6.31,6.339-9.259c1.927-2.43,5.027-4.582,6.58-7.215
						c1.547-2.623,0.925-5.914,0.978-8.864c0.076-4.244,0.423-8.478,0.876-12.695c0.172-1.602-2.329-1.585-2.5,0
						c-0.39,3.621-0.662,7.239-0.82,10.877c-0.179,4.128,0.697,8.012-2.492,11.203c-4.354,4.354-7.998,9.402-11.118,14.691
						c0.719,0,1.439,0,2.158,0c-2.168-3.066-4.336-6.131-6.504-9.197c-1.475-2.084-3.006-4.996-5.159-6.514
						c-1.092-0.77-1.282-0.836-2.517-1.345c-0.957-0.394-0.837-5.086-0.899-5.974c-0.301-4.304-0.603-8.609-0.904-12.913
						C158.642,122.833,156.141,122.822,156.254,124.432L156.254,124.432z"/>
				</g>
			</g>
		</g>
		<g>
			<g>
				<g>
					<path fill="#E4E4E4" d="M171.529,174.685c0.836,16.259,1.242,32.531,1.219,48.813c-0.006,4.343,0.386,8.134-2.177,11.873
						c-2.426,3.541-4.879,7.059-7.248,10.641c-4.396,6.648-8.546,13.456-12.537,20.354c-0.809,1.398,1.352,2.656,2.159,1.262
						c3.992-6.901,8.169-13.685,12.536-20.354c3.565-5.446,9.522-11.117,9.731-17.916c0.561-18.18-0.251-36.518-1.185-54.672
						C173.946,173.081,171.446,173.073,171.529,174.685L171.529,174.685z"/>
				</g>
			</g>
			<g>
				<g>
					<path fill="#E4E4E4" d="M172.002,234.414c9.393,10.477,17.757,21.743,25.078,33.759c0.837,1.374,3,0.119,2.158-1.262
						c-7.43-12.196-15.935-23.632-25.468-34.265C172.692,231.443,170.93,233.218,172.002,234.414L172.002,234.414z"/>
				</g>
			</g>
			<g>
				<g>
					<path fill="#E4E4E4" d="M170.983,275.68c-3.232-1.668-3.359-5.297-3.224-8.494c0.19-4.501,4.874-6.195,8.663-6.22
						c5.773-0.037,5.845,6.244,3.938,10.033c-1.257,2.496-6.486,9.558-9.591,5.145c-0.92-1.308-3.089-0.061-2.159,1.262
						c6.661,9.467,21.871-10.229,12.938-17.093c-4.046-3.109-11.886-2.254-14.746,2.29c-2.879,4.575-2.249,12.567,2.92,15.235
						C171.152,278.576,172.417,276.419,170.983,275.68L170.983,275.68z"/>
				</g>
			</g>
			<g>
				<g>
					<path fill="#E4E4E4" d="M172.558,286.924c0.151,0.002,0.293,0.036,0.428,0.103c-0.084,0.654-0.168,1.309-0.253,1.963
						c0.329-0.175,0.891-0.205,1.042,0.222c0.024,0.068,0.056,0.308,0.038,0.331c-0.117,0.146-0.262,0.128-0.347,0.107
						c-0.032-0.008-0.375-0.904-0.165-1.045c-0.269,0.181-0.603-0.239-0.557-0.503c0.081-0.458,1.028-0.426,0.878,0.135
						c0.417-1.56-1.995-2.221-2.411-0.664c-0.31,1.16,0.444,2.475,1.672,2.664c1.315,0.203,2.435-0.846,2.334-2.18
						c-0.104-1.381-1.418-2.244-2.736-1.808c-1.498,0.495-1.833,2.041-1.624,3.428c0.195,1.295,1.126,2.297,2.424,2.464
						c1.232,0.158,2.477-0.619,2.873-1.794c0.418-1.239-0.051-2.6-1.081-3.374c-1.054-0.793-2.477-0.739-3.603-0.142
						c-0.75,0.397-0.763,1.384-0.253,1.963c0.496,0.563,1.294,0.767,2.005,0.54C174.753,288.848,174.099,286.434,172.558,286.924
						L172.558,286.924z"/>
				</g>
			</g>
			<g>
				<g>
					<path fill="#E4E4E4" d="M172.541,299.279c-0.201,0.154-0.237,0.16-0.481,0.128c0.402,0.527,0.804,1.055,1.206,1.582
						c0.064-0.389,0.209-0.633,0.43-0.695c-0.304,0.086-0.415-0.269-0.333,0.017c0.015,0.052-0.012,0.273-0.071,0.389
						c-0.054,0.144-0.082,0.182-0.084,0.113c0.029-0.031-0.23,0.103-0.073,0.05c0.193-0.064-0.207-0.002-0.01,0.025
						c-0.279-0.039,0.038,0.068-0.205-0.064c0.051,0.027,0.145,0.222-0.005-0.032c0.041,0.068,0.063,0.09,0.047,0.175
						c0.044-0.239,0.052-0.104-0.007-0.035c-0.036,0.043-0.279,0.082,0.021,0.016c0.666-0.146,1.046-0.907,0.873-1.537
						c-0.188-0.683-0.873-1.02-1.538-0.873c-1.583,0.348-2.4,2.431-1.405,3.739c1.125,1.48,3.266,1.391,4.368-0.061
						c0.933-1.229,0.796-3.516-0.777-4.184c-1.631-0.693-3.37,0.642-3.642,2.294c-0.144,0.876,0.346,1.468,1.206,1.582
						c0.602,0.08,1.262-0.099,1.743-0.47c0.538-0.415,0.826-1.065,0.449-1.71C173.939,299.196,173.082,298.861,172.541,299.279
						L172.541,299.279z"/>
				</g>
			</g>
			<g>
				<g>
					<path fill="#E4E4E4" d="M133.123,273.132c5.984-2.678,12.938-3.885,19.322-5.254c-0.528-0.401-1.055-0.804-1.583-1.205
						c-0.69,5.481-0.4,10.834,0.82,16.215c0.357,1.572,2.767,0.905,2.411-0.664c-1.176-5.182-1.394-10.289-0.731-15.551
						c0.108-0.855-0.874-1.357-1.583-1.205c-6.63,1.422-13.705,2.725-19.919,5.506C130.392,271.631,131.665,273.785,133.123,273.132
						L133.123,273.132z"/>
				</g>
			</g>
			<g>
				<g>
					<path fill="#E4E4E4" d="M200.229,286.563c-0.128-2.884-0.257-5.767-0.386-8.65c-0.065-1.441-0.13-2.883-0.194-4.325
						c-0.117-2.61,0.62-2.573,3.185-2.192c5.122,0.76,9.938,2.669,15.144,3.028c1.61,0.111,1.6-2.39,0-2.5
						c-4.04-0.278-7.877-1.435-11.79-2.387c-2.43-0.592-5.581-1.413-8.063-0.779c-0.413,0.105-0.77,0.459-0.873,0.873
						c-0.545,2.166-0.072,4.626,0.027,6.841c0.151,3.364,0.302,6.728,0.451,10.092C197.8,288.169,200.3,288.176,200.229,286.563
						L200.229,286.563z"/>
				</g>
			</g>
			<g>
				<g>
					<path fill="#E4E4E4" d="M145.6,258.6c3.939,0.28,7.827,0.068,11.721-0.574c1.587-0.262,0.912-2.671-0.665-2.41
						c-3.671,0.605-7.346,0.748-11.056,0.484C143.991,255.985,144.001,258.486,145.6,258.6L145.6,258.6z"/>
				</g>
			</g>
			<g>
				<g>
					<path fill="#E4E4E4" d="M150.379,248.498c4.744,0.524,9.285-0.228,13.662-2.103c1.478-0.633,0.203-2.786-1.262-2.158
						c-3.958,1.695-8.132,2.232-12.4,1.761C148.778,245.821,148.795,248.323,150.379,248.498L150.379,248.498z"/>
				</g>
			</g>
			<g>
				<g>
					<path fill="#E4E4E4" d="M157.612,236.991c4.736-0.646,9.405-1.585,14.023-2.821c1.556-0.416,0.895-2.828-0.665-2.41
						c-4.618,1.235-9.287,2.176-14.023,2.821C155.355,234.798,156.036,237.206,157.612,236.991L157.612,236.991z"/>
				</g>
			</g>
			<g>
				<g>
					<path fill="#E4E4E4" d="M208.086,255.833c-4.632,0.743-9.279,1.128-13.969,1.188c-1.611,0.021-1.613,2.521,0,2.5
						c4.914-0.063,9.782-0.499,14.633-1.278C210.339,257.988,209.662,255.579,208.086,255.833L208.086,255.833z"/>
				</g>
			</g>
			<g>
				<g>
					<path fill="#E4E4E4" d="M202.337,245.81c-5.377,0.661-10.758,0.918-16.174,0.77c-1.613-0.044-1.608,2.456,0,2.5
						c5.416,0.148,10.797-0.108,16.174-0.77C203.916,248.115,203.935,245.613,202.337,245.81L202.337,245.81z"/>
				</g>
			</g>
			<g>
				<g>
					<path fill="#E4E4E4" d="M190.898,234.95c-4.184,2.328-8.819,2.561-13.256,0.801c-1.5-0.596-2.145,1.823-0.664,2.41
						c5.041,2,10.455,1.577,15.182-1.053C193.569,236.325,192.309,234.165,190.898,234.95L190.898,234.95z"/>
				</g>
			</g>
			<g>
				<g>
					<path fill="#E4E4E4" d="M158.235,257.793c0.952,2.118,2.102,4.105,3.464,5.986c1.011,1.396,2.147,2.903,4.038,2.814
						c1.605-0.075,1.612-2.575,0-2.5c-1.348,0.063-2.568-2.53-3.181-3.484c-0.833-1.296-1.531-2.674-2.162-4.078
						C159.734,255.063,157.58,256.335,158.235,257.793L158.235,257.793z"/>
				</g>
			</g>
			<g>
				<g>
					<path fill="#E4E4E4" d="M164.927,247.074c0.782,4.764,1.707,9.543,4.646,13.498c0.95,1.278,3.121,0.034,2.158-1.262
						c-2.817-3.792-3.645-8.341-4.393-12.9C167.078,244.822,164.668,245.498,164.927,247.074L164.927,247.074z"/>
				</g>
			</g>
			<g>
				<g>
					<path fill="#E4E4E4" d="M180.981,261.262c2.067-4.442,3.329-9.057,3.811-13.933c0.158-1.604-2.343-1.589-2.5,0
						c-0.436,4.415-1.598,8.648-3.469,12.671C178.147,261.452,180.302,262.723,180.981,261.262L180.981,261.262z"/>
				</g>
			</g>
			<g>
				<g>
					<path fill="#E4E4E4" d="M183.921,268.491c3.009-2.765,4.252-6.697,6.728-9.856c0.982-1.253-0.773-3.036-1.768-1.768
						c-2.458,3.136-3.761,7.131-6.728,9.856C180.964,267.816,182.736,269.58,183.921,268.491L183.921,268.491z"/>
				</g>
			</g>
			<g>
				<g>
					<path fill="#E4E4E4" d="M140.125,279.614c-0.147,0.71,0.048,1.373,0.673,1.787c0.499,0.33,1.312,0.466,1.836,0.094
						c0.969-0.688,1.28-1.853,1.236-3.002c-0.045-1.176-0.71-2.302-1.97-2.413c-1.374-0.122-2.191,1.122-2.472,2.302
						c-0.249,1.044-0.154,2.331,0.576,3.168c0.833,0.957,2.204,0.913,3.093,0.077c0.954-0.898,0.801-2.34,0.037-3.267
						c-0.816-0.989-2.505-0.907-3.477-0.253c-0.813,0.547-0.792,1.607,0,2.158c0.606,0.422,1.31,0.497,2.016,0.312
						c1.558-0.408,0.896-2.82-0.665-2.41c0.015,0.065-0.015,0.045-0.089-0.06c0,0.72,0,1.438,0,2.158
						c0.127-0.086,0.238-0.182,0.4-0.15c0.143,0.026-0.069-0.112-0.066-0.124c0.068-0.251,0.493-0.293,0.632-0.081
						c-0.105-0.159-0.075-0.474-0.068-0.686c0.006-0.186,0.053-0.408,0.128-0.58c0.206-0.47-0.279,0.214-0.601-0.283
						c0.035,0.055,0.032,0.343,0.029,0.478c-0.002,0.17-0.014,0.173-0.05,0.335c-0.016,0.059-0.031,0.118-0.047,0.177
						c-0.034,0.35,0.282,0.343,0.948-0.022c0.107,0.185,0.214,0.368,0.322,0.552c-0.013-0.043-0.025-0.085-0.038-0.128
						c0,0.222,0,0.443,0,0.665c0.009-0.047,0.019-0.093,0.029-0.139C142.863,278.705,140.454,278.036,140.125,279.614
						L140.125,279.614z"/>
				</g>
			</g>
			<g>
				<g>
					<path fill="#E4E4E4" d="M206.462,281.731c-0.172,0.771,0.034,1.358,0.516,1.962c0.466,0.585,1.267,0.67,1.943,0.571
						c0.423-0.062,0.76-0.493,0.873-0.873c0.367-1.223,0.349-2.628-0.9-3.327c-0.573-0.321-1.227-0.317-1.816-0.06
						c-0.704,0.307-0.951,1.049-1.004,1.756c-0.098,1.305,0.374,2.666,1.648,3.184c1.429,0.581,2.645-0.579,2.748-1.966
						c0.089-1.191-0.44-2.28-1.412-2.958c-0.965-0.673-2.363-0.355-3.153,0.419c-0.971,0.953-0.694,2.414,0.311,3.186
						c0.984,0.755,2.235,0.453,2.949-0.476c0.417-0.542,0.084-1.398-0.448-1.71c-0.644-0.377-1.296-0.091-1.71,0.448
						c0.263-0.342,0.367-0.349,0.669-0.305c-0.138-0.04-0.142-0.037-0.013,0.011c-0.124-0.076-0.128-0.079-0.013-0.009
						c0.14,0.133,0.147,0.301,0.117,0.494c-0.021,0.052-0.052,0.094-0.095,0.128c0.104-0.103,0.116-0.114,0.036-0.033
						c-0.183,0.116,0.208-0.036-0.025-0.011c0.262-0.029-0.145-0.128,0.113,0.016c-0.066-0.054-0.045-0.028,0.066,0.076
						c-0.057-0.065-0.041-0.033,0.045,0.094c-0.079-0.136,0.088,0.375,0.067,0.197c-0.004-0.031-0.005,0.413,0.018,0.255
						c-0.086,0.26-0.021,0.217,0.198-0.129c0.104-0.056,0.211-0.085,0.324-0.086c0.217,0.056,0.081-0.161,0.07-0.316
						c-0.012-0.169-0.012-0.34-0.012-0.509c0,0.291-0.542,0.687-0.837,0.521c-0.23-0.129-0.199-0.396-0.209-0.066
						c-0.005,0.156-0.099,0.361-0.144,0.513c0.291-0.291,0.582-0.582,0.873-0.873c0.387-0.057,0.712,0.106,0.615,0.541
						c0.148-0.664-0.192-1.351-0.873-1.537C207.367,280.685,206.609,281.066,206.462,281.731L206.462,281.731z"/>
				</g>
			</g>
			<g>
				<g>
					<path fill="#E4E4E4" d="M161.284,226.691c1.978-1.64,9.843-9.03,12.998-7.663c4.488,1.944,8.849,5.973,12.915,8.716
						c1.341,0.905,2.59-1.262,1.262-2.158c-2.69-1.815-5.381-3.632-8.071-5.447c-1.795-1.212-4.647-4.078-6.948-4.078
						c-2.267,0-4.854,2.265-6.619,3.391c-2.566,1.638-4.963,3.531-7.304,5.473C158.274,225.954,160.053,227.712,161.284,226.691
						L161.284,226.691z"/>
				</g>
			</g>
			<g>
				<g>
					<path fill="#E4E4E4" d="M159.162,225.57c0.257-3.69,0.515-7.38,0.773-11.07c0.129-1.845,0.259-3.689,0.388-5.534
						c0.188-2.681,1.44-2.416,3.158-3.628c1.683-1.186,2.914-3.341,4.074-4.982c2.529-3.576,5.06-7.152,7.59-10.728
						c-0.72,0-1.439,0-2.159,0c3.15,5.342,6.836,10.205,11.118,14.689c3.107,3.254,2.363,7.033,2.492,11.204
						c0.112,3.636,0.433,7.261,0.821,10.876c0.171,1.585,2.672,1.603,2.5,0c-0.39-3.62-0.663-7.238-0.821-10.876
						c-0.11-2.539,0.88-7.441-0.433-9.666c-1.553-2.633-4.122-4.661-6.127-6.963c-2.824-3.243-5.212-6.83-7.392-10.526
						c-0.508-0.861-1.629-0.749-2.159,0c-2.168,3.064-4.337,6.13-6.505,9.194c-1.169,1.653-2.301,3.334-3.586,4.901
						c-1.453,1.772-2.922,1.296-4.185,2.56c-1.564,1.563-1.01,5.712-1.145,7.634c-0.301,4.306-0.603,8.61-0.903,12.915
						C156.55,227.18,159.051,227.169,159.162,225.57L159.162,225.57z"/>
				</g>
			</g>
		</g>
	</g>
	<g>
		<g>
			<g>
				<g>
					<path fill="#E4E4E4" d="M174.26,175.712c-14.079-9.111-28.555-17.564-43.136-25.84c-2.315-1.314-5.095-3.452-7.915-3.454
						c-4.177-0.003-8.382,0.583-12.55,0.869c-9.014,0.62-18.051,0.869-27.085,0.88c-1.612,0.002-1.612,2.502,0,2.5
						c7.747-0.009,15.484-0.223,23.22-0.642c3.866-0.209,7.728-0.503,11.586-0.825c2.02-0.168,3.881-0.427,5.916-0.094
						c2.32,0.379,5.159,2.694,7.197,3.851c14.037,7.967,27.952,16.144,41.504,24.914
						C174.356,178.749,175.608,176.584,174.26,175.712L174.26,175.712z"/>
				</g>
			</g>
			<g>
				<g>
					<path fill="#E4E4E4" d="M124.272,147.612c-4.445-13.573-10.099-26.654-16.946-39.19c-0.772-1.415-2.932-0.154-2.158,1.262
						c6.744,12.347,12.314,25.222,16.693,38.593C122.36,149.802,124.775,149.149,124.272,147.612L124.272,147.612z"/>
				</g>
			</g>
			<g>
				<g>
					<path fill="#E4E4E4" d="M83.113,128.524c-0.277,5.813,6.328,10.36,11.726,10.153c5.407-0.208,9.972-6.559,9.363-11.617
						c-1.33-11.043-25.977-8.087-21.263,2.663c0.646,1.474,2.799,0.2,2.158-1.262c-2.028-4.626,5.303-5.482,8.015-5.699
						c3.714-0.296,8.204,1.093,8.723,5.404c0.418,3.474-3.406,6.784-6.277,7.838c-4.095,1.502-10.135-3.489-9.945-7.48
						C85.689,126.912,83.189,126.919,83.113,128.524L83.113,128.524z"/>
				</g>
			</g>
			<g>
				<g>
					<path fill="#E4E4E4" d="M74.9,119.758c-0.55,0.533-0.754,1.272-0.525,2.009c0.233,0.746,1.133,1.192,1.836,0.747
						c2.313-1.463,2.174-4.762-0.464-5.749c-1.225-0.458-2.563,0.316-3.167,1.365c-0.768,1.332-0.041,2.809,1.061,3.666
						c1.16,0.902,2.475,0.98,3.642,0.078c1.062-0.821,0.772-2.573-0.291-3.226c-1.111-0.683-2.544-0.323-3.032,0.93
						c-0.448,1.15,0.285,2.479,1.449,2.792c1.56,0.417,2.221-1.994,0.665-2.411c0.556,0.149,0.077,0.781-0.302,0.828
						c-0.315,0.039-0.458-0.632-0.172-0.742c-0.282,0.107-0.874-0.542-0.81-0.777c0.093-0.337,0.507,0.079,0.56,0.161
						c0.217,0.336-0.134,0.758-0.401,0.928c0.612,0.249,1.224,0.498,1.836,0.747c-0.04,0.142-0.079,0.283-0.119,0.424
						C77.827,120.402,76.058,118.636,74.9,119.758L74.9,119.758z"/>
				</g>
			</g>
			<g>
				<g>
					<path fill="#E4E4E4" d="M65.002,113.079c-0.843,0.346-1.343,0.844-1.689,1.687c-0.275,0.673,0.298,1.32,0.873,1.538
						c1.383,0.524,3.125-0.047,3.705-1.445c0.753-1.815-1.224-3.282-2.826-3.348c-1.831-0.076-3.079,1.772-2.657,3.454
						c0.442,1.764,2.895,2.255,4.08,0.969c1.09-1.183-0.673-2.956-1.768-1.768c-0.156,0.148-0.125,0.146,0.093-0.004
						c-0.246,0.101-0.124,0.004-0.042,0.021c0.066,0.054,0.034,0.038-0.095-0.048c0.354,0.208,0.115,0.075,0.131,0.2
						c-0.017-0.134,0.001-0.375,0.286-0.335c0.134,0.019,0.343,0.069,0.428,0.186c0.005,0.008,0.006-0.195,0.061-0.252
						c0.086-0.066,0.065-0.059-0.064,0.023c0.161-0.09-0.224,0.046-0.223,0.046c0.185-0.04-0.246-0.02-0.235-0.02
						c0.189,0.011-0.211-0.09-0.208-0.089c0.291,0.513,0.582,1.025,0.873,1.538c0.022-0.054-0.113,0.082-0.057,0.059
						c0.63-0.258,1.07-0.821,0.873-1.538C66.376,113.354,65.634,112.82,65.002,113.079L65.002,113.079z"/>
				</g>
			</g>
			<g>
				<g>
					<path fill="#E4E4E4" d="M70.137,164.745c5.517-3.993,10.175-9.469,14.726-14.499c0.686-0.758,0.318-1.724-0.551-2.089
						c-4.787-2.011-9.005-4.764-12.817-8.29c-1.181-1.093-2.953,0.671-1.768,1.768c4.136,3.826,8.726,6.75,13.919,8.933
						c-0.184-0.697-0.368-1.393-0.551-2.089c-4.385,4.848-8.901,10.258-14.22,14.108C67.583,163.522,68.828,165.692,70.137,164.745
						L70.137,164.745z"/>
				</g>
			</g>
			<g>
				<g>
					<path fill="#E4E4E4" d="M89.552,99.91c2.676,1.709,5.352,3.418,8.028,5.127c2.008,1.282,4.079,3.095,6.387,3.753
						c0.424,0.121,0.908-0.006,1.216-0.322c1.808-1.853,2.585-4.945,3.343-7.349c1.218-3.858,2.04-7.753,3.83-11.415
						c0.706-1.442-1.45-2.71-2.158-1.262c-2.08,4.253-3.079,8.831-4.497,13.323c-0.326,1.034-0.94,4.892-2.846,3.674
						c-1.338-0.854-2.676-1.709-4.014-2.563c-2.676-1.709-5.352-3.418-8.028-5.126C89.451,96.881,88.198,99.046,89.552,99.91
						L89.552,99.91z"/>
				</g>
			</g>
			<g>
				<g>
					<path fill="#E4E4E4" d="M89.875,160.297c1.618-3.349,3.589-6.475,5.956-9.346c1.017-1.233-0.741-3.013-1.768-1.768
						c-2.504,3.038-4.633,6.305-6.346,9.852C87.019,160.48,89.174,161.748,89.875,160.297L89.875,160.297z"/>
				</g>
			</g>
			<g>
				<g>
					<path fill="#E4E4E4" d="M101.011,161.209c1.704-3.932,4.289-7.313,7.74-9.872c1.279-0.949,0.035-3.12-1.262-2.158
						c-3.799,2.817-6.752,6.419-8.637,10.769C98.219,161.411,100.372,162.685,101.011,161.209L101.011,161.209z"/>
				</g>
			</g>
			<g>
				<g>
					<path fill="#E4E4E4" d="M114.191,161.217c2.924-3.78,6.074-7.357,9.457-10.733c1.142-1.14-0.625-2.907-1.768-1.768
						c-3.382,3.375-6.533,6.953-9.457,10.733C111.451,160.708,113.206,162.491,114.191,161.217L114.191,161.217z"/>
				</g>
			</g>
			<g>
				<g>
					<path fill="#E4E4E4" d="M119.591,104.537c-3.104,3.799-5.916,7.798-8.415,12.02c-0.823,1.391,1.338,2.647,2.158,1.262
						c2.391-4.038,5.055-7.88,8.024-11.514C122.369,105.067,120.611,103.288,119.591,104.537L119.591,104.537z"/>
				</g>
			</g>
			<g>
				<g>
					<path fill="#E4E4E4" d="M124.995,115.045c-3.264,4.32-6.179,8.857-8.752,13.622c-0.767,1.418,1.392,2.681,2.158,1.262
						c2.574-4.764,5.489-9.301,8.752-13.622C128.125,115.02,125.953,113.776,124.995,115.045L124.995,115.045z"/>
				</g>
			</g>
			<g>
				<g>
					<path fill="#E4E4E4" d="M129.591,129.473c-4.612,2.715-7.743,7.281-8.486,12.595c-0.22,1.576,2.188,2.256,2.411,0.665
						c0.658-4.706,3.229-8.683,7.336-11.102C132.24,130.814,130.983,128.653,129.591,129.473L129.591,129.473z"/>
				</g>
			</g>
			<g>
				<g>
					<path fill="#E4E4E4" d="M96.894,147.25c-0.79-1.098-1.512-2.226-2.178-3.403c-0.599-1.058-2.43-3.764-1.697-4.986
						c0.832-1.386-1.33-2.642-2.158-1.262c-0.901,1.501-0.416,2.964,0.234,4.478c0.981,2.285,2.188,4.417,3.641,6.435
						C95.668,149.808,97.838,148.562,96.894,147.25L96.894,147.25z"/>
				</g>
			</g>
			<g>
				<g>
					<path fill="#E4E4E4" d="M109.131,146.303c-3.565-2.92-7.127-5.922-8.975-10.26c-0.63-1.479-2.783-0.204-2.158,1.262
						c1.925,4.521,5.646,7.72,9.365,10.766C108.6,149.083,110.379,147.325,109.131,146.303L109.131,146.303z"/>
				</g>
			</g>
			<g>
				<g>
					<path fill="#E4E4E4" d="M103.103,129.568c4.419,0.39,8.667,1.5,12.71,3.33c1.457,0.659,2.729-1.495,1.262-2.159
						c-4.464-2.02-9.09-3.24-13.972-3.67C101.497,126.926,101.51,129.427,103.103,129.568L103.103,129.568z"/>
				</g>
			</g>
			<g>
				<g>
					<path fill="#E4E4E4" d="M98.962,123.321c3.769-1.133,7.712-0.338,11.565-0.854c1.573-0.211,1.594-2.714,0-2.5
						c-4.085,0.547-8.227-0.26-12.23,0.943C96.757,121.373,97.414,123.786,98.962,123.321L98.962,123.321z"/>
				</g>
			</g>
			<g>
				<g>
					<path fill="#E4E4E4" d="M67.424,150.856c-0.04-0.011-0.08-0.023-0.12-0.034c0.184,0.107,0.368,0.214,0.551,0.321
						c-0.003,0.366-0.007,0.732-0.011,1.098c-0.21,0.057-0.421,0.114-0.631,0.17c0.356-0.047,1.005,0.096,1.233,0.398
						c-0.354-0.468,0.685-0.632,0.192-0.622c-0.232,0.004-0.494-0.096-0.703-0.196c-0.165-0.079-0.401-0.198-0.513-0.353
						c0.254,0.354-0.661,0.487-0.259,0.488c-0.103,0-0.207-0.055-0.213-0.167c0.009,0.161-0.246,0.252-0.354,0.305
						c0.627,0.359,1.254,0.719,1.881,1.079c-0.043-0.417-0.077-0.045,0-0.119c1.159-1.124-0.61-2.89-1.768-1.768
						c-0.509,0.494-0.806,1.171-0.732,1.887c0.101,0.972,0.977,1.519,1.881,1.079c1.079-0.524,1.783-1.771,1.539-2.968
						c-0.233-1.14-1.248-1.826-2.376-1.83c-1.202-0.004-2.141,1.027-2.095,2.207c0.053,1.338,1.28,2.134,2.384,2.595
						c1.011,0.422,2.239,0.358,3.059-0.402c1.087-1.008,0.437-2.539-0.55-3.289c-0.992-0.753-2.271-1.067-3.431-0.573
						c-0.577,0.246-0.803,0.993-0.834,1.551c-0.041,0.739,0.537,1.359,1.204,1.552C68.312,153.714,68.97,151.302,67.424,150.856
						L67.424,150.856z"/>
				</g>
			</g>
			<g>
				<g>
					<path fill="#E4E4E4" d="M98.758,92.352c0.398,0.12,0.382,0.503,0.149,0.793c-0.405,0.107-0.811,0.214-1.216,0.322
						c0.208,0.049,0.518,0.075,0.686,0.223c-0.101-0.089-0.117-0.226-0.093-0.344c0.094-0.469,1.206-0.217,0.715-0.504
						c-0.179-0.105-0.444-0.229-0.57-0.402c0.146,0.201-0.538,0.449-0.503,0.466c0.221,0.107,0.353,0.263,0.468,0.472
						c-0.024-0.044-0.076,0.115-0.012,0.069c0.139-0.099,0.403,0.235,0.448,0.357c0.089,0.247,0.025-0.144-0.019,0.11
						c0.042-0.141,0.04-0.141-0.006-0.001c-0.132,0.206-0.32,0.308-0.566,0.305c0.675-0.089,1.25-0.501,1.25-1.25
						c0-0.614-0.573-1.339-1.25-1.25c-1.16,0.153-1.943,0.996-1.906,2.198c0.037,1.184,1.06,2.176,2.27,2.026
						c1.317-0.164,2.279-1.252,2.287-2.581c0.007-1.274-1.017-2.381-2.148-2.813c-1.338-0.511-2.81,0.351-2.823,1.837
						c-0.012,1.297,0.935,2.096,1.967,2.701c1.286,0.753,2.791-0.063,2.88-1.535c0.088-1.445-1.172-2.204-2.408-2.497
						c-0.401-0.095-0.938-0.024-1.216,0.322c-0.946,1.177-0.57,2.928,0.954,3.386C99.642,95.228,100.298,92.814,98.758,92.352
						L98.758,92.352z"/>
				</g>
			</g>
			<g>
				<g>
					<path fill="#E4E4E4" d="M123.843,163.825c4.55-1.686,11.203-3.613,14.429-7.363c1.196-1.39,0.419-4.322,0.306-5.935
						c-0.283-4.029-0.565-8.057-0.848-12.086c-0.112-1.599-2.613-1.61-2.5,0c0.323,4.604,0.646,9.208,0.97,13.813
						c0.221,3.144-1.126,3.609-3.662,5.007c-2.993,1.652-6.159,2.968-9.36,4.153C121.68,161.969,122.328,164.386,123.843,163.825
						L123.843,163.825z"/>
				</g>
			</g>
			<g>
				<g>
					<path fill="#E4E4E4" d="M121.841,165.973c3.325,1.621,6.649,3.242,9.974,4.864c2.453,1.196,5.685,3.682,8.527,3.682
						c0.631,0,1.056-0.497,1.522-0.855c2.174-1.67,4.63-1.771,7.274-2.014c4.362-0.403,8.724-0.805,13.086-1.209
						c0.929-0.086,1.576-1,1.079-1.881c-2.021-3.585-3.75-7.246-5.213-11.097c-1.162-3.058-1.566-6.507-3.175-9.355
						c-1.114-1.973-4.789-3.149-6.595-4.235c-3.637-2.188-7.13-4.605-10.555-7.106c-1.304-0.953-2.549,1.218-1.262,2.158
						c2.45,1.79,4.937,3.511,7.475,5.173c2.691,1.762,8.597,3.824,9.57,7.156c1.909,6.53,4.249,12.629,7.597,18.569
						c0.359-0.627,0.719-1.254,1.079-1.881c-6.26,0.579-13.077,0.448-19.157,2.126c-0.968,0.267-1.689,0.841-2.464,1.438
						c-1.119,0.862-4.853-1.523-5.863-2.016c-3.879-1.892-7.758-3.783-11.637-5.674C121.66,163.111,120.392,165.267,121.841,165.973
						L121.841,165.973z"/>
				</g>
			</g>
		</g>
		<g>
			<g>
				<g>
					<path fill="#E4E4E4" d="M172.998,177.87c14.561,7.436,28.915,15.255,43.06,23.453c3.713,2.152,7.101,3.691,9.031,7.735
						c1.849,3.874,3.674,7.755,5.592,11.596c3.561,7.131,7.382,14.13,11.36,21.035c0.804,1.396,2.965,0.138,2.158-1.262
						c-4.286-7.44-8.346-14.998-12.182-22.681c-3.264-6.537-4.948-12.861-11.44-16.68c-15.174-8.926-30.64-17.35-46.317-25.355
						C172.827,174.98,171.562,177.137,172.998,177.87L172.998,177.87z"/>
				</g>
			</g>
			<g>
				<g>
					<path fill="#E4E4E4" d="M224.979,207.328c13.768-2.892,27.696-4.502,41.759-4.837c1.609-0.038,1.613-2.538,0-2.5
						c-14.285,0.341-28.44,1.989-42.423,4.927C222.738,205.249,223.407,207.659,224.979,207.328L224.979,207.328z"/>
				</g>
			</g>
			<g>
				<g>
					<path fill="#E4E4E4" d="M260.185,228.85c-3.428,2.207-8.46-0.254-10.732-3.215c-2.245-2.926-0.392-7.752,1.761-10.138
						c3.406-3.775,8.047,0.285,9.891,3.357c1.476,2.458,4.489,9.842-0.605,10.408c-1.584,0.176-1.602,2.678,0,2.5
						c11.48-1.275,2.127-24.07-8.94-19.495c-4.494,1.857-7.014,9.415-4.769,13.673c2.524,4.786,9.775,8.211,14.657,5.067
						C262.797,230.139,261.545,227.974,260.185,228.85L260.185,228.85z"/>
				</g>
			</g>
			<g>
				<g>
					<path fill="#E4E4E4" d="M270.729,233.086c0.096-0.101,0.191-0.201,0.287-0.301c0.527,0.401,1.055,0.804,1.582,1.205
						c0.019-0.452,0.278-0.812,0.747-0.801c0.327,0.008,0.325,0.278,0.222,0.465c-0.106,0.19-0.919-0.212-1.021-0.358
						c0.077,0.11-0.386,0.434-0.599,0.319c-0.509-0.274,0.002-1.222,0.439-0.784c-1.142-1.141-2.909,0.627-1.768,1.768
						c0.879,0.878,2.162,0.759,3.055-0.019c1.075-0.936,0.493-2.608-0.604-3.199c-1.241-0.669-2.785,0.131-2.972,1.522
						c-0.206,1.531,0.813,2.521,2.144,3.043c1.217,0.479,2.624,0.191,3.391-0.896c0.71-1.008,0.676-2.453-0.168-3.376
						c-0.877-0.96-2.268-1.229-3.45-0.72c-1.207,0.52-1.862,1.768-1.915,3.036c-0.035,0.846,0.821,1.376,1.582,1.205
						c0.74-0.166,1.274-0.716,1.459-1.445C273.535,232.187,271.124,231.523,270.729,233.086L270.729,233.086z"/>
				</g>
			</g>
			<g>
				<g>
					<path fill="#E4E4E4" d="M281.458,239.621c-0.011-0.081-0.316,0.34-0.17,0.149c0.654-0.084,1.309-0.169,1.963-0.253
						c-0.163-0.134-0.185-0.14-0.269-0.268c-0.067-0.14-0.087-0.169-0.059-0.086c-0.001-0.005-0.087-0.419-0.067-0.206
						c0.006-0.158,0.001-0.175-0.014-0.052c0.038-0.218,0.017,0.017-0.171,0.155c-0.141,0.013-0.149,0.019-0.028,0.019
						c0.08,0.015,0.149,0.042,0.216,0.097c0.247,0.205,0.294,0.372,0.08,0.581c-0.014,0.014,0.04-0.063,0.167,0.037
						c-0.292-0.231-0.016-0.093-0.037-0.024c0.471-1.546-1.942-2.202-2.41-0.664c-0.521,1.707,1.034,3.362,2.757,3.073
						c0.813-0.137,1.512-0.717,1.88-1.442c0.428-0.842,0.313-1.718-0.065-2.548c-0.774-1.694-3.3-2.188-4.458-0.677
						c-0.866,1.128-0.31,2.94,0.711,3.772c0.679,0.554,1.44,0.427,1.963-0.253c0.476-0.617,0.521-1.334,0.422-2.075
						c-0.091-0.677-0.948-1.035-1.537-0.873C281.608,238.282,281.367,238.946,281.458,239.621L281.458,239.621z"/>
				</g>
			</g>
			<g>
				<g>
					<path fill="#E4E4E4" d="M239.063,260.366c0.669-6.521,3.1-13.141,5.105-19.353c-0.612,0.249-1.224,0.498-1.836,0.747
						c4.388,3.342,9.174,5.772,14.439,7.396c1.545,0.477,2.2-1.937,0.664-2.41c-5.068-1.563-9.627-3.936-13.842-7.145
						c-0.676-0.515-1.613,0.056-1.836,0.747c-2.086,6.456-4.5,13.24-5.195,20.017C236.399,261.97,238.9,261.954,239.063,260.366
						L239.063,260.366z"/>
				</g>
			</g>
			<g>
				<g>
					<path fill="#E4E4E4" d="M284.252,208.963c-2.609-1.354-5.218-2.71-7.827-4.064c-1.043-0.542-2.087-1.084-3.13-1.626
						c-2.674-1.389-2.616-1.994-0.673-4.4c3.186-3.944,7.12-7.115,9.98-11.346c0.906-1.34-1.261-2.589-2.158-1.262
						c-3.441,5.09-10.952,9.543-12.668,15.6c-0.12,0.421,0.003,0.911,0.321,1.216c1.511,1.449,3.658,2.207,5.501,3.164
						c3.13,1.626,6.261,3.252,9.392,4.877C284.419,211.863,285.684,209.706,284.252,208.963L284.252,208.963z"/>
				</g>
			</g>
			<g>
				<g>
					<path fill="#E4E4E4" d="M232.71,242.292c2.215-3.259,3.983-6.736,5.363-10.425c0.566-1.513-1.851-2.16-2.41-0.664
						c-1.305,3.485-3.021,6.75-5.111,9.827C229.643,242.368,231.81,243.617,232.71,242.292L232.71,242.292z"/>
				</g>
			</g>
			<g>
				<g>
					<path fill="#E4E4E4" d="M226.353,233.103c2.827-3.836,4.454-8.159,5.015-12.881c0.189-1.599-2.313-1.581-2.5,0
						c-0.507,4.271-2.128,8.165-4.673,11.619C223.236,233.141,225.407,234.386,226.353,233.103L226.353,233.103z"/>
				</g>
			</g>
			<g>
				<g>
					<path fill="#E4E4E4" d="M220.003,221.098c1.808-4.425,3.329-8.938,4.567-13.557c0.418-1.559-1.993-2.22-2.41-0.664
						c-1.238,4.617-2.76,9.131-4.567,13.557C216.982,221.927,219.402,222.569,220.003,221.098L220.003,221.098z"/>
				</g>
			</g>
			<g>
				<g>
					<path fill="#E4E4E4" d="M261.563,186.771c-1.667,4.388-3.657,8.612-5.954,12.704c-0.79,1.407,1.369,2.667,2.158,1.262
						c2.403-4.28,4.463-8.714,6.206-13.302C264.548,185.926,262.13,185.279,261.563,186.771L261.563,186.771z"/>
				</g>
			</g>
			<g>
				<g>
					<path fill="#E4E4E4" d="M250.009,186.752c-2.111,4.987-4.581,9.778-7.419,14.39c-0.848,1.377,1.315,2.632,2.158,1.262
						c2.839-4.611,5.309-9.402,7.419-14.39C252.788,186.547,250.635,185.271,250.009,186.752L250.009,186.752z"/>
				</g>
			</g>
			<g>
				<g>
					<path fill="#E4E4E4" d="M234.882,191.227c-0.052,4.775-2.195,8.958-5.939,11.895c-1.268,0.994,0.515,2.75,1.768,1.768
						c4.24-3.325,6.613-8.289,6.672-13.662C237.399,189.613,234.899,189.615,234.882,191.227L234.882,191.227z"/>
				</g>
			</g>
			<g>
				<g>
					<path fill="#E4E4E4" d="M238.328,230.942c2.455,0.242,4.881,0.223,7.332-0.06c1.643-0.189,3.188-0.492,4.042-2.031
						c0.784-1.41-1.376-2.671-2.158-1.262c-0.688,1.237-3.629,0.974-4.813,1.025c-1.47,0.064-2.94-0.028-4.402-0.173
						C236.724,228.284,236.739,230.785,238.328,230.942L238.328,230.942z"/>
				</g>
			</g>
			<g>
				<g>
					<path fill="#E4E4E4" d="M232.38,219.779c4.538,1.713,9.107,3.271,14.021,2.731c1.584-0.174,1.602-2.676,0-2.5
						c-4.7,0.517-9.023-1.007-13.357-2.642C231.533,216.799,230.886,219.216,232.38,219.779L232.38,219.779z"/>
				</g>
			</g>
			<g>
				<g>
					<path fill="#E4E4E4" d="M252.704,212.967c-2.788-4.007-6.173-7.423-10.148-10.254c-1.316-0.938-2.563,1.231-1.262,2.158
						c3.61,2.571,6.721,5.72,9.252,9.357C251.459,215.542,253.628,214.294,252.704,212.967L252.704,212.967z"/>
				</g>
			</g>
			<g>
				<g>
					<path fill="#E4E4E4" d="M260.439,214.038c-0.902-3.983-3.665-7.033-5.172-10.754c-0.597-1.475-3.016-0.831-2.41,0.664
						c1.496,3.696,4.281,6.823,5.172,10.754C258.385,216.274,260.795,215.607,260.439,214.038L260.439,214.038z"/>
				</g>
			</g>
			<g>
				<g>
					<path fill="#E4E4E4" d="M248.185,257.54c0.971,0.93,3.022,0.29,2.877-1.232c-0.115-1.205-1.01-2.106-2.072-2.616
						c-1.128-0.541-2.327-0.414-3.068,0.658c-0.771,1.113,0.102,2.545,0.965,3.28c0.856,0.729,1.959,1.203,3.089,0.938
						c1.324-0.31,1.777-1.813,1.29-2.945c-0.463-1.074-1.694-1.614-2.8-1.28c-1.174,0.354-1.921,1.651-1.825,2.838
						c0.081,1.01,0.984,1.471,1.881,1.079c0.644-0.28,1.098-0.892,1.259-1.566c0.375-1.567-2.036-2.232-2.41-0.664
						c-0.071,0.297,0.203-0.065-0.11,0.072c0.627,0.359,1.254,0.72,1.881,1.079c-0.017-0.207-0.038-0.305,0.049-0.41
						c0.205-0.245,0.02,0.079-0.2-0.106c-0.077-0.064,0.069,0.192,0.029,0.056c-0.076-0.269,0.051-0.466,0.293-0.562
						c0.158-0.063-0.155-0.028-0.053-0.007c-0.151-0.032-0.168-0.046-0.306-0.116c-0.271-0.137-0.468-0.313-0.677-0.532
						c-0.06-0.063-0.11-0.135-0.139-0.216c0.11,0.319-0.239,0.543-0.489,0.567c-0.16,0.015,0.194,0.05,0.233,0.063
						c-0.031-0.01,0.282,0.173,0.274,0.168c0.142,0.087,0.127,0.091,0.245,0.199c0.043,0.043,0.087,0.086,0.13,0.129
						c0.357,0.293,0.678,0.001,0.96-0.876c0.185,0.107,0.368,0.214,0.552,0.321c-0.029-0.028-0.06-0.058-0.09-0.086
						C248.788,254.658,247.019,256.423,248.185,257.54L248.185,257.54z"/>
				</g>
			</g>
			<g>
				<g>
					<path fill="#E4E4E4" d="M283.186,201.151c1.157,1.082,2.861,0.564,3.413-0.852c0.161-0.411-0.036-0.916-0.321-1.216
						c-0.819-0.861-1.998-1.593-3.187-0.956c-1.301,0.695-1.484,2.418-0.229,3.271c1.027,0.697,2.398,1.151,3.527,0.419
						c1.207-0.783,1.249-2.437,0.133-3.319c-0.966-0.764-2.228-1.03-3.376-0.524c-1.07,0.472-1.649,1.725-1.401,2.855
						c0.269,1.225,1.43,1.903,2.627,1.607c1.084-0.269,1.945-1.546,1.506-2.634c-0.255-0.632-0.823-1.069-1.537-0.873
						c-0.601,0.165-1.129,0.904-0.873,1.537c0.131,0.325,0-0.165,0.075-0.301c0.046-0.084,0.076-0.106,0.165-0.141
						c0.213-0.08,0.457,0.141,0.479,0.341c-0.015-0.134,0.109-0.221-0.066-0.087c0.188-0.143,0.352-0.078,0.603,0
						c0.043,0.014,0.161,0.088,0.154,0.083c0.352,0.278-0.111-0.344,0.111-0.607c0.083-0.098-0.167-0.123-0.238-0.157
						c-0.166-0.078-0.325-0.172-0.484-0.263c0.356,0.203,0.276,0.906-0.076,1.03c-0.19,0.066-0.341-0.073-0.065,0.098
						c0.141,0.087,0.272,0.269,0.387,0.389c-0.107-0.405-0.215-0.811-0.321-1.216c0.14-0.358,0.462-0.534,0.765-0.252
						C283.777,198.284,282.005,200.049,283.186,201.151L283.186,201.151z"/>
				</g>
			</g>
			<g>
				<g>
					<path fill="#E4E4E4" d="M212.92,212.742c-0.687-4.037-3.134-13.617,1.435-15.844c4.149-2.023,8.298-4.045,12.447-6.067
						c1.449-0.706,0.181-2.861-1.262-2.158c-3.112,1.517-6.224,3.033-9.336,4.55c-2.077,1.013-4.542,1.784-6.211,3.428
						c-1.213,1.194-0.678,4.508-0.65,5.918c0.071,3.639,0.558,7.257,1.167,10.838C210.779,214.993,213.188,214.318,212.92,212.742
						L212.92,212.742z"/>
				</g>
			</g>
			<g>
				<g>
					<path fill="#E4E4E4" d="M210.896,214.031c-3.065-2.069-6.132-4.139-9.198-6.207c-1.532-1.035-3.065-2.069-4.599-3.104
						c-2.608-1.76-1.172-1.837-1.504-3.925c-1.02-6.405-5.152-12.747-7.847-18.594c-0.359,0.627-0.72,1.254-1.079,1.881
						c6.16-0.063,12.161-0.81,18.152-2.247c4.479-1.075,7.306,1.379,11.078,3.405c3.205,1.721,6.506,3.257,9.831,4.728
						c1.46,0.646,2.733-1.508,1.262-2.158c-3.33-1.474-6.601-3.047-9.831-4.729c-2.254-1.173-6.003-4.482-8.586-4.46
						c-2.692,0.023-5.308,1.039-7.93,1.6c-4.594,0.981-9.291,1.313-13.977,1.361c-1.015,0.011-1.468,1.037-1.079,1.881
						c1.571,3.41,3.142,6.821,4.711,10.231c0.94,2.043,1.909,4.046,2.631,6.182c0.409,1.21-0.615,3.411,0.067,4.576
						c1.188,2.029,4.045,3.241,5.903,4.495c3.577,2.414,7.154,4.827,10.731,7.241C210.975,217.095,212.224,214.928,210.896,214.031
						L210.896,214.031z"/>
				</g>
			</g>
		</g>
	</g>
	<g>
		<g>
			<g>
				<g>
					<path fill="#E4E4E4" d="M175.395,175.717c-15.489,7.922-30.577,16.57-45.568,25.39c-6.474,3.81-8.211,10.144-11.438,16.682
						c-3.799,7.697-7.897,15.244-12.181,22.681c-0.807,1.399,1.354,2.658,2.158,1.262c3.98-6.909,7.766-13.918,11.359-21.035
						c1.658-3.284,3.249-6.602,4.815-9.929c0.853-1.813,1.554-3.519,2.847-5.096c1.492-1.818,4.915-3.12,6.938-4.309
						c13.918-8.173,27.958-16.136,42.33-23.487C178.092,177.141,176.827,174.984,175.395,175.717L175.395,175.717z"/>
				</g>
			</g>
			<g>
				<g>
					<path fill="#E4E4E4" d="M126.093,204.958c-13.983-2.938-28.139-4.586-42.424-4.927c-1.613-0.038-1.609,2.462,0,2.5
						c14.063,0.335,27.992,1.945,41.759,4.837C127.001,207.699,127.67,205.289,126.093,204.958L126.093,204.958z"/>
				</g>
			</g>
			<g>
				<g>
					<path fill="#E4E4E4" d="M88.96,231.048c4.723,3.043,11.048-0.066,14.154-4.111c3.394-4.42,0.197-11.916-3.964-14.504
						c-10.208-6.348-21.411,18.017-9.242,19.371c1.601,0.178,1.584-2.324,0-2.5c-5.27-0.586-1.909-7.913-0.604-10.409
						c1.878-3.596,6.229-6.478,9.892-3.358c2.716,2.313,3.345,7.132,1.76,10.139c-1.722,3.267-7.773,5.122-10.734,3.215
						C88.862,228.014,87.61,230.179,88.96,231.048L88.96,231.048z"/>
				</g>
			</g>
			<g>
				<g>
					<path fill="#E4E4E4" d="M77.268,233.789c0.182,0.73,0.719,1.28,1.458,1.446c0.762,0.171,1.617-0.359,1.583-1.205
						c-0.111-2.729-3.094-4.33-5.247-2.445c-0.969,0.848-0.962,2.325-0.381,3.372c0.705,1.268,2.229,1.435,3.486,1.029
						c1.235-0.398,2.169-1.374,2.188-2.711c0.021-1.407-1.398-2.441-2.718-1.979c-1.352,0.474-1.902,2.077-0.991,3.215
						c0.774,0.967,2.291,0.978,3.142,0.128c1.143-1.14-0.625-2.907-1.768-1.768c0.409-0.408,0.73,0.294,0.568,0.674
						c-0.146,0.343-0.806-0.052-0.727-0.211c-0.086,0.175-0.903,0.53-1.022,0.361c-0.143-0.204-0.073-0.431,0.222-0.466
						c0.469-0.057,0.729,0.386,0.747,0.801c0.527-0.401,1.055-0.804,1.583-1.205c0.096,0.1,0.192,0.199,0.288,0.3
						C79.29,231.561,76.879,232.225,77.268,233.789L77.268,233.789z"/>
				</g>
			</g>
			<g>
				<g>
					<path fill="#E4E4E4" d="M66.538,238.997c-0.101,0.742-0.051,1.457,0.423,2.075c0.521,0.681,1.285,0.806,1.963,0.253
						c1.047-0.853,1.471-2.482,0.785-3.677c-0.474-0.826-1.508-1.146-2.402-0.979c-0.881,0.165-1.542,0.697-2.047,1.415
						c-1.077,1.528-0.09,3.593,1.569,4.108c1.773,0.55,3.431-1.369,2.918-3.047c-0.47-1.537-2.883-0.882-2.411,0.664
						c-0.013-0.043,0.062-0.071,0.073-0.085c-0.191,0.243-0.085-0.009,0.078,0.066c-0.215-0.099-0.202-0.288-0.059-0.457
						c0.115-0.137,0.242-0.211,0.42-0.219c-0.137,0.006-0.236-0.063-0.298-0.206c-0.125-0.162,0.018,0.155,0.002-0.043
						c0.019,0.244-0.118,0.463-0.396,0.69c0.654,0.084,1.309,0.169,1.963,0.253c0.146,0.19-0.159-0.232-0.17-0.149
						c0.092-0.675-0.152-1.339-0.873-1.537C67.486,237.962,66.63,238.32,66.538,238.997L66.538,238.997z"/>
				</g>
			</g>
			<g>
				<g>
					<path fill="#E4E4E4" d="M113.846,260.406c-0.698-6.776-3.112-13.56-5.196-20.017c-0.223-0.691-1.161-1.262-1.836-0.747
						c-4.215,3.208-8.774,5.581-13.843,7.145c-1.536,0.474-0.88,2.887,0.665,2.41c5.265-1.623,10.051-4.056,14.44-7.396
						c-0.612-0.249-1.224-0.498-1.836-0.747c2.006,6.213,4.436,12.832,5.107,19.353C111.509,261.993,114.011,262.01,113.846,260.406
						L113.846,260.406z"/>
				</g>
			</g>
			<g>
				<g>
					<path fill="#E4E4E4" d="M67.417,211.159c2.609-1.354,5.218-2.708,7.828-4.063c2.301-1.194,5.188-2.165,7.065-3.979
						c0.317-0.306,0.442-0.794,0.322-1.216c-1.729-6.06-9.222-10.502-12.669-15.596c-0.897-1.327-3.064-0.078-2.158,1.262
						c2.572,3.802,5.894,6.889,9.007,10.233c0.927,1.007,1.783,2.072,2.568,3.196c0.915,1.261-3.349,2.877-3.832,3.127
						c-3.131,1.626-6.262,3.251-9.393,4.876C64.724,209.743,65.988,211.901,67.417,211.159L67.417,211.159z"/>
				</g>
			</g>
			<g>
				<g>
					<path fill="#E4E4E4" d="M119.855,241.071c-2.09-3.077-3.807-6.343-5.111-9.828c-0.56-1.496-2.977-0.849-2.411,0.664
						c1.38,3.688,3.149,7.167,5.364,10.426C118.597,243.658,120.764,242.409,119.855,241.071L119.855,241.071z"/>
				</g>
			</g>
			<g>
				<g>
					<path fill="#E4E4E4" d="M126.211,231.881c-2.544-3.455-4.165-7.349-4.671-11.62c-0.188-1.581-2.69-1.599-2.5,0
						c0.56,4.722,2.188,9.045,5.013,12.882C124.998,234.426,127.169,233.182,126.211,231.881L126.211,231.881z"/>
				</g>
			</g>
			<g>
				<g>
					<path fill="#E4E4E4" d="M132.814,220.475c-1.808-4.426-3.329-8.938-4.567-13.556c-0.417-1.556-2.829-0.895-2.411,0.664
						c1.239,4.617,2.759,9.131,4.567,13.556C131.005,222.61,133.424,221.967,132.814,220.475L132.814,220.475z"/>
				</g>
			</g>
			<g>
				<g>
					<path fill="#E4E4E4" d="M86.432,187.477c1.743,4.588,3.804,9.021,6.208,13.301c0.79,1.405,2.949,0.146,2.158-1.262
						c-2.299-4.091-4.289-8.315-5.956-12.703C88.276,185.32,85.859,185.967,86.432,187.477L86.432,187.477z"/>
				</g>
			</g>
			<g>
				<g>
					<path fill="#E4E4E4" d="M98.239,188.055c2.111,4.987,4.582,9.778,7.421,14.39c0.843,1.37,3.006,0.115,2.158-1.262
						c-2.839-4.611-5.31-9.402-7.421-14.39C99.771,185.313,97.618,186.588,98.239,188.055L98.239,188.055z"/>
				</g>
			</g>
			<g>
				<g>
					<path fill="#E4E4E4" d="M113.026,191.268c0.058,5.373,2.43,10.337,6.671,13.661c1.253,0.982,3.036-0.773,1.768-1.768
						c-3.745-2.936-5.887-7.119-5.938-11.894C115.508,189.656,113.008,189.654,113.026,191.268L113.026,191.268z"/>
				</g>
			</g>
			<g>
				<g>
					<path fill="#E4E4E4" d="M112.08,228.482c-1.469,0.146-2.927,0.203-4.402,0.174c-1.176-0.023-4.135,0.192-4.815-1.026
						c-0.785-1.407-2.945-0.147-2.158,1.262c0.858,1.537,2.4,1.844,4.044,2.033c2.451,0.282,4.876,0.301,7.332,0.058
						C113.669,230.825,113.684,228.323,112.08,228.482L112.08,228.482z"/>
				</g>
			</g>
			<g>
				<g>
					<path fill="#E4E4E4" d="M117.362,217.41c-4.333,1.636-8.656,3.157-13.356,2.641c-1.602-0.176-1.584,2.326,0,2.5
						c4.914,0.54,9.484-1.018,14.021-2.73C119.52,219.257,118.873,216.84,117.362,217.41L117.362,217.41z"/>
				</g>
			</g>
			<g>
				<g>
					<path fill="#E4E4E4" d="M99.861,214.269c2.531-3.638,5.642-6.786,9.252-9.355c1.302-0.926,0.055-3.096-1.262-2.158
						c-3.976,2.829-7.362,6.245-10.149,10.252C96.779,214.334,98.947,215.582,99.861,214.269L99.861,214.269z"/>
				</g>
			</g>
			<g>
				<g>
					<path fill="#E4E4E4" d="M92.378,214.741c0.891-3.93,3.676-7.057,5.171-10.753c0.604-1.495-1.814-2.139-2.411-0.664
						c-1.504,3.721-4.269,6.771-5.171,10.753C89.611,215.646,92.021,216.313,92.378,214.741L92.378,214.741z"/>
				</g>
			</g>
			<g>
				<g>
					<path fill="#E4E4E4" d="M100.455,255.813c-0.03,0.028-0.06,0.058-0.09,0.086c0.184-0.107,0.368-0.215,0.552-0.321
						c0.307,0.302,0.614,0.604,0.921,0.905c0.063-0.047,0.12-0.101,0.17-0.161c0.117-0.117,0.104-0.103,0.244-0.198
						c-0.011,0.008,0.31-0.182,0.275-0.167c0.017-0.007,0.418-0.069,0.233-0.063c-0.294,0.011-0.544-0.276-0.489-0.568
						c-0.016,0.085-0.084,0.152-0.139,0.217c-0.197,0.232-0.417,0.385-0.676,0.533c-0.152,0.087-0.142,0.068-0.306,0.116
						c0.109-0.032-0.23-0.035-0.053,0.007c0.279,0.065,0.328,0.317,0.293,0.561c-0.019,0.132,0.099-0.13,0.03-0.056
						c-0.175,0.186-0.445-0.131-0.202,0.106c0.093,0.091,0.065,0.222,0.05,0.411c0.627-0.359,1.254-0.72,1.881-1.079
						c-0.315-0.137-0.041,0.225-0.11-0.07c-0.373-1.568-2.784-0.903-2.411,0.664c0.16,0.674,0.616,1.286,1.26,1.564
						c0.896,0.389,1.8-0.067,1.881-1.079c0.086-1.082-0.519-2.26-1.528-2.713c-1.165-0.523-2.407-0.067-3.042,1.024
						c-0.67,1.153-0.09,2.554,1.106,3.026c1.069,0.423,2.247-0.138,3.086-0.789c0.98-0.76,1.707-1.995,1.164-3.227
						c-0.49-1.109-1.796-1.361-2.839-0.938c-1.069,0.435-2.233,1.342-2.353,2.567c-0.15,1.543,1.743,2.474,2.859,1.408
						C103.39,256.466,101.62,254.701,100.455,255.813L100.455,255.813z"/>
				</g>
			</g>
			<g>
				<g>
					<path fill="#E4E4E4" d="M65.456,199.423c0.301-0.282,0.626-0.105,0.765,0.251c-0.107,0.405-0.214,0.811-0.322,1.216
						c0.15-0.157,0.325-0.404,0.54-0.477c-0.177,0.06-0.324-0.038-0.419-0.174c0.042-0.288,0.083-0.577,0.124-0.865
						c-0.103,0.062-0.208,0.12-0.314,0.176c-0.041,0.022-0.475,0.207-0.419,0.233c0.242,0.114,0.041,0.687,0.009,0.726
						c0.062-0.075,0.178-0.154,0.268-0.189c0.131-0.052,0.395-0.111,0.461-0.082c0.3,0.133,0.1,0.093,0.056,0.025
						c-0.096-0.146,0.04,0.215,0.02,0.011c0.024,0.251-0.015,0.086,0.03-0.005c0.059-0.119,0.226-0.2,0.357-0.203
						c0.101-0.003,0.141,0.011,0.216,0.073c0.139,0.115-0.021,0.707,0.116,0.369c0.255-0.633-0.273-1.372-0.873-1.537
						c-0.714-0.196-1.283,0.241-1.538,0.873c-0.444,1.1,0.387,2.21,1.39,2.589c1.202,0.455,2.323-0.303,2.716-1.437
						c0.382-1.102-0.278-2.364-1.227-2.917c-1.125-0.656-2.558-0.297-3.523,0.459c-1.016,0.795-1.103,2.265-0.119,3.125
						c1.108,0.969,2.501,0.526,3.638-0.13c0.634-0.366,0.989-0.958,1.023-1.682c0.033-0.694-0.477-1.236-0.985-1.616
						c-1.126-0.841-2.521,0.055-3.311,0.887c-0.285,0.3-0.481,0.805-0.322,1.216c0.551,1.417,2.257,1.937,3.414,0.853
						C68.402,200.086,66.63,198.322,65.456,199.423L65.456,199.423z"/>
				</g>
			</g>
			<g>
				<g>
					<path fill="#E4E4E4" d="M139.896,213.446c0.514-3.018,0.877-6.021,1.089-9.077c0.142-2.042,0.747-5.508-0.376-7.426
						c-0.912-1.558-3.383-2.208-4.85-2.923c-3.631-1.769-7.261-3.539-10.892-5.308c-1.443-0.703-2.711,1.452-1.262,2.158
						c4.149,2.022,8.299,4.045,12.448,6.066c4.567,2.225,2.119,11.809,1.432,15.845
						C137.217,214.358,139.626,215.033,139.896,213.446L139.896,213.446z"/>
				</g>
			</g>
			<g>
				<g>
					<path fill="#E4E4E4" d="M140.773,216.229c3.066-2.068,6.132-4.138,9.198-6.206c2.268-1.53,5.999-3.074,7.437-5.53
						c0.319-0.545,0.101-1.163,0.024-1.745c-0.365-2.785,0.77-4.879,1.888-7.307c1.832-3.979,3.665-7.958,5.497-11.938
						c0.388-0.844-0.065-1.87-1.08-1.881c-4.111-0.043-8.144-0.372-12.207-1.03c-3.232-0.522-6.425-1.9-9.7-1.931
						c-2.155-0.02-5.155,2.587-6.983,3.599c-3.713,2.056-7.553,3.873-11.433,5.59c-1.472,0.65-0.198,2.805,1.262,2.158
						c2.775-1.228,5.51-2.521,8.218-3.889c2.862-1.444,7.593-5.522,10.953-4.709c6.618,1.604,13.064,2.642,19.89,2.712
						c-0.36-0.627-0.72-1.254-1.08-1.881c-2.692,5.848-6.828,12.188-7.846,18.594c-0.332,2.087,1.104,2.166-1.504,3.926
						c-1.533,1.034-3.066,2.068-4.599,3.104c-3.066,2.068-6.132,4.137-9.198,6.206C138.183,214.968,139.433,217.135,140.773,216.229
						L140.773,216.229z"/>
				</g>
			</g>
		</g>
		<g>
			<g>
				<g>
					<path fill="#E4E4E4" d="M176.656,177.875c13.191-8.549,26.595-16.758,40.206-24.623c3.49-2.017,7.228-4.996,11.379-5.001
						c4.309-0.006,8.727,0.719,13.033,0.994c8.372,0.536,16.763,0.747,25.151,0.756c1.612,0.001,1.612-2.499,0-2.5
						c-8.393-0.009-16.773-0.26-25.151-0.756c-7.459-0.441-14.059-2.259-20.763,1.539c-15.317,8.677-30.346,17.859-45.117,27.433
						C174.047,176.59,175.299,178.755,176.656,177.875L176.656,177.875z"/>
				</g>
			</g>
			<g>
				<g>
					<path fill="#E4E4E4" d="M228.14,147.611c4.377-13.372,9.949-26.246,16.692-38.593c0.773-1.415-1.386-2.677-2.158-1.262
						c-6.847,12.535-12.502,25.616-16.944,39.19C225.227,148.483,227.641,149.136,228.14,147.611L228.14,147.611z"/>
				</g>
			</g>
			<g>
				<g>
					<path fill="#E4E4E4" d="M264.388,127.86c0.19,4.001-3.838,6.422-7.182,7.543c-3.853,1.292-7.558-2.979-8.757-6.047
						c-1.85-4.731,3.559-7.073,7.204-7.283c2.893-0.166,11.365,0.889,9.252,5.722c-0.64,1.462,1.514,2.736,2.158,1.262
						c4.705-10.76-19.938-13.699-21.265-2.663c-0.608,5.061,3.953,11.41,9.363,11.619c5.396,0.208,12.003-4.342,11.726-10.153
						C266.812,126.255,264.311,126.248,264.388,127.86L264.388,127.86z"/>
				</g>
			</g>
			<g>
				<g>
					<path fill="#E4E4E4" d="M273.331,120.861c-0.039-0.142-0.078-0.284-0.117-0.426c0.612-0.249,1.224-0.498,1.836-0.747
						c-0.295-0.187-0.582-0.567-0.401-0.928c0.175-0.348,0.44-0.336,0.613-0.037c-0.023-0.104-0.028-0.12-0.014-0.047
						c-0.026,0.148-0.208,0.294-0.301,0.388c-0.104,0.105-0.371,0.353-0.547,0.313c0.303,0.068,0.131,0.72-0.174,0.74
						c-0.537,0.036-0.771-0.697-0.299-0.825c-1.555,0.422-0.894,2.834,0.664,2.411c1.2-0.326,1.727-1.502,1.5-2.662
						c-0.248-1.267-1.922-1.777-2.949-1.145c-1.111,0.685-1.495,2.167-0.544,3.181c1.056,1.126,2.626,0.933,3.762,0.05
						c1.104-0.859,1.705-2.143,1.134-3.492c-0.488-1.154-1.821-1.884-3.058-1.583c-1.251,0.304-2.163,1.343-2.314,2.615
						c-0.155,1.303,0.592,2.501,1.666,3.178c0.705,0.445,1.603,0,1.836-0.747c0.229-0.733,0.029-1.479-0.525-2.007
						C273.932,117.983,272.161,119.749,273.331,120.861L273.331,120.861z"/>
				</g>
			</g>
			<g>
				<g>
					<path fill="#E4E4E4" d="M284.334,114.824c-0.007-0.003,0.096,0.315-0.059-0.06c0.291-0.513,0.582-1.025,0.873-1.538
						c-0.335,0.127-0.528,0.141-0.781-0.001c0.108,0.061,0.116,0.203,0.097,0.31c0.014-0.078,0.217-0.144,0.266-0.16
						c0.172-0.059,0.272-0.043,0.428,0.043c-0.058-0.032,0.05,0.221,0.037,0.097c0.016,0.162,0.012,0.202-0.014,0.12
						c0.028-0.112,0.301-0.259,0.02-0.094c0.063-0.037,0.054-0.018,0.123-0.008c-0.378-0.053,0.215,0.25-0.043-0.03
						c-1.096-1.187-2.859,0.585-1.768,1.768c1.205,1.306,3.397,0.768,4.023-0.829c0.656-1.674-0.699-3.483-2.422-3.585
						c-1.742-0.104-3.529,1.381-3.052,3.227c0.394,1.521,2.43,2.058,3.75,1.555c0.573-0.218,1.151-0.866,0.873-1.538
						c-0.35-0.847-0.842-1.338-1.688-1.687c-0.631-0.26-1.373,0.277-1.537,0.873C283.264,114.004,283.704,114.564,284.334,114.824
						L284.334,114.824z"/>
				</g>
			</g>
			<g>
				<g>
					<path fill="#E4E4E4" d="M281.124,161.921c-5.318-3.849-9.834-9.259-14.218-14.108c-0.184,0.696-0.367,1.393-0.552,2.089
						c5.194-2.183,9.784-5.107,13.92-8.934c1.186-1.097-0.587-2.86-1.768-1.768c-3.812,3.526-8.03,6.279-12.816,8.29
						c-0.87,0.366-1.237,1.331-0.552,2.089c4.548,5.031,9.206,10.506,14.724,14.499
						C281.171,165.026,282.417,162.856,281.124,161.921L281.124,161.921z"/>
				</g>
			</g>
			<g>
				<g>
					<path fill="#E4E4E4" d="M259.185,97.086c-2.229,1.424-4.46,2.849-6.689,4.273c-1.338,0.854-2.676,1.708-4.014,2.563
						c-2.306,1.472-2.708,1.064-3.73-1.525c-1.902-4.814-2.659-9.934-4.949-14.619c-0.708-1.448-2.863-0.181-2.158,1.262
						c2.707,5.54,2.776,14.239,7.174,18.766c0.307,0.315,0.794,0.443,1.216,0.322c2.308-0.665,4.376-2.472,6.386-3.755
						c2.676-1.708,5.352-3.417,8.027-5.127C261.8,98.379,260.548,96.215,259.185,97.086L259.185,97.086z"/>
				</g>
			</g>
			<g>
				<g>
					<path fill="#E4E4E4" d="M262.284,158.37c-1.715-3.545-3.843-6.814-6.349-9.85c-1.027-1.245-2.785,0.535-1.768,1.768
						c2.368,2.87,4.338,5.997,5.958,9.344C260.828,161.083,262.983,159.814,262.284,158.37L262.284,158.37z"/>
				</g>
			</g>
			<g>
				<g>
					<path fill="#E4E4E4" d="M251.147,159.281c-1.884-4.35-4.838-7.951-8.637-10.769c-1.297-0.962-2.541,1.209-1.262,2.158
						c3.451,2.56,6.037,5.939,7.74,9.872C249.628,162.019,251.781,160.745,251.147,159.281L251.147,159.281z"/>
				</g>
			</g>
			<g>
				<g>
					<path fill="#E4E4E4" d="M237.574,158.784c-2.922-3.781-6.072-7.357-9.453-10.734c-1.142-1.14-2.909,0.627-1.768,1.768
						c3.381,3.376,6.531,6.954,9.453,10.734C236.791,161.826,238.547,160.042,237.574,158.784L237.574,158.784z"/>
				</g>
			</g>
			<g>
				<g>
					<path fill="#E4E4E4" d="M228.643,105.639c2.968,3.635,5.632,7.478,8.024,11.514c0.821,1.385,2.982,0.128,2.158-1.262
						c-2.502-4.22-5.313-8.22-8.415-12.02C229.391,102.621,227.632,104.401,228.643,105.639L228.643,105.639z"/>
				</g>
			</g>
			<g>
				<g>
					<path fill="#E4E4E4" d="M222.849,115.641c3.263,4.322,6.178,8.858,8.752,13.622c0.767,1.419,2.925,0.157,2.158-1.262
						c-2.573-4.764-5.489-9.301-8.752-13.622C224.049,113.109,221.876,114.353,222.849,115.641L222.849,115.641z"/>
				</g>
			</g>
			<g>
				<g>
					<path fill="#E4E4E4" d="M219.146,130.966c4.108,2.417,6.681,6.395,7.339,11.101c0.222,1.591,2.631,0.911,2.41-0.665
						c-0.743-5.314-3.875-9.88-8.487-12.595C219.016,127.987,217.759,130.149,219.146,130.966L219.146,130.966z"/>
				</g>
			</g>
			<g>
				<g>
					<path fill="#E4E4E4" d="M255.266,147.847c1.318-1.834,2.436-3.761,3.373-5.815c0.757-1.66,1.518-3.397,0.502-5.097
						c-0.825-1.382-2.987-0.126-2.158,1.262c0.683,1.144-0.872,3.395-1.381,4.394c-0.714,1.401-1.578,2.72-2.494,3.996
						C252.164,147.897,254.334,149.143,255.266,147.847L255.266,147.847z"/>
				</g>
			</g>
			<g>
				<g>
					<path fill="#E4E4E4" d="M242.635,147.405c3.722-3.043,7.441-6.244,9.367-10.766c0.624-1.465-1.528-2.741-2.158-1.262
						c-1.848,4.338-5.408,7.342-8.977,10.26C239.618,146.658,241.398,148.417,242.635,147.405L242.635,147.405z"/>
				</g>
			</g>
			<g>
				<g>
					<path fill="#E4E4E4" d="M246.897,126.402c-4.881,0.431-9.508,1.65-13.971,3.671c-1.467,0.664-0.194,2.818,1.262,2.158
						c4.042-1.83,8.29-2.939,12.709-3.329C248.49,128.762,248.504,126.261,246.897,126.402L246.897,126.402z"/>
				</g>
			</g>
			<g>
				<g>
					<path fill="#E4E4E4" d="M251.704,120.244c-4.004-1.203-8.146-0.396-12.232-0.943c-1.594-0.213-1.573,2.289,0,2.5
						c3.854,0.517,7.799-0.279,11.568,0.854C252.588,123.12,253.244,120.707,251.704,120.244L251.704,120.244z"/>
				</g>
			</g>
			<g>
				<g>
					<path fill="#E4E4E4" d="M283.241,152.604c1.267-0.374,1.611-2.028,0.623-2.907c-0.993-0.883-2.56-0.377-3.542,0.269
						c-1.074,0.707-1.526,1.823-0.979,3.016c0.538,1.175,2.148,1.155,3.177,0.842c1.117-0.34,2.054-1.076,2.477-2.172
						c0.505-1.306-0.662-2.531-1.879-2.673c-1.159-0.136-2.092,0.604-2.481,1.644c-0.447,1.196,0.451,2.626,1.507,3.137
						c0.904,0.438,1.781-0.106,1.881-1.079c0.073-0.714-0.222-1.394-0.733-1.884c-1.163-1.116-2.933,0.65-1.768,1.768
						c0.077,0.074,0.044-0.304,0.001,0.117c0.627-0.36,1.254-0.72,1.881-1.079c-0.152-0.074-0.288-0.121-0.349-0.293
						c-0.021-0.059-0.095,0.132-0.173,0.161c-0.096-0.009-0.064-0.012,0.094-0.006c-0.157,0-0.323-0.115-0.376-0.271
						c0.061,0.179,0.025-0.277-0.04-0.203c-0.106,0.119-0.196,0.166-0.331,0.25c-0.218,0.135-0.448,0.203-0.695,0.265
						c-0.093,0.023-0.234,0.021-0.338,0.018c0.3,0.006,0.401,0.349,0.355,0.593c0.038-0.206,0.987-0.398,1.234-0.365
						c-0.21-0.057-0.421-0.114-0.631-0.171c-0.004-0.366-0.008-0.732-0.011-1.098c0.184-0.107,0.367-0.214,0.551-0.321
						c-0.039,0.012-0.079,0.023-0.118,0.035C281.034,150.647,281.691,153.06,283.241,152.604L283.241,152.604z"/>
				</g>
			</g>
			<g>
				<g>
					<path fill="#E4E4E4" d="M251.907,94.097c1.522-0.461,1.898-2.208,0.954-3.386c-0.276-0.345-0.816-0.417-1.216-0.322
						c-1.265,0.304-2.312,0.973-2.419,2.367c-0.113,1.487,1.493,2.338,2.734,1.739c1.116-0.538,1.978-1.371,2.124-2.636
						c0.068-0.59-0.25-1.203-0.636-1.619c-0.509-0.548-1.331-0.592-2.008-0.427c-1.224,0.298-2.183,1.508-2.313,2.725
						c-0.135,1.246,0.751,2.38,1.936,2.696c1.32,0.352,2.421-0.616,2.588-1.872c0.164-1.232-0.73-2.157-1.89-2.31
						c-0.678-0.089-1.25,0.636-1.25,1.25c0,0.749,0.574,1.161,1.25,1.25c-0.299-0.039-0.488-0.122-0.603-0.41
						c0.112,0.282,0.017-0.199,0.007,0.108c0.006-0.182,0.183-0.528,0.421-0.465c0.083,0.022,0.025,0.193,0.023-0.088
						c0-0.075,0.215-0.302,0.321-0.375c0.23-0.158,0.245-0.042-0.102-0.195c0.004,0.001-0.244-0.18-0.245-0.269
						c-0.002-0.175-0.351,0.173-0.439,0.229c-0.554,0.352-0.143-0.1,0.425,0.356c0.103,0.083,0.181,0.25,0.15,0.386
						c-0.046,0.205-0.213,0.251,0.063,0.104c0.14-0.075,0.371-0.098,0.526-0.135c-0.405-0.107-0.811-0.214-1.216-0.322
						c-0.235-0.293-0.251-0.671,0.149-0.792C249.704,92.152,250.36,94.565,251.907,94.097L251.907,94.097z"/>
				</g>
			</g>
			<g>
				<g>
					<path fill="#E4E4E4" d="M226.82,160.75c-2.627-0.975-12.736-3.919-13.143-7.435c-0.562-4.858,0.748-10.649,1.091-15.54
						c0.113-1.61-2.388-1.599-2.5,0c-0.242,3.453-0.484,6.907-0.728,10.36c-0.141,2.004-1.088,5.565-0.008,7.408
						c0.933,1.592,3.166,2.384,4.666,3.211c3.183,1.754,6.555,3.145,9.957,4.407C227.671,163.722,228.318,161.305,226.82,160.75
						L226.82,160.75z"/>
				</g>
			</g>
			<g>
				<g>
					<path fill="#E4E4E4" d="M226.896,163.148c-3.324,1.622-6.649,3.243-9.975,4.864c-1.662,0.811-3.324,1.621-4.986,2.431
						c-2.392,1.166-2.87-0.069-4.702-0.917c-1.877-0.868-4.358-0.858-6.37-1.044c-4.362-0.403-8.725-0.806-13.087-1.208
						c0.359,0.627,0.72,1.254,1.079,1.881c3.023-5.364,5.379-10.929,7.128-16.832c1.313-4.432,4.853-5.656,8.505-7.917
						c3.093-1.915,6.074-4.005,9.011-6.15c1.288-0.941,0.043-3.111-1.262-2.159c-5.363,3.917-11.974,6.798-16.957,11.089
						c-1.817,1.564-2.092,5.806-2.773,7.91c-1.447,4.473-3.507,8.71-5.81,12.796c-0.497,0.881,0.15,1.795,1.079,1.881
						c3.739,0.345,7.479,0.69,11.217,1.035c2.011,0.186,4.027,0.326,6.021,0.655c2.031,0.334,2.6,1.872,4.311,2.343
						c2.131,0.586,5.473-1.986,7.196-2.826c3.879-1.892,7.758-3.783,11.637-5.675C229.607,164.6,228.339,162.444,226.896,163.148
						L226.896,163.148z"/>
				</g>
			</g>
		</g>
	</g>
	<g>
		<g>
			<path fill="#E4E4E4" d="M136.787,137.229c2.445-2.927,3.816-7.033,5.494-10.449c1.064-2.166,4.882-1.686,6.799-1.824
				c2.633-0.19,5.265-0.381,7.897-0.571c1.598-0.115,1.609-2.616,0-2.5c-4.882,0.353-10.25,0.134-15.03,1.178
				c-1.313,0.287-2.026,2.865-2.481,3.792c-1.343,2.733-2.486,6.26-4.446,8.607C133.994,136.689,135.752,138.468,136.787,137.229
				L136.787,137.229z"/>
		</g>
	</g>
	<g>
		<g>
			<path fill="#E4E4E4" d="M139.964,117.922c0.112-0.028-0.108-0.108,0.17,0.097c-0.084-0.654-0.168-1.309-0.253-1.963
				c0.142-0.132,0.426,0.126,0.437,0.29c0.021,0.3-0.589,0.263-0.722,0.089c-0.078-0.101,0.188-0.536,0.407-0.498
				c-0.121-0.021-0.067-0.187-0.045-0.292c0.017-0.116,0.06-0.22,0.128-0.312c0.052-0.098,0.301-0.256,0.078-0.171
				c-0.475,0.182-0.465-0.357-0.335,0.14c0.009,0.032-0.066,0.301-0.046,0.22c-0.093,0.375-0.564,0.794-0.969,0.711
				c0.184,0.697,0.368,1.393,0.551,2.089c0.298-0.26,0.596-0.52,0.895-0.779c1.218-1.061-0.558-2.821-1.768-1.768
				c-0.298,0.26-0.597,0.52-0.895,0.779c-0.688,0.6-0.343,1.906,0.551,2.089c1.378,0.282,2.65-0.251,3.493-1.366
				c0.821-1.085,0.993-2.885-0.067-3.899c-2.72-2.6-5.887,2.866-2.849,4.724c1.263,0.772,2.846,0.137,3.32-1.208
				c0.531-1.508-1.088-2.96-2.498-2.76c-1.343,0.192-2.007,1.76-1.602,2.958c0.549,1.625,2.548,1.806,3.704,0.73
				c0.639-0.595,0.367-1.506-0.253-1.963c-0.616-0.454-1.369-0.531-2.097-0.35C137.736,115.902,138.399,118.313,139.964,117.922
				L139.964,117.922z"/>
		</g>
	</g>
	<g>
		<g>
			<path fill="#E4E4E4" d="M187.571,125.659c2.519-0.166,16.637-2.63,17.497,0.448c0.327,1.169,4.214,10.217,5.541,9.475
				c-1.406,0.788-0.146,2.947,1.262,2.159c0.855-0.479,1.686-1.537,1.074-2.572c-2.242-3.798-4.642-6.778-5.864-11.15
				c-0.645-2.308-2.439-1.983-4.432-1.852c-5.026,0.33-10.053,0.661-15.078,0.992C185.972,123.264,185.961,125.765,187.571,125.659
				L187.571,125.659z"/>
		</g>
	</g>
	<g>
		<g>
			<path fill="#E4E4E4" d="M208.374,116.113c-0.086-0.245-0.014-0.024-0.063,0.082c0.106-0.227,0.035,0.018-0.128,0.023
				c-0.359-0.207-0.72-0.413-1.079-0.619c0.021,0.029,0.166,0.346,0.101,0.146c-0.073-0.222-0.044,0.305,0.002,0.084
				c-0.064,0.31,0.085-0.105-0.075,0.164c0.031-0.053-0.022-0.013-0.116,0.033c0.57,0.149,1.14,0.299,1.71,0.448
				c-0.125-0.199-0.133-0.238-0.115-0.537c-0.006,0.103,0.047-0.091,0.075-0.145c0.079-0.13,0.096-0.154,0.048-0.073
				c0.371-0.305,0.049-0.401-0.967-0.291c-0.104-0.148,0.092,0.262,0.097,0.279c0.041,0.14,0.048,0.235,0.017,0.366
				c0.037-0.155,0.3-0.104,0.397-0.088c0.115,0.033,0.204,0.096,0.266,0.19c-0.021,0.524,0.014,0.651,0.103,0.381
				c-0.612,0.249-1.224,0.498-1.836,0.747c0.411,0.221,0.822,0.442,1.233,0.664c1.419,0.765,2.682-1.394,1.262-2.158
				c-0.411-0.222-0.822-0.443-1.233-0.664c-0.773-0.417-1.527-0.009-1.836,0.747c-0.262,0.641-0.037,1.406,0.413,1.904
				c0.541,0.598,1.288,0.755,2.054,0.582c1.624-0.368,1.927-2.351,1.464-3.669c-0.232-0.663-0.67-1.235-1.383-1.406
				c-0.859-0.206-1.616,0.354-2.103,1.004c-0.73,0.979-0.76,2.404-0.113,3.429c0.385,0.611,1.08,0.752,1.71,0.448
				c1.361-0.656,1.883-2.616,0.985-3.846c-0.713-0.978-1.883-0.632-2.674,0.029c-0.66,0.552-0.902,1.621-0.625,2.412
				c0.225,0.642,0.847,1.063,1.537,0.873C208.124,117.479,208.6,116.756,208.374,116.113L208.374,116.113z"/>
		</g>
	</g>
	<g>
		<g>
			<path fill="#E4E4E4" d="M120.312,162.681c-2.783,4.645-6.21,8.497-10.461,11.83c-0.66,0.517-0.364,1.577,0.253,1.963
				c4.312,2.695,7.313,8.189,10.38,12.146c0.294-0.711,0.589-1.423,0.884-2.134c0.077,0.039,0.155,0.077,0.232,0.116
				c-1.131-1.151-2.898,0.617-1.768,1.768c0.487,0.495,0.835,0.659,1.536,0.616c1.167-0.072,1.55-1.274,0.884-2.134
				c-3.259-4.204-6.304-9.673-10.886-12.537c0.084,0.654,0.168,1.309,0.253,1.963c4.415-3.461,7.973-7.53,10.852-12.335
				C123.301,162.556,121.139,161.3,120.312,162.681L120.312,162.681z"/>
		</g>
	</g>
	<g>
		<g>
			<path fill="#E4E4E4" d="M102.088,174.473c0.008,0.001,0.017,0.002,0.025,0.003c0,0.222,0,0.443,0,0.665
				c-0.038,0.221-0.852-0.157-0.704,0.257c0.079,0.313,0.298,0.187,0.658-0.376c0.117,0.016,0.042,0.014-0.067-0.185
				c-0.026-0.081-0.049-0.163-0.071-0.245c-0.024-0.208-0.116,0.053-0.423,0.01c-0.221-0.117-0.245-0.071-0.07,0.137
				c0.095,0.169,0.133,0.357,0.179,0.543c0.051,0.209-0.016,0.403-0.157,0.553c-0.196,0.209-0.083-0.126,0.092,0.14
				c0.114,0.173-0.194,0.431-0.348,0.409c0.038-0.003,0.07,0.01,0.096,0.037c-0.365-0.323,0.246-0.972,0.61-0.715
				c-0.558-0.394-1.388-0.102-1.71,0.448c-0.367,0.626-0.107,1.318,0.448,1.71c1.647,1.162,3.762-0.96,2.817-2.659
				c-0.829-1.492-3.387-1.889-4.184-0.124c-0.77,1.705,0.69,3.53,2.505,3.255c2.054-0.312,2.728-2.644,2.033-4.359
				c-0.328-0.81-0.875-1.68-1.817-1.811c-0.957-0.133-1.761,0.307-2.271,1.11c-0.933,1.467,0.289,4.311,2.173,4.223
				c2.247-0.104,2.473-2.567,1.203-3.995c-1.488-1.673-4.255,0.279-3.176,2.229C100.71,177.146,102.87,175.885,102.088,174.473
				L102.088,174.473z"/>
		</g>
	</g>
	<g>
		<g>
			<path fill="#E4E4E4" d="M188.891,229.646c6.298,0.588,12.423,1.785,18.485,3.575c0.629,0.186,1.392-0.217,1.537-0.873
				c1.152-5.182,2.574-10.268,4.277-15.296c0.519-1.531-1.896-2.183-2.41-0.664c-1.703,5.028-3.126,10.113-4.277,15.296
				c0.513-0.291,1.024-0.582,1.537-0.873c-6.277-1.854-12.635-3.058-19.149-3.665C187.285,226.996,187.3,229.497,188.891,229.646
				L188.891,229.646z"/>
		</g>
	</g>
	<g>
		<g>
			<path fill="#E4E4E4" d="M211.042,241.329c0.545-0.274,0.8-0.764,0.996-1.314c0.148-0.419-0.108,0.147-0.359,0.085
				c-0.103-0.076-0.125-0.07-0.067,0.016c0.057,0.094,0.055,0.341,0.061,0.427c0.012,0.184,0.028,0.427-0.001,0.594
				c-0.111,0.636,0.711-0.774,1.013,0.122c-0.094-0.279-0.163-0.589-0.191-0.883c-0.026-0.136-0.013-0.266,0.04-0.39
				c-0.014,0.052-0.352,0.084,0.112-0.002c-0.471-0.191-0.94-0.383-1.411-0.574c0.237,0.403,0.532,0.826,0.54,1.309
				c0.002,0.087-0.053,0.153-0.108,0.212c0.242-0.252,0.734,0.029,0.615,0.346c-0.291,0.291-0.582,0.582-0.873,0.873
				c-0.035,0.002-0.071,0.003-0.106,0.004c-0.211-0.057-0.421-0.113-0.631-0.17c-0.092-0.28-0.183-0.56-0.273-0.839
				c0.106-0.185,0.214-0.368,0.321-0.552c-0.026,0.03-0.054,0.061-0.08,0.091c-1.062,1.204,0.7,2.979,1.768,1.768
				c0.976-1.106,0.238-2.728-1.218-2.804c-0.818-0.043-1.361,0.717-1.421,1.453c-0.06,0.734,0.336,1.382,0.909,1.81
				c1.142,0.851,2.607,0.276,3.257-0.878c0.729-1.293,0.144-2.723-0.541-3.884c-0.303-0.515-0.852-0.678-1.411-0.574
				c-0.85,0.156-1.459,0.786-1.78,1.56c-0.371,0.895-0.173,1.89,0.073,2.79c0.472,1.729,2.546,2.251,3.523,0.636
				c0.736-1.215,0.518-3.474-0.585-4.389c-0.662-0.551-1.707-0.808-2.495-0.348c-0.344,0.201-0.578,0.445-0.793,0.779
				c-0.113,0.177-0.176,0.398-0.246,0.595c-0.121,0.337-0.006,0.029,0.103-0.025C208.341,239.897,209.606,242.054,211.042,241.329
				L211.042,241.329z"/>
		</g>
	</g>
	<g>
		<g>
			<path fill="#E4E4E4" d="M137.01,215.197c0.013,3.932,0.025,7.864,0.038,11.796c0.007,2.197-0.799,5.614,0.655,7.465
				c1.193,1.518,6.271-1.229,7.563-1.623c4.401-1.343,8.898-2.346,13.421-3.173c1.584-0.289,0.911-2.698-0.665-2.41
				c-6.048,1.106-11.969,2.626-17.803,4.569c-0.218,0.357-0.436,0.714-0.653,1.07c-0.003-0.983-0.006-1.966-0.009-2.949
				c-0.004-1.475-0.009-2.949-0.014-4.424c-0.011-3.44-0.022-6.881-0.033-10.321C139.505,213.585,137.005,213.585,137.01,215.197
				L137.01,215.197z"/>
		</g>
	</g>
	<g>
		<g>
			<path fill="#E4E4E4" d="M134.573,241.124c0,0.147-0.116,0.265-0.223,0.343c0.126-0.069,0.131-0.076,0.015-0.02
				c0.306-0.109-0.19-0.016,0.136-0.015c-0.137-0.022-0.133-0.015,0.013,0.021c-0.062-0.008-0.117-0.03-0.165-0.068
				c-0.019-0.001-0.03-0.011-0.033-0.03c-0.036-0.104,0.009,0.242,0.008,0.267c-0.004,0.089-0.19,0.427-0.325,0.477
				c0.14,0.026,0.268,0.084,0.386,0.175c0.213,0.169,0.046-0.018,0.011-0.195c0.003,0.014,0.019-0.436,0.014-0.408
				c0.014-0.071,0.074-0.239,0.067-0.23c0.159-0.192,0.019,0.012-0.19-0.019c0.104,0.015,0.146,0.061,0.072-0.005
				c-0.047-0.053-0.081-0.113-0.101-0.182c-0.082-0.244,0.205-0.589-0.024-0.357c-0.107,0.108-0.266,0.192-0.4,0.272
				c-0.127,0.096-0.174,0.12-0.14,0.072c-0.395,0.146,0.185-0.277,0.492,0.493c0.037,0.092-0.043,0.41-0.046,0.411
				c0.218-0.065,0.548,0.016,0.77,0.039c0.679,0.071,1.25-0.622,1.25-1.25c0-0.735-0.573-1.179-1.25-1.25
				c-1.528-0.16-3.18,0.492-3.2,2.259c-0.01,0.856,0.642,1.512,1.41,1.762c0.748,0.244,1.63-0.137,2.242-0.545
				c0.6-0.399,1.199-0.941,1.326-1.688c0.143-0.845-0.206-1.585-0.898-2.074c-1.22-0.862-2.831-0.358-3.517,0.908
				c-0.597,1.101-0.602,3.406,0.717,4.043c1.637,0.791,3.133-0.396,3.696-1.918c0.504-1.363-0.24-3.138-1.732-3.423
				c-1.387-0.266-2.879,0.628-2.877,2.136C132.075,242.736,134.575,242.736,134.573,241.124L134.573,241.124z"/>
		</g>
	</g>
	<g>
		<g>
			<path fill="#E4E4E4" d="M229.09,189.874c2.167-3.11,4.559-5.923,7.255-8.578c0.905-0.892,3.368-2.288,3.368-3.857
				c0-2.135-2.671-4.223-3.798-5.776c-2.108-2.905-3.957-5.988-5.711-9.116c-0.788-1.406-2.947-0.146-2.158,1.262
				c2.392,4.267,5.014,8.404,8.041,12.252c1.274,1.62-7.781,10.579-9.155,12.553C226.008,189.938,228.176,191.187,229.09,189.874
				L229.09,189.874z"/>
		</g>
	</g>
	<g>
		<g>
			<path fill="#E4E4E4" d="M247.71,177.478c0.028,0.137-0.096,0.079,0.023,0.043c-0.471-0.191-0.94-0.383-1.411-0.574
				c-0.191-0.339,0.006-0.474,0.262-0.431c0.155,0.026,0.006,0.101-0.013-0.195c-0.033-0.524,0.755-0.882,1.131-1.068
				c-0.505-0.065-1.01-0.13-1.515-0.195c0.254,0.273,0.22,0.854-0.112,1.082c-0.296,0.203,0.088-0.364,0.281,0.285
				c-0.022-0.075,0.103-0.264,0.148-0.315c-0.021,0.023-0.014-0.014,0.057,0.003c-0.354-0.082-0.188-0.526,0.057-0.607
				c-1.524,0.501-0.871,2.917,0.664,2.411c1.988-0.654,2.059-3.368,0.119-4.145c-2.013-0.806-3.741,1.217-3.481,3.131
				c0.292,2.148,2.984,2.188,4.151,0.755c1.049-1.287,1.017-3.147-0.116-4.367c-0.399-0.431-1.021-0.44-1.515-0.195
				c-1.979,0.979-3.283,3.398-1.531,5.253c1.727,1.829,4.782-0.512,3.571-2.662c-0.27-0.479-0.883-0.732-1.411-0.575
				c-1.345,0.402-2.045,1.677-1.77,3.032C245.62,179.722,248.029,179.051,247.71,177.478L247.71,177.478z"/>
		</g>
	</g>
	<g>
		<g>
			<path fill="#E4E4E4" d="M139.579,175.265c0.28,0.883,0.56,1.767,0.839,2.651c0.484,1.531,2.898,0.877,2.411-0.664
				c-0.279-0.884-0.559-1.768-0.839-2.652C141.504,173.069,139.09,173.724,139.579,175.265L139.579,175.265z"/>
		</g>
	</g>
	<g>
		<g>
			<path fill="#E4E4E4" d="M155.126,148.463c0.928-0.901,2.015-1.541,3.255-1.912c1.541-0.461,0.884-2.874-0.665-2.411
				c-1.65,0.494-3.122,1.354-4.357,2.555C152.201,147.82,153.97,149.586,155.126,148.463L155.126,148.463z"/>
		</g>
	</g>
	<g>
		<g>
			<path fill="#E4E4E4" d="M187.047,144.914c1.892,1.541,3.653,3.217,5.288,5.027c1.082,1.199,2.845-0.575,1.768-1.768
				c-1.635-1.811-3.396-3.487-5.288-5.027C187.576,142.137,185.796,143.895,187.047,144.914L187.047,144.914z"/>
		</g>
	</g>
	<g>
		<g>
			<path fill="#E4E4E4" d="M207.975,173.403c0.134,1.469,0.16,2.936,0.078,4.408c-0.09,1.611,2.411,1.603,2.5,0
				c0.082-1.473,0.056-2.939-0.078-4.408C210.329,171.812,207.828,171.797,207.975,173.403L207.975,173.403z"/>
		</g>
	</g>
	<g>
		<g>
			<path fill="#E4E4E4" d="M188.878,208.352c1.616-0.153,3.121-0.596,4.539-1.395c1.404-0.79,0.145-2.95-1.262-2.158
				c-1.015,0.571-2.114,0.942-3.277,1.053c-0.678,0.064-1.25,0.52-1.25,1.25C187.628,207.734,188.198,208.416,188.878,208.352
				L188.878,208.352z"/>
		</g>
	</g>
</g>
</svg>
