<?xml version="1.0" encoding="utf-8"?>
<!-- Generator: Adobe Illustrator 16.0.0, SVG Export Plug-In . SVG Version: 6.00 Build 0)  -->
<!DOCTYPE svg PUBLIC "-//W3C//DTD SVG 1.1//EN" "http://www.w3.org/Graphics/SVG/1.1/DTD/svg11.dtd">
<svg version="1.1" id="Layer_1" xmlns="http://www.w3.org/2000/svg" xmlns:xlink="http://www.w3.org/1999/xlink" x="0px" y="0px"
	 width="350px" height="350px" viewBox="0 0 350 350" enable-background="new 0 0 350 350" xml:space="preserve">
<g>
	<path fill="#F1F1F1" d="M292.588,152.628c-2.585-4.478-7.414-7.15-12.921-7.15c-2.438,0-4.932,0.488-7.473,1.462
		c0.09-4.958-1.281-8.494-2.86-10.907c-2.339-3.57-6.025-5.885-10.101-6.414c0.6-1.43,0.968-2.984,1.062-4.614
		c0.277-4.917-2.06-9.717-6.414-13.172c-0.959-0.762-2.014-1.462-3.157-2.098c7.389-5.964,7.367-12.752,7.032-15.324
		c-0.908-6.969-6.892-12.223-13.917-12.223c-5.1,0-10.655,2.747-14.463,9.638c-5.069-6.282-10.675-7.197-13.502-7.197
		c-2.776,0-5.398,0.826-7.608,2.256c-0.698-2.253-1.952-4.321-3.668-5.975c-2.019-1.945-5.619-4.263-11.305-4.263
		c-1.418,0-2.881,0.147-4.383,0.441c0.822-4.091,0.666-8.348-1.369-12.269c-2.463-4.744-7.269-7.691-12.542-7.691
		c-5.274,0-10.08,2.947-12.543,7.691c-2.035,3.92-2.192,8.178-1.369,12.269c-1.502-0.293-2.963-0.441-4.382-0.441
		c-6.341,0-13.015,3.541-15.008,10.188c-2.199-1.408-4.799-2.219-7.55-2.219c-2.826,0-8.43,0.914-13.499,7.194
		c-3.808-6.895-9.364-9.642-14.466-9.642c-7.025,0-13.008,5.254-13.917,12.221c-0.336,2.572-0.358,9.358,7.03,15.324
		c-1.145,0.636-2.199,1.335-3.159,2.097c-4.355,3.455-6.694,8.255-6.416,13.171c0.092,1.629,0.46,3.182,1.059,4.614
		c-4.075,0.527-7.765,2.84-10.104,6.412c-1.581,2.411-2.951,5.946-2.862,10.905c-2.542-0.975-5.037-1.464-7.478-1.464
		c-8.301,0-14.802,6.231-14.802,14.186c0,4.008,1.736,7.85,4.763,10.543c2.157,1.917,6.028,4.205,12.229,4.205
		c0.148,0,0.297-0.002,0.447-0.003c-2.408,6.252-1.419,10.954-0.228,13.729c1.32,3.077,3.637,5.509,6.474,6.983
		c-1.593,1.732-2.765,3.885-3.336,6.316c-0.686,2.912-1.074,8.909,4.525,15.315c-1.98,0.684-3.755,1.567-5.318,2.649
		c-4.354,3.014-6.851,7.521-6.851,12.367c0,7.749,6.347,14.054,14.15,14.054c2.869,0,7.288-0.859,11.997-4.962
		c1.18,3.445,2.797,5.823,4.311,7.435c2.905,3.089,6.708,4.79,10.709,4.79c1.052,0,2.082-0.116,3.075-0.338
		c-0.01,0.218-0.014,0.437-0.014,0.657c0,6.535,4.69,13.511,14.875,15.117c-2.611,4.238-4.04,9.198-2.375,14.504
		c1.853,5.9,7.245,9.862,13.417,9.862c4.449,0,8.618-2.112,11.438-5.795c1.531-2.001,3.012-4.913,3.663-9.048
		c3.898,2.35,7.341,3.024,10.012,3.024c4.746,0,8.888-2.149,11.49-5.53c2.602,3.383,6.743,5.534,11.493,5.534
		c2.669,0,6.109-0.675,10.007-3.021c0.65,4.135,2.132,7.049,3.664,9.05c2.819,3.685,6.987,5.797,11.437,5.797
		c6.173,0,11.566-3.962,13.42-9.861c1.666-5.3,0.239-10.258-2.369-14.496c3.682-0.569,6.804-1.866,9.324-3.873
		c3.528-2.812,5.553-6.911,5.553-11.249c0-0.22-0.006-0.438-0.017-0.654c0.997,0.224,2.026,0.34,3.079,0.34
		c4.003,0,7.805-1.701,10.71-4.79c1.513-1.61,3.129-3.987,4.31-7.432c4.711,4.106,9.129,4.966,12,4.966
		c7.802,0,14.148-6.305,14.148-14.052c0-4.848-2.498-9.356-6.853-12.37c-1.563-1.081-3.335-1.965-5.313-2.648
		c5.601-6.404,5.214-12.403,4.528-15.315c-0.57-2.432-1.739-4.583-3.331-6.315c2.838-1.474,5.157-3.906,6.479-6.982
		c1.191-2.774,2.181-7.477-0.227-13.729c0.151,0.003,0.302,0.003,0.453,0.003c0,0,0.004,0,0.005,0c6.762,0,12.271-2.818,15.11-7.736
		C295.096,162.349,295.092,156.966,292.588,152.628z M171.696,176.314c0.707-0.506,1.374-1.067,1.996-1.675
		c0.433,0.034,0.869,0.049,1.308,0.049c0.438,0,0.873-0.016,1.305-0.049c0.623,0.61,1.291,1.168,1.998,1.679
		c0.086,0.865,0.236,1.724,0.451,2.568c-0.488,0.717-0.923,1.469-1.301,2.249c-0.841,0.235-1.661,0.534-2.455,0.892
		c-0.794-0.359-1.615-0.656-2.456-0.892c-0.377-0.781-0.812-1.534-1.3-2.251C171.458,178.042,171.609,177.183,171.696,176.314z
		 M244.457,138.147c-0.948,2.246-1.689,5.551-0.864,9.782c-1.385-1.97-3.302-3.978-5.953-5.851
		c-0.301-3.284-1.099-5.981-2.137-8.185C237.875,136.003,240.849,137.713,244.457,138.147z M112.367,142.059
		c-2.651,1.873-4.57,3.881-5.953,5.852c0.825-4.231,0.083-7.537-0.863-9.782c3.609-0.434,6.584-2.142,8.954-4.252
		C113.468,136.077,112.668,138.774,112.367,142.059z M96.824,191.203c1.396-1.778,2.787-4.369,3.355-7.971
		c0.625,2.328,1.741,4.872,3.594,7.543c-0.832,3.156-1.009,5.939-0.797,8.347c-1.869-3.384-4.346-5.632-6.965-6.971
		C96.294,191.85,96.565,191.533,96.824,191.203z M247.014,199.142c0.213-2.407,0.037-5.188-0.794-8.345
		c1.854-2.671,2.97-5.217,3.596-7.544c0.569,3.604,1.959,6.194,3.354,7.975c0.26,0.328,0.53,0.645,0.81,0.947
		C251.361,193.512,248.884,195.757,247.014,199.142z M128.505,233.62c1.395,2.958,3.05,5.207,4.764,6.917
		c-2.511-0.972-4.705-1.264-6.434-1.264c-1.161,0-2.287,0.128-3.362,0.372c0.209-3.621-1.001-6.868-2.691-9.578
		C122.776,231.482,125.304,232.749,128.505,233.62z M226.508,239.66c-1.077-0.244-2.205-0.373-3.368-0.373
		c-1.728,0-3.92,0.29-6.43,1.262c1.714-1.71,3.372-3.957,4.768-6.916c3.199-0.87,5.729-2.137,7.725-3.551
		C227.512,232.791,226.299,236.038,226.508,239.66z M208.302,110.987c-1.823-0.504-3.913-0.813-6.292-0.813
		c-0.745,0-1.504,0.031-2.275,0.093c-2.135-2.102-4.449-3.737-6.865-4.865c3.321,0.068,6.693-0.794,9.515-2.569
		C203.382,106.12,205.57,108.841,208.302,110.987z M147.629,102.842c2.822,1.77,6.191,2.624,9.509,2.559
		c-2.416,1.13-4.729,2.764-6.865,4.867c-0.775-0.063-1.537-0.097-2.284-0.097c-2.375,0-4.461,0.309-6.285,0.812
		C144.437,108.843,146.625,106.125,147.629,102.842z M174.987,258.427c-0.756-1.004-1.651-1.927-2.672-2.738
		c-1.571-1.253-3.377-2.228-5.406-2.92c2.665-0.234,5.367-0.979,8.079-2.225c2.711,1.247,5.415,1.992,8.078,2.225
		c-2.031,0.695-3.839,1.671-5.41,2.924C176.636,256.504,175.743,257.425,174.987,258.427z"/>
	<g>
		<path fill="#004E6F" d="M263.224,161.742c-0.077-0.29-0.174-0.576-0.277-0.859c1.416-2.488,3.089-5.145,5.085-7.995
			c-1.878,2.682-3.695,5.043-5.448,7.129c-0.171-0.356-0.357-0.706-0.568-1.045c13.585-31.174-22.808-26.884-8.136-4.922
			c-3.707-0.443-8.389,0.542-13.907,3.776c-0.31-4.04-3.021-8.414-9.303-11.726c0.276-7.097-2.154-11.632-5.496-13.922
			c5.562-3.161,8.756-6.721,10.229-10.151c11.673,23.692,33.597-5.67-0.19-9.506c-0.188-0.353-0.396-0.69-0.622-1.016
			c2.684-0.474,5.638-0.866,8.898-1.151c-3.467,0.302-6.604,0.422-9.466,0.401c-0.193-0.232-0.394-0.457-0.606-0.669
			c38.241-10.144,1.945-40.615-1.423-1.195c-0.246-0.172-0.503-0.331-0.765-0.481c-0.517-2.815-0.941-5.925-1.244-9.392
			c0.285,3.261,0.41,6.238,0.408,8.963c-0.36-0.166-0.729-0.313-1.109-0.436c-9.629-32.613-34.751-5.938-9.396,1.458
			c-3.124,2.043-6.077,5.808-8.227,11.836c-2.831-2.903-7.721-4.518-14.669-3.016c-4.355-5.619-9.141-7.526-13.173-7.122
			c2.229-6.001,2.386-10.782,1.307-14.356c24.175,10.638,22.086-25.946-6.257-7.159c-0.371-0.149-0.747-0.274-1.13-0.378
			c1.752-2.089,3.76-4.289,6.076-6.604c-2.46,2.46-4.786,4.569-6.992,6.395c-0.298-0.053-0.596-0.099-0.895-0.125
			c22.767-32.356-24.625-32.356-1.859,0c-0.3,0.026-0.598,0.07-0.895,0.125c-2.206-1.826-4.532-3.934-6.993-6.395
			c2.316,2.314,4.326,4.514,6.077,6.604c-0.382,0.104-0.759,0.229-1.129,0.378c-28.344-18.788-30.434,17.798-6.258,7.159
			c-1.078,3.572-0.922,8.354,1.307,14.351c-4.032-0.396-8.81,1.515-13.162,7.129c-6.941-1.504-11.83,0.104-14.664,2.998
			c-2.147-6.025-5.1-9.789-8.224-11.833c25.358-7.389,0.244-34.073-9.395-1.462c-0.379,0.123-0.749,0.271-1.108,0.436
			c-0.002-2.725,0.125-5.702,0.41-8.963c-0.304,3.467-0.73,6.576-1.247,9.392c-0.262,0.151-0.519,0.308-0.765,0.48
			c-3.358-39.42-39.663-8.96-1.424,1.195c-0.212,0.214-0.412,0.439-0.605,0.671c-2.863,0.02-6-0.102-9.466-0.404
			c3.262,0.285,6.215,0.678,8.899,1.152c-0.225,0.325-0.435,0.663-0.622,1.016c-33.789,3.827-11.874,33.196-0.192,9.506
			c1.471,3.43,4.664,6.992,10.225,10.153c-3.343,2.29-5.775,6.825-5.5,13.922c-6.285,3.311-8.996,7.684-9.307,11.722
			c-5.52-3.235-10.2-4.221-13.906-3.78c14.677-21.959-21.714-26.257-8.137,4.92c-0.211,0.337-0.399,0.687-0.568,1.045
			c-1.753-2.087-3.57-4.449-5.447-7.131c1.995,2.851,3.667,5.507,5.082,7.997c-0.104,0.283-0.198,0.569-0.277,0.859
			c-27.91-28.041-36.142,18.629-0.323,1.831c-0.025,0.3-0.034,0.601-0.033,0.903c-2.181,1.854-4.661,3.78-7.512,5.774
			c2.682-1.876,5.197-3.476,7.558-4.835c0.037,0.394,0.093,0.787,0.177,1.177c-23.425,24.649,12.241,33.063,5.963,7.406
			c3.332,1.684,8.067,2.358,14.359,1.206c-1.089,3.903-0.039,8.939,4.734,14.2c-2.686,6.575-1.952,11.669,0.406,14.962
			c-6.309,1.068-10.526,3.323-13.082,6.043c-2.872-26.255-33.512-6.157-3.073,8.998c0.056,0.396,0.138,0.784,0.238,1.167
			c-2.685-0.471-5.594-1.112-8.757-1.961c3.361,0.901,6.35,1.862,9.034,2.86c0.102,0.283,0.212,0.563,0.339,0.837
			c-39.404-3.543-15.712,37.503,0.93,1.609c0.173,0.246,0.36,0.481,0.554,0.714c-0.478,2.821-1.14,5.89-2.042,9.251
			c0.848-3.163,1.748-6.002,2.681-8.563c0.282,0.277,0.577,0.543,0.892,0.789c-2.101,33.939,30.629,17.459,9.329,1.84
			c3.634-0.853,7.695-3.378,11.775-8.307c1.673,3.69,5.716,6.874,12.753,7.836c2.168,6.763,6.004,10.194,9.928,11.201
			c-4.146,4.873-5.929,9.312-6.138,13.038c-19.076-18.269-29.63,16.823,3.431,8.869c0.296,0.267,0.609,0.511,0.932,0.739
			c-2.361,1.365-5.002,2.743-7.969,4.126c3.154-1.469,6.061-2.655,8.758-3.614c0.261,0.15,0.525,0.295,0.798,0.422
			c-32.463,22.616,12.069,38.829,1.747,0.636c0.292,0.077,0.587,0.139,0.884,0.189c1.448,2.471,2.913,5.247,4.382,8.401
			c-1.384-2.968-2.52-5.722-3.45-8.283c0.395,0.031,0.792,0.044,1.19,0.029c20.206,27.351,34.685-6.312,8.33-4.584
			c2.235-2.989,3.725-7.535,3.682-13.933c3.653,1.752,8.796,1.59,14.806-2.194c6.008,3.786,11.151,3.948,14.804,2.198
			c-0.044,6.397,1.442,10.943,3.678,13.934c-26.354-1.734-11.886,31.933,8.329,4.588c0.398,0.015,0.796,0.002,1.191-0.031
			c-0.932,2.562-2.07,5.315-3.453,8.283c1.471-3.154,2.937-5.931,4.385-8.399c0.297-0.053,0.592-0.112,0.884-0.189
			c-10.332,38.189,34.203,21.989,1.746-0.635c0.272-0.128,0.538-0.272,0.798-0.423c2.697,0.961,5.604,2.146,8.758,3.617
			c-2.968-1.384-5.609-2.762-7.969-4.127c0.323-0.23,0.636-0.475,0.933-0.741c33.06,7.965,22.515-27.131,3.434-8.867
			c-0.209-3.727-1.99-8.165-6.134-13.04c3.924-1.007,7.761-4.435,9.932-11.198c7.037-0.961,11.08-4.142,12.755-7.831
			c4.078,4.929,8.139,7.455,11.772,8.31c-21.304,15.612,11.42,32.102,9.329-1.838c0.314-0.246,0.611-0.512,0.893-0.789
			c0.934,2.562,1.833,5.401,2.68,8.564c-0.901-3.362-1.562-6.43-2.04-9.254c0.195-0.229,0.382-0.466,0.556-0.713
			c16.631,35.898,40.335-5.139,0.929-1.609c0.127-0.272,0.237-0.552,0.34-0.837c2.685-0.996,5.674-1.956,9.035-2.857
			c-3.163,0.848-6.073,1.488-8.758,1.96c0.101-0.384,0.183-0.771,0.237-1.167c30.444-15.146-0.189-35.256-3.068-8.999
			c-2.555-2.722-6.773-4.978-13.08-6.046c2.358-3.295,3.095-8.387,0.409-14.962c4.774-5.26,5.827-10.297,4.737-14.2
			c6.293,1.155,11.028,0.479,14.361-1.202c-6.285,25.655,29.382,17.251,5.964-7.405c0.085-0.39,0.141-0.782,0.178-1.177
			c2.359,1.362,4.874,2.961,7.556,4.839c-2.85-1.996-5.329-3.922-7.51-5.777c0.002-0.302-0.007-0.603-0.032-0.903
			C299.361,180.384,291.144,133.71,263.224,161.742z M209.341,138.146c-0.055,0.193-0.097,0.394-0.143,0.592
			c-0.255-0.007-0.499-0.021-0.75-0.03c0.005-0.114,0.009-0.233,0.016-0.346c-0.11,0.026-0.229,0.049-0.339,0.076
			c-0.053-0.251-0.109-0.494-0.162-0.749c0.189-0.079,0.382-0.156,0.563-0.244c-0.021,0.304-0.044,0.606-0.062,0.917
			C208.759,138.291,209.049,138.217,209.341,138.146z M175.541,125.434c0.083,0.183,0.179,0.366,0.273,0.548
			c-0.204,0.162-0.403,0.311-0.604,0.469c-0.069-0.091-0.144-0.185-0.211-0.276c-0.067,0.091-0.143,0.185-0.21,0.276
			c-0.2-0.157-0.394-0.301-0.595-0.46c0.094-0.181,0.189-0.362,0.272-0.543c0.177,0.242,0.352,0.483,0.533,0.728
			C175.184,125.926,175.361,125.682,175.541,125.434z M141.484,137.451c0.18,0.086,0.37,0.164,0.558,0.241
			c-0.051,0.251-0.106,0.489-0.159,0.736c-0.11-0.026-0.228-0.051-0.338-0.077c0.007,0.114,0.009,0.233,0.016,0.346
			c-0.253,0.009-0.496,0.022-0.751,0.03c-0.045-0.199-0.087-0.399-0.141-0.59c0.291,0.072,0.579,0.144,0.876,0.214
			C141.526,138.047,141.505,137.75,141.484,137.451z M126.437,167.154c3.34-1.905,6.73-5.505,9.694-11.374
			c3.602-5.502,5.025-10.237,5.004-14.082c0.062-0.246,0.121-0.494,0.182-0.745c-0.063,0.004-0.13,0.005-0.192,0.009
			c-0.008-0.141-0.024-0.276-0.036-0.415c0.104,0.021,0.199,0.046,0.303,0.068c-0.026,0.109-0.049,0.229-0.075,0.337
			c0.112-0.007,0.232-0.009,0.346-0.016c0.174,5.04,0.026,10.728-0.537,17.164c0.563-6.437,1.407-12.063,2.454-16.997
			c0.11,0.026,0.229,0.051,0.338,0.077c-0.007-0.112-0.009-0.233-0.016-0.346c5.04-0.176,10.729-0.028,17.163,0.536
			c-6.435-0.564-12.063-1.406-16.995-2.453c0.025-0.111,0.049-0.229,0.075-0.339c-0.112,0.007-0.232,0.009-0.346,0.016
			c-0.004-0.105-0.011-0.204-0.014-0.309c0.134,0.035,0.264,0.074,0.402,0.107c-0.015,0.06-0.028,0.125-0.042,0.187
			c0.258-0.016,0.513-0.032,0.766-0.049c3.783,0.687,8.693,0.109,14.737-2.483c6.295-1.899,10.43-4.613,12.885-7.57
			c0.206-0.151,0.411-0.3,0.618-0.455c-0.05-0.037-0.103-0.079-0.153-0.116c0.085-0.112,0.159-0.227,0.239-0.341
			c0.066,0.084,0.124,0.164,0.188,0.246c-0.09,0.068-0.185,0.144-0.275,0.211c0.09,0.067,0.185,0.142,0.275,0.211
			c-3.105,3.973-6.875,8.236-11.442,12.804c4.568-4.568,8.831-8.337,12.804-11.444c0.067,0.091,0.143,0.186,0.21,0.276
			c0.067-0.09,0.142-0.185,0.211-0.276c3.971,3.107,8.234,6.876,12.803,11.444c-4.569-4.568-8.338-8.832-11.444-12.804
			c0.092-0.069,0.186-0.144,0.276-0.211c-0.091-0.067-0.185-0.143-0.276-0.211c0.068-0.086,0.129-0.168,0.197-0.256
			c0.081,0.116,0.154,0.23,0.24,0.344c-0.053,0.039-0.108,0.084-0.161,0.123c0.219,0.162,0.435,0.32,0.651,0.478
			c2.454,2.948,6.582,5.653,12.858,7.549c6.025,2.583,10.925,3.166,14.702,2.486c0.268,0.018,0.534,0.037,0.805,0.053
			c-0.014-0.063-0.028-0.134-0.044-0.197c0.139-0.034,0.271-0.074,0.406-0.109c-0.004,0.109-0.013,0.213-0.016,0.322
			c-0.112-0.007-0.234-0.009-0.347-0.016c0.026,0.109,0.051,0.228,0.076,0.339c-4.933,1.045-10.561,1.885-16.996,2.448
			c6.436-0.563,12.123-0.707,17.164-0.531c-0.007,0.113-0.01,0.234-0.018,0.346c0.111-0.026,0.229-0.051,0.34-0.076
			c1.045,4.933,1.887,10.561,2.447,16.996c-0.561-6.435-0.706-12.125-0.53-17.164c0.112,0.007,0.233,0.011,0.346,0.018
			c-0.026-0.111-0.049-0.229-0.075-0.339c0.104-0.022,0.198-0.045,0.302-0.068c-0.011,0.139-0.028,0.274-0.035,0.417
			c-0.062-0.005-0.13-0.005-0.191-0.009c0.06,0.25,0.121,0.497,0.181,0.743c-0.021,3.847,1.4,8.582,5.001,14.085
			c2.963,5.869,6.351,9.471,9.691,11.376c0.183,0.176,0.367,0.353,0.555,0.531c0.026-0.057,0.06-0.116,0.088-0.171
			c0.127,0.063,0.251,0.118,0.376,0.176c-0.07,0.079-0.139,0.151-0.209,0.229c-0.082-0.077-0.174-0.156-0.255-0.233
			c-0.051,0.1-0.108,0.206-0.16,0.307c-4.45-2.37-9.304-5.343-14.595-9.049c5.291,3.706,9.744,7.252,13.492,10.625
			c-0.079,0.083-0.158,0.172-0.236,0.255c0.101,0.051,0.206,0.109,0.308,0.16c-2.368,4.451-5.342,9.302-9.049,14.593
			c3.707-5.291,7.252-9.742,10.625-13.49c0.083,0.077,0.174,0.158,0.255,0.235c0.051-0.102,0.109-0.208,0.16-0.31
			c0.093,0.051,0.181,0.093,0.275,0.144c-0.098,0.099-0.198,0.192-0.295,0.295c-0.044-0.044-0.095-0.088-0.141-0.13
			c-0.116,0.23-0.229,0.458-0.339,0.687c-2.488,2.931-4.444,7.473-5.223,14.003c-1.504,6.401-1.223,11.339,0.111,14.944
			c0.027,0.253,0.054,0.506,0.084,0.763c0.058-0.026,0.119-0.049,0.178-0.074c0.055,0.131,0.117,0.252,0.176,0.378
			c-0.105,0.015-0.204,0.024-0.31,0.039c-0.013-0.112-0.03-0.232-0.044-0.343c-0.104,0.044-0.216,0.088-0.319,0.132
			c-1.888-4.676-3.694-10.072-5.363-16.312c1.669,6.239,2.803,11.816,3.504,16.811c-0.112,0.013-0.232,0.031-0.343,0.044
			c0.044,0.104,0.088,0.216,0.132,0.319c-4.676,1.888-10.072,3.694-16.312,5.365c6.239-1.671,11.816-2.803,16.811-3.506
			c0.013,0.112,0.031,0.232,0.044,0.345c0.104-0.046,0.216-0.09,0.319-0.134c0.039,0.099,0.081,0.188,0.12,0.286
			c-0.139,0.013-0.274,0.02-0.415,0.037c-0.007-0.062-0.018-0.128-0.024-0.189c-0.237,0.102-0.471,0.203-0.703,0.308
			c-3.79,0.646-8.206,2.869-12.999,7.371c-5.269,3.938-8.226,7.9-9.522,11.52c-0.141,0.211-0.283,0.422-0.425,0.638
			c0.06,0.018,0.124,0.039,0.183,0.057c-0.041,0.136-0.072,0.269-0.107,0.402c-0.091-0.057-0.172-0.11-0.262-0.167
			c0.062-0.095,0.125-0.198,0.187-0.292c-0.107-0.031-0.222-0.07-0.331-0.104c1.561-4.795,3.646-10.09,6.377-15.944
			c-2.73,5.854-5.449,10.854-8.121,15.131c-0.095-0.062-0.197-0.125-0.292-0.187c-0.031,0.107-0.07,0.222-0.102,0.331
			c-4.796-1.561-10.092-3.646-15.945-6.377c5.854,2.73,10.853,5.449,15.13,8.12c-0.062,0.095-0.125,0.198-0.187,0.293
			c0.109,0.031,0.222,0.07,0.33,0.102c-0.031,0.103-0.06,0.195-0.093,0.298c-0.114-0.079-0.222-0.162-0.341-0.239
			c0.035-0.051,0.068-0.109,0.104-0.16c-0.248-0.073-0.492-0.146-0.736-0.216c-3.319-1.941-8.132-3.077-14.695-2.71
			c-6.565-0.369-11.379,0.767-14.699,2.704c-0.244,0.072-0.489,0.143-0.736,0.217c0.034,0.053,0.069,0.108,0.104,0.161
			c-0.119,0.077-0.228,0.158-0.342,0.237c-0.034-0.1-0.06-0.195-0.093-0.295c0.109-0.033,0.223-0.072,0.331-0.104
			c-0.062-0.095-0.125-0.197-0.187-0.292c4.278-2.671,9.279-5.388,15.133-8.116c-5.854,2.729-11.151,4.813-15.946,6.371
			c-0.033-0.108-0.071-0.223-0.104-0.33c-0.094,0.062-0.197,0.125-0.292,0.187c-2.671-4.277-5.387-9.278-8.116-15.133
			c2.729,5.854,4.813,11.15,6.372,15.946c-0.109,0.033-0.223,0.072-0.331,0.104c0.063,0.093,0.125,0.197,0.187,0.292
			c-0.089,0.056-0.171,0.11-0.262,0.167c-0.036-0.134-0.067-0.268-0.108-0.402c0.06-0.018,0.123-0.039,0.183-0.057
			c-0.142-0.216-0.284-0.427-0.425-0.638c-1.295-3.622-4.252-7.584-9.518-11.523c-4.792-4.502-9.208-6.727-12.998-7.375
			c-0.233-0.102-0.467-0.205-0.703-0.308c-0.007,0.062-0.018,0.129-0.024,0.19c-0.141-0.018-0.276-0.025-0.415-0.037
			c0.039-0.099,0.08-0.188,0.119-0.287c0.104,0.044,0.216,0.088,0.32,0.134c0.013-0.112,0.031-0.231,0.045-0.345
			c4.993,0.705,10.569,1.839,16.809,3.51c-6.24-1.671-11.635-3.479-16.311-5.368c0.045-0.104,0.089-0.216,0.134-0.32
			c-0.113-0.012-0.232-0.029-0.345-0.044c0.704-4.993,1.837-10.569,3.51-16.809c-1.673,6.239-3.48,11.634-5.368,16.31
			c-0.104-0.044-0.217-0.088-0.32-0.133c-0.013,0.112-0.032,0.231-0.045,0.344c-0.104-0.014-0.203-0.024-0.308-0.04
			c0.058-0.125,0.12-0.248,0.175-0.376c0.057,0.024,0.12,0.047,0.178,0.072c0.029-0.255,0.057-0.51,0.084-0.763
			c1.333-3.604,1.616-8.542,0.115-14.943c-0.776-6.529-2.73-11.072-5.218-14.004c-0.111-0.229-0.224-0.457-0.34-0.687
			c-0.045,0.042-0.096,0.086-0.141,0.128c-0.097-0.102-0.196-0.195-0.294-0.293c0.094-0.051,0.183-0.093,0.276-0.144
			c0.051,0.102,0.109,0.207,0.159,0.309c0.083-0.079,0.173-0.158,0.255-0.235c3.373,3.748,6.917,8.2,10.621,13.493
			c-3.705-5.293-6.676-10.146-9.045-14.597c0.101-0.051,0.208-0.109,0.308-0.16c-0.077-0.081-0.156-0.172-0.234-0.254
			c3.749-3.374,8.201-6.917,13.493-10.622c-5.292,3.706-10.145,6.677-14.597,9.046c-0.051-0.102-0.109-0.208-0.159-0.308
			c-0.082,0.077-0.173,0.156-0.256,0.233c-0.07-0.077-0.139-0.149-0.21-0.228c0.126-0.058,0.251-0.113,0.377-0.176
			c0.028,0.054,0.061,0.114,0.089,0.17C126.069,167.507,126.254,167.33,126.437,167.154z M192.792,227.135
			c-0.088,0.292-0.169,0.578-0.252,0.866c-0.14-0.143-0.291-0.279-0.44-0.418c0.134-0.218,0.267-0.422,0.4-0.636
			C192.595,227.01,192.697,227.071,192.792,227.135c0.031-0.108,0.07-0.223,0.104-0.33c0.239,0.077,0.473,0.147,0.715,0.229
			c-0.024,0.202-0.055,0.405-0.068,0.604C193.293,227.469,193.047,227.302,192.792,227.135z M157.443,227.996
			c-0.083-0.288-0.165-0.575-0.251-0.866c-0.255,0.167-0.501,0.335-0.75,0.502c-0.016-0.198-0.045-0.402-0.07-0.604
			c0.244-0.08,0.476-0.15,0.716-0.229c0.032,0.107,0.071,0.222,0.104,0.331c0.094-0.062,0.197-0.125,0.292-0.187
			c0.134,0.214,0.267,0.416,0.402,0.635C157.734,227.717,157.583,227.854,157.443,227.996z M123.118,168.532
			c0.192-0.051,0.388-0.114,0.582-0.174c0.123,0.225,0.232,0.441,0.351,0.664c-0.101,0.051-0.207,0.109-0.307,0.16
			c0.077,0.083,0.156,0.172,0.234,0.255c-0.188,0.168-0.365,0.335-0.557,0.506c-0.162-0.123-0.323-0.25-0.487-0.362
			c0.269-0.132,0.538-0.262,0.81-0.399C123.533,168.96,123.326,168.746,123.118,168.532z M129.025,204.146
			c0.116-0.163,0.224-0.337,0.335-0.508c0.237,0.096,0.461,0.19,0.696,0.285c-0.045,0.104-0.089,0.216-0.134,0.319
			c0.112,0.013,0.231,0.032,0.344,0.044c-0.035,0.252-0.064,0.492-0.101,0.745c-0.204,0.011-0.409,0.018-0.607,0.037
			c0.122-0.274,0.243-0.546,0.364-0.826C129.619,204.207,129.323,204.178,129.025,204.146z M219.825,205.044
			c-0.038-0.253-0.066-0.494-0.102-0.743c0.112-0.015,0.232-0.032,0.345-0.046c-0.046-0.102-0.09-0.214-0.134-0.319
			c0.233-0.096,0.457-0.19,0.696-0.285c0.108,0.172,0.218,0.347,0.333,0.508c-0.297,0.031-0.594,0.063-0.896,0.097
			c0.119,0.281,0.242,0.552,0.363,0.826C220.233,205.062,220.029,205.055,219.825,205.044z M226.578,169.957
			c-0.191-0.17-0.369-0.336-0.557-0.506c0.077-0.081,0.158-0.172,0.235-0.254c-0.101-0.049-0.207-0.107-0.308-0.158
			c0.118-0.223,0.229-0.441,0.35-0.666c0.195,0.06,0.391,0.125,0.584,0.174c-0.21,0.216-0.417,0.429-0.626,0.65
			c0.272,0.137,0.541,0.267,0.81,0.398C226.901,169.708,226.74,169.834,226.578,169.957z"/>
		<path fill="#004E6F" d="M127.379,169.823c6.883,7.274,12.991,11.497,18.177,13.588c-4.158,3.741-8.455,9.797-12.435,18.984
			c9.947,1.149,17.34,0.459,22.658-1.273c-0.783,5.538-0.181,12.939,2.675,22.537c8.359-5.514,13.579-10.796,16.54-15.54
			c2.96,4.746,8.179,10.028,16.534,15.545c2.859-9.598,3.464-16.998,2.684-22.535c5.316,1.732,12.709,2.425,22.658,1.279
			c-3.979-9.19-8.272-15.247-12.432-18.988c5.187-2.091,11.297-6.312,18.181-13.583c-8.954-4.482-16.138-6.363-21.727-6.556
			c2.63-4.936,4.597-12.097,5.195-22.091c-9.745,2.323-16.457,5.502-20.864,8.948c-1.158-5.474-4.256-12.225-10.225-20.269
			c-5.967,8.041-9.065,14.79-10.224,20.262c-4.405-3.447-11.116-6.625-20.856-8.949c0.598,9.995,2.562,17.155,5.191,22.093
			C143.519,163.466,136.335,165.344,127.379,169.823z M179.185,166.726c1.277,2.611,3.618,4.576,6.41,5.382
			c-0.698,2.822-0.169,5.83,1.451,8.243c-2.348,1.712-3.876,4.356-4.186,7.246c-2.899-0.198-5.769,0.846-7.864,2.861
			c-2.094-2.016-4.963-3.062-7.863-2.862c-0.308-2.891-1.835-5.535-4.184-7.249c1.622-2.412,2.151-5.42,1.454-8.241
			c2.792-0.807,5.132-2.769,6.411-5.38C173.472,167.905,176.526,167.905,179.185,166.726z"/>
	</g>
</g>
</svg>
