<?xml version="1.0" encoding="utf-8"?>
<!-- Generator: Adobe Illustrator 16.0.0, SVG Export Plug-In . SVG Version: 6.00 Build 0)  -->
<!DOCTYPE svg PUBLIC "-//W3C//DTD SVG 1.1//EN" "http://www.w3.org/Graphics/SVG/1.1/DTD/svg11.dtd">
<svg version="1.1" id="Layer_1" xmlns="http://www.w3.org/2000/svg" xmlns:xlink="http://www.w3.org/1999/xlink" x="0px" y="0px"
	 width="350px" height="350px" viewBox="0 0 350 350" enable-background="new 0 0 350 350" xml:space="preserve">
<path id="snowflake_15_" fill="#00AEEF" d="M282.528,217.93l-20.457,1.742l9.891-17.13l-7.771-4.487l-10.071,17.443l-11.939-6.893
	l14.101-24.42l-7.771-4.487l-14.1,24.42l-11.678-6.742l8.057-13.954l-7.772-4.487l-8.056,13.955l-12.682-7.322L208.381,175
	l-6.102-10.567l12.682-7.322l8.056,13.955l7.772-4.487l-8.057-13.955l11.678-6.742l14.1,24.42l7.771-4.487l-14.101-24.42
	l11.939-6.893l10.071,17.443l7.771-4.487l-9.891-17.13l20.457,1.742l12.318-26.265l-28.905-2.463l-8.718,18.588l-9.891-17.131
	l-7.771,4.487l10.07,17.443l-11.938,6.892l-14.1-24.421l-7.771,4.488l14.099,24.42l-11.678,6.743l-8.056-13.957l-7.771,4.488
	l8.057,13.955l-12.683,7.322l-5.983-10.364l-0.117-0.203h-12.203v-14.644h16.113v-8.975h-16.113V108.99h28.199v-8.974h-28.199
	V86.232h20.142v-8.975h-19.78l11.738-16.843L175,36.614l-16.587,23.8l11.739,16.843H150.37v8.975h20.144v13.784h-28.199v8.974
	h28.199v13.483h-16.114v8.975h16.114v14.644H158.31l-6.1,10.567l-12.684-7.322l8.057-13.955l-7.771-4.488l-8.057,13.957
	l-11.678-6.743l14.099-24.42l-7.771-4.488l-14.1,24.421l-11.938-6.892l10.071-17.443l-7.772-4.487l-9.891,17.131l-8.597-18.332
	l-0.121-0.256l-28.905,2.463l12.198,26.008l0.121,0.256l20.456-1.742l-9.891,17.13l7.771,4.487l10.07-17.443l11.939,6.893
	l-14.1,24.42l7.771,4.487l14.1-24.42l11.678,6.742l-8.057,13.955l7.772,4.487l8.057-13.955l12.681,7.322L141.619,175l6.102,10.567
	l-12.681,7.322l-8.057-13.955l-7.772,4.487l8.057,13.954l-11.678,6.742l-14.1-24.42l-7.771,4.487l14.1,24.42l-11.939,6.893
	l-10.07-17.443l-7.771,4.487l9.891,17.13l-20.456-1.742l-12.319,26.265l28.905,2.463l8.718-18.588l9.891,17.132l7.772-4.487
	l-10.071-17.443l11.938-6.892l14.1,24.421l7.771-4.488l-14.099-24.42l11.678-6.743l8.057,13.956l7.771-4.488l-8.057-13.954
	l12.684-7.322l5.983,10.364l0.116,0.203h12.204v14.644h-16.114v8.976h16.114v13.483h-28.199v8.974h28.199v13.784h-20.142v8.976
	h19.78l-11.739,16.843l16.587,23.8l16.587-23.8l-11.738-16.843h19.78v-8.976h-20.142v-13.784h28.199v-8.974h-28.199v-13.483h16.113
	v-8.976h-16.113v-14.644h12.203l6.101-10.567l12.683,7.322l-8.057,13.954l7.771,4.488l8.056-13.956l11.678,6.743l-14.099,24.42
	l7.771,4.488l14.1-24.421l11.938,6.892l-10.07,17.443l7.771,4.487l9.891-17.132l8.597,18.332l0.121,0.256l28.905-2.463
	l-12.198-26.009L282.528,217.93z M271.411,237.186l-4.195-8.944l9.844-0.84l4.193,8.942L271.411,237.186z M198.018,175
	l-11.51,19.933h-23.016L151.982,175l11.51-19.933h23.016L198.018,175z M281.253,113.656l-4.193,8.942l-9.844-0.839l4.195-8.945
	L281.253,113.656z M175,52.31l5.647,8.104L175,68.517l-5.647-8.103L175,52.31z M78.59,112.814l4.194,8.945l-9.844,0.839
	l-4.193-8.942L78.59,112.814z M68.747,236.344l4.193-8.942l9.844,0.84l-4.194,8.944L68.747,236.344z M175,297.689l-5.647-8.104
	l5.647-8.103l5.647,8.103L175,297.689z"/>
</svg>
