<?xml version="1.0" encoding="utf-8"?>
<!-- Generator: Adobe Illustrator 16.0.0, SVG Export Plug-In . SVG Version: 6.00 Build 0)  -->
<!DOCTYPE svg PUBLIC "-//W3C//DTD SVG 1.1 Tiny//EN" "http://www.w3.org/Graphics/SVG/1.1/DTD/svg11-tiny.dtd">
<svg version="1.1" baseProfile="tiny" id="Layer_1" xmlns="http://www.w3.org/2000/svg" xmlns:xlink="http://www.w3.org/1999/xlink"
	 x="0px" y="0px" width="350px" height="350px" viewBox="0 0 350 350" overflow="scroll" xml:space="preserve">
<g>
	<image width="116" height="34" xlink:href="8E6153D7.png"  transform="matrix(1 0 0 1 125 261)">
	</image>
	<image width="38" height="22" xlink:href="8E6153D5.png"  transform="matrix(1 0 0 1 133 74)">
	</image>
	<path fill="#3B3B1B" d="M182.434,274.797c0.105,0.323,0.3,0.621,0.573,0.821c0.064,0.046,0.083,0.105,0.075,0.166
		c1.299,1.227,3.272,1.604,4.658,2.729c1.585,1.285,2.021,3.298,3.294,4.832c2.195,2.654,5.427,3.827,8.778,4.156
		c3.941,0.386,8.211,0.326,12.085-0.502c1.744-0.372,3.8-1.012,4.895-2.535c0.987-1.37,1.28-3.076,0.964-4.726
		c0.03-0.248,0.026-0.517-0.034-0.811c-0.389-1.946-1.557-4.041-2.806-5.562c-1.44-1.758-3.275-3.332-5.277-4.42
		c-1.073-0.586-2.155-0.929-3.369-1.046c-1.207-0.115-2.505-0.132-3.646-0.581c-2.662-1.042-4.493-3.617-6.123-5.843
		c-0.878-1.196-1.371-2.366-1.445-3.863c-0.064-1.349-0.024-2.701,0.101-4.047c0.264-2.87,1.139-5.607,1.604-8.445
		c0.244-1.491,0.443-2.996,0.78-4.474c0.262-1.154,0.577-2.303,0.806-3.467c0.038,0,0.077-0.017,0.093-0.07
		c0.135-0.526,0.196-0.904-0.268-1.29c-0.451-0.375-1-0.693-1.555-0.939c0.002-0.008,0.005-0.014,0.005-0.021
		c0.027-0.123-0.134-0.147-0.185-0.051c-0.096-0.04-0.19-0.081-0.283-0.113c-1.658-0.599-3.465-0.73-5.218-0.637
		c-2.124,0.112-4.258,0.316-6.349,0.715c-0.812,0.153-2.057,0.348-2.214,1.334c-0.011,0.072,0.034,0.128,0.093,0.155
		c0.083,1.679,0.04,3.368,0.105,5.047c0.069,1.798,0.254,3.582,0.417,5.372c0.309,3.376,0.753,6.747,1.028,10.124
		c0.155,1.914-0.404,3.448-1.01,5.221c-0.429,1.263-0.538,2.594-0.541,3.921c-0.007,1.603,0.07,3.205,0.058,4.809
		c-0.064,0.021-0.116,0.075-0.11,0.151c0.023,0.2,0.062,0.382,0.107,0.559c0.003,1.096,0.106,2.246-0.086,3.328
		C182.435,274.796,182.435,274.796,182.434,274.797"/>
	<image width="36" height="19" xlink:href="8E6153DB.png"  transform="matrix(1 0 0 1 182 269)">
	</image>
	<image width="22" height="37" xlink:href="8E6153DD.png"  transform="matrix(1 0 0 1 182 234)">
	</image>
	<image width="36" height="54" xlink:href="8E6153DF.png"  transform="matrix(1 0 0 1 182 234)">
	</image>
	<path fill="#1C1B19" d="M198.232,271.064c0.375-1.471,1.12-3.017,2.078-4.2c0.241-0.3,0.731,0.013,0.567,0.361
		c-0.607,1.284-1.325,2.626-1.656,4.015C199.071,271.868,198.072,271.691,198.232,271.064"/>
	<path fill="#1C1B19" d="M196.139,267.582c0.266-1.133,0.527-2.448,1.314-3.339c0.143-0.161,0.482-0.049,0.413,0.192
		c-0.338,1.157-0.544,2.335-0.801,3.51c-0.111,0.504-0.205,1.01-0.284,1.519c-0.043,0.268,0.012,0.632-0.188,0.84
		c-0.154,0.153-0.339,0.198-0.542,0.12c-0.012-0.004-0.024-0.01-0.035-0.013c-0.158-0.062-0.284-0.246-0.29-0.412
		C195.697,269.193,195.954,268.358,196.139,267.582"/>
	<path fill="#1C1B19" d="M193.396,264.994c0.101-1.255,0.567-2.213,1.101-3.316c0.109-0.225,0.492-0.118,0.43,0.135
		c-0.257,1.011-0.462,1.932-0.559,2.974c-0.092,0.956,0.07,1.987-0.117,2.924c-0.079,0.406-0.679,0.486-0.819,0.077
		C193.135,266.934,193.325,265.884,193.396,264.994"/>
	<path fill="#1C1B19" d="M189.38,264.127c0.065-1.212,0.746-2.328,1.461-3.271c0.417-0.549,0.889-1.075,1.388-1.545
		c0.452-0.428,1.035-0.624,1.493-1.017c0.22-0.188,0.468,0.137,0.323,0.348c-0.265,0.377-0.665,0.595-0.99,0.921
		c-0.436,0.435-0.775,1.048-1.097,1.569c-0.619,1.001-1.366,1.976-1.434,3.197C190.484,265.077,189.34,264.864,189.38,264.127"/>
	<path fill="#1C1B19" d="M187.813,259.235c0.369-1.18,1.408-1.822,2.276-2.62c1.071-0.98,2.425-1.955,3.848-2.309
		c0.35-0.09,0.554,0.401,0.203,0.531c-1.234,0.465-2.153,1.375-3.099,2.259c-0.661,0.621-1.876,1.456-2.139,2.332
		C188.697,260.104,187.602,259.913,187.813,259.235"/>
	<path fill="#1C1B19" d="M187.674,255.392c0.255-1.13,1.636-2.14,2.392-2.89c1.175-1.164,2.683-1.844,4.248-2.285
		c0.251-0.07,0.441,0.243,0.219,0.411c-0.553,0.426-1.164,0.648-1.771,0.985c-0.844,0.467-1.637,1.21-2.295,1.903
		c-0.439,0.461-0.923,0.871-1.282,1.398c-0.222,0.329-0.432,0.71-0.749,0.958C188.104,256.133,187.58,255.802,187.674,255.392"/>
	<path fill="#1C1B19" d="M187.803,250.313c1.976-2.044,4.489-2.782,7.14-3.511c0.233-0.064,0.455,0.266,0.214,0.402
		c-0.995,0.553-2.099,0.826-3.104,1.367c-1.219,0.656-2.408,1.481-3.394,2.452C188.156,251.52,187.302,250.834,187.803,250.313"/>
	<path fill="#1C1B19" d="M190.099,245.165c1.585-0.991,3.521-1.377,5.339-1.653c0.23-0.036,0.367,0.311,0.161,0.432
		c-2.249,1.322-5.2,1.366-6.769,3.778c-0.233,0.358-0.793,0.117-0.829-0.258C187.91,246.479,189.395,245.605,190.099,245.165"/>
	<path fill="#1C1B19" d="M188.057,243.252c2.038-1.596,5.877-2.69,8.441-2.513c0.107,0.007,0.172,0.166,0.074,0.231
		c-0.993,0.665-2.171,0.881-3.306,1.214c-1.639,0.479-3.191,1.07-4.69,1.888C188.086,244.339,187.621,243.592,188.057,243.252"/>
	<path fill="#1C1B19" d="M195.748,269.964c-0.019-0.229,0.113-0.444,0.329-0.529c2.235-0.852,5.27-1.136,7.559-0.451
		c0.201,0.06,0.306,0.407,0.041,0.47c-1.492,0.367-3.157,0.232-4.694,0.364c-0.848,0.069-2.051,0.743-2.865,0.597
		c-0.191-0.033-0.351-0.201-0.366-0.399C195.748,269.999,195.748,269.982,195.748,269.964"/>
	<path fill="#1C1B19" d="M193.13,266.846c0.844-0.75,2.332-0.581,3.393-0.641c1.537-0.085,2.998,0.346,4.401,0.91
		c0.142,0.059,0.1,0.292-0.056,0.298c-1.231,0.048-2.499-0.255-3.762-0.235c-1.251,0.019-2.45,0.379-3.68,0.471
		C192.959,267.683,192.814,267.127,193.13,266.846"/>
	<path fill="#1C1B19" d="M189.622,263.767c0.9-0.632,2.563-0.444,3.609-0.435c1.775,0.016,3.272,0.394,4.804,1.304
		c0.203,0.121,0.129,0.474-0.132,0.416c-1.375-0.296-2.597-0.687-4.021-0.688c-0.88,0-2.851-0.19-3.598,0.327
		C189.679,265.107,189.021,264.187,189.622,263.767"/>
	<path fill="#1C1B19" d="M188.369,259.34c1.291,0.156,2.354,0.159,3.578,0.687c1.321,0.569,2.176,1.086,3.271,2.014
		c0.203,0.173-0.006,0.443-0.233,0.366c-1.061-0.344-1.999-0.967-3.074-1.317c-1.295-0.424-2.401-0.518-3.733-0.673
		C187.478,260.336,187.671,259.255,188.369,259.34"/>
	<path fill="#1C1B19" d="M187.034,254.992c0.013-0.042,0.024-0.083,0.038-0.125c0.062-0.18,0.278-0.301,0.459-0.321
		c1.043-0.102,2.036,0.586,2.953,0.993c0.719,0.315,1.394,0.703,2.043,1.143c0.637,0.432,0.961,1.213,1.628,1.59
		c0.169,0.094,0.166,0.426-0.074,0.416c-0.373-0.009-0.593-0.123-0.895-0.349c-0.771-0.578-1.388-1.124-2.295-1.542
		c-0.677-0.311-1.392-0.529-2.074-0.832c-0.538-0.238-1.042-0.21-1.567-0.381C186.999,255.504,186.967,255.198,187.034,254.992"/>
	<path fill="#1C1B19" d="M187.152,250.609c0.002-0.003,0.002-0.003,0.004-0.007c0.05-0.148,0.226-0.247,0.373-0.261
		c1.114-0.104,2.165,0.533,3.121,1.025c1.436,0.742,2.773,1.888,3.698,3.207c0.144,0.201-0.11,0.396-0.295,0.276
		c-1.178-0.771-2.235-1.688-3.475-2.374c-0.555-0.304-1.128-0.595-1.709-0.853c-0.474-0.209-1.03-0.162-1.488-0.39
		C187.134,251.111,187.066,250.855,187.152,250.609"/>
	<path fill="#1C1B19" d="M188.427,247.028c2.631,0.329,4.647,2.111,6.396,3.935c0.182,0.186,0.003,0.563-0.265,0.415
		c-1.174-0.656-2.238-1.519-3.422-2.174c-0.678-0.38-1.392-0.659-2.152-0.838c-0.441-0.104-0.769-0.209-1.029-0.591
		C187.709,247.421,188.014,246.977,188.427,247.028"/>
	<path fill="#1C1B19" d="M187.907,243.842c0.372-0.145,0.717-0.008,1.095,0.067c0.861,0.17,1.807,0.471,2.599,0.855
		c1.364,0.656,2.881,1.408,3.498,2.876c0.048,0.12-0.094,0.269-0.215,0.198c-1.24-0.734-2.437-1.47-3.757-2.062
		c-0.981-0.445-2.503-0.449-3.361-1.09C187.462,244.46,187.575,243.971,187.907,243.842"/>
	<path fill="#1C1B19" d="M188.938,240.369c0.458,0.233,1.006,0.359,1.491,0.541c0.787,0.297,1.5,0.895,2.204,1.338
		c1.132,0.71,2.165,1.459,2.797,2.659c0.097,0.183-0.18,0.364-0.321,0.229c-1.053-0.99-2.299-1.648-3.526-2.387
		c-0.643-0.387-1.242-0.774-1.949-1.043c-0.428-0.165-0.867-0.208-1.206-0.531C188.046,240.813,188.427,240.112,188.938,240.369"/>
	<path fill="#3B3B1B" d="M180.744,275.161c-0.09,0.328-0.268,0.635-0.535,0.848c-0.062,0.051-0.077,0.112-0.064,0.17
		c-1.239,1.287-3.195,1.759-4.526,2.944c-1.521,1.362-1.864,3.392-3.061,4.985c-2.071,2.753-5.241,4.077-8.574,4.564
		c-3.917,0.573-8.185,0.712-12.095,0.07c-1.759-0.29-3.842-0.831-5.008-2.301c-1.05-1.322-1.425-3.012-1.186-4.675
		c-0.043-0.246-0.051-0.517-0.005-0.813c0.296-1.961,1.365-4.11,2.54-5.688c1.355-1.823,3.116-3.483,5.063-4.666
		c1.044-0.637,2.11-1.028,3.318-1.202c1.198-0.171,2.494-0.25,3.613-0.752c2.608-1.166,4.316-3.826,5.84-6.127
		c0.82-1.236,1.257-2.426,1.261-3.927c0.001-1.35-0.104-2.699-0.292-4.037c-0.399-2.853-1.404-5.548-2.001-8.359
		c-0.314-1.479-0.585-2.974-0.99-4.434c-0.317-1.14-0.685-2.271-0.972-3.422c-0.036,0.001-0.075-0.016-0.092-0.068
		c-0.162-0.518-0.241-0.895,0.205-1.302c0.433-0.396,0.966-0.739,1.508-1.01c-0.002-0.008-0.003-0.014-0.005-0.023
		c-0.033-0.12,0.125-0.153,0.182-0.059c0.091-0.044,0.186-0.091,0.276-0.127c1.629-0.675,3.427-0.894,5.183-0.883
		c2.126,0.011,4.268,0.115,6.375,0.415c0.819,0.114,2.074,0.249,2.273,1.227c0.016,0.072-0.024,0.131-0.083,0.163
		c-0.003,1.679,0.118,3.364,0.133,5.046c0.015,1.797-0.085,3.588-0.163,5.385c-0.151,3.385-0.434,6.773-0.551,10.16
		c-0.062,1.92,0.569,3.425,1.255,5.167c0.488,1.242,0.662,2.567,0.729,3.893c0.08,1.601,0.079,3.203,0.168,4.804
		c0.064,0.019,0.12,0.071,0.115,0.146c-0.011,0.201-0.041,0.386-0.078,0.563c0.049,1.094-0.002,2.248,0.243,3.319
		C180.744,275.16,180.744,275.16,180.744,275.161"/>
	<image width="36" height="20" xlink:href="8E6153DC.png"  transform="matrix(1 0 0 1 145 270)">
	</image>
	<image width="21" height="39" xlink:href="8E6153D4.png"  transform="matrix(1 0 0 1 159 234)">
	</image>
	<image width="36" height="56" xlink:href="8E6153D6.png"  transform="matrix(1 0 0 1 145 234)">
	</image>
	<path fill="#1C1B19" d="M164.788,272.181c-0.444-1.453-1.261-2.959-2.274-4.096c-0.257-0.29-0.731,0.046-0.549,0.385
		c0.667,1.256,1.446,2.56,1.843,3.933C163.986,273.023,164.977,272.797,164.788,272.181"/>
	<path fill="#1C1B19" d="M166.715,268.604c-0.32-1.119-0.643-2.422-1.471-3.273c-0.15-0.155-0.485-0.024-0.404,0.213
		c0.392,1.139,0.655,2.304,0.966,3.466c0.134,0.498,0.252,1,0.356,1.504c0.055,0.265,0.015,0.633,0.227,0.83
		c0.161,0.146,0.347,0.182,0.547,0.094c0.011-0.003,0.023-0.009,0.034-0.014c0.152-0.069,0.271-0.259,0.269-0.426
		C167.231,270.192,166.936,269.37,166.715,268.604"/>
	<path fill="#1C1B19" d="M169.331,265.887c-0.158-1.248-0.67-2.183-1.256-3.259c-0.118-0.22-0.496-0.097-0.421,0.155
		c0.305,0.996,0.551,1.906,0.7,2.942c0.135,0.953,0.02,1.989,0.253,2.916c0.098,0.401,0.701,0.452,0.822,0.037
		C169.683,267.813,169.444,266.772,169.331,265.887"/>
	<path fill="#1C1B19" d="M173.3,264.832c-0.12-1.207-0.853-2.29-1.612-3.199c-0.442-0.528-0.938-1.033-1.46-1.477
		c-0.471-0.404-1.063-0.574-1.54-0.946c-0.227-0.177-0.459,0.162-0.303,0.363c0.278,0.362,0.691,0.563,1.03,0.873
		c0.455,0.413,0.823,1.012,1.17,1.515c0.666,0.971,1.458,1.909,1.583,3.13C172.245,265.831,173.377,265.567,173.3,264.832"/>
	<path fill="#1C1B19" d="M174.636,259.871c-0.423-1.16-1.491-1.754-2.398-2.509c-1.116-0.929-2.514-1.839-3.953-2.126
		c-0.353-0.07-0.535,0.429-0.176,0.543c1.254,0.404,2.216,1.271,3.2,2.109c0.689,0.588,1.942,1.366,2.249,2.229
		C173.792,260.781,174.877,260.538,174.636,259.871"/>
	<path fill="#1C1B19" d="M174.595,256.026c-0.31-1.119-1.739-2.062-2.527-2.774c-1.229-1.107-2.766-1.716-4.352-2.08
		c-0.255-0.061-0.428,0.263-0.2,0.42c0.572,0.399,1.195,0.593,1.816,0.902c0.867,0.426,1.693,1.13,2.384,1.791
		c0.459,0.439,0.961,0.827,1.346,1.334c0.238,0.319,0.466,0.693,0.794,0.924C174.199,256.786,174.706,256.433,174.595,256.026"/>
	<path fill="#1C1B19" d="M174.224,250.96c-2.07-1.949-4.617-2.569-7.296-3.17c-0.236-0.053-0.444,0.287-0.195,0.412
		c1.02,0.505,2.134,0.727,3.165,1.22c1.247,0.599,2.477,1.367,3.507,2.288C173.931,252.182,174.75,251.456,174.224,250.96"/>
	<path fill="#1C1B19" d="M171.688,245.925c-1.63-0.916-3.583-1.208-5.412-1.398c-0.231-0.025-0.351,0.327-0.14,0.439
		c2.309,1.214,5.259,1.119,6.939,3.452c0.249,0.35,0.799,0.079,0.818-0.296C173.935,247.133,172.413,246.331,171.688,245.925"/>
	<path fill="#1C1B19" d="M173.639,243.917c-2.112-1.497-6-2.407-8.552-2.11c-0.107,0.011-0.164,0.175-0.062,0.235
		c1.02,0.616,2.209,0.776,3.357,1.056c1.66,0.403,3.238,0.918,4.775,1.663C173.66,245.004,174.087,244.235,173.639,243.917"/>
	<path fill="#1C1B19" d="M167.217,270.965c0.008-0.23-0.134-0.441-0.356-0.514c-2.271-0.746-5.316-0.886-7.569-0.096
		c-0.199,0.069-0.287,0.422-0.021,0.471c1.511,0.298,3.166,0.086,4.708,0.145c0.85,0.029,2.082,0.643,2.89,0.461
		c0.189-0.044,0.343-0.22,0.349-0.418C167.217,270.998,167.217,270.981,167.217,270.965"/>
	<path fill="#1C1B19" d="M169.685,267.726c-0.879-0.709-2.358-0.471-3.42-0.479c-1.541-0.013-2.98,0.487-4.352,1.116
		c-0.141,0.064-0.087,0.296,0.067,0.296c1.232-0.011,2.485-0.373,3.748-0.413c1.249-0.042,2.467,0.263,3.696,0.295
		C169.896,268.553,170.014,267.993,169.685,267.726"/>
	<path fill="#1C1B19" d="M173.042,264.483c-0.93-0.589-2.582-0.321-3.625-0.265c-1.774,0.102-3.25,0.548-4.737,1.529
		c-0.197,0.131-0.106,0.48,0.15,0.411c1.358-0.361,2.563-0.809,3.986-0.878c0.878-0.042,2.837-0.326,3.609,0.156
		C173.048,265.827,173.664,264.875,173.042,264.483"/>
	<path fill="#1C1B19" d="M174.086,260.004c-1.282,0.215-2.345,0.271-3.542,0.854c-1.292,0.629-2.122,1.187-3.172,2.166
		c-0.195,0.18,0.028,0.441,0.25,0.354c1.043-0.396,1.95-1.06,3.008-1.46c1.273-0.486,2.372-0.632,3.697-0.851
		C175.022,260.955,174.78,259.885,174.086,260.004"/>
	<path fill="#1C1B19" d="M175.214,255.596c-0.014-0.041-0.029-0.081-0.045-0.121c-0.07-0.179-0.292-0.289-0.473-0.298
		c-1.047-0.054-2.007,0.679-2.903,1.128c-0.704,0.351-1.36,0.771-1.987,1.239c-0.616,0.46-0.903,1.255-1.552,1.665
		c-0.164,0.102-0.146,0.432,0.095,0.412c0.373-0.028,0.586-0.151,0.876-0.391c0.745-0.612,1.333-1.188,2.22-1.648
		c0.661-0.343,1.365-0.595,2.033-0.929c0.525-0.263,1.03-0.26,1.548-0.454C175.273,256.106,175.292,255.801,175.214,255.596"/>
	<path fill="#1C1B19" d="M174.887,251.224c0-0.003,0-0.003-0.003-0.006c-0.059-0.145-0.235-0.236-0.385-0.244
		c-1.119-0.051-2.137,0.637-3.07,1.173c-1.4,0.809-2.681,2.017-3.542,3.377c-0.132,0.21,0.129,0.393,0.307,0.262
		c1.142-0.824,2.154-1.791,3.359-2.532c0.541-0.332,1.099-0.648,1.667-0.933c0.462-0.233,1.021-0.212,1.469-0.46
		C174.93,251.726,174.987,251.466,174.887,251.224"/>
	<path fill="#1C1B19" d="M173.445,247.707c-2.611,0.453-4.54,2.329-6.201,4.231c-0.171,0.195,0.024,0.564,0.284,0.403
		c1.141-0.712,2.165-1.623,3.315-2.334c0.661-0.41,1.36-0.726,2.109-0.938c0.438-0.125,0.761-0.246,1.004-0.638
		C174.183,248.064,173.857,247.636,173.445,247.707"/>
	<path fill="#1C1B19" d="M173.814,244.5c-0.378-0.128-0.716,0.026-1.09,0.118c-0.85,0.211-1.782,0.558-2.555,0.978
		c-1.331,0.722-2.812,1.542-3.357,3.038c-0.042,0.123,0.105,0.265,0.224,0.188c1.204-0.793,2.364-1.583,3.655-2.238
		c0.96-0.49,2.479-0.565,3.306-1.246C174.291,245.095,174.152,244.613,173.814,244.5"/>
	<path fill="#1C1B19" d="M172.622,241.081c-0.446,0.254-0.989,0.405-1.464,0.61c-0.772,0.332-1.456,0.965-2.138,1.438
		c-1.098,0.765-2.092,1.561-2.669,2.789c-0.087,0.188,0.197,0.356,0.331,0.215c1.006-1.039,2.218-1.755,3.411-2.55
		c0.626-0.419,1.205-0.834,1.897-1.135c0.419-0.185,0.856-0.249,1.179-0.587C173.533,241.482,173.119,240.8,172.622,241.081"/>
	<path fill="#FFD7BB" d="M196.798,116.158c-0.011,0.007-0.021,0.021-0.032,0.028c-0.955-0.822-1.909-1.639-2.91-2.408
		c-1.14-0.883-2.996-1.732-3.097-3.304c-0.081-1.304-0.151-2.599-0.188-3.903c-0.018-0.605-0.072-1.213-0.05-1.822
		c0.01-0.252,0.034-0.509-0.084-0.736c-0.083-1.008-2.165-0.447-2.738-0.376c-1.414,0.172-2.875,0.13-4.295,0.213
		c-1.537,0.088-3.071,0.267-4.599,0.438c-3.02,0.339-5.999,0.97-9.013,1.36c-1.473,0.19-2.941,0.274-4.422,0.335
		c-0.899,0.038-2.245-0.168-3.1,0.241c-0.28-0.043-0.453,0.401-0.174,0.538c-0.128-0.063-0.049,0.811-0.052,0.764
		c0.046,0.57,0.047,1.147,0.052,1.722c0.006,1.253,0.063,2.506,0.006,3.759c-0.042,0.963-2.034,1.233-2.71,1.561
		c-1.032,0.503-2.003,1.113-3.02,1.641c-0.041-0.042-0.084-0.078-0.124-0.118c-0.11-0.108-0.315,0.036-0.219,0.169
		c1.167,1.634,2.701,3.004,4.194,4.335c1.694,1.512,3.379,3.033,5.13,4.479c1.705,1.408,3.468,2.747,5.286,4.005
		c1.54,1.065,3.229,2.421,5.196,2.369c1.85-0.049,3.707-1.267,5.223-2.206c2.017-1.248,3.998-2.557,5.939-3.922
		c1.871-1.317,3.687-2.712,5.462-4.156c0.829-0.676,1.61-1.402,2.36-2.16c0.803-0.815,1.414-1.805,2.235-2.586
		C197.227,116.252,196.975,116.01,196.798,116.158"/>
	<path fill="#DD9F80" d="M196.798,116.158c-0.011,0.009-0.021,0.021-0.032,0.028c-0.953-0.822-1.909-1.639-2.91-2.408
		c-1.14-0.883-2.996-1.731-3.097-3.304c-0.081-1.304-0.151-2.599-0.188-3.903c-0.019-0.605-0.071-1.213-0.05-1.822
		c0.01-0.253,0.034-0.509-0.084-0.736c-0.085-1.008-2.165-0.447-2.739-0.376c-1.413,0.172-2.87,0.13-4.294,0.213
		c-1.534,0.088-3.071,0.267-4.6,0.438c-3.019,0.338-5.998,0.97-9.013,1.36c-1.474,0.19-2.938,0.274-4.422,0.335
		c-0.898,0.038-2.244-0.166-3.099,0.241c-0.28-0.043-0.454,0.401-0.174,0.538c-0.128-0.063-0.049,0.811-0.052,0.764
		c0.045,0.57,0.047,1.147,0.052,1.722c0.006,1.253,0.063,2.506,0.006,3.759c-0.043,0.963-2.034,1.233-2.711,1.563
		c-1.031,0.501-2.002,1.111-3.019,1.639c-0.04-0.04-0.083-0.078-0.125-0.118c-0.11-0.108-0.314,0.036-0.218,0.169
		c1.166,1.634,2.701,3.004,4.193,4.335c1.696,1.512,3.38,3.033,5.131,4.479c1.705,1.408,3.468,2.747,5.288,4.005
		c1.54,1.063,3.23,2.423,5.195,2.369c1.853-0.049,3.707-1.267,5.223-2.206c2.017-1.248,3.998-2.557,5.939-3.922
		c1.873-1.317,3.687-2.712,5.464-4.155c0.827-0.677,1.608-1.403,2.358-2.161c0.803-0.813,1.414-1.805,2.235-2.586
		C197.227,116.252,196.975,116.01,196.798,116.158 M194.959,118.137c-0.748,0.761-1.545,1.473-2.351,2.169
		c-1.679,1.451-3.478,2.777-5.282,4.067c-1.755,1.258-3.557,2.449-5.377,3.609c-1.739,1.107-3.496,2.292-5.525,2.781
		c-2.13,0.511-4.156-1.27-5.792-2.399c-1.779-1.228-3.488-2.556-5.16-3.927c-3.134-2.563-6.102-5.315-9.001-8.136
		c1.343-0.534,2.615-1.227,4.001-1.652c0.689-0.209,2.026-0.493,2.142-1.385c0.202-1.536,0.052-3.159,0.04-4.707
		c-0.007-0.632-0.036-1.264-0.033-1.897c0-0.049-0.009-0.092-0.016-0.134c0.446-0.038,0.925,0.034,1.355,0.031
		c0.584,0,1.17-0.018,1.754-0.023c1.241-0.016,2.471-0.107,3.704-0.243c2.533-0.274,5.037-0.761,7.553-1.138
		c0.984-0.145,12.837-1.246,12.914-0.988c0.003,0.005,0.006,0.013,0.009,0.019c0.006,0.06,0.029,0.106,0.059,0.146
		c0.145,0.379,0.006,1.243,0.019,1.58c0.027,0.696,0.037,1.39,0.056,2.083c0.021,0.721,0.081,1.443,0.146,2.161
		c0.042,0.437-0.029,1.064,0.214,1.456c0.528,0.852,1.489,1.359,2.312,1.893c1.354,0.879,2.685,1.802,3.976,2.771
		C196.043,116.836,195.553,117.533,194.959,118.137"/>
	<path fill="#DD9F80" d="M196.798,116.158c-0.011,0.009-0.021,0.021-0.032,0.028c-0.953-0.822-1.909-1.639-2.91-2.408
		c-1.14-0.883-2.996-1.731-3.097-3.304c-0.081-1.304-0.151-2.599-0.188-3.903c-0.019-0.605-0.071-1.213-0.05-1.822
		c0.01-0.253,0.034-0.509-0.084-0.736c-0.085-1.008-2.165-0.447-2.739-0.376c-1.413,0.172-2.87,0.13-4.294,0.213
		c-1.534,0.088-3.071,0.267-4.6,0.438c-3.019,0.338-5.998,0.97-9.013,1.36c-1.474,0.19-2.938,0.274-4.422,0.335
		c-0.898,0.038-2.244-0.166-3.099,0.241c-0.28-0.043-0.454,0.401-0.174,0.538c-0.128-0.063-0.049,0.811-0.052,0.764
		c0.045,0.57,0.047,1.147,0.052,1.722c0.006,1.253,0.063,2.506,0.006,3.759c-0.043,0.963-2.034,1.233-2.711,1.563
		c-1.031,0.501-2.002,1.111-3.019,1.639c-0.04-0.04-0.083-0.078-0.125-0.118c-0.11-0.108-0.314,0.036-0.218,0.169
		c1.166,1.634,2.701,3.004,4.193,4.335c1.696,1.512,3.38,3.033,5.131,4.479c1.705,1.408,3.468,2.747,5.288,4.005
		c1.54,1.063,3.23,2.423,5.195,2.369c1.853-0.049,3.707-1.267,5.223-2.206c2.017-1.248,3.998-2.557,5.939-3.922
		c1.873-1.317,3.687-2.712,5.464-4.155c0.827-0.677,1.608-1.403,2.358-2.161c0.803-0.813,1.414-1.805,2.235-2.586
		C197.227,116.252,196.975,116.01,196.798,116.158 M194.959,118.137c-0.748,0.761-1.545,1.473-2.351,2.169
		c-1.679,1.451-3.478,2.777-5.282,4.067c-1.755,1.258-3.557,2.449-5.377,3.609c-1.739,1.107-3.496,2.292-5.525,2.781
		c-2.13,0.511-4.156-1.27-5.792-2.399c-1.779-1.228-3.488-2.556-5.16-3.927c-3.134-2.563-6.102-5.315-9.001-8.136
		c1.343-0.534,2.615-1.227,4.001-1.652c0.689-0.209,2.026-0.493,2.142-1.385c0.202-1.536,0.052-3.159,0.04-4.707
		c-0.007-0.632-0.036-1.264-0.033-1.897c0-0.049-0.009-0.092-0.016-0.134c0.446-0.038,0.925,0.034,1.355,0.031
		c0.584,0,1.17-0.018,1.754-0.023c1.241-0.016,2.471-0.107,3.704-0.243c2.533-0.274,5.037-0.761,7.553-1.138
		c0.984-0.145,12.837-1.246,12.914-0.988c0.003,0.005,0.006,0.013,0.009,0.019c0.006,0.06,0.029,0.106,0.059,0.146
		c0.145,0.379,0.006,1.243,0.019,1.58c0.027,0.696,0.037,1.39,0.056,2.083c0.021,0.721,0.081,1.443,0.146,2.161
		c0.042,0.437-0.029,1.064,0.214,1.456c0.528,0.852,1.489,1.359,2.312,1.893c1.354,0.879,2.685,1.802,3.976,2.771
		C196.043,116.836,195.553,117.533,194.959,118.137"/>
	<path fill="#CD9773" d="M196.798,116.158c-0.011,0.007-0.021,0.021-0.032,0.028c-0.955-0.822-1.909-1.639-2.91-2.408
		c-1.14-0.883-2.996-1.732-3.097-3.304c-0.081-1.304-0.151-2.599-0.188-3.903c-0.018-0.605-0.072-1.213-0.05-1.822
		c0.01-0.252,0.034-0.509-0.084-0.736c-0.083-1.008-2.165-0.447-2.738-0.376c-1.414,0.172-2.875,0.13-4.295,0.213
		c-1.537,0.088-3.071,0.267-4.599,0.438c-3.02,0.339-5.999,0.97-9.013,1.36c-1.473,0.19-2.941,0.274-4.422,0.335
		c-0.899,0.038-2.245-0.168-3.1,0.241c-0.28-0.043-0.453,0.401-0.174,0.538c-0.128-0.063-0.049,0.811-0.052,0.764
		c0.046,0.57,0.047,1.147,0.052,1.722c0.006,1.253,0.063,2.506,0.006,3.759c-0.042,0.963-2.034,1.233-2.71,1.561
		c-1.032,0.503-2.003,1.113-3.02,1.641c-0.041-0.042-0.084-0.078-0.124-0.118c-0.11-0.108-0.315,0.036-0.219,0.169
		c1.167,1.634,2.701,3.004,4.194,4.335c1.694,1.512,3.379,3.033,5.13,4.479c1.705,1.408,3.468,2.747,5.286,4.005
		c1.54,1.065,3.229,2.421,5.196,2.369c1.85-0.049,3.707-1.267,5.223-2.206c2.017-1.248,3.998-2.557,5.939-3.922
		c1.871-1.317,3.687-2.712,5.462-4.156c0.829-0.676,1.61-1.402,2.36-2.16c0.803-0.815,1.414-1.805,2.235-2.586
		C197.227,116.252,196.975,116.01,196.798,116.158"/>
	<image width="30" height="15" xlink:href="8E6153D2.png"  transform="matrix(1 0 0 1 161 103)">
	</image>
	<path d="M192.507,106.912c0,0,8.939-7.297,11.048-22.063c2.108-14.765-50.218-12.956-53.131-2.21
		c-2.913,10.748,2.638,19.943,8.45,24.386C164.686,111.464,192.507,106.912,192.507,106.912"/>
	<image width="55" height="35" xlink:href="94111E14.png"  transform="matrix(1 0 0 1 149 74)">
	</image>
	<path fill="#CD9773" d="M202.088,93.478c-0.88-1.491-2.805-1.911-4.114-0.909c0.412-2.124,0.42-4.218,0.444-6.426
		c0.026-1.974,0.115-3.972-0.244-5.922c-0.391-2.117-1.513-2.758-3.057-4.109c-0.932-0.816-1.749-1.666-2.809-2.331
		c-1.119-0.698-2.387-1.203-3.629-1.629c-5.155-1.76-10.971-1.785-16.281-0.833c-4.956,0.89-9.867,2.848-13.795,6.038
		c-1.782,1.452-3.29,3.239-4.367,5.27c-0.526,0.99-0.89,2.055-1.151,3.144c-0.266,1.121-0.53,2.279-0.35,3.421
		c0.03,1.137,0.129,2.27,0.287,3.397c-1.324-0.737-2.846-0.668-3.784,0.662c-0.964,1.365-1.05,2.947-0.365,4.463
		c0.744,1.646,2.046,3.027,3.706,3.762c0.826,0.368,2.306,0.775,3.225,0.329c0.866,1.833,1.894,3.587,3.068,5.22
		c1.959,2.729,4.61,4.479,7.535,6.043c3.159,1.688,6.744,2.198,10.278,1.939c0.011,0,0.013-0.006,0.021-0.009
		c1.804-0.168,3.651-0.715,5.256-1.313c2.257-0.841,4.283-1.614,6.2-3.124c1.968-1.552,3.605-3.37,5.041-5.419
		c0.739-1.054,1.395-2.16,2.078-3.247c0.477-0.764,0.942-1.611,0.987-2.524c0.016-0.063,0.03-0.124,0.045-0.188
		c0.361,1.155,1.717,1.637,2.916,1.471c1.521-0.214,2.507-1.387,3.065-2.741C202.867,96.524,202.856,94.782,202.088,93.478"/>
	<image width="9" height="4" xlink:href="94111E13.png"  transform="matrix(1 0 0 1 171 106)">
	</image>
	<image width="27" height="7" xlink:href="94111E2C.png"  transform="matrix(1 0 0 1 163 109)">
	</image>
	<path fill="#845B31" d="M170.712,113.926c0,0,1.908-1.558,5.073-1.656c3.164-0.102,5.122,1.055,5.122,1.055l2.562-0.956
		c0,0-2.761-2.71-7.833-2.258c-5.074,0.451-7.434,2.911-7.434,2.911S169.907,113.827,170.712,113.926"/>
	<image width="17" height="6" xlink:href="94111E2F.png"  transform="matrix(1 0 0 1 167 109)">
	</image>
	<image width="16" height="4" xlink:href="94111E2D.png"  transform="matrix(1 0 0 1 168 110)">
	</image>
	<path fill="#845B31" d="M153.135,86.557c0,0,2.009,17.077,8.772,22.231c3.545,2.701,7.21,5.502,13.826,5.088
		c5.625-0.351,9.959-2.329,14.23-6.696c8.573-8.764,7.03-21.292,6.495-25.378c0,0,1.54-0.333,3.146,1.206
		c0,0,1.676,15.869-8.234,25.377c-9.912,9.509-21.898,9.214-30.667,1.541c-1.607-1.405-7.968-7.432-9.977-22.096L153.135,86.557z"/>
	<image width="50" height="35" xlink:href="94111E33.png"  transform="matrix(1 0 0 1 150 81)">
	</image>
	<image width="50" height="35" xlink:href="94111E34.png"  transform="matrix(1 0 0 1 150 81)">
	</image>
	<image width="50" height="35" xlink:href="94111E37.png"  transform="matrix(1 0 0 1 150 81)">
	</image>
	<path fill="#6E6A3D" d="M206.967,85.271c-0.02-0.115-0.062-0.219-0.107-0.317c-0.049-0.101-0.083-0.21-0.142-0.303
		c-0.123-0.178-0.218-0.383-0.365-0.535c-0.265-0.334-0.588-0.63-0.904-0.89l-0.273-0.208c-0.289-5.495-2.037-13.034-7.105-18.822
		c-5.643-6.436-13.94-9.22-24.664-8.271c-14.785,1.304-21.121,9.601-23.834,16.332c-2.521,6.252-2.458,12.34-2.386,13.98
		c-0.478,0.414-0.926,0.875-1.299,1.42c-0.228,0.345-0.431,0.718-0.542,1.143c-0.11,0.417-0.113,0.921,0.161,1.34
		c0.076,0.098,0.151,0.192,0.257,0.269l0.161,0.111c0.052,0.027,0.096,0.042,0.145,0.065l0.071,0.032
		c-0.004-0.003,0.045,0.019,0.055,0.019l0.042,0.009l0.166,0.038c0.106,0.021,0.215,0.06,0.327,0.062
		c0.442,0.049,0.883,0.003,1.31-0.088c0.424-0.104,0.838-0.233,1.238-0.413c0.39-0.173,0.781-0.35,1.174-0.527
		c0.776-0.363,1.579-0.69,2.39-1.021c0.805-0.348,1.644-0.625,2.48-0.937c0.829-0.319,1.691-0.579,2.554-0.851
		c0.435-0.135,0.868-0.271,1.302-0.407c0.433-0.14,0.882-0.239,1.325-0.362c0.886-0.227,1.778-0.47,2.679-0.692
		c0.907-0.186,1.822-0.375,2.738-0.564c0.461-0.09,0.918-0.204,1.38-0.273c0.464-0.069,0.929-0.138,1.393-0.206
		c0.934-0.14,1.867-0.28,2.802-0.422c0.945-0.083,1.894-0.17,2.842-0.255l1.424-0.128c0.235-0.019,0.479-0.048,0.705-0.058
		l0.714-0.026c3.799-0.174,7.609-0.017,11.33,0.408c3.719,0.437,7.352,1.105,10.814,1.968c1.729,0.434,3.419,0.906,5.055,1.427
		c0.212,0.063,0.391,0.139,0.643,0.183c0.237,0.049,0.484,0.034,0.717-0.019c0.467-0.111,0.884-0.421,1.109-0.844
		C207.079,86.212,207.095,85.7,206.967,85.271"/>
	<path fill="#95856D" d="M205.175,83.018c-0.083-1.585-0.31-3.351-0.68-5.185c-2.137-0.742-33.539-11.217-57.144,3.676
		c-0.226,2.245-0.199,3.968-0.166,4.729C147.186,86.237,172.035,69.672,205.175,83.018"/>
	<image width="63" height="33" xlink:href="94111E35.png"  transform="matrix(1 0 0 1 145 58)">
	</image>
	<image width="63" height="36" xlink:href="94111E32.png"  transform="matrix(1 0 0 1 145 55)">
	</image>
	<path fill="#2B2609" d="M168.643,106.096c0,0,0.183-0.102,0.52-0.249c0.338-0.137,0.82-0.365,1.457-0.462
		c0.318-0.048,0.674-0.061,1.059,0.025c0.333,0.059,0.725,0.12,1.095,0.136c0.756,0.062,1.6,0.067,2.424,0.057
		c0.831,0.005,1.66-0.024,2.434-0.086c0.379-0.045,0.76-0.075,1.094-0.142c0.319-0.067,0.646-0.22,0.967-0.278
		c0.688-0.092,1.184,0.169,1.51,0.327c0.324,0.176,0.485,0.308,0.485,0.308s-0.175-0.113-0.514-0.247
		c-0.167-0.067-0.378-0.14-0.622-0.179c-0.241-0.051-0.532-0.051-0.801,0.003c-0.289,0.072-0.578,0.234-0.953,0.343
		c-0.36,0.099-0.738,0.155-1.132,0.206c-0.787,0.079-1.627,0.126-2.465,0.139c-0.843-0.008-1.669-0.029-2.474-0.113
		c-0.412-0.025-0.764-0.109-1.133-0.2c-0.315-0.089-0.643-0.106-0.946-0.078c-0.608,0.057-1.114,0.199-1.462,0.304
		C168.837,106.015,168.643,106.096,168.643,106.096"/>
	<path d="M174.732,91.025l-3.243,9.835l-0.03-0.292c0.06,0.084,0.209,0.201,0.309,0.304l0.401,0.263
		c0.132,0.091,0.302,0.128,0.448,0.197c0.155,0.054,0.289,0.153,0.462,0.169l0.492,0.099c0.165,0.029,0.318,0.1,0.492,0.097
		c0.342,0.011,0.683,0.021,1.027,0.054c0.341,0.04,0.691-0.048,1.042-0.063l0.522-0.051c0.176-0.019,0.358-0.004,0.529-0.051
		c0.693-0.149,1.396-0.286,2.119-0.393c0.022-0.006,0.045,0.007,0.048,0.029c0.007,0.017-0.006,0.035-0.021,0.045
		c-0.659,0.298-1.34,0.565-2.032,0.82c-0.348,0.12-0.718,0.17-1.082,0.243c-0.366,0.051-0.725,0.174-1.102,0.166
		c-0.378,0.013-0.758,0.005-1.136-0.001c-0.19,0.004-0.38-0.065-0.569-0.094l-0.565-0.134c-0.191-0.028-0.363-0.148-0.543-0.22
		c-0.176-0.09-0.362-0.154-0.524-0.274c-0.333-0.236-0.636-0.456-0.9-0.853c-0.059-0.088-0.064-0.202-0.028-0.294L174.658,91
		c0.008-0.021,0.032-0.03,0.051-0.022C174.729,90.985,174.738,91.008,174.732,91.025"/>
	<path d="M174.117,85.722c0,0-0.06,3.239-1.762,2.068c-3.894-2.677-12.591-1.461-15.876-0.062c0,0,11.836-1.471,15.57,0.486
		C173.327,88.884,174.117,87.667,174.117,85.722"/>
	<path d="M177.281,86.212c0,0,0.372,3.219,1.956,1.89c3.615-3.04,12.391-2.666,15.794-1.591c0,0-11.92-0.323-15.45,1.984
		C178.373,89.283,177.469,88.149,177.281,86.212"/>
	<path fill="#FFFCD7" d="M179.837,89.661c0,0,0.853,0.284,1.725-0.168c0.873-0.453,6.306-3.002,11.075-0.168
		C192.637,89.325,188.145,93.065,179.837,89.661"/>
	<path d="M188.439,90.943c0.375-0.419,0.608-0.966,0.608-1.572c0-0.484-0.146-0.935-0.396-1.31
		c-1.521-0.141-2.956,0.057-4.143,0.354c-0.129,0.292-0.205,0.613-0.205,0.955c0,0.632,0.253,1.201,0.653,1.626
		C186.282,91.138,187.449,91.095,188.439,90.943"/>
	<path fill="#FFFCD7" d="M171.746,89.661c0,0-0.853,0.284-1.726-0.168c-0.872-0.453-6.306-3.002-11.076-0.168
		C158.944,89.325,163.437,93.065,171.746,89.661"/>
	<path d="M163.143,90.943c-0.375-0.419-0.609-0.966-0.609-1.572c0-0.484,0.147-0.935,0.396-1.31
		c1.521-0.141,2.957,0.057,4.144,0.354c0.129,0.292,0.205,0.613,0.205,0.955c0,0.632-0.252,1.201-0.653,1.626
		C165.299,91.138,164.133,91.095,163.143,90.943"/>
	<path fill="#CD9773" d="M220.259,198.949c-0.04-1.883-0.354-3.738-0.393-5.62c-0.019-0.846,0.088-1.687,0.085-2.53
		c-0.003-0.84-0.169-1.678-0.265-2.511c-0.1-0.839-0.126-1.69-0.135-2.544c0.051-0.784,0.064-1.565,0.215-2.348
		c0.053-0.276,0.223-0.716,0.009-0.972c-0.729-0.874-2.785-0.498-3.747-0.354c-0.791,0.119-1.78,0.196-2.423,0.734
		c-0.7,0.587-0.637,1.483-0.529,2.337c-0.038,1.352-0.046,2.72-0.69,3.938c-0.619,1.17-1.591,2.091-2.163,3.299
		c-0.517,1.095-0.405,2.297-0.19,3.45c0.306,1.646,0.23,3.062,0.04,4.702c-0.051,0.432-0.222,1.743,0.446,1.917
		c0.21,0.056,0.408,0.05,0.601,0.008c-0.043,0.037-0.084,0.075-0.126,0.115c-0.587,0.572-1.548,2.901-0.211,3.132
		c-0.119,0.57-0.115,1.219,0.398,1.325c0.541,0.11,1.09-0.158,1.555-0.489c-0.572,0.985-0.846,2.05-0.045,2.685
		c0.06,0.118,0.153,0.21,0.438,0.057c0.744-0.407,1.703-0.865,2.274-1.482c0.321-0.349,0.48-0.919,0.661-1.343
		c0.286-0.663,0.935-1.297,1.39-1.847c0.687-0.83,1.467-1.583,2.171-2.396c0.062,0.021,0.129,0.008,0.171-0.071
		c0.164-0.319,0.607-0.688,0.583-1.101C220.335,200.344,220.273,199.647,220.259,198.949"/>
	<image width="12" height="29" xlink:href="94111E57.png"  transform="matrix(1 0 0 1 209 181)">
	</image>
	<image width="12" height="18" xlink:href="94111E51.png"  transform="matrix(1 0 0 1 209 192)">
	</image>
	<path fill="#CD9773" d="M212.225,208.488c0.003-1.339,1.226-3.104,1.94-3.797c0.691-0.669,1.116-1.229,1.597-2.059
		c0.517-0.894,1.515-2.019,1.137-3.116c-0.265-0.773-0.698-1.486-1.087-2.203c-0.426-0.79-0.898-1.554-1.884-1.438
		c-0.113,0.065-0.218,0.127-0.292,0.168c-0.006,0.002-0.009,0.002-0.016,0.002c-0.271,1.242-0.107,2.648-0.387,3.864
		c-0.305,1.33-1.568,2.082-2.5,2.995c-0.551,0.852-1.101,2.598,0.049,2.798c-0.119,0.57-0.116,1.219,0.398,1.325
		c0.54,0.11,1.092-0.158,1.555-0.489C212.35,207.206,212.099,207.907,212.225,208.488"/>
	<image width="7" height="14" xlink:href="94111E53.png"  transform="matrix(1 0 0 1 210 195)">
	</image>
	<image width="12" height="29" xlink:href="94111E5E.png"  transform="matrix(1 0 0 1 209 181)">
	</image>
	<image width="19" height="29" xlink:href="94111E5F.png"  transform="matrix(1 0 0 1 147 72)">
	</image>
	<path fill="#CD9773" d="M164.002,82.094c-1.168-1.272-3.031-0.902-4.441-0.237c-0.2,0.095-0.395,0.194-0.59,0.298
		c0.269-0.381,0.505-0.8,0.731-1.152c0.58-0.906,1.274-1.731,1.852-2.64c0.734-1.158,1.948-3.188,1.569-4.666
		c0.49-1.252,0.697-2.506-0.337-2.571c-0.075-0.147-0.179-0.263-0.329-0.292c-0.021-0.051-0.072-0.087-0.14-0.066
		c-2.249,0.609-4.398,2.176-6.225,3.573c-0.852,0.652-1.624,1.403-2.402,2.141c-0.63,0.598-1.346,1.184-1.962,1.825
		c-2.104,1.646-4.179,3.331-6.3,4.96c-1.516,1.167-3.617,2.426-4.268,4.33c-0.214,0.625-0.264,1.295-0.532,1.902
		c-0.263,0.589-0.858,1.036-1.34,1.441c-0.867,0.731-1.656,1.675-2.564,2.358c-0.013-0.001-0.025-0.009-0.038-0.006
		c-0.715,0.111-0.718,0.941-0.779,1.525c-0.131,1.24,0.185,2.545,0.736,3.649c0.457,0.911,1.427,1.353,2.363,1.594
		c0.51,0.132,1.027,0.238,1.554,0.223c0.258-0.011,0.464-0.185,0.652-0.368c1.976-1.544,3.661-3.6,5.966-4.597
		c1.424-0.198,2.781-0.535,4.036-1.447c1.942-1.417,3.447-3.244,5.557-4.464c1.807-1.046,2.423-3.084,3.857-4.531
		c0.784-0.789,1.816-1.184,2.769-1.716c0.305-0.17,0.584-0.494,0.499-0.834C164.002,82.336,164.085,82.183,164.002,82.094"/>
	<image width="29" height="29" xlink:href="94111E52.png"  transform="matrix(1 0 0 1 135 72)">
	</image>
	<image width="9" height="9" xlink:href="94111E55.png"  transform="matrix(1 0 0 1 148 82)">
	</image>
	<image width="30" height="31" xlink:href="94111E56.png"  transform="matrix(1 0 0 1 135 70)">
	</image>
	<path fill="#6E6A3D" d="M227.051,143.582c-0.216-1.599-0.162-3.269-0.197-4.88c-0.08-3.524-0.147-7.052-0.428-10.567
		c-0.194-2.484-0.245-5.341-2.715-6.688c-1.025-0.562-2.296-0.476-3.419-0.552c-0.613-0.039-1.229-0.037-1.848-0.031
		c0.01-0.075-0.027-0.158-0.113-0.183c-0.898-0.26-1.716-0.692-2.594-1.003c-1.207-0.424-2.426-0.83-3.604-1.318
		c-2.325-0.967-4.649-2.115-7.088-2.761c-1.184-0.313-2.397-0.34-3.557-0.749c-1.043-0.366-1.967-1.006-3.009-1.347
		c-0.702-0.23-1.261,0.155-1.957-0.386c-0.335-0.262-0.578-0.677-0.873-0.982c-0.374-0.383-0.924-0.517-1.433-0.423
		c-0.409-0.583-0.95-1.118-1.356-1.604c-0.132-0.157-0.962-1.165-1.31-0.895c-0.078-0.016-0.169,0.003-0.232,0.088
		c-0.579,0.759-0.951,1.674-1.548,2.442c-0.621,0.804-1.331,1.571-2.038,2.302c-1.508,1.562-3.18,2.968-4.723,4.498
		c-1.58,1.564-3.183,3.074-4.892,4.495c-0.735,0.606-1.507,1.176-2.259,1.762c-0.335,0.258-0.701,0.525-0.818,0.925
		c-0.581-0.485-1.028-1.12-1.552-1.668c-1.215-1.272-2.581-2.397-3.807-3.663c-1.305-1.347-2.549-2.717-3.923-3.994
		c-0.752-0.697-1.466-1.44-2.272-2.08c-0.307-0.244-0.732-0.651-1.085-1.083c0.005-0.231-0.165-0.517-0.242-0.73
		c-0.113-0.311-0.204-0.631-0.4-0.901c-0.15-0.207-0.374-0.391-0.634-0.421c-0.182-0.021-0.317,0.035-0.435,0.124
		c-0.105-0.036-0.229-0.021-0.311,0.096c-0.359,0.525-0.888,1.028-1.291,1.534c-0.483,0.605-0.956,1.224-1.479,1.796
		c-0.084,0.092-0.142,0.196-0.18,0.311c-2.779,0.664-5.662,0.954-8.499,1.285c-0.137-0.369-0.3-0.723-0.545-1.036
		c-0.81-1.03-2.66-0.977-3.819-0.988c-2.305-0.025-4.568-0.217-6.813-0.738c-0.995-0.233-1.979-0.455-2.991-0.598
		c-0.548-0.079-1.767-0.114-2.198-0.588c0.901-1.827,1.888-3.611,3.63-4.787c0.647-0.437,1.525-0.694,1.995-1.36
		c0.637-0.907,0.016-1.957-0.17-2.93c-0.006-0.028-0.025-0.043-0.04-0.064c1.016-0.615,1.863-1.496,2.813-2.2
		c1.001-0.746,2.021-1.357,2.668-2.466c0.027-0.046,0.031-0.091,0.022-0.136c0.129-0.121,0.247-0.271,0.345-0.459
		c0.035-0.068-0.038-0.145-0.106-0.106c-0.239,0.142-0.727,0.458-0.893,0.471c-0.336,0.024-0.743-0.111-1.078-0.179
		c-0.938-0.192-1.692-1.148-2.175-1.904c-0.808-1.268-1.017-2.746-1.301-4.188c0.069-0.059,0.063-0.194-0.039-0.212
		c-0.629-0.105-1.024-0.254-1.656-0.052c-0.734,0.234-1.359,0.882-1.941,1.36c-0.74,0.604-1.489,1.193-2.213,1.811
		c-0.427-0.333-0.728-0.721-1.25-0.954c-0.439-0.195-0.943-0.265-1.418-0.298c-0.883-0.06-1.424,0.567-1.787,1.288
		c-0.724,1.433-1.783,2.444-2.91,3.559c-1.09,1.086-2.106,2.251-3.072,3.451c-1.192,1.143-2.364,2.272-3.797,3.126
		c-1.37,0.816-2.729,1.574-3.854,2.726c-1.102,1.127-1.719,2.69-2.536,4.016c-0.885,1.44-2.018,2.715-2.418,4.394
		c-0.319,1.345,0.517,2.59,1.127,3.714c0.724,1.33,1.014,2.841,1.89,4.097c0.835,1.191,2.128,2.166,3.27,3.044
		c1.618,1.248,3.188,2.532,4.748,3.848c0.057,0.05,0.123,0.05,0.173,0.023c3.979,3.202,8.15,6.109,12.326,9.049
		c2.309,1.626,4.245,3.449,5.875,5.767c0.735,1.047,1.471,2.092,2.212,3.133c0.652,0.916,1.141,1.896,1.633,2.893
		c0.078,0.947,0.166,1.893,0.276,2.835c0.11,0.95,0.359,1.865,0.613,2.783c-0.001-0.008-0.004-0.013-0.009-0.019
		c-0.016-0.032-0.065-0.011-0.057,0.022c1.323,4.318,2.069,8.759,3.767,12.968c1.162,2.878,2.546,5.837,4.766,8.038
		c-0.656,0.516-1.132,1.264-1.64,1.911c-0.707,0.905-1.541,1.732-2.297,2.6c-0.662,0.76-1.391,1.497-2.004,2.297
		c-0.552,0.721-0.956,2.089-1.753,2.615c-0.006-0.007-0.014-0.014-0.019-0.021c-0.139-0.167-0.365,0.071-0.236,0.235
		c0.586,0.755,1.537,1.322,2.31,1.874c0.792,0.563,1.649,1.068,2.523,1.528c-1.02,0.263-1.455,2.319-1.343,3.099
		c0.104,0.732,0.688,1.105,1.303,1.364c0.162,0.067,0.317,0.147,0.467,0.236c-0.166,0.854-0.871,1.119-0.192,1.989
		c1.047,1.349,1.36,2.961,1.77,4.597c0.835,3.338,1.522,6.71,2.367,10.046c0.807,3.191,2.262,6.506,1.78,9.842
		c-0.17,1.175-0.229,2.227,0.279,3.332c0.22,0.482,0.632,0.945,1.107,1.345c1.284,2.479,2.234,4.971,2.719,7.746
		c0.18,1.027,0.062,2.337,0.52,3.3c0.394,0.827,1.074,1.313,1.869,1.727c0.91,0.47,1.879,0.807,2.788,1.281
		c0.957,0.503,1.859,0.7,2.884,0.243c0.592-0.263,1.143-0.616,1.686-0.98c2.597-0.543,5.044,1.492,7.638,0.698
		c1.035-0.315,1.778-1.198,2.278-2.112c0.303-0.554,0.474-1.17,0.61-1.783c0.046-0.21,0.102-0.416,0.16-0.621
		c0.064-0.144,0.132-0.285,0.209-0.42c0.001,0.046,0.001,0.091,0.008,0.135c0.108,0.711,0.523,1.215,0.863,1.828
		c0.303,0.544,0.546,1.264,1.103,1.622c0.532,0.34,1.092,0.431,1.713,0.503c0.827,0.1,1.589,0.416,2.426,0.419
		c0.726,0.002,1.441-0.324,2.086-0.625c0.579-0.272,1.167-0.523,1.754-0.771c1.245-0.114,2.27-0.035,3.459,0.471
		c0.87,0.37,1.745,0.632,2.688,0.772c1.291,0.194,2.905-0.036,3.692-1.217c0.865-1.301,0.881-3.024,1.063-4.529
		c0.272-2.278,0.628-4.507,1.485-6.632c0.059-0.053,0.117-0.102,0.174-0.152c0.721-0.624,1.542-1.227,1.93-2.124
		c0.335-0.773-0.071-1.627-0.305-2.364c-0.418-1.332-0.656-2.644-0.83-4.019c0.372-1.257,0.72-2.523,1.076-3.777
		c0.651-2.288,1.417-4.62,1.777-6.974c0.35-2.283,0.504-4.608,0.633-6.913c0.064-1.133,0.176-2.26,0.297-3.387
		c0.08-0.742,0.467-1.46,0.398-2.209c0.424-0.415,1.021-0.501,1.144-1.141c0.089-0.468-0.421-1.253-0.559-1.692
		c-0.113-0.364-0.207-0.729-0.349-1.086c-0.147-0.376-0.394-0.69-0.552-1.063c1.259-0.771,2.492-1.577,3.652-2.481
		c0.147,0.017,0.328-0.105,0.286-0.303c-0.155-0.766-0.65-1.422-1.052-2.077c-0.705-1.155-1.366-2.337-2.027-3.519
		c-1.002-1.783-1.923-3.826-3.674-4.942c1.029-0.891,1.854-1.82,2.324-3.451c0.646-2.228,0.946-4.612,1.291-6.898
		c0.326-2.174,0.738-4.369,1.261-6.504c0.107-0.452,0.225-0.901,0.343-1.344c0.306,0.563,0.844,1.092,1.132,1.54
		c0.038,0.061,0.076,0.122,0.116,0.185c0.097,0.449,0.054,1.017,0.062,1.413c0.006,0.621,0.005,1.237,0.032,1.858
		c0.053,1.234,0.169,2.455,0.329,3.681c0.154,1.197,0.302,2.396,0.28,3.608c-0.007,0.321-0.025,0.643-0.034,0.962
		c-0.329,0.698-0.695,1.316-1.153,1.981c-0.329,0.471-0.242,1.078-0.049,1.577c0.262,0.666,0.836,1.229,1.264,1.785
		c0.064,0.081,0.129,0.167,0.193,0.25c0.021,0.531-0.049,1.057-0.076,1.589c-0.04,0.716,0.033,1.428-0.019,2.145
		c-0.091,1.205-0.101,2.426-0.203,3.631c-0.017,0.009-0.032,0.027-0.032,0.051c0.069,1.259,1.625,1.558,2.975,1.396
		c1.022,0.484,2.579,0.206,3.585-0.16c1.101-0.397,2.704-1.05,3.186-2.196c0.329-0.782,0.319-1.791,0.441-2.618
		c0.119-0.801,0.244-1.606,0.287-2.418c0.045-0.895,0.535-2.154-0.396-2.757c-0.016-0.009-0.032-0.012-0.048-0.019
		c0.273-0.276,0.576-0.525,0.835-0.823c0.542-0.628,0.593-1.689,0.678-2.469c0.29-2.663,0.555-5.308,1.229-7.907
		c0.678-2.615,1.347-5.269,2.12-7.855c0.29-0.966,0.644-1.992,0.502-3.012c-0.196-1.435-0.691-2.804-0.849-4.249
		c-0.006-0.043-0.033-0.066-0.067-0.075c0.481-0.71,1.007-1.395,1.599-1.952c0.557-0.524,0.978-0.963,0.934-1.636
		c0.02-0.072,0.04-0.144,0.046-0.219C227.825,146.063,227.229,144.926,227.051,143.582"/>
	<image width="118" height="102" xlink:href="94111E54.png"  transform="matrix(1 0 0 1 109 93)">
	</image>
	<image width="120" height="151" xlink:href="94111E6C.png"  transform="matrix(1 0 0 1 109 91)">
	</image>
	<image width="58" height="54" xlink:href="94111E76.png"  transform="matrix(1 0 0 1 151 188)">
	</image>
	<image width="25" height="22" xlink:href="94111E49.png"  transform="matrix(1 0 0 1 182 134)">
	</image>
	<image width="23" height="20" xlink:href="94111E4A.png"  transform="matrix(1 0 0 1 183 135)">
	</image>
	<image width="22" height="22" xlink:href="94111E48.png"  transform="matrix(1 0 0 1 149 135)">
	</image>
	<image width="21" height="18" xlink:href="94111E4E.png"  transform="matrix(1 0 0 1 150 137)">
	</image>
	<image width="59" height="66" xlink:href="94111E4B.png"  transform="matrix(1 0 0 1 149 126)">
	</image>
	<image width="41" height="31" xlink:href="94111E46.png"  transform="matrix(1 0 0 1 156 109)">
	</image>
	<image width="65" height="54" xlink:href="94111E47.png"  transform="matrix(1 0 0 1 144 188)">
	</image>
	<image width="58" height="49" xlink:href="94111E58.png"  transform="matrix(1 0 0 1 147 193)">
	</image>
	<image width="36" height="60" xlink:href="94111E59.png"  transform="matrix(1 0 0 1 109 97)">
	</image>
	<image width="13" height="64" xlink:href="94111EA5.png"  transform="matrix(1 0 0 1 209 124)">
	</image>
	<image width="13" height="9" xlink:href="94111EA7.png"  transform="matrix(1 0 0 1 216 147)">
	</image>
	<image width="120" height="151" xlink:href="94111EA4.png"  transform="matrix(1 0 0 1 109 91)">
	</image>
	<image width="23" height="20" xlink:href="94111EBB.png"  transform="matrix(1 0 0 1 183 134)">
	</image>
	<image width="3" height="3" xlink:href="94111EBD.png"  transform="matrix(1 0 0 1 195 138)">
	</image>
	<image width="3" height="3" xlink:href="94111EBF.png"  transform="matrix(1 0 0 1 159 139)">
	</image>
	<image width="22" height="20" xlink:href="94111EBC.png"  transform="matrix(1 0 0 1 149 135)">
	</image>
	<path fill="#E2E3E4" d="M178.729,181.406c1.86,0.083,3.665,0.399,5.485,0.812c-0.155,0.745-0.301,1.484-0.345,2.244
		c-0.067,1.153-0.491,1.788-1.643,2.035c-0.741,0.16-1.534,0.104-2.286,0.12c-0.907,0.021-1.81,0.088-2.717,0.086
		c-1.33-0.003-2.795-0.027-4.103-0.284c-0.812-0.158-1.413-0.501-1.632-1.334c-0.212-0.809-0.209-1.845-0.234-2.704
		c1.604-0.181,3.206-0.387,4.801-0.604C176.953,181.658,177.838,181.518,178.729,181.406"/>
	<image width="14" height="6" xlink:href="94111EA6.png"  transform="matrix(1 0 0 1 171 181)">
	</image>
	<path fill="#3A3C2C" d="M171.038,185.146c0,0.006,0.002,0.007,0.002,0.014c-0.518-0.19-1.275-0.208-1.729-0.307
		c-1.153-0.242-2.341-0.35-3.509-0.523c-1.15-0.17-2.257-0.502-3.371-0.84c-0.842-0.257-1.605-0.686-2.407-1.03
		c0.022,0.007,0.045,0.011,0.068,0.018c2.552,0.561,5.262,0.426,7.847,0.228c1.023-0.08,2.048-0.184,3.072-0.297
		C170.858,183.291,170.925,184.274,171.038,185.146"/>
	<path fill="#3A3C2C" d="M184.292,185.07c0.024-0.206,0.033-0.416,0.046-0.608c0.049-0.728,0.188-1.432,0.351-2.136
		c0.266,0.063,0.533,0.127,0.803,0.192c2.124,0.522,4.218,0.84,6.373,0.915c-0.945,0.335-1.88,0.736-2.835,0.996
		C187.539,184.839,185.845,184.934,184.292,185.07"/>
	<image width="12" height="4" xlink:href="94111EA1.png"  transform="matrix(1 0 0 1 160 182)">
	</image>
	<image width="8" height="4" xlink:href="94111EA2.png"  transform="matrix(1 0 0 1 184 182)">
	</image>
</g>
</svg>
