<?xml version="1.0" encoding="utf-8"?>
<!-- Generator: Adobe Illustrator 16.0.0, SVG Export Plug-In . SVG Version: 6.00 Build 0)  -->
<!DOCTYPE svg PUBLIC "-//W3C//DTD SVG 1.1 Tiny//EN" "http://www.w3.org/Graphics/SVG/1.1/DTD/svg11-tiny.dtd">
<svg version="1.1" baseProfile="tiny" id="Layer_1" xmlns="http://www.w3.org/2000/svg" xmlns:xlink="http://www.w3.org/1999/xlink"
	 x="0px" y="0px" width="350px" height="350px" viewBox="0 0 350 350" overflow="scroll" xml:space="preserve">
<path fill-rule="evenodd" fill="#138A44" d="M177.062,99.667c-0.864,1.078-1.726,1.7-1.1,3.488c-0.794,0-1.588,0-2.378,0
	c-0.709,2.542-2.194,4.708-2.534,7.14c-1.535,0.046-3.075,0.103-4.608,0.153c-0.517,0.177-0.289,0.751-0.624,0.955
	c-1.386,0.209-2.752,0.424-4.127,0.63c-0.22-1.265-0.421-2.535-0.636-3.802c1.611-0.337,2.805-0.693,3.81-1.587
	c0.051-0.162,0.11-0.32,0.159-0.482c-0.953-1.156-1.907-2.32-2.855-3.479c-0.554-2.58,8.43-13.092,10.148-14.271
	c1.056-0.056,2.118-0.11,3.166-0.158c0.109-0.218,0.22-0.426,0.321-0.64c0-0.05,0-0.106,0-0.157
	c-3.916-1.638-7.828-3.281-11.733-4.911c-4.762-3.275-6.708-9.802-12.375-12.371c-10.928-4.954-20.041-3.269-26.318,4.595
	c-1.339,1.687-3.228,3.286-4.118,5.396c-2.693,6.346,1.344,14.31-0.321,20.449c-3.114-0.158-6.231-0.314-9.353-0.477
	c-9.763,1.744-17.914,4.21-24.57,9.04c-1.834,1.323-2.94,3.931-4.439,5.078c-3.88,2.951-8.183,9-9.838,13.946
	c-0.263,2.327-0.528,4.655-0.787,6.978c-0.797,2.382-1.594,4.762-2.382,7.141c-3.955,10.178-8.004,21.722-10.624,32.818
	c-0.097,3.113-0.213,6.241-0.32,9.354c-0.924,5.802-0.788,12.52,0.32,17.603c0.39,1.79,2.488,11.533,1.746,13.479
	c-0.425,0.423-0.843,0.845-1.268,1.268c-0.533,3.276-1.063,6.548-1.586,9.832c0.423,0.633,0.844,1.268,1.266,1.9
	c-0.108,1.901-0.213,3.806-0.317,5.711c-1.431,2.485-2.854,4.967-4.279,7.446c-0.265,1.639-0.528,3.283-0.794,4.921
	c-1.731,10.028,3.618,17.47,10.621,19.664c1.321,0.368,2.645,0.739,3.967,1.101c1.375-0.683,2.746-1.371,4.122-2.059
	c1.479,1.697,2.962,3.383,4.44,5.076c3.538,4.426,8.964,9.386,14.749,11.414c2.055,0.159,4.112,0.317,6.185,0.479
	c11.02,1.783,21.376-4.878,23.626-12.531c0.802-2.751-1.129-4.376-1.589-6.179c0.26-1.803,0.529-3.596,0.791-5.393
	c-0.53-0.954-1.061-1.898-1.584-2.854c0.97-1.088,2.539-2.997,1.748-5.71c-1.062-1.743-2.117-3.488-3.179-5.23
	c-1.58-4.439-3.169-8.882-4.753-13.321c-0.936-4.144,1.056-12.591,1.425-16.487c6.923-4.521,19.64-4.925,28.385-7.616
	c6.832-2.101,15.208-4.474,21.243-7.925c1.796-1.375,3.598-2.744,5.389-4.12c-0.324,0.898-0.396,0.877-0.159,1.902
	c1.712,1.021,3.028,1.972,4.446,3.164c-0.32,1.646-0.635,3.284-0.959,4.917c0.313,2.62,2.133,4.987,3.016,7.136
	c1.218,3.697,2.432,7.395,3.645,11.107c1.063,1.317,2.121,2.64,3.18,3.962c-0.248,2.813-0.909,4.914-0.797,8.084
	c4.139,1.402,5.377,11.907,5.23,18.237c1.007,0.104,2.012,0.209,3.017,0.311c0,0.061,0,0.11,0,0.162
	c-0.979,2.438-1.265,4.9-2.229,7.612c-1.299,3.689-5.493,9.524-2.372,13.795c1.121,1.524,14.679,2.859,17.598,2.058
	c2.769-0.758,4.408-3.068,7.455-3.485c1.438-0.197,10.767,3.701,13.317,4.274c1.959,0.063,3.916,0.106,5.869,0.162
	c8.468,1.327,12.423-3.065,16.808-6.655c0-1.169,0-2.329,0-3.496c-0.315,0-0.637,0-0.951,0c-0.583-0.892-1.168-1.792-1.747-2.691
	c-2.65-1.968-7.734-1.325-11.1-2.532c-2.008-1.113-4.02-2.227-6.025-3.334c-1.69-0.689-3.377-1.369-5.072-2.062
	c-2.43-2.111-4.86-4.229-7.293-6.344c0-0.05,0-0.105,0-0.155c1.105-0.903,2.221-1.8,3.326-2.698
	c-0.208-1.798-0.417-3.59-0.635-5.386c-0.635-1.008-1.26-2.019-1.899-3.015c0-2.224,0-4.442,0-6.663
	c-0.483-4.171-0.954-8.349-1.427-12.523c-1.697-5.338-3.384-10.68-5.068-16.018c-0.646-3.008-1.28-6.024-1.905-9.04
	c0.151-2.057,0.316-4.12,0.478-6.178c-1.099-4.982-3.454-9.703-5.395-13.803c1.881,0.24,4.491,1.288,6.979,0.642
	c5.789-1.509,12.223-7.683,14.415-12.845c1.063-3.067,2.119-6.127,3.188-9.192c0.883-1.864,2.772-2.495,3.642-4.762
	c0-0.157,0-0.319,0-0.47c-0.317,0-0.64,0-0.956,0c0.214-0.904,0.421-1.796,0.639-2.703c3.412-1.771,12.129-4.843,9.037-10.777
	c0.619-1.928,2.057-4.059-0.159-5.874c0.223-1.199,0.641-1.543,0.635-3.164c-0.476-0.483-0.948-0.955-1.422-1.43
	c0.265-0.845,0.521-1.686,0.787-2.531c-0.76-1.354-1.486-2.926-3.016-3.496c-0.107-0.157-0.208-0.32-0.313-0.472
	c0.162-0.269,0.313-0.529,0.474-0.795c2.297-1.031,10.133-0.027,13.481,0c-0.062-0.531-0.108-1.059-0.161-1.586
	c0.689,0.32,1.376,0.64,2.061,0.955c0.369-0.376,0.742-0.747,1.111-1.112c2.482,0.365,4.973,0.736,7.446,1.112
	c0.816-0.224,1.498-1.033,2.699-1.265c0-0.432,0-0.848,0-1.277c-0.527-0.15-1.055-0.313-1.588-0.471
	c-0.05-0.157-0.105-0.322-0.152-0.477c9.883-0.528,19.767-1.059,29.644-1.584c0.27,0.369,0.533,0.733,0.798,1.106
	c1.899-0.106,3.809-0.21,5.703-0.321c-0.05-1.578-0.107-3.166-0.151-4.75c-2.731,0.003-4.17,0.084-5.872,0.791
	c-9.983,0.264-19.973,0.528-29.969,0.794c0.052-3.842,0.493-11.147-3.646-11.1c-2.347,2.021-4.993,5.694-6.182,8.725
	c-0.518,0.254-1.152,0.338-2.055,0.307c-0.06-0.362-0.119-0.733-0.164-1.104c-1.235-1.077-6.553-0.32-8.563-0.32
	c-8.034,0-16.069,0-24.099,0c-0.162,0.848-0.314,1.694-0.483,2.537c-0.1,0.053-0.201,0.112-0.309,0.161
	c-1.316-0.214-2.645-0.419-3.964-0.633c-0.269,0.526-0.528,1.059-0.796,1.587c-0.105,0.051-0.213,0.101-0.324,0.152
	c0-0.843,0-1.688,0-2.535c-7.393,0.265-14.795,0.526-22.188,0.795c-0.563-2.622-2.518-3.084-3.494-5.07
	c-1.294-0.96-0.904-1.62-0.787-3.651C181.406,99.667,179.235,99.667,177.062,99.667z M158.057,78.115
	c1.376,1.807,3.373,3.426,4.734,5.223c3.387,1.372,5.708,2.392,9.096,3.766c-0.802,0.835-1.667,0.806-2.413,1.729
	c-3.103,3.838-5.947,10.152-11.592,11.306c-6.833,1.412-12.873-2.448-18.554-3.484c-2.59-0.478-4.656,0.617-6.658,0.947
	c-2.835,0.479-5.364-3.545-7.131,1.589c-0.686-0.05-1.38-0.101-2.061-0.159c-0.903-2.926-2.129-9.644-1.993-13.347
	c0.104-2.809,1.031-5.657,3.312-8.049c2.631-2.749,4.973-5.124,7.278-6.572c1.799-1.138,4.061-1.412,6.278-2.278
	C148.303,68.799,153.675,72.493,158.057,78.115z M103.82,105.687c1.74,2.061,3.476,4.128,5.226,6.19
	c2.59,4.172,5.189,8.347,7.775,12.524c0.359,2.168,0.739,4.334,1.11,6.5c1.076,4.924,2.14,9.933,3.641,14.271
	c0.323,1.161,0.638,2.323,0.951,3.491c1.732,2.652,5.413,1.559,6.832,6.021c1.528,0.472,5.393-2.842,6.967-3.807
	c7.398-4.54,10.866-12.017,17.44-17.282c2.895-2.312,6.534-3.591,9.826-5.549c3.348-1.984,6.015-4.429,10.618-5.234
	c2.329,0.529,4.659,1.062,6.992,1.587c5.438,0.422,10.883,0.843,16.326,1.267c0.739,0.901,1.479,1.798,2.221,2.696
	c-2.819,1.219-2.616,1.703-6.822,1.423c0.107,0.214,0.214,0.429,0.316,0.642c-2.532,0.151-5.08,0.313-7.609,0.473
	c-0.475-0.473-0.95-0.947-1.432-1.424c2.276,0.106,4.55,0.215,6.832,0.31c-2.865-0.262-5.716-0.526-8.564-0.785
	c0,0.051,0,0.104,0,0.155c1.316,2.062,2.637,4.124,3.962,6.183c0.101,0.112,0.209,0.211,0.315,0.32
	c-1.037,0.967-2.637,1.008-3.8,1.901c0.26,0.636,0.522,1.264,0.782,1.905c-1.224,0.828-2.453,1.421-4.592,1.432
	c-0.104,1.049-0.219,2.103-0.318,3.159c-3.312,1.175-7.344,1.352-12.05,1.27c-1.109,1.168-2.221,2.326-3.33,3.492
	c-1.595,1.268-3.171,2.532-4.757,3.807c-1.157,3.224-2.327,6.444-3.487,9.669c-2.009,4.022-4.547,6.901-7.604,9.888
	c-5.324,5.202-10.931,11.362-18.401,14.373c-3.226,1.299-13.448-0.803-16.183-2.691c-6.549-8.775-13.1-17.553-19.657-26.325
	c-2.793-3.557-7.786-5.143-11.57-7.773c-2.859-3.329-5.712-6.653-8.566-9.985c-1.078-3.047,1.868-9.413,2.696-11.579
	c3.889-10.048,10.452-18.155,20.613-21.721c2.119-0.259,4.228-0.528,6.348-0.795C103.179,105.687,103.497,105.687,103.82,105.687z
	 M211.48,116.157c0.257,0.736,0.528,1.477,0.79,2.219c2.534-0.251,6.005-0.574,7.446,1.112c-1.717,4.8-4.011,12.486-1.584,17.28
	c-0.746,0.901-3.991,4.359-4.282,4.913c-0.313,1.215-0.63,2.433-0.945,3.646c-0.381,0.59-0.86,0.6-1.587,0.797
	c-1.407-3.458-5.121-14.732-2.22-18.549c-0.996-2.009-0.606-4.882-1.275-7.613c0.903-0.424,1.801-0.846,2.702-1.267
	c-0.159-0.894-0.325-1.803-0.483-2.691C210.525,116.05,210.997,116.106,211.48,116.157z M224.789,119.488
	c-0.329,1.589-0.964,2.443-0.943,4.439c0.321,0.264,0.633,0.528,0.943,0.794c1.539-0.475,3.074-0.952,4.606-1.435
	c-0.165-0.944-0.313-1.895-0.481-2.852c1.798-0.151,3.596-0.312,5.398-0.472c0.895,0.691,1.793,1.369,2.693,2.057
	c-0.112,1.755-0.652,2.374-1.271,3.492c0.992,0.625,1.62,1.17,2.059,2.376c-0.366,0.686-0.737,1.373-1.11,2.067
	c2.601,4.027,0.839,2.219,0.323,5.545c0.316,0.95,0.638,1.905,0.939,2.852c-2.311,3.697-7.02,4.262-9.661,7.458
	c-1.036,1.249-0.112,3.492-0.476,5.069c-3.245,2.346-3.704,6.56-5.547,9.834c-0.347,1.405-1.312,5.752-6.407,9.724
	c-1.922,1.497-3.785,3.232-6.127,4.228c-2.343,1.006-4.729,0.271-7.658-0.279c-1.748-0.333-3.993-0.132-5.693-0.76
	c-3.962-1.467-7.522-3.483-9.478-4.826c-5.483-3.768-9.553-10.909-14.583-15.378c-1.266-1.214-2.533-2.433-3.817-3.655
	c-0.471-0.525-0.942-1.055-1.419-1.584c2.963-2.102,9.144-2.196,13.003-3.329c0.311-0.714,0.17-1.628-0.16-2.532
	c1.213-0.924,3.468-0.635,4.6-1.589c1.175-0.99,1.905-3.134,3.643-4.439c2.542,1.585,5.074,3.175,7.613,4.759
	c1.584,5.236,3.169,10.467,4.753,15.693c2.093,1.288,6.35,2.822,9.771,1.688c3.417-1.145,4.292-3.563,1.81-10.877
	c0.424-0.378,1.519-0.745,1.935-1.117c1.909-3.372,1.614-6.387,5.134-8.085c0.959-2.175-1.417-4.028-1.082-6.186
	c0.356-4.654,1.672-8.951,2.577-13.156C222.05,119.167,223.425,119.331,224.789,119.488z M227.643,120.755
	c0.52,0.32,0.551,0.534,0.642,1.265c-1.11,0.429-2.224,0.846-3.331,1.267c0.426-1,0.842-2.006,1.275-3.003
	C226.699,120.435,227.174,120.595,227.643,120.755z M196.25,139.467c-1.91-0.808-8.212-4.881-9.037-6.658
	c-0.152-0.162-0.314-0.322-0.471-0.477c2.91-0.166,5.811-0.32,8.723-0.478C195.465,134.561,195.598,137.37,196.25,139.467z
	 M161.369,152.941c1.063-1.267,2.119-2.535,3.175-3.8c0.157-0.107,0.32-0.22,0.479-0.321c2.422,2.168,4.864,4.335,7.293,6.5
	c0.309,0.368,0.633,0.739,0.948,1.112c-6.027,0.008-10.376,0.354-15.063,1.901c-0.056,0-0.101,0-0.162,0
	c0.705-1.843,1.875-2.713,1.904-5.392C160.419,152.941,160.891,152.941,161.369,152.941z M188.484,243.792
	c-0.819-2.885-2.631-5.048-3.013-8.878c-0.793-0.421-1.583-0.842-2.375-1.266c-0.812-2.14,1.83-5.024,0.628-7.616
	c-1.053-1.051-2.109-2.106-3.164-3.162c-0.801-2.963-1.589-5.926-2.383-8.884c-1.219-3.062-2.432-6.13-3.645-9.197
	c-0.457-1.94-0.063-4.57-0.159-6.495c-1.378-0.586-2.75-1.163-4.117-1.748c0-1.271,0-2.534,0-3.81
	c-3.666,0.543-4.282,3.434-6.669,5.082c-2.057,1.053-4.127,2.11-6.185,3.166c-13.687,3.695-27.375,7.398-41.066,11.098
	c0.9-0.845,1.798-1.688,2.701-2.532c-1.325-3.013-2.645-6.028-3.96-9.04c2.957-0.319,5.917-0.633,8.873-0.952
	c2.852-3.012,5.708-6.022,8.558-9.04c6.546-4.232,16.485-5.338,19.983-12.523c0.513-0.193,2.244,0.421,3.49,0.792
	c1.651-5.345,2.782-12.757,2.696-19.187c4.288-1.392,9.715-1.819,15.226-1.74c2.005,2.216,4.007,4.437,6.019,6.656
	c4.641,5.772,12.755,10.101,20.933,12.209c1.107,3.326,2.221,6.66,3.332,9.994c0.975,3.676,0.483,6.974,1.27,11.1
	c1.732,6.861,3.485,13.74,5.23,20.61c1.514,6.446,1.218,12.652,2.376,19.498c0.76,4.51,2.316,6.354,2.215,11.104
	c-7.063,2.856-15.109,3.34-23.626,5.392c0-0.689,0-1.378,0-2.062c-1.207-0.103-2.433-0.213-3.64-0.314
	C188.164,249.292,188.326,246.544,188.484,243.792z M68.933,197.346c0.365,0.886,0.742,1.795,1.107,2.684
	c2.813,2.278,15.374,8.176,19.351,8.884c4.771-2.507,9.932-5.187,12.207-10.148c0.209-0.162,0.418-0.319,0.635-0.471
	c2.022,3.684,2.631,1.465,6.024,3.17c2.464,1.232,4.647,4.608,5.545,7.29c1.408,4.208-0.998,7.086-1.747,10.308
	c-0.097,4.279-0.203,8.562-0.319,12.844c1.487,4.438,2.971,8.876,4.439,13.319c1.004,1.904,2.021,3.806,3.016,5.708
	c0.368,1.924-1.21,3.698-1.899,4.754c0.483,0.984,1.611,2.393,1.427,3.804c-0.214,1.118-0.421,2.224-0.635,3.332
	c0.635,2.537,1.27,5.079,1.905,7.613c-1.644,1.32-3.281,2.646-4.912,3.962c-2.179,1.675-4.541,4.07-7.136,5.23
	c-10.588,4.753-23.905-3.368-28.385-9.192c-1.64-2.014-3.279-4.018-4.916-6.024c-2.093-1.497-5.049-2.409-6.342-4.602
	c-1.794-6.978-3.596-13.955-5.39-20.933c0.315-1.427,0.636-2.855,0.951-4.28c-0.264-1.109-0.533-2.216-0.798-3.328
	c-0.843-4.066,1.915-5.923,1.433-9.197c-0.392-2.61-1.931-3.1-2.539-4.912c-0.163-2.802-0.315-5.601-0.478-8.405
	c-0.636-4.285-1.27-8.563-1.895-12.843c0.31-1.427,0.625-2.854,0.949-4.282C65.546,192.004,67.369,193.51,68.933,197.346z"/>
</svg>
