<?xml version="1.0" encoding="utf-8"?>
<!-- Generator: Adobe Illustrator 16.0.0, SVG Export Plug-In . SVG Version: 6.00 Build 0)  -->
<!DOCTYPE svg PUBLIC "-//W3C//DTD SVG 1.1 Tiny//EN" "http://www.w3.org/Graphics/SVG/1.1/DTD/svg11-tiny.dtd">
<svg version="1.1" baseProfile="tiny" id="Layer_1" xmlns="http://www.w3.org/2000/svg" xmlns:xlink="http://www.w3.org/1999/xlink"
	 x="0px" y="0px" width="350px" height="350px" viewBox="0 0 350 350" overflow="scroll" xml:space="preserve">
<g>
	<image width="124" height="36" xlink:href="911D0CD2.png"  transform="matrix(1 0 0 1 120 267)">
	</image>
	<path fill="#AA7F41" d="M181.933,280.892c0.111,0.364,0.318,0.701,0.61,0.923c0.069,0.052,0.091,0.119,0.081,0.187
		c1.381,1.374,3.474,1.78,4.948,3.034c1.687,1.439,2.164,3.72,3.523,5.449c2.349,2.988,5.782,4.282,9.333,4.608
		c4.174,0.388,8.686,0.256,12.761-0.736c1.835-0.448,3.99-1.201,5.117-2.944c1.015-1.567,1.298-3.503,0.934-5.365
		c0.03-0.281,0.02-0.584-0.047-0.916c-0.442-2.192-1.702-4.541-3.037-6.242c-1.539-1.959-3.488-3.71-5.604-4.912
		c-1.133-0.646-2.273-1.021-3.55-1.137c-1.27-0.117-2.632-0.123-3.836-0.614c-2.809-1.141-4.76-4.014-6.495-6.493
		c-0.932-1.333-1.462-2.637-1.552-4.311c-0.081-1.505-0.051-3.019,0.068-4.518c0.249-3.201,1.143-6.252,1.601-9.403
		c0.241-1.655,0.435-3.325,0.77-4.96c0.262-1.276,0.579-2.547,0.808-3.832c0.039,0,0.078-0.021,0.096-0.079
		c0.135-0.581,0.194-0.999-0.293-1.423c-0.471-0.41-1.047-0.756-1.626-1.023c0.002-0.009,0.002-0.016,0.003-0.023
		c0.028-0.135-0.142-0.164-0.193-0.056c-0.097-0.044-0.197-0.087-0.294-0.125c-1.732-0.646-3.616-0.782-5.442-0.67
		c-2.216,0.137-4.441,0.373-6.622,0.826c-0.849,0.175-2.152,0.395-2.308,1.486c-0.012,0.081,0.034,0.142,0.096,0.172
		c0.097,1.855,0.059,3.724,0.136,5.582c0.082,1.992,0.282,3.975,0.463,5.96c0.342,3.757,0.825,7.513,1.132,11.284
		c0.173,2.145-0.408,3.868-1.037,5.865c-0.446,1.422-0.557,2.919-0.555,4.413c0.002,1.807,0.094,3.61,0.087,5.421
		c-0.067,0.026-0.123,0.087-0.114,0.173c0.022,0.226,0.065,0.432,0.114,0.63c0.008,1.237,0.123,2.539-0.073,3.767
		C181.935,280.89,181.935,280.89,181.933,280.892"/>
	<image width="39" height="21" xlink:href="911D0CD6.png"  transform="matrix(1 0 0 1 181 275)">
	</image>
	<image width="24" height="42" xlink:href="911D0CD1.png"  transform="matrix(1 0 0 1 181 235)">
	</image>
	<image width="39" height="61" xlink:href="911D0CD3.png"  transform="matrix(1 0 0 1 181 235)">
	</image>
	<path fill="#1C1B19" d="M198.587,276.49c0.38-1.664,1.148-3.409,2.145-4.75c0.25-0.341,0.77,0.006,0.599,0.398
		c-0.624,1.453-1.364,2.968-1.699,4.538C199.48,277.388,198.427,277.197,198.587,276.49"/>
	<path fill="#1C1B19" d="M196.349,272.592c0.271-1.278,0.53-2.759,1.35-3.765c0.149-0.186,0.507-0.061,0.437,0.21
		c-0.342,1.303-0.548,2.628-0.808,3.952c-0.111,0.567-0.204,1.141-0.283,1.714c-0.044,0.3,0.021,0.712-0.19,0.946
		c-0.158,0.175-0.353,0.229-0.568,0.142c-0.012-0.004-0.024-0.009-0.038-0.014c-0.166-0.067-0.301-0.273-0.309-0.461
		C195.901,274.412,196.162,273.465,196.349,272.592"/>
	<path fill="#1C1B19" d="M193.44,269.71c0.094-1.41,0.578-2.488,1.13-3.732c0.11-0.255,0.513-0.14,0.449,0.147
		c-0.26,1.135-0.466,2.17-0.561,3.343c-0.088,1.076,0.095,2.232-0.096,3.29c-0.081,0.454-0.711,0.553-0.861,0.092
		C193.182,271.895,193.373,270.71,193.44,269.71"/>
	<path fill="#1C1B19" d="M189.206,268.778c0.058-1.36,0.765-2.62,1.512-3.686c0.434-0.62,0.925-1.214,1.447-1.744
		c0.474-0.482,1.082-0.708,1.562-1.153c0.226-0.212,0.49,0.15,0.34,0.388c-0.272,0.422-0.693,0.67-1.033,1.04
		c-0.45,0.49-0.803,1.18-1.139,1.767c-0.643,1.13-1.421,2.23-1.483,3.604C190.373,269.833,189.167,269.608,189.206,268.778"/>
	<path fill="#1C1B19" d="M187.521,263.304c0.381-1.322,1.468-2.052,2.375-2.951c1.118-1.105,2.529-2.206,4.021-2.615
		c0.366-0.099,0.585,0.442,0.218,0.593c-1.292,0.529-2.249,1.556-3.232,2.552c-0.69,0.699-1.961,1.646-2.233,2.63
		C188.459,264.271,187.305,264.067,187.521,263.304"/>
	<path fill="#1C1B19" d="M187.351,259.006c0.259-1.266,1.705-2.402,2.493-3.246c1.221-1.307,2.797-2.078,4.431-2.58
		c0.264-0.082,0.464,0.266,0.234,0.454c-0.572,0.478-1.214,0.732-1.848,1.113c-0.882,0.528-1.706,1.362-2.394,2.142
		c-0.455,0.517-0.961,0.98-1.333,1.57c-0.231,0.371-0.45,0.802-0.782,1.079C187.806,259.832,187.255,259.467,187.351,259.006"/>
	<path fill="#1C1B19" d="M187.451,253.341c2.06-2.293,4.687-3.134,7.452-3.962c0.243-0.074,0.48,0.294,0.228,0.444
		c-1.037,0.624-2.189,0.936-3.237,1.546c-1.271,0.739-2.514,1.668-3.539,2.754C187.831,254.682,186.93,253.923,187.451,253.341"/>
	<path fill="#1C1B19" d="M189.822,247.599c1.651-1.113,3.673-1.553,5.571-1.874c0.238-0.041,0.385,0.343,0.171,0.478
		c-2.339,1.483-5.426,1.555-7.052,4.245c-0.241,0.4-0.834,0.136-0.87-0.281C187.54,249.072,189.089,248.092,189.822,247.599"/>
	<path fill="#1C1B19" d="M187.672,245.491c2.12-1.783,6.125-3.021,8.802-2.843c0.112,0.008,0.181,0.183,0.079,0.258
		c-1.029,0.741-2.259,0.987-3.44,1.365c-1.708,0.543-3.328,1.208-4.893,2.125C187.71,246.695,187.221,245.869,187.672,245.491"/>
	<path fill="#1C1B19" d="M195.96,275.277c-0.021-0.258,0.115-0.505,0.343-0.6c2.344-0.982,5.533-1.336,7.947-0.593
		c0.212,0.064,0.326,0.455,0.051,0.527c-1.567,0.432-3.319,0.299-4.938,0.465c-0.889,0.088-2.147,0.858-3.009,0.705
		c-0.202-0.037-0.373-0.226-0.391-0.449C195.962,275.316,195.962,275.297,195.96,275.277"/>
	<path fill="#1C1B19" d="M193.175,271.794c0.884-0.852,2.452-0.676,3.564-0.755c1.618-0.113,3.158,0.358,4.637,0.974
		c0.152,0.065,0.112,0.328-0.051,0.338c-1.297,0.065-2.633-0.26-3.962-0.225c-1.314,0.034-2.577,0.451-3.867,0.567
		C193.003,272.738,192.845,272.116,193.175,271.794"/>
	<path fill="#1C1B19" d="M189.458,268.371c0.942-0.718,2.693-0.525,3.794-0.525c1.868-0.002,3.445,0.406,5.063,1.414
		c0.215,0.135,0.139,0.531-0.133,0.468c-1.449-0.316-2.737-0.743-4.236-0.729c-0.928,0.007-3-0.186-3.786,0.403
		C189.526,269.878,188.827,268.85,189.458,268.371"/>
	<path fill="#1C1B19" d="M188.106,263.417c1.359,0.163,2.476,0.158,3.77,0.736c1.393,0.623,2.296,1.194,3.454,2.223
		c0.215,0.19-0.004,0.498-0.241,0.412c-1.117-0.376-2.109-1.063-3.242-1.443c-1.367-0.465-2.53-0.559-3.934-0.72
		C187.176,264.542,187.373,263.329,188.106,263.417"/>
	<path fill="#1C1B19" d="M186.674,258.566c0.013-0.048,0.028-0.092,0.041-0.14c0.064-0.202,0.291-0.34,0.479-0.361
		c1.095-0.125,2.144,0.634,3.108,1.079c0.759,0.347,1.471,0.774,2.155,1.26c0.67,0.475,1.017,1.347,1.722,1.761
		c0.179,0.105,0.179,0.475-0.074,0.466c-0.392-0.004-0.623-0.131-0.942-0.379c-0.815-0.638-1.467-1.245-2.422-1.705
		c-0.714-0.339-1.466-0.579-2.185-0.909c-0.566-0.261-1.098-0.227-1.652-0.414C186.641,259.137,186.604,258.798,186.674,258.566"/>
	<path fill="#1C1B19" d="M186.772,253.674c0.001-0.004,0.001-0.004,0.003-0.007c0.054-0.164,0.233-0.277,0.391-0.294
		c1.167-0.126,2.273,0.576,3.281,1.116c1.512,0.816,2.922,2.081,3.902,3.546c0.151,0.223-0.111,0.442-0.305,0.31
		c-1.244-0.849-2.36-1.862-3.665-2.616c-0.584-0.336-1.187-0.654-1.798-0.938c-0.5-0.229-1.084-0.171-1.566-0.422
		C186.756,254.233,186.685,253.947,186.772,253.674"/>
	<path fill="#1C1B19" d="M188.085,249.679c2.758,0.347,4.885,2.312,6.729,4.325c0.191,0.206,0.009,0.627-0.272,0.466
		c-1.234-0.721-2.358-1.672-3.601-2.391c-0.718-0.418-1.464-0.727-2.264-0.915c-0.464-0.113-0.807-0.228-1.083-0.649
		C187.336,250.122,187.652,249.627,188.085,249.679"/>
	<path fill="#1C1B19" d="M187.521,246.146c0.388-0.166,0.752-0.016,1.145,0.064c0.901,0.184,1.894,0.512,2.726,0.933
		c1.433,0.717,3.025,1.539,3.683,3.165c0.055,0.134-0.095,0.299-0.221,0.222c-1.305-0.807-2.563-1.612-3.949-2.261
		c-1.03-0.486-2.621-0.479-3.525-1.184C187.055,246.833,187.174,246.293,187.521,246.146"/>
	<path fill="#1C1B19" d="M188.574,242.292c0.481,0.254,1.056,0.391,1.563,0.587c0.824,0.324,1.572,0.98,2.313,1.465
		c1.188,0.779,2.274,1.602,2.945,2.928c0.104,0.203-0.186,0.406-0.333,0.258c-1.108-1.092-2.416-1.811-3.709-2.62
		c-0.674-0.425-1.302-0.85-2.044-1.142c-0.446-0.178-0.909-0.226-1.264-0.58C187.644,242.789,188.038,242.011,188.574,242.292"/>
	<path fill="#AA7F41" d="M180.068,281.283c-0.099,0.373-0.293,0.72-0.576,0.959c-0.065,0.058-0.083,0.125-0.072,0.192
		c-1.33,1.452-3.409,1.98-4.837,3.323c-1.637,1.541-2.028,3.851-3.327,5.663c-2.245,3.141-5.647,4.646-9.215,5.193
		c-4.202,0.647-8.772,0.798-12.947,0.05c-1.883-0.337-4.107-0.965-5.321-2.652c-1.097-1.518-1.459-3.453-1.162-5.354
		c-0.039-0.282-0.043-0.591,0.017-0.93c0.36-2.238,1.556-4.684,2.846-6.475c1.49-2.066,3.404-3.94,5.505-5.271
		c1.124-0.717,2.267-1.154,3.558-1.347c1.277-0.186,2.655-0.268,3.855-0.829c2.792-1.305,4.649-4.297,6.303-6.88
		c0.886-1.387,1.368-2.724,1.396-4.407c0.022-1.513-0.065-3.029-0.243-4.528c-0.377-3.194-1.394-6.212-1.976-9.353
		c-0.308-1.65-0.566-3.314-0.969-4.94c-0.313-1.27-0.683-2.531-0.964-3.809c-0.039,0.001-0.08-0.018-0.097-0.076
		c-0.16-0.576-0.237-0.993,0.238-1.439c0.461-0.437,1.027-0.811,1.6-1.104c-0.001-0.008-0.003-0.015-0.004-0.024
		c-0.031-0.133,0.136-0.169,0.193-0.063c0.097-0.049,0.197-0.099,0.292-0.138c1.722-0.732,3.61-0.954,5.451-0.926
		c2.229,0.036,4.47,0.172,6.673,0.525c0.854,0.135,2.167,0.297,2.367,1.38c0.014,0.079-0.028,0.144-0.089,0.176
		c-0.026,1.859,0.083,3.724,0.079,5.588c-0.006,1.992-0.132,3.985-0.237,5.979c-0.193,3.771-0.535,7.553-0.695,11.341
		c-0.092,2.151,0.555,3.846,1.262,5.807c0.501,1.398,0.667,2.888,0.723,4.382c0.067,1.806,0.048,3.614,0.125,5.423
		c0.066,0.021,0.124,0.081,0.117,0.168c-0.015,0.226-0.048,0.435-0.088,0.635c0.039,1.237-0.027,2.543,0.218,3.759
		C180.066,281.283,180.066,281.283,180.068,281.283"/>
	<image width="39" height="23" xlink:href="911D0CD0.png"  transform="matrix(1 0 0 1 142 275)">
	</image>
	<image width="22" height="42" xlink:href="911D0CDE.png"  transform="matrix(1 0 0 1 157 236)">
	</image>
	<image width="39" height="62" xlink:href="911D0CD5.png"  transform="matrix(1 0 0 1 142 236)">
	</image>
	<path fill="#1C1B19" d="M163.178,277.829c-0.447-1.647-1.291-3.357-2.347-4.647c-0.266-0.328-0.776,0.05-0.589,0.435
		c0.686,1.423,1.491,2.903,1.891,4.461C162.312,278.781,163.368,278.53,163.178,277.829"/>
	<path fill="#1C1B19" d="M165.284,273.792c-0.322-1.268-0.642-2.737-1.507-3.704c-0.158-0.178-0.514-0.031-0.432,0.236
		c0.396,1.287,0.654,2.607,0.968,3.922c0.133,0.563,0.248,1.131,0.352,1.702c0.055,0.3,0.006,0.718,0.228,0.94
		c0.166,0.164,0.363,0.209,0.578,0.11c0.014-0.004,0.026-0.01,0.038-0.019c0.164-0.075,0.292-0.29,0.292-0.478
		C165.806,275.593,165.505,274.658,165.284,273.792"/>
	<path fill="#1C1B19" d="M168.1,270.74c-0.15-1.407-0.678-2.463-1.279-3.679c-0.124-0.25-0.524-0.113-0.448,0.17
		c0.305,1.125,0.553,2.151,0.694,3.32c0.129,1.077-0.009,2.247,0.223,3.296c0.097,0.451,0.735,0.514,0.87,0.044
		C168.443,272.915,168.205,271.74,168.1,270.74"/>
	<path fill="#1C1B19" d="M172.318,269.575c-0.111-1.36-0.872-2.583-1.661-3.61c-0.46-0.596-0.977-1.165-1.521-1.671
		c-0.492-0.457-1.116-0.651-1.615-1.071c-0.236-0.2-0.487,0.177-0.326,0.404c0.29,0.411,0.724,0.638,1.078,0.988
		c0.475,0.47,0.855,1.141,1.213,1.712c0.691,1.097,1.517,2.156,1.63,3.532C171.186,270.696,172.389,270.404,172.318,269.575"/>
	<path fill="#1C1B19" d="M173.797,264.005c-0.434-1.305-1.553-1.977-2.498-2.831c-1.165-1.051-2.626-2.077-4.141-2.411
		c-0.373-0.082-0.571,0.477-0.195,0.605c1.319,0.464,2.32,1.441,3.35,2.389c0.719,0.664,2.032,1.546,2.34,2.516
		C172.895,265.021,174.043,264.757,173.797,264.005"/>
	<path fill="#1C1B19" d="M173.804,259.693c-0.313-1.252-1.804-2.317-2.628-3.123c-1.276-1.245-2.891-1.939-4.557-2.361
		c-0.268-0.066-0.454,0.292-0.216,0.469c0.597,0.451,1.25,0.674,1.901,1.022c0.906,0.484,1.77,1.277,2.487,2.024
		c0.48,0.495,1.003,0.932,1.401,1.503c0.246,0.358,0.482,0.778,0.825,1.04C173.377,260.542,173.915,260.148,173.804,259.693"/>
	<path fill="#1C1B19" d="M173.481,254.026c-2.153-2.192-4.825-2.903-7.64-3.596c-0.248-0.061-0.472,0.317-0.21,0.456
		c1.064,0.574,2.237,0.829,3.315,1.389c1.306,0.678,2.588,1.545,3.66,2.581C173.155,255.389,174.03,254.585,173.481,254.026"/>
	<path fill="#1C1B19" d="M170.882,248.394c-1.7-1.034-3.752-1.377-5.674-1.604c-0.243-0.03-0.374,0.36-0.154,0.487
		c2.411,1.374,5.519,1.293,7.253,3.905c0.258,0.391,0.842,0.096,0.863-0.324C173.229,249.76,171.639,248.853,170.882,248.394"/>
	<path fill="#1C1B19" d="M172.96,246.179c-2.199-1.685-6.271-2.731-8.96-2.425c-0.113,0.014-0.176,0.194-0.068,0.263
		c1.065,0.694,2.314,0.882,3.516,1.203c1.739,0.461,3.391,1.05,4.995,1.892C172.968,247.388,173.428,246.537,172.96,246.179"/>
	<path fill="#1C1B19" d="M165.779,276.464c0.012-0.26-0.135-0.499-0.369-0.582c-2.399-0.854-5.633-1.032-8.044-0.146
		c-0.211,0.077-0.313,0.476-0.031,0.533c1.602,0.345,3.366,0.112,5.006,0.186c0.899,0.039,2.199,0.739,3.06,0.538
		c0.203-0.049,0.367-0.248,0.377-0.471C165.779,276.503,165.777,276.485,165.779,276.464"/>
	<path fill="#1C1B19" d="M168.446,272.817c-0.919-0.807-2.493-0.544-3.619-0.561c-1.633-0.024-3.169,0.532-4.638,1.234
		c-0.149,0.074-0.097,0.337,0.067,0.337c1.31-0.005,2.646-0.408,3.986-0.446c1.324-0.04,2.611,0.31,3.916,0.354
		C168.656,273.752,168.791,273.119,168.446,272.817"/>
	<path fill="#1C1B19" d="M172.051,269.181c-0.975-0.669-2.727-0.378-3.834-0.319c-1.88,0.1-3.453,0.597-5.044,1.696
		c-0.211,0.145-0.121,0.539,0.153,0.464c1.447-0.4,2.729-0.897,4.237-0.967c0.933-0.044,3.009-0.35,3.82,0.197
		C172.037,270.692,172.7,269.626,172.051,269.181"/>
	<path fill="#1C1B19" d="M173.212,264.149c-1.355,0.233-2.478,0.289-3.753,0.938c-1.377,0.697-2.262,1.319-3.391,2.416
		c-0.21,0.203,0.022,0.497,0.261,0.398c1.109-0.437,2.081-1.179,3.206-1.625c1.354-0.534,2.518-0.694,3.919-0.931
		C174.188,265.225,173.946,264.021,173.212,264.149"/>
	<path fill="#1C1B19" d="M174.463,259.218c-0.015-0.048-0.031-0.091-0.048-0.137c-0.07-0.2-0.303-0.326-0.493-0.339
		c-1.104-0.067-2.126,0.748-3.078,1.244c-0.746,0.387-1.447,0.852-2.115,1.373c-0.654,0.513-0.974,1.403-1.664,1.857
		c-0.174,0.113-0.162,0.485,0.092,0.465c0.396-0.027,0.62-0.166,0.934-0.434c0.795-0.683,1.427-1.324,2.37-1.834
		c0.703-0.38,1.448-0.657,2.157-1.024c0.558-0.292,1.091-0.284,1.641-0.501C174.519,259.788,174.542,259.445,174.463,259.218"/>
	<path fill="#1C1B19" d="M174.176,254.327c-0.002-0.004-0.002-0.004-0.003-0.007c-0.06-0.163-0.245-0.267-0.402-0.276
		c-1.177-0.065-2.259,0.695-3.249,1.285c-1.487,0.894-2.858,2.234-3.788,3.754c-0.145,0.231,0.131,0.438,0.319,0.295
		c1.218-0.915,2.3-1.988,3.583-2.811c0.574-0.366,1.167-0.716,1.771-1.031c0.49-0.254,1.076-0.227,1.552-0.5
		C174.215,254.886,174.277,254.597,174.176,254.327"/>
	<path fill="#1C1B19" d="M172.705,250.394c-2.754,0.481-4.816,2.558-6.596,4.672c-0.186,0.217,0.017,0.629,0.292,0.452
		c1.215-0.787,2.308-1.797,3.532-2.579c0.7-0.455,1.44-0.8,2.235-1.029c0.461-0.136,0.801-0.27,1.062-0.704
		C173.475,250.798,173.139,250.317,172.705,250.394"/>
	<path fill="#1C1B19" d="M173.135,246.828c-0.395-0.145-0.753,0.021-1.145,0.123c-0.898,0.226-1.881,0.603-2.702,1.063
		c-1.411,0.79-2.981,1.691-3.581,3.356c-0.049,0.136,0.106,0.297,0.231,0.211c1.282-0.874,2.515-1.743,3.884-2.463
		c1.016-0.538,2.614-0.609,3.492-1.358C173.628,247.493,173.488,246.957,173.135,246.828"/>
	<path fill="#1C1B19" d="M171.931,243.019c-0.473,0.277-1.044,0.443-1.546,0.665c-0.816,0.363-1.544,1.057-2.27,1.577
		c-1.164,0.841-2.224,1.717-2.85,3.079c-0.097,0.21,0.2,0.398,0.345,0.243c1.075-1.149,2.36-1.934,3.629-2.807
		c0.661-0.46,1.278-0.916,2.009-1.244c0.444-0.2,0.904-0.27,1.247-0.642C172.881,243.473,172.456,242.714,171.931,243.019"/>
	<path fill="#FFD7BB" d="M195.649,110.182c-0.013,0.008-0.021,0.02-0.032,0.028c-0.965-0.851-1.929-1.695-2.941-2.492
		c-1.15-0.914-3.021-1.8-3.131-3.405c-0.092-1.33-0.169-2.649-0.217-3.977c-0.02-0.617-0.079-1.236-0.061-1.852
		c0.01-0.259,0.029-0.52-0.091-0.751c-0.088-1.026-2.17-0.479-2.746-0.414c-1.414,0.158-2.876,0.099-4.303,0.165
		c-1.542,0.072-3.081,0.236-4.614,0.39c-3.036,0.311-6.029,0.919-9.065,1.281c-1.482,0.177-2.961,0.248-4.456,0.29
		c-0.906,0.028-2.264-0.195-3.127,0.21c-0.283-0.045-0.459,0.404-0.179,0.547c-0.126-0.065-0.049,0.829-0.053,0.779
		c0.045,0.586,0.045,1.174,0.048,1.762c0.005,1.281,0.061,2.565,0,3.849c-0.044,0.984-2.062,1.242-2.747,1.572
		c-1.046,0.504-2.032,1.121-3.064,1.651c-0.042-0.041-0.085-0.08-0.125-0.121c-0.113-0.113-0.319,0.034-0.223,0.171
		c1.177,1.692,2.728,3.118,4.237,4.502c1.715,1.576,3.424,3.161,5.196,4.669c1.73,1.469,3.517,2.869,5.363,4.185
		c1.563,1.114,3.276,2.532,5.271,2.493c1.877-0.034,3.751-1.279,5.282-2.235c2.033-1.272,4.03-2.605,5.981-3.992
		c1.882-1.339,3.7-2.757,5.478-4.223c0.827-0.685,1.606-1.421,2.354-2.193c0.8-0.824,1.405-1.831,2.223-2.621
		C196.081,110.28,195.825,110.032,195.649,110.182"/>
	<path fill="#DD9F80" d="M195.649,110.18c-0.012,0.008-0.02,0.021-0.032,0.031c-0.964-0.852-1.931-1.697-2.941-2.493
		c-1.15-0.914-3.021-1.802-3.129-3.407c-0.094-1.33-0.173-2.647-0.218-3.975c-0.022-0.616-0.08-1.236-0.06-1.853
		c0.006-0.256,0.027-0.517-0.091-0.748c-0.092-1.028-2.172-0.481-2.748-0.416c-1.416,0.158-2.878,0.099-4.305,0.165
		c-1.54,0.072-3.081,0.235-4.612,0.392c-3.034,0.309-6.029,0.917-9.064,1.279c-1.485,0.177-2.962,0.246-4.457,0.29
		c-0.906,0.028-2.262-0.197-3.127,0.21c-0.283-0.047-0.458,0.406-0.177,0.548c-0.128-0.065-0.051,0.827-0.055,0.78
		c0.046,0.583,0.046,1.173,0.05,1.76c0.005,1.281,0.057,2.565,0,3.849c-0.046,0.986-2.063,1.244-2.749,1.57
		c-1.046,0.505-2.033,1.121-3.064,1.652c-0.041-0.041-0.085-0.08-0.125-0.123c-0.113-0.112-0.321,0.036-0.223,0.174
		c1.178,1.69,2.729,3.115,4.237,4.501c1.717,1.575,3.422,3.158,5.196,4.668c1.729,1.469,3.517,2.869,5.362,4.183
		c1.562,1.115,3.278,2.534,5.271,2.497c1.878-0.036,3.752-1.28,5.283-2.238c2.035-1.271,4.028-2.604,5.981-3.992
		c1.88-1.337,3.698-2.754,5.476-4.219c0.829-0.685,1.608-1.421,2.356-2.193c0.798-0.826,1.405-1.835,2.223-2.625
		C196.079,110.28,195.824,110.03,195.649,110.18 M193.819,112.187c-0.745,0.771-1.539,1.494-2.346,2.199
		c-1.68,1.472-3.479,2.819-5.292,4.129c-1.765,1.279-3.578,2.488-5.413,3.67c-1.754,1.129-3.528,2.339-5.582,2.826
		c-2.158,0.51-4.216-1.348-5.875-2.529c-1.806-1.285-3.539-2.672-5.233-4.101c-3.175-2.674-6.177-5.54-9.109-8.469
		c1.365-0.534,2.655-1.233,4.061-1.653c0.697-0.208,2.052-0.487,2.171-1.398c0.207-1.574,0.058-3.235,0.048-4.818
		c-0.004-0.647-0.034-1.292-0.029-1.938c0-0.051-0.007-0.096-0.017-0.136c0.449-0.035,0.934,0.044,1.368,0.047
		c0.59,0.007,1.179-0.005,1.77-0.005c1.251,0,2.491-0.08,3.734-0.205c2.55-0.25,5.069-0.716,7.6-1.068
		c0.988-0.138,12.875-1.119,12.953-0.855c0.002,0.006,0.005,0.011,0.009,0.016c0.006,0.063,0.029,0.108,0.061,0.151
		c0.147,0.387,0.013,1.264,0.026,1.606c0.032,0.707,0.047,1.415,0.071,2.119c0.025,0.737,0.089,1.472,0.16,2.206
		c0.044,0.445-0.023,1.085,0.225,1.487c0.536,0.874,1.505,1.403,2.333,1.957c1.366,0.913,2.709,1.869,4.013,2.874
		C194.896,110.866,194.409,111.575,193.819,112.187"/>
	<path fill="#DD9F80" d="M195.649,110.18c-0.012,0.008-0.02,0.021-0.032,0.031c-0.964-0.852-1.931-1.697-2.941-2.493
		c-1.15-0.914-3.021-1.802-3.129-3.407c-0.094-1.33-0.173-2.647-0.218-3.975c-0.022-0.616-0.08-1.236-0.06-1.853
		c0.006-0.256,0.027-0.517-0.091-0.748c-0.092-1.028-2.172-0.481-2.748-0.416c-1.416,0.158-2.878,0.099-4.305,0.165
		c-1.54,0.072-3.081,0.235-4.612,0.392c-3.034,0.309-6.029,0.917-9.064,1.279c-1.485,0.177-2.962,0.246-4.457,0.29
		c-0.906,0.028-2.262-0.197-3.127,0.21c-0.283-0.047-0.458,0.406-0.177,0.548c-0.128-0.065-0.051,0.827-0.055,0.78
		c0.046,0.583,0.046,1.173,0.05,1.76c0.005,1.281,0.057,2.565,0,3.849c-0.046,0.986-2.063,1.244-2.749,1.57
		c-1.046,0.505-2.033,1.121-3.064,1.652c-0.041-0.041-0.085-0.08-0.125-0.123c-0.113-0.112-0.321,0.036-0.223,0.174
		c1.178,1.69,2.729,3.115,4.237,4.501c1.717,1.575,3.422,3.158,5.196,4.668c1.729,1.469,3.517,2.869,5.362,4.183
		c1.562,1.115,3.278,2.534,5.271,2.497c1.878-0.036,3.752-1.28,5.283-2.238c2.035-1.271,4.028-2.604,5.981-3.992
		c1.88-1.337,3.698-2.754,5.476-4.219c0.829-0.685,1.608-1.421,2.356-2.193c0.798-0.826,1.405-1.835,2.223-2.625
		C196.079,110.28,195.824,110.03,195.649,110.18 M193.819,112.187c-0.745,0.771-1.539,1.494-2.346,2.199
		c-1.68,1.472-3.479,2.819-5.292,4.129c-1.765,1.279-3.578,2.488-5.413,3.67c-1.754,1.129-3.528,2.339-5.582,2.826
		c-2.158,0.51-4.216-1.348-5.875-2.529c-1.806-1.285-3.539-2.672-5.233-4.101c-3.175-2.674-6.177-5.54-9.109-8.469
		c1.365-0.534,2.655-1.233,4.061-1.653c0.697-0.208,2.052-0.487,2.171-1.398c0.207-1.574,0.058-3.235,0.048-4.818
		c-0.004-0.647-0.034-1.292-0.029-1.938c0-0.051-0.007-0.096-0.017-0.136c0.449-0.035,0.934,0.044,1.368,0.047
		c0.59,0.007,1.179-0.005,1.77-0.005c1.251,0,2.491-0.08,3.734-0.205c2.55-0.25,5.069-0.716,7.6-1.068
		c0.988-0.138,12.875-1.119,12.953-0.855c0.002,0.006,0.005,0.011,0.009,0.016c0.006,0.063,0.029,0.108,0.061,0.151
		c0.147,0.387,0.013,1.264,0.026,1.606c0.032,0.707,0.047,1.415,0.071,2.119c0.025,0.737,0.089,1.472,0.16,2.206
		c0.044,0.445-0.023,1.085,0.225,1.487c0.536,0.874,1.505,1.403,2.333,1.957c1.366,0.913,2.709,1.869,4.013,2.874
		C194.896,110.866,194.409,111.575,193.819,112.187"/>
	<path fill="#F0AF85" d="M195.649,110.182c-0.013,0.008-0.021,0.02-0.032,0.028c-0.965-0.851-1.929-1.695-2.941-2.492
		c-1.15-0.914-3.021-1.8-3.131-3.405c-0.092-1.33-0.169-2.649-0.217-3.977c-0.02-0.617-0.079-1.236-0.061-1.852
		c0.01-0.259,0.029-0.52-0.091-0.751c-0.088-1.026-2.17-0.479-2.746-0.414c-1.414,0.158-2.876,0.099-4.303,0.165
		c-1.542,0.072-3.081,0.236-4.614,0.39c-3.036,0.311-6.029,0.919-9.065,1.281c-1.482,0.177-2.961,0.248-4.456,0.29
		c-0.906,0.028-2.264-0.195-3.127,0.21c-0.283-0.045-0.459,0.404-0.179,0.547c-0.126-0.065-0.049,0.829-0.053,0.779
		c0.045,0.586,0.045,1.174,0.048,1.762c0.005,1.281,0.061,2.565,0,3.849c-0.044,0.984-2.062,1.242-2.747,1.572
		c-1.046,0.504-2.032,1.121-3.064,1.651c-0.042-0.041-0.085-0.08-0.125-0.121c-0.113-0.113-0.319,0.034-0.223,0.171
		c1.177,1.692,2.728,3.118,4.237,4.502c1.715,1.576,3.424,3.161,5.196,4.669c1.73,1.469,3.517,2.869,5.363,4.185
		c1.563,1.114,3.276,2.532,5.271,2.493c1.877-0.034,3.751-1.279,5.282-2.235c2.033-1.272,4.03-2.605,5.981-3.992
		c1.882-1.339,3.7-2.757,5.478-4.223c0.827-0.685,1.606-1.421,2.354-2.193c0.8-0.824,1.405-1.831,2.223-2.621
		C196.081,110.28,195.825,110.032,195.649,110.182"/>
	<image width="30" height="15" xlink:href="911D0CD7.png"  transform="matrix(1 0 0 1 160 97)">
	</image>
	<path d="M189.788,102.028c0,0,8.156-7.791,10.082-23.555c1.923-15.763-45.829-13.833-48.486-2.36
		c-2.658,11.476,2.406,21.292,7.709,26.035C164.397,106.889,189.788,102.028,189.788,102.028"/>
	<image width="50" height="38" xlink:href="911D0CD4.png"  transform="matrix(1 0 0 1 150 67)">
	</image>
	<path fill="#F0AF85" d="M197.716,87.685c-0.774-1.591-2.473-2.04-3.629-0.969c0.363-2.268,0.37-4.504,0.395-6.86
		c0.02-2.108,0.101-4.241-0.217-6.323c-0.343-2.261-1.336-2.944-2.696-4.386c-0.821-0.872-1.541-1.78-2.476-2.489
		c-0.986-0.747-2.104-1.286-3.202-1.74c-4.544-1.879-9.673-1.905-14.355-0.889c-4.37,0.95-8.702,3.04-12.166,6.447
		c-1.572,1.549-2.9,3.457-3.853,5.625c-0.463,1.058-0.783,2.193-1.013,3.356c-0.234,1.197-0.47,2.434-0.31,3.653
		c0.026,1.212,0.114,2.423,0.254,3.626c-1.167-0.786-2.511-0.712-3.336,0.708c-0.853,1.458-0.928,3.146-0.325,4.764
		c0.657,1.758,1.806,3.232,3.27,4.018c0.729,0.39,2.035,0.826,2.844,0.351c0.763,1.957,1.669,3.827,2.706,5.57
		c1.727,2.914,4.067,4.783,6.646,6.452c2.784,1.802,5.946,2.347,9.064,2.071c0.008,0,0.01-0.007,0.019-0.01
		c1.59-0.179,3.219-0.763,4.633-1.401c1.992-0.898,3.778-1.724,5.469-3.335c1.736-1.656,3.179-3.597,4.446-5.785
		c0.651-1.125,1.23-2.304,1.831-3.466c0.422-0.816,0.832-1.72,0.873-2.695c0.014-0.066,0.026-0.131,0.038-0.201
		c0.32,1.233,1.515,1.748,2.572,1.569c1.341-0.228,2.211-1.48,2.701-2.926C198.404,90.938,198.395,89.078,197.716,87.685"/>
	<image width="16" height="29" xlink:href="F932DAA5.png"  transform="matrix(1 0 0 1 150 66)">
	</image>
	<image width="8" height="4" xlink:href="F932DABB.png"  transform="matrix(1 0 0 1 170 101)">
	</image>
	<image width="25" height="7" xlink:href="F932DABD.png"  transform="matrix(1 0 0 1 163 104)">
	</image>
	<path fill="#845B31" d="M169.897,109.515c0,0,1.741-1.661,4.628-1.768s4.676,1.126,4.676,1.126l2.338-1.019
		c0,0-2.521-2.896-7.149-2.413c-4.63,0.482-6.784,3.11-6.784,3.11S169.162,109.41,169.897,109.515"/>
	<image width="15" height="5" xlink:href="F932DABF.png"  transform="matrix(1 0 0 1 167 105)">
	</image>
	<image width="15" height="5" xlink:href="F932DABC.png"  transform="matrix(1 0 0 1 167 105)">
	</image>
	<path fill="#845B31" d="M153.857,80.295c0,0,1.833,18.232,8.006,23.736c3.235,2.882,6.576,5.874,12.616,5.431
		c5.134-0.375,9.089-2.487,12.985-7.149c7.824-9.355,6.416-22.732,5.929-27.094c0,0,1.404-0.355,2.868,1.288
		c0,0,1.53,16.943-7.515,27.094c-9.043,10.149-19.983,9.834-27.983,1.643c-1.467-1.498-7.272-7.934-9.105-23.589L153.857,80.295z"/>
	<image width="46" height="38" xlink:href="F932DAA4.png"  transform="matrix(1 0 0 1 151 74)">
	</image>
	<image width="46" height="37" xlink:href="F932DAA7.png"  transform="matrix(1 0 0 1 151 75)">
	</image>
	<image width="46" height="37" xlink:href="F932DAA2.png"  transform="matrix(1 0 0 1 151 75)">
	</image>
	<path fill="#DCA256" d="M202.982,78.924c-0.018-0.123-0.058-0.234-0.1-0.34c-0.043-0.108-0.075-0.224-0.127-0.323
		c-0.112-0.19-0.199-0.408-0.334-0.571c-0.243-0.357-0.537-0.673-0.826-0.951l-0.251-0.222c-0.261-5.866-1.858-13.915-6.482-20.095
		c-5.149-6.87-12.722-9.843-22.508-8.83c-13.491,1.394-19.273,10.25-21.748,17.437c-2.301,6.676-2.244,13.174-2.179,14.925
		c-0.435,0.442-0.845,0.935-1.187,1.517c-0.208,0.368-0.392,0.766-0.493,1.219c-0.101,0.446-0.104,0.983,0.147,1.43
		c0.068,0.104,0.138,0.205,0.233,0.288l0.146,0.118c0.048,0.031,0.089,0.045,0.133,0.071l0.064,0.034
		c-0.003-0.001,0.042,0.02,0.051,0.02l0.038,0.01l0.15,0.041c0.099,0.021,0.197,0.064,0.299,0.065
		c0.404,0.052,0.808,0.003,1.194-0.094c0.388-0.111,0.766-0.249,1.132-0.441c0.355-0.184,0.712-0.373,1.071-0.563
		c0.709-0.388,1.44-0.738,2.18-1.091c0.735-0.371,1.5-0.667,2.263-1c0.759-0.341,1.546-0.619,2.333-0.908
		c0.395-0.145,0.789-0.291,1.187-0.436c0.396-0.149,0.806-0.255,1.209-0.386c0.81-0.243,1.625-0.503,2.444-0.74
		c0.828-0.199,1.662-0.4,2.499-0.603c0.42-0.096,0.837-0.217,1.259-0.291c0.424-0.075,0.849-0.148,1.272-0.221
		c0.85-0.149,1.702-0.299,2.557-0.451c0.861-0.089,1.729-0.181,2.593-0.271l1.301-0.136c0.213-0.021,0.437-0.053,0.644-0.063
		l0.65-0.029c3.466-0.185,6.943-0.017,10.339,0.438c3.394,0.465,6.707,1.179,9.866,2.101c1.58,0.462,3.122,0.966,4.614,1.522
		c0.193,0.067,0.355,0.147,0.586,0.195c0.219,0.051,0.443,0.037,0.655-0.021c0.426-0.117,0.806-0.449,1.012-0.9
		C203.083,79.929,203.1,79.382,202.982,78.924"/>
	<path fill="#95856D" d="M201.347,76.518c-0.076-1.692-0.28-3.578-0.62-5.536c-1.952-0.791-30.606-11.974-52.147,3.924
		c-0.205,2.397-0.182,4.238-0.151,5.049C148.428,79.956,171.105,62.271,201.347,76.518"/>
	<image width="58" height="36" xlink:href="F932DAA3.png"  transform="matrix(1 0 0 1 146 49)">
	</image>
	<path fill="#2B2609" d="M169.883,101.157c0,0,0.097-0.097,0.285-0.245c0.192-0.142,0.461-0.373,0.881-0.498
		c0.205-0.064,0.462-0.099,0.736,0.006c0.203,0.054,0.462,0.137,0.684,0.148c0.458,0.067,1.02,0.072,1.545,0.061
		c0.536,0.003,1.068-0.035,1.559-0.104c0.22-0.074,0.499-0.067,0.653-0.173c0.072-0.028,0.204-0.089,0.298-0.15
		c0.083-0.061,0.187-0.113,0.328-0.129c0.51-0.061,0.774,0.261,0.945,0.409c0.169,0.172,0.246,0.286,0.246,0.286
		s-0.099-0.099-0.29-0.232c-0.182-0.129-0.524-0.315-0.841-0.234c-0.067,0.003-0.153,0.049-0.242,0.126
		c-0.086,0.069-0.16,0.108-0.291,0.192c-0.234,0.171-0.479,0.177-0.74,0.266c-0.516,0.092-1.067,0.149-1.618,0.165
		c-0.56-0.01-1.091-0.028-1.637-0.128c-0.289-0.033-0.491-0.133-0.732-0.227c-0.159-0.081-0.364-0.093-0.548-0.051
		c-0.374,0.072-0.689,0.215-0.896,0.327C169.995,101.079,169.883,101.157,169.883,101.157"/>
	<path d="M173.573,85.061l-1.744,11.136l-0.081-0.302c0.086,0.074,0.235,0.176,0.368,0.246c0.142,0.066,0.282,0.135,0.434,0.177
		c0.298,0.089,0.604,0.14,0.929,0.156c0.653,0.021,1.344-0.159,2.076-0.377c0.024-0.009,0.049,0.005,0.056,0.028
		c0.003,0.015,0,0.031-0.01,0.042c-0.516,0.58-1.242,0.983-2.078,1.106c-0.415,0.052-0.86,0.012-1.262-0.148
		c-0.203-0.075-0.395-0.184-0.569-0.305c-0.181-0.133-0.33-0.254-0.498-0.451l-0.008-0.01c-0.07-0.085-0.095-0.195-0.072-0.295
		l2.378-11.018c0.005-0.024,0.026-0.037,0.05-0.032C173.563,85.018,173.577,85.04,173.573,85.061"/>
	<path d="M173.004,79.404c0,0-0.042,3.459-1.276,2.208c-2.816-2.856-9.11-1.559-11.489-0.066c0,0,8.565-1.569,11.27,0.52
		C172.433,82.781,173.004,81.481,173.004,79.404"/>
	<path d="M175.895,79.928c0,0,0.323,3.439,1.341,2.066c2.326-3.132,8.151-2.487,10.436-1.245c0,0-7.913-0.681-10.197,1.676
		C176.691,83.231,176.065,81.997,175.895,79.928"/>
	<path fill="#FFFCD7" d="M178.225,83.124c0,0,0.585,0.218,1.185-0.131c0.599-0.35,4.327-2.319,7.602-0.129
		C187.011,82.863,183.929,85.753,178.225,83.124"/>
	<path d="M184.13,84.115c0.259-0.325,0.419-0.749,0.419-1.217c0-0.374-0.103-0.722-0.272-1.012c-1.044-0.107-2.03,0.044-2.847,0.274
		c-0.088,0.227-0.139,0.475-0.139,0.738c0,0.489,0.174,0.929,0.449,1.259C182.649,84.264,183.45,84.232,184.13,84.115"/>
	<path fill="#FFFCD7" d="M170.583,83.124c0,0-0.586,0.218-1.185-0.131c-0.6-0.35-4.328-2.319-7.603-0.129
		C161.796,82.863,164.878,85.753,170.583,83.124"/>
	<path d="M164.678,84.115c-0.257-0.325-0.418-0.749-0.418-1.217c0-0.374,0.101-0.722,0.271-1.012
		c1.044-0.107,2.03,0.044,2.846,0.274c0.089,0.227,0.14,0.475,0.14,0.738c0,0.489-0.172,0.929-0.448,1.259
		C166.158,84.264,165.355,84.232,164.678,84.115"/>
	<path fill="#F0AF85" d="M220.479,197.033c-0.074-2.021-0.424-4.008-0.494-6.024c-0.033-0.903,0.061-1.801,0.044-2.704
		c-0.018-0.894-0.202-1.79-0.313-2.678c-0.112-0.896-0.154-1.804-0.179-2.712c0.039-0.835,0.041-1.664,0.179-2.496
		c0.051-0.293,0.217-0.762-0.005-1.033c-0.755-0.93-2.845-0.533-3.821-0.385c-0.805,0.127-1.813,0.207-2.46,0.78
		c-0.707,0.625-0.628,1.577-0.507,2.486c-0.021,1.438-0.008,2.899-0.649,4.199c-0.616,1.25-1.599,2.232-2.167,3.525
		c-0.516,1.173-0.384,2.462-0.149,3.696c0.337,1.768,0.279,3.288,0.104,5.052c-0.044,0.467-0.202,1.877,0.486,2.064
		c0.215,0.06,0.42,0.053,0.615,0.007c-0.041,0.043-0.086,0.082-0.127,0.125c-0.595,0.618-1.552,3.129-0.173,3.379
		c-0.115,0.614-0.103,1.314,0.428,1.426c0.559,0.121,1.119-0.17,1.593-0.528c-0.575,1.065-0.842,2.216-0.01,2.9
		c0.063,0.126,0.163,0.229,0.452,0.061c0.76-0.441,1.738-0.938,2.317-1.606c0.326-0.378,0.478-0.993,0.659-1.452
		c0.283-0.717,0.939-1.4,1.398-1.993c0.688-0.896,1.476-1.707,2.187-2.583c0.063,0.021,0.133,0.009,0.171-0.076
		c0.166-0.345,0.613-0.743,0.579-1.185C220.581,198.529,220.506,197.782,220.479,197.033"/>
	<image width="12" height="31" xlink:href="F932DAAB.png"  transform="matrix(1 0 0 1 209 178)">
	</image>
	<image width="12" height="20" xlink:href="F932DAC0.png"  transform="matrix(1 0 0 1 209 189)">
	</image>
	<path fill="#F0AF85" d="M212.384,207.318c-0.017-1.445,1.213-3.354,1.938-4.103c0.701-0.723,1.127-1.325,1.608-2.219
		c0.515-0.962,1.521-2.175,1.116-3.354c-0.284-0.83-0.738-1.595-1.147-2.364c-0.448-0.848-0.943-1.664-1.952-1.541
		c-0.114,0.068-0.222,0.136-0.297,0.18c-0.004,0.002-0.008,0.002-0.013,0.004c-0.259,1.333-0.074,2.843-0.344,4.148
		c-0.291,1.432-1.578,2.242-2.521,3.226c-0.553,0.917-1.098,2.803,0.089,3.018c-0.115,0.616-0.103,1.316,0.428,1.43
		c0.559,0.118,1.119-0.172,1.593-0.53C212.494,205.934,212.246,206.692,212.384,207.318"/>
	<image width="8" height="15" xlink:href="F932DAC3.png"  transform="matrix(1 0 0 1 210 193)">
	</image>
	<image width="12" height="31" xlink:href="F932DAC1.png"  transform="matrix(1 0 0 1 209 178)">
	</image>
	<path fill="#F0AF85" d="M161.759,76.829c-1.246-1.357-3.235-0.962-4.74-0.251c-0.213,0.101-0.422,0.207-0.632,0.317
		c0.289-0.406,0.54-0.854,0.782-1.23c0.619-0.968,1.359-1.849,1.977-2.818c0.784-1.237,2.081-3.404,1.676-4.981
		c0.522-1.336,0.745-2.675-0.359-2.745c-0.08-0.158-0.192-0.28-0.352-0.313c-0.024-0.053-0.077-0.092-0.149-0.07
		c-2.402,0.65-4.697,2.322-6.646,3.815c-0.909,0.696-1.734,1.498-2.564,2.286c-0.673,0.637-1.438,1.262-2.095,1.948
		c-2.247,1.758-4.46,3.557-6.726,5.295c-1.618,1.246-3.862,2.59-4.556,4.624c-0.229,0.667-0.282,1.382-0.568,2.03
		c-0.28,0.628-0.916,1.106-1.431,1.539c-0.926,0.78-1.766,1.789-2.737,2.518c-0.014-0.001-0.027-0.009-0.04-0.006
		c-0.764,0.119-0.767,1.005-0.832,1.628c-0.14,1.325,0.197,2.718,0.786,3.895c0.487,0.974,1.523,1.444,2.524,1.704
		c0.543,0.142,1.095,0.252,1.657,0.236c0.275-0.01,0.496-0.197,0.696-0.394c2.108-1.646,3.909-3.84,6.369-4.907
		c1.521-0.211,2.97-0.571,4.309-1.543c2.074-1.514,3.681-3.464,5.933-4.768c1.929-1.115,2.587-3.292,4.118-4.836
		c0.837-0.842,1.94-1.264,2.956-1.832c0.326-0.182,0.623-0.528,0.533-0.891C161.759,77.088,161.849,76.925,161.759,76.829"/>
	<image width="31" height="31" xlink:href="F932DACF.png"  transform="matrix(1 0 0 1 131 66)">
	</image>
	<image width="10" height="9" xlink:href="F932DAC2.png"  transform="matrix(1 0 0 1 145 77)">
	</image>
	<image width="31" height="33" xlink:href="F932DAC5.png"  transform="matrix(1 0 0 1 131 64)">
	</image>
	<path fill="#DCA256" d="M226.391,138.663c-0.243-1.656-0.222-3.382-0.287-5.048c-0.144-3.639-0.277-7.271-0.618-10.886
		c-0.239-2.549-0.341-5.472-2.829-6.877c-1.033-0.583-2.299-0.507-3.424-0.594c-0.614-0.048-1.229-0.053-1.845-0.051
		c0.005-0.077-0.033-0.161-0.118-0.187c-0.902-0.274-1.726-0.727-2.607-1.051c-1.212-0.446-2.438-0.873-3.624-1.385
		c-2.337-1.011-4.679-2.208-7.128-2.891c-1.188-0.331-2.406-0.373-3.571-0.802c-1.047-0.384-1.979-1.047-3.026-1.407
		c-0.707-0.241-1.264,0.146-1.966-0.415c-0.339-0.269-0.585-0.696-0.886-1.011c-0.375-0.394-0.93-0.537-1.438-0.447
		c-0.415-0.597-0.96-1.149-1.372-1.649c-0.133-0.164-0.973-1.197-1.319-0.926c-0.079-0.018-0.171,0-0.233,0.085
		c-0.574,0.77-0.941,1.697-1.535,2.475c-0.62,0.814-1.329,1.59-2.033,2.329c-1.507,1.582-3.183,3.005-4.729,4.558
		c-1.587,1.592-3.197,3.126-4.922,4.572c-0.739,0.618-1.517,1.197-2.277,1.792c-0.34,0.265-0.709,0.537-0.825,0.949
		c-0.592-0.507-1.046-1.167-1.575-1.736c-1.233-1.321-2.615-2.495-3.857-3.808c-1.317-1.396-2.576-2.818-3.967-4.144
		c-0.76-0.723-1.481-1.494-2.296-2.157c-0.309-0.252-0.74-0.676-1.097-1.123c0.006-0.236-0.166-0.532-0.243-0.75
		c-0.112-0.322-0.205-0.648-0.401-0.929c-0.153-0.213-0.378-0.403-0.642-0.438c-0.184-0.023-0.32,0.033-0.438,0.125
		c-0.106-0.042-0.234-0.027-0.315,0.093c-0.364,0.532-0.9,1.044-1.31,1.558c-0.49,0.617-0.972,1.246-1.503,1.828
		c-0.086,0.092-0.145,0.199-0.184,0.315c-2.822,0.653-5.748,0.92-8.63,1.231c-0.138-0.377-0.301-0.747-0.548-1.069
		c-0.814-1.07-2.695-1.032-3.874-1.057c-2.343-0.053-4.645-0.272-6.923-0.832c-1.011-0.251-2.008-0.489-3.039-0.65
		c-0.558-0.086-1.799-0.133-2.232-0.629c0.938-1.866,1.962-3.686,3.746-4.871c0.661-0.44,1.556-0.694,2.038-1.37
		c0.656-0.921,0.036-2.002-0.145-2.999c-0.007-0.03-0.024-0.044-0.038-0.066c1.036-0.617,1.9-1.505,2.871-2.212
		c1.021-0.749,2.058-1.359,2.721-2.478c0.028-0.048,0.033-0.096,0.022-0.138c0.134-0.121,0.254-0.274,0.354-0.464
		c0.035-0.069-0.037-0.149-0.106-0.11c-0.243,0.139-0.739,0.458-0.906,0.466c-0.341,0.021-0.75-0.122-1.088-0.195
		c-0.95-0.205-1.702-1.189-2.185-1.965c-0.808-1.3-1.004-2.805-1.28-4.272c0.072-0.057,0.069-0.195-0.036-0.213
		c-0.636-0.116-1.034-0.274-1.674-0.077c-0.745,0.23-1.382,0.879-1.978,1.356c-0.757,0.603-1.521,1.191-2.26,1.811
		c-0.431-0.343-0.73-0.742-1.258-0.987c-0.443-0.203-0.952-0.281-1.435-0.319c-0.896-0.074-1.45,0.556-1.828,1.286
		c-0.752,1.45-1.842,2.467-3,3.589c-1.126,1.095-2.175,2.275-3.176,3.488c-1.229,1.157-2.444,2.299-3.916,3.156
		c-1.411,0.821-2.813,1.585-3.981,2.753c-1.146,1.149-1.804,2.749-2.666,4.106c-0.93,1.474-2.116,2.778-2.558,4.507
		c-0.352,1.388,0.482,2.687,1.087,3.855c0.722,1.387,0.99,2.959,1.87,4.269c0.834,1.248,2.15,2.271,3.307,3.194
		c1.644,1.313,3.236,2.664,4.82,4.049c0.057,0.051,0.125,0.052,0.178,0.023c4.042,3.373,8.291,6.439,12.546,9.543
		c2.356,1.72,4.329,3.642,5.979,6.084c0.746,1.103,1.492,2.204,2.245,3.304c0.664,0.965,1.159,2,1.655,3.051
		c0.072,0.998,0.157,1.994,0.263,2.988c0.104,1.003,0.354,1.97,0.608,2.939c-0.002-0.008-0.005-0.013-0.01-0.021
		c-0.015-0.033-0.067-0.012-0.06,0.026c1.331,4.572,2.067,9.281,3.792,13.761c1.183,3.069,2.595,6.232,4.881,8.59
		c-0.685,0.549-1.181,1.347-1.712,2.04c-0.737,0.969-1.604,1.854-2.396,2.782c-0.692,0.814-1.454,1.605-2.097,2.463
		c-0.58,0.774-1.009,2.246-1.844,2.811c-0.007-0.006-0.013-0.016-0.018-0.021c-0.145-0.181-0.383,0.075-0.248,0.255
		c0.604,0.811,1.587,1.425,2.388,2.017c0.819,0.61,1.707,1.153,2.613,1.65c-1.061,0.283-1.526,2.504-1.418,3.348
		c0.104,0.788,0.709,1.192,1.349,1.472c0.169,0.073,0.328,0.159,0.482,0.255c-0.176,0.925-0.912,1.213-0.21,2.155
		c1.081,1.458,1.398,3.206,1.818,4.98c0.851,3.627,1.55,7.299,2.418,10.937c0.828,3.486,2.339,7.113,1.816,10.778
		c-0.184,1.293-0.253,2.45,0.277,3.665c0.229,0.53,0.662,1.039,1.161,1.477c1.336,2.729,2.327,5.475,2.827,8.543
		c0.186,1.137,0.058,2.59,0.535,3.653c0.412,0.914,1.128,1.451,1.965,1.904c0.955,0.517,1.976,0.882,2.931,1.404
		c1.008,0.552,1.957,0.763,3.036,0.25c0.622-0.296,1.2-0.691,1.771-1.102c2.728-0.617,5.303,1.623,8.023,0.724
		c1.084-0.359,1.858-1.342,2.382-2.357c0.316-0.614,0.492-1.298,0.634-1.977c0.045-0.232,0.103-0.462,0.166-0.688
		c0.065-0.16,0.136-0.315,0.215-0.466c0.003,0.052,0.003,0.101,0.008,0.15c0.116,0.782,0.555,1.337,0.912,2.015
		c0.318,0.602,0.578,1.396,1.161,1.786c0.56,0.374,1.146,0.472,1.797,0.548c0.865,0.104,1.665,0.45,2.54,0.447
		c0.763-0.004,1.508-0.37,2.18-0.706c0.604-0.306,1.215-0.588,1.829-0.865c1.298-0.135,2.369-0.056,3.615,0.497
		c0.914,0.406,1.828,0.688,2.812,0.838c1.351,0.204,3.032-0.062,3.84-1.369c0.887-1.444,0.886-3.345,1.06-5.003
		c0.258-2.509,0.603-4.959,1.472-7.295c0.06-0.058,0.119-0.11,0.177-0.166c0.742-0.688,1.588-1.354,1.979-2.339
		c0.337-0.847-0.095-1.777-0.343-2.583c-0.45-1.452-0.713-2.884-0.906-4.382c0.369-1.371,0.715-2.749,1.068-4.116
		c0.645-2.486,1.408-5.021,1.751-7.57c0.331-2.468,0.463-4.981,0.566-7.465c0.051-1.22,0.149-2.433,0.263-3.647
		c0.072-0.796,0.459-1.568,0.379-2.373c0.431-0.445,1.041-0.536,1.159-1.224c0.085-0.503-0.449-1.345-0.595-1.814
		c-0.12-0.391-0.222-0.78-0.369-1.163c-0.157-0.403-0.412-0.738-0.579-1.137c1.278-0.824,2.53-1.688,3.706-2.652
		c0.15,0.018,0.333-0.114,0.288-0.324c-0.171-0.816-0.686-1.518-1.104-2.217c-0.733-1.234-1.426-2.491-2.117-3.752
		c-1.045-1.9-2.01-4.072-3.813-5.262c1.04-0.94,1.871-1.927,2.333-3.653c0.628-2.355,0.905-4.873,1.227-7.285
		c0.306-2.29,0.696-4.599,1.198-6.841c0.105-0.473,0.218-0.942,0.33-1.408c0.32,0.592,0.868,1.15,1.169,1.622
		c0.038,0.064,0.08,0.128,0.119,0.193c0.107,0.473,0.069,1.07,0.083,1.485c0.015,0.653,0.021,1.301,0.058,1.955
		c0.067,1.3,0.204,2.587,0.382,3.878c0.174,1.265,0.341,2.531,0.337,3.809c-0.002,0.34-0.019,0.68-0.021,1.018
		c-0.325,0.737-0.691,1.388-1.149,2.094c-0.328,0.499-0.231,1.142-0.025,1.671c0.273,0.706,0.866,1.303,1.31,1.894
		c0.067,0.091,0.133,0.179,0.2,0.268c0.031,0.563-0.035,1.12-0.058,1.686c-0.028,0.762,0.058,1.519,0.012,2.279
		c-0.076,1.283-0.066,2.583-0.154,3.866c-0.021,0.011-0.035,0.03-0.035,0.055c0.089,1.344,1.683,1.663,3.06,1.49
		c1.05,0.519,2.636,0.222,3.658-0.168c1.115-0.423,2.74-1.115,3.212-2.336c0.32-0.829,0.294-1.904,0.403-2.78
		c0.108-0.853,0.224-1.709,0.253-2.567c0.03-0.952,0.508-2.285-0.453-2.923c-0.015-0.01-0.031-0.013-0.046-0.02
		c0.274-0.294,0.576-0.557,0.834-0.872c0.539-0.662,0.574-1.786,0.645-2.608c0.248-2.81,0.472-5.597,1.108-8.328
		c0.64-2.746,1.269-5.522,2.001-8.229c0.273-1.009,0.614-2.08,0.454-3.145c-0.223-1.497-0.749-2.927-0.936-4.433
		c-0.005-0.044-0.033-0.069-0.065-0.079c0.47-0.737,0.988-1.446,1.572-2.02c0.55-0.543,0.965-0.997,0.907-1.697
		c0.019-0.074,0.036-0.148,0.043-0.225C227.215,141.24,226.595,140.057,226.391,138.663"/>
	<image width="73" height="69" xlink:href="F932DAC6.png"  transform="matrix(1 0 0 1 142 176)">
	</image>
	<image width="121" height="88" xlink:href="F932DAC7.png"  transform="matrix(1 0 0 1 107 97)">
	</image>
	<image width="122" height="161" xlink:href="F932DAFC.png"  transform="matrix(1 0 0 1 106 84)">
	</image>
	<image width="25" height="22" xlink:href="F932DAFD.png"  transform="matrix(1 0 0 1 181 129)">
	</image>
	<image width="23" height="21" xlink:href="F932DAE7.png"  transform="matrix(1 0 0 1 182 129)">
	</image>
	<image width="23" height="24" xlink:href="F932DAE5.png"  transform="matrix(1 0 0 1 147 129)">
	</image>
	<image width="21" height="19" xlink:href="F932DADB.png"  transform="matrix(1 0 0 1 148 132)">
	</image>
	<image width="61" height="69" xlink:href="F932DADD.png"  transform="matrix(1 0 0 1 147 121)">
	</image>
	<image width="40" height="33" xlink:href="F932DADF.png"  transform="matrix(1 0 0 1 155 102)">
	</image>
	<image width="67" height="59" xlink:href="F932DADA.png"  transform="matrix(1 0 0 1 142 186)">
	</image>
	<image width="60" height="54" xlink:href="F932DAD9.png"  transform="matrix(1 0 0 1 145 191)">
	</image>
	<image width="37" height="61" xlink:href="F932DB25.png"  transform="matrix(1 0 0 1 106 91)">
	</image>
	<image width="14" height="66" xlink:href="F932DB27.png"  transform="matrix(1 0 0 1 208 119)">
	</image>
	<image width="12" height="10" xlink:href="F932DB2A.png"  transform="matrix(1 0 0 1 216 142)">
	</image>
	<image width="122" height="161" xlink:href="F932DB36.png"  transform="matrix(1 0 0 1 106 84)">
	</image>
	<image width="24" height="20" xlink:href="F932DB35.png"  transform="matrix(1 0 0 1 181 129)">
	</image>
	<image width="3" height="3" xlink:href="F932DB0A.png"  transform="matrix(1 0 0 1 194 133)">
	</image>
	<image width="3" height="3" xlink:href="F932DB0D.png"  transform="matrix(1 0 0 1 158 133)">
	</image>
	<image width="21" height="21" xlink:href="F932DB0E.png"  transform="matrix(1 0 0 1 148 129)">
	</image>
	<path fill="#E2E3E4" d="M177.688,178.234c1.912,0.094,3.771,0.434,5.645,0.877c-0.158,0.795-0.305,1.584-0.343,2.397
		c-0.065,1.231-0.498,1.911-1.682,2.175c-0.763,0.168-1.58,0.108-2.356,0.125c-0.932,0.021-1.864,0.092-2.798,0.091
		c-1.371-0.006-2.883-0.033-4.231-0.31c-0.837-0.172-1.459-0.538-1.686-1.433c-0.222-0.864-0.22-1.973-0.245-2.891
		c1.653-0.191,3.303-0.41,4.947-0.636C175.859,178.502,176.772,178.355,177.688,178.234"/>
	<image width="15" height="6" xlink:href="F932DB0C.png"  transform="matrix(1 0 0 1 169 178)">
	</image>
	<path fill="#3A3C2C" d="M169.77,182.224c0,0.006,0.001,0.01,0.001,0.016c-0.535-0.205-1.316-0.225-1.782-0.33
		c-1.193-0.264-2.421-0.381-3.625-0.564c-1.188-0.184-2.332-0.541-3.483-0.905c-0.869-0.276-1.659-0.735-2.486-1.107
		c0.023,0.008,0.046,0.012,0.071,0.02c2.635,0.603,5.436,0.462,8.105,0.254c1.057-0.082,2.114-0.192,3.17-0.311
		C169.582,180.237,169.651,181.289,169.77,182.224"/>
	<path fill="#3A3C2C" d="M183.426,182.157c0.023-0.22,0.033-0.442,0.044-0.648c0.047-0.776,0.187-1.529,0.349-2.282
		c0.273,0.067,0.55,0.136,0.826,0.206c2.185,0.562,4.339,0.904,6.548,0.985c-0.965,0.359-1.923,0.784-2.899,1.062
		C186.763,181.915,185.021,182.015,183.426,182.157"/>
	<image width="12" height="4" xlink:href="F932DB0B.png"  transform="matrix(1 0 0 1 158 179)">
	</image>
	<image width="9" height="4" xlink:href="F932DB15.png"  transform="matrix(1 0 0 1 183 179)">
	</image>
</g>
</svg>
