<?xml version="1.0" encoding="utf-8"?>
<!-- Generator: Adobe Illustrator 16.0.0, SVG Export Plug-In . SVG Version: 6.00 Build 0)  -->
<!DOCTYPE svg PUBLIC "-//W3C//DTD SVG 1.1 Tiny//EN" "http://www.w3.org/Graphics/SVG/1.1/DTD/svg11-tiny.dtd">
<svg version="1.1" baseProfile="tiny" id="Layer_1" xmlns="http://www.w3.org/2000/svg" xmlns:xlink="http://www.w3.org/1999/xlink"
	 x="0px" y="0px" width="350px" height="350px" viewBox="0 0 350 350" overflow="scroll" xml:space="preserve">
<path fill-rule="evenodd" fill="#263A7F" d="M169.941,195.67c0.209,3.137-1.096,2.861-2.075,4.65
	c-0.596,1.286-1.193,2.577-1.785,3.862c-0.917,1.41-1.833,2.817-2.746,4.225c0.421,0.672,0.846,1.329,1.264,2.001
	c0.84,3.315-1.943,8.876-3.268,10.374c-0.492,0.562-1.602,0.754-2.004,1.362c-0.675,1.558-0.488,3.805-1.484,5.08
	c-0.493,0.636-2.035,0.54-2.674,1.353c-0.278,0.534-0.698,1.691-0.591,2.222c0.505,0.173,1.18,0.466,1.407,0.929
	c0.462,1.612-0.445,6.097-2.079,6.153c-0.207,1.749-0.425,3.306-0.889,4.793c-0.348,1.028-0.694,2.054-1.042,3.078
	c0.297,0.421,0.662,0.586,0.745,1.215c-0.415,1.358-0.725,3.179-1.483,4.301c-0.399,0.041-0.797,0.09-1.193,0.136
	c0.023,2.087-0.414,4.25-0.741,6.012c-0.049,2.052-0.099,4.105-0.149,6.158c-0.198,0.808-0.396,1.62-0.593,2.426
	c-0.059,0.957,0.53,2.152,0.292,3.438c-0.207,1.159-0.543,2.266-0.738,3.581c0.049,1.288,0.099,2.576,0.149,3.86
	c-0.224,0.811-0.445,1.623-0.669,2.432c0.026,1.786,0.052,3.58,0.075,5.368c-0.284,1.655-0.517,4.056-0.815,5.578
	c-0.414,2.059,0.422,4.506-0.673,5.939c-0.537,0.2-0.906,0.459-1.628,0.573c-1.742,0.28-3.146-1.146-4.088,0.428
	c-0.537,0.909,0.015,2.61,0.226,3.581c0.174,1.335,0.346,2.671,0.519,4.006c0.393,1.525,0.795,3.05,1.188,4.579
	c0.116,0.662,0.009,4.714,0,4.718c-1.063,0.994-6.086,1.444-8.021,1.15c-3.866-0.599-10.286,0.052-11.578-2.723
	c-0.24-0.508-0.052-1.022,0-1.503c-0.081-1.643-0.149-3.292-0.221-4.935c-0.281-0.988-0.829-1.984-0.528-3.505
	c0.31-1.537,2.082-5.837,1.562-6.799c-0.781-0.143-1.832-0.198-2.151-0.855c-0.412-1.477,0.885-2.375,0.517-3.65
	c-0.54-1.884-0.283-4.241,0.072-6.513c0.104-3.193,0.198-6.39,0.299-9.586c0.301-1.455,0.591-2.911,0.893-4.363
	c0.27-0.669,0.542-1.339,0.817-2.006c0-1.17,0-2.337,0-3.508c0.283-1.426,0.478-3.312,0.962-4.865
	c0.396-0.856,0.795-1.718,1.196-2.576c0.095-0.692,0.195-1.378,0.29-2.073c0.56-2.177,1.488-4.79,2.902-6.226
	c-0.119-1.017-0.736-2.309-0.972-3.145c-0.576-2.089,1.628-5.284,2.599-6.085c-0.322-1.289,0.732-3.386,0.225-4.293
	c-2.272-0.546-1.041-5.855-0.294-7.228c0.344-0.632,1.292-0.627,1.706-1.144c0.824-1.648,0.167-3.747-0.148-5.508
	c0.167-0.933,0.346-1.863,0.519-2.791c0.152-0.76,0.034-3.145-0.302-3.288c-0.05,0.069-0.095,0.135-0.144,0.21
	c0.026,2.624-5.87,2.475-7.867,1.646c-0.297-0.125-2.382-1.576-2.53-1.787c-0.323-0.469,0.113-0.701,0.079-1.074
	c-0.169-1.688-0.5-3.263-0.079-5.296c0.07-0.327,0.103-0.981,0.3-1.43c0.092-0.218,0.427-0.229,0.517-0.505
	c0.175-1.859,0.347-3.718,0.522-5.577c-0.118-0.299-0.62-0.847-0.821-1.218c0.149,0.049,0.299,0.098,0.451,0.146
	c0-0.122,0-0.244,0-0.361c-0.183-0.385-0.098-1.545,0.222-2.073c0.392,0.004,0.596-0.036,0.813-0.144
	c0.042-1.727,0.267-3.241-0.521-4.296c-0.767-0.075-1.597-0.219-1.924-0.717c-0.438-0.636,0.046-1.309-0.075-1.924
	c-0.172-0.409-0.353-0.813-0.521-1.222c-0.385-1.732,0.568-5.801,1.414-6.295c2.708-1.591,3.584,1.99,5.267,2.004
	c0.356-1.436,0.772-2.306,2.597-2.288c0.593,0.313,1.004,0.505,1.337,1.069c0.325,0.024,0.643,0.049,0.962,0.073
	c-0.057-6.043,1.334-10.524,2.533-15.24c0.172-0.681,0.856-4.836,0.665-5.011c-0.519-0.195-1.038-0.383-1.561-0.569
	c-0.408-0.313-0.399-0.95-0.965-1.151c-0.893-0.302-1.646-0.082-2.228-0.639c-0.363-0.353-0.388-0.912-0.669-1.358
	c-0.565-0.263-1.137-0.527-1.71-0.789c-0.145-0.238-0.289-0.478-0.441-0.715c-0.792-0.664-1.582-1.335-2.377-2
	c-0.494-0.55-0.988-1.104-1.482-1.65c-0.872-0.385-1.733-0.762-2.599-1.146c-0.817-0.573-1.634-1.141-2.45-1.717
	c-0.847-0.405-1.687-0.81-2.528-1.215c-3.516-2.399-6.445-6.309-8.61-10.019c-0.437-0.75-0.715-1.696-1.189-2.501
	c-1.221-2.073-2.754-3.495-2.151-7.084c0.049-0.764,0.098-1.528,0.149-2.289c0.588-0.953,1.186-1.908,1.777-2.866
	c1.441-2.642,2.432-5.775,4.308-8.012c1.19-1.051,2.375-2.099,3.563-3.15c0.931-1.037,1.588-2.627,1.267-4.646
	c-0.035-0.644-0.052-1.29-0.078-1.933c0.38-1.907,1.536-2.955,2.452-4.291c0.569-0.837,0.729-1.522,1.779-1.723
	c0.102-0.834,1.012-2.208,1.638-2.57c0.359-0.218,0.887-0.172,1.183-0.431c0-0.075,0-0.144,0-0.22
	c-0.362-0.043-0.27-0.014-0.439-0.214c0.336-0.6,1.011-1.536,1.775-1.714c-0.089-0.945,1.012-1.292,1.562-2.004
	c1.473-1.898,3.233-2.949,5.719-3.865c1.521-0.556,2.618-0.31,3.64-1.43c0-0.069,0-0.144,0-0.211
	c-2.249-0.817-0.968-4.379,0.069-5.656c0.501-0.611,1.439-0.502,2.231-0.861c1.307-0.583,3.578-1.344,4.824-2.07
	c0.77-0.451,1.346-1.024,2.302-1.433c0.69-0.292,2.098-1.2,2.896-0.931c0.098,0.052,0.195,0.101,0.296,0.144
	c0.05,0.405,0.102,0.808,0.149,1.214c0.275,0.169,0.544,0.339,0.813,0.505c1.238-1.71,4.201-1.351,5.126-2.434
	c0.782-1.605-0.322-4.564,1.562-5.44c0.273-0.095,0.762-0.072,0.966-0.209c-0.228-0.488-0.099-0.91,0.148-1.287
	c0.462-0.145,0.815-0.356,1.111-0.65c-0.867-2.457-1.485-4.352-1.927-7.08c-0.053-0.026-0.105-0.052-0.149-0.072
	c-0.916,0.485-4.445,1.235-5.201,0.072c-0.497-1.194,0.778-2.283,0.45-3.507c-0.169-0.627-2.362-4.729-0.674-5.798
	c0.276-0.069,0.544-0.144,0.819-0.211c-0.169-0.297-0.215-0.189-0.072-0.501c0.196-0.113,0.103-0.024,0.225-0.218
	c-0.079-0.142-0.153-0.284-0.225-0.425c0.023-0.05,0.049-0.093,0.072-0.144c0.25-0.024,0.491-0.05,0.744-0.073
	c-0.052-0.118-0.099-0.238-0.149-0.356c-0.244,0-0.491,0-0.739,0c0.049,0,0.096,0,0.145,0c0.201-0.048,0.397-0.095,0.594-0.144
	c-0.03-1.341-0.144-3.136,0.374-4.009c1.43-0.336,1.504-2.496,2.076-3.647c1.151-2.317,3.091-4.542,5.275-5.867
	c2.593-1.569,5.858-2.497,9.432-3.078c1.652,0,3.311,0,4.969,0c0.953-0.293,2.185-1.163,3.044-1.43
	c0.466,0.046,0.945,0.095,1.412,0.144c0.818-0.144,1.634-0.287,2.452-0.431c1.423-0.263,2.952,0.244,4.004,0.501
	c1.096,0.263,1.762,0.141,2.673,0.501c0.415,0.164,0.31,0.61,0.597,0.857c0.675,0.583,1.548,0.954,2.226,1.506
	c1.347,1.085,1.945,3.426,2.604,5.146c0.942,2.501,2.579,6.724-0.597,7.873c0.052,0.119,0.101,0.241,0.151,0.357
	c0.787,0.101,1.196,0.425,1.629,0.864c-0.026,0.887-0.403,1.222-0.219,2.286c0.104,0.632,0.65,1.05,0.518,1.717
	c-0.026,0.019-0.049,0.049-0.073,0.069c-0.637,1.192-3.095,1.422-4.31,2.076c-0.34,1.894-0.432,3.99-1.407,5.295
	c-0.352,0.465-1.008,0.708-1.263,1.288c-0.055,0.527-0.098,1.046-0.154,1.572c-0.474,1.574-1.348,2.67-1.775,4.583
	c-0.2,0.873-1.212,4.333-1.046,5.008c0.333,1.272,1.211,2.182,1.639,3.359c0.291,0.798-0.079,1.531,0.297,2.076
	c0.445,0.333,0.886,0.672,1.338,1.001c1.261,0.096,2.523,0.194,3.782,0.289c0.818,0.33,1.634,0.667,2.455,1
	c1.074,0.307,2.72-0.517,3.416-0.287c2.204,0.741,3.99,2.294,4.823,3.868c0.36,0.669,3.022,3.583,2.6,4.291
	c0.434,0.994,2.21,4.058,1.78,5.08c0.177,0.121,0.351,0.237,0.521,0.359c-0.098,0.262-0.199,0.52-0.296,0.79
	c0.198,0.118,0.398,0.235,0.595,0.356c-0.152,0.31-0.299,0.62-0.448,0.931c0.5,0.002,0.534-0.023,0.598,0.431
	c-0.128,0.237-0.25,0.474-0.373,0.712c0.245,0.046,0.493,0.095,0.74,0.144c-0.181,1.444,3.199,6.95,4.011,8.658
	c0.465,0.927,0.943,1.855,1.41,2.785c0.518,0.172,1.038,0.339,1.558,0.501c1.616,0.762,3.261,2.194,4.161,3.651
	c1.005,1.637,1.369,4.043,1.783,6.154c0.261,1.35,0.101,2.584,0.74,3.503c1.551,0.423,2.9,1.78,3.418,3.222
	c0.144,0.623,0.294,1.241,0.442,1.859c0.726,1.426,1.921,3.074,2.528,4.582c0.409,1.038,0.3,1.996,0.664,3.216
	c0.222,0.727,2.643,2.441,3.271,3.294c0.551,0.758,0.215,2.102,0.52,3.148c0.692,1.19,1.383,2.385,2.073,3.583
	c0.497,1.539,0.098,3.656,0.449,4.937c0.345,0.614,0.69,1.236,1.038,1.854c0.125,0.98,0.247,1.96,0.373,2.936
	c0.222,0.572,0.438,1.146,0.667,1.717c-0.101,0.313-0.195,0.621-0.295,0.934c0.054,0.135,0.447,0.252,0.516,0.494
	c-0.098,0.359-0.198,0.719-0.293,1.079l0.442,2.434c0.192,0.37,0.871,0.53,1.038,0.999c0.339,0.939-0.332,2.305,0,3.005
	c1.652,0.458,1.383,1.275,1.713,2.859c0.072,0.364,0.501,0.999,0.296,1.576c-0.159,0.431-0.451,0.201-0.296,0.719
	c1.044,0.269,2.565,3.943,3.041,5.08c0.717,1.383,1.438,2.766,2.153,4.146c-0.275,1.099-0.542,2.193-0.816,3.294
	c-0.073,1.619-0.15,3.244-0.22,4.862c-0.672,3.076-3.047,7.962-6.317,8.371c-1.16-0.868-2.394-3.169-0.439-4.292
	c0.413-0.238,0.987-0.195,1.264-0.574c-0.029-0.049-0.051-0.095-0.081-0.138c-0.925,0.034-2.073,0.583-3.041,0.214
	c-0.382-0.187-0.505-0.541-0.742-0.862c0.162-0.833,0.363-1.175,0.592-1.933c-4.98-0.646-6.664-6.45-7.496-11.446
	c-0.325-1.93,1.002-4.108,0.367-5.582c-0.468-1.1-2.138-1.747-2.896-2.649c-0.36-0.432-0.263-1.14-0.515-1.717
	c-0.336-0.741-2.213-3.535-1.786-4.502c0.2-0.239,0.401-0.48,0.591-0.723c-0.195-0.501-0.376-1.308-0.666-1.854
	c-0.491-0.597-0.987-1.196-1.479-1.793c-0.873-1.578-1.218-3.199-2.155-4.791c-0.742-1.123-1.489-2.24-2.227-3.36
	c-0.729-1.241-0.719-2.766-1.267-4.224c-0.442-1.2-1.536-1.757-2.371-2.576c-0.423-0.572-0.846-1.146-1.265-1.719
	c-0.052,0.05-0.101,0.096-0.149,0.144c0.207,0.968,0.784,3.603,0.149,4.366c-0.574,0.977-4.527,0.872-5.867,1.29
	c-0.025,0.047-0.051,0.095-0.068,0.144c0.022,1.717,0.275,5.625-0.75,6.58c-0.629,0.587-2.242,0.363-2.819,1.001
	c-0.24,0.451-0.091,0.693-0.076,1.146c0.013,0.26-0.433,1.157-0.516,1.427c-0.427,1.373-0.592,2.573-0.893,3.868
	c-0.222,0.574-0.448,1.143-0.671,1.714c0.027,0.023,0.052,0.049,0.077,0.072c0.021,0,0.051,0,0.073,0
	c1.783-0.81,3.566-1.62,5.345-2.432c0.321-0.21,0.456-0.574,0.815-0.786c0.597,0.323,1.701,1.798,1.487,2.575
	c-0.52,1.249-5.554,2.656-7.2,3.217c0.178,1.216,0.499,0.705,0.222,2.003c0.377,0.531,0.677,1.474,1.26,1.795
	c0.797,0.287,1.985,0.261,2.672,0.425c0.03,0.049,0.052,0.098,0.079,0.146c-0.817,1.453-1.902,8.055-1.561,9.873
	c-0.072,0.524-0.149,1.053-0.219,1.572c1.38,2.647,2.955,5.523,4.228,8.303c0.663,1.666,1.335,3.339,1.998,5.006
	c2.893-0.073,5.897-0.127,5.795,2.865c-2.001,1.858-4.006,3.719-6.015,5.577c0.078,0.076,0.151,0.144,0.22,0.218
	c1.588,1.786,3.174,3.572,4.759,5.367c1.73,2.168,3.465,4.339,5.197,6.511c0.469,0.279,0.945,0.571,1.413,0.855
	c1.529,1.838,3.068,3.674,4.602,5.511c0,0.049,0,0.098,0,0.144c-0.665,0.401-1.334,0.811-2.006,1.215
	c-5.517-5.651-11.041-11.308-16.555-16.957c-0.644,0.288-1.285,0.574-1.936,0.858c0.37,1.145,0.744,2.286,1.115,3.433
	c1.208,3.654,3.468,8.82,3.492,13.097c-0.12,0.025-0.248,0.044-0.369,0.074c0.82,1.926,0.345,6.073-0.08,8.009
	c-0.745,3.383-0.672,6.398-1.558,9.517c-0.684,2.412-1.858,3.862-2.377,6.511c0.699,4.03,1.386,8.065,2.085,12.094
	c0.192,3.407,0.394,6.824,0.593,10.229c0.02,1.529,0.051,3.053,0.072,4.582c0,1.381,0,2.767,0,4.15
	c0.165,0.96-0.004,2.271,0.297,3.431c0.271,0.598,0.543,1.196,0.815,1.795c0.583,1.649,0.497,4.742,0.298,6.146
	c0.47,0.623,0.94,1.24,1.408,1.858c0.622,0.29,1.238,0.58,1.858,0.864c2.403,1.716,4.471,4.152,6.98,5.726
	c1.563,0.784,3.116,1.571,4.675,2.36c0.735,0.671,2.094,4.146,1.264,5.505c-1.252,2.063-4.534,1.515-7.352,1.933
	c-5.573,0.82-10.776-0.157-15.297-1.566c-1.624-0.516-3.588-1.905-5.565-2.009c0.106,0.293,0.095,0.189,0.296,0.359
	c-2.63-0.034-8.932-1.065-9.502-2.866c-0.885-2.787,1.777-9.6-1.045-10.659c-0.997-0.376-1.956,0.337-2.521,0.354
	c-0.565-1.764-0.569-3.864-1.041-5.935c-0.198-0.43-0.394-0.86-0.594-1.288c-0.021-0.907-0.049-1.809-0.072-2.718
	c-0.491-2.585-0.632-5.846-0.445-8.729c-0.025-1.6-0.052-3.196-0.071-4.793c0-1.336,0-2.673,0-4.012
	c0.195-2.456,0.389-4.913,0.589-7.37c0.419-1.948,1.002-4.021,1.482-5.79c0.204-1.289,0.399-2.576,0.6-3.868
	c0.319-0.833,0.64-1.666,0.966-2.501c-0.992-1.051-0.449-6.741,0.369-7.871c0.149,0,0.296,0,0.44,0
	c0.057,0.141,0.1,0.285,0.154,0.431c0.122-0.098,0.246-0.192,0.373-0.29c0.021-0.049,0.049-0.095,0.071-0.141
	c-0.133-0.913-0.539-2.057-0.301-3.147c0.103-0.382,0.203-0.766,0.301-1.146c-0.264-0.793-0.718-1.043-0.071-1.935
	c-1.373-1.151-2.448-5.914-1.337-7.726c-0.771-1.024-1.828-2.368-1.34-4.365c0.247-0.985,0.448-2.064,0-3.216
	c-0.395-0.931-0.789-1.864-1.186-2.795c-0.173-0.071-0.351-0.145-0.522-0.211c-0.216-0.572-0.445-1.146-0.67-1.719
	c-0.446-0.752-2.049-0.324-2.45-1.146c-0.021-1.264-0.048-2.53-0.07-3.79c-0.296-0.385-0.592-0.765-0.894-1.147
	c-0.345-0.952-0.694-1.905-1.035-2.861c-0.202-0.264-0.402-0.523-0.599-0.79c-0.098,0-0.202,0-0.29,0
	c-0.391,0.339-0.666,0.749-1.343,0.79c-2.039-0.916-3.56-1.936-3.788-4.297c0.722-0.736,1.441-1.477,2.162-2.214
	C175.08,197.11,171.975,195.654,169.941,195.67z M173.507,153.025c0.023-0.384,0.049-0.761,0.078-1.143
	c-0.376-0.385-0.745-0.761-1.117-1.146c-0.373,0-0.744,0-1.113,0c-0.919-0.767-1.832-1.525-2.75-2.289
	c-0.494-0.406-0.985-0.813-1.482-1.215c-1.14,1.117-2.278,2.24-3.42,3.363c1.042,1.027,2.081,2.046,3.119,3.076
	c-0.142,0.38-0.29,0.761-0.444,1.143c0.986,1.344,3.215,1.818,3.791,3.511c-0.593,0.47-1.19,0.949-1.785,1.432
	c-0.049,0-0.098,0-0.145,0c-1.37-1.27-2.722-2.53-4.092-3.796c-0.56-0.026-1.129-0.049-1.702-0.072
	c-3.438-3.554-6.883-7.109-10.319-10.661c-0.556-0.663-0.785-1.678-1.336-2.362c-3.274-3.458-6.539-6.915-9.804-10.372
	c-0.152-0.593-0.297-1.195-0.448-1.793c-1.901-2.189-3.808-4.386-5.713-6.58c-3.758,3.22-7.525,6.444-11.287,9.66
	c0.049,0,0.093,0,0.144,0c2.053,0.742,4.114,1.479,6.167,2.22c-0.049,0.382-0.101,0.758-0.151,1.143
	c0.812,0.224,4.135,1.491,4.531,2.004c0.566,1.209,0.675,2.424,1.338,3.506c0.738,1.073,1.487,2.145,2.227,3.222
	c1.111-0.299,3.205-1.755,4.16-1.436c1.188,1.264,2.372,2.528,3.563,3.795c0.293-0.171,0.594-0.333,0.886-0.501
	c2.308,2.383,4.608,4.772,6.908,7.154c0.494,0.211,1.175,0.045,1.563,0.211c0.86,1.22,1.731,2.439,2.599,3.652
	c-0.283,1.065-1.624,1.851-2.23,2.715c2.056,1.768,4.106,3.534,6.161,5.297c0.795,1.788,1.583,3.575,2.376,5.37
	c0.919,2.036,1.997,4.121,0,6.007c-1.452-0.554-2.497-1.946-4.378-1.789c1.18,1.623,2.376,3.242,3.564,4.865
	c-2.23,2.813-4.458,5.63-6.686,8.442c-0.199,0.528,0.132,1.743,0.299,2.074c2.699,1.529,5.393,3.058,8.094,4.582
	c1.107-3.463,4.139-5.799,5.345-9.017c0.727-0.072,1.816-0.032,2.375-0.29c1.532-1.663,3.068-3.334,4.603-5
	c3.429,1.572,4.571,3.309,6.312,6.433c-0.468,1.056-0.937,2.104-1.41,3.151c0.322,0.286,0.644,0.57,0.965,0.86
	c-0.571,1.042-2.085,1.24-2.895,2.073c-2.323,2.384-4.71,4.644-6.682,7.371c0.282,0.968,1.666,2.694,2.448,3.287
	c2.913-1.349,6.611-4.354,8.535-6.652c0.872-0.906,1.736-1.814,2.602-2.72c0.127,0.118,0.25,0.238,0.374,0.355
	c4.157,3.341,8.315,6.681,12.471,10.021c0.052,0,0.101,0,0.152,0c0.568-0.476,1.135-0.955,1.706-1.434
	c0.049,0.029,0.101,0.049,0.145,0.075c0.621,0.883,1.245,1.763,1.865,2.645c0.394,0.885,0.784,1.768,1.184,2.65
	c0.196-0.192,0.394-0.388,0.596-0.571c1.31-1.194,2.623-2.391,3.93-3.582c-1.186-1.547-2.372-3.098-3.561-4.648
	c0.372-0.238,0.742-0.479,1.111-0.712c0-0.027,0-0.05,0-0.074c-6.082-6.585-12.175-13.17-18.264-19.749
	c-1.878,0.934-1.307,0.513-2.748-0.574c-0.299-0.333-0.589-0.667-0.891-1c-0.101-0.809-0.198-1.624-0.299-2.435
	c-1.979-1.926-3.961-3.863-5.938-5.794c0.075-0.428,0.148-0.856,0.226-1.29c-0.693-0.489-2.126-1.749-2.303-2.643
	c0.05-0.122,0.101-0.24,0.147-0.36c0.124,0.121,0.255,0.238,0.372,0.36c0.492,0.377,0.986,0.761,1.486,1.144
	c1.029-0.379,2.024-0.701,2.672-1.433c0.421-0.621,0.843-1.238,1.259-1.861c1.155-0.916,2.112-1.287,2.97-2.503
	c0-0.021,0-0.05,0-0.073c-2.452-0.24-2.584-1.843-3.937-3.075c-0.667,0.044-1.336,0.092-2.001,0.141
	c-1.263-1.285-2.526-2.573-3.785-3.859c0.221-0.336,0.447-0.67,0.664-1.001c-0.592-0.527-1.184-1.049-1.778-1.572
	C174.297,152.976,173.907,153.002,173.507,153.025z M201.428,128.2c-0.075,0.095-0.152,0.189-0.224,0.284
	c0.022,1.002-0.066,2.306,0.148,3.15c0.96,0.227,3.63,1.353,4.38,1.07c-0.046,0-0.097,0-0.149,0c-0.465-0.354-0.942-0.708-1.41-1.07
	c-0.934-1.125-1.27-2.619-2.527-3.434C201.574,128.2,201.504,128.2,201.428,128.2z M125.098,134.781
	c-0.201,0.167-0.399,0.33-0.595,0.5c0.073,0.093,0.146,0.189,0.226,0.287c2.307,0.928,4.444,3.648,5.859,5.511
	c0.564,0.747,1.037,1.801,1.867,2.289c0.365-0.34,0.738-0.666,1.105-1.002c0.023-0.856,0.05-1.717,0.073-2.573
	c-1.503-0.835-3.02-1.672-4.53-2.507c0.125-0.238,0.25-0.477,0.376-0.715C128.018,135.97,126.555,135.374,125.098,134.781z
	 M198.011,164.546c0.367-0.046,0.304-0.072,0.521-0.218c0.163-2.109,1.153-3.515,1.485-5.291c-0.026-0.021-0.049-0.049-0.076-0.07
	c-0.726-0.015-1.479,0.011-2.005,0.141C197.96,160.916,197.989,162.732,198.011,164.546z M211.521,200.68
	c-0.977,0.355-3.486,0.56-4.525,0.712c0.99,1.193,1.979,2.382,2.969,3.581c0.962-0.79,1.929-1.577,2.895-2.363
	C212.874,201.532,212.325,200.97,211.521,200.68z"/>
</svg>
