<?xml version="1.0" encoding="utf-8"?>
<!-- Generator: Adobe Illustrator 16.0.0, SVG Export Plug-In . SVG Version: 6.00 Build 0)  -->
<!DOCTYPE svg PUBLIC "-//W3C//DTD SVG 1.1 Tiny//EN" "http://www.w3.org/Graphics/SVG/1.1/DTD/svg11-tiny.dtd">
<svg version="1.1" baseProfile="tiny" id="Layer_1" xmlns="http://www.w3.org/2000/svg" xmlns:xlink="http://www.w3.org/1999/xlink"
	 x="0px" y="0px" width="350px" height="350px" viewBox="0 0 350 350" overflow="scroll" xml:space="preserve">
<path fill-rule="evenodd" fill="#138A44" d="M173.691,59.253c8.564,5.601,7.934,13.006,8.023,18.328
	c-1.442,0.094-2.885,0.195-4.328,0.293c0,0.027,0,0.055,0,0.076c0.492,0.976,2.084,4.172,1.414,5.597
	c-0.221,0.246-0.446,0.494-0.668,0.74c-0.394,0.16-1.049,0.028-1.717,0c0.299,0.771,0.315,1.903,0.598,2.617
	c-0.571,0.721-1.422,1.426-2.538,1.56c0,0.026,0,0.057,0,0.088c0.313,0.717,0.892,1.033,1.047,1.854
	c-0.151,0.453-0.301,0.897-0.452,1.344c-0.49,0.5-0.993,1-1.49,1.492c-0.148,0.521-0.296,1.043-0.444,1.57
	c-0.297,0.41-1.013,0.738-1.194,1.265c-0.333,0.957,0.549,1.834-0.074,2.535c2.885,1.754,9.001,0.865,13.271,0.82
	c1.425-1.037,2.519-2.205,4.552-2.685c1.028-0.242,2.701-0.004,3.508,0.147c4.056,0.769,7.392,1.576,11.115,2.685
	c4.353,1.221,8.703,2.438,13.051,3.66c1.666-0.375,3.334-0.742,5-1.119c2.582,0.922,5.173,1.84,7.757,2.758
	c5.267,1.795,10.545,3.582,15.812,5.369c0.172,0.379,0.344,0.75,0.522,1.123c3.728,1.188,7.459,2.387,11.187,3.582
	c0.446,0.889,0.896,1.791,1.344,2.68c3.804,0.996,7.607,1.988,11.41,2.984c1.192-1.392,2.39-2.783,3.582-4.179
	c0.322,0.101,0.644,0.199,0.972,0.306c0.051,0,0.094,0,0.147,0c-0.254,1.834-0.496,3.674-0.75,5.516
	c0.603,0.275,1.194,0.549,1.795,0.828c-0.201,0.717-0.401,1.434-0.601,2.151c0,0.053,0,0.101,0,0.156
	c-5.42-1.299-10.84-2.586-16.26-3.881c-3.177,0.842-6.361,1.684-9.541,2.533c-2.9,0.598-9.238,0.334-11.714-0.447
	c-4.45-2.008-8.901-4.031-13.353-6.039c-2.131-1.322-4.213-3.703-7.164-3.211c0.496,0.998,1,1.99,1.496,2.983
	c-0.198,0.201-0.399,0.402-0.601,0.603c0.201,0.492,0.402,0.988,0.601,1.486c-0.315,0.621-0.586,1.158-1.267,1.42
	c0.224,0.522,0.445,1.045,0.666,1.565c-0.45,1.144-0.784,2.328-1.637,3.058c0.405,4.084,3.299,5.603,4.553,8.652
	c0.066,0.084,0.147,0.149,0.222,0.227c-2.041,1.793-4.082,3.576-6.115,5.369c-0.202,0.197-0.403,0.399-0.602,0.596
	c-2.128-3.074-4.56-5.998-6.414-9.322c-0.349-1.117-0.697-2.235-1.046-3.36c-0.405-0.367-4.84-0.174-5.811-0.148
	c-1.617,2.289-3.234,4.58-4.849,6.865c-2.759,3.777-5.524,7.564-8.283,11.338c-2.754,3.856-5.176,7.447-8.875,10.361
	c-2.965,2.346-5.562,4.963-10.144,5.744c-0.574-0.391-1.146-0.791-1.715-1.19c-2.637-2.856-5.277-5.713-7.908-8.578
	c-2.361-3.627-4.724-7.262-7.088-10.894c-1.564-2.455-3.128-4.914-4.697-7.377c-0.072-0.053-0.151-0.098-0.222-0.151
	c-1.368,0.67-2.739,1.342-4.104,2.012c-0.302,2.156-0.063,4.43,0,6.791c-2.236,2.34-4.479,4.67-6.711,7.004
	c-2.636,2.863-5.275,5.724-7.91,8.586c-1.539,2.156-3.081,4.324-4.624,6.485c1.184,1.568,2.926,2.744,4.477,3.951
	c2.193,1.791,4.377,3.58,6.561,5.375c5.441,4.238,10.973,8.807,15.295,14.167c1.539,1.615,3.081,3.234,4.627,4.853
	c1.187,1.214,2.388,2.431,3.578,3.654c0.419,0.92,0.845,1.838,1.268,2.756c1.383,2.242,3.584,3.968,4.177,7.017
	c0.372,1.897-1.089,3.438-1.793,4.397c-2.285,3.119-3.849,7.205-6.563,9.918c-3.055,3.106-6.117,6.222-9.172,9.32
	c-3.335,2.692-6.664,5.372-9.997,8.057c-1.687,2.017-3.381,4.035-5.071,6.046c-2.365,2.987-5.061,5.467-7.309,8.651
	c-1.481,2.106-3.013,4.293-4.995,5.89c-0.897,0.827-1.791,1.647-2.688,2.463c-0.149,1.862-0.297,3.733-0.449,5.594
	c0.523,2.304,3.67,8.869,5.298,9.996c1.925,1.341,4.459,2.244,6.788,3.06c1.09,0.351,2.188,0.692,3.28,1.039
	c0.427,0.623,0.843,1.254,1.27,1.869c0.422,0.479-0.843,1.655-1.194,2.164c-1.439,2.069-5.437,2.721-8.203,1.786
	c-0.024,0-0.054,0-0.074,0c-0.721,5.664-6.474,2.705-11.633,3.58c-2.192,0.302-4.384,0.603-6.566,0.897
	c-1.742,0.552-3.485,1.089-5.222,1.64c-4.978,0.547-9.948,1.088-14.92,1.646c-0.247-1.226-0.496-2.438-0.749-3.664
	c-0.348-1.823,0.083-4.168,0.375-5.513c0.226-1.34,0.453-2.684,0.676-4.026c0.997-2.515,1.982-5.026,2.983-7.534
	c-1.594-1.246-3.188-2.482-4.774-3.726c-1.401-2.078,0.74-5.025,1.489-6.488c2.466-4.851,6.818-6.944,11.338-9.7
	c1.216-0.697,2.438-1.394,3.658-2.091c1.063-3.532,2.14-7.062,3.203-10.599c2.991-7.243,7.198-13.262,10.665-20.062
	c1.12-2.155,2.239-4.319,3.358-6.487c-0.199-1.562-0.396-3.127-0.597-4.692c-2.872-1.974-5.623-4.238-7.756-6.938
	c-2.087-2.64-4.214-5.423-7.092-7.236c-1.163-0.392-2.335-0.801-3.506-1.194c-1.787-0.897-3.574-1.793-5.363-2.692
	c-3.164-2.099-7.123-5.607-9.251-8.718c-1.171-2.39-2.335-4.772-3.506-7.155c-4.308-8.443-7.159-16.297-5.443-28.795
	c-0.148,0.074-0.296,0.143-0.452,0.225c0.75-2.582,1.491-5.176,2.239-7.762c0.697-1.291,1.395-2.582,2.092-3.873
	c-1.643-0.6-3.281-1.195-4.924-1.791c0.123-0.647,0.248-1.295,0.374-1.949c0.79-0.812,1.592-1.633,2.385-2.453
	c0.422-0.447,0.845-0.9,1.268-1.34c-0.445-0.476-0.898-0.947-1.339-1.418c1.176-3.021,3.141-4.353,4.919-6.64
	c1.892-2.512,3.782-5.024,5.669-7.533c2.191-1.937,4.378-3.885,6.565-5.82c3.154-4.225,6.316-8.455,9.476-12.684
	c2.161-1.265,4.322-2.529,6.483-3.793c4.394-2.619,8.394-6.569,13.801-7.912c2.263,0.049,4.522,0.103,6.788,0.151
	c1.839,0.021,3.683,0.047,5.517,0.074c3.43,0.197,6.867,0.398,10.294,0.594c-0.147-0.397-0.297-0.791-0.444-1.196
	c-0.634-0.822-3.71-1.332-4.773-1.935c-0.387-0.312-0.119-2.043,0-2.76c0.396-2.488,0.793-4.969,1.193-7.461
	c0.867-4.199,3.461-9.373,6.189-11.103C155.545,53.95,168.61,55.575,173.691,59.253z M166.647,107.789
	c0.512,1.92,0.097,4.633-0.222,6.56c-0.083,0.676-0.157,1.344-0.229,2.012c0.644,1.672,1.297,3.334,1.942,5.002
	c5.086-1.326,4.463-11.396,9.693-13.125c0.101-0.799,0.198-1.592,0.301-2.385C174.047,106.458,171.297,107.86,166.647,107.789z
	 M194.842,111.442c0.246,1.25,0.492,2.488,0.744,3.726c-1.09,1.475-2.789,2.307-3.879,3.733c-0.429,0.562-0.845,2.146-1.418,2.541
	c-0.697,0.217-1.392,0.442-2.093,0.668c-0.444-0.098-0.892-0.203-1.338-0.303c-0.474,0.252-0.938,0.5-1.414,0.75
	c-1.869-1.045-3.729-2.09-5.597-3.137c-0.42,0.147-0.842,0.305-1.268,0.453c-1.084,4.553-1.738,9.476-4.922,11.924
	c0,0.06,0,0.104,0,0.152c0.515,0.76,2.706,2.567,3.577,2.836c1.565-0.244,3.131-0.498,4.701-0.744
	c0.644-0.496,1.291-0.996,1.938-1.49c1.172-0.797,2.332-1.597,3.512-2.388c1.606-2.11,3.224-4.225,4.841-6.344
	c0.844-1.086,1.692-2.182,2.534-3.279c0.33-0.141,0.22-0.094,0.519,0.074c0.742-0.937,0.722-2.246,1.351-3.355
	c0.994-1.17,1.985-2.338,2.981-3.504c-0.646-0.824-1.291-1.642-1.938-2.469c-0.578-0.115-1.147-0.242-1.713-0.365
	C195.586,111.094,195.211,111.27,194.842,111.442z M226.019,114.498c-0.205,0.424-0.397,0.849-0.599,1.269
	c2.908,2.803,10.156,5.803,14.695,6.938c1.396,0.346,3.627,0.438,4.997,0.224c2.982-0.469,6.062,0.133,8.353-0.969
	c0.316-0.205,0.468-0.748,0.522-1.187c0.089-0.394-0.325-0.974-0.522-1.353c-2.588-0.69-5.172-1.387-7.758-2.088
	c-0.742,0.349-1.492,0.701-2.235,1.049c-3.111-0.75-6.218-1.492-9.326-2.24c-2.586-0.547-5.172-1.092-7.754-1.644
	C226.265,114.498,226.142,114.498,226.019,114.498z"/>
</svg>
