<?xml version="1.0" encoding="utf-8"?>
<!-- Generator: Adobe Illustrator 16.0.0, SVG Export Plug-In . SVG Version: 6.00 Build 0)  -->
<!DOCTYPE svg PUBLIC "-//W3C//DTD SVG 1.1 Tiny//EN" "http://www.w3.org/Graphics/SVG/1.1/DTD/svg11-tiny.dtd">
<svg version="1.1" baseProfile="tiny" id="Layer_1" xmlns="http://www.w3.org/2000/svg" xmlns:xlink="http://www.w3.org/1999/xlink"
	 x="0px" y="0px" width="350px" height="350px" viewBox="0 0 350 350" overflow="scroll" xml:space="preserve">
<path fill-rule="evenodd" fill="#263A7F" d="M212.273,151.389c0.521-0.009,0.739-0.141,0.909-0.489
	c0.048,0.068,0.096,0.138,0.139,0.211c-0.139,0.698-0.279,1.4-0.418,2.103c-0.368,1.076-1.131,1.688-1.477,2.809
	c-0.611-0.06-0.706,0.039-1.121,0.281c-0.036,0.488,0.133,0.728,0.211,1.192c-0.071,0.539-0.139,1.077-0.211,1.616
	c1.365,1.167,2.199,2.552,2.952,4.353c0.112,0.563,0.229,1.124,0.349,1.684c0.322,0.723,1.229,1.082,1.688,1.684
	c1.529,2.033,1.365,4.8-0.075,6.812c-0.163,0-0.325,0-0.491,0c0.233,1.521,0.471,3.042,0.702,4.563
	c0.165,1.781,0.328,3.556,0.489,5.339c0.025,1.073,0.049,2.151,0.072,3.227c1.001,1.821,1.179,2.238,1.192,5.197
	c0.165,0.043,0.33,0.093,0.491,0.137c0.143,0.609,0.282,1.216,0.421,1.825c-0.17,0.563-0.387,1.633-0.206,2.526
	c0.168,0.857,0.799,1.464,1.123,2.18c0.47,1.038,0.661,2.521,0.839,3.787c0.223,1.558-0.653,3.481-0.912,4.846
	c0.026,0.816,0.051,1.638,0.073,2.457c-0.188,0.656-0.378,1.31-0.564,1.966c0,0.864,0,1.73,0,2.598
	c-0.42,2.382-1.134,5.261-1.474,7.582c-0.146,0.968,1.234,2.823,1.474,4.141c0.348,1.907-1.013,2.506-1.125,3.863
	c1.045,1.703,1.585,3.716,2.389,5.827c0.095,0.769,0.188,1.54,0.281,2.317c0.322,1.086,0.945,2.406,1.332,3.575
	c0.926,2.817,0.985,5.566,1.547,8.777c0.191,1.108,0.932,3.475,0.698,4.493c-0.286,1.264-0.842,3.153-0.981,4.489
	c2.943,3.218,0.726,2.972,0,5.97c0.024,0.47,0.05,0.936,0.072,1.404c-0.152,0.898-0.765,1.9-0.563,2.879
	c0.284,0.606,0.563,1.215,0.845,1.825c-0.07,1.687-0.141,3.372-0.214,5.051c0.382,1.816,1.869,2.818,2.672,4.288
	c0.794,2.059,1.591,4.118,2.383,6.178c1.544,2.973,3.702,5.288,4.844,8.702c0.836,2.481,2.548,10.298-0.07,11.727
	c-6.02,3.275-12.528-0.848-13.967-5.974c-0.051-1.236-0.094-2.478-0.142-3.72c-0.302-0.512-0.609-1.03-0.909-1.539
	c-0.756-2.04-0.303-3.745-2.882-3.651c-1.052-1.31-2.836-2.457-3.438-4.145c-0.481-1.339,0.251-2.914-0.073-4.356
	c-0.096-0.435-0.396-0.901-0.278-1.606c0.163-0.844,0.323-1.685,0.489-2.53c-0.655-4.251-0.726-8.539-1.965-12.356
	c-0.371-1.15-1.162-2.342-1.614-3.368c-0.069-0.328-0.143-0.654-0.213-0.984c-0.374-0.571-1.91-1.148-2.455-1.893
	c-1.185-1.616-1.922-3.956-2.668-5.973c-0.442-1.189-1.062-3.103-0.839-4.631c0.09-1.121,0.183-2.244,0.278-3.364
	c-0.476-3.194-1.123-7.188-1.828-10.183c0-1.218,0-2.435,0-3.651c-0.515-0.746-1.025-1.497-1.542-2.247
	c-1.148-1.855-2.781-3.524-3.581-5.612c-0.449-1.181,0.02-2.701-0.278-4.146c-0.233-1.104-0.354-2.421-0.354-3.93
	c0.022-0.866,0.051-1.734,0.073-2.597c-0.397-0.517-0.797-1.028-1.197-1.543c-0.233-0.612-0.464-1.224-0.7-1.829
	c-0.465-0.785-1.104-1.548-1.473-2.457c-0.099-0.628-0.188-1.262-0.283-1.895c-0.66-1.895-1.672-3.938-2.313-6.039
	c-0.807-2.606-0.742-5.414-1.198-8.281c-0.94,0.012-1.573,0.093-1.962,0.628c-0.258,0.844-0.517,1.688-0.772,2.529
	c-0.774,1.695-1.842,3.44-2.953,4.846c-0.812,1.03-2.238,1.925-2.735,3.231c0.021,0.348,0.048,0.697,0.069,1.048
	c-0.231,0.399-0.466,0.798-0.701,1.196c-0.324,0.786-0.45,1.95-0.634,2.667c-0.019,0.587-0.042,1.17-0.068,1.758
	c-0.309,1.555-0.692,3.959-1.192,5.547c0.045,0.63,0.092,1.258,0.144,1.892c0.013,1.886-0.017,4.086-0.422,5.756
	c-0.328,1.344-1.028,2.616-1.476,3.79c-0.374,1.386-0.75,2.761-1.126,4.145c-0.359,0.826-0.87,1.432-1.053,2.525
	c-0.315,1.883,0.121,3.302,0.422,4.566c0.046,0.794,0.097,1.587,0.142,2.381c-0.096,1.571-0.19,3.141-0.28,4.707
	c-0.025,1.122-0.049,2.247-0.073,3.372c-0.529,3.14-1.431,5.311-2.666,7.578c0.228,0.59,0.833,0.883,0.91,1.688
	c0.149,1.463-2.787,3.01-3.505,4.004c0.376,2.692-0.601,2.401-0.988,4.279c-0.29,1.424-0.028,2.569-0.417,4.001
	c-0.211,0.655-0.422,1.311-0.632,1.966c-0.073,0.938-0.139,1.869-0.215,2.811c-0.183,0.278-0.372,0.561-0.558,0.842
	c0,1.024,0,2.058,0,3.086c-0.44,2.664-0.188,6.216-0.633,8.707c0,0.867,0,1.731,0,2.593c-0.958,1.595-1.92,3.187-2.877,4.777
	c-0.456,1.118-0.006,2.52-0.282,3.931c-0.17,0.884-0.704,1.59-0.917,2.313c-0.394,1.399,0.131,3.055-0.207,4.288
	c-0.693,2.525-4.201,6.81-7.929,6.175c-2.324-0.396-5.44-1.031-6.389-2.808c-1.081-2.012-0.225-9.254,0.348-11.723
	c0.293-1.271,0.985-2.039,1.406-3.021c0.139-0.557,0.276-1.123,0.419-1.682c0.236-0.396,0.705-0.683,0.912-1.195
	c0.609-1.543,1.216-3.088,1.826-4.637c0.5-1.878,0.688-3.468,1.403-5.188c0.377-0.703,0.749-1.41,1.125-2.105
	c-0.024-0.383-0.045-0.752-0.069-1.123c0.069-0.749,0.141-1.501,0.208-2.25c-0.14-0.419-0.282-0.843-0.425-1.26
	c-0.177-1.027,0.393-1.817,0.499-2.6c-0.442-0.104-0.629-0.315-0.843-0.631c0-0.093,0-0.188,0-0.281
	c1.783-1.489-0.134-5.825-0.564-7.303c-0.297-1.043,0.383-1.371-0.138-2.105c-0.554-0.184-1.023-0.484-1.407-0.842
	c-3.466-3.277,1.917-4.728,2.249-6.319c-2.517-5.534-1.41-12.118,0.206-17.619c0.307-1.148,0.615-2.297,0.918-3.442
	c0.709-1.55,2.034-3.077,2.81-4.632c-0.258-0.491-0.515-0.982-0.774-1.472c-1.075-2.312,0.18-3.415,1.475-4.637
	c0.144-0.845-0.146-1.843-0.284-2.662c-0.174-1.091,0.166-1.942-0.069-2.952c-0.522-2.28-1.029-4.172-1.054-6.88
	c-0.901,0.09-1.264,0.484-2.457,0.49c-1.096-1.003-2.194-2.011-3.298-3.021c-0.411-0.163-1.129-0.051-1.477-0.208
	c0.075-4.848-1.382-7.78-1.962-11.723c0.467-0.344,0.877-1.319,1.049-1.896c-0.507-0.814-0.292-2.163-0.767-2.948
	c-0.202-0.327-0.687-0.549-0.846-0.982c-0.351-1.801-0.702-3.606-1.047-5.407c-0.284-0.608-0.564-1.215-0.844-1.822
	c0.118-0.096,0.23-0.187,0.349-0.282c-0.226-1.596-1.146-4.538-0.208-5.896c0.552-0.801,1.375-1.414,2.458-1.688
	c0.234,0,0.465,0,0.698,0c0.177-0.107,0.068-0.251,0.072-0.35c0.366-1.556-0.214-4.403,1.05-5.054
	c0.497-0.254,0.981-0.026,1.614-0.211c0.484-0.139,1.368-0.455,2.039-0.139c-0.009,1.569,0.639,2.075,0.915,3.508
	c0.352,1.856-0.636,2.884-0.636,4.776c0.097,0,0.189,0,0.279,0c0.501-1.17,1.153-2.391,1.622-3.512
	c0.256-1.029,0.51-2.062,0.769-3.087c0.18-0.451,0.708-0.693,0.845-1.056c-0.072-0.887-0.141-1.777-0.214-2.667
	c0.281-0.307,0.566-0.607,0.847-0.914c0.138-0.748,0.276-1.495,0.419-2.244c0.211-0.374,0.421-0.749,0.631-1.121
	c0.488-1.724-0.287-3.734-0.561-4.919c-0.254-1.116-0.163-2.318-0.07-3.438c-0.543-0.099-0.816-0.377-1.193-0.633
	c-0.073,0-0.141,0-0.211,0c-0.022,0.585-0.046,1.172-0.07,1.756c-0.045-0.021-0.093-0.045-0.141-0.072c0-0.042,0-0.091,0-0.137
	c0-0.443,0-0.893,0-1.334c-0.149-0.407-0.701-0.65-0.915-1.195c0.386-0.604,0.822-1.76,0.987-2.527
	c-0.072-0.351-0.142-0.7-0.211-1.053c0.304-0.302,0.607-0.607,0.914-0.914c0.013-0.689-0.2-1.676-0.073-2.244
	c0.09-0.402,0.561-0.455,0.703-0.702c0.455-0.778,0.069-2.31,0.424-3.227c0.188-0.19,0.374-0.376,0.56-0.564
	c-0.048-0.444-0.093-0.889-0.141-1.333c-0.434-0.123-0.561-0.301-0.774-0.632c0.239-0.479,0.459-0.65,0.987-0.841
	c-0.054-1.774-0.753-3.369-0.773-5.549c-0.494-0.004-0.63-0.104-0.912-0.28c-0.559-1.59-0.594-3.567-0.914-5.618
	c0-0.676,0-1.354,0-2.033c-0.463-2.383-0.562-4.796-0.984-7.512c0.025-1.661,0.051-3.323,0.073-4.984
	c0.393-1.704,1.306-1.394,0.349-3.441c0.283-0.42,0.562-0.839,0.842-1.262c-1.515-4.683-8.174-5.972-13.27-7.092
	c-1.601-0.349-3.979,0.357-5.332-0.279c-2.296-1.078-3.619-4.065-4.424-6.67c-1.585-0.198-3.124-0.927-4.493-1.404
	c-4.244-1.491-7.82-2.692-10.317-5.898c-0.721-0.922-2.297-2.624-1.755-4.632c0.326-1.228,1.361-2.169,2.034-3.089
	c1.929-2.626,3.995-5.346,6.389-7.512c3.232-2.924,6.364-5.934,9.83-8.633c1.637-1.008,3.274-2.015,4.913-3.021
	c1.942-1.332,3.883-2.667,5.83-4.001c1.095-0.49,2.195-0.983,3.294-1.475c1.771-1.095,3.447-2.447,5.479-3.298
	c1.053-0.306,2.106-0.609,3.156-0.915c0.593-0.31,1.07-0.925,1.83-1.121c0.909,0.048,1.821,0.093,2.733,0.14
	c1.036,0,1.712-0.143,2.531-0.278c1.537-0.258,3.069,0.213,4.278-0.142c0.846,0.045,1.691,0.093,2.531,0.142
	c0.142-10.286,11.549-14.714,21.763-11.164c0.738,0.256,1.184,0.845,1.756,1.264c2.673,1.966,3.27,3.237,4.632,6.528
	c0.258,0.491,0.516,0.983,0.771,1.475c0.246,1.05,0.012,1.955,0.284,2.808c0.756,2.403,1.44,4.426,2.027,7.229
	c0.31,1.459,1.802,5.732,1.198,7.303c-0.52,0.966-3.296,0.308-4.072,0.841c0,0.024,0,0.048,0,0.072c0,0.443,0.062,0.532,0.214,0.772
	c0.437,0.032,0.678,0.07,0.842,0.351c0.207,0.606,0.419,1.217,0.63,1.823c0.517,0.654,1.028,1.313,1.546,1.966
	c-0.434,0.582-0.974,0.889-1.546,1.334c-0.138-0.116-0.281-0.232-0.423-0.349c-0.761-1.998-2.266-2.971-3.087-4.845
	c-0.258,0.024-0.516,0.045-0.774,0.07c-0.211,1.882-1.974,5.979-1.681,7.23c0.746-0.052,2.52-0.393,2.736-0.352
	c1.592,0.724,3.181,1.451,4.774,2.177c1.03-0.07,2.057-0.141,3.088-0.211c0.51,0.616,0.966,0.783,1.125,1.823
	c1.068-0.11,2.407-0.072,3.368,0.143c0.144,0.302,0.209,1.751,0.487,1.967c0.377,0.091,0.752,0.185,1.129,0.28
	c1.122,0.413,2.531,0.999,3.367,1.754c2.322,2.089,3.919,5.236,5.616,7.931c1.428,3.37,2.856,6.741,4.282,10.112
	c1.61,3.507,3.572,6.767,5.126,10.179c0.49,1.054,0.983,2.104,1.473,3.159c0.093,0.584,0.188,1.171,0.281,1.755
	c0.713,0.774,1.515,1.537,2.245,2.317c0.011,0.388-0.029,0.625-0.141,0.842c-1.049,0.629-2.24,1.364-3.509,1.825
	c-1.531,0.555-3.094,0.818-4.212,1.755c0.006,1.854,1.632,3.265,2.388,4.563c0.661,1.135,0.996,2.769,1.336,4.143
	c1.291,5.281,1.951,10.124,2.876,15.726c0.164,3.929,0.324,7.862,0.488,11.791c0.451,2.9,1.203,7.57,0.708,10.319
	c-0.234,1.279,0.16,3.192,0.348,4.213c0.59,3.214,0.983,7.909,0.068,10.533c-0.396,1.285-0.794,2.567-1.19,3.857
	c-0.785,0.929-2.075,1.826-2.669,2.883c-0.749,1.331-1.233,2.772-1.965,3.997c-0.459,0.766-1.48,3.613-2.877,3.016
	c-2.576-1.084-1.403-2.624-0.842-4.699c0.208-0.785-0.113-1.646,0.137-2.385c0.131-0.374,0.604-2.597,0-3.021
	c-0.219,0.919-0.729,1.846-1.543,2.177c-0.452,0.144-0.641-0.018-0.914-0.214c-0.92-3.514-1.5-8.861-0.349-12.706
	c1.053-3.534,4.223-5.784,3.16-11.512c-1.105-5.941-3.766-11.37-5.756-16.708c-0.785-2.099-1.081-4.523-1.614-6.809
	c-0.19-1.334-0.376-2.668-0.564-4.004c-0.423-1.214-0.842-2.432-1.262-3.648c-0.399-2.268-0.794-4.539-1.195-6.81
	c-0.215-0.874-0.705-1.728-0.843-2.807c-0.069,0-0.14,0-0.211,0c0,0.255,0,0.515,0,0.771c0.751,2.8,0.495,7.648-0.067,10.39
	c-0.196,0.943-0.885,1.3-0.707,2.386c0.828,0.014,2.37,2.656,2.107,3.792c-0.232,1.021-0.388,3.73,0.068,4.915
	c0.152,0.385,0.701,0.933,0.848,1.264l0.206,2.595c-0.185,0.352-0.375,0.705-0.558,1.054c0,0.819,0,1.637,0,2.456
	c-0.025,0-0.048,0-0.067,0c-0.096-0.021-0.193-0.046-0.285-0.068c-0.104-0.85-0.338-2.193-0.352-2.81
	c-0.01-0.418,0.568-0.941,0.352-1.754c-2.762-0.749-0.574-6.461-2.179-8.845c-0.141,0-0.278,0-0.419,0
	c-0.069,1.333-0.139,2.666-0.212,4.002c0.102,0.298,0.305,0.345,0.353,0.841c-0.33,0.21-0.653,0.422-0.984,0.631
	c0.021,0.118,0.05,0.234,0.075,0.355C214.342,146.281,212.387,149.48,212.273,151.389z M138.352,96.002
	c-0.186-3.249-1.453-6.603-2.32-9.341c-0.301-0.982-0.608-1.965-0.912-2.946c-1.243,0.659-5.1,3.477-6.74,3.02
	c0.048,0,0.093,0,0.141,0c0.822-0.448,1.639-0.892,2.46-1.335c1.923-1.202,3.922-2.708,5.265-4.494
	c1.565-2.081,2.331-4.816,3.861-6.949c0.633-0.561,1.262-1.122,1.896-1.685c1.166-1.217,2.336-2.434,3.51-3.65
	c1.269-1.605,3.252-4.468,4.98-5.475c1.837-1.071,4.454,0.115,6.668,0.42c0.73-0.117,1.455-0.232,2.177-0.352
	c3.719-0.726,5.062-2.151,6.32-5.266c-1.07,0.021-2.058,0.089-3.159,0.07c-0.191-0.325-0.373-0.653-0.566-0.98
	c0.051-0.07,0.096-0.142,0.142-0.212c0.686-0.307,6.61-2.175,6.74-2.106c0.211,0.164,0.421,0.329,0.633,0.492
	c2.738-0.801,5.991-0.321,6.389-3.511c-0.431-1.341-2.564-1.529-4.146-1.685c-0.406-0.041-0.631,0.318-0.979,0.422
	c-0.68-0.048-1.358-0.094-2.037-0.141c-0.47,0.118-0.935,0.234-1.402,0.351c-1.379-0.046-2.767-0.094-4.144-0.141
	c-1.625,0.286-3.146,0.272-5.053,0.281c-0.754,1.497-3.764,1.545-5.335,2.246c-3.135,1.873-6.272,3.744-9.407,5.616
	c-7.833,5.213-15.811,10.202-21.555,17.48c-1.528,1.944-4.997,5.057-5.476,7.722c-0.259,1.458,2.286,3.794,2.951,4.634
	c2.739,3.459,8.45,3.688,12.847,5.545c0.375,0.328,0.748,0.654,1.122,0.981C134.934,95.343,136.638,95.67,138.352,96.002z
	 M168.535,55.494c-1.128,0.949-1.796,0.192-3.297,0.701c-0.736,0.249-1.657,0.684-2.528,0.913c0.024,0.047,0.048,0.095,0.069,0.14
	c0.929,0.328,2.39-0.18,3.44,0.07c0.952,3.97-4.51,6.428-8.003,6.95c-2.57,0.386-4.6-1.611-6.74-0.702
	c-1.776,0.757-3.07,2.772-4.214,4.213c-2.661,3.375-6.291,5.734-8.419,9.687c0.024,0.047,0.045,0.095,0.066,0.141
	c3.49-0.325,5.911-0.733,9.127-0.07c0.259-0.62,0.563-0.84,0.983-1.263c1.571,0.035,1.983,0.824,3.367,0.141
	c0.129-0.565,1.095-1.011,1.899-0.773c0.306,0.188,0.609,0.375,0.914,0.563c1.567,0.163,3.136,0.328,4.702,0.491
	c0.417-0.139,0.402-0.494,0.915-0.491c0.141,0.211,0.279,0.421,0.422,0.631c0.878-0.087,1.186-0.288,1.685-0.701
	c1.327,0.772,3.304-0.221,4.561-0.702c0.419-0.023,0.843-0.047,1.266-0.07c2.694-0.889,3.965-1.798,7.232-1.333
	c0-0.21,0-0.422,0-0.632c0.126-0.478-1.342-4.208-1.615-5.195c-0.12,0-0.235,0-0.354,0c-0.069,0.024-0.138,0.047-0.208,0.069
	c0.088,0.609,0.186,1.218,0.279,1.826c-0.31,0.117-0.61,0.233-0.915,0.349c-0.042-0.442-0.093-0.887-0.141-1.333
	c-0.137,0.119-0.279,0.234-0.417,0.353c-0.146,0.331-0.31,0.479-0.704,0.561c-0.024-0.068-0.048-0.139-0.07-0.21
	c-0.231-0.955,1.054-1.766,1.191-2.597c-0.116-0.398-0.232-0.797-0.351-1.195c-1.37,0.277-3.191,0.59-4.633,0.282
	c-1.21-0.93,0.158-7.083,0.492-8.986c0.088-0.5,0.364-1.394,0.069-1.824C168.583,55.494,168.559,55.494,168.535,55.494z
	 M184.824,57.108c-1.84,0.685-4.645-0.042-6.387,0.701c0,0.025,0,0.049,0,0.07c1.489,0.028,2.801,0.522,3.998,0.633
	c2.306,0.211,5.425-0.279,7.443-0.633c0.864-0.045,1.731-0.093,2.596-0.141c-0.839-0.187-1.687-0.373-2.528-0.56
	C188.24,57.155,186.528,57.13,184.824,57.108z M194.372,58.582c0.281,0.49,0.56,0.981,0.84,1.476
	c0.756,3.286-1.209,6.716-4.847,5.824c-0.604-0.232-1.216-0.468-1.824-0.699c-0.582-0.869-1.167-1.733-1.754-2.599
	c-0.224-0.682-0.042-1.337-0.492-1.755c-0.498-0.53-1.516-0.328-2.244-0.14c-0.256,2.89-3.192,7.09-7.021,5.053
	c-1.458-0.775-2.188-3.565-2.247-5.827c-0.045,0.024-0.094,0.047-0.138,0.071c-0.189,0.515-0.377,1.029-0.563,1.544
	c-0.805,3.341,1.651,8.352,2.247,10.671c0.374,1.463-0.048,2.608-0.208,3.791c0.304,1.568,0.605,3.139,0.909,4.706
	c0.354,0.253,0.702,0.512,1.054,0.77c2.555,1.958,6.33,3.987,11.372,2.738c2.136-0.53,3.548-2.115,5.335-3.09
	c0.251-1.773,0.682-3.354,0.702-5.407c-0.469-0.104-1.184-0.322-1.403-0.699c-0.746-0.903,0.362-3.204,0.631-3.933
	c0.446-1.212,0.456-2.676,0.985-3.999c0.208-0.21,0.421-0.423,0.628-0.634c0.271-0.623-0.006-6.285-0.207-6.739
	C195.537,59.332,194.954,58.957,194.372,58.582z M186.787,58.793c-0.979,0.093-1.963,0.188-2.947,0.279c0,0.024,0,0.05,0,0.071
	c0.07,0.303,0.14,0.607,0.211,0.914c0.707-0.353,1.205-0.265,2.177-0.212c0.262-0.534,0.571-0.695,0.98-1.053
	C187.069,58.793,186.928,58.793,186.787,58.793z M204.619,76.765c-0.093,0.047-0.186,0.093-0.28,0.141
	c0.048,0.258,0.095,0.517,0.143,0.771c0.441,0.07,0.89,0.14,1.334,0.213c-0.073-0.306-0.144-0.611-0.212-0.915
	c-0.12-0.069-0.232-0.141-0.351-0.21C205.039,76.765,204.832,76.765,204.619,76.765z M224.697,122.606
	c-3.11,1.311-6.225,2.621-9.335,3.932c1.509,7.834,3.065,16.137,5.332,23.518c1.196,3.157,2.387,6.314,3.585,9.478
	c0.838,2.446,1.072,5.024,1.54,7.863c0.394,2.387-1.155,4.647-1.967,6.035c-1.474,2.53-2.639,7.102-1.893,10.811
	c0.139,0.698,0.139,3.283,0.491,3.653c0.188,0.091,0.371,0.182,0.562,0.28c0.559-0.776,1.123-1.547,1.685-2.317
	c0.501-1.362-0.51-2.78,0.425-3.725c0.193,1.168-0.1,2.274,0.139,3.725c0.183,1.075,0.374,2.151,0.559,3.229
	c-0.392,2.077-1.155,4.125-1.4,6.528c0.491,0.115,0.982,0.235,1.472,0.351c0.678-1.055,1.357-2.106,2.033-3.154
	c0.565-1.242,1.13-2.486,1.688-3.725c0.771-0.844,1.543-1.688,2.318-2.528c0.682-1.081,1.066-2.676,1.401-4.003
	c0.718-2.821,0.146-7.298-0.42-10.246c-0.166-1.128-0.329-2.247-0.495-3.372c0.689-3.532,0.129-8.296-0.486-12.076
	c-0.119-2.267-0.237-4.537-0.357-6.807c0-1.055,0-2.107,0-3.158c-0.874-5.067-1.656-9.979-3.017-14.535
	C227.816,129.861,226.316,123.796,224.697,122.606z M159.059,144.579c-0.21,0.116-0.424,0.232-0.631,0.351
	c-0.469,1.87-1.071,4.164-0.069,5.97c0.257,0.09,0.515,0.185,0.772,0.277c0.145-2.059,0.137-4.186,0.137-6.598
	C159.2,144.579,159.132,144.579,159.059,144.579z M155.758,150.899c-0.205,0.674-0.452,1.344-0.701,2.102
	c0.411,0.458,0.343,0.774,0.563,1.336c0.445,0.233,0.893,0.468,1.332,0.703c0.4-0.354,0.801-0.703,1.195-1.056
	c-0.023-0.043-0.048-0.091-0.069-0.139C156.253,153.247,156.859,151.789,155.758,150.899z M157.795,157.986
	c-0.213,0.211-0.418,0.423-0.633,0.634c0.257,0.724,0.515,1.452,0.772,2.175c0.049,0.446,0.096,0.888,0.144,1.336
	c0.228-1.078,0.47-2.578,0.49-4.075C158.31,158.034,158.052,158.01,157.795,157.986z M145.58,176.661
	c-1.755,2.445-1.119,3.719-0.421,6.602c0.163-0.051,0.327-0.099,0.49-0.144C145.671,181.271,146.766,177.753,145.58,176.661z
	 M156.46,177.503c-1.187,2.072-2.481,3.849-2.034,7.299c0.045-0.019,0.09-0.047,0.141-0.066
	C155.122,183.374,157.064,179.55,156.46,177.503z M154.426,185.995c-0.47,1.685-0.837,3.98-0.419,5.9
	c0.256,0.702,0.51,1.403,0.769,2.104c0.024,0,0.048,0,0.073,0c-0.005-2.274,0.584-3.868,0.771-5.546
	c0.034-0.287-0.62-1.543-0.703-2.459C154.754,185.995,154.59,185.995,154.426,185.995z"/>
</svg>
