<?xml version="1.0" encoding="utf-8"?>
<!-- Generator: Adobe Illustrator 16.0.0, SVG Export Plug-In . SVG Version: 6.00 Build 0)  -->
<!DOCTYPE svg PUBLIC "-//W3C//DTD SVG 1.1 Tiny//EN" "http://www.w3.org/Graphics/SVG/1.1/DTD/svg11-tiny.dtd">
<svg version="1.1" baseProfile="tiny" id="Layer_1" xmlns="http://www.w3.org/2000/svg" xmlns:xlink="http://www.w3.org/1999/xlink"
	 x="0px" y="0px" width="350px" height="350px" viewBox="0 0 350 350" overflow="scroll" xml:space="preserve">
<path fill-rule="evenodd" fill="#263A7F" d="M126.599,218.124c-0.094-0.942-0.188-1.887-0.282-2.834
	c0.519-0.397,1.038-0.803,1.558-1.201c0-0.165,0-0.332,0-0.498c-0.329,0-0.661,0-0.993,0c0.019-1.148,0.011-2.117-0.14-3.119
	c-0.471-0.07-0.944-0.14-1.416-0.209c-0.049-0.823-0.097-1.655-0.144-2.479c-1.064-0.544-2.167-0.83-3.896-0.856
	c0.047-2.783,0.093-5.57,0.141-8.355c0.845-0.498,1.272-0.862,2.764-0.854c0.144-1.187,0.744-1.374,1.203-2.197
	c-0.445-0.165-0.896-0.326-1.344-0.494c-0.28-1.467-0.253-3.283-0.85-4.467c-0.697-1.373-2.388-1.726-3.117-2.763
	c-0.38-1.038-0.757-2.077-1.136-3.12c-0.578-2.073,0.315-4.906,0.638-7.085c-0.165-0.945-0.332-1.886-0.5-2.831
	c-0.279-0.309-0.564-0.615-0.848-0.924c0.024-1.063,0.05-2.127,0.072-3.182c-0.523-1.943-1.039-3.881-1.559-5.817
	c-0.59-0.943-1.182-1.89-1.773-2.833c-0.024-1.465-0.045-2.93-0.071-4.395c-0.353-0.609-0.707-1.229-1.059-1.838
	c-0.982-1.681-1.695-3.361-2.058-5.669c0.144-0.927,0.284-1.845,0.424-2.769c0.426-2.336,0.848-4.68,1.276-7.015
	c1.235-5.59,2.335-10.84,3.543-16.44c0.18-0.839-0.508-1.073-0.429-1.77c0.407-1.23,0.807-2.458,1.207-3.688
	c0.212-0.021,0.426-0.046,0.638-0.066c0.426-1.158,0.851-2.322,1.276-3.477c1.404-3.618,2.924-6.798,4.393-10.129
	c0.635-1.442,1.611-4.448,2.624-5.458c0.457,0.056,0.673,0.137,0.991,0c0.732-1.092,1.464-2.174,2.196-3.259
	c3.046-4.571,6.371-8.64,10.701-11.903c1.188-0.895,5.277-2.414,5.881-3.408c0.239-1.037,0.473-2.076,0.71-3.116
	c2.03-3.761,4.091-3.283,8.078-4.817c0.261,0.324,0.281,0.897,0.637,1.134c0.828,0.166,1.653,0.331,2.479,0.492
	c0.544,0.234,1.089,0.472,1.63,0.708c0.998,0.218,2.223-1.008,2.765-1.418c-0.117-2.331-0.235-4.671-0.354-7.01
	c-0.471-0.71-0.943-1.417-1.417-2.127c-0.388,0.139-1.106,0.361-1.488,0.214c-3.452-1.623-5-4.909-4.18-10.344
	c0.266-1.761,0.03-3.595,0.353-5.033c0.484-0.193,0.845-0.368,1.489-0.498c0-0.139,0-0.288,0-0.425
	c-0.232-0.299-0.613-0.702-0.354-1.278c0.213-0.255,0.429-0.515,0.638-0.776c0.022-0.375,0.047-0.758,0.069-1.134
	c-0.235-0.426-0.473-0.85-0.708-1.278c0.66-0.917,1.323-1.845,1.982-2.759c2.111-3.117,5.219-4.903,9.003-6.377
	c0.991-0.393,2.411-1.216,3.965-0.924c2.498,0.463,5.529,0.947,7.583,2.059c2.278,1.228,6.153,4.912,7.652,7.012
	c-0.127,2.16,0.768,2.053,1.133,3.543c-0.044,0.563-0.094,1.135-0.137,1.7c1.623,0.72,0.95,3.612,1.271,5.668
	c0.658,4.21,0.716,5.517-1.204,8.578c-0.26,0.443-0.52,0.895-0.776,1.343c-1.122,0.976-3.223,1.776-4.534,2.554
	c-0.203,2.258-0.284,4.44-0.287,6.869c0.024,0,0.048,0,0.072,0c1.811-0.474,2.568-0.668,2.904-2.409
	c2.877,0.035,7.149,1.837,8.291,3.543c0.268,0.406,0.482,2.111,0.709,2.342c0.072,0,0.141,0,0.214,0
	c0.592,0.116,1.178,0.234,1.769,0.353c1.11,0.497,2.22,0.993,3.331,1.487c3.491,1.535,7.242,3.633,10.139,5.885
	c0.515,0.591,1.034,1.181,1.553,1.768c2.13,2.648,4.547,5.083,6.663,7.797c0.494,0.592,0.995,1.184,1.488,1.774
	c0.708,0.398,1.417,0.801,2.124,1.2c1.323,2.153,2.648,4.306,3.968,6.451c2.441,3.997,5.011,7.91,7.087,12.259
	c1.932,4.05,4.161,8.397,5.244,13.112c0.046,1.488,0.1,2.974,0.146,4.46c0,1.065,0,2.128,0,3.191
	c-0.709,2.931-2.121,5.49-3.188,8.08c-1.993,4.825-3.503,10.087-6.024,14.525c-0.501,0.593-0.991,1.181-1.491,1.77
	c-0.543,1.421-1.086,2.837-1.626,4.253c-1.003,2.271-3.068,4.069-4.536,5.953c-0.569,0.735-1.134,1.463-1.703,2.196
	c-0.997,0.809-2.204,0.557-3.683,0.99c-1.11,0.404-2.224,0.809-3.333,1.206c-1.975,0.609-3.932,0.754-5.386,1.846
	c-0.285,0.375-0.568,0.749-0.847,1.129c0.233,1.868,0.472,3.733,0.705,5.603c0.33,0.278,0.665,0.563,0.994,0.843
	c0.593,0.598,1.452,1.849,1.7,2.701c0.066,4.764,0.145,9.539,0.216,14.311c0.61,3.376,1.226,6.761,1.838,10.139
	c0.658,4.537-1.617,7.581-2.902,10.479c-0.393,0.887-1.685,2.279-1.279,3.826c0.639,1.21,1.279,2.412,1.918,3.619
	c-0.075,2.082-0.147,4.156-0.216,6.234c-0.411,2.499,0.151,4.616,0.57,6.445c0,1.611,0,3.217,0,4.822
	c0.373,0.757,0.753,1.514,1.13,2.265c0.476,1.681,0.948,3.355,1.42,5.033c-0.028,1.467-0.049,2.928-0.072,4.392
	c0.12,1.752,0.237,3.494,0.354,5.247c0.044,1.041,0.091,2.075,0.14,3.119c-0.211,0.589-0.422,1.181-0.638,1.771
	c0.025,1.418,0.046,2.832,0.069,4.25c2.475,1.18,3.965,2.235,3.827,5.811c-0.942,0.449-1.89,0.899-2.833,1.349
	c0,0.024,0,0.046,0,0.069c3.209-0.026,3.938,1.207,4.534,3.829c0.218,0.953,0.429,2.33,0,3.397c-0.588,1.477-2.64,3.392-1.276,5.604
	c0.854,0.682,1.702,1.369,2.556,2.052c0.308,0.758,0.61,1.512,0.917,2.271c0.896,1.063,1.8,2.125,2.697,3.188
	c1.498,1.132,5.694,3.043,6.515,4.46c0.574,0.988,0.024,2.156,0.356,2.977c0.187,0.17,0.377,0.332,0.568,0.501
	c0.362,0.851-0.103,1.982-0.215,2.689c-5.051,0.899-11.192,3.276-16.723,0.993c-2.365-0.981-3.006-3.401-4.961-4.745
	c-1.063,0.212-2.126,0.423-3.189,0.637c-1.694,0.239-7.455-1.532-8.218-2.34c-0.02-1.244-0.436-2.596-0.285-3.544
	c0.375-1.183,0.758-2.364,1.132-3.548c0.072-1.037,0.146-2.076,0.216-3.113c0.237-0.589,0.471-1.181,0.711-1.77
	c-0.642-0.734-1.279-1.465-1.918-2.204c-0.424-1.625-0.85-3.257-1.271-4.883c-0.099-0.733-0.189-1.464-0.287-2.2
	c-0.329-0.282-0.659-0.566-0.994-0.847c0.214-1.108,0.699-1.094,1.418-1.636c-0.8-0.657-1.604-1.321-2.408-1.979
	c-2.511-3.13-6.304-7.436-7.371-11.768c0-0.773,0-1.555,0-2.333c-0.312-1.979-0.108-6.8,0.286-8.718
	c0.188-0.642,0.381-1.277,0.564-1.914c0.078-0.801-0.699-1.24-0.564-2.192c0.81-5.681-0.265-10.976-1.349-15.877
	c-0.426-2.338-0.851-4.679-1.276-7.016c-0.537-1.249-1.084-2.509-1.627-3.759c-0.12-1.032-0.237-2.076-0.355-3.116
	c-0.682-1.371-1.369-2.735-2.053-4.106c-0.923-2.909-1.846-5.815-2.762-8.721c-0.335-2.264-0.667-4.533-0.992-6.798
	c-0.525-1.94-1.044-3.88-1.562-5.815c-0.332-0.751-0.66-1.511-0.99-2.268c0.091-0.659,0.185-1.316,0.278-1.984
	c-0.234-0.305-0.471-0.614-0.706-0.919c-2.745,1.873-2.887,10.125-3.967,13.961c-0.897,2.621-1.796,5.241-2.69,7.863
	c-0.734,2.596-1.469,5.195-2.202,7.8c-0.851,2.313-1.701,4.626-2.551,6.942c-0.52,2.102-1.038,4.201-1.558,6.307
	c-0.612,2.501-1.229,5.009-1.842,7.507c-0.098,1.231-0.19,2.462-0.284,3.691c-0.238,1.439-0.541,3.297-0.285,4.882
	c0.025,1.939,0.047,3.874,0.071,5.817c0.485,3.119,0.854,10.731-0.071,13.11c-0.707,1.228-1.417,2.458-2.123,3.677
	c-0.695,1.611-1.147,3.188-1.987,4.539c-1.957,3.133-3.14,6.264-7.795,5.528c0,0.094,0,0.192,0,0.284
	c0.028,0.165,0.048,0.33,0.072,0.497c0.685,0.401,1.374,0.802,2.055,1.204c3.502,3.231-2.428,6.708-3.043,9.492
	c0.256,1.325,0.516,2.646,0.776,3.972c0.538,2.725,0.81,5.321,0.425,8.079c-1.083,0.375-2.172,0.754-3.259,1.132
	c-0.285-0.023-0.57-0.048-0.85-0.066c-0.348,0.118-0.552,0.464-1.064,0.562c-1.088,0.024-2.173,0.048-3.262,0.076
	c-0.984,5.009-5.981,6.703-12.398,5.734c-2.135-0.319-4.912,0.148-5.74-1.412c-0.485-1.665,0.103-1.797,0.353-2.911
	c0.274-1.223-0.913-2.613-0.213-3.964c0.878-1.7,2.724-2.952,4.181-4.114c2.121-1.694,3.653-4.436,5.104-6.798
	c-0.332,0.043-0.663,0.095-0.991,0.136c-0.056-1.773-0.694-3.171-0.994-4.534c-0.285-1.305,0.704-2.57,0.498-3.685
	c-0.449-1.035-0.897-2.076-1.352-3.114c-0.253-1.749,1.798-2.953,2.911-3.403c-0.096-0.096-0.19-0.19-0.284-0.283
	c-0.425-0.472-0.851-0.947-1.275-1.415c-0.214-0.996-0.426-1.989-0.638-2.98c0.237-0.471,0.471-0.943,0.709-1.416
	c0.635-0.114,1.8-0.528,2.126-0.989c0.608-0.864-0.118-6.718-0.638-7.797c0.01,1.59,0.208,4.528-0.424,5.741
	c-0.645,0.22-2.307,0.432-2.765-0.286c-0.32-0.616-0.224-4.808,0.072-5.739c0.207-0.331,0.426-0.66,0.636-0.995
	c0.025-1.956,0.05-3.917,0.071-5.879c0.517-3.352,0.482-7.298,0.497-11.193c-0.45,0.019-0.897,0.047-1.348,0.066
	c-0.053-0.407-0.202-0.881-0.494-1.063c-0.782-0.256-1.56-0.521-2.338-0.775c0.059-0.908-0.335-0.771-0.569-1.346
	c0.047-1.396,0.097-2.79,0.144-4.182c0.4-0.069,0.803-0.144,1.204-0.211c0.118-2.743,0.237-5.483,0.35-8.225
	c0.359-0.092,0.713-0.188,1.063-0.284c-0.044-2.076-0.09-4.158-0.137-6.233c0.175-0.457,0.628-0.609,0.498-1.063
	c-0.783-0.309-3.434-2.648-3.757-3.335c-0.051-0.445-0.096-0.896-0.145-1.34c-0.356-0.357-0.707-0.709-1.063-1.063
	c-0.05-1.377,0.429-2.481,1.276-2.909C123.653,216.152,124.636,218.187,126.599,218.124z M172.521,41.61
	c-1.354,0.539-2.974,0.331-4.184,0.851c-2.58,1.094-7.042,4.979-7.795,7.79c0.072,0,0.14,0,0.211,0
	c1.773-0.852,3.979-1.597,6.236-1.982c1.536,0.189,3.072,0.382,4.606,0.567c3.709-0.555,8.255-1.6,11.625,0.071
	c0.61,0.521,1.224,1.04,1.839,1.561c0.026,0,0.048,0,0.069,0c0.047-1.175-0.028-2.639-0.632-3.187
	c-1.118-0.51-2.051-0.628-2.98-1.211C178.789,44.354,176.953,41.677,172.521,41.61z M185.699,48.411
	c0.233,0.023,0.472,0.046,0.707,0.07c0.473-1.432-0.206-1.915-0.638-3.051c-0.023,0-0.046,0-0.069,0
	C185.699,46.427,185.699,47.423,185.699,48.411z M158.7,46.568c-0.097,0.66-0.838,1.955-0.566,2.338
	c0.26,0.186,0.52,0.379,0.778,0.567c0.047-0.023,0.094-0.046,0.145-0.069C159.079,48.789,159.101,47.072,158.7,46.568z
	 M184.07,54.438c-1.795,0.108-3.434,0.602-4.819,1.2c-0.944,0.407-1.825,1.399-3.54,0.995c-1.998-0.474-1.675-2.902-3.476-3.474
	c0.025,0.095,0.045,0.188,0.072,0.285c-0.254-0.134-0.207-0.142-0.497-0.142c-0.857,1.22-1.382,3.187-2.552,4.108
	c-2.29-0.065-6.333-1.104-7.652-2.192c-0.52-0.761-1.038-1.518-1.561-2.267c-0.044,2.191-0.094,4.394-0.14,6.584
	c0.165,1.415,0.333,2.834,0.497,4.252c1.028,0.116,1.091,0.631,1.557,1.281c0.406,0.536,0.804,1.08,1.207,1.627
	c0.094,3.043,0.187,6.094,0.281,9.138c1.158,1.773,2.314,3.543,3.475,5.315c6.166,0.073,11.145-0.794,13.75-4.325
	c0.421-0.592,0.846-1.175,1.273-1.767c-0.072-1.675-0.145-3.358-0.211-5.029c0.164-1.25,0.324-2.505,0.491-3.761
	c-0.344,0.049-5.08,0.901-5.17,0.992c0,0.143,0,0.287,0,0.427c-0.631-0.036-1.006-0.308-1.416-0.564
	c-1.836,0.635-3.815,1.415-5.388-0.214c0.068-0.424,0.143-0.849,0.213-1.275c0.972-1.532,3.333-0.723,4.746-0.354
	c1.066,0.271,1.433-0.4,2.339-0.211c-0.072,0.328-0.145,0.654-0.211,0.991c1.815-0.214,3.635-0.426,5.458-0.638
	c0.595-1.062,1.527-1.893,1.909-3.19c0.854-2.903,0.568-6.737,0.568-10.345c-0.69-0.41-0.839-0.12-1.276,0.563
	C184.024,53.109,184.046,53.773,184.07,54.438z M184.284,63.787c-0.311,0.452-0.615,0.899-0.924,1.341
	c0.866-0.146,1.96-0.719,2.479-1.271C185.323,63.837,184.804,63.814,184.284,63.787z M205.469,117.361
	c0.71,0.071,1.415,0.142,2.127,0.212c1.488,2.124,2.976,4.252,4.467,6.376c-0.236,0.241-0.472,0.475-0.709,0.712
	c-0.233-0.026-0.474-0.052-0.71-0.074c0.22,0.516,0.989,1.848,0.782,2.196c-0.546,0.615-1.092,1.23-1.632,1.844
	c-0.073,0.377-0.141,0.755-0.21,1.132c-0.855,0.758-1.701,1.515-2.555,2.269c0.024,0.046,0.046,0.097,0.07,0.142
	c1.683,0.738,2.676,2.431,4.111,3.4c0.885,0.601,2.56,1.122,3.048,2.057c0.713,1.359,0.081,3.619-0.145,4.818
	c0.075,1.299,0.145,2.596,0.214,3.898c-0.404-0.375-0.805-0.755-1.201-1.136c0.019-2.036,0.716-4.393-0.075-6.307
	c-0.497,0.546-0.989,1.087-1.488,1.636c-0.684,1.364-1.37,2.736-2.055,4.106c-0.473,0-0.944,0-1.415,0
	c0.459,2.508,1.811,1.875,2.975,3.256c1.204,1.435,1.208,3.139,1.842,5.247c0.509-0.249,0.835-0.426,1.633-0.426
	c0.094,2.498-3.114,5.861-4.327,7.724c-0.26,0-0.517,0-0.779,0c-0.256-0.28-0.519-0.569-0.778-0.849
	c-0.423,0.312-0.848,0.612-1.276,0.922c-1.219,0.585-2.996,0.565-4.606,0.778c0.048,0.826,0.094,1.652,0.144,2.478
	c1.136-0.313,4.608-1.233,5.879-0.631c0.332,0.325,0.667,0.657,0.996,0.986c0.615-0.116,1.225-0.234,1.842-0.355
	c0.399-1.015,1.344-1.504,1.844-2.333c0.073-0.404,0.139-0.806,0.21-1.21c0.633-1.853,1.8-3.646,2.479-5.595
	c0.223-0.624,0.969-4.083,1.279-4.321c0.354-0.142,0.709-0.286,1.062-0.427c-0.393-2.117-0.567-2.767,0.283-4.889
	c0.19-0.237,0.375-0.474,0.565-0.708c0.182-0.559-0.404-1.145-0.209-1.773c0.417-1.392,1.763-3.327,1.341-5.246
	c-0.324-1.11-0.659-2.218-0.987-3.328c-0.075-1.346-0.145-2.694-0.217-4.042c-0.655-0.874-1.319-1.743-1.982-2.621
	c-1.207-1.676-2.406-3.357-3.614-5.03c-0.756-0.92-1.51-1.842-2.264-2.764c-0.215-0.826-0.426-1.652-0.641-2.48
	c-0.592-1.095-3.699-3.959-4.748-4.75c-0.046,0-0.095,0-0.145,0c-0.279,0.353-0.562,0.713-0.846,1.063
	C205.187,114.667,205.331,116.014,205.469,117.361z M129.506,146.915c-0.497,1.317-0.994,2.641-1.488,3.963
	c2.316,0.182,2.977,0.703,4.535,1.276c1.024,0.377,2.082,0.231,3.047,0.427c0.26,0.516,0.52,1.037,0.779,1.56
	c-0.238,3.608-0.469,7.224-0.709,10.845c-0.235,7.104-0.473,14.216-0.704,21.323c0.584,0.26,1.175,0.52,1.766,0.782
	c0.025-1.98,0.046-3.971,0.072-5.957c0.234-0.942,0.472-1.889,0.707-2.83c-0.047-0.901-0.093-1.798-0.141-2.695
	c0.308-0.966,0.614-1.938,0.923-2.902c0.458-2.182-0.046-5.979-0.356-7.869c-0.188-3.262-0.379-6.522-0.567-9.779
	c-0.825-1.655-1.654-3.301-2.479-4.956C132.09,149.817,131.449,147.874,129.506,146.915z M133.615,223.941
	c-2.063,4.779,0.488,16.48-3.261,19.273c0.426,1.672,0.851,3.353,1.276,5.024c0.025,0,0.049,0,0.072,0
	c0.049-2.081,0.58-4.034,0.922-5.663c0.259-4.068,0.52-8.126,0.779-12.189C133.49,229.405,133.988,224.366,133.615,223.941z
	 M129.363,251.365c-0.595,1.745-0.595,4.819-0.281,6.796c-0.072,2.226-0.144,4.444-0.212,6.662c0.825-0.491,0.6-2.18,0.777-3.326
	c0.232-3.216,0.473-6.426,0.708-9.639C130.026,251.691,129.694,251.528,129.363,251.365z"/>
</svg>
