<?xml version="1.0" encoding="utf-8"?>
<!-- Generator: Adobe Illustrator 16.0.0, SVG Export Plug-In . SVG Version: 6.00 Build 0)  -->
<!DOCTYPE svg PUBLIC "-//W3C//DTD SVG 1.1 Tiny//EN" "http://www.w3.org/Graphics/SVG/1.1/DTD/svg11-tiny.dtd">
<svg version="1.1" baseProfile="tiny" id="Layer_1" xmlns="http://www.w3.org/2000/svg" xmlns:xlink="http://www.w3.org/1999/xlink"
	 x="0px" y="0px" width="350px" height="350px" viewBox="0 0 350 350" overflow="scroll" xml:space="preserve">
<path fill-rule="evenodd" fill="#138A44" d="M277.2,126.37c0,0.43,0,0.858,0,1.294c-0.944,0.426-2.702,0.99-3.607,0.585
	c0.06-1.208-0.054-1.941-0.513-2.586c-1.591,0-3.184,0-4.766,0c0.018,1.168-0.389,1.985-0.518,2.586
	c-0.162,0.786,0.504,2.491,0.266,3.648c-0.22,0-0.438,0-0.643,0c-0.182-0.499-0.254-0.555-0.65-0.823
	c0.065-1.779,0.396-2.708-0.388-3.886c-0.553,0.323-0.853,0.351-1.675,0.24c0.099,0.881,0.153,1.25-0.902,1.409
	c-0.257-0.455-0.158-0.507-0.901-0.588c-0.409,0.303-0.276,0.38-1.025,0.472c-0.398-0.313-0.377-0.437-1.032-0.588
	c-0.222,0.334-0.282,0.38-0.638,0.588c-1.19-0.416-0.934-0.659-2.061,0c-0.529-0.289-0.532-0.476-1.286-0.588
	c-0.436,0.324-0.342,0.412-1.166,0.472c-0.24-0.472-0.267-0.386-0.769-0.592c-0.428,0.317-0.351,0.454-1.028,0.592
	c-0.083-0.16-0.177-0.31-0.265-0.472c-0.905-0.065-0.901,0.086-1.536,0.472c-0.488-0.354-0.443-0.509-1.293-0.592
	c-0.377,0.271-0.655,0.359-1.155,0.592c0.208,0.459,0.226,0.356,0,0.817c-0.688,0.276-1.371,0.553-2.063,0.828
	c-0.538,1.727-0.1,4.147,0,6.236c0.221,4.531-0.163,7.536-1.026,11.654c-1.184,0.352-3.453,0.07-4.644-0.232
	c-0.077-3.611-0.164-7.226-0.25-10.833c0.25-2.153,0.518-4.316,0.774-6.476c-0.366-1.067-1.761-1.017-2.45-1.762
	c0.059-0.493-0.198-0.728-0.647-1.062c-0.941,0.104-0.771,0.334-1.676,0.474c-0.171-0.398-0.162-0.363-0.504-0.585
	c-0.43,0.197-0.868,0.388-1.286,0.585c-0.395-0.419-0.435-0.542-1.289-0.585c-0.289,0.504-0.592,0.388-1.032,0.703
	c0.581,0.921-0.042,0.946-0.134,1.767c0.259,0.782,0.518,1.564,0.778,2.355c0.904,3.251-0.883,10.585-2.454,11.76
	c-1.49,1.132-4.697-0.39-5.918,0.361c-0.263,0.208-0.087,0-0.254,0.349c0.734,2.949,1.453,5.887,2.186,8.826
	c-2.758,0.803-9.466,1.044-10.938,3.41c-0.39-0.241-0.37-0.387-0.902-0.232c-0.453,0.328-4.063,5.299-4.249,5.768
	c0,0.47,0,0.937,0,1.413c-0.388,1.402-1.772,3.978-2.577,4.939c-1.816,2.181-4.769,3.451-6.829,5.417
	c-0.589,0.565-0.534,1.433-1.292,1.879c-0.743,0.458-1.302,0.239-1.791,0.944c3.812,5.751,2.176,18.029,2.702,26.243
	c0.449,6.997,0.824,15.276-0.508,23.063c-0.218,2.866-0.433,5.732-0.653,8.593c-0.601,2.195-1.936,4.873-2.314,6.944
	c-0.224,1.221,0.611,2.04,0.773,2.938c0.171,0.982-0.599,1.354-0.773,1.885c-0.261,0.765,0.484,3.174,0.256,4.475
	c4.692,3.859,6.387,6.934,16.099,5.767c0.035,0.078,0.084,0.153,0.116,0.238c-0.081,0.155-0.164,0.312-0.254,0.467
	c-0.375,0.16-0.765,0.313-1.153,0.472c0.042,0.081,0.086,0.153,0.136,0.229c3.098-0.145,5.979,0.324,7.079,2.36
	c0.169,0.509,0.335,1.017,0.508,1.525c0.299,0.158,0.603,0.315,0.899,0.479c0.449,0.627,0.723,3.022,0.386,3.763
	c-0.901,1.517-3.562,1.582-5.527,2.11c-3.809,1.034-22.18,1.985-25.627,0.476c-0.087-0.271-0.173-0.546-0.254-0.828
	c-4.39-0.162-8.149,0.712-11.968,1.418c-1.503,0.076-3.013,0.157-4.514,0.234c-2.435,0.349-6.608,0.065-7.596-1.061
	c-1.856-2.117-0.537-10.654,0.265-13.645c0.539-2.083,0.377-4.628,1.021-6.944c0.412-1.512,1.328-3.351,1.677-4.596
	c0.461-1.665-1.639-3.179-1.163-5.649c0.521-2.682,0.645-6.867,0.134-9.41c-0.5-2.476,2.318-2.474,1.927-4.943
	c0.167-1.49,0.349-2.985,0.516-4.475c0.245-2.481-0.755-5.672-1.282-7.765c-0.365-1.416,0.162-3.936-1.161-4.471
	c-0.669,0.588-1.57-0.162-2.058-0.476c-9.432,3.84-21.301,9.726-33.614,10.481c-0.384,0.857-0.768,1.723-1.157,2.586
	c0.301,0.081,0.604,0.154,0.909,0.232c0.858,3.226,3.437,5.939,3.863,9.533c-0.44,0.293-0.745,0.481-0.905,1.057
	c2.586,2.513,4.792,9.294,6.56,12.832c2.739,5.438,9.054,16.942,5.67,24.823c-1.002,2.357-2.859,3.438-4.769,4.946
	c-2.54,2.029-5.323,3.664-9.518,4.242c-4.74,0.642-17.48-5.658-21.634-7.18c-1.839-0.432-3.685-0.863-5.543-1.293
	c-2.095-1.022-4.194-2.047-6.307-3.062c-2.223-1.376-4.453-2.745-6.692-4.122c-4.587-1.568-9.185-3.14-13.775-4.711
	c-1.589-0.312-3.174-0.627-4.76-0.938c-1.501-0.484-2.26-2.181-3.597-2.589c-2.064-0.158-4.12-0.319-6.185-0.473
	c-1.867,1.399-2.591,3.344-4.117,5.299c1.371,4.094,2.126,16.439-6.955,14.355c-3.234-0.738-6.528-2.646-8.239-4.821
	c-0.182-0.592-0.347-1.177-0.516-1.769c-0.472-0.455-1.166-0.212-1.554-0.817c-0.38-0.631,0.194-1.015-0.12-1.536
	c-0.462-0.756-1.616-0.95-1.802-2.114c0.083-0.362,0.167-0.708,0.252-1.063c-0.176-0.635-1.163-1.193-1.417-2.118
	c-0.312-1.153-0.548-6.511-0.123-7.412c0.655-1.387,0-1.409,0.514-2.586c0.437-0.478,0.856-0.944,1.29-1.416
	c-0.136-0.315-0.264-0.628-0.388-0.944c0.074-0.769,1.558-2.315,1.927-3.644c0.761-2.704,0.222-6.52,0-9.068
	c-0.067-0.774,0.687-1.335,0.771-1.758c-0.118-0.401-0.253-0.787-0.38-1.179c0.634-3.82,2.676-8.273,7.342-9.299
	c2.209-0.484,13.625,3.484,15.185,4.476c0.851,0.534,0.837,1.45,2.061,1.768c1.624-0.74,3.347,0.605,5.404,0.349
	c2.015-0.258,3.745,0.553,5.153,1.061c2.813,1.004,6.188,0.261,8.753,1.294c1.656,0.663,2.988,1.984,5.151,2.353
	c0-0.043,0-0.081,0-0.117c-0.476-0.785-0.948-1.567-1.42-2.356c0.086-0.274,0.173-0.548,0.254-0.817
	c-1.455-1.145-2.91-2.283-4.367-3.417c-2.456-2.53-4.476-5.37-6.445-8.355c-0.55-0.039-1.113-0.085-1.673-0.118
	c-0.511-1.109-0.673-4.979-1.284-5.768c-1.75-2.236-2.243-5.01-2.312-8.001c-0.262-0.198-0.516-0.391-0.777-0.592
	c0-0.863,0.162-0.949,0.515-1.405c0.447-0.043,1.931-0.673,2.323-1.184c1.746-3.753-2.771-12.648,1.409-14.117
	c-0.502-4.08,0.871-7.309,1.675-10.592c-0.805-0.443-1.517-0.443-2.45-0.828c-0.072,1.291-0.733,1.851-1.788,2.242
	c-4.696-1.634-11.542-6.081-10.562-12.241c-0.049-0.784-0.088-1.575-0.138-2.355c0.409-1.286,1.637-2.241,1.927-4.002
	c-1.265-0.904-1.696-2.576-2.304-4.115c-2.73-6.874-1.062-6.789,3.079-11.651c0.095-1.762,0.176-3.534,0.265-5.295
	c0.641-0.041,6.826-1.177,6.826-1.177c1.971-4.436,3.948-8.868,5.924-13.3c1.878-2.818,4.501-4.731,7.201-6.824
	c2.151,0.74,2.956,0.421,4.763,1.762c1.332,0.099,1.663,0.07,2.445-0.467c1.256-3.109,4.922-5.501,7.599-7.425
	c0.814-0.853,1.635-1.716,2.437-2.579c2.385-1.966,8.591-5.797,12.5-6.003c1.03,0.553,2.063,1.103,3.088,1.638
	c0.514,0.521,1.032,1.032,1.543,1.54c0.039,0.039,0.084,0.083,0.134,0.12c2.014-0.744,4.034-1.492,6.048-2.236
	c4.349-1.196,8.217,0.636,10.69,2.583c0.504-0.234,1.024-0.467,1.536-0.699c1.707-2.551-0.645-6.167-1.282-7.888
	c-0.563-1.519-0.15-3.451,0.386-5.059c0.372-1.11,1.341-1.753,1.936-2.586c4.675-6.601,7.525-13.568,16.985-15.773
	c14.885-3.457,29.011,9.431,32.839,17.892c1.335,2.975,1.133,9.829-0.643,12.237c-0.565,0.236-1.124,0.472-1.676,0.705
	c-0.765,0.842-0.539,2.218-1.557,2.822c-0.934,0.355-1.885,0.708-2.827,1.057c-0.337,1.335-1.066,2.308-1.415,3.185
	c-0.965,2.433,2.487,3.661,0.132,6.586c-1.273,0.308-2.345-0.263-3.352-0.116c-0.089,0.192-0.168,0.395-0.258,0.588
	c0.046,0.076,0.09,0.15,0.131,0.234c2.147,0.102,7.716,1.115,9.399,0c-0.176-0.578-0.021-1.504,0.254-2.005
	c3.706-0.023,7.488,0.176,10.821,0.71c0.41-0.33,0.32-0.456,1.023-0.592c0.567,1.027,1.081,0.326,2.058,0.122
	c0.229,0.548,0.352,0.497,1.164,0.47c0.127-0.157,0.252-0.319,0.388-0.47c0.667,0.275,0.559,0.511,1.536,0.588
	c0.53-0.906,0.962-0.055,1.936,0.118c0.377-0.893,0.806-2.556,0.392-3.886c-0.344-0.079-0.694-0.157-1.032-0.236
	c-0.048-0.319-0.085-0.625-0.134-0.943c-1.635,0.055-2.787,0.958-4.249,0.472c-0.34-0.236-0.688-0.472-1.022-0.701
	c-1.525-0.449-5.164,0.414-5.922-0.474c-0.372-1.006-0.169-4.896,0.381-5.417c1.888,0,3.776,0,5.668,0
	c0.807-0.245,1.991-1.05,3.354-0.701c0.524,0.13,0.423,0.479,1.286,0.584c0.121-0.965,0.158-2.077,0.638-2.833
	c1.271-0.018,2.448,0.041,3.216,0.367c0.083,0.94,0.179,1.881,0.265,2.822c5.098-0.039,8.741-2.354,13.131-0.705
	c1.287,0.483,1.109-0.786,2.058-0.124c-0.385,2.216-2.496,3.722-3.221,5.651c-0.38,1.021-0.218,1.964-0.641,2.709
	c0.165,0.19,0.331,0.386,0.518,0.59c1.282,0.153,2.573,0.312,3.854,0.463c0,1.458,0,2.903,0,4.361
	c0.176-0.042,0.349-0.083,0.516-0.123c0.714-0.13,0.661-0.18,0.773-0.821c1.159,0.229,2.318,0.468,3.478,0.705
	c0.046-0.035,0.081-0.08,0.125-0.116c0.044-0.471,0.09-0.944,0.127-1.411c1.225-0.236,5.06,0.347,5.417,0.588
	c0.469-0.194,0.938-0.396,1.409-0.588c0.318,0.438,0.272,0.505,1.032,0.588c0.408-0.312,0.289-0.377,1.028-0.472
	c0.304,0.386,0.304,0.446,0.902,0.586c0.884-0.925,0.938-0.264,2.058,0c0.264-0.197,0.518-0.395,0.773-0.586
	c0.526,0.298,0.491,0.476,1.285,0.586c1.157-0.771,0.771,0.324,2.07,0c0.31-0.074,0.416-0.387,1.021-0.467
	c0.059,0.145,0.278,0.809,0.384,0.467c0.701,0.06,0.679-0.091,1.159-0.467c0.527,0.284,0.539,0.467,1.286,0.587
	c0.44-0.282,0.423-0.384,1.166-0.47c0.275,0.442,0.219,0.47,0.896,0.588c0.215-0.202,0.433-0.393,0.651-0.588
	c0.69,0.259,0.599,0.493,1.539,0.588c0.275-0.465,0.275-0.447,1.036-0.474c0.175,0.474,0.12,0.347,0.517,0.585
	c0.382-0.192,0.77-0.388,1.153-0.585c1.047,0.75,0.92,0.307,2.312,0.122c0.22,0.511,0.116,0.463,0.773,0.585
	c0.344-0.365,0.366-0.471,1.03-0.585c0.134,0.195,0.255,0.393,0.388,0.585c0,0.47,0,0.946,0,1.409
	c4.136-1.045,5.635-8.926,10.427-7.527c0.671,1.556,0.77,7.409,0.137,9.532c0.041,0.08,0.076,0.155,0.122,0.231
	c2.762,0.024,5.979,0.229,8.24,0.592c1.652,0.27,3.442-0.192,4.771-0.232c4.613-0.166,9.016,0.044,13.131,0
	c0.121,0.201,0.257,0.395,0.38,0.585c0.09,0,0.177,0,0.251,0c0.172-0.19,0.357-0.384,0.524-0.585
	c0.254,0.201,0.52,0.395,0.771,0.585c0.377-0.715,4.084-0.726,5.404-0.353c0.113,0.817,0.414,3.252-0.384,3.766
	c-1.626,0-3.266,0-4.89,0c-0.131-0.199-0.265-0.387-0.383-0.592c-0.182,0.205-0.354,0.393-0.52,0.592
	c-0.877-0.729-3.601-0.091-6.176-0.467c-2.958-0.044-5.924-0.084-8.887-0.125c-1.88-0.59-10.262-0.736-12.356-0.113
	c0.041,0.113,0.076,0.238,0.122,0.349C276.256,126.289,276.725,126.322,277.2,126.37z M272.049,115.189
	c-1.247,1.492-2.487,2.974-3.734,4.467c0.124,0.159,0.261,0.317,0.392,0.479c0.928,0.063,4.967,0.617,5.656-0.247
	c0.504-1.046-0.689-3.858-1.154-4.7C272.828,115.189,272.437,115.189,272.049,115.189z M186.052,124.953
	c-0.055,0.315-0.09,0.632-0.136,0.942c-1.063,1.92-3.974,2.005-4.635,4.471c0.819,0.747,1.64,1.488,2.454,2.24
	c0.688-0.285,8.606-3.273,8.621-3.301c-0.3-0.31-0.598-0.627-0.9-0.939c-1.153-0.118-2.316-0.234-3.479-0.354
	c-0.089-1.015-0.173-2.04-0.254-3.06C187.161,124.953,186.604,124.953,186.052,124.953z M209.862,131.188
	c-1.285,0.558-3.171-0.048-4.248,0.592c-0.3,0.715-0.575,1.416-0.642,2.47c2.323,0.546,3.641,1.82,5.277,2.947
	c0.127-0.079,0.261-0.167,0.392-0.241C211.515,135.207,212.825,132.149,209.862,131.188z M204.331,131.311
	c-0.899,0.507-1.86,0.86-2.316,1.76c0.729,0.315,1.457,0.629,2.189,0.946C204.219,133.07,204.482,131.473,204.331,131.311z
	 M203.047,139.192c0.046,1.772-0.329,3.328-2.188,3.414c0.263,2.554-1.441,2.29-2.836,3.534c-0.177,0.428-0.346,0.859-0.513,1.289
	c-0.747,1.117-2.322,1.639-4.002,1.885c0,0.239,0,0.472,0,0.705c0.174,0.979,0.352,1.962,0.524,2.94
	c1.924-0.509,3.004-2.531,4.63-3.173c0.641-0.042,1.291-0.084,1.934-0.12c2.329-0.729,7.192-4.946,7.466-7.652
	c-1.052-1.096-2.149-1.987-3.478-2.822C204.07,139.192,203.553,139.192,203.047,139.192z M170.336,163.903
	c-1.589,2.072-4.258,3.097-5.919,5.064c0.044,1.02,0.093,2.042,0.13,3.058c1.977-0.389,3.942-0.78,5.92-1.171
	c2.574,0.074,5.153,0.155,7.729,0.234c-0.219-0.234-0.436-0.47-0.652-0.711c-1.885-1.446-3.777-2.898-5.655-4.353
	C171.37,165.319,170.854,164.615,170.336,163.903z"/>
</svg>
