<?xml version="1.0" encoding="utf-8"?>
<!-- Generator: Adobe Illustrator 16.0.0, SVG Export Plug-In . SVG Version: 6.00 Build 0)  -->
<!DOCTYPE svg PUBLIC "-//W3C//DTD SVG 1.1 Tiny//EN" "http://www.w3.org/Graphics/SVG/1.1/DTD/svg11-tiny.dtd">
<svg version="1.1" baseProfile="tiny" id="Layer_1" xmlns="http://www.w3.org/2000/svg" xmlns:xlink="http://www.w3.org/1999/xlink"
	 x="0px" y="0px" width="350px" height="350px" viewBox="0 0 350 350" overflow="scroll" xml:space="preserve">
<g>
	<image width="114" height="33" xlink:href="46A7DC09.png"  transform="matrix(1 0 0 1 124 259)">
	</image>
	<image width="54" height="49" xlink:href="46A7DC0B.png"  transform="matrix(1 0 0 1 146 60)">
	</image>
	<image width="36" height="57" xlink:href="46A7DC0E.png"  transform="matrix(1 0 0 1 158 60)">
	</image>
	<path fill="#8B9499" d="M184.264,273.368c0.104,0.316,0.294,0.609,0.564,0.806c0.063,0.046,0.08,0.104,0.072,0.163
		c1.276,1.204,3.215,1.577,4.575,2.679c1.557,1.264,1.987,3.24,3.236,4.747c2.157,2.606,5.33,3.759,8.621,4.082
		c3.872,0.38,8.064,0.32,11.87-0.492c1.714-0.365,3.732-0.995,4.808-2.49c0.969-1.346,1.259-3.021,0.946-4.642
		c0.03-0.243,0.026-0.507-0.033-0.796c-0.382-1.911-1.529-3.97-2.756-5.463c-1.414-1.726-3.217-3.271-5.184-4.343
		c-1.052-0.573-2.116-0.911-3.31-1.024c-1.185-0.113-2.459-0.13-3.58-0.571c-2.615-1.023-4.412-3.553-6.014-5.739
		c-0.862-1.176-1.346-2.323-1.42-3.794c-0.063-1.324-0.023-2.653,0.099-3.975c0.26-2.819,1.12-5.508,1.576-8.296
		c0.238-1.464,0.435-2.942,0.765-4.394c0.258-1.136,0.567-2.262,0.794-3.405c0.036,0,0.074-0.017,0.089-0.069
		c0.133-0.517,0.193-0.889-0.263-1.269c-0.442-0.366-0.981-0.679-1.526-0.921c0.001-0.007,0.003-0.014,0.004-0.021
		c0.027-0.121-0.131-0.146-0.181-0.05c-0.094-0.041-0.186-0.08-0.278-0.113c-1.629-0.586-3.401-0.716-5.123-0.624
		c-2.088,0.108-4.183,0.31-6.237,0.7c-0.797,0.153-2.021,0.343-2.174,1.313c-0.011,0.071,0.033,0.125,0.09,0.152
		c0.082,1.649,0.039,3.309,0.104,4.957c0.068,1.766,0.249,3.519,0.411,5.276c0.302,3.315,0.738,6.627,1.008,9.942
		c0.153,1.882-0.396,3.389-0.99,5.13c-0.423,1.239-0.528,2.547-0.533,3.85c-0.006,1.575,0.071,3.148,0.058,4.724
		c-0.063,0.02-0.114,0.074-0.107,0.147c0.021,0.196,0.06,0.376,0.103,0.55c0.005,1.077,0.106,2.206-0.083,3.27
		C184.265,273.365,184.265,273.366,184.264,273.368"/>
	<image width="36" height="19" xlink:href="46A7DC0F.png"  transform="matrix(1 0 0 1 184 268)">
	</image>
	<image width="22" height="37" xlink:href="46A7DC0A.png"  transform="matrix(1 0 0 1 184 233)">
	</image>
	<image width="36" height="54" xlink:href="46A7DC05.png"  transform="matrix(1 0 0 1 184 233)">
	</image>
	<path fill="#1C1B19" d="M199.781,269.702c0.368-1.445,1.101-2.963,2.041-4.126c0.239-0.296,0.721,0.013,0.558,0.354
		c-0.597,1.263-1.302,2.579-1.626,3.944C200.605,270.491,199.626,270.317,199.781,269.702"/>
	<path fill="#1C1B19" d="M197.725,266.281c0.261-1.114,0.518-2.406,1.291-3.279c0.141-0.16,0.474-0.048,0.406,0.189
		c-0.332,1.135-0.535,2.292-0.787,3.446c-0.108,0.496-0.2,0.992-0.279,1.49c-0.042,0.264,0.014,0.622-0.184,0.826
		c-0.149,0.151-0.331,0.195-0.53,0.118c-0.012-0.003-0.025-0.009-0.036-0.013c-0.154-0.06-0.278-0.241-0.284-0.404
		C197.291,267.864,197.543,267.044,197.725,266.281"/>
	<path fill="#1C1B19" d="M195.032,263.739c0.097-1.232,0.556-2.173,1.081-3.257c0.105-0.221,0.481-0.118,0.42,0.133
		c-0.252,0.992-0.453,1.896-0.548,2.92c-0.091,0.939,0.07,1.952-0.115,2.872c-0.077,0.397-0.666,0.477-0.805,0.074
		C194.775,265.643,194.963,264.611,195.032,263.739"/>
	<path fill="#1C1B19" d="M191.088,262.888c0.063-1.19,0.731-2.286,1.434-3.214c0.409-0.539,0.873-1.055,1.363-1.517
		c0.444-0.42,1.018-0.613,1.468-0.998c0.214-0.187,0.457,0.134,0.315,0.339c-0.258,0.372-0.652,0.585-0.971,0.905
		c-0.429,0.429-0.761,1.029-1.078,1.541c-0.608,0.984-1.343,1.94-1.409,3.143C192.171,263.819,191.048,263.612,191.088,262.888"/>
	<path fill="#1C1B19" d="M189.548,258.083c0.361-1.158,1.382-1.789,2.235-2.573c1.052-0.963,2.381-1.921,3.779-2.27
		c0.343-0.086,0.545,0.396,0.199,0.524c-1.213,0.456-2.115,1.348-3.043,2.218c-0.648,0.608-1.844,1.43-2.102,2.289
		C190.416,258.936,189.34,258.749,189.548,258.083"/>
	<path fill="#1C1B19" d="M189.411,254.308c0.25-1.111,1.607-2.102,2.35-2.838c1.153-1.142,2.635-1.813,4.172-2.244
		c0.247-0.069,0.433,0.237,0.214,0.403c-0.54,0.416-1.142,0.637-1.739,0.968c-0.827,0.459-1.606,1.187-2.254,1.869
		c-0.431,0.453-0.906,0.856-1.258,1.372c-0.218,0.323-0.426,0.699-0.737,0.942C189.834,255.036,189.318,254.711,189.411,254.308"/>
	<path fill="#1C1B19" d="M189.538,249.32c1.939-2.008,4.41-2.734,7.012-3.448c0.229-0.063,0.448,0.261,0.21,0.394
		c-0.977,0.544-2.062,0.813-3.049,1.344c-1.197,0.646-2.366,1.456-3.334,2.409C189.885,250.505,189.046,249.831,189.538,249.32"/>
	<path fill="#1C1B19" d="M191.792,244.263c1.557-0.975,3.461-1.354,5.245-1.625c0.226-0.033,0.359,0.307,0.157,0.426
		c-2.209,1.299-5.106,1.343-6.646,3.71c-0.231,0.354-0.78,0.114-0.815-0.254C189.645,245.552,191.101,244.695,191.792,244.263"/>
	<path fill="#1C1B19" d="M189.787,242.384c2.002-1.567,5.773-2.643,8.292-2.467c0.106,0.006,0.168,0.163,0.071,0.227
		c-0.974,0.652-2.132,0.865-3.245,1.192c-1.609,0.472-3.136,1.051-4.608,1.853C189.815,243.451,189.361,242.718,189.787,242.384"/>
	<path fill="#1C1B19" d="M197.341,268.621c-0.018-0.226,0.112-0.438,0.325-0.52c2.193-0.837,5.174-1.116,7.423-0.444
		c0.197,0.059,0.302,0.398,0.042,0.461c-1.468,0.362-3.102,0.229-4.613,0.359c-0.832,0.067-2.013,0.728-2.813,0.586
		c-0.188-0.035-0.346-0.198-0.361-0.393C197.343,268.655,197.343,268.638,197.341,268.621"/>
	<path fill="#1C1B19" d="M194.77,265.557c0.829-0.735,2.292-0.57,3.332-0.629c1.512-0.083,2.946,0.341,4.323,0.894
		c0.139,0.058,0.1,0.288-0.054,0.294c-1.208,0.047-2.456-0.25-3.695-0.232c-1.228,0.02-2.407,0.373-3.613,0.464
		C194.602,266.38,194.46,265.835,194.77,265.557"/>
	<path fill="#1C1B19" d="M191.324,262.532c0.885-0.619,2.519-0.435,3.547-0.426c1.744,0.016,3.213,0.387,4.718,1.28
		c0.198,0.118,0.126,0.466-0.13,0.41c-1.35-0.293-2.552-0.677-3.951-0.679c-0.863,0-2.798-0.186-3.533,0.322
		C191.38,263.851,190.733,262.946,191.324,262.532"/>
	<path fill="#1C1B19" d="M190.094,258.186c1.268,0.154,2.312,0.157,3.515,0.675c1.297,0.558,2.137,1.066,3.213,1.977
		c0.201,0.171-0.006,0.437-0.229,0.361c-1.042-0.339-1.963-0.95-3.02-1.295c-1.271-0.418-2.357-0.509-3.665-0.661
		C189.219,259.162,189.409,258.103,190.094,258.186"/>
	<path fill="#1C1B19" d="M188.783,253.915c0.012-0.042,0.023-0.081,0.037-0.122c0.061-0.178,0.273-0.297,0.45-0.315
		c1.025-0.1,2.001,0.575,2.9,0.974c0.707,0.312,1.37,0.691,2.007,1.124c0.625,0.423,0.943,1.189,1.599,1.561
		c0.166,0.091,0.165,0.417-0.072,0.408c-0.367-0.008-0.581-0.121-0.879-0.342c-0.758-0.567-1.363-1.104-2.254-1.516
		c-0.664-0.304-1.366-0.52-2.035-0.815c-0.529-0.234-1.024-0.207-1.542-0.374C188.748,254.418,188.716,254.118,188.783,253.915"/>
	<path fill="#1C1B19" d="M188.899,249.61c0.001-0.004,0.001-0.004,0.003-0.008c0.05-0.145,0.222-0.241,0.366-0.256
		c1.095-0.102,2.126,0.525,3.067,1.008c1.41,0.729,2.722,1.854,3.631,3.15c0.141,0.197-0.108,0.39-0.288,0.271
		c-1.158-0.757-2.195-1.658-3.412-2.33c-0.547-0.301-1.108-0.585-1.681-0.838c-0.466-0.206-1.012-0.159-1.462-0.383
		C188.881,250.103,188.814,249.851,188.899,249.61"/>
	<path fill="#1C1B19" d="M190.15,246.093c2.584,0.322,4.564,2.074,6.281,3.863c0.179,0.185,0.004,0.555-0.258,0.409
		c-1.152-0.645-2.198-1.493-3.361-2.137c-0.667-0.371-1.368-0.647-2.113-0.821c-0.436-0.103-0.757-0.205-1.014-0.579
		C189.445,246.478,189.744,246.043,190.15,246.093"/>
	<path fill="#1C1B19" d="M189.642,242.964c0.365-0.142,0.704-0.008,1.075,0.066c0.844,0.165,1.772,0.462,2.551,0.84
		c1.341,0.645,2.829,1.381,3.437,2.825c0.047,0.117-0.093,0.264-0.212,0.194c-1.219-0.722-2.393-1.445-3.688-2.026
		c-0.965-0.437-2.458-0.439-3.301-1.069C189.202,243.569,189.315,243.091,189.642,242.964"/>
	<path fill="#1C1B19" d="M190.652,239.553c0.449,0.229,0.988,0.352,1.464,0.53c0.773,0.293,1.475,0.88,2.166,1.315
		c1.111,0.695,2.126,1.433,2.746,2.61c0.096,0.181-0.175,0.359-0.315,0.227c-1.034-0.973-2.258-1.619-3.464-2.345
		c-0.631-0.381-1.22-0.762-1.913-1.025c-0.421-0.16-0.854-0.204-1.184-0.521C189.777,239.989,190.152,239.301,190.652,239.553"/>
	<path fill="#8B9499" d="M180.546,274.084c-0.104,0.316-0.294,0.611-0.564,0.808c-0.063,0.045-0.08,0.104-0.072,0.161
		c-1.276,1.205-3.215,1.578-4.576,2.681c-1.558,1.264-1.986,3.238-3.237,4.747c-2.155,2.606-5.328,3.758-8.62,4.081
		c-3.871,0.381-8.065,0.32-11.871-0.493c-1.712-0.364-3.732-0.994-4.806-2.488c-0.97-1.346-1.26-3.021-0.947-4.642
		c-0.03-0.243-0.025-0.508,0.033-0.798c0.383-1.91,1.528-3.968,2.755-5.461c1.414-1.727,3.218-3.272,5.185-4.343
		c1.053-0.575,2.117-0.912,3.31-1.027c1.186-0.111,2.459-0.13,3.58-0.57c2.614-1.022,4.412-3.553,6.015-5.739
		c0.86-1.175,1.345-2.324,1.419-3.795c0.063-1.322,0.022-2.652-0.098-3.973c-0.26-2.818-1.121-5.51-1.576-8.295
		c-0.24-1.467-0.437-2.944-0.766-4.395c-0.259-1.135-0.568-2.262-0.793-3.404c-0.038,0-0.074-0.017-0.089-0.069
		c-0.135-0.517-0.193-0.89,0.263-1.269c0.442-0.368,0.981-0.68,1.524-0.921c-0.001-0.008-0.003-0.014-0.004-0.021
		c-0.026-0.121,0.131-0.146,0.183-0.05c0.094-0.041,0.186-0.08,0.276-0.113c1.631-0.586,3.403-0.716,5.124-0.625
		c2.087,0.11,4.184,0.311,6.238,0.702c0.797,0.152,2.021,0.343,2.173,1.313c0.012,0.07-0.032,0.125-0.089,0.152
		c-0.082,1.648-0.041,3.307-0.106,4.957c-0.067,1.764-0.247,3.517-0.409,5.275c-0.303,3.314-0.738,6.627-1.01,9.943
		c-0.151,1.88,0.398,3.388,0.992,5.129c0.421,1.239,0.528,2.546,0.533,3.849c0.006,1.576-0.071,3.148-0.058,4.725
		c0.063,0.02,0.114,0.074,0.107,0.148c-0.021,0.196-0.06,0.376-0.104,0.55c-0.003,1.074-0.104,2.206,0.085,3.267
		C180.545,274.082,180.545,274.082,180.546,274.084"/>
	<image width="36" height="18" xlink:href="46A7DC06.png"  transform="matrix(1 0 0 1 145 269)">
	</image>
	<image width="22" height="37" xlink:href="46A7DC07.png"  transform="matrix(1 0 0 1 159 234)">
	</image>
	<image width="36" height="53" xlink:href="46A7DC19.png"  transform="matrix(1 0 0 1 145 234)">
	</image>
	<path fill="#1C1B19" d="M165.028,270.419c-0.368-1.446-1.101-2.963-2.042-4.125c-0.238-0.296-0.72,0.012-0.559,0.354
		c0.599,1.262,1.304,2.579,1.628,3.942C164.204,271.209,165.184,271.033,165.028,270.419"/>
	<path fill="#1C1B19" d="M167.085,266.997c-0.262-1.112-0.519-2.405-1.291-3.277c-0.143-0.16-0.476-0.049-0.408,0.187
		c0.334,1.138,0.536,2.294,0.788,3.449c0.107,0.495,0.201,0.99,0.279,1.49c0.043,0.263-0.013,0.622,0.185,0.826
		c0.149,0.149,0.331,0.194,0.53,0.117c0.012-0.003,0.024-0.009,0.036-0.012c0.154-0.061,0.277-0.241,0.284-0.406
		C167.517,268.581,167.266,267.76,167.085,266.997"/>
	<path fill="#1C1B19" d="M169.777,264.455c-0.097-1.232-0.558-2.172-1.082-3.256c-0.105-0.222-0.481-0.118-0.419,0.133
		c0.252,0.99,0.453,1.896,0.548,2.919c0.091,0.94-0.071,1.954,0.114,2.873c0.077,0.397,0.666,0.476,0.806,0.074
		C170.033,266.36,169.847,265.329,169.777,264.455"/>
	<path fill="#1C1B19" d="M173.721,263.604c-0.063-1.191-0.73-2.287-1.433-3.213c-0.411-0.539-0.873-1.057-1.363-1.52
		c-0.444-0.418-1.018-0.611-1.468-0.996c-0.215-0.186-0.458,0.135-0.315,0.34c0.258,0.371,0.652,0.584,0.971,0.904
		c0.429,0.429,0.761,1.03,1.078,1.542c0.608,0.982,1.342,1.939,1.408,3.142C172.639,264.536,173.762,264.329,173.721,263.604"/>
	<path fill="#1C1B19" d="M175.261,258.799c-0.36-1.158-1.381-1.79-2.236-2.573c-1.051-0.963-2.381-1.919-3.777-2.268
		c-0.345-0.087-0.545,0.394-0.199,0.522c1.212,0.456,2.115,1.35,3.042,2.219c0.649,0.609,1.844,1.431,2.103,2.289
		C174.393,259.653,175.468,259.466,175.261,258.799"/>
	<path fill="#1C1B19" d="M175.398,255.023c-0.251-1.109-1.608-2.1-2.351-2.839c-1.152-1.14-2.634-1.81-4.171-2.243
		c-0.248-0.069-0.434,0.238-0.216,0.404c0.542,0.417,1.143,0.638,1.739,0.968c0.829,0.459,1.608,1.188,2.255,1.869
		c0.432,0.453,0.905,0.856,1.259,1.373c0.218,0.323,0.426,0.699,0.735,0.942C174.974,255.753,175.489,255.429,175.398,255.023"/>
	<path fill="#1C1B19" d="M175.271,250.036c-1.94-2.008-4.41-2.734-7.012-3.447c-0.229-0.063-0.449,0.262-0.21,0.395
		c0.977,0.542,2.06,0.813,3.048,1.344c1.196,0.645,2.366,1.454,3.334,2.407C174.924,251.222,175.764,250.547,175.271,250.036"/>
	<path fill="#1C1B19" d="M173.018,244.979c-1.559-0.974-3.461-1.353-5.246-1.625c-0.225-0.034-0.359,0.307-0.157,0.426
		c2.209,1.299,5.107,1.341,6.647,3.71c0.229,0.354,0.78,0.115,0.815-0.253C175.164,246.27,173.707,245.413,173.018,244.979"/>
	<path fill="#1C1B19" d="M175.022,243.102c-2.004-1.569-5.774-2.643-8.293-2.469c-0.105,0.006-0.167,0.164-0.07,0.228
		c0.974,0.652,2.132,0.864,3.244,1.191c1.61,0.473,3.137,1.053,4.608,1.854C174.994,244.167,175.448,243.435,175.022,243.102"/>
	<path fill="#1C1B19" d="M167.468,269.338c0.019-0.227-0.111-0.438-0.324-0.52c-2.194-0.836-5.175-1.117-7.423-0.443
		c-0.198,0.059-0.302,0.398-0.042,0.46c1.468,0.362,3.102,0.229,4.612,0.359c0.831,0.068,2.013,0.728,2.813,0.586
		c0.188-0.035,0.346-0.198,0.36-0.393C167.467,269.371,167.467,269.354,167.468,269.338"/>
	<path fill="#1C1B19" d="M170.038,266.274c-0.827-0.735-2.291-0.571-3.331-0.63c-1.512-0.083-2.945,0.341-4.323,0.894
		c-0.14,0.058-0.1,0.289,0.054,0.295c1.209,0.045,2.456-0.251,3.696-0.232c1.228,0.018,2.406,0.373,3.613,0.462
		C170.207,267.097,170.35,266.551,170.038,266.274"/>
	<path fill="#1C1B19" d="M173.483,263.25c-0.883-0.619-2.517-0.437-3.545-0.426c-1.744,0.015-3.215,0.387-4.719,1.278
		c-0.197,0.12-0.125,0.467,0.13,0.411c1.35-0.293,2.552-0.677,3.95-0.678c0.865,0,2.8-0.188,3.535,0.321
		C173.428,264.568,174.076,263.663,173.483,263.25"/>
	<path fill="#1C1B19" d="M174.715,258.902c-1.268,0.152-2.313,0.156-3.514,0.674c-1.298,0.559-2.137,1.067-3.214,1.978
		c-0.2,0.171,0.007,0.437,0.229,0.361c1.043-0.34,1.964-0.95,3.02-1.294c1.273-0.418,2.358-0.511,3.666-0.663
		C175.59,259.88,175.4,258.819,174.715,258.902"/>
	<path fill="#1C1B19" d="M176.026,254.633c-0.012-0.043-0.023-0.082-0.037-0.122c-0.061-0.179-0.275-0.298-0.45-0.316
		c-1.025-0.101-2.001,0.575-2.9,0.975c-0.707,0.311-1.371,0.691-2.009,1.123c-0.623,0.423-0.942,1.189-1.598,1.562
		c-0.166,0.091-0.164,0.416,0.073,0.407c0.365-0.007,0.581-0.12,0.877-0.341c0.76-0.568,1.365-1.104,2.254-1.517
		c0.666-0.303,1.368-0.519,2.037-0.815c0.528-0.233,1.023-0.208,1.542-0.374C176.062,255.136,176.093,254.835,176.026,254.633"/>
	<path fill="#1C1B19" d="M175.909,250.326c-0.002-0.003-0.002-0.003-0.004-0.006c-0.048-0.146-0.22-0.243-0.365-0.257
		c-1.095-0.102-2.126,0.524-3.066,1.009c-1.41,0.728-2.723,1.854-3.632,3.149c-0.14,0.198,0.107,0.39,0.289,0.271
		c1.158-0.757,2.195-1.658,3.412-2.33c0.547-0.3,1.108-0.584,1.681-0.838c0.464-0.205,1.012-0.16,1.462-0.382
		C175.929,250.82,175.995,250.567,175.909,250.326"/>
	<path fill="#1C1B19" d="M174.657,246.81c-2.584,0.323-4.563,2.073-6.28,3.864c-0.178,0.184-0.003,0.554,0.259,0.407
		c1.153-0.645,2.198-1.491,3.36-2.135c0.668-0.373,1.367-0.647,2.114-0.823c0.435-0.101,0.757-0.205,1.014-0.58
		C175.362,247.194,175.064,246.758,174.657,246.81"/>
	<path fill="#1C1B19" d="M175.167,243.681c-0.365-0.144-0.703-0.009-1.074,0.066c-0.845,0.165-1.773,0.463-2.551,0.84
		c-1.341,0.645-2.829,1.382-3.437,2.823c-0.047,0.118,0.092,0.267,0.211,0.196c1.218-0.723,2.394-1.444,3.689-2.026
		c0.965-0.438,2.458-0.44,3.301-1.07C175.606,244.286,175.493,243.808,175.167,243.681"/>
	<path fill="#1C1B19" d="M174.157,240.271c-0.45,0.228-0.989,0.352-1.465,0.529c-0.772,0.293-1.474,0.881-2.165,1.313
		c-1.111,0.698-2.126,1.435-2.746,2.612c-0.096,0.182,0.175,0.358,0.313,0.226c1.036-0.973,2.258-1.619,3.466-2.344
		c0.631-0.381,1.22-0.761,1.913-1.025c0.419-0.16,0.853-0.204,1.184-0.521C175.031,240.706,174.657,240.018,174.157,240.271"/>
	<path fill="#FFD7BB" d="M198.372,117.553c-0.011,0.008-0.02,0.021-0.03,0.027c-0.938-0.806-1.875-1.609-2.859-2.364
		c-1.119-0.868-2.943-1.703-3.041-3.246c-0.08-1.28-0.149-2.551-0.186-3.832c-0.017-0.596-0.071-1.193-0.047-1.79
		c0.009-0.249,0.031-0.501-0.085-0.723c-0.081-0.992-2.126-0.439-2.689-0.37c-1.389,0.169-2.821,0.128-4.219,0.208
		c-1.508,0.088-3.017,0.262-4.516,0.431c-2.967,0.332-5.893,0.953-8.854,1.336c-1.447,0.188-2.888,0.271-4.344,0.329
		c-0.883,0.036-2.204-0.166-3.044,0.237c-0.274-0.042-0.445,0.395-0.172,0.528c-0.126-0.062-0.049,0.796-0.052,0.749
		c0.045,0.562,0.047,1.128,0.052,1.692c0.006,1.231,0.062,2.462,0.006,3.692c-0.041,0.945-1.998,1.211-2.662,1.532
		c-1.014,0.492-1.968,1.094-2.966,1.611c-0.041-0.041-0.081-0.077-0.122-0.116c-0.108-0.107-0.31,0.036-0.215,0.166
		c1.145,1.604,2.653,2.949,4.119,4.258c1.663,1.484,3.319,2.979,5.039,4.4c1.675,1.381,3.406,2.698,5.191,3.934
		c1.513,1.044,3.172,2.378,5.105,2.326c1.817-0.05,3.64-1.244,5.129-2.168c1.981-1.227,3.928-2.511,5.834-3.851
		c1.838-1.294,3.621-2.665,5.365-4.084c0.815-0.662,1.582-1.376,2.317-2.122c0.788-0.799,1.39-1.771,2.195-2.538
		C198.795,117.644,198.546,117.408,198.372,117.553"/>
	<path fill="#DD9F80" d="M198.372,117.553c-0.011,0.01-0.02,0.021-0.03,0.027c-0.938-0.806-1.875-1.609-2.859-2.364
		c-1.119-0.868-2.943-1.702-3.041-3.246c-0.08-1.28-0.149-2.551-0.186-3.832c-0.017-0.596-0.069-1.193-0.047-1.79
		c0.009-0.249,0.031-0.501-0.085-0.723c-0.081-0.992-2.126-0.439-2.69-0.37c-1.388,0.169-2.819,0.128-4.218,0.208
		c-1.507,0.088-3.017,0.262-4.516,0.431c-2.966,0.332-5.894,0.953-8.854,1.336c-1.446,0.188-2.886,0.271-4.343,0.329
		c-0.883,0.036-2.204-0.164-3.044,0.236c-0.274-0.041-0.445,0.396-0.172,0.529c-0.126-0.062-0.049,0.796-0.052,0.749
		c0.045,0.562,0.047,1.128,0.052,1.692c0.006,1.231,0.063,2.462,0.006,3.692c-0.041,0.945-1.998,1.211-2.662,1.534
		c-1.014,0.49-1.968,1.092-2.966,1.609c-0.039-0.039-0.081-0.078-0.122-0.116c-0.108-0.107-0.31,0.034-0.215,0.164
		c1.145,1.605,2.653,2.951,4.119,4.26c1.664,1.484,3.319,2.979,5.039,4.4c1.675,1.381,3.406,2.698,5.192,3.934
		c1.514,1.044,3.173,2.379,5.104,2.326c1.819-0.05,3.64-1.244,5.129-2.168c1.982-1.227,3.928-2.511,5.836-3.851
		c1.838-1.296,3.619-2.665,5.365-4.083c0.813-0.663,1.58-1.377,2.315-2.123c0.788-0.797,1.391-1.771,2.195-2.538
		C198.795,117.644,198.546,117.408,198.372,117.553 M196.566,119.496c-0.732,0.748-1.516,1.447-2.309,2.131
		c-1.648,1.424-3.416,2.727-5.187,3.995c-1.726,1.233-3.494,2.404-5.283,3.544c-1.708,1.089-3.433,2.253-5.426,2.733
		c-2.094,0.499-4.084-1.249-5.69-2.357c-1.747-1.206-3.427-2.51-5.067-3.856c-3.079-2.517-5.993-5.222-8.843-7.99
		c1.32-0.525,2.568-1.207,3.931-1.623c0.678-0.206,1.99-0.486,2.104-1.36c0.198-1.511,0.052-3.104,0.039-4.624
		c-0.006-0.622-0.036-1.241-0.033-1.863c0-0.05-0.007-0.091-0.015-0.131c0.438-0.04,0.909,0.033,1.332,0.03
		c0.572,0,1.147-0.019,1.721-0.024c1.219-0.014,2.429-0.104,3.641-0.238c2.485-0.271,4.947-0.746,7.419-1.116
		c0.966-0.142,12.607-1.225,12.684-0.971c0.001,0.004,0.004,0.011,0.007,0.017c0.007,0.059,0.029,0.105,0.06,0.145
		c0.142,0.372,0.004,1.222,0.017,1.553c0.028,0.683,0.036,1.364,0.056,2.044c0.02,0.708,0.078,1.418,0.142,2.123
		c0.043,0.431-0.028,1.047,0.21,1.432c0.521,0.836,1.463,1.333,2.271,1.857c1.33,0.865,2.636,1.771,3.904,2.722
		C197.631,118.218,197.149,118.904,196.566,119.496"/>
	<path fill="#DD9F80" d="M198.372,117.553c-0.011,0.01-0.02,0.021-0.03,0.027c-0.938-0.806-1.875-1.609-2.859-2.364
		c-1.119-0.868-2.943-1.702-3.041-3.246c-0.08-1.28-0.149-2.551-0.186-3.832c-0.017-0.596-0.069-1.193-0.047-1.79
		c0.009-0.249,0.031-0.501-0.085-0.723c-0.081-0.992-2.126-0.439-2.69-0.37c-1.388,0.169-2.819,0.128-4.218,0.208
		c-1.507,0.088-3.017,0.262-4.516,0.431c-2.966,0.332-5.894,0.953-8.854,1.336c-1.446,0.188-2.886,0.271-4.343,0.329
		c-0.883,0.036-2.204-0.164-3.044,0.236c-0.274-0.041-0.445,0.396-0.172,0.529c-0.126-0.062-0.049,0.796-0.052,0.749
		c0.045,0.562,0.047,1.128,0.052,1.692c0.006,1.231,0.063,2.462,0.006,3.692c-0.041,0.945-1.998,1.211-2.662,1.534
		c-1.014,0.49-1.968,1.092-2.966,1.609c-0.039-0.039-0.081-0.078-0.122-0.116c-0.108-0.107-0.31,0.034-0.215,0.164
		c1.145,1.605,2.653,2.951,4.119,4.26c1.664,1.484,3.319,2.979,5.039,4.4c1.675,1.381,3.406,2.698,5.192,3.934
		c1.514,1.044,3.173,2.379,5.104,2.326c1.819-0.05,3.64-1.244,5.129-2.168c1.982-1.227,3.928-2.511,5.836-3.851
		c1.838-1.296,3.619-2.665,5.365-4.083c0.813-0.663,1.58-1.377,2.315-2.123c0.788-0.797,1.391-1.771,2.195-2.538
		C198.795,117.644,198.546,117.408,198.372,117.553 M196.566,119.496c-0.732,0.748-1.516,1.447-2.309,2.131
		c-1.648,1.424-3.416,2.727-5.187,3.995c-1.726,1.233-3.494,2.404-5.283,3.544c-1.708,1.089-3.433,2.253-5.426,2.733
		c-2.094,0.499-4.084-1.249-5.69-2.357c-1.747-1.206-3.427-2.51-5.067-3.856c-3.079-2.517-5.993-5.222-8.843-7.99
		c1.32-0.525,2.568-1.207,3.931-1.623c0.678-0.206,1.99-0.486,2.104-1.36c0.198-1.511,0.052-3.104,0.039-4.624
		c-0.006-0.622-0.036-1.241-0.033-1.863c0-0.05-0.007-0.091-0.015-0.131c0.438-0.04,0.909,0.033,1.332,0.03
		c0.572,0,1.147-0.019,1.721-0.024c1.219-0.014,2.429-0.104,3.641-0.238c2.485-0.271,4.947-0.746,7.419-1.116
		c0.966-0.142,12.607-1.225,12.684-0.971c0.001,0.004,0.004,0.011,0.007,0.017c0.007,0.059,0.029,0.105,0.06,0.145
		c0.142,0.372,0.004,1.222,0.017,1.553c0.028,0.683,0.036,1.364,0.056,2.044c0.02,0.708,0.078,1.418,0.142,2.123
		c0.043,0.431-0.028,1.047,0.21,1.432c0.521,0.836,1.463,1.333,2.271,1.857c1.33,0.865,2.636,1.771,3.904,2.722
		C197.631,118.218,197.149,118.904,196.566,119.496"/>
	<path fill="#775740" d="M198.372,117.553c-0.011,0.008-0.02,0.021-0.03,0.027c-0.938-0.806-1.875-1.609-2.859-2.364
		c-1.119-0.868-2.943-1.703-3.041-3.246c-0.08-1.28-0.149-2.551-0.186-3.832c-0.017-0.596-0.071-1.193-0.047-1.79
		c0.009-0.249,0.031-0.501-0.085-0.723c-0.081-0.992-2.126-0.439-2.689-0.37c-1.389,0.169-2.821,0.128-4.219,0.208
		c-1.508,0.088-3.017,0.262-4.516,0.431c-2.967,0.332-5.893,0.953-8.854,1.336c-1.447,0.188-2.888,0.271-4.344,0.329
		c-0.883,0.036-2.204-0.166-3.044,0.237c-0.274-0.042-0.445,0.395-0.172,0.528c-0.126-0.062-0.049,0.796-0.052,0.749
		c0.045,0.562,0.047,1.128,0.052,1.692c0.006,1.231,0.062,2.462,0.006,3.692c-0.041,0.945-1.998,1.211-2.662,1.532
		c-1.014,0.492-1.968,1.094-2.966,1.611c-0.041-0.041-0.081-0.077-0.122-0.116c-0.108-0.107-0.31,0.036-0.215,0.166
		c1.145,1.604,2.653,2.949,4.119,4.258c1.663,1.484,3.319,2.979,5.039,4.4c1.675,1.381,3.406,2.698,5.191,3.934
		c1.513,1.044,3.172,2.378,5.105,2.326c1.817-0.05,3.64-1.244,5.129-2.168c1.981-1.227,3.928-2.511,5.834-3.851
		c1.838-1.294,3.621-2.665,5.365-4.084c0.815-0.662,1.582-1.376,2.317-2.122c0.788-0.799,1.39-1.771,2.195-2.538
		C198.795,117.644,198.546,117.408,198.372,117.553"/>
	<image width="29" height="14" xlink:href="3642CD52.png"  transform="matrix(1 0 0 1 164 105)">
	</image>
	<path d="M194.158,108.473c0,0,8.781-7.169,10.852-21.672c2.072-14.501-49.325-12.725-52.187-2.171
		c-2.861,10.558,2.591,19.589,8.299,23.951C166.831,112.943,194.158,108.473,194.158,108.473"/>
	<image width="54" height="35" xlink:href="3642CD55.png"  transform="matrix(1 0 0 1 152 76)">
	</image>
	<path fill="#775740" d="M203.568,95.275c-0.862-1.464-2.755-1.877-4.039-0.892c0.402-2.086,0.41-4.144,0.435-6.312
		c0.025-1.938,0.113-3.9-0.24-5.818c-0.382-2.078-1.484-2.707-3.002-4.034c-0.913-0.802-1.717-1.637-2.759-2.289
		c-1.099-0.687-2.343-1.184-3.564-1.601c-5.063-1.729-10.773-1.753-15.99-0.818c-4.868,0.874-9.692,2.798-13.549,5.932
		c-1.752,1.425-3.233,3.181-4.29,5.175c-0.517,0.973-0.874,2.018-1.131,3.087c-0.261,1.102-0.521,2.239-0.343,3.36
		c0.028,1.116,0.127,2.229,0.281,3.337c-1.301-0.724-2.795-0.655-3.716,0.651c-0.947,1.34-1.032,2.895-0.359,4.383
		c0.73,1.617,2.01,2.974,3.64,3.695c0.812,0.36,2.266,0.761,3.168,0.323c0.851,1.8,1.86,3.522,3.014,5.126
		c1.926,2.679,4.528,4.4,7.4,5.936c3.104,1.658,6.624,2.158,10.096,1.904c0.011,0,0.013-0.006,0.022-0.009
		c1.771-0.163,3.585-0.702,5.161-1.29c2.217-0.826,4.207-1.584,6.09-3.066c1.933-1.523,3.541-3.312,4.952-5.322
		c0.726-1.035,1.368-2.122,2.04-3.189c0.47-0.75,0.926-1.582,0.971-2.479c0.016-0.062,0.029-0.122,0.043-0.186
		c0.356,1.136,1.688,1.608,2.864,1.445c1.495-0.212,2.463-1.363,3.011-2.692C204.334,98.27,204.323,96.558,203.568,95.275"/>
	<image width="8" height="3" xlink:href="3642CD56.png"  transform="matrix(1 0 0 1 173 108)">
	</image>
	<image width="27" height="7" xlink:href="3642CD54.png"  transform="matrix(1 0 0 1 165 110)">
	</image>
	<path fill="#845B31" d="M172.75,115.36c0,0,1.874-1.529,4.983-1.626c3.107-0.1,5.03,1.036,5.03,1.036l2.518-0.939
		c0,0-2.714-2.662-7.696-2.218c-4.983,0.443-7.301,2.859-7.301,2.859S171.96,115.263,172.75,115.36"/>
	<image width="17" height="5" xlink:href="3642CD53.png"  transform="matrix(1 0 0 1 169 111)">
	</image>
	<image width="16" height="4" xlink:href="3642CD4D.png"  transform="matrix(1 0 0 1 170 112)">
	</image>
	<path fill="#845B31" d="M155.487,88.479c0,0,1.973,16.773,8.615,21.836c3.482,2.651,7.082,5.404,13.581,4.998
		c5.524-0.346,9.781-2.289,13.976-6.577c8.421-8.608,6.906-20.914,6.381-24.926c0,0,1.512-0.328,3.088,1.184
		c0,0,1.646,15.587-8.087,24.926c-9.734,9.339-21.51,9.049-30.122,1.513c-1.578-1.38-7.826-7.3-9.8-21.703L155.487,88.479z"/>
	<image width="50" height="35" xlink:href="3642CD4E.png"  transform="matrix(1 0 0 1 152 83)">
	</image>
	<image width="49" height="35" xlink:href="3642CD4C.png"  transform="matrix(1 0 0 1 153 83)">
	</image>
	<image width="49" height="35" xlink:href="3642CD72.png"  transform="matrix(1 0 0 1 153 83)">
	</image>
	<path fill="#B3BDC3" d="M208.362,87.216c-0.021-0.113-0.063-0.216-0.107-0.313c-0.048-0.1-0.08-0.206-0.138-0.297
		c-0.12-0.175-0.216-0.376-0.36-0.525c-0.26-0.329-0.577-0.619-0.888-0.874l-0.27-0.204c-0.282-5.397-2-12.802-6.979-18.488
		c-5.54-6.32-13.692-9.056-24.225-8.123c-14.522,1.282-20.744,9.431-23.409,16.042c-2.477,6.142-2.415,12.12-2.346,13.73
		c-0.468,0.407-0.909,0.86-1.275,1.396c-0.224,0.338-0.423,0.704-0.533,1.122c-0.107,0.41-0.11,0.905,0.158,1.315
		c0.076,0.097,0.149,0.189,0.253,0.265l0.158,0.108c0.051,0.028,0.094,0.042,0.142,0.065l0.069,0.031
		c-0.004-0.002,0.046,0.018,0.055,0.018l0.041,0.01l0.161,0.037c0.105,0.02,0.212,0.059,0.322,0.061
		c0.435,0.048,0.868,0.003,1.286-0.087c0.418-0.102,0.824-0.229,1.217-0.405c0.384-0.17,0.768-0.343,1.153-0.519
		c0.763-0.356,1.551-0.679,2.347-1.003c0.791-0.341,1.614-0.613,2.436-0.92c0.815-0.313,1.662-0.568,2.51-0.835
		c0.427-0.133,0.852-0.268,1.278-0.4c0.425-0.138,0.865-0.235,1.301-0.355c0.871-0.223,1.747-0.462,2.632-0.681
		c0.891-0.182,1.789-0.367,2.688-0.555c0.453-0.088,0.902-0.199,1.356-0.268c0.456-0.067,0.912-0.137,1.368-0.203
		c0.916-0.137,1.833-0.274,2.752-0.414c0.928-0.082,1.86-0.167,2.793-0.25l1.397-0.125c0.229-0.02,0.472-0.049,0.691-0.058
		l0.701-0.026c3.729-0.17,7.474-0.016,11.128,0.402c3.654,0.428,7.221,1.085,10.623,1.933c1.696,0.425,3.357,0.889,4.964,1.4
		c0.209,0.063,0.384,0.136,0.632,0.18c0.232,0.048,0.476,0.034,0.705-0.019c0.459-0.108,0.866-0.413,1.09-0.829
		C208.471,88.141,208.486,87.638,208.362,87.216"/>
	<path fill="#95856D" d="M206.6,85.004c-0.081-1.558-0.303-3.293-0.667-5.094c-2.099-0.729-32.942-11.017-56.126,3.61
		c-0.224,2.205-0.195,3.898-0.163,4.645C149.644,88.165,174.05,71.895,206.6,85.004"/>
	<image width="62" height="33" xlink:href="3642CD75.png"  transform="matrix(1 0 0 1 147 60)">
	</image>
	<image width="62" height="35" xlink:href="3642CD69.png"  transform="matrix(1 0 0 1 147 58)">
	</image>
	<path fill="#94263B" d="M183.495,107.289c0.717-0.21-3.914-1.973-4.81-1.554c-0.896,0.418-2.926,0.119-3.763-0.179
		c-0.837-0.301-4.154,2.12-4.154,2.12s1.794,0.478,2.033,0.657s1.643,1.076,3.823,0.687c2.18-0.388,3.494,0.149,4.568-0.479
		C182.271,107.915,182.829,107.483,183.495,107.289"/>
	<path fill="#2B2609" d="M183.532,107.313c0,0-0.175-0.113-0.506-0.243c-0.325-0.128-0.838-0.28-1.408-0.17
		c-0.146,0.007-0.271,0.104-0.415,0.15c-0.162,0.058-0.326,0.118-0.497,0.18c-0.34,0.094-0.737,0.159-1.125,0.204
		c-0.771,0.078-1.596,0.124-2.422,0.139c-0.824-0.009-1.646-0.03-2.422-0.11c-0.376-0.018-0.785-0.113-1.107-0.193
		c-0.352-0.1-0.65-0.106-0.941-0.081c-0.599,0.056-1.097,0.196-1.438,0.299c-0.343,0.104-0.533,0.185-0.533,0.185
		s0.18-0.102,0.51-0.246c0.333-0.135,0.807-0.358,1.434-0.453c0.318-0.052,0.689-0.055,1.023,0.021
		c0.37,0.066,0.69,0.112,1.084,0.136c0.757,0.063,1.575,0.066,2.39,0.057c0.814,0.005,1.63-0.025,2.39-0.084
		c0.373-0.046,0.718-0.066,1.062-0.136c0.165-0.047,0.324-0.091,0.48-0.135c0.17-0.05,0.324-0.144,0.49-0.145
		c0.658-0.085,1.158,0.167,1.474,0.324C183.374,107.183,183.532,107.313,183.532,107.313"/>
	<path d="M176.698,92.869l-3.185,9.658l-0.03-0.288c0.06,0.085,0.207,0.198,0.304,0.301l0.395,0.258
		c0.13,0.088,0.297,0.126,0.439,0.193c0.152,0.053,0.285,0.149,0.454,0.166l0.483,0.097c0.161,0.027,0.313,0.099,0.483,0.096
		c0.335,0.01,0.672,0.021,1.009,0.051c0.336,0.041,0.68-0.045,1.023-0.062l0.515-0.049c0.171-0.02,0.351-0.003,0.52-0.05
		c0.68-0.146,1.37-0.282,2.081-0.385c0.021-0.006,0.044,0.006,0.048,0.027c0.005,0.018-0.006,0.036-0.022,0.045
		c-0.647,0.293-1.316,0.556-1.996,0.807c-0.341,0.116-0.703,0.166-1.062,0.237c-0.36,0.051-0.713,0.172-1.084,0.164
		c-0.371,0.013-0.743,0.005-1.116-0.001c-0.186,0.004-0.373-0.063-0.559-0.094l-0.554-0.132c-0.188-0.025-0.356-0.144-0.535-0.214
		c-0.172-0.088-0.354-0.151-0.515-0.27c-0.328-0.232-0.624-0.448-0.884-0.838c-0.057-0.087-0.063-0.197-0.028-0.29l3.743-9.455
		c0.008-0.021,0.032-0.03,0.05-0.022C176.695,92.828,176.705,92.85,176.698,92.869"/>
	<path d="M176.095,87.658c0,0-0.058,3.182-1.73,2.031c-3.825-2.628-12.366-1.435-15.594-0.061c0,0,11.625-1.443,15.293,0.479
		C175.318,90.765,176.095,89.569,176.095,87.658"/>
	<path d="M179.205,88.14c0,0,0.365,3.162,1.921,1.855c3.551-2.985,12.17-2.617,15.512-1.562c0,0-11.708-0.316-15.175,1.948
		C180.277,91.156,179.39,90.043,179.205,88.14"/>
	<path fill="#FFFCD7" d="M173.767,92.041c0,0-0.839,0.366-1.696-0.218c-0.855-0.585-6.193-3.879-10.877-0.219
		C161.193,91.604,165.604,96.438,173.767,92.041"/>
	<path d="M165.316,93.697c-0.368-0.542-0.6-1.249-0.6-2.032c0-0.626,0.146-1.206,0.39-1.691c1.495-0.18,2.904,0.072,4.071,0.457
		c0.127,0.379,0.2,0.795,0.2,1.234c0,0.815-0.247,1.554-0.642,2.103C167.435,93.948,166.289,93.894,165.316,93.697"/>
	<path fill="#FFFCD7" d="M181.265,91.683c0,0,0.838,0.366,1.695-0.218c0.856-0.585,6.194-3.878,10.88-0.219
		C193.84,91.246,189.426,96.08,181.265,91.683"/>
	<path d="M189.716,93.34c0.367-0.543,0.598-1.249,0.598-2.034c0-0.626-0.144-1.205-0.39-1.69c-1.493-0.18-2.903,0.072-4.069,0.457
		c-0.126,0.379-0.202,0.795-0.202,1.233c0,0.817,0.248,1.555,0.642,2.104C187.598,93.59,188.742,93.536,189.716,93.34"/>
	<path fill="#775740" d="M221.417,198.871c-0.041-1.852-0.349-3.673-0.387-5.522c-0.018-0.829,0.086-1.654,0.083-2.483
		c-0.003-0.825-0.166-1.649-0.26-2.466c-0.098-0.824-0.122-1.661-0.133-2.499c0.05-0.771,0.065-1.537,0.212-2.306
		c0.051-0.271,0.219-0.704,0.009-0.956c-0.714-0.857-2.734-0.487-3.68-0.348c-0.776,0.118-1.75,0.193-2.38,0.723
		c-0.688,0.576-0.627,1.457-0.52,2.295c-0.04,1.325-0.047,2.671-0.68,3.868c-0.606,1.149-1.563,2.054-2.122,3.24
		c-0.51,1.075-0.4,2.256-0.188,3.389c0.299,1.617,0.225,3.006,0.037,4.617c-0.05,0.426-0.216,1.714,0.439,1.883
		c0.206,0.055,0.4,0.049,0.589,0.009c-0.042,0.036-0.083,0.074-0.123,0.112c-0.577,0.563-1.52,2.851-0.207,3.077
		c-0.118,0.56-0.113,1.197,0.391,1.3c0.532,0.11,1.072-0.154,1.528-0.479c-0.563,0.968-0.83,2.013-0.045,2.637
		c0.059,0.116,0.15,0.206,0.43,0.056c0.731-0.401,1.673-0.852,2.235-1.456c0.315-0.343,0.471-0.902,0.65-1.319
		c0.279-0.652,0.918-1.273,1.365-1.815c0.672-0.813,1.438-1.555,2.132-2.353c0.061,0.021,0.127,0.008,0.166-0.069
		c0.163-0.313,0.598-0.678,0.572-1.081C221.492,200.238,221.432,199.556,221.417,198.871"/>
	<image width="11" height="28" xlink:href="3642CD6B.png"  transform="matrix(1 0 0 1 211 182)">
	</image>
	<image width="11" height="18" xlink:href="3642CD68.png"  transform="matrix(1 0 0 1 211 192)">
	</image>
	<path fill="#775740" d="M213.524,208.24c0.003-1.315,1.203-3.051,1.905-3.73c0.68-0.658,1.097-1.207,1.569-2.022
		c0.507-0.876,1.487-1.981,1.116-3.06c-0.262-0.76-0.685-1.46-1.068-2.165c-0.416-0.774-0.882-1.526-1.85-1.412
		c-0.113,0.063-0.214,0.124-0.286,0.166c-0.005,0.002-0.01,0.002-0.014,0.002c-0.268,1.22-0.107,2.6-0.383,3.796
		c-0.299,1.306-1.54,2.044-2.453,2.939c-0.542,0.837-1.083,2.554,0.047,2.75c-0.116,0.56-0.113,1.197,0.391,1.3
		c0.532,0.11,1.072-0.154,1.526-0.479C213.646,206.98,213.4,207.669,213.524,208.24"/>
	<image width="8" height="14" xlink:href="3642CD97.png"  transform="matrix(1 0 0 1 211 195)">
	</image>
	<image width="11" height="28" xlink:href="3642CD99.png"  transform="matrix(1 0 0 1 211 182)">
	</image>
	<image width="19" height="29" xlink:href="3642CD9B.png"  transform="matrix(1 0 0 1 149 74)">
	</image>
	<path fill="#775740" d="M166.16,84.095c-1.147-1.25-2.978-0.887-4.361-0.232c-0.196,0.094-0.389,0.19-0.58,0.293
		c0.264-0.375,0.497-0.786,0.719-1.132c0.569-0.892,1.25-1.701,1.817-2.594c0.722-1.138,1.915-3.131,1.542-4.582
		c0.481-1.229,0.686-2.462-0.331-2.525c-0.073-0.146-0.176-0.258-0.322-0.287c-0.021-0.05-0.071-0.086-0.138-0.065
		c-2.209,0.599-4.32,2.137-6.114,3.51c-0.836,0.64-1.596,1.377-2.359,2.103c-0.618,0.586-1.321,1.161-1.927,1.792
		c-2.067,1.618-4.104,3.272-6.188,4.872c-1.489,1.146-3.554,2.383-4.192,4.254c-0.21,0.614-0.26,1.271-0.522,1.868
		c-0.258,0.578-0.842,1.017-1.314,1.416c-0.852,0.717-1.627,1.646-2.519,2.316c-0.013-0.002-0.026-0.01-0.038-0.007
		c-0.702,0.11-0.705,0.925-0.766,1.498c-0.128,1.219,0.182,2.501,0.725,3.585c0.447,0.894,1.4,1.327,2.321,1.565
		c0.5,0.13,1.007,0.234,1.524,0.218c0.254-0.009,0.456-0.181,0.641-0.36c1.94-1.517,3.597-3.535,5.86-4.515
		c1.399-0.195,2.732-0.526,3.965-1.422c1.907-1.392,3.385-3.187,5.457-4.385c1.775-1.027,2.38-3.029,3.788-4.45
		c0.771-0.774,1.785-1.162,2.72-1.686c0.301-0.167,0.573-0.485,0.49-0.819C166.16,84.332,166.242,84.183,166.16,84.095"/>
	<image width="29" height="28" xlink:href="3642CD98.png"  transform="matrix(1 0 0 1 138 74)">
	</image>
	<image width="9" height="8" xlink:href="3642CD9F.png"  transform="matrix(1 0 0 1 151 84)">
	</image>
	<path fill="#654935" d="M166.16,84.096c-1.147-1.25-2.978-0.887-4.361-0.234c-0.196,0.095-0.389,0.191-0.58,0.294
		c0.264-0.374,0.497-0.785,0.719-1.132c0.569-0.891,1.25-1.701,1.817-2.593c0.722-1.139,1.915-3.133,1.542-4.583
		c0.481-1.229,0.686-2.462-0.331-2.526c-0.073-0.146-0.176-0.257-0.322-0.286c-0.021-0.049-0.071-0.085-0.138-0.066
		c-2.209,0.6-4.32,2.139-6.114,3.511c-0.836,0.639-1.596,1.378-2.359,2.103c-0.618,0.587-1.321,1.161-1.927,1.793
		c-2.067,1.617-4.104,3.271-6.188,4.871c-1.489,1.146-3.554,2.383-4.192,4.254c-0.21,0.614-0.26,1.27-0.522,1.868
		c-0.258,0.578-0.842,1.016-1.314,1.416c-0.852,0.718-1.627,1.646-2.519,2.316c-0.013-0.003-0.026-0.009-0.038-0.006
		c-0.702,0.109-0.705,0.923-0.766,1.498c-0.128,1.217,0.182,2.5,0.725,3.584c0.447,0.894,1.4,1.329,2.321,1.565
		c0.5,0.129,1.007,0.233,1.524,0.218c0.254-0.009,0.456-0.18,0.641-0.36c1.94-1.517,3.597-3.535,5.86-4.517
		c1.399-0.193,2.732-0.524,3.965-1.421c1.907-1.391,3.385-3.186,5.457-4.384c1.775-1.027,2.38-3.028,3.788-4.45
		c0.771-0.774,1.785-1.162,2.72-1.685c0.301-0.169,0.573-0.486,0.49-0.821C166.16,84.333,166.242,84.183,166.16,84.096
		 M165.023,73.451c0.701,0.351,0.469,1.347,0.122,2.189c-0.023,0.011-0.043,0.029-0.043,0.063c0,0.014,0,0.029,0,0.043
		c-0.183,0.429-0.387,0.807-0.497,1.029c-0.598,1.2-1.416,2.164-2.355,3.108c-1.729,1.727-3.499,3.605-4.773,5.713
		c-0.08-0.054-0.175-0.095-0.299-0.106c-0.332-0.021-0.646,0.048-0.971,0.109c-0.311,0.059-0.622,0.085-0.933,0.118
		c0.389-0.512,0.675-1.094,0.993-1.651c0.509-0.888,1.131-1.662,1.831-2.4c1.32-1.393,2.719-2.641,4.186-3.868
		c1.042-0.869,2.413-1.985,2.78-3.345C165.128,74.226,165.136,73.783,165.023,73.451 M165.672,84.299
		c0.296,0.479-1.854,1.4-2.104,1.548c-0.69,0.4-1.238,1.014-1.741,1.619c-0.511,0.618-0.923,1.315-1.352,1.991
		c-0.608,0.96-1.438,1.387-2.37,1.973c-1.657,1.034-2.933,2.513-4.42,3.75c-0.99,0.82-1.984,1.317-3.24,1.58
		c-0.127,0.028-0.255,0.052-0.384,0.071c-0.009-0.016-0.024-0.029-0.05-0.029c-0.276,0.017-0.525,0.066-0.761,0.135
		c-0.688,0.074-1.373,0.133-2.042,0.324c-0.05,0.016-0.042,0.104,0.016,0.097c0.46-0.056,0.918-0.101,1.368-0.149
		c-0.512,0.276-0.964,0.669-1.457,1.121c-1.095,1.004-2.172,2.029-3.27,3.028c-1.344,0.574-3.511-0.16-4.232-1.382
		c-0.442-0.744-0.613-1.663-0.703-2.512c-0.061-0.566-0.171-1.884,0.474-2.192c0.032-0.015,0.044-0.038,0.049-0.06
		c0.691-0.397,1.305-1.056,1.887-1.569c0.754-0.66,1.603-1.253,2.131-2.118c0.227-0.374,0.287-0.86,0.387-1.275
		c0.205-0.85,0.553-1.488,1.122-2.147c0.874-1.012,1.997-1.848,3.052-2.66c1.966-1.514,3.942-3.01,5.896-4.541
		c1.122-0.878,2.261-1.709,3.437-2.508c1.003-0.682,1.854-1.524,2.815-2.254c0.297-0.068,0.554,0.114,0.772,0.554
		c0.05,0.473-0.311,0.801-0.536,1.151c-0.313,0.49-0.656,0.934-1.079,1.336c-0.881,0.835-1.83,1.596-2.756,2.378
		c-1.187,1.002-2.663,2.392-3.224,3.957c0.015-0.264,0.034-0.526,0.069-0.784c0.009-0.069-0.1-0.079-0.118-0.017
		c-0.501,1.564-0.313,3.209-0.652,4.805c-0.184,0.871-0.781,1.481-1.339,2.137c-0.432,0.508-0.779,1.091-1.279,1.534
		c-0.03,0.026,0.008,0.075,0.04,0.055c0.586-0.391,0.982-0.861,1.424-1.406c0.438-0.536,1.04-1.011,1.305-1.671
		c0.498-1.248,0.479-2.619,0.519-3.966c1.345-3.14,4.422-4.861,6.681-7.247c0.539-0.571,1.491-1.701,1.209-2.556
		c-0.186-0.561-0.51-0.688-0.896-0.506c-0.027-0.059-0.092-0.095-0.158-0.049c-0.913,0.667-1.729,1.454-2.663,2.1
		c-0.455,0.312-0.911,0.619-1.364,0.934c0.607-0.619,1.205-1.243,1.844-1.769c1.859-1.533,4.241-3.265,6.594-3.899
		c0.02-0.006,0.035-0.014,0.05-0.023c0.716,0.313-0.22,2.055-0.391,2.272c-0.412,0.53-0.888,1.008-1.376,1.471
		c-1.021,0.974-2.168,1.804-3.188,2.781c-1.849,1.771-3.543,3.573-4.631,5.919c-0.019,0.04-0.013,0.083,0.006,0.117
		c-0.193,0.026-0.385,0.056-0.575,0.104c-0.047,0.013-0.032,0.075,0.011,0.079c0.634,0.051,1.319,0.086,1.946-0.029
		c0.274-0.05,0.551-0.124,0.83-0.079c0.274,0.045,0.378,1.012,0.517,1.263c0.042,0.075,0.138,0.02,0.128-0.052
		c-0.05-0.367-0.027-0.948-0.263-1.283c1.103-1.276,2.01-2.709,3.156-3.958c1.079-1.172,2.303-2.213,3.246-3.503
		c0.165-0.224,0.633-1.013,1.031-1.896c-0.349,3.232-3.066,5.379-4.501,8.151c-0.422,0.275-0.813,0.594-1.155,0.978
		c-0.722,0.811-1.256,1.681-2.102,2.389c-0.033,0.029,0.009,0.084,0.045,0.059c1.35-0.856,2.038-2.339,3.366-3.202
		c0.723-0.47,1.551-0.881,2.389-1.085c0.998-0.247,1.797-0.101,2.592,0.412C165.647,84.142,165.62,84.215,165.672,84.299"/>
	<path fill="#B3BDC3" d="M228.086,144.489c-0.209-1.57-0.158-3.21-0.192-4.793c-0.079-3.462-0.146-6.926-0.42-10.381
		c-0.192-2.438-0.24-5.244-2.667-6.569c-1.007-0.55-2.254-0.467-3.356-0.541c-0.603-0.039-1.209-0.037-1.815-0.03
		c0.008-0.075-0.028-0.155-0.111-0.18c-0.883-0.255-1.687-0.681-2.549-0.985c-1.184-0.416-2.383-0.814-3.541-1.296
		c-2.281-0.948-4.564-2.076-6.961-2.712c-1.162-0.305-2.355-0.332-3.493-0.733c-1.024-0.361-1.932-0.988-2.955-1.324
		c-0.69-0.226-1.238,0.153-1.923-0.379c-0.329-0.257-0.565-0.663-0.857-0.965c-0.366-0.375-0.907-0.506-1.407-0.414
		c-0.401-0.574-0.932-1.098-1.331-1.575c-0.129-0.155-0.945-1.145-1.285-0.879c-0.079-0.015-0.168,0.003-0.229,0.085
		c-0.569,0.747-0.935,1.646-1.52,2.4c-0.611,0.79-1.309,1.542-2.004,2.261c-1.48,1.532-3.122,2.916-4.638,4.417
		c-1.553,1.538-3.124,3.021-4.805,4.416c-0.722,0.597-1.48,1.155-2.22,1.73c-0.329,0.254-0.688,0.517-0.802,0.909
		c-0.572-0.479-1.012-1.101-1.527-1.64c-1.192-1.249-2.533-2.354-3.738-3.599c-1.282-1.321-2.504-2.666-3.854-3.921
		c-0.738-0.686-1.44-1.415-2.231-2.043c-0.302-0.24-0.719-0.641-1.066-1.066c0.005-0.225-0.161-0.507-0.236-0.716
		c-0.112-0.307-0.201-0.619-0.395-0.886c-0.147-0.204-0.367-0.384-0.622-0.412c-0.178-0.021-0.311,0.034-0.428,0.122
		c-0.103-0.038-0.225-0.021-0.305,0.092c-0.352,0.517-0.871,1.012-1.267,1.509c-0.476,0.595-0.939,1.2-1.454,1.764
		c-0.082,0.09-0.139,0.193-0.177,0.305c-2.729,0.652-5.562,0.937-8.347,1.261c-0.135-0.36-0.296-0.71-0.536-1.016
		c-0.796-1.012-2.612-0.959-3.752-0.972c-2.264-0.025-4.485-0.214-6.692-0.726c-0.977-0.229-1.943-0.447-2.937-0.588
		c-0.538-0.075-1.735-0.111-2.159-0.576c0.885-1.796,1.854-3.547,3.566-4.702c0.636-0.428,1.497-0.682,1.958-1.335
		c0.627-0.891,0.016-1.922-0.166-2.878c-0.008-0.028-0.025-0.044-0.039-0.063c0.996-0.605,1.828-1.469,2.763-2.162
		c0.983-0.731,1.986-1.332,2.62-2.421c0.027-0.045,0.031-0.09,0.022-0.133c0.127-0.119,0.243-0.267,0.338-0.451
		c0.035-0.066-0.037-0.144-0.104-0.104c-0.234,0.138-0.715,0.45-0.876,0.461c-0.331,0.025-0.729-0.107-1.06-0.174
		c-0.922-0.188-1.661-1.128-2.137-1.872c-0.793-1.244-0.998-2.696-1.277-4.112c0.067-0.058,0.062-0.19-0.038-0.207
		c-0.619-0.104-1.007-0.251-1.626-0.052c-0.722,0.23-1.335,0.866-1.907,1.337c-0.727,0.593-1.463,1.172-2.175,1.777
		c-0.418-0.326-0.714-0.708-1.228-0.937c-0.43-0.191-0.925-0.26-1.392-0.292c-0.868-0.06-1.398,0.557-1.756,1.265
		c-0.712,1.406-1.752,2.401-2.857,3.496c-1.072,1.064-2.068,2.21-3.019,3.388c-1.17,1.124-2.322,2.233-3.729,3.071
		c-1.345,0.801-2.68,1.547-3.785,2.678c-1.081,1.106-1.688,2.643-2.489,3.943c-0.87,1.415-1.983,2.665-2.376,4.315
		c-0.313,1.32,0.508,2.543,1.107,3.646c0.711,1.308,0.996,2.792,1.857,4.025c0.819,1.171,2.089,2.128,3.211,2.988
		c1.589,1.227,3.13,2.488,4.663,3.781c0.056,0.048,0.121,0.048,0.171,0.021c3.909,3.146,8.004,6,12.106,8.887
		c2.268,1.6,4.169,3.391,5.77,5.666c0.723,1.028,1.444,2.055,2.173,3.077c0.642,0.899,1.12,1.863,1.604,2.842
		c0.076,0.929,0.163,1.858,0.271,2.782c0.108,0.935,0.354,1.833,0.604,2.734c-0.001-0.007-0.006-0.014-0.01-0.02
		c-0.016-0.03-0.063-0.011-0.055,0.024c1.299,4.241,2.031,8.601,3.699,12.734c1.142,2.827,2.501,5.733,4.681,7.897
		c-0.645,0.506-1.112,1.239-1.61,1.877c-0.695,0.889-1.515,1.701-2.256,2.553c-0.651,0.744-1.367,1.471-1.97,2.256
		c-0.542,0.708-0.938,2.052-1.723,2.568c-0.006-0.006-0.014-0.015-0.018-0.021c-0.137-0.163-0.359,0.069-0.233,0.232
		c0.576,0.739,1.511,1.298,2.27,1.839c0.778,0.554,1.62,1.051,2.479,1.502c-1,0.259-1.429,2.279-1.318,3.044
		c0.101,0.718,0.675,1.086,1.278,1.34c0.16,0.066,0.312,0.145,0.459,0.231c-0.163,0.838-0.855,1.099-0.188,1.955
		c1.028,1.322,1.335,2.908,1.738,4.515c0.819,3.278,1.495,6.591,2.325,9.867c0.793,3.135,2.221,6.389,1.748,9.667
		c-0.167,1.153-0.226,2.187,0.273,3.271c0.216,0.473,0.622,0.928,1.089,1.32c1.261,2.437,2.194,4.883,2.67,7.608
		c0.177,1.01,0.061,2.297,0.51,3.241c0.387,0.812,1.056,1.29,1.836,1.696c0.895,0.46,1.847,0.791,2.738,1.259
		c0.94,0.492,1.827,0.686,2.832,0.237c0.582-0.258,1.124-0.604,1.656-0.963c2.551-0.532,4.954,1.468,7.502,0.687
		c1.017-0.311,1.747-1.176,2.238-2.074c0.299-0.545,0.465-1.149,0.601-1.752c0.044-0.207,0.098-0.409,0.157-0.61
		c0.062-0.14,0.13-0.279,0.203-0.412c0.002,0.044,0.002,0.09,0.008,0.133c0.107,0.698,0.515,1.191,0.849,1.796
		c0.298,0.534,0.538,1.241,1.083,1.592c0.522,0.335,1.073,0.424,1.682,0.495c0.813,0.098,1.563,0.407,2.383,0.41
		c0.713,0.002,1.416-0.317,2.049-0.613c0.569-0.267,1.146-0.513,1.725-0.758c1.222-0.111,2.228-0.033,3.396,0.462
		c0.856,0.366,1.714,0.622,2.64,0.762c1.269,0.189,2.855-0.036,3.627-1.196c0.85-1.277,0.865-2.972,1.045-4.448
		c0.268-2.237,0.616-4.427,1.459-6.516c0.057-0.05,0.116-0.098,0.17-0.147c0.708-0.613,1.517-1.207,1.896-2.087
		c0.328-0.76-0.07-1.598-0.301-2.322c-0.408-1.31-0.645-2.597-0.813-3.948c0.364-1.233,0.705-2.477,1.057-3.709
		c0.641-2.246,1.393-4.538,1.746-6.851c0.343-2.24,0.497-4.526,0.622-6.788c0.063-1.113,0.171-2.22,0.29-3.328
		c0.078-0.728,0.459-1.435,0.391-2.168c0.418-0.409,1.003-0.492,1.124-1.122c0.087-0.459-0.414-1.23-0.549-1.661
		c-0.111-0.357-0.203-0.717-0.341-1.066c-0.146-0.371-0.387-0.678-0.544-1.045c1.237-0.756,2.448-1.549,3.588-2.437
		c0.145,0.015,0.321-0.105,0.281-0.299c-0.153-0.751-0.64-1.396-1.033-2.039c-0.691-1.135-1.343-2.295-1.99-3.456
		c-0.986-1.751-1.891-3.758-3.608-4.854c1.01-0.874,1.82-1.787,2.283-3.39c0.632-2.188,0.928-4.529,1.268-6.774
		c0.32-2.136,0.725-4.293,1.237-6.389c0.106-0.444,0.22-0.885,0.336-1.321c0.303,0.554,0.829,1.073,1.111,1.515
		c0.038,0.059,0.077,0.119,0.115,0.181c0.097,0.439,0.055,0.998,0.061,1.388c0.006,0.61,0.004,1.216,0.033,1.824
		c0.05,1.213,0.164,2.413,0.321,3.616c0.152,1.177,0.296,2.354,0.275,3.544c-0.005,0.314-0.024,0.63-0.034,0.943
		c-0.322,0.688-0.681,1.293-1.132,1.946c-0.321,0.464-0.238,1.061-0.047,1.551c0.257,0.654,0.82,1.205,1.239,1.753
		c0.063,0.08,0.127,0.163,0.19,0.246c0.022,0.521-0.048,1.037-0.075,1.56c-0.039,0.704,0.034,1.403-0.019,2.105
		c-0.089,1.185-0.097,2.383-0.197,3.567c-0.019,0.01-0.033,0.026-0.033,0.05c0.067,1.237,1.596,1.528,2.923,1.371
		c1.003,0.475,2.532,0.202,3.52-0.158c1.081-0.392,2.656-1.031,3.129-2.156c0.323-0.769,0.314-1.759,0.434-2.571
		c0.117-0.787,0.24-1.578,0.283-2.375c0.044-0.879,0.525-2.117-0.391-2.708c-0.016-0.009-0.032-0.012-0.047-0.018
		c0.269-0.271,0.566-0.517,0.821-0.811c0.531-0.615,0.581-1.658,0.664-2.424c0.286-2.615,0.546-5.212,1.207-7.766
		c0.666-2.569,1.322-5.175,2.082-7.717c0.285-0.947,0.634-1.956,0.495-2.958c-0.193-1.407-0.681-2.753-0.835-4.172
		c-0.005-0.043-0.033-0.065-0.064-0.076c0.471-0.695,0.988-1.369,1.568-1.916c0.547-0.515,0.96-0.945,0.917-1.606
		c0.02-0.071,0.039-0.141,0.045-0.216C228.849,146.926,228.263,145.807,228.086,144.489"/>
	<image width="115" height="135" xlink:href="3642CD9A.png"  transform="matrix(1 0 0 1 115 105)">
	</image>
	<image width="118" height="149" xlink:href="3642CDA6.png"  transform="matrix(1 0 0 1 112 93)">
	</image>
	<image width="24" height="22" xlink:href="3642CDBC.png"  transform="matrix(1 0 0 1 184 135)">
	</image>
	<image width="24" height="19" xlink:href="3642CD83.png"  transform="matrix(1 0 0 1 184 136)">
	</image>
	<image width="22" height="22" xlink:href="3642CD84.png"  transform="matrix(1 0 0 1 151 136)">
	</image>
	<image width="21" height="18" xlink:href="3642CD87.png"  transform="matrix(1 0 0 1 152 138)">
	</image>
	<image width="58" height="64" xlink:href="3642CD85.png"  transform="matrix(1 0 0 1 151 128)">
	</image>
	<image width="39" height="31" xlink:href="3642CD82.png"  transform="matrix(1 0 0 1 159 110)">
	</image>
	<image width="63" height="54" xlink:href="3642CD8C.png"  transform="matrix(1 0 0 1 147 188)">
	</image>
	<image width="57" height="49" xlink:href="3642CD8F.png"  transform="matrix(1 0 0 1 149 193)">
	</image>
	<image width="36" height="59" xlink:href="3642CD8D.png"  transform="matrix(1 0 0 1 112 99)">
	</image>
	<image width="13" height="62" xlink:href="3642CD81.png"  transform="matrix(1 0 0 1 210 126)">
	</image>
	<image width="12" height="10" xlink:href="3642CDEF.png"  transform="matrix(1 0 0 1 218 147)">
	</image>
	<image width="118" height="149" xlink:href="3642CDE1.png"  transform="matrix(1 0 0 1 112 93)">
	</image>
	<image width="23" height="20" xlink:href="3642CDE3.png"  transform="matrix(1 0 0 1 184 135)">
	</image>
	<image width="4" height="3" xlink:href="3642CDE6.png"  transform="matrix(1 0 0 1 196 139)">
	</image>
	<image width="4" height="3" xlink:href="3642CDE7.png"  transform="matrix(1 0 0 1 161 140)">
	</image>
	<image width="21" height="20" xlink:href="3642CDE2.png"  transform="matrix(1 0 0 1 152 136)">
	</image>
	<path fill="#E2E3E4" d="M180.626,181.638c1.825,0.083,3.6,0.393,5.389,0.799c-0.153,0.732-0.297,1.457-0.341,2.204
		c-0.065,1.133-0.481,1.757-1.612,1.999c-0.729,0.156-1.507,0.102-2.246,0.118c-0.891,0.02-1.776,0.086-2.668,0.085
		c-1.305-0.003-2.745-0.027-4.028-0.279c-0.799-0.157-1.39-0.492-1.604-1.313c-0.208-0.793-0.205-1.812-0.231-2.654
		c1.577-0.179,3.148-0.381,4.716-0.592C178.881,181.887,179.752,181.749,180.626,181.638"/>
	<image width="14" height="6" xlink:href="3642CDFD.png"  transform="matrix(1 0 0 1 173 181)">
	</image>
	<path fill="#3A3C2C" d="M173.071,185.312c0,0.008,0.002,0.009,0.002,0.015c-0.509-0.187-1.253-0.203-1.699-0.3
		c-1.132-0.24-2.298-0.345-3.445-0.516c-1.131-0.167-2.218-0.493-3.312-0.825c-0.825-0.253-1.576-0.672-2.362-1.011
		c0.021,0.006,0.043,0.011,0.066,0.017c2.506,0.55,5.168,0.417,7.706,0.223c1.006-0.077,2.013-0.18,3.017-0.29
		C172.895,183.489,172.96,184.455,173.071,185.312"/>
	<path fill="#3A3C2C" d="M186.089,185.237c0.024-0.201,0.035-0.407,0.047-0.597c0.049-0.714,0.185-1.405,0.343-2.097
		c0.262,0.061,0.524,0.122,0.79,0.187c2.087,0.514,4.143,0.826,6.259,0.898c-0.929,0.329-1.847,0.726-2.783,0.98
		C189.279,185.011,187.614,185.104,186.089,185.237"/>
	<image width="12" height="4" xlink:href="3642CDFE.png"  transform="matrix(1 0 0 1 162 182)">
	</image>
	<image width="8" height="4" xlink:href="3642CDFF.png"  transform="matrix(1 0 0 1 186 182)">
	</image>
</g>
</svg>
