<?xml version="1.0" encoding="utf-8"?>
<!-- Generator: Adobe Illustrator 16.0.0, SVG Export Plug-In . SVG Version: 6.00 Build 0)  -->
<!DOCTYPE svg PUBLIC "-//W3C//DTD SVG 1.1//EN" "http://www.w3.org/Graphics/SVG/1.1/DTD/svg11.dtd">
<svg version="1.1" id="Layer_1" xmlns="http://www.w3.org/2000/svg" xmlns:xlink="http://www.w3.org/1999/xlink" x="0px" y="0px"
	 width="350px" height="350px" viewBox="0 0 350 350" enable-background="new 0 0 350 350" xml:space="preserve">
<g>
	<g>
		<path d="M279.107,254.907l-70.413-70.413c11.46-21.955,7.488-49.56-10.189-67.236l-62.752-62.752
			c-6.674-6.674-17.526-6.674-24.201,0s-6.674,17.526,0,24.201l62.752,62.752c9.053,9.059,9.053,23.789,0,32.847
			c-9.058,9.059-23.789,9.059-32.847,0l-62.751-62.752c-6.674-6.675-17.527-6.675-24.201,0c-6.674,6.674-6.674,17.526,0,24.201
			l62.752,62.752c17.37,17.37,45.315,21.727,67.242,10.195l70.407,70.406c0.74,11.921,10.668,21.393,22.773,21.393
			c12.585,0,22.819-10.234,22.819-22.819C300.5,265.576,291.029,255.647,279.107,254.907z M277.681,289.09
			c-6.29,0-11.409-5.119-11.331-11.982c0.095-1.621-0.512-3.203-1.66-4.352l-75.215-75.214c-1.103-1.104-2.563-1.672-4.033-1.672
			c-1.047,0-2.106,0.29-3.042,0.881c-18.034,11.337-42.328,8.445-57.075-6.313l-62.751-62.752c-2.223-2.222-2.223-5.843,0-8.066
			c2.228-2.229,5.838-2.229,8.066,0l62.752,62.752c13.504,13.504,35.477,13.504,48.979,0c13.505-13.504,13.505-35.477,0-48.98
			L119.62,70.639c-2.223-2.222-2.223-5.843,0-8.066c2.229-2.229,5.838-2.229,8.067,0l62.752,62.752
			c15.03,15.037,17.688,39.036,6.313,57.075c-1.421,2.25-1.093,5.192,0.79,7.075l75.215,75.215c1.203,1.203,3.398,1.794,5.098,1.582
			c6.212,0.094,11.237,5.175,11.237,11.409C289.091,283.971,283.971,289.09,277.681,289.09z"/>
	</g>
</g>
</svg>
