<?xml version="1.0" encoding="utf-8"?>
<!-- Generator: Adobe Illustrator 16.0.0, SVG Export Plug-In . SVG Version: 6.00 Build 0)  -->
<!DOCTYPE svg PUBLIC "-//W3C//DTD SVG 1.1//EN" "http://www.w3.org/Graphics/SVG/1.1/DTD/svg11.dtd">
<svg version="1.1" id="Layer_1" xmlns="http://www.w3.org/2000/svg" xmlns:xlink="http://www.w3.org/1999/xlink" x="0px" y="0px"
	 width="350px" height="350px" viewBox="0 0 350 350" enable-background="new 0 0 350 350" xml:space="preserve">
<path fill="#EA86A5" d="M175,269.536c64.213,0,116.974-24.072,121.449-54.472H53.55C58.025,245.463,110.786,269.536,175,269.536z"/>
<path fill="#DBCF56" d="M126.886,183.453c8.671,3.15,19.101,3.576,29.37,1.211c18.611-4.292,31.387-16.634,30.811-28.791
	l-74.221,17.109C115.585,177.467,120.432,181.108,126.886,183.453z"/>
<g>
	<path fill="#314E55" d="M301.63,206.684H48.37c-2.692,0-4.87,1.874-4.87,4.189c0,36.968,58.992,67.043,131.5,67.043
		c72.509,0,131.5-30.075,131.5-67.043C306.5,208.558,304.321,206.684,301.63,206.684z M175,269.536
		c-64.214,0-116.975-24.072-121.45-54.472h242.899C291.974,245.463,239.213,269.536,175,269.536z"/>
	<path fill="#314E55" d="M123.1,191.175c6.178,2.242,13.037,3.376,20.114,3.376c5.127,0,10.374-0.597,15.562-1.792
		c23.838-5.499,39.722-22.321,37.831-38.868l101.458-23.387l-2.521-8.094l-104.518,24.092c-0.42,0-0.843-0.024-1.252,0.071
		l-84.681,19.519c-2.597,0.597-4.138,2.896-3.444,5.131C104.403,180.065,112.019,187.153,123.1,191.175z M187.066,155.873
		c0.576,12.157-12.2,24.499-30.811,28.791c-10.269,2.365-20.699,1.939-29.37-1.211c-6.454-2.345-11.301-5.986-14.04-10.471
		L187.066,155.873z"/>
	<path fill="#314E55" d="M134.705,137.079c-0.894,2.185,0.442,4.575,2.982,5.34c0.533,0.164,1.076,0.237,1.613,0.237
		c2.012,0,3.891-1.076,4.594-2.803c4.523-11.081,0.619-20.566-3.158-29.736c-2.977-7.239-6.059-14.727-5.607-23.721
		c0.114-2.312-1.969-4.268-4.656-4.366c-2.607-0.192-4.957,1.698-5.075,4.006c-0.533,10.619,3.021,19.256,6.159,26.876
		C135.205,121.779,138.087,128.785,134.705,137.079z"/>
	<path fill="#314E55" d="M153.307,138.663c-1.023,2.14,0.162,4.591,2.645,5.475c0.608,0.213,1.236,0.315,1.859,0.315
		c1.912,0,3.729-0.974,4.504-2.59c6.606-13.782,2.545-23.975-1.037-32.969c-3.814-9.563-7.106-17.825,0.646-30.69
		c1.237-2.054,0.305-4.583-2.083-5.647c-2.383-1.068-5.332-0.27-6.564,1.792c-9.669,16.045-5.179,27.318-1.217,37.266
		C155.523,120.302,158.515,127.807,153.307,138.663z"/>
</g>
</svg>
