<?xml version="1.0" encoding="utf-8"?>
<!-- Generator: Adobe Illustrator 16.0.0, SVG Export Plug-In . SVG Version: 6.00 Build 0)  -->
<!DOCTYPE svg PUBLIC "-//W3C//DTD SVG 1.1//EN" "http://www.w3.org/Graphics/SVG/1.1/DTD/svg11.dtd">
<svg version="1.1" id="Layer_1" xmlns="http://www.w3.org/2000/svg" xmlns:xlink="http://www.w3.org/1999/xlink" x="0px" y="0px"
	 width="350px" height="350px" viewBox="0 0 350 350" enable-background="new 0 0 350 350" xml:space="preserve">
<g>
	<path fill="#FFFBDC" d="M256.582,188.111c-0.153-0.036-0.298,3.469-0.46,3.396c-0.225-0.1-0.441-0.216-0.662-0.32
		c-0.302,0.186-0.626,0.348-1.018,0.438c-10.565,2.352-21.963-0.279-32.663-0.969c-12.687-0.833-25.144-1.893-37.83-0.095
		c-0.324,0.045-0.599,0-0.874-0.045c-0.369,0.415-0.831,0.829-1.433,1.014c-24.677,8.325-56.251,5.113-82.124,0.171
		c-0.041,0.01-3.728-3.131-3.771-3.122c-2.246,0.343-8.109-0.554-10.331-0.702c51.186,46.723,132.966,40.654,176.566,3.05
		C261.713,190.688,256.69,188.431,256.582,188.111z"/>
	<path fill="#1D1D1B" d="M274.782,172.479c3.88-5.951,12.642-0.784,9.461,5.491c-1.018,1.938-2.076,3.78-3.181,5.582
		c8.533,21.358-4.108,50.422-19.886,64.586c-21.313,19.143-50.331,28.693-78.75,29.802c-58.957,2.257-118.238-31.559-114.179-94.572
		c-0.876-1.203-1.797-2.401-2.582-3.645c-1.8-2.816,0.829-5.676,3.552-5.582c5.028-11.259,23.711-15.413,34.323-17.534
		c2.676-0.55,5.442-0.919,8.166-1.383c-1.892-2.766-3.645-5.627-5.26-8.533c-5.167-9.366-9.366-19.517-15.27-28.418
		c-5.305-7.934-9.596-9.182-18.316-11.394c-4.196-1.063-4.151-6.276-1.106-8.488c15.085-10.934,29.295,11.533,34.876,22.463
		c5.305,10.38,10.24,22.562,17.208,32.527c10.842-1.338,21.729-2.172,32.663-2.541c-0.646-4.149-0.462-8.763,0.37-13.605
		c1.89-10.705,6.411-21.544,6.366-32.527c-0.092-14.484-10.011-17.066-19.469-25.139c-3.043-2.586-0.554-7.659,3.138-7.614
		c19.145,0.185,29.618,18.408,28.327,35.753c-0.969,13.146-9.459,29.387-8.675,42.948c0.786,0,1.522,0,2.307,0
		c11.625,0,23.298,0.28,34.926,1.108c2.767-5.167,7.335-9.871,11.993-13.975c6.875-6.136,16.606-13.241,19.467-22.422
		c4.149-13.61-6.23-22.742-12.272-33.676c-2.446-4.383,2.631-10.38,7.195-7.244c17.858,12.362,25.607,36.212,12.092,54.436
		c-4.938,6.646-18.732,14.948-26.851,23.9c6.735,0.689,13.425,1.568,20.065,2.721c10.614,1.892,32.158,3.78,38.15,14.484
		c0.559,1.014,0.693,2.216,0.513,3.415C274.323,173.078,274.603,172.803,274.782,172.479z M269.341,213.354
		c1.342-5.582,1.293-10.799,0.973-15.962c-46.043,47.791-148.965,42.209-194.359-4.798c9.918,49.912,53.237,77.592,106.473,74.087
		c23.851-1.567,50.287-8.213,68.37-24.773C259.285,234.203,266.619,224.747,269.341,213.354z M269.944,179.073
		c0.18-0.504,0.414-1.014,0.738-1.428c-0.464,0.185-0.973,0.274-1.572,0.185c-12.132-1.338-24.314-8.442-36.906-10.474
		c-7.563-1.243-15.223-2.122-22.927-2.811c-0.09,1.523,0,3.045,0.6,4.613c1.293,3.55-4.199,5.627-5.996,2.491
		c-1.568-2.676-2.397-5.307-2.677-7.843c-10.149-0.739-20.345-1.063-30.493-1.063c1.521,1.987,3.368,3.83,5.859,5.492
		c1.845,1.243,0.736,4.568-1.615,3.784c-6.091-2.077-10.564-5.217-13.61-9.182c-9.364,0.23-18.361,0.784-27.218,1.752
		c4.566,3.645,9.873,6.276,16.239,7.474c3.69,0.689,2.769,6.456-0.876,6.411c-11.488-0.14-20.807-4.888-28.372-12.038
		c-15.178,2.537-29.941,6.641-45.072,12.821C127.022,224.423,224.595,237.154,269.944,179.073z"/>
	<path fill="#F6F6F6" d="M270.313,197.392c0.32,5.163,0.369,10.38-0.973,15.962c-2.722,11.394-10.056,20.85-18.544,28.554
		c-18.083,16.561-44.52,23.206-68.37,24.773c-53.235,3.505-96.555-24.175-106.473-74.087
		C121.348,239.601,224.271,245.183,270.313,197.392z"/>
	<path fill="#F6F6F6" d="M269.11,177.83c-12.132-1.338-24.314-8.442-36.906-10.474c-7.563-1.243-15.223-2.122-22.927-2.811
		c-0.09,1.523,0,3.045,0.6,4.613c1.293,3.55-4.199,5.627-5.996,2.491c-1.568-2.676-2.397-5.307-2.677-7.843
		c-10.149-0.739-20.345-1.063-30.493-1.063c1.521,1.987,3.368,3.83,5.859,5.492c1.845,1.243,0.736,4.568-1.615,3.784
		c-6.091-2.077-10.564-5.217-13.61-9.182c-9.364,0.23-18.361,0.784-27.218,1.752c4.566,3.645,9.873,6.276,16.239,7.474
		c3.69,0.689,2.769,6.456-0.876,6.411c-11.488-0.14-20.807-4.888-28.372-12.038c-15.178,2.537-29.941,6.641-45.072,12.821
		c3.125,2.771,6.431,5.416,9.884,7.934c0.264-0.117,0.554-0.202,0.895-0.216c1.958-0.067,3.933,0.167,5.906,0.338
		c0.484-0.991,1.498-1.771,2.874-1.55c29.11,4.753,56.099,1.198,85.116-1.014c1.153-0.095,1.939,0.369,2.534,1.014
		c21.111-5.131,47.574-6.361,68.992-1.428c0.099,0.009,0.198,0.035,0.307,0.063c0.617,0.145,1.274,0.243,1.888,0.396
		c1.04,0.262,1.725,0.969,2.131,1.82c0.621,0.311,1.238,0.631,1.878,0.91c0.546,0.238,0.825,0.604,0.996,0.995
		c0.478,0.136,0.892,0.32,1.329,0.546c3.23-3.082,6.33-6.357,9.168-9.993c0.18-0.504,0.414-1.014,0.738-1.428
		C270.219,177.83,269.71,177.92,269.11,177.83z"/>
	<path fill="#1D1D1B" d="M254.442,184.795c3.32,0.829,3.459,6.046,0,6.83c-10.565,2.352-21.963-0.279-32.663-0.969
		c-12.687-0.833-25.144-1.893-37.83-0.095c-0.324,0.045-0.599,0-0.874-0.045c-0.369,0.415-0.831,0.829-1.433,1.014
		c-26.386,8.902-60.664,4.613-87.42-0.874c-3.23-0.648-1.8-5.401,1.383-4.893c29.11,4.753,56.099,1.198,85.116-1.014
		c1.153-0.095,1.939,0.369,2.534,1.014C205.079,180.461,232.669,179.258,254.442,184.795z"/>
</g>
</svg>
