<?xml version="1.0" encoding="utf-8"?>
<!-- Generator: Adobe Illustrator 16.0.0, SVG Export Plug-In . SVG Version: 6.00 Build 0)  -->
<!DOCTYPE svg PUBLIC "-//W3C//DTD SVG 1.1//EN" "http://www.w3.org/Graphics/SVG/1.1/DTD/svg11.dtd">
<svg version="1.1" id="Layer_1" xmlns="http://www.w3.org/2000/svg" xmlns:xlink="http://www.w3.org/1999/xlink" x="0px" y="0px"
	 width="350px" height="350px" viewBox="0 0 350 350" enable-background="new 0 0 350 350" xml:space="preserve">
<g>
	<path fill="#B2B2B2" d="M196.248,246.296c16.8-21.201,35.866-42.581,62.304-50.349
		C250.874,222.866,224.828,248.086,196.248,246.296z"/>
	<path fill="#B2B2B2" d="M267.146,195.206c29.275,23.604,14.401,71.771-25.479,72.772c-17.06,0.396-33.988-7.196-48.819-17.451
		c0.085-0.086,0.175-0.218,0.303-0.303C227.662,258.512,258.42,227.319,267.146,195.206z"/>
	<path fill="#1D1D1B" d="M266.276,184.124c28.053,15.053,35.73,47.86,14.746,73.472c-19.505,23.868-47.383,21.64-73.646,10.604
		c-61.563-25.875-91.146-94.11-123.693-150.917c-0.127,0.132-0.26,0.264-0.392,0.349c-2.006,1.879-5.236,2.054-7.2,0
		c-6.937-7.111-16.314-17.23-16.881-27.877c-1.615-0.524-2.88-2.314-1.79-4.274c3.055-5.411,7.81-8.38,13.174-11.214
		c1.355-0.699,3.012-0.614,4.103,0.524c3.882,3.971,6.979,8.769,9.817,13.523c1.875,3.229,3.75,6.459,5.411,9.817
		c0.694,1.397,1.393,2.837,2.007,4.231c0.127,0.221,0.174,0.349,0.217,0.524c2.356,1.482,2.706,5.194,0.652,7.068
		c-0.567,0.567-1.176,1.048-1.785,1.572c26.178,37.784,42.492,82.546,74.865,115.878c5.935,6.152,12.872,12.522,20.464,18.415
		c0.132-0.699,0.393-1.398,0.916-2.054c19.109-24.521,41.316-49.782,72.773-56.847C260.733,184.516,263.354,182.556,266.276,184.124
		z M241.667,267.979c39.88-1.001,54.754-49.168,25.479-72.772c-8.726,32.113-39.483,63.306-73.995,55.019
		c-0.128,0.085-0.218,0.217-0.303,0.303C207.679,260.782,224.607,268.375,241.667,267.979z M258.552,195.947
		c-26.438,7.768-45.504,29.147-62.304,50.349C224.828,248.086,250.874,222.866,258.552,195.947z"/>
</g>
</svg>
