<?xml version="1.0" encoding="utf-8"?>
<!-- Generator: Adobe Illustrator 16.0.0, SVG Export Plug-In . SVG Version: 6.00 Build 0)  -->
<!DOCTYPE svg PUBLIC "-//W3C//DTD SVG 1.1 Tiny//EN" "http://www.w3.org/Graphics/SVG/1.1/DTD/svg11-tiny.dtd">
<svg version="1.1" baseProfile="tiny" id="Layer_1" xmlns="http://www.w3.org/2000/svg" xmlns:xlink="http://www.w3.org/1999/xlink"
	 x="0px" y="0px" width="350px" height="350px" viewBox="0 0 350 350" xml:space="preserve">
<g>
	<path fill="#231F20" d="M166.907,88.372l3.599-10.183c0,0-9.6,8.092-10.781,9.819c0,0-0.857,6.297-0.819,12.82l-1.364-4.183v2.364
		l-2-5.546l-3.91,5.909l1,3.183l-1.909-1.364l-2,4.33l2.728,4.671l-3.819-1.432l-1.273,3.205l2.364,1.772h-3.092l-1.006,3.819
		l1.734,1.272h-2.182l-0.909,3.638l4.092,1l-4.819,2.182v2.364l1.182,0.454l-1.182,0.455v2.034c0,0,5.637-3.034,7.455-2.943v2.397
		c0,0,2.637,0.421-0.454,3.33c0,0-1,0.455-1.818,0c0,0-3.091,1.132-6.273,0.202c0,0-10.911-4.293-12.093-4.565
		c0,0-10.729,2.227-17.184,13.342c0,0-6.91,11.298-10.092,20.39c0,0,1.182,6.364,0.272,12.82c0,0,0.454,14.003-20.367,29.096
		c0,0-19.639-1.456-26.731-18.73c0,0-10.365,35.46,28.095,47.87c0,0,18.412-9.41,34.369,4.772c0,0-9.137,20.731-9.684,23.187
		c0,0,7.522-3.682,17.4-14.593l9.877,4.091l4.228-7.91l-0.87,8.319l13.235,2.318l2.958-23.866c0,0,2.817,0.682,2.817,22.503
		l7.046,1.772l2.364-10.684l3.417,12.775c0,0,4.493-1.728,7.766-0.864l1.272-7.319l0.729,8.911l8.091-1.592l0.638-4.5l1.182,5.455
		l7.092-3.546l-0.909-5.728l2.273,2.771l5.819-4.045l-0.91-5.638l3.275-2.364l-2.274-1.728l0.363-1.545c0,0,5.273,1.636,7.729-0.637
		l25.277,31.733l58.097,14.68l-27.639-54.505l-35.278-19.094c0,0,5.456-24.549,5.046-28.572c0,0,5.865-20.935-8.729-39.619
		c0,0-15.548-22.776-22.366-27.141c0,0-5.364-4.5-7.865,2.863c0,0-5.091,13.775,1.729,37.097c0,0-4.638-2.273-7.911-2.637
		c0,0-2.727-4.546-9.41-8.364c0,0-0.771,0-1.137,0.546c0,0,0.272-3.183-2.636-2c0,0,2.455-14.821,9.183-22.276l-7.911,2.637
		l-8.478-11.729l1.387-5.819h-0.91c0,0,10.571-13.979,27.005-21.275l-3.615-0.068l16.229-6.069l-9.955-2.863l-3.411,1.228v-1.228
		h-1.908l0.613-0.546l-2.659-0.817l-2.046,0.613l0.546-1.068l-4.364-0.773l-1.16,0.773l0.069-0.773l-5.115-0.313
		c0,0-5.454,3.313-6.75,4.473C176.568,73.575,169.113,83.599,166.907,88.372z"/>
	<path fill="#B47C3B" d="M142.268,170.021c0,0,4.455,5.273,11.001,6.274c0,0,3.819-5.456-0.636-12.73c0,0,4.728,3.001,11.184,0.91
		c0,0-10.092-17.548-22.185-17.185c0,0-8.274-0.455-13.82,2c0,0-6.637,6.638,2.273,15.185l-3.182-1.91
		c0,0,1.909,15.505,18.729,12.436C145.632,175,142.086,172.748,142.268,170.021z"/>
	<path fill="#0A0A0B" d="M131.357,149.29l-2.455,4.456c0,0,2.819,11.91,22.549,12.547
		C151.451,166.293,135.449,162.929,131.357,149.29z"/>
	<path fill="#B47C3B" d="M162.271,159.109l-0.728-3.818c0,0-5.274-4.637-11.001-6.547
		C150.542,148.744,159.088,154.382,162.271,159.109z"/>
	<path fill="#B47C3B" d="M125.435,170.657c0,0,7.559,6.91,11.286,7.365c0,0,1.092,2.455,1.91,3c0,0-0.455,3.637,4.365,6.274
		c0,0,2.636,4.091,6.455,4.999c0,0-3.182,0.637,2.454,6.092v2c0,0-6.819-3.818-6.819-9.091c0,0-8.091-0.092-12.092-12.82
		C132.994,178.477,126.514,173.202,125.435,170.657z"/>
	<path fill="#D48034" d="M166.271,190.114c0,0-11.456-4.395-11.001-10.379c0,0-3.728,6.65,11.365,12.472L166.271,190.114z"/>
	<path fill="#B47C3B" d="M151.087,184.841l-4.637,1.129c0,0,4.637,4.873,11.001,5.327c0,0-2.819,2.273-1.909,4.091
		c0,0,8.092,4.274,11.547,2.638c0,0,0.273-1.91-6.91-7.456C160.179,190.569,152.814,187.479,151.087,184.841z"/>
	<path fill="#B47C3B" d="M167.091,199.662c0,0-1.274,2.545,0.453,3.727c0,0-5.364,1.002-1.727,5.183c0,0,2.819,1.182,5.001,0v-3.818
		c0,0-3.092-0.454,0-2.363C170.818,202.39,167.547,200.57,167.091,199.662z"/>
	<path fill="#CC202C" d="M155.361,209.098l-0.499,5.565c0,0,9.136,3.455,14.864,0.817l2.455-5.728
		C172.181,209.753,163.999,212.896,155.361,209.098z"/>
	<path fill="#CC202C" d="M159.725,221.938l6.909,1.728c0,0-3.68,20.912-5.886,25.459
		C160.749,249.124,161.725,225.574,159.725,221.938z"/>
	<path fill="#CC202C" d="M143.268,250.306l6.455,0.636l3.729-27.004C153.452,223.938,146.451,247.759,143.268,250.306z"/>
	<path fill="#744B2C" d="M143.813,214.663l-2.364-1.878c0,0-19.821,18.335-23.095,34.156
		C118.355,246.941,141.722,214.663,143.813,214.663z"/>
	<path fill="#B47C3B" d="M170.362,187.522c0,0,3.069,4.569,2.797,5.729C173.159,193.252,170.635,194.205,170.362,187.522z"/>
	<path fill="#B47C3B" d="M172.181,188.613c0,0,1.933-2.771,4.865-3.772c0,0-3.547-7.546,6.546-6.455l0.856-1.705
		c0,0-10.796-5.229-14.359,8.16C170.089,184.841,170.044,185.955,172.181,188.613z"/>
	<path fill="#F7B319" d="M168.93,178.727l-2.296-1.637c0,0,3.455-4.023,12.184-3.955c0,0,2.933,1.227,1.5,1.5
		C180.318,174.635,171.113,174.361,168.93,178.727z"/>
	<path fill="#F7B319" d="M165.248,175.931c0,0,8.425-5.319,15.465-4.705c0,0-0.122-6.069-10.351-6.819c0,0-4.841,0.204-6.545,1.228
		c0,0-4.569,1.432-8.66,0.272c0,0,2.046,3.955,4.296,5.456C159.452,171.362,163.862,174.771,165.248,175.931z"/>
	<path fill="none" d="M169.339,163.52c0,0,0.068-4.978,1.022-5.183c0,0,1.638,3.205,2.251,5.183H169.339z"/>
	<path fill="#B47C3B" d="M173.673,163.52c0,0-4.062-14.048,9.441-20.799c0,0,7.638,2.729,8.456,9.002c0,0,0.409,2.455,1.637,0.613
		v-1.705c0,0,6.615,2.796,7.706,7.706c0,0-4.093-3.273-8.934-3.478c0,0-2.455-0.546-7.229,3.819l0.342,2.25
		c0,0-2.523,0.545-3.478,1.159c0,0-3.069-6.683,0.683-14.524c0,0-2.182,0.545-3.752,4.091l-2.25-1.296c0,0,4.16,7.024,4.092,14.456
		l-1.568,1.092C178.818,165.906,175.281,163.52,173.673,163.52z"/>
	<path fill="#F7B319" d="M171.113,110.603c0,0,1.432,17.389-3.682,29.391l1.364-0.341c0,0,2.182-5.592,3.136-10.706l7.571-3.648
		l-2.797,5.353l-3.603,2.593c0,0-0.488,5.693-5.126,18.07c0,0,7.773-7.843,10.366-11.388c0,0,1.774-13.844,5.251-18.071
		l-11.388,4.773c0,0,7.024-4.5,7.773-5.796C179.977,120.832,173.364,112.239,171.113,110.603z"/>
	<path fill="#D7812B" d="M170.021,110.603c0,0-7.91,2.66-12.206,9.343c0,0,4.5,4.978,9.615,7.364c0,0-4.569-0.818-14.798-8.66
		c0,0,2.796,12.274,0,18.071c0,0,2.864,7.842,9.956,13.502c0,0-1.296-13.843,1.228-16.162c0,0-4.023-2.182-5.66-3.648
		c0,0-2-3.716-1.75-7.534c0,0,3.592,4.022,11.774,6.546c0,0-1.364,7.229-2.455,9.138l1.023,1.364c0,0,2.454-5.796,3.272-12.002
		C170.021,127.924,171.113,113.331,170.021,110.603z"/>
	<path fill="#F7B319" d="M169.544,108.762h-3.615v-6.479l5.523,0.409v4.979C171.453,107.671,169.953,108.217,169.544,108.762z"/>
	<path fill="#D7812B" d="M165.18,102.283c0,0-6.818,3.069-12.547,14.457c0,0,10.092-7.979,12.547-7.979V102.283z"/>
	<path fill="#C8232B" d="M166.271,101.192c0,0,2.167-14.092,18.177-31.004h2.553l-2.092,3.183l3.455-2.728l3.093,0.09
		c0,0-10.275,9.001-12.594,15.457c0,0,10.593-12.729,15.23-14.002l2.182,0.546c0,0-2.001,1.637,1.092,0.545
		c0,0-7.184,6.092-7.819,7.456c0,0,9.092-6.273,13.365-7.183c0,0,0.908-0.182,4.909,1.182c0,0-15.273,4.546-25.274,13.184
		l8.636-4.819c0,0-13.729,8.092-19.093,18.094L174,96.737l-3.493,3.546c0,0,2.334-4.546-1.814,0c0,0,6.308-10.184,9.671-12.638
		c0,0-8.682,7.183-10.933,13.547H166.271z"/>
	<path fill="#CF202C" d="M146.723,141.562l-10.547-5.273c0,0,13.82,4.001,17.366,5.273c0,0-9.91-5.546-20.366-8.183
		c0,0-1.364-0.818-3.001,0c0,0-13.092,4.273-18.002,20.549c0,0,11.456-15.093,22.639-14.366
		C134.812,139.562,144.632,140.38,146.723,141.562z"/>
	<path fill="#CF202C" d="M158.815,150.654c0,0-10.001-9.819-23.276-6.729l0.728-1.205c0,0-18.548,2.842-24.094,28.936
		c0,0,0.455-12.909,4.364-17.729c0,0-5.728,3.272-6.365,11.638c0,0,0.181,36.096-18.73,40.279c0,0,10.183-7.092,11.819-18.003
		c0,0-11.638,19.366-27.276,21.457c0,0-5.092,0.546-7.911-1.455c0,0,6.91,1.182,11.638-0.816c0,0-18.639-3.183-23.822-15.548
		c0,0-0.636,20.001,6.456,24.82c0,0,17.002,9.002,40.914-0.454c0,0-10.547,7.728-27.186,7.546c0,0,16.912,5.729,39.46-12.364
		c0,0-3.545,6.909-19.275,12.91c0,0,29.186-1.728,28.731-36.097c0,0-4,14.821-9.365,17.458c0,0,7.092-13.275,5.819-26.277
		c0,0-2-12.762-1.636-17.246c0,0,0.182-12.097,11.729-14.519C131.539,147.257,146.178,142.744,158.815,150.654z"/>
	<path fill="#090A0A" d="M116.264,169.566c0,0,2.546,34.004-16.275,45.734c0,0,10.396-3.365,16.002-18.186
		C115.991,197.115,120.919,179.304,116.264,169.566z"/>
	<path fill="#D1232B" d="M90.533,228.21c0,0,11.274-0.181,25.368-9.001C115.9,219.209,99.902,232.223,90.533,228.21z"/>
	<path fill="#878888" d="M192.003,184.841c0,0,3.909-21.366,7.182-24.367c0,0-3.545-3.818-9.273-2.682
		c0,0-0.728,24.412-8.455,30.141c0,0,0.546,8.729-8.821,32.368c0,0,3.334,4.091,8.078,3.364c0,0,7.561-16.821,1.014-26.004
		c0,0,2.093-1.546,1.82-9.048c0,0,4.272-2.024,5.363-5.125L192.003,184.841z"/>
	<path fill="#FFFFFF" d="M197.275,175c0,0-2.456,9.113-2.545,11.386l13.547,7.365c0,0-0.273-15.547-3.273-19.457
		C205.004,174.294,199.988,177.021,197.275,175z"/>
	<path fill="#878888" d="M190.184,204.38l16.911,18.194c0,0,9.548,0.999,28.005,10.547
		C235.1,233.121,208.097,209.279,190.184,204.38z"/>
	<path fill="#878888" d="M214.823,230.575l5.547,6.272c0,0,19.547,1.365,41.642,20.731h1.91c0,0-13.729-11.821-15.821-13.503
		C248.101,244.076,233.463,234.848,214.823,230.575z"/>
	<path fill="#878888" d="M224.097,240.758l18.003,19.366l19.457-2.545C261.557,257.579,243.736,244.85,224.097,240.758z"/>
	<path fill="#878888" d="M248.647,263.943l38.003,10.729l-13.182-9.729C273.469,264.943,269.469,262.671,248.647,263.943z"/>
	<path fill="#BDBCBC" d="M279.379,267.489l11.365,8.728c0,0-15.641-26.549-17.096-28.548
		C273.648,247.669,279.105,263.308,279.379,267.489z"/>
	<path fill="#BDBCBC" d="M273.014,262.58l-7.002-5.456l-0.377-22.549C265.635,234.575,271.922,247.214,273.014,262.58z"/>
	<path fill="#BDBCBC" d="M264.738,255.987l-1.908-25.412l-73.646-44.605c0,0-3.852,3.338-4.735,3.326L264.738,255.987z"/>
	<path fill="#FBB516" d="M230.234,202.252c0,0,4.501-39.597-7.773-69.237l5.592,7.593c0,0,1.636,15.866,2.318,18.502
		c0,0,3.32,15.594,4.729,18.458C235.1,177.567,233.099,198.434,230.234,202.252z"/>
	<path fill="#D8802C" d="M227.508,204.38l-5.047-2.945c0,0,6.683-16.457-0.682-47.507c0,0-7.638-35.96-20.866-38.279
		c0,0,0.136-2.863,2.183-3.682c0,0,15.546,11.456,23.048,38.256C226.144,150.223,233.748,176.478,227.508,204.38z"/>
</g>
</svg>
