<?xml version="1.0" encoding="utf-8"?>
<!-- Generator: Adobe Illustrator 16.0.0, SVG Export Plug-In . SVG Version: 6.00 Build 0)  -->
<!DOCTYPE svg PUBLIC "-//W3C//DTD SVG 1.1//EN" "http://www.w3.org/Graphics/SVG/1.1/DTD/svg11.dtd">
<svg version="1.1" id="Layer_1" xmlns="http://www.w3.org/2000/svg" xmlns:xlink="http://www.w3.org/1999/xlink" x="0px" y="0px"
	 width="350px" height="350px" viewBox="0 0 350 350" enable-background="new 0 0 350 350" xml:space="preserve">
<path fill="#414042" d="M275.9,186.776c2.359-4.076,4.395-8.408,6.076-12.977c15.773-43.051-6.328-90.746-49.369-106.522
	c-30.396-11.146-63.088-3.376-85.25,17.289c-0.849-0.351-1.706-0.696-2.587-1.022c-31.568-11.571-66.545,4.636-78.109,36.205
	c-7.419,20.242-3.408,41.869,8.747,57.85c-1.859,3.043-3.452,6.309-4.724,9.777c-10.513,28.695,4.217,60.494,32.909,71.016
	c13.74,5.037,28.185,4.273,40.662-1.029c6.1,12.109,16.629,22.023,30.365,27.053c28.696,10.525,60.49-4.211,71.008-32.904
	c1.592-4.361,2.604-8.787,3.078-13.197c2.744,0.838,5.668,1.305,8.693,1.305c16.385,0,29.67-13.287,29.67-29.674
	C287.07,200.565,282.709,192.212,275.9,186.776z M101.127,125.606c0.684-0.326,1.666-0.725,2.84-1.094
	c1.702-0.535,3.814-0.926,6.04-1.115c0.165-2.389,0.527-4.67,1.026-6.498c0.342-1.264,0.712-2.316,1.014-3.053
	c0.306-0.744,0.539-1.168,0.539-1.168s0.233,0.424,0.527,1.168c0.306,0.736,0.672,1.789,1.018,3.053
	c0.499,1.828,0.861,4.109,1.03,6.498c2.221,0.182,4.333,0.568,6.039,1.107c1.171,0.369,2.153,0.771,2.836,1.102
	c0.692,0.326,1.079,0.58,1.079,0.58s-0.386,0.25-1.079,0.57c-0.684,0.33-1.666,0.732-2.836,1.104
	c-1.698,0.531-3.814,0.926-6.031,1.102c-0.173,2.391-0.535,4.668-1.034,6.494c-0.342,1.275-0.716,2.326-1.018,3.066
	c-0.298,0.732-0.531,1.158-0.531,1.158s-0.242-0.426-0.539-1.158c-0.31-0.74-0.672-1.791-1.014-3.066
	c-0.507-1.826-0.869-4.104-1.038-6.494c-2.213-0.189-4.325-0.578-6.027-1.109c-1.175-0.379-2.156-0.766-2.84-1.104
	c-0.688-0.313-1.083-0.563-1.083-0.563S100.439,125.932,101.127,125.606z M130.411,212.104c-1.07,0.52-2.591,1.135-4.418,1.715
	c-2.647,0.828-5.938,1.439-9.395,1.717c-0.257,3.719-0.816,7.264-1.593,10.104c-0.535,1.977-1.114,3.613-1.589,4.756
	c-0.467,1.15-0.829,1.811-0.829,1.811s-0.374-0.66-0.837-1.811c-0.475-1.143-1.054-2.779-1.585-4.756
	c-0.772-2.84-1.336-6.385-1.605-10.111c-3.448-0.285-6.743-0.896-9.383-1.727c-1.834-0.578-3.355-1.189-4.414-1.705
	c-1.079-0.498-1.682-0.893-1.682-0.893s0.604-0.391,1.682-0.891c1.058-0.502,2.579-1.125,4.414-1.701
	c2.647-0.832,5.935-1.432,9.391-1.723c0.27-3.725,0.829-7.273,1.605-10.127c0.531-1.955,1.11-3.602,1.585-4.752
	c0.459-1.15,0.829-1.803,0.829-1.803s0.362,0.652,0.821,1.803c0.475,1.15,1.05,2.797,1.585,4.752
	c0.773,2.854,1.336,6.402,1.605,10.119c3.457,0.273,6.748,0.877,9.395,1.723c1.827,0.57,3.348,1.195,4.418,1.709
	c1.07,0.5,1.674,0.891,1.674,0.891S131.481,211.606,130.411,212.104z M178.532,171.62c-0.531,0.258-1.279,0.555-2.173,0.846
	c-1.304,0.406-2.921,0.703-4.615,0.844c-0.125,1.826-0.402,3.557-0.785,4.965c-0.262,0.967-0.543,1.775-0.781,2.338
	c-0.233,0.559-0.41,0.885-0.41,0.885s-0.177-0.326-0.411-0.885c-0.233-0.563-0.515-1.371-0.772-2.338
	c-0.382-1.408-0.66-3.139-0.789-4.973c-1.698-0.141-3.315-0.439-4.611-0.846c-0.901-0.289-1.65-0.59-2.165-0.844
	c-0.535-0.242-0.833-0.436-0.833-0.436s0.298-0.188,0.833-0.434c0.515-0.254,1.264-0.559,2.165-0.842
	c1.304-0.406,2.913-0.703,4.619-0.84c0.128-1.832,0.402-3.578,0.784-4.973c0.262-0.967,0.543-1.764,0.777-2.334
	c0.225-0.564,0.402-0.895,0.402-0.895s0.177,0.33,0.41,0.895c0.237,0.57,0.511,1.367,0.781,2.334
	c0.378,1.395,0.652,3.141,0.785,4.965c1.694,0.137,3.311,0.426,4.615,0.848c0.894,0.283,1.642,0.588,2.173,0.842
	c0.515,0.246,0.82,0.434,0.82,0.434S179.047,171.37,178.532,171.62z M214.092,240.37c-0.91,0.447-2.197,0.969-3.75,1.461
	c-2.244,0.703-5.033,1.223-7.975,1.457c-0.217,3.166-0.691,6.164-1.352,8.586c-0.459,1.67-0.945,3.061-1.355,4.039
	c-0.391,0.969-0.704,1.529-0.704,1.529s-0.311-0.561-0.709-1.529c-0.402-0.979-0.889-2.369-1.344-4.039
	c-0.659-2.422-1.143-5.428-1.355-8.586c-2.934-0.25-5.729-0.766-7.975-1.469c-1.554-0.496-2.845-1.016-3.754-1.449
	c-0.901-0.422-1.421-0.752-1.421-0.752s0.52-0.334,1.421-0.762c0.909-0.43,2.2-0.957,3.754-1.443
	c2.253-0.709,5.05-1.223,7.975-1.465c0.229-3.162,0.708-6.172,1.359-8.586c0.455-1.674,0.942-3.07,1.349-4.039
	c0.39-0.975,0.7-1.529,0.7-1.529s0.306,0.555,0.704,1.529c0.402,0.969,0.889,2.365,1.34,4.039c0.659,2.414,1.139,5.424,1.359,8.578
	c2.938,0.232,5.738,0.748,7.982,1.465c1.553,0.482,2.84,1.018,3.75,1.451c0.9,0.428,1.416,0.762,1.416,0.762
	S214.992,239.948,214.092,240.37z M204.975,189.38c-0.845,0-1.678-0.033-2.519-0.072c16.085-5.174,27.733-20.254,27.733-38.055
	c0-22.072-17.9-39.971-39.973-39.971c-8.619,0-16.585,2.736-23.111,7.371c8.156-12.223,22.069-20.285,37.869-20.285
	c25.139,0,45.506,20.375,45.506,45.506S230.113,189.38,204.975,189.38z M265.199,204.831c-0.432,0.209-1.021,0.449-1.746,0.676
	c-1.039,0.33-2.334,0.563-3.703,0.672c-0.096,1.469-0.324,2.867-0.631,3.986c-0.209,0.781-0.434,1.424-0.623,1.879
	c-0.186,0.451-0.322,0.713-0.322,0.713s-0.145-0.262-0.33-0.713c-0.193-0.455-0.422-1.098-0.627-1.879
	c-0.307-1.119-0.531-2.518-0.633-3.986c-1.363-0.109-2.66-0.346-3.697-0.672c-0.725-0.234-1.324-0.471-1.746-0.676
	c-0.418-0.197-0.66-0.355-0.66-0.355s0.242-0.152,0.66-0.346c0.422-0.201,1.021-0.441,1.746-0.676
	c1.037-0.33,2.334-0.572,3.697-0.68c0.102-1.469,0.33-2.861,0.641-3.984c0.209-0.775,0.434-1.428,0.619-1.875
	c0.186-0.453,0.33-0.711,0.33-0.711s0.137,0.258,0.322,0.711c0.184,0.447,0.406,1.1,0.623,1.875
	c0.307,1.123,0.527,2.516,0.631,3.984c1.361,0.107,2.664,0.35,3.703,0.68c0.725,0.225,1.314,0.475,1.746,0.676
	c0.414,0.193,0.656,0.346,0.656,0.346S265.613,204.634,265.199,204.831z"/>
</svg>
