<?xml version="1.0" encoding="utf-8"?>
<!-- Generator: Adobe Illustrator 16.0.0, SVG Export Plug-In . SVG Version: 6.00 Build 0)  -->
<!DOCTYPE svg PUBLIC "-//W3C//DTD SVG 1.1//EN" "http://www.w3.org/Graphics/SVG/1.1/DTD/svg11.dtd">
<svg version="1.1" id="Layer_1" xmlns="http://www.w3.org/2000/svg" xmlns:xlink="http://www.w3.org/1999/xlink" x="0px" y="0px"
	 width="350px" height="350px" viewBox="0 0 350 350" enable-background="new 0 0 350 350" xml:space="preserve">
<path fill="#D29B6E" d="M102.818,156.492v21.369c0,3.25-2.12,6.121-5.226,7.076l-32.444,9.983
	c-6.212,1.911-10.452,7.651-10.452,14.15v53.845c0,10.222,8.287,18.508,18.508,18.508h9.254h97.168V156.492H102.818z"/>
<path fill="#59D8FF" d="M128.729,212.017c-17.915,0-33.709-9.403-42.787-23.495l-20.794,6.398
	c-6.212,1.911-10.452,7.651-10.452,14.15v53.845c0,10.222,8.287,18.508,18.508,18.508h9.254h97.168V161.119
	C179.628,189.112,156.723,212.017,128.729,212.017z"/>
<g>
	<path fill="#00C3F0" d="M179.628,161.119c0,27.994-22.905,50.898-50.898,50.898c-17.915,0-33.709-9.403-42.787-23.496l-9.164,2.82
		c10.427,17.88,29.76,29.929,51.951,29.929c21.464,0,40.252-11.278,50.898-28.196V161.119z"/>
	<path fill="#00C3F0" d="M133.356,258.288H87.085c-2.555,0-4.627-2.072-4.627-4.628v-22.013c0-3.681-1.463-7.212-4.065-9.815
		l-21.091-21.091c-1.64,2.401-2.605,5.272-2.605,8.329v53.845c0,10.222,8.287,18.508,18.508,18.508h9.254h64.779v-9.254
		C147.237,264.502,141.023,258.288,133.356,258.288z"/>
</g>
<path fill="#F0C087" d="M168.06,124.103h-0.687l-1.627-32.39H92.291v32.39h-2.892c-3.833,0-6.94,3.107-6.94,6.94v9.254
	c0,3.833,3.107,6.94,6.94,6.94h4.387l0.751,4.698c0.566,3.534,2.393,6.744,5.142,9.035l14.857,12.381
	c1.996,1.663,4.512,2.574,7.109,2.574h14.168c2.598,0,5.113-0.912,7.11-2.574l14.856-12.381c2.75-2.291,4.576-5.501,5.142-9.035
	l0.752-4.698h4.386c3.833,0,6.94-3.108,6.94-6.94v-9.254C175,127.209,171.892,124.103,168.06,124.103z"/>
<path fill="#E6AF78" d="M165.746,91.712h-46.271H92.291v32.389h-2.892c-3.833,0-6.94,3.108-6.94,6.941v9.254
	c0,3.833,3.107,6.94,6.94,6.94h4.387l0.751,4.698c0.566,3.534,2.393,6.744,5.142,9.035l14.857,12.381
	c1.996,1.663,4.512,2.573,7.109,2.573h5.85l-6.596-19.787c-0.944-2.831-1.425-5.795-1.425-8.779v-27.884
	c0-2.555,2.072-4.627,4.627-4.627l0,0c0,0,4.627,0,6.478-2.224c2.82,1.442,5.98,2.224,9.254,2.224c3.274,0,6.434-0.782,9.254-2.224
	c2.82,1.442,5.98,2.224,9.254,2.224c0.465,0,0.919-0.032,1.37-0.083l7.192,0.009L165.746,91.712z"/>
<path fill="#694B4B" d="M184.254,90.787c0-5.126-3.493-9.399-8.216-10.677c0.514-1.278,0.813-2.667,0.813-4.129
	c0-6.134-4.972-11.105-11.105-11.105c-0.226,0-0.437,0.053-0.66,0.066c-1.511-4.338-5.593-7.47-10.445-7.47
	c-1.192,0-2.322,0.222-3.392,0.583c-2.37-2.613-5.759-4.284-9.564-4.284c-0.982,0-1.929,0.13-2.848,0.336
	c-2.649-2.487-6.188-4.038-10.108-4.038c-3.92,0-7.459,1.551-10.108,4.038c-0.918-0.207-1.866-0.336-2.847-0.336
	c-3.532,0-6.727,1.422-9.064,3.715c-0.064-0.001-0.125-0.013-0.189-0.013c-4.853,0-8.935,3.132-10.446,7.47
	c-0.223-0.013-0.434-0.066-0.659-0.066c-6.133,0-11.104,4.971-11.104,11.105c0,1.462,0.299,2.851,0.812,4.129
	c-4.723,1.278-8.216,5.551-8.216,10.677c0,2.857,1.109,5.435,2.882,7.403c-1.772,1.968-2.882,4.546-2.882,7.403
	c0,4.11,2.26,7.649,5.583,9.56c0.165,4.966,4.217,8.949,9.224,8.949h4.045c1.809,0,3.353-1.309,3.651-3.093l2.583-15.499
	c0.278,0.021,0.542,0.083,0.826,0.083c3.868,0,7.266-1.981,9.254-4.98c1.989,2.999,5.387,4.98,9.254,4.98
	c3.868,0,7.266-1.981,9.254-4.98c1.989,2.999,5.386,4.98,9.254,4.98c3.868,0,7.266-1.981,9.254-4.98
	c1.989,2.999,5.387,4.98,9.254,4.98c0.282,0,0.548-0.063,0.825-0.083l2.583,15.499c0.298,1.785,1.842,3.093,3.651,3.093h4.97
	c5.111,0,9.255-4.144,9.255-9.254c0-0.096-0.025-0.185-0.028-0.281c2.809-2.003,4.655-5.257,4.655-8.974
	c0-2.857-1.109-5.436-2.883-7.403C183.146,96.222,184.254,93.645,184.254,90.787z"/>
<path fill="#5A4146" d="M126.02,97.531c-4.338-1.511-7.47-5.593-7.47-10.446c0-2.857,1.109-5.436,2.882-7.403
	c-1.772-1.968-2.882-4.546-2.882-7.403c0-5.127,3.494-9.399,8.217-10.677c-0.514-1.278-0.813-2.667-0.813-4.13
	c0-2.853,1.106-5.427,2.874-7.393c-0.034,0-0.064-0.01-0.098-0.01c-3.92,0-7.459,1.551-10.108,4.038
	c-0.918-0.207-1.866-0.336-2.847-0.336c-3.533,0-6.728,1.422-9.065,3.715c-0.063-0.001-0.125-0.013-0.189-0.013
	c-4.853,0-8.934,3.132-10.446,7.47c-0.223-0.013-0.434-0.066-0.659-0.066c-6.133,0-11.104,4.971-11.104,11.105
	c0,1.462,0.3,2.851,0.813,4.129c-4.724,1.278-8.217,5.551-8.217,10.677c0,2.857,1.109,5.435,2.882,7.403
	c-1.773,1.968-2.882,4.546-2.882,7.403c0,4.11,2.26,7.649,5.583,9.56c0.165,4.966,4.217,8.949,9.224,8.949h4.045
	c1.81,0,3.354-1.309,3.652-3.093l2.583-15.499c0.278,0.021,0.542,0.083,0.825,0.083c3.868,0,7.266-1.981,9.254-4.98
	c1.988,2.999,5.386,4.98,9.254,4.98c2.554,0,4.857-0.923,6.732-2.375c-1.269-1.32-2.105-3.05-2.105-5.029
	C125.953,97.964,126,97.752,126.02,97.531z"/>
<path fill="#E6AF78" d="M119.476,258.288h13.881c7.667,0,13.881,6.215,13.881,13.881v9.254h-27.762V258.288z"/>
<path fill="#D5DCED" d="M295.304,249.032H156.492c-7.667,0-13.881-6.214-13.881-13.881v-83.287c0-7.667,6.215-13.881,13.881-13.881
	h138.813c7.666,0,13.882,6.215,13.882,13.881v83.288C309.186,242.819,302.971,249.032,295.304,249.032z"/>
<path fill="#AFB9D2" d="M253.66,281.423l-8.184-61.375c-0.613-4.598-4.534-8.031-9.174-8.031h-20.812
	c-4.639,0-8.56,3.434-9.173,8.031l-8.184,61.375v9.254h55.525V281.423L253.66,281.423z"/>
<circle fill="#FFFFFF" cx="225.897" cy="184.254" r="9.254"/>
<path fill="#F5DCB4" d="M304.558,299.932H45.442c-2.555,0-4.627-2.072-4.627-4.628v-9.253c0-2.556,2.072-4.628,4.627-4.628h259.117
	c2.556,0,4.628,2.072,4.628,4.628v9.253C309.186,297.859,307.113,299.932,304.558,299.932z"/>
</svg>
