<?xml version="1.0" encoding="utf-8"?>
<!-- Generator: Adobe Illustrator 16.0.0, SVG Export Plug-In . SVG Version: 6.00 Build 0)  -->
<!DOCTYPE svg PUBLIC "-//W3C//DTD SVG 1.1//EN" "http://www.w3.org/Graphics/SVG/1.1/DTD/svg11.dtd">
<svg version="1.1" id="Layer_1" xmlns="http://www.w3.org/2000/svg" xmlns:xlink="http://www.w3.org/1999/xlink" x="0px" y="0px"
	 width="350px" height="350px" viewBox="0 0 350 350" enable-background="new 0 0 350 350" xml:space="preserve">
<g>
	<g>
		<polygon fill="#FFC400" points="294.347,175 258.396,194.051 282.543,226.804 241.873,228.315 249.42,268.307 212.104,252.079 
			201.549,291.378 175,260.521 148.451,291.378 137.894,252.079 100.578,268.306 108.125,228.314 67.455,226.802 91.604,194.051 
			55.653,175 91.604,155.949 67.456,123.198 108.125,121.685 100.579,81.694 137.895,97.92 148.451,58.621 175,89.478 
			201.549,58.622 212.104,97.92 249.421,81.694 241.875,121.686 282.545,123.199 258.396,155.949 		"/>
	</g>
	<circle fill="#FFC400" stroke="#FFFFFF" stroke-width="6.0025" stroke-miterlimit="10" cx="175" cy="175" r="66.512"/>
</g>
</svg>
