<?xml version="1.0" encoding="utf-8"?>
<!-- Generator: Adobe Illustrator 16.0.0, SVG Export Plug-In . SVG Version: 6.00 Build 0)  -->
<!DOCTYPE svg PUBLIC "-//W3C//DTD SVG 1.1//EN" "http://www.w3.org/Graphics/SVG/1.1/DTD/svg11.dtd">
<svg version="1.1" id="Layer_1" xmlns="http://www.w3.org/2000/svg" xmlns:xlink="http://www.w3.org/1999/xlink" x="0px" y="0px"
	 width="350px" height="350px" viewBox="0 0 350 350" enable-background="new 0 0 350 350" xml:space="preserve">
<g>
	<g>
		<path fill="#FFC400" d="M316.438,175c-70.188,9.838-72.182,19.21-11.114,55.055c-68.277-18.797-73.495-11.12-30.313,44.958
			c-56.076-43.185-63.753-37.967-44.957,30.311C194.21,244.258,184.838,246.25,175,316.438
			c-9.838-70.188-19.209-72.18-55.053-11.114c18.795-68.277,11.118-73.495-44.957-30.311c43.182-56.078,37.965-63.755-30.312-44.958
			C105.744,194.21,103.75,184.838,33.563,175c70.187-9.838,72.181-19.209,11.115-55.053c68.276,18.795,73.493,11.119,30.312-44.958
			c56.075,43.182,63.752,37.965,44.957-30.311c35.844,61.065,45.215,59.071,55.053-11.115c9.838,70.187,19.21,72.18,55.054,11.115
			c-18.796,68.276-11.119,73.493,44.957,30.311c-43.183,56.077-37.965,63.753,30.313,44.958
			C244.256,155.791,246.25,165.162,316.438,175z"/>
	</g>
	<circle fill="#FFC400" stroke="#FFFFFF" stroke-width="6.054" stroke-miterlimit="10" cx="175" cy="175" r="78.399"/>
</g>
</svg>
