<?xml version="1.0" encoding="utf-8"?>
<!-- Generator: Adobe Illustrator 16.0.0, SVG Export Plug-In . SVG Version: 6.00 Build 0)  -->
<!DOCTYPE svg PUBLIC "-//W3C//DTD SVG 1.1//EN" "http://www.w3.org/Graphics/SVG/1.1/DTD/svg11.dtd">
<svg version="1.1" id="Layer_1" xmlns="http://www.w3.org/2000/svg" xmlns:xlink="http://www.w3.org/1999/xlink" x="0px" y="0px"
	 width="350px" height="350px" viewBox="0 0 350 350" enable-background="new 0 0 350 350" xml:space="preserve">
<g>
	<path fill="none" d="M184.169,313.325c-3.924-2.504-6.513-6.334-7.239-10.643l-0.114-0.281l-0.322-0.741l-0.185-0.405l-0.449-0.961
		l-0.457-0.94c-0.679-1.375-1.457-2.856-2.286-4.376c-0.072,0.188-0.145,0.362-0.217,0.554c-0.484,1.286-0.962,2.663-1.421,4.095
		l-0.435,1.388c0,0-0.368,1.234-0.368,1.235c0,0-0.117,0.401-0.194,0.667l-0.343,1.235c-0.374,1.373-0.729,2.779-1.056,4.181
		l-0.003-0.001c-0.051,0.239-0.115,0.516-0.192,0.853l-0.381,1.758l-0.125,0.593c-0.682,3.175-2.671,7.365-8.182,10.162
		c2.863,0.243,5.794,0.632,8.777,1.176c4.396-1.518,11.491-3.371,19.935-3.371c0.98,0,1.953,0.032,2.922,0.083
		c-0.485-0.251-0.952-0.514-1.404-0.797c-0.013-0.009-0.091-0.058-0.117-0.074c-1.948-1.243-3.564-2.813-4.79-4.606
		c-0.425-0.224-0.838-0.457-1.237-0.707C184.272,313.391,184.194,313.342,184.169,313.325z"/>
	<path fill="#CCCCCC" d="M132.183,324.804c6.093-2.127,13.135-3.406,21.273-3.406c2.196,0,4.449,0.104,6.745,0.299
		c5.51-2.797,7.5-6.987,8.182-10.162l0.125-0.593l0.381-1.758c0.077-0.337,0.141-0.613,0.192-0.853l0.003,0.001
		c0.327-1.401,0.682-2.808,1.056-4.181l0.343-1.235c0.077-0.266,0.194-0.667,0.194-0.667c0-0.001,0.368-1.235,0.368-1.235
		l0.435-1.388c0.459-1.432,0.937-2.809,1.421-4.095c0.072-0.191,0.145-0.366,0.217-0.554c-0.585-1.072-1.193-2.16-1.827-3.254
		c-0.004-0.007-0.436-0.747-0.436-0.747l-0.819-1.378l-0.405-0.669c-0.504-0.827-0.984-1.596-1.44-2.311
		c-0.135,0.305-0.262,0.601-0.387,0.896c-0.115,0.272-0.227,0.538-0.334,0.806c-0.238,0.582-0.476,1.191-0.713,1.822
		c-0.483,1.286-0.962,2.663-1.421,4.094l-0.434,1.389c0,0-0.368,1.234-0.368,1.234c0,0-0.117,0.402-0.194,0.668l-0.342,1.235
		c-0.374,1.373-0.729,2.779-1.056,4.181l-0.003-0.001c-0.051,0.239-0.114,0.515-0.192,0.853l-0.381,1.757l-0.125,0.594
		c-0.74,3.441-3.005,8.082-9.642,10.841c-0.169,0.07-0.343,0.14-0.521,0.21c-1.598,0.621-3.498,1.184-5.673,1.682
		c-0.335,0.076-0.678,0.151-1.026,0.226c-0.816,0.174-1.681,0.341-2.56,0.494c-0.513,0.09-1.031,0.175-1.547,0.255
		c-0.854,0.131-1.715,0.249-2.553,0.349c-2.141,0.256-4.063,0.387-5.709,0.387c-0.504,0-0.987-0.013-1.435-0.035
		c-1.329-0.069-2.521-0.24-3.649-0.523c-0.392-0.1-0.72-0.195-1.024-0.295c-0.545-0.179-1.067-0.396-1.577-0.631
		C126.886,321.622,129.265,323.641,132.183,324.804"/>
	<path fill="#CCCCCC" d="M216.421,46.969c-1.993-2.2-4.166-4.103-6.489-5.755c1.104,1.19,2.163,2.457,3.159,3.828
		C214.066,45.563,215.195,46.209,216.421,46.969z"/>
	<path fill="#CCCCCC" d="M291.511,180.1c7.512-16.297-2.633-33.515-7.561-40.411c-0.472-2.745-1.001-5.25-1.575-7.471
		c-1.524-5.88-3.894-12.363-9.926-15.87c-0.239-0.138-0.505-0.284-0.785-0.43c-0.003-0.002-0.013-0.007-0.019-0.01
		c2.33,3.286,3.625,7.222,4.585,10.922c0.574,2.22,1.103,4.726,1.575,7.471c4.927,6.896,15.072,24.113,7.561,40.41
		c-3.501,7.594-11.439,13.18-25.739,18.111c-4.538,1.564-9.754,3.066-15.57,4.483c0.562,6.246,0.744,13.135,0.543,20.572
		c-0.347,12.817,13.899,27.01,19.417,31.397c3.377,2.649,5.308,6.816,5.141,11.131c-0.167,4.319-2.411,8.326-6.003,10.718
		c-9.967,6.646-23.231,10.308-37.349,10.308c-2.452,0-4.876-0.109-7.255-0.327c-0.185,0.866-0.378,1.737-0.576,2.604
		c-0.151,0.663-0.306,1.322-0.461,1.972l-0.45,1.846l-0.367,1.458l-0.493,1.893c-0.194,0.726-0.38,1.413-0.562,2.075l-0.295,1.056
		c0.728,0.908,1.325,1.829,1.82,2.798c0.794,1.554,1.3,3.203,1.499,4.899c0.871,7.384-4.044,13.988-11.431,15.363
		c-0.265,0.05-0.586,0.102-0.93,0.146c-0.03,0.005-0.541,0.065-0.737,0.085c0,0-0.771,0.063-0.831,0.067l-0.729,0.039
		c-0.232,0.01-0.432,0.016-0.639,0.021c0,0-0.956,0.013-0.971,0.013l-0.944-0.008c-0.212-0.004-0.981-0.026-1.015-0.028
		c0,0-0.665-0.028-0.703-0.031c0,0-0.932-0.053-0.974-0.057l-0.299-0.021c-0.454-0.033-0.873-0.068-1.296-0.109
		c0,0-0.62-0.064-0.651-0.068l-0.708-0.084l-0.652-0.086c-1.043-0.146-1.981-0.31-2.864-0.495l-0.137-0.029
		c-0.259-0.058-0.479-0.105-0.697-0.158c0,0-0.058-0.014-0.086-0.021v0.001c-1.107-0.267-2.161-0.581-3.131-0.934l-0.147-0.056
		c-0.302-0.112-0.536-0.206-0.766-0.3c-0.034-0.015-0.24-0.102-0.24-0.102c-0.549-0.234-1.064-0.483-1.564-0.747
		c1.226,1.793,2.842,3.363,4.79,4.606c0.026,0.017,0.104,0.065,0.117,0.074c0.452,0.283,0.919,0.546,1.404,0.797
		c5.502,0.283,10.807,1.378,15.829,3.236l0.879,0.008c0.016,0,0.972-0.014,0.972-0.014c0.206-0.004,0.406-0.01,0.639-0.021
		l0.729-0.039c0.06-0.004,0.83-0.067,0.83-0.067c0.196-0.02,0.707-0.08,0.737-0.085c0.345-0.045,0.666-0.097,0.93-0.146
		c7.387-1.374,12.302-7.979,11.432-15.363c-0.201-1.696-0.705-3.346-1.5-4.899c-0.494-0.968-1.092-1.889-1.82-2.798l0.295-1.056
		c0.182-0.662,0.368-1.349,0.562-2.075l0.493-1.893l0.367-1.458l0.451-1.846c0.154-0.649,0.31-1.309,0.461-1.971
		c0.197-0.867,0.391-1.739,0.575-2.605c2.38,0.218,4.803,0.327,7.255,0.327c14.117,0,27.382-3.661,37.349-10.307
		c3.592-2.393,5.836-6.399,6.004-10.718c0.166-4.314-1.764-8.481-5.142-11.132c-5.518-4.387-19.764-18.579-19.417-31.397
		c0.201-7.438,0.019-14.326-0.542-20.572c5.815-1.417,11.032-2.919,15.569-4.483C280.071,193.278,288.011,187.693,291.511,180.1"/>
	<path fill="#CCCCCC" d="M119.833,294.157c-0.477-1.172-0.946-2.393-1.407-3.661c-10.307-0.942-20.207-4.452-27.462-7.685
		c-0.023-0.001-0.118-0.003-0.143-0.004c-2.756-0.073-5.542-0.426-8.281-1.049c-0.021-0.005-0.042-0.01-0.063-0.015
		c-4.32-0.99-8.293-2.598-11.81-4.776c-0.022-0.015-0.042-0.029-0.065-0.043c1.664,2.072,3.726,3.892,6.21,5.431
		c3.516,2.179,7.489,3.787,11.809,4.777c0.021,0.004,0.042,0.01,0.063,0.014c2.739,0.624,5.525,0.977,8.281,1.049
		c0.024,0.001,0.119,0.003,0.143,0.004c6.253,2.786,14.472,5.774,23.222,7.151c-0.065-0.154-0.114-0.268-0.114-0.268
		C120.1,294.805,119.965,294.482,119.833,294.157z"/>
	<path fill="#CCCCCC" d="M236.809,82.496c1.958,6.152,3.388,13.227,4.265,21.108c0.028,0.26,0.056,0.519,0.081,0.779
		c1.815,0.133,3.693,0.371,5.563,0.675c-0.883-6.314-2.14-12.066-3.765-17.174c3.018-4.35,3.266-10.228,0.393-14.849
		c-4.682-7.531-10.319-13.021-15.32-16.881c3.174,3.153,6.351,6.948,9.176,11.494C240.073,72.268,239.826,78.146,236.809,82.496z"/>
	<path fill="#F1F1F1" d="M127.922,320.03c1.128,0.283,2.32,0.454,3.649,0.523c0.447,0.022,0.93,0.035,1.435,0.035
		c1.646,0,3.568-0.131,5.709-0.387c0.838-0.1,1.699-0.218,2.553-0.349c0.516-0.08,1.034-0.165,1.547-0.255
		c0.879-0.153,1.744-0.32,2.56-0.494c0.348-0.074,0.691-0.149,1.026-0.226c2.175-0.498,4.076-1.061,5.673-1.682
		c0.179-0.07,0.353-0.14,0.521-0.21c6.636-2.759,8.902-7.399,9.642-10.841l0.125-0.594l0.381-1.757
		c0.078-0.338,0.141-0.613,0.192-0.853l0.003,0.001c0.327-1.401,0.682-2.808,1.056-4.181l0.342-1.235
		c0.078-0.266,0.194-0.668,0.194-0.668c0,0,0.368-1.234,0.368-1.234l0.434-1.389c0.459-1.431,0.938-2.808,1.421-4.094
		c0.238-0.631,0.476-1.24,0.713-1.822c0.108-0.268,0.22-0.533,0.334-0.806c0.125-0.296,0.252-0.592,0.387-0.896
		c0.456,0.715,0.936,1.483,1.44,2.311l0.405,0.669l0.819,1.378c0,0,0.432,0.74,0.436,0.747c0.634,1.094,1.242,2.182,1.827,3.254
		c0.83,1.52,1.607,3.001,2.286,4.376l0.457,0.94l0.449,0.961l0.185,0.405l0.322,0.741l0.114,0.281
		c0.727,4.309,3.315,8.139,7.239,10.643c0.025,0.017,0.104,0.065,0.117,0.074c0.399,0.25,0.813,0.483,1.237,0.707
		c0.5,0.264,1.016,0.513,1.564,0.747c0,0,0.206,0.087,0.24,0.102c0.229,0.094,0.464,0.188,0.766,0.3l0.147,0.056
		c0.97,0.353,2.023,0.667,3.131,0.934v-0.001c0.028,0.007,0.086,0.021,0.086,0.021c0.219,0.053,0.438,0.101,0.697,0.158l0.137,0.029
		c0.883,0.186,1.821,0.35,2.864,0.495l0.652,0.086l0.708,0.084c0.031,0.004,0.651,0.068,0.651,0.068
		c0.423,0.041,0.842,0.076,1.296,0.109l0.299,0.021c0.042,0.004,0.974,0.057,0.974,0.057c0.038,0.003,0.703,0.031,0.703,0.031
		c0.033,0.002,0.803,0.024,1.015,0.028l0.944,0.008c0.015,0,0.971-0.013,0.971-0.013c0.207-0.005,0.406-0.011,0.639-0.021
		l0.729-0.039c0.06-0.004,0.831-0.067,0.831-0.067c0.196-0.02,0.707-0.08,0.737-0.085c0.344-0.045,0.665-0.097,0.93-0.146
		c7.387-1.375,12.302-7.979,11.431-15.363c-0.199-1.696-0.705-3.346-1.499-4.899c-0.495-0.969-1.093-1.89-1.82-2.798l0.295-1.056
		c0.182-0.662,0.367-1.35,0.562-2.075l0.493-1.893l0.367-1.458l0.45-1.846c0.155-0.649,0.31-1.309,0.461-1.972
		c0.198-0.867,0.392-1.738,0.576-2.604c2.379,0.218,4.803,0.327,7.255,0.327c14.117,0,27.382-3.661,37.349-10.308
		c3.592-2.392,5.836-6.398,6.003-10.718c0.167-4.314-1.764-8.481-5.141-11.131c-5.518-4.388-19.764-18.58-19.417-31.397
		c0.201-7.438,0.019-14.326-0.543-20.572c5.816-1.417,11.032-2.919,15.57-4.483c14.3-4.932,22.238-10.518,25.739-18.111
		c7.512-16.296-2.634-33.514-7.561-40.41c-0.473-2.745-1.001-5.25-1.575-7.471c-0.96-3.7-2.255-7.637-4.585-10.922
		c-1.374-1.936-3.104-3.647-5.342-4.947c-0.238-0.139-0.505-0.284-0.784-0.431c-0.03-0.017-0.217-0.112-0.217-0.112
		c-0.206-0.104-0.421-0.21-0.681-0.334l-0.104-0.047c-0.177-0.083-0.56-0.253-0.562-0.253c-0.039-0.018-0.631-0.27-0.813-0.345
		l-0.806-0.318c-0.241-0.093-0.491-0.187-0.752-0.28c-0.023-0.008-0.786-0.279-0.786-0.279c-0.236-0.082-0.81-0.273-0.853-0.287
		c-3.495-1.153-8.334-2.42-13.229-3.216c-1.87-0.304-3.748-0.542-5.563-0.675c-0.025-0.26-0.053-0.52-0.081-0.779
		c-0.877-7.882-2.307-14.957-4.265-21.108c3.018-4.349,3.265-10.228,0.393-14.848c-2.825-4.545-6.002-8.341-9.176-11.494
		c-4.136-4.109-8.26-7.109-11.604-9.185c-1.226-0.76-2.354-1.406-3.33-1.927c-0.996-1.372-2.055-2.638-3.159-3.828
		c-13.632-14.676-35.328-16.018-58.27-16.018c-32.437,0-55.24,24.44-56.192,25.478c-3.201,3.485-4.245,8.287-3.09,12.63
		c-6.753,11.257-10.854,25.723-12.502,44.034c-1.483,16.489,0.656,30.464,6.36,41.537c1.36,2.639,2.833,4.925,4.316,6.891
		c-7.908,5.073-17.034,12.535-22.24,22.216c-9.12,16.959-17.251,53.483-9.236,72.113c0.181,0.421,0.381,0.829,0.601,1.227
		c-1.347,11.632,2.326,20.239,10.925,25.603c0.022,0.014,0.042,0.028,0.065,0.043c3.516,2.179,7.489,3.786,11.81,4.776
		c0.021,0.005,0.042,0.01,0.063,0.015c2.739,0.623,5.525,0.976,8.281,1.049c0.024,0.001,0.119,0.003,0.143,0.004
		c7.255,3.232,17.155,6.742,27.462,7.685c0.46,1.269,0.93,2.489,1.407,3.661c0.132,0.325,0.267,0.647,0.384,0.926
		c0,0,0.048,0.113,0.114,0.268c0.101,0.236,0.245,0.571,0.322,0.748c0,0,0.18,0.409,0.236,0.534c-0.387,0.46-0.739,0.922-1.07,1.402
		c-0.828,1.204-1.477,2.488-1.934,3.829c-0.005,0.016-0.032,0.096-0.037,0.112c-0.181,0.544-0.325,1.077-0.434,1.605
		c-0.199,0.942-0.301,1.912-0.305,2.914c0,5.438,3.233,10.31,8.213,12.608c0.51,0.235,1.032,0.452,1.577,0.631
		C127.202,319.835,127.53,319.931,127.922,320.03z M124.855,306.496c0.001-0.451,0.048-0.888,0.139-1.319
		c0.052-0.252,0.119-0.501,0.205-0.758c0.007-0.021,0.014-0.044,0.021-0.065c0.226-0.661,0.556-1.31,0.982-1.93
		c0.233-0.338,0.493-0.668,0.793-1.014c0.234-0.268,0.492-0.54,0.783-0.827c0.128-0.126,0.257-0.251,0.392-0.376
		c0.257-0.241,0.525-0.48,0.806-0.722c0.376-0.324,0.789-0.663,1.226-1.007c0.064-0.051,0.129-0.103,0.195-0.153l-0.138-0.245
		c-0.101-0.179-0.205-0.365-0.308-0.555l-0.135-0.252c-0.104-0.193-0.207-0.388-0.309-0.585l-0.121-0.234
		c-0.109-0.213-0.216-0.424-0.322-0.639l-0.104-0.209c-0.107-0.218-0.215-0.441-0.323-0.667l-0.085-0.182
		c-0.114-0.24-0.224-0.478-0.333-0.718l-0.08-0.176c-0.105-0.23-0.217-0.482-0.33-0.738l-0.063-0.143
		c-0.11-0.25-0.227-0.522-0.343-0.798l-0.042-0.098c-0.113-0.268-0.233-0.56-0.354-0.853c-0.009-0.022-0.018-0.044-0.023-0.058
		c-0.995-2.443-1.974-5.187-2.92-8.188c-0.143,0.002-0.286,0.003-0.429,0.003c-11.338,0-22.887-4.17-30.991-7.928
		c-0.254,0.006-0.512,0.009-0.77,0.009c-0.256,0-0.517-0.003-0.78-0.009c-0.015-0.001-0.03-0.001-0.045-0.002
		c-2.266-0.058-4.561-0.349-6.823-0.866c-0.006-0.001-0.018-0.004-0.018-0.004c-3.487-0.8-6.67-2.082-9.459-3.812
		c-9.25-5.731-7.769-15.669-7.212-19.409c0.044-0.296,0.103-0.688,0.124-0.881c-0.013-0.252-0.071-0.685-0.157-1.169
		c-0.554-0.529-1.002-1.169-1.311-1.887c-6.76-15.713,0.649-49.962,8.942-65.384c6.516-12.117,20.884-20.552,27.911-24.118
		c-2.927-2.239-6.752-6.054-9.923-12.208c-5.02-9.745-6.881-22.292-5.531-37.293c1.718-19.097,6.181-33.538,13.641-44.148
		c0.017-0.023,0.033-0.046,0.049-0.069c-0.096-0.099-0.19-0.203-0.28-0.311c-1.856-2.215-1.782-5.462,0.172-7.59
		c0.861-0.938,21.426-22.972,50.487-22.972c24.25,0,45.262,1.395,56.164,18.113c4.33,2.083,15.032,8.192,22.796,20.681
		c1.436,2.311,1.059,5.312-0.906,7.195c-0.581,0.557-1.254,0.971-1.972,1.238c2.682,6.61,4.568,14.74,5.629,24.29
		c0.303,2.719,0.438,5.363,0.435,7.931c1.485-0.318,2.957-0.383,4.189-0.383c5.916,0,14.085,1.825,19.563,3.636
		c0.019,0.006,0.042,0.014,0.052,0.018c0.218,0.072,0.43,0.143,0.635,0.215c0.028,0.009,0.451,0.158,0.638,0.225
		c0.011,0.004,0.047,0.018,0.058,0.021c0.216,0.078,0.413,0.152,0.604,0.225l0.095,0.037c0.145,0.055,0.313,0.122,0.475,0.187
		l0.073,0.03c0.176,0.071,0.343,0.142,0.504,0.21c0.013,0.006,0.025,0.011,0.039,0.017l-2.242,5.303l0,0l2.297-5.279
		c0.008,0.003,0.03,0.013,0.039,0.017c0.149,0.066,0.294,0.131,0.431,0.195c0.024,0.011,0.048,0.021,0.072,0.033
		c0.166,0.078,0.32,0.155,0.468,0.229c0,0,0.127,0.065,0.131,0.067c0.178,0.093,0.347,0.185,0.498,0.273
		c2.828,1.643,4.714,4.965,6.306,11.107c0.762,2.939,1.335,6.082,1.731,8.629c3.035,3.942,14.323,20.062,7.868,34.065
		c-2.509,5.443-9.254,9.901-21.228,14.03c-7.042,2.428-14.952,4.387-21.557,5.811c1.139,7.556,1.579,16.39,1.31,26.358
		c-0.527,19.501,22.13,37.508,22.358,37.687c1.453,1.141,2.273,2.909,2.202,4.754s-1.021,3.546-2.557,4.57
		c-8.711,5.809-20.451,9.007-33.054,9.007c0,0,0,0-0.001,0c-4.677-0.001-9.239-0.443-13.485-1.298
		c-0.065,0.399-0.134,0.802-0.203,1.207c-0.18,1.045-0.38,2.126-0.592,3.21c-0.139,0.704-0.281,1.404-0.427,2.1
		c-0.213,1.018-0.44,2.052-0.675,3.081c-0.146,0.64-0.295,1.273-0.444,1.897l-0.44,1.806l-0.354,1.402l-0.284,1.095l-0.188,0.716
		c-0.184,0.69-0.363,1.355-0.54,1.997l-0.444,1.589l-0.535,1.862c-0.166,0.567-0.325,1.102-0.475,1.599
		c-0.004,0.015-0.088,0.292-0.088,0.292c0.241,0.201,0.48,0.405,0.714,0.611c0.119,0.104,0.242,0.216,0.362,0.326
		c1.235,1.135,2.03,2.111,2.563,3.153c0.375,0.735,0.613,1.504,0.704,2.283c0.387,3.279-1.829,6.22-5.154,6.839
		c-0.154,0.029-0.335,0.058-0.529,0.083l-0.157,0.021c-0.09,0.01-0.199,0.022-0.315,0.033l-0.169,0.017
		c-0.111,0.01-0.215,0.018-0.323,0.025l-0.457-5.739l0,0l0.409,5.742c0,0-0.354,0.021-0.474,0.026
		c-0.051,0.003-0.099,0.006-0.148,0.007c-0.149,0.006-0.306,0.012-0.467,0.016l-0.747,0.011l-0.569-0.004l-0.3-0.004
		c-0.173-0.003-0.804-0.021-0.804-0.021l-0.59-0.025l-0.847-0.049l-0.299-0.021c-0.388-0.029-0.749-0.059-1.114-0.094
		c0,0-0.529-0.057-0.541-0.057c-0.163-0.019-0.626-0.074-0.626-0.074l-0.589-0.079c-0.789-0.11-1.554-0.243-2.271-0.395
		l-0.109-0.023c-0.176-0.037-0.349-0.077-0.52-0.116c-0.018-0.005-0.065-0.016-0.083-0.021c-0.82-0.196-1.587-0.424-2.281-0.678
		l-0.106-0.038c-0.201-0.076-0.362-0.141-0.521-0.206l-0.138-0.059c-0.639-0.271-1.205-0.564-1.729-0.894
		c-0.022-0.014-0.044-0.027-0.066-0.041c-2.264-1.444-3.638-3.601-3.842-5.988c-0.004-0.014-0.034-0.107-0.034-0.107l-0.142-0.395
		c0,0-0.126-0.329-0.131-0.341l-0.222-0.543l-0.184-0.432l-0.201-0.455l-0.236-0.523l-0.487-1.04l-0.237-0.491
		c0,0-0.261-0.532-0.271-0.555c-1.231-2.494-2.737-5.289-4.355-8.083c-0.009-0.017-0.453-0.778-0.458-0.786
		c-0.138-0.235-0.425-0.719-0.425-0.719c-0.138-0.232-0.433-0.724-0.44-0.737c-0.144-0.238-0.287-0.476-0.432-0.713
		c-4.041-6.631-6.94-10.226-8.614-11.952c-1.753,1.815-3.515,4.428-5.173,7.698c-0.11,0.218-0.219,0.437-0.327,0.656
		c-0.22,0.448-0.432,0.898-0.64,1.351c-0.105,0.229-0.207,0.454-0.308,0.682c-0.176,0.394-0.345,0.787-0.512,1.181
		c-0.127,0.302-0.254,0.604-0.377,0.908c-0.257,0.633-0.521,1.308-0.784,2.006c-0.532,1.413-1.052,2.912-1.547,4.455
		c-0.005,0.017-0.242,0.765-0.246,0.777c-0.068,0.217-0.218,0.706-0.224,0.725c-0.063,0.206-0.208,0.69-0.208,0.69l-0.181,0.613
		l-5.536-1.574l0,0l5.525,1.612c0,0-0.205,0.712-0.207,0.717l-0.185,0.656c0,0-0.175,0.635-0.175,0.636
		c-0.4,1.467-0.779,2.969-1.127,4.461c0,0.001-0.211,0.922-0.211,0.922l-0.392,1.804l-0.135,0.643
		c-0.752,3.501-3.975,4.841-5.034,5.281c-0.127,0.053-0.252,0.103-0.381,0.153c-1.223,0.475-2.757,0.925-4.568,1.34
		c-0.292,0.066-0.592,0.133-0.897,0.197c-0.737,0.156-1.509,0.305-2.293,0.442c-0.466,0.082-0.93,0.158-1.393,0.23
		c-0.769,0.118-1.54,0.224-2.291,0.313c-1.843,0.221-3.457,0.332-4.794,0.332c-0.365,0-0.714-0.009-1.038-0.026
		c-0.816-0.042-1.524-0.14-2.161-0.299c-0.193-0.05-0.364-0.1-0.523-0.15C126.583,311.479,124.855,309.177,124.855,306.496z"/>
	<path fill="#FFFFFF" d="M221.883,152.173c0.691,0.119,1.379,0.235,2.062,0.349c4.427,0.739,9.963,1.587,13.52,1.587
		c0.479,0,0.862-0.016,1.167-0.037c0.868-2.272,1.559-5.458,2.018-8.305c-0.415,0.028-0.838,0.042-1.269,0.042
		c-3.687,0-7.508-1-10.763-2.816c-0.422-0.235-0.867-0.525-1.316-0.884C225.541,146.034,223.638,149.414,221.883,152.173z"/>
	<path fill="#1E0500" d="M203.693,303.901c-0.175,0.01-0.362,0.018-0.562,0.023c-0.027,0-0.053,0.002-0.08,0.003
		c-0.169,0.004-0.345,0.007-0.528,0.008c-0.055,0.001-0.113,0-0.169,0c-0.041,0-0.083,0-0.125,0
		c-0.516-0.001-1.075-0.015-1.664-0.042c-0.029-0.002-0.059-0.003-0.088-0.005c-0.3-0.015-0.605-0.032-0.916-0.055
		c-0.02-0.001-0.039-0.003-0.059-0.004c-0.134-0.01-0.268-0.019-0.403-0.029c-0.414-0.034-0.834-0.075-1.255-0.123
		c-0.097-0.012-0.194-0.024-0.291-0.035c-0.021-0.003-0.041-0.006-0.062-0.008c-1.004-0.126-2.001-0.293-2.922-0.511
		c-0.01-0.002-0.019-0.005-0.028-0.007c-0.607-0.145-1.179-0.312-1.697-0.502c-0.014-0.005-0.026-0.01-0.039-0.015
		c-0.522-0.194-0.987-0.413-1.374-0.66l0,0l0,0c-0.749-0.477-1.206-1.055-1.206-1.753c0-0.103-0.018-0.231-0.046-0.381
		c-0.002-0.01-0.003-0.019-0.005-0.028c-0.029-0.146-0.074-0.315-0.129-0.502c-0.006-0.02-0.01-0.038-0.017-0.059
		c-0.056-0.186-0.125-0.394-0.203-0.615c-0.011-0.027-0.021-0.055-0.03-0.084c-0.081-0.225-0.174-0.467-0.275-0.724
		c-0.014-0.034-0.027-0.067-0.041-0.103c-0.104-0.261-0.221-0.537-0.345-0.829c-0.016-0.036-0.032-0.072-0.048-0.108
		c-0.129-0.298-0.267-0.609-0.414-0.934c-0.016-0.035-0.032-0.071-0.049-0.106c-0.152-0.335-0.314-0.684-0.486-1.045
		c-0.011-0.022-0.021-0.046-0.032-0.068c-0.18-0.377-0.368-0.767-0.566-1.168c-0.004-0.008-0.008-0.015-0.011-0.022
		c-1.239-2.511-2.821-5.466-4.572-8.487c-0.001-0.001-0.001-0.002-0.002-0.003c-0.291-0.502-0.587-1.007-0.887-1.512
		c-0.002-0.003-0.004-0.007-0.007-0.011c-0.3-0.505-0.603-1.01-0.909-1.513c-4.414-7.241-9.452-14.138-12.7-15.512v0.001
		c-0.377-0.16-0.731-0.244-1.057-0.247c-0.009,0-0.017-0.002-0.026-0.002c-0.151,0.001-0.294,0.022-0.433,0.06
		c-0.024,0.007-0.048,0.015-0.072,0.022c-0.135,0.044-0.266,0.102-0.388,0.183c-1.837,1.243-3.514,2.944-5.039,4.938
		c-2.439,3.192-4.486,7.137-6.17,11.156c-0.41,0.977-0.796,1.958-1.163,2.934c-0.397,1.058-0.771,2.109-1.119,3.141
		c-0.013,0.038-0.024,0.074-0.037,0.112c-0.158,0.471-0.312,0.938-0.461,1.4c-0.039,0.122-0.075,0.24-0.113,0.361
		c-0.12,0.376-0.238,0.752-0.351,1.12c-0.044,0.145-0.086,0.286-0.129,0.429c-0.102,0.338-0.203,0.674-0.299,1.003
		c-0.012,0.039-0.022,0.077-0.034,0.117l5.536,1.574l0.181-0.613c0,0,0.146-0.484,0.208-0.69c0.006-0.019,0.156-0.508,0.224-0.725
		c0.004-0.013,0.24-0.761,0.246-0.777c0.495-1.543,1.015-3.042,1.547-4.455c0.263-0.698,0.527-1.373,0.784-2.006
		c0.124-0.304,0.25-0.606,0.377-0.908c0.167-0.394,0.336-0.787,0.512-1.181c0.101-0.228,0.203-0.453,0.308-0.682
		c0.208-0.452,0.42-0.902,0.64-1.351c0.107-0.22,0.216-0.438,0.327-0.656c1.658-3.271,3.42-5.883,5.173-7.698
		c1.673,1.727,4.573,5.321,8.614,11.952c0.145,0.237,0.288,0.475,0.432,0.713c0.008,0.014,0.303,0.505,0.44,0.737
		c0,0,0.287,0.483,0.425,0.719c0.005,0.008,0.449,0.77,0.458,0.786c1.618,2.794,3.124,5.589,4.355,8.083
		c0.011,0.022,0.271,0.555,0.271,0.555l0.237,0.491l0.487,1.04l0.236,0.523l0.201,0.455l0.184,0.432l0.222,0.543
		c0.005,0.012,0.131,0.341,0.131,0.341l0.142,0.395c0,0,0.03,0.094,0.034,0.107c0.204,2.388,1.578,4.544,3.842,5.988
		c0.022,0.014,0.044,0.027,0.066,0.041c0.524,0.329,1.091,0.622,1.729,0.894l0.138,0.059c0.159,0.065,0.32,0.13,0.521,0.206
		l0.106,0.038c0.694,0.254,1.461,0.481,2.281,0.678c0.018,0.005,0.065,0.016,0.083,0.021c0.171,0.039,0.344,0.079,0.52,0.116
		l0.109,0.023c0.718,0.151,1.482,0.284,2.271,0.395l0.589,0.079c0,0,0.463,0.056,0.626,0.074c0.012,0,0.541,0.057,0.541,0.057
		c0.365,0.035,0.727,0.064,1.114,0.094l0.299,0.021l0.847,0.049l0.59,0.025c0,0,0.631,0.019,0.804,0.021l0.3,0.004l0.569,0.004
		l0.747-0.011c0.161-0.004,0.317-0.01,0.467-0.016c0.05-0.001,0.098-0.004,0.148-0.007c0.119-0.005,0.474-0.026,0.474-0.026
		l-0.409-5.742c-0.026,0.002-0.054,0.003-0.08,0.005C203.757,303.898,203.725,303.899,203.693,303.901z"/>
	<path fill="#1E0500" d="M92.323,244.762c-0.352,0.245-0.717,0.461-1.089,0.663c-0.076,0.041-0.152,0.084-0.229,0.123
		c-0.083,0.043-0.164,0.088-0.248,0.129c2.878,2.521,6.412,6.745,6.412,6.745s-0.126,1.321,0.149,2.662
		c5.75-6.881,7.94-14.793,2.357-20.376c-4.427-4.427-2.178-18.95,1.046-31.999C86.187,218.569,92.323,244.762,92.323,244.762z"/>
	<path fill="#1E0500" d="M129.807,312.517c0.636,0.159,1.345,0.257,2.161,0.299c0.324,0.018,0.673,0.026,1.038,0.026
		c1.338,0,2.951-0.111,4.794-0.332c0.75-0.089,1.521-0.194,2.291-0.313c0.463-0.072,0.927-0.148,1.393-0.23
		c0.785-0.138,1.556-0.286,2.293-0.442c0.305-0.064,0.605-0.131,0.897-0.197c1.811-0.415,3.346-0.865,4.568-1.34
		c0.129-0.051,0.254-0.101,0.381-0.153c1.059-0.44,4.282-1.78,5.034-5.281l0.135-0.643l0.392-1.804c0,0,0.211-0.921,0.211-0.922
		c0.348-1.492,0.727-2.994,1.127-4.461c0-0.001,0.175-0.636,0.175-0.636l0.185-0.656c0.002-0.005,0.207-0.717,0.207-0.717
		l-5.525-1.612c-0.035,0.117-0.067,0.232-0.101,0.348c-0.089,0.31-0.177,0.616-0.261,0.917c-0.044,0.158-0.086,0.313-0.129,0.468
		c-0.079,0.286-0.157,0.57-0.231,0.847c-0.042,0.158-0.083,0.313-0.125,0.468c-0.069,0.264-0.138,0.523-0.203,0.777
		c-0.04,0.151-0.078,0.301-0.115,0.448c-0.062,0.245-0.123,0.485-0.181,0.721c-0.035,0.142-0.07,0.282-0.104,0.42
		c-0.055,0.226-0.108,0.446-0.159,0.659c-0.03,0.127-0.061,0.255-0.09,0.378c-0.05,0.21-0.097,0.413-0.142,0.608
		c-0.026,0.113-0.052,0.228-0.077,0.335c-0.043,0.188-0.083,0.365-0.122,0.538c-0.021,0.097-0.044,0.197-0.065,0.29
		c-0.037,0.169-0.071,0.325-0.104,0.477c-0.017,0.076-0.035,0.159-0.05,0.23c-0.032,0.15-0.061,0.285-0.088,0.415
		c-0.011,0.054-0.025,0.116-0.035,0.166c-0.033,0.156-0.063,0.297-0.087,0.412c-0.027,0.131-0.05,0.241-0.066,0.317
		c-0.061,0.281-0.394,0.57-0.931,0.856c-0.269,0.143-0.587,0.285-0.949,0.426c-0.542,0.211-1.18,0.417-1.883,0.615
		c-0.234,0.066-0.476,0.132-0.724,0.196c-0.744,0.191-1.544,0.374-2.371,0.543s-1.681,0.323-2.533,0.461
		c-1.42,0.229-2.833,0.408-4.107,0.52c-1.018,0.088-1.947,0.134-2.716,0.125c-0.006,0-0.011,0-0.017,0
		c-0.363-0.005-0.688-0.021-0.971-0.051c-0.762-0.079-1.216-0.251-1.216-0.537c0-1.296,4.006-4.22,6.26-5.764
		c0.882-0.604,1.495-0.995,1.495-0.995c-0.296-0.335-0.589-0.691-0.877-1.068c-0.012-0.016-0.023-0.032-0.035-0.047
		c-0.277-0.364-0.551-0.748-0.82-1.148c-0.018-0.025-0.035-0.053-0.053-0.079c-0.264-0.395-0.524-0.807-0.78-1.232
		c-0.02-0.034-0.04-0.067-0.059-0.101c-0.254-0.427-0.505-0.867-0.752-1.322c-0.019-0.034-0.037-0.068-0.056-0.103
		c-0.248-0.46-0.492-0.933-0.733-1.418c-0.015-0.031-0.03-0.062-0.045-0.093c-0.244-0.494-0.483-1-0.719-1.518
		c-0.011-0.023-0.021-0.047-0.032-0.07c-0.24-0.528-0.476-1.067-0.708-1.616c-0.006-0.014-0.011-0.027-0.017-0.041
		c-0.237-0.562-0.47-1.133-0.699-1.714l0,0l0,0c-1.409-3.577-2.649-7.453-3.71-11.214c-12.279,1.557-25.982-3.634-34.479-7.712
		c-0.081,0.006-0.164,0.011-0.245,0.016c-0.117,0.009-0.235,0.017-0.355,0.022c-0.288,0.017-0.582,0.027-0.882,0.032
		c-0.112,0.003-0.223,0.004-0.336,0.005c-0.314,0.001-0.636-0.005-0.962-0.016c-0.148-0.004-0.297-0.011-0.448-0.019
		c-0.289-0.014-0.582-0.033-0.877-0.057c-0.163-0.013-0.325-0.027-0.49-0.043c-0.321-0.031-0.644-0.068-0.971-0.112
		c-0.167-0.021-0.334-0.045-0.502-0.07c-0.295-0.045-0.592-0.094-0.892-0.147c-0.176-0.032-0.352-0.064-0.529-0.1
		c-0.269-0.054-0.538-0.109-0.808-0.171c0.008,0,0.017,0,0.025,0c-2.634-0.602-5.319-1.593-7.738-3.092
		c-7.27-4.507-4.362-13.068-4.362-15.321c0-1.212-0.421-3.466-0.885-4.87c-0.021-0.063-0.042-0.108-0.063-0.167
		c-0.629-0.222-0.992-0.37-0.992-0.37c-5.815-13.52,0.97-45.964,8.724-60.383c7.755-14.419,29.08-23.432,29.08-23.432l3.3-0.241
		c-1.45-2.024-2.774-4.148-3.98-6.351c-4.285-2.504-18.21-13.237-15.279-45.805c3.454-38.379,17.654-51.811,37.611-60.255
		c0,0-17.079,6.141-25.522,11.514c0,0,19.381-21.108,46.247-21.108c26.864,0,43.751,2.303,52.194,16.887
		c0,0,13.049,4.989,21.875,19.189c0,0-8.442-5.757-13.048-5.757c0,0,11.514,4.989,14.968,36.076
		c3.103,27.924-12.675,47.476-15.92,51.167c0.474,0.08,0.95,0.16,1.428,0.242c0.166,0.028,0.331,0.057,0.496,0.085
		c0.447,0.077,0.896,0.154,1.345,0.232c2.671,0.462,5.373,0.942,7.996,1.38l0,0c9.886,1.65,18.624,2.708,20.058,0.042
		c2.908-5.408,3.878-16.223,3.878-16.223c0.892-0.711,1.87-1.263,2.892-1.691c-1.978-3.115-3.646-3.853-5.315-1.914
		c-0.117,0.135-0.25,0.261-0.396,0.379c-0.05,0.041-0.109,0.076-0.162,0.115c-0.104,0.074-0.205,0.148-0.319,0.215
		c-0.072,0.043-0.154,0.081-0.231,0.121c-0.106,0.054-0.212,0.109-0.325,0.158c-0.093,0.04-0.19,0.075-0.289,0.111
		c-0.109,0.041-0.22,0.082-0.335,0.117c-0.112,0.035-0.229,0.066-0.346,0.097c-0.109,0.029-0.22,0.056-0.333,0.081
		c-0.134,0.029-0.269,0.054-0.407,0.078c-0.104,0.018-0.21,0.034-0.317,0.049c-0.156,0.021-0.313,0.041-0.476,0.056
		c-0.091,0.009-0.185,0.015-0.276,0.021c-0.185,0.013-0.369,0.024-0.56,0.028c-0.067,0.002-0.136,0.001-0.203,0.002
		c-0.22,0.003-0.441,0.002-0.668-0.006c-0.02-0.001-0.039-0.002-0.059-0.003c-1.942-0.078-4.093-0.549-6.1-1.439l-0.001,0l0,0
		c-0.435-0.193-0.865-0.398-1.282-0.631c-4.848-2.703-1.939-15.321,1.454-18.926c0.775-0.824,2.393-1.197,4.464-1.261l0,0
		c0.001,0,0.002,0,0.002,0c2.613-0.08,5.951,0.336,9.271,0.981c0.018,0.003,0.036,0.007,0.055,0.011
		c0.265,0.052,0.529,0.104,0.794,0.159c0.016,0.003,0.03,0.006,0.046,0.009c0.777,0.161,1.549,0.333,2.306,0.512
		c0.06,0.014,0.118,0.028,0.176,0.042c0.218,0.052,0.435,0.105,0.649,0.158c0.081,0.02,0.16,0.04,0.24,0.06
		c0.211,0.053,0.421,0.106,0.629,0.16c0.045,0.012,0.089,0.023,0.134,0.035c0.381,0.1,0.755,0.201,1.122,0.303
		c0.114,0.031,0.229,0.063,0.341,0.095c0.155,0.044,0.306,0.087,0.457,0.131c0.133,0.039,0.265,0.077,0.395,0.116
		c0.138,0.041,0.275,0.082,0.41,0.123c0.156,0.047,0.309,0.094,0.46,0.141c0.104,0.033,0.212,0.065,0.315,0.098
		c0.24,0.077,0.473,0.152,0.701,0.228c0.091,0.03,0.179,0.061,0.269,0.091c0.151,0.052,0.3,0.103,0.444,0.153
		c0.09,0.031,0.178,0.063,0.265,0.094c0.151,0.055,0.299,0.108,0.442,0.162c0.064,0.024,0.133,0.049,0.196,0.073
		c0.2,0.076,0.392,0.151,0.573,0.226c0.041,0.017,0.077,0.032,0.117,0.049c0.117,0.048,0.232,0.097,0.34,0.144l2.242-5.303
		c-0.014-0.006-0.026-0.011-0.039-0.017c-0.161-0.069-0.328-0.139-0.504-0.21l-0.073-0.03c-0.162-0.064-0.33-0.131-0.475-0.187
		l-0.095-0.037c-0.19-0.073-0.388-0.147-0.604-0.225c-0.011-0.004-0.047-0.018-0.058-0.021c-0.187-0.067-0.609-0.216-0.638-0.225
		c-0.205-0.072-0.417-0.143-0.635-0.215c-0.01-0.003-0.033-0.011-0.052-0.018c-5.479-1.811-13.647-3.636-19.563-3.636
		c-1.232,0-2.704,0.064-4.189,0.383c0.004-2.568-0.132-5.212-0.435-7.931c-1.061-9.55-2.947-17.679-5.629-24.29
		c0.718-0.267,1.391-0.681,1.972-1.238c1.965-1.883,2.342-4.884,0.906-7.195c-7.764-12.489-18.466-18.599-22.796-20.681
		c-10.902-16.718-31.914-18.113-56.164-18.113c-29.061,0-49.626,22.034-50.487,22.972c-1.955,2.128-2.028,5.375-0.172,7.59
		c0.09,0.107,0.184,0.211,0.28,0.311c-0.016,0.023-0.032,0.046-0.049,0.069c-7.46,10.61-11.923,25.051-13.641,44.148
		c-1.35,15.001,0.511,27.549,5.531,37.293c3.17,6.154,6.996,9.969,9.923,12.208c-7.027,3.566-21.395,12.001-27.911,24.118
		c-8.293,15.422-15.702,49.671-8.942,65.384c0.309,0.718,0.757,1.357,1.311,1.887c0.086,0.484,0.145,0.917,0.157,1.169
		c-0.021,0.193-0.08,0.585-0.124,0.881c-0.557,3.74-2.038,13.678,7.212,19.409c2.789,1.729,5.972,3.012,9.459,3.812
		c0,0,0.012,0.003,0.018,0.004c2.262,0.518,4.557,0.809,6.823,0.866c0.015,0.001,0.03,0.001,0.045,0.002
		c0.263,0.006,0.523,0.009,0.78,0.009c0.258,0,0.515-0.003,0.77-0.009c8.104,3.758,19.653,7.928,30.991,7.928
		c0.143,0,0.286-0.001,0.429-0.003c0.947,3.001,1.926,5.744,2.92,8.188c0.005,0.014,0.014,0.035,0.023,0.058
		c0.12,0.293,0.241,0.585,0.354,0.853l0.042,0.098c0.116,0.275,0.233,0.548,0.343,0.798l0.063,0.143
		c0.112,0.256,0.225,0.508,0.33,0.738l0.08,0.176c0.109,0.24,0.22,0.478,0.333,0.718l0.085,0.182
		c0.107,0.226,0.216,0.449,0.323,0.667l0.104,0.209c0.106,0.215,0.213,0.426,0.322,0.639l0.121,0.234
		c0.103,0.197,0.206,0.392,0.309,0.585l0.135,0.252c0.104,0.189,0.207,0.376,0.308,0.555l0.138,0.245
		c-0.066,0.051-0.131,0.103-0.195,0.153c-0.437,0.344-0.849,0.683-1.226,1.007c-0.28,0.241-0.548,0.48-0.806,0.722
		c-0.134,0.125-0.264,0.25-0.392,0.376c-0.291,0.287-0.548,0.56-0.783,0.827c-0.301,0.346-0.561,0.676-0.793,1.014
		c-0.426,0.62-0.756,1.269-0.982,1.93c-0.007,0.021-0.015,0.044-0.021,0.065c-0.085,0.257-0.153,0.506-0.205,0.758
		c-0.091,0.432-0.138,0.868-0.139,1.319c0,2.681,1.728,4.982,4.429,5.87C129.443,312.417,129.614,312.467,129.807,312.517z
		 M239.38,145.809c0.431,0,0.854-0.014,1.269-0.042c-0.459,2.848-1.149,6.033-2.018,8.305c-0.305,0.021-0.688,0.037-1.167,0.037
		c-3.557,0-9.093-0.848-13.52-1.587c-0.683-0.114-1.37-0.23-2.062-0.349c1.755-2.759,3.658-6.139,5.418-10.064
		c0.449,0.359,0.895,0.649,1.316,0.884C231.872,144.809,235.693,145.809,239.38,145.809z"/>
	<path fill="#1E0500" d="M258.714,122.232c0.112,0.051,0.219,0.101,0.319,0.15c0.043,0.021,0.089,0.043,0.13,0.064
		c0.134,0.068,0.26,0.134,0.369,0.198c2.997,1.742,4.834,12.629,5.515,17.488c0.057,0.015,0.103,0.028,0.144,0.04
		c0,0,0.002,0,0.003,0c0.046,0.014,0.081,0.023,0.106,0.031c0.004,0.001,0.008,0.002,0.012,0.003
		c0.023,0.007,0.037,0.011,0.037,0.011s13.57,16.222,7.754,28.839c-3.988,8.653-28.946,14.763-44.237,17.747
		c1.967,8.949,2.531,19.754,2.235,30.708c-0.614,22.723,24.565,42.375,24.565,42.375c-13.911,9.273-34.818,9.792-48.194,5.261
		c-0.013,0.13-0.025,0.258-0.038,0.389c-0.101,0.976-0.219,1.963-0.353,2.956c-0.093,0.684-0.193,1.371-0.3,2.059
		c-0.106,0.687-0.219,1.375-0.338,2.063c-0.06,0.345-0.12,0.688-0.182,1.031c-0.114,0.63-0.233,1.259-0.354,1.886
		c-0.077,0.395-0.155,0.79-0.235,1.183c-0.068,0.338-0.138,0.675-0.209,1.011c-0.141,0.671-0.284,1.337-0.431,1.995
		s-0.296,1.31-0.446,1.952s-0.302,1.274-0.454,1.897c-0.045,0.183-0.09,0.362-0.135,0.542c-0.01,0.044-0.021,0.087-0.032,0.131
		c-0.021,0.084-0.041,0.169-0.062,0.252c-0.104,0.414-0.207,0.82-0.311,1.224c-0.012,0.046-0.023,0.092-0.035,0.138
		c-0.126,0.49-0.252,0.972-0.377,1.444c-0.003,0.011-0.006,0.021-0.009,0.031c-0.06,0.226-0.119,0.451-0.179,0.672
		c-0.196,0.731-0.389,1.433-0.577,2.106c-0.007,0.028-0.016,0.056-0.023,0.085c-0.118,0.423-0.234,0.833-0.348,1.23
		c-0.009,0.029-0.017,0.06-0.025,0.089c-0.114,0.4-0.227,0.787-0.335,1.158c-0.003,0.011-0.006,0.021-0.009,0.031
		c-0.05,0.169-0.1,0.339-0.147,0.501c-0.126,0.427-0.247,0.832-0.361,1.213c-0.039,0.128-0.076,0.248-0.113,0.37
		c-0.004,0.016-0.009,0.031-0.014,0.047c-0.091,0.3-0.178,0.581-0.26,0.847c-0.008,0.027-0.017,0.055-0.025,0.082
		c-0.021,0.069-0.043,0.141-0.063,0.207c-0.096,0.307-0.184,0.588-0.264,0.841c-0.038,0.121-0.075,0.236-0.109,0.345
		c-0.001,0.003-0.002,0.005-0.003,0.008c-0.058,0.183-0.109,0.341-0.155,0.484c-0.007,0.021-0.014,0.042-0.021,0.063
		c-0.043,0.132-0.079,0.242-0.109,0.336c-0.006,0.018-0.01,0.03-0.016,0.047c-0.027,0.085-0.05,0.153-0.065,0.2
		c-0.01,0.026-0.011,0.031-0.016,0.045c-0.009,0.027-0.015,0.046-0.015,0.046s2.563,1.748,4.138,3.262
		c0.166,0.159,0.32,0.316,0.461,0.469c0.069,0.075,0.136,0.15,0.197,0.224c0.124,0.146,0.23,0.286,0.315,0.418
		c0.043,0.066,0.08,0.13,0.111,0.192c0.063,0.122,0.103,0.236,0.114,0.338c0.006,0.051,0.005,0.1-0.003,0.144
		c-0.033,0.179-0.185,0.306-0.487,0.361c-0.11,0.021-0.245,0.039-0.393,0.056c-0.03,0.003-0.059,0.007-0.09,0.01
		c-0.027,0.003-0.052,0.006-0.081,0.009c-0.104,0.009-0.217,0.018-0.335,0.025l0.457,5.739c0.108-0.008,0.212-0.016,0.323-0.025
		l0.169-0.017c0.116-0.011,0.226-0.023,0.315-0.033l0.157-0.021c0.194-0.025,0.375-0.054,0.529-0.083
		c3.325-0.619,5.541-3.56,5.154-6.839c-0.091-0.779-0.329-1.548-0.704-2.283c-0.532-1.042-1.327-2.019-2.563-3.153
		c-0.12-0.11-0.243-0.222-0.362-0.326c-0.233-0.206-0.473-0.41-0.714-0.611c0,0,0.084-0.277,0.088-0.292
		c0.149-0.497,0.309-1.031,0.475-1.599l0.535-1.862l0.444-1.589c0.177-0.642,0.356-1.307,0.54-1.997l0.188-0.716l0.284-1.095
		l0.354-1.402l0.44-1.806c0.149-0.624,0.298-1.258,0.444-1.897c0.234-1.029,0.462-2.063,0.675-3.081
		c0.146-0.695,0.288-1.396,0.427-2.1c0.212-1.084,0.412-2.165,0.592-3.21c0.069-0.405,0.138-0.808,0.203-1.207
		c4.246,0.854,8.809,1.297,13.485,1.298c0.001,0,0.001,0,0.001,0c12.603,0,24.343-3.198,33.054-9.007
		c1.536-1.024,2.485-2.726,2.557-4.57s-0.749-3.613-2.202-4.754c-0.229-0.179-22.886-18.186-22.358-37.687
		c0.27-9.969-0.171-18.803-1.31-26.358c6.604-1.424,14.515-3.383,21.557-5.811c11.974-4.129,18.719-8.587,21.228-14.03
		c6.455-14.003-4.833-30.123-7.868-34.065c-0.396-2.547-0.97-5.69-1.731-8.629c-1.592-6.142-3.478-9.464-6.306-11.107
		c-0.151-0.088-0.32-0.181-0.498-0.273c-0.004-0.002-0.131-0.067-0.131-0.067c-0.147-0.075-0.302-0.151-0.468-0.229
		c-0.024-0.012-0.048-0.022-0.072-0.033c-0.137-0.064-0.281-0.128-0.431-0.195c-0.009-0.003-0.031-0.013-0.039-0.017l-2.297,5.279
		c0.024,0.011,0.046,0.021,0.068,0.031C258.611,122.186,258.662,122.208,258.714,122.232z"/>
	<path fill="#C9171E" d="M207.736,237.202c0.344,0.203,0.652,0.397,0.906,0.575c4.499,3.138,1.48,17.143-0.915,18.771
		c0.007,0.101,0.014,0.201,0.02,0.302c0.015,0.295,0.025,0.592,0.034,0.893c0.042,1.502,0.007,3.082-0.093,4.712
		c-0.04,0.652-0.09,1.313-0.149,1.979c-0.021,0.236-0.044,0.476-0.067,0.714c13.376,4.531,34.283,4.013,48.194-5.261
		c0,0-25.18-19.652-24.565-42.375c0.296-10.954-0.269-21.759-2.235-30.708c-7.005,1.368-11.983,2.08-11.983,2.08
		C210.721,203.612,208.157,232.081,207.736,237.202z"/>
	<path fill="#C9171E" d="M123.826,261.209c-2.908-0.676-7.997-11.49-5.089-14.646c0.612-0.664,1.264-1.296,1.946-1.898
		c-10.931-15.757-11.397-48.57-11.397-48.57c-3.446,1.849-6.263,4.103-8.564,6.614c-3.224,13.049-5.473,27.572-1.046,31.999
		c5.583,5.583,3.393,13.495-2.357,20.376c0.258,1.256,0.868,2.527,2.274,2.745c2.908,0.451,1.938,8.562-1.454,10.364
		c-0.188,0.101-0.402,0.192-0.628,0.281c-0.057,0.022-0.116,0.044-0.176,0.066c-0.227,0.082-0.465,0.161-0.724,0.231
		c-0.011,0.003-0.021,0.006-0.031,0.009c-0.263,0.071-0.546,0.134-0.838,0.19c-0.084,0.018-0.169,0.033-0.256,0.049
		c-0.272,0.049-0.553,0.094-0.847,0.131c-0.052,0.007-0.103,0.014-0.156,0.021c-0.225,0.025-0.456,0.05-0.692,0.069
		c8.497,4.078,22.199,9.269,34.479,7.712c-1.751-6.206-3.013-12.085-3.734-15.751C124.252,261.247,124.015,261.253,123.826,261.209z
		"/>
	<path fill="#036CB2" d="M204.715,302.339c0.124,0.146,0.23,0.286,0.315,0.418C204.945,302.625,204.839,302.484,204.715,302.339z"/>
	<path fill="#036CB2" d="M182.956,284.924c-0.001-0.001-0.001-0.002-0.002-0.003C182.955,284.922,182.955,284.923,182.956,284.924z"
		/>
	<path fill="#036CB2" d="M166.936,266.186c-0.024,0.006-0.048,0.016-0.072,0.022C166.888,266.2,166.912,266.192,166.936,266.186z"/>
	<path fill="#036CB2" d="M206.781,270.552c-0.106,0.687-0.219,1.375-0.338,2.063C206.563,271.927,206.675,271.238,206.781,270.552z"
		/>
	<path fill="#036CB2" d="M187.539,293.434c-0.004-0.008-0.008-0.015-0.011-0.022C187.531,293.419,187.535,293.426,187.539,293.434z"
		/>
	<path fill="#036CB2" d="M151.896,291.98c0,0.001,0,0.001,0,0.002c0.043-0.143,0.085-0.284,0.129-0.429l0,0
		C151.98,291.698,151.939,291.838,151.896,291.98z"/>
	<path fill="#036CB2" d="M188.138,294.67c-0.011-0.022-0.021-0.046-0.032-0.068C188.116,294.624,188.127,294.647,188.138,294.67z"/>
	<path fill="#036CB2" d="M207.434,265.537c-0.101,0.977-0.219,1.963-0.353,2.956C207.215,267.5,207.333,266.513,207.434,265.537z"/>
	<path fill="#036CB2" d="M207.081,268.493c-0.093,0.684-0.193,1.371-0.3,2.059C206.888,269.864,206.988,269.177,207.081,268.493z"/>
	<path fill="#036CB2" d="M149.646,300.493c0,0.002,0,0.002,0,0.003c0.024-0.107,0.051-0.222,0.077-0.335c0,0,0,0.001,0,0.002
		C149.697,300.274,149.67,300.388,149.646,300.493z"/>
	<path fill="#036CB2" d="M136.281,290.581c2.047-0.409,3.48-5.322,5.323-5.937c0.971-0.324,3.195-0.762,5.86-0.683
		c0.501-2.024,1.182-3.967,2.124-5.663c4.094-7.37,14.467-17.743,18.289-12.829c0.202,0.259,0.393,0.564,0.575,0.904
		c3.249,1.374,8.286,8.271,12.7,15.512l-0.001-0.001c4.071-0.751,11.424-2.038,12.452-1.744c0.99,0.283,2.077,2.81,3.195,4.415
		c-0.414-4-1.604-8.982-4.354-14.992c-3.721-8.13-9.597-12.292-14.505-14.424c-3.241,1.709-6.985,2.689-10.977,2.689
		c-5.746,0-10.983-2.021-14.936-5.34c-0.334,0.063-0.666,0.127-0.993,0.192c-0.268,0.054-0.533,0.108-0.797,0.163
		c-0.388,0.08-0.775,0.161-1.154,0.244c-0.198,0.043-0.391,0.087-0.586,0.131c-2.69,0.604-5.146,1.261-7.37,1.932l0,0
		c-9.073,2.74-14.348,5.695-16.59,6.051c0.721,3.666,1.983,9.545,3.734,15.751c1.061,3.761,2.301,7.637,3.71,11.214
		C133.333,289.426,135.13,290.812,136.281,290.581z M130.17,267.054c3.454,6.14,3.838,18.038,3.838,18.038
		C130.17,277.799,130.17,267.054,130.17,267.054z"/>
	<path fill="#036CB2" d="M188.673,295.821c-0.016-0.035-0.032-0.071-0.049-0.106C188.641,295.75,188.657,295.786,188.673,295.821z"
		/>
	<path fill="#036CB2" d="M203.132,303.925L203.132,303.925c0.199-0.006,0.387-0.014,0.562-0.023l0,0
		C203.519,303.911,203.331,303.919,203.132,303.925z"/>
	<path fill="#036CB2" d="M202.523,303.936c0.184-0.001,0.359-0.004,0.528-0.008l0,0
		C202.883,303.932,202.707,303.935,202.523,303.936z"/>
	<path fill="#036CB2" d="M154.105,285.419c0.367-0.976,0.753-1.957,1.163-2.934C154.858,283.462,154.472,284.443,154.105,285.419
		L154.105,285.419z"/>
	<path fill="#036CB2" d="M150.716,296.148L150.716,296.148c0.041-0.153,0.082-0.309,0.124-0.467c0,0,0,0.001,0,0.002
		C150.797,295.84,150.757,295.994,150.716,296.148z"/>
	<path fill="#036CB2" d="M151.072,294.833c0,0.001,0,0.002,0,0.002c0.043-0.155,0.085-0.31,0.129-0.468h0
		C151.157,294.524,151.115,294.679,151.072,294.833z"/>
	<path fill="#036CB2" d="M167.369,266.126c0.009,0,0.017,0.002,0.026,0.002C167.386,266.128,167.377,266.126,167.369,266.126z"/>
	<path fill="#036CB2" d="M150.114,298.515L150.114,298.515c0.033-0.137,0.068-0.277,0.103-0.419l0,0
		C150.182,298.237,150.147,298.378,150.114,298.515z"/>
	<path fill="#036CB2" d="M149.865,299.552L149.865,299.552c0.029-0.122,0.06-0.25,0.09-0.377c0,0.001,0,0.002,0,0.002
		C149.924,299.303,149.894,299.43,149.865,299.552z"/>
	<path fill="#036CB2" d="M203.787,303.896L203.787,303.896c0.026-0.002,0.054-0.003,0.08-0.005l0,0
		c0.118-0.008,0.23-0.017,0.335-0.025C204.075,303.878,203.935,303.888,203.787,303.896z"/>
	<path fill="#036CB2" d="M204.518,302.115c-0.141-0.152-0.295-0.31-0.461-0.469C204.223,301.806,204.377,301.963,204.518,302.115z"
		/>
	<path fill="#036CB2" d="M151.596,292.985c-0.046,0.157-0.089,0.309-0.133,0.464l0,0.001c0.033-0.115,0.066-0.23,0.101-0.348l0,0
		C151.574,293.063,151.584,293.024,151.596,292.985L151.596,292.985z"/>
	<path fill="#036CB2" d="M204.765,303.792c-0.109,0.021-0.244,0.039-0.392,0.056l0,0
		C204.521,303.831,204.655,303.813,204.765,303.792c0.304-0.056,0.455-0.183,0.488-0.361
		C205.22,303.609,205.068,303.736,204.765,303.792z"/>
	<path fill="#036CB2" d="M204.202,303.866c0.029-0.003,0.054-0.006,0.081-0.009l0,0C204.256,303.86,204.231,303.863,204.202,303.866
		z"/>
	<path fill="#036CB2" d="M152.953,288.661c-0.001,0.004-0.002,0.007-0.003,0.011c0.013-0.038,0.024-0.074,0.037-0.112l0,0.002
		C152.975,288.595,152.964,288.628,152.953,288.661z"/>
	<path fill="#036CB2" d="M182.067,283.409c-0.002-0.003-0.004-0.007-0.007-0.011C182.063,283.402,182.065,283.406,182.067,283.409z"
		/>
	<path fill="#036CB2" d="M138.366,299.737c-0.296-0.335-0.589-0.691-0.877-1.068C137.777,299.046,138.069,299.402,138.366,299.737z"
		/>
	<path fill="#036CB2" d="M132.799,307.084c-0.363-0.005-0.688-0.021-0.971-0.051C132.111,307.063,132.436,307.079,132.799,307.084z"
		/>
	<path fill="#036CB2" d="M136.581,297.395c-0.264-0.396-0.524-0.807-0.78-1.232C136.057,296.588,136.317,297,136.581,297.395z"/>
	<path fill="#036CB2" d="M137.454,298.622c-0.277-0.365-0.551-0.748-0.82-1.148C136.903,297.874,137.176,298.258,137.454,298.622z"
		/>
	<path fill="#036CB2" d="M135.531,306.959c-1.018,0.088-1.947,0.134-2.716,0.125C133.584,307.093,134.513,307.047,135.531,306.959z"
		/>
	<path fill="#036CB2" d="M144.542,305.436c-0.744,0.191-1.544,0.374-2.371,0.543C142.999,305.81,143.798,305.627,144.542,305.436z"
		/>
	<path fill="#036CB2" d="M135.741,296.062c-0.254-0.427-0.505-0.867-0.752-1.322C135.236,295.194,135.487,295.635,135.741,296.062z"
		/>
	<path fill="#036CB2" d="M190.046,299.276c-0.006-0.02-0.01-0.038-0.017-0.059C190.036,299.238,190.04,299.257,190.046,299.276z"/>
	<path fill="#036CB2" d="M147.149,304.624c-0.542,0.211-1.18,0.417-1.883,0.615C145.97,305.041,146.607,304.835,147.149,304.624z"/>
	<path fill="#036CB2" d="M142.171,305.979c-0.827,0.169-1.681,0.323-2.533,0.461C140.49,306.302,141.344,306.147,142.171,305.979z"
		/>
	<path fill="#036CB2" d="M139.638,306.439c-1.42,0.229-2.833,0.408-4.107,0.52C136.805,306.848,138.218,306.668,139.638,306.439z"/>
	<path fill="#036CB2" d="M148.098,304.198c-0.269,0.143-0.587,0.285-0.949,0.426C147.511,304.483,147.83,304.341,148.098,304.198z"
		/>
	<path fill="#036CB2" d="M133.404,291.538c-0.24-0.528-0.476-1.067-0.708-1.616C132.928,290.471,133.164,291.01,133.404,291.538z"/>
	<path fill="#036CB2" d="M134.155,293.126c-0.244-0.494-0.483-1-0.719-1.518C133.672,292.126,133.912,292.632,134.155,293.126z"/>
	<path fill="#036CB2" d="M132.679,289.881c-0.237-0.562-0.47-1.134-0.699-1.714C132.208,288.748,132.441,289.319,132.679,289.881z"
		/>
	<path fill="#036CB2" d="M206.262,273.646c-0.114,0.63-0.233,1.259-0.354,1.886C206.028,274.904,206.147,274.275,206.262,273.646z"
		/>
	<path fill="#036CB2" d="M205.142,302.949c0.063,0.122,0.103,0.236,0.114,0.338C205.244,303.186,205.204,303.071,205.142,302.949z"
		/>
	<path fill="#036CB2" d="M190.18,299.807c-0.002-0.01-0.003-0.019-0.005-0.028C190.177,299.788,190.178,299.797,190.18,299.807z"/>
	<path fill="#036CB2" d="M134.934,294.637c-0.248-0.46-0.492-0.933-0.733-1.418C134.441,293.704,134.686,294.177,134.934,294.637z"
		/>
	<path fill="#036CB2" d="M189.135,296.863c-0.017-0.036-0.032-0.072-0.048-0.108C189.103,296.791,189.119,296.827,189.135,296.863z"
		/>
	<path fill="#036CB2" d="M149.459,301.323L149.459,301.323c0.021-0.092,0.043-0.192,0.065-0.289c0,0,0,0.001,0,0.003
		C149.502,301.132,149.48,301.232,149.459,301.323z"/>
	<path fill="#036CB2" d="M189.826,298.603c-0.011-0.027-0.021-0.055-0.03-0.084C189.806,298.548,189.815,298.575,189.826,298.603z"
		/>
	<path fill="#036CB2" d="M189.521,297.795c-0.014-0.034-0.027-0.067-0.041-0.103C189.493,297.728,189.507,297.761,189.521,297.795z"
		/>
	<path fill="#036CB2" d="M207.747,256.851c-0.006-0.101-0.013-0.201-0.02-0.302l0,0C207.734,256.649,207.741,256.75,207.747,256.851
		z"/>
	<path fill="#036CB2" d="M207.688,262.455c0.1-1.63,0.135-3.21,0.093-4.712C207.823,259.245,207.788,260.825,207.688,262.455z"/>
	<path fill="#235599" d="M200.318,297.155c0.034-0.108,0.071-0.224,0.109-0.345c0.08-0.253,0.168-0.534,0.264-0.841
		c0.021-0.066,0.043-0.138,0.063-0.207C200.588,296.304,200.44,296.772,200.318,297.155z"/>
	<path fill="#235599" d="M203.593,285.718c0.104-0.403,0.207-0.81,0.311-1.224c0.021-0.083,0.041-0.168,0.062-0.252
		C203.841,284.742,203.717,285.234,203.593,285.718z"/>
	<path fill="#235599" d="M202.02,291.514c-0.114,0.399-0.227,0.787-0.335,1.158C201.793,292.301,201.905,291.914,202.02,291.514z"/>
	<path fill="#235599" d="M202.393,290.194c-0.118,0.423-0.234,0.834-0.348,1.23C202.158,291.027,202.274,290.617,202.393,290.194z"
		/>
	<path fill="#235599" d="M200.315,297.163c-0.058,0.182-0.109,0.341-0.155,0.484C200.206,297.504,200.258,297.346,200.315,297.163z"
		/>
	<path fill="#235599" d="M201.167,294.417c0.114-0.381,0.235-0.786,0.361-1.213c0.048-0.162,0.098-0.332,0.147-0.501
		c-0.223,0.759-0.431,1.457-0.622,2.084C201.091,294.665,201.128,294.545,201.167,294.417z"/>
	<path fill="#235599" d="M201.04,294.834c-0.091,0.3-0.178,0.581-0.26,0.847C200.862,295.415,200.949,295.134,201.04,294.834z"/>
	<path fill="#235599" d="M202.416,290.109c0.188-0.674,0.381-1.375,0.577-2.106c0.06-0.221,0.119-0.446,0.179-0.672
		C202.915,288.303,202.661,289.231,202.416,290.109z"/>
	<path fill="#235599" d="M200.015,298.094c-0.027,0.083-0.05,0.153-0.065,0.2C199.965,298.247,199.987,298.179,200.015,298.094z"/>
	<path fill="#235599" d="M199.934,298.339c-0.006,0.019-0.015,0.046-0.015,0.046S199.925,298.366,199.934,298.339z"/>
	<path fill="#235599" d="M203.181,287.3c0.125-0.473,0.251-0.954,0.377-1.444C203.432,286.346,203.306,286.828,203.181,287.3z"/>
	<path fill="#235599" d="M200.14,297.711c-0.042,0.13-0.079,0.243-0.109,0.336C200.061,297.953,200.097,297.843,200.14,297.711z"/>
	<path fill="#235599" d="M207.688,262.455c0.1-1.63,0.135-3.21,0.093-4.712c-0.009-0.301-0.02-0.598-0.034-0.893
		c-0.006-0.101-0.013-0.201-0.02-0.302c-0.185,0.126-0.365,0.187-0.539,0.154c-2.057-0.383-3.772-5.305-23.191-6.237
		c-1.7,1.872-3.751,3.457-6.059,4.674c4.908,2.132,10.784,6.294,14.505,14.424c2.75,6.01,3.94,10.992,4.354,14.992
		c0.094,0.136,0.188,0.266,0.283,0.386c0.078,0.1,0.156,0.187,0.234,0.273c0.024,0.026,0.049,0.059,0.072,0.084
		c0.078,0.082,0.156,0.149,0.235,0.216c0.023,0.021,0.048,0.049,0.072,0.067c0.077,0.061,0.154,0.104,0.231,0.147
		c0.025,0.015,0.051,0.037,0.077,0.05c0.103,0.048,0.205,0.081,0.308,0.094c1.638,0.204,2.047-4.913,3.48-5.118
		c0.592-0.085,1.498,0.704,2.588,1.788c-0.127,0.53-0.255,1.053-0.383,1.568c0.045-0.18,0.09-0.359,0.135-0.542
		c0.152-0.623,0.304-1.255,0.454-1.897s0.3-1.294,0.446-1.952s0.29-1.324,0.431-1.995c0.071-0.336,0.141-0.673,0.209-1.011
		c0.08-0.393,0.158-0.788,0.235-1.183c0.121-0.627,0.24-1.256,0.354-1.886c0.062-0.343,0.122-0.687,0.182-1.031
		c0.119-0.688,0.231-1.376,0.338-2.063c0.106-0.688,0.207-1.375,0.3-2.059c0.134-0.993,0.252-1.979,0.353-2.956
		c0.013-0.131,0.025-0.259,0.038-0.389c0.023-0.238,0.047-0.478,0.067-0.714C207.599,263.768,207.648,263.107,207.688,262.455z"/>
	<path fill="#235599" d="M149.588,278.299c-0.942,1.696-1.623,3.639-2.124,5.663c0.114,0.003,0.233,0.012,0.349,0.019
		c0.023,0,0.047,0.002,0.07,0.003c0.252,0.013,0.507,0.029,0.766,0.052c0.053,0.005,0.107,0.011,0.161,0.016
		c0.233,0.022,0.468,0.047,0.705,0.078c0.085,0.012,0.171,0.025,0.257,0.038c0.212,0.031,0.423,0.063,0.637,0.102
		c0.117,0.021,0.234,0.047,0.351,0.07c0.187,0.037,0.374,0.074,0.563,0.118c0.149,0.035,0.299,0.077,0.449,0.117
		c0.16,0.042,0.32,0.081,0.48,0.129c0.188,0.056,0.376,0.121,0.564,0.185c0.123,0.041,0.247,0.078,0.369,0.123
		c0.313,0.113,0.624,0.237,0.933,0.374c-0.004,0.012-0.008,0.022-0.012,0.034c0.367-0.976,0.753-1.957,1.163-2.934
		c1.684-4.02,3.731-7.964,6.17-11.156c1.524-1.994,3.201-3.695,5.039-4.938c0.122-0.081,0.253-0.139,0.388-0.183
		c0.024-0.007,0.047-0.017,0.072-0.022c0.138-0.037,0.282-0.059,0.433-0.06c0.009,0,0.017,0.002,0.026,0.002
		c0.326,0.003,0.679,0.087,1.057,0.247v-0.001c-0.182-0.34-0.373-0.646-0.575-0.904
		C164.055,260.556,153.682,270.929,149.588,278.299z"/>
	<path fill="#235599" d="M150.716,296.148c0.041-0.154,0.081-0.309,0.124-0.465C150.797,295.841,150.757,295.994,150.716,296.148z"
		/>
	<path fill="#235599" d="M151.072,294.833c0.043-0.154,0.085-0.309,0.128-0.466C151.157,294.525,151.115,294.678,151.072,294.833z"
		/>
	<path fill="#235599" d="M150.114,298.515c0.033-0.137,0.068-0.277,0.103-0.419C150.182,298.237,150.148,298.377,150.114,298.515z"
		/>
	<path fill="#235599" d="M151.596,292.985c-0.046,0.157-0.089,0.309-0.133,0.464C151.507,293.294,151.55,293.143,151.596,292.985z"
		/>
	<path fill="#235599" d="M149.095,303.024c-0.027,0.133-0.05,0.24-0.066,0.317C149.045,303.266,149.068,303.155,149.095,303.024z"/>
	<path fill="#235599" d="M149.217,302.446c-0.012,0.055-0.025,0.115-0.035,0.166C149.192,302.563,149.206,302.5,149.217,302.446z"/>
	<path fill="#235599" d="M149.865,299.552c0.029-0.122,0.059-0.249,0.089-0.375C149.924,299.305,149.894,299.43,149.865,299.552z"/>
	<path fill="#235599" d="M151.896,291.98c0.043-0.143,0.084-0.282,0.129-0.427C151.98,291.698,151.939,291.837,151.896,291.98z"/>
	<path fill="#235599" d="M150.513,296.927c-0.04,0.151-0.077,0.3-0.115,0.448C150.436,297.228,150.474,297.078,150.513,296.927z"/>
	<path fill="#235599" d="M149.355,301.801c-0.017,0.078-0.034,0.158-0.05,0.23C149.321,301.96,149.339,301.877,149.355,301.801z"/>
	<path fill="#235599" d="M149.646,300.493c0.024-0.105,0.051-0.219,0.076-0.33C149.696,300.274,149.67,300.387,149.646,300.493z"/>
	<path fill="#235599" d="M149.459,301.323c0.021-0.091,0.043-0.191,0.064-0.286C149.502,301.134,149.48,301.231,149.459,301.323z"/>
	<path fill="#235599" d="M152.488,290.072c-0.039,0.122-0.075,0.24-0.113,0.361C152.413,290.313,152.449,290.194,152.488,290.072z"
		/>
	<path fill="#235599" d="M152.953,288.661c0.011-0.033,0.022-0.066,0.033-0.1C152.974,288.595,152.964,288.628,152.953,288.661z"/>
	<path fill="#FFDFA2" d="M253.104,120.303c0.154,0.044,0.307,0.087,0.457,0.131C253.41,120.391,253.26,120.347,253.104,120.303z"/>
	<path fill="#FFDFA2" d="M258.714,122.232c-0.052-0.023-0.103-0.046-0.156-0.07C258.611,122.186,258.662,122.208,258.714,122.232z"
		/>
	<path fill="#FFDFA2" d="M253.956,120.55c0.138,0.041,0.275,0.082,0.41,0.123C254.231,120.631,254.094,120.59,253.956,120.55z"/>
	<path fill="#FFDFA2" d="M249.989,119.492c0.218,0.052,0.435,0.105,0.649,0.158C250.424,119.597,250.207,119.544,249.989,119.492z"
		/>
	<path fill="#FFDFA2" d="M247.508,118.938c0.777,0.161,1.55,0.333,2.306,0.512C249.057,119.271,248.285,119.1,247.508,118.938z"/>
	<path fill="#FFDFA2" d="M254.826,120.813c0.104,0.033,0.212,0.066,0.315,0.098C255.038,120.879,254.931,120.846,254.826,120.813z"
		/>
	<path fill="#FFDFA2" d="M250.879,119.71c0.21,0.053,0.421,0.106,0.629,0.16C251.3,119.816,251.09,119.764,250.879,119.71z"/>
	<path fill="#FFDFA2" d="M251.642,119.906c0.381,0.1,0.755,0.201,1.122,0.303C252.396,120.106,252.022,120.006,251.642,119.906z"/>
	<path fill="#FFDFA2" d="M240.308,135.712c0.322-2.704,5.17-4.506,7.754-0.901c2.585,3.605,6.14,2.704,9.047,2.103
		c2.908-0.601,2.263-7.21-1.292-11.416c-2.885-3.414-14.285-6.63-18.477-7.72c-2.071,0.064-3.688,0.437-4.464,1.261
		c-3.394,3.605-6.302,16.223-1.454,18.926c0.417,0.233,0.848,0.438,1.282,0.631C236.228,139.141,240.061,137.778,240.308,135.712z"
		/>
	<path fill="#FFDFA2" d="M246.613,118.759c-3.32-0.645-6.658-1.061-9.271-0.981C239.954,117.698,243.296,118.115,246.613,118.759z"
		/>
	<path fill="#FFDFA2" d="M259.163,122.446c-0.041-0.021-0.087-0.042-0.13-0.064C259.076,122.404,259.122,122.425,259.163,122.446z"
		/>
	<path fill="#FFDFA2" d="M258.032,121.938c0.041,0.017,0.077,0.032,0.117,0.049C258.109,121.971,258.073,121.955,258.032,121.938z"
		/>
	<path fill="#FFDFA2" d="M256.556,121.384c0.09,0.031,0.179,0.063,0.265,0.094C256.733,121.447,256.646,121.415,256.556,121.384z"/>
	<path fill="#FFDFA2" d="M255.843,121.14c0.091,0.03,0.179,0.061,0.269,0.091C256.021,121.2,255.934,121.17,255.843,121.14z"/>
	<path fill="#FFDFA2" d="M257.263,121.64c0.064,0.024,0.133,0.049,0.196,0.073C257.396,121.688,257.327,121.664,257.263,121.64z"/>
	<path fill="#FFDFA2" d="M238.805,140.036c-1.941-0.08-4.095-0.55-6.1-1.439C234.712,139.486,236.862,139.958,238.805,140.036z"/>
	<path fill="#FFDFA2" d="M243.63,139.125c-0.072,0.043-0.154,0.081-0.231,0.121C243.476,139.207,243.558,139.168,243.63,139.125z"/>
	<path fill="#FFDFA2" d="M243.073,139.405c-0.093,0.04-0.19,0.076-0.289,0.111C242.883,139.48,242.98,139.445,243.073,139.405z"/>
	<path fill="#FFDFA2" d="M242.449,139.633c-0.112,0.035-0.229,0.066-0.346,0.097C242.221,139.7,242.337,139.668,242.449,139.633z"/>
	<path fill="#FFDFA2" d="M241.771,139.811c-0.134,0.029-0.269,0.054-0.407,0.078C241.502,139.865,241.637,139.84,241.771,139.811z"
		/>
	<path fill="#FFDFA2" d="M246.668,118.77c0.265,0.052,0.529,0.104,0.794,0.159C247.197,118.875,246.933,118.822,246.668,118.77z"/>
	<path fill="#FFDFA2" d="M244.111,138.795c-0.05,0.041-0.109,0.076-0.162,0.115C244.002,138.871,244.062,138.836,244.111,138.795z"
		/>
	<path fill="#FFDFA2" d="M241.046,139.938c-0.156,0.021-0.313,0.041-0.476,0.056C240.732,139.978,240.89,139.959,241.046,139.938z"
		/>
	<path fill="#FFDFA2" d="M239.531,140.045c-0.22,0.002-0.442,0.002-0.668-0.006C239.09,140.047,239.312,140.048,239.531,140.045z"/>
	<path fill="#FFDFA2" d="M240.294,140.015c-0.185,0.013-0.369,0.024-0.56,0.028C239.925,140.039,240.109,140.028,240.294,140.015z"
		/>
	<path fill="#FDCA80" d="M258.032,121.938c-0.182-0.074-0.373-0.149-0.573-0.226c-0.063-0.024-0.132-0.049-0.196-0.073
		c-0.144-0.054-0.291-0.107-0.442-0.162c-0.086-0.031-0.175-0.063-0.265-0.094c-0.145-0.051-0.293-0.102-0.444-0.153
		c-0.09-0.03-0.178-0.061-0.269-0.091c-0.229-0.076-0.461-0.151-0.701-0.228c-0.104-0.032-0.211-0.065-0.315-0.098
		c-0.151-0.047-0.304-0.094-0.46-0.141c-0.135-0.041-0.272-0.082-0.41-0.123c-0.13-0.039-0.262-0.077-0.395-0.116
		c-0.15-0.043-0.303-0.087-0.457-0.131c-0.112-0.032-0.227-0.063-0.341-0.095c-0.367-0.102-0.741-0.203-1.122-0.303
		c-0.045-0.012-0.089-0.023-0.134-0.035c-0.208-0.054-0.419-0.107-0.629-0.16c-0.08-0.02-0.159-0.04-0.24-0.06
		c-0.215-0.053-0.432-0.106-0.649-0.158c-0.058-0.014-0.116-0.028-0.176-0.042c-0.756-0.18-1.528-0.351-2.306-0.512
		c-0.016-0.003-0.03-0.006-0.046-0.009c-0.265-0.055-0.529-0.107-0.794-0.159c-0.019-0.003-0.037-0.007-0.055-0.011
		c-3.317-0.644-6.659-1.061-9.271-0.981c0,0-0.001,0-0.002,0l0,0c4.191,1.09,15.592,4.306,18.477,7.72
		c3.555,4.206,4.2,10.814,1.292,11.416c-2.907,0.601-6.462,1.502-9.047-2.103c-2.584-3.605-7.432-1.803-7.754,0.901
		c-0.247,2.066-4.08,3.429-7.604,2.884l0,0l0.001,0c2.005,0.889,4.158,1.359,6.1,1.439c0.02,0,0.039,0.002,0.059,0.003
		c0.226,0.009,0.448,0.009,0.668,0.006c0.067,0,0.136,0,0.203-0.002c0.19-0.004,0.375-0.016,0.56-0.028
		c0.092-0.006,0.186-0.013,0.276-0.021c0.162-0.015,0.319-0.034,0.476-0.056c0.107-0.015,0.213-0.031,0.317-0.049
		c0.139-0.023,0.273-0.049,0.407-0.078c0.113-0.025,0.224-0.052,0.333-0.081c0.117-0.03,0.233-0.062,0.346-0.097
		c0.115-0.036,0.226-0.077,0.335-0.117c0.099-0.036,0.196-0.071,0.289-0.111c0.113-0.049,0.219-0.104,0.325-0.158
		c0.077-0.04,0.159-0.078,0.231-0.121c0.114-0.067,0.216-0.141,0.319-0.215c0.053-0.039,0.112-0.074,0.162-0.115
		c0.146-0.119,0.279-0.245,0.396-0.379c1.669-1.939,3.338-1.202,5.315,1.914c2.529-1.059,5.338-1.341,7.866-1.278l0,0l0,0
		c3.486,0.086,6.435,0.824,7.357,1.08c-0.681-4.858-2.518-15.746-5.515-17.488c-0.109-0.063-0.235-0.13-0.369-0.198
		c-0.041-0.021-0.087-0.042-0.13-0.064c-0.101-0.049-0.207-0.1-0.319-0.15c-0.052-0.023-0.103-0.046-0.156-0.07
		c-0.022-0.01-0.044-0.02-0.068-0.031l0,0c-0.107-0.047-0.223-0.095-0.34-0.144C258.109,121.971,258.073,121.955,258.032,121.938z"
		/>
	<path fill="#FFDFA2" d="M88.227,269.07c-0.167-0.021-0.334-0.045-0.502-0.07C87.893,269.025,88.06,269.049,88.227,269.07z"/>
	<path fill="#FFDFA2" d="M91.974,269.316c0.113-0.001,0.224-0.002,0.336-0.005C92.198,269.314,92.087,269.315,91.974,269.316z"/>
	<path fill="#FFDFA2" d="M89.687,269.226c-0.163-0.013-0.326-0.027-0.49-0.043C89.362,269.198,89.524,269.213,89.687,269.226z"/>
	<path fill="#FFDFA2" d="M86.833,268.853c-0.176-0.032-0.352-0.064-0.529-0.1C86.48,268.788,86.656,268.82,86.833,268.853z"/>
	<path fill="#FFDFA2" d="M93.546,269.257c-0.117,0.009-0.236,0.017-0.355,0.022C93.311,269.273,93.429,269.266,93.546,269.257z"/>
	<path fill="#FFDFA2" d="M91.012,269.301c-0.148-0.004-0.297-0.011-0.448-0.019C90.714,269.29,90.863,269.297,91.012,269.301z"/>
	<path fill="#FFDFA2" d="M95.742,268.972c-0.084,0.017-0.169,0.033-0.256,0.049C95.573,269.005,95.658,268.989,95.742,268.972z"/>
	<path fill="#FFDFA2" d="M96.611,268.772c-0.011,0.003-0.021,0.006-0.031,0.009C96.59,268.778,96.6,268.775,96.611,268.772z"/>
	<path fill="#FFDFA2" d="M94.584,266.391c2.262-1.201,1.616-6.008-0.646-6.308c-2.262-0.301-3.231-3.605-1.938-6.31
		c1.292-2.703-3.231-5.407-6.786-4.506c-2.856,0.725-9.987-2.624-12.678-3.967c0-0.001,0-0.002,0-0.002
		c0.464,1.404,0.885,3.658,0.885,4.87c0,2.253-2.908,10.814,4.362,15.321c2.419,1.499,5.104,2.49,7.738,3.092
		C89.288,268.622,92.821,267.328,94.584,266.391z M74.905,254.772c4.221,9.979,12.281,11.13,12.281,11.13
		C75.288,267.438,74.905,254.772,74.905,254.772z"/>
	<path fill="#FFDFA2" d="M94.64,269.151c-0.052,0.007-0.104,0.014-0.156,0.021C94.537,269.165,94.587,269.158,94.64,269.151z"/>
	<path fill="#FFDFA2" d="M97.51,268.475c-0.057,0.022-0.116,0.044-0.176,0.066C97.395,268.519,97.453,268.497,97.51,268.475z"/>
	<path fill="#036CB2" d="M72.319,244.716l10.787-0.59c0.924-2.497,1.264-5.843,0.008-10.18c-3.393-11.716,1.938-23.882,9.208-34.697
		c7.27-10.814,13.086-12.617,15.509-13.067c2.423-0.451,3.877,3.604,1.454,9.913c0,0,0.466,32.813,11.397,48.57
		c3.415-3.023,7.596-5.288,11.609-6.962l0,0c0.001-0.001,0.003-0.001,0.005-0.002c5.178-2.158,10.063-3.33,12.645-3.855
		c1.68-9.9,10.897-17.474,22.019-17.474c9.087,0,16.9,5.059,20.372,12.311c9.68-6.654,12.808-30.029,2.893-38.445
		c-2.317-1.968-5.415-3.462-8.859-4.604c-2.56,0.755-4.677,1.042-5.847,0.676c-0.211-0.065-0.45-0.119-0.69-0.171
		c-0.084,0.137-0.175,0.271-0.277,0.398c3.354,1.025,4.745,4.444,3.753,7.129c-1.541,4.167,0.466,8.36,0.466,8.36
		c-5.574-1.768-9.29-5.566-11.075-8.846c-0.335,1.479-1.128,3.283-2.518,5.509c-5.584,8.943-9.75,4.542-9.75,4.542
		s2.944-5.276,2.097-9.604c-0.473-2.417,0.977-4.466,2.35-5.808c-0.608-0.26-1.145-0.558-1.607-0.885
		c-2.821,0.389-5.759,0.836-8.68,1.285c-10.646,1.638-29.48-13.649-29.48-13.649l6.034-0.16c-5.189-3.801-9.772-8.426-13.556-13.706
		l-3.3,0.241c0,0-21.325,9.013-29.08,23.432c-7.754,14.419-14.54,46.863-8.724,60.383C71.666,243.737,71.989,243.943,72.319,244.716
		z M113.667,199.123c-0.384,9.211,7.292,37.611,7.292,37.611C111.364,221.383,113.667,199.123,113.667,199.123z M76.824,201.042
		c0,0-4.156,29.429-4.222,36.844C72.602,237.886,69.531,217.929,76.824,201.042z"/>
	<path fill="#036CB2" d="M213.655,156.589c0.447,0.077,0.896,0.154,1.345,0.232C214.551,156.743,214.103,156.666,213.655,156.589z"
		/>
	<path fill="#036CB2" d="M213.159,156.504c-0.478-0.082-0.954-0.162-1.428-0.242v0C212.205,156.342,212.681,156.422,213.159,156.504
		z"/>
	<path fill="#036CB2" d="M265.312,140.207c0.023,0.007,0.037,0.011,0.037,0.011S265.335,140.214,265.312,140.207z"/>
	<path fill="#036CB2" d="M225.12,171.311c4.362,2.253,19.388,0.902,27.627-5.858c7.373-6.048,5.433-22.919,4.942-26.401
		c-2.528-0.063-5.337,0.219-7.866,1.278c-1.021,0.428-2,0.98-2.892,1.691c0,0-0.97,10.815-3.878,16.223
		c-1.434,2.666-10.172,1.607-20.058-0.042C221.37,162.638,222.019,169.708,225.12,171.311z M249.91,145.393
		c3.839,16.119-6.14,18.038-6.14,18.038C250.295,158.441,249.91,145.393,249.91,145.393z"/>
	<path fill="#036CB2" d="M91.234,245.425c0.372-0.202,0.737-0.418,1.089-0.663C91.971,245.007,91.605,245.223,91.234,245.425z"/>
	<path fill="#036CB2" d="M265.193,140.172c0.047,0.014,0.081,0.023,0.106,0.031C265.274,140.196,265.239,140.186,265.193,140.172z"
		/>
	<path fill="#036CB2" d="M90.745,245.666c0.004,0.004,0.008,0.007,0.012,0.011c0.083-0.041,0.165-0.086,0.248-0.129
		C90.92,245.592,90.831,245.625,90.745,245.666z"/>
	<path fill="#036CB2" d="M265.19,140.172c-0.041-0.012-0.087-0.025-0.144-0.04c-0.923-0.256-3.871-0.994-7.357-1.08
		C261.383,139.144,264.472,139.966,265.19,140.172z"/>
	<path fill="#036CB2" d="M72.319,244.716l-0.837,0.046c0,0,0.362,0.148,0.992,0.37C72.422,244.985,72.371,244.837,72.319,244.716z"
		/>
	<path fill="#235599" d="M211.354,156.686c-0.342,0.567-0.695,1.126-1.055,1.68c-0.091,0.14-0.186,0.277-0.276,0.417
		c-0.422,0.638-0.854,1.267-1.298,1.887c-0.087,0.122-0.172,0.246-0.26,0.367c-0.494,0.68-1.004,1.348-1.523,2.006
		c-0.128,0.161-0.257,0.321-0.387,0.482c-0.534,0.662-1.077,1.316-1.638,1.955c-0.042,0.048-0.085,0.094-0.127,0.142
		c-0.534,0.604-1.082,1.194-1.639,1.776c-0.139,0.146-0.277,0.292-0.418,0.437c-0.579,0.594-1.169,1.176-1.771,1.745
		c-0.129,0.122-0.26,0.24-0.389,0.36c-0.547,0.507-1.101,1.004-1.665,1.491c-0.115,0.1-0.229,0.202-0.345,0.301
		c-0.312,0.265-0.63,0.524-0.947,0.783l4.652-0.123c-3.596,5.594-13.915,11.184-20.903,13.245c3.444,1.142,6.542,2.636,8.859,4.604
		c9.915,8.416,6.787,31.791-2.893,38.445c0.399,0.832,0.74,1.693,1.021,2.58c9.838,1.429,16.349,4.137,19.383,5.939
		c0.421-5.121,2.984-33.59,9.146-48.317c0,0,4.979-0.712,11.983-2.08c15.291-2.984,40.249-9.094,44.237-17.747
		c5.816-12.617-7.754-28.839-7.754-28.839s-0.014-0.004-0.037-0.011c-0.004-0.001-0.008-0.002-0.012-0.003
		c-0.025-0.008-0.06-0.018-0.106-0.031c-0.001,0-0.003,0-0.003,0c-0.719-0.206-3.808-1.028-7.501-1.12l0,0l0,0
		c0.49,3.482,2.431,20.353-4.942,26.401c-8.239,6.76-23.265,8.111-27.627,5.858c-3.102-1.602-3.75-8.672-2.124-13.11l0,0
		c-2.623-0.438-5.325-0.917-7.996-1.38c-0.449-0.078-0.897-0.155-1.345-0.232c-0.165-0.028-0.33-0.057-0.496-0.085
		c-0.479-0.082-0.954-0.162-1.428-0.241C211.577,156.438,211.448,156.583,211.354,156.686z"/>
	<path fill="#235599" d="M107.832,186.182c-2.423,0.45-8.239,2.253-15.509,13.067c-7.27,10.815-12.602,22.981-9.208,34.697
		c1.256,4.337,0.916,7.683-0.008,10.18l4.855-0.266c0.672,0.125,1.679,0.839,2.784,1.806c0.086-0.041,0.175-0.074,0.26-0.118
		c0.077-0.039,0.153-0.082,0.229-0.123c0.372-0.202,0.737-0.418,1.089-0.663c0,0-6.136-26.192,8.399-42.053
		c2.302-2.512,5.119-4.766,8.564-6.614C111.709,189.786,110.255,185.73,107.832,186.182z"/>
	<path fill="#EC1C24" d="M157.016,185.64c-11.464-0.71-22.05-4.765-30.875-11.228l-6.034,0.16c0,0,18.834,15.287,29.48,13.649
		c2.921-0.449,5.859-0.896,8.68-1.285C157.719,186.548,157.291,186.113,157.016,185.64z"/>
	<path fill="#EC1C24" d="M202.27,172.389l-4.652,0.123c-0.325,0.265-0.651,0.527-0.981,0.785c-0.166,0.129-0.332,0.257-0.499,0.384
		c-0.661,0.505-1.329,1.002-2.011,1.48c0.001-0.001,0.001-0.001,0.002-0.002c-5.638,3.951-11.964,6.928-18.752,8.708
		c0.039,0.42,0.006,0.867-0.129,1.351c-0.093,0.332-0.241,0.634-0.417,0.921c0.24,0.052,0.479,0.105,0.69,0.171
		c1.17,0.366,3.287,0.079,5.847-0.676C188.354,183.572,198.674,177.982,202.27,172.389z"/>
	<path fill="#EC1C24" d="M159.875,187.82c-1.373,1.342-2.823,3.391-2.35,5.808c0.847,4.327-2.097,9.604-2.097,9.604
		s4.167,4.401,9.75-4.542c1.39-2.226,2.183-4.03,2.518-5.509c1.785,3.279,5.501,7.078,11.075,8.846c0,0-2.007-4.193-0.466-8.36
		c0.992-2.685-0.399-6.104-3.753-7.129C172.023,189.71,164.306,189.709,159.875,187.82z"/>
	<path fill="#C9171E" d="M175.375,183.867c-4.713,1.234-9.648,1.896-14.732,1.896c-1.219,0-2.426-0.05-3.627-0.124
		c0.275,0.474,0.703,0.908,1.252,1.296c0.462,0.327,0.999,0.625,1.607,0.885c4.431,1.889,12.148,1.89,14.678-1.283
		c0.102-0.127,0.193-0.262,0.277-0.398c0.175-0.287,0.324-0.589,0.417-0.921C175.382,184.734,175.415,184.287,175.375,183.867z"/>
	<path fill="#FDCA80" d="M94.64,269.151c0.293-0.037,0.575-0.082,0.847-0.131c0.086-0.016,0.172-0.032,0.256-0.049
		c0.292-0.057,0.575-0.119,0.838-0.19c0.01-0.003,0.02-0.006,0.031-0.009c0.258-0.07,0.497-0.149,0.724-0.231
		c0.06-0.022,0.119-0.044,0.176-0.066c0.226-0.089,0.44-0.181,0.628-0.281c3.393-1.803,4.362-9.913,1.454-10.364
		c-1.406-0.218-2.016-1.489-2.274-2.745c-0.275-1.341-0.149-2.662-0.149-2.662s-3.534-4.224-6.412-6.745
		c-0.004-0.004-0.008-0.007-0.012-0.011c-1.105-0.967-2.112-1.681-2.784-1.806l-4.855,0.266l-10.787,0.59
		c0.051,0.121,0.103,0.27,0.154,0.416c0.021,0.059,0.042,0.104,0.063,0.167c0,0,0,0.001,0,0.002
		c2.691,1.343,9.822,4.691,12.678,3.967c3.554-0.901,8.078,1.803,6.786,4.506c-1.292,2.704-0.324,6.009,1.938,6.31
		c2.262,0.3,2.908,5.106,0.646,6.308c-1.763,0.938-5.296,2.231-9.064,2.191c-0.008,0-0.017,0-0.025,0
		c0.27,0.062,0.539,0.117,0.808,0.171c0.177,0.035,0.353,0.067,0.529,0.1c0.299,0.054,0.596,0.103,0.892,0.147
		c0.168,0.025,0.336,0.049,0.502,0.07c0.327,0.044,0.65,0.081,0.971,0.112c0.164,0.016,0.327,0.03,0.49,0.043
		c0.295,0.023,0.588,0.043,0.877,0.057c0.15,0.008,0.3,0.015,0.448,0.019c0.326,0.011,0.647,0.017,0.962,0.016
		c0.113-0.001,0.225-0.002,0.336-0.005c0.3-0.005,0.594-0.016,0.882-0.032c0.119-0.006,0.238-0.014,0.355-0.022
		c0.081-0.005,0.165-0.01,0.245-0.016c0.236-0.02,0.467-0.044,0.692-0.069C94.536,269.165,94.587,269.158,94.64,269.151z"/>
	<path fill="#FDCA80" d="M72.319,244.716c-0.331-0.772-0.653-0.979-0.837,0.046L72.319,244.716z"/>
	<path fill="#FFDFA2" d="M126.142,174.412c8.825,6.463,19.411,10.518,30.875,11.228c1.201,0.074,2.408,0.124,3.627,0.124
		c5.084,0,10.019-0.662,14.732-1.896c6.789-1.78,13.115-4.758,18.752-8.708c10.602-12.567,17.66-37.539,11.904-48.572
		c-6.142-11.769-14.584-17.142-14.584-17.142c0.767,3.582,4.093,8.188,4.093,8.188c-9.467-3.582-12.793-15.863-12.793-15.863
		c-13.304,13.305-38.378,13.049-38.378,13.049c6.396-2.303,9.467-7.42,9.467-7.42c-5.117,4.094-14.072,4.35-21.492,5.885
		s-14.584,6.652-14.584,6.652c0-4.861,6.652-8.443,6.652-8.443c-5.667,0.81-11.127,7.355-14.374,12.055
		c-1.551,3.956-2.597,8.521-2.896,13.787c0,0-2.323-4.92-2.094-12.203l-0.325-0.537c-0.85,6.216-1.207,18.034,5.105,30.395
		c0,0-0.459-0.187-1.224-0.633c1.206,2.203,2.53,4.327,3.98,6.351C116.37,165.986,120.953,170.611,126.142,174.412z M167.82,129.67
		c5.474-6.03,11.312-8.885,17.335-8.515c9.109,0.575,14.801,8.556,15.039,8.895c1.228,1.752,0.802,4.168-0.95,5.395
		c-0.677,0.474-1.452,0.701-2.219,0.701c-1.216,0-2.411-0.57-3.166-1.636c-0.071-0.099-3.888-5.316-9.236-5.625
		c-3.543-0.216-7.271,1.81-11.067,5.992c-1.438,1.584-3.887,1.702-5.472,0.265C166.501,133.704,166.382,131.254,167.82,129.67z
		 M121.472,130.201c0.238-0.34,5.93-8.32,15.039-8.895c6.023-0.39,11.861,2.484,17.335,8.514c1.438,1.583,1.319,4.033-0.264,5.471
		c-1.584,1.438-4.034,1.32-5.472-0.265c-3.812-4.199-7.555-6.219-11.111-5.988c-5.346,0.336-9.145,5.555-9.182,5.608
		c-0.754,1.076-1.956,1.651-3.176,1.651c-0.768,0-1.543-0.227-2.219-0.701C120.67,134.369,120.245,131.953,121.472,130.201z
		 M110.597,148.463c0,0,16.887,26.481,32.622,31.47C143.219,179.934,120.872,176.42,110.597,148.463z"/>
	<path fill="#FFDFA2" d="M208.725,160.668c-0.087,0.122-0.172,0.246-0.26,0.367C208.553,160.914,208.638,160.791,208.725,160.668z"
		/>
	<path fill="#FFDFA2" d="M206.941,163.041c-0.128,0.161-0.257,0.321-0.387,0.482C206.685,163.362,206.813,163.202,206.941,163.041z"
		/>
	<path fill="#FFDFA2" d="M203.151,167.396c-0.139,0.146-0.277,0.292-0.418,0.437C202.874,167.688,203.013,167.542,203.151,167.396z"
		/>
	<path fill="#FFDFA2" d="M204.917,165.478c-0.042,0.048-0.085,0.094-0.127,0.142C204.832,165.571,204.875,165.525,204.917,165.478z"
		/>
	<path fill="#FFDFA2" d="M210.299,158.365c-0.091,0.14-0.186,0.277-0.276,0.417C210.113,158.643,210.208,158.505,210.299,158.365z"
		/>
	<path fill="#FFDFA2" d="M200.963,169.577c-0.129,0.122-0.26,0.24-0.389,0.36C200.703,169.817,200.834,169.699,200.963,169.577z"/>
	<path fill="#FFDFA2" d="M198.909,171.428c-0.115,0.1-0.229,0.202-0.345,0.301C198.681,171.63,198.794,171.528,198.909,171.428z"/>
	<path fill="#FFDFA2" d="M196.636,173.297c-0.166,0.129-0.333,0.257-0.499,0.384C196.304,173.554,196.47,173.426,196.636,173.297z"
		/>
	<path fill="#3B2314" d="M122.422,135.596c0.676,0.474,1.452,0.701,2.219,0.701c1.22,0,2.422-0.575,3.176-1.651
		c0.037-0.053,3.835-5.271,9.182-5.608c3.556-0.231,7.299,1.789,11.111,5.988c1.438,1.585,3.888,1.703,5.472,0.265
		c1.583-1.438,1.702-3.888,0.264-5.471c-5.474-6.03-11.312-8.904-17.335-8.514c-9.109,0.574-14.801,8.555-15.039,8.895
		C120.245,131.953,120.67,134.369,122.422,135.596z"/>
	<path fill="#FFC50A" d="M149.081,253.089c-0.198,0.043-0.391,0.087-0.586,0.131C148.69,253.176,148.883,253.132,149.081,253.089z"
		/>
	<path fill="#FFC50A" d="M151.033,252.682c-0.268,0.054-0.533,0.108-0.797,0.163C150.5,252.79,150.765,252.735,151.033,252.682z"/>
	<path fill="#FFC50A" d="M141.76,244.344c-1.594-4.805-7.423-6.269-9.467-6.641c-4.013,1.674-8.195,3.938-11.609,6.962
		c-0.682,0.603-1.333,1.234-1.946,1.898c-2.908,3.155,2.181,13.97,5.089,14.646c0.188,0.044,0.426,0.038,0.709-0.007
		c2.242-0.355,7.517-3.311,16.59-6.051C144.19,252.353,143.269,248.892,141.76,244.344z M121.727,253.62
		c0,0-1.919-3.069-0.768-5.372s10.362-7.292,10.362-7.292C120.959,249.783,121.727,253.62,121.727,253.62z"/>
	<path fill="#FFC50A" d="M144.942,233.846c-2.581,0.525-7.467,1.697-12.645,3.855C137.474,235.543,142.36,234.373,144.942,233.846
		C144.942,233.847,144.942,233.847,144.942,233.846z"/>
	<path fill="#3B2314" d="M173.556,134.877c3.796-4.182,7.524-6.208,11.067-5.992c5.349,0.309,9.165,5.527,9.236,5.625
		c0.755,1.066,1.95,1.636,3.166,1.636c0.767,0,1.542-0.227,2.219-0.701c1.752-1.227,2.178-3.643,0.95-5.395
		c-0.238-0.339-5.93-8.32-15.039-8.895c-6.023-0.37-11.861,2.484-17.335,8.515c-1.438,1.583-1.319,4.033,0.264,5.471
		C169.669,136.579,172.119,136.461,173.556,134.877z"/>
	<path fill="#F7981D" d="M144.667,237.101c0-1.107,0.096-2.193,0.276-3.254c-2.582,0.526-7.468,1.696-12.645,3.854
		c-0.002,0.001-0.004,0.001-0.005,0.002l0,0c2.044,0.372,7.873,1.836,9.467,6.641c1.509,4.548,2.431,8.009-0.634,10.808l0,0
		c2.223-0.671,4.679-1.328,7.37-1.932c0.195-0.044,0.388-0.088,0.586-0.131c0.379-0.083,0.766-0.164,1.154-0.244
		c0.264-0.055,0.529-0.109,0.797-0.163c0.327-0.065,0.659-0.129,0.993-0.192C147.507,248.695,144.667,243.207,144.667,237.101z"/>
	<path fill="#F7981D" d="M189.256,237.101c0,5.094-1.979,9.756-5.259,13.365c19.419,0.933,21.135,5.854,23.191,6.237
		c0.174,0.032,0.354-0.028,0.539-0.154l0,0c2.396-1.629,5.414-15.634,0.915-18.771c-0.254-0.178-0.563-0.372-0.906-0.575
		c-3.034-1.803-9.545-4.511-19.383-5.939C188.937,233.115,189.256,235.073,189.256,237.101z"/>
	<path fill="#EC1C24" d="M183.997,250.466c3.279-3.609,5.259-8.271,5.259-13.365c0-2.027-0.319-3.985-0.902-5.838
		c-0.28-0.887-0.621-1.748-1.021-2.58c-3.472-7.252-11.284-12.311-20.372-12.311c-11.122,0-20.339,7.573-22.019,17.474
		c0,0.001,0,0.001,0,0.001c-0.18,1.061-0.276,2.146-0.276,3.254c0,6.106,2.841,11.595,7.359,15.389
		c3.953,3.318,9.19,5.34,14.936,5.34c3.992,0,7.736-0.98,10.977-2.689C180.246,253.923,182.297,252.338,183.997,250.466z
		 M161.641,219.464c0,0-13.433,6.908-14.968,22.644C146.672,242.107,142.835,225.221,161.641,219.464z M150.967,237.101
		c0-8.212,7.161-14.87,15.994-14.87c8.833,0,15.994,6.658,15.994,14.87c0,8.213-7.16,14.871-15.994,14.871
		C158.128,251.972,150.967,245.313,150.967,237.101z"/>
	<path fill="#FFFFFF" d="M182.955,237.101c0-8.212-7.16-14.87-15.994-14.87c-8.833,0-15.994,6.658-15.994,14.87
		c0,8.213,7.161,14.871,15.994,14.871C175.795,251.972,182.955,245.313,182.955,237.101z M154.878,232.804h9.252l2.859-8.798
		l2.859,8.798h9.251l-7.485,5.439l2.859,8.799l-7.485-5.438l-7.485,5.438l2.859-8.799L154.878,232.804z"/>
	<path fill="#EC1C24" d="M150.409,284.269c-0.214-0.039-0.425-0.07-0.637-0.102C149.983,284.198,150.195,284.229,150.409,284.269z"
		/>
	<path fill="#EC1C24" d="M152.251,284.703c-0.16-0.048-0.32-0.087-0.48-0.129C151.931,284.616,152.091,284.655,152.251,284.703z"/>
	<path fill="#EC1C24" d="M142.832,303.479c2.661-1.228,2.457-1.842,2.252-4.503c-0.176-2.28,1.451-12.213,1.921-15.019
		c0.264,0.003,0.534,0.01,0.808,0.023c-0.116-0.007-0.234-0.016-0.349-0.019c-2.665-0.079-4.889,0.358-5.86,0.683
		c-1.843,0.614-3.275,5.527-5.323,5.937c-1.15,0.23-2.947-1.155-4.301-2.414l0,0l0,0c0.229,0.58,0.461,1.152,0.699,1.714
		c0.006,0.014,0.011,0.027,0.017,0.041c0.232,0.549,0.468,1.088,0.708,1.616c0.011,0.023,0.021,0.047,0.032,0.07
		c0.236,0.518,0.476,1.023,0.719,1.518c0.015,0.031,0.03,0.062,0.045,0.093c0.241,0.485,0.485,0.958,0.733,1.418
		c0.019,0.034,0.037,0.068,0.056,0.103c0.247,0.455,0.498,0.896,0.752,1.322c0.02,0.033,0.039,0.066,0.059,0.101
		c0.256,0.426,0.517,0.837,0.78,1.232c0.018,0.026,0.035,0.054,0.053,0.079c0.27,0.4,0.543,0.783,0.82,1.148
		c0.012,0.015,0.023,0.031,0.035,0.047c0.288,0.377,0.581,0.733,0.877,1.068c0,0-0.613,0.392-1.495,0.995
		c-2.254,1.544-6.26,4.468-6.26,5.764C133.745,306.238,140.17,304.707,142.832,303.479z"/>
	<path fill="#EC1C24" d="M151.322,284.457c-0.188-0.044-0.375-0.081-0.563-0.118C150.947,284.376,151.134,284.413,151.322,284.457z"
		/>
	<path fill="#EC1C24" d="M149.515,284.129c-0.237-0.031-0.472-0.056-0.705-0.078C149.043,284.072,149.278,284.098,149.515,284.129z"
		/>
	<path fill="#EC1C24" d="M148.648,284.035c-0.259-0.022-0.514-0.039-0.766-0.052C148.135,283.995,148.39,284.013,148.648,284.035z"
		/>
	<path fill="#EC1C24" d="M153.185,285.011c-0.123-0.045-0.246-0.082-0.369-0.123C152.938,284.929,153.062,284.966,153.185,285.011z"
		/>
	<path fill="#EC1C24" d="M192.806,302.601c-0.521-0.194-0.987-0.413-1.374-0.66C191.818,302.188,192.283,302.406,192.806,302.601z"
		/>
	<path fill="#EC1C24" d="M194.542,303.117c-0.606-0.145-1.18-0.312-1.697-0.502C193.363,302.806,193.935,302.973,194.542,303.117z"
		/>
	<path fill="#EC1C24" d="M197.845,303.678c0.421,0.048,0.841,0.089,1.255,0.123c0.136,0.011,0.27,0.02,0.403,0.029
		c-0.638-0.046-1.294-0.107-1.949-0.188C197.65,303.653,197.748,303.666,197.845,303.678z"/>
	<path fill="#EC1C24" d="M202.354,303.936c0.056,0,0.114,0.001,0.169,0c0.184-0.001,0.359-0.004,0.528-0.008
		C202.832,303.933,202.599,303.936,202.354,303.936z"/>
	<path fill="#EC1C24" d="M201.383,301.842c-1.434-0.205-5.528-1.843-5.118-3.48c0.389-1.559,0.778-12.364,0.815-13.421
		c0,0,0.001,0,0.001,0.001c-0.095-0.12-0.189-0.25-0.283-0.386c-1.118-1.605-2.205-4.132-3.195-4.415
		c-1.028-0.294-8.381,0.993-12.452,1.744l0.001,0.001c0.307,0.503,0.609,1.008,0.909,1.513c0.003,0.004,0.005,0.008,0.007,0.011
		c0.3,0.505,0.596,1.01,0.887,1.512c0.001,0.001,0.001,0.002,0.002,0.003c1.751,3.021,3.333,5.977,4.572,8.487
		c0.003,0.008,0.007,0.015,0.011,0.022c0.198,0.401,0.387,0.791,0.566,1.168c0.011,0.022,0.021,0.046,0.032,0.068
		c0.172,0.361,0.334,0.71,0.486,1.045c0.017,0.035,0.033,0.071,0.049,0.106c0.147,0.324,0.285,0.636,0.414,0.934
		c0.016,0.036,0.031,0.072,0.048,0.108c0.124,0.292,0.24,0.568,0.345,0.829c0.014,0.035,0.027,0.068,0.041,0.103
		c0.102,0.257,0.194,0.499,0.275,0.724c0.01,0.029,0.02,0.057,0.03,0.084c0.078,0.222,0.147,0.43,0.203,0.615
		c0.007,0.021,0.011,0.039,0.017,0.059c0.055,0.187,0.1,0.356,0.129,0.502c0.002,0.01,0.003,0.019,0.005,0.028
		c0.028,0.149,0.046,0.278,0.046,0.381c0,0.698,0.457,1.276,1.206,1.753c0.257-0.02,0.567,0.012,0.943,0.105
		C196.469,303.069,202.815,302.046,201.383,301.842z"/>
	<path fill="#EC1C24" d="M200.478,303.889c-0.299-0.015-0.605-0.031-0.916-0.055C199.872,303.856,200.178,303.874,200.478,303.889z"
		/>
	<path fill="#EC1C24" d="M197.492,303.635c-1.003-0.126-2.001-0.293-2.922-0.511C195.491,303.342,196.488,303.509,197.492,303.635z"
		/>
	<path fill="#EC1C24" d="M203.787,303.896c0.147-0.009,0.288-0.019,0.415-0.03c0.029-0.003,0.054-0.006,0.081-0.009
		C204.133,303.872,203.969,303.886,203.787,303.896z"/>
	<path fill="#EC1C24" d="M204.373,303.848c0.147-0.017,0.282-0.034,0.392-0.056C204.655,303.813,204.52,303.831,204.373,303.848z"/>
	<path fill="#EC1C24" d="M203.132,303.925c0.199-0.006,0.387-0.014,0.562-0.023C203.519,303.911,203.331,303.919,203.132,303.925z"
		/>
	<path fill="#EC1C24" d="M202.229,303.936c-0.516-0.001-1.075-0.015-1.664-0.042C201.154,303.921,201.714,303.935,202.229,303.936z"
		/>
	<path fill="#EC1C24" d="M197.388,285.299c-0.023-0.025-0.048-0.058-0.072-0.084C197.34,285.241,197.364,285.273,197.388,285.299z"
		/>
	<path fill="#EC1C24" d="M197.623,285.515c0.023,0.021,0.048,0.049,0.072,0.067C197.671,285.563,197.646,285.536,197.623,285.515z"
		/>
	<path fill="#EC1C24" d="M197.927,285.729c0.025,0.015,0.051,0.037,0.077,0.05C197.978,285.767,197.952,285.744,197.927,285.729z"/>
	<path fill="#C9171E" d="M151.596,292.985L151.596,292.985c0.097-0.329,0.197-0.665,0.299-1.003c0-0.001,0-0.001,0-0.002
		c0.043-0.144,0.084-0.282,0.129-0.427l0,0c0.113-0.368,0.231-0.744,0.351-1.12c0.038-0.121,0.074-0.239,0.113-0.361
		c0.149-0.462,0.303-0.93,0.461-1.4c0.001-0.004,0.002-0.007,0.003-0.011c0.011-0.033,0.021-0.066,0.033-0.1v-0.001
		c0.349-1.032,0.722-2.084,1.119-3.142l0,0c0.004-0.012,0.008-0.022,0.012-0.034c-0.309-0.137-0.62-0.261-0.933-0.374
		c-0.123-0.045-0.246-0.082-0.369-0.123c-0.188-0.063-0.376-0.129-0.564-0.185c-0.16-0.048-0.32-0.087-0.48-0.129
		c-0.15-0.04-0.299-0.082-0.449-0.117c-0.188-0.044-0.375-0.081-0.563-0.118c-0.117-0.023-0.234-0.05-0.351-0.07
		c-0.214-0.039-0.426-0.07-0.637-0.102c-0.085-0.013-0.171-0.026-0.257-0.038c-0.236-0.031-0.472-0.057-0.705-0.078
		c-0.054-0.005-0.108-0.011-0.161-0.016c-0.258-0.022-0.514-0.04-0.766-0.052c-0.023-0.001-0.047-0.003-0.07-0.003
		c-0.273-0.014-0.543-0.021-0.808-0.023c-0.47,2.806-2.097,12.738-1.921,15.019c0.205,2.661,0.409,3.275-2.252,4.503
		c-2.662,1.229-9.087,2.76-12.221,3.018c0,0.286,0.455,0.458,1.216,0.537c0.284,0.029,0.608,0.046,0.971,0.051
		c0.006,0,0.011,0,0.017,0c0.769,0.009,1.698-0.037,2.716-0.125c1.273-0.111,2.687-0.291,4.107-0.52
		c0.852-0.138,1.706-0.292,2.533-0.461s1.627-0.352,2.371-0.543c0.248-0.064,0.49-0.13,0.724-0.196
		c0.703-0.198,1.34-0.404,1.883-0.615c0.361-0.141,0.68-0.283,0.949-0.426c0.537-0.286,0.87-0.575,0.931-0.856
		c0.017-0.077,0.039-0.185,0.066-0.317c0.024-0.115,0.054-0.256,0.087-0.412c0.01-0.051,0.023-0.111,0.035-0.166
		c0.027-0.13,0.056-0.265,0.088-0.415c0.016-0.072,0.033-0.152,0.05-0.23c0.033-0.151,0.067-0.308,0.104-0.477v-0.001
		c0.021-0.092,0.043-0.189,0.064-0.286c0-0.002,0-0.003,0-0.003c0.039-0.173,0.079-0.35,0.122-0.538c0-0.001,0-0.001,0-0.003
		c0.024-0.106,0.05-0.219,0.076-0.33c0-0.001,0-0.001,0-0.001c0.045-0.196,0.092-0.399,0.142-0.609l0,0
		c0.029-0.123,0.059-0.248,0.089-0.376c0,0,0-0.001,0-0.002c0.051-0.213,0.104-0.434,0.159-0.659l0-0.001
		c0.034-0.138,0.068-0.277,0.103-0.419l0,0c0.058-0.235,0.119-0.476,0.181-0.721c0.038-0.148,0.076-0.297,0.115-0.448
		c0.065-0.254,0.133-0.514,0.203-0.777l0-0.001c0.041-0.154,0.081-0.308,0.124-0.465c0-0.001,0-0.002,0-0.002
		c0.074-0.276,0.152-0.561,0.231-0.847c0,0,0-0.001,0-0.002c0.043-0.155,0.085-0.308,0.128-0.466h0
		c0.084-0.301,0.172-0.607,0.261-0.917l0-0.001C151.507,293.294,151.55,293.143,151.596,292.985z"/>
	<path fill="#C9171E" d="M201.792,280.755c-1.434,0.205-1.843,5.322-3.48,5.118c-0.103-0.013-0.205-0.046-0.308-0.094
		c-0.026-0.013-0.052-0.035-0.077-0.05c-0.077-0.043-0.154-0.087-0.231-0.147c-0.024-0.019-0.049-0.046-0.072-0.067
		c-0.079-0.066-0.157-0.134-0.235-0.216c-0.023-0.025-0.048-0.058-0.072-0.084c-0.078-0.087-0.156-0.174-0.234-0.273
		c0-0.001-0.001-0.001-0.001-0.001c-0.037,1.057-0.427,11.862-0.815,13.421c-0.41,1.638,3.685,3.275,5.118,3.48
		c1.433,0.204-4.914,1.228-9.008,0.204c-0.376-0.094-0.687-0.125-0.943-0.105l0,0l0,0c0.387,0.247,0.853,0.466,1.374,0.66
		c0.013,0.005,0.025,0.01,0.039,0.015c0.518,0.19,1.091,0.357,1.697,0.502c0.01,0.002,0.019,0.005,0.028,0.007
		c0.921,0.218,1.919,0.385,2.922,0.511c0.021,0.002,0.041,0.005,0.062,0.008c0.655,0.08,1.312,0.142,1.949,0.188
		c0.02,0.001,0.039,0.003,0.059,0.004c0.311,0.023,0.617,0.04,0.916,0.055c0.029,0.002,0.059,0.003,0.088,0.005
		c0.589,0.027,1.148,0.041,1.664,0.042c0.042,0,0.084,0,0.125,0c0.244,0,0.478-0.003,0.697-0.008l0,0
		c0.027-0.001,0.053-0.003,0.08-0.003l0,0c0.199-0.006,0.387-0.014,0.562-0.023l0,0c0.031-0.002,0.063-0.003,0.094-0.005l0,0
		c0.182-0.011,0.346-0.024,0.496-0.039l0,0c0.031-0.003,0.06-0.007,0.09-0.01l0,0c0.146-0.017,0.282-0.034,0.392-0.056
		c0.304-0.056,0.455-0.183,0.488-0.361c0.008-0.044,0.009-0.093,0.003-0.144c-0.012-0.102-0.052-0.216-0.114-0.338
		c-0.031-0.063-0.068-0.126-0.111-0.192c-0.085-0.132-0.191-0.272-0.315-0.418c-0.062-0.073-0.128-0.148-0.197-0.224
		c-0.141-0.152-0.295-0.31-0.461-0.469c-1.575-1.514-4.138-3.262-4.138-3.262s0.009-0.027,0.015-0.046
		c0.005-0.014,0.006-0.019,0.016-0.045c0.016-0.047,0.038-0.117,0.065-0.2c0.006-0.017,0.01-0.029,0.016-0.047
		c0.03-0.093,0.067-0.206,0.109-0.336c0.007-0.021,0.014-0.042,0.021-0.063c0.046-0.144,0.098-0.303,0.155-0.484
		c0.001-0.003,0.002-0.005,0.003-0.008c0.122-0.383,0.27-0.852,0.437-1.393c0.009-0.027,0.018-0.055,0.025-0.082
		c0.082-0.266,0.169-0.547,0.26-0.847c0.005-0.016,0.01-0.031,0.014-0.047c0.191-0.627,0.399-1.325,0.622-2.084
		c0.003-0.011,0.006-0.021,0.009-0.031c0.108-0.371,0.221-0.759,0.335-1.158c0.009-0.029,0.017-0.06,0.025-0.089
		c0.113-0.396,0.229-0.808,0.348-1.23c0.008-0.029,0.017-0.057,0.023-0.085c0.245-0.878,0.499-1.807,0.756-2.778
		c0.003-0.011,0.006-0.021,0.009-0.031c0.125-0.472,0.251-0.954,0.377-1.444c0.012-0.046,0.023-0.092,0.035-0.138
		c0.124-0.483,0.248-0.976,0.372-1.476c0.012-0.044,0.022-0.087,0.032-0.131c0.128-0.516,0.256-1.038,0.383-1.568
		C203.29,281.459,202.384,280.67,201.792,280.755z"/>
	<polygon fill="#EC1C24" points="166.989,241.604 174.474,247.042 171.615,238.243 179.1,232.804 169.848,232.804 166.989,224.006 
		164.13,232.804 154.878,232.804 162.363,238.243 159.504,247.042 	"/>
	<path fill="#FDCA80" d="M196.137,173.681c0.166-0.127,0.333-0.255,0.499-0.384c0.33-0.258,0.656-0.521,0.981-0.785
		c0.317-0.259,0.636-0.518,0.947-0.783c0.116-0.099,0.229-0.201,0.345-0.301c0.564-0.486,1.118-0.983,1.665-1.491
		c0.129-0.12,0.26-0.238,0.389-0.36c0.602-0.569,1.191-1.151,1.771-1.745c0.141-0.144,0.279-0.291,0.418-0.437
		c0.557-0.582,1.104-1.172,1.639-1.776c0.042-0.048,0.085-0.094,0.127-0.142c0.561-0.639,1.104-1.293,1.638-1.955
		c0.13-0.161,0.259-0.321,0.387-0.482c0.52-0.658,1.029-1.326,1.523-2.006c0.088-0.121,0.173-0.245,0.26-0.367
		c0.443-0.62,0.876-1.249,1.298-1.887c0.091-0.139,0.186-0.276,0.276-0.417c0.359-0.554,0.713-1.113,1.055-1.68
		c-0.13,0.143-0.204,0.221-0.204,0.221s10.745-24.946,0.767-51.428c0,0,1.919,13.816-0.384,21.875c0,0-0.768-18.805-15.734-29.167
		c0,0,1.15,5.373,6.523,11.514c0,0-14.2-4.606-17.27-17.271c0,0-13.049,8.443-26.481,14.2c0,0,6.908-5.373,9.979-11.514
		c0,0-22.26,13.816-39.53,14.2c0,0,8.827-5.757,12.665-10.746c0,0-23.242,3.555-31.644,24.976
		c3.247-4.699,8.707-11.245,14.374-12.055c0,0-6.652,3.582-6.652,8.443c0,0,7.164-5.117,14.584-6.652s16.375-1.791,21.492-5.885
		c0,0-3.07,5.117-9.467,7.42c0,0,25.074,0.256,38.378-13.049c0,0,3.326,12.281,12.793,15.863c0,0-3.326-4.605-4.093-8.188
		c0,0,8.442,5.373,14.584,17.142c5.756,11.033-1.303,36.004-11.904,48.572c-0.001,0.001-0.001,0.001-0.002,0.002
		C194.808,174.684,195.476,174.187,196.137,173.681z"/>
	<path fill="#FDCA80" d="M104.724,124.593l0.325,0.537c0.05-1.587,0.216-3.282,0.559-5.067
		C105.607,120.063,105.114,121.738,104.724,124.593z"/>
	<path fill="#3B2314" d="M104.724,124.593c0.39-2.855,0.884-4.53,0.884-4.53c-0.343,1.785-0.509,3.479-0.559,5.067
		c-0.229,7.283,2.094,12.203,2.094,12.203c0.299-5.265,1.345-9.831,2.896-13.787c8.402-21.42,31.644-24.976,31.644-24.976
		c-3.838,4.989-12.665,10.746-12.665,10.746c17.271-0.384,39.53-14.2,39.53-14.2c-3.07,6.141-9.979,11.514-9.979,11.514
		c13.432-5.757,26.481-14.2,26.481-14.2c3.069,12.665,17.27,17.271,17.27,17.271c-5.373-6.141-6.523-11.514-6.523-11.514
		c14.967,10.362,15.734,29.167,15.734,29.167c2.303-8.059,0.384-21.875,0.384-21.875c9.979,26.481-0.767,51.428-0.767,51.428
		s0.074-0.079,0.204-0.221c0.095-0.103,0.224-0.248,0.378-0.423v0c3.245-3.692,19.022-23.244,15.92-51.167
		c-3.454-31.086-14.968-36.076-14.968-36.076c4.605,0,13.048,5.757,13.048,5.757c-8.826-14.2-21.875-19.189-21.875-19.189
		c-8.443-14.584-25.33-16.887-52.194-16.887c-26.865,0-46.247,21.108-46.247,21.108c8.443-5.373,25.522-11.514,25.522-11.514
		C110.98,56.738,96.78,70.17,93.327,108.549c-2.931,32.568,10.994,43.301,15.279,45.805c0.764,0.446,1.224,0.633,1.224,0.633
		C103.517,142.626,103.874,130.809,104.724,124.593z M121.343,59.041c0,0-23.411,30.319-24.178,64.093
		C97.165,123.133,93.327,78.998,121.343,59.041z"/>
	<path fill="#FFFFFF" d="M97.165,123.133c0.767-33.773,24.178-64.093,24.178-64.093C93.327,78.998,97.165,123.133,97.165,123.133z"
		/>
	<path fill="#FFFFFF" d="M143.219,179.934c-15.735-4.989-32.622-31.47-32.622-31.47C120.872,176.42,143.219,179.934,143.219,179.934
		z"/>
	<path fill="#FFFFFF" d="M76.824,201.042c-7.292,16.887-4.222,36.844-4.222,36.844C72.667,230.471,76.824,201.042,76.824,201.042z"
		/>
	<path fill="#FFF588" d="M74.905,254.772c0,0,0.383,12.665,12.281,11.13C87.186,265.902,79.126,264.751,74.905,254.772z"/>
	<path fill="#FFFFFF" d="M113.667,199.123c0,0-2.303,22.26,7.292,37.611C120.959,236.734,113.283,208.334,113.667,199.123z"/>
	<path fill="#FFFFFF" d="M131.321,240.956c0,0-9.211,4.989-10.362,7.292s0.768,5.372,0.768,5.372S120.959,249.783,131.321,240.956z"
		/>
	<path fill="#FFFFFF" d="M249.91,145.393c0,0,0.385,13.048-6.14,18.038C243.771,163.431,253.749,161.512,249.91,145.393z"/>
	<path fill="#FFFFFF" d="M130.17,267.054c0,0,0,10.745,3.838,18.038C134.008,285.092,133.624,273.193,130.17,267.054z"/>
	<path fill="#FFFFFF" d="M161.641,219.464c-18.806,5.757-14.968,22.644-14.968,22.644
		C148.208,226.372,161.641,219.464,161.641,219.464z"/>
</g>
</svg>
