<?xml version="1.0" encoding="utf-8"?>
<!-- Generator: Adobe Illustrator 16.0.0, SVG Export Plug-In . SVG Version: 6.00 Build 0)  -->
<!DOCTYPE svg PUBLIC "-//W3C//DTD SVG 1.1//EN" "http://www.w3.org/Graphics/SVG/1.1/DTD/svg11.dtd">
<svg version="1.1" id="Layer_1" xmlns="http://www.w3.org/2000/svg" xmlns:xlink="http://www.w3.org/1999/xlink" x="0px" y="0px"
	 width="350px" height="350px" viewBox="0 0 350 350" enable-background="new 0 0 350 350" xml:space="preserve">
<g>
	<g>
		<g>
			<path fill="#A7A9AC" d="M195.494,173.63c-3.426,5.276-8.988,7.346-14.293,9.071c3.063,5.259,5.586,11.236,4.826,17.938
				c-0.615,5.388-2.375,10.407-4.656,15.021c0.113,0.315,0.371,0.5,0.771,0.232c2.197-1.467,4.135-3.6,5.775-6.089
				c0.547-0.665,1.082-1.349,1.602-2.086c2.559-3.653,3.857-7.375,5.35-11.776C197.182,189.13,197.75,180.565,195.494,173.63z"/>
			<path fill="#A7A9AC" d="M172.361,188.882c0.066-1.484,0.417-2.843,0.815-4.201c-6.469-1.623-12.621-4.057-17.38-9.801
				c0.197,1.324,0.452,2.658,0.821,4.002c1.205,4.426,3.49,7.232,6.168,10.374c2.472,2.901,4.961,5.443,7.206,8.67
				c1.287,1.844,2.437,3.819,3.38,5.954c1.236-2.295,1.094-6.157,0.511-8.259C173.297,193.511,172.256,191.172,172.361,188.882z"/>
			<ellipse fill="#A7A9AC" cx="174.056" cy="131.834" rx="21.973" ry="27.34"/>
			<g>
				<path fill="#A7A9AC" d="M154.718,172.545c4.33,3.952,9.032,7.773,14.395,9.395c3.802,1.143,10.43,0.599,13.818-0.804
					c5.117-2.112,9.584-5.776,13.631-9.943C183.373,177.504,167.901,178.659,154.718,172.545z"/>
				<path fill="#A7A9AC" d="M276.014,149.273c-10.656,4.523-22.867,4.214-33.871,2.085c-5.791-1.124-11.426-3.259-17.047-5.261
					c-6.016-2.139-12.111-3.985-18.268-5.373c-3.275-0.729-6.549-1.192-9.832-1.431c-2.398,13.007-11.756,22.72-22.94,22.72
					c-10.619,0-19.591-8.752-22.529-20.771c-2.766,0.475-5.523,1.107-8.27,1.943c-6.077,1.858-12.069,4.16-17.964,6.763
					c-5.513,2.427-11.034,4.989-16.758,6.551c-10.876,2.965-23.047,4.212-33.908,0.51c-6.919-2.355-14.214-5.961-19.534-12.186
					c3.139,8.9,10.414,17.14,17.046,21.172c9.134,5.548,19.766,6.797,29.759,5.292c8.987-1.356,17.46-5.366,26.33-7.366
					c8.032-1.815,16.201-1.154,22.864,5.217c0.351,0.331,0.698,0.658,1.045,0.989c14.122,8.044,31.539,6.939,45.896-0.477
					c0.754-0.805,1.504-1.613,2.254-2.428c6.34-6.861,14.461-8.153,22.566-6.953c8.955,1.319,17.604,4.669,26.643,5.342
					c10.049,0.74,20.602-1.328,29.443-7.566c6.422-4.527,13.277-13.303,15.969-22.436
					C289.906,142.233,282.801,146.39,276.014,149.273z"/>
			</g>
		</g>
	</g>
	<path fill="#A7A9AC" d="M155.455,198.145c-5.95-4.974-13.713-1.728-19.517,2.885c-0.696,0.662-1.375,1.365-2.045,2.108
		c5.354-4.312,11.356-7.368,17.444-5.364c3.41,1.121,6.819,3.552,8.383,7.547C159.116,202.604,157.857,200.15,155.455,198.145z"/>
	<path fill="#A7A9AC" d="M195.729,215.112c-4.305,4.854-9.283,9.783-14.938,11.911c-3.568,1.342-8.2,1.728-11.175-1.327
		c-3.053-2.947-3.587-8.428-3.895-13.139c-0.754-11.667-3.367-24.724-15.149-21.953c-2.466,0.582-4.969,1.834-7.363,3.312
		c4.066-1.71,8.352-2.099,12.001,0.381c4.227,2.877,6.434,8.549,6.258,14.454c-0.046,1.657-0.212,3.321-0.405,4.99
		c-0.232,3.246-0.636,6.499-0.419,9.794c0.339,5.18,2.113,11.043,6.62,12.455c5.453,1.698,11.499-1.592,16.016-5.211
		c7.17-5.75,13.811-14.073,18.512-23.436C199.887,210.07,197.885,212.686,195.729,215.112z"/>
	<path fill="#A7A9AC" d="M189.408,228.996c-2.4,2.404-4.961,4.602-7.67,6.44c-4.943,3.36-11.802,7.138-17.459,4.282
		c-7.355-3.712-6.316-13.794-6.531-21.909c-0.148-5.667-0.598-13.212-5.513-15.806c-1.926-1.021-3.885-0.978-5.836-0.517
		c2.376,0.083,4.761,0.784,6.488,2.805c3.567,4.173,2.782,10.548,2.129,15.979c-0.889,7.361-1.255,17.188,3.844,22.283
		c3.008,3.011,7.163,3.156,10.968,2.836c2.1-0.294,4.375-1.723,6.429-2.729c5.08-2.857,9.221-7.797,12.902-12.921
		c0.404-0.563,0.801-1.145,1.203-1.71C190.043,228.351,189.729,228.678,189.408,228.996z"/>
	<path fill="#A7A9AC" d="M203.498,195.054c1.465-1.273,3.236-2.081,4.604-3.498c1.078-1.126,3.254-4.013,1.574-5.723
		c-0.363-0.374-0.766-0.556-1.182-0.619c-0.877,0.112-1.832,0.619-2.254,1.046c-1.139,1.167-2.211,2.355-2.99,3.923
		c-1.035,2.066-1.482,4.765-1.742,7.181C202.1,196.5,202.754,195.701,203.498,195.054z"/>
	<path fill="#A7A9AC" d="M214.766,172.997c1.184-1.954,2.346-6.549-0.824-6.948c-2.701-0.33-5.121,2.484-6.334,5.229
		c-1.359,3.068-2.115,6.462-2.023,9.948C208.49,178.198,212.467,176.781,214.766,172.997z"/>
	<path fill="#A7A9AC" d="M233.736,171.809c-2.139-6.336-9.088-2.293-12.078,0.661c-3.023,2.992-5.428,6.636-6.758,11.003
		c0,0.012,0.006,0.023,0.006,0.028c2.797-2.052,5.842-2.423,9.039-3.173C226.43,179.743,235.451,176.9,233.736,171.809z"/>
	<path fill="#A7A9AC" d="M149.509,185.876c-1.486,0.24-2.944,0.987-4.433,1.067c-1.182,0.068-3.837-0.191-3.576-2.431
		c0.057-0.482,0.222-0.88,0.452-1.205c0.593-0.556,1.408-0.912,1.87-0.941c1.232-0.078,2.435-0.095,3.632,0.32
		c1.579,0.553,3.076,1.901,4.332,3.212C151.03,185.787,150.266,185.753,149.509,185.876z"/>
	<path fill="#A7A9AC" d="M135.66,176.611c-1.618-0.373-4.425-2.408-2.646-4.875c1.519-2.11,4.293-2.067,6.291-1.224
		c2.234,0.942,4.242,2.509,5.767,4.726C141.902,175.413,138.798,177.339,135.66,176.611z"/>
	<path fill="#A7A9AC" d="M120.251,192.759c-1.556-5.425,4.581-7.805,7.771-8.078c3.23-0.281,6.371,0.283,9.178,2.05
		c0.004,0.007,0.004,0.015,0.008,0.021c-2.663,0.689-4.714,2.605-7.032,4.387C128.376,192.531,121.502,197.116,120.251,192.759z"/>
	<path fill="#A7A9AC" d="M169.205,204.107c0.532,5.165,0.045,10.675,1.788,15.551c3.221,9.029,11.412,4.663,15.925-1.604
		c-3.846,2.424-8.678,2.833-12.013-0.056c-4.944-4.289-3.435-15.6-7.488-20.189c-0.123-0.126-0.244-0.252-0.371-0.378
		c-0.125-0.122-0.269-0.219-0.405-0.325C167.977,199.062,168.915,201.289,169.205,204.107z"/>
</g>
</svg>
