<?xml version="1.0" encoding="utf-8"?>
<!-- Generator: Adobe Illustrator 16.0.0, SVG Export Plug-In . SVG Version: 6.00 Build 0)  -->
<!DOCTYPE svg PUBLIC "-//W3C//DTD SVG 1.1 Tiny//EN" "http://www.w3.org/Graphics/SVG/1.1/DTD/svg11-tiny.dtd">
<svg version="1.1" baseProfile="tiny" id="Layer_1" xmlns="http://www.w3.org/2000/svg" xmlns:xlink="http://www.w3.org/1999/xlink"
	 x="0px" y="0px" width="350px" height="350px" viewBox="0 0 350 350" overflow="scroll" xml:space="preserve">
<g>
	<g>
		<path fill="#AF8070" d="M115.588,244.154c0.386,0.113,0.685,0.361,0.844,0.73c0.408,0.944,0.304,2.475,0.185,4.248
			c-0.154,2.292-0.33,4.89,0.683,5.988c0.006,0.007,0.015,0.015,0.022,0.021l0.912,0.484c2.863-6.771,20.65-22.885,25.144-26.888
			c-2.347-1.862-5.125-4.101-7.642-6.253C127.852,227.283,119.193,238.97,115.588,244.154z"/>
		<path fill="#CED9DF" d="M145.708,213.222c2.283,1.547,5.103,4.105,7.02,6.13c5.881-4.922,27.155-23.777,55.321-60.963
			c27.969-36.925,31.973-62.944,32.539-70.208c-1.729,2.493-4.813,7.006-5.731,8.801c-0.163,0.319-0.349,0.868-0.604,1.626
			c-1.632,4.83-6.6,19.527-34.187,56.585C173.49,190.896,152.048,208.42,145.708,213.222z"/>
		<path fill="#F68F33" d="M150.844,225.966c1.735-1.547,2.995-3.018,2.894-3.472c-0.433-1.27-8.504-9.045-10.964-9.42
			c-0.128-0.02-0.177-0.003-0.177-0.003c-1.046,0.652-2.277,2.295-3.043,3.416C142.452,218.651,147.188,222.346,150.844,225.966z"/>
		<path fill="#FFC931" d="M109.387,253.27c0.669,3.885,7.932,8.846,14.391,9.83c0,0,0.001,0,0.001,0.001
			c1.468,0.224,2.842,0.24,4.082,0.051c7.277-1.112,24.014-23.041,26.871-29.067c1.343-2.833-10.277-12.6-17.917-18.09
			c-0.159-0.114-0.253-0.297-0.254-0.492c-0.014-2.581-0.936-4.142-2.595-4.395c-1.404-0.214-3.15,0.563-3.974,1.771
			c-0.335,0.491-0.639,1.245-0.176,2.046c1.684,2.917,12.455,11.396,17.054,15.017c1.39,1.094,2.308,1.817,2.585,2.07
			c0.238,0.217,0.32,0.549,0.242,0.985c-0.658,3.725-14.243,23.474-18.979,25.415c-2.583,1.06-5.314,0.949-7.149,0.669
			c-2.98-0.454-5.86-1.712-7.169-3.131c-1.368-1.484-1.174-4.361-1.003-6.899c0.1-1.479,0.203-3.008-0.088-3.681
			c-0.012-0.029-0.021-0.048-0.106-0.062c-0.504-0.076-1.885,0.501-3.378,2.023C109.982,249.21,109.07,251.431,109.387,253.27z"/>
		<path fill="#714E40" d="M123.594,264.308c0,0.001,0.001,0.001,0.001,0.001c1.59,0.242,3.088,0.259,4.451,0.051
			c8.126-1.241,25.235-24.363,27.791-29.752c0.832-1.755-1.163-4.682-4.127-7.764c1.716-1.517,3.584-3.511,3.193-4.724
			c-0.115-0.355-0.612-1.028-1.348-1.866c6.022-5.047,27.337-23.986,55.469-61.128c33.31-43.977,32.886-72.75,32.877-73.036
			c-0.008-0.263-0.183-0.491-0.434-0.568c-0.256-0.076-0.524,0.018-0.677,0.233c-0.231,0.328-5.688,8.064-7.021,10.669
			c-0.204,0.4-0.392,0.953-0.675,1.792c-1.617,4.784-6.537,19.343-34.008,56.247c-27.052,36.341-48.738,53.761-54.487,58.067
			c-0.635-0.357-1.198-0.596-1.64-0.663c-0.393-0.061-0.729-0.006-0.997,0.162c-1.225,0.764-2.563,2.525-3.391,3.73
			c-0.299-0.219-0.568-0.415-0.793-0.578c-0.136-4.281-2.568-5.12-3.627-5.282c-1.861-0.283-4.083,0.701-5.167,2.29
			c-0.744,1.088-0.826,2.308-0.226,3.347c0.772,1.338,3.147,3.623,6.004,6.111c-8.566,5.39-17.629,18.037-20.78,22.675
			c-1.07,0.42-2.208,1.317-3.028,2.153c-1.017,1.037-3.322,3.795-2.77,7.003C108.939,257.873,116.573,263.237,123.594,264.308z
			 M115.203,245.308c0.085,0.014,0.094,0.032,0.106,0.062c0.291,0.673,0.188,2.202,0.088,3.681
			c-0.171,2.538-0.365,5.415,1.003,6.899c1.309,1.419,4.189,2.677,7.169,3.131c1.835,0.28,4.566,0.391,7.149-0.669
			c4.736-1.941,18.321-21.69,18.979-25.415c0.078-0.437-0.004-0.769-0.242-0.985c-0.278-0.253-1.196-0.977-2.585-2.07
			c-4.599-3.62-15.37-12.1-17.054-15.017c-0.462-0.801-0.159-1.555,0.176-2.046c0.824-1.207,2.57-1.984,3.974-1.771
			c1.66,0.253,2.581,1.813,2.595,4.395c0.001,0.195,0.096,0.378,0.254,0.492c7.64,5.49,19.259,15.257,17.917,18.09
			c-2.856,6.026-19.594,27.955-26.871,29.067c-1.24,0.189-2.614,0.173-4.082-0.051c0-0.001-0.001-0.001-0.001-0.001
			c-6.459-0.984-13.722-5.945-14.391-9.83c-0.317-1.839,0.595-4.06,2.438-5.938C113.318,245.809,114.699,245.231,115.203,245.308z
			 M144.351,229.512c0.636,0.502,1.231,0.971,1.763,1.389c1.106,0.871,2.009,1.583,2.386,1.898
			c-0.297,2.715-13.831,22.671-18.245,24.481c-2.324,0.953-4.818,0.849-6.502,0.592c-1.797-0.273-3.355-0.813-4.53-1.411
			C121.294,250.317,140.141,233.266,144.351,229.512z M143.376,228.739c-4.493,4.003-22.28,20.117-25.144,26.888l-0.912-0.484
			c-0.007-0.007-0.016-0.015-0.022-0.021c-1.012-1.099-0.837-3.696-0.683-5.988c0.12-1.773,0.223-3.304-0.185-4.248
			c-0.159-0.369-0.458-0.617-0.844-0.73c3.605-5.185,12.264-16.871,20.147-21.668C138.252,224.639,141.03,226.877,143.376,228.739z
			 M142.597,213.071c0,0,0.049-0.017,0.177,0.003c2.459,0.375,10.531,8.15,10.964,9.42c0.101,0.454-1.159,1.925-2.894,3.472
			c-3.656-3.62-8.393-7.314-11.29-9.479C140.32,215.366,141.551,213.724,142.597,213.071z M234.856,96.981
			c0.919-1.795,4.002-6.308,5.731-8.801c-0.566,7.264-4.57,33.283-32.539,70.208c-28.166,37.186-49.44,56.042-55.321,60.963
			c-1.917-2.024-4.736-4.583-7.02-6.13c6.34-4.802,27.782-22.326,54.357-58.029c27.587-37.059,32.555-51.756,34.187-56.585
			C234.508,97.849,234.693,97.3,234.856,96.981z"/>
		<path fill="#A7C2D0" d="M149.071,215.862c1.331,1.158,2.625,2.399,3.656,3.489c5.881-4.922,27.155-23.777,55.321-60.963
			c27.969-36.925,31.973-62.944,32.539-70.208c0,0-10.661,41.602-46.867,82.449C173.34,193.622,158.314,207.833,149.071,215.862z"/>
		<path fill="#F68F33" d="M150.665,231.859c-0.582-5.187-5.84-8.332-10.475-10.732c-3.963-2.054-8.33-4.806-9.699-8.817
			c-0.186,0.177-0.36,0.364-0.5,0.568c-0.335,0.491-0.639,1.245-0.176,2.046c1.684,2.917,12.455,11.396,17.054,15.017
			c1.39,1.094,2.308,1.817,2.585,2.07c0.238,0.217,0.32,0.549,0.242,0.985c-0.658,3.725-14.243,23.474-18.979,25.415
			c-2.583,1.06-5.314,0.949-7.149,0.669c-2.98-0.454-5.86-1.712-7.169-3.131c-1.368-1.484-1.174-4.361-1.003-6.899
			c0.1-1.479,0.203-3.008-0.088-3.681c-0.012-0.029-0.021-0.048-0.106-0.062c-0.504-0.076-1.885,0.501-3.378,2.023
			c-0.705,0.719-1.271,1.487-1.687,2.266c0.983,0.822,1.707,1.94,1.918,3.212c0.155,0.931,0.079,1.914,0.44,2.785
			c0.588,1.417,2.138,2.135,3.555,2.724c2.501,1.04,5.003,2.081,7.505,3.121c0.996,0.414,2.029,0.835,3.107,0.805
			c1.647-0.047,3.064-1.125,4.321-2.19c6.477-5.486,12.117-11.961,16.665-19.129C149.391,238.181,151.027,235.088,150.665,231.859z"
			/>
		<path fill="#DAA18A" d="M124.693,243.068c-0.842-0.281-1.677-0.144-2.545-0.045c-1.047,0.119-2.075,0.165-3.127,0.184
			c-0.362,0.006-0.765,0.65-0.284,0.793c0.836,0.25,1.65,0.248,2.518,0.219c1.079-0.037,2.233,0.008,3.289-0.209
			C124.957,243.925,125.163,243.225,124.693,243.068z"/>
		<path fill="#DAA18A" d="M129.186,237.323c-1.109-0.091-2.254,0.142-3.369,0.177c-1.218,0.038-2.433,0.023-3.628,0.292
			c-0.429,0.097-0.613,0.92-0.054,0.914c1.208-0.014,2.415-0.006,3.623,0c1.214,0.005,2.521,0.092,3.549-0.638
			C129.577,237.877,129.579,237.354,129.186,237.323z"/>
		<path fill="#DAA18A" d="M136.386,231.281c-2.432-0.749-5.587-0.354-8.001,0.35c-0.5,0.146-0.567,0.975,0.055,0.894
			c1.078-0.139,2.148-0.286,3.233-0.354c1.521-0.096,3.034,0.143,4.549-0.006C136.616,232.127,136.822,231.415,136.386,231.281z"/>
	</g>
	<g>
		<path fill="#AF8070" d="M234.411,244.154c-0.385,0.113-0.684,0.361-0.843,0.73c-0.408,0.944-0.305,2.475-0.185,4.248
			c0.154,2.292,0.33,4.89-0.683,5.988c-0.007,0.007-0.015,0.015-0.022,0.021l-0.911,0.484c-2.864-6.771-20.651-22.885-25.145-26.888
			c2.348-1.862,5.125-4.101,7.642-6.253C222.148,227.283,230.807,238.97,234.411,244.154z"/>
		<path fill="#CED9DF" d="M204.292,213.222c-2.283,1.547-5.103,4.105-7.02,6.13c-5.881-4.922-27.156-23.777-55.322-60.963
			c-27.968-36.925-31.973-62.944-32.538-70.208c1.729,2.493,4.812,7.006,5.73,8.801c0.164,0.319,0.349,0.868,0.605,1.626
			c1.632,4.83,6.599,19.527,34.186,56.585C176.51,190.896,197.952,208.42,204.292,213.222z"/>
		<path fill="#F68F33" d="M199.156,225.966c-1.735-1.547-2.995-3.018-2.895-3.472c0.433-1.27,8.505-9.045,10.964-9.42
			c0.129-0.02,0.177-0.003,0.177-0.003c1.046,0.652,2.277,2.295,3.043,3.416C207.548,218.651,202.812,222.346,199.156,225.966z"/>
		<path fill="#FFC931" d="M240.612,253.27c-0.669,3.885-7.932,8.846-14.391,9.83c0,0-0.001,0-0.001,0.001
			c-1.469,0.224-2.842,0.24-4.082,0.051c-7.277-1.112-24.014-23.041-26.871-29.067c-1.343-2.833,10.277-12.6,17.917-18.09
			c0.158-0.114,0.253-0.297,0.254-0.492c0.015-2.581,0.936-4.142,2.596-4.395c1.404-0.214,3.149,0.563,3.974,1.771
			c0.335,0.491,0.639,1.245,0.177,2.046c-1.684,2.917-12.455,11.396-17.054,15.017c-1.39,1.094-2.309,1.817-2.586,2.07
			c-0.237,0.217-0.319,0.549-0.242,0.985c0.658,3.725,14.243,23.474,18.979,25.415c2.583,1.06,5.313,0.949,7.149,0.669
			c2.979-0.454,5.86-1.712,7.168-3.131c1.368-1.484,1.175-4.361,1.004-6.899c-0.101-1.479-0.203-3.008,0.088-3.681
			c0.012-0.029,0.02-0.048,0.105-0.062c0.504-0.076,1.885,0.501,3.378,2.023C240.019,249.21,240.93,251.431,240.612,253.27z"/>
		<path fill="#714E40" d="M241.817,253.478c0.553-3.208-1.753-5.966-2.771-7.003c-0.819-0.836-1.958-1.733-3.027-2.153
			c-3.151-4.638-12.214-17.285-20.78-22.675c2.857-2.488,5.231-4.773,6.004-6.111c0.6-1.039,0.518-2.259-0.226-3.347
			c-1.086-1.589-3.308-2.573-5.168-2.29c-1.059,0.162-3.491,1.001-3.627,5.282c-0.225,0.163-0.494,0.359-0.794,0.578
			c-0.827-1.205-2.166-2.967-3.391-3.73c-0.269-0.168-0.604-0.223-0.997-0.162c-0.442,0.067-1.005,0.306-1.64,0.663
			c-5.749-4.306-27.436-21.726-54.487-58.067c-27.47-36.904-32.391-51.462-34.008-56.247c-0.283-0.838-0.47-1.392-0.674-1.792
			c-1.333-2.604-6.791-10.341-7.022-10.669c-0.152-0.215-0.421-0.309-0.676-0.233c-0.252,0.077-0.427,0.305-0.435,0.568
			c-0.008,0.286-0.432,29.059,32.877,73.036c28.132,37.142,49.447,56.081,55.469,61.128c-0.736,0.838-1.233,1.511-1.348,1.866
			c-0.393,1.213,1.478,3.207,3.192,4.724c-2.964,3.082-4.959,6.009-4.127,7.764c2.555,5.389,19.664,28.511,27.791,29.752
			c1.362,0.208,2.86,0.191,4.451-0.051c0,0,0.001,0,0.001-0.001C233.427,263.237,241.061,257.873,241.817,253.478z M238.175,247.331
			c1.844,1.879,2.755,4.1,2.438,5.938c-0.669,3.885-7.932,8.846-14.391,9.83c0,0-0.001,0-0.001,0.001
			c-1.469,0.224-2.842,0.24-4.082,0.051c-7.277-1.112-24.014-23.041-26.871-29.067c-1.343-2.833,10.277-12.6,17.917-18.09
			c0.158-0.114,0.253-0.297,0.254-0.492c0.015-2.581,0.936-4.142,2.596-4.395c1.404-0.214,3.149,0.563,3.974,1.771
			c0.335,0.491,0.639,1.245,0.177,2.046c-1.684,2.917-12.455,11.396-17.054,15.017c-1.39,1.094-2.309,1.817-2.586,2.07
			c-0.237,0.217-0.319,0.549-0.242,0.985c0.658,3.725,14.243,23.474,18.979,25.415c2.583,1.06,5.313,0.949,7.149,0.669
			c2.979-0.454,5.86-1.712,7.168-3.131c1.368-1.484,1.175-4.361,1.004-6.899c-0.101-1.479-0.203-3.008,0.088-3.681
			c0.012-0.029,0.02-0.048,0.105-0.062C235.301,245.231,236.682,245.809,238.175,247.331z M230.778,256.461
			c-1.176,0.598-2.733,1.138-4.531,1.411c-1.684,0.257-4.178,0.361-6.502-0.592c-4.414-1.811-17.947-21.767-18.245-24.481
			c0.377-0.315,1.28-1.027,2.387-1.898c0.531-0.418,1.126-0.887,1.763-1.389C209.859,233.266,228.706,250.317,230.778,256.461z
			 M214.265,222.486c7.884,4.797,16.542,16.483,20.146,21.668c-0.385,0.113-0.684,0.361-0.843,0.73
			c-0.408,0.944-0.305,2.475-0.185,4.248c0.154,2.292,0.33,4.89-0.683,5.988c-0.007,0.007-0.015,0.015-0.022,0.021l-0.911,0.484
			c-2.864-6.771-20.651-22.885-25.145-26.888C208.971,226.877,211.748,224.639,214.265,222.486z M210.445,216.487
			c-2.897,2.164-7.634,5.858-11.289,9.479c-1.735-1.547-2.995-3.018-2.895-3.472c0.433-1.27,8.505-9.045,10.964-9.42
			c0.129-0.02,0.177-0.003,0.177-0.003C208.448,213.724,209.68,215.366,210.445,216.487z M115.749,98.607
			c1.632,4.83,6.599,19.527,34.186,56.585c26.576,35.703,48.018,53.228,54.358,58.029c-2.283,1.547-5.103,4.105-7.02,6.13
			c-5.881-4.922-27.156-23.777-55.322-60.963c-27.968-36.925-31.973-62.944-32.538-70.208c1.729,2.493,4.812,7.006,5.73,8.801
			C115.307,97.3,115.492,97.849,115.749,98.607z"/>
		<path fill="#A7C2D0" d="M200.929,215.862c-1.33,1.158-2.625,2.399-3.656,3.489c-5.881-4.922-27.156-23.777-55.322-60.963
			c-27.968-36.925-31.973-62.944-32.538-70.208c0,0,10.661,41.602,46.867,82.449C176.659,193.622,191.687,207.833,200.929,215.862z"
			/>
		<path fill="#F68F33" d="M199.335,231.859c0.582-5.187,5.84-8.332,10.475-10.732c3.963-2.054,8.329-4.806,9.698-8.817
			c0.187,0.177,0.36,0.364,0.5,0.568c0.335,0.491,0.639,1.245,0.177,2.046c-1.684,2.917-12.455,11.396-17.054,15.017
			c-1.39,1.094-2.309,1.817-2.586,2.07c-0.237,0.217-0.319,0.549-0.242,0.985c0.658,3.725,14.243,23.474,18.979,25.415
			c2.583,1.06,5.313,0.949,7.149,0.669c2.979-0.454,5.86-1.712,7.168-3.131c1.368-1.484,1.175-4.361,1.004-6.899
			c-0.101-1.479-0.203-3.008,0.088-3.681c0.012-0.029,0.02-0.048,0.105-0.062c0.504-0.076,1.885,0.501,3.378,2.023
			c0.706,0.719,1.271,1.487,1.688,2.266c-0.983,0.822-1.707,1.94-1.919,3.212c-0.155,0.931-0.079,1.914-0.44,2.785
			c-0.589,1.417-2.139,2.135-3.556,2.724c-2.501,1.04-5.003,2.081-7.505,3.121c-0.995,0.414-2.028,0.835-3.106,0.805
			c-1.646-0.047-3.064-1.125-4.321-2.19c-6.478-5.486-12.116-11.961-16.664-19.129C200.609,238.181,198.973,235.088,199.335,231.859
			z"/>
		<path fill="#DAA18A" d="M225.307,243.068c0.842-0.281,1.678-0.144,2.545-0.045c1.047,0.119,2.075,0.165,3.127,0.184
			c0.362,0.006,0.765,0.65,0.285,0.793c-0.837,0.25-1.65,0.248-2.519,0.219c-1.079-0.037-2.233,0.008-3.289-0.209
			C225.043,243.925,224.837,243.225,225.307,243.068z"/>
		<path fill="#DAA18A" d="M220.814,237.323c1.108-0.091,2.254,0.142,3.369,0.177c1.219,0.038,2.433,0.023,3.628,0.292
			c0.429,0.097,0.613,0.92,0.054,0.914c-1.208-0.014-2.415-0.006-3.623,0c-1.214,0.005-2.521,0.092-3.549-0.638
			C220.423,237.877,220.421,237.354,220.814,237.323z"/>
		<path fill="#DAA18A" d="M213.613,231.281c2.432-0.749,5.588-0.354,8.002,0.35c0.5,0.146,0.566,0.975-0.055,0.894
			c-1.077-0.139-2.147-0.286-3.233-0.354c-1.521-0.096-3.034,0.143-4.549-0.006C213.383,232.127,213.178,231.415,213.613,231.281z"
			/>
	</g>
</g>
</svg>
