<?xml version="1.0" encoding="utf-8"?>
<!-- Generator: Adobe Illustrator 16.0.0, SVG Export Plug-In . SVG Version: 6.00 Build 0)  -->
<!DOCTYPE svg PUBLIC "-//W3C//DTD SVG 1.1 Tiny//EN" "http://www.w3.org/Graphics/SVG/1.1/DTD/svg11-tiny.dtd">
<svg version="1.1" baseProfile="tiny" id="Layer_1" xmlns="http://www.w3.org/2000/svg" xmlns:xlink="http://www.w3.org/1999/xlink"
	 x="0px" y="0px" width="350px" height="350px" viewBox="0 0 350 350" overflow="scroll" xml:space="preserve">
<g>
	<g>
		<path fill="#AF8070" d="M96.468,274.943c2.914,0.378,5.933,2.383,8.793,5.864c0.736,0.896,1.733,2.044,2.947,3.295
			c10.615-7.454,26.489-24.332,33.144-31.604c-1.765-0.967-3.48-2.022-5.125-3.165c-3.865-2.687-6.499-5.719-8.282-8.765
			C116.891,247.953,102.279,267.025,96.468,274.943z"/>
		<path fill="#FFC931" d="M149.084,256.031c4.099,7.362,9.009,21.283-3.172,33.037c-5.188,5.006-10.795,7.545-16.663,7.546
			c-0.001,0-0.001,0-0.003,0c-11.784,0-21.558-10.349-25.212-14.798c-2.878-3.505-5.842-5.356-8.569-5.356
			c-2.915,0-5.345,2.144-6.842,6.035c-0.965,2.511-0.508,5.425,1.256,7.994c2.025,2.946,5.257,4.707,8.645,4.707
			c1.939,0,3.861-0.569,5.711-1.69c0.128-0.078,0.271-0.115,0.411-0.115c0.246,0,0.487,0.114,0.641,0.325
			c0.078,0.106,7.98,10.672,21.584,10.673h0.001c4.699,0,9.591-1.254,14.54-3.729c8.527-4.263,14.021-10.126,16.326-17.423
			c2.914-9.224,0.172-18.819-2.725-25.368C153.035,257.375,151.051,256.763,149.084,256.031z"/>
		<path fill="#CED9DF" d="M238.097,147.665c20.916-32.144,24.417-58.328,23.672-74.634c-0.619-13.532-4.17-22.636-5.806-26.169
			c-11.708,32.665-47.292,55.681-51.429,58.267c0.308,34.221-17.289,66.476-32.143,87.543
			c-12.611,17.888-25.427,30.952-30.508,35.882c1.895,3.768,4.141,7.256,6.941,9.31c1.467,1.076,3.189,2.183,5.031,3.299
			C163.786,233.51,203.15,201.367,238.097,147.665z"/>
		<path fill="#714E40" d="M256.512,44.419c-0.157-0.271-0.452-0.421-0.769-0.391c-0.312,0.033-0.574,0.245-0.672,0.542
			c-11.446,34.925-51.342,59.198-51.743,59.439c-0.243,0.146-0.39,0.408-0.386,0.691c0.461,33.952-17.054,66.066-31.828,87.028
			c-12.261,17.396-24.704,30.19-29.964,35.324c-1.019-2.156-1.935-4.353-2.78-6.384c-2.264-5.443-3.76-9.038-5.911-9.038
			c-0.157,0-0.315,0.02-0.47,0.061c-3.248,0.848-6.128,5.334-7.166,11.167c-0.458,2.575-1.142,9.344,2.358,16.309
			c-11.9,7.873-27.365,28.427-32.691,35.779c-3.139,0.427-5.783,2.912-7.348,6.979c-1.14,2.963-0.605,6.5,1.429,9.462
			c2.32,3.379,6.042,5.396,9.953,5.396c2.018,0,4.007-0.527,5.923-1.568c1.894,2.311,9.695,10.761,22.425,10.761c0,0,0,0,0.001,0
			c4.948,0,10.079-1.311,15.25-3.896c8.926-4.463,14.689-10.642,17.129-18.364c2.905-9.192,0.497-18.658-2.322-25.408
			c3.045,0.636,6.053,0.977,8.928,0.977c3.99,0,8.524-0.748,9.287-2.847c0.924-2.543-4.02-5.462-13.576-10.829
			c-2.1-1.18-4.228-2.378-6.25-3.569c10.779-8.372,49.601-40.478,84.108-93.508c21.147-32.498,24.684-59.033,23.928-75.572
			C262.531,54.971,256.757,44.841,256.512,44.419z M173.654,255.895c-0.264,0.726-2.925,1.801-7.795,1.801
			c-3.475,0-15.821-0.697-28.726-9.665c-12.531-8.709-11.394-21.257-10.746-24.895c0.902-5.069,3.426-9.237,6.072-9.918
			c1.092,0,2.952,4.469,4.446,8.061c2.618,6.291,5.875,14.12,10.98,17.865c3.488,2.558,8.276,5.246,12.906,7.847
			C166.115,249.981,174.161,254.5,173.654,255.895z M157.739,283.236c-2.306,7.297-7.799,13.16-16.326,17.423
			c-4.949,2.476-9.841,3.729-14.54,3.729h-0.001c-13.604-0.001-21.506-10.566-21.584-10.673c-0.154-0.211-0.396-0.325-0.641-0.325
			c-0.14,0-0.283,0.037-0.411,0.115c-1.85,1.121-3.771,1.69-5.711,1.69c-3.388,0-6.62-1.761-8.645-4.707
			c-1.764-2.569-2.221-5.483-1.256-7.994c1.497-3.892,3.927-6.035,6.842-6.035c2.727,0,5.69,1.852,8.569,5.356
			c3.654,4.449,13.428,14.798,25.212,14.798c0.001,0,0.002,0,0.003,0c5.868-0.001,11.474-2.54,16.663-7.546
			c12.181-11.754,7.271-25.675,3.172-33.037c1.967,0.731,3.951,1.344,5.93,1.837C157.912,264.417,160.653,274.013,157.739,283.236z
			 M142.81,253.266c1.296,0.663,2.614,1.28,3.947,1.842c4.009,6.308,10.646,20.666-1.947,32.818
			c-4.883,4.711-10.118,7.101-15.561,7.102c-0.001,0-0.001,0-0.003,0c-8.084,0-15.246-5.27-19.9-9.786
			C120.357,277.44,136.339,260.369,142.81,253.266z M136.227,249.334c1.644,1.143,3.36,2.198,5.125,3.165
			c-6.654,7.271-22.529,24.149-33.144,31.604c-1.214-1.251-2.21-2.398-2.947-3.295c-2.86-3.481-5.879-5.486-8.793-5.864
			c5.811-7.918,20.423-26.99,31.477-34.374C129.729,243.615,132.362,246.647,136.227,249.334z M148.824,237.863
			c-2.8-2.054-5.046-5.542-6.941-9.31c5.081-4.93,17.897-17.994,30.508-35.882c14.854-21.068,32.451-53.323,32.143-87.543
			c4.137-2.586,39.721-25.602,51.429-58.267c1.636,3.533,5.187,12.638,5.806,26.169c0.745,16.306-2.756,42.49-23.672,74.634
			c-34.946,53.703-74.311,85.845-84.241,93.498C152.014,240.046,150.292,238.939,148.824,237.863z"/>
		<path fill="#FFC931" d="M147.885,239.144c-5.106-3.745-8.363-11.574-10.98-17.865c-1.494-3.592-3.354-8.061-4.446-8.061
			c-2.646,0.681-5.17,4.849-6.072,9.918c-0.648,3.638-1.786,16.186,10.746,24.895c12.905,8.968,25.251,9.665,28.726,9.665
			c4.871,0,7.531-1.075,7.795-1.801c0.507-1.395-7.539-5.913-12.862-8.904C156.161,244.39,151.373,241.701,147.885,239.144z"/>
		<path fill="#A7C2D0" d="M145.366,234.313c1.055,1.4,2.198,2.626,3.458,3.551c1.467,1.076,3.189,2.183,5.031,3.299
			c9.93-7.652,49.295-39.795,84.241-93.498c20.916-32.144,24.417-58.328,23.672-74.634c-0.619-13.532-4.17-22.636-5.806-26.169
			c0,0-2.025,64.065-42.506,113.673C183.845,196.824,157.421,222.916,145.366,234.313z"/>
		<path fill="#F68F33" d="M165.858,257.695c2.986,0,5.138-0.404,6.419-0.884c-6.14-0.77-12.251-1.807-18.039-3.951
			c-7.413-2.749-14.357-7.527-18.168-14.454c-3.744-6.805-4.125-14.91-4.05-22.676c0.008-0.793,0.023-1.6,0.095-2.396
			c-2.519,0.938-4.866,4.953-5.729,9.802c-0.648,3.638-1.786,16.186,10.746,24.895C150.038,256.998,162.383,257.695,165.858,257.695
			z"/>
		<path fill="#F68F33" d="M157.8,274.243c-0.199-2.238-1.016-4.373-1.439-6.581c-0.529-2.763-0.437-5.614-0.91-8.389
			c-0.042-0.248-0.101-0.492-0.152-0.739c-0.095-0.222-0.189-0.45-0.285-0.666c-1.979-0.493-3.963-1.105-5.93-1.837
			c4.099,7.362,9.009,21.283-3.172,33.037c-5.188,5.006-10.795,7.545-16.663,7.546c-0.001,0-0.001,0-0.003,0
			c-11.784,0-21.558-10.349-25.212-14.798c-2.878-3.505-5.842-5.356-8.569-5.356c-2.915,0-5.345,2.144-6.842,6.035
			c-0.307,0.801-0.455,1.644-0.477,2.501c1.871-1.175,4.388-1.602,6.585-1.116c3.862,0.852,6.989,3.566,10.226,5.838
			c7.71,5.411,17.125,8.693,26.522,8.047c9.398-0.646,18.661-5.531,23.575-13.568C156.881,281.21,158.11,277.73,157.8,274.243z"/>
		<path fill="#DAA18A" d="M115.328,272.304c-5.332,2.428-9.871,0.237-15.332,0.396c-0.522,0.016-0.804,0.952-0.21,1.075
			c4.929,1.022,11.938,3.649,15.994-0.551C116.112,272.88,115.903,272.042,115.328,272.304z"/>
		<path fill="#DAA18A" d="M126.15,263.476c-2.86-0.004-5.73,0.679-8.613,0.776c-2.942,0.102-5.896-0.199-8.828,0.065
			c-0.555,0.05-0.85,1.088-0.187,1.178c5.245,0.707,12.881,1.654,17.771-0.781C126.865,264.43,126.905,263.476,126.15,263.476z"/>
		<path fill="#DAA18A" d="M134.209,254.639c-2.51-0.326-5.08,0.145-7.603,0.285c-2.931,0.162-5.839-0.067-8.767-0.125
			c-0.59-0.012-0.8,1.014-0.191,1.164c4.866,1.203,11.636,1.581,16.485,0.155C134.797,255.924,135.062,254.75,134.209,254.639z"/>
		<path fill="#DAA18A" d="M129.62,247.586c-1.115-0.32-2.193-0.067-3.324,0.099c-1.496,0.221-2.858,0.249-4.343,0.076
			c-0.464-0.055-0.907,0.592-0.449,0.913c0.978,0.687,2.15,0.769,3.317,0.768c1.49-0.001,3.283-0.059,4.687-0.558
			C129.958,248.724,130.197,247.752,129.62,247.586z"/>
	</g>
	<g>
		<path fill="#AF8070" d="M253.532,274.943c-2.914,0.378-5.933,2.383-8.793,5.864c-0.736,0.896-1.733,2.044-2.947,3.295
			c-10.614-7.454-26.489-24.332-33.144-31.604c1.765-0.967,3.48-2.022,5.125-3.165c3.864-2.687,6.499-5.719,8.282-8.765
			C233.109,247.953,247.721,267.025,253.532,274.943z"/>
		<path fill="#FFC931" d="M200.917,256.031c-4.101,7.362-9.01,21.283,3.171,33.037c5.189,5.006,10.796,7.545,16.663,7.546
			c0.001,0,0.002,0,0.002,0c11.784,0,21.558-10.349,25.213-14.798c2.879-3.505,5.841-5.356,8.569-5.356
			c2.914,0,5.345,2.144,6.841,6.035c0.966,2.511,0.508,5.425-1.256,7.994c-2.024,2.946-5.256,4.707-8.646,4.707
			c-1.938,0-3.86-0.569-5.711-1.69c-0.127-0.078-0.27-0.115-0.411-0.115c-0.244,0-0.485,0.114-0.641,0.325
			c-0.078,0.106-7.979,10.672-21.584,10.673h-0.002c-4.698,0-9.59-1.254-14.539-3.729c-8.527-4.263-14.021-10.126-16.325-17.423
			c-2.915-9.224-0.174-18.819,2.724-25.368C196.965,257.375,198.95,256.763,200.917,256.031z"/>
		<path fill="#CED9DF" d="M111.904,147.665c-20.917-32.144-24.417-58.328-23.672-74.634c0.619-13.532,4.169-22.636,5.805-26.169
			c11.709,32.665,47.293,55.681,51.429,58.267c-0.307,34.221,17.29,66.476,32.144,87.543c12.61,17.888,25.426,30.952,30.508,35.882
			c-1.895,3.768-4.141,7.256-6.941,9.31c-1.467,1.076-3.188,2.183-5.031,3.299C186.215,233.51,146.85,201.367,111.904,147.665z"/>
		<path fill="#714E40" d="M86.646,72.958c-0.756,16.539,2.78,43.074,23.927,75.572c34.508,53.031,73.33,85.136,84.108,93.508
			c-2.022,1.191-4.15,2.39-6.25,3.569c-9.557,5.367-14.501,8.286-13.576,10.829c0.763,2.099,5.297,2.847,9.286,2.847
			c2.875,0,5.884-0.341,8.929-0.977c-2.819,6.75-5.228,16.216-2.323,25.408c2.44,7.723,8.203,13.901,17.13,18.364
			c5.172,2.586,10.302,3.896,15.249,3.896c0.002,0,0.002,0,0.002,0c12.729,0,20.53-8.45,22.425-10.761
			c1.916,1.041,3.904,1.568,5.922,1.568c3.913,0,7.633-2.018,9.954-5.396c2.033-2.962,2.568-6.499,1.43-9.462
			c-1.565-4.067-4.21-6.553-7.349-6.979c-5.326-7.353-20.792-27.906-32.691-35.779c3.501-6.965,2.816-13.733,2.358-16.309
			c-1.037-5.833-3.917-10.319-7.166-11.167c-0.154-0.041-0.313-0.061-0.47-0.061c-2.151,0-3.647,3.595-5.911,9.038
			c-0.845,2.031-1.762,4.228-2.779,6.384c-5.262-5.134-17.704-17.928-29.965-35.324c-14.774-20.962-32.29-53.076-31.828-87.028
			c0.004-0.283-0.143-0.545-0.386-0.691c-0.401-0.241-40.296-24.514-51.743-59.439c-0.098-0.297-0.361-0.509-0.671-0.542
			c-0.316-0.03-0.613,0.12-0.769,0.391C93.243,44.841,87.469,54.971,86.646,72.958z M189.209,246.99
			c4.631-2.601,9.418-5.289,12.906-7.847c5.105-3.745,8.363-11.574,10.98-17.865c1.494-3.592,3.354-8.061,4.445-8.061
			c2.646,0.681,5.171,4.849,6.072,9.918c0.648,3.638,1.786,16.186-10.746,24.895c-12.905,8.968-25.25,9.665-28.726,9.665
			c-4.871,0-7.531-1.075-7.795-1.801C175.84,254.5,183.886,249.981,189.209,246.99z M194.985,257.868
			c1.979-0.493,3.965-1.105,5.932-1.837c-4.101,7.362-9.01,21.283,3.171,33.037c5.189,5.006,10.796,7.545,16.663,7.546
			c0.001,0,0.002,0,0.002,0c11.784,0,21.558-10.349,25.213-14.798c2.879-3.505,5.841-5.356,8.569-5.356
			c2.914,0,5.345,2.144,6.841,6.035c0.966,2.511,0.508,5.425-1.256,7.994c-2.024,2.946-5.256,4.707-8.646,4.707
			c-1.938,0-3.86-0.569-5.711-1.69c-0.127-0.078-0.27-0.115-0.411-0.115c-0.244,0-0.485,0.114-0.641,0.325
			c-0.078,0.106-7.979,10.672-21.584,10.673h-0.002c-4.698,0-9.59-1.254-14.539-3.729c-8.527-4.263-14.021-10.126-16.325-17.423
			C189.347,274.013,192.088,264.417,194.985,257.868z M240.654,285.241c-4.654,4.517-11.815,9.786-19.901,9.786
			c-0.001,0,0,0-0.002,0c-5.442-0.001-10.678-2.391-15.561-7.102c-12.594-12.152-5.956-26.511-1.947-32.818
			c1.333-0.562,2.65-1.179,3.947-1.842C213.661,260.369,229.643,277.44,240.654,285.241z M222.056,240.569
			c11.054,7.384,25.665,26.456,31.477,34.374c-2.914,0.378-5.933,2.383-8.793,5.864c-0.736,0.896-1.733,2.044-2.947,3.295
			c-10.614-7.454-26.489-24.332-33.144-31.604c1.765-0.967,3.48-2.022,5.125-3.165C217.638,246.647,220.272,243.615,222.056,240.569
			z M196.145,241.162c-9.93-7.652-49.295-39.795-84.241-93.498c-20.917-32.144-24.417-58.328-23.672-74.634
			c0.619-13.532,4.169-22.636,5.805-26.169c11.709,32.665,47.293,55.681,51.429,58.267c-0.307,34.221,17.29,66.476,32.144,87.543
			c12.61,17.888,25.426,30.952,30.508,35.882c-1.895,3.768-4.141,7.256-6.941,9.31C199.709,238.939,197.987,240.046,196.145,241.162
			z"/>
		<path fill="#FFC931" d="M202.115,239.144c5.105-3.745,8.363-11.574,10.98-17.865c1.494-3.592,3.354-8.061,4.445-8.061
			c2.646,0.681,5.171,4.849,6.072,9.918c0.648,3.638,1.786,16.186-10.746,24.895c-12.905,8.968-25.25,9.665-28.726,9.665
			c-4.871,0-7.531-1.075-7.795-1.801c-0.507-1.395,7.539-5.913,12.862-8.904C193.84,244.39,198.627,241.701,202.115,239.144z"/>
		<path fill="#A7C2D0" d="M204.635,234.313c-1.055,1.4-2.198,2.626-3.459,3.551c-1.467,1.076-3.188,2.183-5.031,3.299
			c-9.93-7.652-49.295-39.795-84.241-93.498c-20.917-32.144-24.417-58.328-23.672-74.634c0.619-13.532,4.169-22.636,5.805-26.169
			c0,0,2.026,64.065,42.506,113.673C166.155,196.824,192.579,222.916,204.635,234.313z"/>
		<path fill="#F68F33" d="M184.142,257.695c-2.986,0-5.137-0.404-6.419-0.884c6.141-0.77,12.251-1.807,18.039-3.951
			c7.413-2.749,14.357-7.527,18.168-14.454c3.744-6.805,4.124-14.91,4.05-22.676c-0.008-0.793-0.023-1.6-0.094-2.396
			c2.518,0.938,4.865,4.953,5.728,9.802c0.648,3.638,1.786,16.186-10.746,24.895C199.962,256.998,187.617,257.695,184.142,257.695z"
			/>
		<path fill="#F68F33" d="M192.2,274.243c0.198-2.238,1.017-4.373,1.438-6.581c0.53-2.763,0.437-5.614,0.91-8.389
			c0.043-0.248,0.101-0.492,0.151-0.739c0.096-0.222,0.19-0.45,0.285-0.666c1.979-0.493,3.965-1.105,5.932-1.837
			c-4.101,7.362-9.01,21.283,3.171,33.037c5.189,5.006,10.796,7.545,16.663,7.546c0.001,0,0.002,0,0.002,0
			c11.784,0,21.558-10.349,25.213-14.798c2.879-3.505,5.841-5.356,8.569-5.356c2.914,0,5.345,2.144,6.841,6.035
			c0.308,0.801,0.455,1.644,0.478,2.501c-1.871-1.175-4.389-1.602-6.585-1.116c-3.862,0.852-6.989,3.566-10.227,5.838
			c-7.71,5.411-17.125,8.693-26.522,8.047c-9.397-0.646-18.661-5.531-23.574-13.568C193.118,281.21,191.891,277.73,192.2,274.243z"
			/>
		<path fill="#DAA18A" d="M234.672,272.304c5.333,2.428,9.871,0.237,15.333,0.396c0.521,0.016,0.804,0.952,0.21,1.075
			c-4.93,1.022-11.938,3.649-15.993-0.551C233.889,272.88,234.097,272.042,234.672,272.304z"/>
		<path fill="#DAA18A" d="M223.85,263.476c2.861-0.004,5.731,0.679,8.614,0.776c2.941,0.102,5.895-0.199,8.827,0.065
			c0.556,0.05,0.851,1.088,0.187,1.178c-5.245,0.707-12.881,1.654-17.771-0.781C223.136,264.43,223.096,263.476,223.85,263.476z"/>
		<path fill="#DAA18A" d="M215.791,254.639c2.511-0.326,5.08,0.145,7.603,0.285c2.932,0.162,5.839-0.067,8.768-0.125
			c0.59-0.012,0.8,1.014,0.189,1.164c-4.865,1.203-11.635,1.581-16.484,0.155C215.202,255.924,214.938,254.75,215.791,254.639z"/>
		<path fill="#DAA18A" d="M220.38,247.586c1.116-0.32,2.193-0.067,3.323,0.099c1.497,0.221,2.858,0.249,4.345,0.076
			c0.464-0.055,0.906,0.592,0.449,0.913c-0.979,0.687-2.151,0.769-3.318,0.768c-1.489-0.001-3.281-0.059-4.686-0.558
			C220.041,248.724,219.803,247.752,220.38,247.586z"/>
	</g>
</g>
</svg>
