<?xml version="1.0" encoding="utf-8"?>
<!-- Generator: Adobe Illustrator 16.0.0, SVG Export Plug-In . SVG Version: 6.00 Build 0)  -->
<!DOCTYPE svg PUBLIC "-//W3C//DTD SVG 1.1 Tiny//EN" "http://www.w3.org/Graphics/SVG/1.1/DTD/svg11-tiny.dtd">
<svg version="1.1" baseProfile="tiny" id="Layer_1" xmlns="http://www.w3.org/2000/svg" xmlns:xlink="http://www.w3.org/1999/xlink"
	 x="0px" y="0px" width="350px" height="350px" viewBox="0 0 350 350" overflow="scroll" xml:space="preserve">
<g id="XMLID_402_">
	<path id="XMLID_316_" fill="#89A0AC" d="M149.127,27.335c0,0,22.817,20.31,26.829,96.284c4.012,75.975,3.009,115.09,3.009,115.09
		h-17.05c0,0,0.752-88.512-1.755-126.123C157.652,74.975,152.888,34.355,149.127,27.335z"/>
	<path id="XMLID_407_" fill="#9BB8C5" d="M163.573,238.709h3.788c0.031-10.271-0.005-47.881-1.792-104.141
		c-1.608-50.644-10.294-86.316-14.352-100.468c3.299,14.662,6.882,47.587,8.942,78.486c2.333,34.992,1.844,114.042,1.765,124.88
		L163.573,238.709z"/>
	<path id="XMLID_319_" fill="#433C47" d="M158.621,239.378c-0.418,7.271,5.516,8.775,5.516,8.775h6.382h6.381
		c0,0,5.935-1.504,5.517-8.775s-4.154-12.872-11.897-13.791C162.775,226.506,159.038,232.106,158.621,239.378z"/>
	<polygon id="XMLID_404_" fill="#EC6623" points="169.999,232.095 171.184,235.743 175.02,235.743 171.916,237.997 173.102,241.646 
		169.999,239.391 166.895,241.646 168.081,237.997 164.977,235.743 168.813,235.743 	"/>
	<rect id="XMLID_343_" x="162.729" y="246.335" fill="#A24523" width="15.545" height="8.317"/>
	<path id="XMLID_344_" fill="#433C47" d="M170.519,244.956h-17.944c0,0-3.009,0.439-3.448-3.071c-0.439-3.51-2.821-4.074-5.329-2.82
		c-1.802,0.9-2.568,3.81-0.599,6.375c1.353,1.762,3.512,2.714,5.733,2.714h21.586V244.956z"/>
	<path id="XMLID_345_" fill="#433C47" d="M170.519,248.151h17.942c0,0,3.01-0.439,3.448,3.071c0.439,3.51,2.821,4.074,5.328,2.82
		c1.803-0.9,2.568-3.81,0.599-6.375c-1.352-1.762-3.511-2.714-5.732-2.714h-21.585V248.151z"/>
	<path id="XMLID_385_" fill="#4B2A15" d="M162.729,254.652c0,0-3.935,9.173-4.13,27.352c-0.195,18.178,4.13,34.1,4.13,34.1
		c8.685,3.896,16.553,3.166,23.883-0.626c0,0-13.916-33.391-8.338-60.825H162.729z"/>
	<path id="XMLID_399_" fill="#4B2A15" d="M175.999,318.549v1.421c0,1.488-1.208,2.695-2.696,2.695l0,0
		c-1.488,0-2.695-1.207-2.695-2.695v-1.421c0-1.489,1.207-2.695,2.695-2.695l0,0C174.791,315.854,175.999,317.06,175.999,318.549z"
		/>
	<circle id="XMLID_400_" fill="#433C47" cx="187.531" cy="313.555" r="2.298"/>
	<g id="XMLID_401_">
		<path id="XMLID_403_" fill="#433C47" d="M207.96,287.965c0,0.585-0.011,1.169-0.036,1.751
			c-0.787,18.357-19.704,25.192-19.895,25.259l-0.997-2.839c0.173-0.061,17.187-6.251,17.886-22.55
			c0.718-16.896-10.473-36.728-10.585-36.925l2.612-1.493C197.409,251.98,207.96,270.651,207.96,287.965z"/>
	</g>
	<path id="XMLID_406_" fill="#693B1F" d="M162.729,316.104c3.392,1.521,6.657,2.329,9.816,2.533
		c-9.64-28.44-5.407-54.213-3.139-63.985h-6.677c0,0-3.935,9.174-4.13,27.353C158.404,300.182,162.729,316.104,162.729,316.104z"/>
</g>
</svg>
