<?xml version="1.0" encoding="utf-8"?>
<!-- Generator: Adobe Illustrator 16.0.0, SVG Export Plug-In . SVG Version: 6.00 Build 0)  -->
<!DOCTYPE svg PUBLIC "-//W3C//DTD SVG 1.1 Tiny//EN" "http://www.w3.org/Graphics/SVG/1.1/DTD/svg11-tiny.dtd">
<svg version="1.1" baseProfile="tiny" id="Layer_1" xmlns="http://www.w3.org/2000/svg" xmlns:xlink="http://www.w3.org/1999/xlink"
	 x="0px" y="0px" width="350px" height="350px" viewBox="0 0 350 350" overflow="scroll" xml:space="preserve">
<g>
	<g>
		<path fill="#CED9DF" d="M119.234,241.911c2.715,1.307,7.12,5.453,9.074,8.448c62.56-50.647,129.141-142.318,142.822-169.124
			c7.989-15.653,7.727-23.273,6.098-26.908c-0.812-1.81-1.967-2.643-2.655-2.999c-9.095,18.75-30.418,56.93-72.632,106.264
			C160.886,205.572,128.409,234.134,119.234,241.911z"/>
		<path fill="#F68F33" d="M123.079,257.611c2.616-1.86,4.763-3.894,4.652-4.896c-0.241-2.165-7.919-9.654-9.899-9.654
			c-1.211,0.341-3.988,2.286-5.919,3.729C116.052,249.107,120.793,253.726,123.079,257.611z"/>
		<path fill="#AF8070" d="M73.115,287.881c-1.502,2.104-1.645,4.826-0.381,7.283c1.164,2.26,3.261,3.723,5.342,3.723
			c0,0,0.001,0,0.001,0c0.968,0,1.915-0.305,2.814-0.904c5.212-3.475,29.687-27.043,36.657-33.785
			c-3.868-1.775-8.477-5.732-11.14-9.7C99.51,261.043,76.797,282.727,73.115,287.881z"/>
		<path fill="#714E40" d="M78.076,300.451h0.001c1.282,0,2.521-0.393,3.682-1.168c5.535-3.689,31.136-28.396,37.39-34.459
			c0.727,0.225,1.41,0.35,2.021,0.35c1.121,0,2.033-0.395,2.638-1.139c0.666-0.822,1.176-2.359-0.005-5.016
			c2.493-1.74,5.712-4.414,5.483-6.477c-0.026-0.232-0.104-0.497-0.22-0.784C191.86,201.011,258.78,108.871,272.522,81.947
			c8.312-16.282,7.903-24.396,6.098-28.336c-1.531-3.341-4.14-4.012-4.249-4.039c-0.36-0.09-0.73,0.088-0.891,0.421
			c-8.876,18.436-30.129,56.798-72.728,106.583c-42.851,50.078-76.334,78.96-83.635,85.073c-1.789,0.653-5.135,3.111-6.773,4.362
			c-1.058-0.45-2.044-0.708-2.897-0.708c-0.931,0-1.702,0.313-2.23,0.908c-0.854,0.96-1.579,2.754-0.19,5.847
			c0.16,0.355,0.343,0.715,0.543,1.075c-6.677,6.329-29.873,28.44-33.729,33.839c-1.85,2.59-2.036,5.918-0.499,8.906
			C72.772,298.656,75.415,300.449,78.076,300.451z M106.454,251.418c-0.577-1.286-1.058-3.053-0.067-4.168
			c0.229-0.258,0.577-0.383,1.062-0.383c3.806,0,12.261,7.158,14.83,12.555c0.55,1.156,1.05,2.723,0.316,3.625
			c-0.307,0.379-0.772,0.563-1.424,0.563C117.11,263.609,108.858,256.773,106.454,251.418z M277.228,54.328
			c1.629,3.635,1.892,11.255-6.098,26.908c-13.682,26.806-80.263,118.476-142.822,169.124c-1.954-2.995-6.359-7.142-9.074-8.448
			c9.175-7.777,41.652-36.339,82.707-84.318c42.214-49.333,63.537-87.514,72.632-106.264
			C275.261,51.685,276.416,52.518,277.228,54.328z M117.833,243.061c1.979,0,9.658,7.489,9.899,9.654
			c0.111,1.003-2.037,3.036-4.652,4.896c-2.286-3.886-7.027-8.504-11.166-10.822C113.845,245.347,116.622,243.401,117.833,243.061z
			 M117.548,264.197c-6.97,6.742-31.444,30.311-36.657,33.785c-0.9,0.6-1.847,0.904-2.814,0.904c0,0,0,0-0.001,0
			c-2.082,0-4.179-1.463-5.342-3.723c-1.264-2.457-1.121-5.18,0.381-7.283c3.682-5.154,26.395-26.838,33.293-33.384
			C109.071,258.465,113.681,262.422,117.548,264.197z"/>
		<path fill="#FFC931" d="M121.169,263.609c0.651,0,1.117-0.184,1.424-0.563c0.734-0.902,0.234-2.469-0.316-3.625
			c-2.569-5.396-11.023-12.555-14.83-12.555c-0.484,0-0.832,0.125-1.062,0.383c-0.99,1.115-0.51,2.882,0.067,4.168
			C108.858,256.773,117.11,263.609,121.169,263.609z"/>
		<path fill="#A7C2D0" d="M268.394,77.056c-9.383,16.419-58.641,86.007-98.907,126.665c-21.517,21.727-36.111,34.742-45.039,42.156
			c1.537,1.479,2.959,3.102,3.86,4.482c62.56-50.647,129.141-142.318,142.822-169.124c7.989-15.653,7.727-23.273,6.098-26.908
			c-0.812-1.81-1.967-2.643-2.655-2.999C274.572,51.329,277.776,60.637,268.394,77.056z"/>
		<path fill="#F68F33" d="M121.365,263.596c-4.663-5.668-11.559-10.021-14.148-16.712c-0.364,0.035-0.641,0.152-0.831,0.366
			c-0.99,1.115-0.51,2.882,0.067,4.168c2.405,5.355,10.657,12.191,14.716,12.191C121.24,263.609,121.3,263.6,121.365,263.596z"/>
		<path fill="#DAA18A" d="M112.775,264.094c-2.179,0.096-4.398,0.027-6.606,0.072c0.189-1.689,0.274-3.375,0.199-5.025
			c-0.041-0.9-1.197-0.588-1.208,0.188c-0.024,1.613-0.17,3.25-0.408,4.883c-1.532,0.074-3.052,0.23-4.543,0.57
			c-2.613,0.598-3.018,3.158-3.016,5.775c-1.085-0.137-2.167-0.303-3.238-0.553c-0.537-0.127-0.913,0.318-1.059,0.773
			c-0.739,2.309-0.845,4.73-1.085,7.131c-1.324,0.055-2.585,0.049-3.366,0.252c-2.054,0.527-3.358,1.74-4.015,3.797
			c-0.088,0.277-0.22,1.146-0.371,2.182c-0.911-0.014-1.798-0.041-2.589-0.01c-0.417,0.016-0.76,0.428-0.833,0.813
			c-0.285,1.508-0.566,3.023-0.839,4.541c-1.984,0.076-3.99,0.043-5.796,0.895c-0.427,0.201-0.616,1.211,0.062,1.076
			c1.805-0.361,3.639-0.395,5.471-0.449c-0.244,1.393-0.484,2.789-0.698,4.182c-0.149,0.973,1.107,1.07,1.419,0.252
			c0.204-0.533,0.558-2.506,0.936-4.504c1.066-0.059,2.129-0.156,3.183-0.371c0.396-0.082,0.6-0.553,0.635-0.904
			c0.12-1.215,0.212-2.42,0.354-3.617c1.71-0.031,3.386-0.168,5.017-0.924c1.939-0.898,2.754-2.996,3.16-5.377
			c2.632-0.254,4.695-1.426,5.42-4.098c0.242-0.893,0.253-1.879,0.215-2.854c1.451,0.152,2.903,0.297,4.345,0.52
			c0.497,0.076,0.92-0.238,1.041-0.727c0.497-2.012,0.963-4.115,1.304-6.24c2.338,0.018,4.709,0.17,6.959-0.238
			C113.912,265.906,113.995,264.039,112.775,264.094z M83.089,289.068c-0.521,0.145-1.054,0.234-1.593,0.295
			c0.358-1.787,0.708-3.268,0.948-3.277c0.446-0.02,0.89-0.025,1.332-0.029C83.539,287.609,83.288,289.016,83.089,289.068z
			 M85.665,284.129c0.057-0.293,0.104-0.588,0.176-0.881c0.73-2.998,3.233-3.285,5.723-3.395c-0.018,0.119-0.032,0.24-0.053,0.359
			C90.962,283.41,88.389,284.037,85.665,284.129z M97.206,275.293c-0.215,1.605-1.686,2.201-3.41,2.449
			c0.193-2.027,0.246-4.068,0.544-5.633c0.961,0.191,1.928,0.342,2.899,0.463C97.278,273.592,97.306,274.541,97.206,275.293z
			 M103.199,271.309c-1.364-0.234-2.738-0.383-4.112-0.529c-0.064-3.219,0.958-4.055,3.915-4.34c0.457-0.043,0.917-0.066,1.38-0.082
			C104.06,268.037,103.656,269.697,103.199,271.309z"/>
	</g>
	<g>
		<path fill="#CED9DF" d="M230.766,241.911c-2.715,1.307-7.12,5.453-9.073,8.448C159.132,199.712,92.551,108.042,78.87,81.236
			c-7.99-15.653-7.727-23.273-6.098-26.908c0.811-1.81,1.966-2.643,2.655-2.999c9.095,18.75,30.418,56.93,72.632,106.264
			C189.112,205.572,221.591,234.134,230.766,241.911z"/>
		<path fill="#F68F33" d="M226.92,257.611c-2.615-1.86-4.763-3.894-4.652-4.896c0.241-2.165,7.92-9.654,9.899-9.654
			c1.211,0.341,3.987,2.286,5.919,3.729C233.947,249.107,229.206,253.726,226.92,257.611z"/>
		<path fill="#AF8070" d="M276.885,287.881c1.502,2.104,1.645,4.826,0.381,7.283c-1.164,2.26-3.261,3.723-5.343,3.723l0,0
			c-0.968,0-1.915-0.305-2.815-0.904c-5.212-3.475-29.687-27.043-36.656-33.785c3.868-1.775,8.477-5.732,11.14-9.7
			C250.489,261.043,273.202,282.727,276.885,287.881z"/>
		<path fill="#714E40" d="M278.656,295.879c1.537-2.988,1.351-6.316-0.499-8.906c-3.855-5.398-27.052-27.51-33.729-33.839
			c0.2-0.36,0.384-0.72,0.544-1.075c1.388-3.093,0.663-4.887-0.19-5.847c-0.528-0.595-1.3-0.908-2.23-0.908
			c-0.853,0-1.84,0.258-2.897,0.708c-1.639-1.251-4.983-3.709-6.772-4.362c-7.301-6.113-40.784-34.995-83.635-85.073
			C106.648,106.792,85.395,68.43,76.519,49.994c-0.16-0.333-0.53-0.511-0.89-0.421c-0.11,0.027-2.717,0.697-4.249,4.039
			c-1.806,3.939-2.214,12.054,6.098,28.336c13.742,26.924,80.662,119.063,143.458,169.812c-0.116,0.287-0.194,0.552-0.221,0.784
			c-0.229,2.063,2.99,4.736,5.483,6.477c-1.181,2.656-0.671,4.193-0.005,5.016c0.605,0.744,1.518,1.139,2.637,1.139
			c0.612,0,1.294-0.125,2.021-0.35c6.254,6.063,31.855,30.77,37.39,34.459c1.161,0.775,2.4,1.168,3.683,1.168c0,0,0,0,0.001,0
			C274.585,300.449,277.228,298.656,278.656,295.879z M228.829,263.609c-0.65,0-1.116-0.184-1.423-0.563
			c-0.735-0.902-0.234-2.469,0.315-3.625c2.569-5.396,11.023-12.555,14.83-12.555c0.484,0,0.832,0.125,1.062,0.383
			c0.99,1.115,0.51,2.882-0.067,4.168C241.141,256.773,232.889,263.609,228.829,263.609z M75.427,51.329
			c9.095,18.75,30.418,56.93,72.632,106.264c41.054,47.979,73.532,76.541,82.707,84.318c-2.715,1.307-7.12,5.453-9.073,8.448
			C159.132,199.712,92.551,108.042,78.87,81.236c-7.99-15.653-7.727-23.273-6.098-26.908C73.583,52.518,74.738,51.685,75.427,51.329
			z M238.086,246.789c-4.139,2.318-8.88,6.937-11.166,10.822c-2.615-1.86-4.763-3.894-4.652-4.896
			c0.241-2.165,7.92-9.654,9.899-9.654C233.378,243.401,236.154,245.347,238.086,246.789z M243.591,254.497
			c6.898,6.546,29.611,28.229,33.294,33.384c1.502,2.104,1.645,4.826,0.381,7.283c-1.164,2.26-3.261,3.723-5.343,3.723l0,0
			c-0.968,0-1.915-0.305-2.815-0.904c-5.212-3.475-29.687-27.043-36.656-33.785C236.319,262.422,240.928,258.465,243.591,254.497z"
			/>
		<path fill="#FFC931" d="M228.829,263.609c-0.65,0-1.116-0.184-1.423-0.563c-0.735-0.902-0.234-2.469,0.315-3.625
			c2.569-5.396,11.023-12.555,14.83-12.555c0.484,0,0.832,0.125,1.062,0.383c0.99,1.115,0.51,2.882-0.067,4.168
			C241.141,256.773,232.889,263.609,228.829,263.609z"/>
		<path fill="#A7C2D0" d="M81.606,77.056c9.382,16.419,58.641,86.007,98.907,126.665c21.518,21.727,36.111,34.742,45.039,42.156
			c-1.537,1.479-2.959,3.102-3.859,4.482C159.132,199.712,92.551,108.042,78.87,81.236c-7.99-15.653-7.727-23.273-6.098-26.908
			c0.811-1.81,1.966-2.643,2.655-2.999C75.427,51.329,72.223,60.637,81.606,77.056z"/>
		<path fill="#F68F33" d="M228.634,263.596c4.663-5.668,11.56-10.021,14.149-16.712c0.363,0.035,0.64,0.152,0.83,0.366
			c0.99,1.115,0.51,2.882-0.067,4.168c-2.405,5.355-10.657,12.191-14.717,12.191C228.759,263.609,228.7,263.6,228.634,263.596z"/>
		<path fill="#DAA18A" d="M237.174,266.104c2.251,0.408,4.622,0.256,6.96,0.238c0.341,2.125,0.808,4.229,1.304,6.24
			c0.121,0.488,0.545,0.803,1.041,0.727c1.442-0.223,2.895-0.367,4.345-0.52c-0.037,0.975-0.026,1.961,0.216,2.854
			c0.726,2.672,2.788,3.844,5.42,4.098c0.405,2.381,1.221,4.479,3.16,5.377c1.63,0.756,3.306,0.893,5.017,0.924
			c0.143,1.197,0.234,2.402,0.354,3.617c0.035,0.352,0.238,0.822,0.635,0.904c1.054,0.215,2.117,0.313,3.184,0.371
			c0.378,1.998,0.731,3.971,0.936,4.504c0.313,0.818,1.568,0.721,1.419-0.252c-0.213-1.393-0.454-2.789-0.697-4.182
			c1.833,0.055,3.666,0.088,5.472,0.449c0.677,0.135,0.488-0.875,0.061-1.076c-1.807-0.852-3.812-0.818-5.796-0.895
			c-0.273-1.518-0.554-3.033-0.839-4.541c-0.073-0.385-0.416-0.797-0.833-0.813c-0.791-0.031-1.679-0.004-2.589,0.01
			c-0.151-1.035-0.283-1.904-0.371-2.182c-0.657-2.057-1.961-3.27-4.015-3.797c-0.781-0.203-2.042-0.197-3.366-0.252
			c-0.24-2.4-0.347-4.822-1.086-7.131c-0.146-0.455-0.521-0.9-1.058-0.773c-1.071,0.25-2.153,0.416-3.238,0.553
			c0.001-2.617-0.404-5.178-3.017-5.775c-1.491-0.34-3.012-0.496-4.543-0.57c-0.237-1.633-0.384-3.27-0.408-4.883
			c-0.012-0.775-1.167-1.088-1.208-0.188c-0.074,1.65,0.01,3.336,0.199,5.025c-2.208-0.045-4.428,0.023-6.606-0.072
			C236.005,264.039,236.087,265.906,237.174,266.104z M266.224,286.057c0.442,0.004,0.886,0.01,1.331,0.029
			c0.24,0.01,0.591,1.49,0.949,3.277c-0.539-0.061-1.073-0.15-1.594-0.295C266.711,289.016,266.461,287.609,266.224,286.057z
			 M258.488,280.213c-0.021-0.119-0.034-0.24-0.054-0.359c2.491,0.109,4.994,0.396,5.725,3.395c0.071,0.293,0.118,0.588,0.176,0.881
			C261.61,284.037,259.037,283.41,258.488,280.213z M252.759,272.572c0.972-0.121,1.939-0.271,2.899-0.463
			c0.299,1.564,0.352,3.605,0.545,5.633c-1.724-0.248-3.195-0.844-3.41-2.449C252.693,274.541,252.722,273.592,252.759,272.572z
			 M245.616,266.357c0.464,0.016,0.925,0.039,1.381,0.082c2.958,0.285,3.979,1.121,3.915,4.34c-1.374,0.146-2.748,0.295-4.112,0.529
			C246.344,269.697,245.939,268.037,245.616,266.357z"/>
	</g>
</g>
</svg>
