<?xml version="1.0" encoding="utf-8"?>
<!-- Generator: Adobe Illustrator 16.0.0, SVG Export Plug-In . SVG Version: 6.00 Build 0)  -->
<!DOCTYPE svg PUBLIC "-//W3C//DTD SVG 1.1//EN" "http://www.w3.org/Graphics/SVG/1.1/DTD/svg11.dtd">
<svg version="1.1" id="Capa_1" xmlns="http://www.w3.org/2000/svg" xmlns:xlink="http://www.w3.org/1999/xlink" x="0px" y="0px"
	 width="350px" height="350px" viewBox="0 0 350 350" enable-background="new 0 0 350 350" xml:space="preserve">
<path d="M286.37,280.936l-21.301-21.301c1.591-3.252,1.649-7.123-0.039-10.494l-8.114-16.223c0.407-3.156-0.558-6.458-2.977-8.877
	l-84.907-84.907l10.006-10.006c4.417-0.884,8.48-3.045,11.74-6.305c8.991-8.992,8.991-23.626,0-32.618
	c-4.359-4.356-10.152-6.754-16.311-6.754c-6.159,0-11.952,2.398-16.308,6.754c-4.359,4.355-6.758,10.148-6.758,16.307
	c0,0.423,0.039,0.842,0.062,1.261l-6.896,6.896l-8.857-8.861c-3.414-3.406-8.568-3.937-12.574-1.699l-11.256-11.256
	c0.38-1.745,0.592-3.537,0.592-5.367c0-6.674-2.603-12.951-7.319-17.668c-4.721-4.721-10.995-7.319-17.668-7.319
	c-6.674,0-12.951,2.599-17.672,7.319c-9.742,9.741-9.742,25.595,0,35.336c4.721,4.721,10.994,7.319,17.672,7.319
	c1.83,0,3.621-0.211,5.366-0.592l11.256,11.256c-2.237,4.013-1.703,9.168,1.703,12.575l8.857,8.857l-6.896,6.896
	c-0.419-0.023-0.834-0.062-1.257-0.062c-6.163,0-11.952,2.399-16.307,6.754c-4.359,4.355-6.758,10.149-6.758,16.308
	c0,6.162,2.399,11.951,6.758,16.311c4.355,4.355,10.148,6.754,16.307,6.754c6.158,0,11.952-2.398,16.311-6.754
	c3.317-3.321,5.393-7.411,6.262-11.701l10.044-10.045l84.908,84.911c2.002,2.007,4.674,3.114,7.511,3.114
	c0.462,0,0.911-0.077,1.365-0.135l16.227,8.111c1.684,0.842,3.498,1.254,5.297,1.254c1.792,0,3.545-0.454,5.167-1.246l21.331,21.328
	c0.75,0.749,1.734,1.126,2.719,1.126c0.983,0,1.968-0.377,2.718-1.126C287.873,284.872,287.873,282.439,286.37,280.936z
	 M163.593,95.641c2.906-2.903,6.766-4.501,10.872-4.501s7.969,1.599,10.875,4.501c5.993,5.997,5.993,15.75,0,21.747
	c-2.876,2.875-6.809,4.313-10.752,4.344c-0.062,0-0.123,0.003-0.181,0.007c-0.95-0.004-1.896-0.092-2.83-0.258
	c-0.065-0.011-0.127-0.026-0.188-0.038c-0.896-0.173-1.772-0.423-2.625-0.746c-0.215-0.084-0.419-0.196-0.63-0.292
	c-0.696-0.3-1.384-0.63-2.03-1.034c-0.888-0.576-1.741-1.211-2.506-1.979l0,0c-0.02-0.02-0.031-0.042-0.05-0.058
	c-0.623-0.63-1.165-1.311-1.66-2.022c-0.273-0.396-0.504-0.814-0.738-1.234c-0.177-0.311-0.35-0.619-0.503-0.942
	c-0.281-0.603-0.531-1.226-0.734-1.872c-0.035-0.1-0.062-0.204-0.092-0.303c-0.219-0.75-0.396-1.519-0.508-2.311l-0.034-0.238
	c-0.077-0.626-0.185-1.25-0.185-1.892C159.092,102.407,160.691,98.547,163.593,95.641z M75.25,75.255
	c3.271-3.268,7.615-5.066,12.236-5.066c4.621,0,8.964,1.799,12.228,5.066c3.271,3.268,5.067,7.612,5.067,12.232
	c0,1.98-0.393,3.883-1.026,5.697c-0.331,0.953-0.757,1.853-1.238,2.718c-0.154,0.273-0.273,0.557-0.442,0.823
	c-0.672,1.069-1.445,2.08-2.36,2.991l0,0c-0.915,0.911-1.926,1.684-2.998,2.36c-0.266,0.169-0.554,0.289-0.823,0.442
	c-0.857,0.477-1.746,0.9-2.688,1.23c-1.822,0.643-3.733,1.038-5.72,1.038c-4.621,0-8.965-1.799-12.236-5.066
	C68.507,92.973,68.507,81.998,75.25,75.255z M100.829,108.592c0.565-0.357,1.111-0.746,1.649-1.154
	c0.211-0.157,0.43-0.307,0.638-0.473c0.665-0.534,1.307-1.103,1.922-1.71c0.035-0.035,0.077-0.065,0.111-0.1l0,0
	c0.65-0.649,1.25-1.334,1.815-2.037c0.161-0.204,0.308-0.416,0.461-0.623c0.411-0.542,0.803-1.095,1.165-1.668
	c0.05-0.077,0.107-0.146,0.154-0.223l8.634,8.63l-8.158,8.157l-8.623-8.634C100.679,108.708,100.748,108.646,100.829,108.592z
	 M111.243,130.277c-1.111-1.111-1.111-2.921,0-4.033l15.004-15c0.554-0.554,1.28-0.827,2.011-0.827c0.727,0,1.46,0.277,2.014,0.831
	l8.857,8.857l-9.515,9.515l-9.514,9.514L111.243,130.277z M120.104,150.006L120.104,150.006l2.46-2.464l31.1-31.1
	c0.545,1.142,1.18,2.237,1.91,3.283c0.058,0.084,0.123,0.161,0.181,0.246c0.723,1,1.511,1.964,2.399,2.852l0,0
	c0.019,0.02,0.042,0.035,0.062,0.054c0.642,0.638,1.322,1.223,2.026,1.772c0.2,0.158,0.404,0.3,0.607,0.45
	c0.588,0.435,1.192,0.834,1.814,1.207c0.165,0.1,0.331,0.204,0.5,0.3c1.684,0.949,3.475,1.676,5.347,2.171l-39.733,39.738
	c-0.215-0.827-0.5-1.634-0.808-2.429c-0.046-0.12-0.069-0.239-0.119-0.354c-0.5-1.234-1.146-2.406-1.86-3.544
	c-0.169-0.269-0.346-0.527-0.527-0.792c-0.784-1.138-1.638-2.233-2.641-3.232c-0.892-0.892-1.856-1.676-2.856-2.403
	c-0.081-0.058-0.158-0.123-0.242-0.181c-1.046-0.734-2.141-1.369-3.283-1.911L120.104,150.006z M95.639,185.346
	c-2.906-2.906-4.505-6.766-4.505-10.875c0-4.105,1.599-7.965,4.505-10.871c2.906-2.903,6.766-4.501,10.872-4.501
	c0.642,0,1.261,0.107,1.887,0.184l0.238,0.035c0.788,0.108,1.553,0.285,2.295,0.504c0.111,0.034,0.223,0.065,0.331,0.1
	c0.638,0.199,1.253,0.449,1.849,0.726c0.327,0.158,0.642,0.331,0.957,0.511c0.415,0.231,0.834,0.461,1.226,0.73
	c0.73,0.511,1.442,1.069,2.084,1.714c0.811,0.812,1.495,1.707,2.091,2.649c0.166,0.261,0.281,0.546,0.431,0.815
	c0.396,0.723,0.757,1.457,1.03,2.23c0.1,0.28,0.169,0.565,0.25,0.849c0.246,0.854,0.434,1.726,0.526,2.622
	c0.02,0.188,0.039,0.373,0.054,0.561c0.073,1.111,0.058,2.237-0.107,3.379l-0.142,0.969c-0.596,2.81-1.957,5.489-4.136,7.669
	C111.573,191.15,101.448,191.15,95.639,185.346z M144.564,163.599l19.029-19.029l30.265,30.266l-5.028,5.027
	c-1.503,1.504-1.503,3.934,0,5.437c0.75,0.749,1.734,1.126,2.718,1.126c0.984,0,1.969-0.377,2.719-1.126l5.027-5.028l6.098,6.097
	l-8.873,8.872c-1.503,1.504-1.503,3.934,0,5.437c0.75,0.749,1.734,1.126,2.719,1.126c0.983,0,1.968-0.377,2.717-1.126l8.873-8.873
	l6.098,6.097l-5.029,5.028c-1.503,1.503-1.503,3.933,0,5.436c0.75,0.75,1.734,1.127,2.718,1.127c0.984,0,1.969-0.377,2.718-1.127
	l5.028-5.027l6.098,6.097l-8.873,8.872c-1.503,1.503-1.503,3.933,0,5.436c0.75,0.75,1.733,1.126,2.718,1.126
	s1.969-0.376,2.719-1.126l8.872-8.872l14.612,14.612c1.141,1.142,1.141,2.99,0.011,4.137l-14.896,14.896
	c-1.111,1.107-3.038,1.104-4.146-0.004L144.564,163.599z M252.579,258.155l-11.817-5.909l5.744-5.742l5.743-5.744l5.908,11.813
	c0.8,1.604,0.488,3.533-0.777,4.801C256.108,258.644,254.183,258.955,252.579,258.155z"/>
</svg>
