<?xml version="1.0" encoding="utf-8"?>
<!-- Generator: Adobe Illustrator 16.0.0, SVG Export Plug-In . SVG Version: 6.00 Build 0)  -->
<!DOCTYPE svg PUBLIC "-//W3C//DTD SVG 1.1//EN" "http://www.w3.org/Graphics/SVG/1.1/DTD/svg11.dtd">
<svg version="1.1" id="Layer_1" xmlns="http://www.w3.org/2000/svg" xmlns:xlink="http://www.w3.org/1999/xlink" x="0px" y="0px"
	 width="350px" height="350px" viewBox="0 0 350 350" enable-background="new 0 0 350 350" xml:space="preserve">
<g>
	<polygon fill="#A7A9AC" points="85.921,186.363 65.711,201.838 284.289,201.838 260.092,186.363 	"/>
	<path fill="#A7A9AC" d="M78.208,166.818v2.062v2.186v1.993v3.543v0.579v3.662v2.003v2.115v0.629H270.69v-0.629v-2.115v-2.003
		v-3.662v-0.579v-3.543v-1.993v-2.186v-2.062H78.208z M80.843,184.05h-1.718v-1.204h1.718V184.05z M80.843,181.928h-1.718v-1.085
		h1.718V181.928z M80.843,179.93h-1.718v-1.829h1.718V179.93z M80.843,177.181h-1.718v-0.579h1.718V177.181z M80.843,175.688h-1.718
		v-1.709h1.718V175.688z M80.843,173.059h-1.718v-1.078h1.718V173.059z M80.843,171.065h-1.718v-1.268h1.718V171.065z
		 M80.843,168.88h-1.718v-1.147h1.718V168.88z M84.974,184.05h-2.841v-1.204h2.841V184.05z M84.974,181.928h-2.841v-1.085h2.841
		V181.928z M84.974,179.93h-2.841v-1.829h2.841V179.93z M84.974,177.181h-2.841v-0.579h2.841V177.181z M84.974,175.688h-2.841
		v-1.709h2.841V175.688z M84.974,173.059h-2.841v-1.078h2.841V173.059z M84.974,171.065h-2.841v-1.268h2.841V171.065z
		 M84.974,168.88h-2.841v-1.147h2.841V168.88z M89.105,184.05h-2.837v-1.204h2.837V184.05z M89.105,181.928h-2.837v-1.085h2.837
		V181.928z M89.105,179.93h-2.837v-1.829h2.837V179.93z M89.105,177.181h-2.837v-0.579h2.837V177.181z M89.105,175.688h-2.837
		v-1.709h2.837V175.688z M89.105,173.059h-2.837v-1.078h2.837V173.059z M89.105,171.065h-2.837v-1.268h2.837V171.065z
		 M89.105,168.88h-2.837v-1.147h2.837V168.88z M93.237,184.05H90.4v-1.204h2.837V184.05z M93.237,181.928H90.4v-1.085h2.837V181.928
		z M93.237,179.93H90.4v-1.829h2.837V179.93z M93.237,177.181H90.4v-0.579h2.837V177.181z M93.237,175.688H90.4v-1.709h2.837
		V175.688z M93.237,173.059H90.4v-1.078h2.837V173.059z M93.237,171.065H90.4v-1.268h2.837V171.065z M93.237,168.88H90.4v-1.147
		h2.837V168.88z M97.364,184.05h-2.828v-1.204h2.828V184.05z M97.364,181.928h-2.828v-1.085h2.828V181.928z M97.364,179.93h-2.828
		v-1.829h2.828V179.93z M97.364,177.181h-2.828v-0.579h2.828V177.181z M97.364,175.688h-2.828v-1.709h2.828V175.688z
		 M97.364,173.059h-2.828v-1.078h2.828V173.059z M97.364,171.065h-2.828v-1.268h2.828V171.065z M97.364,168.88h-2.828v-1.147h2.828
		V168.88z M101.5,184.05h-2.833v-1.204h2.833V184.05z M101.5,181.928h-2.833v-1.085h2.833V181.928z M101.5,179.93h-2.833v-1.829
		h2.833V179.93z M101.5,177.181h-2.833v-0.579h2.833V177.181z M101.5,175.688h-2.833v-1.709h2.833V175.688z M101.5,173.059h-2.833
		v-1.078h2.833V173.059z M101.5,171.065h-2.833v-1.268h2.833V171.065z M101.5,168.88h-2.833v-1.147h2.833V168.88z M105.631,184.05
		h-2.837v-1.204h2.837V184.05z M105.631,181.928h-2.837v-1.085h2.837V181.928z M105.631,179.93h-2.837v-1.829h2.837V179.93z
		 M105.631,177.181h-2.837v-0.579h2.837V177.181z M105.631,175.688h-2.837v-1.709h2.837V175.688z M105.631,173.059h-2.837v-1.078
		h2.837V173.059z M105.631,171.065h-2.837v-1.268h2.837V171.065z M105.631,168.88h-2.837v-1.147h2.837V168.88z M109.767,184.05
		h-2.841v-1.204h2.841V184.05z M109.767,181.928h-2.841v-1.085h2.841V181.928z M109.767,179.93h-2.841v-1.829h2.841V179.93z
		 M109.767,177.181h-2.841v-0.579h2.841V177.181z M109.767,175.688h-2.841v-1.709h2.841V175.688z M109.767,173.059h-2.841v-1.078
		h2.841V173.059z M109.767,171.065h-2.841v-1.268h2.841V171.065z M109.767,168.88h-2.841v-1.147h2.841V168.88z M113.894,184.05
		h-2.837v-1.204h2.837V184.05z M113.894,181.928h-2.837v-1.085h2.837V181.928z M113.894,179.93h-2.837v-1.829h2.837V179.93z
		 M113.894,177.181h-2.837v-0.579h2.837V177.181z M113.894,175.688h-2.837v-1.709h2.837V175.688z M113.894,173.059h-2.837v-1.078
		h2.837V173.059z M113.894,171.065h-2.837v-1.268h2.837V171.065z M113.894,168.88h-2.837v-1.147h2.837V168.88z M118.025,184.05
		h-2.837v-1.204h2.837V184.05z M118.025,181.928h-2.837v-1.085h2.837V181.928z M118.025,179.93h-2.837v-1.829h2.837V179.93z
		 M118.025,177.181h-2.837v-0.579h2.837V177.181z M118.025,175.688h-2.837v-1.709h2.837V175.688z M118.025,173.059h-2.837v-1.078
		h2.837V173.059z M118.025,171.065h-2.837v-1.268h2.837V171.065z M118.025,168.88h-2.837v-1.147h2.837V168.88z M122.156,184.05
		h-2.833v-1.204h2.833V184.05z M122.156,181.928h-2.833v-1.085h2.833V181.928z M122.156,179.93h-2.833v-1.829h2.833V179.93z
		 M122.156,177.181h-2.833v-0.579h2.833V177.181z M122.156,175.688h-2.833v-1.709h2.833V175.688z M122.156,173.059h-2.833v-1.078
		h2.833V173.059z M122.156,171.065h-2.833v-1.268h2.833V171.065z M122.156,168.88h-2.833v-1.147h2.833V168.88z M126.288,184.05
		h-2.833v-1.204h2.833V184.05z M126.288,181.928h-2.833v-1.085h2.833V181.928z M126.288,179.93h-2.833v-1.829h2.833V179.93z
		 M126.288,177.181h-2.833v-0.579h2.833V177.181z M126.288,175.688h-2.833v-1.709h2.833V175.688z M126.288,173.059h-2.833v-1.078
		h2.833V173.059z M126.288,171.065h-2.833v-1.268h2.833V171.065z M126.288,168.88h-2.833v-1.147h2.833V168.88z M130.419,184.05
		h-2.833v-1.204h2.833V184.05z M130.419,181.928h-2.833v-1.085h2.833V181.928z M130.419,179.93h-2.833v-1.829h2.833V179.93z
		 M130.419,177.181h-2.833v-0.579h2.833V177.181z M130.419,175.688h-2.833v-1.709h2.833V175.688z M130.419,173.059h-2.833v-1.078
		h2.833V173.059z M130.419,171.065h-2.833v-1.268h2.833V171.065z M130.419,168.88h-2.833v-1.147h2.833V168.88z M134.55,184.05
		h-2.833v-1.204h2.833V184.05z M134.55,181.928h-2.833v-1.085h2.833V181.928z M134.55,179.93h-2.833v-1.829h2.833V179.93z
		 M134.55,177.181h-2.833v-0.579h2.833V177.181z M134.55,175.688h-2.833v-1.709h2.833V175.688z M134.55,173.059h-2.833v-1.078h2.833
		V173.059z M134.55,171.065h-2.833v-1.268h2.833V171.065z M134.55,168.88h-2.833v-1.147h2.833V168.88z M138.686,184.05h-2.837
		v-1.204h2.837V184.05z M138.686,181.928h-2.837v-1.085h2.837V181.928z M138.686,179.93h-2.837v-1.829h2.837V179.93z
		 M138.686,177.181h-2.837v-0.579h2.837V177.181z M138.686,175.688h-2.837v-1.709h2.837V175.688z M138.686,173.059h-2.837v-1.078
		h2.837V173.059z M138.686,171.065h-2.837v-1.268h2.837V171.065z M138.686,168.88h-2.837v-1.147h2.837V168.88z M142.813,184.05
		h-2.833v-1.204h2.833V184.05z M142.813,181.928h-2.833v-1.085h2.833V181.928z M142.813,179.93h-2.833v-1.829h2.833V179.93z
		 M142.813,177.181h-2.833v-0.579h2.833V177.181z M142.813,175.688h-2.833v-1.709h2.833V175.688z M142.813,173.059h-2.833v-1.078
		h2.833V173.059z M142.813,171.065h-2.833v-1.268h2.833V171.065z M142.813,168.88h-2.833v-1.147h2.833V168.88z M146.944,184.05
		h-2.833v-1.204h2.833V184.05z M146.944,181.928h-2.833v-1.085h2.833V181.928z M146.944,179.93h-2.833v-1.829h2.833V179.93z
		 M146.944,177.181h-2.833v-0.579h2.833V177.181z M146.944,175.688h-2.833v-1.709h2.833V175.688z M146.944,173.059h-2.833v-1.078
		h2.833V173.059z M146.944,171.065h-2.833v-1.268h2.833V171.065z M146.944,168.88h-2.833v-1.147h2.833V168.88z M151.08,184.05
		h-2.833v-1.204h2.833V184.05z M151.08,181.928h-2.833v-1.085h2.833V181.928z M151.08,179.93h-2.833v-1.829h2.833V179.93z
		 M151.08,177.181h-2.833v-0.579h2.833V177.181z M151.08,175.688h-2.833v-1.709h2.833V175.688z M151.08,173.059h-2.833v-1.078h2.833
		V173.059z M151.08,171.065h-2.833v-1.268h2.833V171.065z M151.08,168.88h-2.833v-1.147h2.833V168.88z M155.211,184.05h-2.837
		v-1.204h2.837V184.05z M155.211,181.928h-2.837v-1.085h2.837V181.928z M155.211,179.93h-2.837v-1.829h2.837V179.93z
		 M155.211,177.181h-2.837v-0.579h2.837V177.181z M155.211,175.688h-2.837v-1.709h2.837V175.688z M155.211,173.059h-2.837v-1.078
		h2.837V173.059z M155.211,171.065h-2.837v-1.268h2.837V171.065z M155.211,168.88h-2.837v-1.147h2.837V168.88z M159.343,184.05
		h-2.833v-1.204h2.833V184.05z M159.343,181.928h-2.833v-1.085h2.833V181.928z M159.343,179.93h-2.833v-1.829h2.833V179.93z
		 M159.343,177.181h-2.833v-0.579h2.833V177.181z M159.343,175.688h-2.833v-1.709h2.833V175.688z M159.343,173.059h-2.833v-1.078
		h2.833V173.059z M159.343,171.065h-2.833v-1.268h2.833V171.065z M159.343,168.88h-2.833v-1.147h2.833V168.88z M163.474,184.05
		h-2.837v-1.204h2.837V184.05z M163.474,181.928h-2.837v-1.085h2.837V181.928z M163.474,179.93h-2.837v-1.829h2.837V179.93z
		 M163.474,177.181h-2.837v-0.579h2.837V177.181z M163.474,175.688h-2.837v-1.709h2.837V175.688z M163.474,173.059h-2.837v-1.078
		h2.837V173.059z M163.474,171.065h-2.837v-1.268h2.837V171.065z M163.474,168.88h-2.837v-1.147h2.837V168.88z M167.605,184.05
		h-2.837v-1.204h2.837V184.05z M167.605,181.928h-2.837v-1.085h2.837V181.928z M167.605,179.93h-2.837v-1.829h2.837V179.93z
		 M167.605,177.181h-2.837v-0.579h2.837V177.181z M167.605,175.688h-2.837v-1.709h2.837V175.688z M167.605,173.059h-2.837v-1.078
		h2.837V173.059z M167.605,171.065h-2.837v-1.268h2.837V171.065z M167.605,168.88h-2.837v-1.147h2.837V168.88z M171.737,184.05
		H168.9v-1.204h2.837V184.05z M171.737,181.928H168.9v-1.085h2.837V181.928z M171.737,179.93H168.9v-1.829h2.837V179.93z
		 M171.737,177.181H168.9v-0.579h2.837V177.181z M171.737,175.688H168.9v-1.709h2.837V175.688z M171.737,173.059H168.9v-1.078h2.837
		V173.059z M171.737,171.065H168.9v-1.268h2.837V171.065z M171.737,168.88H168.9v-1.147h2.837V168.88z M175.868,184.05h-2.833
		v-1.204h2.833V184.05z M175.868,181.928h-2.833v-1.085h2.833V181.928z M175.868,179.93h-2.833v-1.829h2.833V179.93z
		 M175.868,177.181h-2.833v-0.579h2.833V177.181z M175.868,175.688h-2.833v-1.709h2.833V175.688z M175.868,173.059h-2.833v-1.078
		h2.833V173.059z M175.868,171.065h-2.833v-1.268h2.833V171.065z M175.868,168.88h-2.833v-1.147h2.833V168.88z M180,184.05h-2.833
		v-1.204H180V184.05z M180,181.928h-2.833v-1.085H180V181.928z M180,179.93h-2.833v-1.829H180V179.93z M180,177.181h-2.833v-0.579
		H180V177.181z M180,175.688h-2.833v-1.709H180V175.688z M180,173.059h-2.833v-1.078H180V173.059z M180,171.065h-2.833v-1.268H180
		V171.065z M180,168.88h-2.833v-1.147H180V168.88z M184.131,184.05h-2.832v-1.204h2.832V184.05z M184.131,181.928h-2.832v-1.085
		h2.832V181.928z M184.131,179.93h-2.832v-1.829h2.832V179.93z M184.131,177.181h-2.832v-0.579h2.832V177.181z M184.131,175.688
		h-2.832v-1.709h2.832V175.688z M184.131,173.059h-2.832v-1.078h2.832V173.059z M184.131,171.065h-2.832v-1.268h2.832V171.065z
		 M184.131,168.88h-2.832v-1.147h2.832V168.88z M188.267,184.05h-2.837v-1.204h2.837V184.05z M188.267,181.928h-2.837v-1.085h2.837
		V181.928z M188.267,179.93h-2.837v-1.829h2.837V179.93z M188.267,177.181h-2.837v-0.579h2.837V177.181z M188.267,175.688h-2.837
		v-1.709h2.837V175.688z M188.267,173.059h-2.837v-1.078h2.837V173.059z M188.267,171.065h-2.837v-1.268h2.837V171.065z
		 M188.267,168.88h-2.837v-1.147h2.837V168.88z M192.394,184.05h-2.832v-1.204h2.832V184.05z M192.394,181.928h-2.832v-1.085h2.832
		V181.928z M192.394,179.93h-2.832v-1.829h2.832V179.93z M192.394,177.181h-2.832v-0.579h2.832V177.181z M192.394,175.688h-2.832
		v-1.709h2.832V175.688z M192.394,173.059h-2.832v-1.078h2.832V173.059z M192.394,171.065h-2.832v-1.268h2.832V171.065z
		 M192.394,168.88h-2.832v-1.147h2.832V168.88z M196.525,184.05h-2.833v-1.204h2.833V184.05z M196.525,181.928h-2.833v-1.085h2.833
		V181.928z M196.525,179.93h-2.833v-1.829h2.833V179.93z M196.525,177.181h-2.833v-0.579h2.833V177.181z M196.525,175.688h-2.833
		v-1.709h2.833V175.688z M196.525,173.059h-2.833v-1.078h2.833V173.059z M196.525,171.065h-2.833v-1.268h2.833V171.065z
		 M196.525,168.88h-2.833v-1.147h2.833V168.88z M200.656,184.05h-2.832v-1.204h2.832V184.05z M200.656,181.928h-2.832v-1.085h2.832
		V181.928z M200.656,179.93h-2.832v-1.829h2.832V179.93z M200.656,177.181h-2.832v-0.579h2.832V177.181z M200.656,175.688h-2.832
		v-1.709h2.832V175.688z M200.656,173.059h-2.832v-1.078h2.832V173.059z M200.656,171.065h-2.832v-1.268h2.832V171.065z
		 M200.656,168.88h-2.832v-1.147h2.832V168.88z M204.788,184.05h-2.833v-1.204h2.833V184.05z M204.788,181.928h-2.833v-1.085h2.833
		V181.928z M204.788,179.93h-2.833v-1.829h2.833V179.93z M204.788,177.181h-2.833v-0.579h2.833V177.181z M204.788,175.688h-2.833
		v-1.709h2.833V175.688z M204.788,173.059h-2.833v-1.078h2.833V173.059z M204.788,171.065h-2.833v-1.268h2.833V171.065z
		 M204.788,168.88h-2.833v-1.147h2.833V168.88z M208.924,184.05h-2.837v-1.204h2.837V184.05z M208.924,181.928h-2.837v-1.085h2.837
		V181.928z M208.924,179.93h-2.837v-1.829h2.837V179.93z M208.924,177.181h-2.837v-0.579h2.837V177.181z M208.924,175.688h-2.837
		v-1.709h2.837V175.688z M208.924,173.059h-2.837v-1.078h2.837V173.059z M208.924,171.065h-2.837v-1.268h2.837V171.065z
		 M208.924,168.88h-2.837v-1.147h2.837V168.88z M213.055,184.05h-2.837v-1.204h2.837V184.05z M213.055,181.928h-2.837v-1.085h2.837
		V181.928z M213.055,179.93h-2.837v-1.829h2.837V179.93z M213.055,177.181h-2.837v-0.579h2.837V177.181z M213.055,175.688h-2.837
		v-1.709h2.837V175.688z M213.055,173.059h-2.837v-1.078h2.837V173.059z M213.055,171.065h-2.837v-1.268h2.837V171.065z
		 M213.055,168.88h-2.837v-1.147h2.837V168.88z M217.187,184.05h-2.837v-1.204h2.837V184.05z M217.187,181.928h-2.837v-1.085h2.837
		V181.928z M217.187,179.93h-2.837v-1.829h2.837V179.93z M217.187,177.181h-2.837v-0.579h2.837V177.181z M217.187,175.688h-2.837
		v-1.709h2.837V175.688z M217.187,173.059h-2.837v-1.078h2.837V173.059z M217.187,171.065h-2.837v-1.268h2.837V171.065z
		 M217.187,168.88h-2.837v-1.147h2.837V168.88z M221.317,184.05h-2.837v-1.204h2.837V184.05z M221.317,181.928h-2.837v-1.085h2.837
		V181.928z M221.317,179.93h-2.837v-1.829h2.837V179.93z M221.317,177.181h-2.837v-0.579h2.837V177.181z M221.317,175.688h-2.837
		v-1.709h2.837V175.688z M221.317,173.059h-2.837v-1.078h2.837V173.059z M221.317,171.065h-2.837v-1.268h2.837V171.065z
		 M221.317,168.88h-2.837v-1.147h2.837V168.88z M225.449,184.05h-2.837v-1.204h2.837V184.05z M225.449,181.928h-2.837v-1.085h2.837
		V181.928z M225.449,179.93h-2.837v-1.829h2.837V179.93z M225.449,177.181h-2.837v-0.579h2.837V177.181z M225.449,175.688h-2.837
		v-1.709h2.837V175.688z M225.449,173.059h-2.837v-1.078h2.837V173.059z M225.449,171.065h-2.837v-1.268h2.837V171.065z
		 M225.449,168.88h-2.837v-1.147h2.837V168.88z M229.576,184.05h-2.828v-1.204h2.828V184.05z M229.576,181.928h-2.828v-1.085h2.828
		V181.928z M229.576,179.93h-2.828v-1.829h2.828V179.93z M229.576,177.181h-2.828v-0.579h2.828V177.181z M229.576,175.688h-2.828
		v-1.709h2.828V175.688z M229.576,173.059h-2.828v-1.078h2.828V173.059z M229.576,171.065h-2.828v-1.268h2.828V171.065z
		 M229.576,168.88h-2.828v-1.147h2.828V168.88z M233.712,184.05h-2.833v-1.204h2.833V184.05z M233.712,181.928h-2.833v-1.085h2.833
		V181.928z M233.712,179.93h-2.833v-1.829h2.833V179.93z M233.712,177.181h-2.833v-0.579h2.833V177.181z M233.712,175.688h-2.833
		v-1.709h2.833V175.688z M233.712,173.059h-2.833v-1.078h2.833V173.059z M233.712,171.065h-2.833v-1.268h2.833V171.065z
		 M233.712,168.88h-2.833v-1.147h2.833V168.88z M237.848,184.05h-2.837v-1.204h2.837V184.05z M237.848,181.928h-2.837v-1.085h2.837
		V181.928z M237.848,179.93h-2.837v-1.829h2.837V179.93z M237.848,177.181h-2.837v-0.579h2.837V177.181z M237.848,175.688h-2.837
		v-1.709h2.837V175.688z M237.848,173.059h-2.837v-1.078h2.837V173.059z M237.848,171.065h-2.837v-1.268h2.837V171.065z
		 M237.848,168.88h-2.837v-1.147h2.837V168.88z M241.979,184.05h-2.837v-1.204h2.837V184.05z M241.979,181.928h-2.837v-1.085h2.837
		V181.928z M241.979,179.93h-2.837v-1.829h2.837V179.93z M241.979,177.181h-2.837v-0.579h2.837V177.181z M241.979,175.688h-2.837
		v-1.709h2.837V175.688z M241.979,173.059h-2.837v-1.078h2.837V173.059z M241.979,171.065h-2.837v-1.268h2.837V171.065z
		 M241.979,168.88h-2.837v-1.147h2.837V168.88z M246.105,184.05h-2.837v-1.204h2.837V184.05z M246.105,181.928h-2.837v-1.085h2.837
		V181.928z M246.105,179.93h-2.837v-1.829h2.837V179.93z M246.105,177.181h-2.837v-0.579h2.837V177.181z M246.105,175.688h-2.837
		v-1.709h2.837V175.688z M246.105,173.059h-2.837v-1.078h2.837V173.059z M246.105,171.065h-2.837v-1.268h2.837V171.065z
		 M246.105,168.88h-2.837v-1.147h2.837V168.88z M250.237,184.05h-2.833v-1.204h2.833V184.05z M250.237,181.928h-2.833v-1.085h2.833
		V181.928z M250.237,179.93h-2.833v-1.829h2.833V179.93z M250.237,177.181h-2.833v-0.579h2.833V177.181z M250.237,175.688h-2.833
		v-1.709h2.833V175.688z M250.237,173.059h-2.833v-1.078h2.833V173.059z M250.237,171.065h-2.833v-1.268h2.833V171.065z
		 M250.237,168.88h-2.833v-1.147h2.833V168.88z M254.373,184.05h-2.837v-1.204h2.837V184.05z M254.373,181.928h-2.837v-1.085h2.837
		V181.928z M254.373,179.93h-2.837v-1.829h2.837V179.93z M254.373,177.181h-2.837v-0.579h2.837V177.181z M254.373,175.688h-2.837
		v-1.709h2.837V175.688z M254.373,173.059h-2.837v-1.078h2.837V173.059z M254.373,171.065h-2.837v-1.268h2.837V171.065z
		 M254.373,168.88h-2.837v-1.147h2.837V168.88z M258.5,184.05h-2.828v-1.204h2.828V184.05z M258.5,181.928h-2.828v-1.085h2.828
		V181.928z M258.5,179.93h-2.828v-1.829h2.828V179.93z M258.5,177.181h-2.828v-0.579h2.828V177.181z M258.5,175.688h-2.828v-1.709
		h2.828V175.688z M258.5,173.059h-2.828v-1.078h2.828V173.059z M258.5,171.065h-2.828v-1.268h2.828V171.065z M258.5,168.88h-2.828
		v-1.147h2.828V168.88z M262.636,184.05h-2.837v-1.204h2.837V184.05z M262.636,181.928h-2.837v-1.085h2.837V181.928z
		 M262.636,179.93h-2.837v-1.829h2.837V179.93z M262.636,177.181h-2.837v-0.579h2.837V177.181z M262.636,175.688h-2.837v-1.709
		h2.837V175.688z M262.636,173.059h-2.837v-1.078h2.837V173.059z M262.636,171.065h-2.837v-1.268h2.837V171.065z M262.636,168.88
		h-2.837v-1.147h2.837V168.88z M266.767,184.05h-2.837v-1.204h2.837V184.05z M266.767,181.928h-2.837v-1.085h2.837V181.928z
		 M266.767,179.93h-2.837v-1.829h2.837V179.93z M266.767,177.181h-2.837v-0.579h2.837V177.181z M266.767,175.688h-2.837v-1.709
		h2.837V175.688z M266.767,173.059h-2.837v-1.078h2.837V173.059z M266.767,171.065h-2.837v-1.268h2.837V171.065z M266.767,168.88
		h-2.837v-1.147h2.837V168.88z M269.779,184.05h-1.718v-1.204h1.718V184.05z M269.779,181.928h-1.718v-1.085h1.718V181.928z
		 M269.779,179.93h-1.718v-1.829h1.718V179.93z M269.779,177.181h-1.718v-0.579h1.718V177.181z M269.779,175.688h-1.718v-1.709
		h1.718V175.688z M269.779,173.059h-1.718v-1.078h1.718V173.059z M269.779,171.065h-1.718v-1.268h1.718V171.065z M269.779,168.88
		h-1.718v-1.147h1.718V168.88z"/>
	<rect x="75.097" y="203.822" fill="#A7A9AC" width="3.658" height="86.975"/>
	<rect x="278.033" y="203.822" fill="#A7A9AC" width="3.662" height="86.975"/>
	<path fill="#A7A9AC" d="M226.495,140.337c-2.043-11.853-5.052-24.285-12.619-33.895c3.378,0.124,6.752,0.578,10.003,1.378
		c-0.428-1.838-0.879-3.687-1.397-5.495c-0.763-2.201-1.543-4.397-2.35-6.581c-0.731-1.596-1.574-3.144-2.418-4.69
		c-1.402-0.014-2.787-0.002-4.131,0.048c-4.605,0.164-8.994,0.66-13.292,1.518c-0.122,0.185-0.243,0.367-0.365,0.55
		c-2.444,3.615-5.304,7.113-8.953,9.575c-7.144,4.831-17.54,7.684-25.857,4.249c-1.795,0.934-3.585,1.872-5.38,2.81
		c-8.655,4.535-17.653,8.729-25.505,14.631c-0.974,0.74-1.926,1.629-2.778,2.592c2.855-1.926,6.066-3.254,9.706-3.901
		c2.485-0.436,4.93-0.704,7.37-0.548c1.759-0.113,3.509-0.027,5.169,0.412c1.253,0.334,2.372,0.854,3.364,1.502
		c0.496-0.272,0.988-0.543,1.484-0.81c2.039-5.688,6.044-11.009,12.137-12.557c7.586-1.926,15.438,0.904,19.407,7.794
		c4.023,6.986,3.225,15.937-2.079,21.433c-3.721,3.852-11.213,7.379-16.318,5.322c-0.383,6.499-1.687,12.98-3.608,18.848h60.275
		C228.597,156.411,227.898,148.465,226.495,140.337z"/>
	<path fill="#A7A9AC" d="M240.518,95.94c-5.638-3.173-12.61-4.444-19.34-4.792c2.932,5.35,4.925,11.472,5.967,17.593
		c2.981,0.999,5.818,2.347,8.385,4.102c4.587,3.144,9.593,7.388,10.54,13.03c0.429,2.555-0.243,5.083-0.257,7.631
		c-0.009,1.166-0.596,1.971-0.104,3.112c0.405,0.938,1.637,0.338,2.119-0.14c2.251-2.251,3.315-5.629,4.28-8.585
		c1.254-3.832,2.373-8.009,2.359-12.063C254.432,106.046,248.596,100.482,240.518,95.94z"/>
	<path fill="#A7A9AC" d="M151.766,204.066c-0.383,1.186-0.762,2.365-1.119,3.571c-3.541,11.993-6.607,23.679-11.55,35.212
		c-3.248,7.581-8.498,16.14-9.192,24.481c-0.352,4.239,1.668,3.373,4.267,1.094c6.851-6.008,12.471-14.932,17.576-22.457
		c5.611-8.267,10.279-17.182,13.864-26.509c1.836-4.787,3.026-10.421,5.165-15.393H151.766z"/>
	<path fill="#A7A9AC" d="M240.333,241.763c-2.905-6.22-7.393-11.479-10.107-17.843c-2.684-6.301-4.208-13.03-4.646-19.854h-23.463
		c0.461,3.556,0.659,7.245,1.8,10.192c2.932,7.596,7.713,14.37,13.175,20.359c3.283,3.602,6.973,6.607,9.954,10.507
		c3.166,4.129,6.765,7.939,9.827,12.135c2.846,3.896,4.488,8.012,6.13,12.49c0.045,0.124,0.104,0.215,0.176,0.277
		c0.622,1.264,2.589,0.019,2.675-1.177c0.266-3.605-0.095-7.83-0.88-12.064C243.973,251.364,242.276,245.935,240.333,241.763z"/>
	<path fill="#A7A9AC" d="M158.68,127.141c-0.059,0.541-0.09,1.1-0.09,1.664c0,2.07,0.41,4.041,1.127,5.854l-11.609,4.47l1.146,3.66
		l12.593-4.368c0.64,0.844,1.362,1.624,2.156,2.318C163.803,135.936,161.467,131.071,158.68,127.141z"/>
	<path fill="#A7A9AC" d="M174.515,112.884c-7.586,0-13.927,5.313-15.524,12.416c3.468,4.587,6.449,10.581,6.197,16.395
		c2.621,1.903,5.836,3.04,9.327,3.04c8.795,0,15.925-7.133,15.925-15.93C190.44,120.012,183.311,112.884,174.515,112.884z"/>
	<path fill="#A7A9AC" d="M161.67,146.277c0.045,0.088,0.113,0.131,0.181,0.148c1.863-5.832,1.001-15.443-3.838-19.64
		c-6.702-5.81-20.143-2.577-26.678,2.074c-4.839,3.438-4.172,8.913,2.133,10.45c3.992,0.97,8.154-0.024,12.083-0.767
		c1.777-0.336,3.549-0.521,5.326-0.586c1.687,0.41,3.27,0.918,4.993,2.113C158.058,141.6,160.362,143.985,161.67,146.277z"/>
	<path fill="#A7A9AC" d="M165.725,154.134c-0.085,2.16-1.921,3.85-4.086,3.757c-2.169-0.09-3.852-1.921-3.762-4.093
		c0.09-2.163,1.921-3.85,4.091-3.76C164.137,150.133,165.819,151.962,165.725,154.134z"/>
	<path fill="#A7A9AC" d="M197.747,82.737c0,13.003-10.536,23.543-23.534,23.543c-12.999,0-23.539-10.54-23.539-23.543
		c0-13.001,10.54-23.534,23.539-23.534C187.211,59.203,197.747,69.736,197.747,82.737z"/>
</g>
</svg>
