<?xml version="1.0" encoding="utf-8"?>
<!-- Generator: Adobe Illustrator 16.0.0, SVG Export Plug-In . SVG Version: 6.00 Build 0)  -->
<!DOCTYPE svg PUBLIC "-//W3C//DTD SVG 1.1 Tiny//EN" "http://www.w3.org/Graphics/SVG/1.1/DTD/svg11-tiny.dtd">
<svg version="1.1" baseProfile="tiny" id="Layer_1" xmlns="http://www.w3.org/2000/svg" xmlns:xlink="http://www.w3.org/1999/xlink"
	 x="0px" y="0px" width="350px" height="350px" viewBox="0 0 350 350" overflow="scroll" xml:space="preserve">
<g>
	<g>
		<polygon fill="#929497" points="141.96,156.871 141.96,167.088 154.133,175.457 233.69,175.457 245.755,162.088 276.514,162.088 
			282.817,154.263 282.817,145.351 192.173,145.351 		"/>
		<path fill="#231F20" d="M233.9,175.927h-79.914l-12.497-8.592v-10.838l50.684-11.617h91.115v9.549l-6.549,8.13h-30.775
			L233.9,175.927z M154.279,174.986h79.202l12.064-13.369h30.742l6.059-7.521v-8.275h-90.121l-49.795,11.425v9.594L154.279,174.986z
			"/>
	</g>
	<g>
		<rect x="194.89" y="140.568" fill="#808184" width="29.346" height="4.782"/>
		<path fill="#231F20" d="M224.705,145.821h-30.286v-5.723h30.286V145.821z M195.36,144.88h28.404v-3.841H195.36V144.88z"/>
	</g>
	<g>
		<rect x="234.995" y="124.917" fill="#929497" width="15.162" height="20.433"/>
		<path fill="#231F20" d="M250.628,145.821h-16.104v-21.375h16.104V145.821z M235.466,144.88h14.221v-19.492h-14.221V144.88z"/>
	</g>
	<g>
		<rect x="229.941" y="128.667" fill="#808184" width="5.054" height="9.782"/>
		<path fill="#231F20" d="M235.466,138.919h-5.995v-10.723h5.995V138.919z M230.412,137.979h4.112v-8.841h-4.112V137.979z"/>
	</g>
	<g>
		<rect x="203.368" y="130.46" fill="#808184" width="26.573" height="4.076"/>
		<path fill="#231F20" d="M230.412,135.007h-27.515v-5.017h27.515V135.007z M203.838,134.065h25.633v-3.135h-25.633V134.065z"/>
	</g>
	<g>
		<polygon fill="#808184" points="141.96,159.045 33.709,160.404 33.709,164.697 141.96,166.083 		"/>
		<path fill="#231F20" d="M142.431,166.559l-109.192-1.398v-5.222l109.192-1.37V166.559z M34.179,164.232l107.311,1.374v-6.085
			l-107.311,1.347V164.232z"/>
	</g>
	<g>
		<rect x="30.475" y="158.746" fill="#58595B" width="3.234" height="7.458"/>
		<path fill="#231F20" d="M34.179,166.675h-4.174v-8.4h4.174V166.675z M30.945,165.734h2.293v-6.518h-2.293V165.734z"/>
	</g>
	<g>
		<path fill="#58595B" d="M113.911,168.976H90.939c-0.649,0-1.176-0.527-1.176-1.176v-10.472c0-0.65,0.526-1.176,1.176-1.176h22.972
			c0.649,0,1.176,0.526,1.176,1.176V167.8C115.087,168.449,114.561,168.976,113.911,168.976z"/>
		<path fill="#231F20" d="M113.911,169.447H90.939c-0.908,0-1.646-0.739-1.646-1.647v-10.472c0-0.908,0.738-1.647,1.646-1.647
			h22.972c0.907,0,1.646,0.739,1.646,1.647V167.8C115.558,168.708,114.818,169.447,113.911,169.447z M90.939,156.622
			c-0.389,0-0.706,0.317-0.706,0.706V167.8c0,0.389,0.317,0.706,0.706,0.706h22.972c0.389,0,0.705-0.317,0.705-0.706v-10.472
			c0-0.389-0.316-0.706-0.705-0.706H90.939z"/>
	</g>
	<g>
		<path fill="#404041" d="M306.389,186.234l-1.789,7.74c-0.93,4.195-3.631,7.771-7.409,9.814l-25.114,13.578
			c-3.07,1.66-6.581,2.508-10.025,2.498l-115.715-0.838c-3.603-0.025-7.146-0.662-10.534-1.891l-24.367-8.842
			c-3.272-1.188-5.582-4.195-5.878-7.559l-0.114-2.445l-5.52-6.33l0.43,9.125c0.478,5.482,4.13,10.236,9.303,12.113l24.367,8.842
			c3.948,1.432,8.078,2.174,12.275,2.205l115.715,0.836c0.063,0,0.125,0,0.188,0c4.303,0,8.572-1.078,12.357-3.125l25.113-13.58
			c5.11-2.762,8.764-7.6,10.017-13.248l2.555-11.047L306.389,186.234z"/>
		<path fill="#231F20" d="M262.2,225.553h-0.192l-115.713-0.838c-4.253-0.031-8.436-0.781-12.433-2.23l-24.368-8.842
			c-5.344-1.939-9.117-6.852-9.61-12.516l-0.494-10.494l6.516,7.473l0.122,2.609c0.281,3.203,2.467,6.014,5.567,7.139l24.368,8.842
			c3.337,1.209,6.828,1.836,10.376,1.861l115.715,0.838c3.475,0,6.845-0.844,9.799-2.441l25.114-13.578
			c3.657-1.979,6.272-5.441,7.174-9.502l1.847-7.992l6.909-2.543l-2.75,11.896c-1.284,5.787-5.021,10.729-10.251,13.557
			l-25.113,13.58C270.93,224.453,266.58,225.553,262.2,225.553z M100.457,193.289l0.365,7.775c0.461,5.281,3.991,9.877,8.993,11.693
			l24.368,8.842c3.896,1.412,7.973,2.145,12.118,2.176l115.898,0.836c4.224,0,8.42-1.061,12.134-3.068l25.113-13.578
			c4.99-2.699,8.556-7.414,9.781-12.939l2.358-10.203l-4.797,1.768l-1.732,7.492c-0.958,4.322-3.744,8.014-7.644,10.119
			l-25.113,13.58c-3.093,1.672-6.617,2.555-10.192,2.555l-115.775-0.838c-3.656-0.025-7.253-0.672-10.691-1.918l-24.368-8.842
			c-3.442-1.25-5.87-4.375-6.186-7.961l-0.107-2.301L100.457,193.289z"/>
	</g>
	<g>
		<polygon fill="#6D6E70" points="115.087,199.91 115.821,203.824 141.96,211.813 265.971,211.813 294.989,196.977 297.415,189.539 
			269.231,199.91 		"/>
		<path fill="#231F20" d="M266.084,212.283l-124.262-0.021l-26.411-8.072l-0.891-4.748h154.627l29.016-10.68l-2.786,8.545
			L266.084,212.283z M142.03,211.342h123.827l28.745-14.695l2.064-6.332l-27.352,10.066H115.654l0.576,3.076L142.03,211.342z"/>
	</g>
	<g>
		<path fill="#404041" d="M142.721,193.598c-6.843,0-12.391,5.547-12.391,12.391c0,6.842,5.548,12.389,12.391,12.389
			s12.391-5.547,12.391-12.389C155.111,199.145,149.563,193.598,142.721,193.598z M142.721,214.139c-4.502,0-8.151-3.648-8.151-8.15
			c0-4.504,3.649-8.152,8.151-8.152s8.151,3.648,8.151,8.152C150.872,210.49,147.223,214.139,142.721,214.139z"/>
		<path fill="#231F20" d="M142.721,218.848c-7.092,0-12.86-5.77-12.86-12.859c0-7.092,5.769-12.861,12.86-12.861
			s12.86,5.77,12.86,12.861C155.581,213.078,149.813,218.848,142.721,218.848z M142.721,194.068c-6.572,0-11.92,5.348-11.92,11.92
			s5.348,11.918,11.92,11.918s11.92-5.346,11.92-11.918S149.293,194.068,142.721,194.068z M142.721,214.609
			c-4.754,0-8.622-3.869-8.622-8.621c0-4.756,3.868-8.623,8.622-8.623s8.622,3.867,8.622,8.623
			C151.343,210.74,147.475,214.609,142.721,214.609z M142.721,198.307c-4.235,0-7.681,3.445-7.681,7.682
			c0,4.234,3.445,7.68,7.681,7.68s7.681-3.445,7.681-7.68C150.401,201.752,146.956,198.307,142.721,198.307z"/>
	</g>
	<g>
		<path fill="#404041" d="M171.253,194.355c-6.843,0-12.39,5.547-12.39,12.391c0,6.842,5.547,12.389,12.39,12.389
			s12.391-5.547,12.391-12.389C183.644,199.902,178.096,194.355,171.253,194.355z M171.253,214.896c-4.501,0-8.151-3.648-8.151-8.15
			s3.65-8.152,8.151-8.152c4.503,0,8.152,3.65,8.152,8.152S175.756,214.896,171.253,214.896z"/>
		<path fill="#231F20" d="M171.253,219.605c-7.091,0-12.86-5.77-12.86-12.859c0-7.092,5.77-12.861,12.86-12.861
			c7.092,0,12.861,5.77,12.861,12.861C184.114,213.836,178.345,219.605,171.253,219.605z M171.253,194.826
			c-6.572,0-11.919,5.346-11.919,11.92c0,6.572,5.347,11.918,11.919,11.918s11.92-5.346,11.92-11.918
			C183.173,200.172,177.825,194.826,171.253,194.826z M171.253,215.367c-4.754,0-8.622-3.867-8.622-8.621s3.868-8.623,8.622-8.623
			s8.623,3.869,8.623,8.623S176.007,215.367,171.253,215.367z M171.253,199.064c-4.234,0-7.681,3.445-7.681,7.682
			c0,4.234,3.446,7.68,7.681,7.68c4.235,0,7.682-3.445,7.682-7.68C178.935,202.51,175.488,199.064,171.253,199.064z"/>
	</g>
	<g>
		<path fill="#404041" d="M200.38,194.564c-6.843,0-12.39,5.547-12.39,12.391c0,6.842,5.547,12.391,12.39,12.391
			s12.391-5.549,12.391-12.391C212.771,200.111,207.223,194.564,200.38,194.564z M200.38,215.105c-4.502,0-8.151-3.648-8.151-8.15
			s3.649-8.152,8.151-8.152c4.503,0,8.152,3.65,8.152,8.152S204.883,215.105,200.38,215.105z"/>
		<path fill="#231F20" d="M200.38,219.814c-7.092,0-12.86-5.768-12.86-12.859s5.769-12.861,12.86-12.861s12.861,5.77,12.861,12.861
			S207.472,219.814,200.38,219.814z M200.38,195.035c-6.572,0-11.919,5.348-11.919,11.92s5.347,11.918,11.919,11.918
			s11.92-5.346,11.92-11.918S206.952,195.035,200.38,195.035z M200.38,215.576c-4.754,0-8.622-3.867-8.622-8.621
			s3.868-8.623,8.622-8.623s8.622,3.869,8.622,8.623S205.134,215.576,200.38,215.576z M200.38,199.273
			c-4.235,0-7.681,3.445-7.681,7.682c0,4.234,3.445,7.68,7.681,7.68s7.682-3.445,7.682-7.68
			C208.062,202.719,204.615,199.273,200.38,199.273z"/>
	</g>
	<g>
		<path fill="#404041" d="M229.507,194.879c-6.843,0-12.391,5.547-12.391,12.389c0,6.844,5.548,12.391,12.391,12.391
			s12.391-5.547,12.391-12.391C241.897,200.426,236.35,194.879,229.507,194.879z M229.507,215.42c-4.502,0-8.151-3.65-8.151-8.152
			s3.649-8.15,8.151-8.15s8.152,3.648,8.152,8.15S234.009,215.42,229.507,215.42z"/>
		<path fill="#231F20" d="M229.507,220.129c-7.092,0-12.86-5.77-12.86-12.861s5.769-12.861,12.86-12.861s12.861,5.77,12.861,12.861
			S236.599,220.129,229.507,220.129z M229.507,195.348c-6.572,0-11.92,5.348-11.92,11.92c0,6.574,5.348,11.92,11.92,11.92
			s11.92-5.346,11.92-11.92C241.427,200.695,236.079,195.348,229.507,195.348z M229.507,215.891c-4.754,0-8.622-3.869-8.622-8.623
			s3.868-8.621,8.622-8.621s8.622,3.867,8.622,8.621S234.261,215.891,229.507,215.891z M229.507,199.588
			c-4.235,0-7.682,3.445-7.682,7.68c0,4.236,3.446,7.682,7.682,7.682s7.682-3.445,7.682-7.682
			C237.188,203.033,233.742,199.588,229.507,199.588z"/>
	</g>
	<g>
		<path fill="#404041" d="M258.634,194.879c-6.843,0-12.391,5.547-12.391,12.389c0,6.844,5.548,12.391,12.391,12.391
			s12.39-5.547,12.39-12.391C271.023,200.426,265.477,194.879,258.634,194.879z M258.634,215.42c-4.502,0-8.151-3.65-8.151-8.152
			s3.649-8.15,8.151-8.15s8.151,3.648,8.151,8.15S263.136,215.42,258.634,215.42z"/>
		<path fill="#231F20" d="M258.634,220.129c-7.092,0-12.861-5.77-12.861-12.861s5.77-12.861,12.861-12.861s12.86,5.77,12.86,12.861
			S265.726,220.129,258.634,220.129z M258.634,195.348c-6.572,0-11.92,5.348-11.92,11.92c0,6.574,5.348,11.92,11.92,11.92
			s11.92-5.346,11.92-11.92C270.554,200.695,265.206,195.348,258.634,195.348z M258.634,215.891c-4.754,0-8.622-3.869-8.622-8.623
			s3.868-8.621,8.622-8.621s8.622,3.867,8.622,8.621S263.388,215.891,258.634,215.891z M258.634,199.588
			c-4.235,0-7.682,3.445-7.682,7.68c0,4.236,3.446,7.682,7.682,7.682s7.682-3.445,7.682-7.682
			C266.315,203.033,262.869,199.588,258.634,199.588z"/>
	</g>
	<g>
		<path fill="#404041" d="M284.729,183.867c-6.843,0-12.391,5.549-12.391,12.391c0,6.844,5.548,12.391,12.391,12.391
			c6.844,0,12.391-5.547,12.391-12.391C297.119,189.416,291.572,183.867,284.729,183.867z M284.729,204.41
			c-4.502,0-8.151-3.65-8.151-8.152s3.649-8.15,8.151-8.15s8.152,3.648,8.152,8.15S289.23,204.41,284.729,204.41z"/>
		<path fill="#231F20" d="M284.729,209.119c-7.092,0-12.861-5.77-12.861-12.861s5.77-12.861,12.861-12.861
			s12.861,5.77,12.861,12.861S291.82,209.119,284.729,209.119z M284.729,184.338c-6.572,0-11.92,5.348-11.92,11.92
			s5.348,11.92,11.92,11.92s11.92-5.348,11.92-11.92S291.301,184.338,284.729,184.338z M284.729,204.881
			c-4.754,0-8.622-3.867-8.622-8.623c0-4.754,3.868-8.621,8.622-8.621c4.755,0,8.623,3.867,8.623,8.621
			C293.352,201.014,289.483,204.881,284.729,204.881z M284.729,188.578c-4.235,0-7.681,3.445-7.681,7.68
			c0,4.236,3.445,7.682,7.681,7.682s7.682-3.445,7.682-7.682C292.41,192.023,288.964,188.578,284.729,188.578z"/>
	</g>
	<g>
		<polygon fill="#A6A8AB" points="141.96,167.088 191.874,154.208 282.817,154.263 282.817,145.351 192.173,145.351 141.96,156.871 
					"/>
		<path fill="#231F20" d="M141.489,167.695v-11.199l50.684-11.617h91.115v9.854l-91.355-0.055L141.489,167.695z M142.431,157.247
			v9.233l49.384-12.742h0.06l90.473,0.054v-7.971h-90.121L142.431,157.247z"/>
	</g>
	<g>
		<polygon fill="#58595B" points="107.397,181 95.769,187.195 106.854,199.91 269.231,199.91 316.185,182.631 319.444,162.088 
			245.755,162.088 233.69,175.457 154.133,175.457 145.003,181 		"/>
		<path fill="#231F20" d="M269.315,200.381H106.64l-11.615-13.322l12.256-6.529h37.591l9.13-5.543h79.48l12.064-13.369h74.449
			l-3.39,21.359l-0.259,0.096L269.315,200.381z M107.068,199.441h162.079l46.615-17.158l3.131-19.725h-72.93L233.9,175.927h-79.636
			l-9.13,5.543h-37.619l-11.004,5.861L107.068,199.441z"/>
	</g>
	<g>
		<polygon fill="#EC1B2E" points="255.125,165.839 257.869,171.4 264.006,172.292 259.565,176.621 260.614,182.732 255.125,179.848 
			249.636,182.732 250.685,176.621 246.243,172.292 252.38,171.4 		"/>
		<path fill="#231F20" d="M249.011,183.594l1.168-6.809l-4.946-4.821l6.835-0.994l3.058-6.194l3.057,6.194l6.836,0.994l-4.946,4.821
			l1.168,6.809l-6.114-3.215L249.011,183.594z M255.125,179.314l4.864,2.559l-0.929-5.416l3.934-3.836l-5.438-0.791l-2.432-4.928
			l-2.433,4.928l-5.438,0.791l3.935,3.836l-0.929,5.416L255.125,179.314z"/>
	</g>
</g>
</svg>
