<?xml version="1.0" encoding="utf-8"?>
<!-- Generator: Adobe Illustrator 16.0.0, SVG Export Plug-In . SVG Version: 6.00 Build 0)  -->
<!DOCTYPE svg PUBLIC "-//W3C//DTD SVG 1.1//EN" "http://www.w3.org/Graphics/SVG/1.1/DTD/svg11.dtd">
<svg version="1.1" id="Capa_1" xmlns="http://www.w3.org/2000/svg" xmlns:xlink="http://www.w3.org/1999/xlink" x="0px" y="0px"
	 width="350px" height="350px" viewBox="0 0 350 350" enable-background="new 0 0 350 350" xml:space="preserve">
<g>
	<path fill="#BBD7EA" d="M263.745,217.061l-0.434-5.214c-2.326-27.886-13.751-55.538-31.342-75.879l-3.471-4.006l4.288-3.12
		c8.383-6.08,18.249-9.297,28.544-9.297c26.839,0,48.675,21.835,48.675,48.675c0,24.089-17.279,44.294-41.086,48.032
		L263.745,217.061z M242.917,133.942c15.761,19.957,26.3,45.502,29.521,71.562c16.399-4.809,27.833-19.762,27.833-37.284
		c0-21.471-17.47-38.94-38.939-38.94C254.847,129.279,248.567,130.876,242.917,133.942z"/>
	<g>
		<path fill="#DAE7EF" d="M159.546,100.074c-29.327,0-55.928,14.457-75.534,36.365c-0.19,0.209-0.535,0.229-0.745,0.039
			L66.29,121.331c-4.546-4.06-11.741-5.384-17.231-2.395c-7.847,4.269-8.732,13.644-2.653,19.066l0,0
			c12.549,11.2,16.739,27.682,11.39,42.785c-4.736,13.367-7.34,27.502-7.34,41.667c0,23.676,7.292,45.584,19.675,63.594
			c8.523,12.397,23.772,19.85,40.074,19.85h98.684c16.301,0,31.551-7.447,40.075-19.85c12.382-18.015,19.674-39.918,19.674-63.594
			C268.632,161.011,219.792,100.074,159.546,100.074z"/>
		<path fill="#BBD7EA" d="M208.883,308.336h-98.679c-17.095,0-33.216-8.012-42.085-20.906
			c-13.147-19.124-20.093-41.593-20.093-64.976c0-14.189,2.517-28.481,7.477-42.479c5.082-14.335,0.978-29.721-10.713-40.157
			c-3.51-3.13-5.218-7.486-4.702-11.964c0.531-4.614,3.378-8.64,7.808-11.054c6.196-3.369,14.432-2.259,20.015,2.716l15.562,13.892
			c21.251-23.077,48.198-35.771,76.069-35.771c59.408,0,111.52,58.323,111.52,124.818c0,23.388-6.95,45.852-20.104,64.976
			C242.1,300.324,225.973,308.336,208.883,308.336z M55.698,119.749c-1.928,0-3.826,0.434-5.471,1.329
			c-3.023,1.646-4.96,4.318-5.306,7.34c-0.331,2.881,0.798,5.714,3.11,7.773c13.196,11.774,17.815,29.176,12.066,45.414
			c-4.775,13.479-7.199,27.219-7.199,40.853c0,22.396,6.654,43.91,19.241,62.218c7.973,11.594,22.561,18.793,38.068,18.793h98.679
			c15.513,0,30.097-7.199,38.064-18.793c12.593-18.308,19.246-39.822,19.246-62.218c0-62.776-50.832-119.95-106.652-119.95
			c-27.024,0-53.202,12.631-73.718,35.558c-1.115,1.217-2.969,1.319-4.182,0.238l-16.973-15.152
			C62.176,120.922,58.881,119.749,55.698,119.749z"/>
	</g>
	<path fill="#38454F" d="M159.113,85.472c-12.076,0-21.904-9.827-21.904-21.904c0-12.076,9.828-21.904,21.904-21.904
		s21.904,9.828,21.904,21.904C181.017,75.645,171.189,85.472,159.113,85.472z M159.113,51.399c-6.712,0-12.168,5.456-12.168,12.168
		s5.456,12.169,12.168,12.169c6.712,0,12.169-5.457,12.169-12.169S165.825,51.399,159.113,51.399z"/>
	<rect x="125.04" y="134.147" fill="#38454F" width="68.146" height="131.422"/>
	<path fill="#38454F" d="M159.113,139.015c-2.692,0-4.868-2.176-4.868-4.868V84.756c0-2.692,2.176-4.868,4.868-4.868
		s4.868,2.176,4.868,4.868v49.386C163.98,136.839,161.805,139.015,159.113,139.015z"/>
	<path fill="#FBD490" d="M244.367,201.119c-11.414-11.415-29.887-11.415-41.301,0h-0.142c-11.413,11.414-29.886,11.414-41.3,0
		c-11.415-11.415-29.887-11.415-41.301,0h-0.142c-11.414,11.414-29.886,11.414-41.3,0c-6.732-6.731-15.912-9.385-24.659-8.178
		c-2.405,9.658-3.753,19.572-3.753,29.517c0,23.676,7.292,45.584,19.675,63.595c8.523,12.397,23.772,19.85,40.074,19.85h98.684
		c16.302,0,31.552-7.447,40.074-19.85c12.384-18.015,19.675-39.919,19.675-63.595c0-4.361-0.272-8.718-0.75-13.055
		C259.481,210.231,250.807,207.559,244.367,201.119z"/>
	<path fill="#BFA175" d="M193.186,207.559c-10.534,4.245-23.023,2.103-31.566-6.439c-9.949-9.949-25.253-11.21-36.58-3.82v68.271
		h68.146V207.559z"/>
	<circle fill="#FFFFFF" cx="159.113" cy="250.967" r="4.868"/>
	<circle fill="#FFFFFF" cx="178.583" cy="221.762" r="4.868"/>
	<circle fill="#FFFFFF" cx="139.643" cy="221.762" r="4.868"/>
	<circle fill="#FFFFFF" cx="159.113" cy="221.762" r="4.868"/>
	<circle fill="#FFFFFF" cx="168.848" cy="236.365" r="4.868"/>
	<circle fill="#FFFFFF" cx="149.377" cy="236.365" r="4.868"/>
</g>
</svg>
