<?xml version="1.0" encoding="utf-8"?>
<!-- Generator: Adobe Illustrator 16.0.0, SVG Export Plug-In . SVG Version: 6.00 Build 0)  -->
<!DOCTYPE svg PUBLIC "-//W3C//DTD SVG 1.1//EN" "http://www.w3.org/Graphics/SVG/1.1/DTD/svg11.dtd">
<svg version="1.1" id="Layer_1" xmlns="http://www.w3.org/2000/svg" xmlns:xlink="http://www.w3.org/1999/xlink" x="0px" y="0px"
	 width="350px" height="350px" viewBox="0 0 350 350" enable-background="new 0 0 350 350" xml:space="preserve">
<g>
	<g>
		
			<path fill-rule="evenodd" clip-rule="evenodd" fill="none" stroke="#ADC8E6" stroke-width="6.0001" stroke-linecap="round" stroke-linejoin="round" stroke-miterlimit="22.9256" d="
			M154.611,139.456l-23.729-0.746c-3.875-0.121-7.146,2.951-7.266,6.824l0,0c-0.122,3.875,2.947,7.145,6.823,7.266l23.73,0.744
			c3.875,0.123,7.144-2.948,7.265-6.824l0,0C161.557,142.846,158.486,139.577,154.611,139.456z"/>
		<path fill-rule="evenodd" clip-rule="evenodd" fill="#FFFFFF" d="M154.611,139.456l-23.729-0.746
			c-3.875-0.121-7.146,2.951-7.266,6.824l0,0c-0.122,3.875,2.947,7.145,6.823,7.266l23.73,0.744
			c3.875,0.123,7.144-2.948,7.265-6.824l0,0C161.557,142.846,158.486,139.577,154.611,139.456z"/>
	</g>
	<path fill-rule="evenodd" clip-rule="evenodd" fill="#F55D5A" d="M96.026,134.389l-12.935,25.22l26.515,5.821l-23.927,9.053
		l8.407,21.34l38.801-21.34l-3.879-30.395C129.007,144.088,96.672,134.389,96.026,134.389z"/>
	<path fill-rule="evenodd" clip-rule="evenodd" fill="#65B3CF" d="M129.039,179.67c-26.24-19.544-102.797,56.373-76.556,75.916
		C78.722,275.13,155.278,199.214,129.039,179.67z"/>
	<path fill-rule="evenodd" clip-rule="evenodd" fill="#65B3CF" d="M196.137,192.458c10.66-30.934,116.688-11.374,106.027,19.562
		C291.504,242.952,185.478,223.39,196.137,192.458z"/>
	<path fill-rule="evenodd" clip-rule="evenodd" fill="#65B3CF" d="M169.961,304.189c166.287,0,71.986-156.309,0-156.309
		C97.973,147.881,3.673,304.189,169.961,304.189z"/>
	<path fill-rule="evenodd" clip-rule="evenodd" fill="#A5DAED" d="M169.961,289.902c91.077,0,39.428-108.406,0-108.406
		C130.532,181.496,78.884,289.902,169.961,289.902z"/>
	<circle fill-rule="evenodd" clip-rule="evenodd" fill="#65B3CF" cx="113.228" cy="68.988" r="24.526"/>
	<circle fill-rule="evenodd" clip-rule="evenodd" fill="#65B3CF" cx="247.927" cy="86.88" r="24.525"/>
	<circle fill-rule="evenodd" clip-rule="evenodd" fill="#7A5223" cx="114.588" cy="73.849" r="12.594"/>
	<circle fill-rule="evenodd" clip-rule="evenodd" fill="#7A5223" cx="249.287" cy="91.742" r="12.594"/>
	<path fill-rule="evenodd" clip-rule="evenodd" fill="#F55D5A" d="M108.435,160.481c40.103,9.671,81.273,9.299,123.394,0
		c0,5.643,0,11.286,0,16.927c-41.131,19.618-82.265,20.047-123.394,0C108.435,171.767,108.435,166.124,108.435,160.481z"/>
	
		<ellipse transform="matrix(0.1317 -0.9913 0.9913 0.1317 36.2814 275.4774)" fill-rule="evenodd" clip-rule="evenodd" fill="#65B3CF" cx="175.385" cy="117.029" rx="62.638" ry="82.853"/>
	
		<ellipse transform="matrix(0.1317 -0.9913 0.9913 0.1317 8.5653 293.928)" fill-rule="evenodd" clip-rule="evenodd" fill="#A5DAED" cx="172.057" cy="142.075" rx="34.38" ry="42.043"/>
	
		<ellipse transform="matrix(0.1317 -0.9913 0.9913 0.1317 68.3067 297.2247)" fill-rule="evenodd" clip-rule="evenodd" fill="#7A5223" cx="203.816" cy="109.621" rx="8.709" ry="5.609"/>
	
		<ellipse transform="matrix(0.1316 -0.9913 0.9913 0.1316 26.2857 236.8354)" fill-rule="evenodd" clip-rule="evenodd" fill="#7A5223" cx="148.322" cy="103.415" rx="8.709" ry="5.61"/>
	
		<ellipse transform="matrix(0.1317 -0.9913 0.9913 0.1317 1.968 298.3194)" fill-rule="evenodd" clip-rule="evenodd" fill="#7A5223" cx="171.265" cy="148.036" rx="20.595" ry="27.555"/>
	
		<ellipse transform="matrix(0.1317 -0.9913 0.9913 0.1317 9.0038 293.6325)" fill-rule="evenodd" clip-rule="evenodd" fill="#A5DAED" cx="172.111" cy="141.677" rx="20.594" ry="27.553"/>
	
		<ellipse transform="matrix(0.1316 -0.9913 0.9913 0.1316 25.2826 282.806)" fill-rule="evenodd" clip-rule="evenodd" fill="#7A5223" cx="174.064" cy="126.972" rx="13.779" ry="16.849"/>
	
		<rect x="170.261" y="119.462" transform="matrix(-0.9913 -0.1313 0.1313 -0.9913 323.3931 308.3647)" fill-rule="evenodd" clip-rule="evenodd" fill="#7A5223" width="3.208" height="48.111"/>
	
		<ellipse transform="matrix(-0.9459 0.3243 -0.3243 -0.9459 519.1109 422.7047)" fill-rule="evenodd" clip-rule="evenodd" fill="#65B3CF" cx="224.331" cy="254.61" rx="39.392" ry="52.106"/>
	
		<ellipse transform="matrix(-0.7973 0.6036 -0.6036 -0.7973 520.2706 268.1097)" fill-rule="evenodd" clip-rule="evenodd" fill="#A5DAED" cx="215.116" cy="221.415" rx="5.838" ry="7.723"/>
	
		<ellipse transform="matrix(-0.9459 0.3243 -0.3243 -0.9459 472.1741 387.2793)" fill-rule="evenodd" clip-rule="evenodd" fill="#A5DAED" cx="203.812" cy="232.99" rx="5.838" ry="7.723"/>
	
		<ellipse transform="matrix(-0.946 0.3241 -0.3241 -0.946 468.1137 428.9369)" fill-rule="evenodd" clip-rule="evenodd" fill="#A5DAED" cx="198.333" cy="253.455" rx="5.839" ry="7.723"/>
	
		<ellipse transform="matrix(-0.8374 0.5465 -0.5465 -0.8374 549.4908 283.8369)" fill-rule="evenodd" clip-rule="evenodd" fill="#A5DAED" cx="232.533" cy="223.639" rx="5.838" ry="7.722"/>
	<path fill-rule="evenodd" clip-rule="evenodd" fill="#A5DAED" d="M230.772,269.11c15.206-6.497,45.944,9.425,9.254,25.036
		C203.333,309.758,215.564,275.606,230.772,269.11z"/>
	
		<ellipse transform="matrix(0.9459 0.3243 -0.3243 0.9459 88.8343 -23.7905)" fill-rule="evenodd" clip-rule="evenodd" fill="#65B3CF" cx="115.789" cy="254.61" rx="39.391" ry="52.105"/>
	
		<ellipse transform="matrix(0.7973 0.6036 -0.6036 0.7973 158.9738 -30.5711)" fill-rule="evenodd" clip-rule="evenodd" fill="#A5DAED" cx="125.005" cy="221.415" rx="5.838" ry="7.722"/>
	
		<ellipse transform="matrix(0.946 0.3243 -0.3243 0.946 82.9277 -31.6134)" fill-rule="evenodd" clip-rule="evenodd" fill="#A5DAED" cx="136.309" cy="232.99" rx="5.839" ry="7.723"/>
	
		<ellipse transform="matrix(0.946 0.3242 -0.3242 0.946 89.8154 -32.2755)" fill-rule="evenodd" clip-rule="evenodd" fill="#A5DAED" cx="141.787" cy="253.455" rx="5.838" ry="7.723"/>
	
		<ellipse transform="matrix(0.8374 0.5465 -0.5465 0.8374 139.7141 -22.445)" fill-rule="evenodd" clip-rule="evenodd" fill="#A5DAED" cx="107.587" cy="223.639" rx="5.838" ry="7.723"/>
	<path fill-rule="evenodd" clip-rule="evenodd" fill="#A5DAED" d="M109.348,269.11c-15.208-6.497-45.944,9.425-9.253,25.036
		C136.786,309.758,124.557,275.606,109.348,269.11z"/>
	
		<ellipse transform="matrix(0.1316 -0.9913 0.9913 0.1316 74.2247 296.6313)" fill-rule="evenodd" clip-rule="evenodd" fill="#A5DAED" cx="206.414" cy="105.952" rx="3.069" ry="1.979"/>
	
		<ellipse transform="matrix(0.1318 -0.9913 0.9913 0.1318 31.8902 235.3646)" fill-rule="evenodd" clip-rule="evenodd" fill="#A5DAED" cx="150.306" cy="99.477" rx="3.07" ry="1.977"/>
</g>
</svg>
