<?xml version="1.0" encoding="utf-8"?>
<!-- Generator: Adobe Illustrator 16.0.0, SVG Export Plug-In . SVG Version: 6.00 Build 0)  -->
<!DOCTYPE svg PUBLIC "-//W3C//DTD SVG 1.1//EN" "http://www.w3.org/Graphics/SVG/1.1/DTD/svg11.dtd">
<svg version="1.1" id="Capa_1" xmlns="http://www.w3.org/2000/svg" xmlns:xlink="http://www.w3.org/1999/xlink" x="0px" y="0px"
	 width="350px" height="350px" viewBox="0 0 350 350" enable-background="new 0 0 350 350" xml:space="preserve">
<path d="M292.189,144.498l0.004-0.004l-0.581-2.079c-0.045-0.157-0.105-0.307-0.149-0.464c-0.872-3.064-1.836-6.083-2.935-9.042
	c-0.036-0.097-0.077-0.189-0.112-0.287c-1.046-2.789-2.205-5.518-3.443-8.202c-0.174-0.379-0.339-0.767-0.517-1.142
	c-1.224-2.575-2.543-5.09-3.936-7.564c-0.311-0.553-0.63-1.102-0.948-1.65c-1.425-2.438-2.915-4.832-4.505-7.152
	c-0.227-0.331-0.468-0.65-0.694-0.977c-1.582-2.269-3.237-4.484-4.969-6.636c-0.181-0.226-0.354-0.464-0.541-0.69
	c-1.896-2.325-3.887-4.565-5.949-6.741c-0.21-0.218-0.416-0.44-0.625-0.654c-17.619-18.345-40.933-31.164-67.08-35.576
	c-0.132-0.024-0.266-0.048-0.399-0.073c-3.007-0.496-6.054-0.88-9.133-1.15c-0.489-0.044-0.981-0.077-1.475-0.113
	c-3.042-0.238-6.102-0.392-9.202-0.392c-3.1,0-6.16,0.153-9.203,0.383c-0.493,0.036-0.981,0.069-1.473,0.113
	c-3.08,0.271-6.123,0.65-9.134,1.15c-0.133,0.024-0.267,0.048-0.399,0.072c-26.147,4.412-49.46,17.231-67.079,35.576
	c-0.21,0.218-0.416,0.436-0.625,0.654c-2.059,2.175-4.053,4.416-5.95,6.741c-0.186,0.226-0.359,0.464-0.541,0.69
	c-1.731,2.151-3.386,4.367-4.968,6.636c-0.23,0.327-0.468,0.646-0.694,0.977c-1.586,2.325-3.076,4.718-4.504,7.152
	c-0.319,0.549-0.638,1.098-0.949,1.651c-1.393,2.47-2.716,4.989-3.936,7.564c-0.177,0.379-0.343,0.763-0.517,1.142
	c-1.243,2.692-2.401,5.421-3.447,8.21c-0.037,0.097-0.077,0.189-0.113,0.287c-1.102,2.958-2.066,5.982-2.934,9.042
	c-0.044,0.157-0.105,0.307-0.149,0.464l-0.581,2.079l0.004,0.004c-2.539,9.748-3.895,19.967-3.895,30.502
	c0,66.769,54.32,121.088,121.088,121.088c66.769,0,121.088-54.319,121.088-121.088C296.088,164.465,294.732,154.246,292.189,144.498
	z M265.134,120.446c-5.815-24.423-26.587-27.245-41.702-27.245c-28.363,0-37.72,1.458-45.715,32.04
	c-1.029,3.939-1.934,8.146-2.717,12.694c-0.787-4.549-1.688-8.755-2.716-12.694c-7.996-30.583-17.348-32.04-45.715-32.04
	c-15.116,0-35.887,2.822-41.703,27.245c-1.897,7.959-3.697,16.613-5.251,25.227h-3.992c-3.229,0-6.349-1.195-8.811-3.326
	c0.008-0.021,0.012-0.041,0.016-0.061c0.827-2.741,1.772-5.42,2.797-8.06c0.158-0.408,0.319-0.815,0.48-1.219
	c1.013-2.531,2.103-5.021,3.29-7.451c0.157-0.323,0.331-0.634,0.488-0.953c1.102-2.204,2.276-4.359,3.512-6.474
	c0.226-0.387,0.439-0.783,0.67-1.167c1.336-2.224,2.756-4.387,4.238-6.506c0.319-0.456,0.642-0.908,0.969-1.36
	c1.558-2.16,3.172-4.279,4.872-6.317c0.084-0.101,0.177-0.202,0.262-0.303c1.8-2.143,3.681-4.218,5.63-6.216
	c0.085-0.089,0.17-0.178,0.254-0.266c2.046-2.087,4.169-4.093,6.369-6.015c0.012-0.012,0.028-0.024,0.044-0.036
	c15.612-13.614,34.89-22.93,55.81-26.421c0.073-0.012,0.141-0.024,0.214-0.036c2.773-0.46,5.583-0.792,8.408-1.042
	c0.477-0.041,0.957-0.073,1.437-0.109c2.789-0.214,5.598-0.352,8.428-0.352c2.83,0,5.639,0.138,8.428,0.348
	c0.48,0.036,0.961,0.068,1.438,0.109c2.824,0.25,5.635,0.585,8.407,1.042c0.072,0.012,0.141,0.024,0.214,0.036
	c20.92,3.491,40.193,12.807,55.81,26.421c0.016,0.012,0.028,0.024,0.044,0.037c2.2,1.917,4.323,3.927,6.37,6.014
	c0.084,0.089,0.169,0.178,0.254,0.266c1.949,1.999,3.826,4.073,5.631,6.216c0.085,0.101,0.178,0.202,0.262,0.303
	c1.704,2.038,3.313,4.157,4.872,6.317c0.327,0.452,0.65,0.904,0.969,1.36c1.481,2.119,2.901,4.283,4.238,6.507
	c0.229,0.383,0.444,0.779,0.67,1.167c1.235,2.115,2.409,4.27,3.512,6.474c0.161,0.319,0.331,0.634,0.488,0.952
	c1.187,2.434,2.276,4.924,3.293,7.456c0.162,0.403,0.323,0.807,0.48,1.215c1.021,2.64,1.97,5.323,2.797,8.064
	c0.004,0.021,0.013,0.041,0.017,0.061c-2.466,2.131-5.582,3.326-8.812,3.326h-3.991
	C268.831,137.063,267.031,128.405,265.134,120.446z M92.716,122.314c4.408-18.49,18.874-21.041,33.853-21.041
	c26.675,0,31.289,0.718,37.904,26.009c5.623,21.498,6.39,68.964,6.49,82.999c0.069,9.671-9.457,11.011-25.158,12.064
	c-2.192,0.149-4.371,0.294-6.486,0.488c-9.19,0.844-14.107,0.742-23.338,0.053l-3.192-0.234
	c-17.525-1.238-30.906-2.935-30.619-12.278C82.864,187.629,87.724,143.275,92.716,122.314z M185.526,127.287
	c6.616-25.295,11.229-26.01,37.905-26.01c14.979,0,29.444,2.551,33.852,21.041c4.994,20.957,9.853,65.314,10.548,88.06
	c0.286,9.344-13.099,11.04-30.62,12.278l-3.188,0.234c-9.235,0.694-14.143,0.791-23.338-0.053c-2.115-0.193-4.295-0.339-6.486-0.488
	c-15.701-1.058-25.227-2.397-25.157-12.064C179.137,196.251,179.904,148.784,185.526,127.287z M175,288.017
	c-62.316,0-113.016-50.7-113.016-113.017c0-8.343,0.937-16.468,2.66-24.298c3.306,1.974,7.088,3.047,10.983,3.047h3.572
	c-2.656,20.081-4.662,42.309-5.094,56.387c-0.545,17.841,21.8,19.423,38.119,20.577l3.16,0.229c4.92,0.368,8.678,0.577,12.456,0.577
	c3.689,0,7.395-0.197,12.21-0.633c2.051-0.19,4.169-0.331,6.297-0.473c10.365-0.703,22.498-1.554,28.653-8.371
	c6.156,6.817,18.284,7.668,28.653,8.371c2.127,0.142,4.246,0.282,6.301,0.473c4.815,0.436,8.521,0.633,12.205,0.633
	c3.779,0,7.54-0.209,12.461-0.577l3.16-0.229c16.315-1.154,38.664-2.736,38.118-20.577c-0.428-14.074-2.438-36.306-5.094-56.387
	h3.572c3.896,0,7.678-1.074,10.983-3.047c1.72,7.831,2.655,15.955,2.655,24.298C288.016,237.316,237.316,288.017,175,288.017z"/>
</svg>
