<?xml version="1.0" encoding="utf-8"?>
<!-- Generator: Adobe Illustrator 16.0.0, SVG Export Plug-In . SVG Version: 6.00 Build 0)  -->
<!DOCTYPE svg PUBLIC "-//W3C//DTD SVG 1.1 Tiny//EN" "http://www.w3.org/Graphics/SVG/1.1/DTD/svg11-tiny.dtd">
<svg version="1.1" baseProfile="tiny" id="Layer_1" xmlns="http://www.w3.org/2000/svg" xmlns:xlink="http://www.w3.org/1999/xlink"
	 x="0px" y="0px" width="350px" height="350px" viewBox="0 0 350 350" overflow="scroll" xml:space="preserve">
<g>
	<rect x="173.377" y="85.017" fill="#231F20" width="0.938" height="2.919"/>
	<path fill-rule="evenodd" fill="#231F20" d="M173.87,68.951v0.002c0.19-0.012,0.382-0.013,0.571-0.017
		c0.147-0.083,0.885-0.576-0.081-1.391l0.058-7.869h-0.226l-0.047,8.785l-0.049-8.785h-0.226l0.058,7.868
		C172.858,68.446,173.87,68.951,173.87,68.951z"/>
	<polyline fill-rule="evenodd" fill="none" stroke="#000000" stroke-width="0.25" points="172.828,73.073 172.514,60.208 
		169.976,77.763 	"/>
	<path fill-rule="evenodd" fill="none" stroke="#000000" stroke-width="0.25" d="M175.034,73.166
		c0.245-4.265,0.492-8.533,0.739-12.798c0.91,5.465,1.823,10.928,2.737,16.393"/>
	<path fill-rule="evenodd" d="M260.394,199.032c-0.438-3.072-1.889-10.22-6.107-11.571l-3.461-40.552l1.296-3.029l-2.594-1.188
		c0,0,4.108-8.11-5.625-13.411c0,0-7.246-4.107-7.894-8.542c0,0,2.012-1.722,0.416-3.24l-0.296-7.481l0.907-0.13
		c0,0,0.857,2.583,2.152,0c0,0,1.951-0.787,0.25-1.608c-0.146-0.15-0.3-0.257-0.3-0.257c-0.72-1.865-1.578-0.216-1.578-0.216h-1.222
		c0.144-0.214-0.213-2.007-0.213-2.007c0.44-0.142,0.66-0.303,0.74-0.461c0.33-0.303,0.37-0.692-0.764-1.046
		c0,0-0.157-0.336-0.398-0.624c-0.217-0.313-0.436-0.413-0.638-0.4h-0.005c-0.03,0.003-0.054,0.006-0.083,0.011
		c-0.143,0.019-0.294,0.106-0.444,0.284c-0.293,0.303-0.488,0.729-0.488,0.729c-2.073,0.648-0.23,1.412,0.145,1.553
		c-0.06,0.453-0.109,0.896-0.156,1.335l-0.13,0.768h-1.509c-0.646-1.646-1.435,0.216-1.435,0.216c-2.151,0.86,0,1.722,0,1.722
		c1.291,2.583,2.152,0,2.152,0l0.792,0.112v7.418l-0.001,0.034c-1.692,1.531,0.356,3.288,0.356,3.288
		c-0.647,4.436-7.894,8.542-7.894,8.542c-9.731,5.3-5.625,13.411-5.625,13.411l-2.594,1.188l1.298,3.029l-1.59,18.64l-1.041-0.077
		l-5.911,4.471c0,0,0.721-20.908-1.445-22.349c0,0,0.866-6.922,2.885-10.094c0,0,2.017-4.758-2.449-6.344c0,0,0-5.334-2.163-5.911
		c0,0,5.048-13.267-19.177-27.687c0,0-7.193-4.823-11.267-10.343c0.174-0.902-0.017-1.984-1.214-2.998l0.121-2.605
		c0,0,5.817-3.513,0.485-7.634c0,0-1.784-0.625-2.176-3.121v-1.665c0.243-0.223,1.028-1.049,0-1.572v-1.118l0.337,0.184l0.111-0.727
		l-0.448-0.233v-5.28l1.181,0.083c0,0,0.189,1.293,0.68,0.177c0,0,1.139-0.362,0.034-0.703c0,0-0.338-1.117-0.664,0l-1.232-0.096
		v-1.431c0.16-0.06,1.366-0.523,0-0.745v-0.226h-0.113c-0.23-0.726-0.44-0.307-0.545,0h-0.098v0.23c-1.317,0.215-0.19,0.664,0,0.735
		v1.472l-1.255,0.1c-0.329-1.117-0.667,0-0.667,0c-1.102,0.337,0.038,0.701,0.038,0.701c0.488,1.115,0.677-0.175,0.677-0.175
		l1.207-0.086v4.856l-0.531-0.277l-0.11,0.673l0.641,0.353v1.486c-0.033,0.014-0.052,0.024-0.09,0.042
		c-1.21,0.606,0.063,1.638,0.063,1.638c0.302,3.876-2.243,4.725-2.243,4.725c-5.334,4.121,0.483,7.634,0.483,7.634l0.122,2.605
		c-1.091,0.924-1.343,1.905-1.247,2.755c-4.039,5.621-11.447,10.586-11.447,10.586c-24.222,14.42-19.175,27.687-19.175,27.687
		c-2.164,0.576-2.164,5.911-2.164,5.911c-4.471,1.586-2.45,6.344-2.45,6.344c2.018,3.172,2.883,10.094,2.883,10.094
		c-2.164,1.44-1.443,22.349-1.443,22.349l-5.428-4.106l-1.69-19.795l1.296-3.026l-2.595-1.19c0,0,4.111-8.109-5.621-13.408
		c0,0-7.246-4.111-7.894-8.544c0,0,1.861-1.601,0.567-3.077c0.004,0,0.007,0,0.011,0c-0.203-0.241-0.406-0.395-0.406-0.395
		L115,109.392l0.714-0.101c0,0,0.678,2.032,1.692,0c0,0,1.541-0.618,0.198-1.266c-0.115-0.119-0.234-0.202-0.234-0.202
		c-0.565-1.468-1.241-0.171-1.241-0.171h-0.961c0.112-0.167-0.168-1.58-0.168-1.58c0.348-0.112,0.518-0.236,0.582-0.362
		c0.258-0.241,0.29-0.544-0.603-0.822c0,0-0.122-0.266-0.313-0.493c-0.171-0.246-0.339-0.324-0.499-0.313c0,0-0.004,0-0.006,0
		c-0.021,0-0.042,0.002-0.063,0.008c-0.114,0.016-0.23,0.082-0.348,0.223c-0.234,0.239-0.385,0.575-0.385,0.575
		c-1.633,0.51-0.183,1.107,0.113,1.221c-0.049,0.358-0.087,0.707-0.124,1.05l-0.104,0.605h-1.186
		c-0.507-1.298-1.129,0.172-1.129,0.172c-1.692,0.677,0,1.354,0,1.354c1.018,2.032,1.694,0,1.694,0l0.625,0.088v5.837l-0.106,1.247
		c-1.942,1.557,0.213,3.41,0.213,3.41c-0.651,4.433-7.895,8.544-7.895,8.544c-9.731,5.299-5.622,13.408-5.622,13.408l-2.597,1.19
		l1.299,3.026l-3.461,40.557c-4.693,1.5-5.963,10.172-6.217,12.434H73.673v93.865h202.654v-93.865H260.394z"/>
</g>
</svg>
