<?xml version="1.0" encoding="utf-8"?>
<!-- Generator: Adobe Illustrator 16.0.0, SVG Export Plug-In . SVG Version: 6.00 Build 0)  -->
<!DOCTYPE svg PUBLIC "-//W3C//DTD SVG 1.1//EN" "http://www.w3.org/Graphics/SVG/1.1/DTD/svg11.dtd">
<svg version="1.1" id="Layer_1" xmlns="http://www.w3.org/2000/svg" xmlns:xlink="http://www.w3.org/1999/xlink" x="0px" y="0px"
	 width="350px" height="350px" viewBox="0 0 350 350" enable-background="new 0 0 350 350" xml:space="preserve">
<g>
	<path fill="#BCBEC0" d="M150.544,226.698c-3.071-2.22-6.136-4.771-8.328-7.896c-1.142-1.625-1.829-3.338-2.4-5.105
		c0.903,10.771,8.853,19.835,9.531,30.764c0.131,2.132,0.058,3.52-1.836,4.461c-2.717,1.347-5.577,2.41-8.332,3.678
		c-7.688,3.55-16.316,9.975-21.286,17.083c-2.358,3.365-3.006,7.646-4.704,11.334c-0.471,1.019-1.062,2.284-1.073,3.419
		c-0.042,4.666,4.079-2.334,4.615-3.137c6.965-10.424,20.788-12.032,31.497-16.521c10.404-4.356,17.836-12.649,19.931-23.849
		c0.328-1.779,0.544-3.604,0.687-5.441C162.553,232.953,156.036,230.677,150.544,226.698z"/>
	<path fill="#BCBEC0" d="M192.456,127.796c-0.173,12.102-10.126,21.78-22.231,21.604c-12.102-0.17-21.78-10.124-21.606-22.229
		c0.169-12.108,10.126-21.78,22.231-21.603C182.956,105.74,192.63,115.691,192.456,127.796z"/>
	<path fill="#BCBEC0" d="M143.116,178.738c1.324-5.997,3.118-11.887,6.278-17.122c1.794-2.959,4.207-5.827,7.074-8.028
		c-7.799,2.221-14.336,7.783-20.232,13.165c-8.949,8.158-16.111,18.048-18.458,30.131c-0.591,3.037-0.857,6.184-1.177,9.256
		c-0.15,1.412-1.594,10.127,1.374,7.079c0.799-0.824,1.196-2.47,1.586-3.51c0.872-2.317,1.354-4.88,2.454-7.103
		c4.7-9.493,11.886-17.929,20.8-23.688C142.915,178.854,143.019,178.805,143.116,178.738z"/>
	<path fill="#BCBEC0" d="M170.414,233.532c1.651-5.596,5.962-10.589,10.068-14.375c1.96-1.806,4.06-3.504,6.286-4.979
		c-1.354-0.643-2.729-1.253-4.122-1.809c-4.561-1.837-9.435-4.275-10.172-9.686c-0.822-6.021,3.172-11.77,5.522-16.983
		c0.081-0.182,0.162-0.359,0.243-0.536c-6.19-2.604-12.372-5.279-17.855-9.188c-4.743-3.376-9.324-7.998-9.455-13.611
		c-0.606,1.096-1.204,2.181-1.814,3.219c-2.319,3.94-4.071,8.25-5.144,12.672c-2.555,10.535-5.232,22.641-3.153,33.462
		c1.798,9.357,10.929,14.643,19.445,17.565c1.907,1.162,3.925,2.153,5.932,2.974c1.362,0.562,2.701,1.146,4.009,1.771
		C170.275,233.864,170.341,233.7,170.414,233.532z"/>
	<path fill="#BCBEC0" d="M203.794,230.513c-1.03-3.686-3.824-7.523-6.769-9.95c-2.832-2.331-5.942-4.237-9.203-5.866
		c-3.824,2.487-7.221,5.729-9.93,9.177c-2.23,2.836-4.739,6.186-6.359,9.778c-0.085,0.304-0.166,0.603-0.235,0.915
		c4.997,2.527,9.404,5.808,12.19,11.006c3.82,7.116,2.319,18.114,1.489,25.554c-0.521,4.676-0.386,9.428,0.359,14.066
		c0.328,2.037,0.764,4.048,1.315,6.031c0.375,1.349,0.521,2.837,1.192,4.079c0.772,1.441,2.227,1.393,2.829,0.012
		c1.092-2.505-0.228-6.834-0.197-9.53c0.089-8.005,2.327-15.333,5.052-22.534c2.551-6.741,5.526-13.375,7.575-20.36
		C204.272,238.903,204.937,234.59,203.794,230.513z"/>
	<path fill="#BCBEC0" d="M226.565,120.434c-0.718-5.231,3.361-25.103,3.361-25.103l-0.119,0.16
		c2.481-7.076,2.134-16.081-1.552-24.451c-6.197-14.068-19.491-21.02-29.69-15.528c-10.203,5.489-13.449,21.342-7.251,35.404
		c3.272,7.429,8.524,12.874,14.255,15.546c4.573,3.622,13.719,11.521,16.655,18.811c3.971,9.866,11.056,34.326,11.056,34.326
		l4.604-1.04C237.884,158.558,227.279,125.664,226.565,120.434z M227.326,94.235l-3.415,1.675c-0.413-1.088-0.807-2.163-1.196-3.203
		l3.446-1.688C226.565,92.136,226.956,93.216,227.326,94.235z M227.372,90.43l1.756-0.861c-0.139,1.32-0.366,2.597-0.679,3.826
		C228.078,92.379,227.72,91.391,227.372,90.43z M216.17,89.764c-0.521-1.349-1.022-2.653-1.505-3.897l3.411-1.721
		c0.498,1.326,0.992,2.646,1.481,3.946L216.17,89.764z M219.882,88.963c0.44,1.181,0.868,2.331,1.297,3.465l-3.354,1.644
		c-0.455-1.185-0.892-2.323-1.319-3.438L219.882,88.963z M213.461,86.473c0.498,1.302,0.999,2.601,1.493,3.892l-3.245,1.605
		c-0.518-1.343-1.011-2.628-1.486-3.863L213.461,86.473z M209.888,87.237c-0.467-1.206-0.919-2.372-1.343-3.487l3.237-1.623
		c0.447,1.158,0.892,2.315,1.339,3.479L209.888,87.237z M214.333,84.995c-0.467-1.206-0.911-2.36-1.339-3.471l3.453-1.721
		c0.433,1.15,0.869,2.308,1.305,3.469L214.333,84.995z M212.658,80.655c-0.447-1.15-0.872-2.254-1.273-3.303l3.492-1.745
		c0.409,1.094,0.826,2.198,1.242,3.319L212.658,80.655z M211.049,76.483c-0.405-1.045-0.795-2.045-1.157-2.998l3.55-1.687
		c0.363,0.963,0.729,1.941,1.107,2.937L211.049,76.483z M210.173,77.956c0.417,1.09,0.845,2.193,1.273,3.301l-3.241,1.621
		c-0.44-1.15-0.868-2.253-1.273-3.299L210.173,77.956z M206.596,78.707c-0.417-1.081-0.814-2.113-1.196-3.091l3.269-1.547
		c0.386,0.988,0.771,1.997,1.169,3.021L206.596,78.707z M205.384,79.316l-3.245,1.621c-0.425-1.125-0.83-2.192-1.212-3.193
		l3.253-1.545C204.573,77.217,204.975,78.255,205.384,79.316z M205.06,74.751c-0.594-1.545-1.138-2.958-1.64-4.243l3.253-1.584
		c0.532,1.358,1.08,2.79,1.659,4.274L205.06,74.751z M203.844,75.33l-3.249,1.544c-0.586-1.547-1.119-2.942-1.602-4.207l3.215-1.564
		C202.726,72.451,203.277,73.867,203.844,75.33z M198.662,71.793c-0.571-1.484-1.062-2.771-1.494-3.886l3.165-1.634
		c0.475,1.223,0.991,2.557,1.535,3.961L198.662,71.793z M199.376,77.454l-2.833,1.345c-0.625-1.557-1.169-2.917-1.655-4.137
		l2.891-1.408C198.287,74.589,198.824,75.99,199.376,77.454z M199.707,78.324c0.401,1.05,0.807,2.119,1.22,3.215l-2.743,1.374
		c-0.464-1.162-0.892-2.238-1.297-3.249L199.707,78.324z M201.259,82.407c0.417,1.096,0.833,2.198,1.254,3.313l-2.678,1.337
		c-0.467-1.16-0.892-2.24-1.309-3.284L201.259,82.407z M202.467,81.809l3.257-1.628c0.421,1.086,0.845,2.194,1.27,3.303l-3.272,1.63
		C203.285,83.962,202.868,82.855,202.467,81.809z M207.329,84.352c0.447,1.162,0.896,2.323,1.351,3.49l-3.296,1.658
		c-0.463-1.22-0.906-2.393-1.331-3.516L207.329,84.352z M209.016,88.715c0.493,1.291,0.991,2.572,1.481,3.849l-3.334,1.648
		c-0.498-1.328-0.988-2.611-1.451-3.836L209.016,88.715z M210.829,93.436c0.447,1.152,0.884,2.296,1.315,3.419l-3.364,1.648
		c-0.444-1.177-0.872-2.315-1.285-3.417L210.829,93.436z M212.041,92.836l3.249-1.604c0.447,1.158,0.892,2.308,1.323,3.431
		l-3.253,1.598C212.909,95.08,212.469,93.945,212.041,92.836z M216.945,95.533c0.417,1.083,0.826,2.153,1.228,3.189l-3.253,1.598
		c-0.417-1.094-0.83-2.153-1.224-3.188L216.945,95.533z M218.157,94.941l3.346-1.638c0.409,1.094,0.811,2.163,1.196,3.201
		l-3.314,1.628C218.964,97.037,218.559,95.977,218.157,94.941z M222.387,91.836c-0.444-1.194-0.876-2.352-1.293-3.471l3.48-1.711
		c0.433,1.188,0.857,2.358,1.267,3.491L222.387,91.836z M220.77,87.497c-0.517-1.375-1.011-2.693-1.485-3.963l3.512-1.766
		c0.49,1.345,0.979,2.688,1.454,4.003L220.77,87.497z M218.956,82.666c-0.447-1.206-0.88-2.365-1.301-3.467l3.559-1.777
		c0.42,1.148,0.841,2.312,1.266,3.465L218.956,82.666z M217.327,78.324c-0.428-1.165-0.845-2.269-1.242-3.318l3.589-1.791
		c0.405,1.086,0.807,2.202,1.22,3.329L217.327,78.324z M215.757,74.13c-0.386-1.017-0.749-1.991-1.096-2.914l3.646-1.729
		c0.344,0.926,0.69,1.875,1.05,2.844L215.757,74.13z M214.333,70.344c-0.605-1.607-1.15-3.049-1.644-4.357l3.673-1.791
		c0.498,1.341,1.042,2.829,1.629,4.415L214.333,70.344z M213.117,70.925l-3.565,1.692c-0.606-1.559-1.162-2.987-1.667-4.288
		l3.589-1.75C211.998,67.959,212.546,69.41,213.117,70.925z M207.549,67.461c-0.602-1.547-1.131-2.91-1.598-4.089l3.604-1.87
		c0.482,1.277,1.019,2.688,1.59,4.205L207.549,67.461z M206.337,68.052l-3.253,1.586c-0.583-1.493-1.104-2.815-1.555-3.98
		l3.226-1.669C205.241,65.241,205.77,66.601,206.337,68.052z M201.193,64.785c-0.479-1.206-0.88-2.229-1.22-3.093l3.215-1.708
		c0.362,0.922,0.771,1.97,1.227,3.136L201.193,64.785z M199.993,65.408l-3.161,1.629c-0.481-1.243-0.868-2.24-1.185-3.045
		l3.138-1.671C199.144,63.24,199.549,64.278,199.993,65.408z M197.446,72.385l-2.91,1.417c-0.605-1.505-1.107-2.732-1.513-3.751
		l2.944-1.521C196.424,69.711,196.917,70.996,197.446,72.385z M195.323,79.376l-2.508,1.194c-0.633-1.704-1.139-3.06-1.544-4.141
		l2.4-1.171C194.193,76.549,194.745,77.923,195.323,79.376z M195.667,80.246c0.429,1.058,0.86,2.149,1.301,3.269l-2.598,1.297
		c-0.451-1.239-0.864-2.362-1.234-3.365L195.667,80.246z M197.318,84.379c0.425,1.084,0.865,2.179,1.305,3.284l-2.717,1.358
		c-0.436-1.192-0.837-2.304-1.212-3.336L197.318,84.379z M198.967,88.531c0.463,1.169,0.93,2.338,1.393,3.506l-2.832,1.43
		c-0.463-1.266-0.892-2.454-1.297-3.565L198.967,88.531z M200.175,87.921l2.67-1.327c0.44,1.169,0.888,2.342,1.331,3.519
		l-2.612,1.316C201.081,90.202,200.614,89.037,200.175,87.921z M204.504,90.988c0.49,1.283,0.969,2.558,1.447,3.818l-2.547,1.262
		c-0.518-1.308-1.022-2.576-1.497-3.774L204.504,90.988z M206.279,95.682c0.436,1.162,0.868,2.3,1.293,3.411l-2.489,1.22
		c-0.459-1.166-0.907-2.292-1.335-3.381L206.279,95.682z M207.9,99.969c0.408,1.098,0.817,2.169,1.207,3.203l-2.427,1.188
		c-0.429-1.088-0.849-2.149-1.254-3.178L207.9,99.969z M207.066,105.522l0.065-0.035c-0.042-0.085-0.073-0.17-0.107-0.259
		l2.411-1.185c0.324,0.854,0.637,1.69,0.938,2.491C209.266,106.31,208.162,105.974,207.066,105.522z M210.315,102.582
		c-0.413-1.1-0.813-2.169-1.204-3.207l3.369-1.653c0.417,1.086,0.826,2.153,1.228,3.193L210.315,102.582z M214.044,101.787
		c0.655,1.709,1.28,3.338,1.859,4.856c-1.315,0.226-2.654,0.26-4.009,0.118c-0.425-1.131-0.846-2.234-1.247-3.315L214.044,101.787z
		 M215.255,101.192l3.254-1.601c0.725,1.891,1.416,3.683,2.045,5.339c-0.17,0.102-0.336,0.207-0.51,0.299
		c-0.906,0.49-1.855,0.837-2.813,1.104C216.548,104.554,215.888,102.844,215.255,101.192z M219.72,99l3.308-1.625
		c0.532,1.432,1.042,2.806,1.513,4.071l0.05-0.027c-0.853,1.049-1.813,1.983-2.879,2.759C221.024,102.385,220.356,100.664,219.72,99
		z M224.235,96.784l3.407-1.673c0.05,0.146,0.108,0.293,0.158,0.436c-0.595,1.685-1.366,3.246-2.296,4.635
		C225.068,99.024,224.645,97.885,224.235,96.784z M229.221,88.481l-2.165,1.065c-0.439-1.2-0.864-2.374-1.273-3.493l3.446-1.706
		C229.317,85.753,229.31,87.14,229.221,88.481z M229.151,83.356l-3.686,1.819c-0.513-1.414-0.999-2.742-1.462-4.019l4.445-2.236
		C228.781,80.406,229.021,81.89,229.151,83.356z M228.229,77.993l-4.542,2.292c-0.444-1.223-0.865-2.371-1.263-3.469l4.724-2.362
		C227.573,75.629,227.932,76.808,228.229,77.993z M226.223,72.133c0.212,0.48,0.409,0.966,0.598,1.449l-4.72,2.358
		c-0.428-1.181-0.833-2.296-1.215-3.33l4.479-2.242C225.663,70.95,225.952,71.529,226.223,72.133z M224.949,69.543l-4.384,2.188
		c-0.367-1.005-0.714-1.947-1.038-2.825l3.928-1.862C223.977,67.843,224.479,68.673,224.949,69.543z M222.919,66.269l-3.712,1.765
		c-0.629-1.721-1.174-3.188-1.637-4.428l2.281-1.106C220.939,63.637,221.966,64.891,222.919,66.269z M219.18,61.791l-1.934,0.943
		c-0.605-1.628-1.053-2.817-1.385-3.685C217.007,59.844,218.114,60.754,219.18,61.791z M216.039,63.325l-3.678,1.794
		c-0.622-1.64-1.154-3.041-1.605-4.229l3.662-1.895C214.812,60.018,215.367,61.503,216.039,63.325z M210.242,56.236
		c1.262,0.397,2.509,0.941,3.735,1.632c0.027,0.073,0.066,0.162,0.101,0.258l-3.658,1.891c-0.514-1.347-0.922-2.393-1.238-3.219
		L210.242,56.236z M208.919,55.892l-0.077,0.039c-0.008-0.019-0.02-0.046-0.027-0.067C208.85,55.873,208.88,55.882,208.919,55.892z
		 M209.224,60.635l-3.612,1.866c-0.486-1.242-0.895-2.284-1.234-3.147l3.615-1.925C208.34,58.319,208.757,59.4,209.224,60.635z
		 M207.282,55.597c0.104,0.266,0.235,0.596,0.379,0.958l-3.632,1.932c-0.586-1.476-0.926-2.31-1.135-2.788
		C204.334,55.439,205.805,55.414,207.282,55.597z M198.839,57.096c0.888-0.475,1.814-0.814,2.752-1.084
		c0.174,0.392,0.613,1.486,1.254,3.106l-3.215,1.709c-0.764-1.918-1.161-2.886-1.373-3.392
		C198.445,57.324,198.643,57.204,198.839,57.096z M197.13,58.181c0.251,0.592,0.702,1.725,1.312,3.276l-3.133,1.667
		c-0.579-1.472-0.83-2.064-0.946-2.3C195.188,59.821,196.107,58.937,197.13,58.181z M193.452,62.047
		c0.158,0.397,0.386,0.964,0.675,1.706l-2.33,1.235C192.279,63.944,192.827,62.956,193.452,62.047z M194.463,64.621
		c0.336,0.864,0.729,1.891,1.174,3.041l-2.968,1.53c-0.622-1.518-1.004-2.421-1.235-2.963L194.463,64.621z M190.712,67.928
		c0.213,0.529,0.467,1.15,0.765,1.879l-1.397,0.722C190.241,69.638,190.461,68.773,190.712,67.928z M189.891,71.667l1.937-0.996
		c0.44,1.088,0.945,2.339,1.501,3.724l-2.385,1.162c-0.641-1.694-0.979-2.551-1.165-2.976
		C189.813,72.277,189.848,71.969,189.891,71.667z M189.597,75.773c0.043,0.12,0.093,0.247,0.14,0.375l-0.144,0.065
		C189.593,76.067,189.597,75.92,189.597,75.773z M189.62,77.232l0.443-0.214c0.448,1.2,0.965,2.605,1.528,4.131l-1.474,0.699
		C189.844,80.291,189.678,78.751,189.62,77.232z M191.229,86.382c-0.378-1.194-0.688-2.395-0.931-3.589l1.617-0.768
		c0.401,1.088,0.818,2.223,1.243,3.396L191.229,86.382z M192.665,90.191c-0.429-0.965-0.807-1.941-1.139-2.921l1.956-0.977
		c0.401,1.102,0.807,2.217,1.212,3.327l-1.859,0.934C192.78,90.43,192.719,90.316,192.665,90.191z M193.244,91.389l1.774-0.885
		c0.44,1.211,0.876,2.408,1.297,3.573l-1.262,0.633C194.397,93.664,193.803,92.546,193.244,91.389z M195.57,95.485l1.065-0.533
		c0.486,1.343,0.945,2.609,1.366,3.767C197.146,97.727,196.335,96.637,195.57,95.485z M197.844,94.341l2.859-1.432
		c0.502,1.262,0.999,2.526,1.489,3.757l-2.975,1.468C198.731,96.797,198.279,95.543,197.844,94.341z M200.267,101.044
		c-0.25-0.696-0.497-1.364-0.736-2.032l3.002-1.484c0.463,1.16,0.907,2.287,1.339,3.383l-2.423,1.187
		C201.047,101.768,200.656,101.407,200.267,101.044z M204.215,101.775c0.401,1.015,0.791,2.003,1.161,2.937
		c-1.057-0.56-2.091-1.235-3.095-1.989L204.215,101.775z M223.556,120.708c-1.177,0.405-10.477-9.723-13.159-12.685
		c3.632,0.671,7.282,0.21,10.612-1.578c1.898-1.023,3.562-2.408,4.967-4.075C225.736,107.28,224.972,120.215,223.556,120.708z"/>
	<path fill="#BCBEC0" d="M224.965,154.643c1.169-2.799,2.844-5.333,4.576-7.813c1.313-1.881,3.693-4.555,2.446-7
		c-2.62-5.15-10.469,4.891-11.904,6.647c-3.774,4.625-6.812,9.829-9.713,15.027c-3.099,5.53-7.707,11.292-14.66,8.042
		c-3.655-1.708-6.487-4.581-9.651-6.996c-4.13-3.145-7.826-6.925-12.812-8.737c-3.959-1.439-9.138-1.783-13.209-0.643
		c-2.165,0.612-4.53,2.036-5.916,3.854c-5.935,7.797,1.509,14.104,7.833,17.828c11.998,7.061,26.461,14.462,40.627,9.339
		c5.461-1.979,10.28-5.773,13.819-10.346c3.751-4.837,5.441-11.002,7.591-16.725C224.301,156.291,224.625,155.461,224.965,154.643z"
		/>
	<g>
		<path fill="#BCBEC0" d="M208.429,204.54c-0.259-1.224,0.038-2.474,0.779-3.357c-0.428-0.104-0.872-0.164-1.327-0.17
			c-1.613-0.023-3.08,0.592-4.176,1.609c0.868-0.235,1.714-0.168,2.393,0.439c1.424,1.293,0.807,3.52,0.255,5.078
			c-0.482,1.374-0.934,2.736-0.271,4.138c0.093,0.2,0.205,0.397,0.32,0.586c0.421,0.101,0.857,0.158,1.305,0.168
			c2.022,0.029,3.816-0.947,4.928-2.46C211.523,208.534,208.884,206.658,208.429,204.54z"/>
		<path fill="#BCBEC0" d="M211.18,206.627c0.737,0.822,1.591,1.637,2.212,2.566c0.251-0.648,0.397-1.351,0.409-2.088
			c0.038-2.508-1.475-4.681-3.644-5.61C208.552,202.643,210.254,205.606,211.18,206.627z"/>
		<path fill="#BCBEC0" d="M204.52,210.606c0.135-1.749,2.393-4.951,0.71-6.476c-0.748-0.682-1.806-0.463-2.739,0.069
			c-0.437,0.814-0.691,1.744-0.707,2.734c-0.03,2.193,1.119,4.121,2.856,5.195C204.527,211.633,204.478,211.119,204.52,210.606z"/>
	</g>
</g>
</svg>
