<?xml version="1.0" encoding="utf-8"?>
<!-- Generator: Adobe Illustrator 16.0.0, SVG Export Plug-In . SVG Version: 6.00 Build 0)  -->
<!DOCTYPE svg PUBLIC "-//W3C//DTD SVG 1.1//EN" "http://www.w3.org/Graphics/SVG/1.1/DTD/svg11.dtd">
<svg version="1.1" id="Capa_1" xmlns="http://www.w3.org/2000/svg" xmlns:xlink="http://www.w3.org/1999/xlink" x="0px" y="0px"
	 width="350px" height="350px" viewBox="0 0 350 350" enable-background="new 0 0 350 350" xml:space="preserve">
<g>
	<path fill="#FBD490" d="M286.462,113.314c-5.092-31.595-29.605-55.555-61.287-60.108c-10.006-1.438-19.67-0.827-28.667,1.462
		c-20.623,5.25-42.188,5.246-62.811,0c-8.992-2.289-18.656-2.9-28.658-1.462c-31.394,4.51-55.815,28.085-61.162,59.344
		c-4.222,24.676,3.962,47.564,19.325,63.498c10.612,11.006,16.964,25.413,16.964,40.703v54.775
		c0,14.382,11.655,26.037,26.037,26.037h115.645c14.382,0,26.037-11.655,26.037-26.037v-52.65c0-15.844,6.885-30.634,18.104-41.823
		C281.846,161.258,290.472,138.236,286.462,113.314z"/>
	<path fill="#D8AF6F" d="M66.256,129.364c-1.231,0-2.462-0.471-3.399-1.409c-1.88-1.88-1.88-4.919,0-6.799l52.891-52.892
		c1.88-1.88,4.919-1.88,6.799,0c1.88,1.88,1.88,4.919,0,6.799l-52.891,52.891C68.718,128.893,67.486,129.364,66.256,129.364z"/>
	<path fill="#D8AF6F" d="M78.276,165.427c-1.231,0-2.462-0.471-3.399-1.409c-1.88-1.879-1.88-4.918,0-6.799l72.125-72.125
		c1.88-1.88,4.919-1.88,6.799,0c1.88,1.88,1.88,4.919,0,6.799l-72.125,72.125C80.738,164.956,79.507,165.427,78.276,165.427z"/>
	<path fill="#D8AF6F" d="M200.889,288.038c-1.231,0-2.462-0.472-3.399-1.408c-1.881-1.88-1.881-4.919,0-6.799l28.85-28.85
		c1.88-1.881,4.919-1.881,6.799,0c1.881,1.88,1.88,4.919,0,6.799l-28.85,28.85C203.35,287.566,202.119,288.038,200.889,288.038z"/>
	<path fill="#D8AF6F" d="M157.614,283.23c-1.231,0-2.462-0.472-3.399-1.409c-1.88-1.88-1.88-4.918,0-6.799l72.125-72.125
		c1.88-1.88,4.919-1.88,6.799,0c1.881,1.881,1.881,4.919,0,6.799l-72.125,72.125C160.075,282.759,158.844,283.23,157.614,283.23z"/>
	<path fill="#D8AF6F" d="M92.702,199.084c-1.231,0-2.462-0.471-3.399-1.408c-1.88-1.88-1.88-4.919,0-6.799L209.51,70.669
		c1.88-1.88,4.919-1.88,6.799,0c1.88,1.88,1.88,4.918,0,6.799L96.101,197.676C95.164,198.613,93.932,199.084,92.702,199.084z"/>
	<path fill="#D8AF6F" d="M95.105,249.572c-1.231,0-2.462-0.472-3.399-1.409c-1.88-1.88-1.88-4.919,0-6.799L245.571,87.498
		c1.88-1.879,4.92-1.879,6.8,0c1.88,1.88,1.879,4.919,0,6.799L98.505,248.163C97.567,249.101,96.336,249.572,95.105,249.572z"/>
	<path fill="#D8AF6F" d="M109.53,283.23c-1.231,0-2.461-0.472-3.399-1.409c-1.88-1.88-1.88-4.918,0-6.799l153.866-153.866
		c1.88-1.88,4.919-1.88,6.799,0c1.88,1.88,1.88,4.919,0,6.799L112.93,281.821C111.992,282.759,110.762,283.23,109.53,283.23z"/>
	<g>
		<path fill="#A46F3E" d="M306.253,113.314c-5.093-31.595-29.604-55.555-61.286-60.108c-7.05-1.015-13.916-0.957-20.513-0.067
			c0.239,0.034,0.476,0.034,0.721,0.067c31.682,4.553,56.195,28.513,61.287,60.108c4.015,24.922-4.616,47.944-20.465,63.744
			c-11.217,11.185-18.103,25.979-18.103,41.823v52.65c0,14.382-11.656,26.037-26.037,26.037h19.791
			c14.382,0,26.037-11.655,26.037-26.037v-52.65c0-15.844,6.886-30.635,18.104-41.823
			C301.637,161.258,310.263,138.236,306.253,113.314z"/>
	</g>
</g>
</svg>
