<?xml version="1.0" encoding="utf-8"?>
<!-- Generator: Adobe Illustrator 16.0.0, SVG Export Plug-In . SVG Version: 6.00 Build 0)  -->
<!DOCTYPE svg PUBLIC "-//W3C//DTD SVG 1.1//EN" "http://www.w3.org/Graphics/SVG/1.1/DTD/svg11.dtd">
<svg version="1.1" id="Capa_1" xmlns="http://www.w3.org/2000/svg" xmlns:xlink="http://www.w3.org/1999/xlink" x="0px" y="0px"
	 width="350px" height="350px" viewBox="0 0 350 350" enable-background="new 0 0 350 350" xml:space="preserve">
<path d="M295.167,110.765c-1.887-1.501-4.111-2.115-6.354-1.79c-0.55-0.05-1.595-1.095-1.649-1.565l0.435-3.041
	c0.403-2.783-0.731-5.82-3.027-8.113c-2.297-2.297-5.33-3.443-8.113-3.033l-2.966,0.432c-0.549-0.051-1.594-1.091-1.649-1.565
	l0.437-3.042c0.401-2.783-0.732-5.82-3.029-8.113c-2.297-2.301-5.325-3.456-8.113-3.033l-2.965,0.432
	c-0.55-0.051-1.595-1.091-1.649-1.565l0.436-3.042c0.402-2.783-0.732-5.82-3.028-8.113c-2.297-2.301-5.338-3.439-8.113-3.033
	l-2.965,0.432c-0.55-0.051-1.595-1.092-1.649-1.565l0.075-0.533c0.327-2.259-0.271-4.429-1.729-6.265
	c-2.352-2.965-6.378-4.306-9.36-4.568c-3.842-0.343-7.398,0.862-10.305,3.481c-3.282,2.957-5.155,7.326-5.841,9.805
	c-2.022,3.553-13.104,24.271-17.639,57.298l-6.747-6.747c-7.397-7.394-18.928-8.096-27.186-2.225l-0.215-0.288l-2.508,2.512l0,0
	l-45.822,45.831c-8.244,8.244-8.244,21.661,0,29.906l4.796,4.797c-12.859,1.378-36.343,5.731-55.855,19.542
	c-8.553,3.101-13.307,8.891-12.736,15.558c0.267,3.084,1.642,7.246,4.704,9.682c1.882,1.498,4.103,2.12,6.354,1.789
	c0.55,0.051,1.595,1.092,1.649,1.565l-0.436,3.042c-0.397,2.786,0.736,5.819,3.033,8.116c2.293,2.297,5.33,3.396,8.117,3.029
	l2.953-0.437c0.55,0.051,1.599,1.096,1.654,1.569l-0.436,3.037c-0.397,2.783,0.731,5.815,3.028,8.113
	c2.293,2.302,5.338,3.409,8.122,3.037l2.953-0.436c0.55,0.051,1.599,1.096,1.654,1.568l-0.436,3.038
	c-0.402,2.783,0.732,5.815,3.025,8.112c2.296,2.297,5.33,3.426,8.121,3.037l2.961-0.436c0.55,0.051,1.595,1.091,1.65,1.565
	l-0.077,0.532c-0.326,2.264,0.275,4.433,1.73,6.269c2.352,2.961,6.375,4.303,9.356,4.564c0.427,0.038,0.846,0.06,1.265,0.06
	c3.312,0,6.383-1.181,8.946-3.452c3.451-3.062,5.27-7.474,5.935-9.89c2.018-3.548,13.1-24.271,17.634-57.306l6.159,6.158
	c4.124,4.124,9.538,6.185,14.953,6.185c5.418,0,10.833-2.061,14.957-6.185l0.071-0.071l0,0l37.051-37.05l0,0l8.705-8.705
	c8.243-8.245,8.243-21.662,0-29.906l-4.209-4.208c12.854-1.379,36.343-5.731,55.859-19.542c8.558-3.088,13.308-8.878,12.736-15.553
	C299.607,117.363,298.233,113.201,295.167,110.765z M190.681,222.502l-54.325-73.22l19.669-19.673l5.283-5.287l54.325,73.224
	L190.681,222.502z M128.395,282.811l-0.558,0.943l-0.021,0.618c-0.418,1.434-2.491,7.423-7.258,7.123
	c-1.759-0.157-3.266-1.02-3.46-1.21l0.076-0.533c0.402-2.783-0.732-5.82-3.029-8.112c-1.992-1.997-4.539-3.109-7-3.109
	c-0.376,0-0.749,0.029-1.121,0.08l-2.957,0.437c-0.55-0.052-1.595-1.096-1.654-1.569l0.436-3.037
	c0.397-2.784-0.732-5.816-3.029-8.113c-2.297-2.298-5.334-3.422-8.122-3.037l-2.953,0.436c-0.549-0.051-1.599-1.096-1.653-1.569
	l0.436-3.037c0.397-2.783-0.732-5.815-3.029-8.113c-2.297-2.296-5.325-3.413-8.121-3.036l-2.957,0.436
	c-0.55-0.051-1.595-1.096-1.65-1.565l0.436-3.041c0.402-2.783-0.731-5.816-3.028-8.113c-2.293-2.305-5.326-3.43-8.003-3.016
	c-0.474-0.229-1.451-1.857-1.62-3.837c-0.351-4.064,6.209-6.543,7.529-7l0.728-0.254l0.495-0.359
	c22.41-16.099,51.905-18.531,59.282-18.891l4.683,4.683c-0.478,0.249-0.922,0.583-1.29,1.022c-5.389,6.375-9.027,6.502-16.264,6.751
	c-2.584,0.09-5.516,0.195-8.899,0.618c-2.318,0.287-3.963,2.402-3.672,4.72c0.267,2.142,2.09,3.706,4.192,3.706
	c0.178,0,0.351-0.012,0.529-0.034c3.007-0.375,5.617-0.465,8.143-0.554c3.27-0.114,6.354-0.263,9.403-1.015
	c-7.377,9.825-11.184,23.12-9.577,35.966c0.267,2.141,2.089,3.706,4.192,3.706c0.177,0,0.351-0.013,0.528-0.034
	c2.318-0.287,3.963-2.402,3.672-4.721c-1.912-15.277,5.702-31.867,17.702-38.581c0.631-0.354,1.087-0.871,1.451-1.442l4.627,4.628
	C142.096,259.39,128.535,282.574,128.395,282.811z M183.676,229.502c-4.949,4.944-12.999,4.948-17.948,0l-10.921-10.922
	l-24.787-24.787l-10.118-10.117c-4.945-4.949-4.945-12.995,0-17.944l10.401-10.406l54.328,73.22L183.676,229.502z M229.502,183.676
	l-7.821,7.82l-54.185-73.033c2.162-1.498,4.678-2.271,7.212-2.271c3.249,0,6.497,1.235,8.972,3.71l11.51,11.509l0,0l5.926,5.926
	l28.391,28.391c2.382,2.382,3.697,5.567,3.697,8.972C233.203,178.104,231.888,181.294,229.502,183.676z M283.907,128.167
	l-1.215,0.609c-22.409,16.107-51.913,18.536-59.286,18.895l-4.594-4.593c0.551-0.25,1.059-0.622,1.477-1.117
	c5.389-6.379,9.022-6.501,16.26-6.751c2.589-0.089,5.52-0.19,8.903-0.617c2.318-0.288,3.965-2.403,3.672-4.721
	c-0.292-2.318-2.436-3.934-4.721-3.671c-3.007,0.376-5.621,0.466-8.146,0.554c-3.27,0.11-6.349,0.258-9.398,1.015
	c7.377-9.826,11.184-23.12,9.576-35.962c-0.287-2.322-2.44-3.942-4.721-3.671c-2.317,0.288-3.963,2.402-3.672,4.721
	c1.908,15.278-5.701,31.864-17.701,38.581c-0.697,0.394-1.176,0.981-1.544,1.628l-4.806-4.813
	c3.913-37.642,17.475-60.826,17.614-61.063l0.574-0.968l0.009-0.609c0.439-1.459,2.593-7.483,7.25-7.106
	c1.755,0.157,3.266,1.019,3.461,1.209l-0.077,0.533c-0.401,2.783,0.732,5.82,3.029,8.113c2.292,2.296,5.32,3.422,8.112,3.033
	l2.966-0.432c0.55,0.051,1.594,1.091,1.648,1.565l-0.431,3.046c-0.402,2.783,0.732,5.82,3.028,8.112
	c2.297,2.301,5.33,3.435,8.113,3.033l2.965-0.432c0.55,0.051,1.595,1.091,1.649,1.565l-0.436,3.041
	c-0.401,2.783,0.731,5.82,3.028,8.113c2.297,2.297,5.326,3.443,8.113,3.033l2.965-0.432c0.551,0.051,1.596,1.091,1.649,1.565
	l-0.435,3.042c-0.397,2.788,0.735,5.82,3.032,8.117c2.297,2.292,5.343,3.417,8.003,3.003c0.474,0.229,1.451,1.853,1.616,3.837
	C291.791,125.244,285.227,127.714,283.907,128.167z"/>
</svg>
