<?xml version="1.0" encoding="utf-8"?>
<!-- Generator: Adobe Illustrator 16.0.0, SVG Export Plug-In . SVG Version: 6.00 Build 0)  -->
<!DOCTYPE svg PUBLIC "-//W3C//DTD SVG 1.1//EN" "http://www.w3.org/Graphics/SVG/1.1/DTD/svg11.dtd">
<svg version="1.1" id="Capa_1" xmlns="http://www.w3.org/2000/svg" xmlns:xlink="http://www.w3.org/1999/xlink" x="0px" y="0px"
	 width="350px" height="350px" viewBox="0 0 350 350" enable-background="new 0 0 350 350" xml:space="preserve">
<g>
	<path fill="#88C057" d="M248.889,87.216c-12.939-8.292-37.242-19.848-60.589-9.171c-2.247,1.03-4.808-0.591-4.808-3.065V53.52
		c0.004-4.959-3.365-9.02-7.48-9.02h-11.227c-4.116,0-7.484,4.061-7.484,9.02v22.732c0,2.146-1.944,3.772-4.051,3.338
		c-9.479-1.954-34.095-4.994-57.635,9.066c-3.222,1.924-1.354,6.975,2.343,6.298c10.959-2.005,25.383-3.384,35.131,0.465
		c2.556,1.005,2.924,4.5,0.626,6.004c-6.924,4.521-19.697,14.914-28.065,34.025c-1.424,3.252,2.576,6.167,5.318,3.909
		c10.692-8.808,28.283-20.742,43.202-18.818c1.757,0.227,3.091,1.662,3.065,3.434c-0.152,10.01-0.025,44.02,8.242,56.893
		c1.303,2.03,4.222,2.131,5.642,0.177c5.268-7.237,16.687-26.429,16.217-56.398c-0.03-1.97,1.55-3.571,3.521-3.505
		c7.524,0.242,25.292,2.369,39.383,16.131c2.308,2.257,6.131,0.308,5.728-2.894c-1.107-8.762-5.93-22.015-23.39-32.292
		c-2.65-1.561-2.201-5.53,0.783-6.262c6.03-1.48,16.424-2.889,33.555-2.323C250.395,93.605,251.813,89.09,248.889,87.216z"/>
	<path fill="#D13834" d="M252.818,94.954c-0.47-0.328-1.015-0.536-1.586-0.606c-2.021-0.248-4.045-0.48-6.065-0.752
		c-0.722-0.071-1.45-0.126-2.167-0.197c-14.717-0.243-23.954,1.04-29.524,2.394c-3.025,0.737-3.57,4.702-0.884,6.283
		c17.459,10.278,22.277,23.53,23.384,32.287c0.403,3.202-3.42,5.151-5.728,2.894c-14.091-13.757-31.857-15.884-39.384-16.131
		c-1.969-0.065-3.555,1.536-3.52,3.505c0.465,29.969-10.949,49.161-16.217,56.397c-1.424,1.955-4.338,1.854-5.641-0.177
		c-8.268-12.874-8.394-46.883-8.242-56.893c0.025-1.768-1.308-3.207-3.066-3.434c-14.919-1.93-32.509,10.01-43.201,18.817
		c-2.742,2.258-6.742-0.656-5.318-3.909c8.358-19.085,21.11-29.474,28.04-34.004c2.309-1.51,1.925-5.02-0.646-6.01
		c-1.874-0.723-3.919-1.258-6.076-1.637c-0.384-0.07-0.793-0.076-1.182-0.02c-12.247,1.667-24.277,3.995-35.954,7.126
		c-0.515,0.137-0.995,0.384-1.404,0.727c-25.772,21.444-41.954,52.317-41.954,86.645c0,64.752,57.54,117.24,128.513,117.24
		c70.974,0,128.513-52.488,128.513-117.24C303.514,150.195,283.626,116.368,252.818,94.954z"/>
	<path fill="#ED7161" d="M73.746,219.426c-1.727,0-3.409-0.884-4.349-2.475c-3.778-6.378-6.252-13.424-7.358-20.938
		c-0.404-2.763,1.505-5.329,4.263-5.732c2.808-0.435,5.328,1.505,5.732,4.263c0.898,6.126,2.995,12.096,6.055,17.262
		c1.419,2.399,0.631,5.5-1.773,6.919C75.509,219.198,74.62,219.426,73.746,219.426z"/>
	<path fill="#ED7161" d="M67.67,179.234c-0.116,0-0.237-0.005-0.354-0.015c-2.788-0.191-4.884-2.606-4.692-5.384
		c0.475-6.702,1.849-13.212,4.096-19.363c0.955-2.621,3.843-3.955,6.479-3.01c2.621,0.954,3.965,3.858,3.01,6.479
		c-1.924,5.257-3.101,10.838-3.505,16.59C72.519,177.199,70.302,179.234,67.67,179.234z"/>
</g>
</svg>
