<?xml version="1.0" encoding="utf-8"?>
<!-- Generator: Adobe Illustrator 16.0.0, SVG Export Plug-In . SVG Version: 6.00 Build 0)  -->
<!DOCTYPE svg PUBLIC "-//W3C//DTD SVG 1.1//EN" "http://www.w3.org/Graphics/SVG/1.1/DTD/svg11.dtd">
<svg version="1.1" id="Layer_1" xmlns="http://www.w3.org/2000/svg" xmlns:xlink="http://www.w3.org/1999/xlink" x="0px" y="0px"
	 width="350px" height="350px" viewBox="0 0 350 350" enable-background="new 0 0 350 350" xml:space="preserve">
<g>
	<g>
		<circle fill="#4C216E" cx="131.517" cy="105.749" r="10.304"/>
		<g>
			<circle fill="#DED4B6" cx="137.378" cy="212.498" r="62.761"/>
			<rect x="114.144" y="118.085" fill="#DED4B6" width="46.47" height="60.785"/>
			<path fill="#4C216E" d="M87.193,201.044c-0.838,3.685-1.296,7.515-1.296,11.454c0,28.433,23.049,51.48,51.48,51.48
				s51.481-23.048,51.481-51.48c0-3.939-0.458-7.77-1.296-11.454H87.193z"/>
			<path fill="#EBE0C0" d="M168.332,116.654c0,3.638-2.949,6.588-6.588,6.588h-49.785c-3.639,0-6.588-2.95-6.588-6.588l0,0
				c0-3.64,2.949-6.59,6.588-6.59h49.785C165.383,110.064,168.332,113.015,168.332,116.654L168.332,116.654z"/>
			<circle fill="#FFFFFF" cx="114.143" cy="196.243" r="17.374"/>
			<circle fill="#FFFFFF" cx="112.539" cy="229.671" r="7.168"/>
		</g>
		<circle fill="#4C216E" cx="149.806" cy="92.873" r="7.985"/>
		<circle fill="#4C216E" cx="133.146" cy="80.875" r="6.136"/>
	</g>
	<g>
		<circle fill="#F57F0F" cx="224.111" cy="150.537" r="10.305"/>
		<circle fill="#F57F0F" cx="242.401" cy="137.662" r="7.985"/>
		<circle fill="#F57F0F" cx="225.74" cy="125.664" r="6.137"/>
		<g>
			<circle fill="#EBE0C0" cx="227.398" cy="227.273" r="47.985"/>
			<rect x="209.633" y="155.088" fill="#EBE0C0" width="35.529" height="46.476"/>
			<path fill="#F57F0F" d="M189.028,218.518c-0.641,2.816-0.99,5.744-0.99,8.756c0,21.739,17.623,39.36,39.358,39.36
				c21.739,0,39.361-17.621,39.361-39.36c0-3.012-0.35-5.939-0.99-8.756H189.028z"/>
			<path fill="#DED4B6" d="M251.063,153.994c0,2.783-2.256,5.038-5.036,5.038h-38.064c-2.781,0-5.037-2.255-5.037-5.038l0,0
				c0-2.78,2.256-5.036,5.037-5.036h38.064C248.808,148.958,251.063,151.214,251.063,153.994L251.063,153.994z"/>
			<circle fill="#FFFFFF" cx="209.633" cy="214.847" r="13.284"/>
			<circle fill="#FFFFFF" cx="208.406" cy="240.404" r="5.48"/>
		</g>
	</g>
</g>
</svg>
