<?xml version="1.0" encoding="utf-8"?>
<!-- Generator: Adobe Illustrator 16.0.0, SVG Export Plug-In . SVG Version: 6.00 Build 0)  -->
<!DOCTYPE svg PUBLIC "-//W3C//DTD SVG 1.1//EN" "http://www.w3.org/Graphics/SVG/1.1/DTD/svg11.dtd">
<svg version="1.1" id="Layer_1" xmlns="http://www.w3.org/2000/svg" xmlns:xlink="http://www.w3.org/1999/xlink" x="0px" y="0px"
	 width="350px" height="350px" viewBox="0 0 350 350" enable-background="new 0 0 350 350" xml:space="preserve">
<g>
	<circle fill="#F57F0F" cx="133.367" cy="136.775" r="18.045"/>
	<circle fill="#F57F0F" cx="195.021" cy="139.206" r="18.045"/>
	<circle fill="#F57F0F" cx="195.487" cy="118.73" r="11.816"/>
	<g>
		<circle fill="#F57F0F" cx="161.803" cy="94.273" r="10.822"/>
		<circle opacity="0.4" fill="#FFFFFF" cx="160.302" cy="92.772" r="4.33"/>
	</g>
	<g>
		<circle fill="#F57F0F" cx="170.358" cy="64.166" r="5.31"/>
		<circle opacity="0.4" fill="#FFFFFF" cx="169.622" cy="63.428" r="2.125"/>
	</g>
	<g>
		<circle fill="#F57F0F" cx="183.67" cy="81.248" r="7.427"/>
		<circle opacity="0.4" fill="#FFFFFF" cx="182.64" cy="80.219" r="2.971"/>
	</g>
	<circle fill="#F57F0F" cx="216.898" cy="132.632" r="18.045"/>
	<circle fill="#F57F0F" cx="172.252" cy="126.961" r="18.045"/>
	<circle fill="#F57F0F" cx="147.063" cy="123.954" r="15.037"/>
	<g>
		<path fill="#623487" d="M128.942,219.24l-26.685,60.982c-1.726,3.943,0.073,8.541,4.017,10.266
			c3.944,1.727,8.541-0.07,10.266-4.016l26.685-60.982L128.942,219.24z"/>
		<path fill="#623487" d="M247.742,280.223l-26.685-60.982l-14.283,6.25l26.686,60.982c1.726,3.945,6.322,5.742,10.267,4.016
			C247.671,288.764,249.469,284.166,247.742,280.223z"/>
	</g>
	<path fill="#4C216E" d="M232.246,142.72H117.755c-20.408,14.37-33.45,36.253-33.45,60.774c0,43.279,40.606,78.365,90.696,78.365
		c50.089,0,90.695-35.086,90.695-78.365C265.695,178.973,252.653,157.089,232.246,142.72z"/>
	<path fill="#3E1B59" d="M238.238,147.34c10.899,12.93,17.339,28.845,17.339,46.066c0,43.281-40.606,78.367-90.696,78.367
		c-24.6,0-46.898-8.477-63.237-22.217c16.489,19.572,43.195,32.303,73.356,32.303c50.089,0,90.695-35.086,90.695-78.365
		C265.695,181.469,255.169,161.575,238.238,147.34z"/>
	<path fill="#623487" d="M250.182,140.428c0,4.306-3.49,7.796-7.796,7.796H107.615c-4.305,0-7.794-3.49-7.794-7.796l0,0
		c0-4.305,3.489-7.795,7.794-7.795h134.771C246.691,132.632,250.182,136.123,250.182,140.428L250.182,140.428z"/>
	<circle fill="#FFFFFF" cx="127.685" cy="188.059" r="19.379"/>
	<circle opacity="0.2" fill="#FFFFFF" cx="145.291" cy="117.157" r="4.093"/>
	<circle opacity="0.2" fill="#FFFFFF" cx="202.061" cy="122.904" r="4.714"/>
	<circle opacity="0.4" fill="#FFFFFF" cx="159.699" cy="122.904" r="3.986"/>
	<circle opacity="0.4" fill="#FFFFFF" cx="194.604" cy="114.588" r="2.743"/>
	<circle opacity="0.4" fill="#FFFFFF" cx="224.844" cy="126.455" r="2.222"/>
	<circle opacity="0.2" fill="#FFFFFF" cx="218.453" cy="118.918" r="3.194"/>
	<circle opacity="0.2" fill="#FFFFFF" cx="129.274" cy="126.455" r="2.548"/>
	<circle opacity="0.2" fill="#FFFFFF" cx="175.001" cy="118.188" r="4.989"/>
	<path fill="#F57F0F" d="M219.904,161.909c0,3.776-3.062,6.838-6.838,6.838l0,0c-3.777,0-6.84-3.062-6.84-6.838v-31.894
		c0-3.776,3.063-6.838,6.84-6.838l0,0c3.776,0,6.838,3.062,6.838,6.838V161.909z"/>
	<path fill="#F57F0F" d="M193.806,168.277c0,1.938-1.571,3.509-3.509,3.509l0,0c-1.94,0-3.511-1.572-3.511-3.509v-41.873
		c0-1.939,1.57-3.511,3.511-3.511l0,0c1.938,0,3.509,1.572,3.509,3.511V168.277z"/>
</g>
</svg>
