<?xml version="1.0" encoding="utf-8"?>
<!-- Generator: Adobe Illustrator 16.0.0, SVG Export Plug-In . SVG Version: 6.00 Build 0)  -->
<!DOCTYPE svg PUBLIC "-//W3C//DTD SVG 1.1//EN" "http://www.w3.org/Graphics/SVG/1.1/DTD/svg11.dtd">
<svg version="1.1" id="Layer_1" xmlns="http://www.w3.org/2000/svg" xmlns:xlink="http://www.w3.org/1999/xlink" x="0px" y="0px"
	 width="350px" height="350px" viewBox="0 0 350 350" enable-background="new 0 0 350 350" xml:space="preserve">
<g>
	
		<line fill="none" stroke="#262626" stroke-width="5" stroke-linecap="round" stroke-linejoin="round" stroke-miterlimit="10" x1="88" y1="284.5" x2="224" y2="284.5"/>
	<circle fill="#262626" cx="153.057" cy="86.549" r="21.473"/>
	
		<polyline fill="none" stroke="#262626" stroke-width="8" stroke-linecap="round" stroke-linejoin="round" stroke-miterlimit="10" points="
		158.853,182.84 173.43,227.727 168.568,279.296 	"/>
	
		<polyline fill="none" stroke="#262626" stroke-width="8" stroke-linecap="round" stroke-linejoin="round" stroke-miterlimit="10" points="
		147.985,182.84 133.408,227.727 138.271,279.296 	"/>
	<path fill="#262626" d="M182,196.42c0,2.763-2.356,4.58-5.264,4.58h-47.473c-2.907,0-5.264-1.817-5.264-4.58v-78.996
		c0-2.763,2.356-5.424,5.264-5.424h47.473c2.907,0,5.264,2.661,5.264,5.424V196.42z"/>
	<path fill="none" stroke="#FE5D37" stroke-width="4" stroke-linecap="round" stroke-linejoin="round" stroke-miterlimit="10" d="
		M239,74.222v116.882C239,191.104,290,119.202,239,74.222z"/>
	
		<line fill="none" stroke="#262626" stroke-width="8" stroke-linecap="round" stroke-linejoin="round" stroke-miterlimit="10" x1="156" y1="129" x2="245" y2="129"/>
	
		<polyline fill="none" stroke="#262626" stroke-width="7" stroke-linecap="round" stroke-linejoin="round" stroke-miterlimit="10" points="
		131.037,154.725 97.859,113.105 147.985,123.319 	"/>
</g>
</svg>
