<?xml version="1.0" encoding="utf-8"?>
<!-- Generator: Adobe Illustrator 16.0.0, SVG Export Plug-In . SVG Version: 6.00 Build 0)  -->
<!DOCTYPE svg PUBLIC "-//W3C//DTD SVG 1.1//EN" "http://www.w3.org/Graphics/SVG/1.1/DTD/svg11.dtd">
<svg version="1.1" id="Layer_1" xmlns="http://www.w3.org/2000/svg" xmlns:xlink="http://www.w3.org/1999/xlink" x="0px" y="0px"
	 width="350px" height="350px" viewBox="0 0 350 350" enable-background="new 0 0 350 350" xml:space="preserve">
<g>
	<g>
		<rect x="225.17" y="103.773" fill="#424242" width="26.279" height="53.247"/>
		<path fill="#303030" d="M227.098,126.722h22.424c2.908,0,5.289-2.38,5.289-5.289v-15.77c0-2.909-2.381-5.289-5.289-5.289h-22.424
			c-2.908,0-5.289,2.38-5.289,5.289v15.77C221.809,124.342,224.189,126.722,227.098,126.722z"/>
	</g>
	<g>
		<rect x="188.379" y="117.938" fill="#424242" width="19.918" height="40.357"/>
		<path fill="#303030" d="M191.121,135.332h14.432c2.908,0,5.289-2.381,5.289-5.29v-9.392c0-2.909-2.381-5.289-5.289-5.289h-14.432
			c-2.91,0-5.289,2.38-5.289,5.289v9.392C185.832,132.951,188.211,135.332,191.121,135.332z"/>
	</g>
	<g>
		<rect x="147.607" y="154.798" fill="#424242" width="21.223" height="66.795"/>
		<path fill="#303030" d="M267.52,200.639h3.293c4.371,0,7.949-3.575,7.949-7.946v-8.993c0-4.37-3.578-7.948-7.949-7.948h-3.293
			c-4.371,0-7.947,3.578-7.947,7.948v8.993C259.572,197.063,263.148,200.639,267.52,200.639z"/>
		<ellipse fill="#424242" cx="261.002" cy="188.194" rx="9.592" ry="32.994"/>
		<path fill="#303030" d="M260,223.158h-92.477c-2.909,0-5.29-2.381-5.29-5.289v-59.348c0-2.909,2.38-5.29,5.29-5.29H260
			c2.908,0,5.289,2.381,5.289,5.29v59.348C265.289,220.777,262.908,223.158,260,223.158z"/>
	</g>
	<g>
		<path fill="#303030" d="M70.861,225.164h69.479c7.758,0,14.105-6.347,14.105-14.105v-83.033c0-7.758-6.347-14.104-14.105-14.104
			H70.861c-7.757,0-14.105,6.347-14.105,14.104v83.033C56.756,218.817,63.104,225.164,70.861,225.164z"/>
		<g>
			<rect x="103.375" y="136.938" fill="#E5E5E5" width="35.817" height="35.817"/>
			<g>
				<polygon fill="#C4C4C4" points="123.072,136.938 103.375,156.635 103.375,171.282 137.719,136.938 				"/>
				<polygon fill="#C4C4C4" points="139.192,148.762 115.2,172.755 129.847,172.755 139.192,163.409 				"/>
			</g>
		</g>
		<g>
			<rect x="67.943" y="136.938" fill="#E5E5E5" width="28.693" height="63.734"/>
			<g>
				<polygon fill="#C4C4C4" points="96.636,136.938 80,136.938 67.943,148.994 67.943,169.283 96.636,140.59 				"/>
				<polygon fill="#C4C4C4" points="96.636,159.009 67.943,187.701 67.943,200.672 75.262,200.672 96.636,179.297 				"/>
			</g>
		</g>
		<rect x="51.003" y="107.724" fill="#424242" width="111.23" height="18.165"/>
	</g>
	<rect x="54.081" y="217.16" fill="#303030" width="204.933" height="11.62"/>
	<polygon fill="#282828" points="252.652,238.765 297.74,238.765 271.109,210.794 252.652,210.794 	"/>
	<g>
		<g>
			<g>
				<circle fill="#424242" cx="227.559" cy="230.992" r="18.633"/>
				<circle fill="#303030" cx="227.559" cy="230.992" r="15.275"/>
			</g>
			<g>
				<circle fill="#424242" cx="189.38" cy="230.992" r="18.634"/>
				<circle fill="#303030" cx="189.381" cy="230.992" r="15.275"/>
			</g>
		</g>
		<path fill="#424242" d="M186.191,233.809h44.557c1.369,0,2.488-1.121,2.488-2.489v-0.654c0-1.368-1.119-2.488-2.488-2.488h-44.557
			c-1.369,0-2.488,1.12-2.488,2.488v0.654C183.703,232.688,184.822,233.809,186.191,233.809z"/>
	</g>
	<g>
		<g>
			<g>
				<circle fill="#424242" cx="132.472" cy="224.754" r="24.872"/>
				<circle fill="#303030" cx="132.472" cy="224.754" r="20.389"/>
			</g>
			<g>
				<circle fill="#424242" cx="81.51" cy="224.754" r="24.872"/>
				<circle fill="#303030" cx="81.51" cy="224.754" r="20.39"/>
			</g>
		</g>
		<path fill="#424242" d="M76.977,228.512h60.028c1.675,0,3.046-1.37,3.046-3.046v-1.425c0-1.675-1.371-3.045-3.046-3.045H76.977
			c-1.675,0-3.046,1.37-3.046,3.045v1.425C73.931,227.142,75.301,228.512,76.977,228.512z"/>
	</g>
	<rect x="251.41" y="209.413" fill="#424242" width="22.869" height="2.946"/>
	<rect x="251.41" y="237.292" fill="#424242" width="47.586" height="2.946"/>
	<g>
		<circle fill="#E5E5E5" cx="213.762" cy="185.645" r="17.244"/>
		<circle fill="#A3A3A3" cx="213.762" cy="185.645" r="14.568"/>
		<polygon fill="#C4C4C4" points="213.762,175.549 216.268,183.26 224.375,183.26 217.816,188.027 220.322,195.738 213.762,190.973 
			207.201,195.738 209.705,188.027 203.146,183.26 211.256,183.26 		"/>
	</g>
</g>
</svg>
