<?xml version="1.0" encoding="utf-8"?>
<!-- Generator: Adobe Illustrator 16.0.0, SVG Export Plug-In . SVG Version: 6.00 Build 0)  -->
<!DOCTYPE svg PUBLIC "-//W3C//DTD SVG 1.1//EN" "http://www.w3.org/Graphics/SVG/1.1/DTD/svg11.dtd">
<svg version="1.1" id="Layer_1" xmlns="http://www.w3.org/2000/svg" xmlns:xlink="http://www.w3.org/1999/xlink" x="0px" y="0px"
	 width="350px" height="350px" viewBox="0 0 350 350" enable-background="new 0 0 350 350" xml:space="preserve">
<g>
	<path fill="#91D0F4" d="M246.393,264.518c-4.129-1.382-8.031-1.063-12.273-0.49c-4.35,0.588-11.271,1.368-15.018-1.505
		c-1.973-1.514-1.541-2.518-1.271-4.629c0.139-1.107-0.695-1.967-1.457-2.604c-2.672-2.232-6.66-2.316-9.91-1.834
		c-1.463,0.222-3.059,1.026-4.473,0.028c-0.654-0.459-1.172-1.055-1.854-1.499c-0.807-0.533-1.824-0.48-2.738-0.38
		c-1.992,0.224-2.939,2.047-2.775,3.819c0.156,1.602,1.336,1.886,1.109,3.709c-0.047,0.386,0,0.718,0.113,1.019
		c-0.318,1.092-0.928,1.916-1.715,3.008c-1.064,1.476-1.748,4.329,0.432,5.363c3.584,1.705,7.613,0.528,11.348,0.059
		c5.447-0.688,10.02,1.727,15.332,2.329c4.568,0.519,9.211-0.332,13.695,0.812c3.859,0.986,7.385,1.228,11.316,0.374
		c1.432-0.313,5.207-0.904,5.252-3.104C251.574,266.131,248.695,265.287,246.393,264.518z"/>
	<path fill="#91D0F4" d="M192.787,279.767c-2.75-2.873-9.82-3.904-12.84-3.647c-3.988,0.343-11.359,3.438-13.989-1.288
		c-2.435-4.366,6.365-5.045,1.556-9.929c-2.644-2.685-8.077-3.074-11.09-1.16c-3.594,2.284-6.046,3.331-10.342,2.755
		c-6.596-0.884-13.195-0.471-19.546,1.549c-3.671,1.17-7.769-0.018-11.458-0.512c-4.37-0.585-15.566-0.484-14.736,6.385
		c0.415,3.45,4.724,3.948,7.439,4.148c6.698,0.496,3.441,1.832-0.4,5.275c-5.848,5.243,15.48,9.104,17.671,9.789
		c10.48,3.269,22.725,2.389,32.932-1.337c3.594-1.313,6.376-1.809,10.125-1.167c2.754,0.469,5.532,0.605,8.307,0.396
		c5.063-0.383,12.387-0.863,15.91-5.123C194.484,283.297,194.23,281.278,192.787,279.767z"/>
	<g>
		<g>
			<path fill="#925F2D" d="M261.164,128.612c-1.857,0.636-3.707,1.295-5.551,2.027c-6.645,2.637-13.492,4.694-20.109,7.411
				c1.658-2.894,3.863-5.578,4.615-8.883c-0.588,0.046-1.174,0.069-1.758,0.096c-1.6,2.476-3.588,5.084-5.807,7.041
				c-2.037,1.799-4.684,2.761-7.154,3.813c-6,2.554-12.189,4.632-18.26,7.014l-8.172,3.906c0,0,19.248-20.625,19.666-20.765
				c2.49-1.465,5.227-4.088,8.016-4.664c3.119-0.645,6.938-1.316,10.031-2.059c6.191-1.483,12.418-2.867,18.656-4.145
				c5.082-1.694,9.764-4.07,14.502-6.546c-0.135-0.445-0.27-0.891-0.408-1.334c-5.313,2.354-10.822,3.961-16.494,5.192
				c0.939-1.451,1.922-2.867,2.885-4.301c0.361-0.539,1.775-3.002,0.057-2.784c-0.654,0.083-0.998,0.787-1.363,1.251
				c-0.625,0.795-1.273,1.57-1.932,2.333c-1.152,1.333-2.318,2.699-3.184,4.244c-6.775,1.372-13.613,2.502-20.428,3.757
				c3.168-2.313,11.557-10.051,12.969-11.187c1.654-1.333,3.303-2.683,5.045-3.904c9.77-6.854,13.313-5.469,19.9-8.819
				c0.008-0.296-0.063-1.521-0.035-1.815c-3.611,1.159-7.25,2.188-10.918,3.162c1.42-1.599,2.307-3.712,3.324-5.581
				c1.053-1.931,1.871-3.854,2.646-5.906c-0.518-0.285-1.063-0.516-1.615-0.646c-1.74,2.314-3.414,4.685-5.268,6.915
				c-2.002,2.399-4.246,4.414-6.68,6.362c-0.248,0.269-0.504,0.533-0.76,0.797c-0.605-3.452-0.127-7.184-0.893-10.547
				c-0.578,0.078-1.592,0.168-2.25,0.496c-0.287,1.143-0.164,2.428-0.199,3.597c-0.039,1.212-0.088,2.422-0.096,3.635
				c-0.014,1.207,0.014,2.415,0.125,3.617c0.057,0.663,0.145,1.322,0.258,1.979c0.051,0.285,0.107,0.397-0.035,0.632
				c-0.596,1.022-1.732,1.838-2.615,2.594c-0.953,0.819-1.922,1.613-2.854,2.46c-3.625,3.292-7.457,6.337-11.496,9.104
				c-4.129,2.83-8.527,5.267-12.477,8.363c-0.775,0.721-1.537,1.462-2.275,2.232l-6.906,5.192l1.912-8.184
				c1.451-3.652,1.262-8.397,4.342-11.236c3.537-3.264,7.879-5.426,12.068-7.708c4.143-2.252,8.41-4.71,11.217-8.604
				c1.369-1.891,2.85-3.853,3.711-6.014c0.836-2.105,1.197-4.434,1.596-6.668c0.096-0.521,0.174-1.118,0.441-1.583
				c0.324-0.562,1.195-1.005,1.713-1.37c1.406-0.985,2.889-1.863,4.334-2.79c3.137-2.011,5.6-4.417,7.727-7.478
				c1.057-1.907,2.066-3.831,2.832-5.867c-0.178-0.122-1.574-0.051-1.736-0.189c-1.818,3.354-2.805,5.098-5.381,7.322
				c-2.605,2.244-5.66,3.888-8.201,6.213c0.461-1.469,0.953-2.929,1.391-4.409c0.045-0.135,0.088-0.271,0.137-0.411
				c1.383-4.992,2.535-10.129,2.844-15.314c-0.568-0.038-1.131-0.096-1.695-0.188c-0.514,2.488-1.324,4.901-2.07,7.326
				c-0.746,2.438-1.414,4.896-2.111,7.347c-0.773,3.33-1.658,6.645-2.609,9.93c-1.246-2.348-3.518-4.552-5.082-6.698
				c-2.045-4.152-3.434-8.504-3.713-13.148c-0.604,0.248-1.199,0.51-1.779,0.769c-0.482,4.375,0.244,8.766,2.371,12.627
				c2.023,3.667,4.809,6.828,7.002,10.379c-0.98,2.986-1.924,5.869-4.178,8.153c-2.188,2.219-4.395,4.343-7.021,5.958
				c-3.059,1.883-12.188,7.899-15.158,9.913c-1.414,0.957,3.863-13.264,14.004-27.364c-0.391-0.057-1.844-0.214-2.23-0.283
				c-1.594,1.972-2.873,4.175-4.486,6.135c-1.605,1.946-3.084,3.938-4.424,6.083c-0.406-1.632-1.08-3.195-1.627-4.785
				c-0.049-0.15-0.102-0.301-0.154-0.448c-0.377-1.006-0.787-1.994-1.348-2.881c-0.379,0.308-0.748,0.636-1.102,0.973
				c0.736,1.666,2.623,8.524,2.367,10.156c-0.008,0.034-0.021,0.057-0.031,0.085c0.002,0.021,0.01,0.044,0.018,0.069
				c-4.08,7.21-7.738,15.886-7.609,19.496c-2.084-2.148-4.977-3.597-6.551-6.202c-1.254-2.07-1.414-4.492-1.264-6.853
				c-0.455,0.014-0.912,0.005-1.369-0.018c-1.152,3.615-0.506,7.416,1.584,10.543c1.9,2.844,4.686,4.916,7.418,6.895
				c-1.563,6.755-4.486,13.213-8.584,18.811c-3.199,4.379-7.305,7.705-11.422,11.203c-1.754-10.955-0.287-22.016,1.152-32.992
				c0.672-5.16,1.719-9.291,3.643-14.138c1.889-4.769,3.508-10.154,7.578-13.411c2.047-1.638,4.244-3.67,6.289-5.31
				c2.057-1.644,3.998-3.438,5.729-5.422c2.258-2.585,4.211-5.561,5.23-8.86c1.578-5.098,3.006-10.308,4.066-15.542
				c0.145-0.716,0.297-1.446,0.354-2.176c0.07-0.971-0.752-0.707-1.596-0.941c-1.24,3.41-1.82,7.01-2.951,10.455
				c-1.078,3.282-2.662,6.388-4.568,9.266c-0.117-2.697-0.805-5.309-1.514-7.901c-0.695-2.54-1.17-5.132-1.439-7.753
				c-0.457,0.183-0.906,0.372-1.357,0.562c-0.074,1.895-0.156,3.794-0.063,5.688c0.096,1.978,0.502,3.874,0.945,5.794
				c0.504,2.15,1.85,5.832,0.234,7.771c0.004,0.023,0.008,0.048,0.01,0.069c-4.225,4.99-9.512,8.924-14.201,13.45
				c0.813-2.618,1.174-5.412,1.631-8.111c0.496-2.897,0.869-5.802,1.004-8.74c-0.486,0.103-0.979,0.186-1.465,0.283
				c-0.404,1.785-1.08,3.514-1.58,5.272c-0.521,1.834-0.996,3.681-1.504,5.517c-0.959,3.501-2.299,6.706-4.148,9.831
				c-1.77,3.714-3.592,7.407-5.52,11.04c-1.715,3.227-3.459,6.559-5.713,9.454c0.319-0.404-0.22-1.728-0.333-2.153
				c-0.298-1.15-0.454-2.316-0.613-3.493c-0.443-3.273-1.035-6.557-0.882-9.853c0.78-16.795,13.606-32.537,16.19-37.417
				c-0.322-0.126-1.24-1.09-1.557-1.231c-2.736,4.127-5.521,8.616-8.25,12.746c-2.039,3.08-4.005,6.209-5.93,9.36
				c0.124-2.143,2.701-20.686,0.734-29.212c-0.582,0.076-1.605,0.088-2.187,0.11c0.223,5.364,0.163,15.087-0.11,20.442
				c-0.184,3.627-1.329,9.774-1.928,13.359c-0.56,3.362-1.219,6.711-1.981,10.034c-0.23,1.001-0.464,2-0.744,2.988
				c-0.067,0.229-0.124,0.46-0.223,0.678c-0.138,0.314-0.624-1.159-0.673-1.311l-6.748-12.95c0.191-0.185,0.627-0.854,0.641-0.892
				c2.435-6.185,3.385-12.243,1.719-18.679c-0.447,0.101-0.939,0.22-1.354,0.424c-0.025,3.603-0.113,7.099-0.929,10.65
				c-0.45,1.575-1.038,3.082-1.659,4.595c-0.088,0.154-0.173,0.305-0.269,0.447c-2.123-4.771-4.147-9.585-5.954-14.481
				c-0.89-2.415-1.723-4.85-2.545-7.289c-0.833-2.479-1.758-4.946-2.392-7.483c-0.659,0.289-1.329,0.521-2.006,0.698
				c0.421,4.264,1.393,8.496,2.463,12.637c1.095,4.231,2.35,8.417,3.934,12.493c-2.732-2.187-6.493-3.514-8.361-6.573
				c-2.162-3.549-3.14-7.861-4.731-11.696c-0.425,0.374-0.861,0.732-1.311,1.063c0.645,2.559,1.4,5.091,2.229,7.599
				c1.046,3.152,2.924,5.926,5.274,8.25c3.09,3.064,5.298,5.385,7.872,8.995c3.367,4.721,6.17,11.483,7.651,17.054
				c5.703,21.408,5.99,34.325,5.54,37.825c-0.641-0.328-6.982-7.754-8.017-8.89c-2.917-3.208-4.501-4.742-5.731-7.829
				c2.077-2.614,4.033-5.24,5.288-8.401c0.631-1.588,0.957-3.241,0.545-4.919c-0.475-1.949-1.01-3.51-2.105-5.171
				c-0.433,0.146-0.868,0.275-1.312,0.387c0.794,2.266,1.294,4.674,0.61,7.035c-0.833,2.885-3.19,5.043-4.601,7.646
				c-0.964-3.944-7.694-12.344-14.215-18.392c-0.135-0.127-0.28-1.901,0.185-3.408c0.22-1.469,0.471-2.929,0.396-4.432
				c-0.106-2.292-0.269-4.611-0.748-6.86c-0.677-3.191-1.772-6.201-3.278-9.053c-0.301,0.214-1.084,0.941-1.364,1.178
				c1.205,2.077,1.928,4.152,2.435,6.557c1.226,5.851,0.351,11.089,0.188,13.375c-0.067,0.197-0.135,0.392-0.195,0.59
				c-1.644-1.423-3.413-2.628-5.156-3.921c-2.573-2.286-5.238-4.478-7.981-6.629c-0.245,0.371-0.503,0.727-0.78,1.065
				c1.946,2.412,4.03,4.712,6.489,6.617c2.687,2.082,5.242,4.324,7.811,6.546c2.3,2.36,4.374,4.955,6.401,7.549
				c0.836,1.069,1.659,2.145,2.456,3.243c0.085,0.113,0.805,1.333,0.9,1.334c-0.273-0.005-0.805-0.431-1.06-0.555
				c-0.443-0.224-0.893-0.436-1.347-0.64c-0.921-0.411-1.86-0.785-2.807-1.136c-1.907-0.709-3.838-0.665-5.767-1.31
				c-1.963-0.654-4.129-1.081-6.124-1.639c-2.166-0.606-4.622-1.542-6.78-2.187c-2.669-1.349-4.827-3.33-7.074-5.331
				c0.039-0.071,0.078-0.142,0.099-0.209c1.417-3.337,2.633-6.922,1.754-10.567c-0.007-0.156-0.021-0.31-0.032-0.466
				c-0.018-0.114-0.042-0.22-0.067-0.33c-1.304-2.671-2.545-5.395-4.377-7.732c-0.333,0.167-0.663,0.34-0.975,0.541
				c0.744,2.336,2.056,4.458,2.637,6.849c0.181,1.556,0.262,3.172,0.057,4.729c-0.22,1.655-0.737,3.252-0.957,4.909
				c-3.119-4.056-6.422-8.006-9.009-12.435c-2.804-4.793-5.795-9.459-8.854-14.091c-0.05,0.007-0.103,0.013-0.156,0.018
				c-0.298,0.248-0.596,0.5-0.89,0.751c2.343,4.861,5.104,9.479,8.112,13.952c0.815,1.304,1.687,2.577,2.531,3.868
				c-3.076-1.552-6.461-2.309-9.576-3.767c-3.083-1.444-5.571-3.598-8.389-5.451c-0.181,0.261-0.39,0.509-0.606,0.75
				c0.485,0.636,0.978,1.267,1.471,1.9c1.893,1.772,3.803,3.493,5.976,4.924c2.07,1.366,4.302,2.25,6.67,2.97
				c1.12,0.34,2.25,0.654,3.371,1.005c0.556,0.173,1.109,0.354,1.655,0.551c0.507,0.181,1.272,0.346,1.687,0.693
				c0.514,0.427,0.734,1.244,1.039,1.818c0.51,0.966,1.148,1.885,1.747,2.8c2.446,3.743,5.398,7.496,9.499,9.507
				c4.561,2.235,9.846,3.939,14.651,5.46c10.59,3.356,14.556,9.052,16.601,11.734l4.055,7.363l-8.052-3.131
				c-0.922-0.544-1.854-1.053-2.793-1.538c-0.475-0.195-0.932-0.42-1.379-0.65c-2.353-0.9-4.625-2.107-6.457-3.844
				c-2.087-1.985-3.325-4.375-4.742-6.785c-0.688,0.363-1.361,0.75-1.857,1.341c0.514,1.726,1.843,3.125,2.683,4.686
				c-7.279-2.49-14.478-5.245-21.619-8.093c-2.846-1.134-5.646-2.355-8.445-3.59c-4.586-2.019-8.832-4.762-12.228-8.497
				c-0.206-0.222-0.4-0.45-0.588-0.682c-0.393,0.253-0.772,0.545-1.116,0.884c1.233,1.675,2.463,3.236,3.913,4.733
				c1.552,1.6,3.055,3.501,4.94,4.712c-3.792,0.055-7.574,0.048-11.366-0.092c0.106,0.276,0.202,0.558,0.291,0.84
				c2.13,0.425,4.267,0.82,6.418,1.132c2.219,0.319,4.448,0.413,6.67,0.666c4.168,0.473,8.162,1.99,12.029,3.542
				c3.208,1.428,6.443,2.775,9.689,4.095c2.708,1.521,5.409,3.17,8.325,4.255c-8.197,0.751-16.374,1.68-24.575,2.16
				c-2.963,0.506-5.947,0.969-8.953,1.178c-3.126,0.22-6.078-0.223-9.176-0.509c-0.049,0.367-0.103,0.73-0.163,1.092
				c4.08,1.639,8.917,1.707,13.248,1.6c4.884-0.117,9.768-0.503,14.645-0.795c4.65-0.284,9.275-0.796,13.911-1.228
				c4.111-0.383,8.307-0.498,12.34,0.57c17.267,7.888,21.804,15.67,21.804,15.67l-5.058-0.688
				c-6.486-0.654-13.003-0.982-19.468-1.818c-2.732-0.356-5.632-0.565-8.126-1.835c-2.587-1.315-5.128-3.197-7.294-5.114
				c-0.571,0.135-1.145,0.269-1.715,0.384c1.612,2.979,7.223,6.72,9.597,9.057c-4.334-0.505-8.718-0.519-13.06-1.003
				c-2.672-0.296-5.327-0.686-7.981-1.099c-1.56-0.239-3.162-0.402-4.693-0.801c-1.417-0.37-2.8-0.919-4.281-1.001
				c-0.439,1.132-0.73,2.307-0.918,3.503c4.196,0.613,8.389,1.178,12.6,1.648c4.15,0.462,8.215,1.18,12.333,1.813
				c4.097,0.627,8.325,0.395,12.454,0.454c4.324,0.058,8.651,0.2,12.947,0.7c-3.388,0.797-6.624,2.149-10.023,2.949
				c-3.48,0.824-7.007,1.432-10.501,2.203c1.056,0.532,2.187,0.884,3.221,1.457c5.486-1.003,10.828-2.637,16.225-4.021
				c3.625-0.931,7.833-2.408,11.221-0.021c2.52,1.774,3.75,4.895,4.476,7.774c0.96,3.799,1.163,7.772,1.308,11.672
				c0.308,8.055-3.115,60.104-4.381,65.677c-0.812,3.579-1.46,7.203-2.342,10.771c-0.869,3.533-1.942,7.286-4.143,10.249
				c-1.148,1.546-2.584,2.651-4.487,3.1c-1.191,0.28-2.417,0.38-3.623,0.592c-1.453,0.256-2.896,0.523-4.359,0.718
				c-1.574,0.209-3.151,0.397-4.717,0.668c-1.34,0.23-2.754,0.399-3.991,0.989c3.402,0.707,6.737,1.797,10.204,2.474
				c-3.087,1.543-6.167,3.111-9.254,4.662c-2.811,1.412-5.557,3.17-7.797,5.401c1.244,0.234,2.594,0.071,3.838-0.028
				c2.059-0.163,4.111-0.427,6.156-0.718c4.458-0.636,8.921-1.355,13.23-2.706c3.611-1.131,7.106-2.624,10.444-4.405
				c0.979-0.522,1.935-1.073,2.892-1.625c0.496-0.285,0.84-0.721,1.138-0.118c0.021-0.013,0.042-0.025,0.067-0.036
				c0.262,0.601,0.755,1.144,1.155,1.653c0.702,0.898,1.436,1.776,2.183,2.641c1.45,1.671,2.945,3.22,4.65,4.629
				c0.964,0.797,1.928,1.591,2.91,2.369c0.33,0.261,0.659,0.521,1,0.768c0.305,0.221,0.376,0.386,0.549-0.028
				c0.656-1.599,0.053-3.454-0.135-5.09c-0.212-1.906-0.567-3.803-0.627-5.726c1.19,1.744,2.789,2.654,4.752,3.36
				c21.496,3.388,30.596,2.939,33.031,2.648c-1.424-1.35-5.84-5.415-6.143-5.591c-0.145,0.008-1.363-1.797-1.193-1.91
				c0.291-0.196,1.197-0.085,1.553-0.113c0.641-0.044,1.279-0.098,1.92-0.152c3.016-0.257,6.035-0.57,9.049-0.898
				c4.516-0.489,9.098-0.851,13.57-1.639c-0.355-0.546-1.791-0.796-2.357-0.982c-1.34-0.432-2.693-0.816-4.043-1.188
				c-3.381-0.931-6.781-1.781-10.184-2.614c-2.76-0.673-5.57-1.229-8.299-2.013c-3.432-0.983-6.23-3.169-7.918-6.317
				c-1.639-3.054-2.25-6.561-2.654-9.967c-0.533-4.519-0.873-9.061-1.375-13.582c-1.266-11.421-2.195-22.856-2.57-34.341
				c-0.184-5.619-0.514-11.247-0.596-16.867c-0.066-4.813,0.021-9.961,2.396-14.278c1.984-3.604,5.078-6.443,8.225-9.025
				c1.582-1.297,3.205-2.543,4.797-3.832c1.764-1.426,3.469-3.016,5.609-3.865c2.311-0.911,4.902-0.895,7.344-0.82
				c2.705,0.083,5.395,0.096,8.094,0.048c2.174-0.039,4.342-0.183,6.512-0.168c0.697,0.005,1.41,0.067,1.932-0.447
				c0.766-0.756,1.697-1.334,2.494-2.059c-3.533,0.2-7.063,0.563-10.6,0.716c-3.523,0.151-7.039-0.278-10.555-0.129
				c4.561-1.873,9.289-3.301,14.018-4.682c2.363-0.691,4.744-1.34,7.092-2.096c2.26-0.725,4.373-1.829,6.504-2.867
				c4.082,0.911,8.498,1.643,12.553,1.44c0.332-0.469,0.662-0.939,1.01-1.4c-2.285-0.691-5.426-1.88-8.346-2.339
				c4.818-1.99,9.621-3.982,14.385-6.102C262.492,130.636,261.895,129.581,261.164,128.612z"/>
			<path opacity="0.3" fill="#62381A" d="M261.164,128.612c-1.857,0.636-3.707,1.295-5.529,2.019
				c-0.008,0.005-0.014,0.005-0.021,0.009c-6.645,2.637-13.492,4.694-20.109,7.411c1.658-2.894,3.863-5.578,4.615-8.883
				c-0.588,0.046-1.174,0.069-1.758,0.096c-1.6,2.476-3.588,5.084-5.807,7.041c-2.037,1.799-4.684,2.761-7.154,3.813
				c-6,2.554-12.189,4.632-18.26,7.014l-8.172,3.906c0,0,19.248-20.625,19.666-20.765c2.49-1.465,5.227-4.088,8.016-4.664
				c3.119-0.645,6.938-1.316,10.031-2.059c6.191-1.483,12.418-2.867,18.656-4.145c5.082-1.694,9.764-4.07,14.502-6.546
				c-0.135-0.445-0.27-0.891-0.408-1.334c-5.313,2.354-10.822,3.961-16.494,5.192c0.939-1.451,1.922-2.867,2.885-4.301
				c0.361-0.539,1.775-3.002,0.057-2.784c-0.654,0.083-0.998,0.787-1.363,1.251c-0.625,0.795-1.273,1.57-1.932,2.333
				c-1.152,1.333-2.318,2.699-3.184,4.244c-6.775,1.372-13.613,2.502-20.428,3.757c3.168-2.313,11.557-10.051,12.969-11.187
				c1.654-1.333,3.303-2.683,5.045-3.904c9.77-6.854,13.313-5.469,19.9-8.819c0.008-0.296-0.063-1.521-0.035-1.815
				c-3.611,1.159-7.25,2.188-10.918,3.162c1.42-1.599,2.307-3.712,3.324-5.581c1.053-1.931,1.871-3.854,2.646-5.906
				c-0.518-0.285-1.063-0.516-1.615-0.646c-1.74,2.314-3.414,4.685-5.268,6.915c-2.002,2.399-4.246,4.414-6.68,6.362
				c-0.248,0.269-0.504,0.533-0.76,0.797c-0.605-3.452-0.127-7.184-0.893-10.547c-0.578,0.078-1.592,0.168-2.25,0.496
				c-0.287,1.143-0.164,2.428-0.199,3.597c-0.039,1.212-0.088,2.422-0.096,3.635c-0.014,1.207,0.014,2.415,0.125,3.617
				c0.057,0.663,0.145,1.322,0.258,1.979c0.051,0.285,0.107,0.397-0.035,0.632c-0.596,1.022-1.732,1.838-2.615,2.594
				c-0.953,0.819-1.922,1.613-2.854,2.46c-3.625,3.292-7.457,6.337-11.496,9.104c-4.129,2.83-8.527,5.267-12.477,8.363
				c-0.775,0.721-1.537,1.462-2.275,2.232l-6.906,5.192l1.912-8.184c1.451-3.652,1.262-8.397,4.342-11.236
				c3.537-3.264,7.879-5.426,12.068-7.708c4.143-2.252,8.41-4.71,11.217-8.604c1.369-1.891,2.85-3.853,3.711-6.014
				c0.836-2.105,1.197-4.434,1.596-6.668c0.096-0.521,0.174-1.118,0.441-1.583c0.324-0.562,1.195-1.005,1.713-1.37
				c1.406-0.985,2.889-1.863,4.334-2.79c3.137-2.011,5.6-4.417,7.727-7.478c1.057-1.907,2.066-3.831,2.832-5.867
				c-0.178-0.122-1.574-0.051-1.736-0.189c-1.818,3.354-2.805,5.098-5.381,7.322c-2.605,2.244-5.66,3.888-8.201,6.213
				c0.461-1.469,0.953-2.929,1.391-4.409c0.045-0.135,0.088-0.271,0.137-0.411c1.383-4.992,2.535-10.129,2.844-15.314
				c-0.568-0.038-1.131-0.096-1.695-0.188c-0.514,2.488-1.324,4.901-2.07,7.326c-0.746,2.438-1.414,4.896-2.111,7.347
				c-0.773,3.33-1.658,6.645-2.609,9.93c-1.246-2.348-3.518-4.552-5.082-6.698c-2.045-4.152-3.434-8.504-3.713-13.148
				c-0.604,0.248-1.199,0.51-1.779,0.769c-0.482,4.375,0.244,8.766,2.371,12.627c2.023,3.667,4.809,6.828,7.002,10.379
				c-0.98,2.986-1.924,5.869-4.178,8.153c-2.188,2.219-4.395,4.343-7.021,5.958c-3.059,1.883-12.188,7.899-15.158,9.913
				c-1.414,0.957,3.863-13.264,14.004-27.364c-0.391-0.057-1.844-0.214-2.23-0.283c-1.594,1.972-2.873,4.175-4.486,6.135
				c-1.605,1.946-3.084,3.938-4.424,6.083c-0.406-1.632-1.08-3.195-1.627-4.785c-0.049-0.15-0.102-0.301-0.154-0.448
				c-0.377-1.006-0.787-1.994-1.348-2.881c-0.379,0.308-0.748,0.636-1.102,0.973c0.736,1.666,2.623,8.524,2.367,10.156
				c-0.008,0.034-0.021,0.057-0.031,0.085c0.002,0.021,0.01,0.044,0.018,0.069c-4.08,7.21-7.738,15.886-7.609,19.496
				c-2.084-2.148-4.977-3.597-6.551-6.202c-1.254-2.07-1.414-4.492-1.264-6.853c-0.455,0.014-0.912,0.005-1.369-0.018
				c-1.152,3.615-0.506,7.416,1.584,10.543c1.9,2.844,4.686,4.916,7.418,6.895c-1.563,6.755-4.486,13.213-8.584,18.811
				c-3.199,4.379-7.305,7.705-11.422,11.203c-1.754-10.955-0.287-22.016,1.152-32.992c0.672-5.16,1.719-9.291,3.643-14.138
				c0.936-2.357,1.805-4.862,2.932-7.188c-0.043,0.053-0.094,0.103-0.135,0.158c-2.635,3.255-4.424,7.063-6.004,10.925
				c-3.055,7.467-5.221,15.335-6.496,23.301c-1.758,10.958-2.105,22.027-2.139,33.101c0.656,8.817,0.5,17.665,0.416,26.502
				c-0.092,9.644,0.174,19.271,0.658,28.9c0.473,9.284,0.84,18.805,2.346,28.004c0.986,4.294,2.309,8.547,4.615,12.236
				c3.359,5.356,8.131,9.392,12.947,13.384c0.297,0.245,0.061,0.796-0.316,0.766c-6.924-0.524-14.471-0.498-20.764-3.844
				c-3.481-1.85-5.71-4.61-7.472-7.767c-0.822,3.944-1.191,7.947-0.688,12.038c0.057,0.434-0.503,0.531-0.766,0.316
				c-3.771-3.081-6.312-7.088-8.123-11.472c-9.711,8.513-22.856,13.051-34.757,18.465c0.797,0,1.602-0.074,2.368-0.137
				c2.059-0.163,4.111-0.427,6.156-0.718c4.458-0.636,8.921-1.355,13.23-2.706c3.611-1.131,7.106-2.624,10.444-4.405
				c0.979-0.522,1.935-1.073,2.892-1.625c0.496-0.285,0.84-0.721,1.138-0.118c0.021-0.013,0.042-0.025,0.067-0.036
				c0.262,0.601,0.755,1.144,1.155,1.653c0.702,0.898,1.436,1.776,2.183,2.641c1.45,1.671,2.945,3.22,4.65,4.629
				c0.964,0.797,1.928,1.591,2.91,2.369c0.33,0.261,0.659,0.521,1,0.768c0.305,0.221,0.376,0.386,0.549-0.028
				c0.656-1.599,0.053-3.454-0.135-5.09c-0.212-1.906-0.567-3.803-0.627-5.726c1.19,1.744,2.789,2.654,4.752,3.36
				c21.496,3.388,30.596,2.939,33.031,2.648c-1.424-1.35-5.84-5.415-6.143-5.591c-0.145,0.008-1.363-1.797-1.193-1.91
				c0.291-0.196,1.197-0.085,1.553-0.113c0.641-0.044,1.279-0.098,1.92-0.152c3.016-0.257,6.035-0.57,9.049-0.898
				c4.516-0.489,9.098-0.851,13.57-1.639c-0.355-0.546-1.791-0.796-2.357-0.982c-1.34-0.432-2.693-0.816-4.043-1.188
				c-3.381-0.931-6.781-1.781-10.184-2.614c-2.76-0.673-5.57-1.229-8.299-2.013c-3.432-0.983-6.23-3.169-7.918-6.317
				c-1.639-3.054-2.25-6.561-2.654-9.967c-0.533-4.519-0.873-9.061-1.375-13.582c-1.266-11.421-2.195-22.856-2.57-34.341
				c-0.184-5.619-0.514-11.247-0.596-16.867c-0.066-4.813,0.021-9.961,2.396-14.278c1.984-3.604,5.078-6.443,8.225-9.025
				c1.582-1.297,3.205-2.543,4.797-3.832c1.764-1.426,3.469-3.016,5.609-3.865c2.311-0.911,4.902-0.895,7.344-0.82
				c2.705,0.083,5.395,0.096,8.094,0.048c2.174-0.039,4.342-0.183,6.512-0.168c0.697,0.005,1.41,0.067,1.932-0.447
				c0.766-0.756,1.697-1.334,2.494-2.059c-3.533,0.2-7.063,0.563-10.6,0.716c-3.523,0.151-7.039-0.278-10.555-0.129
				c4.561-1.873,9.289-3.301,14.018-4.682c2.363-0.691,4.744-1.34,7.092-2.096c2.26-0.725,4.373-1.829,6.504-2.867
				c4.082,0.911,8.498,1.643,12.553,1.44c0.332-0.469,0.662-0.939,1.01-1.4c-2.285-0.691-5.426-1.88-8.346-2.339
				c4.818-1.99,9.621-3.982,14.385-6.102C262.492,130.636,261.895,129.581,261.164,128.612z"/>
			<path fill="#925F2D" d="M255.408,130.719C252.602,131.835,254.395,131.123,255.408,130.719L255.408,130.719z"/>
		</g>
		<defs>
			<filter id="Adobe_OpacityMaskFilter" filterUnits="userSpaceOnUse" x="153.412" y="157.356" width="18.342" height="108.446">
				<feFlood  style="flood-color:white;flood-opacity:1" result="back"/>
				<feBlend  in="SourceGraphic" in2="back" mode="normal"/>
			</filter>
		</defs>
		<mask maskUnits="userSpaceOnUse" x="153.412" y="157.356" width="18.342" height="108.446" id="SVGID_1_">
			<g filter="url(#Adobe_OpacityMaskFilter)">
				<defs>
					
						<filter id="Adobe_OpacityMaskFilter_1_" filterUnits="userSpaceOnUse" x="153.412" y="157.356" width="18.342" height="108.446">
						<feFlood  style="flood-color:white;flood-opacity:1" result="back"/>
						<feBlend  in="SourceGraphic" in2="back" mode="normal"/>
					</filter>
				</defs>
				<mask maskUnits="userSpaceOnUse" x="153.412" y="157.356" width="18.342" height="108.446" id="SVGID_1_">
					<g filter="url(#Adobe_OpacityMaskFilter_1_)">
					</g>
				</mask>
				<radialGradient id="SVGID_2_" cx="104.1436" cy="210.1221" r="81.4545" gradientUnits="userSpaceOnUse">
					<stop  offset="0.0022" style="stop-color:#FFFFFF"/>
					<stop  offset="0.163" style="stop-color:#D2D2D2"/>
					<stop  offset="0.5793" style="stop-color:#626262"/>
					<stop  offset="0.8669" style="stop-color:#1C1C1C"/>
					<stop  offset="1" style="stop-color:#000000"/>
				</radialGradient>
				<path mask="url(#SVGID_1_)" fill="url(#SVGID_2_)" d="M157.201,157.356c0,0,5.539,3.208,6.415,15.743
					c0.875,12.535-2.917,65.593-2.917,65.593s-4.955,23.902-7.287,27.11c0,0,14.868-6.704,16.324-32.942
					C171.196,206.625,177.316,167.56,157.201,157.356z"/>
			</g>
		</mask>
		<radialGradient id="SVGID_3_" cx="104.1436" cy="210.1221" r="81.4545" gradientUnits="userSpaceOnUse">
			<stop  offset="0.0022" style="stop-color:#FFFFFF"/>
			<stop  offset="1" style="stop-color:#FFFFFF"/>
		</radialGradient>
		<path fill="url(#SVGID_3_)" d="M157.201,157.356c0,0,5.539,3.208,6.415,15.743c0.875,12.535-2.917,65.593-2.917,65.593
			s-4.955,23.902-7.287,27.11c0,0,14.868-6.704,16.324-32.942C171.196,206.625,177.316,167.56,157.201,157.356z"/>
		<defs>
			<filter id="Adobe_OpacityMaskFilter_2_" filterUnits="userSpaceOnUse" x="147.727" y="83.457" width="20.179" height="62.385">
				<feFlood  style="flood-color:white;flood-opacity:1" result="back"/>
				<feBlend  in="SourceGraphic" in2="back" mode="normal"/>
			</filter>
		</defs>
		<mask maskUnits="userSpaceOnUse" x="147.727" y="83.457" width="20.179" height="62.385" id="SVGID_4_">
			<g filter="url(#Adobe_OpacityMaskFilter_2_)">
				<defs>
					<filter id="Adobe_OpacityMaskFilter_3_" filterUnits="userSpaceOnUse" x="147.727" y="83.457" width="20.179" height="62.385">
						<feFlood  style="flood-color:white;flood-opacity:1" result="back"/>
						<feBlend  in="SourceGraphic" in2="back" mode="normal"/>
					</filter>
				</defs>
				<mask maskUnits="userSpaceOnUse" x="147.727" y="83.457" width="20.179" height="62.385" id="SVGID_4_">
					<g filter="url(#Adobe_OpacityMaskFilter_3_)">
					</g>
				</mask>
				<radialGradient id="SVGID_5_" cx="123.8232" cy="127.4756" r="55.1121" gradientUnits="userSpaceOnUse">
					<stop  offset="0.0022" style="stop-color:#FFFFFF"/>
					<stop  offset="0.163" style="stop-color:#D2D2D2"/>
					<stop  offset="0.5793" style="stop-color:#626262"/>
					<stop  offset="0.8669" style="stop-color:#1C1C1C"/>
					<stop  offset="1" style="stop-color:#000000"/>
				</radialGradient>
				<path mask="url(#SVGID_4_)" fill="url(#SVGID_5_)" d="M147.727,83.457c0,0,6.851,6.56,10.93,18.656
					c4.083,12.1,6.854,30.174,6.854,43.729c0,0,3.498-9.038,2.038-23.467C166.093,107.943,159.536,86.083,147.727,83.457z"/>
			</g>
		</mask>
		<radialGradient id="SVGID_6_" cx="123.8232" cy="127.4756" r="55.1121" gradientUnits="userSpaceOnUse">
			<stop  offset="0.0022" style="stop-color:#FFFFFF"/>
			<stop  offset="1" style="stop-color:#FFFFFF"/>
		</radialGradient>
		<path fill="url(#SVGID_6_)" d="M147.727,83.457c0,0,6.851,6.56,10.93,18.656c4.083,12.1,6.854,30.174,6.854,43.729
			c0,0,3.498-9.038,2.038-23.467C166.093,107.943,159.536,86.083,147.727,83.457z"/>
	</g>
	<path fill="#91D0F4" d="M99.779,120.951c1.124,0.314,2.265,0.277,3.402,0.245c0.57-0.071,1.099-0.218,1.527-0.51
		c1.942-1.326-1.35-1.473-2.226-1.543c-0.663-0.055-1.521-0.011-2.137-0.312c-0.847-0.417-1.535-1.06-2.368-1.483
		c-0.939-0.477-1.889-0.619-2.877-0.927c-1.103-0.342-2.432-0.826-3.013-1.919c-0.684-1.285-0.702-3.193-1.287-4.513
		c-0.248-0.16-0.51-0.3-0.794-0.367c-0.748-0.179-2.856-0.331-3.076,0.859c-0.124,0.675-0.035,1.372-0.071,2.056
		c-0.057,1.124-0.794,2.182-1.96,2.329c-1.13,0.147-2.761-0.313-3.768,0.333c-0.248,0.162-0.46,0.351-0.655,0.553
		c-0.386,0.953-0.5,1.965,0.124,2.73c1.364,1.69,3.696,3.011,5.951,2.222c0.765-0.268,1.527-0.4,2.296-0.454
		c0.719-0.287,1.436-0.56,2.137-0.75c1.127-0.301,2.346-0.569,3.519-0.384C96.401,119.412,97.957,120.448,99.779,120.951z"/>
	<path fill="#91D0F4" d="M124.885,129.619c0.921,1.434-0.298,2.238-1.613,2.49c-1.761,0.338-3.367-0.427-5.054-0.81
		c-2.137-0.484-4.476-0.31-6.539,0.438c-2.314,0.837-4.267,2.449-6.677,3.059c-2.173,0.548-4.196,0.218-6.397,0.165
		c-0.712-0.016-1.432-0.092-2.141-0.046c-0.896,0.06-3.2,1.136-1.46,2.117c2.52,1.418,6.294,0.36,8.875-0.361
		c2.367-0.665,4.742-1.476,7.184-1.837c2.279-0.337,4.334,1.508,6.561,0.989c4.313-1.003,7.896-0.324,12.135-0.776
		c0.95-0.103,2.081-0.333,2.864-0.911c2.478-1.825-0.394-2.77-1.421-2.966c-0.765-0.146-2.271-0.307-2.704-1.131
		c-0.659-1.263-0.801-2.614-2.215-3.351c-1.216-0.631-2.438-1.068-3.821-1.148c-1.864-0.108-3.824,0.092-5.575-0.673
		c-1.694-0.737-3.296-1.684-5.213-1.478c-1.5,0.074-1.272,1.327-0.369,2.029c1.155,0.895,2.778,0.907,4.161,1.134
		c2.641,0.436,6.635,0.53,8.765,2.335C124.488,129.104,124.719,129.354,124.885,129.619z"/>
	<path fill="#91D0F4" d="M217.969,61.876c-0.025-0.088-0.057-0.17-0.094-0.253c-2.26-5.135-8.359,6.939-8.959,8.694
		c-1.471,4.295-4.994,6.532-7.309,10.198c-2.229,3.528-7.311,6.038-10.713,8.437c-2.379,1.678-5.111,3.053-6.539,5.668
		c-0.613,1.118-1.041,2.357-1.52,3.534c-0.76,1.882-1.949,3.433-2.793,5.252c-0.457,0.996-1.74,3.645,0.021,4.354
		c1.367,0.551,2.93-0.238,3.691-1.421c1.986-3.101,3.232-6.501,4.912-9.768c0.678-1.326,3.287-2.745,4.568-3.617
		c1.479-1.235,3.191-1.955,5.133-2.164c0.752-0.036,1.436,0.307,2.215,0.149c2.602-0.526,5.061-3.987,6.561-5.893
		c2.098-2.663,1.436-6.163,3.695-8.642c2.244-2.459,3.783-3.711,4.914-6.939C216.426,67.536,218.662,64.091,217.969,61.876z"/>
	<path fill="#91D0F4" d="M262.531,113.338c-4.643,1.663-9.568,2.126-14.428,2.733c-3.342,0.416-6.496,1.972-9.885,2.234
		c-5.645,0.432-1.201-3.369,0.631-5.213c1.561-1.574,5.16-3.631,5.455-6.094c0.025-0.22-0.057-0.535-0.305-0.599
		c-3.398-0.877-6.592,3.461-9.092,5.921c-2.09,1.186-4.092,2.474-6.123,3.803c-1.68,1.101-3.141,2.429-4.906,3.406
		c-1.436,0.796-3.15,1.129-4.539,1.996c-2.549,1.593-11.477,6.135-10.033,10.131c1.02,2.84,11.496-5.037,12-5.274
		c4.348-2.043,9.281-2.095,13.984-2.348c4.686-0.255,8.943-1.134,13.486-2.238c6.314-1.535,13.305-0.447,18.348-5.41
		C270.92,112.646,265.084,112.428,262.531,113.338z"/>
	<path fill="#91D0F4" d="M169.201,152.751c-0.326-1.855-0.925-3.629-0.893-5.541c0.011-0.606,0.34-1.921-0.018-2.424
		c-0.315-0.445-0.578-0.909-0.819-1.384c0.245-2.073-0.755-4.626-1.325-6.298c-0.433-1.262-0.507-6.251-2.871-5.683
		c-0.46,0.11-0.829,0.597-1.021,1.006c-0.251,0.524-0.464,1.058-0.684,1.595c-0.595,1.476-0.641,1.118-1.825,0.954
		c-1.684-0.234-3.119-0.826-4.728-1.272c-0.808-0.225-1.644,0.136-2.197,0.73c-1.556,1.682,1.18,3.688,2.063,4.742
		c0.308,0.367,0.645,0.691,0.992,0.989c1.74,3.222,5.522,5.763,7.563,8.625c2.602,3.645,1.014,8.752,4.37,12.141
		c0.121,0.124,0.33,0.101,0.471,0.035C170.725,159.823,169.548,154.72,169.201,152.751z"/>
	<path fill="#91D0F4" d="M212.73,141.468c-4.254,0.946-8.432,5.467-12.348,7.255c-3.867,1.76-10.934,6.34-11.098,3.152
		c-1.975-2.764-0.949-6.629-2.07-9.849c-0.598-1.719-0.689-5.628-2.398-6.748c-0.457-0.303-0.9-0.204-1.348,0.089
		c-1.115,0.733-1.572,1.887-1.854,3.161c-0.488,2.219,0.5,5.143,0.434,7.448c-0.174,6.23-2.045,12.245-2.863,18.389
		c-0.438,3.268-0.674,6.475-0.518,9.773c0.074,1.556-0.434,7.581,1.723,8.025c2.682,0.55,3.42-5.869,3.766-7.432
		c0.916-4.164,2.252-8.479,4.951-11.867c2.697-3.381,6.674-5.378,10.006-8.022c3.838-3.042,8.201-5.188,12.621-7.226
		c1.541-0.709,4.182-1.574,5.104-3.089C218.578,141.649,214.938,140.976,212.73,141.468z"/>
	<path fill="#91D0F4" d="M138.877,108.026c-3.75-3.512-2.669-7.271-2.676-11.795c-0.003-1.666-0.064-4.983-2.102-5.495
		c-0.454-0.113-0.875,0.131-1.117,0.518c-0.578,0.934-0.861,1.792-1.088,2.892c-0.028,1.349-0.783,2.238-2.261,2.67
		c-0.138-0.328-1.8-2.254-1.903-2.369c-0.843-0.941-3.02-1.308-4.15-1.891c-1.045-0.539-2.265-1.868-3.573-1.604
		c-4.806,0.973-0.425,5.583,2.577,7.638c3.123,3.136,8.248,4.839,11.44,8.042c2.963,2.97,5.547,6.275,8.354,9.379
		c1.574,1.74,2.382,5.963,4.409,7.094c0.291,0.163,0.613-0.245,0.655-0.484C148.609,116.162,142.96,111.854,138.877,108.026z"/>
	<path opacity="0.6" fill="#FFFFFF" d="M216.873,62.069c-0.035-0.347-0.451-0.457-0.727-0.305c-0.1,0.058-0.199,0.129-0.297,0.193
		c-0.012-0.005-0.021-0.012-0.047-0.009c-1.561,0.208-2.676,1.978-3.42,3.199c-1.854,3.044-3.123,6.369-5.021,9.36
		c-2.24,3.534-5.438,6.929-8.109,10.179c-2.154,2.626-6.67,2.986-9.049,5.667c-0.166,0.191-0.209,0.681,0.182,0.583
		c1.51-0.375,2.717-1.338,4.264-1.777c2.158-0.613,4.455-0.522,6.645-0.971c1.988-0.407,3.793-2.603,4.207-4.531
		c0.771-3.564,2.168-6.403,4.486-9.256c0.473-0.581,1.004-1.134,1.521-1.699c0.119-0.064,0.232-0.144,0.322-0.25
		c0.254-0.294,0.479-0.609,0.688-0.936c0.195-0.251,0.393-0.507,0.563-0.776C214.625,68.291,217.199,65.181,216.873,62.069z"/>
	<path opacity="0.6" fill="#FFFFFF" d="M184.107,98.28c-0.609,0.475-0.945,1.26-1.258,1.942c-0.107,0.234-0.234,0.51-0.344,0.805
		c-0.387,0.657-0.77,1.462-0.73,2.08c0.061,0.938,0.91,1.042,1.574,0.576c0.711-0.503,1.102-1.583,1.449-2.335
		c0.223-0.48,0.293-1.003,0.492-1.487c0.146-0.346,0.283-0.783,0.248-1.159C185.455,97.895,184.652,97.858,184.107,98.28z"/>
	<path opacity="0.6" fill="#FFFFFF" d="M127.947,96.5c-1.109-1.019-2.254-1.935-3.523-2.743c-0.716-0.456-1.467-0.916-2.165-1.391
		c-0.266-0.179-0.819-0.764-1.152-0.863c-0.822-0.239-1.304,0.108-1.499,0.641c-0.733,0.909,0.185,2.759,1.088,3.741
		c1.176,1.277,2.651,2.58,4.182,3.418c1.216,0.668,2.811,2.054,4.253,2.064c0.319,0,0.542-0.225,0.67-0.496
		C130.276,99.867,128.578,97.08,127.947,96.5z"/>
	<path opacity="0.6" fill="#FFFFFF" d="M133.228,98.653c-1.198,0.241-1.389,2.316-0.645,3.082c0.146,0.147,0.379,0.162,0.578,0.11
		c0.11,0.072,0.23,0.122,0.383,0.094c0.503-0.085,0.833-0.528,0.84-1.022C134.394,100.213,134.313,98.434,133.228,98.653z"/>
	<path opacity="0.6" fill="#FFFFFF" d="M116.695,131.516c-1.173-0.129-2.389,0.041-3.477,0.5c-0.545,0.051-1.081,0.149-1.577,0.383
		c-0.379,0.175-0.932,1.229-0.152,1.226c1.815-0.005,3.484,0.709,5.274,0.762c0.854,0.026,2.612,0.073,2.516-1.274
		C119.208,132.08,117.545,131.61,116.695,131.516z"/>
	<path opacity="0.6" fill="#FFFFFF" d="M129.234,131.755c-0.227-0.083-0.493-0.106-0.73-0.103c-0.319,0.002-0.574,0.154-0.879,0.202
		c-0.042,0.005-0.078,0.024-0.121,0.034c-0.684-0.123-1.4-0.03-1.659,0.682c-0.156,0.431,0.202,0.728,0.592,0.795
		c0.276,0.046,0.546,0.027,0.822,0.021c0.301-0.007,0.603,0.064,0.9,0.096c0.482,0.051,1-0.131,1.297-0.519
		C129.794,132.525,129.815,131.972,129.234,131.755z"/>
	<path opacity="0.6" fill="#FFFFFF" d="M88.147,116.029c-0.883-0.925-3.679-1.574-4.771-0.427c-0.812,0.28-1.503,0.881-1.602,1.667
		c-0.117,0.967,0.794,1.498,1.396,2.057c0.791,0.737,1.995,0.725,2.974,0.523c0.928-0.191,1.79-0.509,2.211-1.436
		C88.767,117.505,88.877,116.794,88.147,116.029z"/>
	<g opacity="0.6">
		<path fill="#FFFFFF" d="M89.944,111.498c-0.025-0.206-0.135-0.509-0.301-0.649c-0.422-0.354-1.045-0.375-1.475-0.005
			c-0.319,0.278-0.617,0.652-0.549,1.106c0.025,0.181,0.121,0.296,0.238,0.381c0.018,0.456,0.173,0.92,0.56,1.14
			c0.851,0.48,1.539-0.782,1.539-1.457c0-0.061,0-0.103-0.004-0.138C89.958,111.749,89.958,111.623,89.944,111.498z"/>
		<path fill="#FFFFFF" d="M89.951,111.875c0,0.018,0.007,0.034,0.004,0.051C89.951,111.772,89.951,111.758,89.951,111.875z"/>
	</g>
	<path opacity="0.6" fill="#FFFFFF" d="M162.573,142.136c0-0.001,0-0.005,0-0.007c-0.361-0.819-0.464-1.375-0.471-2.281
		c-0.007-1.122-0.521-2.096-1.212-2.949c-0.447-0.553-1.652-0.604-2.247-0.863c-0.744-0.319-1.563-1.331-2.488-1.08
		c-1.145,0.314-2.271,1.772-1.244,2.835c0.177,0.183,0.393,0.349,0.62,0.512c0.057,0.129,0.121,0.257,0.184,0.361
		c1.436,2.229,3.495,3.832,5.196,5.814c0.259,0.305,0.524,0.666,0.801,1.052c0.531,0.743,2.789,4.297,3.859,2.873
		C166.61,147.034,164.675,144.378,162.573,142.136z"/>
	<path opacity="0.6" fill="#FFFFFF" d="M184.799,148.239c-0.17-0.257-0.395-0.351-0.705-0.296c-1.482,0.26-1.6,1.788-1.691,3.057
		c-0.127,1.728-0.479,3.5-0.766,5.265c-2.293,5.375-2.281,12.36-1.576,17.634c0.014,0.069,0.057,0.14,0.127,0.163
		c0.113,0.042,0.227,0.08,0.336,0.119c0.129,0.044,0.277-0.02,0.363-0.119c0.994-1.181,0.945-2.885,1.223-4.331
		c0.711-3.659,1.346-6.805,3.277-10.078C187.08,156.786,186.621,150.92,184.799,148.239z"/>
	<path opacity="0.6" fill="#FFFFFF" d="M233.893,115.591c-0.113-0.209-0.342-0.336-0.707-0.282
		c-0.023,0.002-0.041,0.012-0.066,0.016c-0.117,0.001-0.234,0.03-0.361,0.092c-1.1,0.271-1.992,0.89-2.719,1.785
		c-1.555,0.934-3.193,1.742-4.838,2.472c-1.527,0.677-2.963,1.329-4.338,2.027c-0.209,0.085-0.41,0.168-0.584,0.245
		c-2.514,1.101-8.627,3.627-9.049,6.737c-0.053,0.365,0.16,0.599,0.496,0.665c0.84,0.158,1.637-0.283,2.23-0.87
		c3.334-3.303,7.814-5.104,12.332-6.191c1.602-0.386,3.34-0.733,4.406-2.141c0.967-1.279,3.25-2.583,3.307-4.297
		C234.006,115.738,233.971,115.651,233.893,115.591z"/>
	<path opacity="0.6" fill="#FFFFFF" d="M122.5,272.049c-5.277-0.792-11.019-5.555-15.941-2.142
		c-2.789,0.852-5.178,2.276-2.279,5.218c2.215,2.251,8.279,1.731,11.064,1.562c3.541-0.214,7.234,1.477,10.781,0.241
		C132.388,274.748,126.239,272.612,122.5,272.049z"/>
	<path opacity="0.6" fill="#FFFFFF" d="M118.467,284.72c-2.257-0.922-5.72-2.377-8.222-1.872c-1.748,0.354-1.496,1.601-0.72,2.554
		c0.447,0.685,1.365,1.292,1.857,1.575c2.311,1.326,5.256,2.963,7.963,1.987C121.986,288.009,120.221,285.436,118.467,284.72z"/>
	<path opacity="0.6" fill="#FFFFFF" d="M212.383,255.987c-1.174-0.387-2.34-0.465-3.523-0.45c-0.867-0.074-1.902-0.015-2.871,0.131
		c-0.588,0.057-1.223,0.165-1.768,0.394c-0.604,0.185-1.074,0.404-1.287,0.635c-1.305,1.408-0.309,2.853,0.805,3.966
		c1.379,1.382,4.068,1.292,5.834,1.111c1.627-0.165,4.1-0.985,4.607-2.771C214.625,257.419,213.885,256.479,212.383,255.987z"/>
	<path opacity="0.6" fill="#FFFFFF" d="M241.873,266.627c-0.309-0.687-1.127-0.737-1.719-0.439c-0.719,0-1.445,0.175-1.549,0.981
		c-0.061,0.482,0.414,0.733,0.805,0.844c0.244,0.068,0.496,0.109,0.752,0.127c0.109,0.011,0.219,0.011,0.328,0.006
		c0.09-0.006,0.178-0.011,0.264-0.018c-0.217,0.021-0.09,0.011-0.039,0.009C241.398,268.103,242.199,267.36,241.873,266.627z"/>
</g>
</svg>
