<?xml version="1.0" encoding="utf-8"?>
<!-- Generator: Adobe Illustrator 16.0.0, SVG Export Plug-In . SVG Version: 6.00 Build 0)  -->
<!DOCTYPE svg PUBLIC "-//W3C//DTD SVG 1.1//EN" "http://www.w3.org/Graphics/SVG/1.1/DTD/svg11.dtd">
<svg version="1.1" id="Layer_1" xmlns="http://www.w3.org/2000/svg" xmlns:xlink="http://www.w3.org/1999/xlink" x="0px" y="0px"
	 width="350px" height="350px" viewBox="0 0 350 350" enable-background="new 0 0 350 350" xml:space="preserve">
<g>
	<path fill="#C6CC38" d="M267.031,144.097c0,50.826-41.205,92.03-92.032,92.03c-50.825,0-92.03-41.204-92.03-92.03
		c0-50.827,41.205-92.03,92.03-92.03C225.826,52.067,267.031,93.27,267.031,144.097"/>
	<path fill="#B5BC2A" d="M229.08,132.712c0,38.252-31.01,69.259-69.259,69.259c-38.252,0-69.261-31.007-69.261-69.259
		s31.009-69.26,69.261-69.26C198.07,63.453,229.08,94.46,229.08,132.712"/>
	<path fill="#9EB121" d="M232.453,125.075c0,11.427-9.264,20.691-20.689,20.691c-11.428,0-20.689-9.265-20.689-20.691
		c0-11.426,9.262-20.689,20.689-20.689C223.189,104.386,232.453,113.649,232.453,125.075"/>
	<path fill="#9EB121" d="M243.758,159.654c0,8.49-6.883,15.372-15.369,15.372c-8.49,0-15.371-6.881-15.371-15.372
		c0-8.488,6.881-15.371,15.371-15.371C236.875,144.284,243.758,151.167,243.758,159.654"/>
	<path fill="#9EB121" d="M233.785,194.233c0,8.488-6.883,15.37-15.371,15.37s-15.369-6.882-15.369-15.37
		c0-8.489,6.881-15.372,15.369-15.372S233.785,185.744,233.785,194.233"/>
	<path fill="#9EB121" d="M147.339,172.289c0,8.489-6.882,15.37-15.37,15.37c-8.489,0-15.371-6.881-15.371-15.37
		s6.882-15.37,15.371-15.37C140.458,156.919,147.339,163.8,147.339,172.289"/>
	<path fill="#9EB121" d="M149.334,138.376c0,8.488-6.882,15.369-15.37,15.369c-8.49,0-15.371-6.881-15.371-15.369
		c0-8.49,6.881-15.371,15.371-15.371C142.453,123.005,149.334,129.886,149.334,138.376"/>
	<path fill="#9EB121" d="M185.242,103.134c0,8.488-6.883,15.368-15.37,15.368c-8.489,0-15.371-6.88-15.371-15.368
		c0-8.49,6.882-15.371,15.371-15.371C178.359,87.763,185.242,94.644,185.242,103.134"/>
	<polygon fill="#432416" points="211.973,165.46 230.068,168.443 215.951,162.877 237.227,150.547 174.281,172.293 172.946,152.491 
		220.127,129.668 199.248,135.238 198.852,124.896 197.063,135.833 172.429,144.839 169.621,103.222 165.189,154.959 
		141.783,144.185 140.391,134.242 139.793,143.587 123.688,137.424 164.556,162.368 161.926,193.081 139.198,180.771 
		134.424,162.279 134.424,178.385 119.512,173.018 161.219,201.336 152.239,297.933 182.744,297.691 177.438,219.074 
		226.887,192.702 214.361,196.134 213.766,183.753 211.377,196.879 176.777,209.272 175.182,185.647 	"/>
</g>
</svg>
