<?xml version="1.0" encoding="utf-8"?>
<!-- Generator: Adobe Illustrator 16.0.0, SVG Export Plug-In . SVG Version: 6.00 Build 0)  -->
<!DOCTYPE svg PUBLIC "-//W3C//DTD SVG 1.1//EN" "http://www.w3.org/Graphics/SVG/1.1/DTD/svg11.dtd">
<svg version="1.1" id="Layer_1" xmlns="http://www.w3.org/2000/svg" xmlns:xlink="http://www.w3.org/1999/xlink" x="0px" y="0px"
	 width="350px" height="350px" viewBox="0 0 350 350" enable-background="new 0 0 350 350" xml:space="preserve">
<g>
	<g>
		<path fill="#65B345" d="M326.278,206.42c-1.328-1.661-3.78-3.207-5.834-3.042c0.732-1.126,1.18-2.417,1.18-3.818
			c-1.059,0-2.241,0.379-3.005,0.774c-0.327-0.376-0.684-0.705-1.067-0.993c1.154-2.672,0.253-5.63-3.525-7.867
			c-1.218,1.217-3.054,3.919-3.226,6.173c-1.147,0.016-2.383,0.113-3.704,0.272c1.451-1.886,1.678-4.998,1.337-8.273
			c1.756-0.341,3.22-1.134,3.634-2.584c-0.518-0.345-1.098-0.842-1.694-1.31c0.602-0.407,1.171-0.862,1.694-1.386
			c-0.49-0.49-1.226-1.226-1.961-1.469l-1.431,1.768c-0.397-0.167-0.787-0.242-1.152-0.173c-0.049-0.208-0.099-0.412-0.151-0.617
			c3.014-1.211,5.273-3.351,1.51-5.39c-1.377-0.688-2.322-1.161-3.242-0.214c-0.032-0.074-0.063-0.148-0.094-0.222
			c2.083-1.217,3.783-3.154,5.051-5.689c-2.163,0-6.18-1.193-8.643-0.167c-0.057-0.068-0.114-0.135-0.172-0.203
			c1.573-1.853,2.153-4.397,0.974-7.227c-0.84,0-2.217,0.359-3.057,0.616c1.798-1.744,3.481-3.669,5.263-5.272
			c-2.384-0.993-11.848-0.859-14.307,1.836c0.362-2.524-0.009-5.191-1.132-7.717c-1.777,0.647-6.324,4.169-7.459,7.057
			c-0.207-0.04-0.415-0.077-0.623-0.112c-0.046-0.37-0.102-0.757-0.177-1.135l0.908,0.807c1.226-2.695,1.715-6.616-1.716-7.596
			c0,1.458-0.271,2.78-0.409,4.169c-1.896-2.34-3.407,0.054-3.876,3.427c-1.729,0.075-3.417,0.329-5.042,0.749
			c-0.33-2.095-1.5-3.818-4.148-4.18c-1.492,1.326-2.312,4.557-1.473,6.434c-1.814,1.016-3.486,2.27-4.969,3.732
			c-0.183-0.779-0.491-1.548-0.897-2.281c2.997-2.285,4.988-7.903,1.947-10.335c-0.611,1.221-5.274,4.806-5.016,6.83
			c-1.182-0.885-2.502-1.498-3.806-1.684c-0.65,3.905-2.261,11.843,1.801,14.292c-1.608,0.099-3.145,0.377-5.23,0.655
			c0.78,2.495,2.353,4.395,4.595,5.193c-0.303,1.675-0.446,3.43-0.412,5.255c-1.682-0.08-2.91-0.474-3.813-1.099
			c0.274-1.259,0.117-2.657-0.615-4.204v-0.245c-0.475-0.118-1.118-0.121-1.742-0.066c-0.255-1.703-0.246-3.619-0.364-5.492
			c-0.09-0.852-0.211-1.631-0.356-2.354c3.498-3.206,5.523-7.893,1.237-10.955c-1.027,0.733-3.104,1.905-4.19,3.253
			c-0.191-0.399-0.385-0.81-0.579-1.236c0.911-1.725,1.269-3.729,0.788-5.509c0.959-0.715,1.812-1.584,2.511-2.634
			c-1.512-1.512-3.302-2.742-5.316-3.407c0.77-1.486,1.431-3.207,2.131-5.169c-2.05-0.158-4.406,0.599-6.28,1.813
			c0.77-3.304,0.006-6.782-3.031-8.919c-1.529,1.532-4.477,5.306-4.908,8.373c-0.703,0.062-1.413,0.14-2.11,0.199
			c-0.915-2.487-3.213-4.52-6.212-4.895c0,1.696,0.938,3.392,2.167,4.682c-0.483-0.151-0.932-0.371-1.331-0.682
			c-1.242-0.871-2.203-2.546-3.112-4.467c2.292-1.584,4.137-3.754,5.216-6.394c-1.729-0.577-5.572-0.248-7.738,0.985
			c-0.43-0.811-0.89-1.575-1.396-2.25c2.086-2.518,3.157-5.739,2.272-9.026c-1.955,1.564-6.722,1.724-8.564,3.969
			c-0.502-0.275-1.011-0.53-1.53-0.761c0.553-1.36,0.668-2.949,0.205-4.801c-1.184,0.789-2.417,2.338-2.688,3.898
			c-0.477-0.136-0.959-0.255-1.452-0.354c0.293-1.693,0.043-3.401-1.007-4.768c-1.224-1.715-4.041-3.553-6.002-3.92
			c0.167,0.917-0.177,5.922,0.708,8.367c-0.874,0.061-1.736,0.158-2.587,0.292c-0.341-1.362-1.412-2.582-3.511-3.76
			c-1.185,1.578-0.938,3.236,0.035,4.525c-0.742,0.212-1.473,0.454-2.192,0.725c0.358-2.297-0.236-4.741-2.007-6.72
			c-3.198,1.658-6.623,6.749-4.636,10.295c-0.308,0.222-0.611,0.45-0.911,0.686c-0.447-1.482-1.438-2.699-3.151-3.141
			c-0.278,1.664-0.555,4.232,0.746,5.236c-0.206,0.199-0.41,0.401-0.61,0.605c-0.888-3.382-4.78-5.452-8.955-4.617
			c-0.245,2.328,0.734,5.88,2.94,7.105c0.794,0.371,1.613,0.398,2.435,0.289c-0.029,0.25-0.038,0.517-0.026,0.789
			c-0.049,0.281-0.036,0.593,0.019,0.899c-0.092,0.14-0.185,0.279-0.275,0.418c-0.861-0.665-2.042-0.984-3.623-0.804
			c-0.117,1.873,0.549,2.963,1.571,4.339c-0.067,0.126-0.134,0.253-0.2,0.379c-1.047-0.534-2.477-0.594-4.311-0.186
			c-0.113,2.808,1.423,2.32,3,2.786c-0.272,0.558-0.544,1.114-0.815,1.67c-0.952-1.231-2.187-2.183-3.655-2.619
			c-0.768,2.084-1.24,6.032,0.078,8.243c-0.603-0.251-1.244-0.433-1.885-0.539l-0.07-0.351c-0.117,0.088-0.229,0.186-0.337,0.293
			c-0.185-0.021-0.368-0.036-0.549-0.044c-0.041-0.704-0.134-1.389-0.28-2.056c0.62-1.453,0.748-3.146,0.226-4.934
			c-0.71,0.088-1.55,0.05-2.238,0.208c-0.235-0.358-0.484-0.709-0.75-1.052c1.782-2.649,2.411-6.097,0.17-8.588
			c-0.643,0.722-3.023,2.92-4,4.83c-0.124-0.094-0.25-0.188-0.375-0.282c0.575-1.015,0.859-2.161,0.699-3.446
			c-0.998-0.25-2.5,0.122-3.441,0.921c1.117-1.994,1.374-4.436,1.114-7.291c-2.32,0.192-5.555,1.912-6.817,4.314
			c-0.455-2.881-2.218-5.69-4.577-7.132c-0.669,1.257-1.625,4.575-1.106,6.744c-0.106-0.021-0.213-0.04-0.32-0.06
			c-0.414-1.074-1.067-1.948-1.992-2.41c0.363-1.071,0.561-2.189,0.561-3.294c-1.377,0-3.917-0.078-6.095,0.313
			c0.563-1.056,1.017-2.168,1.318-3.316c0.252-0.965,0.391-1.982,0.325-2.979c-0.06-0.883-0.287-1.897-0.92-2.557
			c0.106-0.158,0.092-0.396-0.145-0.438c-1.613-0.289-3.269,0.449-4.667,1.207c-1.54,0.835-2.924,1.97-4.117,3.247
			c-1.133,1.212-2.101,2.623-2.8,4.128c-0.254,0.547-0.49,1.121-0.678,1.702c-0.229-1.281-0.721-2.518-1.367-3.644
			c-0.65-1.132-1.504-2.168-2.512-2.999c-0.898-0.741-2.041-1.499-3.224-1.639c0.001-0.047-0.046-0.094-0.103-0.066
			c-0.03,0.015-0.056,0.033-0.085,0.048h-0.003c-0.12-0.008-0.2,0.065-0.233,0.159c-0.277,0.227-0.461,0.521-0.591,0.847
			c-0.003,0.004-0.006,0.008-0.007,0.012c-0.255,0.467-0.353,1.012-0.399,1.536c-0.008,0.099-0.014,0.199-0.019,0.298
			c-0.176,1.137-0.203,2.265-0.053,3.421c0.17,1.309,0.581,2.558,1.1,3.767c0.321,0.75,0.688,1.515,1.129,2.224
			c0.062,0.152,0.128,0.301,0.199,0.443c0.013,0.033,0.024,0.065,0.037,0.1c-0.836-0.036-1.68,0.053-2.484,0.27
			c-0.515,0.139-1.014,0.336-1.497,0.561c-0.418,0.194-1.038,0.513-1.259,0.945c-0.114,0.038-0.208,0.126-0.238,0.271
			c-0.23,1.115,0.43,2.229,1.158,3.021c0.532,0.578,1.161,1.076,1.837,1.494c-0.282,0.054-0.563,0.135-0.832,0.225
			c-0.875,0.291-1.668,0.758-2.394,1.321c-0.715,0.554-1.325,1.244-1.815,2.003c-0.297,0.46-0.682,1.171-0.676,1.796
			c-0.538,0.413,0.128,1.274,0.493,1.65c0.533,0.552,1.235,1.02,1.929,1.347c0.854,0.403,1.789,0.702,2.742,0.859
			c-0.063,0.153-0.127,0.308-0.188,0.463c-2.013-0.194-2.981,1.014-4.187,2.459c0.228,1.439,1.25,2.596,2.548,3.329
			c-0.117,0.676-0.208,1.354-0.271,2.032c-0.698-0.762-1.553-1.426-2.277-2.053c-0.545,0.409-1.43,1.349-1.941,2.292
			c-0.598-0.613-1.212-1.232-1.844-1.852c1.294-1.588,1.002-3.639,1.09-6.197c-0.689-0.05-1.793,0.198-2.854,0.632
			c0.215-0.816,0.334-1.689,0.404-2.592c-0.852-0.355-2.695-0.422-4.164-0.104c1.002-2.492,0.794-5.656-0.368-7.98
			c-1.826,0.146-4.347,1.814-5.878,3.839c-0.159-3.681-1.994-7.592-5.27-9.23c-1.768,2.992-2.554,5.795-2.59,8.745
			c-0.43-0.108-0.862-0.203-1.296-0.283c-0.354-1.714-1.24-3.373-2.239-4.665c-1.045,0.941-3.791,2.778-4.187,4.591
			c-0.236,0.041-0.473,0.088-0.711,0.14c-1.251-3.21-4.089-6.29-6.372-7.549c-2.628,1.862-3.592,8.325-2.104,11.6
			c-0.033,0.023-0.068,0.047-0.103,0.07c-1.336-0.978-2.43-2.482-4.408-2.482c-1.387,1.849-1.139,3.998-0.141,5.958
			c-0.263,0.222-0.523,0.447-0.783,0.675c-0.838-0.634-1.743-1.285-2.628-2.1c-0.352,0.632-0.944,2.552-1.132,4.191l0.029-1.251
			c-3.675-1.592-7.227-1.837-11.27-1.837c0.695,4.081,3.235,7.608,6.578,10.014c-0.136,0.177-0.27,0.354-0.401,0.532
			c-0.684,0.051-1.364,0.142-2.042,0.266c-1.146-1.865-2.753-3.414-4.38-4.075c-1.064,1.537-2.015,4.33-1.638,6.174
			c-0.271,0.14-0.541,0.286-0.808,0.437c-1.478-1.103-3.279-1.709-5.271-1.466c0.216,1.195,0.819,3.062,1.807,3.813
			c-0.64,0.51-1.26,1.05-1.858,1.618c-1.208-1.979-2.752-3.861-4.114-5.676c-1.126,2.14-3.494,9.871-1.014,12.15
			c-0.111,0.192-0.222,0.386-0.329,0.579c-1.504-0.282-2.923-0.454-4.783,0.012c0.055,1.09,1.373,2.545,3.012,3.877
			c-0.127,0.35-0.245,0.699-0.356,1.055c-3.196,0.123-5.983,0.716-8.413,3.521c1.833,2.021,4.513,3.783,7.402,4.729
			c1.128,11.013,14.448,18.333,22.796,23.897c19.273,12.74,42.794,9.147,64.355,11.76c13.067,1.308,26.789,4.901,39.529,4.574
			c17.314-0.652,35.281-0.326,52.595-1.958c31.688-2.941,64.029-2.616,95.39-7.516c7.322-1.171,14.643-3.656,15.373-11.221
			C323.316,209.347,325.177,208.072,326.278,206.42z M58.937,157.742l0.003-0.085c0.001,0.025,0.004,0.05,0.009,0.074
			C58.944,157.735,58.941,157.739,58.937,157.742z M109.751,164.166l0.955,0.391c0.016,0.232,0.035,0.463,0.056,0.694
			C110.433,164.897,110.096,164.535,109.751,164.166z M133.385,122.607c0.047-0.015,0.095-0.03,0.144-0.046
			c0.021,0.09,0.045,0.178,0.069,0.266C133.529,122.746,133.457,122.673,133.385,122.607z M297.966,168.37
			c-0.302-0.235-0.61-0.464-0.922-0.688c0.694-0.517,1.358-1.086,2.008-1.687C298.635,166.757,298.224,167.565,297.966,168.37z"/>
	</g>
</g>
</svg>
