<?xml version="1.0" encoding="utf-8"?>
<!-- Generator: Adobe Illustrator 16.0.0, SVG Export Plug-In . SVG Version: 6.00 Build 0)  -->
<!DOCTYPE svg PUBLIC "-//W3C//DTD SVG 1.1//EN" "http://www.w3.org/Graphics/SVG/1.1/DTD/svg11.dtd">
<svg version="1.1" id="Layer_1" xmlns="http://www.w3.org/2000/svg" xmlns:xlink="http://www.w3.org/1999/xlink" x="0px" y="0px"
	 width="350px" height="350px" viewBox="0 0 350 350" enable-background="new 0 0 350 350" xml:space="preserve">
<g>
	<g>
		<path fill="#363F3A" d="M111.894,145.071c-0.182-0.229-0.329-0.438-0.457-0.625c-0.39,0.12-0.782,0.236-1.184,0.329
			C110.39,145.309,111.387,145.225,111.894,145.071z"/>
		<path fill="#363F3A" d="M96.69,116.493c0-0.018,0.004-0.031,0.005-0.048C96.693,116.273,96.692,116.384,96.69,116.493z"/>
		<path fill="#363F3A" d="M206.271,51.142c0.188-0.328,0.346-0.67,0.443-1.036C206.477,50.421,206.357,50.776,206.271,51.142z"/>
		<path fill="#363F3A" d="M218.266,74.355c-0.268-0.143-0.473-0.1-0.613,0.129c0.189,0.148,0.406,0.247,0.641,0.313
			C218.293,74.632,218.285,74.481,218.266,74.355z"/>
		<path fill="#363F3A" d="M276.066,174.253c-0.023-0.212,0.086-0.353,0.32-0.42c-0.473-0.531-1.564-1.005-2.229-1.442
			c-0.74-0.488-1.369-1.035-2.064-1.539c-0.227-0.165-0.277-0.368-0.492-0.486c-0.285,0.666-0.736,1.114-1.369,1.461
			c-0.375,0.207-1.145,0.297-1.297,0.742c0.162,0.319,0.369,0.604,0.619,0.859c-0.838,0.325-1.832,0.043-2.572-0.158
			c-0.34-0.093-1.359-0.584-1.734-0.157c-0.434,0.495,0.094,1.904-0.105,2.511c-0.648,1.955-3.02,1.753-4.467,2.563
			c-0.129,1.638-0.607,3.734-2.645,3.808c-0.482-0.847,0.875-0.921,0.148-1.757c-0.23-0.266-0.695-0.245-0.975-0.47
			c-0.547-0.441-1.09-1.518-1.43-2.138c-0.531-0.974-0.342-1.363,0.158-2.333c0.309-0.606,0.553-1.161,0.803-1.791
			c0.434,0.333,0.887,0.718,1.236,0.808c1.385,0.355,1.893-1.043,2.152-2.171c0.16-0.693,0.697-1.869,0.242-2.385
			c-0.238-0.27-1.148-0.542-1.869-0.67c-0.043-0.153-0.111-0.302-0.209-0.447c0.473-0.427,0.939-1.107,0.977-1.488
			c0.08-0.786,0.043-0.395-0.27-0.989c-0.182-0.343-0.404-0.655-0.57-1.003c-0.311-0.659-0.322-0.517-0.918-1.11
			c-0.414-0.413-0.41-0.662-0.863-0.926c-0.527-0.306-1.27-0.423-1.826-0.756c-0.971-0.583-2.607-1.776-0.951-2.488
			c-0.002-0.472-0.344-0.718-0.373-1.193c0.801-0.456,2.871,0.415,3.447,0.944c0.473,0.434,0.467,1.106,1.004,1.292
			c1.633,0.563,1.34-1.075,1.92-1.975c0.818-1.269,1.387-0.701,2.5-0.208c0.707,0.312,1.734,0.602,2.594,0.322
			c1.557-0.507,1.07-2.183,1.902-3.19c0.674-0.819,1.875-0.166,2.834-0.485c0.766-0.255,2.631-2.012,2.678-2.628
			c0.105-1.428-2.045-2.219-3.434-2.255c1.49-0.259,2.537-2.607,2.502-3.99c-1.178-0.251-2.631-0.056-3.57,0.68
			c-0.078-0.717-0.379-1.339-1.006-1.776c-1.111-0.773-2.844-0.555-3.797-1.564c0.465-0.153,0.779-0.057,1.301-0.065
			c1.373-0.022,2.721-0.374,4.09-0.43c0.703-0.028,1.879,0.252,2.512-0.166c0.641-0.423,1.248-2.027,1.248-2.757
			c0-0.869-0.521-1.559-0.205-2.515c0.229-0.691,1.811-2.439-0.002-2.33c-0.277-0.67,0.287-1.815-0.852-1.814
			c0.531-0.952,1.799-1.417,2.59-2.142c-1.383-0.339-3.701,1.024-4.857,0.361c-0.572-0.328-0.623-0.652-1.426-0.949
			c-2.361-0.874-3.105-2.029-3.873-4.4c-0.361-1.12-1.184-1.834-2.445-1.85c-0.525-0.006-1.861,0.76-2.342,0.471
			c-0.707-0.427-0.484-2.292-0.734-3.048c-1.32-0.474-2.998,1.119-4.119,1.689c-0.053-2.401,3.521-3.72,1.686-6.173
			c-0.979-1.307-2.723-1.731-2.672-3.658c0.037-1.424,0.939-2.732,2.313-3.144c0.707-0.211,1.615-0.037,1.879-0.921
			c0.566-1.907-2.486-2.05-2.369-3.11c1.373-0.483,3.07,0.469,4.348-0.323c1.354-0.837,1.631-2.714,2.799-3.681
			c0.098,0.224,0.27,0.337,0.516,0.339c2.309-2.782,1.688-6.78-1.354-8.759c-0.365-0.237-0.754-0.424-1.186-0.504
			c-0.18,0.211-0.404,0.245-0.674,0.098c-0.785-0.092-1.545-0.3-2.279-0.622c-1.92-0.254-2.779,0.082-3.01,2.202
			c-0.086,0.789-0.107,1.65-0.053,2.463c-0.277-1.245-1.682-3.224-2.691-3.426c-1.045-0.21-2.232,2.042-3.084,2.413
			c-1.387,0.605-2.375-0.562-3.57-1.224c-0.516-0.285-1.254-0.47-1.43-1.117c1.566-0.371,2.982-0.551,4.438-1.321
			c2.559-1.352,0.092-1.941-0.414-3.647c-0.352-1.185,0.553-3.139,0.926-4.283c0.484-1.48,0.219-1.567-0.811-2.671
			c-0.553-0.594-0.904-1.738-1.879-1.679c-1.193,0.073-1.447,2.331-2.891,2.236c-1.664-0.11-2.828-2.397-4.34-2.956
			c-1.455-0.539-2.502,0.781-3.266,2.032c-1.408-2.341-3.223-4.682-4.154-7.16c-0.252-0.67-0.461-2.12-0.904-2.665
			c-0.551-0.676-3-1.672-3.807-1.311c-0.205,2.267-1.449,2.71-3.588,3.012c-1.137,0.161-2.9,0.802-4.139,0.449
			c0,1.088-0.389,2.86-1.238,3.247c-0.139-0.661-0.201-1.235-0.49-1.854c-0.184-0.391-1.355-1.405-1.389-1.792
			c-0.074-0.818,1.873-1.826,2.467-2.261c0.896-0.659,2.889-1.377,2.676-2.559c-0.168-0.933-1.764-1.903-2.445-2.49
			c-1.205-1.038-2.5-1.882-3.74-2.862c-0.787-0.623-0.797-0.718-1.645-0.174c-0.523,0.336-1.43,1.547-1.949,0.449
			c-0.822,0.623-1.416,2.903-1.213,4.026c0.322,1.785,2.219,2.833,2.926,4.474c-0.078,0.138-0.154,0.277-0.234,0.415
			c-0.609,1.041-1.209,2.096-1.746,3.176c-0.15,0.286-0.311,0.565-0.467,0.847c0.199-0.446,0.367-0.864,0.471-1.241
			c0.359-1.28,1.439-2.576,0.012-3.551c-0.85-0.582-1.389-0.328-2.248-0.604c-0.357-0.115-0.188-0.788-0.885-0.522
			c-0.26-0.763-0.006-1.702-0.74-2.272c-0.314-0.245-0.596-0.245-0.895-0.24c0.041-0.297,0.061-0.599,0.033-0.897
			c0.76-0.583,1.797-1.063,2.371-1.728c0.676-0.786,1.125-1.424,0.877-2.461c-0.133-0.547-0.695-1.542-1.236-1.736
			c-0.506-0.18-1.076,0.202-1.598,0.291c0.141-0.405,0.205-0.853,0.199-1.375c0-0.143,0.004-0.294,0.012-0.451
			c0.135-0.163,0.266-0.302,0.385-0.399c0.893-0.731,2.469,0.216,2.852-1.116c0.381-1.322-3.809-4.809-4.719-3.29
			c0.668-1.155,1.092-2.569,1.395-3.848c0.066-0.284,0.117-0.572,0.182-0.854c-0.512,0.899-1.262,1.696-1.744,2.573
			c-0.445,0.813-0.445,1.995-1.047,2.653c-0.15-0.077-0.336-0.182-0.531-0.273c-0.02-0.015-0.041-0.026-0.059-0.041
			c-1.424-1.208-0.338-2.195-0.285-3.581c-0.488,0.577-2.004,1.134-2.779,0.777c-0.686-0.316-0.791-1.522-1.711-1.959
			c0.143-0.51,0.518-0.491,0.854-0.867c0.738-0.826,0.207-0.654,0.09-1.363c-0.191-1.136-0.078-1.988-0.662-3.063
			c-0.473-0.866-1.041-1.875-2.063-0.788c-0.516,0.55-0.496,1.645-0.846,2.258c-0.475,0.833-0.951,0.849-1.479,0.59
			c-0.217-0.988-0.01-2.092,0.057-3.083c0.072-1.111,0.729-3.244-0.072-4.164c-2.02,0.037-4.516,0.285-5.584,2.399
			c-0.113,0.366-0.229,0.731-0.344,1.096c-0.418-0.424-0.855-0.77-1.201-0.492c-0.824,0.663,1.617,2.385-0.273,2.682
			c-1.127,0.176-2.049-1.217-2.416,0.002c-0.754-0.204-1.512-0.412-2.27-0.492c-1.523-0.159-1.934,0.406-2.836,1.497
			c-0.543,0.656-0.465,0.713-1.27,0.787c-0.639,0.058-2.112-0.365-2.273,0.485c-1.568,0.352-2.905,1.321-4.461,1.63
			c-0.477,0.095-1.023-0.047-1.479,0.077c-1.41,0.384-1.77,2.255-2.45,3.33c-0.949-0.757-2.086-2.415-3.346-2.65
			c-0.852-0.159-2.227,0.698-3.141,0.842c-1.312,0.194-2.63,0.291-3.955,0.291c-0.434,0.026-0.869,0.053-1.303,0.079
			c-1.009,0.926,0.901,1.847,1.426,2.46c0.547,0.375,0.894,0.896,1.039,1.56c-0.102,0.389-0.208,0.776-0.319,1.163
			c-0.141,1.352,0.563,1.456,1.269,2.43c1.031,1.422,0.109,2.421-1.279,3.034c-0.241,0.013-0.48,0.034-0.716,0.088
			c-0.295,0.067-0.591,0.189-0.808,0.406c-0.915,0.21-1.816,0.288-2.388,0.239c0.963,1.143,2.795,1.741,3.989,2.682
			c1.691,1.334,3.351,0.65,5.254,1.194c0.376,1.027,0.025,2.344-0.369,3.336c-0.604,1.521-1.136,1.314-2.708,1.423
			c-1.394,0.098-3.21,0.461-4.489-0.189c-0.922-0.469-1.309-1.606-2.31-1.893c-0.185,0.521-0.421,1.019-0.709,1.492
			c-0.846-0.014-1.56-0.063-1.914-0.907c-0.149,1.021-2.888,1.474-3.114,1.63c-0.582-0.202-0.869-0.863-1.275-1.309
			c0.843,0.275,2.317-1.792,1.212-2.262c-0.796-0.338-2.627,0.055-3.409,0.253c-0.812,0.206-2.498,0.476-3.061,1.001
			c-0.441,0.413-0.602,2.654-0.184,3.666c-0.553,0.17-1.256,0.748-1.485,0.969c-0.907,0.87-1.236,0.916-2.478,0.9
			c-0.791-0.01-1.706-0.12-2.487-0.008c-1.315,0.188-0.931,0.578-0.136,1.335c-0.353,0.958-1.185,1.091-1.903,1.602
			c-0.742,0.527-0.688,0.658-0.655,1.578c0.034,0.945,0.083,1.281-0.671,1.767c-0.566,0.363-0.881,0.189-1.142,0.913
			c-0.139,0.385-0.521,1.654-0.454,2.048c0.207,1.205,1.927,1.129,2.66,1.677c0.813,0.608,0.652,1.396,0.083,2.152
			c-0.645,0.857-1.398,0.995-0.257,1.768c0.768,0.519,1.911,0.917,2.766,1.33c0.901,0.434,1.787,0.951,2.686,1.347
			c1.043,0.46,3.012,1.378,2.41,2.948c-0.24-0.186-0.464-0.39-0.647-0.636c0.181,0.25,0.402,0.458,0.642,0.648
			c-0.226,0.569-0.929,0.719-1.33,1.133c-0.53,0.548-0.707,1.345-1.182,1.945c1.503,1.205,3.611,1.285,5.27,2.132
			c2.02,1.033-0.217,1.875-0.426,3.052c1.634,0.283,2.709,1.176,1.8,2.678c1.89,1.067,3.914,1.926,5.268,3.752
			c0.674,0.91,0.302,1.743,0.872,2.701c0.432,0.728,1.23,1.144,1.924,1.555c0.321,0.191,1.031,0.426,1.274,0.677
			c0.497,0.509,0.254,2.89,0.404,3.574c0.17,0.774,0.397,1.16,0.695,1.838c0.259,0.584,0.153,1.036,0.318,1.585
			c0.147,0.489,0.328,0.733,0.558,0.866c-0.394,0.054-0.78,0.221-1.299,0.101c-0.085-0.447-0.173-0.892-0.265-1.337
			c-0.624-0.15-1.167-0.014-1.63,0.409c-0.551,0.283-1.056,0.633-1.512,1.053c-0.326,0.032-0.357-0.22-0.627-0.335
			c-1.795-0.765-0.187-5.937-0.248-7.354c-0.168,0.032-0.284,0.124-0.345,0.274c-0.712-0.33-1.812,0.636-2.602,1.021
			c-0.178-0.327-0.244-0.679-0.197-1.056c-0.34-0.21-0.708-0.279-1.106-0.208c-0.492-0.774-0.094-2.015-0.272-2.882
			c-0.016-0.077-0.327-1.068-0.354-1.15c-0.241-0.735-0.344-1.386-0.527-2.181c-0.981,0.099-0.699-0.734-1.253-1.229
			c-0.296-0.132-0.594-0.26-0.894-0.382c-0.375-0.479-0.82-0.883-1.334-1.214c-1.009-0.544-2.452,0.007-3.253-0.819
			c-0.512-0.528-0.327-1.236-0.68-1.837c-0.669-1.137-1.859-1.071-2.455-2.453c-0.558-1.293-1.024-2.239-1.777-3.418
			c-0.452-0.708-0.677-0.975-1.328-1.346c-0.277,0.071-0.545,0.053-0.805-0.054c-0.135-0.34-0.347-0.626-0.636-0.859
			c-1.212-0.968-2.507-0.199-3.694,0.101c-1.074,0.271-1.943,1.107-2.983,1.306c-0.81,0.155-1.583-0.342-2.377,0.113
			c-1.415,0.812-1.896,4.682-3.447,4.885c-0.755,0.098-1.986-0.895-2.735-1.099c-0.792-0.217-1.495-0.322-2.162-0.793
			c-0.307,1.317-1.099,4.419,0.112,5.496c-0.16,0.521-1.468,1.372-1.882,1.566c-0.932,0.439-2.167,0.193-3.047-0.32
			c-1.29-0.753-1.829-2.635-3.685-2.134c-0.547,0.147-1.349,0.796-1.222,1.252c-1.277,0.759-2.344,1.7-3.013,3.047
			c-0.355,0.715-0.367,0.916-0.232,1.775c0.091,0.581,0.869,2.17,0.645,2.63c-0.571,1.17-3.024,0.618-3.09,2.18
			c0.002,0.172,0.003,0.625,0.005,1.641c-0.345-1.165-3.485-1.789-4.512-1.814c-0.65-0.016-1.107,0.264-1.378-0.406
			c-0.269-0.665,0.034-1.176-0.385-1.934c-0.697-1.262-2.069-2.727-3.646-2.624c-1.129,0.073-1.136,0.993-2.052,1.339
			c-0.503,0.189-1.097-0.046-1.642,0.103c-0.982,0.267-1.858,1.205-2.093,2.183c-0.512,2.132,0.9,1.962,2.192,2.794
			c0.695,0.448,0.917,1.095,1.462,1.634c0.621,0.613,0.624-0.138,0.801,0.969c0.07,0.438,0.119,1.322-0.099,1.721
			c-0.22,0.404-0.709,0.393-0.767,0.901c0.362,0.141,0.783,0.145,1.163,0.056c-1.039,0.334-1.823,2.467-1.632,3.481
			c-0.143-0.229-0.354-0.405-0.487-0.644c0.127,1.181-0.442,2.221-0.417,3.379c0.925,0.544,3.043,0.09,4.078,0.125
			c1.214,0.043,1.379,0.176,1.769,1.362c0.149,0.457,0.147,0.584,0.328,1c0.094,0.214,0.405,0.715,0.461,0.89
			c0.327,1.018,0.106,1.508,1.453,1.148c0.729-0.194,2.075-1.227,2.635-0.391c0.25,0.374-0.179,1.003,0.133,1.325
			c0.325,0.336,0.958-0.038,1.285-0.062c1.66-0.128,1.296,1.581,1.785,2.833c0.569,1.456,1.405,0.826,2.583,0.52
			c-0.787,0.724-3.926,1.381-3.903,2.556c1.717,0.499,4.031,0.079,5.841,0.079c0.632,0,1.269,0.021,1.901,0.009
			c0.593-0.011,0.958,0.029,1.46-0.277c0.338-0.205,0.206-0.482,0.592-0.598c0.236,1.067,0.807,4.098,1.882,4.5
			c0.667,0.249,1.485-0.219,2.054-0.485c1.133-0.527,1.311-0.162,1.892,0.686c0.768-0.234,1.526-0.487,2.334-0.631
			c0.81-0.145,3.433-1.104,4.052-0.441c0.708,0.762-0.519,2.833-0.74,3.543c-0.384,1.231-1.315,2.757-1.427,4.007
			c1.411,0.135,3.214-1.313,4.578-1.663c1.741-0.447,1.932,0.689,3.271,1.394c0.851,0.449,3.823-0.136,3.91,0.734
			c0.168,1.664-3.731,1.339-4.423,2.284c2.416,1.512,4.242-1.03,6.514-0.391c0.297,1.051,0.611,2.067,0.98,3.092
			c0.21,0.583,1.135,1.587,0.63,2.101c-0.805-1.218-5.87-1.25-5.589,0.542c0.275,0.041,0.549,0.09,0.821,0.149
			c-0.023,0.696,0.463,0.637,0.72,1.117c0.343,0.641,0.076,1.254,0.331,1.892c0.671,0.198,1.285-0.002,1.961,0.263
			c0.552,0.215,1.633,0.828,2.058,1.248c0.85,0.844,0.271,1.412-0.449,2.137c-0.418,0.422-2.234,1.491-2.236,1.995
			c-0.003,0.941,2.339,1.565,2.62,2.745c0.183,0.769,0.161,1.675,0.113,2.565c-0.42-0.016-0.858-0.067-1.209-0.079
			c-0.871-0.031-0.856,0.02-1.347-0.664c-0.658-0.918-0.448-1.036-1.578-1.141c-0.675-0.063-1.399-0.197-2.029-0.486
			c-1.313-0.606-1.792-2.718,0.161-2.743c0.938-2.174-3.186-0.921-4.216-1.52c-1.043-0.607-1.071-2.395-2.012-2.852
			c-1.2-0.583-1.03,1.502-2.186,1.256c-0.131-1.167-0.902-2.538-1.517-3.532c-0.702-0.153-1.256,1.158-1.922,1.337
			c-0.46,0.122-1.593,0.118-2.067,0.002c-0.707-0.173-0.884-0.602-1.789-0.482c-1.052,0.141-2.701,0.307-2.693,1.359
			c0.597-0.142,1.166-0.082,1.709,0.18c-0.332,2.079-3.347,2.792-2.583,5.675c0.741,2.797,5.807,3.322,6.187,5.654
			c-0.909,0.042-1.59,1.058-2.247,1.068c-1.42,0.024-1.161-0.742-2.167-1.239c-1.467-0.724-3.81,0.256-3.802-2.22
			c-2.303,0.999-2.655,1.409-3.622-0.991c-0.403-0.999-0.662-1.596-0.707-2.716c-0.02-0.495,0.363-2.144-0.112-2.568
			c-1.14-1.016-4.031,0.697-5.267,0.78c-0.977,0.066-1.953,0.177-2.749-0.426c-0.627-0.475-0.499-1.41-0.927-1.777
			c-0.922-0.79-1.45-0.188-2.684-0.468c-0.763-0.173-0.926-0.917-1.724-1.016c-2.422-0.299-1.957,1.88-1.852,3.668
			c0.126,2.126,2.006,3.799-0.397,4.54c-0.79,0.243-1.905-0.614-2.282,0.486c-0.18,0.523,0.156,1.04,0.488,1.526
			c-0.905-1.009-2.794-1.754-2.818-2.86c-1.82-0.026-1.075-2.458-2.616-2.392c-1.67,0.071-1.572,2.081-0.972,3.042
			c0.412,0.661,0.093,0.498,0.951,0.621c0.377,0.055,1.462-0.266,1.741,0.051c0.896,1.02-0.81,3.206-0.899,4.3
			c-0.714,0.486-1.675-1.197-2.601-0.495c-0.251,0.19-0.043,0.487-0.449,0.676c-0.261,0.12-1.015-0.052-1.351,0.034
			c-0.107,0.521,1.806,3.002,2.446,3.082c0.912,0.113,1.126-1.446,1.188-2.185c0.673-0.199,1.325,0.078,1.981-0.271
			c0.822-0.438,0.566-0.732,0.722-1.53c0.443-0.104,1.244-0.263,1.659,0.011c0.164,0.108,0.275,0.736,0.504,0.946
			c0.768,0.702,1.244,0.525,1.387,1.658c0.132,1.048-0.193,2.674,1.081,3.172c0.642,0.25,2.797-0.591,3.365-1.014
			c-0.238-0.78-0.936-1.149-0.874-2.148c0.067-1.067,0.732-1.362,1.821-1.362c1.043,0,1.736,0.287,1.71,1.263
			c0.001-0.069-0.363,0.97-0.368,0.999c-0.067,0.406-0.048,0.906,0.054,1.296c0.729,0.235,1.476-0.022,2.218,0.168
			c0.502,0.128,0.762,0.402,1.353,0.371c0.497-0.026,0.704-0.317,1.089-0.382c0.804-0.135,1.094,0.058,1.831,0.308
			c1.141,0.385,1.793,0.464,1.469,1.757c-0.301,1.2-1.229,2.189-0.728,3.668c1.747,0.402,4.525-0.47,6.184-0.991
			c0.594-0.185,1.385-0.702,1.837-0.082c0.276,0.379-0.074,1.488,0.086,1.984c0.789,2.449,3.672,2.763,5.814,2.731
			c1.151-0.017,1.668,0.063,2.675,0.345c0.631,0.177,0.924,0.16,1.453-0.194c1.354-0.903,1.832-2.999,3.929-2.327
			c1.426,0.457,2.695,2.07,4.309,1.69c1.192-0.279,2.315-1.354,3.591-1.357c1.965-0.007,3.066,2.144,4.762,2.672
			c1.512,0.472,3.281-0.662,4.628-1.182c0.643-0.248,1.555-0.294,2.125-0.53c0.619-0.256,0.383-0.691,0.865-1.126
			c0.639-0.577,1.644-0.196,2.538,0.048c0.181,0.166,0.367,0.328,0.562,0.479c1.34,1.047,2.965,1.692,4.611,2
			c0.275,0.054,0.551,0.096,0.827,0.135c0.044,0.02,0.086,0.042,0.131,0.063c0.914,0.427,1.853,0.822,2.833,1.144
			c0.974,0.313,2.032,0.553,3.093,0.56c2.1,0.062,4.107-0.452,6.018-0.711c0.487-0.063,0.972-0.111,1.454-0.134
			c0.042,0.016,0.085,0.031,0.128,0.044c0.496,0.153,0.975,0.132,1.322,0.168c0.18,0.018,0.352,0.047,0.515,0.089
			c0.147,0.036,0.29,0.1,0.474,0.186c0.183,0.086,0.411,0.189,0.655,0.256c0.129,0.036,0.236,0.058,0.332,0.079l0.302,0.064
			l1.21,0.259c0.833,0.164,1.64,0.243,2.365,0.439c0.355,0.084,0.721,0.247,1.097,0.394l1.077,0.425
			c0.015,0.021,0.029,0.042,0.044,0.062c0.324,0.433,0.66,0.853,1.001,1.264c0.682,0.82,1.383,1.602,2.056,2.385
			c0.635,0.723,1.11,1.59,1.551,2.525c0.372,1.9,0.814,3.809,1.38,5.677c0.566,1.892,1.227,3.745,1.92,5.576l1.061,2.733
			c0.371,0.918,0.695,1.772,0.99,2.688c0.59,1.809,1.061,3.671,1.504,5.556c0.021,0.091,0.043,0.184,0.064,0.276l0.363,3.261
			c0.068,0.576,0.141,1.152,0.215,1.73l-0.039,5.138l-0.027,3.729l-0.104,0.648c-0.176,1.188-0.352,2.394-0.475,3.589
			c-0.473,4.801-0.627,9.604-0.627,14.372v6.148l-0.277,5.149c-0.016,0.295-0.016,0.589-0.031,0.884
			c-0.455,2.644-0.885,5.283-1.342,7.911c-0.068,0.391-0.133,0.784-0.201,1.177c-0.533,1.619-1.111,3.252-1.639,4.939
			c-0.357,1.142-0.686,25.751-0.951,26.949h-0.938c-0.36,1.117-0.754-0.939-1.258,0h2.789c0.629-1.219,1.059,1.201,1.43,0h0.041
			h0.51c0.031-0.45,0.082,0.449,0.143,0c0.012,0.004,0.023-0.005,0.037,0c-0.057,0.496-0.107-0.496-0.166,0h0.23
			c-0.16,0.922-0.334-0.914-0.52,0c-0.164,0.545-0.326-0.523-0.506,0h-0.596c-0.4,1.176-0.781-1.431-0.869,0h1.455
			c-0.061,1.015-0.1-0.991-0.107,0c-0.031,2.333,0.018-2.602,0.002,0h3.152c-0.002,0-0.008,0.4-0.014,0h0.451
			c0.168-1.369,0.48,1.458,0.783,0h1.424c0.289-1.078,0.465,1.06,0.586,0h0.689c0.48-0.39,0.951,0.622,1.283,0
			c0.322-0.585,0.482,0.563,0.557,0c0.076,0.698,0.119-0.675,0.098,0h3.152c0.014-1.263-0.125,1.173-0.322,0
			c-0.197-1.177-0.443,1.086-0.639,0c-0.121-0.662-0.234,0-0.35,0h0.861c-0.018-2.602-0.109,2.411-0.086,0
			c0.008-0.604,0.021-25.531,0.045-26.128c0.027-0.589,0.064-1.178,0.121-1.766c0.115-1.172,0.293-2.355,0.506-3.54
			c0.426-2.369,0.988-4.769,1.445-7.235c0.469-2.469,0.75-5.019,0.855-7.522c0.055-1.255,0.076-2.509,0.074-3.756l-0.014-1.864
			l-0.02-0.931c-0.012-0.323-0.016-0.658-0.043-0.982c-0.078-1.197-0.258-2.356-0.479-3.492c0.018-0.172,0.039-0.343,0.055-0.516
			c0.275-2.713,0.402-5.495,0.357-8.206c-0.014-2.664,0.074-5.355,0.102-8.068c0.027-2.714-0.01-5.458-0.295-8.209
			c-0.287-2.649-0.5-5.306-0.809-7.991c0.15-1.29,0.281-2.594,0.357-3.878c0.129-1.771,0.602-3.61,0.811-5.595l1.02-4.368
			c0.111-0.422,0.385-0.82,0.699-1.267c0.209-0.232,0.42-0.465,0.637-0.695c0.252-0.267,0.516-0.55,0.77-0.798
			c0.248-0.246,0.512-0.479,0.797-0.685c0.563-0.419,1.191-0.762,1.857-1.06c0.611-0.271,1.254-0.512,1.9-0.762
			c0.244-0.02,0.506-0.032,0.756-0.055c0.387-0.03,0.777-0.065,1.168-0.114c0.783-0.1,1.574-0.263,2.336-0.534
			c0.375-0.129,0.76-0.308,1.098-0.472c0.342-0.163,0.688-0.321,1.035-0.476l2.107-0.923c0.707-0.319,1.408-0.639,2.1-1.029
			c0.682-0.387,1.328-0.813,1.973-1.221c0.322-0.204,0.643-0.405,0.969-0.597l0.492-0.275c0.176-0.098,0.354-0.2,0.518-0.314
			c0.67-0.448,1.236-0.985,1.811-1.479c0.143-0.124,0.287-0.246,0.432-0.36c0.146-0.116,0.313-0.251,0.455-0.384
			c0.293-0.266,0.563-0.542,0.834-0.814c0.041-0.043,0.082-0.083,0.123-0.126c0.021-0.02,0.047-0.037,0.068-0.057
			c0.633-0.562,1.252-1.123,1.908-1.634c0.16-0.09,0.328-0.164,0.498-0.216c0.313-0.09,0.66-0.058,1.012,0.04
			c0.354,0.093,0.715,0.235,1.105,0.333c0.127,0.033,0.266,0.054,0.402,0.069c0.109,0.271,0.205,0.542,0.27,0.801
			c0.332,1.308-0.824,1.401-0.816,2.603c0.008,1.787,1.805,0.301,2.742,1.128c0.51,0.448,0.338,1.493,0.639,2.049
			c0.318,0.587,0.979,0.682,1.34,1.144c0.371,0.471,0.361,1.228,0.643,1.784c0.371,0.728,0.275,0.634,1.184,0.657
			c0.602,0.017,1.209-0.032,1.811-0.007c0.582,0.023,0.969,0.402,1.391,0.438c1.488,0.122,1.439-2.149,2.098-3.103
			c0.688,0.341,1.436,1.369,2.127,1.881c0.686,0.505,2.094,1.722,2.959,1.675c0.951-0.05,0.836-1.814,0.678-2.701
			c-0.123-0.694-0.338-1.867-0.891-2.455c0.201-0.038,0.406-0.074,0.607-0.108c0.713,0.162,1.432,0.39,2.072,0.345
			c0.463-0.034,0.643-0.272,0.992-0.371c0.336-0.096,1.018,0.049,1.283-0.067c0.088-0.036,0.16-0.097,0.221-0.173
			c0.402,0.006,0.785,0.035,1.121,0.116c0.523,0.125,0.693,0.508,1.316,0.515c1.215,0.013,1.205-1.057,1.475-2.058
			c0.271-1.008,1.15-4.296,2.834-3.842c0.775,0.209,0.736,1.169,1.199,1.703c0.391,0.452,1.211,0.96,1.789,1.059
			c0.865,0.146,1.691-0.773,2.439-0.765c0.736,0.008,0.553,0.133,1.297,0.5c0.674,0.335,1.322,0.174,2.043,0.199
			c0.961,0.034,0.98,0.539,1.768,0.844c1.332,0.516,3.594-0.653,4.648-1.475c0.527-0.411,2.1-1.712,1.535-2.411
			c-0.105-0.13-1.494-0.749-1.645-0.799c-0.813-0.261-1.055,0.083-1.994,0.213c-0.443,0.062-1.021,0.183-1.314-0.284
			c-0.27-0.431,0.281-1.117,0.127-1.671c-0.111-0.394-0.74-0.954-1.043-1.181c-0.938-0.701-1.979,0.008-2.891-0.525
			c-0.738-0.434-0.803-2.345-0.574-3.088c0.174-0.568,0.994-1.124,1.383-1.653c0.455-0.619,0.805-1.341,1.451-1.786
			c0.531,0.283,1.137,1.059,1.207,1.689c0.119,1.026-0.252,0.499-0.363,1.143c-0.162,0.935-0.229,2.35,0.006,3.286
			c1.42,0.496,2.707-0.581,3.814-1.257c0.688-0.422,0.436,0.165,1.102-0.865c0.383-0.592,0.664-1.483,0.814-2.169
			c0.27-1.211,0.398-1.827,1.76-2.34c2.1-0.79,2.617,1.395,2.969,3.044C274.891,179.006,278.002,175.407,276.066,174.253z
			 M221.646,187.826c-0.242,0.109-0.467,0.244-0.676,0.391c-0.652,0.462-1.205,1.013-1.754,1.547
			c-0.076,0.073-0.15,0.144-0.225,0.215c-0.418,0.342-0.844,0.672-1.289,0.965c-0.619,0.408-1.262,0.782-1.92,1.13
			c-0.656,0.346-1.328,0.664-2.012,0.967c-0.678,0.308-1.379,0.577-2.072,0.905c-1.379,0.645-2.686,1.39-4.029,2.021
			c-1.275,0.63-2.811,0.743-4.273,1.449c-0.627,0.311-1.285,0.563-1.955,0.808c-0.133,0.008-0.268,0.018-0.414,0.032
			c-0.152,0.021-0.297,0.047-0.443,0.073c0.393-0.392,0.781-0.777,1.182-1.134c0.592-0.534,1.23-1.034,1.883-1.537l0.98-0.764
			c0.32-0.247,0.682-0.555,0.975-0.845c0.305-0.292,0.59-0.584,0.879-0.842c0.291-0.266,0.563-0.455,0.906-0.635
			c0.664-0.351,1.514-0.629,2.248-1.142c0.715-0.479,1.381-1.023,1.979-1.649c0.299-0.315,0.58-0.652,0.828-1.022
			c0.121-0.178,0.244-0.391,0.338-0.569c0.082-0.155,0.189-0.315,0.301-0.483c0.225-0.328,0.5-0.704,0.672-1.141
			c0.176-0.422,0.275-0.836,0.396-1.212c0.119-0.388,0.246-0.689,0.469-1.024c0.213-0.337,0.443-0.665,0.688-0.983
			c0.488-0.639,1.029-1.241,1.604-1.814c0.057-0.057,0.117-0.108,0.172-0.163c0.295,0.435,0.527,0.973,0.705,1.687
			c0.199,0.808,0.152,2.996,0.932,3.467c0.439,0.266,1.584,0.047,2.072,0.039c0.959-0.012,1.92-0.002,2.881-0.002
			c0.014,0.018,0.025,0.036,0.037,0.055c-0.193,0.097-0.385,0.195-0.578,0.296C222.609,187.172,222.119,187.485,221.646,187.826z
			 M160.87,190.278c-0.461-0.153-0.946-0.182-1.366-0.182l-2.46,0.024l-4.898,0.049c-1.029,0.007-2.054,0.002-3.066-0.067
			c-0.161-0.067-0.321-0.136-0.48-0.206c-0.898-0.401-1.786-0.838-2.685-1.275c-0.094-0.043-0.183-0.093-0.276-0.139
			c0.232-0.018,0.45-0.047,0.636-0.1c1.159-0.338,0.947-1.757,0.89-2.726c-0.096-1.62-0.588-1.787-2.039-1.796
			c-0.549-0.003-1.706,0.033-1.98-0.648c-0.252-0.626,0.464-1.325,0.651-1.844c0.629-1.748-0.638-0.788-1.586-0.657
			c-0.629,0.086-1.157,0.148-1.396-0.428c-0.096-0.23,0.102-0.67,0.058-0.935c-0.054-0.331-0.341-0.608-0.384-0.909
			c-0.16-1.12,0.991-0.923,1.501-2.001c0.789-1.668-0.543-1.942-1.631-2.753c-0.78-0.582-1.838-1.317-2.391-2.228
			c0.061-0.067,0.124-0.141,0.19-0.226c0.365-0.475,0.637-1.52,1.131-1.778c0.764-0.4,2.061,0.341,2.82,0.451
			c1.063,0.152,1.454,0.234,2.013,1.303c0.673-0.063,0.65-1.056,0.774-1.547c0.239-0.944,0.422-1.08,1.395-1.351
			c0.584-0.163,1.634-0.536,2.245-0.162c0.851,0.52,0.45,2.24,0.354,3.071c0.79-2.739,2.453-3.887,4.705-4.591
			c0.085,0.152,0.174,0.303,0.259,0.457c0.509,0.917,1.036,1.854,1.7,2.732c0.573,0.773,1.277,1.476,2.067,2.062
			c0.509,0.984,1.094,1.98,1.888,2.849c0.41,0.458,0.873,0.877,1.38,1.231l0.704,0.486c0.219,0.158,0.438,0.318,0.653,0.488
			c0.861,0.678,1.683,1.445,2.563,2.198c0.122,0.104,0.25,0.207,0.374,0.311c0.291,0.493,0.544,0.994,0.727,1.519
			c0.328,0.913,0.523,1.931,0.838,2.981l0.234,0.747c0.072,0.234,0.134,0.478,0.195,0.721c0.121,0.489,0.227,0.993,0.34,1.509
			c0.223,1.029,0.503,2.121,0.971,3.148c0.189,0.423,0.407,0.823,0.635,1.215c-0.067-0.006-0.136-0.015-0.201-0.019
			c-0.542-0.035-1.043-0.022-1.504-0.047c-0.231-0.011-0.451-0.032-0.663-0.067c-0.109-0.016-0.203-0.04-0.315-0.064l-0.357-0.09
			c-0.478-0.121-0.963-0.255-1.48-0.362c-0.514-0.111-1.055-0.183-1.583-0.208c-0.575-0.031-1.146-0.016-1.714,0.026
			C161.167,190.388,161.023,190.327,160.87,190.278z M172.051,192.297c-0.145-0.082-0.292-0.16-0.44-0.238
			c-0.028-0.04-0.056-0.078-0.083-0.119c-0.598-0.854-1.153-1.675-1.562-2.551c-0.415-0.873-0.677-1.812-0.912-2.82
			c-0.119-0.502-0.235-1.02-0.373-1.543c-0.07-0.262-0.143-0.524-0.227-0.789l-0.247-0.746c-0.241-0.748-0.428-1.558-0.689-2.384
			l0.131,0.08c0.874,0.557,1.646,1.302,2.36,2.124c0.717,0.822,1.378,1.725,2.068,2.637c0.344,0.455,0.696,0.914,1.071,1.367
			c0.195,0.24,0.352,0.42,0.509,0.635c0.158,0.21,0.307,0.429,0.454,0.652c0.069,0.108,0.136,0.223,0.203,0.333
			c0.09,0.413,0.175,0.823,0.244,1.229c0.081,0.437,0.097,0.857,0.09,1.323c-0.011,0.794-0.099,1.658-0.042,2.581
			c-0.155-0.071-0.311-0.138-0.464-0.193C173.503,193.299,172.818,192.759,172.051,192.297z M197.957,183.935
			c0.213,0.48-0.25,0.642-0.568,0.897c0.184-0.302,0.369-0.603,0.564-0.897C197.953,183.935,197.955,183.935,197.957,183.935z
			 M191.406,234.466c-0.014,0.577-0.029,1.155-0.045,1.733c-0.006-0.24-0.012-0.48-0.018-0.721l-0.047-2.795
			c0.049-0.466,0.094-0.932,0.133-1.4C191.438,232.341,191.43,233.401,191.406,234.466z M167.061,179.01
			c-0.283-0.199-0.561-0.414-0.837-0.634c-0.18-0.279-0.363-0.553-0.549-0.813l-0.908-1.271c-0.315-0.449-0.665-0.89-1.036-1.296
			c-0.109-0.12-0.223-0.23-0.336-0.344c0.399,0.313,0.803,0.618,1.211,0.916c1.584,1.157,3.207,2.223,4.67,3.438
			c0.363,0.307,0.719,0.618,1.06,0.943c0.172,0.16,0.331,0.331,0.498,0.497c0.172,0.169,0.29,0.313,0.425,0.493
			c0.524,0.707,0.915,1.581,1.406,2.464l0.369,0.636c0.114,0.199,0.218,0.397,0.306,0.594c0.081,0.179,0.146,0.36,0.202,0.547
			c-0.059-0.075-0.118-0.148-0.177-0.225c-0.694-0.889-1.387-1.812-2.176-2.69c-0.786-0.877-1.673-1.72-2.728-2.372l-0.731-0.437
			C167.506,179.313,167.28,179.169,167.061,179.01z M195.256,119.977c0.076,0.047,0.191,0.069,0.324,0.081
			c0.205,0.783,0.43,1.565,0.693,2.344c0.102,0.295,0.207,0.589,0.32,0.88c-0.006,0.079-0.014,0.157-0.02,0.235
			c-0.082,1.241-0.115,2.482-0.119,3.719c-0.014,0.616,0.029,1.256-0.035,1.788c-0.012,0.091-0.031,0.186-0.047,0.278
			c-0.609,0.222-1.006,0.395-1.512,0.358c-0.014-0.405-0.035-0.804-0.055-1.195c-0.016-0.319-0.027-0.629-0.029-0.943l-0.004-0.978
			l-0.004-0.979c-0.004-0.347-0.074-0.73-0.156-1.056c-0.084-0.333-0.178-0.633-0.238-0.921l-0.186-0.941
			c-0.111-0.547-0.236-1.088-0.365-1.627l-0.006-1.379l-0.006-1.012l-0.004-0.506c-0.002-0.138-0.02-0.282-0.037-0.424
			c0.391-0.182,0.768-0.362,1.117-0.522c0.121,0.539,0.244,1.077,0.373,1.616C195.031,119.315,194.932,119.774,195.256,119.977z
			 M175.509,187.68c-0.034-0.051-0.074-0.1-0.109-0.151c-0.148-0.627-0.285-1.243-0.39-1.894c-0.092-0.507-0.248-1.056-0.482-1.547
			c-0.116-0.245-0.243-0.477-0.374-0.697l-0.375-0.621c-0.471-0.804-0.887-1.719-1.537-2.572c-0.157-0.206-0.356-0.435-0.535-0.603
			c-0.182-0.175-0.358-0.355-0.544-0.524c-0.37-0.34-0.751-0.665-1.138-0.979c-1.556-1.246-3.213-2.292-4.787-3.404
			c-1.584-1.109-3.058-2.291-4.319-3.734c-1.276-1.421-2.469-2.999-3.809-4.421c-0.495-0.551-0.975-1.12-1.462-1.69
			c0.035-0.11,0.064-0.222,0.077-0.343c0.131-1.324-0.221-0.984,0.88-1.349c0.719-0.239,1.271-0.433,2.035-0.469
			c1.183-0.055,1.065,0.011,1.863,0.659c1.594,1.293,3.101,1.837,5.131,1.606c1.188-0.135,0.648-0.492,1.441-1.283
			c0.323-0.322,1.26-0.492,1.691-0.539c0.688-0.074,1.257,0.169,1.816-0.232c0.475-0.338,1.118-1.415,1.555-1.879
			c1.054-1.117,2.062-1.975,2.396-3.384c0.004-0.018,0.009-0.035,0.014-0.053c0.235,0.149,0.465,0.305,0.686,0.471
			c0.142,0.107,0.272,0.224,0.405,0.339c0.042,0.052,0.085,0.101,0.126,0.152c0.326,0.406,0.642,0.823,0.959,1.245
			c0.304,0.409,0.577,0.826,0.831,1.271c0.506,0.887,0.926,1.839,1.361,2.809c0.436,0.966,0.895,1.961,1.467,2.898
			c0.029,0.046,0.057,0.09,0.084,0.135c-0.057,0.029-0.111,0.052-0.174,0.087c-0.908,0.528-1.379,2.791-2.563,2.933
			c-0.682,0.082-0.721-0.669-1.171-0.891c-0.569,1.088-1.542,1.775-2.831,1.269c-0.64-0.25-1.075-1.1-1.583-1.544
			c-0.883-0.77-1.502-1.136-2.666-1.162c-0.922-0.021-3.552-0.374-4.493,0.069c-0.353,0.165-0.467,0.593-0.667,0.93
			c-0.433,0.729-1.272,1.578-1.584,2.373c-0.641,1.631,1.005,1.895,2.313,2.185c1.264,0.281,1.953,0.862,2.895,1.58
			c1.581,1.207,4.354,2.059,6.208,2.547c0.697,0.184,2.618,0.489,4.181,0.304c-0.035,0.112-0.061,0.22-0.072,0.317
			c-0.084,0.745,0.328,1.99,0.775,2.62c0.738,1.044,2.336,1.354,3.365,1.879c0.676,0.346,1.377,0.755,2.119,0.938
			c0.262,0.063,0.609,0.118,0.98,0.156c-0.01,0.035-0.02,0.07-0.027,0.105c-0.318,1.262-0.602,2.521-0.902,3.783l-0.887,3.789
			c-0.266,1.293-0.469,2.591-0.646,3.879l-0.504,3.834c-0.143,1.016-0.248,2.043-0.336,3.067c-0.09-0.078-0.18-0.161-0.27-0.24
			c-0.189-0.513-0.379-1.028-0.564-1.541c-0.391-1.064-0.773-2.128-1.146-3.193l-0.275-0.8c-0.098-0.278-0.195-0.557-0.301-0.832
			c-0.209-0.551-0.443-1.097-0.695-1.63c-0.254-0.534-0.529-1.058-0.82-1.568c-0.145-0.255-0.295-0.508-0.447-0.757
			c-0.15-0.243-0.285-0.468-0.424-0.711C176.701,189.711,176.175,188.681,175.509,187.68z M175.486,134.5
			c-0.069-0.721,0.117-1.373,0.949-1.098C176.066,133.79,175.757,134.154,175.486,134.5z M175.907,135.87
			c-0.124-0.18-0.257-0.521-0.343-0.896C175.731,135.262,175.869,135.554,175.907,135.87z M203.125,125.373
			c1.521,0.673,1.061,1.289,0.887,2.646c-0.111,0.874,0.105,1.914,0.707,2.551c-0.086,0.084-0.176,0.167-0.256,0.256
			c-0.441,0.468-0.811,0.978-1.186,1.369c-0.178,0.176-0.381,0.311-0.629,0.436c-0.246,0.125-0.543,0.243-0.842,0.421
			c-0.01,0.006-0.021,0.014-0.031,0.02c-0.277-0.091-0.551-0.196-0.811-0.333c-0.395-0.207-0.732-0.475-1.104-0.686
			c-0.076-0.043-0.182-0.086-0.301-0.128c-0.014-0.804-0.055-1.606-0.135-2.41c-0.031-0.301-0.07-0.602-0.113-0.902
			c0.055-0.058,0.109-0.117,0.166-0.171c0.77-0.745,1.672-1.424,2.535-2.121C202.389,126.022,202.766,125.71,203.125,125.373z
			 M220.84,160.401c-0.063-0.094-0.109-0.2-0.143-0.315c0.172-0.254,0.373-0.496,0.588-0.729c0.102-0.111,0.213-0.217,0.322-0.323
			c-0.166,0.303-0.326,0.605-0.486,0.898C221.033,160.092,220.932,160.244,220.84,160.401z M187.65,167.25
			c0.018-0.589-0.006-1.216,0.078-1.695c0.082-0.526,0.291-1.109,0.348-1.826c0.049-0.68-0.021-1.288,0.002-1.827
			c-0.004-0.405,0.139-0.813,0.287-1.324c0.01,0.061,0.018,0.122,0.025,0.181c0.094,0.621,0.174,1.21,0.186,1.796l-0.016,1.879
			l-0.027,3.762l-0.008,1.057c0,0.013-0.002,0.025-0.002,0.038c-0.307-0.09-0.549-0.163-0.867-0.163
			C187.648,168.5,187.645,167.875,187.65,167.25z M175.003,131.536c-0.454-0.346-1.013-0.369-1.448-0.394
			c0.495-0.568,0.902-1.285,1.46-1.771c0.836-0.728,0.625-0.174,1.43-0.472c0.702-0.26,1.106-0.094,1.317-1.115
			c0.283-1.385-0.994-1.71-1.321-2.788c-0.284-0.938,0.437-1.503,0.421-2.348c-1.073-0.554-2.447,1.136-3.158,0.006
			c-0.314-0.498,0.19-1.621,0.061-2.231c-0.181-0.853-0.721-1.552-1.179-2.298c-0.087-0.142-0.155-0.271-0.215-0.396
			c0.061,0.08,0.116,0.164,0.18,0.241c0.79,0.956,1.768,1.74,2.8,2.375c1.195,0.747,2.455,1.346,3.654,1.995
			c0.602,0.965,1.258,1.881,1.879,2.799c0.352,0.518,0.693,1.036,1.008,1.566l0.121,0.202c0.045,0.08,0.096,0.158,0.15,0.232
			c0.105,0.149,0.223,0.286,0.336,0.408c0.199,0.213,0.371,0.391,0.506,0.572c-0.678,0.167-1.195,0.465-2.055,0.675
			c-1.18,0.288-2.426-0.069-3.623,0.096c-1.028,0.141-0.781,0.213-1.316,1.215c-0.232,0.433-0.651,0.928-0.979,1.451
			C175.021,131.548,175.013,131.543,175.003,131.536z M187.217,114.501c1.193,0.203,2.586-0.935,3.557,0.059
			c-0.059,1.464-0.498,2.434-1.002,3.791c0.363,0.589,1.316,0.429,2.398,0.032c0.055,0.237,0.109,0.476,0.166,0.712
			c0.174,0.734,0.346,1.464,0.51,2.194l-0.004,0.392l-0.029,4.038c-0.012,0.668,0.008,1.363-0.037,1.983
			c-0.021,0.312-0.061,0.626-0.107,0.946c-0.471-0.358-0.922-0.703-1.496-0.763c-0.131-0.4-0.262-0.801-0.391-1.199
			c-0.361-1.088-0.697-2.197-1.131-3.289c-0.434-1.089-0.984-2.162-1.738-3.098c-0.752-0.933-1.641-1.69-2.396-2.515
			c-0.744-0.81-1.277-1.813-1.871-2.813c-0.602-1.009-1.285-1.934-1.92-2.888c-0.025-0.04-0.051-0.08-0.078-0.119
			c-0.07-0.242-0.186-0.46-0.352-0.639c-0.09-0.21-0.172-0.424-0.252-0.639c1.039-0.554,2.258-2.13,2.938-2.487
			c0.713,2.109,3.098,2.03,4.965,1.605C188.426,111.226,187.133,112.968,187.217,114.501z M197.402,128.153l-0.012-0.919
			c-0.006-0.667-0.002-1.333,0.012-1.999c0.078,0.198,0.146,0.401,0.215,0.603c0.082,0.741,0.141,1.476,0.168,2.229
			c0.027,0.54,0.021,1.056,0.049,1.621c-0.074,0.184-0.143,0.371-0.191,0.562c-0.131-0.205-0.252-0.412-0.35-0.602
			c0.033-0.167,0.063-0.339,0.08-0.513C197.412,128.802,197.41,128.454,197.402,128.153z M183.846,127.678
			c-0.213-0.311-0.471-0.55-0.672-0.762c-0.1-0.107-0.189-0.209-0.27-0.315c-0.037-0.053-0.074-0.107-0.107-0.163l-0.125-0.202
			c-0.334-0.55-0.691-1.08-1.055-1.599c-0.299-0.428-0.602-0.85-0.898-1.271c0.252,0.171,0.5,0.351,0.738,0.541
			c0.23,0.169,0.428,0.374,0.643,0.558c0.191,0.204,0.393,0.403,0.572,0.618c0.336,0.416,0.697,0.946,1.082,1.408
			c0.41,0.505,0.824,0.993,1.209,1.486c-0.293,0.008-0.584,0.021-0.869,0.02c-0.021,0-0.039,0.001-0.059,0.001
			C183.975,127.893,183.916,127.786,183.846,127.678z M174.289,115.797c0.043,0.046,0.09,0.093,0.131,0.139
			c0.808,0.888,1.34,2.027,2.193,3.065c0.449,0.524,0.949,0.896,1.254,1.354c0.08,0.115,0.15,0.234,0.211,0.358l0.146,0.281
			c-0.842-0.422-1.676-0.838-2.46-1.318c-0.998-0.596-1.908-1.311-2.646-2.178c-0.285-0.336-0.535-0.698-0.771-1.072
			C172.693,116.042,173.454,115.915,174.289,115.797z M179.492,121.543c-0.16-0.264-0.316-0.529-0.463-0.798l-0.221-0.41
			c-0.08-0.155-0.174-0.306-0.275-0.449c-0.416-0.586-0.953-0.97-1.322-1.402c-0.709-0.828-1.254-1.89-2.043-2.817
			c0.958-0.162,1.855-0.422,2.191-1.148c1.635,1.044,3.404,1.375,4.195-0.896c0.035-0.095,0.063-0.193,0.086-0.291
			c0.041,0.137,0.084,0.272,0.123,0.41c0.305,1.079,0.613,2.208,1.24,3.203c0.621,0.993,1.463,1.785,2.191,2.624
			c0.717,0.843,1.389,1.757,2.021,2.678c0.316,0.462,0.623,0.933,0.92,1.408c0.297,0.479,0.592,0.95,0.824,1.441
			c0.229,0.486,0.424,1.021,0.568,1.535c0.139,0.52,0.203,1.061,0.26,1.622c0,0.01,0.002,0.02,0.002,0.03
			c-0.508,0.381-0.73,0.837-1.746,0.538c-0.758-0.224-1.131-0.638-1.828-0.786c-0.551-0.765-1.17-1.45-1.74-2.135
			c-0.381-0.448-0.693-0.899-1.109-1.404c-0.203-0.239-0.43-0.458-0.648-0.681c-0.236-0.2-0.461-0.422-0.711-0.602
			c-0.77-0.593-1.588-1.076-2.418-1.518C179.561,121.644,179.525,121.593,179.492,121.543z M222.068,156.633
			c-0.371,0.406-0.691,0.877-0.982,1.31c-0.139,0.207-0.273,0.415-0.41,0.623c0.111-0.96,0.295-1.966-0.152-2.452
			c-0.439-0.478-1.191-0.1-1.822-0.227c-0.92-0.183-1.73-0.818-2.371-1.506c0.857-0.308,1.627-0.623,2.025-0.742
			c1.4-0.417,2.893-0.989,4.385-0.837c0.861,0.085,1.967,0.365,2.77,0.722c0.209,0.093,0.402,0.207,0.584,0.332
			c-0.006,0.001-0.012,0.004-0.016,0.006c-0.99,0.43-1.947,0.962-2.809,1.643c-0.223,0.162-0.424,0.349-0.625,0.537
			C222.436,156.22,222.254,156.428,222.068,156.633z M193.924,183.92c-0.016-0.075-0.027-0.147-0.053-0.238
			c0.078,0,0.154,0,0.232-0.002C194.047,183.757,193.988,183.839,193.924,183.92z M192.721,183.784
			c0.07,0.081,0.078,0.101,0.09,0.135c0.01,0.011,0.033,0.145,0.053,0.239c0.068,0.396,0.092,0.813,0.092,1.24
			c-0.143,0.193-0.285,0.387-0.428,0.578c-0.217,0.298-0.418,0.558-0.654,0.816c-0.004-0.327-0.014-0.655-0.023-0.979
			c-0.018-0.525-0.039-1.047-0.057-1.564c0.043-0.212,0.086-0.425,0.127-0.637c0.23,0.022,0.461,0.038,0.695,0.048
			C192.656,183.711,192.693,183.755,192.721,183.784z M184.855,204.477l-0.023-2.297l-0.014-0.917l0.012-0.868
			c0.023-0.579,0.063-1.158,0.133-1.737c0.121-1.002,0.314-2,0.549-2.998c0.004,0.203,0.01,0.406,0.016,0.607
			c0.008,0.197,0.014,0.39,0.021,0.583c-0.143,0.505-0.27,1.059-0.314,1.622c-0.025,0.308-0.025,0.665-0.027,0.927l-0.008,0.84
			l-0.014,1.683l-0.021,2.877C185.063,204.687,184.957,204.585,184.855,204.477z M189.281,154.022
			c0.061,0.489,0.148,0.971,0.254,1.439l0.363,1.528c-0.139,0.682-0.26,1.373-0.346,2.076c-0.012-0.108-0.029-0.218-0.035-0.325
			c-0.02-0.291-0.02-0.575-0.027-0.92c-0.012-0.328-0.029-0.651-0.053-0.968C189.373,155.884,189.277,154.936,189.281,154.022z
			 M212.445,140.601c1.535-1.727,1.303-3.696,1.838-5.811c0.252-1.002,0.498-1.704,0.416-2.694c2.568-0.873,2.949,1.528,4.242,2.875
			c-0.107,0.587-0.297,1.158-0.602,1.668c-0.467,0.802-1.148,1.447-1.859,2.041c-0.709,0.593-1.477,1.155-2.08,1.884
			c-0.617,0.711-1.143,1.491-1.639,2.286c-0.217,0.344-0.422,0.697-0.635,1.039c-0.666-0.518-1.275-0.852-1.76-1.512
			C211.148,141.858,211.859,141.263,212.445,140.601z M191.779,145.635c0,0.025,0.004,0.055,0.004,0.08
			c-0.127,1.027-0.311,2.063-0.49,3.104c-0.102,0.586-0.199,1.182-0.283,1.781c-0.088,0.597-0.139,1.229-0.201,1.789
			c-0.047,0.413-0.102,0.833-0.158,1.256c-0.01-0.077-0.021-0.156-0.027-0.233c-0.047-0.531-0.041-1.08-0.027-1.636
			c0.018-0.557,0.047-1.122,0.055-1.7l-0.006-1.707l-0.008-1.675c0.008-0.368,0.064-0.743,0.135-1.131
			C191.109,145.541,191.445,145.552,191.779,145.635z M203.826,157.027l-0.117,0.19c-0.051,0.067-0.1,0.138-0.148,0.205
			c-0.957-0.254-1.896-0.415-2.797-0.184c-0.35,1.381,0.225,2.388,0.824,3.415c-0.23,0.374-0.463,0.747-0.705,1.118
			c-0.498,0.787-0.998,1.543-1.637,2.166c-0.35,0.336-0.699,0.69-1.033,1.067c-0.242-0.046-0.475-0.078-0.686-0.083
			c-1.049-0.024-1.645-0.093-2.574-0.39c-0.047,1.057,0.654,1.437,0.094,2.62c-0.25,0.523-0.801,0.956-1.262,1.306l-0.176-0.493
			c0-0.018,0-0.035,0-0.053l0.344-0.616c0.16-0.594,0.406-1.133,0.574-1.782c0.148-0.623,0.287-1.224,0.408-1.789
			c0.125-0.573,0.289-1.078,0.527-1.583c0.117-0.26,0.266-0.536,0.395-0.835c0.064-0.15,0.131-0.307,0.188-0.469l0.08-0.245
			l0.064-0.205c0.338-1.096,0.852-2.184,1.277-3.356c0.414-1.178,0.762-2.367,0.928-3.637c0.076-0.666,0.098-1.194,0.191-1.796
			c0.002-0.011,0.004-0.022,0.004-0.032c0.043-0.034,0.084-0.066,0.131-0.103c0.127-0.102,0.27-0.212,0.416-0.401
			c0.127-0.171,0.207-0.341,0.275-0.496c0.059-0.141,0.104-0.263,0.148-0.375c0.545-0.014,1.145-0.169,1.68-0.305
			c0.744,0.339,1.484,0.69,2.258,0.988c0.844,0.325,1.482,0.721,2.443,0.51c0.512-0.112,0.951-0.292,1.365-0.513
			c-0.719,1.237-1.404,2.49-2.096,3.737C204.756,155.418,204.311,156.234,203.826,157.027z M202.361,162.178
			c-0.035,0.041-0.072,0.083-0.109,0.124c0.029-0.064,0.057-0.129,0.084-0.194C202.346,162.13,202.354,162.154,202.361,162.178z
			 M199.025,165.177c0.229-0.253,0.467-0.503,0.715-0.75c0.184-0.186,0.354-0.382,0.516-0.582l-0.59,1.476
			C199.453,165.275,199.236,165.226,199.025,165.177z M197.369,151.459c-0.174,0.284-0.313,0.573-0.439,0.863
			c-0.254,0.581-0.451,1.164-0.643,1.738c-0.178,0.548-0.35,1.067-0.549,1.591c0.004-0.125,0.01-0.249,0.016-0.364
			c0.016-0.281,0.039-0.519,0.096-0.786l0.186-0.839l0.371-1.68l0.186-0.839l0.227-0.839l0.426-1.533
			c0.125,0.042,0.256,0.1,0.393,0.183c0.016,0.011,0.033,0.026,0.051,0.039c-0.01,0.222-0.021,0.441-0.047,0.665
			c-0.059,0.575-0.158,1.161-0.25,1.767l0,0L197.369,151.459z M201.109,165.257c0.164-0.249,0.328-0.493,0.496-0.73
			c0.287-0.392,0.604-0.773,0.928-1.157c-0.037,0.76-0.295,1.621-0.877,1.914c-0.186,0.094-0.396,0.142-0.619,0.163
			C201.061,165.384,201.086,165.32,201.109,165.257z M205.648,154.843c0.791-1.484,1.57-2.973,2.402-4.427
			c0.373-0.249,0.742-0.521,1.146-0.798c0.197-0.135,0.395-0.27,0.592-0.405c0.564-0.115,1.143-0.192,1.676-0.17
			c-0.043,0.04-0.09,0.076-0.131,0.117c-0.441,0.42-0.783,0.755-1.24,1.071c-0.445,0.322-0.936,0.638-1.406,1.042
			c-0.957,0.84-1.533,1.868-2.238,2.66c-0.268,0.304-0.537,0.613-0.805,0.921C205.645,154.85,205.646,154.847,205.648,154.843z
			 M204.781,157.776c0.123-0.167,0.248-0.333,0.373-0.499c0.682-0.886,1.408-1.739,2.152-2.603c0.779-0.923,1.336-1.914,2.094-2.587
			c0.389-0.344,0.85-0.653,1.32-1.003c0.234-0.174,0.473-0.361,0.701-0.57l0.619-0.6c0.061-0.058,0.127-0.111,0.189-0.169
			c-0.469,0.747-0.951,1.483-1.449,2.214c-0.59,0.863-1.166,1.705-1.822,2.493c-0.65,0.795-1.35,1.557-2.053,2.321
			c-0.389,0.419-0.775,0.839-1.16,1.265C205.424,157.96,205.104,157.87,204.781,157.776z M221.885,141.544
			c-0.443-0.003-0.881-0.033-1.301-0.135c-1.248-0.303-1.461-1.031-2.705-0.468c-1.313,0.592-2.141,1.357-3.152,2.372
			c-0.541,0.542-1.129,1.288-1.773,1.921c-0.004-0.048-0.006-0.093-0.012-0.142c-0.09-0.736-0.07-0.624-0.596-1.034
			c0.217-0.361,0.416-0.723,0.633-1.078c0.477-0.795,0.984-1.574,1.576-2.284c0.578-0.724,1.318-1.286,2.025-1.898
			c0.707-0.609,1.391-1.279,1.85-2.107c0.295-0.513,0.477-1.077,0.576-1.654c0.08,0.08,0.16,0.156,0.25,0.227
			c0.424,0.338,0.867,0.308,0.975,0.938c0.105,0.609-0.588,1.365-0.979,1.739c0.164,0.583,2.049,1.419,2.682,1.679
			c0.469,0.191,1.139,0.45,1.793,0.656C223.123,140.709,222.506,141.128,221.885,141.544z M205.846,133.078
			c-0.08,0.024-0.162,0.04-0.244,0.059c0.109-0.094,0.217-0.188,0.324-0.284C205.9,132.927,205.875,133.003,205.846,133.078z
			 M192.85,187.385c-0.029,0.131-0.063,0.26-0.105,0.389c-0.154,0.485-0.273,0.966-0.395,1.433
			c-0.117,0.468-0.234,0.922-0.371,1.356l-0.225,0.68c-0.082,0.24-0.146,0.485-0.217,0.727c-0.01,0.041-0.02,0.08-0.029,0.121
			c-0.01-0.447-0.016-0.893-0.029-1.342c0-0.015-0.002-0.028-0.002-0.044c0.088-0.369,0.174-0.745,0.242-1.134
			c0.092-0.492,0.131-1.015,0.146-1.507c0.357-0.432,0.699-0.88,1.035-1.34c-0.004,0.028-0.004,0.057-0.006,0.085
			C192.881,187,192.865,187.192,192.85,187.385z M212,156.632c-0.934-0.187-1.793-0.838-2.721-0.31
			c-0.588,0.336-0.949,1.143-0.83,1.796c-0.584,0.163-1.176,0.168-1.771,0.093c0.27-0.302,0.539-0.606,0.813-0.909
			c0.691-0.777,1.391-1.56,2.045-2.388c0.66-0.822,1.248-1.708,1.818-2.573c0.531-0.807,1.053-1.623,1.549-2.455
			c-0.104,1.047-0.688,2.117-0.84,3.168c-0.164,1.138-0.219,1.773,0.887,2.008c0.5,0.105,1.236-0.024,2.018-0.242
			C214.08,155.721,213.584,156.948,212,156.632z M227.336,141.982c-0.686-0.048-1.129-0.368-1.773-0.495
			c-0.617-0.121-1.43,0.022-2.068,0.023c-0.031,0-0.061,0.001-0.092,0.001c0.443-0.314,0.881-0.638,1.314-0.97
			c0.145,0.03,0.281,0.054,0.404,0.066c1.285,0.13,2.18-1.323,3.572-1.38c1.125-0.046,2.039,0.316,2.967,0.688
			c-0.08,0.085-0.16,0.168-0.244,0.244C230.262,141.201,228.924,142.092,227.336,141.982z M206.141,131.164
			c0.025,0.204,0.025,0.405,0.012,0.604c-0.572,0.508-1.154,1.004-1.744,1.5c-0.035,0.029-0.068,0.058-0.102,0.085
			c-0.098,0.008-0.195,0.011-0.293,0.014c0.09-0.114,0.178-0.229,0.27-0.343c0.523-0.643,1.08-1.262,1.645-1.874
			C205.998,131.158,206.066,131.164,206.141,131.164z M194.906,146.929c0.129,0.008,0.246,0.007,0.359,0.004
			c-0.041,0.215-0.086,0.429-0.125,0.644c-0.189,1.092-0.404,2.177-0.633,3.263c-0.4,1.909-0.836,3.819-1.225,5.747
			c-0.168,0.573-0.34,1.145-0.518,1.717c0.002-0.097,0.006-0.194,0.01-0.292c0-0.056,0.004-0.111,0.006-0.168
			c0.014-0.102,0.025-0.204,0.039-0.305l0.238-1.699c0.084-0.552,0.184-1.144,0.248-1.731c0.133-1.175,0.168-2.353,0.164-3.515
			c-0.004-0.435-0.008-0.824,0.01-1.22c0.324-0.828,0.654-1.661,0.967-2.513C194.592,146.893,194.74,146.919,194.906,146.929z
			 M182.227,113.913c0.301,0.458,0.596,0.917,0.867,1.383c0.566,0.982,1.104,2.044,1.908,2.949c0.787,0.881,1.65,1.639,2.332,2.514
			c0.678,0.87,1.18,1.874,1.584,2.925c0.041,0.112,0.08,0.227,0.121,0.34c-0.139-0.229-0.283-0.453-0.424-0.674
			c-0.309-0.478-0.625-0.95-0.953-1.414c-0.66-0.93-1.34-1.831-2.098-2.695c-0.766-0.851-1.594-1.613-2.186-2.536
			C182.832,115.869,182.521,114.899,182.227,113.913z M184.898,207.446c0.084,0.137,0.164,0.274,0.244,0.415l-0.008,0.797
			l-0.021,2.976c-0.025-0.138-0.055-0.278-0.08-0.418C184.963,209.965,184.924,208.707,184.898,207.446z M222.945,156.934
			c-0.158,0.149-0.32,0.294-0.486,0.438c0.061-0.078,0.117-0.161,0.186-0.236c0.166-0.19,0.328-0.382,0.518-0.551
			c0.184-0.176,0.365-0.352,0.57-0.505c0.25-0.204,0.514-0.392,0.783-0.572c-0.326,0.269-0.648,0.551-0.959,0.854
			C223.352,156.553,223.146,156.746,222.945,156.934z M240.875,141.875c0.227,1.401,0.809,2.822,0.17,4.268
			c-0.043,0.1-0.098,0.198-0.158,0.294c-0.225-0.001-0.449-0.041-0.725-0.219c-0.824-0.531-1.033-1.651-1.549-2.355
			c-0.361-0.496-0.578-0.619-0.768-1.089c1.02-0.416,1.951-0.985,2.846-1.613C240.775,141.407,240.838,141.652,240.875,141.875z
			 M193.732,129.317c-0.023-0.011-0.047-0.022-0.07-0.034c0.018-0.125,0.035-0.253,0.053-0.381
			C193.721,129.042,193.727,129.181,193.732,129.317z M174.443,132.083c-0.133-0.038-0.268-0.073-0.4-0.117
			c-0.044-0.015-0.091-0.029-0.136-0.046C174.126,131.952,174.286,131.993,174.443,132.083z M188.682,145.933l-0.012,1.614
			l-0.006,0.944l-0.002,0.472c-0.002,0.173,0.004,0.339,0.01,0.5c0.014,0.32-0.047,0.623-0.057,0.901
			c-0.01,0.293-0.209,0.476-0.209,0.728v0.001c0-0.626-0.086-1.256-0.271-1.882c-0.176-0.59-0.338-1.169-0.551-1.74l-0.57-1.523
			C187.543,146.033,188.105,146.033,188.682,145.933z M184.217,169.513l-0.828-1.336c-0.576-0.936-1.143-1.875-1.684-2.825
			c-0.27-0.475-0.533-0.953-0.787-1.435c-0.268-0.494-0.484-0.934-0.689-1.452c-0.127-0.295-0.258-0.604-0.418-0.913
			c0.818,0.707,1.676,1.381,2.48,2.05c0.852,0.706,1.629,1.435,2.164,2.292c0.541,0.852,0.824,1.855,0.975,2.909
			c0.033,0.218,0.059,0.44,0.084,0.662C185.084,169.511,184.646,169.531,184.217,169.513z M179.615,201.896
			c0.184,0.167,0.367,0.331,0.547,0.497c0.566,1.609,1.133,3.215,1.668,4.822l0.094,0.287c-0.012,0.516-0.021,1.032-0.027,1.548
			c-0.023-0.048-0.045-0.097-0.068-0.145c-0.354-0.746-0.711-1.47-1.027-2.193c-0.32-0.729-0.57-1.434-0.791-2.21
			c-0.283-0.979-0.537-2.017-0.859-3.047C179.305,201.602,179.461,201.752,179.615,201.896z M194.324,186.992
			c0.014-0.125,0.025-0.246,0.035-0.361c0.023-0.24,0.045-0.465,0.078-0.677c0.016-0.105,0.037-0.208,0.057-0.307l0.037-0.146
			c0.01-0.029,0.02-0.056,0.033-0.091c0.121-0.294,0.42-0.663,0.717-1.087c0.146-0.215,0.275-0.43,0.396-0.642
			c0.201,0.004,0.4,0.013,0.602,0.023c-0.451,0.696-0.879,1.407-1.271,2.141c-0.01,0.017-0.018,0.035-0.027,0.054
			C194.76,186.258,194.539,186.621,194.324,186.992z M221.945,160.376c0.451-0.861,0.844-1.7,1.385-2.424
			c0.537-0.739,1.193-1.363,1.924-1.967c0.242-0.204,0.494-0.394,0.744-0.585c0.268-0.093,0.547-0.173,0.832-0.254
			c0.219-0.063,0.441-0.13,0.666-0.21c0.064,0.043,0.129,0.088,0.199,0.13c0.973,0.582,2.582,1.071,1.846,2.641
			c-1.027,0.451-2.039-0.857-3.189-0.256c-1.418,0.739-2.453,3.162-3.975,3.375c-0.27,0.038-0.496,0.044-0.693,0.024
			C221.771,160.692,221.863,160.535,221.945,160.376z M237.779,142.596c-0.025-0.083-0.053-0.173-0.078-0.275
			c-0.178-0.698-0.338-1.366-0.564-2.057c-0.041-0.12-0.08-0.227-0.117-0.328c0.002,0,0.006-0.001,0.008-0.003
			c0.594-0.216,1.287-0.765,1.943-0.625c0.82,0.174,1.369,0.942,1.67,1.719C239.734,141.644,238.797,142.199,237.779,142.596z
			 M201.648,125.857l-1.32,1.027c-0.385,0.303-0.771,0.617-1.143,0.961c-0.133-0.739-0.305-1.474-0.539-2.195
			c-0.102-0.27-0.188-0.543-0.299-0.81c-0.021-0.149-0.043-0.3-0.064-0.448c-0.139-1.052-0.191-2.121-0.205-3.194
			c0.33,0.727,0.385,1.608,0.883,2.304c0.871,1.215,2.291,1.242,3.563,1.644C202.242,125.39,201.947,125.626,201.648,125.857z
			 M165.915,129.036c-0.365,0.673-0.916,1.331-0.673,2.112c0.192,0.621,1.103,1.509,1.723,1.713
			c0.694,0.228,1.516,0.073,2.242,0.088c1.563,0.035,2.438-0.096,3.479-0.96c0.404,0.138,0.804,0.27,1.206,0.419
			c0.229,0.08,0.461,0.149,0.694,0.215c-0.017,0.121-0.021,0.242-0.008,0.363c0.07,0.623,0.451,1.144,0.788,1.664
			c-0.879,1.164-1.221,2.093-1.228,2.815c-0.003,0.448,0.283,1.783,0.574,2.164c0.917,1.2,3.479,1.07,4.612,1.651
			c1.02,0.524,0.693,1.739,1.824,2.278c0.582,0.277,1.213,0.188,1.814,0.409c0.703,0.257,1.289,0.78,1.92,1.158
			c0.324,0.194,0.646,0.357,0.973,0.491c0.041,0.171,0.088,0.343,0.141,0.516l0.633,1.702c0.199,0.558,0.383,1.117,0.543,1.681
			c0.303,1.068,0.342,2.237,0.32,3.413c-0.023,1.177-0.123,2.371-0.156,3.598c-0.055,1.255,0.178,2.489-0.078,3.449
			c-0.066,0.256-0.168,0.533-0.258,0.848c-0.092,0.306-0.168,0.684-0.178,1.029c-0.029,0.659,0.025,1.255-0.021,1.773
			c-0.037,0.488-0.238,1.048-0.359,1.705c-0.064,0.323-0.086,0.706-0.094,0.988l-0.012,0.423c-0.189-0.541-0.436-1.069-0.758-1.56
			c-0.678-1.047-1.588-1.852-2.471-2.566c-0.896-0.721-1.773-1.383-2.623-2.105c-0.854-0.714-1.691-1.452-2.516-2.205
			c-0.824-0.755-1.639-1.523-2.447-2.299c-0.129-0.124-0.255-0.246-0.381-0.37c0.334-1.081,0.594-2.198,0.292-3.221
			c-0.143-0.485-0.659-1.063-0.765-1.647c-0.228-1.268,0.322-2.592,0.705-3.786c-0.852-0.183-0.623-0.686-1.299-1.448
			c-1.125-1.269-2.593-1.205-4.023-0.514c0.363-2.263,1.946-4.469,1.001-6.682c-0.367-0.858-2.246-1.269-3.128-1.658
			c-0.559-0.159-1.108-0.341-1.65-0.549c-0.451-0.217-0.811-0.533-1.077-0.949c-0.844-0.506-2.655-0.375-3.155-1.317
			c-0.203-0.382-0.189-0.781-0.304-1.181c0.298-0.138,0.626-0.371,0.954-0.624C163.852,131.158,164.892,130.118,165.915,129.036z
			 M156.808,167.535c1.154,1.317,2.197,2.715,3.374,4.071c0.414,0.479,0.854,0.947,1.314,1.396c-0.912-0.69-1.86-1.309-2.788-1.915
			c-0.514-0.97-1-2-1.578-2.998L156.808,167.535z M177.613,197.457c-0.322-0.728-0.74-1.47-1.316-2.105l-0.195-1.041
			c-0.1-0.686-0.059-1.442-0.036-2.249c0.042,0.072,0.085,0.146,0.127,0.217c0.141,0.236,0.276,0.475,0.409,0.714
			c0.266,0.48,0.512,0.967,0.738,1.462c0.225,0.496,0.432,0.997,0.617,1.511c0.096,0.256,0.184,0.514,0.268,0.774l0.27,0.814
			c0.164,0.492,0.334,0.979,0.5,1.469c-0.125-0.126-0.26-0.25-0.385-0.378c-0.307-0.316-0.609-0.649-0.912-0.986
			C177.668,197.591,177.643,197.524,177.613,197.457z M196.838,120.964c-0.092-0.293-0.178-0.588-0.264-0.885
			c0.141,0.008,0.273,0.022,0.393,0.051C196.92,120.407,196.877,120.686,196.838,120.964z M195.916,117.528
			c-0.059-0.237-0.115-0.475-0.172-0.712c0.189-0.07,0.361-0.125,0.5-0.147C196.236,116.876,196.096,117.184,195.916,117.528z
			 M154.823,166.295c0.052,0.129,0.11,0.257,0.165,0.387c-0.034-0.059-0.069-0.118-0.104-0.177c-0.037-0.066-0.076-0.13-0.113-0.197
			C154.788,166.304,154.806,166.3,154.823,166.295z M197.334,199.543c-0.322,0.224-0.656,0.433-1.004,0.64
			c-0.184,0.11-0.32,0.187-0.504,0.279l-0.564,0.294c-0.197,0.109-0.396,0.218-0.627,0.404c-0.129,0.112-0.23,0.224-0.314,0.332
			c0.01-1.459-0.115-2.864-0.131-4.224c0-0.461-0.006-0.928,0.039-1.322c0.043-0.419,0.137-0.864,0.227-1.35
			c0.09-0.476,0.172-1.021,0.18-1.553c0.01-0.479,0.021-0.941,0.055-1.384c0.035-0.441,0.096-0.864,0.199-1.278
			c0.094-0.401,0.268-0.843,0.41-1.277c0.324-0.859,0.689-1.707,1.107-2.533c0.229-0.441,0.469-0.877,0.719-1.309
			c-0.008,0.113,0.018,0.246,0.102,0.407c0.176,0.346,0.656,0.357,0.811,0.701c0.133,0.293-0.084,0.596,0.004,0.88
			c0.33,1.062,0.689,0.326,1.561,0.918c0.406,0.275,0.756,1.002,0.787,1.466c0.494,0.083,0.914-0.012,1.277,0.307
			c0.377,0.33,0.348,1.111,0.744,1.429c0.936,0.192,1.873,0.13,2.807-0.188c0.857-0.046,1.715-0.093,2.57-0.139
			c0.18,0,0.334,0.004,0.469,0.013c-0.42,0.189-0.867,0.364-1.34,0.596c-0.395,0.191-0.809,0.471-1.131,0.758
			c-0.332,0.285-0.629,0.577-0.926,0.852c-0.301,0.281-0.572,0.506-0.908,0.756l-0.986,0.736c-0.664,0.493-1.338,0.997-1.98,1.553
			C199.695,197.424,198.611,198.66,197.334,199.543z M209.646,186.2c-0.822-0.21-5.295,0.522-4.793-1.358
			c1.959-0.184,2.234-3.7,3.357-5.019c0.787-0.917,2.158-1.313,3.373-1.403c1.168-0.089,1.666,0.421,2.645,0.913
			c1.012,0.51,1.789,0.896,2.383,1.475c-0.072,0.065-0.146,0.128-0.217,0.195c-0.605,0.58-1.182,1.195-1.709,1.857
			c-0.266,0.33-0.516,0.672-0.752,1.029c-0.111,0.17-0.24,0.375-0.336,0.584c-0.1,0.207-0.176,0.416-0.244,0.62
			c-0.137,0.409-0.242,0.796-0.391,1.134c-0.139,0.332-0.361,0.626-0.607,0.972c-0.121,0.171-0.248,0.353-0.363,0.557
			c-0.102,0.186-0.189,0.328-0.303,0.49c-0.217,0.311-0.471,0.605-0.746,0.883c-0.234,0.237-0.486,0.459-0.744,0.673
			C210.855,188.502,211.158,186.585,209.646,186.2z M143.577,188.409c0.331,0.24,0.673,0.465,1.025,0.673
			c-0.428-0.196-0.84-0.426-1.232-0.688C143.437,188.399,143.506,188.403,143.577,188.409z M210.402,76.659
			c0.525-1.088,1.105-2.143,1.701-3.194c0.066-0.118,0.129-0.238,0.195-0.357c0.055,0.141,0.105,0.285,0.141,0.437
			c0.256,1.073,0.006,1.754,0.463,2.799c0.59,1.357,0.924,2.341,0.955,3.851c0.023,1.193,0.32,3.217,0.016,4.286
			c-0.264,0.922,0.299,0.819-1.025,1.564c-1.238,0.695-3.039,0.902-4.188,0.032c-2.018-1.531-1.025-4.127,0.113-6.5
			C209.35,78.622,209.9,77.654,210.402,76.659z M205.375,69.007c-0.18,0-0.367-0.009-0.578-0.081c0.143-0.266,0.365-0.5,0.631-0.719
			C205.439,68.472,205.416,68.74,205.375,69.007z M178.814,50.34c2.074,0.371,4.039-0.056,6.053,0.674
			c0.176,0.646,0.252,1.299,0.252,1.954c-0.379,0.313-0.963,0.274-1.529,0.358c-0.592-0.934-1.703-2.01-2.539-2.258
			c-1.396-0.413-1.637,1.929-3.178,1.702c-0.586-1.02-0.941-2.064-1.453-3.072C177.258,50.047,178.428,50.271,178.814,50.34z
			 M156.817,63.12c0.217-0.046,0.439-0.066,0.661-0.077c-0.459,0.198-0.965,0.355-1.469,0.472
			C156.228,63.301,156.522,63.184,156.817,63.12z M156.525,124.042c0.199,0.059,0.607,0.346,0.869,0.461
			c0.624,0.272,1.175,0.212,1.879,0.407c0.097,0.458,0.029,0.805,0.032,1.274c0.004,0.731,0.202,0.874,0.362,1.488
			c0.246,0.939-0.02,1.997,0.022,2.984c-0.746,0.101-1.524,0.488-2.253,0.479c-0.94-1.088-0.789-3.286-0.835-4.558
			c-0.031-0.852-0.047-2.167-0.814-2.68C156.006,123.925,156.25,123.961,156.525,124.042z M151.698,191.05
			c0.149,0.003,0.298-0.478,0.447-0.477l4.904-0.435h0.063c-1.016,0-2.016,0.797-3.018,0.782
			C153.292,190.924,152.493,191.268,151.698,191.05z M180.195,308.511h0.012h-0.02C180.189,308.493,180.191,308.527,180.195,308.511
			z M205.484,197.655c-0.355,0.118-0.719,0.211-1.09,0.284c0.605-0.239,1.26-0.412,1.926-0.614
			C206.039,197.45,205.771,197.563,205.484,197.655z M211.758,194.948c-0.654,0.352-1.355,0.653-2.055,0.952l-0.941,0.388
			c1.094-0.575,2.152-1.185,3.238-1.722c0.607-0.306,1.25-0.575,1.887-0.874c-0.055,0.032-0.109,0.063-0.162,0.095
			C213.064,194.187,212.418,194.593,211.758,194.948z M224.416,188.086c-0.352-0.096-0.705-0.244-1.09-0.355
			c-0.191-0.058-0.398-0.103-0.611-0.118c0.197-0.125,0.398-0.247,0.605-0.357c0.191-0.107,0.389-0.21,0.584-0.313
			c0.213,0.369,0.426,0.765,0.613,1.166C224.484,188.1,224.451,188.095,224.416,188.086z"/>
	</g>
</g>
</svg>
