<?xml version="1.0" encoding="utf-8"?>
<!-- Generator: Adobe Illustrator 16.0.0, SVG Export Plug-In . SVG Version: 6.00 Build 0)  -->
<!DOCTYPE svg PUBLIC "-//W3C//DTD SVG 1.1//EN" "http://www.w3.org/Graphics/SVG/1.1/DTD/svg11.dtd">
<svg version="1.1" id="Layer_1" xmlns="http://www.w3.org/2000/svg" xmlns:xlink="http://www.w3.org/1999/xlink" x="0px" y="0px"
	 width="350px" height="350px" viewBox="0 0 350 350" enable-background="new 0 0 350 350" xml:space="preserve">
<g>
	<ellipse fill="#C6C2AF" cx="175.001" cy="285.683" rx="50.952" ry="20.225"/>
	<g>
		<g>
			<g>
				<path fill="#94C85B" d="M177.005,185.588c0,0-34.836-4.105-49.575-25.545c-14.737-21.439-17.068-65.689,0-87.131
					c17.066-21.442,47.951-37.862,71.521-23.265c23.567,14.599,46.326,72.535,30.068,101.271
					C212.768,179.658,189.198,184.22,177.005,185.588z"/>
			</g>
			<path fill="#89B74E" d="M177.005,185.588c12.193-1.368,35.763-5.93,52.015-34.67c16.258-28.736-6.501-86.672-30.068-101.271
				c-9.857-6.104-20.989-6.77-31.857-3.928l0,0c0,0,13.938,2.388,25.805,10.331c11.867,7.942,41.471,75.075,10.786,97.658
				c-30.683,22.582-76.255,6.336-76.255,6.336C142.168,181.482,177.005,185.588,177.005,185.588z"/>
		</g>
		<g>
			<path fill="#695020" d="M163.06,290.544c0,0,4.452-127.286,3.177-131.305c-1.269-4.029-17.154-22.423-17.154-22.423
				s20.332,16.671,22.239,9.774c1.907-6.897,5.717-59.207,5.717-59.207s1.271,52.882,6.354,52.31
				c5.081-0.577,26.05-21.268,26.05-21.268s-24.145,27.59-24.145,37.938c0,10.343,1.909,134.181,1.909,134.181H163.06z"/>
		</g>
	</g>
</g>
</svg>
