<?xml version="1.0" encoding="utf-8"?>
<!-- Generator: Adobe Illustrator 16.0.0, SVG Export Plug-In . SVG Version: 6.00 Build 0)  -->
<!DOCTYPE svg PUBLIC "-//W3C//DTD SVG 1.1//EN" "http://www.w3.org/Graphics/SVG/1.1/DTD/svg11.dtd">
<svg version="1.1" id="Layer_1" xmlns="http://www.w3.org/2000/svg" xmlns:xlink="http://www.w3.org/1999/xlink" x="0px" y="0px"
	 width="350px" height="350px" viewBox="0 0 350 350" enable-background="new 0 0 350 350" xml:space="preserve">
<g>
	<g>
		<path fill="#65853A" d="M276.195,114.935c0.459-4.954-1.588-9.88-4.615-13.828c-3.168-4.135-7.715-7.416-12.884-8.405
			c-1.924-0.37-3.879-0.489-5.834-0.536c-0.777-0.02-3.982-0.582-4.606-0.005c2.153-1.992,2.596-5.25,2.271-8.165
			c-0.677-6.096-4.23-11.748-9.287-15.184c-8.122-5.519-19.33-8.435-29.089-6.67c-2.91,0.526-5.752,1.515-8.362,2.923
			c-3.846-2.13-8.247-3.197-12.412-2.476c-1.762,0.306-3.459,0.851-5.13,1.462c-0.664,0.243-3.579,0.8-3.897,1.537
			c1.098-2.547,0.288-5.687-1.044-8.253c-2.787-5.367-7.847-9.365-13.374-10.824c-8.875-2.345-19.414-1.269-27.027,3.619
			c-3.614,2.318-6.655,5.649-8.631,9.626c-1.642,3.307-3.618,8.898-2.056,12.646c0.226,0.546,0.718,0.979,0.787,1.584
			c-2.346-0.667-4.15-2.33-6.695-2.809c-2.532-0.476-5.113-0.494-7.609-0.097c-7.32,1.166-14.518,6.074-16.34,13.99
			c-0.333,1.446-0.475,2.917-0.458,4.393c-0.729-0.14-1.484-0.178-2.183-0.115c-2.136,0.188-4.382,1.325-5.898,3.076
			c-1.836,2.12-2.311,4.871-1.565,7.057c0.124,0.36,0.104,0.729,0.498,0.889c-0.588-0.222-1.147-0.256-1.808-0.273
			c-3.938-0.103-8.441,0.214-12.12,2.979c-2.589,1.945-4.289,4.881-5.165,7.785c-0.918,3.041-0.937,6.265,0.387,8.754
			c0.492,0.926,1.118,1.757,1.778,2.559c0.262,0.317,1.108,1.838,1.609,1.839c-1.729-0.003-3.481,1.221-4.796,2.604
			c-2.751,2.889-4.279,6.735-4.193,10.23c0.135,5.613,2.628,11.339,6.907,14.475c2.031,1.488,4.572,2.405,7.315,2.56
			c2.282,0.129,6.001-0.109,7.989-1.91c0.29-0.26,0.464-0.646,0.818-0.832c0.008,1.495-0.681,2.924-0.525,4.487
			c0.156,1.555,0.597,3.024,1.272,4.347c1.294,2.526,3.548,4.612,6.365,5.527c-0.003,1.738,0.208,3.481,0.636,5.161
			c1.721,6.744,6.792,12.543,13.244,15.149c5.844,2.359,18.193,2.806,21.977-3.591c-0.114,2.954,0.873,6.073,3.153,7.957
			c4.131,3.41,8.957,1.415,13.403,0.247c0,0.269-0.093,0.606-0.287,0.819c-2.463,2.699,0.481,9.293,2.319,11.543
			c2.66,3.256,6.786,5.049,10.943,5.679c6.751,1.024,12.553-1.772,15.752-7.841c0.169-0.319,0.312-0.647,0.462-0.972
			c-0.934,6.162,7.917,12.075,12.97,12.864c5.867,0.916,12.15-1.824,15.473-6.747c2.251-3.336,3.932-9.027,2.454-12.994
			c-0.169-0.451-0.831-1.207-0.81-1.67c0.306,0.184,0.525,0.486,0.748,0.755c0.323,0.39,0.608,0.63,1.001,0.957
			c0.844,0.704,1.675,0.946,2.689,1.245c3.688,1.088,8.157-1.305,10.592-4.016c2.386-2.654,3.567-6.396,2.972-9.914
			c-0.722-4.264-4.031-7.592-8.054-8.941c-0.662-0.223-1.164-0.617-1.876-0.326c0.756-0.328,1.353-0.743,1.946-1.228
			c1.885-1.081,3.524-2.613,4.847-4.588c0.471-0.504,0.931-1.017,1.372-1.544c0.065,5.796,8.24,11.137,13.024,11.885
			c5.867,0.917,12.15-1.823,15.473-6.746c2.251-3.336,3.932-9.027,2.454-12.995c-0.169-0.452-0.831-1.206-0.81-1.671
			c0.306,0.186,0.525,0.488,0.748,0.756c0.323,0.39,0.608,0.63,1,0.956c0.845,0.706,1.676,0.947,2.69,1.245
			c3.688,1.088,8.157-1.305,10.592-4.016c2.387-2.654,3.567-6.395,2.972-9.912c-0.722-4.264-4.031-7.592-8.054-8.943
			c-0.662-0.222-1.164-0.617-1.876-0.326c1.042-0.453,1.784-1.063,2.631-1.81C270.396,127.489,275.542,121.977,276.195,114.935z"/>
	</g>
	<g>
		<path fill="#784725" d="M137.945,298.416c0.17,0.409,0.474,0.782,0.926,1.062c0.71,0.438,1.448,0.766,2.203,1.015
			c4.464,1.469,9.593,0.068,14.171,1.001c6.17,1.255,11.935,3.833,18.365,3.036c3.136-0.388,5.962-1.831,9.032-2.46
			c3.208-0.656,6.489,0.328,9.676,0.764c3.463,0.476,6.815,0.826,10.305,0.438c1.601-0.18,3.601-0.083,5.064-0.778
			c1.276-0.605,2.928-0.804,4.316-0.872c0.353-0.02,0.69-0.197,0.949-0.454c0.53-0.522,0.729-1.378,0.032-1.917
			c-1.392-1.079-2.96-1.361-4.583-1.495c-0.243-0.065-0.486-0.133-0.73-0.207c-1.079-0.331-2.175-0.276-3.277-0.158
			c-2.783-0.349-5.957-0.128-8.327-1.797c-1.757-1.238-3.354-2.188-4.607-4.019c-2.867-4.185-5.272-9.038-6.729-13.89
			c-1.717-5.71-2.551-11.603-3.123-17.524c-0.528-5.467-1.213-10.965-1.208-16.465c0.016-15.738,4.896-31.381,14.505-43.623
			c3.262-3.198,6.771-6.126,10.692-8.684c0.956-0.624,1.021-1.644,0.598-2.384c0.019-0.014,0.037-0.028,0.056-0.042
			c0.176-0.133,0.021-0.426-0.178-0.304c-0.028,0.017-0.056,0.035-0.086,0.053c-0.483-0.566-1.298-0.847-2.184-0.393
			c-0.042,0.021-0.083,0.045-0.125,0.066c-0.398,0.084-0.795,0.172-1.187,0.264c0.146-0.117,0.289-0.241,0.417-0.379
			c0.413-0.442,0.479-1.198,0-1.632c-2.081-1.888-5.656-0.779-8.025,0.037c-3.067,1.057-6.017,2.473-8.725,4.265
			c-2.68,1.774-5.143,3.765-7.377,6.078c-1.63,1.688-3.678,3.594-3.937,6.01c-0.084,0.056-0.159,0.126-0.228,0.202
			c-2.457-5.41-2.058-11.622-2.587-17.423c-0.345-3.775-0.021-8.971-3.451-11.48c-3.703-2.705-8.49,0.184-10.814,3.29
			c-0.599,0.8-1.141,1.665-1.629,2.572c-0.173-0.725-0.36-1.445-0.583-2.149c-0.525-1.671-1.199-3.464-2.188-4.925
			c-0.744-1.096-1.263-2.565-2.613-2.966c-0.237-0.07-0.557-0.003-0.724,0.191c-0.91,1.064-0.523,2.267-0.206,3.54
			c0.41,1.64,1.043,3.177,1.425,4.823c-0.552,2.604-0.567,5.119-0.153,7.785c-0.628,4.834-0.351,9.953,0.312,14.73
			c0.544,3.913,1.352,7.771,3.544,11.129c0.412,0.63,0.854,1.202,1.332,1.751c-1.885-1.226-4.098-2.483-6.146-2.498
			c-0.363-0.257-0.731-0.505-1.115-0.723c-0.991-0.564-2.288-0.758-3.214-1.351c-1.124-0.72-2.228,0.864-1.376,1.785
			c0.232,0.253,0.463,0.5,0.694,0.748c2.316,2.489,4.544,4.842,6.23,7.89c1.777,3.213,3.376,6.578,4.772,9.974
			c0.232,0.565,0.447,1.135,0.656,1.705c-0.123,8.146-0.43,16.324-1.479,24.4c-0.256,0.138-0.502,0.306-0.745,0.485
			c0.02,0.021,0.043,0.04,0.07,0.055c0.162-0.041,0.329-0.075,0.496-0.106c-0.167,0.031-1.436,0.065-1.598,0.106
			c-0.072,0.019-1.317,0.032-1.317,0.053v-0.003c0,0.912-1.105,2.213-1.79,3.216c-1.625,2.379-2.016,5.347-2.508,8.168
			c-0.606,3.472-0.496,7.21,0.577,10.622c0.206,0.655,0.604,1.32,0.914,1.972c-0.012,0.038,0.041,0.073,0.026,0.109
			c-0.472,1.242-0.958,2.455-1.543,3.618c-1.108,2.204-2.377,4.343-4.089,6.139c-1.612,1.693-2.993,3.736-4.932,5.096
			C137.886,296.244,137.537,297.438,137.945,298.416z M148.005,292.855c-0.225,0.304-0.452,0.607-0.685,0.907
			C147.553,293.463,147.78,293.159,148.005,292.855z M159.938,257.111c0.003,0.001,0.006,0.003,0.01,0.004
			C159.944,257.114,159.941,257.112,159.938,257.111z M158.345,256.516c0.037,0.008,0.076,0.017,0.115,0.026
			C158.421,256.532,158.382,256.523,158.345,256.516z M157.977,256.44c0.008,0.002,0.016,0.002,0.023,0.003
			C157.992,256.442,157.984,256.442,157.977,256.44z M157.065,256.341c0.084,0.005,0.167,0.011,0.249,0.018
			C157.231,256.352,157.149,256.346,157.065,256.341z M161.442,254.03v0.002l0,0V254.03z M153.199,285.557L153.199,285.557
			L153.199,285.557L153.199,285.557z M148.692,291.896c-0.161,0.229-0.325,0.458-0.49,0.686
			C148.368,292.354,148.532,292.126,148.692,291.896z M149.411,290.861c-0.176,0.259-0.354,0.517-0.533,0.773
			C149.057,291.378,149.235,291.12,149.411,290.861z M149.942,280.958c0.038,0.021,0.076,0.042,0.114,0.063
			C150.019,281,149.98,280.979,149.942,280.958z M152.045,281.953c0.003,0.001,0.008,0.003,0.011,0.004
			C152.053,281.956,152.048,281.954,152.045,281.953z M150.427,281.217c0.033,0.018,0.065,0.034,0.097,0.052
			C150.493,281.251,150.46,281.234,150.427,281.217z M155.654,256.386c-0.126,0.015-0.252,0.033-0.377,0.054
			C155.401,256.419,155.528,256.4,155.654,256.386z M156.307,256.333c-0.167,0.006-0.331,0.019-0.494,0.034
			C155.977,256.352,156.14,256.339,156.307,256.333z M156.815,257.013c-0.108,0-0.215,0-0.323,0
			C156.6,257.013,156.708,257.013,156.815,257.013z M161.091,229.915c0.112,0.451,0.21,0.901,0.299,1.351
			C161.302,230.816,161.204,230.366,161.091,229.915z M162.059,238.76c-0.001-0.4-0.004-0.8-0.014-1.198
			C162.055,237.96,162.058,238.359,162.059,238.76z M161.668,232.858c-0.064-0.437-0.139-0.871-0.221-1.308
			C161.529,231.987,161.604,232.422,161.668,232.858z M161.844,234.286c-0.041-0.397-0.09-0.797-0.145-1.194
			C161.754,233.489,161.804,233.889,161.844,234.286z M161.97,235.808c-0.028-0.434-0.061-0.866-0.103-1.3
			C161.91,234.941,161.942,235.374,161.97,235.808z M162.043,237.428c-0.012-0.434-0.031-0.867-0.054-1.299
			C162.013,236.561,162.033,236.994,162.043,237.428z M161.88,243.975c-0.001,0.031-0.003,0.063-0.006,0.097
			C161.877,244.038,161.878,244.006,161.88,243.975z M161.977,242.155c-0.017,0.346-0.034,0.69-0.053,1.035
			C161.942,242.846,161.961,242.501,161.977,242.155z M162.028,240.76c-0.01,0.308-0.021,0.614-0.033,0.922
			C162.008,241.374,162.019,241.067,162.028,240.76z M162.058,239.123c-0.001,0.407-0.008,0.814-0.017,1.221
			C162.05,239.938,162.056,239.53,162.058,239.123z"/>
		<path fill="#5C3418" d="M154.628,256.57c-0.07,0.019-0.144,0.032-0.214,0.053v-0.003c0.047-0.036,0.097-0.068,0.144-0.104
			C154.578,256.537,154.602,256.556,154.628,256.57z"/>
		
			<ellipse transform="matrix(0.9796 0.2012 -0.2012 0.9796 56.8586 -25.7172)" fill="#5C3418" cx="154.961" cy="266.893" rx="3.519" ry="7.037"/>
		
			<ellipse transform="matrix(0.9796 0.2012 -0.2012 0.9796 56.9082 -25.8489)" fill="#532D24" cx="155.627" cy="267.055" rx="2.845" ry="6.004"/>
		<path fill="#5C3418" d="M149.938,271.51c0.225,0.627,0.643,1.082,0.795,1.736c0.164,0.694,0.368,1.383,0.62,2.051
			c0.208,0.548,0.563,1.174,1.062,1.502c0.82,0.541,1.713,0.054,2.491-0.405c0.056-0.032,0.125,0.05,0.072,0.092
			c-1.219,1.003-2.801,1.626-4.05,0.36c-0.601-0.607-0.915-1.632-1.121-2.434c-0.104-0.408-0.336-1.019-0.288-1.44
			c0.056-0.486,0.191-0.935,0.188-1.431C149.706,271.402,149.894,271.39,149.938,271.51L149.938,271.51z"/>
		<path fill="#5C3418" d="M158.192,213.744c-0.092,0.683-0.117,1.392,0.309,1.972c0.017,0.021-0.021,0.042-0.036,0.021
			c-0.428-0.586-0.407-1.303-0.314-1.993C158.153,213.719,158.195,213.717,158.192,213.744L158.192,213.744z"/>
		<image overflow="visible" width="34" height="109" xlink:href="354F22CC.png"  transform="matrix(1 0 0 1 178 191)">
		</image>
		<path fill="#5C3418" d="M155.249,291.259c0.835-1.252,4.173-2.503,5.009-0.835c2.085,4.591,3.755,10.016,8.762,11.685
			c9.182,2.922,6.26-10.432,11.686-11.685c5.009-1.252,8.764,6.26,14.188,8.348c5.843,1.668,12.52-0.418,17.526,2.085
			c0.207,0.089,0.384,0.195,0.533,0.311c-0.259,0.257-0.597,0.435-0.949,0.454c-1.389,0.068-3.04,0.267-4.316,0.872
			c-1.464,0.695-3.464,0.599-5.064,0.778c-3.489,0.388-6.842,0.037-10.305-0.438c-3.187-0.436-6.468-1.42-9.676-0.764
			c-3.07,0.629-5.896,2.072-9.032,2.46c-6.43,0.797-12.195-1.781-18.365-3.036c-4.579-0.933-9.707,0.468-14.171-1.001
			C146.56,300.642,152.145,296.621,155.249,291.259z"/>
		<path fill="#5C3418" d="M138.872,295.56c1.939-1.359,3.33-3.402,4.941-5.096c1.711-1.796,2.998-3.935,4.106-6.139
			c0.586-1.163,1.105-2.376,1.579-3.618c1.288,0.744,2.712,1.436,4.186,1.726c0.67-0.419,1.311-0.889,1.903-1.365
			c2.221-1.783,3.866-4.214,5.957-6.153c0.081-0.074,0.212,0.021,0.154,0.119c-1.596,2.696-3.125,5.375-5.157,7.781
			c-0.68,0.807-1.978,2.03-3.342,2.742c-2.139,2.646-3.797,5.531-5.878,8.206c-2.087,1.669-5.008,1.252-7.512,2.503
			c-0.703,0.47-1.275,1.335-1.863,2.15C137.537,297.438,137.894,296.244,138.872,295.56z"/>
		<path fill="#5C3418" d="M151.354,219.951c-1.687-3.048-3.914-5.4-6.23-7.89c7.291,4.938,14.437,9.816,15.967,17.854
			c2.009,8.039,0.257,16.078,0.351,24.117c1.205,0.853,2.021,2.343,2.717,3.64c0.703,1.307,1.177,2.792,1.448,4.245
			c0.26,1.396-0.18,2.63-0.337,3.99c-0.078,0.679-0.979,0.68-1.055,0c-0.128-1.127-0.892-2.204-1.263-3.26
			c-0.415-1.18-0.864-2.324-1.364-3.471c-0.206-0.475-0.45-0.923-0.708-1.359c-1.464-1.464-4.139-1.782-6.252-1.247
			c-0.027-0.015-0.05-0.033-0.07-0.055c0.243-0.18,0.489-0.348,0.745-0.485c1.049-8.076,1.356-16.254,1.479-24.4
			c-0.209-0.57-0.424-1.14-0.656-1.705C154.731,226.529,153.132,223.164,151.354,219.951z"/>
		<path fill="#5C3418" d="M150.028,170.341c0.167-0.194,0.487-0.262,0.724-0.191c1.35,0.4,1.869,1.87,2.613,2.966
			c0.99,1.461,1.663,3.254,2.188,4.925c1.233,3.914,1.627,8.188,2.112,12.246c0.728,6.102,2.672,11.994,3.23,18.122
			c0.12,1.308,0.184,2.625,0.145,3.938c-0.034,1.12-0.424,2.193-0.492,3.31c-0.168,2.726-2.212,0.563-3.272-0.49
			c-0.884-0.879-1.642-1.771-2.325-2.816c-2.193-3.357-3-7.216-3.544-11.129c-0.663-4.777-0.94-9.896-0.312-14.73
			c-0.415-2.666-0.399-5.181,0.153-7.785c-0.382-1.646-1.015-3.184-1.425-4.823C149.504,172.607,149.118,171.405,150.028,170.341z"
			/>
		<path fill="#5C3418" d="M174.527,203.342c0.083-0.13,0.195-0.231,0.318-0.313c0.259-2.416,2.307-4.321,3.937-6.01
			c2.234-2.313,4.697-4.304,7.377-6.078c2.708-1.792,5.657-3.208,8.725-4.265c2.369-0.816,5.944-1.925,8.025-0.037
			c0.479,0.434,0.413,1.189,0,1.632c-0.63,0.677-1.505,1.083-2.462,1.373c-1.495,0.684-3.153,1.068-4.695,1.604
			c-2.387,0.828-4.615,1.939-6.701,3.362c-4.643,3.168-7.814,8.308-12.1,11.937c-0.695,0.591-1.56,0.461-2.088-0.269
			C174.307,205.51,173.994,204.177,174.527,203.342z"/>
		<path fill="#5C3418" d="M172.059,249.111c-0.355,6.5,0.005,13.077,0.542,19.58c0.265,3.207,0.666,6.387,1.062,9.578
			c0.4,3.228,0.5,6.576,1.195,9.755c0.08,0.366,0.688,0.384,0.754,0c0.559-3.184,0.237-6.549,0.061-9.755
			c-0.19-3.471-0.525-6.915-0.851-10.374c-0.323-3.419-0.505-6.847-0.656-10.276c-0.136-3.121-0.477-5.785-1.89-8.567
			C172.221,248.941,172.064,249.002,172.059,249.111L172.059,249.111z"/>
		<path fill="#5C3418" d="M171.77,213.918c-0.195,3.829-0.424,7.644-0.516,11.477c-0.092,3.778-0.409,7.894,0.508,11.59
			c0.101,0.412,0.726,0.41,0.829,0c0.862-3.438,0.734-7.244,0.776-10.77c0.05-4.111-0.03-8.19-0.228-12.297
			C173.096,213.036,171.814,213.036,171.77,213.918L171.77,213.918z"/>
		<path fill="#5C3418" d="M168.843,173.579c-0.393,4.682,0.2,9.254,0.892,13.879c0.699,4.682,1.051,9.787,2.54,14.282
			c0.287,0.864,1.395,0.63,1.5-0.202c0.541-4.301-0.826-8.938-1.694-13.129c-1.015-4.899-1.911-9.849-2.415-14.83
			C169.612,173.054,168.889,173.047,168.843,173.579L168.843,173.579z"/>
		<path fill="#5C3418" d="M151.875,259.064c-1.746,1.886-3.145,3.626-3.447,6.283c-0.324,2.841-0.754,5.838-0.606,8.697
			c0.014,0.282,0.422,0.354,0.499,0.068c0.647-2.397,0.67-4.931,1.39-7.322c0.707-2.348,1.239-5.37,2.532-7.441
			C152.385,259.123,152.056,258.869,151.875,259.064L151.875,259.064z"/>
	</g>
	<g>
		<g>
			<path fill="#87A43D" d="M252.867,84.21c-1.649,0.502-3.166,1.446-4.393,2.907c-0.53,0.631-1.124,1.203-1.431,1.967
				c-0.211,0.522-0.219,1.079-0.509,1.581c0.663-2.778-1.402-5.817-3.917-6.929c-2.026-0.896-4.521-0.677-6.319,0.615
				c-1.49,1.071-2.44,2.768-2.936,4.533c-0.474,1.693-0.335,3.493-0.756,5.147c-0.783-0.374-1.57-0.837-2.405-1.166
				c-4.397-1.732-8.849-0.798-12.935,1.501c-2.152,1.213-4.045,2.996-5.047,5.254c-1.31,2.945-0.97,6.456,0.429,9.36
				c1.975,4.1,6.492,8.909,11.561,7.647c-0.551,0.138-1.001,0.973-1.352,1.391c-0.434,0.518-0.864,1.04-1.302,1.555
				c-3.634,4.26-2.208,11.525,1.485,15.244c0.92,0.926,1.998,1.71,3.208,2.2c2.16,0.875,4.614,0.76,6.871,0.183
				c2.889-0.737,5.567-2.236,7.746-4.265c1.116-1.037,1.86-2.304,2.865-3.411c1.689-1.861,3.138-0.704,5.443-1.245
				c2.399-0.563,4.538-2.167,6.12-4.01c1.903-2.215,3.291-4.941,3.579-7.847c0.288-2.917-0.908-5.437-2.353-7.879
				c3.545-1.462,6.8-2.793,9.187-6.09c2.773-3.834,3.443-9.375,0.813-13.307c-0.973-1.454-2.334-2.628-3.851-3.5
				C259.636,83.902,256.009,83.253,252.867,84.21z M254.496,108.799c0.008-0.012,0.021-0.02,0.03-0.031l0.272,0.328
				C254.663,109.03,254.562,108.932,254.496,108.799z"/>
		</g>
	</g>
	<g>
		<g>
			<path fill="#65853A" d="M282.484,174.568c-1.385-2.353-3.954-3.6-6.448-3.53c-0.411,0.011-0.775-0.114-1.093,0.21
				c0.459-0.491,0.719-1.009,1.004-1.629c1.698-3.689,3.204-8.037,1.919-12.319c-0.903-3.012-3.161-5.47-5.721-7.143
				c-2.681-1.752-5.909-2.706-8.943-2.18c-1.128,0.195-2.217,0.544-3.285,0.938c-0.428,0.154-2.295,0.513-2.499,0.984
				c0.704-1.634,0.186-3.645-0.669-5.29c-1.786-3.439-5.029-6.002-8.57-6.938c-5.688-1.503-12.443-0.812-17.322,2.32
				c-2.316,1.486-4.265,3.621-5.531,6.17c-1.054,2.118-2.319,5.702-1.318,8.104c0.145,0.35,0.46,0.627,0.505,1.016
				c-1.504-0.428-2.659-1.494-4.291-1.801c-1.623-0.304-3.277-0.316-4.876-0.061c-4.692,0.746-9.304,3.893-10.473,8.965
				c-0.214,0.928-0.304,1.869-0.295,2.815c-0.466-0.089-0.949-0.112-1.396-0.073c-1.369,0.121-2.809,0.85-3.78,1.97
				c-1.179,1.359-1.48,3.123-1.004,4.524c0.078,0.229,0.067,0.468,0.318,0.568c-0.376-0.142-0.734-0.163-1.158-0.175
				c-2.524-0.065-5.409,0.138-7.769,1.91c-1.66,1.245-2.748,3.127-3.309,4.988c-0.59,1.948-0.601,4.016,0.247,5.61
				c0.315,0.594,0.716,1.127,1.14,1.64c0.169,0.204,0.711,1.179,1.03,1.179c-1.108-0.002-2.23,0.782-3.073,1.668
				c-1.764,1.852-2.742,4.317-2.688,6.558c0.089,3.597,1.685,7.266,4.427,9.275c1.302,0.954,2.931,1.542,4.689,1.642
				c1.462,0.082,3.846-0.072,5.119-1.224c0.186-0.169,0.299-0.415,0.525-0.535c0.004,0.959-0.437,1.875-0.337,2.876
				c0.1,0.996,0.382,1.939,0.815,2.786c1.271,2.483,3.975,4.338,7.239,3.766c3.021-0.528,5.718-2.916,7.794-5.418
				c0.982-1.185,1.699-2.366,1.807-3.768c1.469,1.146,3.137,1.838,5.354,1.2c1.861-0.536,3.587-1.856,4.793-3.458
				c0.198-0.262,0.381-0.534,0.552-0.811c2.985-1.06,5.832-3.075,6.188-5.966c0.625,1.762,1.888,3.385,3.562,4.002
				c3.034,1.121,5.187-1.09,7.324-2.731c0.062,0.159,0.09,0.378,0.035,0.544c-0.707,2.115,2.424,5.362,3.944,6.292
				c2.199,1.345,4.854,1.514,7.255,0.991c3.898-0.847,6.393-3.736,6.714-7.992c0.017-0.223,0.019-0.447,0.024-0.67
				c0.928,3.825,7.103,5.402,10.025,4.782c3.394-0.721,6.164-3.679,6.818-7.288c0.442-2.445,0.028-6.152-1.696-8.17
				c-0.196-0.229-0.73-0.531-0.826-0.809c0.208,0.044,0.396,0.175,0.58,0.284c0.267,0.16,0.477,0.239,0.766,0.349
				c0.622,0.232,1.129,0.196,1.747,0.154c2.253-0.151,4.119-2.518,4.81-4.635C283.857,178.964,283.627,176.511,282.484,174.568z"/>
		</g>
		<g>
			<g>
				<path fill="#87A43D" d="M275.449,164.247c-0.293-0.437-0.652-0.823-1.053-1.162c-0.014-0.099-0.028-0.197-0.045-0.294
					c-0.382-2.145-1.521-4.132-3.231-5.248c-0.898-0.585-1.953-0.931-3.142-0.931c-0.513,0-1.021-0.055-1.509,0.103
					c-0.332,0.109-0.6,0.327-0.955,0.39c1.588-0.793,2.212-2.993,1.736-4.636c-0.382-1.323-1.484-2.424-2.818-2.766
					c-1.105-0.282-2.293-0.058-3.333,0.413c-0.996,0.449-1.799,1.236-2.756,1.696c-0.134-0.522-0.228-1.083-0.404-1.613
					c-0.872-2.611-2.879-4.309-5.37-5.359c-0.506-0.686-1.174-1.247-1.914-1.673c-1.618-0.929-3.551-1.276-5.226-0.766
					c-0.879,0.267-1.687,0.771-2.34,1.55c-0.283,0.337-0.599,0.641-0.764,1.048c-0.11,0.278-0.115,0.575-0.27,0.842
					c0.353-1.479-0.748-3.1-2.089-3.691c-1.078-0.479-2.408-0.36-3.367,0.327c-0.795,0.57-1.3,1.475-1.563,2.416
					c-0.252,0.902-0.179,1.861-0.403,2.744c-0.416-0.2-0.837-0.448-1.281-0.622c-2.344-0.923-4.716-0.426-6.892,0.8
					c-1.149,0.646-2.156,1.596-2.691,2.799c-0.698,1.57-0.518,3.44,0.229,4.988c0.191,0.398,0.429,0.808,0.703,1.21
					c-0.829,0.276-1.592,0.766-2.215,1.508c-0.282,0.335-0.599,0.641-0.763,1.047c-0.112,0.279-0.117,0.574-0.271,0.842
					c0.354-1.479-0.746-3.101-2.087-3.692c-0.029-0.013-0.06-0.023-0.089-0.036c1.002-1.95,1.105-4.398-0.104-6.209
					c-0.52-0.774-1.244-1.399-2.053-1.864c-1.618-0.931-3.552-1.278-5.226-0.767c-0.879,0.267-1.687,0.77-2.34,1.549
					c-0.282,0.337-0.599,0.642-0.762,1.048c-0.112,0.279-0.117,0.575-0.271,0.842c0.354-1.479-0.748-3.099-2.088-3.691
					c-1.08-0.479-2.409-0.361-3.368,0.327c-0.794,0.571-1.3,1.475-1.563,2.417c-0.253,0.9-0.18,1.861-0.404,2.743
					c-0.416-0.199-0.837-0.447-1.281-0.622c-2.343-0.923-4.715-0.426-6.892,0.8c-1.147,0.646-2.155,1.597-2.69,2.8
					c-0.698,1.569-0.518,3.44,0.229,4.988c1.052,2.186,3.459,4.748,6.16,4.075c-0.293,0.073-0.534,0.519-0.72,0.741
					c-0.232,0.276-0.462,0.556-0.695,0.828c-1.937,2.271-1.176,6.142,0.792,8.125c0.048,0.047,0.097,0.092,0.145,0.139
					c-0.541,0.2-1.072,0.45-1.593,0.743c-1.147,0.646-2.156,1.596-2.69,2.8c-0.699,1.569-0.518,3.44,0.229,4.988
					c0.151,0.314,0.334,0.639,0.539,0.96c-0.158,0.238-0.299,0.488-0.416,0.75c-0.698,1.571-0.516,3.44,0.229,4.988
					c0.677,1.406,1.916,2.967,3.431,3.724c0.186,0.85,0.524,1.667,0.979,2.373c-1.5,2.303-0.714,5.816,1.128,7.673
					c0.49,0.492,1.065,0.91,1.709,1.172c1.152,0.466,2.458,0.405,3.662,0.099c0.534-0.138,1.054-0.326,1.556-0.556
					c0.121,0.106,0.246,0.206,0.375,0.295c0.459,0.319,0.973,0.567,1.521,0.682c0.978,0.202,2-0.034,2.907-0.451
					c1.159-0.531,2.173-1.367,2.934-2.388c0.392-0.523,0.606-1.113,0.944-1.657c0.569-0.913,1.268-0.538,2.198-0.941
					c0.967-0.421,1.743-1.261,2.268-2.157c0.041-0.067,0.078-0.136,0.116-0.204c0.233,0.366,0.497,0.701,0.788,0.994
					c0.491,0.494,1.065,0.912,1.71,1.172c1.15,0.467,2.459,0.405,3.662,0.099c1.539-0.393,2.967-1.192,4.128-2.272
					c0.407-0.379,0.722-0.815,1.052-1.243c0.261,0.441,0.564,0.844,0.907,1.187c0.49,0.494,1.065,0.912,1.709,1.174
					c1.152,0.466,2.46,0.404,3.663,0.097c0.334-0.084,0.659-0.191,0.982-0.314c0.296,0.367,0.653,0.69,1.036,0.965
					c0.949,0.683,2.073,1.109,3.231,1.253c0.593,0.073,1.162-0.021,1.746,0.002c0.985,0.039,1.004,0.766,1.746,1.321
					c0.773,0.58,1.794,0.817,2.747,0.83c0.851,0.009,1.714-0.138,2.49-0.479c0.371,0.301,0.778,0.553,1.221,0.732
					c1.15,0.466,2.459,0.405,3.662,0.098c1.538-0.393,2.967-1.192,4.128-2.272c0.594-0.554,0.989-1.229,1.526-1.817
					c0.9-0.993,1.672-0.378,2.9-0.664c1.278-0.3,2.418-1.155,3.262-2.138c1.015-1.18,1.753-2.633,1.907-4.182
					c0.154-1.553-0.484-2.896-1.253-4.198c1.89-0.779,3.623-1.489,4.895-3.246c1.478-2.042,1.835-4.996,0.434-7.091
					c-0.407-0.609-0.943-1.124-1.545-1.542c-0.22-0.519-0.494-1.022-0.787-1.518c1.89-0.779,3.624-1.489,4.896-3.247
					C276.492,169.297,276.851,166.343,275.449,164.247z M217.941,190.802c-0.134,0.188-0.249,0.386-0.353,0.588
					c-0.073-0.087-0.147-0.175-0.223-0.262c0.17-0.11,0.34-0.218,0.507-0.327C217.896,190.801,217.92,190.802,217.941,190.802z
					 M214.24,160.442c-0.022,0.248-0.043,0.494-0.071,0.738c-0.104-0.191-0.214-0.383-0.326-0.573
					C213.976,160.553,214.108,160.497,214.24,160.442z M212.78,160.726l0.145,0.175c-0.071-0.034-0.126-0.087-0.162-0.157
					C212.768,160.735,212.773,160.732,212.78,160.726z M266.043,188.118c0.005-0.007,0.011-0.012,0.016-0.018l0.145,0.176
					C266.132,188.241,266.079,188.188,266.043,188.118z M269.039,174.72c0.005-0.006,0.011-0.011,0.017-0.016l0.146,0.175
					C269.129,174.843,269.075,174.79,269.039,174.72z"/>
			</g>
		</g>
		<path fill="#B0D237" d="M250.242,109.621c-0.971-0.37-2.019-0.329-3.038-0.292c-0.921,0.034-1.828-0.021-2.739-0.073
			c1.675-1.226,3.513-2.844,4.518-4.669c0.41-0.743,0.248-1.532-0.278-2.154c-1.539-1.822-4.842,0.557-6.258,1.487
			c-0.693,0.457-1.328,0.99-2.014,1.454c-0.285,0.193-0.562,0.373-0.826,0.566c-0.35-1.508-1.063-2.94-2.045-4.055
			c-1.107-1.253-2.65-3.354-4.598-2.815c-2.102,0.58-1.696,2.811-0.921,4.533c-1.825-0.181-3.788,0.473-3.908,2.619
			c-0.067,1.193,0.215,2.262,0.787,3.19c-2.039,1.166-4.136,2.564-4.871,4.718c-0.261,0.759,0.174,1.647,0.832,2.045
			c1.003,0.604,2.313,0.396,3.412,0.225c1.297-0.203,2.669-0.541,3.884-1.087c-0.232,1.069-0.287,2.165-0.044,3.273
			c0.226,1.034,0.6,2.209,1.509,2.829c0.96,0.655,2.1,0.557,3.038-0.081c0.806-0.547,1.289-1.441,1.647-2.32
			c0.373-0.919,0.8-1.908,1.011-2.876c0.126-0.577,0.225-1.157,0.285-1.737c1.275,0.499,2.614,0.797,3.997,0.807
			c1.54,0.011,3.067-0.368,4.495-0.919c1.173-0.452,2.476-0.927,3.212-1.998C252.051,111.238,251.254,110.006,250.242,109.621z
			 M247.12,105.351C247.17,105.339,247.165,105.345,247.12,105.351L247.12,105.351z"/>
		<path fill="#B0D237" d="M259.928,168.955c-1.118-0.372-2.536-0.146-3.681-0.014c-0.3,0.034-0.669,0.074-1.076,0.128
			c0.669-1.027,1.277-2.114,1.539-3.252c0.237-1.029-0.209-2.173-1.297-2.48c-1.061-0.299-2.164,0.431-3.049,0.918
			c-0.899,0.494-1.681,1.015-2.339,1.633c-0.592-2.537-3.057-6-5.914-4.021c-1.458,1.01-1.605,3.21-1.427,4.824
			c0.016,0.139,0.033,0.281,0.054,0.423c-1.832-0.308-3.796-0.023-4.604,1.904c-0.959,2.292,0.115,4.943,2.815,4.979
			c0.567,0.006,1.119-0.094,1.671-0.209c0.489,0.031,0.976,0.021,1.449-0.045c0.044,0.07,0.091,0.134,0.144,0.194
			c0.008,0.026,0.013,0.05,0.021,0.076c0.232,0.765,0.527,1.492,0.863,2.216c0.384,0.826,0.783,1.739,1.534,2.297
			c1.417,1.056,3.033,0.06,3.281-1.535c0.135-0.862,0.067-1.704-0.078-2.561c-0.011-0.072-0.027-0.141-0.043-0.209
			c0.246-0.025,0.489-0.089,0.73-0.181c1.447,0.231,2.912,0.246,4.375,0.26c2.126,0.022,5.919,0.504,6.788-2.178
			C262.125,170.771,261.232,169.389,259.928,168.955z M248.886,175.865c0.008,0.005,0.016,0.01,0.023,0.014
			C248.906,175.881,248.9,175.879,248.886,175.865z"/>
		<path fill="#B0D237" d="M215.989,175.63c-0.644,0.921-0.821,2.279-1.012,3.359c-0.05,0.283-0.111,0.631-0.174,1.018
			c-0.758-0.889-1.586-1.739-2.556-2.288c-0.874-0.496-2.042-0.397-2.617,0.513c-0.561,0.887-0.193,2.094,0.011,3.035
			c0.209,0.956,0.473,1.812,0.857,2.578c-2.479-0.146-6.312,1.165-5.278,4.313c0.527,1.605,2.498,2.337,4.022,2.612
			c0.131,0.023,0.265,0.046,0.4,0.067c-0.777,1.59-1.052,3.461,0.491,4.722c1.833,1.498,4.549,1.234,5.313-1.221
			c0.16-0.516,0.218-1.049,0.264-1.584c0.162-0.439,0.283-0.887,0.352-1.337c0.075-0.021,0.147-0.047,0.217-0.078
			c0.025,0,0.049,0.003,0.075,0.003c0.761-0.006,1.508-0.078,2.259-0.188c0.858-0.126,1.802-0.243,2.516-0.777
			c1.347-1.009,0.878-2.757-0.513-3.416c-0.751-0.356-1.538-0.523-2.361-0.623c-0.068-0.01-0.136-0.013-0.203-0.018
			c0.044-0.23,0.052-0.471,0.033-0.716c0.604-1.259,1.015-2.595,1.425-3.927c0.597-1.936,2.066-5.271-0.148-6.793
			C218.245,174.116,216.739,174.556,215.989,175.63z M219.307,187.594c0.007-0.006,0.013-0.011,0.021-0.017
			C219.327,187.58,219.324,187.586,219.307,187.594z"/>
		<path fill="#B0D237" d="M212.708,156.942c-0.62-0.112-1.363,0.181-1.9,0.467c-0.341,0.182-0.639,0.367-0.921,0.579
			c-0.053-0.767-0.363-1.566-1.168-1.666c-1.139-0.142-1.724,1.119-1.899,2.036c-0.055,0.286-0.077,0.625-0.06,0.974
			c-0.366-0.332-0.85-0.476-1.342-0.561c-0.548-0.096-1.202-0.174-1.753-0.055c-0.529,0.112-1.192,0.252-1.203,0.929
			c-0.013,0.853,1.184,1.211,1.816,1.47c0.573,0.232,1.18,0.438,1.8,0.485c0.345,0.026,0.711,0.003,1.048-0.076
			c0.12-0.028,0.235-0.07,0.351-0.112c0,0,0.003,0.003,0.005,0.005c-0.496,0.492-0.944,1.247-1.121,1.494
			c-0.38,0.535-0.719,1.113-0.981,1.717c-0.256,0.586-0.05,1.342,0.675,1.418c0.604,0.064,1.135-0.417,1.515-0.84
			c0.426-0.474,0.721-1.056,1.024-1.61c0.106-0.191,0.207-0.385,0.306-0.581c0.068,0.107,0.141,0.212,0.222,0.316
			c0.439,0.563,1.07,1.237,1.872,1.03c0.397-0.104,0.677-0.444,0.696-0.854c0.022-0.422-0.196-0.753-0.437-1.075
			c-0.361-0.488-1.023-1.051-1.648-1.179c0.003-0.025,0.006-0.049,0.009-0.072c0.834-0.286,1.642-0.902,2.24-1.34
			c0.499-0.363,1.138-0.75,1.465-1.293C213.686,157.94,213.453,157.08,212.708,156.942z"/>
	</g>
	<g>
		<g>
			<g>
				<path fill="#87A43D" d="M210.483,87.978c-0.455-0.682-1.016-1.284-1.641-1.814c-0.022-0.152-0.044-0.307-0.07-0.46
					c-0.596-3.345-2.371-6.447-5.042-8.187c-1.401-0.914-3.049-1.453-4.9-1.455c-0.802,0-1.595-0.084-2.355,0.162
					c-0.52,0.17-0.938,0.51-1.492,0.608c2.479-1.239,3.451-4.671,2.711-7.233c-0.597-2.065-2.314-3.783-4.397-4.316
					c-1.726-0.441-3.579-0.089-5.202,0.644c-1.554,0.703-2.806,1.931-4.298,2.647c-0.21-0.815-0.356-1.69-0.633-2.517
					c-1.36-4.073-4.49-6.725-8.379-8.361c-0.791-1.071-1.832-1.947-2.987-2.611c-2.525-1.449-5.54-1.99-8.153-1.195
					c-1.372,0.418-2.631,1.203-3.652,2.418c-0.441,0.525-0.934,1.001-1.189,1.635c-0.174,0.436-0.182,0.898-0.422,1.314
					c0.55-2.309-1.166-4.837-3.258-5.762c-1.684-0.745-3.76-0.561-5.255,0.513c-1.239,0.891-2.028,2.301-2.44,3.77
					c-0.394,1.408-0.279,2.906-0.629,4.28c-0.65-0.312-1.307-0.696-2-0.969c-3.657-1.44-7.358-0.664-10.755,1.248
					c-1.79,1.007-3.362,2.491-4.198,4.368c-1.088,2.449-0.806,5.368,0.358,7.783c0.298,0.62,0.669,1.261,1.098,1.886
					c-1.295,0.433-2.485,1.194-3.456,2.353c-0.441,0.524-0.934,0.999-1.189,1.636c-0.176,0.433-0.182,0.896-0.422,1.313
					c0.55-2.309-1.167-4.836-3.258-5.762c-0.045-0.021-0.092-0.036-0.139-0.055c1.565-3.043,1.726-6.865-0.164-9.689
					c-0.809-1.21-1.941-2.186-3.203-2.91c-2.524-1.452-5.539-1.992-8.151-1.197c-1.372,0.417-2.633,1.203-3.652,2.419
					c-0.441,0.525-0.934,1.001-1.191,1.635c-0.175,0.436-0.183,0.896-0.423,1.314c0.552-2.309-1.166-4.837-3.256-5.762
					c-1.685-0.745-3.76-0.563-5.256,0.514c-1.239,0.89-2.028,2.299-2.439,3.769c-0.395,1.406-0.279,2.906-0.628,4.281
					c-0.651-0.313-1.306-0.698-2-0.972c-3.657-1.44-7.357-0.662-10.754,1.249c-1.791,1.009-3.364,2.491-4.198,4.369
					c-1.088,2.449-0.806,5.367,0.357,7.782c1.643,3.409,5.398,7.409,9.612,6.359c-0.457,0.114-0.833,0.81-1.124,1.157
					c-0.36,0.43-0.717,0.865-1.082,1.292c-3.022,3.542-1.834,9.584,1.236,12.675c0.073,0.075,0.148,0.146,0.225,0.219
					c-0.843,0.312-1.674,0.703-2.486,1.159c-1.792,1.009-3.364,2.491-4.198,4.37c-1.088,2.448-0.806,5.367,0.357,7.781
					c0.237,0.493,0.521,0.998,0.842,1.5c-0.248,0.371-0.468,0.761-0.648,1.171c-1.089,2.448-0.806,5.367,0.357,7.781
					c1.057,2.195,2.988,4.63,5.354,5.81c0.29,1.327,0.817,2.604,1.526,3.703c-2.338,3.595-1.115,9.077,1.76,11.972
					c0.766,0.77,1.662,1.423,2.669,1.83c1.796,0.728,3.836,0.631,5.713,0.152c0.834-0.213,1.645-0.507,2.425-0.865
					c0.19,0.166,0.387,0.32,0.588,0.462c0.715,0.497,1.517,0.884,2.371,1.062c1.524,0.316,3.122-0.053,4.536-0.703
					c1.81-0.829,3.391-2.134,4.578-3.728c0.609-0.815,0.946-1.736,1.475-2.584c0.889-1.425,1.977-0.839,3.428-1.471
					c1.509-0.656,2.722-1.965,3.54-3.365c0.063-0.104,0.122-0.21,0.179-0.318c0.365,0.569,0.776,1.093,1.231,1.552
					c0.764,0.77,1.66,1.423,2.667,1.83c1.795,0.727,3.836,0.631,5.713,0.152c2.402-0.614,4.63-1.859,6.441-3.546
					c0.636-0.591,1.127-1.272,1.641-1.938c0.407,0.686,0.882,1.313,1.416,1.85c0.766,0.771,1.662,1.424,2.669,1.83
					c1.796,0.727,3.834,0.632,5.713,0.153c0.521-0.133,1.031-0.301,1.533-0.491c0.463,0.57,1.021,1.075,1.618,1.504
					c1.481,1.065,3.236,1.73,5.043,1.955c0.924,0.115,1.812-0.034,2.725,0.003c1.537,0.062,1.565,1.194,2.723,2.063
					c1.207,0.904,2.8,1.275,4.285,1.294c1.328,0.016,2.675-0.214,3.886-0.747c0.58,0.47,1.216,0.865,1.905,1.145
					c1.797,0.727,3.836,0.632,5.715,0.151c2.4-0.612,4.628-1.859,6.44-3.545c0.927-0.863,1.545-1.917,2.381-2.837
					c1.406-1.548,2.611-0.586,4.528-1.037c1.994-0.466,3.772-1.802,5.088-3.333c1.582-1.842,2.736-4.108,2.977-6.524
					c0.239-2.426-0.757-4.521-1.957-6.553c2.948-1.216,5.654-2.32,7.639-5.063c2.306-3.188,2.863-7.796,0.677-11.066
					c-0.635-0.949-1.472-1.752-2.412-2.405c-0.341-0.81-0.769-1.595-1.227-2.369c2.948-1.217,5.654-2.323,7.639-5.065
					C212.113,95.854,212.671,91.246,210.483,87.978z M120.753,129.41c-0.209,0.293-0.391,0.601-0.55,0.918
					c-0.115-0.137-0.23-0.272-0.348-0.408c0.267-0.172,0.53-0.342,0.791-0.512C120.681,129.408,120.717,129.41,120.753,129.41z
					 M114.979,82.04c-0.038,0.387-0.07,0.771-0.112,1.153c-0.164-0.301-0.333-0.6-0.51-0.896
					C114.566,82.211,114.773,82.126,114.979,82.04z M112.698,82.481l0.226,0.274c-0.112-0.055-0.196-0.138-0.252-0.248
					C112.68,82.497,112.69,82.49,112.698,82.481z M195.808,125.224c0.008-0.012,0.017-0.018,0.024-0.027l0.228,0.273
					C195.946,125.415,195.863,125.332,195.808,125.224z M200.483,104.317c0.007-0.011,0.018-0.017,0.025-0.026l0.226,0.274
					C200.623,104.511,200.538,104.428,200.483,104.317z"/>
			</g>
		</g>
		<path fill="#B0D237" d="M195.832,81.313c-1.517-0.577-3.15-0.512-4.742-0.453c-1.437,0.053-2.851-0.033-4.272-0.116
			c2.612-1.912,5.479-4.437,7.049-7.284c0.64-1.16,0.387-2.393-0.435-3.362c-2.402-2.842-7.556,0.87-9.765,2.321
			c-1.082,0.711-2.071,1.543-3.141,2.27c-0.446,0.303-0.878,0.581-1.29,0.882c-0.545-2.351-1.658-4.587-3.192-6.325
			c-1.728-1.957-4.134-5.231-7.174-4.393c-3.277,0.903-2.646,4.383-1.436,7.072c-2.85-0.282-5.911,0.737-6.1,4.086
			c-0.104,1.864,0.338,3.53,1.23,4.979c-3.182,1.82-6.454,4.002-7.603,7.359c-0.405,1.188,0.274,2.573,1.298,3.192
			c1.565,0.944,3.612,0.617,5.325,0.351c2.025-0.316,4.165-0.845,6.059-1.695c-0.363,1.668-0.447,3.379-0.068,5.107
			c0.355,1.614,0.937,3.448,2.355,4.415c1.498,1.022,3.276,0.868,4.74-0.126c1.256-0.854,2.013-2.25,2.571-3.623
			c0.583-1.431,1.247-2.976,1.577-4.486c0.196-0.899,0.351-1.805,0.444-2.711c1.991,0.781,4.08,1.244,6.237,1.26
			c2.403,0.016,4.785-0.575,7.015-1.435c1.83-0.706,3.862-1.446,5.01-3.117C198.653,83.839,197.41,81.914,195.832,81.313z
			 M190.961,74.652C191.037,74.632,191.029,74.642,190.961,74.652L190.961,74.652z"/>
		<path fill="#B0D237" d="M131.468,114.679c-1.747-0.581-3.959-0.229-5.744-0.021c-0.468,0.055-1.043,0.117-1.679,0.199
			c1.042-1.604,1.992-3.298,2.4-5.075c0.37-1.604-0.326-3.391-2.023-3.869c-1.654-0.468-3.376,0.674-4.757,1.433
			c-1.403,0.771-2.622,1.585-3.648,2.546c-0.926-3.957-4.769-9.361-9.229-6.273c-2.276,1.576-2.505,5.009-2.226,7.529
			c0.025,0.217,0.053,0.438,0.083,0.661c-2.859-0.48-5.924-0.039-7.182,2.972c-1.497,3.575,0.179,7.713,4.391,7.768
			c0.885,0.011,1.748-0.146,2.606-0.324c0.765,0.048,1.523,0.032,2.265-0.072c0.065,0.109,0.14,0.211,0.221,0.305
			c0.013,0.04,0.02,0.079,0.033,0.118c0.362,1.192,0.821,2.33,1.347,3.457c0.6,1.289,1.222,2.716,2.393,3.587
			c2.212,1.645,4.734,0.093,5.122-2.397c0.209-1.345,0.103-2.657-0.122-3.996c-0.019-0.111-0.043-0.219-0.068-0.326
			c0.382-0.039,0.764-0.138,1.14-0.28c2.257,0.361,4.545,0.383,6.825,0.405c3.318,0.034,9.237,0.785,10.594-3.398
			C134.896,117.512,133.503,115.355,131.468,114.679z M114.24,125.46c0.011,0.008,0.023,0.016,0.034,0.023
			C114.27,125.486,114.259,125.483,114.24,125.46z"/>
		<path fill="#B0D237" d="M112.586,76.579c-0.966-0.176-2.127,0.281-2.963,0.729c-0.533,0.283-0.998,0.571-1.437,0.903
			c-0.083-1.198-0.567-2.445-1.822-2.602c-1.777-0.22-2.692,1.748-2.965,3.178c-0.086,0.447-0.12,0.976-0.092,1.52
			c-0.574-0.518-1.325-0.74-2.095-0.875c-0.854-0.147-1.877-0.27-2.734-0.085c-0.828,0.176-1.861,0.394-1.877,1.449
			c-0.021,1.331,1.846,1.89,2.833,2.293c0.895,0.365,1.841,0.685,2.811,0.758c0.536,0.04,1.108,0.005,1.634-0.12
			c0.187-0.044,0.368-0.11,0.548-0.175c0.002,0.003,0.003,0.005,0.005,0.007c-0.771,0.77-1.473,1.945-1.748,2.332
			c-0.594,0.837-1.121,1.739-1.532,2.68c-0.399,0.913-0.078,2.093,1.052,2.213c0.945,0.102,1.772-0.653,2.365-1.311
			c0.666-0.739,1.124-1.647,1.598-2.513c0.166-0.3,0.324-0.602,0.477-0.907c0.108,0.166,0.22,0.33,0.346,0.492
			c0.684,0.881,1.671,1.933,2.921,1.608c0.62-0.158,1.054-0.691,1.086-1.332c0.034-0.66-0.306-1.174-0.68-1.68
			c-0.566-0.761-1.6-1.64-2.575-1.839c0.006-0.037,0.011-0.073,0.016-0.109c1.3-0.447,2.561-1.409,3.497-2.092
			c0.778-0.569,1.774-1.171,2.285-2.018C114.112,78.135,113.75,76.793,112.586,76.579z"/>
	</g>
	<g>
		<g>
			<path fill="#65853A" d="M174.421,225.371c-0.935-1.59-2.67-2.432-4.357-2.387c-0.277,0.008-0.524-0.074-0.739,0.144
				c0.312-0.332,0.488-0.682,0.68-1.101c1.147-2.494,2.165-5.433,1.297-8.326c-0.611-2.035-2.137-3.695-3.868-4.826
				c-1.81-1.185-3.992-1.828-6.042-1.473c-0.762,0.133-1.498,0.368-2.221,0.633c-0.287,0.106-1.55,0.346-1.687,0.666
				c0.476-1.104,0.125-2.463-0.454-3.575c-1.207-2.324-3.398-4.056-5.791-4.688c-3.842-1.015-8.408-0.548-11.706,1.567
				c-1.565,1.005-2.882,2.447-3.736,4.17c-0.712,1.431-1.568,3.854-0.892,5.476c0.098,0.237,0.312,0.425,0.341,0.687
				c-1.016-0.289-1.797-1.011-2.899-1.216c-1.098-0.206-2.215-0.214-3.295-0.042c-3.171,0.505-6.287,2.629-7.077,6.058
				c-0.144,0.628-0.204,1.264-0.198,1.903c-0.314-0.062-0.642-0.077-0.944-0.05c-0.924,0.082-1.897,0.573-2.555,1.331
				c-0.795,0.918-1,2.11-0.678,3.057c0.053,0.156,0.047,0.316,0.215,0.385c-0.254-0.097-0.496-0.11-0.783-0.118
				c-1.705-0.044-3.655,0.092-5.249,1.291c-1.121,0.842-1.856,2.112-2.237,3.37c-0.397,1.317-0.405,2.714,0.168,3.791
				c0.212,0.402,0.483,0.763,0.77,1.108c0.114,0.139,0.48,0.797,0.697,0.797c-0.75-0.002-1.509,0.528-2.078,1.127
				c-1.191,1.251-1.854,2.918-1.816,4.432c0.059,2.43,1.138,4.91,2.991,6.268c0.879,0.645,1.98,1.042,3.169,1.108
				c0.988,0.057,2.599-0.048,3.459-0.826c0.125-0.113,0.201-0.28,0.354-0.361c0.003,0.648-0.295,1.268-0.226,1.944
				c0.067,0.672,0.257,1.309,0.55,1.881c0.859,1.679,2.686,2.933,4.892,2.546c2.042-0.357,3.864-1.971,5.267-3.662
				c0.664-0.8,1.147-1.599,1.221-2.545c0.992,0.774,2.119,1.242,3.617,0.811c1.258-0.363,2.424-1.255,3.239-2.337
				c0.134-0.176,0.259-0.36,0.373-0.547c2.019-0.716,3.942-2.078,4.182-4.031c0.423,1.189,1.275,2.286,2.407,2.704
				c2.05,0.756,3.504-0.737,4.948-1.846c0.042,0.106,0.062,0.254,0.025,0.366c-0.479,1.432,1.638,3.625,2.666,4.253
				c1.486,0.909,3.28,1.021,4.901,0.669c2.635-0.572,4.321-2.524,4.538-5.4c0.011-0.151,0.012-0.302,0.017-0.453
				c0.626,2.584,4.798,3.652,6.773,3.232c2.295-0.486,4.166-2.486,4.608-4.926c0.299-1.652,0.021-4.157-1.146-5.52
				c-0.132-0.156-0.494-0.358-0.56-0.547c0.142,0.029,0.27,0.118,0.393,0.191c0.18,0.109,0.323,0.162,0.518,0.235
				c0.419,0.157,0.762,0.133,1.18,0.105c1.523-0.103,2.784-1.702,3.25-3.133C175.349,228.343,175.192,226.684,174.421,225.371z"/>
		</g>
		<g>
			<g>
				<path fill="#87A43D" d="M169.667,218.396c-0.196-0.294-0.439-0.556-0.711-0.785c-0.009-0.065-0.019-0.133-0.03-0.198
					c-0.257-1.449-1.027-2.793-2.184-3.546c-0.606-0.396-1.32-0.629-2.122-0.63c-0.348,0-0.691-0.038-1.021,0.07
					c-0.225,0.073-0.405,0.22-0.646,0.263c1.074-0.536,1.495-2.023,1.174-3.133c-0.259-0.894-1.002-1.639-1.905-1.869
					c-0.747-0.19-1.55-0.037-2.251,0.279c-0.674,0.304-1.218,0.835-1.863,1.146c-0.091-0.353-0.155-0.731-0.273-1.09
					c-0.591-1.763-1.945-2.912-3.631-3.621c-0.341-0.463-0.792-0.842-1.292-1.13c-1.093-0.629-2.399-0.862-3.531-0.518
					c-0.594,0.181-1.14,0.521-1.583,1.048c-0.19,0.228-0.403,0.432-0.514,0.707c-0.077,0.188-0.08,0.389-0.183,0.569
					c0.237-0.999-0.506-2.096-1.412-2.496c-0.729-0.322-1.627-0.243-2.276,0.224c-0.536,0.385-0.878,0.996-1.056,1.632
					c-0.171,0.609-0.122,1.258-0.272,1.854c-0.282-0.135-0.566-0.301-0.867-0.42c-1.584-0.623-3.187-0.288-4.658,0.541
					c-0.775,0.437-1.456,1.077-1.818,1.892c-0.471,1.062-0.349,2.324,0.154,3.37c0.131,0.27,0.29,0.547,0.477,0.816
					c-0.561,0.188-1.077,0.518-1.498,1.02c-0.19,0.228-0.404,0.434-0.515,0.708c-0.076,0.188-0.079,0.388-0.184,0.568
					c0.24-0.999-0.503-2.095-1.411-2.495c-0.019-0.008-0.039-0.016-0.059-0.023c0.678-1.319,0.747-2.973-0.072-4.196
					c-0.349-0.524-0.84-0.946-1.386-1.26c-1.094-0.628-2.399-0.863-3.531-0.52c-0.594,0.182-1.14,0.522-1.582,1.048
					c-0.19,0.228-0.404,0.434-0.515,0.709c-0.076,0.188-0.08,0.387-0.184,0.569c0.239-1.001-0.505-2.095-1.411-2.496
					c-0.729-0.322-1.627-0.243-2.276,0.222c-0.536,0.387-0.877,0.996-1.057,1.632c-0.17,0.609-0.12,1.26-0.271,1.855
					c-0.282-0.136-0.566-0.303-0.867-0.421c-1.584-0.624-3.186-0.287-4.658,0.541c-0.775,0.437-1.456,1.078-1.818,1.893
					c-0.471,1.06-0.349,2.324,0.154,3.37c0.712,1.476,2.338,3.208,4.164,2.753c-0.198,0.05-0.36,0.351-0.486,0.502
					c-0.158,0.186-0.312,0.374-0.469,0.56c-1.31,1.533-0.795,4.149,0.535,5.488c0.033,0.033,0.065,0.064,0.098,0.096
					c-0.365,0.135-0.725,0.304-1.077,0.502c-0.776,0.437-1.458,1.078-1.818,1.892c-0.472,1.061-0.349,2.324,0.154,3.371
					c0.103,0.213,0.225,0.432,0.365,0.648c-0.107,0.162-0.203,0.33-0.282,0.508c-0.471,1.06-0.347,2.324,0.156,3.37
					c0.457,0.949,1.294,2.005,2.318,2.516c0.126,0.574,0.354,1.128,0.661,1.603c-1.012,1.558-0.483,3.932,0.762,5.186
					c0.332,0.333,0.72,0.617,1.155,0.793c0.78,0.315,1.662,0.272,2.476,0.065c0.36-0.092,0.712-0.22,1.051-0.374
					c0.083,0.071,0.167,0.139,0.254,0.199c0.311,0.216,0.656,0.384,1.027,0.46c0.66,0.138,1.352-0.023,1.964-0.304
					c0.784-0.36,1.468-0.925,1.983-1.615c0.263-0.353,0.41-0.753,0.639-1.119c0.383-0.617,0.855-0.363,1.484-0.636
					c0.653-0.285,1.178-0.853,1.534-1.458c0.025-0.045,0.052-0.092,0.077-0.139c0.157,0.247,0.336,0.475,0.533,0.672
					c0.332,0.334,0.72,0.616,1.155,0.794c0.778,0.314,1.662,0.272,2.476,0.065c1.04-0.266,2.005-0.806,2.789-1.536
					c0.276-0.257,0.488-0.552,0.711-0.84c0.176,0.298,0.382,0.57,0.613,0.803c0.332,0.334,0.72,0.616,1.155,0.792
					c0.779,0.315,1.662,0.274,2.475,0.065c0.226-0.058,0.446-0.129,0.663-0.212c0.201,0.248,0.443,0.466,0.702,0.651
					c0.641,0.462,1.401,0.75,2.184,0.847c0.401,0.05,0.784-0.014,1.18,0.002c0.666,0.026,0.678,0.518,1.18,0.893
					c0.522,0.392,1.211,0.552,1.855,0.56c0.575,0.008,1.158-0.092,1.684-0.322c0.251,0.202,0.527,0.374,0.825,0.496
					c0.778,0.313,1.662,0.272,2.476,0.065c1.04-0.266,2.004-0.807,2.789-1.536c0.4-0.374,0.669-0.831,1.032-1.229
					c0.608-0.67,1.13-0.254,1.959-0.448c0.864-0.203,1.634-0.781,2.205-1.443c0.686-0.799,1.185-1.78,1.289-2.826
					c0.104-1.051-0.328-1.958-0.848-2.838c1.277-0.526,2.449-1.005,3.308-2.193c0.999-1.379,1.241-3.376,0.293-4.792
					c-0.274-0.411-0.636-0.759-1.044-1.042c-0.146-0.35-0.332-0.691-0.532-1.026c1.277-0.526,2.449-1.005,3.308-2.193
					C170.373,221.81,170.614,219.813,169.667,218.396z M130.808,236.341c-0.09,0.126-0.17,0.261-0.239,0.397
					c-0.05-0.06-0.1-0.118-0.151-0.178c0.117-0.073,0.23-0.146,0.343-0.222C130.776,236.341,130.792,236.341,130.808,236.341z
					 M128.307,215.826c-0.016,0.167-0.031,0.334-0.048,0.499c-0.072-0.131-0.145-0.261-0.221-0.389
					C128.128,215.899,128.218,215.862,128.307,215.826z M127.319,216.017l0.098,0.118c-0.048-0.023-0.084-0.059-0.109-0.105
					C127.311,216.024,127.315,216.021,127.319,216.017z M163.311,234.528c0.003-0.005,0.008-0.008,0.011-0.013l0.098,0.118
					C163.372,234.61,163.336,234.574,163.311,234.528z M165.336,225.474c0.003-0.004,0.008-0.008,0.011-0.012l0.099,0.118
					C165.397,225.557,165.361,225.521,165.336,225.474z"/>
			</g>
		</g>
		<path fill="#B0D237" d="M163.322,215.512c-0.656-0.25-1.364-0.222-2.053-0.196c-0.624,0.021-1.236-0.015-1.851-0.05
			c1.132-0.83,2.373-1.923,3.052-3.155c0.277-0.502,0.167-1.037-0.188-1.456c-1.04-1.231-3.272,0.377-4.229,1.005
			c-0.468,0.308-0.896,0.669-1.359,0.982c-0.193,0.131-0.38,0.253-0.558,0.382c-0.237-1.018-0.719-1.986-1.383-2.739
			c-0.748-0.848-1.791-2.265-3.107-1.901c-1.42,0.392-1.146,1.898-0.622,3.062c-1.235-0.121-2.56,0.319-2.643,1.771
			c-0.045,0.807,0.146,1.528,0.533,2.156c-1.378,0.787-2.795,1.733-3.292,3.188c-0.176,0.514,0.119,1.113,0.563,1.382
			c0.676,0.41,1.563,0.268,2.306,0.152c0.876-0.137,1.803-0.366,2.624-0.734c-0.156,0.722-0.193,1.463-0.03,2.212
			c0.154,0.699,0.405,1.492,1.021,1.911c0.648,0.443,1.418,0.376,2.053-0.054c0.544-0.37,0.87-0.975,1.113-1.568
			c0.252-0.621,0.54-1.289,0.683-1.944c0.084-0.39,0.151-0.781,0.192-1.174c0.862,0.339,1.768,0.539,2.702,0.546
			c1.041,0.006,2.073-0.25,3.038-0.62c0.792-0.306,1.673-0.627,2.17-1.352C164.544,216.605,164.005,215.771,163.322,215.512z
			 M161.213,212.626C161.246,212.618,161.243,212.621,161.213,212.626L161.213,212.626z"/>
		<path fill="#B0D237" d="M159.18,236.968c-0.756-0.253-1.715-0.1-2.488-0.01c-0.203,0.023-0.452,0.05-0.727,0.086
			c0.45-0.693,0.862-1.428,1.04-2.198c0.159-0.695-0.142-1.469-0.877-1.676c-0.716-0.202-1.462,0.292-2.061,0.62
			c-0.606,0.334-1.135,0.688-1.579,1.103c-0.4-1.713-2.065-4.053-3.997-2.716c-0.985,0.684-1.083,2.169-0.963,3.26
			c0.011,0.096,0.021,0.19,0.036,0.287c-1.238-0.207-2.566-0.018-3.11,1.286c-0.648,1.549,0.078,3.341,1.902,3.364
			c0.383,0.006,0.756-0.063,1.128-0.141c0.332,0.021,0.66,0.014,0.98-0.029c0.028,0.046,0.061,0.09,0.097,0.131
			c0.005,0.017,0.008,0.034,0.014,0.051c0.156,0.517,0.355,1.009,0.583,1.498c0.259,0.559,0.528,1.176,1.037,1.553
			c0.957,0.713,2.05,0.039,2.217-1.038c0.092-0.583,0.045-1.152-0.051-1.73c-0.008-0.048-0.019-0.095-0.03-0.142
			c0.165-0.018,0.331-0.06,0.494-0.122c0.976,0.158,1.967,0.166,2.956,0.177c1.436,0.014,4,0.34,4.588-1.474
			C160.664,238.194,160.061,237.261,159.18,236.968z M151.718,241.636c0.006,0.004,0.011,0.007,0.016,0.01
			C151.732,241.647,151.727,241.646,151.718,241.636z"/>
		<path fill="#B0D237" d="M129.489,226.088c-0.435,0.624-0.555,1.54-0.685,2.271c-0.033,0.19-0.076,0.426-0.117,0.688
			c-0.513-0.602-1.071-1.176-1.727-1.546c-0.591-0.336-1.38-0.271-1.768,0.346c-0.38,0.6-0.131,1.415,0.006,2.052
			c0.14,0.645,0.319,1.224,0.58,1.741c-1.674-0.099-4.265,0.787-3.567,2.915c0.355,1.085,1.688,1.579,2.717,1.765
			c0.089,0.017,0.179,0.031,0.271,0.047c-0.525,1.073-0.711,2.338,0.332,3.19c1.239,1.012,3.073,0.834,3.59-0.826
			c0.107-0.348,0.148-0.708,0.178-1.069c0.109-0.298,0.191-0.599,0.238-0.904c0.05-0.014,0.098-0.031,0.145-0.053
			c0.017,0.002,0.034,0.002,0.051,0.002c0.515-0.004,1.018-0.052,1.526-0.127c0.58-0.086,1.217-0.165,1.701-0.525
			c0.91-0.681,0.592-1.862-0.348-2.309c-0.507-0.24-1.04-0.354-1.595-0.421c-0.047-0.006-0.092-0.009-0.137-0.013
			c0.03-0.155,0.034-0.317,0.022-0.482c0.408-0.852,0.686-1.754,0.963-2.653c0.402-1.308,1.395-3.563-0.1-4.591
			C131.012,225.065,129.995,225.363,129.489,226.088z M131.73,234.173c0.004-0.004,0.009-0.008,0.012-0.012
			C131.744,234.165,131.741,234.168,131.73,234.173z"/>
		<path fill="#B0D237" d="M127.271,213.462c-0.418-0.077-0.921,0.121-1.283,0.314c-0.23,0.123-0.432,0.248-0.624,0.392
			c-0.036-0.52-0.245-1.059-0.789-1.127c-0.77-0.096-1.165,0.757-1.285,1.376c-0.036,0.193-0.051,0.423-0.039,0.658
			c-0.248-0.223-0.574-0.321-0.908-0.379c-0.369-0.064-0.812-0.117-1.183-0.037c-0.36,0.076-0.807,0.171-0.813,0.628
			c-0.009,0.576,0.8,0.818,1.227,0.993c0.388,0.157,0.797,0.296,1.218,0.328c0.232,0.018,0.48,0.002,0.706-0.053
			c0.083-0.019,0.161-0.047,0.238-0.074l0.002,0.003c-0.334,0.332-0.638,0.842-0.756,1.01c-0.257,0.362-0.486,0.752-0.664,1.16
			c-0.173,0.396-0.034,0.907,0.455,0.958c0.41,0.044,0.769-0.283,1.024-0.567c0.289-0.32,0.488-0.714,0.694-1.088
			c0.07-0.129,0.139-0.26,0.206-0.393c0.047,0.071,0.095,0.142,0.149,0.212c0.296,0.382,0.724,0.837,1.266,0.697
			c0.268-0.069,0.455-0.3,0.471-0.577c0.014-0.285-0.132-0.508-0.296-0.727c-0.243-0.33-0.692-0.711-1.114-0.797
			c0.003-0.017,0.004-0.032,0.008-0.048c0.561-0.193,1.108-0.609,1.514-0.905c0.336-0.247,0.769-0.507,0.99-0.875
			C127.931,214.135,127.775,213.554,127.271,213.462z"/>
	</g>
	<path fill="#65853A" d="M166.368,164.301c-4.848,0-8.778,3.93-8.778,8.779c0,0.324,0.021,0.646,0.055,0.962
		c-1.344-3.193-4.502-5.435-8.182-5.435c-4.901,0-8.875,3.974-8.875,8.874c0,4.903,3.973,8.876,8.875,8.876
		c4.901,0,8.875-3.973,8.875-8.876c0-0.333-0.022-0.66-0.058-0.984c1.333,3.15,4.454,5.36,8.089,5.36
		c4.849,0,8.779-3.93,8.779-8.777C175.147,168.23,171.217,164.301,166.368,164.301z"/>
	<g>
		<g>
			<path fill="#87A43D" d="M146.582,148.283c-1.649,0.502-3.166,1.446-4.393,2.907c-0.53,0.632-1.122,1.203-1.431,1.968
				c-0.21,0.521-0.218,1.078-0.508,1.58c0.664-2.777-1.403-5.817-3.917-6.929c-2.026-0.896-4.521-0.677-6.319,0.615
				c-1.491,1.071-2.44,2.768-2.936,4.533c-0.474,1.693-0.335,3.495-0.756,5.147c-0.783-0.374-1.57-0.837-2.405-1.166
				c-4.398-1.731-8.848-0.798-12.934,1.503c-2.153,1.211-4.045,2.994-5.047,5.253c-1.31,2.945-0.97,6.455,0.43,9.359
				c1.975,4.1,6.491,8.909,11.559,7.647c-0.549,0.138-1.001,0.973-1.352,1.391c-0.434,0.518-0.864,1.04-1.302,1.555
				c-3.634,4.26-2.208,11.525,1.485,15.243c0.92,0.927,1.999,1.71,3.208,2.201c2.16,0.875,4.614,0.76,6.871,0.183
				c2.889-0.737,5.567-2.237,7.746-4.264c1.116-1.038,1.859-2.306,2.865-3.412c1.689-1.861,3.138-0.704,5.443-1.245
				c2.399-0.562,4.538-2.167,6.12-4.01c1.903-2.215,3.291-4.941,3.579-7.847c0.29-2.917-0.909-5.437-2.353-7.879
				c3.545-1.462,6.8-2.792,9.187-6.09c2.773-3.834,3.443-9.375,0.813-13.307c-0.973-1.454-2.333-2.628-3.852-3.5
				C153.35,147.977,149.723,147.326,146.582,148.283z M148.21,172.872c0.008-0.012,0.021-0.02,0.03-0.03l0.272,0.328
				C148.379,173.104,148.277,173.005,148.21,172.872z"/>
		</g>
	</g>
	<path fill="#B0D237" d="M134.86,157.797c-1.005,1.438-1.283,3.556-1.578,5.241c-0.078,0.442-0.176,0.984-0.272,1.588
		c-1.183-1.387-2.474-2.714-3.986-3.569c-1.365-0.773-3.186-0.622-4.084,0.798c-0.876,1.385-0.302,3.269,0.017,4.735
		c0.324,1.492,0.737,2.827,1.337,4.023c-3.867-0.228-9.849,1.818-8.235,6.731c0.822,2.505,3.896,3.646,6.274,4.074
		c0.204,0.038,0.413,0.072,0.625,0.106c-1.212,2.48-1.641,5.401,0.767,7.367c2.86,2.337,7.096,1.929,8.289-1.905
		c0.251-0.806,0.341-1.637,0.412-2.469c0.251-0.688,0.442-1.385,0.548-2.089c0.117-0.031,0.231-0.072,0.338-0.12
		c0.041,0,0.077,0.003,0.117,0.003c1.188-0.008,2.351-0.118,3.524-0.293c1.34-0.198,2.812-0.38,3.927-1.214
		c2.101-1.573,1.367-4.3-0.801-5.33c-1.172-0.557-2.401-0.815-3.684-0.973c-0.107-0.014-0.212-0.019-0.318-0.026
		c0.068-0.36,0.083-0.734,0.053-1.118c0.943-1.964,1.584-4.048,2.223-6.124c0.931-3.022,3.224-8.228-0.231-10.602
		C138.379,155.434,136.031,156.121,134.86,157.797z M140.038,176.464c0.009-0.01,0.02-0.019,0.029-0.026
		C140.069,176.442,140.064,176.451,140.038,176.464z"/>
</g>
</svg>
