<?xml version="1.0" encoding="utf-8"?>
<!-- Generator: Adobe Illustrator 16.0.0, SVG Export Plug-In . SVG Version: 6.00 Build 0)  -->
<!DOCTYPE svg PUBLIC "-//W3C//DTD SVG 1.1//EN" "http://www.w3.org/Graphics/SVG/1.1/DTD/svg11.dtd">
<svg version="1.1" id="Layer_1" xmlns="http://www.w3.org/2000/svg" xmlns:xlink="http://www.w3.org/1999/xlink" x="0px" y="0px"
	 width="350px" height="350px" viewBox="0 0 350 350" enable-background="new 0 0 350 350" xml:space="preserve">
<g>
	<path fill="#5FA945" d="M327.883,199.859c3.778-10.54-8.145-21.387-17.908-22.422c-4.176-0.438-8.93,1.203-12.941,2.251
		c-12.507,3.267-23.776,2.97-36.575,0.578c-12.534-2.342-26.075-2.747-38.965-2.141c-12.705,0.598-27.162,2.901-39.812,0.421
		c-10.435-2.047-18.256-5.155-29.276-4.048c-12.367,1.243-24.64-0.438-37.231-0.438c-22.972,0-51.531-11.566-73.039,0.14
		c-7.003,3.812-13.348,7.665-20.734,10.663c1.303,3.449,3.633,9.208,6.215,12.238c4.272,5.018,7.752,3.347,13.833,3.956
		c5.598,0.561,12.103,2.417,16.454,6.202c3.551,3.089,4.795,7.818,8.553,10.551c11.329,8.238,35.009,3.14,47.703,1.845
		c16.341-1.668,38.26,0.208,52.891-8.048c2.336-1.318,4.487-2.292,5.546-4.77c-0.767-0.653-1.012-1.762-1.547-2.309
		c10.765-1.177,21.319-4.755,32.576-5.681c12.608-1.036,23.736,3.8,36.155,4.911c14.788,1.321,27.81-3.86,42.623,0.263
		c9.886,2.752,21.481,3.095,31.51,0.408C318.464,203.213,323.074,199.746,327.883,199.859z"/>
	<path fill="#377639" d="M46.98,180.591c-3.804,1.255-5.844,2.561-4.031,6.294c1.67,3.439,4.76,7.173,7.39,9.92
		c7.355,7.687,18.856,10.375,28.613,13.891c12.768,4.603,24.15,2.998,37.328,2.177c9.163-0.57,52.882-3.079,46.339-19.923
		c-3.34-8.596-11.62-10.091-19.621-10.857c-18.907-1.814-37.336-0.887-56.166-4.409c-6.309-1.181-12.915,0.522-19.424,0.624
		C60.45,178.415,53.738,178.36,46.98,180.591z"/>
	<path fill="#377639" d="M313.042,188.001c3.826,9.153-14.977,7.763-19.206,7.575c-11.74-0.519-22.811,2.536-34.532,0.479
		c-14.36-2.521-28.924-3.623-43.434-4.669c-11.125-0.801-22.345-0.667-33.563-0.667c-5.292,0-14.686,0.94-18.71-2.982
		c1.76-3.001,3.595-3.843,6.797-4.52c3.214-0.681,4.63-1.316,7.596-2.918c9.057-4.89,21.374-4.21,31.42-4.21
		c17.658,0,35.227-1.294,52.895-0.367c6.805,0.358,13.468,0.86,20.185,1.782c6.358,0.873,12.342,3.088,18.604,4.242
		C305.276,182.517,311.097,183.345,313.042,188.001z"/>
	<path fill="#593D25" d="M286.161,127.597c-0.66,1.324-1.757,2.237-2.26,3.713c0.991,0.533,2.69,0.219,3.766,0.101
		c1.044,2.15-5.381,5.004-6.738,5.862c-1.867,1.181-10.657,5.987-11.415,1.249c-0.551-3.445,7.873-6.359,10.211-7.479
		c1.827-0.875,3.541-1.758,5.427-2.434L286.161,127.597z"/>
	<path fill="#6E5034" d="M147.108,185.977c-0.614,4.973,2.387,10.436,6.178,14.623c0.462,0.511,0.936,1.006,1.417,1.475
		c-2.634,1.266-6.395,1.309-10.026,0.924c0,0,0-0.003-0.002,0c-2.681-0.285-5.292-0.805-7.32-1.236
		c-2.554-0.541-5.25-1.771-7.83-2.157c-2.768-0.415-5.334,1.163-8.182,2.246c-7.301,2.781-15.817,5.429-23.932,6.124
		c-1.738,0.148-3.563,0.298-5.402,0.381c-4.875,0.223-9.872-0.009-13.752-1.89c-1.087-0.526-2.266-1.13-3.027-1.935
		c2.124-0.737,4.444-1.619,6.142-3.075h-0.146c-8.078-0.054-20.16-8.51-22.769-14.564c11.876-1.594,16.739-15.191,19.313-23.043
		c1.439-4.394,2.115-8.919,3.465-13.33c0.306-1.001,0.653-2.806,1.244-4.354c0.402-1.065,0.921-2.005,1.618-2.479
		c1.708-1.167,4.633-0.392,6.715-1.035l7.507-0.787l37.838-3.967l2.941-0.308l0.117-0.012c0,0.104,0.002,0.208,0.005,0.313
		c0.002,0.392,0.009,0.787,0.021,1.182c0.227,8.532,1.748,17.195,4.161,25.444c1.867,6.382,3.587,20.906,11.875,23.52
		C152.425,188.193,149.321,187.369,147.108,185.977z"/>
	<path fill="#593D25" d="M153.377,187.166c0.592,0.361,1.226,0.655,1.902,0.868c-2.854,0.159-5.958-0.665-8.171-2.058
		c-0.614,4.973,2.387,10.436,6.178,14.623c-0.752-0.3-1.507-0.742-2.259-1.346c-3.018-2.422-5.364-5.955-7.445-9.18
		c-4.93-7.634-6.07-17.133-6.79-25.958c-0.225-2.747-0.228-5.493-0.231-8.243c-0.001-0.393-0.001-0.785-0.002-1.178
		c0.013-0.393,0.031-0.785,0.05-1.177c0.018-0.394,0.038-0.788,0.056-1.183c-0.204-2.373,0.789-5.352-0.949-7.338
		c-1.242-1.489-3.972,0-5.247-2.271c-0.109-0.271-0.155-0.552-0.15-0.837c0.018-1.14,0.846-2.354,1.674-3.347
		c1.489-1.241,3.227-3.227,5.46-2.233c0.372,0.124,0.669,0.33,0.906,0.601c0.199,0.225,0.355,0.494,0.482,0.795
		c0.846,4.313,0.846,8.781,1.466,12.975c0.065,0.425,0.133,0.849,0.205,1.273c0.707,4.24,1.685,8.435,2.891,12.56
		c1.208,4.132,1.897,8.393,3.289,12.478c0.735,2.161,1.613,4.31,2.857,6.231c0.903,1.396,3.957,3.406,3.957,4.885L153.377,187.166z"
		/>
	<path fill="#593D25" d="M97.151,174.063c-3.185,7.969-6.003,16.892-11.635,23.437c-1.323,1.538-2.763,2.859-4.289,3.956
		c-8.078-0.054-20.16-8.51-22.769-14.564c11.876-1.594,16.739-15.191,19.313-23.043c1.439-4.394,2.115-8.919,3.465-13.33
		c0.306-1.001,0.653-2.806,1.244-4.354c-0.03-0.144-0.044-0.291-0.047-0.439c-0.054-2.608,3.158-2.991,4.339-4.9
		c1.514-2.45-0.581-3.686,3.646-6.146c0.904-0.526,1.802-0.974,2.699-1.348c0.457,0.266,0.899,0.593,1.328,0.986
		c2.178,1.985,3.267,4.669,3.875,7.546c0.667,3.156,0.754,6.539,1.058,9.48c0.069,0.687,0.134,1.365,0.19,2.038
		C100.186,160.619,99.953,167.048,97.151,174.063z"/>
	<path fill="#593D25" d="M144.675,202.998c-2.681-0.285-5.292-0.805-7.32-1.236c-2.554-0.541-5.25-1.771-7.83-2.157
		c-2.768-0.415-5.334,1.163-8.182,2.246c-7.301,2.781-15.817,5.429-23.932,6.124c-1.738,0.148-3.563,0.298-5.402,0.381
		c1.636-3.983,6.594-4.016,10.262-4.879c5.206-1.224,9.471-3.9,13.042-7.819c3.751-4.116,6.206-9.85,8.17-14.993
		c1.238-3.242,1.479-11.565,4.2-13.276c1.789,3.138,1.484,6.348,2.204,9.739c0.953,4.48,3.061,9.691,5.233,13.692
		C136.688,193.708,140.788,199.681,144.675,202.998z"/>
	<path fill="#593D25" d="M149.27,204.966v0.372c-0.058,0-0.114-0.002-0.171-0.006C149.165,205.217,149.223,205.096,149.27,204.966z"
		/>
	<path fill="#8F6D51" d="M139.243,139.07c-0.48,1.634-2.819,3.351-4.487,4.155c-0.387,0.187-0.741,0.323-1.023,0.4
		c0.348,0.084,0.655,0.179,0.921,0.283c2.614,1.005,1.544,2.81-0.333,4.367c-1.494,1.236-3.498,2.313-4.575,2.704
		c-4.907,1.78-10.682,2.413-16.006,2.606c-4.687,0.171-9.475,0.253-14.172-0.204c-1.455-0.139-2.899-0.333-4.331-0.591
		c-3.192-0.576-12.044-2.803-12.757-6.625c-0.03-0.144-0.044-0.291-0.047-0.439c-0.054-2.608,3.158-2.991,4.339-4.9
		c1.514-2.45-0.581-3.686,3.646-6.146c0.904-0.526,1.802-0.974,2.699-1.348c8.309-3.51,16.451-1.184,25.443-1.298
		c4.529-0.057,14.323-0.328,18.757,3.274c0.779,0.63,1.395,1.385,1.782,2.281c0.045,0.1,0.085,0.199,0.123,0.301
		c0.004,0.013,0.009,0.028,0.015,0.04C139.367,138.295,139.358,138.68,139.243,139.07z"/>
	<path fill="#6E5034" d="M60.339,181.976c-3.219,1.373-6.229,2.116-9.602,2.653c-2.177,0.346-3.635,1.465-5.56,2.32
		c2.433,1.43,4.979,1.51,7.71,1.821c1.576,0.179,2.488,0.824,3.972,1.323c1.302,0.437,2.494,0.291,3.802,0.161
		c2.885-0.287,5.645-0.461,8.444-1.357c3.755-1.2,7.281-4.351,10.385-6.747c3.548-2.737,3.469-6.451,4.55-10.426
		c0.839-3.09,0.625-5.417,0.299-8.605c-0.308-3.013-0.394-6.081-0.505-9.102c-0.053-1.453-0.226-2.583-0.497-3.972
		c-0.084-0.434-0.336-3.63-0.53-3.772c-0.057-0.059-0.114-0.119-0.169-0.179c-0.849,0.586-1.3,3.23-1.613,4.278
		c-0.588,1.97-1.04,3.967-1.66,5.957c-0.562,1.801-1.034,3.544-1.525,5.336c-1.012,3.688-1.142,8.151-3.96,11.036
		C70.016,176.656,65.458,179.791,60.339,181.976z"/>
	<path fill="#593D25" d="M118.938,150.223c-5.121,1.09-10.652,1.488-15.89,1.248c-2.958-0.135-5.835-0.469-8.525-1.784
		c-0.948-0.463-2.497-1.933-2.376-3.111c0.167-1.624,1.779-0.51,2.241-1.339c0.539-0.997-0.923-2.922-0.278-4.317
		c0.451-0.975,1.411-2.45,2.509-2.77c1.005-0.292,2.147-0.1,3.24-0.432c5.743-1.74,11.689-0.992,17.715-1.265
		c3.002-0.136,6.072-0.474,9.035-0.902c1.78-0.257,5.952-1.043,7.202,0.778c1.536,2.238-2.191,4.783-3.424,6.078
		c-0.922,0.967-0.437,1.134-0.6,2.206c-0.157,1.038-0.948,2.041-1.681,2.74C125.354,149.976,122.288,149.51,118.938,150.223z"/>
	<path fill="#6E5034" d="M322.623,161.856c-2.612,3.234-2.873,8.624-5.809,11.613c-2.399,2.451-6.763,3.585-9.902,5.123
		c-1.449,0.709-2.434,1.371-3.176,2.048c-1.857,1.678-2.287,3.461-4.929,6.405c-5.266,5.872-18.461,4.109-25.741,3.779
		c-14.688-0.666-29.515-0.692-44.239-1.914c-9.71-0.802-19.287-0.995-28.947-1.524c-6.859-0.375-17.818-0.396-20.305-8.313
		c-0.892-2.845-1.141-5.622-0.858-8.24c1.212-11.36,12.371-19.693,24.009-17.466c5.535,1.059,10.729,3.569,16.294,4.381
		c6.709,0.974,13.834,1.105,20.611,1.533c4.712,0.298,11.729,0.926,15.84-1.823c3.729-2.49,3.305-6.751,5.079-11.165
		c4.352-10.805,9.421-12.796,20.101-16.651c1.893-0.683,3.735-1.021,5.545-1.982c-2.467,3.591-8.134,4.532-9.97,8.44
		c3.921-0.188,10.803-1.511,12.63-5.722c2.587,6.846-18.698,10.53-20.154,20.512c-0.258,1.788,0.118,3.78,1.38,6.024
		c1.587,2.823,4.356,3.828,7.45,4.155c0.001-0.004,0.005-0.003,0.005-0.003c3.686,0.39,7.832-0.192,10.971,0.192
		c2.761,0.339,4.995,1.025,6.804,2.183c2.758,1.764,4.526,4.627,5.663,9.036c2.464-0.305,4.563-1.062,6.473-2.19
		c1.21-0.713,2.341-1.573,3.439-2.565c4.261-3.841,2.297-2.443,1.669-7.477c-0.358-2.877-1.016-6.764,3.673-8.095
		c1.347-0.379,2.311-0.414,2.945-0.185c1.601,0.566,1.15,2.774-0.513,5.321c0.652,0.329,1.235,0.538,1.924,0.756
		c0.984-0.96,2.089-1.864,3.186-2.739c0.546-0.437,1.09-0.866,1.619-1.292c-0.346-0.845-0.463-0.957-1.021-1.652
		C330.917,155.804,324.978,158.934,322.623,161.856z"/>
	<path fill="#593D25" d="M303.736,180.64c-1.857,1.678-2.287,3.461-4.929,6.405c-5.266,5.872-18.461,4.109-25.741,3.779
		c-14.688-0.666-29.515-0.692-44.239-1.914c-9.71-0.802-19.287-0.995-28.947-1.524c-6.859-0.375-17.818-0.396-20.305-8.313
		c-0.892-2.845-1.141-5.622-0.858-8.24c3.006,2.267,6.202,3.951,10.06,4.691c2.218,0.425,4.52,0.52,6.712,1.077
		c0.735,0.184,3.679,1.734,4.17,1.636c3.33-0.669,8.433,0.297,12.181,0.541c4.787,0.313,9.617,0.661,14.425,1.154
		c9.644,0.999,19.303,1.27,28.99,2.076c5.831,0.489,12.104,1.451,17.855,1.259c3.518-0.117,7.409-2.082,10.523-1.711
		c2.392-3.439,15.33-1.851,19.206-1.138C303.152,180.475,303.449,180.549,303.736,180.64z"/>
	<path fill="#593D25" d="M277.531,161.068c-0.911,0.509-1.699,0.917-2.22,1.177c-2.008,1.004-5.436,3.719-7.743,1.768
		c-1.829-1.55-0.302-5.586-0.014-7.491c0.29-1.932,0.389-3.908,1.146-5.633c-0.258,1.788,0.118,3.78,1.38,6.024
		C271.668,159.736,274.438,160.741,277.531,161.068z"/>
	<path fill="#593D25" d="M302.538,181.798c-3.165,2.564-6.25-0.706-7.747-3.48c-1.767-3.275-2.361-9.867-0.757-13.299
		c0.307-0.657,0.742-1.173,1.276-1.579c2.758,1.764,4.526,4.627,5.663,9.036c2.464-0.305,4.563-1.062,6.473-2.19
		c-0.886,0.955-1.771,1.906-2.204,3.103C304.323,175.942,304.759,180.002,302.538,181.798z"/>
	<path fill="#8F6D51" d="M295.152,188.434c4.201-3.318,5.416-8.181,5.224-13.702c-0.12-3.436-1.089-7.137-3.284-9.849
		c-2.005-2.474-5.92-5.104-9.04-2.701c-1.104,0.851-1.359,2.16-2.038,3.347c-1.154,2.021-2.335,3.75-2.931,6.054
		c-1.028,3.981-0.731,8.215,0.026,12.215c0.96,5.058,4.327,9.053,9.784,6.11C293.728,189.459,294.479,188.967,295.152,188.434z"/>
	<path fill="#593D25" d="M323.77,155.301c-0.777,1.947-2.764,4.313-4.111,4.866c-2.442,1.008-4.052-1.699-3.567-3.844
		c0.283-1.256,0.763-1.416,1.655-2.224c0.76-0.69,0.981-1.475,1.427-2.137c1.601,0.566,1.15,2.774-0.513,5.321
		c0.652,0.329,1.235,0.538,1.924,0.756C321.568,157.081,322.673,156.176,323.77,155.301z"/>
	<path fill="#442A17" d="M231.971,166.098c3.738,0.414,7.508,0.757,11.249,1.153c2.766,0.292,6.388,0.393,8.938,1.349
		c-3.194,0.511-6.762-0.363-10.129-0.405c-4.038-0.051-8.107,0.442-12.113,0.113c-3.396-0.28-6.313-1.708-9.832-1.705
		c-3.754,0.004-7.18-0.155-10.865-0.697c-3.039-0.447-6.088-1.124-9.032-1.941c-2.386-0.663-5.155-0.822-7.389-1.773
		c1.428-1.715,9.112-0.346,11.254,0.075C213.228,164.066,222.544,165.051,231.971,166.098z"/>
	<path fill="#442A17" d="M249.564,173.658c1.439,0.082,2.54-0.725,4.004-0.55c1.693,0.203,3.205,1.178,4.916,1.314
		c3.133,0.249,6.292-0.563,9.442-0.356c2.903,0.191,5.684,1,8.323,0.981c-2.014,2.324-8.363,1.418-11.173,1.212
		c-2.94-0.217-6.303-0.306-9.096-1.314c-2.156-0.779-3.54-1.816-5.999-1.323L249.564,173.658z"/>
	<path fill="#442A17" d="M285.465,174.333c-0.822,3.544,0.415,6.692,0.979,10.13c0.63,3.836,2.47,5.224,6.196,3.271
		c2.798-1.465,4.196-4.651,4.903-7.727c0.729-3.172,1.341-8.158-0.118-11.21c-1.075-2.247-3.612-6.094-6.7-5.024
		C287.668,164.833,286.097,171.607,285.465,174.333z"/>
	<path fill="#5FA945" d="M41.567,178.223c0.104-0.022,0.21-0.044,0.315-0.065c-0.1-0.108-0.027-0.019-0.062,0.005
		c-0.88-1.385-4.595-3.535-6.075-3.817c1.608-1.112,3.526-1.074,5.177-0.144c-0.435-1.617-0.271-3.871,0.998-5.08
		c0.031,0.156-0.016-0.085-0.048-0.04c0.444,1.303,0.386,2.676,1.077,3.97c0.036-2.25,1.571-3.785,3.47-4.695
		c0.206,1.098-0.389,2.281-0.45,3.351c0.716-0.686,1.71-2.505,0.962-3.438c0.998,0.77,1.686,1.692,2.364,2.691
		c0.142-2.214,2.5-4.404,4.764-4.092c-0.542,0.844-1.639,2.924-1.109,3.93c0.482-1.428,1.683-1.844,2.985-2.191
		c-0.668,2.128-0.311,3.925-0.509,6.093c-1.212,0.601-2.978,0.434-4.35,0.767c-3.739,0.908-7.267,2.381-11.134,2.757H41.567z"/>
	<path fill="#5FA945" d="M152.637,175.713c-0.642-1.24-2.022-3.244-3.583-3.245c1.022-0.714,2.466-0.357,3.567-0.019
		c-0.218-1.47-0.042-2.778,0.991-3.979c0.081,1.122,0.641,1.937,1.05,2.981c0.873-0.754,1.425-2.354,1.067-3.475
		c-0.048-0.043-0.051-0.042-0.01,0.006c0.997,0.588,1.433,1.869,1.794,2.622c-0.078-1.551,1.93-2.75,3.104-3.254
		c-0.063,0.817-0.591,2.039-0.2,2.816c0.854-1.404,2.079-1.388,3.579-1.313c-0.088,0.87-0.891,1.61-0.958,2.467
		c1.271-0.137,1.904-0.91,2.732-1.878c0.376,0.657,0.528,1.795,1.122,2.281c0.683-0.556,1.356-1.32,2.094-1.744
		c0.476,0.782-0.249,2.074-0.581,2.838c1.354-0.093,2-0.275,3.314,0.519c-2.649,0.7-3.209,4.308-4.951,6.127L152.637,175.713z"/>
	<path fill="#5FA945" d="M317.951,182.216c0.569-1.605-0.541-3.296-1.453-4.512c1.214-0.027,2.054,0.475,2.798,1.372
		c0.455-1.125,1.71-1.838,2.895-1.712c-0.197,0.517-0.547,1.036-0.948,1.457c1.27-0.167,3.235,0.045,4.074,1.245
		c-0.687,0.149-1.524,0.25-1.976,0.874c1.659-0.153,2.938,1.322,3.819,2.514c-0.596-0.182-1.438,0.171-1.913,0.644
		c1.255,0.132,2.399,1.036,3.163,2.004c-2.954-0.645-3.663,2.388-6.083,2.992L317.951,182.216z"/>
	<path fill="#593D25" d="M116.009,151.701c-0.788,0.688-2.946,1.95-4.185,2.019c1.333,1.187,2.658,3.853,2.827,5.475
		c0.263,2.514,0.44,5.329,1.07,7.752c-0.932-2.086-0.482-5.264-0.588-7.557c-0.09-1.947-0.195-3.955-0.081-5.92
		c0.736-0.339,0.773-1.325,1.054-1.964L116.009,151.701z"/>
</g>
</svg>
