<?xml version="1.0" encoding="utf-8"?>
<!-- Generator: Adobe Illustrator 16.0.0, SVG Export Plug-In . SVG Version: 6.00 Build 0)  -->
<!DOCTYPE svg PUBLIC "-//W3C//DTD SVG 1.1//EN" "http://www.w3.org/Graphics/SVG/1.1/DTD/svg11.dtd">
<svg version="1.1" id="Layer_1" xmlns="http://www.w3.org/2000/svg" xmlns:xlink="http://www.w3.org/1999/xlink" x="0px" y="0px"
	 width="350px" height="350px" viewBox="0 0 350 350" enable-background="new 0 0 350 350" xml:space="preserve">
<g id="XMLID_61_">
	<path id="XMLID_1807_" fill="none" d="M181.99,105.34c-0.076-0.213-0.122-0.435-0.115-0.672c0,0,0.529-0.962-0.322-1.312
		c-0.484-0.198-0.89-0.504-1.209-0.885c-0.16,0.213-0.312,0.442-0.442,0.697C179.032,104.864,180.146,104.926,181.99,105.34z"/>
	<path id="XMLID_1806_" fill="none" d="M173.451,141.211c0.984,1,0.097,0.214,1.214-0.277c1.118-0.492,1.551-0.874,2.28-0.377
		s0.709-0.785,1.597-0.883c0.887-0.1,0.611-0.509,1.648,0.798c0.079,0.1,0.14,0.181,0.206,0.267c0.784-0.422,0.52,0.183,0.248-0.696
		c-0.327-1.061,0.259-0.415,2.347-0.643c2.09-0.229,0.421-0.596-0.441-1.398c-0.862-0.803-0.665,0.015-0.787-1.368
		c-0.028-0.33,0.045-0.514,0.155-0.611c-0.833-0.248-0.156-0.377-0.146-1.477c0.012-1.187,0.239-0.036,1.179-0.796
		c0.068-0.055,0.125-0.092,0.187-0.136c-0.261-0.025-0.564-0.1-0.925-0.187c-0.954-0.227-0.843-0.594-0.82-0.079
		c0.023,0.515-0.886,1.716-1.115,0.917c-0.229-0.8-0.919-0.5-1.223-0.384c-0.24,0.092-0.806,0.381-1.547,0.217
		c-0.626,0.197-1.279,0.297-1.954,0.226c0,0-1.06,0.96-0.345,2.242c0,0-1.212,1.323-2.794,3.758
		C172.649,140.476,172.989,140.741,173.451,141.211z"/>
	<path id="XMLID_1805_" fill="none" d="M183.845,115.896c0.824,0.333,0.635,0.471,0.513,0.972s0.22,0.755,0.906,1.071
		c0.688,0.317-0.653,0.437-1.117,1.532c-0.427,1.003-0.391,0.973,0.975,1.961l-0.002-0.002c0,0-0.887-0.972,0.759-0.774
		c-0.217-0.195-0.081-0.555,1.409-1.166c2.357-0.967,1.148-1.021,0.924-1.143c-0.012,0-0.022,0-0.035,0.001
		c0.004-0.006,0.007-0.012,0.01-0.018c-0.019-0.018-0.008-0.039,0.032-0.063c1.224-2.284,2.054-4.755,2.418-7.45
		c-0.294-0.72-0.471-1.152-0.471-1.152s-0.661-0.463-0.267-1.047c-0.246-0.034-0.491-0.069-0.737-0.107
		c-0.155,0.321-0.266,0.725-0.277,1.272c-0.067,3.282-1.209,3.3-3.724,4.76c-0.88,0.512-1.393,0.827-1.698,1.06
		C183.475,115.668,183.545,115.776,183.845,115.896z"/>
	<path id="XMLID_1804_" fill="none" d="M194.386,144.219c-0.021-0.02-0.036-0.037-0.062-0.059c0.002,0.015,0.005,0.031,0.008,0.046
		C194.349,144.21,194.37,144.214,194.386,144.219z"/>
	<path id="XMLID_1803_" fill="none" d="M193.837,144.093c0.039,0.007,0.065,0.016,0.103,0.023c-0.024-0.108-0.047-0.215-0.071-0.323
		c-0.105-0.082-0.211-0.163-0.341-0.264c-1.372-1.065,0.021-1.376-1.425-1.923c-0.92-0.348-0.577,0.639-0.462,1.573
		C192.326,143.535,193.129,143.959,193.837,144.093z"/>
	<path id="XMLID_1802_" fill="none" d="M136.541,91.909c0.101-0.115,0.144-0.265,0.17-0.422c-0.649-0.21-1.241-0.382-1.447-0.659
		c0,0-1.994,0.893-1.097-0.628c0.419-0.709,0.294-1.276-0.054-1.63c-0.271,0.487-0.838,0.828-1.77,0.747
		c-2.624-0.229-3.032,0.492-4.695,0.979c-0.167,0.049-0.327,0.082-0.487,0.112c0.049,0.076,0.099,0.153,0.159,0.242
		c0.92,1.349,0.074,0.076-0.866-0.145c-0.116,0.008-0.234,0.009-0.352,0.012c0.296,0.523,0.592,1.046,0.88,1.573
		c2.093-0.112,3.125-2.293,2.731,0.843c-0.185,1.47-0.499,2.552-0.612,3.324c0.193,0.458,0.362,0.929,0.506,1.412
		c0.138,0.06,0.303,0.108,0.507,0.141c0.662,0.104,0.779-0.284,0.801-0.732c-0.314,0.016-0.631-0.043-0.905-0.308
		c-0.844-0.814,0.409,0.626,0.861-0.674c0.451-1.301,2.586,0.128,1.873-1.065c0,0,0.578-0.522,1.045,0.052
		c0.468,0.575,0.553,1.082,0.948-0.198c0.395-1.279,1.075,1.683,1.266,0.063c0.19-1.62-1.676-1.822,0.19-1.62
		C138.06,93.527,136.073,92.437,136.541,91.909z"/>
	<path id="XMLID_1801_" fill="none" d="M181.999,145.451c0.156-0.016,0.433,0.159,0.689,0.208
		C182.296,145.459,182.026,145.317,181.999,145.451z"/>
	<path id="XMLID_1800_" fill="none" d="M129.194,169.525c0.037-0.036,0.05-0.073,0.047-0.111
		C129.221,169.452,129.204,169.489,129.194,169.525L129.194,169.525z"/>
	<path id="XMLID_1799_" fill="none" d="M193.149,117.682c0.049-0.146,0.093-0.251,0.133-0.341c-0.091-0.227-0.183-0.453-0.272-0.676
		c-0.176,0.53-0.367,1.056-0.584,1.571c-0.021,0-0.041,0-0.062,0C192.763,118.481,192.852,118.574,193.149,117.682z"/>
	<path id="XMLID_1798_" fill="none" d="M154.593,100.336c0.072,0.231,0.115,0.428,0.139,0.595c0.097,0.03,0.182,0.064,0.25,0.103
		c0.101-0.129,0.231-0.278,0.401-0.444c0.36-0.354,0.609-0.484,0.794-0.515c0.355-0.438,0.769-0.672,1.158-0.798
		c0.11-1.012-0.936-1.74,0.478-1.347c0.404,0.112,0.787,0.103,1.122,0.06c0.081-0.451,0.169-0.867,0.25-1.236
		c-0.166-0.43-0.141-0.973,0.221-1.686c-0.103-0.327-0.498-0.251-1.481,0.385c-1.272,0.824-2.811,2.692-4.096,4.209
		C154.099,99.49,154.366,99.601,154.593,100.336z"/>
	<path id="XMLID_1795_" fill="none" d="M153.28,100.304c-0.031,0.036-0.062,0.07-0.093,0.106c0.005,0.005,0.012,0.011,0.017,0.017
		C153.229,100.385,153.255,100.344,153.28,100.304z"/>
	<path id="XMLID_1794_" fill="none" d="M155.179,93.561c-0.576-0.195-0.76-0.379-1.256,0.409c-0.229,0.364-0.374,0.652-0.486,0.88
		C154.864,94.556,155.875,94.509,155.179,93.561z"/>
	<path id="XMLID_1793_" fill="none" d="M163.025,139.5l0.25,0.858c0,0-1.875,1.326-0.674,2.235c1.201,0.91,0.794,0.992,0.5,2.199
		c-0.292,1.208-2.147-1.014-2.319,0.099c-0.06,0.383-0.192,0.438-0.327,0.429c0.192,0.816,0.5,2.156,0.839,3.742
		c0.458-0.658-0.054-0.927,1.09-0.356c1.229,0.612,1.464,0.194,1.485-0.338c0.021-0.532-0.983-0.161,0.081-1.303
		c1.065-1.141,0.369-0.462,1.102-1.812c0.733-1.35,1.143-1.217,1.648-1.28c0.507-0.063-0.495-0.95,0.88-1.131
		c0.281-0.037,0.552-0.143,0.811-0.274c1.306-2.583,2.922-5.084,4.92-7.236c-0.01,0-0.02,0.003-0.03,0.003
		c-0.761-0.016-0.516-1.018-1.133-0.404c-0.617,0.614-1.189,1.217-2.833,0.645c-1.644-0.572,0.047,0.416-1.709,0.39
		c-1.757-0.025,0.496,1.969-0.576,1.834c-1.072-0.134-0.258,0.532-0.979,1.312c-0.722,0.78-1.073-0.143-1.073-0.143
		C164.744,139.518,163.576,139.528,163.025,139.5z"/>
	<path id="XMLID_1792_" fill="none" d="M164.161,154.711c-0.052,0.003-0.107,0.006-0.169,0.01c-0.561,0.033-0.444,0.479-1.324-0.03
		c-0.112-0.065-0.204-0.116-0.306-0.173c0.443,2.548,0.768,5,0.728,6.551C163.09,161.069,163.321,158.452,164.161,154.711z"/>
	<path id="XMLID_1791_" fill="none" d="M162.658,151.523c-0.737-1.11-0.243-0.465-0.914-0.88c-0.047-0.029-0.091-0.057-0.137-0.085
		c0.119,0.579,0.238,1.176,0.354,1.781c0.147-0.059,0.309-0.113,0.505-0.157C162.466,152.182,163.395,152.633,162.658,151.523z"/>
	<path id="XMLID_1788_" fill="none" d="M108.092,151.583c0.466-0.119,0.922-0.25,1.364-0.398c0.027-0.085,0.054-0.167,0.082-0.255
		C110.194,148.875,109.085,150.224,108.092,151.583z"/>
	<path id="XMLID_1786_" fill="none" d="M118.105,158.432c0.706-0.089,1.303-0.161,1.739-0.21c-0.12-0.341-0.24-0.683-0.354-1.029
		C119.021,157.544,118.5,157.941,118.105,158.432z"/>
	<path id="XMLID_1784_" fill="none" d="M111.353,121.158c0.171-0.019,0.357-0.035,0.579-0.047c0.046-0.002,0.085-0.004,0.128-0.006
		C112.083,120.591,111.885,120.498,111.353,121.158z"/>
	<path id="XMLID_1783_" fill="none" d="M124.797,170.609c0.372,0.068,0.858,0.128,1.537,0.211c1.887,0.233,0.955-0.035,1.471,0.215
		c0.257-0.297,0.623-0.713,0.953-1.065c-0.205-0.014-0.506-0.057-0.973-0.142C125.515,169.413,125.83,170.002,124.797,170.609z"/>
	<path id="XMLID_1781_" fill="none" d="M126.921,158.565c0.361,0.12,0.654,0.237,0.904,0.333c0.586-0.499,0.899-0.12,0.905-1.056
		c0.013-2.08-0.792-1.269-1.707-0.085c-0.58,0.752-1.508,0.744-2.102,1.031c0.003,0.197,0.117,0.365,0.453,0.464
		C126.897,159.703,125.079,157.954,126.921,158.565z"/>
	<path id="XMLID_1780_" fill="none" d="M125.991,95.308c-0.317-0.758-0.66-1.508-1.044-2.24c-0.268-0.508-0.551-1.012-0.824-1.518
		c-0.248,0.062-0.345,0.225-0.214,1.067c0.283,1.832-0.475-0.131-0.709,1.355c-0.137,0.87-0.515,1.248-0.528,1.525
		c0.235-0.085,0.531,0.079,0.91,0.631c0.854,0.311,0.744,0.097,0.369,0.625c0.157,0.313,0.237,0.557,0.271,0.731
		c0.048-0.253,0.18-0.654,0.504-1.217C125.313,95.246,125.703,95.24,125.991,95.308z"/>
	<path id="XMLID_1779_" fill="none" d="M125.144,134.087c-0.055,0.149-0.133,0.273-0.215,0.39c0.82-0.162,1.566-0.026,1.885-0.76
		c-0.005-0.019-0.008-0.034-0.015-0.054C126.196,131.672,125.667,132.685,125.144,134.087z"/>
	<path id="XMLID_1778_" fill="none" d="M121.221,158.116c0.451-0.104,0.593-0.248,0.01-0.81
		C121.212,157.576,121.212,157.846,121.221,158.116z"/>
	<path id="XMLID_1777_" fill="none" d="M121.004,140.066c-1.059-0.909-1.25-1.434-0.381-1.986c0.476-0.303,1.27-0.509,1.584-0.703
		c-0.018-0.109-0.033-0.215-0.045-0.317c-0.126-0.059-0.316-0.12-0.607-0.186c-0.239-0.054-0.461-0.088-0.667-0.109
		c-0.517,0.962-0.978,2.287-1.32,2.853c-0.024,0.147-0.034,0.298-0.011,0.448c0.198,1.332,0.318,0.878,1.67,0.189
		C121.16,140.198,121.097,140.145,121.004,140.066z"/>
	<path id="XMLID_1776_" fill="none" d="M122.473,158.775c0.138,0.062,0.279,0.129,0.424,0.201c0.16-0.216,0.297-0.467,0.438-0.714
		c-0.113,0.021-0.264,0.084-0.519,0.249C122.706,158.583,122.59,158.675,122.473,158.775z"/>
	<path id="XMLID_1775_" fill="none" d="M122.672,152.338c-0.03,0.061-0.059,0.12-0.088,0.171c-0.028,0.129-0.022,0.315,0.04,0.587
		c0,0-0.416,1.447-0.993,2.159c-0.022,0.072-0.051,0.143-0.072,0.215c-0.039,0.126-0.058,0.252-0.09,0.378
		c1.369,0.351,1.027,0.489,1.685-0.902c0.661-1.397-0.042-1.459,0.786-1.915c-0.097-0.112-0.192-0.235-0.282-0.383
		C123.657,152.647,122.943,152.082,122.672,152.338z"/>
	<path id="XMLID_1774_" fill="none" d="M113.146,153.189c1.071-0.188,1.685-0.672,2.021-1.761
		C114.594,149.993,113.893,151.126,113.146,153.189z"/>
	<path id="XMLID_966_" fill="none" d="M226.118,166.687c-0.14,0.165-0.14,0.292-0.055,0.4c0.3-0.449,0.571-0.906,0.798-1.376
		C225.843,165.575,226.685,166.019,226.118,166.687z"/>
	<path id="XMLID_1772_" fill="none" d="M224.535,110.123c-0.364-0.162-0.695-0.317-0.962-0.419c-0.98-0.374-0.856-0.002-1.318,0.693
		c-0.16,0.242-0.437,0.44-0.773,0.596c0.041,0.492-0.017,1.058-0.26,1.69c-0.683,1.763-2.653,0.507-2.64,1.411
		c0.061-0.014,0.126-0.021,0.187-0.037c1.961-0.425,3.904-0.905,5.854-1.362c0.022-0.299-0.061-0.77-0.082-1.595
		C224.531,110.726,224.527,110.409,224.535,110.123z"/>
	<path id="XMLID_1771_" fill="none" d="M220.252,116.613c0.128,0.028,0.251,0.062,0.365,0.111c0.751,0.322,1.311-0.002,1.573-0.672
		c-0.251,0.064-0.506,0.117-0.754,0.185C221.029,116.341,220.642,116.477,220.252,116.613z"/>
	<path id="XMLID_1770_" fill="none" d="M232.196,163.12c0.086,0.07,0.168,0.137,0.243,0.202
		C232.324,163.157,232.243,163.061,232.196,163.12z"/>
	<path id="XMLID_1768_" fill="none" d="M235.183,132.661c0.778-0.872-0.774-0.361,0.466-1.093c0.916-0.54,0.495-0.572,0.32-1.076
		c-0.605,0.727-1.248,1.433-1.95,2.105c-0.072,0.07-0.139,0.146-0.21,0.217c0.022,0.128-0.079,0.323-0.269,0.581
		c0.074,0.048,0.161,0.103,0.276,0.168C234.846,134.143,234.406,133.533,235.183,132.661z"/>
	<path id="XMLID_1767_" fill="none" d="M219.148,86.967c0.111,0.226,0.229,0.423,0.35,0.594c0.232,0.125,0.531,0.258,0.92,0.41
		c0.625,0.243,1.044,0.366,1.316,0.447c0.063-0.029,0.128-0.057,0.184-0.094c0.658-0.434,1.83,2.219,2.79-0.216
		c0.094-0.24,0.187-0.461,0.277-0.671c-0.364-0.346-1.133-0.411-1.646-0.276c-0.654,0.172-0.543-1.297-0.705-2.788
		c-0.161-1.491-0.717-0.24-2.047-0.234c-0.752,0.002-0.754,0.088-0.769,0.091c-0.294,1.139-0.77,1.8-0.935,2.279
		C218.973,86.639,219.06,86.787,219.148,86.967z"/>
	<path id="XMLID_1766_" fill="none" d="M242.042,93.347c-0.098-0.165-0.196-0.358-0.305-0.615c-0.614-1.471-1.847-0.252-2.06,1.488
		c0.158-0.055,0.336-0.107,0.55-0.153C240.88,93.926,241.477,93.662,242.042,93.347z"/>
	<path id="XMLID_1765_" fill="none" d="M219.691,67.038c0.817-1.499,1.469-2.999,1.942-4.531c-4.057-0.427-8.419-0.855-10.122-1.022
		c0.168,0.497,0.387,1.503,0.91,3.131c0.082,0.256,0.145,0.489,0.207,0.72c0.227-0.213,0.477-0.409,0.766-0.572
		c-0.24,0.28-0.465,0.545-0.697,0.819c1.062,4.284-1.19,4.225,3.356,3.714c1.506-0.169,2.226-0.179,2.612-0.085
		C218.961,68.458,219.288,67.725,219.691,67.038z"/>
	<path id="XMLID_1764_" fill="none" d="M225.396,62.924c0.005-0.002,0.014-0.005,0.02-0.008c-0.791-0.088-1.644-0.182-2.529-0.277
		l-0.264,1.715L225.396,62.924L225.396,62.924z"/>
	<path id="XMLID_1763_" fill="none" d="M147.486,97.027c0.336,1.009-0.146-1.496,1.728-0.355c0.165,0.1,0.306,0.176,0.452,0.256
		c0.083-0.227,0.345-0.512,0.917-0.938c0.426-0.318,0.888-0.542,1.351-0.718c-0.768-0.233-0.771-0.234-0.771-0.234
		s-0.798,0.036-0.365-1.6s-0.34,0.077-0.34,0.077s-1.552-0.671-1.062-1.734c0.49-1.063,1.837-0.858,0.849-2.023
		c-0.989-1.165-0.466-0.479-2.29,0.521c-1.823,1-2.034,2-2.877,0.875c-0.842-1.125-1.821-1.564-3.068-0.29
		c-0.533,0.543-1.081,1.06-1.603,1.416c0.287,1.069,1.064-0.66,1.351,0.108c0.292,0.787,0.757,0.313,0.727,0.918
		c-0.03,0.605,0.883-0.011,0.391,1.012c-0.493,1.023-1.506,0.312-1.053,1.216c0.148,0.297,0.172,0.529,0.18,0.71
		c0.074,0.117,0.148,0.233,0.234,0.363c0.02,0.029,0.032,0.055,0.051,0.083c0.101,0.009,0.224,0.009,0.416-0.011
		c1.108-0.11,0.968-0.613,2.328-0.215C146.392,96.863,147.15,96.019,147.486,97.027z"/>
	<path id="XMLID_1762_" fill="none" d="M246.368,90.758c-0.064,0.036-0.109,0.082-0.143,0.133c0.544-0.161,1.109-0.214,1.72-0.08
		c0.104,0.022,0.203,0.046,0.306,0.069c-0.024-0.054-0.055-0.146-0.101-0.31C247.731,89.083,247.279,90.253,246.368,90.758z"/>
	<path id="XMLID_1761_" fill="none" d="M228.229,168.477c0.134,0.454,0.309,0.686,0.669,0.78c0.938-0.52,1.896-1.031,2.7-1.688
		c1.163-0.938,2.187-1.956,3.178-3.005c-0.238-0.075-0.491-0.121-0.757-0.078c-0.365,0.059-0.673-0.108-0.929-0.345
		c-0.01,0.263-0.503,0.357-1.67,0.275c-2.381-0.168-0.613,0.423-0.009,1.208c0.438,0.569-0.615,0.655-2.047,0.496
		c-0.325,0.759-0.73,1.5-1.192,2.231C228.193,168.392,228.215,168.433,228.229,168.477z"/>
	<path id="XMLID_1760_" fill="none" d="M227.802,110.671c-0.6,0.208-1.258,0.136-1.895-0.039c-0.248,0.429-0.41,1.107-0.115,1.789
		c0.184-0.041,0.364-0.088,0.549-0.128c0.119-0.026,0.241-0.049,0.36-0.066c0.145-0.021,0.288-0.039,0.433-0.06
		c0.193-0.457,0.385-0.814,0.683-0.396c0.067,0.094,0.104,0.188,0.138,0.28c0.521-0.072,1.041-0.144,1.561-0.211
		c-0.2-0.752-0.327-1.267-0.395-1.612C228.777,110.321,228.368,110.475,227.802,110.671z"/>
	<path id="XMLID_1759_" fill="none" d="M234.547,92.519c1.189,0.468,0.088,1.093-0.273,1.217c-0.352,0.12-1.057,0.891-0.698,1.863
		c0.278-0.017,0.547-0.03,0.8-0.04c0.3-0.374,0.588-0.812,0.751-0.355c0.047,0.127,0.056,0.243,0.049,0.352
		c0.792,0.034,1.149,0.22,0.495,0.801c-0.379,0.337-0.815,0.536-1.251,0.675c0.419,0.27,1.948-0.983,1.948-0.983
		c0.038-3.633,0.146-1.49,1.06-2.674c0.213-0.276,0.495-0.445,0.789-0.541c-0.08-0.325-0.156-0.664-0.226-1.021
		c-0.627-3.243-1.568,0.84-2.367-0.943c-0.798-1.783-0.281-0.289-1.881,1.192c-1.602,1.481-2.074,0.081-2.1-1.389
		c-0.025-1.469-2.714,1.609-3.923,0.632c-1.207-0.978-0.796,1.245-1.567,1.207c-0.771-0.038-0.411-0.021-0.562-1.588
		c-0.15-1.568,0.165-0.727,0.666-0.518c0.229,0.095,0.591-0.509,0.823-1.112c-0.386,0.205-1.019,0.355-1.931,0.755
		c-2.236,0.983-4.166,3.315-3.163,3.56c1.001,0.245,1.197-0.557,2.017,0.96c0.489,0.907,1.073,1.193,1.52,1.254
		c0.221-0.067,0.473-0.146,0.758-0.227c0.343-0.625,1.158-2.73,2.887-0.122c0.416,0.627,0.621,0.979,0.72,1.164
		c-0.111-0.309-0.198-0.931,0.675-0.962c0.131-0.451,0.313-0.309,1.131-0.214c1.063,0.125,0.785-0.032,1.141-1.44
		C233.188,92.612,233.357,92.051,234.547,92.519z"/>
	<path id="XMLID_1758_" fill="none" d="M243.619,104.764c-0.455,0.548-0.73,0.354-1.68,0.79c-0.797,0.365-2.103-1.163-3.436-0.705
		c0.773,0.669-0.12,2.133-0.959,1.968c-0.847-0.168-1.538,0.833-2.103,0.734c-0.393-0.068-2.066,0.277-2.714,0.656
		c-0.479,0.906,2.15,1.208,1.077,1.608c-0.733,0.273-0.482,0.867-0.116,1.46c0.525-0.078,1.052-0.155,1.58-0.245
		c0.761-0.127,1.51-0.294,2.247-0.491c0.014-0.015,0.026-0.026,0.041-0.041c0.971-1.025,1.045-0.799,1.37-0.391
		c0.646-0.226,1.271-0.493,1.876-0.797c-0.059-0.164,0.079-0.397,1.057-0.714c0.146-0.047,0.261-0.089,0.388-0.132
		c0.876-0.591,1.691-1.282,2.404-2.126c0.489-0.557,0.969-1.123,1.454-1.685C244.063,104.385,244.007,104.296,243.619,104.764z"/>
	<path id="XMLID_1757_" fill="none" d="M248.305,90.894c0.602,0.136,1.19,0.275,1.752,0.414c-0.156-0.519-0.325-1.208-0.968-1.79
		C248.192,88.705,248.358,90.595,248.305,90.894z"/>
	<path id="XMLID_1756_" fill="none" d="M244.408,91.801c-0.417-0.145-0.429,0-0.389,0.259
		C244.149,91.972,244.278,91.885,244.408,91.801z"/>
	<path id="XMLID_1755_" fill="none" d="M187.329,164.613c-0.615-0.245-0.907-1.339-1.49-2.38c-0.761-1.355-1.378,0.103-3.791,0.726
		c-2.413,0.623-0.473,0.414-2.175,0.422c-1.701,0.009-0.567,0.413-2.429,0.553c-1.86,0.14-1.25-5.487-1.25-5.487
		s6.861-2.698,6.651-4.446c-0.208-1.748,2.799,1.063,3.64-1.873c0.368-1.278,1.102-1.42,1.566-1.343
		c-0.109-0.06-0.239-0.135-0.402-0.236c-0.242-0.078-0.509-0.093-0.746,0.199c-0.708,0.867,0.026,0.428-0.663-0.033
		c-0.557-0.373-0.161-1.306,0.014-1.656c-0.007-0.1,0.003-0.199,0.028-0.296c-0.352-1.002-1.201,0.42-1.201,0.42
		c-1.247,0.269-0.288,0.083,0.075-1.492c0.361-1.575-0.542-0.57-1.942-0.096c-0.07,0.024-0.115,0.037-0.175,0.057
		c-0.199,0.725,0.125,0.438-0.225,1.305c-0.381,0.947,0.47,0.942-0.605,0.998c-1.076,0.056-2.892,0.186-3.896,1.171
		c-1.006,0.986-0.996-0.427-2.082,0.62c-1.087,1.048-2.021,0.268-1.657,1.036c0.365,0.769,0.454,0.577-0.34,1.11
		c-0.792,0.532-1.148-0.695-2.995,0.454c-1.845,1.149-1.147,1.792-1.839,1.986c-0.692,0.193-0.592-0.173-1.285,0.292
		c-0.693,0.466-0.772,0.714-1.249,0.929c-0.458,0.208-0.425,0.285-1.149,0.038c-0.103,0.611-0.208,1.219-0.289,1.853l-0.396,1.72
		c0,0,5.981,5.022,9.119,9.305l0.068-2.957l3.601-0.366c0,0-2.009,6.974,1.813,7.816l0.403,0.031l0.596-0.805l4.428-6.836
		C185.801,166.321,186.569,165.416,187.329,164.613z"/>
	<path id="XMLID_1754_" fill="none" d="M176.769,191.65l0.052-0.688C176.342,191.365,176.428,191.52,176.769,191.65z"/>
	<path id="XMLID_1753_" fill="none" d="M176.024,184.527c-0.31-1.298-0.608-0.672-2.347-0.116c-1.738,0.556-0.375,1.104,0.767,1.803
		s0.24,0.547,0.803,2.125c0.523,1.465,0.185,1.273,1.635,1.057l0.068-2.428c-0.013-0.198-0.045-0.376-0.063-0.569
		C176.464,186.627,176.249,185.469,176.024,184.527z"/>
	<path id="XMLID_1752_" fill="none" d="M161.071,164.636c-0.013,0.094-0.026,0.194-0.038,0.322
		c-0.115,1.203,0.669,0.078-1.125,1.338c-1.794,1.261-0.469,2.094-2.35,2.145c-1.881,0.05-1.653-2.273-2.36-0.599
		c-0.706,1.675-2.71,1.186-0.444,1.994s1.143-0.38,2.703,1.182c1.56,1.562,1.114-0.159,2.544,0.273
		c0.721,0.218-0.1,0.86-0.747,1.535c0.464,0.141,0.058,1.583,1.037,1.247c1.36-0.468,0.389-1.371-0.349-3.76
		c-0.736-2.389,0.411-0.728,2.083-1.02c1.672-0.291-0.083,0.583,0.441,1.894c0.523,1.309,0.504-0.457,1.716,0.994
		c0.338,0.405,0.484,0.693,0.549,0.877c-0.002-0.202,0.044-0.536,0.261-1.051c0.727-1.728,1.325,0.227,1.766,1.05
		c0.44,0.824,2.048,0.743,0.975-1.326c-0.877-1.69,0.772-0.362,2.577,0.093C168.008,168.989,164.998,166.345,161.071,164.636z"/>
	<path id="XMLID_1751_" fill="none" d="M158.223,154.782c0.116,1.797,0.397,2.534,0.164,3.146c-0.233,0.613,1.341,1.34,1.341,1.34
		s0.171,0.309-0.266,0.872c0.181,0.076,0.355,0.151,0.518,0.225c0.171-2.987,0.074-7.987-1.84-12.103
		c-0.248-0.26-0.537-0.446-0.865-0.385c-1.158,0.216-1.998-2.229-2.606-1.162c-0.024,0.042-0.053,0.073-0.081,0.107
		c0.072,0.07,0.146,0.143,0.234,0.23c1.731,1.743,0.341,0.659,1.587,2.484c1.246,1.826-0.745-1.16-1.826,0.177
		c-0.303,0.374-0.581,0.532-0.821,0.611c-0.122,0.238-0.326,0.411-0.654,0.448c-0.05,0.005-0.107-0.001-0.162-0.004
		c-0.019,0.157-0.004,0.389,0.05,0.738c0.284,1.832-0.474-0.13-0.708,1.354c-0.235,1.486-1.2,1.545,0.217,2.096
		c0.241,0.093,0.417,0.149,0.544,0.188c0.4-0.307,0.833-0.989,2.132-1.71C157.869,151.94,158.107,152.986,158.223,154.782z"/>
	<path id="XMLID_1750_" fill="none" d="M146.736,129.071c0.296,0.097,0.71,0.246,1.21,0.435c-0.165-0.292-0.388-0.498,0.46-0.834
		c0.273-0.108,0.443-0.216,0.552-0.334c-0.124,0.064-0.261,0.13-0.431,0.202C146.77,129.281,147.739,127.999,146.736,129.071z"/>
	<path id="XMLID_1749_" fill="none" d="M152.667,123.141c0.784-0.542,1.799,0.901,0.725-0.388c-0.072-0.047-0.135-0.102-0.196-0.16
		c-0.829,0.233-0.807-0.196-0.711-1.007c-0.249-0.174-0.647-0.334-1.274-0.459c-1.814-0.361-2.646-0.456-2.88-0.171
		c0.082,0.245,0.035,0.298-0.06,0.301c0.016,0.156,0.07,0.344,0.178,0.589c0.204,0.464-0.132,0.732-0.599,0.829
		c-0.07,0.866-0.413,1.116,0.808,1.203c1.515,0.107,0.619-0.379,0.526,1.628c-0.022,0.51,0.052,0.901,0.143,1.216
		c0.41,0.132,1.256,1.451,0.518,0.043c-0.93-1.775,0.527-0.83,0.301-1.819c-0.226-0.99,1.021-1.084,1.021-1.084
		C152.804,122.163,151.85,123.705,152.667,123.141z"/>
	<path id="XMLID_1748_" fill="none" d="M173.992,177.596c-0.019-0.027-0.031-0.044-0.031-0.044l0.049-0.03
		c-0.416-0.805-0.883-1.637-1.405-2.476c-0.081,0.038-0.146,0.091-0.182,0.162c-0.296,0.573-0.178,0.365-1.012,2.08
		c-0.833,1.714-0.026,0.541,2.336,0.332C173.837,177.611,173.913,177.604,173.992,177.596z"/>
	<path id="XMLID_1747_" fill="none" d="M249.304,148.065c-0.39-0.148-0.549-0.063-0.573,0.167c0.155-0.047,0.319-0.096,0.5-0.146
		C249.258,148.078,249.277,148.073,249.304,148.065z"/>
	<path id="XMLID_1746_" fill="none" d="M240.385,148.568c-0.435-0.282-0.724-0.327-0.91-0.249c-0.291,0.122-0.6,0.101-0.882-0.028
		c-0.068,0.084-0.162,0.192-0.284,0.36c-0.147,0.203-0.185,0.388-0.121,0.569C238.94,148.965,239.679,148.749,240.385,148.568z"/>
	<path id="XMLID_1745_" fill="none" d="M250.793,149.538c0,0,0.003-0.004,0.004-0.006c0.458-0.744,0.161-0.738-0.694-1.105
		c-0.038,0.042-0.067,0.077-0.111,0.125C249.396,149.188,250.082,149.3,250.793,149.538z"/>
	<path id="XMLID_1744_" fill="none" d="M209.669,61.047c-1.016,1.021-2.088,1.996-3.202,2.934c-0.326,0.274-0.63,0.575-0.948,0.858
		c0.205,0.903,0.646,2.118,2.834-0.198c1.472-1.56,2.165-2.694,2.556-3.214c-0.084-0.008-0.139-0.013-0.139-0.013
		S209.972,61.822,209.669,61.047z"/>
	<path id="XMLID_1743_" fill="none" d="M200.002,166.717c-0.238-0.261-0.192-0.597,0.057-0.983
		c-0.977,0.521-1.976,0.915-2.816,0.788c-2.498-0.376-1.055,1.565-2.466,1.887c-1.411,0.322-0.755,0.172-1.519-1.262
		c-0.765-1.435,0.071-0.773,1.047-0.806c0.976-0.033,2.078-3.596,0.521-2.295c-0.813,0.679-1.557,0.874-2.145,0.829
		c-1.447,1.465-2.167,2.438-2.167,2.438c-2.849,3.023-5.171,6.785-6.584,9.331l0.484,0.488l-1.519,2.34l0.995,6.774
		c1.557-0.991,3.469-1.585,5.487-1.887c0.185-0.026,0.362-0.076,0.536-0.133c0.057-0.044,0.093-0.095,0.163-0.136
		c1.268-0.739,1.432-0.783-0.092-1.341c-1.523-0.557-2.518,0.089-1.187-0.86c1.33-0.95-1.078-0.161-0.534-1.256
		c0.543-1.096,0.484-2.062,1.589-1.687c1.104,0.377,1.007,0.158,1.421-0.624c0.413-0.781,0.06-1.227,1.223-0.955
		s1.307-1.54,1.894-0.44c0.036,0.067,0.065,0.124,0.09,0.173c0.066-0.977-1.326-1.839-1.326-1.839
		c-0.075-1.261-1.33,0.303-1.33,0.303c-0.18-0.881,2.495-1.988,2.495-1.988c-0.694-1.758,0.694-1.365,0.694-1.365
		c-0.316,1.087,0.704,0.582,1.138,0.327c0.024-0.059,0.037-0.104,0.068-0.171c0.597-1.254,0.621-1.733,1.088-1.443
		c0.424,0.263-0.187,0.221-0.024,1.066c0.435-0.27,0.603-0.531,0.639-0.742c-0.031-0.037-0.069-0.061-0.097-0.103
		c-0.389-0.587,0.179-0.375,0.097,0.103c0.7,0.821,2.192,0.298,2.192,0.298c2.662-0.464,0.771-3.156,0.771-3.156
		C203.676,166.619,200.002,166.717,200.002,166.717z"/>
	<path id="XMLID_1742_" fill="none" d="M252.354,150.124c0.185-0.05,0.354-0.171,0.497-0.351
		C252.723,149.863,252.551,149.987,252.354,150.124z"/>
	<g id="XMLID_67_" opacity="0.48">
		<linearGradient id="XMLID_6_" gradientUnits="userSpaceOnUse" x1="252.9453" y1="351.0889" x2="242.8474" y2="152.0136">
			<stop  offset="0" style="stop-color:#FFFFFF"/>
			<stop  offset="1" style="stop-color:#000000"/>
		</linearGradient>
		<path id="XMLID_857_" fill="url(#XMLID_6_)" d="M248.387,260.965c-0.012,0.012-0.033,0.021-0.049,0.032
			C248.212,260.877,248.555,260.789,248.387,260.965z"/>
		<linearGradient id="XMLID_7_" gradientUnits="userSpaceOnUse" x1="178.3506" y1="355.3516" x2="168.3773" y2="158.7339">
			<stop  offset="0" style="stop-color:#FFFFFF"/>
			<stop  offset="1" style="stop-color:#000000"/>
		</linearGradient>
		<path id="XMLID_157_" fill="url(#XMLID_7_)" d="M261.401,285.752c-1.737,0.289-0.549,0.866-2.468,0.361
			c-1.92-0.504-3.383-0.686-3.565-0.361c-0.184,0.326-1.098,0.886,0.091,0.948s-1.645,0.442-0.548,0.758
			c1.097,0.314-1.736,0.622-2.834,0c-1.097-0.623-1.371,0.459-1.188-1.38c0,0-2.926-1.047-2.561-0.289c0,0,1.372,0.252,0.914,0.686
			c-0.456,0.433-1.279-0.794-1.919-0.289s0.274,0.938,0.731,1.011c0.456,0.071,1.827,0.414,0.273,0.622
			c-1.554,0.207-1.736-0.082-2.103-0.804c-0.364-0.721,0-0.793-1.371-0.757c-1.37,0.036-1.37,0.144-1.554-0.433
			c-0.183-0.577-1.097-0.902-2.103-0.613c-1.005,0.288-3.107,0.18-2.102,0.649c1.006,0.469,0.64,0.433-1.006,0.217
			c-1.646-0.217-2.376-0.397-3.107-0.217c-0.731,0.18-1.17,0.089-1.636,0.261c-0.036,0.014-0.203,0.017-0.46,0.011
			c-0.394,0.849,1.609-0.145,2.826,0.567c1.371,0.803,0.183,1.497,0.183,1.497s-0.092-0.533-0.092,0.297s2.377,0.072,2.651,0.396
			c0.273,0.324,2.376-0.075,2.376-0.075s-0.342-0.078-0.548-0.125c0.549,0.124,3.107-0.232,3.107-0.232
			c0.731,0.18-0.274,0.974-0.274,0.974c-0.456,0.722,2.012,0.758,3.291,1.153c1.279,0.397,0.914-0.469,1.646-0.891
			c0.731-0.424,1.646,0.495,1.371,1.328s2.011,0.249,3.839,0.646s-2.468,0.433-4.57,0.685c-1.068,0.129-1.122-0.152-1.079-0.289
			c-0.054,0.078-0.175,0.23-0.439,0.506c-1.243,1.299-2.687,0.181-2.96,0.154c-0.274-0.027-1.371-0.01-1.829,0.64
			c-0.456,0.649-0.822,0.36-1.736,0.541c-0.914,0.18,1.463,0.901,3.839,1.082c2.377,0.18,2.834-0.072,2.651,0.938
			c-0.165,0.906-0.992,0.736-2.218,0.081c-0.114,0.214-1.042,0.688-0.354,0.856c1.137,0.278,1.643,0.882,2.274,0.139
			c0.632-0.742-0.442,1.068,1.138,0.558c1.578-0.511,1.136-1.254,2.21-1.254s0.379-0.65,1.453-0.65c1.073,0,1.137-0.185,2.084,0.326
			c0.947,0.51,2.273,0.789,1.39,1.067c-0.884,0.279-1.769-0.325-1.643,0.511c0.127,0.835,0.38,0.465-1.073,1.254
			s-2.084,1.161-1.58,1.485c0.506,0.325,0.506,0.139-0.315,0.558c-0.82,0.418-0.758,0.649-0.505,0.789
			c0.252,0.14-0.315,0.743,0.252,0.79c0.568,0.046,0.316,0.649,1.265,0.231c0.947-0.418,1.579,0.062,1.579,0.146
			c0,0.086,0.252,1.062,0.82,0.829c0.569-0.232,0.063,0.093,0.758-0.65s0.38-0.232,1.326-0.047c0.947,0.187,0.675,0.232,1.317,0.047
			c0.642-0.186,1.146,0.582,0.642,0.686c-0.506,0.104-1.327-0.085-1.327,0.195c0,0.279-0.82,0.127-0.947,1.017
			c-0.126,0.889,0.568,0.935-0.695,0.609c-1.263-0.324-1.831-1.021-2.399-0.231s-1.643,0.768-1.2,1.266
			c0.441,0.499,0.758,0.659-0.253,0.974s-1.896,0.386-1.326,0.722c0.568,0.336,0.694,0.492-0.442,0.53
			c-1.137,0.037-1.604,0.129-1.718,0.408c-0.114,0.28-0.24,0.583-0.683,0.756s-4.548,0.244-5.18,0.231
			c-0.632-0.011-5.558-0.601-5.558-0.601s-7.283-1.234-9.166-2.046c-0.578,0.18-1.242,0.383-1.863,0.608
			c-2.285,0.829,0.822,0.685,1.736,0.649c0.914-0.036,2.468-0.073,1.554,0.901c-0.914,0.974-1.463,0.396,0.183,1.335
			c1.646,0.937-1.37,0.36-1.462,0.974c-0.037,0.251,0.261,0.386,0.42,0.437c-0.177-0.038-0.632-0.115-1.608-0.221
			c-3.017-0.324-0.183,0.145-0.457,1.047c-0.274,0.9-1.005,0.071-3.199-0.397c-2.193-0.469-0.273,0.901-2.468-0.145
			c-2.193-1.046-1.279,1.227-1.828-0.072c-0.549-1.298,0,0-2.194-0.433c-2.193-0.433,0.549,0.324-1.554,0.794
			c-2.103,0.469,0.549,0.577-1.097,0.757c-1.646,0.181,1.462-1.19-0.457-1.046c-1.92,0.145-1.462-0.505-1.718-1.37
			c-0.255-0.866-0.476-0.649-2.642-0.649c-2.164,0,0.246-0.36-0.302-1.263c-0.549-0.901,1.37-0.469-0.637-0.722
			c-2.008-0.252-2.197,1.011-4.574,1.696c-2.377,0.685,0.548-1.19-2.879-1.227c-3.428-0.036,2.239-0.541-1.105-0.866
			c-3.344-0.324-1.226-0.829-2.78-0.505c-1.554,0.325,0,0-1.188-0.748c-1.188-0.749-1.828-0.147-1.828-0.147
			c-1.696,0.249-3.105,0.142-4.107-0.033c-0.106,0.071-0.189,0.157-0.212,0.271c-0.137,0.675,1.303,0.08,2.263,0.135
			c0.96,0.054,0.96,0.297,1.233,1.353c0.274,1.055,1.303,0.136,3.085,0.406c1.783,0.27,0.618,0.27,0.138,1.217
			c-0.479,0.946,0,0,1.165,0.324s1.029,0.298-1.371,0.649c-2.399,0.352-0.754,0.216,1.509,1.135
			c2.262,0.919-0.069,0.434-1.852,0.434s-0.686,0.108,0.069,0.677c0.754,0.568-0.343,0.379-2.263,0.081s-0.96,0.108-1.646,0.758
			c-0.686,0.648-0.892-0.081-1.92-0.487s-1.028,0.324,0.069,0.649c1.096,0.324-0.754,0.162-2.325,0.081s-0.349,0.189-0.075,0.758
			c0.274,0.567-0.205,0.297-1.576,0.216s-0.96-0.054-0.617,0.541c0.343,0.596-0.274,0.515-2.057,0.081
			c-1.782-0.433-0.479,0.136-1.415,0.677c-0.934,0.54-0.367,0.054-2.995-0.298c-2.628-0.352-0.114-0.189-1.417,0.812
			c-1.302,1-0.616-0.514-1.988-0.325c-1.371,0.19-0.206-0.297-0.068-0.865c0.138-0.567,1.166-0.433-1.007-0.271
			s0.939-0.567-1.004-1.082c-1.942-0.514,1.6-0.298,1.874-0.784c0.275-0.487,0.48,0.054,1.919-0.622
			c1.44-0.677,0.892-0.081-1.051-0.568c-1.942-0.486-0.869,0.136-1.738,0.622c-0.87,0.487-1.461,0.406-1.873-0.135
			c-0.411-0.542-1.508,0.189-2.605,0.865c-1.096,0.677-0.548-0.514-1.714-0.135c-1.165,0.378-2.261,0.352-1.577,0.189
			c0.686-0.163,0.275-0.758-0.995-0.813c-1.27-0.054-0.308-0.486,0-0.729c0.307-0.244,0.446-0.433,0.104-0.596
			c-0.343-0.162,0.137-0.243,1.805-0.702c1.668-0.461,0.594-0.298,1.143-0.813c0.548-0.514,1.439-0.243-0.617-0.703
			c-0.867-0.194-1.094-0.373-1.069-0.516c-0.283-0.003-0.585,0.004-0.928,0.036c-1.769,0.167-1.556-0.084-2.971-0.167
			c-1.415-0.084-0.566,0.111-1.203,0.557c-0.636,0.446,0.708,0.112,1.274,0.643c0.565,0.53-0.566,0.195-0.566,0.502
			c0,0.308-0.566,0.056-0.99,0.446s-1.345-0.558-1.769,0.056c-0.425,0.614-1.769,0.14-1.769,0.698c0,0.557-0.424-0.084-1.98,0.083
			c-1.557,0.168-0.637-0.446-1.203-0.726c-0.566-0.278,2.052-0.78-0.354-0.726c-2.406,0.057,0,0-0.142-0.824
			c-0.141-0.825-1.203,0.657-1.626,0c-0.425-0.657-0.566-0.402-1.203-0.124c-0.637,0.279-1.345,0-1.345,0
			c0.99-0.585-1.839,0.084-2.334-0.585c-0.496-0.671-2.193,0.027-1.062-0.363c1.132-0.391,2.688,0.167,3.042,0
			s0.424-0.084,1.203-0.308c0.778-0.223-0.212-0.277-0.284-0.718c-0.071-0.439-0.282-0.063-1.344-0.007
			c-1.061,0.056-0.708-0.224-0.708-0.53s-0.495-0.251-1.769-0.224c-1.273,0.028-0.071-0.362-0.849-0.976
			c-0.778-0.613,0.424,0,2.122,0.111s3.325-0.279,3.325-0.279c3.396-0.893,0.565-0.307,0-0.893
			c-0.566-0.586-2.264,0.056-1.061-0.697c1.203-0.754,2.618-0.057,3.75-0.307c1.131-0.252,0.707-0.447,1.769-0.335
			c1.061,0.111,2.405-0.363,1.203-0.865c-1.203-0.502,0.92-0.334,0.92-0.334c0.282-0.251,2.192-0.475,2.829-0.894
			c0.637-0.418,2.193-0.083,3.679,0.293c1.485,0.377,2.334,0.126,2.9-0.376c0.509-0.451,0.914-0.205,2.429,0.012
			c0.344-1.076,1.685-1.916,3.97-2.553c1.378-0.391,2.586-0.878,3.071-1.543c0.03-0.04,0.048-0.079,0.075-0.117
			c-0.412-0.051-0.844-0.147-1.24-0.334c-1.295-0.615,0.075-0.183-1.479,0.033c-0.254,0.035-0.48,0.06-0.694,0.077
			c-1.418,0.769,0.214,0.323-2.034,1.132c-2.331,0.838-0.347-0.1-2.536,0.081c-2.188,0.181-0.206,0.486-3.154,0.298
			c-2.947-0.19-1.165-0.163-2.354,1.081c-1.188,1.245-0.251,0.974-2.479-0.054c-2.227-1.027-1.474,0.649-2.16-0.136
			c-0.632-0.723-1.851-0.064-4.028,0.827c-0.021,0.021-0.036,0.039-0.059,0.059c-0.002-0.011-0.002-0.021-0.003-0.032
			c-0.163,0.066-0.33,0.134-0.502,0.202c-2.537,1.001-1.029-0.542-2.743-0.271c-1.714,0.271-0.411,0.702,0.686,1.894
			c1.097,1.189-0.48,0.379-2.605,0.567c-2.125,0.189,0.068-0.297-0.686-0.946c-0.754-0.649-0.617,0.243-2.262-0.46
			c-0.437-0.187-0.653-0.327-0.755-0.42c0.008,0.104-0.042,0.276-0.274,0.528c-0.823,0.893-1.714-0.082-2.331-0.487
			c-0.617-0.405-2.673-0.324-1.165,0.695s-2.125-0.154-4.867-0.019c-2.742,0.135-0.137-0.487-2.236-1.055
			c-2.099-0.569,0.522-0.271,0.864-0.569c0.343-0.296,0.206-0.188,1.167-1.076c0.959-0.89,0-0.275-3.017-0.11
			s-1.234,0.213-2.605-0.363c-1.372-0.577-1.166,0.198-1.508,0.198c-0.206,0,0.068-1.001-2.673-1.218c-2.743-0.216,0,0-2.125-0.757
			c-2.125-0.758-0.96-1.516,0.342-0.929c1.303,0.586,1.028-0.262,1.989,0.469c0.959,0.73,0.342-0.189,1.302-1.271
			c0.96-1.082,1.44-0.217,1.919,0.434c0.385,0.52,0.683,0.414,1.915,0.186c0.542-0.262,1.136-0.49,1.782-0.688
			c-0.409-0.124-1.119-0.25-1.778-0.391c-1.508-0.325-0.342-0.271-1.165-1.056c-0.257-0.245-0.374-0.396-0.484-0.486
			c-1.229,0.123-2.495,0.191-3.828,0.156c0.471-0.037,0.949-0.074,1.43-0.113c-1.871,0.11-1.518-0.104-0.062-0.591
			c-0.427-0.077-0.928-0.176-1.408-0.263c-1.44-0.261-0.475,0.141-0.639,0.715s-0.419,0.261-1.668,0.023
			c-1.249-0.238-0.876-0.164-0.995,0.444c-0.118,0.608-0.647,0.459-2.025-0.163c-1.378-0.621-0.56,0.074-1.858,0.481
			c-1.298,0.408-0.392,0.009-2.639-0.634c-2.247-0.643,0.032-0.193-1.961,0.61c-1.995,0.804-0.204-0.563-1.656-0.543
			c-1.452,0.021,0.027-0.308,0.583-0.834c0.556-0.527,1.438-0.277-0.759-0.376c-2.197-0.099,1.322-0.434-0.148-1.151
			c-1.471-0.717,1.75-0.098,2.378-0.53c0.626-0.434,0.417,0.108,2.299-0.37c1.883-0.479,0.913,0.025-0.579-0.665
			c-1.49-0.692-0.93,0.026-2.126,0.391c-1.196,0.364-1.7,0.217-1.688-0.348s-1.583,0.005-3.138,0.523s-0.138-0.556-1.535-0.33
			c-1.397,0.227-2.425,0.072-1.648-0.002c0.776-0.075,0.83-0.692-0.342-0.892c-1.172-0.2,0.071-0.501,0.547-0.698
			c0.476-0.197,0.751-0.36,0.545-0.557c-0.206-0.194,0.314-0.216,2.252-0.461c1.938-0.244,0.791-0.214,1.7-0.642
			c0.909-0.427,1.558-0.064-0.063-0.743c-0.682-0.287-0.765-0.484-0.633-0.618c-0.269-0.035-0.562-0.064-0.915-0.073
			c-1.815-0.047-1.424-0.263-2.713-0.508c-1.289-0.244-0.624,0.042-1.567,0.394c-0.943,0.353,0.592,0.188,0.736,0.762
			c0.144,0.572-0.687,0.121-0.917,0.413c-0.23,0.294-0.583-0.013-1.281,0.312c-0.699,0.322-0.866-0.69-1.731-0.153
			c-0.866,0.536-1.794-0.073-2.212,0.46c-0.419,0.533-0.344-0.13-1.955-0.151c-1.613-0.021-0.274-0.5-0.605-0.834
			c-0.332-0.332,2.545-0.506,0.206-0.733c-2.34-0.228,0,0,0.483-0.804c0.483-0.805-1.642,0.487-1.554-0.19
			c0.086-0.677-0.24-0.451-1.056-0.259c-0.818,0.192-1.285-0.156-1.285-0.156c1.385-0.445-1.82-0.135-1.791-0.832
			c0.029-0.697-2.117-0.229-0.742-0.471c1.374-0.241,2.442,0.473,2.906,0.354c0.463-0.118,0.468-0.03,1.379-0.152
			c0.911-0.122,0.006-0.292,0.268-0.72c0.262-0.427-0.222-0.093-1.278-0.163c-0.666-0.044-0.693-0.151-0.565-0.297
			c-0.381-0.122,0.057-0.286,0.171-0.539c-0.229-0.07-0.694-0.103-1.407-0.173c-1.237-0.122,0.204-0.354-0.079-1.032
			c-0.249-0.591,0.246-0.111,1.4,0.223c0.346,0.02,0.695,0.027,0.87-0.051c0.551-0.245,0.339-0.157,1.921-0.894
			s0.207-0.264-2.799-0.457c-3.005-0.194-1.338,0.06-2.217-0.651c-0.877-0.711-1.262,0.054-1.589,0.014
			c-0.197-0.024,0.815-0.948-1.642-1.475c-2.458-0.526,0,0-1.463-0.972c-1.462-0.972,0.219-1.56,1.024-0.848
			c0.805,0.713,1.178-0.129,1.547,0.68c0.37,0.811,0.469-0.141,2.197-1.062c1.728-0.923,1.537-0.039,1.509,0.637
			c-0.028,0.677,0.542,0.406,2.882,0.353c2.338-0.054,0.818-0.495-0.379-0.98c-1.198-0.486-0.125-0.299-0.323-1.145
			s0.27-0.618-2.144-0.743c-2.414-0.125-1.622-0.312,0.678-0.682c2.3-0.37-0.346-0.382-1.467-1.057
			c-1.122-0.675,0.882-0.119,1.386-1.036c0.504-0.916,1.437,1.098,2.708,1.763c1.272,0.665,0.641-0.177,1.521-1.116
			c0.882-0.941,1.608,0.055,0.894,0.781c-0.715,0.729,1.746,0.701,2.328,1.424c0.582,0.723,1.196,1.248,2.095,0.256
			c0.532-0.586-0.573-0.184-1.038-1.146c-0.465-0.963,0.006-0.282,0.019-0.848c0.012-0.566,3.79-0.075,2.624,0.405
			c-1.167,0.48-0.683,0.597,3.015,0.821c1.418,0.087,2.062,0.003,2.316-0.132c0.339-0.18,0.848-0.276,1.415-0.285
			c0.561-0.008,0.458-0.27,0.458-0.27c0.854-1.01,9.577,0.244,9.889,0.254c3.709,0.117,1.188,0.428,2.936,1.066
			c1.747,0.639,0.905,0.31,0.854,1.152c-0.009,0.145-0.08,0.227-0.175,0.274c0.188,0.044,0.416,0.103,0.708,0.187
			c0.324,0.095,0.558,0.166,0.729,0.22c-0.025-0.041-0.049-0.08-0.08-0.127c-0.73-1.125-1.279-0.908,1.006-0.836
			c2.286,0.071,1.462,0.541,4.022,0.107c0.433-0.072,0.714-0.115,0.909-0.138c-0.688-0.184-1.549-0.438-1.549-0.438
			s0.548-0.434,1.28-0.686c0.731-0.253-0.183-0.648-0.914-0.901c-0.731-0.252-3.564,0.072-4.937-0.289
			c-1.37-0.36-1.096-0.721-3.016-0.721s-1.829-0.217-2.743-0.902c-0.914-0.685,2.56-0.36,3.017,0.072s3.473-0.18,3.931-0.361
			c0.457-0.18,1.645-1.009,3.564-0.151c1.919,0.856,4.205-0.244,5.394,0c1.188,0.243,1.553,0.151,2.102,0.44
			c0.548,0.289,0.548,0.181,4.753,0.072c4.205-0.108-0.549-1.01-2.011-0.829c-1.463,0.181-1.189-0.253-1.646-0.469
			c-0.457-0.217-0.457-0.361-3.108-0.758s-0.366-0.505-1.28-0.541c-0.914-0.036-0.366-0.469,1.28-0.829
			c1.645-0.361,1.462,0.612,2.193,0.072c0.672-0.497-0.11-0.302-0.031-0.629c-0.024-0.005-0.042-0.01-0.066-0.016
			c-2.925-0.721-3.656-1.91-4.388-1.298c-0.731,0.613-1.462,0.984-2.925,0.276c-1.463-0.709-1.92-0.111-2.103-0.698
			c-0.183-0.588,0-0.841,1.097-0.624c1.096,0.216,0.822-0.021,0.547-0.625c-0.273-0.602-0.537-0.659,0.92,0
			c1.457,0.661,3.102,1.382,2.371,0.625c-0.73-0.758,2.606,0.294,2.194-0.253c-1.005-1.334-1.005-1.145-2.376-1.636
			c-1.372-0.492-4.469,0.241-2.189-0.521c2.28-0.764,0.817-0.733,2.829-0.226c0.73,0.185,1.047,0.329,1.15,0.386
			c-0.098-0.074-0.341-0.307-0.419-0.782c-0.183-1.115-0.451-0.636,1.374-0.263c1.826,0.374-1.648,0.77,1.826,0.374
			c3.473-0.397,2.011-0.639,3.199,0.095c1.188,0.734,3.656,2.295,2.742,0.938c-0.914-1.357-1.543-2.084,1.422-1.144
			c2.965,0.94,0.914,0.075,1.3-0.467c0.386-0.54,0.66-1.409,1.665,0.035c1.005,1.443,2.012,2.386,3.017,1.32
			c1.005-1.066-0.183-0.552,1.554-0.323c1.737,0.23,0.895-0.353,1.91-0.603c1.016-0.249,0.466-0.14,1.29,0.689
			c0.823,0.829,1.097,1.02,2.286,0.491c1.188-0.527,0.66-1.62,1.427-1.074c0.767,0.547,0.967,0.447,1.369,1.074
			c0.402,0.626,4.517,0.662,2.596,0.951c-1.919,0.288-3.691,0.144-2.596,0.433c0.343,0.09,0.59,0.161,0.801,0.222
			c1.867-0.166,3.624-0.469,5.262-0.938c0.703-0.202,1.423-0.4,2.152-0.596c2.797-0.747,4.559-1.946,5.044-3.26
			c0.121-1.397,0.742-11.759-6.369-20.685h17.624c-3.23,3.885-4.519,11.035-5.007,17.076c0.026,1.271-0.016,3.173-0.08,5.058
			c1.241,0.354,2.512,0.639,3.805,0.822c2.345,0.278,4.78,0.592,7.152,0.901c2.575,0.354,5.163,0.9,7.514,1.476
			c2.57,0.567,6.873,0.394,9.591-0.482c1.687-0.53,2.553-1.289,3.688-1.976c-0.538-0.867,0.557-0.871-2.054-0.703
			c-2.947,0.189-0.965-0.117-3.153-0.297c-2.188-0.182-0.206,0.756-2.536-0.082c-2.332-0.839-0.48-0.324-2.194-1.217
			c-1.714-0.894,1.028,0.567,2.331-0.136s2.399-0.027,1.919-0.946c-0.48-0.92,0.617,0.054,0.822-0.704
			c0.206-0.756,1.44-0.811-0.411-1.055c-1.851-0.243-0.892,0.108-0.137-0.865c0.754-0.974-0.959-1.244,1.782-1.407
			c2.742-0.161,0.305,0.512,3.204-0.243c2.9-0.755-0.805-0.379,2.35-0.812c0.344-0.047,0.604-0.076,0.817-0.097
			c-0.056-0.056-0.062-0.143,0.038-0.281c0.584-0.813-0.467-0.595,1.681-1.001c2.148-0.406-0.027-0.998,3.603-0.677
			c0.261,0.023,7.071-0.103,9.075,0.526c1.224-0.559,2.8-0.947,4.723-1.178c0.087-0.002,0.161,0.02,0.161,0.02
			c-1.031,0.236-2.105,0.48-3.086,0.758c-1.182,0.369-1.114,0.495,0.251,0.738c0.821,0.155,1.559,0.499,2.435,0.103
			c-0.018,0.197-0.003,0.385-0.002,0.631c-0.948-0.184-1.902-0.418-2.911-0.587c-0.355-0.079-0.698-0.113-1.009-0.103l0.002,0.003
			c0,0-0.294,0.237,0.234,0.311c0.535,0.075,0.949,0.227,1.138,0.438c0.142,0.159,0.695,0.314,2.114,0.396
			c3.702,0.217,4.251,0.163,3.496-0.433c-0.754-0.595,3.222-0.623,2.811-0.081c-0.411,0.541,0.549-0.055-0.616,0.812
			c-1.166,0.865-1.92,0.353-1.852,0.975c0.116,1.051,1.097,0.622,2.194,0c1.096-0.622,3.428-0.31,3.29-1.088
			c-0.137-0.779,1.302-1.645,1.44-0.644c0.137,1-1.097,1.731,0.617,1.244c1.713-0.487,4.112-2.303,3.907-1.368
			c-0.206,0.935,2.125,0.637,0.548,1.151c-1.576,0.514-4.113,0.217-2.193,0.838c1.92,0.623,2.537,0.893,0.137,0.731
			c-2.398-0.163-1.782-0.325-2.604,0.459c-0.823,0.785,0.342,0.73-1.166,1.055c-1.508,0.325-3.291,0.569-1.097,0.894
			c2.193,0.324,2.537,0.649,3.016,0c0.48-0.649,0.96-1.516,1.921-0.433c0.96,1.082,0.342,2.001,1.302,1.271s0.686,0.117,1.988-0.469
			s2.469,0.172,0.343,0.93c-2.125,0.758,0.617,0.54-2.125,0.758c-2.742,0.216-2.469,1.217-2.674,1.217
			c-0.343,0-0.137-0.776-1.508-0.199c-1.292,0.544,0.211,0.532-2.13,0.392c1.3,0.201,2.059,0.406,1.782,0.599
			c0,0-2.438,0.191-0.331,0.487c0,0-0.843,0.813,0.983,0.775c0,0,1.063,0.049,1.401-0.207c0.086,0.08,0.387,0.176,1.222,0.212
			c0,0,1.312,0.199,0.843-0.133c0,0,0.857-0.186,0.663,0.313c0,0,1.933,0.13,1.945,0.369c0,0-1.063-0.332-0.923,0
			c0,0-1.357,0.527-0.094,0.763c0,0-2.627,0.513-2.695,0.144c-0.067-0.37-0.914-0.389-0.912,0.018
			c0.001,0.407-0.326-0.277-1.31,0.019s-1.312,0.093-1.312,0.573s0.937,0.822-0.233,0.78c-1.172-0.041-0.702-0.448-1.172-0.041
			c-0.468,0.406-0.094,0.037-1.779,0.111c-1.686,0.073-1.545,0.194-2.856-0.07c-1.311-0.264-0.655,0.051-1.124,0.624
			s-1.593,0.503-1.826,0.445c-0.234-0.058,0.749-0.261,0.374-0.687c-0.374-0.424-0.562-0.738-1.592-0.683
			c-1.03,0.055-0.327-0.111-1.873,0.019c-1.545,0.129-1.827-0.277-2.248-0.333c-0.325-0.043-1.428-0.291-2.045-0.199
			c-0.022,0.015-0.061,0.025-0.127,0.029c-0.117,0.033-0.216,0.077-0.264,0.151c-0.281,0.444-1.171,0.924-1.779,0.555
			c-0.609-0.37,0-0.064-1.217,0.078c-1.219,0.144-2.062,0.144-1.359-0.245c0.703-0.388,2.343-0.019,0.609-0.517
			c-1.732-0.499-2.344-0.619-1.242-0.771s-0.303-0.041,1.616-0.098c0.18-0.004,0.33-0.009,0.482-0.014
			c0.408-0.397,0.811-0.699,1.049-0.933c-1.078,0.162-1.993,0.236-1.765,0.042c0.262-0.225,1.211-0.464,0.093-0.347
			c-0.122,0.185-0.312,0.308-1.025,0.1c-0.362,0.016-0.465-0.024-0.363-0.12c-0.095-0.034-0.187-0.066-0.296-0.109
			c-0.693-0.273-1.296-0.533-1.825-0.753c-1.688,0.09-3.365,0.181-5.046,0.282c-0.711,0.034-2.309,0.746-2.148,1.013
			c-0.002,0.107,0.454,0.263,0.745,0.277c1.273,0.067,2.61,0.069,3.995,0.147c-1.305,0.132-2.6,0.366-3.846,0.328
			c-1.67-0.022-2.956,0.228-4.312,0.559c-1.48,0.378-3.242,0.631-4.99,0.902c-0.696,0.118-1.065,0.207-0.681,0.479
			c1.826,1.361,3.623,2.69,5.501,3.983c1.095,0.805,1.976,0.98,4.209,0.74c2.226-0.275,4.382-0.641,6.463-1.031
			c0.461-0.089,0.793-0.433,0.778-0.691c0.111-0.405-0.078-0.841-0.141-1.248c0.09,0.001,0.206-0.008,0.315-0.029
			c0.158,0.199,0.33,0.409,0.386,0.592c0.099,0.224,0.154,0.441,0.205,0.658c0.206,0.311,0.613,0.354,1.327,0.286
			c1.852-0.116,3.721-0.183,5.601-0.269c2.317-0.1,3.59-0.68,4.345-1.493c0.145,0.044,0.246,0.06,0.354,0.074
			c-0.65,0.475-1.292,0.985-1.992,1.559c4.496,0.018,8.988,0.243,13.231-0.757c-1.338,0.629-3.263,0.761-5.399,1.068
			c1.554,0.467,2.83,0.813,4.144,1.189c-0.68-0.08-1.459-0.172-2.115-0.306c-0.813-0.157-1.446-0.453-2.228-0.549
			c-1.064-0.14-2.198-0.234-3.32-0.21c-2.866-0.02-5.777-0.084-8.55,0.072c-1.961,0.102-3.839,0.517-5.744,0.802
			c-0.102,0.02-0.107,0.371-0.038,0.391c0.708,0.109,1.468,0.187,2.13,0.18c1.443-0.016,2.828-0.077,4.247-0.002
			c-1.782,0.101-3.59,0.208-5.385,0.26c-0.395,0.041-0.873-0.024-1.215-0.115c-1.113-0.324-2.091-0.256-3.284-0.006
			c-0.371,0.077-0.758,0.144-1.141,0.213c0.218-0.012,0.44-0.037,0.694-0.082c1.097-0.191,4.021,0.672,2.651,0.89
			c-1.371,0.219,2.741,0.687,3.473,0.65s1.554,0.488,2.651,0.425c1.097-0.064,2.164,0.716,1.082,1.029s1.021,0.711,1.752,0.566
			s3.93-0.018,2.925,0.226c-1.006,0.243-1.92,0.026-1.371,0.748c0.237,0.312,0.41,0.546,0.596,0.727
			c0.011,0.001,0.021,0.002,0.032,0.003c3.543,0.324,6.825,0.002,9.838-0.741c1.878-0.487,3.943-0.816,6.413-0.932
			c-2.35,0.421-4.387,0.816-6.521,1.199c0.031,0.105,0.029,0.103,0.059,0.208c0.98,0.073,1.954,0.133,2.94,0.205
			c0.924,0.1,1.807,0.175,2.712,0.26c-0.064,0.05-0.089,0.104-0.107,0.161c-1.133-0.13-2.271-0.256-3.461-0.322
			c-1.862-0.11-3.628,0.003-5.429,0.231c-1.556,0.163-3.198,0.242-4.89,0.33c1.197,0.304,3.181,0.957,1.748,1.196
			c-1.736,0.287-0.549,0.865-2.467,0.36c-1.92-0.506-3.383-0.687-3.565-0.36c-0.183,0.323-1.098,0.883,0.091,0.946
			c0.652,0.034,0.093,0.164-0.363,0.327c0,0,0.002,0,0.003,0c1.554,0,3.291,0.211,3.839,0.574c0.549,0.362,0.366,0.547,1.646,0.383
			s3.656-0.674,5.484-0.383s2.377,0.421,3.474,0.229c1.097-0.19,4.021,0.672,2.65,0.89s2.743,0.688,3.474,0.65
			c0.731-0.036,1.555,0.488,2.651,0.425s2.164,0.716,1.082,1.029s1.02,0.71,1.751,0.566c0.731-0.145,3.931-0.018,2.925,0.226
			c-1.005,0.243-1.919,0.026-1.37,0.748c0.548,0.722,0.753,1.045,1.564,1.189S263.138,285.465,261.401,285.752z M225.655,276.94
			c0,0-2.925-1.046-2.56-0.288c0,0,1.271,0.238,0.938,0.646c0.5-0.068,1.071-0.151,1.605-0.18
			C225.645,277.061,225.649,277.006,225.655,276.94z M222.644,277.271c0.03,0.152,0.374,0.15,0.863,0.095
			c-0.438-0.183-0.971-0.669-1.416-0.317c-0.043,0.033-0.063,0.065-0.092,0.099C222.369,277.086,222.608,277.083,222.644,277.271z
			 M232.149,296.222c-3.017,0.189-1.097-0.154-1.736-1.056s-1.737-0.144-3.016-0.288c-1.28-0.145-2.834-0.578-3.292-0.517
			c-0.456,0.062-0.914,0.372-0.914,0.372s0.183,0.902-0.822,0.974c-1.005,0.072,0,0-0.458-1.129
			c-0.152-0.378-0.119-0.568-0.062-0.656c-0.099,0.027-0.271,0.054-0.578,0.054c-1.37,0,0.64-0.541-0.822-1.149
			c-1.463-0.609-0.822-0.51-2.483-0.474c-1.661,0.037-1.813-0.576-1.173-1.33s-0.183-0.906-1.279-0.767
			c-1.097,0.139-4.479-0.463-3.564-1.565c0.913-1.102-0.549-1.026-0.458-1.232c0.092-0.207-1.005-0.227-2.376-0.479
			c-1.371-0.253-0.621,0.899-1.618,0.252c-0.995-0.646-0.211,0.217-3.638,0.227c-3.428,0.009,1.417-0.154-2.423-0.407
			c-0.675-0.044-1.09-0.093-1.343-0.141c1.505,0.695,3.201,1.333,4.877,1.966c1.85,0.747,3.606,1.541,4.331,2.566
			c0.671,0.82,1.72,1.521,2.9,2.261c1.064,0.627,1.986,1.319,2.109,2.096c0.491-0.29,0.14-0.382,1.56,0.423
			c1.443,0.818,1.854,0.802,2.072,0.643c0.198,0.109,0.572,0.25,1.227,0.423c0.348,0.092,0.603,0.17,0.801,0.238
			c-0.043-0.331-0.768-1.052-1.212-0.989c-0.655,0.093-1.113,0.511-0.821-0.278s-0.169-0.789,0.821-0.789
			c0.991,0,0.323,1.113,1.935,0.649c1.611-0.465,4.863,1.161,4.99,0.418s0.821-1.439,2.779-0.649c1.958,0.788,1.2,1.531,2.337,0.649
			c1.138-0.883,2.085,1.207,3.096-0.418c0.034-0.057,0.071-0.11,0.108-0.165C233.208,295.671,234.54,296.071,232.149,296.222z
			 M128.611,292.182c0.821-0.286,0.522-0.349-0.176-0.418C128.405,291.886,128.452,292.038,128.611,292.182z M166.875,291.894
			c0.003,0,0.006,0,0.01,0c0.14,0.008,0.262,0.018,0.38,0.026C167.294,291.847,166.892,291.891,166.875,291.894z M198.397,298.479
			c-0.063-0.622-0.138-1.238-0.271-1.851c-0.075-0.003-0.146-0.005-0.233-0.01c-2.229-0.146-2.386-1.049-3.404,0.017
			c-0.735,0.77-0.562,0.926-0.958,1.104c0.987,0.162,2.147,0.096,2.147,0.096C195.968,298.359,197.392,298.47,198.397,298.479z
			 M198.407,287.331c0.256,0.14,0.597,0.218,0.896,0.271c-0.433-0.193-0.871-0.385-1.312-0.576
			C197.999,287.106,198.146,287.188,198.407,287.331z M199.777,286.766c0.007-0.013,0.021-0.024,0.042-0.037
			c-0.028,0.005-0.061,0.01-0.088,0.014C199.747,286.75,199.761,286.758,199.777,286.766z M199.809,287.823
			c-0.582,0.177-0.852,0.303-0.624,0.482s0.441,0.216-0.282,0.414c-0.263,0.072-0.308,0.119-0.305,0.145
			c0.347,0.063,0.91,0.139,1.873,0.257c2.75,0.338,3.857,0.245,4.645,1.491c0.787,1.245,3.803,0.343,1.519,1.786
			c-2.285,1.442-2.56,2.85-2.925,1.479c-0.336-1.259,0.015-1.937-1.907-1.509c0.044-0.004,0.088-0.01,0.131-0.015
			c0.205-0.041,0.464,0.051,0.732,0.099l0.051,0.115c-0.729,0.001-1.361,0.02-1.918,0.05c-2.38,0.572-4.421,0.581-2.904,1.296
			c1.61,0.756,4.285,0.701,2.343,1.369c-0.604,0.209-0.843,0.432-0.953,0.634c0.5,0.346,1.107,0.665,1.851,0.959
			c0.207,0.086,0.419,0.171,0.625,0.257c0.111-0.05,0.244-0.103,0.409-0.163c1.279-0.469,1.006,0.451,0.731-0.856
			s0.275-0.916,0.823-1.344c0.547-0.428,2.559-0.649,2.925,0c0.36,0.64,1.254,1.381,2.505,0.539
			c-0.206-1.024-0.415-2.042-0.705-3.061c-0.215-0.936-1.554-1.702-3.233-2.353c-1.345-0.523-2.741-0.997-4.097-1.504
			c-0.058-0.021-0.113-0.043-0.167-0.066C200.563,288.159,200.187,287.991,199.809,287.823z M210.264,294.823
			c0.004,0.188,0.021,0.381,0.028,0.57c0.053,0.057,0.113,0.112,0.194,0.169c0.823,0.578,0.183,1.137,2.559,0.659
			c0.268-0.055,0.479-0.11,0.657-0.166c-0.091-0.29-0.197-0.579-0.392-0.862c-0.478-0.707-1.609-1.309-3-1.957
			C210.287,293.854,210.178,294.331,210.264,294.823z M199.426,298.458c0.044,0.197,0.87,0.151,1.705,0.052
			c0.011-0.038,0.021-0.076,0.032-0.121c0.159-0.66-0.055-0.863,0.315-1.108c-0.745-0.318-1.517-0.627-2.327-0.951
			c-0.045,0.141-0.139,0.243-0.449,0.285c0.112,0.622,0.229,1.244,0.47,1.854C199.327,298.463,199.426,298.458,199.426,298.458z
			 M180.164,297.597c-0.264-0.079-0.513-0.243-0.952-0.473c-1.098-0.578-1.006,0.163-1.006,0.163s-0.345,0.058-0.831,0.072
			c0.021,0.153,0.196,0.354,0.407,0.393c0.61,0.138,1.098,0.302,1.5,0.483C179.287,297.979,179.717,297.773,180.164,297.597z
			 M173.983,288.875c0.009-0.026,0.022-0.053,0.032-0.079c-0.164,0.001-0.387,0.011-0.695,0.032
			C173.542,288.848,173.764,288.862,173.983,288.875z M173.575,281.681l-0.006,0.042
			C173.592,281.711,173.591,281.696,173.575,281.681z M173.169,278.659c-0.096-0.025-0.201-0.055-0.342-0.093
			c-1.28-0.342-0.229-0.287-0.366-0.488c-0.137-0.201-0.457-0.341-1.508,0c-1.052,0.339-0.457,0.146-1.264-0.088
			c-0.807-0.234-0.335-0.379,0.22-0.596c0.556-0.216,0.222,0.072,0.689-0.415c0.032-0.033,0.045-0.056,0.067-0.083
			c-1.216,0.393-2.428,0.779-3.627,1.177c-0.63,0.208-1.035,0.496-1.221,0.811c0.117-0.027,0.243-0.044,0.382-0.047
			c1.167-0.018,1.219-1.158,1.508-0.576s1.577,0.107,1.646,0.902c0.068,0.792,0.479,0.099,0.891,0.508
			c0.412,0.408,1.714-0.6,2.262-0.164c0.109,0.086,0.209,0.152,0.297,0.211C173.008,279.372,173.137,279.02,173.169,278.659z
			 M163.005,270.697c-0.077-0.338-0.171-0.667-0.351-0.985c-0.396-0.069-0.65-0.163-1.371,0.29c-0.466,0.292-0.613,0.379-0.751,0.41
			c0.017,0.019,0.031,0.039,0.047,0.059l-0.831,0.123c-0.028-0.023-0.049-0.049-0.075-0.071c-0.193,0.035-0.43,0.086-0.74,0.164
			c-2.011,0.505-0.184,0.145,0.868,0.722c1.051,0.577,0.32-0.288,2.148-0.433c0.605-0.049,0.888-0.032,1.071,0.021
			C163.025,270.897,163.023,270.798,163.005,270.697z M162.071,268.988c-0.084-0.085-0.173-0.169-0.265-0.254
			C161.749,268.823,161.862,268.907,162.071,268.988z M138.22,291.941c-0.018-0.069-0.061-0.112-0.125-0.144
			c-0.242,0.105-1.443-0.265-2.578-0.403c-1.41-0.172-0.989-0.043-0.636,0.366c0.292,0.049,0.576,0.112,0.828,0.204
			C136.556,291.884,137.395,291.877,138.22,291.941z M139.481,276.935c0.075,0.119,0.217,0.23,0.419,0.319
			C139.728,277.089,139.593,276.989,139.481,276.935z M137.946,289.03c-1.167,0.848,0,0,0.871,0.445s0.76,0.404-1.796,0.46
			c-1.255,0.027-1.487,0.058-1.228,0.215c0.464-0.353,3.44-0.267,2.779,0.256c-0.754,0.595-0.207,0.649,3.496,0.432
			c1.418-0.082,1.971-0.236,2.114-0.396c0.188-0.211,0.603-0.362,1.138-0.438c0.525-0.073,0.241-0.307,0.236-0.311
			c-0.172-0.086-0.363-0.181-0.609-0.289c-1.165-0.514-0.822-0.946-3.221-0.677c-0.611,0.068-1.008,0.076-1.264,0.043
			c-0.671,0.047-1.362,0.074-2.084,0.074c-0.052,0-0.106,0.003-0.158,0.003C138.13,288.904,138.039,288.963,137.946,289.03z
			 M140.012,287.971c-0.206-0.352,0.617-0.567,0-1.027s-1.714-0.055-3.017-0.243c-0.283-0.041-0.478-0.096-0.632-0.15
			c-0.074,0.154-0.166,0.333-0.278,0.554c-0.528,1.039,1.143,0.28,2.643,0.747c0.991,0.308,0.838,0.354,0.286,0.594
			c0.335,0.03,0.669,0.044,1.002,0.04C139.996,288.317,140.097,288.117,140.012,287.971z M140.514,277.802
			c-0.273,0.191-0.941,0.419-1.862,0.724c-0.324,0.108-0.522,0.191-0.626,0.26c0.562,0.259,2.603-0.133,2.603-0.133
			c-0.436-0.301-0.563-0.454,0.226-0.613C140.761,277.985,140.65,277.91,140.514,277.802z M161.909,279.524
			c-0.037,0.012-0.075,0.023-0.112,0.035c0.343,0.004,0.797-0.094,1.234-0.135c-0.029-0.022-0.06-0.045-0.085-0.068
			C162.607,279.407,162.176,279.428,161.909,279.524z M167.877,288.828c0.634-0.501,0.497-0.315,0.049-0.203
			c-0.041,0.068-0.081,0.136-0.123,0.203C167.832,288.828,167.847,288.827,167.877,288.828z M162.144,288.731
			c-1.207,0.17-0.905,0.541-1.161,1.009c-0.149-0.857-0.957-0.221-1.512-0.271c-0.015-0.052-0.086-0.097-0.124-0.136
			c-0.007-0.032,0.037-0.105,0.086-0.112c1.701-0.383,2.612-1.001,3.29-1.661c0.053-0.045,0.101-0.093,0.151-0.139
			c-0.156-0.287-0.063-0.436-1.015-0.493c-0.893-0.056-0.723-0.152-0.628-0.278c-0.694,0.182-1.206,0.308-1.429,0.348
			c-1.373,0.25-1.554,0.677-2.583,0.866c-1.028,0.189-2.467-0.596-1.068,0.334c0.247,0.164,0.46,0.331,0.64,0.495
			c1.304,0.01,0.306,0.446,2.006,0.767c2.148,0.405,1.096,0.189,1.68,1c0.101,0.141,0.095,0.227,0.039,0.283
			c0.212,0.02,0.473,0.05,0.818,0.096c3.064,0.421-0.328,0.081,2.135,0.754C163.044,290.666,162.593,289.709,162.144,288.731z
			 M136.592,292.409c0.797,0.398,1.447,0.548,1.609-0.14C137.688,292.265,137.155,292.312,136.592,292.409z M136.378,292.299
			c0.076-0.018,0.146-0.034,0.217-0.051c-0.098-0.05-0.136-0.09-0.239-0.138c-0.084,0.013-0.168,0.025-0.252,0.038
			C136.197,292.2,136.288,292.25,136.378,292.299z M162.954,276.901c-1.062-0.122-1.646-0.278-2.064-0.384
			c-0.453,0.003-0.906,0.005-1.359,0.005c-0.248,0.079-0.554,0.201-0.964,0.379c-1.245,0.541-1.296,1.063-1.792,1.301
			c1.3,1.272,3.501-0.052,4.763-0.106c0.479-0.021,0.762,0.094,0.93,0.246c1.426-0.446,2.84-0.901,4.263-1.355
			c0.715-0.208,1.284-0.454,1.905-0.69c0.003-0.024,0.009-0.044,0.017-0.059c-0.994,0.074-1.98,0.13-2.959,0.171
			C165.815,276.924,165.45,277.188,162.954,276.901z M183.292,279.974c-0.73,0.467-1.142,0.542-1.142,0.542s0.536-0.121-1.143-0.596
			c-0.403-0.114-0.639-0.195-0.771-0.248c0.074,0.061,0.139,0.156,0.086,0.283c-0.184,0.434-1.691-0.144-3.06-0.094
			c-1.37,0.05-0.597-0.375-1.099-0.354c-0.364,0.015-0.658,0.06-1.167-0.082c-0.191,0.412-0.444,0.817-0.871,1.188
			c-0.216,0.179-0.454,0.354-0.684,0.53c0.124,0.024,0.207,0.038,0.207,0.038l-0.051,0.35c0.526-0.059,1.656-0.156,2.003,0.033
			c0,0,0.137-0.383,1.005-0.148s0.229,0.56,1.233,0.415c1.006-0.145-0.73,0.812,0.961,0.649c1.691-0.163,0.273,0.36,1.735,0
			c1.379-0.341,2.066-0.199,2.754-0.031c0.053-0.028,0.106-0.058,0.16-0.085c0.752-0.409,1.491-0.771,2.067-1.164
			c0.661-0.438,1.157-0.885,1.502-1.343c-0.065,0.012-0.134,0.03-0.207,0.063c-0.595,0.252-1.098,0.144-2.286,0.054
			C183.339,279.884,184.022,279.508,183.292,279.974z M190.675,277.443c-0.013,0.016-0.031,0.029-0.042,0.046
			c-0.099,0.172,0.006,0.172,0.244,0.103C190.806,277.542,190.743,277.492,190.675,277.443z M191.396,277.949
			c-0.051,0.008-0.097,0.012-0.151,0.022c-1.006,0.199,0.32,0.091,0,0.39c-0.226,0.212,0.215,0.199,0.909,0.154
			C191.923,278.323,191.669,278.135,191.396,277.949z M194.082,281.251c-0.406-0.792-0.821-1.572-1.513-2.341
			c-0.44-0.026-1.22,0.356-1.598,0.253c-0.458-0.127-0.292-0.081-1.007,0.508c-0.361,0.297-0.495,0.397-0.652,0.43
			c-0.347,0.425-0.832,0.835-1.509,1.225c-0.562,0.334-1.164,0.661-1.777,0.985c0.382,0.053,0.711,0.117,0.863,0.17
			c0.366,0.126,0.441,0.314,1.326,0c0.883-0.315,1.782-0.216,2.102-0.199c0.319,0.019,1.051,0.073,1.097-0.252
			c0.046-0.324,1.188,0.054,1.28,0.252c0.091,0.199-0.098,0.068,0.774-0.101c0.382-0.074,0.69-0.135,0.967-0.163
			C194.321,281.761,194.207,281.505,194.082,281.251z M243.433,296.072c0.694-0.128,1.084-0.176,1.295-0.174
			c-0.078-0.043-0.157-0.088-0.238-0.135c-1.462-0.845-2.011,0.268-2.742,0.16c-0.002-0.001-0.005-0.001-0.008-0.002
			C241.672,296.257,241.021,296.516,243.433,296.072z M226.271,306.686c-0.257-0.359-0.464-0.431-1.015,0.065
			c-0.093,0.084-0.172,0.167-0.242,0.249C225.764,307.229,224.844,306.776,226.271,306.686z M170.693,300.359
			c-0.472,0.393-0.83,0.791-1.055,1.21c0.08,0.01,0.147,0.021,0.233,0.03c1.98,0.223,1.627,0.53,2.326,0
			c0.698-0.53-0.558-0.334-1.265-0.697c-0.708-0.363,0.645-0.753,0.645-0.753s1.123,0.586,0.345,0
			c-0.111-0.084-0.185-0.154-0.239-0.218C171.346,299.945,171.029,300.081,170.693,300.359z M173.451,299.191
			c0.425-0.033,0.512,0.145,1.371,0.483c1.132,0.446,0.708-0.139,3.396-0.167c0.459-0.006,0.871-0.005,1.236,0.003
			c0.268-0.027,0.507-0.054,0.697-0.084c-0.39-0.472-0.977-0.906-2.142-1.202c-0.374-0.101-1.231-0.126-1.54-0.038
			C175.389,298.49,174.443,298.852,173.451,299.191z M171.323,297.023c-0.129-0.031-0.247-0.068-0.359-0.109
			C171.077,296.963,171.197,296.999,171.323,297.023z M171.428,297.044c-0.032-0.007-0.068-0.013-0.099-0.02
			C171.362,297.031,171.395,297.04,171.428,297.044z M166.303,291.871c-0.654-0.055-1.485-0.236-0.244-0.849
			c1.819-0.896,2.001-0.752,1.636-1.328c-0.303-0.479-0.841-0.781-0.29-0.85c0.022-0.055,0.047-0.107,0.07-0.16
			c-0.091,0.001-0.186-0.003-0.284-0.019c-0.914-0.145,0.347,0.36-1.609-0.145c0,0-1.225,0.072-1.225-0.324
			c0-0.335-0.852-0.042-0.811-0.4c-0.724,0.907-0.754,1.873,0.049,2.906c0.321,0.391,0.877,0.749,1.282,1.139
			c-0.158,0.007-0.325,0.011-0.408,0.012C165.931,292.222,164.751,291.842,166.303,291.871z M134.173,295.066
			c-0.077,0.044-0.138,0.098-0.202,0.149C134.125,295.165,134.184,295.115,134.173,295.066z M132.494,295.49
			c0.2-0.035,0.418-0.071,0.662-0.106c0.057-0.009,0.099-0.017,0.15-0.024C133.012,295.288,132.73,295.401,132.494,295.49z
			 M129.814,292.851c-0.038,0.003-0.082,0.006-0.127,0.011C129.73,292.857,129.772,292.854,129.814,292.851z M128.123,274.309
			c-0.002-0.048-0.02-0.109-0.056-0.186C128.007,274.153,127.999,274.207,128.123,274.309z M134.311,273.024
			c0.018,0.012,0.042,0.025,0.07,0.038C134.375,273.047,134.355,273.035,134.311,273.024z M142.93,264.79
			c-0.347,0.005-0.527,0.063-0.642,0.137c0.317,0.04,0.678,0.078,1.101,0.116C143.707,264.869,143.676,264.777,142.93,264.79z
			 M169.156,262.791c0-0.066-0.134-0.146-0.134-0.175c-1.103,0.115-2.189,0.217-3.27,0.331c-0.016,0.002-0.029,0.005-0.046,0.007
			c-0.101,0.09-0.324,0.192-0.654,0.298c-0.825,0.263,0.455,0.876,0.455,0.876l0.274,0.662c0,0-0.251,0.035-0.441,0.104
			c1.201,0.802,0.106,0.418,2.001,0.418c2.012,0,1.371,0.072,0.64,0.541c-0.402,0.259-0.58,0.418-0.1,0.449
			c0.828-0.159,1.366-0.493,1.345-0.948C169.192,264.514,169.192,263.633,169.156,262.791z M177.123,262.099
			c0.007-0.525-1.36-0.88-2.577-0.667l-0.027,0.005c-2.097,0.366-3.265,1.085-3.575,1.993c-0.204,0.434-0.24,0.866-0.24,1.328
			c-0.046,0.475-0.219,0.937-0.514,1.392c0.132-0.014,0.262-0.028,0.408-0.043c2.822-0.305,1.362,0.085-0.748,0.733
			c0.012,0.354,0.319,0.744,0.814,0.985c0.24,0.117,0.456,0.235,0.589,0.364c0.38,0.339,0.409,0.691,0.584,1.03
			c-0.655-0.422-1.345-0.841-2.027-1.274c-0.177-0.083-0.486-0.108-0.689-0.179c-0.134,0.123-0.346,0.218-0.346,0.34
			c-0.063,0.488,0.036,0.991,0.07,1.588c-0.274-0.299-0.478-0.544-0.583-0.76c-0.38-0.556-0.38-0.556-1.75-0.354h-0.002
			c1.305-0.292,1.563-0.765,1.793-1.251c-2.192,0.7-1.128,0.145-2.707,0.868c-1.655,0.757-0.723-0.217-3.139,0.288
			c-0.042,0.009-0.065,0.018-0.104,0.026c0.262,0.286,0.6,0.564,1.007,0.831c0.398,0.104,0.658,0.2,0.461,0.287
			c0.255,0.144,0.428,0.287,0.555,0.455c-0.203-0.066-0.372-0.149-0.683-0.23c-0.157,0.495-0.333,0.983-0.102,1.444
			c0.207,0.095,0.525,0.196,1.1,0.289c2.01,0.323,1.005-0.036,1.38,0.412c0.375,0.448,0.442,0.243,0,1.029
			c-0.442,0.788,0.813,0.478,0.813,0.478c0,0.092-0.585,0.272-1.271,0.466c0.546,0.177,0.449,0.309,0.449,0.309
			s-1.361,0.414-1.001,0.628c0.157,0.093,0.223,0.205,0.273,0.356c3.173,0.312,6.447-0.463,8.248-1.667
			c2.054-1.396,2.771-2.96,3.23-4.536c0.55-2.527,0.248-4.668,0.247-4.673C177.06,264.388,177.105,263.53,177.123,262.099z
			 M178.591,271.75c-1.063,0.959-1.913,1.941-3.195,2.846c-0.003,0.003-0.007,0.005-0.011,0.008
			c0.156-0.015,0.282-0.049,0.667-0.042c0.711,0.014,0.179,0.319,2.213,0.598c2.035,0.277,2.11-0.222,2.993-0.088
			s0.756,0.069,0.572,0.394c-0.183,0.325,0.549-0.054,1.828,0.252c1.28,0.304,0.96-0.233,2.147,0.055
			c0.215,0.053,0.451,0.088,0.696,0.116c-0.488-0.625-1.197-1.215-2.439-1.719c-0.704-0.304-1.315-0.652-1.925-1
			c-1.012-0.597-2.008-1.208-3.113-1.867C178.812,271.486,178.728,271.632,178.591,271.75z M184.144,262.503
			c-0.252-0.394-0.896-0.712-1.72-0.936c-0.022,0.517-0.044,0.998-0.064,1.44c0.029,0.875,0.063,1.383,0.063,1.383h-0.106
			c0,0.3-0.034,0.611-0.069,0.896l-0.974,4.361c-0.012,1.133,0.306,1.056,1.887,1.964c2.883,1.648,5.883,3.227,8.821,4.856
			c2.034,1.113,3.421,2.37,3.96,3.729c0.254,0.671,0.4,1.341,0.56,2.012c0.316-0.021,0.746-0.054,1.393-0.071
			c0.127-0.005,0.232-0.014,0.347-0.021c0.111-0.242,0.132-0.449-0.333-0.43c-1.152,0.047,0.239-0.517-0.767-1.029
			c-1.006-0.514,0-0.353,0.767-0.956c0.767-0.603,1.793,1.325,2.113,0.424c0.319-0.902,2.147-0.082,2.147-0.082
			c1.919-0.153,4.022,0.623,5.142-0.002s1.897,0.047,3.359,0.047c0.712,0,1.187-0.084,1.738-0.026
			c0.001-0.006-0.002-0.013-0.001-0.02c0,0-1.332-0.692-0.895-1.063c0.438-0.37-0.825,0.26-0.568-0.517
			c0.259-0.777-1.287-1.589,3.108-0.976c0.548,0.077,3.108-0.067,3.108,0.438s0.914-0.659,2.468-0.528
			c0.403,0.034,0.794,0.01,1.153-0.036c-0.102-0.236-0.24-0.266-1.158-0.241c-1.371,0.036-1.371,0.145-1.554-0.433
			c-0.184-0.577-1.098-0.902-2.103-0.613c-1.006,0.289-3.108,0.18-2.103,0.649c1.005,0.469,0.64,0.433-1.006,0.216
			c-1.646-0.216-2.377-0.396-3.107-0.216c-0.731,0.18-1.17,0.089-1.636,0.261c-0.467,0.172-21.399-1.184-20.941-6.078
			c0,0-1.334-0.692-0.896-1.063c0.438-0.37-0.825,0.26-0.567-0.517c0.257-0.776-1.288-1.589,3.107-0.976
			c0.109,0.016,0.3,0.021,0.532,0.026c-0.139-0.529-0.292-1.069-0.445-1.606c-0.492-1.354-0.736-1.375-3.771-0.753
			c-0.146,0.028-0.247,0.049-0.39,0.008c0.407-0.133,0.941-0.271,1.375-0.389c1.104-0.251,1.29-0.566,0.635-0.982
			c-0.636-0.437-1.336-0.857-1.866-1.35C184.574,263.056,184.321,262.78,184.144,262.503z M203.319,268.693
			c-0.029-0.081-0.06-0.162-0.085-0.244c-0.132-0.379-0.625-0.334-1.205-0.209C202.585,268.497,202.895,268.63,203.319,268.693z
			 M203.799,266.029c-0.127-0.849-1.768-1.386-3.136-1.979c-2.822-1.2-6.768-1.518-10.581-1.947
			c-0.767-0.077-1.653-0.184-2.482-0.216c-1.245-0.072-1.589,0.079-1.152,0.539c0.472,0.624,1.173,1.223,1.809,1.833
			c0.505,0.586,1.03,1.146,1.609,1.718c0.257,0.279,0.61,0.562,0.861,0.828c0.244,0.268,0.414,0.515,0.604,0.774l-0.248,0.048
			c-0.194-0.155-0.317-0.29-0.456-0.438c-0.313,0.407-0.402,0.807-0.376,1.206c0.826,0.027,1.676,0.102,1.676,0.394
			c0,0.505,0.914-0.659,2.469-0.528c1.554,0.132,2.925-0.603,3.017-0.127c0.091,0.471,3.146-0.528,4.354-0.012
			C203.669,267.611,203.928,266.817,203.799,266.029z M203.962,268.743c0.065,0.003,0.128,0.006,0.199,0.007
			c-0.074-0.03-0.138-0.062-0.22-0.091C203.949,268.688,203.955,268.716,203.962,268.743z M205.181,266.599
			c-1.122,0.844-0.878,1.525-0.196,2.16c1.456,0.029,2.979,0.233,3.487,0.569c0.548,0.363,0.365,0.548,1.646,0.384
			c0.041-0.006,0.092-0.014,0.136-0.021c-1.488-0.767-2.805-1.584-3.997-2.442C205.952,267.043,205.635,266.861,205.181,266.599z"/>
		<linearGradient id="XMLID_8_" gradientUnits="userSpaceOnUse" x1="229.5225" y1="348.7373" x2="220.2937" y2="166.7984">
			<stop  offset="0" style="stop-color:#FFFFFF"/>
			<stop  offset="1" style="stop-color:#000000"/>
		</linearGradient>
		<path id="XMLID_153_" fill="url(#XMLID_8_)" d="M227.634,312.41C227.78,312.441,227.738,312.443,227.634,312.41L227.634,312.41z"
			/>
		<linearGradient id="XMLID_9_" gradientUnits="userSpaceOnUse" x1="243.293" y1="350.3799" x2="238.5437" y2="256.7502">
			<stop  offset="0" style="stop-color:#FFFFFF"/>
			<stop  offset="1" style="stop-color:#000000"/>
		</linearGradient>
		<path id="XMLID_145_" fill="url(#XMLID_9_)" d="M240.182,288.668C240.133,288.656,240.124,288.654,240.182,288.668
			L240.182,288.668z"/>
		<linearGradient id="XMLID_10_" gradientUnits="userSpaceOnUse" x1="243.0176" y1="343.5635" x2="234.1881" y2="169.4951">
			<stop  offset="0" style="stop-color:#FFFFFF"/>
			<stop  offset="1" style="stop-color:#000000"/>
		</linearGradient>
		<path id="XMLID_68_" fill="url(#XMLID_10_)" d="M240.182,288.668c0.025,0.005,0.06,0.013,0.104,0.022l0,0
			C240.232,288.679,240.207,288.673,240.182,288.668z"/>
	</g>
	<path id="XMLID_2727_" fill="#070705" d="M207.375,193.156C207.368,193.438,207.506,193.625,207.375,193.156L207.375,193.156z"/>
	<path id="XMLID_2728_" fill="#070705" d="M249.342,176.051c-0.013-0.031-0.034-0.053-0.049-0.082
		C249.167,176.271,249.51,176.496,249.342,176.051z"/>
	<path id="XMLID_2731_" fill="#070705" d="M262.354,113.227c-1.736-0.731-0.548-2.194-2.468-0.914s-3.382,1.737-3.564,0.914
		s-1.097-2.241,0.091-2.4c1.188-0.159-1.645-1.121-0.548-1.919c1.097-0.798-1.737-1.578-2.834,0s-1.37-1.164-1.188,3.497
		c0,0-2.925,2.651-2.559,0.731c0,0,1.37-0.639,0.914-1.736c-0.458-1.097-1.28,2.011-1.92,0.731c-0.64-1.28,0.274-2.377,0.73-2.56
		c0.458-0.183,1.829-1.053,0.275-1.578c-1.555-0.525-1.737,0.207-2.103,2.035c-0.366,1.828,0,2.011-1.371,1.919
		s-1.371-0.366-1.554,1.097c-0.184,1.462-1.098,2.285-2.103,1.554c-1.006-0.731-3.108-0.457-2.103-1.645
		c1.005-1.188,0.64-1.097-1.006-0.549c-1.646,0.549-2.377,1.006-3.108,0.549c-0.73-0.457-1.168-0.227-1.635-0.662
		c-0.036-0.033-0.204-0.041-0.46-0.026c-0.393-2.152,1.609,0.367,2.826-1.438c1.371-2.035,0.183-3.793,0.183-3.793
		s-0.091,1.349-0.091-0.754c0-2.102,2.376-0.183,2.65-1.005c0.274-0.823,2.376,0.191,2.376,0.191s-0.342,0.197-0.548,0.315
		c0.549-0.315,3.107,0.59,3.107,0.59c0.731-0.457-0.273-2.468-0.273-2.468c-0.457-1.828,2.011-1.919,3.29-2.924
		c1.28-1.006,0.914,1.188,1.645,2.261c0.732,1.073,1.646-1.256,1.372-3.368s2.011-0.629,3.839-1.635
		c1.829-1.005-2.468-1.097-4.57-1.737c-1.068-0.325-1.121,0.386-1.078,0.734c-0.055-0.199-0.177-0.584-0.439-1.283
		c-1.243-3.291-2.688-0.458-2.962-0.39c-0.272,0.067-1.37,0.024-1.827-1.622c-0.457-1.645-0.823-0.914-1.737-1.371
		c-0.914-0.457,1.463-2.285,3.839-2.742c2.378-0.457,2.834,0.183,2.651-2.376c-0.164-2.298-0.993-1.866-2.219-0.205
		c-0.113-0.543-1.041-1.744-0.353-2.171c1.138-0.706,1.643-2.236,2.273-0.353c0.632,1.883-0.441-2.707,1.138-1.412
		s1.138,3.177,2.211,3.177s0.379,1.647,1.453,1.647c1.073,0,1.137,0.471,2.084-0.823c0.947-1.295,2.274-2,1.391-2.707
		c-0.885-0.706-1.77,0.824-1.644-1.294s0.379-1.176-1.073-3.177c-1.453-2-2.085-2.942-1.579-3.766
		c0.505-0.824,0.505-0.354-0.316-1.413s-0.758-1.647-0.505-2s-0.316-1.883,0.253-2c0.568-0.118,0.315-1.647,1.263-0.588
		c0.948,1.059,1.579-0.155,1.579-0.372s0.253-2.688,0.822-2.1c0.567,0.588,0.063-0.235,0.757,1.647
		c0.695,1.883,0.379,0.589,1.327,0.118c0.947-0.47,0.674-0.588,1.316-0.118c0.642,0.471,1.146-1.475,0.642-1.737
		c-0.505-0.263-1.327,0.215-1.327-0.495s-0.82-0.321-0.947-2.575c-0.126-2.253,0.569-2.371-0.694-1.547s-1.832,2.589-2.4,0.588
		s-1.643-1.945-1.2-3.208s0.758-1.671-0.253-2.468c-1.01-0.796-1.895-0.976-1.326-1.828s0.694-1.249-0.442-1.345
		c-1.137-0.095-1.604-0.328-1.718-1.035c-0.114-0.708-0.24-1.475-0.683-1.916c-0.441-0.439-4.548-0.619-5.179-0.588
		c-0.632,0.031-5.559,1.525-5.559,1.525s-7.283,3.129-9.166,5.184c-0.578-0.455-1.243-0.969-1.864-1.541
		c-2.284-2.102,0.823-1.736,1.737-1.645c0.915,0.091,2.469,0.183,1.555-2.285c-0.915-2.468-1.463-1.005,0.183-3.382
		c1.645-2.377-1.372-0.914-1.462-2.468c-0.039-0.637,0.26-0.979,0.42-1.108c-0.179,0.096-0.633,0.293-1.609,0.559
		c-3.017,0.823-0.183-0.366-0.457-2.65c-0.274-2.286-1.006-0.183-3.199,1.005c-2.194,1.188-0.274-2.285-2.468,0.365
		c-2.194,2.651-1.28-3.107-1.828,0.183c-0.549,3.291,0,0-2.193,1.097c-2.194,1.097,0.548-0.823-1.555-2.011
		c-2.102-1.188,0.549-1.462-1.097-1.919s1.463,3.017-0.458,2.65c-1.918-0.365-1.462,1.28-1.717,3.474s-0.477,1.646-2.64,1.646
		c-2.166,0,0.245,0.914-0.305,3.199c-0.548,2.285,1.372,1.188-0.636,1.828c-2.007,0.64-2.197-2.559-4.574-4.296
		c-2.376-1.737,0.549,3.016-2.879,3.107c-3.429,0.092,2.239,1.372-1.104,2.194c-3.344,0.823-1.227,2.103-2.78,1.28s0,0-1.189,1.898
		c-1.188,1.898-1.827,0.373-1.827,0.373c-1.696-0.632-3.105-0.359-4.107,0.085c-0.107-0.181-0.188-0.4-0.212-0.687
		c-0.137-1.714,1.303-0.206,2.263-0.343c0.959-0.137,0.959-0.754,1.233-3.427c0.275-2.674,1.303-0.343,3.085-1.028
		c1.782-0.686,0.617-0.686,0.138-3.085c-0.48-2.399,0,0,1.165-0.822c1.166-0.823,1.028-0.754-1.37-1.646
		c-2.4-0.892-0.755-0.548,1.507-2.876c2.263-2.328-0.068-1.101-1.851-1.101s-0.686-0.274,0.068-1.713
		c0.755-1.44-0.343-0.96-2.263-0.206c-1.919,0.754-0.958-0.275-1.645-1.92c-0.686-1.645-0.892,0.206-1.919,1.234
		c-1.029,1.028-1.029-0.823,0.067-1.646c1.098-0.822-0.754-0.411-2.325-0.205c-1.571,0.205-0.348-0.48-0.073-1.92
		c0.273-1.439-0.206-0.754-1.577-0.548c-1.37,0.206-0.96,0.137-0.617-1.371c0.343-1.508-0.273-1.303-2.056-0.206
		c-1.783,1.097-0.48-0.343-1.416-1.714c-0.934-1.372-0.367-0.137-2.995,0.754c-2.628,0.891-0.114,0.479-1.417-2.057
		c-1.302-2.536-0.617,1.303-1.988,0.823c-1.371-0.48-0.206,0.754-0.068,2.194c0.137,1.439,1.166,1.097-1.007,0.686
		s0.938,1.439-1.004,2.742s1.599,0.754,1.874,1.988c0.274,1.234,0.479-0.137,1.92,1.577c1.439,1.713,0.891,0.205-1.051,1.439
		c-1.943,1.234-0.869-0.343-1.739-1.577s-1.461-1.028-1.873,0.342c-0.411,1.372-1.508-0.479-2.605-2.193
		c-1.096-1.714-0.548,1.302-1.714,0.343c-1.165-0.96-2.262-0.891-1.577-0.479c0.686,0.411,0.275,1.919-0.996,2.057
		c-1.27,0.137-0.307,1.233,0,1.851c0.308,0.617,0.447,1.097,0.104,1.508c-0.342,0.411,0.137,0.617,1.806,1.782
		c1.667,1.166,0.593,0.754,1.143,2.057c0.548,1.303,1.439,0.617-0.618,1.782c-0.867,0.491-1.093,0.945-1.068,1.307
		c-0.282,0.006-0.585-0.008-0.928-0.091c-1.769-0.424-1.557,0.212-2.971,0.424c-1.415,0.212-0.566-0.283-1.203-1.414
		c-0.637-1.132,0.708-0.284,1.273-1.626c0.566-1.344-0.565-0.496-0.565-1.273c0-0.778-0.566-0.142-0.991-1.131
		c-0.425-0.991-1.345,1.414-1.769-0.142c-0.424-1.555-1.768-0.354-1.768-1.768s-0.425,0.212-1.981-0.212
		c-1.556-0.425-0.636,1.131-1.202,1.838c-0.566,0.707,2.052,1.979-0.354,1.838c-2.406-0.141,0,0-0.142,2.09
		c-0.142,2.09-1.203-1.665-1.627,0c-0.424,1.666-0.566,1.021-1.203,0.314c-0.636-0.707-1.344,0-1.344,0
		c0.99,1.485-1.839-0.212-2.334,1.485c-0.495,1.697-2.193-0.071-1.061,0.919c1.132,0.99,2.688-0.424,3.042,0
		c0.354,0.424,0.424,0.212,1.203,0.778c0.778,0.566-0.213,0.707-0.284,1.82c-0.071,1.113-0.282,0.159-1.344,0.018
		c-1.061-0.142-0.708,0.566-0.708,1.344c0,0.777-0.495,0.636-1.768,0.565c-1.274-0.071-0.071,0.919-0.85,2.475
		c-0.778,1.555,0.424,0,2.123-0.283c1.698-0.283,3.325,0.707,3.325,0.707c3.396,2.263,0.566,0.778,0,2.263
		c-0.565,1.485-2.263-0.142-1.06,1.768c1.202,1.909,2.617,0.142,3.749,0.778c1.132,0.636,0.708,1.131,1.769,0.849
		c1.061-0.283,2.405,0.919,1.202,2.191c-1.202,1.273,0.92,0.849,0.92,0.849c0.283,0.637,2.193,1.202,2.829,2.263
		c0.638,1.061,2.193,0.212,3.68-0.743c1.485-0.956,2.334-0.318,2.9,0.955c0.509,1.145,0.915,0.518,2.429-0.032
		c0.345,2.729,1.686,4.855,3.971,6.471c1.378,0.99,2.586,2.224,3.07,3.91c0.03,0.1,0.048,0.199,0.076,0.299
		c-0.413,0.128-0.845,0.37-1.24,0.847c-1.295,1.558,0.073,0.461-1.479-0.087c-0.254-0.09-0.479-0.149-0.693-0.195
		c-1.419-1.947,0.213-0.817-2.034-2.868c-2.331-2.125-0.347,0.252-2.536-0.206c-2.189-0.458-0.206-1.233-3.154-0.753
		c-2.947,0.479-1.166,0.411-2.354-2.743c-1.188-3.153-0.251-2.468-2.479,0.137c-2.228,2.605-1.474-1.645-2.16,0.343
		c-0.632,1.835-1.851,0.165-4.029-2.097c-0.02-0.049-0.036-0.098-0.058-0.147c-0.003,0.026-0.003,0.055-0.004,0.083
		c-0.162-0.168-0.329-0.339-0.502-0.512c-2.536-2.537-1.028,1.371-2.742,0.686c-1.714-0.686-0.412-1.783,0.685-4.799
		c1.097-3.016-0.479-0.959-2.605-1.439c-2.125-0.48,0.068,0.753-0.686,2.399c-0.754,1.646-0.617-0.617-2.263,1.166
		c-0.436,0.473-0.652,0.831-0.754,1.065c0.008-0.266-0.042-0.701-0.273-1.339c-0.823-2.263-1.714,0.206-2.331,1.234
		c-0.618,1.028-2.674,0.822-1.165-1.762c1.508-2.584-2.125,0.39-4.868,0.047c-2.742-0.342-0.137,1.234-2.236,2.674
		c-2.099,1.44,0.522,0.686,0.865,1.44c0.343,0.754,0.206,0.48,1.166,2.73c0.959,2.252,0,0.697-3.016,0.279
		c-3.017-0.418-1.234-0.542-2.605,0.921c-1.371,1.463-1.165-0.503-1.508-0.503c-0.206,0,0.068,2.537-2.673,3.085
		c-2.743,0.549,0,0-2.126,1.92c-2.125,1.919-0.959,3.839,0.343,2.354c1.303-1.485,1.028,0.663,1.988-1.188
		c0.959-1.851,0.343,0.479,1.303,3.222c0.959,2.742,1.44,0.548,1.919-1.097c0.384-1.318,0.683-1.051,1.914-0.47
		c0.542,0.662,1.137,1.241,1.783,1.739c-0.41,0.315-1.12,0.634-1.778,0.994c-1.508,0.822-0.343,0.686-1.166,2.673
		c-0.256,0.62-0.373,1.006-0.484,1.232c-1.229-0.31-2.495-0.482-3.827-0.395c0.472,0.094,0.949,0.189,1.43,0.286
		c-1.871-0.278-1.518,0.266-0.062,1.498c-0.427,0.196-0.927,0.446-1.407,0.666c-1.441,0.662-0.475-0.355-0.639-1.812
		c-0.164-1.456-0.419-0.66-1.668-0.057c-1.25,0.602-0.877,0.415-0.996-1.128c-0.118-1.542-0.646-1.163-2.025,0.412
		c-1.378,1.575-0.559-0.186-1.857-1.219c-1.298-1.034-0.392-0.022-2.64,1.606c-2.246,1.628,0.034,0.493-1.961-1.545
		c-1.994-2.038-0.204,1.427-1.655,1.374c-1.452-0.053,0.026,0.781,0.583,2.116c0.556,1.334,1.438,0.703-0.76,0.953
		c-2.197,0.249,1.322,1.098-0.148,2.917c-1.47,1.819,1.751,0.247,2.378,1.345c0.627,1.097,0.418-0.273,2.301,0.938
		c1.881,1.211,0.912-0.067-0.579,1.686c-1.491,1.753-0.931-0.07-2.127-0.992c-1.195-0.922-1.7-0.55-1.687,0.881
		c0.012,1.431-1.583-0.013-3.138-1.326c-1.555-1.313-0.139,1.407-1.535,0.834c-1.397-0.573-2.425-0.182-1.649,0.007
		c0.777,0.191,0.831,1.753-0.342,2.259c-1.173,0.506,0.071,1.27,0.547,1.769c0.476,0.498,0.751,0.916,0.545,1.41
		c-0.206,0.494,0.313,0.549,2.252,1.169c1.938,0.62,0.79,0.544,1.7,1.627c0.908,1.082,1.557,0.164-0.063,1.885
		c-0.683,0.726-0.765,1.226-0.634,1.564c-0.269,0.089-0.561,0.165-0.914,0.188c-1.815,0.118-1.424,0.663-2.712,1.284
		c-1.289,0.621-0.625-0.103-1.567-0.995c-0.943-0.893,0.591-0.48,0.736-1.931c0.143-1.451-0.688-0.305-0.918-1.048
		c-0.23-0.743-0.582,0.032-1.28-0.788c-0.699-0.821-0.866,1.748-1.732,0.388c-0.865-1.361-1.793,0.185-2.212-1.166
		c-0.418-1.351-0.343,0.328-1.955,0.383c-1.612,0.055-0.273,1.269-0.605,2.112c-0.332,0.842,2.545,1.284,0.206,1.86
		c-2.341,0.577,0,0,0.483,2.038c0.483,2.039-1.642-1.235-1.555,0.481c0.087,1.717-0.239,1.143-1.055,0.656
		c-0.818-0.487-1.285,0.398-1.285,0.398c1.385,1.125-1.82,0.341-1.792,2.108s-2.116,0.581-0.741,1.192
		c1.374,0.611,2.442-1.2,2.906-0.9c0.462,0.301,0.468,0.077,1.378,0.388c0.91,0.31,0.006,0.738,0.268,1.822
		s-0.222,0.236-1.278,0.415c-0.667,0.113-0.694,0.382-0.565,0.752c-0.381,0.308,0.057,0.724,0.172,1.366
		c-0.229,0.177-0.695,0.26-1.408,0.438c-1.237,0.309,0.205,0.899-0.079,2.615c-0.248,1.499,0.247,0.285,1.401-0.562
		c0.345-0.05,0.695-0.067,0.87,0.129c0.551,0.619,0.339,0.398,1.921,2.264c1.583,1.867,0.206,0.666-2.8,1.158
		s-1.338-0.152-2.216,1.65c-0.876,1.802-1.261-0.136-1.588-0.035c-0.197,0.062,0.815,2.403-1.643,3.738s0,0-1.463,2.462
		c-1.462,2.462,0.219,3.951,1.024,2.147c0.805-1.804,1.178,0.329,1.548-1.723c0.369-2.052,0.468,0.357,2.197,2.693
		c1.727,2.336,1.537,0.099,1.509-1.616c-0.028-1.713,0.542-1.029,2.881-0.892c2.339,0.137,0.819,1.254-0.378,2.486
		c-1.198,1.231-0.125,0.756-0.323,2.899c-0.199,2.142,0.269,1.566-2.145,1.883c-2.414,0.316-1.622,0.789,0.678,1.727
		c2.3,0.939-0.346,0.969-1.467,2.679c-1.121,1.71,0.883,0.301,1.387,2.625c0.504,2.323,1.436-2.78,2.708-4.466
		c1.273-1.686,0.642,0.448,1.522,2.831c0.881,2.382,1.607-0.139,0.894-1.984c-0.716-1.845,1.746-1.776,2.328-3.606
		c0.582-1.831,1.196-3.163,2.095-0.649c0.531,1.486-0.574,0.465-1.039,2.905c-0.464,2.44,0.007,0.716,0.019,2.148
		c0.013,1.433,3.791,0.189,2.624-1.029c-1.166-1.218-0.683-1.511,3.016-2.082c1.418-0.219,2.063-0.008,2.316,0.334
		c0.339,0.456,0.849,0.7,1.416,0.723c0.56,0.022,0.458,0.684,0.458,0.684c0.854,2.558,9.578-0.621,9.889-0.646
		c3.709-0.293,1.188-1.085,2.936-2.702c1.747-1.618,0.905-0.783,0.854-2.92c-0.008-0.366-0.08-0.576-0.174-0.693
		c0.187-0.112,0.415-0.261,0.708-0.477c0.323-0.239,0.558-0.417,0.729-0.555c-0.025,0.104-0.05,0.203-0.08,0.321
		c-0.731,2.852-1.279,2.303,1.005,2.121c2.285-0.183,1.462-1.371,4.021-0.274c0.433,0.186,0.714,0.293,0.909,0.352
		c-0.688,0.466-1.548,1.111-1.548,1.111s0.548,1.097,1.28,1.737c0.731,0.64-0.183,1.645-0.914,2.285s-3.565-0.183-4.937,0.731
		c-1.371,0.914-1.096,1.828-3.017,1.828c-1.919,0-1.828,0.548-2.742,2.285c-0.914,1.737,2.559,0.914,3.017-0.183
		c0.457-1.097,3.473,0.457,3.93,0.914c0.458,0.457,1.646,2.559,3.565,0.388s4.205,0.618,5.393,0s1.554-0.388,2.103-1.119
		c0.548-0.731,0.548-0.457,4.753-0.183c4.205,0.274-0.548,2.56-2.011,2.102c-1.462-0.457-1.188,0.64-1.645,1.188
		c-0.457,0.548-0.457,0.914-3.107,1.92c-2.651,1.005-0.366,1.279-1.28,1.371c-0.915,0.092-0.366,1.188,1.28,2.102
		c1.645,0.915,1.462-1.554,2.193-0.182c0.672,1.26-0.111,0.762-0.031,1.591c-0.024,0.015-0.043,0.024-0.067,0.04
		c-2.925,1.829-3.656,4.845-4.387,3.291c-0.732-1.554-1.462-2.496-2.925-0.7c-1.462,1.797-1.919,0.28-2.103,1.77
		c-0.183,1.489,0,2.13,1.097,1.581c1.097-0.549,0.822,0.056,0.548,1.582s-0.538,1.674,0.919,0c1.457-1.673,3.103-3.5,2.372-1.582
		c-0.732,1.919,2.604-0.746,2.193,0.64c-1.006,3.382-1.006,2.9-2.377,4.146c-1.371,1.246-4.468-0.612-2.188,1.323
		c2.28,1.935,0.817,1.857,2.828,0.57c0.73-0.467,1.048-0.833,1.151-0.977c-0.099,0.185-0.341,0.774-0.42,1.981
		c-0.182,2.827-0.452,1.608,1.374,0.664c1.825-0.945-1.648-1.95,1.825-0.945c3.474,1.006,2.011,1.619,3.2-0.241
		c1.188-1.861,3.656-5.816,2.742-2.376c-0.914,3.44-1.544,5.281,1.422,2.898c2.966-2.384,0.915-0.19,1.3,1.182
		c0.386,1.371,0.661,3.572,1.666-0.088c1.005-3.66,2.011-6.047,3.016-3.346c1.006,2.702-0.182,1.397,1.555,0.816
		c1.736-0.582,0.895,0.897,1.91,1.528c1.015,0.632,0.466,0.354,1.289-1.746c0.822-2.101,1.097-2.582,2.285-1.245
		c1.189,1.338,0.66,4.104,1.427,2.721c0.768-1.383,0.967-1.133,1.37-2.721c0.402-1.587,4.516-1.678,2.596-2.41
		c-1.919-0.731-3.691-0.364-2.596-1.097c0.343-0.229,0.59-0.409,0.8-0.561c1.867,0.421,3.625,1.188,5.263,2.377
		c0.702,0.513,1.423,1.016,2.153,1.509c2.797,1.895,4.56,4.934,5.043,8.261c0.121,3.544,0.742,29.803-6.37,52.424h17.625
		c-3.23-9.845-4.52-27.968-5.008-43.279c0.028-3.217-0.014-8.038-0.078-12.814c1.239-0.9,2.511-1.619,3.804-2.084
		c2.345-0.706,4.779-1.503,7.152-2.285c2.576-0.9,5.164-2.284,7.515-3.739c2.569-1.439,6.871-0.998,9.591,1.221
		c1.685,1.347,2.552,3.268,3.688,5.008c-0.54,2.196,0.557,2.206-2.055,1.78c-2.947-0.479-0.965,0.297-3.153,0.755
		s-0.206-1.92-2.537,0.206c-2.33,2.125-0.479,0.822-2.193,3.085c-1.714,2.262,1.028-1.44,2.331,0.342
		c1.303,1.783,2.399,0.069,1.92,2.4c-0.48,2.331,0.616-0.138,0.822,1.782c0.205,1.919,1.439,2.057-0.411,2.674
		c-1.851,0.616-0.892-0.274-0.138,2.194c0.754,2.467-0.96,3.152,1.783,3.564c2.742,0.412,0.306-1.297,3.204,0.617
		c2.899,1.913-0.806,0.959,2.349,2.056c0.344,0.12,0.604,0.194,0.817,0.246c-0.056,0.141-0.062,0.361,0.038,0.714
		c0.584,2.057-0.468,1.509,1.681,2.536c2.148,1.029-0.026,2.53,3.604,1.715c0.261-0.06,7.07,0.261,9.073-1.333
		c1.225,1.416,2.801,2.401,4.724,2.983c0.088,0.007,0.16-0.048,0.16-0.048c-1.03-0.6-2.104-1.219-3.085-1.92
		c-1.181-0.936-1.113-1.256,0.251-1.872c0.822-0.396,1.559-1.266,2.435-0.263c-0.017-0.498-0.002-0.972-0.002-1.599
		c-0.947,0.469-1.902,1.061-2.911,1.488c-0.355,0.202-0.699,0.288-1.009,0.259c0-0.001,0.001-0.003,0.001-0.005
		c0,0-0.293-0.602,0.235-0.789c0.534-0.188,0.949-0.573,1.139-1.107c0.142-0.403,0.694-0.796,2.113-1.006
		c3.702-0.548,4.25-0.411,3.496,1.098c-0.754,1.508,3.223,1.579,2.812,0.206c-0.411-1.372,0.548,0.137-0.617-2.058
		s-1.919-0.892-1.852-2.468c0.116-2.668,1.098-1.577,2.194,0c1.097,1.576,3.428,0.782,3.29,2.756
		c-0.137,1.975,1.303,4.168,1.44,1.632c0.137-2.536-1.098-4.388,0.616-3.153c1.714,1.233,4.114,5.833,3.908,3.465
		c-0.206-2.369,2.125-1.614,0.549-2.916c-1.577-1.303-4.114-0.549-2.194-2.126s2.536-2.262,0.138-1.851
		c-2.4,0.411-1.783,0.822-2.605-1.166c-0.822-1.987,0.343-1.851-1.166-2.673c-1.508-0.823-3.29-1.44-1.097-2.263
		c2.194-0.822,2.537-1.646,3.017,0s0.96,3.839,1.92,1.097s0.343-5.073,1.303-3.222c0.959,1.851,0.686-0.298,1.987,1.188
		c1.303,1.485,2.468-0.434,0.343-2.354c-2.125-1.919,0.617-1.371-2.125-1.919c-2.743-0.549-2.468-3.085-2.674-3.085
		c-0.343,0-0.137,1.965-1.508,0.502c-1.292-1.377,0.211-1.349-2.13-0.99c1.299-0.511,2.058-1.031,1.782-1.518
		c0,0-2.438-0.486-0.331-1.236c0,0-0.842-2.059,0.983-1.966c0,0,1.063-0.119,1.402,0.527c0.085-0.206,0.387-0.446,1.221-0.537
		c0,0,1.311-0.505,0.843,0.338c0,0,0.857,0.468,0.663-0.796c0,0,1.932-0.328,1.946-0.937c0,0-1.064,0.843-0.924,0
		c0,0-1.357-1.335-0.093-1.932c0,0-2.629-1.299-2.696-0.362c-0.067,0.936-0.913,0.983-0.911-0.047
		c0.001-1.03-0.326,0.703-1.31-0.047c-0.984-0.749-1.312-0.234-1.312-1.452s0.936-2.085-0.234-1.98
		c-1.171,0.107-0.703,1.137-1.171,0.107c-0.469-1.031-0.094-0.094-1.779-0.281c-1.687-0.188-1.546-0.493-2.857,0.174
		c-1.312,0.668-0.656-0.128-1.124-1.58s-1.592-1.274-1.826-1.128c-0.234,0.146,0.749,0.66,0.375,1.738
		c-0.375,1.077-0.562,1.873-1.593,1.732c-1.03-0.141-0.328,0.282-1.873-0.046c-1.546-0.328-1.826,0.702-2.247,0.842
		c-0.327,0.108-1.429,0.738-2.045,0.505c-0.023-0.036-0.063-0.064-0.129-0.075c-0.116-0.082-0.215-0.193-0.263-0.382
		c-0.28-1.124-1.17-2.342-1.779-1.405c-0.608,0.937,0,0.163-1.218-0.2c-1.218-0.362-2.061-0.362-1.357,0.621
		c0.702,0.984,2.341,0.047,0.608,1.313c-1.732,1.264-2.343,1.568-1.242,1.955c1.102,0.387-0.304,0.106,1.617,0.246
		c0.178,0.013,0.329,0.024,0.481,0.036c0.409,1.008,0.812,1.772,1.049,2.365c-1.077-0.411-1.992-0.599-1.766-0.106
		c0.262,0.567,1.212,1.174,0.094,0.876c-0.122-0.466-0.312-0.78-1.026-0.251c-0.361-0.041-0.463,0.062-0.361,0.303
		c-0.095,0.086-0.188,0.169-0.297,0.278c-0.693,0.692-1.297,1.351-1.826,1.908c-1.687-0.229-3.365-0.458-5.045-0.716
		c-0.71-0.086-2.308-1.889-2.148-2.564c-0.002-0.273,0.455-0.666,0.745-0.705c1.274-0.171,2.61-0.175,3.996-0.373
		c-1.306-0.334-2.602-0.927-3.846-0.833c-1.671,0.058-2.957-0.577-4.313-1.417c-1.479-0.956-3.242-1.597-4.991-2.287
		c-0.696-0.298-1.064-0.524-0.681-1.215c1.827-3.448,3.624-6.819,5.502-10.096c1.095-2.038,1.977-2.483,4.209-1.874
		c2.225,0.697,4.382,1.624,6.464,2.613c0.46,0.227,0.793,1.099,0.777,1.753c0.111,1.026-0.077,2.131-0.142,3.162
		c0.091-0.001,0.208,0.02,0.317,0.073c0.158-0.502,0.328-1.035,0.385-1.498c0.098-0.569,0.153-1.122,0.205-1.668
		c0.207-0.788,0.613-0.896,1.326-0.726c1.852,0.295,3.723,0.463,5.602,0.681c2.317,0.252,3.59,1.723,4.344,3.783
		c0.146-0.11,0.248-0.151,0.356-0.188c-0.651-1.201-1.292-2.497-1.993-3.949c4.497-0.045,8.988-0.617,13.232,1.917
		c-1.339-1.594-3.263-1.925-5.401-2.707c1.554-1.186,2.831-2.063,4.145-3.014c-0.68,0.201-1.458,0.435-2.114,0.773
		c-0.814,0.398-1.447,1.148-2.229,1.39c-1.065,0.355-2.198,0.596-3.32,0.533c-2.866,0.049-5.777,0.212-8.551-0.183
		c-1.96-0.258-3.838-1.311-5.743-2.031c-0.102-0.05-0.107-0.942-0.038-0.99c0.709-0.277,1.468-0.475,2.131-0.457
		c1.442,0.04,2.826,0.195,4.246,0.005c-1.783-0.252-3.59-0.526-5.386-0.657c-0.394-0.103-0.873,0.06-1.214,0.292
		c-1.113,0.822-2.091,0.649-3.284,0.015c-0.371-0.197-0.758-0.364-1.141-0.54c0.218,0.03,0.441,0.094,0.694,0.207
		c1.098,0.484,4.022-1.703,2.65-2.254c-1.37-0.552,2.742-1.74,3.475-1.648c0.731,0.092,1.554-1.236,2.65-1.075
		s2.164-1.814,1.082-2.609s1.021-1.8,1.751-1.435c0.731,0.365,3.932,0.044,2.926-0.572c-1.006-0.617-1.92-0.068-1.371-1.896
		c0.236-0.791,0.41-1.384,0.596-1.843c0.011-0.002,0.021-0.005,0.032-0.008c3.544-0.822,6.825-0.003,9.837,1.88
		c1.879,1.233,3.945,2.07,6.415,2.362c-2.351-1.068-4.387-2.071-6.521-3.042c0.03-0.266,0.028-0.258,0.059-0.525
		c0.979-0.186,1.953-0.338,2.939-0.521c0.924-0.252,1.807-0.443,2.712-0.66c-0.065-0.123-0.089-0.261-0.107-0.406
		c-1.134,0.331-2.271,0.65-3.461,0.817c-1.862,0.28-3.627-0.008-5.429-0.588c-1.556-0.412-3.198-0.614-4.889-0.836
		c1.195-0.769,3.18-2.426,1.748-3.029c-1.737-0.731-0.549-2.194-2.469-0.914c-1.919,1.28-3.381,1.737-3.565,0.914
		c-0.182-0.823-1.096-2.241,0.093-2.4c0.652-0.087,0.093-0.417-0.364-0.829h0.003c1.555,0,3.291-0.535,3.839-1.456
		c0.549-0.921,0.366-1.388,1.646-0.972c1.279,0.417,3.655,1.71,5.483,0.972s2.377-1.069,3.474-0.583
		c1.098,0.485,4.022-1.702,2.651-2.254c-1.371-0.551,2.741-1.74,3.473-1.648c0.731,0.091,1.555-1.236,2.651-1.075
		c1.098,0.161,2.164-1.814,1.081-2.609c-1.081-0.794,1.021-1.8,1.753-1.434c0.73,0.365,3.93,0.043,2.925-0.572
		c-1.006-0.616-1.92-0.067-1.371-1.896c0.548-1.828,0.752-2.651,1.564-3.016C260.801,116.244,264.092,113.958,262.354,113.227z
		 M244.387,87.075c0.695,0.324,1.084,0.444,1.295,0.439c-0.078,0.11-0.157,0.223-0.238,0.341c-1.462,2.142-2.01-0.679-2.741-0.405
		c-0.003,0-0.007,0-0.009,0.001C242.627,86.606,241.974,85.951,244.387,87.075z M171.886,74.832c-0.708,0.92,0.644,1.91,0.644,1.91
		s1.124-1.485,0.346,0c-0.112,0.212-0.185,0.391-0.239,0.552c-0.338-0.035-0.654-0.378-0.991-1.085
		c-0.471-0.994-0.829-2.003-1.054-3.066c0.08-0.025,0.147-0.053,0.232-0.077c1.981-0.566,1.626-1.343,2.327,0
		C173.85,74.408,172.593,73.913,171.886,74.832z M133.447,88.55c0.201,0.088,0.419,0.179,0.663,0.271
		c0.056,0.021,0.099,0.042,0.149,0.062C133.966,89.06,133.685,88.772,133.447,88.55z M129.021,142.702
		c-0.06-0.076-0.068-0.212,0.056-0.471C129.075,142.354,129.056,142.509,129.021,142.702z M129.39,97.992
		c-0.03-0.309,0.017-0.693,0.175-1.058C130.387,97.661,130.087,97.817,129.39,97.992z M139.155,96.711
		c-0.513,0.013-1.046-0.106-1.609-0.354C138.343,95.348,138.994,94.968,139.155,96.711z M137.333,96.637
		c0.075,0.044,0.146,0.087,0.217,0.128c-0.098,0.128-0.136,0.228-0.239,0.349c-0.084-0.031-0.168-0.064-0.252-0.096
		C137.151,96.886,137.243,96.759,137.333,96.637z M135.836,98.002c0.292-0.125,0.576-0.288,0.827-0.52
		c0.847,0.205,1.686,0.224,2.512,0.06c-0.019,0.174-0.062,0.285-0.125,0.364c-0.243-0.265-1.444,0.672-2.579,1.022
		C135.061,99.366,135.482,99.036,135.836,98.002z M137.949,110.827c-0.282,0.104-0.477,0.241-0.631,0.382
		c-0.074-0.393-0.167-0.844-0.278-1.404c-0.529-2.635,1.143-0.713,2.642-1.895c0.991-0.78,0.839-0.898,0.287-1.506
		c0.334-0.075,0.668-0.11,1.001-0.1c-0.02,0.422,0.081,0.931-0.004,1.301c-0.205,0.891,0.617,1.439,0,2.605
		C140.349,111.375,139.252,110.347,137.949,110.827z M140.436,135.577c0.075-0.302,0.216-0.585,0.419-0.81
		C140.683,135.186,140.548,135.438,140.436,135.577z M141.467,133.378c-0.272-0.485-0.941-1.06-1.861-1.834
		c-0.325-0.273-0.522-0.483-0.626-0.659c0.562-0.655,2.602,0.336,2.602,0.336c-0.435,0.763-0.563,1.151,0.227,1.555
		C141.716,132.913,141.605,133.104,141.467,133.378z M146.51,103.238c-0.171,0.218-0.363,0.458-0.609,0.733
		c-1.165,1.302-0.822,2.399-3.221,1.714c-0.612-0.175-1.008-0.192-1.265-0.109c-0.671-0.116-1.361-0.189-2.083-0.187
		c-0.052,0-0.106-0.007-0.158-0.008c-0.09-0.14-0.181-0.29-0.274-0.459c-1.167-2.15,0,0,0.871-1.13
		c0.87-1.131,0.759-1.024-1.796-1.167c-1.253-0.069-1.487-0.145-1.228-0.544c0.465,0.892,3.441,0.675,2.779-0.647
		c-0.754-1.508-0.207-1.646,3.496-1.097c1.42,0.21,1.972,0.602,2.114,1.005c0.189,0.535,0.604,0.919,1.139,1.108
		C146.798,102.636,146.516,103.228,146.51,103.238z M143.884,166.356c-0.346-0.014-0.526-0.16-0.642-0.347
		c0.318-0.1,0.679-0.199,1.102-0.293C144.66,166.155,144.629,166.387,143.884,166.356z M227.225,60.176
		c-0.255,0.91-0.463,1.089-1.014-0.168c-0.093-0.211-0.172-0.424-0.242-0.631C226.718,58.795,225.798,59.945,227.225,60.176z
		 M211.218,90.237c0.004-0.476,0.021-0.963,0.028-1.445c0.053-0.141,0.113-0.284,0.194-0.428c0.822-1.462,0.183-2.881,2.56-1.669
		c0.268,0.136,0.479,0.279,0.657,0.42c-0.092,0.734-0.198,1.467-0.393,2.185c-0.478,1.793-1.608,3.318-3.001,4.962
		C211.242,92.697,211.131,91.487,211.218,90.237z M202.714,84.388c0.109,0.125,0.244,0.259,0.408,0.412
		c1.28,1.188,1.006-1.145,0.731,2.17c-0.273,3.314,0.274,2.323,0.823,3.406c0.548,1.083,2.56,1.645,2.925,0
		c0.36-1.622,1.254-3.501,2.505-1.367c-0.206,2.595-0.416,5.179-0.704,7.758c-0.217,2.37-1.555,4.313-3.234,5.964
		c-1.345,1.326-2.74,2.523-4.097,3.809c-0.058,0.054-0.113,0.111-0.167,0.169c-0.387,0.419-0.763,0.847-1.141,1.272
		c-0.583-0.45-0.852-0.769-0.626-1.221c0.229-0.457,0.442-0.549-0.281-1.052c-0.263-0.182-0.308-0.303-0.304-0.367
		c0.346-0.158,0.909-0.35,1.872-0.65c2.751-0.858,3.857-0.624,4.644-3.78c0.789-3.156,3.805-0.871,1.52-4.526
		c-2.285-3.656-2.56-7.222-2.925-3.749c-0.336,3.19,0.016,4.907-1.907,3.822c0.044,0.011,0.088,0.025,0.132,0.036
		c0.204,0.105,0.463-0.128,0.731-0.25l0.052-0.292c-0.73-0.003-1.361-0.05-1.918-0.126c-2.382-1.449-4.422-1.474-2.905-3.282
		c1.61-1.919,4.286-1.778,2.344-3.473c-0.604-0.529-0.845-1.092-0.954-1.606c0.501-0.875,1.107-1.685,1.852-2.43
		C202.294,84.82,202.507,84.603,202.714,84.388z M200.773,110.752c-0.028-0.01-0.061-0.023-0.087-0.032
		c0.016-0.019,0.028-0.04,0.044-0.059C200.738,110.693,200.753,110.723,200.773,110.752z M200.258,108.543
		c-0.434,0.489-0.872,0.974-1.312,1.458c0.006-0.206,0.153-0.412,0.415-0.774C199.617,108.874,199.958,108.676,200.258,108.543z
		 M200.125,80.999c0.157,0.014,0.255,0.029,0.255,0.029c0.045-0.501,0.87-0.383,1.704-0.131c0.012,0.096,0.023,0.193,0.033,0.305
		c0.16,1.677-0.055,2.19,0.315,2.81c-0.744,0.808-1.517,1.591-2.326,2.411c-0.046-0.357-0.14-0.618-0.45-0.722
		C199.769,84.122,199.885,82.546,200.125,80.999z M196.633,82.605c0.29-1.331,1.712-1.608,2.72-1.633
		c-0.063,1.576-0.139,3.139-0.271,4.69c-0.074,0.007-0.146,0.011-0.233,0.026c-2.229,0.366-2.386,2.655-3.403-0.043
		c-0.737-1.95-0.563-2.348-0.958-2.797C195.472,82.438,196.633,82.605,196.633,82.605z M187.844,121.521
		c0.365-0.32,0.441-0.798,1.325,0c0.885,0.798,1.783,0.548,2.103,0.502c0.32-0.045,1.052-0.183,1.097,0.64
		c0.046,0.823,1.188-0.137,1.28-0.64c0.092-0.502-0.097-0.172,0.773,0.257c0.383,0.188,0.691,0.341,0.967,0.414
		c-0.112,0.649-0.229,1.298-0.354,1.941c-0.406,2.009-0.819,3.987-1.511,5.936c-0.441,0.066-1.221-0.905-1.6-0.64
		c-0.456,0.32-0.29,0.203-1.005-1.289c-0.361-0.753-0.495-1.008-0.653-1.089c-0.346-1.076-0.832-2.116-1.509-3.105
		c-0.561-0.846-1.164-1.673-1.777-2.496C187.362,121.817,187.692,121.655,187.844,121.521z M192.2,131.961
		c-0.228-0.536,0.214-0.505,0.907-0.394c-0.229,0.489-0.485,0.967-0.756,1.438c-0.052-0.021-0.097-0.031-0.151-0.058
		C191.193,132.445,192.52,132.719,192.2,131.961z M191.83,133.911c-0.07,0.124-0.133,0.25-0.201,0.375
		c-0.013-0.04-0.032-0.072-0.042-0.116C191.488,133.734,191.594,133.735,191.83,133.911z M178.33,83.813
		c0.019-0.39,0.195-0.899,0.407-0.996c0.61-0.35,1.098-0.764,1.498-1.226c0.006,0.65,0.436,1.169,0.883,1.618
		c-0.264,0.202-0.514,0.615-0.953,1.201c-1.097,1.462-1.005-0.415-1.005-0.415S178.815,83.849,178.33,83.813z M174.406,79.17
		c0.424,0.081,0.511-0.368,1.371-1.227c1.131-1.131,0.707,0.354,3.396,0.424c0.459,0.012,0.87,0.01,1.235-0.01
		c0.268,0.072,0.507,0.137,0.697,0.214c-0.389,1.196-0.976,2.295-2.142,3.048c-0.373,0.253-1.23,0.319-1.539,0.095
		C176.344,80.945,175.397,80.03,174.406,79.17z M176.556,123.843c0,0,0.137,0.969,1.005,0.374c0.868-0.594,0.229-1.417,1.234-1.051
		c1.005,0.366-0.731-2.057,0.96-1.645c1.69,0.411,0.274-0.915,1.736,0c1.378,0.861,2.067,0.504,2.753,0.078
		c0.054,0.073,0.106,0.146,0.159,0.218c0.753,1.034,1.493,1.949,2.069,2.947c0.659,1.108,1.155,2.243,1.5,3.403
		c-0.064-0.028-0.133-0.078-0.207-0.157c-0.594-0.64-1.096-0.365-2.285-0.138c-1.188,0.229-0.503,1.183-1.233,0
		c-0.73-1.182-1.143-1.371-1.143-1.371s0.537,0.305-1.143,1.508c-0.402,0.289-0.638,0.495-0.771,0.629
		c0.075-0.154,0.14-0.397,0.085-0.721c-0.182-1.097-1.69,0.366-3.059,0.239c-1.369-0.127-0.597,0.95-1.1,0.899
		c-0.362-0.037-0.656-0.152-1.167,0.208c-0.19-1.044-0.444-2.073-0.87-3.011c-0.216-0.453-0.455-0.897-0.684-1.345
		c0.124-0.063,0.207-0.098,0.207-0.098l-0.051-0.884C175.077,124.075,176.208,124.323,176.556,123.843z M174.938,105.314
		c0.009,0.067,0.022,0.132,0.032,0.199c-0.164-0.001-0.388-0.026-0.695-0.08C174.497,105.383,174.718,105.345,174.938,105.314z
		 M170.307,129.931c0.069-2.011,0.48-0.251,0.892-1.289c0.411-1.036,1.714,1.517,2.262,0.415c0.108-0.219,0.208-0.387,0.297-0.536
		c0.203,0.878,0.333,1.772,0.364,2.684c-0.095,0.065-0.201,0.139-0.342,0.234c-1.279,0.868-0.229,0.731-0.366,1.241
		c-0.136,0.509-0.457,0.862-1.507,0c-1.052-0.861-0.458-0.373-1.264,0.222c-0.808,0.594-0.336,0.959,0.219,1.508
		c0.557,0.548,0.222-0.183,0.689,1.051c0.033,0.086,0.046,0.143,0.067,0.211c-1.215-0.996-2.427-1.977-3.626-2.981
		c-0.63-0.528-1.035-1.259-1.221-2.053c0.116,0.067,0.243,0.11,0.382,0.115c1.166,0.046,1.219,2.937,1.508,1.463
		C168.951,130.742,170.24,131.941,170.307,129.931z M168.881,105.948c-0.041-0.172-0.082-0.343-0.123-0.516
		c0.028-0.001,0.043,0.004,0.074,0.001C169.465,106.703,169.329,106.232,168.881,105.948z M167.84,97.664
		c0.14-0.021,0.261-0.043,0.379-0.066c0.029,0.185-0.373,0.072-0.389,0.067C167.833,97.665,167.836,97.665,167.84,97.664z
		 M164.55,100.682c0.32-0.991,0.877-1.9,1.281-2.888c-0.158-0.018-0.325-0.025-0.407-0.028c1.46-0.934,0.281,0.03,1.832-0.044
		c-0.654,0.138-1.484,0.6-0.243,2.15c1.819,2.271,2,1.906,1.635,3.368c-0.303,1.214-0.841,1.978-0.29,2.153
		c0.024,0.136,0.048,0.27,0.071,0.405c-0.091-0.003-0.185,0.008-0.284,0.047c-0.914,0.365,0.347-0.914-1.609,0.365
		c0,0-1.224-0.182-1.224,0.824c0,0.85-0.853,0.106-0.811,1.013C163.777,105.748,163.747,103.3,164.55,100.682z M163.986,129.264
		c-0.029,0.058-0.06,0.116-0.086,0.174c-0.339-0.127-0.769-0.18-1.037-0.423c-0.037-0.031-0.075-0.061-0.113-0.091
		C163.094,128.914,163.547,129.162,163.986,129.264z M157.104,107.034c0.247-0.417,0.46-0.841,0.639-1.257
		c1.305-0.023,0.306-1.129,2.006-1.943c2.149-1.028,1.097-0.48,1.681-2.537c0.1-0.353,0.094-0.573,0.039-0.714
		c0.212-0.051,0.473-0.126,0.818-0.246c3.063-1.066-0.328-0.204,2.134-1.908c-0.421,2.345-0.873,4.771-1.322,7.248
		c-1.208-0.43-0.906-1.37-1.161-2.555c-0.149,2.173-0.957,0.559-1.512,0.688c-0.015,0.131-0.086,0.246-0.124,0.346
		c-0.007,0.078,0.036,0.265,0.086,0.284c1.701,0.968,2.612,2.535,3.29,4.208c0.052,0.115,0.101,0.234,0.15,0.352
		c-0.156,0.727-0.063,1.104-1.015,1.251c-0.894,0.138-0.724,0.386-0.629,0.704c-0.695-0.459-1.206-0.779-1.429-0.882
		c-1.373-0.631-1.554-1.713-2.583-2.194C157.145,107.399,155.705,109.387,157.104,107.034z M157.729,132.363
		c1.3-3.225,3.501,0.132,4.762,0.271c0.48,0.053,0.763-0.238,0.931-0.626c1.426,1.132,2.839,2.285,4.263,3.436
		c0.715,0.528,1.283,1.15,1.904,1.751c0.004,0.061,0.01,0.111,0.017,0.149c-0.995-0.188-1.979-0.33-2.959-0.435
		c0.123-1.305-0.242-1.975-2.738-1.249c-1.063,0.31-1.646,0.705-2.064,0.971c-0.453-0.007-0.907-0.01-1.359-0.011
		c-0.249-0.201-0.554-0.509-0.964-0.96C158.275,134.29,158.225,132.965,157.729,132.363z M162.761,156.358
		c-0.059-0.224,0.056-0.438,0.265-0.642C162.942,155.931,162.852,156.144,162.761,156.358z M162.237,153.148
		c-0.466-0.742-0.613-0.96-0.75-1.041c0.016-0.049,0.031-0.099,0.047-0.147l-0.831-0.313c-0.028,0.059-0.049,0.124-0.075,0.183
		c-0.192-0.092-0.43-0.221-0.74-0.418c-2.01-1.279-0.183-0.366,0.869-1.828c1.051-1.462,0.32,0.731,2.147,1.097
		c0.605,0.121,0.887,0.08,1.07-0.056c0.006,0.253,0.003,0.507-0.014,0.761c-0.077,0.855-0.171,1.69-0.351,2.497
		C163.213,154.056,162.958,154.296,162.237,153.148z M170.11,171.421c0,0.168-0.134,0.373-0.134,0.443
		c-1.103-0.292-2.189-0.55-3.27-0.838c-0.017-0.004-0.03-0.014-0.045-0.019c-0.101-0.229-0.324-0.487-0.655-0.754
		c-0.824-0.667,0.455-2.221,0.455-2.221l0.275-1.676c0,0-0.251-0.091-0.441-0.266c1.202-2.031,0.106-1.06,2.002-1.06
		c2.011,0,1.371-0.183,0.64-1.371c-0.403-0.656-0.58-1.059-0.1-1.137c0.827,0.403,1.366,1.248,1.345,2.402
		C170.146,167.058,170.146,169.289,170.11,171.421z M178.078,173.177c0.006,1.331-1.361,2.229-2.578,1.69l-0.027-0.013
		c-2.097-0.929-3.266-2.751-3.575-5.052c-0.204-1.098-0.24-2.196-0.24-3.364c-0.046-1.203-0.22-2.375-0.515-3.526
		c0.133,0.034,0.263,0.068,0.408,0.108c2.822,0.771,1.363-0.216-0.747-1.859c0.012-0.895,0.319-1.888,0.813-2.496
		c0.241-0.297,0.457-0.598,0.589-0.925c0.381-0.858,0.409-1.752,0.585-2.611c-0.655,1.069-1.345,2.132-2.027,3.23
		c-0.177,0.211-0.487,0.274-0.689,0.451c-0.135-0.31-0.346-0.549-0.346-0.858c-0.063-1.239,0.036-2.513,0.07-4.026
		c-0.274,0.76-0.478,1.379-0.583,1.929c-0.38,1.406-0.38,1.407-1.751,0.894h-0.001c1.305,0.739,1.563,1.938,1.793,3.169
		c-2.193-1.773-1.128-0.367-2.708-2.199c-1.655-1.919-0.722,0.549-3.139-0.731c-0.042-0.022-0.065-0.044-0.103-0.066
		c0.262-0.725,0.599-1.43,1.007-2.106c0.397-0.266,0.657-0.508,0.461-0.728c0.255-0.364,0.427-0.73,0.555-1.155
		c-0.203,0.169-0.372,0.38-0.683,0.584c-0.157-1.254-0.333-2.491-0.103-3.659c0.208-0.239,0.525-0.497,1.1-0.732
		c2.011-0.822,1.006,0.091,1.38-1.045c0.376-1.137,0.443-0.617,0-2.611c-0.441-1.994,0.814-1.208,0.814-1.208
		c0-0.232-0.586-0.689-1.271-1.18c0.546-0.447,0.448-0.784,0.448-0.784s-1.361-1.048-1-1.589c0.156-0.234,0.223-0.52,0.273-0.905
		c3.173-0.79,6.446,1.173,8.248,4.224c2.053,3.54,2.77,7.505,3.23,11.498c0.549,6.405,0.247,11.832,0.246,11.843
		C178.014,167.375,178.061,169.547,178.078,173.177z M179.544,148.714c-1.062-2.427-1.911-4.917-3.195-7.211
		c-0.003-0.007-0.006-0.013-0.009-0.019c0.155,0.038,0.281,0.125,0.666,0.106c0.712-0.035,0.178-0.81,2.214-1.514
		c2.035-0.704,2.109,0.56,2.992,0.22c0.884-0.339,0.756-0.174,0.573-0.997c-0.184-0.823,0.548,0.137,1.827-0.636
		c1.28-0.773,0.96,0.59,2.148-0.141c0.214-0.132,0.45-0.221,0.694-0.294c-0.486,1.586-1.196,3.081-2.438,4.358
		c-0.704,0.768-1.314,1.65-1.925,2.532c-1.012,1.514-2.008,3.061-3.113,4.732C179.766,149.385,179.682,149.017,179.544,148.714z
		 M204.752,163.213c-0.125,2.153-1.768,3.513-3.134,5.017c-1.105,1.189-2.384,2.03-3.758,2.686c-0.09-0.149-0.194-0.149-0.116,0.052
		c-2.106,0.986-4.428,1.545-6.708,2.196c-0.768,0.193-1.652,0.464-2.482,0.546c-1.245,0.186-1.59-0.201-1.152-1.365
		c0.471-1.583,1.173-3.099,1.809-4.646c0.505-1.485,1.031-2.904,1.609-4.353c0.257-0.708,0.61-1.424,0.86-2.099
		c0.244-0.679,0.416-1.302,0.604-1.962l-0.248-0.123c-0.194,0.395-0.316,0.734-0.457,1.11c-0.313-1.032-0.402-2.046-0.374-3.059
		c0.825-0.067,1.676-0.256,1.676-0.995c0-1.279,0.914,1.669,2.468,1.337s2.925,1.527,3.017,0.323
		c0.091-1.194,3.146,1.339,4.355,0.028C204.622,159.206,204.883,161.217,204.752,163.213z M202.983,157.61
		c0.555-0.648,0.865-0.985,1.29-1.147c-0.029,0.207-0.06,0.412-0.085,0.619C204.057,158.042,203.563,157.928,202.983,157.61z
		 M204.896,156.55c0.007-0.071,0.014-0.144,0.021-0.214c0.065-0.005,0.127-0.013,0.2-0.016
		C205.041,156.396,204.978,156.475,204.896,156.55z M207.211,160.122c-0.304,0.522-0.622,0.983-1.076,1.648
		c-1.121-2.138-0.878-3.864-0.195-5.475c1.456-0.073,2.978-0.589,3.485-1.441c0.549-0.921,0.366-1.389,1.646-0.972
		c0.042,0.013,0.093,0.034,0.137,0.049C209.719,155.877,208.403,157.948,207.211,160.122z M220.576,135.104
		c-1.37-0.091-1.37-0.365-1.553,1.097c-0.184,1.462-1.097,2.286-2.104,1.554c-1.005-0.731-3.107-0.457-2.102-1.645
		c1.006-1.189,0.64-1.097-1.006-0.549c-1.645,0.549-2.376,1.006-3.107,0.549s-1.169-0.227-1.637-0.662
		c-0.466-0.435-21.398,3-20.94,15.404c0,0-1.333,1.754-0.896,2.693c0.438,0.938-0.824-0.659-0.567,1.31
		c0.257,1.968-1.289,4.027,3.107,2.473c0.109-0.039,0.3-0.055,0.532-0.067c-0.139,1.341-0.292,2.709-0.445,4.07
		c-0.492,3.433-0.735,3.485-3.771,1.908c-0.146-0.072-0.248-0.122-0.391-0.02c0.408,0.336,0.941,0.69,1.375,0.986
		c1.104,0.634,1.291,1.434,0.634,2.49c-0.634,1.103-1.334,2.174-1.865,3.419c-0.314,0.637-0.567,1.336-0.744,2.039
		c-0.252,0.996-0.896,1.802-1.72,2.37c-0.021-1.309-0.045-2.531-0.063-3.651c0.028-2.219,0.062-3.505,0.062-3.505h-0.104
		c0-0.76-0.035-1.548-0.071-2.273l-0.973-11.05c-0.013-2.871,0.306-2.676,1.887-4.979c2.883-4.179,5.884-8.179,8.822-12.309
		c2.032-2.822,3.42-6.007,3.961-9.452c0.253-1.698,0.397-3.399,0.557-5.099c0.318,0.055,0.747,0.133,1.394,0.183
		c0.127,0.01,0.232,0.032,0.346,0.049c0.111,0.615,0.134,1.137-0.332,1.089c-1.152-0.118,0.239,1.308-0.766,2.609
		c-1.006,1.302,0,0.893,0.766,2.421c0.768,1.529,1.793-3.357,2.113-1.072c0.319,2.286,2.147,0.206,2.147,0.206
		c1.92,0.39,4.022-1.577,5.142,0.006c1.119,1.583,1.896-0.121,3.359-0.121c0.713,0,1.187,0.214,1.739,0.067
		c0.001,0.017-0.002,0.033-0.001,0.051c0,0-1.334,1.753-0.896,2.691s-0.825-0.658-0.567,1.311c0.257,1.969-1.288,4.027,3.107,2.472
		c0.549-0.194,3.107,0.171,3.107-1.108c0-1.28,0.915,1.669,2.469,1.337c0.404-0.086,0.794-0.023,1.153,0.094
		C221.634,135.09,221.495,135.165,220.576,135.104z M223.045,135.287c-0.043-0.085-0.062-0.167-0.092-0.25
		c0.369,0.157,0.609,0.163,0.646-0.313c0.028-0.387,0.372-0.38,0.862-0.241C224.023,134.946,223.49,136.177,223.045,135.287z
		 M224.051,136.292c0,0,1.271-0.604,0.938-1.638c0.501,0.176,1.071,0.384,1.604,0.458c0.006,0.147,0.01,0.283,0.017,0.449
		C226.609,135.561,223.685,138.211,224.051,136.292z M231.367,89.37c-0.641,2.285-1.736,0.366-3.017,0.731
		c-1.279,0.366-2.834,1.462-3.29,1.308c-0.458-0.155-0.914-0.942-0.914-0.942s0.183-2.286-0.823-2.468c-1.005-0.183,0,0-0.457,2.86
		c-0.153,0.958-0.121,1.44-0.063,1.665c-0.099-0.071-0.271-0.137-0.577-0.137c-1.371,0,0.64,1.371-0.823,2.914
		c-1.462,1.543-0.822,1.291-2.483,1.199s-1.813,1.462-1.172,3.372c0.64,1.91-0.183,2.295-1.28,1.943
		c-1.097-0.352-4.479,1.175-3.565,3.967c0.914,2.793-0.548,2.601-0.456,3.125c0.091,0.523-1.006,0.573-2.377,1.214
		c-1.371,0.641-0.621-2.28-1.617-0.641c-0.997,1.64-0.211-0.548-3.639-0.572c-3.427-0.024,1.417,0.389-2.422,1.029
		c-0.676,0.113-1.09,0.235-1.343,0.358c1.504-1.762,3.2-3.378,4.876-4.984c1.849-1.894,3.606-3.902,4.331-6.503
		c0.671-2.08,1.721-3.857,2.9-5.729c1.064-1.59,1.987-3.344,2.109-5.313c0.492,0.737,0.14,0.97,1.561-1.07
		c1.443-2.074,1.854-2.031,2.07-1.63c0.199-0.277,0.573-0.631,1.228-1.07c0.349-0.233,0.603-0.432,0.802-0.604
		c-0.044,0.84-0.769,2.666-1.212,2.507c-0.655-0.236-1.114-1.295-0.821,0.706c0.291,2.001-0.169,2.001,0.821,2.001
		c0.991,0,0.322-2.824,1.934-1.647c1.611,1.176,4.863-2.942,4.989-1.059c0.127,1.882,0.821,3.648,2.779,1.647
		c1.959-2,1.201-3.883,2.338-1.647c1.137,2.235,2.084-3.06,3.095,1.059c0.035,0.143,0.072,0.279,0.109,0.417
		c-0.795,0.716,0.536-0.299-1.854-0.68C230.088,86.214,232.007,87.085,231.367,89.37z"/>
	<path id="XMLID_2778_" fill="#070705" d="M241.239,105.781L241.239,105.781c-0.044,0.025-0.077,0.045-0.104,0.06
		C241.16,105.827,241.187,105.812,241.239,105.781z"/>
</g>
</svg>
