<?xml version="1.0" encoding="utf-8"?>
<!-- Generator: Adobe Illustrator 16.0.0, SVG Export Plug-In . SVG Version: 6.00 Build 0)  -->
<!DOCTYPE svg PUBLIC "-//W3C//DTD SVG 1.1//EN" "http://www.w3.org/Graphics/SVG/1.1/DTD/svg11.dtd">
<svg version="1.1" id="Layer_1" xmlns="http://www.w3.org/2000/svg" xmlns:xlink="http://www.w3.org/1999/xlink" x="0px" y="0px"
	 width="350px" height="350px" viewBox="0 0 350 350" enable-background="new 0 0 350 350" xml:space="preserve">
<path id="XMLID_8_" fill="#404041" d="M261.843,220.585c0.553-0.563,0.96-1.218,0.988-2.051c0.071-2.017-1.939-3.104-3.478-3.85
	c-1.846-0.895-3.791-1.398-5.742-1.942c-0.574-0.471-1.1-0.893-1.547-1.245c0.413-0.041,0.82-0.072,1.255-0.141
	c1.411-0.229,2.054-2.165,1.336-3.285c-1.32-2.059-3.054-3.326-5.058-4.343c0.003-1.37-0.836-2.814-2.358-3.551
	c-2.132-1.032-4.742-0.771-7.022-0.73c-0.105,0-0.208,0.003-0.314,0.005c-1.208-0.596-2.401-1.217-3.558-1.916
	c-0.323-0.342-0.649-0.66-0.973-1.01c0.339,0.137,0.649,0.298,1.004,0.421c1.706,0.595,2.8-0.875,2.716-2.288
	c1.426-1.089,1.759-2.781,1.494-4.506c2.787,0.205,5.068-0.907,4.037-4.881c-1.106-4.26-3.77-8.054-6.812-11.49
	c1.256-0.725,2.004-2.208,1.438-3.686c-0.146-0.376-0.379-0.708-0.661-1.015c2.669-0.478,3.921-1.494,4.179-2.824
	c9.005-2.274-2.306-12.185-6.746-15.735c0.088-0.1,0.184-0.171,0.268-0.289c1.354-1.873,0.137-3.853-1.333-5.202
	c-2.269-2.084-5.225-3.14-8.032-4.263c-1.178-0.471-2.306-0.991-3.414-1.539c1.152-0.03,2.228-0.756,2.188-2.129
	c-0.042-1.459-0.329-2.782-0.85-3.972c0.637-0.013,1.28-0.149,1.948-0.586c1.69-1.103,2.228-3.294,1.78-5.173
	c-0.833-3.478-4.254-6.646-7.659-9.161c2.74-0.363,3.741-1.392,3.724-2.728c9.982-1.687-5.774-13.201-5.774-13.201
	c-2.048-1.473-4.157-3.317-6.282-5.41c0.727-0.35,1.336-0.887,1.688-1.758c0.818-2.019-0.468-3.532-1.947-4.761
	c-4.939-4.099-9.774-8.074-14.365-12.381c1.058-0.357,1.907-1.068,2.188-2.388c0.53-2.497-2.117-4.102-3.684-5.479
	c-3.907-3.433-8.59-7.328-12.487-11.618c-2.379-3.909-3.96-6.415-3.96-6.415c-1.47-3.636-2.783-6.001-5.019-7.45
	c-2.236,1.449-3.548,3.814-5.018,7.45c0,0-1.583,2.506-3.96,6.415c-3.899,4.29-8.582,8.186-12.488,11.618
	c-1.566,1.378-4.213,2.982-3.683,5.479c0.281,1.319,1.129,2.03,2.188,2.388c-4.591,4.307-9.425,8.282-14.365,12.381
	c-1.479,1.229-2.765,2.742-1.946,4.761c0.353,0.871,0.962,1.408,1.688,1.758c-2.125,2.093-4.233,3.938-6.281,5.41
	c0,0-15.758,11.515-5.776,13.201c-0.017,1.336,0.983,2.364,3.724,2.728c-3.404,2.516-6.827,5.684-7.658,9.161
	c-0.449,1.879,0.088,4.07,1.779,5.173c0.669,0.437,1.312,0.573,1.947,0.586c-0.519,1.189-0.808,2.513-0.848,3.972
	c-0.039,1.373,1.036,2.099,2.188,2.129c-1.108,0.548-2.235,1.068-3.413,1.539c-2.808,1.123-5.765,2.179-8.033,4.263
	c-1.471,1.35-2.687,3.329-1.334,5.202c0.086,0.118,0.181,0.189,0.27,0.289c-4.441,3.551-15.752,13.461-6.747,15.735
	c0.259,1.33,1.512,2.347,4.178,2.824c-0.28,0.307-0.515,0.639-0.66,1.015c-0.565,1.478,0.182,2.961,1.438,3.686
	c-3.043,3.437-5.703,7.23-6.81,11.49c-1.032,3.974,1.247,5.086,4.036,4.881c-0.265,1.725,0.068,3.417,1.493,4.506
	c-0.083,1.413,1.01,2.883,2.717,2.288c0.352-0.123,0.665-0.284,1.004-0.421c-0.325,0.35-0.649,0.668-0.974,1.01
	c-1.157,0.699-2.351,1.32-3.558,1.916c-0.104-0.002-0.209-0.005-0.314-0.005c-2.28-0.041-4.89-0.302-7.021,0.73
	c-1.523,0.736-2.364,2.181-2.359,3.551c-2.003,1.017-3.738,2.284-5.059,4.343c-0.718,1.12-0.074,3.056,1.337,3.285
	c0.434,0.068,0.841,0.1,1.256,0.141c-0.449,0.353-0.975,0.774-1.549,1.245c-1.951,0.544-3.896,1.048-5.742,1.942
	c-1.54,0.746-3.55,1.833-3.479,3.85c0.03,0.833,0.436,1.488,0.989,2.051c-4.057,4.729-6.326,9.709-0.444,11.665
	c0.624,1.634,2.602,2.824,6.456,3.29c-1.014,1.052-1.693,2.293-1.167,3.825c0.573,1.665,1.844,2.125,3.235,2.066
	c-5.117,8.078-10.506,18.972-3.232,20.152c0.772,2.657,3.816,3.735,10.675,1.734c0.298,1.51,1.396,2.467,3.849,2.31
	c3.133-0.2,6.13-3.49,8.41-5.349c0.756-0.615,1.641-1.187,2.558-1.759c-0.803,1.324-1.556,2.706-1.868,4.055
	c-0.532,2.305,0.591,3.634,2.16,4.018c-0.707,6.128-0.326,11.571,3.449,11c1.041,3.815,4.261,4.313,11.69-3.241
	c0.534,0.494,1.202,0.857,2.081,0.973c3.179,0.42,5.102-2.914,6.521-5.211c0.858-1.389,1.618-2.832,2.313-4.307
	c0.458,7.697,1.8,16.313,5.557,15.57c2.052,4.714,5.793,4.399,12.567-10.018c0.5,1.715,2.417,3.273,3.846,3.889
	c0.039,0.126,1.205,0.216,1.205,0.337v29.795h17.499v-29.795c0-0.121-0.603-0.211-0.563-0.337c1.427-0.615,1.93-2.174,2.431-3.889
	c6.773,14.417,10.337,14.731,12.39,10.018c3.758,0.742,5.012-7.873,5.47-15.57c0.693,1.475,1.408,2.918,2.267,4.307
	c1.419,2.297,3.32,5.631,6.499,5.211c0.879-0.115,1.535-0.479,2.069-0.973c7.43,7.554,10.646,7.057,11.685,3.241
	c3.775,0.571,4.154-4.872,3.447-11c1.569-0.384,2.69-1.713,2.159-4.018c-0.312-1.349-1.065-2.73-1.868-4.055
	c0.918,0.572,1.8,1.144,2.557,1.759c2.279,1.858,5.277,5.148,8.41,5.349c2.454,0.157,3.551-0.8,3.85-2.31
	c6.857,2.001,9.902,0.923,10.673-1.734c7.277-1.181,1.886-12.074-3.231-20.152c1.392,0.059,2.663-0.401,3.234-2.066
	c0.528-1.532-0.152-2.773-1.165-3.825c3.853-0.466,5.832-1.656,6.457-3.29C268.169,230.294,265.9,225.314,261.843,220.585z"/>
</svg>
