<?xml version="1.0" encoding="utf-8"?>
<!-- Generator: Adobe Illustrator 16.0.0, SVG Export Plug-In . SVG Version: 6.00 Build 0)  -->
<!DOCTYPE svg PUBLIC "-//W3C//DTD SVG 1.1//EN" "http://www.w3.org/Graphics/SVG/1.1/DTD/svg11.dtd">
<svg version="1.1" id="Layer_1" xmlns="http://www.w3.org/2000/svg" xmlns:xlink="http://www.w3.org/1999/xlink" x="0px" y="0px"
	 width="350px" height="350px" viewBox="0 0 350 350" enable-background="new 0 0 350 350" xml:space="preserve">
<g>
	<g>
		<path fill="#09161C" d="M297.036,172.876c-3.381-1.603-13.992-6.354-22.039-9.256c-0.248,0.539-13.194-25.539-17.785-33.825
			c-1.25-2.252-4.341-2.549-8.257-2.556c-0.188,0-15.163-0.029-30.783-0.058l-30.82,89.688l26.02,0.045
			c0.176-0.894,0.611-2.916,1.13-4.423c4.945-14.387,21.188-26.018,36.286-25.994c10.719,0.02,17.969,5.915,19.509,14.479
			l22.293,0.039c3.584-10.43,7.646-22.243,7.646-22.241C300.234,178.773,301.563,175.025,297.036,172.876z M218.502,175.204
			c-0.115,0.334-0.97,0.483-1.612,0.48l-9.397-0.015c-0.647,0-1.123-0.153-1.006-0.486l1.792-5.218
			c0.116-0.333,0.928-1.167,1.572-1.165l9.398,0.016c0.645,0,1.161,0.835,1.047,1.17L218.502,175.204z M260.205,164.305
			l-44.549-0.074c-2.618-0.007-4.891-1.498-4.036-3.992l7.846-22.825c0.858-2.494,4.587-5.24,7.205-5.236
			c0,0,22.139,0.035,22.743,0.038c2.945,0.006,3.833,1.796,5.005,3.883c2.045,3.648,11.783,20.814,12.012,23.891
			C266.66,163.064,264.648,164.312,260.205,164.305z"/>
	</g>
	<polygon fill="none" stroke="#09161C" stroke-width="3" stroke-miterlimit="10" points="50.561,182.846 192.348,183.087 
		215.558,115.549 73.771,115.308 	"/>
	<line fill="#C9DBE2" x1="299.301" y1="176.732" x2="299.301" y2="176.732"/>
	<path fill="#09161C" d="M72.616,212.657c-1.112,3.238-1.419,6.308-1.035,9.073c1.041,7.485,7.185,12.697,16.393,12.712
		c9.205,0.017,18.922-5.165,25.101-12.64c2.287-2.76,4.09-5.829,5.204-9.069c4.126-12.01-2.748-21.768-15.356-21.79
		C90.313,190.922,76.744,200.646,72.616,212.657z M81.304,212.666c2.558-7.445,10.96-13.468,18.778-13.455
		c7.814,0.017,12.076,6.058,9.518,13.502c-2.562,7.451-10.968,13.472-18.784,13.464C82.999,226.159,78.742,220.114,81.304,212.666z"
		/>
	<polygon fill="#09161C" points="291.889,217.047 266.656,217.005 270.983,204.415 296.217,204.457 	"/>
	<g>
		<path fill="#09161C" d="M68.253,212.24c3.529-10.274,12.829-19.145,23.354-23.363l-28.098,0.019l-9.443,27.748l13.384,0.023
			C67.534,215.331,67.734,213.748,68.253,212.24z"/>
		<path fill="#09161C" d="M115.58,188.879c7.66,4.237,10.884,13.152,7.343,23.454c-0.519,1.508-1.422,3.137-2.238,4.421
			l71.471,0.126l9.619-27.992L115.58,188.879z"/>
	</g>
	<path fill="#09161C" d="M218.869,212.902c-1.113,3.24-1.421,6.312-1.033,9.079c1.037,7.483,7.18,12.694,16.39,12.711
		c9.208,0.014,18.922-5.168,25.104-12.642c2.285-2.762,4.084-5.83,5.198-9.068c4.128-12.012-2.742-21.771-15.353-21.791
		C236.568,191.169,222.997,200.893,218.869,212.902z M227.555,212.911c2.561-7.443,10.961-13.465,18.779-13.454
		c7.814,0.017,12.077,6.063,9.517,13.504c-2.558,7.45-10.967,13.471-18.783,13.46C229.253,226.406,224.995,220.364,227.555,212.911z
		"/>
</g>
</svg>
