<?xml version="1.0" encoding="utf-8"?>
<!-- Generator: Adobe Illustrator 16.0.0, SVG Export Plug-In . SVG Version: 6.00 Build 0)  -->
<!DOCTYPE svg PUBLIC "-//W3C//DTD SVG 1.1//EN" "http://www.w3.org/Graphics/SVG/1.1/DTD/svg11.dtd">
<svg version="1.1" id="Layer_1" xmlns="http://www.w3.org/2000/svg" xmlns:xlink="http://www.w3.org/1999/xlink" x="0px" y="0px"
	 width="350px" height="350px" viewBox="0 0 350 350" enable-background="new 0 0 350 350" xml:space="preserve">
<g>
	
		<ellipse transform="matrix(0.9055 0.4244 -0.4244 0.9055 90.8426 -57.5887)" fill="#09161C" cx="174.711" cy="175.152" rx="95.199" ry="107.836"/>
	<path fill="#FFFFFF" d="M312,190.683V177.42c0-0.248,0.695-0.497,0.678-0.743c-0.303-4.607-3.045-11.156-10.776-14.455
		c-2.422-1.033-10.246-4.276-17.401-6.808c-2.128-2.54-5.789-7.117-8.727-10.704c-4.547-5.553-9.206-11.296-11.813-14.343
		c-5.156-6.021-12.705-6.021-15.938-6.021l-16.604-0.046c-1.339-4.761-5.693-8.299-10.883-8.299H110.674
		c-0.775,0-1.533,0.078-2.265,0.228c-0.732-0.149-1.49-0.228-2.265-0.228H44.841c-5.835,0-10.715,4.476-11.273,10.285
		c-0.471,4.903,2.267,9.454,6.58,11.415c0.041,4.422,2.67,8.423,6.675,10.223c-0.43,4.831,2.268,9.348,6.586,11.311
		c0.046,4.982,2.707,9.441,7.634,10.805L98,180.446v2.462c0,6.025,5.383,10.938,11.32,11.291l0.383,14.652
		c0.02,6.241,5.421,11.148,11.663,11.148h6.196c5.215,9,14.592,13.934,24.748,13.934c10.157,0,19.534-4.934,24.746-13.934h46.877
		h4.531h12.234c5.214,9,14.59,13.932,24.745,13.932S284.974,229,290.189,220h15.289c6.255,0,10.521-4.788,10.521-11.043v-10.192
		C316,195.598,314,192.738,312,190.683z"/>
	<g>
		<g>
			<path fill="#09161C" d="M297.045,172.64c-3.039-1.296-12.464-5.137-19.456-7.481c-0.048,0.438-16.964-20.705-22.715-27.424
				c-1.564-1.826-4.532-2.063-7.561-2.063c-0.146,0-12.313-0.003-24.313-0.004V209h21.148c-0.101-1-0.301-2.62-0.301-3.846
				c0-11.68,9.469-21.51,21.145-21.51c8.292,0,15.465,5.355,18.93,11.355H301c0-8,0-17.582,0-17.58
				C301,177.42,301.115,174.377,297.045,172.64z M236,174.637c0,0.27,0.412,0.363-0.086,0.363h-7.271
				c-0.499,0-1.644-0.093-1.644-0.363v-4.236c0-0.272,1.145-1.401,1.644-1.401h7.271c0.498,0,0.086,1.129,0.086,1.401V174.637z
				 M266.38,166h-34.462c-2.026,0-4.918-1.472-4.918-3.499v-18.534c0-2.025,2.892-3.968,4.918-3.968c0,0,17.124,0,17.592,0
				c2.278,0,3.441,1.306,4.9,2.999c2.549,2.956,14.641,16.935,15.635,19.431C271.038,164.924,269.815,166,266.38,166z"/>
		</g>
		<rect x="109" y="127" fill="#09161C" width="110" height="56"/>
		<line fill="#C9DBE2" x1="299.904" y1="175.765" x2="299.904" y2="175.765"/>
		<path fill="#09161C" d="M134.2,205.231c0,2.63,0.578,5.123,1.61,7.367c2.793,6.073,8.927,10.293,16.051,10.293
			c7.121,0,13.256-4.22,16.048-10.293c1.033-2.244,1.611-4.737,1.611-7.367c0-9.751-7.906-17.661-17.659-17.661
			C142.107,187.57,134.2,195.48,134.2,205.231z M140.918,205.228c0-6.045,4.896-10.942,10.943-10.946
			c6.046,0.004,10.945,4.901,10.945,10.946c0,6.049-4.899,10.946-10.945,10.95C145.813,216.174,140.918,211.276,140.918,205.228z"/>
		<rect x="285" y="199" fill="#09161C" width="19" height="10"/>
		<g>
			<path fill="#09161C" d="M130.715,205.154c0-8.342,4.832-15.679,11.849-19.12l-21.717,0.245L120.917,209h10.353
				C130.981,208,130.715,206.38,130.715,205.154z"/>
			<path fill="#09161C" d="M160.727,185.877c7.05,3.428,12.094,10.911,12.094,19.277c0,1.226-0.083,2.846-0.372,3.846H227v-23.235
				L160.727,185.877z"/>
		</g>
		<path fill="#09161C" d="M247.332,205.229c0,2.632,0.58,5.124,1.613,7.368c2.791,6.071,8.926,10.292,16.05,10.292
			c7.121,0,13.256-4.221,16.048-10.292c1.033-2.244,1.61-4.736,1.61-7.368c0-9.752-7.904-17.662-17.658-17.662
			S247.332,195.477,247.332,205.229z M254.051,205.225c0-6.045,4.896-10.943,10.944-10.945c6.044,0.002,10.945,4.9,10.945,10.945
			c0,6.05-4.901,10.947-10.945,10.949C258.947,216.172,254.051,211.274,254.051,205.225z"/>
		<polygon fill="#09161C" points="44.392,127 96.884,138 51.024,138 96.884,149 57.654,149 96.884,159 64.285,159 105,170.574 
			105,127 		"/>
	</g>
</g>
</svg>
