<?xml version="1.0" encoding="utf-8"?>
<!-- Generator: Adobe Illustrator 16.0.0, SVG Export Plug-In . SVG Version: 6.00 Build 0)  -->
<!DOCTYPE svg PUBLIC "-//W3C//DTD SVG 1.1//EN" "http://www.w3.org/Graphics/SVG/1.1/DTD/svg11.dtd">
<svg version="1.1" id="Layer_1" xmlns="http://www.w3.org/2000/svg" xmlns:xlink="http://www.w3.org/1999/xlink" x="0px" y="0px"
	 width="350px" height="350px" viewBox="0 0 350 350" enable-background="new 0 0 350 350" xml:space="preserve">
<g>
	<g>
		<path d="M173.955,167.705c20.931-20.931,34.757-34.762,74.643-34.762c0,0,1.661,0.005,2.428,0.005
			c5.545,0,10.176-1.699,13.538-5.067c5.715-5.708,6.628-15.063,2.578-26.332c-3.578-9.965-10.741-20.644-20.167-30.07
			c-9.426-9.426-20.104-16.587-30.069-20.166c-11.279-4.041-20.628-3.131-26.332,2.577c-3.828,3.826-5.594,9.388-5.062,15.966
			c0,35.409-11.015,54.155-26.504,71.205l-4.566-4.565c-2.054-2.054-5.381-2.054-7.434,0c-2.054,2.053-2.054,5.38,0,7.434
			l4.761,4.761c-0.516,0.521-0.994,1.042-1.517,1.564l-1.54,1.54l-4.785-4.785c-2.054-2.054-5.381-2.054-7.434,0
			c-2.054,2.054-2.054,5.381,0,7.434l4.785,4.785l-3.08,3.08l-4.785-4.785c-2.053-2.054-5.38-2.054-7.434,0
			c-2.054,2.054-2.054,5.381,0,7.434l4.878,4.878c-18.129,19.072-21.748,47.88-9.379,70.836l-31.626,31.006l-0.509-0.509
			c-2.054-2.054-5.38-2.054-7.434,0s-2.054,5.38,0,7.434l21.029,21.028c1.026,1.026,2.372,1.541,3.717,1.541
			c1.345,0,2.69-0.515,3.717-1.541c1.667-1.667,1.91-4.143,0.869-6.126l30.685-30.686c23.808,15.431,55.875,12.475,76.192-7.849
			l31.584-31.583c15.088-15.084,15.088-39.635-0.031-54.749c-15.073-15.073-39.619-15.089-54.682-0.036l-49.131,48.168
			c-2.778-10.021-0.019-20.946,7.885-28.854L173.955,167.705z M198.008,61.324c1.319-1.319,3.444-1.976,6.14-1.976
			c2.608,0,5.75,0.621,9.205,1.858c8.533,3.065,17.836,9.354,26.188,17.707c8.354,8.353,14.643,17.656,17.707,26.188
			c2.521,7.019,2.476,12.753-0.118,15.345c-2.603,2.592-8.321,2.628-15.346,0.118c-8.531-3.065-17.835-9.354-26.188-17.707
			c-8.353-8.353-14.642-17.656-17.707-26.188C195.369,69.651,195.415,63.916,198.008,61.324z M202.388,176.073
			c10.98-10.982,28.857-10.992,39.88,0.031c10.987,10.986,10.987,28.862,0,39.85l-31.585,31.583
			c-16.281,16.291-41.646,19.087-61.143,7.669l8.957-8.957c15.166,6.736,33.34,3.481,45.188-8.39l31.543-31.542
			c7.121-7.121,7.121-18.714,0-25.835c-7.126-7.125-18.708-7.125-25.834,0L104.026,285.852l-6.74-6.739L202.388,176.073z
			 M166.685,238.061l50.144-50.144c3.019-3.019,7.937-3.019,10.966,0c3.023,3.023,3.023,7.942,0,10.966l-31.543,31.543
			C188.469,238.214,177.02,241.002,166.685,238.061z M137.626,224.839l-8.341,8.178c-8.743-18.896-5.063-41.861,9.975-56.903
			l18.425-18.426c17.11-17.11,31.644-34.526,36.483-65.117c3.727,6.073,8.392,12.119,13.993,17.72
			c5.552,5.551,11.539,10.185,17.559,13.896c-27.777,4.7-41.616,18.496-59.697,36.581l-19.714,19.715
			C134.243,192.548,131.061,209.896,137.626,224.839z"/>
	</g>
</g>
</svg>
