<?xml version="1.0" encoding="utf-8"?>
<!-- Generator: Adobe Illustrator 16.0.0, SVG Export Plug-In . SVG Version: 6.00 Build 0)  -->
<!DOCTYPE svg PUBLIC "-//W3C//DTD SVG 1.1//EN" "http://www.w3.org/Graphics/SVG/1.1/DTD/svg11.dtd">
<svg version="1.1" id="Capa_1" xmlns="http://www.w3.org/2000/svg" xmlns:xlink="http://www.w3.org/1999/xlink" x="0px" y="0px"
	 width="350px" height="350px" viewBox="0 0 350 350" enable-background="new 0 0 350 350" xml:space="preserve">
<path fill="#797979" d="M295.689,262.396H54.311V68.889c0-8.053,6.525-14.578,14.579-14.578h212.222
	c8.053,0,14.578,6.525,14.578,14.578V262.396z"/>
<polygon fill="#5E5F62" points="70.957,249.911 66.796,245.749 66.796,237.426 70.957,233.264 79.281,233.264 83.442,237.426 
	83.442,245.749 79.281,249.911 "/>
<polygon fill="#5E5F62" points="100.089,249.911 95.928,245.749 95.928,237.426 100.089,233.264 108.413,233.264 112.575,237.426 
	112.575,245.749 108.413,249.911 "/>
<polygon fill="#D1D4D1" points="70.957,241.587 66.796,237.426 66.796,229.103 70.957,224.94 79.281,224.94 83.442,229.103 
	83.442,237.426 79.281,241.587 "/>
<polygon fill="#D1D4D1" points="100.089,241.587 95.928,237.426 95.928,229.103 100.089,224.94 108.413,224.94 112.575,229.103 
	112.575,237.426 108.413,241.587 "/>
<path fill="#D1D4D1" d="M281.111,54.311h-60.229c-0.017,0.699-0.104,1.377-0.104,2.081c0,40.223,32.607,72.83,72.83,72.83
	c0.704,0,1.382-0.087,2.081-0.104V68.889C295.689,60.836,289.164,54.311,281.111,54.311z"/>
<circle fill="#95A5A5" cx="266.558" cy="83.443" r="16.647"/>
<path fill="none" stroke="#BDC3C7" stroke-width="2" stroke-linecap="round" stroke-miterlimit="10" d="M228.52,199.971
	c24.454-28.296,38.038-64.548,38.038-102.195V83.442"/>
<path fill="#ECF0F1" d="M229.103,195.809c-11.475,0-20.81,9.335-20.81,20.809v4.161h24.971v-24.97H229.103z"/>
<path fill="#3D324C" d="M145.868,66.796c-43.669,0-79.072,35.403-79.072,79.072s35.403,79.072,79.072,79.072
	s79.072-35.403,79.072-79.072S189.537,66.796,145.868,66.796z M145.868,162.515c-9.193,0-16.647-7.453-16.647-16.646
	s7.454-16.647,16.647-16.647s16.646,7.454,16.646,16.647S155.062,162.515,145.868,162.515z"/>
<g>
	<path fill="#ECF0F1" d="M270.719,183.323h8.324c2.301,0,4.161-1.864,4.161-4.161c0-2.298-1.86-4.162-4.161-4.162h-8.324
		c-2.301,0-4.161,1.864-4.161,4.162C266.558,181.459,268.418,183.323,270.719,183.323z"/>
	<path fill="#ECF0F1" d="M279.043,187.485h-8.324c-2.301,0-4.161,1.864-4.161,4.161c0,2.298,1.86,4.162,4.161,4.162h8.324
		c2.301,0,4.161-1.864,4.161-4.162C283.204,189.35,281.344,187.485,279.043,187.485z"/>
	<path fill="#ECF0F1" d="M279.043,199.971h-8.324c-2.301,0-4.161,1.864-4.161,4.161s1.86,4.161,4.161,4.161h8.324
		c2.301,0,4.161-1.864,4.161-4.161S281.344,199.971,279.043,199.971z"/>
</g>
<path fill="#484848" d="M54.311,262.396v18.715c0,8.053,6.525,14.578,14.579,14.578h212.222c8.053,0,14.578-6.525,14.578-14.578
	v-18.715H54.311z"/>
<g>
	<circle fill="#514368" cx="143.787" cy="73.038" r="2.081"/>
	<circle fill="#514368" cx="152.111" cy="73.038" r="2.081"/>
	<circle fill="#514368" cx="147.949" cy="77.2" r="2.081"/>
	<circle fill="#514368" cx="139.625" cy="77.2" r="2.081"/>
	<circle fill="#514368" cx="131.302" cy="77.2" r="2.081"/>
	<circle fill="#514368" cx="122.979" cy="77.2" r="2.081"/>
	<circle fill="#514368" cx="118.817" cy="81.362" r="2.081"/>
	<circle fill="#514368" cx="127.141" cy="81.362" r="2.081"/>
	<circle fill="#514368" cx="135.464" cy="81.362" r="2.081"/>
	<circle fill="#514368" cx="143.787" cy="81.362" r="2.081"/>
	<circle fill="#514368" cx="152.111" cy="81.362" r="2.081"/>
	<circle fill="#514368" cx="160.434" cy="81.362" r="2.081"/>
	<circle fill="#514368" cx="156.272" cy="77.2" r="2.081"/>
	<circle fill="#514368" cx="160.434" cy="73.038" r="2.081"/>
	<circle fill="#514368" cx="168.757" cy="81.362" r="2.081"/>
	<circle fill="#514368" cx="164.596" cy="77.2" r="2.081"/>
	<circle fill="#514368" cx="168.757" cy="73.038" r="2.081"/>
	<circle fill="#514368" cx="177.081" cy="81.362" r="2.081"/>
	<circle fill="#514368" cx="185.404" cy="81.362" r="2.081"/>
	<circle fill="#514368" cx="185.404" cy="89.685" r="2.081"/>
	<circle fill="#514368" cx="181.242" cy="85.523" r="2.081"/>
	<circle fill="#514368" cx="189.566" cy="85.523" r="2.081"/>
	<circle fill="#514368" cx="193.728" cy="89.685" r="2.081"/>
	<circle fill="#514368" cx="197.89" cy="93.847" r="2.081"/>
	<circle fill="#514368" cx="202.052" cy="98.009" r="2.081"/>
	<circle fill="#514368" cx="206.213" cy="102.17" r="2.081"/>
	<circle fill="#514368" cx="210.374" cy="106.332" r="2.081"/>
	<circle fill="#514368" cx="202.052" cy="106.332" r="2.081"/>
	<circle fill="#514368" cx="206.213" cy="110.494" r="2.081"/>
	<circle fill="#514368" cx="210.374" cy="114.655" r="2.081"/>
	<circle fill="#514368" cx="214.536" cy="118.817" r="2.081"/>
	<circle fill="#514368" cx="206.213" cy="118.817" r="2.081"/>
	<circle fill="#514368" cx="210.374" cy="122.979" r="2.081"/>
	<circle fill="#514368" cx="214.536" cy="127.14" r="2.081"/>
	<circle fill="#514368" cx="210.374" cy="131.302" r="2.081"/>
	<circle fill="#514368" cx="210.374" cy="139.625" r="2.081"/>
	<circle fill="#514368" cx="210.374" cy="147.949" r="2.081"/>
	<circle fill="#514368" cx="218.698" cy="131.302" r="2.081"/>
	<circle fill="#514368" cx="214.536" cy="135.464" r="2.081"/>
	<circle fill="#514368" cx="218.698" cy="139.625" r="2.081"/>
	<circle fill="#514368" cx="214.536" cy="143.787" r="2.081"/>
	<circle fill="#514368" cx="218.698" cy="147.949" r="2.081"/>
	<circle fill="#514368" cx="214.536" cy="152.111" r="2.081"/>
	<circle fill="#514368" cx="218.698" cy="156.272" r="2.081"/>
	<circle fill="#514368" cx="214.536" cy="160.434" r="2.081"/>
	<circle fill="#514368" cx="210.374" cy="156.272" r="2.081"/>
	<circle fill="#514368" cx="218.698" cy="164.596" r="2.081"/>
	<circle fill="#514368" cx="214.536" cy="168.758" r="2.081"/>
	<circle fill="#514368" cx="210.374" cy="164.596" r="2.081"/>
	<circle fill="#514368" cx="210.374" cy="172.919" r="2.081"/>
	<circle fill="#514368" cx="206.213" cy="177.081" r="2.081"/>
	<circle fill="#514368" cx="214.536" cy="177.081" r="2.081"/>
	<circle fill="#514368" cx="210.374" cy="181.243" r="2.081"/>
	<circle fill="#514368" cx="206.213" cy="185.404" r="2.081"/>
	<circle fill="#514368" cx="197.89" cy="185.404" r="2.081"/>
	<circle fill="#514368" cx="193.728" cy="189.566" r="2.081"/>
	<circle fill="#514368" cx="202.052" cy="181.243" r="2.081"/>
	<circle fill="#514368" cx="202.052" cy="189.566" r="2.081"/>
	<circle fill="#514368" cx="197.89" cy="193.728" r="2.081"/>
	<circle fill="#514368" cx="189.566" cy="193.728" r="2.081"/>
	<circle fill="#514368" cx="193.728" cy="197.89" r="2.081"/>
	<circle fill="#514368" cx="197.89" cy="202.051" r="2.081"/>
	<circle fill="#514368" cx="189.566" cy="202.051" r="2.081"/>
	<circle fill="#514368" cx="185.404" cy="206.212" r="2.081"/>
	<circle fill="#514368" cx="177.081" cy="206.212" r="2.081"/>
	<circle fill="#514368" cx="177.081" cy="214.536" r="2.081"/>
	<circle fill="#514368" cx="168.757" cy="214.536" r="2.081"/>
	<circle fill="#514368" cx="164.596" cy="210.374" r="2.081"/>
	<circle fill="#514368" cx="160.434" cy="214.536" r="2.081"/>
	<circle fill="#514368" cx="156.272" cy="218.698" r="2.081"/>
	<circle fill="#514368" cx="152.111" cy="214.536" r="2.081"/>
	<circle fill="#514368" cx="147.949" cy="218.698" r="2.081"/>
	<circle fill="#514368" cx="143.787" cy="214.536" r="2.081"/>
	<circle fill="#514368" cx="139.625" cy="218.698" r="2.081"/>
	<circle fill="#514368" cx="135.464" cy="214.536" r="2.081"/>
	<circle fill="#514368" cx="131.302" cy="218.698" r="2.081"/>
	<circle fill="#514368" cx="131.302" cy="210.374" r="2.081"/>
	<circle fill="#514368" cx="122.979" cy="210.374" r="2.081"/>
	<circle fill="#514368" cx="127.141" cy="214.536" r="2.081"/>
	<circle fill="#514368" cx="118.817" cy="214.536" r="2.081"/>
	<circle fill="#514368" cx="114.655" cy="210.374" r="2.081"/>
	<circle fill="#514368" cx="118.817" cy="206.212" r="2.081"/>
	<circle fill="#514368" cx="110.494" cy="206.212" r="2.081"/>
	<circle fill="#514368" cx="106.332" cy="210.374" r="2.081"/>
	<circle fill="#514368" cx="106.332" cy="202.051" r="2.081"/>
	<circle fill="#514368" cx="102.17" cy="206.212" r="2.081"/>
	<circle fill="#514368" cx="98.009" cy="202.051" r="2.081"/>
	<circle fill="#514368" cx="102.17" cy="197.89" r="2.081"/>
	<circle fill="#514368" cx="98.009" cy="193.728" r="2.081"/>
	<circle fill="#514368" cx="93.847" cy="197.89" r="2.081"/>
	<circle fill="#514368" cx="93.847" cy="189.566" r="2.081"/>
	<circle fill="#514368" cx="85.523" cy="189.566" r="2.081"/>
	<circle fill="#514368" cx="89.685" cy="185.404" r="2.081"/>
	<circle fill="#514368" cx="85.523" cy="181.243" r="2.081"/>
	<circle fill="#514368" cx="81.362" cy="177.081" r="2.081"/>
	<circle fill="#514368" cx="77.2" cy="172.919" r="2.081"/>
	<circle fill="#514368" cx="81.362" cy="168.758" r="2.081"/>
	<circle fill="#514368" cx="77.2" cy="164.596" r="2.081"/>
	<circle fill="#514368" cx="73.038" cy="160.434" r="2.081"/>
	<circle fill="#514368" cx="81.362" cy="160.434" r="2.081"/>
	<circle fill="#514368" cx="77.2" cy="156.272" r="2.081"/>
	<circle fill="#514368" cx="73.038" cy="152.111" r="2.081"/>
	<circle fill="#514368" cx="77.2" cy="147.949" r="2.081"/>
	<circle fill="#514368" cx="73.038" cy="143.787" r="2.081"/>
	<circle fill="#514368" cx="77.2" cy="139.625" r="2.081"/>
	<circle fill="#514368" cx="73.038" cy="135.464" r="2.081"/>
	<circle fill="#514368" cx="77.2" cy="131.302" r="2.081"/>
	<circle fill="#514368" cx="73.038" cy="127.14" r="2.081"/>
	<circle fill="#514368" cx="81.362" cy="127.14" r="2.081"/>
	<circle fill="#514368" cx="81.362" cy="135.464" r="2.081"/>
	<circle fill="#514368" cx="81.362" cy="143.787" r="2.081"/>
	<circle fill="#514368" cx="81.362" cy="152.111" r="2.081"/>
	<circle fill="#514368" cx="77.2" cy="122.979" r="2.081"/>
	<circle fill="#514368" cx="81.362" cy="118.817" r="2.081"/>
	<circle fill="#514368" cx="77.2" cy="114.655" r="2.081"/>
	<circle fill="#514368" cx="85.523" cy="114.655" r="2.081"/>
	<circle fill="#514368" cx="81.362" cy="110.494" r="2.081"/>
	<circle fill="#514368" cx="89.685" cy="110.494" r="2.081"/>
	<circle fill="#514368" cx="85.523" cy="106.332" r="2.081"/>
	<circle fill="#514368" cx="93.847" cy="106.332" r="2.081"/>
	<circle fill="#514368" cx="98.009" cy="102.17" r="2.081"/>
	<circle fill="#514368" cx="102.17" cy="98.009" r="2.081"/>
	<circle fill="#514368" cx="89.685" cy="102.17" r="2.081"/>
	<circle fill="#514368" cx="93.847" cy="98.009" r="2.081"/>
	<circle fill="#514368" cx="98.009" cy="93.847" r="2.081"/>
	<circle fill="#514368" cx="102.17" cy="89.685" r="2.081"/>
	<circle fill="#514368" cx="106.332" cy="93.847" r="2.081"/>
	<circle fill="#514368" cx="106.332" cy="85.523" r="2.081"/>
	<circle fill="#514368" cx="110.494" cy="89.685" r="2.081"/>
	<circle fill="#514368" cx="110.494" cy="81.362" r="2.081"/>
	<circle fill="#514368" cx="114.655" cy="85.523" r="2.081"/>
	<circle fill="#514368" cx="85.523" cy="172.919" r="2.081"/>
	<circle fill="#514368" cx="81.362" cy="185.404" r="2.081"/>
	<circle fill="#514368" cx="89.685" cy="193.728" r="2.081"/>
	<circle fill="#514368" cx="156.272" cy="210.374" r="2.081"/>
	<circle fill="#514368" cx="147.949" cy="210.374" r="2.081"/>
	<circle fill="#514368" cx="139.625" cy="210.374" r="2.081"/>
	<circle fill="#514368" cx="185.404" cy="197.89" r="2.081"/>
	<circle fill="#514368" cx="181.242" cy="202.051" r="2.081"/>
	<circle fill="#514368" cx="181.242" cy="210.374" r="2.081"/>
	<circle fill="#514368" cx="172.919" cy="210.374" r="2.081"/>
	<circle fill="#514368" cx="197.89" cy="102.17" r="2.081"/>
	<circle fill="#514368" cx="193.728" cy="98.009" r="2.081"/>
	<circle fill="#514368" cx="189.566" cy="93.847" r="2.081"/>
	<circle fill="#514368" cx="172.919" cy="85.523" r="2.081"/>
	<circle fill="#514368" cx="172.919" cy="77.2" r="2.081"/>
	<circle fill="#514368" cx="114.655" cy="77.2" r="2.081"/>
	<circle fill="#514368" cx="135.464" cy="73.038" r="2.081"/>
	<circle fill="#514368" cx="127.141" cy="73.038" r="2.081"/>
</g>
<path fill="#F3D55B" d="M145.868,108.413c-20.688,0-37.456,16.768-37.456,37.456c0,20.688,16.768,37.455,37.456,37.455
	c20.688,0,37.455-16.768,37.455-37.455C183.323,125.18,166.556,108.413,145.868,108.413z M145.868,158.354
	c-6.896,0-12.485-5.589-12.485-12.485s5.589-12.485,12.485-12.485s12.485,5.589,12.485,12.485S152.764,158.354,145.868,158.354z"/>
<path fill="#484848" d="M270.719,224.94c-2.301,0-4.161-1.864-4.161-4.162v-49.94c0-2.297,1.86-4.162,4.161-4.162
	c2.302,0,4.162,1.864,4.162,4.162v49.94C274.881,223.076,273.021,224.94,270.719,224.94z"/>
<path fill="#484848" d="M270.719,249.911c-2.301,0-4.161-1.865-4.161-4.162v-12.485c0-2.297,1.86-4.161,4.161-4.161
	c2.302,0,4.162,1.864,4.162,4.161v12.485C274.881,248.046,273.021,249.911,270.719,249.911z"/>
<rect x="262.396" y="220.778" fill="#ECF0F1" width="16.646" height="12.485"/>
<circle fill="#2C2F38" cx="145.868" cy="145.868" r="12.485"/>
</svg>
