<?xml version="1.0" encoding="utf-8"?>
<!-- Generator: Adobe Illustrator 16.0.0, SVG Export Plug-In . SVG Version: 6.00 Build 0)  -->
<!DOCTYPE svg PUBLIC "-//W3C//DTD SVG 1.1//EN" "http://www.w3.org/Graphics/SVG/1.1/DTD/svg11.dtd">
<svg version="1.1" id="Layer_1" xmlns="http://www.w3.org/2000/svg" xmlns:xlink="http://www.w3.org/1999/xlink" x="0px" y="0px"
	 width="350px" height="350px" viewBox="0 0 350 350" enable-background="new 0 0 350 350" xml:space="preserve">
<g>
	<path fill="#6A7E0D" d="M308.031,170.187c-1.681,0.462-2.051,3.117-2.304,4.453c-0.742,3.938-1.18,7.32-4.146,10.311
		c-2.756,2.78-7.176,3.665-10.908,4.011c-2.019,0.187-6.522,0.006-8.223-1.812c-0.054-0.384-0.33-0.731-0.834-0.831
		c-0.039-0.025-0.058-0.059-0.101-0.08c-4.543-2.32-17.185,5.838-9.448,9.734c10.99,5.535,25.586,6.604,35.615-1.47
		c4.286-3.448,5.018-9.836,5.175-14.913C312.934,177.121,312.51,168.955,308.031,170.187z"/>
	<path fill="#BAB115" d="M158.663,170.897c-0.52-0.205-1.056,0.076-1.356,0.509c-0.062,0.046-0.134,0.082-0.185,0.139
		c-3.264,0.402-5.99,2.864-8.414,4.942c-3.88,3.332-7.4,7.088-10.284,11.311c-5.319,7.794-8.731,17.405-11.469,26.383
		c-2.805,9.195-2.094,19.433,0.74,28.565c2.072,6.676,7.331,14.335,14.733,15.195c8.721,1.015,11.704-8.498,11.206-15.383
		c-0.342-4.743-1.369-9.432-2.108-14.121c-1.016-6.45-0.89-12.787,0.479-19.178c2.103-9.811,11.773-17.232,17.2-25.25
		C173.8,177.223,163.435,172.775,158.663,170.897z"/>
	<path fill="#BAB115" d="M140.883,174.686c2.737-1.422,6.434-2.84,5.622-6.559c-0.759-3.474-4.405-6.975-7.875-7.911
		c-1.354-0.365-1.995-0.271-3.036,0.694c-0.137,0.128-0.228,0.267-0.292,0.407c-9.166,2.182-16.579,8.529-23.401,14.837
		c-7.983,7.379-14.608,17.027-19.094,26.878c-4.483,9.847-8.404,20.741-7.581,31.719c0.334,4.456,1.386,8.89,3.999,12.582
		c1.978,2.796,5.631,6.217,9.333,6.186c10.065-0.081,12.247-11.647,13.519-19.463c1.733-10.646,1.794-21.151,5.553-31.428
		C121.812,191.196,129.92,180.384,140.883,174.686z"/>
	<path fill="#BAB115" d="M261.806,196.495c-2.327-2.943-4.538-5.741-7.873-7.574c-2.31-1.271-4.652-0.202-7.028,0.235
		c-0.264,0.05-0.468,0.237-0.626,0.464c-0.597-0.208-1.336,0.385-0.938,1.089c1.599,2.842,3.477,5.569,5.107,8.407
		c2.521,4.387,3.843,9.882,4.211,14.886c0.759,10.329-0.572,20.21-2.083,30.398c-1.078,7.272-1.752,15.103,3.117,21.21
		c3.444,4.321,11.238,6.506,15.684,2.289c5.352-5.08,5.877-12.997,6.481-19.929c0.818-9.39-1.622-18.663-4.285-27.587
		C271.076,212.015,267.233,203.365,261.806,196.495z"/>
	<path fill="#BAB115" d="M313.711,232.208c-2.708-9.435-7.744-19.397-13.697-27.159c-5.306-6.918-11.276-14.54-18.842-19.118
		c-3.59-2.172-7.284-1.706-11.192-1.669c-2.006,0.02-2.827,2.773-3.73,3.954c-0.553,0.719,0.201,1.752,1,1.744
		c0.181-0.002,0.362-0.005,0.545-0.007c8.649,4.429,13.307,16.004,15.752,24.73c3.077,10.987,3.859,21.7,3.87,33.047
		c0.006,6.633-0.271,15.816,7.536,18.395c7.422,2.451,14.771-1.48,18.101-8.322C316.86,249.975,316.037,240.313,313.711,232.208z"/>
	<path fill="#BAB115" d="M313.711,232.208c-2.708-9.435-7.744-19.397-13.697-27.159c-5.306-6.918-11.276-14.54-18.842-19.118
		c-3.59-2.172-7.284-1.706-11.192-1.669c-2.006,0.02-2.827,2.773-3.73,3.954c-0.553,0.719,0.201,1.752,1,1.744
		c0.181-0.002,0.362-0.005,0.545-0.007c8.649,4.429,13.307,16.004,15.752,24.73c3.077,10.987,3.859,21.7,3.87,33.047
		c0.006,6.633-0.271,15.816,7.536,18.395c7.422,2.451,14.771-1.48,18.101-8.322C316.86,249.975,316.037,240.313,313.711,232.208z"/>
	<path fill="#6A7E0D" d="M156.482,163.574c-2.128-7.911-4.041-15.654-5.478-23.711c0.075-0.237,0.021-0.51-0.13-0.686
		c-0.029-0.162-0.063-0.318-0.091-0.479c-0.254-1.474-2.561-1.087-2.553,0.345c0.001,0.241,0.001,0.481,0.003,0.722
		c-5.313,1.807-11.403,3.159-16.804,3.526c-7.012,0.477-14.132-0.518-20.14-4.334c-3.036-1.929-5.92-4.631-7.613-7.821
		c-1.403-2.643-1.657-5.874-2.222-8.762c-1.085-5.559,1.513-11.641,0.162-17.044c-0.099-0.395-0.477-0.831-0.896-0.897
		c-2.673-0.421-4.972,1.173-7.455,1.95c-2.453,0.767-6.99,1.217-8.932,2.965c-1.449,1.306-1.764,3.551-1.884,5.424
		c-0.301,4.668-0.193,9.469,0.119,14.136c0.498,7.475,2.387,15.572,5.999,22.167c3.381,6.168,9.474,11.313,15.392,14.898
		c13.816,8.367,31.07,12.017,46.933,8.646c1.69-0.359,5.979-1.118,6.995-2.853C158.979,169.903,156.975,165.407,156.482,163.574z"/>
	<path fill="#BAB115" d="M111.1,98.936c-0.836-4.138-3.187-7.793-5.922-10.951c-5.965-6.884-16.345-9.285-25.014-7.668
		c-5.425,1.01-10.299,3.78-15.789,4.774c-4.881,0.885-10.322,1.892-15.309,1.249c-2.217-0.287-4.508-0.774-6.717-0.962
		c-1.557-0.131-2.544-0.073-3.885,0.71c-2.111,1.232-2.888,3.583-3.355,5.932c-0.156,0.468-0.294,0.928-0.404,1.347
		c-0.996,3.845,0.034,8.062,1.917,11.443c1.963,3.523,5.45,6.187,8.787,8.309c4.189,2.663,9.146,5.561,13.953,6.907
		c9.835,2.752,19.037,4.664,29.257,3.879c7.683-0.59,17.664-4.516,20.486-12.436C110.489,107.578,111.952,103.15,111.1,98.936z"/>
	<path fill="#F6E1D0" d="M68.616,103.276c-1.163-0.173-2.25-0.27-3.432-0.196c-2.106,0.131-3.748-0.575-5.73-1.064
		c-3.592-0.886-7.71-2.94-9.966-6.027c-0.772-1.028-2.368-0.324-2.132,0.76c-0.026,0.057-0.068,0.108-0.075,0.171
		c-0.674,4.901,0.769,10.244,4.949,13.309c4.467,3.273,10.016,2.417,14.502-0.254C67.991,109.225,72.603,103.868,68.616,103.276z"/>
	<path fill="#36443B" d="M296.332,175.069c-1.061-1.758-2.842-3.249-4.157-4.826c-2.071-2.479-1.434-4.963-0.467-7.769
		c1.718-4.989,3.447-9.599,3.593-14.937c0.296-10.897-1.135-20.903-6.006-30.783c-4.428-8.984-11.921-16.346-20.059-22.015
		c-8.754-6.096-19.867-8.336-30.243-9.676c-11.756-1.517-23.138-1.585-34.6,1.902c-9.93,3.022-20.373,8.418-27.771,15.822
		c-8.507,8.517-15.627,18.804-27.75,22.237c-4.548,1.289-9.015,0.341-13.604,0.045c-4.044-0.261-9.565-0.692-12.92,2.069
		c-1.4,1.151-2.692,2.643-3.619,4.309c-1.982,2.766-2.516,6.218-2.345,9.707c0.224,4.545,1.978,8.919,4.206,12.829
		c2.716,4.769,7.09,8.074,10.701,12.094c3.272,3.642,7.461,6.105,11.405,8.93c4.601,3.295,9.278,6.082,14.516,8.256
		c11.124,4.614,22.105,9.02,33.691,12.43c22.39,6.59,46.173,10.034,69.548,7.546c4.803-0.512,9.607-1.03,14.337-2.023
		c5.364-1.127,10.639-3.968,15.364-6.645c3.596-2.035,5.897-4.848,7.565-8.577C299.477,182.064,298.43,178.543,296.332,175.069z"/>
	<path fill="#5B7866" d="M279.955,103.799c-3.273-3.379-6.918-6.412-10.719-9.06c-8.754-6.096-19.867-8.336-30.243-9.676
		c-4.848-0.626-9.63-0.982-14.382-0.967c-0.532,2.137-0.763,4.334-0.844,6.027c-0.326,6.901,2.548,13.817,6.593,19.268
		c8.257,11.119,22.725,15.459,35.441,9.773c6.164-2.757,11.159-7.686,13.682-14.044
		C279.653,104.692,279.807,104.248,279.955,103.799z"/>
	<path fill="#5B7866" d="M207.513,99.483c0.996-4.212,0.253-8.85-1.157-13.04c-0.654,0.176-1.308,0.324-1.962,0.522
		c-9.93,3.022-20.373,8.418-27.771,15.822c-2.634,2.638-5.135,5.444-7.694,8.165c3.578,3.588,9.101,5.514,14.349,5.509
		C193.771,116.454,204.979,110.187,207.513,99.483z"/>
	<path fill="#5B7866" d="M272.923,135.154c-5.909,8.808-1.905,22.123,8.375,25.78c3.197,1.136,6.654,1.963,10.141,2.357
		c0.086-0.27,0.174-0.541,0.27-0.817c1.718-4.989,3.447-9.599,3.593-14.937c0.232-8.546-0.626-16.54-3.345-24.358
		C284.398,124.26,276.735,129.47,272.923,135.154z"/>
	<path fill="#5B7866" d="M251.261,144.619c0.87-6.469-3.563-14.149-8.027-18.494c-4.688-4.562-12.104-6.09-18.404-5.16
		c-4.234,0.624-8.119,2.001-11.925,3.933c-2.027,1.028-3.239,2.257-4.186,3.854c-5.33,5.677-6.302,16.896-3.343,23.426
		c6.404,14.143,24.435,15.621,36.806,8.429C247.761,157.363,250.44,150.731,251.261,144.619z"/>
	<path fill="#5B7866" d="M183.101,147.84c-0.148-5.934-1.263-11.32-6.258-14.949c-4.174-3.034-10.061-3.265-14.886-2.063
		c-5.857,1.46-10.979,5.806-13.094,11.449c-0.586,1.566-0.748,3.173-0.586,4.742c-0.466,4.831,2.024,9.528,5.96,12.565
		c5.217,4.026,11.537,4.59,17.723,2.501C177.527,160.205,183.256,154.072,183.101,147.84z"/>
	<path fill="#5B7866" d="M231.07,179.95c-3.006,7.122-2.544,16.273,1.581,22.599c-0.055,0.211-0.033,0.448,0.105,0.685
		c0.074,0.124,0.166,0.24,0.242,0.363c9.143,0.671,18.328,0.613,27.452-0.357c2.577-0.274,5.151-0.559,7.716-0.908
		c4.716-8.823,1.034-21.095-6.246-27.829C253.496,166.708,235.831,168.666,231.07,179.95z"/>
	<path fill="#5B7866" d="M190.903,195.693c8.465,2.492,17.129,4.531,25.896,5.973c0.375-7.204-2.323-14.407-6.602-20.11
		c-7.94-10.578-22.988-10.982-32.194-1.906c-2.571,2.537-4.52,5.988-5.628,9.701C178.452,191.674,184.587,193.834,190.903,195.693z"
		/>
	<path fill="#6A7E0D" d="M305.806,242.966c-5.565,0.176-10.483,2.695-15.39,5.036c-1.036,0.494-2.049,1.096-2.997,1.791
		c0.03,6.346,0.509,14.012,7.533,16.332c7.422,2.451,14.771-1.48,18.101-8.322c2.063-4.241,2.76-9.021,2.601-13.801
		C312.403,243.134,308.9,242.869,305.806,242.966z"/>
	<path fill="#6A7E0D" d="M277.858,247.971c0.043-0.503,0.043-1.002,0.067-1.503c-4.784-1.113-10.268-1.178-12.925-0.873
		c-4.258,0.492-9.348,2.261-13.107,4.834c-0.346,5.387,0.259,10.739,3.8,15.182c3.444,4.321,11.238,6.506,15.684,2.289
		C276.729,262.819,277.254,254.902,277.858,247.971z"/>
	<path fill="#6A7E0D" d="M153.634,242.559c-0.266-3.669-0.938-7.305-1.571-10.933c-3.89-0.442-7.873-0.054-11.657,0.919
		c-4.272,1.098-9.515,3.739-13.492,7.371c0.242,0.952,0.493,1.9,0.782,2.83c2.072,6.676,7.331,14.335,14.733,15.195
		C151.149,258.956,154.132,249.443,153.634,242.559z"/>
	<path fill="#6A7E0D" d="M101.382,227.479c-5.845-0.222-11.375,1.63-16.253,4.69c0.009,0.86,0.034,1.721,0.099,2.581
		c0.334,4.456,1.386,8.89,3.999,12.582c1.978,2.796,5.631,6.217,9.333,6.186c10.065-0.081,12.247-11.647,13.519-19.463
		c0.227-1.398,0.424-2.794,0.605-4.186C109.177,228.269,105.302,227.627,101.382,227.479z"/>
	<path fill="#3F2322" d="M96.4,99.397c-1.15-0.873-2.954-1.025-4.214-0.364c-0.446,0.234-0.813,0.643-1.048,1.116
		c-0.944,1.147-1.656,2.395-1.217,3.95c0.787,2.78,4.359,3.415,6.611,2.137C99.259,104.688,98.549,101.025,96.4,99.397z"/>
	<path fill="#3F2322" d="M74.849,82.027c-1.15-0.873-2.954-1.025-4.214-0.364c-0.445,0.234-0.813,0.643-1.048,1.116
		c-0.943,1.147-1.656,2.395-1.216,3.95c0.786,2.78,4.358,3.415,6.611,2.137C77.708,87.319,76.999,83.656,74.849,82.027z"/>
	<g>
		<path fill="#643E39" d="M94.357,102.569c-0.019-0.065-0.062-0.121-0.093-0.179c-0.143-0.558-0.481-1.073-1.081-1.347
			c-0.558-0.253-1.155-0.25-1.638-0.006c-0.024,0.009-0.049,0.012-0.072,0.025c-0.063,0.031-0.108,0.083-0.165,0.123
			c-0.064,0.049-0.136,0.083-0.192,0.145c-0.381,0.376-0.569,0.95-0.626,1.477c-0.086,0.798,0.601,1.486,1.326,1.798
			c0.034,0.015,0.066,0.024,0.102,0.04c0.154,0.055,0.309,0.104,0.455,0.123c0.004,0,0.008-0.003,0.012,0
			c0.221,0.025,0.438,0.013,0.649-0.037c0.106-0.022,0.197-0.065,0.291-0.105c0.111-0.043,0.214-0.096,0.313-0.161
			c0.039-0.027,0.077-0.052,0.113-0.083C94.259,103.993,94.567,103.358,94.357,102.569z"/>
		<path fill="#F6E1D0" d="M93.456,101.974c-1.583,0-1.583,2.455,0,2.455C95.037,104.428,95.037,101.974,93.456,101.974z"/>
		<path fill="#F6E1D0" d="M96.827,101.656c-1.123,0-1.123,1.739,0,1.739C97.948,103.395,97.948,101.656,96.827,101.656z"/>
		<path fill="#F6E1D0" d="M95.646,104.36c-0.898,0-0.898,1.394,0,1.394C96.545,105.754,96.545,104.36,95.646,104.36z"/>
	</g>
	<g>
		<path fill="#643E39" d="M72.98,85.165c-0.017-0.065-0.062-0.12-0.092-0.179c-0.142-0.558-0.481-1.073-1.08-1.348
			c-0.56-0.253-1.156-0.25-1.639-0.006c-0.023,0.009-0.048,0.013-0.071,0.025c-0.065,0.031-0.11,0.083-0.167,0.124
			c-0.063,0.049-0.136,0.083-0.191,0.145c-0.381,0.376-0.569,0.95-0.626,1.477c-0.086,0.799,0.602,1.486,1.324,1.798
			c0.034,0.016,0.068,0.025,0.102,0.04c0.154,0.056,0.308,0.105,0.457,0.124c0.004,0,0.007-0.003,0.012,0
			c0.219,0.024,0.438,0.012,0.647-0.037c0.106-0.021,0.197-0.065,0.292-0.105c0.111-0.043,0.214-0.096,0.314-0.16
			c0.037-0.028,0.076-0.053,0.111-0.083C72.883,86.59,73.19,85.955,72.98,85.165z"/>
		<path fill="#F6E1D0" d="M72.079,84.57c-1.582,0-1.582,2.455,0,2.455C73.662,87.024,73.662,84.57,72.079,84.57z"/>
		<path fill="#F6E1D0" d="M75.451,84.252c-1.121,0-1.121,1.739,0,1.739C76.573,85.991,76.573,84.252,75.451,84.252z"/>
		<path fill="#F6E1D0" d="M74.271,86.957c-0.899,0-0.899,1.394,0,1.394S75.17,86.957,74.271,86.957z"/>
	</g>
	<path fill="#F38C6B" d="M88.198,111.056c-0.348-2.175-2.006-4.733-4.028-5.682c-1.994-0.934-3.757-0.883-5.757-0.02
		c-0.743,0.321-1.406,0.897-1.97,1.548c-0.097,0.077-0.194,0.152-0.293,0.236c-0.814,0.68-1.273,1.64-1.613,2.616
		c-0.601,1.733-0.049,3.915,0.971,5.367c2.125,3.026,6.369,5.459,9.941,3.197c0.891-0.563,1.77-1.398,2.192-2.382
		c0.253-0.587,0.504-1.081,0.622-1.688C88.5,113.021,88.397,112.296,88.198,111.056z"/>
	<path fill="#BAB115" d="M273.932,98.303c-1.5,4.278-3.403,7.831-7.916,10.705c-5.784,3.686-14.332,5.082-20.655,2.183
		c-6.979-3.199-11.469-7.725-13.668-15.271c-1.08-3.707-1.319-7.7-0.911-11.631c-0.729-0.043-1.46-0.084-2.188-0.112
		c-1.822,12.415,4.126,25.145,16.846,29.917c7.123,2.672,15.453,0.859,21.902-2.815c4.518-2.573,7.293-6.508,8.805-11.085
		C275.419,99.547,274.683,98.916,273.932,98.303z"/>
	<path fill="#BAB115" d="M203.276,87.337c-0.85,0.273-1.699,0.541-2.552,0.848c1.101,3.121,1.897,6.213,1.161,9.832
		c-1.101,5.405-5.913,9.244-10.899,10.863c-4.383,1.423-10.197,1.4-14.434-0.424c-1.265-0.544-2.372-1.239-3.374-2.069
		c-0.494,0.529-0.99,1.051-1.48,1.582c1.292,1.279,2.837,2.363,4.942,3.219c5.173,2.103,12.068,1.46,17.188-0.549
		C203.804,106.727,206.531,96.346,203.276,87.337z"/>
	<path fill="#BAB115" d="M293.343,127.866c-0.22-0.86-0.455-1.719-0.716-2.575c-7.726,1.833-14.734,7.202-16.394,15.08
		c-2.075,9.858,6.646,18.763,16.162,20.111c0.298-0.862,0.585-1.717,0.86-2.57c-2.611-0.788-5.251-1.431-7.664-3.001
		c-5.194-3.383-7.823-7.43-6.938-13.873C279.71,133.346,286.343,129.648,293.343,127.866z"/>
	<path fill="#BAB115" d="M169.683,135.492c-5.904-1.488-16.668,2.589-17.134,9.579c-0.003,0.042,0.011,0.077,0.015,0.116
		c-0.798,2.026-0.614,4.194,0.466,6.762c1.338,3.186,4.167,6.019,7.419,7.252c6.368,2.415,15.136,0.699,17.818-6.335
		C181.056,145.552,177.456,137.451,169.683,135.492z M176.119,151.183c-1.48,5.136-8,7.53-12.823,6.23
		c-3.227-0.871-5.678-2.599-7.502-5.416c-2.052-3.168-1.03-6.203-0.008-9.431c0.006-0.02,0.003-0.037,0.008-0.056
		c2.755-3.039,7.029-4.488,11.061-4.685C174.166,137.464,177.952,144.821,176.119,151.183z"/>
	<path fill="#BAB115" d="M258.594,177.3c-3.497-2.583-7.253-2.809-11.471-2.702c-7.165,0.182-12.117,7.32-12.748,13.775
		c-0.568,5.825,0.513,11.328,3.915,15.504c1.007,0.042,2.012,0.076,3.021,0.099c-0.817-0.874-1.598-1.786-2.2-2.913
		c-1.51-2.826-2.169-5.514-2.312-8.699c-0.291-6.562,2.072-12.097,8.409-14.616c7.78-3.091,14.478,2.572,16.966,9.527
		c1.005,2.811,1.154,5.824,0.94,8.772c-0.232,3.202-1.904,5.057-3.542,7.265c0.292-0.029,0.586-0.042,0.879-0.072
		c0.977-0.104,1.951-0.213,2.924-0.322c3.069-4.659,3.017-10.689,1.33-16.342C263.69,183.178,261.481,179.433,258.594,177.3z"/>
	<path fill="#BAB115" d="M211.519,200.707c0.653-2.542,0.671-5.281,0.226-8.342c-0.93-6.383-3.918-11.846-9.911-14.59
		c-9.569-4.384-23.66,2.363-26.179,12.803c0.828,0.307,1.659,0.608,2.49,0.908c3.835-8.34,11.763-15.028,21.608-11.694
		c8.274,2.801,10.64,12.331,8.902,20.341C209.608,200.33,210.563,200.522,211.519,200.707z"/>
	<path fill="#BAB115" d="M245.564,133.893c-2.823-5.309-8.807-8.253-14.482-9.262c-9.14-1.622-22.669,3.797-23.029,14.135
		c-0.41,2.368-0.397,4.858-0.259,7.032c0.368,5.74,4.534,10.453,9.001,13.552c4.766,3.307,12.153,2.797,17.423,1.483
		c5.056-1.26,10.303-4.803,12.093-9.923C248.343,145.103,248.495,139.405,245.564,133.893z M244.562,147.63
		c-2.28,10.826-15.337,13.003-24.315,10.361c-10.962-3.229-12.638-18.192-6.485-26.155c0.062-0.081,0.094-0.161,0.11-0.242
		c3.681-3.414,9.238-5.228,14.089-4.806c5.079,0.442,9.582,2.044,13.255,5.66C245.384,136.554,245.688,142.285,244.562,147.63z"/>
	<path fill="#BAB115" d="M298.645,192.999c-0.296-0.604-0.669-1.188-1.279-1.515c-0.828-0.44-1.845,0.722-1.047,1.357
		c0.333,0.265,0.521,0.726,0.723,1.094c0.203,0.375,0.649,0.519,1.049,0.428c0.168-0.039,0.281-0.13,0.41-0.239
		C298.828,193.839,298.818,193.356,298.645,192.999z"/>
	<path fill="#BAB115" d="M301.442,189.851c-0.622-0.82-1.475-1.449-2.54-1.294c-0.782,0.116-0.625,1.218,0,1.428
		c0.451,0.151,0.798,0.844,1.037,1.212c0.376,0.583,0.552,1.084,1.174,1.444c0.32,0.186,0.781,0.087,0.962-0.253
		C302.57,191.452,302.022,190.613,301.442,189.851z"/>
	<path fill="#BAB115" d="M302.277,186.26c-0.577,0.134-0.636,0.931-0.159,1.218c0.379,0.229,0.863,0.72,1.118,1.078
		c0.428,0.604,0.638,1.229,1.369,1.506c0.421,0.16,0.894-0.174,1.008-0.573C306.074,187.889,303.802,185.908,302.277,186.26z"/>
	<path fill="#BAB115" d="M307.763,184.633c-0.456-0.942-1.742-1.372-2.613-0.749c-0.248,0.179-0.389,0.594-0.105,0.823
		c0.364,0.298,0.801,0.499,1.044,0.905C306.74,186.694,308.301,185.748,307.763,184.633z"/>
	<path fill="#BAB115" d="M308.071,180.424c-0.239-0.093-0.483-0.131-0.722-0.216c-0.52-0.185-0.91,0.448-0.676,0.879
		c0.16,0.293,0.338,0.528,0.556,0.783C308.067,182.855,309.521,180.98,308.071,180.424z"/>
	<path fill="#BAB115" d="M308.557,177.22c-0.251-0.171-0.485-0.136-0.77-0.097c-0.698,0.094-0.656,1.121-0.088,1.361
		c0.003,0.003,0.005,0.006,0.008,0.009c0.27,0.23,0.676,0.278,0.94,0c0.021-0.022,0.043-0.046,0.064-0.067
		C309.071,178.05,308.97,177.501,308.557,177.22z"/>
	<path fill="#36443B" d="M269.409,261.899c-2.387-2.432-6.674-1.403-8.589,1.392c-1.696-1.477-3.037-2.3-5.933-1.804
		c-0.542,0.093-0.975,0.303-1.36,0.557c0.32,0.716,0.705,1.412,1.138,2.096c0.227-0.186,0.489-0.348,0.826-0.457
		c2.208-0.709,3.479,1.177,4.863,2.421c0.669,0.6,1.762,0.375,2.019-0.533c0.582-2.066,4.468-4.006,5.867-1.082
		c0.439,0.915,1.624,0.666,2.119,0c0.999-1.578,2.465-1.984,4.386-1.256c0.492-1.005,0.9-2.052,1.235-3.131
		C273.396,259.235,271.22,260.075,269.409,261.899z"/>
	<path fill="#36443B" d="M313.053,257.803c0.179-0.368,0.334-0.746,0.493-1.122c-0.309-0.238-0.64-0.458-0.998-0.655
		c-1.313-0.724-3.104-0.352-4.465-0.042c-1.256,0.287-1.876,1.257-2.443,2.26c-3.031-3.749-8.369-2.217-10.756,2.006
		c-1.526-1.229-2.862-1.905-5.319-0.725c-0.313,0.151-0.563,0.329-0.784,0.517c0.435,1.138,1.01,2.189,1.767,3.11
		c0.655-2.927,1.997-1.568,3.902,0.038c0.743,0.626,1.813,0.395,2.128-0.563c1.429-4.344,6.231-5.102,7.904-1.257
		c0.317,0.728,1.565,0.884,2.056,0.266c0.228-0.282,0.453-0.567,0.674-0.856c0.842-1.544,2.896-1.395,4.313-0.424
		C312.095,259.561,312.611,258.709,313.053,257.803z"/>
	<path fill="#36443B" d="M110.054,241.66c-1.189-0.413-2.765-0.181-3.864,0.378c-1.01,0.512-1.386,1.255-1.862,2.006
		c-1.213-1.196-2.874-1.909-4.695-1.15c-2.182,0.908-3.116,1.844-3.808,3.483c-2.39-1.47-5.059-0.956-6.684,0.824
		c0.031,0.043,0.054,0.088,0.084,0.131c0.424,0.599,0.938,1.225,1.499,1.841c1.137-1.455,2.828-1.987,4.812,0.188
		c0.662,0.724,1.827,0.307,2.095-0.554c0.728-2.328,3.656-5.246,5.567-2.047c0.447,0.746,1.411,0.816,2.034,0.262
		c1.494-1.332,2.993-2.712,4.342-2.555c0.328-0.863,0.626-1.745,0.882-2.646C110.321,241.77,110.194,241.708,110.054,241.66z"/>
	<path fill="#36443B" d="M147.805,247.267c-1.463-1.069-2.748-1.6-5.151-0.83c-2.234,0.716-2.343,2.48-2.655,4.241
		c-1.986-0.912-4.198-1.043-6.042,0.479c-0.383,0.316-0.691,0.783-0.942,1.308c0.595,0.685,1.23,1.324,1.899,1.915
		c0.628-1.878,3.15-2.117,5.264-0.649c0.748,0.519,1.605-0.06,1.89-0.769c0.374-0.93,0.239-1.769,0.399-2.762
		c0.715-4.435,4.295-0.471,5.134,0.184c0.712,0.557,1.947,0.484,2.18-0.575c0.525-2.384,2.222-3.612,3.776-3.469
		c0.102-0.956,0.139-1.901,0.115-2.818c-0.089-0.019-0.169-0.047-0.26-0.065C150.354,242.859,148.685,244.915,147.805,247.267z"/>
</g>
</svg>
