<?xml version="1.0" encoding="utf-8"?>
<!-- Generator: Adobe Illustrator 16.0.0, SVG Export Plug-In . SVG Version: 6.00 Build 0)  -->
<!DOCTYPE svg PUBLIC "-//W3C//DTD SVG 1.1//EN" "http://www.w3.org/Graphics/SVG/1.1/DTD/svg11.dtd">
<svg version="1.1" id="Layer_1" xmlns="http://www.w3.org/2000/svg" xmlns:xlink="http://www.w3.org/1999/xlink" x="0px" y="0px"
	 width="350px" height="350px" viewBox="0 0 350 350" enable-background="new 0 0 350 350" xml:space="preserve">
<path fill="#363F3A" d="M301.739,118.628c-0.369-1.615-1.17-2.971-2.399-4.066c-2.041-1.299-4.014,0.269-5.71-1.925
	c-0.307-1.139-0.996-1.93-2.064-2.373c-1.209-0.021-2.418-0.067-3.624-0.14c-0.864-0.214-2.512-0.911-3.295-1.412
	c-2.098-1.34-1.725-5.049-3.959-6.102c-0.716,0.931-1.538,2.563-2.676,3.076c-1.368,0.618-1.324-0.091-2.361-0.951
	c-0.359-0.297-0.928-0.578-1.202-0.881c-0.82-0.911-0.945-2.159-1.579-3.206c-0.936-1.543-1.461-1.43-1.775-3.591
	c-0.269-1.829,0.416-3.887-0.491-5.561c-0.66-1.218-2.048-2.074-3.645-2.609c-0.377-0.524-0.826-1.003-1.302-1.43
	c-0.21-0.187-0.398-0.361-0.578-0.531c1.131,0.038,2.302,0.198,3.344,0.104c0.695-1.625-1.606-2.048-2.485-2.628
	c-0.627-0.414-0.986-0.934-1.544-1.325c-0.695-0.484-1.605-0.595-2.486-0.73c-0.175-0.245-0.34-0.494-0.469-0.752
	c-0.466-0.937-0.464-1.291-0.454-2.503c0.013-1.824,0.2-3.744-0.7-5.396c-0.545-1.002-2.398-2.614-3.699-2.304
	c-0.767,0.183-1.169,1.326-1.844,1.811c-0.743,0.533-1.625,0.764-2.516,0.777c-0.548,0.008-0.949-0.141-1.272-0.377
	c0.414-0.233,0.81-0.49,1.173-0.784c-1.225,0.021-1.016-0.962-1.158-1.832c-0.243-1.491-0.55-1.446-1.192-2.914
	c-0.714-1.633-0.753-2.778-2.611-3.167c-0.946-0.197-2.118-0.046-3.104-0.183c-2.013-0.279-3.496-0.8-5.382-1.541
	c-1.801-0.707-2.26-2.413-3.709-3.332c-1.755-0.358-3.505-0.37-5.253-0.032c-1.591,0.23-3.188,0.332-4.794,0.304
	c-0.428-3.511-4.224,1.35-5.14,1.75c-0.732,0.321-1.308,0.18-2.071,0.469c-1.339,0.507-1.639,0.969-3.068,1.004
	c-0.578,0.014-1.17-0.174-1.69-0.178c-0.133-0.374-0.39-0.507-0.77-0.4c-0.256,0.227-0.454,0.493-0.594,0.798
	c-1.169,0.604-2.891,0.963-4.302,1.094c-0.057,1.754-3.119,3.35-3.965,1.375c-0.899,0.495-2.522,0.96-2.97,2.013
	c-0.203,0.475-0.012,1.201-0.114,1.741c-0.191,1.011-1.134,3.03-2.014,3.735c-0.804,0.644-1.885,0.625-2.848,1.065
	c-2.444,1.117-3.278,2.947-4.899,4.841c-0.921,1.078-1.121,0.639-2.596,0.774c-0.733,2.147,0.054,5.083-0.148,7.375
	c-3.427,0.63-6.843-1.823-10.232-2.334c-1.67-0.252-3.009-0.972-4.569-1.292c-0.366,0.619-1.296,1.658-2.167,2.795
	c-0.918-0.768-2.221-1.401-3.009-2.284c-0.915-1.024-0.529-2.431-1.365-3.641c-1.003-1.452-2.545-1.18-3.939-2.089
	c-1.623-1.059-2.082-2.332-3.182-3.853c-1.153-1.597-2.361-1.358-3.979-1.995c-0.766-0.301-2.071-0.607-2.477-1.417
	c-0.25-0.498-0.034-1.168-0.185-1.691c-1.692,2.848-3.498,2.292-6.133,1.55c-1.348-0.379-2.356-1.849-3.735-1.799
	c-1.544,0.055-2.188,1.619-3.127,2.564c-1.012,1.018-2.061,1.594-2.903,2.775c-0.976,1.369-1.544,2.576-3.37,2.868
	c-2.486,0.398-5.293-0.133-7.82-0.036c-5.369,0.207-6.637,8.274-1.423,9.876c0.947,0.291,2.051,0.246,2.851,0.778
	c-0.867,0.8-1.765,1.714-2.678,1.854c-1.626,0.248-3.039-1.507-4.067-2.509c-1.32-1.286-2.643-1.747-4.365-2.314
	c-1.926-0.634-3.688-2.382-5.33-0.485c-0.836,0.966-1.486,2.303-1.855,3.518c-0.356,1.174-0.002,2.582-0.462,3.654
	c-1.17-0.472-1.396-2.421-3.018-2.536c-1.29-0.092-1.771,1.146-2.473,2.087c-1.246,1.671-1.432,1.834-3.456,1.727
	c-1.607-0.084-1.984-0.979-3.426-1.302c-0.734-0.165-1.615,0.2-2.365,0.08c-0.56-0.091-0.994-0.419-1.526-0.532
	c-2.546-0.538-3.464,0.967-5.4,2.298c-2,1.375-2.498-0.939-4.501-0.483c-1.116,0.254-2.1,2.273-3.113,2.937
	c-0.979,0.641-2.173,0.553-2.989,1.333c-0.666,0.637-2.313,3.007-2.545,3.831c-0.356,1.262,0.063,1.822,0.813,2.808
	c1.114,1.466,2.131,3.288,2.274,5.165c0.088,1.163,0.023,1.804-0.787,2.662c-0.342,0.362-1.417,0.627-1.708,1.187
	c-0.646,1.248,0.305,3.56,0.69,4.72c0.964,2.9,2.669,4.073,5.471,2.989c1.445-0.56,2.89-1.161,4.379-1.59
	c0.974-0.28,1.871-0.45,2.876-0.479c0.531-0.016,1.803,0.322,2.235,0.067c0.795-0.467,0.529-0.973,0.534-1.891
	c0-0.04,0.003-0.077,0.004-0.116c0.339,0.996,0.478,2.1,1.092,3.092c0.329,0.505,0.814,0.916,1.366,1.154
	c0.548,0.25,1.14,0.358,1.723,0.384c0.588,0.026,1.157-0.018,1.742-0.125c0.604-0.133,1.117-0.395,1.62-0.578
	c0.254-0.096,0.471-0.144,0.747-0.18c0.265-0.036,0.535-0.059,0.805-0.071c0.54-0.025,1.086-0.01,1.612,0.058
	c0.426,0.061,0.873,0.361,1.267,0.694c0.397,0.344,0.761,0.743,1.088,1.166c0.173,0.217,0.3,0.417,0.473,0.666
	c0.032,0.049,0.069,0.094,0.103,0.141c-1.349-0.059-2.108,1.967-3.301,2.364c-1.053,0.351-1.939-0.188-2.832-0.703
	c-1.278-0.737-1.721-0.753-3.131-1.079c-1.116-0.257-1.977-1.109-3.11-1.297c-0.902-0.149-2.209-0.02-3.128,0.018
	c-1.21,0.051-1.497,0.768-2.502,1.157c-0.882,0.342-2.19,0.095-3.125,0.105c-1.315,0.015-1.489-0.326-2.553-0.793
	c-0.745-0.327-1.77-0.52-2.596-0.533c-1.684-0.028-2.268,0.861-3.656,1.221c-2.153,0.559-6.308-1.058-7.914,0.86
	c0.805,1.179,2.223,2.316,3.288,3.26c0.832,0.737,1.1,1.271,1.679,2.231c0.882,1.46,2.381,5.006-0.673,5.047
	c1.099,1.097,4.26,2.568,4.269,4.255c-1.076,0.649-0.938,2.481-1.214,3.55c-0.229,0.883-1.103,1.335-1.159,2.145
	c-0.039,0.573,0.798,1.206,0.576,1.937c-0.257,0.849-0.811,0.569-1.343,1.05c-0.52,0.471-1.073,1.877-1.251,2.641
	c-0.135,0.582-0.288,3.294,0.127,3.689c0.76,0.724,2.723-0.408,3.52-0.682c2.513-0.865,4.321-0.316,6.818,0.779
	c-0.623,0.45-1.449,1.13-2.042,1.796c-0.577-0.117-1.148-0.151-1.556,0.036c-0.618,0.282-1.117,1.764-1.239,2.544
	c-0.223,1.432,0.282,1.681-1.172,2.517c-2.327,1.338-6.915,0.817-9.453,0.301c-2.412-0.491-5.797-0.804-7.938,0.208
	c-0.641-1.33-3.174,0.042-3.936,0.667c-1.463,1.2-1.986,2.998-1.87,4.761c0.075,1.13,1.444,5.732,2.944,5.294
	c-2.335,1.083-4.591,1.501-6.414,3.457c-0.787,0.844-1.082,1.272-0.289,2.202c0.726,0.851,1.24,0.403,2.42,0.705
	c0.227,2.059,0.583,2.037,2.609,2.411c1.135,0.209,1.508,0.553,2.333,1.406c1.397,1.442,3.76,3.021,5.785,2.973
	c1.294-0.031,1.926,0.483,3.114,0.64c1.378,0.183,3,0.005,4.393-0.012c1.607-0.02,2.309,0.703,3.722,1.136
	c1.888,0.581,3.365-1.054,4.583-2.295c0.586,0.267,0.829,0.732,1.584,0.439c0.581-0.227-0.243-1.007,0.7-1.236
	c1.183-0.288,3.46,1.851,4.394,2.423c1.302,0.8,3.449,1.983,5.035,1.313c0.869-0.368,1.1-1.267,1.74-1.83
	c0.8-0.703,0.983-0.311,2.018-0.686c1.426-0.515,2.244-2.271,4.07-1.751c1.507,0.429,1.557,2.29,2.777,2.998
	c1.382,0.804,2.813-0.927,3.82-1.624c1.19-0.822,2.325-0.859,3.719-1.393c1.13-0.432,3.378-0.611,3.798-1.847
	c0.401-1.183-0.04-3.452-0.044-4.668c-0.002-0.429,0.029-0.813,0.078-1.183c2.627,1.413,5.287,3.03,8.201,3.31
	c0.366,0.036,0.732,0.055,1.098,0.067c0.868,2.938,2.106,5.499,3.816,7.905c0.394,0.555,0.787,1.143,1.167,1.711
	c0.335,1.479,0.806,2.485,1.731,3.758c0.221,0.302,0.468,0.572,0.724,0.833c0.205,1.102,0.649,2.139,1.367,3.07
	c0.231,0.295,0.488,0.575,0.789,0.831c0.148,0.135,0.296,0.239,0.479,0.372c0.217,0.146,0.416,0.248,0.586,0.327
	c0.1,0.047,0.19,0.086,0.275,0.123c0.351,0.611,0.711,1.223,1.093,1.824c1.077,3.027,2.638,5.584,4.673,7.606
	c0.234,0.233,0.47,0.463,0.706,0.692c0.051,0.05,0.104,0.102,0.155,0.151c0.379,0.777,0.711,1.574,0.967,2.398
	c0.253,0.815,0.458,1.632,0.656,2.423c0.44,1.755,0.893,3.568,1.883,5.377c0.683,1.247,1.483,2.428,2.343,3.565
	c0.183,0.528,0.375,1.046,0.572,1.557c0.396,1.017,0.791,1.997,1.193,2.987c0.524,1.288,1.048,2.565,1.566,3.84l-0.007,0.329
	l-0.035,0.814l-0.095,1.712c-0.057,1.177-0.106,2.413,0.018,3.745c0.033,0.335,0.073,0.672,0.132,1.017
	c0.057,0.342,0.112,0.618,0.176,0.925c0.124,0.6,0.262,1.192,0.41,1.773c0.297,1.165,0.63,2.29,0.953,3.388l0.474,1.625l0.131,0.448
	c0.048,0.166,0.102,0.32,0.154,0.479c0.107,0.313,0.218,0.616,0.333,0.908c0.458,1.168,0.938,2.188,1.269,3.121
	c0.234,0.645,0.442,1.419,0.714,2.267c0.016,0.236,0.03,0.47,0.053,0.71c0.122,1.269,0.377,2.612,0.915,3.952
	c0.139,0.334,0.274,0.668,0.458,0.994l0.262,0.488c0.091,0.151,0.185,0.306,0.274,0.442c0.164,0.254,0.319,0.48,0.462,0.689
	c0.227,0.826,0.512,1.42,0.667,1.85c0.081,0.215,0.136,0.386,0.167,0.521l0.145,0.687c0.08,0.949,0.135,1.894,0.157,2.839
	c0.013,0.528,0.017,1.056,0.011,1.587l-0.006,0.489c-0.012,0.05-0.024,0.097-0.036,0.147c-0.105,0.486-0.159,0.982-0.178,1.396
	c-0.039,0.846,0.008,1.554,0.037,2.176c0.016,0.31,0.029,0.595,0.032,0.841l-0.007,0.86l-0.025,2.012
	c-0.039,0.112-0.078,0.229-0.118,0.356c-0.137,0.44-0.278,0.994-0.317,1.685l0.483,0.021l-0.063,12.453
	c-0.063,0.419-0.132-0.415-0.211,0h0.117c-0.152,0.689-0.336-0.571-0.559,0h2.142c-0.027,0.369-0.078-0.403-0.169,0h0.407
	c0.086-0.378,0.14,0.35,0.17,0h0.121c-0.176,1.049-0.411-1.021-0.734,0h1.59c0.315-0.996,0.553,1.01,0.735,0h0.766
	c0,0.036-0.001,0-0.001,0h0.287h0.126c0.001,0.442,0.003-0.442,0.003,0l0,0l0,0l0,0c0-0.227,0.417,0,0.417,0h0.001
	c0.002,0,0,0.118-0.001,0c0.177,0.674,0.465-0.117,0.999,0h0.09c-0.324-0.071-0.532,0-0.673,0h0.372l0,0
	c0-0.335-0.184,0.328-0.185,0c0.099,0.231,0.144-0.097,0.324,0c0,0.039-0.039-0.038-0.043,0h0.392c0.032-0.282-0.035,0.275-0.123,0
	h0.384c-0.078-0.747-0.206,0.733-0.347,0h0.152h0.001c0.029,0.045,0.056-0.046,0.086,0h0.068h0.063c0.021,0.024,0.041-0.025,0.061,0
	c0.167,0.2,0.327-0.164,0.481,0c0,0.075-0.003-0.073-0.012,0h0.414c0.011-0.086,0.015,0.086,0.016,0h0.944h0.41
	c0.013,0.278-0.045-0.266-0.116,0c-0.056,0.211-0.115-0.258-0.139,0h0.416c0.02-0.222,0.072,0.203,0.126,0
	c0.065-0.245,0.131,0.291,0.135,0h1.672c0.034-0.155,0.061,0.157,0.08,0c0.012-0.086,0.016,0.053,0.019,0h0.006
	c0.009-0.254-0.007,0.189-0.019,0c-0.032-0.317-0.078,0.231-0.128,0c-0.051-0.238-0.105,0.203-0.162,0h0.687
	c-0.161-0.156-0.3,0.117-0.403,0c-0.106-0.118-0.183-10.865-0.268-10.987c-0.042-0.063-0.085-0.129-0.132-0.207l-0.206-0.352
	c-0.137-0.23-0.272-0.438-0.405-0.639c-0.091-0.43-0.171-0.849-0.223-1.24l-0.102-0.908l-0.006-0.063
	c0.005-0.031,0.01-0.063,0.015-0.097c0.195-1.156,0.417-2.308,0.667-3.45l0.407-1.758c0.146-0.642,0.286-1.325,0.382-2.059
	s0.145-1.524,0.081-2.37c-0.063-0.843-0.247-1.743-0.608-2.607c-0.092-0.205-0.205-0.443-0.293-0.616l-0.227-0.422l-0.429-0.794
	c-0.117-0.213-0.223-0.42-0.328-0.625c-0.061-0.629-0.137-1.265-0.251-1.904c-0.039-0.219-0.084-0.45-0.131-0.676
	c0.107-0.433,0.211-0.878,0.3-1.345l0.103-0.593l0.077-0.476c0.053-0.315,0.108-0.63,0.17-0.942c0.243-1.252,0.56-2.481,0.946-3.7
	c0.098-0.305,0.197-0.609,0.304-0.913l0.343-0.992l0.656-1.993c0.841-2.61,1.645-5.123,2.806-7.209
	c0.261-0.474,0.618-0.994,1.021-1.615c0.4-0.618,0.847-1.347,1.197-2.197c0.183-0.45,0.296-0.807,0.416-1.194
	c0.108-0.36,0.202-0.719,0.288-1.072c2.023-4.711,3.142-9.227,3.348-13.526c0.01-0.051-0.073-0.1-0.063-0.149
	c0.616-3.238,0.54-6.182-0.664-9.085v-0.069c0-0.09,0.086-0.182,0.083-0.272c0.042-0.64,0.097-1.31,0.069-2.01
	c0.083-0.561,0.184-1.119,0.254-1.672l0.18-1.395c0.053-0.531,0.081-1.061,0.072-1.596c-0.023-1.068-0.146-2.158-0.528-3.305
	c-0.094-0.285-0.212-0.575-0.349-0.867c-0.117-0.241-0.22-0.439-0.332-0.654l-0.143-0.268c-0.237-0.779-0.486-1.511-0.685-2.204
	c0.311-1.737,0.609-3.502,0.83-5.269c0.006-0.003,0.013-0.007,0.018-0.011c0.563-0.31,0.947-0.518,1.643-0.521
	c0.194,0.067,0.383,0.128,0.563,0.175c0.498,0.127,0.925,0.209,1.278,0.308c0.081,0.041,0.162,0.084,0.245,0.128
	c0.266,0.141,0.541,0.285,0.876,0.428c0.529,0.227,1.112,0.281,1.711,0.227c0.597,0.114,1.197,0.202,1.804,0.258
	c0.2,0.017,0.403,0.027,0.604,0.038c0.127,0.063,0.255,0.128,0.383,0.194c0.788,0.413,1.6,0.831,2.555,0.754
	c0.026,0.007,0.058,0.017,0.081,0.02c0.418,0.047,0.722-0.077,0.954-0.297c1.033-0.509,1.957-1.656,2.591-2.522
	c0.143-0.197,0.284-0.404,0.427-0.614c0.037-0.055,0.076-0.109,0.114-0.164c0.293-0.302,0.571-0.586,0.851-0.833
	c0.234-0.042,0.472-0.078,0.711-0.114c0.507-0.076,1.031-0.153,1.531-0.286c1.343-0.357,2.972-0.3,4.547-0.242
	c0.275,0.009,0.543,0.018,0.808,0.025c0.595,0.232,1.23,0.528,1.729,0.86c0.342,0.228,0.673,0.488,0.992,0.74
	c0.547,0.43,1.113,0.873,1.788,1.206c1.913,0.943,3.71,1.264,5.794,1.349c0.751,0.274,1.464,0.45,2.333,0.649
	c0.708,0.161,1.428,0.224,2.125,0.282c0.651,0.055,1.323,0.111,1.973,0.251c0.261,0.058,0.524,0.082,0.789,0.097
	c0.447,0.476,0.818,1.027,1.07,1.552c0.102,0.21,0.201,0.426,0.3,0.639c0.842,1.815,1.711,3.69,4.025,4.086
	c0.332,0.058,0.668,0.031,0.992,0.008c0.321-0.024,0.626-0.047,0.918,0.006c0.265,0.048,0.501,0.109,0.73,0.166
	c0.43,0.109,0.834,0.214,1.352,0.223c0.856,0.017,1.729,0.012,2.57,0.004c0.466-0.004,0.933-0.005,1.397-0.008
	c0.188-0.013,0.384-0.003,0.579-0.008c0.999-0.016,2.033-0.036,2.881,0.435c0.724,0.403,1.426,1.069,2.106,1.714
	c0.217,0.204,0.431,0.407,0.642,0.6l0.293,0.265c0.929,0.844,1.807,1.643,2.969,2.28c0.572,0.674,1.533,1.424,2.094,1.793
	c0.152,0.1,0.302,0.188,0.449,0.266c0.014,0.082,0.031,0.163,0.052,0.242c0.118,0.445,0.415,0.814,0.768,1.166
	c0.02,0.385,0.011,0.78,0.002,1.184c-0.033,1.325-0.065,2.692,1.024,3.753c0.141,0.138,0.295,0.273,0.454,0.406
	c-0.004,0.021-0.008,0.041-0.012,0.063c-0.009,1.27,0.187,2.501,0.585,3.696c0.813,3.033,2.737,6.026,6.268,5.515
	c2.082-0.302,2.411-1.389,2.411-2.778v0.002c0,0.339,0.332,0.764,0.384,1.022c0.036,0.181,0.013,0.387,0.019,0.603
	c0.012,0.524,0.012,1.119,0.528,1.515l0.246-0.332c-0.357-0.273-0.371-0.72-0.382-1.193c-0.005-0.224-0.012-0.458-0.056-0.674
	c-0.063-0.314-0.284-0.747-0.477-1.13c-0.068-0.134-0.131-0.259-0.181-0.364c-0.056-0.122-0.118-0.236-0.184-0.347
	c0.004-0.429,0.02-0.873,0.085-1.323c0.235-1.646,0.866-3.743,1.758-5.118c0.718-1.107,2.099-1.55,1.975-3.111
	c-0.175-2.209-3.134-3.811-4.178-5.666c-1.138-2.023,0.719-2.515,1.261-4.329c0.615-2.055-0.649-3.231-2.051-4.802
	c-1.496-1.678-2.133-2.218-4.374-2.212c-2.754,0.008-5.178-0.341-7.58-1.788c-1.809-1.088-3.37-2.882-5.579-3.194
	c-1.69-0.238-3.299,0.573-4.974,0.706c-1.642,0.131-6.463,0.604-6.771-1.802c-0.173-1.357,1.482-3.605,2.249-4.631
	c1.864,0.302,4.752,5.38,6.83,3.69c1.113-0.906-0.934-3.83,0.265-4.965c1.608-1.521,5.983-0.295,8.022-0.542
	c-0.465-2.044-1.163-3.891-0.645-6.063c0.415-1.736,0.978-1.516,2.421-1.46c4.325,0.169,8.766,1.741,13.039-0.103
	c1.642-0.708,4.052-2.64,2.146-4.707c-1.464-1.589-3.969,0.659-5.848-0.106c-1.899-0.774-2.542-3.434-4.492-4.415
	c-0.943-0.475-1.729-0.682-2.479-0.686c0.069-0.105,0.144-0.206,0.23-0.298c0.321-0.362,0.713-0.662,1.073-0.994
	c0.354-0.33,0.716-0.703,0.836-1.186c-0.136,0.479-0.505,0.834-0.867,1.152c-0.368,0.319-0.769,0.605-1.109,0.965
	c-0.109,0.111-0.202,0.235-0.286,0.363c-0.935,0.022-1.823,0.354-2.903,0.879c-1.82,0.884-3.182,0.902-4.623,0.148
	c0.461-0.378,0.885-0.794,1.296-1.202c0.416-0.413,0.846-0.84,1.308-1.213c0.627-0.508,1.255-0.988,2.036-1.268
	c0.645-0.23,1.334-0.407,2-0.577c0.379-0.098,0.756-0.194,1.127-0.3c0.21-0.06,0.452-0.132,0.693-0.228
	c1.614,0.168,3.231,0.203,4.855,0.089c1.555,0.12,3.104,0.096,4.648-0.072c-0.28-2.313,0.171-3.669,1.644-5.585
	c1.146-1.491,1.773-1.983,3.646-1.925c1.43,0.044,2.45,0.187,3.842-0.159c0.309-1.511,0.352-3.035,0.133-4.57
	c-0.041-0.929-0.177-1.841-0.405-2.737c0.218-1.851,1.419-2.627,0.553-4.793c-0.798-1.993-2.609-2.056-4.431-2.327
	c-2.399-0.357-3.58,1.042-5.629,2.057c-1.835-1.333-3.144-4.658-5.984-3.449c-1.503,0.639-2.162,2.713-3.597,3.475
	c-0.258,0.137-1.594,0.609-1.907,0.638c-2.274,0.212-2.241-2.463-4-2.947c-0.718-0.331-1.413-0.17-2.082,0.481
	c-1.293,0.534-2.604,0.583-3.934,0.147c-2.338-0.78-1.856-2.1-3.226-3.795c-1.244-1.539-3.696-2.216-5.591-2.527
	c-1.797-0.295-3.879,0.301-5.688,0.001c0.209-0.142,0.419-0.291,0.626-0.463c0.505-0.429,0.976-0.835,1.466-1.235
	c0.292-0.237,0.584-0.464,0.881-0.686c0.296-0.122,0.603-0.25,0.915-0.404c0.35-0.173,0.681-0.367,0.994-0.572
	c0.461-0.299,0.889-0.632,1.292-0.975l2.373-1.293c1.078-0.602,2.241-1.095,3.424-1.594c0.592-0.249,1.19-0.5,1.786-0.768
	c0.602-0.262,1.188-0.585,1.693-0.745c0.518-0.165,1.061-0.181,1.708-0.159c0.325,0.007,0.68,0.015,1.057-0.035
	c0.366-0.056,0.691-0.127,1.024-0.222c0.451-0.128,0.884-0.288,1.308-0.46c0.245-0.015,0.49-0.03,0.732-0.043
	c0.677-0.039,1.341-0.063,1.981-0.035c0.319,0.017,0.633,0.047,0.936,0.096l0.994,0.205c0.704,0.136,1.482,0.232,2.279,0.123
	c0.768-0.093,1.489-0.417,2.092-0.753c0.034,1.702,0.074,5.011,1.815,5.739c1.806,0.755,6.229-3.1,7.642-3.923
	c2.281-1.329,1.621-0.232,3.12,1.131c1.725,1.567,4.375,0.173,6.294,1.257c0.53,0.744,1.144,1.411,1.843,2.003
	c1.198,0.913,2.555,1.414,4.068,1.502c1.369,0.405,2.698,0.343,3.987-0.188c0.618-0.963,1.185-1.956,1.695-2.979
	c1.577-2.981,2.23-3.495,5.53-3.439c2.229-0.198,4.439-0.076,6.635,0.366c2.157,0.897,4.161,2.059,6.011,3.484
	c1.979,0.858,3.395,0.185,4.241-2.021c1.171-1.615,2.098-3.354,2.778-5.218C302.368,119.962,302.006,119.324,301.739,118.628z
	 M239.973,121.139c-0.346,0.178-0.693,0.348-1.044,0.512c-0.037,0.001-0.077,0-0.115,0.002c-0.695,0.022-1.377,0.059-2.03,0.055
	c-0.688-0.005-1.402,0.007-2.106,0.054c0.582-0.183,1.159-0.407,1.71-0.734c1.438-0.854,1.593-1.634,1.563-3.078
	c0.045-0.022,0.086-0.05,0.131-0.071c0.338-0.171,0.686-0.347,1.033-0.529c0.154,0.23,0.303,0.466,0.438,0.714
	c1.718-0.282,6.21-2.173,7.758-0.901c0.312,0.257,0.349,1.008,0.28,1.878c-0.048-0.018-0.095-0.039-0.144-0.056
	c-0.649-0.224-1.346-0.358-2.073-0.32c-0.743,0.043-1.416,0.304-2.02,0.598c-0.609,0.297-1.167,0.641-1.716,0.963
	C241.099,120.546,240.536,120.843,239.973,121.139z M224.115,162.805c-0.333-0.133-0.594-0.331-0.781-0.594
	c-0.02-0.169-0.037-0.333-0.047-0.486c-0.018-0.243-0.02-0.464,0.016-0.644c0.035-0.181,0.098-0.313,0.206-0.434
	c0.213-0.246,0.687-0.446,1.148-0.582c0.431-0.125,0.891-0.208,1.354-0.271c-0.303,0.097-0.687,0.245-0.959,0.434
	c-0.398,0.278-0.449,0.663-0.493,1.001c-0.015,0.106-0.027,0.215-0.053,0.325C224.4,162.011,224.269,162.426,224.115,162.805z
	 M239.131,206.488c-0.07-0.086-0.133-0.17-0.184-0.25c-0.143-0.227-0.239-0.426-0.333-0.617c-0.169-0.349-0.329-0.679-0.724-1.097
	c-0.264-0.278-0.493-0.563-0.736-0.867c-0.129-0.159-0.258-0.319-0.392-0.479c-0.633-0.752-1.41-1.044-2.161-1.327
	c-0.243-0.092-0.491-0.185-0.739-0.294c-0.864-0.386-1.968-0.622-2.94-0.83l-0.185-0.041c-0.369-0.079-0.733-0.053-1.086-0.027
	c-0.372,0.027-0.725,0.053-1.077-0.04c-0.07-0.019-0.137-0.062-0.214-0.11c-0.106-0.068-0.228-0.146-0.389-0.178
	c-0.158-0.03-0.302-0.054-0.438-0.075c-0.339-0.055-0.608-0.099-0.971-0.255c-0.871-0.379-1.544-0.896-2-1.534
	c-0.142-0.199-0.244-0.461-0.354-0.736c-0.102-0.258-0.208-0.52-0.352-0.748c1.325,0.005,3.409-1.488,4.564-1.732
	c2.593-0.544,6.916-2.365,8.485,0.407c0.483,0.854,0.289,1.812,0.923,2.597c0.986,1.222,3.802,0.803,4.747,2.052
	c1.263,1.671-0.728,4.665-1.142,7.169c-0.389-0.302-0.811-0.437-1.248-0.572C239.851,206.795,239.5,206.685,239.131,206.488z
	 M216.235,194.456c-0.356-0.361-0.762-0.68-1.207-0.91c0.344-0.313,0.622-0.612,1.234-0.759c0.709-0.167,2.222-0.287,3.488-0.1
	c0.098,0.133,0.192,0.267,0.286,0.4c0.363,0.519,0.737,1.056,1.303,1.429c0.254,0.168,0.501,0.294,0.745,0.396
	c0.055,0.331,0.109,0.658,0.218,0.957c-0.876-0.538-1.826-1.061-2.863-1.321c-0.706-0.177-1.441-0.143-2.151-0.111
	C216.938,194.452,216.585,194.465,216.235,194.456z M208.905,193.17c-0.35-0.131-0.709-0.282-1.104-0.475
	c-0.815-0.397-1.27-0.895-1.797-1.471c-0.201-0.219-0.41-0.447-0.65-0.683c-1.543-1.517-4.007-1.517-5.985-1.517
	c-0.251,0-0.508-0.005-0.768-0.012c-0.3-0.115-0.589-0.214-0.841-0.292c-1.158-0.354-2.198-0.55-3.126-0.598
	c0.448-0.179,0.872-0.368,1.278-0.551c0.442-0.197,0.869-0.388,1.284-0.537c0.135-0.051,0.283-0.093,0.431-0.137
	c0.115,0.122,0.235,0.239,0.361,0.328c0.659,0.467,1.501,0.861,2.078,1.119c0.825,0.365,1.596,0.447,2.341,0.528
	c0.485,0.051,0.986,0.104,1.497,0.236c0.147,0.039,0.282,0.081,0.409,0.12c0.337,0.104,0.654,0.203,1.096,0.216
	c0.195,0.005,0.402-0.011,0.603-0.026c0.285-0.021,0.58-0.043,0.83-0.001c0.298,0.05,0.545,0.192,0.809,0.345
	c0.189,0.109,0.388,0.224,0.612,0.308c0.141,0.052,0.293,0.1,0.449,0.146c0.798,0.829,1.704,1.639,2.556,2.641
	c0.086,0.1,0.164,0.195,0.239,0.288c-0.032,0-0.065,0.003-0.097,0.004c-0.423,0.022-0.822,0.046-1.198,0.046
	C209.76,193.197,209.329,193.187,208.905,193.17z M186.38,193.955c-0.146,0.043-0.29,0.067-0.429,0.083
	c-0.174-0.051-0.461-0.194-0.648-0.289c-0.098-0.05-0.182-0.093-0.238-0.117c-0.103-0.047-0.209-0.088-0.315-0.13
	c0.271-0.019,0.542-0.047,0.815-0.083c0.271-0.042,0.543-0.08,0.815-0.146c0.143-0.033,0.264-0.055,0.422-0.102
	c0.098-0.032,0.198-0.063,0.297-0.096c-0.117,0.328-0.245,0.589-0.411,0.761C186.586,193.883,186.483,193.925,186.38,193.955z
	 M107.865,124.528c-0.396-0.617-0.769-1.2-0.924-1.943c-0.125-0.597-0.366-1.167-0.599-1.72c-0.277-0.655-0.538-1.274-0.625-1.936
	c-0.036-0.272-0.029-0.523-0.02-0.766c0.655,1.717,1.389,3.427,2.397,5.013c0.147,0.225,0.311,0.468,0.419,0.649
	c0.113,0.202,0.206,0.417,0.284,0.642c0.091,0.274,0.156,0.563,0.208,0.862c-0.016,0-0.033,0.003-0.048,0.004
	c-0.206,0.012-0.411,0.001-0.615-0.021C108.188,125.038,108.026,124.779,107.865,124.528z M151.207,105.557
	c0.566,1.265,0.871,2.749,0.843,4.049c-0.117-0.446-0.236-0.89-0.35-1.34c-0.147-0.539-0.362-1.126-0.755-1.611
	c-0.02-0.025-0.044-0.046-0.065-0.07c0.075-0.368,0.179-0.732,0.3-1.097C151.19,105.511,151.196,105.534,151.207,105.557z
	 M237.174,157.202c0.081,0.085,0.159,0.17,0.238,0.255l-1.275,0.697c0.132-0.12,0.262-0.241,0.389-0.361
	C236.742,157.587,236.954,157.386,237.174,157.202z M230.679,160.101c-0.155-0.088-0.314-0.199-0.474-0.313
	c0.063,0.002,0.124,0.069,0.187,0.072c0.371,0.017,0.737,0.098,1.088,0.098c0.002,0,0.003,0,0.004,0
	c0.695,0,1.335-0.143,1.948-0.301c-0.05,0.025-0.098,0.021-0.147,0.045c-0.479,0.236-0.948,0.468-1.391,0.585
	C231.439,160.407,231.086,160.341,230.679,160.101z M186.437,190.842c-0.078,0.03-0.158,0.043-0.235,0.069
	c-0.026,0.009-0.063,0.015-0.1,0.022c0.914-0.555,1.652-1.13,2.575-1.871c0.09-0.072,0.183-0.133,0.274-0.197
	c-0.572,0.532-1.064,1.048-1.56,1.427C187.066,190.544,186.748,190.733,186.437,190.842z M158.265,126.262
	c0.324,0.354,0.589,0.767,0.719,1.182c0.148,0.473,0.189,0.852,0.147,1.178C158.474,128.055,158.131,127.136,158.265,126.262z
	 M237.617,116.988c-1.18,0.545-2.245,1.322-3.215,2.127c-0.981,0.814-1.899,1.647-2.878,2.386c-0.499,0.381-1.01,0.735-1.537,1.061
	c-0.57,0.1-1.14,0.186-1.702,0.266c-0.644,0.092-1.299,0.188-1.951,0.309c-0.02-0.1-0.045-0.2-0.07-0.299
	c0.247-1.355,0.094-2.546-0.495-3.967c-0.088-0.215-0.228-0.405-0.361-0.589c-0.141-0.192-0.272-0.374-0.344-0.571
	c-0.019-0.049-0.027-0.092-0.038-0.136c0.021-0.178,0.051-0.357,0.086-0.536c0.121-0.163,0.331-0.304,0.609-0.479
	c0.112-0.069,0.227-0.142,0.337-0.219c0.552-0.386,1.554-0.646,2.329-0.602c0.265,0.015,0.504,0.138,0.756,0.268
	c0.352,0.181,0.75,0.384,1.261,0.306l-0.063-0.413c-0.379,0.059-0.683-0.098-1.006-0.264c-0.281-0.146-0.571-0.295-0.924-0.314
	c-0.873-0.053-1.962,0.235-2.592,0.677c-0.104,0.073-0.214,0.141-0.319,0.207c-0.075,0.047-0.15,0.095-0.225,0.145
	c0.114-0.406,0.259-0.808,0.426-1.196c0.357-0.825,0.813-1.6,1.387-2.262c3.883-0.604,8.064,0.326,10.778,2.961
	c-0.037,0.192-0.078,0.376-0.121,0.555C237.699,116.597,237.655,116.789,237.617,116.988z M228.386,123.316
	c-0.358,0.167-0.717,0.376-1.053,0.576c-0.204,0.089-0.407,0.179-0.607,0.273l-0.306,0.143c0.01-0.177,0.012-0.353,0-0.524
	c-0.006-0.079-0.019-0.156-0.027-0.235c0.652-0.12,1.308-0.216,1.951-0.309c0.105-0.015,0.212-0.032,0.317-0.047
	C228.57,123.236,228.476,123.271,228.386,123.316z M207.324,180.914c-0.129,0.036-0.259,0.083-0.388,0.125
	c-0.135,0.051-0.278,0.104-0.407,0.166c-0.264,0.123-0.509,0.261-0.737,0.405c-0.912,0.577-1.644,1.271-2.371,1.703
	c-0.725,0.446-1.569,0.719-2.47,0.927c-0.904,0.205-1.868,0.343-2.866,0.55c-0.501,0.108-0.997,0.218-1.524,0.391
	c-0.511,0.168-0.986,0.361-1.441,0.551c-0.455,0.188-0.892,0.368-1.315,0.517l-0.313,0.103l-0.371,0.119
	c-0.255,0.086-0.505,0.18-0.749,0.28c-0.171,0.07-0.336,0.146-0.501,0.221c-0.316,0.12-0.629,0.252-0.938,0.41
	c-0.252,0.13-0.506,0.245-0.757,0.359c-0.589,0.268-1.196,0.545-1.76,0.997c-1.168,0.94-2.033,1.607-3.348,2.306l-0.078,0.041
	c-1.334,0.097-2.741-0.055-4.09-0.376c-0.438-0.534-0.919-1.053-1.708-1.232c-0.462-0.105-1.136-0.013-1.797,0.163
	c-0.081-0.022-0.164-0.044-0.24-0.066c-0.2-0.06-0.376-0.122-0.522-0.188c-0.161-0.072-0.207-0.109-0.521-0.296
	c-0.162-0.094-0.402-0.2-0.615-0.262c-0.215-0.063-0.406-0.095-0.578-0.116c-0.109-0.012-0.219-0.018-0.329-0.025
	c0.009-0.067,0.018-0.135,0.029-0.203c0.111-0.382,0.217-0.768,0.301-1.16c0.254-1.182,0.608-2.285,0.963-3.313
	c0.876-0.747,1.854-1.452,2.951-2.119c0.728-0.442,1.366-0.588,2.105-0.757c0.177-0.04,0.357-0.082,0.548-0.129
	c0.18-0.046,0.333-0.101,0.481-0.153c0.236-0.086,0.439-0.16,0.731-0.176c0.202-0.012,0.413,0.002,0.635,0.018
	c0.273,0.019,0.557,0.037,0.835,0.006c0.872-0.099,1.608-0.563,2.321-1.01c0.156-0.098,0.31-0.194,0.465-0.286
	c1.146-0.685,2.146-1.35,3.154-2.095c0.117-0.088,0.228-0.182,0.342-0.272c0.558-0.326,1.107-0.675,1.647-1.033
	c0.966-0.035,1.917-0.262,2.786-0.61c0.447-0.177,0.872-0.391,1.281-0.616c0.195-0.107,0.433-0.242,0.646-0.4
	c0.217-0.157,0.418-0.332,0.593-0.502c0.177-0.171,0.327-0.332,0.476-0.484l0.227-0.229c0.041-0.041,0.082-0.087,0.122-0.131
	c0.09,0.029,0.186,0.056,0.287,0.081c0.382,0.089,0.671,0.11,0.998,0.125c0.187,0.007,0.37,0.003,0.554-0.004
	c0.258,0.968-0.398,2.391-0.336,3.251c2.238,0.313,7.394,1.135,7.904,4.005c0.021,0.114,0.025,0.228,0.025,0.341
	C207.548,180.858,207.438,180.88,207.324,180.914z M179.028,190.132l-0.195-0.075l-0.215-0.076c-0.11-0.036-0.217-0.067-0.322-0.099
	c0.309-0.04,0.59-0.048,0.803,0c0.446,0.102,0.779,0.339,1.075,0.635c-0.068-0.018-0.139-0.036-0.206-0.057
	c-0.216-0.063-0.423-0.139-0.632-0.211L179.028,190.132z M141.167,215.294c-0.031-0.369-0.098-0.71-0.172-1.038
	c0.118,0.19,0.235,0.38,0.352,0.571c0.044,0.113,0.089,0.228,0.135,0.344c0.053,0.371,0.101,0.753,0.147,1.146
	c-0.073-0.162-0.146-0.321-0.217-0.481C141.331,215.656,141.25,215.474,141.167,215.294z M132.886,170.736
	c1.144,0.64,3.128,0.886,4.14,1.653c1.307,0.992,0.409,2.41,0.673,3.906c0.337,1.915,1.373,2.563,3.257,2.751
	c2.038,0.202,5.403-0.828,7.098-1.956c0.677-0.451,1.135-0.966,1.437-1.523c0.281,0.208,0.569,0.385,0.856,0.513
	c0.215,0.097,0.436,0.165,0.662,0.214c0.117,0.362,0.249,0.726,0.418,1.081c0.417,0.874,1.034,1.411,1.687,1.98
	c0.212,0.185,0.431,0.374,0.65,0.583c0.613,0.583,1.376,0.932,2.116,1.27c0.529,0.243,1.072,0.498,1.554,0.833
	c0.325,0.575,0.662,1.144,1.028,1.687c0.252,0.372,0.499,0.747,0.747,1.121c0.027,0.054,0.048,0.108,0.076,0.161
	c0.187,0.358,0.37,0.718,0.553,1.075c0.091,0.177,0.182,0.355,0.273,0.533c0.253,0.735,0.56,1.438,0.997,2.043
	c0.122,0.169,0.25,0.321,0.382,0.469c0.354,0.58,0.732,1.148,1.151,1.69c0.154,0.199,0.306,0.399,0.457,0.601
	c0.505,0.669,1.029,1.354,1.628,1.968c0.033,0.098,0.063,0.19,0.085,0.259l0.223,0.739c0.15,0.513,0.306,1.062,0.506,1.64
	c0.153,0.439,0.333,0.9,0.568,1.367l0.006,0.098l0.023,0.406c0.015,0.161,0.033,0.32,0.058,0.471
	c0.125,0.746,0.317,1.409,0.561,2.055c0,0.108,0,0.216,0.002,0.323c0.028,1.47,0.25,2.952,0.523,4.412
	c-0.239,1.057-0.41,2.141-0.579,3.294c-0.045,0.305-0.093,0.608-0.141,0.911c-0.23,1.466-0.468,2.979-0.324,4.521
	c0.071,0.758,0.148,1.512,0.227,2.254c-0.034,0.27-0.066,0.538-0.098,0.804c-0.111,0.989-0.211,1.957-0.321,2.906
	c-0.013,0.044-0.025,0.085-0.038,0.123c-0.051,0.161-0.096,0.269-0.153,0.375c-0.027,0.054-0.06,0.106-0.097,0.164
	c-0.05,0.082-0.152,0.242-0.224,0.37c-0.159,0.272-0.311,0.582-0.43,0.858c-0.12,0.278-0.21,0.513-0.299,0.73
	c-0.129,0.32-0.295,0.62-0.526,0.988l-0.796,1.24c-0.146,0.236-0.293,0.489-0.437,0.762c-0.152,0.297-0.25,0.513-0.366,0.762
	c-0.445,0.969-0.827,1.994-1.127,3.033c-0.301,1.038-0.52,2.084-0.69,3.107c-0.027,0.163-0.054,0.322-0.081,0.483
	c-0.057,0.089-0.113,0.175-0.17,0.266c-0.384,0.611-0.789,1.21-1.182,1.788c-0.882,1.299-1.72,2.534-2.366,3.973
	c-0.102-0.226-0.212-0.449-0.323-0.671c-0.145-0.513-0.291-1.025-0.443-1.537l-0.015-0.05c-0.033-0.112-0.068-0.229-0.102-0.343
	c-0.025-0.296-0.057-0.596-0.098-0.898c-0.048-0.325-0.101-0.65-0.172-0.984c-0.06-0.311-0.186-0.757-0.195-0.809
	c-0.035-0.148-0.063-0.364-0.099-0.653c-0.04-0.297-0.085-0.669-0.193-1.096c-0.05-0.208-0.121-0.431-0.202-0.646l-0.129-0.313
	l-0.107-0.23c-0.144-0.302-0.29-0.579-0.424-0.832c-0.275-0.515-0.478-0.891-0.65-1.316c-0.226-0.544-0.46-1.079-0.7-1.605
	c-0.366-0.806-0.746-1.591-1.126-2.367c-0.139-0.584-0.272-1.15-0.4-1.743l-1.24-5.84c-0.22-0.988-0.455-1.98-0.721-2.974
	c-0.134-0.497-0.27-0.993-0.42-1.488c-0.073-0.247-0.148-0.496-0.229-0.742c-0.085-0.26-0.141-0.462-0.26-0.788
	c-0.444-1.187-1.03-2.087-1.492-2.912c-0.117-0.206-0.226-0.403-0.327-0.596l-0.142-0.281l-0.148-0.317
	c-0.23-0.503-0.482-0.981-0.744-1.45c-0.524-0.932-1.103-1.82-1.708-2.662c-0.588-0.826-1.194-1.642-1.816-2.446
	c-0.267-0.346-0.541-0.689-0.817-1.033c-0.363-0.56-0.757-1.033-1.216-1.462c-0.163-0.19-0.328-0.378-0.492-0.565
	c-0.262-0.358-0.54-0.716-0.861-1.054c-0.216-0.227-0.444-0.438-0.674-0.646c-0.93-1.002-1.883-1.978-2.848-2.943
	c-0.178-0.291-0.36-0.561-0.542-0.822c-0.327-0.465-0.657-0.896-0.959-1.305c-0.26-0.353-0.64-0.918-1.049-1.37
	c-0.318-0.362-0.65-0.68-0.974-0.977c-0.425-1.08-0.866-2.214-1.441-3.339c-0.466-0.905-0.982-1.771-1.552-2.612
	c-0.118-0.255-0.246-0.516-0.39-0.781c-0.339-0.606-0.722-1.145-1.111-1.649c3.378-0.981,6.843-5.79,5.233-8.888
	c-0.413-0.794-1.389-2.953-1.619-4.762c0.009-0.026,0.017-0.049,0.027-0.076l0.016-0.047c0.032-0.09,0.063-0.194,0.096-0.305
	c0.211-0.701,0.428-1.278,0.937-1.224l0.042-0.415c-0.596-0.063-0.922,0.345-1.132,0.814c0.111-0.766,0.489-1.338,1.301-1.5
	c0.94-0.187,2.911,0.935,3.847,1.229c0.259,1.176-0.287,2.029-1.64,2.56C133.144,167.978,132.567,169.188,132.886,170.736z
	 M149.182,106.135l0.647,0.493c0.194,0.151,0.362,0.316,0.504,0.504c0.014,0.019,0.024,0.04,0.038,0.059
	c-0.027,0.285-0.036,0.573-0.016,0.867c0.01,0.135,0.029,0.268,0.047,0.4c-0.284-0.694-0.619-1.373-1.057-1.943
	c-0.145-0.189-0.302-0.368-0.462-0.542c0.02-0.009,0.039-0.017,0.059-0.025C149.023,106.009,149.103,106.075,149.182,106.135z
	 M150.53,120.161c-0.093,0.241-0.196,0.48-0.3,0.676c-0.019,0.035-0.042,0.068-0.062,0.102c-0.009,0.004-0.017,0.008-0.026,0.012
	c0.036-0.118,0.071-0.236,0.104-0.355c0.107-0.193,0.217-0.382,0.329-0.569C150.56,120.071,150.547,120.117,150.53,120.161z
	 M152.201,129.552c-0.362-0.155-0.71-0.315-1.021-0.498c-0.417-0.242-0.771-0.529-1.021-0.861c-0.193-0.259-0.335-0.569-0.435-0.91
	c0.194,0.344,0.422,0.66,0.691,0.933c0.519,0.526,1.164,0.743,1.795,0.94C152.205,129.29,152.2,129.422,152.201,129.552z
	 M139.77,211.05c0.05,0.104,0.099,0.208,0.149,0.313c-0.034-0.046-0.064-0.094-0.099-0.14
	C139.803,211.164,139.788,211.107,139.77,211.05z M166.652,213.845c-0.14-1.487,0.083-2.909,0.32-4.416
	c0.048-0.305,0.096-0.61,0.141-0.916c0.116-0.794,0.234-1.551,0.373-2.29c0.018,0.088,0.036,0.178,0.054,0.268
	c0.005,0.313,0.02,0.622,0.044,0.919c0.01,0.113,0.024,0.216,0.036,0.325c-0.376,2.02-0.624,3.894-0.751,5.718
	c-0.059,0.317-0.112,0.635-0.163,0.949C166.688,214.216,166.67,214.029,166.652,213.845z M148.281,127.229v-0.552
	c0-0.279-0.144-0.558-0.14-0.836c0.011-0.854,0.041-1.451,0.227-1.779c-0.14,0.667-0.192,1.307-0.195,2.046
	c0,0.148-0.028,0.308-0.039,0.474c-0.018,0.283-0.043,0.582-0.02,0.874c-0.038-0.059,0.066-0.118,0.03-0.177
	C148.145,127.262,148.281,127.247,148.281,127.229z M149.859,120.438c-0.026,0.048-0.051,0.098-0.078,0.146
	c0.014-0.037,0.027-0.075,0.041-0.111c0.047-0.132,0.095-0.265,0.141-0.399C149.931,120.195,149.894,120.315,149.859,120.438z
	 M224.487,125.136c-0.024,0.037-0.058,0.068-0.086,0.104c-0.919,0.407-1.839,0.771-2.768,0.998
	c-0.144,0.033-0.285-0.008-0.427,0.015c-0.14,0.025-0.298-0.016-0.384-0.016c-0.011,0-0.025,0-0.035,0
	c0.123,0,0.244-0.157,0.363-0.274c0.538-0.137,1.044-0.685,1.454-1.165c0.051-0.059,0.095-0.089,0.141-0.142
	c0.551-0.317,1.124-0.48,1.911-0.712c0.053-0.016,0.107-0.022,0.159-0.037C224.827,124.375,224.715,124.809,224.487,125.136z
	 M154.734,175.881c-0.967-1.824-1.967-3.71-2.24-5.79c-0.166-1.256-0.265-2.568-0.305-4.045c0.018-0.03,0.037-0.06,0.055-0.09
	c0.032,0.059,0.064,0.116,0.096,0.175c0.222,0.415,0.403,0.858,0.593,1.327c0.099,0.243,0.198,0.487,0.304,0.728
	c0.317,0.724,0.517,1.521,0.708,2.291c0.219,0.878,0.446,1.786,0.852,2.617c0.193,0.395,0.314,0.807,0.443,1.242
	c0.042,0.141,0.085,0.284,0.131,0.428c0.003,0.057,0.008,0.123,0.013,0.175c0.013,0.117,0.031,0.229,0.052,0.342
	c0.044,0.218,0.104,0.415,0.16,0.577c0.116,0.328,0.187,0.512,0.206,0.622c0.002,0.011,0.002,0.016,0.004,0.022
	c-0.283-0.165-0.601-0.296-0.949-0.387C154.816,176.037,154.776,175.959,154.734,175.881z M223.466,116.451
	c0.046,0.215,0.089,0.419,0.099,0.64c0.005,0.104,0.012,0.2,0.02,0.291c-0.09,0.143-0.188,0.286-0.297,0.43
	c-0.157,0.208-0.314,0.419-0.476,0.634c-0.691,0.926-1.403,1.875-2.188,2.671c0.057-0.217,0.115-0.434,0.167-0.651
	c0.5-2.068,1.02-4.195,2.661-5.644c-0.063,0.27-0.102,0.539-0.099,0.801C223.354,115.929,223.411,116.194,223.466,116.451z
	 M223.982,121.065c0.005,0.267,0.011,0.536-0.001,0.802c-0.014,0.322-0.184,0.558-0.381,0.831c-0.072,0.103-0.146,0.207-0.218,0.319
	c-0.066,0.107-0.132,0.215-0.195,0.323c-0.207,0.344-0.401,0.668-0.658,0.951c-0.015,0.016-0.033,0.038-0.049,0.055
	c-0.374,0.224-0.745,0.515-1.155,0.931c-0.121,0.124-0.252,0.254-0.381,0.382c-0.319,0.052-0.632,0.044-0.959,0.034
	c-0.297-0.01-0.602-0.015-0.914,0.025c0.222-0.396,0.421-0.803,0.567-1.273l0.031-0.099c0.251-0.804,0.505-1.626,0.74-2.451
	c1.018-0.901,1.891-2.069,2.735-3.2c0.128-0.17,0.253-0.338,0.378-0.503c-0.004,0.091-0.011,0.183-0.012,0.276
	c-0.002,0.173,0.001,0.347,0.021,0.523c0.012,0.175,0.031,0.351,0.067,0.528c0.047,0.353,0.171,0.719,0.272,1.013
	c0.039,0.109,0.072,0.208,0.107,0.309C223.981,120.916,223.981,120.99,223.982,121.065z M150.398,160.13
	c-0.046-0.405-0.093-0.825-0.24-1.276c-0.026-0.079-0.058-0.157-0.094-0.231c0.332,0.155,0.689,0.34,1.052,0.561
	c0.002,0.012,0.004,0.025,0.005,0.037c0.049,0.308,0.109,0.6,0.166,0.868c0.058,0.27,0.11,0.518,0.151,0.757l0.116,0.61
	c-0.396-0.334-0.775-0.675-1.123-1.055C150.42,160.311,150.409,160.219,150.398,160.13z M150.303,132.539
	c0.394,0.201,0.763,0.427,1.118,0.65c0.571,0.359,1.161,0.73,1.861,0.973c0.358,0.125,0.649,0.361,0.957,0.611
	c0.213,0.173,0.433,0.353,0.683,0.497c0.342,0.198,0.737,0.431,1.099,0.681c0.008,0.006,0.016,0.013,0.024,0.019
	c-0.047,0.307-0.108,0.618-0.191,0.937c-0.207,0.791-0.355,1.619-0.497,2.421c-0.005,0.025-0.009,0.049-0.014,0.073
	c-0.239,0.098-0.449,0.133-0.646,0.125c-0.561-0.775-1.288-1.429-2.074-1.846c-0.16-0.085-0.321-0.167-0.48-0.248
	c-0.705-0.358-1.371-0.697-1.911-1.242l-0.145-0.145c-0.134-0.133-0.263-0.262-0.384-0.397c0.275-0.656,0.553-1.306,0.578-1.695
	C150.311,133.472,150.344,132.984,150.303,132.539z M149.751,131.25c1.054,0.682,2.228,1.126,3.367,1.465
	c0.884,0.261,1.762,0.47,2.606,0.698c0.161,0.043,0.314,0.093,0.472,0.139c-0.01,0.684-0.024,1.32-0.093,1.957
	c-0.33-0.219-0.671-0.424-0.973-0.6c-0.221-0.128-0.419-0.29-0.629-0.46c-0.322-0.262-0.654-0.533-1.083-0.681
	c-0.656-0.228-1.201-0.57-1.777-0.932c-0.399-0.251-0.813-0.511-1.271-0.734c-0.06-0.029-0.109-0.06-0.164-0.089
	C150.123,131.718,149.98,131.458,149.751,131.25z M174.486,165.307c-0.051,0.16-0.095,0.322-0.142,0.482
	c-0.034-0.054-0.07-0.109-0.103-0.163c-0.042-0.068-0.088-0.146-0.136-0.227c-0.02-0.039-0.039-0.078-0.06-0.115
	c0.051-0.19,0.104-0.376,0.159-0.561C174.298,164.917,174.392,165.111,174.486,165.307z M177.146,178.276
	c-0.106,0.059-0.218,0.116-0.333,0.176c0.167-0.346,0.331-0.696,0.487-1.049c0.148,0.063,0.297,0.12,0.443,0.169
	c-0.071,0.167-0.146,0.331-0.221,0.497C177.403,178.138,177.279,178.208,177.146,178.276z M178.553,175.474
	c-0.131-0.046-0.249-0.1-0.365-0.156c0.094-0.23,0.188-0.459,0.279-0.689c0.294-0.363,0.624-0.728,0.988-1.119
	c0.081-0.088,0.163-0.175,0.247-0.265c-0.385,0.742-0.732,1.5-1.062,2.253C178.612,175.489,178.581,175.483,178.553,175.474z
	 M186.312,164.276c0.193-0.175,0.393-0.353,0.597-0.533c0.065-0.057,0.129-0.115,0.193-0.172c0.095-0.055,0.188-0.111,0.282-0.168
	c-0.426,0.401-0.855,0.807-1.28,1.218C186.172,164.506,186.242,164.391,186.312,164.276z M176.134,178.827
	c0.235-0.481,0.475-0.961,0.714-1.439c-0.213,0.477-0.437,0.948-0.67,1.413C176.163,178.809,176.148,178.819,176.134,178.827z
	 M188.945,171.823c-0.112,0.116-0.21,0.244-0.309,0.369l-0.153,0.199c-0.093,0.131-0.155,0.251-0.206,0.36
	c-0.105,0.243-0.164,0.423-0.208,0.558c-0.235-0.02-0.479-0.022-0.715,0.017c-0.307,0.045-0.632,0.154-0.842,0.24
	c-0.937,0.363-1.719,0.868-2.444,1.253c-0.27,0.146-0.524,0.263-0.778,0.367c-0.273,0.088-0.548,0.182-0.824,0.283
	c-0.179,0.047-0.365,0.087-0.56,0.121c-0.766,0.137-1.563,0.184-2.308,0.102c-0.188-0.021-0.372-0.05-0.55-0.086
	c0.342-0.779,0.698-1.562,1.099-2.321l0.069-0.131c0.279-0.531,0.556-1.053,0.839-1.564c0.362-0.493,0.689-0.943,1.021-1.318
	c0.963-1.067,1.853-2.263,2.635-3.441c0.149-0.224,0.293-0.449,0.438-0.674c0.873-0.897,1.782-1.755,2.678-2.598
	c0.305,0.114,0.571,0.233,0.959,0.626c0.741,0.751,1.051,2.548,2.113,2.961c1.181,0.459,1.975-0.625,2.908,0.812
	c0.06,0.571,0.118,1.142,0.177,1.714c-0.008,0.044-0.011,0.083-0.018,0.125c-1.212-0.133-2.485,0.151-3.521,0.78
	C189.877,170.916,189.374,171.343,188.945,171.823z M191.268,172.802c0.118-0.098,0.238-0.196,0.365-0.278
	c0.438-0.281,0.926-0.459,1.431-0.525c-0.28,0.131-0.563,0.253-0.853,0.355c-0.307,0.109-0.578,0.243-0.827,0.395
	C191.347,172.767,191.307,172.785,191.268,172.802z M193.846,172.557c-0.21,0.051-0.418,0.102-0.626,0.151
	c-0.487,0.117-0.984,0.239-1.479,0.379c0.278-0.17,0.565-0.285,0.973-0.329c0.454-0.05,0.9-0.147,1.339-0.264l-0.005,0.002
	C193.98,172.516,193.911,172.54,193.846,172.557z M154.975,160.137c-0.059-0.136-0.116-0.273-0.167-0.409
	c-0.008-0.021-0.013-0.042-0.021-0.063c0.052,0.087,0.105,0.182,0.158,0.279C154.955,160.008,154.967,160.072,154.975,160.137z
	 M154.511,158.591c-0.012-0.072-0.02-0.146-0.031-0.219c0.037,0.104,0.074,0.207,0.111,0.31
	C154.564,158.652,154.539,158.621,154.511,158.591z M154.695,155.722c0.221,1.173,0.441,2.382,0.582,3.598
	c-0.01-0.024-0.018-0.049-0.028-0.073c-0.026-0.13-0.05-0.261-0.082-0.389c-0.218-0.887-0.521-1.747-0.818-2.58
	c-0.003-0.048-0.004-0.099-0.008-0.146c-0.011-0.151-0.021-0.297-0.033-0.444c0.08-0.005,0.158-0.01,0.231-0.006
	c0.054,0.002,0.102,0.02,0.154,0.028C154.693,155.713,154.694,155.718,154.695,155.722z M162.666,182.516
	c0.098,0.026,0.193,0.053,0.288,0.078c0.08,0.198,0.166,0.394,0.251,0.59C163.024,182.961,162.846,182.735,162.666,182.516z
	 M155.849,160.86c-0.02-0.057-0.041-0.114-0.062-0.172c0.001-0.269-0.004-0.539-0.028-0.807c-0.025-0.274-0.059-0.548-0.092-0.822
	c0.285,1.322,0.555,2.66,0.759,3.992c0.001,0.005,0.001,0.011,0.002,0.016C156.269,162.332,156.095,161.583,155.849,160.86z
	 M157.192,134.573c-0.013,0.387-0.081,1.007-0.214,1.677c-0.153-0.168-0.316-0.325-0.489-0.465c0.083-0.652,0.108-1.292,0.12-1.947
	c0.204,0.176,0.392,0.35,0.545,0.524c0.015,0.018,0.025,0.034,0.04,0.051C157.193,134.467,157.194,134.52,157.192,134.573z
	 M156.415,136.272c0.162,0.149,0.314,0.313,0.451,0.488c-0.219,0.901-0.557,1.808-1.038,2.309c0.124-0.689,0.254-1.39,0.429-2.057
	C156.322,136.762,156.372,136.516,156.415,136.272z M150.856,157.181c0.089,0.43,0.162,0.787,0.172,1.104
	c0.004,0.118,0.014,0.25,0.026,0.385c-0.481-0.274-0.946-0.495-1.343-0.656C150.035,157.748,150.427,157.461,150.856,157.181z
	 M176.254,149.687c-0.095,0.167-0.197,0.328-0.294,0.493c-0.087,0.127-0.176,0.252-0.261,0.38c0.175-0.356,0.359-0.686,0.604-0.963
	l0.003-0.004C176.287,149.624,176.271,149.656,176.254,149.687z M165.729,186.608c-0.078-0.123-0.154-0.245-0.234-0.364
	c-0.044-0.104-0.09-0.206-0.134-0.31c-0.214-0.516-0.527-0.921-0.83-1.311c-0.271-0.351-0.528-0.684-0.718-1.088
	c-0.12-0.257-0.232-0.52-0.342-0.782c0.011,0.003,0.023,0.008,0.033,0.011c0.328,0.114,0.539,0.225,0.757,0.377
	c0.217,0.153,0.456,0.374,0.708,0.646c0.25,0.266,0.442,0.516,0.567,0.733c0.125,0.222,0.189,0.405,0.225,0.63
	C165.818,185.408,165.777,185.971,165.729,186.608z M160.494,177.838c-0.423-0.438-0.756-1.03-1.095-1.796
	c-0.075-0.171-0.149-0.342-0.223-0.513c-0.104-0.262-0.202-0.524-0.28-0.798c-0.082-0.287-0.159-0.58-0.236-0.87
	c0.157,0.337,0.317,0.675,0.483,1.009l0.349,0.703c0.423,0.856,0.859,1.735,1.346,2.585
	C160.72,178.06,160.602,177.95,160.494,177.838z M157.844,170.685c0-0.257,0.004-0.526,0.015-0.806
	c0.006,0.058,0.014,0.115,0.017,0.174c0.017,0.273,0.021,0.551,0.021,0.831C157.88,170.817,157.862,170.751,157.844,170.685z
	 M157.826,166.543c-0.025-0.197-0.056-0.398-0.103-0.607c-0.129-0.587-0.375-1.17-0.655-1.646c-0.043-0.077-0.09-0.153-0.137-0.227
	c-0.014-0.362-0.038-0.722-0.092-1.074c-0.309-2.014-0.76-4.035-1.197-5.99l-0.208-0.934c0.826,0.713,1.25,2.288,1.677,3.558
	c0.025,0.106,0.05,0.213,0.075,0.321l0.097,0.411c0.106,0.456,0.24,0.904,0.369,1.337c0.377,1.261,0.733,2.453,0.446,3.789
	C158.02,165.838,157.926,166.192,157.826,166.543z M149.528,136.071c0.088,0.092,0.176,0.182,0.264,0.269l0.143,0.143
	c0.587,0.592,1.314,0.962,2.017,1.321c0.158,0.08,0.317,0.161,0.475,0.245c0.585,0.31,1.136,0.761,1.601,1.299
	c-0.201-0.091-0.409-0.204-0.646-0.323c-0.501-0.252-1.373-0.968-1.863-1.154c-0.752-0.286-1.529,0.008-2.315-0.197
	C149.033,137.404,149.247,136.765,149.528,136.071z M154.071,168.959c0.042,0.076,0.076,0.144,0.098,0.201l0.092,0.28
	c0.192,0.613,0.352,1.249,0.493,1.896c0.004,0.126,0.002,0.248,0.01,0.377c0.004,0.069,0.012,0.14,0.019,0.21
	c-0.168-0.508-0.304-1.032-0.432-1.546c-0.145-0.58-0.294-1.175-0.495-1.75C153.941,168.75,154.018,168.865,154.071,168.959z
	 M160.011,184.847c-0.037-0.136-0.075-0.264-0.112-0.395c0.465,0.624,0.961,1.182,1.431,1.653c0.06,0.062,0.124,0.117,0.185,0.176
	c0.252,0.348,0.504,0.695,0.738,1.045c0.288,0.427,0.559,0.856,0.811,1.291c0.123,0.217,0.25,0.434,0.361,0.654l0.171,0.327
	c0.033,0.072,0.067,0.148,0.1,0.226c-0.562-0.594-1.204-1.324-1.772-2.097c-0.643-0.873-1.308-1.828-1.901-2.84
	C160.019,184.875,160.015,184.86,160.011,184.847z M140.678,211.602c-0.001-0.063-0.002-0.128-0.004-0.19
	c0.023,0.086,0.051,0.172,0.074,0.26c0.092,0.347,0.173,0.701,0.255,1.055c-0.076-0.185-0.155-0.371-0.242-0.557
	c-0.025-0.052-0.05-0.104-0.074-0.156C140.684,211.877,140.681,211.741,140.678,211.602z M176.321,182.73
	c0.226-0.34,0.484-0.679,0.766-1.01c0.247-0.107,0.533-0.162,0.963-0.205c-0.109,0.083-0.219,0.166-0.33,0.243
	c-0.223,0.15-0.435,0.311-0.646,0.476C176.824,182.4,176.574,182.564,176.321,182.73z M189.317,175.642
	c0.01,0.003,0.02,0.005,0.029,0.009c-0.04,0.03-0.08,0.061-0.121,0.09L189.317,175.642z M218.001,126.544
	c0.053-0.03,0.105-0.065,0.16-0.094c-0.008,0.015-0.018,0.029-0.026,0.045C218.089,126.511,218.045,126.528,218.001,126.544z
	 M218.483,125.853c-0.69,0.255-1.218,0.635-1.844,1.165c-0.285,0.24-0.582,0.464-0.88,0.684c-0.744-0.961-1.523-1.612-0.967-3.317
	c0.127-0.386,0.29-0.757,0.48-1.116c0.027,0.053,0.055,0.106,0.078,0.157l0.036,0.083c0.273,0.607,0.47,1.045,0.875,1.192
	c0.304,0.11,0.67,0.042,1.224-0.229c0.828-0.405,1.4-1.019,1.955-1.612c0.119-0.128,0.243-0.258,0.368-0.387
	c-0.176,0.588-0.358,1.174-0.538,1.75l-0.03,0.1c-0.175,0.56-0.436,1.038-0.72,1.521
	C218.508,125.846,218.496,125.847,218.483,125.853z M223.784,113.817c-0.04,0.1-0.079,0.201-0.117,0.303
	c-2.136,1.531-2.746,4.032-3.281,6.247c-0.105,0.433-0.223,0.868-0.345,1.303c-0.33,0.292-0.623,0.603-0.904,0.905
	c-0.553,0.592-1.075,1.151-1.833,1.521c-0.432,0.21-0.716,0.278-0.899,0.211c-0.238-0.086-0.397-0.438-0.635-0.971l-0.038-0.083
	c-0.071-0.158-0.148-0.283-0.228-0.395c0.643-1.079,1.492-2.061,2.231-3.069c0.268-0.209,0.52-0.441,0.74-0.711
	c0.078-0.095,0.172-0.198,0.269-0.304c0.192-0.212,0.39-0.431,0.518-0.636c0.228-0.367,0.274-0.645,0.329-0.967
	c0.017-0.099,0.038-0.208,0.063-0.325c0.561-0.767,1.23-1.43,2.47-2.185C222.649,114.341,223.205,114.06,223.784,113.817z
	 M176.093,161.453c-0.567,1.065-1.03,2.167-1.416,3.291c-0.043-0.087-0.085-0.177-0.127-0.263c-0.054-0.111-0.108-0.223-0.162-0.334
	c0.152-0.44,0.319-0.866,0.521-1.258c0.112-0.216,0.229-0.427,0.359-0.623c0.064-0.101,0.129-0.198,0.2-0.289l0.264-0.354
	c0.38-0.53,0.661-1.008,0.949-1.395c0.143-0.19,0.283-0.36,0.405-0.47c0.031-0.029,0.064-0.058,0.055-0.051
	c0.005-0.003,0.018-0.012,0.029-0.02C176.781,160.26,176.415,160.847,176.093,161.453z M172.697,161.706
	c-0.009-0.364-0.012-0.731-0.005-1.1c0.042,0.278,0.097,0.551,0.167,0.82C172.804,161.518,172.748,161.611,172.697,161.706z
	 M172.172,151.353c0.703-0.176,1.407-0.351,2.11-0.527c0.606-0.672,1.211-1.346,1.814-2.022c0.27-0.449,0.629-0.758,1.071-0.93
	c-0.328,0.479-0.704,0.908-1.117,1.377l-0.063,0.071c-0.363,0.413-0.606,0.926-0.841,1.422c-0.169,0.358-0.344,0.728-0.56,1.047
	c-0.546,0.807-1.227,1.877-1.763,3.048l-0.524,0.755l-0.413,0.596c-0.02,0.028-0.168,0.177-0.339,0.316
	c-0.174,0.15-0.376,0.304-0.621,0.566c-0.063,0.07-0.129,0.15-0.197,0.25c-0.077,0.116-0.137,0.239-0.182,0.352
	c-0.086,0.228-0.12,0.432-0.137,0.611c-0.031,0.356-0.005,0.639,0.007,0.875c0.007,0.121,0.011,0.208,0.01,0.294l-0.007,0.331
	l-0.072,1.429c-0.018,0.512-0.03,1.012,0.046,1.622c0.086,0.664,0.399,1.286,0.666,1.721l0.341,0.57
	c-0.005,0.018-0.011,0.035-0.015,0.053l-0.22,0.851l-0.104,0.423c-0.037,0.169-0.076,0.34-0.1,0.506
	c-0.214,1.337-0.132,2.542-0.104,3.666c0.012,0.361,0.015,0.711,0.011,1.057l-0.159,0.278l-0.357,0.593
	c-0.247,0.403-0.51,0.828-0.761,1.286c-0.251,0.46-0.47,0.901-0.684,1.365c-0.422,0.917-0.792,1.883-1.078,2.859
	c-0.28,0.932-0.494,1.859-0.707,2.748c-0.256-0.228-0.536-0.452-0.855-0.663c-0.523-0.345-1.131-0.609-1.654-0.766
	c-0.534-0.165-0.981-0.264-1.444-0.366c-0.454-0.101-0.855-0.182-1.181-0.277c-0.15-0.043-0.282-0.089-0.406-0.14
	c-0.641-1.03-1.164-2.09-1.718-3.209l-0.351-0.706c-0.362-0.725-0.701-1.475-1.029-2.2c-0.063-0.138-0.128-0.278-0.191-0.417
	c0.002-0.111,0.002-0.222,0.005-0.333c0.012-0.56,0.026-1.139-0.008-1.703c-0.038-0.631-0.186-1.193-0.38-1.74
	c0.001-0.195-0.001-0.389-0.006-0.577c0.222-0.695,0.44-1.409,0.599-2.143c0.309-1.44-0.078-2.74-0.454-3.996
	c-0.019-0.062-0.037-0.125-0.055-0.188c1.367,1.629,3.518,2.594,5.77,2.477c1.964-0.102,2.963-1.584,4.612-2.381
	c-0.165-1.856-0.711-3.551-0.619-5.452C167.923,152.643,169.285,151.994,172.172,151.353z M149.407,131.013
	c-0.113-0.058-0.235-0.111-0.376-0.152c-0.015-0.004-0.026-0.005-0.041-0.009c-0.053-0.092-0.105-0.19-0.156-0.293
	C149.019,130.72,149.21,130.872,149.407,131.013z M149.191,158.484c0.049-0.051,0.106-0.106,0.167-0.162
	c0.002,0.001,0.005,0.002,0.008,0.003c0.175,0.204,0.319,0.421,0.396,0.659c0.091,0.28,0.14,0.546,0.176,0.815
	C149.655,159.415,149.402,158.986,149.191,158.484z M164.09,191.438c0.047,0.055,0.095,0.109,0.142,0.164
	c0.012,0.047,0.023,0.093,0.035,0.14c-0.054-0.049-0.107-0.101-0.16-0.15c-0.191-0.175-0.372-0.339-0.514-0.533
	c-0.096-0.133-0.18-0.276-0.264-0.421c-0.059-0.1-0.119-0.201-0.184-0.303C163.458,190.707,163.774,191.075,164.09,191.438z
	 M167.794,209.158c0.02,0.153,0.035,0.299,0.05,0.444c-0.025,0.117-0.05,0.234-0.071,0.349c-0.064,0.188-0.124,0.373-0.182,0.56
	C167.652,210.066,167.72,209.616,167.794,209.158z M157.031,240.873c-0.003-0.005-0.007-0.01-0.011-0.017l-0.143-0.432
	c0.007-0.02,0.015-0.038,0.022-0.057C156.943,240.538,156.987,240.705,157.031,240.873z M138.976,208.031
	c-0.002-0.006-0.004-0.014-0.006-0.021c0.161,0.16,0.329,0.314,0.513,0.453c0.114,0.086,0.222,0.159,0.331,0.234
	c0.014,0.038,0.03,0.075,0.044,0.114c0.062,0.169,0.114,0.343,0.173,0.513c-0.306-0.286-0.607-0.571-0.902-0.864
	C139.078,208.318,139.024,208.18,138.976,208.031z M140.163,210.014c0.051,0.354,0.073,0.714,0.084,1.07
	c-0.27-0.567-0.528-1.13-0.768-1.705C139.705,209.591,139.933,209.802,140.163,210.014z M174.205,188.406l-0.003-0.192
	c0.021-0.047,0.042-0.093,0.063-0.14c-0.019,0.104-0.037,0.207-0.054,0.312C174.208,188.392,174.206,188.398,174.205,188.406z
	 M220.025,126.353c-0.313-0.03-0.668-0.075-1.085-0.038c-0.078,0.007-0.156,0.02-0.233,0.033c0-0.002,0.002-0.004,0.003-0.006
	c0.03-0.049,0.058-0.097,0.086-0.145c0.388-0.107,0.771-0.102,1.175-0.088c0.165,0.006,0.333,0.01,0.504,0.008
	c-0.088,0.084-0.176,0.168-0.267,0.253C220.146,126.364,220.091,126.36,220.025,126.353z M224.539,123.553
	c-0.469,0.139-0.869,0.259-1.242,0.402c0.086-0.133,0.168-0.267,0.247-0.401c0.063-0.105,0.127-0.211,0.192-0.315
	c0.066-0.104,0.136-0.202,0.203-0.296c0.177-0.247,0.353-0.504,0.423-0.833c0.023,0.066,0.047,0.138,0.07,0.202
	c0.109,0.298,0.211,0.568,0.277,0.816c0.033,0.119,0.057,0.24,0.075,0.362C224.703,123.512,224.62,123.529,224.539,123.553z
	 M223.846,116.221c-0.04-0.196-0.075-0.389-0.077-0.602c-0.002-0.39,0.104-0.818,0.249-1.238c0.011-0.007,0.021-0.016,0.032-0.023
	c0.081,0.274,0.134,0.543,0.152,0.809C224.065,115.51,223.946,115.862,223.846,116.221z M224.293,113.679
	c0.01-0.021,0.018-0.042,0.026-0.062c0.003-0.005,0.005-0.01,0.008-0.015c0.05-0.018,0.101-0.034,0.151-0.052
	C224.417,113.594,224.354,113.635,224.293,113.679z M187.264,148.029c-0.324,0.52-0.615,1.074-0.896,1.622
	c-0.093,0.179-0.182,0.354-0.273,0.526c-0.153,0.293-0.278,0.601-0.385,0.915c-0.284,0.331-0.586,0.643-0.916,0.92
	c-0.191,0.165-0.395,0.315-0.599,0.464c-0.259,0.182-0.508,0.377-0.735,0.564c-0.459,0.375-0.873,0.736-1.275,1.022
	c-0.204,0.145-0.389,0.26-0.592,0.365c-0.219,0.112-0.45,0.218-0.705,0.329c-0.501,0.218-1.108,0.474-1.682,0.849
	c-1.149,0.768-1.813,1.584-2.576,1.732c-0.15,0.053-0.33,0.118-0.534,0.22c-0.101,0.05-0.211,0.115-0.322,0.189
	c-0.126,0.089-0.199,0.153-0.275,0.217c-0.306,0.265-0.53,0.535-0.736,0.793c-0.402,0.516-0.711,1.012-1.006,1.396l-0.254,0.322
	c-0.105,0.132-0.203,0.266-0.296,0.404c-0.013,0.018-0.023,0.036-0.036,0.054c-0.093-0.449-0.148-0.907-0.144-1.378
	c0.002-0.272-0.008-0.551-0.018-0.832c-0.008-0.224-0.013-0.451-0.015-0.677c0.03-0.121,0.063-0.241,0.098-0.361
	c0.116-0.115,0.24-0.253,0.376-0.45l0.387-0.598l0.775-1.195l0.775-1.196c0.264-0.403,0.551-0.81,0.81-1.225
	c0.528-0.828,1.023-1.676,1.481-2.543c0.478-0.914,0.918-1.848,1.313-2.8c0.024,0,0.048-0.002,0.072-0.002
	c1.103-0.612,1.514-1.937,2.665-2.533c1.481-0.766,3.307-0.353,4.44,0.775C186.891,146.618,187.202,147.322,187.264,148.029z
	 M149.935,172.629c0.123,0.339,0.245,0.701,0.367,1.096c0.126,0.406,0.232,0.825,0.334,1.229c0.072,0.288,0.149,0.579,0.232,0.872
	c-0.12-0.036-0.238-0.075-0.352-0.127c-0.284-0.127-0.567-0.305-0.844-0.516C149.99,174.394,150.03,173.528,149.935,172.629z
	 M151.041,174.852c-0.104-0.41-0.211-0.833-0.34-1.25c-0.284-0.917-0.565-1.673-0.871-2.34c0.064-1.667,1.022-3.103,1.964-4.583
	c0.049,1.243,0.143,2.376,0.286,3.468c0.28,2.129,1.278,3.857,2.252,5.695c-0.235-0.032-0.477-0.227-0.731-0.227
	c-0.012,0-0.023,0-0.035,0c-0.208,0-0.419,0.18-0.631,0.187c-0.538,0.017-1.087,0.119-1.605,0.041
	C151.226,175.491,151.133,175.219,151.041,174.852z M152.949,176.389c0.208-0.007,0.415-0.014,0.62-0.015
	c0.238,0.001,0.605,0.02,1.009,0.105c0.13,0.247,0.262,0.494,0.388,0.742c0.273,0.533,0.541,1.077,0.809,1.621
	c0.401,0.814,0.809,1.641,1.243,2.454c-0.318-0.169-0.643-0.32-0.964-0.468c-0.741-0.338-1.439-0.658-2.002-1.192
	c-0.224-0.214-0.447-0.409-0.665-0.597c-0.646-0.562-1.204-1.049-1.584-1.845c-0.131-0.273-0.235-0.551-0.33-0.83
	C151.959,176.418,152.458,176.404,152.949,176.389z M156.148,178.659c-0.269-0.548-0.538-1.092-0.812-1.628
	c-0.066-0.13-0.137-0.262-0.205-0.392c0.252,0.094,0.503,0.22,0.733,0.392l0.006,0.07c0.022,0.277,0.073,0.708,0.194,1.093
	c0.121,0.395,0.268,0.713,0.413,1.002c0.302,0.599,0.656,1.108,0.949,1.549c0.233,0.353,0.492,0.728,0.75,1.093
	c0.034,0.108,0.065,0.218,0.102,0.325c-0.139-0.109-0.275-0.224-0.415-0.33c-0.038-0.029-0.078-0.053-0.116-0.081
	C157.18,180.737,156.656,179.689,156.148,178.659z M158.466,182.845c0.017,0.065,0.036,0.129,0.054,0.193
	c-0.063-0.1-0.128-0.201-0.19-0.303C158.374,182.772,158.42,182.809,158.466,182.845z M161.227,187.842
	c0.458,0.647,0.935,1.284,1.434,1.902c-0.114-0.12-0.229-0.235-0.343-0.351c-0.172-0.173-0.338-0.341-0.497-0.517
	C161.615,188.536,161.419,188.191,161.227,187.842z M167.381,202.916l0.125,0.501l0.077,0.278l-0.004,0.308
	c-0.016,0.057-0.034,0.111-0.049,0.169c-0.092-0.552-0.172-1.104-0.233-1.656C167.326,202.649,167.35,202.782,167.381,202.916z
	 M160.581,233.979c-1.012,1.682-2.002,3.451-2.819,5.361c-0.088,0.201-0.166,0.405-0.247,0.611c-0.071-0.187-0.15-0.367-0.227-0.549
	c0.649-1.562,1.541-2.881,2.486-4.272c0.272-0.399,0.548-0.813,0.822-1.23C160.591,233.928,160.586,233.953,160.581,233.979z
	 M156.717,239.694c-0.015,0.036-0.03,0.075-0.045,0.113l-0.061-0.181c-0.115-0.349-0.231-0.7-0.348-1.05
	c0.001-0.135,0.003-0.268,0.002-0.402c0.029,0.057,0.055,0.117,0.084,0.174C156.476,238.797,156.597,239.245,156.717,239.694z
	 M127.031,189.013c-0.001,0.019-0.002,0.039-0.003,0.059c-0.071-0.133-0.138-0.267-0.204-0.399
	C126.894,188.785,126.962,188.898,127.031,189.013z M181.02,180.648l0.106-0.057c0.034-0.018,0.028-0.016,0.094-0.042
	c0.098-0.038,0.207-0.075,0.317-0.112c0.45-0.15,0.997-0.286,1.604-0.522c0.557-0.227,0.952-0.456,1.358-0.692
	c0.392-0.097,0.787-0.185,1.19-0.258c0.756-0.136,1.508-0.367,2.251-0.669c-0.388,0.25-0.782,0.498-1.201,0.748
	c-0.156,0.094-0.313,0.191-0.471,0.29c-0.674,0.425-1.37,0.862-2.147,0.95c-0.242,0.026-0.493,0.011-0.76-0.008
	c-0.225-0.016-0.457-0.031-0.687-0.019c-0.353,0.019-0.606,0.111-0.852,0.201c-0.134,0.048-0.273,0.099-0.439,0.141
	c-0.164,0.04-0.321,0.076-0.477,0.111C180.946,180.688,180.985,180.665,181.02,180.648z M185.615,178.555
	c-0.015,0.003-0.028,0.007-0.044,0.01c0.632-0.409,1.235-0.829,1.828-1.241c0.145-0.065,0.291-0.125,0.431-0.197
	c0.211-0.105,0.416-0.224,0.616-0.347c0.66-0.256,1.296-0.574,1.92-0.895c0.06,0.009,0.118,0.024,0.179,0.033
	c0.163,0.023,0.327,0.037,0.491,0.053c-0.265,0.25-0.536,0.489-0.817,0.716C188.72,177.563,187.17,178.276,185.615,178.555z
	 M219.137,127.833c0.026-0.002,0.052-0.004,0.079-0.006c-0.053,0.023-0.107,0.046-0.162,0.069
	C219.082,127.875,219.109,127.854,219.137,127.833z M225.95,121.916c-0.02-0.051-0.042-0.106-0.062-0.157
	c-0.055-0.14-0.106-0.274-0.149-0.402l-0.062-0.186l-0.059-0.215c-0.095-0.346-0.22-0.663-0.325-0.94
	c-0.106-0.287-0.19-0.508-0.23-0.769c-0.031-0.126,0.142-0.257,0.13-0.39c-0.018-0.131,0.166-0.266,0.166-0.403
	c0-0.018,0-0.036,0-0.053c0,0.042-0.131,0.084-0.101,0.125c0.126,0.172,0.149,0.335,0.22,0.503
	C225.913,120.08,225.998,120.974,225.95,121.916z M224.511,114.461c-0.028-0.118-0.06-0.236-0.099-0.357
	c0.146-0.102,0.296-0.203,0.44-0.309C224.73,114.013,224.618,114.236,224.511,114.461z M244.663,95.087
	c0.021,0.031,0.043,0.059,0.064,0.092c0.376,0.602,0.526,1.256,0.644,1.908c-1.186,0.055-2.362,0.162-3.546,0.276
	c0.164-0.401,0.369-0.757,0.659-0.992c0.182-0.152,0.444-0.247,0.746-0.378c0.299-0.127,0.599-0.299,0.863-0.481
	C244.293,95.375,244.48,95.23,244.663,95.087z M151.125,117.234c-0.125,0.536-0.262,1.118-0.448,1.634
	c0.141-0.651,0.263-1.291,0.369-1.883c0.131-0.74,0.237-1.48,0.338-2.196c0.027-0.194,0.058-0.388,0.085-0.582
	c-0.013,0.925-0.045,1.763-0.262,2.67L151.125,117.234z M148.47,106.141c0.192,0.202,0.378,0.409,0.546,0.627
	c0.718,0.935,1.159,2.209,1.55,3.333l0.086,0.247c0.058,0.166,0.116,0.328,0.174,0.489c0.123,0.341,0.243,0.675,0.346,1.013
	c0.011,0.12,0.023,0.239,0.024,0.36c0.002,0.387-0.049,0.754-0.124,1.117c0.018-0.296,0.03-0.625-0.076-0.908
	c-0.103-0.271-0.294-0.542-0.479-0.803c-0.143-0.203-0.29-0.411-0.384-0.604c-0.217-0.445-0.508-0.829-0.788-1.2
	c-0.196-0.259-0.382-0.503-0.542-0.765c-0.344-0.565-0.668-1.242-0.955-1.839l-0.071-0.149c-0.089-0.186-0.17-0.375-0.248-0.568
	C147.837,106.384,148.152,106.268,148.47,106.141z M150.662,116.054c-0.056,0.497-0.231,0.969-0.417,1.469
	c-0.176,0.472-0.358,0.961-0.429,1.474c-0.062,0.439-0.219,0.873-0.386,1.333c-0.11,0.304-0.222,0.615-0.308,0.935
	c0.03-1.475,0.17-2.828,0.87-4.23c0.125-0.251,0.263-0.493,0.4-0.733c0.098-0.171,0.197-0.347,0.291-0.525
	C150.678,115.87,150.672,115.963,150.662,116.054z M148.281,122.829c0,0.049,0.169,0.095,0.149,0.143
	c-0.088,0.147-0.102,0.276-0.226,0.41c-0.127,0.137-0.206,0.278-0.306,0.444c-0.236,0.393-0.331,1.05-0.343,2.01
	c-0.003,0.227,0.011,0.454,0.011,0.681c-0.3-0.614-0.52-1.256-0.581-1.873c-0.03-0.37,0.008-0.721,0.13-1.01
	c0.126-0.286,0.126-0.526,0.424-0.706c0.263-0.169,0.74-0.22,0.74-0.272v0.109C148.281,122.786,148.281,122.808,148.281,122.829z
	 M148.008,129.717c0.045,0.119,0.094,0.239,0.148,0.362c0.112,0.261,0.219,0.495,0.327,0.711c-0.346,0.003-0.601,0.058-1.071-0.332
	c-0.671-0.556-0.487-1.994-0.765-2.761C147.029,128.417,147.479,129.088,148.008,129.717z M130.887,195.02
	c-0.044-0.054-0.086-0.111-0.128-0.167c0.105,0.122,0.209,0.246,0.314,0.369C131.009,195.158,130.947,195.089,130.887,195.02z
	 M137.606,206.137c-0.011-0.042-0.022-0.086-0.033-0.128c0.029,0.073,0.054,0.144,0.083,0.219c0.053,0.133,0.098,0.271,0.147,0.406
	c-0.043-0.076-0.086-0.152-0.13-0.227C137.651,206.316,137.628,206.228,137.606,206.137z M240.457,93.416
	c0.84,0.201,1.46-0.011,2.38,0.388c0.597,0.26,1.045,0.468,1.415,0.804c-0.173,0.128-0.345,0.253-0.519,0.366
	c-0.25,0.163-0.491,0.293-0.766,0.403c-0.263,0.111-0.6,0.211-0.908,0.446c-0.562,0.441-0.835,1.058-1.046,1.619
	c-0.384,0.037-0.767,0.073-1.153,0.107c-2.298,0.202-1.514,0.406-3.304,1.954c-0.235,0.204-0.476,0.378-0.718,0.528
	c-0.017-1.156,0.098-2.257,0.716-3.29c0.46-0.769,1.172-1.237,1.926-1.732c0.511-0.336,1.039-0.684,1.501-1.139
	C240.136,93.719,240.296,93.568,240.457,93.416z M175.752,99.63c-0.138,0.797-0.45,1.164-0.867,1.261
	c0.036-0.104,0.07-0.205,0.101-0.303c0.255-0.805,0.543-1.399,0.727-2.059C175.788,98.921,175.81,99.293,175.752,99.63z
	 M155.419,131.007c-0.446-0.241-0.895-0.455-1.335-0.653c-0.487-0.229-0.985-0.425-1.463-0.622c-0.007-0.141-0.006-0.292,0-0.446
	c0.285,0.093,0.569,0.197,0.835,0.338c0.611,0.324,1.17,0.698,1.696,1.092C155.247,130.813,155.337,130.91,155.419,131.007z
	 M152.648,128.857c0.008-0.105,0.017-0.209,0.026-0.312c0.006-0.065,0.01-0.125,0.016-0.188c0.189,0.186,0.376,0.372,0.56,0.558
	c0.094,0.095,0.192,0.19,0.288,0.286C153.245,129.058,152.945,128.951,152.648,128.857z M152.258,128.508
	c-0.006,0.071-0.012,0.147-0.018,0.22c-0.57-0.18-1.103-0.375-1.527-0.806c-0.585-0.592-0.967-1.405-1.189-2.3
	c0.461,0.488,1.023,0.93,1.571,1.356c0.176,0.137,0.35,0.271,0.518,0.406c0.235,0.189,0.461,0.392,0.683,0.599
	C152.288,128.147,152.275,128.321,152.258,128.508z M151.599,111.766c-0.002,0.009-0.005,0.019-0.008,0.027
	c-0.002-0.008-0.005-0.018-0.008-0.026c-0.062-0.627-0.271-1.232-0.441-1.819c-0.179-0.621-0.452-1.262-0.452-1.919
	c0-0.006,0-0.012,0-0.018c0,0.15,0.137,0.304,0.176,0.465c0.234,1.049,0.536,2.118,0.71,3.155c0.005,0.035,0.019,0.07,0.025,0.104
	C151.596,111.746,151.603,111.756,151.599,111.766z M150.533,106.234c-0.083-0.072-0.165-0.145-0.251-0.208l-0.577-0.414
	c0.394-0.178,0.789-0.364,1.182-0.556C150.751,105.442,150.628,105.834,150.533,106.234z M142.381,107.079
	c1.333,0.286,2.934,0.013,4.116-0.282c0.207-0.052,0.42-0.114,0.634-0.18c0.084,0.21,0.172,0.418,0.27,0.621l0.071,0.15
	c0.291,0.605,0.62,1.292,0.976,1.875c0.169,0.279,0.37,0.544,0.564,0.8c0.269,0.354,0.547,0.722,0.746,1.13
	c0.109,0.224,0.266,0.446,0.418,0.662c0.17,0.241,0.345,0.489,0.429,0.711c0.082,0.214,0.064,0.503,0.048,0.782
	c-0.006,0.11-0.012,0.217-0.013,0.317c-0.001,0.288,0.012,0.587,0.027,0.888c0.003,0.071,0.006,0.143,0.01,0.214
	c-0.156,0.459-0.393,0.882-0.647,1.328c-0.14,0.247-0.282,0.495-0.411,0.752c-0.777,1.556-0.897,3.026-0.918,4.645l-0.039,0.004
	c-0.21,0.022-0.452,0.039-0.724,0.095c-0.271,0.057-0.553,0.165-0.79,0.302c-0.48,0.261-0.912,0.703-1.158,1.229
	c-0.245,0.527-0.303,1.091-0.278,1.608c0.068,1,0.398,1.885,0.8,2.709c-0.04-0.056-0.085-0.106-0.139-0.144
	c-0.875-0.609-3.051-0.166-4.132-0.167c-0.177,0-0.385,0.002-0.614,0.003c-0.019-0.229-0.031-0.461-0.028-0.706
	c0.009-0.642-0.064-1.092-0.213-1.748c-0.075-0.331-0.182-0.644-0.287-0.948c-0.059-0.172-0.115-0.342-0.166-0.511
	c0.43-0.282,0.85-0.707,1.147-0.912c0.886-0.612,2.315-1.108,3.035-1.963c-0.852-0.469-1.987,0.119-2.934-0.196
	c-0.684-2.242,1.941-4.078,1.227-6.192c-0.35-1.038-1.759-1.186-2.311-2.342c-0.49-1.027-0.695-3.674-0.327-5.137
	C141.308,106.734,141.845,106.963,142.381,107.079z M140.21,123.5c0.112-0.001,0.23-0.035,0.349-0.082
	c0.047,0.151,0.097,0.302,0.147,0.449c0.101,0.293,0.205,0.596,0.275,0.904c0.14,0.624,0.21,1.049,0.202,1.65
	c-0.003,0.249-0.223,0.482-0.206,0.712c-1.877-0.004-4.74-0.131-5.944-1.451c0-0.003,0-0.005,0-0.007
	c0-0.253,0.174-0.506,0.105-0.775c-0.04-0.163,0.018-0.332-0.051-0.492c0.038-0.303,0.195-0.639,0.366-1.012
	C136.819,120.42,138.398,123.512,140.21,123.5z M124.954,186.868c-0.147-0.396-0.265-0.8-0.372-1.207
	c0.147,0.121,0.293,0.235,0.434,0.341c0.081,0.06,0.159,0.115,0.237,0.172c0.112,0.172,0.228,0.341,0.339,0.513
	c0.01,0.016,0.019,0.031,0.028,0.047c0.201,0.66,0.44,1.298,0.73,1.92c0.146,0.468,0.364,0.869,0.633,1.224
	c-0.001,0.018-0.002,0.036-0.003,0.055c-0.344-0.493-0.681-0.994-1.01-1.489c-0.301-0.45-0.612-0.91-0.927-1.366
	C125.015,187.006,124.981,186.939,124.954,186.868z M134.907,201.643c-0.018-0.053-0.031-0.104-0.049-0.155
	c0.13,0.11,0.238,0.22,0.327,0.334c0.049,0.063,0.095,0.128,0.139,0.198c0.022,0.034,0.044,0.07,0.065,0.109l0.103,0.177
	c0.196,0.339,0.416,0.635,0.607,0.883c0.155,0.198,0.282,0.36,0.387,0.503c0.079,0.234,0.155,0.469,0.225,0.701
	c0.083,0.278,0.159,0.558,0.233,0.836c-0.483-0.742-0.987-1.47-1.498-2.185C135.261,202.603,135.081,202.137,134.907,201.643z
	 M140.365,213.247c0.001,0.004,0.001,0.01,0.003,0.015c-0.002-0.007-0.004-0.013-0.005-0.019
	C140.364,213.243,140.365,213.246,140.365,213.247z M141.78,217.548c0.006,0.048,0.011,0.094,0.018,0.142
	c0,0.007,0.002,0.014,0.002,0.02c-0.114-0.24-0.217-0.482-0.315-0.725C141.578,217.176,141.676,217.363,141.78,217.548z
	 M173.798,191.678c0.021-0.065,0.043-0.133,0.064-0.199c0.02,0.001,0.042,0.001,0.062,0.004c-0.002,0.026-0.005,0.055-0.008,0.082
	C173.877,191.603,173.837,191.639,173.798,191.678z M198.504,186.66c0.912-0.222,1.884-0.391,2.881-0.648
	c0.994-0.26,2.032-0.621,2.96-1.233c0.932-0.61,1.609-1.305,2.342-1.79c0.116-0.081,0.23-0.149,0.347-0.215
	c-0.289,0.595-0.573,1.193-0.606,1.801c-0.126,2.281,0.606,3.706,1.668,4.962c-0.078-0.043-0.156-0.086-0.235-0.133
	c-0.282-0.164-0.575-0.333-0.949-0.396c-0.299-0.05-0.619-0.025-0.929-0.002c-0.197,0.015-0.385,0.03-0.559,0.023
	c-0.385-0.012-0.662-0.098-0.984-0.196c-0.134-0.041-0.274-0.084-0.429-0.125c-0.54-0.141-1.058-0.195-1.557-0.25
	c-0.746-0.078-1.451-0.153-2.217-0.494c-0.561-0.247-1.378-0.631-2.006-1.076c-0.046-0.032-0.093-0.079-0.14-0.121
	C198.229,186.73,198.365,186.694,198.504,186.66z M223.252,159.355c0.16-0.073,0.331-0.125,0.511-0.155
	c-0.179,0.066-0.358,0.146-0.535,0.25C223.236,159.418,223.243,159.387,223.252,159.355z M233.536,121.656
	c-0.17,0.046-0.342,0.094-0.515,0.144c0.717-0.614,1.4-1.25,2.087-1.849c0.773-0.671,1.564-1.281,2.429-1.773
	c0.005,1.188-0.172,1.785-1.364,2.492C235.346,121.161,234.466,121.402,233.536,121.656z M238.149,116.506
	c0.022-0.096,0.045-0.196,0.066-0.294c0.104,0.113,0.208,0.226,0.308,0.344c-0.142,0.069-0.289,0.139-0.434,0.207
	C238.109,116.678,238.129,116.593,238.149,116.506z M240.008,93.268c-0.106,0.102-0.216,0.204-0.318,0.306
	c-0.434,0.425-0.943,0.762-1.438,1.086c-0.76,0.5-1.544,1.016-2.053,1.866c-0.709,1.185-0.805,2.462-0.771,3.733
	c-3.827,1.891-7.985-2.485-7.062-6.597c0.756-3.362,5.68-4.146,8.684-3.364c0.389,0.102,0.762,0.256,1.127,0.433
	C238.588,91.724,239.011,92.814,240.008,93.268z M162.82,121.545c-0.848,0.937-2.405,0.233-3.824,0.037
	c0.095-0.024,0.19-0.048,0.284-0.083c0.489-0.174,0.9-0.474,1.252-0.785c0.213-0.198,0.338-0.373,0.482-0.542
	c0.069-0.083,0.138-0.163,0.204-0.232c0.067-0.07,0.116-0.111,0.19-0.16c0.137-0.091,0.289-0.132,0.528-0.194
	c0.232-0.058,0.521-0.186,0.721-0.364c0.36-0.315,0.633-0.647,0.909-0.984C163.52,119.573,163.264,121.055,162.82,121.545z
	 M155.018,124.91c0.67,0.591,1.7,0.216,2.458,0.685c0.146,0.091,0.29,0.199,0.429,0.318c-0.301,1.157,0.169,2.452,1.107,3.153
	c-0.203,0.49-0.615,0.876-1.114,1.363c-0.462,0.452-0.669,0.916-0.75,1.405c-0.011-0.01-0.025-0.023-0.036-0.034
	c-0.524-0.471-1.081-0.948-1.683-1.4c-0.135-0.135-0.279-0.27-0.438-0.403c-0.508-0.429-0.984-0.91-1.445-1.375
	c-0.268-0.271-0.542-0.546-0.824-0.814c0-0.027,0.003-0.058,0.003-0.085c0-0.131-0.009-0.274-0.019-0.419
	c-0.017-0.26-0.034-0.53,0.005-0.746c0.022-0.123,0.079-0.227,0.144-0.348c0.067-0.123,0.14-0.259,0.178-0.426l0.088-0.021
	l-0.097-0.405l-0.373,0.089l-0.011,0.152c-0.011,0.152-0.076,0.273-0.152,0.413c-0.072,0.133-0.154,0.284-0.188,0.472
	c-0.048,0.267-0.029,0.562-0.01,0.847c0.002,0.029,0.002,0.056,0.004,0.084c-0.138-0.121-0.277-0.24-0.42-0.354
	c-0.17-0.137-0.345-0.273-0.522-0.411c-0.566-0.44-1.153-0.896-1.603-1.392c-0.083-0.092-0.153-0.188-0.217-0.284
	c0.003-0.093,0.002-0.184,0.005-0.278c0.012-0.244,0.029-0.432,0.096-0.641c0.187-0.708,0.845-1.355,1.392-2.226
	c0.089-0.014,0.178-0.025,0.27-0.036c0.408-0.041,0.838-0.042,1.284-0.041c0.435,0,0.932,0.014,1.433-0.089
	c0.515-0.106,0.909-0.287,1.299-0.366c0.109-0.024,0.183-0.039,0.26-0.043c0.079-0.006,0.162-0.004,0.25,0.006
	c0.175,0.019,0.367,0.068,0.572,0.132c0.205,0.062,0.423,0.136,0.662,0.197c0.119,0.031,0.246,0.056,0.375,0.076
	c0.032,0.004,0.056,0.003,0.086,0.006C156.11,122.089,153.384,123.467,155.018,124.91z M109.318,123.349
	c-0.172-0.267-0.312-0.458-0.46-0.673c-0.889-1.313-1.592-2.754-2.226-4.238c0.243,0.278,0.487,0.564,0.719,0.877
	c0.293,0.394,0.479,0.683,0.689,1.169c0.15,0.348,0.343,0.646,0.528,0.934c0.163,0.252,0.317,0.49,0.44,0.754
	c0.238,0.509,0.432,1.101,0.588,1.731C109.515,123.714,109.426,123.527,109.318,123.349z M104.663,115.329
	c-0.145-0.181-0.28-0.364-0.403-0.555c0.073,0.008,0.146,0.018,0.218,0.027C104.539,114.978,104.6,115.154,104.663,115.329z
	 M98.579,111.827c0.186,0.262,0.234,0.571,0.25,0.884c-0.451-0.206-0.878-0.446-1.264-0.779c-0.273-0.235-0.428-0.575-0.591-0.936
	c-0.015-0.032-0.03-0.064-0.045-0.097C97.577,111.023,98.19,111.279,98.579,111.827z M103.746,114.721
	c0.125,0.231,0.266,0.444,0.42,0.647c-0.442-0.267-0.917-0.47-1.384-0.668c-0.043-0.018-0.086-0.041-0.129-0.061
	C103.022,114.657,103.385,114.686,103.746,114.721z M122.457,182.444c0.053,0.161,0.102,0.32,0.164,0.481
	c0.107,0.278,0.23,0.564,0.381,0.851c-0.251-0.483-0.489-0.976-0.709-1.481C122.348,182.346,122.403,182.395,122.457,182.444z
	 M134.287,201.067c0.068,0.218,0.133,0.437,0.209,0.655c-0.229-0.318-0.46-0.638-0.687-0.955
	C133.959,200.858,134.141,200.974,134.287,201.067z M173.536,225.309l0.407-1.278c0.111-0.361,0.217-0.741,0.317-1.127
	c0.291-0.91,0.561-1.842,0.675-2.784c0.093-0.763,0.071-1.551,0.05-2.313c-0.002-0.104-0.002-0.206-0.004-0.31
	c0.004-0.117,0.009-0.234,0.012-0.349c0.128,1.34,0.159,2.704,0.094,4.094c-0.341,1.707-0.902,3.355-1.589,4.958
	C173.515,225.903,173.527,225.605,173.536,225.309z M175,214.317l-0.004-0.343c0.187,0.916,0.317,1.843,0.38,2.782
	C175.286,215.935,175.161,215.121,175,214.317z M173.025,196.18c0.007-0.18,0.006-0.359,0-0.536
	c0.125-0.765,0.268-1.518,0.417-2.298l0.089-0.475c0.081-0.049,0.164-0.096,0.246-0.141c-0.175,1.351-0.396,2.7-0.63,4.037
	C173.103,196.572,173.062,196.376,173.025,196.18z M221.568,194.168c-0.497-0.328-0.834-0.81-1.189-1.319
	c-0.01-0.013-0.02-0.027-0.029-0.042c0.545,0.141,0.998,0.355,1.241,0.679c0.211,0.276,0.321,0.597,0.398,0.926
	C221.851,194.341,221.712,194.262,221.568,194.168z M228.704,159.78c0.029,0.029,0.059,0.06,0.104,0.107
	c0.008,0.01,0.021,0.02,0.03,0.03c-0.116-0.039-0.235-0.072-0.351-0.116C228.56,159.793,228.63,159.784,228.704,159.78z
	 M234.285,160.053c-0.013,0.008-0.027,0.018-0.039,0.025c-0.188,0.127-0.345,0.23-0.57,0.313
	C233.882,160.281,234.082,160.166,234.285,160.053z M236.472,158.803l1.386-0.81c0.012-0.007,0.024-0.014,0.036-0.021
	c0.003,0.004,0.007,0.007,0.011,0.011c-0.131,0.085-0.26,0.171-0.389,0.255c-0.37,0.245-0.742,0.489-1.11,0.738
	c-0.293,0.198-0.618,0.333-0.961,0.477c-0.122,0.051-0.246,0.106-0.369,0.161C235.542,159.347,236.008,159.075,236.472,158.803z
	 M235.008,155.498c0.766,0.359,1.351,0.865,1.879,1.403c-0.226,0.188-0.438,0.39-0.648,0.589c-0.431,0.409-0.877,0.832-1.409,1.114
	c-1.04,0.552-2.103,0.81-3.346,0.81c-0.343-0.001-0.706-0.017-1.072-0.035c-0.261-0.012-0.526-0.022-0.791-0.029
	c-0.033-0.03-0.063-0.061-0.107-0.111c-0.074-0.083-0.199-0.237-0.376-0.355c-0.174-0.116-0.355-0.188-0.558-0.225
	c-0.354-0.056-0.63-0.04-0.914-0.03l-0.797,0.046c-0.278,0.01-0.556,0.027-0.833,0.054c-0.218,0.021-0.437,0.051-0.655,0.084
	c-0.613-0.088-1.167-0.104-1.643-0.033c-0.122,0.019-0.241,0.045-0.356,0.08c0.188-0.757,0.367-1.478,0.743-2.125
	c0.742-0.392,1.719-0.578,2.634-0.75c0.548-0.103,1.064-0.2,1.499-0.336c0.725-0.226,1.535-0.429,2.395-0.643
	c0.658-0.165,1.344-0.336,2.029-0.53C233.481,154.782,234.351,155.19,235.008,155.498z M230.55,154.602
	c-0.864,0.215-1.682,0.42-2.418,0.65c-0.41,0.128-0.916,0.223-1.451,0.324c-0.666,0.125-1.392,0.261-2.052,0.491
	c0.063-0.066,0.118-0.135,0.188-0.199c1.648-1.514,4.655-2.227,6.787-1.736c0.122,0.028,0.251,0.063,0.385,0.104
	C231.507,154.362,231.024,154.483,230.55,154.602z M242.364,74.999c-0.219,0.598-0.291,1.27-0.15,2.083
	c-0.546-0.255-1.051-0.458-1.526-0.621c-0.179-0.166-0.35-0.339-0.511-0.522C240.333,75.223,241.26,75.021,242.364,74.999z
	 M154.265,103.358c0.695-0.344,1.264-0.479,1.765-0.474c-0.141,0.142-0.274,0.292-0.383,0.469c-0.859,1.388-0.034,4.53,0.921,5.806
	c0.967,1.292,2.451,2.234,3.477,3.522c0.295,0.37,0.596,0.939,0.93,1.281c0.763,0.78,1.869,1.036,2.367,2.074
	c0.119,0.249,0.19,0.695,0.219,1.23c-0.141,0.175-0.297,0.353-0.438,0.525c-0.285,0.328-0.585,0.664-0.889,0.912
	c-0.141,0.112-0.272,0.165-0.473,0.213c-0.192,0.043-0.483,0.105-0.726,0.256c-0.117,0.067-0.243,0.167-0.331,0.257
	c-0.092,0.09-0.17,0.178-0.247,0.264c-0.149,0.167-0.299,0.347-0.418,0.447c-0.323,0.268-0.66,0.487-1.019,0.601
	c-0.358,0.117-0.753,0.134-1.17,0.106c-0.109-0.007-0.208-0.016-0.29-0.03c-0.091-0.017-0.183-0.038-0.279-0.066
	c-0.192-0.056-0.395-0.131-0.614-0.206c-0.219-0.075-0.458-0.15-0.726-0.189c-0.132-0.021-0.273-0.03-0.416-0.024
	c-0.146,0.004-0.293,0.03-0.402,0.051c-0.488,0.088-0.923,0.263-1.288,0.319c-0.378,0.066-0.779,0.045-1.235,0.029
	c-0.336-0.011-0.684-0.017-1.039-0.008c0.33-0.875,0.516-1.742,0.699-2.601l0.167-0.796c0.044-0.23,0.131-0.455,0.214-0.764
	c0.082-0.302,0.12-0.64,0.112-0.95l-0.012-0.813c-0.01-0.552-0.008-1.06-0.029-1.648c-0.027-0.574-0.111-1.135-0.217-1.684
	c-0.049-0.246-0.103-0.488-0.159-0.728c0.055-0.241,0.101-0.485,0.119-0.737c0.105-1.446-0.218-3.172-0.866-4.618
	c-0.076-0.17-0.139-0.337-0.197-0.504c0.011-0.03,0.022-0.06,0.033-0.089C152.413,104.301,153.38,103.796,154.265,103.358z
	 M115.183,117.229c0.356,0.727,0.211,3.167-0.019,4.221c-0.283-0.194-0.542-0.398-0.791-0.598c-0.459-0.368-0.893-0.716-1.47-0.995
	l-0.226-0.108c-0.689-0.329-1.471-0.703-1.999-1.232c-0.811-0.813-1.22-1.896-1.231-3.235
	C111.486,115.303,114.215,115.255,115.183,117.229z M108.631,115.263c0.129,0.006,0.264,0.01,0.402,0.013
	c0.008,1.455,0.457,2.639,1.351,3.536c0.579,0.581,1.395,0.97,2.115,1.314l0.224,0.108c0.535,0.258,0.951,0.591,1.39,0.944
	c0.274,0.219,0.557,0.446,0.88,0.663c0.016,0.011,0.032,0.021,0.049,0.032c-0.495,1.55-1.592,2.767-2.961,3.473
	c-0.208-0.08-0.35-0.098-0.52-0.127c-0.331-0.041-0.635-0.037-0.932-0.023c-0.12,0.006-0.233,0.019-0.352,0.028
	c-0.166-1.19-0.47-2.327-0.891-3.228c-0.135-0.29-0.304-0.551-0.467-0.804c-0.176-0.274-0.359-0.557-0.496-0.873
	c-0.225-0.521-0.433-0.842-0.738-1.253c-0.34-0.458-0.699-0.863-1.047-1.255c-0.173-0.195-0.341-0.387-0.506-0.581
	c-0.02-0.05-0.041-0.101-0.062-0.151c-0.285-0.728-0.587-1.458-0.866-2.186C106.331,115.043,107.451,115.209,108.631,115.263z
	 M102.654,120.866c-0.466-0.361-0.98-0.731-1.678-0.823c-0.586-0.06-1.163-0.059-1.74-0.017c-0.288,0.021-0.576,0.053-0.864,0.102
	c-0.278,0.041-0.608,0.124-0.875,0.237c-0.54,0.216-1.03,0.476-1.521,0.596c-0.511,0.108-1.065,0.168-1.595,0.157
	c-1.059-0.004-2.146-0.372-2.73-1.245c-0.292-0.42-0.482-0.949-0.65-1.47c-0.168-0.526-0.31-1.072-0.516-1.609
	c-0.071-0.184-0.161-0.366-0.257-0.542c0.114-1.058,0.447-1.945,1.175-2.865c1.167-1.478,2.621-2.674,4.573-2.591
	c0.147,0.006,0.297,0.018,0.447,0.033c0.016,0.028,0.037,0.056,0.05,0.085c0.041,0.084,0.079,0.17,0.118,0.256
	c0.175,0.386,0.357,0.784,0.7,1.079c0.474,0.407,1.004,0.69,1.547,0.925c0.007,0.335,0.034,0.654,0.219,0.897
	c0.605,0.797,1.576,0.567,2.462,0.548c0.088-0.002,0.172,0.003,0.259,0.002c0.27,0.174,0.548,0.34,0.84,0.465
	c0.85,0.359,1.728,0.732,2.329,1.495c0.379,0.48,0.361,0.91,0.336,1.454c-0.012,0.281-0.026,0.601,0.019,0.95
	c0.094,0.718,0.379,1.392,0.654,2.043c0.226,0.534,0.459,1.085,0.576,1.643c0.171,0.818,0.582,1.46,0.979,2.083
	c0.097,0.151,0.193,0.309,0.289,0.466c-0.599-0.146-1.179-0.419-1.706-0.775c-0.433-0.292-0.833-0.639-1.188-1.028
	c-0.177-0.195-0.349-0.396-0.501-0.611c-0.152-0.207-0.335-0.473-0.518-0.689C103.518,121.665,103.114,121.244,102.654,120.866z
	 M123.021,183.813c0.155,0.291,0.339,0.584,0.57,0.871c0.007,0.01,0.015,0.016,0.021,0.025c0.023,0.096,0.049,0.193,0.071,0.29
	C123.451,184.609,123.23,184.214,123.021,183.813z M126.642,192.865c-0.614-0.843-1.018-1.563-1.317-2.396
	c0.389,0.569,0.789,1.135,1.209,1.677c0.129,0.163,0.246,0.341,0.37,0.51c0.002,0.126,0.001,0.247,0.007,0.376
	c0.004,0.06,0.013,0.118,0.018,0.178C126.832,193.096,126.73,192.986,126.642,192.865z M132.69,202.069
	c0.207,0.288,0.413,0.576,0.622,0.865c1.115,1.542,2.246,3.119,3.188,4.777C134.944,206.145,133.67,204.255,132.69,202.069z
	 M160.635,290.837c-0.057-0.16-0.123,0.156-0.188,0c-0.028-0.066-0.055,0.064-0.081,0c0-0.042-0.001,0.041-0.002,0h0.109h0.032
	C160.557,291.154,160.599,290.518,160.635,290.837z M172.58,232.66c0.005-0.032,0.013-0.066,0.018-0.099
	c0.052-0.329,0.098-0.658,0.142-0.986c0.002-0.006,0.003-0.011,0.005-0.018c0.365-1.402,0.562-2.775,0.675-4.149
	c0.558-1.198,1.054-2.423,1.452-3.677C174.507,226.615,173.742,229.595,172.58,232.66z M174.314,191.761
	c0.117-0.104,0.237-0.208,0.363-0.307c0.036-0.006,0.072-0.011,0.108-0.02c0.006,0.002,0.014,0.006,0.026,0.012
	c0.053,0.029,0.174,0.099,0.316,0.177c-0.305,0.078-0.567,0.2-0.839,0.348C174.297,191.901,174.307,191.831,174.314,191.761z
	 M187.443,193.354c0.063-0.163,0.118-0.33,0.169-0.494c0.308-0.151,0.591-0.324,0.849-0.512
	C188.168,192.689,187.819,193.053,187.443,193.354z M193.06,189.242c-0.466,0.122-0.965,0.198-1.448,0.271
	c0.024-0.016,0.049-0.035,0.075-0.051l0.124-0.075l0.153-0.086c0.41-0.227,0.818-0.438,1.229-0.622
	c0.09-0.04,0.181-0.073,0.271-0.112c1.002-0.111,2.205,0.021,3.6,0.396C195.671,188.92,194.27,188.92,193.06,189.242z
	 M203.215,191.862c-0.636-0.314-1.184-0.744-1.715-1.16c-0.326-0.258-0.663-0.523-1.02-0.761c-0.268-0.177-0.573-0.343-0.889-0.499
	c1.861,0.002,4.103,0.055,5.47,1.397c0.235,0.23,0.439,0.452,0.635,0.667c0.532,0.582,1.036,1.131,1.924,1.564
	c0.012,0.005,0.021,0.011,0.033,0.016C206.107,192.935,204.694,192.591,203.215,191.862z M210.343,193.611
	c0.349-0.005,0.71-0.022,1.091-0.043c0.133-0.007,0.266-0.013,0.396-0.02c0.139,0.169,0.263,0.318,0.387,0.442
	c-0.325-0.042-0.647-0.091-0.966-0.164C210.926,193.752,210.628,193.683,210.343,193.611z M214.058,194.168
	c0.011-0.004,0.021-0.008,0.031-0.012c0.236-0.095,0.418-0.204,0.578-0.318c0.306,0.139,0.598,0.327,0.87,0.552
	c-0.064-0.011-0.13-0.016-0.194-0.03C214.916,194.267,214.484,194.212,214.058,194.168z M229.971,201.114
	c-0.192,0.004-0.397,0.002-0.571,0.008c-0.474,0.002-0.935,0.002-1.4,0.008c-0.839,0.005-1.707,0.013-2.558-0.006
	c-0.47-0.008-0.854-0.106-1.259-0.208c-0.238-0.062-0.484-0.124-0.759-0.173c-0.345-0.062-0.69-0.036-1.023-0.012
	c-0.313,0.023-0.609,0.045-0.891-0.003c-2.099-0.357-2.921-2.133-3.717-3.849c-0.101-0.218-0.201-0.434-0.304-0.646
	c-0.208-0.435-0.506-0.913-0.876-1.361c0.232-0.002,0.464-0.01,0.692-0.021c0.713-0.031,1.385-0.062,2.032,0.101
	c1.027,0.256,1.98,0.796,2.86,1.341c0.122,0.076,0.266,0.15,0.414,0.227c0.271,0.141,0.55,0.285,0.718,0.453
	c0.221,0.217,0.358,0.568,0.492,0.908c0.113,0.287,0.23,0.585,0.402,0.826c0.499,0.701,1.23,1.266,2.173,1.675
	c0.41,0.177,0.717,0.227,1.072,0.283c0.13,0.021,0.267,0.043,0.42,0.073c0.085,0.019,0.16,0.064,0.246,0.119
	c0.094,0.061,0.199,0.128,0.333,0.163c0.419,0.11,0.822,0.081,1.214,0.054c0.337-0.025,0.656-0.049,0.967,0.018l0.064,0.015
	C230.465,201.104,230.217,201.108,229.971,201.114z M235.889,203.969c-0.21-0.19-0.422-0.391-0.637-0.594
	c-0.586-0.554-1.188-1.123-1.82-1.546c0.09,0.035,0.179,0.07,0.262,0.108c0.255,0.113,0.51,0.21,0.761,0.304
	c0.734,0.275,1.427,0.537,1.99,1.206c0.132,0.157,0.259,0.314,0.385,0.472c0.238,0.296,0.484,0.602,0.759,0.892
	c0.351,0.371,0.49,0.66,0.651,0.993c0.034,0.067,0.07,0.141,0.107,0.211c-0.776-0.519-1.433-1.114-2.167-1.78L235.889,203.969z
	 M241.192,208.268c-0.371-0.243-0.875-0.627-1.328-1.033c0.068,0.022,0.136,0.045,0.201,0.065c0.507,0.159,0.932,0.294,1.31,0.678
	c-0.009,0.133-0.014,0.265-0.012,0.395C241.307,208.336,241.251,208.307,241.192,208.268z M243.549,214.928
	c-0.959-0.934-0.931-2.152-0.899-3.443c0.007-0.262,0.012-0.524,0.011-0.788c0.611,0.562,1.249,1.132,1.407,1.946
	c-0.012,0.849-0.1,1.688-0.259,2.519C243.72,215.084,243.629,215.006,243.549,214.928z M242.829,160.968
	c-0.676,0.174-1.374,0.353-2.036,0.589c-0.845,0.302-1.503,0.804-2.159,1.336c-0.478,0.387-0.915,0.821-1.339,1.241
	c-0.441,0.438-0.897,0.887-1.393,1.277c-0.447-0.272-0.905-0.612-1.392-1.025c-0.891-1.458-2.151-2.323-3.78-2.596
	c-1.244,0.611-2.551,0.979-3.918,1.106c-0.925,0.149-1.693,0.163-2.295,0.029c0.154-0.39,0.287-0.815,0.394-1.278
	c0.029-0.124,0.046-0.246,0.062-0.364c0.041-0.314,0.071-0.542,0.318-0.714c0.298-0.208,0.833-0.39,1.233-0.491
	c0.155-0.038,0.314-0.032,0.481-0.027c0.133,0.005,0.27,0.01,0.417-0.006c0.13-0.014,0.246-0.047,0.357-0.083
	c0.411,0.173,0.834,0.348,1.272,0.463c0.214,0.057,0.431,0.118,0.649,0.179c0.029,0.008,0.058,0.016,0.086,0.023
	c0.144,0.094,0.29,0.188,0.452,0.274c0.264,0.143,0.58,0.268,0.92,0.303c0.338,0.037,0.672-0.011,0.964-0.098
	c0.016-0.004,0.028-0.011,0.044-0.016c0.441-0.007,0.938-0.09,1.51-0.258c0.356-0.105,0.573-0.253,0.803-0.409
	c0.069-0.047,0.142-0.096,0.223-0.147c0.279-0.178,0.583-0.305,0.902-0.438c0.347-0.146,0.706-0.296,1.032-0.517
	c0.367-0.248,0.738-0.491,1.107-0.735c0.152-0.1,0.305-0.202,0.458-0.302c0.722,0.703,1.541,1.286,2.787,1.451
	c1.729,0.229,1.797,0.477,2.972,0.932c-0.005,0.002-0.012,0.004-0.017,0.005C243.578,160.777,243.203,160.873,242.829,160.968z
	 M244.894,122.188c-0.571,0.066-1.175-0.012-1.813-0.15c-0.325-0.068-0.622-0.151-1.019-0.233c-0.283-0.052-0.562-0.086-0.84-0.112
	c0.321-0.184,0.643-0.37,0.959-0.569c0.551-0.342,1.081-0.684,1.623-0.963c0.54-0.28,1.092-0.498,1.638-0.54
	c0.556-0.044,1.151,0.048,1.719,0.23c0.112,0.036,0.222,0.077,0.332,0.118c-0.055,0.414-0.117,0.823-0.174,1.198
	c-0.244,0.153-0.487,0.299-0.735,0.43C246,121.908,245.469,122.129,244.894,122.188z"/>
</svg>
