<?xml version="1.0" encoding="utf-8"?>
<!-- Generator: Adobe Illustrator 16.0.0, SVG Export Plug-In . SVG Version: 6.00 Build 0)  -->
<!DOCTYPE svg PUBLIC "-//W3C//DTD SVG 1.1//EN" "http://www.w3.org/Graphics/SVG/1.1/DTD/svg11.dtd">
<svg version="1.1" id="Layer_1" xmlns="http://www.w3.org/2000/svg" xmlns:xlink="http://www.w3.org/1999/xlink" x="0px" y="0px"
	 width="350px" height="350px" viewBox="0 0 350 350" enable-background="new 0 0 350 350" xml:space="preserve">
<g>
	<path fill="#9FC01A" d="M141.604,145.724c0,0,7.953,8.632,13.033,7.278c5.08-1.354,11.172-7.278,11.172-7.278
		s13.371-0.506,15.401-3.046c2.032-2.54,15.403,6.262,23.02,6.94c7.618,0.675,13.711,1.354,12.863-2.033
		c-0.844-3.384-9.308-17.434-9.308-17.434s15.403-1.354,15.741-8.632c0.338-7.278-6.939-11.341-10.493-11.848
		c-3.556-0.507-15.91-0.507-15.91-0.507l-1.695-12.695c0,0-3.215-1.186-10.155,0.844c-6.94,2.033-10.558,4.439-10.558,4.439
		s-7.551-0.714-10.09-0.039c-2.54,0.679-6.603,1.354-7.957,6.096c-1.354,4.738-1.692,10.493-1.692,10.493s-9.477-2.708-16.08,2.199
		c-6.602,4.91-17.264,16.758-18.112,19.129c-0.845,2.367-1.523,7.447-1.523,7.447s8.463,3.553,13.033,2.371
		C136.865,148.263,141.604,145.724,141.604,145.724z"/>
	<path fill="#F6F6F6" d="M260.747,177.977c9.743,4.289,16.826,11.207,13.8,23.578c-2.56,10.375-11.773,18.992-19.954,25.143
		c-25.306,19.021-63.284,23.547-93.815,22.381c-20.483-0.797-41.667-3.227-60.656-11.307c-25.342-10.807-37.881-44.66-13.472-60.227
		C67.793,196,78.703,217.02,100.985,228.893c21.217,11.273,46.691,15.963,70.435,12.703c16.927-2.326,134.587-24.244,88.827-58.066
		C260.646,181.867,260.779,179.973,260.747,177.977z"/>
	<path fill="#1D1D1B" d="M259.282,169.363c24.144,8.98,31.496,30.83,12.406,51.846c-26.374,28.967-73.595,36.848-110.911,34.322
		c-26.569-1.797-64.849-3.924-83.007-26.805c-16.063-20.287-14.832-53.511,14.368-59.029c0.234-0.568,0.432-1.098,0.666-1.63
		c-2.66,0.133-5.222,0.032-7.85-0.799c-2.026-0.666-2.793-2.76-1.896-4.657c7.551-15.495,20.155-29.895,32.958-41.269
		c0.932-0.831,2.361-0.964,3.293,0c2.26,2.326,4.754,4.521,6.619,7.181c6.716-8.71,15.829-14.897,27.17-11.772
		c-0.5-4.42,0-9.045,3.027-12.471c3.758-4.254,9.243-4.754,14.534-3.758c2.095,0.4,1.627,3.992-0.5,3.758
		c-3.858-0.432-8.213-0.033-10.841,3.196c-2.66,3.29-2.861,7.746-2.461,11.77c0,0.068-0.033,0.133-0.033,0.201
		c0,0.133-0.032,0.267-0.032,0.399c-0.036,0.033-0.036,0.033-0.036,0.033c-0.133,0.698-0.663,1.263-1.595,1.13
		c-10.876-1.429-19.688,2.861-26.706,11.107c-3.293,3.826-5.853,8.148-7.814,12.806c-1.997,4.722,7.547,4.125,10.675,3.459
		c-0.036-0.068-0.068-0.133-0.101-0.201c-0.997-1.894,1.728-3.492,2.894-1.663c0.133,0.234,0.266,0.468,0.432,0.698
		c2.26-0.929,4.488-1.961,6.785-2.926c1.332-0.565,2.328,0.601,1.961,1.63c0.565-0.234,1.263-0.198,1.764,0.267
		c4.521,5.654,10.376,5.021,17.592-1.829c0.533-0.734,1.497-1.396,2.462-1c6.151,2.397,9.542-0.997,14.497-3.192
		c0.832-0.364,1.433-0.698,2.361-0.529c4.524,0.864,9.88,3.257,13.67,5.751c0.064,0.068,0.133,0.133,0.165,0.166
		c3.027,0.565,5.921,1.763,8.847,2.53c0.965,0.23,10.042,2.66,9.679-0.267c-0.602-4.625-4.125-8.814-6.587-12.539
		c-0.497-0.763-0.399-1.461-0.064-1.994h-0.033c-3.627,0.098-3.627-5.553,0-5.622c2.027,0,5.82-0.331,9.013-1.396
		c1.429-1.065,3.092-2.228,4.888-3.326c0.63-1.263,0.532-2.894-0.864-4.888c-4.758-6.885-14.335-7.382-21.817-6.021
		c-1.462,0.266-2.793-0.598-2.858-2.16c-0.133-3.826-1.133-7.483-1.598-11.24c-6.752-1-12.204,1.163-18.024,4.787
		c-0.964,0.601-2.429-0.666-1.663-1.663c5.42-7.148,13.767-8.811,22.247-7.116c1,0.198,1.565,1.163,1.63,2.095
		c0.234,3.592,1.166,7.019,1.663,10.542c9.278-1.163,22.314,0.464,25.507,10.575c0.299,0.932,0.433,1.796,0.5,2.663
		c5.389-2.296,11.107-2.761,15.099,2.26c2.927,3.657,4.157,7.915,4.787,12.536c0.533,3.858,1.098,8.782,0,12.805
		C251.832,154.398,256.889,161.615,259.282,169.363z M274.547,201.555c3.026-12.371-4.057-19.289-13.8-23.578
		c0.032,1.996-0.101,3.891-0.5,5.553c45.76,33.822-71.9,55.74-88.827,58.066c-23.744,3.26-49.218-1.43-70.435-12.703
		C78.703,217.02,67.793,196,86.649,177.545c-24.409,15.566-11.87,49.42,13.472,60.227c18.989,8.08,40.173,10.51,60.656,11.307
		c30.531,1.166,68.51-3.359,93.815-22.381C262.773,220.547,271.987,211.93,274.547,201.555z M233.743,219.248
		c12.902-4.689,37.546-13.734,23.077-28.633c-4.455,5.422-12.169,8.049-20.551,9.211c-0.101,0-0.166-0.031-0.267-0.031
		c0.468,4.354,0.799,8.713,0.933,13.137c0.064,1.727-1.43,3.023-3.06,3.092c-9.214,0.299-18.424-0.201-27.602-0.635
		c-6.385-0.266-14.433,0.699-20.919-0.83c-0.399,2.227-0.766,4.455-1.098,6.686c-0.233,1.563-2.264,2.527-3.66,2.061
		c-14.63-4.756-31.658-9.279-45.392-16.893c-0.601,1.895-3.192,2.027-4.456,0.631c-0.133,0-0.266,0.033-0.399-0.033
		c-13.601-3.623-27.67-6.154-40.674-11.672c-1.062-0.467-1.76-1.93-1.728-2.994c0.097-2.729,0.364-6.32,0.964-10.109
		c-5.722,9.512-9.048,20.354,0.23,29.43c8.847,8.713,20.652,14.068,32.46,17.594c17.557,5.254,34.088,7.15,52.112,4.357
		C193.969,230.455,214.487,226.299,233.743,219.248z M235.571,196c11.309-2.592,20.652-9.109,18.791-20.384
		c-0.299-0.098-0.565-0.166-0.867-0.267c-3.225-0.965-3.257-4.787-1.396-6.551c-4.157-9.278-10.74-17.391-17.823-24.708
		c-4.722,8.148-5.223,17.427-5.388,26.771c0.965,0.266,1.828,1.065,2.095,1.961C233.109,180.539,234.574,188.219,235.571,196z
		 M240.096,141.959c0.097-4.888,0.532-9.844-2.397-14.231c-3.092-4.657-8.245-3.625-12.902-1.364
		c-2.692,3.923-8.513,5.92-13.734,6.619c0.067,0.065,0.165,0.133,0.233,0.198c2.127,2.861,12.903,17.625,3.459,19.788
		c-7.184,1.663-13.371-2.761-20.253-3.592c-1.497-0.166-2.563-1.598-1.73-3.06c-1.364,2.494,0.334,2.027-3.358,0.432
		c-1.962-0.864-3.923-1.63-5.953-2.228c-1.198-0.367-1.86-0.266-2.462,0.133c6.386,4.589,12.737,9.246,18.893,14.101
		c5.719,4.521,13.367,10.64,15.563,17.791c2.793-1.464,5.586-2.861,8.479-4.124c-0.032-12.039,0.864-23.51,7.648-33.922
		c0.965-1.494,2.861-1.695,4.157-0.529C237.169,139.235,238.631,140.563,240.096,141.959z M230.748,209.703
		c-0.197-10.809-1.796-21.383-4.354-31.893c-0.234,0-0.465-0.033-0.698-0.102c-13.468,5.756-25.374,14.037-37.514,22.219
		c-0.134,0.098-0.267,0.133-0.399,0.166c-0.399,2.494-0.799,4.955-1.231,7.414c6.288-0.896,13.803,0.6,19.724,0.932
		C214.419,208.906,222.604,209.34,230.748,209.703z M211.36,178.844c-5.752-4.157-10.409-11.111-15.397-16.131
		c-5.554-5.586-11.571-10.542-17.294-15.93c-1.894,1.563-4.589,2.595-7.249,2.728c3.092,7.515,5.687,15.297,7.184,23.279
		c0.331,1.796-0.799,3.092-2.163,3.523c3.527-0.164,7.052-0.164,10.578,0.102c1.497,0.102,2.825,1.199,2.793,2.793
		c-0.068,4.924-0.532,9.811-1.166,14.666C195.998,188.453,203.481,183.332,211.36,178.844z M184.057,181.77
		c-10.042-0.633-20.22,0.363-30.028,2.527c-6.054,1.33-13.436,5.221-19.489,5.053c-0.565,0-0.997-0.631-0.666-1.162
		c1.695-2.861,5.388-4.756,9.444-6.119c-1.03-0.102-1.929-0.73-2.192-2.096c-1.764-9.778-4.092-19.388-8.249-28.4
		c-5.355,1.396-10.873,0.799-16.164-2.627c-0.63-0.432-1.13-1.299-0.832-2.095c1.896-4.923,4.557-10.376,7.85-15.3
		c-2.228-1.396-4.092-3.257-5.953-5.154c-10.11,11.607-19.586,23.045-27.404,36.315c1.565,0.5,3.127,0.997,4.69,1.464
		c3.491-4.855,8.648-7.151,16.196-3.491c13.569,6.551,21.383,23.611,23.513,38.576c14.998,2.861,29.862,11.438,44.295,17.092
		C180.997,204.848,183.395,193.441,184.057,181.77z M174.911,176.381c-0.896-0.164-1.695-0.765-1.961-2.029
		c-1.893-8.646-3.556-17.125-6.45-25.54c-1.731,0.065-3.725,1.897-5.788,3.725c0.133,0.464,0.133,0.929-0.166,1.396
		c-1.198,1.861-2.994,2.462-4.689,3.891c-1.429,1.198-2.894,2.494-4.189,3.891c-2.761,3.027-4.891,6.518-6.219,10.409
		c-0.036,0.068-0.101,0.133-0.101,0.166c0.5,2.03,0.965,4.06,1.332,6.154c0.23,1.297-0.335,2.293-1.166,2.926
		c3.757-1.064,7.583-1.762,10.275-2.295C162.109,177.777,168.494,176.781,174.911,176.381z M148.342,158.39
		c0.663-0.832,1.429-1.764,2.325-2.692c-3.491-1.299-5.953-4.391-8.181-7.518c-0.299-0.432-0.332-0.832-0.231-1.195
		c-1.896,1.361-3.858,2.458-5.855,3.326c3.027,5.287,5.424,10.772,7.317,16.495C144.815,163.777,146.345,160.949,148.342,158.39z
		 M129.75,203.051c-1.663-13.035-6.785-28.799-18.324-36.081c-14.267-8.979-16.361,12.339-16.495,22.944
		C106.538,194.205,118.775,197.301,129.75,203.051z"/>
	<path fill="#F6F6F6" d="M256.82,190.615c14.469,14.898-10.175,23.943-23.077,28.633c-19.256,7.051-39.774,11.207-60.027,14.367
		c-18.024,2.793-34.555,0.896-52.112-4.357c-11.808-3.525-23.614-8.881-32.46-17.594c-9.278-9.076-5.953-19.918-0.23-29.43
		c-0.601,3.789-0.867,7.381-0.964,10.109c-0.033,1.064,0.666,2.527,1.728,2.994c13.004,5.518,27.073,8.049,40.674,11.672
		c0.133,0.066,0.266,0.033,0.399,0.033c1.264,1.396,3.855,1.264,4.456-0.631c13.734,7.613,30.762,12.137,45.392,16.893
		c1.396,0.467,3.427-0.498,3.66-2.061c0.332-2.23,0.698-4.459,1.098-6.686c6.486,1.529,14.534,0.564,20.919,0.83
		c9.178,0.434,18.388,0.934,27.602,0.635c1.63-0.068,3.124-1.365,3.06-3.092c-0.134-4.424-0.465-8.783-0.933-13.137
		c0.101,0,0.166,0.031,0.267,0.031C244.651,198.664,252.365,196.037,256.82,190.615z"/>
	<path fill="#FBBE3A" d="M254.362,175.616c1.861,11.275-7.482,17.792-18.791,20.384c-0.997-7.781-2.462-15.461-4.589-23.178
		c-0.267-0.896-1.13-1.695-2.095-1.961c0.165-9.344,0.666-18.622,5.388-26.771c7.083,7.317,13.666,15.43,17.823,24.708
		c-1.86,1.764-1.828,5.586,1.396,6.551C253.797,175.45,254.063,175.518,254.362,175.616z M249.338,182.766
		c0.867-0.266,1.533-1.23,1.198-2.162c-0.564-1.662-2.328-2.16-3.426-3.459c-1.063-1.231-1.627-2.991-2.426-4.387
		c-0.899-1.598-3.79-0.5-3.06,1.263c0.799,1.861,1.328,3.823,2.361,5.554C245.016,181.303,247.179,183.396,249.338,182.766z
		 M239.462,167.168c0.601-1.364,1.198-2.527,0.133-3.858c-0.464-0.565-1.363-0.698-2.026-0.53c-1.598,0.4-2.695,2.894-3.494,4.189
		c-1.328,2.196,1.929,3.956,3.361,1.962c0.166-0.234,0.331-0.464,0.529-0.731C238.565,168.168,239.131,167.902,239.462,167.168z"/>
	<path fill="#1D1D1B" d="M250.536,180.604c0.335,0.932-0.331,1.896-1.198,2.162c-2.159,0.631-4.322-1.463-5.352-3.191
		c-1.033-1.73-1.563-3.693-2.361-5.554c-0.73-1.763,2.16-2.861,3.06-1.263c0.799,1.396,1.363,3.156,2.426,4.387
		C248.208,178.443,249.972,178.941,250.536,180.604z"/>
	<path fill="#FBBE3A" d="M237.698,127.729c2.93,4.387,2.494,9.343,2.397,14.231c-1.465-1.396-2.927-2.725-4.358-3.988
		c-1.296-1.166-3.192-0.965-4.157,0.529c-6.784,10.412-7.681,21.883-7.648,33.922c-2.894,1.263-5.687,2.66-8.479,4.124
		c-2.195-7.151-9.844-13.27-15.563-17.791c-6.155-4.855-12.507-9.512-18.893-14.101c0.602-0.399,1.264-0.5,2.462-0.133
		c2.03,0.598,3.991,1.364,5.953,2.228c3.692,1.595,1.994,2.062,3.358-0.432c-0.832,1.461,0.233,2.894,1.73,3.06
		c6.882,0.831,13.069,5.254,20.253,3.592c9.444-2.163-1.332-16.927-3.459-19.788c-0.068-0.065-0.166-0.133-0.233-0.198
		c5.222-0.698,11.042-2.695,13.734-6.619C229.453,124.104,234.606,123.071,237.698,127.729z M227.854,133.847
		c2.231-1.864-1.429-5.19-3.29-2.563c-1.464,2.062-1.698,4.225-1.396,6.687c0.231,1.728,2.459,1.695,2.66,0
		C226.059,136.241,226.494,134.977,227.854,133.847z M216.65,167.402c0.965,0.299,1.962-0.698,1.663-1.663
		c-0.767-2.527-4.326-4.69-6.918-4.69c-1.396,0.033-1.796,2.296-0.367,2.527C213.49,163.943,214.354,166.704,216.65,167.402z"/>
	<path fill="#1D1D1B" d="M239.595,163.31c1.065,1.331,0.468,2.494-0.133,3.858c-0.331,0.734-0.896,1-1.497,1.033
		c-0.198,0.267-0.363,0.497-0.529,0.731c-1.433,1.994-4.689,0.234-3.361-1.962c0.799-1.295,1.896-3.79,3.494-4.189
		C238.231,162.612,239.131,162.745,239.595,163.31z"/>
	<path fill="#1D1D1B" d="M224.564,131.285c1.861-2.627,5.521,0.698,3.29,2.563c-1.36,1.13-1.796,2.394-2.026,4.125
		c-0.201,1.695-2.429,1.728-2.66,0C222.866,135.51,223.101,133.347,224.564,131.285z"/>
	<path fill="#FBBE3A" d="M226.394,177.811c2.559,10.51,4.157,21.084,4.354,31.893c-8.145-0.363-16.329-0.797-24.474-1.264
		c-5.921-0.332-13.436-1.828-19.724-0.932c0.433-2.459,0.832-4.92,1.231-7.414c0.133-0.033,0.266-0.068,0.399-0.166
		c12.14-8.182,24.046-16.463,37.514-22.219C225.929,177.777,226.159,177.811,226.394,177.811z M221.405,204.814
		c1.461,1.695,4.157-0.996,2.462-2.461c-1.465-1.297-3.495-2.693-3.794-4.723c-0.198-1.43-2.458-1.064-2.426,0.334
		C217.647,200.689,219.71,202.854,221.405,204.814z M207.336,195.402c0.799-0.932,1.663-1.561,1.465-2.926
		c-0.233-1.428-2.127-1.629-3.026-0.799c-0.267,0.234-0.501,0.566-0.731,0.865c-1.299,1.564-2.659,3.559-2.695,5.422
		c-0.064,2.027,2.861,1.926,3.095,0C205.508,197.465,206.771,196.037,207.336,195.402z"/>
	<path fill="#1D1D1B" d="M223.867,202.354c1.695,1.465-1.001,4.156-2.462,2.461c-1.695-1.961-3.758-4.125-3.758-6.85
		c-0.032-1.398,2.228-1.764,2.426-0.334C220.372,199.66,222.402,201.057,223.867,202.354z"/>
	<path fill="#1D1D1B" d="M218.313,165.739c0.299,0.964-0.698,1.961-1.663,1.663c-2.296-0.698-3.16-3.459-5.622-3.826
		c-1.429-0.23-1.029-2.494,0.367-2.527C213.987,161.049,217.547,163.212,218.313,165.739z"/>
	<path fill="#1D1D1B" d="M208.801,192.477c0.198,1.365-0.666,1.994-1.465,2.926c-0.564,0.635-1.828,2.063-1.894,2.563
		c-0.233,1.926-3.159,2.027-3.095,0c0.036-1.863,1.396-3.857,2.695-5.422c0.23-0.299,0.465-0.631,0.731-0.865
		C206.674,190.848,208.567,191.049,208.801,192.477z"/>
	<path fill="#1D1D1B" d="M202.117,175.284c1.062,0.465,1.461,1.796,0.896,2.792c-0.598,1.029-1.829,1.131-2.894,1.232
		c-1.296,0.1-1.93-0.998-1.861-2.063c-0.598-0.199-1.23-0.432-1.864-0.5c-1.662-0.166-1.728-2.527,0-2.592
		C198.19,174.085,200.454,174.518,202.117,175.284z"/>
	<path fill="#FBBE3A" d="M195.963,162.712c4.988,5.021,9.646,11.974,15.397,16.131c-7.879,4.488-15.362,9.609-22.715,15.029
		c0.634-4.855,1.098-9.742,1.166-14.666c0.032-1.594-1.296-2.691-2.793-2.793c-3.526-0.266-7.051-0.266-10.578-0.102
		c1.364-0.431,2.494-1.727,2.163-3.523c-1.497-7.982-4.092-15.764-7.184-23.279c2.66-0.133,5.355-1.166,7.249-2.728
		C184.392,152.17,190.409,157.126,195.963,162.712z M203.014,178.076c0.564-0.996,0.165-2.328-0.896-2.792
		c-1.663-0.766-3.927-1.198-5.723-1.13c-1.728,0.065-1.662,2.426,0,2.592c0.634,0.068,1.267,0.301,1.864,0.5
		c-0.068,1.064,0.565,2.162,1.861,2.063C201.185,179.207,202.416,179.105,203.014,178.076z M188.98,166.635
		c0.532-3.29-4.456-3.29-3.924,0l0.299,1.796c0.267,1.63,3.06,1.63,3.326,0C188.779,167.834,188.88,167.236,188.98,166.635z"/>
	<path fill="#1D1D1B" d="M185.057,166.635c-0.532-3.29,4.456-3.29,3.924,0c-0.101,0.601-0.201,1.199-0.299,1.796
		c-0.267,1.63-3.06,1.63-3.326,0L185.057,166.635z"/>
	<path fill="#FBBE3A" d="M154.029,184.297c9.808-2.164,19.986-3.16,30.028-2.527c-0.662,11.672-3.06,23.078-4.988,34.584
		c-14.433-5.654-29.297-14.23-44.295-17.092c-2.13-14.965-9.944-32.025-23.513-38.576c-7.547-3.66-12.705-1.364-16.196,3.491
		c-1.563-0.467-3.125-0.964-4.69-1.464c7.817-13.27,17.294-24.708,27.404-36.315c1.861,1.896,3.725,3.757,5.953,5.154
		c-3.293,4.923-5.953,10.376-7.85,15.3c-0.299,0.796,0.201,1.663,0.832,2.095c5.291,3.426,10.808,4.024,16.164,2.627
		c4.157,9.012,6.485,18.622,8.249,28.4c0.263,1.365,1.163,1.994,2.192,2.096c-4.057,1.363-7.749,3.258-9.444,6.119
		c-0.332,0.531,0.101,1.162,0.666,1.162C140.593,189.518,147.975,185.627,154.029,184.297z M175.278,189.982
		c0.73-0.799,0.799-1.994,0-2.793c-2.861-2.961-7.35,0.666-8.479,3.523c-0.267,0.699,0.065,1.531,0.533,2.031
		c0.529,0.531,0.432,0.799,0.497,1.461c0.068,0.568,0.832,0.568,0.9,0c-0.133-0.564,0.097-0.863,0.63-0.93
		c0.533-0.133,0.964-0.467,1.263-0.965c0.234-0.398,0.5-0.697,0.932-0.932C172.784,190.682,174.213,191.182,175.278,189.982z
		 M169.657,205.314c2.098,0.598,2.994-2.162,1.4-3.293c-2.231-1.598-5.355-1.299-7.551-3.025c-1.199-0.965-2.729,0.5-1.695,1.662
		c0.896,1.029,1.929,1.727,3.124,2.361C166.464,203.785,168.03,204.814,169.657,205.314z M121.77,154.83
		c0.032-0.698-0.234-1.195-0.633-1.562c-0.033-0.234-0.098-0.464-0.133-0.698c-0.198-1.465-2.725-1.465-2.926,0
		c-0.032,0.234-0.101,0.464-0.133,0.698c-0.4,0.367-0.666,0.864-0.63,1.562c0.033,0.698,0.065,1.396,0.133,2.095
		c-0.101,1.396,0.997,2.063,2.095,2.03c1.098,0.033,2.195-0.633,2.127-2.03C121.702,156.227,121.737,155.528,121.77,154.83z
		 M107.337,155.795c1.328,1.13,3.059-0.565,1.929-1.929c-1.267-1.461-3.325-2.959-3.66-4.953c-0.198-1.267-2.16-0.9-2.16,0.298
		C103.411,151.937,105.375,154.132,107.337,155.795z"/>
	<path fill="#1D1D1B" d="M175.278,187.189c0.799,0.799,0.73,1.994,0,2.793c-1.065,1.199-2.494,0.699-3.725,1.396
		c-0.432,0.234-0.698,0.533-0.932,0.932c-0.299,0.498-0.73,0.832-1.263,0.965c-0.533,0.066-0.763,0.365-0.63,0.93
		c-0.068,0.568-0.832,0.568-0.9,0c-0.065-0.662,0.033-0.93-0.497-1.461c-0.468-0.5-0.799-1.332-0.533-2.031
		C167.929,187.855,172.417,184.229,175.278,187.189z"/>
	<path fill="#FBBE3A" d="M172.95,174.352c0.267,1.264,1.065,1.865,1.961,2.029c-6.417,0.4-12.802,1.396-19.122,2.693
		c-2.692,0.533-6.518,1.23-10.275,2.295c0.831-0.633,1.396-1.629,1.166-2.926c-0.367-2.094-0.832-4.124-1.332-6.154
		c0-0.032,0.065-0.097,0.101-0.166c1.328-3.891,3.458-7.382,6.219-10.409c1.296-1.396,2.76-2.692,4.189-3.891
		c1.695-1.429,3.491-2.03,4.689-3.891c0.299-0.467,0.299-0.932,0.166-1.396c2.063-1.828,4.057-3.66,5.788-3.725
		C169.394,157.227,171.057,165.707,172.95,174.352z M168.03,160.783c0.597-1.296,0.497-3.423,0.065-4.521
		c-0.666-1.663-2.728-1.663-3.391,0c-0.432,1.098-0.533,3.225,0.065,4.521c0.032,0.068,0.101,0.166,0.166,0.234
		c0.068,0.133,0.101,0.331,0.201,0.432c0.364,0.332,0.731,0.465,1.13,0.5c0.033,0,0.101,0,0.133,0c0.032,0,0.101,0,0.133,0
		c0.399-0.036,0.763-0.169,1.13-0.5c0.101-0.101,0.133-0.299,0.198-0.432C167.929,160.949,167.994,160.851,168.03,160.783z
		 M163.772,169.097c1.163-1.296-0.399-3.689-1.929-2.527c-0.633,0.5-1.296,1.03-2.127,0.832c-0.799-0.198-1.332-0.964-2.228-1.163
		c-1.267-0.266-2.563,0.832-2.163,2.192c0.5,1.731,2.127,2.696,3.858,2.829C161.044,171.426,162.573,170.461,163.772,169.097z"/>
	<path fill="#1D1D1B" d="M171.057,202.021c1.594,1.131,0.698,3.891-1.4,3.293c-1.627-0.5-3.192-1.529-4.722-2.295
		c-1.195-0.635-2.228-1.332-3.124-2.361c-1.033-1.162,0.497-2.627,1.695-1.662C165.701,200.723,168.825,200.424,171.057,202.021z"/>
	<path fill="#1D1D1B" d="M168.095,156.262c0.432,1.098,0.532,3.225-0.065,4.521c-0.036,0.068-0.101,0.166-0.169,0.234
		c-0.065,0.133-0.098,0.331-0.198,0.432c-0.367,0.332-0.731,0.465-1.13,0.5c-0.032,0-0.101,0-0.133,0c-0.033,0-0.101,0-0.133,0
		c-0.399-0.036-0.767-0.169-1.13-0.5c-0.101-0.101-0.133-0.299-0.201-0.432c-0.065-0.068-0.133-0.166-0.166-0.234
		c-0.598-1.296-0.497-3.423-0.065-4.521C165.367,154.6,167.429,154.6,168.095,156.262z"/>
	<path fill="#1D1D1B" d="M161.843,166.57c1.53-1.163,3.092,1.231,1.929,2.527c-1.199,1.364-2.728,2.329-4.589,2.163
		c-1.731-0.133-3.358-1.098-3.858-2.829c-0.399-1.36,0.896-2.458,2.163-2.192c0.896,0.198,1.429,0.964,2.228,1.163
		C160.547,167.6,161.209,167.071,161.843,166.57z"/>
	<path fill="#FBBE3A" d="M111.426,166.97c11.539,7.282,16.661,23.046,18.324,36.081c-10.974-5.75-23.211-8.846-34.818-13.137
		C95.064,179.309,97.159,157.99,111.426,166.97z M121.604,186.689c-0.036-0.398-0.068-0.832-0.068-1.23
		c0.068-1.328-0.965-1.961-1.994-1.893c-1.033-0.068-2.063,0.564-1.962,1.893c-0.036,0.398-0.068,0.832-0.101,1.23
		c0,0.4,0.065,0.699,0.198,0.965c0.068,0.932,0.133,1.863,0.169,2.793c0.13,2.195,3.257,2.195,3.391,0l0.166-2.793
		C121.536,187.389,121.604,187.09,121.604,186.689z M112.059,183.299c2.858-0.201,2.858-4.225,0-4.424
		c-1.497-0.1-2.961-0.232-4.423-0.334c-0.334-0.166-0.73-0.266-1.198-0.266c-0.864,0.035-1.728,0.035-2.559,0.068
		c-1.796-0.033-2.696,1.33-2.66,2.727c-0.036,1.396,0.864,2.795,2.66,2.762c0.832,0.033,1.695,0.033,2.559,0.064
		c0.468,0,0.864-0.1,1.198-0.266C109.098,183.529,110.562,183.396,112.059,183.299z"/>
	<path fill="#1D1D1B" d="M121.137,153.268c0.399,0.367,0.666,0.864,0.633,1.562c-0.033,0.698-0.068,1.396-0.101,2.095
		c0.068,1.396-1.029,2.063-2.127,2.03c-1.098,0.033-2.195-0.633-2.095-2.03c-0.068-0.698-0.101-1.396-0.133-2.095
		c-0.036-0.698,0.23-1.195,0.63-1.562c0.032-0.234,0.101-0.464,0.133-0.698c0.201-1.465,2.728-1.465,2.926,0
		C121.039,152.804,121.104,153.034,121.137,153.268z"/>
	<path fill="#1D1D1B" d="M121.536,185.459c0,0.398,0.032,0.832,0.068,1.23c0,0.4-0.068,0.699-0.201,0.965l-0.166,2.793
		c-0.133,2.195-3.261,2.195-3.391,0c-0.036-0.93-0.101-1.861-0.169-2.793c-0.133-0.266-0.198-0.564-0.198-0.965
		c0.033-0.398,0.065-0.832,0.101-1.23c-0.101-1.328,0.929-1.961,1.962-1.893C120.571,183.498,121.604,184.131,121.536,185.459z"/>
	<path fill="#1D1D1B" d="M112.059,178.875c2.858,0.199,2.858,4.223,0,4.424c-1.497,0.098-2.961,0.23-4.423,0.332
		c-0.334,0.166-0.73,0.266-1.198,0.266c-0.864-0.031-1.728-0.031-2.559-0.064c-1.796,0.033-2.696-1.365-2.66-2.762
		c-0.036-1.396,0.864-2.76,2.66-2.727c0.832-0.033,1.695-0.033,2.559-0.068c0.468,0,0.864,0.1,1.198,0.266
		C109.098,178.643,110.562,178.775,112.059,178.875z"/>
	<path fill="#1D1D1B" d="M109.266,153.866c1.13,1.364-0.601,3.059-1.929,1.929c-1.962-1.663-3.927-3.858-3.891-6.583
		c0-1.198,1.962-1.565,2.16-0.298C105.941,150.907,108,152.404,109.266,153.866z"/>
</g>
</svg>
