<?xml version="1.0" encoding="utf-8"?>
<!-- Generator: Adobe Illustrator 16.0.0, SVG Export Plug-In . SVG Version: 6.00 Build 0)  -->
<!DOCTYPE svg PUBLIC "-//W3C//DTD SVG 1.1//EN" "http://www.w3.org/Graphics/SVG/1.1/DTD/svg11.dtd">
<svg version="1.1" id="Capa_1" xmlns="http://www.w3.org/2000/svg" xmlns:xlink="http://www.w3.org/1999/xlink" x="0px" y="0px"
	 width="350px" height="350px" viewBox="0 0 350 350" enable-background="new 0 0 350 350" xml:space="preserve">
<g>
	<circle cx="189.844" cy="160.187" r="3.702"/>
	<circle cx="149.123" cy="204.61" r="3.702"/>
	<circle cx="223.161" cy="215.716" r="3.701"/>
	<circle cx="249.074" cy="178.697" r="3.702"/>
	<circle cx="208.354" cy="145.379" r="3.702"/>
	<path d="M261.982,227.824L261.982,227.824c-4.212-1.154-8.488-1.311-12.693-0.47c-1.328,0.267-2.636-0.019-3.579-0.781l-5.225-4.19
		c-1.469-1.177-1.929-3.258-1.114-5.049c1.485-3.266,2.714-6.679,3.65-10.14c0.474-1.748,1.673-3.218,3.303-4.039
		c1.473-0.748,3.091-0.849,4.545-0.282c6.891,2.666,14.619,2.236,21.198-1.147c11.979-6.175,17.27-21.223,11.79-33.55
		c-2.847-6.393-8.015-11.269-14.56-13.73c-6.545-2.461-13.649-2.199-19.998,0.733c-1.158,0.537-2.421,1.311-3.846,2.354
		c-1.6,1.166-3.48,1.61-5.265,1.244c-1.776-0.359-3.313-1.477-4.309-3.15c-2.125-3.554-4.684-6.734-7.26-9.936
		c-2.354-2.928-2.755-6.993-1.025-10.347l5.476-10.625c1.555-3.024,4.353-5.082,7.308-5.375c2.743-0.27,5.463-1.014,8.081-2.214
		c8.321-3.805,14.156-11.594,15.222-20.319c1.004-8.167-1.776-16.118-7.629-21.823s-13.868-8.277-22.046-7.056
		c-10.954,1.629-19.838,10.402-21.604,21.334c-0.813,5.027-0.181,10.106,1.83,14.678c1.328,3.032,1.332,6.249,0.011,8.818
		l-4.287,8.325c-2.194,4.254-7.145,6.445-11.49,5.086c-3.921-1.225-10.455-2.054-15.249-2.536c-1.34-0.133-2.454-1.107-2.765-2.41
		l-4.217-17.784c-0.233-0.981,0.063-2.036,0.807-2.898c4.461-5.153,6.279-11.969,4.987-18.717
		c-1.666-8.64-8.537-15.637-17.096-17.41c-6.671-1.377-13.512,0.249-18.721,4.494c-5.208,4.243-8.196,10.524-8.196,17.233
		c0,9.199,5.812,17.54,14.467,20.749c1.214,0.452,2.054,1.303,2.299,2.339l3.376,14.26c0.37,1.551-0.53,3.143-2.084,3.706
		c-4.987,1.795-9.744,4.187-14.146,7.104c-1.677,1.114-3.95,1.066-5.404-0.107c-1.911-1.547-1.814-3.898-1.159-5.441
		c2.75-6.457,3.373-13.575,1.795-20.594c-2.843-12.631-13.305-22.726-26.04-25.113c-11.154-2.11-22.097,1.255-30.004,9.184
		c-7.915,7.93-11.239,18.876-9.118,30.03c2.524,13.297,13.183,23.848,26.524,26.265c5.683,1.018,11.258,0.645,16.588-1.106
		c1.61-0.537,3.465,0.066,4.598,1.484l1.48,1.84c1.155,1.44,1.285,3.406,0.326,5.012c-4.746,7.956-7.726,16.647-8.855,25.828
		c-0.244,1.977-1.766,3.477-3.69,3.65l-7.023,0.629c-1.644,0.163-2.891-0.836-3.502-1.436c-3.48-3.396-7.911-5.364-12.816-5.698
		c-8.251-0.548-15.989,3.969-19.528,11.239c-2.732,5.612-2.828,12.023-0.255,17.599c2.573,5.576,7.448,9.655,13.386,11.194
		c8.615,2.237,17.588-1.365,22.308-8.958c0.663-1.066,1.966-1.78,3.484-1.921l6.038-0.541c1.88-0.192,3.658,1.019,4.261,2.896
		c2.595,8.051,6.667,15.463,12.113,22.033c0.615,0.737,0.574,1.852-0.093,2.591c-0.644,0.716-1.651,0.712-2.376,0.493
		c-3.106-0.992-6.353-1.341-9.655-1.022c-11.009,1.045-20.053,9.74-21.508,20.672c-1.037,7.826,1.628,15.396,7.326,20.771
		c5.697,5.379,13.419,7.607,21.238,6.116c8.577-1.637,15.759-8.141,18.295-16.574c1.159-3.861,1.358-7.773,0.6-11.632
		c-0.111-0.563,0.074-1.177,0.489-1.636l2.906-3.228c0.615-0.686,1.618-0.885,2.373-0.471c1.914,1.044,3.909,2.003,5.923,2.851
		c2.458,1.033,3.932,3.713,3.669,6.66c-0.23,2.55-0.07,5.149,0.474,7.711c2.28,10.831,11.572,19.194,22.597,20.331
		c0.896,0.088,1.792,0.137,2.688,0.137c6.408,0,12.638-2.358,17.41-6.663c5.441-4.906,8.563-11.925,8.563-19.247
		c0-1.621-0.156-3.254-0.46-4.86c-0.58-3.014,0.622-5.838,3.066-7.193c3.843-2.132,7.481-4.648,10.82-7.48
		c1.21-1.026,2.596-1.478,3.694-1.196c1.666,0.418,2.488,1.399,2.88,2.144c0.556,1.052,0.629,2.324,0.204,3.487
		c-1.662,4.527-2.11,9.483-1.296,14.33c1.987,11.771,11.65,21.116,23.5,22.722c8.555,1.151,16.966-1.572,23.118-7.499
		c6.152-5.924,9.206-14.22,8.377-22.764C281.159,240.496,273.011,230.849,261.982,227.824z M268.746,269.257
		c-4.517,4.342-10.731,6.348-16.988,5.493c-8.67-1.174-15.74-8.007-17.195-16.614c-0.614-3.628-0.296-7.174,0.94-10.547
		c1.151-3.132,0.93-6.589-0.604-9.495c-1.551-2.936-4.254-5.016-7.615-5.867c-3.475-0.866-7.222,0.114-10.302,2.731
		c-2.965,2.521-6.201,4.757-9.618,6.652c-5.211,2.888-7.925,8.944-6.748,15.057c0.219,1.146,0.329,2.313,0.329,3.472
		c0,5.231-2.231,10.243-6.115,13.748c-3.935,3.552-9.036,5.235-14.378,4.658c-7.859-0.812-14.482-6.768-16.111-14.494
		c-0.389-1.847-0.507-3.701-0.344-5.522c0.544-6.171-2.736-11.854-8.174-14.142c-1.788-0.751-3.554-1.603-5.253-2.524
		c-1.392-0.759-2.906-1.129-4.413-1.129c-2.588,0-5.146,1.088-7,3.143l-2.906,3.229c-1.965,2.181-2.81,5.179-2.25,8.021
		c0.529,2.666,0.385,5.379-0.426,8.07c-1.751,5.816-6.693,10.307-12.59,11.432c-5.445,1.036-10.82-0.5-14.763-4.228
		c-3.942-3.725-5.79-8.977-5.071-14.415c0.992-7.43,7.381-13.567,14.867-14.278c2.31-0.211,4.561,0.019,6.708,0.707
		c3.742,1.188,7.626,0.196,10.125-2.587c3.117-3.455,3.239-8.733,0.289-12.276c-4.838-5.838-8.455-12.424-10.757-19.576
		c-1.674-5.189-6.619-8.459-11.968-7.999l-6.042,0.54c-3.824,0.345-7.229,2.357-9.11,5.387c-3.006,4.826-8.703,7.114-14.163,5.7
		c-3.78-0.98-6.886-3.579-8.522-7.13c-1.658-3.602-1.592-7.6,0.192-11.257c2.236-4.591,7.174-7.493,12.372-7.093
		c3.125,0.211,5.938,1.459,8.14,3.605c2.588,2.528,6.02,3.82,9.333,3.513l7.026-0.629c5.435-0.485,9.703-4.646,10.38-10.117
		c1.003-8.155,3.646-15.871,7.863-22.938c2.521-4.224,2.154-9.625-0.911-13.445l-1.478-1.84c-3.058-3.809-8.147-5.372-12.69-3.883
		c-4.15,1.37-8.514,1.655-12.957,0.852c-10.354-1.873-18.617-10.054-20.571-20.36c-1.655-8.714,0.929-17.251,7.082-23.418
		c6.16-6.171,14.678-8.759,23.399-7.137c9.87,1.854,17.98,9.677,20.183,19.468c1.232,5.486,0.755,11.039-1.384,16.059
		c-2.166,5.075-0.837,10.739,3.306,14.097c3.957,3.217,9.788,3.435,14.16,0.533c3.909-2.591,8.133-4.712,12.564-6.312
		c5.101-1.84,8.019-7.159,6.782-12.375l-3.38-14.26c-0.814-3.439-3.402-6.267-6.926-7.574c-5.764-2.14-9.64-7.689-9.64-13.808
		c0-4.476,1.992-8.663,5.468-11.491c3.528-2.865,7.985-3.935,12.546-2.983c5.667,1.173,10.221,5.819,11.324,11.557
		c0.877,4.564-0.296,8.996-3.313,12.472c-2.288,2.646-3.188,6.182-2.406,9.455l4.216,17.78c1.037,4.379,4.747,7.622,9.229,8.073
		c6.29,0.63,11.184,1.422,13.778,2.236c7.878,2.443,16.399-1.233,20.279-8.762l4.286-8.326c2.355-4.564,2.422-10.103,0.189-15.186
		c-1.436-3.265-1.885-6.904-1.3-10.524c1.26-7.781,7.585-14.026,15.386-15.189c5.867-0.885,11.605,0.962,15.788,5.035
		c4.18,4.072,6.164,9.766,5.45,15.618c-0.76,6.193-4.957,11.746-10.958,14.489c-1.873,0.855-3.799,1.385-5.731,1.577
		c-5.504,0.544-10.425,4.042-13.16,9.351l-5.475,10.625c-3.069,5.953-2.347,13.167,1.94,18.506c2.42,3.009,4.704,5.853,6.566,8.966
		c2.084,3.479,5.346,5.827,9.188,6.604c3.857,0.796,7.812-0.111,11.113-2.524c1.262-0.93,2.095-1.385,2.576-1.61
		c4.539-2.092,9.617-2.281,14.286-0.526c4.675,1.758,8.369,5.242,10.398,9.806c3.92,8.804,0.141,19.55-8.411,23.963
		c-4.697,2.417-10.218,2.713-15.137,0.821c-3.443-1.329-7.189-1.129-10.562,0.582c-3.491,1.769-6.079,4.941-7.097,8.707
		c-0.837,3.079-1.929,6.107-3.247,9.01c-2.225,4.879-0.899,10.591,3.218,13.896l5.223,4.187c2.655,2.137,6.179,2.97,9.659,2.266
		c3.083-0.61,6.204-0.495,9.287,0.353v0.004c7.956,2.18,14.071,9.41,14.867,17.572C275.495,258.82,273.259,264.91,268.746,269.257z"
		/>
	<path d="M182.439,200.908c-12.25,0-22.211,9.962-22.211,22.211c0,12.25,9.961,22.212,22.211,22.212
		c12.25,0,22.212-9.962,22.212-22.212C204.651,210.87,194.686,200.908,182.439,200.908z M182.439,237.928
		c-8.166,0-14.807-6.642-14.807-14.809c0-8.166,6.641-14.807,14.807-14.807c8.167,0,14.808,6.641,14.808,14.807
		C197.247,231.286,190.606,237.928,182.439,237.928z"/>
	<path d="M167.632,171.293c0-8.167-6.641-14.808-14.808-14.808s-14.808,6.641-14.808,14.808c0,8.166,6.641,14.808,14.808,14.808
		S167.632,179.459,167.632,171.293z M152.825,178.696c-4.083,0-7.404-3.32-7.404-7.403c0-4.083,3.32-7.404,7.404-7.404
		s7.404,3.321,7.404,7.404C160.229,175.376,156.904,178.696,152.825,178.696z"/>
	<path d="M215.757,167.591c-8.166,0-14.808,6.641-14.808,14.808c0,8.166,6.642,14.808,14.808,14.808s14.808-6.642,14.808-14.808
		C230.564,174.232,223.923,167.591,215.757,167.591z M215.757,189.803c-4.083,0-7.403-3.321-7.403-7.404s3.32-7.404,7.403-7.404
		c4.084,0,7.404,3.321,7.404,7.404S219.837,189.803,215.757,189.803z"/>
</g>
</svg>
