<?xml version="1.0" encoding="utf-8"?>
<!-- Generator: Adobe Illustrator 16.0.0, SVG Export Plug-In . SVG Version: 6.00 Build 0)  -->
<!DOCTYPE svg PUBLIC "-//W3C//DTD SVG 1.1//EN" "http://www.w3.org/Graphics/SVG/1.1/DTD/svg11.dtd">
<svg version="1.1" id="Capa_1" xmlns="http://www.w3.org/2000/svg" xmlns:xlink="http://www.w3.org/1999/xlink" x="0px" y="0px"
	 width="350px" height="350px" viewBox="0 0 350 350" enable-background="new 0 0 350 350" xml:space="preserve">
<g>
	<g>
		<path d="M249.099,269.856l-1.898-0.317l0.316-1.899c0.315-1.581-0.633-3.48-2.216-3.797c-1.582-0.316-3.481,0.633-3.797,2.216
			l-0.633,1.898l-1.899-0.317c-1.582-0.315-3.48,0.633-3.798,2.217c-0.315,1.581,0.633,3.48,2.216,3.797l1.898,0.316l-0.316,2.215
			c-0.316,1.583,0.633,3.481,2.215,3.798c0.317,0,0.633,0,0.633,0c1.583,0,2.849-0.949,3.165-2.532l0.316-1.898l1.899,0.317
			c0.316,0,0.632,0,0.632,0c1.583,0,2.85-0.95,3.165-2.532C251.946,272.07,250.997,270.488,249.099,269.856z"/>
	</g>
</g>
<g>
	<g>
		<path d="M202.578,198.335l-42.09-10.128c-1.582-0.316-3.481,0.634-3.798,2.216c-0.316,1.583,0.633,3.481,2.216,3.797l42.09,10.128
			c0.316,0,0.633,0,0.633,0c1.582,0,2.849-0.95,3.164-2.532C205.426,200.232,204.478,198.651,202.578,198.335z"/>
	</g>
</g>
<g>
	<g>
		<path d="M198.147,216.373l-41.773-9.811c-1.583-0.317-3.481,0.633-3.798,2.215c-0.316,1.583,0.633,3.481,2.215,3.798l42.09,10.127
			c0.316,0,0.633,0,0.633,0c1.582,0,2.849-0.949,3.165-2.531C200.996,218.588,200.047,217.007,198.147,216.373z"/>
	</g>
</g>
<g>
	<g>
		<path d="M193.717,234.728l-42.089-10.127c-1.583-0.315-3.481,0.633-3.798,2.216c-0.316,1.582,0.633,3.481,2.215,3.797
			l42.09,10.127c0.316,0,0.633,0,0.633,0c1.583,0,2.848-0.949,3.165-2.531C196.565,236.943,195.615,235.361,193.717,234.728z"/>
	</g>
</g>
<g>
	<g>
		<path d="M189.603,253.082l-42.089-10.126c-1.583-0.316-3.481,0.633-3.797,2.215c-0.316,1.583,0.633,3.481,2.215,3.798
			l42.091,10.127c0.315,0,0.633,0,0.633,0c1.581,0,2.848-0.949,3.164-2.531C192.135,255.298,191.186,253.399,189.603,253.082z"/>
	</g>
</g>
<g>
	<g>
		<path d="M300.05,202.132l-56.964-13.607l19.305-9.494c3.797-1.899,6.329-5.063,7.911-8.861c1.267-3.797,0.949-7.912-0.633-11.709
			l-15.507-31.33l1.266-0.633c2.215-0.949,3.798-2.848,4.431-5.063c0.633-2.216,0.633-4.747-0.316-6.962l-12.658-25.95
			c-2.216-4.43-7.596-6.33-12.025-4.114l-1.267,0.632l-14.241-28.798c-1.899-3.798-5.063-6.33-8.86-7.912
			c-3.798-1.266-7.912-0.95-11.71,0.633L56.371,118.901c-3.797,1.899-6.329,5.063-7.912,8.861
			c-1.266,3.797-0.949,7.912,0.633,11.709L99.094,241.69c1.898,3.798,5.063,6.329,8.861,7.911c1.583,0.633,3.165,0.95,5.063,0.95
			c2.215,0,4.747-0.634,6.646-1.583l4.431-2.215l-3.481,15.19c-0.316,0.949,0,1.582,0.316,2.531
			c0.316,0.633,1.266,1.266,1.898,1.266l153.169,36.71c0.316,0,0.633,0,0.633,0c0.633,0,1.267-0.316,1.583-0.316
			c0.633-0.316,1.266-1.266,1.266-1.898l22.469-93.991C302.898,204.348,301.948,202.448,300.05,202.132z M237.706,90.104
			c0.316-0.317,0.633-0.317,1.266-0.317c0.949,0,1.899,0.633,2.215,1.583l12.659,25.95c0.316,0.633,0.316,1.266,0,1.898
			c-0.316,0.633-0.633,1.266-1.266,1.583l-59.18,28.798c-1.266,0.633-2.848,0-3.48-1.266l-12.659-25.95
			c-0.316-0.633-0.316-1.266,0-1.899c0.316-0.633,0.633-1.266,1.267-1.583l55.064-26.899L237.706,90.104z M125.677,238.843
			l-8.544,4.113c-2.216,0.949-4.747,1.266-6.962,0.316c-2.215-0.633-4.114-2.532-5.063-4.43L55.105,136.624
			c-0.95-2.215-1.266-4.747-0.317-6.962c0.633-2.215,2.532-4.114,4.431-5.063l142.41-69.939c2.216-0.949,4.747-1.266,6.962-0.316
			c2.215,0.633,4.114,2.532,5.063,4.43l14.241,28.799l-52.217,25.633c-4.431,2.215-6.33,7.595-4.114,12.026l12.658,25.95
			c1.583,3.165,4.747,5.063,7.912,5.063c1.266,0,2.532-0.316,3.798-0.949l52.217-25.634l15.506,31.33
			c0.95,2.216,1.267,4.747,0.317,6.963c-0.633,2.215-2.532,4.114-4.431,5.063l-26.268,12.976l-86.078-20.571
			c-1.583-0.316-3.481,0.633-3.797,2.215l-17.089,71.206C125.994,238.843,125.994,238.843,125.677,238.843z M127.576,260.361
			l21.204-87.977l71.204,17.089L198.78,277.45L127.576,260.361z M266.505,278.083l-3.481,14.875l-46.837-11.394l3.481-14.873
			c2.215-9.494,11.393-16.14,19.304-14.242h0.316c3.164,2.849,6.962,4.432,11.076,4.432c1.582,0,3.165-0.316,4.747-0.634h0.633
			c3.798,0.95,6.963,3.798,9.178,7.596C267.137,268.272,267.77,273.021,266.505,278.083z M263.655,227.449
			c0.95,2.216,0.95,4.431,0.317,6.646c-1.266,4.748-5.38,8.229-10.127,8.861c-4.114,0-7.278-1.582-7.278-1.582
			c-4.115-2.531-6.33-7.596-5.063-12.659c0.633-2.215,1.898-4.114,3.48-5.695L263.655,227.449z M247.832,217.007l0.95-3.799
			l16.14,3.799l-0.949,3.797L247.832,217.007z M252.896,249.285l-0.316,1.267c-2.849,0.633-5.696,0-7.912-1.899l0.316-1.266
			C246.567,248.02,249.415,248.969,252.896,249.285z M274.416,295.489l-5.063-1.266l3.48-14.874
			c1.583-6.329,0.633-12.975-2.215-18.355c-2.532-5.063-6.646-8.545-11.393-10.126l0.633-2.849
			c5.063-2.216,9.178-6.646,10.442-12.342c0.95-3.481,0.634-7.279-0.632-10.761l2.216-9.177c0.315-1.583-0.634-3.481-2.216-3.798
			l-22.152-5.38c-0.949-0.317-1.583,0-2.532,0.316c-0.633,0.316-1.266,1.266-1.266,1.898l-2.215,9.178
			c-2.849,2.532-4.748,5.697-5.697,9.178c-1.266,5.696,0.316,11.71,3.798,15.823l-0.633,2.848
			c-11.076-1.582-22.152,6.963-25.001,19.305l-3.48,14.874l-5.064-1.266l20.57-87.978l69.306,16.772L274.416,295.489z"/>
	</g>
</g>
<g>
	<g>
		<path d="M204.793,125.231c-0.633-1.583-2.532-2.215-4.113-1.583l-6.329,3.165c-1.583,0.633-2.216,2.532-1.583,4.114
			c0.633,1.266,1.583,1.899,2.848,1.899c0.317,0,0.95,0,1.267-0.316l6.329-3.165C204.793,128.712,205.426,126.813,204.793,125.231z"
			/>
	</g>
</g>
</svg>
