<?xml version="1.0" encoding="utf-8"?>
<!-- Generator: Adobe Illustrator 16.0.0, SVG Export Plug-In . SVG Version: 6.00 Build 0)  -->
<!DOCTYPE svg PUBLIC "-//W3C//DTD SVG 1.1//EN" "http://www.w3.org/Graphics/SVG/1.1/DTD/svg11.dtd">
<svg version="1.1" id="Capa_1" xmlns="http://www.w3.org/2000/svg" xmlns:xlink="http://www.w3.org/1999/xlink" x="0px" y="0px"
	 width="350px" height="350px" viewBox="0 0 350 350" enable-background="new 0 0 350 350" xml:space="preserve">
<g>
	<path d="M225.567,239.341l0.03-0.006l-0.505-6.269c-0.859-10.578-3.648-21.687-8.774-34.951c-1.445-3.746-2.253-7.977-2.58-12.249
		c-0.721-9.433,1.14-19.125,5.381-24.608c0.827-1.073,1.513-2.269,2.192-3.47c2.846-5.022,4.435-11.037,4.409-17.419v-0.005v-0.005
		c-0.005-0.506-0.025-0.971-0.056-1.441l-0.216-7.241l-0.138,0.036c-3.157-36.944-24.895-46.718-32.063-49.002
		c-0.617-1.078-1.472-3.178-2.05-7.062c-0.04-0.291-0.143-0.552-0.203-0.833c5.534-1.845,9.55-4.931,9.55-9.678V44.699
		c0-8.799-13.761-11.921-25.549-11.921c-11.789,0-25.549,3.123-25.549,11.921v20.439c0,4.747,4.016,7.828,9.545,9.673
		c-0.066,0.276-0.164,0.542-0.205,0.828c-0.577,3.903-1.43,5.999-2.238,7.184c-6.996,2.176-28.722,11.946-31.875,48.896
		l-0.184-0.051l-0.168,7.317c-0.026,0.45-0.046,0.899-0.051,1.385c-0.046,7.91,2.299,15.329,6.602,20.899
		c3.848,4.977,5.794,13.434,5.575,22.012c-0.087,3.435-0.521,6.884-1.314,10.139c-0.398,1.625-0.883,3.204-1.466,4.705
		c-1.283,3.317-2.417,6.496-3.414,9.566c-2.989,9.213-4.716,17.444-5.36,25.385c-1.553,19.218-2.984,45.882-1.006,64.026
		c0.184,9.259,8.855,20.127,48.548,20.127c33.321,0,53.326-7.517,53.653-20.123C227.872,280.831,226.907,257.782,225.567,239.341z
		 M135.763,228.59c0.138-0.94,0.255-1.876,0.429-2.837c0.271-1.518,0.628-3.086,0.991-4.654c0.215-0.94,0.398-1.859,0.644-2.821
		c0.45-1.747,1.007-3.572,1.569-5.4c0.261-0.854,0.476-1.672,0.762-2.545c0.899-2.739,1.906-5.569,3.05-8.533
		c4.144-10.73,4.43-23.868,1.472-34.542c-1.303-4.691-3.163-8.953-5.712-12.249c-0.031-0.041-0.057-0.092-0.087-0.132
		c-0.613-0.808-1.15-1.691-1.64-2.611c-0.154-0.291-0.292-0.593-0.43-0.889c-0.362-0.766-0.68-1.569-0.96-2.396
		c-0.097-0.286-0.205-0.567-0.292-0.858c-0.306-1.042-0.542-2.131-0.715-3.245c11.512,2.417,25.482,3.73,40.157,3.73
		c14.676,0,28.641-1.313,40.153-3.725c-0.175,1.119-0.414,2.203-0.721,3.245c-0.087,0.291-0.194,0.572-0.292,0.858
		c-0.275,0.828-0.598,1.62-0.955,2.386c-0.144,0.302-0.281,0.608-0.434,0.9c-0.517,0.971-1.074,1.901-1.723,2.744
		c-5.217,6.75-7.899,17.307-7.721,28.047c0.106,6.444,1.241,12.954,3.479,18.743c1.149,2.974,2.156,5.805,3.056,8.55
		c0.281,0.852,0.485,1.645,0.741,2.478c0.566,1.849,1.129,3.688,1.584,5.452c0.25,0.976,0.434,1.905,0.654,2.861
		c0.353,1.548,0.705,3.091,0.976,4.588c0.184,1.013,0.307,1.994,0.45,2.984c0.143,0.972,0.26,1.942,0.367,2.897
		c-11.088,2.499-24.957,3.854-39.616,3.854c-14.66,0-28.527-1.359-39.616-3.854C135.493,230.612,135.615,229.606,135.763,228.59z
		 M159.672,45.813c1.615-1.006,6.699-2.815,15.329-2.815c8.631,0,13.715,1.809,15.329,2.815v18.211
		c-1.318,0.817-4.992,2.167-10.985,2.636c-2.825,0.205-5.872,0.205-8.687,0c-5.989-0.47-9.667-1.819-10.986-2.636V45.813z
		 M159.595,92.582c2.575-0.802,4.711-2.508,6.014-4.792c1.533-2.667,2.642-6.254,3.618-10.971c0.133,0.01,0.286,0.005,0.424,0.015
		c1.793,0.148,3.592,0.225,5.35,0.225c2.003,0,3.93-0.086,6.091,0.072c0.649,4.389,1.758,7.976,3.291,10.648
		c1.308,2.294,3.449,3.996,6.029,4.798c5.509,1.712,22.759,9.683,24.869,41.788c-11.185,2.591-25.282,4.011-40.275,4.011
		c-14.987,0-29.085-1.42-40.275-4.016C136.831,102.26,154.087,94.294,159.595,92.582z M215.915,296.222l-0.03,0.563
		c0,2.622-10.695,10.221-43.438,10.221c-30.321,0-38.333-6.689-38.333-10.221l-0.031-0.563c-1.671-15.012-0.833-36.591,0.414-54.357
		c11.594,2.469,25.697,3.822,40.505,3.822c14.809,0,28.911-1.354,40.506-3.822C216.748,259.621,217.586,281.189,215.915,296.222z"/>
	<path d="M174.041,57.662c2.826,0,5.11-2.284,5.11-5.11c0-2.825-2.284-5.109-5.11-5.109h-5.11c-2.826,0-5.11,2.284-5.11,5.109
		c0,2.826,2.284,5.11,5.11,5.11H174.041z"/>
	<path d="M167.137,286.519c-9.637,0.379-13.106-1.875-14.144-2.876c-0.899-0.863-0.991-1.672-1.017-1.672c0,0,0,0.005-0.005,0.017
		l0.036-5.642c0-2.825-2.284-5.109-5.11-5.109s-5.11,2.284-5.11,5.109v4.844c-0.158,2.412,0.665,6.121,3.531,9.223
		c3.925,4.231,10.547,6.367,19.724,6.367c0.808,0,1.64-0.016,2.489-0.051c2.821-0.107,5.013-2.483,4.905-5.305
		C172.329,288.598,169.738,286.401,167.137,286.519z"/>
	<path d="M146.897,266.126c2.826,0,5.11-2.284,5.11-5.11v-5.161c0-2.825-2.284-5.109-5.11-5.109s-5.11,2.284-5.11,5.109v5.161
		C141.788,263.842,144.072,266.126,146.897,266.126z"/>
	<path d="M151.103,128.08c0.312,0.056,0.608,0.082,0.909,0.082c2.432,0,4.579-1.737,5.023-4.205
		c2.039-11.41,12.115-16.535,12.544-16.75c2.524-1.236,3.577-4.282,2.355-6.816c-1.226-2.529-4.262-3.592-6.827-2.376
		c-0.613,0.301-15.156,7.501-18.135,24.139C146.478,124.927,148.328,127.584,151.103,128.08z"/>
</g>
</svg>
