<?xml version="1.0" encoding="utf-8"?>
<!-- Generator: Adobe Illustrator 16.0.0, SVG Export Plug-In . SVG Version: 6.00 Build 0)  -->
<!DOCTYPE svg PUBLIC "-//W3C//DTD SVG 1.1//EN" "http://www.w3.org/Graphics/SVG/1.1/DTD/svg11.dtd">
<svg version="1.1" id="Layer_1" xmlns="http://www.w3.org/2000/svg" xmlns:xlink="http://www.w3.org/1999/xlink" x="0px" y="0px"
	 width="350px" height="350px" viewBox="0 0 350 350" enable-background="new 0 0 350 350" xml:space="preserve">
<g>
	<path fill="#F0666F" d="M215.356,89.68h-73.382v9.576h-13.249V89.68h-51.98l22.422,36.377h67.589
		c-1.326,4.524-2.04,9.311-2.04,14.264c0,27.968,22.672,50.641,50.64,50.641s50.641-22.673,50.641-50.641
		S243.324,89.68,215.356,89.68z"/>
	<g>
		<path fill="#CF5760" d="M258.646,114.03c2.33,5.817,3.613,12.167,3.613,18.816c0,27.969-22.672,50.641-50.64,50.641
			c-18.342,0-34.405-9.751-43.291-24.352c7.47,18.65,25.708,31.825,47.027,31.825c27.968,0,50.641-22.673,50.641-50.641
			C265.997,130.693,263.311,121.694,258.646,114.03z"/>
	</g>
	<path fill="#005066" d="M215.356,192.998c-29.047,0-52.678-23.631-52.678-52.678c0-4.132,0.48-8.232,1.43-12.225h-64.94
		c-0.707,0-1.363-0.367-1.735-0.969L75.01,90.749c-0.387-0.629-0.404-1.418-0.044-2.063c0.36-0.645,1.041-1.044,1.779-1.044h51.98
		c1.125,0,2.038,0.912,2.038,2.038v7.538h9.173V89.68c0-1.126,0.913-2.038,2.039-2.038h73.381c29.047,0,52.679,23.632,52.679,52.679
		S244.403,192.998,215.356,192.998z M100.306,124.019h66.45c0.642,0,1.247,0.303,1.631,0.816c0.386,0.514,0.505,1.179,0.325,1.795
		c-1.299,4.435-1.958,9.04-1.958,13.69c0,26.8,21.803,48.603,48.603,48.603s48.603-21.803,48.603-48.603
		s-21.803-48.603-48.603-48.603h-71.344v7.538c0,1.126-0.913,2.039-2.038,2.039h-13.25c-1.126,0-2.038-0.913-2.038-2.039v-7.538
		H80.396L100.306,124.019z"/>
	<circle fill="#FFE394" cx="215.407" cy="140.624" r="31.62"/>
	<path fill="#005066" d="M215.407,174.282c-18.56,0-33.658-15.099-33.658-33.658c0-18.559,15.099-33.658,33.658-33.658
		s33.658,15.1,33.658,33.658C249.065,159.184,233.967,174.282,215.407,174.282z M215.407,111.042
		c-16.312,0-29.581,13.271-29.581,29.582c0,16.312,13.27,29.582,29.581,29.582s29.582-13.271,29.582-29.582
		C244.989,124.313,231.719,111.042,215.407,111.042z"/>
	<path fill="#005066" d="M260.636,190.554c-2.919,0-5.694-1.07-7.869-3.047l-7.786-6.889l15.766-17.348l7.765,6.871
		c4.803,4.363,5.158,11.791,0.812,16.574l0,0c-2.104,2.316-4.987,3.675-8.113,3.824C261.018,190.55,260.825,190.554,260.636,190.554
		z M250.775,180.303l4.713,4.169c1.53,1.392,3.492,2.094,5.525,1.996c2.04-0.098,3.919-0.982,5.293-2.494
		c2.834-3.119,2.602-7.964-0.518-10.798l-4.731-4.187L250.775,180.303z"/>
	<path fill="#005066" d="M209.35,262.358c-5.926,0-10.071-2.514-11.491-7.19c-2.877-9.477,6.874-24.978,25.468-32.067
		c26.701-10.182,35.505-46.987,35.59-47.357c0.254-1.097,1.35-1.779,2.445-1.526c1.097,0.254,1.78,1.35,1.526,2.445
		c-0.093,0.399-2.332,9.911-8.098,20.883c-7.705,14.662-18.082,24.815-30.012,29.364c-7.845,2.991-14.548,7.829-18.875,13.622
		c-3.608,4.831-5.197,9.986-4.145,13.453c1.186,3.903,5.802,5.241,12.667,3.668c17.804-4.08,48.218-20.354,55.355-36.57
		c1.951-4.433,1.913-8.325-0.115-11.899c-6.354-11.192-8.696-18.318-7.161-21.786c0.677-1.524,1.844-1.894,2.186-1.97
		c1.097-0.247,2.188,0.443,2.435,1.542c0.196,0.875-0.202,1.745-0.928,2.188c-0.184,0.692-0.604,4.594,7.014,18.014
		c2.671,4.707,2.772,9.938,0.301,15.554c-7.754,17.62-39.109,34.532-58.176,38.901C213.189,262.117,211.184,262.358,209.35,262.358z
		 M265.586,189.403c-0.001,0.001-0.003,0.001-0.004,0.001C265.583,189.404,265.585,189.404,265.586,189.403z M266.238,189.035
		L266.238,189.035L266.238,189.035z"/>
</g>
</svg>
