<?xml version="1.0" encoding="utf-8"?>
<!-- Generator: Adobe Illustrator 16.0.0, SVG Export Plug-In . SVG Version: 6.00 Build 0)  -->
<!DOCTYPE svg PUBLIC "-//W3C//DTD SVG 1.1//EN" "http://www.w3.org/Graphics/SVG/1.1/DTD/svg11.dtd">
<svg version="1.1" id="Layer_1" xmlns="http://www.w3.org/2000/svg" xmlns:xlink="http://www.w3.org/1999/xlink" x="0px" y="0px"
	 width="350px" height="350px" viewBox="0 0 350 350" enable-background="new 0 0 350 350" xml:space="preserve">
<path fill="#E4EAF8" d="M235.633,268.281H49.07c-5.152,0-9.328-4.176-9.328-9.328V100.375c0-5.152,4.176-9.328,9.328-9.328h186.562
	c5.152,0,9.328,4.176,9.328,9.328v158.578C244.961,264.105,240.784,268.281,235.633,268.281z"/>
<g>
	<path fill="#D5DCED" d="M244.961,142.352l-67.297,67.295l-11.959,25.628c-1.482,3.177,1.813,6.471,4.988,4.988l25.626-11.96
		l48.642-48.64V142.352z"/>
	<path fill="#D5DCED" d="M235.633,91.047H58.398v13.993c0,2.575,2.088,4.664,4.664,4.664h181.898v-9.328
		C244.961,95.224,240.784,91.047,235.633,91.047z"/>
</g>
<rect x="207.647" y="91.047" fill="#FFF082" width="18.657" height="18.656"/>
<rect x="188.992" y="91.047" fill="#FF5050" width="18.655" height="18.656"/>
<path fill="#A0FFB4" d="M244.961,109.704h-18.656V91.048h9.328c5.151,0,9.328,4.176,9.328,9.328V109.704z"/>
<path fill="#FFFFFF" d="M230.968,258.953H53.734c-2.576,0-4.664-2.089-4.664-4.664V123.695c0-2.576,2.088-4.665,4.664-4.665h177.233
	c2.576,0,4.665,2.089,4.665,4.665v130.594C235.633,256.865,233.544,258.953,230.968,258.953z"/>
<path fill="#E4EAF8" d="M235.633,151.68l-57.969,57.968l-11.959,25.627c-1.482,3.177,1.813,6.471,4.988,4.988l25.626-11.959
	l39.313-39.313L235.633,151.68L235.633,151.68z"/>
<path fill="#5B5D6E" d="M161.033,235.933l22.65-10.568c1.971-0.92,3.765-2.177,5.302-3.714l119.907-119.907
	c1.821-1.821,1.821-4.775,0-6.596l-12.06-12.06c-1.822-1.821-4.775-1.821-6.597,0L170.328,202.993
	c-1.538,1.537-2.794,3.332-3.714,5.303l-10.569,22.648C154.562,234.121,157.856,237.415,161.033,235.933z"/>
<g>
	<path fill="#464655" d="M288.869,103.107L156.792,235.186c1.036,1.035,2.652,1.488,4.24,0.747l22.649-10.568
		c1.971-0.92,3.765-2.177,5.302-3.716l109.214-109.212L288.869,103.107z"/>
	<path fill="#464655" d="M137.687,133.024h-9.328c-2.578,0-4.664,2.088-4.664,4.664c0,1.842,1.09,3.4,2.641,4.158l-11.969,29.926
		l-11.769-29.419h2.441c2.578,0,4.665-2.089,4.665-4.665s-2.086-4.664-4.665-4.664h-9.328c-1.549,0-2.993,0.767-3.862,2.05
		c-0.866,1.281-1.043,2.91-0.469,4.347l3.97,9.925l-8.967,22.422l-11.769-29.417h2.441c2.578,0,4.664-2.089,4.664-4.664
		c0-2.576-2.086-4.665-4.664-4.665h-9.328c-1.548,0-2.992,0.767-3.862,2.05c-0.865,1.282-1.042,2.911-0.469,4.348l18.656,46.641
		c0.711,1.769,2.424,2.931,4.332,2.931s3.621-1.162,4.332-2.931l9.66-24.153l9.661,24.153c0.71,1.769,2.423,2.931,4.332,2.931
		c1.909,0,3.622-1.162,4.332-2.931l17.483-43.71h1.504c2.578,0,4.665-2.088,4.665-4.664S140.266,133.024,137.687,133.024z"/>
</g>
<path fill="#959CB5" d="M133.023,216.977H67.727c-2.578,0-4.664-2.089-4.664-4.664c0-2.576,2.086-4.665,4.664-4.665h65.297
	c2.578,0,4.665,2.089,4.665,4.665C137.688,214.888,135.601,216.977,133.023,216.977z"/>
<path fill="#7F8499" d="M207.647,142.352h-46.64c-2.578,0-4.664-2.089-4.664-4.664c0-2.576,2.086-4.665,4.664-4.665h46.64
	c2.578,0,4.665,2.088,4.665,4.665C212.313,140.263,210.226,142.352,207.647,142.352z"/>
<path fill="#707487" d="M188.992,161.008h-27.985c-2.578,0-4.664-2.089-4.664-4.665c0-2.576,2.086-4.664,4.664-4.664h27.985
	c2.577,0,4.665,2.088,4.665,4.664C193.657,158.919,191.569,161.008,188.992,161.008z"/>
<path fill="#959CB5" d="M114.367,235.633h-46.64c-2.578,0-4.664-2.089-4.664-4.665s2.086-4.663,4.664-4.663h46.641
	c2.578,0,4.665,2.087,4.665,4.663C119.031,233.544,116.945,235.633,114.367,235.633z"/>
<path fill="#7F8499" d="M193.655,216.977L175,198.32l-4.672,4.673c-1.538,1.537-2.794,3.331-3.714,5.302l-10.569,22.649
	c-1.482,3.177,1.813,6.47,4.988,4.988l22.649-10.569c1.971-0.92,3.765-2.176,5.302-3.715L193.655,216.977z"/>
<path fill="#707487" d="M184.327,207.649l-27.535,27.535c1.036,1.035,2.652,1.488,4.24,0.748l22.649-10.569
	c1.971-0.92,3.765-2.176,5.302-3.715l4.672-4.672L184.327,207.649z"/>
<path fill="#7F8499" d="M296.832,83.084c-1.822-1.821-4.775-1.821-6.597,0l-10.694,10.695l18.656,18.656l10.694-10.694
	c1.821-1.822,1.821-4.774,0-6.596L296.832,83.084z"/>
<path fill="#707487" d="M308.892,95.145l-6.03-6.03l-13.992,13.992l9.328,9.328l10.694-10.694
	C310.713,99.92,310.713,96.967,308.892,95.145z"/>
</svg>
