<?xml version="1.0" encoding="utf-8"?>
<!-- Generator: Adobe Illustrator 16.0.0, SVG Export Plug-In . SVG Version: 6.00 Build 0)  -->
<!DOCTYPE svg PUBLIC "-//W3C//DTD SVG 1.1//EN" "http://www.w3.org/Graphics/SVG/1.1/DTD/svg11.dtd">
<svg version="1.1" id="Layer_1" xmlns="http://www.w3.org/2000/svg" xmlns:xlink="http://www.w3.org/1999/xlink" x="0px" y="0px"
	 width="350px" height="350px" viewBox="0 0 350 350" enable-background="new 0 0 350 350" xml:space="preserve">
<g>
	<g>
		<path fill="#D1D3D4" d="M95.283,278.191c-3.134-0.548-5.291-1.071-6.415-1.467c-1.152-0.402-1.804-0.898-2.125-1.421
			c-1.301,1.3-0.346,1.766-0.346,1.766c1.833,0.918,3.996,1.738,6.432,2.473C93.639,279.082,94.457,278.631,95.283,278.191z"/>
		<path fill="#D1D3D4" d="M169.646,281.873c0.803-0.471,1.598-0.958,2.39-1.444c-2.617,0.213-5.224,0.389-7.812,0.521
			c-7.89,0.412-15.212,0.595-21.965,0.612c0.556,0.234,1.115,0.468,1.671,0.69c2.564,1.028,5.09,1.838,7.654,2.411
			c4.813-0.103,9.647-0.29,14.418-0.548C167.317,283.414,168.583,282.492,169.646,281.873z"/>
		<path fill="#D1D3D4" d="M213.94,274.146c1.179,0.495,2.34,1.039,3.476,1.671c0.782,0.437,1.563,0.874,2.346,1.301
			c6.042-1.464,11.245-3.038,15.675-4.636c0.082-0.114,0.151-0.233,0.23-0.347c0.576-1.378,1.05-2.803,1.527-4.234
			C230.562,270.116,222.616,272.254,213.94,274.146z"/>
		<path fill="#D1D3D4" d="M157.899,270.502c0.262-3.248,1.062-6.392,2.028-9.488c-2.267,0.171-4.543,0.34-6.839,0.501
			c-36.307,2.59-57.951,8.209-62.998,11.021c-1.444,0.807-2.323,1.457-2.84,1.971c0.32,0.52,0.966,1.007,2.113,1.401
			c1.216,0.425,3.664,1.001,7.247,1.596c4.447-2.245,9.121-4.023,14.089-4.467c4.944-0.442,9.575,0.099,14.019,1.563
			c1.057,0.265,2.107,0.564,3.155,0.924c4.069,1.396,7.957,3.227,11.883,4.957c6.083,0.017,12.66-0.104,19.709-0.402
			C158.199,277.064,157.628,273.833,157.899,270.502z"/>
		<path fill="#D1D3D4" d="M186.574,258.919c-5.707,0.457-11.527,0.927-17.45,1.388c-1.4,3.487-3.705,6.569-4.852,10.185
			c-0.986,3.11-1.362,6.258-1.179,9.42c0.233-0.015,0.46-0.021,0.696-0.032c3.425-0.178,6.886-0.428,10.355-0.739
			c1.141-0.681,2.298-1.343,3.503-1.93c4.965-2.417,10.253-4.252,15.716-5.157c0.047-0.012,0.091-0.015,0.137-0.021
			C190.038,268.427,187.725,263.881,186.574,258.919z"/>
		<path fill="#D1D3D4" d="M194.183,258.316c0.616,4.519,1.696,9.071,3.545,13.245c1.78-0.228,3.55-0.237,5.319-0.082
			c2.346,0.16,4.622,0.495,6.881,1.207c0.722,0.229,1.426,0.473,2.127,0.726c9.659-2.055,18.452-4.416,25.591-6.856
			c0.239-0.703,0.486-1.403,0.751-2.096c1.22-3.158,2.814-6.12,4.444-9.076C228.146,255.755,211.755,256.93,194.183,258.316z"/>
	</g>
	<path fill="#D1D3D4" d="M126.866,200.387c-1.042-0.015-2.084-0.06-3.12-0.146c-0.73-0.06-1.461-0.124-2.191-0.181l4.901,7.5
		C126.211,205.217,126.584,202.734,126.866,200.387z"/>
	<path fill="#D1D3D4" d="M139.369,230.208c-1.243-1.704-2.235-3.523-3.053-5.415l-17.686-24.835
		c-0.527-0.029-1.057-0.052-1.586-0.062c-0.489-0.006-0.975-0.018-1.452-0.045c-0.265,4.763-0.294,7.676-0.018,8.052
		c2.104,2.865,20.163,27.412,20.163,27.412l13.501,2.346C145.495,235.79,141.884,233.662,139.369,230.208z"/>
	<path fill="#D1D3D4" d="M130.784,214.184l6.493,9.936c-1.234-3.026-2.046-6.229-2.707-9.457
		C133.281,214.792,131.962,214.653,130.784,214.184z"/>
	<path fill="#D1D3D4" d="M125.175,195.366c-4.333,0.143-8.664-0.051-12.954-0.696c0.178,0.025-4.293-0.747-2.771-2.041
		c0.794-0.678,1.778-1.233,2.704-1.692c1.042-0.52,2.634-1.316,4.217-1.893c0.062-0.401,0.123-0.804,0.184-1.207
		c-0.847,0.156-1.682,0.368-2.41,0.534c-2.352,0.533-4.366,1.272-6.385,2.598c-1.135,0.742-2.189,2.619-1.706,3.981
		c0.757,2.123,2.916,2.794,4.95,3.188c5.189,1.009,10.332,1.247,15.544,1.048C126.642,197.759,126.415,196.428,125.175,195.366z"/>
	<path fill="#D1D3D4" d="M136.802,194.763c-1.493,0.093-2.986,0.184-4.479,0.259c0.492,1.126,0.285,2.453,0.401,3.783
		c0.719-0.051,1.438-0.104,2.157-0.154C135.437,197.323,136.115,196.048,136.802,194.763z"/>
	<path fill="#D1D3D4" d="M181.58,187.257c-8.16,2.352-16.708,3.664-25.002,5.227c3.097,1.246,6.403,1.933,9.75,2.146
		c2.998-0.597,5.981-1.27,8.946-2.017C177.363,190.814,179.415,188.964,181.58,187.257z"/>
	<path fill="#D1D3D4" d="M197.081,173.841c0.119,0.554,0.244,1.104,0.366,1.655c0.154,0.654,0.306,1.309,0.432,1.965
		c0.588,0.143,1.182,0.289,1.764,0.449c0.628,0.173,1.219,0.31,1.836,0.549c0.966,0.375-1.054,1.159-1.321,1.318
		c-3.141,1.862-6.565,3.279-10.003,4.572c0.867,0.224,1.691,0.603,2.343,1.1c0.169,0.131,0.026,0.359-0.125,0.442
		c-1.484,0.815-3.169,1.591-4.374,2.806c-0.059,0.056-0.111,0.115-0.166,0.173c2.052-0.72,4.083-1.489,6.082-2.317
		c2.789-1.16,5.6-2.434,8.132-4.085c1.514-0.979,3.644-2.292,3.862-4.293C206.339,174.321,200.935,173.658,197.081,173.841z"/>
	<path fill="#D1D3D4" d="M146.834,189.502c1.665-0.077,3.373,0.19,4.991,0.621c0.48,0.126,0.932,0.294,1.374,0.478
		c3.452-2.269,5.809-6.085,6.01-10.528c0.329-7.358-5.367-13.596-12.727-13.927c-7.363-0.332-13.6,5.364-13.929,12.727
		c-0.256,5.623,3.021,10.573,7.858,12.75C142.378,190.522,144.59,189.606,146.834,189.502z"/>
	<path fill="#D1D3D4" d="M134.244,206.5c-0.008-1.965,0.134-3.919,0.51-5.803c-0.547,0.33-1.135,0.547-1.747,0.571
		c-2.261,0.089-2.04-3.317-1.848-5.571c-0.445-0.629-1.144-0.955-2.2-0.469c-0.658,0.3-1.213,0.748-1.764,1.202
		c0.518,0.131,1.106,0.289,1.112,0.736c0.021,1.429-0.649,3.015-0.931,4.422c-0.512,2.556-0.576,5.77,0.489,8.178
		c1.327,3.002,4.005,2.82,6.548,1.742C134.25,209.841,134.18,208.171,134.244,206.5z"/>
	<path fill="#D1D3D4" d="M164.136,211.604c-0.37-1.562-0.833-3.106-1.365-4.632c-1.548,0.66-3.256,0.902-4.988,0.52
		c-3.009-0.656-5.681-2.616-7.252-5.272c-2.142-3.625-2.742-9.489,1.679-10.564c-2.613-1.248-5.547-1.577-8.554-0.366
		c-1.059,0.423-2.069,0.931-2.998,1.548c-1.921,2.307-3.55,4.852-4.392,7.756c-1.1,3.807-0.958,7.734-0.478,11.627
		c0.635,5.15,2.017,11.036,5.681,14.773c1.007,0.758,2.151,1.301,3.452,1.55c3.321,0.627,7.623-0.29,10.713-1.455
		c3.026-1.143,6.461-2.01,8.195-5.002C165.446,219.309,164.84,214.55,164.136,211.604z"/>
	<path fill="#D1D3D4" d="M178.236,197.521c1.086-1.291,2.104-2.618,3.067-3.854c2.488-3.173,5.285-5.659,8.743-7.538
		c0.012-0.045,0.032-0.095,0.041-0.134c0.008-0.059-0.035-0.127-0.097-0.122c-0.241,0.004-0.478-0.095-0.707-0.216
		c-1.568-0.211-3.146-0.083-4.765,0.626c-0.85,0.368-1.641,0.823-2.412,1.313c-1.327,0.933-2.564,1.98-3.586,2.586
		c-1.859,1.098-3.343,2.771-5.302,3.688c-2.322,1.089-4.671,1.545-7.223,1.446c-4.689-0.19-8.967-2.114-13.563-2.915
		c-1.801,0.466-2.852,2.066-2.75,4.269c0.117,2.416,1.211,4.522,2.832,6.295c6.874,7.502,18.26,0.521,24.42-4.374
		C177.375,198.242,177.806,197.88,178.236,197.521z"/>
	<path fill="#D1D3D4" d="M90.658,284.909c3.277-2.248,6.918-4.087,10.847-4.859c8.216-1.613,16.164,1.503,23.425,5.088
		c7.835,3.868,15.536,8.396,24.514,8.65c8.871,0.254,17.389-2.986,24.336-8.417c3.838-3.004,7.919-6.985,12.319-10.335
		c-8.548,4.109-16.935,10.533-25.533,11.734c-9.199,1.281-17.354-2.922-25.605-6.182c-8.909-3.514-18.682-7.527-28.405-5.068
		c-8.033,2.03-15.53,6.838-20.603,13.43C87.448,287.513,88.944,286.087,90.658,284.909z"/>
	<path fill="#D1D3D4" d="M124.628,292.295c2.087,1.396,4.223,2.74,6.417,3.973c7.154,2.726,14.84,3.952,22.494,3.079
		c8.763-1.003,16.732-4.385,23.838-9.568c5.675-4.143,10.451-9.321,16.057-13.522c1.664-1.246,3.62-2.523,5.651-3.324
		c-9.586,0.572-17.651,9.047-24.848,14.444c-9.846,7.384-22.998,10.204-34.756,6.092c-3.646-1.276-7.086-3.067-10.527-4.811
		c-7.529-3.817-16.033-8.337-24.773-7.201c-4.601,0.597-8.801,2.469-12.599,5.094c-2.241,1.548-4.121,3.52-6.095,5.386
		c-0.201,0.297-0.404,0.594-0.596,0.897c2.462-2.595,5.771-4.487,9.001-5.817c6.374-2.627,13.417-3.952,19.959-1.121
		C117.698,287.56,121.159,289.974,124.628,292.295z"/>
	<path fill="#D1D3D4" d="M239.947,265.493c-1.391,3.951-3.07,7.77-5.689,11.144c-2.666,3.436-6.342,5.495-10.751,4.557
		c-5.128-1.093-8.958-4.974-13.611-7.031c-6.24-2.758-12.238,1.289-16.883,5.199c-10.335,8.697-20.588,18.291-34.531,20.206
		c-3.132,0.431-6.72,0.756-10.262,0.633c7.817,2.883,16.484,1.861,24.203-1.552c3.169-1.4,6.204-2.969,9.089-4.794
		c1.818-1.339,3.594-2.709,5.332-4.035c3.48-2.649,6.865-5.223,10.756-7.245c3.711-1.927,7.6-2.628,11.528-0.905
		c3.859,1.695,6.723,4.683,11.199,4.656c12.898-0.071,18.891-13.219,22.715-23.459c2.018-5.407,3.918-10.998,7.038-15.895
		c0.594-0.929,1.248-1.831,1.949-2.704c0.204-0.336,0.434-0.663,0.685-0.98C246.362,248.819,243.667,257.596,239.947,265.493z"/>
	<path fill="#D1D3D4" d="M242.841,275.098c1.001-2.395,1.74-4.904,2.272-7.393c0.516-2.379,0.946-4.789,1.546-7.15
		c0.497-1.944,1.036-3.967,1.749-5.908c-3.595,7.136-5.419,15.323-9.438,22.255c-2.503,4.319-5.932,8.096-10.591,10.094
		c-2.174,0.934-4.63,1.657-7.055,1.813c0.567,0.154,1.144,0.28,1.729,0.361c4.008,0.559,7.46-0.535,10.813-2.689
		C238.085,283.771,240.938,279.649,242.841,275.098z"/>
	<path fill="#D1D3D4" d="M258.798,256.031c0.993-0.692,2.026-1.318,3.079-1.872c1.011-0.531,3.313-1.317,3.228-2.853
		c-0.069-1.247-1.77-1.41-2.709-1.098c-3.766,1.256-7.349,5.068-9.531,8.236c-2.285,3.324-3.938,7.383-3.862,11.466
		c0,0.104,0.018,0.196,0.041,0.278c-0.399-1.466,1.313-4.488,1.99-5.735C252.87,261.065,255.646,258.222,258.798,256.031z"/>
	<path fill="#D1D3D4" d="M233.318,238.539c-0.426,0.886-0.472,1.951-0.082,2.868c0.896,2.104,2.844,3.614,4.272,5.343
		c2.061,2.499,3.335,5.445,3.641,8.58c0.524-3.086,0.428-6.351-0.366-9.326c-0.742-2.762-2.448-8.257-6.039-8.491
		C234.162,237.571,233.638,237.868,233.318,238.539z"/>
	<path fill="#D1D3D4" d="M249.308,239.05c0.591-0.84,2.398-4.118,0.134-4.386c-1.988-0.233-3.469,1.904-3.996,3.562
		c-0.407,1.29-0.617,2.653-0.559,4.007c0.056,1.188,0.204,2.385,0.451,3.549c0.075,0.358,0.148,0.761,0.253,1.158
		c0.102-1.508,0.655-3.058,1.277-4.273C247.544,241.349,248.455,240.252,249.308,239.05z"/>
	<path fill="#D1D3D4" d="M257.165,247.15c0.605-0.368,2.635-1.938,1.281-2.723c-1.19-0.687-2.707,0.253-3.487,1.154
		c-0.604,0.7-1.111,1.503-1.443,2.373c-0.288,0.763-0.521,1.558-0.684,2.357c-0.05,0.243-0.11,0.516-0.154,0.795
		c0.475-0.921,1.245-1.745,1.968-2.339C255.428,248.118,256.301,247.679,257.165,247.15z"/>
	<path fill="#D1D3D4" d="M171.083,243.139c-2.535-2.41-5.829-3.475-9.129-4.397c-3.97-1.107-7.817-2.137-11.298-4.194
		c0.326,1.095,0.856,2.158,1.522,3.045c3.236,4.318,11.991,7.869,11.731,13.688c-0.239,5.211-4.517,11.986-4.948,19.412
		c-0.128,2.2,0.076,4.409,0.353,6.589c0.168,1.304,1.874,0.128,1.979-0.676c0.794-5.907,3.693-10.855,6.478-15.995
		c1.362-2.518,2.623-5.093,3.766-7.718c0.908-2.089,1.994-4.456,1.897-6.796C172.809,244.986,171.962,243.977,171.083,243.139z"/>
	<path fill="#D1D3D4" d="M195.021,270.552c-0.404-3.539-1.609-6.979-2.049-10.537c-0.472-3.8-0.728-7.634-1.505-11.393
		c-0.861-4.165-2.412-8.202-5.329-11.356c-2.688-2.904-5.966-5.231-9.342-7.262c-1.88-1.135-5.858-3.109-6.589-3.579
		c-1.97,2.153-5.422,3.388-7.995,4.641c-3.082,1.503-6.956,2.635-10.489,2.878c0.431,0.415,0.937,0.769,1.551,1.037
		c3.067,1.365,6.542,1.029,9.779,1.68c8.425,1.686,16.946,5.041,21.394,12.875c1.054,1.854,1.918,3.934,2.572,5.962
		c0.297,0.916,0.542,1.902,0.946,2.861c0.544,1.995,1.289,3.966,2.04,5.885c0.553,1.417,1.395,2.789,2.188,4.085
		c0.463,0.751,0.938,1.57,1.555,2.212c0.3,0.304,0.809,0.497,1.216,0.509C195.044,271.054,195.056,270.865,195.021,270.552z"/>
	<path fill="#D1D3D4" d="M141.121,228.23c0,0,4.054,2.635,10.029,1.321c5.969-1.313,12.069-4.412,13.667-6.739l4.659,3.105
		C169.477,225.918,147.876,240.223,141.121,228.23z"/>
	<g>
		<path fill="#D1D3D4" d="M193.676,182.444l0.306-0.526c-0.14,0.048-0.288,0.101-0.419,0.149
			C193.604,182.197,193.638,182.326,193.676,182.444z"/>
		<path fill="#D1D3D4" d="M205.498,238.168c1.222-1.409,2.459-1.424,0.354-8.984c-1.693-6.083-8.943-31.639-11.711-41.642
			c-0.178,0.077-0.353,0.158-0.529,0.232c-1.758,0.703-3.563,1.313-5.376,1.887c-1.508,2.145-3.58,3.789-5.55,5.505
			c-2.835,2.474-5.807,4.812-8.844,7.038c-2.771,2.029-5.981,4.088-9.389,5.095c1.685,4.341,2.285,9.397,1.574,14.059
			c0.536,0.605,1.103,1.182,1.738,1.684c1.792,1.422,3.987,2.283,5.989,3.369c3.597,1.938,7.316,3.839,10.413,6.547
			c1.315,1.15,2.453,2.409,3.457,3.748C194.281,237.717,204.674,239.118,205.498,238.168z"/>
		<path fill="#D1D3D4" d="M216.837,249.175c0,0-7.066-27.978-17.745-64.13c-1.03,0.586-2.075,1.149-3.14,1.671l13.056,47.228
			c0,0,1.793,7.256-2.858,6.693c-3-0.36-12.133-2.257-18.242-3.561c1.715,2.381,3.001,5.005,4.005,7.771L216.837,249.175z"/>
		<path fill="#D1D3D4" d="M127.337,115.886l3.81-42.319l-1.819,40.748c9.229-2.761,30.658-6.127,36.697-7.047l-14.185-41.9
			c-7.462,1.08-20.422,5.098-20.422,5.098s1.519-14.881,1.513-15.347l0.166,13.314c5.463-1.636,15.667-2.777,18.731-3.096
			l-3.038-8.968c0,0-2.133-5.602-6.767-4.615c0,0,4.668-2.329,6.932,1.1c0.411,0.623,18.126,46.437,27.561,75.017
			c7.954,24.082,15.021,47.442,17.046,54.197c0.131-0.049,0.279-0.102,0.419-0.149l0.437-0.75l0.148,0.545
			c1.016-0.365,2.131-0.783,3.144-1.33c-13.507-45.278-32.261-101.642-49.849-132.265c0,0-16.059,3.505-16.848,6.404
			c-0.649,2.376-11.155,101.694-13.795,139.233c1.176,0.314,2.454,0.41,3.676,0.455l2.605-38.02l52.825-10.719l-51.417,11.628
			l-3.935,37.115c0.608,0.021,1.205,0.028,1.758,0.046c3.854,0.118,7.686,0.15,11.537-0.069c0.792-0.045,1.589-0.101,2.381-0.156
			l1.135-2.354c0,0-5.23-1.274-6.77-8.894s2.867-14.027,10.669-17.326c3.629-1.532,8.717-0.91,12.02,1.058
			c7.285,4.337,9.656,14.771,4.112,21.411c-1.307,1.564-3.228,3.334-5.087,4.312c2.09-0.32,4.173-0.669,6.249-1.051
			c8.396-1.542,16.653-3.62,24.854-5.982c2.604-0.749,5.189-1.571,7.756-2.454l-25.555-75.475
			C155.236,109.135,127.337,115.886,127.337,115.886z M177.681,142.356c0.102,0.032-2.293,0.472-6.1,1.134
			c-14.139,2.79-47.96,9.76-47.96,9.76s3.612-33.336,3.603-33.802l-1.304,31.759c0,0,31.973-5.326,45.661-7.717
			C175.239,142.771,177.582,142.326,177.681,142.356z"/>
		<path fill="#D1D3D4" d="M193.981,181.918c0.195-0.067,0.381-0.136,0.585-0.205l-0.148-0.545L193.981,181.918z"/>
	</g>
</g>
</svg>
