<?xml version="1.0" encoding="utf-8"?>
<!-- Generator: Adobe Illustrator 16.0.0, SVG Export Plug-In . SVG Version: 6.00 Build 0)  -->
<!DOCTYPE svg PUBLIC "-//W3C//DTD SVG 1.1 Tiny//EN" "http://www.w3.org/Graphics/SVG/1.1/DTD/svg11-tiny.dtd">
<svg version="1.1" baseProfile="tiny" id="Layer_1" xmlns="http://www.w3.org/2000/svg" xmlns:xlink="http://www.w3.org/1999/xlink"
	 x="0px" y="0px" width="350px" height="350px" viewBox="0 0 350 350" overflow="scroll" xml:space="preserve">
<g>
	<path fill="#211F1F" d="M315.278,137.044c-0.168-0.296-0.604-0.431-0.897-0.234c-5.955,3.969-10.356,9.849-14.203,16.02
		c2.004-6.105,3.871-12.261,5.784-18.347c2.227-7.093,5.164-14.285,6.137-21.701c0.335-2.567,0.235-7.458-3.662-5.896
		c-3.271,1.309-5.786,4.903-7.926,7.494c-0.228,0.276-0.442,0.568-0.668,0.848c3.587-15.447,6.037-32.577-3.051-46.19
		c-0.488-0.733-1.798-0.947-2.234,0c-1.846,4.018-2.501,8.268-3.138,12.61c-0.756,5.16-2.158,10.089-3.829,15.023
		c-1.175,3.474-2.385,6.94-3.526,10.429c-0.124-12.197-2.901-24.405-10.319-33.988c-0.443-0.575-1.482-0.366-1.794,0.232
		c-3.231,6.188-3.062,12.832-3.571,19.613c-0.663,8.826,0.285,17.681-1.43,26.426c-0.669,3.423-1.484,6.789-2.349,10.139
		c-0.11-2.376-0.265-4.75-0.464-7.117c-0.402-4.777-0.683-10.291-2.928-14.624c-1.806-3.492-5.224-2.092-7.001,0.583
		c-1.8,2.714-2.275,6.396-2.83,9.523c-0.672,3.804-1.381,7.589-2.02,11.398c-1.62,9.682-4.437,19.111-7.973,28.306
		c0.029-0.188,0.061-0.372,0.086-0.56c0.67-4.844-0.766-9.551-0.258-14.371c0.119-1.132-1.447-1.331-1.978-0.536
		c-8.958,13.441-14.81,28.038-20.414,43.093c-5.778,15.52-13.187,30.392-21.462,44.722c-3.979,6.889-8.173,13.653-12.481,20.34
		c-3.408,5.29-6.713,10.722-7.411,17.101c-0.503,4.585,2.975,10.204,6.813,12.157c-0.063,0.01-0.128,0.02-0.194,0.031
		c-0.058,0.008-0.038,0.093,0.013,0.097c0.162,0.012,0.321,0.005,0.48,0.011c2.167,0.988,4.415,0.777,6.107-1.465
		c0.875-0.475,1.701-1.046,2.439-1.727c3.253-2.993,5.672-7.021,10.582-7.346c3.436-0.227,7.617,2.768,10.442,4.43
		c3.694,2.175,7.073,4.881,10.934,6.772c1.818,0.89,4.347,1.754,6.344,0.904c2.493-1.062,4.521-4,3.187-6.718
		c-0.681-1.388-1.588-2.609-2.627-3.716c5.822,0.979,12.241,1.045,17.843-1.002c2.044-0.746,6.93-3.268,6.067-6.29
		c1.525-0.228,3.048-0.495,4.57-0.817c6.921-1.465,15.393-3.955,20.494-9.144c3.603-3.666,1.777-7.486-1.969-8.982
		c1.799-1.195,3.573-2.42,5.314-3.633c2.952-2.059,5.944-4.775,6.746-8.418c0.837-3.804-1.452-5.532-4.278-5.998
		c1.651-1.796,3.227-3.658,4.707-5.586c4.188-5.449,7.23-11.665,11.217-17.271c3.478-4.893,7.121-10.337,6.538-16.592
		c-0.024-0.245-0.278-0.445-0.52-0.296c-5.241,3.289-9.803,7.491-14.392,11.66c1.185-1.863,2.273-3.789,3.197-5.831
		c4.565-10.115,7.833-20.696,12.017-30.949c2.046-5.011,4.067-9.954,5.738-15.105C316.246,143.587,316.891,139.885,315.278,137.044z
		 M312.127,149.021c-1.729,4.996-4.28,9.703-6.289,14.591c-4.081,9.927-7.28,20.251-12.108,29.866
		c-1.995,3.969-4.842,7.502-7.434,11.084c-0.424,0.585-0.835,1.179-1.237,1.779c-0.135,0.202-0.268,0.403-0.399,0.606
		c-0.058,0.086-0.115,0.173-0.173,0.259c-2.056,3.143-3.918,6.401-6.099,9.465c-5.516,7.748-13.032,13.498-19.374,20.469
		c-0.219,0.242,0.104,0.546,0.352,0.352c7.681-6.056,15.604-12.687,21.658-20.403c2.78-3.546,5.108-7.433,7.854-11.021
		c1.277-1.667,2.537-3.338,3.729-5.044c4.439-3.772,8.492-7.974,13.175-11.469c0.126-0.092,2.819-1.899,2.841-1.642
		c0.122,1.396-0.532,2.967-1.016,4.245c-0.971,2.555-2.44,4.864-3.976,7.108c-2.557,3.729-5.646,7.176-7.82,11.149
		c-2.974,5.44-6.797,10.398-11.02,14.923c-0.36,0.387-0.731,0.76-1.101,1.136c-0.223,0.225-0.441,0.453-0.665,0.676
		c-0.263,0.258-0.532,0.508-0.797,0.762c-3.644,3.472-7.677,6.515-11.924,9.218c-4.896,3.117-10.352,4.587-15.709,6.552
		c-0.025-0.54-0.302-1.099-0.912-1.669c-1.61-1.503-5.472-0.675-7.38-0.518c-3.435,0.283-6.185,1.079-9.098,3.026
		c-0.081,0.054-0.011,0.167,0.076,0.129c3.786-1.666,9.569-2.159,13.71-2.048c2.963,0.08,0.186,2.468-1.074,3.503
		c-1.306,1.073-2.814,1.859-4.169,2.865c-0.444,0.329-0.073,0.997,0.439,0.749c1.521-0.742,7.754-2.886,8.359-5.535
		c3.073-0.865,6.242-1.411,9.364-2.06c4.098-0.851,7.345-2.719,10.772-5.041c4.057-2.75,7.777-5.985,11.16-9.539
		c4.567,0.172,4.294,5.198,1.96,8.055c-2.404,2.939-6.184,4.836-9.399,6.744c-0.866,0.515-1.724,1.039-2.579,1.566
		c-0.41,0.25-0.819,0.502-1.228,0.754c-0.4,0.245-0.798,0.49-1.198,0.733c-2.375,1.452-4.771,2.866-7.297,4.072
		c-5.023,2.396-10.933,3.576-16.34,4.774c-5.161,1.144-10.344,2.187-15.525,3.229c0.182-0.117,0.365-0.231,0.535-0.362
		c1.407-1.091,1.173-2.628-0.265-3.539c-3.47-2.195-7.948-0.701-11.593-0.044c-0.205,0.037-0.158,0.386,0.051,0.365
		c3.048-0.295,7.287-0.3,10.09,1.019c0.223,0.106,0.53,0.253,0.711,0.451c-0.02,0.022-0.044,0.05-0.077,0.084
		c-0.521,0.554-1.377,0.815-2.041,1.145c-3.023,1.495-6.28,2.418-9.533,3.259c-0.27,0.069-0.147,0.442,0.112,0.405
		c2.001-0.283,3.998-0.598,5.984-0.954c1.642-0.295,3.434-0.575,4.998-1.273c6.607-1.013,13.194-2.149,19.803-3.151
		c6.408-0.969,12.041-2.164,17.769-5.278c2.258-1.227,4.49-2.592,6.688-4.018c1.611,0.312,3.012,1.011,3.587,2.481
		c1.203,3.09-2.738,5.593-4.884,6.872c-5.646,3.372-12.381,5.148-18.672,6.911c-0.709,0.198-1.421,0.377-2.135,0.542
		c-0.247,0.058-0.492,0.107-0.738,0.161c-0.287,0.063-0.572,0.131-0.859,0.188c-8.803,1.755-17.894,1.268-26.836,0.944
		c-0.098-0.005-0.095,0.14,0,0.148c9.148,0.737,18.265,1.085,27.315-0.075c0.024,0.603-0.336,1.325-1.259,2.192
		c-2.563,2.414-6.731,2.964-10.054,3.35c-4.416,0.511-8.771,0.201-13.104-0.488c-0.292-0.048-0.582-0.101-0.871-0.149
		c-0.313-0.052-0.623-0.103-0.935-0.158c-0.749-0.136-1.498-0.28-2.245-0.433c-2.643-0.542-5.253-1.238-7.854-1.953
		c-1.157-0.318-2.176-0.831-3.192-1.321c5.981-2.625,4.529-6.239,2.756-8.103c-1-1.051-2.276-1.494-3.664-1.803
		c-2.137-0.474-4.55-0.593-6.725-0.696c-0.989-0.048-0.41,0.515,0.661,0.573c4.758,0.265,4.569,0.773,7.27,1.587
		c2.486,0.749,3.549,2.603,2.045,4.881c-1.521,2.3-1.384,1.993-5.613,2.522c-3.173,0.396-7.45,0.077-10.288-1.365
		c-0.058-0.029-0.1,0.047-0.049,0.086c2.859,2.162,6.322,2.675,9.8,2.595c0.488,0.282,7.318,1.924,9.397,2.654
		c3.449,1.215,6.925,2.189,10.512,2.868c1.889,1.635,3.421,3.588,3.682,5.814c0.074,0.647,0.011,1.202-0.14,1.689
		c-0.245,0.809-0.756,1.414-1.414,1.846c-1.454,0.954-3.593,1.083-5.038,0.764c-1.621-0.359-3.124-1.239-4.545-2.067
		c-3.255-1.899-6.156-4.346-9.063-6.724c-4.299-3.515-8.718-6.439-14.321-4.246c-2.769,1.084-4.826,3.464-6.609,5.738
		c-0.977,1.245-1.987,2.428-3.129,3.521c-1.185,1.131-2.3,1.729-3.582,2.112c-1.264-0.177-2.586-0.937-3.883-2.291
		c-2.747-2.867-3.5-6.331-2.84-10.137c0.944-5.444,4.467-10.358,7.601-14.767c7.762-10.92,14.373-22.943,20.501-34.837
		c11.828-22.957,18.055-48.329,31.101-70.633c0.241,2.985,0.791,5.954,0.535,8.979c-0.327,3.842-1.198,7.822-2.182,11.644
		c-0.26,1.016-0.532,2.025-0.802,3.013c-0.139,0.509-0.266,1.022-0.384,1.533c-0.17,0.743-0.323,1.487-0.46,2.232
		c-1.43,7.836-1.167,15.91-4.567,23.313c-2.402-0.235-5.229,3.199-6.426,4.52c-4.072,4.488-7.253,9.566-11.504,13.947
		c-0.1,0.104,0.056,0.259,0.16,0.158c3.291-3.2,7.174-7.367,10.232-10.787c1.927-2.154,3.436-3.858,5.815-5.552
		c2.166-1.54,2.663,1.995,2.38,3.173c-0.549,2.27-1.145,3.532-1.719,4.892c-0.829,1.957-2.029,4.144-2.908,6.08
		c-0.208,0.459,0.072,0.382,0.343-0.064c1.867-3.094,9.826-12.942,4.571-16.061c-0.219-0.13-0.444-0.204-0.674-0.255
		c4.258-7.779,4.959-16.843,6.844-25.373c0.387-1.748,0.797-3.483,1.197-5.22c3.995-8.054,7.497-16.355,10.234-25.176
		c2.363-7.601,3.361-15.728,4.63-23.575c0.444-2.754,0.82-7.608,3.272-9.409c1.202-0.884,1.823,1.47,2.181,2.567
		c2.7,8.23,2.135,17.853,2.126,26.421c-0.002,0.642-0.018,1.287-0.051,1.931c-0.097,1.892-0.325,3.796-0.651,5.703
		c-0.71,4.144-1.892,8.3-3.202,12.361c-1.12,3.478-2.333,6.885-3.435,10.154c-3.093,9.201-6.653,18.232-9.801,27.409
		c-1.554-0.577-3.536,1.473-4.362,2.457c-2.49,2.965-3.167,6.73-5.334,9.892c-0.031,0.045,0.042,0.103,0.079,0.06
		c1.812-2.146,3.487-5.942,5.25-8.1c0.787-0.959,1.64-1.231,2.822-1.686c3.421-1.311-1.545,7.621-2.002,8.571
		c-0.546,1.138-1.239,2.283-1.682,3.465c-0.146,0.391,0.424,0.574,0.634,0.268c2.179-3.188,8.629-10.351,5.387-14.342
		c-0.101-0.125-0.207-0.229-0.315-0.317c3.883-9.544,8.384-18.817,12.199-28.384c3.658-9.163,7.213-19.916,7.195-29.918
		c1.286-4.148,2.51-8.313,3.526-12.54c1.916-7.985,2.354-15.777,2.53-23.965c0.168-7.614-0.4-16.943,2.393-24.266
		c8.426,11.229,9.36,26.728,7.823,40.952c-0.103,0.944-0.218,1.883-0.339,2.816c-0.079,0.604-0.161,1.207-0.249,1.806
		c-0.393,2.688-0.851,5.309-1.351,7.815c-3.118,15.656-7.778,30.907-13.527,45.759c-0.226,0.584-0.451,1.17-0.681,1.752
		c-0.115,0.292-0.229,0.584-0.343,0.875c-1.759,4.431-3.617,8.823-5.555,13.184c-0.281-0.345-0.931-0.415-1.288-0.166
		c-4.776,3.359-5.806,8.934-9.43,13.16c-0.062,0.073,0.033,0.173,0.104,0.105c3.375-3.255,5.785-7.739,9.428-10.694
		c0.206,1.993-1.707,5.461-2.211,6.761c-0.905,2.342-2.022,4.596-2.904,6.945c-0.171,0.456,0.505,0.682,0.747,0.315
		c1.819-2.738,3.816-5.521,5.027-8.597c0.861-2.186,2.163-5.269,0.775-7.475c3.43-7.005,6.683-14.097,9.646-21.299
		c0.252-0.617,0.506-1.232,0.756-1.85c0.485-1.206,0.971-2.415,1.438-3.628c4.863-12.551,8.79-25.438,11.249-38.75
		c0.743-4.017,1.282-8.206,1.543-12.453c1.493-3.947,2.867-7.937,4.326-11.792c1.929-5.097,3.813-10.209,4.996-15.541
		c1.003-4.499,1.255-9.173,2.708-13.547c8.201,14.576,3.681,32.83-0.37,48.455c-0.196,0.761-0.394,1.517-0.588,2.265
		c-0.135,0.526-0.27,1.049-0.402,1.568c-0.066,0.255-0.139,0.507-0.206,0.761c-5.322,20.402-14.119,38.961-24.743,57.132
		c-0.112,0.193,0.177,0.361,0.299,0.174c6.131-9.436,12.229-18.986,17.394-28.995c4.979-9.649,7.902-19.928,10.514-30.413
		c0.356-1.425,0.716-2.876,1.076-4.345c1.726-2.29,3.531-4.522,5.467-6.654c1.178-1.3,6.067-6.583,5.96-2.204
		c-0.064,2.595-1.033,5.271-1.774,7.735c-2.332,7.721-5.313,15.275-7.898,22.915c-2.98,8.806-5.733,17.821-9.237,26.457
		c-0.423,1.04-0.853,2.077-1.3,3.105c-0.016,0.035-0.028,0.071-0.044,0.108c-0.294,0.677-0.607,1.348-0.915,2.018
		c-7.188,15.696-17.856,29.743-28.892,42.913c0.009-0.953-0.216-1.868-0.784-2.663c-1.211-1.693-3.451-1.259-5.108-0.593
		c-1.682,0.675-3.01,1.792-4.366,2.968c-1.93,1.674-3.655,3.464-5.684,5.045c-0.082,0.062,0.022,0.18,0.104,0.137
		c2.685-1.407,5.296-3.919,7.889-5.496c0.845-0.514,4.424-2.185,5.367-0.741c0.694,1.062-0.175,3.147-0.605,4.143
		c-0.689,1.604-1.386,3.121-2.304,4.608c-0.206,0.326,0.189,0.683,0.506,0.508c2.076-1.134,4.44-4.125,4.911-6.984
		c13.809-14.589,26.888-29.457,34.476-48.338c1.381-3.439,2.653-6.936,3.869-10.459c4.293-7.268,9.011-14.513,15.795-19.261
		C315.107,142.006,313.273,145.709,312.127,149.021z"/>
	<path fill="#211F1F" d="M210.794,240.471c-3.348,0.193-6.638,2.148-9.256,4.094c-0.024,0.019-0.004,0.06,0.023,0.043
		c2.466-1.382,5.752-2.899,8.583-3.061c0.847-0.049,3.069-0.372,2.643,1.056c-0.371,1.244-0.977,2.539-1.719,3.57
		c-0.782,1.09-2.733,2.512-3.778,3.359c-0.276,0.223,0.074,0.608,0.36,0.467c2.564-1.279,7.247-4.163,6.662-7.655
		C214.031,240.658,212.212,240.391,210.794,240.471z"/>
	<path fill="#211F1F" d="M226.695,242.137c-3.668,0.518-7.199,1.948-10.497,3.596c-0.051,0.025-0.013,0.111,0.038,0.092
		c2.208-0.811,4.351-1.395,6.696-1.632c2.028-0.207,6.098-1.643,6.369-0.162c0.274,1.48-3.833,3.29-4.543,3.809
		c-2.004,1.466-4.26,2.498-6.606,3.286c-0.259,0.086-0.154,0.459,0.11,0.405c3.25-0.641,6.441-1.73,9.404-3.205
		c1.367-0.68,4.233-3.105,3.72-4.98C230.871,241.472,228.061,241.944,226.695,242.137z"/>
	<path fill="#211F1F" d="M253.847,227.037c-2.296-0.428-4.333,0.942-6.2,2.117c-3.343,2.109-6.361,5.19-10.022,6.646
		c-0.073,0.028-0.047,0.135,0.033,0.12c3.81-0.77,8.56-4.475,11.881-6.406c0.625-0.362,4.55-1.979,3.82,1.178
		c-0.413,1.794-2.357,3.332-3.67,4.526c-0.303,0.277,0.084,0.717,0.422,0.546c1.972-1,3.836-2.467,5.096-4.294
		C256.141,230.121,255.74,227.392,253.847,227.037z"/>
	<path fill="#211F1F" d="M237.286,222.815c-2.771-1.402-6.576,1.216-8.779,2.68c-3.143,2.085-6.587,4.84-8.755,7.961
		c-0.033,0.047,0.04,0.104,0.076,0.061c1.992-2.35,4.773-4.003,7.375-5.584c1.854-1.125,5.731-4.09,8.365-3.822
		c-0.824,1.557-1.668,3.131-2.914,4.384c-0.252,0.253,0.091,0.733,0.39,0.506c1.782-1.368,2.93-3.162,4.418-4.817
		C237.817,223.789,237.812,223.08,237.286,222.815z"/>
	<path fill="#211F1F" d="M259.928,203.022c2.036-1.721,4.347-3.539,6.882-4.558c-0.833,2.828-2.5,5.248-3.582,7.997
		c-0.071,0.18,0.209,0.344,0.331,0.192c2.168-2.685,4.451-5.767,4.915-9.262c0.057-0.436-0.489-0.806-0.876-0.668
		c-3.226,1.138-5.634,3.606-7.829,6.142C259.676,202.975,259.817,203.116,259.928,203.022z"/>
	<path fill="#211F1F" d="M212.447,226.117c-0.849,2.659-2.033,5.063-3.18,7.636c-0.104,0.236,0.194,0.534,0.391,0.301
		c2.133-2.553,3.792-5.445,4.453-8.718c0.121-0.599-0.456-1.063-1.011-0.776c-4.121,2.133-7.128,5.246-10.378,8.507
		c-0.022,0.023,0.011,0.055,0.035,0.035C205.705,230.792,208.739,227.305,212.447,226.117z"/>
	<path fill="#211F1F" d="M217.536,222.897c0.833-0.719,1.774-1.437,2.87-1.495c-0.852,2.271-1.746,4.538-2.462,6.851
		c-0.093,0.3,0.345,0.477,0.5,0.211c1.379-2.396,2.976-4.762,3.61-7.487c0.112-0.483-0.331-1.05-0.861-0.862
		c-1.569,0.56-2.761,1.305-3.9,2.536C217.138,222.817,217.368,223.041,217.536,222.897z"/>
	<path fill="#211F1F" d="M196.266,252.841c-2.024,0.467-3.856,1.021-5.458,2.419c-0.044,0.039,0.014,0.1,0.06,0.077
		c1.406-0.646,3.279-1.619,4.923-1.585c-0.527,2.083-1.768,3.788-2.386,5.846c-0.073,0.245,0.278,0.387,0.406,0.172
		c1.151-1.949,4.134-4.009,3.054-6.589C196.758,252.929,196.549,252.775,196.266,252.841z"/>
	<path fill="#211F1F" d="M218.656,199.011c1.08-2.082,3.133-4.13,5.292-5.164c0.226,1.275-0.124,2.651-0.307,3.908
		c-0.024,0.157,0.183,0.22,0.238,0.066c0.52-1.453,0.979-2.934,0.552-4.472c-0.052-0.192-0.253-0.244-0.419-0.171
		c-2.336,1.021-4.63,3.363-5.47,5.783C218.521,199.027,218.625,199.072,218.656,199.011z"/>
	<path fill="#211F1F" d="M165.122,250.281c-4.309-6.687-8.504-13.451-12.482-20.34c-8.276-14.33-15.686-29.202-21.463-44.722
		c-5.604-15.055-11.456-29.652-20.413-43.093c-0.531-0.795-2.098-0.597-1.979,0.536c0.509,4.82-0.927,9.526-0.258,14.371
		c0.027,0.188,0.058,0.372,0.087,0.56c-3.537-9.195-6.354-18.624-7.975-28.306c-0.638-3.809-1.346-7.595-2.019-11.398
		c-0.554-3.127-1.029-6.809-2.83-9.523c-1.777-2.676-5.194-4.076-7.001-0.583c-2.243,4.333-2.525,9.846-2.928,14.624
		c-0.199,2.368-0.354,4.741-0.464,7.117c-0.864-3.35-1.679-6.715-2.348-10.139c-1.715-8.745-0.767-17.6-1.431-26.426
		c-0.51-6.782-0.34-13.425-3.57-19.613c-0.312-0.599-1.35-0.808-1.795-0.232C68.838,82.695,66.06,94.903,65.936,107.1
		c-1.142-3.488-2.351-6.955-3.526-10.429c-1.671-4.934-3.073-9.864-3.829-15.023c-0.636-4.343-1.293-8.593-3.137-12.61
		c-0.436-0.947-1.747-0.733-2.235,0c-9.088,13.614-6.637,30.743-3.051,46.19c-0.226-0.28-0.44-0.572-0.668-0.848
		c-2.139-2.591-4.655-6.185-7.925-7.494c-3.898-1.562-3.997,3.329-3.661,5.896c0.971,7.416,3.907,14.608,6.136,21.701
		c1.912,6.086,3.78,12.242,5.784,18.347c-3.846-6.171-8.248-12.051-14.203-16.02c-0.295-0.197-0.729-0.062-0.897,0.234
		c-1.613,2.841-0.969,6.542-0.003,9.515c1.671,5.151,3.692,10.095,5.738,15.105c4.185,10.252,7.452,20.833,12.018,30.949
		c0.923,2.042,2.013,3.968,3.196,5.831c-4.589-4.169-9.15-8.371-14.392-11.66c-0.24-0.149-0.495,0.051-0.519,0.296
		c-0.584,6.255,3.06,11.699,6.538,16.592c3.986,5.606,7.029,11.822,11.217,17.271c1.48,1.928,3.057,3.79,4.706,5.586
		c-2.826,0.466-5.115,2.194-4.278,5.998c0.802,3.643,3.794,6.359,6.747,8.418c1.741,1.213,3.515,2.438,5.314,3.633
		c-3.745,1.496-5.57,5.316-1.969,8.982c5.103,5.188,13.573,7.679,20.494,9.144c1.521,0.322,3.044,0.59,4.569,0.817
		c-0.862,3.022,4.024,5.544,6.068,6.29c5.602,2.047,12.021,1.98,17.842,1.002c-1.039,1.106-1.946,2.328-2.627,3.716
		c-1.335,2.718,0.693,5.656,3.188,6.718c1.996,0.85,4.525-0.015,6.344-0.904c3.858-1.892,7.237-4.598,10.934-6.772
		c2.824-1.662,7.007-4.656,10.441-4.43c4.91,0.325,7.33,4.353,10.582,7.346c0.739,0.681,1.564,1.252,2.439,1.727
		c1.692,2.242,3.941,2.453,6.107,1.465c0.16-0.006,0.319,0.001,0.48-0.011c0.051-0.004,0.071-0.089,0.013-0.097
		c-0.066-0.012-0.13-0.021-0.194-0.031c3.839-1.953,7.317-7.572,6.813-12.157C171.834,261.003,168.529,255.571,165.122,250.281z
		 M167.206,276.749c-1.297,1.354-2.62,2.114-3.884,2.291c-1.28-0.383-2.397-0.981-3.581-2.112c-1.143-1.093-2.152-2.275-3.13-3.521
		c-1.783-2.274-3.841-4.654-6.608-5.738c-5.604-2.193-10.023,0.731-14.32,4.246c-2.908,2.378-5.81,4.824-9.065,6.724
		c-1.421,0.828-2.923,1.708-4.545,2.067c-1.445,0.319-3.583,0.19-5.038-0.764c-0.657-0.432-1.169-1.037-1.414-1.846
		c-0.15-0.487-0.214-1.042-0.139-1.689c0.261-2.227,1.791-4.18,3.682-5.814c3.586-0.679,7.062-1.653,10.511-2.868
		c2.079-0.73,8.909-2.372,9.398-2.654c3.479,0.08,6.94-0.433,9.8-2.595c0.05-0.039,0.008-0.115-0.05-0.086
		c-2.838,1.442-7.114,1.762-10.287,1.365c-4.23-0.529-4.094-0.223-5.613-2.522c-1.504-2.278-0.442-4.132,2.044-4.881
		c2.699-0.813,2.512-1.322,7.271-1.587c1.07-0.059,1.649-0.621,0.66-0.573c-2.174,0.104-4.587,0.223-6.724,0.696
		c-1.389,0.309-2.666,0.752-3.664,1.803c-1.773,1.863-3.227,5.478,2.756,8.103c-1.016,0.49-2.035,1.003-3.193,1.321
		c-2.6,0.715-5.211,1.411-7.854,1.953c-0.747,0.152-1.496,0.297-2.245,0.433c-0.31,0.056-0.621,0.106-0.934,0.158
		c-0.29,0.049-0.58,0.102-0.872,0.149c-4.333,0.689-8.688,0.999-13.102,0.488c-3.324-0.386-7.492-0.936-10.056-3.35
		c-0.923-0.867-1.283-1.59-1.26-2.192c9.053,1.16,18.168,0.813,27.317,0.075c0.094-0.009,0.098-0.153,0-0.148
		c-8.943,0.323-18.034,0.811-26.837-0.944c-0.287-0.057-0.573-0.125-0.859-0.188c-0.245-0.054-0.491-0.104-0.737-0.161
		c-0.714-0.165-1.427-0.344-2.136-0.542c-6.289-1.763-13.026-3.539-18.671-6.911c-2.146-1.279-6.087-3.782-4.883-6.872
		c0.573-1.471,1.974-2.17,3.585-2.481c2.199,1.426,4.431,2.791,6.689,4.018c5.727,3.114,11.36,4.31,17.768,5.278
		c6.608,1.002,13.196,2.139,19.804,3.151c1.563,0.698,3.355,0.979,4.997,1.273c1.987,0.356,3.984,0.671,5.983,0.954
		c0.261,0.037,0.383-0.336,0.113-0.405c-3.253-0.841-6.51-1.764-9.533-3.259c-0.664-0.329-1.52-0.591-2.041-1.145
		c-0.033-0.034-0.058-0.062-0.078-0.084c0.183-0.198,0.489-0.345,0.713-0.451c2.803-1.318,7.041-1.313,10.09-1.019
		c0.208,0.021,0.255-0.328,0.05-0.365c-3.645-0.657-8.122-2.151-11.591,0.044c-1.439,0.911-1.673,2.448-0.267,3.539
		c0.17,0.131,0.354,0.245,0.535,0.362c-5.182-1.043-10.364-2.086-15.524-3.229c-5.408-1.198-11.317-2.378-16.341-4.774
		c-2.526-1.206-4.922-2.62-7.297-4.072c-0.399-0.243-0.798-0.488-1.198-0.733c-0.408-0.252-0.817-0.504-1.227-0.754
		c-0.855-0.527-1.713-1.052-2.578-1.566c-3.216-1.908-6.997-3.805-9.401-6.744c-2.334-2.856-2.606-7.883,1.96-8.055
		c3.383,3.554,7.104,6.789,11.16,9.539c3.428,2.322,6.677,4.19,10.772,5.041c3.122,0.648,6.291,1.194,9.365,2.06
		c0.604,2.649,6.838,4.793,8.359,5.535c0.512,0.248,0.883-0.42,0.438-0.749c-1.354-1.006-2.863-1.792-4.169-2.865
		c-1.26-1.035-4.037-3.423-1.073-3.503c4.141-0.111,9.923,0.382,13.711,2.048c0.086,0.038,0.156-0.075,0.075-0.129
		c-2.914-1.947-5.664-2.743-9.098-3.026c-1.909-0.157-5.769-0.985-7.38,0.518c-0.611,0.57-0.888,1.129-0.913,1.669
		c-5.357-1.965-10.813-3.435-15.709-6.552c-4.247-2.703-8.279-5.746-11.923-9.218c-0.266-0.254-0.534-0.504-0.797-0.762
		c-0.224-0.223-0.443-0.451-0.666-0.676c-0.368-0.376-0.74-0.749-1.101-1.136c-4.223-4.524-8.044-9.482-11.02-14.923
		c-2.174-3.974-5.264-7.42-7.819-11.149c-1.536-2.244-3.006-4.554-3.975-7.108c-0.485-1.278-1.139-2.85-1.018-4.245
		c0.022-0.258,2.716,1.55,2.842,1.642c4.683,3.495,8.734,7.696,13.174,11.469c1.193,1.706,2.453,3.377,3.729,5.044
		c2.745,3.588,5.074,7.475,7.854,11.021c6.055,7.717,13.977,14.348,21.659,20.403c0.246,0.194,0.57-0.109,0.35-0.352
		c-6.341-6.971-13.858-12.721-19.374-20.469c-2.181-3.063-4.042-6.322-6.098-9.465c-0.058-0.086-0.116-0.173-0.174-0.259
		c-0.132-0.203-0.263-0.404-0.399-0.606c-0.402-0.601-0.812-1.194-1.237-1.779c-2.592-3.582-5.438-7.115-7.433-11.084
		c-4.829-9.614-8.029-19.938-12.108-29.866c-2.009-4.888-4.562-9.595-6.29-14.591c-1.146-3.311-2.98-7.015-2.201-10.572
		c6.785,4.748,11.503,11.993,15.796,19.261c1.216,3.523,2.488,7.02,3.869,10.459c7.587,18.881,20.667,33.75,34.475,48.338
		c0.471,2.859,2.834,5.851,4.911,6.984c0.317,0.175,0.712-0.182,0.508-0.508c-0.921-1.487-1.615-3.005-2.306-4.608
		c-0.431-0.995-1.299-3.081-0.605-4.143c0.944-1.443,4.522,0.228,5.367,0.741c2.592,1.577,5.204,4.089,7.89,5.496
		c0.082,0.043,0.185-0.075,0.104-0.137c-2.03-1.581-3.756-3.371-5.686-5.045c-1.355-1.176-2.685-2.293-4.366-2.968
		c-1.657-0.666-3.897-1.101-5.108,0.593c-0.567,0.795-0.794,1.71-0.784,2.663c-11.035-13.17-21.703-27.217-28.892-42.913
		c-0.308-0.67-0.621-1.341-0.915-2.018c-0.016-0.037-0.028-0.073-0.044-0.108c-0.446-1.029-0.877-2.065-1.3-3.105
		c-3.504-8.636-6.257-17.651-9.237-26.457c-2.586-7.639-5.566-15.194-7.897-22.915c-0.742-2.464-1.71-5.14-1.775-7.735
		c-0.107-4.378,4.782,0.904,5.96,2.204c1.936,2.132,3.74,4.364,5.467,6.654c0.361,1.469,0.722,2.92,1.077,4.345
		c2.61,10.485,5.534,20.763,10.513,30.413c5.163,10.009,11.264,19.559,17.394,28.995c0.122,0.188,0.413,0.02,0.3-0.174
		c-10.625-18.171-19.421-36.73-24.745-57.132c-0.066-0.254-0.139-0.506-0.204-0.761c-0.133-0.519-0.269-1.042-0.403-1.568
		c-0.193-0.748-0.391-1.503-0.588-2.265c-4.049-15.625-8.571-33.878-0.37-48.455c1.454,4.374,1.706,9.048,2.708,13.547
		c1.186,5.331,3.068,10.444,4.996,15.541c1.458,3.855,2.833,7.845,4.326,11.792c0.261,4.247,0.802,8.437,1.544,12.453
		c2.458,13.312,6.386,26.198,11.249,38.75c0.469,1.213,0.952,2.422,1.438,3.628c0.25,0.618,0.504,1.233,0.757,1.85
		c2.962,7.203,6.215,14.294,9.646,21.299c-1.389,2.206-0.087,5.289,0.773,7.475c1.212,3.076,3.211,5.858,5.027,8.597
		c0.245,0.366,0.919,0.141,0.748-0.315c-0.881-2.35-1.998-4.604-2.904-6.945c-0.503-1.3-2.417-4.768-2.211-6.761
		c3.644,2.955,6.055,7.439,9.428,10.694c0.07,0.067,0.167-0.032,0.105-0.105c-3.624-4.227-4.653-9.801-9.431-13.16
		c-0.356-0.249-1.007-0.179-1.287,0.166c-1.937-4.36-3.797-8.753-5.555-13.184c-0.115-0.291-0.229-0.583-0.343-0.875
		c-0.229-0.582-0.456-1.168-0.682-1.752C78.66,160.424,74,145.173,70.882,129.517c-0.499-2.507-0.96-5.127-1.352-7.815
		c-0.087-0.599-0.17-1.201-0.249-1.806c-0.121-0.933-0.236-1.872-0.338-2.816c-1.537-14.224-0.604-29.723,7.822-40.952
		c2.793,7.323,2.226,16.652,2.393,24.266c0.178,8.188,0.615,15.98,2.531,23.965c1.017,4.227,2.24,8.392,3.526,12.54
		c-0.019,10.002,3.538,20.755,7.193,29.918c3.818,9.567,8.318,18.84,12.2,28.384c-0.108,0.088-0.215,0.192-0.316,0.317
		c-3.241,3.991,3.21,11.154,5.389,14.342c0.209,0.307,0.778,0.123,0.634-0.268c-0.443-1.182-1.136-2.327-1.683-3.465
		c-0.456-0.95-5.423-9.882-2.002-8.571c1.182,0.454,2.035,0.727,2.822,1.686c1.764,2.157,3.438,5.953,5.251,8.1
		c0.037,0.043,0.109-0.015,0.078-0.06c-2.166-3.161-2.844-6.927-5.334-9.892c-0.826-0.984-2.808-3.034-4.36-2.457
		c-3.149-9.177-6.708-18.208-9.803-27.409c-1.101-3.269-2.314-6.676-3.435-10.154c-1.311-4.062-2.491-8.218-3.202-12.361
		c-0.327-1.907-0.555-3.812-0.65-5.703c-0.033-0.645-0.05-1.289-0.052-1.931c-0.008-8.568-0.574-18.191,2.125-26.421
		c0.359-1.097,0.98-3.451,2.183-2.567c2.453,1.801,2.828,6.654,3.272,9.409c1.269,7.847,2.267,15.974,4.629,23.575
		c2.738,8.821,6.24,17.123,10.234,25.176c0.4,1.736,0.813,3.472,1.199,5.22c1.885,8.53,2.585,17.594,6.843,25.373
		c-0.229,0.051-0.456,0.125-0.674,0.255c-5.256,3.118,2.703,12.967,4.57,16.061c0.271,0.446,0.55,0.523,0.344,0.064
		c-0.88-1.937-2.079-4.123-2.909-6.08c-0.574-1.359-1.171-2.622-1.718-4.892c-0.284-1.178,0.214-4.713,2.379-3.173
		c2.38,1.693,3.889,3.397,5.816,5.552c3.058,3.42,6.94,7.587,10.233,10.787c0.103,0.101,0.258-0.054,0.158-0.158
		c-4.251-4.381-7.432-9.459-11.503-13.947c-1.198-1.32-4.024-4.755-6.426-4.52c-3.4-7.403-3.139-15.478-4.568-23.313
		c-0.137-0.745-0.288-1.489-0.46-2.232c-0.117-0.511-0.244-1.024-0.383-1.533c-0.271-0.988-0.542-1.997-0.802-3.013
		c-0.985-3.822-1.854-7.802-2.182-11.644c-0.257-3.024,0.293-5.993,0.534-8.979c13.046,22.305,19.273,47.676,31.102,70.633
		c6.128,11.894,12.739,23.917,20.502,34.837c3.132,4.408,6.655,9.322,7.6,14.767C170.706,270.418,169.953,273.882,167.206,276.749z"
		/>
	<path fill="#211F1F" d="M139.206,240.471c-1.418-0.08-3.236,0.188-3.519,1.873c-0.585,3.492,4.098,6.376,6.664,7.655
		c0.285,0.142,0.637-0.244,0.36-0.467c-1.046-0.848-2.997-2.27-3.78-3.359c-0.741-1.031-1.347-2.326-1.718-3.57
		c-0.428-1.428,1.797-1.104,2.644-1.056c2.83,0.161,6.114,1.679,8.58,3.061c0.028,0.017,0.05-0.024,0.024-0.043
		C145.845,242.619,142.554,240.664,139.206,240.471z"/>
	<path fill="#211F1F" d="M123.306,242.137c-1.365-0.192-4.176-0.665-4.692,1.208c-0.514,1.875,2.353,4.301,3.72,4.98
		c2.964,1.475,6.154,2.564,9.404,3.205c0.265,0.054,0.37-0.319,0.11-0.405c-2.345-0.788-4.602-1.82-6.606-3.286
		c-0.709-0.519-4.817-2.328-4.543-3.809c0.271-1.48,4.342-0.045,6.369,0.162c2.347,0.237,4.49,0.821,6.696,1.632
		c0.052,0.02,0.088-0.066,0.038-0.092C130.504,244.085,126.975,242.654,123.306,242.137z"/>
	<path fill="#211F1F" d="M102.354,229.154c-1.868-1.175-3.906-2.545-6.202-2.117c-1.893,0.354-2.292,3.084-1.358,4.434
		c1.261,1.827,3.124,3.294,5.097,4.294c0.338,0.171,0.725-0.269,0.421-0.546c-1.313-1.194-3.256-2.732-3.67-4.526
		c-0.729-3.157,3.196-1.54,3.821-1.178c3.319,1.932,8.071,5.637,11.881,6.406c0.08,0.015,0.106-0.092,0.033-0.12
		C108.716,234.345,105.696,231.264,102.354,229.154z"/>
	<path fill="#211F1F" d="M114.432,224.11c2.634-0.268,6.513,2.697,8.365,3.822c2.601,1.581,5.383,3.234,7.375,5.584
		c0.036,0.043,0.109-0.014,0.077-0.061c-2.169-3.121-5.613-5.876-8.755-7.961c-2.204-1.464-6.01-4.082-8.78-2.68
		c-0.524,0.265-0.53,0.974-0.176,1.367c1.489,1.655,2.636,3.449,4.419,4.817c0.298,0.228,0.641-0.253,0.39-0.506
		C116.101,227.241,115.256,225.667,114.432,224.11z"/>
	<path fill="#211F1F" d="M82.403,196.725c-0.388-0.138-0.934,0.232-0.877,0.668c0.465,3.495,2.748,6.577,4.916,9.262
		c0.122,0.151,0.402-0.013,0.33-0.192c-1.081-2.749-2.747-5.169-3.58-7.997c2.532,1.019,4.846,2.837,6.881,4.558
		c0.109,0.094,0.252-0.048,0.158-0.156C88.036,200.331,85.629,197.862,82.403,196.725z"/>
	<path fill="#211F1F" d="M140.343,234.054c0.195,0.233,0.494-0.064,0.39-0.301c-1.146-2.572-2.33-4.977-3.18-7.636
		c3.709,1.188,6.742,4.675,9.689,6.984c0.024,0.02,0.059-0.012,0.035-0.035c-3.25-3.261-6.256-6.374-10.379-8.507
		c-0.553-0.286-1.129,0.178-1.009,0.776C136.55,228.608,138.211,231.501,140.343,234.054z"/>
	<path fill="#211F1F" d="M131.558,228.464c0.154,0.266,0.591,0.089,0.498-0.211c-0.715-2.313-1.609-4.58-2.46-6.851
		c1.094,0.059,2.035,0.776,2.868,1.495c0.168,0.144,0.397-0.08,0.244-0.247c-1.14-1.231-2.332-1.977-3.901-2.536
		c-0.529-0.188-0.974,0.379-0.861,0.862C128.581,223.702,130.179,226.068,131.558,228.464z"/>
	<path fill="#211F1F" d="M153.734,252.841c-0.283-0.065-0.492,0.088-0.598,0.34c-1.081,2.58,1.902,4.64,3.053,6.589
		c0.128,0.215,0.48,0.073,0.408-0.172c-0.62-2.058-1.86-3.763-2.388-5.846c1.645-0.034,3.519,0.939,4.924,1.585
		c0.046,0.022,0.104-0.038,0.06-0.077C157.591,253.862,155.76,253.308,153.734,252.841z"/>
	<path fill="#211F1F" d="M125.987,193.179c-0.165-0.073-0.367-0.021-0.418,0.171c-0.428,1.538,0.031,3.019,0.552,4.472
		c0.055,0.153,0.262,0.091,0.239-0.066c-0.185-1.257-0.533-2.633-0.309-3.908c2.159,1.034,4.212,3.082,5.292,5.164
		c0.031,0.062,0.135,0.017,0.113-0.049C130.616,196.542,128.325,194.199,125.987,193.179z"/>
</g>
</svg>
