<?xml version="1.0" encoding="utf-8"?>
<!-- Generator: Adobe Illustrator 16.0.0, SVG Export Plug-In . SVG Version: 6.00 Build 0)  -->
<!DOCTYPE svg PUBLIC "-//W3C//DTD SVG 1.1 Tiny//EN" "http://www.w3.org/Graphics/SVG/1.1/DTD/svg11-tiny.dtd">
<svg version="1.1" baseProfile="tiny" id="Layer_1" xmlns="http://www.w3.org/2000/svg" xmlns:xlink="http://www.w3.org/1999/xlink"
	 x="0px" y="0px" width="350px" height="350px" viewBox="0 0 350 350" overflow="scroll" xml:space="preserve">
<g>
	<path fill="#FFFFFF" stroke="#CCCCCC" stroke-miterlimit="10" d="M325.098,146.465c-15.207,4.188-30.904,7.23-46.619,8.567
		c13.153-5.772,25.771-12.763,37.641-20.852c-16.545,1.024-32.954,4.242-48.661,9.541c6.207-3.269,12.414-6.537,18.621-9.805
		c-21.234-6.831-44.907-4.522-64.874,5.419c-13.507-2.633-28.3,3.241-36.323,14.422c-1.217-2.509-1.516-5.452-0.826-8.154
		c-2.226,3.988-4.45,8.995-2.013,12.857c-1.12-0.881-2.495-1.438-3.913-1.583c0.708,3.72,4.78,5.612,7.243,8.488
		c2.898,3.383,3.508,8.161,3.343,12.611c-0.102,2.716-0.473,5.514-1.865,7.847c-1.393,2.334-4.017,4.102-6.716,3.786
		c10.121,7.608,17.841,18.362,21.814,30.385c1.98-5.385,1.845-11.517-0.372-16.808c4.296,3.519,8.167,5.351,10.939,10.163
		c-0.478-5.41-1.455-10.777-2.915-16.009c3.069,7.606,8.833,14.094,16.027,18.035c-1.147-6.862-3.103-13.588-5.814-19.994
		c3.539,2.969,6.039,6.958,9.009,10.498c2.969,3.539,6.745,6.804,11.325,7.416c-2.827-7.165-6.278-14.084-10.302-20.651
		c3.144,3.989,6.318,8.012,10.23,11.251c3.911,3.239,8.67,5.68,13.74,5.967c-3.947-8.598-14.061-13.826-17.444-22.661
		c5.483,7.509,15.063,11.367,24.36,11.333c9.298-0.035,18.307-3.575,26.182-8.517c-10.907,0.938-21.698-2.278-32.158-5.509
		c21.805,2.164,44.372-4.806,61.158-18.888c-12.217,4.354-25.395,5.984-38.303,4.738c9.29-0.659,18.672-1.933,27.247-5.564
		C313.436,161.163,321.211,154.929,325.098,146.465z"/>
	<path fill="#FFFFFF" stroke="#CCCCCC" stroke-miterlimit="10" d="M171.87,156.877c-1.418,0.146-2.792,0.702-3.914,1.583
		c2.438-3.862,0.213-8.869-2.012-12.857c0.688,2.702,0.391,5.645-0.826,8.154c-8.023-11.182-22.816-17.055-36.323-14.422
		c-19.967-9.941-43.64-12.25-64.874-5.419c6.207,3.268,12.414,6.536,18.621,9.805c-15.707-5.299-32.116-8.517-48.662-9.541
		c11.87,8.089,24.488,15.079,37.642,20.852c-15.716-1.337-31.413-4.379-46.619-8.567c3.886,8.463,11.662,14.697,20.238,18.329
		c8.576,3.632,17.958,4.906,27.248,5.564c-12.909,1.246-26.087-0.385-38.303-4.738c16.786,14.083,39.354,21.052,61.158,18.888
		c-10.46,3.23-21.251,6.447-32.159,5.509c7.876,4.941,16.884,8.481,26.182,8.517c9.298,0.034,18.877-3.824,24.36-11.333
		c-3.382,8.835-13.496,14.063-17.444,22.661c5.071-0.287,9.829-2.728,13.741-5.967s7.087-7.262,10.23-11.251
		c-4.024,6.567-7.475,13.486-10.302,20.651c4.58-0.612,8.356-3.877,11.326-7.416c2.969-3.54,5.469-7.529,9.008-10.498
		c-2.711,6.406-4.667,13.132-5.814,19.994c7.193-3.941,12.958-10.429,16.028-18.035c-1.461,5.231-2.438,10.599-2.916,16.009
		c2.771-4.813,6.643-6.645,10.939-10.163c-2.217,5.291-2.353,11.423-0.372,16.808c3.973-12.022,11.693-22.776,21.813-30.385
		c-2.699,0.315-5.322-1.452-6.715-3.786c-1.393-2.333-1.765-5.131-1.865-7.847c-0.166-4.45,0.444-9.229,3.341-12.611
		C167.089,162.49,171.162,160.598,171.87,156.877z"/>
</g>
</svg>
