<?xml version="1.0" encoding="utf-8"?>
<!-- Generator: Adobe Illustrator 16.0.0, SVG Export Plug-In . SVG Version: 6.00 Build 0)  -->
<!DOCTYPE svg PUBLIC "-//W3C//DTD SVG 1.1 Tiny//EN" "http://www.w3.org/Graphics/SVG/1.1/DTD/svg11-tiny.dtd">
<svg version="1.1" baseProfile="tiny" id="Layer_1" xmlns="http://www.w3.org/2000/svg" xmlns:xlink="http://www.w3.org/1999/xlink"
	 x="0px" y="0px" width="350px" height="350px" viewBox="0 0 350 350" overflow="scroll" xml:space="preserve">
<g>
	<g>
		<path fill="#BCBBB1" d="M122.854,48.584c-3.072,0.944-6.145,2.008-9.094,3.19c-4.842,1.888-9.571,3.896-14.177,6.022
			c-8.859,4.252-17.364,9.094-25.038,15.237c-7.089,5.552-13.347,12.285-18.188,19.843c-5.2,8.032-8.386,17.245-9.925,26.576
			c-3.305,19.961-0.119,40.277,3.071,60.004c3.309,21.26,7.442,42.521,7.915,64.135c0.354,9.686-0.117,19.488-1.652,29.176
			c-1.537,9.685-4.257,18.896-7.678,28.109c-0.947,2.246-1.893,4.488-2.837,6.734c-0.235,0.354-0.235,0.826,0,1.063
			c-0.472,0.473-0.825,0.943-1.062,1.533c-0.119,0.354,0.117,0.713,0.354,0.713c1.77,0.472,3.545-0.595,5.078-1.42
			c1.653-0.944,3.19-2.125,4.607-3.307c2.953-2.362,5.549-5.078,7.914-8.15c4.488-5.787,7.797-12.637,9.33-19.961
			c0.354-1.537,0.709-3.188,0.826-4.725c0.235,0.118,0.472,0.235,0.826,0.472c2.836,1.418,4.965-0.825,6.498-3.069
			c3.309-4.725,5.197-10.396,6.494-15.945c3.072-12.64,4.843-25.633,5.318-38.507c0.236-4.96,0.354-9.921,0-14.884
			c0.236,0.593,0.473,1.184,0.709,1.773c1.061,2.361,2.242,4.724,3.898,6.732c1.65,1.771,4.011,2.953,6.494,2.479
			c2.6-0.354,4.724-2.245,6.021-4.488c1.538-2.48,2.247-5.433,2.954-8.267c0.591-2.836,1.062-5.789,1.417-8.74
			c0.473-4.252,0.594-8.505,0.594-12.758c0.943,1.063,2.123,1.891,3.54,2.481c4.964,2.125,9.688-1.062,11.694-5.67
			c1.063-2.481,1.417-5.314,1.888-8.031c0.359-2.837,0.595-5.67,0.712-8.505c0.236-5.078,0.119-10.159-0.476-15.237
			c0.358,0.472,0.595,0.946,0.948,1.418c1.533,2.006,3.423,3.542,5.904,4.252c2.246,0.825,4.842,0.708,6.854-0.592
			c2.006-1.18,3.302-3.188,4.011-5.433c0.831-2.362,1.067-4.96,1.304-7.44c0.234-2.718,0.234-5.316,0.234-7.915
			c-0.234-4.606-0.826-9.213-1.893-13.701c0.118,0.117,0.354,0.235,0.477,0.472c1.534,1.062,3.305,1.772,5.079,2.008
			c4.134,0.472,7.202-2.362,7.909-6.26c0.83-4.134-0.353-8.387-2.006-12.167c-1.415-3.07-3.309-6.022-5.433-8.622
			c1.063,0.118,2.242-0.118,3.19-0.59c2.715-1.417,3.896-4.724,3.069-7.559c-0.827-3.07-3.19-5.552-5.196-7.915
			c-2.125-2.598-4.372-4.96-7.09-6.968c-2.359-1.891-5.195-3.189-8.146-3.899c0.118,0,0.235-0.118,0.354-0.235
			c1.298-1.298,2.479-2.599,3.663-3.899c2.479-2.834,4.723-6.022,6.14-9.566c0.825-1.89,1.18-3.899,0.591-5.904
			c-0.709-1.772-2.125-3.19-4.016-3.544c-1.89-0.472-3.781,0.118-5.551,0.708c-1.893,0.708-3.899,1.418-5.79,2.244
			c-2.126,0.829-4.368,1.772-6.378,2.834c-2.124,0.946-4.251,2.008-6.14,3.544L122.854,48.584L122.854,48.584z M96.161,92.051
			c0-0.59-0.83-0.59-0.83,0c0,2.126,0.24,4.134,0.354,6.26c0.123,2.008,0.24,3.896-0.113,5.904
			c-0.357,1.654-1.066,3.309-2.365,4.489c-0.59,0.592-1.297,1.182-2.127,1.418c-0.354,0.118-0.709,0.236-1.063,0.236
			c0.235-2.127-0.117-4.489-0.943-6.615c-0.118-0.354-0.709-0.236-0.591,0.235c0.944,4.252,0.354,8.978-2.01,12.639
			c-1.063,1.654-2.479,3.189-4.135,4.252c-0.707,0.59-1.534,1.062-2.478,1.418c-0.472,0.236-1.063,0.473-1.652,0.591
			c0.708-1.891,1.063-4.017,0.944-6.025c-0.118-0.354-0.591-0.472-0.591-0.118c-0.471,1.772-0.828,3.544-1.537,5.196
			c-0.59,1.891-1.417,3.545-2.479,5.199c-1.063,1.535-2.246,2.953-3.662,4.252c-0.591,0.59-1.298,1.18-2.01,1.652
			c-0.591,0.474-1.299,0.946-1.77,1.418c0.234-2.008,0.116-4.134-0.473-6.024c-0.118-0.472-0.943-0.354-0.943,0.118
			c0.353,3.544,0.117,7.088-1.303,10.395c-0.708,1.536-1.535,3.07-2.596,4.371c-1.063,1.3-2.602,2.362-3.545,3.662
			c-0.354,0.354,0.118,0.826,0.473,0.708c0.826-0.235,1.533-0.59,2.245-1.182c0,0.946,0.118,2.008,0.118,3.072
			c0.236,1.416,0.236,3.07,0.709,4.37c0.234,0.59,0.826,0.473,0.943-0.118c0.235-1.536-0.236-3.189-0.354-4.723
			c-0.119-1.183-0.355-2.363-0.59-3.545c0.471-0.354,0.826-0.826,1.179-1.298c1.181-1.418,2.128-3.072,2.837-4.727
			c0.472-1.298,0.826-2.598,1.063-3.896c0.118,0,0.118,0,0.236,0c1.533-0.236,3.07-1.418,4.25-2.601
			c0,0.946-0.117,1.772,0.119,2.719c0.117,0.354,0.59,0.235,0.709,0c0.353-1.183,0.236-2.364,0.236-3.663
			c1.178-1.18,2.363-2.598,3.307-4.134c0.709-1.062,1.299-2.244,1.889-3.427c0.947,0,2.01-0.354,2.836-0.708
			c0.944-0.472,2.011-1.062,2.836-1.652c1.417-0.946,2.597-2.128,3.658-3.544c0,0.944,0,2.008,0.122,2.833
			c0,1.419,0,3.19,0.825,4.489c0.236,0.354,0.709,0.117,0.709-0.236c0.236-1.536-0.236-3.07-0.354-4.606
			c-0.118-1.418,0.118-2.834-0.118-4.134c0.827-1.654,1.416-3.306,1.771-5.078c1.301,0.118,2.717-0.71,3.661-1.418
			c1.534-1.18,2.483-2.834,3.072-4.606C98.05,101.264,96.396,96.658,96.161,92.051L96.161,92.051z M142.932,77.404
			c-0.944-2.952-2.597-5.789-4.369-8.266c-0.945-1.301-2.008-2.601-3.072-3.781c0.121,0,0.239,0,0.239-0.118h0.118
			c0.118,0.118,0.354,0.118,0.473,0.118c1.651,0.236,3.067,0.354,4.605,0.944c1.534,0.472,2.833,1.183,4.134,2.008
			c2.715,1.654,4.961,4.017,6.967,6.378c1.184,1.418,2.245,2.834,3.309,4.252c0.942,1.18,2.006,2.598,2.006,4.134
			c0,1.18-0.827,2.481-2.006,2.953c-1.3,0.59-2.837,0.118-4.018-0.708c-0.236-0.236-0.589-0.236-0.825-0.118
			c-0.589-0.356-1.062-0.828-1.534-1.182c-1.42-1.062-3.191-2.716-4.965-3.071C143.759,79.648,143.404,78.468,142.932,77.404
			L142.932,77.404z M134.309,64.057c-0.944-1.062-1.888-2.125-3.067-2.952c-0.472-0.354-0.949,0.354-0.713,0.708
			c0.949,1.536,2.247,2.716,3.309,4.016c1.063,1.417,2.247,2.716,3.19,4.134c2.006,2.834,3.662,5.904,4.607,9.213
			c0.471,1.653,1.77,7.44-1.535,7.086c-1.655-0.236-3.309-1.298-4.609-2.244c-1.063-0.473-1.89-1.18-2.833-1.891
			c-0.943-0.944-1.888-2.008-2.718-3.07c-1.652-1.654-3.188-3.426-4.843-5.196c0.709,0,1.303-0.118,1.773-0.356
			c1.771-0.59,3.069-1.891,3.658-3.542c0.83-2.008,0.478-4.252,0-6.261c-0.471-2.244-1.416-4.606-2.713-6.497
			c-0.236-0.354-0.827-0.118-0.709,0.236c0.709,1.772,1.417,3.544,1.77,5.435c0.354,1.771,0.827,3.66,0.473,5.432
			c-0.354,1.536-1.18,2.834-2.597,3.427c-1.419,0.59-2.718,0.236-4.133,0.236c-0.477,0.117-0.712,0.589-0.477,0.943
			c0.24,0.236,0.594,0.472,0.83,0.59c0.236,1.771,0.943,3.544,1.298,5.316c0.354,2.007,0.591,4.016,0.473,6.022
			c-0.118,1.536-0.236,4.016-1.889,4.845c-1.065,0.472-2.247,0.118-3.308-0.236c-0.118-0.828-0.236-1.654-0.354-2.48
			c-0.354-2.128-0.827-4.252-1.421-6.26c-0.589-2.008-1.179-4.252-2.124-6.143c-0.236-0.354-0.825-0.118-0.707,0.354
			c0.353,2.008,1.062,4.016,1.652,6.024c0.472,2.126,0.942,4.134,1.302,6.26c0.118,0.59,0.236,1.18,0.353,1.771
			c-0.116,0-0.234,0-0.353,0c-0.359-0.118-0.594,0.118-0.594,0.354c-0.118,0.238-0.236,0.356,0,0.591
			c0.234,0.236,0.471,0.472,0.594,0.708c0.471,3.544,1.652,7.086,0.353,10.631c-0.589,1.536-1.772,2.952-3.307,3.662
			c-1.063,0.472-2.129,0.472-3.072,0.354c-0.118-0.946-0.236-2.008-0.354-2.954c-0.589-4.371-1.651-9.213-4.016-12.873
			c-0.236-0.356-0.826-0.12-0.708,0.236c0.59,2.008,1.415,4.014,2.006,6.024c0.594,2.124,1.066,4.371,1.42,6.495
			c0.118,1.064,0.236,2.008,0.236,3.072l0,0c-0.473,0-0.59,0.472-0.354,0.826c0.118,0.236,0.236,0.354,0.473,0.472
			c0,0.709,0,1.418,0,2.126c0,2.125-0.354,4.37-0.118,6.496v0.118c-0.236,1.064-0.473,2.126-0.944,3.19
			c-0.589,1.771-1.537,3.662-3.072,4.724c-0.707,0.472-1.534,0.708-2.364,0.708c-0.59,0-1.181-0.236-1.77-0.473
			c0.118-1.297,0-2.716-0.118-4.016c-0.354-4.606-1.651-9.685-4.489-13.465c-0.234-0.354-0.825-0.118-0.589,0.354
			c0.944,2.126,2.006,4.252,2.597,6.497c0.712,2.244,1.064,4.606,1.301,6.851c0.118,2.243,0.118,4.488-0.236,6.614
			c-0.825,3.309-1.183,6.732-2.717,9.923c-0.708,1.654-1.653,3.544-3.072,4.606c-0.708,0.59-1.535,0.827-2.361,0.59
			c-0.707-0.236-1.062-0.59-1.416-1.062c0-0.354,0-0.71,0-1.064c0.115-3.896-0.712-7.676-2.245-11.22
			c-0.236-0.354-0.709-0.118-0.591,0.236c1.18,3.544,1.771,7.325,1.652,10.984c0,0.593,0,1.064-0.117,1.654
			c-0.119,0.118-0.355,0.236-0.355,0.472c-0.354,3.662-0.943,7.086-2.836,10.277c-0.472,0.826-1.18,1.89-1.887,2.716
			c-0.118-0.236-0.236-0.473-0.354-0.708c-0.236-0.354-0.825-0.236-0.825,0.235c0,0.473,0,0.827,0,1.298
			c-0.119,0.118-0.236,0.236-0.473,0.356c-1.538,0.59-2.719-0.828-3.662-2.008c-0.236-2.008-0.473-3.899-0.945-5.907
			c-0.828-3.898-2.245-7.794-4.605-11.102c-0.236-0.354-0.594-0.118-0.473,0.236c1.771,3.662,3.186,7.324,4.014,11.221
			c0.357,1.536,0.594,3.072,0.711,4.724c-0.117,0-0.24,0.238-0.24,0.474c0.123,0.472,0.24,0.826,0.359,1.18c0,0,0,0,0,0.118
			c0,1.654-0.119,3.427,0.117,5.079c0,0.118,0,0.118,0.117,0.236c0,0.474,0,0.946-0.117,1.418c-0.236,2.598-0.83,5.198-1.656,7.796
			c-0.708,2.244-1.416,4.842-3.191,6.497c-1.65,1.534-4.483,1.889-5.903-0.354l-0.118-0.118c-0.118-0.474-0.118-0.946-0.118-1.418
			c-0.353-3.781-0.943-7.44-2.241-10.867c-0.236-0.473-0.713-0.236-0.713,0.118c0.83,3.662,1.538,7.322,1.774,11.103
			c0.118,1.772,0.118,3.663,0.118,5.435c-0.118,1.652-0.473,3.542-0.236,5.314v0.118c-0.471,3.306-1.18,6.496-2.363,9.685
			c-0.473,1.418-1.063,2.836-2.124,3.898c-0.945,0.943-2.483,1.536-3.663,0.943c-0.707-0.354-1.18-0.943-1.651-1.533
			c-0.354-2.48-0.712-4.961-1.185-7.443c-3.304-19.841-7.201-40.158-6.023-60.474c0.591-9.449,2.483-18.899,6.496-27.522
			c3.779-8.266,9.212-15.47,15.828-21.613c14.409-13.584,32.598-21.025,50.434-28.82c2.363-1.063,4.845-2.125,7.205-3.189
			c0.118,0,0.236-0.118,0.354-0.118c1.539-0.708,3.072-1.417,4.606-2.126c3.189-1.298,6.498-2.598,9.804-3.542
			c1.064-0.236,2.481-0.592,3.071,0.589c0.708,1.18,0.117,2.598-0.354,3.781c-1.299,2.834-3.19,5.433-5.078,7.795
			c-1.182,1.418-2.483,2.715-3.663,4.016c-0.591,0.708-1.181,1.418-1.77,2.008c-0.354,0.472-0.594,0.827-0.83,1.18
			c-0.118,0-0.354,0.118-0.473,0.236C134.427,62.995,134.19,63.586,134.309,64.057L134.309,64.057z M56.829,200.717
			c0.473,0.236,0.943,0.473,1.534,0.59c3.19,0.592,5.433-2.244,6.494-4.725c2.481-5.906,3.78-12.519,3.19-18.896
			c1.065,0.943,2.836,1.062,4.252,0.59c2.836-0.946,4.252-3.663,5.197-6.261c1.064-2.953,1.892-6.143,2.244-9.331
			c0.236-1.891,0.473-4.134,0.119-6.26c0.709,0.59,1.416,0.946,2.359,0.946c0.594,0.118,1.186,0,1.656-0.238
			c0.236,1.182,0.591,2.362,0.709,3.426c0.353,2.48,0.589,4.96,0.707,7.322c0.236,2.362,0.236,4.724,0.118,7.087
			c0,0.238,0,0.591,0,0.945c-0.707-0.472-1.416-0.945-2.005-1.299c-0.592-0.354-1.067,0.354-0.709,0.828
			c0.709,0.827,1.652,1.652,2.596,2.362c0,0.236,0,0.354,0,0.473c0,0.59,0,1.182-0.118,1.771c0,0.708,0,1.298,0,1.889
			c-0.236,1.771-0.471,3.543-0.707,5.197c-0.591,3.425-1.534,6.852-2.602,10.16c-0.943,2.833-2.005,6.258-4.251,8.384
			c-1.771,1.654-4.252,1.654-5.904,0.118c0-0.354,0-0.826,0.117-1.299c0.119-2.244,0.236-4.37,0.355-6.613
			c0.117-2.244,0.236-4.371,0.353-6.497c0-1.064,0-2.126,0.118-3.19c0-1.063,0.118-2.244-0.118-3.188
			c-0.235-0.473-0.708-0.354-0.825,0c-0.355,0.826-0.473,1.889-0.473,2.834c-0.117,1.064-0.117,2.244-0.235,3.308
			c-0.118,2.127-0.236,4.37-0.354,6.497c0,2.126-0.118,4.252-0.236,6.259c-0.118,0.591-0.118,1.063-0.118,1.653
			c0,0.118-0.118,0.236,0,0.355c0,0,0,0,0,0.119c-0.118,1.18-0.118,2.479-0.118,3.66c0,0.236,0,0.354,0,0.59
			c-0.116,0-0.116,0.12-0.234,0.237c-0.118,1.298,0,2.481,0,3.778c0,0.711-0.118,1.536-0.118,2.244
			c-0.354,2.955-0.948,5.789-1.774,8.623c-0.709,2.598-1.534,5.316-2.951,7.679c-0.594,0.943-1.419,1.771-2.48,2.008
			c-0.473,0.118-0.944,0.118-1.417-0.12c-0.118,0-0.118,0-0.236,0C60.251,223.276,58.6,211.938,56.829,200.717L56.829,200.717z
			 M61.081,236.74c0.118,0,0.236,0,0.473,0c1.18,0.238,2.36-0.117,3.304-0.826c2.363-1.771,3.426-5.195,4.256-7.914
			c0.473-1.534,0.945-3.07,1.416-4.606c0.118,1.772,0.236,3.427,0.473,5.198c0,0.355,0.472,0.355,0.472,0
			c0.117-3.072,0-6.143-0.119-9.212c0-0.118,0-0.238,0-0.238c0.592-3.542,0.709-7.087,0.236-10.511c0-0.238,0-0.475,0-0.71
			c0.944,0.71,2.365,0.946,3.428,0.828c2.479-0.236,4.37-1.89,5.551-4.017c1.532-2.48,2.6-5.434,3.425-8.15
			c0.943-3.07,1.771-6.143,2.124-9.33c0.354-2.48,0.713-5.196,0.473-7.915c0-0.118,0.117-0.354,0.117-0.59
			c0.236,1.418,0.831,2.834,1.184,4.252c0.354,1.772,0.709,3.427,1.063,5.078c0.235,1.772,0.472,3.545,0.589,5.435
			c0,0.118,0,0.236,0.119,0.354c-0.119,0-0.119,0-0.236,0.119c-0.236,0.117-0.472,0.354-0.472,0.707
			c-0.591,5.906-0.473,11.932-0.709,17.954c-0.118,5.905-0.589,11.813-1.302,17.599c-0.59,5.789-1.534,11.577-2.596,17.363
			c-1.063,5.316-2.247,10.748-4.252,15.709c-1.063,2.482-2.242,5.435-4.135,7.443c-0.826,0.826-1.77,0.707-2.479-0.236
			c-0.83-1.064-0.948-2.836-1.184-4.135c0-0.236-0.117-0.473-0.236-0.59c0.119-1.654,0.119-3.426,0.119-5.199
			c0.117-6.85-0.355-13.7-1.535-20.551c0-0.354-0.589-0.236-0.589,0.118c0.589,6.732,0.943,13.583,0.825,20.433
			c-0.118,1.419-0.118,2.837-0.236,4.371c-0.354,0-0.825,0.354-0.943,0.708c-0.354,0.828-0.354,1.772-0.476,2.718
			c-0.115,0.826-0.115,1.535-0.236,2.363c-0.236,1.771-0.473,3.541-0.709,5.313c-0.708,3.308-1.77,6.732-3.067,9.805
			c-2.836,6.497-7.089,12.283-12.285,16.89c-1.298,1.182-2.6,2.244-4.016,3.189c9.094-15.826,12.048-34.844,12.521-52.797
			C61.554,247.607,61.436,242.175,61.081,236.74L61.081,236.74z M90.843,193.748c0-0.118,0-0.118,0-0.236
			c-0.118-1.89-0.354-3.662-0.591-5.435c-0.235-1.771-0.589-3.66-0.944-5.432c-0.353-1.183-0.589-2.362-0.943-3.544
			c0.826,0.117,1.771,0,2.597-0.236c2.718-0.943,4.017-3.778,4.847-6.261c1.062-3.66,2.006-7.322,2.713-10.984
			c0.591-3.07,1.063-6.143,1.063-9.213c0-0.118,0-0.235,0.118-0.354c0.353,2.834,3.543,3.898,6.145,3.306
			c1.061-0.236,2.124-0.826,2.949-1.535c-0.236,1.18-0.118,2.245,0,3.425c0,1.418,0,2.718,0.123,4.134
			c0.113,2.716,0.471,5.435,0.589,8.151c0.354,5.433,0.59,10.749,0.236,16.18c-0.236,5.435-0.948,10.749-2.482,15.83
			c-0.59,2.242-1.181,4.724-2.95,6.376c-1.421,1.3-3.309,1.654-4.964,0.472c-2.006-1.416-3.187-3.896-4.253-6.021
			c-1.416-2.717-2.479-5.671-4.016-8.27C90.961,193.984,90.961,193.865,90.843,193.748L90.843,193.748z M109.744,152.879
			c0.944-0.944,1.651-2.244,2.242-3.424c1.302-3.072,2.011-6.497,2.363-9.805c0.118-1.416,0.118-2.834,0.118-4.25
			c0-0.829,0-1.654,0-2.483c0.825,0.354,1.889,0.473,2.833,0.236c3.425-0.59,5.318-3.778,6.615-6.613
			c0.236-0.709,0.591-1.418,0.827-2.01c0.235,2.01,0.59,4.017,1.063,6.143c0.471,2.48,0.828,5.081,1.183,7.679
			c0.591,5.079,0.827,10.156,0.827,15.237c0,5.079-0.354,10.275-1.182,15.355c-0.594,3.424-2.009,8.978-6.379,9.095
			c-2.124,0-4.135-1.418-5.433-3.072c-0.589-0.827-1.181-1.771-1.655-2.716c-0.119-2.953-0.473-6.022-0.828-9.095
			c-0.234-1.654-0.471-3.426-0.943-5.079c-0.353-1.653-0.471-3.426-1.298-4.842C110.098,153.117,109.862,152.999,109.744,152.879
			L109.744,152.879z M125.451,122.289c1.419-4.488,2.01-9.215,1.301-13.821c0.236,0.236,0.591,0.118,0.709-0.236
			c0.118-0.117,0.118-0.235,0.118-0.235c1.297,0.354,2.949,0.235,4.016-0.236c2.596-1.064,3.896-3.898,4.371-6.496
			c0.589-3.07,0.589-6.26,0-9.331c-0.118-1.063-0.354-2.008-0.712-2.954c0.236,0.474,0.476,0.946,0.83,1.418
			c1.297,2.716,1.77,5.67,2.831,8.504c0,0.236,0.236,0.354,0.473,0.354c1.302,3.544,2.954,6.968,4.017,10.63
			c1.537,4.489,2.481,9.213,2.835,13.819c0.473,4.725,0.355,9.449-0.236,14.055c-0.354,3.309-1.296,8.151-5.55,8.151
			c-4.963,0-7.914-5.196-10.161-8.977c0-0.118-0.116-0.236-0.234-0.236c-0.354-1.654-0.591-3.426-0.945-4.961
			c-0.707-3.189-1.533-6.26-3.072-9.094C125.922,122.407,125.688,122.289,125.451,122.289L125.451,122.289z M139.27,95.476
			c-0.354-1.772-0.943-3.424-1.652-5.079c-0.59-1.3-1.415-2.598-2.242-3.78c-0.239-0.236-0.357-0.354-0.594-0.59
			c0,0,0.118,0,0.118-0.118c0.948,0.59,1.892,1.064,2.836,1.536c1.298,0.59,2.718,0.944,4.016,0.472
			c1.063-0.472,1.771-1.418,2.126-2.48c0.116-0.472,0.239-0.946,0.239-1.418c0.707,0.472,1.416,0.946,2.006,1.418
			c1.298,1.062,2.478,2.126,3.545,3.306c2.241,2.245,4.134,4.843,5.668,7.561c1.77,2.952,3.189,6.258,3.544,9.685
			c0.236,2.954-0.236,6.851-3.662,7.561c-2.837,0.472-5.669-1.183-7.915-3.072c-0.707-2.362-1.535-4.725-2.595-7.086
			c-1.185-2.716-2.72-5.435-4.726-7.677C139.745,95.595,139.505,95.476,139.27,95.476L139.27,95.476z M99.111,144.967
			L99.111,144.967c-0.118,1.534-0.236,3.07-0.473,4.488c0,0.118-0.118,0.235-0.118,0.354c-0.354,3.545-0.707,6.969-1.415,10.395
			c-0.709,3.306-1.655,6.615-2.483,10.039c-0.707,2.244-1.298,5.198-3.422,6.496c-1.42,0.827-2.954,0.591-4.369-0.117
			c0.113-0.473,0.113-1.063,0.113-1.534c0.122-2.482,0-4.962-0.113-7.325c-0.123-2.362-0.358-4.724-0.713-6.969
			c-0.235-1.536-0.354-3.188-0.708-4.724c0.591-0.592,1.298-1.418,1.774-2.126c2.006-2.716,3.54-6.377,3.658-10.041
			c0-0.471,0.118-0.944,0.236-1.416c0.594,0.472,1.537,0.708,2.245,0.708c2.247,0,3.899-1.891,4.962-3.663
			c0.353-0.472,0.589-1.062,0.825-1.534c0,0.826,0.118,1.534,0.118,2.244C99.229,141.895,99.229,143.431,99.111,144.967
			L99.111,144.967z M111.043,146.619L111.043,146.619c-0.827,2.483-2.011,5.199-4.371,6.499c-2.246,1.062-4.725,0.354-6.258-1.536
			c-0.236-0.236-0.473-0.118-0.712,0.118c0.476-2.126,0.594-4.488,0.83-6.497c0.116-1.654,0.116-3.308,0.116-4.96
			c0-1.536,0.118-3.308-0.471-4.724c0.354-1.064,0.707-2.128,0.943-3.072c0.472-1.89,0.826-3.898,0.944-5.787
			c0-0.474,0.118-0.946,0.118-1.418c1.062,0.59,2.6,0.472,3.545,0.236c2.124-0.708,3.661-2.598,4.605-4.488
			c0.354-0.59,0.591-1.3,0.827-2.008c0.118,0.236,0.118,0.59,0.234,0.827c0.354,2.008,0.591,3.897,0.943,5.906
			c0.119,0.828,0.119,1.654,0.236,2.362c-0.236,0-0.589,0.118-0.707,0.472c-0.236,1.418,0.118,2.482,0.943,3.308
			C112.931,136.935,112.575,141.777,111.043,146.619L111.043,146.619z M125.097,105.752L125.097,105.752
			c0.354,5.907,0.118,11.575-1.77,17.128c-0.944,2.598-2.011,5.668-4.253,7.322c-0.943,0.828-2.246,1.418-3.545,1.182
			c-0.471-0.118-0.825-0.354-1.18-0.592c-0.116-1.772-0.353-3.542-0.589-5.314c-0.119-1.891-0.473-3.78-0.83-5.67
			c-0.236-1.298-0.355-2.834-0.826-4.134c0.59-2.834,0.59-5.669-0.236-8.503c0,0,0,0,0-0.118c1.063,0.236,2.246,0,3.19-0.356
			c1.888-0.708,3.307-2.124,4.134-3.896c1.299-2.481,1.415-5.435,0.944-8.151c-0.118-0.472-0.118-0.826-0.118-1.182
			c0-0.236,0-0.354-0.118-0.473c1.416,1.654,2.719,3.427,3.661,5.435c0.827,1.534,1.417,3.188,1.89,4.96
			c0.236,0.708,0.354,1.3,0.589,2.008C125.688,105.162,125.097,105.28,125.097,105.752L125.097,105.752z M134.545,98.901
			L134.545,98.901c-0.354,2.245-0.826,4.961-2.714,6.497c-0.709,0.708-1.773,1.062-2.719,0.944c-0.707-0.118-1.179-0.354-1.77-0.708
			c-0.118-0.826-0.354-1.771-0.591-2.598c-0.476-1.771-1.183-3.544-2.127-5.316c-1.18-2.244-2.597-4.488-4.488-6.259
			c0.943,0.236,1.892,0.236,2.718,0c2.007-0.473,2.951-2.246,3.304-4.134c0.354-2.362,0.241-4.724-0.118-7.088
			c-0.234-1.298-0.471-2.598-0.943-3.778c-0.118-0.474-0.235-1.064-0.472-1.536c1.415,1.654,2.836,3.308,4.251,4.96
			c0.473,0.589,0.945,1.182,1.416,1.653c0,0.118,0,0.354,0,0.472c0.478,0.592,0.949,1.064,1.422,1.654c0,0-0.119,0.118,0,0.354
			c0.234,1.182,0.943,2.362,1.416,3.544c0.471,1.18,0.825,2.362,1.061,3.542C134.663,93.586,134.899,96.304,134.545,98.901
			L134.545,98.901z"/>
		<path fill-rule="evenodd" fill="#FFFFFF" d="M121.907,52.01c-17.836,7.795-36.024,15.236-50.434,28.82
			c-6.616,6.143-12.049,13.347-15.828,21.613c-4.013,8.623-5.905,18.074-6.496,27.522c-1.178,20.315,2.72,40.632,6.023,60.474
			c0.473,2.482,0.83,4.963,1.185,7.443c0.472,0.59,0.944,1.18,1.651,1.533c1.18,0.593,2.718,0,3.663-0.943
			c1.062-1.063,1.651-2.48,2.124-3.898c1.184-3.188,1.893-6.379,2.363-9.685v-0.118c-0.236-1.772,0.118-3.662,0.236-5.314
			c0-1.771,0-3.662-0.118-5.435c-0.236-3.78-0.944-7.44-1.774-11.103c0-0.354,0.477-0.59,0.713-0.118
			c1.298,3.426,1.889,7.086,2.241,10.867c0,0.472,0,0.944,0.118,1.418l0.118,0.118c1.42,2.242,4.253,1.888,5.903,0.354
			c1.775-1.654,2.483-4.252,3.191-6.497c0.826-2.598,1.42-5.198,1.656-7.796c0.117-0.473,0.117-0.944,0.117-1.418
			c-0.117-0.118-0.117-0.118-0.117-0.236c-0.236-1.652-0.117-3.424-0.117-5.079v-0.118c-0.119-0.354-0.236-0.708-0.359-1.18
			c0-0.236,0.123-0.474,0.24-0.474c-0.117-1.652-0.354-3.188-0.711-4.724c-0.828-3.896-2.242-7.559-4.014-11.221
			c-0.121-0.354,0.236-0.59,0.473-0.236c2.36,3.308,3.777,7.204,4.605,11.102c0.473,2.008,0.709,3.898,0.945,5.907
			c0.943,1.18,2.124,2.598,3.662,2.008c0.236-0.12,0.354-0.238,0.473-0.356c0-0.472,0-0.826,0-1.298
			c0-0.472,0.589-0.589,0.825-0.235c0.118,0.235,0.236,0.472,0.354,0.708c0.707-0.826,1.415-1.891,1.887-2.716
			c1.893-3.19,2.482-6.615,2.836-10.277c0-0.236,0.236-0.354,0.355-0.472c0.117-0.59,0.117-1.062,0.117-1.654
			c0.119-3.66-0.473-7.44-1.652-10.984c-0.118-0.354,0.354-0.59,0.591-0.236c1.533,3.544,2.36,7.325,2.245,11.22
			c0,0.354,0,0.711,0,1.064c0.354,0.472,0.709,0.826,1.416,1.062c0.826,0.236,1.653,0,2.361-0.59
			c1.419-1.062,2.364-2.952,3.072-4.606c1.534-3.19,1.892-6.614,2.717-9.923c0.354-2.126,0.354-4.371,0.236-6.614
			c-0.236-2.245-0.589-4.607-1.301-6.851c-0.591-2.244-1.652-4.371-2.597-6.497c-0.236-0.472,0.354-0.708,0.589-0.354
			c2.838,3.78,4.135,8.858,4.489,13.465c0.118,1.3,0.236,2.718,0.118,4.016c0.589,0.236,1.18,0.473,1.77,0.473
			c0.83,0,1.657-0.236,2.364-0.708c1.535-1.062,2.483-2.953,3.072-4.724c0.472-1.064,0.708-2.126,0.944-3.19v-0.118
			c-0.236-2.126,0.118-4.371,0.118-6.496c0-0.708,0-1.417,0-2.126c-0.236-0.118-0.354-0.236-0.473-0.472
			c-0.235-0.354-0.118-0.826,0.354-0.826l0,0c0-1.064-0.118-2.008-0.236-3.072c-0.354-2.124-0.826-4.371-1.42-6.495
			c-0.591-2.01-1.416-4.016-2.006-6.024c-0.118-0.356,0.472-0.592,0.708-0.236c2.364,3.66,3.427,8.502,4.016,12.873
			c0.118,0.946,0.236,2.008,0.354,2.954c0.943,0.118,2.01,0.118,3.072-0.354c1.534-0.71,2.718-2.126,3.307-3.662
			c1.3-3.544,0.118-7.087-0.353-10.631c-0.123-0.236-0.359-0.472-0.594-0.708c-0.236-0.235-0.118-0.354,0-0.591
			c0-0.236,0.234-0.473,0.594-0.354c0.118,0,0.236,0,0.353,0c-0.116-0.59-0.234-1.18-0.353-1.771
			c-0.359-2.126-0.83-4.134-1.302-6.26c-0.591-2.008-1.3-4.016-1.652-6.024c-0.118-0.472,0.471-0.708,0.707-0.354
			c0.945,1.89,1.535,4.134,2.124,6.143c0.594,2.008,1.066,4.132,1.421,6.26c0.118,0.826,0.236,1.652,0.354,2.48
			c1.061,0.354,2.242,0.708,3.308,0.236c1.652-0.829,1.771-3.309,1.889-4.845c0.118-2.006-0.118-4.015-0.473-6.022
			c-0.354-1.772-1.062-3.545-1.298-5.316c-0.236-0.118-0.59-0.354-0.83-0.59c-0.235-0.354,0-0.826,0.477-0.943
			c1.415,0,2.714,0.354,4.133-0.236c1.417-0.593,2.242-1.891,2.597-3.427c0.354-1.772-0.118-3.662-0.473-5.432
			c-0.353-1.891-1.061-3.662-1.77-5.435c-0.118-0.354,0.473-0.59,0.709-0.236c1.297,1.891,2.242,4.252,2.713,6.497
			c0.478,2.008,0.83,4.252,0,6.261c-0.589,1.652-1.887,2.952-3.658,3.542c-0.471,0.238-1.064,0.356-1.773,0.356
			c1.655,1.77,3.19,3.542,4.843,5.196c0.83,1.062,1.774,2.126,2.718,3.07c0.943,0.71,1.77,1.418,2.833,1.891
			c1.301,0.946,2.954,2.008,4.609,2.244c3.305,0.354,2.006-5.433,1.535-7.086c-0.945-3.309-2.602-6.379-4.607-9.213
			c-0.943-1.418-2.128-2.718-3.19-4.134c-1.062-1.3-2.359-2.48-3.309-4.016c-0.236-0.354,0.241-1.062,0.713-0.708
			c1.18,0.827,2.123,1.89,3.067,2.952c-0.118-0.471,0.118-1.062,0.473-1.418c0.118-0.118,0.354-0.236,0.473-0.236
			c0.236-0.354,0.476-0.708,0.83-1.18c0.589-0.59,1.179-1.3,1.77-2.008c1.18-1.301,2.481-2.598,3.663-4.016
			c1.888-2.362,3.779-4.96,5.078-7.795c0.471-1.183,1.062-2.601,0.354-3.781c-0.59-1.181-2.007-0.825-3.071-0.589
			c-3.306,0.943-6.614,2.243-9.804,3.542c-1.534,0.71-3.067,1.418-4.606,2.126c-0.118,0-0.236,0.118-0.354,0.118
			C126.752,49.885,124.271,50.947,121.907,52.01L121.907,52.01z M83.994,196.582c-0.825,2.717-1.893,5.67-3.425,8.15
			c-1.181,2.127-3.072,3.78-5.551,4.017c-1.063,0.118-2.483-0.118-3.428-0.828c0,0.235,0,0.472,0,0.71
			c0.473,3.424,0.355,6.969-0.236,10.511v0.238c0.119,3.069,0.236,6.14,0.119,9.212c0,0.355-0.472,0.355-0.472,0
			c-0.236-1.771-0.354-3.426-0.473-5.198c-0.471,1.536-0.943,3.072-1.416,4.606c-0.83,2.719-1.893,6.143-4.256,7.914
			c-0.943,0.709-2.124,1.064-3.304,0.826c-0.236,0-0.354,0-0.473,0c0.354,5.435,0.473,10.867,0.354,16.42
			c-0.473,17.953-3.427,36.971-12.521,52.797c1.416-0.945,2.718-2.008,4.016-3.189c5.196-4.606,9.449-10.393,12.285-16.89
			c1.298-3.072,2.359-6.497,3.067-9.805c0.236-1.772,0.473-3.542,0.709-5.313c0.121-0.828,0.121-1.537,0.236-2.363
			c0.121-0.945,0.121-1.89,0.476-2.718c0.118-0.354,0.589-0.708,0.943-0.708c0.118-1.534,0.118-2.952,0.236-4.371
			c0.118-6.85-0.236-13.7-0.825-20.433c0-0.354,0.589-0.472,0.589-0.118c1.18,6.851,1.652,13.701,1.535,20.551
			c0,1.773,0,3.545-0.119,5.199c0.119,0.117,0.236,0.354,0.236,0.59c0.235,1.299,0.354,3.07,1.184,4.135
			c0.709,0.943,1.652,1.063,2.479,0.236c1.893-2.009,3.072-4.961,4.135-7.443c2.005-4.961,3.189-10.393,4.252-15.709
			c1.062-5.786,2.006-11.574,2.596-17.363c0.713-5.786,1.184-11.693,1.302-17.599c0.236-6.022,0.118-12.048,0.709-17.954
			c0-0.354,0.235-0.59,0.472-0.707c0.117-0.119,0.117-0.119,0.236-0.119l-0.119-0.354c-0.117-1.89-0.354-3.662-0.589-5.435
			c-0.354-1.651-0.709-3.306-1.063-5.078c-0.353-1.418-0.947-2.834-1.184-4.252c0,0.236-0.117,0.472-0.117,0.59
			c0.24,2.719-0.118,5.435-0.473,7.915C85.765,190.439,84.938,193.512,83.994,196.582L83.994,196.582z M85.174,181.936
			c0-0.591,0-1.181,0-1.889c0.118-0.59,0.118-1.182,0.118-1.771c0-0.119,0-0.236,0-0.473c-0.943-0.71-1.887-1.535-2.596-2.362
			c-0.358-0.473,0.117-1.182,0.709-0.828c0.589,0.354,1.298,0.828,2.005,1.299c0-0.354,0-0.707,0-0.945
			c0.118-2.363,0.118-4.725-0.118-7.087c-0.118-2.362-0.354-4.842-0.707-7.322c-0.118-1.064-0.473-2.245-0.709-3.426
			c-0.471,0.238-1.063,0.356-1.656,0.238c-0.943,0-1.65-0.356-2.359-0.946c0.354,2.126,0.117,4.37-0.119,6.26
			c-0.353,3.188-1.18,6.378-2.244,9.331c-0.945,2.598-2.361,5.314-5.197,6.261c-1.416,0.472-3.187,0.354-4.252-0.59
			c0.59,6.378-0.709,12.99-3.19,18.896c-1.062,2.48-3.304,5.316-6.494,4.725c-0.591-0.117-1.062-0.354-1.534-0.59
			c1.771,11.221,3.422,22.56,4.134,34.016c0.118,0,0.118,0,0.236,0c0.473,0.238,0.944,0.238,1.417,0.12
			c1.062-0.237,1.887-1.064,2.48-2.008c1.417-2.362,2.242-5.081,2.951-7.679c0.826-2.834,1.42-5.668,1.774-8.623
			c0-0.708,0.118-1.533,0.118-2.244c0-1.297-0.118-2.48,0-3.778c0.118-0.117,0.118-0.237,0.234-0.237v-0.59
			c0-1.181,0-2.48,0.118-3.66c0-0.119,0-0.119,0-0.119c-0.118-0.119,0-0.237,0-0.355c0-0.59,0-1.063,0.118-1.653l0.236-6.259
			l0.354-6.497c0.118-1.063,0.118-2.243,0.235-3.308c0-0.945,0.117-2.008,0.473-2.834c0.117-0.354,0.59-0.473,0.825,0
			c0.236,0.943,0.118,2.125,0.118,3.188c-0.118,1.064-0.118,2.126-0.118,3.19l-0.353,6.497l-0.355,6.613
			c-0.117,0.473-0.117,0.944-0.117,1.299c1.652,1.536,4.134,1.536,5.904-0.118c2.246-2.126,3.308-5.551,4.251-8.384
			c1.067-3.309,2.011-6.735,2.602-10.16C84.703,185.479,84.938,183.707,85.174,181.936L85.174,181.936z M94.622,170.242
			c0.828-3.424,1.774-6.732,2.483-10.039c0.708-3.426,1.062-6.85,1.415-10.395c0-0.118,0.118-0.235,0.118-0.354
			c0.236-1.418,0.354-2.954,0.473-4.488c0.118-1.536,0.118-3.072,0.118-4.725c0-0.71-0.118-1.418-0.118-2.244
			c-0.236,0.472-0.473,1.062-0.825,1.534c-1.063,1.772-2.715,3.663-4.962,3.663c-0.708,0-1.651-0.236-2.245-0.708
			c-0.118,0.472-0.236,0.945-0.236,1.416c-0.118,3.663-1.652,7.324-3.658,10.041c-0.477,0.708-1.184,1.535-1.774,2.126
			c0.354,1.536,0.473,3.188,0.708,4.724c0.354,2.245,0.59,4.607,0.713,6.969c0.113,2.362,0.235,4.842,0.113,7.325
			c0,0.472,0,1.062-0.113,1.534c1.415,0.708,2.949,0.944,4.369,0.117C93.324,175.44,93.915,172.486,94.622,170.242L94.622,170.242z
			 M108.919,161.384c-0.123-1.416-0.123-2.716-0.123-4.134c-0.118-1.18-0.236-2.245,0-3.425c-0.825,0.708-1.889,1.298-2.949,1.535
			c-2.602,0.592-5.792-0.472-6.145-3.306c-0.118,0.118-0.118,0.235-0.118,0.354c0,3.071-0.473,6.143-1.063,9.213
			c-0.707,3.662-1.651,7.324-2.713,10.984c-0.83,2.482-2.129,5.317-4.847,6.261c-0.825,0.236-1.771,0.354-2.597,0.236
			c0.354,1.182,0.591,2.361,0.943,3.544c0.355,1.771,0.709,3.66,0.944,5.432c0.236,1.772,0.473,3.545,0.591,5.435v0.236
			c0.118,0.117,0.118,0.236,0.236,0.354c1.537,2.599,2.6,5.553,4.016,8.27c1.066,2.125,2.247,4.605,4.253,6.021
			c1.655,1.183,3.543,0.828,4.964-0.472c1.77-1.652,2.36-4.134,2.95-6.376c1.534-5.081,2.246-10.396,2.482-15.83
			c0.354-5.432,0.118-10.748-0.236-16.18C109.39,166.818,109.032,164.1,108.919,161.384L108.919,161.384z M114.468,135.4
			c0,1.416,0,2.834-0.118,4.25c-0.353,3.308-1.062,6.732-2.363,9.805c-0.591,1.18-1.298,2.48-2.242,3.424
			c0.118,0.12,0.354,0.238,0.354,0.356c0.827,1.416,0.945,3.188,1.298,4.842c0.473,1.653,0.709,3.425,0.943,5.079
			c0.355,3.072,0.709,6.142,0.828,9.095c0.475,0.945,1.066,1.89,1.655,2.716c1.298,1.654,3.309,3.072,5.433,3.072
			c4.37-0.117,5.785-5.671,6.379-9.095c0.827-5.08,1.182-10.276,1.182-15.355c0-5.081-0.236-10.158-0.827-15.237
			c-0.354-2.598-0.712-5.199-1.183-7.679c-0.473-2.126-0.827-4.133-1.063-6.143c-0.236,0.592-0.591,1.301-0.827,2.01
			c-1.297,2.834-3.19,6.023-6.615,6.613c-0.944,0.236-2.008,0.118-2.833-0.236C114.468,133.746,114.468,134.572,114.468,135.4
			L114.468,135.4z M112.575,128.076c-0.117-0.708-0.117-1.535-0.236-2.362c-0.353-2.008-0.589-3.898-0.943-5.906
			c-0.116-0.236-0.116-0.591-0.234-0.827c-0.236,0.708-0.473,1.418-0.827,2.008c-0.944,1.891-2.481,3.78-4.605,4.488
			c-0.945,0.236-2.483,0.354-3.545-0.236c0,0.472-0.118,0.944-0.118,1.418c-0.118,1.889-0.473,3.896-0.944,5.787
			c-0.236,0.944-0.589,2.008-0.943,3.072c0.589,1.417,0.471,3.188,0.471,4.724c0,1.653,0,3.306-0.116,4.96
			c-0.236,2.008-0.354,4.371-0.83,6.497c0.239-0.236,0.476-0.354,0.712-0.118c1.533,1.89,4.012,2.598,6.258,1.536
			c2.36-1.3,3.544-4.016,4.371-6.499c1.532-4.842,1.888-9.684,1.769-14.763c-0.825-0.826-1.18-1.89-0.943-3.308
			C111.986,128.194,112.339,128.076,112.575,128.076L112.575,128.076z M149.667,88.743c-1.067-1.18-2.247-2.244-3.545-3.306
			c-0.59-0.472-1.299-0.946-2.006-1.418c0,0.472-0.123,0.946-0.239,1.418c-0.354,1.062-1.063,2.008-2.126,2.48
			c-1.298,0.472-2.718,0.118-4.016-0.472c-0.944-0.472-1.888-0.946-2.836-1.536c0,0.118-0.118,0.118-0.118,0.118
			c0.236,0.236,0.354,0.354,0.594,0.59c0.827,1.182,1.652,2.48,2.242,3.78c0.709,1.654,1.298,3.306,1.652,5.079
			c0.235,0,0.476,0.12,0.712,0.238c2.006,2.242,3.541,4.96,4.726,7.677c1.06,2.362,1.888,4.725,2.595,7.086
			c2.246,1.89,5.078,3.544,7.915,3.072c3.426-0.71,3.898-4.606,3.662-7.561c-0.354-3.427-1.774-6.732-3.544-9.685
			C153.801,93.586,151.908,90.988,149.667,88.743L149.667,88.743z M143.993,80.948c1.773,0.354,3.545,2.009,4.965,3.071
			c0.473,0.354,0.945,0.826,1.534,1.182c0.236-0.118,0.589-0.118,0.825,0.118c1.181,0.826,2.718,1.298,4.018,0.708
			c1.179-0.472,2.006-1.772,2.006-2.953c0-1.536-1.063-2.954-2.006-4.134c-1.063-1.418-2.125-2.834-3.309-4.252
			c-2.006-2.362-4.252-4.724-6.967-6.378c-1.301-0.826-2.6-1.536-4.134-2.008c-1.538-0.59-2.954-0.708-4.605-0.944
			c-0.118,0-0.354,0-0.473-0.118h-0.118c0,0.118-0.118,0.118-0.239,0.118c1.064,1.18,2.127,2.48,3.072,3.781
			c1.772,2.478,3.425,5.314,4.369,8.266C143.404,78.468,143.759,79.648,143.993,80.948L143.993,80.948z M123.327,122.88
			c1.888-5.553,2.124-11.221,1.77-17.128c0-0.472,0.591-0.59,0.943-0.354c-0.234-0.708-0.353-1.301-0.589-2.008
			c-0.473-1.772-1.063-3.427-1.89-4.96c-0.942-2.008-2.245-3.78-3.661-5.435c0.118,0.118,0.118,0.236,0.118,0.473
			c0,0.356,0,0.709,0.118,1.182c0.471,2.716,0.354,5.67-0.944,8.151c-0.827,1.771-2.246,3.188-4.134,3.896
			c-0.944,0.356-2.128,0.592-3.19,0.356v0.118c0.826,2.834,0.826,5.669,0.236,8.503c0.471,1.3,0.59,2.836,0.826,4.134
			c0.357,1.89,0.711,3.779,0.83,5.67c0.236,1.772,0.473,3.542,0.589,5.314c0.354,0.238,0.709,0.474,1.18,0.592
			c1.299,0.236,2.602-0.354,3.545-1.182C121.316,128.548,122.383,125.478,123.327,122.88L123.327,122.88z M129.112,106.342
			c0.945,0.118,2.01-0.236,2.719-0.944c1.888-1.536,2.359-4.252,2.714-6.497c0.354-2.598,0.118-5.315-0.354-7.796
			c-0.235-1.18-0.59-2.362-1.061-3.542c-0.473-1.182-1.182-2.362-1.416-3.544c-0.119-0.236,0-0.354,0-0.354
			c-0.473-0.59-0.944-1.062-1.422-1.654c0-0.118,0-0.354,0-0.472l-1.416-1.653c-1.415-1.653-2.836-3.306-4.251-4.96
			c0.236,0.472,0.354,1.062,0.472,1.536c0.473,1.18,0.709,2.48,0.943,3.778c0.359,2.364,0.473,4.727,0.118,7.088
			c-0.353,1.889-1.297,3.661-3.304,4.134c-0.826,0.236-1.774,0.236-2.718,0c1.892,1.771,3.309,4.015,4.488,6.259
			c0.944,1.772,1.651,3.544,2.127,5.316c0.236,0.827,0.473,1.772,0.591,2.598C127.934,105.988,128.405,106.224,129.112,106.342
			L129.112,106.342z M131.595,107.76c-1.066,0.472-2.719,0.59-4.016,0.236c0,0,0,0.118-0.118,0.235
			c-0.118,0.354-0.473,0.473-0.709,0.236c0.709,4.606,0.118,9.333-1.301,13.821c0.236,0,0.471,0.118,0.589,0.354
			c1.539,2.834,2.365,5.904,3.072,9.094c0.354,1.535,0.591,3.307,0.945,4.961c0.118,0,0.234,0.118,0.234,0.236
			c2.247,3.78,5.198,8.977,10.161,8.977c4.254,0,5.196-4.843,5.55-8.151c0.592-4.606,0.709-9.33,0.236-14.055
			c-0.354-4.606-1.298-9.33-2.835-13.819c-1.063-3.662-2.715-7.086-4.017-10.63c-0.236,0-0.473-0.118-0.473-0.354
			c-1.062-2.834-1.534-5.788-2.831-8.504c-0.354-0.472-0.594-0.944-0.83-1.418c0.357,0.946,0.594,1.891,0.712,2.954
			c0.589,3.071,0.589,6.261,0,9.331C135.49,103.862,134.19,106.696,131.595,107.76L131.595,107.76z M95.331,92.051
			c0-0.59,0.83-0.59,0.83,0c0.235,4.607,1.889,9.213,0.472,13.819c-0.589,1.772-1.538,3.426-3.072,4.606
			c-0.944,0.708-2.36,1.536-3.661,1.418c-0.355,1.772-0.944,3.424-1.771,5.078c0.236,1.3,0,2.716,0.118,4.134
			c0.118,1.536,0.591,3.07,0.354,4.606c0,0.354-0.473,0.59-0.709,0.236c-0.825-1.298-0.825-3.07-0.825-4.489
			c-0.122-0.826-0.122-1.89-0.122-2.833c-1.062,1.416-2.241,2.598-3.658,3.544c-0.825,0.59-1.892,1.18-2.836,1.652
			c-0.826,0.354-1.889,0.708-2.836,0.708c-0.59,1.183-1.18,2.365-1.889,3.427c-0.943,1.536-2.129,2.954-3.307,4.134
			c0,1.298,0.116,2.48-0.236,3.663c-0.119,0.235-0.592,0.354-0.709,0c-0.236-0.946-0.119-1.772-0.119-2.719
			c-1.18,1.183-2.717,2.365-4.25,2.601c-0.118,0-0.118,0-0.236,0c-0.236,1.298-0.591,2.598-1.063,3.896
			c-0.709,1.654-1.656,3.308-2.837,4.727c-0.353,0.472-0.708,0.944-1.179,1.298c0.234,1.182,0.471,2.362,0.59,3.545
			c0.117,1.534,0.589,3.187,0.354,4.723c-0.117,0.591-0.709,0.708-0.943,0.118c-0.473-1.3-0.473-2.954-0.709-4.37
			c0-1.064-0.118-2.126-0.118-3.072c-0.712,0.592-1.419,0.946-2.245,1.182c-0.354,0.118-0.827-0.354-0.473-0.708
			c0.943-1.3,2.481-2.362,3.545-3.662c1.061-1.301,1.888-2.834,2.596-4.371c1.42-3.306,1.655-6.851,1.303-10.395
			c0-0.472,0.825-0.59,0.943-0.118c0.589,1.89,0.707,4.016,0.473,6.024c0.471-0.472,1.179-0.944,1.77-1.418
			c0.712-0.472,1.419-1.062,2.01-1.652c1.416-1.3,2.6-2.718,3.662-4.252c1.062-1.654,1.889-3.308,2.479-5.199
			c0.709-1.652,1.066-3.423,1.537-5.196c0-0.354,0.473-0.236,0.591,0.118c0.118,2.008-0.236,4.134-0.944,6.025
			c0.59-0.118,1.181-0.354,1.652-0.591c0.943-0.356,1.771-0.828,2.478-1.418c1.656-1.063,3.072-2.598,4.135-4.252
			c2.364-3.662,2.954-8.387,2.01-12.639c-0.118-0.471,0.473-0.589,0.591-0.235c0.826,2.126,1.179,4.488,0.943,6.615
			c0.354,0,0.708-0.118,1.063-0.236c0.83-0.236,1.537-0.826,2.127-1.418c1.299-1.18,2.008-2.834,2.365-4.489
			c0.354-2.008,0.236-3.896,0.113-5.904C95.571,96.186,95.331,94.177,95.331,92.051L95.331,92.051z"/>
	</g>
	<g>
		<path fill="#BCBBB1" d="M227.028,48.584c3.072,0.944,6.145,2.008,9.212,3.19c4.725,1.888,9.45,3.896,14.178,6.022
			c8.857,4.252,17.244,9.094,24.919,15.237c7.088,5.552,13.464,12.285,18.308,19.843c5.082,8.032,8.269,17.245,9.806,26.576
			c3.304,19.961,0.236,40.277-2.954,60.004c-3.427,21.26-7.442,42.521-8.032,64.135c-0.236,9.686,0.118,19.488,1.656,29.176
			c1.534,9.685,4.248,18.896,7.793,28.109c0.825,2.246,1.773,4.488,2.836,6.734c0.117,0.354,0.117,0.826,0,1.063
			c0.354,0.473,0.825,0.943,1.062,1.533c0.118,0.354-0.118,0.713-0.473,0.713c-1.77,0.472-3.543-0.595-4.96-1.42
			c-1.651-0.944-3.19-2.125-4.724-3.307c-2.954-2.362-5.55-5.078-7.797-8.15c-4.488-5.787-7.796-12.637-9.448-19.961
			c-0.354-1.537-0.59-3.188-0.826-4.725c-0.236,0.118-0.473,0.235-0.707,0.472c-2.954,1.418-5.083-0.825-6.617-3.069
			c-3.309-4.725-5.196-10.396-6.494-15.945c-3.072-12.64-4.729-25.633-5.319-38.507c-0.236-4.96-0.353-9.921,0.118-14.884
			c-0.236,0.593-0.589,1.184-0.825,1.773c-1.063,2.361-2.124,4.724-3.897,6.732c-1.653,1.771-4.018,2.953-6.495,2.479
			c-2.601-0.354-4.725-2.245-6.026-4.488c-1.416-2.48-2.242-5.433-2.833-8.267c-0.707-2.836-1.18-5.789-1.537-8.74
			c-0.473-4.252-0.591-8.505-0.473-12.758c-1.062,1.063-2.242,1.891-3.657,2.481c-4.961,2.125-9.689-1.062-11.695-5.67
			c-1.062-2.481-1.416-5.314-1.771-8.031c-0.357-2.837-0.594-5.67-0.83-8.505c-0.235-5.078,0-10.159,0.473-15.237
			c-0.236,0.472-0.589,0.946-0.944,1.418c-1.534,2.006-3.426,3.542-5.786,4.252c-2.245,0.825-4.842,0.708-6.971-0.592
			c-2.005-1.18-3.186-3.188-3.895-5.433c-0.83-2.362-1.065-4.96-1.302-7.44c-0.236-2.718-0.354-5.316-0.236-7.915
			c0.119-4.606,0.708-9.213,1.774-13.701c-0.121,0.117-0.357,0.235-0.476,0.472c-1.535,1.062-3.186,1.772-5.078,2.008
			c-4.018,0.472-7.085-2.362-7.915-6.26c-0.826-4.134,0.358-8.387,2.128-12.167c1.417-3.07,3.19-6.022,5.314-8.622
			c-1.062,0.118-2.124-0.118-3.19-0.59c-2.713-1.417-3.894-4.724-3.067-7.559c0.825-3.07,3.309-5.552,5.196-7.915
			c2.124-2.598,4.37-4.96,7.088-6.968c2.36-1.891,5.314-3.189,8.266-3.899c-0.118,0-0.236-0.118-0.354-0.235
			c-1.299-1.298-2.597-2.599-3.777-3.899c-2.48-2.834-4.728-6.022-6.145-9.566c-0.707-1.89-1.18-3.899-0.471-5.904
			c0.59-1.772,2.006-3.19,3.898-3.544c1.887-0.472,3.779,0.118,5.55,0.708c2.011,0.708,3.898,1.418,5.786,2.244
			c2.246,0.829,4.37,1.772,6.498,2.834c2.124,0.946,4.253,2.008,6.022,3.544C227.028,48.466,227.028,48.584,227.028,48.584
			L227.028,48.584z M253.722,92.051c0.119-0.59,0.83-0.59,0.83,0c0,2.126-0.122,4.134-0.357,6.26
			c-0.117,2.008-0.236,3.896,0.121,5.904c0.351,1.654,1.063,3.309,2.36,4.489c0.591,0.592,1.417,1.182,2.245,1.418
			c0.236,0.118,0.591,0.236,0.945,0.236c-0.236-2.127,0.118-4.489,0.944-6.615c0.236-0.354,0.825-0.236,0.707,0.235
			c-1.062,4.252-0.471,8.978,1.89,12.639c1.064,1.654,2.481,3.189,4.134,4.252c0.83,0.59,1.656,1.062,2.481,1.418
			c0.473,0.236,1.063,0.473,1.652,0.591c-0.707-1.891-1.062-4.017-0.825-6.025c0-0.354,0.471-0.472,0.589-0.118
			c0.472,1.772,0.83,3.544,1.42,5.196c0.591,1.891,1.534,3.545,2.597,5.199c0.948,1.535,2.128,2.953,3.545,4.252
			c0.589,0.59,1.297,1.18,2.009,1.652c0.591,0.474,1.3,0.946,1.889,1.418c-0.236-2.008-0.118-4.134,0.472-6.024
			c0.118-0.472,0.827-0.354,0.827,0.118c-0.354,3.544-0.118,7.088,1.298,10.395c0.712,1.536,1.655,3.07,2.718,4.371
			c1.062,1.3,2.6,2.362,3.543,3.662c0.236,0.354-0.234,0.826-0.589,0.708c-0.708-0.235-1.538-0.59-2.129-1.182
			c-0.118,0.946-0.118,2.008-0.236,3.072c-0.118,1.416-0.118,3.07-0.707,4.37c-0.118,0.59-0.825,0.473-0.825-0.118
			c-0.236-1.536,0.117-3.189,0.354-4.723c0.117-1.183,0.354-2.363,0.472-3.545c-0.354-0.354-0.825-0.826-1.062-1.298
			c-1.181-1.418-2.129-3.072-2.836-4.727c-0.473-1.298-0.945-2.598-1.181-3.896h-0.118c-1.652-0.236-3.072-1.418-4.37-2.601
			c0.118,0.946,0.118,1.772-0.118,2.719c0,0.354-0.473,0.235-0.59,0c-0.354-1.183-0.354-2.364-0.236-3.663
			c-1.301-1.18-2.482-2.598-3.427-4.134c-0.707-1.062-1.298-2.244-1.888-3.427c-0.83,0-1.892-0.354-2.717-0.708
			c-1.063-0.472-2.011-1.062-2.956-1.652c-1.415-0.946-2.595-2.128-3.661-3.544c0.118,0.944,0,2.008,0,2.833
			c-0.118,1.419-0.118,3.19-0.826,4.489c-0.236,0.354-0.827,0.117-0.827-0.236c-0.116-1.536,0.354-3.07,0.354-4.606
			c0.118-1.418-0.118-2.834,0.236-4.134c-0.943-1.654-1.534-3.306-1.77-5.078c-1.303,0.118-2.836-0.71-3.781-1.418
			c-1.414-1.18-2.48-2.834-2.953-4.606C251.953,101.264,253.604,96.658,253.722,92.051L253.722,92.051z M206.951,77.404
			c1.062-2.952,2.597-5.789,4.488-8.266c0.944-1.301,1.888-2.601,3.067-3.781c-0.117,0-0.236,0-0.354-0.118l0,0
			c-0.235,0.118-0.472,0.118-0.59,0.118c-1.534,0.236-3.072,0.354-4.606,0.944c-1.415,0.472-2.832,1.183-4.135,2.008
			c-2.713,1.654-4.841,4.017-6.965,6.378c-1.067,1.418-2.247,2.834-3.309,4.252c-0.826,1.18-1.888,2.598-1.888,4.134
			c0,1.18,0.707,2.481,1.888,2.953c1.416,0.59,2.836,0.118,4.016-0.708c0.354-0.236,0.591-0.236,0.944-0.118
			c0.473-0.356,0.943-0.828,1.416-1.182c1.421-1.062,3.19-2.716,5.082-3.071C206.243,79.648,206.597,78.468,206.951,77.404
			L206.951,77.404z M215.574,64.057c0.943-1.062,2.005-2.125,3.067-2.952c0.478-0.354,0.948,0.354,0.712,0.708
			c-0.83,1.536-2.128,2.716-3.307,4.016c-1.063,1.417-2.129,2.716-3.19,4.134c-2.006,2.834-3.663,5.904-4.607,9.213
			c-0.354,1.653-1.771,7.44,1.535,7.086c1.655-0.236,3.309-1.298,4.723-2.244c0.949-0.473,1.893-1.18,2.836-1.891
			c0.828-0.944,1.776-2.008,2.72-3.07c1.533-1.654,3.067-3.426,4.724-5.196c-0.59,0-1.184-0.118-1.774-0.356
			c-1.651-0.59-3.067-1.891-3.658-3.542c-0.712-2.008-0.476-4.252,0-6.261c0.591-2.244,1.417-4.606,2.715-6.497
			c0.236-0.354,0.825-0.118,0.707,0.236c-0.589,1.772-1.297,3.544-1.77,5.435c-0.354,1.771-0.708,3.66-0.354,5.432
			c0.236,1.536,1.063,2.834,2.597,3.427c1.42,0.59,2.6,0.236,4.135,0.236c0.476,0.117,0.589,0.589,0.353,0.943
			c-0.234,0.236-0.471,0.472-0.825,0.59c-0.235,1.771-0.826,3.544-1.181,5.316c-0.471,2.007-0.589,4.016-0.471,6.022
			c0,1.536,0.234,4.016,1.77,4.845c1.066,0.472,2.246,0.118,3.309-0.236c0.118-0.828,0.236-1.654,0.471-2.48
			c0.354-2.128,0.827-4.252,1.421-6.26c0.473-2.008,1.063-4.252,2.124-6.143c0.236-0.354,0.709-0.118,0.709,0.354
			c-0.354,2.008-1.182,4.016-1.652,6.024c-0.59,2.126-1.066,4.134-1.42,6.26c-0.118,0.59-0.236,1.18-0.236,1.771
			c0.118,0,0.236,0,0.354,0c0.357-0.118,0.594,0.118,0.594,0.354c0.118,0.238,0.118,0.356,0,0.591
			c-0.236,0.236-0.473,0.472-0.712,0.708c-0.473,3.544-1.534,7.086-0.236,10.631c0.59,1.536,1.656,2.952,3.19,3.662
			c1.179,0.472,2.127,0.472,3.19,0.354c0-0.946,0.118-2.008,0.234-2.954c0.591-4.371,1.653-9.213,4.135-12.873
			c0.118-0.356,0.709-0.12,0.591,0.236c-0.591,2.008-1.417,4.014-1.888,6.024c-0.712,2.124-1.185,4.371-1.421,6.495
			c-0.118,1.064-0.236,2.008-0.354,3.072c0,0,0,0,0.118,0c0.354,0,0.591,0.472,0.354,0.826c-0.236,0.236-0.354,0.354-0.473,0.472
			c-0.118,0.709-0.118,1.418-0.118,2.126c0,2.125,0.473,4.37,0.236,6.496c0,0,0,0.118-0.118,0.118
			c0.236,1.064,0.591,2.126,0.945,3.19c0.707,1.771,1.655,3.662,3.19,4.724c0.707,0.472,1.415,0.708,2.245,0.708
			c0.709,0,1.18-0.236,1.77-0.473c0-1.297,0-2.716,0.118-4.016c0.473-4.606,1.771-9.685,4.488-13.465
			c0.354-0.354,0.825-0.118,0.591,0.354c-0.943,2.126-1.889,4.252-2.597,6.497c-0.594,2.244-1.066,4.606-1.185,6.851
			c-0.234,2.243-0.116,4.488,0.118,6.614c0.944,3.309,1.303,6.732,2.72,9.923c0.707,1.654,1.65,3.544,3.072,4.606
			c0.707,0.59,1.532,0.827,2.359,0.59c0.708-0.236,1.061-0.59,1.42-1.062c0-0.354,0-0.71,0-1.064
			c-0.123-3.896,0.707-7.676,2.36-11.22c0.118-0.354,0.707-0.118,0.589,0.236c-1.298,3.544-1.888,7.325-1.77,10.984
			c0,0.593,0.118,1.064,0.118,1.654c0.236,0.118,0.354,0.236,0.354,0.472c0.354,3.662,0.943,7.086,2.833,10.277
			c0.594,0.826,1.183,1.89,2.01,2.716c0.118-0.236,0.236-0.473,0.354-0.708c0.118-0.354,0.708-0.236,0.708,0.235
			c0.118,0.473,0,0.827,0,1.298c0.118,0.118,0.353,0.236,0.471,0.356c1.657,0.59,2.72-0.828,3.781-2.008
			c0.118-2.008,0.354-3.899,0.825-5.907c0.826-3.898,2.365-7.794,4.607-11.102c0.236-0.354,0.712-0.118,0.476,0.236
			c-1.656,3.662-3.19,7.324-4.016,11.221c-0.355,1.536-0.595,3.072-0.713,4.724c0.235,0,0.357,0.238,0.235,0.474
			c0,0.472-0.117,0.826-0.354,1.18c0,0,0,0,0,0.118c0,1.654,0.236,3.427-0.118,5.079c0,0.118,0,0.118-0.118,0.236
			c0.118,0.474,0.118,0.946,0.118,1.418c0.236,2.598,0.83,5.198,1.656,7.796c0.709,2.244,1.534,4.842,3.188,6.497
			c1.772,1.534,4.605,1.889,6.026-0.354c0,0,0-0.118,0.116-0.118c0-0.474,0-0.946,0.118-1.418c0.236-3.781,0.944-7.44,2.242-10.867
			c0.118-0.473,0.709-0.236,0.596,0.118c-0.714,3.662-1.421,7.322-1.775,11.103c-0.118,1.772-0.118,3.663,0,5.435
			c0,1.652,0.473,3.542,0.236,5.314c-0.118,0-0.118,0.118-0.118,0.118c0.473,3.306,1.18,6.496,2.364,9.685
			c0.589,1.418,1.181,2.836,2.242,3.898c0.825,0.943,2.364,1.536,3.543,0.943c0.709-0.354,1.181-0.943,1.653-1.533
			c0.353-2.48,0.83-4.961,1.183-7.443c3.306-19.841,7.322-40.158,6.023-60.474c-0.591-9.449-2.364-18.899-6.376-27.522
			c-3.779-8.266-9.335-15.47-15.829-21.613c-14.408-13.584-32.716-21.025-50.433-28.82c-2.483-1.063-4.847-2.125-7.324-3.189
			c-0.119,0-0.236-0.118-0.355-0.118c-1.537-0.708-3.072-1.417-4.604-2.126c-3.19-1.298-6.499-2.598-9.804-3.542
			c-1.066-0.236-2.364-0.592-3.072,0.589c-0.589,1.18-0.117,2.598,0.472,3.781c1.182,2.834,3.072,5.433,5.079,7.795
			c1.181,1.418,2.365,2.715,3.544,4.016c0.591,0.708,1.18,1.418,1.771,2.008c0.354,0.472,0.707,0.827,0.948,1.18
			c0.114,0,0.235,0.118,0.354,0.236C215.574,62.995,215.692,63.586,215.574,64.057L215.574,64.057z M293.054,200.717
			c-0.354,0.236-0.944,0.473-1.533,0.59c-3.19,0.592-5.314-2.244-6.499-4.725c-2.479-5.906-3.776-12.519-3.067-18.896
			c-1.181,0.943-2.954,1.062-4.371,0.59c-2.718-0.946-4.252-3.663-5.195-6.261c-1.067-2.953-1.893-6.143-2.247-9.331
			c-0.236-1.891-0.354-4.134-0.118-6.26c-0.589,0.59-1.415,0.946-2.245,0.946c-0.709,0.118-1.298,0-1.771-0.238
			c-0.236,1.182-0.472,2.362-0.708,3.426c-0.354,2.48-0.591,4.96-0.709,7.322s-0.118,4.724-0.118,7.087c0,0.238,0,0.591,0,0.945
			c0.827-0.472,1.417-0.945,2.124-1.299c0.473-0.354,0.945,0.354,0.591,0.828c-0.707,0.827-1.651,1.652-2.597,2.362
			c0,0.236,0,0.354,0,0.473c0,0.59,0.118,1.182,0.118,1.771c0,0.708,0,1.298,0.118,1.889c0.118,1.771,0.354,3.543,0.709,5.197
			c0.59,3.425,1.415,6.852,2.6,10.16c0.944,2.833,2.006,6.258,4.253,8.384c1.65,1.654,4.129,1.654,5.785,0.118
			c0-0.354,0-0.826,0-1.299c-0.118-2.244-0.236-4.37-0.354-6.613c-0.118-2.244-0.236-4.371-0.354-6.497
			c-0.118-1.064-0.118-2.126-0.236-3.19c0-1.063-0.118-2.244,0.236-3.188c0.118-0.473,0.59-0.354,0.826,0
			c0.354,0.826,0.354,1.889,0.473,2.834c0,1.064,0.118,2.244,0.118,3.308c0.118,2.127,0.236,4.37,0.354,6.497
			c0.116,2.126,0.234,4.252,0.353,6.259c0,0.591,0,1.063,0,1.653c0.118,0.118,0.118,0.236,0.118,0.355c0,0,0,0,0,0.119
			c0,1.18,0.118,2.479,0,3.66c0,0.236,0,0.354,0,0.59c0.118,0,0.236,0.12,0.236,0.237c0.118,1.298,0.118,2.481,0,3.778
			c0,0.711,0.118,1.536,0.236,2.244c0.235,2.955,0.829,5.789,1.656,8.623c0.707,2.598,1.651,5.316,3.067,7.679
			c0.478,0.943,1.303,1.771,2.365,2.008c0.589,0.118,1.062,0.118,1.532-0.12h0.118C289.749,223.276,291.284,211.938,293.054,200.717
			L293.054,200.717z M288.801,236.74c-0.118,0-0.236,0-0.353,0c-1.18,0.238-2.36-0.117-3.427-0.826
			c-2.36-1.771-3.304-5.195-4.248-7.914c-0.477-1.534-0.948-3.07-1.303-4.606c-0.118,1.772-0.353,3.427-0.471,5.198
			c-0.118,0.355-0.591,0.355-0.591,0c0-3.072,0-6.143,0.118-9.212c0-0.118,0-0.238,0-0.238c-0.473-3.542-0.591-7.087-0.118-10.511
			c0-0.238-0.118-0.475-0.118-0.71c-0.944,0.71-2.245,0.946-3.426,0.828c-2.478-0.236-4.252-1.89-5.55-4.017
			c-1.538-2.48-2.483-5.434-3.427-8.15c-0.944-3.07-1.651-6.143-2.124-9.33c-0.357-2.48-0.712-5.196-0.472-7.915
			c0-0.118,0-0.354,0-0.59c-0.358,1.418-0.83,2.834-1.185,4.252c-0.473,1.772-0.827,3.427-1.062,5.078
			c-0.354,1.772-0.591,3.545-0.709,5.435c0,0.118,0,0.236,0,0.354c0,0,0.118,0,0.118,0.119c0.236,0.117,0.473,0.354,0.591,0.707
			c0.589,5.906,0.471,11.932,0.589,17.954c0.236,5.905,0.591,11.813,1.299,17.599c0.594,5.789,1.537,11.577,2.719,17.363
			c0.942,5.316,2.124,10.748,4.251,15.709c0.945,2.482,2.242,5.435,4.018,7.443c0.825,0.826,1.77,0.707,2.481-0.236
			c0.825-1.064,0.943-2.836,1.18-4.135c0.118-0.236,0.118-0.473,0.236-0.59c0-1.654,0-3.426-0.118-5.199
			c0-6.85,0.354-13.7,1.535-20.551c0.116-0.354,0.707-0.236,0.589,0.118c-0.589,6.732-0.943,13.583-0.707,20.433
			c0,1.419,0.118,2.837,0.118,4.371c0.471,0,0.825,0.354,0.943,0.708c0.354,0.828,0.472,1.772,0.472,2.718
			c0.122,0.826,0.122,1.535,0.236,2.363c0.236,1.771,0.476,3.541,0.83,5.313c0.591,3.308,1.651,6.732,3.067,9.805
			c2.837,6.497,6.97,12.283,12.166,16.89c1.3,1.182,2.602,2.244,4.018,3.189c-9.096-15.826-11.932-34.844-12.404-52.797
			C288.448,247.607,288.564,242.175,288.801,236.74L288.801,236.74z M259.157,193.748c0-0.118,0-0.118,0-0.236
			c0.118-1.89,0.236-3.662,0.473-5.435c0.236-1.771,0.591-3.66,1.063-5.432c0.236-1.183,0.473-2.362,0.943-3.544
			c-0.943,0.117-1.77,0-2.715-0.236c-2.718-0.943-4.014-3.778-4.844-6.261c-1.064-3.66-2.008-7.322-2.715-10.984
			c-0.591-3.07-1.063-6.143-1.063-9.213c0-0.118,0-0.235,0-0.354c-0.477,2.834-3.661,3.898-6.145,3.306
			c-1.18-0.236-2.124-0.826-2.949-1.535c0.113,1.18,0,2.245,0,3.425c0,1.418-0.123,2.718-0.241,4.134
			c-0.118,2.716-0.354,5.435-0.589,8.151c-0.354,5.433-0.473,10.749-0.236,16.18c0.236,5.435,1.066,10.749,2.481,15.83
			c0.591,2.242,1.298,4.724,2.954,6.376c1.416,1.3,3.422,1.654,5.078,0.472c1.889-1.416,3.068-3.896,4.135-6.021
			c1.415-2.717,2.479-5.671,4.012-8.27C258.921,193.984,259.036,193.865,259.157,193.748L259.157,193.748z M240.14,152.879
			c-0.827-0.944-1.653-2.244-2.124-3.424c-1.303-3.072-2.011-6.497-2.364-9.805c-0.119-1.416-0.236-2.834-0.119-4.25
			c-0.117-0.829-0.117-1.654,0-2.483c-0.943,0.354-2.005,0.473-2.953,0.236c-3.305-0.59-5.196-3.778-6.495-6.613
			c-0.354-0.709-0.591-1.418-0.825-2.01c-0.236,2.01-0.708,4.017-1.063,6.143c-0.473,2.48-0.948,5.081-1.185,7.679
			c-0.707,5.079-0.943,10.156-0.825,15.237c0,5.079,0.353,10.275,1.18,15.355c0.476,3.424,1.893,8.978,6.263,9.095
			c2.242,0,4.251-1.418,5.433-3.072c0.707-0.827,1.179-1.771,1.651-2.716c0.236-2.953,0.594-6.022,0.948-9.095
			c0.236-1.654,0.473-3.426,0.825-5.079c0.354-1.653,0.473-3.426,1.299-4.842C239.903,153.117,240.021,152.999,240.14,152.879
			L240.14,152.879z M224.433,122.289c-1.421-4.488-2.012-9.215-1.303-13.821c-0.236,0.236-0.591,0.118-0.709-0.236
			c0-0.117,0-0.235,0-0.235c-1.415,0.354-3.067,0.235-4.014-0.236c-2.597-1.064-3.9-3.898-4.489-6.496
			c-0.591-3.07-0.591-6.26,0-9.331c0.235-1.063,0.472-2.008,0.708-2.954c-0.236,0.474-0.473,0.946-0.708,1.418
			c-1.298,2.716-1.889,5.67-2.833,8.504c-0.118,0.236-0.353,0.354-0.471,0.354c-1.303,3.544-2.954,6.968-4.136,10.63
			c-1.42,4.489-2.363,9.213-2.836,13.819c-0.472,4.725-0.353,9.449,0.236,14.055c0.473,3.309,1.416,8.151,5.551,8.151
			c4.96,0,8.032-5.196,10.16-8.977c0.118-0.118,0.236-0.236,0.354-0.236c0.234-1.654,0.59-3.426,0.943-4.961
			c0.708-3.189,1.417-6.26,2.954-9.094C223.96,122.407,224.196,122.289,224.433,122.289L224.433,122.289z M210.614,95.476
			c0.471-1.772,0.943-3.424,1.77-5.079c0.591-1.3,1.298-2.598,2.242-3.78c0.122-0.236,0.357-0.354,0.476-0.59c0,0,0,0,0-0.118
			c-0.948,0.59-2.009,1.064-2.954,1.536c-1.181,0.59-2.6,0.944-4.017,0.472c-1.062-0.472-1.652-1.418-2.006-2.48
			c-0.118-0.472-0.24-0.946-0.354-1.418c-0.594,0.472-1.419,0.946-2.01,1.418c-1.18,1.062-2.481,2.126-3.543,3.306
			c-2.242,2.245-4.135,4.843-5.669,7.561c-1.653,2.952-3.19,6.258-3.544,9.685c-0.236,2.954,0.354,6.851,3.78,7.561
			c2.836,0.472,5.55-1.183,7.796-3.072c0.709-2.362,1.534-4.725,2.596-7.086c1.185-2.716,2.718-5.435,4.844-7.677
			C210.137,95.595,210.378,95.476,210.614,95.476L210.614,95.476z M250.89,144.967L250.89,144.967c0,1.534,0.118,3.07,0.354,4.488
			c0.118,0.118,0.118,0.235,0.118,0.354c0.473,3.545,0.825,6.969,1.533,10.395c0.709,3.306,1.534,6.615,2.482,10.039
			c0.589,2.244,1.18,5.198,3.309,6.496c1.416,0.827,2.949,0.591,4.366-0.117c0-0.473-0.118-1.063-0.118-1.534
			c0-2.482,0-4.962,0.118-7.325c0.118-2.362,0.354-4.724,0.712-6.969c0.236-1.536,0.473-3.188,0.825-4.724
			c-0.707-0.592-1.297-1.418-1.892-2.126c-2.006-2.716-3.541-6.377-3.541-10.041c-0.121-0.471-0.236-0.944-0.236-1.416
			c-0.712,0.472-1.654,0.708-2.363,0.708c-2.242,0-3.897-1.891-4.959-3.663c-0.236-0.472-0.591-1.062-0.827-1.534
			c0,0.826-0.118,1.534-0.118,2.244C250.653,141.895,250.771,143.431,250.89,144.967L250.89,144.967z M238.959,146.619
			L238.959,146.619c0.708,2.483,1.888,5.199,4.371,6.499c2.124,1.062,4.724,0.354,6.14-1.536c0.236-0.236,0.59-0.118,0.712,0.118
			c-0.476-2.126-0.594-4.488-0.712-6.497c-0.118-1.654-0.236-3.308-0.236-4.96c0.118-1.536-0.118-3.308,0.473-4.724
			c-0.354-1.064-0.591-2.128-0.825-3.072c-0.473-1.89-0.827-3.898-1.063-5.787c0-0.474-0.118-0.946-0.118-1.418
			c-1.061,0.59-2.6,0.472-3.544,0.236c-2.124-0.708-3.545-2.598-4.488-4.488c-0.354-0.59-0.708-1.3-0.944-2.008
			c-0.118,0.236-0.118,0.59-0.118,0.827c-0.353,2.008-0.707,3.897-0.943,5.906c-0.118,0.828-0.236,1.654-0.354,2.362
			c0.354,0,0.709,0.118,0.827,0.472c0.234,1.418-0.236,2.482-0.945,3.308C237.07,136.935,237.425,141.777,238.959,146.619
			L238.959,146.619z M224.786,105.752L224.786,105.752c-0.235,5.907-0.118,11.575,1.889,17.128c0.826,2.598,2.009,5.668,4.133,7.322
			c0.945,0.828,2.365,1.418,3.545,1.182c0.473-0.118,0.827-0.354,1.299-0.592c0.117-1.772,0.236-3.542,0.471-5.314
			c0.236-1.891,0.473-3.78,0.827-5.67c0.239-1.298,0.357-2.834,0.83-4.134c-0.591-2.834-0.591-5.669,0.236-8.503c0,0,0,0,0-0.118
			c-1.066,0.236-2.247,0-3.19-0.356c-1.771-0.708-3.19-2.124-4.134-3.896c-1.181-2.481-1.299-5.435-0.826-8.151
			c0-0.472,0-0.826,0.117-1.182c0-0.236,0-0.354,0-0.473c-1.417,1.654-2.6,3.427-3.662,5.435c-0.709,1.534-1.416,3.188-1.888,4.96
			c-0.236,0.708-0.354,1.3-0.473,2.008C224.196,105.162,224.904,105.28,224.786,105.752L224.786,105.752z M215.456,98.901
			L215.456,98.901c0.236,2.245,0.825,4.961,2.596,6.497c0.826,0.708,1.774,1.062,2.836,0.944c0.591-0.118,1.181-0.354,1.651-0.708
			c0.236-0.826,0.354-1.771,0.591-2.598c0.594-1.771,1.303-3.544,2.129-5.316c1.18-2.244,2.713-4.488,4.488-6.259
			c-0.827,0.236-1.775,0.236-2.719,0c-2.006-0.473-2.832-2.246-3.187-4.134c-0.476-2.362-0.354-4.724,0-7.088
			c0.236-1.298,0.591-2.598,0.944-3.778c0.118-0.474,0.354-1.064,0.473-1.536c-1.299,1.654-2.72,3.308-4.135,4.96
			c-0.473,0.589-0.945,1.182-1.416,1.653c0,0.118,0,0.354-0.118,0.472c-0.357,0.592-0.83,1.064-1.419,1.654
			c0.117,0,0.117,0.118,0.117,0.354c-0.236,1.182-1.063,2.362-1.534,3.544c-0.354,1.18-0.707,2.362-0.943,3.542
			C215.22,93.586,215.102,96.304,215.456,98.901L215.456,98.901z"/>
		<path fill-rule="evenodd" fill="#FFFFFF" d="M228.095,52.01c17.717,7.795,36.024,15.236,50.433,28.82
			c6.494,6.143,12.05,13.347,15.829,21.613c4.012,8.623,5.785,18.074,6.376,27.522c1.299,20.315-2.718,40.632-6.023,60.474
			c-0.353,2.482-0.83,4.963-1.183,7.443c-0.473,0.59-0.944,1.18-1.653,1.533c-1.179,0.593-2.718,0-3.543-0.943
			c-1.062-1.063-1.653-2.48-2.242-3.898c-1.185-3.188-1.892-6.379-2.364-9.685c0,0,0-0.118,0.118-0.118
			c0.236-1.772-0.236-3.662-0.236-5.314c-0.118-1.771-0.118-3.662,0-5.435c0.354-3.78,1.062-7.44,1.775-11.103
			c0.113-0.354-0.478-0.59-0.596-0.118c-1.298,3.426-2.006,7.086-2.242,10.867c-0.118,0.472-0.118,0.944-0.118,1.418
			c-0.116,0-0.116,0.118-0.116,0.118c-1.421,2.242-4.254,1.888-6.026,0.354c-1.653-1.654-2.479-4.252-3.188-6.497
			c-0.826-2.598-1.42-5.198-1.656-7.796c0-0.473,0-0.944-0.118-1.418c0.118-0.118,0.118-0.118,0.118-0.236
			c0.354-1.652,0.118-3.424,0.118-5.079v-0.118c0.236-0.354,0.354-0.708,0.354-1.18c0.122-0.236,0-0.474-0.235-0.474
			c0.118-1.652,0.357-3.188,0.713-4.724c0.825-3.896,2.359-7.559,4.016-11.221c0.236-0.354-0.239-0.59-0.476-0.236
			c-2.242,3.308-3.781,7.204-4.607,11.102c-0.471,2.008-0.707,3.898-0.825,5.907c-1.062,1.18-2.124,2.598-3.781,2.008
			c-0.118-0.12-0.353-0.238-0.471-0.356c0-0.472,0.118-0.826,0-1.298c0-0.472-0.59-0.589-0.708-0.235
			c-0.118,0.235-0.236,0.472-0.354,0.708c-0.827-0.826-1.416-1.891-2.01-2.716c-1.89-3.19-2.479-6.615-2.833-10.277
			c0-0.236-0.117-0.354-0.354-0.472c0-0.59-0.118-1.062-0.118-1.654c-0.118-3.66,0.472-7.44,1.77-10.984
			c0.118-0.354-0.471-0.59-0.589-0.236c-1.653,3.544-2.483,7.325-2.36,11.22c0,0.354,0,0.711,0,1.064
			c-0.359,0.472-0.712,0.826-1.42,1.062c-0.827,0.236-1.652,0-2.359-0.59c-1.422-1.062-2.365-2.952-3.072-4.606
			c-1.417-3.19-1.775-6.614-2.72-9.923c-0.234-2.126-0.353-4.371-0.118-6.614c0.118-2.245,0.591-4.607,1.185-6.851
			c0.708-2.244,1.653-4.371,2.597-6.497c0.234-0.472-0.236-0.708-0.591-0.354c-2.718,3.78-4.016,8.858-4.488,13.465
			c-0.118,1.3-0.118,2.718-0.118,4.016c-0.59,0.236-1.061,0.473-1.77,0.473c-0.83,0-1.538-0.236-2.245-0.708
			c-1.535-1.062-2.483-2.953-3.19-4.724c-0.354-1.064-0.709-2.126-0.945-3.19c0.118,0,0.118-0.118,0.118-0.118
			c0.236-2.126-0.236-4.371-0.236-6.496c0-0.708,0-1.417,0.118-2.126c0.118-0.118,0.236-0.236,0.473-0.472
			c0.236-0.354,0-0.826-0.354-0.826h-0.118c0.118-1.064,0.236-2.008,0.354-3.072c0.236-2.124,0.709-4.371,1.421-6.495
			c0.471-2.01,1.297-4.016,1.888-6.024c0.118-0.356-0.473-0.592-0.591-0.236c-2.481,3.66-3.544,8.502-4.135,12.873
			c-0.116,0.946-0.234,2.008-0.234,2.954c-1.063,0.118-2.012,0.118-3.19-0.354c-1.534-0.71-2.601-2.126-3.19-3.662
			c-1.298-3.544-0.236-7.087,0.236-10.631c0.239-0.236,0.476-0.472,0.712-0.708c0.118-0.235,0.118-0.354,0-0.591
			c0-0.236-0.236-0.473-0.594-0.354c-0.118,0-0.236,0-0.354,0c0-0.59,0.118-1.18,0.236-1.771c0.354-2.126,0.83-4.134,1.42-6.26
			c0.471-2.008,1.298-4.016,1.652-6.024c0-0.472-0.473-0.708-0.709-0.354c-1.062,1.89-1.651,4.134-2.124,6.143
			c-0.594,2.008-1.066,4.132-1.421,6.26c-0.234,0.826-0.353,1.652-0.471,2.48c-1.063,0.354-2.242,0.708-3.309,0.236
			c-1.535-0.829-1.77-3.309-1.77-4.845c-0.118-2.006,0-4.015,0.471-6.022c0.354-1.772,0.945-3.545,1.181-5.316
			c0.354-0.118,0.591-0.354,0.825-0.59c0.236-0.354,0.123-0.826-0.353-0.943c-1.535,0-2.715,0.354-4.135-0.236
			c-1.534-0.593-2.36-1.891-2.597-3.427c-0.354-1.772,0-3.662,0.354-5.432c0.473-1.891,1.181-3.662,1.77-5.435
			c0.118-0.354-0.471-0.59-0.707-0.236c-1.298,1.891-2.124,4.252-2.715,6.497c-0.476,2.008-0.712,4.252,0,6.261
			c0.591,1.652,2.007,2.952,3.658,3.542c0.591,0.238,1.185,0.356,1.774,0.356c-1.656,1.77-3.19,3.542-4.724,5.196
			c-0.943,1.062-1.892,2.126-2.72,3.07c-0.943,0.71-1.887,1.418-2.836,1.891c-1.414,0.946-3.067,2.008-4.723,2.244
			c-3.306,0.354-1.89-5.433-1.535-7.086c0.944-3.309,2.602-6.379,4.607-9.213c1.062-1.418,2.127-2.718,3.19-4.134
			c1.179-1.3,2.477-2.48,3.307-4.016c0.236-0.354-0.234-1.062-0.712-0.708c-1.063,0.827-2.124,1.89-3.067,2.952
			c0.118-0.471,0-1.062-0.473-1.418c-0.118-0.118-0.239-0.236-0.354-0.236c-0.241-0.354-0.595-0.708-0.948-1.18
			c-0.591-0.59-1.18-1.3-1.771-2.008c-1.179-1.301-2.363-2.598-3.544-4.016c-2.007-2.362-3.897-4.96-5.079-7.795
			c-0.589-1.183-1.061-2.601-0.472-3.781c0.708-1.181,2.006-0.825,3.072-0.589c3.305,0.943,6.613,2.243,9.804,3.542
			c1.532,0.71,3.067,1.418,4.604,2.126c0.119,0,0.236,0.118,0.355,0.118C223.248,49.885,225.611,50.947,228.095,52.01L228.095,52.01
			z M265.889,196.582c0.943,2.717,1.889,5.67,3.427,8.15c1.298,2.127,3.072,3.78,5.55,4.017c1.181,0.118,2.481-0.118,3.426-0.828
			c0,0.235,0.118,0.472,0.118,0.71c-0.473,3.424-0.354,6.969,0.118,10.511v0.238c-0.118,3.069-0.118,6.14-0.118,9.212
			c0,0.355,0.473,0.355,0.591,0c0.118-1.771,0.353-3.426,0.471-5.198c0.354,1.536,0.826,3.072,1.303,4.606
			c0.944,2.719,1.888,6.143,4.248,7.914c1.066,0.709,2.247,1.064,3.427,0.826c0.116,0,0.234,0,0.353,0
			c-0.236,5.435-0.353,10.867-0.236,16.42c0.473,17.953,3.309,36.971,12.404,52.797c-1.416-0.945-2.718-2.008-4.018-3.189
			c-5.196-4.606-9.329-10.393-12.166-16.89c-1.416-3.072-2.477-6.497-3.067-9.805c-0.354-1.772-0.594-3.542-0.83-5.313
			c-0.114-0.828-0.114-1.537-0.236-2.363c0-0.945-0.118-1.89-0.472-2.718c-0.118-0.354-0.473-0.708-0.943-0.708
			c0-1.534-0.118-2.952-0.118-4.371c-0.236-6.85,0.118-13.7,0.707-20.433c0.118-0.354-0.473-0.472-0.589-0.118
			c-1.182,6.851-1.535,13.701-1.535,20.551c0.118,1.773,0.118,3.545,0.118,5.199c-0.118,0.117-0.118,0.354-0.236,0.59
			c-0.236,1.299-0.354,3.07-1.18,4.135c-0.712,0.943-1.656,1.063-2.481,0.236c-1.775-2.009-3.072-4.961-4.018-7.443
			c-2.127-4.961-3.309-10.393-4.251-15.709c-1.182-5.786-2.125-11.574-2.719-17.363c-0.708-5.786-1.063-11.693-1.299-17.599
			c-0.118-6.022,0-12.048-0.589-17.954c-0.118-0.354-0.354-0.59-0.591-0.707c0-0.119-0.118-0.119-0.118-0.119v-0.354
			c0.118-1.89,0.354-3.662,0.709-5.435c0.234-1.651,0.589-3.306,1.062-5.078c0.354-1.418,0.826-2.834,1.185-4.252
			c0,0.236,0,0.472,0,0.59c-0.24,2.719,0.114,5.435,0.472,7.915C264.237,190.439,264.944,193.512,265.889,196.582L265.889,196.582z
			 M264.826,181.936c-0.118-0.591-0.118-1.181-0.118-1.889c0-0.59-0.118-1.182-0.118-1.771c0-0.119,0-0.236,0-0.473
			c0.945-0.71,1.89-1.535,2.597-2.362c0.354-0.473-0.118-1.182-0.591-0.828c-0.707,0.354-1.297,0.828-2.124,1.299
			c0-0.354,0-0.707,0-0.945c0-2.363,0-4.725,0.118-7.087s0.354-4.842,0.709-7.322c0.236-1.064,0.472-2.245,0.708-3.426
			c0.473,0.238,1.062,0.356,1.771,0.238c0.83,0,1.656-0.356,2.245-0.946c-0.236,2.126-0.118,4.37,0.118,6.26
			c0.354,3.188,1.18,6.378,2.247,9.331c0.943,2.598,2.478,5.314,5.195,6.261c1.417,0.472,3.19,0.354,4.371-0.59
			c-0.709,6.378,0.589,12.99,3.067,18.896c1.185,2.48,3.309,5.316,6.499,4.725c0.589-0.117,1.18-0.354,1.533-0.59
			c-1.77,11.221-3.305,22.56-4.135,34.016h-0.118c-0.471,0.238-0.943,0.238-1.532,0.12c-1.063-0.237-1.888-1.064-2.365-2.008
			c-1.416-2.362-2.36-5.081-3.067-7.679c-0.827-2.834-1.421-5.668-1.656-8.623c-0.118-0.708-0.236-1.533-0.236-2.244
			c0.118-1.297,0.118-2.48,0-3.778c0-0.117-0.118-0.237-0.236-0.237v-0.59c0.118-1.181,0-2.48,0-3.66c0-0.119,0-0.119,0-0.119
			c0-0.119,0-0.237-0.118-0.355c0-0.59,0-1.063,0-1.653l-0.353-6.259l-0.354-6.497c0-1.063-0.118-2.243-0.118-3.308
			c-0.118-0.945-0.118-2.008-0.473-2.834c-0.236-0.354-0.708-0.473-0.826,0c-0.354,0.943-0.236,2.125-0.236,3.188
			c0.118,1.064,0.118,2.126,0.236,3.19l0.354,6.497l0.354,6.613c0,0.473,0,0.944,0,1.299c-1.656,1.536-4.135,1.536-5.785-0.118
			c-2.247-2.126-3.309-5.551-4.253-8.384c-1.185-3.309-2.01-6.735-2.6-10.16C265.181,185.479,264.944,183.707,264.826,181.936
			L264.826,181.936z M255.378,170.242c-0.948-3.424-1.773-6.732-2.482-10.039c-0.708-3.426-1.061-6.85-1.533-10.395
			c0-0.118,0-0.235-0.118-0.354c-0.236-1.418-0.354-2.954-0.354-4.488c-0.118-1.536-0.236-3.072-0.236-4.725
			c0-0.71,0.118-1.418,0.118-2.244c0.236,0.472,0.591,1.062,0.827,1.534c1.062,1.772,2.717,3.663,4.959,3.663
			c0.709,0,1.651-0.236,2.363-0.708c0,0.472,0.115,0.945,0.236,1.416c0,3.663,1.535,7.324,3.541,10.041
			c0.595,0.708,1.185,1.535,1.892,2.126c-0.353,1.536-0.589,3.188-0.825,4.724c-0.357,2.245-0.594,4.607-0.712,6.969
			c-0.118,2.362-0.118,4.842-0.118,7.325c0,0.472,0.118,1.062,0.118,1.534c-1.417,0.708-2.95,0.944-4.366,0.117
			C256.558,175.44,255.967,172.486,255.378,170.242L255.378,170.242z M240.965,161.384c0.118-1.416,0.241-2.716,0.241-4.134
			c0-1.18,0.113-2.245,0-3.425c0.825,0.708,1.77,1.298,2.949,1.535c2.483,0.592,5.668-0.472,6.145-3.306c0,0.118,0,0.235,0,0.354
			c0,3.071,0.472,6.143,1.063,9.213c0.707,3.662,1.65,7.324,2.715,10.984c0.83,2.482,2.126,5.317,4.844,6.261
			c0.945,0.236,1.771,0.354,2.715,0.236c-0.471,1.182-0.707,2.361-0.943,3.544c-0.472,1.771-0.826,3.66-1.063,5.432
			c-0.236,1.772-0.354,3.545-0.473,5.435v0.236c-0.121,0.117-0.236,0.236-0.357,0.354c-1.533,2.599-2.597,5.553-4.012,8.27
			c-1.066,2.125-2.246,4.605-4.135,6.021c-1.656,1.183-3.662,0.828-5.078-0.472c-1.656-1.652-2.363-4.134-2.954-6.376
			c-1.415-5.081-2.245-10.396-2.481-15.83c-0.236-5.432-0.118-10.748,0.236-16.18C240.61,166.818,240.847,164.1,240.965,161.384
			L240.965,161.384z M235.532,135.4c-0.117,1.416,0,2.834,0.119,4.25c0.354,3.308,1.062,6.732,2.364,9.805
			c0.471,1.18,1.297,2.48,2.124,3.424c-0.118,0.12-0.236,0.238-0.354,0.356c-0.826,1.416-0.944,3.188-1.299,4.842
			c-0.353,1.653-0.589,3.425-0.825,5.079c-0.354,3.072-0.712,6.142-0.948,9.095c-0.473,0.945-0.944,1.89-1.651,2.716
			c-1.182,1.654-3.19,3.072-5.433,3.072c-4.37-0.117-5.787-5.671-6.263-9.095c-0.827-5.08-1.18-10.276-1.18-15.355
			c-0.118-5.081,0.118-10.158,0.825-15.237c0.236-2.598,0.712-5.199,1.185-7.679c0.354-2.126,0.826-4.133,1.063-6.143
			c0.234,0.592,0.471,1.301,0.825,2.01c1.299,2.834,3.19,6.023,6.495,6.613c0.948,0.236,2.01,0.118,2.953-0.236
			C235.415,133.746,235.415,134.572,235.532,135.4L235.532,135.4z M237.307,128.076c0.118-0.708,0.236-1.535,0.354-2.362
			c0.236-2.008,0.591-3.898,0.943-5.906c0-0.236,0-0.591,0.118-0.827c0.236,0.708,0.59,1.418,0.944,2.008
			c0.943,1.891,2.364,3.78,4.488,4.488c0.944,0.236,2.483,0.354,3.544-0.236c0,0.472,0.118,0.944,0.118,1.418
			c0.236,1.889,0.591,3.896,1.063,5.787c0.234,0.944,0.471,2.008,0.825,3.072c-0.591,1.417-0.354,3.188-0.473,4.724
			c0,1.653,0.118,3.306,0.236,4.96c0.118,2.008,0.236,4.371,0.712,6.497c-0.122-0.236-0.476-0.354-0.712-0.118
			c-1.416,1.89-4.016,2.598-6.14,1.536c-2.483-1.3-3.663-4.016-4.371-6.499c-1.534-4.842-1.889-9.684-1.771-14.763
			c0.709-0.826,1.18-1.89,0.945-3.308C238.016,128.194,237.661,128.076,237.307,128.076L237.307,128.076z M200.218,88.743
			c1.062-1.18,2.363-2.244,3.543-3.306c0.591-0.472,1.416-0.946,2.01-1.418c0.114,0.472,0.236,0.946,0.354,1.418
			c0.354,1.062,0.944,2.008,2.006,2.48c1.417,0.472,2.836,0.118,4.017-0.472c0.945-0.472,2.006-0.946,2.954-1.536
			c0,0.118,0,0.118,0,0.118c-0.118,0.236-0.354,0.354-0.476,0.59c-0.944,1.182-1.651,2.48-2.242,3.78
			c-0.826,1.654-1.299,3.306-1.77,5.079c-0.236,0-0.478,0.12-0.594,0.238c-2.126,2.242-3.659,4.96-4.844,7.677
			c-1.062,2.362-1.887,4.725-2.596,7.086c-2.246,1.89-4.96,3.544-7.796,3.072c-3.427-0.71-4.017-4.606-3.78-7.561
			c0.354-3.427,1.891-6.732,3.544-9.685C196.083,93.586,197.976,90.988,200.218,88.743L200.218,88.743z M206.007,80.948
			c-1.892,0.354-3.661,2.009-5.082,3.071c-0.473,0.354-0.943,0.826-1.416,1.182c-0.354-0.118-0.59-0.118-0.944,0.118
			c-1.18,0.826-2.6,1.298-4.016,0.708c-1.181-0.472-1.888-1.772-1.888-2.953c0-1.536,1.062-2.954,1.888-4.134
			c1.062-1.418,2.241-2.834,3.309-4.252c2.124-2.362,4.252-4.724,6.965-6.378c1.303-0.826,2.72-1.536,4.135-2.008
			c1.534-0.59,3.072-0.708,4.606-0.944c0.118,0,0.354,0,0.59-0.118l0,0c0.117,0.118,0.236,0.118,0.354,0.118
			c-1.18,1.18-2.123,2.48-3.067,3.781c-1.892,2.478-3.427,5.314-4.488,8.266C206.597,78.468,206.243,79.648,206.007,80.948
			L206.007,80.948z M226.675,122.88c-2.007-5.553-2.124-11.221-1.889-17.128c0.118-0.472-0.59-0.59-0.826-0.354
			c0.118-0.708,0.236-1.301,0.473-2.008c0.472-1.772,1.179-3.427,1.888-4.96c1.063-2.008,2.245-3.78,3.662-5.435
			c0,0.118,0,0.236,0,0.473c-0.117,0.356-0.117,0.709-0.117,1.182c-0.473,2.716-0.354,5.67,0.826,8.151
			c0.943,1.771,2.363,3.188,4.134,3.896c0.943,0.356,2.124,0.592,3.19,0.356v0.118c-0.827,2.834-0.827,5.669-0.236,8.503
			c-0.473,1.3-0.591,2.836-0.83,4.134c-0.354,1.89-0.591,3.779-0.827,5.67c-0.234,1.772-0.354,3.542-0.471,5.314
			c-0.472,0.238-0.826,0.474-1.299,0.592c-1.18,0.236-2.6-0.354-3.545-1.182C228.684,128.548,227.501,125.478,226.675,122.88
			L226.675,122.88z M220.888,106.342c-1.062,0.118-2.01-0.236-2.836-0.944c-1.771-1.536-2.359-4.252-2.596-6.497
			c-0.354-2.598-0.236-5.315,0.354-7.796c0.236-1.18,0.589-2.362,0.943-3.542c0.472-1.182,1.298-2.362,1.534-3.544
			c0-0.236,0-0.354-0.117-0.354c0.589-0.59,1.062-1.062,1.419-1.654c0.118-0.118,0.118-0.354,0.118-0.472l1.416-1.653
			c1.415-1.653,2.836-3.306,4.135-4.96c-0.118,0.472-0.354,1.062-0.473,1.536c-0.354,1.18-0.708,2.48-0.944,3.778
			c-0.354,2.364-0.476,4.727,0,7.088c0.354,1.889,1.181,3.661,3.187,4.134c0.943,0.236,1.892,0.236,2.719,0
			c-1.775,1.771-3.309,4.015-4.488,6.259c-0.826,1.772-1.535,3.544-2.129,5.316c-0.236,0.827-0.354,1.772-0.591,2.598
			C222.068,105.988,221.479,106.224,220.888,106.342L220.888,106.342z M218.407,107.76c0.946,0.472,2.599,0.59,4.014,0.236
			c0,0,0,0.118,0,0.235c0.118,0.354,0.473,0.473,0.709,0.236c-0.709,4.606-0.118,9.333,1.303,13.821
			c-0.236,0-0.473,0.118-0.591,0.354c-1.537,2.834-2.246,5.904-2.954,9.094c-0.354,1.535-0.709,3.307-0.943,4.961
			c-0.118,0-0.236,0.118-0.354,0.236c-2.128,3.78-5.2,8.977-10.16,8.977c-4.135,0-5.078-4.843-5.551-8.151
			c-0.589-4.606-0.708-9.33-0.236-14.055c0.473-4.606,1.416-9.33,2.836-13.819c1.182-3.662,2.833-7.086,4.136-10.63
			c0.118,0,0.353-0.118,0.471-0.354c0.944-2.834,1.535-5.788,2.833-8.504c0.235-0.472,0.472-0.944,0.708-1.418
			c-0.236,0.946-0.473,1.891-0.708,2.954c-0.591,3.071-0.591,6.261,0,9.331C214.507,103.862,215.811,106.696,218.407,107.76
			L218.407,107.76z M254.552,92.051c0-0.59-0.711-0.59-0.83,0c-0.117,4.607-1.769,9.213-0.354,13.819
			c0.473,1.772,1.539,3.426,2.953,4.606c0.945,0.708,2.479,1.536,3.781,1.418c0.235,1.772,0.826,3.424,1.77,5.078
			c-0.354,1.3-0.118,2.716-0.236,4.134c0,1.536-0.471,3.07-0.354,4.606c0,0.354,0.591,0.59,0.827,0.236
			c0.708-1.298,0.708-3.07,0.826-4.489c0-0.826,0.118-1.89,0-2.833c1.066,1.416,2.246,2.598,3.661,3.544
			c0.945,0.59,1.894,1.18,2.956,1.652c0.825,0.354,1.887,0.708,2.717,0.708c0.59,1.183,1.181,2.365,1.888,3.427
			c0.944,1.536,2.126,2.954,3.427,4.134c-0.118,1.298-0.118,2.48,0.236,3.663c0.117,0.235,0.59,0.354,0.59,0
			c0.236-0.946,0.236-1.772,0.118-2.719c1.298,1.183,2.718,2.365,4.37,2.601h0.118c0.235,1.298,0.708,2.598,1.181,3.896
			c0.707,1.654,1.655,3.308,2.836,4.727c0.236,0.472,0.707,0.944,1.062,1.298c-0.118,1.182-0.354,2.362-0.472,3.545
			c-0.236,1.534-0.59,3.187-0.354,4.723c0,0.591,0.707,0.708,0.825,0.118c0.589-1.3,0.589-2.954,0.707-4.37
			c0.118-1.064,0.118-2.126,0.236-3.072c0.591,0.592,1.421,0.946,2.129,1.182c0.354,0.118,0.825-0.354,0.589-0.708
			c-0.943-1.3-2.481-2.362-3.543-3.662c-1.063-1.301-2.006-2.834-2.718-4.371c-1.416-3.306-1.652-6.851-1.298-10.395
			c0-0.472-0.709-0.59-0.827-0.118c-0.59,1.89-0.708,4.016-0.472,6.024c-0.589-0.472-1.298-0.944-1.889-1.418
			c-0.712-0.472-1.42-1.062-2.009-1.652c-1.417-1.3-2.597-2.718-3.545-4.252c-1.063-1.654-2.006-3.308-2.597-5.199
			c-0.59-1.652-0.948-3.423-1.42-5.196c-0.118-0.354-0.589-0.236-0.589,0.118c-0.236,2.008,0.118,4.134,0.825,6.025
			c-0.59-0.118-1.18-0.354-1.652-0.591c-0.825-0.356-1.651-0.828-2.481-1.418c-1.652-1.063-3.069-2.598-4.134-4.252
			c-2.36-3.662-2.951-8.387-1.89-12.639c0.118-0.471-0.471-0.589-0.707-0.235c-0.826,2.126-1.181,4.488-0.944,6.615
			c-0.354,0-0.709-0.118-0.945-0.236c-0.828-0.236-1.654-0.826-2.245-1.418c-1.298-1.18-2.01-2.834-2.36-4.489
			c-0.357-2.008-0.238-3.896-0.121-5.904C254.43,96.186,254.552,94.177,254.552,92.051L254.552,92.051z"/>
	</g>
</g>
</svg>
