<?xml version="1.0" encoding="utf-8"?>
<!-- Generator: Adobe Illustrator 16.0.0, SVG Export Plug-In . SVG Version: 6.00 Build 0)  -->
<!DOCTYPE svg PUBLIC "-//W3C//DTD SVG 1.1//EN" "http://www.w3.org/Graphics/SVG/1.1/DTD/svg11.dtd">
<svg version="1.1" id="Layer_1" xmlns="http://www.w3.org/2000/svg" xmlns:xlink="http://www.w3.org/1999/xlink" x="0px" y="0px"
	 width="350px" height="350px" viewBox="0 0 350 350" enable-background="new 0 0 350 350" xml:space="preserve">
<g>
	<ellipse opacity="0.11" fill="#432949" cx="175" cy="296.346" rx="90.086" ry="16.403"/>
	<g>
		<g>
			<g>
				<g>
					<path fill="#F7AB43" d="M117.067,242.057c-5.717,0.204-11.712,10.696-15.188,24.601c-3.476,13.904-1.121,30.482,1.177,31.285
						c2.3,0.802,5.296-2.406,5.296-2.406s3.154,4.011,5.294,4.545c2.139,0.535,3.422-4.545,3.422-4.545s4.762,3.743,7.756,3.476
						s4.364-6.685,4.364-6.685s3.277,4.011,4.831,3.743c1.553-0.268,3.767-6.685,3.767-6.685s2.599,3.743,6.343,2.406
						C147.871,290.455,139.475,241.255,117.067,242.057z"/>
					<g>
						<g>
							<g>
								<g>
									<path fill="#D7821D" d="M107.51,292.579c0,0-0.18-0.675-0.493-1.85c-0.15-0.594-0.332-1.313-0.54-2.138
										c-0.101-0.415-0.208-0.856-0.321-1.321c-0.089-0.47-0.149-0.968-0.228-1.487c-0.145-1.041-0.302-2.17-0.467-3.36
										c-0.095-0.597-0.135-1.214-0.155-1.847c-0.025-0.633-0.051-1.278-0.078-1.935c-0.035-1.315-0.135-2.677-0.017-4.056
										c0.084-1.381,0.169-2.783,0.254-4.186c0.215-1.389,0.43-2.777,0.641-4.144c0.16-1.376,0.557-2.685,0.877-3.96
										c0.165-0.637,0.327-1.263,0.486-1.876c0.153-0.614,0.322-1.209,0.548-1.771c0.418-1.128,0.813-2.195,1.179-3.183
										c0.188-0.49,0.354-0.964,0.542-1.403c0.21-0.43,0.411-0.838,0.599-1.221c0.382-0.76,0.716-1.424,0.992-1.971
										c0.564-1.08,0.887-1.697,0.887-1.697s-0.223,0.661-0.614,1.818c-0.203,0.573-0.449,1.269-0.73,2.064
										c-0.145,0.396-0.298,0.817-0.46,1.261c-0.142,0.451-0.263,0.936-0.409,1.433c-0.286,0.997-0.596,2.074-0.923,3.213
										c-0.183,0.563-0.313,1.158-0.431,1.77c-0.131,0.607-0.265,1.229-0.401,1.859c-0.265,1.263-0.597,2.555-0.749,3.902
										c-0.196,1.34-0.396,2.7-0.595,4.061c-0.099,1.371-0.199,2.743-0.297,4.093c-0.162,1.349-0.107,2.683-0.116,3.974
										c-0.004,0.646-0.008,1.28-0.013,1.902c-0.018,0.623-0.021,1.232,0.043,1.821c0.076,1.183,0.148,2.304,0.214,3.337
										c0.035,0.518,0.05,1.017,0.093,1.487c0.064,0.468,0.125,0.912,0.182,1.33c0.107,0.838,0.2,1.569,0.277,2.173
										C107.43,291.884,107.51,292.579,107.51,292.579z"/>
								</g>
							</g>
						</g>
					</g>
					<g>
						<g>
							<g>
								<g>
									<path fill="#D7821D" d="M115.206,292.649c0,0-0.55-2.354-1.195-5.938c-0.158-0.896-0.328-1.87-0.508-2.896
										c-0.19-1.027-0.246-2.126-0.355-3.259c-0.094-1.134-0.191-2.306-0.29-3.496c-0.084-1.192-0.169-2.403-0.254-3.615
										c0.01-1.214,0.021-2.428,0.031-3.623c0.006-1.195,0.042-2.371,0.071-3.508c0.045-1.137,0.016-2.237,0.157-3.274
										c0.108-1.038,0.221-2.019,0.336-2.922c0.215-1.808,0.434-3.307,0.592-4.354c0.17-1.045,0.268-1.643,0.268-1.643
										s0.011,0.607,0.029,1.671c0.008,1.061,0.01,2.573-0.035,4.381c-0.014,0.904-0.042,1.882-0.083,2.914
										c-0.056,1.032,0.042,2.126,0.036,3.253c0.021,1.128,0.046,2.293,0.043,3.476c0.001,1.184,0.002,2.386,0.003,3.587
										c0.068,1.2,0.136,2.4,0.203,3.581c0.052,1.183,0.104,2.347,0.154,3.474c0.076,1.124,0.024,2.224,0.153,3.249
										c0.091,1.029,0.178,2.005,0.258,2.905C115.124,290.214,115.206,292.649,115.206,292.649z"/>
								</g>
							</g>
						</g>
					</g>
					<g>
						<g>
							<g>
								<g>
									<path fill="#D7821D" d="M128.196,290.618c0,0-0.691-2.595-1.542-6.499c-0.209-0.977-0.435-2.035-0.674-3.152
										c-0.206-1.125-0.581-2.278-0.854-3.494c-0.297-1.211-0.604-2.462-0.916-3.733c-0.297-1.274-0.599-2.569-0.9-3.863
										c-0.354-1.281-0.708-2.563-1.057-3.824c-0.335-1.265-0.665-2.51-0.984-3.715c-0.335-1.201-0.574-2.388-0.918-3.479
										c-0.322-1.096-0.626-2.133-0.908-3.093c-0.556-1.919-0.983-3.533-1.277-4.666c-0.283-1.138-0.445-1.788-0.445-1.788
										s0.264,0.614,0.726,1.688c0.452,1.078,1.088,2.624,1.809,4.498c0.358,0.94,0.745,1.956,1.154,3.03
										c0.426,1.07,0.733,2.244,1.107,3.441c0.357,1.203,0.726,2.446,1.101,3.708c0.361,1.268,0.729,2.555,1.096,3.842
										c0.288,1.307,0.576,2.614,0.859,3.901c0.269,1.289,0.534,2.559,0.79,3.787c0.244,1.229,0.516,2.412,0.662,3.554
										c0.153,1.139,0.298,2.218,0.432,3.213C127.975,287.956,128.196,290.618,128.196,290.618z"/>
								</g>
							</g>
						</g>
					</g>
					<g>
						<g>
							<g>
								<g>
									<path fill="#D7821D" d="M137.065,287.041c0,0-0.135-0.677-0.369-1.855c-0.109-0.59-0.242-1.305-0.394-2.124
										c-0.072-0.41-0.149-0.846-0.229-1.305c-0.109-0.454-0.224-0.932-0.344-1.43c-0.237-0.994-0.494-2.073-0.765-3.21
										c-0.229-1.147-0.689-2.303-1.019-3.533c-0.367-1.22-0.694-2.496-1.204-3.735c-0.455-1.257-0.917-2.533-1.38-3.81
										c-0.541-1.245-1.081-2.49-1.613-3.717c-0.498-1.242-1.127-2.398-1.693-3.539c-0.601-1.122-1.073-2.271-1.684-3.268
										c-0.582-1.015-1.132-1.974-1.642-2.862c-0.253-0.444-0.497-0.871-0.728-1.276c-0.255-0.391-0.497-0.761-0.725-1.109
										c-0.449-0.701-0.841-1.314-1.164-1.82c-0.634-1.023-0.996-1.608-0.996-1.608s0.449,0.52,1.234,1.43
										c0.388,0.463,0.858,1.024,1.396,1.667c0.267,0.325,0.551,0.671,0.85,1.036c0.282,0.377,0.555,0.79,0.85,1.215
										c0.583,0.857,1.214,1.785,1.88,2.766c0.691,0.969,1.234,2.102,1.88,3.226c0.621,1.137,1.316,2.288,1.827,3.553
										c0.553,1.245,1.114,2.51,1.676,3.773c0.456,1.307,0.912,2.613,1.36,3.899c0.475,1.277,0.765,2.589,1.096,3.842
										c0.304,1.26,0.666,2.46,0.839,3.637c0.188,1.17,0.365,2.278,0.529,3.302c0.076,0.511,0.162,0.998,0.215,1.466
										c0.033,0.471,0.065,0.917,0.094,1.336c0.051,0.837,0.096,1.567,0.133,2.17
										C137.032,286.353,137.065,287.041,137.065,287.041z"/>
								</g>
							</g>
						</g>
					</g>
					<g>
						<g>
							<g>
								<g>
									<path fill="#C93B17" d="M103.214,260.521c0,0,0.521,0.038,1.423,0.105c0.449,0.04,0.994,0.09,1.616,0.146
										c0.31,0.032,0.64,0.065,0.987,0.102c0.349,0.017,0.719,0.006,1.103,0.013c0.765,0.011,1.596,0.022,2.469,0.035
										c0.437,0.03,0.885-0.002,1.343-0.048c0.458-0.033,0.925-0.067,1.399-0.102c0.949-0.067,1.933-0.079,2.914-0.289
										c0.986-0.15,1.987-0.302,2.988-0.454c0.984-0.241,1.967-0.481,2.936-0.718c0.98-0.197,1.897-0.551,2.802-0.844
										c0.452-0.149,0.896-0.296,1.331-0.44c0.44-0.133,0.867-0.273,1.261-0.462c0.798-0.353,1.561-0.676,2.272-0.965
										c0.352-0.151,0.698-0.28,1.016-0.428c0.309-0.163,0.601-0.318,0.876-0.464c0.556-0.286,1.043-0.536,1.444-0.742
										c0.816-0.399,1.283-0.628,1.283-0.628s-0.407,0.319-1.12,0.878c-0.365,0.274-0.808,0.607-1.313,0.987
										c-0.257,0.188-0.531,0.388-0.819,0.599c-0.3,0.191-0.632,0.364-0.972,0.558c-0.68,0.388-1.424,0.797-2.219,1.22
										c-0.389,0.231-0.813,0.414-1.254,0.582c-0.44,0.174-0.889,0.351-1.346,0.53c-0.917,0.351-1.849,0.773-2.864,0.983
										c-1.001,0.256-2.018,0.516-3.035,0.775c-1.04,0.142-2.08,0.283-3.103,0.422c-1.021,0.169-2.042,0.139-3.023,0.164
										c-0.49,0.004-0.973,0.009-1.445,0.013c-0.472,0.009-0.933-0.001-1.38-0.063c-0.896-0.086-1.739-0.195-2.515-0.287
										c-0.388-0.051-0.76-0.085-1.11-0.147c-0.347-0.085-0.675-0.165-0.985-0.241c-0.613-0.158-1.148-0.296-1.59-0.41
										C103.715,260.659,103.214,260.521,103.214,260.521z"/>
								</g>
							</g>
						</g>
					</g>
				</g>
				<path fill="#FCD499" d="M90.649,109.728c-0.181-3.068,7.219-2.911,9.091,0c1.872,2.911,20.322,134.201,20.322,134.201
					s-2.674,2.674-4.813,0C115.249,243.929,91.184,118.85,90.649,109.728z"/>
			</g>
			<g>
				<path fill="#68C14C" d="M153.281,193.428c0,0-4.278,7.486-13.504,9.359c-9.226,1.871-16.312-1.738-16.312-1.738
					c-5.348-2.54-9.626-2.273-10.829,2.94c-1.203,5.215,2.674,9.493,12.033,11.499c9.358,2.005,31.284,2.54,37.568-6.15
					S153.281,193.428,153.281,193.428z"/>
				<path fill="#3E2644" d="M165.172,181.877c-5.353,0.204-11.891,11.551-16.972,14.76l4.813,0.535c0,0-0.937,4.546-1.203,6.017
					h6.024c0,0-0.953,6.416-1.149,8.155h4.884c0,0-0.268,2.54,0,3.342c0,0,9.897-7.621,11.366-16.846
					S173.586,181.558,165.172,181.877z"/>
				<g>
					<path fill="#68C14C" d="M102.879,202.267c-0.814,1.407,1.871,3.702,1.871,3.702s-2.647,2.335-1.895,4.453
						c0.772,2.174,3.437,2.437,3.365,2.406c0,0-1.471,2.808,0,4.278s6.418,1.336,9.493,0c3.075-1.337,3.583-4.829,2.059-6.894
						c0,0,1.38-2.971-1.676-4.248c0,0,2.266-3.298-1.532-5.704S104.35,199.726,102.879,202.267z"/>
					<g>
						<g>
							<g>
								<g>
									<path fill="#698E2D" d="M115.714,217.106c0,0,0.085-0.059,0.244-0.167c0.164-0.099,0.384-0.271,0.646-0.5
										c0.517-0.458,1.152-1.256,1.422-2.347c0.138-0.54,0.163-1.147,0.06-1.753c-0.052-0.302-0.137-0.608-0.278-0.889
										c-0.055-0.144-0.149-0.289-0.238-0.436l-0.067-0.111l-0.154-0.214l-0.31-0.436c-0.011-0.036-0.086-0.076-0.045-0.108
										l0.087-0.101l0.175-0.202l0.177-0.205c0.057-0.066,0.136-0.151,0.125-0.164c0.025-0.125,0.125-0.216,0.118-0.352
										c0.045-0.25,0.016-0.519-0.096-0.774c-0.166-0.542-0.746-0.988-1.33-1.364c-0.577-0.293-1.153-0.586-1.734-0.877
										c0.299-0.364,0.598-0.73,0.837-1.093l0.109-0.189c0.021-0.04,0.047-0.079,0.064-0.12l0.114-0.246
										c0.248-0.626,0.344-1.26,0.168-1.833c-0.165-0.573-0.558-1.082-1.013-1.517c-0.474-0.437-1.027-0.698-1.514-1.011
										c-1.058-0.454-2.038-0.688-2.737-0.787c-0.71-0.085-1.116-0.133-1.116-0.133s0.409-0.061,1.124-0.166
										c0.722-0.065,1.783-0.057,3.039,0.288c0.599,0.247,1.286,0.482,1.899,0.945c0.613,0.454,1.243,1.089,1.554,1.979
										c0.337,0.882,0.253,1.91-0.093,2.767l-0.15,0.338l-0.131,0.254c0.002-0.001,0,0.005-0.003,0.006l0.026,0.006
										c0.007,0.002,0.003-0.001,0.017,0.005l0.283,0.141c0.381,0.251,0.762,0.535,1.101,0.867l0.464,0.576
										c0.146,0.197,0.23,0.46,0.337,0.689c0.171,0.485,0.208,1.045,0.074,1.558c-0.033,0.263-0.203,0.494-0.311,0.729
										c-0.042,0.081-0.037,0.063-0.043,0.068l-0.015,0.011c-0.006,0.008-0.031,0.016-0.024,0.026l0.013,0.031l0.007,0.019
										l0.066,0.136c0.089,0.184,0.18,0.361,0.24,0.569c0.146,0.396,0.21,0.803,0.242,1.193c0.064,0.786-0.094,1.521-0.344,2.136
										c-0.509,1.248-1.398,1.97-2.034,2.317c-0.326,0.176-0.586,0.288-0.774,0.344
										C115.812,217.073,115.714,217.106,115.714,217.106z"/>
								</g>
							</g>
						</g>
					</g>
				</g>
				<g>
					<path fill="#68C14C" d="M124.135,202.52c0,0-2.272-10.027-10.429-10.563c-8.155-0.535-8.289,9.121-2.807,13.117
						c5.48,3.995,7.152-2.221,6.072-5.541C116.972,199.533,119.856,207.332,124.135,202.52z"/>
					<g>
						<g>
							<g>
								<g>
									<path fill="#698E2D" d="M107.323,199.537c0,0,0.186,0.346,0.506,0.941c0.333,0.588,0.818,1.422,1.479,2.34
										c0.327,0.463,0.726,0.92,1.148,1.383c0.449,0.426,0.938,0.872,1.499,1.144c0.554,0.271,1.155,0.465,1.758,0.34
										c0.593-0.044,1.081-0.338,1.488-0.824c0.408-0.486,0.709-1.128,0.926-1.792c0.214-0.664,0.381-1.369,0.47-2.026
										l0.004-0.036l0.334-2.843l0.923,2.664c0.215,0.62,0.474,1.251,0.727,1.822c0.269,0.585,0.549,1.126,0.833,1.606
										c0.571,0.964,1.183,1.676,1.718,2.058c0.529,0.394,0.936,0.462,0.926,0.484c0.008-0.026-0.398,0.028-1.07-0.224
										c-0.663-0.259-1.509-0.882-2.27-1.82c-0.394-0.46-0.771-0.995-1.118-1.588c-0.349-0.58-0.677-1.189-0.966-1.895
										c0.384-0.055,0.821-0.117,1.257-0.18l-0.003,0.059c-0.051,0.785-0.169,1.56-0.417,2.347
										c-0.247,0.781-0.586,1.579-1.164,2.294c-0.577,0.701-1.529,1.249-2.464,1.287c-0.923,0.114-1.821-0.224-2.52-0.634
										c-0.731-0.41-1.214-1.015-1.676-1.544c-0.429-0.56-0.767-1.122-1.039-1.654c-0.549-1.063-0.855-2.002-1.043-2.661
										C107.385,199.924,107.323,199.537,107.323,199.537z"/>
								</g>
							</g>
						</g>
					</g>
				</g>
			</g>
		</g>
		<g>
			<g>
				<path fill="#881E80" d="M163.843,281.802c0,0-11.632,1.403-13.838,3.409c-2.206,2.005-1.085,7.175,1.604,8.623
					c5.215,2.808,22.531-1.805,24.101-3.409c1.568-1.604,0.939-7.811-0.852-9.82C173.068,278.593,163.843,281.802,163.843,281.802z"
					/>
				<path fill="#E44B10" d="M154.818,251.72c0,0,3.208,21.058,9.024,30.082c0,0-7.621,1.403-7.22,3.409
					c0.4,2.005,15.922,0.2,18.59-3.811c0,0-4.272-7.841,0-23.273C179.485,242.695,154.818,251.72,154.818,251.72z"/>
			</g>
			<g>
				<path fill="#881E80" d="M217.789,284.007c0,0,3.819,5.015,5.82,12.635c2.001,7.621,0.531,10.629-3.802,11.833
					c-1.739,0.482-9.012-3.209-11.832-11.432c-2.821-8.222,1.228-14.841,1.228-14.841L217.789,284.007z"/>
				<path fill="#E44B10" d="M196.143,254.126c0,0,7.007,22.959,11.819,33.038c0,0,4.413,8.073,8.624,7.874
					c4.211-0.201,2.767-10.028,2.767-10.028s0.839-26.472,0.239-32.087S196.143,254.126,196.143,254.126z"/>
			</g>
		</g>
		<g>
			<path fill="#E9E9E9" d="M219.561,277.411c0.044-1.81,0.089-3.823,0.128-5.903c-4.828,2.774-11.146,2.726-17.329,1.485
				c0.82,2.318,1.667,4.632,2.505,6.809C209.857,280.031,214.899,279.215,219.561,277.411z"/>
			<path fill="#E9E9E9" d="M213.31,288.475c-1.733-0.092-3.45-0.41-5.114-0.905c0.958,1.628,4.748,7.642,8.391,7.469
				c2.781-0.133,3.096-4.464,2.988-7.39C217.586,288.382,215.428,288.588,213.31,288.475z"/>
		</g>
		<g>
			<path fill="#E9E9E9" d="M169.351,276.549c1.444-0.193,2.881-0.527,4.259-1.01c-0.213-1.557-0.337-3.429-0.276-5.601
				c-2.528,0.695-5.08,1.33-7.69,1.536c-2.162,0.171-4.383,0.026-6.452-0.593c0.623,2.007,1.312,3.973,2.061,5.788
				C163.955,276.84,166.669,276.906,169.351,276.549z"/>
			<path fill="#E9E9E9" d="M163.701,281.57c0.047,0.075,0.094,0.156,0.142,0.231c0,0-7.621,1.403-7.22,3.409
				c0.4,2.005,15.922,0.2,18.59-3.811c0,0-0.16-0.297-0.387-0.88C171.217,281.522,167.432,281.889,163.701,281.57z"/>
		</g>
		<path fill="none" stroke="#F29C04" stroke-miterlimit="10" d="M163.843,183.668c0,0,2.406,4.813,8.557,3.609
			c6.149-1.203,9.76-8.489,9.626-10.662C181.892,174.443,163.843,183.668,163.843,183.668z"/>
		<g>
			<path fill="#653F6D" d="M182.028,174.042c0,0,8.42-1.872,16.977,6.952c8.557,8.823,14.172,15.108,17.247,29.814
				c0,0,23.263,14.438,30.884,32.354c0,0-3.877,1.337-7.888,0.669c0,0,1.203,12.567-4.145,19.118c0,0-9.493-2.005-13.904-5.348
				c0,0-5.482,12.033-10.028,15.91c0,0-10.428-5.616-14.841-12.167c0,0-5.214,7.755-8.689,10.562c0,0-7.086-5.08-10.429-10.294
				c0,0-8.689,7.754-13.369,9.626c0,0-5.883-5.481-9.359-11.632c0,0-4.01,3.343-7.754,5.081c0,0-9.879-27.81,19.795-48.532
				c0,0,1.848-4.011-1.353-10.428c-3.201-6.418-8.683-17.247-5.206-22.596C163.441,177.785,174.813,174.175,182.028,174.042z"/>
			<path fill="#7EA23B" d="M163.758,179.603c0,0-2.895,7.138,4.001,9.146c7.464,2.174,20.204-6.871,17.271-13.235
				C181.471,167.788,166.423,175.492,163.758,179.603z"/>
			<g>
				<path fill="#1D1E1C" d="M166.524,210.675c0,0,22.628,7.249,48.277-5.601c0,0,4.756,6.114,6.397,9.611
					c0,0-21.786,11.466-39.171,9.009c-17.383-2.458-17.54-6.056-17.54-6.056S164.903,213.394,166.524,210.675z"/>
				<path fill="#FFD802" d="M171.463,210.056c0.675-0.796,15.108-0.267,16.044,0.803c0.937,1.069,0.4,13.236-1.337,14.573
					s-15.545-1.113-16.712-2.808S169.993,211.795,171.463,210.056z M172.616,220.938c0.76,1.103,9.508,2.225,10.879,1.827
					c1.181-0.344,1.539-8.149,0.87-9.486c-0.414-0.827-10.004-1.041-10.442-0.521C172.965,213.889,171.857,219.835,172.616,220.938z
					"/>
				<path fill="#FFD802" d="M171.73,216.721c0.552-3.351,5.349-1.232,5.214,0.572C176.812,219.098,171.33,219.157,171.73,216.721z"
					/>
			</g>
		</g>
		<g>
			<g>
				<path fill="#1D1E1C" d="M189.945,170.499c0,0,2.406,4.211,6.818,4.312s5.415-3.309,5.415-3.309s3.81,1.707,6.618,1.154
					c2.808-0.552,2.606-5.06,2.606-5.06s3.409,0.697,4.412-3.314c0,0,6.818-3.208,2.808-9.225c0,0,4.412-0.195,3.61-3.808
					c0,0,5.81-5.403,0.098-8.819c2.309-5.021,0.504-7.962-3.908-8.698c1.403-5.548-1.806-8.958-5.014-8.156
					c0.4-8.021-1.204-8.322-5.215-8.172c-0.802-5.265-5.815-6.869-7.821-5.866c0,0-2.606-8.824-12.032-5.616
					c0,0-5.215-7.621-12.835-3.409c0,0-6.712-9.827-14.787-5.013c0,0-7.674-4.613-11.284,1.203c0,0-5.214-3.409-10.228,2.808
					c0,0-7.208-1.002-8.216,4.412c0,0-9.031-1.002-7.427,5.616c0,0-5.013,2.808-2.006,7.821c0,0-7.737,4.813-0.961,10.428
					c0,0-3.45,5.147-0.643,6.685c0,0-2.876,3.813,1.203,5.33c0,0-3.609,6.241,3.409,9.446L189.945,170.499z"/>
				<path fill="#68C14C" d="M129.276,118.93c0,0-0.898,15.069-3.305,22.289c-2.407,7.22-8.223,18.908,3.408,32.517
					c11.632,13.609,48.332,18.311,63.173-4.897c0,0,12.232,5.47,16.846-5.961c4.612-11.431-7.22-14.439-13.839-8.824
					c0,0-5.213-3.19-2.405-8.514c0,0-8.624-2.115-4.012-8.332c0,0-5.615,0.401-4.612-4.813c0,0-7.02-1.314-6.017-6.473
					c0,0-10.026,2.313-9.225-5.635c0,0-7.02,4.661-9.626-1.744c0,0-9.226,5.729-11.231-1.14c0,0-5.213,5.94-8.823,1.14
					C139.608,118.544,132.284,124.796,129.276,118.93z"/>
				<g>
					<g>
						<g>
							<g>
								<g>
									<path fill="#698E2D" d="M141.225,147.837c-0.026-0.013,0.107,0.431-0.264,1.144c-0.192,0.339-0.504,0.724-0.95,1.055
										c-0.224,0.159-0.476,0.316-0.76,0.452c-0.272,0.12-0.562,0.233-0.866,0.347c-0.58,0.199-1.214,0.393-1.716,0.618
										c-0.541,0.201-0.889,0.567-1.284,0.946c-0.376,0.399-0.633,0.922-0.813,1.448c-0.168,0.535-0.204,1.086-0.132,1.599
										c0.095,0.523,0.311,1.037,0.634,1.506c0.362,0.439,0.756,0.872,1.233,1.199c0.493,0.285,0.974,0.561,1.521,0.684
										c0.536,0.149,1.084,0.176,1.612,0.203c1.047-0.03,1.988-0.252,2.625-0.49c0.34-0.087,0.58-0.216,0.759-0.285
										c0.177-0.077,0.271-0.117,0.271-0.117s-0.06,0.083-0.172,0.237c-0.118,0.15-0.272,0.403-0.531,0.664
										c-0.497,0.541-1.352,1.246-2.637,1.674c-0.641,0.201-1.385,0.364-2.196,0.316c-0.813,0.018-1.697-0.229-2.516-0.612
										c-0.818-0.401-1.593-0.983-2.215-1.75c-0.596-0.789-1.048-1.733-1.25-2.769c-0.125-1.06,0.019-2.106,0.373-3.042
										c0.42-0.904,0.983-1.708,1.705-2.314c0.704-0.6,1.611-1.002,2.391-1.137c0.794-0.183,1.442-0.146,2.022-0.181
										c0.557-0.039,1.044-0.05,1.449-0.167c0.414-0.108,0.752-0.273,1.019-0.449c0.256-0.182,0.437-0.38,0.536-0.533
										C141.171,147.924,141.225,147.837,141.225,147.837z"/>
								</g>
							</g>
						</g>
					</g>
					<g>
						<g>
							<g>
								<g>
									<g>
										<g>
											<path fill="#1D1E1C" d="M129.954,135.075c0,0,0.132-0.633,0.592-1.482c0.129-0.205,0.271-0.435,0.441-0.662
												c0.19-0.213,0.398-0.449,0.64-0.665c0.266-0.202,0.557-0.396,0.886-0.542c0.331-0.136,0.69-0.239,1.071-0.275
												c0.379-0.033,0.776,0.015,1.154,0.12c0.381,0.118,0.712,0.333,0.98,0.573c0.274,0.24,0.464,0.519,0.612,0.787
												c0.14,0.269,0.244,0.527,0.3,0.771c0.138,0.479,0.154,0.883,0.163,1.164c-0.01,0.284-0.015,0.445-0.015,0.445
												s-0.098-0.128-0.268-0.352c-0.166-0.225-0.394-0.536-0.649-0.884c-0.134-0.172-0.285-0.336-0.435-0.503
												c-0.167-0.149-0.334-0.292-0.511-0.406c-0.183-0.107-0.376-0.175-0.567-0.236c-0.201-0.042-0.416-0.067-0.643-0.036
												c-0.226,0.006-0.463,0.059-0.688,0.138c-0.234,0.061-0.456,0.164-0.666,0.275c-0.198,0.146-0.423,0.253-0.62,0.389
												c-0.183,0.158-0.381,0.287-0.558,0.421C130.493,134.691,129.954,135.075,129.954,135.075z"/>
										</g>
									</g>
								</g>
							</g>
							<g>
								<g>
									<g>
										<g>
											<path fill="#1D1E1C" d="M152.773,136.473c0,0,0.148,0.042,0.386,0.108c0.247,0.054,0.531,0.219,0.924,0.289
												c0.19,0.046,0.395,0.086,0.596,0.152c0.197,0.08,0.442,0.052,0.66,0.11c0.225,0.038,0.45,0.104,0.69,0.084
												c0.234,0.017,0.471,0.034,0.708,0.051c0.237-0.014,0.475-0.027,0.708-0.041c0.236,0.005,0.462-0.047,0.688-0.077
												c0.22-0.05,0.457-0.034,0.659-0.097c0.203-0.059,0.403-0.103,0.598-0.136c0.394-0.059,0.685-0.209,0.935-0.256
												c0.251-0.058,0.394-0.091,0.394-0.091s-0.079,0.121-0.216,0.332c-0.159,0.187-0.355,0.541-0.721,0.777
												c-0.173,0.136-0.372,0.273-0.59,0.409c-0.21,0.157-0.474,0.222-0.736,0.323c-0.265,0.091-0.538,0.215-0.837,0.221
												c-0.296,0.028-0.597,0.057-0.898,0.085c-0.3-0.039-0.6-0.077-0.895-0.115c-0.296-0.035-0.565-0.158-0.828-0.251
												c-0.26-0.104-0.514-0.193-0.724-0.344c-0.216-0.136-0.405-0.289-0.579-0.42c-0.359-0.246-0.55-0.597-0.706-0.784
												C152.842,136.596,152.773,136.473,152.773,136.473z"/>
										</g>
									</g>
								</g>
							</g>
						</g>
						<g>
							<g>
								<ellipse fill="#1D1E1C" cx="132.465" cy="143.549" rx="2.858" ry="3.51"/>
								<g>
									<g>
										<g>
											<g>
												<path fill="#1D1E1C" d="M130.991,141.783c0,0-0.063,0.044-0.185,0.094c-0.117,0.04-0.319,0.129-0.533,0.099
													c-0.108-0.011-0.236-0.018-0.361-0.054c-0.128-0.028-0.252-0.089-0.373-0.165c-0.119-0.078-0.253-0.151-0.355-0.268
													l-0.292-0.366l-0.167-0.438c-0.066-0.142-0.052-0.298-0.053-0.441c0.001-0.144-0.005-0.28,0.049-0.406
													c0.038-0.126,0.086-0.241,0.144-0.339c0.085-0.201,0.275-0.326,0.373-0.405c0.118-0.067,0.185-0.105,0.185-0.105
													s0.036,0.072,0.098,0.198c0.065,0.119,0.102,0.257,0.195,0.405c0.048,0.074,0.086,0.146,0.114,0.218
													c0.029,0.072,0.099,0.138,0.124,0.208c0.039,0.068,0.066,0.138,0.107,0.199c0.036,0.064,0.067,0.13,0.096,0.196
													c0.04,0.061,0.077,0.124,0.112,0.189c0.015,0.082,0.067,0.138,0.108,0.205c0.049,0.055,0.059,0.166,0.113,0.219
													c0.049,0.057,0.086,0.139,0.129,0.21C130.801,141.503,130.991,141.783,130.991,141.783z"/>
											</g>
										</g>
									</g>
								</g>
								<g>
									<g>
										<g>
											<g>
												<path fill="#1D1E1C" d="M132.012,140.771c0.012-0.009-0.28,0.134-0.649,0.017c-0.087-0.03-0.193-0.062-0.285-0.117
													c-0.083-0.058-0.184-0.114-0.26-0.197c-0.083-0.078-0.161-0.165-0.226-0.259c-0.056-0.1-0.118-0.201-0.168-0.307
													l-0.088-0.336c-0.037-0.108-0.02-0.229-0.013-0.339c0.004-0.111,0.014-0.215,0.055-0.317
													c0.032-0.101,0.074-0.194,0.125-0.274c0.075-0.162,0.232-0.28,0.322-0.347c0.107-0.06,0.168-0.094,0.168-0.094
													s0.045,0.057,0.124,0.156c0.069,0.09,0.161,0.208,0.242,0.315c0.052,0.058,0.094,0.115,0.126,0.172
													c0.04,0.057,0.095,0.117,0.122,0.177c0.037,0.06,0.068,0.119,0.096,0.182l0.076,0.189l0.063,0.192
													c0.004,0.074,0.018,0.141,0.039,0.202c0.022,0.059,0.011,0.145,0.023,0.212c0.018,0.058,0.017,0.135,0.026,0.204
													c0.009,0.15,0.036,0.266,0.052,0.381C131.999,140.693,132.012,140.771,132.012,140.771z"/>
											</g>
										</g>
									</g>
								</g>
							</g>
							<g>
								<ellipse fill="#1D1E1C" cx="156.689" cy="144.578" rx="3.062" ry="3.76"/>
								<g>
									<g>
										<g>
											<g>
												<path fill="#1D1E1C" d="M154.849,143.635c0.012-0.021-0.099,0.375-0.584,0.567c-0.113,0.042-0.247,0.104-0.382,0.108
													c-0.136,0.012-0.292,0.048-0.443,0.013c-0.153-0.018-0.313-0.049-0.478-0.112c-0.158-0.057-0.318-0.165-0.475-0.278
													c-0.145-0.115-0.282-0.323-0.386-0.477c-0.071-0.129-0.113-0.274-0.148-0.417c-0.039-0.144-0.062-0.288-0.054-0.438
													c-0.008-0.141,0.017-0.287,0.054-0.411c0.069-0.258,0.219-0.438,0.336-0.529c0.137-0.086,0.207-0.114,0.207-0.114
													s0.023,0.089,0.077,0.207c0.049,0.118,0.142,0.251,0.233,0.371c0.061,0.063,0.107,0.121,0.164,0.188
													c0.055,0.061,0.124,0.129,0.174,0.203c0.059,0.073,0.131,0.144,0.182,0.23c0.054,0.035,0.045,0.054,0.105,0.087
													c0.044,0.039,0.08,0.091,0.155,0.125c0.054,0.059,0.123,0.107,0.2,0.147c0.072,0.046,0.145,0.104,0.222,0.147
													c0.07,0.042,0.153,0.091,0.225,0.134C154.512,143.561,154.835,143.638,154.849,143.635z"/>
											</g>
										</g>
									</g>
								</g>
								<g>
									<g>
										<g>
											<g>
												<path fill="#1D1E1C" d="M155.637,142.533c0,0-0.053,0.058-0.158,0.136c-0.096,0.09-0.271,0.161-0.55,0.138
													c-0.117-0.021-0.224-0.066-0.345-0.128c-0.111-0.062-0.284-0.127-0.342-0.202c-0.083-0.076-0.167-0.154-0.254-0.233
													l-0.228-0.271c-0.07-0.122-0.146-0.293-0.206-0.438c-0.059-0.152-0.045-0.327-0.047-0.478
													c-0.011-0.162,0.053-0.257,0.093-0.374c0.041-0.106,0.083-0.215,0.149-0.288c0.112-0.154,0.244-0.271,0.341-0.35
													c0.109-0.075,0.171-0.118,0.171-0.118s0.045,0.062,0.123,0.17c0.067,0.104,0.155,0.249,0.214,0.408
													c0.035,0.084,0.083,0.149,0.11,0.224c0.044,0.064,0.054,0.164,0.093,0.197c0.042,0.042,0.06,0.079,0.08,0.119
													c0.037,0.041,0.044,0.065,0.085,0.124l0.145,0.24c0.037,0.09,0.072,0.178,0.107,0.263
													c0.046,0.099,0.031,0.147,0.051,0.21c0.017,0.054,0.026,0.144,0.042,0.204c0.016,0.099,0.099,0.231,0.191,0.304
													C155.582,142.475,155.637,142.533,155.637,142.533z"/>
											</g>
										</g>
									</g>
								</g>
							</g>
						</g>
					</g>
					<g>
						<path fill="#881A1A" d="M141.012,163.68c0,0,27.476-4.412,36.499-8.624c0,0-1.203,18.451-16.243,22.261
							C146.227,181.127,141.012,163.68,141.012,163.68z"/>
						<g>
							<path fill="#EF8285" d="M162.829,165.75c-2.836,3.229-4.137,7.7-3.664,11.96c0.681-0.09,1.376-0.21,2.103-0.394
								c9.622-2.438,13.576-10.862,15.18-16.619C171.459,160.048,166.158,161.959,162.829,165.75z"/>
						</g>
					</g>
					<circle fill="#54762B" cx="134.495" cy="174.811" r="1.805"/>
					<g>
						<g>
							<g>
								<g>
									<path fill="#698E2D" d="M175.719,152.788c0,0,0.089,0.108,0.23,0.28c0.157,0.167,0.271,0.43,0.527,0.674
										c0.116,0.127,0.247,0.256,0.357,0.403c0.101,0.153,0.298,0.253,0.424,0.402c0.143,0.139,0.271,0.296,0.456,0.403
										c0.159,0.129,0.321,0.261,0.483,0.394c0.176,0.113,0.352,0.226,0.523,0.337c0.167,0.125,0.35,0.208,0.523,0.306
										c0.179,0.079,0.337,0.218,0.51,0.28c0.171,0.064,0.334,0.139,0.488,0.221c0.308,0.171,0.592,0.21,0.798,0.313
										c0.214,0.093,0.336,0.146,0.336,0.146s-0.117,0.056-0.322,0.153c-0.209,0.065-0.537,0.248-0.931,0.237
										c-0.198,0.015-0.418,0.017-0.65,0.004c-0.238,0.008-0.465-0.081-0.71-0.145c-0.242-0.071-0.508-0.125-0.728-0.276
										c-0.229-0.134-0.463-0.271-0.696-0.407c-0.198-0.184-0.396-0.368-0.592-0.549c-0.195-0.18-0.33-0.411-0.473-0.618
										c-0.136-0.213-0.271-0.412-0.344-0.635c-0.084-0.216-0.137-0.43-0.19-0.619c-0.127-0.371-0.057-0.734-0.061-0.952
										C175.694,152.912,175.719,152.788,175.719,152.788z"/>
								</g>
							</g>
						</g>
					</g>
					<g>
						<g>
							<g>
								<g>
									<path fill="#698E2D" d="M204.026,163.23c0,0,0.083-0.083,0.237-0.237c0.075-0.076,0.168-0.169,0.276-0.278
										c0.087-0.127,0.187-0.273,0.298-0.436c0.396-0.654,0.79-1.78,0.487-3.017c-0.043-0.313-0.203-0.598-0.325-0.898
										c-0.19-0.272-0.358-0.563-0.618-0.802c-0.485-0.498-1.146-0.869-1.868-1.082c-0.728-0.216-1.517-0.209-2.25,0.034
										c-0.741,0.225-1.435,0.678-1.974,1.271c-0.139,0.121-0.238,0.275-0.351,0.418l-0.169,0.218
										c-0.009,0.01-0.019,0.02-0.011,0.02l-0.005,0.006l0.022,0.001l0.225,0.01c0.138-0.003,0.267,0.028,0.395,0.064
										c0.254,0.073,0.517,0.121,0.753,0.223c0.229,0.116,0.457,0.231,0.684,0.346c0.855,0.539,1.49,1.348,1.783,2.236
										c0.317,0.907,0.124,1.826-0.163,2.535c-0.696,1.419-1.91,2.041-2.721,2.205c-0.211,0.03-0.393,0.075-0.555,0.079
										c-0.161-0.014-0.299-0.025-0.41-0.034c-0.218-0.019-0.333-0.029-0.333-0.029s0.115-0.017,0.332-0.049
										c0.105-0.016,0.234-0.035,0.388-0.058c0.147-0.039,0.309-0.123,0.488-0.193c0.701-0.297,1.611-1.057,2.013-2.231
										c0.129-0.592,0.195-1.244-0.082-1.848c-0.277-0.593-0.767-1.125-1.397-1.49L198.674,160
										c-0.17-0.063-0.354-0.076-0.528-0.122c-0.088-0.024-0.177-0.043-0.266-0.031l-0.134,0.002l-0.353,0.05
										c-0.491,0.053-0.978,0.166-1.462,0.285l-0.521,0.122c0.257-0.646,0.531-1.455,0.896-2.133l0.26-0.532l0.212-0.292
										c0.144-0.189,0.276-0.388,0.45-0.551c0.718-0.76,1.634-1.342,2.643-1.627c1.013-0.28,2.099-0.225,3.02,0.102
										c0.933,0.314,1.717,0.897,2.286,1.582c0.304,0.332,0.494,0.733,0.682,1.106c0.123,0.405,0.26,0.788,0.271,1.174
										c0.168,1.545-0.518,2.711-1.07,3.313c-0.15,0.145-0.285,0.274-0.402,0.387c-0.133,0.093-0.254,0.162-0.346,0.221
										C204.126,163.17,204.026,163.23,204.026,163.23z"/>
								</g>
							</g>
						</g>
					</g>
				</g>
			</g>
			<g>
				<g>
					<circle fill="#1D1E1C" cx="229.5" cy="91.472" r="13.439"/>
					<path fill="#1D1E1C" d="M223.061,81.254c0,0,1.505-6.708,4.229-9.941l4.603,9.941H223.061z"/>
					<path fill="#1D1E1C" d="M236.679,82.174c0,0,7.732-2.577,9.941-3.129c0,0-0.552,6.842-4.971,11.337L236.679,82.174z"/>
					<path fill="#676965" d="M228.579,93.279c0.185-0.98,5.155-0.186,4.787,1.258C232.997,95.981,228.396,94.26,228.579,93.279z"/>
					<circle fill="#FFD802" cx="225.45" cy="88.606" r="2.027"/>
					<circle fill="#FFD802" cx="238.706" cy="93.279" r="2.027"/>
					<g>
						<g>
							<g>
								<g>
									<path fill="#676965" d="M230.956,94.657c0,0-0.02,0.177-0.088,0.504c-0.043,0.346-0.231,0.778-0.509,1.282
										c-0.141,0.243-0.291,0.493-0.468,0.75c-0.178,0.256-0.306,0.525-0.491,0.781c-0.059,0.102-0.263,0.35-0.408,0.516
										c-0.172,0.162-0.376,0.303-0.581,0.424c-0.43,0.193-0.889,0.303-1.329,0.304c-0.443,0.001-0.871-0.075-1.266-0.209
										c-0.406-0.121-0.748-0.32-1.084-0.564c-0.346-0.249-0.606-0.563-0.783-0.888c-0.194-0.316-0.295-0.654-0.35-0.961
										c-0.128-0.624,0.064-1.146,0.2-1.447c0.201-0.292,0.318-0.424,0.318-0.424s-0.024,0.199-0.029,0.496
										c0.037,0.307,0.088,0.709,0.326,1.114c0.125,0.195,0.258,0.398,0.435,0.575c0.175,0.177,0.381,0.331,0.597,0.448
										c0.226,0.115,0.517,0.227,0.786,0.299c0.272,0.086,0.564,0.124,0.835,0.112c0.277,0.017,0.527-0.045,0.747-0.122
										c0.1-0.046,0.199-0.093,0.289-0.149c0.081-0.096,0.127-0.083,0.264-0.254c0.232-0.269,0.488-0.524,0.709-0.737
										c0.218-0.214,0.455-0.398,0.648-0.577c0.374-0.352,0.716-0.641,0.892-0.891C230.828,94.801,230.956,94.657,230.956,94.657z
										"/>
								</g>
							</g>
						</g>
					</g>
					<g>
						<g>
							<g>
								<g>
									<path fill="#676965" d="M229.097,97.638c0,0,0.065,0.12,0.167,0.309c0.099,0.186,0.252,0.438,0.455,0.688
										c0.088,0.133,0.22,0.25,0.335,0.381c0.105,0.138,0.277,0.23,0.396,0.362c0.149,0.104,0.287,0.227,0.458,0.301
										c0.146,0.112,0.321,0.163,0.482,0.242c0.172,0.05,0.335,0.129,0.519,0.145c0.176,0.042,0.357,0.053,0.537,0.083
										c0.177-0.011,0.361,0.021,0.533,0.004c0.172-0.013,0.344-0.02,0.501-0.047c0.318-0.043,0.604-0.115,0.805-0.182
										c0.216-0.067,0.339-0.104,0.339-0.104s-0.053,0.121-0.146,0.332c-0.106,0.206-0.308,0.494-0.641,0.732
										c-0.157,0.14-0.354,0.247-0.575,0.342c-0.215,0.116-0.467,0.167-0.727,0.222c-0.264,0.027-0.545,0.074-0.828,0.021
										c-0.286-0.019-0.566-0.116-0.85-0.197c-0.261-0.137-0.532-0.259-0.751-0.443c-0.231-0.171-0.406-0.389-0.583-0.586
										c-0.154-0.215-0.286-0.435-0.374-0.658c-0.1-0.217-0.158-0.434-0.187-0.639c-0.079-0.399-0.037-0.744,0.022-0.965
										C229.047,97.754,229.097,97.638,229.097,97.638z"/>
								</g>
							</g>
						</g>
					</g>
					<path fill="#1D1E1C" d="M219.927,98.361c0,0-6.007,10.297-10.09,23.761c-4.084,13.464,17.574,11.291,22.761,10.248
						c0,0,1.44-17.243,0-29.209L219.927,98.361z"/>
				</g>
				<g>
					<g>
						<path fill="#653F6D" d="M104.112,106.926c0,0,14.238,20.723,40.51,26.806s38.504,3.726,53.345,3.501
							c14.84-0.225,29.079,1.19,39.508-1.924c0,0-8.223-5.462-15.442-12.912c-7.22-7.449-11.594-15.471-11.594-15.471
							s2.043-4.011,0-5.214c-2.043-1.203-6.455,0-6.455,0s-44.722-2.807-54.748-8.021c0,0-5.292-3.114-6.142,1.003
							c0,0-9.301,4.412-19.128,7.621C114.139,105.522,104.112,106.926,104.112,106.926z"/>
						<path fill="#653F6D" d="M153.966,83.863c0,0-1.888-5.013,0-6.618c1.887-1.604,2.78,0,2.78,0s10.137-19.052,18.559-23.264
							c8.424-4.211,32.689-10.428,44.923-14.038c12.233-3.61,21.058-4.011,27.876,1.404c6.818,5.415,6.016,18.851,0,22.862
							c-6.017,4.011-17.047,5.415-16.847-6.016c0,0,6.418,6.417,10.429,0.2c4.011-6.217-6.217-9.826-13.236-4.612
							c-7.019,5.214-14.438,12.635-15.04,15.843c-0.603,3.208,0.4,5.415-1.605,7.22c-2.004,1.805-5.213,4.011-5.213,4.011
							s3.408,2.005,2.405,4.813c-1.002,2.808-5.973,6.894-5.973,6.894S165.915,97.299,153.966,83.863z"/>
						<g>
							<g>
								<g>
									<g>
										<path fill="#3D1F44" d="M205.958,81.327c0,0-0.899,0.662-2.338,1.491c-0.359,0.207-0.746,0.438-1.167,0.659
											c-0.42,0.221-0.855,0.474-1.321,0.7c-0.464,0.231-0.943,0.47-1.431,0.713c-0.493,0.229-0.994,0.462-1.495,0.695
											c-0.52,0.188-1.039,0.376-1.551,0.561c-0.51,0.189-1.021,0.348-1.516,0.505c-0.491,0.164-0.973,0.306-1.432,0.432
											c-0.455,0.135-0.89,0.252-1.294,0.349c-0.804,0.209-1.484,0.346-1.963,0.436c-0.481,0.079-0.756,0.124-0.756,0.124
											s0.24-0.147,0.659-0.405c0.423-0.248,1.028-0.591,1.77-0.959c0.367-0.192,0.77-0.387,1.198-0.583
											c0.427-0.204,0.879-0.41,1.353-0.607c0.471-0.203,0.956-0.417,1.46-0.606c0.502-0.194,1.012-0.391,1.521-0.587
											c0.502-0.216,1.005-0.431,1.499-0.643c0.501-0.199,0.993-0.394,1.47-0.583c0.475-0.194,0.949-0.348,1.392-0.512
											c0.441-0.166,0.87-0.297,1.263-0.428C204.851,81.563,205.958,81.327,205.958,81.327z"/>
									</g>
								</g>
							</g>
						</g>
						<g>
							<g>
								<g>
									<g>
										<path fill="#3D1F44" d="M208.69,106.906c0,0-1.64,0.685-4.161,1.538c-0.63,0.212-1.312,0.45-2.039,0.676
											c-0.726,0.235-1.502,0.441-2.306,0.651c-0.805,0.208-1.636,0.421-2.48,0.639c-0.849,0.203-1.711,0.41-2.573,0.617
											c-0.871,0.162-1.743,0.323-2.601,0.482c-0.857,0.163-1.706,0.295-2.526,0.427c-0.82,0.13-1.61,0.273-2.371,0.339
											c-0.758,0.084-1.476,0.152-2.14,0.204c-1.325,0.119-2.434,0.179-3.21,0.215c-0.777,0.024-1.221,0.038-1.221,0.038
											s0.429-0.121,1.179-0.333c0.751-0.201,1.824-0.479,3.117-0.765c0.645-0.152,1.346-0.303,2.088-0.451
											s1.515-0.359,2.323-0.526c0.806-0.18,1.637-0.371,2.487-0.536c0.85-0.169,1.712-0.341,2.575-0.512
											c0.859-0.189,1.719-0.378,2.564-0.564c0.85-0.172,1.686-0.341,2.494-0.504c0.807-0.177,1.604-0.278,2.339-0.454
											c0.738-0.167,1.443-0.3,2.093-0.432C206.918,107.136,208.69,106.906,208.69,106.906z"/>
									</g>
								</g>
							</g>
						</g>
						<g>
							<g>
								<g>
									<g>
										<path fill="#3D1F44" d="M205.725,110.827c0,0-0.422,0.548-1.154,1.214c-0.184,0.165-0.378,0.352-0.598,0.527
											s-0.439,0.378-0.688,0.555c-0.246,0.181-0.5,0.369-0.758,0.56c-0.266,0.178-0.536,0.359-0.806,0.54
											c-0.277,0.169-0.556,0.338-0.828,0.504c-0.271,0.17-0.554,0.313-0.824,0.455c-0.268,0.147-0.535,0.275-0.794,0.389
											c-0.254,0.122-0.499,0.227-0.732,0.314c-0.457,0.189-0.859,0.313-1.145,0.395c-0.291,0.072-0.457,0.113-0.457,0.113
											s0.108-0.133,0.298-0.365c0.195-0.223,0.479-0.533,0.846-0.866c0.179-0.173,0.379-0.351,0.597-0.528
											c0.214-0.186,0.444-0.372,0.691-0.551c0.243-0.185,0.493-0.378,0.763-0.551c0.267-0.176,0.538-0.355,0.81-0.534
											c0.279-0.167,0.558-0.333,0.833-0.498c0.282-0.152,0.561-0.301,0.829-0.446c0.266-0.149,0.543-0.262,0.796-0.385
											c0.251-0.125,0.503-0.221,0.731-0.316C205.049,110.974,205.725,110.827,205.725,110.827z"/>
									</g>
								</g>
							</g>
						</g>
						<g>
							<g>
								<g>
									<g>
										<path fill="#3D1F44" d="M157.062,78.222c0,0,0.596,0.101,1.342,0.378c0.187,0.071,0.391,0.139,0.592,0.233
											c0.196,0.104,0.449,0.126,0.671,0.221c0.228,0.081,0.463,0.164,0.702,0.248c0.232,0.098,0.467,0.197,0.703,0.297
											c0.243,0.078,0.486,0.156,0.726,0.233c0.241,0.074,0.469,0.174,0.694,0.268c0.228,0.078,0.436,0.21,0.649,0.273
											c0.213,0.065,0.413,0.138,0.598,0.217c0.372,0.142,0.684,0.301,0.905,0.418c0.222,0.13,0.349,0.204,0.349,0.204
											s-0.138,0.034-0.38,0.093c-0.243,0.048-0.594,0.106-1.017,0.128c-0.213,0.02-0.444,0.027-0.687,0.023
											c-0.247,0.016-0.491-0.053-0.749-0.1c-0.257-0.05-0.526-0.099-0.792-0.177c-0.266-0.075-0.537-0.15-0.808-0.226
											c-0.252-0.125-0.504-0.249-0.752-0.371c-0.24-0.135-0.477-0.269-0.707-0.398c-0.226-0.132-0.445-0.258-0.625-0.423
											c-0.187-0.154-0.349-0.322-0.5-0.469C157.368,78.7,157.062,78.222,157.062,78.222z"/>
									</g>
								</g>
							</g>
						</g>
						<g>
							<g>
								<g>
									<g>
										<path fill="#3D1F44" d="M144.426,95.14c0,0,0.635,0.358,1.425,0.993c0.197,0.16,0.416,0.326,0.627,0.519
											c0.205,0.199,0.48,0.352,0.711,0.559c0.241,0.198,0.489,0.402,0.742,0.61c0.242,0.218,0.487,0.439,0.733,0.661
											c0.255,0.21,0.511,0.42,0.762,0.627c0.254,0.204,0.486,0.427,0.714,0.641c0.236,0.203,0.436,0.438,0.655,0.623
											c0.219,0.184,0.42,0.368,0.601,0.548c0.37,0.347,0.66,0.671,0.862,0.905c0.197,0.245,0.31,0.384,0.31,0.384
											s-0.17-0.047-0.467-0.13c-0.292-0.093-0.708-0.236-1.185-0.449c-0.244-0.1-0.501-0.22-0.767-0.356
											c-0.276-0.122-0.528-0.309-0.797-0.489c-0.269-0.182-0.55-0.366-0.818-0.577c-0.27-0.208-0.545-0.419-0.82-0.63
											c-0.246-0.244-0.492-0.488-0.734-0.729c-0.231-0.25-0.458-0.497-0.679-0.736c-0.218-0.24-0.425-0.476-0.593-0.724
											c-0.176-0.242-0.321-0.488-0.461-0.708C144.689,95.795,144.426,95.14,144.426,95.14z"/>
									</g>
								</g>
							</g>
						</g>
					</g>
					<g>
						<path fill="#1D1E1C" d="M146.695,92.692c0,0,4.441-6.6,6.933-9.887c0,0,26.973,10.816,50.296,8.979
							c-0.066-0.274,2.248,7.573,2.198,10.462C206.122,102.246,169.626,108.94,146.695,92.692z"/>
						<path fill="#FFD802" d="M160.719,82.805c1.015-0.818,18.13,4.2,18.665,4.869c0.534,0.669-4.947,15.032-5.884,15.939
							c-0.935,0.906-19.887-4.024-20.373-6.313C152.64,95.01,158.633,84.488,160.719,82.805z M158.088,94.6
							c0.333,1.561,13.254,4.923,13.892,4.305c0.638-0.619,2.79-8.208,2.425-8.664c-0.364-0.456-12.033-3.877-12.725-3.319
							C160.257,88.068,157.757,93.039,158.088,94.6z"/>
						<path fill="#FFD802" d="M158.065,89.813c0.979-1.969,7.012,1.133,6.21,2.706C163.474,94.091,156.802,92.353,158.065,89.813z"
							/>
					</g>
				</g>
			</g>
		</g>
		<g>
			<g>
				<path fill="#68C14C" d="M203.416,196.103c0,0,8.427,3.818,10.163,5.385s0,4.869,0,4.869s-0.938-1.668-3.611-1.282
					s-3.343,1.99-3.343,1.99s-4.679,1.338-4.545,3.477c0.134,2.14,3.743,4.145,3.743,4.145s-2.808,2.508-2.006,3.861
					c0.803,1.354,3.744,1.486,3.744,1.486s-0.7,2.942,0.652,4.145c1.354,1.204,14.196-2.882,15.396-7.457
					c0,0,14.702-11.929,13.499-19.147c-1.203-7.221-18.316-17.648-26.873-18.184C201.679,178.855,199.474,194.235,203.416,196.103z"
					/>
				<g>
					<g>
						<g>
							<g>
								<path fill="#698E2D" d="M213.692,206.39c0,0,0.246,0.373,0.428,0.857c0.044,0.122,0.101,0.251,0.132,0.387
									c0.022,0.138,0.137,0.27,0.177,0.413c0.054,0.142,0.11,0.287,0.167,0.436l0.123,0.455l0.176,0.438
									c0.062,0.143,0.095,0.296,0.132,0.444c0.05,0.142,0.051,0.306,0.104,0.436c0.052,0.13,0.092,0.26,0.12,0.389
									c0.07,0.249,0.102,0.489,0.123,0.665c0.014,0.186,0.021,0.291,0.021,0.291s-0.093-0.038-0.254-0.104
									c-0.155-0.076-0.374-0.196-0.604-0.379c-0.122-0.086-0.245-0.189-0.366-0.308c-0.138-0.107-0.213-0.263-0.311-0.414
									c-0.095-0.153-0.198-0.312-0.275-0.484c-0.08-0.173-0.161-0.348-0.243-0.522c-0.035-0.19-0.069-0.38-0.104-0.567
									c-0.019-0.188-0.036-0.375-0.054-0.555c-0.014-0.179-0.025-0.351,0.01-0.517c0.024-0.166,0.075-0.322,0.112-0.463
									C213.463,206.718,213.692,206.39,213.692,206.39z"/>
							</g>
						</g>
					</g>
				</g>
				<g>
					<g>
						<g>
							<g>
								<path fill="#698E2D" d="M213.917,201.884c0,0,0.133,0.118,0.348,0.311c0.223,0.191,0.478,0.499,0.827,0.812
									c0.179,0.152,0.378,0.31,0.563,0.49c0.175,0.193,0.413,0.335,0.636,0.501c0.229,0.156,0.435,0.359,0.69,0.49
									c0.247,0.143,0.497,0.288,0.747,0.433c0.247,0.148,0.526,0.229,0.783,0.349c0.256,0.127,0.522,0.206,0.786,0.277
									c0.266,0.058,0.513,0.191,0.767,0.222c0.252,0.036,0.493,0.082,0.721,0.138c0.456,0.113,0.851,0.09,1.14,0.151
									c0.295,0.05,0.463,0.078,0.463,0.078s-0.149,0.078-0.409,0.215c-0.27,0.104-0.658,0.353-1.169,0.411
									c-0.254,0.048-0.535,0.085-0.835,0.111c-0.302,0.052-0.615-0.021-0.944-0.053c-0.33-0.035-0.676-0.071-0.995-0.219
									c-0.322-0.131-0.67-0.229-0.98-0.396c-0.296-0.193-0.593-0.386-0.884-0.575c-0.28-0.204-0.496-0.475-0.732-0.697
									c-0.239-0.224-0.432-0.473-0.582-0.73c-0.164-0.245-0.297-0.493-0.423-0.713c-0.238-0.449-0.326-0.879-0.412-1.156
									C213.945,202.048,213.917,201.884,213.917,201.884z"/>
							</g>
						</g>
					</g>
				</g>
			</g>
			<path fill="#7F4E89" d="M187.641,177.861c2.61-2.381,12.634-7.806,28.076,1.795c0,0-4.471,2.006-6.514,2.675
				c0,0,2.369,3.743,3.706,6.017l-6.284,2.674c0,0,1.546,3.342,2.578,4.813h-4.316c0,0,1.338,2.809,1.738,3.477
				c0,0-11.097-1.203-17.647-7.621C182.427,185.272,185.533,179.785,187.641,177.861z"/>
		</g>
	</g>
</g>
</svg>
