<?xml version="1.0" encoding="utf-8"?>
<!-- Generator: Adobe Illustrator 16.0.0, SVG Export Plug-In . SVG Version: 6.00 Build 0)  -->
<!DOCTYPE svg PUBLIC "-//W3C//DTD SVG 1.1//EN" "http://www.w3.org/Graphics/SVG/1.1/DTD/svg11.dtd">
<svg version="1.1" id="Layer_1" xmlns="http://www.w3.org/2000/svg" xmlns:xlink="http://www.w3.org/1999/xlink" x="0px" y="0px"
	 width="350px" height="350px" viewBox="0 0 350 350" enable-background="new 0 0 350 350" xml:space="preserve">
<g>
	<g>
		
			<path fill="#554B49" stroke="#443633" stroke-width="5" stroke-linecap="round" stroke-linejoin="round" stroke-miterlimit="10" d="
			M209.48,240.611h-68.964c-29.455,0-52.451-25.469-49.452-54.771l9.827-96.001c3.417-35.566,35.574-62.83,74.107-62.83l0,0
			c38.533,0,70.691,27.264,74.109,62.83l9.826,96.001C261.932,215.143,238.938,240.611,209.48,240.611z"/>
		<g>
			<g>
				<g>
					<path fill="#7CB1D0" d="M175,320.706c-9.124,0-89.129-0.574-89.129-20.484V278.37c0-18.616,5.685-36.451,16.44-51.579
						c2.218-3.107,4.59-6.036,7.051-8.706c0.322-0.349,0.652-0.704,0.982-1.047c0.983-1.039,2.062-2.118,3.38-3.377
						c0.446-0.422,0.883-0.832,1.332-1.23c1.27-1.158,2.622-2.319,3.994-3.428c0.657-0.521,1.259-1.001,1.874-1.469
						c0.11-0.088,0.246-0.193,0.411-0.313l0.153-0.115c0.401-0.301,0.813-0.609,1.233-0.909c1.841-1.349,3.811-2.659,5.994-3.99
						c1.07-0.659,2.226-1.324,3.523-2.028c4.562-2.507,9.421-4.638,14.432-6.325c0.771-0.256,1.545-0.5,2.32-0.733
						c0.071-0.029,0.144-0.056,0.218-0.078c1.096-0.327,2.192-0.629,3.301-0.92c0.356-0.099,0.744-0.192,1.144-0.285
						c0.3-0.082,0.678-0.169,1.057-0.257l0.47-0.109c6.453-1.473,13.114-2.218,19.822-2.218c6.699,0,13.357,0.745,19.789,2.212
						c1.949,0.437,3.973,0.969,5.998,1.579c0.977,0.291,1.791,0.552,2.555,0.817c8.123,2.712,15.816,6.604,22.836,11.556
						c0.656,0.453,1.322,0.94,1.977,1.419l0.162,0.119c1.918,1.453,3.602,2.813,5.174,4.184c0.77,0.668,1.527,1.351,2.273,2.046
						c0.711,0.665,1.422,1.351,2.113,2.038c0.051,0.043,0.1,0.088,0.146,0.135c0.447,0.446,0.881,0.893,1.314,1.352
						c3.004,3.129,5.773,6.471,8.227,9.923c0.043,0.052,0.084,0.104,0.123,0.159c10.756,15.128,16.441,32.963,16.441,51.579v21.852
						C264.129,320.132,184.123,320.706,175,320.706z"/>
					<g>
						<path fill="#443633" d="M175,191.538c6.623,0,13.074,0.739,19.279,2.155c1.982,0.442,3.928,0.96,5.848,1.539
							c0.826,0.246,1.65,0.505,2.463,0.787c8.002,2.672,15.5,6.488,22.271,11.265c0.713,0.492,1.416,1.01,2.105,1.515
							c1.723,1.305,3.396,2.646,5.021,4.063c0.752,0.653,1.49,1.317,2.217,1.995c0.738,0.689,1.477,1.402,2.191,2.117h0.012
							c0.432,0.431,0.85,0.861,1.27,1.305c2.941,3.066,5.674,6.353,8.137,9.837h0.012c10.084,14.183,16.018,31.529,16.018,50.255
							v21.852c0,12.134-43.422,18.199-86.843,18.199c-43.422,0-86.844-6.065-86.844-18.199V278.37
							c0-18.726,5.934-36.072,16.017-50.255c2.118-2.967,4.408-5.811,6.87-8.482c0.308-0.332,0.628-0.677,0.949-1.009
							c1.07-1.134,2.179-2.229,3.312-3.313c0.417-0.394,0.836-0.788,1.267-1.17c1.269-1.157,2.574-2.277,3.915-3.36
							c0.604-0.48,1.207-0.961,1.822-1.428c0.124-0.099,0.234-0.186,0.37-0.284c0.443-0.332,0.899-0.677,1.367-1.009
							c1.884-1.379,3.841-2.673,5.86-3.902c1.12-0.69,2.266-1.343,3.422-1.971c4.458-2.449,9.172-4.518,14.072-6.168
							c0.813-0.271,1.638-0.528,2.462-0.775v-0.012c1.071-0.32,2.143-0.616,3.225-0.899c0.358-0.098,0.714-0.185,1.083-0.271
							c0.505-0.136,1.022-0.246,1.539-0.369C161.913,192.277,168.365,191.538,175,191.538 M175,186.968
							c-6.877,0-13.71,0.765-20.309,2.27l-0.488,0.114c-0.384,0.088-0.766,0.177-1.142,0.276c-0.395,0.093-0.777,0.186-1.159,0.291
							c-1.213,0.317-2.309,0.623-3.351,0.934c-0.108,0.032-0.214,0.068-0.318,0.108c-0.791,0.239-1.557,0.481-2.281,0.724
							c-5.151,1.733-10.137,3.919-14.828,6.498c-1.311,0.712-2.502,1.396-3.616,2.083c-2.216,1.351-4.229,2.691-6.139,4.088
							c-0.438,0.313-0.868,0.634-1.286,0.948l-0.124,0.094c-0.167,0.121-0.31,0.231-0.462,0.353
							c-0.627,0.478-1.243,0.968-1.859,1.457c-1.421,1.147-2.801,2.332-4.124,3.539c-0.457,0.405-0.901,0.821-1.345,1.24
							c-1.368,1.308-2.472,2.412-3.5,3.499c-0.312,0.323-0.652,0.69-0.98,1.045c-2.535,2.749-4.966,5.752-7.236,8.932
							c-11.036,15.523-16.868,33.816-16.868,52.91v21.852c0,4.821,3.385,8.887,10.06,12.083c4.945,2.369,11.947,4.408,20.812,6.06
							c16.018,2.983,37.52,4.627,60.542,4.627s44.523-1.644,60.541-4.627c8.865-1.651,15.869-3.69,20.814-6.06
							c6.674-3.196,10.059-7.262,10.059-12.083V278.37c0-19.094-5.83-37.387-16.863-52.903c-0.057-0.081-0.117-0.159-0.18-0.236
							c-2.504-3.517-5.328-6.918-8.396-10.116c-0.424-0.448-0.873-0.911-1.334-1.373c-0.07-0.068-0.141-0.134-0.211-0.198
							c-0.693-0.689-1.402-1.37-2.107-2.028c-0.762-0.71-1.547-1.417-2.336-2.103c-1.605-1.398-3.328-2.792-5.262-4.257
							c-0.02-0.016-0.039-0.029-0.061-0.044l-0.189-0.141c-0.643-0.47-1.305-0.955-1.998-1.434
							c-7.189-5.069-15.066-9.054-23.412-11.844c-0.781-0.271-1.617-0.539-2.631-0.841c-2.068-0.624-4.146-1.17-6.156-1.62
							C188.699,187.732,181.869,186.968,175,186.968L175,186.968z"/>
					</g>
				</g>
				<g>
					<path fill="#FFECE8" d="M174.976,248.83c-1.114,0-2.201-0.013-3.291-0.038c-1.101-0.024-2.179-0.05-3.243-0.1
						c-1.051-0.037-2.117-0.1-3.158-0.162c-0.732-0.037-1.472-0.088-2.212-0.152c-0.521-0.035-1.068-0.073-1.615-0.124
						c-1.452-0.122-2.937-0.274-4.397-0.45c-0.565-0.06-1.15-0.136-1.734-0.211c-0.933-0.111-1.867-0.237-2.79-0.377
						c-0.712-0.098-1.455-0.213-2.184-0.341c-0.913-0.146-1.846-0.297-2.768-0.474c-0.844-0.145-1.717-0.31-2.579-0.487
						c-8.065-1.605-15.91-3.879-23.304-6.756c-0.453-0.167-0.932-0.359-1.41-0.555c-1.512-0.604-2.815-1.151-3.973-1.667
						c-0.391-0.172-0.78-0.349-1.169-0.524c-2.317-1.041-4.518-2.118-6.798-3.322c-0.29-0.15-0.587-0.31-0.884-0.469l-0.104-0.056
						c-1.321-0.719-2.351-1.299-3.25-1.833l-1.096-0.646c-0.553-0.325-0.945-0.867-1.079-1.494
						c-0.134-0.628,0.002-1.283,0.375-1.806c2.216-3.104,4.588-6.032,7.049-8.702c0.322-0.349,0.652-0.704,0.983-1.047
						c0.983-1.04,2.062-2.118,3.379-3.377c0.446-0.422,0.883-0.832,1.332-1.23c1.27-1.158,2.622-2.319,3.994-3.428
						c0.656-0.521,1.259-1.001,1.874-1.469c0.11-0.088,0.246-0.193,0.411-0.313l0.152-0.114c0.401-0.302,0.813-0.61,1.234-0.91
						c1.841-1.349,3.811-2.659,5.994-3.99c1.261-0.763,2.41-1.424,3.523-2.028c4.562-2.507,9.421-4.638,14.432-6.325
						c0.771-0.256,1.545-0.5,2.32-0.733c0.071-0.029,0.144-0.056,0.218-0.078c1.096-0.327,2.192-0.629,3.301-0.92
						c0.289-0.079,0.597-0.156,0.916-0.232v-26.809c0-1.262,1.023-2.284,2.285-2.284h38.571c1.264,0,2.285,1.022,2.285,2.284v26.828
						c1.393,0.345,2.807,0.732,4.223,1.159c0.852,0.255,1.709,0.523,2.555,0.817c8.098,2.704,15.789,6.586,22.832,11.528
						c0.66,0.455,1.324,0.941,1.977,1.42l0.166,0.121c1.918,1.453,3.602,2.813,5.174,4.184c0.77,0.668,1.527,1.351,2.273,2.046
						c0.758,0.708,1.516,1.44,2.248,2.173c0.426,0.426,0.84,0.852,1.266,1.288c3.111,3.242,5.922,6.641,8.404,10.151
						c0.365,0.517,0.5,1.162,0.371,1.782s-0.51,1.159-1.049,1.488c-0.52,0.315-1.064,0.634-1.635,0.962
						c-1.143,0.673-2.402,1.371-3.727,2.065c-0.82,0.429-1.691,0.882-2.598,1.323c-0.342,0.175-0.732,0.365-1.133,0.561
						l-0.412,0.199c-0.408,0.2-0.82,0.392-1.242,0.586l-0.422,0.196c-0.707,0.328-1.422,0.654-2.162,0.98l-0.809,0.346
						c-0.59,0.254-1.189,0.511-1.807,0.768c-0.889,0.375-1.811,0.743-2.773,1.109c-0.586,0.232-1.225,0.475-1.863,0.705
						c-4.504,1.674-9.246,3.152-14.07,4.385c-0.682,0.167-1.35,0.328-2.033,0.49c-0.93,0.232-1.9,0.446-2.885,0.661l-0.533,0.114
						c-0.59,0.127-1.189,0.256-1.789,0.371c-0.014,0.003-0.102,0.023-0.135,0.029c-2.779,0.547-5.365,0.989-7.9,1.35
						c-0.326,0.05-0.691,0.104-1.055,0.144l-1.555,0.215l-0.486,0.058c-0.303,0.036-0.604,0.072-0.904,0.099
						c-0.734,0.098-1.48,0.174-2.227,0.248c-0.719,0.072-1.443,0.146-2.168,0.208c-0.066,0.009-0.258,0.024-0.303,0.029
						c-0.477,0.04-0.916,0.077-1.355,0.103c-0.738,0.059-1.525,0.108-2.326,0.158c-1.047,0.063-2.113,0.126-3.191,0.165
						c-1.037,0.048-2.113,0.073-3.217,0.098c-1.088,0.025-2.176,0.038-3.289,0.038H174.976z"/>
					<g>
						<path fill="#443633" d="M194.279,165.081v28.637c1.982,0.443,3.928,0.96,5.848,1.539c0.826,0.246,1.65,0.505,2.463,0.787
							c8.002,2.672,15.5,6.488,22.271,11.24c0.713,0.492,1.416,1.01,2.105,1.515c1.723,1.305,3.396,2.646,5.021,4.063
							c0.752,0.653,1.49,1.317,2.217,1.995c0.738,0.689,1.477,1.402,2.191,2.117c0.432,0.431,0.85,0.861,1.281,1.305
							c2.941,3.066,5.674,6.353,8.137,9.837c-0.504,0.308-1.033,0.615-1.588,0.936c-1.107,0.652-2.328,1.329-3.645,2.02
							c-0.801,0.418-1.65,0.861-2.537,1.293c-0.504,0.259-1.02,0.504-1.551,0.762c-0.529,0.259-1.07,0.505-1.625,0.764
							c-0.689,0.32-1.391,0.641-2.117,0.961c-0.836,0.357-1.688,0.727-2.572,1.096c-0.875,0.369-1.773,0.727-2.709,1.083
							c-0.592,0.234-1.207,0.468-1.822,0.69c-4.174,1.55-8.803,3.027-13.863,4.32c-0.652,0.16-1.316,0.32-1.994,0.479
							c-0.936,0.234-1.883,0.444-2.844,0.653c-0.75,0.159-1.525,0.332-2.301,0.479c-0.039,0.013-0.074,0.013-0.111,0.025
							c-2.5,0.492-5.098,0.948-7.781,1.329c-0.32,0.05-0.652,0.098-0.984,0.136c-0.529,0.074-1.07,0.148-1.613,0.222
							c-0.443,0.05-0.887,0.11-1.33,0.147c-0.727,0.099-1.465,0.173-2.203,0.247c-0.727,0.072-1.453,0.147-2.18,0.208
							c-0.086,0.013-0.172,0.013-0.258,0.025c-0.432,0.036-0.861,0.073-1.293,0.099c-0.775,0.062-1.551,0.11-2.338,0.16
							c-1.023,0.061-2.068,0.123-3.129,0.16c-1.045,0.049-2.104,0.074-3.188,0.098c-1.072,0.024-2.143,0.037-3.238,0.037
							c-0.013,0-0.013,0-0.025,0c-1.095,0-2.167-0.013-3.238-0.037c-1.083-0.023-2.142-0.049-3.189-0.098
							c-1.059-0.037-2.105-0.1-3.127-0.16c-0.727-0.037-1.441-0.087-2.154-0.148c-0.542-0.037-1.071-0.074-1.601-0.123
							c-1.465-0.123-2.905-0.271-4.333-0.442c-0.58-0.063-1.146-0.136-1.711-0.21c-0.936-0.11-1.847-0.233-2.746-0.369
							c-0.714-0.099-1.428-0.209-2.13-0.332c-0.924-0.147-1.834-0.296-2.733-0.468c-0.861-0.148-1.711-0.309-2.548-0.48
							c-8.778-1.749-16.448-4.125-22.937-6.648c-0.467-0.172-0.923-0.356-1.378-0.542c-1.354-0.541-2.66-1.083-3.902-1.637
							c-0.418-0.185-0.825-0.369-1.232-0.555c-2.413-1.082-4.617-2.179-6.598-3.225c-0.332-0.173-0.652-0.346-0.973-0.518
							c-1.133-0.616-2.191-1.207-3.164-1.785c-0.382-0.222-0.751-0.443-1.109-0.652c2.118-2.967,4.408-5.811,6.87-8.482
							c0.308-0.332,0.628-0.677,0.949-1.009c1.07-1.134,2.179-2.229,3.312-3.312c0.417-0.395,0.836-0.789,1.267-1.171
							c1.269-1.157,2.574-2.276,3.915-3.36c0.604-0.48,1.207-0.961,1.822-1.428c0.124-0.099,0.234-0.186,0.37-0.284
							c0.443-0.332,0.899-0.677,1.367-1.009c1.884-1.379,3.841-2.673,5.86-3.902c1.12-0.679,2.266-1.343,3.422-1.971
							c4.458-2.449,9.172-4.518,14.072-6.168c0.813-0.271,1.638-0.528,2.462-0.775v-0.012c1.071-0.32,2.143-0.616,3.225-0.899
							c0.358-0.098,0.714-0.185,1.083-0.271c0.505-0.136,1.022-0.246,1.539-0.369v-28.612H194.279 M194.279,160.512h-38.571
							c-2.523,0-4.57,2.046-4.57,4.569v25.04c-0.916,0.246-1.768,0.487-2.587,0.731c-0.107,0.032-0.213,0.068-0.317,0.108
							c-0.791,0.239-1.557,0.481-2.281,0.723c-5.151,1.734-10.136,3.92-14.828,6.499c-1.117,0.605-2.296,1.285-3.584,2.064
							c-2.247,1.369-4.261,2.71-6.171,4.106c-0.438,0.312-0.866,0.633-1.284,0.947l-0.125,0.095
							c-0.167,0.121-0.31,0.231-0.462,0.354c-0.627,0.477-1.243,0.967-1.858,1.456c-1.423,1.148-2.803,2.332-4.125,3.539
							c-0.457,0.405-0.901,0.822-1.345,1.24c-1.368,1.308-2.472,2.412-3.5,3.499c-0.312,0.323-0.652,0.69-0.98,1.045
							c-2.535,2.749-4.966,5.752-7.236,8.932c-0.746,1.045-1.018,2.354-0.75,3.609c0.268,1.255,1.052,2.339,2.159,2.988l0.426,0.252
							c0.221,0.131,0.448,0.264,0.677,0.397c0.915,0.545,1.964,1.136,3.297,1.86c0.365,0.197,0.703,0.379,1.051,0.559
							c2.296,1.214,4.54,2.311,6.831,3.339c0.402,0.183,0.824,0.374,1.257,0.565c1.168,0.52,2.498,1.078,4.052,1.7
							c0.468,0.188,0.956,0.387,1.457,0.572c7.507,2.918,15.468,5.224,23.663,6.855c0.84,0.174,1.731,0.341,2.624,0.495
							c0.925,0.177,1.851,0.327,2.794,0.479c0.72,0.126,1.471,0.243,2.231,0.348c0.938,0.141,1.89,0.27,2.834,0.382
							c0.583,0.076,1.166,0.152,1.761,0.215c1.476,0.178,2.978,0.332,4.467,0.457c0.513,0.048,1.066,0.087,1.632,0.125
							c0.765,0.065,1.509,0.116,2.273,0.156c1.081,0.064,2.099,0.124,3.175,0.161c1.119,0.053,2.261,0.078,3.27,0.102
							c1.116,0.025,2.209,0.038,3.341,0.038c1.157,0,2.251-0.013,3.368-0.038c1.006-0.023,2.148-0.049,3.27-0.102
							c1.074-0.037,2.094-0.097,3.215-0.164c0.809-0.05,1.594-0.101,2.377-0.163c0.453-0.026,0.904-0.063,1.355-0.104
							c0.037-0.002,0.076-0.006,0.115-0.011c0.078-0.005,0.152-0.012,0.227-0.021c0.725-0.063,1.451-0.136,2.176-0.209
							c0.73-0.073,1.484-0.148,2.252-0.25c0.311-0.029,0.619-0.064,0.93-0.103l0.4-0.047c0.039-0.005,0.076-0.009,0.113-0.014
							c0.527-0.072,1.053-0.145,1.568-0.216c0.365-0.042,0.729-0.095,1.082-0.149c2.57-0.364,5.186-0.813,7.994-1.366
							c0.029-0.005,0.059-0.012,0.086-0.018c0.033-0.007,0.068-0.014,0.107-0.022c0.604-0.117,1.205-0.245,1.799-0.373l0.49-0.105
							c1.01-0.221,1.98-0.435,2.971-0.681c0.68-0.162,1.348-0.322,2.004-0.483c4.936-1.261,9.748-2.761,14.344-4.468
							c0.617-0.223,1.26-0.466,1.906-0.721c1.043-0.398,1.971-0.77,2.832-1.134c0.609-0.254,1.221-0.516,1.824-0.774l0.764-0.327
							c0.018-0.007,0.033-0.015,0.051-0.022c0.754-0.333,1.482-0.665,2.199-0.997l0.436-0.202c0.43-0.199,0.854-0.396,1.27-0.6
							l0.395-0.192c0.404-0.195,0.801-0.389,1.191-0.587c0.953-0.465,1.873-0.946,2.613-1.334c1.357-0.71,2.65-1.427,3.846-2.13
							c0.555-0.32,1.113-0.646,1.648-0.972c1.08-0.659,1.84-1.736,2.096-2.977c0.258-1.239-0.012-2.53-0.742-3.563
							c-2.547-3.604-5.432-7.091-8.574-10.363l-0.07-0.073c-0.428-0.441-0.846-0.87-1.275-1.3c-0.754-0.755-1.531-1.505-2.305-2.227
							c-0.762-0.71-1.547-1.417-2.336-2.103c-1.605-1.398-3.328-2.792-5.262-4.257c-0.02-0.016-0.039-0.029-0.061-0.044
							l-0.189-0.141c-0.648-0.475-1.318-0.965-2.02-1.448c-7.186-5.043-15.064-9.021-23.389-11.804
							c-0.781-0.271-1.619-0.539-2.633-0.841c-0.861-0.261-1.725-0.507-2.584-0.738v-25.059
							C198.85,162.558,196.803,160.512,194.279,160.512L194.279,160.512z"/>
					</g>
				</g>
				<path fill="#E0E0E0" d="M88.155,286.745v13.479c0,24.266,173.685,24.266,173.685,0v-13.479
					C261.84,311.011,88.155,311.011,88.155,286.745z"/>
			</g>
			<g>
				<g>
					
						<circle fill="#FFECE8" stroke="#443633" stroke-width="5" stroke-linecap="round" stroke-linejoin="round" stroke-miterlimit="10" cx="235.749" cy="114.55" r="11.761"/>
					
						<circle fill="#FFECE8" stroke="#443633" stroke-width="5" stroke-linecap="round" stroke-linejoin="round" stroke-miterlimit="10" cx="114.247" cy="114.55" r="11.761"/>
				</g>
				
					<path fill="#FFECE8" stroke="#443633" stroke-width="5" stroke-linecap="round" stroke-linejoin="round" stroke-miterlimit="10" d="
					M187.154,179.853h-24.313c-25.079,0-45.409-20.331-45.409-45.409V93.588c0-31.792,23.237-44.021,55.029-44.021l0,0
					c19.848,0,19.002,10.777,29.352,26.06c6.229,9.197,30.75,6.016,30.75,17.961v40.855
					C232.563,159.521,212.232,179.853,187.154,179.853z"/>
			</g>
			<g>
				<g>
					<g>
						
							<path fill="none" stroke="#443633" stroke-width="2" stroke-linecap="round" stroke-linejoin="round" stroke-miterlimit="10" d="
							M224.746,292.067c0,9.484-7.689,17.173-17.172,17.173c-9.486,0-17.174-7.688-17.174-17.173"/>
						
							<path fill="none" stroke="#443633" stroke-width="2" stroke-linecap="round" stroke-linejoin="round" stroke-miterlimit="10" d="
							M159.595,292.067c0,9.484-7.689,17.173-17.173,17.173s-17.172-7.688-17.172-17.173"/>
					</g>
					<g>
						
							<line fill="none" stroke="#443633" stroke-width="5" stroke-linecap="round" stroke-linejoin="round" stroke-miterlimit="10" x1="232.242" y1="287.272" x2="232.242" y2="316.468"/>
						
							<line fill="none" stroke="#443633" stroke-width="5" stroke-linecap="round" stroke-linejoin="round" stroke-miterlimit="10" x1="117.752" y1="287.272" x2="117.752" y2="316.468"/>
					</g>
					<g>
						<g>
							<path fill="#FF5252" d="M178.799,147.396c-1.76-0.849-3.801,0.435-3.801,2.389c0-1.954-2.041-3.237-3.801-2.389l-5.361,2.581
								h9.163h9.163L178.799,147.396z"/>
							<ellipse fill="#FF5252" cx="174.997" cy="158.838" rx="5.335" ry="4.821"/>
						</g>
						
							<path fill="#FFFFFF" stroke="#443633" stroke-width="2" stroke-linecap="round" stroke-linejoin="round" stroke-miterlimit="10" d="
							M174.998,160.89L174.998,160.89c-5.354,0-9.695-4.341-9.695-9.695v-0.153h19.391v0.153
							C184.693,156.549,180.352,160.89,174.998,160.89z"/>
					</g>
				</g>
				<g>
					
						<path fill="none" stroke="#DDC6B8" stroke-width="2" stroke-linecap="round" stroke-linejoin="round" stroke-miterlimit="10" d="
						M172.461,107.908c-0.924,6.82-2.935,12.926-6.396,18.078c-1.333,1.985-0.636,4.681,1.529,5.699l5.862,2.76
						c0.977,0.459,2.107,0.459,3.083,0l5.861-2.76c2.164-1.019,2.863-3.714,1.529-5.699c-3.461-5.152-5.471-11.258-6.395-18.078"/>
					<g>
						<g>
							
								<line fill="none" stroke="#443633" stroke-width="5" stroke-linecap="round" stroke-linejoin="round" stroke-miterlimit="10" x1="189.977" y1="101.212" x2="205.16" y2="101.212"/>
							<ellipse fill="#443633" cx="197.568" cy="112.152" rx="4.244" ry="2.443"/>
						</g>
						<g>
							
								<line fill="none" stroke="#443633" stroke-width="5" stroke-linecap="round" stroke-linejoin="round" stroke-miterlimit="10" x1="144.834" y1="101.212" x2="160.019" y2="101.212"/>
							<ellipse fill="#443633" cx="152.427" cy="112.152" rx="4.244" ry="2.443"/>
						</g>
					</g>
				</g>
			</g>
		</g>
	</g>
	<path fill="none" stroke="#443633" stroke-width="2" stroke-linecap="round" stroke-linejoin="round" stroke-miterlimit="10" d="
		M201.104,45.792c2.961,16.016,17.402,29.188,33.623,30.666"/>
	<path fill="none" stroke="#443633" stroke-width="2" stroke-linecap="round" stroke-linejoin="round" stroke-miterlimit="10" d="
		M217.73,50.773c3.178,6.545,9.742,11.327,16.945,12.345"/>
	<path fill="none" stroke="#443633" stroke-width="2" stroke-linecap="round" stroke-linejoin="round" stroke-miterlimit="10" d="
		M240.17,135.977c4.457,21.629,7.152,43.621,8.047,65.687"/>
	<path fill="none" stroke="#443633" stroke-width="2" stroke-linecap="round" stroke-linejoin="round" stroke-miterlimit="10" d="
		M232.576,162.664c0.168,9.548,0.336,19.095,0.502,28.643"/>
	<path fill="none" stroke="#443633" stroke-width="2" stroke-linecap="round" stroke-linejoin="round" stroke-miterlimit="10" d="
		M107,145.033c-2.056,19.711-1.035,39.741,3.015,59.141"/>
	<path fill="none" stroke="#443633" stroke-width="2" stroke-linecap="round" stroke-linejoin="round" stroke-miterlimit="10" d="
		M118.471,166.99c1.23,9.138,2.461,18.277,3.691,27.416"/>
</g>
</svg>
