<?xml version="1.0" encoding="utf-8"?>
<!-- Generator: Adobe Illustrator 16.0.0, SVG Export Plug-In . SVG Version: 6.00 Build 0)  -->
<!DOCTYPE svg PUBLIC "-//W3C//DTD SVG 1.1//EN" "http://www.w3.org/Graphics/SVG/1.1/DTD/svg11.dtd">
<svg version="1.1" id="Layer_1" xmlns="http://www.w3.org/2000/svg" xmlns:xlink="http://www.w3.org/1999/xlink" x="0px" y="0px"
	 width="350px" height="350px" viewBox="0 0 350 350" enable-background="new 0 0 350 350" xml:space="preserve">
<g>
	<linearGradient id="SVGID_1_" gradientUnits="userSpaceOnUse" x1="161.895" y1="267.4658" x2="172.6533" y2="267.4658">
		<stop  offset="0" style="stop-color:#C8C8C8"/>
		<stop  offset="1" style="stop-color:#FFFFFF"/>
	</linearGradient>
	<path fill="url(#SVGID_1_)" d="M172.095,268.758c-1.26,0.19-6.413,0.104-10.2,0.027c2.861-1.623,4.764-2.697,4.764-2.697
		c0.002,0.002,0.085-0.009,0.233-0.029c1.819,0.524,3.244,0.855,5.349,1.984C173.22,268.569,172.158,268.749,172.095,268.758z"/>
	<g>
		<polygon fill="#F2AE75" points="182.037,96.578 182.037,87.604 167.963,87.604 167.963,96.578 164.445,97.555 167.963,119.541 
			182.037,119.541 185.555,97.555 		"/>
		<polygon fill="#E3B9A5" points="167.963,87.663 167.963,90.925 182.037,96.578 182.037,87.663 		"/>
	</g>
	<g>
		<path fill="#F2AE75" d="M195.568,162.052h-20.54h-20.542c-11.689,20.115,9.062,56.618,8.941,136.061l-0.014,13.872h9.147
			l-0.045-13.872l1.74-108.617h0.772h0.771l1.74,108.617l-0.045,13.872h9.147l-0.014-13.872
			C186.508,218.67,207.259,182.167,195.568,162.052z"/>
		<path fill="#F05D44" d="M177.519,304.117c0,0,1.03,6.009,4.542,6.009c3.511,0,4.541-6.009,4.541-6.009s0.947,3.494,0.947,5.807
			c0,4.288-1.699,6.698-5.488,6.698c-3.79,0-5.489-2.41-5.489-6.698C176.571,307.611,177.519,304.117,177.519,304.117z"/>
		<path fill="#F05D44" d="M172.263,304.117c0,0-1.03,6.009-4.542,6.009c-3.511,0-4.541-6.009-4.541-6.009s-0.947,3.494-0.947,5.807
			c0,4.288,1.699,6.698,5.488,6.698c3.79,0,5.489-2.41,5.489-6.698C173.21,307.611,172.263,304.117,172.263,304.117z"/>
	</g>
	<path fill="#2A2932" d="M195.471,158.437h-20.442h-20.443c0,0-10.059,15.403-0.223,58.971c0.064,0.282,0.457,0.475,0.747,0.475
		h19.919h19.918c0.29,0,0.683-0.192,0.747-0.475C205.529,173.84,195.471,158.437,195.471,158.437z"/>
	<g>
		<g>
			<rect x="160.842" y="108.445" fill="#FFFFFF" width="28.591" height="50.983"/>
			<g>
				<path fill="#42404D" d="M171.481,119.299l-4.687-22.448c-19.807,1.039-6.377,11.55-10.871,17.991
					c-6.992,10.021-1.54,16.934,1.799,20.344c0,0-0.942,15.253-7.567,34.894h20.965v-7.145L171.481,119.299z"/>
				<polygon fill="#2A2932" points="158.739,102.396 166.453,105.312 163.425,109.533 171.481,119.299 166.782,96.671 				"/>
			</g>
			<g>
				<path fill="#42404D" d="M178.519,119.299l4.687-22.448c19.806,1.039,6.378,11.55,10.871,17.991
					c6.991,10.021,1.54,16.934-1.799,20.344c0,0,0.942,15.253,7.567,34.894h-20.966v-7.145L178.519,119.299z"/>
				<polygon fill="#2A2932" points="191.262,102.396 183.548,105.312 186.575,109.533 178.519,119.299 183.218,96.671 				"/>
			</g>
		</g>
		<g>
			<path fill="#E6E7E8" d="M187.579,140.832h-24.979c-2.015,0-3.648-1.633-3.648-3.648l-1.564-20.848c0-2.016,1.634-3.65,3.648-3.65
				h28.105c2.017,0,3.649,1.635,3.649,3.65l-1.563,20.848C191.228,139.199,189.594,140.832,187.579,140.832z"/>
			<path fill="#C8C8C8" d="M189.209,112.685h-28.238c-1.251,0-2.351,0.644-2.992,1.615c0.564-0.372,1.241-0.59,1.968-0.59h28.238
				c1.979,0,3.582,1.604,3.582,3.583l-1.563,20.982c0,0.728-0.218,1.403-0.591,1.968c0.972-0.641,1.614-1.741,1.614-2.992
				l1.563-20.982C192.791,114.291,191.188,112.685,189.209,112.685z"/>
			<path fill="#686671" d="M161.825,128.294L161.825,128.294c-0.844,0-1.535-0.69-1.535-1.535l0,0c0-0.843,0.691-1.534,1.535-1.534
				l0,0c0.845,0,1.536,0.691,1.536,1.534l0,0C163.36,127.604,162.669,128.294,161.825,128.294z"/>
		</g>
		<g>
			<g>
				<path fill="#F2AE75" d="M162.683,129.753c0,0-2.65,0.295-4.708,0.449c-0.512,0.031-1.023,0.061-1.503,0.09
					c-0.475,0.015-0.917,0.027-1.297,0.041c-0.748-0.004-1.246-0.006-1.246-0.006l-0.196,8.442c0,0,0.624,0.002,1.561,0.005
					c0.456-0.013,0.989-0.029,1.56-0.047c0.559-0.033,1.156-0.07,1.753-0.104c2.364-0.176,5.196-0.499,5.196-0.499
					c1.818-0.238,2.937-2.356,2.551-4.647C165.964,131.167,164.317,129.54,162.683,129.753z"/>
				<path fill="#F2AE75" d="M159.873,127.57c-1.396,0.158-2.479,1.147-3.296,2.133c-0.802,0.968-1.327,1.939-1.368,2.02
					c-0.326,0.612-0.25,1.506,0.217,1.968c0.465,0.456,1.132,0.333,1.449-0.302c0.007-0.013,0.103-0.196,0.271-0.468
					c0.167-0.269,0.406-0.625,0.698-0.982c0.587-0.726,1.377-1.46,2.333-1.57c0.552-0.063,0.921-0.737,0.825-1.508
					S160.401,127.512,159.873,127.57z"/>
			</g>
			<path fill="#42404D" d="M152.88,139.949c-21.175-1.878-20.647-9.866-15.167-19.565c4.184-7.403,13.986-19.488,20.44-21.7
				l-0.587,6.364l3.702,6.641c-8.087,4.709-10.395,8.176-14.178,13.866c-1.252,1.884-0.911,2.256-0.874,2.285
				c0.799,0.65,7.032,0.993,10.198,0.738l0.811,11.226C156.181,139.888,153.974,139.949,152.88,139.949z"/>
		</g>
		<g>
			<g>
				<path fill="#F2AE75" d="M187.317,129.753c0,0,2.65,0.295,4.708,0.449c0.512,0.031,1.023,0.061,1.503,0.09
					c0.475,0.015,0.917,0.027,1.297,0.041c0.747-0.004,1.245-0.006,1.245-0.006l0.197,8.442c0,0-0.624,0.002-1.561,0.005
					c-0.457-0.013-0.989-0.029-1.561-0.047c-0.56-0.033-1.156-0.07-1.753-0.104c-2.364-0.176-5.195-0.499-5.195-0.499
					c-1.818-0.238-2.937-2.356-2.552-4.647C184.036,131.167,185.685,129.54,187.317,129.753z"/>
				<path fill="#F2AE75" d="M190.127,127.57c1.396,0.158,2.48,1.147,3.296,2.133c0.803,0.968,1.326,1.939,1.369,2.02
					c0.326,0.612,0.25,1.506-0.219,1.968c-0.464,0.456-1.131,0.333-1.449-0.302c-0.007-0.013-0.103-0.196-0.27-0.468
					c-0.168-0.269-0.406-0.625-0.698-0.982c-0.587-0.726-1.378-1.46-2.332-1.57c-0.552-0.063-0.921-0.737-0.825-1.508
					C189.096,128.089,189.601,127.512,190.127,127.57z"/>
			</g>
			<path fill="#42404D" d="M197.12,139.949c21.176-1.878,20.646-9.866,15.167-19.565c-4.185-7.403-13.987-19.488-20.441-21.7
				l1.138,7.003l-4.252,6.001c8.087,4.709,10.396,8.176,14.179,13.866c1.253,1.884,0.91,2.256,0.873,2.285
				c-0.8,0.65-7.032,0.993-10.197,0.738l-0.812,11.226C193.819,139.888,196.027,139.949,197.12,139.949z"/>
		</g>
	</g>
	<g>
		<path fill="#3C2415" d="M203.322,100.213c-2.467-0.74-4.88-2.928-7.211-4.022c0.259,0.544,0.583,2.323,0.964,2.791
			c-2.528-0.982-4.537-2.989-6.094-5.208c-3.958-5.644-5.335-12.816-4.843-19.692c0.111-1.55,0.318-3.119,0.947-4.539
			c0.472-1.068,1.178-2.032,2.053-2.804c0.559-0.493,1.204-0.916,1.934-1.07c0.945-0.198,1.938,0.079,2.78,0.549
			c2.009,1.124,3.255,3.248,4.079,5.397c2.514,6.565,1.888,13.857,2.776,20.832C201.057,95.187,201.686,97.989,203.322,100.213z"/>
		<path fill="#F2AE75" d="M191.101,63.375v-7.317c0-7.773-8.998-17.592-16.12-17.592c-7.123,0-16.121,9.818-16.121,17.592v7.317
			c-1.979,0-3.582,1.576-3.582,3.519v3.659c0,1.942,1.603,3.519,3.582,3.519c0,7.773,8.998,17.874,16.121,17.874
			c7.122,0,16.12-10.101,16.12-17.874c1.979,0,3.583-1.576,3.583-3.519v-3.659C194.684,64.951,193.079,63.375,191.101,63.375z"/>
		<path opacity="0.8" fill="#F7CDB9" d="M174.981,78.928v13.018c7.122,0,16.12-10.101,16.12-17.874c1.979,0,3.583-1.576,3.583-3.519
			v-3.659c0-1.943-1.604-3.519-3.583-3.519v-7.317c0-7.773-8.998-17.592-16.12-17.592v28.499
			c-2.614,5.457-3.583,11.259-3.583,11.259L174.981,78.928z"/>
		<g>
			<g>
				<circle fill="#F7CDB9" cx="166.184" cy="69.542" r="2.779"/>
				<circle fill="#3C2417" cx="166.184" cy="68.838" r="2.779"/>
				<circle fill="#FFFFFF" cx="167.128" cy="69.379" r="0.695"/>
				<path fill="#3C2417" d="M169.565,66.619c-0.513-1.191-1.826-2.095-3.269-2.247c-0.884-0.097-2.543,0.033-3.969,1.839
					c-0.069,0.006-0.131,0.007-0.21-0.001c-0.159-0.013-0.379-0.064-0.595-0.158c-0.438-0.176-0.802-0.544-0.802-0.544
					c-0.026-0.023-0.066-0.033-0.1-0.016c-0.043,0.02-0.061,0.071-0.04,0.115c0,0,0.055,0.121,0.16,0.295
					c0.103,0.174,0.266,0.399,0.473,0.598c0.206,0.198,0.45,0.368,0.655,0.469c0.103,0.053,0.195,0.09,0.264,0.114
					c0.067,0.024,0.136,0.037,0.125,0.035c0.191,0.021,0.365-0.082,0.45-0.244c0.934-1.305,2.183-1.946,3.516-1.803
					c1.178,0.126,2.288,0.878,2.696,1.827c0.079,0.18,0.285,0.26,0.463,0.183C169.559,67.004,169.642,66.797,169.565,66.619z"/>
			</g>
			<g>
				<circle fill="#F7CDB9" cx="183.776" cy="69.542" r="2.779"/>
				<circle fill="#3C2417" cx="183.776" cy="68.838" r="2.779"/>
				<circle fill="#FFFFFF" cx="184.72" cy="69.379" r="0.695"/>
				<path fill="#3C2417" d="M180.396,66.619c0.514-1.191,1.827-2.095,3.27-2.247c0.884-0.097,2.543,0.033,3.97,1.839
					c0.068,0.006,0.131,0.007,0.21-0.001c0.158-0.013,0.379-0.064,0.595-0.158c0.438-0.176,0.802-0.544,0.802-0.544
					c0.025-0.023,0.065-0.033,0.1-0.016c0.043,0.02,0.062,0.071,0.04,0.115c0,0-0.055,0.121-0.16,0.295
					c-0.103,0.174-0.266,0.399-0.473,0.598c-0.205,0.198-0.449,0.368-0.655,0.469c-0.103,0.053-0.195,0.09-0.264,0.114
					c-0.066,0.024-0.136,0.037-0.124,0.035c-0.192,0.021-0.366-0.082-0.45-0.244c-0.934-1.305-2.183-1.946-3.516-1.803
					c-1.179,0.126-2.288,0.878-2.696,1.827c-0.078,0.18-0.285,0.26-0.463,0.183C180.402,67.004,180.319,66.797,180.396,66.619z"/>
			</g>
		</g>
		<g>
			<path fill="#F05D44" d="M180.584,81.526c0,2.764-2.521,5.004-5.629,5.004c-3.109,0-5.629-2.241-5.629-5.004H180.584z"/>
			<path fill="#FFFFFF" d="M178.646,83.402h-7.506c-0.519,0-0.938-0.419-0.938-0.938v-0.938h9.382v0.938
				C179.585,82.983,179.164,83.402,178.646,83.402z"/>
		</g>
		<path fill="#3C2415" d="M184.351,57.475c0.478,1.717,1.414,3.983,3.04,5.334c-4.786-1.224-8.859-4.053-11.808-7.403
			c0.289,1.731,1.386,3.617,3.082,5.285c-1.287-0.57-2.54-1.309-3.736-2.153c-2.667-1.871-5.038-4.299-6.797-6.762
			c-2.787,5.649-7.968,12.695-11.465,12.802c-5.443-10.013,0.508-31.2,18.241-31.2c17.732,0,23.816,20.483,18.88,31.788
			C189.819,64.319,185.455,59.115,184.351,57.475z"/>
	</g>
</g>
</svg>
