<?xml version="1.0" encoding="utf-8"?>
<!-- Generator: Adobe Illustrator 16.0.0, SVG Export Plug-In . SVG Version: 6.00 Build 0)  -->
<!DOCTYPE svg PUBLIC "-//W3C//DTD SVG 1.1//EN" "http://www.w3.org/Graphics/SVG/1.1/DTD/svg11.dtd">
<svg version="1.1" id="Capa_1" xmlns="http://www.w3.org/2000/svg" xmlns:xlink="http://www.w3.org/1999/xlink" x="0px" y="0px"
	 width="350px" height="350px" viewBox="0 0 350 350" enable-background="new 0 0 350 350" xml:space="preserve">
<path fill="#556080" d="M58.334,58.334v233.332h233.332V58.334H58.334z M279.999,66.112v50.555H70V66.112H279.999z"/>
<rect x="58.334" y="128.333" fill="#45506D" width="233.332" height="62.222"/>
<polygon fill="#ECF0F1" points="182.777,252.777 182.777,190.556 159.444,190.556 159.444,268.333 190.556,268.333 190.556,252.777 
	"/>
<polygon fill="#D7DCE0" points="213.889,252.777 213.889,190.556 198.333,190.556 198.333,252.777 190.556,252.777 190.556,268.333 
	221.666,268.333 221.666,252.777 "/>
<polygon fill="#ECF0F1" points="245,252.777 245,190.556 229.443,190.556 229.443,252.777 221.666,252.777 221.666,268.333 
	252.777,268.333 252.777,252.777 "/>
<polygon fill="#D7DCE0" points="260.556,190.556 260.556,252.777 252.777,252.777 252.777,268.333 283.888,268.333 283.888,190.556 
	"/>
<polygon fill="#D7DCE0" points="89.445,252.777 89.445,190.556 66.112,190.556 66.112,268.333 97.223,268.333 97.223,252.777 "/>
<polygon fill="#ECF0F1" points="120.556,252.777 120.556,190.556 105,190.556 105,252.777 97.223,252.777 97.223,268.333 
	128.333,268.333 128.333,252.777 "/>
<polygon fill="#D7DCE0" points="136.111,190.556 136.111,252.777 128.333,252.777 128.333,268.333 159.444,268.333 159.444,190.556 
	"/>
<rect x="66.112" y="66.112" fill="#FFB200" width="217.776" height="54.444"/>
<path fill="#2C2F38" d="M89.445,155.556c-2.15,0-3.889-1.742-3.889-3.889V140c0-2.146,1.738-3.889,3.889-3.889
	c2.151,0,3.889,1.742,3.889,3.889v11.667C93.334,153.813,91.596,155.556,89.445,155.556z"/>
<path fill="#2C2F38" d="M89.445,175c-2.15,0-3.889-1.742-3.889-3.889v-7.777c0-2.147,1.738-3.889,3.889-3.889
	c2.151,0,3.889,1.742,3.889,3.889v7.777C93.334,173.258,91.596,175,89.445,175z"/>
<path fill="#2C2F38" d="M120.556,159.444c-2.151,0-3.889-1.742-3.889-3.889V140c0-2.146,1.738-3.889,3.889-3.889
	c2.15,0,3.889,1.742,3.889,3.889v15.556C124.445,157.702,122.707,159.444,120.556,159.444z"/>
<path fill="#2C2F38" d="M120.556,175c-2.151,0-3.889-1.742-3.889-3.889v-3.889c0-2.146,1.738-3.889,3.889-3.889
	c2.15,0,3.889,1.742,3.889,3.889v3.889C124.445,173.258,122.707,175,120.556,175z"/>
<path fill="#2C2F38" d="M151.667,151.667c-2.15,0-3.889-1.742-3.889-3.889V140c0-2.146,1.739-3.889,3.889-3.889
	s3.889,1.742,3.889,3.889v7.778C155.556,149.925,153.817,151.667,151.667,151.667z"/>
<path fill="#2C2F38" d="M151.667,175c-2.15,0-3.889-1.742-3.889-3.889v-11.667c0-2.146,1.739-3.889,3.889-3.889
	s3.889,1.742,3.889,3.889v11.667C155.556,173.258,153.817,175,151.667,175z"/>
<path fill="#2C2F38" d="M182.777,159.444c-2.149,0-3.888-1.742-3.888-3.889V140c0-2.146,1.738-3.889,3.888-3.889
	c2.151,0,3.89,1.742,3.89,3.889v15.556C186.667,157.702,184.929,159.444,182.777,159.444z"/>
<path fill="#2C2F38" d="M182.777,175c-2.149,0-3.888-1.742-3.888-3.889v-3.889c0-2.146,1.738-3.889,3.888-3.889
	c2.151,0,3.89,1.742,3.89,3.889v3.889C186.667,173.258,184.929,175,182.777,175z"/>
<path fill="#2C2F38" d="M213.889,147.778c-2.15,0-3.889-1.742-3.889-3.889V140c0-2.146,1.738-3.889,3.889-3.889
	s3.889,1.742,3.889,3.889v3.889C217.777,146.036,216.039,147.778,213.889,147.778z"/>
<path fill="#2C2F38" d="M213.889,175c-2.15,0-3.889-1.742-3.889-3.889v-15.555c0-2.146,1.738-3.889,3.889-3.889
	s3.889,1.742,3.889,3.889v15.555C217.777,173.258,216.039,175,213.889,175z"/>
<g>
	<path fill="#8D4700" d="M93.334,77.778H81.667c-2.15,0-3.889,1.742-3.889,3.889V105c0,2.146,1.738,3.889,3.889,3.889h11.667
		c2.15,0,3.889-1.742,3.889-3.889V81.667C97.223,79.521,95.484,77.778,93.334,77.778z M89.445,101.111h-3.889V85.556h3.889V101.111z
		"/>
	<path fill="#8D4700" d="M116.667,77.778H105c-2.15,0-3.889,1.742-3.889,3.889V105c0,2.146,1.738,3.889,3.889,3.889h11.667
		c2.15,0,3.889-1.742,3.889-3.889V81.667C120.556,79.521,118.818,77.778,116.667,77.778z M112.778,101.111h-3.889V85.556h3.889
		V101.111z"/>
	<path fill="#8D4700" d="M151.667,77.778H140c-2.15,0-3.889,1.742-3.889,3.889V105c0,2.146,1.738,3.889,3.889,3.889h11.667
		c2.15,0,3.889-1.742,3.889-3.889V81.667C155.556,79.521,153.817,77.778,151.667,77.778z M147.778,101.111h-3.889V85.556h3.889
		V101.111z"/>
	<path fill="#8D4700" d="M175,85.556c2.15,0,3.89-1.743,3.89-3.889s-1.739-3.889-3.89-3.889h-11.667
		c-2.15,0-3.889,1.742-3.889,3.889v11.667c0,2.146,1.739,3.889,3.889,3.889h7.777v3.889h-7.777c-2.15,0-3.889,1.742-3.889,3.889
		c0,2.146,1.739,3.889,3.889,3.889H175c2.15,0,3.89-1.742,3.89-3.889V93.334c0-2.146-1.739-3.889-3.89-3.889h-7.778v-3.889H175z"/>
	<circle fill="#8D4700" cx="128.333" cy="85.556" r="3.889"/>
	<circle fill="#8D4700" cx="128.333" cy="101.112" r="3.889"/>
	<path fill="#8D4700" d="M206.11,101.111h-7.777c-2.15,0-3.889,1.742-3.889,3.889c0,2.146,1.738,3.889,3.889,3.889h7.777
		c2.151,0,3.89-1.742,3.89-3.889C210,102.854,208.262,101.111,206.11,101.111z"/>
	<path fill="#8D4700" d="M225.556,101.111h-7.778c-2.15,0-3.889,1.742-3.889,3.889c0,2.146,1.738,3.889,3.889,3.889h7.778
		c2.149,0,3.888-1.742,3.888-3.889C229.443,102.854,227.705,101.111,225.556,101.111z"/>
	<path fill="#8D4700" d="M225.556,89.445h-7.778c-2.15,0-3.889,1.743-3.889,3.889s1.738,3.889,3.889,3.889h7.778
		c2.149,0,3.888-1.742,3.888-3.889S227.705,89.445,225.556,89.445z"/>
	<path fill="#8D4700" d="M225.556,77.778h-7.778c-2.15,0-3.889,1.742-3.889,3.889s1.738,3.889,3.889,3.889h7.778
		c2.149,0,3.888-1.743,3.888-3.889S227.705,77.778,225.556,77.778z"/>
	<path fill="#8D4700" d="M245,101.111h-7.777c-2.151,0-3.89,1.742-3.89,3.889c0,2.146,1.738,3.889,3.89,3.889H245
		c2.15,0,3.889-1.742,3.889-3.889C248.889,102.854,247.15,101.111,245,101.111z"/>
	<path fill="#8D4700" d="M245,89.445h-7.777c-2.151,0-3.89,1.743-3.89,3.889s1.738,3.889,3.89,3.889H245
		c2.15,0,3.889-1.742,3.889-3.889S247.15,89.445,245,89.445z"/>
	<path fill="#8D4700" d="M264.444,101.111h-7.778c-2.15,0-3.889,1.742-3.889,3.889c0,2.146,1.738,3.889,3.889,3.889h7.778
		c2.15,0,3.889-1.742,3.889-3.889C268.333,102.854,266.595,101.111,264.444,101.111z"/>
</g>
<g>
	<rect x="85.556" y="186.667" fill="#464F5D" width="23.333" height="69.999"/>
	<rect x="116.667" y="186.667" fill="#464F5D" width="23.333" height="69.999"/>
	<rect x="178.89" y="186.667" fill="#464F5D" width="23.333" height="69.999"/>
	<rect x="210" y="186.667" fill="#464F5D" width="23.333" height="69.999"/>
	<rect x="241.11" y="186.667" fill="#464F5D" width="23.334" height="69.999"/>
</g>
<rect x="66.112" y="268.333" fill="#ACB7C1" width="31.395" height="11.666"/>
<rect x="252.777" y="268.333" fill="#ACB7C1" width="31.11" height="11.666"/>
<rect x="97.223" y="268.333" fill="#BFCAD1" width="31.111" height="11.666"/>
<rect x="159.444" y="268.333" fill="#BFCAD1" width="31.111" height="11.666"/>
<rect x="221.666" y="268.333" fill="#BFCAD1" width="31.111" height="11.666"/>
<rect x="128.333" y="268.333" fill="#ACB7C1" width="31.111" height="11.666"/>
<rect x="190.556" y="268.333" fill="#ACB7C1" width="31.11" height="11.666"/>
<rect x="85.556" y="245" fill="#2C2F38" width="23.333" height="11.666"/>
<rect x="116.667" y="245" fill="#2C2F38" width="23.333" height="11.666"/>
<rect x="178.89" y="245" fill="#2C2F38" width="23.333" height="11.666"/>
<rect x="210" y="245" fill="#2C2F38" width="23.333" height="11.666"/>
<rect x="241.11" y="245" fill="#2C2F38" width="23.334" height="11.666"/>
<rect x="81.667" y="151.667" fill="#FFFFFF" width="15.556" height="11.667"/>
<rect x="112.778" y="155.556" fill="#FFFFFF" width="15.556" height="11.667"/>
<rect x="143.889" y="147.778" fill="#FFFFFF" width="15.555" height="11.667"/>
<rect x="175" y="155.556" fill="#FFFFFF" width="15.556" height="11.667"/>
<rect x="206.11" y="143.889" fill="#FFFFFF" width="15.556" height="11.667"/>
<circle fill="#3D324C" cx="260.556" cy="159.445" r="15.555"/>
<circle fill="#FFFFFF" cx="260.556" cy="151.667" r="15.555"/>
<path fill="#BDC3C7" d="M264.444,151.667c0,0.995-0.382,1.991-1.14,2.749c-1.521,1.521-3.979,1.521-5.499,0l-11.001-11.001
	c-1.521-1.521-1.521-3.978,0-5.499c1.52-1.521,3.978-1.521,5.498,0l11.002,11.001C264.063,149.676,264.444,150.671,264.444,151.667z
	"/>
</svg>
