<?xml version="1.0" encoding="utf-8"?>
<!-- Generator: Adobe Illustrator 16.0.0, SVG Export Plug-In . SVG Version: 6.00 Build 0)  -->
<!DOCTYPE svg PUBLIC "-//W3C//DTD SVG 1.1//EN" "http://www.w3.org/Graphics/SVG/1.1/DTD/svg11.dtd">
<svg version="1.1" id="Capa_1" xmlns="http://www.w3.org/2000/svg" xmlns:xlink="http://www.w3.org/1999/xlink" x="0px" y="0px"
	 width="350px" height="350px" viewBox="0 0 350 350" enable-background="new 0 0 350 350" xml:space="preserve">
<g>
	<path d="M144.211,215.241c-8.49,0-15.395,6.905-15.395,15.395c0,8.49,6.904,15.395,15.395,15.395s15.395-6.904,15.395-15.395
		C159.605,222.146,152.701,215.241,144.211,215.241z M144.211,238.333c-4.245,0-7.697-3.452-7.697-7.697s3.452-7.697,7.697-7.697
		s7.697,3.452,7.697,7.697S148.456,238.333,144.211,238.333z"/>
	<path d="M205.593,246.03c8.49,0,15.395-6.904,15.395-15.395c0-8.489-6.904-15.395-15.395-15.395s-15.395,6.905-15.395,15.395
		C190.198,239.126,197.106,246.03,205.593,246.03z M205.593,222.938c4.245,0,7.697,3.452,7.697,7.697s-3.452,7.697-7.697,7.697
		s-7.697-3.452-7.697-7.697S201.348,222.938,205.593,222.938z"/>
	<path d="M290.459,99.782c0-2.128-1.725-3.848-3.849-3.848h-35.435c-2.052-7.359-8.178-13.27-15.883-14.914
		c-5.742-1.235-11.546-0.069-16.576,3.368l-24.474-0.208c0.015-1.1-0.016-2.178-0.046-3.229c-0.135-4.753-0.004-6.393,2.024-7.617
		c2.378-1.432,4.668-3.09,6.804-4.934c1.608-1.385,1.79-3.814,0.4-5.426c-1.394-1.613-3.825-1.793-5.427-0.4
		c-1.809,1.555-3.741,2.959-5.746,4.164c-6.054,3.649-5.884,9.629-5.75,14.433c0.031,0.947,0.059,1.917,0.043,2.906
		c-0.027,2.124,0.804,4.203,2.282,5.7c1.467,1.489,3.425,2.309,5.515,2.309h24.374c1.593,0,3.175-0.508,4.564-1.47
		c2.174-1.493,5.73-3.071,10.399-2.07c4.159,0.889,7.597,3.714,9.329,7.39H106.987c1.735-3.676,5.172-6.497,9.333-7.39
		c4.668-1,8.225,0.573,10.395,2.07c1.394,0.962,2.975,1.47,4.568,1.47h24.377c2.086,0,4.045-0.82,5.511-2.305
		c1.478-1.501,2.313-3.576,2.286-5.696c-0.012-0.993,0.016-1.963,0.042-2.906c0.135-4.811,0.304-10.795-5.753-14.437
		c-2.04-1.228-3.979-2.632-5.773-4.172c-1.613-1.393-4.041-1.205-5.431,0.404c-1.385,1.612-1.205,4.045,0.408,5.426
		c2.121,1.825,4.415,3.479,6.824,4.93c2.032,1.224,2.163,2.867,2.028,7.624c-0.031,1.047-0.062,2.125-0.146,3.43l-24.577-0.108
		c-4.83-3.329-10.657-4.491-16.372-3.26c-7.709,1.644-13.832,7.555-15.883,14.914H63.39c-2.125,0-3.849,1.72-3.849,3.848
		c0,2.128,1.724,3.849,3.849,3.849h15.395h15.395h3.587h7.89L93.886,119.08c-1.982,0.162-3.556,1.774-3.556,3.794
		c0,0.247,0.096,0.462,0.138,0.697l-2.186,2.867c-0.597-0.069-1.182-0.181-1.801-0.181c-4.772,0-8.987,2.229-11.815,5.646
		c0.158-0.419,0.27-0.858,0.27-1.331c0-2.125-1.724-3.849-3.849-3.849s-3.849,1.724-3.849,3.849c0,2.124,1.724,3.848,3.849,3.848
		c0.912,0,1.712-0.362,2.371-0.893c-1.478,2.367-2.371,5.134-2.371,8.124c0,0.162,0.042,0.316,0.05,0.478
		c-0.015,0-0.03-0.008-0.05-0.008c-2.125,0-3.849,1.725-3.849,3.849c0,2.125,1.724,3.849,3.849,3.849
		c0.766,0,1.436-0.281,2.032-0.662c0.604,1.074,1.309,2.079,2.144,2.975c-0.204,0.47-0.327,0.985-0.327,1.532
		c0,2.124,1.724,3.848,3.849,3.848c1.147,0,2.147-0.527,2.852-1.324c1.532,0.516,3.144,0.858,4.845,0.858
		c0.616,0,1.201-0.112,1.801-0.181l7.047,8.579c-0.37-0.119-0.743-0.231-1.151-0.231c-2.125,0-3.849,1.725-3.849,3.849
		c0,2.125,1.724,3.849,3.849,3.849s3.849-1.724,3.849-3.849c0-0.158-0.069-0.289-0.088-0.442l3.583,4.36
		c-1.952,0.188-3.495,1.778-3.495,3.775c0,2.125,1.724,3.849,3.849,3.849c1.743,0,3.16-1.181,3.633-2.775l2.54,3.095
		c-1.366,0.593-2.325,1.948-2.325,3.529c0,2.125,1.724,3.849,3.849,3.849c1.32,0,2.429-0.708,3.121-1.724l2.167,2.636
		c-0.858,0.712-1.439,1.74-1.439,2.937c0,2.124,1.724,3.849,3.849,3.849c0.927,0,1.748-0.369,2.409-0.92l2.167,2.636
		c-0.424,0.624-0.728,1.329-0.728,2.133c0,2.124,1.724,3.849,3.849,3.849s3.849-1.725,3.849-3.849c0-0.835-0.323-1.566-0.773-2.197
		c0.985-1.382,1.027-3.268-0.104-4.642l-32.175-39.16c3.691-2.81,6.112-7.208,6.112-12.197c0-5.018-2.448-9.437-6.173-12.25
		l19.625-25.771h55.824v7.697h-29.834c-2.125,0-3.849,1.72-3.849,3.849s1.724,3.849,3.849,3.849h29.834v7.697h-45.229
		c-2.125,0-3.849,1.72-3.849,3.849c0,2.128,1.725,3.848,3.849,3.848h45.229v7.698h-45.229c-2.125,0-3.849,1.72-3.849,3.848
		c0,2.128,1.725,3.849,3.849,3.849h45.229v7.697h-29.834c-2.125,0-3.849,1.72-3.849,3.849s1.724,3.849,3.849,3.849h29.834v7.697
		h-22.137c-2.125,0-3.849,1.72-3.849,3.849c0,2.128,1.725,3.849,3.849,3.849h22.137v15.395h-11.546
		c-3.283,0-7.066,0.185-10.311,2.294l-3.118,1.871l-0.727,0.565c-3.21,3.179-7.689,4.498-11.685,3.448
		c-3.667-0.975-8.917-0.827-13.847,0.597c-0.693-0.662-1.616-1.078-2.648-1.078c-2.125,0-3.849,1.725-3.849,3.849
		c0,0.027,0.015,0.054,0.015,0.081c-1.639,1.046-3.033,2.348-4.187,3.834c-1.967,0.172-3.525,1.773-3.525,3.782
		c0,0.777,0.289,1.459,0.685,2.067c-0.912,3.505-0.858,7.343,0.204,10.961c-0.527,0.661-0.889,1.458-0.889,2.366
		c0,2.125,1.724,3.849,3.849,3.849c0.019,0,0.031-0.008,0.05-0.012c0.612,0.858,1.278,1.678,2.028,2.429l1.797,1.555
		c0.069,2.063,1.744,3.722,3.822,3.722c0.139,0,0.254-0.065,0.385-0.077l3.622,3.138c-0.054,0.266-0.158,0.516-0.158,0.792
		c0,2.125,1.724,3.849,3.849,3.849c0.481,0,0.931-0.111,1.355-0.273l4.761,4.122h-9.964c0-2.124-1.724-3.849-3.849-3.849
		s-3.849,1.725-3.849,3.849h-7.697c0-2.124-1.724-3.849-3.849-3.849s-3.849,1.725-3.849,3.849H90.33
		c0-2.124-1.724-3.849-3.849-3.849s-3.849,1.725-3.849,3.849h-7.697c0-2.124-1.724-3.849-3.849-3.849s-3.849,1.725-3.849,3.849
		H63.39c-2.125,0-3.849,1.72-3.849,3.849c0,2.128,1.724,3.849,3.849,3.849h38.998l3.849,26.94h64.915h7.697h64.915l3.849-26.94
		h38.998c2.124,0,3.849-1.721,3.849-3.849c0-2.129-1.725-3.849-3.849-3.849h-3.849c0-2.124-1.725-3.849-3.849-3.849
		s-3.849,1.725-3.849,3.849h-7.697c0-2.124-1.725-3.849-3.849-3.849s-3.849,1.725-3.849,3.849h-7.697
		c0-2.124-1.725-3.849-3.849-3.849s-3.849,1.725-3.849,3.849h-7.697c0-2.124-1.724-3.849-3.849-3.849
		c-2.124,0-3.849,1.725-3.849,3.849h-9.456l4.822-4.007c0.262,0.059,0.508,0.158,0.785,0.158c2.124,0,3.849-1.724,3.849-3.849
		c0-0.05-0.027-0.093-0.027-0.139l4.649-3.863c1.29-0.273,2.34-1.124,2.802-2.329l2.998-2.49c0.924-0.923,1.717-1.932,2.429-2.982
		c1.475-0.542,2.544-1.924,2.544-3.591c0-0.389-0.115-0.742-0.223-1.097c0.496-1.42,0.873-2.863,1.038-4.338
		c0.701,0.939,1.771,1.586,3.033,1.586c2.124,0,3.849-1.724,3.849-3.849s-1.725-3.849-3.849-3.849c-1.305,0-2.397,0.689-3.094,1.682
		c-0.17-1.454-0.497-2.886-1.009-4.275c0.139-0.396,0.254-0.809,0.254-1.255c0-1.866-1.358-3.353-3.125-3.702
		c-1.251-1.467-2.81-2.732-4.614-3.791c0.004-0.069,0.042-0.131,0.042-0.204c0-2.124-1.724-3.849-3.849-3.849
		c-1.112,0-2.098,0.489-2.802,1.247c-4.269-1.247-8.636-1.663-11.728-1.17c-6.223,0.981-10.479-0.065-13.02-3.21l-3.056-2.79
		l-0.577-0.242c-2.383-1.017-4.903-1.528-7.501-1.528h-15.198v-15.395h24.046c2.125,0,3.849-1.721,3.849-3.849
		c0-2.128-1.724-3.849-3.849-3.849h-24.046v-7.697h31.744c2.123,0,3.848-1.72,3.848-3.849s-1.725-3.849-3.848-3.849h-31.744v-7.697
		h47.138c2.125,0,3.849-1.72,3.849-3.849c0-2.128-1.724-3.849-3.849-3.849h-47.138v-7.697h47.138c2.125,0,3.849-1.72,3.849-3.849
		s-1.724-3.849-3.849-3.849h-47.138v-7.697h31.744c2.123,0,3.848-1.72,3.848-3.849s-1.725-3.849-3.848-3.849h-31.744v-7.697h52.153
		l23.064,25.959c-3.591,2.821-5.942,7.151-5.942,12.058c0,4.988,2.421,9.383,6.111,12.2l-32.174,39.16
		c-1.128,1.374-1.085,3.26-0.104,4.642c-0.45,0.631-0.773,1.362-0.773,2.193c0,2.124,1.725,3.849,3.849,3.849
		s3.849-1.725,3.849-3.849c0-0.804-0.304-1.513-0.728-2.129l2.166-2.636c0.667,0.547,1.482,0.92,2.41,0.92
		c2.125,0,3.849-1.725,3.849-3.849c0-1.2-0.581-2.229-1.442-2.933l2.166-2.636c0.693,1.011,1.801,1.724,3.121,1.724
		c2.124,0,3.849-1.724,3.849-3.849c0-1.581-0.959-2.937-2.324-3.529l2.539-3.095c0.475,1.591,1.887,2.775,3.634,2.775
		c2.124,0,3.849-1.725,3.849-3.849c0-2.001-1.543-3.591-3.494-3.775l3.583-4.361c-0.016,0.143-0.085,0.277-0.085,0.431
		c0,2.125,1.725,3.849,3.849,3.849c2.125,0,3.849-1.724,3.849-3.849c0-2.124-1.724-3.848-3.849-3.848
		c-0.408,0-0.781,0.115-1.15,0.23l7.046-8.579c0.597,0.069,1.186,0.181,1.802,0.181c1.701,0,3.313-0.343,4.846-0.854
		c0.704,0.797,1.704,1.324,2.852,1.324c2.125,0,3.849-1.724,3.849-3.848c0-0.551-0.123-1.066-0.331-1.54
		c0.835-0.897,1.539-1.901,2.144-2.975c0.601,0.385,1.271,0.662,2.032,0.662c2.124,0,3.849-1.724,3.849-3.849
		c0-2.124-1.725-3.848-3.849-3.848c-0.016,0-0.031,0.007-0.05,0.007c0.011-0.154,0.054-0.304,0.054-0.47
		c0-2.99-0.893-5.757-2.371-8.124c0.658,0.531,1.463,0.893,2.371,0.893c2.124,0,3.849-1.724,3.849-3.848
		c0-2.125-1.725-3.849-3.849-3.849s-3.849,1.724-3.849,3.849c0,0.473,0.111,0.912,0.27,1.331c-2.825-3.417-7.043-5.646-11.815-5.646
		c-0.666,0-1.301,0.115-1.943,0.196l-2.14-2.41c0.119-0.373,0.234-0.754,0.234-1.17c0-2.124-1.724-3.848-3.849-3.848
		c-0.254,0-0.477,0.096-0.72,0.146l-13.806-15.541h6.705h7.82h15.395h15.395C288.734,103.631,290.459,101.911,290.459,99.782z
		 M86.481,133.955c4.245,0,7.697,3.452,7.697,7.697c0,4.245-3.452,7.698-7.697,7.698s-7.697-3.453-7.697-7.698
		C78.784,137.407,82.236,133.955,86.481,133.955z M171.151,280.668H112.91l-2.748-19.243h29.812h31.178V280.668z M239.838,261.425
		l-2.748,19.243h-58.241v-19.243h31.316H239.838z M194.047,203.695c1.354,0,2.679,0.235,3.938,0.7l1.424,1.263
		c3.063,3.633,8.982,7.459,19.993,5.712c4.812-0.751,13.952,1.942,16.376,5.646c2.937,4.495,2.129,10.695-1.662,14.509
		l-26.732,22.207h-24.258c-1.394-2.94-4.127-5.011-7.437-5.596l-0.673-0.119l-0.674,0.119c-3.306,0.585-6.039,2.655-7.436,5.596
		h-24.073l-25.947-22.453c-3.66-3.663-4.58-10.691-1.924-14.744c2.69-4.114,11.757-6.257,16.83-4.911
		c6.473,1.709,13.608-0.234,18.727-5.083l2.852-1.713c1.443-0.939,3.379-1.124,6.231-1.124h11.546v3.849
		c0,2.129,1.725,3.849,3.849,3.849c2.125,0,3.849-1.72,3.849-3.849v-3.849h15.202V203.695z M271.216,141.651
		c0,4.245-3.452,7.698-7.697,7.698s-7.697-3.453-7.697-7.698c0-4.245,3.452-7.697,7.697-7.697S271.216,137.411,271.216,141.651z"/>
	<circle cx="63.39" cy="107.479" r="3.849"/>
	<circle cx="78.784" cy="107.479" r="3.849"/>
	<circle cx="94.179" cy="107.479" r="3.849"/>
	<circle cx="86.481" cy="115.177" r="3.849"/>
	<circle cx="71.087" cy="115.177" r="3.849"/>
	<circle cx="78.784" cy="122.874" r="3.848"/>
	<circle cx="63.39" cy="138.269" r="3.849"/>
	<circle cx="71.087" cy="161.361" r="3.849"/>
	<circle cx="86.481" cy="161.361" r="3.849"/>
	<circle cx="63.39" cy="153.663" r="3.849"/>
	<circle cx="63.39" cy="169.058" r="3.848"/>
	<circle cx="78.784" cy="169.058" r="3.848"/>
	<circle cx="71.087" cy="176.755" r="3.849"/>
	<circle cx="86.481" cy="176.755" r="3.849"/>
	<circle cx="63.39" cy="184.452" r="3.849"/>
	<circle cx="78.784" cy="184.452" r="3.849"/>
	<circle cx="94.179" cy="184.452" r="3.849"/>
	<circle cx="71.087" cy="192.149" r="3.849"/>
	<circle cx="86.481" cy="192.149" r="3.849"/>
	<circle cx="63.39" cy="199.847" r="3.849"/>
	<circle cx="78.784" cy="199.847" r="3.849"/>
	<circle cx="94.179" cy="199.847" r="3.849"/>
	<circle cx="109.573" cy="199.847" r="3.849"/>
	<circle cx="101.876" cy="192.149" r="3.849"/>
	<circle cx="71.087" cy="207.544" r="3.849"/>
	<circle cx="86.481" cy="207.544" r="3.849"/>
	<circle cx="63.39" cy="215.241" r="3.849"/>
	<circle cx="78.784" cy="215.241" r="3.849"/>
	<circle cx="94.179" cy="215.241" r="3.849"/>
	<circle cx="101.876" cy="207.544" r="3.849"/>
	<circle cx="101.876" cy="222.938" r="3.849"/>
	<circle cx="71.087" cy="222.938" r="3.849"/>
	<circle cx="86.481" cy="222.938" r="3.849"/>
	<circle cx="63.39" cy="230.636" r="3.849"/>
	<circle cx="78.784" cy="230.636" r="3.849"/>
	<circle cx="94.179" cy="230.636" r="3.849"/>
	<circle cx="71.087" cy="238.333" r="3.849"/>
	<circle cx="86.481" cy="238.333" r="3.849"/>
	<circle cx="63.39" cy="246.03" r="3.849"/>
	<circle cx="78.784" cy="246.03" r="3.849"/>
	<circle cx="94.179" cy="246.03" r="3.849"/>
	<circle cx="109.573" cy="246.03" r="3.849"/>
	<circle cx="101.876" cy="238.333" r="3.849"/>
	<circle cx="63.39" cy="122.874" r="3.848"/>
	<circle cx="286.61" cy="107.479" r="3.849"/>
	<circle cx="271.216" cy="107.479" r="3.849"/>
	<circle cx="255.821" cy="107.479" r="3.849"/>
	<circle cx="263.519" cy="115.177" r="3.849"/>
	<circle cx="278.913" cy="115.177" r="3.849"/>
	<circle cx="271.216" cy="122.874" r="3.848"/>
	<circle cx="286.61" cy="138.269" r="3.849"/>
	<circle cx="278.913" cy="161.361" r="3.849"/>
	<circle cx="263.519" cy="161.361" r="3.849"/>
	<circle cx="286.61" cy="153.663" r="3.849"/>
	<circle cx="286.61" cy="169.058" r="3.848"/>
	<circle cx="271.216" cy="169.058" r="3.848"/>
	<circle cx="278.913" cy="176.755" r="3.849"/>
	<circle cx="263.519" cy="176.755" r="3.849"/>
	<circle cx="286.61" cy="184.452" r="3.849"/>
	<circle cx="271.216" cy="184.452" r="3.849"/>
	<circle cx="255.821" cy="184.452" r="3.849"/>
	<circle cx="278.913" cy="192.149" r="3.849"/>
	<circle cx="263.519" cy="192.149" r="3.849"/>
	<circle cx="286.61" cy="199.847" r="3.849"/>
	<circle cx="271.216" cy="199.847" r="3.849"/>
	<circle cx="255.821" cy="199.847" r="3.849"/>
	<circle cx="240.427" cy="199.847" r="3.849"/>
	<circle cx="248.124" cy="192.149" r="3.849"/>
	<circle cx="278.913" cy="207.544" r="3.849"/>
	<circle cx="263.519" cy="207.544" r="3.849"/>
	<circle cx="286.61" cy="215.241" r="3.849"/>
	<circle cx="271.216" cy="215.241" r="3.849"/>
	<circle cx="255.821" cy="215.241" r="3.849"/>
	<circle cx="248.124" cy="207.544" r="3.849"/>
	<circle cx="278.913" cy="222.938" r="3.849"/>
	<circle cx="263.519" cy="222.938" r="3.849"/>
	<circle cx="286.61" cy="230.636" r="3.849"/>
	<circle cx="271.216" cy="230.636" r="3.849"/>
	<circle cx="255.821" cy="230.636" r="3.849"/>
	<circle cx="278.913" cy="238.333" r="3.849"/>
	<circle cx="263.519" cy="238.333" r="3.849"/>
	<circle cx="286.61" cy="246.03" r="3.849"/>
	<circle cx="271.216" cy="246.03" r="3.849"/>
	<circle cx="255.821" cy="246.03" r="3.849"/>
	<circle cx="240.427" cy="246.03" r="3.849"/>
	<circle cx="248.124" cy="238.333" r="3.849"/>
	<circle cx="286.61" cy="122.874" r="3.848"/>
</g>
</svg>
