<?xml version="1.0" encoding="utf-8"?>
<!-- Generator: Adobe Illustrator 16.0.0, SVG Export Plug-In . SVG Version: 6.00 Build 0)  -->
<!DOCTYPE svg PUBLIC "-//W3C//DTD SVG 1.1//EN" "http://www.w3.org/Graphics/SVG/1.1/DTD/svg11.dtd">
<svg version="1.1" id="Capa_1" xmlns="http://www.w3.org/2000/svg" xmlns:xlink="http://www.w3.org/1999/xlink" x="0px" y="0px"
	 width="350px" height="350px" viewBox="0 0 350 350" enable-background="new 0 0 350 350" xml:space="preserve">
<rect x="141.187" y="259.532" fill="#CB8252" width="152.159" height="25.36"/>
<rect x="145.414" y="221.493" fill="#CB8252" width="143.706" height="25.359"/>
<rect x="149.64" y="183.453" fill="#CB8252" width="135.252" height="25.359"/>
<rect x="153.867" y="145.414" fill="#CB8252" width="126.799" height="25.36"/>
<rect x="158.094" y="107.374" fill="#CB8252" width="118.346" height="25.36"/>
<rect x="162.32" y="69.334" fill="#CB8252" width="109.893" height="25.36"/>
<g>
	<polygon fill="#556080" points="264.343,183.453 263.468,170.773 250.788,170.773 251.663,183.453 	"/>
	<polygon fill="#556080" points="246.418,107.374 259.098,107.374 258.223,94.694 245.542,94.694 	"/>
	<polygon fill="#556080" points="266.968,221.493 266.092,208.813 253.412,208.813 254.288,221.493 	"/>
	<polygon fill="#556080" points="261.718,145.414 260.844,132.734 248.163,132.734 249.038,145.414 	"/>
	<polygon fill="#556080" points="258.658,284.893 259.533,297.572 272.213,297.572 271.338,284.893 	"/>
	<polygon fill="#556080" points="256.473,69.334 255.307,52.427 242.626,52.427 243.793,69.334 	"/>
	<polygon fill="#556080" points="269.588,259.532 268.713,246.853 256.033,246.853 256.908,259.532 	"/>
</g>
<g>
	<polygon fill="#556080" points="182.87,183.453 183.745,170.773 171.065,170.773 170.19,183.453 	"/>
	<polygon fill="#556080" points="185.495,145.414 186.369,132.734 173.69,132.734 172.815,145.414 	"/>
	<polygon fill="#556080" points="175.435,107.374 188.115,107.374 188.99,94.694 176.311,94.694 	"/>
	<polygon fill="#556080" points="180.245,221.493 181.12,208.813 168.44,208.813 167.565,221.493 	"/>
	<polygon fill="#556080" points="177.625,259.532 178.499,246.853 165.82,246.853 164.945,259.532 	"/>
	<polygon fill="#556080" points="163.195,284.893 162.32,297.572 175,297.572 175.875,284.893 	"/>
	<polygon fill="#556080" points="190.74,69.334 191.906,52.427 179.228,52.427 178.061,69.334 	"/>
</g>
<g>
	<circle fill="#ECF0F1" cx="183.453" cy="82.014" r="4.227"/>
	<circle fill="#ECF0F1" cx="179.228" cy="120.054" r="4.227"/>
	<circle fill="#ECF0F1" cx="175" cy="158.093" r="4.227"/>
	<circle fill="#ECF0F1" cx="175" cy="196.133" r="4.227"/>
	<circle fill="#ECF0F1" cx="259.533" cy="196.133" r="4.227"/>
	<circle fill="#ECF0F1" cx="263.76" cy="234.173" r="4.227"/>
	<circle fill="#ECF0F1" cx="170.773" cy="234.173" r="4.227"/>
	<circle fill="#ECF0F1" cx="170.773" cy="272.213" r="4.227"/>
	<circle fill="#ECF0F1" cx="263.76" cy="272.213" r="4.227"/>
	<circle fill="#ECF0F1" cx="259.533" cy="158.093" r="4.227"/>
	<circle fill="#ECF0F1" cx="255.307" cy="120.054" r="4.227"/>
	<circle fill="#ECF0F1" cx="251.08" cy="82.014" r="4.227"/>
</g>
<path fill="#CBB292" d="M80.775,57.893l-4.226-4.227c-0.791-0.794-1.869-1.239-2.989-1.239h-8.453c-1.12,0-2.198,0.444-2.988,1.239
	l-4.227,4.227c-0.795,0.791-1.238,1.868-1.238,2.988v16.907c0,1.12,0.443,2.197,1.238,2.988l4.227,4.227
	c0.791,0.795,1.868,1.239,2.988,1.239v198.652c0,2.333,1.894,4.228,4.227,4.228s4.227-1.895,4.227-4.228V86.241
	c1.12,0,2.198-0.444,2.989-1.239l4.226-4.227c0.795-0.791,1.238-1.868,1.238-2.988V60.881C82.014,59.761,81.57,58.683,80.775,57.893
	z"/>
<path fill="#E2C5A6" d="M110.362,269.225l-4.227-4.227c-0.79-0.795-1.868-1.238-2.988-1.238V65.107c0-2.333-1.893-4.227-4.227-4.227
	c-2.333,0-4.227,1.894-4.227,4.227V263.76c-1.12,0-2.198,0.443-2.988,1.238l-4.227,4.227c-0.794,0.79-1.238,1.867-1.238,2.988
	v16.907c0,1.119,0.444,2.196,1.238,2.987l4.227,4.228c0.791,0.794,1.868,1.237,2.988,1.237h8.453c1.12,0,2.198-0.443,2.988-1.237
	l4.227-4.228c0.794-0.791,1.238-1.868,1.238-2.987v-16.907C111.601,271.092,111.157,270.015,110.362,269.225z"/>
</svg>
